<svg width="900" height="600" viewBox="0 0 900 600" fill="none" xmlns="http://www.w3.org/2000/svg">
<g clip-path="url(#clip0_1235_17987)">
<path fill-rule="evenodd" clip-rule="evenodd" d="M579.48 488.732H303.403C287.029 488.732 273.756 474.014 273.756 455.859C273.756 437.704 287.029 422.986 303.403 422.986H407.491C419.176 422.986 428.651 412.485 428.656 399.529L428.657 398.42C428.662 386.054 419.623 376.024 408.47 376.024H407.564C378.153 376.024 354.434 349.457 354.828 316.852C354.881 312.458 354.882 308.067 354.831 303.671C354.453 271.08 378.165 244.531 407.47 244.531H535.605C548.711 244.531 559.336 232.751 559.336 218.22C559.336 195.698 575.799 177.443 596.109 177.443H624.21C644.519 177.443 660.983 195.698 660.983 218.22V292.462C660.983 313.418 676.304 330.404 695.202 330.404H711.807C737.871 330.404 759 353.833 759 382.733C759 411.633 737.871 435.062 711.807 435.062H625.911C613.935 435.062 604.589 445.917 604.928 459.191L604.945 459.908C605.296 475.729 593.753 488.732 579.48 488.732Z" fill="url(#paint0_linear_1235_17987)"/>
<path fill-rule="evenodd" clip-rule="evenodd" d="M320.52 163.711H596.597C612.971 163.711 626.244 178.483 626.244 196.705C626.244 214.927 612.971 229.699 596.597 229.699H492.509C480.824 229.699 471.349 240.238 471.344 253.242L471.342 254.356C471.338 266.767 480.377 276.833 491.53 276.833H492.435C521.847 276.833 545.565 303.498 545.172 336.223C545.119 340.633 545.118 345.043 545.169 349.453C545.547 382.164 521.835 408.81 492.53 408.81H364.395C351.289 408.81 340.664 420.634 340.664 435.218C340.664 457.823 324.201 476.144 303.891 476.144H275.79C255.481 476.144 239.017 457.823 239.017 435.218V360.703C239.017 339.67 223.696 322.621 204.798 322.621H188.193C162.129 322.621 141 299.106 141 270.1C141 241.094 162.129 217.579 188.193 217.579H274.089C286.065 217.579 295.411 206.684 295.072 193.361L295.055 192.641C294.704 176.762 306.247 163.711 320.52 163.711Z" fill="url(#paint1_linear_1235_17987)"/>
<path d="M654.001 323.066C642.545 347.516 609.846 362.957 609.846 362.957C609.846 362.957 596.37 325.865 607.826 301.415C619.3 276.965 638.912 261.987 651.665 267.975C664.418 273.944 665.457 298.616 654.001 323.066ZM583.375 351.946C596.147 375.729 589.01 411.171 589.01 411.171C589.01 411.171 551.213 399.864 538.442 376.063C525.67 352.262 525.373 327.589 537.793 320.934C550.194 314.28 570.603 328.164 583.375 351.946ZM569.472 489.21C569.083 493.882 568.564 497.089 568.434 497.904C568.416 497.997 568.416 498.072 568.397 498.109V498.128C568.397 498.128 568.379 498.128 568.379 498.109L568.249 498.09C567.841 497.96 566.618 497.589 564.782 496.977C554.976 493.66 527.913 483.076 517.18 463.964C503.963 440.423 503.222 415.732 515.493 408.854C527.764 401.958 548.433 415.453 561.65 438.994C567.563 449.542 569.546 462.481 569.899 473.585C570.103 479.554 569.843 484.984 569.472 489.21ZM647.902 419.735C621.765 426.5 589.011 411.189 589.011 411.189C589.011 411.189 608.975 377.138 635.112 370.372C661.249 363.606 685.291 369.166 688.831 382.791C692.372 396.434 674.039 412.969 647.902 419.735Z" fill="#E1E4E5"/>
<path d="M624.861 499.331C599.576 508.785 565.413 496.959 565.413 496.959C565.413 496.959 581.725 461.016 607.01 451.562C632.294 442.108 656.799 445.13 661.73 458.328C666.661 471.526 650.163 489.878 624.861 499.331Z" fill="#E1E4E5"/>
<path d="M617.166 353.615C616.944 353.948 597.387 386.74 576.663 477.904C575.143 484.577 573.623 491.584 572.103 498.888L571.658 498.795L568.396 498.109V498.091H568.377L568.248 498.072C567.84 497.942 566.616 497.572 564.781 496.96C566.402 489.143 568.107 481.345 569.897 473.566C590.659 383.014 609.863 351.057 610.715 349.629L617.166 353.615ZM230.417 137.216C241.873 161.666 274.572 177.107 274.572 177.107C274.572 177.107 288.048 140.015 276.592 115.565C265.118 91.1146 245.506 76.1376 232.753 82.1246C220 88.0936 218.962 112.766 230.417 137.216ZM254.728 415.466C276.874 430.913 312.913 427.936 312.913 427.936C312.913 427.936 306.037 389.075 283.892 373.629C261.73 358.191 237.257 355.026 229.206 366.588C221.145 378.134 232.583 400.02 254.728 415.466ZM338.193 509.843C367.246 504.665 392.797 474.512 392.797 474.512C392.797 474.512 357.451 449.793 328.398 454.97C299.34 460.167 277.98 476.635 280.693 491.793C283.387 506.945 309.141 515.02 338.193 509.843ZM301.045 166.096C288.273 189.879 295.409 225.321 295.409 225.321C295.409 225.321 333.206 214.013 345.977 190.212C358.749 166.411 359.046 141.739 346.626 135.084C334.225 128.43 313.816 142.314 301.045 166.096ZM314.946 303.36C315.335 308.031 315.854 311.238 315.984 312.054C316.003 312.147 316.003 312.221 316.021 312.258V312.276C316.021 312.276 316.04 312.276 316.04 312.258L316.17 312.239C316.577 312.11 317.801 311.739 319.636 311.127C329.442 307.809 356.505 297.225 367.238 278.113C380.455 254.572 381.196 229.881 368.925 223.004C356.654 216.108 335.985 229.603 322.769 253.144C316.855 263.692 314.872 276.63 314.52 287.734C314.316 293.703 314.575 299.134 314.946 303.36ZM236.518 233.885C262.655 240.651 295.409 225.339 295.409 225.339C295.409 225.339 275.445 191.287 249.308 184.522C223.172 177.756 199.13 183.317 195.589 196.941C192.049 210.584 210.381 227.119 236.518 233.885Z" fill="#E1E4E5"/>
<path d="M259.56 313.481C284.844 322.935 319.007 311.109 319.007 311.109C319.007 311.109 302.695 275.166 277.411 265.712C252.127 256.259 227.621 259.28 222.69 272.478C217.76 285.676 234.257 304.028 259.56 313.481Z" fill="#E1E4E5"/>
<path d="M267.253 167.763C267.475 168.097 287.032 200.888 307.756 292.052C309.276 298.725 310.796 305.732 312.316 313.035L312.761 312.943L316.023 312.257V312.238H316.042L316.171 312.22C316.579 312.09 317.803 311.719 319.638 311.108C318.017 303.292 316.312 295.493 314.522 287.714C293.76 197.163 274.556 165.205 273.704 163.778L267.253 167.763ZM643.881 124.912C631.308 151.748 595.419 168.695 595.419 168.695C595.419 168.695 580.628 127.984 593.202 101.149C605.795 74.3138 627.32 57.8748 641.318 64.4468C655.315 70.9968 656.455 98.0768 643.881 124.912ZM566.365 156.61C580.383 182.713 572.55 221.613 572.55 221.613C572.55 221.613 531.066 209.202 517.048 183.079C503.031 156.956 502.705 129.877 516.336 122.573C529.947 115.269 552.347 130.507 566.365 156.61ZM551.107 307.266C550.68 312.393 550.11 315.913 549.968 316.808C549.947 316.909 549.947 316.991 549.927 317.032V317.052C549.927 317.052 549.907 317.052 549.907 317.032L549.764 317.011C549.317 316.869 547.974 316.462 545.96 315.791C535.197 312.149 505.493 300.532 493.713 279.556C479.207 253.717 478.394 226.618 491.862 219.07C505.33 211.501 528.015 226.313 542.521 252.151C549.012 263.727 551.188 277.928 551.575 290.115C551.763 295.836 551.606 301.563 551.107 307.266ZM637.185 231.012C608.499 238.438 572.549 221.633 572.549 221.633C572.549 221.633 594.461 184.259 623.147 176.833C651.834 169.407 678.222 175.511 682.107 190.464C685.993 205.438 665.872 223.586 637.185 231.012Z" fill="#E1E4E5"/>
<path d="M611.896 318.374C584.146 328.75 546.649 315.77 546.649 315.77C546.649 315.77 564.553 276.321 592.304 265.945C620.055 255.569 646.951 258.885 652.363 273.371C657.775 287.857 639.667 307.998 611.896 318.374Z" fill="#E1E4E5"/>
<path d="M603.453 158.44C603.209 158.806 581.745 194.797 558.999 294.854C557.259 302.516 555.591 310.193 553.994 317.885L553.506 317.783L549.925 317.031V317.01H549.905L549.763 316.99C549.315 316.847 547.972 316.441 545.958 315.769C547.737 307.191 549.608 298.632 551.573 290.094C574.36 190.708 595.437 155.633 596.373 154.066L603.453 158.44Z" fill="#E1E4E5"/>
<path d="M450 508.189C553.658 508.189 637.689 424.157 637.689 320.5C637.689 216.842 553.658 132.811 450 132.811C346.342 132.811 262.311 216.842 262.311 320.5C262.311 424.157 346.342 508.189 450 508.189Z" fill="#4F27AA"/>
<path d="M450 360.555V329.031C473.386 329.031 492.344 310.213 492.344 286.999C492.344 263.785 473.386 244.967 450 244.967C426.614 244.967 407.655 263.785 407.655 286.999M450 412.685C449.431 412.685 448.97 413.172 448.97 413.772C448.97 414.373 449.431 414.859 450 414.859C450.569 414.859 451.03 414.373 451.03 413.772C451.03 413.172 450.569 412.685 450 412.685Z" stroke="white" stroke-width="28.027" stroke-linecap="round" stroke-linejoin="round"/>
<path d="M253.285 507.916C259.044 502.378 268.029 502.378 273.355 507.916C278.68 513.454 278.328 522.432 272.569 527.97C266.81 533.509 257.824 533.509 252.499 527.971C247.174 522.433 247.525 513.454 253.285 507.916Z" fill="#4F27AA"/>
<path d="M708.184 249.127C700.195 248.971 693.841 242.617 693.992 234.936C694.142 227.255 700.74 221.154 708.728 221.311C716.717 221.467 723.071 227.821 722.92 235.502C722.77 243.183 716.172 249.284 708.184 249.127Z" fill="#4F27AA"/>
<path d="M202.465 414.074C199.585 416.843 199.496 421.423 202.265 424.302C205.034 427.182 209.613 427.272 212.493 424.502C215.373 421.733 215.463 417.154 212.693 414.274C209.924 411.394 205.345 411.305 202.465 414.074Z" fill="#E1E4E5"/>
<path d="M707.831 366.968C711.826 367.046 715.127 363.871 715.205 359.877C715.284 355.883 712.109 352.581 708.114 352.503C704.12 352.425 700.818 355.599 700.74 359.594C700.662 363.588 703.837 366.89 707.831 366.968Z" fill="#E1E4E5"/>
<path d="M176.253 248.195C187.506 241.988 201.66 246.079 207.867 257.332C214.073 268.585 209.982 282.739 198.729 288.946C187.476 295.152 173.323 291.061 167.116 279.808C160.909 268.555 165 254.402 176.253 248.195Z" fill="#4F27AA"/>
<path d="M602.821 525.024C590.475 521.456 583.359 508.555 586.928 496.209C590.496 483.864 603.397 476.748 615.743 480.316C628.088 483.885 635.204 496.786 631.636 509.131C628.067 521.477 615.166 528.593 602.821 525.024Z" fill="#4F27AA"/>
</g>
<defs>
<linearGradient id="paint0_linear_1235_17987" x1="506.032" y1="2.91736" x2="512.189" y2="827.427" gradientUnits="userSpaceOnUse">
<stop stop-color="white"/>
<stop offset="1" stop-color="#EEEEEE"/>
</linearGradient>
<linearGradient id="paint1_linear_1235_17987" x1="393.969" y1="651.312" x2="387.765" y2="-176.229" gradientUnits="userSpaceOnUse">
<stop stop-color="white"/>
<stop offset="1" stop-color="#EEEEEE"/>
</linearGradient>
<clipPath id="clip0_1235_17987">
<rect width="900" height="600" fill="white"/>
</clipPath>
</defs>
</svg>
