<svg width="900" height="600" viewBox="0 0 900 600" fill="none" xmlns="http://www.w3.org/2000/svg">
<g clip-path="url(#clip0_1235_20600)">
<path d="M324.861 98.7161C424.878 92.8891 529.74 123.241 514.327 167.239C498.912 211.237 596.735 151.612 635.771 167.475C663.564 178.768 652.455 213.148 665.899 227.002C696.727 258.764 728.257 218.767 767.493 242.766C806.729 266.765 726.399 490.749 685.41 492L217.897 489.148L184.347 486.121C184.347 486.121 91.544 435.17 157.93 388.169C202.818 356.389 170.52 333.311 165.638 318.762C160.032 302.057 146.955 272.882 203.94 251.472C260.926 230.062 246.213 183.475 244.811 173.83C243.411 164.18 224.847 104.544 324.861 98.7161Z" fill="url(#paint0_linear_1235_20600)"/>
<path d="M554.719 201.039C558.957 207.687 570.029 215.434 577.882 215.328C604.634 214.838 613.441 196.615 616.328 189.98C615.785 189.848 614.871 189.742 614.222 189.662C609.296 188.947 604.263 184.074 602.793 178.578C600.899 171.426 598.569 157.441 598.847 148.555L565.01 167.281C565.063 169.85 565.235 172.658 565.473 175.492C565.645 177.214 565.817 178.909 566.016 180.551C566.202 182.127 566.413 183.623 566.612 185.001C567.235 189.636 565.169 194.231 561.262 196.787L554.719 201.039Z" fill="#F8AE9D"/>
<path d="M551.807 128.198C553.634 132.992 552.866 138.436 551.012 143.216C549.701 146.594 546.787 143.614 543.159 143.68C537.544 143.773 533.16 137.932 529.77 122.451C527.611 111.088 527.068 105.327 527.505 104.228C529.054 100.294 534.166 98.1884 538.378 97.8184" fill="#2E2445"/>
<path d="M543.264 94.1498C534.417 104.811 531.199 134.808 538.668 155.706C543.979 170.565 550.15 180.154 557.355 179.849C568.294 179.385 589.497 170.393 596.397 162.884C608.832 149.362 605.217 122.849 602.648 106.162C600.317 90.9978 593.218 71.3048 574.161 75.0528C561.632 77.5028 551.197 84.5748 543.264 94.1498Z" fill="#F8AE9D"/>
<path d="M593.316 105.926C591.354 108.447 587.894 109.003 585.044 109.501C581.214 110.171 579.318 111.567 577.33 115.313C576.071 117.705 574.811 120.326 572.558 121.622C570.727 122.68 570.796 119.978 570.501 117.884C570.476 117.701 570.439 117.52 570.389 117.342C569.944 115.671 568.165 115.958 567.64 117.606C567.163 119.087 566.143 120.34 564.844 121.038C564.631 121.152 564.406 121.252 564.181 121.209C563.876 121.167 563.637 120.882 563.438 120.625C563.021 120.087 562.607 119.404 562.178 118.68C560.772 116.305 558.116 117.159 556.546 119.429C555.565 120.839 554.398 122.292 552.795 122.619C552.278 122.733 551.628 122.648 551.39 122.149C551.085 121.537 551.562 120.924 551.482 120.298C551.416 119.714 551.164 119.457 550.886 118.959C549.792 117.021 547.297 116.952 545.759 118.56C544.689 119.678 543.574 120.752 542.416 121.779C541.925 122.206 541.21 122.634 540.719 122.206C540.454 121.978 540.388 121.594 540.335 121.223C540.056 119.415 539.791 117.606 539.513 115.797C539.354 114.786 538.81 113.461 537.883 113.717C537.432 113.846 537.167 114.316 536.915 114.743C536.61 115.284 531.162 121.451 531.056 120.981C530.208 117.478 528.471 114.287 527.623 110.783C522.136 88.236 546.485 70.105 565.082 70.005C569.218 69.976 572.995 70.043 577.012 70.998C581.293 72.023 585.813 73.651 589.697 75.944C595.145 79.149 599.267 84.974 598.207 91.925" fill="#2E2445"/>
<path d="M584.558 98.1895C581.856 101.249 581.141 105.553 580.889 109.619C580.518 115.751 581.022 122.121 583.856 127.564C584.664 129.113 585.26 136.781 586.504 136.357C586.902 136.225 586.836 130.279 587.882 127.074C589.497 122.107 596.94 120.214 600.291 123.352C605.641 128.345 602.503 134.411 600.728 138.185C599.668 140.463 597.987 143.019 597.695 145.429C597.338 148.515 597.232 159.759 599.245 162.381C600.927 164.579 602.714 153.958 604.237 151.866C615.508 136.278 626.314 96.5865 607.072 87.9785C604.145 86.6675 595.113 85.9915 592.371 87.6605M513.307 413.702C512.194 413.888 511.069 414.047 509.903 414.087C503.705 414.285 497.719 412.921 491.667 411.888C486.343 410.974 484.9 410.471 485.005 404.048C485.933 353.18 493.415 302.444 506.87 253.377C508.923 245.881 511.161 238.332 515.095 231.631C521.809 220.202 537.225 210.336 549.051 204.8C550.72 204.018 557.633 208.415 559.315 207.66C560.785 206.998 562.083 205.965 563.566 205.316C567.91 203.422 570.823 207.382 574.452 209.038C576.333 209.885 578.425 210.428 580.491 210.336C582.173 210.269 583.696 209.25 585.232 210.044C592.145 213.62 609.309 187.08 609.309 187.08L616.765 194.827L638.524 217.619L692.902 292.538C692.902 292.538 702.768 353.935 709.549 394.182C710.727 401.121 715.389 416.126 716.316 421.384C716.118 420.245 669.898 419.94 667.408 419.94H573.207C567.923 419.94 553.713 422.178 550.005 418.298C545.436 413.53 540.151 391.652 539.873 385.52C538.959 364.9 540.376 344.439 540.655 323.7C540.535 332.136 538.112 339.764 537.079 348.028C535.741 358.663 533.834 369.284 532.113 379.865C530.735 388.368 529.411 396.896 528.351 405.452C527.875 409.306 528.484 411.597 525.226 413.107C522.485 414.365 516.512 413.159 513.307 413.702Z" fill="#2E2445"/>
<path d="M536.256 396.089C538.773 395.056 554.307 391.203 561.313 389.746C564.981 388.991 581.615 384.674 585.469 384.674C589.323 384.674 594.567 390.183 594.567 390.183L593.177 409.134C589.469 408.764 584.502 410.684 581.84 411.055C579.178 411.425 570.133 411.478 564.571 408.684C564.253 408.525 563.962 408.353 563.67 408.181C561.432 410.167 558.625 412.101 555.512 412.26C555.512 412.26 553.076 412.008 553.314 411.028C553.42 410.551 555.036 408.088 556.651 405.678C554.267 408.101 550.374 412.035 545.884 412.26C545.884 412.26 543.448 412.008 543.686 411.028C543.818 410.445 546.149 406.962 548.03 404.194C548.003 404.221 547.964 404.234 547.95 404.261C545.977 405.996 541.289 411.982 535.74 412.26C535.74 412.26 533.303 412.008 533.541 411.028C533.621 410.671 534.548 409.201 535.674 407.492C534.031 408.754 532.271 409.854 530.416 410.777C524.417 413.743 521 411.492 521 410.777C520.987 410.048 533.74 397.122 536.256 396.089Z" fill="#F8AE9D"/>
<path d="M590.275 374.078C590.275 374.078 580.608 379.561 581.469 391.215C582.329 402.869 585.826 416.378 600.42 414.961C615.014 413.557 590.275 374.078 590.275 374.078Z" fill="#2E2445"/>
<path d="M598.065 413.807C633.054 425.952 679.87 414.35 709.549 394.181C728.143 381.573 740.009 365.561 738.009 349.921C732.831 309.29 700.901 216.162 673.275 202.574C654.496 193.33 631.717 189.503 619.016 187.966C613.057 187.238 609.335 187.066 609.335 187.066L613.944 200.071L637.014 265.123C637.875 303.728 665.501 326.652 660.005 335.644C654.509 344.61 611.11 354.291 588.318 369.64C582.014 373.905 574.015 404.749 598.065 413.807Z" fill="#2E2445"/>
<path d="M637.014 265.123C636.988 272.447 638.008 279.783 639.915 286.882C641.835 293.981 644.643 300.827 647.9 307.423C649.529 310.72 651.264 313.952 653.052 317.143C654.814 320.348 656.628 323.527 658.111 326.785C658.84 328.414 659.475 330.095 659.727 331.751C659.793 332.559 659.859 333.393 659.634 334.095C659.581 334.479 659.356 334.77 659.224 335.115C658.972 335.419 658.8 335.75 658.482 336.042C656.111 338.412 652.721 340.015 649.503 341.564C636.286 347.59 622.248 352.053 608.872 358.066C602.184 361.072 595.562 364.317 589.404 368.369L588.265 369.137C587.881 369.402 587.523 369.746 587.153 370.051C586.471 370.712 585.878 371.46 585.391 372.276C584.411 373.878 583.749 375.627 583.233 377.401C582.252 380.964 581.842 384.632 581.815 388.301C582.054 384.659 582.663 381.017 583.736 377.56C584.875 374.13 586.636 370.793 589.934 369.19C596.118 365.35 602.753 362.29 609.481 359.47C616.222 356.688 623.042 354.053 629.889 351.497C636.736 348.901 643.623 346.425 650.35 343.352C653.661 341.71 657.065 340.161 659.886 337.313C660.243 336.969 660.535 336.492 660.839 336.082C661.064 335.578 661.369 335.102 661.449 334.572C661.766 333.512 661.66 332.466 661.568 331.473C661.25 329.513 660.535 327.738 659.767 326.043C658.191 322.653 656.35 319.487 654.562 316.296C652.774 313.104 650.973 309.939 649.265 306.721C642.444 293.901 637.703 279.797 637.014 265.123Z" fill="white"/>
<path d="M546.337 206.059C549.674 209.37 564.533 219.951 578.704 219.951C581.214 219.947 583.719 219.712 586.186 219.249C598.079 217.078 608.091 209.145 613.945 200.06C615.013 198.388 615.956 196.639 616.765 194.828C617.825 192.551 618.58 190.22 619.017 187.968C613.057 187.24 607.363 185.743 606.436 184.684C605.429 191.624 596.86 204.152 583.882 206.509C582.353 206.793 580.802 206.948 579.247 206.973H579.22C573.128 207.079 568.453 205.132 565.262 203.172C565.235 203.172 559.05 198.298 559.024 198.272L546.337 206.059Z" fill="#2E2445"/>
<path d="M537.011 357.35C537.048 356.702 536.965 356.061 536.988 355.412C537.014 354.711 537.092 354.025 537.145 353.325L537.53 349.314C537.776 346.583 538.023 343.851 538.23 341.117C538.641 335.701 538.92 330.265 539.066 324.835C539.346 313.974 539.189 303.088 538.459 292.25C538.259 289.214 538.004 286.189 537.724 283.162C537.57 281.609 537.41 280.057 537.243 278.506C537.077 276.984 536.83 275.472 536.811 273.932C536.798 272.976 538.234 272.911 538.45 273.799C539.084 276.434 539.177 279.265 539.45 281.96C539.708 284.667 539.941 287.373 540.146 290.09C540.541 295.564 540.803 301.044 540.932 306.529C541.167 317.446 540.778 328.367 539.847 339.258C539.581 342.32 539.277 345.367 538.907 348.41C538.721 349.962 538.514 351.511 538.287 353.058C538.183 353.742 538.091 354.426 537.961 355.095C537.797 355.882 537.504 356.608 537.34 357.395C537.251 357.576 536.989 357.508 537.011 357.35Z" fill="white"/>
<path d="M540.06 145.985C539.967 145.985 539.716 145.84 539.928 145.84C540.033 145.84 540.271 145.985 540.06 145.985Z" fill="#CC6144"/>
<path d="M689.042 494H220.958C213.909 494 207.602 491.841 203.101 488.445C198.602 485.049 196 480.508 196 475.657V254.343C196 249.492 198.602 244.951 203.101 241.555C207.602 238.159 213.909 236 220.958 236H689.042C696.091 236 702.398 238.159 706.898 241.555C711.398 244.951 714 249.492 714 254.343V475.657C714 480.508 711.398 485.049 706.898 488.445C702.398 491.841 696.091 494 689.042 494Z" fill="white" stroke="#E1E4E5" stroke-width="4"/>
<path fill-rule="evenodd" clip-rule="evenodd" d="M239 320.027V411.922C239 416.91 242.994 420.949 247.926 420.949H302.02L325.633 387.292C326.759 385.686 329.574 385.686 330.699 387.292L338.966 399.078L339.031 399.169L339.086 399.088L356.817 373.345C358.043 371.563 361.115 371.563 362.341 373.345L385.822 407.443V320.027C385.822 315.039 381.818 311 376.896 311H247.926C242.994 311 239 315.039 239 320.027Z" fill="#4F27AA"/>
<path d="M280.405 373.588C271.792 373.588 264.81 366.606 264.81 357.993C264.81 349.38 271.792 342.398 280.405 342.398C289.018 342.398 296 349.38 296 357.993C296 366.606 289.018 373.588 280.405 373.588Z" fill="white"/>
<path d="M714.479 268.794H196V260.983C196 247.188 207.188 236 220.983 236H689.496C703.291 236 714.479 247.188 714.479 260.983V268.794Z" fill="white" stroke="#E1E4E5" stroke-width="4"/>
<path d="M221.033 259.375C222.57 259.375 224.044 258.764 225.131 257.677C226.217 256.591 226.828 255.117 226.828 253.58C226.828 252.043 226.217 250.569 225.131 249.482C224.044 248.395 222.57 247.785 221.033 247.785C219.496 247.785 218.022 248.395 216.935 249.482C215.849 250.569 215.238 252.043 215.238 253.58C215.238 255.117 215.849 256.591 216.935 257.677C218.022 258.764 219.496 259.375 221.033 259.375ZM245.178 259.375C245.946 259.385 246.707 259.242 247.419 258.955C248.131 258.669 248.779 258.243 249.325 257.704C249.872 257.165 250.305 256.523 250.601 255.814C250.897 255.106 251.05 254.346 251.05 253.579C251.05 252.811 250.897 252.051 250.601 251.343C250.305 250.635 249.871 249.993 249.325 249.454C248.778 248.915 248.13 248.489 247.418 248.203C246.706 247.916 245.945 247.774 245.177 247.784C243.653 247.804 242.199 248.423 241.128 249.508C240.058 250.593 239.458 252.056 239.458 253.58C239.458 255.104 240.058 256.566 241.129 257.651C242.199 258.736 243.654 259.355 245.178 259.375ZM268.357 259.375C269.894 259.374 271.368 258.764 272.454 257.677C273.541 256.59 274.151 255.116 274.151 253.579C274.151 252.042 273.54 250.568 272.453 249.481C271.366 248.395 269.892 247.784 268.355 247.785C266.818 247.785 265.344 248.396 264.258 249.483C263.171 250.57 262.561 252.044 262.561 253.581C262.561 255.118 263.172 256.592 264.259 257.678C265.346 258.765 266.82 259.375 268.357 259.375Z" fill="#E1E4E5"/>
<path d="M662.5 311H418.5C413.253 311 409 315.253 409 320.5C409 325.747 413.253 330 418.5 330H662.5C667.747 330 672 325.747 672 320.5C672 315.253 667.747 311 662.5 311Z" fill="#E1E4E5"/>
<path d="M662.5 355H418.5C413.253 355 409 359.253 409 364.5C409 369.747 413.253 374 418.5 374H662.5C667.747 374 672 369.747 672 364.5C672 359.253 667.747 355 662.5 355Z" fill="#E1E4E5"/>
<path d="M662.5 399H418.5C413.253 399 409 403.253 409 408.5C409 413.747 413.253 418 418.5 418H662.5C667.747 418 672 413.747 672 408.5C672 403.253 667.747 399 662.5 399Z" fill="#E1E4E5"/>
<path d="M662.5 443H418.5C413.253 443 409 447.253 409 452.5C409 457.747 413.253 462 418.5 462H662.5C667.747 462 672 457.747 672 452.5C672 447.253 667.747 443 662.5 443Z" fill="#E1E4E5"/>
<path d="M705.5 400H578.5C567.178 400 558 409.178 558 420.5C558 431.822 567.178 441 578.5 441H705.5C716.822 441 726 431.822 726 420.5C726 409.178 716.822 400 705.5 400Z" fill="white" stroke="#E1E4E5" stroke-width="4" stroke-linecap="round" stroke-linejoin="round"/>
<path d="M705.5 441H578.5C567.178 441 558 450.178 558 461.5C558 472.822 567.178 482 578.5 482H705.5C716.822 482 726 472.822 726 461.5C726 450.178 716.822 441 705.5 441Z" fill="white" stroke="#E1E4E5" stroke-width="4" stroke-linecap="round" stroke-linejoin="round"/>
<path d="M705.5 482H578.5C567.178 482 558 491.178 558 502.5C558 513.822 567.178 523 578.5 523H705.5C716.822 523 726 513.822 726 502.5C726 491.178 716.822 482 705.5 482Z" fill="white" stroke="#E1E4E5" stroke-width="4" stroke-linecap="round" stroke-linejoin="round"/>
<path d="M646.5 421C688.75 421 723 386.75 723 344.5C723 302.25 688.75 268 646.5 268C604.25 268 570 302.25 570 344.5C570 386.75 604.25 421 646.5 421Z" fill="#4F27AA"/>
<path fill-rule="evenodd" clip-rule="evenodd" d="M669.347 341.437C669.347 355.747 657.747 367.347 643.437 367.347C629.127 367.347 617.527 355.747 617.527 341.437C617.527 327.127 629.127 315.527 643.437 315.527C657.747 315.527 669.347 327.127 669.347 341.437Z" fill="#4F27AA" stroke="white" stroke-width="7" stroke-linecap="round" stroke-linejoin="round"/>
<path fill-rule="evenodd" clip-rule="evenodd" d="M675 373L663.929 361.93L675 373Z" fill="#4F27AA"/>
<path d="M675 373L663.929 361.93" stroke="white" stroke-width="7" stroke-linecap="round" stroke-linejoin="round"/>
<path fill-rule="evenodd" clip-rule="evenodd" d="M170.274 188.851H173.192C173.897 188.851 174.465 189.425 174.465 190.124V193.042C174.465 193.748 173.891 194.316 173.192 194.316H170.274C169.574 194.316 169 193.742 169 193.042V190.124C169 189.957 169.032 189.791 169.096 189.636C169.16 189.481 169.254 189.341 169.372 189.223C169.491 189.104 169.631 189.011 169.786 188.947C169.941 188.883 170.107 188.85 170.274 188.851ZM180.391 188.851H183.308C184.008 188.851 184.582 189.425 184.582 190.124V193.042C184.582 193.748 184.008 194.316 183.308 194.316H180.391C179.691 194.316 179.117 193.742 179.117 193.042V190.124C179.117 189.425 179.691 188.851 180.391 188.851ZM190.513 188.851H193.431C194.131 188.851 194.705 189.425 194.705 190.124V193.042C194.705 193.748 194.131 194.316 193.431 194.316H190.513C190.176 194.315 189.852 194.18 189.614 193.941C189.375 193.703 189.241 193.379 189.24 193.042V190.124C189.24 189.957 189.272 189.791 189.336 189.636C189.4 189.482 189.494 189.341 189.612 189.223C189.73 189.105 189.871 189.011 190.025 188.947C190.18 188.883 190.346 188.851 190.513 188.851ZM200.63 188.851H203.548C204.248 188.851 204.822 189.425 204.822 190.124V193.042C204.822 193.748 204.248 194.316 203.548 194.316H200.63C200.292 194.316 199.967 194.182 199.728 193.943C199.488 193.704 199.353 193.38 199.351 193.042V190.124C199.355 189.786 199.491 189.464 199.73 189.226C199.969 188.988 200.292 188.853 200.63 188.851ZM210.747 188.851H213.665C214.003 188.851 214.327 188.985 214.567 189.224C214.807 189.462 214.942 189.786 214.944 190.124V193.042C214.944 193.748 214.37 194.316 213.665 194.316H210.747C210.047 194.316 209.473 193.742 209.473 193.042V190.124C209.473 189.425 210.047 188.851 210.747 188.851ZM180.762 199.882H183.679C184.379 199.882 184.953 200.456 184.953 201.156V204.08C184.953 204.779 184.379 205.353 183.679 205.353H180.761C180.423 205.353 180.1 205.219 179.861 204.98C179.622 204.741 179.488 204.418 179.488 204.08V201.162C179.487 200.994 179.519 200.828 179.583 200.672C179.646 200.517 179.74 200.376 179.858 200.257C179.977 200.138 180.118 200.043 180.273 199.979C180.428 199.915 180.594 199.882 180.762 199.882ZM190.878 199.882H193.796C194.496 199.882 195.07 200.456 195.07 201.156V204.08C195.07 204.779 194.496 205.353 193.796 205.353H190.878C190.541 205.352 190.218 205.217 189.979 204.979C189.741 204.74 189.606 204.417 189.605 204.08V201.162C189.604 200.994 189.636 200.828 189.7 200.673C189.763 200.517 189.857 200.376 189.975 200.257C190.093 200.138 190.234 200.044 190.389 199.979C190.544 199.915 190.71 199.882 190.878 199.882ZM200.995 199.882H203.913C204.251 199.882 204.576 200.016 204.815 200.255C205.055 200.494 205.19 200.818 205.192 201.156V204.08C205.19 204.418 205.055 204.742 204.815 204.98C204.575 205.219 204.251 205.353 203.913 205.353H200.995C200.295 205.353 199.721 204.779 199.721 204.08V201.162C199.721 200.456 200.295 199.882 200.995 199.882ZM190.513 177H193.431C194.131 177 194.705 177.574 194.705 178.274V181.191C194.705 181.897 194.131 182.465 193.431 182.465H190.513C190.176 182.464 189.852 182.329 189.614 182.09C189.375 181.852 189.241 181.528 189.24 181.191V178.274C189.239 178.107 189.272 177.941 189.336 177.786C189.4 177.631 189.493 177.491 189.612 177.372C189.73 177.254 189.87 177.16 190.025 177.096C190.18 177.032 190.346 177 190.513 177ZM200.63 177H203.548C204.248 177 204.822 177.574 204.822 178.274V181.191C204.822 181.897 204.248 182.465 203.548 182.465H200.63C200.292 182.465 199.967 182.331 199.728 182.092C199.488 181.853 199.353 181.529 199.351 181.191V178.274C199.357 177.574 199.931 177 200.63 177ZM704.273 186.851H707.191C707.897 186.851 708.465 187.425 708.465 188.124V191.042C708.465 191.748 707.891 192.316 707.191 192.316H704.273C703.936 192.315 703.612 192.18 703.374 191.941C703.135 191.703 703.001 191.379 703 191.042V188.124C703 187.957 703.032 187.791 703.096 187.636C703.16 187.482 703.254 187.341 703.372 187.223C703.49 187.105 703.631 187.011 703.785 186.947C703.94 186.883 704.106 186.851 704.273 186.851ZM714.39 186.851H717.308C718.008 186.851 718.582 187.425 718.582 188.124V191.042C718.582 191.748 718.008 192.316 717.308 192.316H714.39C714.053 192.315 713.729 192.18 713.491 191.941C713.253 191.703 713.118 191.379 713.117 191.042V188.124C713.117 187.425 713.691 186.851 714.39 186.851ZM724.513 186.851H727.431C728.13 186.851 728.704 187.425 728.704 188.124V191.042C728.704 191.748 728.13 192.316 727.431 192.316H724.513C723.813 192.316 723.239 191.742 723.239 191.042V188.124C723.239 187.957 723.271 187.791 723.335 187.636C723.399 187.481 723.493 187.341 723.611 187.223C723.73 187.104 723.87 187.011 724.025 186.947C724.18 186.883 724.346 186.85 724.513 186.851ZM734.63 186.851H737.547C738.247 186.851 738.821 187.425 738.821 188.124V191.042C738.821 191.748 738.247 192.316 737.547 192.316H734.63C734.292 192.316 733.967 192.182 733.727 191.943C733.487 191.704 733.352 191.38 733.35 191.042V188.124C733.354 187.786 733.49 187.464 733.73 187.226C733.969 186.988 734.292 186.853 734.63 186.851ZM744.746 186.851H747.664C748.37 186.851 748.944 187.425 748.944 188.124V191.042C748.944 191.748 748.37 192.316 747.664 192.316H744.746C744.409 192.315 744.085 192.18 743.847 191.941C743.609 191.703 743.474 191.379 743.473 191.042V188.124C743.473 187.425 744.047 186.851 744.746 186.851ZM714.761 197.882H717.679C718.378 197.882 718.952 198.456 718.952 199.156V202.08C718.952 202.779 718.378 203.353 717.679 203.353H714.761C714.423 203.353 714.1 203.219 713.861 202.98C713.622 202.741 713.488 202.418 713.487 202.08V199.162C713.486 198.994 713.518 198.828 713.582 198.672C713.645 198.517 713.739 198.376 713.857 198.257C713.976 198.138 714.117 198.043 714.272 197.979C714.427 197.915 714.593 197.882 714.761 197.882ZM724.878 197.882H727.796C728.495 197.882 729.069 198.456 729.069 199.156V202.08C729.069 202.779 728.495 203.353 727.796 203.353H724.878C724.178 203.353 723.604 202.779 723.604 202.08V199.162C723.603 198.994 723.635 198.828 723.699 198.672C723.762 198.517 723.856 198.376 723.974 198.257C724.093 198.138 724.234 198.043 724.389 197.979C724.544 197.915 724.71 197.882 724.878 197.882ZM734.995 197.882H737.912C738.618 197.882 739.192 198.456 739.192 199.156V202.08C739.19 202.418 739.055 202.742 738.815 202.981C738.575 203.219 738.25 203.353 737.912 203.353H734.995C734.295 203.353 733.721 202.779 733.721 202.08V199.162C733.721 198.456 734.295 197.882 734.995 197.882ZM724.513 175H727.431C728.13 175 728.704 175.574 728.704 176.274V179.191C728.704 179.897 728.13 180.465 727.431 180.465H724.513C723.813 180.465 723.239 179.891 723.239 179.191V176.274C723.238 176.107 723.271 175.941 723.335 175.786C723.399 175.631 723.493 175.49 723.611 175.372C723.729 175.254 723.87 175.16 724.025 175.096C724.18 175.032 724.346 174.999 724.513 175ZM734.63 175H737.547C738.247 175 738.821 175.574 738.821 176.274V179.191C738.821 179.897 738.247 180.465 737.547 180.465H734.63C734.292 180.465 733.967 180.331 733.727 180.092C733.487 179.853 733.352 179.529 733.35 179.191V176.274C733.356 175.574 733.93 175 734.63 175Z" fill="#E1E4E5"/>
<path d="M145.686 365.576C151.859 360.178 153.621 349.337 153.621 349.337C153.621 349.337 141.658 348.518 135.486 353.917C129.313 359.315 126.589 366.303 129.407 369.524C132.226 372.745 139.511 370.979 145.686 365.576Z" fill="#E1E4E5"/>
<path d="M354.098 474.196C364.093 474.196 372.196 466.093 372.196 456.098C372.196 446.103 364.093 438 354.098 438C344.103 438 336 446.103 336 456.098C336 466.093 344.103 474.196 354.098 474.196Z" fill="url(#paint1_linear_1235_20600)"/>
<path fill-rule="evenodd" clip-rule="evenodd" d="M291 185.56V161.509C290.999 160.917 291.115 160.332 291.341 159.785C291.567 159.238 291.898 158.741 292.316 158.322C292.734 157.904 293.23 157.571 293.776 157.344C294.323 157.118 294.908 157.001 295.5 157H322.5C324.986 157 327 159.018 327 161.509V185.56C327 186.364 326.786 187.153 326.379 187.845C325.972 188.538 325.387 189.11 324.685 189.501L311.185 197.016C310.517 197.389 309.764 197.585 308.999 197.585C308.234 197.585 307.481 197.389 306.813 197.016L293.313 189.501C292.612 189.109 292.028 188.537 291.621 187.845C291.215 187.152 291 186.363 291 185.56Z" fill="#E1E4E5"/>
<path d="M301.517 176.888H316.483M301.517 169.877H316.483M301.517 183.698H316.483" stroke="white" stroke-width="2.529" stroke-linecap="round" stroke-linejoin="round"/>
<path d="M140.686 255.371L130 244.686L140.686 234L151.371 244.686L140.686 255.371Z" stroke="#E1E4E5" stroke-width="5.673" stroke-linecap="round" stroke-linejoin="round"/>
</g>
<defs>
<linearGradient id="paint0_linear_1235_20600" x1="469.731" y1="712.899" x2="462.298" y2="-330.693" gradientUnits="userSpaceOnUse">
<stop stop-color="white"/>
<stop offset="1" stop-color="#EEEEEE"/>
</linearGradient>
<linearGradient id="paint1_linear_1235_20600" x1="354.87" y1="494.491" x2="353.754" y2="398.624" gradientUnits="userSpaceOnUse">
<stop stop-color="white"/>
<stop offset="1" stop-color="#EEEEEE"/>
</linearGradient>
<clipPath id="clip0_1235_20600">
<rect width="900" height="600" fill="white"/>
</clipPath>
</defs>
</svg>
