<svg width="900" height="600" viewBox="0 0 900 600" fill="none" xmlns="http://www.w3.org/2000/svg">
<g clip-path="url(#clip0_1235_20637)">
<path d="M148 527H758" stroke="#E1E4E5" stroke-width="4"/>
<path d="M432.509 202.039C428.271 208.687 417.199 216.434 409.346 216.328C382.594 215.838 373.787 197.615 370.9 190.98C371.443 190.848 372.357 190.742 373.006 190.662C377.932 189.947 382.965 185.074 384.435 179.578C386.329 172.426 388.66 158.441 388.382 149.555L422.219 168.281C422.166 170.85 421.994 173.658 421.755 176.492C421.592 178.18 421.411 179.866 421.212 181.551C421.033 183.037 420.835 184.52 420.616 186.001C419.994 190.636 422.06 195.231 425.967 197.787L432.509 202.039Z" fill="#F8AE9D"/>
<path d="M435.422 129.198C433.594 133.992 434.362 139.436 436.216 144.216C437.527 147.594 440.441 144.614 444.07 144.68C449.685 144.773 454.068 138.932 457.459 123.451C459.617 112.088 460.16 106.327 459.723 105.228C458.174 101.294 453.062 99.1884 448.85 98.8184" fill="#2E2445"/>
<path d="M443.965 95.1498C452.811 105.811 456.029 135.808 448.56 156.706C443.249 171.565 437.078 181.154 429.873 180.849C418.934 180.385 397.732 171.393 390.832 163.884C378.396 150.362 382.012 123.849 384.581 107.162C386.912 91.9978 394.01 72.3048 413.067 76.0528C425.596 78.5028 436.032 85.5748 443.965 95.1498Z" fill="#F8AE9D"/>
<path d="M393.913 106.926C395.875 109.447 399.334 110.003 402.184 110.501C406.015 111.171 407.91 112.567 409.898 116.313C411.158 118.705 412.417 121.326 414.67 122.622C416.501 123.68 416.432 120.978 416.727 118.884C416.754 118.701 416.792 118.52 416.839 118.342C417.284 116.671 419.064 116.958 419.588 118.606C420.065 120.087 421.086 121.34 422.385 122.038C422.597 122.152 422.822 122.252 423.047 122.209C423.352 122.167 423.591 121.882 423.79 121.625C424.207 121.087 424.622 120.404 425.05 119.68C426.457 117.305 429.112 118.159 430.682 120.429C431.663 121.839 432.83 123.292 434.434 123.619C434.951 123.733 435.6 123.648 435.839 123.149C436.144 122.537 435.666 121.924 435.746 121.298C435.812 120.714 436.064 120.457 436.342 119.959C437.436 118.021 439.931 117.952 441.469 119.56C442.539 120.678 443.654 121.752 444.812 122.779C445.303 123.206 446.019 123.634 446.509 123.206C446.774 122.978 446.84 122.594 446.893 122.223C447.172 120.415 447.437 118.606 447.715 116.797C447.874 115.786 448.418 114.461 449.346 114.717C449.796 114.846 450.061 115.316 450.313 115.743C450.618 116.284 456.066 122.451 456.172 121.981C457.02 118.478 458.757 115.287 459.605 111.783C465.093 89.236 440.743 71.105 422.146 71.005C418.011 70.976 414.233 71.043 410.216 71.998C405.935 73.023 401.415 74.651 397.531 76.944C392.084 80.149 387.961 85.974 389.022 92.925" fill="#2E2445"/>
<path d="M402.671 99.1895C405.372 102.249 406.087 106.553 406.339 110.619C406.71 116.751 406.207 123.121 403.373 128.564C402.565 130.113 401.969 137.781 400.724 137.357C400.327 137.225 400.393 131.279 399.347 128.074C397.731 123.107 390.288 121.214 386.937 124.352C381.587 129.345 384.726 135.411 386.5 139.185C387.56 141.463 389.242 144.019 389.533 146.429C389.891 149.515 389.997 160.759 387.984 163.381C386.302 165.579 384.514 154.958 382.991 152.866C371.721 137.278 360.914 97.5865 380.157 88.9785C383.084 87.6675 392.116 86.9915 394.857 88.6605M473.921 414.702C475.034 414.888 476.16 415.047 477.325 415.087C483.523 415.285 489.509 413.921 495.561 412.888C500.885 411.974 502.329 411.471 502.223 405.048C501.296 354.18 493.813 303.444 480.358 254.377C478.305 246.881 476.067 239.332 472.134 232.631C465.419 221.202 450.004 211.336 438.177 205.8C436.509 205.018 429.596 209.415 427.914 208.66C426.444 207.998 425.146 206.965 423.662 206.316C419.319 204.422 416.405 208.382 412.776 210.038C410.896 210.885 408.803 211.428 406.737 211.336C405.055 211.269 403.532 210.25 401.996 211.044C395.083 214.62 377.919 188.08 377.919 188.08L370.463 195.827L348.704 218.619L294.327 293.538C294.327 293.538 284.46 354.935 277.68 395.182C276.501 402.121 271.839 417.126 270.912 422.384C271.111 421.245 317.331 420.94 319.82 420.94H414.021C419.305 420.94 433.516 423.178 437.224 419.298C441.793 414.53 447.077 392.652 447.355 386.52C448.269 365.9 446.852 345.439 446.574 324.7C446.693 333.136 449.116 340.764 450.149 349.028C451.487 359.663 453.394 370.284 455.116 380.865C456.493 389.368 457.817 397.896 458.877 406.452C459.354 410.306 458.744 412.597 462.002 414.107C464.744 415.365 470.717 414.159 473.921 414.702Z" fill="#2E2445"/>
<path d="M396.953 375.078C396.953 375.078 406.621 380.561 405.76 392.215C404.899 403.869 401.403 417.378 386.808 415.961C372.214 414.557 396.953 375.078 396.953 375.078Z" fill="#2E2445"/>
<path d="M350.214 266.123C350.24 273.447 349.221 280.783 347.314 287.882C345.393 294.981 342.586 301.827 339.328 308.423C337.699 311.72 335.964 314.952 334.176 318.143C332.415 321.348 330.6 324.527 329.117 327.785C328.389 329.414 327.753 331.095 327.501 332.751C327.435 333.559 327.369 334.393 327.594 335.095C327.647 335.479 327.872 335.77 328.005 336.115C328.256 336.419 328.428 336.75 328.746 337.042C331.117 339.412 334.507 341.015 337.725 342.564C350.942 348.59 364.98 353.053 378.356 359.066C385.044 362.072 391.666 365.317 397.824 369.369L398.963 370.137C399.347 370.402 399.705 370.746 400.076 371.051C400.758 371.713 401.35 372.461 401.837 373.276C402.817 374.878 403.479 376.627 403.996 378.401C404.976 381.964 405.386 385.632 405.413 389.301C405.174 385.659 404.565 382.017 403.493 378.56C402.354 375.13 400.592 371.793 397.295 370.19C391.11 366.35 384.475 363.29 377.747 360.47C371.006 357.688 364.186 355.053 357.339 352.497C350.492 349.901 343.605 347.425 336.878 344.352C333.567 342.71 330.163 341.161 327.342 338.313C326.985 337.969 326.694 337.492 326.389 337.082C326.164 336.578 325.859 336.102 325.78 335.572C325.462 334.512 325.568 333.466 325.661 332.473C325.978 330.513 326.694 328.738 327.462 327.043C329.038 323.653 330.878 320.487 332.666 317.296C334.454 314.104 336.255 310.939 337.964 307.721C344.784 294.901 349.525 280.797 350.214 266.123Z" fill="white"/>
<path d="M440.892 207.059C437.554 210.37 422.695 220.951 408.525 220.951C406.167 220.951 403.677 220.739 401.042 220.249C389.149 218.078 379.137 210.145 373.284 201.06C372.216 199.388 371.273 197.639 370.463 195.828C369.403 193.551 368.648 191.22 368.211 188.968C374.171 188.24 379.866 186.743 380.793 185.684C381.799 192.624 390.368 205.152 403.346 207.509C404.975 207.814 406.512 207.946 407.982 207.973H408.008C414.1 208.079 418.775 206.132 421.967 204.172C421.993 204.172 428.178 199.298 428.204 199.272L440.892 207.059Z" fill="#2E2445"/>
<path d="M450.217 358.35C450.18 357.702 450.264 357.061 450.241 356.412C450.214 355.711 450.136 355.025 450.083 354.325L449.698 350.314C449.452 347.583 449.205 344.851 448.998 342.117C448.588 336.701 448.308 331.265 448.162 325.835C447.882 314.974 448.039 304.088 448.769 293.25C448.97 290.214 449.224 287.189 449.504 284.162C449.656 282.615 449.82 281.054 449.985 279.506C450.152 277.984 450.398 276.472 450.418 274.932C450.43 273.976 448.994 273.911 448.779 274.799C448.144 277.434 448.052 280.265 447.779 282.96C447.519 285.667 447.287 288.378 447.082 291.09C446.687 296.562 446.425 302.044 446.296 307.529C446.061 318.446 446.451 329.367 447.382 340.258C447.647 343.32 447.951 346.367 448.321 349.41C448.515 350.965 448.708 352.506 448.941 354.058C449.046 354.742 449.137 355.426 449.268 356.095C449.431 356.882 449.724 357.608 449.888 358.395C449.978 358.576 450.239 358.508 450.217 358.35Z" fill="white"/>
<path d="M447.169 146.985C447.261 146.985 447.512 146.84 447.301 146.84C447.195 146.84 446.957 146.985 447.169 146.985Z" fill="#CC6144"/>
<path d="M687.042 527H218.958C204.938 527 194 516.997 194 505.163V245.837C194 234.003 204.938 224 218.958 224H687.042C701.062 224 712 234.003 712 245.837V505.163C712 516.997 701.062 527 687.042 527Z" fill="white" stroke="#E1E4E5" stroke-width="4"/>
<path d="M712.479 256.794H194V248.983C194 235.188 205.188 224 218.983 224H687.496C701.291 224 712.479 235.188 712.479 248.983V256.794Z" fill="white" stroke="#E1E4E5" stroke-width="4"/>
<path d="M219.033 247.375C220.57 247.375 222.044 246.764 223.131 245.677C224.217 244.591 224.828 243.117 224.828 241.58C224.828 240.043 224.217 238.569 223.131 237.482C222.044 236.395 220.57 235.785 219.033 235.785C217.496 235.785 216.022 236.395 214.935 237.482C213.849 238.569 213.238 240.043 213.238 241.58C213.238 243.117 213.849 244.591 214.935 245.677C216.022 246.764 217.496 247.375 219.033 247.375ZM243.178 247.375C243.945 247.385 244.707 247.242 245.419 246.955C246.131 246.669 246.779 246.243 247.325 245.704C247.872 245.165 248.305 244.523 248.601 243.814C248.897 243.106 249.05 242.346 249.05 241.579C249.05 240.811 248.897 240.051 248.601 239.343C248.305 238.635 247.871 237.993 247.325 237.454C246.778 236.915 246.13 236.489 245.418 236.203C244.706 235.916 243.944 235.774 243.177 235.784C241.653 235.804 240.198 236.423 239.128 237.508C238.058 238.593 237.457 240.056 237.458 241.58C237.458 243.104 238.058 244.566 239.129 245.651C240.199 246.736 241.654 247.355 243.178 247.375ZM266.357 247.375C267.118 247.375 267.872 247.225 268.575 246.933C269.278 246.642 269.916 246.215 270.454 245.677C270.992 245.138 271.419 244.5 271.71 243.796C272.001 243.093 272.151 242.34 272.151 241.579C272.151 240.818 272.001 240.064 271.71 239.361C271.418 238.658 270.991 238.019 270.453 237.481C269.915 236.943 269.276 236.517 268.573 236.225C267.87 235.934 267.116 235.785 266.355 235.785C264.818 235.785 263.344 236.396 262.258 237.483C261.171 238.57 260.561 240.044 260.561 241.581C260.561 243.118 261.172 244.592 262.259 245.678C263.346 246.765 264.82 247.375 266.357 247.375Z" fill="#E1E4E5"/>
<path d="M312 290H257C247.059 290 239 298.059 239 308V362C239 371.941 247.059 380 257 380H312C321.941 380 330 371.941 330 362V308C330 298.059 321.941 290 312 290Z" fill="white" stroke="#E1E4E5" stroke-width="4"/>
<path d="M312 398H257C247.059 398 239 406.059 239 416V470C239 479.941 247.059 488 257 488H312C321.941 488 330 479.941 330 470V416C330 406.059 321.941 398 312 398Z" fill="white" stroke="#E1E4E5" stroke-width="4"/>
<path d="M421 290H366C356.059 290 348 298.059 348 308V362C348 371.941 356.059 380 366 380H421C430.941 380 439 371.941 439 362V308C439 298.059 430.941 290 421 290Z" fill="white" stroke="#E1E4E5" stroke-width="4"/>
<path d="M421 398H366C356.059 398 348 406.059 348 416V470C348 479.941 356.059 488 366 488H421C430.941 488 439 479.941 439 470V416C439 406.059 430.941 398 421 398Z" fill="white" stroke="#E1E4E5" stroke-width="4"/>
<path d="M529 290H474C464.059 290 456 298.059 456 308V362C456 371.941 464.059 380 474 380H529C538.941 380 547 371.941 547 362V308C547 298.059 538.941 290 529 290Z" fill="white" stroke="#E1E4E5" stroke-width="4"/>
<path d="M637 290H582C572.059 290 564 298.059 564 308V362C564 371.941 572.059 380 582 380H637C646.941 380 655 371.941 655 362V308C655 298.059 646.941 290 637 290Z" fill="white" stroke="#E1E4E5" stroke-width="4"/>
<path d="M529 396H474C462.954 396 454 404.954 454 416V470C454 481.046 462.954 490 474 490H529C540.046 490 549 481.046 549 470V416C549 404.954 540.046 396 529 396Z" fill="#4F27AA"/>
<path fill-rule="evenodd" clip-rule="evenodd" d="M502 456.696L511.598 461.698C513.468 462.673 515.65 461.096 515.293 459.032L513.461 448.426L521.228 440.923C522.74 439.461 521.904 436.915 519.818 436.611L509.084 435.066L504.285 425.41C503.353 423.53 500.647 423.53 499.715 425.41L494.916 435.066L484.182 436.618C482.096 436.915 481.26 439.467 482.772 440.93L490.539 448.433L488.707 459.038C488.35 461.103 490.532 462.679 492.402 461.704L502 456.696Z" fill="white"/>
<path d="M637 398H582C572.059 398 564 406.059 564 416V470C564 479.941 572.059 488 582 488H637C646.941 488 655 479.941 655 470V416C655 406.059 646.941 398 637 398Z" fill="white" stroke="#E1E4E5" stroke-width="4"/>
<path d="M369.866 380.25C369.866 380.25 388.653 383.017 397.824 379.283C406.898 375.588 428.271 361.438 448.736 358.915C448.927 358.89 449.121 358.933 449.284 359.036C449.448 359.138 449.57 359.295 449.63 359.478C450.056 360.819 450.285 364.066 444.216 367.242C436.308 371.363 430.335 374.675 430.335 374.675C430.335 374.675 467.564 384.419 477.455 387.81C479.408 388.478 480.904 389.234 482.06 390.04C485.663 392.553 483.022 398.204 478.756 397.15L453.791 390.988C453.791 390.988 455.947 392.968 455.118 395.448C454.327 397.791 449.805 399.362 445.948 398.171C445.948 398.171 448.181 400.598 446.214 403.381C444.247 406.163 439.493 406.062 437.2 405.54C437.2 405.54 439.832 407.393 438.993 409.805C438.154 412.217 432.904 413.37 431.222 413.207C429.541 413.044 415.357 414.14 394.71 406.184L366.902 412.497C366.902 412.497 358.56 405.673 369.866 380.25Z" fill="#F8AE9D"/>
<path d="M389.163 414.807C354.174 426.952 307.358 415.35 277.679 395.181C259.085 382.573 247.219 366.561 249.219 350.921C254.397 310.29 286.327 217.162 313.953 203.574C332.732 194.33 355.511 190.503 368.212 188.966C374.171 188.238 377.893 188.066 377.893 188.066L373.284 201.071L350.214 266.123C349.353 304.728 321.727 327.652 327.223 336.644C332.719 345.61 376.118 355.291 398.91 370.64C405.214 374.905 413.213 405.749 389.163 414.807Z" fill="#2E2445"/>
<path d="M715.541 247.349C701.659 250.638 686.977 238.865 686.977 238.865C686.977 238.865 694.812 221.767 708.698 218.488C722.58 215.2 737.257 226.962 737.257 226.962C737.257 226.962 729.422 244.061 715.541 247.349Z" fill="url(#paint0_linear_1235_20637)"/>
<path d="M309.936 150.722C324.55 160.788 346.878 153.751 346.878 153.751C346.878 153.751 345.495 130.396 330.871 120.34C316.256 110.273 293.939 117.3 293.939 117.3C293.939 117.3 295.321 140.655 309.936 150.722Z" fill="url(#paint1_linear_1235_20637)"/>
<path d="M588.554 182.066C604.398 198.191 634.025 194.791 634.025 194.791C634.025 194.791 637.946 165.246 622.087 149.13C606.244 133.005 576.631 136.395 576.631 136.395C576.631 136.395 572.71 165.94 588.554 182.066Z" fill="url(#paint2_linear_1235_20637)"/>
<path d="M679.775 375.999C673.272 375.999 668.001 381.042 668.001 387.262C668.001 393.483 673.272 398.525 679.775 398.525C686.278 398.525 691.549 393.483 691.549 387.262C691.549 381.042 686.278 375.999 679.775 375.999Z" fill="#4F27AA"/>
<path d="M240.87 431.001C232.105 431.001 225 437.877 225 446.359C225 454.841 232.105 461.717 240.87 461.717C249.635 461.717 256.74 454.841 256.74 446.359C256.74 437.877 249.635 431.001 240.87 431.001Z" fill="#4F27AA"/>
<path d="M150.631 314.262C147.521 314.262 145 311.741 145 308.631C145 305.521 147.521 303 150.631 303C153.741 303 156.262 305.521 156.262 308.631C156.262 311.741 153.741 314.262 150.631 314.262Z" fill="#4F27AA"/>
<path d="M678.751 180.502C672.813 180.502 668 175.689 668 169.751C668 163.813 672.813 159 678.751 159C684.689 159 689.502 163.813 689.502 169.751C689.502 175.689 684.689 180.502 678.751 180.502Z" fill="#4F27AA"/>
<path d="M678.751 508.478C672.813 508.478 668 503.894 668 498.239C668 492.584 672.813 488 678.751 488C684.689 488 689.502 492.584 689.502 498.239C689.502 503.894 684.689 508.478 678.751 508.478Z" fill="#E1E4E5"/>
<path d="M219 388C215.686 388 213 385.314 213 382C213 378.686 215.686 376 219 376C222.314 376 225 378.686 225 382C225 385.314 222.314 388 219 388Z" fill="#E1E4E5"/>
<path d="M342.583 511.168C340.604 511.168 338.999 509.563 338.999 507.584C338.999 505.605 340.604 504 342.583 504C344.562 504 346.167 505.605 346.167 507.584C346.167 509.563 344.562 511.168 342.583 511.168Z" fill="#E1E4E5"/>
<path d="M565.119 131.238C562.292 131.238 560 128.946 560 126.119C560 123.292 562.292 121 565.119 121C567.946 121 570.238 123.292 570.238 126.119C570.238 128.946 567.946 131.238 565.119 131.238Z" fill="#E1E4E5"/>
<path d="M152.959 426.833C153.674 429.502 152.09 432.245 149.422 432.96C146.753 433.675 144.009 432.091 143.294 429.422C142.579 426.753 144.163 424.01 146.832 423.295C149.501 422.58 152.244 424.164 152.959 426.833Z" fill="#E1E4E5"/>
<path d="M236.655 194.31C232.98 194.31 230 191.33 230 187.655C230 183.98 232.98 181 236.655 181C240.33 181 243.31 183.98 243.31 187.655C243.31 191.33 240.33 194.31 236.655 194.31Z" fill="#E1E4E5"/>
<path d="M683.119 296.19C680.292 296.19 678 294.357 678 292.095C678 289.833 680.292 288 683.119 288C685.946 288 688.238 289.833 688.238 292.095C688.238 294.357 685.946 296.19 683.119 296.19Z" fill="#E1E4E5"/>
<path d="M535.807 185.056C537.295 190.61 533.999 196.318 528.445 197.807C522.891 199.295 517.183 195.999 515.695 190.445C514.206 184.891 517.502 179.182 523.056 177.694C528.61 176.206 534.319 179.502 535.807 185.056Z" fill="#E1E4E5"/>
<path d="M738.052 309.208H738.186C738.979 320.444 747.336 320.617 747.336 320.617C747.336 320.617 738.121 320.797 738.121 333.781C738.121 320.797 728.906 320.617 728.906 320.617C728.906 320.617 737.259 320.444 738.052 309.208ZM169.752 194H169.982C171.348 213.664 185.74 213.967 185.74 213.967C185.74 213.967 169.87 214.281 169.87 237.003C169.87 214.281 154 213.967 154 213.967C154 213.967 168.386 213.664 169.752 194Z" fill="#E1E4E5"/>
</g>
<defs>
<linearGradient id="paint0_linear_1235_20637" x1="663.265" y1="255.526" x2="784.787" y2="198.115" gradientUnits="userSpaceOnUse">
<stop stop-color="white"/>
<stop offset="1" stop-color="#EEEEEE"/>
</linearGradient>
<linearGradient id="paint1_linear_1235_20637" x1="366.866" y1="183.751" x2="251.823" y2="62.4416" gradientUnits="userSpaceOnUse">
<stop stop-color="white"/>
<stop offset="1" stop-color="#EEEEEE"/>
</linearGradient>
<linearGradient id="paint2_linear_1235_20637" x1="651.768" y1="237.148" x2="537.227" y2="57.5936" gradientUnits="userSpaceOnUse">
<stop stop-color="white"/>
<stop offset="1" stop-color="#EEEEEE"/>
</linearGradient>
<clipPath id="clip0_1235_20637">
<rect width="900" height="600" fill="white"/>
</clipPath>
</defs>
</svg>
