<svg width="900" height="600" viewBox="0 0 900 600" fill="none" xmlns="http://www.w3.org/2000/svg">
<g clip-path="url(#clip0_1235_20714)">
<path d="M739.268 138.912H207.031C191.567 138.912 179.031 151.448 179.031 166.912V480.599C179.031 496.063 191.567 508.599 207.031 508.599H739.268C754.732 508.599 767.268 496.063 767.268 480.599V166.912C767.268 151.448 754.732 138.912 739.268 138.912Z" fill="white" stroke="#E1E4E5" stroke-width="4"/>
<path d="M683.205 166.092H642.44C636.04 166.092 630.851 171.28 630.851 177.68C630.851 184.08 636.04 189.269 642.44 189.269H683.205C689.606 189.269 694.794 184.08 694.794 177.68C694.794 171.28 689.606 166.092 683.205 166.092Z" fill="white" stroke="#E1E4E5" stroke-width="4"/>
<path d="M597.144 166.092H556.379C549.979 166.092 544.79 171.28 544.79 177.68C544.79 184.08 549.979 189.269 556.379 189.269H597.144C603.544 189.269 608.733 184.08 608.733 177.68C608.733 171.28 603.544 166.092 597.144 166.092Z" fill="white" stroke="#E1E4E5" stroke-width="4"/>
<path d="M522.672 177.68C522.672 171.28 517.484 166.092 511.084 166.092C504.683 166.092 499.495 171.28 499.495 177.68C499.495 184.08 504.683 189.269 511.084 189.269C517.484 189.269 522.672 184.08 522.672 177.68Z" fill="white" stroke="#E1E4E5" stroke-width="4"/>
<path d="M252.553 381.315H331.611V410.268H364.907V381.315H385.335V353.407H364.907V245.557H321.316L252.553 353.89V381.315ZM332.254 353.407H287.618V352.12L330.967 283.518H332.254V353.407ZM473.118 413.887C514.537 413.887 539.549 382.36 539.63 328.073C539.71 274.189 514.376 243.305 473.118 243.305C431.78 243.305 406.687 274.108 406.607 328.073C406.446 382.199 431.619 413.806 473.118 413.887ZM473.118 385.014C454.219 385.014 441.994 366.034 442.074 328.073C442.155 290.676 454.299 271.856 473.118 271.856C491.857 271.856 504.082 290.676 504.082 328.073C504.162 366.034 491.938 385.014 473.118 385.014ZM561.968 381.315H641.026V410.268H674.322V381.315H694.75V353.407H674.322V245.557H630.731L561.968 353.89V381.315ZM641.669 353.407H597.033V352.12L640.382 283.518H641.669V353.407Z" fill="#E1E4E5"/>
<path d="M235.047 175.416C235.047 170.266 230.872 166.092 225.723 166.092C220.573 166.092 216.399 170.266 216.399 175.416C216.399 180.565 220.573 184.74 225.723 184.74C230.872 184.74 235.047 180.565 235.047 175.416Z" fill="white" stroke="#E1E4E5" stroke-width="4"/>
<path d="M186.698 387.713C193.233 387.713 198.531 393.011 198.531 399.546C198.531 406.081 193.233 411.379 186.698 411.379C180.163 411.379 174.865 406.081 174.865 399.546C174.865 393.011 180.163 387.713 186.698 387.713Z" fill="#4F27AA"/>
<path d="M776.404 259.957C768.479 264.533 758.346 261.818 753.77 253.893C749.195 245.968 751.91 235.835 759.835 231.259C767.76 226.684 777.893 229.399 782.469 237.324C787.044 245.249 784.329 255.382 776.404 259.957Z" fill="#4F27AA"/>
<path d="M466.813 189.921C459.993 189.921 454.464 184.392 454.464 177.572C454.464 170.751 459.993 165.223 466.813 165.223C473.633 165.223 479.162 170.751 479.162 177.572C479.162 184.392 473.633 189.921 466.813 189.921Z" fill="#E1E4E5"/>
<path d="M319.16 148.268C328.237 148.268 335.595 140.91 335.595 131.833C335.595 122.757 328.237 115.398 319.16 115.398C310.083 115.398 302.725 122.757 302.725 131.833C302.725 140.91 310.083 148.268 319.16 148.268Z" fill="#4F27AA"/>
<path d="M554.114 430.201C546.609 430.201 540.525 436.285 540.525 443.79C540.525 451.295 546.609 457.379 554.114 457.379C561.619 457.379 567.703 451.295 567.703 443.79C567.703 436.285 561.619 430.201 554.114 430.201Z" fill="#4F27AA"/>
<path d="M302.76 482.359C295.862 482.359 290.27 476.767 290.27 469.869C290.27 462.971 295.862 457.379 302.76 457.379C309.658 457.379 315.25 462.971 315.25 469.869C315.25 476.767 309.658 482.359 302.76 482.359Z" fill="#E1E4E5"/>
<path d="M427.767 423.556C432.244 426.141 433.778 431.865 431.193 436.342C428.609 440.819 422.884 442.353 418.407 439.768C413.93 437.183 412.397 431.459 414.981 426.982C417.566 422.505 423.29 420.971 427.767 423.556Z" fill="#E1E4E5"/>
<path d="M736.457 163.478L719.433 180.502C718.813 181.122 718.813 182.128 719.433 182.748C720.053 183.367 721.058 183.367 721.678 182.747L738.702 165.723C739.322 165.103 739.323 164.097 738.703 163.477C738.083 162.857 737.077 162.858 736.457 163.478Z" fill="#E1E4E5"/>
<path d="M734.791 175.667L729.882 180.576C729.262 181.196 729.262 182.202 729.882 182.822C730.502 183.442 731.507 183.442 732.127 182.821L737.036 177.912C737.657 177.292 737.657 176.286 737.037 175.667C736.417 175.047 735.412 175.047 734.791 175.667Z" fill="#E1E4E5"/>
<path d="M211.386 464.043L196.152 479.277C195.597 479.832 195.597 480.731 196.152 481.285L196.153 481.286C196.707 481.841 197.606 481.841 198.161 481.286L213.395 466.052C213.949 465.498 213.949 464.598 213.395 464.044L213.394 464.043C212.84 463.489 211.94 463.489 211.386 464.043Z" fill="#E1E4E5"/>
<path d="M209.895 474.95L205.501 479.344C204.947 479.898 204.947 480.797 205.501 481.352L205.502 481.352C206.056 481.907 206.955 481.907 207.51 481.352L211.904 476.958C212.458 476.404 212.458 475.505 211.904 474.95L211.903 474.95C211.349 474.395 210.45 474.395 209.895 474.95Z" fill="#E1E4E5"/>
<path d="M137.559 167.787L167.008 138.338C168.081 137.266 168.081 135.527 167.008 134.455C165.936 133.382 164.197 133.382 163.125 134.455L133.676 163.904C132.604 164.976 132.604 166.715 133.676 167.787C134.748 168.859 136.487 168.859 137.559 167.787Z" fill="#E1E4E5"/>
<path d="M140.443 146.702L148.936 138.209C150.009 137.137 150.009 135.398 148.936 134.326C147.864 133.253 146.125 133.253 145.053 134.326L136.56 142.819C135.487 143.891 135.487 145.63 136.56 146.702C137.632 147.775 139.371 147.775 140.443 146.702Z" fill="#E1E4E5"/>
<path d="M722.411 484.565L743.142 463.834C743.897 463.079 743.897 461.855 743.142 461.1C742.387 460.345 741.163 460.345 740.408 461.1L719.677 481.832C718.922 482.587 718.922 483.81 719.677 484.565C720.432 485.32 721.656 485.32 722.411 484.565Z" fill="#E1E4E5"/>
<path d="M724.44 469.723L730.419 463.744C731.174 462.989 731.174 461.765 730.419 461.01C729.664 460.255 728.441 460.255 727.686 461.01L721.706 466.989C720.951 467.744 720.951 468.968 721.706 469.723C722.461 470.478 723.685 470.478 724.44 469.723Z" fill="#E1E4E5"/>
<path fill-rule="evenodd" clip-rule="evenodd" d="M708.429 102.774H711.733C712.532 102.774 713.175 103.424 713.175 104.216V107.52C713.175 108.319 712.525 108.962 711.733 108.962H708.429C707.637 108.962 706.987 108.312 706.987 107.52V104.216C706.987 104.026 707.024 103.838 707.096 103.663C707.168 103.488 707.274 103.329 707.408 103.195C707.542 103.061 707.702 102.955 707.877 102.882C708.052 102.81 708.24 102.773 708.429 102.774ZM719.884 102.774H723.188C723.98 102.774 724.63 103.424 724.63 104.216V107.52C724.63 108.319 723.98 108.962 723.188 108.962H719.884C719.092 108.962 718.442 108.312 718.442 107.52V104.216C718.442 103.424 719.092 102.774 719.884 102.774ZM731.347 102.774H734.651C735.444 102.774 736.094 103.424 736.094 104.216V107.52C736.094 108.319 735.444 108.962 734.651 108.962H731.347C730.555 108.962 729.905 108.312 729.905 107.52V104.216C729.905 104.026 729.942 103.838 730.014 103.663C730.086 103.488 730.192 103.329 730.326 103.195C730.46 103.061 730.62 102.955 730.795 102.882C730.97 102.81 731.157 102.773 731.347 102.774ZM742.803 102.774H746.107C746.899 102.774 747.549 103.424 747.549 104.216V107.52C747.549 108.319 746.899 108.962 746.107 108.962H742.803C742.42 108.961 742.053 108.809 741.781 108.539C741.51 108.269 741.356 107.903 741.354 107.52V104.216C741.358 103.833 741.512 103.468 741.783 103.198C742.054 102.928 742.421 102.776 742.803 102.774ZM754.259 102.774H757.563C758.362 102.774 759.012 103.424 759.012 104.216V107.52C759.012 108.319 758.362 108.962 757.563 108.962H754.259C753.467 108.962 752.817 108.312 752.817 107.52V104.216C752.817 103.424 753.467 102.774 754.259 102.774ZM720.304 115.266H723.608C724.401 115.266 725.051 115.916 725.051 116.708V120.019C725.051 120.811 724.401 121.461 723.608 121.461H720.304C719.505 121.461 718.862 120.811 718.862 120.019V116.715C718.861 116.524 718.897 116.336 718.969 116.16C719.041 115.984 719.147 115.824 719.281 115.69C719.415 115.555 719.575 115.448 719.75 115.375C719.926 115.303 720.114 115.265 720.304 115.266ZM731.76 115.266H735.064C735.856 115.266 736.506 115.916 736.506 116.708V120.019C736.506 120.811 735.856 121.461 735.064 121.461H731.76C730.968 121.461 730.318 120.811 730.318 120.019V116.715C730.317 116.524 730.353 116.336 730.425 116.16C730.497 115.984 730.603 115.824 730.737 115.69C730.871 115.555 731.031 115.448 731.206 115.375C731.382 115.303 731.57 115.265 731.76 115.266ZM743.216 115.266H746.52C747.319 115.266 747.969 115.916 747.969 116.708V120.019C747.967 120.402 747.813 120.768 747.542 121.038C747.27 121.308 746.903 121.46 746.52 121.461H743.216C742.424 121.461 741.774 120.811 741.774 120.019V116.715C741.774 115.916 742.424 115.266 743.216 115.266ZM731.347 89.3535H734.651C735.444 89.3535 736.094 90.0035 736.094 90.7955V94.1005C736.094 94.8985 735.444 95.5425 734.651 95.5425H731.347C730.555 95.5425 729.905 94.8925 729.905 94.1005V90.7955C729.905 90.606 729.942 90.4184 730.014 90.2432C730.086 90.0681 730.192 89.909 730.326 89.775C730.46 89.641 730.62 89.5348 730.795 89.4625C730.97 89.3902 731.157 89.3531 731.347 89.3535ZM742.803 89.3535H746.107C746.899 89.3535 747.549 90.0035 747.549 90.7955V94.1005C747.549 94.8985 746.899 95.5425 746.107 95.5425H742.803C742.42 95.5423 742.053 95.3905 741.781 95.1203C741.51 94.8501 741.356 94.4835 741.354 94.1005V90.7955C741.358 90.4132 741.512 90.0478 741.783 89.778C742.054 89.5083 742.421 89.3559 742.803 89.3535ZM111.663 492.314H114.967C115.766 492.314 116.409 492.964 116.409 493.756V497.06C116.409 497.859 115.759 498.502 114.967 498.502H111.663C110.871 498.502 110.221 497.852 110.221 497.06V493.756C110.221 493.566 110.258 493.378 110.33 493.203C110.402 493.028 110.508 492.869 110.642 492.735C110.776 492.601 110.936 492.495 111.111 492.422C111.286 492.35 111.473 492.313 111.663 492.314ZM123.118 492.314H126.422C127.215 492.314 127.865 492.964 127.865 493.756V497.06C127.865 497.859 127.215 498.502 126.422 498.502H123.118C122.326 498.502 121.676 497.852 121.676 497.06V493.756C121.676 492.964 122.326 492.314 123.118 492.314ZM134.581 492.314H137.886C138.678 492.314 139.328 492.964 139.328 493.756V497.06C139.328 497.859 138.678 498.502 137.886 498.502H134.581C133.789 498.502 133.139 497.852 133.139 497.06V493.756C133.139 493.566 133.176 493.378 133.248 493.203C133.321 493.028 133.427 492.869 133.561 492.735C133.695 492.601 133.854 492.495 134.029 492.423C134.204 492.35 134.392 492.313 134.581 492.314ZM146.037 492.314H149.341C150.133 492.314 150.783 492.964 150.783 493.756V497.06C150.783 497.859 150.133 498.502 149.341 498.502H146.037C145.654 498.501 145.287 498.349 145.015 498.079C144.744 497.809 144.59 497.443 144.588 497.06V493.756C144.592 493.373 144.746 493.008 145.017 492.738C145.288 492.468 145.655 492.316 146.037 492.314ZM157.493 492.314H160.797C161.596 492.314 162.246 492.964 162.246 493.756V497.06C162.246 497.859 161.596 498.502 160.797 498.502H157.493C156.701 498.502 156.051 497.852 156.051 497.06V493.756C156.051 492.964 156.701 492.314 157.493 492.314ZM123.539 504.806H126.843C127.635 504.806 128.285 505.456 128.285 506.248V509.559C128.285 510.351 127.635 511.001 126.843 511.001H123.539C122.74 511.001 122.096 510.351 122.096 509.559V506.255C122.095 506.064 122.132 505.876 122.204 505.7C122.276 505.525 122.382 505.365 122.516 505.23C122.65 505.095 122.81 504.988 122.985 504.916C123.161 504.843 123.349 504.805 123.539 504.806ZM134.994 504.806H138.298C139.09 504.806 139.74 505.456 139.74 506.248V509.559C139.74 510.351 139.09 511.001 138.298 511.001H134.994C134.202 511.001 133.552 510.351 133.552 509.559V506.255C133.551 506.064 133.587 505.876 133.659 505.7C133.731 505.524 133.837 505.364 133.971 505.23C134.105 505.095 134.265 504.988 134.44 504.915C134.616 504.843 134.804 504.805 134.994 504.806ZM146.45 504.806H149.754C150.553 504.806 151.203 505.456 151.203 506.248V509.559C151.201 509.942 151.047 510.308 150.776 510.578C150.504 510.848 150.137 511 149.754 511.001H146.45C145.658 511.001 145.008 510.351 145.008 509.559V506.255C145.008 505.456 145.658 504.806 146.45 504.806ZM134.582 478.894H137.886C138.678 478.894 139.328 479.544 139.328 480.337V483.641C139.328 484.44 138.678 485.083 137.886 485.083H134.582C133.789 485.083 133.139 484.433 133.139 483.641V480.337C133.139 480.147 133.176 479.959 133.248 479.784C133.32 479.609 133.427 479.449 133.561 479.315C133.695 479.181 133.854 479.075 134.029 479.003C134.205 478.93 134.392 478.893 134.582 478.894ZM146.037 478.894H149.341C150.133 478.894 150.783 479.544 150.783 480.337V483.641C150.783 484.44 150.133 485.083 149.341 485.083H146.037C145.654 485.082 145.287 484.93 145.015 484.66C144.744 484.39 144.59 484.024 144.588 483.641V480.337C144.592 479.954 144.746 479.588 145.017 479.318C145.288 479.048 145.654 478.896 146.037 478.894Z" fill="#E1E4E5"/>
<path fill-rule="evenodd" clip-rule="evenodd" d="M180.882 325.923C156.242 325.923 136.265 305.664 136.265 280.677C136.265 255.69 156.242 235.432 180.882 235.432C205.522 235.432 225.499 255.69 225.499 280.677C225.499 305.664 205.522 325.923 180.882 325.923Z" fill="#4F27AA"/>
<path d="M198.857 261.477L180.009 281.586L168.693 269.522" stroke="white" stroke-width="7.405" stroke-linecap="round" stroke-linejoin="round"/>
<path d="M161.178 300.836L180.026 280.727L191.342 292.791" stroke="white" stroke-width="7.405" stroke-linecap="round" stroke-linejoin="round"/>
</g>
<defs>
<clipPath id="clip0_1235_20714">
<rect width="900" height="600" fill="white"/>
</clipPath>
</defs>
</svg>
