<svg width="900" height="600" viewBox="0 0 900 600" fill="none" xmlns="http://www.w3.org/2000/svg">
<g clip-path="url(#clip0_1235_20741)">
<path d="M628.854 220.056C611.506 224.166 593.158 209.454 593.158 209.454C593.158 209.454 602.949 188.086 620.303 183.989C637.651 179.879 655.993 194.579 655.993 194.579C655.993 194.579 646.202 215.946 628.854 220.056Z" fill="url(#paint0_linear_1235_20741)"/>
<path d="M291.922 416.891C307.65 406.057 331.679 413.631 331.679 413.631C331.679 413.631 330.191 438.765 314.452 449.588C298.724 460.422 274.707 452.859 274.707 452.859C274.707 452.859 276.194 427.724 291.922 416.891Z" fill="url(#paint1_linear_1235_20741)"/>
<path d="M693.309 298.879C686.31 298.879 680.637 304.306 680.637 311C680.637 317.694 686.31 323.121 693.309 323.121C700.308 323.121 705.981 317.694 705.981 311C705.981 304.306 700.308 298.879 693.309 298.879Z" fill="#4F27AA"/>
<path d="M266.775 221.876C259.906 221.876 254.337 216.307 254.337 209.438C254.337 202.569 259.906 197 266.775 197C273.644 197 279.213 202.569 279.213 209.438C279.213 216.307 273.644 221.876 266.775 221.876Z" fill="#4F27AA"/>
<path d="M549.173 178.331C542.783 178.331 537.603 173.151 537.603 166.761C537.603 160.371 542.783 155.191 549.173 155.191C555.563 155.191 560.743 160.371 560.743 166.761C560.743 173.151 555.563 178.331 549.173 178.331Z" fill="#4F27AA"/>
<path d="M575 427C572.239 427 570 424.761 570 422C570 419.239 572.239 417 575 417C577.761 417 580 419.239 580 422C580 424.761 577.761 427 575 427Z" fill="#4F27AA"/>
<path d="M232.592 349.673C226.547 349.673 221.647 344.773 221.647 338.728C221.647 332.683 226.547 327.783 232.592 327.783C238.637 327.783 243.537 332.683 243.537 338.728C243.537 344.773 238.637 349.673 232.592 349.673Z" fill="#E1E4E5"/>
<path d="M352.679 473.458C349.701 473.458 347.286 471.043 347.286 468.065C347.286 465.086 349.701 462.672 352.679 462.672C355.657 462.672 358.072 465.086 358.072 468.065C358.072 471.043 355.657 473.458 352.679 473.458Z" fill="#E1E4E5"/>
<path d="M267.646 273.003C268.416 275.876 266.711 278.828 263.839 279.597C260.967 280.367 258.015 278.663 257.245 275.79C256.476 272.918 258.18 269.966 261.052 269.196C263.925 268.427 266.877 270.131 267.646 273.003Z" fill="#E1E4E5"/>
<path d="M359.5 197.324C355.545 197.324 352.338 194.117 352.338 190.162C352.338 186.207 355.545 183 359.5 183C363.456 183 366.662 186.207 366.662 190.162C366.662 194.117 363.456 197.324 359.5 197.324Z" fill="#E1E4E5"/>
<path d="M606.372 297.289C603.329 297.289 600.863 295.316 600.863 292.882C600.863 290.448 603.329 288.475 606.372 288.475C609.414 288.475 611.881 290.448 611.881 292.882C611.881 295.316 609.414 297.289 606.372 297.289Z" fill="#E1E4E5"/>
<path d="M708.842 210H708.987C709.84 222.093 718.833 222.279 718.833 222.279C718.833 222.279 708.916 222.472 708.916 236.445C708.916 222.472 698.999 222.279 698.999 222.279C698.999 222.279 707.989 222.093 708.842 210ZM366.286 249H366.387C366.99 257.688 373.338 257.822 373.338 257.822C373.338 257.822 366.338 257.961 366.338 268C366.338 257.961 359.338 257.822 359.338 257.822C359.338 257.822 365.683 257.688 366.286 249Z" fill="#E1E4E5"/>
<path d="M462.573 287.747C464.424 294.655 460.324 301.756 453.416 303.607C446.507 305.458 439.406 301.359 437.555 294.45C435.704 287.542 439.804 280.441 446.712 278.59C453.62 276.739 460.721 280.838 462.573 287.747Z" fill="#E1E4E5"/>
<path d="M493.969 289.068C495.09 293.254 492.606 297.556 488.421 298.677C484.235 299.799 479.933 297.315 478.811 293.129C477.69 288.944 480.174 284.642 484.359 283.52C488.545 282.399 492.847 284.882 493.969 289.068Z" fill="#E1E4E5"/>
<path d="M421.317 289.068C422.438 293.254 419.955 297.556 415.769 298.677C411.583 299.799 407.281 297.315 406.16 293.129C405.038 288.944 407.522 284.642 411.708 283.52C415.893 282.399 420.195 284.882 421.317 289.068Z" fill="#E1E4E5"/>
<path d="M230.936 422.919C278.397 422.919 316.872 384.444 316.872 336.983C316.872 289.522 278.397 251.047 230.936 251.047C183.475 251.047 145 289.522 145 336.983C145 384.444 183.475 422.919 230.936 422.919Z" fill="white" stroke="#E1E4E5" stroke-width="4"/>
<path fill-rule="evenodd" clip-rule="evenodd" d="M201.932 363.872V368.203C201.932 370.594 203.846 372.534 206.205 372.534H257.493C259.852 372.534 261.767 370.594 261.767 368.203V363.803C261.767 350.698 246.987 342.183 231.849 342.183C216.711 342.183 201.932 350.702 201.932 363.803M221.119 304.137C215.192 310.063 215.192 319.672 221.119 325.598C227.045 331.525 236.654 331.525 242.58 325.598C248.507 319.672 248.507 310.063 242.58 304.137C236.654 298.21 227.045 298.21 221.119 304.137Z" fill="#4F27AA"/>
<path d="M449.668 493.526C497.129 493.526 535.604 455.051 535.604 407.59C535.604 360.129 497.129 321.654 449.668 321.654C402.207 321.654 363.732 360.129 363.732 407.59C363.732 455.051 402.207 493.526 449.668 493.526Z" fill="white" stroke="#E1E4E5" stroke-width="4"/>
<path fill-rule="evenodd" clip-rule="evenodd" d="M420.663 434.477V438.808C420.663 441.199 422.578 443.139 424.937 443.139H476.224C478.583 443.139 480.498 441.199 480.498 438.808V434.408C480.498 421.303 465.719 412.788 450.58 412.788C435.442 412.788 420.663 421.307 420.663 434.408M439.85 374.742C433.924 380.668 433.924 390.277 439.85 396.203C445.777 402.13 455.385 402.13 461.312 396.203C467.238 390.277 467.238 380.668 461.312 374.742C455.385 368.815 445.777 368.815 439.85 374.742Z" fill="#4F27AA"/>
<path d="M668.402 422.919C715.863 422.919 754.338 384.444 754.338 336.983C754.338 289.522 715.863 251.047 668.402 251.047C620.941 251.047 582.466 289.522 582.466 336.983C582.466 384.444 620.941 422.919 668.402 422.919Z" fill="white" stroke="#E1E4E5" stroke-width="4"/>
<path fill-rule="evenodd" clip-rule="evenodd" d="M639.398 363.872V368.203C639.398 370.594 641.313 372.534 643.672 372.534H694.96C697.319 372.534 699.233 370.594 699.233 368.203V363.803C699.233 350.698 684.454 342.183 669.316 342.183C654.178 342.183 639.398 350.702 639.398 363.803M658.585 304.137C652.658 310.063 652.658 319.672 658.585 325.598C664.511 331.525 674.12 331.525 680.046 325.598C685.973 319.672 685.973 310.063 680.046 304.137C674.12 298.21 664.511 298.21 658.585 304.137Z" fill="#4F27AA"/>
<path d="M293.678 252.861L387.923 209.905" stroke="#E1E4E5" stroke-width="2" stroke-linecap="round" stroke-dasharray="4 12"/>
<path d="M602.703 252.861L508.458 209.905" stroke="#E1E4E5" stroke-width="2" stroke-linecap="round" stroke-dasharray="4 12"/>
<path fill-rule="evenodd" clip-rule="evenodd" d="M449.522 261.043C420.517 261.043 397 237.526 397 208.521C397 179.516 420.517 156 449.522 156C478.527 156 502.043 179.516 502.043 208.521C502.043 237.526 478.527 261.043 449.522 261.043Z" fill="#4F27AA"/>
<path d="M467.029 200.564L445.15 222.845L432.015 209.478" stroke="white" stroke-width="7.091" stroke-linecap="round" stroke-linejoin="round"/>
</g>
<defs>
<linearGradient id="paint0_linear_1235_20741" x1="563.526" y1="230.274" x2="715.39" y2="158.529" gradientUnits="userSpaceOnUse">
<stop stop-color="white"/>
<stop offset="1" stop-color="#EEEEEE"/>
</linearGradient>
<linearGradient id="paint1_linear_1235_20741" x1="353.189" y1="381.345" x2="229.383" y2="511.896" gradientUnits="userSpaceOnUse">
<stop stop-color="white"/>
<stop offset="1" stop-color="#EEEEEE"/>
</linearGradient>
<clipPath id="clip0_1235_20741">
<rect width="900" height="600" fill="white"/>
</clipPath>
</defs>
</svg>
