<svg width="900" height="600" viewBox="0 0 900 600" fill="none" xmlns="http://www.w3.org/2000/svg">
<g clip-path="url(#clip0_1235_20858)">
<path d="M371.603 338.339C403.11 328.771 435.993 323.987 468.923 323.04C485.341 322.566 501.806 323.134 518.082 325.076C532.886 326.876 547.928 329.529 562.068 334.455C574.405 338.718 587.502 346.865 586.315 361.691C586.363 361.264 586.41 360.886 586.41 360.459L586.695 358.612C589.969 339.239 593.291 319.914 596.565 300.541C596.992 298.457 597.039 298.125 596.707 299.499C596.802 299.119 596.897 298.693 596.992 298.315C594.572 306.983 588.878 314.04 583.326 320.908C577.869 327.634 572.223 334.408 568.332 342.175C566.339 346.201 564.868 350.086 563.919 354.444C561.167 367.138 559.364 380.4 557.228 393.189C555.473 403.61 553.195 414.22 552.293 424.783C551.582 433.025 553.954 440.793 559.506 446.998C571.036 459.881 589.542 463.434 606.102 463.481C623.421 463.481 640.978 460.402 658.155 463.86C666.933 465.66 675.474 469.307 681.643 475.939C687.859 482.617 693.79 492.612 693.126 502.037C693.173 501.611 693.221 501.232 693.221 500.806C693.933 496.164 694.692 491.569 695.404 486.928C698.298 470.491 701.145 454.008 704.04 437.572C703.992 437.809 703.945 437.998 703.897 438.235C703.992 437.856 704.087 437.43 704.182 437.051C700.244 452.208 682.45 454.292 669.448 455.05C669.116 455.05 667.266 466.276 667.55 464.855C666.127 472.765 664.751 480.674 663.422 488.633C662.093 496.543 660.717 504.499 659.484 512.41C659.341 513.404 658.155 522.31 658.06 522.31C666.032 521.837 674.431 521.41 681.596 517.621C684.632 516.011 687.432 513.784 689.567 511.037C692.841 506.774 693.458 501.658 694.407 496.496C697.302 480.675 700.006 464.807 702.569 448.94C703.423 443.587 704.941 437.903 704.704 432.409C704.514 428.43 703.138 424.593 701.43 421.041C698.061 414.173 693.411 407.778 687.005 403.468C674.004 394.8 657.206 394.563 642.164 395.226C626.269 395.937 609.946 397.831 594.382 393.426C586.031 391.058 577.822 386.936 571.796 380.59C565.769 374.243 563.112 366.238 563.824 357.522C563.776 357.949 563.729 358.327 563.729 358.754C564.915 347.717 563.207 357.617 558.604 388.405C552.768 419.004 551.107 428.856 553.622 418.057C553.527 418.436 553.432 418.862 553.337 419.241C555.9 409.199 561.831 400.721 568.237 392.716C574.405 384.995 581.618 377.368 584.939 367.847C586.553 363.205 587.217 358.186 588.071 353.402C591.487 334.502 595.189 315.461 597.609 296.42C598.178 291.778 597.846 287.231 595.71 283.015C592.294 276.336 585.556 272.074 578.818 269.184C570.752 265.679 561.973 263.642 553.385 261.795C542.739 259.523 531.963 257.91 521.119 256.964C499.386 254.974 477.464 255.353 455.732 257.295C431.153 259.474 406.763 263.974 383.133 271.126C382.564 271.316 380.998 282.115 381.235 280.931C379.811 288.841 378.435 296.751 377.107 304.709C375.778 312.619 374.402 320.577 373.168 328.487C372.884 330.239 372.599 331.992 372.362 333.744C371.935 335.213 371.745 336.776 371.603 338.339Z" fill="#E1E4E5"/>
<path d="M596.371 300.297C593.652 307.991 588.451 314.49 583.346 320.798C578.861 326.39 574.185 331.981 570.511 338.146C570.511 338.146 570.559 338.146 570.559 338.194H570.463C569.652 339.532 568.937 340.87 568.221 342.256C566.217 346.318 564.833 350.571 563.879 354.968C563.879 355.064 563.831 355.207 563.831 355.303C563.784 355.876 563.736 356.784 563.593 358.074C562.972 366.724 565.597 374.705 571.608 381.061C572.747 382.249 573.958 383.367 575.235 384.407C579.147 379.436 582.726 374.18 584.777 368.206C586.399 363.522 587.067 358.457 587.926 353.63C591.362 334.562 595.083 315.35 597.517 296.139C597.564 295.948 597.564 295.709 597.564 295.518C597.23 297.095 596.753 298.72 596.371 300.297ZM596.801 299.245C596.896 298.815 596.944 298.576 596.992 298.481C596.896 298.719 596.849 299.006 596.801 299.245Z" fill="url(#paint0_linear_1235_20858)"/>
<path d="M704.252 438.382C704.204 438.525 704.204 438.62 704.157 438.762C704.204 438.525 704.252 438.335 704.299 438.097C704.299 438.192 704.299 438.287 704.252 438.382C704.299 438.097 704.394 437.812 704.442 437.574C700.498 452.786 682.678 454.877 669.658 455.638C669.325 455.638 667.472 466.904 667.757 465.478C667.662 466.048 667.567 466.571 667.472 467.142C667.567 467.189 667.709 467.237 667.804 467.284C667.757 467.332 667.709 467.379 667.662 467.379C667.567 467.427 667.472 467.522 667.377 467.57C666.083 474.823 664.816 482.08 663.575 489.341C662.245 497.28 660.867 505.266 659.631 513.205C659.489 514.203 658.301 523.14 658.206 523.14C666.189 522.665 674.6 522.237 681.775 518.434C684.816 516.818 687.62 514.583 689.758 511.826C693.037 507.548 693.655 502.414 694.605 497.232C697.504 481.355 700.213 465.43 702.779 449.506C703.396 445.703 704.299 441.757 704.727 437.859C704.584 438.144 704.442 438.43 704.252 438.715V438.382Z" fill="url(#paint1_linear_1235_20858)"/>
<path d="M531.924 433.623C500.417 443.191 467.534 447.975 434.603 448.922C418.185 449.396 401.72 448.827 385.445 446.885C370.64 445.085 355.598 442.433 341.458 437.507C329.121 433.244 316.025 425.097 317.211 410.271C317.164 410.697 317.116 411.076 317.116 411.503L316.831 413.35C313.557 432.723 310.236 452.048 306.962 471.421C306.535 473.505 306.487 473.837 306.819 472.463C306.725 472.842 306.63 473.268 306.535 473.647C308.955 464.979 314.649 457.922 320.2 451.054C325.657 444.328 331.304 437.554 335.195 429.786C337.188 425.76 338.659 421.876 339.608 417.518C342.36 404.824 344.163 391.561 346.298 378.773C348.054 368.352 350.331 357.742 351.233 347.179C351.945 338.937 349.572 331.169 344.02 324.964C332.49 312.081 313.984 308.528 297.424 308.481C280.105 308.481 262.548 311.56 245.371 308.102C236.593 306.302 228.052 302.655 221.883 296.023C215.667 289.345 209.736 279.35 210.4 269.925C210.353 270.351 210.305 270.73 210.305 271.156C209.594 275.798 208.835 280.392 208.123 285.034C205.228 301.471 202.381 317.954 199.487 334.39C199.534 334.153 199.582 333.964 199.629 333.727C199.534 334.106 199.439 334.532 199.344 334.911C203.283 319.754 221.077 317.67 234.078 316.912C234.41 316.912 236.261 305.686 235.976 307.107C237.4 299.197 238.776 291.287 240.104 283.329C241.433 275.419 242.809 267.461 244.043 259.551C244.185 258.557 245.371 249.652 245.466 249.652C237.495 250.125 229.096 250.552 221.931 254.341C218.894 255.951 216.094 258.178 213.959 260.925C210.685 265.188 210.068 270.303 209.119 275.466C206.234 291.29 203.513 307.142 200.958 323.022C200.104 328.375 198.585 334.059 198.822 339.553C199.012 343.532 200.388 347.369 202.097 350.921C205.466 357.789 210.116 364.184 216.521 368.494C229.523 377.162 246.32 377.399 261.362 376.736C277.258 376.025 293.581 374.131 309.144 378.536C317.496 380.904 325.705 385.025 331.731 391.372C337.757 397.719 340.414 405.724 339.703 414.439C339.75 414.013 339.797 413.634 339.797 413.208C338.611 424.244 340.319 414.345 344.922 383.557C350.758 352.958 352.419 343.106 349.904 353.905C349.999 353.526 350.094 353.1 350.189 352.721C347.627 362.763 341.695 371.241 335.29 379.246C329.121 386.967 321.909 394.593 318.587 404.114C316.974 408.755 316.309 413.776 315.455 418.56C312.039 437.46 308.338 456.501 305.918 475.542C305.348 480.184 305.681 484.731 307.816 488.947C311.232 495.625 317.97 499.888 324.708 502.778C332.775 506.283 341.553 508.32 350.142 510.167C360.788 512.439 371.564 514.052 382.408 514.998C404.14 516.988 426.062 516.609 447.794 514.667C472.374 512.488 496.763 507.988 520.393 500.836C520.963 500.646 522.529 489.847 522.291 491.031C523.715 483.121 525.091 475.211 526.42 467.253C527.748 459.343 529.124 451.385 530.358 443.475C530.643 441.723 530.927 439.97 531.165 438.217C531.592 436.749 531.781 435.186 531.924 433.623Z" fill="#E1E4E5"/>
<path d="M307.155 471.665C309.875 463.971 315.075 457.472 320.181 451.164C324.666 445.572 329.341 439.981 333.015 433.816C333.015 433.816 332.968 433.816 332.968 433.768H333.063C333.874 432.43 334.59 431.092 335.306 429.706C337.309 425.644 338.693 421.39 339.647 416.994C339.647 416.898 339.695 416.755 339.695 416.659C339.743 416.086 339.791 415.178 339.934 413.887C340.554 405.238 337.93 397.257 331.918 390.901C330.779 389.712 329.568 388.595 328.292 387.555C324.379 392.525 320.801 397.782 318.749 403.756C317.127 408.439 316.459 413.505 315.6 418.332C312.165 437.4 308.443 456.612 306.01 475.823C305.962 476.014 305.962 476.253 305.962 476.444C306.296 474.867 306.773 473.242 307.155 471.665ZM306.726 472.717C306.63 473.147 306.582 473.386 306.535 473.481C306.63 473.242 306.678 472.956 306.726 472.717Z" fill="url(#paint2_linear_1235_20858)"/>
<path d="M199.275 333.578C199.322 333.435 199.322 333.34 199.37 333.198C199.322 333.435 199.275 333.625 199.227 333.863C199.227 333.768 199.227 333.673 199.275 333.578C199.227 333.863 199.132 334.148 199.085 334.386C203.029 319.174 220.848 317.083 233.869 316.322C234.201 316.322 236.055 305.056 235.769 306.482C235.864 305.912 235.959 305.389 236.055 304.818C235.959 304.771 235.817 304.723 235.722 304.676C235.769 304.628 235.817 304.581 235.864 304.581C235.96 304.533 236.055 304.438 236.15 304.39C237.444 297.138 238.711 289.881 239.951 282.619C241.282 274.68 242.66 266.694 243.895 258.755C244.038 257.757 245.226 248.82 245.321 248.82C237.338 249.295 228.927 249.723 221.751 253.526C218.71 255.142 215.906 257.377 213.768 260.134C210.489 264.412 209.871 269.546 208.921 274.727C206.022 290.605 203.314 306.53 200.748 322.454C200.13 326.257 199.227 330.203 198.799 334.101C198.942 333.816 199.085 333.53 199.275 333.245V333.578Z" fill="url(#paint3_linear_1235_20858)"/>
<path d="M472.153 452.32C534.627 452.32 585.271 401.675 585.271 339.202C585.271 276.729 534.627 226.084 472.153 226.084C409.68 226.084 359.035 276.729 359.035 339.202C359.035 401.675 409.68 452.32 472.153 452.32Z" fill="#4F27AA"/>
<path d="M383.404 300.867C376.233 298.445 370.018 293.285 366.389 286.667C365.365 284.841 364.527 282.745 364.803 280.669C364.873 280.246 364.98 279.746 365.361 279.549C365.703 279.352 366.165 279.46 366.55 279.569C378.527 282.8 391.189 288.246 403.76 287.671C404.335 287.663 404.91 287.616 405.412 287.838C406.029 288.097 406.422 288.667 406.699 289.276C407.65 291.256 408.474 295.002 408.162 297.231C407.781 299.883 405.217 300.267 402.963 300.838C396.545 302.47 389.803 303.033 383.404 300.867Z" fill="#F8AE9D"/>
<path d="M382.297 286.003C381.332 285.596 380.329 285.189 379.293 285.167C378.257 285.144 377.115 285.698 376.785 286.7C376.565 287.394 376.768 288.12 377.046 288.768C377.8 290.444 379.125 291.804 380.524 293.01C385.885 297.531 392.754 300.265 399.779 300.695C402.888 300.878 406.144 300.598 408.883 299.138C407.515 297.471 407.786 295.089 407.639 292.982C407.2 286.814 401.943 289.156 397.724 289.144C392.43 289.032 387.16 288 382.297 286.003Z" fill="#F8AE9D"/>
<path d="M542.761 240.38L543.002 241.066C544.687 245.95 545.991 250.993 546.529 256.162C547.517 265.658 545.654 276.771 538.51 283.668C528.985 292.863 513.703 294.284 501.282 292.095C496.198 291.207 491.41 289.08 487.343 285.902C483.295 289.569 478.945 293.585 475.326 297.667C468.055 295.124 461.134 291.673 454.728 287.395C439.569 294.337 424.107 299.021 407.782 302.413C405.916 297.772 404.607 292.925 403.881 287.975C403.754 287.172 413.928 280.306 415.102 279.329C418.624 276.361 425.961 269.576 425.961 269.576C425.961 269.576 416.713 261.701 412.668 258.004C408.389 254.162 404.283 250.129 400.365 245.918C397.129 242.438 393.967 238.766 391.983 234.424C390 230.12 389.271 225.031 390.929 220.556C396.164 206.632 417.293 211.527 427.108 216.325C435.222 220.306 442.329 226.104 449.168 231.983C451.927 234.319 454.648 236.732 457.331 239.108C459.445 236.928 461.78 234.093 463.778 231.799C465.926 229.312 468.384 226.974 471.353 225.51C474.474 223.928 477.354 224.153 480.683 223.68C482.176 223.466 483.626 223.022 485.08 222.77C489.44 221.975 494.055 222.825 497.886 225.068C501.524 227.199 504.477 229.724 508.746 230.541C513.593 231.465 519.222 230.919 524.083 230.27C528.446 229.666 532.88 228.679 537.227 229.533C539.035 229.889 539.725 232.41 540.323 233.858C541.122 235.956 541.96 238.129 542.761 240.38ZM504.249 79.7665C504.249 79.7665 515.984 77.8995 519.136 98.6165C522.637 121.646 531.987 117.857 546.836 136.558C555.514 147.485 546.381 166.783 527.823 166.4C509.265 166.027 492.505 160.661 481.83 162.957C471.155 165.253 470.569 137.911 481.101 129.475C491.634 121.039 469.177 96.8155 482.862 86.0275C496.546 75.2405 504.249 79.7665 504.249 79.7665Z" fill="#2E2445"/>
<path d="M574.394 171.114C575.464 168.915 575.399 166.36 575.013 163.976C573.34 153.743 566.168 145.191 557.948 138.925C549.701 132.642 540.262 128.157 531.585 122.527C529.333 121.061 527.076 119.482 524.49 118.69C521.905 117.897 518.9 117.983 516.765 119.65C515.258 120.82 514.387 122.628 513.88 124.438C512.769 128.399 513.195 132.594 513.872 136.612C514.72 141.68 515.963 146.696 518.006 151.354C519.643 155.112 522.308 158.979 526.313 159.715C527.472 164.206 529.858 168.415 533.205 171.635C537.032 175.327 541.886 177.741 546.922 179.428C551.563 180.984 556.639 182.001 561.307 180.548C564.077 179.702 566.517 178.073 568.904 176.412C571.033 174.996 573.243 173.447 574.394 171.114ZM532.453 164.29L529.713 159.941C530.294 159.992 530.864 160.127 531.405 160.341C532.909 160.992 533.815 163.361 532.453 164.29Z" fill="#2E2445"/>
<path d="M481.689 97.9838C481.548 98.7528 481.521 99.5588 481.574 100.478C481.884 105.849 483.039 111.139 484.995 116.151C486.191 119.124 487.654 122.055 489.724 124.517C490.584 125.539 491.557 126.483 492.828 126.847C494.138 127.211 495.788 127.263 497.087 126.936C498.232 131.674 497.755 140.618 493.664 143.978C492.413 144.994 490.927 145.631 489.44 146.19C486.542 147.308 483.525 148.159 480.505 148.819C477.065 149.561 473.315 150.117 470.899 152.647C470.597 152.958 470.296 153.384 470.418 153.804C470.498 154.072 470.693 154.26 470.926 154.41C472.828 155.954 475.181 156.8 477.532 157.608C481.657 159.003 485.894 160.166 490.201 160.944C494.701 161.758 499.347 162.148 503.904 161.657C507.426 161.258 510.903 160.361 514.1 158.779C517.45 157.117 520.881 155.761 524.347 154.174C527.28 152.826 530.171 151.286 533.346 150.739C531.845 147.885 528.715 146.284 525.596 145.526C522.479 144.806 519.218 144.741 516.064 144.137C515.025 143.922 513.986 143.67 513.094 143.031C510.651 141.266 511.32 137.343 511.281 134.774L511.158 126.646C511.52 122.766 513.12 119.521 514.524 115.971C516.666 110.53 517.109 104.349 515.221 98.7778C513.335 93.2458 509.043 88.4398 503.529 86.4908C498.015 84.5418 491.397 85.6398 487.163 89.6928C484.479 92.3028 482.29 94.6378 481.689 97.9828V97.9838Z" fill="#F8AE9D"/>
<path d="M498.646 80.6981C493.15 80.0851 488.143 82.7761 484.43 86.9481C481.306 90.4451 479.47 95.0611 479.563 99.6991C479.576 100.362 479.65 101.083 480.024 101.679C481.016 103.105 483.175 102.58 484.79 101.945C487.421 100.928 489.379 99.4431 491.765 98.1901C494.15 96.9371 497.046 97.1201 499.181 95.3901C501.196 93.7231 508.116 90.2101 508.302 87.4951C508.537 84.1771 502.458 81.4661 499.916 80.9151C499.552 80.8011 499.129 80.7491 498.646 80.6981Z" fill="#2E2445"/>
<path d="M514.479 88.2103C519.126 91.2073 521.307 96.4583 521.549 102.037C521.76 106.721 520.266 111.459 517.264 114.996C516.835 115.501 516.321 116.013 515.656 116.238C513.985 116.716 512.644 114.945 511.794 113.433C510.397 110.983 509.817 108.594 508.76 106.116C507.703 103.638 505.342 101.95 504.781 99.2603C504.272 96.6943 501.128 89.6003 502.699 87.3773C504.614 84.6563 511.039 86.3973 513.358 87.5753C513.712 87.7173 514.072 87.9453 514.479 88.2103Z" fill="#2E2445"/>
<path d="M473.142 151.463C472.408 151.129 471.53 151.372 471.041 152.032C465.559 159.709 463.442 169.329 461.588 178.6C459.486 189.141 457.614 199.716 455.818 210.29C455.711 210.829 455.643 211.405 455.881 211.9C456.119 212.395 456.66 212.656 457.162 212.878C460.33 214.402 463.535 215.888 466.704 217.412C470.122 209.633 472.586 201.47 474.043 193.1C476.077 198.247 479.75 202.717 484.435 205.637C480.944 210.637 476.647 220.636 472.457 225.034C471.816 225.734 467.849 224.643 466.962 224.35C466.411 225.931 468.993 224.242 468.979 225.853C471.363 226.201 474.409 224.774 476.859 224.468C479.814 224.122 482.797 224.103 485.756 224.41C490.673 224.949 495.452 226.487 499.821 228.798C501.993 229.954 504.077 231.268 506.056 232.731C507.763 234.009 511.989 237.013 511.989 237.013C512.299 237.238 513.752 236.909 514.095 236.827C515.09 236.659 516.085 236.529 517.119 236.436C519.661 236.238 522.191 235.905 524.698 235.439C529.708 234.519 534.634 233.102 539.36 231.151C539.815 230.799 538.192 227.448 538.105 226.798C538.191 227.41 547.499 226.655 548.417 226.488C552.088 225.742 555.802 225.34 559.472 224.556C557.828 209.776 553.316 195.501 548.882 181.34C547.148 175.766 545.376 170.194 542.918 164.939C540.302 159.34 536.924 154.099 532.865 149.443C532.748 149.33 532.555 149.256 532.402 149.297C530.454 149.787 518.573 152.844 512.661 155.043C509.649 156.201 506.597 157.245 503.506 158.289C502.285 158.691 501.025 159.093 499.759 159.074C498.915 159.049 498.069 158.87 497.261 158.69C489.025 156.859 480.788 154.875 473.142 151.463Z" fill="#4F27AA"/>
<path d="M526.746 180.908C527.085 183.012 527.539 185.153 527.993 187.255C529.097 192.026 530.514 196.72 532.233 201.305C533.112 203.593 534.028 205.841 535.059 208.089C535.575 209.193 536.09 210.297 536.644 211.401C536.92 211.934 537.197 212.505 537.474 213.038C537.711 213.494 537.986 213.912 538.222 214.33C536.572 214.279 528.429 214.748 526.744 214.889" stroke="white" stroke-width="1.376" stroke-miterlimit="10" stroke-linecap="round"/>
<path d="M526.48 216.541C526.65 217.613 526.858 218.683 527.104 219.753L527.844 222.964C528.088 223.881 528.642 225.023 528.656 225.981C528.654 225.79 522.125 225.237 521.511 225.169C514.712 224.506 507.879 224.111 501.084 223.677C496.67 223.399 492.337 223.503 487.927 223.532C486.623 223.552 485.087 223.422 484.381 222.358C483.792 221.447 484.273 220.289 483.8 219.453C483.494 219.534 479.941 220.432 479.978 220.354C479.837 221.162 479.556 222.854 478.718 223.25C478.413 223.37 478.107 223.413 477.8 223.417C477.34 223.424 476.879 223.355 476.418 223.285C476.347 223.285 476.278 223.258 476.225 223.211C476.147 223.136 476.222 223.019 476.297 222.903C477.342 221.357 477.89 219.529 477.866 217.663C478.967 216.918 480.066 216.057 481.011 215.123C481.766 214.344 482.326 213.338 483.16 212.674C484.031 211.932 484.881 212.379 485.844 212.633C486.958 212.882 488.062 213.172 489.155 213.503C491.275 214.161 493.397 214.973 495.181 216.288C495.801 216.739 496.384 217.229 497.116 217.448C497.81 217.667 498.577 217.656 499.305 217.645C503.791 217.538 508.275 217.316 512.716 216.827C517.273 216.336 520.38 216.404 526.35 215.508C526.35 215.546 526.355 215.891 526.48 216.541Z" fill="#F8AE9D"/>
<path d="M477.081 180.482C476.014 185.129 475.223 189.835 474.712 194.575" stroke="white" stroke-width="1.376" stroke-miterlimit="10" stroke-linecap="round"/>
<path d="M386.638 172.834L399.803 231.544L499.765 230.026C499.712 226.575 496.87 223.78 493.381 223.833L469.493 224.196L457.588 170.184C457.404 169.335 456.933 168.575 456.254 168.034C455.575 167.492 454.73 167.201 453.861 167.211L390.287 168.177C387.872 168.252 386.103 170.465 386.638 172.834Z" fill="#2E2445"/>
<path d="M517.222 316.285C516.76 313.607 515.453 310.866 514.227 308.468C509.169 298.65 500.128 291.73 490.391 286.969C489.386 286.486 488.382 286.002 487.34 285.635C487.419 285.749 487.497 285.862 487.576 286.015L487.577 286.053L487.615 286.052C487.499 285.977 487.421 285.902 487.305 285.827C483.37 289.377 479.172 293.276 475.589 297.204C477.957 299.124 481.394 300.683 483.101 301.961C487.135 304.929 491.018 308.092 495.202 310.866C500.821 314.655 506.808 317.402 513.499 318.604C516.076 319.064 517.425 319.542 517.395 317.548C517.352 317.242 517.307 316.82 517.222 316.285Z" fill="#F8AE9D"/>
<path d="M510.698 308.558C508.092 303.65 504.046 299.915 499.624 296.607C496.52 294.276 493.229 292.178 490.089 290.04C489.198 289.44 487.448 287.817 485.94 287.035C482.8 289.882 479.586 292.884 476.68 295.996C486.28 301.834 494.833 309.451 505.366 313.586C506.331 313.955 507.334 314.324 508.369 314.346C509.405 314.369 510.511 313.93 511.111 313.077C512.05 311.759 511.448 309.966 510.698 308.558Z" fill="#F8AE9D"/>
<path d="M646.757 344.219C636.122 346.739 624.874 337.72 624.874 337.72C624.874 337.72 630.877 324.62 641.515 322.109C652.15 319.589 663.395 328.601 663.395 328.601C663.395 328.601 657.392 341.7 646.757 344.219Z" fill="url(#paint4_linear_1235_20858)"/>
<path d="M583.228 507.771C592.654 514.264 607.055 509.726 607.055 509.726C607.055 509.726 606.163 494.662 596.73 488.175C587.304 481.682 572.91 486.215 572.91 486.215C572.91 486.215 573.801 501.279 583.228 507.771Z" fill="url(#paint5_linear_1235_20858)"/>
<path d="M152.063 388.887C166.972 404.062 194.853 400.862 194.853 400.862C194.853 400.862 198.542 373.059 183.619 357.893C168.709 342.718 140.842 345.909 140.842 345.909C140.842 345.909 137.153 373.712 152.063 388.887Z" fill="url(#paint6_linear_1235_20858)"/>
<path d="M724.6 298.843C716.124 298.843 709.253 305.715 709.253 314.191C709.253 322.668 716.124 329.539 724.6 329.539C733.076 329.539 739.947 322.668 739.947 314.191C739.947 305.715 733.076 298.843 724.6 298.843Z" fill="#4F27AA"/>
<path d="M284.074 392C276.853 392 271 397.854 271 405.074C271 412.295 276.853 418.148 284.074 418.148C291.295 418.148 297.148 412.295 297.148 405.074C297.148 397.854 291.295 392 284.074 392Z" fill="#4F27AA"/>
<path d="M251.664 224.796C245.071 224.796 239.727 219.451 239.727 212.859C239.727 206.266 245.071 200.922 251.664 200.922C258.257 200.922 263.601 206.266 263.601 212.859C263.601 219.451 258.257 224.796 251.664 224.796Z" fill="#4F27AA"/>
<path d="M616.522 235.028C608.716 235.028 602.387 228.699 602.387 220.893C602.387 213.086 608.716 206.758 616.522 206.758C624.329 206.758 630.657 213.086 630.657 220.893C630.657 228.699 624.329 235.028 616.522 235.028Z" fill="#4F27AA"/>
<path d="M685.378 370.673C682.239 370.673 679.694 368.128 679.694 364.989C679.694 361.85 682.239 359.305 685.378 359.305C688.517 359.305 691.062 361.85 691.062 364.989C691.062 368.128 688.517 370.673 685.378 370.673Z" fill="#E1E4E5"/>
<path d="M230.5 422C225.253 422 221 417.747 221 412.5C221 407.253 225.253 403 230.5 403C235.747 403 240 407.253 240 412.5C240 417.747 235.747 422 230.5 422Z" fill="#E1E4E5"/>
<path d="M689.692 248.356C686.054 248.356 683.104 245.406 683.104 241.768C683.104 238.129 686.054 235.18 689.692 235.18C693.331 235.18 696.28 238.129 696.28 241.768C696.28 245.406 693.331 248.356 689.692 248.356Z" fill="#E1E4E5"/>
<path d="M669.284 162.067C663.73 162.067 659.228 157.565 659.228 152.011C659.228 146.457 663.73 141.955 669.284 141.955C674.838 141.955 679.34 146.457 679.34 152.011C679.34 157.565 674.838 162.067 669.284 162.067Z" fill="#E1E4E5"/>
<path d="M321.409 269.353C322.35 272.862 320.267 276.469 316.758 277.41C313.249 278.35 309.642 276.267 308.702 272.758C307.761 269.249 309.844 265.642 313.353 264.702C316.862 263.762 320.469 265.844 321.409 269.353Z" fill="#E1E4E5"/>
<path d="M192.547 249.957C189.093 249.957 186.294 247.158 186.294 243.704C186.294 240.251 189.093 237.451 192.547 237.451C196 237.451 198.8 240.251 198.8 243.704C198.8 247.158 196 249.957 192.547 249.957Z" fill="#E1E4E5"/>
<path d="M758.794 182.883H758.97C760.013 197.657 771 197.884 771 197.884C771 197.884 758.884 198.121 758.884 215.192C758.884 198.121 746.768 197.884 746.768 197.884C746.768 197.884 757.751 197.657 758.794 182.883ZM601.907 107.85H602.083C603.125 122.624 614.113 122.851 614.113 122.851C614.113 122.851 601.997 123.088 601.997 140.159C601.997 123.088 589.881 122.851 589.881 122.851C589.881 122.851 600.864 122.624 601.907 107.85ZM609.865 347.728H610.041C611.083 362.502 622.071 362.73 622.071 362.73C622.071 362.73 609.955 362.966 609.955 380.037C609.955 362.966 597.839 362.73 597.839 362.73C597.839 362.73 608.822 362.502 609.865 347.728ZM270.936 452.32H271.043C271.679 461.331 278.38 461.469 278.38 461.469C278.38 461.469 270.991 461.614 270.991 472.025C270.991 461.614 263.601 461.469 263.601 461.469C263.601 461.469 270.3 461.331 270.936 452.32ZM329.059 196.525H329.235C330.278 211.299 341.266 211.527 341.266 211.527C341.266 211.527 329.15 211.763 329.15 228.834C329.15 211.763 317.034 211.527 317.034 211.527C317.034 211.527 328.017 211.299 329.059 196.525ZM322.044 89.6602H322.25C323.473 107.335 336.361 107.607 336.361 107.607C336.361 107.607 322.15 107.89 322.15 128.313C322.15 107.89 307.939 107.607 307.939 107.607C307.939 107.607 320.821 107.335 322.044 89.6602Z" fill="#E1E4E5"/>
</g>
<defs>
<linearGradient id="paint0_linear_1235_20858" x1="616.66" y1="338.067" x2="526.442" y2="338.469" gradientUnits="userSpaceOnUse">
<stop stop-color="white"/>
<stop offset="1" stop-color="#EEEEEE"/>
</linearGradient>
<linearGradient id="paint1_linear_1235_20858" x1="730.809" y1="478.533" x2="607.586" y2="479.312" gradientUnits="userSpaceOnUse">
<stop stop-color="white"/>
<stop offset="1" stop-color="#EEEEEE"/>
</linearGradient>
<linearGradient id="paint2_linear_1235_20858" x1="286.866" y1="433.895" x2="377.085" y2="433.493" gradientUnits="userSpaceOnUse">
<stop stop-color="white"/>
<stop offset="1" stop-color="#EEEEEE"/>
</linearGradient>
<linearGradient id="paint3_linear_1235_20858" x1="172.717" y1="293.427" x2="295.94" y2="292.647" gradientUnits="userSpaceOnUse">
<stop stop-color="white"/>
<stop offset="1" stop-color="#EEEEEE"/>
</linearGradient>
<linearGradient id="paint4_linear_1235_20858" x1="606.709" y1="350.484" x2="699.807" y2="306.501" gradientUnits="userSpaceOnUse">
<stop stop-color="white"/>
<stop offset="1" stop-color="#EEEEEE"/>
</linearGradient>
<linearGradient id="paint5_linear_1235_20858" x1="619.947" y1="529.075" x2="545.745" y2="450.831" gradientUnits="userSpaceOnUse">
<stop stop-color="white"/>
<stop offset="1" stop-color="#EEEEEE"/>
</linearGradient>
<linearGradient id="paint6_linear_1235_20858" x1="211.55" y1="440.721" x2="103.761" y2="271.754" gradientUnits="userSpaceOnUse">
<stop stop-color="white"/>
<stop offset="1" stop-color="#EEEEEE"/>
</linearGradient>
<clipPath id="clip0_1235_20858">
<rect width="900" height="600" fill="white"/>
</clipPath>
</defs>
</svg>
