<svg width="900" height="600" viewBox="0 0 900 600" fill="none" xmlns="http://www.w3.org/2000/svg">
<g clip-path="url(#clip0_1235_18006)">
<path d="M760.721 385.868H717.59C707.022 385.868 698.168 378.557 698.168 369.296C698.168 364.665 700.453 360.522 703.88 357.598C707.308 354.673 712.163 352.724 717.59 352.724H723.874C729.301 352.724 734.157 350.774 737.585 347.849C741.012 344.925 743.297 340.782 743.297 336.151C743.297 327.134 734.728 319.579 723.874 319.579H592.258C588.749 319.579 586.486 315.29 586.486 311.78C586.486 303.007 578.202 295.939 567.92 295.939H518.973C517.713 295.939 516.504 295.438 515.613 294.547C514.722 293.656 514.221 292.447 514.221 291.187C514.221 289.927 514.722 288.718 515.613 287.827C516.504 286.936 517.713 286.435 518.973 286.435H706.736C715.02 286.435 722.732 283.51 728.159 278.88C733.586 274.249 737.013 267.669 737.013 260.602C737.013 246.223 723.303 234.768 706.736 234.768H609.841C594.561 234.768 579.486 222.827 564.207 222.827H510.278C502.202 222.827 495.655 216.28 495.655 208.204C495.655 200.128 502.202 193.582 510.278 193.582H631.33C637.042 193.582 642.469 191.632 646.183 188.464C649.896 185.295 652.181 180.909 652.181 175.791C652.181 166.042 642.755 158 631.33 158H351.697C345.984 158 340.557 159.95 336.844 163.118C333.131 166.286 330.846 170.673 330.846 175.791C330.846 185.539 340.272 193.582 351.697 193.582H358.838C368.264 193.582 376.261 200.162 376.261 208.448C376.261 212.591 374.262 216.246 371.12 218.927C367.978 221.608 363.693 223.314 358.838 223.314H324.276C318.278 223.314 312.565 225.507 308.567 228.919C304.568 232.331 301.997 236.962 301.997 242.323C301.997 252.803 311.994 261.089 323.991 261.089H359.123C370.549 261.089 379.974 269.131 379.974 278.88C379.974 283.754 377.689 288.141 373.976 291.309C370.263 294.477 365.122 296.427 359.409 296.427H327.99C322.848 296.427 318.278 298.133 314.85 301.057C311.423 303.982 309.424 307.881 309.424 312.268C309.424 321.041 317.707 328.109 327.99 328.109H353.411C367.978 328.109 379.689 338.101 379.689 350.53C379.689 356.623 376.832 362.472 371.977 366.371C367.121 370.514 360.551 372.951 353.411 372.951H317.992C310.852 372.951 304.282 375.389 299.712 379.532C294.856 383.431 292 389.036 292 395.129C292 407.314 303.711 417.306 317.992 417.306H427.305C439.406 417.306 451.278 424.13 463.379 424.13H483.07C490.809 424.13 497.083 430.404 497.083 438.144C497.083 445.883 490.809 452.157 483.07 452.157H434.816C428.532 452.157 423.105 454.35 419.106 457.762C415.107 461.174 412.536 466.048 412.536 471.166C412.536 481.646 422.533 490.176 434.816 490.176H731.872C738.156 490.176 743.583 487.982 747.582 484.57C751.581 481.158 754.151 476.284 754.151 471.166C754.151 460.687 744.154 452.157 731.872 452.157H723.017C713.877 452.157 706.736 445.82 706.736 438.265C706.736 434.366 708.45 430.954 711.592 428.517C714.448 426.08 718.733 424.374 723.303 424.374H760.721C767.005 424.374 772.432 422.181 776.431 418.769C780.429 415.357 783 410.483 783 405.365C783 394.398 773.003 385.868 760.721 385.868Z" fill="url(#paint0_linear_1235_18006)"/>
<path d="M151.213 293.844H188.407C197.521 293.844 205.157 287.946 205.157 280.474C205.157 276.738 203.186 273.395 200.231 271.036C197.275 268.676 193.087 267.103 188.407 267.103H182.988C178.308 267.103 174.121 265.53 171.165 263.171C168.209 260.811 166.238 257.469 166.238 253.733C166.238 246.458 173.628 240.362 182.988 240.362H296.895C299.69 240.362 301.468 236.866 301.468 234.07C301.468 226.992 308.611 221.29 317.479 221.29H359.952C360.461 221.298 360.966 221.205 361.439 221.016C361.911 220.827 362.341 220.546 362.704 220.189C363.066 219.832 363.354 219.407 363.551 218.937C363.748 218.468 363.849 217.964 363.849 217.456C363.849 216.947 363.748 216.443 363.551 215.974C363.354 215.504 363.066 215.079 362.704 214.722C362.341 214.365 361.911 214.084 361.439 213.895C360.966 213.706 360.461 213.613 359.952 213.621H197.767C190.624 213.621 183.973 211.262 179.293 207.526C174.613 203.79 171.657 198.481 171.657 192.779C171.657 181.178 183.481 171.937 197.767 171.937H281.737C294.721 171.937 307.696 162.302 320.681 162.302H368C374.516 162.302 379.797 157.02 379.797 150.505C379.797 143.989 374.515 138.707 368 138.707H262.796C257.869 138.707 253.189 137.134 249.987 134.578C246.785 132.022 244.814 128.483 244.814 124.354C244.814 116.489 252.943 110 262.796 110H503.942C508.869 110 513.549 111.573 516.751 114.129C519.953 116.685 521.924 120.225 521.924 124.354C521.924 132.219 513.795 138.707 503.942 138.707H497.784C489.656 138.707 482.759 144.016 482.759 150.701C482.759 154.044 484.483 156.993 487.193 159.156C489.902 161.319 493.597 162.696 497.784 162.696H527.589C532.762 162.696 537.688 164.465 541.137 167.218C544.585 169.971 546.802 173.707 546.802 178.032C546.802 186.487 538.181 193.172 527.835 193.172H497.538C487.685 193.172 479.557 199.661 479.557 207.526C479.557 211.459 481.527 214.998 484.73 217.554C487.932 220.11 492.365 221.683 497.292 221.683H524.387C528.821 221.683 532.762 223.059 535.718 225.419C538.673 227.778 540.398 230.924 540.398 234.464C540.398 241.542 533.254 247.244 524.387 247.244H502.465C489.902 247.244 479.803 255.306 479.803 265.334C479.803 270.249 482.266 274.968 486.454 278.114C490.641 281.457 496.307 283.423 502.465 283.423H533.008C539.166 283.423 544.831 285.39 548.773 288.732C552.96 291.878 555.423 296.401 555.423 301.316C555.423 311.147 545.324 319.209 533.008 319.209H438.562C428.203 319.209 417.99 324.715 407.632 324.715H389.872C383.628 324.715 378.566 329.776 378.566 336.021C378.566 342.265 383.628 347.326 389.872 347.326H432.263C437.683 347.326 442.363 349.096 445.811 351.849C449.26 354.602 451.476 358.534 451.476 362.663C451.476 371.118 442.855 378 432.263 378H176.091C170.672 378 165.992 376.23 162.544 373.478C159.095 370.725 156.878 366.792 156.878 362.663C156.878 354.208 165.499 347.326 176.091 347.326H183.727C191.609 347.326 197.767 342.214 197.767 336.119C197.767 332.973 196.289 330.22 193.58 328.254C191.117 326.288 187.422 324.911 183.481 324.911H151.213C145.794 324.911 141.114 323.142 137.665 320.389C134.217 317.636 132 313.704 132 309.574C132 300.726 140.621 293.844 151.213 293.844Z" fill="url(#paint1_linear_1235_18006)"/>
<path fill-rule="evenodd" clip-rule="evenodd" d="M274.923 151H633.077C654.042 151 671 168.334 671 189.7V205.258C670.974 184.119 654.026 167 633.077 167H274.923C253.986 167 237 184.145 237 205.279V189.7C237 168.334 253.986 151 274.923 151ZM237 235V406.3C237 427.666 253.986 445 274.923 445H633.077C654.014 445 671 427.666 671 406.3V235H237Z" fill="#4F27AA"/>
<path d="M633.077 151H274.923C253.986 151 237 168.145 237 189.279V219H671V189.279C671 168.145 654.042 151 633.077 151Z" fill="#4F27AA"/>
<path opacity="0.5" d="M426 189H484M608 286H519M608 332H519M511 189H629M477 286H297M477 332H297M477 373H297" stroke="#E1E4E5" stroke-width="13.718" stroke-miterlimit="10" stroke-linecap="round" stroke-linejoin="round"/>
<path d="M546 410C560.359 410 572 398.359 572 384C572 369.641 560.359 358 546 358C531.641 358 520 369.641 520 384C520 398.359 531.641 410 546 410Z" fill="white"/>
<path d="M581 410C595.359 410 607 398.359 607 384C607 369.641 595.359 358 581 358C566.641 358 555 369.641 555 384C555 398.359 566.641 410 581 410Z" fill="#2E2445"/>
<path fill-rule="evenodd" clip-rule="evenodd" d="M563.393 403.038C568.47 398.303 571.645 391.555 571.645 384.065C571.645 376.575 568.47 369.826 563.393 365.092C558.315 369.826 555.14 376.575 555.14 384.065C555.14 391.555 558.315 398.303 563.393 403.038Z" fill="#2E2445"/>
</g>
<defs>
<linearGradient id="paint0_linear_1235_18006" x1="547.969" y1="676.412" x2="541.039" y2="-203.415" gradientUnits="userSpaceOnUse">
<stop stop-color="white"/>
<stop offset="1" stop-color="#EEEEEE"/>
</linearGradient>
<linearGradient id="paint1_linear_1235_18006" x1="334.683" y1="528.256" x2="339.914" y2="-181.596" gradientUnits="userSpaceOnUse">
<stop stop-color="white"/>
<stop offset="1" stop-color="#EEEEEE"/>
</linearGradient>
<clipPath id="clip0_1235_18006">
<rect width="900" height="600" fill="white"/>
</clipPath>
</defs>
</svg>
