<svg width="900" height="600" viewBox="0 0 900 600" fill="none" xmlns="http://www.w3.org/2000/svg">
<g clip-path="url(#clip0_1235_20925)">
<path d="M624.782 362.488C628.185 425.188 505.602 552.68 354.51 505.491C284.239 483.542 290.191 447.112 236.757 399.099C204.907 370.483 159.145 348.844 146.417 307.248C135.422 271.345 142.165 232.754 161.227 207.653C204.097 151.203 290.645 112.548 375.922 201.49C461.199 290.432 615.988 200.781 624.782 362.488Z" fill="url(#paint0_linear_1235_20925)"/>
<path d="M349.29 431.813C378.84 431.813 402.795 407.858 402.795 378.308C402.795 348.758 378.84 324.803 349.29 324.803C319.74 324.803 295.785 348.758 295.785 378.308C295.785 407.858 319.74 431.813 349.29 431.813Z" fill="#2E2445"/>
<path d="M273.168 389.891C302.718 389.891 326.673 365.936 326.673 336.386C326.673 306.836 302.718 282.881 273.168 282.881C243.618 282.881 219.663 306.836 219.663 336.386C219.663 365.936 243.618 389.891 273.168 389.891Z" fill="#2E2445"/>
<path d="M195.288 366.565C257.378 366.565 307.711 316.231 307.711 254.142C307.711 192.052 257.378 141.719 195.288 141.719C133.199 141.719 82.8652 192.052 82.8652 254.142C82.8652 316.231 133.199 366.565 195.288 366.565Z" fill="#2E2445"/>
<path d="M683.918 461.209C626.753 461.209 580.412 414.868 580.412 357.703C580.412 300.538 626.753 254.197 683.918 254.197C741.083 254.197 787.424 300.538 787.424 357.703C787.424 414.868 741.083 461.209 683.918 461.209Z" fill="#2E2445"/>
<path d="M290.76 347.363C322.856 347.363 348.875 321.344 348.875 289.248C348.875 257.152 322.856 231.133 290.76 231.133C258.664 231.133 232.645 257.152 232.645 289.248C232.645 321.344 258.664 347.363 290.76 347.363Z" fill="#2E2445"/>
<path d="M255.556 273.846C317.645 273.846 367.979 223.513 367.979 161.423C367.979 99.3335 317.645 49 255.556 49C193.466 49 143.133 99.3335 143.133 161.423C143.133 223.513 193.466 273.846 255.556 273.846Z" fill="#2E2445"/>
<path d="M675.782 289.422C613.693 289.422 563.359 239.089 563.359 176.999C563.359 114.91 613.693 64.5762 675.782 64.5762C737.872 64.5762 788.205 114.91 788.205 176.999C788.205 239.089 737.872 289.422 675.782 289.422Z" fill="#2E2445"/>
<path d="M369.844 358.146C401.94 358.146 427.959 332.127 427.959 300.031C427.959 267.935 401.94 241.916 369.844 241.916C337.748 241.916 311.729 267.935 311.729 300.031C311.729 332.127 337.748 358.146 369.844 358.146Z" fill="#2E2445"/>
<path d="M408.543 294.707C470.633 294.707 520.966 244.374 520.966 182.284C520.966 120.195 470.633 69.8613 408.543 69.8613C346.454 69.8613 296.12 120.195 296.12 182.284C296.12 244.374 346.454 294.707 408.543 294.707Z" fill="#2E2445"/>
<path d="M522.862 315.076C460.773 315.076 410.439 264.743 410.439 202.653C410.439 140.564 460.773 90.2305 522.862 90.2305C584.952 90.2305 635.285 140.564 635.285 202.653C635.285 264.743 584.952 315.076 522.862 315.076Z" fill="#2E2445"/>
<path d="M418.792 378.858C448.342 378.858 472.297 354.903 472.297 325.353C472.297 295.803 448.342 271.848 418.792 271.848C389.242 271.848 365.287 295.803 365.287 325.353C365.287 354.903 389.242 378.858 418.792 378.858Z" fill="#2E2445"/>
<path d="M501.263 343.385C563.352 343.385 613.686 293.052 613.686 230.962C613.686 168.873 563.352 118.539 501.263 118.539C439.173 118.539 388.84 168.873 388.84 230.962C388.84 293.052 439.173 343.385 501.263 343.385Z" fill="#2E2445"/>
<path d="M573.931 412.84C511.841 412.84 461.508 362.507 461.508 300.417C461.508 238.328 511.841 187.994 573.931 187.994C636.021 187.994 686.354 238.328 686.354 300.417C686.354 362.507 636.021 412.84 573.931 412.84Z" fill="#2E2445"/>
<path fill-rule="evenodd" clip-rule="evenodd" d="M516.977 542.227L469.501 474.838L516.977 542.227Z" fill="white"/>
<path d="M516.977 542.227L469.501 474.838" stroke="#E1E4E5" stroke-width="10" stroke-linecap="round" stroke-linejoin="round"/>
<path fill-rule="evenodd" clip-rule="evenodd" d="M450.051 456.401C445.215 461.238 445.215 469.079 450.051 473.916C454.888 478.753 462.73 478.753 467.566 473.916C472.403 469.079 472.403 461.238 467.566 456.401C462.73 451.564 454.888 451.564 450.051 456.401Z" fill="white"/>
<path d="M450.051 456.401C445.215 461.238 445.215 469.079 450.051 473.916C454.888 478.753 462.73 478.753 467.566 473.916C472.403 469.079 472.403 461.238 467.566 456.401C462.73 451.564 454.888 451.564 450.051 456.401Z" stroke="#E1E4E5" stroke-width="10" stroke-linecap="round" stroke-linejoin="round"/>
<path fill-rule="evenodd" clip-rule="evenodd" d="M395.222 369.889L375.173 418.298C372.961 423.643 375.498 429.774 380.843 431.996L389.73 435.674C400.42 440.108 412.682 435.025 417.116 424.334L429.147 395.283C433.58 384.593 428.497 372.33 417.807 367.897L408.92 364.219C407.649 363.69 406.285 363.417 404.908 363.416C403.531 363.415 402.167 363.685 400.895 364.212C399.623 364.739 398.467 365.511 397.493 366.485C396.52 367.459 395.748 368.616 395.222 369.889ZM417.128 424.334L429.159 395.282C431.37 389.937 437.502 387.39 442.857 389.612L529.992 425.707C535.337 427.918 537.883 434.049 535.662 439.405L523.63 468.457C521.419 473.802 515.287 476.349 509.932 474.127L422.787 438.032C417.442 435.81 414.906 429.679 417.128 424.334Z" fill="#4F27AA"/>
<path fill-rule="evenodd" clip-rule="evenodd" d="M523.629 468.446L535.661 439.395L555.029 447.412C560.374 449.624 562.92 455.755 560.699 461.11L556.685 470.794C554.473 476.139 548.342 478.686 542.987 476.464L523.629 468.446Z" fill="#4F27AA"/>
<path fill-rule="evenodd" clip-rule="evenodd" d="M397.831 542.227L448.138 474.838L397.831 542.227Z" fill="white"/>
<path d="M397.831 542.227L448.138 474.838" stroke="#E1E4E5" stroke-width="10" stroke-linecap="round" stroke-linejoin="round"/>
<path d="M247.749 236.545H247.837C248.36 244.616 253.862 244.741 253.862 244.741C253.862 244.741 247.794 244.87 247.794 254.196C247.794 244.87 241.727 244.741 241.727 244.741C241.727 244.741 247.227 244.616 247.749 236.545ZM320.561 289.499H320.649C321.171 297.57 326.674 297.695 326.674 297.695C326.674 297.695 320.606 297.824 320.606 307.15C320.606 297.824 314.539 297.695 314.539 297.695C314.539 297.695 320.039 297.57 320.561 289.499ZM374.062 300.531H374.159C374.728 308.602 380.731 308.727 380.731 308.727C380.731 308.727 374.112 308.856 374.112 318.182C374.112 308.856 367.492 308.727 367.492 308.727C367.492 308.727 373.493 308.602 374.062 300.531ZM351.982 355.691H352.11C352.87 366.453 360.873 366.619 360.873 366.619C360.873 366.619 352.047 366.791 352.047 379.226C352.047 366.791 343.222 366.619 343.222 366.619C343.222 366.619 351.222 366.453 351.982 355.691ZM424.262 312.666H424.35C424.873 320.233 430.375 320.35 430.375 320.35C430.375 320.35 424.307 320.471 424.307 329.214C424.307 320.471 418.24 320.35 418.24 320.35C418.24 320.35 423.74 320.233 424.262 312.666ZM492.105 295.015H492.202C492.771 302.582 498.774 302.698 498.774 302.698C498.774 302.698 492.155 302.82 492.155 311.563C492.155 302.82 485.535 302.698 485.535 302.698C485.535 302.698 491.536 302.582 492.105 295.015ZM568.226 278.467H568.323C568.892 286.034 574.895 286.15 574.895 286.15C574.895 286.15 568.276 286.271 568.276 295.015C568.276 286.271 561.657 286.15 561.657 286.15C561.657 286.15 567.657 286.034 568.226 278.467ZM528.494 340.105H528.623C529.382 350.867 537.386 351.033 537.386 351.033C537.386 351.033 528.56 351.205 528.56 363.64C528.56 351.205 519.735 351.033 519.735 351.033C519.735 351.033 527.735 350.867 528.494 340.105ZM604.616 336.937H604.744C605.504 347.699 613.507 347.864 613.507 347.864C613.507 347.864 604.682 348.037 604.682 360.472C604.682 348.037 595.856 347.864 595.856 347.864C595.856 347.864 603.856 347.699 604.616 336.937ZM643.228 378.859H643.357C644.116 389.62 652.12 389.786 652.12 389.786C652.12 389.786 643.294 389.958 643.294 402.394C643.294 389.958 634.468 389.786 634.468 389.786C634.468 389.786 642.469 389.62 643.228 378.859ZM734.794 340.246H734.922C735.682 351.008 743.686 351.174 743.686 351.174C743.686 351.174 734.86 351.346 734.86 363.781C734.86 351.346 726.034 351.174 726.034 351.174C726.034 351.174 734.035 351.008 734.794 340.246ZM696.182 409.607H696.31C697.07 420.369 705.073 420.535 705.073 420.535C705.073 420.535 696.248 420.707 696.248 433.142C696.248 420.707 687.422 420.535 687.422 420.535C687.422 420.535 695.422 420.369 696.182 409.607ZM514.169 246.474H514.266C514.835 254.041 520.838 254.157 520.838 254.157C520.838 254.157 514.219 254.278 514.219 263.022C514.219 254.278 507.599 254.157 507.599 254.157C507.599 254.157 513.6 254.041 514.169 246.474ZM619.53 237.648H619.618C620.14 245.215 625.643 245.332 625.643 245.332C625.643 245.332 619.575 245.453 619.575 254.196C619.575 245.453 613.507 245.332 613.507 245.332C613.507 245.332 619.008 245.215 619.53 237.648ZM685.15 219.997H685.278C686.038 230.759 694.042 230.924 694.042 230.924C694.042 230.924 685.216 231.097 685.216 243.532C685.216 231.097 676.39 230.924 676.39 230.924C676.39 230.924 684.391 230.759 685.15 219.997ZM681.841 340.246H681.969C682.728 351.008 690.732 351.174 690.732 351.174C690.732 351.174 681.906 351.346 681.906 363.781C681.906 351.346 673.081 351.174 673.081 351.174C673.081 351.174 681.081 351.008 681.841 340.246ZM643.253 127.328H643.333C643.808 134.054 648.81 134.157 648.81 134.157C648.81 134.157 643.294 134.265 643.294 142.037C643.294 134.265 637.778 134.157 637.778 134.157C637.778 134.157 642.778 134.054 643.253 127.328ZM676.324 152.56H676.453C677.212 163.322 685.216 163.488 685.216 163.488C685.216 163.488 676.39 163.66 676.39 176.095C676.39 163.66 667.565 163.488 667.565 163.488C667.565 163.488 675.565 163.322 676.324 152.56ZM725.985 126.818H726.081C726.651 134.89 732.654 135.014 732.654 135.014C732.654 135.014 726.034 135.143 726.034 144.47C726.034 135.143 719.415 135.014 719.415 135.014C719.415 135.014 725.415 134.89 725.985 126.818ZM734.827 201.469H734.891C735.271 206.85 739.273 206.933 739.273 206.933C739.273 206.933 734.86 207.019 734.86 213.236C734.86 207.019 730.447 206.933 730.447 206.933C730.447 206.933 734.447 206.85 734.827 201.469ZM122.54 248.68H122.62C123.095 255.406 128.097 255.51 128.097 255.51C128.097 255.51 122.581 255.618 122.581 263.389C122.581 255.618 117.065 255.51 117.065 255.51C117.065 255.51 122.065 255.406 122.54 248.68ZM155.636 278.326H155.716C156.191 285.052 161.193 285.155 161.193 285.155C161.193 285.155 155.677 285.263 155.677 293.035C155.677 285.263 150.161 285.155 150.161 285.155C150.161 285.155 155.161 285.052 155.636 278.326ZM208.042 268.538H208.114C208.541 274.592 213.043 274.685 213.043 274.685C213.043 274.685 208.079 274.782 208.079 281.776C208.079 274.782 203.115 274.685 203.115 274.685C203.115 274.685 207.615 274.592 208.042 268.538ZM268.735 297.221H268.775C269.013 301.257 271.514 301.319 271.514 301.319C271.514 301.319 268.756 301.384 268.756 306.047C268.756 301.384 265.998 301.319 265.998 301.319C265.998 301.319 268.498 301.257 268.735 297.221ZM508.34 149.392H508.432C508.975 157.079 514.691 157.197 514.691 157.197C514.691 157.197 508.387 157.32 508.387 166.202C508.387 157.32 502.083 157.197 502.083 157.197C502.083 157.197 507.798 157.079 508.34 149.392ZM534.345 192.732H534.436C534.979 200.419 540.696 200.537 540.696 200.537C540.696 200.537 534.392 200.66 534.392 209.543C534.392 200.66 528.088 200.537 528.088 200.537C528.088 200.537 533.802 200.419 534.345 192.732ZM631.27 158.06H631.361C631.904 165.747 637.621 165.865 637.621 165.865C637.621 165.865 631.317 165.988 631.317 174.87C631.317 165.988 625.013 165.865 625.013 165.865C625.013 165.865 630.727 165.747 631.27 158.06ZM573.745 201.299H573.837C574.379 208.986 580.096 209.104 580.096 209.104C580.096 209.104 573.792 209.228 573.792 218.11C573.792 209.228 567.488 209.104 567.488 209.104C567.488 209.104 573.203 208.986 573.745 201.299ZM204.185 105.631H204.249C204.629 111.012 208.631 111.095 208.631 111.095C208.631 111.095 204.218 111.181 204.218 117.399C204.218 111.181 199.805 111.095 199.805 111.095C199.805 111.095 203.805 111.012 204.185 105.631ZM224.026 167.043H224.122C224.692 174.61 230.695 174.726 230.695 174.726C230.695 174.726 224.076 174.848 224.076 183.591C224.076 174.848 217.456 174.726 217.456 174.726C217.456 174.726 223.457 174.61 224.026 167.043ZM148.469 181.017H148.541C148.968 187.07 153.47 187.164 153.47 187.164C153.47 187.164 148.506 187.261 148.506 194.255C148.506 187.261 143.542 187.164 143.542 187.164C143.542 187.164 148.042 187.07 148.469 181.017ZM201.954 203.449H202.066C202.731 213.538 209.734 213.693 209.734 213.693C209.734 213.693 202.011 213.855 202.011 225.513C202.011 213.855 194.289 213.693 194.289 213.693C194.289 213.693 201.289 213.538 201.954 203.449ZM463.406 118.502H463.534C464.293 129.264 472.297 129.429 472.297 129.429C472.297 129.429 463.471 129.602 463.471 142.037C463.471 129.602 454.646 129.429 454.646 129.429C454.646 129.429 462.646 129.264 463.406 118.502ZM286.925 106.593H286.989C287.369 111.974 291.371 112.057 291.371 112.057C291.371 112.057 286.958 112.143 286.958 118.361C286.958 112.143 282.545 112.057 282.545 112.057C282.545 112.057 286.546 111.974 286.925 106.593ZM265.948 197.933H266.044C266.614 205.5 272.617 205.616 272.617 205.616C272.617 205.616 265.997 205.737 265.997 214.481C265.997 205.737 259.378 205.616 259.378 205.616C259.378 205.616 265.378 205.5 265.948 197.933Z" fill="white"/>
<path d="M400.405 151.046V136.889M393.326 143.968H407.484M472.757 208.781V194.623M465.678 201.702H479.836M298.45 261.735V247.577M291.371 254.656H305.529M196.955 322.411V308.253M189.876 315.332H204.034M318.308 343.372V329.214M311.229 336.293H325.387M624.999 309.173V295.015M617.92 302.094H632.078M712.153 311.379V297.221M705.074 304.3H719.232M644.857 210.987V196.83M637.778 203.909H651.936M442.971 276.077V261.919M435.892 268.998H450.049M179.304 164.653V150.495M172.225 157.574H186.383M573.148 156.93V142.773M566.069 149.851H580.227" stroke="white" stroke-width="4" stroke-linecap="round" stroke-linejoin="round"/>
<path fill-rule="evenodd" clip-rule="evenodd" d="M423.554 204.093C405.856 209.757 385.328 206.217 371.17 192.059C353.473 174.362 352.057 146.046 366.215 126.225C337.191 129.057 314.539 153.125 314.539 182.857C314.539 214.004 340.023 239.488 371.17 239.488C394.53 239.488 415.059 224.622 423.554 204.093Z" fill="white"/>
<path d="M802.732 275.967C793.086 280.752 780.283 274.599 780.283 274.599C780.283 274.599 783.128 260.691 792.78 255.913C802.426 251.128 815.224 257.274 815.224 257.274C815.224 257.274 812.378 271.182 802.732 275.967Z" fill="url(#paint1_linear_1235_20925)"/>
<path d="M200.162 474.368C216.245 484.007 239.319 475.096 239.319 475.096C239.319 475.096 236.302 450.561 220.209 440.932C204.126 431.293 181.062 440.193 181.062 440.193C181.062 440.193 184.079 464.729 200.162 474.368Z" fill="url(#paint2_linear_1235_20925)"/>
<path d="M723.438 174.11C716.777 174.11 711.377 179.51 711.377 186.171C711.377 192.833 716.777 198.232 723.438 198.232C730.099 198.232 735.499 192.833 735.499 186.171C735.499 179.51 730.099 174.11 723.438 174.11Z" fill="#4F27AA"/>
<path d="M271.844 424.091C264.35 424.091 258.275 430.166 258.275 437.66C258.275 445.153 264.35 451.229 271.844 451.229C279.338 451.229 285.413 445.153 285.413 437.66C285.413 430.166 279.338 424.091 271.844 424.091Z" fill="#4F27AA"/>
<path d="M153 235C148.582 235 145 231.418 145 227C145 222.582 148.582 219 153 219C157.418 219 161 222.582 161 227C161 231.418 157.418 235 153 235Z" fill="#4F27AA"/>
<path d="M565.83 248.202C562.916 248.202 560.553 245.84 560.553 242.925C560.553 240.011 562.916 237.648 565.83 237.648C568.744 237.648 571.107 240.011 571.107 242.925C571.107 245.84 568.744 248.202 565.83 248.202Z" fill="#4F27AA"/>
<path d="M667.325 284.609C664.411 284.609 662.048 282.246 662.048 279.332C662.048 276.417 664.411 274.055 667.325 274.055C670.239 274.055 672.602 276.417 672.602 279.332C672.602 282.246 670.239 284.609 667.325 284.609Z" fill="#4F27AA"/>
<path d="M568.037 337.562C565.123 337.562 562.76 335.199 562.76 332.285C562.76 329.37 565.123 327.008 568.037 327.008C570.951 327.008 573.314 329.37 573.314 332.285C573.314 335.199 570.951 337.562 568.037 337.562Z" fill="#4F27AA"/>
<path d="M370.563 276.884C367.648 276.884 365.286 274.521 365.286 271.607C365.286 268.693 367.648 266.33 370.563 266.33C373.477 266.33 375.84 268.693 375.84 271.607C375.84 274.521 373.477 276.884 370.563 276.884Z" fill="#4F27AA"/>
<path d="M271.274 350.8C268.359 350.8 265.997 348.438 265.997 345.523C265.997 342.609 268.359 340.246 271.274 340.246C274.188 340.246 276.551 342.609 276.551 345.523C276.551 348.438 274.188 350.8 271.274 350.8Z" fill="#4F27AA"/>
<path d="M235.972 291.228C233.058 291.228 230.695 288.865 230.695 285.951C230.695 283.036 233.058 280.674 235.972 280.674C238.886 280.674 241.249 283.036 241.249 285.951C241.249 288.865 238.886 291.228 235.972 291.228Z" fill="#4F27AA"/>
<path d="M800.115 439.865C796.368 439.865 793.331 436.828 793.331 433.081C793.331 429.334 796.368 426.297 800.115 426.297C803.862 426.297 806.899 429.334 806.899 433.081C806.899 436.828 803.862 439.865 800.115 439.865Z" fill="#E1E4E5"/>
<path d="M176.237 408.344C170.825 408.344 166.437 403.957 166.437 398.544C166.437 393.132 170.825 388.744 176.237 388.744C181.649 388.744 186.037 393.132 186.037 398.544C186.037 403.957 181.649 408.344 176.237 408.344Z" fill="#E1E4E5"/>
<path d="M289.565 155.611C285.446 155.611 282.107 152.272 282.107 148.153C282.107 144.034 285.446 140.695 289.565 140.695C293.684 140.695 297.023 144.034 297.023 148.153C297.023 152.272 293.684 155.611 289.565 155.611Z" fill="#E1E4E5"/>
<path d="M678.5 109C674.91 109 672 106.09 672 102.5C672 98.9101 674.91 96 678.5 96C682.09 96 685 98.9101 685 102.5C685 106.09 682.09 109 678.5 109Z" fill="#E1E4E5"/>
<path d="M205.884 241.709C206.948 245.681 204.591 249.764 200.618 250.828C196.646 251.893 192.563 249.536 191.499 245.563C190.435 241.591 192.792 237.508 196.764 236.444C200.736 235.38 204.819 237.737 205.884 241.709Z" fill="#E1E4E5"/>
<path d="M391.119 107.804C385.648 107.804 381.213 103.369 381.213 97.8982C381.213 92.4273 385.648 87.9922 391.119 87.9922C396.59 87.9922 401.025 92.4273 401.025 97.8982C401.025 103.369 396.59 107.804 391.119 107.804Z" fill="#E1E4E5"/>
<path d="M678.494 493.649C674.286 493.649 670.874 490.92 670.874 487.553C670.874 484.186 674.286 481.457 678.494 481.457C682.703 481.457 686.114 484.186 686.114 487.553C686.114 490.92 682.703 493.649 678.494 493.649Z" fill="#E1E4E5"/>
<path d="M594.334 64.7861C594.334 72.2867 588.253 78.3671 580.753 78.3671C573.252 78.3671 567.172 72.2867 567.172 64.7861C567.172 57.2855 573.252 51.2051 580.753 51.2051C588.253 51.2051 594.334 57.2855 594.334 64.7861Z" fill="#E1E4E5"/>
<path d="M820.182 319.286H820.381C821.562 336.01 834 336.268 834 336.268C834 336.268 820.284 336.536 820.284 355.861C820.284 336.536 806.568 336.268 806.568 336.268C806.568 336.268 819.002 336.01 820.182 319.286ZM257.621 75.4766H257.821C259.008 92.6286 271.514 92.8926 271.514 92.8926C271.514 92.8926 257.724 93.1666 257.724 112.986C257.724 93.1666 243.934 92.8926 243.934 92.8926C243.934 92.8926 256.434 92.6286 257.621 75.4766Z" fill="#E1E4E5"/>
</g>
<defs>
<linearGradient id="paint0_linear_1235_20925" x1="478.269" y1="738.321" x2="248.971" y2="-296.193" gradientUnits="userSpaceOnUse">
<stop stop-color="white"/>
<stop offset="1" stop-color="#EEEEEE"/>
</linearGradient>
<linearGradient id="paint1_linear_1235_20925" x1="765.689" y1="290.893" x2="845.252" y2="227.958" gradientUnits="userSpaceOnUse">
<stop stop-color="white"/>
<stop offset="1" stop-color="#EEEEEE"/>
</linearGradient>
<linearGradient id="paint2_linear_1235_20925" x1="262.399" y1="505.396" x2="132.989" y2="385.157" gradientUnits="userSpaceOnUse">
<stop stop-color="white"/>
<stop offset="1" stop-color="#EEEEEE"/>
</linearGradient>
<clipPath id="clip0_1235_20925">
<rect width="900" height="600" fill="white"/>
</clipPath>
</defs>
</svg>
