<svg width="900" height="600" viewBox="0 0 900 600" fill="none" xmlns="http://www.w3.org/2000/svg">
<g clip-path="url(#clip0_1235_20972)">
<path d="M172.819 333.884C177.031 357.516 201.557 378.299 201.557 378.299C201.557 378.299 221.664 349.548 217.453 325.917C213.225 302.281 199.83 284.906 187.501 287.113C175.176 289.305 168.608 310.253 172.819 333.884ZM226.82 374.935C210.38 392.419 208.354 424.496 208.354 424.496C208.354 424.496 243.412 423.483 259.856 405.983C276.3 388.483 282.232 367.365 273.098 358.792C263.98 350.224 243.26 357.451 226.82 374.935ZM207.175 496.006C206.435 500.107 206.143 502.98 206.066 503.711C206.061 503.794 206.044 503.858 206.051 503.894L206.047 503.91C206.047 503.91 206.063 503.914 206.067 503.898L206.183 503.912C206.563 503.895 207.699 503.858 209.416 503.755C218.6 503.162 244.275 500.3 257.889 486.358C274.656 469.183 280.974 448.151 272.018 439.422C263.067 430.677 242.214 437.51 225.447 454.684C217.943 462.381 213.262 473.035 210.405 482.489C209.059 486.926 207.98 491.44 207.175 496.006ZM155.812 418.3C176.699 430.124 208.35 424.512 208.35 424.512C208.35 424.512 199.041 390.677 178.154 378.853C157.266 367.029 135.341 366.273 129.166 377.158C122.986 388.059 134.924 406.476 155.812 418.3Z" fill="#E1E4E5"/>
<path d="M158.158 492.127C177.695 506.063 209.753 503.768 209.753 503.768C209.753 503.768 204.015 469.15 184.478 455.214C164.941 441.278 143.203 438.234 135.932 448.433C128.661 458.632 138.605 478.187 158.158 492.127Z" fill="#E1E4E5"/>
<path d="M197.419 368.591C197.533 368.929 206.781 401.587 203.601 484.64C203.371 490.721 203.064 497.087 202.689 503.709L203.092 503.732L206.051 503.893L206.056 503.877L206.072 503.882L206.187 503.896C206.567 503.878 207.703 503.841 209.42 503.738C209.845 496.294 210.172 489.216 210.409 482.472C213.417 399.936 204.279 368.075 203.875 366.653L197.419 368.591ZM715.663 275.541C709.983 307.412 676.906 335.442 676.906 335.442C676.906 335.442 649.789 296.667 655.468 264.796C661.17 232.919 679.235 209.487 695.863 212.464C712.485 215.419 721.343 243.67 715.663 275.541ZM642.835 330.904C665.006 354.484 667.74 397.745 667.74 397.745C667.74 397.745 620.458 396.379 598.281 372.777C576.104 349.176 568.104 320.694 580.422 309.134C592.719 297.578 620.663 307.324 642.835 330.904ZM669.329 494.187C670.328 499.717 670.722 503.592 670.824 504.577C670.832 504.69 670.855 504.776 670.845 504.825L670.851 504.846C670.851 504.846 670.829 504.852 670.823 504.831L670.667 504.849C670.155 504.826 668.623 504.776 666.308 504.637C653.922 503.837 619.294 499.977 600.934 481.175C578.322 458.012 569.801 429.647 581.879 417.875C593.95 406.081 622.075 415.295 644.687 438.458C654.808 448.838 661.12 463.207 664.973 475.957C666.789 481.941 668.244 488.028 669.329 494.187ZM738.6 389.388C710.43 405.334 667.745 397.766 667.745 397.766C667.745 397.766 680.299 352.135 708.469 336.188C736.639 320.242 766.208 319.221 774.536 333.902C782.87 348.603 766.77 373.441 738.6 389.388Z" fill="#E1E4E5"/>
<path d="M735.437 488.957C709.089 507.751 665.854 504.656 665.854 504.656C665.854 504.656 673.592 457.968 699.94 439.174C726.289 420.379 755.607 416.274 765.413 430.029C775.219 443.784 761.807 470.156 735.437 488.957Z" fill="#E1E4E5"/>
<path d="M682.488 322.35C682.334 322.805 669.862 366.85 674.15 478.86C674.461 487.06 674.875 495.646 675.381 504.576L674.837 504.607L670.846 504.825L670.84 504.803L670.818 504.809L670.662 504.828C670.15 504.804 668.618 504.755 666.303 504.616C665.754 495.061 665.309 485.501 664.969 475.936C660.913 364.623 673.236 321.653 673.781 319.736L682.488 322.35Z" fill="#E1E4E5"/>
<path d="M124.491 505.334H779.869" stroke="#E1E4E5" stroke-width="4.355"/>
<path d="M704.158 505.269H199.893C185.028 505.269 173.028 493.398 173.028 478.827V167.468C173.028 152.896 185.028 141.025 199.893 141.025H704.158C719.022 141.025 731.022 152.896 731.022 167.468V478.827C731.022 493.398 719.022 505.269 704.158 505.269Z" fill="white" stroke="#E1E4E5" stroke-width="4.355"/>
<path d="M298.432 210.154L219.847 210.299M350.344 186.488L219.369 186.729" stroke="#E1E4E5" stroke-width="4.355" stroke-linecap="round" stroke-linejoin="round"/>
<path d="M287.554 338.506H233.72C227.707 338.506 222.832 343.381 222.832 349.394V457.573C222.832 463.586 227.707 468.461 233.72 468.461H287.554C293.567 468.461 298.442 463.586 298.442 457.573V349.394C298.442 343.381 293.567 338.506 287.554 338.506Z" fill="#4F27AA"/>
<path d="M404.399 297.01H350.221C344.208 297.01 339.333 301.884 339.333 307.898V457.562C339.333 463.575 344.208 468.45 350.221 468.45H404.399C410.412 468.45 415.287 463.575 415.287 457.562V307.898C415.287 301.884 410.412 297.01 404.399 297.01Z" fill="#4F27AA"/>
<path d="M521.472 338.506H467.638C461.625 338.506 456.75 343.381 456.75 349.394V457.573C456.75 463.586 461.625 468.461 467.638 468.461H521.472C527.485 468.461 532.36 463.586 532.36 457.573V349.394C532.36 343.381 527.485 338.506 521.472 338.506Z" fill="#4F27AA"/>
<path d="M638.773 297.01H584.595C578.582 297.01 573.707 301.884 573.707 307.898V457.562C573.707 463.575 578.582 468.45 584.595 468.45H638.773C644.786 468.45 649.661 463.575 649.661 457.562V307.898C649.661 301.884 644.786 297.01 638.773 297.01Z" fill="#4F27AA"/>
<path d="M230.827 310.03L354.132 236.441L496.765 310.03L642.065 221.055" stroke="#E1E4E5" stroke-width="11.36" stroke-linecap="round" stroke-linejoin="round"/>
<path fill-rule="evenodd" clip-rule="evenodd" d="M758.009 159.778C758.009 195.991 730.792 229.85 694.213 238.072C657.634 229.85 630.417 195.991 630.417 159.778V131.333C630.416 128.167 631.359 125.072 633.124 122.443C634.889 119.814 637.398 117.771 640.329 116.573L680.202 100.257C689.181 96.5809 699.245 96.5809 708.224 100.257L748.097 116.573C751.028 117.772 753.535 119.816 755.3 122.444C757.065 125.073 758.008 128.167 758.009 131.333V159.778Z" fill="#4F27AA"/>
<path d="M720.13 151.35L690.226 181.255L672.283 163.312" stroke="white" stroke-width="11.024" stroke-linecap="round" stroke-linejoin="round"/>
<path d="M808.781 265.1C794.776 276.706 771.342 271.554 771.342 271.554C771.342 271.554 770.628 247.584 784.644 235.987C798.648 224.38 822.072 229.524 822.072 229.524C822.072 229.524 822.785 253.493 808.781 265.1Z" fill="url(#paint0_linear_1235_20972)"/>
<path d="M392.677 115.238C399.619 110.484 400.305 99.4071 400.305 99.4071C400.305 99.4071 389.735 96.0441 382.796 100.804C375.855 105.558 375.166 116.629 375.166 116.629C375.166 116.629 385.736 119.991 392.677 115.238Z" fill="url(#paint1_linear_1235_20972)"/>
<path d="M96.08 204.153C113.672 222.06 146.572 218.284 146.572 218.284C146.572 218.284 150.925 185.476 133.316 167.581C115.722 149.675 82.839 153.439 82.839 153.439C82.839 153.439 78.486 186.247 96.079 204.153H96.08Z" fill="url(#paint2_linear_1235_20972)"/>
<path d="M794.153 399.005C789.259 399.005 785.292 402.972 785.292 407.866C785.292 412.759 789.259 416.727 794.153 416.727C799.047 416.727 803.014 412.759 803.014 407.866C803.014 402.972 799.047 399.005 794.153 399.005Z" fill="#4F27AA"/>
<path d="M304.067 89.7627C297.176 89.7627 291.589 95.5924 291.589 102.784C291.589 109.975 297.176 115.805 304.067 115.805C310.958 115.805 316.545 109.975 316.545 102.784C316.545 95.5924 310.958 89.7627 304.067 89.7627Z" fill="#4F27AA"/>
<path d="M133 319C124.716 319 118 312.284 118 304C118 295.716 124.716 289 133 289C141.284 289 148 295.716 148 304C148 312.284 141.284 319 133 319Z" fill="#4F27AA"/>
<path d="M574.586 194.969C565.614 194.969 558.34 187.695 558.34 178.723C558.34 169.75 565.614 162.477 574.586 162.477C583.558 162.477 590.832 169.75 590.832 178.723C590.832 187.695 583.558 194.969 574.586 194.969Z" fill="#4F27AA"/>
<path d="M700.699 306.609C695.805 306.609 691.838 302.642 691.838 297.748C691.838 292.854 695.805 288.887 700.699 288.887C705.593 288.887 709.56 292.854 709.56 297.748C709.56 302.642 705.593 306.609 700.699 306.609Z" fill="#E1E4E5"/>
<path d="M142.387 391.411C139.091 391.411 136.419 388.739 136.419 385.443C136.419 382.147 139.091 379.475 142.387 379.475C145.683 379.475 148.355 382.147 148.355 385.443C148.355 388.739 145.683 391.411 142.387 391.411Z" fill="white"/>
<path d="M147.814 464.11C144.518 464.11 141.846 461.438 141.846 458.142C141.846 454.846 144.518 452.174 147.814 452.174C151.11 452.174 153.782 454.846 153.782 458.142C153.782 461.438 151.11 464.11 147.814 464.11Z" fill="white"/>
<path d="M752.196 349.092C748.9 349.092 746.228 346.42 746.228 343.124C746.228 339.828 748.9 337.156 752.196 337.156C755.492 337.156 758.164 339.828 758.164 343.124C758.164 346.42 755.492 349.092 752.196 349.092Z" fill="white"/>
<path d="M746.773 450.002C743.477 450.002 740.805 447.33 740.805 444.034C740.805 440.738 743.477 438.066 746.773 438.066C750.069 438.066 752.741 440.738 752.741 444.034C752.741 447.33 750.069 450.002 746.773 450.002Z" fill="white"/>
<path d="M171.322 123.277C167.14 123.277 163.75 119.887 163.75 115.705C163.75 111.523 167.14 108.133 171.322 108.133C175.504 108.133 178.894 111.523 178.894 115.705C178.894 119.887 175.504 123.277 171.322 123.277Z" fill="#E1E4E5"/>
<path d="M797.908 173.778C791.525 173.778 786.35 168.603 786.35 162.22C786.35 155.837 791.525 150.662 797.908 150.662C804.291 150.662 809.466 155.837 809.466 162.22C809.466 168.603 804.291 173.778 797.908 173.778Z" fill="#E1E4E5"/>
<path d="M84.6169 422.602C85.6975 426.635 83.3042 430.78 79.2712 431.861C75.2382 432.942 71.0927 430.548 70.0121 426.515C68.9315 422.482 71.3248 418.337 75.3578 417.256C79.3908 416.176 83.5362 418.569 84.6169 422.602Z" fill="#E1E4E5"/>
<path d="M428.99 201.495C423.436 201.495 418.933 196.992 418.933 191.438C418.933 185.884 423.436 181.381 428.99 181.381C434.544 181.381 439.047 185.884 439.047 191.438C439.047 196.992 434.544 201.495 428.99 201.495Z" fill="#E1E4E5"/>
<path d="M666.173 400.066C661.9 400.066 658.437 397.295 658.437 393.877C658.437 390.458 661.9 387.688 666.173 387.688C670.445 387.688 673.909 390.458 673.909 393.877C673.909 397.295 670.445 400.066 666.173 400.066Z" fill="white"/>
<path d="M813.999 471.22C807.749 474.269 800.731 472.741 798.324 467.807C795.916 462.872 799.032 456.4 805.282 453.351C811.532 450.302 818.55 451.83 820.958 456.765C823.365 461.699 820.25 468.171 813.999 471.22Z" fill="#E1E4E5"/>
<path d="M523.504 104.927C525.597 112.737 520.962 120.765 513.151 122.858C505.341 124.951 497.313 120.316 495.22 112.505C493.127 104.695 497.762 96.6667 505.573 94.5739C513.383 92.4811 521.411 97.1162 523.504 104.927Z" fill="#E1E4E5"/>
<path d="M807.261 327.874H807.464C808.662 344.854 821.29 345.116 821.29 345.116C821.29 345.116 807.365 345.387 807.365 365.008C807.365 345.387 793.44 345.116 793.44 345.116C793.44 345.116 806.063 344.854 807.261 327.874ZM595.479 93.9551H595.625C596.489 106.381 605.596 106.572 605.596 106.572C605.596 106.572 595.554 106.771 595.554 121.128C595.554 106.771 585.512 106.572 585.512 106.572C585.512 106.572 594.615 106.381 595.479 93.9551Z" fill="#E1E4E5"/>
<path d="M2 2H898V598H2V2Z" stroke="#E1E4E5" stroke-width="4"/>
</g>
<defs>
<linearGradient id="paint0_linear_1235_20972" x1="753.665" y1="303.999" x2="860.078" y2="169.687" gradientUnits="userSpaceOnUse">
<stop stop-color="white"/>
<stop offset="1" stop-color="#EEEEEE"/>
</linearGradient>
<linearGradient id="paint1_linear_1235_20972" x1="416.98" y1="95.6681" x2="343.725" y2="125.929" gradientUnits="userSpaceOnUse">
<stop stop-color="white"/>
<stop offset="1" stop-color="#EEEEEE"/>
</linearGradient>
<linearGradient id="paint2_linear_1235_20972" x1="166.274" y1="265.318" x2="39.084" y2="65.9361" gradientUnits="userSpaceOnUse">
<stop stop-color="white"/>
<stop offset="1" stop-color="#EEEEEE"/>
</linearGradient>
<clipPath id="clip0_1235_20972">
<rect width="900" height="600" fill="white"/>
</clipPath>
</defs>
</svg>
