<svg width="900" height="600" viewBox="0 0 900 600" fill="none" xmlns="http://www.w3.org/2000/svg">
<g clip-path="url(#clip0_1235_21010)">
<path fill-rule="evenodd" clip-rule="evenodd" d="M136 113C136 85.386 158.386 63 186 63H727.758C755.372 63 777.758 85.386 777.758 113V433.729C777.758 461.344 755.372 483.729 727.758 483.729H186C158.386 483.729 136 461.344 136 433.729V113Z" fill="white" stroke="#E1E4E5" stroke-width="4" stroke-linecap="round" stroke-linejoin="round"/>
<path fill-rule="evenodd" clip-rule="evenodd" d="M185.065 404C173.994 404 165.029 395.006 165.065 383.935L165.26 324.231C165.271 320.938 166.094 317.699 167.657 314.802L257.41 148.398C263.536 137.04 278.654 134.371 288.299 142.943L374.459 219.519C377.23 221.982 380.632 223.626 384.284 224.268C387.936 224.91 391.695 224.524 395.14 223.153L478.427 190.011C482.824 188.261 487.699 188.127 492.186 189.633L545.843 207.643C549.433 208.847 553.29 209.008 556.968 208.107C560.645 207.205 563.991 205.279 566.617 202.551L635.826 130.641C638.638 127.718 642.273 125.719 646.248 124.911L725.012 108.882C737.406 106.359 749 115.832 749 128.48V384C749 395.046 740.046 404 729 404H185.065Z" fill="white" stroke="#E1E4E5" stroke-width="4" stroke-linecap="round" stroke-linejoin="round"/>
<path fill-rule="evenodd" clip-rule="evenodd" d="M185.065 481C173.994 481 165.029 472.006 165.065 460.935L165.26 401.231C165.271 397.938 166.094 394.699 167.657 391.802L257.41 225.398C263.536 214.04 278.654 211.371 288.299 219.943L374.459 296.519C377.23 298.982 380.632 300.626 384.284 301.268C387.936 301.91 391.695 301.524 395.14 300.153L478.427 267.011C482.824 265.261 487.699 265.127 492.186 266.633L545.843 284.643C549.433 285.847 553.29 286.008 556.968 285.107C560.645 284.205 563.991 282.279 566.617 279.551L635.826 207.641C638.638 204.718 642.273 202.719 646.248 201.911L725.012 185.882C737.406 183.359 749 192.832 749 205.48V461C749 472.046 740.046 481 729 481H185.065Z" fill="white" stroke="#E1E4E5" stroke-width="4" stroke-linecap="round" stroke-linejoin="round"/>
<path fill-rule="evenodd" clip-rule="evenodd" d="M185.074 481C174 481 165.033 472 165.074 460.926L165.253 412.739C165.268 408.674 166.521 404.711 168.846 401.376L256.549 275.562C263.394 265.742 277.275 264.094 286.229 272.039L374.467 350.326C377.237 352.784 380.635 354.424 384.282 355.064C387.929 355.704 391.683 355.319 395.124 353.952L478.437 320.857C482.828 319.113 487.695 318.98 492.175 320.48L545.859 338.468C549.445 339.67 553.298 339.831 556.971 338.931C560.644 338.032 563.987 336.109 566.612 333.386L635.826 261.594C638.639 258.677 642.272 256.683 646.243 255.876L725.018 239.872C737.411 237.354 749 246.826 749 259.472V461C749 472.046 740.046 481 729 481H185.074Z" fill="white" stroke="#E1E4E5" stroke-width="4" stroke-linecap="round" stroke-linejoin="round"/>
<path fill-rule="evenodd" clip-rule="evenodd" d="M185 484.001C173.954 484.001 165 475.047 165 464.001V426.771C165 423.795 165.664 420.858 166.943 418.172C168.223 415.486 170.085 413.119 172.395 411.244L256.117 343.276C263.768 337.065 274.802 337.353 282.119 343.953L374.391 427.192C377.176 429.704 380.611 431.382 384.304 432.036C387.997 432.689 391.799 432.29 395.277 430.886L478.339 397.337C482.789 395.54 487.736 395.402 492.279 396.95L545.702 415.151C549.325 416.385 553.225 416.554 556.941 415.637C560.657 414.721 564.032 412.758 566.665 409.981L635.826 337.042C638.638 334.076 642.291 332.042 646.293 331.216L724.954 314.968C737.365 312.404 749 321.882 749 334.554V464.001C749 475.047 740.046 484.001 729 484.001H185Z" fill="white" stroke="#E1E4E5" stroke-width="4" stroke-linecap="round" stroke-linejoin="round"/>
<path fill-rule="evenodd" clip-rule="evenodd" d="M136 63H267.758V483.729H136V63Z" fill="white" stroke="#E1E4E5" stroke-width="4" stroke-linecap="round" stroke-linejoin="round"/>
<path d="M192.727 244.309H220.652M192.944 258.163H239.124M172.255 281.152L162.807 290.591L158.217 286.014M192.727 276.635H220.652M192.944 290.489H239.124M239.123 322.814H192.727M239.124 308.96H192.944" stroke="#E1E4E5" stroke-width="5.5" stroke-linecap="round" stroke-linejoin="round"/>
<path d="M165.236 327.433C166.449 327.433 167.65 327.194 168.77 326.73C169.891 326.266 170.909 325.585 171.767 324.728C172.624 323.87 173.305 322.852 173.769 321.731C174.233 320.611 174.472 319.41 174.472 318.197C174.472 316.984 174.233 315.783 173.769 314.662C173.305 313.542 172.624 312.524 171.767 311.666C170.909 310.808 169.891 310.128 168.77 309.664C167.65 309.2 166.449 308.961 165.236 308.961C162.81 308.997 160.495 309.985 158.792 311.714C157.09 313.442 156.135 315.771 156.135 318.197C156.135 320.623 157.09 322.952 158.792 324.68C160.495 326.408 162.81 327.397 165.236 327.433Z" stroke="#E1E4E5" stroke-width="5.5" stroke-linecap="round" stroke-linejoin="round"/>
<path fill-rule="evenodd" clip-rule="evenodd" d="M152 130C152 127.613 152.948 125.324 154.636 123.636C156.324 121.948 158.613 121 161 121H235C237.387 121 239.676 121.948 241.364 123.636C243.052 125.324 244 127.613 244 130C244 132.387 243.052 134.676 241.364 136.364C239.676 138.052 237.387 139 235 139H161C158.613 139 156.324 138.052 154.636 136.364C152.948 134.676 152 132.387 152 130ZM152 163C152 160.613 152.948 158.324 154.636 156.636C156.324 154.948 158.613 154 161 154H201C203.387 154 205.676 154.948 207.364 156.636C209.052 158.324 210 160.613 210 163C210 165.387 209.052 167.676 207.364 169.364C205.676 171.052 203.387 172 201 172H161C158.613 172 156.324 171.052 154.636 169.364C152.948 167.676 152 165.387 152 163ZM152 193C152 190.613 152.948 188.324 154.636 186.636C156.324 184.948 158.613 184 161 184H201C203.387 184 205.676 184.948 207.364 186.636C209.052 188.324 210 190.613 210 193C210 195.387 209.052 197.676 207.364 199.364C205.676 201.052 203.387 202 201 202H161C158.613 202 156.324 201.052 154.636 199.364C152.948 197.676 152 195.387 152 193ZM606 63H777.758V483.729H606V63Z" fill="white" stroke="#E1E4E5" stroke-width="4" stroke-linecap="round" stroke-linejoin="round"/>
<path fill-rule="evenodd" clip-rule="evenodd" d="M136 63H777.758V97.73H136V63Z" fill="white" stroke="#E1E4E5" stroke-width="4" stroke-linecap="round" stroke-linejoin="round"/>
<path d="M162 84.5C164.485 84.5 166.5 82.4853 166.5 80C166.5 77.5147 164.485 75.5 162 75.5C159.515 75.5 157.5 77.5147 157.5 80C157.5 82.4853 159.515 84.5 162 84.5Z" fill="#E1E4E5" stroke="#E1E4E5" stroke-linecap="round" stroke-linejoin="round"/>
<path d="M178 84.5C180.485 84.5 182.5 82.4853 182.5 80C182.5 77.5147 180.485 75.5 178 75.5C175.515 75.5 173.5 77.5147 173.5 80C173.5 82.4853 175.515 84.5 178 84.5Z" fill="#E1E4E5" stroke="#E1E4E5" stroke-linecap="round" stroke-linejoin="round"/>
<path d="M195 84.5C197.485 84.5 199.5 82.4853 199.5 80C199.5 77.5147 197.485 75.5 195 75.5C192.515 75.5 190.5 77.5147 190.5 80C190.5 82.4853 192.515 84.5 195 84.5Z" fill="#E1E4E5" stroke="#E1E4E5" stroke-linecap="round" stroke-linejoin="round"/>
<path d="M380.526 171.748C379.914 174.196 380.726 176.74 382.065 178.878C383.011 180.388 384.335 178.72 386.264 178.453C389.248 178.035 391.138 174.876 391.783 167.18C392.082 161.558 391.942 158.754 391.628 158.263C390.514 156.506 387.647 155.919 385.386 156.088" fill="#2E2445"/>
<path fill-rule="evenodd" clip-rule="evenodd" d="M385.944 506.256C385.944 506.256 385.762 517.813 392.896 521.919C400.03 526.025 411.082 533.653 411.082 533.653L369.038 535.07L370.237 506.152L385.944 506.256Z" fill="#F8AE9D"/>
<path fill-rule="evenodd" clip-rule="evenodd" d="M367.571 518.993L366.887 537.743H376.653L377.322 535.327C377.322 535.327 380.999 535.177 383.123 536.22C385.369 537.324 385.671 537.859 385.671 537.859L416.646 537.924C416.646 537.924 418.174 531.864 408.732 527.481C399.29 523.096 392.415 516.874 391.109 516.237C389.793 515.596 387.14 515.233 385.271 516.741C383.402 518.247 381.923 522.21 377.688 522.334C372.237 522.494 369.106 515.822 367.571 518.993ZM355.498 317.629C355.498 317.629 366.973 414.998 367.33 421.766C367.687 428.535 363.644 440.216 363.723 452.877C363.801 465.538 365.199 510.16 365.199 510.16L390.513 510.573C390.513 510.573 401.151 429.937 401.266 417.845C401.38 405.754 402.356 318.793 402.356 318.793L355.498 317.629Z" fill="#2E2445"/>
<path fill-rule="evenodd" clip-rule="evenodd" d="M324.539 504.226L319.606 534.184L337.792 534.093L338.367 503.756L324.539 504.226Z" fill="#F8AE9D"/>
<path fill-rule="evenodd" clip-rule="evenodd" d="M321.839 517.345C321.186 517.487 320.6 517.843 320.172 518.356C319.744 518.869 319.5 519.51 319.478 520.178L319.306 525.399C316.709 528.286 315.495 536.678 315.387 537.463C315.381 537.505 315.379 537.547 315.381 537.589C315.667 541.684 342.526 541.615 344.74 537.733C344.81 537.597 344.831 537.441 344.798 537.291C344.553 535.786 343.074 527.393 340.187 525.129L340.168 519.964C340.166 519.306 339.947 518.667 339.546 518.145C339.145 517.624 338.583 517.249 337.948 517.078L334.494 516.149C331.835 512.261 328.212 512.399 325.108 516.635L321.839 517.345ZM333.467 318.546C333.467 318.546 325.363 384.978 325.473 397.699C325.583 410.422 327.967 416.009 324.574 425.135C321.181 434.261 318.287 507.105 318.287 507.105L343.379 509.195C343.379 509.195 359.409 431.248 361.152 420.441C362.895 409.634 384.439 317.629 384.439 317.629L333.467 318.546Z" fill="#2E2445"/>
<path fill-rule="evenodd" clip-rule="evenodd" d="M458.586 199.102C458.586 199.102 456.491 187.427 457.244 185.063C457.888 183.019 463.969 180.073 463.969 180.073C463.969 180.073 474.547 163.364 476.861 165.065C478.745 166.445 471.353 178.763 471.353 178.763C471.353 178.763 478.093 185.835 477.999 188.996C477.905 192.157 466.998 202.053 466.998 202.053L458.586 199.102ZM349.873 201.845C349.873 201.845 356.839 200.21 357.081 188.795C357.322 177.381 357.153 173.485 357.153 173.485L373.668 173.208C373.668 173.208 373.835 185.929 373.838 190.53C373.844 200.548 381.283 203.254 381.283 203.254C381.283 203.254 380.665 214.207 366.761 214.989C355.905 215.6 349.873 201.845 349.873 201.845Z" fill="#F8AE9D"/>
<path fill-rule="evenodd" clip-rule="evenodd" d="M355.636 167.714C348.791 167.449 349.907 177.47 357.018 177.456C357.018 177.456 364.66 192.822 376.658 192.862C382.437 192.881 384.324 187.733 386.057 184.119C387.789 180.506 389.061 175.1 389.166 171.79C389.28 168.261 389.294 156.667 389.294 156.667L355.369 156.652L355.636 167.714Z" fill="#F8AE9D"/>
<path fill-rule="evenodd" clip-rule="evenodd" d="M381.544 202.575C381.544 202.575 399.335 208.128 403.623 214.763C417.434 226.896 434.708 243.559 434.708 243.559C434.708 243.559 451.16 202.268 456.539 197.561C460.219 194.34 467.551 198.323 468.917 202.416C470.672 207.673 459.404 238.511 454.082 253.075L454.081 253.078C453.051 255.898 452.243 258.108 451.797 259.403C448.552 268.818 440.656 274.218 431.047 268.234C427.174 265.822 415.648 257.918 405.815 250.753C405.661 258.28 405.402 266.212 405.156 273.746C404.558 292.049 404.037 307.998 405.289 310.07C411.491 320.342 403.245 327.394 375.943 329.985C348.641 332.576 324.419 330.454 328.814 316.746C329.731 313.889 329.719 307.741 329.262 299.753C326.587 299.61 323.914 299.434 321.244 299.224C309.85 298.326 301.423 293.431 300.248 280.715C299.424 271.811 316.388 230.008 322.749 216.263C324.237 213.047 326.538 211.045 329.145 210.046C329.751 209.369 330.435 208.894 331.203 208.641C335.875 207.101 352.628 200.062 352.628 200.062L372.558 213.101L381.544 202.575ZM327.416 276.159C327.401 276.198 327.387 276.236 327.372 276.275L327.427 276.282L327.416 276.159Z" fill="#4F27AA"/>
<path fill-rule="evenodd" clip-rule="evenodd" d="M371.637 287.192C371.637 287.192 377.716 285.97 380.204 284.017C382.691 282.064 390.225 280.684 390.225 280.684L387.815 285.759C387.815 285.759 406.28 284.026 406.717 285.848C407.155 287.669 401.814 289.649 401.814 289.649C401.814 289.649 399.18 294.569 396.631 297.42C394.218 300.119 382.233 299.798 378.031 298.114C374.401 296.659 370.453 297.386 370.453 297.386L371.637 287.192Z" fill="#F8AE9D"/>
<path d="M357.498 157.125C358.498 158.434 360.261 158.722 361.714 158.981C363.667 159.329 364.633 160.054 365.647 161.999C366.289 163.242 366.931 164.603 368.079 165.276C369.015 165.827 368.987 164.434 369.125 163.357C369.137 163.256 369.157 163.156 369.184 163.058C369.407 162.197 370.321 162.341 370.586 163.19C370.829 163.96 371.35 164.611 372.012 164.973C372.12 165.032 372.235 165.084 372.35 165.062C372.505 165.04 372.627 164.892 372.728 164.759C372.939 164.482 373.148 164.131 373.365 163.759C374.08 162.53 375.443 162.961 376.242 164.137C376.742 164.87 377.337 165.624 378.154 165.794C378.418 165.853 378.749 165.809 378.87 165.55C379.026 165.232 378.783 164.914 378.823 164.589C378.857 164.285 378.985 164.152 379.127 163.893C379.681 162.895 380.963 162.858 381.745 163.69C382.289 164.269 382.856 164.826 383.445 165.358C383.695 165.58 384.06 165.802 384.31 165.58C384.445 165.461 384.479 165.262 384.506 165.069C384.648 164.13 384.783 163.19 384.925 162.251C385.006 161.726 385.283 161.038 385.756 161.171C385.986 161.238 386.121 161.482 386.249 161.704C386.405 161.985 389.182 165.188 389.236 164.944C389.668 163.124 390.554 161.467 390.986 159.647C393.784 147.937 381.371 138.521 371.89 138.469C369.782 138.454 367.856 138.489 365.809 138.984C363.626 139.517 361.322 140.362 359.342 141.553C356.565 143.218 354.464 146.243 355.004 149.853" fill="#2E2445"/>
<path d="M365.207 153.341C366.544 154.87 366.898 157.021 367.022 159.053C367.206 162.118 366.957 165.301 365.555 168.022C365.155 168.796 364.86 172.629 364.244 172.417C364.047 172.351 364.08 169.379 363.562 167.777C362.763 165.295 359.08 164.348 357.422 165.917C354.775 168.412 356.328 171.444 357.206 173.33C357.73 174.469 358.562 175.746 358.707 176.951C358.883 178.493 358.936 184.113 357.94 185.423C357.108 186.522 356.223 181.214 355.469 180.168C349.893 172.377 344.545 152.54 354.067 148.237C355.515 147.582 359.984 147.244 361.341 148.078" fill="#2E2445"/>
<path d="M687.626 138H548C536.954 138 528 146.954 528 158V336.544C528 347.59 536.954 356.544 548 356.544H687.626C698.672 356.544 707.626 347.59 707.626 336.544V158C707.626 146.954 698.672 138 687.626 138Z" fill="white" stroke="#E1E4E5" stroke-width="4" stroke-linecap="round" stroke-linejoin="round"/>
<mask id="mask0_1235_21010" style="mask-type:alpha" maskUnits="userSpaceOnUse" x="526" y="136" width="184" height="223">
<path d="M528 138H707.626V356.544H528V138Z" fill="white" stroke="white" stroke-width="4" stroke-linecap="round" stroke-linejoin="round"/>
</mask>
<g mask="url(#mask0_1235_21010)">
<path d="M669.5 297H566.5C562.91 297 560 299.91 560 303.5C560 307.09 562.91 310 566.5 310H669.5C673.09 310 676 307.09 676 303.5C676 299.91 673.09 297 669.5 297Z" fill="white" stroke="#E1E4E5" stroke-width="4" stroke-linecap="round" stroke-linejoin="round"/>
<path d="M668.5 270H567.5C563.358 270 560 273.358 560 277.5C560 281.642 563.358 285 567.5 285H668.5C672.642 285 676 281.642 676 277.5C676 273.358 672.642 270 668.5 270Z" fill="white" stroke="#E1E4E5" stroke-width="4" stroke-linecap="round" stroke-linejoin="round"/>
<path d="M668.5 322H567.5C563.358 322 560 325.358 560 329.5C560 333.642 563.358 337 567.5 337H668.5C672.642 337 676 333.642 676 329.5C676 325.358 672.642 322 668.5 322Z" fill="white" stroke="#E1E4E5" stroke-width="4" stroke-linecap="round" stroke-linejoin="round"/>
<path d="M581.5 153H550.5C547.462 153 545 155.462 545 158.5C545 161.538 547.462 164 550.5 164H581.5C584.538 164 587 161.538 587 158.5C587 155.462 584.538 153 581.5 153Z" fill="white" stroke="#E1E4E5" stroke-width="4" stroke-linecap="round" stroke-linejoin="round"/>
<path fill-rule="evenodd" clip-rule="evenodd" d="M617.933 176C638.666 176 655.474 192.808 655.474 213.542C655.474 234.275 638.666 251.083 617.933 251.083C597.199 251.083 580.391 234.275 580.391 213.542C580.391 192.808 597.199 176 617.933 176ZM618.187 196.208C608.473 196.208 600.599 204.082 600.599 213.796C600.599 223.51 608.473 231.385 618.187 231.385C627.901 231.385 635.775 223.51 635.775 213.796C635.775 204.082 627.901 196.208 618.187 196.208Z" fill="#4F27AA"/>
</g>
</g>
<defs>
<clipPath id="clip0_1235_21010">
<rect width="900" height="600" fill="white"/>
</clipPath>
</defs>
</svg>
