<svg width="900" height="600" viewBox="0 0 900 600" fill="none" xmlns="http://www.w3.org/2000/svg">
<g clip-path="url(#clip0_1235_21046)">
<path opacity="0.76" fill-rule="evenodd" clip-rule="evenodd" d="M696 212.5C696 123.858 624.142 52 535.5 52C446.858 52 375 123.858 375 212.5C375 301.142 446.858 373 535.5 373C624.142 373 696 301.142 696 212.5ZM435 212.5C435 156.995 479.995 112 535.5 112C591.005 112 636 156.995 636 212.5C636 268.005 591.005 313 535.5 313C479.995 313 435 268.005 435 212.5Z" fill="url(#paint0_linear_1235_21046)"/>
<path opacity="0.76" fill-rule="evenodd" clip-rule="evenodd" d="M584 334.5C584 309.371 563.629 289 538.5 289C513.371 289 493 309.371 493 334.5C493 359.629 513.371 380 538.5 380C563.629 380 584 359.629 584 334.5ZM523 334.5C523 325.94 529.94 319 538.5 319C547.06 319 554 325.94 554 334.5C554 343.06 547.06 350 538.5 350C529.94 350 523 343.06 523 334.5Z" fill="url(#paint1_linear_1235_21046)"/>
<path d="M194.5 223C210.24 223 223 210.24 223 194.5C223 178.76 210.24 166 194.5 166C178.76 166 166 178.76 166 194.5C166 210.24 178.76 223 194.5 223Z" fill="url(#paint2_linear_1235_21046)"/>
<path d="M288 144C305.673 144 320 129.673 320 112C320 94.3269 305.673 80 288 80C270.327 80 256 94.3269 256 112C256 129.673 270.327 144 288 144Z" fill="url(#paint3_linear_1235_21046)"/>
<g filter="url(#filter0_f_1235_21046)">
<path d="M665 459C682.673 459 697 444.673 697 427C697 409.327 682.673 395 665 395C647.327 395 633 409.327 633 427C633 444.673 647.327 459 665 459Z" fill="url(#paint4_linear_1235_21046)"/>
</g>
<path d="M706.859 314.23H357.141C346.784 314.23 339 307.234 339 299.304V115.157C339 107.226 346.784 100.23 357.141 100.23H706.859C717.216 100.23 725 107.226 725 115.157V299.304C725 307.234 717.216 314.23 706.859 314.23Z" fill="white" stroke="#E1E4E5" stroke-width="4"/>
<path fill-rule="evenodd" clip-rule="evenodd" d="M370.59 162.215V230.809C370.59 234.533 373.571 237.548 377.252 237.548H417.631L435.256 212.424C436.097 211.226 438.198 211.226 439.038 212.424L445.209 221.222L445.257 221.29L445.299 221.23L458.533 202.014C459.448 200.684 461.742 200.684 462.657 202.014L480.184 227.466V162.215C480.184 158.492 477.195 155.477 473.521 155.477H377.252C373.571 155.477 370.59 158.492 370.59 162.215Z" fill="#4F27AA"/>
<path d="M401.497 202.194C395.068 202.194 389.856 196.982 389.856 190.553C389.856 184.124 395.068 178.912 401.497 178.912C407.926 178.912 413.137 184.124 413.137 190.553C413.137 196.982 407.926 202.194 401.497 202.194Z" fill="white"/>
<path d="M725 123.465H339V118.141C339 108.124 347.124 100 357.141 100H706.859C716.876 100 725 108.124 725 118.141V123.465Z" fill="white" stroke="#E1E4E5" stroke-width="4"/>
<path d="M357.178 116.941C358.325 116.941 359.426 116.485 360.237 115.674C361.048 114.863 361.504 113.762 361.504 112.615C361.504 111.468 361.048 110.367 360.237 109.556C359.426 108.745 358.325 108.289 357.178 108.289C356.031 108.289 354.93 108.745 354.119 109.556C353.308 110.367 352.852 111.468 352.852 112.615C352.852 113.762 353.308 114.863 354.119 115.674C354.93 116.485 356.031 116.941 357.178 116.941ZM375.201 116.941C376.348 116.941 377.448 116.485 378.259 115.674C379.07 114.863 379.526 113.763 379.526 112.616C379.526 111.469 379.07 110.369 378.259 109.558C377.448 108.747 376.348 108.291 375.201 108.291C374.054 108.291 372.954 108.747 372.143 109.558C371.332 110.369 370.876 111.469 370.876 112.616C370.876 113.763 371.332 114.863 372.143 115.674C372.954 116.485 374.054 116.941 375.201 116.941ZM392.503 116.941C393.65 116.941 394.751 116.485 395.562 115.674C396.373 114.863 396.829 113.762 396.829 112.615C396.829 111.468 396.373 110.367 395.562 109.556C394.751 108.745 393.65 108.289 392.503 108.289C391.356 108.289 390.255 108.745 389.444 109.556C388.633 110.367 388.177 111.468 388.177 112.615C388.177 113.762 388.633 114.863 389.444 115.674C390.255 116.485 391.356 116.941 392.503 116.941Z" fill="#E1E4E5"/>
<path d="M686.708 155.477H504.576C500.66 155.477 497.485 158.651 497.485 162.568C497.485 166.484 500.66 169.659 504.576 169.659H686.708C690.624 169.659 693.799 166.484 693.799 162.568C693.799 158.651 690.624 155.477 686.708 155.477Z" fill="#E1E4E5"/>
<path d="M686.708 188.32H504.576C500.66 188.32 497.485 191.495 497.485 195.411C497.485 199.328 500.66 202.502 504.576 202.502H686.708C690.624 202.502 693.799 199.328 693.799 195.411C693.799 191.495 690.624 188.32 686.708 188.32Z" fill="#E1E4E5"/>
<path d="M676 221H504C500.134 221 497 224.134 497 228C497 231.866 500.134 235 504 235H676C679.866 235 683 231.866 683 228C683 224.134 679.866 221 676 221Z" fill="#E1E4E5"/>
<path d="M686.708 254.006H504.576C500.66 254.006 497.485 257.181 497.485 261.097C497.485 265.013 500.66 268.188 504.576 268.188H686.708C690.624 268.188 693.799 265.013 693.799 261.097C693.799 257.181 690.624 254.006 686.708 254.006Z" fill="#E1E4E5"/>
<path fill-rule="evenodd" clip-rule="evenodd" d="M286.071 415.087C286.659 415.004 287.258 415.039 287.832 415.189C288.406 415.339 288.945 415.602 289.417 415.963C289.889 416.323 290.284 416.774 290.581 417.289C290.877 417.803 291.068 418.372 291.142 418.961L306.876 543.134C307.023 544.292 306.705 545.461 305.991 546.384C305.276 547.307 304.224 547.908 303.067 548.055C301.909 548.203 300.74 547.884 299.817 547.17C298.894 546.456 298.292 545.404 298.145 544.246L282.251 420.094C282.101 418.925 282.418 417.743 283.133 416.806C283.848 415.869 284.904 415.251 286.071 415.087Z" fill="white" stroke="#E1E4E5" stroke-width="4" stroke-linecap="round" stroke-linejoin="round"/>
<path fill-rule="evenodd" clip-rule="evenodd" d="M287.87 415.087C287.282 415.004 286.683 415.039 286.109 415.189C285.535 415.34 284.996 415.603 284.524 415.963C284.052 416.324 283.656 416.774 283.36 417.289C283.064 417.804 282.873 418.372 282.798 418.961L267.064 543.134C266.917 544.292 267.235 545.461 267.95 546.384C268.664 547.307 269.716 547.909 270.874 548.056C272.032 548.203 273.201 547.885 274.124 547.17C275.047 546.456 275.649 545.404 275.796 544.246L291.69 420.094C291.84 418.925 291.523 417.744 290.808 416.806C290.093 415.869 289.037 415.252 287.87 415.087ZM335.37 415.087C335.958 415.004 336.557 415.039 337.131 415.189C337.705 415.34 338.244 415.603 338.716 415.963C339.188 416.324 339.584 416.774 339.88 417.289C340.176 417.804 340.367 418.372 340.442 418.961L356.176 543.134C356.323 544.292 356.005 545.461 355.29 546.384C354.576 547.307 353.524 547.909 352.366 548.056C351.208 548.203 350.039 547.885 349.116 547.17C348.193 546.456 347.591 545.404 347.444 544.246L331.55 420.094C331.4 418.925 331.717 417.744 332.432 416.806C333.147 415.869 334.203 415.252 335.37 415.087ZM236.223 415.087C235.635 415.004 235.036 415.039 234.462 415.189C233.887 415.339 233.348 415.602 232.877 415.963C232.405 416.323 232.009 416.774 231.713 417.289C231.417 417.803 231.226 418.372 231.151 418.961L215.417 543.134C215.27 544.292 215.588 545.461 216.302 546.384C217.017 547.307 218.069 547.908 219.227 548.055C219.8 548.128 220.382 548.088 220.939 547.936C221.497 547.784 222.019 547.524 222.476 547.17C223.399 546.456 224.001 545.404 224.148 544.246L240.043 420.094C240.193 418.925 239.876 417.744 239.161 416.806C238.446 415.869 237.39 415.252 236.223 415.087Z" fill="white" stroke="#E1E4E5" stroke-width="4" stroke-linecap="round" stroke-linejoin="round"/>
<path fill-rule="evenodd" clip-rule="evenodd" d="M346.365 435.467C354.079 435.467 360.333 429.213 360.333 421.499C360.333 413.784 354.079 407.531 346.365 407.531H315.922C293.008 407.531 273.855 390.097 271.707 367.283L266.664 313.728C265.017 296.238 250.334 282.873 232.767 282.873C212.934 282.873 197.299 299.757 198.82 319.531L204.187 389.302C206.191 415.352 227.913 435.467 254.04 435.467H346.365Z" fill="white" stroke="#E1E4E5" stroke-width="4" stroke-linecap="round" stroke-linejoin="round"/>
<path fill-rule="evenodd" clip-rule="evenodd" d="M360.333 421.164C360.332 421.222 360.309 421.277 360.268 421.318C360.227 421.359 360.172 421.382 360.114 421.382H268.115C241.993 421.382 220.272 401.272 218.263 375.227L212.907 305.79C212.785 304.208 212.772 302.619 212.869 301.035C213.463 291.395 221.419 283.487 231.061 282.93C231.721 282.892 232.387 282.873 233.057 282.873C250.579 282.873 265.224 296.2 266.871 313.644L271.913 367.034C274.062 389.79 293.168 407.176 316.025 407.176H346.401C354.095 407.176 360.333 413.414 360.333 421.108V421.164Z" fill="white"/>
<path d="M218.263 375.227L216.269 375.381L218.263 375.227ZM212.907 305.79L214.901 305.637L212.907 305.79ZM266.871 313.644L268.863 313.456L266.871 313.644ZM271.913 367.034L273.904 366.846L271.913 367.034ZM231.061 282.93L231.176 284.927L231.061 282.93ZM360.333 421.164L362.333 421.172L360.333 421.164ZM268.115 419.382H360.114V423.382H268.115V419.382ZM220.257 375.073C222.186 400.077 243.037 419.382 268.115 419.382V423.382C240.948 423.382 218.359 402.468 216.269 375.381L220.257 375.073ZM214.901 305.637L220.257 375.073L216.269 375.381L210.913 305.944L214.901 305.637ZM214.865 301.158C214.774 302.65 214.786 304.147 214.901 305.637L210.913 305.944C210.783 304.27 210.77 302.588 210.873 300.912L214.865 301.158ZM233.057 284.873C232.426 284.873 231.798 284.891 231.176 284.927L230.946 280.933C231.644 280.893 232.349 280.873 233.057 280.873V284.873ZM264.88 313.832C263.33 297.416 249.547 284.873 233.057 284.873V280.873C251.61 280.873 267.118 294.985 268.863 313.456L264.88 313.832ZM269.922 367.222L264.88 313.832L268.863 313.456L273.904 366.846L269.922 367.222ZM316.025 409.176C292.136 409.176 272.168 391.005 269.922 367.222L273.904 366.846C275.956 388.574 294.2 405.176 316.025 405.176V409.176ZM346.401 409.176H316.025V405.176H346.401V409.176ZM358.333 421.108C358.333 414.518 352.991 409.176 346.401 409.176V405.176C355.2 405.176 362.333 412.309 362.333 421.108H358.333ZM358.333 421.156V421.108H362.333V421.172L358.333 421.156ZM210.873 300.912C211.529 290.259 220.295 281.549 230.946 280.933L231.176 284.927C222.543 285.425 215.397 292.531 214.865 301.158L210.873 300.912ZM360.114 419.382C359.133 419.382 358.337 420.175 358.333 421.156L362.333 421.172C362.331 421.759 362.096 422.321 361.68 422.735C361.264 423.15 360.701 423.382 360.114 423.382V419.382Z" fill="#E1E4E5"/>
<path d="M676.245 357.411C677.192 357.411 677.953 356.65 677.968 355.717C678.298 337.717 663.872 329.922 663.254 329.592C662.847 329.379 662.372 329.337 661.933 329.474C661.494 329.611 661.128 329.917 660.915 330.324C660.703 330.73 660.659 331.203 660.793 331.641C660.927 332.079 661.229 332.446 661.632 332.664C661.661 332.678 665.006 334.473 668.235 338.219C672.513 343.171 674.623 349.042 674.494 355.66C674.487 356.118 674.661 356.56 674.978 356.89C675.296 357.221 675.73 357.413 676.188 357.425C676.216 357.411 676.231 357.411 676.245 357.411ZM681.814 312.726C681.814 312.726 701.896 274.845 629.851 248.29C626.134 246.926 622.373 250.199 623.263 254.06C627.813 273.783 642.727 319.889 681.814 312.726Z" fill="#4F27AA"/>
<path d="M701.58 353.978C701.666 353.978 701.752 353.978 701.824 353.964C702.049 353.931 702.266 353.854 702.462 353.738C702.657 353.621 702.828 353.467 702.964 353.284C703.1 353.102 703.198 352.894 703.254 352.673C703.31 352.452 703.321 352.223 703.288 351.997C698.293 317.533 672.613 301.513 669.713 299.791C668.895 299.303 667.819 299.561 667.331 300.379C667.095 300.771 667.025 301.241 667.135 301.685C667.245 302.13 667.527 302.512 667.919 302.748L667.962 302.762C669.182 303.48 675.584 307.442 682.474 315.164C691.977 325.844 697.833 338.389 699.872 352.471C700.001 353.361 700.733 353.978 701.58 353.978Z" fill="#4F27AA"/>
<path d="M691.002 353.979H691.088C691.546 353.955 691.976 353.752 692.285 353.414C692.594 353.075 692.757 352.629 692.739 352.171C692.05 337.429 701.409 323.979 701.495 323.835C701.757 323.459 701.86 322.995 701.782 322.544C701.704 322.092 701.452 321.69 701.079 321.424C700.703 321.161 700.239 321.058 699.787 321.136C699.336 321.214 698.933 321.467 698.667 321.84C698.251 322.428 688.533 336.41 689.28 352.328C689.298 352.772 689.488 353.192 689.809 353.5C690.13 353.807 690.557 353.979 691.002 353.979ZM686.035 356.52H686.078C686.305 356.514 686.53 356.463 686.737 356.371C686.945 356.278 687.133 356.145 687.289 355.98C687.445 355.814 687.567 355.619 687.647 355.406C687.727 355.194 687.765 354.967 687.757 354.74L686.279 298.658C686.273 298.43 686.223 298.206 686.13 297.998C686.038 297.79 685.905 297.603 685.739 297.447C685.574 297.29 685.379 297.168 685.166 297.088C684.953 297.007 684.726 296.97 684.499 296.978C684.272 296.983 684.047 297.034 683.84 297.126C683.632 297.219 683.444 297.352 683.288 297.517C683.132 297.683 683.01 297.878 682.93 298.091C682.85 298.303 682.812 298.53 682.82 298.758L684.298 354.826C684.311 355.278 684.5 355.708 684.824 356.024C685.148 356.34 685.582 356.518 686.035 356.52Z" fill="#4F27AA"/>
<path d="M698.064 324.798C698.064 324.798 738.93 337.789 752.179 262.141C752.868 258.237 748.964 255.137 745.318 256.701C726.729 264.696 684.025 287.62 698.064 324.798ZM671.594 339.353C671.594 339.353 634.862 361.473 604.416 290.965C602.852 287.333 605.923 283.4 609.828 284.075C629.766 287.549 676.618 299.936 671.594 339.353Z" fill="#4F27AA"/>
<path d="M678.326 318.05C681.168 323.936 689.752 323.29 691.704 317.046C700.417 289.227 715.016 230.26 684.785 223.484C650.881 215.891 662.235 284.777 678.326 318.05Z" fill="#4F27AA"/>
<path d="M685.303 321.826H685.346C685.595 321.815 685.83 321.706 685.999 321.523C686.169 321.34 686.259 321.098 686.25 320.849L683.064 242.001C683.06 241.877 683.031 241.755 682.98 241.643C682.929 241.53 682.855 241.429 682.765 241.345C682.674 241.261 682.567 241.196 682.451 241.153C682.335 241.11 682.212 241.091 682.088 241.097C681.839 241.107 681.604 241.215 681.434 241.398C681.265 241.581 681.175 241.823 681.183 242.073L684.356 320.921C684.37 321.424 684.786 321.826 685.303 321.826ZM670.576 339.467C670.716 339.467 670.854 339.437 670.981 339.377C671.107 339.318 671.219 339.231 671.308 339.123C671.638 338.721 671.581 338.118 671.179 337.802L627.513 302.06C627.111 301.73 626.508 301.787 626.192 302.189C626.113 302.284 626.054 302.393 626.018 302.511C625.982 302.629 625.97 302.753 625.982 302.876C625.994 302.999 626.03 303.118 626.088 303.227C626.146 303.335 626.225 303.432 626.321 303.51L669.987 339.252C670.153 339.389 670.361 339.465 670.576 339.467Z" fill="#2E2445"/>
<path d="M651.954 350.275C646.078 350.275 641.704 355.701 642.952 361.442L643.755 365.074L645.435 372.782L646.224 376.428L646.5 377.687C650.471 395.85 666.554 408.797 685.146 408.797C703.738 408.797 719.822 395.85 723.793 377.687L724.068 376.428L724.857 372.782L726.537 365.074L727.326 361.442C728.58 355.704 724.209 350.275 718.335 350.275H651.954ZM734.444 491.959H633.864C633.711 491.96 633.56 491.931 633.418 491.873C633.277 491.814 633.148 491.729 633.04 491.621C632.932 491.513 632.846 491.384 632.788 491.243C632.73 491.102 632.7 490.95 632.701 490.797V484.969C632.701 484.323 633.218 483.806 633.864 483.806H734.458C735.104 483.806 735.621 484.323 735.621 484.969V490.797C735.617 491.107 735.491 491.402 735.271 491.62C735.051 491.837 734.753 491.959 734.444 491.959Z" fill="white" stroke="#E1E4E5" stroke-width="4" stroke-linecap="round" stroke-linejoin="round"/>
<path d="M660.759 410.715C665.556 410.715 668.979 415.365 667.554 419.945L628.547 545.686C628.242 546.658 627.577 547.476 626.687 547.973C625.797 548.469 624.751 548.605 623.764 548.354C622.777 548.102 621.923 547.482 621.38 546.62C620.836 545.758 620.643 544.721 620.841 543.722L645.176 422.572L645.864 419.148C646.342 416.769 647.629 414.63 649.506 413.092C651.383 411.555 653.734 410.715 656.16 410.715H660.759ZM747.914 543.722C748.117 544.723 747.928 545.765 747.385 546.63C746.841 547.496 745.986 548.119 744.996 548.372C744.006 548.624 742.956 548.486 742.065 547.986C741.174 547.486 740.509 546.662 740.208 545.686L700.01 416.141C699.176 413.447 701.19 410.715 704.01 410.715H718.252C719.958 410.715 721.428 411.915 721.771 413.586L747.914 543.722Z" fill="white" stroke="#E1E4E5" stroke-width="4" stroke-linecap="round" stroke-linejoin="round"/>
<path d="M637.879 409.279H731.306C732.861 409.279 734.115 410.964 734.115 413.052V428.472C734.115 430.56 732.861 432.246 731.306 432.246H637.879C636.325 432.246 635.071 430.56 635.071 428.472V413.052C635.071 410.964 636.325 409.279 637.879 409.279Z" fill="white" stroke="#E1E4E5" stroke-width="4" stroke-linecap="round" stroke-linejoin="round"/>
<path fill-rule="evenodd" clip-rule="evenodd" d="M369.928 500.533C369.928 500.533 362.148 516.248 368.526 521.2C374.914 526.153 391.788 535.435 391.788 535.435L347.084 532.626L357.021 498.352L369.928 500.533Z" fill="#F8AE9D"/>
<path fill-rule="evenodd" clip-rule="evenodd" d="M351.511 514.753C352.918 515.425 350.605 521.739 355.555 521.295C360.503 520.853 363.61 514.326 367.259 514.75C370.909 515.173 373.226 521.745 380.174 526.323C387.121 530.902 397.422 536.362 396.732 540.966C396.042 545.569 379.832 546.802 371.619 545.278C363.407 543.755 359.574 540.454 354.246 540.717C348.918 540.98 345.57 540.328 343.899 536.907C342.23 533.485 349.888 513.978 351.511 514.753ZM302.585 362.024C316.119 362.628 391.445 379.289 405.13 382.119C418.816 384.95 430.386 400.266 419.95 418.001C408.229 437.909 377.987 494.449 370.644 507.195C367.01 513.503 348.675 509.966 352.982 499.378C361.01 479.639 364.739 430.054 385.207 411.975C385.207 411.975 316.371 423.955 286.637 410.232C265.027 400.257 269.916 360.563 302.585 362.024Z" fill="#2E2445"/>
<path fill-rule="evenodd" clip-rule="evenodd" d="M396.998 277.544C396.998 277.544 396.845 269.498 400.697 263.743C404.549 257.988 404.702 251.875 407.618 252.075C410.533 252.275 407.646 266.484 407.646 266.484C407.646 266.484 411.345 265.071 414.002 263.283C416.66 261.496 424.717 252.684 426.6 254.245C429.793 256.906 424.65 271.914 421.85 274.915C419.04 277.916 405.172 286.303 405.172 286.303L364.332 327.447L358.226 305.605L396.998 277.544Z" fill="#F8AE9D"/>
<path fill-rule="evenodd" clip-rule="evenodd" d="M315.309 273.911C321.605 288.513 333.132 315.338 337.885 323.341C343.84 333.363 353.231 337.779 364.227 330.343C366.527 328.787 373.134 323.345 373.134 323.345C372.157 313.82 368.598 305.858 362.463 299.457L358.297 302.904C358.297 302.904 346.482 272.616 336.978 255.071C328.746 239.892 305.726 251.713 315.309 273.911ZM288.1 217.231V230.152L278.612 222.512C278.612 222.512 275.695 210.133 273.323 200.939C271.836 195.173 268.212 175.66 282.801 176.574C294.752 155.507 329.558 168.546 329.835 194.284C330.168 225.24 329.896 237.293 329.896 237.293C310.214 238.422 299.136 235.577 288.1 217.231Z" fill="#2E2445"/>
<path fill-rule="evenodd" clip-rule="evenodd" d="M278.407 241.832C278.407 241.832 287.234 239.76 287.54 225.297C287.846 210.835 287.631 205.898 287.631 205.898L307.074 205.547C307.074 205.547 307.285 221.666 307.288 227.496C307.297 241.671 317.721 242.833 317.721 242.833C317.721 242.833 315.939 254.529 298.322 255.519C284.567 256.294 278.407 241.832 278.407 241.832Z" fill="#F8AE9D"/>
<path fill-rule="evenodd" clip-rule="evenodd" d="M283.099 198.675C274.426 198.339 275.84 211.036 284.85 211.019C284.85 211.019 290.083 229.055 308.251 229.055C323.006 229.055 323.966 208.034 324.1 203.84C324.244 199.369 324.262 184.679 324.262 184.679L282.761 184.66L283.099 198.675Z" fill="#F8AE9D"/>
<path fill-rule="evenodd" clip-rule="evenodd" d="M282.428 198.593C286.022 199.185 285.586 201.565 286.563 201.357C291.526 200.302 311.615 201.694 314.202 190.647C317.42 197.548 318.207 199.245 325.294 201.098V180.874L280.469 176.574C280.469 176.574 281.164 198.383 282.428 198.593Z" fill="#2E2445"/>
<path fill-rule="evenodd" clip-rule="evenodd" d="M280.379 240.354C291.456 247.138 304.262 249.625 316.182 242.258C335.636 280.617 340.484 326.384 335.805 376.968C307.438 388.199 283.596 385.99 263.299 373.154L280.379 240.354Z" fill="#4F27AA"/>
<path fill-rule="evenodd" clip-rule="evenodd" d="M418.419 501.164C418.419 501.164 418.184 519.66 433.425 526.576C448.657 533.491 459.509 533.074 458.128 538.421C456.747 543.766 417.1 543.55 413.398 539.369C410.242 535.813 403.38 502.694 401.49 505.226L418.419 501.164Z" fill="#F8AE9D"/>
<path fill-rule="evenodd" clip-rule="evenodd" d="M407.35 527.286C409.685 525.606 411.649 535.298 417.994 532.602C424.338 529.908 419.335 521 423.328 519.357C427.321 517.713 435.031 526.547 445.271 528.694C455.511 530.84 463.825 532.719 466.188 536.704C468.223 540.13 466.188 541.225 466.188 541.225C466.188 541.225 456.33 546.148 450.205 547.231C441.306 548.805 415.587 549.854 412.769 546.984C411.039 545.223 406.182 528.128 407.35 527.286ZM260.181 356.307C260.181 356.307 240.505 397.86 268.156 412.129C294.896 425.928 374.949 409.607 374.949 409.607C374.949 409.607 373.519 421.124 374.949 431.396C378.685 458.223 396.453 502.919 400.213 508.535C405.411 516.301 421.248 510.444 421.546 503.977C421.844 497.511 409.608 414.919 407.747 399.17C405.896 383.419 400.051 381.131 382.981 376.826C379.059 375.837 332.684 364.312 328.435 364.647C291.932 367.534 260.181 356.307 260.181 356.307Z" fill="#2E2445"/>
<path fill-rule="evenodd" clip-rule="evenodd" d="M280.863 240.384C299.208 300.479 310.21 385.678 252.916 370.856C283.351 314.819 241.976 289.598 251.354 260.637C254.56 250.735 280.624 239.607 280.863 240.384ZM315.211 241.836C322.212 259.395 325.577 273.172 328.716 298.945C331.335 320.41 330.024 364.706 330.024 364.706L338.676 366.407C338.676 366.407 344.86 297.973 342.793 289.161C339.323 274.375 336.972 265.736 332.39 252.219C329.866 244.8 315.211 241.836 315.211 241.836Z" fill="#2E2445"/>
<path fill-rule="evenodd" clip-rule="evenodd" d="M284.715 308.606C284.715 308.606 296.011 297.296 299.923 295.983C303.835 294.671 325.263 293.094 325.118 296.06C324.954 299.237 311.165 299.055 309.89 300.618C308.615 302.18 306.842 314.347 302.022 315.547C297.212 316.747 287.241 320.298 287.241 320.298L242.856 343.231L247.585 320.299L284.715 308.606Z" fill="#F8AE9D"/>
<path fill-rule="evenodd" clip-rule="evenodd" d="M250.719 260.719C237.256 279.72 225.761 308.663 221.349 319.947C216.937 331.232 221.388 348.252 240.789 344.91C243.099 344.513 246.857 343.051 246.857 343.051C253.99 333.272 255.242 324.876 252.579 317.401L250.07 318.46C250.07 318.46 269.353 284.28 274.062 275.117C281.927 259.815 262.578 243.977 250.719 260.719Z" fill="#2E2445"/>
<path d="M306.483 546.164C308.097 546.163 309.663 545.613 310.923 544.604C312.183 543.594 313.06 542.185 313.412 540.61L351.679 368.96C352.668 364.521 349.291 360.309 344.744 360.309C343.128 360.308 341.561 360.859 340.3 361.87C339.039 362.88 338.16 364.29 337.809 365.868L299.553 537.52C298.565 541.955 301.939 546.164 306.483 546.164ZM603.382 546.164C601.768 546.164 600.201 545.614 598.942 544.604C597.682 543.594 596.804 542.185 596.453 540.61L558.184 368.952C557.195 364.518 560.569 360.309 565.113 360.309C566.727 360.309 568.293 360.859 569.553 361.869C570.813 362.878 571.69 364.287 572.042 365.863L610.311 537.52C611.299 541.955 607.925 546.164 603.382 546.164Z" fill="white" stroke="#E1E4E5" stroke-width="4" stroke-linecap="round" stroke-linejoin="round"/>
<path fill-rule="evenodd" clip-rule="evenodd" d="M604.4 360.625V354.169C604.4 350.464 602.507 347.461 600.182 347.443H307.045C304.707 347.443 302.827 350.464 302.827 354.169V360.625C302.827 364.348 304.719 367.351 307.045 367.351H316.358C317.284 367.351 318.201 367.534 319.057 367.888C319.912 368.242 320.69 368.761 321.344 369.416C321.999 370.071 322.519 370.848 322.873 371.704C323.228 372.559 323.41 373.476 323.41 374.402C323.41 375.582 324.369 376.532 325.554 376.532H589.412C590.585 376.532 591.544 375.582 591.544 374.402C591.544 373.476 591.726 372.559 592.081 371.704C592.435 370.848 592.955 370.071 593.61 369.416C594.264 368.761 595.042 368.242 595.897 367.888C596.753 367.534 597.67 367.351 598.596 367.351H600.182C602.52 367.351 604.4 364.348 604.4 360.625Z" fill="white"/>
<path d="M600.182 347.443L600.197 345.443H600.182V347.443ZM602.4 354.169V360.625H606.4V354.169H602.4ZM600.166 349.443C600.404 349.445 600.917 349.608 601.469 350.487C602.004 351.339 602.4 352.635 602.4 354.169H606.4C606.4 351.998 605.849 349.94 604.857 348.359C603.881 346.806 602.285 345.459 600.197 345.443L600.166 349.443ZM307.045 349.443H600.182V345.443H307.045V349.443ZM304.827 354.169C304.827 352.632 305.221 351.33 305.755 350.477C306.305 349.597 306.812 349.443 307.045 349.443V345.443C304.939 345.443 303.338 346.799 302.363 348.356C301.373 349.939 300.827 352.001 300.827 354.169H304.827ZM304.827 360.625V354.169H300.827V360.625H304.827ZM307.045 365.351C306.816 365.351 306.308 365.198 305.757 364.32C305.223 363.47 304.827 362.17 304.827 360.625H300.827C300.827 362.803 301.376 364.865 302.37 366.448C303.347 368.002 304.948 369.351 307.045 369.351V365.351ZM316.358 365.351H307.045V369.351H316.358V365.351ZM325.554 374.532C325.459 374.532 325.41 374.463 325.41 374.402H321.41C321.41 376.701 323.28 378.532 325.554 378.532V374.532ZM589.412 374.532H325.554V378.532H589.412V374.532ZM589.544 374.402C589.544 374.47 589.488 374.532 589.412 374.532V378.532C590.508 378.532 591.558 378.097 592.333 377.323C593.108 376.548 593.543 375.498 593.544 374.402H589.544ZM600.182 365.351H598.596V369.351H600.182V365.351ZM602.4 360.625C602.4 362.172 602.005 363.473 601.473 364.322C600.925 365.195 600.419 365.351 600.182 365.351V369.351C602.283 369.351 603.885 368.005 604.862 366.446C605.855 364.863 606.4 362.8 606.4 360.625H602.4ZM593.544 374.402C593.544 373.739 593.675 373.082 593.929 372.469C594.182 371.856 594.555 371.299 595.024 370.83C595.493 370.361 596.05 369.989 596.663 369.736C597.276 369.482 597.933 369.351 598.596 369.351V365.351C596.195 365.351 593.893 366.305 592.196 368.002C590.498 369.7 589.544 372.002 589.544 374.402H593.544ZM316.358 369.351C317.021 369.351 317.678 369.482 318.291 369.736C318.904 369.989 319.461 370.361 319.93 370.83C320.399 371.299 320.772 371.856 321.025 372.469C321.279 373.082 321.41 373.739 321.41 374.402H325.41C325.41 372.002 324.456 369.7 322.758 368.002C321.061 366.305 318.759 365.351 316.358 365.351V369.351Z" fill="#E1E4E5"/>
<path d="M167.631 263.262C164.521 263.262 162 260.741 162 257.631C162 254.521 164.521 252 167.631 252C170.741 252 173.262 254.521 173.262 257.631C173.262 260.741 170.741 263.262 167.631 263.262Z" fill="#4F27AA"/>
<path d="M169.959 375.833C170.674 378.502 169.091 381.245 166.422 381.96C163.753 382.675 161.009 381.091 160.294 378.422C159.579 375.753 161.163 373.01 163.832 372.295C166.501 371.58 169.244 373.164 169.959 375.833Z" fill="#E1E4E5"/>
<path d="M242.655 157.31C238.98 157.31 236 154.33 236 150.655C236 146.98 238.98 144 242.655 144C246.33 144 249.31 146.98 249.31 150.655C249.31 154.33 246.33 157.31 242.655 157.31Z" fill="#E1E4E5"/>
<path d="M764.735 232.011C764.735 235.172 762.172 237.735 759.011 237.735C755.85 237.735 753.287 235.172 753.287 232.011C753.287 228.85 755.85 226.287 759.011 226.287C762.172 226.287 764.735 228.85 764.735 232.011Z" fill="#E1E4E5"/>
<path d="M210.429 119H210.567C211.385 130.432 220 130.608 220 130.608C220 130.608 210.5 130.791 210.5 144C210.5 130.791 201 130.608 201 130.608C201 130.608 209.612 130.432 210.429 119Z" fill="#E1E4E5"/>
</g>
<defs>
<filter id="filter0_f_1235_21046" x="624.846" y="386.846" width="80.308" height="80.308" filterUnits="userSpaceOnUse" color-interpolation-filters="sRGB">
<feFlood flood-opacity="0" result="BackgroundImageFix"/>
<feBlend mode="normal" in="SourceGraphic" in2="BackgroundImageFix" result="shape"/>
<feGaussianBlur stdDeviation="4.077" result="effect1_foregroundBlur_1235_21046"/>
</filter>
<linearGradient id="paint0_linear_1235_21046" x1="542.344" y1="552.971" x2="532.446" y2="-297.193" gradientUnits="userSpaceOnUse">
<stop stop-color="white"/>
<stop offset="1" stop-color="#EEEEEE"/>
</linearGradient>
<linearGradient id="paint1_linear_1235_21046" x1="540.44" y1="431.02" x2="537.634" y2="190.007" gradientUnits="userSpaceOnUse">
<stop stop-color="white"/>
<stop offset="1" stop-color="#EEEEEE"/>
</linearGradient>
<linearGradient id="paint2_linear_1235_21046" x1="195.715" y1="254.957" x2="193.958" y2="103.994" gradientUnits="userSpaceOnUse">
<stop stop-color="white"/>
<stop offset="1" stop-color="#EEEEEE"/>
</linearGradient>
<linearGradient id="paint3_linear_1235_21046" x1="289.365" y1="179.882" x2="287.391" y2="10.379" gradientUnits="userSpaceOnUse">
<stop stop-color="white"/>
<stop offset="1" stop-color="#EEEEEE"/>
</linearGradient>
<linearGradient id="paint4_linear_1235_21046" x1="666.365" y1="494.882" x2="664.391" y2="325.379" gradientUnits="userSpaceOnUse">
<stop stop-color="white"/>
<stop offset="1" stop-color="#EEEEEE"/>
</linearGradient>
<clipPath id="clip0_1235_21046">
<rect width="900" height="600" fill="white"/>
</clipPath>
</defs>
</svg>
