<svg width="900" height="600" viewBox="0 0 900 600" fill="none" xmlns="http://www.w3.org/2000/svg">
<g clip-path="url(#clip0_1235_21098)">
<path d="M248 147C248 126.013 265.013 109 286 109H697C717.987 109 735 126.013 735 147V435C735 455.987 717.987 473 697 473H286C265.013 473 248 455.987 248 435V147Z" fill="white" stroke="#E1E4E5" stroke-width="4"/>
<path d="M698.538 219H561.804C558.378 219 555.6 221.778 555.6 225.204C555.6 228.63 558.378 231.408 561.804 231.408H698.538C701.964 231.408 704.742 228.63 704.742 225.204C704.742 221.778 701.964 219 698.538 219Z" fill="white" stroke="#E1E4E5" stroke-width="4"/>
<path d="M528.6 266.224C528.6 264.579 529.254 263.001 530.417 261.837C531.581 260.674 533.159 260.02 534.804 260.02H698.884C700.529 260.02 702.107 260.674 703.271 261.837C704.434 263.001 705.088 264.579 705.088 266.224C705.088 267.869 704.434 269.447 703.271 270.611C702.107 271.774 700.529 272.428 698.884 272.428H534.804C533.159 272.428 531.581 271.774 530.417 270.611C529.254 269.447 528.6 267.869 528.6 266.224ZM292 139C292 143.516 288.547 147 284.5 147C280.453 147 277 143.516 277 139C277 134.484 280.453 131 284.5 131C288.547 131 292 134.484 292 139Z" fill="white" stroke="#E1E4E5" stroke-width="4"/>
<path d="M313 147C317.418 147 321 143.418 321 139C321 134.582 317.418 131 313 131C308.582 131 305 134.582 305 139C305 143.418 308.582 147 313 147Z" fill="white" stroke="#E1E4E5" stroke-width="4"/>
<path d="M341 147C345.418 147 349 143.418 349 139C349 134.582 345.418 131 341 131C336.582 131 333 134.582 333 139C333 143.418 336.582 147 341 147Z" fill="white" stroke="#E1E4E5" stroke-width="4"/>
<path d="M589.833 317.001C589.833 304.513 599.957 294.389 612.445 294.389H683.546C696.035 294.389 706.159 304.513 706.159 317.001C706.159 329.489 696.035 339.613 683.547 339.613H612.445C599.957 339.613 589.833 329.489 589.833 317.001ZM589.833 371.695C589.833 370.049 590.487 368.471 591.65 367.308C592.814 366.144 594.392 365.491 596.037 365.491H699.955C701.6 365.491 703.178 366.144 704.342 367.308C705.505 368.471 706.159 370.049 706.159 371.695C706.159 373.34 705.505 374.918 704.342 376.082C703.178 377.245 701.6 377.899 699.955 377.899H596.037C594.392 377.899 592.814 377.245 591.65 376.082C590.487 374.918 589.833 373.34 589.833 371.695ZM589.833 412.715C589.833 411.069 590.487 409.491 591.65 408.328C592.814 407.164 594.392 406.511 596.037 406.511H699.955C701.6 406.511 703.178 407.164 704.342 408.328C705.505 409.491 706.159 411.069 706.159 412.715C706.159 414.36 705.505 415.938 704.342 417.102C703.178 418.265 701.6 418.919 699.955 418.919H596.037C594.392 418.919 592.814 418.265 591.65 417.102C590.487 415.938 589.833 414.36 589.833 412.715Z" fill="white" stroke="#E1E4E5" stroke-width="4"/>
<path d="M418.284 419.672C483.634 419.672 536.61 366.695 536.61 301.346C536.61 235.996 483.634 183.02 418.284 183.02C352.934 183.02 299.958 235.996 299.958 301.346C299.958 366.695 352.934 419.672 418.284 419.672Z" fill="white" stroke="#E1E4E5" stroke-width="4"/>
<path d="M299.959 301.344C299.959 286.754 302.599 272.785 307.425 259.885L453.436 318.023L492.574 393.447C472.265 409.85 446.424 419.67 418.284 419.67C352.935 419.67 299.959 366.694 299.959 301.344Z" fill="white" stroke="#E1E4E5" stroke-width="4"/>
<path d="M420.843 301.506L499.473 215.266C522.341 236.843 536.61 267.426 536.61 301.345C536.61 340.635 517.462 375.453 487.98 396.977L420.843 301.506Z" fill="white" stroke="#E1E4E5" stroke-width="4"/>
<path d="M418.5 388C466.273 388 505 349.273 505 301.5C505 253.727 466.273 215 418.5 215C370.727 215 332 253.727 332 301.5C332 349.273 370.727 388 418.5 388Z" fill="white" stroke="#E1E4E5" stroke-width="4"/>
<path opacity="0.76" fill-rule="evenodd" clip-rule="evenodd" d="M224.5 267L339 446H110L224.5 267Z" fill="url(#paint0_linear_1235_21098)"/>
<path opacity="0.76" fill-rule="evenodd" clip-rule="evenodd" d="M478.988 143.852L517.797 204.222H440.179L478.988 143.852Z" fill="url(#paint1_linear_1235_21098)"/>
<path d="M148.639 317.78C148.639 323.738 143.569 328.561 137.307 328.561C131.045 328.561 126 323.714 126 317.78C126 311.823 131.069 307 137.332 307C143.594 307 148.639 311.823 148.639 317.78Z" stroke="#E1E4E5" stroke-width="5.225" stroke-miterlimit="10"/>
<path d="M159.615 229.003C150.017 237.39 133.506 234.21 133.506 234.21C133.506 234.21 132.567 217.431 142.174 209.05C151.772 200.663 168.275 203.838 168.275 203.838C168.275 203.838 169.213 220.616 159.615 229.003Z" fill="url(#paint2_linear_1235_21098)"/>
<path d="M318.521 172.678C317.681 175.814 319.542 179.037 322.678 179.877C325.813 180.717 329.037 178.856 329.877 175.721C330.717 172.585 328.856 169.362 325.72 168.522C322.585 167.681 319.362 169.542 318.521 172.678Z" fill="#E1E4E5"/>
<path d="M294.521 218.678C293.681 221.814 295.542 225.037 298.678 225.877C301.813 226.717 305.037 224.856 305.877 221.721C306.717 218.585 304.856 215.362 301.72 214.522C298.585 213.681 295.362 215.542 294.521 218.678Z" fill="#E1E4E5"/>
<path d="M430.521 137.678C429.681 140.814 431.542 144.037 434.678 144.877C437.813 145.717 441.037 143.856 441.877 140.721C442.717 137.585 440.856 134.362 437.72 133.522C434.585 132.681 431.362 134.542 430.521 137.678Z" fill="#E1E4E5"/>
<path d="M611 157.732C610.447 159.793 611.67 161.911 613.731 162.463C615.792 163.015 617.91 161.792 618.462 159.731C619.015 157.671 617.792 155.552 615.731 155C613.67 154.448 611.552 155.671 611 157.732Z" fill="#E1E4E5"/>
<path d="M778.521 378.678C777.681 381.814 779.542 385.037 782.678 385.877C785.813 386.717 789.037 384.856 789.877 381.721C790.717 378.585 788.856 375.362 785.72 374.522C782.585 373.681 779.362 375.542 778.521 378.678Z" fill="#E1E4E5"/>
<path d="M650.039 446.931L635.931 461.04C635.417 461.554 635.416 462.387 635.93 462.901C636.444 463.415 637.277 463.415 637.791 462.901L651.9 448.792C652.414 448.278 652.414 447.445 651.9 446.931C651.386 446.417 650.553 446.417 650.039 446.931Z" fill="#E1E4E5"/>
<path d="M648.658 457.032L644.589 461.101C644.076 461.615 644.075 462.448 644.589 462.961C645.103 463.475 645.936 463.475 646.45 462.961L650.519 458.892C651.033 458.378 651.033 457.545 650.519 457.032C650.005 456.518 649.172 456.518 648.658 457.032Z" fill="#E1E4E5"/>
<path d="M751.767 361.862C751.632 361.667 761.473 354.656 773.757 346.231C786.038 337.79 796.116 331.112 796.251 331.307C796.386 331.502 786.541 338.498 774.261 346.938C761.965 355.383 751.902 362.057 751.767 361.862Z" fill="white"/>
<path d="M764.63 250H764.771C765.606 261.338 774.404 261.512 774.404 261.512C774.404 261.512 764.702 261.694 764.702 274.795C764.702 261.694 755 261.512 755 261.512C755 261.512 763.795 261.338 764.63 250Z" fill="#E1E4E5"/>
<path d="M443.084 329.976L408.623 455.956L420.917 441.806C416.371 444.227 411.098 446.083 405.26 447.402C399.423 448.72 393.074 449.473 386.429 449.823C379.785 450.173 372.871 450.119 365.769 449.823C358.694 449.527 351.457 448.989 344.113 448.37H344.086C333.245 447.455 323.721 455.472 322.78 466.314C321.892 476.644 329.236 485.79 339.297 487.431C346.884 488.642 354.578 489.772 362.487 490.687C370.396 491.601 378.493 492.274 386.887 492.462C395.28 492.65 403.969 492.328 412.954 491.036C421.913 489.745 431.221 487.405 440.313 483.477C446.124 480.975 450.267 476.187 452.15 470.618L452.581 469.3L493.929 345.39C498.583 331.455 491.05 316.417 477.115 311.763C463.18 307.109 448.142 314.642 443.488 328.577C443.353 329.034 443.192 329.545 443.084 329.976Z" fill="#F8AE9D"/>
<path d="M519.672 503.036C520.129 506.587 521.689 509.304 523.169 509.089C524.622 508.9 525.455 505.861 524.998 502.336C524.541 498.785 522.981 496.068 521.501 496.284C520.021 496.472 519.214 499.512 519.672 503.036Z" fill="#B55E63"/>
<mask id="mask0_1235_21098" style="mask-type:alpha" maskUnits="userSpaceOnUse" x="441" y="281" width="181" height="231">
<path fill-rule="evenodd" clip-rule="evenodd" d="M460.57 458.962C460.57 458.842 460.51 458.731 460.412 458.663C460.182 458.503 459.71 458.168 459.068 457.677C455.954 455.379 455.397 450.063 454.479 441.294C454.173 438.378 453.828 435.08 453.335 431.385C451.263 415.845 449.759 406.901 444.717 384.855C444.214 382.656 443.847 380.413 443.479 378.17C443.074 375.699 442.669 373.228 442.083 370.812C441.708 369.269 441.406 367.718 441.514 366.152C441.678 364.183 441.787 362.215 441.841 360.219C441.896 358.634 441.923 357.048 441.923 355.463V354.014C441.914 351.714 441.892 349.413 441.856 347.112C441.631 330.511 441.505 321.203 453.335 313.008C456.393 310.876 460.269 308.853 465.129 306.775C469.06 305.107 473.62 303.412 478.971 301.636C481.276 300.879 483.588 300.141 485.905 299.421L491.693 297.836L551.487 281.271C552.081 281.111 552.697 281.046 553.311 281.078C554.594 281.133 557.215 281.297 560.764 281.543L562.471 281.673C563.391 281.742 564.364 281.815 565.378 281.898C570.456 282.308 576.708 282.882 583.506 283.702C585.729 283.963 587.95 284.245 590.168 284.55C597.102 285.479 602.699 287.83 607.121 291.22C614.957 297.234 619.188 306.584 620.745 317.437C621.618 323.533 621.673 330.094 621.072 336.819C620.827 339.47 620.499 342.149 620.062 344.829C619.677 347.258 619.213 349.674 618.67 352.073C617.075 359.241 615.683 366.452 614.493 373.697L614.001 376.649C613.901 377.325 613.796 378.007 613.689 378.692C613.564 379.502 613.437 380.317 613.319 381.133C610.043 402.948 608.432 424.134 608.759 439.033L608.76 439.053L608.841 441.712C609.224 451.745 610.37 462.981 612.527 475.474C612.647 476.104 612.758 476.734 612.871 477.368C612.963 477.89 613.056 478.415 613.155 478.946C613.237 479.379 613.234 479.804 613.16 480.205C619.329 486.845 622.142 495.667 616.223 502.461C615.87 502.867 615.494 503.258 615.095 503.633C612.03 506.516 607.579 507.026 603.374 507.188L487.81 511.638C476.884 512.059 465.853 507.585 463.831 496.84C463.046 492.665 462.686 487.577 463.2 481.499C463.2 481.495 463.561 481.123 464.274 480.47C462.507 479.87 461.143 478.264 461.143 476.239C461.116 473.423 461.089 470.799 461.007 468.393C460.942 465.795 460.833 463.197 460.679 460.602C460.658 460.055 460.622 459.508 460.57 458.962Z" fill="white"/>
</mask>
<g mask="url(#mask0_1235_21098)">
<path fill-rule="evenodd" clip-rule="evenodd" d="M460.57 458.962C460.57 458.842 460.51 458.731 460.412 458.663C460.182 458.503 459.71 458.168 459.068 457.677C455.954 455.379 455.397 450.063 454.479 441.294C454.173 438.378 453.828 435.08 453.335 431.385C451.263 415.845 449.759 406.901 444.717 384.855C444.214 382.656 443.847 380.413 443.479 378.17C443.074 375.699 442.669 373.228 442.083 370.812C441.708 369.269 441.406 367.718 441.514 366.152C441.678 364.183 441.787 362.215 441.841 360.219C441.896 358.634 441.923 357.048 441.923 355.463V354.014C441.914 351.714 441.892 349.413 441.856 347.112C441.631 330.511 441.505 321.203 453.335 313.008C456.393 310.876 460.269 308.853 465.129 306.775C469.06 305.107 473.62 303.412 478.971 301.636C481.276 300.879 483.588 300.141 485.905 299.421L491.693 297.836L551.487 281.271C552.081 281.111 552.697 281.046 553.311 281.078C554.594 281.133 557.215 281.297 560.764 281.543L562.471 281.673C563.391 281.742 564.364 281.815 565.378 281.898C570.456 282.308 576.708 282.882 583.506 283.702C585.729 283.963 587.95 284.245 590.168 284.55C597.102 285.479 602.699 287.83 607.121 291.22C614.957 297.234 619.188 306.584 620.745 317.437C621.618 323.533 621.673 330.094 621.072 336.819C620.827 339.47 620.499 342.149 620.062 344.829C619.677 347.258 619.213 349.674 618.67 352.073C617.075 359.241 615.683 366.452 614.493 373.697L614.001 376.649C613.901 377.325 613.796 378.007 613.689 378.692C613.564 379.502 613.437 380.317 613.319 381.133C610.043 402.948 608.432 424.134 608.759 439.033L608.76 439.053L608.841 441.712C609.224 451.745 610.37 462.981 612.527 475.474C612.647 476.104 612.758 476.734 612.871 477.368C612.963 477.89 613.056 478.415 613.155 478.946C613.237 479.379 613.234 479.804 613.16 480.205C619.329 486.845 622.142 495.667 616.223 502.461C615.87 502.867 615.494 503.258 615.095 503.633C612.03 506.516 607.579 507.026 603.374 507.188L487.81 511.638C476.884 512.059 465.853 507.585 463.831 496.84C463.046 492.665 462.686 487.577 463.2 481.499C463.2 481.495 463.561 481.123 464.274 480.47C462.507 479.87 461.143 478.264 461.143 476.239C461.116 473.423 461.089 470.799 461.007 468.393C460.942 465.795 460.833 463.197 460.679 460.602C460.658 460.055 460.622 459.508 460.57 458.962Z" fill="white"/>
<path d="M460.412 458.663L458.132 461.949L460.412 458.663ZM460.57 458.962L456.592 459.38L456.57 459.172V458.962H460.57ZM459.068 457.677L461.443 454.458L461.472 454.48L461.5 454.501L459.068 457.677ZM454.479 441.294L458.457 440.877L454.479 441.294ZM453.335 431.385L457.3 430.857L453.335 431.385ZM444.717 384.855L448.616 383.964L444.717 384.855ZM443.479 378.17L439.532 378.817L443.479 378.17ZM442.083 370.812L438.196 371.756L442.083 370.812ZM441.514 366.152L437.523 365.877L437.525 365.848L437.528 365.82L441.514 366.152ZM441.841 360.219L437.843 360.11V360.096L437.844 360.082L441.841 360.219ZM441.923 354.014L445.923 354.003V354.014H441.923ZM441.856 347.112L445.856 347.058L441.856 347.112ZM453.335 313.008L455.623 316.289L455.613 316.296L453.335 313.008ZM465.129 306.775L463.557 303.097L463.567 303.093L465.129 306.775ZM478.971 301.636L477.71 297.839L477.719 297.836L478.971 301.636ZM485.905 299.421L484.715 295.602L484.781 295.582L484.848 295.563L485.905 299.421ZM491.693 297.836L492.761 301.69L492.75 301.693L491.693 297.836ZM551.487 281.271L552.555 285.126L551.487 281.271ZM553.311 281.078L553.141 285.074H553.129L553.311 281.078ZM560.764 281.543L561.041 277.552L561.059 277.553L561.078 277.555L560.764 281.543ZM562.471 281.673L562.77 277.684L562.471 281.673ZM565.378 281.898L565.056 285.885H565.051L565.378 281.898ZM583.506 283.702L583.053 287.676L583.04 287.675L583.027 287.673L583.506 283.702ZM589.648 284.481L589.121 288.446L589.648 284.481ZM590.168 284.55L590.694 280.584L590.699 280.585L590.168 284.55ZM607.121 291.22L609.555 288.045L609.557 288.047L607.121 291.22ZM620.745 317.437L624.704 316.869L620.745 317.437ZM621.072 336.819L625.056 337.175L625.055 337.188L621.072 336.819ZM620.062 344.829L616.112 344.201L616.113 344.193L616.114 344.185L620.062 344.829ZM618.67 352.073L614.766 351.2L614.769 351.188L618.67 352.073ZM614.493 373.697L618.439 374.349L618.438 374.354L614.493 373.697ZM614.001 376.649L610.044 376.064L610.05 376.028L610.056 375.992L614.001 376.649ZM613.689 378.692L609.737 378.079L613.689 378.692ZM613.319 381.133L617.277 381.708L617.276 381.717L617.274 381.727L613.319 381.133ZM608.759 439.033L604.761 439.154V439.137L604.76 439.121L608.759 439.033ZM608.76 439.053L604.762 439.174L608.76 439.053ZM608.841 441.712L604.844 441.864V441.851L604.843 441.837L608.841 441.712ZM612.527 475.474L608.597 476.221L608.591 476.188L608.585 476.154L612.527 475.474ZM612.871 477.368L608.932 478.066L612.871 477.368ZM613.155 478.946L609.225 479.69L609.222 479.676L613.155 478.946ZM613.16 480.205L610.229 482.927L608.86 481.454L609.227 479.476L613.16 480.205ZM616.223 502.461L619.239 505.089L616.223 502.461ZM615.095 503.633L612.355 500.719L615.095 503.633ZM603.374 507.188L603.528 511.185L603.374 507.188ZM487.81 511.638L487.656 507.641L487.81 511.638ZM463.831 496.84L459.9 497.58L463.831 496.84ZM463.2 481.499H467.2V481.668L467.186 481.837L463.2 481.499ZM464.274 480.47L465.562 476.683L471.958 478.858L466.975 483.421L464.274 480.47ZM461.143 476.239L465.143 476.2V476.239H461.143ZM461.007 468.393L457.009 468.529L457.008 468.516V468.503L461.007 468.393ZM460.679 460.602L456.687 460.851L456.685 460.822L456.684 460.792L460.679 460.602ZM462.692 455.376C463.271 455.778 463.745 456.314 464.072 456.939C464.399 457.563 464.57 458.257 464.57 458.962H456.57C456.57 460.178 457.173 461.284 458.132 461.949L462.692 455.376ZM461.5 454.501C462.086 454.95 462.507 455.248 462.692 455.376L458.132 461.949C457.625 461.596 457.126 461.23 456.636 460.853L461.5 454.501ZM458.457 440.877C458.927 445.363 459.272 448.585 459.842 450.989C460.415 453.405 461.04 454.161 461.443 454.458L456.693 460.896C453.983 458.896 452.772 455.844 452.058 452.835C451.341 449.814 450.949 445.994 450.5 441.71L458.457 440.877ZM457.3 430.857C457.801 434.615 458.152 437.964 458.457 440.877L450.5 441.71C450.195 438.792 449.854 435.546 449.37 431.914L457.3 430.857ZM448.616 383.964C453.684 406.12 455.21 415.185 457.3 430.857L449.37 431.914C447.316 416.505 445.835 407.682 440.818 385.747L448.616 383.964ZM447.426 377.524C447.797 379.788 448.146 381.906 448.616 383.964L440.818 385.747C440.282 383.405 439.896 381.039 439.532 378.817L447.426 377.524ZM445.97 369.868C446.598 372.456 447.026 375.078 447.426 377.524L439.532 378.817C439.123 376.32 438.74 373.999 438.196 371.756L445.97 369.868ZM445.504 366.427C445.441 367.342 445.61 368.387 445.97 369.868L438.196 371.756C437.806 370.151 437.37 368.094 437.523 365.877L445.504 366.427ZM445.84 360.329C445.783 362.399 445.67 364.441 445.5 366.483L437.528 365.82C437.685 363.925 437.79 362.031 437.843 360.11L445.84 360.329ZM445.923 355.463C445.923 357.094 445.895 358.726 445.839 360.357L437.844 360.082C437.897 358.542 437.923 357.002 437.923 355.463H445.923ZM445.923 355.107V355.463H437.923V355.107H445.923ZM445.923 354.014V355.107H437.923V354.014H445.923ZM445.856 347.058C445.885 349.227 445.917 351.544 445.923 354.003L437.923 354.024C437.917 351.615 437.886 349.34 437.857 347.166L445.856 347.058ZM455.613 316.296C450.413 319.898 448.101 323.497 446.945 327.92C445.693 332.708 445.741 338.57 445.856 347.058L437.857 347.166C437.747 339.052 437.619 331.961 439.205 325.896C440.887 319.466 444.426 314.313 451.057 309.72L455.613 316.296ZM466.702 310.453C461.976 312.473 458.371 314.372 455.623 316.289L451.047 309.727C454.414 307.379 458.563 305.232 463.557 303.097L466.702 310.453ZM480.231 305.432C474.954 307.184 470.499 308.842 466.691 310.457L463.567 303.093C467.622 301.373 472.286 299.641 477.71 297.839L480.231 305.432ZM487.095 303.24C484.798 303.953 482.508 304.685 480.223 305.435L477.719 297.836C480.045 297.073 482.377 296.329 484.715 295.602L487.095 303.24ZM492.75 301.693L486.962 303.279L484.848 295.563L490.636 293.978L492.75 301.693ZM552.555 285.126L492.761 301.69L490.625 293.981L550.419 277.417L552.555 285.126ZM553.129 285.074C552.936 285.062 552.743 285.079 552.555 285.126L550.419 277.417C551.42 277.144 552.457 277.031 553.493 277.082L553.129 285.074ZM560.488 285.533C556.932 285.286 554.363 285.126 553.141 285.074L553.481 277.081C554.826 277.139 557.499 277.307 561.041 277.552L560.488 285.533ZM562.171 285.661C561.581 285.617 561.004 285.574 560.451 285.53L561.078 277.555C561.614 277.597 562.177 277.639 562.77 277.684L562.171 285.661ZM565.051 285.885C564.053 285.803 563.093 285.731 562.171 285.661L562.77 277.684C563.689 277.753 564.676 277.827 565.705 277.911L565.051 285.885ZM583.027 287.673C577.049 286.959 571.058 286.363 565.056 285.885L565.7 277.911C570.813 278.324 577.12 278.903 583.985 279.731L583.027 287.673ZM589.121 288.446C587.026 288.167 585.001 287.899 583.053 287.676L583.959 279.728C585.994 279.96 588.093 280.239 590.175 280.516L589.121 288.446ZM589.641 288.515L589.121 288.446L590.175 280.516L590.694 280.584L589.641 288.515ZM604.688 294.395C600.875 291.472 595.952 289.361 589.636 288.514L590.699 280.585C598.252 281.598 604.522 284.188 609.555 288.045L604.688 294.395ZM616.785 318.004C615.321 307.792 611.423 299.564 604.686 294.393L609.557 288.047C618.49 294.904 623.056 305.375 624.704 316.869L616.785 318.004ZM617.088 336.463C617.667 329.979 617.606 323.734 616.785 318.004L624.704 316.869C625.63 323.331 625.678 330.209 625.056 337.175L617.088 336.463ZM616.114 344.185C616.534 341.61 616.851 339.023 617.089 336.45L625.055 337.188C624.802 339.918 624.464 342.689 624.01 345.472L616.114 344.185ZM614.769 351.188C615.293 348.875 615.74 346.544 616.112 344.201L624.013 345.456C623.614 347.972 623.133 350.474 622.57 352.958L614.769 351.188ZM610.546 373.045C611.748 365.726 613.156 358.441 614.766 351.2L622.573 352.946C620.995 360.041 619.617 367.178 618.439 374.349L610.546 373.045ZM610.056 375.992L610.547 373.04L618.438 374.354L617.947 377.306L610.056 375.992ZM609.737 378.079C609.843 377.391 609.947 376.724 610.044 376.064L617.958 377.235C617.856 377.927 617.748 378.622 617.642 379.305L609.737 378.079ZM609.36 380.558C609.482 379.72 609.611 378.886 609.737 378.079L617.642 379.305C617.516 380.119 617.392 380.915 617.277 381.708L609.36 380.558ZM604.76 439.121C604.426 423.924 606.065 402.497 609.363 380.538L617.274 381.727C614.02 403.398 612.437 424.345 612.759 438.945L604.76 439.121ZM604.762 439.174L604.761 439.154L612.758 438.912V438.932L604.762 439.174ZM604.843 441.837L604.762 439.174L612.758 438.932L612.839 441.587L604.843 441.837ZM608.585 476.154C606.401 463.5 605.234 452.087 604.844 441.864L612.838 441.56C613.213 451.403 614.34 462.461 616.469 474.793L608.585 476.154ZM608.932 478.066C608.819 477.427 608.712 476.822 608.597 476.221L616.457 474.726C616.582 475.385 616.698 476.04 616.81 476.67L608.932 478.066ZM609.222 479.676C609.12 479.127 609.024 478.585 608.932 478.066L616.81 476.67C616.902 477.195 616.993 477.703 617.088 478.215L609.222 479.676ZM609.227 479.476C609.213 479.547 609.213 479.62 609.225 479.69L617.085 478.201C617.26 479.126 617.256 480.051 617.093 480.934L609.227 479.476ZM616.09 477.482C619.526 481.181 622.242 485.704 623.155 490.532C624.095 495.505 623.078 500.682 619.239 505.089L613.207 499.834C615.287 497.446 615.823 494.815 615.294 492.019C614.738 489.078 612.962 485.869 610.229 482.927L616.09 477.482ZM619.239 505.089C618.801 505.591 618.334 506.078 617.835 506.547L612.355 500.719C612.654 500.438 612.938 500.143 613.207 499.834L619.239 505.089ZM617.835 506.547C613.57 510.558 607.674 511.025 603.528 511.185L603.22 503.191C607.485 503.026 610.489 502.474 612.355 500.719L617.835 506.547ZM603.528 511.185L487.964 515.635L487.656 507.641L603.22 503.191L603.528 511.185ZM487.964 515.635C481.962 515.866 475.712 514.771 470.553 511.931C465.3 509.039 461.166 504.305 459.9 497.58L467.762 496.1C468.519 500.12 470.911 502.996 474.411 504.922C478.003 506.9 482.731 507.831 487.656 507.641L487.964 515.635ZM459.9 497.58C459.046 493.038 458.671 487.587 459.215 481.162L467.186 481.837C466.701 487.567 467.046 492.292 467.762 496.1L459.9 497.58ZM459.2 481.499C459.2 480.725 459.43 480.154 459.489 480.006C459.668 479.567 459.922 479.161 460.24 478.809L460.319 478.724L460.418 478.621C460.796 478.247 461.181 477.88 461.573 477.52L466.975 483.421C466.649 483.719 466.412 483.946 466.264 484.09L466.117 484.236L466.116 484.237L466.169 484.179C466.179 484.168 466.222 484.122 466.274 484.059C466.293 484.036 466.362 483.953 466.443 483.841C466.634 483.579 466.791 483.294 466.911 482.992C466.953 482.883 467.038 482.628 467.078 482.48C467.124 482.278 467.19 481.787 467.2 481.499H459.2ZM465.143 476.239C465.143 476.322 465.163 476.381 465.215 476.448C465.306 476.559 465.426 476.64 465.562 476.683L462.986 484.258C459.819 483.18 457.143 480.199 457.143 476.239H465.143ZM465.004 468.257C465.088 470.72 465.116 473.394 465.143 476.2L457.143 476.278C457.116 473.453 457.089 470.878 457.009 468.529L465.004 468.257ZM464.671 460.353C464.812 462.601 464.922 465.275 465.005 468.283L457.008 468.503C456.944 465.951 456.837 463.4 456.687 460.851L464.671 460.353ZM464.548 458.544C464.616 459.195 464.648 459.853 464.674 460.412L456.684 460.792C456.667 460.321 456.636 459.85 456.592 459.38L464.548 458.544Z" fill="#E1E4E5"/>
<path d="M551.069 284C551.069 284 545.716 304.257 525.486 309.88C499.768 317.009 495.894 308.373 495.894 308.373C496.539 304.688 496.755 301.083 496.593 297.263C496.539 295.81 496.405 294.331 496.243 292.824C495.786 288.681 494.925 284.162 493.715 278.997C493.446 277.786 493.123 276.522 492.8 275.23L492.773 275.069C510.367 268.451 524.167 258.524 532.615 243.836L535.116 241.872L536.811 240.527L537.295 241.549L537.376 244.966C537.726 261.026 540.443 270.523 551.069 284ZM558.239 316.048L519.598 458.528L533.376 442.527C528.278 445.268 522.369 447.351 515.833 448.853C509.297 450.329 502.159 451.199 494.734 451.568C487.283 451.964 479.518 451.885 471.57 451.568C463.622 451.226 455.517 450.646 447.282 449.934H447.23C435.072 448.88 424.379 457.974 423.334 470.232C422.34 481.91 430.576 492.269 441.87 494.115C450.367 495.485 459.021 496.777 467.884 497.805C476.747 498.833 485.845 499.624 495.257 499.835C504.669 500.046 514.421 499.677 524.487 498.201C534.552 496.724 544.984 494.088 555.18 489.66C561.716 486.813 566.344 481.409 568.462 475.135L568.958 473.659L615.286 333.498C620.489 317.735 612.071 300.732 596.436 295.46C580.828 290.214 563.939 298.702 558.71 314.466C558.553 314.967 558.37 315.573 558.239 316.048Z" fill="#F8AE9D"/>
<path fill-rule="evenodd" clip-rule="evenodd" d="M103.085 513.229V505.771C103.085 501.49 107.383 498.021 112.666 498H778.504C783.814 498 788.085 501.49 788.085 505.771V513.229C788.085 517.53 783.786 521 778.504 521H748.69C746.673 521 744.739 521.801 743.312 523.227C741.886 524.654 741.085 526.588 741.085 528.605C741.085 529.932 738.906 531 736.215 531H136.927C134.264 531 132.085 529.932 132.085 528.605C132.085 524.405 128.68 521 124.479 521H112.666C107.355 521 103.085 517.53 103.085 513.229Z" fill="white"/>
<path d="M112.666 498L112.658 496H112.666V498ZM105.085 505.771V513.229H101.085V505.771H105.085ZM112.673 500C108.071 500.018 105.085 502.971 105.085 505.771H101.085C101.085 500.01 106.696 496.023 112.658 496L112.673 500ZM778.504 500H112.666V496H778.504V500ZM786.085 505.771C786.085 502.962 783.116 500 778.504 500V496C784.512 496 790.085 500.019 790.085 505.771H786.085ZM786.085 513.229V505.771H790.085V513.229H786.085ZM778.504 519C783.096 519 786.085 516.052 786.085 513.229H790.085C790.085 519.008 784.476 523 778.504 523V519ZM748.69 519H778.504V523H748.69V519ZM736.215 529C737.323 529 738.226 528.776 738.777 528.505C739.455 528.172 739.085 528.087 739.085 528.605H743.085C743.085 530.45 741.625 531.563 740.541 532.095C739.33 532.69 737.798 533 736.215 533V529ZM136.927 529H736.215V533H136.927V529ZM134.085 528.605C134.085 528.088 133.716 528.173 134.392 528.506C134.94 528.777 135.835 529 136.927 529V533C135.355 533 133.829 532.689 132.622 532.094C131.543 531.561 130.085 530.449 130.085 528.605H134.085ZM112.666 519H124.479V523H112.666V519ZM105.085 513.229C105.085 516.056 108.049 519 112.666 519V523C106.661 523 101.085 519.005 101.085 513.229H105.085ZM130.085 528.605C130.085 527.869 129.94 527.14 129.658 526.46C129.376 525.78 128.964 525.162 128.443 524.641C127.922 524.121 127.304 523.708 126.624 523.426C125.944 523.145 125.215 523 124.479 523V519C129.784 519 134.085 523.3 134.085 528.605H130.085ZM748.69 523C747.954 523 747.225 523.145 746.545 523.426C745.865 523.708 745.247 524.121 744.726 524.641C744.206 525.162 743.793 525.78 743.511 526.46C743.23 527.14 743.085 527.869 743.085 528.605H739.085C739.085 523.3 743.385 519 748.69 519V523Z" fill="#E1E4E5"/>
<path d="M183.672 313.053L214.878 445.034L215.712 448.504L217.81 457.382C218.25 459.249 219.307 460.913 220.811 462.105C222.315 463.296 224.177 463.945 226.096 463.946H436.333C441.821 463.946 445.91 458.808 444.645 453.454L410.507 309.127C410.067 307.259 409.01 305.595 407.506 304.403C406.002 303.212 404.14 302.563 402.221 302.562H191.985C186.47 302.59 182.408 307.727 183.672 313.053Z" fill="#4F27AA"/>
<path d="M393.856 302.588L430.2 463.971H436.334C441.822 463.971 445.884 458.833 444.619 453.479L410.481 309.152C410.041 307.284 408.984 305.62 407.48 304.429C405.977 303.237 404.115 302.589 402.196 302.588H393.856ZM333.108 462.664L338.874 494.926H319.824L314.057 462.664H333.108Z" fill="#2E2445"/>
<path fill-rule="evenodd" clip-rule="evenodd" d="M518.281 243.442V266.926L535.453 253.041C535.453 253.041 540.73 230.54 545.023 213.828C547.715 203.349 554.273 167.882 527.871 169.544C506.242 131.252 443.255 154.952 442.753 201.733C454.81 269.696 444.602 291.279 444.602 291.279C480.22 293.332 498.308 276.786 518.281 243.442Z" fill="#2E2445"/>
</g>
</g>
<defs>
<linearGradient id="paint0_linear_1235_21098" x1="229.383" y1="546.358" x2="225.068" y2="72.254" gradientUnits="userSpaceOnUse">
<stop stop-color="white"/>
<stop offset="1" stop-color="#EEEEEE"/>
</linearGradient>
<linearGradient id="paint1_linear_1235_21098" x1="480.643" y1="238.069" x2="479.195" y2="78.1716" gradientUnits="userSpaceOnUse">
<stop stop-color="white"/>
<stop offset="1" stop-color="#EEEEEE"/>
</linearGradient>
<linearGradient id="paint2_linear_1235_21098" x1="121.716" y1="257.262" x2="193.805" y2="161.224" gradientUnits="userSpaceOnUse">
<stop stop-color="white"/>
<stop offset="1" stop-color="#EEEEEE"/>
</linearGradient>
<clipPath id="clip0_1235_21098">
<rect width="900" height="600" fill="white"/>
</clipPath>
</defs>
</svg>
