<svg width="900" height="600" viewBox="0 0 900 600" fill="none" xmlns="http://www.w3.org/2000/svg">
<g clip-path="url(#clip0_1235_21144)">
<path d="M759.564 339.565C759.564 396.932 713.068 443.428 655.701 443.428C598.334 443.428 551.838 396.932 551.838 339.565C551.838 282.198 598.334 235.701 655.701 235.701C713.068 235.701 759.564 282.198 759.564 339.565V339.565Z" stroke="#E1E4E5" stroke-width="4" stroke-linecap="round" stroke-linejoin="round"/>
<path d="M729.144 413.008L659.082 342.947C658.01 341.876 657.159 340.604 656.579 339.204C655.999 337.804 655.701 336.303 655.701 334.788V235.702M562.047 292.407H462.965C461.45 292.408 459.949 292.11 458.549 291.53C457.149 290.95 455.876 290.1 454.805 289.029L384.741 218.965M384.65 219.159H285.569C284.053 219.16 282.553 218.862 281.152 218.282C279.752 217.702 278.48 216.852 277.408 215.781L207.344 145.717M205.037 234.855L180.092 206.449C179.711 206.014 179.248 205.659 178.729 205.403C178.211 205.148 177.647 204.997 177.07 204.96L139.344 202.512M562.048 387.4H462.966C461.45 387.401 459.95 387.103 458.549 386.523C457.149 385.943 455.877 385.093 454.805 384.022L384.741 313.958M384.65 314.152H285.568C284.053 314.152 282.552 313.855 281.152 313.275C279.752 312.695 278.479 311.845 277.408 310.774L207.344 240.71M656.507 339.104L745.598 287.634" stroke="#E1E4E5" stroke-width="4" stroke-linecap="round" stroke-linejoin="round"/>
<path d="M745.649 287.633L659.842 337.174C658.529 337.931 657.378 338.939 656.456 340.141C655.533 341.343 654.856 342.715 654.464 344.179L628.819 439.889M656.36 340.219L729.094 412.994" stroke="#E1E4E5" stroke-width="4" stroke-linecap="round" stroke-linejoin="round"/>
<path d="M281.164 228.836C287.169 228.836 292.037 223.968 292.037 217.963C292.037 211.958 287.169 207.09 281.164 207.09C275.159 207.09 270.291 211.958 270.291 217.963C270.291 223.968 275.159 228.836 281.164 228.836Z" fill="#E1E4E5"/>
<path d="M281.164 323.828C287.169 323.828 292.037 318.96 292.037 312.955C292.037 306.95 287.169 302.082 281.164 302.082C275.159 302.082 270.291 306.95 270.291 312.955C270.291 318.96 275.159 323.828 281.164 323.828Z" fill="#E1E4E5"/>
<path d="M206.772 155.588C212.777 155.588 217.645 150.72 217.645 144.715C217.645 138.71 212.777 133.842 206.772 133.842C200.767 133.842 195.899 138.71 195.899 144.715C195.899 150.72 200.767 155.588 206.772 155.588Z" fill="#E1E4E5"/>
<path d="M206.772 250.58C212.777 250.58 217.645 245.712 217.645 239.707C217.645 233.702 212.777 228.834 206.772 228.834C200.767 228.834 195.899 233.702 195.899 239.707C195.899 245.712 200.767 250.58 206.772 250.58Z" fill="#E1E4E5"/>
<path d="M384.169 228.836C390.174 228.836 395.042 223.968 395.042 217.963C395.042 211.958 390.174 207.09 384.169 207.09C378.164 207.09 373.296 211.958 373.296 217.963C373.296 223.968 378.164 228.836 384.169 228.836Z" fill="#E1E4E5"/>
<path d="M384.169 323.828C390.174 323.828 395.042 318.96 395.042 312.955C395.042 306.95 390.174 302.082 384.169 302.082C378.164 302.082 373.296 306.95 373.296 312.955C373.296 318.96 378.164 323.828 384.169 323.828Z" fill="#E1E4E5"/>
<path d="M458.561 300.937C464.566 300.937 469.434 296.069 469.434 290.064C469.434 284.059 464.566 279.191 458.561 279.191C452.556 279.191 447.688 284.059 447.688 290.064C447.688 296.069 452.556 300.937 458.561 300.937Z" fill="#E1E4E5"/>
<path d="M458.561 395.932C464.566 395.932 469.434 391.064 469.434 385.059C469.434 379.054 464.566 374.186 458.561 374.186C452.556 374.186 447.688 379.054 447.688 385.059C447.688 391.064 452.556 395.932 458.561 395.932Z" fill="#E1E4E5"/>
<path d="M457.989 219.935C486.699 182.969 533.243 182.969 561.952 219.935M295.471 423.656C324.18 386.69 370.724 386.69 399.434 423.656M124.94 329.807C153.65 292.841 200.194 292.841 228.903 329.807" stroke="#E1E4E5" stroke-width="4" stroke-linecap="round" stroke-linejoin="round"/>
<path d="M527.972 200.149C537.19 209.367 537.19 224.313 527.972 233.531C518.754 242.75 503.808 242.75 494.589 233.531C485.371 224.313 485.371 209.367 494.589 200.149C503.808 190.93 518.754 190.93 527.972 200.149ZM365.453 403.869C374.672 413.088 374.672 428.034 365.453 437.252C356.235 446.471 341.289 446.471 332.07 437.252C322.852 428.034 322.852 413.088 332.07 403.869C341.289 394.651 356.235 394.651 365.453 403.869ZM194.923 310.02C204.142 319.239 204.142 334.185 194.923 343.403C185.705 352.622 170.759 352.622 161.54 343.403C152.322 334.185 152.322 319.239 161.54 310.02C170.759 300.802 185.705 300.802 194.923 310.02Z" stroke="#E1E4E5" stroke-width="4" stroke-linecap="round" stroke-linejoin="round"/>
<path d="M766.154 221.58C749.318 229.932 726.971 219.193 726.971 219.193C726.971 219.193 731.937 194.918 748.783 186.577C765.62 178.225 787.957 188.953 787.957 188.953C787.957 188.953 782.991 213.228 766.154 221.58Z" fill="url(#paint0_linear_1235_21144)"/>
<path d="M194.056 421.078C207.119 409.791 205.975 387.046 205.975 387.046C205.975 387.046 183.65 382.615 170.593 393.913C157.53 405.201 158.667 427.935 158.667 427.935C158.667 427.935 180.992 432.366 194.056 421.078Z" fill="url(#paint1_linear_1235_21144)"/>
<path d="M664.052 476.605C664.052 469.73 658.479 464.157 651.604 464.157C644.729 464.157 639.156 469.73 639.156 476.605C639.156 483.48 644.729 489.053 651.604 489.053C658.479 489.053 664.052 483.48 664.052 476.605Z" fill="#4F27AA"/>
<path d="M271.435 385.629C271.435 379.308 266.311 374.184 259.99 374.184C253.669 374.184 248.545 379.308 248.545 385.629C248.545 391.95 253.669 397.074 259.99 397.074C266.311 397.074 271.435 391.95 271.435 385.629Z" fill="#4F27AA"/>
<path d="M414.017 105.228C403.537 105.228 395.041 113.724 395.041 124.204C395.041 134.684 403.537 143.18 414.017 143.18C424.497 143.18 432.993 134.684 432.993 124.204C432.993 113.724 424.497 105.228 414.017 105.228Z" fill="#4F27AA"/>
<path d="M647.813 187.626C639.08 187.626 632 180.546 632 171.813C632 163.08 639.08 156 647.813 156C656.546 156 663.626 163.08 663.626 171.813C663.626 180.546 656.546 187.626 647.813 187.626Z" fill="#4F27AA"/>
<path d="M501.992 342.02C497.917 342.02 494.613 338.716 494.613 334.641C494.613 330.565 497.917 327.262 501.992 327.262C506.067 327.262 509.371 330.565 509.371 334.641C509.371 338.716 506.067 342.02 501.992 342.02Z" fill="#E1E4E5"/>
<path d="M349.775 280.067C345.7 280.067 342.396 276.763 342.396 272.688C342.396 268.612 345.7 265.309 349.775 265.309C353.85 265.309 357.154 268.612 357.154 272.688C357.154 276.763 353.85 280.067 349.775 280.067Z" fill="#E1E4E5"/>
<path d="M732.709 467.127C729.003 463.422 729.003 457.414 732.709 453.709C736.414 450.004 742.421 450.004 746.127 453.709C749.832 457.414 749.832 463.422 746.127 467.127C742.421 470.832 736.414 470.832 732.709 467.127Z" fill="#E1E4E5"/>
<path d="M224.341 280.546C221.152 280.546 218.567 277.961 218.567 274.772C218.567 271.583 221.152 268.998 224.341 268.998C227.53 268.998 230.115 271.583 230.115 274.772C230.115 277.961 227.53 280.546 224.341 280.546Z" fill="#E1E4E5"/>
<path d="M111.708 416.902C107.621 416.902 104.308 413.588 104.308 409.502C104.308 405.415 107.621 402.102 111.708 402.102C115.795 402.102 119.108 405.415 119.108 409.502C119.108 413.588 115.795 416.902 111.708 416.902Z" fill="#E1E4E5"/>
<path d="M522.905 158.375C518.026 158.375 514.071 154.42 514.071 149.541C514.071 144.662 518.026 140.707 522.905 140.707C527.784 140.707 531.739 144.662 531.739 149.541C531.739 154.42 527.784 158.375 522.905 158.375Z" fill="#E1E4E5"/>
<path d="M348.27 141.748C349.101 144.851 347.26 148.04 344.157 148.871C341.054 149.702 337.865 147.861 337.034 144.758C336.203 141.656 338.044 138.467 341.146 137.635C344.249 136.804 347.438 138.645 348.27 141.748Z" fill="#E1E4E5"/>
<path d="M324.655 366.175C320.547 366.175 317.216 362.844 317.216 358.736C317.216 354.627 320.547 351.297 324.655 351.297C328.763 351.297 332.094 354.627 332.094 358.736C332.094 362.844 328.763 366.175 324.655 366.175Z" fill="#E1E4E5"/>
<path d="M542.205 463.59C538.044 459.428 537.369 453.356 540.698 450.027C544.027 446.697 550.1 447.372 554.261 451.533C558.423 455.695 559.097 461.767 555.768 465.096C552.439 468.426 546.366 467.751 542.205 463.59Z" fill="#E1E4E5"/>
<path d="M596.935 99.8718C598.683 106.395 594.812 113.099 588.29 114.847C581.767 116.595 575.062 112.724 573.315 106.201C571.567 99.6783 575.438 92.9738 581.961 91.226C588.483 89.4783 595.188 93.3491 596.935 99.8718Z" fill="#E1E4E5"/>
<path d="M727.105 338.707H727.275C728.281 352.964 738.884 353.183 738.884 353.183C738.884 353.183 727.192 353.412 727.192 369.885C727.192 353.412 715.501 353.183 715.501 353.183C715.501 353.183 726.099 352.964 727.105 338.707ZM271.581 129.264H271.733C272.639 142.303 282.182 142.504 282.182 142.504C282.182 142.504 271.659 142.713 271.659 157.779C271.659 142.713 261.136 142.504 261.136 142.504C261.136 142.504 270.675 142.303 271.581 129.264Z" fill="#E1E4E5"/>
<path fill-rule="evenodd" clip-rule="evenodd" d="M179.093 484.47H183.886C185.045 484.47 185.979 485.413 185.979 486.562V491.356C185.978 491.911 185.758 492.443 185.365 492.835C184.973 493.228 184.441 493.448 183.886 493.449H179.093C178.539 493.447 178.007 493.226 177.615 492.834C177.223 492.442 177.002 491.91 177 491.356V486.562C176.999 486.287 177.053 486.015 177.158 485.761C177.263 485.506 177.417 485.276 177.612 485.081C177.806 484.887 178.037 484.733 178.291 484.628C178.546 484.523 178.818 484.469 179.093 484.47ZM195.713 484.47H200.506C201.06 484.472 201.591 484.693 201.984 485.085C202.376 485.477 202.597 486.008 202.599 486.562V491.356C202.598 491.911 202.378 492.443 201.985 492.835C201.593 493.228 201.061 493.448 200.506 493.449H195.713C195.159 493.447 194.627 493.226 194.235 492.834C193.843 492.442 193.622 491.91 193.62 491.356V486.562C193.622 486.008 193.843 485.477 194.235 485.085C194.628 484.693 195.159 484.472 195.713 484.47ZM212.344 484.47H217.138C217.692 484.472 218.223 484.693 218.615 485.085C219.007 485.477 219.228 486.008 219.23 486.562V491.356C219.229 491.911 219.009 492.443 218.617 492.835C218.225 493.227 217.693 493.448 217.138 493.449H212.344C211.79 493.447 211.259 493.225 210.867 492.833C210.475 492.441 210.254 491.91 210.252 491.356V486.562C210.251 486.287 210.305 486.015 210.41 485.761C210.515 485.507 210.669 485.276 210.863 485.081C211.058 484.887 211.289 484.733 211.543 484.628C211.797 484.523 212.069 484.469 212.344 484.47ZM228.964 484.47H233.758C234.312 484.472 234.843 484.693 235.235 485.085C235.627 485.477 235.848 486.008 235.85 486.562V491.356C235.849 491.911 235.629 492.443 235.237 492.835C234.845 493.227 234.313 493.448 233.758 493.449H228.964C228.408 493.449 227.875 493.228 227.481 492.836C227.087 492.444 226.865 491.912 226.862 491.356V486.562C226.868 486.007 227.092 485.477 227.485 485.086C227.878 484.695 228.409 484.473 228.964 484.47ZM245.586 484.47H250.38C251.539 484.47 252.482 485.413 252.482 486.562V491.356C252.481 491.631 252.427 491.904 252.321 492.158C252.215 492.413 252.06 492.644 251.865 492.838C251.669 493.032 251.438 493.186 251.183 493.291C250.928 493.396 250.655 493.45 250.38 493.449H245.586C245.032 493.447 244.501 493.225 244.109 492.833C243.717 492.441 243.496 491.91 243.494 491.356V486.562C243.496 486.008 243.717 485.477 244.109 485.085C244.501 484.693 245.032 484.472 245.586 484.47ZM196.323 502.594H201.116C201.67 502.596 202.201 502.817 202.594 503.209C202.986 503.601 203.207 504.132 203.209 504.686V509.49C203.207 510.044 202.986 510.575 202.594 510.967C202.201 511.359 201.67 511.58 201.116 511.582H196.323C195.768 511.582 195.236 511.361 194.844 510.969C194.451 510.577 194.231 510.045 194.23 509.49V504.696C194.228 504.42 194.281 504.147 194.386 503.892C194.49 503.637 194.644 503.405 194.839 503.209C195.033 503.014 195.265 502.859 195.519 502.753C195.774 502.648 196.047 502.594 196.323 502.594ZM212.943 502.594H217.736C218.29 502.596 218.821 502.817 219.214 503.209C219.606 503.601 219.827 504.132 219.829 504.686V509.49C219.827 510.044 219.606 510.575 219.214 510.967C218.821 511.359 218.29 511.58 217.736 511.582H212.943C212.389 511.58 211.857 511.359 211.465 510.967C211.073 510.575 210.852 510.044 210.85 509.49V504.696C210.848 504.42 210.901 504.147 211.006 503.892C211.11 503.637 211.264 503.405 211.459 503.209C211.653 503.014 211.885 502.859 212.139 502.753C212.394 502.648 212.667 502.594 212.943 502.594ZM229.564 502.594H234.358C235.517 502.594 236.46 503.537 236.46 504.686V509.49C236.457 510.046 236.235 510.578 235.841 510.97C235.447 511.362 234.914 511.582 234.358 511.582H229.564C229.01 511.58 228.479 511.359 228.087 510.967C227.695 510.575 227.474 510.044 227.472 509.49V504.696C227.472 503.537 228.415 502.594 229.564 502.594ZM212.344 465H217.138C217.692 465.002 218.223 465.223 218.615 465.615C219.007 466.007 219.228 466.538 219.23 467.092V471.886C219.229 472.441 219.009 472.973 218.617 473.365C218.225 473.757 217.693 473.978 217.138 473.979L212.344 473.978C211.79 473.976 211.259 473.755 210.867 473.363C210.475 472.971 210.254 472.44 210.252 471.886V467.092C210.251 466.817 210.305 466.545 210.41 466.291C210.515 466.037 210.669 465.806 210.863 465.611C211.058 465.417 211.289 465.263 211.543 465.158C211.797 465.053 212.069 464.999 212.344 465ZM228.964 465H233.758C234.312 465.002 234.843 465.223 235.235 465.615C235.627 466.007 235.848 466.538 235.85 467.092V471.886C235.849 472.441 235.629 472.973 235.237 473.365C234.845 473.757 234.313 473.978 233.758 473.979L228.964 473.978C228.408 473.978 227.875 473.758 227.481 473.366C227.087 472.974 226.865 472.442 226.862 471.886V467.092C226.868 466.537 227.092 466.007 227.485 465.616C227.878 465.225 228.409 465.003 228.964 465ZM433.092 457.47H437.886C439.045 457.47 439.979 458.413 439.979 459.562V464.356C439.978 464.911 439.758 465.443 439.365 465.835C438.973 466.228 438.441 466.448 437.886 466.449H433.092C432.538 466.447 432.007 466.225 431.615 465.833C431.223 465.441 431.002 464.91 431 464.356V459.562C430.999 459.287 431.053 459.015 431.158 458.761C431.263 458.507 431.417 458.276 431.611 458.081C431.806 457.887 432.037 457.733 432.291 457.628C432.545 457.523 432.817 457.469 433.092 457.47ZM449.713 457.47H454.506C455.06 457.472 455.591 457.693 455.984 458.085C456.376 458.477 456.597 459.008 456.599 459.562V464.356C456.598 464.911 456.378 465.443 455.985 465.835C455.593 466.228 455.061 466.448 454.506 466.449H449.713C449.159 466.447 448.627 466.226 448.235 465.834C447.843 465.442 447.622 464.91 447.62 464.356V459.562C447.622 459.008 447.843 458.477 448.235 458.085C448.628 457.693 449.159 457.472 449.713 457.47ZM466.344 457.47H471.138C471.692 457.472 472.223 457.693 472.615 458.085C473.007 458.477 473.228 459.008 473.23 459.562V464.356C473.229 464.911 473.009 465.443 472.617 465.835C472.225 466.227 471.693 466.448 471.138 466.449H466.344C465.79 466.447 465.259 466.225 464.867 465.833C464.475 465.441 464.254 464.91 464.252 464.356V459.562C464.251 459.287 464.305 459.015 464.41 458.761C464.515 458.507 464.669 458.276 464.863 458.081C465.058 457.887 465.289 457.733 465.543 457.628C465.797 457.523 466.069 457.469 466.344 457.47ZM482.964 457.47H487.758C488.312 457.472 488.843 457.693 489.235 458.085C489.627 458.477 489.848 459.008 489.85 459.562V464.356C489.849 464.911 489.629 465.443 489.237 465.835C488.845 466.227 488.313 466.448 487.758 466.449H482.964C482.408 466.449 481.875 466.228 481.481 465.836C481.087 465.444 480.865 464.912 480.862 464.356V459.562C480.868 459.007 481.092 458.477 481.485 458.086C481.878 457.695 482.409 457.473 482.964 457.47ZM499.586 457.47H504.38C505.539 457.47 506.482 458.413 506.482 459.562V464.356C506.481 464.631 506.427 464.904 506.321 465.158C506.215 465.413 506.06 465.644 505.865 465.838C505.669 466.032 505.438 466.186 505.183 466.291C504.928 466.396 504.655 466.45 504.38 466.449H499.586C499.032 466.447 498.501 466.225 498.109 465.833C497.717 465.441 497.496 464.91 497.494 464.356V459.562C497.496 459.008 497.717 458.477 498.109 458.085C498.501 457.693 499.032 457.472 499.586 457.47ZM450.323 475.594H455.116C455.67 475.596 456.202 475.817 456.594 476.209C456.986 476.601 457.207 477.132 457.209 477.686V482.49C457.207 483.044 456.986 483.575 456.594 483.967C456.202 484.359 455.67 484.58 455.116 484.582H450.323C449.768 484.582 449.236 484.361 448.844 483.969C448.451 483.577 448.231 483.045 448.23 482.49V477.696C448.228 477.42 448.281 477.147 448.386 476.892C448.49 476.637 448.644 476.405 448.839 476.209C449.034 476.014 449.265 475.859 449.52 475.753C449.774 475.648 450.047 475.594 450.323 475.594ZM466.943 475.594H471.736C472.29 475.596 472.822 475.817 473.214 476.209C473.606 476.601 473.827 477.132 473.829 477.686V482.49C473.827 483.044 473.606 483.575 473.214 483.967C472.822 484.359 472.29 484.58 471.736 484.582H466.943C466.389 484.58 465.858 484.359 465.465 483.967C465.073 483.575 464.852 483.044 464.85 482.49V477.696C464.848 477.42 464.901 477.147 465.006 476.892C465.11 476.637 465.264 476.405 465.459 476.209C465.654 476.014 465.885 475.859 466.139 475.753C466.394 475.648 466.667 475.594 466.943 475.594ZM483.564 475.594H488.358C489.517 475.594 490.46 476.537 490.46 477.686V482.49C490.457 483.046 490.235 483.578 489.841 483.97C489.447 484.362 488.914 484.582 488.358 484.582H483.564C483.01 484.58 482.479 484.359 482.087 483.967C481.695 483.575 481.474 483.044 481.472 482.49V477.696C481.472 476.537 482.415 475.594 483.564 475.594ZM466.344 438H471.138C471.692 438.002 472.223 438.223 472.615 438.615C473.007 439.007 473.228 439.538 473.23 440.092V444.886C473.229 445.441 473.009 445.973 472.617 446.365C472.225 446.757 471.693 446.978 471.138 446.979L466.344 446.978C465.79 446.976 465.259 446.755 464.867 446.363C464.475 445.971 464.254 445.44 464.252 444.886V440.092C464.251 439.817 464.305 439.545 464.41 439.291C464.515 439.037 464.669 438.806 464.863 438.611C465.058 438.417 465.289 438.263 465.543 438.158C465.797 438.053 466.069 437.999 466.344 438ZM482.964 438H487.758C488.312 438.002 488.843 438.223 489.235 438.615C489.627 439.007 489.848 439.538 489.85 440.092V444.886C489.849 445.441 489.629 445.973 489.237 446.365C488.845 446.757 488.313 446.978 487.758 446.979L482.964 446.978C482.408 446.978 481.875 446.758 481.481 446.366C481.087 445.974 480.865 445.442 480.862 444.886V440.092C480.868 439.537 481.092 439.007 481.485 438.616C481.878 438.225 482.409 438.003 482.964 438Z" fill="#E1E4E5"/>
</g>
<defs>
<linearGradient id="paint0_linear_1235_21144" x1="701.499" y1="247.632" x2="840.369" y2="137.786" gradientUnits="userSpaceOnUse">
<stop stop-color="white"/>
<stop offset="1" stop-color="#EEEEEE"/>
</linearGradient>
<linearGradient id="paint1_linear_1235_21144" x1="239.122" y1="375.592" x2="96.687" y2="454.116" gradientUnits="userSpaceOnUse">
<stop stop-color="white"/>
<stop offset="1" stop-color="#EEEEEE"/>
</linearGradient>
<clipPath id="clip0_1235_21144">
<rect width="900" height="600" fill="white"/>
</clipPath>
</defs>
</svg>
