<svg width="900" height="600" viewBox="0 0 900 600" fill="none" xmlns="http://www.w3.org/2000/svg">
<g clip-path="url(#clip0_1235_21177)">
<path d="M263.047 418.917C263.047 416.812 261.341 415.119 259.222 415.102C245.91 415.086 201.719 415.053 188.407 415.037C187.395 415.033 186.422 415.43 185.702 416.142C184.982 416.854 184.574 417.822 184.566 418.834C184.566 424.638 184.549 435.654 184.549 441.457C184.549 443.562 186.254 445.255 188.374 445.272C201.686 445.288 245.877 445.321 259.189 445.337C261.308 445.337 263.03 443.644 263.03 441.539C263.03 435.736 263.03 424.72 263.047 418.917ZM261.955 479.72C261.955 477.616 260.25 475.922 258.13 475.906C244.818 475.89 200.627 475.857 187.315 475.84C185.196 475.84 183.49 477.534 183.49 479.638C183.49 485.442 183.474 496.457 183.474 502.261C183.474 504.365 185.179 506.059 187.298 506.075C200.61 506.092 244.802 506.125 258.114 506.141C259.127 506.145 260.099 505.747 260.819 505.035C261.539 504.324 261.947 503.356 261.955 502.343C261.938 496.539 261.955 485.524 261.955 479.72V479.72Z" stroke="#E1E4E5" stroke-width="4" stroke-miterlimit="10" stroke-linecap="round" stroke-linejoin="round"/>
<path d="M299.324 449.533C299.324 447.428 297.618 445.735 295.499 445.718C282.187 445.702 237.996 445.669 224.684 445.652C222.564 445.652 220.842 447.346 220.842 449.45C220.842 455.254 220.826 466.27 220.826 472.073C220.826 474.178 222.531 475.871 224.651 475.887C237.963 475.904 282.154 475.937 295.466 475.953C297.585 475.953 299.307 474.26 299.307 472.155C299.307 466.335 299.324 455.336 299.324 449.533ZM298.811 510.399C298.811 508.294 297.106 506.601 294.986 506.584C281.674 506.568 237.483 506.535 224.171 506.518C223.159 506.514 222.186 506.911 221.466 507.623C220.746 508.335 220.338 509.303 220.33 510.316C220.33 516.12 220.313 527.136 220.313 532.939C220.313 535.044 222.019 536.737 224.138 536.754C237.45 536.77 281.641 536.803 294.953 536.819C295.454 536.822 295.95 536.726 296.414 536.536C296.878 536.347 297.299 536.068 297.655 535.715C298.01 535.362 298.293 534.942 298.485 534.48C298.678 534.017 298.777 533.522 298.778 533.021C298.811 527.201 298.811 516.202 298.811 510.399V510.399ZM420.34 419.064C420.34 416.96 418.635 415.267 416.515 415.25C403.203 415.234 359.012 415.201 345.7 415.184C344.688 415.18 343.715 415.577 342.995 416.289C342.275 417.001 341.867 417.969 341.859 418.982C341.859 424.786 341.842 435.801 341.842 441.605C341.842 443.709 343.548 445.403 345.667 445.419C358.979 445.436 403.17 445.469 416.482 445.485C418.601 445.485 420.307 443.792 420.307 441.687C420.34 435.867 420.34 424.868 420.34 419.064ZM419.265 479.871C419.265 477.766 417.56 476.073 415.441 476.056C402.112 476.04 357.937 476.007 344.625 475.99C342.506 475.99 340.784 477.684 340.784 479.788C340.784 485.592 340.767 496.607 340.767 502.411C340.767 504.516 342.473 506.209 344.592 506.225C357.904 506.242 402.079 506.275 415.407 506.291C415.908 506.294 416.404 506.198 416.868 506.008C417.332 505.819 417.753 505.54 418.109 505.187C418.464 504.834 418.746 504.414 418.939 503.952C419.132 503.489 419.231 502.993 419.232 502.493C419.249 496.673 419.265 485.674 419.265 479.871V479.871Z" stroke="#E1E4E5" stroke-width="4" stroke-miterlimit="10" stroke-linecap="round" stroke-linejoin="round"/>
<path d="M456.633 449.253C456.633 447.149 454.928 445.455 452.808 445.439C439.496 445.422 395.305 445.389 381.993 445.373C380.981 445.369 380.008 445.767 379.288 446.479C378.568 447.191 378.16 448.159 378.152 449.171C378.152 454.975 378.135 465.99 378.135 471.794C378.135 473.898 379.841 475.592 381.96 475.608C395.272 475.625 439.463 475.657 452.775 475.674C453.276 475.677 453.772 475.581 454.236 475.391C454.7 475.202 455.121 474.923 455.477 474.57C455.832 474.217 456.114 473.797 456.307 473.335C456.5 472.873 456.599 472.377 456.6 471.876C456.633 466.056 456.633 455.057 456.633 449.253ZM456.12 510.117C456.12 508.012 454.414 506.319 452.295 506.302C438.983 506.286 394.808 506.253 381.48 506.236C380.979 506.233 380.483 506.329 380.019 506.519C379.555 506.708 379.134 506.988 378.778 507.34C378.423 507.693 378.141 508.113 377.948 508.575C377.755 509.038 377.656 509.533 377.655 510.034C377.655 515.838 377.638 526.854 377.638 532.657C377.638 534.762 379.344 536.455 381.463 536.471C394.775 536.488 438.966 536.521 452.278 536.537C452.779 536.54 453.275 536.444 453.739 536.255C454.203 536.065 454.624 535.786 454.98 535.433C455.335 535.08 455.618 534.661 455.81 534.198C456.003 533.736 456.102 533.24 456.103 532.739C456.12 526.919 456.12 515.92 456.12 510.117V510.117ZM341.693 418.984C341.692 418.483 341.593 417.988 341.4 417.526C341.207 417.063 340.925 416.644 340.57 416.291C340.215 415.938 339.793 415.659 339.33 415.47C338.866 415.28 338.37 415.184 337.869 415.187C324.557 415.17 280.365 415.137 267.053 415.121C266.552 415.118 266.056 415.214 265.592 415.404C265.129 415.593 264.707 415.873 264.352 416.226C263.996 416.578 263.714 416.998 263.522 417.46C263.329 417.923 263.23 418.418 263.229 418.919C263.229 424.722 263.212 435.738 263.212 441.542C263.212 443.646 264.918 445.339 267.037 445.356C280.349 445.372 324.54 445.405 337.852 445.422C339.971 445.422 341.677 443.728 341.677 441.624C341.677 435.804 341.677 424.805 341.693 418.984ZM340.617 479.784C340.617 477.679 338.912 475.986 336.793 475.969C323.481 475.953 279.289 475.92 265.977 475.904C265.476 475.901 264.98 475.997 264.516 476.187C264.053 476.376 263.631 476.655 263.276 477.008C262.921 477.361 262.639 477.78 262.446 478.243C262.253 478.705 262.154 479.2 262.153 479.701C262.153 485.505 262.136 496.521 262.136 502.324C262.136 504.429 263.842 506.122 265.961 506.139C279.273 506.155 323.464 506.188 336.776 506.204C338.895 506.204 340.601 504.511 340.601 502.407C340.601 496.603 340.601 485.604 340.617 479.784Z" stroke="#E1E4E5" stroke-width="4" stroke-miterlimit="10" stroke-linecap="round" stroke-linejoin="round"/>
<path d="M377.971 449.123C377.971 447.018 376.266 445.325 374.147 445.309C360.835 445.292 316.643 445.259 303.331 445.243C302.318 445.239 301.346 445.636 300.626 446.348C299.906 447.06 299.498 448.028 299.49 449.041C299.49 454.844 299.473 465.86 299.473 471.664C299.473 473.768 301.179 475.461 303.298 475.478C316.61 475.494 360.801 475.527 374.113 475.544C374.614 475.546 375.11 475.45 375.574 475.261C376.037 475.071 376.459 474.792 376.814 474.439C377.17 474.086 377.452 473.667 377.645 473.204C377.838 472.742 377.937 472.246 377.938 471.746C377.971 465.926 377.971 454.927 377.971 449.123ZM377.475 509.984C377.475 507.879 375.77 506.186 373.65 506.17C360.338 506.153 316.147 506.12 302.835 506.104C301.822 506.1 300.85 506.497 300.13 507.209C299.41 507.921 299.002 508.889 298.994 509.902C298.994 515.705 298.977 526.721 298.977 532.524C298.977 534.629 300.683 536.322 302.802 536.339C316.114 536.355 360.305 536.388 373.617 536.405C375.736 536.405 377.442 534.711 377.442 532.607C377.458 526.787 377.458 515.788 377.475 509.984V509.984ZM498.987 419.135C498.986 418.634 498.887 418.138 498.694 417.676C498.501 417.214 498.219 416.794 497.864 416.442C497.508 416.089 497.087 415.81 496.623 415.62C496.16 415.431 495.664 415.335 495.163 415.338C481.851 415.321 437.66 415.288 424.348 415.272C423.847 415.269 423.35 415.364 422.887 415.554C422.423 415.743 422.001 416.023 421.646 416.376C421.291 416.728 421.008 417.148 420.816 417.61C420.623 418.073 420.523 418.569 420.523 419.07C420.523 424.873 420.49 435.889 420.49 441.692C420.49 443.797 422.195 445.49 424.314 445.507C437.626 445.523 481.818 445.556 495.13 445.573C495.631 445.575 496.127 445.479 496.591 445.29C497.054 445.1 497.476 444.821 497.831 444.468C498.186 444.115 498.469 443.696 498.661 443.233C498.854 442.771 498.953 442.275 498.954 441.775C498.988 435.955 498.987 424.939 498.987 419.135ZM497.913 479.932C497.913 477.828 496.207 476.134 494.088 476.118C480.776 476.101 436.585 476.068 423.273 476.052C421.154 476.052 419.448 477.745 419.448 479.85C419.415 485.654 419.415 496.669 419.415 502.473C419.415 504.577 421.12 506.271 423.24 506.287C436.552 506.303 480.726 506.336 494.055 506.353C496.174 506.353 497.88 504.659 497.88 502.555C497.896 496.751 497.913 485.736 497.913 479.932ZM263.643 297.568C263.643 295.464 261.937 293.77 259.818 293.754C246.506 293.737 202.315 293.704 189.003 293.688C187.99 293.684 187.017 294.081 186.297 294.793C185.577 295.505 185.169 296.473 185.161 297.486C185.161 303.29 185.145 314.305 185.145 320.109C185.146 320.609 185.245 321.105 185.438 321.567C185.631 322.03 185.913 322.449 186.268 322.802C186.624 323.155 187.045 323.434 187.509 323.624C187.973 323.813 188.469 323.909 188.97 323.907C202.282 323.923 246.473 323.956 259.785 323.972C261.904 323.972 263.61 322.279 263.61 320.174C263.626 314.371 263.643 303.372 263.643 297.568ZM262.566 358.366C262.565 357.865 262.466 357.369 262.273 356.906C262.08 356.444 261.798 356.024 261.443 355.672C261.087 355.319 260.666 355.039 260.202 354.85C259.738 354.66 259.242 354.565 258.741 354.568C245.429 354.551 201.238 354.518 187.926 354.502C185.807 354.502 184.085 356.195 184.085 358.3C184.085 364.104 184.068 375.119 184.068 380.923C184.068 383.027 185.774 384.721 187.893 384.737C201.205 384.753 245.396 384.786 258.708 384.803C259.72 384.806 260.693 384.409 261.413 383.697C262.133 382.985 262.542 382.017 262.55 381.005C262.55 375.168 262.566 364.169 262.566 358.366ZM299.937 328.164C299.937 326.059 298.231 324.366 296.112 324.349C282.8 324.333 238.609 324.3 225.297 324.284C224.284 324.28 223.311 324.677 222.591 325.389C221.871 326.101 221.463 327.069 221.455 328.082C221.455 333.885 221.439 344.901 221.439 350.704C221.439 351.204 221.539 351.7 221.732 352.162C221.924 352.625 222.206 353.044 222.562 353.397C222.917 353.75 223.339 354.029 223.802 354.219C224.266 354.408 224.762 354.504 225.263 354.502C238.575 354.519 282.767 354.552 296.079 354.568C296.58 354.57 297.076 354.474 297.54 354.285C298.003 354.095 298.425 353.816 298.78 353.463C299.135 353.11 299.418 352.691 299.61 352.228C299.803 351.766 299.902 351.27 299.903 350.77C299.92 344.983 299.937 333.967 299.937 328.164V328.164ZM299.424 389.026C299.424 386.922 297.718 385.228 295.599 385.228C282.287 385.212 238.096 385.179 224.784 385.163C224.283 385.16 223.786 385.255 223.323 385.445C222.859 385.634 222.437 385.914 222.082 386.267C221.727 386.619 221.444 387.039 221.252 387.501C221.059 387.964 220.959 388.46 220.959 388.961C220.959 394.764 220.942 405.78 220.942 411.583C220.942 413.688 222.648 415.381 224.767 415.381C238.079 415.398 282.27 415.431 295.582 415.447C296.594 415.451 297.567 415.053 298.287 414.341C299.008 413.629 299.416 412.661 299.424 411.649C299.407 405.846 299.424 394.83 299.424 389.026ZM419.877 358.499C419.877 356.395 418.172 354.701 416.052 354.685C402.724 354.668 358.533 354.636 345.221 354.619C344.208 354.615 343.236 355.012 342.516 355.724C341.796 356.436 341.387 357.404 341.379 358.417C341.379 364.221 341.363 375.236 341.363 381.04C341.364 381.54 341.463 382.036 341.656 382.498C341.849 382.961 342.131 383.38 342.486 383.733C342.842 384.086 343.263 384.365 343.727 384.555C344.191 384.744 344.687 384.84 345.188 384.838C358.5 384.854 402.691 384.887 416.019 384.903C418.106 384.903 419.844 383.21 419.844 381.106C419.861 375.318 419.861 364.303 419.877 358.499ZM457.246 327.887C457.246 325.783 455.54 324.089 453.421 324.089C440.109 324.073 395.918 324.04 382.606 324.023C380.487 324.023 378.781 325.717 378.781 327.821C378.781 333.625 378.765 344.64 378.765 350.444C378.765 350.944 378.865 351.44 379.058 351.902C379.25 352.365 379.532 352.784 379.888 353.137C380.243 353.49 380.665 353.769 381.128 353.959C381.592 354.148 382.088 354.244 382.589 354.242C395.901 354.258 440.109 354.291 453.404 354.308C453.905 354.31 454.401 354.214 454.865 354.025C455.328 353.835 455.75 353.556 456.105 353.203C456.461 352.85 456.743 352.431 456.936 351.968C457.129 351.506 457.228 351.01 457.229 350.51C457.213 344.706 457.246 333.691 457.246 327.887Z" stroke="#E1E4E5" stroke-width="4" stroke-miterlimit="10" stroke-linecap="round" stroke-linejoin="round"/>
<path d="M456.734 388.752C456.734 386.648 455.029 384.954 452.909 384.938C439.597 384.922 395.406 384.889 382.094 384.872C379.975 384.872 378.253 386.566 378.253 388.67C378.253 394.474 378.236 405.489 378.236 411.293C378.236 413.397 379.942 415.091 382.061 415.107C395.373 415.124 439.581 415.157 452.876 415.173C453.377 415.176 453.873 415.08 454.337 414.89C454.801 414.701 455.223 414.421 455.578 414.069C455.933 413.716 456.216 413.296 456.408 412.834C456.601 412.371 456.701 411.875 456.701 411.375C456.701 405.571 456.734 394.556 456.734 388.752ZM342.289 297.633C342.288 297.132 342.189 296.636 341.996 296.174C341.803 295.711 341.521 295.292 341.166 294.939C340.81 294.586 340.389 294.307 339.925 294.117C339.461 293.928 338.965 293.832 338.464 293.835C325.152 293.819 280.961 293.786 267.649 293.77C265.53 293.77 263.808 295.463 263.808 297.568C263.808 303.371 263.791 314.387 263.791 320.19C263.791 322.295 265.497 323.988 267.616 324.005C280.928 324.021 325.119 324.054 338.431 324.07C339.443 324.074 340.416 323.676 341.136 322.964C341.856 322.253 342.264 321.285 342.272 320.273C342.289 314.436 342.289 303.437 342.289 297.633ZM341.214 358.432C341.214 356.327 339.508 354.634 337.389 354.634C324.077 354.617 279.886 354.584 266.574 354.568C265.561 354.564 264.589 354.961 263.868 355.673C263.148 356.385 262.74 357.353 262.732 358.366C262.732 364.17 262.716 375.185 262.716 380.989C262.717 381.489 262.816 381.985 263.009 382.447C263.202 382.91 263.484 383.329 263.839 383.682C264.195 384.035 264.616 384.314 265.08 384.504C265.544 384.693 266.04 384.789 266.541 384.787C279.853 384.803 324.044 384.836 337.356 384.852C339.475 384.852 341.181 383.159 341.181 381.054C341.197 375.251 341.214 364.235 341.214 358.432Z" stroke="#E1E4E5" stroke-width="4" stroke-miterlimit="10" stroke-linecap="round" stroke-linejoin="round"/>
<path d="M378.584 327.752C378.584 325.647 376.878 323.954 374.759 323.954C361.447 323.937 317.256 323.905 303.944 323.888C301.825 323.888 300.119 325.582 300.119 327.686C300.119 333.49 300.103 344.505 300.103 350.309C300.104 350.809 300.203 351.305 300.396 351.767C300.588 352.23 300.87 352.649 301.226 353.002C301.581 353.355 302.003 353.634 302.466 353.824C302.93 354.013 303.426 354.109 303.927 354.107C317.239 354.123 361.431 354.156 374.743 354.172C375.755 354.175 376.728 353.778 377.448 353.066C378.167 352.355 378.576 351.387 378.584 350.375C378.567 344.571 378.584 333.555 378.584 327.752V327.752ZM378.071 388.613C378.071 386.508 376.365 384.815 374.246 384.815C360.934 384.798 316.743 384.765 303.431 384.749C302.93 384.746 302.434 384.842 301.97 385.031C301.506 385.22 301.085 385.5 300.729 385.853C300.374 386.205 300.091 386.625 299.899 387.087C299.706 387.55 299.607 388.046 299.606 388.547C299.606 394.351 299.589 405.366 299.589 411.17C299.589 413.274 301.295 414.968 303.414 414.984C316.726 415 360.917 415.033 374.229 415.05C375.242 415.053 376.214 414.656 376.934 413.944C377.654 413.232 378.063 412.264 378.071 411.252V388.613ZM499.6 297.768C499.6 295.663 497.894 293.97 495.775 293.97C482.463 293.953 438.272 293.92 424.96 293.904C424.459 293.901 423.963 293.997 423.499 294.186C423.035 294.375 422.614 294.655 422.258 295.008C421.903 295.36 421.62 295.78 421.428 296.243C421.235 296.705 421.136 297.201 421.135 297.702C421.102 303.506 421.102 314.521 421.102 320.325C421.102 322.429 422.807 324.123 424.927 324.139C438.239 324.155 482.43 324.188 495.742 324.205C497.861 324.205 499.567 322.511 499.567 320.407C499.583 314.587 499.6 303.571 499.6 297.768ZM498.524 358.566C498.523 358.065 498.424 357.569 498.231 357.107C498.038 356.644 497.756 356.225 497.401 355.872C497.045 355.519 496.624 355.24 496.16 355.05C495.696 354.861 495.2 354.765 494.699 354.768C481.371 354.752 437.196 354.719 423.868 354.702C421.781 354.702 420.043 356.396 420.043 358.5C420.043 364.304 420.043 375.319 420.01 381.123C420.01 383.228 421.748 384.921 423.834 384.921C437.163 384.937 481.338 384.97 494.666 384.987C495.167 384.989 495.663 384.893 496.127 384.704C496.591 384.514 497.012 384.235 497.368 383.882C497.723 383.529 498.005 383.11 498.198 382.647C498.391 382.185 498.49 381.689 498.491 381.189C498.507 375.385 498.507 364.386 498.524 358.566ZM264.439 175.757C264.438 175.256 264.339 174.76 264.146 174.298C263.953 173.835 263.671 173.416 263.316 173.063C262.96 172.71 262.539 172.431 262.075 172.241C261.611 172.052 261.115 171.956 260.614 171.959C247.302 171.943 203.111 171.91 189.799 171.893C187.68 171.893 185.974 173.587 185.974 175.691C185.974 181.495 185.958 192.51 185.958 198.314C185.959 198.814 186.058 199.31 186.251 199.772C186.443 200.235 186.725 200.654 187.081 201.007C187.436 201.36 187.858 201.639 188.321 201.829C188.785 202.018 189.281 202.114 189.782 202.112C203.094 202.128 247.286 202.161 260.598 202.178C261.61 202.181 262.583 201.783 263.303 201.072C264.022 200.36 264.431 199.392 264.439 198.38C264.422 192.576 264.439 181.577 264.439 175.757V175.757ZM263.362 236.554C263.362 234.449 261.657 232.756 259.537 232.739C246.225 232.723 202.034 232.69 188.722 232.674C187.71 232.67 186.737 233.067 186.017 233.779C185.297 234.49 184.889 235.458 184.881 236.471C184.881 242.275 184.864 253.291 184.864 259.094C184.864 261.199 186.57 262.892 188.689 262.892C202.001 262.909 246.192 262.942 259.504 262.958C261.623 262.958 263.345 261.265 263.345 259.16C263.345 253.373 263.362 242.357 263.362 236.554V236.554Z" stroke="#E1E4E5" stroke-width="4" stroke-miterlimit="10" stroke-linecap="round" stroke-linejoin="round"/>
<path d="M300.732 206.369C300.732 204.265 299.026 202.571 296.907 202.571C283.595 202.555 239.404 202.522 226.092 202.506C225.591 202.503 225.095 202.599 224.631 202.788C224.167 202.978 223.746 203.257 223.39 203.61C223.035 203.963 222.752 204.383 222.56 204.845C222.367 205.307 222.268 205.803 222.267 206.304C222.267 212.107 222.25 223.123 222.25 228.926C222.25 231.031 223.956 232.724 226.075 232.724C239.387 232.741 283.578 232.774 296.89 232.79C297.391 232.793 297.887 232.697 298.351 232.508C298.815 232.318 299.236 232.039 299.592 231.686C299.947 231.333 300.23 230.913 300.422 230.451C300.615 229.989 300.714 229.493 300.715 228.992C300.715 223.172 300.732 212.173 300.732 206.369V206.369ZM300.217 267.233C300.216 266.732 300.117 266.236 299.924 265.774C299.732 265.312 299.45 264.892 299.094 264.539C298.739 264.186 298.317 263.907 297.854 263.718C297.39 263.528 296.894 263.432 296.393 263.435C283.081 263.418 238.889 263.386 225.577 263.369C223.458 263.369 221.736 265.063 221.736 267.167C221.736 272.971 221.719 283.986 221.719 289.79C221.719 291.894 223.425 293.588 225.544 293.604C238.856 293.621 283.047 293.653 296.359 293.67C298.479 293.67 300.201 291.977 300.201 289.872C300.201 284.035 300.217 273.036 300.217 267.233ZM421.749 175.906C421.748 175.405 421.649 174.909 421.456 174.447C421.263 173.985 420.981 173.565 420.626 173.212C420.27 172.859 419.849 172.58 419.385 172.391C418.921 172.201 418.425 172.105 417.924 172.108C404.612 172.092 360.421 172.059 347.109 172.043C344.99 172.043 343.284 173.736 343.284 175.841C343.284 181.644 343.268 192.66 343.268 198.463C343.269 198.964 343.368 199.46 343.561 199.922C343.754 200.384 344.036 200.804 344.391 201.157C344.747 201.51 345.168 201.789 345.632 201.979C346.096 202.168 346.592 202.264 347.093 202.261C360.405 202.278 404.596 202.311 417.908 202.327C420.027 202.327 421.733 200.634 421.733 198.529C421.749 192.726 421.749 181.71 421.749 175.906V175.906ZM420.672 236.702C420.671 236.201 420.572 235.705 420.379 235.243C420.186 234.781 419.904 234.361 419.549 234.008C419.193 233.655 418.772 233.376 418.308 233.187C417.844 232.997 417.348 232.901 416.847 232.904C403.535 232.888 359.344 232.855 346.032 232.839C343.913 232.839 342.191 234.532 342.191 236.636C342.191 242.44 342.174 253.456 342.174 259.259C342.174 261.364 343.88 263.057 345.999 263.057C359.311 263.074 403.486 263.106 416.814 263.123C417.315 263.126 417.811 263.03 418.275 262.841C418.739 262.651 419.16 262.372 419.516 262.019C419.871 261.666 420.154 261.246 420.346 260.784C420.539 260.322 420.638 259.826 420.639 259.325C420.639 253.521 420.672 242.506 420.672 236.702Z" stroke="#E1E4E5" stroke-width="4" stroke-miterlimit="10" stroke-linecap="round" stroke-linejoin="round"/>
<path d="M458.025 206.089C458.024 205.588 457.925 205.092 457.732 204.63C457.539 204.168 457.257 203.748 456.902 203.395C456.546 203.042 456.125 202.763 455.661 202.573C455.197 202.384 454.701 202.288 454.2 202.291C440.888 202.275 396.697 202.242 383.385 202.225C382.373 202.221 381.4 202.619 380.68 203.331C379.96 204.043 379.552 205.011 379.544 206.023C379.544 211.827 379.527 222.842 379.527 228.646C379.527 230.75 381.233 232.444 383.352 232.46C396.664 232.477 440.855 232.51 454.167 232.526C456.286 232.526 457.992 230.833 457.992 228.728C458.025 222.892 458.025 211.893 458.025 206.089V206.089ZM457.528 266.953C457.528 264.849 455.823 263.155 453.703 263.139C440.391 263.122 396.217 263.09 382.888 263.073C380.769 263.073 379.047 264.767 379.047 266.871C379.047 272.675 379.03 283.69 379.03 289.494C379.03 291.598 380.736 293.292 382.855 293.292C396.167 293.308 440.358 293.341 453.67 293.357C455.79 293.357 457.495 291.664 457.495 289.56C457.528 283.756 457.528 272.757 457.528 266.953V266.953ZM343.102 175.838C343.102 173.733 341.396 172.04 339.277 172.023C325.965 172.007 281.774 171.974 268.462 171.957C266.343 171.957 264.621 173.651 264.621 175.755C264.621 181.559 264.604 192.575 264.604 198.378C264.604 198.879 264.704 199.375 264.897 199.837C265.089 200.299 265.372 200.719 265.727 201.072C266.082 201.425 266.504 201.704 266.968 201.894C267.432 202.083 267.928 202.179 268.429 202.176C281.741 202.193 325.932 202.225 339.244 202.242C341.363 202.242 343.085 200.548 343.085 198.444C343.085 192.64 343.085 181.641 343.102 175.838ZM342.026 236.64C342.026 234.536 340.32 232.842 338.201 232.842C324.889 232.826 280.698 232.793 267.386 232.777C266.885 232.774 266.389 232.87 265.925 233.059C265.461 233.249 265.039 233.528 264.684 233.881C264.329 234.234 264.046 234.654 263.854 235.116C263.661 235.578 263.561 236.074 263.561 236.575C263.561 242.378 263.544 253.394 263.544 259.197C263.544 261.302 265.25 262.995 267.369 263.012C280.681 263.028 324.872 263.061 338.184 263.078C339.196 263.082 340.169 262.684 340.889 261.972C341.609 261.261 342.018 260.293 342.026 259.28C342.009 253.443 342.009 242.444 342.026 236.64V236.64Z" stroke="#E1E4E5" stroke-width="4" stroke-miterlimit="10" stroke-linecap="round" stroke-linejoin="round"/>
<path d="M379.377 205.957C379.377 203.853 377.671 202.159 375.552 202.159C362.24 202.143 318.049 202.11 304.737 202.094C302.618 202.094 300.896 203.787 300.896 205.891C300.896 211.695 300.879 222.711 300.879 228.514C300.879 230.619 302.584 232.312 304.704 232.329C318.016 232.345 362.207 232.378 375.519 232.394C377.638 232.394 379.36 230.701 379.36 228.597C379.36 222.776 379.377 211.761 379.377 205.957ZM378.88 266.824C378.88 264.72 377.174 263.026 375.055 263.01C361.743 262.993 317.552 262.96 304.24 262.944C303.228 262.94 302.255 263.338 301.535 264.05C300.815 264.762 300.407 265.73 300.399 266.742C300.399 272.546 300.382 283.561 300.382 289.365C300.383 289.866 300.482 290.362 300.675 290.824C300.868 291.286 301.15 291.706 301.505 292.059C301.861 292.412 302.282 292.691 302.746 292.88C303.21 293.07 303.706 293.166 304.207 293.163C317.519 293.179 361.71 293.212 375.022 293.228C377.141 293.228 378.847 291.535 378.847 289.43C378.863 283.643 378.863 272.628 378.88 266.824ZM500.396 175.971C500.396 173.867 498.69 172.173 496.571 172.157C483.259 172.14 439.068 172.108 425.756 172.091C425.255 172.088 424.759 172.184 424.295 172.374C423.831 172.563 423.41 172.842 423.054 173.195C422.699 173.548 422.417 173.968 422.224 174.43C422.031 174.892 421.932 175.388 421.931 175.889C421.931 181.693 421.898 192.708 421.898 198.512C421.899 199.013 421.998 199.509 422.191 199.971C422.384 200.433 422.666 200.853 423.021 201.206C423.377 201.559 423.798 201.838 424.262 202.027C424.726 202.217 425.222 202.313 425.723 202.31C439.035 202.326 483.226 202.359 496.538 202.376C498.657 202.376 500.363 200.682 500.363 198.578C500.396 192.79 500.396 181.775 500.396 175.971ZM499.318 236.771C499.317 236.27 499.218 235.775 499.025 235.313C498.832 234.85 498.55 234.431 498.195 234.078C497.84 233.725 497.418 233.446 496.954 233.257C496.491 233.067 495.995 232.971 495.494 232.974C482.182 232.957 437.99 232.924 424.678 232.908C424.177 232.905 423.681 233.001 423.217 233.191C422.754 233.38 422.332 233.66 421.977 234.012C421.621 234.365 421.339 234.785 421.147 235.247C420.954 235.709 420.854 236.205 420.854 236.706C420.821 242.509 420.821 253.525 420.821 259.329C420.821 261.433 422.526 263.126 424.645 263.143C437.957 263.159 482.149 263.192 495.461 263.209C495.962 263.212 496.458 263.116 496.922 262.926C497.385 262.737 497.807 262.458 498.162 262.105C498.517 261.752 498.8 261.332 498.992 260.87C499.185 260.408 499.284 259.912 499.285 259.411C499.302 253.591 499.318 242.575 499.318 236.771ZM264.139 53.8801C264.139 51.7761 262.434 50.0821 260.315 50.0661C247.003 50.0491 202.811 50.0161 189.499 50.0001C188.998 49.9972 188.502 50.0932 188.038 50.2828C187.575 50.4723 187.153 50.7515 186.798 51.1044C186.442 51.4573 186.16 51.877 185.968 52.3392C185.775 52.8015 185.675 53.2973 185.675 53.7981C185.675 59.6011 185.658 70.6171 185.658 76.4211C185.658 78.5251 187.364 80.2191 189.483 80.2191C202.795 80.2351 246.986 80.2681 260.298 80.2841C262.417 80.2841 264.123 78.5911 264.123 76.4871C264.123 70.6991 264.139 59.6841 264.139 53.8801V53.8801ZM263.062 114.68C263.061 114.179 262.962 113.683 262.769 113.221C262.577 112.759 262.295 112.339 261.939 111.986C261.584 111.634 261.162 111.354 260.699 111.165C260.235 110.975 259.739 110.879 259.238 110.882C245.926 110.866 201.734 110.833 188.422 110.817C187.41 110.813 186.437 111.211 185.717 111.922C184.997 112.634 184.589 113.602 184.581 114.614C184.581 120.418 184.565 131.434 184.565 137.237C184.565 139.342 186.27 141.035 188.389 141.052C201.701 141.068 245.893 141.101 259.205 141.117C259.706 141.12 260.202 141.024 260.665 140.834C261.129 140.645 261.551 140.366 261.906 140.013C262.261 139.66 262.543 139.241 262.736 138.779C262.929 138.316 263.028 137.821 263.029 137.32C263.046 131.499 263.062 120.484 263.062 114.68V114.68ZM300.432 84.4761C300.432 82.3711 298.727 80.6781 296.607 80.6611C283.295 80.6451 239.104 80.6121 225.792 80.5961C223.673 80.5961 221.967 82.2891 221.967 84.3941C221.967 90.1971 221.951 101.213 221.951 107.016C221.951 107.517 222.051 108.013 222.244 108.475C222.436 108.937 222.718 109.357 223.074 109.71C223.429 110.063 223.851 110.342 224.314 110.531C224.778 110.721 225.274 110.817 225.775 110.814C239.087 110.831 283.279 110.864 296.591 110.88C297.603 110.884 298.576 110.486 299.296 109.774C300.016 109.063 300.424 108.094 300.432 107.082C300.415 101.295 300.432 90.2791 300.432 84.4761V84.4761ZM299.92 145.338C299.919 144.837 299.82 144.341 299.627 143.879C299.435 143.417 299.153 142.997 298.797 142.644C298.442 142.292 298.02 142.012 297.557 141.823C297.093 141.633 296.597 141.537 296.096 141.54C282.784 141.524 238.592 141.491 225.28 141.475C223.161 141.475 221.439 143.168 221.439 145.273C221.439 151.076 221.422 162.092 221.422 167.895C221.422 170 223.128 171.693 225.247 171.693C238.559 171.71 282.75 171.743 296.062 171.759C298.182 171.759 299.904 170.066 299.904 167.961C299.904 162.158 299.92 151.142 299.92 145.338ZM421.433 54.0081C421.466 51.9031 419.727 50.2101 417.624 50.1931C404.296 50.1771 360.105 50.1431 346.793 50.1271C346.292 50.124 345.796 50.22 345.332 50.4095C344.868 50.5989 344.446 50.8781 344.091 51.2311C343.736 51.584 343.453 52.0037 343.261 52.466C343.068 52.9283 342.968 53.4242 342.968 53.9251C342.968 59.7291 342.951 70.7451 342.951 76.5481C342.951 78.6531 344.657 80.3461 346.776 80.3461C360.088 80.3621 404.279 80.3961 417.608 80.4121C419.694 80.4121 421.433 78.7181 421.433 76.6141V54.0081V54.0081ZM420.374 114.814C420.374 112.709 418.669 111.016 416.55 110.999C403.238 110.983 359.047 110.95 345.735 110.934C343.615 110.934 341.893 112.627 341.893 114.732C341.893 120.535 341.877 131.551 341.877 137.354C341.877 139.459 343.582 141.152 345.701 141.169C359.013 141.185 403.205 141.218 416.517 141.234C417.018 141.237 417.514 141.141 417.978 140.951C418.441 140.762 418.863 140.483 419.218 140.13C419.573 139.777 419.855 139.358 420.048 138.896C420.241 138.433 420.34 137.938 420.341 137.437C420.374 131.633 420.374 120.634 420.374 114.814V114.814Z" stroke="#E1E4E5" stroke-width="4" stroke-miterlimit="10" stroke-linecap="round" stroke-linejoin="round"/>
<path d="M457.742 84.1931C457.742 82.0881 456.004 80.3951 453.918 80.3951C440.589 80.3791 396.398 80.3451 383.086 80.3291C380.967 80.3291 379.261 82.0231 379.261 84.1271C379.261 89.9311 379.245 100.946 379.245 106.75C379.246 107.251 379.345 107.747 379.538 108.209C379.73 108.671 380.012 109.091 380.368 109.444C380.723 109.797 381.145 110.076 381.608 110.265C382.072 110.455 382.568 110.551 383.069 110.548C396.381 110.564 440.573 110.597 453.901 110.614C455.987 110.614 457.726 108.92 457.726 106.816C457.726 101.012 457.726 90.0131 457.742 84.1931ZM457.247 145.059C457.246 144.558 457.147 144.062 456.954 143.6C456.762 143.138 456.479 142.718 456.124 142.365C455.768 142.012 455.347 141.733 454.883 141.544C454.419 141.354 453.923 141.258 453.422 141.261C440.094 141.245 395.919 141.212 382.59 141.195C380.471 141.195 378.749 142.889 378.749 144.993C378.749 150.797 378.733 161.812 378.733 167.616C378.733 169.72 380.438 171.414 382.557 171.43C395.869 171.447 440.061 171.48 453.389 171.496C453.89 171.499 454.386 171.403 454.85 171.214C455.314 171.024 455.735 170.745 456.091 170.392C456.446 170.039 456.729 169.619 456.921 169.157C457.114 168.695 457.213 168.199 457.214 167.698C457.214 161.878 457.214 150.863 457.247 145.059V145.059ZM342.802 53.9431C342.801 53.4422 342.702 52.9464 342.509 52.484C342.317 52.0217 342.034 51.602 341.679 51.2491C341.323 50.8962 340.902 50.617 340.438 50.4275C339.974 50.238 339.478 50.1421 338.977 50.1451C325.665 50.1291 281.474 50.0961 268.162 50.0801C267.15 50.0764 266.177 50.4738 265.457 51.1854C264.738 51.8971 264.329 52.8649 264.321 53.8771C264.321 59.6811 264.304 70.6971 264.304 76.5001C264.304 78.6051 266.01 80.2981 268.129 80.3151C281.441 80.3311 325.632 80.3641 338.944 80.3811C341.064 80.3811 342.786 78.6871 342.786 76.5831C342.786 70.7631 342.786 59.7471 342.802 53.9431ZM341.71 114.742C341.709 114.241 341.61 113.746 341.417 113.283C341.225 112.821 340.943 112.401 340.587 112.048C340.232 111.696 339.81 111.416 339.347 111.227C338.883 111.037 338.387 110.941 337.886 110.944C324.574 110.927 280.382 110.895 267.07 110.878C266.569 110.875 266.073 110.971 265.609 111.161C265.146 111.35 264.724 111.63 264.369 111.982C264.013 112.335 263.731 112.755 263.539 113.217C263.346 113.68 263.247 114.175 263.246 114.676C263.246 120.48 263.229 131.495 263.229 137.299C263.229 139.403 264.935 141.097 267.054 141.097C280.366 141.113 324.557 141.146 337.869 141.162C338.881 141.166 339.854 140.769 340.574 140.057C341.294 139.345 341.702 138.377 341.71 137.365V114.742V114.742Z" stroke="#E1E4E5" stroke-width="4" stroke-miterlimit="10" stroke-linecap="round" stroke-linejoin="round"/>
<path d="M379.08 84.0614C379.079 83.5606 378.98 83.0648 378.787 82.6026C378.595 82.1403 378.313 81.7207 377.957 81.3678C377.602 81.0149 377.18 80.7356 376.717 80.5461C376.253 80.3566 375.757 80.2605 375.256 80.2634C361.944 80.2474 317.752 80.2144 304.44 80.1974C303.428 80.194 302.455 80.5916 301.735 81.3034C301.016 82.0152 300.607 82.9831 300.599 83.9954C300.599 89.7994 300.583 100.815 300.583 106.618C300.584 107.119 300.683 107.615 300.876 108.077C301.068 108.54 301.35 108.959 301.706 109.312C302.061 109.665 302.483 109.944 302.946 110.134C303.41 110.323 303.906 110.419 304.407 110.416C317.719 110.433 361.911 110.465 375.223 110.482C377.342 110.482 379.064 108.788 379.064 106.684C379.064 100.88 379.08 89.8814 379.08 84.0614ZM378.584 144.932C378.584 142.828 376.878 141.135 374.759 141.135C361.447 141.118 317.256 141.085 303.944 141.069C301.825 141.069 300.119 142.762 300.119 144.867C300.119 150.67 300.103 161.686 300.103 167.489C300.103 169.594 301.808 171.287 303.927 171.304C317.239 171.32 361.431 171.353 374.743 171.37C375.244 171.373 375.74 171.277 376.204 171.088C376.667 170.898 377.089 170.619 377.444 170.266C377.8 169.913 378.082 169.494 378.274 169.031C378.467 168.569 378.566 168.073 378.567 167.572C378.567 161.752 378.567 150.753 378.584 144.932V144.932ZM500.113 54.0954C500.113 51.9914 498.374 50.2974 496.288 50.2974C482.959 50.2814 438.785 50.2484 425.456 50.2324C423.337 50.2324 421.631 51.9254 421.631 54.0294C421.631 59.8334 421.631 70.8494 421.598 76.6524C421.598 78.7574 423.304 80.4504 425.423 80.4674C438.752 80.4834 482.926 80.5164 496.255 80.5324C498.341 80.5324 500.079 78.8394 500.079 76.7354C500.079 70.8984 500.079 59.8994 500.113 54.0954ZM499.021 114.888C499.02 114.388 498.921 113.892 498.728 113.43C498.535 112.968 498.253 112.548 497.898 112.195C497.543 111.843 497.121 111.563 496.658 111.374C496.194 111.185 495.698 111.089 495.197 111.091C481.885 111.074 437.693 111.041 424.381 111.025C423.88 111.023 423.384 111.119 422.92 111.308C422.457 111.498 422.035 111.777 421.68 112.13C421.324 112.483 421.042 112.902 420.85 113.365C420.657 113.827 420.558 114.323 420.557 114.823C420.557 120.626 420.524 131.642 420.524 137.445C420.525 137.946 420.624 138.442 420.817 138.904C421.009 139.367 421.291 139.786 421.647 140.139C422.002 140.492 422.424 140.771 422.887 140.961C423.351 141.15 423.847 141.246 424.348 141.243C437.66 141.26 481.851 141.293 495.163 141.309C495.664 141.312 496.16 141.216 496.624 141.027C497.088 140.838 497.509 140.558 497.865 140.205C498.22 139.853 498.503 139.433 498.695 138.97C498.888 138.508 498.988 138.012 498.988 137.511C499.021 131.691 499.021 120.692 499.021 114.888V114.888ZM420.953 297.696C420.953 295.591 419.247 293.898 417.128 293.881C403.816 293.865 359.625 293.832 346.313 293.815C345.812 293.813 345.316 293.909 344.852 294.098C344.388 294.288 343.967 294.567 343.611 294.92C343.256 295.273 342.974 295.692 342.781 296.155C342.588 296.617 342.489 297.113 342.488 297.613C342.488 303.417 342.471 314.433 342.471 320.236C342.471 322.341 344.177 324.034 346.296 324.034C359.608 324.051 403.783 324.083 417.111 324.1C417.612 324.103 418.108 324.007 418.572 323.818C419.036 323.628 419.457 323.349 419.813 322.996C420.168 322.643 420.45 322.224 420.643 321.761C420.836 321.299 420.935 320.803 420.936 320.302C420.919 314.515 420.953 303.499 420.953 297.696ZM499.377 418.918C499.377 416.813 497.671 415.12 495.552 415.103C482.24 415.087 438.049 415.054 424.737 415.038C423.725 415.034 422.752 415.432 422.032 416.143C421.312 416.855 420.904 417.823 420.896 418.835C420.896 424.639 420.879 435.655 420.879 441.458C420.879 443.563 422.584 445.256 424.704 445.273C438.016 445.289 482.207 445.322 495.519 445.338C497.638 445.338 499.36 443.645 499.36 441.54C499.36 435.737 499.36 424.721 499.377 418.918ZM498.285 479.721C498.285 477.617 496.58 475.923 494.46 475.907C481.148 475.891 436.957 475.858 423.645 475.841C421.526 475.841 419.82 477.535 419.82 479.639C419.82 485.443 419.804 496.458 419.804 502.262C419.804 504.366 421.509 506.06 423.628 506.076C436.94 506.093 481.132 506.126 494.444 506.142C495.456 506.146 496.429 505.749 497.149 505.037C497.869 504.325 498.277 503.357 498.285 502.344C498.268 496.54 498.285 485.525 498.285 479.721Z" stroke="#E1E4E5" stroke-width="4" stroke-miterlimit="10" stroke-linecap="round" stroke-linejoin="round"/>
<path d="M535.654 449.533C535.654 447.428 533.948 445.735 531.829 445.718C518.517 445.702 474.326 445.669 461.014 445.652C458.895 445.652 457.173 447.346 457.173 449.45C457.173 455.254 457.156 466.27 457.156 472.073C457.156 474.178 458.861 475.871 460.981 475.887C474.293 475.904 518.484 475.937 531.796 475.953C533.915 475.953 535.637 474.26 535.637 472.155C535.637 466.335 535.654 455.336 535.654 449.533ZM535.141 510.399C535.141 508.294 533.436 506.601 531.317 506.584C518.005 506.568 473.813 506.535 460.501 506.518C459.489 506.514 458.516 506.912 457.796 507.624C457.077 508.335 456.668 509.303 456.66 510.316C456.66 516.12 456.643 527.136 456.643 532.939C456.643 535.044 458.349 536.737 460.468 536.754C473.78 536.77 517.971 536.803 531.283 536.819C531.784 536.822 532.28 536.726 532.744 536.536C533.208 536.347 533.629 536.068 533.985 535.715C534.34 535.362 534.623 534.942 534.815 534.48C535.008 534.017 535.108 533.522 535.108 533.021C535.141 527.201 535.141 516.202 535.141 510.399V510.399ZM656.67 419.064C656.67 416.96 654.965 415.267 652.845 415.25C639.533 415.234 595.342 415.201 582.03 415.184C581.018 415.18 580.045 415.577 579.325 416.289C578.605 417.001 578.197 417.969 578.189 418.982C578.189 424.786 578.172 435.801 578.172 441.605C578.172 443.709 579.878 445.403 581.997 445.419C595.309 445.436 639.5 445.469 652.812 445.485C653.313 445.488 653.809 445.392 654.273 445.202C654.737 445.013 655.158 444.734 655.514 444.381C655.869 444.028 656.152 443.608 656.344 443.146C656.537 442.683 656.637 442.188 656.637 441.687C656.67 435.867 656.67 424.868 656.67 419.064ZM655.595 479.871C655.595 477.766 653.89 476.073 651.771 476.056C638.442 476.04 594.267 476.007 580.955 475.99C578.836 475.99 577.114 477.684 577.114 479.788C577.114 485.592 577.098 496.607 577.098 502.411C577.098 504.516 578.803 506.209 580.922 506.225C594.234 506.242 638.409 506.275 651.738 506.291C652.239 506.294 652.735 506.197 653.199 506.008C653.662 505.818 654.084 505.539 654.439 505.186C654.795 504.833 655.077 504.414 655.269 503.951C655.462 503.489 655.562 502.993 655.562 502.493C655.579 496.673 655.595 485.674 655.595 479.871Z" stroke="#E1E4E5" stroke-width="4" stroke-miterlimit="10" stroke-linecap="round" stroke-linejoin="round"/>
<path d="M692.963 449.253C692.963 447.149 691.258 445.455 689.139 445.439C675.827 445.422 631.635 445.389 618.323 445.373C617.311 445.369 616.338 445.767 615.618 446.479C614.898 447.191 614.49 448.159 614.482 449.171C614.482 454.975 614.466 465.99 614.466 471.794C614.466 473.898 616.171 475.592 618.29 475.608C631.602 475.625 675.793 475.657 689.105 475.674C689.606 475.677 690.102 475.581 690.566 475.391C691.03 475.202 691.451 474.923 691.807 474.57C692.162 474.217 692.444 473.797 692.637 473.335C692.83 472.873 692.929 472.377 692.93 471.876C692.963 466.056 692.963 455.057 692.963 449.253V449.253ZM692.45 510.117C692.45 508.012 690.744 506.319 688.625 506.302C675.313 506.286 631.138 506.253 617.81 506.236C617.309 506.233 616.813 506.329 616.349 506.519C615.886 506.708 615.464 506.988 615.108 507.34C614.753 507.693 614.471 508.113 614.278 508.575C614.085 509.038 613.986 509.533 613.985 510.034C613.985 515.838 613.969 526.854 613.969 532.657C613.969 534.762 615.674 536.455 617.793 536.471C631.105 536.488 675.296 536.521 688.609 536.537C689.11 536.54 689.606 536.444 690.07 536.254C690.533 536.065 690.955 535.786 691.31 535.433C691.666 535.08 691.948 534.66 692.14 534.198C692.333 533.736 692.433 533.24 692.433 532.739C692.45 526.919 692.45 515.92 692.45 510.117V510.117ZM578.024 418.984C578.024 416.88 576.318 415.187 574.199 415.187C560.887 415.17 516.696 415.137 503.384 415.121C502.883 415.118 502.387 415.214 501.923 415.404C501.459 415.593 501.038 415.872 500.682 416.225C500.327 416.578 500.045 416.998 499.852 417.46C499.659 417.922 499.56 418.418 499.559 418.919C499.559 424.722 499.542 435.738 499.542 441.542C499.542 443.646 501.248 445.339 503.367 445.356C516.679 445.372 560.87 445.405 574.182 445.422C574.683 445.425 575.179 445.329 575.643 445.139C576.107 444.95 576.528 444.671 576.884 444.318C577.239 443.965 577.521 443.545 577.714 443.083C577.907 442.621 578.006 442.125 578.007 441.624C578.007 435.804 578.007 424.805 578.024 418.984ZM576.948 479.784C576.948 477.679 575.242 475.986 573.123 475.969C559.811 475.953 515.62 475.92 502.308 475.904C500.188 475.904 498.483 477.597 498.483 479.701C498.483 485.505 498.466 496.521 498.466 502.324C498.466 504.429 500.172 506.122 502.291 506.139C515.603 506.155 559.794 506.188 573.106 506.204C575.226 506.204 576.931 504.511 576.931 502.407C576.931 496.603 576.931 485.604 576.948 479.784Z" stroke="#E1E4E5" stroke-width="4" stroke-miterlimit="10" stroke-linecap="round" stroke-linejoin="round"/>
<path d="M614.301 449.123C614.301 447.018 612.596 445.325 610.477 445.309C597.165 445.292 552.973 445.259 539.661 445.243C538.649 445.239 537.676 445.636 536.956 446.348C536.236 447.06 535.828 448.028 535.82 449.041C535.82 454.844 535.804 465.86 535.804 471.664C535.804 473.768 537.509 475.461 539.628 475.478C552.94 475.494 597.132 475.527 610.444 475.544C610.945 475.546 611.441 475.45 611.905 475.261C612.368 475.071 612.79 474.792 613.145 474.439C613.501 474.086 613.783 473.667 613.975 473.204C614.168 472.742 614.267 472.246 614.268 471.746C614.301 465.926 614.301 454.927 614.301 449.123ZM613.805 509.984C613.805 507.879 612.1 506.186 609.98 506.17C596.668 506.153 552.477 506.12 539.165 506.104C538.153 506.1 537.18 506.497 536.46 507.209C535.74 507.921 535.332 508.889 535.324 509.902C535.324 515.705 535.307 526.721 535.307 532.524C535.307 534.629 537.013 536.322 539.132 536.339C552.444 536.355 596.635 536.388 609.947 536.405C610.448 536.407 610.944 536.311 611.408 536.122C611.872 535.932 612.293 535.653 612.648 535.3C613.004 534.947 613.286 534.528 613.479 534.065C613.672 533.603 613.771 533.107 613.772 532.607C613.789 526.787 613.789 515.788 613.805 509.984V509.984ZM735.318 419.135C735.318 417.031 733.612 415.338 731.493 415.338C718.181 415.321 673.99 415.288 660.678 415.272C660.177 415.269 659.681 415.364 659.217 415.554C658.753 415.743 658.332 416.023 657.976 416.376C657.621 416.728 657.338 417.148 657.146 417.61C656.953 418.073 656.853 418.569 656.853 419.07C656.853 424.873 656.82 435.889 656.82 441.692C656.82 443.797 658.525 445.49 660.645 445.507C673.957 445.523 718.148 445.556 731.46 445.573C733.579 445.573 735.285 443.879 735.285 441.775C735.318 435.955 735.318 424.939 735.318 419.135ZM734.243 479.932C734.243 477.828 732.538 476.134 730.418 476.118C717.106 476.101 672.915 476.068 659.603 476.052C657.484 476.052 655.778 477.745 655.778 479.85C655.745 485.654 655.745 496.669 655.745 502.473C655.745 504.577 657.451 506.271 659.57 506.287C672.882 506.303 717.057 506.336 730.385 506.353C732.504 506.353 734.21 504.659 734.21 502.555C734.226 496.751 734.243 485.736 734.243 479.932ZM499.973 297.568C499.973 295.464 498.267 293.77 496.148 293.754C482.836 293.737 438.645 293.704 425.333 293.688C424.321 293.684 423.348 294.081 422.628 294.793C421.908 295.505 421.5 296.473 421.492 297.486C421.492 303.29 421.475 314.305 421.475 320.109C421.476 320.609 421.575 321.105 421.768 321.567C421.961 322.03 422.243 322.449 422.598 322.802C422.954 323.155 423.375 323.434 423.839 323.624C424.303 323.813 424.799 323.909 425.3 323.907C438.612 323.923 482.803 323.956 496.115 323.972C498.234 323.972 499.94 322.279 499.94 320.174C499.956 314.371 499.973 303.372 499.973 297.568ZM498.896 358.366C498.895 357.865 498.796 357.369 498.603 356.906C498.41 356.444 498.128 356.024 497.773 355.672C497.417 355.319 496.996 355.039 496.532 354.85C496.068 354.66 495.572 354.565 495.071 354.568C481.759 354.551 437.568 354.518 424.256 354.502C422.137 354.502 420.415 356.195 420.415 358.3C420.415 364.104 420.398 375.119 420.398 380.923C420.398 383.027 422.104 384.721 424.223 384.737C437.535 384.753 481.726 384.786 495.038 384.803C496.05 384.806 497.023 384.409 497.743 383.697C498.463 382.985 498.872 382.017 498.88 381.005C498.88 375.168 498.896 364.169 498.896 358.366ZM536.267 328.164C536.267 326.059 534.561 324.366 532.442 324.349C519.13 324.333 474.939 324.3 461.627 324.284C460.614 324.28 459.641 324.677 458.921 325.389C458.201 326.101 457.793 327.069 457.785 328.082C457.785 333.885 457.769 344.901 457.769 350.704C457.769 351.204 457.869 351.7 458.062 352.163C458.254 352.625 458.537 353.045 458.892 353.398C459.247 353.75 459.669 354.03 460.133 354.219C460.597 354.409 461.093 354.505 461.594 354.502C474.906 354.519 519.097 354.552 532.409 354.568C534.528 354.568 536.234 352.875 536.234 350.77C536.253 343.234 536.264 335.699 536.267 328.164V328.164ZM535.754 389.026C535.754 386.922 534.048 385.228 531.929 385.228C518.617 385.212 474.426 385.179 461.114 385.163C458.995 385.163 457.289 386.856 457.289 388.961C457.289 394.764 457.273 405.78 457.273 411.583C457.273 412.083 457.373 412.579 457.566 413.041C457.758 413.504 458.04 413.923 458.396 414.276C458.751 414.629 459.173 414.908 459.636 415.098C460.1 415.287 460.596 415.383 461.097 415.381C474.409 415.398 518.601 415.431 531.913 415.447C532.925 415.45 533.898 415.053 534.618 414.341C535.338 413.629 535.746 412.661 535.754 411.649C535.737 405.846 535.754 394.83 535.754 389.026ZM656.207 358.499C656.207 356.395 654.502 354.701 652.383 354.685C639.054 354.668 594.863 354.636 581.551 354.619C580.539 354.615 579.566 355.012 578.846 355.724C578.126 356.436 577.718 357.404 577.71 358.417C577.71 364.221 577.693 375.236 577.693 381.04C577.694 381.54 577.793 382.036 577.986 382.498C578.179 382.961 578.461 383.38 578.816 383.733C579.172 384.086 579.593 384.365 580.057 384.555C580.521 384.744 581.017 384.84 581.518 384.838C594.83 384.854 639.021 384.887 652.349 384.903C654.436 384.903 656.174 383.21 656.174 381.106C656.191 375.318 656.191 364.303 656.207 358.499V358.499ZM693.576 327.887C693.575 327.386 693.476 326.89 693.283 326.428C693.09 325.965 692.808 325.546 692.453 325.193C692.097 324.84 691.676 324.561 691.212 324.371C690.748 324.182 690.252 324.086 689.751 324.089C676.439 324.073 632.248 324.04 618.936 324.023C616.817 324.023 615.111 325.717 615.111 327.821C615.111 333.625 615.095 344.64 615.095 350.444C615.095 350.944 615.195 351.44 615.388 351.902C615.58 352.365 615.862 352.784 616.218 353.137C616.573 353.49 616.995 353.769 617.458 353.959C617.922 354.148 618.418 354.244 618.919 354.242C632.231 354.258 676.439 354.291 689.735 354.308C690.236 354.31 690.732 354.214 691.196 354.025C691.659 353.835 692.081 353.556 692.436 353.203C692.791 352.85 693.074 352.431 693.266 351.968C693.459 351.506 693.558 351.01 693.559 350.51C693.543 344.706 693.576 333.691 693.576 327.887V327.887Z" stroke="#E1E4E5" stroke-width="4" stroke-miterlimit="10" stroke-linecap="round" stroke-linejoin="round"/>
<path d="M693.064 388.752C693.064 386.648 691.359 384.954 689.24 384.938C675.928 384.922 631.736 384.889 618.424 384.872C616.305 384.872 614.583 386.566 614.583 388.67C614.583 394.474 614.566 405.489 614.566 411.293C614.566 413.397 616.272 415.091 618.391 415.107C631.703 415.124 675.911 415.157 689.206 415.173C689.707 415.176 690.203 415.08 690.667 414.89C691.131 414.701 691.552 414.421 691.908 414.069C692.263 413.716 692.545 413.296 692.738 412.834C692.931 412.371 693.03 411.875 693.031 411.375C693.031 405.571 693.064 394.556 693.064 388.752ZM578.619 297.633C578.618 297.132 578.519 296.636 578.326 296.174C578.133 295.711 577.851 295.292 577.496 294.939C577.14 294.586 576.718 294.307 576.255 294.117C575.791 293.928 575.295 293.832 574.794 293.835C561.482 293.819 517.291 293.786 503.979 293.77C501.86 293.77 500.138 295.463 500.138 297.568C500.138 303.371 500.121 314.387 500.121 320.19C500.121 322.295 501.827 323.988 503.946 324.005C517.258 324.021 561.449 324.054 574.761 324.07C575.773 324.074 576.746 323.676 577.466 322.965C578.186 322.253 578.595 321.285 578.603 320.273C578.619 314.436 578.619 303.437 578.619 297.633V297.633ZM577.544 358.432C577.544 356.327 575.838 354.634 573.719 354.634C560.407 354.617 516.216 354.584 502.904 354.568C501.891 354.564 500.919 354.961 500.199 355.673C499.479 356.385 499.071 357.353 499.063 358.366C499.063 364.17 499.046 375.185 499.046 380.989C499.047 381.489 499.146 381.985 499.339 382.447C499.532 382.91 499.814 383.329 500.169 383.682C500.525 384.035 500.946 384.314 501.41 384.504C501.874 384.693 502.37 384.789 502.871 384.787C516.183 384.803 560.374 384.836 573.686 384.852C575.805 384.852 577.511 383.159 577.511 381.054C577.527 375.251 577.544 364.235 577.544 358.432Z" stroke="#E1E4E5" stroke-width="4" stroke-miterlimit="10" stroke-linecap="round" stroke-linejoin="round"/>
<path d="M614.914 327.752C614.914 327.251 614.814 326.755 614.621 326.293C614.429 325.83 614.146 325.411 613.791 325.058C613.436 324.705 613.014 324.425 612.55 324.236C612.087 324.047 611.59 323.951 611.089 323.954C597.777 323.937 553.586 323.905 540.274 323.888C538.155 323.888 536.449 325.582 536.449 327.686C536.449 333.49 536.433 344.505 536.433 350.309C536.434 350.809 536.533 351.305 536.726 351.767C536.918 352.23 537.201 352.649 537.556 353.002C537.911 353.355 538.333 353.634 538.796 353.824C539.26 354.013 539.756 354.109 540.257 354.107C553.569 354.123 597.761 354.156 611.073 354.172C612.085 354.175 613.058 353.778 613.778 353.066C614.498 352.355 614.906 351.387 614.914 350.375C614.897 344.571 614.914 333.555 614.914 327.752V327.752ZM614.401 388.613C614.401 386.508 612.695 384.815 610.576 384.815C597.264 384.798 553.073 384.765 539.761 384.749C537.642 384.749 535.936 386.442 535.936 388.547C535.936 394.351 535.92 405.366 535.92 411.17C535.92 413.274 537.625 414.968 539.744 414.984C553.056 415 597.247 415.033 610.559 415.05C611.572 415.053 612.544 414.656 613.264 413.944C613.984 413.232 614.393 412.264 614.401 411.252V388.613ZM735.93 297.768C735.93 295.663 734.224 293.97 732.105 293.97C718.793 293.953 674.602 293.92 661.29 293.904C659.171 293.904 657.465 295.597 657.465 297.702C657.432 303.506 657.432 314.521 657.432 320.325C657.432 322.429 659.137 324.123 661.257 324.139C674.569 324.155 718.76 324.188 732.072 324.205C734.191 324.205 735.897 322.511 735.897 320.407C735.913 314.587 735.93 303.571 735.93 297.768ZM734.854 358.566C734.853 358.065 734.754 357.569 734.561 357.107C734.368 356.644 734.086 356.225 733.731 355.872C733.375 355.519 732.954 355.24 732.49 355.05C732.026 354.861 731.53 354.765 731.029 354.768C717.701 354.752 673.526 354.719 660.198 354.702C658.111 354.702 656.373 356.396 656.373 358.5C656.373 364.304 656.373 375.319 656.34 381.123C656.34 383.228 658.078 384.921 660.165 384.921C673.493 384.937 717.668 384.97 730.996 384.987C731.497 384.989 731.993 384.893 732.457 384.704C732.921 384.514 733.342 384.235 733.698 383.882C734.053 383.529 734.335 383.11 734.528 382.647C734.721 382.185 734.82 381.689 734.821 381.189C734.838 375.385 734.838 364.386 734.854 358.566ZM500.769 175.757C500.768 175.256 500.669 174.76 500.476 174.298C500.283 173.835 500.001 173.416 499.646 173.063C499.29 172.71 498.869 172.431 498.405 172.241C497.941 172.052 497.445 171.956 496.944 171.959C483.632 171.943 439.441 171.91 426.129 171.893C424.01 171.893 422.304 173.587 422.304 175.691C422.304 181.495 422.288 192.51 422.288 198.314C422.289 198.814 422.388 199.31 422.581 199.773C422.774 200.235 423.056 200.655 423.411 201.008C423.767 201.36 424.188 201.64 424.652 201.829C425.116 202.019 425.612 202.115 426.113 202.112C439.425 202.128 483.616 202.161 496.928 202.178C497.941 202.181 498.913 201.784 499.633 201.072C500.353 200.36 500.761 199.392 500.769 198.38C500.753 192.576 500.769 181.577 500.769 175.757ZM499.692 236.554C499.692 234.449 497.987 232.756 495.867 232.739C482.555 232.723 438.364 232.69 425.052 232.674C424.04 232.67 423.067 233.067 422.347 233.779C421.627 234.49 421.219 235.458 421.211 236.471C421.211 242.275 421.194 253.291 421.194 259.094C421.194 261.199 422.9 262.892 425.019 262.892C438.331 262.909 482.522 262.942 495.834 262.958C497.954 262.958 499.676 261.265 499.676 259.16C499.676 253.373 499.692 242.357 499.692 236.554V236.554Z" stroke="#E1E4E5" stroke-width="4" stroke-miterlimit="10" stroke-linecap="round" stroke-linejoin="round"/>
<path d="M537.062 206.367C537.062 204.263 535.356 202.569 533.237 202.569C519.925 202.553 475.734 202.52 462.422 202.504C461.921 202.501 461.425 202.597 460.961 202.786C460.497 202.976 460.076 203.255 459.72 203.608C459.365 203.961 459.083 204.381 458.89 204.843C458.697 205.305 458.598 205.801 458.597 206.302C458.597 212.105 458.58 223.121 458.58 228.924C458.58 231.029 460.286 232.722 462.405 232.722C475.717 232.739 519.908 232.772 533.22 232.788C533.721 232.791 534.217 232.695 534.681 232.506C535.145 232.316 535.567 232.037 535.922 231.684C536.277 231.331 536.56 230.911 536.752 230.449C536.945 229.987 537.045 229.491 537.045 228.99C537.045 223.17 537.062 212.171 537.062 206.367V206.367ZM536.547 267.231C536.547 266.73 536.447 266.234 536.254 265.772C536.062 265.31 535.78 264.89 535.424 264.537C535.069 264.185 534.647 263.905 534.184 263.716C533.72 263.526 533.224 263.43 532.723 263.433C519.411 263.416 475.219 263.384 461.907 263.367C459.788 263.367 458.066 265.061 458.066 267.165C458.066 272.969 458.05 283.984 458.05 289.788C458.05 291.892 459.755 293.586 461.874 293.602C475.186 293.619 519.378 293.651 532.69 293.668C534.809 293.668 536.531 291.975 536.531 289.87C536.531 284.033 536.547 273.034 536.547 267.231ZM658.079 175.904C658.079 175.403 657.979 174.907 657.786 174.445C657.594 173.983 657.312 173.563 656.956 173.21C656.601 172.858 656.179 172.578 655.716 172.389C655.252 172.199 654.756 172.103 654.255 172.106C640.943 172.09 596.751 172.057 583.439 172.041C582.938 172.038 582.442 172.134 581.978 172.324C581.515 172.513 581.093 172.793 580.738 173.145C580.383 173.498 580.1 173.918 579.908 174.38C579.715 174.842 579.616 175.338 579.615 175.839C579.615 181.642 579.598 192.658 579.598 198.461C579.599 198.962 579.698 199.458 579.891 199.92C580.084 200.382 580.366 200.802 580.721 201.155C581.077 201.508 581.498 201.787 581.962 201.977C582.426 202.166 582.922 202.262 583.423 202.259C596.735 202.276 640.926 202.309 654.238 202.325C656.357 202.325 658.063 200.632 658.063 198.527C658.079 192.724 658.079 181.708 658.079 175.904V175.904ZM657.002 236.7C657.002 236.199 656.902 235.704 656.709 235.241C656.517 234.779 656.235 234.359 655.879 234.006C655.524 233.654 655.102 233.374 654.639 233.185C654.175 232.995 653.679 232.899 653.178 232.902C639.866 232.886 595.674 232.853 582.362 232.837C580.243 232.837 578.521 234.53 578.521 236.634C578.521 242.438 578.504 253.454 578.504 259.257C578.504 261.362 580.21 263.055 582.329 263.055C595.641 263.072 639.816 263.104 653.144 263.121C653.645 263.124 654.141 263.028 654.605 262.839C655.069 262.649 655.491 262.37 655.846 262.017C656.201 261.664 656.484 261.244 656.676 260.782C656.869 260.32 656.969 259.824 656.969 259.323C656.969 253.519 657.002 242.504 657.002 236.7Z" stroke="#E1E4E5" stroke-width="4" stroke-miterlimit="10" stroke-linecap="round" stroke-linejoin="round"/>
<path d="M694.355 206.089C694.354 205.588 694.255 205.092 694.062 204.63C693.87 204.168 693.587 203.748 693.232 203.395C692.876 203.042 692.455 202.763 691.991 202.573C691.527 202.384 691.031 202.288 690.53 202.291C677.218 202.275 633.027 202.242 619.715 202.225C618.703 202.222 617.73 202.619 617.01 203.331C616.291 204.043 615.882 205.011 615.874 206.023C615.874 211.827 615.857 222.842 615.857 228.646C615.857 230.75 617.563 232.444 619.682 232.46C632.994 232.477 677.185 232.51 690.497 232.526C690.998 232.529 691.494 232.433 691.958 232.244C692.422 232.054 692.844 231.775 693.199 231.422C693.554 231.069 693.837 230.649 694.029 230.187C694.222 229.725 694.322 229.229 694.322 228.728C694.355 222.892 694.355 211.893 694.355 206.089V206.089ZM693.858 266.953C693.858 264.849 692.153 263.155 690.033 263.139C676.721 263.122 632.547 263.09 619.218 263.073C617.099 263.073 615.377 264.767 615.377 266.871C615.377 272.675 615.36 283.69 615.36 289.494C615.36 291.598 617.066 293.292 619.185 293.292C632.497 293.308 676.688 293.341 690 293.357C692.12 293.357 693.825 291.664 693.825 289.56C693.858 283.756 693.858 272.757 693.858 266.953V266.953ZM579.432 175.838C579.432 173.733 577.727 172.04 575.607 172.023C562.295 172.007 518.104 171.974 504.792 171.957C502.673 171.957 500.951 173.651 500.951 175.755C500.951 181.559 500.934 192.575 500.934 198.378C500.934 200.483 502.64 202.176 504.759 202.176C518.071 202.193 562.262 202.225 575.574 202.242C577.693 202.242 579.415 200.548 579.415 198.444C579.415 192.64 579.415 181.641 579.432 175.838ZM578.356 236.64C578.356 234.536 576.65 232.842 574.531 232.842C561.219 232.826 517.028 232.793 503.716 232.777C503.215 232.774 502.719 232.87 502.255 233.059C501.791 233.249 501.37 233.528 501.014 233.881C500.659 234.234 500.377 234.654 500.184 235.116C499.991 235.578 499.892 236.074 499.891 236.575C499.891 242.378 499.874 253.394 499.874 259.197C499.874 261.302 501.58 262.995 503.699 263.012C517.011 263.028 561.202 263.061 574.514 263.078C575.527 263.082 576.499 262.684 577.219 261.972C577.939 261.261 578.348 260.293 578.356 259.28C578.339 253.443 578.339 242.444 578.356 236.64V236.64Z" stroke="#E1E4E5" stroke-width="4" stroke-miterlimit="10" stroke-linecap="round" stroke-linejoin="round"/>
<path d="M615.707 205.957C615.706 205.456 615.607 204.96 615.414 204.498C615.221 204.036 614.939 203.616 614.584 203.263C614.228 202.91 613.807 202.631 613.343 202.442C612.879 202.252 612.383 202.156 611.882 202.159C598.57 202.143 554.379 202.11 541.067 202.094C538.948 202.094 537.226 203.787 537.226 205.891C537.226 211.695 537.209 222.711 537.209 228.514C537.209 230.619 538.915 232.312 541.034 232.329C554.346 232.345 598.537 232.378 611.849 232.394C613.968 232.394 615.69 230.701 615.69 228.597C615.69 222.776 615.707 211.761 615.707 205.957ZM615.21 266.824C615.21 264.72 613.505 263.026 611.385 263.01C598.073 262.993 553.882 262.96 540.57 262.944C539.558 262.94 538.585 263.338 537.865 264.05C537.145 264.762 536.737 265.73 536.729 266.742C536.729 272.546 536.712 283.561 536.712 289.365C536.712 291.469 538.418 293.163 540.537 293.163C553.849 293.179 598.04 293.212 611.352 293.228C613.471 293.228 615.177 291.535 615.177 289.43C615.193 283.643 615.193 272.628 615.21 266.824V266.824ZM736.726 175.971C736.726 173.867 735.02 172.173 732.901 172.157C719.589 172.14 675.398 172.108 662.086 172.091C659.967 172.091 658.261 173.785 658.261 175.889C658.261 181.693 658.228 192.708 658.228 198.512C658.229 199.013 658.328 199.509 658.521 199.971C658.714 200.433 658.996 200.853 659.351 201.206C659.707 201.559 660.128 201.838 660.592 202.027C661.056 202.217 661.552 202.313 662.053 202.31C675.365 202.326 719.556 202.359 732.868 202.376C734.987 202.376 736.693 200.682 736.693 198.578C736.726 192.79 736.726 181.775 736.726 175.971ZM735.649 236.771C735.649 234.667 733.943 232.974 731.824 232.974C718.512 232.957 674.321 232.924 661.009 232.908C660.508 232.905 660.012 233.001 659.548 233.19C659.084 233.38 658.663 233.659 658.307 234.012C657.952 234.365 657.67 234.785 657.477 235.247C657.284 235.709 657.185 236.205 657.184 236.706C657.151 242.509 657.151 253.525 657.151 259.329C657.151 261.433 658.856 263.126 660.975 263.143C674.287 263.159 718.479 263.192 731.791 263.209C732.292 263.212 732.788 263.116 733.252 262.926C733.715 262.737 734.137 262.458 734.492 262.105C734.848 261.752 735.13 261.332 735.322 260.87C735.515 260.408 735.615 259.912 735.615 259.411C735.632 253.591 735.649 242.575 735.649 236.771V236.771ZM500.47 53.8801C500.47 51.7761 498.764 50.0821 496.645 50.0661C483.333 50.0491 439.142 50.0161 425.83 50.0001C425.329 49.997 424.833 50.093 424.369 50.2825C423.905 50.4719 423.484 50.7511 423.128 51.1041C422.773 51.457 422.491 51.8767 422.298 52.339C422.105 52.8013 422.006 53.2972 422.005 53.7981C422.005 59.6011 421.988 70.6171 421.988 76.4211C421.988 78.5251 423.694 80.2191 425.813 80.2191C439.125 80.2351 483.316 80.2681 496.628 80.2841C497.129 80.2871 497.625 80.1912 498.089 80.0018C498.553 79.8124 498.974 79.5332 499.33 79.1804C499.685 78.8276 499.967 78.408 500.16 77.9458C500.353 77.4836 500.452 76.9879 500.453 76.4871C500.453 70.6991 500.47 59.6841 500.47 53.8801V53.8801ZM499.393 114.68C499.393 112.576 497.687 110.882 495.568 110.882C482.256 110.866 438.065 110.833 424.753 110.817C423.741 110.813 422.768 111.21 422.048 111.922C421.328 112.634 420.919 113.602 420.911 114.614C420.911 120.418 420.895 131.434 420.895 137.237C420.895 139.342 422.6 141.035 424.719 141.052C438.031 141.068 482.223 141.101 495.535 141.117C496.036 141.12 496.532 141.024 496.996 140.834C497.459 140.645 497.881 140.366 498.236 140.013C498.591 139.66 498.873 139.241 499.066 138.779C499.259 138.316 499.358 137.821 499.359 137.32C499.376 131.499 499.393 120.484 499.393 114.68V114.68ZM536.762 84.4761C536.762 82.3711 535.057 80.6781 532.937 80.6611C519.625 80.6451 475.434 80.6121 462.122 80.5961C460.003 80.5961 458.297 82.2891 458.297 84.3941C458.297 90.1971 458.281 101.213 458.281 107.016C458.282 107.517 458.381 108.013 458.574 108.475C458.767 108.937 459.049 109.357 459.404 109.71C459.76 110.063 460.181 110.342 460.645 110.532C461.109 110.721 461.605 110.817 462.106 110.814C475.418 110.831 519.609 110.864 532.921 110.88C533.933 110.884 534.906 110.486 535.626 109.774C536.346 109.063 536.754 108.094 536.762 107.082C536.746 101.295 536.762 90.2791 536.762 84.4761ZM536.25 145.338C536.25 144.837 536.15 144.341 535.957 143.879C535.765 143.417 535.483 142.997 535.127 142.644C534.772 142.292 534.35 142.012 533.887 141.823C533.423 141.633 532.927 141.537 532.426 141.54C519.114 141.524 474.922 141.491 461.61 141.475C459.491 141.475 457.769 143.168 457.769 145.273C457.769 151.076 457.753 162.092 457.753 167.895C457.754 168.396 457.853 168.892 458.046 169.354C458.238 169.816 458.52 170.236 458.876 170.589C459.231 170.942 459.653 171.221 460.116 171.41C460.58 171.6 461.076 171.696 461.577 171.693C474.889 171.71 519.081 171.743 532.393 171.759C534.512 171.759 536.234 170.066 536.234 167.961C536.234 162.158 536.25 151.142 536.25 145.338ZM657.763 54.0081C657.796 51.9031 656.057 50.2101 653.955 50.1931C640.626 50.1771 596.435 50.1431 583.123 50.1271C582.622 50.124 582.126 50.22 581.662 50.4095C581.198 50.5989 580.777 50.8781 580.421 51.2311C580.066 51.584 579.784 52.0037 579.591 52.466C579.398 52.9283 579.299 53.4242 579.298 53.9251C579.298 59.7291 579.281 70.7451 579.281 76.5481C579.281 78.6531 580.987 80.3461 583.106 80.3461C596.418 80.3621 640.609 80.3961 653.938 80.4121C656.024 80.4121 657.763 78.7181 657.763 76.6141V54.0081V54.0081ZM656.705 114.814C656.705 112.709 654.999 111.016 652.88 110.999C639.568 110.983 595.377 110.95 582.065 110.934C579.945 110.934 578.223 112.627 578.223 114.732C578.223 120.535 578.207 131.551 578.207 137.354C578.207 139.459 579.912 141.152 582.032 141.169C595.344 141.185 639.535 141.218 652.847 141.234C653.348 141.237 653.844 141.141 654.308 140.951C654.771 140.762 655.193 140.483 655.548 140.13C655.903 139.777 656.185 139.358 656.378 138.896C656.571 138.433 656.67 137.938 656.671 137.437C656.705 131.633 656.705 120.634 656.705 114.814V114.814Z" stroke="#E1E4E5" stroke-width="4" stroke-miterlimit="10" stroke-linecap="round" stroke-linejoin="round"/>
<path d="M694.072 84.1931C694.072 82.0881 692.334 80.3951 690.248 80.3951C676.919 80.3791 632.728 80.3451 619.416 80.3291C617.297 80.3291 615.591 82.0231 615.591 84.1271C615.591 89.9311 615.575 100.946 615.575 106.75C615.576 107.251 615.675 107.747 615.868 108.209C616.06 108.671 616.343 109.091 616.698 109.444C617.053 109.797 617.475 110.076 617.938 110.265C618.402 110.455 618.898 110.551 619.399 110.548C632.711 110.564 676.903 110.597 690.231 110.614C692.317 110.614 694.056 108.92 694.056 106.816C694.056 101.012 694.056 90.0131 694.072 84.1931ZM693.577 145.059C693.577 144.558 693.477 144.062 693.284 143.6C693.092 143.138 692.809 142.718 692.454 142.365C692.099 142.012 691.677 141.733 691.213 141.544C690.749 141.354 690.253 141.258 689.752 141.261C676.424 141.245 632.249 141.212 618.921 141.195C616.801 141.195 615.079 142.889 615.079 144.993C615.079 150.797 615.063 161.812 615.063 167.616C615.063 169.72 616.768 171.414 618.887 171.43C632.199 171.447 676.391 171.48 689.719 171.496C690.22 171.499 690.717 171.403 691.18 171.214C691.644 171.024 692.066 170.745 692.421 170.392C692.776 170.039 693.059 169.619 693.251 169.157C693.444 168.695 693.544 168.199 693.544 167.698C693.544 161.878 693.544 150.863 693.577 145.059V145.059ZM579.132 53.9431C579.132 53.4423 579.032 52.9465 578.839 52.4843C578.647 52.022 578.365 51.6024 578.009 51.2495C577.654 50.8966 577.232 50.6173 576.769 50.4278C576.305 50.2383 575.809 50.1422 575.308 50.1451C561.996 50.1291 517.804 50.0961 504.492 50.0801C503.48 50.0764 502.507 50.4738 501.788 51.1854C501.068 51.8971 500.659 52.8649 500.651 53.8771C500.651 59.6811 500.635 70.6971 500.635 76.5001C500.635 78.6051 502.34 80.2981 504.459 80.3151C517.771 80.3311 561.963 80.3641 575.275 80.3811C577.394 80.3811 579.116 78.6871 579.116 76.5831C579.116 70.7631 579.116 59.7471 579.132 53.9431ZM578.04 114.742C578.04 114.241 577.94 113.746 577.747 113.283C577.555 112.821 577.273 112.401 576.917 112.048C576.562 111.696 576.14 111.416 575.677 111.227C575.213 111.037 574.717 110.941 574.216 110.944C560.904 110.927 516.713 110.895 503.401 110.878C502.9 110.875 502.404 110.971 501.94 111.161C501.476 111.35 501.055 111.629 500.699 111.982C500.344 112.335 500.062 112.755 499.869 113.217C499.676 113.679 499.577 114.175 499.576 114.676C499.576 120.48 499.559 131.495 499.559 137.299C499.559 139.403 501.265 141.097 503.384 141.097C516.696 141.113 560.887 141.146 574.199 141.162C575.211 141.166 576.184 140.769 576.904 140.057C577.624 139.345 578.032 138.377 578.04 137.365V114.742V114.742Z" stroke="#E1E4E5" stroke-width="4" stroke-miterlimit="10" stroke-linecap="round" stroke-linejoin="round"/>
<path d="M615.411 84.0615C615.411 81.9575 613.705 80.2635 611.586 80.2635C598.274 80.2475 554.083 80.2145 540.771 80.1975C539.759 80.1938 538.786 80.5913 538.066 81.3031C537.346 82.0149 536.937 82.983 536.929 83.9955C536.929 89.7995 536.913 100.815 536.913 106.618C536.914 107.119 537.013 107.615 537.206 108.078C537.399 108.54 537.681 108.96 538.036 109.312C538.392 109.665 538.813 109.945 539.277 110.134C539.741 110.324 540.237 110.42 540.738 110.416C554.05 110.433 598.241 110.465 611.553 110.482C613.672 110.482 615.394 108.788 615.394 106.684C615.394 100.88 615.411 89.8815 615.411 84.0615V84.0615ZM614.914 144.932C614.914 142.828 613.209 141.135 611.089 141.135C597.777 141.118 553.586 141.085 540.274 141.069C538.155 141.069 536.449 142.762 536.449 144.867C536.449 150.67 536.433 161.686 536.433 167.489C536.433 169.594 538.138 171.287 540.257 171.304C553.569 171.32 597.761 171.353 611.073 171.37C611.574 171.373 612.07 171.277 612.534 171.088C612.997 170.898 613.419 170.619 613.774 170.266C614.13 169.913 614.412 169.494 614.604 169.031C614.797 168.569 614.897 168.073 614.897 167.572C614.897 161.752 614.897 150.753 614.914 144.932V144.932ZM736.443 54.0955C736.443 51.9915 734.704 50.2975 732.618 50.2975C719.289 50.2815 675.115 50.2485 661.786 50.2325C661.285 50.2296 660.789 50.3256 660.326 50.5151C659.862 50.7045 659.441 50.9837 659.085 51.3365C658.73 51.6893 658.448 52.1088 658.255 52.571C658.062 53.0331 657.963 53.5288 657.962 54.0295C657.962 59.8335 657.962 70.8495 657.928 76.6525C657.928 78.7575 659.634 80.4505 661.753 80.4675C675.082 80.4835 719.256 80.5165 732.585 80.5325C734.671 80.5325 736.41 78.8395 736.41 76.7355C736.41 70.8985 736.41 59.8995 736.443 54.0955V54.0955ZM735.352 114.888C735.352 112.784 733.646 111.091 731.527 111.091C718.215 111.074 674.024 111.041 660.712 111.025C660.211 111.022 659.715 111.118 659.251 111.308C658.787 111.497 658.366 111.777 658.01 112.129C657.655 112.482 657.373 112.902 657.18 113.364C656.987 113.827 656.888 114.323 656.887 114.823C656.887 120.626 656.854 131.642 656.854 137.445C656.855 137.946 656.954 138.442 657.147 138.904C657.339 139.367 657.622 139.786 657.977 140.139C658.332 140.492 658.754 140.771 659.217 140.961C659.681 141.15 660.177 141.246 660.678 141.243C673.99 141.26 718.182 141.293 731.494 141.309C731.995 141.312 732.491 141.216 732.955 141.027C733.418 140.837 733.84 140.558 734.195 140.205C734.551 139.852 734.833 139.433 735.025 138.97C735.218 138.508 735.318 138.012 735.318 137.511C735.351 131.691 735.352 120.692 735.352 114.888V114.888ZM657.283 297.697C657.283 295.592 655.577 293.899 653.458 293.882C640.146 293.866 595.955 293.832 582.643 293.815C582.142 293.813 581.646 293.909 581.182 294.098C580.719 294.288 580.297 294.567 579.942 294.92C579.586 295.273 579.304 295.692 579.111 296.155C578.918 296.617 578.819 297.113 578.818 297.613C578.818 303.417 578.801 314.433 578.801 320.236C578.801 322.341 580.507 324.034 582.626 324.034C595.938 324.051 640.113 324.083 653.441 324.1C653.942 324.103 654.438 324.007 654.902 323.818C655.366 323.628 655.787 323.349 656.143 322.996C656.498 322.643 656.78 322.224 656.973 321.761C657.166 321.299 657.265 320.803 657.266 320.302C657.25 314.515 657.283 303.5 657.283 297.697V297.697Z" stroke="#E1E4E5" stroke-width="4" stroke-miterlimit="10" stroke-linecap="round" stroke-linejoin="round"/>
<path fill-rule="evenodd" clip-rule="evenodd" d="M507.767 286.773V447.103L507.93 446.945L507.892 454.898L600.111 546.561H587.819L507.767 466.953V546.517H498.057V469.988L421.107 546.561H407.601L498.057 456.627V286.773H507.767Z" fill="white" stroke="#E1E4E5" stroke-width="4"/>
<path d="M524.31 462.76C524.31 456.647 519.355 451.691 513.242 451.691H493.638C487.525 451.691 482.569 456.647 482.569 462.76C482.569 468.873 487.525 473.829 493.638 473.829H513.242C519.355 473.829 524.31 468.873 524.31 462.76Z" fill="white" stroke="#E1E4E5" stroke-width="4"/>
<path d="M735.215 81.4043H288C283.582 81.4043 280 84.986 280 89.4043V347.119C280 351.538 283.582 355.119 288 355.119H735.215C739.633 355.119 743.215 351.538 743.215 347.119V89.4043C743.215 84.986 739.633 81.4043 735.215 81.4043Z" fill="white" stroke="#E1E4E5" stroke-width="4"/>
<path d="M475.995 227.676C475.995 226.609 476.86 225.744 477.927 225.744H527.731C528.243 225.744 528.735 225.948 529.097 226.31C529.459 226.672 529.663 227.164 529.663 227.676C529.663 228.188 529.459 228.68 529.097 229.042C528.735 229.404 528.243 229.608 527.731 229.608H477.927C477.415 229.608 476.923 229.404 476.561 229.042C476.198 228.68 475.995 228.188 475.995 227.676ZM529.663 289.276C529.663 289.788 529.459 290.28 529.097 290.642C528.735 291.004 528.243 291.208 527.731 291.208H477.927C477.415 291.208 476.923 291.004 476.561 290.642C476.198 290.28 475.995 289.788 475.995 289.276C475.995 288.764 476.198 288.272 476.561 287.91C476.923 287.548 477.415 287.344 477.927 287.344H527.731C528.798 287.344 529.663 288.209 529.663 289.276ZM462.889 248.646C462.889 247.579 463.754 246.714 464.821 246.714H540.837C541.349 246.714 541.841 246.918 542.203 247.28C542.565 247.642 542.769 248.134 542.769 248.646C542.769 249.158 542.565 249.65 542.203 250.012C541.841 250.374 541.349 250.578 540.837 250.578H464.821C464.309 250.578 463.817 250.374 463.455 250.012C463.092 249.65 462.889 249.158 462.889 248.646ZM542.769 268.306C542.769 268.818 542.565 269.31 542.203 269.672C541.841 270.034 541.349 270.238 540.837 270.238H464.821C464.309 270.238 463.817 270.034 463.455 269.672C463.092 269.31 462.889 268.818 462.889 268.306C462.889 267.794 463.092 267.302 463.455 266.94C463.817 266.578 464.309 266.374 464.821 266.374H540.837C541.904 266.374 542.769 267.239 542.769 268.306ZM538.837 170.664C538.837 190.945 522.684 207.327 502.829 207.327C482.974 207.327 466.821 190.945 466.821 170.664C466.821 150.382 482.974 134 502.829 134C522.684 134 538.837 150.382 538.837 170.664Z" fill="white" stroke="#E1E4E5" stroke-width="4"/>
<path d="M503.484 168.01C507.808 168.01 511.314 164.504 511.314 160.18C511.314 155.855 507.808 152.35 503.484 152.35C499.16 152.35 495.654 155.855 495.654 160.18C495.654 164.504 499.16 168.01 503.484 168.01Z" fill="white" stroke="#E1E4E5" stroke-width="4"/>
<path d="M490.413 180.493C490.413 178.938 491.031 177.447 492.13 176.347C493.23 175.248 494.721 174.63 496.276 174.63H512.004C512.781 174.62 513.551 174.764 514.272 175.054C514.992 175.344 515.647 175.775 516.2 176.32C516.753 176.866 517.191 177.515 517.491 178.232C517.79 178.948 517.945 179.717 517.945 180.493C517.945 181.27 517.79 182.039 517.491 182.755C517.191 183.472 516.753 184.121 516.2 184.667C515.647 185.212 514.992 185.643 514.272 185.933C513.551 186.223 512.781 186.367 512.004 186.357H496.276C495.506 186.357 494.744 186.205 494.032 185.911C493.321 185.616 492.674 185.184 492.13 184.639C491.586 184.095 491.154 183.448 490.859 182.737C490.565 182.026 490.413 181.263 490.413 180.493ZM597.883 227.676C597.883 226.609 598.748 225.744 599.815 225.744H649.619C650.132 225.744 650.623 225.948 650.985 226.31C651.348 226.672 651.551 227.164 651.551 227.676C651.551 228.188 651.348 228.68 650.985 229.042C650.623 229.404 650.132 229.608 649.619 229.608H599.815C599.303 229.608 598.811 229.404 598.449 229.042C598.087 228.68 597.883 228.188 597.883 227.676ZM651.552 289.276C651.552 289.788 651.349 290.28 650.986 290.642C650.624 291.004 650.132 291.208 649.62 291.208H599.816C599.304 291.208 598.812 291.004 598.45 290.642C598.088 290.28 597.884 289.788 597.884 289.276C597.884 288.764 598.088 288.272 598.45 287.91C598.812 287.548 599.304 287.344 599.816 287.344H649.62C650.687 287.344 651.552 288.209 651.552 289.276ZM584.777 248.646C584.777 247.579 585.642 246.714 586.709 246.714H662.726C663.239 246.714 663.73 246.918 664.092 247.28C664.455 247.642 664.658 248.134 664.658 248.646C664.658 249.158 664.455 249.65 664.092 250.012C663.73 250.374 663.239 250.578 662.726 250.578H586.709C586.197 250.578 585.705 250.374 585.343 250.012C584.981 249.65 584.777 249.158 584.777 248.646ZM664.658 268.306C664.658 268.818 664.455 269.31 664.092 269.672C663.73 270.034 663.239 270.238 662.726 270.238H586.709C586.197 270.238 585.705 270.034 585.343 269.672C584.981 269.31 584.777 268.818 584.777 268.306C584.777 267.794 584.981 267.302 585.343 266.94C585.705 266.578 586.197 266.374 586.709 266.374H662.726C663.793 266.374 664.658 267.239 664.658 268.306ZM660.726 170.664C660.726 190.945 644.572 207.327 624.718 207.327C604.863 207.327 588.709 190.945 588.709 170.664C588.709 150.382 604.863 134 624.718 134C644.572 134 660.726 150.382 660.726 170.664Z" fill="white" stroke="#E1E4E5" stroke-width="4"/>
<path d="M625.372 168.01C629.696 168.01 633.202 164.504 633.202 160.18C633.202 155.855 629.696 152.35 625.372 152.35C621.048 152.35 617.542 155.855 617.542 160.18C617.542 164.504 621.048 168.01 625.372 168.01Z" fill="white" stroke="#E1E4E5" stroke-width="4"/>
<path d="M612.301 180.493C612.301 178.938 612.919 177.447 614.019 176.347C615.119 175.248 616.61 174.63 618.165 174.63H633.893C635.448 174.63 636.94 175.248 638.039 176.347C639.139 177.447 639.756 178.938 639.756 180.493C639.756 182.049 639.139 183.54 638.039 184.64C636.94 185.739 635.448 186.357 633.893 186.357H618.165C616.61 186.357 615.118 185.739 614.019 184.639C612.919 183.54 612.301 182.048 612.301 180.493ZM354.106 227.676C354.106 226.609 354.971 225.744 356.038 225.744H405.842C406.354 225.744 406.846 225.948 407.208 226.31C407.57 226.672 407.774 227.164 407.774 227.676C407.774 228.188 407.57 228.68 407.208 229.042C406.846 229.404 406.354 229.608 405.842 229.608H356.038C355.526 229.608 355.034 229.404 354.672 229.042C354.31 228.68 354.106 228.188 354.106 227.676ZM407.775 289.276C407.775 289.53 407.725 289.781 407.628 290.015C407.531 290.25 407.389 290.463 407.209 290.642C407.03 290.822 406.817 290.964 406.582 291.061C406.348 291.158 406.097 291.208 405.843 291.208H356.039C355.527 291.208 355.035 291.004 354.673 290.642C354.311 290.28 354.107 289.788 354.107 289.276C354.107 288.764 354.311 288.272 354.673 287.91C355.035 287.548 355.527 287.344 356.039 287.344H405.843C406.91 287.344 407.775 288.209 407.775 289.276ZM341 248.646C341 247.579 341.865 246.714 342.932 246.714H418.949C419.461 246.714 419.953 246.918 420.315 247.28C420.677 247.642 420.881 248.134 420.881 248.646C420.881 249.158 420.677 249.65 420.315 250.012C419.953 250.374 419.461 250.578 418.949 250.578H342.932C342.42 250.578 341.928 250.374 341.566 250.012C341.204 249.65 341 249.158 341 248.646ZM420.88 268.306C420.88 268.818 420.677 269.309 420.314 269.672C419.952 270.034 419.461 270.238 418.949 270.238H342.932C342.42 270.238 341.928 270.034 341.566 269.672C341.204 269.31 341 268.818 341 268.306C341 267.794 341.204 267.302 341.566 266.94C341.928 266.578 342.42 266.374 342.932 266.374H418.949C420.015 266.374 420.88 267.239 420.88 268.306ZM416.948 170.664C416.948 190.945 400.795 207.327 380.94 207.327C361.085 207.327 344.932 190.945 344.932 170.664C344.932 150.382 361.085 134 380.94 134C400.795 134 416.948 150.382 416.948 170.664Z" fill="white" stroke="#E1E4E5" stroke-width="4"/>
<path d="M381.595 168.01C385.92 168.01 389.425 164.504 389.425 160.18C389.425 155.855 385.92 152.35 381.595 152.35C377.271 152.35 373.765 155.855 373.765 160.18C373.765 164.504 377.271 168.01 381.595 168.01Z" fill="white" stroke="#E1E4E5" stroke-width="4"/>
<path d="M368.524 180.494C368.524 179.724 368.676 178.961 368.97 178.25C369.265 177.539 369.697 176.892 370.242 176.348C370.786 175.803 371.433 175.371 372.144 175.077C372.855 174.782 373.618 174.631 374.388 174.631H390.115C391.67 174.631 393.161 175.249 394.261 176.348C395.361 177.448 395.978 178.939 395.978 180.494C395.978 182.049 395.361 183.541 394.261 184.64C393.161 185.74 391.67 186.358 390.115 186.358H374.388C373.618 186.358 372.855 186.206 372.144 185.912C371.432 185.617 370.786 185.185 370.241 184.641C369.697 184.096 369.265 183.45 368.97 182.738C368.675 182.027 368.524 181.264 368.524 180.494ZM483.465 347.141H522.324C523.065 347.141 524.31 348.033 524.31 350.01V360.965C524.31 362.943 523.065 363.834 522.324 363.834H483.465C482.724 363.834 481.48 362.943 481.48 360.965V350.01C481.48 348.033 482.724 347.141 483.465 347.141Z" fill="white" stroke="#E1E4E5" stroke-width="4"/>
<path d="M264.068 181.2C263.457 183.64 264.267 186.177 265.602 188.308C266.546 189.813 267.865 188.151 269.788 187.884C272.764 187.467 274.648 184.318 275.292 176.645C275.59 171.04 275.449 168.244 275.137 167.755C274.026 166.003 271.167 165.417 268.913 165.586" fill="#2E2445"/>
<path fill-rule="evenodd" clip-rule="evenodd" d="M269.469 514.707C269.469 514.707 269.288 526.23 276.401 530.323C283.513 534.417 294.532 542.023 294.532 542.023L252.614 543.436L253.809 514.604L269.469 514.707Z" fill="#F8AE9D"/>
<path fill-rule="evenodd" clip-rule="evenodd" d="M251.152 527.406L250.47 546.1H260.206L260.874 543.691C260.874 543.691 264.539 543.542 266.657 544.582C268.896 545.683 269.197 546.216 269.197 546.216L300.08 546.281C300.08 546.281 301.604 540.238 292.19 535.868C282.776 531.497 275.921 525.294 274.619 524.659C273.308 524.019 270.662 523.657 268.799 525.16C266.935 526.662 265.461 530.613 261.239 530.737C255.804 530.897 252.682 524.245 251.152 527.406ZM239.114 326.645C239.114 326.645 250.555 423.722 250.911 430.47C251.267 437.219 247.236 448.865 247.315 461.488C247.393 474.111 248.787 518.6 248.787 518.6L274.024 519.011C274.024 519.011 284.631 438.617 284.746 426.561C284.859 414.505 285.832 327.805 285.832 327.805L239.114 326.645Z" fill="#2E2445"/>
<path fill-rule="evenodd" clip-rule="evenodd" d="M208.246 512.683L203.328 542.552L221.459 542.461L222.033 512.215L208.246 512.683Z" fill="#F8AE9D"/>
<path fill-rule="evenodd" clip-rule="evenodd" d="M205.369 525.803C204.771 525.933 204.234 526.259 203.843 526.729C203.451 527.198 203.228 527.785 203.208 528.397L203.03 533.793C200.435 536.678 199.225 545.077 199.121 545.827C199.116 545.867 199.113 545.901 199.116 545.941C199.379 550.036 226.257 549.962 228.397 546.074C228.46 545.949 228.478 545.807 228.449 545.671C228.216 544.23 226.741 535.792 223.849 533.524L223.829 528.186C223.827 527.584 223.626 526.999 223.259 526.522C222.892 526.044 222.378 525.701 221.796 525.545L218.172 524.569C215.521 520.694 211.909 520.832 208.814 525.055L205.369 525.803ZM217.148 327.559C217.148 327.559 209.068 393.792 209.178 406.475C209.288 419.159 211.664 424.73 208.282 433.829C204.898 442.928 202.013 515.553 202.013 515.553L227.03 517.637C227.03 517.637 243.012 439.923 244.75 429.149C246.488 418.374 267.968 326.645 267.968 326.645L217.148 327.559Z" fill="#2E2445"/>
<path fill-rule="evenodd" clip-rule="evenodd" d="M341.894 208.471C341.894 208.471 339.805 196.83 340.556 194.473C341.198 192.436 347.261 189.498 347.261 189.498C347.261 189.498 357.807 172.839 360.115 174.535C361.992 175.911 354.623 188.193 354.623 188.193C354.623 188.193 361.343 195.243 361.249 198.394C361.155 201.546 350.281 211.412 350.281 211.412L341.894 208.471ZM233.505 211.206C233.505 211.206 240.451 209.575 240.692 198.195C240.933 186.814 240.764 182.93 240.764 182.93L257.229 182.654C257.229 182.654 257.396 195.337 257.399 199.925C257.405 209.912 264.822 212.61 264.822 212.61C264.822 212.61 264.206 223.531 250.343 224.31C239.52 224.92 233.505 211.206 233.505 211.206Z" fill="#F8AE9D"/>
<path fill-rule="evenodd" clip-rule="evenodd" d="M239.251 177.176C232.426 176.912 233.54 186.903 240.629 186.889C240.629 186.889 248.248 202.209 260.21 202.249C265.972 202.268 267.854 197.136 269.581 193.533C271.308 189.93 272.576 184.54 272.681 181.24C272.795 177.722 272.809 166.163 272.809 166.163L238.986 166.148L239.251 177.176Z" fill="#F8AE9D"/>
<path fill-rule="evenodd" clip-rule="evenodd" d="M265.082 211.934C265.082 211.934 282.82 217.471 287.095 224.086C300.865 236.183 318.087 252.796 318.087 252.796C318.087 252.796 334.49 211.629 339.852 206.935C343.522 203.724 350.832 207.694 352.194 211.775C353.943 217.017 342.709 247.762 337.403 262.283C336.375 265.097 335.57 267.301 335.125 268.593C331.889 277.979 324.017 283.363 314.437 277.397C310.576 274.992 299.084 267.112 289.28 259.968C289.127 267.473 288.869 275.381 288.623 282.892V282.893C288.027 301.14 287.508 317.042 288.756 319.108C294.94 329.35 286.718 336.38 259.497 338.963C232.277 341.546 208.128 339.431 212.51 325.764C213.424 322.915 213.412 316.785 212.957 308.822C210.307 308.68 207.631 308.505 204.962 308.295C193.602 307.399 185.201 302.518 184.029 289.841C183.208 280.963 200.121 239.286 206.463 225.581C207.947 222.375 210.241 220.379 212.839 219.383C213.444 218.708 214.126 218.234 214.891 217.982C219.55 216.446 236.253 209.429 236.253 209.429L256.123 222.429L265.082 211.934ZM211.116 285.298L211.071 285.413L211.127 285.42L211.116 285.298Z" fill="#4F27AA"/>
<path fill-rule="evenodd" clip-rule="evenodd" d="M255.205 296.297C255.205 296.297 261.265 295.078 263.746 293.131C266.226 291.184 273.737 289.807 273.737 289.807L271.334 294.868C271.334 294.868 289.744 293.14 290.18 294.956C290.616 296.772 285.291 298.746 285.291 298.746C285.291 298.746 282.666 303.651 280.124 306.494C277.718 309.185 265.769 308.864 261.58 307.185C257.96 305.735 254.024 306.46 254.024 306.46L255.205 296.297Z" fill="#F8AE9D"/>
<path d="M241.108 166.62C242.105 167.925 243.863 168.213 245.312 168.471C247.259 168.818 248.222 169.54 249.233 171.48C249.873 172.719 250.513 174.076 251.658 174.747C252.591 175.296 252.563 173.907 252.701 172.833C252.713 172.733 252.732 172.633 252.759 172.535C252.982 171.677 253.893 171.821 254.157 172.667C254.4 173.434 254.919 174.083 255.579 174.445C255.687 174.504 255.801 174.555 255.916 174.533C256.071 174.511 256.192 174.364 256.293 174.231C256.503 173.955 256.712 173.605 256.928 173.234C257.64 172.008 259 172.439 259.796 173.611C260.295 174.342 260.888 175.094 261.703 175.263C261.965 175.322 262.296 175.278 262.417 175.02C262.572 174.703 262.329 174.386 262.37 174.061C262.403 173.759 262.531 173.626 262.673 173.368C263.225 172.372 264.504 172.336 265.283 173.166C265.825 173.743 266.391 174.298 266.978 174.828C267.227 175.05 267.591 175.271 267.84 175.05C267.975 174.932 268.009 174.732 268.035 174.541C268.177 173.604 268.312 172.667 268.453 171.731C268.534 171.207 268.81 170.521 269.282 170.654C269.511 170.72 269.646 170.964 269.774 171.185C269.929 171.465 272.697 174.659 272.751 174.415C273.183 172.601 274.065 170.949 274.496 169.135C277.285 157.46 264.91 148.071 255.458 148.02C253.356 148.005 251.436 148.04 249.394 148.534C247.218 149.065 244.921 149.908 242.947 151.095C240.178 152.754 238.083 155.771 238.622 159.37" fill="#2E2445"/>
<path d="M248.794 162.846C250.127 164.37 250.48 166.515 250.604 168.541C250.787 171.597 250.538 174.771 249.14 177.483C248.742 178.255 248.448 182.076 247.834 181.865C247.638 181.799 247.67 178.836 247.154 177.239C246.357 174.764 242.685 173.821 241.032 175.385C238.393 177.873 239.941 180.895 240.817 182.776C241.339 183.911 242.169 185.185 242.313 186.386C242.489 187.923 242.541 193.526 241.548 194.833C240.719 195.928 239.837 190.636 239.085 189.593C233.525 181.826 228.194 162.048 237.687 157.758C239.131 157.105 243.587 156.768 244.939 157.6" fill="#2E2445"/>
<path fill-rule="evenodd" clip-rule="evenodd" d="M703.576 454.917C719.393 419.01 733.763 382.134 746.917 344.443C716.616 373.102 693.053 408.016 696.408 454.917H703.576Z" fill="#4F27AA"/>
<path fill-rule="evenodd" clip-rule="evenodd" d="M695.146 458.665C691.402 397.44 692.989 340.58 724.366 308.111C720.038 375.333 711.942 422.687 701.688 458.665H695.146Z" fill="#4F27AA"/>
<path fill-rule="evenodd" clip-rule="evenodd" d="M693.706 452.289C676.176 409.505 658.561 397.241 644 353.324C691.654 378.12 694.641 398.596 703.995 452.289H693.706Z" fill="#4F27AA"/>
<path fill-rule="evenodd" clip-rule="evenodd" d="M684.271 452.291L652.823 409.506C668.011 413.851 693.398 420.886 693.398 452.291H684.271ZM713.685 452.29H724.176C730.843 438.322 740.238 428.705 762.967 440.362C748.068 417.59 717.499 410.698 713.685 452.29Z" fill="#4F27AA"/>
<path fill-rule="evenodd" clip-rule="evenodd" d="M704.034 452.29H712.759C728.77 429.313 735.654 419.302 752.224 399.68C730.396 407.991 707.99 419.302 704.034 452.29Z" fill="#4F27AA"/>
<path d="M681.971 452.428H726.239C726.82 452.428 727.292 452.9 727.292 453.481C727.292 459.396 729.393 464.991 732.573 469.767C740.296 481.365 744.083 492.845 744.083 504.236C744.083 517.429 739.481 530.722 730.104 544.146C729.908 544.428 729.585 544.596 729.241 544.596H678.969C678.625 544.596 678.303 544.428 678.106 544.146C668.729 530.722 664.127 517.429 664.127 504.236C664.127 490.91 669.312 477.451 679.929 463.827C680.57 463.01 680.918 462.002 680.918 460.964V453.481C680.918 452.9 681.39 452.428 681.971 452.428Z" fill="white" stroke="#E1E4E5" stroke-width="4"/>
</g>
<defs>
<clipPath id="clip0_1235_21177">
<rect width="900" height="600" fill="white"/>
</clipPath>
</defs>
</svg>
