<svg width="900" height="600" viewBox="0 0 900 600" fill="none" xmlns="http://www.w3.org/2000/svg">
<g clip-path="url(#clip0_1235_21227)">
<path d="M709.141 464.338H190.685C175.228 464.338 162.672 451.717 162.672 436.128V109.128C162.672 93.538 175.228 80.918 190.685 80.918H709.141C724.598 80.918 737.153 93.538 737.153 109.128V436.128C737.153 451.717 724.598 464.338 709.141 464.338Z" fill="white" stroke="#E1E4E5" stroke-width="3.693"/>
<path d="M192 272.641C204.333 257.975 226 234.041 214 255.641C199 282.641 226.5 264.641 236 255.641C245.5 246.641 268 240.141 252 263.641C236 287.141 282 273.141 290.5 255.641M529 412.482C548.909 388.755 583.883 350.036 564.513 384.98C540.299 428.66 584.69 399.54 600.025 384.98C615.36 370.42 651.68 359.905 625.853 397.922C600.025 435.94 674.279 413.291 688 384.98M338 440.641C350.333 425.975 372 402.041 360 423.641C345 450.641 372.5 432.641 382 423.641C391.5 414.641 414 408.141 398 431.641C382 455.141 428 441.141 436.5 423.641M434 206.36C447.398 190.711 470.934 165.173 457.898 188.221C441.604 217.031 471.477 197.824 481.797 188.221C492.117 178.617 516.558 171.682 499.178 196.757C481.797 221.832 531.766 206.894 541 188.221" stroke="#E1E4E5" stroke-width="4"/>
<path d="M314 328.922C354.944 280.919 426.873 202.588 387.036 273.283C337.239 361.65 428.533 302.738 460.071 273.283C491.609 243.827 566.305 222.553 513.188 299.466C460.071 376.378 612.782 330.558 641 273.283" stroke="#E1E4E5" stroke-width="9.277" stroke-linecap="round"/>
<path d="M598 202.641C610.333 187.975 632 164.041 620 185.641C605 212.641 632.5 194.641 642 185.641C651.5 176.641 674 170.141 658 193.641C642 217.141 688 203.141 696.5 185.641" stroke="#E1E4E5" stroke-width="4"/>
<path d="M279.211 322.201C281.606 322.097 284.053 321.993 286.188 320.951C288.323 319.91 289.989 317.567 289.572 315.224C289.312 314.027 288.635 312.985 287.698 312.204C286.761 311.423 285.72 310.798 284.626 310.278C281.398 308.612 272.078 306.477 272.078 306.477L241.724 313.922L216.056 340.58C216.056 340.58 205.538 374.839 206.528 375.256C207.517 375.672 241.776 378.744 241.776 378.744L266.611 337.04L279.211 322.201Z" fill="#F8AE9D"/>
<path d="M278.587 323.606C281.972 323.502 285.616 323.189 288.115 320.638C289.474 319.334 290.355 317.61 290.615 315.744C290.692 314.953 290.592 314.155 290.322 313.407C290.052 312.659 289.618 311.981 289.053 311.422C287.959 310.329 286.606 309.444 285.2 308.819C284.367 308.403 283.482 308.09 282.597 307.778C280.41 307.049 278.171 306.424 275.932 305.851C275.151 305.643 274.37 305.435 273.537 305.279C273.195 305.125 272.816 305.071 272.444 305.122C271.975 305.227 271.559 305.331 271.09 305.435L262.812 307.465L251.826 310.173L243.495 312.203C243.027 312.307 242.558 312.412 242.089 312.568C241.621 312.828 241.204 313.193 240.892 313.609L235.842 318.868L228.136 326.834L220.69 334.54L216.213 339.173C215.682 339.663 215.271 340.269 215.015 340.944C214.859 341.516 214.651 342.089 214.495 342.662C213.662 345.369 212.881 348.025 212.048 350.732C210.954 354.377 209.913 358.021 208.819 361.666C207.882 364.842 206.997 368.018 206.216 371.246C205.956 372.339 205.696 373.433 205.487 374.578C205.383 375.047 205.123 376.14 205.591 376.452C205.8 376.557 205.956 376.557 206.164 376.609C206.477 376.661 206.789 376.713 207.153 376.713C208.247 376.869 209.34 376.973 210.486 377.077C213.922 377.442 217.358 377.754 220.795 378.119C224.595 378.483 228.396 378.847 232.145 379.212L239.903 379.941L241.048 380.045C241.569 380.097 242.089 379.42 242.298 379.056L243.547 376.921L246.827 371.402L251.409 363.748L256.46 355.262L261.25 347.192L264.998 340.892L266.977 337.559C267.032 337.502 267.068 337.429 267.081 337.351C267.081 337.247 266.716 337.768 266.873 337.663L267.029 337.507L268.643 335.633L274.63 328.656L279.264 323.241L279.525 322.929C279.889 322.512 280.41 321.575 280.097 321.002C279.785 320.43 279.004 321.159 278.744 321.471L275.307 325.428L269.059 332.665L266.769 335.321C266.404 335.685 266.092 336.102 265.779 336.518L264.374 338.861L260.989 344.536L256.355 352.294L251.305 360.781L246.567 368.747L242.87 374.89C242.246 375.932 241.621 376.921 241.048 377.962L240.944 378.119L242.194 377.129L238.653 376.817L230.218 376.036C226.834 375.724 223.398 375.411 220.014 375.047C217.078 374.777 214.145 374.482 211.214 374.162C210.277 374.057 209.288 373.953 208.351 373.849L207.466 373.745L207.205 373.693C207.049 373.693 206.997 373.589 207.205 373.693C207.101 373.641 207.362 373.901 207.257 373.797C207.257 373.849 207.362 374.109 207.31 373.953C207.31 373.901 207.31 373.693 207.31 373.953V373.797C207.31 373.745 207.362 373.537 207.362 373.433C207.362 373.329 207.414 373.12 207.466 372.964C207.518 372.808 207.518 372.808 207.518 372.704L207.57 372.548V372.495C207.553 372.565 207.536 372.635 207.518 372.704L207.83 371.298C208.455 368.591 209.236 365.935 209.965 363.28C210.902 360.052 211.839 356.772 212.776 353.544C213.61 350.68 214.495 347.816 215.328 344.953C215.796 343.391 216.265 341.829 216.733 340.319L216.786 340.111L215.952 341.464L218.504 338.809L224.647 332.457L232.041 324.803L238.445 318.139C239.486 317.045 240.58 316.056 241.569 314.911L241.621 314.859L241.1 315.171L247.921 313.505L261.354 310.225L270.882 307.882C271.09 307.882 271.246 307.83 271.454 307.726C271.142 307.882 271.194 307.726 271.298 307.778C271.378 307.82 271.469 307.838 271.559 307.83L272.652 308.09C275.151 308.715 277.65 309.392 280.149 310.173C281.295 310.537 282.388 310.954 283.482 311.422C285.2 312.255 287.022 313.297 287.959 315.015C288.376 315.692 288.48 316.525 288.376 317.306C288.428 317.045 288.324 317.41 288.324 317.462C288.324 317.514 288.272 317.618 288.272 317.67C288.376 317.358 288.272 317.722 288.22 317.774C288.168 317.826 288.168 317.931 288.115 317.983C288.376 317.67 288.115 317.983 288.063 318.035C288.011 318.087 287.803 318.399 287.959 318.191C288.115 317.983 287.855 318.295 287.855 318.295C287.855 318.295 287.439 318.712 287.699 318.503C287.148 319.059 286.494 319.501 285.773 319.805C284.783 320.169 283.794 320.43 282.753 320.534C281.731 320.629 280.707 320.699 279.681 320.742C279.004 320.794 278.483 321.575 278.223 322.096C278.223 322.512 277.911 323.658 278.587 323.606Z" fill="#F8AE9D"/>
<path d="M118.068 496.882C134.312 473.973 168.415 417.742 168.415 417.742C168.415 417.742 176.069 350.63 180.234 341.31C183.723 333.5 208.246 315.069 217.826 308.717C222.772 305.437 227.822 302.104 233.55 300.543C239.641 298.876 246.67 299.501 251.304 303.875C255.573 302.625 259.947 301.532 264.32 300.699C267.861 300.022 271.974 299.553 274.786 301.896C277.597 304.239 277.805 308.509 276.191 311.685C274.577 314.861 271.453 316.995 268.173 318.401C264.893 319.807 261.457 320.64 258.125 321.994C247.816 326.211 240.162 335.01 232.977 343.497C230.217 346.725 227.354 350.161 226.625 354.378C225.896 358.596 228.187 363.594 232.352 364.271C238.704 365 244.015 360.054 248.336 355.316C252.658 350.578 254.845 345.579 257.292 339.852C258.802 336.26 260.884 332.303 262.706 328.866C264.529 325.43 268.486 322.15 272.287 321.421C278.847 320.171 282.908 325.17 283.897 331.73C284.886 338.29 282.596 346.36 279.836 352.4C273.432 366.614 266.039 380.359 258.697 394.104C242.401 424.511 200.228 505.421 183.931 535.827" fill="#F8AE9D"/>
<path d="M118.693 497.298C124.524 489.123 129.991 480.637 135.406 472.202C141.55 462.622 147.59 452.99 153.577 443.358C157.951 436.329 162.272 429.248 166.594 422.219C167.375 420.917 168.208 419.616 168.989 418.262C169.561 417.273 169.561 416.075 169.665 414.982C170.446 408.317 171.279 401.653 172.113 394.989C173.31 385.409 174.612 375.828 176.07 366.3C177.215 358.855 178.256 351.254 180.183 344.016L180.651 342.454C180.703 342.246 180.807 342.038 180.86 341.83C180.912 341.621 180.964 341.621 180.86 341.83C180.912 341.725 180.912 341.621 180.964 341.517C181.64 340.217 182.48 339.01 183.463 337.925C186.847 334.02 190.804 330.583 194.709 327.303C203.207 320.053 212.201 313.408 221.627 307.414C227.979 303.405 235.268 300.021 242.974 301.531C244.64 301.843 246.306 302.468 247.764 303.301C248.52 303.739 249.234 304.244 249.899 304.811C250.107 305.019 250.315 305.28 250.628 305.332C251.044 305.436 252.033 304.967 252.398 304.811C256.603 303.564 260.881 302.572 265.206 301.843C268.486 301.323 272.651 301.218 274.838 304.29C276.66 306.998 276.452 310.642 274.317 313.089C271.766 316.109 267.757 317.515 264.165 318.712C260.364 319.962 256.615 321.316 253.127 323.398C246.671 327.251 241.36 332.718 236.466 338.289C233.866 341.095 231.431 344.05 229.176 347.14C227.146 349.952 225.428 353.336 225.428 356.929C225.428 359.792 226.573 362.864 228.968 364.634C231.624 366.561 235.372 365.936 238.132 364.686C241.36 363.229 244.119 360.886 246.618 358.334C249.33 355.633 251.676 352.587 253.595 349.275C255.522 345.943 256.927 342.35 258.489 338.862C259.322 336.988 260.26 335.113 261.197 333.291C262.03 331.521 262.915 329.802 263.956 328.136C267.549 322.878 275.775 320.222 280.149 326.054C284.522 331.885 283.221 340.164 281.19 346.568C279.993 350.42 278.274 354.013 276.556 357.658C274.647 361.692 272.686 365.702 270.673 369.685C264.789 381.347 258.542 392.75 252.398 404.308C247.452 413.576 242.557 422.896 237.663 432.216C231.925 443.126 226.198 454.043 220.482 464.965L203.196 497.87L188.513 525.673L183.046 535.982C182.838 536.347 182.63 537.284 183.255 537.388C183.879 537.492 184.504 536.451 184.712 536.034C192.574 521.404 200.28 506.669 207.986 491.987C217.67 473.556 227.354 455.124 237.038 436.745C244.9 421.802 252.814 406.86 260.728 391.917C267.705 378.9 274.734 365.832 280.721 352.295C283.273 346.568 285.147 340.268 285.095 333.916C285.043 329.178 283.481 323.45 279.003 321.055C274.005 318.348 268.122 321.368 264.633 325.117C262.394 327.564 260.989 330.583 259.531 333.551C258.068 336.536 256.679 339.557 255.366 342.611C254.168 345.578 252.658 348.39 250.94 351.045C249.17 353.596 247.087 355.887 244.796 357.97C241.152 361.354 233.914 365.988 229.593 361.094C227.875 359.115 227.198 356.46 227.615 353.857C228.187 350.785 230.114 348.234 232.04 345.839C236.049 340.997 240.214 336.102 244.9 331.885C247.243 329.698 249.847 327.772 252.554 326.106C255.377 324.434 258.381 323.089 261.509 322.097C267.497 320.118 273.953 317.879 276.973 311.788C279.368 306.998 278.118 300.489 272.339 299.136C269.371 298.459 266.247 299.136 263.332 299.761C261.509 300.125 259.739 300.542 257.917 300.958C256.146 301.375 254.376 302.104 252.554 302.416C251.721 302.572 251.409 302.051 250.732 301.583C250.173 301.17 249.581 300.804 248.961 300.489C247.66 299.813 246.306 299.292 244.9 298.98C242.146 298.365 239.299 298.294 236.518 298.771C230.062 299.813 224.334 303.405 218.972 306.946C211.56 311.857 204.4 317.14 197.521 322.774C193.824 325.793 190.179 328.865 186.795 332.197C184.296 334.645 181.693 337.248 179.922 340.268C178.985 342.038 178.36 343.912 177.944 345.891C177.267 348.598 176.746 351.41 176.226 354.169C174.872 361.615 173.727 369.164 172.685 376.662C170.819 389.828 169.136 403.019 167.635 416.231C167.531 417.012 167.479 417.793 167.375 418.574L167.791 417.533C163.675 424.367 159.51 431.17 155.295 437.943C147.069 451.324 138.738 464.6 130.148 477.773C126.034 484.125 121.817 490.477 117.444 496.673C117.183 497.037 116.715 498.079 117.235 498.391C117.756 498.703 118.433 497.61 118.693 497.298Z" fill="#F8AE9D"/>
<path d="M286.553 295.544C291.187 292.785 296.029 290.39 301.028 288.307C300.131 293.529 298.537 298.607 296.29 303.406" fill="#4F27AA"/>
<path d="M286.397 296.741C289.938 294.658 293.583 292.732 297.331 291.066L300.611 289.66L299.987 288.983C299.882 289.452 299.83 289.972 299.726 290.441C299.674 290.701 299.622 290.909 299.57 291.17C299.57 291.222 299.57 291.274 299.518 291.326C299.518 291.274 299.57 291.118 299.518 291.326L299.414 291.742C299.206 292.732 298.945 293.669 298.685 294.658C298.428 295.646 298.115 296.62 297.748 297.574C297.592 298.042 297.435 298.511 297.227 298.98C297.227 299.032 297.071 299.344 297.123 299.188C297.11 299.266 297.074 299.338 297.019 299.396C296.915 299.656 296.811 299.865 296.759 300.125C296.343 301.206 295.874 302.266 295.353 303.301C295.197 303.665 294.884 304.655 295.561 304.707C296.238 304.759 296.811 303.822 297.019 303.353C298.841 299.5 300.299 295.439 301.236 291.274C301.509 290.047 301.752 288.815 301.965 287.577C302.017 287.161 301.809 286.692 301.34 286.9C297.383 288.566 293.53 290.389 289.782 292.471C288.74 293.044 287.699 293.669 286.658 294.242C286.344 294.454 286.08 294.731 285.882 295.054C285.684 295.378 285.558 295.74 285.512 296.116C285.512 296.324 285.512 296.637 285.721 296.793C285.929 296.949 286.241 296.845 286.397 296.741ZM301.651 287.629L302.328 286.848L301.651 287.629Z" fill="#4F27AA"/>
<path d="M302.172 288.618L302.641 288.098L302.849 287.838C303.005 287.629 303.162 287.369 303.318 287.161C303.474 286.952 303.578 286.692 303.63 286.432C303.682 286.223 303.734 286.015 303.734 285.807C303.786 285.651 303.734 285.443 303.63 285.286L303.474 285.078C303.318 284.974 303.11 284.974 302.901 285.078L302.537 285.234C302.276 285.401 302.047 285.612 301.86 285.859L301.391 286.38L301.183 286.64C301.027 286.848 300.871 287.109 300.715 287.317C300.558 287.534 300.451 287.783 300.402 288.046C300.35 288.254 300.298 288.462 300.298 288.671C300.298 288.827 300.298 289.035 300.402 289.139L300.558 289.347C300.715 289.452 300.923 289.452 301.131 289.347L301.496 289.191C301.704 289.035 301.964 288.827 302.172 288.618ZM286.242 295.648C289.964 297.792 293.263 300.598 295.978 303.926L217.047 385.981C215.068 388.064 212.204 390.251 208.82 388.533C206.009 387.075 204.551 383.482 204.915 380.931C205.28 378.38 207.05 376.506 208.768 374.787L286.763 296.429" fill="#4F27AA"/>
<path d="M285.407 296.949C289.075 299.04 292.323 301.794 294.987 305.071L295.82 302.885L278.378 321.003L260.936 339.122L243.494 357.241L226.052 375.36L217.305 384.419C216.16 385.565 215.223 386.658 213.765 387.283C213.047 387.615 212.258 387.765 211.468 387.719C210.677 387.674 209.911 387.435 209.235 387.023C208.019 386.286 207.057 385.196 206.476 383.899C206.215 383.326 206.007 382.649 205.851 382.024C205.791 381.715 205.756 381.401 205.747 381.087V380.827C205.747 380.619 205.747 380.515 205.799 380.358C205.851 379.994 205.903 379.681 206.059 379.369C206.163 379.161 206.007 379.525 206.059 379.317C206.111 379.213 206.111 379.161 206.163 379.057C206.215 378.953 206.267 378.9 206.267 378.796C206.267 378.692 206.163 378.953 206.32 378.744L206.632 378.276C206.632 378.276 206.892 377.911 206.736 378.12C206.58 378.328 206.788 378.015 206.84 378.015L207.621 377.078C207.621 377.026 208.038 376.662 207.829 376.818L208.246 376.401L209.287 375.36L211.526 373.121L229.281 355.315L247.035 337.508L264.789 319.702L282.544 301.895L286.865 297.574C287.334 297.105 287.907 296.324 287.802 295.595C287.698 294.866 286.969 295.179 286.657 295.543L268.59 313.662L250.523 331.781L232.457 349.9L214.494 368.019L209.964 372.548C208.591 373.817 207.32 375.193 206.163 376.662C204.914 378.172 204.133 380.046 203.872 381.972C203.77 383.416 204.02 384.864 204.601 386.19C205.903 389.157 209.027 391.292 212.307 390.355C213.973 389.782 215.483 388.845 216.681 387.543C218.138 386.138 219.492 384.628 220.898 383.17L238.652 364.739L256.407 346.307L274.109 327.928L291.863 309.497L296.185 305.019C296.497 304.707 296.758 304.29 296.966 303.874C297.07 303.613 297.226 303.093 297.07 302.832C294.322 299.454 290.989 296.597 287.23 294.398C286.709 294.085 286.032 294.971 285.772 295.335C285.511 295.7 284.835 296.637 285.407 296.949Z" fill="#4F27AA"/>
<path d="M285.409 296.95C289.077 299.042 292.325 301.796 294.989 305.072L295.822 302.886L278.276 321.109L260.729 339.332L243.235 357.502L225.689 375.725C222.774 378.797 219.806 381.817 216.89 384.889C215.849 385.982 214.807 386.92 213.35 387.388C211.84 387.857 210.122 387.596 208.872 386.607C207.727 385.774 206.841 384.629 206.373 383.275C206.12 382.678 205.962 382.046 205.904 381.401C205.852 380.828 205.852 380.255 206.008 379.734C206.06 379.526 206.113 379.37 206.165 379.162C206.113 379.37 206.165 379.162 206.165 379.11C206.165 379.058 206.269 378.953 206.269 378.849L206.373 378.641L206.425 378.537C206.529 378.329 206.633 378.173 206.789 378.016C206.946 377.756 206.841 377.964 206.789 378.016L206.946 377.808L207.362 377.287C207.466 377.131 207.622 376.975 207.727 376.871L207.935 376.663L208.039 376.558C209.401 375.144 210.79 373.755 212.204 372.393C218.088 366.458 223.971 360.522 229.75 354.535C235.582 348.547 241.361 342.612 247.088 336.728C252.876 330.732 258.69 324.762 264.53 318.818C270.336 312.857 276.167 306.921 282.024 301.011C283.43 299.605 284.836 298.148 286.294 296.742C286.762 296.273 287.335 295.492 287.231 294.763C287.127 294.034 286.398 294.399 286.085 294.711C280.093 300.712 274.14 306.751 268.227 312.83C262.291 318.87 256.408 324.961 250.525 331.001L232.822 349.172C226.939 355.212 221.003 361.303 215.016 367.343L210.486 371.873C209.132 373.226 207.727 374.58 206.477 376.038C205.175 377.548 204.238 379.37 203.822 381.296C203.56 382.769 203.722 384.286 204.29 385.67C205.436 388.69 208.299 391.085 211.631 390.46C213.35 390.148 214.86 389.054 216.109 387.909C217.567 386.555 218.869 385.045 220.274 383.639L238.081 365.156L255.939 346.569L273.746 328.085L291.552 309.602L295.926 305.072C296.238 304.76 296.499 304.343 296.707 303.927C296.811 303.667 296.967 303.146 296.811 302.886C294.063 299.507 290.73 296.65 286.971 294.451C286.45 294.139 285.773 295.024 285.513 295.388C285.252 295.753 284.836 296.638 285.409 296.95Z" fill="#4F27AA"/>
<path d="M204.915 380.878C205.332 378.275 207.05 376.452 208.768 374.734L212.829 370.621C215.864 372.719 218.612 375.205 221.003 378.014C221.655 378.673 222.106 379.504 222.305 380.409L216.994 385.928C215.016 388.011 212.152 390.198 208.768 388.48C206.008 387.022 204.498 383.429 204.915 380.878Z" fill="#4F27AA"/>
<path d="M205.903 380.203C205.903 380.151 206.007 379.682 205.903 379.995L206.007 379.682C206.06 379.526 206.112 379.422 206.112 379.266C206.216 378.954 206.007 379.526 206.112 379.214C206.216 378.901 206.32 378.797 206.424 378.589L206.372 378.693L206.476 378.537L206.632 378.277L206.841 377.964C207.049 377.704 206.632 378.225 206.841 377.964C207.049 377.704 207.101 377.6 207.257 377.392C207.413 377.183 207.569 377.027 207.726 376.871L207.986 376.559C208.194 376.35 207.778 376.767 208.038 376.506C209.643 374.848 211.275 373.217 212.932 371.612L211.995 371.925C213.868 373.234 215.643 374.678 217.306 376.246C218.087 377.027 218.868 377.808 219.597 378.641C220.326 379.474 221.159 380.307 221.263 381.296L222.2 379.318C220.742 380.88 219.232 382.39 217.774 383.9C217.15 384.577 216.525 385.253 215.848 385.826C215.692 385.93 215.535 386.087 215.379 386.191C215.119 386.399 215.588 386.034 215.327 386.243L215.171 386.347C214.807 386.607 214.442 386.815 214.078 387.024C213.817 387.18 214.286 386.92 213.974 387.076L213.713 387.18C213.557 387.232 213.349 387.336 213.193 387.388C212.828 387.492 212.464 387.596 212.099 387.596C211.266 387.648 210.433 387.44 209.704 387.076C208.405 386.454 207.358 385.406 206.736 384.108C206.58 383.796 206.424 383.431 206.268 383.067C206.216 382.963 206.216 382.911 206.164 382.806C206.112 382.702 206.06 382.442 206.112 382.65C206.06 382.442 206.007 382.286 205.955 382.077C205.899 381.695 205.847 381.314 205.799 380.932V380.672V380.724V380.568C205.851 380.515 205.903 380.359 205.903 380.203C205.955 379.995 205.903 379.63 205.695 379.526C205.487 379.422 205.226 379.474 205.018 379.63C204.704 379.842 204.44 380.12 204.242 380.443C204.045 380.766 203.919 381.128 203.873 381.505C203.612 383.796 204.237 386.087 205.695 387.909C206.469 388.892 207.494 389.648 208.663 390.096C209.958 390.563 211.377 390.563 212.672 390.096C215.431 389.106 217.358 386.659 219.336 384.629L221.054 382.858L221.888 382.025C222.512 381.505 222.981 380.88 223.241 380.099C223.502 379.266 223.033 378.381 222.564 377.652C222.107 377.038 221.621 376.448 221.107 375.882C218.868 373.435 216.369 371.196 213.661 369.321C213.349 369.113 212.88 369.426 212.724 369.634C210.902 371.456 209.079 373.226 207.309 375.101C205.539 376.975 204.289 379.058 203.873 381.505C203.821 381.765 203.873 381.973 204.081 382.182C204.289 382.286 204.55 382.234 204.758 382.077C205.383 381.609 205.799 380.932 205.903 380.203ZM278.587 303.354C279.628 303.823 283.012 305.489 284.626 306.843C286.17 308.185 287.551 309.706 288.739 311.372L269.475 331.418C267.288 327.461 263.8 324.441 259.583 322.775C265.878 316.262 272.212 309.788 278.587 303.354Z" fill="#4F27AA"/>
<path d="M277.754 304.707C279.006 305.276 280.223 305.92 281.399 306.633C282.128 307.05 282.805 307.466 283.429 307.935C284.172 308.522 284.869 309.166 285.512 309.861C286.293 310.746 287.074 311.632 287.751 312.621L288.584 310.434C283.582 315.653 278.566 320.86 273.537 326.054L269.32 330.427L270.413 330.271C268.695 327.147 266.144 324.596 263.072 322.774C262.206 322.267 261.301 321.831 260.364 321.472L259.635 323.815C264.582 318.765 269.528 313.662 274.474 308.612C275.88 307.206 277.234 305.8 278.639 304.342C279.108 303.874 279.681 303.093 279.524 302.364C279.368 301.635 278.691 301.947 278.379 302.312C273.406 307.336 268.46 312.386 263.54 317.463L259.375 321.732C258.991 322.108 258.705 322.573 258.542 323.086C258.49 323.294 258.334 323.971 258.646 324.075C262.784 325.677 266.23 328.681 268.382 332.562C268.643 332.978 269.215 332.614 269.476 332.406L284.523 316.786L288.74 312.413C289.052 312.1 289.313 311.684 289.521 311.267C289.625 311.007 289.781 310.538 289.573 310.226C288.329 308.462 286.879 306.854 285.252 305.436C283.964 304.458 282.587 303.604 281.138 302.885C280.514 302.572 279.941 302.26 279.316 301.999C278.691 301.739 278.119 302.52 277.858 302.937C277.645 303.249 277.503 303.604 277.442 303.978C277.546 304.238 277.494 304.603 277.754 304.707Z" fill="#4F27AA"/>
<path d="M238.237 337.353C243.964 331.001 250.264 325.17 258.074 321.994C261.354 320.64 264.842 319.807 268.123 318.401C271.403 316.995 274.475 314.861 276.141 311.685C277.807 308.509 277.442 304.187 274.735 301.896C272.027 299.605 267.862 300.022 264.27 300.699C259.896 301.532 255.575 302.625 251.253 303.875" fill="#F8AE9D"/>
<path d="M238.601 338.082L240.007 336.52L240.163 336.364C240.423 336.103 240.007 336.52 240.163 336.364L240.527 335.999L241.256 335.27C242.194 334.281 243.183 333.344 244.172 332.407C245.141 331.48 246.149 330.594 247.192 329.751L247.973 329.127L248.181 328.97C248.337 328.814 247.921 329.179 248.233 328.918L248.65 328.606C249.17 328.189 249.743 327.773 250.316 327.408C251.409 326.68 252.503 325.951 253.7 325.274C253.96 325.118 254.273 324.961 254.533 324.805L254.95 324.597L255.21 324.493C255.262 324.493 255.314 324.441 255.314 324.441C255.911 324.142 256.519 323.864 257.136 323.608C259.896 322.41 262.864 321.629 265.675 320.588C268.335 319.649 270.83 318.296 273.068 316.579C275.307 314.809 276.921 312.362 277.754 309.602C278.379 307.311 278.327 304.656 277.13 302.521C275.88 300.282 273.589 299.137 271.142 298.877C268.487 298.564 265.779 299.189 263.176 299.71C260.052 300.334 256.98 301.115 253.96 301.948C253.179 302.157 252.45 302.365 251.669 302.573C250.993 302.781 250.472 303.615 250.316 304.239C250.212 304.708 250.212 305.437 250.888 305.229C253.863 304.344 256.867 303.562 259.896 302.886C261.406 302.573 262.864 302.261 264.373 301.948C264.924 301.832 265.48 301.745 266.04 301.688C266.612 301.636 267.289 301.532 267.862 301.532C270.205 301.428 272.6 301.896 274.318 303.667C274.682 304.031 274.943 304.448 275.203 304.916C275.307 305.124 275.411 305.385 275.516 305.593C275.568 305.697 275.62 305.853 275.672 305.957L275.724 306.166C275.776 306.322 275.724 306.062 275.776 306.27C275.932 306.791 275.984 307.311 276.036 307.884V308.509C276.036 308.821 275.984 309.029 275.984 309.342C275.984 309.498 275.932 309.602 275.932 309.758C275.932 309.914 275.932 309.914 275.88 309.967C275.828 310.019 275.88 310.175 275.88 309.914C275.828 310.227 275.776 310.487 275.672 310.747C275.672 310.8 275.62 310.852 275.62 310.904C275.62 310.956 275.463 311.112 275.62 310.852L275.463 311.164L275.307 311.528C275.252 311.586 275.216 311.659 275.203 311.737C275.203 311.633 275.359 311.424 275.255 311.685C275.151 311.945 274.943 312.205 274.787 312.466C274.735 312.518 274.63 312.674 274.787 312.518L274.735 312.57C274.63 312.674 274.526 312.83 274.422 312.986C274.349 313.101 274.262 313.206 274.162 313.299L274.006 313.507C273.902 313.663 274.214 313.299 274.058 313.455L273.381 314.132C273.169 314.338 272.942 314.529 272.704 314.704C272.652 314.757 272.548 314.861 272.704 314.704C272.652 314.757 272.6 314.809 272.548 314.809L272.131 315.121C271.611 315.485 271.09 315.798 270.517 316.11C270.257 316.266 269.997 316.371 269.736 316.527L269.58 316.579L269.424 316.631L268.955 316.839C268.33 317.152 267.654 317.412 267.029 317.672C264.269 318.714 261.354 319.495 258.594 320.64C256.095 321.629 253.7 322.931 251.461 324.389C246.879 327.408 242.922 331.209 239.174 335.218C238.705 335.687 238.289 336.208 237.82 336.676C237.456 337.093 236.935 338.03 237.247 338.603C237.56 339.175 238.341 338.394 238.601 338.082ZM246.775 357.763C251.097 353.077 254.741 345.579 257.188 339.852C258.698 336.26 260.781 332.303 262.603 328.866C264.425 325.43 268.382 322.15 272.183 321.421C278.744 320.171 282.805 325.17 283.794 331.73C284.783 338.29 282.492 346.36 279.733 352.4C273.329 366.614 265.935 380.359 258.594 394.105L209.756 485.324" fill="#F8AE9D"/>
<path d="M247.192 358.491C251.774 353.388 254.95 346.984 257.657 340.788C259.115 337.352 260.781 334.02 262.499 330.74C263.176 329.282 264.009 327.98 264.999 326.731C266.11 325.514 267.433 324.508 268.903 323.763C271.403 322.513 274.475 322.097 277.026 323.346C279.369 324.492 280.879 326.627 281.816 328.969C284.315 335.217 282.649 342.559 280.462 348.65C279.16 352.191 277.494 355.627 275.88 359.011C274.162 362.656 272.34 366.248 270.57 369.841C266.873 377.13 263.02 384.315 259.167 391.552C251.305 406.235 243.443 420.969 235.529 435.652L211.892 479.804L208.924 485.271C208.716 485.635 208.507 486.572 209.132 486.676C209.757 486.78 210.382 485.739 210.59 485.323L234.853 439.973L259.219 394.52C263.124 387.179 267.081 379.838 270.882 372.392C272.756 368.696 274.631 364.999 276.401 361.302C278.171 357.658 279.941 354.065 281.451 350.316C284.055 343.86 286.137 336.311 284.575 329.334C283.95 326.679 282.857 324.075 280.827 322.149C278.9 320.327 276.245 319.494 273.641 319.806C270.257 320.222 267.185 322.097 264.894 324.492C262.291 327.199 260.729 330.74 259.063 334.02C255.835 340.424 253.388 347.192 249.327 353.18C248.442 354.482 247.505 355.731 246.411 356.877C246.047 357.241 245.474 358.23 245.838 358.803C246.203 359.376 246.932 358.751 247.192 358.491ZM667.087 364.415C665.322 364.338 663.519 364.261 661.946 363.494C660.373 362.727 659.145 361 659.452 359.273C659.644 358.391 660.142 357.623 660.833 357.048C661.525 356.482 662.286 356.005 663.097 355.628C665.476 354.4 672.344 352.827 672.344 352.827L694.713 358.314L713.629 377.959C713.629 377.959 721.38 403.206 720.651 403.513C719.922 403.82 694.675 406.084 694.675 406.084L676.373 375.35L667.087 364.415Z" fill="#F8AE9D"/>
<path d="M667.547 365.45C665.053 365.373 662.367 365.143 660.525 363.263C659.523 362.302 658.875 361.031 658.683 359.656C658.626 359.073 658.7 358.485 658.899 357.934C659.098 357.383 659.418 356.883 659.834 356.471C660.64 355.666 661.638 355.013 662.674 354.553C663.288 354.246 663.94 354.016 664.592 353.786C666.212 353.254 667.85 352.781 669.503 352.366C670.086 352.203 670.675 352.062 671.268 351.944C671.537 351.829 671.805 351.79 672.074 351.829C672.419 351.906 672.726 351.982 673.072 352.059L679.172 353.555L687.268 355.551L693.407 357.047C693.753 357.124 694.098 357.2 694.443 357.316C694.789 357.507 695.096 357.776 695.326 358.083L699.048 361.958L704.726 367.829L710.213 373.507L713.513 376.922C713.897 377.268 714.203 377.728 714.395 378.227C714.51 378.649 714.664 379.071 714.779 379.493C715.393 381.488 715.968 383.445 716.582 385.44C717.388 388.126 718.155 390.812 718.961 393.498C719.659 395.835 720.299 398.189 720.88 400.558C721.072 401.363 721.263 402.169 721.417 403.013C721.494 403.359 721.685 404.164 721.34 404.395C721.187 404.471 721.072 404.471 720.918 404.51C720.688 404.548 720.458 404.586 720.189 404.586C719.383 404.702 718.578 404.778 717.733 404.855C715.201 405.124 712.669 405.354 710.136 405.622C707.335 405.891 704.534 406.16 701.772 406.428L696.055 406.965L695.211 407.042C694.827 407.08 694.443 406.582 694.29 406.313L693.369 404.74L690.952 400.673L687.575 395.033L683.853 388.778L680.323 382.831L677.561 378.188L676.103 375.733C676.062 375.691 676.035 375.637 676.026 375.579C676.026 375.503 676.295 375.886 676.18 375.81L676.064 375.694L674.875 374.313L670.463 369.172L667.048 365.181L666.856 364.951C666.587 364.644 666.204 363.953 666.434 363.531C666.664 363.109 667.24 363.646 667.431 363.877L669.964 366.793L674.568 372.126L676.256 374.083C676.525 374.352 676.755 374.658 676.985 374.965L678.021 376.692L680.515 380.874L683.93 386.591L687.652 392.845L691.144 398.716L693.868 403.244C694.328 404.011 694.789 404.74 695.211 405.507L695.287 405.622L694.367 404.893L696.976 404.663L703.192 404.088C705.686 403.857 708.218 403.627 710.712 403.359C712.861 403.167 715.048 402.937 717.196 402.706C717.887 402.63 718.616 402.553 719.307 402.476L719.959 402.399L720.151 402.361C720.266 402.361 720.304 402.284 720.151 402.361C720.227 402.323 720.036 402.515 720.112 402.438C720.112 402.476 720.036 402.668 720.074 402.553C720.074 402.515 720.074 402.361 720.074 402.553V402.438C720.074 402.399 720.036 402.246 720.036 402.169C720.036 402.092 719.997 401.939 719.959 401.824C719.92 401.709 719.92 401.709 719.92 401.632L719.882 401.517V401.479L719.92 401.632L719.69 400.596C719.23 398.601 718.654 396.644 718.117 394.687C717.426 392.308 716.736 389.891 716.045 387.512C715.431 385.402 714.779 383.292 714.165 381.181C713.825 380.041 713.48 378.903 713.129 377.766L713.091 377.613L713.705 378.61L711.825 376.654L707.297 371.973L701.849 366.332L697.129 361.421C696.362 360.615 695.556 359.886 694.827 359.042L694.789 359.004L695.172 359.234L690.146 358.006L680.247 355.589L673.225 353.862C673.077 353.86 672.932 353.821 672.803 353.747C673.033 353.862 672.995 353.747 672.918 353.786C672.841 353.824 672.803 353.824 672.726 353.824L671.921 354.016C670.079 354.476 668.237 354.975 666.395 355.551C665.551 355.819 664.746 356.126 663.94 356.471C662.674 357.085 661.331 357.853 660.64 359.119C660.333 359.618 660.256 360.232 660.333 360.807C660.295 360.615 660.371 360.884 660.371 360.922C660.371 360.961 660.41 361.037 660.41 361.076C660.333 360.846 660.41 361.114 660.448 361.152C660.487 361.191 660.487 361.268 660.525 361.306C660.333 361.076 660.525 361.306 660.563 361.344C660.602 361.383 660.755 361.613 660.64 361.459C660.525 361.306 660.717 361.536 660.717 361.536C660.717 361.536 661.024 361.843 660.832 361.69C661.238 362.1 661.721 362.425 662.252 362.649C662.981 362.917 663.71 363.109 664.477 363.186C665.23 363.256 665.985 363.308 666.741 363.34C667.24 363.378 667.623 363.953 667.815 364.337C667.815 364.644 668.045 365.488 667.547 365.45Z" fill="#F8AE9D"/>
<path d="M785.84 493.143C773.868 476.261 748.737 434.822 748.737 434.822C748.737 434.822 743.096 385.364 740.027 378.496C737.456 372.741 719.384 359.158 712.324 354.477C708.679 352.06 704.957 349.604 700.737 348.453C696.247 347.225 691.068 347.686 687.653 350.909C684.507 349.988 681.283 349.182 678.06 348.568C675.451 348.069 672.42 347.724 670.348 349.451C668.276 351.177 668.123 354.324 669.312 356.664C670.502 359.005 672.804 360.579 675.221 361.615C677.638 362.651 680.171 363.264 682.626 364.261C690.224 367.369 695.864 373.854 701.159 380.108C703.192 382.487 705.303 385.02 705.84 388.128C706.377 391.236 704.689 394.918 701.619 395.417C696.938 395.954 693.024 392.309 689.84 388.818C686.655 385.326 685.044 381.643 683.24 377.422C682.128 374.774 680.593 371.858 679.25 369.326C677.907 366.794 674.991 364.376 672.19 363.839C667.355 362.918 664.363 366.602 663.634 371.436C662.905 376.271 664.593 382.218 666.626 386.669C671.346 397.145 676.794 407.274 682.204 417.404C694.214 439.811 725.293 499.436 737.303 521.844" fill="#F8AE9D"/>
<path d="M785.379 493.449C781.082 487.425 777.053 481.171 773.063 474.955C768.549 467.902 764.085 460.816 759.672 453.699C756.449 448.519 753.264 443.301 750.08 438.121C749.504 437.162 748.89 436.203 748.315 435.205C747.893 434.476 747.893 433.593 747.816 432.788C747.233 427.875 746.632 422.963 746.012 418.054C745.137 410.994 744.165 403.946 743.096 396.912C742.252 391.426 741.485 385.824 740.065 380.49L739.72 379.339C739.681 379.186 739.605 379.032 739.566 378.879C739.528 378.725 739.49 378.725 739.566 378.879C739.528 378.802 739.528 378.725 739.49 378.649C738.992 377.692 738.373 376.802 737.648 376.001C735.154 373.124 732.238 370.591 729.36 368.174C723.098 362.832 716.469 357.934 709.523 353.517C704.842 350.562 699.471 348.069 693.792 349.181C692.564 349.411 691.336 349.872 690.262 350.486C689.725 350.793 689.188 351.176 688.689 351.598C688.535 351.752 688.382 351.944 688.152 351.982C687.845 352.059 687.116 351.714 686.847 351.598C683.747 350.68 680.595 349.95 677.408 349.411C674.991 349.028 671.921 348.951 670.31 351.215C668.967 353.21 669.121 355.896 670.694 357.699C672.574 359.925 675.528 360.961 678.176 361.843C680.977 362.764 683.739 363.762 686.31 365.296C691.068 368.136 694.981 372.164 698.588 376.27C700.504 378.338 702.298 380.516 703.96 382.793C705.456 384.865 706.722 387.359 706.722 390.006C706.722 392.116 705.878 394.38 704.113 395.685C702.156 397.104 699.394 396.644 697.36 395.723C694.981 394.649 692.948 392.922 691.106 391.042C689.108 389.052 687.379 386.807 685.965 384.366C684.545 381.91 683.509 379.263 682.358 376.692C681.744 375.311 681.053 373.929 680.363 372.586C679.749 371.282 679.097 370.016 678.329 368.788C675.682 364.913 669.619 362.956 666.396 367.253C663.173 371.55 664.133 377.651 665.629 382.371C666.511 385.21 667.778 387.857 669.044 390.543C670.45 393.517 671.895 396.471 673.38 399.406C677.715 408.001 682.32 416.404 686.847 424.922C690.492 431.752 694.099 438.62 697.706 445.488C701.926 453.507 706.147 461.565 710.367 469.622L723.106 493.871L733.926 514.361L737.955 521.958C738.108 522.226 738.262 522.917 737.801 522.994C737.341 523.07 736.881 522.303 736.727 521.996C730.933 511.214 725.255 500.356 719.576 489.536C712.439 475.953 705.303 462.37 698.166 448.826C692.361 437.807 686.542 426.795 680.708 415.79C675.567 406.198 670.387 396.567 665.974 386.591C664.094 382.371 662.713 377.728 662.751 373.047C662.79 369.555 663.941 365.335 667.24 363.57C670.924 361.574 675.26 363.8 677.83 366.562C679.48 368.366 680.516 370.591 681.591 372.778C682.669 374.979 683.692 377.205 684.66 379.455C685.543 381.642 686.655 383.713 687.921 385.67C689.226 387.55 690.761 389.239 692.449 390.773C695.135 393.267 700.468 396.682 703.653 393.076C704.919 391.618 705.418 389.661 705.111 387.742C704.689 385.478 703.269 383.598 701.849 381.833C698.895 378.265 695.825 374.658 692.372 371.55C690.646 369.939 688.727 368.519 686.732 367.291C684.651 366.059 682.437 365.068 680.132 364.337C675.72 362.879 670.962 361.229 668.737 356.74C666.972 353.21 667.893 348.414 672.152 347.416C674.339 346.917 676.641 347.416 678.79 347.877C680.132 348.145 681.437 348.452 682.78 348.759C684.085 349.066 685.389 349.603 686.732 349.833C687.346 349.949 687.576 349.565 688.075 349.22C688.486 348.916 688.922 348.646 689.379 348.414C690.339 347.915 691.336 347.531 692.372 347.301C694.401 346.848 696.5 346.796 698.55 347.148C703.307 347.915 707.528 350.563 711.48 353.172C716.942 356.792 722.218 360.685 727.288 364.836C730.012 367.061 732.698 369.325 735.192 371.781C737.034 373.584 738.952 375.502 740.257 377.728C740.948 379.032 741.408 380.414 741.715 381.872C742.214 383.867 742.598 385.939 742.981 387.972C743.979 393.459 744.823 399.023 745.59 404.548C746.965 414.251 748.206 423.972 749.312 433.709C749.389 434.284 749.427 434.86 749.504 435.435L749.197 434.668C752.23 439.704 755.299 444.718 758.406 449.708C764.468 459.569 770.607 469.354 776.938 479.061C779.969 483.742 783.077 488.423 786.3 492.989C786.492 493.257 786.837 494.025 786.454 494.255C786.07 494.485 785.571 493.68 785.379 493.449Z" fill="#F8AE9D"/>
<path d="M661.676 344.77C658.261 342.736 654.693 340.971 651.01 339.436C651.67 343.284 652.844 347.027 654.501 350.564" fill="#4F27AA"/>
<path d="M661.791 345.651C659.182 344.116 656.496 342.697 653.734 341.469L651.316 340.433L651.777 339.934C651.854 340.28 651.892 340.663 651.969 341.009C652.007 341.2 652.045 341.354 652.084 341.546C652.084 341.584 652.084 341.622 652.122 341.661C652.122 341.622 652.084 341.507 652.122 341.661L652.199 341.968C652.352 342.697 652.544 343.387 652.736 344.116C652.928 344.845 653.158 345.574 653.427 346.265C653.542 346.61 653.657 346.956 653.81 347.301C653.81 347.339 653.926 347.57 653.887 347.455C653.887 347.493 653.926 347.57 653.964 347.608C654.041 347.8 654.117 347.953 654.156 348.145C654.462 348.943 654.807 349.724 655.192 350.486C655.307 350.754 655.537 351.483 655.038 351.522C654.539 351.56 654.117 350.869 653.964 350.524C652.621 347.685 651.547 344.692 650.856 341.622C650.654 340.719 650.475 339.811 650.319 338.898C650.28 338.591 650.434 338.246 650.779 338.399C653.695 339.627 656.535 340.97 659.297 342.505C660.065 342.927 660.832 343.387 661.599 343.81C662.06 344.116 662.367 344.615 662.443 345.191C662.443 345.344 662.443 345.574 662.29 345.69C662.137 345.805 661.906 345.728 661.791 345.651ZM650.55 338.937L650.051 338.361L650.55 338.937Z" fill="#4F27AA"/>
<path d="M650.166 339.667L649.821 339.283L649.668 339.091C649.552 338.938 649.437 338.746 649.322 338.592C649.207 338.432 649.128 338.248 649.092 338.055C649.054 337.902 649.015 337.748 649.015 337.595C648.977 337.48 649.015 337.326 649.092 337.211L649.207 337.058C649.322 336.981 649.476 336.981 649.629 337.058L649.898 337.173C650.09 337.288 650.281 337.48 650.397 337.633L650.742 338.017L650.895 338.209C651.01 338.362 651.126 338.554 651.241 338.707C651.356 338.861 651.432 339.053 651.471 339.245C651.509 339.398 651.548 339.552 651.548 339.705C651.548 339.82 651.548 339.974 651.471 340.05L651.356 340.204C651.241 340.281 651.087 340.281 650.934 340.204L650.665 340.089C650.49 339.959 650.323 339.818 650.166 339.667ZM661.906 344.847C659.164 346.427 656.732 348.494 654.731 350.947L712.899 411.417C714.357 412.952 716.467 414.563 718.961 413.297C721.033 412.223 722.107 409.575 721.839 407.695C721.57 405.815 720.265 404.434 718.999 403.168L661.522 345.422" fill="#4F27AA"/>
<path d="M662.521 345.806C659.818 347.347 657.424 349.377 655.461 351.791L654.848 350.18L667.701 363.532L680.555 376.885L693.409 390.237L706.262 403.59L712.708 410.266C713.552 411.11 714.243 411.916 715.317 412.376C715.847 412.62 716.428 412.731 717.01 412.697C717.593 412.664 718.158 412.488 718.656 412.185C719.552 411.641 720.261 410.838 720.689 409.882C720.881 409.46 721.034 408.962 721.15 408.501C721.188 408.271 721.226 408.041 721.226 407.81V407.619C721.226 407.465 721.226 407.388 721.188 407.273C721.15 407.005 721.111 406.774 720.996 406.544C720.919 406.391 721.034 406.659 720.996 406.506C720.958 406.429 720.958 406.391 720.919 406.314C720.881 406.237 720.843 406.199 720.843 406.122C720.843 406.045 720.919 406.237 720.804 406.084L720.574 405.738C720.574 405.738 720.382 405.47 720.497 405.623C720.612 405.777 720.459 405.547 720.421 405.547L719.845 404.856C719.845 404.818 719.538 404.549 719.692 404.664L719.385 404.357L718.617 403.59L716.967 401.94L703.883 388.818L690.799 375.695L677.716 362.573L664.632 349.451L661.447 346.266C661.102 345.921 660.68 345.345 660.756 344.808C660.833 344.271 661.37 344.501 661.6 344.77L674.915 358.122L688.229 371.475L701.543 384.827L714.78 398.18L718.118 401.518C719.13 402.453 720.067 403.466 720.919 404.549C721.84 405.662 722.416 407.043 722.608 408.463C722.683 409.527 722.498 410.593 722.07 411.571C721.111 413.758 718.809 415.331 716.392 414.64C715.164 414.218 714.051 413.527 713.169 412.568C712.094 411.532 711.097 410.42 710.061 409.345L696.977 395.763L683.893 382.18L670.847 368.635L657.764 355.053L654.579 351.753C654.349 351.523 654.157 351.216 654.003 350.909C653.927 350.717 653.812 350.333 653.927 350.141C655.952 347.651 658.408 345.546 661.178 343.926C661.562 343.695 662.061 344.348 662.253 344.616C662.445 344.885 662.943 345.576 662.521 345.806Z" fill="#4F27AA"/>
<path d="M662.52 345.806C659.817 347.347 657.424 349.376 655.461 351.791L654.847 350.18L667.777 363.609L680.707 377.038L693.6 390.429L706.53 403.858C708.679 406.122 710.866 408.348 713.014 410.611C713.782 411.417 714.549 412.108 715.623 412.453C716.736 412.798 718.002 412.607 718.923 411.878C719.774 411.267 720.417 410.41 720.765 409.422C720.957 408.961 721.072 408.501 721.11 408.041C721.149 407.619 721.149 407.196 721.034 406.813C720.995 406.659 720.957 406.544 720.918 406.391C720.957 406.544 720.918 406.391 720.918 406.352C720.918 406.314 720.842 406.237 720.842 406.161L720.765 406.007L720.727 405.93C720.66 405.788 720.569 405.658 720.458 405.547C720.343 405.355 720.42 405.508 720.458 405.547L720.343 405.393L720.036 405.009C719.956 404.898 719.866 404.796 719.767 404.702L719.614 404.549L719.537 404.472C718.534 403.429 717.51 402.406 716.468 401.403C712.132 397.029 707.796 392.655 703.537 388.242L690.76 375.12C686.495 370.701 682.211 366.301 677.907 361.921C673.629 357.528 669.331 353.154 665.014 348.799C663.979 347.763 662.943 346.688 661.868 345.652C661.523 345.307 661.101 344.731 661.178 344.194C661.254 343.657 661.791 343.926 662.022 344.156C666.434 348.568 670.808 353.019 675.182 357.508C679.556 361.959 683.892 366.448 688.228 370.899L701.273 384.29C705.628 388.773 710.002 393.236 714.396 397.681L717.734 401.019C718.731 402.017 719.767 403.014 720.688 404.089C721.647 405.201 722.338 406.544 722.645 407.964C722.838 409.049 722.718 410.167 722.3 411.187C721.456 413.412 719.345 415.177 716.89 414.717C715.623 414.487 714.511 413.681 713.59 412.837C712.516 411.839 711.556 410.726 710.52 409.69L697.398 396.069L684.237 382.372L671.115 368.751L657.993 355.129L654.77 351.791C654.54 351.561 654.348 351.254 654.194 350.947C654.118 350.755 654.003 350.372 654.118 350.18C656.143 347.69 658.599 345.585 661.369 343.964C661.753 343.734 662.252 344.386 662.444 344.655C662.636 344.923 662.943 345.576 662.52 345.806Z" fill="#4F27AA"/>
<path d="M721.839 407.657C721.532 405.738 720.266 404.396 719 403.129L716.007 400.098C713.77 401.644 711.745 403.476 709.983 405.547C709.502 406.032 709.17 406.644 709.024 407.312L712.937 411.379C714.395 412.914 716.506 414.525 719 413.259C721.033 412.185 722.146 409.537 721.839 407.657Z" fill="#4F27AA"/>
<path d="M721.11 407.158C721.11 407.12 721.034 406.774 721.11 407.005L721.034 406.774C720.995 406.659 720.957 406.583 720.957 406.467C720.88 406.237 721.034 406.659 720.957 406.429C720.88 406.199 720.803 406.122 720.727 405.969L720.765 406.045L720.688 405.93L720.573 405.738L720.42 405.508C720.266 405.316 720.573 405.7 720.42 405.508C720.266 405.316 720.228 405.24 720.113 405.086C719.998 404.933 719.883 404.818 719.768 404.702L719.576 404.472C719.422 404.319 719.729 404.626 719.537 404.434C718.354 403.213 717.152 402.011 715.931 400.827L716.621 401.057C715.241 402.023 713.933 403.087 712.708 404.242C712.132 404.818 711.557 405.393 711.019 406.007C710.482 406.621 709.868 407.235 709.792 407.964L709.101 406.506C710.175 407.657 711.288 408.77 712.362 409.882C712.823 410.381 713.283 410.88 713.782 411.302C713.897 411.379 714.012 411.494 714.127 411.571C714.319 411.724 713.974 411.455 714.166 411.609L714.281 411.686C714.549 411.878 714.818 412.031 715.086 412.184C715.278 412.3 714.933 412.108 715.163 412.223L715.355 412.3C715.47 412.338 715.624 412.415 715.739 412.453C716.007 412.53 716.276 412.607 716.545 412.607C717.158 412.645 717.772 412.491 718.309 412.223C719.266 411.765 720.038 410.993 720.497 410.036C720.612 409.806 720.727 409.537 720.842 409.268C720.88 409.192 720.88 409.153 720.919 409.077C720.957 409 720.995 408.808 720.957 408.961C720.995 408.808 721.034 408.693 721.072 408.539C721.11 408.271 721.149 408.002 721.187 407.695V407.503V407.542V407.427C721.149 407.388 721.11 407.273 721.11 407.158C721.072 407.005 721.11 406.736 721.264 406.659C721.417 406.583 721.609 406.621 721.763 406.736C722.223 407.043 722.53 407.542 722.607 408.117C722.707 408.954 722.639 409.802 722.409 410.612C722.178 411.422 721.789 412.179 721.264 412.837C720.694 413.562 719.938 414.119 719.077 414.448C718.122 414.794 717.077 414.794 716.122 414.448C714.089 413.719 712.669 411.916 711.211 410.419L709.945 409.115L709.331 408.501C708.871 408.117 708.525 407.657 708.333 407.081C708.142 406.467 708.487 405.815 708.832 405.278C709.178 404.818 709.523 404.396 709.907 403.973C711.557 402.17 713.398 400.52 715.393 399.139C715.624 398.985 715.969 399.216 716.084 399.369C717.427 400.712 718.77 402.017 720.074 403.398C721.379 404.779 722.3 406.314 722.607 408.117C722.629 408.207 722.627 408.3 722.6 408.388C722.573 408.476 722.522 408.555 722.453 408.616C722.3 408.693 722.108 408.655 721.955 408.539C721.502 408.209 721.198 407.712 721.11 407.158ZM667.548 350.525C666.781 350.871 664.287 352.098 663.097 353.096C661.959 354.086 660.942 355.207 660.066 356.434L674.263 371.206C675.874 368.29 678.445 366.065 681.553 364.837C676.914 360.038 672.245 355.268 667.548 350.525Z" fill="#4F27AA"/>
<path d="M668.161 351.523C667.24 351.945 666.357 352.405 665.475 352.942C664.938 353.249 664.439 353.556 663.978 353.902C663.441 354.324 662.904 354.822 662.444 355.321C661.868 355.974 661.293 356.626 660.794 357.355L660.18 355.743C663.863 359.58 667.547 363.417 671.269 367.254L674.377 370.477L673.571 370.362C674.837 368.06 676.717 366.18 678.981 364.837C679.618 364.463 680.286 364.142 680.976 363.878L681.513 365.604C677.868 361.882 674.223 358.122 670.578 354.4C669.542 353.364 668.544 352.328 667.508 351.254C667.163 350.909 666.741 350.333 666.856 349.796C666.971 349.259 667.47 349.489 667.7 349.758C671.384 353.48 675.029 357.201 678.636 360.923L681.705 364.069C681.974 364.338 682.204 364.683 682.319 365.067C682.357 365.221 682.472 365.719 682.242 365.796C679.192 366.977 676.653 369.19 675.067 372.05C674.875 372.357 674.453 372.089 674.261 371.935L663.173 360.424C662.137 359.35 661.101 358.276 660.065 357.201C659.835 356.971 659.643 356.664 659.489 356.357C659.413 356.165 659.297 355.82 659.451 355.59C660.368 354.29 661.437 353.105 662.636 352.06C663.585 351.34 664.6 350.71 665.667 350.18C666.127 349.95 666.549 349.719 667.01 349.528C667.47 349.336 667.892 349.911 668.084 350.218C668.237 350.448 668.353 350.717 668.391 350.986C668.314 351.177 668.353 351.446 668.161 351.523Z" fill="#4F27AA"/>
<path d="M697.283 375.581C693.063 370.9 688.42 366.603 682.665 364.262C680.247 363.265 677.677 362.651 675.259 361.615C672.842 360.579 670.578 359.006 669.35 356.665C668.123 354.325 668.391 351.14 670.386 349.452C672.382 347.764 675.451 348.071 678.099 348.569C681.322 349.183 684.506 349.989 687.691 350.91" fill="#F8AE9D"/>
<path d="M697.015 376.118L695.979 374.967L695.863 374.852C695.672 374.66 695.979 374.967 695.863 374.852L695.595 374.584L695.058 374.046C694.367 373.317 693.638 372.627 692.909 371.936C692.195 371.253 691.452 370.6 690.684 369.979L690.108 369.519L689.955 369.404C689.84 369.289 690.146 369.557 689.916 369.365L689.609 369.135C689.216 368.819 688.806 368.524 688.381 368.253C687.576 367.716 686.77 367.178 685.887 366.68C685.696 366.564 685.465 366.449 685.274 366.334L684.967 366.181L684.775 366.104C684.736 366.104 684.698 366.066 684.698 366.066C684.238 365.835 683.816 365.644 683.355 365.452C681.322 364.569 679.135 363.994 677.063 363.226C675.102 362.534 673.263 361.537 671.614 360.272C669.964 358.967 668.775 357.164 668.161 355.13C667.701 353.442 667.739 351.485 668.621 349.912C669.542 348.262 671.23 347.418 673.034 347.226C674.991 346.996 676.986 347.457 678.904 347.84C681.206 348.301 683.47 348.876 685.696 349.49C686.271 349.644 686.808 349.797 687.384 349.951C687.883 350.104 688.266 350.718 688.381 351.178C688.458 351.524 688.458 352.061 687.959 351.907C685.767 351.255 683.553 350.68 681.322 350.181C680.209 349.951 679.135 349.72 678.022 349.49C677.616 349.404 677.206 349.34 676.794 349.298C676.372 349.26 675.873 349.183 675.451 349.183C673.724 349.107 671.959 349.452 670.693 350.756C670.425 351.025 670.233 351.332 670.041 351.677C669.964 351.831 669.888 352.023 669.811 352.176C669.772 352.253 669.734 352.368 669.696 352.445L669.657 352.598C669.619 352.713 669.657 352.521 669.619 352.675C669.504 353.059 669.465 353.442 669.427 353.864V354.325C669.427 354.555 669.465 354.708 669.465 354.939C669.465 355.054 669.504 355.13 669.504 355.246C669.504 355.361 669.504 355.361 669.542 355.399C669.581 355.437 669.542 355.553 669.542 355.361C669.581 355.591 669.619 355.783 669.696 355.975C669.696 356.013 669.734 356.051 669.734 356.09C669.734 356.128 669.849 356.243 669.734 356.051L669.849 356.282L669.964 356.55C670.005 356.592 670.032 356.646 670.041 356.704C670.041 356.627 669.926 356.473 670.003 356.665C670.079 356.857 670.233 357.049 670.348 357.241C670.386 357.279 670.463 357.394 670.348 357.279C670.36 357.292 670.373 357.305 670.386 357.318C670.463 357.394 670.54 357.509 670.617 357.624C670.693 357.74 670.732 357.778 670.808 357.855L670.924 358.008C671 358.123 670.77 357.855 670.885 357.97L671.384 358.469C671.537 358.622 671.729 358.776 671.883 358.891C671.921 358.929 671.998 359.006 671.883 358.891C671.921 358.929 671.959 358.967 671.998 358.967L672.305 359.198C672.688 359.466 673.072 359.696 673.494 359.927C673.686 360.042 673.878 360.118 674.07 360.234L674.185 360.272L674.3 360.31L674.645 360.464C675.106 360.694 675.605 360.886 676.065 361.078C678.099 361.845 680.247 362.421 682.281 363.265C684.123 363.994 685.888 364.953 687.537 366.027C690.914 368.253 693.83 371.054 696.593 374.008C696.938 374.353 697.245 374.737 697.59 375.082C697.859 375.389 698.242 376.08 698.012 376.502C697.782 376.924 697.206 376.349 697.015 376.118ZM690.99 390.622C687.806 387.169 685.12 381.644 683.317 377.423C682.204 374.775 680.669 371.859 679.326 369.327C677.983 366.795 675.067 364.377 672.266 363.84C667.432 362.919 664.439 366.603 663.71 371.437C662.981 376.272 664.669 382.219 666.703 386.67C671.422 397.145 676.87 407.274 682.281 417.404L718.271 484.626" fill="#F8AE9D"/>
<path d="M690.683 391.159C687.307 387.399 684.966 382.68 682.971 378.114C681.897 375.581 680.669 373.126 679.403 370.708C678.908 369.654 678.29 368.662 677.561 367.754C676.742 366.856 675.767 366.115 674.683 365.567C672.841 364.646 670.578 364.339 668.698 365.26C666.971 366.104 665.858 367.677 665.168 369.404C663.326 374.008 664.554 379.418 666.165 383.907C667.124 386.516 668.352 389.049 669.542 391.543C670.808 394.229 672.151 396.876 673.455 399.524C676.18 404.895 679.019 410.19 681.858 415.524C687.652 426.344 693.446 437.202 699.278 448.022L716.697 480.559L718.884 484.588C719.038 484.857 719.191 485.547 718.731 485.624C718.271 485.701 717.81 484.933 717.657 484.627L699.777 451.207L681.82 417.711C678.942 412.301 676.026 406.891 673.225 401.404C671.844 398.68 670.463 395.955 669.158 393.231C667.853 390.545 666.549 387.898 665.436 385.135C663.518 380.377 661.983 374.814 663.134 369.672C663.594 367.716 664.4 365.797 665.897 364.377C667.316 363.035 669.273 362.421 671.192 362.651C673.686 362.958 675.949 364.339 677.638 366.104C679.556 368.099 680.707 370.708 681.935 373.126C684.314 377.845 686.117 382.833 689.11 387.245C689.762 388.205 690.453 389.126 691.259 389.97C691.527 390.238 691.949 390.967 691.681 391.389C691.412 391.811 690.875 391.351 690.683 391.159Z" fill="#F8AE9D"/>
<path d="M301.087 159.949C302.242 161.949 300.798 164.449 298.489 164.449H269.91C267.601 164.449 266.157 161.949 267.312 159.949L281.602 135.199C282.756 133.199 285.643 133.199 286.798 135.199L301.087 159.949Z" fill="white" stroke="#E1E4E5" stroke-width="4"/>
<path d="M432.5 155C441.06 155 448 148.06 448 139.5C448 130.94 441.06 124 432.5 124C423.94 124 417 130.94 417 139.5C417 148.06 423.94 155 432.5 155Z" fill="white" stroke="#E1E4E5" stroke-width="4"/>
<path d="M577.5 283C586.06 283 593 276.06 593 267.5C593 258.94 586.06 252 577.5 252C568.94 252 562 258.94 562 267.5C562 276.06 568.94 283 577.5 283Z" fill="white" stroke="#E1E4E5" stroke-width="4"/>
<path d="M721.5 281C724.538 281 727 278.538 727 275.5C727 272.462 724.538 270 721.5 270C718.462 270 716 272.462 716 275.5C716 278.538 718.462 281 721.5 281Z" fill="#4F27AA"/>
<path d="M312.952 430.407C312.806 428.167 312.128 425.78 310.723 424.027C310.372 423.617 309.983 423.242 309.56 422.907C307.389 421.244 304.781 420.248 302.054 420.041C299.327 419.833 296.598 420.423 294.2 421.738C291.777 423.151 289.887 425.245 288.628 427.777C287.325 430.19 286.784 432.941 287.077 435.667C287.804 441.462 292.649 445.846 298.464 445.992C304.133 446.187 309.366 442.924 311.74 437.761C312.758 435.472 313.145 432.94 312.952 430.407ZM302.331 391.345C302.891 390.265 303.107 389.039 302.95 387.833C302.847 386.77 302.28 385.799 301.455 385.106C299.444 383.765 296.711 383.627 294.545 384.782C292.327 385.984 290.729 388.618 291.038 390.929C291.193 391.992 291.76 393.009 292.637 393.748C293.607 394.556 294.83 394.998 296.092 394.996C298.773 395.089 301.197 393.471 302.331 391.345Z" fill="#E1E4E5"/>
</g>
<defs>
<clipPath id="clip0_1235_21227">
<rect width="900" height="600" fill="white"/>
</clipPath>
</defs>
</svg>
