<svg width="900" height="600" viewBox="0 0 900 600" fill="none" xmlns="http://www.w3.org/2000/svg">
<g clip-path="url(#clip0_1235_21267)">
<mask id="mask0_1235_21267" style="mask-type:alpha" maskUnits="userSpaceOnUse" x="0" y="0" width="900" height="600">
<path d="M0 0H900V600H0V0Z" fill="white"/>
</mask>
<g mask="url(#mask0_1235_21267)">
<path d="M748.989 385.895H634.332C623.286 385.895 614.332 394.849 614.332 405.895V506.293C614.332 517.338 623.286 526.293 634.332 526.293H748.989C760.035 526.293 768.989 517.338 768.989 506.293V405.895C768.989 394.849 760.035 385.895 748.989 385.895Z" fill="#4F27AA"/>
<path d="M650.657 350.795H536C524.954 350.795 516 359.749 516 370.795V506.292C516 517.338 524.954 526.292 536 526.292H650.657C661.703 526.292 670.657 517.338 670.657 506.292V370.795C670.657 359.749 661.703 350.795 650.657 350.795Z" fill="#4F27AA"/>
<path d="M531.811 401.252H417.154C406.108 401.252 397.154 410.206 397.154 421.252V506.294C397.154 517.34 406.108 526.294 417.154 526.294H531.811C542.856 526.294 551.811 517.34 551.811 506.294V421.252C551.811 410.206 542.856 401.252 531.811 401.252Z" fill="#4F27AA"/>
<path fill-rule="evenodd" clip-rule="evenodd" d="M404.605 484.369C404.605 484.369 411.438 498.169 405.836 502.518C400.227 506.867 385.409 515.019 385.409 515.019L424.666 512.551L415.94 482.453L404.605 484.369Z" fill="#F8AE9D"/>
<path fill-rule="evenodd" clip-rule="evenodd" d="M420.777 496.857C419.542 497.447 421.573 502.992 417.227 502.602C412.881 502.214 410.153 496.482 406.948 496.854C403.743 497.226 401.709 502.998 395.607 507.018C389.506 511.039 380.46 515.834 381.066 519.876C381.673 523.919 395.908 525.001 403.119 523.663C410.331 522.326 413.697 519.427 418.376 519.658C423.055 519.889 425.995 519.316 427.462 516.312C428.928 513.307 422.203 496.177 420.777 496.857ZM463.743 362.736C451.858 363.267 385.709 377.897 373.691 380.383C361.673 382.869 351.513 396.319 360.677 411.893C370.97 429.376 397.528 479.027 403.976 490.22C407.167 495.76 423.268 492.654 419.486 483.355C412.436 466.022 409.162 422.478 391.187 406.601C391.187 406.601 451.636 417.122 477.748 405.071C496.725 396.311 492.432 361.453 463.743 362.736Z" fill="#2E2445"/>
<path fill-rule="evenodd" clip-rule="evenodd" d="M380.834 288.547C380.834 288.547 380.969 281.482 377.586 276.428C374.203 271.374 374.069 266.006 371.509 266.182C368.949 266.357 371.484 278.835 371.484 278.835C371.484 278.835 368.235 277.594 365.902 276.024C363.568 274.455 356.492 266.716 354.839 268.088C352.035 270.424 356.551 283.604 359.01 286.239C361.478 288.875 373.656 296.24 373.656 296.24L409.52 332.37L414.883 313.19L380.834 288.547Z" fill="#F8AE9D"/>
<path fill-rule="evenodd" clip-rule="evenodd" d="M452.568 285.358C447.04 298.181 436.917 321.738 432.744 328.766C427.514 337.566 419.267 341.444 409.611 334.914C407.59 333.548 401.789 328.77 401.789 328.77C402.647 320.404 405.772 313.412 411.159 307.791L414.818 310.818C414.818 310.818 425.193 284.22 433.54 268.813C440.768 255.483 460.984 265.863 452.568 285.358ZM476.463 235.583V246.93L484.796 240.221C484.796 240.221 487.357 229.35 489.44 221.276C490.746 216.212 493.928 199.077 481.117 199.879C470.622 181.379 440.057 192.829 439.813 215.431C439.521 242.616 439.76 253.2 439.76 253.2C457.043 254.192 466.772 251.693 476.463 235.583Z" fill="#2E2445"/>
<path fill-rule="evenodd" clip-rule="evenodd" d="M484.977 257.186C484.977 257.186 477.225 255.366 476.957 242.666C476.688 229.965 476.876 225.63 476.876 225.63L459.803 225.322C459.803 225.322 459.617 239.476 459.614 244.596C459.607 257.044 450.453 258.065 450.453 258.065C450.453 258.065 452.017 268.336 467.488 269.205C479.567 269.886 484.977 257.186 484.977 257.186Z" fill="#F8AE9D"/>
<path fill-rule="evenodd" clip-rule="evenodd" d="M480.857 219.288C488.473 218.993 487.231 230.143 479.319 230.128C479.319 230.128 474.723 245.967 458.769 245.967C445.811 245.967 444.969 227.506 444.851 223.823C444.725 219.897 444.709 206.997 444.709 206.997L481.153 206.98L480.857 219.288Z" fill="#F8AE9D"/>
<path fill-rule="evenodd" clip-rule="evenodd" d="M481.446 219.215C478.289 219.736 478.672 221.826 477.814 221.643C473.456 220.716 455.814 221.939 453.543 212.238C450.717 218.298 450.026 219.788 443.802 221.415V203.655L483.166 199.879C483.166 199.879 482.555 219.031 481.446 219.215Z" fill="#2E2445"/>
<path fill-rule="evenodd" clip-rule="evenodd" d="M483.243 255.889C473.516 261.846 462.271 264.031 451.802 257.561C434.719 291.246 430.461 331.437 434.57 375.859C459.482 385.721 480.418 383.781 498.243 372.509L483.243 255.889Z" fill="#4F27AA"/>
<path fill-rule="evenodd" clip-rule="evenodd" d="M362.02 484.924C362.02 484.924 362.226 501.167 348.842 507.24C335.466 513.312 325.936 512.946 327.149 517.642C328.362 522.336 363.178 522.146 366.429 518.475C369.201 515.351 375.227 486.267 376.886 488.491L362.02 484.924Z" fill="#F8AE9D"/>
<path fill-rule="evenodd" clip-rule="evenodd" d="M371.741 507.863C369.69 506.387 367.965 514.898 362.394 512.531C356.822 510.165 361.216 502.342 357.71 500.899C354.203 499.456 347.433 507.214 338.44 509.099C329.448 510.983 322.146 512.633 320.071 516.133C318.284 519.142 320.071 520.103 320.071 520.103C320.071 520.103 328.728 524.426 334.108 525.378C341.922 526.76 364.507 527.681 366.982 525.16C368.502 523.614 372.767 508.602 371.741 507.863ZM500.981 357.715C500.981 357.715 518.259 394.205 493.977 406.736C470.494 418.853 400.195 404.521 400.195 404.521C400.195 404.521 401.451 414.635 400.195 423.655C396.914 447.214 381.311 486.464 378.009 491.396C373.444 498.216 359.537 493.073 359.275 487.394C359.013 481.715 369.759 409.186 371.393 395.355C373.019 381.524 378.151 379.515 393.141 375.734C396.585 374.865 437.311 364.744 441.042 365.039C473.098 367.574 500.981 357.715 500.981 357.715Z" fill="#2E2445"/>
<path fill-rule="evenodd" clip-rule="evenodd" d="M482.818 255.915C466.708 308.688 457.046 383.507 507.361 370.491C480.633 321.281 516.967 299.133 508.732 273.701C505.916 265.005 483.028 255.232 482.818 255.915ZM452.655 257.19C446.507 272.61 443.552 284.708 440.795 307.341C438.495 326.191 439.646 365.09 439.646 365.09L432.049 366.584C432.049 366.584 426.618 306.487 428.433 298.749C431.481 285.765 433.545 278.178 437.569 266.308C439.785 259.793 452.655 257.19 452.655 257.19Z" fill="#2E2445"/>
<path fill-rule="evenodd" clip-rule="evenodd" d="M479.437 315.827C479.437 315.827 469.517 305.895 466.082 304.742C462.647 303.59 443.829 302.205 443.957 304.81C444.101 307.6 456.21 307.439 457.329 308.812C458.449 310.184 460.006 320.869 464.238 321.922C468.463 322.976 477.219 326.094 477.219 326.094L516.196 346.233L512.043 326.096L479.437 315.827Z" fill="#F8AE9D"/>
<path fill-rule="evenodd" clip-rule="evenodd" d="M509.29 273.773C521.113 290.459 531.207 315.876 535.082 325.786C538.957 335.695 535.048 350.642 518.01 347.707C515.982 347.358 512.682 346.074 512.682 346.074C506.417 337.487 505.319 330.114 507.657 323.549L509.86 324.48C509.86 324.48 492.926 294.464 488.791 286.418C481.885 272.98 498.876 259.071 509.29 273.773Z" fill="#2E2445"/>
<path fill-rule="evenodd" clip-rule="evenodd" d="M507.937 187.879C507.937 186.288 508.569 184.761 509.694 183.636C510.82 182.511 512.346 181.879 513.937 181.879H562.264C563.855 181.879 565.381 182.511 566.507 183.636C567.632 184.761 568.264 186.288 568.264 187.879V221.947C568.264 223.538 567.632 225.064 566.507 226.19C565.381 227.315 563.855 227.947 562.264 227.947H523.164C522.555 227.947 521.96 228.133 521.459 228.479L509.505 236.736C509.355 236.839 509.179 236.9 508.997 236.911C508.815 236.922 508.634 236.883 508.472 236.798C508.311 236.714 508.176 236.586 508.081 236.43C507.987 236.274 507.937 236.095 507.937 235.913V187.879Z" fill="#4F27AA"/>
<path d="M524.292 197.332C523.762 197.332 523.253 197.543 522.878 197.918C522.503 198.293 522.292 198.802 522.292 199.332V199.526C522.292 200.056 522.503 200.565 522.878 200.94C523.253 201.315 523.762 201.526 524.292 201.526H551.907C552.437 201.526 552.946 201.315 553.321 200.94C553.696 200.565 553.907 200.056 553.907 199.526V199.332C553.907 198.802 553.696 198.293 553.321 197.918C552.946 197.543 552.437 197.332 551.907 197.332H524.292ZM524.292 208.301C523.762 208.301 523.253 208.512 522.878 208.887C522.503 209.262 522.292 209.771 522.292 210.301V210.494C522.292 211.024 522.503 211.533 522.878 211.908C523.253 212.283 523.762 212.494 524.292 212.494H540.939C541.469 212.494 541.978 212.283 542.353 211.908C542.728 211.533 542.939 211.024 542.939 210.494V210.301C542.939 209.771 542.728 209.262 542.353 208.887C541.978 208.512 541.469 208.301 540.939 208.301H524.292Z" fill="white" stroke="white" stroke-width="2"/>
<path fill-rule="evenodd" clip-rule="evenodd" d="M733.812 166C733.812 164.409 734.444 162.883 735.569 161.757C736.695 160.632 738.221 160 739.812 160H788.14C789.731 160 791.257 160.632 792.383 161.757C793.508 162.883 794.14 164.409 794.14 166V200.068C794.14 201.659 793.508 203.185 792.383 204.311C791.257 205.436 789.731 206.068 788.14 206.068H749.04C748.431 206.068 747.836 206.253 747.335 206.6L735.381 214.856C735.231 214.96 735.055 215.021 734.873 215.032C734.691 215.043 734.51 215.004 734.348 214.919C734.186 214.835 734.051 214.708 733.956 214.551C733.862 214.395 733.812 214.216 733.812 214.034V166Z" fill="#4F27AA"/>
<path d="M750.168 175.453C749.638 175.453 749.129 175.664 748.754 176.039C748.379 176.414 748.168 176.923 748.168 177.453V177.647C748.168 178.178 748.379 178.686 748.754 179.061C749.129 179.436 749.638 179.647 750.168 179.647H777.783C778.313 179.647 778.822 179.436 779.197 179.061C779.572 178.686 779.783 178.178 779.783 177.647V177.453C779.783 176.923 779.572 176.414 779.197 176.039C778.822 175.664 778.313 175.453 777.783 175.453H750.168ZM750.168 186.421C749.638 186.421 749.129 186.632 748.754 187.007C748.379 187.382 748.168 187.891 748.168 188.421V188.615C748.168 189.146 748.379 189.654 748.754 190.029C749.129 190.404 749.638 190.615 750.168 190.615H766.814C767.344 190.615 767.853 190.404 768.228 190.029C768.603 189.654 768.814 189.146 768.814 188.615V188.421C768.814 187.891 768.603 187.382 768.228 187.007C767.853 186.632 767.344 186.421 766.814 186.421H750.168Z" fill="white" stroke="white" stroke-width="2"/>
<path fill-rule="evenodd" clip-rule="evenodd" d="M145.974 94.6465C145.974 93.0552 145.342 91.5291 144.217 90.4038C143.091 89.2786 141.565 88.6465 139.974 88.6465H91.647C90.0557 88.6465 88.5295 89.2786 87.4043 90.4038C86.2791 91.5291 85.647 93.0552 85.647 94.6465V128.714C85.647 130.306 86.2791 131.832 87.4043 132.957C88.5295 134.082 90.0557 134.714 91.647 134.714H130.746C131.355 134.714 131.95 134.9 132.451 135.246L144.405 143.503C144.555 143.607 144.731 143.668 144.913 143.679C145.095 143.69 145.277 143.651 145.438 143.567C145.6 143.482 145.735 143.355 145.83 143.198C145.924 143.042 145.974 142.863 145.974 142.68V94.6465Z" fill="#4F27AA"/>
<path d="M129.617 104.1C130.147 104.1 130.656 104.31 131.031 104.685C131.406 105.06 131.617 105.569 131.617 106.1V106.294C131.617 106.824 131.406 107.333 131.031 107.708C130.656 108.083 130.147 108.294 129.617 108.294H102.002C101.472 108.294 100.963 108.083 100.588 107.708C100.213 107.333 100.002 106.824 100.002 106.294V106.1C100.002 105.569 100.213 105.06 100.588 104.685C100.963 104.31 101.472 104.1 102.002 104.1H129.617ZM129.617 115.069C130.147 115.069 130.656 115.279 131.031 115.654C131.406 116.029 131.617 116.538 131.617 117.069V117.262C131.617 117.792 131.406 118.301 131.031 118.676C130.656 119.051 130.147 119.262 129.617 119.262H112.97C112.44 119.262 111.931 119.051 111.556 118.676C111.181 118.301 110.97 117.792 110.97 117.262V117.069C110.97 116.538 111.181 116.029 111.556 115.654C111.931 115.279 112.44 115.069 112.97 115.069H129.617Z" fill="white" stroke="white" stroke-width="2"/>
<path fill-rule="evenodd" clip-rule="evenodd" d="M319.277 182.395C319.277 180.803 319.909 179.277 321.034 178.152C322.159 177.027 323.686 176.395 325.277 176.395H373.604C375.195 176.395 376.721 177.027 377.846 178.152C378.972 179.277 379.604 180.803 379.604 182.395V216.463C379.604 218.054 378.972 219.58 377.846 220.705C376.721 221.83 375.195 222.463 373.604 222.463H334.504C333.895 222.463 333.301 222.648 332.799 222.994L320.845 231.251C320.695 231.354 320.519 231.415 320.337 231.426C320.155 231.437 319.974 231.398 319.813 231.313C319.651 231.229 319.516 231.101 319.421 230.945C319.327 230.79 319.277 230.611 319.277 230.429V182.395Z" fill="#4F27AA"/>
<path d="M335.633 191.848C335.102 191.848 334.594 192.058 334.219 192.433C333.844 192.809 333.633 193.317 333.633 193.848V194.041C333.633 194.571 333.844 195.08 334.219 195.455C334.594 195.83 335.102 196.041 335.633 196.041H363.248C363.778 196.041 364.287 195.83 364.662 195.455C365.037 195.08 365.248 194.571 365.248 194.041V193.848C365.248 193.317 365.037 192.809 364.662 192.433C364.287 192.058 363.778 191.848 363.248 191.848H335.633ZM335.633 202.816C335.102 202.816 334.594 203.026 334.219 203.401C333.844 203.777 333.633 204.285 333.633 204.816V205.01C333.633 205.54 333.844 206.049 334.219 206.424C334.594 206.799 335.102 207.01 335.633 207.01H352.28C352.81 207.01 353.319 206.799 353.694 206.424C354.069 206.049 354.28 205.54 354.28 205.01V204.816C354.28 204.285 354.069 203.777 353.694 203.401C353.319 203.026 352.81 202.816 352.28 202.816H335.633Z" fill="white" stroke="white" stroke-width="2"/>
<path d="M212.957 125.043C212.287 127.719 213.176 130.502 214.64 132.839C215.675 134.491 217.122 132.667 219.231 132.375C222.495 131.918 224.562 128.463 225.268 120.047C225.595 113.899 225.441 110.832 225.098 110.296C223.879 108.375 220.744 107.732 218.271 107.917" fill="#2E2445"/>
<path fill-rule="evenodd" clip-rule="evenodd" d="M218.882 490.852C218.882 490.852 218.684 503.491 226.485 507.981C234.286 512.471 246.372 520.813 246.372 520.813L200.395 522.363L201.706 490.738L218.882 490.852Z" fill="#F8AE9D"/>
<path fill-rule="evenodd" clip-rule="evenodd" d="M198.791 504.781L198.043 525.285H208.722L209.454 522.644C209.454 522.644 213.475 522.48 215.798 523.621C218.254 524.828 218.584 525.413 218.584 525.413L252.458 525.484C252.458 525.484 254.129 518.857 243.803 514.063C233.478 509.269 225.959 502.464 224.531 501.767C223.093 501.066 220.19 500.669 218.146 502.318C216.103 503.966 214.486 508.299 209.855 508.435C203.894 508.61 200.469 501.313 198.791 504.781ZM185.588 284.574C185.588 284.574 198.137 391.054 198.527 398.456C198.918 405.858 194.497 418.632 194.583 432.478C194.669 446.324 196.197 495.122 196.197 495.122L223.88 495.573C223.88 495.573 235.514 407.392 235.639 394.168C235.764 380.945 236.831 285.847 236.831 285.847L185.588 284.574Z" fill="#2E2445"/>
<path fill-rule="evenodd" clip-rule="evenodd" d="M151.727 488.631L146.332 521.393L166.22 521.293L166.849 488.117L151.727 488.631Z" fill="#F8AE9D"/>
<path fill-rule="evenodd" clip-rule="evenodd" d="M148.37 503.067C147.772 503.197 147.235 503.523 146.844 503.993C146.452 504.463 146.228 505.05 146.208 505.661L146.006 511.786C143.154 514.959 141.827 524.205 141.719 524.991C141.713 525.029 141.711 525.067 141.713 525.105C141.976 529.609 171.568 529.523 173.841 525.238C173.902 525.114 173.92 524.973 173.891 524.837C173.647 523.324 172.029 513.991 168.842 511.491L168.819 505.435C168.817 504.833 168.617 504.248 168.25 503.77C167.882 503.293 167.368 502.949 166.786 502.793L162.615 501.671C159.708 497.42 155.746 497.57 152.351 502.202L148.37 503.067ZM161.491 285.577C161.491 285.577 152.629 358.225 152.749 372.137C152.869 386.05 155.477 392.16 151.766 402.14C148.055 412.12 144.891 491.781 144.891 491.781L172.331 494.066C172.331 494.066 189.861 408.825 191.767 397.007C193.673 385.188 217.233 284.574 217.233 284.574L161.491 285.577Z" fill="#2E2445"/>
<path fill-rule="evenodd" clip-rule="evenodd" d="M298.321 154.955C298.321 154.955 296.03 142.188 296.854 139.602C297.557 137.368 304.208 134.145 304.208 134.145C304.208 134.145 315.775 115.873 318.307 117.733C320.366 119.242 312.283 132.713 312.283 132.713C312.283 132.713 319.654 140.446 319.551 143.903C319.448 147.36 307.52 158.182 307.52 158.182L298.321 154.955ZM179.436 157.955C179.436 157.955 187.054 156.167 187.319 143.684C187.583 131.201 187.397 126.941 187.397 126.941L205.458 126.638C205.458 126.638 205.64 140.549 205.644 145.581C205.651 156.536 213.786 159.496 213.786 159.496C213.786 159.496 213.11 171.474 197.905 172.329C186.033 172.998 179.436 157.955 179.436 157.955Z" fill="#F8AE9D"/>
<path fill-rule="evenodd" clip-rule="evenodd" d="M185.739 120.63C178.253 120.34 179.474 131.299 187.251 131.284C187.251 131.284 195.608 148.088 208.728 148.131C215.048 148.152 217.112 142.523 219.006 138.571C220.901 134.619 222.292 128.707 222.407 125.088C222.531 121.228 222.547 108.55 222.547 108.55L185.448 108.533L185.739 120.63Z" fill="#F8AE9D"/>
<path fill-rule="evenodd" clip-rule="evenodd" d="M214.071 158.752C214.071 158.752 233.532 164.827 238.218 172.083C253.321 185.352 272.21 203.572 272.21 203.572C272.21 203.572 290.201 158.417 296.083 153.269C300.107 149.746 308.126 154.102 309.619 158.578C311.539 164.328 299.216 198.051 293.396 213.978C292.269 217.064 291.385 219.481 290.897 220.898C287.348 231.194 278.714 237.099 268.206 230.555C263.971 227.918 251.367 219.275 240.614 211.439C240.445 219.671 240.162 228.345 239.893 236.583C239.239 256.598 238.67 274.04 240.038 276.307C246.821 287.54 237.803 295.251 207.946 298.085C178.089 300.918 151.601 298.598 156.407 283.607C157.409 280.482 157.397 273.759 156.897 265.024C153.972 264.868 151.048 264.675 148.128 264.446C135.667 263.464 126.452 258.11 125.167 244.204C124.266 234.467 142.818 188.753 149.774 173.721C151.401 170.204 153.918 168.014 156.769 166.922C157.432 166.182 158.18 165.662 159.019 165.385C164.129 163.701 182.45 156.004 182.45 156.004L204.244 170.264L214.071 158.752ZM154.878 239.221L154.829 239.348L154.89 239.356L154.878 239.221Z" fill="#4F27AA"/>
<path fill-rule="evenodd" clip-rule="evenodd" d="M203.236 251.288C203.236 251.288 209.883 249.951 212.604 247.815C215.324 245.68 223.563 244.17 223.563 244.17L220.928 249.721C220.928 249.721 241.12 247.825 241.598 249.817C242.077 251.809 236.236 253.975 236.236 253.975C236.236 253.975 233.356 259.355 230.568 262.473C227.93 265.424 214.823 265.073 210.228 263.231C206.258 261.64 201.941 262.436 201.941 262.436L203.236 251.288Z" fill="#F8AE9D"/>
<path d="M187.773 109.051C188.867 110.483 190.796 110.798 192.384 111.081C194.52 111.461 195.577 112.254 196.685 114.382C197.387 115.741 198.089 117.229 199.345 117.965C200.369 118.568 200.337 117.044 200.489 115.866C200.504 115.756 200.525 115.647 200.553 115.539C200.798 114.598 201.797 114.755 202.087 115.684C202.353 116.525 202.922 117.237 203.646 117.634C203.764 117.698 203.89 117.755 204.015 117.731C204.185 117.707 204.318 117.545 204.429 117.399C204.66 117.096 204.889 116.712 205.125 116.306C205.907 114.961 207.398 115.433 208.272 116.72C208.819 117.52 209.469 118.346 210.363 118.532C210.651 118.596 211.013 118.548 211.146 118.265C211.316 117.917 211.05 117.569 211.095 117.213C211.131 116.881 211.272 116.736 211.427 116.453C212.032 115.361 213.435 115.321 214.29 116.231C214.884 116.864 215.505 117.472 216.149 118.054C216.422 118.297 216.821 118.54 217.095 118.297C217.243 118.168 217.28 117.949 217.309 117.739C217.464 116.712 217.612 115.684 217.767 114.657C217.856 114.082 218.159 113.33 218.676 113.476C218.927 113.549 219.075 113.815 219.216 114.058C219.386 114.366 222.423 117.868 222.482 117.601C222.955 115.611 223.923 113.799 224.396 111.809C227.455 99.0042 213.88 88.7062 203.513 88.6492C201.207 88.6332 199.101 88.6712 196.862 89.2132C194.475 89.7952 191.956 90.7202 189.791 92.0232C186.754 93.8432 184.455 97.1512 185.047 101.099" fill="#2E2445"/>
<path d="M196.204 104.913C197.666 106.585 198.052 108.937 198.189 111.159C198.389 114.511 198.117 117.992 196.583 120.968C196.146 121.814 195.824 126.006 195.15 125.774C194.935 125.701 194.971 122.451 194.405 120.7C193.531 117.985 189.503 116.95 187.69 118.666C184.795 121.395 186.493 124.71 187.453 126.773C188.027 128.018 188.937 129.415 189.095 130.732C189.288 132.419 189.345 138.564 188.256 139.998C187.346 141.199 186.379 135.394 185.554 134.25C179.456 125.73 173.608 104.037 184.021 99.3315C185.605 98.6145 190.492 98.2455 191.975 99.1575" fill="#2E2445"/>
<path d="M799.294 403.128C807.159 400.471 813.976 394.812 817.956 387.552C819.08 385.55 819.999 383.25 819.697 380.974C819.619 380.51 819.502 379.962 819.084 379.745C818.709 379.529 818.202 379.647 817.78 379.767C804.643 383.312 790.754 389.285 776.966 388.654C776.335 388.645 775.705 388.593 775.154 388.837C774.477 389.121 774.046 389.746 773.742 390.414C772.699 392.586 771.795 396.695 772.137 399.14C772.555 402.049 775.368 402.47 777.84 403.097C784.88 404.886 792.275 405.504 799.294 403.128Z" fill="#F8AE9D"/>
<path d="M800.508 386.824C801.566 386.378 802.667 385.932 803.803 385.907C804.939 385.882 806.192 386.49 806.554 387.589C806.795 388.35 806.572 389.146 806.267 389.857C805.44 391.695 803.987 393.187 802.452 394.51C796.572 399.469 789.038 402.468 781.333 402.939C777.922 403.14 774.351 402.833 771.347 401.231C772.847 399.403 772.55 396.79 772.711 394.479C773.193 387.714 778.959 390.283 783.586 390.269C789.394 390.147 795.174 389.015 800.508 386.824Z" fill="#F8AE9D"/>
<path d="M624.5 336.782L624.236 337.535C622.388 342.892 620.958 348.423 620.367 354.093C619.283 364.509 621.328 376.698 629.164 384.263C639.611 394.349 656.373 395.908 669.997 393.507C675.574 392.532 680.825 390.199 685.286 386.714C689.726 390.736 694.497 395.141 698.468 399.618C706.444 396.829 714.035 393.043 721.061 388.351C737.688 395.965 754.647 401.103 772.553 404.824C774.6 399.733 776.036 394.418 776.832 388.988C776.972 388.107 765.812 380.575 764.525 379.504C760.662 376.248 752.614 368.806 752.614 368.806C752.614 368.806 762.757 360.168 767.194 356.113C771.888 351.898 776.39 347.475 780.688 342.856C784.238 339.04 787.706 335.012 789.882 330.25C792.057 325.529 792.857 319.946 791.039 315.039C785.297 299.765 762.121 305.134 751.355 310.398C742.455 314.764 734.66 321.124 727.158 327.572C724.133 330.134 721.148 332.781 718.205 335.387C715.886 332.996 713.325 329.886 711.134 327.371C708.777 324.643 706.082 322.078 702.825 320.472C699.402 318.737 696.243 318.984 692.591 318.465C690.954 318.23 689.363 317.743 687.768 317.467C682.986 316.595 677.924 317.527 673.722 319.988C669.732 322.325 666.493 325.094 661.81 325.991C656.494 327.004 650.319 326.405 644.987 325.693C640.202 325.031 635.338 323.948 630.57 324.885C628.587 325.276 627.83 328.04 627.175 329.629C626.299 331.929 625.379 334.313 624.5 336.782ZM666.743 160.611C666.743 160.611 653.872 158.564 650.415 181.287C646.575 206.548 636.319 202.392 620.032 222.904C610.514 234.89 620.531 256.057 640.886 255.637C661.242 255.228 679.625 249.343 691.334 251.86C703.043 254.378 703.686 224.388 692.133 215.136C680.58 205.883 705.212 179.312 690.203 167.479C675.193 155.647 666.743 160.611 666.743 160.611Z" fill="#2E2445"/>
<path d="M589.804 260.81C588.63 258.398 588.701 255.595 589.125 252.98C590.96 241.756 598.826 232.376 607.842 225.503C616.888 218.612 627.242 213.692 636.759 207.517C639.229 205.909 641.705 204.177 644.541 203.307C647.377 202.438 650.673 202.532 653.014 204.36C654.668 205.644 655.623 207.628 656.179 209.612C657.398 213.957 656.931 218.558 656.187 222.966C655.258 228.525 653.894 234.027 651.654 239.136C649.858 243.258 646.935 247.499 642.542 248.307C641.271 253.232 638.654 257.849 634.983 261.381C630.784 265.431 625.461 268.079 619.936 269.928C614.846 271.636 609.279 272.751 604.159 271.157C601.12 270.229 598.443 268.442 595.825 266.62C593.49 265.068 591.066 263.369 589.804 260.81ZM635.807 253.325L638.812 248.555C638.172 248.621 637.567 248.745 636.956 248.993C635.307 249.707 634.313 252.306 635.807 253.325Z" fill="#2E2445"/>
<path d="M691.489 180.595C691.644 181.439 691.673 182.322 691.616 183.331C691.275 189.223 690.009 195.025 687.863 200.522C686.551 203.783 684.946 206.998 682.675 209.698C681.733 210.819 680.666 211.855 679.271 212.254C677.835 212.653 676.025 212.71 674.6 212.352C673.343 217.549 673.868 227.358 678.355 231.044C679.726 232.159 681.356 232.857 682.987 233.471C686.166 234.697 689.475 235.63 692.787 236.354C696.561 237.168 700.674 237.778 703.325 240.552C703.656 240.894 703.985 241.362 703.852 241.822C703.764 242.115 703.55 242.323 703.295 242.487C701.208 244.18 698.628 245.108 696.048 245.995C691.524 247.525 686.877 248.8 682.153 249.654C677.217 250.546 672.121 250.974 667.123 250.435C663.259 249.998 659.446 249.014 655.939 247.278C652.264 245.456 648.501 243.968 644.699 242.228C641.483 240.749 638.311 239.06 634.829 238.46C636.475 235.33 639.909 233.573 643.329 232.742C646.748 231.953 650.325 231.881 653.785 231.218C654.924 230.983 656.064 230.706 657.042 230.006C659.722 228.069 658.988 223.767 659.031 220.949L659.166 212.033C658.768 207.778 657.013 204.218 655.474 200.324C653.125 194.357 652.639 187.577 654.709 181.466C656.778 175.398 661.486 170.127 667.534 167.989C673.582 165.852 680.841 167.056 685.485 171.501C688.429 174.364 690.83 176.925 691.489 180.595Z" fill="#F8AE9D"/>
<path d="M672.89 161.636C678.918 160.963 684.41 163.915 688.483 168.49C691.909 172.326 693.923 177.39 693.822 182.477C693.807 183.203 693.725 183.995 693.315 184.648C692.227 186.212 689.859 185.636 688.088 184.94C685.202 183.825 683.054 182.196 680.438 180.821C677.821 179.447 674.645 179.648 672.303 177.751C670.093 175.922 662.503 172.069 662.298 169.091C662.04 165.451 668.709 162.477 671.497 161.872C671.896 161.748 672.36 161.691 672.89 161.636Z" fill="#2E2445"/>
<path d="M655.523 169.877C650.426 173.164 648.034 178.923 647.769 185.043C647.537 190.181 649.175 195.378 652.468 199.257C652.939 199.811 653.502 200.372 654.232 200.62C656.065 201.144 657.536 199.202 658.468 197.543C660 194.855 660.636 192.235 661.796 189.517C662.955 186.799 665.544 184.947 666.16 181.997C666.718 179.183 670.167 171.401 668.444 168.963C666.343 165.978 659.296 167.888 656.752 169.18C656.365 169.336 655.969 169.585 655.523 169.877Z" fill="#2E2445"/>
<path d="M700.862 239.253C701.667 238.887 702.631 239.154 703.166 239.877C709.18 248.298 711.502 258.85 713.535 269.019C715.841 280.58 717.895 292.18 719.864 303.778C719.981 304.369 720.056 305.001 719.795 305.544C719.534 306.087 718.941 306.373 718.391 306.617C714.916 308.289 711.399 309.918 707.924 311.59C704.175 303.059 701.472 294.105 699.874 284.923C697.643 290.568 693.614 295.471 688.475 298.674C692.304 304.159 697.017 315.126 701.614 319.95C702.317 320.717 706.668 319.522 707.641 319.2C708.245 320.934 705.413 319.082 705.428 320.849C702.814 321.23 699.472 319.665 696.785 319.329C693.544 318.951 690.272 318.93 687.027 319.265C681.633 319.856 676.391 321.544 671.599 324.079C669.216 325.347 666.931 326.789 664.76 328.392C662.888 329.794 658.253 333.089 658.253 333.089C657.913 333.336 656.319 332.975 655.942 332.886C654.842 332.699 653.736 332.556 652.625 332.457C649.837 332.24 647.062 331.875 644.313 331.363C638.817 330.354 633.414 328.799 628.23 326.659C627.731 326.273 629.512 322.598 629.607 321.885C629.513 322.556 619.303 321.728 618.296 321.545C614.27 320.726 610.196 320.286 606.171 319.425C607.973 303.215 612.923 287.557 617.786 272.023C619.688 265.911 621.632 259.798 624.327 254.034C627.197 247.894 630.902 242.145 635.355 237.038C635.483 236.914 635.695 236.833 635.862 236.877C637.999 237.415 651.031 240.768 657.515 243.18C660.819 244.45 664.167 245.595 667.557 246.74C668.897 247.181 670.278 247.623 671.667 247.602C672.593 247.574 673.521 247.377 674.408 247.18C683.441 245.172 692.476 242.996 700.862 239.253Z" fill="#4F27AA"/>
<path d="M642.068 271.551C641.697 273.859 641.198 276.207 640.7 278.513C639.489 283.746 637.935 288.894 636.049 293.924C635.086 296.433 634.081 298.9 632.949 301.364C632.387 302.583 631.808 303.795 631.212 304.998C630.908 305.582 630.604 306.209 630.301 306.793C630.041 307.294 629.739 307.752 629.48 308.211C631.29 308.154 640.222 308.669 642.07 308.824" stroke="white" stroke-width="1.376" stroke-miterlimit="10" stroke-linecap="round"/>
<path d="M642.359 310.635C642.172 311.817 641.944 312.992 641.675 314.158L640.864 317.68C640.596 318.685 639.988 319.938 639.972 320.989C639.975 320.779 647.136 320.173 647.81 320.099C655.267 319.371 662.762 318.938 670.215 318.462C675.057 318.157 679.809 318.271 684.646 318.303C686.076 318.324 687.761 318.182 688.536 317.015C689.182 316.016 688.655 314.746 689.174 313.828C689.509 313.917 693.406 314.902 693.365 314.817C693.52 315.703 693.828 317.559 694.747 317.993C695.082 318.124 695.418 318.172 695.754 318.177C696.259 318.184 696.765 318.108 697.271 318.032C697.349 318.031 697.424 318.003 697.482 317.951C697.568 317.868 697.486 317.74 697.403 317.613C696.256 315.918 695.656 313.912 695.682 311.866C694.474 311.048 693.269 310.104 692.232 309.079C691.404 308.225 690.79 307.122 689.875 306.393C688.92 305.579 687.987 306.07 686.931 306.348C685.709 306.622 684.498 306.94 683.299 307.302C680.974 308.024 678.647 308.914 676.69 310.357C676.01 310.852 675.37 311.389 674.568 311.629C673.807 311.87 672.966 311.857 672.166 311.845C667.246 311.728 662.328 311.485 657.456 310.948C652.459 310.41 649.05 310.484 642.502 309.501C642.502 309.543 642.496 309.922 642.359 310.635Z" fill="#F8AE9D"/>
<path d="M696.542 271.084C697.718 276.169 698.567 281.303 699.141 286.542" stroke="white" stroke-width="1.376" stroke-miterlimit="10" stroke-linecap="round"/>
<path d="M795.746 262.697L781.306 327.093L671.662 325.427C671.719 321.642 674.836 318.576 678.664 318.634L704.866 319.032L717.923 259.79C718.125 258.858 718.642 258.025 719.386 257.431C720.131 256.837 721.058 256.518 722.011 256.528L791.743 257.588C794.392 257.67 796.332 260.097 795.746 262.697Z" fill="#2E2445"/>
<path d="M652.514 420.039C653.021 417.102 654.455 414.095 655.799 411.465C661.348 400.696 671.265 393.106 681.945 387.884C683.047 387.354 684.148 386.824 685.29 386.42C685.194 386.553 685.108 386.692 685.032 386.837L685.031 386.879H684.989C685.116 386.796 685.202 386.714 685.329 386.631C689.645 390.525 694.25 394.802 698.181 399.11C695.583 401.216 691.813 402.926 689.94 404.328C685.516 407.584 681.256 411.053 676.667 414.096C670.504 418.251 663.938 421.264 656.598 422.583C653.772 423.087 652.292 423.612 652.325 421.425C652.372 421.089 652.421 420.627 652.514 420.039Z" fill="#F8AE9D"/>
<path d="M659.67 411.565C662.528 406.182 666.966 402.085 671.817 398.456C675.221 395.9 678.831 393.599 682.274 391.253C683.252 390.595 685.172 388.815 686.826 387.957C690.27 391.08 693.796 394.373 696.983 397.787C686.453 404.189 677.071 412.545 665.518 417.081C664.46 417.485 663.36 417.889 662.224 417.914C661.088 417.939 659.875 417.458 659.216 416.522C658.187 415.076 658.848 413.109 659.67 411.565Z" fill="#F8AE9D"/>
<path d="M568.215 289.953C562.53 293.867 553.848 291.128 553.848 291.128C553.848 291.128 554.387 282.046 560.076 278.136C565.76 274.222 574.439 276.957 574.439 276.957C574.439 276.957 573.899 286.04 568.215 289.953Z" fill="url(#paint0_linear_1235_21267)"/>
<path d="M804.594 447.759C811.039 443.346 811.676 433.061 811.676 433.061C811.676 433.061 801.863 429.939 795.421 434.358C788.976 438.772 788.337 449.051 788.337 449.051C788.337 449.051 798.15 452.173 804.594 447.759Z" fill="url(#paint1_linear_1235_21267)"/>
<path d="M83.4419 319.492C93.7649 329.999 113.068 327.783 113.068 327.783C113.068 327.783 115.622 308.534 105.29 298.034C94.9679 287.528 75.6739 289.737 75.6739 289.737C75.6739 289.737 73.1199 308.986 83.4419 319.492Z" fill="url(#paint2_linear_1235_21267)"/>
<path d="M190.359 249.049C181.404 249.049 174.144 241.789 174.144 232.834C174.144 223.879 181.404 216.619 190.359 216.619C199.315 216.619 206.574 223.879 206.574 232.834C206.574 241.789 199.315 249.049 190.359 249.049Z" fill="#4F27AA"/>
<path d="M127.318 479.128C122.477 479.128 118.553 475.203 118.553 470.363C118.553 465.522 122.477 461.598 127.318 461.598C132.159 461.598 136.083 465.522 136.083 470.363C136.083 475.203 132.159 479.128 127.318 479.128Z" fill="white"/>
<path d="M315.339 271.623C311.457 271.623 308.309 268.475 308.309 264.593C308.309 260.71 311.457 257.562 315.339 257.562C319.222 257.562 322.369 260.71 322.369 264.593C322.369 268.475 319.222 271.623 315.339 271.623Z" fill="#E1E4E5"/>
<path d="M683.312 80C680.827 80 678.812 77.9853 678.812 75.5C678.812 73.0147 680.827 71 683.312 71C685.797 71 687.812 73.0147 687.812 75.5C687.812 77.9853 685.797 80 683.312 80Z" fill="#E1E4E5"/>
<path d="M116.381 436.549C117.384 440.293 115.162 444.142 111.418 445.145C107.673 446.149 103.824 443.927 102.821 440.182C101.818 436.438 104.04 432.589 107.784 431.586C111.529 430.582 115.377 432.804 116.381 436.549Z" fill="white"/>
<path d="M432.816 150.098C427.659 150.098 423.479 145.918 423.479 140.761C423.479 135.604 427.659 131.424 432.816 131.424C437.973 131.424 442.153 135.604 442.153 140.761C442.153 145.918 437.973 150.098 432.816 150.098Z" fill="#E1E4E5"/>
<path d="M334.14 481.846C330.173 481.846 326.957 479.273 326.957 476.1C326.957 472.926 330.173 470.354 334.14 470.354C338.107 470.354 341.323 472.926 341.323 476.1C341.323 479.273 338.107 481.846 334.14 481.846Z" fill="white"/>
<path d="M815.003 511.809C809.2 514.64 802.684 513.221 800.45 508.64C798.215 504.06 801.107 498.051 806.91 495.22C812.713 492.389 819.229 493.807 821.464 498.388C823.699 502.969 820.806 508.978 815.003 511.809Z" fill="white"/>
<path d="M620.813 154.5C620.813 158.642 617.455 162 613.313 162C609.171 162 605.813 158.642 605.813 154.5C605.813 150.358 609.171 147 613.313 147C617.455 147 620.813 150.358 620.813 154.5Z" fill="#E1E4E5"/>
<path d="M812.534 225.753H812.722C813.835 241.518 825.559 241.76 825.559 241.76C825.559 241.76 812.631 242.013 812.631 260.229C812.631 242.013 799.702 241.76 799.702 241.76C799.702 241.76 811.422 241.518 812.534 225.753ZM549.288 119.357H549.476C550.589 135.122 562.313 135.365 562.313 135.365C562.313 135.365 549.385 135.618 549.385 153.834C549.385 135.618 536.456 135.365 536.456 135.365C536.456 135.365 548.176 135.122 549.288 119.357ZM349.373 93.0332H349.508C350.311 104.569 358.766 104.746 358.766 104.746C358.766 104.746 349.442 104.931 349.442 118.26C349.442 104.931 340.119 104.746 340.119 104.746C340.119 104.746 348.57 104.569 349.373 93.0332ZM109.254 183.999H109.389C110.192 195.535 118.646 195.713 118.646 195.713C118.646 195.713 109.323 195.897 109.323 209.227C109.323 195.897 100 195.713 100 195.713C100 195.713 108.451 195.535 109.254 183.999Z" fill="#E1E4E5"/>
</g>
</g>
<defs>
<linearGradient id="paint0_linear_1235_21267" x1="546.072" y1="302.794" x2="590.823" y2="255.626" gradientUnits="userSpaceOnUse">
<stop stop-color="white"/>
<stop offset="1" stop-color="#EEEEEE"/>
</linearGradient>
<linearGradient id="paint1_linear_1235_21267" x1="827.158" y1="429.59" x2="759.146" y2="457.685" gradientUnits="userSpaceOnUse">
<stop stop-color="white"/>
<stop offset="1" stop-color="#EEEEEE"/>
</linearGradient>
<linearGradient id="paint2_linear_1235_21267" x1="124.628" y1="355.379" x2="50.0009" y2="238.396" gradientUnits="userSpaceOnUse">
<stop stop-color="white"/>
<stop offset="1" stop-color="#EEEEEE"/>
</linearGradient>
<clipPath id="clip0_1235_21267">
<rect width="900" height="600" fill="white"/>
</clipPath>
</defs>
</svg>
