<svg width="900" height="600" viewBox="0 0 900 600" fill="none" xmlns="http://www.w3.org/2000/svg">
<g clip-path="url(#clip0_1235_21335)">
<path d="M320.91 204.461C332.636 204.461 342.141 194.956 342.141 183.23C342.141 171.505 332.636 162 320.91 162H251.231C239.506 162 230 171.505 230 183.23C230 194.956 239.506 204.461 251.231 204.461H320.91Z" fill="#E1E4E5"/>
<path d="M320.39 200.081C329.71 200.081 337.265 192.526 337.265 183.206C337.265 173.885 329.71 166.33 320.39 166.33C311.07 166.33 303.514 173.885 303.514 183.206C303.514 192.526 311.07 200.081 320.39 200.081Z" fill="white"/>
<path d="M495.138 443.461C506.864 443.461 516.369 433.956 516.369 422.23C516.369 410.505 506.864 401 495.138 401H425.459C413.734 401 404.228 410.505 404.228 422.23C404.228 433.956 413.734 443.461 425.459 443.461H495.138Z" fill="#E1E4E5"/>
<path d="M494.618 439.081C503.938 439.081 511.493 431.526 511.493 422.206C511.493 412.886 503.938 405.33 494.618 405.33C485.298 405.33 477.742 412.886 477.742 422.206C477.742 431.526 485.298 439.081 494.618 439.081Z" fill="white"/>
<path d="M303.175 372.001C303.175 327.45 267.059 291.334 222.507 291.334C177.956 291.334 141.84 327.45 141.84 372.001C141.84 416.553 177.956 452.669 222.507 452.669C267.059 452.669 303.175 416.553 303.175 372.001Z" fill="#4F27AA"/>
<path fill-rule="evenodd" clip-rule="evenodd" d="M259.171 405.842V411.236C259.171 414.213 256.786 416.63 253.848 416.63H189.972C187.033 416.63 184.649 414.213 184.649 411.236V405.755C184.649 389.433 203.056 378.829 221.91 378.829C240.764 378.829 259.171 389.439 259.171 405.755M235.27 331.442C242.651 338.823 242.651 350.79 235.27 358.171C227.889 365.553 215.921 365.553 208.54 358.171C201.159 350.79 201.159 338.823 208.54 331.442C215.921 324.061 227.889 324.061 235.27 331.442Z" fill="white"/>
<path d="M746.295 398.132C746.295 353.581 710.179 317.465 665.627 317.465C621.076 317.465 584.96 353.581 584.96 398.132C584.96 442.684 621.076 478.8 665.627 478.8C710.179 478.8 746.295 442.684 746.295 398.132Z" fill="#4F27AA"/>
<path fill-rule="evenodd" clip-rule="evenodd" d="M702.292 431.973V437.367C702.292 440.344 699.907 442.761 696.969 442.761H633.092C630.154 442.761 627.769 440.344 627.769 437.367V431.886C627.769 415.564 646.176 404.959 665.03 404.959C683.885 404.959 702.292 415.569 702.292 431.886M678.39 357.573C685.771 364.954 685.771 376.921 678.39 384.302C671.009 391.684 659.042 391.684 651.661 384.302C644.279 376.921 644.279 364.954 651.661 357.573C659.042 350.192 671.009 350.192 678.39 357.573Z" fill="white"/>
<path d="M531.335 261.668C531.335 217.116 495.219 181 450.668 181C406.116 181 370 217.116 370 261.668C370 306.219 406.116 342.335 450.668 342.335C495.219 342.335 531.335 306.219 531.335 261.668Z" fill="#4F27AA"/>
<path fill-rule="evenodd" clip-rule="evenodd" d="M487.331 295.508V300.902C487.331 303.88 484.946 306.296 482.008 306.296H418.132C415.194 306.296 412.809 303.88 412.809 300.902V295.422C412.809 279.1 431.216 268.495 450.07 268.495C468.924 268.495 487.331 279.105 487.331 295.422M463.43 221.109C470.811 228.49 470.811 240.457 463.43 247.838C456.048 255.219 444.081 255.219 436.7 247.838C429.319 240.457 429.319 228.49 436.7 221.109C444.081 213.727 456.048 213.727 463.43 221.109Z" fill="white"/>
<path d="M259.701 232.543H259.848C260.722 245.103 269.927 245.296 269.927 245.296C269.927 245.296 259.777 245.497 259.777 260.01C259.777 245.497 249.626 245.296 249.626 245.296C249.626 245.296 258.827 245.103 259.701 232.543ZM563.462 321.82H563.609C564.483 334.38 573.688 334.573 573.688 334.573C573.688 334.573 563.537 334.775 563.537 349.287C563.537 334.775 553.387 334.573 553.387 334.573C553.387 334.573 562.588 334.38 563.462 321.82ZM344.623 351.217H344.771C345.644 363.776 354.85 363.97 354.85 363.97C354.85 363.97 344.699 364.171 344.699 378.683C344.699 364.171 334.548 363.97 334.548 363.97C334.548 363.97 343.75 363.776 344.623 351.217ZM372.075 138.426H372.223C373.096 150.985 382.302 151.179 382.302 151.179C382.302 151.179 372.151 151.38 372.151 165.892C372.151 151.38 362 151.179 362 151.179C362 151.179 371.202 150.985 372.075 138.426ZM594.993 192.415H595.064C595.486 198.477 599.929 198.57 599.929 198.57C599.929 198.57 595.029 198.667 595.029 205.672C595.029 198.667 590.13 198.57 590.13 198.57C590.13 198.57 594.571 198.477 594.993 192.415ZM126.016 308.755H126.088C126.509 314.818 130.952 314.911 130.952 314.911C130.952 314.911 126.053 315.008 126.053 322.013C126.053 315.008 121.154 314.911 121.154 314.911C121.154 314.911 125.595 314.818 126.016 308.755ZM116.218 430.695H116.289C116.711 436.757 121.154 436.851 121.154 436.851C121.154 436.851 116.254 436.948 116.254 443.952C116.254 436.948 111.355 436.851 111.355 436.851C111.355 436.851 115.796 436.757 116.218 430.695ZM773.822 358.838H773.893C774.315 364.9 778.758 364.993 778.758 364.993C778.758 364.993 773.858 365.09 773.858 372.095C773.858 365.09 768.959 364.993 768.959 364.993C768.959 364.993 773.4 364.9 773.822 358.838Z" fill="#E1E4E5"/>
<path fill-rule="evenodd" clip-rule="evenodd" d="M735.689 297.235H739.286C740.156 297.235 740.856 297.943 740.856 298.805V302.403C740.856 303.272 740.149 303.973 739.286 303.973H735.689C734.826 303.973 734.119 303.265 734.119 302.403V298.805C734.111 297.943 734.819 297.235 735.689 297.235ZM748.161 297.235H751.758C752.621 297.235 753.329 297.943 753.329 298.805V302.403C753.329 303.272 752.621 303.973 751.758 303.973H748.161C747.299 303.973 746.591 303.265 746.591 302.403V298.805C746.591 297.943 747.299 297.235 748.161 297.235ZM760.642 297.235H764.239C765.101 297.235 765.809 297.943 765.809 298.805V302.403C765.809 303.272 765.101 303.973 764.239 303.973H760.642C760.226 303.971 759.827 303.806 759.533 303.511C759.239 303.217 759.073 302.819 759.071 302.403V298.805C759.071 298.599 759.111 298.394 759.19 298.204C759.269 298.013 759.385 297.84 759.531 297.694C759.676 297.548 759.85 297.432 760.041 297.354C760.231 297.275 760.436 297.235 760.642 297.235ZM773.114 297.235H776.711C777.574 297.235 778.281 297.943 778.281 298.805V302.403C778.281 303.272 777.574 303.973 776.711 303.973H773.114C772.244 303.973 771.536 303.265 771.536 302.403V298.805C771.541 298.389 771.709 297.991 772.004 297.697C772.299 297.404 772.698 297.238 773.114 297.235ZM785.587 297.235H789.184C790.054 297.235 790.762 297.943 790.762 298.805V302.403C790.762 303.272 790.054 303.973 789.184 303.973H785.587C784.724 303.973 784.017 303.265 784.017 302.403V298.805C784.017 297.943 784.724 297.235 785.587 297.235ZM748.618 310.836H752.216C753.078 310.836 753.786 311.543 753.786 312.406V316.01C753.786 316.873 753.078 317.581 752.216 317.581H748.618C747.749 317.581 747.048 316.873 747.048 316.01V312.413C747.047 312.206 747.087 312.001 747.165 311.81C747.243 311.618 747.359 311.444 747.505 311.298C747.651 311.151 747.824 311.035 748.015 310.956C748.206 310.876 748.411 310.836 748.618 310.836ZM761.091 310.836H764.688C765.551 310.836 766.258 311.543 766.258 312.406V316.01C766.258 316.873 765.551 317.581 764.688 317.581H761.091C760.228 317.581 759.521 316.873 759.521 316.01V312.413C759.513 311.543 760.221 310.836 761.091 310.836ZM773.564 310.836H777.161C778.031 310.836 778.739 311.543 778.739 312.406V316.01C778.739 316.873 778.031 317.581 777.161 317.581H773.564C772.701 317.581 771.994 316.873 771.994 316.01V312.413C771.994 311.543 772.701 310.836 773.564 310.836ZM760.642 282.624H764.239C765.101 282.624 765.809 283.332 765.809 284.195V287.792C765.809 288.662 765.101 289.362 764.239 289.362H760.642C760.226 289.36 759.827 289.195 759.533 288.9C759.239 288.606 759.073 288.208 759.071 287.792V284.195C759.071 283.989 759.111 283.784 759.19 283.593C759.268 283.403 759.384 283.229 759.53 283.083C759.676 282.937 759.849 282.822 760.04 282.743C760.231 282.664 760.436 282.624 760.642 282.624ZM773.114 282.624H776.711C777.574 282.624 778.281 283.332 778.281 284.195V287.792C778.281 288.662 777.574 289.362 776.711 289.362H773.114C772.244 289.362 771.536 288.654 771.536 287.792V284.195C771.54 283.779 771.708 283.38 772.003 283.087C772.299 282.793 772.697 282.627 773.114 282.624ZM318.698 439.861H322.296C323.166 439.861 323.866 440.569 323.866 441.431V445.029C323.866 445.898 323.158 446.599 322.296 446.599H318.698C317.836 446.599 317.128 445.891 317.128 445.029V441.431C317.128 441.225 317.168 441.02 317.247 440.83C317.326 440.639 317.441 440.466 317.587 440.32C317.733 440.174 317.906 440.059 318.097 439.98C318.287 439.901 318.492 439.861 318.698 439.861ZM331.171 439.861H334.768C335.63 439.861 336.338 440.569 336.338 441.431V445.029C336.338 445.898 335.63 446.599 334.768 446.599H331.171C330.308 446.599 329.601 445.891 329.601 445.029V441.431C329.601 440.569 330.308 439.861 331.171 439.861ZM343.651 439.861H347.248C348.111 439.861 348.819 440.569 348.819 441.431V445.029C348.819 445.898 348.111 446.599 347.248 446.599H343.651C342.789 446.599 342.081 445.891 342.081 445.029V441.431C342.074 440.569 342.781 439.861 343.651 439.861ZM356.123 439.861H359.721C360.583 439.861 361.291 440.569 361.291 441.431V445.029C361.291 445.898 360.583 446.599 359.721 446.599H356.123C355.253 446.599 354.546 445.891 354.546 445.029V441.431C354.55 441.015 354.718 440.617 355.013 440.323C355.308 440.03 355.707 439.864 356.123 439.861ZM368.596 439.861H372.194C373.064 439.861 373.771 440.569 373.771 441.431V445.029C373.771 445.898 373.064 446.599 372.194 446.599H368.596C367.734 446.599 367.026 445.891 367.026 445.029V441.431C367.026 440.569 367.734 439.861 368.596 439.861ZM331.628 453.462H335.225C336.088 453.462 336.795 454.169 336.795 455.032V458.636C336.795 459.499 336.088 460.207 335.225 460.207H331.628C330.758 460.207 330.058 459.499 330.058 458.636V455.039C330.05 454.169 330.758 453.462 331.628 453.462ZM344.1 453.462H347.697C348.56 453.462 349.268 454.169 349.268 455.032V458.636C349.268 459.499 348.56 460.207 347.697 460.207H344.1C343.238 460.207 342.53 459.499 342.53 458.636V455.039C342.523 454.169 343.23 453.462 344.1 453.462ZM356.573 453.462H360.171C361.04 453.462 361.748 454.169 361.748 455.032V458.636C361.748 459.499 361.04 460.207 360.171 460.207H356.573C355.711 460.207 355.003 459.499 355.003 458.636V455.039C355.003 454.169 355.711 453.462 356.573 453.462ZM343.651 425.25H347.248C348.111 425.25 348.819 425.958 348.819 426.821V430.418C348.819 431.288 348.111 431.988 347.248 431.988H343.651C342.789 431.988 342.081 431.28 342.081 430.418V426.821C342.08 426.615 342.121 426.41 342.199 426.219C342.278 426.029 342.394 425.855 342.54 425.709C342.685 425.563 342.859 425.448 343.049 425.369C343.24 425.29 343.445 425.25 343.651 425.25ZM356.123 425.25H359.721C360.583 425.25 361.291 425.958 361.291 426.821V430.418C361.291 431.288 360.583 431.988 359.721 431.988H356.123C355.253 431.988 354.546 431.28 354.546 430.418V426.821C354.55 426.405 354.718 426.007 355.013 425.713C355.308 425.419 355.707 425.253 356.123 425.25ZM541.618 140.611H545.215C546.085 140.611 546.785 141.318 546.785 142.181V145.778C546.785 146.648 546.077 147.348 545.215 147.348H541.618C540.755 147.348 540.048 146.641 540.048 145.778V142.181C540.04 141.318 540.748 140.611 541.618 140.611ZM554.09 140.611H557.687C558.549 140.611 559.257 141.318 559.257 142.181V145.778C559.257 146.648 558.549 147.348 557.687 147.348H554.09C553.674 147.347 553.275 147.181 552.981 146.887C552.687 146.593 552.521 146.194 552.519 145.778V142.181C552.519 141.318 553.227 140.611 554.09 140.611ZM566.57 140.611H570.167C571.03 140.611 571.738 141.318 571.738 142.181V145.778C571.738 146.648 571.03 147.348 570.167 147.348H566.57C565.708 147.348 565 146.641 565 145.778V142.181C564.993 141.318 565.7 140.611 566.57 140.611ZM579.042 140.611H582.64C583.502 140.611 584.21 141.318 584.21 142.181V145.778C584.21 146.648 583.502 147.348 582.64 147.348H579.042C578.172 147.348 577.465 146.641 577.465 145.778V142.181C577.469 141.765 577.637 141.367 577.932 141.073C578.227 140.78 578.626 140.614 579.042 140.611ZM591.515 140.611H595.113C595.983 140.611 596.69 141.318 596.69 142.181V145.778C596.69 146.648 595.983 147.348 595.113 147.348H591.515C590.653 147.348 589.945 146.641 589.945 145.778V142.181C589.945 141.318 590.653 140.611 591.515 140.611ZM554.547 154.211H558.144C559.007 154.211 559.715 154.919 559.715 155.781V159.386C559.715 160.248 559.007 160.956 558.144 160.956H554.547C553.677 160.956 552.977 160.248 552.977 159.386V155.789C552.97 154.919 553.677 154.211 554.547 154.211ZM567.019 154.211H570.617C571.479 154.211 572.187 154.919 572.187 155.781V159.386C572.187 160.248 571.479 160.956 570.617 160.956H567.019C566.157 160.956 565.449 160.248 565.449 159.386V155.789C565.442 154.919 566.149 154.211 567.019 154.211ZM579.492 154.211H583.09C583.96 154.211 584.667 154.919 584.667 155.781V159.386C584.667 160.248 583.96 160.956 583.09 160.956H579.492C578.63 160.956 577.922 160.248 577.922 159.386V155.789C577.922 154.919 578.63 154.211 579.492 154.211ZM566.57 126H570.167C571.03 126 571.738 126.708 571.738 127.57V131.167C571.738 132.037 571.03 132.738 570.167 132.738H566.57C565.708 132.738 565 132.03 565 131.167V127.57C564.993 126.708 565.7 126 566.57 126ZM579.042 126H582.64C583.502 126 584.21 126.708 584.21 127.57V131.167C584.21 132.037 583.502 132.738 582.64 132.738H579.042C578.172 132.738 577.465 132.03 577.465 131.167V127.57C577.469 127.154 577.637 126.756 577.932 126.462C578.227 126.169 578.626 126.003 579.042 126Z" fill="#E1E4E5"/>
<path d="M107 247.087C121.587 230.048 147.212 202.244 133.019 227.338C115.279 258.705 147.803 237.793 159.039 227.338C170.274 216.882 196.885 209.331 177.962 236.632C159.039 263.932 213.443 247.668 223.496 227.338" stroke="#E1E4E5" stroke-width="4.355"/>
<path fill-rule="evenodd" clip-rule="evenodd" d="M625.244 189.226C625.244 156.626 651.672 130.199 684.272 130.199H734.973C767.573 130.199 794 156.626 794 189.226C794 221.826 767.573 248.254 734.973 248.254H718.011L691.423 269.62C689.455 271.202 686.531 269.801 686.531 267.275V248.254H684.272C651.672 248.254 625.244 221.826 625.244 189.226Z" fill="#4F27AA"/>
<path d="M710.151 167.809H746.738C748.681 167.809 750.256 169.384 750.256 171.327C750.256 173.27 748.681 174.845 746.738 174.845H710.151C708.208 174.845 706.633 173.27 706.633 171.327C706.633 169.384 708.208 167.809 710.151 167.809Z" fill="white"/>
<path d="M686.932 186.102H746.738C748.681 186.102 750.256 187.677 750.256 189.62C750.256 191.562 748.681 193.138 746.738 193.138H686.932C684.989 193.138 683.414 191.562 683.414 189.62C683.414 187.677 684.989 186.102 686.932 186.102Z" fill="white"/>
<path d="M662.306 204.396H746.738C748.681 204.396 750.256 205.972 750.256 207.914C750.256 209.857 748.681 211.432 746.738 211.432H662.306C660.363 211.432 658.788 209.857 658.788 207.914C658.788 205.972 660.363 204.396 662.306 204.396Z" fill="white"/>
<path d="M654.343 109.686C648.631 109.686 644 105.055 644 99.343C644 93.6307 648.631 89 654.343 89C660.055 89 664.686 93.6307 664.686 99.343C664.686 105.055 660.055 109.686 654.343 109.686Z" fill="#E1E4E5"/>
<path d="M491 148C488.791 148 487 146.209 487 144C487 141.791 488.791 140 491 140C493.209 140 495 141.791 495 144C495 146.209 493.209 148 491 148Z" fill="#E1E4E5"/>
<path d="M155.449 301.133C149.737 301.133 145.106 296.503 145.106 290.79C145.106 285.078 149.737 280.447 155.449 280.447C161.161 280.447 165.792 285.078 165.792 290.79C165.792 296.503 161.161 301.133 155.449 301.133Z" fill="#E1E4E5"/>
<path d="M552.842 443.758C547.13 443.758 542.499 439.128 542.499 433.415C542.499 427.703 547.13 423.072 552.842 423.072C558.554 423.072 563.185 427.703 563.185 433.415C563.185 439.128 558.554 443.758 552.842 443.758Z" fill="#E1E4E5"/>
<path d="M623.067 292.423C620.06 292.423 617.623 289.986 617.623 286.979C617.623 283.973 620.06 281.535 623.067 281.535C626.073 281.535 628.511 283.973 628.511 286.979C628.511 289.986 626.073 292.423 623.067 292.423Z" fill="#E1E4E5"/>
<path d="M197.366 490.575C194.359 490.575 191.922 488.138 191.922 485.131C191.922 482.125 194.359 479.688 197.366 479.688C200.373 479.688 202.81 482.125 202.81 485.131C202.81 488.138 200.373 490.575 197.366 490.575Z" fill="#E1E4E5"/>
</g>
<defs>
<clipPath id="clip0_1235_21335">
<rect width="900" height="600" fill="white"/>
</clipPath>
</defs>
</svg>
