<svg width="900" height="600" viewBox="0 0 900 600" fill="none" xmlns="http://www.w3.org/2000/svg">
<g clip-path="url(#clip0_1235_18016)">
<path d="M653 102H371C354.984 102 342 114.984 342 131V193C342 209.016 354.984 222 371 222H653C669.016 222 682 209.016 682 193V131C682 114.984 669.016 102 653 102Z" fill="white" stroke="#E1E4E5" stroke-width="2"/>
<path d="M422 113H384C367.431 113 354 126.431 354 143V181C354 197.569 367.431 211 384 211H422C438.569 211 452 197.569 452 181V143C452 126.431 438.569 113 422 113Z" fill="#4F27AA"/>
<path fill-rule="evenodd" clip-rule="evenodd" d="M425.267 182.555V185.831C425.267 187.64 423.818 189.108 422.033 189.108H383.233C381.448 189.108 380 187.64 380 185.831V182.502C380 172.588 391.181 166.146 402.633 166.146C414.086 166.146 425.267 172.591 425.267 182.502M410.751 137.363C415.235 141.846 415.235 149.115 410.751 153.599C406.268 158.083 398.999 158.083 394.515 153.599C390.031 149.115 390.031 141.846 394.515 137.363C398.999 132.879 406.268 132.879 410.751 137.363Z" fill="white"/>
<path d="M639.5 129H468.5C465.462 129 463 131.462 463 134.5C463 137.538 465.462 140 468.5 140H639.5C642.538 140 645 137.538 645 134.5C645 131.462 642.538 129 639.5 129Z" fill="#E1E4E5"/>
<path d="M639.5 156H468.5C465.462 156 463 158.462 463 161.5C463 164.538 465.462 167 468.5 167H639.5C642.538 167 645 164.538 645 161.5C645 158.462 642.538 156 639.5 156Z" fill="#E1E4E5"/>
<path d="M639.5 183H468.5C465.462 183 463 185.462 463 188.5C463 191.538 465.462 194 468.5 194H639.5C642.538 194 645 191.538 645 188.5C645 185.462 642.538 183 639.5 183Z" fill="#E1E4E5"/>
<path d="M653 377.957H371C354.96 377.957 341.957 390.96 341.957 407V469C341.957 485.04 354.96 498.043 371 498.043H653C669.04 498.043 682.043 485.04 682.043 469V407C682.043 390.96 669.04 377.957 653 377.957Z" fill="white" stroke="#E1E4E5" stroke-width="1.914"/>
<path d="M422 389H384C367.431 389 354 402.431 354 419V457C354 473.569 367.431 487 384 487H422C438.569 487 452 473.569 452 457V419C452 402.431 438.569 389 422 389Z" fill="#4F27AA"/>
<path fill-rule="evenodd" clip-rule="evenodd" d="M425.267 458.555V461.831C425.267 463.64 423.818 465.108 422.033 465.108H383.233C381.448 465.108 380 463.64 380 461.831V458.502C380 448.588 391.181 442.146 402.633 442.146C414.086 442.146 425.267 448.591 425.267 458.502M410.751 413.363C415.235 417.846 415.235 425.115 410.751 429.599C406.268 434.083 398.999 434.083 394.515 429.599C390.031 425.115 390.031 417.846 394.515 413.363C398.999 408.879 406.268 408.879 410.751 413.363Z" fill="white"/>
<path d="M639.5 405H468.5C465.462 405 463 407.462 463 410.5C463 413.538 465.462 416 468.5 416H639.5C642.538 416 645 413.538 645 410.5C645 407.462 642.538 405 639.5 405Z" fill="#E1E4E5"/>
<path d="M639.5 432H468.5C465.462 432 463 434.462 463 437.5C463 440.538 465.462 443 468.5 443H639.5C642.538 443 645 440.538 645 437.5C645 434.462 642.538 432 639.5 432Z" fill="#E1E4E5"/>
<path d="M639.5 459H468.5C465.462 459 463 461.462 463 464.5C463 467.538 465.462 470 468.5 470H639.5C642.538 470 645 467.538 645 464.5C645 461.462 642.538 459 639.5 459Z" fill="#E1E4E5"/>
<path d="M737 240H455C438.984 240 426 252.984 426 269V331C426 347.016 438.984 360 455 360H737C753.016 360 766 347.016 766 331V269C766 252.984 753.016 240 737 240Z" fill="white" stroke="#E1E4E5" stroke-width="2"/>
<path d="M506 251H468C451.431 251 438 264.431 438 281V319C438 335.569 451.431 349 468 349H506C522.569 349 536 335.569 536 319V281C536 264.431 522.569 251 506 251Z" fill="#4F27AA"/>
<path fill-rule="evenodd" clip-rule="evenodd" d="M509.267 320.555V323.831C509.267 325.64 507.818 327.108 506.033 327.108H467.233C465.448 327.108 464 325.64 464 323.831V320.502C464 310.588 475.181 304.146 486.633 304.146C498.086 304.146 509.267 310.591 509.267 320.502M494.751 275.363C499.235 279.846 499.235 287.115 494.751 291.599C490.268 296.083 482.999 296.083 478.515 291.599C474.031 287.115 474.031 279.846 478.515 275.363C482.999 270.879 490.268 270.879 494.751 275.363Z" fill="white"/>
<path d="M723.5 267H552.5C549.462 267 547 269.462 547 272.5C547 275.538 549.462 278 552.5 278H723.5C726.538 278 729 275.538 729 272.5C729 269.462 726.538 267 723.5 267Z" fill="#E1E4E5"/>
<path d="M723.5 294H552.5C549.462 294 547 296.462 547 299.5C547 302.538 549.462 305 552.5 305H723.5C726.538 305 729 302.538 729 299.5C729 296.462 726.538 294 723.5 294Z" fill="#E1E4E5"/>
<path d="M723.5 321H552.5C549.462 321 547 323.462 547 326.5C547 329.538 549.462 332 552.5 332H723.5C726.538 332 729 329.538 729 326.5C729 323.462 726.538 321 723.5 321Z" fill="#E1E4E5"/>
<path fill-rule="evenodd" clip-rule="evenodd" d="M353.722 338.845C332.798 338.845 315.833 321.641 315.833 300.423C315.833 279.204 332.798 262 353.722 262C374.646 262 391.611 279.204 391.611 300.423C391.611 321.641 374.646 338.845 353.722 338.845Z" fill="#4F27AA"/>
<path d="M367.063 294.02L351.057 311.096L341.448 300.852" stroke="white" stroke-width="6.288" stroke-linecap="round" stroke-linejoin="round"/>
<path d="M300.478 210.435C299.885 215.016 298.298 220.538 295.729 222.413C292.816 224.542 291.916 226.802 291.916 226.802L288.955 225.889L285.416 224.798C285.416 224.798 285.41 224.437 285.432 223.835C285.45 223.239 285.505 222.404 285.622 221.464C285.622 221.464 286.297 220.013 285.351 218.603C284.406 217.196 283.971 214.781 284.637 213.094C285.299 211.412 285.437 207.603 286.063 207.573C287.581 207.488 286.542 212.915 287.38 213.681C288.133 214.379 288.778 213.931 288.893 213.835C288.901 213.829 288.909 213.822 288.917 213.816C292.592 211.07 295.311 200.223 297.81 201.027C298.742 201.326 300.734 208.485 300.478 210.435ZM151.053 323.154C151.053 323.154 154.191 328.584 152.786 331.716C151.385 334.85 146.52 339.028 145.265 340.667C144.015 342.303 139.772 346.626 138.062 343.844C136.354 341.069 139.371 333.688 141.463 330.906C143.553 328.119 143.751 323.336 143.751 323.336L151.053 323.154Z" fill="#F8AE9D"/>
<path d="M153.061 330.811C153.061 330.811 152.822 336.795 152.538 338.392C152.252 339.993 151.97 339.503 150.876 338.429C149.782 337.354 149.794 334.223 149.384 334.017C148.974 333.811 153.061 330.811 153.061 330.811Z" fill="#F8AE9D"/>
<path d="M207.952 209.781C207.952 209.781 244.556 249.236 255.951 255.419L284.661 221.53C284.661 221.53 290.05 221.908 293.424 226.453C293.424 226.453 282.285 274.248 261.962 280.868C241.639 287.487 200.206 240.95 200.206 240.95L207.952 209.781ZM242.08 498.999H204.492C202.686 496.87 203.351 489.01 203.622 486.44C203.679 485.922 203.717 485.624 203.717 485.624C203.717 485.624 216.552 475.712 218.315 483.302C218.368 483.54 218.434 483.774 218.505 484.004C220.725 491.102 230.69 494.328 236.439 495.227C240.184 495.81 241.567 497.687 242.08 498.999Z" fill="#2E2445"/>
<path d="M216.773 499H179.185C177.379 496.871 178.045 489.011 178.315 486.441C178.372 485.923 178.41 485.625 178.41 485.625C178.41 485.625 191.246 475.713 193.009 483.303C193.061 483.541 193.127 483.775 193.199 484.005C195.418 491.103 205.383 494.329 211.133 495.228C214.877 495.811 216.26 497.688 216.773 499Z" fill="#2E2445"/>
<path d="M231.812 329.993C231.812 329.993 230.015 349.443 227.903 372.82C225.032 404.577 221.579 443.587 221.237 450.976C220.645 463.809 218.279 484.334 218.279 484.334C218.279 484.334 212.66 489.211 201.414 487.155C201.414 487.155 191.391 457.852 188.53 426.847L188.398 425.316C185.733 393.756 181.596 327.295 181.596 327.295L231.812 329.993Z" fill="#4F27AA"/>
<path d="M221.618 331.325C221.618 331.325 218.229 350.581 214.204 373.728C208.734 405.174 202.09 443.805 201.149 451.141C199.517 463.881 195.462 484.174 195.462 484.174C195.462 484.174 189.351 488.698 178.067 485.987C178.067 485.987 170.212 456.225 169.786 425.191L169.775 423.658C169.593 392.082 170.711 325.676 170.711 325.676L221.618 331.325Z" fill="#4F27AA"/>
<path d="M215.796 216.888C202.88 220.967 181.566 209.468 181.566 209.468C181.566 209.468 192.438 201.02 191.816 182.434L201.802 190.484L208.587 195.949C208.587 195.949 208.56 199.173 207.817 204.822C207.621 206.307 207.263 208.628 208.376 209.817C212.701 214.433 215.796 216.888 215.796 216.888Z" fill="#F8AE9D"/>
<path d="M212.536 195.643C212.536 195.643 191.199 199.19 189.195 185.867C187.192 172.544 183.091 164.029 196.628 161.203C210.165 158.376 213.587 163.059 215.335 167.343C217.084 171.628 218.032 194.378 212.536 195.643Z" fill="#F8AE9D"/>
<path d="M233.828 336.885C233.439 337.207 232.987 337.404 232.468 337.404C227.616 337.337 213.47 340.034 201.503 338.804C191.413 337.833 182.478 334.846 172.889 330.548C171.615 329.976 168.686 328.41 168.748 326.988C168.793 325.427 168.945 323.169 169.142 320.32C169.822 310.419 171.002 293.393 169.848 273.747C169.644 270.131 169.533 266.51 169.517 262.888C169.419 236.26 174.696 212.844 185.309 204.919C186.217 204.271 191.78 206.99 196.892 209.508C201.614 211.838 205.317 212.084 209.781 211.18L215.259 215.134C220.693 220.178 226.645 227.039 229.235 237.45C231.435 246.314 232.728 262.293 233.439 278.854C233.761 286.358 234.02 293.93 234.087 301.108V301.362C234.15 302.074 234.15 302.852 234.15 303.563C234.409 322.006 234.15 336.626 233.828 336.885Z" fill="#2E2445"/>
<path d="M147.855 325.919C151.905 326.469 156.226 325.901 156.226 325.901C156.226 325.901 165.993 288.486 167.33 285.045C168.668 281.603 200.153 239.941 200.153 239.941L184.043 205.532C184.043 205.532 151.032 268.682 147.818 277.473C142.507 291.999 142.215 323.898 142.215 323.898C142.215 323.898 144.672 325.489 147.855 325.919ZM186.795 181.095C187.956 183.496 191.326 183.852 191.015 181.203C190.662 178.188 190.666 174.244 193.117 174.977C195.568 175.711 195.693 177.674 196.699 176.529C197.706 175.384 197.724 170.554 205.022 170.214C212.321 169.879 215.286 172.419 218.676 170.925C220.708 170.031 221.587 167.833 221.966 166.212C222.074 165.753 221.739 165.112 221.433 165.47C221.143 165.809 220.414 165.787 220.622 165.393C221.907 162.954 223.83 157.629 218.931 153.663C212.375 148.354 205.693 151.829 201.901 152.057C193.542 152.562 188.144 153.063 185.416 158.555C183.155 163.111 183.542 174.366 186.795 181.095Z" fill="#2E2445"/>
<path fill-rule="evenodd" clip-rule="evenodd" d="M752.555 158.613H749.971C749.672 158.613 749.385 158.494 749.174 158.282C748.963 158.071 748.844 157.784 748.844 157.485V154.902C748.844 154.277 749.352 153.774 749.971 153.774H752.555C753.175 153.774 753.683 154.282 753.683 154.902V157.485C753.683 157.633 753.655 157.78 753.598 157.917C753.541 158.054 753.458 158.179 753.354 158.283C753.249 158.388 753.124 158.471 752.987 158.528C752.85 158.584 752.703 158.613 752.555 158.613ZM743.597 158.613H741.014C740.394 158.613 739.886 158.105 739.886 157.485V154.902C739.886 154.277 740.394 153.774 741.014 153.774H743.597C744.217 153.774 744.725 154.282 744.725 154.902V157.485C744.725 158.105 744.217 158.613 743.597 158.613ZM734.634 158.613H732.05C731.43 158.613 730.922 158.105 730.922 157.485V154.902C730.922 154.277 731.43 153.774 732.05 153.774H734.634C735.253 153.774 735.761 154.282 735.761 154.902V157.485C735.761 157.633 735.733 157.78 735.676 157.917C735.62 158.054 735.537 158.178 735.432 158.283C735.327 158.388 735.203 158.471 735.066 158.528C734.929 158.584 734.782 158.613 734.634 158.613ZM725.675 158.613H723.091C722.792 158.612 722.506 158.493 722.295 158.281C722.083 158.07 721.964 157.784 721.963 157.485V154.902C721.964 154.603 722.083 154.316 722.294 154.105C722.505 153.894 722.792 153.775 723.091 153.774H725.675C726.3 153.774 726.808 154.282 726.808 154.902V157.485C726.805 157.784 726.684 158.07 726.472 158.281C726.26 158.492 725.974 158.611 725.675 158.613ZM716.716 158.613H714.133C713.833 158.613 713.546 158.494 713.334 158.283C713.121 158.072 713.001 157.785 713 157.485V154.902C713 154.754 713.03 154.607 713.087 154.469C713.144 154.332 713.228 154.208 713.333 154.103C713.438 153.998 713.563 153.915 713.7 153.859C713.837 153.802 713.985 153.774 714.133 153.774H716.716C717.336 153.774 717.844 154.282 717.844 154.902V157.485C717.844 158.105 717.336 158.613 716.716 158.613ZM743.269 148.845H740.685C740.065 148.845 739.557 148.336 739.557 147.717V145.128C739.557 144.508 740.065 144 740.685 144H743.269C743.893 144 744.396 144.508 744.396 145.128V147.712C744.397 147.861 744.368 148.008 744.312 148.145C744.256 148.283 744.173 148.408 744.068 148.513C743.964 148.618 743.839 148.702 743.702 148.759C743.565 148.816 743.418 148.845 743.269 148.845ZM734.31 148.845H731.727C731.107 148.845 730.599 148.336 730.599 147.717V145.128C730.599 144.508 731.107 144 731.727 144H734.31C734.93 144 735.438 144.508 735.438 145.128V147.712C735.439 147.861 735.41 148.008 735.354 148.145C735.297 148.283 735.215 148.408 735.11 148.513C735.005 148.618 734.88 148.702 734.743 148.759C734.606 148.816 734.459 148.845 734.31 148.845ZM725.352 148.845H722.768C722.468 148.845 722.181 148.726 721.969 148.515C721.757 148.303 721.637 148.017 721.635 147.717V145.128C721.635 144.508 722.143 144 722.768 144H725.352C725.971 144 726.48 144.508 726.48 145.128V147.712C726.48 148.336 725.971 148.845 725.352 148.845ZM734.634 169.107H732.05C731.43 169.107 730.922 168.599 730.922 167.979V165.396C730.922 164.771 731.43 164.268 732.05 164.268H734.634C735.253 164.268 735.761 164.776 735.761 165.396V167.979C735.761 168.127 735.733 168.274 735.676 168.411C735.62 168.548 735.537 168.672 735.432 168.777C735.327 168.882 735.203 168.965 735.066 169.022C734.929 169.078 734.782 169.107 734.634 169.107ZM725.675 169.107H723.091C722.792 169.106 722.506 168.987 722.295 168.775C722.083 168.564 721.964 168.278 721.963 167.979V165.396C721.964 165.097 722.083 164.81 722.294 164.599C722.505 164.388 722.792 164.269 723.091 164.268H725.675C726.3 164.268 726.808 164.776 726.808 165.396V167.979C726.805 168.278 726.684 168.564 726.472 168.775C726.26 168.986 725.974 169.105 725.675 169.107ZM752.555 439.613H749.971C749.672 439.613 749.385 439.494 749.174 439.282C748.963 439.071 748.844 438.784 748.844 438.485V435.902C748.844 435.277 749.352 434.774 749.971 434.774H752.555C753.175 434.774 753.683 435.282 753.683 435.902V438.485C753.683 438.633 753.655 438.78 753.598 438.917C753.541 439.054 753.458 439.179 753.354 439.284C753.249 439.388 753.124 439.471 752.987 439.528C752.85 439.585 752.703 439.613 752.555 439.613ZM743.597 439.613H741.014C740.394 439.613 739.886 439.105 739.886 438.485V435.902C739.886 435.277 740.394 434.774 741.014 434.774H743.597C744.217 434.774 744.725 435.282 744.725 435.902V438.485C744.725 439.105 744.217 439.613 743.597 439.613ZM734.634 439.613H732.05C731.43 439.613 730.922 439.105 730.922 438.485V435.902C730.922 435.277 731.43 434.774 732.05 434.774H734.634C735.253 434.774 735.761 435.282 735.761 435.902V438.485C735.761 438.633 735.733 438.78 735.676 438.917C735.62 439.054 735.537 439.178 735.432 439.283C735.327 439.388 735.203 439.471 735.066 439.528C734.929 439.584 734.782 439.613 734.634 439.613ZM725.675 439.613H723.091C722.792 439.612 722.506 439.493 722.295 439.281C722.083 439.07 721.964 438.784 721.963 438.485V435.902C721.964 435.603 722.083 435.316 722.294 435.105C722.505 434.894 722.792 434.775 723.091 434.774H725.675C726.3 434.774 726.808 435.282 726.808 435.902V438.485C726.805 438.784 726.684 439.07 726.472 439.281C726.26 439.492 725.974 439.611 725.675 439.613ZM716.716 439.613H714.133C713.833 439.613 713.546 439.494 713.334 439.283C713.121 439.072 713.001 438.785 713 438.485V435.902C713 435.754 713.03 435.607 713.087 435.469C713.144 435.332 713.228 435.208 713.333 435.103C713.438 434.998 713.563 434.915 713.7 434.859C713.837 434.802 713.985 434.774 714.133 434.774H716.716C717.336 434.774 717.844 435.282 717.844 435.902V438.485C717.844 439.105 717.336 439.613 716.716 439.613ZM743.269 429.845H740.685C740.065 429.845 739.557 429.336 739.557 428.717V426.128C739.557 425.508 740.065 425 740.685 425H743.269C743.893 425 744.396 425.508 744.396 426.128V428.712C744.397 428.861 744.368 429.008 744.312 429.145C744.256 429.283 744.173 429.408 744.068 429.513C743.964 429.618 743.839 429.702 743.702 429.759C743.565 429.816 743.418 429.845 743.269 429.845ZM734.31 429.845H731.727C731.107 429.845 730.599 429.336 730.599 428.717V426.128C730.599 425.508 731.107 425 731.727 425H734.31C734.93 425 735.438 425.508 735.438 426.128V428.712C735.439 428.861 735.41 429.008 735.354 429.145C735.297 429.283 735.215 429.408 735.11 429.513C735.005 429.618 734.88 429.702 734.743 429.759C734.606 429.816 734.459 429.845 734.31 429.845ZM725.352 429.845H722.768C722.468 429.845 722.181 429.726 721.969 429.515C721.757 429.303 721.637 429.017 721.635 428.717V426.128C721.635 425.508 722.143 425 722.768 425H725.352C725.971 425 726.48 425.508 726.48 426.128V428.712C726.48 429.336 725.971 429.845 725.352 429.845ZM734.634 450.107H732.05C731.43 450.107 730.922 449.599 730.922 448.979V446.396C730.922 445.771 731.43 445.268 732.05 445.268H734.634C735.253 445.268 735.761 445.776 735.761 446.396V448.979C735.761 449.127 735.733 449.274 735.676 449.411C735.62 449.548 735.537 449.672 735.432 449.777C735.327 449.882 735.203 449.965 735.066 450.022C734.929 450.078 734.782 450.107 734.634 450.107ZM725.675 450.107H723.091C722.792 450.106 722.506 449.987 722.295 449.775C722.083 449.564 721.964 449.278 721.963 448.979V446.396C721.964 446.097 722.083 445.81 722.294 445.599C722.505 445.388 722.792 445.269 723.091 445.268H725.675C726.3 445.268 726.808 445.776 726.808 446.396V448.979C726.805 449.278 726.684 449.564 726.472 449.775C726.26 449.986 725.974 450.105 725.675 450.107Z" fill="#E1E4E5"/>
<path d="M324.548 222H324.453C323.894 229.643 318 229.761 318 229.761C318 229.761 324.5 229.883 324.5 238.714C324.5 229.883 331 229.761 331 229.761C331 229.761 325.107 229.643 324.548 222ZM281.578 300H281.425C280.521 312.346 271 312.536 271 312.536C271 312.536 281.5 312.734 281.5 327C281.5 312.734 292 312.536 292 312.536C292 312.536 282.481 312.346 281.578 300ZM407.548 340.143H407.453C406.894 347.786 401 347.904 401 347.904C401 347.904 407.5 348.026 407.5 356.857C407.5 348.026 414 347.904 414 347.904C414 347.904 408.107 347.786 407.548 340.143ZM407.548 240H407.453C406.894 247.643 401 247.761 401 247.761C401 247.761 407.5 247.883 407.5 256.714C407.5 247.883 414 247.761 414 247.761C414 247.761 408.107 247.643 407.548 240ZM318.443 354H318.336C317.7 362.688 311 362.822 311 362.822C311 362.822 318.388 362.961 318.388 373C318.388 362.961 325.777 362.822 325.777 362.822C325.777 362.822 319.079 362.688 318.443 354Z" fill="#E1E4E5"/>
</g>
<defs>
<clipPath id="clip0_1235_18016">
<rect width="900" height="600" fill="white"/>
</clipPath>
</defs>
</svg>
