<svg width="900" height="600" viewBox="0 0 900 600" fill="none" xmlns="http://www.w3.org/2000/svg">
<g clip-path="url(#clip0_1235_21401)">
<path d="M666.558 501.618H189.477C175.552 501.618 164.259 490.326 164.259 476.401V177.478C164.259 163.553 175.552 152.26 189.477 152.26H666.558C680.483 152.26 691.776 163.553 691.776 177.478V476.401C691.776 490.326 680.483 501.618 666.558 501.618Z" fill="white" stroke="#E1E4E5" stroke-width="4.518"/>
<path d="M691.776 185.209H164.259V177.478C164.259 163.553 175.552 152.26 189.477 152.26H666.558C680.483 152.26 691.776 163.553 691.776 177.478V185.209Z" fill="white" stroke="#E1E4E5" stroke-width="4.518"/>
<path d="M188.545 173.722C189.893 173.722 191.186 173.186 192.14 172.233C193.093 171.279 193.629 169.986 193.629 168.638C193.629 167.29 193.093 165.997 192.14 165.044C191.186 164.09 189.893 163.555 188.545 163.555C187.197 163.555 185.904 164.09 184.95 165.044C183.997 165.997 183.462 167.29 183.462 168.638C183.462 169.986 183.997 171.279 184.95 172.233C185.904 173.186 187.197 173.722 188.545 173.722ZM208.877 173.722C210.225 173.722 211.518 173.186 212.472 172.233C213.425 171.279 213.961 169.986 213.961 168.638C213.961 167.29 213.425 165.997 212.472 165.044C211.518 164.09 210.225 163.555 208.877 163.555C207.529 163.555 206.236 164.09 205.282 165.044C204.329 165.997 203.794 167.29 203.794 168.638C203.794 169.986 204.329 171.279 205.282 172.233C206.236 173.186 207.529 173.722 208.877 173.722ZM229.774 173.722C232.893 173.722 235.422 171.446 235.422 168.639C235.422 165.832 232.893 163.556 229.774 163.556C226.655 163.556 224.126 165.832 224.126 168.639C224.126 171.446 226.655 173.722 229.774 173.722Z" fill="#E1E4E5"/>
<path d="M763.558 434.618H286.477C272.552 434.618 261.259 423.326 261.259 409.401V110.478C261.259 96.5528 272.552 85.2598 286.477 85.2598H763.558C777.483 85.2598 788.776 96.5528 788.776 110.478V409.401C788.776 423.326 777.483 434.618 763.558 434.618Z" fill="white" stroke="#E1E4E5" stroke-width="4.518"/>
<path d="M680.255 290.826L670.807 300.265L666.217 295.689M700.727 286.309H728.652M700.944 300.163H747.124M680.255 323.152L670.807 332.591L666.217 328.014M700.727 318.635H728.652M700.944 332.489H747.124M747.123 364.814H700.727M747.124 350.96H700.944" stroke="#E1E4E5" stroke-width="5.5" stroke-linecap="round" stroke-linejoin="round"/>
<path d="M673.236 369.433C675.686 369.433 678.035 368.46 679.767 366.728C681.499 364.996 682.472 362.646 682.472 360.197C682.472 357.747 681.499 355.398 679.767 353.666C678.035 351.934 675.686 350.961 673.236 350.961C670.81 350.997 668.495 351.985 666.792 353.714C665.09 355.442 664.135 357.771 664.135 360.197C664.135 362.623 665.09 364.952 666.792 366.68C668.495 368.408 670.81 369.397 673.236 369.433V369.433Z" stroke="#E1E4E5" stroke-width="5.5" stroke-linecap="round" stroke-linejoin="round"/>
<path d="M680.255 180.826L670.807 190.265L666.217 185.689M700.727 176.309H728.652M700.944 190.163H747.124M680.255 213.152L670.807 222.591L666.217 218.014M700.727 208.635H728.652M700.944 222.489H747.124M747.123 254.814H700.727M747.124 240.96H700.944" stroke="#E1E4E5" stroke-width="5.5" stroke-linecap="round" stroke-linejoin="round"/>
<path d="M673.236 259.433C675.686 259.433 678.035 258.46 679.767 256.728C681.499 254.996 682.472 252.646 682.472 250.197C682.472 247.747 681.499 245.398 679.767 243.666C678.035 241.934 675.686 240.961 673.236 240.961C670.81 240.997 668.495 241.985 666.792 243.714C665.09 245.442 664.135 247.771 664.135 250.197C664.135 252.623 665.09 254.952 666.792 256.68C668.495 258.408 670.81 259.397 673.236 259.433Z" stroke="#E1E4E5" stroke-width="5.5" stroke-linecap="round" stroke-linejoin="round"/>
<path fill-rule="evenodd" clip-rule="evenodd" d="M311 165C311 162.613 311.948 160.324 313.636 158.636C315.324 156.948 317.613 156 320 156H394C396.387 156 398.676 156.948 400.364 158.636C402.052 160.324 403 162.613 403 165C403 167.387 402.052 169.676 400.364 171.364C398.676 173.052 396.387 174 394 174H320C317.613 174 315.324 173.052 313.636 171.364C311.948 169.676 311 167.387 311 165ZM311 198C311 195.613 311.948 193.324 313.636 191.636C315.324 189.948 317.613 189 320 189H360C362.387 189 364.676 189.948 366.364 191.636C368.052 193.324 369 195.613 369 198C369 200.387 368.052 202.676 366.364 204.364C364.676 206.052 362.387 207 360 207H320C317.613 207 315.324 206.052 313.636 204.364C311.948 202.676 311 200.387 311 198ZM311 228C311 225.613 311.948 223.324 313.636 221.636C315.324 219.948 317.613 219 320 219H360C362.387 219 364.676 219.948 366.364 221.636C368.052 223.324 369 225.613 369 228C369 230.387 368.052 232.676 366.364 234.364C364.676 236.052 362.387 237 360 237H320C317.613 237 315.324 236.052 313.636 234.364C311.948 232.676 311 230.387 311 228Z" fill="white" stroke="#E1E4E5" stroke-width="4" stroke-linecap="round" stroke-linejoin="round"/>
<path d="M788.776 118.209H261.259V110.478C261.259 96.5528 272.552 85.2598 286.477 85.2598H763.558C777.483 85.2598 788.776 96.5528 788.776 110.478V118.209Z" fill="white" stroke="#E1E4E5" stroke-width="4.518"/>
<path d="M285.545 106.722C286.893 106.722 288.186 106.186 289.14 105.233C290.093 104.279 290.628 102.986 290.628 101.638C290.628 100.29 290.093 98.997 289.14 98.0436C288.186 97.0903 286.893 96.5547 285.545 96.5547C284.197 96.5547 282.904 97.0903 281.95 98.0436C280.997 98.997 280.461 100.29 280.461 101.638C280.461 102.986 280.997 104.279 281.95 105.233C282.904 106.186 284.197 106.722 285.545 106.722ZM305.877 106.722C307.225 106.722 308.518 106.186 309.472 105.233C310.425 104.279 310.96 102.986 310.96 101.638C310.96 100.29 310.425 98.997 309.472 98.0436C308.518 97.0903 307.225 96.5547 305.877 96.5547C304.529 96.5547 303.236 97.0903 302.282 98.0436C301.329 98.997 300.793 100.29 300.793 101.638C300.793 102.986 301.329 104.279 302.282 105.233C303.236 106.186 304.529 106.722 305.877 106.722ZM326.774 106.722C329.893 106.722 332.422 104.446 332.422 101.639C332.422 98.8317 329.893 96.5557 326.774 96.5557C323.655 96.5557 321.126 98.8317 321.126 101.639C321.126 104.446 323.655 106.722 326.774 106.722Z" fill="#E1E4E5"/>
<path fill-rule="evenodd" clip-rule="evenodd" d="M234.698 370.62C212.76 348.683 196.223 324.12 185.235 299.202C182.929 293.933 184.279 287.764 188.348 283.695L203.704 268.339C216.285 255.758 216.285 237.964 205.298 226.977L183.304 204.983C168.66 190.339 144.923 190.339 130.279 204.983L118.054 217.189C104.16 231.083 98.366 251.127 102.116 271.002C111.379 319.995 139.841 373.639 185.76 419.558C231.679 465.477 285.323 493.939 334.316 503.202C354.191 506.952 374.235 501.158 388.129 487.264L400.335 475.058C414.979 460.414 414.979 436.677 400.335 422.033L378.341 400.039C367.354 389.052 349.541 389.052 338.573 400.039L321.641 416.989C317.573 421.058 311.404 422.427 306.135 420.102C281.216 409.095 256.635 392.539 234.698 370.62Z" fill="#4F27AA"/>
<path d="M300.38 327.933C289.124 304.09 299.329 275.636 323.172 264.381C347.015 253.125 375.468 263.329 386.724 287.172C397.98 311.015 387.776 339.468 363.933 350.724C340.089 361.98 311.636 351.776 300.38 327.933Z" fill="#4F27AA"/>
<path d="M352.801 345.535C354.456 345.573 355.488 347.344 354.706 348.802L344.739 367.379C343.897 368.948 341.644 368.937 340.818 367.36L330.852 348.333C330.068 346.836 331.178 345.047 332.867 345.085L352.801 345.535Z" fill="#4F27AA"/>
<path d="M360.435 308.792C360.45 309.632 360.63 310.461 360.966 311.232C361.301 312.003 361.786 312.7 362.391 313.283C362.996 313.866 363.71 314.325 364.493 314.632C365.275 314.939 366.111 315.089 366.951 315.073C367.791 315.058 368.621 314.877 369.392 314.542C370.162 314.206 370.859 313.722 371.443 313.116C372.026 312.511 372.484 311.797 372.791 311.014C373.098 310.232 373.248 309.396 373.232 308.556C373.217 307.715 373.037 306.886 372.701 306.115C372.365 305.345 371.881 304.648 371.276 304.064C370.671 303.481 369.956 303.023 369.174 302.716C368.392 302.409 367.556 302.259 366.716 302.275C365.019 302.307 363.404 303.011 362.227 304.233C361.049 305.455 360.404 307.095 360.435 308.792ZM338.203 309.735C338.563 313.248 341.716 315.805 345.229 315.445C348.742 315.085 351.299 311.932 350.939 308.42C350.579 304.907 347.426 302.35 343.913 302.71C340.4 303.082 337.843 306.222 338.203 309.735ZM317.299 310.12C317.659 313.633 320.812 316.19 324.325 315.83C327.838 315.47 330.395 312.317 330.035 308.804C329.675 305.292 326.522 302.734 323.009 303.094C322.173 303.18 321.361 303.43 320.622 303.83C319.882 304.229 319.228 304.771 318.698 305.424C318.168 306.076 317.771 306.827 317.531 307.632C317.291 308.438 317.212 309.283 317.299 310.12Z" fill="white"/>
<path fill-rule="evenodd" clip-rule="evenodd" d="M428 271.391C428 299.064 442.646 323.426 465.121 338.784C465.11 347.602 465.131 359.484 465.131 371.954L501.55 353.935C507.903 355.16 514.358 355.778 520.828 355.781C571.904 355.781 613.655 318.207 613.655 271.391C613.655 224.575 571.904 187 520.828 187C469.752 187 428 224.575 428 271.391Z" fill="#4F27AA" stroke="#4F27AA" stroke-width="12.5" stroke-linecap="round" stroke-linejoin="round"/>
<path fill-rule="evenodd" clip-rule="evenodd" d="M513.744 244.883L546.697 264.377C551.442 267.183 551.442 274.052 546.697 276.868L513.744 296.361C508.906 299.218 502.8 295.732 502.8 290.121V251.134C502.8 245.502 508.906 242.016 513.744 244.883Z" fill="white"/>
<path fill-rule="evenodd" clip-rule="evenodd" d="M725.442 477.42H728.746C729.545 477.42 730.188 478.07 730.188 478.862V482.166C730.188 482.965 729.538 483.608 728.746 483.608H725.442C724.65 483.608 724 482.958 724 482.166V478.862C724 478.673 724.037 478.485 724.109 478.31C724.181 478.135 724.287 477.975 724.421 477.841C724.555 477.707 724.715 477.601 724.89 477.529C725.065 477.457 725.253 477.42 725.442 477.42ZM736.897 477.42H740.201C740.994 477.42 741.644 478.07 741.644 478.862V482.166C741.644 482.965 740.994 483.608 740.201 483.608H736.897C736.105 483.608 735.455 482.958 735.455 482.166V478.862C735.455 478.07 736.105 477.42 736.897 477.42ZM748.36 477.42H751.665C752.457 477.42 753.107 478.07 753.107 478.862V482.166C753.107 482.965 752.457 483.608 751.665 483.608H748.36C747.568 483.608 746.918 482.958 746.918 482.166V478.862C746.918 478.673 746.955 478.485 747.027 478.31C747.1 478.135 747.206 477.976 747.34 477.842C747.474 477.708 747.633 477.602 747.808 477.529C747.983 477.457 748.171 477.42 748.36 477.42ZM759.816 477.42H763.12C763.912 477.42 764.562 478.07 764.562 478.862V482.166C764.562 482.965 763.912 483.608 763.12 483.608H759.816C759.433 483.608 759.066 483.456 758.794 483.186C758.523 482.916 758.369 482.549 758.367 482.166V478.862C758.371 478.48 758.525 478.114 758.796 477.845C759.068 477.575 759.434 477.422 759.816 477.42ZM771.272 477.42H774.576C775.375 477.42 776.025 478.07 776.025 478.862V482.166C776.025 482.965 775.375 483.608 774.576 483.608H771.272C770.48 483.608 769.83 482.958 769.83 482.166V478.862C769.83 478.07 770.48 477.42 771.272 477.42ZM737.317 489.912H740.622C741.414 489.912 742.064 490.561 742.064 491.354V494.665C742.064 495.457 741.414 496.107 740.622 496.107H737.317C736.519 496.107 735.875 495.457 735.875 494.665V491.36C735.874 491.17 735.91 490.982 735.982 490.806C736.055 490.63 736.161 490.47 736.295 490.336C736.429 490.201 736.588 490.095 736.763 490.022C736.939 489.949 737.127 489.912 737.317 489.912ZM748.773 489.912H752.077C752.869 489.912 753.519 490.561 753.519 491.354V494.665C753.519 495.457 752.869 496.107 752.077 496.107H748.773C747.981 496.107 747.331 495.457 747.331 494.665V491.36C747.33 491.17 747.366 490.982 747.438 490.806C747.51 490.63 747.617 490.47 747.751 490.336C747.885 490.201 748.044 490.095 748.219 490.022C748.395 489.949 748.583 489.912 748.773 489.912ZM760.229 489.912H763.533C764.332 489.912 764.982 490.561 764.982 491.354V494.665C764.98 495.048 764.826 495.415 764.555 495.685C764.283 495.955 763.916 496.107 763.533 496.107H760.229C759.437 496.107 758.787 495.457 758.787 494.665V491.36C758.787 490.561 759.437 489.912 760.229 489.912ZM748.36 464H751.665C752.457 464 753.107 464.65 753.107 465.442V468.746C753.107 469.545 752.457 470.188 751.665 470.188H748.36C747.568 470.188 746.918 469.538 746.918 468.746V465.442C746.918 465.253 746.955 465.065 747.027 464.89C747.1 464.715 747.206 464.556 747.34 464.422C747.474 464.288 747.633 464.182 747.808 464.109C747.983 464.037 748.171 464 748.36 464ZM759.816 464H763.12C763.912 464 764.562 464.65 764.562 465.442V468.746C764.562 469.545 763.912 470.188 763.12 470.188H759.816C759.433 470.188 759.066 470.036 758.794 469.766C758.523 469.496 758.369 469.129 758.367 468.746V465.442C758.371 465.06 758.525 464.694 758.796 464.425C759.068 464.155 759.434 464.002 759.816 464ZM84.442 163.42H87.746C88.546 163.42 89.189 164.07 89.189 164.862V168.166C89.189 168.965 88.539 169.608 87.746 169.608H84.442C83.65 169.608 83 168.958 83 168.166V164.862C82.9996 164.673 83.0366 164.485 83.109 164.31C83.1813 164.135 83.2875 163.975 83.4215 163.841C83.5555 163.707 83.7146 163.601 83.8897 163.529C84.0648 163.457 84.2525 163.42 84.442 163.42ZM95.898 163.42H99.202C99.994 163.42 100.644 164.07 100.644 164.862V168.166C100.644 168.965 99.994 169.608 99.202 169.608H95.898C95.106 169.608 94.456 168.958 94.456 168.166V164.862C94.456 164.07 95.106 163.42 95.898 163.42ZM107.361 163.42H110.665C111.457 163.42 112.107 164.07 112.107 164.862V168.166C112.107 168.965 111.457 169.608 110.665 169.608H107.361C106.569 169.608 105.919 168.958 105.919 168.166V164.862C105.919 164.673 105.956 164.485 106.028 164.31C106.1 164.135 106.206 163.975 106.34 163.841C106.474 163.707 106.634 163.601 106.809 163.529C106.984 163.457 107.172 163.42 107.361 163.42ZM118.816 163.42H122.12C122.913 163.42 123.563 164.07 123.563 164.862V168.166C123.563 168.965 122.913 169.608 122.12 169.608H118.816C118.433 169.608 118.066 169.456 117.794 169.186C117.523 168.916 117.369 168.549 117.367 168.166V164.862C117.371 164.48 117.525 164.114 117.796 163.845C118.067 163.575 118.434 163.422 118.816 163.42ZM130.273 163.42H133.577C134.376 163.42 135.026 164.07 135.026 164.862V168.166C135.026 168.965 134.376 169.608 133.577 169.608H130.273C129.481 169.608 128.831 168.958 128.831 168.166V164.862C128.831 164.07 129.481 163.42 130.273 163.42ZM96.318 175.912H99.622C100.414 175.912 101.064 176.561 101.064 177.354V180.665C101.064 181.457 100.414 182.107 99.622 182.107H96.318C95.519 182.107 94.876 181.457 94.876 180.665V177.36C94.8749 177.17 94.9115 176.982 94.9835 176.806C95.0555 176.63 95.1616 176.47 95.2956 176.336C95.4297 176.201 95.589 176.095 95.7645 176.022C95.9399 175.949 96.1281 175.912 96.318 175.912ZM107.773 175.912H111.077C111.87 175.912 112.52 176.561 112.52 177.354V180.665C112.52 181.457 111.87 182.107 111.077 182.107H107.773C106.981 182.107 106.331 181.457 106.331 180.665V177.36C106.33 177.17 106.366 176.982 106.439 176.806C106.511 176.63 106.617 176.47 106.751 176.336C106.885 176.201 107.044 176.095 107.219 176.022C107.395 175.949 107.583 175.912 107.773 175.912ZM119.23 175.912H122.534C123.333 175.912 123.983 176.561 123.983 177.354V180.665C123.981 181.048 123.827 181.415 123.556 181.685C123.284 181.955 122.917 182.107 122.534 182.107H119.23C118.438 182.107 117.788 181.457 117.788 180.665V177.36C117.788 176.561 118.438 175.912 119.23 175.912ZM107.361 150H110.665C111.457 150 112.107 150.65 112.107 151.442V154.746C112.107 155.545 111.457 156.188 110.665 156.188H107.361C106.569 156.188 105.919 155.538 105.919 154.746V151.442C105.919 151.253 105.956 151.065 106.028 150.89C106.1 150.715 106.206 150.555 106.34 150.421C106.474 150.287 106.634 150.181 106.809 150.109C106.984 150.037 107.172 150 107.361 150ZM118.816 150H122.12C122.913 150 123.563 150.65 123.563 151.442V154.746C123.563 155.545 122.913 156.188 122.12 156.188H118.816C118.433 156.188 118.066 156.036 117.794 155.766C117.523 155.496 117.369 155.129 117.367 154.746V151.442C117.371 151.06 117.525 150.694 117.796 150.425C118.067 150.155 118.434 150.002 118.816 150Z" fill="#E1E4E5"/>
<path d="M544.84 470.727C539.155 474.64 530.473 471.902 530.473 471.902C530.473 471.902 531.012 462.819 536.701 458.909C542.385 454.996 551.064 457.73 551.064 457.73C551.064 457.73 550.524 466.813 544.84 470.727Z" fill="url(#paint0_linear_1235_21401)"/>
<path d="M755.594 407.759C762.039 403.346 762.676 393.061 762.676 393.061C762.676 393.061 752.862 389.939 746.42 394.358C739.976 398.772 739.336 409.051 739.336 409.051C739.336 409.051 749.15 412.173 755.594 407.759Z" fill="url(#paint1_linear_1235_21401)"/>
<path d="M101.442 421.088C111.765 431.594 131.068 429.379 131.068 429.379C131.068 429.379 133.622 410.129 123.29 399.63C112.967 389.123 93.674 391.332 93.674 391.332C93.674 391.332 91.119 410.582 101.442 421.088Z" fill="url(#paint2_linear_1235_21401)"/>
<path d="M181.359 249.049C172.404 249.049 165.144 241.789 165.144 232.834C165.144 223.879 172.404 216.619 181.359 216.619C190.314 216.619 197.574 223.879 197.574 232.834C197.574 241.789 190.314 249.049 181.359 249.049Z" fill="#4F27AA"/>
<path d="M118.318 479.128C113.477 479.128 109.553 475.203 109.553 470.363C109.553 465.522 113.477 461.598 118.318 461.598C123.159 461.598 127.083 465.522 127.083 470.363C127.083 475.203 123.159 479.128 118.318 479.128Z" fill="white"/>
<path d="M411.031 369.06C407.148 369.06 404.001 365.913 404.001 362.03C404.001 358.147 407.148 355 411.031 355C414.914 355 418.061 358.147 418.061 362.03C418.061 365.913 414.914 369.06 411.031 369.06Z" fill="#E1E4E5"/>
<path d="M729.5 107C727.015 107 725 104.985 725 102.5C725 100.015 727.015 98 729.5 98C731.985 98 734 100.015 734 102.5C734 104.985 731.985 107 729.5 107Z" fill="#E1E4E5"/>
<path d="M446.5 481C444.015 481 442 478.985 442 476.5C442 474.015 444.015 472 446.5 472C448.985 472 451 474.015 451 476.5C451 478.985 448.985 481 446.5 481Z" fill="#E1E4E5"/>
<path d="M649.5 469C647.015 469 645 466.985 645 464.5C645 462.015 647.015 460 649.5 460C651.985 460 654 462.015 654 464.5C654 466.985 651.985 469 649.5 469Z" fill="#E1E4E5"/>
<path d="M107.379 436.549C108.382 440.293 106.16 444.142 102.415 445.145C98.6709 446.149 94.8222 443.927 93.8188 440.182C92.8155 436.438 95.0376 432.589 98.782 431.586C102.526 430.582 106.375 432.804 107.379 436.549Z" fill="white"/>
<path d="M451.337 164.674C446.18 164.674 442 160.494 442 155.337C442 150.18 446.18 146 451.337 146C456.494 146 460.674 150.18 460.674 155.337C460.674 160.494 456.494 164.674 451.337 164.674Z" fill="#E1E4E5"/>
<path d="M198.183 481.492C194.216 481.492 191 478.919 191 475.746C191 472.573 194.216 470 198.183 470C202.15 470 205.366 472.573 205.366 475.746C205.366 478.919 202.15 481.492 198.183 481.492Z" fill="#E1E4E5"/>
<path d="M806.003 511.809C800.2 514.64 793.684 513.221 791.449 508.64C789.215 504.06 792.107 498.051 797.91 495.22C803.713 492.389 810.229 493.807 812.464 498.388C814.699 502.969 811.806 508.978 806.003 511.809Z" fill="#E1E4E5"/>
<path d="M611.812 154.5C611.812 158.642 608.454 162 604.312 162C600.17 162 596.812 158.642 596.812 154.5C596.812 150.358 600.17 147 604.312 147C608.454 147 611.812 150.358 611.812 154.5Z" fill="#E1E4E5"/>
<path d="M609.832 380H610.02C611.133 395.765 622.857 396.008 622.857 396.008C622.857 396.008 609.929 396.26 609.929 414.477C609.929 396.26 597 396.008 597 396.008C597 396.008 608.72 395.765 609.832 380ZM537.832 133H538.02C539.133 148.765 550.857 149.008 550.857 149.008C550.857 149.008 537.929 149.26 537.929 167.477C537.929 149.26 525 149.008 525 149.008C525 149.008 536.72 148.765 537.832 133ZM218.254 94H218.389C219.192 105.536 227.646 105.714 227.646 105.714C227.646 105.714 218.323 105.898 218.323 119.228C218.323 105.898 209 105.714 209 105.714C209 105.714 217.451 105.536 218.254 94ZM218.254 295H218.389C219.192 306.536 227.646 306.714 227.646 306.714C227.646 306.714 218.323 306.898 218.323 320.228C218.323 306.898 209 306.714 209 306.714C209 306.714 217.451 306.536 218.254 295Z" fill="#E1E4E5"/>
</g>
<defs>
<linearGradient id="paint0_linear_1235_21401" x1="522.697" y1="483.567" x2="567.448" y2="436.399" gradientUnits="userSpaceOnUse">
<stop stop-color="white"/>
<stop offset="1" stop-color="#EEEEEE"/>
</linearGradient>
<linearGradient id="paint1_linear_1235_21401" x1="778.158" y1="389.59" x2="710.145" y2="417.685" gradientUnits="userSpaceOnUse">
<stop stop-color="white"/>
<stop offset="1" stop-color="#EEEEEE"/>
</linearGradient>
<linearGradient id="paint2_linear_1235_21401" x1="142.627" y1="456.975" x2="68.001" y2="339.992" gradientUnits="userSpaceOnUse">
<stop stop-color="white"/>
<stop offset="1" stop-color="#EEEEEE"/>
</linearGradient>
<clipPath id="clip0_1235_21401">
<rect width="900" height="600" fill="white"/>
</clipPath>
</defs>
</svg>
