<svg width="900" height="600" viewBox="0 0 900 600" fill="none" xmlns="http://www.w3.org/2000/svg">
<g clip-path="url(#clip0_1235_21436)">
<path fill-rule="evenodd" clip-rule="evenodd" d="M596 276C552.924 276 518 241.076 518 198C518 154.924 552.924 120 596 120C639.076 120 674 154.924 674 198C674 241.076 639.076 276 596 276Z" fill="#4F27AA"/>
<path d="M630.007 182.676L587.504 225.962L561.986 199.994" stroke="white" stroke-width="15" stroke-linecap="round" stroke-linejoin="round"/>
<path fill-rule="evenodd" clip-rule="evenodd" d="M457.817 383.752C401.469 383.752 355.785 338.066 355.785 281.719C355.785 225.372 401.469 179.688 457.817 179.688C514.164 179.688 559.849 225.372 559.849 281.719C559.849 338.066 514.164 383.752 457.817 383.752Z" fill="#4F27AA"/>
<path d="M491.827 266.26L449.324 309.546L423.806 283.578" stroke="white" stroke-width="15" stroke-linecap="round" stroke-linejoin="round"/>
<path fill-rule="evenodd" clip-rule="evenodd" d="M319.5 443C276.148 443 241 407.852 241 364.5C241 321.148 276.148 286 319.5 286C362.852 286 398 321.148 398 364.5C398 407.852 362.852 443 319.5 443Z" fill="#4F27AA"/>
<path d="M353.648 348.859L311.144 392.146L285.626 366.178" stroke="white" stroke-width="15" stroke-linecap="round" stroke-linejoin="round"/>
<path d="M330.247 200.413C341.864 191.794 344.294 175.39 335.675 163.774C327.056 152.157 310.652 149.727 299.035 158.346L230.003 209.566C218.386 218.185 215.956 234.589 224.575 246.205C233.194 257.822 249.598 260.252 261.214 251.633L330.247 200.413Z" fill="#E1E4E5"/>
<path d="M326.513 196.457C335.746 189.606 337.678 176.567 330.827 167.334C323.976 158.1 310.937 156.169 301.703 163.02C292.47 169.871 290.538 182.91 297.389 192.143C304.24 201.377 317.279 203.308 326.513 196.457Z" fill="white"/>
<path d="M652.225 399.026C663.842 390.407 666.272 374.003 657.653 362.387C649.034 350.77 632.63 348.341 621.013 356.96L551.981 408.179C540.364 416.798 537.934 433.202 546.553 444.819C555.172 456.435 571.576 458.865 583.192 450.246L652.225 399.026Z" fill="#E1E4E5"/>
<path d="M648.491 395.072C657.724 388.222 659.656 375.183 652.805 365.949C645.954 356.716 632.915 354.784 623.681 361.635C614.448 368.486 612.516 381.525 619.367 390.758C626.218 399.992 639.257 401.923 648.491 395.072Z" fill="white"/>
<path d="M697.487 319.939C712.702 301.846 739.431 272.321 724.627 298.968C706.123 332.276 740.048 310.07 751.767 298.968C763.487 287.865 791.243 279.846 771.505 308.837C751.767 337.827 808.514 320.556 819 298.968M80.672 319.939C95.886 301.846 122.615 272.321 107.812 298.968C89.307 332.276 123.232 310.07 134.951 298.968C146.671 287.865 174.428 279.846 154.69 308.837C134.951 337.827 191.698 320.556 202.184 298.968M390.313 501.283C405.528 483.19 432.256 453.665 417.453 480.311C398.948 513.619 432.873 491.414 444.593 480.311C456.312 469.209 484.069 461.19 464.331 490.18C444.593 519.171 501.34 501.9 511.826 480.311M360.706 127.493C375.921 109.4 402.65 79.8754 387.846 106.521C369.341 139.829 403.266 117.624 414.986 106.521C426.705 95.4184 454.462 87.4004 434.724 116.39C414.986 145.381 471.733 128.11 482.219 106.521" stroke="#E1E4E5" stroke-width="4"/>
<path d="M132.484 476.288C151.819 476.288 167.493 460.613 167.493 441.279C167.493 421.944 151.819 406.27 132.484 406.27C113.149 406.27 97.475 421.944 97.475 441.279C97.475 460.613 113.149 476.288 132.484 476.288Z" fill="#4F27AA" stroke="white" stroke-width="4"/>
<path d="M781.374 192.551C800.709 192.551 816.383 176.877 816.383 157.542C816.383 138.207 800.709 122.533 781.374 122.533C762.039 122.533 746.365 138.207 746.365 157.542C746.365 176.877 762.039 192.551 781.374 192.551Z" fill="#4F27AA" stroke="white" stroke-width="4"/>
<path d="M132.484 519.465C151.819 519.465 167.493 503.791 167.493 484.456C167.493 465.121 151.819 449.447 132.484 449.447C113.149 449.447 97.475 465.121 97.475 484.456C97.475 503.791 113.149 519.465 132.484 519.465Z" fill="#4F27AA" stroke="white" stroke-width="4"/>
<path d="M781.374 235.729C800.709 235.729 816.383 220.055 816.383 200.72C816.383 181.385 800.709 165.711 781.374 165.711C762.039 165.711 746.365 181.385 746.365 200.72C746.365 220.055 762.039 235.729 781.374 235.729Z" fill="#4F27AA" stroke="white" stroke-width="4"/>
<path fill-rule="evenodd" clip-rule="evenodd" d="M107.123 197.537H111.199C112.185 197.537 112.979 198.339 112.979 199.316V203.392C112.979 203.864 112.791 204.317 112.457 204.65C112.124 204.984 111.671 205.171 111.199 205.171H107.123C106.652 205.17 106.2 204.982 105.867 204.649C105.534 204.315 105.346 203.864 105.344 203.392V199.316C105.344 199.083 105.389 198.851 105.479 198.635C105.568 198.419 105.699 198.223 105.864 198.058C106.029 197.892 106.226 197.761 106.442 197.672C106.658 197.583 106.889 197.537 107.123 197.537ZM121.255 197.537H125.331C126.309 197.537 127.11 198.339 127.11 199.316V203.392C127.11 203.864 126.922 204.317 126.589 204.65C126.255 204.984 125.803 205.171 125.331 205.171H121.255C120.784 205.17 120.332 204.982 119.999 204.649C119.666 204.315 119.478 203.864 119.476 203.392V199.316C119.476 198.339 120.278 197.537 121.255 197.537ZM135.396 197.537H139.472C140.45 197.537 141.251 198.339 141.251 199.316V203.392C141.251 203.864 141.063 204.317 140.73 204.65C140.396 204.984 139.944 205.171 139.472 205.171H135.396C134.925 205.17 134.473 204.982 134.14 204.649C133.807 204.315 133.619 203.864 133.617 203.392V199.316C133.617 199.083 133.662 198.851 133.752 198.635C133.841 198.419 133.972 198.223 134.137 198.058C134.302 197.892 134.499 197.761 134.715 197.672C134.931 197.583 135.162 197.537 135.396 197.537ZM149.528 197.537H153.604C154.582 197.537 155.384 198.339 155.384 199.316V203.392C155.384 203.864 155.196 204.317 154.862 204.65C154.528 204.984 154.076 205.171 153.604 205.171H149.528C149.055 205.171 148.602 204.984 148.267 204.651C147.932 204.317 147.743 203.865 147.741 203.392V199.316C147.746 198.845 147.936 198.394 148.27 198.061C148.605 197.728 149.056 197.54 149.528 197.537ZM163.661 197.537H167.737C168.723 197.537 169.525 198.339 169.525 199.316V203.392C169.525 204.378 168.723 205.171 167.737 205.171H163.661C163.19 205.17 162.738 204.982 162.405 204.649C162.072 204.315 161.884 203.864 161.882 203.392V199.316C161.882 198.339 162.684 197.537 163.661 197.537ZM121.773 212.948H125.849C126.827 212.948 127.628 213.749 127.628 214.727V218.811C127.628 219.788 126.827 220.59 125.849 220.59H121.773C121.301 220.59 120.849 220.403 120.515 220.069C120.182 219.736 119.994 219.283 119.994 218.811V214.735C119.993 214.501 120.038 214.269 120.127 214.052C120.215 213.835 120.346 213.638 120.512 213.472C120.677 213.306 120.874 213.174 121.09 213.084C121.307 212.994 121.539 212.948 121.773 212.948ZM135.905 212.948H139.981C140.959 212.948 141.76 213.749 141.76 214.727V218.811C141.76 219.788 140.959 220.59 139.981 220.59H135.905C135.434 220.589 134.982 220.401 134.649 220.067C134.316 219.734 134.128 219.283 134.126 218.811V214.735C134.125 214.501 134.17 214.269 134.259 214.052C134.347 213.835 134.478 213.638 134.644 213.472C134.809 213.306 135.006 213.174 135.222 213.084C135.439 212.994 135.671 212.948 135.905 212.948ZM150.038 212.948H154.114C155.1 212.948 155.902 213.749 155.902 214.727V218.811C155.902 219.788 155.1 220.59 154.114 220.59H150.038C149.567 220.589 149.115 220.401 148.782 220.067C148.449 219.734 148.261 219.283 148.259 218.811V214.735C148.259 213.749 149.061 212.948 150.038 212.948ZM135.396 180.982H139.472C140.45 180.982 141.251 181.784 141.251 182.761V186.837C141.251 187.309 141.064 187.762 140.73 188.096C140.396 188.43 139.944 188.617 139.472 188.617H135.396C134.925 188.616 134.473 188.427 134.14 188.094C133.806 187.761 133.619 187.309 133.617 186.837V182.761C133.617 182.528 133.662 182.296 133.752 182.08C133.841 181.864 133.972 181.668 134.137 181.503C134.302 181.337 134.499 181.206 134.715 181.117C134.931 181.028 135.162 180.982 135.396 180.982ZM149.528 180.982H153.604C154.582 180.982 155.384 181.784 155.384 182.761V186.837C155.384 187.823 154.582 188.617 153.604 188.617H149.528C149.055 188.617 148.602 188.43 148.267 188.096C147.932 187.763 147.743 187.31 147.741 186.837V182.761C147.746 182.29 147.936 181.839 148.27 181.506C148.605 181.173 149.056 180.985 149.528 180.982ZM746.144 380.115H750.22C751.206 380.115 752 380.916 752 381.894V385.97C752 386.955 751.198 387.749 750.22 387.749H746.144C745.673 387.748 745.221 387.56 744.888 387.226C744.555 386.893 744.367 386.442 744.365 385.97V381.894C744.364 381.661 744.41 381.429 744.499 381.213C744.589 380.997 744.72 380.801 744.885 380.635C745.05 380.47 745.247 380.339 745.463 380.25C745.679 380.161 745.91 380.115 746.144 380.115ZM760.276 380.115H764.352C765.329 380.115 766.131 380.916 766.131 381.894V385.97C766.131 386.442 765.943 386.895 765.61 387.228C765.276 387.562 764.824 387.749 764.352 387.749H760.276C759.805 387.748 759.353 387.56 759.02 387.226C758.687 386.893 758.499 386.442 758.497 385.97V381.894C758.497 380.916 759.299 380.115 760.276 380.115ZM774.417 380.115H778.493C779.471 380.115 780.272 380.916 780.272 381.894V385.97C780.272 386.442 780.084 386.895 779.751 387.228C779.417 387.562 778.965 387.749 778.493 387.749H774.417C773.946 387.748 773.494 387.56 773.161 387.226C772.828 386.893 772.64 386.442 772.638 385.97V381.894C772.637 381.661 772.683 381.429 772.772 381.213C772.862 380.997 772.993 380.801 773.158 380.635C773.323 380.47 773.52 380.339 773.736 380.25C773.952 380.161 774.183 380.115 774.417 380.115ZM788.549 380.115H792.625C793.603 380.115 794.405 380.916 794.405 381.894V385.97C794.405 386.955 793.603 387.749 792.625 387.749H788.549C788.077 387.749 787.623 387.562 787.289 387.229C786.954 386.895 786.764 386.443 786.762 385.97V381.894C786.767 381.423 786.957 380.972 787.291 380.639C787.626 380.306 788.077 380.118 788.549 380.115ZM802.682 380.115H806.758C807.744 380.115 808.546 380.916 808.546 381.894V385.97C808.546 386.955 807.744 387.749 806.758 387.749H802.682C802.211 387.748 801.759 387.56 801.426 387.226C801.093 386.893 800.905 386.442 800.903 385.97V381.894C800.903 380.916 801.705 380.115 802.682 380.115ZM760.794 395.525H764.87C765.848 395.525 766.649 396.327 766.649 397.304V401.388C766.649 402.366 765.848 403.168 764.87 403.168H760.794C760.322 403.168 759.87 402.98 759.536 402.646C759.203 402.313 759.015 401.86 759.015 401.388V397.312C759.014 397.078 759.059 396.846 759.148 396.629C759.237 396.412 759.368 396.215 759.533 396.049C759.698 395.883 759.895 395.751 760.111 395.661C760.328 395.571 760.56 395.525 760.794 395.525ZM774.926 395.525H779.002C779.979 395.525 780.781 396.327 780.781 397.304V401.388C780.781 402.366 779.979 403.168 779.002 403.168H774.926C774.455 403.167 774.003 402.978 773.67 402.645C773.336 402.312 773.149 401.86 773.147 401.388V397.312C773.146 397.078 773.191 396.846 773.28 396.629C773.369 396.412 773.5 396.215 773.665 396.049C773.83 395.883 774.027 395.751 774.243 395.661C774.46 395.571 774.692 395.525 774.926 395.525ZM789.059 395.525H793.135C794.121 395.525 794.923 396.327 794.923 397.304V401.388C794.923 402.366 794.121 403.168 793.135 403.168H789.059C788.588 403.167 788.136 402.978 787.803 402.645C787.469 402.312 787.282 401.86 787.28 401.388V397.312C787.28 396.327 788.082 395.525 789.059 395.525ZM774.417 363.56H778.493C779.471 363.56 780.272 364.362 780.272 365.339V369.415C780.272 369.887 780.084 370.339 779.751 370.673C779.417 371.007 778.965 371.194 778.493 371.194H774.417C773.946 371.193 773.494 371.005 773.161 370.671C772.828 370.338 772.64 369.887 772.638 369.415V365.339C772.638 365.106 772.683 364.874 772.773 364.658C772.862 364.442 772.993 364.246 773.158 364.081C773.323 363.915 773.52 363.784 773.736 363.695C773.952 363.606 774.183 363.56 774.417 363.56ZM788.549 363.56H792.625C793.603 363.56 794.405 364.362 794.405 365.339V369.415C794.405 370.4 793.603 371.194 792.625 371.194H788.549C788.077 371.194 787.623 371.007 787.289 370.674C786.954 370.34 786.764 369.888 786.762 369.415V365.339C786.767 364.868 786.957 364.417 787.291 364.084C787.626 363.751 788.077 363.563 788.549 363.56Z" fill="#E1E4E5"/>
<path d="M258.032 505.903L247.738 516.187L242.737 511.201M486.829 422.011L476.535 432.295L471.534 427.309M712.357 426.369L702.063 436.653L697.062 431.667M727.61 122.397L717.316 132.681L712.315 127.695M527.141 78.8164L516.847 89.1004L511.846 84.1144M191.572 241.153L181.278 251.437L176.277 246.451M183.946 374.073L173.652 384.357L168.651 379.371" stroke="#E1E4E5" stroke-width="5.5" stroke-linecap="round" stroke-linejoin="round"/>
</g>
<defs>
<clipPath id="clip0_1235_21436">
<rect width="900" height="600" fill="white"/>
</clipPath>
</defs>
</svg>
