<svg width="900" height="600" viewBox="0 0 900 600" fill="none" xmlns="http://www.w3.org/2000/svg">
<g clip-path="url(#clip0_1235_21477)">
<path d="M362.616 143.256H603.839C618.635 143.256 630.646 155.267 630.646 170.063V328.357C630.646 343.172 618.635 355.164 603.839 355.164H362.616C347.82 355.183 335.809 343.172 335.809 328.357V170.063C335.809 155.267 347.82 143.256 362.616 143.256V143.256Z" stroke="#E1E4E5" stroke-width="4" stroke-linecap="round" stroke-linejoin="round"/>
<path d="M337.786 161.628L459.969 249.022C473.698 258.84 492.149 258.86 505.898 249.062L628.653 161.51M564.06 394.074H335.539C313.711 394.074 296.03 376.394 296.03 354.565V208.994" stroke="#E1E4E5" stroke-width="4" stroke-linecap="round" stroke-linejoin="round"/>
<path d="M534.799 427.204H306.278C284.449 427.204 266.769 409.524 266.769 387.695V242.123" stroke="#E1E4E5" stroke-width="4" stroke-linecap="round" stroke-linejoin="round"/>
<path d="M645.356 442.612C661.31 423.64 689.337 392.681 673.814 420.621C654.411 455.547 689.984 432.263 702.273 420.621C714.561 408.979 743.667 400.571 722.97 430.97C702.273 461.368 761.776 443.259 772.772 420.621M564.243 535.149C580.197 516.177 608.224 485.218 592.702 513.158C573.298 548.085 608.871 524.801 621.16 513.158C633.449 501.516 662.554 493.108 641.857 523.507C621.16 553.906 680.664 535.796 691.659 513.158M161 509.205C176.954 490.233 204.981 459.274 189.458 487.215C170.055 522.141 205.628 498.857 217.917 487.215C230.205 475.573 259.31 467.165 238.613 497.563C217.917 527.962 277.42 509.852 288.415 487.215M379.205 527.484C395.159 508.512 423.186 477.553 407.663 505.494C388.26 540.42 423.833 517.136 436.121 505.494C448.41 493.852 477.515 485.444 456.818 515.842C436.121 546.241 495.625 528.131 506.62 505.494M65 282.671C80.954 263.699 108.981 232.74 93.458 260.681C74.055 295.607 109.628 272.323 121.917 260.681C134.205 249.039 163.31 240.631 142.613 271.029C121.917 301.428 181.42 283.318 192.415 260.681M65 404.912C80.954 385.939 108.981 354.98 93.458 382.921C74.055 417.847 109.628 394.563 121.917 382.921C134.205 371.279 163.31 362.871 142.613 393.27C121.917 423.668 181.42 405.558 192.415 382.921M693.338 306.662C709.292 287.69 737.319 256.731 721.797 284.672C702.393 319.598 737.966 296.314 750.255 284.672C762.544 273.03 791.649 264.622 770.952 295.02C750.255 325.419 809.759 307.309 820.754 284.672M139.258 176.425C155.212 157.453 183.239 126.494 167.716 154.434C148.313 189.361 183.886 166.076 196.175 154.434C208.464 142.792 237.569 134.384 216.872 164.783C196.175 195.182 255.678 177.072 266.674 154.434M693.338 177.567C709.292 158.595 737.319 127.636 721.797 155.577C702.393 190.503 737.966 167.219 750.255 155.577C762.544 143.935 791.649 135.527 770.952 165.925C750.255 196.324 809.758 178.214 820.754 155.577" stroke="#E1E4E5" stroke-width="4"/>
<path fill-rule="evenodd" clip-rule="evenodd" d="M483.5 313C445.119 313 414 281.881 414 243.5C414 205.119 445.119 174 483.5 174C521.881 174 553 205.119 553 243.5C553 281.881 521.881 313 483.5 313Z" fill="#4F27AA"/>
<path d="M503.467 233.986L478.553 259.358L463.596 244.137" stroke="white" stroke-width="8" stroke-linecap="round" stroke-linejoin="round"/>
<path d="M697.715 126.252C687.149 136.729 667.679 134.236 667.679 134.236C667.679 134.236 665.353 114.757 675.929 104.287C686.495 93.8098 705.955 96.2968 705.955 96.2968C705.955 96.2968 708.281 115.775 697.715 126.252Z" fill="url(#paint0_linear_1235_21477)"/>
<path d="M787.904 385.466C794.616 380.87 795.28 370.158 795.28 370.158C795.28 370.158 785.059 366.906 778.349 371.509C771.637 376.106 770.971 386.812 770.971 386.812C770.971 386.812 781.192 390.063 787.904 385.466Z" fill="url(#paint1_linear_1235_21477)"/>
<path d="M165.523 345.992C176.274 356.935 196.379 354.628 196.379 354.628C196.379 354.628 199.04 334.578 188.278 323.642C177.527 312.699 157.432 315 157.432 315C157.432 315 154.771 335.049 165.523 345.992Z" fill="url(#paint2_linear_1235_21477)"/>
<path d="M663.064 329.472C657.07 329.472 652.211 334.331 652.211 340.325C652.211 346.319 657.07 351.178 663.064 351.178C669.058 351.178 673.917 346.319 673.917 340.325C673.917 334.331 669.058 329.472 663.064 329.472Z" fill="#4F27AA"/>
<path d="M104.985 303.197C98.6758 303.197 93.5611 308.312 93.5611 314.621C93.5611 320.93 98.6758 326.045 104.985 326.045C111.294 326.045 116.409 320.93 116.409 314.621C116.409 308.312 111.294 303.197 104.985 303.197Z" fill="#4F27AA"/>
<path d="M237.119 128.769C231.024 128.769 226.083 123.828 226.083 117.733C226.083 111.638 231.024 106.697 237.119 106.697C243.214 106.697 248.155 111.638 248.155 117.733C248.155 123.828 243.214 128.769 237.119 128.769Z" fill="#4F27AA"/>
<path d="M541 117.623C534.373 117.623 529 112.25 529 105.623C529 98.9956 534.373 93.623 541 93.623C547.627 93.623 553 98.9956 553 105.623C553 112.25 547.627 117.623 541 117.623Z" fill="#4F27AA"/>
<path d="M686.568 210.759C681.836 210.759 678 206.923 678 202.191C678 197.459 681.836 193.623 686.568 193.623C691.3 193.623 695.136 197.459 695.136 202.191C695.136 206.923 691.3 210.759 686.568 210.759Z" fill="#E1E4E5"/>
<path d="M93.55 420.865C88.5081 420.865 84.421 416.778 84.421 411.736C84.421 406.695 88.5081 402.607 93.55 402.607C98.5918 402.607 102.679 406.695 102.679 411.736C102.679 416.778 98.5918 420.865 93.55 420.865Z" fill="white"/>
<path d="M229.978 224.162C225.934 224.162 222.655 220.883 222.655 216.839C222.655 212.794 225.934 209.516 229.978 209.516C234.022 209.516 237.301 212.794 237.301 216.839C237.301 220.883 234.022 224.162 229.978 224.162Z" fill="#E1E4E5"/>
<path d="M624 113.623C620.134 113.623 617 110.489 617 106.623C617 102.757 620.134 99.623 624 99.623C627.866 99.623 631 102.757 631 106.623C631 110.489 627.866 113.623 624 113.623Z" fill="#E1E4E5"/>
<path d="M166.118 292.611C167.163 296.512 164.848 300.52 160.948 301.566C157.048 302.611 153.039 300.296 151.994 296.396C150.949 292.496 153.263 288.487 157.164 287.442C161.064 286.397 165.073 288.711 166.118 292.611Z" fill="white"/>
<path d="M310.067 128.432C304.696 128.432 300.342 124.078 300.342 118.707C300.342 113.336 304.696 108.982 310.067 108.982C315.438 108.982 319.792 113.336 319.792 118.707C319.792 124.078 315.438 128.432 310.067 128.432Z" fill="#E1E4E5"/>
<path d="M753.936 422.241C747.892 425.19 741.106 423.712 738.778 418.94C736.45 414.169 739.463 407.91 745.506 404.962C751.55 402.013 758.337 403.491 760.664 408.263C762.992 413.034 759.98 419.293 753.936 422.241Z" fill="white"/>
<path d="M441.031 74.675C443.054 82.2278 438.572 89.9912 431.019 92.0149C423.466 94.0387 415.703 89.5565 413.679 82.0037C411.656 74.4509 416.138 66.6875 423.691 64.6638C431.243 62.64 439.007 67.1222 441.031 74.675Z" fill="#E1E4E5"/>
<path d="M607.313 393.447H607.508C608.667 409.867 620.879 410.12 620.879 410.12C620.879 410.12 607.413 410.383 607.413 429.356C607.413 410.383 593.947 410.12 593.947 410.12C593.947 410.12 606.154 409.867 607.313 393.447ZM362.532 82.7051H362.673C363.508 94.7211 372.315 94.9051 372.315 94.9051C372.315 94.9051 362.604 95.0981 362.604 108.981C362.604 95.0981 352.893 94.9051 352.893 94.9051C352.893 94.9051 361.696 94.7211 362.532 82.7051ZM167.175 202.661H167.317C168.152 214.676 176.958 214.861 176.958 214.861C176.958 214.861 167.248 215.053 167.248 228.937C167.248 215.053 157.537 214.861 157.537 214.861C157.537 214.861 166.34 214.676 167.175 202.661Z" fill="#E1E4E5"/>
<path d="M774.256 485.09C757.36 481.088 739.49 495.417 739.49 495.417C739.49 495.417 749.026 516.228 765.927 520.218C782.823 524.221 800.688 509.904 800.688 509.904C800.688 509.904 791.152 489.093 774.256 485.09Z" fill="url(#paint3_linear_1235_21477)"/>
<path d="M745.634 228.782C752.346 233.379 753.01 244.091 753.01 244.091C753.01 244.091 742.789 247.342 736.079 242.74C729.367 238.143 728.701 227.437 728.701 227.437C728.701 227.437 738.922 224.185 745.634 228.782Z" fill="url(#paint4_linear_1235_21477)"/>
<path d="M212.039 443.092C217.544 437.488 227.839 438.67 227.839 438.67C227.839 438.67 229.201 448.936 223.691 454.536C218.185 460.139 207.896 458.961 207.896 458.961C207.896 458.961 206.534 448.695 212.039 443.092Z" fill="url(#paint5_linear_1235_21477)"/>
<path d="M821.862 249.501C814.606 249.501 808.724 243.619 808.724 236.363C808.724 229.107 814.606 223.225 821.862 223.225C829.118 223.225 835 229.107 835 236.363C835 243.619 829.118 249.501 821.862 249.501Z" fill="#4F27AA"/>
<path d="M311.23 535.441C304.605 535.441 299.235 530.071 299.235 523.446C299.235 516.822 304.605 511.451 311.23 511.451C317.855 511.451 323.225 516.822 323.225 523.446C323.225 530.071 317.855 535.441 311.23 535.441Z" fill="#4F27AA"/>
<path d="M230 382.623C223.925 382.623 219 387.548 219 393.623C219 399.698 223.925 404.623 230 404.623C236.075 404.623 241 399.698 241 393.623C241 387.548 236.075 382.623 230 382.623Z" fill="#4F27AA"/>
<path d="M563.853 450.622C557.859 450.622 553 455.481 553 461.475C553 467.469 557.859 472.328 563.853 472.328C569.847 472.328 574.706 467.469 574.706 461.475C574.706 455.481 569.847 450.622 563.853 450.622Z" fill="#4F27AA"/>
<path d="M703.049 362.464C698.317 362.464 694.481 366.3 694.481 371.032C694.481 375.764 698.317 379.6 703.049 379.6C707.781 379.6 711.617 375.764 711.617 371.032C711.617 366.3 707.781 362.464 703.049 362.464Z" fill="#E1E4E5"/>
<path d="M102.69 194.525C97.6482 194.525 93.561 198.612 93.561 203.654C93.561 208.696 97.6482 212.783 102.69 212.783C107.732 212.783 111.819 208.696 111.819 203.654C111.819 198.612 107.732 194.525 102.69 194.525Z" fill="white"/>
<path d="M224.322 296.624C220.278 296.624 216.999 299.902 216.999 303.947C216.999 307.991 220.278 311.27 224.322 311.27C228.366 311.27 231.645 307.991 231.645 303.947C231.645 299.902 228.366 296.624 224.322 296.624Z" fill="#E1E4E5"/>
<path d="M682.809 467.705C676.636 467.705 671.632 472.709 671.632 478.882C671.632 485.054 676.636 490.059 682.809 490.059C688.982 490.059 693.986 485.054 693.986 478.882C693.986 472.709 688.982 467.705 682.809 467.705Z" fill="#E1E4E5"/>
<path d="M331.809 470.155C326.438 470.155 322.084 474.509 322.084 479.88C322.084 485.251 326.438 489.605 331.809 489.605C337.18 489.605 341.534 485.251 341.534 479.88C341.534 474.509 337.18 470.155 331.809 470.155Z" fill="#E1E4E5"/>
<path d="M763.084 193.148C757.04 190.199 750.254 191.677 747.926 196.448C745.598 201.22 748.61 207.478 754.654 210.427C760.698 213.375 767.484 211.898 769.812 207.126C772.14 202.354 769.128 196.096 763.084 193.148Z" fill="white"/>
<path d="M512.131 475.015C513.574 469.63 510.379 464.096 504.994 462.653C499.61 461.21 494.076 464.406 492.633 469.79C491.19 475.174 494.385 480.709 499.77 482.151C505.154 483.594 510.688 480.399 512.131 475.015Z" fill="#E1E4E5"/>
<path d="M744.404 355.098H744.6C745.759 338.678 757.971 338.425 757.971 338.425C757.971 338.425 744.505 338.162 744.505 319.189C744.505 338.162 731.039 338.425 731.039 338.425C731.039 338.425 743.245 338.678 744.404 355.098ZM364.852 534.16H364.993C365.829 522.144 374.635 521.959 374.635 521.959C374.635 521.959 364.925 521.767 364.925 507.884C364.925 521.767 355.214 521.959 355.214 521.959C355.214 521.959 364.017 522.144 364.852 534.16Z" fill="#E1E4E5"/>
</g>
<defs>
<linearGradient id="paint0_linear_1235_21477" x1="655.637" y1="161.96" x2="732.567" y2="44.7728" gradientUnits="userSpaceOnUse">
<stop stop-color="white"/>
<stop offset="1" stop-color="#EEEEEE"/>
</linearGradient>
<linearGradient id="paint1_linear_1235_21477" x1="811.405" y1="366.542" x2="740.567" y2="395.805" gradientUnits="userSpaceOnUse">
<stop stop-color="white"/>
<stop offset="1" stop-color="#EEEEEE"/>
</linearGradient>
<linearGradient id="paint2_linear_1235_21477" x1="208.419" y1="383.371" x2="130.692" y2="261.527" gradientUnits="userSpaceOnUse">
<stop stop-color="white"/>
<stop offset="1" stop-color="#EEEEEE"/>
</linearGradient>
<linearGradient id="paint3_linear_1235_21477" x1="710.63" y1="475.138" x2="858.537" y2="545.015" gradientUnits="userSpaceOnUse">
<stop stop-color="white"/>
<stop offset="1" stop-color="#EEEEEE"/>
</linearGradient>
<linearGradient id="paint4_linear_1235_21477" x1="769.135" y1="247.707" x2="698.297" y2="218.444" gradientUnits="userSpaceOnUse">
<stop stop-color="white"/>
<stop offset="1" stop-color="#EEEEEE"/>
</linearGradient>
<linearGradient id="paint5_linear_1235_21477" x1="234.004" y1="423.952" x2="194.204" y2="486.341" gradientUnits="userSpaceOnUse">
<stop stop-color="white"/>
<stop offset="1" stop-color="#EEEEEE"/>
</linearGradient>
<clipPath id="clip0_1235_21477">
<rect width="900" height="600" fill="white"/>
</clipPath>
</defs>
</svg>
