<svg width="900" height="600" viewBox="0 0 900 600" fill="none" xmlns="http://www.w3.org/2000/svg">
<g clip-path="url(#clip0_1235_21516)">
<path fill-rule="evenodd" clip-rule="evenodd" d="M141 328.926C141 283.123 178.123 246 223.926 246C269.729 246 306.852 283.123 306.852 328.926M306.852 328.926C306.852 374.729 269.729 411.852 223.926 411.852C178.123 411.852 141 374.729 141 328.926" fill="#4F27AA"/>
<path d="M196.078 305.41V322.738M251.776 305.41V322.738M252.395 351.205C252.395 351.205 241.716 361.106 223.928 361.106C206.132 361.106 195.461 351.205 195.461 351.205" stroke="white" stroke-width="11.167" stroke-linecap="round" stroke-linejoin="round"/>
<path fill-rule="evenodd" clip-rule="evenodd" d="M594 413.926C594 368.123 631.123 331 676.926 331C722.729 331 759.852 368.123 759.852 413.926M759.852 413.926C759.852 459.729 722.729 496.852 676.926 496.852C631.123 496.852 594 459.729 594 413.926" fill="#4F27AA"/>
<path d="M649.078 390.41V407.738M704.776 390.41V407.738M705.395 436.205C705.395 436.205 694.716 446.106 676.928 446.106C659.132 446.106 648.461 436.205 648.461 436.205" stroke="white" stroke-width="11.167" stroke-linecap="round" stroke-linejoin="round"/>
<path fill-rule="evenodd" clip-rule="evenodd" d="M539 162.926C539 117.123 576.123 80 621.926 80C667.729 80 704.852 117.123 704.852 162.926M704.852 162.926C704.852 208.729 667.729 245.852 621.926 245.852C576.123 245.852 539 208.729 539 162.926" fill="#4F27AA"/>
<path d="M594.078 139.41V156.738M649.776 139.41V156.738M650.395 185.205C650.395 185.205 639.716 195.106 621.928 195.106C604.132 195.106 593.461 185.205 593.461 185.205" stroke="white" stroke-width="11.167" stroke-linecap="round" stroke-linejoin="round"/>
<path d="M320.624 356.081V377.797L301 401.162H383.429C408.344 401.162 428.554 380.972 428.554 356.081C428.554 331.19 408.344 311 383.429 311H365.749C340.818 311 320.624 331.19 320.624 356.081Z" fill="#4F27AA"/>
<path fill-rule="evenodd" clip-rule="evenodd" d="M387.637 334.439C397.432 334.439 404 343.567 404 352.068C404 369.323 376.732 383.451 376.235 383.451C375.739 383.451 348.471 369.323 348.471 352.068C348.471 343.567 355.039 334.439 364.833 334.439C370.433 334.439 374.11 337.211 376.235 339.68C378.361 337.211 382.038 334.439 387.637 334.439Z" fill="white"/>
<path d="M585.93 473.081V494.797L605.554 518.162H523.125C498.21 518.162 478 497.972 478 473.081C478 448.19 498.21 428 523.125 428H540.805C565.736 428 585.93 448.19 585.93 473.081Z" fill="#4F27AA"/>
<path fill-rule="evenodd" clip-rule="evenodd" d="M519.361 452.396C509.948 452.396 503.636 461.168 503.636 469.337C503.636 485.919 529.841 499.496 530.318 499.496C530.795 499.496 557 485.919 557 469.337C557 461.168 550.688 452.396 541.276 452.396C535.895 452.396 532.361 455.06 530.318 457.432C528.276 455.06 524.742 452.396 519.361 452.396Z" fill="white"/>
<path d="M521.93 218.081V239.797L541.554 263.162H459.125C434.21 263.162 414 242.972 414 218.081C414 193.19 434.21 173 459.125 173H476.805C501.736 173 521.93 193.19 521.93 218.081Z" fill="#4F27AA"/>
<path fill-rule="evenodd" clip-rule="evenodd" d="M454.95 196.514C445.185 196.514 438.636 205.615 438.636 214.09C438.636 231.294 465.823 245.38 466.318 245.38C466.813 245.38 494 231.294 494 214.09C494 205.615 487.452 196.514 477.686 196.514C472.104 196.514 468.437 199.278 466.318 201.74C464.199 199.278 460.533 196.514 454.95 196.514Z" fill="white"/>
<path d="M297.31 429.567C303.921 428 310.914 433.607 310.914 433.607C310.914 433.607 307.182 441.75 300.569 443.312C293.958 444.878 286.967 439.276 286.967 439.276C286.967 439.276 290.699 431.133 297.31 429.567Z" fill="url(#paint0_linear_1235_21516)"/>
<path d="M336.729 248.671C325.284 240.788 307.8 246.298 307.8 246.298C307.8 246.298 308.882 264.587 320.335 272.463C331.779 280.346 349.256 274.843 349.256 274.843C349.256 274.843 348.173 256.554 336.729 248.671Z" fill="url(#paint1_linear_1235_21516)"/>
<path d="M494.381 322.648C484.574 312.666 466.234 314.771 466.234 314.771C466.234 314.771 463.807 333.059 473.624 343.035C483.431 353.017 501.761 350.918 501.761 350.918C501.761 350.918 504.188 332.63 494.381 322.648Z" fill="url(#paint2_linear_1235_21516)"/>
<path d="M370.685 233.218C377.691 233.218 383.37 227.797 383.37 221.109C383.37 214.421 377.691 209 370.685 209C363.679 209 358 214.421 358 221.109C358 227.797 363.679 233.218 370.685 233.218Z" fill="#4F27AA"/>
<path d="M547.685 331.37C554.691 331.37 560.37 325.691 560.37 318.685C560.37 311.679 554.691 306 547.685 306C540.679 306 535 311.679 535 318.685C535 325.691 540.679 331.37 547.685 331.37Z" fill="#4F27AA"/>
<path d="M318.532 473.001C324.901 473.001 330.064 478.422 330.064 485.11C330.064 491.797 324.901 497.219 318.532 497.219C312.163 497.219 307 491.797 307 485.11C307 478.422 312.163 473.001 318.532 473.001Z" fill="#4F27AA"/>
<path d="M724.802 261C730.215 261 734.604 265.388 734.604 270.802C734.604 276.215 730.215 280.604 724.802 280.604C719.389 280.604 715 276.215 715 270.802C715 265.388 719.389 261 724.802 261Z" fill="#4F27AA"/>
<path d="M384.652 161.305C387.89 161.305 390.514 163.93 390.514 167.167C390.514 170.405 387.89 173.029 384.652 173.029C381.415 173.029 378.79 170.405 378.79 167.167C378.79 163.93 381.415 161.305 384.652 161.305Z" fill="white"/>
<path d="M492.166 127C495.571 127 498.332 129.761 498.332 133.166C498.332 136.571 495.571 139.332 492.166 139.332C488.761 139.332 486 136.571 486 133.166C486 129.761 488.761 127 492.166 127Z" fill="#E1E4E5"/>
<path d="M464.166 388.332C471.806 388.332 478 394.526 478 402.166C478 409.806 471.806 416 464.166 416C456.526 416 450.332 409.806 450.332 402.166C450.332 394.526 456.526 388.332 464.166 388.332Z" fill="#E1E4E5"/>
<path d="M360 425C364.418 425 368 428.582 368 433C368 437.418 364.418 441 360 441C355.582 441 352 437.418 352 433C352 428.582 355.582 425 360 425Z" fill="#E1E4E5"/>
<path d="M390.638 509.999C393.199 509.999 395.275 512.075 395.275 514.636C395.275 517.197 393.199 519.273 390.638 519.273C388.077 519.273 386.001 517.197 386.001 514.636C386.001 512.075 388.077 509.999 390.638 509.999Z" fill="white"/>
<path d="M578 271C578 265.477 582.477 261 588 261C593.523 261 598 265.477 598 271C598 276.523 593.523 281 588 281C582.477 281 578 276.523 578 271Z" fill="#E1E4E5"/>
<path d="M656.343 295C662.608 295 667.686 300.078 667.686 306.343C667.686 312.607 662.608 317.686 656.343 317.686C650.078 317.686 645 312.607 645 306.343C645 300.078 650.078 295 656.343 295Z" fill="#E1E4E5"/>
<path d="M276.5 209C281.194 209 285 212.004 285 215.711C285 219.417 281.194 222.422 276.5 222.422C271.806 222.422 268 219.417 268 215.711C268 212.004 271.806 209 276.5 209Z" fill="#E1E4E5"/>
<path d="M351.634 465.367C350.732 461.999 352.73 458.538 356.098 457.635C359.466 456.733 362.928 458.732 363.83 462.099C364.732 465.467 362.734 468.929 359.366 469.831C355.998 470.734 352.537 468.735 351.634 465.367Z" fill="white"/>
<path d="M405.462 484.281H405.254C404.018 466.776 391 466.507 391 466.507C391 466.507 405.355 466.226 405.355 446C405.355 466.226 419.711 466.507 419.711 466.507C419.711 466.507 406.698 466.776 405.462 484.281ZM563.037 407.599H562.82C561.536 389.034 548 388.748 548 388.748C548 388.748 562.926 388.451 562.926 367C562.926 388.451 577.852 388.748 577.852 388.748C577.852 388.748 564.322 389.034 563.037 407.599Z" fill="#E1E4E5"/>
</g>
<defs>
<linearGradient id="paint0_linear_1235_21516" x1="322.206" y1="425.672" x2="264.331" y2="453.014" gradientUnits="userSpaceOnUse">
<stop stop-color="white"/>
<stop offset="1" stop-color="#EEEEEE"/>
</linearGradient>
<linearGradient id="paint1_linear_1235_21516" x1="292.147" y1="222.806" x2="382.237" y2="317.802" gradientUnits="userSpaceOnUse">
<stop stop-color="white"/>
<stop offset="1" stop-color="#EEEEEE"/>
</linearGradient>
<linearGradient id="paint2_linear_1235_21516" x1="455.252" y1="288.552" x2="526.153" y2="399.696" gradientUnits="userSpaceOnUse">
<stop stop-color="white"/>
<stop offset="1" stop-color="#EEEEEE"/>
</linearGradient>
<clipPath id="clip0_1235_21516">
<rect width="900" height="600" fill="white"/>
</clipPath>
</defs>
</svg>
