<svg width="900" height="600" viewBox="0 0 900 600" fill="none" xmlns="http://www.w3.org/2000/svg">
<g clip-path="url(#clip0_1235_21547)">
<path d="M745.229 97H154C138.536 97 126 109.536 126 125V475.909C126 491.373 138.536 503.909 154 503.909H745.229C760.693 503.909 773.229 491.373 773.229 475.909V125C773.229 109.536 760.693 97 745.229 97Z" fill="white" stroke="#E1E4E5" stroke-width="4"/>
<path fill-rule="evenodd" clip-rule="evenodd" d="M263.618 228.194C262.917 228.572 262.124 228.744 261.33 228.692C260.535 228.639 259.772 228.364 259.127 227.897C258.48 227.429 257.978 226.789 257.676 226.05C257.375 225.311 257.286 224.502 257.421 223.715L260.495 205.858L247.478 193.206C246.914 192.648 246.516 191.944 246.329 191.173C246.142 190.402 246.173 189.594 246.419 188.839C246.663 188.085 247.114 187.415 247.719 186.903C248.324 186.392 249.06 186.06 249.844 185.944L267.839 183.338L275.877 167.077C276.232 166.364 276.778 165.764 277.455 165.344C278.131 164.925 278.912 164.702 279.708 164.701C281.33 164.701 282.813 165.621 283.54 167.077L291.578 183.338L309.573 185.944C310.357 186.06 311.093 186.392 311.698 186.904C312.303 187.415 312.753 188.085 312.998 188.839C313.244 189.594 313.275 190.402 313.088 191.173C312.9 191.944 312.502 192.648 311.938 193.206L298.915 205.851L301.988 223.708C302.124 224.495 302.037 225.305 301.736 226.045C301.435 226.786 300.933 227.427 300.287 227.896C299.641 228.364 298.877 228.64 298.082 228.692C297.287 228.745 296.492 228.572 295.791 228.194L279.701 219.772L263.618 228.194ZM348.618 228.194C347.917 228.572 347.124 228.744 346.33 228.692C345.535 228.639 344.772 228.364 344.127 227.897C343.48 227.429 342.978 226.789 342.676 226.05C342.375 225.311 342.286 224.502 342.421 223.715L345.495 205.858L332.478 193.206C331.914 192.648 331.516 191.944 331.329 191.173C331.142 190.402 331.173 189.594 331.419 188.839C331.663 188.085 332.114 187.415 332.719 186.903C333.324 186.392 334.06 186.06 334.844 185.944L352.839 183.338L360.877 167.077C361.232 166.364 361.778 165.764 362.455 165.344C363.131 164.925 363.912 164.702 364.708 164.701C366.33 164.701 367.813 165.621 368.54 167.077L376.578 183.338L394.573 185.944C395.357 186.06 396.093 186.392 396.698 186.904C397.303 187.415 397.753 188.085 397.998 188.839C398.244 189.594 398.275 190.402 398.088 191.173C397.9 191.944 397.502 192.648 396.938 193.206L383.915 205.851L386.988 223.708C387.124 224.495 387.037 225.305 386.736 226.045C386.435 226.786 385.933 227.427 385.287 227.896C384.641 228.364 383.877 228.64 383.082 228.692C382.287 228.745 381.492 228.572 380.791 228.194L364.701 219.772L348.618 228.194ZM433.618 228.194C432.917 228.572 432.124 228.744 431.33 228.692C430.535 228.639 429.772 228.364 429.127 227.897C428.48 227.429 427.978 226.789 427.676 226.05C427.375 225.311 427.286 224.502 427.421 223.715L430.495 205.858L417.478 193.206C416.914 192.648 416.516 191.944 416.329 191.173C416.142 190.402 416.173 189.594 416.419 188.839C416.663 188.085 417.114 187.415 417.719 186.903C418.324 186.392 419.06 186.06 419.844 185.944L437.839 183.338L445.877 167.077C446.232 166.364 446.778 165.764 447.455 165.344C448.131 164.925 448.912 164.702 449.708 164.701C451.33 164.701 452.813 165.621 453.54 167.077L461.578 183.338L479.573 185.944C480.357 186.06 481.093 186.392 481.698 186.904C482.303 187.415 482.753 188.085 482.998 188.839C483.244 189.594 483.275 190.402 483.088 191.173C482.9 191.944 482.502 192.648 481.938 193.206L468.915 205.851L471.988 223.708C472.124 224.495 472.037 225.305 471.736 226.045C471.435 226.786 470.933 227.427 470.287 227.896C469.641 228.364 468.877 228.64 468.082 228.692C467.287 228.745 466.492 228.572 465.791 228.194L449.701 219.772L433.618 228.194ZM518.618 228.194C517.917 228.572 517.124 228.744 516.33 228.692C515.535 228.639 514.772 228.364 514.127 227.897C513.48 227.429 512.978 226.789 512.676 226.05C512.375 225.311 512.286 224.502 512.421 223.715L515.495 205.858L502.478 193.206C501.914 192.648 501.516 191.944 501.329 191.173C501.142 190.402 501.173 189.594 501.419 188.839C501.663 188.085 502.114 187.415 502.719 186.903C503.324 186.392 504.06 186.06 504.844 185.944L522.839 183.338L530.877 167.077C531.232 166.364 531.778 165.764 532.455 165.344C533.131 164.925 533.912 164.702 534.708 164.701C536.33 164.701 537.813 165.621 538.54 167.077L546.578 183.338L564.573 185.944C565.357 186.06 566.093 186.392 566.698 186.904C567.303 187.415 567.753 188.085 567.998 188.839C568.244 189.594 568.275 190.402 568.088 191.173C567.901 191.944 567.502 192.648 566.938 193.206L553.915 205.851L556.988 223.708C557.124 224.495 557.037 225.305 556.736 226.045C556.435 226.786 555.933 227.427 555.287 227.896C554.641 228.364 553.877 228.64 553.082 228.692C552.287 228.745 551.493 228.572 550.791 228.194L534.701 219.772L518.618 228.194ZM603.618 228.194C602.917 228.572 602.124 228.744 601.33 228.692C600.535 228.639 599.772 228.364 599.127 227.897C598.48 227.429 597.978 226.789 597.676 226.05C597.375 225.311 597.286 224.502 597.421 223.715L600.495 205.858L587.478 193.206C586.914 192.648 586.516 191.944 586.329 191.173C586.142 190.402 586.173 189.594 586.419 188.839C586.663 188.085 587.114 187.415 587.719 186.903C588.324 186.392 589.06 186.06 589.844 185.944L607.839 183.338L615.877 167.077C616.232 166.364 616.778 165.764 617.455 165.344C618.131 164.925 618.912 164.702 619.708 164.701C621.33 164.701 622.813 165.621 623.54 167.077L631.578 183.338L649.573 185.944C650.357 186.06 651.093 186.392 651.698 186.904C652.303 187.415 652.753 188.085 652.998 188.839C653.244 189.594 653.275 190.402 653.088 191.173C652.901 191.944 652.502 192.648 651.938 193.206L638.915 205.851L641.988 223.708C642.124 224.495 642.037 225.305 641.736 226.045C641.435 226.786 640.933 227.427 640.287 227.896C639.641 228.364 638.877 228.64 638.082 228.692C637.287 228.745 636.493 228.572 635.791 228.194L619.701 219.772L603.618 228.194Z" fill="#4F27AA"/>
<path d="M187.995 137.337C187.995 131.564 183.316 126.885 177.543 126.885C171.771 126.885 167.091 131.564 167.091 137.337C167.091 143.109 171.771 147.789 177.543 147.789C183.316 147.789 187.995 143.109 187.995 137.337Z" fill="white" stroke="#E1E4E5" stroke-width="4"/>
<path d="M171.208 373.701C174.522 373.701 177.208 376.387 177.208 379.701C177.208 383.015 174.522 385.701 171.208 385.701C167.894 385.701 165.208 383.015 165.208 379.701C165.208 376.387 167.894 373.701 171.208 373.701Z" fill="#4F27AA"/>
<path d="M671.265 344.946C667.622 344.946 664.669 341.993 664.669 338.35C664.669 334.707 667.622 331.754 671.265 331.754C674.908 331.754 677.861 334.707 677.861 338.35C677.861 341.993 674.908 344.946 671.265 344.946Z" fill="#4F27AA"/>
<path d="M483.208 381.701C485.969 381.701 488.208 379.463 488.208 376.701C488.208 373.94 485.969 371.701 483.208 371.701C480.447 371.701 478.208 373.94 478.208 376.701C478.208 379.463 480.447 381.701 483.208 381.701Z" fill="#4F27AA"/>
<path d="M490.708 460.057C487.67 460.057 485.208 462.519 485.208 465.557C485.208 468.594 487.67 471.057 490.708 471.057C493.746 471.057 496.208 468.594 496.208 465.557C496.208 462.519 493.746 460.057 490.708 460.057Z" fill="#4F27AA"/>
<path d="M205.208 407.701C201.342 407.701 198.208 404.567 198.208 400.701C198.208 396.835 201.342 393.701 205.208 393.701C209.074 393.701 212.208 396.835 212.208 400.701C212.208 404.567 209.074 407.701 205.208 407.701Z" fill="#E1E4E5"/>
<path d="M739.151 124.209L720.431 142.929C719.749 143.611 719.749 144.717 720.43 145.398C721.112 146.08 722.217 146.08 722.899 145.398L741.62 126.677C742.302 125.995 742.302 124.89 741.62 124.208C740.939 123.527 739.833 123.527 739.151 124.209Z" fill="#E1E4E5"/>
<path d="M737.319 137.613L731.921 143.011C731.239 143.693 731.239 144.799 731.92 145.48C732.602 146.162 733.707 146.162 734.389 145.48L739.788 140.081C740.47 139.399 740.47 138.294 739.788 137.612C739.107 136.931 738.001 136.931 737.319 137.613Z" fill="#E1E4E5"/>
<path d="M161.778 444.069L145.028 460.819C144.418 461.429 144.418 462.418 145.028 463.028C145.638 463.638 146.627 463.638 147.237 463.028L163.987 446.278C164.597 445.668 164.597 444.679 163.987 444.069C163.377 443.459 162.388 443.459 161.778 444.069Z" fill="#E1E4E5"/>
<path d="M160.138 456.063L155.307 460.894C154.697 461.504 154.697 462.493 155.307 463.103C155.917 463.713 156.906 463.713 157.516 463.103L162.347 458.272C162.957 457.662 162.957 456.673 162.347 456.063C161.737 455.453 160.748 455.453 160.138 456.063Z" fill="#E1E4E5"/>
<path d="M174.498 216.695L191.127 200.065C191.733 199.46 191.733 198.478 191.128 197.872C190.522 197.267 189.54 197.267 188.935 197.873L172.306 214.502C171.7 215.107 171.7 216.089 172.305 216.695C172.911 217.3 173.893 217.3 174.498 216.695Z" fill="#E1E4E5"/>
<path d="M176.126 204.787L180.921 199.991C181.527 199.386 181.527 198.404 180.922 197.798C180.316 197.193 179.334 197.193 178.729 197.799L173.933 202.594C173.327 203.2 173.327 204.182 173.933 204.787C174.538 205.393 175.52 205.393 176.126 204.787Z" fill="#E1E4E5"/>
<path d="M723.705 466.635L746.501 443.839C747.331 443.009 747.331 441.663 746.501 440.833C745.671 440.003 744.325 440.003 743.495 440.833L720.699 463.629C719.869 464.459 719.869 465.805 720.699 466.635C721.529 467.465 722.875 467.465 723.705 466.635Z" fill="#E1E4E5"/>
<path d="M725.937 450.314L732.511 443.74C733.341 442.909 733.341 441.563 732.511 440.733C731.681 439.903 730.335 439.903 729.505 440.734L722.931 447.308C722.101 448.138 722.101 449.484 722.931 450.314C723.761 451.144 725.107 451.144 725.937 450.314Z" fill="#E1E4E5"/>
<path fill-rule="evenodd" clip-rule="evenodd" d="M678.794 267.458H682.427C683.306 267.458 684.013 268.173 684.013 269.044V272.677C684.013 273.555 683.299 274.263 682.427 274.263H678.794C678.374 274.262 677.971 274.094 677.674 273.797C677.377 273.5 677.21 273.097 677.208 272.677V269.044C677.208 268.836 677.248 268.629 677.328 268.437C677.408 268.244 677.524 268.069 677.672 267.922C677.819 267.774 677.994 267.658 678.187 267.578C678.379 267.499 678.586 267.458 678.794 267.458ZM691.391 267.458H695.024C695.895 267.458 696.61 268.173 696.61 269.044V272.677C696.61 273.555 695.895 274.263 695.024 274.263H691.391C690.971 274.262 690.568 274.094 690.271 273.797C689.974 273.5 689.807 273.097 689.805 272.677V269.044C689.805 268.173 690.52 267.458 691.391 267.458ZM703.996 267.458H707.629C708.5 267.458 709.215 268.173 709.215 269.044V272.677C709.215 273.555 708.5 274.263 707.629 274.263H703.996C703.576 274.262 703.173 274.094 702.876 273.797C702.579 273.5 702.412 273.097 702.41 272.677V269.044C702.41 268.836 702.45 268.629 702.53 268.437C702.609 268.244 702.726 268.069 702.874 267.922C703.021 267.774 703.196 267.658 703.389 267.578C703.581 267.499 703.788 267.458 703.996 267.458ZM716.592 267.458H720.225C721.096 267.458 721.811 268.173 721.811 269.044V272.677C721.811 273.555 721.096 274.263 720.225 274.263H716.592C716.171 274.263 715.767 274.096 715.468 273.799C715.17 273.502 715.001 273.098 714.999 272.677V269.044C715.004 268.624 715.173 268.222 715.471 267.925C715.769 267.628 716.172 267.461 716.592 267.458ZM729.19 267.458H732.823C733.702 267.458 734.416 268.173 734.416 269.044V272.677C734.416 273.555 733.702 274.263 732.823 274.263H729.19C728.77 274.262 728.367 274.094 728.07 273.797C727.773 273.5 727.606 273.097 727.604 272.677V269.044C727.604 268.173 728.319 267.458 729.19 267.458ZM691.853 281.194H695.486C696.357 281.194 697.072 281.909 697.072 282.78V286.42C697.072 287.292 696.357 288.006 695.486 288.006H691.853C691.432 288.006 691.029 287.839 690.732 287.541C690.434 287.244 690.267 286.841 690.267 286.42V282.787C690.266 282.578 690.306 282.371 690.385 282.178C690.464 281.984 690.581 281.809 690.728 281.661C690.876 281.513 691.051 281.395 691.244 281.315C691.437 281.235 691.644 281.194 691.853 281.194ZM704.449 281.194H708.083C708.954 281.194 709.668 281.909 709.668 282.78V286.42C709.667 286.84 709.5 287.243 709.203 287.54C708.906 287.837 708.503 288.005 708.083 288.006H704.449C704.029 288.005 703.626 287.837 703.329 287.54C703.032 287.243 702.865 286.84 702.864 286.42V282.787C702.863 282.578 702.903 282.371 702.982 282.178C703.061 281.985 703.178 281.809 703.325 281.661C703.472 281.513 703.647 281.395 703.84 281.315C704.033 281.235 704.24 281.194 704.449 281.194ZM717.047 281.194H720.68C721.559 281.194 722.273 281.909 722.273 282.78V286.42C722.273 287.292 721.559 288.006 720.68 288.006H717.047C716.627 288.005 716.224 287.837 715.927 287.54C715.63 287.243 715.463 286.84 715.461 286.42V282.787C715.461 281.909 716.176 281.194 717.047 281.194ZM703.996 252.701H707.629C708.5 252.701 709.215 253.416 709.215 254.287V257.92C709.215 258.799 708.5 259.506 707.629 259.506H703.996C703.576 259.505 703.173 259.337 702.876 259.04C702.579 258.743 702.412 258.34 702.41 257.92V254.287C702.41 254.079 702.45 253.872 702.53 253.68C702.609 253.487 702.726 253.312 702.874 253.165C703.021 253.017 703.196 252.901 703.389 252.821C703.581 252.742 703.788 252.701 703.996 252.701ZM716.592 252.701H720.225C721.096 252.701 721.811 253.416 721.811 254.287V257.92C721.811 258.799 721.096 259.506 720.225 259.506H716.592C716.171 259.506 715.767 259.339 715.468 259.042C715.169 258.745 715.001 258.341 714.999 257.92V254.287C715.004 253.867 715.173 253.465 715.471 253.168C715.769 252.871 716.172 252.704 716.592 252.701ZM205.179 463.729H207.401C207.939 463.729 208.372 464.167 208.372 464.7V466.922C208.372 467.18 208.269 467.426 208.087 467.608C207.905 467.791 207.658 467.893 207.401 467.893H205.179C204.922 467.892 204.675 467.789 204.494 467.608C204.312 467.426 204.209 467.179 204.208 466.922V464.7C204.208 464.573 204.233 464.446 204.282 464.328C204.33 464.211 204.402 464.103 204.492 464.013C204.582 463.923 204.689 463.852 204.807 463.803C204.925 463.754 205.051 463.729 205.179 463.729ZM212.885 463.729H215.108C215.641 463.729 216.078 464.167 216.078 464.7V466.922C216.078 467.18 215.976 467.426 215.794 467.608C215.612 467.79 215.365 467.893 215.108 467.893H212.885C212.628 467.892 212.382 467.789 212.2 467.608C212.018 467.426 211.916 467.179 211.915 466.922V464.7C211.915 464.167 212.352 463.729 212.885 463.729ZM220.597 463.729H222.82C223.353 463.729 223.79 464.167 223.79 464.7V466.922C223.79 467.18 223.688 467.426 223.506 467.608C223.324 467.79 223.077 467.893 222.82 467.893H220.597C220.34 467.892 220.094 467.789 219.912 467.608C219.73 467.426 219.628 467.179 219.627 466.922V464.7C219.627 464.573 219.651 464.446 219.7 464.328C219.749 464.21 219.82 464.103 219.91 464.013C220 463.923 220.107 463.851 220.225 463.803C220.343 463.754 220.469 463.729 220.597 463.729ZM228.303 463.729H230.526C231.059 463.729 231.496 464.167 231.496 464.7V466.922C231.496 467.18 231.394 467.426 231.212 467.608C231.03 467.79 230.783 467.893 230.526 467.893H228.303C228.045 467.893 227.798 467.791 227.616 467.609C227.433 467.427 227.33 467.18 227.329 466.922V464.7C227.332 464.443 227.435 464.197 227.617 464.015C227.8 463.834 228.046 463.731 228.303 463.729ZM236.011 463.729H238.234C238.771 463.729 239.208 464.167 239.208 464.7V466.922C239.208 467.05 239.183 467.176 239.134 467.294C239.085 467.412 239.013 467.519 238.922 467.61C238.832 467.7 238.724 467.771 238.606 467.82C238.488 467.869 238.362 467.893 238.234 467.893H236.011C235.754 467.892 235.508 467.789 235.326 467.608C235.144 467.426 235.042 467.179 235.041 466.922V464.7C235.041 464.167 235.478 463.729 236.011 463.729ZM213.168 472.133H215.391C215.924 472.133 216.361 472.571 216.361 473.103V475.331C216.361 475.864 215.924 476.301 215.391 476.301H213.168C212.911 476.301 212.664 476.199 212.482 476.017C212.3 475.835 212.198 475.588 212.198 475.331V473.108C212.197 472.98 212.222 472.854 212.27 472.735C212.319 472.617 212.39 472.509 212.48 472.419C212.57 472.328 212.677 472.256 212.796 472.207C212.914 472.158 213.04 472.133 213.168 472.133ZM220.874 472.133H223.097C223.63 472.133 224.067 472.571 224.067 473.103V475.331C224.067 475.864 223.63 476.301 223.097 476.301H220.874C220.617 476.3 220.371 476.198 220.189 476.016C220.007 475.834 219.905 475.588 219.904 475.331V473.108C219.903 472.98 219.928 472.854 219.976 472.735C220.025 472.617 220.096 472.51 220.186 472.419C220.276 472.328 220.384 472.257 220.502 472.207C220.62 472.158 220.746 472.133 220.874 472.133ZM228.582 472.133H230.804C231.342 472.133 231.779 472.571 231.779 473.103V475.331C231.779 475.864 231.342 476.301 230.804 476.301H228.582C228.325 476.3 228.079 476.198 227.897 476.016C227.715 475.835 227.612 475.588 227.611 475.331V473.108C227.611 472.571 228.049 472.133 228.582 472.133ZM220.597 454.701H222.82C223.353 454.701 223.79 455.139 223.79 455.672V457.894C223.79 458.152 223.688 458.398 223.506 458.58C223.324 458.762 223.077 458.865 222.82 458.865H220.597C220.34 458.864 220.094 458.761 219.912 458.58C219.73 458.398 219.628 458.151 219.627 457.894V455.672C219.627 455.545 219.651 455.418 219.7 455.3C219.749 455.182 219.82 455.075 219.91 454.985C220 454.895 220.107 454.823 220.225 454.775C220.343 454.726 220.469 454.701 220.597 454.701ZM228.303 454.701H230.526C231.059 454.701 231.496 455.139 231.496 455.672V457.894C231.496 458.152 231.394 458.398 231.212 458.58C231.03 458.762 230.783 458.865 230.526 458.865H228.303C228.045 458.865 227.798 458.763 227.616 458.581C227.433 458.399 227.33 458.152 227.329 457.894V455.672C227.332 455.415 227.435 455.169 227.617 454.987C227.8 454.806 228.046 454.703 228.303 454.701Z" fill="#E1E4E5"/>
<path d="M336.708 265.701H211.708C188.788 265.701 170.208 284.281 170.208 307.201C170.208 330.121 188.788 348.701 211.708 348.701H336.708C359.628 348.701 378.208 330.121 378.208 307.201C378.208 284.281 359.628 265.701 336.708 265.701Z" fill="white" stroke="#E1E4E5" stroke-width="4"/>
<path d="M245.507 307.084C245.507 288.726 230.625 273.844 212.267 273.844C193.909 273.844 179.027 288.726 179.027 307.084C179.027 325.442 193.909 340.324 212.267 340.324C230.625 340.324 245.507 325.442 245.507 307.084Z" fill="#4F27AA"/>
<path fill-rule="evenodd" clip-rule="evenodd" d="M227.372 321.025V323.248C227.372 324.475 226.389 325.471 225.179 325.471H198.858C197.647 325.471 196.664 324.475 196.664 323.248V320.99C196.664 314.264 204.249 309.894 212.018 309.894C219.787 309.894 227.372 314.266 227.372 320.99M217.525 290.369C218.273 291.087 218.869 291.947 219.281 292.898C219.692 293.849 219.909 294.873 219.919 295.909C219.93 296.945 219.734 297.973 219.342 298.933C218.95 299.892 218.371 300.764 217.638 301.496C216.905 302.229 216.033 302.808 215.074 303.2C214.115 303.591 213.087 303.788 212.05 303.777C211.014 303.766 209.99 303.549 209.039 303.137C208.088 302.726 207.229 302.129 206.511 301.381C205.1 299.911 204.321 297.946 204.342 295.908C204.363 293.87 205.182 291.921 206.624 290.48C208.065 289.039 210.014 288.22 212.052 288.2C214.09 288.179 216.055 288.958 217.525 290.369Z" fill="white"/>
<path d="M341.708 284.701H256.708C254.775 284.701 253.208 286.268 253.208 288.201C253.208 290.134 254.775 291.701 256.708 291.701H341.708C343.641 291.701 345.208 290.134 345.208 288.201C345.208 286.268 343.641 284.701 341.708 284.701Z" fill="#E1E4E5"/>
<path d="M341.208 302.701H257.208C254.999 302.701 253.208 304.492 253.208 306.701C253.208 308.91 254.999 310.701 257.208 310.701H341.208C343.417 310.701 345.208 308.91 345.208 306.701C345.208 304.492 343.417 302.701 341.208 302.701Z" fill="#E1E4E5"/>
<path d="M341.708 321.701H256.708C254.775 321.701 253.208 323.268 253.208 325.201C253.208 327.134 254.775 328.701 256.708 328.701H341.708C343.641 328.701 345.208 327.134 345.208 325.201C345.208 323.268 343.641 321.701 341.708 321.701Z" fill="#E1E4E5"/>
<path d="M419.708 371.701H294.708C271.788 371.701 253.208 390.281 253.208 413.201C253.208 436.121 271.788 454.701 294.708 454.701H419.708C442.628 454.701 461.208 436.121 461.208 413.201C461.208 390.281 442.628 371.701 419.708 371.701Z" fill="white" stroke="#E1E4E5" stroke-width="4"/>
<path d="M328.507 413.084C328.507 394.726 313.625 379.844 295.267 379.844C276.909 379.844 262.027 394.726 262.027 413.084C262.027 431.442 276.909 446.324 295.267 446.324C313.625 446.324 328.507 431.442 328.507 413.084Z" fill="#4F27AA"/>
<path fill-rule="evenodd" clip-rule="evenodd" d="M310.372 427.026V429.249C310.372 430.476 309.389 431.472 308.179 431.472H281.858C280.647 431.472 279.664 430.476 279.664 429.249V426.991C279.664 420.265 287.249 415.895 295.018 415.895C302.787 415.895 310.372 420.267 310.372 426.991M300.525 396.369C301.986 397.829 302.806 399.81 302.806 401.876C302.807 403.942 301.986 405.923 300.526 407.383C299.065 408.844 297.084 409.665 295.018 409.665C292.953 409.665 290.972 408.844 289.511 407.384C288.788 406.661 288.214 405.802 287.823 404.857C287.431 403.912 287.23 402.899 287.23 401.877C287.23 400.854 287.431 399.841 287.822 398.896C288.214 397.951 288.787 397.093 289.511 396.369C290.234 395.646 291.092 395.072 292.037 394.681C292.982 394.289 293.995 394.088 295.018 394.088C296.04 394.088 297.053 394.289 297.998 394.681C298.943 395.072 299.802 395.646 300.525 396.369Z" fill="white"/>
<path d="M424.708 390.701H339.708C337.775 390.701 336.208 392.268 336.208 394.201C336.208 396.134 337.775 397.701 339.708 397.701H424.708C426.641 397.701 428.208 396.134 428.208 394.201C428.208 392.268 426.641 390.701 424.708 390.701Z" fill="#E1E4E5"/>
<path d="M424.208 408.701H340.208C337.999 408.701 336.208 410.492 336.208 412.701C336.208 414.91 337.999 416.701 340.208 416.701H424.208C426.417 416.701 428.208 414.91 428.208 412.701C428.208 410.492 426.417 408.701 424.208 408.701Z" fill="#E1E4E5"/>
<path d="M424.708 427.701H339.708C337.775 427.701 336.208 429.268 336.208 431.201C336.208 433.134 337.775 434.701 339.708 434.701H424.708C426.641 434.701 428.208 433.134 428.208 431.201C428.208 429.268 426.641 427.701 424.708 427.701Z" fill="#E1E4E5"/>
<path d="M677.708 371.701H552.708C529.788 371.701 511.208 390.281 511.208 413.201C511.208 436.121 529.788 454.701 552.708 454.701H677.708C700.628 454.701 719.208 436.121 719.208 413.201C719.208 390.281 700.628 371.701 677.708 371.701Z" fill="white" stroke="#E1E4E5" stroke-width="4"/>
<path d="M586.507 413.084C586.507 394.726 571.625 379.844 553.267 379.844C534.909 379.844 520.027 394.726 520.027 413.084C520.027 431.442 534.909 446.324 553.267 446.324C571.625 446.324 586.507 431.442 586.507 413.084Z" fill="#4F27AA"/>
<path fill-rule="evenodd" clip-rule="evenodd" d="M568.372 427.026V429.249C568.372 430.476 567.389 431.472 566.179 431.472H539.858C538.647 431.472 537.664 430.476 537.664 429.249V426.991C537.664 420.265 545.249 415.895 553.018 415.895C560.787 415.895 568.372 420.267 568.372 426.991M558.525 396.369C559.248 397.092 559.822 397.951 560.214 398.895C560.605 399.84 560.806 400.853 560.807 401.876C560.807 402.899 560.605 403.912 560.214 404.857C559.822 405.801 559.249 406.66 558.526 407.383C557.802 408.107 556.944 408.68 555.999 409.072C555.054 409.463 554.041 409.665 553.018 409.665C551.996 409.665 550.983 409.463 550.038 409.072C549.093 408.681 548.234 408.107 547.511 407.384C546.05 405.923 545.23 403.942 545.23 401.877C545.23 399.811 546.05 397.83 547.511 396.369C548.971 394.909 550.952 394.088 553.018 394.088C555.083 394.088 557.064 394.908 558.525 396.369Z" fill="white"/>
<path d="M682.708 390.701H597.708C595.775 390.701 594.208 392.268 594.208 394.201C594.208 396.134 595.775 397.701 597.708 397.701H682.708C684.641 397.701 686.208 396.134 686.208 394.201C686.208 392.268 684.641 390.701 682.708 390.701Z" fill="#E1E4E5"/>
<path d="M682.208 408.701H598.208C595.999 408.701 594.208 410.492 594.208 412.701C594.208 414.91 595.999 416.701 598.208 416.701H682.208C684.417 416.701 686.208 414.91 686.208 412.701C686.208 410.492 684.417 408.701 682.208 408.701Z" fill="#E1E4E5"/>
<path d="M682.708 427.701H597.708C595.775 427.701 594.208 429.268 594.208 431.201C594.208 433.134 595.775 434.701 597.708 434.701H682.708C684.641 434.701 686.208 433.134 686.208 431.201C686.208 429.268 684.641 427.701 682.708 427.701Z" fill="#E1E4E5"/>
<path d="M594.708 265.701H469.708C446.788 265.701 428.208 284.281 428.208 307.201C428.208 330.121 446.788 348.701 469.708 348.701H594.708C617.628 348.701 636.208 330.121 636.208 307.201C636.208 284.281 617.628 265.701 594.708 265.701Z" fill="white" stroke="#E1E4E5" stroke-width="4"/>
<path d="M503.507 307.084C503.507 288.726 488.625 273.844 470.267 273.844C451.909 273.844 437.027 288.726 437.027 307.084C437.027 325.442 451.909 340.324 470.267 340.324C488.625 340.324 503.507 325.442 503.507 307.084Z" fill="#4F27AA"/>
<path fill-rule="evenodd" clip-rule="evenodd" d="M485.372 321.025V323.248C485.372 324.475 484.389 325.471 483.179 325.471H456.858C455.647 325.471 454.664 324.475 454.664 323.248V320.99C454.664 314.264 462.249 309.894 470.018 309.894C477.787 309.894 485.372 314.266 485.372 320.99M475.525 290.369C476.273 291.087 476.869 291.947 477.281 292.898C477.692 293.849 477.909 294.873 477.919 295.909C477.93 296.945 477.734 297.973 477.342 298.933C476.95 299.892 476.371 300.764 475.638 301.496C474.905 302.229 474.033 302.808 473.074 303.2C472.115 303.591 471.087 303.788 470.05 303.777C469.014 303.766 467.99 303.549 467.039 303.137C466.088 302.726 465.229 302.129 464.511 301.381C463.1 299.911 462.321 297.946 462.342 295.908C462.363 293.87 463.182 291.921 464.624 290.48C466.065 289.039 468.014 288.22 470.052 288.2C472.09 288.179 474.055 288.958 475.525 290.369Z" fill="white"/>
<path d="M599.708 284.701H514.708C512.775 284.701 511.208 286.268 511.208 288.201C511.208 290.134 512.775 291.701 514.708 291.701H599.708C601.641 291.701 603.208 290.134 603.208 288.201C603.208 286.268 601.641 284.701 599.708 284.701Z" fill="#E1E4E5"/>
<path d="M599.208 302.701H515.208C512.999 302.701 511.208 304.492 511.208 306.701C511.208 308.91 512.999 310.701 515.208 310.701H599.208C601.417 310.701 603.208 308.91 603.208 306.701C603.208 304.492 601.417 302.701 599.208 302.701Z" fill="#E1E4E5"/>
<path d="M599.708 321.701H514.708C512.775 321.701 511.208 323.268 511.208 325.201C511.208 327.134 512.775 328.701 514.708 328.701H599.708C601.641 328.701 603.208 327.134 603.208 325.201C603.208 323.268 601.641 321.701 599.708 321.701Z" fill="#E1E4E5"/>
</g>
<defs>
<clipPath id="clip0_1235_21547">
<rect width="900" height="600" fill="white"/>
</clipPath>
</defs>
</svg>
