<svg width="900" height="600" viewBox="0 0 900 600" fill="none" xmlns="http://www.w3.org/2000/svg">
<g clip-path="url(#clip0_1235_21626)">
<path fill-rule="evenodd" clip-rule="evenodd" d="M312.421 318.054V234.029C312.421 205.762 327.455 179.63 351.875 165.408L431.277 119.196C443.405 112.141 457.185 108.424 471.216 108.424C485.247 108.424 499.027 112.141 511.155 119.196L590.557 165.408C614.995 179.63 630.029 205.762 630.029 234.029V318.054C630.029 346.321 614.995 372.453 590.575 386.675L511.173 432.887C499.045 439.942 485.265 443.659 471.234 443.659C457.203 443.659 443.423 439.942 431.295 432.887L351.893 386.675C327.455 372.453 312.421 346.321 312.421 318.054Z" fill="#4F27AA" stroke="#4F27AA" stroke-width="21.417" stroke-linecap="round" stroke-linejoin="round"/>
<path d="M471.225 276.043V196.641M471.208 337.8C468.773 337.8 466.796 339.776 466.814 342.211C466.832 343.369 467.304 344.474 468.129 345.287C468.955 346.1 470.067 346.556 471.226 346.556C472.384 346.556 473.496 346.1 474.322 345.287C475.147 344.474 475.62 343.369 475.637 342.211C475.636 341.63 475.521 341.055 475.298 340.519C475.075 339.983 474.748 339.497 474.337 339.087C473.926 338.677 473.438 338.353 472.901 338.132C472.364 337.911 471.789 337.798 471.208 337.8" stroke="white" stroke-width="30" stroke-linecap="round" stroke-linejoin="round"/>
<path fill-rule="evenodd" clip-rule="evenodd" d="M212.107 413.851H217.283C217.882 413.851 218.457 414.089 218.881 414.512C219.304 414.936 219.543 415.51 219.543 416.11V421.287C219.542 421.886 219.304 422.46 218.88 422.883C218.457 423.307 217.882 423.545 217.283 423.546H212.107C211.509 423.543 210.936 423.304 210.512 422.881C210.089 422.458 209.851 421.885 209.848 421.287V416.11C209.837 414.869 210.855 413.851 212.107 413.851ZM230.053 413.851H235.23C235.829 413.853 236.402 414.092 236.825 414.515C237.248 414.938 237.487 415.511 237.489 416.11V421.287C237.489 421.885 237.251 422.46 236.827 422.883C236.403 423.307 235.829 423.545 235.23 423.546H230.053C229.455 423.543 228.882 423.304 228.458 422.881C228.035 422.458 227.797 421.885 227.794 421.287V416.11C227.797 415.511 228.035 414.938 228.458 414.515C228.882 414.092 229.455 413.853 230.053 413.851ZM248.012 413.851H253.188C253.787 413.853 254.36 414.091 254.784 414.514C255.207 414.938 255.446 415.511 255.448 416.11V421.287C255.447 421.886 255.209 422.46 254.785 422.883C254.362 423.307 253.787 423.545 253.188 423.546H248.012C247.414 423.543 246.841 423.304 246.417 422.881C245.994 422.458 245.756 421.885 245.753 421.287V416.11C245.742 414.869 246.76 413.851 248.012 413.851ZM265.958 413.851H271.135C271.734 413.853 272.307 414.092 272.73 414.515C273.153 414.938 273.392 415.511 273.394 416.11V421.287C273.394 421.885 273.156 422.46 272.732 422.883C272.308 423.307 271.734 423.545 271.135 423.546H265.958C265.358 423.546 264.782 423.308 264.357 422.885C263.932 422.461 263.691 421.887 263.688 421.287V416.11C263.695 415.511 263.936 414.938 264.361 414.516C264.786 414.093 265.359 413.854 265.958 413.851ZM283.906 413.851H289.083C289.683 413.851 290.259 414.088 290.684 414.512C291.11 414.935 291.35 415.509 291.353 416.11V421.287C291.353 421.584 291.293 421.878 291.179 422.153C291.064 422.427 290.897 422.677 290.686 422.886C290.475 423.096 290.225 423.262 289.95 423.375C289.675 423.488 289.381 423.546 289.083 423.546H283.906C283.308 423.543 282.735 423.304 282.311 422.881C281.888 422.458 281.65 421.885 281.647 421.287V416.11C281.65 415.511 281.888 414.938 282.311 414.515C282.735 414.092 283.308 413.853 283.906 413.851ZM230.712 433.421H235.888C236.487 433.423 237.06 433.662 237.483 434.085C237.906 434.508 238.145 435.081 238.147 435.68V440.867C238.145 441.465 237.906 442.039 237.483 442.462C237.06 442.885 236.487 443.124 235.888 443.127H230.712C230.113 443.126 229.538 442.888 229.115 442.464C228.691 442.04 228.453 441.466 228.452 440.867V435.691C228.451 435.393 228.508 435.098 228.621 434.822C228.733 434.547 228.9 434.296 229.11 434.085C229.32 433.874 229.57 433.707 229.845 433.593C230.12 433.479 230.414 433.42 230.712 433.421ZM248.658 433.421H253.834C254.433 433.423 255.006 433.661 255.43 434.084C255.853 434.508 256.092 435.081 256.094 435.68V440.867C256.092 441.465 255.853 442.038 255.429 442.462C255.006 442.885 254.433 443.124 253.834 443.127H248.658C248.06 443.124 247.486 442.885 247.063 442.462C246.64 442.039 246.401 441.465 246.399 440.867V435.691C246.397 435.393 246.454 435.098 246.567 434.822C246.68 434.547 246.846 434.296 247.056 434.085C247.266 433.874 247.516 433.707 247.791 433.593C248.066 433.479 248.361 433.42 248.658 433.421ZM266.606 433.421H271.782C272.382 433.421 272.958 433.658 273.383 434.082C273.809 434.505 274.049 435.079 274.052 435.68V440.867C274.05 441.467 273.809 442.042 273.384 442.465C272.958 442.889 272.383 443.127 271.782 443.127H266.606C266.008 443.124 265.434 442.885 265.011 442.462C264.588 442.039 264.349 441.465 264.347 440.867V435.691C264.347 435.09 264.585 434.515 265.008 434.089C265.432 433.664 266.006 433.423 266.606 433.421ZM248.012 392.827H253.188C253.787 392.829 254.36 393.068 254.783 393.491C255.207 393.915 255.446 394.488 255.448 395.087V400.263C255.448 400.862 255.209 401.436 254.786 401.86C254.362 402.283 253.787 402.521 253.188 402.522H248.012C247.414 402.519 246.841 402.28 246.417 401.857C245.994 401.434 245.756 400.861 245.753 400.263V395.087C245.742 393.846 246.76 392.827 248.012 392.827ZM265.958 392.827H271.135C271.734 392.829 272.307 393.068 272.73 393.491C273.153 393.914 273.392 394.488 273.394 395.087V400.263C273.394 400.862 273.156 401.436 272.732 401.86C272.309 402.283 271.734 402.521 271.135 402.522H265.958C265.358 402.522 264.782 402.284 264.357 401.861C263.932 401.437 263.691 400.863 263.688 400.263V395.087C263.695 394.487 263.936 393.915 264.361 393.492C264.785 393.069 265.359 392.83 265.958 392.827ZM654.533 120.96H659.709C660.308 120.96 660.883 121.198 661.307 121.621C661.73 122.045 661.969 122.619 661.969 123.219V128.396C661.968 128.995 661.73 129.569 661.306 129.992C660.883 130.416 660.308 130.654 659.709 130.655H654.533C653.935 130.652 653.362 130.413 652.939 129.99C652.515 129.567 652.277 128.994 652.274 128.396V123.219C652.263 121.978 653.281 120.96 654.533 120.96ZM672.479 120.96H677.655C678.254 120.962 678.827 121.2 679.251 121.623C679.674 122.047 679.913 122.62 679.915 123.219V128.396C679.915 128.995 679.676 129.569 679.253 129.993C678.829 130.416 678.254 130.654 677.655 130.655H672.479C671.881 130.652 671.308 130.413 670.884 129.99C670.461 129.567 670.223 128.994 670.22 128.396V123.219C670.223 122.62 670.461 122.047 670.884 121.624C671.308 121.201 671.881 120.962 672.479 120.96ZM690.438 120.96H695.614C696.213 120.962 696.786 121.2 697.21 121.623C697.633 122.047 697.872 122.62 697.874 123.219V128.396C697.873 128.995 697.635 129.569 697.211 129.992C696.788 130.416 696.213 130.654 695.614 130.655H690.438C689.84 130.652 689.267 130.413 688.843 129.99C688.42 129.567 688.182 128.994 688.179 128.396V123.219C688.168 121.978 689.186 120.96 690.438 120.96ZM708.384 120.96H713.56C714.159 120.962 714.732 121.2 715.156 121.623C715.579 122.047 715.818 122.62 715.82 123.219V128.396C715.82 128.995 715.581 129.569 715.158 129.993C714.734 130.416 714.159 130.654 713.56 130.655H708.384C707.784 130.655 707.208 130.417 706.783 129.994C706.358 129.57 706.117 128.996 706.114 128.396V123.219C706.121 122.62 706.362 122.047 706.787 121.625C707.212 121.202 707.785 120.963 708.384 120.96ZM726.332 120.96H731.509C732.109 120.96 732.685 121.197 733.11 121.621C733.536 122.044 733.776 122.618 733.779 123.219V128.396C733.779 128.693 733.719 128.987 733.605 129.262C733.49 129.536 733.323 129.786 733.112 129.995C732.901 130.205 732.651 130.371 732.376 130.484C732.101 130.598 731.807 130.655 731.509 130.655H726.332C725.734 130.652 725.161 130.413 724.737 129.99C724.314 129.567 724.076 128.994 724.073 128.396V123.219C724.076 122.62 724.314 122.047 724.737 121.624C725.161 121.201 725.734 120.962 726.332 120.96ZM673.138 140.53H678.314C678.913 140.532 679.486 140.771 679.909 141.194C680.332 141.617 680.571 142.19 680.573 142.789V147.976C680.571 148.574 680.332 149.148 679.909 149.571C679.486 149.994 678.913 150.233 678.314 150.236H673.138C672.539 150.235 671.964 149.997 671.541 149.573C671.117 149.149 670.879 148.575 670.878 147.976V142.8C670.876 142.502 670.934 142.207 671.047 141.931C671.159 141.656 671.326 141.405 671.536 141.194C671.746 140.983 671.996 140.816 672.271 140.702C672.546 140.588 672.84 140.529 673.138 140.53ZM691.084 140.53H696.26C696.859 140.532 697.432 140.77 697.856 141.193C698.279 141.617 698.518 142.19 698.52 142.789V147.976C698.518 148.574 698.279 149.147 697.855 149.571C697.432 149.994 696.859 150.233 696.26 150.236H691.084C690.486 150.233 689.912 149.994 689.489 149.571C689.066 149.148 688.827 148.574 688.825 147.976V142.8C688.823 142.502 688.88 142.207 688.993 141.931C689.106 141.656 689.272 141.405 689.482 141.194C689.692 140.983 689.942 140.816 690.217 140.702C690.492 140.588 690.786 140.529 691.084 140.53ZM709.032 140.53H714.208C714.808 140.53 715.384 140.767 715.809 141.191C716.235 141.614 716.475 142.188 716.478 142.789V147.976C716.476 148.576 716.235 149.151 715.81 149.574C715.384 149.998 714.809 150.236 714.208 150.236H709.032C708.434 150.233 707.86 149.994 707.437 149.571C707.014 149.148 706.775 148.574 706.773 147.976V142.8C706.773 142.199 707.011 141.624 707.434 141.198C707.858 140.773 708.432 140.532 709.032 140.53ZM690.438 99.9355H695.614C696.213 99.9377 696.786 100.176 697.21 100.599C697.633 101.023 697.872 101.596 697.874 102.195V107.372C697.873 107.971 697.635 108.545 697.211 108.968C696.788 109.392 696.213 109.63 695.614 109.631H690.438C689.84 109.628 689.267 109.389 688.843 108.966C688.42 108.543 688.182 107.97 688.179 107.372V102.195C688.168 100.954 689.186 99.9355 690.438 99.9355ZM708.384 99.9355H713.56C714.159 99.9377 714.732 100.176 715.156 100.599C715.579 101.023 715.818 101.596 715.82 102.195V107.372C715.82 107.971 715.581 108.545 715.158 108.969C714.734 109.392 714.159 109.63 713.56 109.631H708.384C707.784 109.631 707.208 109.393 706.783 108.97C706.358 108.546 706.117 107.972 706.114 107.372V102.195C706.121 101.596 706.362 101.023 706.787 100.601C707.212 100.178 707.785 99.9392 708.384 99.9355ZM229.408 125.903H234.585C235.184 125.903 235.758 126.141 236.182 126.565C236.606 126.988 236.844 127.563 236.844 128.162V133.339C236.844 133.938 236.606 134.512 236.182 134.935C235.758 135.359 235.184 135.597 234.585 135.598H229.408C228.81 135.595 228.237 135.356 227.813 134.933C227.39 134.51 227.152 133.937 227.149 133.339V128.162C227.138 126.921 228.157 125.903 229.408 125.903ZM247.355 125.903H252.531C253.13 125.905 253.703 126.144 254.126 126.567C254.549 126.99 254.788 127.563 254.79 128.162V133.339C254.79 133.938 254.552 134.512 254.128 134.935C253.704 135.359 253.13 135.597 252.531 135.598H247.355C246.757 135.595 246.183 135.357 245.76 134.934C245.336 134.51 245.098 133.937 245.095 133.339V128.162C245.098 127.563 245.336 126.99 245.76 126.566C246.183 126.143 246.757 125.905 247.355 125.903ZM265.313 125.903H270.49C271.089 125.905 271.662 126.144 272.085 126.567C272.508 126.99 272.747 127.563 272.749 128.162V133.339C272.749 133.938 272.511 134.512 272.087 134.935C271.663 135.359 271.089 135.597 270.49 135.598H265.313C264.715 135.595 264.142 135.356 263.718 134.933C263.295 134.51 263.057 133.937 263.054 133.339V128.162C263.043 126.921 264.062 125.903 265.313 125.903ZM283.26 125.903H288.436C289.035 125.905 289.608 126.144 290.031 126.567C290.454 126.99 290.693 127.563 290.695 128.162V133.339C290.695 133.938 290.457 134.512 290.033 134.935C289.609 135.359 289.035 135.597 288.436 135.598H283.26C282.66 135.598 282.084 135.36 281.659 134.937C281.234 134.513 280.993 133.939 280.99 133.339V128.162C280.997 127.563 281.238 126.99 281.663 126.568C282.088 126.145 282.661 125.906 283.26 125.903ZM301.208 125.903H306.384C306.984 125.903 307.56 126.14 307.985 126.564C308.411 126.987 308.651 127.561 308.654 128.162V133.339C308.654 133.636 308.595 133.93 308.48 134.205C308.366 134.48 308.198 134.729 307.988 134.939C307.777 135.148 307.527 135.315 307.251 135.428C306.976 135.541 306.682 135.598 306.384 135.598H301.208C300.61 135.595 300.036 135.357 299.613 134.934C299.189 134.51 298.951 133.937 298.948 133.339V128.162C298.951 127.563 299.189 126.99 299.613 126.566C300.036 126.143 300.61 125.905 301.208 125.903ZM248.013 145.473H253.19C253.789 145.475 254.362 145.714 254.785 146.137C255.208 146.561 255.447 147.134 255.449 147.733V152.92C255.447 153.518 255.208 154.091 254.785 154.514C254.362 154.937 253.789 155.176 253.19 155.179H248.013C247.414 155.178 246.84 154.94 246.416 154.516C245.993 154.093 245.755 153.519 245.754 152.92V147.743C245.753 147.445 245.81 147.15 245.922 146.874C246.035 146.599 246.201 146.348 246.411 146.137C246.621 145.927 246.871 145.759 247.146 145.645C247.421 145.531 247.716 145.472 248.013 145.473ZM265.96 145.473H271.136C271.735 145.475 272.308 145.714 272.731 146.137C273.154 146.561 273.393 147.134 273.395 147.733V152.92C273.393 153.518 273.154 154.091 272.731 154.514C272.308 154.937 271.735 155.176 271.136 155.179H265.96C265.362 155.176 264.788 154.938 264.365 154.515C263.942 154.091 263.703 153.518 263.7 152.92V147.743C263.699 147.445 263.756 147.15 263.869 146.874C263.982 146.599 264.148 146.348 264.358 146.137C264.568 145.926 264.818 145.759 265.093 145.645C265.368 145.531 265.663 145.472 265.96 145.473ZM283.908 145.473H289.084C289.684 145.473 290.26 145.711 290.686 146.134C291.111 146.558 291.351 147.132 291.354 147.733V152.92C291.351 153.52 291.111 154.094 290.685 154.518C290.26 154.941 289.684 155.179 289.084 155.179H283.908C283.31 155.176 282.736 154.938 282.313 154.515C281.89 154.091 281.651 153.518 281.648 152.92V147.743C281.648 147.142 281.886 146.566 282.31 146.141C282.733 145.716 283.308 145.475 283.908 145.473ZM265.313 104.879H270.49C271.089 104.881 271.662 105.12 272.085 105.543C272.508 105.967 272.747 106.54 272.749 107.139V112.315C272.749 112.914 272.511 113.488 272.087 113.912C271.664 114.335 271.089 114.573 270.49 114.574H265.313C264.715 114.571 264.142 114.332 263.718 113.909C263.295 113.486 263.057 112.913 263.054 112.315V107.139C263.043 105.898 264.062 104.879 265.313 104.879ZM283.26 104.879H288.436C289.035 104.881 289.608 105.12 290.031 105.543C290.454 105.967 290.693 106.54 290.695 107.139V112.315C290.695 112.914 290.457 113.488 290.033 113.912C289.61 114.335 289.035 114.573 288.436 114.574H283.26C282.66 114.574 282.084 114.336 281.659 113.913C281.234 113.489 280.993 112.915 280.99 112.315V107.139C280.997 106.539 281.238 105.967 281.663 105.544C282.087 105.121 282.661 104.882 283.26 104.879ZM660.259 415.024H665.436C666.035 415.024 666.609 415.262 667.033 415.686C667.457 416.109 667.695 416.684 667.695 417.283V422.459C667.695 423.058 667.457 423.632 667.033 424.056C666.61 424.48 666.035 424.718 665.436 424.719H660.259C659.661 424.716 659.087 424.477 658.664 424.054C658.241 423.631 658.002 423.057 658 422.459V417.283C657.989 416.042 659.008 415.024 660.259 415.024ZM678.206 415.024H683.382C683.981 415.026 684.554 415.265 684.977 415.688C685.4 416.111 685.639 416.684 685.641 417.283V422.459C685.641 423.058 685.403 423.632 684.979 424.056C684.556 424.48 683.981 424.718 683.382 424.719H678.206C677.608 424.716 677.034 424.477 676.611 424.054C676.188 423.63 675.949 423.057 675.946 422.459V417.283C675.949 416.684 676.187 416.111 676.611 415.687C677.034 415.264 677.608 415.026 678.206 415.024ZM696.165 415.024H701.341C701.94 415.026 702.513 415.265 702.936 415.688C703.359 416.111 703.598 416.684 703.6 417.283V422.459C703.6 423.058 703.362 423.632 702.938 424.056C702.515 424.48 701.94 424.718 701.341 424.719H696.165C695.567 424.716 694.993 424.477 694.57 424.054C694.147 423.63 693.908 423.057 693.905 422.459V417.283C693.895 416.042 694.913 415.024 696.165 415.024ZM714.111 415.024H719.287C719.886 415.026 720.459 415.264 720.883 415.687C721.306 416.111 721.545 416.684 721.547 417.283V422.459C721.547 423.058 721.308 423.632 720.885 424.056C720.461 424.48 719.886 424.718 719.287 424.719H714.111C713.511 424.719 712.935 424.481 712.51 424.057C712.084 423.634 711.844 423.059 711.841 422.459V417.283C711.848 416.684 712.089 416.111 712.514 415.689C712.939 415.266 713.512 415.027 714.111 415.024ZM732.059 415.024H737.235C737.835 415.024 738.411 415.261 738.836 415.685C739.262 416.108 739.502 416.682 739.505 417.283V422.459C739.505 422.756 739.446 423.051 739.331 423.325C739.217 423.6 739.049 423.849 738.839 424.059C738.628 424.269 738.378 424.435 738.103 424.548C737.827 424.661 737.533 424.719 737.235 424.719H732.059C731.461 424.716 730.887 424.477 730.464 424.054C730.041 423.631 729.802 423.057 729.8 422.459V417.283C729.803 416.684 730.041 416.111 730.465 415.688C730.888 415.265 731.461 415.026 732.059 415.024ZM678.864 434.594H684.041C684.64 434.596 685.213 434.835 685.636 435.258C686.059 435.681 686.298 436.254 686.3 436.853V442.04C686.298 442.638 686.059 443.211 685.636 443.634C685.213 444.057 684.64 444.296 684.041 444.299H678.864C678.265 444.298 677.691 444.06 677.267 443.636C676.844 443.213 676.606 442.639 676.605 442.04V436.864C676.603 436.566 676.66 436.271 676.773 435.995C676.886 435.72 677.052 435.469 677.262 435.258C677.472 435.047 677.722 434.88 677.997 434.766C678.272 434.652 678.567 434.593 678.864 434.594ZM696.811 434.594H701.987C702.586 434.596 703.159 434.835 703.582 435.258C704.005 435.681 704.244 436.254 704.246 436.853V442.04C704.244 442.638 704.005 443.211 703.582 443.634C703.159 444.057 702.586 444.296 701.987 444.299H696.811C696.213 444.296 695.639 444.058 695.216 443.635C694.793 443.211 694.554 442.638 694.551 442.04V436.864C694.55 436.566 694.607 436.271 694.72 435.995C694.832 435.72 694.999 435.469 695.209 435.258C695.419 435.047 695.669 434.88 695.944 434.766C696.219 434.652 696.513 434.593 696.811 434.594ZM714.758 434.594H719.935C720.535 434.594 721.111 434.831 721.536 435.255C721.962 435.678 722.202 436.252 722.205 436.853V442.04C722.202 442.64 721.962 443.214 721.536 443.638C721.111 444.061 720.535 444.299 719.935 444.299H714.758C714.16 444.296 713.587 444.057 713.163 443.634C712.74 443.211 712.502 442.638 712.499 442.04V436.864C712.499 436.263 712.737 435.688 713.16 435.262C713.584 434.837 714.158 434.596 714.758 434.594ZM696.165 394H701.341C701.94 394.002 702.513 394.241 702.936 394.664C703.359 395.087 703.598 395.66 703.6 396.259V401.436C703.6 402.035 703.361 402.609 702.938 403.032C702.514 403.456 701.94 403.694 701.341 403.695H696.165C695.567 403.692 694.993 403.454 694.57 403.031C694.147 402.607 693.908 402.034 693.905 401.436V396.259C693.895 395.018 694.913 394 696.165 394ZM714.111 394H719.287C719.886 394.002 720.459 394.24 720.883 394.663C721.306 395.087 721.545 395.66 721.547 396.259V401.436C721.546 402.035 721.308 402.609 720.884 403.032C720.461 403.456 719.886 403.694 719.287 403.695H714.111C713.511 403.695 712.935 403.457 712.51 403.034C712.085 402.61 711.844 402.036 711.841 401.436V396.259C711.848 395.66 712.089 395.087 712.514 394.665C712.939 394.242 713.512 394.003 714.111 394Z" fill="#E1E4E5"/>
<path d="M735.925 307.965C716.147 312.65 695.229 295.877 695.229 295.877C695.229 295.877 706.392 271.516 726.176 266.846C745.954 262.16 766.865 278.919 766.865 278.919C766.865 278.919 755.702 303.279 735.925 307.965Z" fill="url(#paint0_linear_1235_21626)"/>
<path d="M134.823 316.782C115.045 321.467 94.127 304.694 94.127 304.694C94.127 304.694 105.29 280.334 125.074 275.663C144.852 270.978 165.763 287.736 165.763 287.736C165.763 287.736 154.6 312.097 134.823 316.782Z" fill="url(#paint1_linear_1235_21626)"/>
<path d="M385.449 98.7277C410.23 93.7177 425.122 63.8747 425.122 63.8747C425.122 63.8747 399.823 42.1717 375.042 47.2017C350.26 52.2117 335.368 82.0347 335.368 82.0347C335.368 82.0347 360.667 103.738 385.449 98.7277Z" fill="url(#paint2_linear_1235_21626)"/>
<path d="M588.985 513.473C620.375 506.261 638.336 467.756 638.336 467.756C638.336 467.756 605.39 440.968 574 448.206C542.61 455.419 524.648 493.898 524.648 493.898C524.648 493.898 557.595 520.686 588.985 513.473Z" fill="url(#paint3_linear_1235_21626)"/>
<path d="M782.745 350.808C773.48 350.808 765.97 357.992 765.97 366.854C765.97 375.716 773.48 382.9 782.745 382.9C792.01 382.9 799.52 375.716 799.52 366.854C799.52 357.992 792.01 350.808 782.745 350.808Z" fill="#4F27AA"/>
<path d="M294.108 481.089C286.042 481.089 279.504 487.627 279.504 495.693C279.504 503.758 286.042 510.297 294.108 510.297C302.173 510.297 308.712 503.758 308.712 495.693C308.712 487.627 302.173 481.089 294.108 481.089Z" fill="#4F27AA"/>
<path d="M233.936 219.792C229.505 219.792 225.913 216.2 225.913 211.769C225.913 207.338 229.505 203.746 233.936 203.746C238.367 203.746 241.959 207.338 241.959 211.769C241.959 216.2 238.367 219.792 233.936 219.792Z" fill="#4F27AA"/>
<path d="M765.94 168.781C758.495 168.781 752.459 162.494 752.459 154.738C752.459 146.983 758.495 140.695 765.94 140.695C773.385 140.695 779.421 146.983 779.421 154.738C779.421 162.494 773.385 168.781 765.94 168.781Z" fill="#4F27AA"/>
<path d="M140.762 402.449C134.868 402.449 130.09 397.671 130.09 391.777C130.09 385.883 134.868 381.105 140.762 381.105C146.656 381.105 151.434 385.883 151.434 391.777C151.434 397.671 146.656 402.449 140.762 402.449Z" fill="#4F27AA"/>
<path d="M393 493C385.82 493 380 487.404 380 480.5C380 473.596 385.82 468 393 468C400.18 468 406 473.596 406 480.5C406 487.404 400.18 493 393 493Z" fill="#E1E4E5"/>
<path d="M225.811 314.766C221.09 314.766 217.263 310.939 217.263 306.218C217.263 301.497 221.09 297.67 225.811 297.67C230.532 297.67 234.359 301.497 234.359 306.218C234.359 310.939 230.532 314.766 225.811 314.766Z" fill="#E1E4E5"/>
<path d="M470.5 525C466.358 525 463 521.418 463 517C463 512.582 466.358 509 470.5 509C474.642 509 478 512.582 478 517C478 521.418 474.642 525 470.5 525Z" fill="#E1E4E5"/>
<path d="M524.96 76.6446C520.932 76.6446 517.666 73.379 517.666 69.3506C517.666 65.3223 520.932 62.0566 524.96 62.0566C528.988 62.0566 532.254 65.3223 532.254 69.3506C532.254 73.379 528.988 76.6446 524.96 76.6446Z" fill="#E1E4E5"/>
<path d="M197.38 357.658C198.399 361.46 196.142 365.368 192.34 366.387C188.538 367.405 184.63 365.149 183.612 361.347C182.593 357.545 184.849 353.637 188.651 352.618C192.453 351.6 196.361 353.856 197.38 357.658Z" fill="#E1E4E5"/>
<path d="M249.19 62.4581C243.953 62.4581 239.708 58.2129 239.708 52.9761C239.708 47.7394 243.953 43.4941 249.19 43.4941C254.427 43.4941 258.672 47.7394 258.672 52.9761C258.672 58.2129 254.427 62.4581 249.19 62.4581Z" fill="#E1E4E5"/>
<path d="M721.359 220.359C717.33 220.359 714.065 217.747 714.065 214.524C714.065 211.302 717.33 208.689 721.359 208.689C725.387 208.689 728.653 211.302 728.653 214.524C728.653 217.747 725.387 220.359 721.359 220.359Z" fill="#E1E4E5"/>
<path d="M609.861 106.265C611.982 114.178 607.286 122.311 599.373 124.431C591.46 126.552 583.327 121.856 581.206 113.943C579.086 106.03 583.782 97.8964 591.695 95.7762C599.608 93.6559 607.741 98.3518 609.861 106.265Z" fill="#E1E4E5"/>
<path d="M798.774 202.51H798.965C800.095 218.519 812 218.765 812 218.765C812 218.765 798.872 219.021 798.872 237.519C798.872 219.021 785.743 218.765 785.743 218.765C785.743 218.765 797.644 218.519 798.774 202.51ZM168.026 134.539H168.355C170.301 162.555 190.805 162.986 190.805 162.986C190.805 162.986 168.195 163.434 168.195 195.806C168.195 163.434 145.585 162.986 145.585 162.986C145.585 162.986 166.08 162.555 168.026 134.539Z" fill="#E1E4E5"/>
</g>
<defs>
<linearGradient id="paint0_linear_1235_21626" x1="661.447" y1="319.614" x2="834.581" y2="237.821" gradientUnits="userSpaceOnUse">
<stop stop-color="white"/>
<stop offset="1" stop-color="#EEEEEE"/>
</linearGradient>
<linearGradient id="paint1_linear_1235_21626" x1="60.345" y1="328.431" x2="233.479" y2="246.637" gradientUnits="userSpaceOnUse">
<stop stop-color="white"/>
<stop offset="1" stop-color="#EEEEEE"/>
</linearGradient>
<linearGradient id="paint2_linear_1235_21626" x1="475.647" y1="73.0917" x2="237.467" y2="70.8827" gradientUnits="userSpaceOnUse">
<stop stop-color="white"/>
<stop offset="1" stop-color="#EEEEEE"/>
</linearGradient>
<linearGradient id="paint3_linear_1235_21626" x1="702.988" y1="477.795" x2="399.6" y2="482.987" gradientUnits="userSpaceOnUse">
<stop stop-color="white"/>
<stop offset="1" stop-color="#EEEEEE"/>
</linearGradient>
<clipPath id="clip0_1235_21626">
<rect width="900" height="600" fill="white"/>
</clipPath>
</defs>
</svg>
