<svg width="900" height="600" viewBox="0 0 900 600" fill="none" xmlns="http://www.w3.org/2000/svg">
<g clip-path="url(#clip0_1235_21649)">
<path d="M727.463 358.639C730.82 420.508 609.861 546.312 460.77 499.748C391.429 478.089 397.303 442.141 344.576 394.764C313.148 366.527 267.992 345.175 255.433 304.13C244.583 268.702 251.237 230.623 270.047 205.854C312.35 150.152 397.751 112.009 481.899 199.773C566.046 287.537 718.785 199.073 727.463 358.639Z" fill="url(#paint0_linear_1235_21649)"/>
<path d="M685.149 203.253C673.579 223.902 648.239 226.739 607.644 222.815C577.113 219.858 549.271 217.571 518.738 200.923C497.367 189.28 480.45 173.526 468.103 158.226C454.723 141.651 436.048 122.734 445.203 103.94C457.784 78.1243 530.541 56.3803 601.19 91.9383C678.799 131.009 696.467 183.071 685.149 203.253Z" fill="url(#paint1_linear_1235_21649)"/>
<path d="M763.362 246.423C741.565 257.235 712.636 243.332 712.636 243.332C712.636 243.332 719.065 211.905 740.874 201.108C762.67 190.296 791.588 204.183 791.588 204.183C791.588 204.183 785.159 235.61 763.362 246.423Z" fill="url(#paint2_linear_1235_21649)"/>
<path d="M142.904 323.967C166.143 337.895 199.484 325.02 199.484 325.02C199.484 325.02 195.124 289.568 171.871 275.656C148.632 261.728 115.306 274.587 115.306 274.587C115.306 274.587 119.665 310.039 142.904 323.967Z" fill="url(#paint3_linear_1235_21649)"/>
<path d="M720.475 162.069C713.902 162.069 708.574 167.397 708.574 173.97C708.574 180.543 713.902 185.871 720.475 185.871C727.048 185.871 732.376 180.543 732.376 173.97C732.376 167.397 727.048 162.069 720.475 162.069Z" fill="#4F27AA"/>
<path d="M781.821 431.599C776.41 431.599 772.024 435.986 772.024 441.396C772.024 446.807 776.41 451.193 781.821 451.193C787.232 451.193 791.618 446.807 791.618 441.396C791.618 435.986 787.232 431.599 781.821 431.599Z" fill="#4F27AA"/>
<path d="M259.567 407.105C253.405 407.105 248.409 402.109 248.409 395.947C248.409 389.785 253.405 384.789 259.567 384.789C265.729 384.789 270.725 389.785 270.725 395.947C270.725 402.109 265.729 407.105 259.567 407.105Z" fill="#4F27AA"/>
<path d="M618.405 225.916C615.529 225.916 613.198 223.585 613.198 220.709C613.198 217.833 615.529 215.502 618.405 215.502C621.281 215.502 623.612 217.833 623.612 220.709C623.612 223.585 621.281 225.916 618.405 225.916Z" fill="#4F27AA"/>
<path d="M771.067 391.056C767.37 391.056 764.372 388.059 764.372 384.361C764.372 380.663 767.37 377.666 771.067 377.666C774.765 377.666 777.762 380.663 777.762 384.361C777.762 388.059 774.765 391.056 771.067 391.056Z" fill="#E1E4E5"/>
<path d="M180.521 393.201C175.18 393.201 170.851 388.872 170.851 383.531C170.851 378.191 175.18 373.861 180.521 373.861C185.862 373.861 190.191 378.191 190.191 383.531C190.191 388.872 185.862 393.201 180.521 393.201Z" fill="#E1E4E5"/>
<path d="M771.763 339.636C767.698 339.636 764.403 336.341 764.403 332.276C764.403 328.211 767.698 324.916 771.763 324.916C775.828 324.916 779.123 328.211 779.123 332.276C779.123 336.341 775.828 339.636 771.763 339.636Z" fill="#E1E4E5"/>
<path d="M649.659 146.003C645.14 146.003 641.477 142.339 641.477 137.821C641.477 133.302 645.14 129.639 649.659 129.639C654.178 129.639 657.841 133.302 657.841 137.821C657.841 142.339 654.178 146.003 649.659 146.003Z" fill="#E1E4E5"/>
<path d="M209.774 228.773C210.825 232.692 208.498 236.722 204.578 237.772C200.659 238.822 196.629 236.496 195.579 232.576C194.529 228.656 196.855 224.627 200.775 223.577C204.695 222.526 208.724 224.853 209.774 228.773Z" fill="#E1E4E5"/>
<path d="M392.556 96.6418C387.157 96.6418 382.781 92.2654 382.781 86.8668C382.781 81.4682 387.157 77.0918 392.556 77.0918C397.955 77.0918 402.331 81.4682 402.331 86.8668C402.331 92.2654 397.955 96.6418 392.556 96.6418Z" fill="#E1E4E5"/>
<path d="M700.973 330.583C696.821 330.583 693.454 327.89 693.454 324.568C693.454 321.246 696.821 318.553 700.973 318.553C705.126 318.553 708.492 321.246 708.492 324.568C708.492 327.89 705.126 330.583 700.973 330.583Z" fill="#E1E4E5"/>
<path d="M573.925 70.3044C576.11 78.4622 571.269 86.8474 563.111 89.0332C554.954 91.2191 546.569 86.3779 544.383 78.2202C542.197 70.0624 547.038 61.6772 555.196 59.4914C563.354 57.3055 571.739 62.1467 573.925 70.3044Z" fill="#E1E4E5"/>
<path d="M770.216 269.398H770.413C771.578 285.902 783.851 286.156 783.851 286.156C783.851 286.156 770.317 286.42 770.317 305.489C770.317 286.42 756.783 286.156 756.783 286.156C756.783 286.156 769.051 285.902 770.216 269.398ZM224.951 415.27H225.054C225.663 424.23 232.08 424.368 232.08 424.368C232.08 424.368 225.004 424.511 225.004 434.865C225.004 424.511 217.928 424.368 217.928 424.368C217.928 424.368 224.342 424.23 224.951 415.27Z" fill="#E1E4E5"/>
<path d="M509.528 281.15H728.69V512.287H509.528V281.15Z" fill="#4F27AA" stroke="#2E2445" stroke-width="4"/>
<path d="M295.106 435.306H510.632V512.287H295.106V435.306ZM354.622 358.228H570.148V435.209H354.622V358.228ZM444.384 281.15H659.91V358.131H444.384V281.15Z" fill="#4F27AA" stroke="#2E2445" stroke-width="4"/>
<path d="M263.682 206.214C263.682 176.755 239.8 152.873 210.341 152.873C180.882 152.873 157 176.755 157 206.214C157 235.673 180.882 259.555 210.341 259.555C239.8 259.555 263.682 235.673 263.682 206.214Z" fill="#4F27AA"/>
<path fill-rule="evenodd" clip-rule="evenodd" d="M234.585 228.589V232.156C234.585 234.125 233.008 235.723 231.065 235.723H188.827C186.884 235.723 185.307 234.125 185.307 232.156V228.532C185.307 217.739 197.479 210.727 209.946 210.727C222.413 210.727 234.585 217.743 234.585 228.532M218.78 179.393C223.661 184.274 223.661 192.187 218.78 197.068C213.899 201.948 205.986 201.948 201.105 197.068C196.225 192.187 196.225 184.274 201.105 179.393C205.986 174.512 213.899 174.512 218.78 179.393Z" fill="white"/>
<path d="M271.303 285.682H271.302C255.671 285.682 242.999 298.353 242.999 313.985V313.986C242.999 329.617 255.671 342.289 271.302 342.289H271.303C286.934 342.289 299.606 329.617 299.606 313.986V313.985C299.606 298.353 286.934 285.682 271.303 285.682Z" fill="#4F27AA"/>
<path fill-rule="evenodd" clip-rule="evenodd" d="M284.167 325.857V327.75C284.167 328.794 283.33 329.642 282.299 329.642H259.887C258.856 329.642 258.019 328.794 258.019 327.75V325.827C258.019 320.1 264.478 316.379 271.093 316.379C277.708 316.379 284.167 320.102 284.167 325.827M275.78 299.753C276.396 300.369 276.885 301.1 277.218 301.905C277.551 302.709 277.723 303.571 277.723 304.442C277.723 305.313 277.551 306.176 277.218 306.98C276.885 307.785 276.396 308.516 275.78 309.131C275.164 309.747 274.433 310.236 273.629 310.569C272.824 310.902 271.962 311.074 271.091 311.074C270.22 311.074 269.358 310.902 268.553 310.569C267.749 310.236 267.018 309.747 266.402 309.131C265.786 308.516 265.298 307.785 264.964 306.98C264.631 306.176 264.459 305.313 264.459 304.442C264.459 303.571 264.631 302.709 264.964 301.905C265.298 301.1 265.786 300.369 266.402 299.753C267.018 299.137 267.749 298.649 268.553 298.315C269.358 297.982 270.22 297.811 271.091 297.811C271.962 297.811 272.824 297.982 273.629 298.315C274.433 298.649 275.164 299.137 275.78 299.753Z" fill="white"/>
<path d="M548.895 123.48H548.894C533.262 123.48 520.591 136.152 520.591 151.783V151.784C520.591 167.416 533.262 180.087 548.894 180.087H548.895C564.526 180.087 577.198 167.416 577.198 151.784V151.783C577.198 136.152 564.526 123.48 548.895 123.48Z" fill="#4F27AA"/>
<path fill-rule="evenodd" clip-rule="evenodd" d="M561.758 163.656V165.549C561.758 166.594 560.922 167.442 559.891 167.442H537.479C536.448 167.442 535.611 166.594 535.611 165.549V163.626C535.611 157.899 542.069 154.178 548.685 154.178C555.3 154.178 561.758 157.901 561.758 163.626M553.372 137.552C553.991 138.167 554.483 138.898 554.82 139.704C555.156 140.51 555.33 141.374 555.332 142.247C555.333 143.12 555.163 143.984 554.829 144.791C554.496 145.598 554.007 146.331 553.389 146.948C552.772 147.566 552.039 148.055 551.232 148.388C550.425 148.722 549.56 148.893 548.687 148.891C547.814 148.889 546.95 148.715 546.145 148.379C545.339 148.043 544.608 147.551 543.993 146.931C542.757 145.686 542.064 144.001 542.068 142.247C542.071 140.492 542.769 138.81 544.01 137.569C545.251 136.329 546.933 135.63 548.687 135.627C550.442 135.624 552.127 136.316 553.372 137.552Z" fill="white"/>
<path d="M314.847 93H314.846C299.215 93 286.543 105.672 286.543 121.303V121.304C286.543 136.935 299.215 149.607 314.846 149.607H314.847C330.478 149.607 343.15 136.935 343.15 121.304V121.303C343.15 105.672 330.478 93 314.847 93Z" fill="#4F27AA"/>
<path fill-rule="evenodd" clip-rule="evenodd" d="M327.711 133.177V135.069C327.711 136.114 326.874 136.962 325.843 136.962H303.431C302.4 136.962 301.563 136.114 301.563 135.069V133.146C301.563 127.42 308.022 123.699 314.637 123.699C321.252 123.699 327.711 127.421 327.711 133.146M319.324 107.072C319.944 107.687 320.436 108.418 320.772 109.224C321.108 110.029 321.282 110.893 321.284 111.766C321.285 112.639 321.115 113.504 320.781 114.311C320.448 115.118 319.959 115.851 319.341 116.468C318.724 117.085 317.991 117.575 317.184 117.908C316.377 118.241 315.513 118.412 314.64 118.41C313.767 118.409 312.903 118.235 312.097 117.899C311.291 117.562 310.56 117.07 309.945 116.451C308.709 115.205 308.017 113.521 308.02 111.766C308.023 110.012 308.722 108.33 309.962 107.089C311.203 105.848 312.885 105.15 314.64 105.146C316.394 105.143 318.079 105.835 319.324 107.072Z" fill="white"/>
<path fill-rule="evenodd" clip-rule="evenodd" d="M684.501 219.942H688.417C689.364 219.942 690.126 220.712 690.126 221.651V225.567C690.126 226.02 689.946 226.455 689.625 226.775C689.305 227.096 688.87 227.276 688.417 227.276H684.501C683.562 227.276 682.791 226.506 682.791 225.567V221.651C682.791 221.426 682.835 221.204 682.921 220.996C683.006 220.789 683.132 220.6 683.291 220.441C683.45 220.283 683.639 220.157 683.846 220.071C684.054 219.985 684.277 219.942 684.501 219.942ZM698.078 219.942H701.994C702.933 219.942 703.703 220.712 703.703 221.651V225.567C703.703 226.02 703.523 226.455 703.202 226.775C702.882 227.096 702.447 227.276 701.994 227.276H698.078C697.139 227.276 696.369 226.506 696.369 225.567V221.651C696.369 220.712 697.139 219.942 698.078 219.942ZM711.664 219.942H715.58C716.519 219.942 717.289 220.712 717.289 221.651V225.567C717.289 226.02 717.109 226.455 716.788 226.775C716.468 227.096 716.033 227.276 715.58 227.276H711.664C710.725 227.276 709.955 226.506 709.955 225.567V221.651C709.955 221.427 709.999 221.204 710.084 220.996C710.17 220.789 710.296 220.6 710.455 220.441C710.613 220.283 710.802 220.157 711.01 220.071C711.217 219.985 711.44 219.942 711.664 219.942ZM725.241 219.942H729.157C730.096 219.942 730.866 220.712 730.866 221.651V225.567C730.866 226.02 730.686 226.455 730.365 226.775C730.045 227.096 729.61 227.276 729.157 227.276H725.241C724.294 227.276 723.524 226.506 723.524 225.567V221.651C723.529 221.198 723.712 220.765 724.033 220.445C724.354 220.125 724.788 219.945 725.241 219.942ZM738.819 219.942H742.735C743.682 219.942 744.453 220.712 744.453 221.651V225.567C744.453 226.514 743.682 227.276 742.735 227.276H738.819C737.88 227.276 737.11 226.506 737.11 225.567V221.651C737.11 220.712 737.88 219.942 738.819 219.942ZM698.576 234.747H702.492C703.431 234.747 704.201 235.518 704.201 236.456V240.381C704.201 241.319 703.431 242.09 702.492 242.09H698.576C697.629 242.09 696.866 241.319 696.866 240.381V236.464C696.865 236.239 696.908 236.016 696.994 235.807C697.079 235.599 697.205 235.409 697.364 235.25C697.523 235.09 697.712 234.964 697.92 234.877C698.128 234.791 698.351 234.747 698.576 234.747ZM712.153 234.747H716.069C717.008 234.747 717.778 235.518 717.778 236.456V240.381C717.778 241.319 717.008 242.09 716.069 242.09H712.153C711.701 242.088 711.267 241.908 710.947 241.588C710.627 241.267 710.446 240.834 710.444 240.381V236.464C710.443 236.239 710.486 236.016 710.571 235.807C710.657 235.599 710.782 235.409 710.941 235.25C711.1 235.09 711.289 234.964 711.497 234.877C711.705 234.791 711.928 234.747 712.153 234.747ZM725.731 234.747H729.647C730.594 234.747 731.364 235.518 731.364 236.456V240.381C731.364 241.319 730.594 242.09 729.647 242.09H725.731C725.279 242.088 724.845 241.908 724.525 241.588C724.205 241.267 724.024 240.834 724.022 240.381V236.464C724.022 235.518 724.792 234.747 725.731 234.747ZM711.664 204.037H715.58C716.519 204.037 717.289 204.807 717.289 205.746V209.662C717.289 210.115 717.109 210.55 716.788 210.87C716.468 211.191 716.033 211.371 715.58 211.371H711.664C710.725 211.371 709.955 210.601 709.955 209.662V205.746C709.955 205.522 709.999 205.299 710.084 205.091C710.17 204.884 710.296 204.695 710.455 204.536C710.613 204.378 710.802 204.252 711.01 204.166C711.217 204.08 711.44 204.037 711.664 204.037ZM725.241 204.037H729.157C730.096 204.037 730.866 204.807 730.866 205.746V209.662C730.866 210.115 730.686 210.55 730.365 210.87C730.045 211.191 729.61 211.371 729.157 211.371H725.241C724.294 211.371 723.524 210.601 723.524 209.662V205.746C723.529 205.293 723.712 204.86 724.033 204.54C724.354 204.22 724.788 204.04 725.241 204.037ZM200.076 489.913H203.992C204.446 489.913 204.88 490.094 205.201 490.414C205.521 490.735 205.701 491.17 205.701 491.623V495.539C205.701 495.992 205.521 496.427 205.2 496.747C204.88 497.068 204.445 497.248 203.992 497.248H200.076C199.137 497.248 198.367 496.478 198.367 495.539V491.623C198.367 491.398 198.411 491.176 198.496 490.968C198.582 490.761 198.708 490.572 198.867 490.413C199.025 490.254 199.214 490.128 199.421 490.043C199.629 489.957 199.852 489.913 200.076 489.913ZM213.653 489.913H217.569C218.508 489.913 219.278 490.684 219.278 491.623V495.539C219.278 495.992 219.098 496.427 218.777 496.747C218.457 497.068 218.022 497.248 217.569 497.248H213.653C212.714 497.248 211.944 496.478 211.944 495.539V491.623C211.944 490.684 212.714 489.913 213.653 489.913ZM227.239 489.913H231.155C232.094 489.913 232.865 490.684 232.865 491.623V495.539C232.865 495.992 232.685 496.427 232.364 496.748C232.043 497.068 231.609 497.248 231.155 497.248H227.239C226.3 497.248 225.53 496.478 225.53 495.539V491.623C225.53 491.398 225.573 491.176 225.659 490.968C225.745 490.761 225.871 490.572 226.029 490.413C226.188 490.254 226.377 490.128 226.584 490.043C226.792 489.957 227.015 489.913 227.239 489.913ZM240.816 489.913H244.732C245.671 489.913 246.442 490.684 246.442 491.623V495.539C246.442 495.992 246.262 496.427 245.941 496.748C245.62 497.068 245.186 497.248 244.732 497.248H240.816C239.869 497.248 239.099 496.478 239.099 495.539V491.623C239.104 491.17 239.287 490.737 239.608 490.417C239.929 490.097 240.363 489.916 240.816 489.913ZM254.395 489.913H258.311C259.257 489.913 260.028 490.684 260.028 491.623V495.539C260.028 496.486 259.257 497.248 258.311 497.248H254.395C253.456 497.248 252.685 496.478 252.685 495.539V491.623C252.685 490.684 253.456 489.913 254.395 489.913ZM214.151 504.719H218.067C219.006 504.719 219.776 505.489 219.776 506.428V510.352C219.776 511.291 219.006 512.061 218.067 512.061H214.151C213.698 512.061 213.263 511.881 212.943 511.56C212.623 511.24 212.442 510.805 212.442 510.352V506.436C212.441 506.211 212.484 505.988 212.569 505.779C212.655 505.571 212.78 505.382 212.939 505.222C213.098 505.062 213.287 504.936 213.495 504.849C213.703 504.763 213.926 504.719 214.151 504.719ZM227.728 504.719H231.644C232.583 504.719 233.353 505.489 233.353 506.428V510.352C233.353 511.291 232.583 512.061 231.644 512.061H227.728C226.789 512.061 226.019 511.291 226.019 510.352V506.436C226.018 506.211 226.061 505.988 226.146 505.779C226.232 505.571 226.357 505.382 226.516 505.222C226.675 505.062 226.864 504.936 227.072 504.849C227.28 504.763 227.503 504.719 227.728 504.719ZM241.306 504.719H245.222C246.169 504.719 246.939 505.489 246.939 506.428V510.352C246.939 511.291 246.169 512.061 245.222 512.061H241.306C240.367 512.061 239.597 511.291 239.597 510.352V506.436C239.597 505.489 240.367 504.719 241.306 504.719ZM227.239 474.008H231.155C232.094 474.008 232.865 474.779 232.865 475.718V479.634C232.865 480.087 232.685 480.522 232.364 480.843C232.043 481.163 231.609 481.343 231.155 481.343H227.239C226.3 481.343 225.53 480.573 225.53 479.634V475.718C225.53 475.493 225.573 475.271 225.659 475.063C225.745 474.856 225.871 474.667 226.029 474.508C226.188 474.349 226.377 474.223 226.584 474.138C226.792 474.052 227.015 474.008 227.239 474.008ZM240.816 474.008H244.732C245.671 474.008 246.442 474.779 246.442 475.718V479.634C246.442 480.087 246.262 480.522 245.941 480.843C245.62 481.163 245.186 481.343 244.732 481.343H240.816C239.869 481.343 239.099 480.573 239.099 479.634V475.718C239.104 475.265 239.287 474.832 239.608 474.512C239.929 474.192 240.363 474.011 240.816 474.008Z" fill="#E1E4E5"/>
<path d="M550.366 372.093C558.928 369.201 566.348 363.04 570.682 355.137C571.905 352.958 572.905 350.454 572.576 347.976C572.492 347.471 572.364 346.874 571.91 346.638C571.501 346.403 570.95 346.532 570.49 346.662C556.189 350.521 541.07 357.023 526.06 356.337C525.373 356.326 524.687 356.27 524.087 356.536C523.35 356.845 522.882 357.525 522.55 358.253C521.415 360.617 520.431 365.09 520.803 367.751C521.259 370.918 524.32 371.377 527.011 372.059C534.675 374.007 542.725 374.679 550.366 372.093Z" fill="#F8AE9D"/>
<path d="M551.688 354.346C552.84 353.86 554.038 353.373 555.275 353.346C556.511 353.319 557.875 353.982 558.269 355.178C558.531 356.007 558.289 356.873 557.957 357.647C557.056 359.648 555.475 361.272 553.804 362.712C547.403 368.111 539.202 371.375 530.814 371.888C527.101 372.107 523.213 371.773 519.943 370.029C521.576 368.039 521.253 365.194 521.428 362.678C521.952 355.313 528.229 358.111 533.267 358.096C539.589 357.963 545.881 356.73 551.688 354.346Z" fill="#F8AE9D"/>
<path d="M360.086 299.871L359.799 300.691C357.787 306.522 356.23 312.543 355.587 318.716C354.407 330.055 356.633 343.323 365.163 351.558C376.536 362.538 394.783 364.235 409.614 361.621C415.685 360.56 421.401 358.02 426.258 354.226C431.091 358.605 436.285 363.4 440.607 368.274C449.289 365.237 457.552 361.116 465.202 356.009C483.302 364.298 501.764 369.89 521.256 373.941C523.484 368.399 525.048 362.612 525.915 356.702C526.067 355.743 513.918 347.544 512.516 346.378C508.311 342.834 499.55 334.732 499.55 334.732C499.55 334.732 510.592 325.329 515.422 320.915C520.531 316.326 525.433 311.511 530.112 306.484C533.976 302.329 537.752 297.945 540.12 292.76C542.488 287.621 543.359 281.544 541.379 276.202C535.129 259.575 509.899 265.42 498.181 271.149C488.492 275.902 480.006 282.825 471.84 289.845C468.546 292.634 465.296 295.516 462.094 298.352C459.569 295.749 456.781 292.364 454.395 289.626C451.83 286.656 448.896 283.864 445.35 282.116C441.624 280.227 438.185 280.496 434.21 279.932C432.428 279.675 430.696 279.145 428.96 278.844C423.754 277.895 418.243 278.91 413.669 281.589C409.325 284.133 405.799 287.148 400.701 288.123C394.914 289.226 388.193 288.575 382.389 287.799C377.179 287.079 371.885 285.9 366.694 286.92C364.536 287.345 363.711 290.355 362.998 292.084C362.044 294.589 361.043 297.184 360.086 299.871ZM406.072 108.092C406.072 108.092 392.06 105.864 388.298 130.6C384.117 158.099 372.952 153.575 355.223 175.904C344.861 188.952 355.765 211.994 377.924 211.537C400.083 211.092 420.095 204.685 432.841 207.426C445.588 210.167 446.288 177.52 433.712 167.447C421.135 157.375 447.949 128.449 431.61 115.569C415.27 102.688 406.072 108.092 406.072 108.092Z" fill="#2E2445"/>
<path d="M322.317 217.168C321.039 214.542 321.116 211.491 321.578 208.644C323.575 196.426 332.138 186.215 341.953 178.733C351.8 171.231 363.071 165.876 373.431 159.154C376.12 157.403 378.815 155.517 381.903 154.571C384.99 153.625 388.578 153.727 391.127 155.717C392.927 157.114 393.967 159.274 394.572 161.434C395.899 166.164 395.39 171.173 394.581 175.971C393.569 182.023 392.084 188.012 389.646 193.574C387.691 198.061 384.509 202.678 379.727 203.557C378.343 208.919 375.494 213.945 371.498 217.79C366.927 222.198 361.132 225.081 355.118 227.094C349.577 228.953 343.517 230.167 337.943 228.432C334.635 227.422 331.721 225.477 328.871 223.493C326.329 221.803 323.691 219.954 322.317 217.168ZM372.395 209.02L375.666 203.827C374.969 203.899 374.311 204.034 373.646 204.304C371.851 205.081 370.769 207.91 372.395 209.02Z" fill="#2E2445"/>
<path d="M433.01 129.846C433.179 130.765 433.21 131.727 433.148 132.825C432.777 139.239 431.399 145.554 429.063 151.539C427.635 155.089 425.888 158.588 423.416 161.528C422.39 162.748 421.228 163.876 419.71 164.31C418.146 164.745 416.176 164.806 414.625 164.416C413.257 170.074 413.828 180.753 418.712 184.765C420.205 185.979 421.98 186.738 423.755 187.406C427.215 188.741 430.818 189.758 434.424 190.545C438.532 191.432 443.009 192.095 445.894 195.116C446.255 195.487 446.614 195.997 446.469 196.498C446.372 196.817 446.14 197.043 445.862 197.222C443.59 199.065 440.782 200.075 437.973 201.04C433.048 202.706 427.99 204.094 422.847 205.023C417.474 205.995 411.926 206.46 406.485 205.874C402.279 205.398 398.128 204.327 394.31 202.438C390.31 200.454 386.214 198.834 382.075 196.94C378.573 195.329 375.121 193.491 371.33 192.838C373.122 189.431 376.86 187.518 380.583 186.613C384.306 185.754 388.199 185.676 391.966 184.954C393.206 184.698 394.447 184.397 395.512 183.634C398.429 181.526 397.63 176.843 397.676 173.776L397.824 164.07C397.391 159.438 395.48 155.562 393.804 151.324C391.247 144.828 390.718 137.447 392.971 130.795C395.224 124.189 400.349 118.451 406.933 116.124C413.517 113.797 421.419 115.108 426.474 119.947C429.679 123.064 432.292 125.851 433.01 129.846Z" fill="#F8AE9D"/>
<path d="M412.763 109.205C419.325 108.473 425.305 111.686 429.738 116.667C433.468 120.843 435.66 126.355 435.549 131.893C435.534 132.684 435.444 133.546 434.999 134.256C433.813 135.959 431.236 135.332 429.308 134.574C426.167 133.36 423.828 131.587 420.98 130.091C418.132 128.595 414.674 128.814 412.125 126.748C409.718 124.757 401.456 120.563 401.233 117.321C400.952 113.358 408.212 110.122 411.247 109.463C411.681 109.328 412.186 109.266 412.763 109.205Z" fill="#2E2445"/>
<path d="M393.858 118.177C388.309 121.755 385.705 128.024 385.416 134.686C385.164 140.279 386.947 145.937 390.532 150.159C391.045 150.762 391.658 151.374 392.453 151.643C394.447 152.214 396.049 150.099 397.064 148.294C398.732 145.368 399.424 142.516 400.687 139.557C401.949 136.597 404.767 134.582 405.438 131.371C406.045 128.307 409.799 119.835 407.923 117.182C405.637 113.933 397.965 116.011 395.196 117.418C394.774 117.588 394.343 117.859 393.858 118.177Z" fill="#2E2445"/>
<path d="M443.214 193.701C444.09 193.302 445.139 193.593 445.722 194.38C452.269 203.547 454.796 215.034 457.01 226.104C459.52 238.69 461.756 251.317 463.899 263.943C464.027 264.586 464.108 265.275 463.824 265.866C463.54 266.457 462.895 266.767 462.295 267.033C458.512 268.853 454.685 270.627 450.902 272.447C446.82 263.159 443.877 253.412 442.138 243.417C439.709 249.563 435.324 254.9 429.729 258.387C433.898 264.358 439.028 276.296 444.032 281.547C444.798 282.383 449.534 281.081 450.593 280.731C451.251 282.618 448.168 280.603 448.184 282.526C445.339 282.941 441.701 281.237 438.776 280.872C435.248 280.46 431.686 280.436 428.153 280.802C422.281 281.446 416.575 283.282 411.358 286.042C408.765 287.423 406.277 288.992 403.914 290.738C401.876 292.264 396.83 295.851 396.83 295.851C396.459 296.12 394.725 295.727 394.314 295.629C393.117 295.426 391.913 295.27 390.704 295.162C387.668 294.925 384.647 294.528 381.654 293.972C375.672 292.873 369.79 291.181 364.147 288.851C363.604 288.431 365.542 284.431 365.646 283.654C365.543 284.385 354.429 283.483 353.333 283.283C348.95 282.393 344.515 281.913 340.133 280.976C342.096 263.33 347.484 246.284 352.778 229.375C354.848 222.721 356.964 216.067 359.899 209.792C363.023 203.107 367.056 196.849 371.903 191.29C372.042 191.155 372.273 191.067 372.455 191.115C374.782 191.7 388.968 195.35 396.027 197.976C399.623 199.359 403.268 200.605 406.958 201.851C408.416 202.331 409.92 202.812 411.432 202.789C412.44 202.759 413.451 202.545 414.416 202.331C424.249 200.145 434.085 197.776 443.214 193.701Z" fill="#4F27AA"/>
<path d="M379.211 228.859C378.807 231.371 378.264 233.927 377.722 236.438C376.403 242.135 374.712 247.739 372.659 253.213C371.61 255.945 370.516 258.63 369.284 261.313C368.669 262.632 368.054 263.951 367.393 265.269C367.062 265.905 366.731 266.587 366.401 267.223C366.118 267.768 365.79 268.267 365.508 268.766C367.478 268.705 377.201 269.265 379.213 269.433" stroke="white" stroke-width="1.376" stroke-miterlimit="10" stroke-linecap="round"/>
<path d="M379.528 271.408C379.324 272.695 379.075 273.974 378.782 275.244L377.9 279.077C377.609 280.172 376.947 281.535 376.929 282.68C376.933 282.451 384.728 281.791 385.462 281.711C393.579 280.918 401.738 280.447 409.851 279.929C415.123 279.597 420.296 279.721 425.562 279.755C427.118 279.779 428.952 279.624 429.796 278.354C430.499 277.266 429.925 275.883 430.49 274.884C430.855 274.981 435.097 276.053 435.053 275.961C435.221 276.925 435.557 278.945 436.557 279.419C436.921 279.561 437.287 279.613 437.653 279.618C438.203 279.627 438.753 279.543 439.304 279.46C439.389 279.46 439.471 279.428 439.535 279.372C439.628 279.282 439.538 279.143 439.449 279.004C438.2 277.159 437.546 274.976 437.574 272.748C436.26 271.858 434.948 270.831 433.82 269.714C432.918 268.785 432.249 267.584 431.254 266.79C430.214 265.904 429.198 266.439 428.049 266.742C426.719 267.039 425.4 267.386 424.095 267.781C421.564 268.566 419.031 269.535 416.9 271.106C416.159 271.644 415.464 272.229 414.59 272.49C413.761 272.753 412.846 272.739 411.976 272.725C406.62 272.598 401.266 272.334 395.963 271.75C390.522 271.163 386.811 271.244 379.684 270.174C379.683 270.22 379.677 270.632 379.528 271.408Z" fill="#F8AE9D"/>
<path d="M438.511 228.352C439.792 233.887 440.715 239.477 441.34 245.18" stroke="white" stroke-width="1.376" stroke-miterlimit="10" stroke-linecap="round"/>
<path d="M546.503 219.219L530.784 289.32L411.426 287.507C411.489 283.386 414.882 280.049 419.049 280.112L447.572 280.546L461.786 216.054C462.23 213.954 464.13 212.472 466.236 212.504L542.146 213.657C545.03 213.747 547.142 216.389 546.503 219.219Z" fill="#2E2445"/>
<path d="M390.582 390.503C391.135 387.306 392.696 384.032 394.159 381.17C400.198 369.446 410.994 361.184 422.621 355.499C423.82 354.922 425.019 354.345 426.262 353.906C426.169 354.042 426.075 354.178 425.981 354.36L425.98 354.405H425.934C426.073 354.315 426.166 354.225 426.305 354.136C431.003 358.374 436.015 363.03 440.295 367.72C437.466 370.013 433.362 371.874 431.324 373.4C426.508 376.944 421.871 380.721 416.875 384.033C410.166 388.557 403.018 391.837 395.028 393.273C391.952 393.821 390.34 394.392 390.376 392.011C390.428 391.646 390.481 391.143 390.582 390.503Z" fill="#F8AE9D"/>
<path d="M398.372 381.279C401.484 375.419 406.314 370.959 411.595 367.009C415.301 364.226 419.231 361.721 422.979 359.168C424.044 358.452 426.134 356.514 427.934 355.58C431.683 358.98 435.521 362.564 438.991 366.281C427.528 373.25 417.315 382.346 404.738 387.284C403.587 387.724 402.389 388.164 401.153 388.191C399.916 388.218 398.596 387.694 397.878 386.676C396.757 385.102 397.477 382.96 398.372 381.279Z" fill="#F8AE9D"/>
<path d="M227.694 345.554H227.82C228.57 356.008 236.468 356.169 236.468 356.169C236.468 356.169 227.759 356.336 227.759 368.415C227.759 356.336 219.05 356.169 219.05 356.169C219.05 356.169 226.944 356.008 227.694 345.554ZM299.541 245.403H299.668C300.417 255.857 308.315 256.018 308.315 256.018C308.315 256.018 299.606 256.185 299.606 268.264C299.606 256.185 290.897 256.018 290.897 256.018C290.897 256.018 298.792 255.857 299.541 245.403ZM261.44 131.101H261.567C262.316 141.554 270.214 141.715 270.214 141.715C270.214 141.715 261.505 141.883 261.505 153.961C261.505 141.883 252.796 141.715 252.796 141.715C252.796 141.715 260.691 141.554 261.44 131.101ZM491.134 132.189H491.26C492.01 142.643 499.907 142.804 499.907 142.804C499.907 142.804 491.199 142.971 491.199 155.05C491.199 142.971 482.49 142.804 482.49 142.804C482.49 142.804 490.384 142.643 491.134 132.189ZM362.696 93H362.791C363.353 100.467 369.276 100.582 369.276 100.582C369.276 100.582 362.745 100.701 362.745 109.329C362.745 100.701 356.213 100.582 356.213 100.582C356.213 100.582 362.134 100.467 362.696 93ZM572.779 195.328H572.905C573.655 205.781 581.552 205.942 581.552 205.942C581.552 205.942 572.843 206.11 572.843 218.188C572.843 206.11 564.135 205.942 564.135 205.942C564.135 205.942 572.029 205.781 572.779 195.328ZM308.25 359.706H308.376C309.126 370.159 317.023 370.32 317.023 370.32C317.023 370.32 308.315 370.488 308.315 382.566C308.315 370.488 299.606 370.32 299.606 370.32C299.606 370.32 307.5 370.159 308.25 359.706Z" fill="#E1E4E5"/>
</g>
<defs>
<linearGradient id="paint0_linear_1235_21649" x1="582.89" y1="729.494" x2="356.629" y2="-291.319" gradientUnits="userSpaceOnUse">
<stop stop-color="white"/>
<stop offset="1" stop-color="#EEEEEE"/>
</linearGradient>
<linearGradient id="paint1_linear_1235_21649" x1="607.205" y1="337.078" x2="504.079" y2="-126.329" gradientUnits="userSpaceOnUse">
<stop stop-color="white"/>
<stop offset="1" stop-color="#EEEEEE"/>
</linearGradient>
<linearGradient id="paint2_linear_1235_21649" x1="679.661" y1="280.149" x2="859.44" y2="137.943" gradientUnits="userSpaceOnUse">
<stop stop-color="white"/>
<stop offset="1" stop-color="#EEEEEE"/>
</linearGradient>
<linearGradient id="paint3_linear_1235_21649" x1="232.832" y1="368.801" x2="45.8441" y2="195.064" gradientUnits="userSpaceOnUse">
<stop stop-color="white"/>
<stop offset="1" stop-color="#EEEEEE"/>
</linearGradient>
<clipPath id="clip0_1235_21649">
<rect width="900" height="600" fill="white"/>
</clipPath>
</defs>
</svg>
