<svg width="900" height="600" viewBox="0 0 900 600" fill="none" xmlns="http://www.w3.org/2000/svg">
<g clip-path="url(#clip0_1235_18050)">
<path fill-rule="evenodd" clip-rule="evenodd" d="M612.852 140.324C650.175 140.324 680.707 170.623 680.707 207.661C680.707 244.699 650.175 274.998 612.852 274.998C605.365 274.998 599.233 281.084 599.233 288.514C599.233 295.944 605.365 302.029 612.852 302.029H648.358C666.565 302.029 681.464 316.815 681.464 334.883C681.464 352.951 666.565 367.736 648.358 367.736C632.611 367.736 619.726 380.523 619.726 396.15C619.726 424.661 596.22 447.988 567.489 447.988H260.844C223.521 447.988 192.989 417.689 192.989 380.651C192.989 343.613 223.521 313.314 260.844 313.314H267.407C274.895 313.314 281.027 307.236 281.027 299.798C281.027 292.368 274.902 286.283 267.407 286.283H223.226C205.018 286.283 190.12 271.497 190.12 253.429C190.12 235.383 204.981 220.613 223.157 220.576H258.709C274.456 220.576 287.341 207.789 287.341 192.162C287.341 163.651 310.847 140.324 339.578 140.324H612.852Z" fill="url(#paint0_linear_1235_18050)"/>
<path d="M480.803 287.791L468.518 284.054L415.111 282.482L403.066 285.77L404.638 315.119L431.887 332.505L458.317 331.975L474.933 316.835L478.622 301.824L480.803 287.791Z" fill="#F8AE9D"/>
<path d="M326.613 334.991C330.478 327.02 334.183 320.621 337.487 315.569C343.973 305.614 353.894 298.393 365.361 295.281L408.92 283.477C408.92 283.477 411.182 327.004 441.141 327.004C471.1 327.004 476.938 286.187 476.938 286.187L527.345 306.299C529.077 306.972 540.769 311.014 554.369 340.187C567.328 367.965 572.99 382.191 572.99 382.191L521.058 397.186L517.819 443.889L518.925 470.561L361.303 470.208L362.185 439.719L361.528 392.968L359.555 396.16L307.095 375.118C307.095 375.118 313.847 361.261 326.613 334.991Z" fill="#4F27AA"/>
<path d="M446.231 303.32C433.447 303.084 418.924 278.148 418.924 278.148L418.09 214.094C417.422 195.645 428.898 179.926 449.583 179.84L451.503 179.926C470.755 180.845 486.001 194.789 486.516 211.972C487.003 227.964 487.295 245.631 486.669 254.166C485.361 271.833 465.205 268.851 465.205 268.851C465.163 268.851 465.26 277.751 465.205 282.949C465.052 294.623 451.364 303.717 446.231 303.32Z" fill="#F8AE9D"/>
<path d="M424.477 217.608C424.125 217.44 410.355 212.842 410.048 226.443C409.74 240.044 424.155 237.536 424.184 237.145C424.213 236.755 424.477 217.608 424.477 217.608ZM568.515 383.49L589.637 425.879C591.997 430.615 593.102 435.877 592.845 441.163C592.043 457.618 578.459 470.561 561.988 470.561L500.919 469.601L498.766 439.415L544.859 428.301L527.393 395.278L568.515 383.49ZM309.773 376.193C309.773 376.193 296.67 415.118 282.38 450.498C282.091 451.203 281.771 452.519 281.514 453.24C278.29 462.013 287.993 470.561 297.793 470.561L380.373 470.417V443.569L329.003 432.663L347.607 391.349L309.773 376.193Z" fill="#F8AE9D"/>
<path d="M475.286 442.335C475.27 442.431 473.393 441.838 470.266 441.645C467.155 441.437 462.744 441.79 458.35 443.666C453.955 445.543 450.635 448.478 448.647 450.867C446.626 453.257 445.76 455.037 445.68 454.973C445.648 454.957 445.84 454.508 446.273 453.738C446.706 452.968 447.396 451.878 448.374 450.643C450.331 448.157 453.667 445.11 458.157 443.201C462.648 441.293 467.155 440.972 470.298 441.293C471.87 441.437 473.137 441.693 473.987 441.918C474.837 442.126 475.302 442.303 475.286 442.335ZM472.463 435.84C472.431 435.968 470.523 435.022 467.235 434.925C463.963 434.781 459.36 435.775 455.062 438.374C450.764 440.988 447.54 444.292 445.263 446.665C444.172 447.82 443.274 448.782 442.568 449.52C441.927 450.194 441.574 450.562 441.542 450.53C441.51 450.514 441.831 450.097 442.424 449.392C443.259 448.386 444.115 447.397 444.99 446.425C447.219 443.987 450.427 440.603 454.805 437.94C459.184 435.294 463.915 434.332 467.251 434.573C468.919 434.669 470.25 434.973 471.132 435.278C471.581 435.406 471.902 435.567 472.127 435.663C472.351 435.759 472.463 435.823 472.463 435.84Z" fill="#EB996E"/>
<path d="M363.003 438.646H374.856C374.856 438.646 401.607 428.975 407.108 429.905C412.064 430.739 430.203 442.784 433.763 445.173C434.164 445.446 434.453 445.815 434.629 446.264C434.978 447.207 434.947 448.249 434.543 449.171C434.14 450.092 433.394 450.821 432.464 451.204L432.095 451.364L432.256 451.909C432.464 452.583 432.561 453.337 432.528 454.075C432.4 456.625 428.968 457.394 427.669 455.197L428.359 456.416C428.631 456.913 428.776 457.475 428.743 458.036L428.679 459.143C428.645 459.742 428.43 460.316 428.064 460.791C427.698 461.266 427.196 461.619 426.626 461.805C426.084 461.985 425.501 462.004 424.949 461.858C424.396 461.713 423.898 461.41 423.515 460.987C421.222 458.453 416.25 453.385 412.882 452.824C409.899 452.326 404.911 452.262 401.896 452.278C401.149 452.279 400.419 452.507 399.804 452.93C399.189 453.354 398.716 453.954 398.448 454.652C400.436 454.796 414.341 462.045 419.265 464.644C420.789 465.446 421.927 466.889 422.12 468.605C422.296 470.145 421.526 471.765 418.479 471.043C411.936 469.519 400.18 464.114 400.18 464.114C400.18 464.114 394.117 462.382 390.188 465.157C384.655 469.054 382.121 470.481 377.374 468.91C372.626 467.338 369.13 465.077 369.13 465.077L359.78 464.146C359.748 464.146 350.911 442.046 363.003 438.646Z" fill="#F8AE9D"/>
<path d="M398.335 443.169C398.352 443.265 400.228 442.672 403.355 442.479C406.467 442.271 410.877 442.624 415.272 444.5C419.666 446.377 422.986 449.312 424.975 451.701C426.996 454.091 427.862 455.871 427.942 455.807C427.974 455.791 427.781 455.342 427.348 454.572C426.729 453.487 426.027 452.452 425.247 451.477C423.291 448.991 419.955 445.944 415.464 444.035C410.973 442.127 406.467 441.806 403.323 442.127C402.079 442.235 400.845 442.444 399.635 442.752C398.785 442.977 398.319 443.137 398.335 443.169ZM401.158 436.674C401.19 436.802 403.098 435.856 406.386 435.759C409.658 435.615 414.261 436.609 418.559 439.208C422.857 441.822 426.081 445.126 428.358 447.499C429.449 448.654 430.347 449.616 431.053 450.354C431.694 451.028 432.047 451.396 432.079 451.364C432.111 451.348 431.791 450.931 431.197 450.226C430.362 449.219 429.507 448.23 428.631 447.259C426.402 444.821 423.194 441.437 418.816 438.775C414.437 436.128 409.706 435.166 406.37 435.407C404.702 435.503 403.371 435.807 402.489 436.112C402.04 436.241 401.719 436.401 401.495 436.497C401.27 436.593 401.158 436.658 401.158 436.674Z" fill="#EB996E"/>
<path d="M379.042 471.314H503.481C505.183 471.316 506.82 470.659 508.048 469.481C509.277 468.303 510.002 466.696 510.072 464.995L513.809 379.351C513.97 375.598 510.971 372.455 507.218 372.455H375.545C371.792 372.455 368.793 375.582 368.938 379.335L372.434 464.995C372.578 468.523 375.497 471.314 379.042 471.314Z" fill="#2E2445"/>
<path d="M428.807 423.469C428.806 425.141 429.134 426.796 429.773 428.341C430.412 429.885 431.349 431.289 432.531 432.471C433.713 433.653 435.116 434.59 436.661 435.229C438.205 435.868 439.86 436.196 441.532 436.195C443.204 436.197 444.859 435.868 446.404 435.229C447.948 434.59 449.352 433.653 450.534 432.471C451.716 431.289 452.653 429.886 453.292 428.341C453.931 426.796 454.259 425.141 454.258 423.469C454.259 421.798 453.931 420.142 453.292 418.598C452.653 417.053 451.716 415.65 450.534 414.468C449.352 413.286 447.948 412.349 446.404 411.71C444.859 411.071 443.204 410.743 441.532 410.744C434.496 410.744 428.807 416.463 428.807 423.469Z" fill="white"/>
<path d="M429.289 242.389H418.062V290.503H429.289V242.389Z" fill="#F8AE9D"/>
<path d="M424.882 199.396C426.905 202.006 430.473 202.581 433.412 203.098C437.362 203.791 439.317 205.236 441.368 209.115C442.666 211.592 443.965 214.306 446.289 215.648C448.178 216.744 448.11 213.95 448.409 211.787C448.437 211.596 448.476 211.406 448.525 211.218C448.982 209.491 450.821 209.785 451.36 211.489C451.852 213.023 452.905 214.321 454.245 215.043C454.463 215.161 454.696 215.264 454.928 215.22C455.242 215.176 455.488 214.881 455.693 214.616C456.123 214.06 456.55 213.353 456.991 212.606C458.44 210.149 461.183 211.027 462.802 213.377C463.813 214.837 465.016 216.341 466.67 216.68C467.203 216.798 467.873 216.71 468.119 216.194C468.434 215.559 467.942 214.925 468.024 214.276C468.092 213.672 468.352 213.406 468.639 212.89C469.765 210.887 472.343 210.815 473.928 212.479C475.031 213.636 476.181 214.747 477.374 215.81C477.879 216.253 478.617 216.695 479.123 216.253C479.397 216.017 479.465 215.618 479.52 215.235C479.807 213.362 480.08 211.489 480.367 209.616C480.531 208.569 481.092 207.197 482.049 207.463C482.513 207.596 482.787 208.082 483.046 208.525C483.361 209.085 488.979 215.471 489.088 214.984C489.963 211.356 491.754 208.053 492.629 204.425C498.288 181.079 473.177 162.305 453.998 162.202C449.734 162.173 445.838 162.242 441.696 163.23C437.28 164.292 432.619 165.978 428.614 168.352C422.996 171.67 418.744 177.702 419.838 184.899" fill="#2E2445"/>
<path d="M434.968 191.505C437.79 194.604 438.537 198.963 438.8 203.081C439.187 209.291 438.662 215.743 435.701 221.256C434.858 222.826 434.235 230.592 432.935 230.163C432.52 230.029 432.589 224.006 431.496 220.76C429.808 215.73 422.034 213.812 418.534 216.991C412.946 222.048 416.224 228.191 418.078 232.014C419.185 234.321 420.941 236.91 421.246 239.351C421.619 242.477 421.73 253.865 419.627 256.521C417.87 258.747 416.003 247.99 414.412 245.87C402.64 230.083 391.352 189.882 411.452 181.163C414.509 179.835 423.943 179.151 426.807 180.841" fill="#2E2445"/>
<path fill-rule="evenodd" clip-rule="evenodd" d="M565.563 201.794H569.306C570.211 201.794 570.94 201.058 570.94 200.16V196.417C570.94 195.512 570.204 194.783 569.306 194.783H565.563C565.13 194.785 564.715 194.957 564.409 195.263C564.103 195.569 563.931 195.984 563.929 196.417V200.16C563.928 200.375 563.97 200.587 564.052 200.786C564.134 200.984 564.255 201.165 564.406 201.317C564.558 201.468 564.739 201.589 564.937 201.671C565.136 201.753 565.348 201.795 565.563 201.794ZM578.542 201.794H582.285C582.718 201.792 583.133 201.62 583.439 201.314C583.745 201.008 583.917 200.593 583.919 200.16V196.417C583.919 195.512 583.183 194.783 582.285 194.783H578.542C578.109 194.785 577.694 194.957 577.388 195.263C577.082 195.569 576.91 195.984 576.908 196.417V200.16C576.91 200.593 577.082 201.008 577.388 201.314C577.694 201.62 578.109 201.792 578.542 201.794ZM591.529 201.794H595.272C595.705 201.792 596.12 201.62 596.426 201.314C596.732 201.008 596.904 200.593 596.906 200.16V196.417C596.906 195.512 596.17 194.783 595.272 194.783H591.529C591.096 194.785 590.681 194.957 590.375 195.263C590.069 195.569 589.897 195.984 589.895 196.417V200.16C589.894 200.375 589.936 200.587 590.018 200.786C590.1 200.984 590.221 201.165 590.372 201.317C590.524 201.468 590.705 201.589 590.903 201.671C591.102 201.753 591.314 201.795 591.529 201.794ZM604.508 201.794H608.251C608.684 201.792 609.099 201.62 609.405 201.314C609.711 201.008 609.883 200.593 609.885 200.16V196.417C609.885 195.512 609.149 194.783 608.251 194.783H604.508C603.603 194.783 602.866 195.519 602.866 196.417V200.16C602.871 200.593 603.045 201.007 603.353 201.313C603.66 201.619 604.075 201.791 604.508 201.794ZM617.488 201.794H621.231C622.136 201.794 622.873 201.058 622.873 200.16V196.417C622.873 195.512 622.136 194.783 621.231 194.783H617.488C617.055 194.785 616.64 194.957 616.334 195.263C616.028 195.569 615.856 195.984 615.854 196.417V200.16C615.856 200.593 616.028 201.008 616.334 201.314C616.64 201.62 617.055 201.792 617.488 201.794ZM579.018 187.642H582.761C583.658 187.642 584.395 186.905 584.395 186.008V182.256C584.393 181.823 584.22 181.409 583.914 181.103C583.608 180.797 583.194 180.625 582.761 180.623H579.018C578.112 180.623 577.384 181.359 577.384 182.256V186C577.383 186.215 577.424 186.429 577.506 186.628C577.587 186.827 577.707 187.009 577.859 187.161C578.011 187.314 578.192 187.435 578.391 187.517C578.589 187.6 578.803 187.642 579.018 187.642ZM591.997 187.642H595.74C596.173 187.64 596.588 187.468 596.894 187.162C597.2 186.856 597.372 186.441 597.374 186.008V182.256C597.372 181.823 597.199 181.409 596.893 181.103C596.587 180.797 596.173 180.625 595.74 180.623H591.997C591.564 180.625 591.15 180.797 590.844 181.103C590.538 181.409 590.365 181.823 590.363 182.256V186C590.362 186.215 590.403 186.429 590.485 186.628C590.566 186.827 590.686 187.009 590.838 187.161C590.99 187.314 591.171 187.435 591.37 187.517C591.568 187.6 591.782 187.642 591.997 187.642ZM604.976 187.642H608.719C609.625 187.642 610.361 186.905 610.361 186.008V182.256C610.361 181.359 609.625 180.623 608.719 180.623H604.976C604.543 180.625 604.129 180.797 603.823 181.103C603.517 181.409 603.344 181.823 603.342 182.256V186C603.342 186.905 604.079 187.642 604.976 187.642ZM591.529 216.999H595.272C595.705 216.997 596.12 216.825 596.426 216.519C596.732 216.213 596.904 215.798 596.906 215.365V211.621C596.906 210.716 596.17 209.987 595.272 209.987H591.529C591.096 209.989 590.681 210.161 590.375 210.467C590.069 210.773 589.897 211.188 589.895 211.621V215.365C589.894 215.58 589.936 215.792 590.018 215.991C590.1 216.189 590.221 216.37 590.372 216.522C590.524 216.673 590.705 216.794 590.903 216.876C591.102 216.958 591.314 217 591.529 216.999ZM604.508 216.999H608.251C608.684 216.997 609.099 216.825 609.405 216.519C609.711 216.213 609.883 215.798 609.885 215.365V211.621C609.885 210.716 609.149 209.987 608.251 209.987H604.508C603.603 209.987 602.866 210.724 602.866 211.621V215.365C602.871 215.798 603.045 216.212 603.353 216.518C603.66 216.824 604.075 216.996 604.508 216.999Z" fill="#E1E4E5"/>
<path d="M627.609 289.844C627.839 282.651 629.471 275.297 632.345 268.424C669.77 281.551 658.804 266.133 636.161 260.91C642.253 250.716 651.494 242.446 663.586 238.62C678.23 233.992 695.586 244.531 706.781 260.086C689.172 267.393 692.919 290.646 711.172 266.981C714.827 273.533 717.333 280.589 718.183 287.622C720.321 304.941 712.344 321.939 686.528 329.499C644.92 341.755 626.69 316.945 627.609 289.844ZM653.77 281.001C642.782 281.322 658.161 293.624 666.391 287.668C671.54 283.911 664.781 280.68 653.77 281.001Z" fill="#4F27AA"/>
<path d="M696.574 466.745C698.39 326.521 663.609 238.643 663.609 238.643" stroke="#4F27AA" stroke-width="2.5" stroke-miterlimit="10"/>
<path d="M705.878 298.962C711.626 323.223 718.039 309.706 711.097 293.762C722.384 284.094 738.936 279.055 757.303 284.438C772.131 288.791 779.165 299.283 780.315 311.104C756.568 309.958 750.775 325.124 780.43 316.716C779.027 343.153 751.097 372.362 716.292 354.378C690.752 341.183 691.465 315.823 705.878 298.962ZM740.292 331.309C752.89 334.677 753.51 325.399 742.499 324.116C734.66 323.2 727.694 327.942 740.292 331.309Z" fill="#4F27AA"/>
<path d="M707.425 422.234C701.654 334.196 752.045 289.867 752.045 289.867" stroke="#4F27AA" stroke-width="2.5" stroke-miterlimit="10"/>
<path d="M606.726 350.769C594.496 334.824 594.197 308.731 603.599 300.942C612.496 293.566 623.852 292.672 634.795 295.696C632.013 312.282 645.576 319.567 642.335 298.445C667.829 309.831 686.886 340.689 658.519 355.946C636.91 367.538 621.461 364.675 611.416 355.855C648.013 353.518 629.277 343.644 606.726 350.769ZM616.289 323.943C605.622 327.081 607.117 330.426 618.933 331.319C630.726 332.213 630.059 319.934 616.289 323.943Z" fill="#4F27AA"/>
<path d="M676.252 421.431C679.77 334.194 610.896 302.305 610.896 302.305" stroke="#4F27AA" stroke-width="2.5" stroke-miterlimit="10"/>
<path d="M745.998 411.842H637.359L652.322 454.098C656.153 464.912 666.431 472.169 677.954 472.169H705.425C716.95 472.169 727.226 464.933 731.056 454.099L732.942 454.766L731.056 454.099L745.998 411.842Z" fill="white" stroke="#E1E4E5" stroke-width="4"/>
<path d="M761.341 410.362V403.846H623.366V410.362H761.341Z" fill="#E1E4E5" stroke="#E1E4E5" stroke-width="4"/>
<path d="M209.618 412.697L214.193 469.603H245.852L250.437 412.697H209.618Z" fill="#4F27AA"/>
<path d="M207 407.567H253.54V415.861H207V407.567ZM210.189 407.567H250.352L248.007 398.242H212.544L210.189 407.567Z" fill="#2E2445"/>
<path d="M220.962 441.679C220.962 442.901 221.202 444.112 221.67 445.241C222.138 446.371 222.823 447.397 223.688 448.261C224.552 449.126 225.578 449.811 226.708 450.279C227.837 450.747 229.048 450.987 230.27 450.987C231.492 450.987 232.703 450.747 233.832 450.279C234.962 449.811 235.988 449.126 236.852 448.261C237.717 447.397 238.402 446.371 238.87 445.241C239.338 444.112 239.578 442.901 239.578 441.679C239.578 440.457 239.338 439.246 238.87 438.117C238.403 436.987 237.717 435.961 236.853 435.096C235.988 434.232 234.962 433.546 233.832 433.079C232.703 432.611 231.492 432.371 230.27 432.371C229.048 432.371 227.837 432.611 226.708 433.079C225.578 433.547 224.552 434.232 223.688 435.097C222.823 435.961 222.138 436.987 221.67 438.117C221.202 439.246 220.962 440.457 220.962 441.679Z" fill="white"/>
<path fill-rule="evenodd" clip-rule="evenodd" d="M304.478 228.214V180.779C304.478 175.865 300.506 171.885 295.602 171.885H242.35C237.446 171.885 233.474 175.865 233.474 180.779V228.214C233.473 229.799 233.897 231.355 234.7 232.722C235.502 234.089 236.656 235.216 238.041 235.988L264.667 250.809C265.985 251.544 267.469 251.929 268.978 251.929C270.487 251.929 271.971 251.544 273.289 250.809L299.916 235.988C301.299 235.215 302.451 234.087 303.253 232.721C304.055 231.354 304.478 229.798 304.478 228.214Z" fill="#E1E4E5"/>
<path d="M283.734 211.108H254.216M283.734 197.279H254.216M283.734 224.539H254.216" stroke="white" stroke-width="2.677" stroke-linecap="round" stroke-linejoin="round"/>
<path d="M122.571 469.553H760.493C762.982 469.553 765 471.57 765 474.059C765 476.548 762.982 478.566 760.493 478.566H122.571C120.082 478.566 118.064 476.548 118.064 474.059C118.064 471.57 120.082 469.553 122.571 469.553Z" fill="#E1E4E5"/>
<path d="M267.044 357.201L285.271 375.429C285.935 376.093 285.935 377.169 285.272 377.833C284.608 378.496 283.532 378.496 282.868 377.832L264.64 359.604C263.976 358.941 263.976 357.864 264.64 357.201C265.304 356.537 266.38 356.537 267.044 357.201Z" fill="#E1E4E5"/>
<path d="M268.828 370.252L274.085 375.509C274.749 376.173 274.749 377.249 274.085 377.913C273.421 378.576 272.345 378.576 271.681 377.912L266.425 372.656C265.761 371.992 265.761 370.916 266.424 370.252C267.088 369.588 268.164 369.588 268.828 370.252Z" fill="#E1E4E5"/>
</g>
<defs>
<linearGradient id="paint0_linear_1235_18050" x1="425.316" y1="620.483" x2="431.256" y2="-194.43" gradientUnits="userSpaceOnUse">
<stop stop-color="white"/>
<stop offset="1" stop-color="#EEEEEE"/>
</linearGradient>
<clipPath id="clip0_1235_18050">
<rect width="900" height="600" fill="white"/>
</clipPath>
</defs>
</svg>
