<svg width="900" height="600" viewBox="0 0 900 600" fill="none" xmlns="http://www.w3.org/2000/svg">
<g clip-path="url(#clip0_1235_21694)">
<path d="M447.764 545.787C589.831 545.787 705 437.474 705 303.863C705 170.251 589.831 61.9375 447.764 61.9375C305.696 61.9375 190.528 170.251 190.528 303.863C190.528 437.474 305.696 545.787 447.764 545.787Z" fill="#4F27AA"/>
<path d="M570.48 338.242C568.731 344.77 563.863 350.316 556.189 354.689C548.506 359.068 538.145 362.184 525.758 363.858C500.994 367.204 468.541 364.732 434.312 355.56C400.083 346.389 370.742 332.303 350.969 317.023C341.079 309.38 333.664 301.501 329.199 293.868C324.739 286.243 323.297 279.006 325.046 272.478C326.795 265.951 331.663 260.405 339.337 256.031C347.021 251.653 357.382 248.536 369.768 246.863C394.532 243.516 426.985 245.989 461.214 255.161C495.443 264.332 524.785 278.417 544.558 293.697C554.448 301.34 561.863 309.219 566.327 316.853C570.787 324.478 572.229 331.715 570.48 338.242V338.242Z" stroke="white" stroke-width="4"/>
<path d="M639.855 355.333C632.055 384.443 603.878 405.562 563.798 415.81C523.788 426.04 472.365 425.285 419.055 411C365.746 396.716 320.834 371.659 291.3 342.794C261.714 313.88 247.871 281.501 255.671 252.391C263.471 223.28 291.648 202.161 331.728 191.913C371.738 181.683 423.161 182.439 476.471 196.723C529.78 211.007 574.692 236.065 604.226 264.929C633.812 293.844 647.655 326.222 639.855 355.333V355.333Z" stroke="white" stroke-width="4"/>
<path d="M699.228 363.447C687.587 406.893 649.39 439.108 596.493 455.844C543.621 472.573 476.339 473.721 407.216 455.2C338.093 436.679 280.399 402.043 242.975 361.12C205.533 320.177 188.561 273.179 200.202 229.734C211.843 186.288 250.04 154.073 302.937 137.337C355.809 120.608 423.092 119.46 492.214 137.981C561.337 156.503 619.031 191.139 656.455 232.062C693.897 273.005 710.87 320.002 699.228 363.447Z" stroke="white" stroke-width="4"/>
<path d="M501.553 225.083C545.165 254.862 556.428 314.272 526.723 357.777C497.017 401.281 437.584 412.419 393.971 382.64C350.359 352.861 339.096 293.451 368.801 249.946C398.507 206.441 457.941 195.304 501.553 225.083V225.083Z" stroke="white" stroke-width="4"/>
<path d="M741.935 536.662C741.935 536.662 698.949 502.616 670.622 498.713C642.595 494.852 568.714 499.378 513.892 476.139C513.378 475.925 512.955 475.539 512.695 475.047C512.435 474.554 512.356 473.987 512.47 473.442C513.341 469.473 517.454 461.023 537.219 461.843C562.946 462.954 582.664 463.294 582.664 463.294C582.664 463.294 503.632 385.175 483.79 362.414C479.871 357.923 477.222 353.871 475.494 350.188C470.112 338.7 484.876 328.381 494.022 337.178L547.558 388.634C547.558 388.634 545.026 380.569 550.681 375.565C556.041 370.844 569.617 373.446 577.544 381.994C577.544 381.994 575.465 372.7 584.402 368.581C593.338 364.463 605.079 371.579 610.061 376.196C610.061 376.196 606.155 367.761 611.735 362.941C617.315 358.12 632.111 362.817 636.08 365.653C640.049 368.489 677.103 386.227 717.25 435.934L795.909 460.298C795.909 460.298 806.918 489.407 741.935 536.662ZM157.467 64.1699C157.467 64.1699 200.454 98.2159 228.78 102.12C256.807 105.98 330.688 101.454 385.51 124.693C386.024 124.906 386.448 125.293 386.707 125.785C386.967 126.278 387.046 126.846 386.932 127.391C386.062 131.36 381.948 139.81 362.183 138.989C336.457 137.878 316.738 137.538 316.738 137.538C316.738 137.538 395.77 215.658 415.612 238.418C419.531 242.91 422.181 246.962 423.908 250.645C429.291 262.133 414.527 272.451 405.38 263.655L351.845 212.199C351.845 212.199 354.376 220.264 348.722 225.268C343.362 229.988 329.786 227.386 321.858 218.838C321.858 218.838 323.937 228.133 315.001 232.251C306.064 236.37 294.323 229.254 289.342 224.636C289.342 224.636 293.248 233.072 287.668 237.892C282.088 242.712 267.292 238.015 263.322 235.179C259.353 232.343 222.3 214.605 182.153 164.898L103.493 140.534C103.493 140.534 92.4828 111.425 157.467 64.1709V64.1699Z" fill="#F8AE9D"/>
<path d="M447.777 266H448.213C450.795 300.295 478 300.823 478 300.823C478 300.823 448 301.372 448 341C448 301.372 418 300.823 418 300.823C418 300.823 445.195 300.295 447.777 266Z" fill="white"/>
<path d="M722.805 372.216C733.241 379.403 749.183 374.379 749.183 374.379C749.183 374.379 748.196 357.702 737.754 350.522C727.318 343.334 711.383 348.351 711.383 348.351C711.383 348.351 712.37 365.028 722.805 372.216Z" fill="url(#paint0_linear_1235_21694)"/>
<path d="M146.218 313.029C157.028 324.031 177.242 321.711 177.242 321.711C177.242 321.711 179.917 301.553 169.097 290.558C158.287 279.556 138.083 281.869 138.083 281.869C138.083 281.869 135.408 302.027 146.218 313.029Z" fill="url(#paint1_linear_1235_21694)"/>
<path d="M480.139 510.999C470.673 510.999 463 518.339 463 527.393C463 536.447 470.673 543.787 480.139 543.787C489.604 543.787 497.278 536.447 497.278 527.393C497.278 518.339 489.604 510.999 480.139 510.999Z" fill="#4F27AA"/>
<path d="M168 377.299C162.477 377.299 158 381.776 158 387.299C158 392.822 162.477 397.299 168 397.299C173.523 397.299 178 392.822 178 387.299C178 381.776 173.523 377.299 168 377.299Z" fill="#4F27AA"/>
<path d="M343.5 62C338.253 62 334 57.7467 334 52.5C334 47.2533 338.253 43 343.5 43C348.747 43 353 47.2533 353 52.5C353 57.7467 348.747 62 343.5 62Z" fill="#4F27AA"/>
<path d="M660.648 219.296C652.006 219.296 645 212.29 645 203.648C645 195.006 652.006 188 660.648 188C669.29 188 676.296 195.006 676.296 203.648C676.296 212.29 669.29 219.296 660.648 219.296Z" fill="#4F27AA"/>
<path d="M612.802 543.604C607.389 543.604 603 539.215 603 533.802C603 528.389 607.389 524 612.802 524C618.215 524 622.604 528.389 622.604 533.802C622.604 539.215 618.215 543.604 612.802 543.604Z" fill="#E1E4E5"/>
<path d="M309 518C299.059 518 291 509.941 291 500C291 490.059 299.059 482 309 482C318.941 482 327 490.059 327 500C327 509.941 318.941 518 309 518Z" fill="white"/>
<path d="M472 502C468.686 502 466 499.314 466 496C466 492.686 468.686 490 472 490C475.314 490 478 492.686 478 496C478 499.314 475.314 502 472 502Z" fill="white"/>
<path d="M703.294 260.588C699.266 260.588 696 257.322 696 253.294C696 249.266 699.266 246 703.294 246C707.322 246 710.588 249.266 710.588 253.294C710.588 257.322 707.322 260.588 703.294 260.588Z" fill="#E1E4E5"/>
<path d="M634.133 150.264C627.985 150.264 623 145.28 623 139.131C623 132.982 627.985 127.998 634.133 127.998C640.282 127.998 645.266 132.982 645.266 139.131C645.266 145.28 640.282 150.264 634.133 150.264Z" fill="white"/>
<path d="M242.262 298.631C242.262 301.741 239.741 304.262 236.631 304.262C233.521 304.262 231 301.741 231 298.631C231 295.521 233.521 293 236.631 293C239.741 293 242.262 295.521 242.262 298.631Z" fill="#E1E4E5"/>
<path d="M160.922 187.844C157.099 187.844 154 184.745 154 180.922C154 177.099 157.099 174 160.922 174C164.745 174 167.844 177.099 167.844 180.922C167.844 184.745 164.745 187.844 160.922 187.844Z" fill="#E1E4E5"/>
<path d="M737.452 422.922C733.336 422.922 730 420.253 730 416.961C730 413.669 733.336 411 737.452 411C741.567 411 744.904 413.669 744.904 416.961C744.904 420.253 741.567 422.922 737.452 422.922Z" fill="#E1E4E5"/>
<path d="M490 114.5C490 120.299 485.299 125 479.5 125C473.701 125 469 120.299 469 114.5C469 108.701 473.701 104 479.5 104C485.299 104 490 108.701 490 114.5Z" fill="white"/>
<path d="M709.313 179H709.508C710.662 195.356 722.826 195.607 722.826 195.607C722.826 195.607 709.413 195.869 709.413 214.768C709.413 195.869 696 195.607 696 195.607C696 195.607 708.158 195.356 709.313 179ZM279.422 62H279.574C280.478 75.26 290 75.465 290 75.465C290 75.465 279.5 75.677 279.5 91C279.5 75.677 269 75.465 269 75.465C269 75.465 278.518 75.261 279.422 62Z" fill="#E1E4E5"/>
<path d="M266.834 418.248C271.739 417.086 276.926 421.246 276.926 421.246C276.926 421.246 274.158 427.286 269.252 428.445C264.347 429.607 259.162 425.451 259.162 425.451C259.162 425.451 261.93 419.41 266.834 418.248Z" fill="url(#paint2_linear_1235_21694)"/>
<path d="M289.798 310.198C285.451 307.204 278.81 309.297 278.81 309.297C278.81 309.297 279.221 316.244 283.571 319.235C287.918 322.229 294.556 320.139 294.556 320.139C294.556 320.139 294.145 313.192 289.798 310.198Z" fill="url(#paint3_linear_1235_21694)"/>
<path d="M602.826 294.573C596.26 287.891 583.983 289.3 583.983 289.3C583.983 289.3 582.358 301.543 588.93 308.221C595.495 314.904 607.767 313.499 607.767 313.499C607.767 313.499 609.392 301.256 602.826 294.573Z" fill="url(#paint4_linear_1235_21694)"/>
<path d="M302.677 283.392C309.683 283.392 315.362 277.97 315.362 271.283C315.362 264.595 309.683 259.174 302.677 259.174C295.671 259.174 289.992 264.595 289.992 271.283C289.992 277.97 295.671 283.392 302.677 283.392Z" fill="#4F27AA"/>
<path d="M702.685 146.37C709.691 146.37 715.37 140.691 715.37 133.685C715.37 126.679 709.691 121 702.685 121C695.679 121 690 126.679 690 133.685C690 140.691 695.679 146.37 702.685 146.37Z" fill="#4F27AA"/>
<path d="M230.532 469.001C236.901 469.001 242.064 474.422 242.064 481.11C242.064 487.797 236.901 493.219 230.532 493.219C224.163 493.219 219 487.797 219 481.11C219 474.422 224.163 469.001 230.532 469.001Z" fill="#4F27AA"/>
<path d="M734.802 289C740.215 289 744.604 293.388 744.604 298.802C744.604 304.215 740.215 308.604 734.802 308.604C729.389 308.604 725 304.215 725 298.802C725 293.388 729.389 289 734.802 289Z" fill="#4F27AA"/>
<path d="M384.652 162.305C387.89 162.305 390.514 164.93 390.514 168.167C390.514 171.405 387.89 174.029 384.652 174.029C381.415 174.029 378.79 171.405 378.79 168.167C378.79 164.93 381.415 162.305 384.652 162.305Z" fill="white"/>
<path d="M579.85 121.941C583.255 121.941 586.016 124.702 586.016 128.107C586.016 131.513 583.255 134.273 579.85 134.273C576.445 134.273 573.684 131.513 573.684 128.107C573.684 124.702 576.445 121.941 579.85 121.941Z" fill="white"/>
<path d="M325.825 344.613C327.503 344.613 328.863 345.974 328.863 347.651C328.863 349.329 327.503 350.689 325.825 350.689C324.147 350.689 322.787 349.329 322.787 347.651C322.787 345.974 324.147 344.613 325.825 344.613Z" fill="#E1E4E5"/>
<path d="M390.637 510.999C393.198 510.999 395.274 513.075 395.274 515.636C395.274 518.197 393.198 520.273 390.637 520.273C388.076 520.273 386 518.197 386 515.636C386 513.075 388.076 510.999 390.637 510.999Z" fill="white"/>
<path d="M559 261.132C559 257.745 561.746 255 565.132 255C568.519 255 571.264 257.745 571.264 261.132C571.264 264.518 568.519 267.264 565.132 267.264C561.746 267.264 559 264.518 559 261.132Z" fill="#E1E4E5"/>
<path d="M661.343 301C664.846 301 667.686 303.839 667.686 307.343C667.686 310.846 664.846 313.686 661.343 313.686C657.84 313.686 655 310.846 655 307.343C655 303.839 657.84 301 661.343 301Z" fill="#E1E4E5"/>
<path d="M183.319 228.038C189.37 228.038 194.275 231.91 194.275 236.687C194.275 241.464 189.37 245.336 183.319 245.336C177.268 245.336 172.363 241.464 172.363 236.687C172.363 231.91 177.268 228.038 183.319 228.038Z" fill="#E1E4E5"/>
<path d="M351.634 466.367C350.731 462.999 352.73 459.538 356.098 458.635C359.465 457.733 362.927 459.732 363.829 463.099C364.732 466.467 362.733 469.929 359.365 470.831C355.998 471.734 352.536 469.735 351.634 466.367Z" fill="white"/>
<path d="M312.918 387.088H312.837C312.356 380.275 307.29 380.17 307.29 380.17C307.29 380.17 312.877 380.061 312.877 372.189C312.877 380.061 318.464 380.17 318.464 380.17C318.464 380.17 313.399 380.275 312.918 387.088ZM495.751 422.729H495.655C495.091 414.578 489.148 414.452 489.148 414.452C489.148 414.452 495.702 414.322 495.702 404.903C495.702 414.322 502.255 414.452 502.255 414.452C502.255 414.452 496.315 414.578 495.751 422.729Z" fill="#E1E4E5"/>
</g>
<defs>
<linearGradient id="paint0_linear_1235_21694" x1="763.456" y1="395.8" x2="681.311" y2="309.181" gradientUnits="userSpaceOnUse">
<stop stop-color="white"/>
<stop offset="1" stop-color="#EEEEEE"/>
</linearGradient>
<linearGradient id="paint1_linear_1235_21694" x1="189.347" y1="350.609" x2="111.199" y2="228.106" gradientUnits="userSpaceOnUse">
<stop stop-color="white"/>
<stop offset="1" stop-color="#EEEEEE"/>
</linearGradient>
<linearGradient id="paint2_linear_1235_21694" x1="285.303" y1="415.359" x2="242.37" y2="435.642" gradientUnits="userSpaceOnUse">
<stop stop-color="white"/>
<stop offset="1" stop-color="#EEEEEE"/>
</linearGradient>
<linearGradient id="paint3_linear_1235_21694" x1="272.865" y1="300.374" x2="307.083" y2="336.456" gradientUnits="userSpaceOnUse">
<stop stop-color="white"/>
<stop offset="1" stop-color="#EEEEEE"/>
</linearGradient>
<linearGradient id="paint4_linear_1235_21694" x1="576.63" y1="271.748" x2="624.096" y2="346.154" gradientUnits="userSpaceOnUse">
<stop stop-color="white"/>
<stop offset="1" stop-color="#EEEEEE"/>
</linearGradient>
<clipPath id="clip0_1235_21694">
<rect width="900" height="600" fill="white"/>
</clipPath>
</defs>
</svg>
