<svg width="900" height="600" viewBox="0 0 900 600" fill="none" xmlns="http://www.w3.org/2000/svg">
<g clip-path="url(#clip0_1235_21735)">
<path d="M749.235 298.381V437.738M550.348 298.381V482.386M362.285 298.381V482.386M180.986 298.381V482.386M750.238 297.379H549.998M562.175 297.379H361.934M380.876 297.379H180.636" stroke="#E1E4E5" stroke-width="6.113"/>
<path d="M750.238 309.205C758.458 309.205 765.121 302.542 765.121 294.322C765.121 286.103 758.458 279.439 750.238 279.439C742.018 279.439 735.355 286.103 735.355 294.322C735.355 302.542 742.018 309.205 750.238 309.205Z" fill="#E1E4E5"/>
<path d="M549.998 309.205C558.218 309.205 564.881 302.542 564.881 294.322C564.881 286.103 558.218 279.439 549.998 279.439C541.778 279.439 535.115 286.103 535.115 294.322C535.115 302.542 541.778 309.205 549.998 309.205Z" fill="#E1E4E5"/>
<path d="M361.934 309.205C370.154 309.205 376.817 302.542 376.817 294.322C376.817 286.103 370.154 279.439 361.934 279.439C353.714 279.439 347.051 286.103 347.051 294.322C347.051 302.542 353.714 309.205 361.934 309.205Z" fill="#E1E4E5"/>
<path d="M180.636 309.205C188.856 309.205 195.519 302.542 195.519 294.322C195.519 286.103 188.856 279.439 180.636 279.439C172.416 279.439 165.753 286.103 165.753 294.322C165.753 302.542 172.416 309.205 180.636 309.205Z" fill="#E1E4E5"/>
<path d="M437.271 447.671C437.271 407.813 404.96 375.502 365.102 375.502C325.244 375.502 292.933 407.813 292.933 447.671C292.933 487.529 325.244 519.84 365.102 519.84C404.96 519.84 437.271 487.529 437.271 447.671Z" fill="#4F27AA"/>
<path fill-rule="evenodd" clip-rule="evenodd" d="M397.903 477.946V482.771C397.903 485.435 395.769 487.597 393.141 487.597H335.994C333.365 487.597 331.231 485.435 331.231 482.771V477.868C331.231 463.266 347.699 453.778 364.567 453.778C381.435 453.778 397.903 463.271 397.903 477.868M376.519 411.384C383.123 417.988 383.123 428.694 376.519 435.298C369.915 441.901 359.209 441.901 352.605 435.298C346.002 428.694 346.002 417.988 352.605 411.384C359.209 404.781 369.915 404.781 376.519 411.384Z" fill="white"/>
<path d="M619.922 447.671C619.922 407.813 587.611 375.502 547.753 375.502C507.895 375.502 475.584 407.813 475.584 447.671C475.584 487.529 507.895 519.84 547.753 519.84C587.611 519.84 619.922 487.529 619.922 447.671Z" fill="#4F27AA"/>
<path fill-rule="evenodd" clip-rule="evenodd" d="M580.556 477.946V482.771C580.556 485.435 578.422 487.597 575.793 487.597H518.647C516.018 487.597 513.884 485.435 513.884 482.771V477.868C513.884 463.266 530.352 453.778 547.22 453.778C564.088 453.778 580.556 463.271 580.556 477.868M559.171 411.384C565.775 417.988 565.775 428.694 559.171 435.298C552.568 441.901 541.861 441.901 535.258 435.298C528.654 428.694 528.654 417.988 535.258 411.384C541.861 404.781 552.568 404.781 559.171 411.384Z" fill="white"/>
<path fill-rule="evenodd" clip-rule="evenodd" d="M184.695 520.27C144.721 520.27 112.311 487.86 112.311 447.886C112.311 407.912 144.721 375.502 184.695 375.502C224.669 375.502 257.079 407.912 257.079 447.886C257.079 487.86 224.669 520.27 184.695 520.27Z" fill="#4F27AA"/>
<path d="M208.822 436.918L178.669 467.627L160.566 449.204" stroke="white" stroke-width="11.307" stroke-linecap="round" stroke-linejoin="round"/>
<path fill-rule="evenodd" clip-rule="evenodd" d="M830.185 447.205L789.451 470.722L778.295 511.65C775.23 522.903 760.11 524.855 754.279 514.757L694.248 410.78C688.407 400.663 697.712 388.525 709.009 391.552L827.032 423.176C838.313 426.199 840.313 441.357 830.185 447.205Z" fill="#4F27AA"/>
<path d="M125.511 138.371L112.728 151.142L106.517 144.95M153.208 132.26H190.989M153.502 151.004H215.982M125.511 182.107L112.728 194.878L106.517 188.686M153.208 175.996H190.989M153.502 194.74H215.982M215.981 238.475H153.208M215.982 219.731H153.502" stroke="#E1E4E5" stroke-width="7.441" stroke-linecap="round" stroke-linejoin="round"/>
<path d="M116.014 244.723C122.915 244.723 128.509 239.129 128.509 232.228C128.509 225.326 122.915 219.732 116.014 219.732C109.112 219.732 103.518 225.326 103.518 232.228C103.518 239.129 109.112 244.723 116.014 244.723V244.723Z" stroke="#E1E4E5" stroke-width="7.441" stroke-linecap="round" stroke-linejoin="round"/>
<path d="M324.398 138.496L311.614 151.267L305.404 145.075M352.094 132.385H389.876M352.389 151.128H414.868M324.398 182.232L311.614 195.003L305.404 188.811M352.094 176.121H389.876M352.389 194.865H414.868M414.868 238.6H352.094M414.868 219.856H352.389" stroke="#E1E4E5" stroke-width="7.441" stroke-linecap="round" stroke-linejoin="round"/>
<path d="M314.9 244.847C321.802 244.847 327.396 239.253 327.396 232.351C327.396 225.45 321.802 219.855 314.9 219.855C307.999 219.855 302.404 225.45 302.404 232.351C302.404 239.253 307.999 244.847 314.9 244.847Z" stroke="#E1E4E5" stroke-width="7.441" stroke-linecap="round" stroke-linejoin="round"/>
<path d="M515.167 138.496L502.384 151.267L496.173 145.075M542.864 132.385H580.646M543.158 151.128H605.638M515.167 182.232L502.384 195.003L496.173 188.811M542.864 176.121H580.646M543.158 194.865H605.638M605.637 238.6H542.864M605.638 219.856H543.158" stroke="#E1E4E5" stroke-width="7.441" stroke-linecap="round" stroke-linejoin="round"/>
<path d="M505.67 244.847C512.571 244.847 518.166 239.252 518.166 232.351C518.166 225.45 512.571 219.855 505.67 219.855C498.768 219.855 493.174 225.45 493.174 232.351C493.174 239.252 498.768 244.847 505.67 244.847V244.847Z" stroke="#E1E4E5" stroke-width="7.441" stroke-linecap="round" stroke-linejoin="round"/>
<path d="M705.935 138.496L693.152 151.267L686.941 145.075M733.633 132.385H771.414M733.927 151.128H796.407M705.935 182.232L693.152 195.003L686.941 188.811M733.633 176.121H771.414M733.927 194.865H796.407M796.406 238.6H733.633M796.407 219.856H733.927" stroke="#E1E4E5" stroke-width="7.441" stroke-linecap="round" stroke-linejoin="round"/>
<path d="M696.438 244.847C703.339 244.847 708.934 239.253 708.934 232.351C708.934 225.45 703.339 219.855 696.438 219.855C689.537 219.855 683.942 225.45 683.942 232.351C683.942 239.253 689.537 244.847 696.438 244.847Z" stroke="#E1E4E5" stroke-width="7.441" stroke-linecap="round" stroke-linejoin="round"/>
<path d="M648.746 505.833C642.454 510.165 632.844 507.134 632.844 507.134C632.844 507.134 633.441 497.081 639.737 492.753C646.029 488.421 655.635 491.448 655.635 491.448C655.635 491.448 655.038 501.501 648.746 505.833Z" fill="url(#paint0_linear_1235_21735)"/>
<path d="M793.776 384.861C800.909 379.976 801.614 368.593 801.614 368.593C801.614 368.593 790.752 365.138 783.622 370.029C776.489 374.914 775.781 386.291 775.781 386.291C775.781 386.291 786.643 389.746 793.776 384.861Z" fill="url(#paint1_linear_1235_21735)"/>
<path d="M59.7759 495.909C71.202 507.537 92.567 505.085 92.567 505.085C92.567 505.085 95.394 483.78 83.958 472.158C72.533 460.529 51.178 462.974 51.178 462.974C51.178 462.974 48.3509 484.28 59.7769 495.909H59.7759Z" fill="url(#paint2_linear_1235_21735)"/>
<path d="M95.18 381.647C90.6391 381.647 86.958 377.966 86.958 373.425C86.958 368.884 90.6391 365.203 95.18 365.203C99.7209 365.203 103.402 368.884 103.402 373.425C103.402 377.966 99.7209 381.647 95.18 381.647Z" fill="#4F27AA"/>
<path d="M92.844 494.843C87.4863 494.843 83.143 490.5 83.143 485.142C83.143 479.785 87.4863 475.441 92.844 475.441C98.2018 475.441 102.545 479.785 102.545 485.142C102.545 490.5 98.2018 494.843 92.844 494.843Z" fill="white"/>
<path d="M416.828 373.019C412.53 373.019 409.046 369.535 409.046 365.237C409.046 360.939 412.53 357.455 416.828 357.455C421.126 357.455 424.61 360.939 424.61 365.237C424.61 369.535 421.126 373.019 416.828 373.019Z" fill="#E1E4E5"/>
<path d="M769.321 82.96C766.57 82.96 764.34 80.73 764.34 77.979C764.34 75.2281 766.57 72.998 769.321 72.998C772.072 72.998 774.302 75.2281 774.302 77.979C774.302 80.73 772.072 82.96 769.321 82.96Z" fill="#E1E4E5"/>
<path d="M456.088 496.917C453.337 496.917 451.107 494.687 451.107 491.936C451.107 489.185 453.337 486.955 456.088 486.955C458.839 486.955 461.069 489.185 461.069 491.936C461.069 494.687 458.839 496.917 456.088 496.917Z" fill="#E1E4E5"/>
<path d="M680.774 483.636C678.023 483.636 675.793 481.406 675.793 478.655C675.793 475.904 678.023 473.674 680.774 473.674C683.525 473.674 685.755 475.904 685.755 478.655C685.755 481.406 683.525 483.636 680.774 483.636Z" fill="#E1E4E5"/>
<path d="M80.7377 447.717C81.8482 451.862 79.3887 456.122 75.2442 457.232C71.0997 458.343 66.8397 455.883 65.7291 451.739C64.6186 447.594 67.0782 443.334 71.2227 442.224C75.3672 441.113 79.6272 443.573 80.7377 447.717Z" fill="white"/>
<path d="M281.028 357.096C275.32 357.096 270.693 352.469 270.693 346.761C270.693 341.053 275.32 336.426 281.028 336.426C286.736 336.426 291.363 341.053 291.363 346.761C291.363 352.469 286.736 357.096 281.028 357.096Z" fill="#E1E4E5"/>
<path d="M270.895 520.704C266.504 520.704 262.945 517.857 262.945 514.344C262.945 510.832 266.504 507.984 270.895 507.984C275.286 507.984 278.845 510.832 278.845 514.344C278.845 517.857 275.286 520.704 270.895 520.704Z" fill="#E1E4E5"/>
<path d="M832.514 499.922C826.091 503.055 818.879 501.485 816.405 496.414C813.931 491.343 817.132 484.692 823.555 481.559C829.978 478.425 837.19 479.996 839.664 485.066C842.138 490.137 838.937 496.788 832.514 499.922Z" fill="#E1E4E5"/>
<path d="M658.084 111.186C658.084 115.77 654.367 119.487 649.783 119.487C645.198 119.487 641.482 115.77 641.482 111.186C641.482 106.601 645.198 102.885 649.783 102.885C654.367 102.885 658.084 106.601 658.084 111.186Z" fill="#E1E4E5"/>
<path d="M636.869 385.127H637.077C638.308 402.576 651.285 402.845 651.285 402.845C651.285 402.845 636.975 403.124 636.975 423.287C636.975 403.124 622.665 402.845 622.665 402.845C622.665 402.845 635.637 402.576 636.869 385.127ZM445.387 91.8161H445.595C446.826 109.266 459.803 109.534 459.803 109.534C459.803 109.534 445.493 109.814 445.493 129.976C445.493 109.814 431.183 109.534 431.183 109.534C431.183 109.534 444.155 109.266 445.387 91.8161ZM257.692 88.4961H257.842C258.73 101.264 268.088 101.461 268.088 101.461C268.088 101.461 257.769 101.665 257.769 116.418C257.769 101.665 247.449 101.461 247.449 101.461C247.449 101.461 256.804 101.264 257.692 88.4961ZM129.299 314.29H129.449C130.337 327.058 139.695 327.255 139.695 327.255C139.695 327.255 129.376 327.459 129.376 342.213C129.376 327.459 119.057 327.255 119.057 327.255C119.057 327.255 128.411 327.058 129.299 314.29Z" fill="#E1E4E5"/>
</g>
<defs>
<linearGradient id="paint0_linear_1235_21735" x1="624.237" y1="520.045" x2="673.769" y2="467.838" gradientUnits="userSpaceOnUse">
<stop stop-color="white"/>
<stop offset="1" stop-color="#EEEEEE"/>
</linearGradient>
<linearGradient id="paint1_linear_1235_21735" x1="818.75" y1="364.751" x2="743.471" y2="395.848" gradientUnits="userSpaceOnUse">
<stop stop-color="white"/>
<stop offset="1" stop-color="#EEEEEE"/>
</linearGradient>
<linearGradient id="paint2_linear_1235_21735" x1="105.362" y1="535.63" x2="22.763" y2="406.149" gradientUnits="userSpaceOnUse">
<stop stop-color="white"/>
<stop offset="1" stop-color="#EEEEEE"/>
</linearGradient>
<clipPath id="clip0_1235_21735">
<rect width="900" height="600" fill="white"/>
</clipPath>
</defs>
</svg>
