<svg width="900" height="600" viewBox="0 0 900 600" fill="none" xmlns="http://www.w3.org/2000/svg">
<g clip-path="url(#clip0_1235_21772)">
<path d="M262.653 397.957C167.827 397.957 167.827 511.749 73 511.749" stroke="#E1E4E5" stroke-width="4" stroke-linecap="round" stroke-linejoin="round"/>
<path d="M262.653 511.749C167.827 511.749 167.827 397.957 73 397.957M263.406 398.376V511.325M215.24 409.967V499.737M82.483 511.325V398.376M120.413 499.104V409.967M638.046 397.957C543.219 397.957 543.219 511.749 448.393 511.749" stroke="#E1E4E5" stroke-width="4" stroke-linecap="round" stroke-linejoin="round"/>
<path d="M638.046 511.749C543.219 511.749 543.219 397.957 448.393 397.957M638.798 398.376V511.325M590.632 409.967V499.737M451.252 511.325V398.376M495.806 499.104V409.967" stroke="#E1E4E5" stroke-width="4" stroke-linecap="round" stroke-linejoin="round"/>
<path d="M452.607 397.957C357.781 397.957 357.781 511.749 262.954 511.749" stroke="#E1E4E5" stroke-width="4" stroke-linecap="round" stroke-linejoin="round"/>
<path d="M452.607 511.749C357.781 511.749 357.781 397.957 262.954 397.957M405.194 409.967V499.737M310.367 499.104V409.967M828 397.957C733.173 397.957 733.173 511.749 638.347 511.749" stroke="#E1E4E5" stroke-width="4" stroke-linecap="round" stroke-linejoin="round"/>
<path d="M828 511.749C733.173 511.749 733.173 397.957 638.347 397.957M818.517 398.376V511.325M780.587 409.967V499.737M685.76 499.104V409.967" stroke="#E1E4E5" stroke-width="4" stroke-linecap="round" stroke-linejoin="round"/>
<path fill-rule="evenodd" clip-rule="evenodd" d="M564.075 243.864H493.459C492.314 243.864 491.187 244.145 490.176 244.681C489.165 245.218 488.301 245.995 487.66 246.943L463.913 282.063L427.958 202.482C427.446 201.348 426.641 200.371 425.626 199.652C424.611 198.933 423.422 198.497 422.183 198.39C420.943 198.283 419.698 198.507 418.574 199.041C417.451 199.575 416.489 200.399 415.79 201.428L386.939 243.864H338.799C342.408 184.792 391.459 138 451.439 138C480.159 138 507.799 148.951 528.727 168.62C549.655 188.29 562.296 215.199 564.075 243.864ZM564.078 257.864H497.176L468.492 300.285C467.794 301.317 466.834 302.144 465.71 302.681C464.586 303.217 463.339 303.445 462.098 303.339C460.857 303.233 459.667 302.798 458.65 302.078C457.633 301.359 456.827 300.381 456.314 299.246L420.344 219.631L396.433 254.799C395.791 255.743 394.928 256.516 393.919 257.05C392.91 257.585 391.786 257.864 390.644 257.864H338.8C342.42 316.925 391.466 363.706 451.439 363.706C511.411 363.706 560.458 316.925 564.078 257.864Z" fill="#4F27AA"/>
<path fill-rule="evenodd" clip-rule="evenodd" d="M135.174 328.352H139.679C140.768 328.352 141.645 329.238 141.645 330.318V334.823C141.645 335.913 140.759 336.79 139.679 336.79H135.174C134.653 336.788 134.154 336.58 133.786 336.211C133.418 335.843 133.21 335.344 133.208 334.823V330.318C133.207 330.059 133.258 329.803 133.356 329.565C133.455 329.326 133.6 329.109 133.782 328.926C133.965 328.743 134.182 328.599 134.421 328.5C134.66 328.401 134.916 328.351 135.174 328.352ZM150.792 328.352H155.297C156.377 328.352 157.263 329.238 157.263 330.318V334.823C157.263 335.913 156.377 336.79 155.297 336.79H150.792C150.271 336.788 149.772 336.58 149.404 336.211C149.036 335.843 148.828 335.344 148.826 334.823V330.318C148.826 329.238 149.712 328.352 150.792 328.352ZM166.422 328.352H170.927C172.007 328.352 172.893 329.238 172.893 330.318V334.823C172.893 335.913 172.007 336.79 170.927 336.79H166.422C165.901 336.788 165.402 336.58 165.033 336.211C164.665 335.843 164.457 335.344 164.455 334.823V330.318C164.454 330.059 164.505 329.803 164.604 329.564C164.702 329.326 164.847 329.109 165.03 328.926C165.213 328.743 165.43 328.599 165.669 328.5C165.908 328.401 166.164 328.351 166.422 328.352ZM182.041 328.352H186.545C187.626 328.352 188.512 329.238 188.512 330.318V334.823C188.512 335.913 187.626 336.79 186.545 336.79H182.041C181.519 336.79 181.017 336.583 180.647 336.214C180.277 335.846 180.067 335.345 180.065 334.823V330.318C180.071 329.796 180.281 329.298 180.65 328.93C181.02 328.562 181.52 328.355 182.041 328.352ZM197.66 328.352H202.165C203.255 328.352 204.141 329.238 204.141 330.318V334.823C204.141 335.082 204.089 335.338 203.989 335.577C203.89 335.816 203.744 336.033 203.56 336.215C203.377 336.398 203.159 336.542 202.92 336.641C202.68 336.739 202.424 336.789 202.165 336.789H197.66C197.139 336.787 196.64 336.579 196.272 336.211C195.904 335.843 195.696 335.344 195.694 334.823V330.318C195.694 329.238 196.58 328.352 197.66 328.352ZM151.365 345.384H155.87C156.95 345.384 157.836 346.27 157.836 347.35V351.864C157.836 352.944 156.95 353.831 155.87 353.831H151.365C150.844 353.83 150.344 353.622 149.975 353.254C149.607 352.885 149.4 352.385 149.399 351.864V347.359C149.397 347.1 149.447 346.843 149.545 346.603C149.643 346.363 149.788 346.145 149.971 345.962C150.154 345.778 150.371 345.633 150.61 345.533C150.849 345.434 151.106 345.383 151.365 345.384ZM166.984 345.384H171.489C172.569 345.384 173.455 346.27 173.455 347.35V351.864C173.455 352.944 172.569 353.831 171.489 353.831H166.984C166.463 353.829 165.964 353.621 165.596 353.252C165.228 352.884 165.02 352.385 165.018 351.864V347.359C165.016 347.1 165.066 346.843 165.164 346.603C165.262 346.363 165.407 346.145 165.59 345.962C165.773 345.778 165.99 345.633 166.229 345.533C166.468 345.434 166.725 345.383 166.984 345.384ZM182.604 345.384H187.109C188.199 345.384 189.085 346.27 189.085 347.35V351.864C189.085 352.944 188.199 353.831 187.109 353.831H182.604C182.083 353.829 181.584 353.621 181.216 353.252C180.848 352.884 180.64 352.385 180.638 351.864V347.359C180.638 346.27 181.524 345.384 182.604 345.384ZM166.422 310.055H170.927C172.007 310.055 172.893 310.941 172.893 312.021V316.526C172.893 317.616 172.007 318.493 170.927 318.493H166.422C165.901 318.491 165.402 318.283 165.033 317.914C164.665 317.546 164.457 317.047 164.455 316.526V312.021C164.454 311.762 164.505 311.506 164.604 311.267C164.702 311.029 164.847 310.812 165.03 310.629C165.213 310.446 165.43 310.302 165.669 310.203C165.908 310.104 166.164 310.054 166.422 310.055ZM182.041 310.055H186.545C187.626 310.055 188.512 310.941 188.512 312.021V316.526C188.512 317.616 187.626 318.493 186.545 318.493H182.041C181.519 318.493 181.017 318.286 180.647 317.917C180.277 317.549 180.067 317.048 180.065 316.526V312.021C180.071 311.499 180.281 311.001 180.65 310.633C181.02 310.265 181.52 310.058 182.041 310.055ZM699.919 350.027H704.424C705.513 350.027 706.39 350.913 706.39 351.993V356.498C706.389 357.019 706.182 357.519 705.814 357.887C705.445 358.256 704.945 358.463 704.424 358.464H699.919C699.398 358.462 698.899 358.254 698.531 357.886C698.162 357.518 697.954 357.019 697.952 356.498V351.993C697.951 351.734 698.002 351.478 698.101 351.24C698.199 351.001 698.344 350.784 698.527 350.601C698.71 350.418 698.927 350.274 699.166 350.175C699.405 350.076 699.661 350.026 699.919 350.027ZM715.537 350.027H720.042C721.122 350.027 722.008 350.913 722.008 351.993V356.498C722.007 357.019 721.8 357.519 721.432 357.887C721.063 358.256 720.563 358.463 720.042 358.464H715.537C715.016 358.462 714.517 358.254 714.149 357.886C713.781 357.518 713.573 357.019 713.571 356.498V351.993C713.571 350.913 714.457 350.027 715.537 350.027ZM731.166 350.027H735.671C736.751 350.027 737.638 350.913 737.638 351.993V356.498C737.637 357.019 737.43 357.519 737.061 357.887C736.692 358.256 736.192 358.463 735.671 358.464H731.166C730.645 358.462 730.146 358.254 729.778 357.886C729.41 357.518 729.202 357.019 729.2 356.498V351.993C729.199 351.734 729.25 351.478 729.349 351.24C729.447 351.001 729.592 350.784 729.775 350.601C729.957 350.419 730.174 350.274 730.413 350.175C730.652 350.077 730.908 350.026 731.166 350.027ZM746.785 350.027H751.29C752.37 350.027 753.257 350.913 753.257 351.993V356.498C753.256 357.019 753.049 357.519 752.68 357.887C752.311 358.256 751.811 358.463 751.29 358.464H746.785C746.263 358.464 745.762 358.257 745.392 357.888C745.022 357.52 744.812 357.02 744.81 356.498V351.993C744.815 351.471 745.026 350.973 745.395 350.605C745.765 350.238 746.264 350.03 746.785 350.027ZM762.405 350.027H766.91C768 350.027 768.886 350.913 768.886 351.993V356.498C768.885 356.757 768.834 357.013 768.734 357.252C768.635 357.491 768.489 357.708 768.305 357.89C768.122 358.073 767.904 358.217 767.665 358.316C767.425 358.414 767.169 358.465 766.91 358.464H762.405C761.884 358.462 761.385 358.254 761.017 357.886C760.649 357.518 760.441 357.019 760.439 356.498V351.993C760.439 350.913 761.325 350.027 762.405 350.027ZM716.11 367.059H720.615C721.695 367.059 722.581 367.945 722.581 369.025V373.539C722.581 374.619 721.695 375.505 720.615 375.505H716.11C715.589 375.504 715.089 375.297 714.72 374.928C714.352 374.56 714.145 374.06 714.144 373.539V369.034C714.142 368.775 714.192 368.518 714.29 368.278C714.388 368.038 714.533 367.82 714.716 367.637C714.898 367.453 715.116 367.308 715.355 367.208C715.594 367.109 715.851 367.058 716.11 367.059ZM731.729 367.059H736.234C737.314 367.059 738.2 367.945 738.2 369.025V373.539C738.2 374.619 737.314 375.505 736.234 375.505H731.729C731.208 375.503 730.709 375.295 730.341 374.927C729.972 374.559 729.764 374.06 729.762 373.539V369.034C729.761 368.775 729.81 368.518 729.909 368.278C730.007 368.038 730.152 367.82 730.334 367.637C730.517 367.453 730.735 367.308 730.974 367.208C731.213 367.109 731.47 367.058 731.729 367.059ZM747.349 367.059H751.854C752.943 367.059 753.83 367.945 753.83 369.025V373.539C753.83 374.619 752.943 375.505 751.854 375.505H747.349C746.828 375.503 746.329 375.295 745.961 374.927C745.593 374.559 745.385 374.06 745.383 373.539V369.034C745.383 367.945 746.269 367.059 747.349 367.059ZM731.166 331.73H735.671C736.751 331.73 737.638 332.616 737.638 333.696V338.201C737.637 338.722 737.43 339.222 737.061 339.59C736.692 339.959 736.192 340.166 735.671 340.167H731.166C730.645 340.165 730.146 339.957 729.778 339.589C729.41 339.221 729.202 338.722 729.2 338.201V333.696C729.199 333.437 729.25 333.181 729.349 332.943C729.447 332.704 729.592 332.487 729.775 332.304C729.957 332.122 730.174 331.977 730.413 331.878C730.652 331.78 730.908 331.729 731.166 331.73ZM746.785 331.73H751.29C752.37 331.73 753.257 332.616 753.257 333.696V338.201C753.256 338.722 753.049 339.222 752.68 339.59C752.311 339.959 751.811 340.166 751.29 340.167H746.785C746.263 340.167 745.762 339.96 745.392 339.591C745.022 339.223 744.812 338.723 744.81 338.201V333.696C744.815 333.174 745.026 332.676 745.395 332.308C745.765 331.941 746.264 331.733 746.785 331.73Z" fill="#E1E4E5"/>
<path d="M131.995 173.064L116.602 188.442L109.123 180.986M165.347 165.705H210.841M165.701 188.275H240.936M131.995 225.728L116.602 241.106L109.123 233.651M165.347 218.37H210.841M165.701 240.94H240.936M688.31 191.126L672.917 206.504L665.439 199.048M721.662 183.767H767.157M722.017 206.337H797.251M688.31 243.791L672.917 259.169L665.439 251.713M721.662 236.432H767.157M722.017 259.002H797.251" stroke="#E1E4E5" stroke-width="4" stroke-linecap="round" stroke-linejoin="round"/>
<path d="M279.742 319.031C263.026 322.991 245.346 308.815 245.346 308.815C245.346 308.815 254.781 288.226 271.502 284.279C288.218 280.319 305.892 294.482 305.892 294.482C305.892 294.482 296.457 315.072 279.742 319.031Z" fill="url(#paint0_linear_1235_21772)"/>
<path d="M288.465 123.076C306.063 135.197 332.948 126.724 332.948 126.724C332.948 126.724 331.283 98.6008 313.673 86.4918C296.075 74.3698 269.202 82.8318 269.202 82.8318C269.202 82.8318 270.867 110.955 288.465 123.076Z" fill="url(#paint1_linear_1235_21772)"/>
<path d="M634.594 166.457C624.082 177.156 604.425 174.901 604.425 174.901C604.425 174.901 601.824 155.298 612.345 144.606C622.857 133.907 642.504 136.156 642.504 136.156C642.504 136.156 645.105 155.759 634.594 166.457Z" fill="url(#paint2_linear_1235_21772)"/>
<path d="M543.219 383.506C538.231 383.506 534.188 387.55 534.188 392.537C534.188 397.525 538.231 401.568 543.219 401.568C548.207 401.568 552.25 397.525 552.25 392.537C552.25 387.55 548.207 383.506 543.219 383.506Z" fill="#4F27AA"/>
<path d="M357.022 370.262C346.468 370.262 337.912 378.542 337.912 388.755C337.912 398.968 346.468 407.248 357.022 407.248C367.576 407.248 376.132 398.968 376.132 388.755C376.132 378.542 367.576 370.262 357.022 370.262Z" fill="#4F27AA"/>
<path d="M96.639 320.003C92.8939 320.003 89.858 316.967 89.858 313.222C89.858 309.477 92.8939 306.441 96.639 306.441C100.384 306.441 103.42 309.477 103.42 313.222C103.42 316.967 100.384 320.003 96.639 320.003Z" fill="#4F27AA"/>
<path d="M732.572 158.935C725.423 158.935 719.627 153.139 719.627 145.99C719.627 138.841 725.423 133.045 732.572 133.045C739.721 133.045 745.517 138.841 745.517 145.99C745.517 153.139 739.721 158.935 732.572 158.935Z" fill="#4F27AA"/>
<path d="M733.776 537.01C726.627 537.01 720.831 531.49 720.831 524.681C720.831 517.871 726.627 512.352 733.776 512.352C740.925 512.352 746.721 517.871 746.721 524.681C746.721 531.49 740.925 537.01 733.776 537.01Z" fill="#E1E4E5"/>
<path d="M178.965 408.794C174.975 408.794 171.74 405.559 171.74 401.569C171.74 397.578 174.975 394.344 178.965 394.344C182.955 394.344 186.19 397.578 186.19 401.569C186.19 405.559 182.955 408.794 178.965 408.794Z" fill="#E1E4E5"/>
<path d="M361.493 533.023C359.11 533.023 357.178 531.091 357.178 528.708C357.178 526.324 359.11 524.393 361.493 524.393C363.876 524.393 365.808 526.324 365.808 528.708C365.808 531.091 363.876 533.023 361.493 533.023Z" fill="#E1E4E5"/>
<path d="M595.743 99.6151C592.339 99.6151 589.579 96.8554 589.579 93.4511C589.579 90.0468 592.339 87.2871 595.743 87.2871C599.147 87.2871 601.907 90.0468 601.907 93.4511C601.907 96.8554 599.147 99.6151 595.743 99.6151Z" fill="#E1E4E5"/>
<path d="M174.099 504.923C174.961 508.137 173.053 511.44 169.84 512.301C166.626 513.162 163.323 511.255 162.462 508.041C161.601 504.828 163.508 501.525 166.722 500.664C169.935 499.802 173.238 501.71 174.099 504.923Z" fill="#E1E4E5"/>
<path d="M296.556 185.198C292.13 185.198 288.542 181.61 288.542 177.184C288.542 172.758 292.13 169.17 296.556 169.17C300.982 169.17 304.57 172.758 304.57 177.184C304.57 181.61 300.982 185.198 296.556 185.198Z" fill="#E1E4E5"/>
<path d="M737.833 298.243C734.429 298.243 731.669 296.035 731.669 293.311C731.669 290.587 734.429 288.379 737.833 288.379C741.237 288.379 743.997 290.587 743.997 293.311C743.997 296.035 741.237 298.243 737.833 298.243Z" fill="#E1E4E5"/>
<path d="M618.246 317.347C620.039 324.035 616.07 330.909 609.381 332.701C602.693 334.493 595.819 330.524 594.027 323.836C592.235 317.148 596.204 310.274 602.892 308.482C609.58 306.69 616.454 310.659 618.246 317.347Z" fill="#E1E4E5"/>
<path d="M803.98 313.918H804.141C805.096 327.448 815.159 327.657 815.159 327.657C815.159 327.657 804.063 327.873 804.063 343.507C804.063 327.873 792.967 327.657 792.967 327.657C792.967 327.657 803.025 327.448 803.98 313.918ZM365.527 93.3086H365.684C366.617 107.074 376.445 107.286 376.445 107.286C376.445 107.286 365.608 107.507 365.608 123.413C365.608 107.507 354.77 107.286 354.77 107.286C354.77 107.286 364.594 107.074 365.527 93.3086Z" fill="#E1E4E5"/>
</g>
<defs>
<linearGradient id="paint0_linear_1235_21772" x1="216.795" y1="328.877" x2="363.124" y2="259.746" gradientUnits="userSpaceOnUse">
<stop stop-color="white"/>
<stop offset="1" stop-color="#EEEEEE"/>
</linearGradient>
<linearGradient id="paint1_linear_1235_21772" x1="357.017" y1="162.848" x2="218.489" y2="16.7738" gradientUnits="userSpaceOnUse">
<stop stop-color="white"/>
<stop offset="1" stop-color="#EEEEEE"/>
</linearGradient>
<linearGradient id="paint2_linear_1235_21772" x1="592.654" y1="203.002" x2="668.648" y2="83.8749" gradientUnits="userSpaceOnUse">
<stop stop-color="white"/>
<stop offset="1" stop-color="#EEEEEE"/>
</linearGradient>
<clipPath id="clip0_1235_21772">
<rect width="900" height="600" fill="white"/>
</clipPath>
</defs>
</svg>
