<svg width="900" height="600" viewBox="0 0 900 600" fill="none" xmlns="http://www.w3.org/2000/svg">
<g clip-path="url(#clip0_1235_21799)">
<path d="M122.984 101C122.984 80.013 139.997 63 160.984 63H755.327C776.314 63 793.327 80.013 793.327 101V480.73C793.327 501.717 776.314 518.73 755.327 518.73H160.984C139.997 518.73 122.984 501.717 122.984 480.73V101Z" fill="white" stroke="#E1E4E5" stroke-width="4"/>
<path d="M725.605 406.342C725.605 375.056 700.242 349.693 668.956 349.693C637.67 349.693 612.307 375.056 612.307 406.342C612.307 437.629 637.67 462.991 668.956 462.991C700.242 462.991 725.605 437.629 725.605 406.342Z" fill="#4F27AA"/>
<path fill-rule="evenodd" clip-rule="evenodd" d="M694.703 430.106V433.894C694.703 435.985 693.028 437.682 690.965 437.682H646.107C644.044 437.682 642.369 435.985 642.369 433.894V430.046C642.369 418.583 655.296 411.136 668.536 411.136C681.776 411.136 694.703 418.587 694.703 430.046M677.918 377.859C683.101 383.042 683.101 391.446 677.918 396.63C672.735 401.813 664.331 401.813 659.147 396.63C653.964 391.446 653.964 383.042 659.147 377.859C664.331 372.675 672.735 372.675 677.918 377.859Z" fill="white"/>
<path d="M638.998 141.615H638.997C623.053 141.615 610.128 154.54 610.128 170.484V170.485C610.128 186.429 623.053 199.354 638.997 199.354H638.998C654.942 199.354 667.867 186.429 667.867 170.485V170.484C667.867 154.54 654.942 141.615 638.998 141.615Z" fill="#4F27AA"/>
<path fill-rule="evenodd" clip-rule="evenodd" d="M652.118 182.596V184.526C652.118 185.592 651.265 186.457 650.213 186.457H627.353C626.302 186.457 625.448 185.592 625.448 184.526V182.565C625.448 176.724 632.036 172.929 638.783 172.929C645.531 172.929 652.118 176.726 652.118 182.565M643.564 155.97C644.216 156.593 644.738 157.34 645.097 158.167C645.457 158.994 645.648 159.884 645.658 160.786C645.669 161.688 645.499 162.582 645.158 163.418C644.818 164.253 644.314 165.011 643.677 165.649C643.039 166.287 642.28 166.79 641.445 167.13C640.609 167.47 639.715 167.64 638.813 167.629C637.911 167.618 637.021 167.427 636.194 167.068C635.367 166.708 634.62 166.186 633.998 165.533C632.779 164.255 632.108 162.55 632.129 160.784C632.15 159.017 632.861 157.329 634.111 156.08C635.36 154.831 637.049 154.121 638.815 154.1C640.582 154.08 642.286 154.751 643.564 155.97Z" fill="white"/>
<path d="M528.968 115.471H528.967C513.023 115.471 500.098 128.396 500.098 144.34V144.341C500.098 160.285 513.023 173.21 528.967 173.21H528.968C544.912 173.21 557.837 160.285 557.837 144.341V144.34C557.837 128.396 544.912 115.471 528.968 115.471Z" fill="#4F27AA"/>
<path fill-rule="evenodd" clip-rule="evenodd" d="M542.088 156.45V158.381C542.088 159.446 541.235 160.311 540.183 160.311H517.323C516.271 160.311 515.418 159.446 515.418 158.381V156.419C515.418 150.578 522.005 146.783 528.753 146.783C535.501 146.783 542.088 150.58 542.088 156.419M533.534 129.824C534.162 130.452 534.661 131.197 535.001 132.018C535.341 132.839 535.516 133.718 535.516 134.607C535.516 135.495 535.341 136.375 535.001 137.195C534.661 138.016 534.162 138.762 533.534 139.39C532.588 140.336 531.383 140.981 530.07 141.242C528.758 141.503 527.398 141.369 526.161 140.857C524.925 140.345 523.868 139.478 523.125 138.365C522.382 137.253 521.985 135.945 521.985 134.607C521.985 133.269 522.382 131.961 523.125 130.848C523.868 129.736 524.925 128.869 526.161 128.357C527.398 127.845 528.758 127.711 530.07 127.972C531.383 128.233 532.588 128.878 533.534 129.824Z" fill="white"/>
<path d="M377.54 285.418H241.363C216.394 285.418 196.153 305.659 196.153 330.628V330.629C196.153 355.598 216.394 375.839 241.363 375.839H377.54C402.509 375.839 422.75 355.598 422.75 330.629V330.628C422.75 305.659 402.509 285.418 377.54 285.418Z" fill="white" stroke="#E1E4E5" stroke-width="4"/>
<path d="M278.183 330.497C278.183 310.498 261.971 294.285 241.971 294.285C221.972 294.285 205.76 310.498 205.76 330.497C205.76 350.496 221.972 366.708 241.971 366.708C261.971 366.708 278.183 350.496 278.183 330.497Z" fill="#4F27AA"/>
<path fill-rule="evenodd" clip-rule="evenodd" d="M258.428 345.689V348.111C258.428 349.447 257.357 350.532 256.038 350.532H227.364C226.045 350.532 224.975 349.447 224.975 348.111V345.651C224.975 338.324 233.238 333.563 241.701 333.563C250.165 333.563 258.428 338.326 258.428 345.651M247.701 312.291C249.292 313.882 250.186 316.041 250.186 318.291C250.186 320.542 249.291 322.7 247.7 324.291C246.109 325.882 243.95 326.776 241.7 326.776C239.449 326.775 237.291 325.881 235.7 324.29C234.12 322.696 233.235 320.542 233.24 318.297C233.244 316.053 234.138 313.902 235.725 312.315C237.312 310.728 239.463 309.835 241.708 309.83C243.952 309.826 246.107 310.71 247.7 312.291H247.701Z" fill="white"/>
<path d="M384.075 313.742H289.298C287.794 313.742 286.574 314.962 286.574 316.466C286.574 317.97 287.794 319.189 289.298 319.189H384.075C385.579 319.189 386.799 317.97 386.799 316.466C386.799 314.962 385.579 313.742 384.075 313.742Z" fill="#E1E4E5"/>
<path d="M383.531 326.814H289.842C288.037 326.814 286.574 328.278 286.574 330.082C286.574 331.887 288.037 333.35 289.842 333.35H383.531C385.336 333.35 386.799 331.887 386.799 330.082C386.799 328.278 385.336 326.814 383.531 326.814Z" fill="#E1E4E5"/>
<path d="M384.075 340.979H289.298C287.794 340.979 286.574 342.198 286.574 343.702C286.574 345.206 287.794 346.426 289.298 346.426H384.075C385.579 346.426 386.799 345.206 386.799 343.702C386.799 342.198 385.579 340.979 384.075 340.979Z" fill="#E1E4E5"/>
<path d="M680.395 218.965H544.218C519.249 218.965 499.008 239.206 499.008 264.175V264.176C499.008 289.145 519.249 309.386 544.218 309.386H680.395C705.364 309.386 725.605 289.145 725.605 264.176V264.175C725.605 239.206 705.364 218.965 680.395 218.965Z" fill="white" stroke="#E1E4E5" stroke-width="4"/>
<path d="M581.039 264.044C581.039 244.044 564.827 227.832 544.827 227.832C524.828 227.832 508.616 244.044 508.616 264.044C508.616 284.043 524.828 300.255 544.827 300.255C564.827 300.255 581.039 284.043 581.039 264.044Z" fill="#4F27AA"/>
<path fill-rule="evenodd" clip-rule="evenodd" d="M561.283 279.234V281.656C561.283 282.992 560.212 284.077 558.893 284.077H530.219C528.9 284.077 527.83 282.992 527.83 281.656V279.196C527.83 271.869 536.093 267.108 544.556 267.108C553.02 267.108 561.283 271.871 561.283 279.196M550.556 245.837C552.147 247.428 553.041 249.586 553.041 251.836C553.041 254.086 552.147 256.244 550.556 257.835C549.768 258.623 548.833 259.248 547.803 259.674C546.774 260.101 545.671 260.32 544.557 260.32C543.442 260.32 542.339 260.101 541.31 259.674C540.28 259.248 539.345 258.623 538.557 257.835C536.966 256.244 536.072 254.086 536.072 251.836C536.072 249.586 536.966 247.428 538.557 245.837C539.345 245.049 540.28 244.424 541.31 243.997C542.339 243.571 543.442 243.352 544.557 243.352C545.671 243.352 546.774 243.571 547.803 243.997C548.833 244.424 549.768 245.049 550.556 245.837Z" fill="white"/>
<path d="M686.93 247.289H592.153C590.649 247.289 589.429 248.508 589.429 250.013C589.429 251.517 590.649 252.736 592.153 252.736H686.93C688.434 252.736 689.654 251.517 689.654 250.013C689.654 248.508 688.434 247.289 686.93 247.289Z" fill="#E1E4E5"/>
<path d="M686.386 260.361H592.697C590.892 260.361 589.429 261.824 589.429 263.629C589.429 265.434 590.892 266.897 592.697 266.897H686.386C688.191 266.897 689.654 265.434 689.654 263.629C689.654 261.824 688.191 260.361 686.386 260.361Z" fill="#E1E4E5"/>
<path d="M686.93 274.523H592.153C590.649 274.523 589.429 275.743 589.429 277.247C589.429 278.751 590.649 279.97 592.153 279.97H686.93C688.434 279.97 689.654 278.751 689.654 277.247C689.654 275.743 688.434 274.523 686.93 274.523Z" fill="#E1E4E5"/>
<path d="M433.1 169.941H296.923C271.954 169.941 251.713 190.183 251.713 215.151V215.152C251.713 240.121 271.954 260.362 296.923 260.362H433.1C458.069 260.362 478.31 240.121 478.31 215.152V215.151C478.31 190.183 458.069 169.941 433.1 169.941Z" fill="white" stroke="#E1E4E5" stroke-width="4"/>
<path d="M333.743 215.02C333.743 195.021 317.531 178.809 297.531 178.809C277.532 178.809 261.32 195.021 261.32 215.02C261.32 235.019 277.532 251.232 297.531 251.232C317.531 251.232 333.743 235.019 333.743 215.02Z" fill="#4F27AA"/>
<path fill-rule="evenodd" clip-rule="evenodd" d="M313.987 230.212V232.634C313.987 233.97 312.917 235.055 311.598 235.055H282.924C281.605 235.055 280.534 233.97 280.534 232.634V230.173C280.534 222.846 288.797 218.086 297.261 218.086C305.725 218.086 313.987 222.849 313.987 230.173M303.261 196.814C304.049 197.602 304.674 198.537 305.1 199.567C305.526 200.596 305.746 201.7 305.746 202.814C305.746 203.928 305.526 205.032 305.1 206.061C304.673 207.091 304.048 208.026 303.26 208.814C302.472 209.602 301.537 210.227 300.507 210.653C299.478 211.079 298.374 211.299 297.26 211.299C296.145 211.299 295.042 211.079 294.013 210.653C292.983 210.226 292.048 209.601 291.26 208.813C289.669 207.221 288.775 205.063 288.775 202.813C288.775 200.562 289.67 198.404 291.261 196.813C292.852 195.222 295.011 194.328 297.261 194.328C299.512 194.328 301.67 195.222 303.261 196.814Z" fill="white"/>
<path d="M439.635 198.266H344.858C343.354 198.266 342.134 199.485 342.134 200.989C342.134 202.493 343.354 203.713 344.858 203.713H439.635C441.139 203.713 442.359 202.493 442.359 200.989C442.359 199.485 441.139 198.266 439.635 198.266Z" fill="#E1E4E5"/>
<path d="M439.091 211.338H345.402C343.597 211.338 342.134 212.801 342.134 214.606C342.134 216.411 343.597 217.874 345.402 217.874H439.091C440.896 217.874 442.359 216.411 442.359 214.606C442.359 212.801 440.896 211.338 439.091 211.338Z" fill="#E1E4E5"/>
<path d="M439.635 225.502H344.858C343.354 225.502 342.134 226.721 342.134 228.225C342.134 229.73 343.354 230.949 344.858 230.949H439.635C441.139 230.949 442.359 229.73 442.359 228.225C442.359 226.721 441.139 225.502 439.635 225.502Z" fill="#E1E4E5"/>
<path d="M176.723 100.764C176.723 104.89 173.604 108.024 170.007 108.024C166.411 108.024 163.292 104.89 163.292 100.764C163.292 96.6389 166.411 93.5039 170.007 93.5039C173.604 93.5039 176.723 96.6389 176.723 100.764ZM205.047 100.764C205.047 104.668 201.662 108.024 197.243 108.024C192.823 108.024 189.438 104.668 189.438 100.764C189.438 96.8609 192.823 93.5039 197.243 93.5039C201.662 93.5039 205.047 96.8609 205.047 100.764Z" fill="white" stroke="#E1E4E5" stroke-width="4"/>
<path d="M223.933 108.024C227.943 108.024 231.193 104.773 231.193 100.764C231.193 96.7543 227.943 93.5039 223.933 93.5039C219.923 93.5039 216.673 96.7543 216.673 100.764C216.673 104.773 219.923 108.024 223.933 108.024Z" fill="white" stroke="#E1E4E5" stroke-width="4"/>
<path opacity="0.76" fill-rule="evenodd" clip-rule="evenodd" d="M295.289 403.074L353.028 493.495H237.551L295.289 403.074Z" fill="url(#paint0_linear_1235_21799)"/>
<path opacity="0.76" fill-rule="evenodd" clip-rule="evenodd" d="M480.646 279.27L506.883 320.084H454.408L480.646 279.27Z" fill="url(#paint1_linear_1235_21799)"/>
<path d="M86.786 460.139C80.297 465.809 69.135 463.659 69.135 463.659C69.135 463.659 68.5 452.315 74.995 446.649C81.484 440.979 92.641 443.125 92.641 443.125C92.641 443.125 93.275 454.469 86.786 460.139Z" fill="url(#paint2_linear_1235_21799)"/>
<path d="M751.574 88.5022C751.006 90.6222 752.264 92.8013 754.384 93.3693C756.504 93.9374 758.684 92.6793 759.252 90.5593C759.82 88.4393 758.562 86.2602 756.442 85.6922C754.322 85.1241 752.142 86.3822 751.574 88.5022Z" fill="#E1E4E5"/>
<path d="M735.349 119.6C734.781 121.72 736.039 123.899 738.159 124.467C740.279 125.035 742.459 123.777 743.027 121.657C743.595 119.537 742.337 117.358 740.217 116.79C738.097 116.222 735.917 117.48 735.349 119.6Z" fill="#E1E4E5"/>
<path d="M827.294 64.8381C826.726 66.9581 827.984 69.1372 830.104 69.7053C832.224 70.2733 834.404 69.0152 834.972 66.8952C835.54 64.7752 834.282 62.5961 832.162 62.0281C830.042 61.46 827.862 62.7181 827.294 64.8381Z" fill="#E1E4E5"/>
<path d="M810.166 321.711C809.793 323.104 810.619 324.536 812.012 324.909C813.405 325.283 814.837 324.456 815.21 323.063C815.583 321.67 814.757 320.238 813.364 319.865C811.971 319.492 810.539 320.319 810.166 321.711Z" fill="#E1E4E5"/>
<path d="M771.9 529.287C771.332 531.407 772.59 533.586 774.71 534.154C776.83 534.723 779.01 533.464 779.578 531.344C780.146 529.224 778.888 527.045 776.768 526.477C774.648 525.909 772.468 527.167 771.9 529.287Z" fill="#E1E4E5"/>
<path d="M596.288 484.17L586.749 493.709C586.401 494.056 586.401 494.619 586.749 494.967L586.749 494.967C587.096 495.314 587.659 495.314 588.007 494.967L597.546 485.428C597.893 485.08 597.893 484.518 597.546 484.17L597.545 484.17C597.198 483.823 596.635 483.823 596.288 484.17Z" fill="#E1E4E5"/>
<path d="M595.354 490.999L592.603 493.75C592.255 494.097 592.255 494.66 592.603 495.008L592.603 495.008C592.951 495.355 593.513 495.355 593.861 495.008L596.612 492.257C596.959 491.91 596.959 491.347 596.612 491L596.611 490.999C596.264 490.652 595.701 490.652 595.354 490.999Z" fill="#E1E4E5"/>
<path d="M734.204 492.37C734.113 492.238 740.766 487.498 749.071 481.802C757.373 476.096 764.187 471.581 764.278 471.713C764.369 471.845 757.713 476.574 749.411 482.28C741.098 487.989 734.295 492.502 734.204 492.37ZM762.509 442.293H762.604C763.169 449.958 769.117 450.076 769.117 450.076C769.117 450.076 762.558 450.198 762.558 459.055C762.558 450.198 755.998 450.076 755.998 450.076C755.998 450.076 761.944 449.958 762.509 442.293Z" fill="#E1E4E5"/>
<path d="M456.373 405.1L433.075 490.271L441.387 480.705C438.313 482.342 434.749 483.597 430.802 484.488C426.855 485.379 422.563 485.888 418.071 486.125C413.579 486.361 408.904 486.325 404.103 486.125C399.32 485.925 394.427 485.561 389.462 485.143H389.444C382.115 484.524 375.676 489.944 375.04 497.274C374.439 504.257 379.405 510.441 386.207 511.551C391.335 512.369 396.537 513.133 401.884 513.751C407.231 514.37 412.706 514.824 418.38 514.952C424.054 515.079 429.929 514.861 436.004 513.988C442.06 513.115 448.353 511.532 454.5 508.877C458.428 507.186 461.229 503.948 462.502 500.184L462.793 499.292L490.747 415.522C493.894 406.101 488.801 395.934 479.38 392.788C469.959 389.641 459.792 394.734 456.646 404.155C456.555 404.464 456.446 404.809 456.373 405.1Z" fill="#F8AE9D"/>
<path d="M508.151 522.1C508.46 524.5 509.515 526.338 510.515 526.193C511.497 526.065 512.061 524.01 511.752 521.628C511.443 519.227 510.388 517.389 509.387 517.535C508.387 517.662 507.842 519.717 508.151 522.1Z" fill="#B55E63"/>
<mask id="mask0_1235_21799" style="mask-type:alpha" maskUnits="userSpaceOnUse" x="455" y="372" width="122" height="156">
<path fill-rule="evenodd" clip-rule="evenodd" d="M468.194 492.303C468.194 492.263 468.184 492.224 468.165 492.188C468.147 492.153 468.12 492.123 468.087 492.101C467.779 491.885 467.477 491.663 467.179 491.434C465.073 489.881 464.697 486.287 464.076 480.358C463.869 478.387 463.636 476.158 463.303 473.66C461.975 463.703 460.993 457.752 457.992 444.471C457.766 443.471 457.526 442.468 457.284 441.462C456.409 437.816 455.524 434.132 455.308 430.421C455.291 430.133 455.292 429.844 455.311 429.557C455.422 428.227 455.495 426.896 455.532 425.547C455.569 424.475 455.588 423.403 455.588 422.331V421.351C455.581 419.795 455.566 418.24 455.542 416.685C455.39 405.462 455.305 399.169 463.303 393.629C465.37 392.187 467.991 390.819 471.276 389.415C473.934 388.287 477.017 387.142 480.634 385.94C482.092 385.46 483.661 384.961 485.322 384.443L489.235 383.371L529.66 372.173C530.061 372.062 530.478 372.023 530.893 372.042C532.959 372.149 535.023 372.283 537.086 372.444C537.708 372.491 538.366 372.54 539.051 372.596C542.484 372.874 546.711 373.262 551.307 373.816C552.653 373.97 554.047 374.155 555.459 374.342L555.81 374.389C560.499 375.018 564.282 376.607 567.272 378.899C572.57 382.965 575.431 389.285 576.483 396.623C577.073 400.744 577.11 405.18 576.704 409.726C576.539 411.538 576.311 413.345 576.021 415.142C575.761 416.784 575.447 418.417 575.08 420.039C574.002 424.884 573.06 429.759 572.256 434.658L571.924 436.654C571.856 437.111 571.785 437.572 571.713 438.035C571.628 438.583 571.542 439.134 571.462 439.685C569.247 454.434 568.158 468.757 568.38 478.83V478.841L568.435 480.641C568.694 487.424 569.469 495.02 570.927 503.466C571.008 503.892 571.083 504.318 571.159 504.747C571.222 505.1 571.285 505.455 571.351 505.813C571.394 506.04 571.403 506.263 571.381 506.478C575.697 510.676 577.74 516.048 573.937 521.081C572.117 523.489 567.494 524.801 564.477 524.917L492.152 527.703C481.226 528.123 470.128 523.334 469.825 512.404C469.784 510.9 469.825 509.28 469.972 507.54C469.972 507.537 470.216 507.286 470.698 506.844C469.504 506.438 468.582 505.353 468.582 503.984C468.572 502.215 468.541 500.447 468.489 498.679C468.445 496.922 468.372 495.166 468.268 493.412C468.249 493.024 468.231 492.654 468.194 492.303Z" fill="white"/>
</mask>
<g mask="url(#mask0_1235_21799)">
<path fill-rule="evenodd" clip-rule="evenodd" d="M468.194 492.303C468.194 492.263 468.184 492.224 468.165 492.188C468.147 492.153 468.12 492.123 468.087 492.101C467.779 491.885 467.477 491.663 467.179 491.434C465.073 489.881 464.697 486.287 464.076 480.358C463.869 478.387 463.636 476.158 463.303 473.66C461.975 463.703 460.993 457.752 457.992 444.471C457.766 443.471 457.526 442.468 457.284 441.462C456.409 437.816 455.524 434.132 455.308 430.421C455.291 430.133 455.292 429.844 455.311 429.557C455.422 428.227 455.495 426.896 455.532 425.547C455.569 424.475 455.588 423.403 455.588 422.331V421.351C455.581 419.795 455.566 418.24 455.542 416.685C455.39 405.462 455.305 399.169 463.303 393.629C465.37 392.187 467.991 390.819 471.276 389.415C473.934 388.287 477.017 387.142 480.634 385.94C482.092 385.46 483.661 384.961 485.322 384.443L489.235 383.371L529.66 372.173C530.061 372.062 530.478 372.023 530.893 372.042C532.959 372.149 535.023 372.283 537.086 372.444C537.708 372.491 538.366 372.54 539.051 372.596C542.484 372.874 546.711 373.262 551.307 373.816C552.653 373.97 554.047 374.155 555.459 374.342L555.81 374.389C560.499 375.018 564.282 376.607 567.272 378.899C572.57 382.965 575.431 389.285 576.483 396.623C577.073 400.744 577.11 405.18 576.704 409.726C576.539 411.538 576.311 413.345 576.021 415.142C575.761 416.784 575.447 418.417 575.08 420.039C574.002 424.884 573.06 429.759 572.256 434.658L571.924 436.654C571.856 437.111 571.785 437.572 571.713 438.035C571.628 438.583 571.542 439.134 571.462 439.685C569.247 454.434 568.158 468.757 568.38 478.83V478.841L568.435 480.641C568.694 487.424 569.469 495.02 570.927 503.466C571.008 503.892 571.083 504.318 571.159 504.747C571.222 505.1 571.285 505.455 571.351 505.813C571.394 506.04 571.403 506.263 571.381 506.478C575.697 510.676 577.74 516.048 573.937 521.081C572.117 523.489 567.494 524.801 564.477 524.917L492.152 527.703C481.226 528.123 470.128 523.334 469.825 512.404C469.784 510.9 469.825 509.28 469.972 507.54C469.972 507.537 470.216 507.286 470.698 506.844C469.504 506.438 468.582 505.353 468.582 503.984C468.572 502.215 468.541 500.447 468.489 498.679C468.445 496.922 468.372 495.166 468.268 493.412C468.249 493.024 468.231 492.654 468.194 492.303Z" fill="white"/>
<path d="M468.087 492.102L470.367 488.815L468.087 492.102ZM468.194 492.304L464.216 492.722L464.194 492.514V492.304H468.194ZM467.179 491.435L469.554 488.217L469.582 488.238L469.611 488.26L467.179 491.435ZM464.076 480.359L468.054 479.942L464.076 480.359ZM463.303 473.661L467.268 473.132L463.303 473.661ZM457.992 444.472L461.894 443.591L457.992 444.472ZM457.284 441.463L461.174 440.529L457.284 441.463ZM455.308 430.422L451.315 430.654L455.308 430.422ZM455.311 429.558L451.32 429.284L451.322 429.255L451.325 429.227L455.311 429.558ZM455.532 425.548L451.534 425.438V425.424L451.535 425.41L455.532 425.548ZM455.588 421.352L459.588 421.342V421.352H455.588ZM455.542 416.686L459.542 416.632L455.542 416.686ZM463.303 393.63L465.591 396.911L465.581 396.918L463.303 393.63ZM471.276 389.416L469.704 385.738L469.714 385.733L471.276 389.416ZM480.634 385.941L479.374 382.145L479.382 382.142L480.634 385.941ZM485.322 384.444L484.133 380.625L484.199 380.605L484.265 380.586L485.322 384.444ZM489.235 383.372L490.303 387.227L490.292 387.23L489.235 383.372ZM529.66 372.174L528.592 368.319L529.66 372.174ZM530.893 372.043L530.723 376.039H530.711L530.893 372.043ZM535.932 372.357L536.209 368.367L536.227 368.368L536.245 368.369L535.932 372.357ZM537.086 372.445L536.786 376.434L537.086 372.445ZM539.051 372.597L538.729 376.584H538.724L539.051 372.597ZM551.307 373.817L550.854 377.791L550.841 377.79L550.828 377.788L551.307 373.817ZM555.459 374.343L554.932 378.309L555.459 374.343ZM555.81 374.39L556.337 370.425L556.342 370.426L555.81 374.39ZM567.272 378.9L569.706 375.725L569.708 375.727L567.272 378.9ZM576.483 396.624L580.442 396.056L576.483 396.624ZM576.704 409.727L580.688 410.083L580.687 410.096L576.704 409.727ZM576.021 415.143L572.071 414.515L572.072 414.507L572.073 414.499L576.021 415.143ZM575.08 420.04L571.176 419.167L571.179 419.155L575.08 420.04ZM572.256 434.659L576.202 435.311V435.316L572.256 434.659ZM571.924 436.655L567.967 436.07L567.972 436.034L567.978 435.999L571.924 436.655ZM571.713 438.036L567.76 437.423L571.713 438.036ZM571.462 439.686L575.421 440.261L575.419 440.271L575.418 440.28L571.462 439.686ZM568.38 478.831L564.382 478.952L564.381 478.935V478.919L568.38 478.831ZM568.38 478.842L564.382 478.963L568.38 478.842ZM568.435 480.642L564.438 480.794V480.781L564.437 480.767L568.435 480.642ZM570.927 503.467L566.997 504.215L566.991 504.181L566.985 504.148L570.927 503.467ZM571.159 504.748L567.221 505.446L571.159 504.748ZM571.351 505.814L567.421 506.559L567.419 506.545L571.351 505.814ZM571.381 506.479L568.592 509.346L567.208 508L567.401 506.079L571.381 506.479ZM573.937 521.082L577.128 523.493L573.937 521.082ZM564.477 524.918L564.631 528.915L564.477 524.918ZM492.152 527.704L492.305 531.701L492.152 527.704ZM469.825 512.405L465.827 512.516L469.825 512.405ZM469.972 507.541H473.972V507.71L473.958 507.879L469.972 507.541ZM470.698 506.845L471.986 503.058L478.383 505.233L473.399 509.796L470.698 506.845ZM468.582 503.985L472.581 503.946L472.582 503.965V503.985H468.582ZM468.489 498.68L464.492 498.816L464.491 498.803V498.79L468.489 498.68ZM468.268 493.413L464.276 493.662L464.274 493.633L464.272 493.603L468.268 493.413ZM470.367 488.815C470.931 489.205 471.391 489.727 471.71 490.334C472.028 490.942 472.194 491.618 472.194 492.304H464.194C464.194 493.559 464.817 494.701 465.807 495.388L470.367 488.815ZM469.611 488.26C469.989 488.549 470.257 488.738 470.367 488.815L465.808 495.388C465.448 495.137 465.094 494.878 464.747 494.611L469.611 488.26ZM468.054 479.942C468.375 483.008 468.601 485.09 468.963 486.615C469.327 488.152 469.655 488.291 469.554 488.217L464.804 494.654C462.598 493.026 461.684 490.592 461.179 488.461C460.671 486.319 460.398 483.639 460.098 480.776L468.054 479.942ZM467.268 473.132C467.609 475.693 467.848 477.974 468.054 479.942L460.098 480.776C459.891 478.802 459.663 476.625 459.338 474.189L467.268 473.132ZM461.894 443.591C464.921 456.989 465.925 463.058 467.268 473.132L459.338 474.189C458.026 464.351 457.065 458.517 454.091 445.354L461.894 443.591ZM461.174 440.529C461.414 441.531 461.661 442.56 461.894 443.591L454.091 445.354C453.872 444.384 453.637 443.407 453.395 442.397L461.174 440.529ZM459.302 430.19C459.493 433.485 460.283 436.82 461.174 440.529L453.395 442.397C452.534 438.813 451.555 434.781 451.315 430.654L459.302 430.19ZM459.301 429.833C459.295 429.933 459.294 430.051 459.302 430.19L451.315 430.654C451.288 430.197 451.289 429.74 451.32 429.284L459.301 429.833ZM459.531 425.657C459.492 427.069 459.414 428.481 459.297 429.89L451.325 429.227C451.429 427.97 451.499 426.713 451.534 425.438L459.531 425.657ZM459.588 422.332C459.588 423.45 459.568 424.568 459.53 425.685L451.535 425.41C451.57 424.384 451.588 423.358 451.588 422.332H459.588ZM459.588 422.092V422.332H451.588V422.092H459.588ZM459.588 421.352V422.092H451.588V421.352H459.588ZM459.542 416.632C459.562 418.098 459.583 419.671 459.588 421.342L451.588 421.363C451.584 419.742 451.563 418.211 451.543 416.741L459.542 416.632ZM465.581 396.918C462.297 399.192 460.933 401.374 460.236 404.039C459.444 407.069 459.463 410.833 459.542 416.632L451.543 416.741C451.469 411.316 451.37 406.322 452.496 402.015C453.718 397.343 456.31 393.608 461.025 390.342L465.581 396.918ZM472.849 393.094C469.697 394.441 467.349 395.685 465.591 396.911L461.015 390.349C463.391 388.691 466.285 387.2 469.704 385.738L472.849 393.094ZM481.895 389.737C478.351 390.914 475.373 392.023 472.838 393.098L469.714 385.733C472.495 384.554 475.682 383.371 479.374 382.145L481.895 389.737ZM486.512 388.263C484.966 388.743 483.424 389.235 481.886 389.74L479.382 382.142C480.867 381.653 482.458 381.147 484.133 380.625L486.512 388.263ZM490.292 387.23L486.379 388.302L484.265 380.586L488.178 379.514L490.292 387.23ZM530.728 376.029L490.303 387.227L488.167 379.517L528.592 368.319L530.728 376.029ZM530.711 376.039C530.701 376.038 530.69 376.038 530.68 376.039C530.682 376.038 530.699 376.037 530.728 376.029L528.592 368.319C529.4 368.098 530.238 368.006 531.075 368.047L530.711 376.039ZM535.655 376.348C534.012 376.228 532.368 376.125 530.723 376.039L531.064 368.047C531.992 368.086 533.816 368.201 536.209 368.367L535.655 376.348ZM536.786 376.434L535.619 376.345L536.245 368.369C536.605 368.398 536.984 368.426 537.385 368.456L536.786 376.434ZM538.724 376.584C538.055 376.529 537.41 376.481 536.786 376.434L537.385 368.456C538.006 368.503 538.677 368.553 539.379 368.611L538.724 376.584ZM550.828 377.788C546.299 377.242 542.128 376.859 538.729 376.584L539.373 368.61C542.841 368.89 547.123 369.283 551.786 369.846L550.828 377.788ZM554.932 378.309C553.574 378.123 552.215 377.951 550.854 377.791L551.76 369.843C553.15 370.002 554.581 370.192 555.986 370.378L554.932 378.309ZM555.284 378.355L554.932 378.309L555.986 370.378L556.337 370.425L555.284 378.355ZM564.839 382.074C562.459 380.25 559.348 378.9 555.279 378.355L556.342 370.426C561.649 371.137 566.106 372.966 569.706 375.725L564.839 382.074ZM572.523 397.191C571.563 390.495 569.036 385.296 564.837 382.073L569.708 375.727C576.103 380.635 579.298 388.078 580.442 396.056L572.523 397.191ZM572.72 409.372C573.104 405.066 573.061 400.947 572.523 397.191L580.442 396.056C581.085 400.544 581.116 405.296 580.688 410.083L572.72 409.372ZM572.073 414.499C572.352 412.791 572.562 411.073 572.721 409.358L580.687 410.096C580.513 412 580.274 413.898 579.969 415.786L572.073 414.499ZM571.179 419.155C571.528 417.618 571.825 416.059 572.071 414.515L579.972 415.77C579.697 417.498 579.367 419.218 578.981 420.926L571.179 419.155ZM568.309 434.007C569.126 429.034 570.082 424.085 571.176 419.167L578.983 420.913C577.922 425.685 576.995 430.486 576.202 435.311L568.309 434.007ZM567.978 435.999L568.31 434.003L576.202 435.316L575.869 437.312L567.978 435.999ZM567.76 437.423C567.832 436.958 567.901 436.511 567.967 436.07L575.881 437.241C575.811 437.714 575.737 438.189 575.665 438.649L567.76 437.423ZM567.504 439.111C567.587 438.538 567.675 437.968 567.76 437.423L575.665 438.649C575.58 439.201 575.497 439.733 575.421 440.261L567.504 439.111ZM564.381 478.919C564.153 468.548 565.27 453.984 567.507 439.092L575.418 440.28C573.225 454.885 572.164 468.969 572.379 478.743L564.381 478.919ZM564.382 478.963V478.952L572.378 478.71V478.722L564.382 478.963ZM564.437 480.767L564.382 478.963L572.378 478.721L572.433 480.517L564.437 480.767ZM566.985 504.148C565.499 495.54 564.704 487.767 564.438 480.794L572.432 480.49C572.683 487.083 573.438 494.502 574.869 502.787L566.985 504.148ZM567.221 505.446C567.144 505.013 567.073 504.612 566.997 504.215L574.856 502.72C574.943 503.174 575.023 503.625 575.098 504.05L567.221 505.446ZM567.419 506.545C567.349 506.167 567.283 505.796 567.221 505.446L575.098 504.05C575.161 504.405 575.221 504.744 575.284 505.084L567.419 506.545ZM567.401 506.079C567.385 506.244 567.393 506.407 567.421 506.559L575.282 505.07C575.396 505.675 575.421 506.284 575.361 506.879L567.401 506.079ZM574.17 503.612C576.665 506.039 578.798 509.076 579.602 512.569C580.445 516.232 579.735 520.044 577.128 523.493L570.746 518.671C571.942 517.087 572.112 515.695 571.806 514.365C571.46 512.863 570.413 511.117 568.592 509.346L574.17 503.612ZM577.128 523.493C575.534 525.602 573.069 526.871 571.029 527.617C568.891 528.398 566.57 528.841 564.631 528.915L564.324 520.921C565.401 520.88 566.9 520.608 568.283 520.103C569.764 519.561 570.52 518.969 570.746 518.671L577.128 523.493ZM564.631 528.915L492.305 531.701L491.998 523.707L564.324 520.921L564.631 528.915ZM492.305 531.701C486.286 531.932 479.957 530.751 474.944 527.738C469.79 524.64 466.022 519.556 465.827 512.516L473.824 512.294C473.932 516.184 475.864 518.958 479.065 520.882C482.409 522.891 487.091 523.896 491.998 523.707L492.305 531.701ZM465.827 512.516C465.781 510.859 465.827 509.089 465.987 507.204L473.958 507.879C473.83 509.346 473.786 510.821 473.824 512.294L465.827 512.516ZM465.972 507.541C465.972 506.846 466.153 506.163 466.497 505.56C466.599 505.381 466.694 505.249 466.729 505.2C466.81 505.087 466.88 505.004 466.9 504.979C466.953 504.915 466.998 504.867 467.01 504.853L467.085 504.772L467.168 504.686L467.36 504.496C467.513 504.346 467.726 504.144 467.997 503.895L473.399 509.796C473.189 509.988 473.039 510.132 472.949 510.22C472.903 510.264 472.877 510.291 472.868 510.3L472.883 510.285L472.94 510.222C473.134 510.007 473.304 509.772 473.448 509.522C473.498 509.434 473.592 509.261 473.684 509.031C473.726 508.922 473.811 508.667 473.851 508.52C473.896 508.318 473.962 507.828 473.972 507.541H465.972ZM472.582 503.985C472.582 503.74 472.491 503.504 472.361 503.335C472.266 503.207 472.136 503.111 471.986 503.058L469.411 510.632C466.815 509.75 464.582 507.289 464.582 503.985H472.582ZM472.487 498.544C472.544 500.228 472.563 502.051 472.581 503.946L464.582 504.023C464.572 502.287 464.542 500.551 464.492 498.816L472.487 498.544ZM472.26 493.164C472.356 494.703 472.432 496.527 472.488 498.57L464.491 498.79C464.436 496.805 464.364 495.08 464.276 493.662L472.26 493.164ZM472.172 491.886C472.223 492.369 472.246 492.85 472.263 493.223L464.272 493.603C464.261 493.308 464.243 493.015 464.216 492.722L472.172 491.886Z" fill="#E1E4E5"/>
<path d="M529.377 374.018C529.377 374.018 525.758 387.713 512.081 391.514C494.694 396.334 492.075 390.496 492.075 390.496C492.512 388.004 492.657 385.567 492.548 382.984C492.504 381.981 492.425 380.98 492.311 379.983C492.002 377.183 491.42 374.127 490.602 370.635C490.42 369.817 490.202 368.962 489.984 368.089L489.965 367.98C501.86 363.506 511.19 356.795 516.901 346.864L518.592 345.537L519.738 344.627L520.065 345.318L520.12 347.628C520.356 358.486 522.193 364.906 529.377 374.018ZM534.225 395.684L508.1 492.01L517.415 481.192C513.969 483.045 509.974 484.453 505.555 485.469C501.136 486.467 496.311 487.055 491.291 487.305C486.254 487.572 481.004 487.519 475.631 487.305C470.257 487.073 464.778 486.681 459.21 486.2H459.175C450.956 485.487 443.727 491.635 443.02 499.922C442.348 507.817 447.916 514.821 455.552 516.069C461.296 516.996 467.147 517.869 473.139 518.564C479.13 519.259 485.282 519.794 491.645 519.936C498.008 520.079 504.601 519.829 511.406 518.831C518.211 517.833 525.263 516.051 532.157 513.057C536.575 511.132 539.704 507.479 541.136 503.237L541.472 502.239L572.792 407.482C576.31 396.825 570.618 385.33 560.048 381.765C549.496 378.219 538.078 383.957 534.543 394.615C534.437 394.953 534.313 395.363 534.225 395.684Z" fill="#F8AE9D"/>
<path fill-rule="evenodd" clip-rule="evenodd" d="M226.511 528.991V523.948C226.511 521.054 229.418 518.709 232.989 518.695H683.138C686.728 518.695 689.616 521.054 689.616 523.948V528.991C689.616 531.898 686.709 534.244 683.138 534.244H662.982C661.618 534.244 660.31 534.786 659.346 535.75C658.382 536.715 657.84 538.023 657.84 539.386C657.84 540.283 656.367 541.005 654.549 541.005H249.391C247.59 541.005 246.117 540.283 246.117 539.386C246.117 538.023 245.575 536.715 244.611 535.75C243.647 534.786 242.339 534.244 240.975 534.244H232.989C229.399 534.244 226.511 531.898 226.511 528.991Z" fill="white"/>
<path d="M232.989 518.695L232.981 516.695H232.989V518.695ZM228.511 523.948V528.991H224.511V523.948H228.511ZM232.997 520.695C230.105 520.706 228.511 522.535 228.511 523.948H224.511C224.511 519.574 228.73 516.711 232.981 516.695L232.997 520.695ZM683.138 520.695H232.989V516.695H683.138V520.695ZM687.616 523.948C687.616 522.526 686.031 520.695 683.138 520.695V516.695C687.426 516.695 691.616 519.583 691.616 523.948H687.616ZM687.616 528.991V523.948H691.616V528.991H687.616ZM683.138 532.244C686.02 532.244 687.616 530.42 687.616 528.991H691.616C691.616 533.376 687.399 536.244 683.138 536.244V532.244ZM662.982 532.244H683.138V536.244H662.982V532.244ZM654.549 539.005C655.221 539.005 655.729 538.867 655.995 538.737C656.127 538.671 656.123 538.646 656.065 538.714C655.995 538.795 655.84 539.028 655.84 539.386H659.84C659.84 541.016 658.557 541.934 657.758 542.327C656.833 542.781 655.695 543.005 654.549 543.005V539.005ZM249.391 539.005H654.549V543.005H249.391V539.005ZM248.117 539.386C248.117 539.028 247.963 538.796 247.893 538.715C247.835 538.647 247.832 538.673 247.963 538.738C248.227 538.868 248.73 539.005 249.391 539.005V543.005C248.25 543.005 247.117 542.78 246.194 542.325C245.398 541.933 244.117 541.014 244.117 539.386H248.117ZM232.989 532.244H240.975V536.244H232.989V532.244ZM228.511 528.991C228.511 530.424 230.093 532.244 232.989 532.244V536.244C228.705 536.244 224.511 533.373 224.511 528.991H228.511ZM244.117 539.386C244.117 538.974 244.036 538.565 243.878 538.184C243.72 537.803 243.488 537.456 243.197 537.165C242.905 536.873 242.559 536.641 242.177 536.484C241.796 536.326 241.388 536.244 240.975 536.244V532.244C241.913 532.244 242.842 532.429 243.708 532.788C244.575 533.147 245.362 533.673 246.025 534.336C246.689 534.999 247.215 535.787 247.574 536.653C247.932 537.52 248.117 538.448 248.117 539.386H244.117ZM662.982 536.244C662.569 536.244 662.161 536.326 661.78 536.484C661.398 536.641 661.052 536.873 660.76 537.165C660.469 537.456 660.237 537.803 660.079 538.184C659.921 538.565 659.84 538.974 659.84 539.386H655.84C655.84 537.492 656.592 535.676 657.932 534.336C659.271 532.997 661.088 532.244 662.982 532.244V536.244Z" fill="#E1E4E5"/>
<path d="M280.993 393.659L302.09 482.886L302.654 485.232L304.073 491.234C304.37 492.497 305.085 493.622 306.102 494.428C307.118 495.233 308.377 495.672 309.674 495.672H451.808C455.518 495.672 458.283 492.198 457.428 488.579L434.348 391.004C434.051 389.742 433.336 388.617 432.319 387.811C431.303 387.006 430.044 386.567 428.747 386.566H286.613C282.885 386.585 280.138 390.058 280.993 393.659Z" fill="#4F27AA"/>
<path d="M423.091 386.584L447.662 495.689H451.808C455.519 495.689 458.265 492.216 457.41 488.596L434.33 391.021C434.033 389.759 433.318 388.634 432.301 387.828C431.285 387.023 430.026 386.585 428.729 386.584H423.091ZM382.022 494.806L385.92 516.617H373.04L369.142 494.806H382.022Z" fill="#2E2445"/>
<path fill-rule="evenodd" clip-rule="evenodd" d="M507.211 346.598V362.475L518.82 353.087C518.82 353.087 522.388 337.875 525.29 326.577C527.11 319.492 531.544 295.514 513.694 296.638C499.072 270.75 456.488 286.772 456.149 318.399C464.3 364.347 457.399 378.939 457.399 378.939C481.479 380.327 493.708 369.14 507.211 346.598Z" fill="#2E2445"/>
<path d="M754.879 333.352L738.11 350.105L729.963 341.982M227.606 247.289L210.837 264.042L202.69 255.919M254.841 403.074L238.072 419.827L229.925 411.704M602.362 334.441L585.593 351.194L577.446 343.072M191.655 461.902L174.886 478.655L166.739 470.532M239.589 162.315L222.82 179.068L214.673 170.945M596.915 152.51L580.145 169.263L571.999 161.141" stroke="#E1E4E5" stroke-width="4" stroke-linecap="round" stroke-linejoin="round"/>
</g>
</g>
<defs>
<linearGradient id="paint0_linear_1235_21799" x1="297.751" y1="544.19" x2="295.568" y2="304.699" gradientUnits="userSpaceOnUse">
<stop stop-color="white"/>
<stop offset="1" stop-color="#EEEEEE"/>
</linearGradient>
<linearGradient id="paint1_linear_1235_21799" x1="481.765" y1="342.966" x2="480.786" y2="234.865" gradientUnits="userSpaceOnUse">
<stop stop-color="white"/>
<stop offset="1" stop-color="#EEEEEE"/>
</linearGradient>
<linearGradient id="paint2_linear_1235_21799" x1="61.164" y1="479.244" x2="109.901" y2="414.316" gradientUnits="userSpaceOnUse">
<stop stop-color="white"/>
<stop offset="1" stop-color="#EEEEEE"/>
</linearGradient>
<clipPath id="clip0_1235_21799">
<rect width="900" height="600" fill="white"/>
</clipPath>
</defs>
</svg>
