<svg width="900" height="600" viewBox="0 0 900 600" fill="none" xmlns="http://www.w3.org/2000/svg">
<g clip-path="url(#clip0_1235_21857)">
<path d="M194.066 494.595C207.579 482.92 206.395 459.392 206.395 459.392C206.395 459.392 183.302 454.808 169.796 466.496C156.283 478.171 157.46 501.687 157.46 501.687C157.46 501.687 180.553 506.271 194.066 494.595Z" fill="url(#paint0_linear_1235_21857)"/>
<path d="M786.589 437.403C779.775 430.59 768.729 430.59 761.915 437.403C755.102 444.217 755.102 455.264 761.915 462.077C768.729 468.891 779.775 468.891 786.589 462.077C793.402 455.264 793.402 444.217 786.589 437.403Z" fill="#4F27AA"/>
<path d="M292.709 467.738C292.709 453.979 281.555 442.824 267.795 442.824C254.035 442.824 242.881 453.979 242.881 467.738C242.881 481.498 254.035 492.652 267.795 492.652C281.555 492.652 292.709 481.498 292.709 467.738Z" fill="#4F27AA"/>
<path d="M432.8 87.7909C421.96 87.7909 413.172 96.5786 413.172 107.419C413.172 118.259 421.96 127.047 432.8 127.047C443.64 127.047 452.428 118.259 452.428 107.419C452.428 96.5786 443.64 87.7909 432.8 87.7909Z" fill="#4F27AA"/>
<path d="M703.838 141.591C694.804 141.591 687.481 134.268 687.481 125.234C687.481 116.2 694.804 108.877 703.838 108.877C712.872 108.877 720.195 116.2 720.195 125.234C720.195 134.268 712.872 141.591 703.838 141.591Z" fill="#4F27AA"/>
<path d="M503.79 294.561C499.574 294.561 496.157 291.144 496.157 286.928C496.157 282.712 499.574 279.295 503.79 279.295C508.006 279.295 511.423 282.712 511.423 286.928C511.423 291.144 508.006 294.561 503.79 294.561Z" fill="#E1E4E5"/>
<path d="M374.82 294.561C370.604 294.561 367.187 291.144 367.187 286.928C367.187 282.712 370.604 279.295 374.82 279.295C379.036 279.295 382.453 282.712 382.453 286.928C382.453 291.144 379.036 294.561 374.82 294.561Z" fill="#E1E4E5"/>
<path d="M653.52 488.504C649.688 484.671 649.688 478.458 653.52 474.625C657.353 470.792 663.567 470.792 667.4 474.625C671.232 478.458 671.232 484.671 667.4 488.504C663.567 492.337 657.353 492.337 653.52 488.504Z" fill="#E1E4E5"/>
<path d="M245.071 295.057C241.772 295.057 239.098 292.383 239.098 289.084C239.098 285.786 241.772 283.111 245.071 283.111C248.37 283.111 251.044 285.786 251.044 289.084C251.044 292.383 248.37 295.057 245.071 295.057Z" fill="#E1E4E5"/>
<path d="M128.565 436.105C124.337 436.105 120.91 432.678 120.91 428.45C120.91 424.222 124.337 420.795 128.565 420.795C132.793 420.795 136.22 424.222 136.22 428.45C136.22 432.678 132.793 436.105 128.565 436.105Z" fill="#E1E4E5"/>
<path d="M553.906 168.684C548.859 168.684 544.768 164.593 544.768 159.546C544.768 154.499 548.859 150.408 553.906 150.408C558.953 150.408 563.044 154.499 563.044 159.546C563.044 164.593 558.953 168.684 553.906 168.684Z" fill="#E1E4E5"/>
<path d="M373.263 151.484C374.123 154.693 372.219 157.992 369.009 158.852C365.8 159.712 362.501 157.807 361.641 154.598C360.781 151.389 362.686 148.09 365.895 147.23C369.105 146.37 372.403 148.275 373.263 151.484Z" fill="#E1E4E5"/>
<path d="M339.366 467.685C335.116 467.685 331.671 464.24 331.671 459.99C331.671 455.74 335.116 452.295 339.366 452.295C343.616 452.295 347.061 455.74 347.061 459.99C347.061 464.24 343.616 467.685 339.366 467.685Z" fill="#E1E4E5"/>
<path d="M384.575 545.844C380.27 541.539 379.572 535.258 383.016 531.814C386.459 528.371 392.741 529.069 397.046 533.374C401.35 537.678 402.048 543.96 398.605 547.403C395.161 550.847 388.88 550.149 384.575 545.844Z" fill="#E1E4E5"/>
<path d="M630.483 108.166C632.29 114.912 628.287 121.847 621.54 123.655C614.793 125.463 607.858 121.459 606.051 114.712C604.243 107.965 608.247 101.031 614.993 99.2228C621.74 97.415 628.675 101.419 630.483 108.166Z" fill="#E1E4E5"/>
<path d="M692.991 405.368H693.28C694.987 429.562 712.98 429.934 712.98 429.934C712.98 429.934 693.139 430.322 693.139 458.277C693.139 430.322 673.298 429.934 673.298 429.934C673.298 429.934 691.284 429.562 692.991 405.368ZM300.502 63.8516H300.815C302.67 90.5466 322.207 90.9566 322.207 90.9566C322.207 90.9566 300.663 91.3846 300.663 122.23C300.663 91.3846 279.119 90.9566 279.119 90.9566C279.119 90.9566 298.648 90.5466 300.502 63.8516Z" fill="#E1E4E5"/>
<path fill-rule="evenodd" clip-rule="evenodd" d="M484.113 458.03L512.515 400.435L441.258 296.449L369.982 400.435L398.385 458.03" fill="#4F27AA"/>
<path d="M484.113 458.03L512.515 400.435L441.258 296.449L369.982 400.435L398.385 458.03" stroke="white" stroke-width="4.874" stroke-linecap="round" stroke-linejoin="round"/>
<path fill-rule="evenodd" clip-rule="evenodd" d="M397.968 458.215H484.39V507.938H397.968V458.215Z" fill="#4F27AA" stroke="white" stroke-width="4.874" stroke-linecap="round" stroke-linejoin="round"/>
<path d="M500.964 125.547C499.08 125.546 497.274 124.798 495.942 123.466C494.61 122.134 493.861 120.328 493.861 118.444V118.444C493.861 116.56 494.61 114.754 495.942 113.422C497.274 112.089 499.08 111.341 500.964 111.34V111.34C502.848 111.341 504.654 112.089 505.986 113.421C507.318 114.754 508.067 116.56 508.068 118.444V118.444C508.068 120.328 507.319 122.134 505.987 123.466C504.655 124.799 502.848 125.547 500.964 125.547V125.547Z" stroke="#E1E4E5" stroke-width="4.874" stroke-linecap="round" stroke-linejoin="round"/>
<path d="M441.236 399.143V296.449" stroke="white" stroke-width="4.874" stroke-linecap="round" stroke-linejoin="round"/>
<path d="M397.605 201.242C327.066 218.819 274.731 282.374 274.731 358.336" stroke="#E1E4E5" stroke-width="4.874"/>
<path d="M404.895 201.296L238.824 201.117" stroke="#E1E4E5" stroke-width="4.874" stroke-linecap="round" stroke-linejoin="round"/>
<path d="M211.894 228.119C197.028 228.119 184.964 216.054 184.964 201.188C184.964 186.323 197.028 174.258 211.894 174.258C226.759 174.258 238.824 186.323 238.824 201.188C238.824 216.072 226.759 228.119 211.894 228.119ZM449.778 233.612H422.848C412.937 233.612 404.894 225.569 404.894 215.659V188.729C404.894 178.818 412.937 170.775 422.848 170.775H449.778C459.688 170.775 467.731 178.818 467.731 188.729V215.659C467.731 225.569 459.688 233.612 449.778 233.612ZM288.196 421.173H261.266C251.356 421.173 243.313 413.13 243.313 403.219V376.289C243.313 366.379 251.356 358.336 261.266 358.336H288.196C298.107 358.336 306.15 366.379 306.15 376.289V403.219C306.15 413.148 298.107 421.173 288.196 421.173Z" stroke="#E1E4E5" stroke-width="4.874" stroke-linecap="round" stroke-linejoin="round"/>
<path d="M475.32 201.242C545.859 218.819 598.194 282.374 598.194 358.336" stroke="#E1E4E5" stroke-width="4.874"/>
<path d="M468.03 201.296L634.1 201.117" stroke="#E1E4E5" stroke-width="4.874" stroke-linecap="round" stroke-linejoin="round"/>
<path d="M661.031 228.119C675.896 228.119 687.961 216.054 687.961 201.188C687.961 186.323 675.896 174.258 661.031 174.258C646.165 174.258 634.101 186.323 634.101 201.188C634.101 216.072 646.165 228.119 661.031 228.119ZM423.147 233.612H450.077C459.987 233.612 468.031 225.569 468.031 215.659V188.729C468.031 178.818 459.987 170.775 450.077 170.775H423.147C413.236 170.775 405.193 178.818 405.193 188.729V215.659C405.193 225.569 413.236 233.612 423.147 233.612ZM584.728 421.173H611.659C621.569 421.173 629.612 413.13 629.612 403.219V376.289C629.612 366.379 621.569 358.336 611.659 358.336H584.728C574.818 358.336 566.775 366.379 566.775 376.289V403.219C566.775 413.148 574.818 421.173 584.728 421.173Z" stroke="#E1E4E5" stroke-width="4.874" stroke-linecap="round" stroke-linejoin="round"/>
<path d="M232.839 512.527H700.429V513.649H232.839V512.527Z" stroke="#E1E4E5" stroke-width="3.424" stroke-linecap="round" stroke-linejoin="round"/>
<path fill-rule="evenodd" clip-rule="evenodd" d="M579.384 535.735C555.69 535.735 536.481 516.525 536.481 492.831C536.481 469.138 555.69 449.928 579.384 449.928C603.077 449.928 622.287 469.138 622.287 492.831C622.287 516.525 603.077 535.735 579.384 535.735Z" fill="#4F27AA"/>
<path d="M593.685 486.33L575.812 504.531L565.083 493.612" stroke="white" stroke-width="5.105" stroke-linecap="round" stroke-linejoin="round"/>
<path d="M740.938 306.794C740.938 277.564 717.243 253.869 688.013 253.869C658.783 253.869 635.088 277.564 635.088 306.794V310.352C635.088 339.582 658.783 363.277 688.013 363.277C717.243 363.277 740.938 339.582 740.938 310.352V306.794Z" fill="#4F27AA"/>
<path d="M680.274 303.77C682.01 303.77 683.417 302.363 683.417 300.627C683.417 298.892 682.01 297.484 680.274 297.484C678.538 297.484 677.131 298.892 677.131 300.627C677.131 302.363 678.538 303.77 680.274 303.77Z" fill="white"/>
<path d="M712.101 306.394C711.02 306.226 709.928 306.138 708.834 306.128C702.239 306.081 695.956 308.972 691.644 314.039C687.333 319.105 685.427 325.836 686.431 332.453" stroke="white" stroke-width="5.413" stroke-linecap="round" stroke-linejoin="round"/>
<path d="M713.28 307.897C713.279 314.618 710.609 321.064 705.856 325.817C701.103 330.569 694.657 333.239 687.936 333.24V333.24C681.215 333.239 674.769 330.569 670.016 325.817C665.263 321.064 662.593 314.618 662.593 307.897V307.897C662.593 301.175 665.263 294.729 670.016 289.976C674.769 285.224 681.215 282.553 687.936 282.553C691.264 282.553 694.56 283.208 697.635 284.482C700.71 285.755 703.504 287.622 705.857 289.976C708.211 292.329 710.077 295.123 711.351 298.198C712.625 301.273 713.28 304.568 713.28 307.897V307.897Z" stroke="white" stroke-width="5.413" stroke-linecap="round" stroke-linejoin="round"/>
<path d="M162.421 286.768H162.42C136.13 286.768 114.818 308.08 114.818 334.37V337.571C114.818 363.86 136.13 385.173 162.42 385.173H162.421C188.711 385.173 210.023 363.86 210.023 337.571V334.37C210.023 308.08 188.711 286.768 162.421 286.768Z" fill="#4F27AA"/>
<path d="M155.46 331.648C157.021 331.648 158.287 330.382 158.287 328.821C158.287 327.26 157.021 325.994 155.46 325.994C153.899 325.994 152.633 327.26 152.633 328.821C152.633 330.382 153.899 331.648 155.46 331.648Z" fill="white"/>
<path d="M184.086 334.008C183.113 333.858 182.131 333.779 181.147 333.77C175.215 333.727 169.564 336.328 165.686 340.884C161.808 345.441 160.094 351.496 160.997 357.447" stroke="white" stroke-width="4.869" stroke-linecap="round" stroke-linejoin="round"/>
<path d="M185.146 335.36C185.146 341.406 182.744 347.204 178.47 351.479C174.195 355.754 168.397 358.155 162.351 358.155V358.155C159.358 358.155 156.393 357.566 153.628 356.42C150.862 355.275 148.349 353.596 146.233 351.479C144.116 349.362 142.437 346.849 141.291 344.084C140.146 341.318 139.556 338.354 139.556 335.36V335.36C139.556 332.367 140.146 329.403 141.291 326.637C142.437 323.872 144.116 321.359 146.233 319.242C148.349 317.126 150.862 315.447 153.628 314.301C156.393 313.156 159.358 312.566 162.351 312.566V312.566C168.396 312.566 174.194 314.968 178.469 319.243C182.744 323.517 185.146 329.315 185.146 335.36V335.36Z" stroke="white" stroke-width="4.869" stroke-linecap="round" stroke-linejoin="round"/>
<path d="M116.869 155.533L131.727 170.398M161.456 110.946L176.321 125.811M131.726 140.677L141.638 150.582M146.592 125.81L156.505 135.715M176.322 96.0787L186.228 105.992M191.18 81.2227L201.092 91.1277" stroke="#E1E4E5" stroke-width="4.223" stroke-linecap="round" stroke-linejoin="round"/>
<path d="M109.563 177.959C105.386 173.782 105.386 167.01 109.563 162.833L198.48 73.916C202.657 69.739 209.429 69.739 213.605 73.916L238.118 98.428C242.294 102.605 242.294 109.376 238.118 113.553L149.2 202.471C145.023 206.647 138.251 206.647 134.075 202.471L109.563 177.959V177.959Z" stroke="#E1E4E5" stroke-width="4.223" stroke-linecap="round" stroke-linejoin="round"/>
</g>
<defs>
<linearGradient id="paint0_linear_1235_21857" x1="240.683" y1="447.545" x2="93.347" y2="528.77" gradientUnits="userSpaceOnUse">
<stop stop-color="white"/>
<stop offset="1" stop-color="#EEEEEE"/>
</linearGradient>
<clipPath id="clip0_1235_21857">
<rect width="900" height="600" fill="white"/>
</clipPath>
</defs>
</svg>
