<svg width="900" height="600" viewBox="0 0 900 600" fill="none" xmlns="http://www.w3.org/2000/svg">
<g clip-path="url(#clip0_1235_21899)">
<mask id="mask0_1235_21899" style="mask-type:alpha" maskUnits="userSpaceOnUse" x="226" y="185" width="341" height="342">
<path d="M226.778 185.895H566.426V526.015H226.778V185.895Z" fill="white"/>
<path d="M326.681 450.543C326.475 450.326 326.36 450.039 326.359 449.74C326.358 449.441 326.471 449.153 326.676 448.935C326.881 448.717 327.161 448.586 327.459 448.568C327.758 448.549 328.052 448.646 328.281 448.838C330.544 450.673 332.857 452.445 335.219 454.15C335.47 454.332 335.639 454.607 335.687 454.913C335.736 455.22 335.661 455.533 335.479 455.784C335.297 456.035 335.022 456.204 334.716 456.253C334.409 456.302 334.096 456.228 333.844 456.047C331.446 454.315 329.096 452.517 326.798 450.655C326.757 450.62 326.718 450.582 326.681 450.543ZM340.925 460.873C340.748 460.681 340.64 460.436 340.618 460.176C340.596 459.916 340.661 459.656 340.803 459.437C340.973 459.177 341.239 458.995 341.543 458.931C341.847 458.867 342.163 458.925 342.424 459.094C344.866 460.677 347.347 462.2 349.865 463.659C350.421 463.984 350.616 464.698 350.293 465.258C350.138 465.527 349.882 465.723 349.582 465.804C349.282 465.884 348.962 465.843 348.693 465.688C346.139 464.21 343.623 462.667 341.147 461.061C341.067 461.005 340.993 460.942 340.925 460.873ZM356.147 469.654C355.963 469.452 355.855 469.192 355.842 468.918C355.83 468.645 355.913 468.376 356.078 468.158C356.243 467.939 356.48 467.786 356.746 467.723C357.012 467.661 357.292 467.694 357.537 467.816C360.129 469.131 362.76 470.368 365.426 471.524C366.019 471.781 366.291 472.47 366.033 473.064C365.909 473.349 365.677 473.573 365.388 473.687C365.1 473.801 364.777 473.796 364.492 473.673C361.782 472.5 359.109 471.242 356.477 469.902C356.352 469.842 356.239 469.758 356.147 469.654ZM372.268 476.625C372.089 476.433 371.98 476.186 371.958 475.925C371.936 475.663 372.003 475.401 372.148 475.182C372.292 474.963 372.507 474.799 372.756 474.717C373.005 474.634 373.275 474.638 373.522 474.727C376.298 475.714 379.088 476.595 381.817 477.344C382.441 477.513 382.808 478.16 382.632 478.784C382.462 479.408 381.814 479.776 381.194 479.605C378.341 478.821 375.518 477.93 372.731 476.936C372.556 476.868 372.397 476.762 372.268 476.625ZM389.204 481.239C389.037 481.058 388.932 480.828 388.903 480.584C388.874 480.339 388.922 480.091 389.042 479.876C389.161 479.66 389.345 479.487 389.568 479.382C389.791 479.277 390.041 479.244 390.283 479.289C393.166 479.823 396.058 480.222 398.872 480.473C399.182 480.501 399.467 480.652 399.666 480.891C399.865 481.129 399.96 481.438 399.932 481.747C399.904 482.057 399.754 482.342 399.515 482.541C399.276 482.74 398.968 482.835 398.658 482.807C395.705 482.541 392.767 482.135 389.852 481.591C389.603 481.548 389.376 481.424 389.204 481.239ZM406.666 482.767C406.512 482.6 406.41 482.393 406.372 482.169C406.334 481.946 406.362 481.716 406.451 481.508C406.541 481.3 406.689 481.122 406.878 480.996C407.066 480.87 407.287 480.802 407.514 480.799C410.395 480.755 413.272 480.549 416.13 480.182C416.438 480.142 416.749 480.226 416.995 480.416C417.241 480.605 417.402 480.884 417.443 481.192C417.482 481.501 417.397 481.812 417.207 482.058C417.017 482.305 416.737 482.466 416.429 482.507C413.529 482.884 410.538 483.098 407.546 483.145C407.381 483.146 407.218 483.112 407.067 483.047C406.916 482.982 406.779 482.887 406.666 482.767ZM424.024 480.495C423.887 480.346 423.79 480.163 423.745 479.965C423.699 479.767 423.705 479.561 423.763 479.366C423.822 479.172 423.929 478.996 424.076 478.855C424.223 478.715 424.403 478.615 424.6 478.565C427.388 477.855 430.13 476.976 432.811 475.935C432.954 475.879 433.107 475.852 433.261 475.855C433.415 475.858 433.567 475.892 433.708 475.954C433.849 476.016 433.976 476.105 434.082 476.217C434.189 476.328 434.272 476.459 434.327 476.603C434.439 476.892 434.432 477.214 434.307 477.498C434.182 477.782 433.949 478.005 433.66 478.117C430.89 479.195 428.056 480.102 425.175 480.834C424.97 480.885 424.756 480.881 424.554 480.821C424.351 480.761 424.168 480.649 424.024 480.495ZM440.335 474.163C440.213 474.032 440.123 473.874 440.072 473.702C440.02 473.531 440.009 473.349 440.039 473.173C440.069 472.996 440.138 472.828 440.243 472.683C440.348 472.538 440.485 472.418 440.643 472.334C443.182 470.977 445.644 469.481 448.017 467.851C448.274 467.694 448.581 467.642 448.875 467.705C449.169 467.769 449.428 467.942 449.598 468.191C449.768 468.439 449.836 468.743 449.788 469.04C449.74 469.337 449.579 469.605 449.34 469.787C446.894 471.467 444.356 473.009 441.739 474.407C441.51 474.524 441.25 474.564 440.996 474.52C440.743 474.476 440.511 474.35 440.335 474.163ZM454.865 464.357C454.846 464.337 454.827 464.317 454.808 464.296C454.712 464.176 454.64 464.039 454.596 463.891C454.553 463.744 454.539 463.589 454.555 463.436C454.572 463.284 454.618 463.135 454.692 463C454.766 462.866 454.865 462.746 454.985 462.65C457.237 460.832 459.407 458.916 461.489 456.906C461.598 456.793 461.729 456.703 461.873 456.642C462.018 456.581 462.173 456.549 462.33 456.549C462.487 456.549 462.642 456.58 462.787 456.641C462.931 456.703 463.062 456.792 463.171 456.905C463.28 457.018 463.366 457.151 463.422 457.298C463.479 457.444 463.505 457.6 463.5 457.757C463.495 457.914 463.458 458.068 463.392 458.211C463.326 458.353 463.232 458.481 463.116 458.586C460.98 460.644 458.757 462.608 456.451 464.473C456.221 464.657 455.929 464.747 455.635 464.725C455.341 464.704 455.066 464.572 454.865 464.357ZM467.42 452.1C467.228 451.891 467.118 451.62 467.111 451.336C467.103 451.053 467.198 450.776 467.379 450.557C469.218 448.344 470.909 446.012 472.44 443.576C472.604 443.313 472.866 443.126 473.169 443.055C473.471 442.985 473.788 443.037 474.052 443.201C474.596 443.543 474.766 444.266 474.42 444.815C472.832 447.337 471.08 449.753 469.176 452.046C469.07 452.174 468.938 452.278 468.789 452.351C468.639 452.424 468.476 452.464 468.31 452.469C468.144 452.475 467.979 452.444 467.825 452.381C467.672 452.317 467.534 452.221 467.42 452.1ZM476.639 437.222C476.486 437.056 476.385 436.85 476.346 436.628C476.307 436.406 476.333 436.178 476.42 435.97C477.537 433.342 478.404 430.615 479.01 427.825C479.075 427.522 479.258 427.256 479.518 427.087C479.779 426.918 480.095 426.859 480.399 426.923C481.032 427.057 481.434 427.677 481.299 428.31C480.662 431.244 479.751 434.112 478.578 436.876C478.518 437.018 478.431 437.146 478.322 437.254C478.212 437.362 478.083 437.448 477.94 437.506C477.798 437.563 477.645 437.593 477.491 437.592C477.338 437.59 477.186 437.559 477.044 437.499C476.89 437.438 476.752 437.343 476.639 437.222ZM451.527 408.169C451.331 407.944 451.229 407.652 451.24 407.353C451.252 407.055 451.377 406.772 451.59 406.563C451.803 406.353 452.087 406.233 452.386 406.226C452.685 406.219 452.975 406.326 453.197 406.525C455.163 408.398 457.549 410.046 460.097 411.292C460.362 411.438 460.561 411.68 460.651 411.968C460.742 412.257 460.718 412.569 460.585 412.84C460.451 413.111 460.218 413.32 459.934 413.424C459.65 413.527 459.337 413.517 459.06 413.396C456.302 412.045 453.717 410.254 451.577 408.223C451.564 408.202 451.54 408.184 451.527 408.169ZM446.529 401.043C446.429 400.933 446.349 400.806 446.294 400.667C444.896 396.993 445.297 393.629 447.431 391.202C447.635 390.969 447.924 390.826 448.233 390.806C448.543 390.785 448.848 390.888 449.081 391.092C449.196 391.194 449.29 391.317 449.358 391.455C449.426 391.593 449.465 391.743 449.475 391.897C449.484 392.05 449.464 392.204 449.414 392.349C449.364 392.495 449.286 392.629 449.184 392.744C447.221 394.981 447.715 397.832 448.474 399.831C448.571 400.084 448.577 400.363 448.491 400.62C448.405 400.877 448.232 401.096 448.002 401.24C447.772 401.383 447.499 401.442 447.23 401.406C446.961 401.37 446.713 401.242 446.529 401.043ZM467.056 415.77C466.935 415.641 466.845 415.486 466.793 415.316C466.742 415.147 466.729 414.968 466.757 414.793C466.858 414.152 467.457 413.716 468.094 413.812C470.888 414.242 473.702 414.212 476.457 413.737C476.609 413.71 476.764 413.714 476.914 413.748C477.064 413.781 477.206 413.844 477.331 413.933C477.457 414.021 477.564 414.134 477.646 414.264C477.728 414.394 477.784 414.538 477.81 414.69C477.863 414.996 477.792 415.311 477.613 415.565C477.433 415.82 477.16 415.992 476.854 416.045C473.851 416.57 470.784 416.594 467.736 416.127C467.475 416.09 467.235 415.964 467.056 415.77ZM480.221 420.154C480.021 419.939 479.909 419.657 479.908 419.363C479.904 416.526 479.566 413.7 478.899 410.943C478.83 410.643 478.882 410.329 479.044 410.067C479.205 409.805 479.463 409.618 479.762 409.545C480.061 409.472 480.376 409.519 480.64 409.677C480.904 409.835 481.095 410.09 481.172 410.388C481.879 413.324 482.24 416.334 482.247 419.354C482.248 419.508 482.218 419.661 482.16 419.803C482.102 419.946 482.016 420.075 481.908 420.185C481.799 420.294 481.67 420.381 481.528 420.44C481.386 420.5 481.234 420.531 481.08 420.531C480.919 420.53 480.76 420.495 480.612 420.431C480.464 420.366 480.331 420.272 480.221 420.154ZM455.337 389.388C455.188 389.226 455.087 389.025 455.047 388.808C455.006 388.591 455.028 388.367 455.109 388.162C455.19 387.957 455.327 387.778 455.504 387.647C455.681 387.516 455.892 387.438 456.112 387.421C459.11 387.207 462.17 387.816 465.206 389.236C465.478 389.374 465.685 389.612 465.784 389.9C465.884 390.188 465.867 390.503 465.737 390.779C465.608 391.054 465.376 391.269 465.091 391.376C464.806 391.484 464.49 391.476 464.211 391.355C461.542 390.108 458.874 389.568 456.279 389.755C456.105 389.769 455.929 389.743 455.766 389.68C455.603 389.616 455.456 389.516 455.337 389.388ZM484.068 412.852C483.945 412.72 483.855 412.561 483.804 412.389C483.752 412.216 483.741 412.034 483.772 411.856C483.803 411.678 483.874 411.51 483.98 411.364C484.086 411.219 484.224 411.1 484.384 411.016C486.774 409.766 489.102 408.124 491.298 406.139C491.526 405.933 491.827 405.825 492.134 405.838C492.441 405.851 492.731 405.984 492.941 406.209L492.951 406.22C493.054 406.334 493.134 406.467 493.185 406.612C493.237 406.757 493.259 406.91 493.252 407.064C493.244 407.217 493.206 407.368 493.14 407.507C493.074 407.646 492.981 407.77 492.867 407.873C490.521 409.991 488.032 411.748 485.466 413.089C485.239 413.208 484.98 413.25 484.727 413.207C484.474 413.164 484.243 413.039 484.068 412.852ZM476.07 403.278C476.002 403.204 475.943 403.121 475.895 403.033C474.53 400.482 472.858 398.184 470.944 396.23C470.837 396.12 470.752 395.99 470.695 395.847C470.638 395.704 470.61 395.552 470.612 395.398C470.614 395.245 470.646 395.093 470.706 394.951C470.767 394.81 470.855 394.682 470.965 394.575C471.075 394.467 471.205 394.382 471.347 394.324C471.49 394.267 471.643 394.238 471.797 394.24C471.951 394.242 472.103 394.274 472.244 394.334C472.386 394.395 472.514 394.483 472.621 394.593C474.688 396.705 476.496 399.185 477.961 401.929C478.107 402.203 478.138 402.524 478.048 402.822C477.958 403.119 477.754 403.369 477.481 403.516C477.252 403.637 476.99 403.679 476.735 403.636C476.48 403.593 476.247 403.467 476.07 403.278ZM497.13 401.306C496.943 401.104 496.834 400.842 496.821 400.567C496.808 400.293 496.892 400.022 497.059 399.803C498.701 397.638 500.287 395.205 501.766 392.577C501.919 392.306 502.173 392.107 502.472 392.023C502.771 391.939 503.092 391.977 503.363 392.129C503.926 392.447 504.124 393.158 503.808 393.725C502.277 396.448 500.635 398.966 498.925 401.215C498.822 401.352 498.69 401.464 498.538 401.544C498.387 401.624 498.22 401.67 498.049 401.679C497.878 401.688 497.707 401.659 497.548 401.594C497.389 401.53 497.247 401.432 497.13 401.306ZM505.818 386.079C505.664 385.912 505.561 385.704 505.523 385.48C505.485 385.256 505.513 385.026 505.603 384.817C506.757 382.158 507.806 379.455 508.746 376.713C508.848 376.42 509.062 376.178 509.341 376.042C509.62 375.905 509.942 375.885 510.236 375.984C510.848 376.197 511.169 376.859 510.962 377.472C509.999 380.271 508.927 383.031 507.75 385.747C507.672 385.925 507.552 386.081 507.399 386.201C507.246 386.321 507.065 386.401 506.874 386.434C506.682 386.467 506.485 386.452 506.301 386.39C506.117 386.328 505.951 386.221 505.818 386.079ZM511.417 369.455C511.288 369.316 511.195 369.148 511.145 368.965C511.095 368.782 511.09 368.59 511.131 368.405C511.744 365.595 512.175 362.749 512.423 359.884C512.46 359.583 512.612 359.309 512.847 359.118C513.082 358.927 513.382 358.834 513.684 358.86C513.986 358.885 514.266 359.026 514.466 359.254C514.666 359.481 514.771 359.777 514.757 360.08C514.501 363.047 514.054 365.994 513.419 368.903C513.373 369.112 513.271 369.303 513.124 369.458C512.977 369.613 512.79 369.725 512.584 369.782C512.378 369.838 512.161 369.838 511.955 369.78C511.75 369.723 511.564 369.61 511.417 369.455ZM512.941 352.022C512.75 351.817 512.639 351.549 512.63 351.269C512.519 348.389 512.246 345.518 511.814 342.669C511.791 342.517 511.798 342.362 511.835 342.212C511.872 342.063 511.938 341.923 512.029 341.799C512.12 341.675 512.235 341.57 512.367 341.491C512.499 341.411 512.645 341.359 512.797 341.336C512.949 341.312 513.104 341.319 513.253 341.355C513.402 341.392 513.543 341.458 513.667 341.549C513.79 341.64 513.895 341.755 513.974 341.886C514.053 342.018 514.106 342.164 514.128 342.316C514.58 345.294 514.861 348.277 514.968 351.18C514.974 351.334 514.95 351.487 514.896 351.632C514.843 351.776 514.761 351.908 514.657 352.021C514.552 352.134 514.426 352.225 514.286 352.289C514.146 352.353 513.995 352.389 513.841 352.394C513.673 352.401 513.506 352.371 513.35 352.307C513.195 352.243 513.055 352.146 512.941 352.022ZM387.256 203.171C387.096 202.998 386.992 202.781 386.957 202.548C386.922 202.315 386.958 202.076 387.06 201.864C387.195 201.585 387.436 201.37 387.728 201.268C388.021 201.165 388.343 201.182 388.623 201.315C390.909 202.416 393.537 203.82 396.443 205.495C396.712 205.65 396.907 205.906 396.987 206.206C397.067 206.505 397.025 206.824 396.87 207.093C396.547 207.653 395.83 207.846 395.27 207.524C392.416 205.883 389.835 204.501 387.603 203.429C387.473 203.365 387.355 203.278 387.256 203.171ZM510.352 334.689C510.219 334.547 510.124 334.373 510.077 334.184C509.356 331.385 508.513 328.618 507.548 325.893C507.497 325.748 507.475 325.594 507.483 325.441C507.491 325.287 507.53 325.137 507.596 324.998C507.663 324.86 507.756 324.736 507.871 324.633C507.985 324.531 508.119 324.452 508.264 324.401C508.409 324.349 508.562 324.327 508.715 324.335C508.868 324.343 509.019 324.381 509.157 324.447C509.296 324.513 509.42 324.606 509.522 324.72C509.625 324.835 509.703 324.968 509.754 325.113C510.754 327.955 511.626 330.81 512.344 333.601C512.409 333.853 512.387 334.12 512.284 334.359C512.18 334.597 512 334.795 511.771 334.919C511.543 335.044 511.279 335.089 511.022 335.048C510.765 335.006 510.529 334.88 510.352 334.689ZM402.513 211.853C402.337 211.664 402.229 211.421 402.206 211.164C402.182 210.907 402.245 210.649 402.383 210.431C402.465 210.301 402.572 210.188 402.697 210.099C402.823 210.01 402.965 209.947 403.115 209.913C403.265 209.879 403.42 209.875 403.572 209.902C403.723 209.928 403.868 209.984 403.998 210.067C406.482 211.636 408.941 213.245 411.373 214.893C411.5 214.979 411.609 215.09 411.694 215.218C411.779 215.346 411.837 215.49 411.866 215.641C411.895 215.792 411.894 215.947 411.863 216.097C411.833 216.248 411.772 216.391 411.686 216.518C411.6 216.646 411.49 216.755 411.361 216.84C411.233 216.925 411.089 216.984 410.938 217.013C410.787 217.043 410.632 217.042 410.481 217.011C410.33 216.98 410.187 216.92 410.059 216.834C407.644 215.202 405.204 213.606 402.741 212.048C402.657 211.993 402.581 211.927 402.513 211.853ZM504.556 318.145C504.467 318.051 504.395 317.942 504.343 317.823C503.17 315.172 501.909 312.56 500.564 309.992C500.42 309.717 500.39 309.396 500.482 309.1C500.574 308.803 500.78 308.556 501.055 308.411C501.33 308.267 501.651 308.237 501.947 308.329C502.244 308.421 502.492 308.627 502.636 308.902C504.007 311.517 505.291 314.176 506.486 316.875C506.597 317.128 506.615 317.413 506.536 317.678C506.457 317.943 506.288 318.172 506.057 318.324C505.826 318.476 505.548 318.541 505.274 318.509C504.999 318.476 504.745 318.347 504.556 318.145ZM417.067 221.667C416.866 221.455 416.752 221.176 416.747 220.884C416.742 220.592 416.846 220.309 417.039 220.089C417.231 219.87 417.499 219.731 417.79 219.7C418.08 219.668 418.371 219.746 418.607 219.918C420.996 221.624 423.363 223.359 425.708 225.125C426.223 225.514 426.327 226.246 425.94 226.765C425.753 227.013 425.475 227.177 425.168 227.221C424.861 227.265 424.548 227.186 424.299 227C421.967 225.248 419.614 223.523 417.241 221.826C417.179 221.778 417.12 221.725 417.067 221.667ZM431.095 232.217C430.905 232.012 430.794 231.746 430.784 231.466C430.774 231.186 430.864 230.912 431.039 230.694C431.232 230.45 431.514 230.293 431.822 230.257C432.131 230.221 432.441 230.309 432.685 230.501C434.99 232.319 437.272 234.165 439.531 236.039C440.035 236.452 440.097 237.188 439.683 237.686C439.585 237.804 439.465 237.902 439.329 237.974C439.193 238.046 439.044 238.091 438.891 238.105C438.738 238.119 438.584 238.104 438.437 238.058C438.29 238.013 438.153 237.939 438.035 237.841C435.805 235.994 433.516 234.141 431.233 232.337C431.183 232.302 431.136 232.262 431.095 232.217ZM496.442 302.599C496.388 302.539 496.34 302.474 496.297 302.406C494.799 299.917 493.241 297.465 491.623 295.052C491.464 294.794 491.411 294.485 491.476 294.189C491.54 293.893 491.716 293.633 491.968 293.464C492.219 293.295 492.527 293.23 492.825 293.283C493.123 293.336 493.39 293.502 493.568 293.747C495.212 296.191 496.792 298.676 498.308 301.201C498.467 301.467 498.514 301.786 498.439 302.087C498.364 302.388 498.173 302.647 497.907 302.807C497.676 302.944 497.404 302.998 497.138 302.96C496.872 302.922 496.626 302.795 496.442 302.599ZM444.61 243.418C444.398 243.2 444.279 242.908 444.278 242.604C444.277 242.299 444.395 242.007 444.607 241.788C444.818 241.569 445.106 241.441 445.41 241.431C445.715 241.421 446.011 241.53 446.236 241.734C448.456 243.664 450.668 245.635 452.807 247.594C453.03 247.806 453.161 248.096 453.172 248.404C453.183 248.711 453.072 249.01 452.865 249.237C452.657 249.464 452.369 249.6 452.062 249.616C451.755 249.633 451.454 249.528 451.223 249.324C449.071 247.358 446.895 245.418 444.696 243.504C444.67 243.475 444.636 243.446 444.61 243.418ZM486.674 288.021C486.643 287.989 486.614 287.956 486.587 287.921C484.857 285.582 483.08 283.278 481.256 281.011C481.159 280.891 481.087 280.753 481.044 280.605C481.001 280.458 480.988 280.303 481.005 280.15C481.022 279.997 481.069 279.849 481.144 279.714C481.219 279.579 481.319 279.461 481.44 279.365C481.56 279.268 481.697 279.196 481.845 279.153C481.992 279.109 482.147 279.095 482.3 279.112C482.453 279.129 482.601 279.176 482.736 279.25C482.871 279.324 482.989 279.425 483.085 279.545C484.926 281.839 486.722 284.167 488.473 286.53C488.646 286.771 488.722 287.069 488.684 287.363C488.646 287.657 488.498 287.926 488.27 288.116C488.041 288.305 487.75 288.401 487.453 288.383C487.157 288.365 486.879 288.236 486.674 288.021ZM457.556 255.259C457.355 255.034 457.248 254.741 457.257 254.44C457.267 254.138 457.392 253.852 457.607 253.64C457.822 253.429 458.11 253.308 458.411 253.303C458.713 253.299 459.005 253.41 459.226 253.615C461.34 255.652 463.426 257.719 465.482 259.814C465.922 260.273 465.928 261.015 465.464 261.472C465.355 261.58 465.225 261.666 465.083 261.724C464.94 261.782 464.788 261.811 464.634 261.81C464.48 261.809 464.328 261.778 464.186 261.718C464.044 261.658 463.916 261.571 463.808 261.461C461.767 259.38 459.696 257.329 457.595 255.309C457.586 255.291 457.572 255.277 457.556 255.259ZM475.693 274.335L475.663 274.302C473.759 272.098 471.817 269.927 469.838 267.79C469.628 267.561 469.517 267.258 469.529 266.948C469.542 266.637 469.677 266.344 469.905 266.133C470.017 266.029 470.149 265.947 470.293 265.894C470.437 265.841 470.59 265.816 470.743 265.822C470.896 265.828 471.047 265.864 471.186 265.928C471.326 265.992 471.451 266.083 471.555 266.196L471.558 266.2C473.554 268.357 475.512 270.549 477.433 272.773C477.854 273.263 477.802 273.999 477.311 274.421C477.083 274.619 476.786 274.72 476.485 274.704C476.183 274.688 475.899 274.556 475.693 274.335Z" fill="black"/>
</mask>
<g mask="url(#mask0_1235_21899)">
<path d="M326.681 450.541C326.475 450.324 326.36 450.037 326.359 449.738C326.358 449.439 326.471 449.151 326.676 448.933C326.881 448.715 327.161 448.584 327.459 448.566C327.758 448.548 328.052 448.644 328.281 448.836C330.544 450.671 332.857 452.443 335.219 454.148C335.47 454.33 335.639 454.605 335.687 454.911C335.736 455.218 335.661 455.531 335.479 455.782C335.297 456.033 335.022 456.202 334.716 456.251C334.409 456.3 334.096 456.226 333.844 456.045C331.446 454.313 329.096 452.515 326.798 450.653C326.757 450.618 326.718 450.58 326.681 450.541ZM340.925 460.871C340.748 460.679 340.64 460.434 340.618 460.174C340.596 459.914 340.661 459.654 340.803 459.435C340.973 459.175 341.239 458.993 341.543 458.929C341.847 458.865 342.163 458.923 342.424 459.092C344.866 460.676 347.347 462.198 349.865 463.657C350.421 463.982 350.616 464.696 350.293 465.256C350.138 465.525 349.882 465.721 349.582 465.802C349.282 465.882 348.962 465.841 348.693 465.686C346.139 464.208 343.623 462.665 341.147 461.059C341.067 461.003 340.993 460.94 340.925 460.871ZM356.147 469.652C355.963 469.45 355.855 469.19 355.842 468.916C355.83 468.643 355.913 468.374 356.078 468.156C356.243 467.937 356.48 467.784 356.746 467.721C357.012 467.659 357.292 467.692 357.537 467.814C360.129 469.129 362.76 470.366 365.426 471.522C366.019 471.779 366.291 472.468 366.033 473.062C365.909 473.347 365.677 473.571 365.388 473.685C365.1 473.799 364.777 473.794 364.492 473.671C361.782 472.498 359.109 471.24 356.477 469.9C356.352 469.84 356.239 469.756 356.147 469.652ZM372.268 476.623C372.089 476.431 371.98 476.184 371.958 475.923C371.936 475.661 372.003 475.399 372.148 475.18C372.292 474.961 372.507 474.797 372.756 474.715C373.005 474.632 373.275 474.636 373.522 474.725C376.298 475.712 379.088 476.593 381.817 477.342C382.441 477.511 382.808 478.158 382.632 478.782C382.462 479.406 381.814 479.774 381.194 479.603C378.341 478.819 375.518 477.928 372.731 476.934C372.556 476.866 372.397 476.76 372.268 476.623ZM389.204 481.237C389.037 481.056 388.932 480.826 388.903 480.582C388.874 480.337 388.922 480.089 389.042 479.874C389.161 479.658 389.345 479.485 389.568 479.38C389.791 479.275 390.041 479.242 390.283 479.287C393.166 479.821 396.058 480.22 398.872 480.471C399.182 480.499 399.467 480.65 399.666 480.889C399.865 481.128 399.96 481.436 399.932 481.745C399.904 482.055 399.754 482.34 399.515 482.539C399.276 482.738 398.968 482.833 398.658 482.805C395.705 482.539 392.767 482.134 389.852 481.589C389.603 481.546 389.376 481.422 389.204 481.237ZM406.666 482.765C406.512 482.598 406.41 482.391 406.372 482.167C406.334 481.944 406.362 481.714 406.451 481.506C406.541 481.298 406.689 481.12 406.878 480.994C407.066 480.868 407.287 480.8 407.514 480.797C410.395 480.753 413.272 480.547 416.13 480.18C416.438 480.14 416.749 480.224 416.995 480.414C417.241 480.603 417.402 480.882 417.443 481.19C417.482 481.499 417.397 481.81 417.207 482.056C417.017 482.303 416.737 482.464 416.429 482.505C413.529 482.882 410.538 483.096 407.546 483.143C407.381 483.144 407.218 483.11 407.067 483.045C406.916 482.98 406.779 482.885 406.666 482.765ZM424.024 480.493C423.887 480.344 423.79 480.161 423.745 479.963C423.699 479.765 423.705 479.559 423.763 479.364C423.822 479.17 423.929 478.994 424.076 478.853C424.223 478.713 424.403 478.613 424.6 478.563C427.388 477.853 430.13 476.974 432.811 475.933C432.954 475.877 433.107 475.85 433.261 475.853C433.415 475.856 433.567 475.89 433.708 475.952C433.849 476.014 433.976 476.103 434.082 476.215C434.189 476.326 434.272 476.457 434.327 476.601C434.439 476.89 434.432 477.212 434.307 477.496C434.182 477.78 433.949 478.003 433.66 478.115C430.89 479.193 428.056 480.1 425.175 480.832C424.97 480.883 424.756 480.879 424.554 480.819C424.351 480.759 424.168 480.647 424.024 480.493ZM440.335 474.161C440.213 474.03 440.123 473.872 440.072 473.7C440.02 473.529 440.009 473.348 440.039 473.171C440.069 472.994 440.138 472.827 440.243 472.681C440.348 472.536 440.485 472.416 440.643 472.332C443.182 470.975 445.644 469.479 448.017 467.849C448.274 467.692 448.581 467.64 448.875 467.704C449.169 467.767 449.428 467.94 449.598 468.189C449.768 468.437 449.836 468.741 449.788 469.038C449.74 469.335 449.579 469.603 449.34 469.785C446.894 471.465 444.356 473.007 441.739 474.405C441.51 474.522 441.25 474.562 440.996 474.518C440.743 474.474 440.511 474.349 440.335 474.161ZM454.865 464.355C454.846 464.335 454.827 464.315 454.808 464.294C454.712 464.174 454.64 464.037 454.596 463.889C454.553 463.742 454.539 463.587 454.555 463.434C454.572 463.282 454.618 463.133 454.692 462.999C454.766 462.864 454.865 462.745 454.985 462.648C457.237 460.83 459.407 458.914 461.489 456.904C461.598 456.791 461.729 456.701 461.873 456.64C462.018 456.579 462.173 456.547 462.33 456.547C462.487 456.547 462.642 456.578 462.787 456.64C462.931 456.701 463.062 456.79 463.171 456.903C463.28 457.016 463.366 457.149 463.422 457.296C463.479 457.442 463.505 457.598 463.5 457.755C463.495 457.912 463.458 458.066 463.392 458.209C463.326 458.351 463.232 458.479 463.116 458.584C460.98 460.642 458.757 462.606 456.451 464.471C456.221 464.655 455.929 464.745 455.635 464.723C455.341 464.702 455.066 464.57 454.865 464.355ZM467.42 452.098C467.228 451.889 467.118 451.618 467.111 451.334C467.103 451.051 467.198 450.774 467.379 450.555C469.218 448.342 470.909 446.01 472.44 443.574C472.604 443.311 472.866 443.124 473.169 443.053C473.471 442.983 473.788 443.036 474.052 443.199C474.596 443.541 474.766 444.264 474.42 444.813C472.832 447.336 471.08 449.751 469.176 452.044C469.07 452.172 468.938 452.276 468.789 452.349C468.639 452.422 468.476 452.462 468.31 452.468C468.144 452.473 467.979 452.442 467.825 452.379C467.672 452.315 467.534 452.219 467.42 452.098ZM476.639 437.22C476.486 437.054 476.385 436.848 476.346 436.626C476.307 436.404 476.333 436.176 476.42 435.968C477.537 433.34 478.404 430.613 479.01 427.823C479.075 427.52 479.258 427.254 479.518 427.085C479.779 426.916 480.095 426.857 480.399 426.921C481.032 427.055 481.434 427.675 481.299 428.308C480.662 431.242 479.751 434.11 478.578 436.874C478.518 437.016 478.431 437.144 478.322 437.252C478.212 437.36 478.083 437.446 477.94 437.504C477.798 437.561 477.645 437.591 477.491 437.59C477.338 437.588 477.186 437.557 477.044 437.497C476.89 437.436 476.752 437.341 476.639 437.22ZM451.527 408.167C451.331 407.942 451.229 407.65 451.24 407.351C451.252 407.053 451.377 406.77 451.59 406.561C451.803 406.351 452.087 406.231 452.386 406.224C452.685 406.217 452.975 406.324 453.197 406.523C455.163 408.396 457.549 410.044 460.097 411.29C460.362 411.436 460.561 411.678 460.651 411.966C460.742 412.255 460.718 412.567 460.585 412.838C460.451 413.109 460.218 413.318 459.934 413.422C459.65 413.526 459.337 413.516 459.06 413.394C456.302 412.043 453.717 410.252 451.577 408.221C451.564 408.2 451.54 408.182 451.527 408.167ZM446.529 401.041C446.429 400.931 446.349 400.804 446.294 400.665C444.896 396.991 445.297 393.627 447.431 391.2C447.635 390.967 447.924 390.824 448.233 390.804C448.543 390.783 448.848 390.886 449.081 391.09C449.196 391.192 449.29 391.315 449.358 391.453C449.426 391.591 449.465 391.741 449.475 391.895C449.484 392.048 449.464 392.202 449.414 392.347C449.364 392.493 449.286 392.627 449.184 392.742C447.221 394.979 447.715 397.83 448.474 399.829C448.571 400.082 448.577 400.361 448.491 400.618C448.405 400.875 448.232 401.094 448.002 401.238C447.772 401.381 447.499 401.44 447.23 401.404C446.961 401.368 446.713 401.24 446.529 401.041ZM467.056 415.768C466.935 415.639 466.845 415.484 466.793 415.314C466.742 415.145 466.729 414.966 466.757 414.791C466.858 414.15 467.457 413.714 468.094 413.81C470.888 414.24 473.702 414.21 476.457 413.735C476.609 413.709 476.764 413.712 476.914 413.746C477.064 413.779 477.206 413.842 477.331 413.931C477.457 414.019 477.564 414.132 477.646 414.262C477.728 414.392 477.784 414.537 477.81 414.688C477.863 414.995 477.792 415.309 477.613 415.563C477.433 415.818 477.16 415.99 476.854 416.043C473.851 416.568 470.784 416.592 467.736 416.125C467.475 416.088 467.235 415.962 467.056 415.768ZM480.221 420.152C480.021 419.937 479.909 419.655 479.908 419.361C479.904 416.525 479.566 413.698 478.899 410.941C478.83 410.641 478.882 410.327 479.044 410.065C479.205 409.803 479.463 409.616 479.762 409.543C480.061 409.47 480.376 409.517 480.64 409.675C480.904 409.833 481.095 410.088 481.172 410.386C481.879 413.322 482.24 416.332 482.247 419.352C482.248 419.506 482.218 419.659 482.16 419.801C482.102 419.944 482.016 420.073 481.908 420.183C481.799 420.292 481.67 420.379 481.528 420.438C481.386 420.498 481.234 420.529 481.08 420.529C480.919 420.528 480.76 420.493 480.612 420.429C480.464 420.364 480.331 420.27 480.221 420.152ZM455.337 389.386C455.188 389.224 455.087 389.023 455.047 388.806C455.006 388.589 455.028 388.365 455.109 388.16C455.19 387.955 455.327 387.776 455.504 387.645C455.681 387.514 455.892 387.436 456.112 387.419C459.11 387.205 462.17 387.814 465.206 389.234C465.478 389.372 465.685 389.61 465.784 389.898C465.884 390.186 465.867 390.501 465.737 390.777C465.608 391.052 465.376 391.267 465.091 391.374C464.806 391.482 464.49 391.474 464.211 391.353C461.542 390.106 458.874 389.566 456.279 389.753C456.105 389.767 455.929 389.741 455.766 389.678C455.603 389.614 455.456 389.514 455.337 389.386ZM484.068 412.85C483.945 412.718 483.855 412.559 483.804 412.387C483.752 412.214 483.741 412.032 483.772 411.854C483.803 411.676 483.874 411.508 483.98 411.362C484.086 411.217 484.224 411.098 484.384 411.014C486.774 409.764 489.102 408.122 491.298 406.137C491.526 405.931 491.827 405.823 492.134 405.836C492.441 405.849 492.731 405.982 492.941 406.207L492.951 406.218C493.054 406.332 493.134 406.465 493.185 406.61C493.237 406.755 493.259 406.908 493.252 407.062C493.244 407.215 493.206 407.366 493.14 407.505C493.074 407.644 492.981 407.768 492.867 407.871C490.521 409.989 488.032 411.746 485.466 413.087C485.239 413.206 484.98 413.248 484.727 413.205C484.474 413.162 484.243 413.037 484.068 412.85ZM476.07 403.276C476.002 403.202 475.943 403.119 475.895 403.031C474.53 400.48 472.858 398.182 470.944 396.228C470.837 396.118 470.752 395.988 470.695 395.845C470.638 395.703 470.61 395.55 470.612 395.396C470.614 395.243 470.646 395.091 470.706 394.95C470.767 394.808 470.855 394.68 470.965 394.573C471.075 394.465 471.205 394.38 471.347 394.322C471.49 394.265 471.643 394.236 471.797 394.238C471.951 394.24 472.103 394.272 472.244 394.332C472.386 394.393 472.514 394.481 472.621 394.591C474.688 396.703 476.496 399.183 477.961 401.927C478.107 402.201 478.138 402.522 478.048 402.82C477.958 403.117 477.754 403.367 477.481 403.514C477.252 403.635 476.99 403.677 476.735 403.634C476.48 403.591 476.247 403.465 476.07 403.276ZM497.13 401.304C496.943 401.102 496.834 400.84 496.821 400.566C496.808 400.291 496.892 400.02 497.059 399.801C498.701 397.636 500.287 395.203 501.766 392.575C501.919 392.304 502.173 392.105 502.472 392.021C502.771 391.937 503.092 391.975 503.363 392.127C503.926 392.445 504.124 393.156 503.808 393.723C502.277 396.446 500.635 398.964 498.925 401.213C498.822 401.35 498.69 401.462 498.538 401.542C498.387 401.622 498.22 401.669 498.049 401.677C497.878 401.686 497.707 401.657 497.548 401.592C497.389 401.528 497.247 401.43 497.13 401.304ZM505.818 386.077C505.664 385.91 505.561 385.702 505.523 385.478C505.485 385.254 505.513 385.024 505.603 384.815C506.757 382.156 507.806 379.453 508.746 376.711C508.848 376.418 509.062 376.176 509.341 376.04C509.62 375.903 509.942 375.883 510.236 375.982C510.848 376.195 511.169 376.857 510.962 377.47C509.999 380.269 508.927 383.029 507.75 385.745C507.672 385.923 507.552 386.079 507.399 386.199C507.246 386.319 507.065 386.399 506.874 386.432C506.682 386.465 506.485 386.45 506.301 386.388C506.117 386.326 505.951 386.219 505.818 386.077ZM511.417 369.453C511.288 369.314 511.195 369.146 511.145 368.963C511.095 368.78 511.09 368.588 511.131 368.403C511.744 365.593 512.175 362.747 512.423 359.882C512.46 359.581 512.612 359.307 512.847 359.116C513.082 358.925 513.382 358.832 513.684 358.858C513.986 358.883 514.266 359.024 514.466 359.252C514.666 359.479 514.771 359.775 514.757 360.078C514.501 363.045 514.054 365.992 513.419 368.901C513.373 369.11 513.271 369.302 513.124 369.456C512.977 369.611 512.79 369.723 512.584 369.78C512.378 369.836 512.161 369.836 511.955 369.778C511.75 369.721 511.564 369.608 511.417 369.453ZM512.941 352.02C512.75 351.815 512.639 351.547 512.63 351.267C512.519 348.387 512.246 345.516 511.814 342.667C511.791 342.515 511.798 342.36 511.835 342.21C511.872 342.061 511.938 341.921 512.029 341.797C512.12 341.673 512.235 341.568 512.367 341.489C512.499 341.41 512.645 341.357 512.797 341.334C512.949 341.31 513.104 341.317 513.253 341.354C513.402 341.39 513.543 341.456 513.667 341.547C513.79 341.638 513.895 341.753 513.974 341.884C514.053 342.016 514.106 342.162 514.128 342.314C514.58 345.292 514.861 348.275 514.968 351.178C514.974 351.332 514.95 351.485 514.896 351.63C514.843 351.774 514.761 351.906 514.657 352.019C514.552 352.132 514.426 352.223 514.286 352.287C514.146 352.351 513.995 352.387 513.841 352.392C513.673 352.399 513.506 352.369 513.35 352.305C513.195 352.241 513.055 352.144 512.941 352.02ZM387.256 203.169C387.096 202.996 386.992 202.779 386.957 202.546C386.922 202.313 386.958 202.074 387.06 201.862C387.195 201.583 387.436 201.369 387.728 201.266C388.021 201.163 388.343 201.18 388.623 201.313C390.909 202.414 393.537 203.818 396.443 205.493C396.712 205.648 396.907 205.904 396.987 206.204C397.067 206.503 397.025 206.823 396.87 207.091C396.547 207.651 395.83 207.844 395.27 207.522C392.416 205.881 389.835 204.499 387.603 203.427C387.473 203.363 387.355 203.276 387.256 203.169ZM510.352 334.687C510.219 334.545 510.124 334.371 510.077 334.182C509.356 331.383 508.513 328.616 507.548 325.891C507.497 325.746 507.475 325.592 507.483 325.439C507.491 325.285 507.53 325.135 507.596 324.996C507.663 324.858 507.756 324.734 507.871 324.631C507.985 324.529 508.119 324.45 508.264 324.399C508.409 324.348 508.562 324.325 508.715 324.333C508.868 324.341 509.019 324.379 509.157 324.445C509.296 324.511 509.42 324.604 509.522 324.718C509.625 324.833 509.703 324.966 509.754 325.111C510.754 327.953 511.626 330.808 512.344 333.599C512.409 333.851 512.387 334.118 512.284 334.357C512.18 334.595 512 334.793 511.771 334.918C511.543 335.042 511.279 335.087 511.022 335.046C510.765 335.004 510.529 334.878 510.352 334.687ZM402.513 211.851C402.337 211.662 402.229 211.419 402.206 211.162C402.182 210.905 402.245 210.647 402.383 210.429C402.465 210.299 402.572 210.186 402.697 210.097C402.823 210.008 402.965 209.945 403.115 209.911C403.265 209.877 403.42 209.874 403.572 209.9C403.723 209.926 403.868 209.982 403.998 210.065C406.482 211.634 408.941 213.243 411.373 214.891C411.5 214.977 411.609 215.088 411.694 215.216C411.779 215.344 411.837 215.488 411.866 215.639C411.895 215.79 411.894 215.945 411.863 216.095C411.833 216.246 411.772 216.389 411.686 216.516C411.6 216.644 411.49 216.753 411.361 216.838C411.233 216.923 411.089 216.982 410.938 217.011C410.787 217.041 410.632 217.04 410.481 217.009C410.33 216.979 410.187 216.918 410.059 216.832C407.644 215.2 405.204 213.604 402.741 212.046C402.657 211.991 402.581 211.925 402.513 211.851ZM504.556 318.143C504.467 318.049 504.395 317.94 504.343 317.821C503.17 315.17 501.909 312.558 500.564 309.99C500.42 309.715 500.39 309.394 500.482 309.098C500.574 308.801 500.78 308.554 501.055 308.409C501.33 308.265 501.651 308.235 501.947 308.327C502.244 308.419 502.492 308.625 502.636 308.9C504.007 311.515 505.291 314.174 506.486 316.873C506.597 317.126 506.615 317.411 506.536 317.676C506.457 317.941 506.288 318.17 506.057 318.322C505.826 318.474 505.548 318.539 505.274 318.507C504.999 318.474 504.745 318.345 504.556 318.143ZM417.067 221.665C416.866 221.453 416.752 221.174 416.747 220.882C416.742 220.59 416.846 220.307 417.039 220.088C417.231 219.868 417.499 219.729 417.79 219.698C418.08 219.666 418.371 219.744 418.607 219.916C420.996 221.622 423.363 223.358 425.708 225.123C426.223 225.512 426.327 226.244 425.94 226.763C425.753 227.011 425.475 227.175 425.168 227.219C424.861 227.263 424.548 227.184 424.299 226.998C421.967 225.246 419.614 223.521 417.241 221.824C417.179 221.776 417.12 221.723 417.067 221.665ZM431.095 232.215C430.905 232.01 430.794 231.744 430.784 231.464C430.774 231.184 430.864 230.911 431.039 230.692C431.232 230.448 431.514 230.291 431.822 230.255C432.131 230.219 432.441 230.307 432.685 230.499C434.99 232.317 437.272 234.163 439.531 236.037C440.035 236.45 440.097 237.186 439.683 237.684C439.585 237.803 439.465 237.901 439.329 237.972C439.193 238.044 439.044 238.089 438.891 238.103C438.738 238.118 438.584 238.102 438.437 238.056C438.29 238.011 438.153 237.937 438.035 237.839C435.805 235.992 433.516 234.139 431.233 232.335C431.183 232.3 431.136 232.26 431.095 232.215ZM496.442 302.597C496.388 302.537 496.34 302.473 496.297 302.404C494.799 299.915 493.241 297.463 491.623 295.05C491.464 294.792 491.411 294.483 491.476 294.187C491.54 293.891 491.716 293.631 491.968 293.462C492.219 293.293 492.527 293.229 492.825 293.281C493.123 293.334 493.39 293.5 493.568 293.745C495.212 296.189 496.792 298.674 498.308 301.199C498.467 301.465 498.514 301.784 498.439 302.085C498.364 302.386 498.173 302.645 497.907 302.805C497.676 302.942 497.404 302.996 497.138 302.958C496.872 302.92 496.626 302.793 496.442 302.597ZM444.61 243.416C444.398 243.198 444.279 242.906 444.278 242.602C444.277 242.297 444.395 242.005 444.607 241.786C444.818 241.567 445.106 241.439 445.41 241.429C445.715 241.419 446.011 241.528 446.236 241.732C448.456 243.662 450.668 245.633 452.807 247.592C453.03 247.804 453.161 248.095 453.172 248.402C453.183 248.709 453.072 249.008 452.865 249.235C452.657 249.462 452.369 249.598 452.062 249.614C451.755 249.631 451.454 249.526 451.223 249.322C449.071 247.356 446.895 245.416 444.696 243.502C444.67 243.473 444.636 243.444 444.61 243.416ZM486.674 288.019C486.643 287.987 486.614 287.954 486.587 287.919C484.857 285.58 483.08 283.276 481.256 281.009C481.159 280.889 481.087 280.751 481.044 280.604C481.001 280.456 480.988 280.301 481.005 280.148C481.022 279.995 481.069 279.847 481.144 279.712C481.219 279.577 481.319 279.459 481.44 279.363C481.56 279.266 481.697 279.194 481.845 279.151C481.992 279.107 482.147 279.094 482.3 279.11C482.453 279.127 482.601 279.174 482.736 279.248C482.871 279.322 482.989 279.423 483.085 279.543C484.926 281.837 486.722 284.165 488.473 286.528C488.646 286.769 488.722 287.067 488.684 287.361C488.646 287.655 488.498 287.924 488.27 288.114C488.041 288.303 487.75 288.399 487.453 288.381C487.157 288.364 486.879 288.234 486.674 288.019ZM457.556 255.257C457.355 255.033 457.248 254.739 457.257 254.438C457.267 254.136 457.392 253.85 457.607 253.638C457.822 253.427 458.11 253.306 458.411 253.301C458.713 253.297 459.005 253.408 459.226 253.613C461.34 255.65 463.426 257.717 465.482 259.812C465.922 260.271 465.928 261.013 465.464 261.47C465.355 261.578 465.225 261.664 465.083 261.722C464.94 261.78 464.788 261.809 464.634 261.808C464.48 261.807 464.328 261.776 464.186 261.716C464.044 261.656 463.916 261.569 463.808 261.459C461.767 259.378 459.696 257.327 457.595 255.307C457.586 255.289 457.572 255.275 457.556 255.257ZM475.693 274.333L475.663 274.3C473.759 272.096 471.817 269.925 469.838 267.788C469.628 267.559 469.517 267.256 469.529 266.946C469.542 266.635 469.677 266.342 469.905 266.131C470.017 266.027 470.149 265.946 470.293 265.892C470.437 265.839 470.59 265.814 470.743 265.82C470.896 265.826 471.047 265.862 471.186 265.926C471.326 265.99 471.451 266.081 471.555 266.194L471.558 266.198C473.554 268.355 475.512 270.547 477.433 272.771C477.854 273.261 477.802 273.997 477.311 274.419C477.083 274.617 476.786 274.718 476.485 274.702C476.183 274.686 475.899 274.554 475.693 274.333Z" fill="#E1E4E5"/>
<path d="M326.681 450.541C326.475 450.324 326.36 450.037 326.359 449.738C326.358 449.439 326.471 449.151 326.676 448.933C326.881 448.715 327.161 448.584 327.459 448.566C327.758 448.548 328.052 448.644 328.281 448.836C330.544 450.671 332.857 452.443 335.219 454.148C335.47 454.33 335.639 454.605 335.687 454.911C335.736 455.218 335.661 455.531 335.479 455.782C335.297 456.033 335.022 456.202 334.716 456.251C334.409 456.3 334.096 456.226 333.844 456.045C331.446 454.313 329.096 452.515 326.798 450.653C326.757 450.618 326.718 450.58 326.681 450.541ZM340.925 460.871C340.748 460.679 340.64 460.434 340.618 460.174C340.596 459.914 340.661 459.654 340.803 459.435C340.973 459.175 341.239 458.993 341.543 458.929C341.847 458.865 342.163 458.923 342.424 459.092C344.866 460.676 347.347 462.198 349.865 463.657C350.421 463.982 350.616 464.696 350.293 465.256C350.138 465.525 349.882 465.721 349.582 465.802C349.282 465.882 348.962 465.841 348.693 465.686C346.139 464.208 343.623 462.665 341.147 461.059C341.067 461.003 340.993 460.94 340.925 460.871V460.871ZM356.147 469.652C355.963 469.45 355.855 469.19 355.842 468.916C355.83 468.643 355.913 468.374 356.078 468.156C356.243 467.937 356.48 467.784 356.746 467.721C357.012 467.659 357.292 467.692 357.537 467.814C360.129 469.129 362.76 470.366 365.426 471.522C366.019 471.779 366.291 472.468 366.033 473.062C365.909 473.347 365.677 473.571 365.388 473.685C365.1 473.799 364.777 473.794 364.492 473.671C361.782 472.498 359.109 471.24 356.477 469.9C356.352 469.84 356.239 469.756 356.147 469.652V469.652ZM372.268 476.623C372.089 476.431 371.98 476.184 371.958 475.923C371.936 475.661 372.003 475.399 372.148 475.18C372.292 474.961 372.507 474.797 372.756 474.715C373.005 474.632 373.275 474.636 373.522 474.725C376.298 475.712 379.088 476.593 381.817 477.342C382.441 477.511 382.808 478.158 382.632 478.782C382.462 479.406 381.814 479.774 381.194 479.603C378.341 478.819 375.518 477.928 372.731 476.934C372.556 476.866 372.397 476.76 372.268 476.623V476.623ZM389.204 481.237C389.037 481.056 388.932 480.826 388.903 480.582C388.874 480.337 388.922 480.089 389.042 479.874C389.161 479.658 389.345 479.485 389.568 479.38C389.791 479.275 390.041 479.242 390.283 479.287C393.166 479.821 396.058 480.22 398.872 480.471C399.182 480.499 399.467 480.65 399.666 480.889C399.865 481.128 399.96 481.436 399.932 481.745C399.904 482.055 399.754 482.34 399.515 482.539C399.276 482.738 398.968 482.833 398.658 482.805C395.705 482.539 392.767 482.134 389.852 481.589C389.603 481.546 389.376 481.422 389.204 481.237V481.237ZM406.666 482.765C406.512 482.598 406.41 482.391 406.372 482.167C406.334 481.944 406.362 481.714 406.451 481.506C406.541 481.298 406.689 481.12 406.878 480.994C407.066 480.868 407.287 480.8 407.514 480.797C410.395 480.753 413.272 480.547 416.13 480.18C416.438 480.14 416.749 480.224 416.995 480.414C417.241 480.603 417.402 480.882 417.443 481.19C417.482 481.499 417.397 481.81 417.207 482.056C417.017 482.303 416.737 482.464 416.429 482.505C413.529 482.882 410.538 483.096 407.546 483.143C407.381 483.144 407.218 483.11 407.067 483.045C406.916 482.98 406.779 482.885 406.666 482.765ZM424.024 480.493C423.887 480.344 423.79 480.161 423.745 479.963C423.699 479.765 423.705 479.559 423.763 479.364C423.822 479.17 423.929 478.994 424.076 478.853C424.223 478.713 424.403 478.613 424.6 478.563C427.388 477.853 430.13 476.974 432.811 475.933C432.954 475.877 433.107 475.85 433.261 475.853C433.415 475.856 433.567 475.89 433.708 475.952C433.849 476.014 433.976 476.103 434.082 476.215C434.189 476.326 434.272 476.457 434.327 476.601C434.439 476.89 434.432 477.212 434.307 477.496C434.182 477.78 433.949 478.003 433.66 478.115C430.89 479.193 428.056 480.1 425.175 480.832C424.97 480.883 424.756 480.879 424.554 480.819C424.351 480.759 424.168 480.647 424.024 480.493V480.493ZM440.335 474.161C440.213 474.03 440.123 473.872 440.072 473.7C440.02 473.529 440.009 473.348 440.039 473.171C440.069 472.994 440.138 472.827 440.243 472.681C440.348 472.536 440.485 472.416 440.643 472.332C443.182 470.976 445.644 469.479 448.017 467.849C448.274 467.692 448.581 467.64 448.875 467.704C449.169 467.767 449.428 467.94 449.598 468.189C449.768 468.437 449.836 468.741 449.788 469.038C449.74 469.335 449.579 469.603 449.34 469.785C446.894 471.465 444.356 473.007 441.739 474.405C441.51 474.522 441.25 474.562 440.996 474.518C440.743 474.474 440.511 474.349 440.335 474.161V474.161ZM454.865 464.355C454.846 464.335 454.827 464.315 454.808 464.294C454.712 464.174 454.64 464.037 454.596 463.889C454.553 463.742 454.539 463.587 454.555 463.434C454.572 463.282 454.618 463.133 454.692 462.999C454.766 462.864 454.865 462.745 454.985 462.648C457.237 460.83 459.407 458.914 461.489 456.904C461.598 456.791 461.729 456.701 461.873 456.64C462.018 456.579 462.173 456.547 462.33 456.547C462.487 456.547 462.642 456.578 462.787 456.64C462.931 456.701 463.062 456.79 463.171 456.903C463.28 457.016 463.366 457.149 463.422 457.296C463.479 457.442 463.505 457.598 463.5 457.755C463.495 457.912 463.458 458.066 463.392 458.209C463.326 458.351 463.232 458.479 463.116 458.584C460.98 460.642 458.757 462.606 456.451 464.471C456.221 464.655 455.929 464.745 455.635 464.723C455.341 464.702 455.066 464.57 454.865 464.355V464.355ZM467.42 452.098C467.228 451.889 467.118 451.618 467.111 451.334C467.103 451.051 467.198 450.774 467.379 450.555C469.218 448.342 470.909 446.01 472.44 443.574C472.604 443.311 472.866 443.124 473.169 443.053C473.471 442.983 473.788 443.036 474.052 443.199C474.596 443.541 474.766 444.264 474.42 444.813C472.832 447.336 471.08 449.751 469.176 452.044C469.07 452.172 468.938 452.276 468.789 452.349C468.639 452.422 468.476 452.462 468.31 452.468C468.144 452.473 467.979 452.442 467.825 452.379C467.672 452.315 467.534 452.219 467.42 452.098V452.098ZM476.639 437.22C476.486 437.054 476.385 436.848 476.346 436.626C476.307 436.404 476.333 436.176 476.42 435.968C477.537 433.34 478.404 430.613 479.01 427.823C479.075 427.52 479.258 427.254 479.518 427.085C479.779 426.916 480.095 426.857 480.399 426.921C481.032 427.055 481.434 427.675 481.299 428.308C480.662 431.242 479.751 434.11 478.578 436.874C478.518 437.016 478.431 437.144 478.322 437.252C478.212 437.36 478.083 437.446 477.94 437.504C477.798 437.561 477.645 437.591 477.491 437.59C477.338 437.588 477.186 437.557 477.044 437.497C476.89 437.436 476.752 437.341 476.639 437.22V437.22ZM451.527 408.167C451.331 407.942 451.229 407.65 451.24 407.351C451.252 407.053 451.377 406.77 451.59 406.561C451.803 406.351 452.087 406.231 452.386 406.224C452.685 406.217 452.975 406.324 453.197 406.523C455.163 408.396 457.549 410.044 460.097 411.29C460.362 411.436 460.561 411.678 460.651 411.966C460.742 412.255 460.718 412.567 460.585 412.838C460.451 413.109 460.218 413.318 459.934 413.422C459.65 413.526 459.337 413.516 459.06 413.394C456.302 412.043 453.717 410.252 451.577 408.221C451.564 408.2 451.54 408.182 451.527 408.167ZM446.529 401.041C446.429 400.931 446.349 400.804 446.294 400.665C444.896 396.991 445.297 393.627 447.431 391.2C447.635 390.967 447.924 390.824 448.233 390.804C448.543 390.783 448.848 390.886 449.081 391.09C449.196 391.192 449.29 391.315 449.358 391.453C449.426 391.591 449.465 391.741 449.475 391.895C449.484 392.048 449.464 392.202 449.414 392.347C449.364 392.493 449.286 392.627 449.184 392.742C447.221 394.979 447.715 397.83 448.474 399.829C448.571 400.082 448.577 400.361 448.491 400.618C448.405 400.875 448.232 401.094 448.002 401.238C447.772 401.381 447.499 401.44 447.23 401.404C446.961 401.368 446.713 401.24 446.529 401.041V401.041ZM467.056 415.768C466.935 415.639 466.845 415.484 466.793 415.314C466.742 415.145 466.729 414.966 466.757 414.791C466.858 414.15 467.457 413.714 468.094 413.81C470.888 414.24 473.702 414.21 476.457 413.735C476.609 413.709 476.764 413.712 476.914 413.746C477.064 413.779 477.206 413.842 477.331 413.931C477.457 414.019 477.564 414.132 477.646 414.262C477.728 414.392 477.784 414.537 477.81 414.688C477.863 414.995 477.792 415.309 477.613 415.563C477.433 415.818 477.16 415.99 476.854 416.043C473.851 416.568 470.784 416.592 467.736 416.125C467.475 416.088 467.235 415.962 467.056 415.768ZM480.221 420.152C480.021 419.937 479.909 419.655 479.908 419.361C479.904 416.525 479.566 413.698 478.899 410.941C478.83 410.641 478.882 410.327 479.044 410.065C479.205 409.803 479.463 409.616 479.762 409.543C480.061 409.47 480.376 409.517 480.64 409.675C480.904 409.833 481.095 410.088 481.172 410.386C481.879 413.322 482.24 416.332 482.247 419.352C482.248 419.506 482.218 419.659 482.16 419.801C482.102 419.944 482.016 420.073 481.908 420.183C481.799 420.292 481.67 420.379 481.528 420.438C481.386 420.498 481.234 420.529 481.08 420.529C480.919 420.528 480.76 420.493 480.612 420.429C480.464 420.364 480.331 420.27 480.221 420.152V420.152ZM455.337 389.386C455.188 389.224 455.087 389.023 455.047 388.806C455.006 388.589 455.028 388.365 455.109 388.16C455.19 387.955 455.327 387.776 455.504 387.645C455.681 387.514 455.892 387.436 456.112 387.419C459.11 387.205 462.17 387.814 465.206 389.234C465.478 389.372 465.685 389.61 465.784 389.898C465.884 390.186 465.867 390.501 465.737 390.777C465.608 391.052 465.376 391.267 465.091 391.374C464.806 391.482 464.49 391.474 464.211 391.353C461.542 390.106 458.874 389.566 456.279 389.753C456.105 389.767 455.929 389.741 455.766 389.678C455.603 389.614 455.456 389.514 455.337 389.386V389.386ZM484.068 412.85C483.945 412.718 483.855 412.559 483.804 412.387C483.752 412.214 483.741 412.032 483.772 411.854C483.803 411.676 483.874 411.508 483.98 411.362C484.086 411.217 484.224 411.098 484.384 411.014C486.774 409.764 489.102 408.122 491.298 406.137C491.526 405.931 491.827 405.823 492.134 405.836C492.441 405.849 492.731 405.982 492.941 406.207L492.951 406.218C493.054 406.332 493.134 406.465 493.185 406.61C493.237 406.755 493.259 406.908 493.252 407.062C493.244 407.216 493.206 407.366 493.14 407.505C493.074 407.644 492.981 407.768 492.867 407.871C490.521 409.989 488.032 411.746 485.466 413.087C485.239 413.206 484.98 413.248 484.727 413.205C484.474 413.162 484.243 413.037 484.068 412.85V412.85ZM476.07 403.276C476.002 403.202 475.943 403.119 475.895 403.031C474.53 400.48 472.858 398.182 470.944 396.228C470.837 396.118 470.752 395.988 470.695 395.845C470.638 395.703 470.61 395.55 470.612 395.396C470.614 395.243 470.646 395.091 470.706 394.95C470.767 394.808 470.855 394.68 470.965 394.573C471.075 394.465 471.205 394.38 471.347 394.322C471.49 394.265 471.643 394.236 471.797 394.238C471.951 394.24 472.103 394.272 472.244 394.332C472.386 394.393 472.514 394.481 472.621 394.591C474.688 396.703 476.496 399.183 477.961 401.927C478.107 402.201 478.138 402.522 478.048 402.82C477.958 403.117 477.754 403.367 477.481 403.514C477.252 403.635 476.99 403.677 476.735 403.634C476.48 403.591 476.247 403.465 476.07 403.276V403.276ZM497.13 401.304C496.943 401.102 496.834 400.84 496.821 400.566C496.808 400.291 496.892 400.02 497.059 399.801C498.701 397.636 500.287 395.203 501.766 392.575C501.919 392.304 502.173 392.105 502.472 392.021C502.771 391.937 503.092 391.975 503.363 392.127C503.926 392.445 504.124 393.156 503.808 393.723C502.277 396.446 500.635 398.964 498.925 401.213C498.822 401.35 498.69 401.462 498.538 401.542C498.387 401.622 498.22 401.668 498.049 401.677C497.878 401.686 497.707 401.657 497.548 401.592C497.389 401.528 497.247 401.43 497.13 401.304V401.304ZM505.818 386.077C505.664 385.91 505.561 385.702 505.523 385.478C505.485 385.254 505.513 385.024 505.603 384.815C506.757 382.156 507.806 379.453 508.746 376.711C508.848 376.418 509.062 376.176 509.341 376.04C509.62 375.903 509.942 375.883 510.236 375.982C510.848 376.195 511.169 376.857 510.962 377.47C509.999 380.269 508.927 383.029 507.75 385.745C507.672 385.923 507.552 386.079 507.399 386.199C507.246 386.319 507.065 386.399 506.874 386.432C506.682 386.465 506.485 386.45 506.301 386.388C506.117 386.326 505.951 386.219 505.818 386.077ZM511.417 369.453C511.288 369.314 511.195 369.146 511.145 368.963C511.095 368.78 511.09 368.588 511.131 368.403C511.744 365.593 512.175 362.747 512.423 359.882C512.46 359.581 512.612 359.307 512.847 359.116C513.082 358.925 513.382 358.832 513.684 358.858C513.986 358.883 514.266 359.024 514.466 359.252C514.666 359.479 514.771 359.775 514.757 360.078C514.501 363.045 514.054 365.992 513.419 368.901C513.373 369.11 513.271 369.302 513.124 369.456C512.977 369.611 512.79 369.723 512.584 369.78C512.378 369.836 512.161 369.836 511.955 369.778C511.75 369.721 511.564 369.608 511.417 369.453V369.453ZM512.941 352.02C512.75 351.815 512.639 351.547 512.63 351.267C512.519 348.387 512.246 345.516 511.814 342.667C511.791 342.515 511.798 342.36 511.835 342.21C511.872 342.061 511.938 341.921 512.029 341.797C512.12 341.673 512.235 341.568 512.367 341.489C512.499 341.41 512.645 341.357 512.797 341.334C512.949 341.31 513.104 341.317 513.253 341.354C513.402 341.39 513.543 341.456 513.667 341.547C513.79 341.638 513.895 341.753 513.974 341.884C514.053 342.016 514.106 342.162 514.128 342.314C514.58 345.292 514.861 348.275 514.968 351.178C514.974 351.332 514.95 351.485 514.896 351.63C514.843 351.774 514.761 351.906 514.657 352.019C514.552 352.132 514.426 352.223 514.286 352.287C514.146 352.351 513.995 352.387 513.841 352.392C513.673 352.399 513.506 352.369 513.35 352.305C513.195 352.241 513.055 352.144 512.941 352.02V352.02ZM387.256 203.169C387.096 202.996 386.992 202.779 386.957 202.546C386.922 202.313 386.958 202.074 387.06 201.862C387.195 201.583 387.436 201.369 387.728 201.266C388.021 201.163 388.343 201.18 388.623 201.313C390.909 202.414 393.537 203.818 396.443 205.493C396.712 205.648 396.907 205.904 396.987 206.204C397.067 206.503 397.025 206.823 396.87 207.091C396.547 207.651 395.83 207.844 395.27 207.522C392.416 205.881 389.835 204.499 387.603 203.427C387.473 203.363 387.355 203.276 387.256 203.169V203.169ZM510.352 334.687C510.219 334.545 510.124 334.371 510.077 334.182C509.356 331.383 508.513 328.616 507.548 325.891C507.497 325.746 507.475 325.592 507.483 325.439C507.491 325.285 507.53 325.135 507.596 324.996C507.663 324.858 507.756 324.734 507.871 324.631C507.985 324.529 508.119 324.45 508.264 324.399C508.409 324.348 508.562 324.325 508.715 324.333C508.868 324.341 509.019 324.379 509.157 324.445C509.296 324.511 509.42 324.604 509.522 324.718C509.625 324.833 509.703 324.966 509.754 325.111C510.754 327.953 511.626 330.808 512.344 333.599C512.409 333.851 512.387 334.118 512.284 334.357C512.18 334.595 512 334.793 511.771 334.918C511.543 335.042 511.279 335.087 511.022 335.046C510.765 335.004 510.529 334.878 510.352 334.687V334.687ZM402.513 211.851C402.337 211.662 402.229 211.419 402.206 211.162C402.182 210.905 402.245 210.647 402.383 210.429C402.465 210.299 402.572 210.186 402.697 210.097C402.823 210.008 402.965 209.945 403.115 209.911C403.265 209.877 403.42 209.874 403.572 209.9C403.723 209.926 403.868 209.982 403.998 210.065C406.482 211.634 408.941 213.243 411.373 214.891C411.5 214.977 411.609 215.088 411.694 215.216C411.779 215.344 411.837 215.488 411.866 215.639C411.895 215.79 411.894 215.945 411.863 216.095C411.833 216.246 411.772 216.389 411.686 216.516C411.6 216.644 411.49 216.753 411.361 216.838C411.233 216.923 411.089 216.982 410.938 217.011C410.787 217.041 410.632 217.04 410.481 217.009C410.33 216.979 410.187 216.918 410.059 216.832C407.644 215.2 405.204 213.604 402.741 212.046C402.657 211.991 402.581 211.925 402.513 211.851V211.851ZM504.556 318.143C504.467 318.049 504.395 317.94 504.343 317.821C503.17 315.17 501.909 312.558 500.564 309.99C500.42 309.715 500.39 309.394 500.482 309.098C500.574 308.801 500.78 308.554 501.055 308.409C501.33 308.265 501.651 308.235 501.947 308.327C502.244 308.419 502.492 308.625 502.636 308.9C504.007 311.515 505.291 314.174 506.486 316.873C506.597 317.126 506.615 317.411 506.536 317.676C506.457 317.941 506.288 318.17 506.057 318.322C505.826 318.474 505.548 318.539 505.274 318.507C504.999 318.474 504.745 318.345 504.556 318.143V318.143ZM417.067 221.665C416.866 221.453 416.752 221.174 416.747 220.882C416.742 220.59 416.846 220.307 417.039 220.088C417.231 219.868 417.499 219.729 417.79 219.698C418.08 219.666 418.371 219.744 418.607 219.916C420.996 221.622 423.363 223.358 425.708 225.123C426.223 225.512 426.327 226.244 425.94 226.763C425.753 227.011 425.475 227.175 425.168 227.219C424.861 227.263 424.548 227.184 424.299 226.998C421.967 225.246 419.614 223.521 417.241 221.824C417.179 221.776 417.12 221.723 417.067 221.665V221.665ZM431.095 232.215C430.905 232.01 430.794 231.744 430.784 231.464C430.774 231.184 430.864 230.911 431.039 230.692C431.232 230.448 431.514 230.291 431.822 230.255C432.131 230.219 432.441 230.307 432.685 230.499C434.99 232.317 437.272 234.163 439.531 236.037C440.035 236.45 440.097 237.186 439.683 237.684C439.585 237.803 439.465 237.901 439.329 237.972C439.193 238.044 439.044 238.089 438.891 238.103C438.738 238.118 438.584 238.102 438.437 238.056C438.29 238.011 438.153 237.937 438.035 237.839C435.805 235.992 433.516 234.139 431.233 232.335C431.183 232.3 431.136 232.26 431.095 232.215V232.215ZM496.442 302.597C496.388 302.537 496.34 302.473 496.297 302.404C494.799 299.915 493.241 297.463 491.623 295.05C491.464 294.792 491.411 294.483 491.476 294.187C491.54 293.891 491.716 293.631 491.968 293.462C492.22 293.293 492.527 293.229 492.825 293.281C493.123 293.334 493.39 293.5 493.568 293.745C495.212 296.189 496.792 298.674 498.308 301.199C498.467 301.465 498.514 301.784 498.439 302.085C498.364 302.386 498.173 302.645 497.907 302.805C497.676 302.942 497.404 302.996 497.138 302.958C496.872 302.92 496.626 302.793 496.442 302.597V302.597ZM444.61 243.416C444.398 243.198 444.279 242.906 444.278 242.602C444.277 242.297 444.395 242.005 444.607 241.786C444.818 241.567 445.106 241.439 445.41 241.429C445.715 241.419 446.011 241.528 446.236 241.732C448.456 243.662 450.668 245.633 452.807 247.592C453.03 247.804 453.161 248.095 453.172 248.402C453.183 248.709 453.072 249.008 452.865 249.235C452.657 249.462 452.369 249.598 452.062 249.614C451.755 249.631 451.454 249.526 451.223 249.322C449.071 247.356 446.895 245.416 444.696 243.502C444.67 243.473 444.636 243.444 444.61 243.416ZM486.674 288.019C486.643 287.987 486.614 287.954 486.587 287.919C484.857 285.58 483.08 283.276 481.256 281.009C481.159 280.889 481.087 280.751 481.044 280.604C481.001 280.456 480.988 280.301 481.005 280.148C481.022 279.995 481.069 279.847 481.144 279.712C481.219 279.577 481.319 279.459 481.44 279.363C481.56 279.266 481.697 279.194 481.845 279.151C481.992 279.107 482.147 279.094 482.3 279.11C482.453 279.127 482.601 279.174 482.736 279.248C482.871 279.322 482.989 279.423 483.085 279.543C484.926 281.837 486.722 284.165 488.473 286.528C488.646 286.769 488.722 287.067 488.684 287.361C488.646 287.655 488.498 287.924 488.27 288.114C488.041 288.303 487.75 288.399 487.453 288.381C487.157 288.364 486.879 288.234 486.674 288.019V288.019ZM457.556 255.257C457.355 255.033 457.248 254.739 457.257 254.438C457.267 254.136 457.392 253.85 457.607 253.638C457.822 253.427 458.11 253.306 458.411 253.301C458.713 253.297 459.005 253.408 459.226 253.613C461.34 255.65 463.426 257.717 465.482 259.812C465.922 260.271 465.928 261.013 465.464 261.47C465.355 261.578 465.225 261.664 465.083 261.722C464.94 261.78 464.788 261.809 464.634 261.808C464.48 261.807 464.328 261.776 464.186 261.716C464.045 261.656 463.916 261.569 463.808 261.459C461.767 259.378 459.696 257.327 457.595 255.307C457.586 255.289 457.572 255.275 457.556 255.257V255.257ZM475.693 274.333L475.663 274.3C473.759 272.096 471.817 269.925 469.838 267.788C469.628 267.559 469.517 267.256 469.529 266.946C469.542 266.635 469.677 266.342 469.905 266.131C470.017 266.027 470.149 265.946 470.293 265.892C470.437 265.839 470.59 265.814 470.743 265.82C470.896 265.826 471.047 265.862 471.186 265.926C471.326 265.99 471.451 266.081 471.555 266.194L471.558 266.198C473.554 268.355 475.512 270.547 477.433 272.771C477.854 273.261 477.802 273.997 477.311 274.419C477.083 274.617 476.786 274.718 476.485 274.702C476.183 274.686 475.899 274.554 475.693 274.333V274.333Z" stroke="#E1E4E5" stroke-width="4"/>
<path d="M345.494 194.318L331.427 198.534L286.045 150.854L345.494 194.318Z" fill="#4F27AA"/>
<path d="M282.792 149.498L372.105 222.126L363.422 183.058L282.792 149.498Z" fill="#4F27AA"/>
<path d="M796 417.057L725.602 487.455L704.053 477.585C696.419 474.091 687.713 473.849 679.852 476.814C672.449 479.608 661.401 482.284 647.291 481.476C619.83 479.902 597.388 471.198 597.388 471.198L640.801 427.356C640.801 427.356 612.49 406.897 601.789 352.829C600.636 347.043 597.543 341.823 593.022 338.032L567.347 316.468C567.347 316.468 536.158 314.749 524.786 285.297C524.786 285.297 521.471 264.694 529.279 265.641C529.279 265.641 617.525 301.662 629.141 308.523C640.757 315.384 649.735 318.021 675.6 350.227C682.448 358.753 688.555 365.465 693.837 370.727C703.979 380.823 716.226 388.554 729.703 393.367L796 417.057Z" fill="#F8AE9D"/>
<path d="M452.102 412.058C450.881 412.651 449.647 413.218 448.403 413.76L448.001 412.833C449.2 412.31 450.431 411.743 451.662 411.148L452.102 412.058Z" fill="#2E2445"/>
<path d="M388.714 341.438C388.714 341.438 366.192 345.912 369.056 354.94C371.919 363.966 413.572 364.382 413.572 364.382L388.714 341.438ZM428.319 381.042C428.319 381.042 405.798 385.518 408.661 394.544C411.524 403.571 453.177 403.988 453.177 403.988L428.319 381.042ZM455.095 407.818C455.095 407.818 432.574 412.294 435.437 421.32C438.3 430.346 479.953 430.763 479.953 430.763L455.095 407.818Z" fill="#F8AE9D"/>
<path d="M378.892 310.826L460.75 228.968C466.846 222.872 476.726 222.866 482.819 228.959L618.928 365.068L649.981 396.121C656.122 402.262 656.016 412.145 649.972 418.189L568.114 500.048C562.019 506.142 552.139 506.151 546.045 500.057L409.934 363.946L378.881 332.893C372.735 326.746 372.854 316.863 378.892 310.826Z" fill="#2E2445"/>
<path d="M388.246 331.694L481.403 238.537L637.036 394.171L543.88 487.328L388.246 331.694Z" fill="white"/>
<path d="M584.946 327.377C584.946 327.377 586.473 330.027 586.23 332.329L567.347 316.469C567.347 316.469 544.403 315.204 530.699 296.262C526.008 289.776 523.647 281.852 524.164 273.863C524.459 269.3 525.702 265.207 529.281 265.643C529.281 265.643 570.779 282.581 600.606 295.441L584.946 327.377Z" fill="#F8AE9D"/>
<path d="M508 408C535.062 408 557 386.062 557 359C557 331.938 535.062 310 508 310C480.938 310 459 331.938 459 359C459 386.062 480.938 408 508 408Z" fill="#4F27AA"/>
<path fill-rule="evenodd" clip-rule="evenodd" d="M533.821 362.862L518.627 370.196L513.551 384.54C512.156 388.485 506.696 388.782 504.878 385.015L486.159 346.23C484.338 342.456 487.988 338.361 491.949 339.743L533.33 354.184C537.285 355.564 537.599 361.039 533.821 362.862Z" fill="white"/>
<path d="M569.123 189.982H623.939C625.555 189.983 627.104 190.625 628.246 191.767C629.388 192.91 630.03 194.459 630.031 196.074V232.044C630.031 232.844 629.874 233.637 629.568 234.376C629.261 235.115 628.813 235.787 628.247 236.352C627.681 236.918 627.01 237.367 626.27 237.673C625.531 237.979 624.739 238.137 623.939 238.136H569.123C565.761 238.141 563.032 235.411 563.032 232.044V196.074C563.033 194.459 563.674 192.91 564.817 191.768C565.959 190.625 567.508 189.983 569.123 189.982V189.982Z" stroke="#E1E4E5" stroke-width="4" stroke-linecap="round" stroke-linejoin="round"/>
<path d="M563.481 194.158L591.246 214.018C592.768 215.106 594.592 215.692 596.463 215.694C598.334 215.695 600.159 215.113 601.683 214.027L629.578 194.131" stroke="#E1E4E5" stroke-width="4" stroke-linecap="round" stroke-linejoin="round"/>
<path d="M287.092 285H341.908C343.523 285.001 345.072 285.643 346.214 286.785C347.357 287.928 347.998 289.477 347.999 291.092V327.063C347.999 328.678 347.357 330.228 346.215 331.37C345.073 332.512 343.523 333.154 341.908 333.154H287.092C286.292 333.155 285.5 332.997 284.76 332.691C284.021 332.386 283.349 331.937 282.783 331.371C282.218 330.806 281.769 330.134 281.463 329.395C281.157 328.655 281 327.863 281 327.063V291.092C281.001 289.476 281.643 287.927 282.785 286.785C283.927 285.643 285.476 285.001 287.092 285Z" stroke="#E1E4E5" stroke-width="4" stroke-linecap="round" stroke-linejoin="round"/>
<path d="M281.449 289.175L309.214 309.034C310.736 310.123 312.56 310.709 314.431 310.711C316.302 310.712 318.127 310.13 319.651 309.043L347.546 289.148" stroke="#E1E4E5" stroke-width="4" stroke-linecap="round" stroke-linejoin="round"/>
<path d="M201.177 332.768H246.108C247.432 332.768 248.701 333.295 249.638 334.231C250.574 335.167 251.1 336.437 251.101 337.761V367.246C251.101 368.57 250.575 369.84 249.639 370.776C248.702 371.713 247.432 372.239 246.108 372.239H201.177C200.521 372.239 199.872 372.11 199.266 371.859C198.66 371.609 198.109 371.241 197.645 370.777C197.181 370.313 196.813 369.763 196.563 369.157C196.312 368.551 196.183 367.901 196.183 367.246V337.761C196.184 336.436 196.71 335.167 197.647 334.231C198.583 333.294 199.853 332.768 201.177 332.768V332.768Z" stroke="#E1E4E5" stroke-width="4" stroke-linecap="round" stroke-linejoin="round"/>
<path d="M196.552 336.191L219.31 352.469C220.558 353.361 222.053 353.841 223.586 353.843C225.12 353.844 226.616 353.366 227.865 352.476L250.73 336.168" stroke="#E1E4E5" stroke-width="4" stroke-linecap="round" stroke-linejoin="round"/>
<path d="M281.456 400.865H317.401C319.605 400.865 321.395 402.608 321.395 404.755V427.728C321.395 429.878 319.605 431.619 317.401 431.619H281.456C279.251 431.621 277.461 429.878 277.461 427.728V404.755C277.461 402.608 279.251 400.865 281.456 400.865Z" stroke="#E1E4E5" stroke-width="4" stroke-linecap="round" stroke-linejoin="round"/>
<path d="M277.461 403.079L295.916 416.23C296.929 416.952 298.141 417.34 299.384 417.341C300.627 417.342 301.84 416.956 302.854 416.236L321.395 403.062" stroke="#E1E4E5" stroke-width="4" stroke-linecap="round" stroke-linejoin="round"/>
<path d="M375.376 431.374C384.483 437.647 398.396 433.262 398.396 433.262C398.396 433.262 397.534 418.708 388.421 412.441C379.314 406.169 365.407 410.547 365.407 410.547C365.407 410.547 366.269 425.101 375.376 431.374Z" fill="url(#paint0_linear_1235_21899)"/>
<path d="M237.212 440.406C226.079 440.406 217.053 449.14 217.053 459.915C217.053 470.689 226.079 479.424 237.212 479.424C248.346 479.424 257.371 470.689 257.371 459.915C257.371 449.14 248.346 440.406 237.212 440.406Z" fill="#4F27AA"/>
<path d="M479.757 512.199C472.974 512.199 467.475 506.7 467.475 499.917C467.475 493.134 472.974 487.635 479.757 487.635C486.54 487.635 492.039 493.134 492.039 499.917C492.039 506.7 486.54 512.199 479.757 512.199Z" fill="#E1E4E5"/>
<path d="M380.921 254.138C381.83 257.528 379.818 261.013 376.428 261.921C373.038 262.83 369.553 260.818 368.645 257.428C367.736 254.037 369.748 250.553 373.138 249.644C376.528 248.736 380.013 250.748 380.921 254.138Z" fill="#E1E4E5"/>
<path d="M266.04 252.02C266.04 227.156 245.884 207 221.02 207C196.156 207 176 227.156 176 252.02C176 276.884 196.156 297.04 221.02 297.04C245.884 297.04 266.04 276.884 266.04 252.02Z" fill="#4F27AA"/>
<path fill-rule="evenodd" clip-rule="evenodd" d="M241.481 270.906V273.917C241.481 275.579 240.15 276.927 238.511 276.927H202.862C201.222 276.927 199.891 275.579 199.891 273.917V270.858C199.891 261.749 210.164 255.831 220.686 255.831C231.209 255.831 241.481 261.752 241.481 270.858M228.142 229.385C232.262 233.504 232.262 240.183 228.142 244.302C224.023 248.421 217.344 248.421 213.225 244.302C209.105 240.183 209.105 233.504 213.225 229.385C217.344 225.265 224.023 225.265 228.142 229.385Z" fill="white"/>
</g>
</g>
<defs>
<linearGradient id="paint0_linear_1235_21899" x1="410.851" y1="451.956" x2="339.164" y2="376.363" gradientUnits="userSpaceOnUse">
<stop stop-color="white"/>
<stop offset="1" stop-color="#EEEEEE"/>
</linearGradient>
<clipPath id="clip0_1235_21899">
<rect width="900" height="600" fill="white"/>
</clipPath>
</defs>
</svg>
