<svg width="900" height="600" viewBox="0 0 900 600" fill="none" xmlns="http://www.w3.org/2000/svg">
<g clip-path="url(#clip0_1235_21965)">
<path d="M447.962 353.568C386.678 324.492 360.569 251.245 389.645 189.961C418.72 128.677 491.968 102.568 553.252 131.644C614.536 160.719 640.645 233.967 611.569 295.251C582.493 356.535 509.246 382.644 447.962 353.568Z" stroke="#E1E4E5" stroke-width="16" stroke-linecap="round" stroke-linejoin="round"/>
<path d="M567.25 429.571L541.867 358.361M465.282 276.347L535.926 208.865M537.526 275.583C539.036 277.164 538.979 279.664 537.398 281.158C535.817 282.668 533.318 282.611 531.824 281.03C530.314 279.449 530.371 276.95 531.951 275.456C533.516 273.945 536.016 274.002 537.526 275.583ZM469.402 204.185C470.912 205.766 470.855 208.265 469.274 209.759C467.693 211.269 465.194 211.212 463.7 209.631C462.206 208.051 462.247 205.551 463.827 204.057C465.408 202.563 467.908 202.604 469.402 204.185Z" stroke="#E1E4E5" stroke-width="16" stroke-linecap="round" stroke-linejoin="round"/>
<path fill-rule="evenodd" clip-rule="evenodd" d="M705.329 489.701L688.922 464.223C679.412 449.453 665.972 437.625 650.112 430.07L593.773 403.227C588.674 400.798 583.093 399.548 577.444 399.572L564.813 399.627L568.397 411.341L518.55 399.393C512.75 398.003 507.063 402.071 506.508 408.01C506.347 409.734 506.646 411.47 507.374 413.041C508.102 414.612 509.233 415.962 510.652 416.954L524.459 426.604C515.853 430.795 514.707 442.597 522.346 448.367L529.364 453.666C522.742 457.8 522.399 467.319 528.706 471.919L538.886 479.343C538.272 482.519 538.733 485.808 540.195 488.692C541.657 491.577 544.037 493.893 546.961 495.275L557.833 500.416C559.444 501.178 561.119 501.795 562.838 502.26L613.073 515.84L669.229 553.137L705.329 489.701Z" fill="#F8AE9D"/>
<path fill-rule="evenodd" clip-rule="evenodd" d="M798.405 561.412L676.531 445.711L593.334 530.316L626.998 562.148L798.405 561.412Z" fill="#4F27AA"/>
<path fill-rule="evenodd" clip-rule="evenodd" d="M229.045 477.736C228.595 477.978 228.086 478.089 227.576 478.055C227.066 478.021 226.576 477.844 226.162 477.545C225.747 477.244 225.425 476.834 225.231 476.359C225.038 475.885 224.981 475.366 225.068 474.861L227.04 463.403L218.687 455.284C218.325 454.926 218.07 454.474 217.95 453.979C217.83 453.484 217.85 452.965 218.008 452.481C218.165 451.997 218.453 451.567 218.842 451.239C219.23 450.91 219.702 450.697 220.205 450.623L231.753 448.951L236.911 438.517C237.138 438.059 237.489 437.674 237.923 437.405C238.358 437.135 238.859 436.992 239.37 436.992C240.411 436.992 241.362 437.582 241.828 438.517L246.986 448.951L258.534 450.623C259.037 450.697 259.509 450.911 259.898 451.239C260.286 451.567 260.575 451.997 260.732 452.481C260.89 452.965 260.91 453.484 260.79 453.979C260.669 454.474 260.414 454.926 260.052 455.284L251.695 463.398L253.667 474.857C253.754 475.362 253.698 475.882 253.505 476.357C253.312 476.832 252.99 477.243 252.575 477.544C252.161 477.844 251.67 478.021 251.16 478.055C250.65 478.089 250.14 477.978 249.69 477.736L239.365 472.331L229.045 477.736ZM283.59 477.735C283.14 477.977 282.631 478.088 282.121 478.054C281.612 478.02 281.122 477.843 280.708 477.544C280.293 477.244 279.97 476.833 279.777 476.359C279.583 475.885 279.526 475.366 279.613 474.861L281.586 463.402L273.233 455.283C272.871 454.925 272.615 454.473 272.495 453.978C272.375 453.483 272.395 452.964 272.553 452.48C272.71 451.996 272.999 451.566 273.387 451.238C273.776 450.91 274.248 450.696 274.751 450.622L286.298 448.95L291.456 438.516C291.683 438.058 292.034 437.673 292.468 437.404C292.903 437.134 293.404 436.991 293.915 436.991C294.956 436.991 295.908 437.581 296.374 438.516L301.532 448.95L313.079 450.622C313.582 450.696 314.054 450.91 314.443 451.238C314.831 451.566 315.12 451.996 315.277 452.48C315.435 452.964 315.455 453.483 315.335 453.978C315.215 454.473 314.959 454.925 314.597 455.283L306.24 463.397L308.212 474.856C308.299 475.361 308.244 475.881 308.05 476.356C307.857 476.831 307.535 477.242 307.12 477.543C306.706 477.843 306.216 478.021 305.706 478.055C305.195 478.088 304.686 477.978 304.236 477.735L293.91 472.331L283.59 477.735ZM338.135 477.735C337.685 477.977 337.176 478.088 336.666 478.054C336.157 478.02 335.667 477.843 335.253 477.544C334.838 477.244 334.516 476.833 334.322 476.359C334.129 475.885 334.072 475.366 334.158 474.861L336.131 463.402L327.778 455.283C327.416 454.925 327.16 454.473 327.04 453.978C326.92 453.483 326.94 452.964 327.098 452.48C327.255 451.996 327.544 451.566 327.932 451.238C328.321 450.91 328.793 450.696 329.296 450.622L340.843 448.95L346.002 438.516C346.23 438.059 346.58 437.674 347.014 437.405C347.449 437.136 347.95 436.993 348.46 436.993C348.971 436.993 349.472 437.136 349.906 437.405C350.341 437.674 350.691 438.059 350.919 438.516L356.077 448.95L367.625 450.622C368.128 450.697 368.6 450.91 368.988 451.238C369.376 451.566 369.665 451.997 369.822 452.48C369.98 452.964 370 453.483 369.88 453.978C369.76 454.473 369.504 454.925 369.142 455.283L360.785 463.397L362.757 474.856C362.844 475.361 362.788 475.881 362.595 476.356C362.402 476.831 362.08 477.242 361.665 477.543C361.251 477.843 360.761 478.021 360.251 478.055C359.74 478.088 359.231 477.978 358.781 477.735L348.456 472.331L338.135 477.735ZM392.68 477.735C392.23 477.977 391.721 478.088 391.211 478.054C390.702 478.02 390.212 477.843 389.798 477.544C389.383 477.244 389.061 476.833 388.867 476.359C388.674 475.885 388.617 475.366 388.704 474.861L390.676 463.402L382.323 455.283C381.961 454.925 381.705 454.473 381.585 453.978C381.465 453.483 381.485 452.964 381.643 452.48C381.8 451.996 382.089 451.566 382.477 451.238C382.866 450.91 383.338 450.696 383.841 450.622L395.389 448.95L400.547 438.516C400.774 438.058 401.125 437.673 401.559 437.404C401.993 437.134 402.494 436.991 403.005 436.991C404.046 436.991 404.998 437.581 405.464 438.516L410.622 448.95L422.17 450.622C422.673 450.696 423.145 450.91 423.533 451.238C423.921 451.566 424.21 451.996 424.367 452.48C424.525 452.964 424.545 453.483 424.425 453.978C424.305 454.473 424.05 454.925 423.688 455.283L415.33 463.397L417.302 474.856C417.39 475.361 417.334 475.881 417.141 476.356C416.948 476.831 416.626 477.242 416.211 477.543C415.797 477.843 415.306 478.02 414.796 478.054C414.286 478.088 413.776 477.978 413.326 477.735L403.001 472.331L392.68 477.735ZM447.225 477.735C446.775 477.977 446.266 478.088 445.756 478.054C445.247 478.02 444.757 477.843 444.343 477.544C443.928 477.244 443.606 476.833 443.413 476.359C443.219 475.885 443.163 475.366 443.249 474.861L445.221 463.402L436.868 455.283C436.506 454.925 436.251 454.473 436.131 453.978C436.011 453.483 436.03 452.964 436.188 452.48C436.345 451.996 436.634 451.566 437.022 451.238C437.411 450.91 437.883 450.697 438.386 450.622L449.934 448.95L455.092 438.516C455.319 438.058 455.67 437.673 456.104 437.404C456.539 437.134 457.04 436.991 457.551 436.991C458.592 436.991 459.543 437.581 460.009 438.516L465.167 448.95L476.715 450.622C477.218 450.696 477.69 450.91 478.079 451.238C478.467 451.566 478.756 451.996 478.913 452.48C479.07 452.964 479.09 453.483 478.97 453.978C478.85 454.473 478.595 454.925 478.233 455.283L469.875 463.397L471.848 474.856C471.935 475.361 471.879 475.881 471.686 476.356C471.493 476.831 471.171 477.242 470.756 477.543C470.342 477.843 469.851 478.02 469.341 478.054C468.831 478.088 468.321 477.978 467.871 477.735L457.546 472.331L447.225 477.735ZM102.373 437.466H107.772C108.397 437.467 108.996 437.715 109.438 438.157C109.88 438.599 110.128 439.198 110.129 439.823V445.221C110.128 445.846 109.88 446.445 109.438 446.887C108.996 447.329 108.397 447.577 107.772 447.578H102.373C101.749 447.576 101.151 447.327 100.709 446.885C100.268 446.443 100.019 445.845 100.017 445.221V439.823C100.006 438.528 101.068 437.466 102.373 437.466ZM121.091 437.466H126.49C127.114 437.468 127.712 437.717 128.153 438.159C128.595 438.6 128.844 439.198 128.846 439.822V445.221C128.846 445.846 128.597 446.445 128.156 446.887C127.714 447.329 127.115 447.577 126.49 447.578H121.091C120.467 447.575 119.869 447.326 119.428 446.885C118.986 446.443 118.737 445.845 118.735 445.221V439.822C118.737 439.198 118.986 438.6 119.428 438.159C119.869 437.717 120.467 437.468 121.091 437.466ZM139.822 437.466H145.22C145.844 437.468 146.442 437.717 146.884 438.159C147.325 438.6 147.575 439.199 147.577 439.823V445.221C147.576 445.846 147.328 446.445 146.886 446.887C146.444 447.329 145.845 447.577 145.22 447.578H139.822C139.198 447.576 138.599 447.327 138.158 446.885C137.716 446.444 137.467 445.845 137.465 445.221V439.823C137.454 438.528 138.516 437.466 139.822 437.466ZM158.54 437.466H163.938C164.562 437.468 165.16 437.717 165.602 438.159C166.043 438.6 166.293 439.199 166.295 439.823V445.221C166.294 445.846 166.046 446.445 165.604 446.887C165.162 447.329 164.563 447.577 163.938 447.578H158.539C157.913 447.578 157.313 447.33 156.869 446.888C156.425 446.446 156.175 445.847 156.172 445.221V439.823C156.178 439.198 156.43 438.601 156.873 438.16C157.316 437.719 157.915 437.47 158.54 437.466ZM177.259 437.466H182.657C183.283 437.466 183.883 437.714 184.327 438.155C184.771 438.597 185.022 439.196 185.025 439.822V445.221C185.025 445.531 184.963 445.839 184.844 446.125C184.724 446.412 184.55 446.672 184.33 446.891C184.11 447.11 183.849 447.283 183.562 447.401C183.275 447.519 182.967 447.579 182.657 447.578H177.259C176.635 447.576 176.036 447.327 175.595 446.885C175.153 446.444 174.904 445.845 174.902 445.221V439.822C174.904 439.198 175.153 438.6 175.595 438.158C176.036 437.717 176.635 437.468 177.259 437.466ZM121.778 457.877H127.177C127.801 457.879 128.399 458.129 128.841 458.57C129.282 459.012 129.531 459.61 129.533 460.234V465.644C129.531 466.268 129.282 466.866 128.84 467.307C128.399 467.749 127.801 467.998 127.177 468H121.778C121.153 468 120.554 467.751 120.112 467.31C119.67 466.868 119.421 466.269 119.421 465.644V460.245C119.419 459.934 119.479 459.627 119.596 459.339C119.714 459.052 119.887 458.79 120.106 458.57C120.326 458.35 120.586 458.176 120.873 458.057C121.16 457.938 121.467 457.877 121.778 457.877ZM140.496 457.877H145.894C146.518 457.879 147.116 458.128 147.558 458.57C147.999 459.011 148.249 459.61 148.251 460.234V465.644C148.249 466.268 147.999 466.866 147.558 467.308C147.116 467.749 146.518 467.998 145.894 468H140.496C139.872 467.998 139.274 467.749 138.832 467.308C138.39 466.866 138.141 466.268 138.139 465.644V460.245C138.137 459.934 138.197 459.627 138.314 459.339C138.432 459.052 138.605 458.79 138.824 458.57C139.044 458.35 139.304 458.176 139.591 458.057C139.878 457.938 140.185 457.877 140.496 457.877ZM159.215 457.877H164.613C165.239 457.877 165.84 458.125 166.283 458.567C166.727 459.008 166.978 459.608 166.981 460.234V465.644C166.978 466.27 166.727 466.869 166.283 467.311C165.839 467.752 165.239 468 164.613 468H159.215C158.591 467.998 157.992 467.749 157.551 467.308C157.109 466.866 156.86 466.268 156.858 465.644V460.245C156.858 459.619 157.106 459.018 157.548 458.574C157.989 458.131 158.589 457.88 159.215 457.877ZM139.822 415.539H145.22C145.844 415.541 146.442 415.79 146.884 416.231C147.325 416.673 147.575 417.271 147.577 417.895V423.294C147.576 423.919 147.328 424.518 146.886 424.96C146.444 425.402 145.845 425.65 145.22 425.651H139.822C139.198 425.649 138.599 425.4 138.158 424.958C137.716 424.517 137.467 423.918 137.465 423.294V417.895C137.454 416.601 138.516 415.539 139.822 415.539ZM158.54 415.539H163.938C164.562 415.541 165.16 415.79 165.602 416.231C166.043 416.673 166.293 417.271 166.295 417.895V423.294C166.294 423.919 166.046 424.518 165.604 424.96C165.162 425.402 164.563 425.65 163.938 425.651H158.539C157.913 425.651 157.313 425.403 156.869 424.961C156.425 424.519 156.175 423.92 156.172 423.294V417.895C156.179 417.27 156.431 416.673 156.874 416.232C157.317 415.792 157.915 415.543 158.54 415.539ZM721.926 378.162H727.875C728.563 378.163 729.223 378.436 729.71 378.923C730.197 379.41 730.47 380.07 730.471 380.758V386.707C730.471 387.396 730.197 388.056 729.71 388.543C729.224 389.03 728.563 389.303 727.875 389.304H721.926C721.238 389.302 720.579 389.027 720.092 388.541C719.606 388.054 719.331 387.395 719.329 386.707V380.758C719.317 379.332 720.487 378.162 721.926 378.162ZM742.551 378.162H748.5C749.188 378.165 749.846 378.439 750.333 378.925C750.819 379.412 751.093 380.07 751.096 380.758V386.707C751.096 387.396 750.822 388.056 750.335 388.543C749.849 389.03 749.188 389.303 748.5 389.304H742.551C741.863 389.301 741.204 389.027 740.717 388.54C740.231 388.054 739.957 387.395 739.954 386.707V380.758C739.957 380.07 740.231 379.411 740.718 378.925C741.204 378.439 741.863 378.164 742.551 378.162ZM763.19 378.162H769.139C769.827 378.165 770.485 378.439 770.972 378.925C771.458 379.412 771.732 380.07 771.735 380.758V386.707C771.735 387.396 771.461 388.056 770.974 388.543C770.488 389.03 769.827 389.303 769.139 389.304H763.19C762.502 389.301 761.843 389.027 761.357 388.54C760.87 388.054 760.596 387.395 760.593 386.707V380.758C760.581 379.332 761.751 378.162 763.19 378.162ZM783.815 378.162H789.764C790.452 378.165 791.111 378.439 791.597 378.925C792.083 379.411 792.358 380.07 792.361 380.758V386.707C792.36 387.396 792.086 388.056 791.599 388.542C791.113 389.029 790.452 389.303 789.764 389.304H783.815C783.125 389.304 782.464 389.03 781.975 388.544C781.486 388.057 781.209 387.397 781.206 386.707V380.758C781.219 379.332 782.389 378.162 783.815 378.162ZM804.442 378.162H810.391C811.081 378.162 811.742 378.435 812.231 378.922C812.72 379.408 812.997 380.068 813 380.758V386.707C812.999 387.049 812.932 387.387 812.8 387.703C812.669 388.019 812.476 388.305 812.234 388.546C811.992 388.788 811.704 388.979 811.388 389.109C811.072 389.239 810.733 389.305 810.391 389.304H804.442C803.754 389.301 803.095 389.027 802.609 388.54C802.123 388.054 801.849 387.395 801.846 386.707V380.758C801.849 380.07 802.123 379.412 802.609 378.925C803.095 378.439 803.754 378.165 804.442 378.162ZM743.307 400.653H749.256C749.944 400.655 750.603 400.93 751.09 401.416C751.576 401.903 751.851 402.562 751.853 403.25V409.211C751.85 409.899 751.576 410.558 751.089 411.044C750.603 411.53 749.944 411.805 749.256 411.807H743.307C742.619 411.806 741.959 411.533 741.472 411.046C740.985 410.559 740.711 409.899 740.711 409.211V403.262C740.709 402.92 740.774 402.581 740.904 402.264C741.034 401.947 741.224 401.66 741.466 401.417C741.707 401.175 741.994 400.982 742.31 400.851C742.626 400.72 742.965 400.653 743.307 400.653ZM763.933 400.653H769.882C770.57 400.656 771.229 400.93 771.715 401.417C772.201 401.903 772.476 402.562 772.478 403.25V409.211C772.475 409.899 772.201 410.557 771.715 411.044C771.228 411.53 770.57 411.804 769.882 411.807H763.933C763.245 411.805 762.586 411.53 762.1 411.044C761.613 410.558 761.339 409.899 761.336 409.211V403.262C761.334 402.92 761.4 402.581 761.529 402.264C761.659 401.947 761.85 401.66 762.091 401.417C762.333 401.174 762.62 400.982 762.936 400.851C763.252 400.72 763.591 400.653 763.933 400.653ZM784.559 400.653H790.508C791.198 400.653 791.86 400.926 792.349 401.413C792.838 401.9 793.114 402.56 793.117 403.25V409.211C793.114 409.901 792.837 410.561 792.348 411.047C791.859 411.534 791.198 411.807 790.508 411.807H784.559C783.871 411.804 783.212 411.53 782.726 411.044C782.24 410.557 781.966 409.899 781.963 409.211V403.262C781.963 402.572 782.236 401.911 782.722 401.422C783.209 400.933 783.869 400.656 784.559 400.653ZM763.19 354H769.139C769.827 354.003 770.486 354.277 770.972 354.764C771.458 355.25 771.733 355.909 771.735 356.597V362.546C771.734 363.234 771.461 363.894 770.974 364.381C770.487 364.868 769.827 365.141 769.139 365.142H763.19C762.502 365.139 761.843 364.865 761.357 364.379C760.87 363.893 760.596 363.234 760.593 362.546V356.597C760.581 355.17 761.751 354 763.19 354ZM783.815 354H789.764C790.452 354.003 791.111 354.277 791.597 354.764C792.084 355.25 792.358 355.909 792.361 356.597V362.546C792.36 363.234 792.086 363.894 791.599 364.381C791.112 364.867 790.452 365.141 789.764 365.142H783.815C783.125 365.142 782.464 364.869 781.975 364.382C781.486 363.896 781.21 363.236 781.206 362.546V356.597C781.219 355.17 782.389 354 783.815 354ZM232.324 176.623H237.647C238.263 176.623 238.854 176.868 239.29 177.304C239.725 177.739 239.97 178.33 239.971 178.946V184.27C239.97 184.886 239.725 185.477 239.29 185.913C238.854 186.348 238.263 186.593 237.647 186.594H232.324C231.708 186.592 231.119 186.346 230.683 185.911C230.248 185.475 230.002 184.886 230 184.27V178.946C229.989 177.67 231.036 176.623 232.324 176.623ZM250.781 176.622H256.105C256.72 176.625 257.31 176.87 257.745 177.306C258.18 177.741 258.426 178.331 258.428 178.946V184.27C258.427 184.886 258.182 185.476 257.747 185.912C257.311 186.348 256.721 186.592 256.105 186.593H250.781C250.165 186.591 249.576 186.345 249.141 185.91C248.705 185.475 248.46 184.885 248.457 184.27V178.946C248.46 178.33 248.705 177.741 249.141 177.306C249.576 176.87 250.165 176.625 250.781 176.622ZM269.251 176.623H274.575C275.19 176.625 275.78 176.871 276.215 177.306C276.651 177.741 276.896 178.331 276.899 178.946V184.27C276.898 184.886 276.653 185.477 276.217 185.912C275.782 186.348 275.191 186.593 274.575 186.594H269.251C268.635 186.591 268.046 186.346 267.611 185.91C267.176 185.475 266.93 184.885 266.928 184.27V178.946C266.917 177.67 267.964 176.623 269.251 176.623ZM287.709 176.623H293.033C293.648 176.625 294.238 176.871 294.673 177.306C295.108 177.741 295.354 178.331 295.356 178.946V184.27C295.355 184.886 295.111 185.477 294.675 185.912C294.24 186.348 293.649 186.593 293.033 186.594H287.709C287.092 186.594 286.5 186.349 286.062 185.914C285.624 185.478 285.377 184.887 285.374 184.27V178.946C285.381 178.33 285.63 177.741 286.066 177.307C286.503 176.873 287.093 176.627 287.709 176.623ZM306.168 176.622H311.492C312.109 176.622 312.701 176.867 313.139 177.302C313.576 177.738 313.823 178.329 313.826 178.946V184.27C313.825 184.576 313.765 184.879 313.647 185.161C313.529 185.443 313.357 185.7 313.141 185.915C312.924 186.131 312.667 186.302 312.384 186.418C312.101 186.535 311.798 186.594 311.492 186.593H306.168C305.552 186.591 304.963 186.345 304.528 185.91C304.092 185.475 303.847 184.885 303.844 184.27V178.946C303.847 178.33 304.092 177.741 304.528 177.306C304.963 176.87 305.552 176.625 306.168 176.622ZM251.458 196.75H256.782C257.398 196.752 257.987 196.998 258.423 197.433C258.858 197.869 259.104 198.458 259.106 199.074V204.408C259.104 205.024 258.858 205.613 258.423 206.049C257.987 206.484 257.398 206.73 256.782 206.732H251.458C250.842 206.731 250.251 206.486 249.816 206.051C249.38 205.615 249.135 205.024 249.135 204.408V199.085C249.133 198.779 249.192 198.475 249.307 198.192C249.423 197.908 249.594 197.651 249.81 197.434C250.026 197.217 250.283 197.045 250.566 196.927C250.849 196.81 251.152 196.75 251.458 196.75ZM269.916 196.75H275.24C275.855 196.752 276.445 196.998 276.88 197.433C277.315 197.869 277.561 198.458 277.563 199.074V204.408C277.561 205.024 277.315 205.613 276.88 206.049C276.445 206.484 275.855 206.73 275.24 206.732H269.916C269.3 206.73 268.71 206.484 268.275 206.049C267.84 205.614 267.594 205.024 267.592 204.408V199.085C267.59 198.779 267.649 198.475 267.765 198.192C267.881 197.908 268.052 197.651 268.268 197.434C268.484 197.217 268.741 197.044 269.024 196.927C269.306 196.81 269.61 196.75 269.916 196.75ZM288.375 196.75H293.698C294.315 196.75 294.908 196.994 295.345 197.43C295.783 197.866 296.03 198.457 296.033 199.074V204.408C296.03 205.025 295.783 205.616 295.345 206.052C294.908 206.488 294.315 206.732 293.698 206.732H288.375C287.759 206.73 287.169 206.484 286.734 206.049C286.299 205.614 286.053 205.024 286.051 204.408V199.085C286.051 198.468 286.295 197.875 286.731 197.438C287.166 197 287.758 196.753 288.375 196.75ZM269.251 155H274.575C275.191 155.002 275.78 155.248 276.216 155.683C276.651 156.119 276.897 156.708 276.899 157.324V162.647C276.898 163.263 276.653 163.854 276.218 164.29C275.782 164.725 275.191 164.97 274.575 164.971H269.251C268.635 164.969 268.046 164.723 267.611 164.288C267.175 163.852 266.93 163.263 266.928 162.647V157.324C266.917 156.047 267.964 155 269.251 155ZM287.709 155H293.033C293.648 155.002 294.238 155.248 294.673 155.683C295.108 156.119 295.354 156.708 295.356 157.324V162.647C295.356 163.263 295.111 163.854 294.675 164.29C294.24 164.725 293.649 164.97 293.033 164.971H287.709C287.092 164.971 286.499 164.727 286.062 164.291C285.624 163.855 285.377 163.264 285.374 162.647V157.324C285.381 156.708 285.629 156.119 286.066 155.684C286.503 155.25 287.093 155.004 287.709 155Z" fill="#E1E4E5"/>
<path fill-rule="evenodd" clip-rule="evenodd" d="M673.697 203.38C673.697 195.438 680.135 189 688.076 189H825.62C833.562 189 840 195.438 840 203.38C840 211.321 833.562 217.759 825.62 217.759H688.076C680.135 217.759 673.697 211.321 673.697 203.38ZM314.57 258.095C314.57 250.499 308.412 244.341 300.816 244.341H113.255C105.659 244.341 99.501 250.499 99.501 258.095C99.501 265.691 105.659 271.849 113.255 271.849H300.816C308.412 271.849 314.57 265.691 314.57 258.095ZM673.697 252.814C673.697 244.873 680.135 238.435 688.076 238.435H764.351C772.292 238.435 778.73 244.873 778.73 252.814C778.73 260.756 772.292 267.194 764.351 267.194H688.076C680.135 267.194 673.697 260.756 673.697 252.814ZM260.802 306.38C260.802 298.438 254.365 292 246.423 292H111.38C103.438 292 97 298.438 97 306.38C97 314.321 103.438 320.759 111.38 320.759H246.423C254.365 320.759 260.802 314.321 260.802 306.38ZM673.697 300.564C673.697 293.313 679.575 287.435 686.826 287.435H765.601C772.852 287.435 778.73 293.313 778.73 300.564C778.73 307.815 772.852 313.693 765.601 313.693H686.826C679.575 313.693 673.697 307.815 673.697 300.564ZM260.802 354.129C260.802 346.878 254.924 341 247.673 341H110.129C102.878 341 96.999 346.878 96.999 354.129C96.999 361.38 102.878 367.258 110.129 367.258H247.673C254.924 367.258 260.802 361.38 260.802 354.129Z" fill="white" stroke="#E1E4E5" stroke-width="4" stroke-linecap="round" stroke-linejoin="round"/>
<path d="M434.528 348.579C434.528 313.108 405.774 284.354 370.303 284.354C334.833 284.354 306.078 313.108 306.078 348.579C306.078 384.049 334.833 412.804 370.303 412.804C405.774 412.804 434.528 384.049 434.528 348.579Z" fill="#4F27AA"/>
<path d="M391.178 337.033L363.173 364.708L346.37 348.103" stroke="white" stroke-width="9.368" stroke-linecap="round" stroke-linejoin="round"/>
</g>
<defs>
<clipPath id="clip0_1235_21965">
<rect width="900" height="600" fill="white"/>
</clipPath>
</defs>
</svg>
