<svg width="900" height="600" viewBox="0 0 900 600" fill="none" xmlns="http://www.w3.org/2000/svg">
<g clip-path="url(#clip0_1235_18082)">
<path fill-rule="evenodd" clip-rule="evenodd" d="M285.12 141.988C247.99 141.988 217.615 172.336 217.615 209.434C217.615 246.532 247.99 276.88 285.12 276.88C292.568 276.88 298.669 282.975 298.669 290.417C298.669 297.859 292.568 303.954 285.12 303.954H249.797C231.684 303.954 216.862 318.764 216.862 336.861C216.862 354.959 231.684 369.768 249.797 369.768C265.463 369.768 278.281 382.575 278.281 398.227C278.281 426.784 301.667 450.149 330.248 450.149H635.311C672.441 450.149 702.816 419.801 702.816 382.703C702.816 345.605 672.441 315.257 635.311 315.257H628.781C621.333 315.257 615.232 309.169 615.232 301.72C615.232 294.277 621.325 288.182 628.781 288.182H672.735C690.848 288.182 705.67 273.373 705.67 255.276C705.67 237.201 690.886 222.407 672.803 222.369H637.435C621.769 222.369 608.951 209.562 608.951 193.91C608.951 165.353 585.566 141.988 556.984 141.988H285.12Z" fill="url(#paint0_linear_1235_18082)"/>
<path d="M330.68 233.006H230.126C211.596 233.006 196.575 248.027 196.575 266.557V363.194C196.575 381.724 211.596 396.745 230.126 396.745H330.68C349.21 396.745 364.231 381.724 364.231 363.194V266.557C364.231 248.027 349.21 233.006 330.68 233.006Z" fill="#4F27AA"/>
<path d="M296.499 382.02L288.042 373.563C283.456 368.977 276.02 368.977 271.434 373.563L262.977 382.02C258.392 386.606 258.392 394.041 262.977 398.627L271.434 407.084C276.02 411.67 283.456 411.67 288.042 407.084L296.499 398.627C301.084 394.041 301.085 386.606 296.499 382.02Z" fill="#4F27AA"/>
<path fill-rule="evenodd" clip-rule="evenodd" d="M324.276 351.096V357.468C324.276 360.985 321.443 363.84 317.952 363.84H242.071C238.58 363.84 235.747 360.985 235.747 357.468V350.994C235.747 331.712 257.614 319.184 280.012 319.184C302.409 319.184 324.276 331.718 324.276 350.994M295.131 272.564C303.698 281.437 303.698 295.822 295.131 304.695C286.565 313.568 272.675 313.568 264.109 304.695C255.542 295.822 255.542 281.437 264.109 272.564C272.675 263.692 286.565 263.692 295.131 272.564Z" fill="white"/>
<path d="M506.065 113.955H405.511C386.981 113.955 371.96 128.976 371.96 147.506V244.143C371.96 262.673 386.981 277.694 405.511 277.694H506.065C524.595 277.694 539.616 262.673 539.616 244.143V147.506C539.616 128.976 524.595 113.955 506.065 113.955Z" fill="#4F27AA"/>
<path d="M471.883 262.971L463.426 254.514C458.84 249.929 451.404 249.929 446.819 254.514L438.362 262.971C433.776 267.557 433.776 274.993 438.362 279.579L446.819 288.036C451.404 292.622 458.84 292.622 463.426 288.036L471.883 279.579C476.469 274.993 476.469 267.557 471.883 262.971Z" fill="#4F27AA"/>
<path fill-rule="evenodd" clip-rule="evenodd" d="M499.66 232.046V238.419C499.66 241.936 496.827 244.791 493.337 244.791H417.455C413.965 244.791 411.132 241.936 411.132 238.419V231.944C411.132 212.662 432.998 200.135 455.396 200.135C477.794 200.135 499.66 212.669 499.66 231.944M470.515 153.515C479.082 162.388 479.082 176.773 470.515 185.646C461.949 194.518 448.06 194.518 439.493 185.646C430.926 176.773 430.926 162.388 439.493 153.515C448.06 144.643 461.949 144.643 470.515 153.515Z" fill="white"/>
<path d="M506.065 311.254H405.511C386.981 311.254 371.96 326.275 371.96 344.805V441.442C371.96 459.972 386.981 474.993 405.511 474.993H506.065C524.595 474.993 539.616 459.972 539.616 441.442V344.805C539.616 326.275 524.595 311.254 506.065 311.254Z" fill="#4F27AA"/>
<path d="M471.883 460.268L463.426 451.811C458.84 447.225 451.404 447.225 446.819 451.811L438.362 460.268C433.776 464.854 433.776 472.29 438.361 476.875L446.819 485.332C451.404 489.918 458.84 489.918 463.426 485.332L471.883 476.875C476.469 472.29 476.469 464.854 471.883 460.268Z" fill="#4F27AA"/>
<path fill-rule="evenodd" clip-rule="evenodd" d="M499.66 429.344V435.716C499.66 439.233 496.827 442.088 493.337 442.088H417.455C413.965 442.088 411.132 439.233 411.132 435.716V429.242C411.132 409.96 432.998 397.432 455.396 397.432C477.794 397.432 499.66 409.966 499.66 429.242M470.515 350.812C479.082 359.685 479.082 374.07 470.515 382.943C461.949 391.816 448.06 391.816 439.493 382.943C430.926 374.07 430.926 359.685 439.493 350.812C448.06 341.94 461.949 341.94 470.515 350.812Z" fill="white"/>
<path d="M681.449 193.398H580.895C562.365 193.398 547.344 208.42 547.344 226.949V323.586C547.344 342.116 562.365 357.137 580.895 357.137H681.449C699.979 357.137 715 342.116 715 323.586V226.949C715 208.42 699.979 193.398 681.449 193.398Z" fill="#4F27AA"/>
<path d="M647.267 342.413L638.81 333.956C634.224 329.37 626.788 329.37 622.202 333.956L613.745 342.413C609.16 346.999 609.16 354.434 613.745 359.02L622.202 367.477C626.788 372.063 634.224 372.063 638.81 367.477L647.267 359.02C651.853 354.434 651.852 346.999 647.267 342.413Z" fill="#4F27AA"/>
<path fill-rule="evenodd" clip-rule="evenodd" d="M675.045 311.489V317.86C675.045 321.377 672.212 324.232 668.721 324.232H592.84C589.349 324.232 586.516 321.377 586.516 317.86V311.386C586.516 292.104 608.383 279.576 630.78 279.576C653.178 279.576 675.045 292.11 675.045 311.386M645.9 232.957C654.467 241.829 654.467 256.216 645.9 265.088C637.333 273.961 623.444 273.961 614.877 265.088C606.311 256.216 606.311 241.829 614.877 232.957C623.444 224.084 637.333 224.084 645.9 232.957Z" fill="white"/>
<path fill-rule="evenodd" clip-rule="evenodd" d="M255.594 168.46V136.28C255.594 132.946 258.289 130.246 261.615 130.246H297.742C301.069 130.246 303.764 132.946 303.764 136.28V168.46C303.764 169.535 303.477 170.591 302.933 171.519C302.388 172.446 301.605 173.211 300.666 173.734L282.602 183.789C281.708 184.288 280.701 184.55 279.677 184.55C278.654 184.55 277.647 184.288 276.753 183.789L258.689 173.734C257.75 173.21 256.969 172.445 256.425 171.518C255.881 170.591 255.594 169.535 255.594 168.46Z" fill="#E1E4E5"/>
<path d="M269.667 156.858H289.692M269.667 147.477H289.692M269.667 165.969H289.692" stroke="white" stroke-width="3.094" stroke-linecap="round" stroke-linejoin="round"/>
<path d="M319.033 430.291C318.186 433.451 320.061 436.698 323.22 437.544C326.379 438.391 329.627 436.516 330.473 433.357C331.32 430.198 329.445 426.95 326.286 426.104C323.126 425.257 319.879 427.132 319.033 430.291Z" fill="#E1E4E5"/>
<path d="M325.55 207.649C324.703 210.808 326.578 214.055 329.737 214.902C332.896 215.748 336.144 213.874 336.99 210.714C337.837 207.555 335.962 204.308 332.803 203.461C329.644 202.615 326.396 204.49 325.55 207.649Z" fill="#E1E4E5"/>
<path d="M186.533 219.596C185.686 222.755 187.561 226.003 190.72 226.849C193.879 227.696 197.127 225.821 197.973 222.662C198.82 219.502 196.945 216.255 193.786 215.409C190.627 214.562 187.379 216.437 186.533 219.596Z" fill="#E1E4E5"/>
<path d="M565.57 173.981C564.723 177.14 566.598 180.387 569.757 181.234C572.916 182.08 576.164 180.206 577.01 177.046C577.857 173.887 575.982 170.64 572.823 169.793C569.664 168.947 566.416 170.822 565.57 173.981Z" fill="#E1E4E5"/>
<path d="M569.915 392.28C569.068 395.439 570.943 398.686 574.102 399.533C577.261 400.379 580.509 398.504 581.355 395.345C582.202 392.186 580.327 388.939 577.168 388.092C574.009 387.246 570.761 389.121 569.915 392.28Z" fill="#E1E4E5"/>
<path fill-rule="evenodd" clip-rule="evenodd" d="M651.83 413.804H648.933C648.232 413.804 647.668 413.234 647.668 412.54V409.643C647.668 408.942 648.238 408.378 648.933 408.378H651.83C652.524 408.378 653.094 408.948 653.094 409.643V412.54C653.094 412.706 653.062 412.87 652.998 413.024C652.935 413.177 652.842 413.317 652.724 413.434C652.607 413.552 652.467 413.645 652.314 413.708C652.161 413.772 651.996 413.804 651.83 413.804ZM641.786 413.804H638.889C638.554 413.803 638.233 413.669 637.996 413.432C637.759 413.196 637.626 412.875 637.624 412.54V409.643C637.624 408.942 638.194 408.378 638.889 408.378H641.786C642.48 408.378 643.05 408.948 643.05 409.643V412.54C643.048 412.875 642.915 413.195 642.678 413.432C642.441 413.669 642.121 413.802 641.786 413.804ZM631.735 413.804H628.838C628.503 413.802 628.183 413.669 627.946 413.432C627.709 413.195 627.576 412.875 627.574 412.54V409.643C627.574 408.942 628.144 408.378 628.838 408.378H631.735C632.43 408.378 633 408.948 633 409.643V412.54C633 412.706 632.968 412.871 632.904 413.024C632.841 413.178 632.748 413.317 632.63 413.435C632.512 413.552 632.373 413.645 632.219 413.709C632.066 413.772 631.901 413.804 631.735 413.804ZM621.691 413.804H618.794C618.459 413.802 618.139 413.669 617.902 413.432C617.665 413.195 617.532 412.875 617.53 412.54V409.643C617.53 408.942 618.1 408.378 618.794 408.378H621.691C622.392 408.378 622.962 408.948 622.962 409.643V412.54C622.958 412.875 622.823 413.195 622.585 413.432C622.347 413.668 622.026 413.802 621.691 413.804ZM611.647 413.804H608.75C608.414 413.804 608.092 413.671 607.853 413.434C607.615 413.198 607.481 412.876 607.479 412.54V409.643C607.479 408.942 608.049 408.378 608.75 408.378H611.647C612.341 408.378 612.911 408.948 612.911 409.643V412.54C612.909 412.875 612.776 413.195 612.539 413.432C612.302 413.669 611.982 413.802 611.647 413.804ZM641.417 402.852H638.521C638.186 402.851 637.865 402.717 637.628 402.48C637.391 402.243 637.257 401.922 637.256 401.587V398.684C637.256 397.99 637.826 397.42 638.521 397.42H641.417C642.118 397.42 642.682 397.99 642.682 398.684V401.581C642.683 401.748 642.651 401.913 642.588 402.067C642.525 402.221 642.432 402.362 642.314 402.48C642.197 402.598 642.057 402.692 641.903 402.756C641.749 402.819 641.584 402.852 641.417 402.852ZM631.373 402.852H628.476C628.141 402.85 627.82 402.717 627.584 402.48C627.347 402.243 627.213 401.922 627.212 401.587V398.684C627.212 397.99 627.782 397.42 628.476 397.42H631.373C632.068 397.42 632.638 397.99 632.638 398.684V401.581C632.639 401.748 632.607 401.913 632.544 402.067C632.481 402.221 632.388 402.362 632.27 402.48C632.153 402.598 632.013 402.692 631.859 402.756C631.705 402.819 631.54 402.852 631.373 402.852ZM621.329 402.852H618.432C617.732 402.852 617.162 402.282 617.162 401.587V398.684C617.162 397.99 617.732 397.42 618.432 397.42H621.329C622.023 397.42 622.593 397.99 622.593 398.684V401.581C622.593 401.917 622.46 402.239 622.224 402.477C621.987 402.716 621.665 402.85 621.329 402.852ZM631.735 425.57H628.838C628.503 425.568 628.182 425.435 627.946 425.198C627.709 424.961 627.575 424.64 627.574 424.305V421.409C627.574 420.708 628.144 420.144 628.838 420.144H631.735C632.43 420.144 633 420.714 633 421.409V424.305C633 424.471 632.968 424.636 632.905 424.789C632.841 424.943 632.748 425.083 632.63 425.2C632.513 425.318 632.373 425.411 632.22 425.474C632.066 425.538 631.901 425.57 631.735 425.57ZM621.691 425.57H618.794C618.459 425.568 618.138 425.435 617.902 425.198C617.665 424.961 617.531 424.64 617.53 424.305V421.409C617.53 420.708 618.1 420.144 618.794 420.144H621.691C622.392 420.144 622.962 420.714 622.962 421.409V424.305C622.958 424.64 622.823 424.961 622.585 425.197C622.348 425.434 622.026 425.568 621.691 425.57Z" fill="#E1E4E5"/>
<path d="M346.183 158.702L326.407 178.477C325.687 179.197 325.687 180.365 326.407 181.085C327.127 181.805 328.295 181.805 329.015 181.085L348.79 161.309C349.511 160.589 349.511 159.422 348.79 158.702C348.07 157.982 346.903 157.982 346.183 158.702Z" fill="#E1E4E5"/>
<path d="M344.246 172.862L338.543 178.565C337.823 179.285 337.823 180.453 338.543 181.173C339.263 181.893 340.431 181.893 341.151 181.173L346.854 175.47C347.574 174.749 347.574 173.582 346.854 172.862C346.134 172.142 344.967 172.142 344.246 172.862Z" fill="#E1E4E5"/>
<path d="M255.161 452.689L274.937 432.913C275.657 432.193 275.657 431.026 274.937 430.305C274.217 429.585 273.049 429.585 272.329 430.305L252.554 450.081C251.833 450.801 251.833 451.969 252.554 452.689C253.274 453.409 254.441 453.409 255.161 452.689Z" fill="#E1E4E5"/>
<path d="M257.097 438.531L262.8 432.827C263.52 432.107 263.52 430.94 262.8 430.22C262.08 429.499 260.912 429.499 260.192 430.22L254.489 435.923C253.769 436.643 253.769 437.811 254.489 438.531C255.209 439.251 256.376 439.251 257.097 438.531Z" fill="#E1E4E5"/>
<path d="M629.854 174.658L649.63 154.882C650.35 154.162 650.35 152.994 649.63 152.274C648.91 151.554 647.742 151.554 647.022 152.274L627.247 172.05C626.526 172.77 626.526 173.938 627.247 174.658C627.967 175.378 629.134 175.378 629.854 174.658Z" fill="#E1E4E5"/>
<path d="M631.79 160.498L637.493 154.794C638.213 154.074 638.213 152.906 637.493 152.186C636.773 151.466 635.605 151.466 634.885 152.186L629.182 157.89C628.462 158.61 628.462 159.778 629.182 160.498C629.902 161.218 631.069 161.218 631.79 160.498Z" fill="#E1E4E5"/>
</g>
<defs>
<linearGradient id="paint0_linear_1235_18082" x1="471.688" y1="622.922" x2="465.697" y2="-193.306" gradientUnits="userSpaceOnUse">
<stop stop-color="white"/>
<stop offset="1" stop-color="#EEEEEE"/>
</linearGradient>
<clipPath id="clip0_1235_18082">
<rect width="900" height="600" fill="white"/>
</clipPath>
</defs>
</svg>
