<svg width="900" height="600" viewBox="0 0 900 600" fill="none" xmlns="http://www.w3.org/2000/svg">
<g clip-path="url(#clip0_1235_22082)">
<path d="M508.423 323.045L423.9 238.523M570.768 323.045L655.029 238.523M277.288 323.045L361.549 238.523M233.703 312.114C232.346 301.836 231.381 291.427 231.381 280.784C231.381 151.105 336.486 46 466.165 46C554.209 46 630.853 94.548 671.027 166.262M261.302 395.305C301.476 467.018 378.12 515.566 466.164 515.566C595.843 515.566 700.948 410.461 700.948 280.783C700.948 270.139 699.983 259.73 698.626 249.452" stroke="#E1E4E5" stroke-width="4.707" stroke-linecap="round" stroke-linejoin="round"/>
<path fill-rule="evenodd" clip-rule="evenodd" d="M495.513 354.14C495.513 329.853 515.208 310.131 539.522 310.131C563.835 310.131 583.531 329.827 583.531 354.14C583.531 378.453 563.835 398.149 539.522 398.149C515.287 398.253 495.591 378.714 495.513 354.479V354.14ZM436.816 207.426C436.816 231.713 417.121 251.435 392.807 251.435C368.494 251.435 348.772 231.739 348.772 207.426C348.772 183.087 368.468 163.391 392.807 163.391C417.042 163.287 436.738 182.826 436.816 207.061V207.426ZM730.296 207.426C730.296 231.713 710.601 251.435 686.287 251.435C661.974 251.435 642.252 231.739 642.252 207.426C642.252 183.113 661.948 163.417 686.261 163.417C710.496 163.312 730.192 182.852 730.27 207.087C730.296 207.191 730.296 207.295 730.296 207.426ZM202.033 354.14C202.033 329.853 221.728 310.131 246.042 310.131C270.355 310.131 290.077 329.827 290.077 354.14C290.077 378.453 270.381 398.149 246.068 398.149C221.833 398.253 202.137 378.714 202.059 354.479C202.033 354.375 202.033 354.27 202.033 354.14Z" fill="#4F27AA" stroke="#4F27AA" stroke-width="4.707" stroke-linecap="round" stroke-linejoin="round"/>
<path d="M553.261 252.991H512.724V218.24H553.25C562.859 218.24 570.62 226.023 570.62 235.61C570.631 245.229 562.87 252.991 553.261 252.991V252.991Z" stroke="#4F27AA" stroke-width="15.926" stroke-linecap="round" stroke-linejoin="round"/>
<path d="M512.724 218.252V182.408H548.876C558.771 182.408 566.787 190.424 566.787 200.34C566.787 210.236 558.771 218.252 548.876 218.252M535.364 172.1V182.367M535.364 264.766V253.183" stroke="#4F27AA" stroke-width="15.926" stroke-linecap="round" stroke-linejoin="round"/>
<path d="M410.861 393.037H370.324V358.287H410.85C420.459 358.287 428.22 366.069 428.22 375.657C428.231 385.276 420.47 393.037 410.861 393.037V393.037Z" stroke="#4F27AA" stroke-width="15.926" stroke-linecap="round" stroke-linejoin="round"/>
<path d="M370.324 358.297V322.453H406.476C416.371 322.453 424.388 330.469 424.388 340.386C424.388 350.281 416.371 358.297 406.476 358.297M392.964 312.146V322.413M392.964 404.812V393.229" stroke="#4F27AA" stroke-width="15.926" stroke-linecap="round" stroke-linejoin="round"/>
<path d="M651.594 350.414H625.703M303.243 208.014H277.352M436.62 466.923H402.099M401.521 441.314H367M330.521 167.314H296" stroke="#E1E4E5" stroke-width="12.945" stroke-linecap="round" stroke-linejoin="round"/>
<path d="M393.176 186.047L414.851 207.722L393.176 229.397L371.501 207.722L393.176 186.047ZM246.069 333.154L267.744 354.829L246.069 376.505L224.394 354.829L246.069 333.154V333.154ZM540.284 333.154L561.959 354.829L540.284 376.505L518.609 354.829L540.284 333.154ZM686.215 186.047L707.89 207.722L686.215 229.397L664.54 207.722L686.215 186.047Z" stroke="white" stroke-width="5.884" stroke-linecap="round" stroke-linejoin="round"/>
<path d="M528.023 126.811H502.132M450.35 126.811H424.459M493.502 152.702H458.981M545.677 441.033H519.786M468.004 441.033H442.113M511.156 466.924H476.634M145.543 268.427H202.033M764.573 406.12H708.083M202.033 240.182H164.373M708.083 434.364H745.743M202.033 211.937H192.618M708.083 462.609H717.498" stroke="#E1E4E5" stroke-width="12.945" stroke-linecap="round" stroke-linejoin="round"/>
<path d="M607.751 538.909C600.346 544.007 589.037 540.44 589.037 540.44C589.037 540.44 589.74 528.609 597.149 523.516C604.554 518.418 615.859 521.98 615.859 521.98C615.859 521.98 615.156 533.811 607.751 538.909Z" fill="url(#paint0_linear_1235_22082)"/>
<path d="M783.161 254.151C791.555 248.402 792.385 235.005 792.385 235.005C792.385 235.005 779.602 230.939 771.211 236.695C762.816 242.444 761.984 255.833 761.984 255.833C761.984 255.833 774.766 259.9 783.161 254.151Z" fill="url(#paint1_linear_1235_22082)"/>
<path d="M123.417 418.451C136.863 432.136 162.007 429.251 162.007 429.251C162.007 429.251 165.334 404.177 151.876 390.5C138.43 376.815 113.298 379.692 113.298 379.692C113.298 379.692 109.971 404.766 123.417 418.451Z" fill="url(#paint2_linear_1235_22082)"/>
<path d="M381.742 553.701C375.437 553.701 370.325 548.59 370.325 542.284C370.325 535.979 375.437 530.867 381.742 530.867C388.047 530.867 393.159 535.979 393.159 542.284C393.159 548.59 388.047 553.701 381.742 553.701Z" fill="#E1E4E5"/>
<path d="M612.501 417.375C607.443 417.375 603.343 413.274 603.343 408.217C603.343 403.159 607.443 399.059 612.501 399.059C617.559 399.059 621.659 403.159 621.659 408.217C621.659 413.274 617.559 417.375 612.501 417.375Z" fill="#E1E4E5"/>
<path d="M710.897 122.546C707.66 122.546 705.035 119.922 705.035 116.684C705.035 113.447 707.66 110.822 710.897 110.822C714.135 110.822 716.759 113.447 716.759 116.684C716.759 119.922 714.135 122.546 710.897 122.546Z" fill="#E1E4E5"/>
<path d="M515.056 548.474C511.818 548.474 509.194 545.849 509.194 542.612C509.194 539.375 511.818 536.75 515.056 536.75C518.293 536.75 520.918 539.375 520.918 542.612C520.918 545.849 518.293 548.474 515.056 548.474Z" fill="#E1E4E5"/>
<path d="M658.633 513.169C655.396 513.169 652.771 510.545 652.771 507.307C652.771 504.07 655.396 501.445 658.633 501.445C661.87 501.445 664.495 504.07 664.495 507.307C664.495 510.545 661.87 513.169 658.633 513.169Z" fill="#E1E4E5"/>
<path d="M204.782 466.928C198.065 466.928 192.619 461.482 192.619 454.765C192.619 448.047 198.065 442.602 204.782 442.602C211.5 442.602 216.945 448.047 216.945 454.765C216.945 461.482 211.5 466.928 204.782 466.928Z" fill="#E1E4E5"/>
<path d="M286.709 521.122C281.542 521.122 277.353 517.771 277.353 513.637C277.353 509.503 281.542 506.152 286.709 506.152C291.876 506.152 296.065 509.503 296.065 513.637C296.065 517.771 291.876 521.122 286.709 521.122Z" fill="#E1E4E5"/>
<path d="M189.777 129.599C182.219 133.287 173.731 131.438 170.82 125.471C167.909 119.504 171.676 111.677 179.235 107.989C186.794 104.302 195.281 106.15 198.192 112.117C201.104 118.085 197.336 125.911 189.777 129.599Z" fill="#E1E4E5"/>
<path d="M648.574 75.5913C648.574 80.9865 644.2 85.3603 638.805 85.3603C633.41 85.3603 629.036 80.9865 629.036 75.5913C629.036 70.196 633.41 65.8223 638.805 65.8223C644.2 65.8223 648.574 70.196 648.574 75.5913Z" fill="#E1E4E5"/>
<path d="M747.16 300.201H747.405C748.854 320.737 764.126 321.053 764.126 321.053C764.126 321.053 747.285 321.382 747.285 345.11C747.285 321.382 730.445 321.053 730.445 321.053C730.445 321.053 745.71 320.737 747.16 300.201ZM476.482 71.8893H476.727C478.176 92.4253 493.448 92.7423 493.448 92.7423C493.448 92.7423 476.607 93.0703 476.607 116.799C476.607 93.0703 459.767 92.7423 459.767 92.7423C459.767 92.7423 475.032 92.4253 476.482 71.8903V71.8893ZM277.089 55.8223H277.266C278.311 70.8483 289.324 71.0803 289.324 71.0803C289.324 71.0803 277.18 71.3203 277.18 88.6833C277.18 71.3203 265.035 71.0803 265.035 71.0803C265.035 71.0803 276.044 70.8483 277.089 55.8223ZM152.467 306.999H152.644C153.689 322.026 164.702 322.257 164.702 322.257C164.702 322.257 152.558 322.497 152.558 339.86C152.558 322.497 140.413 322.257 140.413 322.257C140.413 322.257 151.422 322.026 152.467 306.999Z" fill="#E1E4E5"/>
</g>
<defs>
<linearGradient id="paint0_linear_1235_22082" x1="578.908" y1="555.635" x2="637.2" y2="494.194" gradientUnits="userSpaceOnUse">
<stop stop-color="white"/>
<stop offset="1" stop-color="#EEEEEE"/>
</linearGradient>
<linearGradient id="paint1_linear_1235_22082" x1="812.552" y1="230.483" x2="723.96" y2="267.08" gradientUnits="userSpaceOnUse">
<stop stop-color="white"/>
<stop offset="1" stop-color="#EEEEEE"/>
</linearGradient>
<linearGradient id="paint2_linear_1235_22082" x1="177.064" y1="465.197" x2="79.8569" y2="312.816" gradientUnits="userSpaceOnUse">
<stop stop-color="white"/>
<stop offset="1" stop-color="#EEEEEE"/>
</linearGradient>
<clipPath id="clip0_1235_22082">
<rect width="900" height="600" fill="white"/>
</clipPath>
</defs>
</svg>
