<svg width="900" height="600" viewBox="0 0 900 600" fill="none" xmlns="http://www.w3.org/2000/svg">
<g clip-path="url(#clip0_1235_22106)">
<path d="M111 543.637H789" stroke="#E1E4E5" stroke-width="4"/>
<path d="M222.148 541.402H551.843C564.434 541.402 574.645 533.232 574.645 523.156V512.308C574.645 502.228 564.434 494.062 551.843 494.062H222.153C237.236 507.253 237.493 527.417 222.761 540.855L222.148 541.402Z" fill="#2E2445"/>
<path d="M227.24 499.48H410.102C422.694 499.48 432.905 507.65 432.905 517.73C432.905 527.805 422.699 535.975 410.102 535.975H227.224C235.773 524.783 235.752 510.644 227.24 499.48Z" fill="url(#paint0_linear_1235_22106)"/>
<path d="M296.817 461.177C296.34 460.485 297.069 459.68 298.175 459.68H472.625C486.298 459.68 497.384 467.376 497.384 476.873C497.384 486.366 486.298 494.067 472.625 494.067H298.128C297.016 494.067 296.282 493.257 296.77 492.561C303.677 482.623 303.656 471.07 296.817 461.177Z" fill="#4F27AA"/>
<path d="M297.919 462.881H384.378C400.426 462.881 413.437 469.331 413.437 477.286C413.437 485.242 400.426 491.692 384.378 491.692H297.352C303.299 482.526 303.462 472.087 297.919 462.881Z" fill="url(#paint1_linear_1235_22106)"/>
<path d="M323.308 458.438H424.808C433.808 458.438 441.108 451.758 441.108 443.515C441.108 435.272 433.813 428.592 424.808 428.592H323.303C331.059 436.867 331.363 449.002 324.026 457.593L323.308 458.438Z" fill="url(#paint2_linear_1235_22106)"/>
<path d="M441.098 443.515C441.098 435.272 433.629 428.591 424.415 428.591H321.373C320.89 428.591 320.502 428.239 320.508 427.81C320.513 427.385 320.896 427.045 321.373 427.045H484.836C495.005 427.045 503.249 434.418 503.249 443.519C503.249 452.615 495.005 459.992 484.836 459.992H321.373C320.901 459.992 320.513 459.648 320.508 459.227C320.502 458.798 320.89 458.446 321.373 458.446H424.415C433.629 458.438 441.098 451.757 441.098 443.515Z" fill="#2E2445"/>
<path d="M262.525 395.033H522.25C530.315 395.033 536.855 400.079 536.855 406.302V415.779C536.855 422.003 530.315 427.049 522.25 427.049H262.525L262.662 426.939C273.775 418.013 273.717 403.899 262.525 395.033Z" fill="#4F27AA"/>
<path d="M267.125 399.771H405.97C414.036 399.771 420.576 404.817 420.576 411.04C420.576 417.264 414.036 422.31 405.97 422.31H267.13C272.233 415.329 272.228 406.743 267.125 399.771Z" fill="url(#paint3_linear_1235_22106)"/>
<path d="M279.433 412.923C270.79 410.003 263.3 403.784 258.926 395.807C257.69 393.607 256.681 391.079 257.013 388.578C257.098 388.068 257.227 387.465 257.686 387.227C258.098 386.99 258.655 387.12 259.119 387.252C273.555 391.147 288.817 397.71 303.969 397.018C304.662 397.007 305.355 396.95 305.96 397.219C306.704 397.531 307.177 398.217 307.511 398.952C308.657 401.338 309.65 405.853 309.275 408.54C308.815 411.737 305.725 412.2 303.008 412.888C295.272 414.855 287.146 415.533 279.433 412.923Z" fill="#F8AE9D"/>
<path d="M278.099 395.007C276.936 394.516 275.726 394.026 274.478 393.999C273.229 393.971 271.853 394.639 271.455 395.847C271.19 396.683 271.435 397.558 271.77 398.339C272.679 400.359 274.276 401.999 275.962 403.452C282.424 408.901 290.703 412.196 299.17 412.715C302.918 412.935 306.842 412.598 310.143 410.838C308.495 408.829 308.821 405.958 308.644 403.418C308.115 395.984 301.778 398.807 296.693 398.792C290.312 398.658 283.96 397.414 278.099 395.007Z" fill="#F8AE9D"/>
<path d="M471.508 340.018L471.798 340.845C473.829 346.732 475.401 352.81 476.05 359.04C477.241 370.486 474.994 383.88 466.384 392.193C454.903 403.277 436.485 404.99 421.513 402.351C415.385 401.279 409.615 398.715 404.712 394.886C399.833 399.306 394.591 404.147 390.228 409.067C381.464 406.001 373.122 401.841 365.401 396.685C347.13 405.053 328.494 410.698 308.817 414.787C306.568 409.192 304.989 403.351 304.115 397.385C303.962 396.417 316.225 388.141 317.64 386.964C321.885 383.386 330.728 375.208 330.728 375.208C330.728 375.208 319.582 365.716 314.707 361.26C309.549 356.628 304.601 351.767 299.878 346.693C295.978 342.499 292.166 338.073 289.775 332.84C287.385 327.652 286.506 321.518 288.504 316.125C294.813 299.341 320.281 305.241 332.111 311.025C341.891 315.823 350.457 322.811 358.7 329.897C362.025 332.713 365.305 335.622 368.538 338.485C371.087 335.857 373.901 332.44 376.309 329.676C378.899 326.678 381.861 323.86 385.44 322.095C389.201 320.189 392.672 320.46 396.685 319.89C398.484 319.632 400.233 319.097 401.985 318.793C407.24 317.835 412.803 318.859 417.42 321.563C421.805 324.131 425.364 327.174 430.51 328.159C436.352 329.273 443.137 328.615 448.996 327.832C454.255 327.105 459.599 325.915 464.838 326.945C467.017 327.374 467.849 330.412 468.569 332.158C469.532 334.686 470.543 337.305 471.508 340.018ZM425.088 146.429C425.088 146.429 439.232 144.18 443.031 169.149C447.251 196.908 458.521 192.341 476.418 214.881C486.877 228.052 475.87 251.311 453.502 250.85C431.134 250.4 410.933 243.933 398.066 246.7C385.2 249.467 384.493 216.512 397.188 206.344C409.884 196.177 382.816 166.978 399.31 153.976C415.804 140.974 425.088 146.429 425.088 146.429Z" fill="#2E2445"/>
<path d="M509.634 256.532C510.924 253.881 510.846 250.802 510.381 247.928C508.364 235.594 499.721 225.287 489.813 217.734C479.873 210.162 468.495 204.756 458.037 197.97C455.323 196.203 452.602 194.299 449.486 193.344C446.37 192.389 442.748 192.492 440.175 194.501C438.358 195.912 437.308 198.092 436.697 200.273C435.358 205.047 435.871 210.103 436.688 214.946C437.709 221.055 439.208 227.101 441.67 232.715C443.643 237.245 446.855 241.905 451.683 242.793C453.08 248.205 455.955 253.278 459.989 257.16C464.603 261.61 470.453 264.52 476.523 266.552C482.117 268.429 488.234 269.654 493.861 267.903C497.2 266.883 500.141 264.919 503.018 262.917C505.584 261.211 508.248 259.344 509.634 256.532ZM459.083 248.307L455.781 243.065C456.485 243.138 457.15 243.274 457.82 243.547C459.633 244.332 460.725 247.187 459.083 248.307Z" fill="#2E2445"/>
<path d="M397.896 168.387C397.725 169.314 397.694 170.286 397.757 171.394C398.131 177.868 399.523 184.243 401.881 190.284C403.322 193.868 405.086 197.401 407.581 200.368C408.617 201.6 409.79 202.738 411.322 203.177C412.9 203.615 414.889 203.677 416.455 203.284C417.836 208.995 417.26 219.774 412.329 223.825C410.822 225.05 409.031 225.816 407.238 226.491C403.745 227.838 400.109 228.864 396.469 229.659C392.323 230.554 387.803 231.224 384.89 234.273C384.526 234.648 384.164 235.162 384.311 235.668C384.408 235.99 384.643 236.218 384.923 236.399C387.216 238.259 390.051 239.279 392.886 240.253C397.858 241.934 402.964 243.336 408.156 244.274C413.579 245.255 419.179 245.725 424.671 245.133C428.917 244.652 433.107 243.571 436.961 241.664C440.999 239.661 445.134 238.027 449.312 236.114C452.847 234.489 456.332 232.633 460.158 231.974C458.35 228.534 454.576 226.604 450.818 225.69C447.06 224.823 443.13 224.744 439.328 224.016C438.076 223.757 436.823 223.453 435.748 222.683C432.804 220.555 433.61 215.828 433.563 212.731L433.414 202.934C433.852 198.258 435.78 194.346 437.472 190.067C440.053 183.51 440.587 176.06 438.313 169.345C436.039 162.677 430.866 156.885 424.22 154.535C417.574 152.186 409.597 153.509 404.493 158.395C401.259 161.541 398.621 164.355 397.896 168.387Z" fill="#F8AE9D"/>
<path d="M418.335 147.554C411.711 146.814 405.675 150.058 401.199 155.086C397.434 159.301 395.221 164.865 395.333 170.455C395.349 171.254 395.439 172.124 395.889 172.841C397.085 174.56 399.687 173.927 401.633 173.162C404.804 171.936 407.165 170.146 410.04 168.636C412.915 167.126 416.406 167.347 418.979 165.262C421.408 163.253 429.748 159.019 429.973 155.746C430.257 151.746 422.929 148.479 419.865 147.813C419.426 147.677 418.917 147.615 418.335 147.554Z" fill="#2E2445"/>
<path d="M437.418 156.608C443.019 160.22 445.648 166.548 445.939 173.273C446.194 178.919 444.394 184.63 440.775 188.892C440.258 189.501 439.639 190.118 438.836 190.39C436.823 190.966 435.206 188.832 434.181 187.009C432.498 184.056 431.799 181.176 430.525 178.189C429.251 175.202 426.406 173.168 425.729 169.926C425.116 166.834 421.327 158.282 423.22 155.603C425.528 152.324 433.272 154.422 436.067 155.842C436.493 156.013 436.928 156.287 437.418 156.608Z" fill="#2E2445"/>
<path d="M387.596 232.845C386.712 232.442 385.653 232.736 385.064 233.531C378.456 242.784 375.904 254.379 373.67 265.554C371.136 278.258 368.88 291.005 366.716 303.75C366.587 304.399 366.505 305.094 366.791 305.69C367.078 306.287 367.73 306.601 368.335 306.869C372.153 308.706 376.017 310.497 379.836 312.334C383.957 302.96 386.927 293.12 388.682 283.031C391.134 289.234 395.561 294.621 401.208 298.141C397 304.168 391.821 316.22 386.771 321.52C385.998 322.364 381.216 321.05 380.148 320.696C379.483 322.602 382.596 320.566 382.579 322.508C385.451 322.927 389.123 321.207 392.076 320.838C395.637 320.423 399.234 320.399 402.8 320.768C408.727 321.418 414.487 323.272 419.753 326.058C422.371 327.451 424.882 329.035 427.267 330.797C429.325 332.338 434.418 335.959 434.418 335.959C434.792 336.23 436.543 335.834 436.958 335.735C438.166 335.53 439.382 335.373 440.602 335.264C443.666 335.026 446.716 334.625 449.737 334.062C455.776 332.953 461.713 331.245 467.409 328.893C467.958 328.469 466.001 324.431 465.897 323.646C466 324.384 477.219 323.474 478.326 323.273C482.75 322.373 487.227 321.889 491.65 320.944C489.669 303.13 484.23 285.924 478.886 268.856C476.796 262.138 474.66 255.422 471.698 249.087C468.545 242.34 464.473 236.022 459.58 230.411C459.44 230.274 459.207 230.185 459.023 230.234C456.674 230.825 442.354 234.509 435.229 237.16C431.598 238.556 427.919 239.814 424.194 241.072C422.722 241.557 421.204 242.042 419.678 242.019C418.661 241.988 417.641 241.773 416.666 241.556C406.74 239.349 396.812 236.958 387.596 232.845Z" fill="#4F27AA"/>
<path d="M452.203 268.336C452.612 270.872 453.159 273.453 453.706 275.987C455.038 281.737 456.745 287.394 458.817 292.921C459.876 295.678 460.981 298.389 462.224 301.097C462.845 302.428 463.466 303.76 464.133 305.09C464.467 305.732 464.801 306.42 465.134 307.063C465.42 307.613 465.751 308.116 466.036 308.621C464.047 308.558 454.233 309.124 452.201 309.294" stroke="white" stroke-width="1.376" stroke-miterlimit="10" stroke-linecap="round"/>
<path d="M451.884 311.287C452.088 312.578 452.339 313.868 452.636 315.158L453.527 319.028C453.821 320.133 454.489 321.509 454.507 322.665C454.503 322.434 446.634 321.767 445.894 321.686C437.699 320.886 429.464 320.41 421.274 319.887C415.953 319.552 410.731 319.678 405.415 319.712C403.844 319.736 401.993 319.579 401.141 318.298C400.431 317.199 401.011 315.804 400.441 314.795C400.072 314.893 395.79 315.975 395.835 315.882C395.664 316.856 395.326 318.895 394.316 319.372C393.962 319.506 393.587 319.574 393.209 319.574C392.655 319.582 392.099 319.498 391.543 319.414C391.457 319.414 391.374 319.382 391.31 319.326C391.217 319.234 391.307 319.094 391.397 318.954C392.657 317.091 393.318 314.887 393.289 312.639C394.616 311.74 395.941 310.703 397.079 309.577C397.99 308.638 398.665 307.426 399.669 306.625C400.719 305.731 401.744 306.27 402.904 306.576C404.25 306.879 405.596 307.228 406.896 307.625C409.45 308.418 412.008 309.396 414.158 310.981C414.906 311.525 415.609 312.115 416.491 312.379C417.327 312.643 418.251 312.629 419.129 312.616C424.536 312.488 429.94 312.221 435.294 311.631C440.786 311.039 444.531 311.121 451.726 310.041C451.727 310.087 451.733 310.503 451.884 311.287Z" fill="#F8AE9D"/>
<path d="M392.343 267.822C391.051 273.409 390.119 279.052 389.488 284.809" stroke="white" stroke-width="1.376" stroke-miterlimit="10" stroke-linecap="round"/>
<path d="M283.332 258.605L299.199 329.368L419.684 327.538C419.621 323.378 416.195 320.01 411.99 320.074L383.197 320.511L368.849 255.411C368.4 253.291 366.482 251.795 364.357 251.827L287.731 252.991C284.82 253.082 282.688 255.749 283.332 258.605Z" fill="#2E2445"/>
<path d="M440.725 431.506C440.167 428.278 438.591 424.974 437.114 422.084C431.018 410.25 420.12 401.91 408.384 396.171C407.173 395.589 405.962 395.005 404.708 394.562C404.802 394.699 404.897 394.837 404.992 395.021L404.993 395.066L405.039 395.066C404.899 394.976 404.805 394.885 404.665 394.795C399.922 399.073 394.863 403.773 390.543 408.507C393.398 410.822 397.541 412.7 399.598 414.241C404.46 417.819 409.14 421.631 414.184 424.975C420.956 429.541 428.171 432.852 436.237 434.301C439.342 434.855 440.969 435.431 440.933 433.028C440.881 432.659 440.827 432.151 440.725 431.506Z" fill="#F8AE9D"/>
<path d="M432.861 422.196C429.72 416.28 424.844 411.778 419.514 407.791C415.773 404.982 411.805 402.453 408.022 399.876C406.947 399.152 404.838 397.197 403.02 396.254C399.236 399.686 395.361 403.304 391.859 407.055C403.43 414.091 413.739 423.272 426.435 428.256C427.597 428.701 428.806 429.145 430.055 429.172C431.303 429.2 432.636 428.671 433.36 427.643C434.491 426.054 433.765 423.892 432.861 422.196Z" fill="#F8AE9D"/>
<path d="M629.22 483.956C629.722 483.956 630.204 483.759 630.563 483.407C630.921 483.055 631.126 482.576 631.134 482.074C631.501 462.067 615.467 453.404 614.781 453.037C614.328 452.8 613.8 452.753 613.313 452.905C612.825 453.057 612.418 453.397 612.181 453.85C611.945 454.301 611.896 454.827 612.046 455.314C612.195 455.801 612.53 456.209 612.978 456.451C613.01 456.467 616.728 458.461 620.317 462.625C625.072 468.13 627.417 474.655 627.273 482.01C627.265 482.519 627.459 483.01 627.811 483.377C628.164 483.745 628.647 483.958 629.156 483.972C629.188 483.956 629.204 483.956 629.22 483.956ZM635.41 434.29C635.41 434.29 657.73 392.186 577.655 362.671C573.522 361.155 569.342 364.793 570.331 369.084C575.389 391.006 591.966 442.251 635.41 434.29Z" fill="#4F27AA"/>
<path d="M657.379 480.142C657.475 480.142 657.57 480.142 657.65 480.126C657.9 480.09 658.141 480.004 658.359 479.874C658.576 479.745 658.766 479.573 658.917 479.37C659.068 479.167 659.178 478.937 659.24 478.691C659.302 478.446 659.315 478.191 659.278 477.94C653.725 439.634 625.183 421.829 621.96 419.914C621.051 419.372 619.854 419.659 619.312 420.568C618.769 421.478 619.056 422.658 619.966 423.201L620.014 423.217C621.37 424.014 628.485 428.418 636.144 437.001C646.705 448.871 653.215 462.816 655.48 478.467C655.624 479.456 656.438 480.142 657.379 480.142Z" fill="#4F27AA"/>
<path d="M645.622 480.141H645.718C646.227 480.115 646.705 479.889 647.048 479.513C647.391 479.137 647.573 478.64 647.553 478.131C646.787 461.746 657.189 446.796 657.285 446.637C657.576 446.219 657.691 445.704 657.604 445.202C657.518 444.7 657.236 444.252 656.822 443.956C656.404 443.665 655.889 443.551 655.387 443.638C654.885 443.724 654.438 444.005 654.142 444.419C653.679 445.073 642.878 460.613 643.708 478.306C643.728 478.8 643.939 479.267 644.296 479.609C644.653 479.951 645.128 480.142 645.622 480.141ZM640.101 482.965H640.149C640.402 482.959 640.651 482.903 640.882 482.8C641.113 482.697 641.321 482.55 641.495 482.366C641.669 482.182 641.804 481.965 641.893 481.729C641.983 481.492 642.025 481.24 642.016 480.987L640.372 418.653C640.366 418.4 640.31 418.151 640.207 417.92C640.104 417.689 639.956 417.481 639.772 417.307C639.588 417.134 639.372 416.998 639.135 416.909C638.899 416.819 638.647 416.778 638.394 416.786C638.141 416.792 637.892 416.848 637.661 416.951C637.43 417.054 637.222 417.202 637.048 417.386C636.874 417.57 636.739 417.786 636.65 418.023C636.56 418.26 636.518 418.511 636.527 418.764L638.171 481.082C638.185 481.585 638.395 482.063 638.755 482.414C639.115 482.766 639.598 482.963 640.101 482.965Z" fill="#4F27AA"/>
<path d="M653.471 447.707C653.471 447.707 698.893 462.146 713.619 378.066C714.385 373.726 710.045 370.28 705.993 372.019C685.332 380.906 637.867 406.385 653.471 447.707ZM624.051 463.885C624.051 463.885 583.223 488.47 549.384 410.102C547.645 406.066 551.059 401.694 555.399 402.444C577.559 406.305 629.635 420.074 624.051 463.885Z" fill="#4F27AA"/>
<path d="M631.533 440.208C634.692 446.75 644.233 446.032 646.403 439.091C656.087 408.172 672.313 342.631 638.713 335.1C601.028 326.661 613.648 403.226 631.533 440.208Z" fill="#4F27AA"/>
<path d="M639.288 444.405H639.336C639.91 444.389 640.357 443.895 640.341 443.32L636.799 355.682C636.794 355.544 636.763 355.409 636.706 355.284C636.649 355.159 636.567 355.046 636.466 354.953C636.365 354.859 636.247 354.787 636.118 354.739C635.989 354.692 635.851 354.671 635.714 354.677C635.14 354.693 634.693 355.188 634.709 355.762L638.235 443.4C638.245 443.672 638.36 443.929 638.557 444.117C638.754 444.304 639.016 444.408 639.288 444.405ZM622.919 464.013C623.222 464.013 623.525 463.885 623.732 463.63C624.099 463.183 624.036 462.513 623.589 462.162L575.055 422.436C574.609 422.069 573.939 422.133 573.588 422.579C573.221 423.026 573.284 423.696 573.731 424.047L622.265 463.774C622.456 463.933 622.695 464.013 622.919 464.013Z" fill="#2E2445"/>
<path d="M602.221 476.025C595.69 476.025 590.829 482.056 592.215 488.437L593.109 492.474L594.975 501.041L595.853 505.094L596.159 506.493C600.572 526.681 618.448 541.071 639.113 541.071C659.778 541.071 677.654 526.681 682.068 506.493L682.374 505.094L683.251 501.041L685.118 492.474L685.995 488.437C687.389 482.059 682.531 476.025 676.002 476.025H602.221Z" fill="white" stroke="#E1E4E5" stroke-width="4" stroke-linecap="round" stroke-linejoin="round"/>
<path d="M237.286 313.625C224.426 316.671 210.824 305.764 210.824 305.764C210.824 305.764 218.082 289.924 230.947 286.887C243.808 283.84 257.406 294.737 257.406 294.737C257.406 294.737 250.147 310.578 237.286 313.625Z" fill="url(#paint4_linear_1235_22106)"/>
<path d="M229.373 141.884C248.933 155.357 278.816 145.939 278.816 145.939C278.816 145.939 276.965 114.681 257.392 101.222C237.832 87.7489 207.963 97.1539 207.963 97.1539C207.963 97.1539 209.814 128.412 229.373 141.884Z" fill="url(#paint5_linear_1235_22106)"/>
<path d="M624.495 189.789C612.812 201.681 590.964 199.173 590.964 199.173C590.964 199.173 588.072 177.386 599.767 165.502C611.45 153.61 633.288 156.11 633.288 156.11C633.288 156.11 636.179 177.898 624.495 189.789Z" fill="url(#paint6_linear_1235_22106)"/>
<path d="M726.792 443.379C721.248 443.379 716.754 447.873 716.754 453.417C716.754 458.961 721.248 463.455 726.792 463.455C732.336 463.455 736.83 458.961 736.83 453.417C736.83 447.873 732.336 443.379 726.792 443.379Z" fill="#4F27AA"/>
<path d="M211.033 438.935C204.894 438.935 199.918 443.662 199.918 449.494C199.918 455.325 204.894 460.053 211.033 460.053C217.172 460.053 222.148 455.325 222.148 449.494C222.148 443.662 217.172 438.935 211.033 438.935Z" fill="#4F27AA"/>
<path d="M702.244 223.186C694.298 223.186 687.856 216.744 687.856 208.798C687.856 200.852 694.298 194.41 702.244 194.41C710.19 194.41 716.632 200.852 716.632 208.798C716.632 216.744 710.19 223.186 702.244 223.186Z" fill="#4F27AA"/>
<path d="M765.659 513.404C760.134 513.404 755.656 509.174 755.656 503.956C755.656 498.738 760.134 494.508 765.659 494.508C771.183 494.508 775.662 498.738 775.662 503.956C775.662 509.174 771.183 513.404 765.659 513.404Z" fill="#E1E4E5"/>
<path d="M126.81 403.867C122.375 403.867 118.78 400.271 118.78 395.837C118.78 391.402 122.375 387.807 126.81 387.807C131.245 387.807 134.84 391.402 134.84 395.837C134.84 400.271 131.245 403.867 126.81 403.867Z" fill="#E1E4E5"/>
<path d="M538.156 364.055C535.507 364.055 533.36 361.908 533.36 359.259C533.36 356.61 535.507 354.463 538.156 354.463C540.805 354.463 542.952 356.61 542.952 359.259C542.952 361.908 540.805 364.055 538.156 364.055Z" fill="#E1E4E5"/>
<path d="M520.205 102.522C516.421 102.522 513.353 99.4546 513.353 95.6704C513.353 91.8861 516.421 88.8184 520.205 88.8184C523.989 88.8184 527.057 91.8861 527.057 95.6704C527.057 99.4546 523.989 102.522 520.205 102.522Z" fill="#E1E4E5"/>
<path d="M156.788 486.525C157.745 490.096 155.625 493.767 152.053 494.724C148.482 495.681 144.811 493.562 143.854 489.99C142.897 486.419 145.016 482.748 148.588 481.791C152.159 480.834 155.831 482.953 156.788 486.525Z" fill="#E1E4E5"/>
<path d="M201.907 218.814C196.988 218.814 193 214.826 193 209.907C193 204.988 196.988 201 201.907 201C206.826 201 210.814 204.988 210.814 209.907C210.814 214.826 206.826 218.814 201.907 218.814Z" fill="#E1E4E5"/>
<path d="M755.469 303.605C751.685 303.605 748.617 301.151 748.617 298.124C748.617 295.097 751.685 292.643 755.469 292.643C759.253 292.643 762.321 295.097 762.321 298.124C762.321 301.151 759.253 303.605 755.469 303.605Z" fill="#E1E4E5"/>
<path d="M573.889 302.346C575.881 309.779 571.47 317.42 564.036 319.412C556.603 321.403 548.962 316.992 546.971 309.559C544.979 302.126 549.39 294.485 556.823 292.493C564.257 290.501 571.897 294.913 573.889 302.346Z" fill="#E1E4E5"/>
<path d="M688.982 275.548H689.161C690.223 290.586 701.407 290.818 701.407 290.818C701.407 290.818 689.074 291.059 689.074 308.435C689.074 291.059 676.741 290.818 676.741 290.818C676.741 290.818 687.92 290.586 688.982 275.548ZM348.585 108.826H348.76C349.797 124.126 360.72 124.362 360.72 124.362C360.72 124.362 348.675 124.607 348.675 142.286C348.675 124.607 336.629 124.362 336.629 124.362C336.629 124.362 347.548 124.126 348.585 108.826ZM134.955 292H135.13C136.167 307.3 147.091 307.536 147.091 307.536C147.091 307.536 135.045 307.781 135.045 325.459C135.045 307.781 123 307.536 123 307.536C123 307.536 133.919 307.3 134.955 292ZM611.955 235H612.13C613.167 250.3 624.091 250.536 624.091 250.536C624.091 250.536 612.045 250.781 612.045 268.459C612.045 250.781 600 250.536 600 250.536C600 250.536 610.919 250.3 611.955 235ZM296.933 210H297.063C297.838 221.432 306 221.608 306 221.608C306 221.608 297 221.791 297 235C297 221.791 288 221.608 288 221.608C288 221.608 296.158 221.432 296.933 210Z" fill="#E1E4E5"/>
</g>
<defs>
<linearGradient id="paint0_linear_1235_22106" x1="325.679" y1="556.436" x2="325.879" y2="459.768" gradientUnits="userSpaceOnUse">
<stop stop-color="white"/>
<stop offset="1" stop-color="#EEEEEE"/>
</linearGradient>
<linearGradient id="paint1_linear_1235_22106" x1="352.92" y1="507.845" x2="353.14" y2="431.53" gradientUnits="userSpaceOnUse">
<stop stop-color="white"/>
<stop offset="1" stop-color="#EEEEEE"/>
</linearGradient>
<linearGradient id="paint2_linear_1235_22106" x1="379.694" y1="475.172" x2="379.927" y2="396.113" gradientUnits="userSpaceOnUse">
<stop stop-color="white"/>
<stop offset="1" stop-color="#EEEEEE"/>
</linearGradient>
<linearGradient id="paint3_linear_1235_22106" x1="340.579" y1="434.946" x2="340.681" y2="375.244" gradientUnits="userSpaceOnUse">
<stop stop-color="white"/>
<stop offset="1" stop-color="#EEEEEE"/>
</linearGradient>
<linearGradient id="paint4_linear_1235_22106" x1="188.857" y1="321.2" x2="301.438" y2="268.012" gradientUnits="userSpaceOnUse">
<stop stop-color="white"/>
<stop offset="1" stop-color="#EEEEEE"/>
</linearGradient>
<linearGradient id="paint5_linear_1235_22106" x1="305.567" y1="186.09" x2="151.597" y2="23.7318" gradientUnits="userSpaceOnUse">
<stop stop-color="white"/>
<stop offset="1" stop-color="#EEEEEE"/>
</linearGradient>
<linearGradient id="paint6_linear_1235_22106" x1="577.88" y1="230.408" x2="662.345" y2="98.0006" gradientUnits="userSpaceOnUse">
<stop stop-color="white"/>
<stop offset="1" stop-color="#EEEEEE"/>
</linearGradient>
<clipPath id="clip0_1235_22106">
<rect width="900" height="600" fill="white"/>
</clipPath>
</defs>
</svg>
