<svg width="900" height="600" viewBox="0 0 900 600" fill="none" xmlns="http://www.w3.org/2000/svg">
<g clip-path="url(#clip0_1235_22153)">
<path d="M549.158 311.91H351.506V378.896H549.158V311.91Z" fill="white" stroke="#E1E4E5" stroke-width="3.008"/>
<path d="M428.416 378.897H347.37V309.741L388.199 235L428.416 309.656V378.897Z" fill="white" stroke="#E1E4E5" stroke-width="3.008"/>
<path d="M456.761 324.234H438.011V361.637H456.761V324.234Z" fill="white"/>
<path d="M455.752 359.96V325.91H439.928V359.96H455.752Z" fill="white" stroke="#E1E4E5" stroke-width="3.008"/>
<path d="M474.475 324.234H455.725V361.637H474.475V324.234Z" fill="white"/>
<path d="M472.559 359.96V325.91H456.735V359.96H472.559Z" fill="white" stroke="#E1E4E5" stroke-width="3.008"/>
<path d="M390.214 324.234H371.464V361.637H390.214V324.234Z" fill="white"/>
<path d="M389.205 359.96V325.91H373.381V359.96H389.205Z" fill="white" stroke="#E1E4E5" stroke-width="3.008"/>
<path d="M407.927 324.234H389.177V361.637H407.927V324.234Z" fill="white"/>
<path d="M406.012 359.96V325.91H390.188V359.96H406.012Z" fill="white" stroke="#E1E4E5" stroke-width="3.008"/>
<path d="M390.044 304.336H377.452V291.832C377.452 284.866 383.09 279.219 390.044 279.219V304.336Z" fill="white"/>
<path d="M378.74 303.212V290.991C378.74 285.112 383.498 280.346 389.367 280.346V303.212H378.74Z" fill="white" stroke="#E1E4E5" stroke-width="3.008"/>
<path d="M401.939 304.336H389.347V279.219C396.301 279.219 401.939 284.866 401.939 291.832V304.336Z" fill="white"/>
<path d="M390.026 303.212V280.346C395.895 280.346 400.654 285.112 400.654 290.991V303.212H390.026Z" fill="white" stroke="#E1E4E5" stroke-width="3.008"/>
<path d="M523.203 324.234H504.453V361.637H523.203V324.234Z" fill="white"/>
<path d="M522.193 359.96V325.91H506.369V359.96H522.193Z" fill="white" stroke="#E1E4E5" stroke-width="3.008"/>
<path d="M540.917 324.234H522.167V361.637H540.917V324.234Z" fill="white"/>
<path d="M539 359.96V325.91H523.177V359.96H539ZM555.33 312.377H432.168L387.894 235H511.055L555.33 312.377ZM549.157 378.897H347.37V397.091H549.157V378.897ZM628.549 408.669H430.896V475.656H628.549V408.669Z" fill="white" stroke="#E1E4E5" stroke-width="3.008"/>
<path d="M507.808 475.656H426.762V406.5L467.591 331.758L507.808 406.414V475.656Z" fill="white" stroke="#E1E4E5" stroke-width="3.008"/>
<path d="M536.152 420.992H517.402V458.394H536.152V420.992Z" fill="white"/>
<path d="M535.142 456.72V422.67H519.318V456.72H535.142Z" fill="white" stroke="#E1E4E5" stroke-width="3.008"/>
<path d="M553.865 420.992H535.115V458.394H553.865V420.992Z" fill="white"/>
<path d="M551.949 456.72V422.67H536.125V456.72H551.949Z" fill="white" stroke="#E1E4E5" stroke-width="3.008"/>
<path d="M469.606 420.992H450.856V458.394H469.606V420.992Z" fill="white"/>
<path d="M468.595 456.72V422.67H452.772V456.72H468.595Z" fill="white" stroke="#E1E4E5" stroke-width="3.008"/>
<path d="M487.319 420.992H468.569V458.394H487.319V420.992Z" fill="white"/>
<path d="M485.403 456.72V422.67H469.579V456.72H485.403Z" fill="white" stroke="#E1E4E5" stroke-width="3.008"/>
<path d="M469.435 401.096H456.843V388.592C456.843 381.626 462.481 375.979 469.435 375.979V401.096Z" fill="white"/>
<path d="M458.131 399.97V387.749C458.131 381.87 462.89 377.104 468.759 377.104V399.97H458.131Z" fill="white" stroke="#E1E4E5" stroke-width="3.008"/>
<path d="M481.331 401.096H468.739V375.979C475.693 375.979 481.331 381.626 481.331 388.592V401.096Z" fill="white"/>
<path d="M469.418 399.97V377.104C475.287 377.104 480.045 381.87 480.045 387.749V399.97H469.418Z" fill="white" stroke="#E1E4E5" stroke-width="3.008"/>
<path d="M602.593 420.992H583.843V458.394H602.593V420.992Z" fill="white"/>
<path d="M601.584 456.718V422.668H585.761V456.718H601.584Z" fill="white" stroke="#E1E4E5" stroke-width="3.008"/>
<path d="M620.309 420.992H601.559V458.394H620.309V420.992Z" fill="white"/>
<path d="M618.392 456.718V422.668H602.568V456.718H618.392ZM634.721 409.135H511.559L467.284 331.758H590.446L634.721 409.135ZM628.549 475.656H426.762V493.85H628.549V475.656ZM439.994 392.957H242.342V459.943H439.994V392.957Z" fill="white" stroke="#E1E4E5" stroke-width="3.008"/>
<path d="M319.253 459.944H238.207V390.788L279.036 316.047L319.253 390.703V459.944Z" fill="white" stroke="#E1E4E5" stroke-width="3.008"/>
<path d="M347.598 405.279H328.847V442.682H347.598V405.279Z" fill="white"/>
<path d="M346.587 441.005V406.955H330.764V441.005H346.587Z" fill="white" stroke="#E1E4E5" stroke-width="3.008"/>
<path d="M365.31 405.279H346.56V442.681H365.31V405.279Z" fill="white"/>
<path d="M363.396 441.005V406.955H347.572V441.005H363.396Z" fill="white" stroke="#E1E4E5" stroke-width="3.008"/>
<path d="M281.05 405.279H262.3V442.682H281.05V405.279Z" fill="white"/>
<path d="M280.041 441.005V406.955H264.217V441.005H280.041Z" fill="white" stroke="#E1E4E5" stroke-width="3.008"/>
<path d="M298.765 405.279H280.014V442.681H298.765V405.279Z" fill="white"/>
<path d="M296.848 441.005V406.955H281.024V441.005H296.848Z" fill="white" stroke="#E1E4E5" stroke-width="3.008"/>
<path d="M280.881 385.383H268.289V372.879C268.289 365.913 273.927 360.266 280.881 360.266V385.383Z" fill="white"/>
<path d="M269.577 384.257V372.036C269.577 366.157 274.335 361.391 280.204 361.391V384.257H269.577Z" fill="white" stroke="#E1E4E5" stroke-width="3.008"/>
<path d="M292.777 385.382H280.185V360.264C287.139 360.264 292.777 365.912 292.777 372.878V385.382Z" fill="white"/>
<path d="M280.864 384.257V361.391C286.733 361.391 291.491 366.157 291.491 372.036V384.257H280.864Z" fill="white" stroke="#E1E4E5" stroke-width="3.008"/>
<path d="M414.039 405.279H395.289V442.682H414.039V405.279Z" fill="white"/>
<path d="M413.029 441.005V406.955H397.205V441.005H413.029Z" fill="white" stroke="#E1E4E5" stroke-width="3.008"/>
<path d="M431.753 405.279H413.003V442.681H431.753V405.279Z" fill="white"/>
<path d="M429.836 441.007V406.957H414.013V441.007H429.836ZM446.167 393.423H323.005L278.73 316.047H401.892L446.167 393.423ZM439.994 459.944H238.207V478.138H439.994V459.944Z" fill="white" stroke="#E1E4E5" stroke-width="3.008"/>
<path fill-rule="evenodd" clip-rule="evenodd" d="M132 514.68C132 514.68 204.351 443.32 306.011 442.317C408.132 441.311 489.377 512.237 496.862 515.901L132 514.68Z" fill="white" stroke="#E1E4E5" stroke-width="3.008"/>
<path fill-rule="evenodd" clip-rule="evenodd" d="M254.312 514.68C254.312 514.68 326.663 443.32 428.322 442.317C530.443 441.311 611.689 512.237 619.173 515.901L254.312 514.68Z" fill="white" stroke="#E1E4E5" stroke-width="3.008"/>
<path fill-rule="evenodd" clip-rule="evenodd" d="M402.536 514.681C402.536 514.681 474.888 443.321 576.547 442.318C678.668 441.312 759.914 512.238 767.398 515.902L402.536 514.681ZM185.397 409.551H185.434C186.453 409.551 187.28 410.377 187.28 411.397V494.62H183.551V411.397C183.551 410.377 184.378 409.551 185.397 409.551Z" fill="white" stroke="#E1E4E5" stroke-width="3.008"/>
<path fill-rule="evenodd" clip-rule="evenodd" d="M152.73 448.515C152.73 466.645 167.428 481.344 185.559 481.344C203.69 481.344 218.387 466.645 218.387 448.515C218.387 430.385 203.69 394.627 185.559 394.627C167.428 394.627 152.73 430.385 152.73 448.515Z" fill="white"/>
<path d="M152.73 448.515C152.73 466.645 167.428 481.344 185.559 481.344C203.69 481.344 218.387 466.645 218.387 448.515C218.387 430.385 203.69 394.627 185.559 394.627C167.428 394.627 152.73 430.385 152.73 448.515Z" stroke="#E1E4E5" stroke-width="3.008"/>
<path fill-rule="evenodd" clip-rule="evenodd" d="M346.984 399.561H347.017C347.905 399.561 348.625 400.281 348.625 401.169V473.663H345.377V401.169C345.377 400.281 346.097 399.561 346.984 399.561Z" fill="white" stroke="#E1E4E5" stroke-width="3.008"/>
<path fill-rule="evenodd" clip-rule="evenodd" d="M318.53 433.502C318.53 449.294 331.332 462.098 347.126 462.098C362.919 462.098 375.722 449.294 375.722 433.502C375.722 417.709 362.919 386.561 347.126 386.561C331.332 386.561 318.53 417.709 318.53 433.502Z" fill="white"/>
<path d="M318.53 433.502C318.53 449.294 331.332 462.098 347.126 462.098C362.919 462.098 375.722 449.294 375.722 433.502C375.722 417.709 362.919 386.561 347.126 386.561C331.332 386.561 318.53 417.709 318.53 433.502" stroke="#E1E4E5" stroke-width="3.008"/>
<path fill-rule="evenodd" clip-rule="evenodd" d="M452.824 418.879H452.862C453.881 418.879 454.708 419.705 454.708 420.725V503.949H450.979V420.725C450.979 419.705 451.805 418.879 452.824 418.879Z" fill="white" stroke="#E1E4E5" stroke-width="3.008"/>
<path fill-rule="evenodd" clip-rule="evenodd" d="M420.157 457.843C420.157 475.973 434.855 490.672 452.986 490.672C471.117 490.672 485.814 475.973 485.814 457.843C485.814 439.713 471.117 403.955 452.986 403.955C434.855 403.955 420.157 439.713 420.157 457.843Z" fill="white"/>
<path d="M420.157 457.843C420.157 475.973 434.855 490.672 452.986 490.672C471.117 490.672 485.814 475.973 485.814 457.843C485.814 439.713 471.117 403.955 452.986 403.955C434.855 403.955 420.157 439.713 420.157 457.843Z" stroke="#E1E4E5" stroke-width="3.008"/>
<path fill-rule="evenodd" clip-rule="evenodd" d="M567.694 413.502H567.721C568.467 413.502 569.072 414.107 569.072 414.853V475.767H566.343V414.853C566.343 414.107 566.948 413.502 567.694 413.502Z" fill="white" stroke="#E1E4E5" stroke-width="3.008"/>
<path fill-rule="evenodd" clip-rule="evenodd" d="M543.784 442.02C543.784 455.29 554.542 466.049 567.812 466.049C581.083 466.049 591.84 455.29 591.84 442.02C591.84 428.75 581.083 402.578 567.812 402.578C554.542 402.578 543.784 428.75 543.784 442.02Z" fill="white"/>
<path d="M543.784 442.02C543.784 455.29 554.542 466.049 567.812 466.049C581.083 466.049 591.84 455.29 591.84 442.02C591.84 428.75 581.083 402.578 567.812 402.578C554.542 402.578 543.784 428.75 543.784 442.02Z" stroke="#E1E4E5" stroke-width="3.008"/>
<path fill-rule="evenodd" clip-rule="evenodd" d="M644.668 398.838H644.698C645.506 398.838 646.161 399.493 646.161 400.301V466.273H643.205V400.301C643.205 399.493 643.86 398.838 644.668 398.838Z" fill="white" stroke="#E1E4E5" stroke-width="3.008"/>
<path fill-rule="evenodd" clip-rule="evenodd" d="M618.773 429.725C618.773 444.097 630.424 455.749 644.796 455.749C659.169 455.749 670.819 444.097 670.819 429.725C670.819 415.353 659.169 387.008 644.796 387.008C630.424 387.008 618.773 415.353 618.773 429.725Z" fill="white"/>
<path d="M618.773 429.725C618.773 444.097 630.424 455.749 644.796 455.749C659.169 455.749 670.819 444.097 670.819 429.725C670.819 415.353 659.169 387.008 644.796 387.008C630.424 387.008 618.773 415.353 618.773 429.725Z" stroke="#E1E4E5" stroke-width="3.008"/>
<path fill-rule="evenodd" clip-rule="evenodd" d="M161.807 287.135C161.807 287.135 139.988 269.712 139.988 253.8C139.988 242.083 149.757 232.586 161.807 232.586C173.857 232.586 183.626 242.083 183.626 253.8C183.626 269.712 161.807 287.135 161.807 287.135Z" fill="#4F27AA" stroke="#4F27AA" stroke-width="6.616" stroke-linecap="round" stroke-linejoin="round"/>
<path d="M161.802 251.848C160.347 251.848 159.177 253 159.177 254.409C159.177 255.819 160.356 256.961 161.811 256.961C163.267 256.961 164.437 255.819 164.437 254.4C164.446 253 163.267 251.848 161.802 251.848Z" stroke="white" stroke-width="11.251" stroke-linecap="round" stroke-linejoin="round"/>
<path fill-rule="evenodd" clip-rule="evenodd" d="M752.698 364.976C752.698 364.976 730.878 347.554 730.878 331.642C730.878 319.925 740.648 310.428 752.698 310.428C764.747 310.428 774.517 319.925 774.517 331.642C774.517 347.554 752.698 364.976 752.698 364.976Z" fill="#4F27AA" stroke="#4F27AA" stroke-width="6.616" stroke-linecap="round" stroke-linejoin="round"/>
<path d="M752.693 329.689C751.237 329.689 750.067 330.841 750.067 332.25C750.067 333.66 751.247 334.802 752.702 334.802C754.158 334.802 755.328 333.66 755.328 332.241C755.337 330.841 754.158 329.689 752.693 329.689Z" stroke="white" stroke-width="11.251" stroke-linecap="round" stroke-linejoin="round"/>
<path d="M194.831 258.533C215.864 240.448 271.375 207.11 325.157 218.432C392.384 232.585 540.991 226.688 553.375 173.024C565.759 119.361 452.534 129.975 496.763 206.638C532.146 267.968 656.575 315.538 714.956 335.785" stroke="#E1E4E5" stroke-width="2" stroke-dasharray="7 6"/>
<path d="M98 516H802" stroke="#E1E4E5" stroke-width="4"/>
<path d="M542.43 413.095L540.379 411.427L567.871 375.557L577.791 375.146L542.43 413.095ZM506.513 413.095L504.816 411.427L527.561 375.557L535.767 375.146L506.513 413.095ZM401.819 476.051L382.52 483.803C369.157 457.883 355.509 445.167 343.834 438.893C322.836 427.603 308.22 437.167 313.141 428.272L349.163 352.467C352.43 347.929 356.798 344.297 361.856 341.913C367.226 339.382 373.174 338.332 379.086 338.873C385.962 339.507 390.453 346.424 388.264 352.952C383.549 367.016 381.736 381.154 381.736 394.582C381.736 439.258 401.819 476.051 401.819 476.051Z" fill="#4F27AA" stroke="#2E2445" stroke-width="2"/>
<path d="M491.582 485.773H369.002C368.358 485.769 367.742 485.511 367.288 485.055C366.834 484.598 366.579 483.98 366.579 483.337V471.772C366.579 471.128 366.834 470.51 367.288 470.054C367.742 469.597 368.358 469.339 369.002 469.336H477.283C477.927 469.339 478.543 469.597 478.997 470.054C479.451 470.51 479.706 471.128 479.706 471.772L491.582 485.773ZM529.295 513.289C549.526 513.289 565.927 496.914 565.927 476.714C565.927 456.515 549.526 440.139 529.295 440.139C509.063 440.139 492.662 456.515 492.662 476.714C492.662 496.914 509.063 513.289 529.295 513.289Z" fill="#4F27AA" stroke="#2E2445" stroke-width="2"/>
<path d="M529.295 495.356C539.607 495.356 547.967 487.009 547.967 476.713C547.967 466.417 539.607 458.07 529.295 458.07C518.982 458.07 510.623 466.417 510.623 476.713C510.623 487.009 518.982 495.356 529.295 495.356Z" fill="white" stroke="#2E2445" stroke-width="2"/>
<path d="M378.496 347.069L364.669 341.797C362.787 341.797 359.2 343.495 359.2 341.615L361.248 307.904C361.251 306.998 361.612 306.13 362.254 305.49C362.895 304.85 363.763 304.49 364.669 304.488H373.58C375.463 304.488 383.004 308.089 382.471 314.833L384.843 348.818C384.846 350.697 380.379 347.069 378.496 347.069ZM613.988 376.812H521.909C519.244 376.812 517.064 374.636 517.064 371.975V368.656C517.064 365.995 519.244 363.819 521.909 363.819H613.988C616.654 363.819 618.833 365.995 618.833 368.656V371.975C618.833 374.636 616.654 376.812 613.988 376.812ZM324.616 513.288C344.847 513.288 361.248 496.913 361.248 476.713C361.248 456.514 344.847 440.138 324.616 440.138C304.384 440.138 287.983 456.514 287.983 476.713C287.983 496.913 304.384 513.288 324.616 513.288Z" fill="#4F27AA" stroke="#2E2445" stroke-width="2"/>
<path d="M343.288 476.713C343.288 479.853 342.508 482.814 341.135 485.408C341.047 485.576 340.953 485.741 340.855 485.906C339.227 488.778 336.866 491.167 334.013 492.827C331.16 494.488 327.917 495.362 324.616 495.359C314.301 495.359 305.94 487.011 305.94 476.713C305.94 468.955 310.684 462.305 317.439 459.502C317.506 459.468 317.581 459.441 317.651 459.414C319.865 458.524 322.23 458.068 324.616 458.07C334.93 458.07 343.288 466.418 343.288 476.713Z" fill="white" stroke="#2E2445" stroke-width="2"/>
<path d="M458.79 403.044C458.79 403.044 473.069 434.808 441.164 469.334H514.803L504.812 393.746L458.79 403.044Z" fill="#4F27AA" stroke="#2E2445" stroke-width="2"/>
<path d="M603.14 480.934C603.14 482.265 602.594 483.474 601.713 484.353C601.264 484.803 600.731 485.16 600.144 485.404C599.557 485.647 598.928 485.773 598.292 485.772H480.776C478.11 485.772 475.93 483.595 475.93 480.934L477.489 404.193L517.061 401.775C569.774 401.775 603.14 428.304 603.14 480.934ZM361.062 318.91C361.062 320.099 360.954 321.261 360.742 322.39C359.105 331.179 351.379 337.832 342.103 337.832V299.984C352.573 299.984 361.062 308.456 361.062 318.91ZM392.685 321.466C392.61 321.466 391.824 321.311 391.75 321.298L370.895 315.521C370.068 315.359 369.494 314.335 369.616 313.233C369.737 312.132 370.503 311.367 371.333 311.532L392.236 315.608C393.062 315.77 393.724 317.023 393.919 318.108C394.25 319.92 393.423 321.466 392.685 321.466ZM342.293 435.415L342.811 438.62C342.823 438.697 342.749 438.75 342.677 438.72C337.034 436.037 330.864 434.648 324.616 434.654C302.775 434.654 284.761 451.343 282.693 472.624C282.47 474.938 280.547 476.713 278.222 476.713H277.982C273.663 476.713 270.34 472.883 270.984 468.621C274.318 446.529 291.06 428.762 312.651 423.894C312.719 423.877 312.783 423.845 312.837 423.8C312.892 423.756 312.936 423.7 312.967 423.636L347.053 351.829C347.105 351.719 347.167 351.615 347.238 351.517C349.035 349.05 351.182 346.858 353.611 345.01C355.183 343.815 356.944 345.586 356.04 347.341C349.036 360.934 337.805 389.049 341 425.087C341.26 427.991 341.611 430.945 342.063 433.953C342.137 434.438 342.212 434.927 342.293 435.415Z" fill="#4F27AA" stroke="#2E2445" stroke-width="2"/>
<path d="M537.491 388.05V399.45C537.488 400.404 537.107 401.318 536.431 401.992C535.756 402.667 534.841 403.046 533.887 403.048H458.79C457.836 403.045 456.922 402.666 456.246 401.992C455.571 401.318 455.19 400.404 455.186 399.45V388.05C455.189 387.096 455.57 386.182 456.246 385.508C456.921 384.834 457.836 384.454 458.79 384.453H533.887C534.841 384.454 535.756 384.833 536.431 385.507C537.107 386.181 537.488 387.096 537.491 388.05ZM524.624 363.814H583.151V315.631H524.624V363.814Z" fill="#4F27AA" stroke="#2E2445" stroke-width="2"/>
<path d="M612.413 315.633H553.885V363.816H612.413V315.633Z" fill="#4F27AA" stroke="#2E2445" stroke-width="2"/>
<path d="M612.413 347.579V363.816H553.885V315.633H564.254L612.413 347.579Z" fill="#4F27AA" stroke="#2E2445" stroke-width="2"/>
<path fill-rule="evenodd" clip-rule="evenodd" d="M426.341 460.11C426.341 460.11 432.649 472.851 427.478 476.866C422.299 480.882 408.619 488.407 408.619 488.407L444.862 486.129L436.806 458.342L426.341 460.11Z" fill="#F8AE9D"/>
<path fill-rule="evenodd" clip-rule="evenodd" d="M441.273 471.638C440.132 472.183 442.007 477.302 437.995 476.942C433.983 476.583 431.464 471.292 428.506 471.636C425.546 471.978 423.668 477.307 418.035 481.018C412.403 484.731 404.051 489.158 404.611 492.89C405.17 496.622 418.312 497.621 424.97 496.386C431.628 495.151 434.736 492.475 439.056 492.688C443.375 492.901 446.09 492.373 447.444 489.599C448.797 486.825 442.589 471.01 441.273 471.638ZM480.939 347.815C469.967 348.305 408.897 361.812 397.802 364.107C386.706 366.402 377.326 378.819 385.787 393.198C395.289 409.338 419.808 455.177 425.761 465.51C428.708 470.625 443.572 467.757 440.08 459.173C433.571 443.17 430.549 402.97 413.954 388.312C413.954 388.312 469.762 398.025 493.869 386.899C511.389 378.812 507.425 346.631 480.939 347.815Z" fill="#2E2445"/>
<path fill-rule="evenodd" clip-rule="evenodd" d="M404.394 279.325C404.394 279.325 404.518 272.802 401.395 268.136C398.272 263.47 398.148 258.514 395.785 258.676C393.421 258.838 395.762 270.358 395.762 270.358C395.762 270.358 392.763 269.212 390.608 267.763C388.454 266.314 381.921 259.17 380.395 260.436C377.806 262.593 381.976 274.761 384.246 277.193C386.524 279.627 397.767 286.426 397.767 286.426L430.878 319.783L435.829 302.075L404.394 279.325Z" fill="#F8AE9D"/>
<path fill-rule="evenodd" clip-rule="evenodd" d="M470.623 276.379C465.519 288.217 456.173 309.965 452.32 316.453C447.492 324.579 439.878 328.159 430.964 322.13C429.099 320.868 423.742 316.456 423.742 316.456C424.535 308.734 427.42 302.279 432.393 297.09L435.771 299.884C435.771 299.884 445.35 275.329 453.056 261.104C459.729 248.798 478.392 258.381 470.623 276.379ZM492.682 230.426V240.901L500.375 234.708C500.375 234.708 502.739 224.671 504.662 217.217C505.868 212.542 508.806 196.722 496.978 197.464C487.289 180.384 459.071 190.955 458.846 211.822C458.576 236.919 458.797 246.69 458.797 246.69C474.753 247.606 483.735 245.299 492.682 230.426Z" fill="#2E2445"/>
<path fill-rule="evenodd" clip-rule="evenodd" d="M500.541 250.371C500.541 250.371 493.385 248.691 493.136 236.965C492.888 225.24 493.062 221.238 493.062 221.238L477.3 220.953C477.3 220.953 477.128 234.021 477.126 238.748C477.119 250.24 468.667 251.182 468.667 251.182C468.667 251.182 470.112 260.665 484.395 261.468C495.546 262.096 500.541 250.371 500.541 250.371Z" fill="#F8AE9D"/>
<path fill-rule="evenodd" clip-rule="evenodd" d="M496.737 215.383C503.769 215.11 502.622 225.404 495.317 225.39C495.317 225.39 491.075 240.013 476.345 240.013C464.382 240.013 463.604 222.97 463.496 219.57C463.379 215.945 463.364 204.035 463.364 204.035L497.011 204.02L496.737 215.383Z" fill="#F8AE9D"/>
<path fill-rule="evenodd" clip-rule="evenodd" d="M497.281 215.316C494.367 215.796 494.721 217.726 493.928 217.557C489.905 216.702 473.618 217.83 471.521 208.874C468.911 214.469 468.274 215.845 462.528 217.347V200.951L498.87 197.465C498.87 197.465 498.306 215.146 497.281 215.316Z" fill="#2E2445"/>
<path fill-rule="evenodd" clip-rule="evenodd" d="M498.942 249.172C489.962 254.673 479.58 256.689 469.915 250.716C454.143 281.815 450.213 318.92 454.006 359.931C477.005 369.036 496.334 367.245 512.79 356.838L498.942 249.172Z" fill="#4F27AA"/>
<path fill-rule="evenodd" clip-rule="evenodd" d="M387.028 460.621C387.028 460.621 387.218 475.617 374.862 481.224C362.513 486.83 353.715 486.492 354.834 490.827C355.954 495.16 388.097 494.985 391.099 491.596C393.657 488.712 399.221 461.861 400.753 463.914L387.028 460.621Z" fill="#F8AE9D"/>
<path fill-rule="evenodd" clip-rule="evenodd" d="M396.002 481.8C394.109 480.437 392.516 488.295 387.372 486.109C382.229 483.925 386.285 476.703 383.048 475.371C379.811 474.039 373.56 481.2 365.258 482.941C356.956 484.681 350.215 486.204 348.299 489.435C346.649 492.213 348.299 493.1 348.299 493.1C348.299 493.1 356.292 497.091 361.258 497.97C368.472 499.246 389.324 500.096 391.608 497.769C393.011 496.342 396.949 482.482 396.002 481.8ZM515.318 343.18C515.318 343.18 531.269 376.869 508.852 388.437C487.172 399.625 422.27 386.393 422.27 386.393C422.27 386.393 423.43 395.73 422.27 404.058C419.241 425.808 404.836 462.044 401.788 466.597C397.573 472.894 384.734 468.145 384.492 462.902C384.251 457.659 394.171 390.7 395.68 377.931C397.181 365.161 401.919 363.306 415.758 359.816C418.938 359.014 456.536 349.67 459.981 349.942C489.576 352.282 515.318 343.18 515.318 343.18Z" fill="#2E2445"/>
<path fill-rule="evenodd" clip-rule="evenodd" d="M498.55 249.195C483.677 297.917 474.757 366.991 521.208 354.974C496.533 309.543 530.077 289.096 522.474 265.616C519.874 257.588 498.744 248.566 498.55 249.195ZM470.702 250.373C465.027 264.608 462.298 275.778 459.753 296.673C457.63 314.076 458.693 349.988 458.693 349.988L451.679 351.367C451.679 351.367 446.665 295.885 448.341 288.741C451.154 276.753 453.06 269.749 456.775 258.79C458.821 252.775 470.702 250.373 470.702 250.373Z" fill="#2E2445"/>
<path fill-rule="evenodd" clip-rule="evenodd" d="M495.426 304.508C495.426 304.508 486.269 295.338 483.097 294.274C479.926 293.21 462.553 291.932 462.671 294.336C462.804 296.912 473.983 296.764 475.017 298.031C476.05 299.298 477.488 309.162 481.395 310.135C485.295 311.107 493.379 313.986 493.379 313.986L529.363 332.579L525.53 313.988L495.426 304.508Z" fill="#F8AE9D"/>
<path fill-rule="evenodd" clip-rule="evenodd" d="M522.989 265.683C533.904 281.088 543.223 304.553 546.8 313.702C550.377 322.85 546.769 336.649 531.039 333.94C529.166 333.618 526.12 332.432 526.12 332.432C520.336 324.504 519.322 317.697 521.48 311.637L523.515 312.496C523.515 312.496 507.881 284.785 504.064 277.356C497.687 264.95 513.374 252.109 522.989 265.683Z" fill="#2E2445"/>
<path d="M215.933 342.845C196.218 347.515 175.367 330.796 175.367 330.796C175.367 330.796 186.494 306.513 206.215 301.857C225.93 297.186 246.775 313.891 246.775 313.891C246.775 313.891 235.648 338.175 215.933 342.845Z" fill="url(#paint0_linear_1235_22153)"/>
<path d="M325.188 156.011C345.943 170.307 377.653 160.314 377.653 160.314C377.653 160.314 375.689 127.145 354.919 112.863C334.164 98.5669 302.469 108.546 302.469 108.546C302.469 108.546 304.432 141.715 325.188 156.011Z" fill="url(#paint1_linear_1235_22153)"/>
<path d="M645.953 201.734C633.555 214.352 610.372 211.692 610.372 211.692C610.372 211.692 607.304 188.572 619.713 175.962C632.111 163.343 655.283 165.996 655.283 165.996C655.283 165.996 658.351 189.115 645.953 201.734Z" fill="url(#paint2_linear_1235_22153)"/>
<path d="M746.247 442.522C740.364 442.522 735.595 447.291 735.595 453.174C735.595 459.057 740.364 463.826 746.247 463.826C752.13 463.826 756.899 459.057 756.899 453.174C756.899 447.291 752.13 442.522 746.247 442.522Z" fill="#4F27AA"/>
<path d="M105.035 335.135C100.618 335.135 97.037 331.554 97.037 327.137C97.037 322.719 100.618 319.139 105.035 319.139C109.452 319.139 113.033 322.719 113.033 327.137C113.033 331.554 109.452 335.135 105.035 335.135Z" fill="#4F27AA"/>
<path d="M719.02 156.973C710.588 156.973 703.752 150.138 703.752 141.705C703.752 133.273 710.588 126.438 719.02 126.438C727.452 126.438 734.288 133.273 734.288 141.705C734.288 150.138 727.452 156.973 719.02 156.973Z" fill="#4F27AA"/>
<path d="M795.275 499.259C791.744 499.259 788.881 496.635 788.881 493.398C788.881 490.161 791.744 487.537 795.275 487.537C798.806 487.537 801.669 490.161 801.669 493.398C801.669 496.635 798.806 499.259 795.275 499.259Z" fill="#E1E4E5"/>
<path d="M113.999 415.153C109.293 415.153 105.478 411.338 105.478 406.632C105.478 401.926 109.293 398.111 113.999 398.111C118.705 398.111 122.52 401.926 122.52 406.632C122.52 411.338 118.705 415.153 113.999 415.153Z" fill="#E1E4E5"/>
<path d="M311.209 302.692C308.398 302.692 306.12 300.413 306.12 297.603C306.12 294.792 308.398 292.514 311.209 292.514C314.02 292.514 316.298 294.792 316.298 297.603C316.298 300.413 314.02 302.692 311.209 302.692Z" fill="#E1E4E5"/>
<path d="M547.082 94.9815C543.066 94.9815 539.811 91.7261 539.811 87.7105C539.811 83.6948 543.066 80.4395 547.082 80.4395C551.098 80.4395 554.353 83.6948 554.353 87.7105C554.353 91.7261 551.098 94.9815 547.082 94.9815Z" fill="#E1E4E5"/>
<path d="M285.45 252.486C286.466 256.276 284.217 260.172 280.426 261.188C276.636 262.203 272.74 259.954 271.724 256.164C270.709 252.373 272.958 248.477 276.748 247.462C280.539 246.446 284.435 248.696 285.45 252.486Z" fill="#E1E4E5"/>
<path d="M252.688 151.437C247.468 151.437 243.236 147.205 243.236 141.985C243.236 136.765 247.468 132.533 252.688 132.533C257.908 132.533 262.14 136.765 262.14 141.985C262.14 147.205 257.908 151.437 252.688 151.437Z" fill="#E1E4E5"/>
<path d="M773.14 284.767C769.124 284.767 765.869 282.163 765.869 278.951C765.869 275.739 769.124 273.135 773.14 273.135C777.156 273.135 780.411 275.739 780.411 278.951C780.411 282.163 777.156 284.767 773.14 284.767Z" fill="#E1E4E5"/>
<path d="M710.196 406.089C712.31 413.977 707.629 422.085 699.741 424.198C691.853 426.312 683.746 421.631 681.632 413.743C679.518 405.855 684.199 397.748 692.087 395.634C699.975 393.521 708.083 398.201 710.196 406.089Z" fill="#E1E4E5"/>
<path d="M679.11 238.144H679.3C680.426 254.102 692.294 254.348 692.294 254.348C692.294 254.348 679.207 254.603 679.207 273.043C679.207 254.603 666.12 254.348 666.12 254.348C666.12 254.348 677.983 254.102 679.11 238.144ZM423.941 80.4395H424.127C425.227 96.6745 436.818 96.9245 436.818 96.9245C436.818 96.9245 424.036 97.1845 424.036 115.944C424.036 97.1845 411.255 96.9245 411.255 96.9245C411.255 96.9245 422.841 96.6745 423.941 80.4395Z" fill="#E1E4E5"/>
</g>
<defs>
<linearGradient id="paint0_linear_1235_22153" x1="141.692" y1="354.457" x2="314.276" y2="272.924" gradientUnits="userSpaceOnUse">
<stop stop-color="white"/>
<stop offset="1" stop-color="#EEEEEE"/>
</linearGradient>
<linearGradient id="paint1_linear_1235_22153" x1="406.039" y1="202.919" x2="242.657" y2="30.6358" gradientUnits="userSpaceOnUse">
<stop stop-color="white"/>
<stop offset="1" stop-color="#EEEEEE"/>
</linearGradient>
<linearGradient id="paint2_linear_1235_22153" x1="596.488" y1="244.835" x2="686.117" y2="104.334" gradientUnits="userSpaceOnUse">
<stop stop-color="white"/>
<stop offset="1" stop-color="#EEEEEE"/>
</linearGradient>
<clipPath id="clip0_1235_22153">
<rect width="900" height="600" fill="white"/>
</clipPath>
</defs>
</svg>
