<svg width="900" height="600" viewBox="0 0 900 600" fill="none" xmlns="http://www.w3.org/2000/svg">
<g clip-path="url(#clip0_1235_22268)">
<path d="M516.943 366.948C518.542 396.416 460.931 456.335 389.921 434.157C356.895 423.841 359.693 406.72 334.58 384.155C319.611 370.706 298.104 360.536 292.122 340.987C286.955 324.113 290.124 305.976 299.083 294.179C319.231 267.649 359.906 249.482 399.985 291.283C440.063 333.084 512.81 290.95 516.943 366.948Z" fill="url(#paint0_linear_1235_22268)"/>
<path d="M489.252 265.025C483.175 275.872 469.864 277.363 448.539 275.301C432.501 273.748 417.875 272.547 401.836 263.802C390.61 257.685 381.723 249.41 375.237 241.373C368.209 232.666 358.399 222.729 363.208 212.856C369.817 199.295 408.036 187.873 445.149 206.551C485.917 227.075 495.198 254.424 489.252 265.025Z" fill="url(#paint1_linear_1235_22268)"/>
<path d="M564.972 524.994C543.521 535.635 515.051 521.953 515.051 521.953C515.051 521.953 521.378 491.025 542.84 480.399C564.291 469.758 592.75 483.425 592.75 483.425C592.75 483.425 586.422 514.353 564.972 524.994Z" fill="url(#paint2_linear_1235_22268)"/>
<path d="M205.858 401.808C223.711 412.508 249.323 402.617 249.323 402.617C249.323 402.617 245.974 375.382 228.111 364.695C210.259 353.995 184.657 363.874 184.657 363.874C184.657 363.874 188.006 391.109 205.858 401.808Z" fill="url(#paint3_linear_1235_22268)"/>
<path d="M772.641 99.1387C768.499 99.1387 765.142 102.496 765.142 106.638C765.142 110.779 768.499 114.137 772.641 114.137C776.783 114.137 780.14 110.779 780.14 106.638C780.14 102.496 776.783 99.1387 772.641 99.1387Z" fill="#4F27AA"/>
<path d="M309.083 209.484C301.806 209.484 295.906 215.383 295.906 222.661C295.906 229.938 301.806 235.838 309.083 235.838C316.36 235.838 322.26 229.938 322.26 222.661C322.26 215.383 316.36 209.484 309.083 209.484Z" fill="#4F27AA"/>
<path d="M147.261 341.788C141.197 341.788 136.281 336.872 136.281 330.808C136.281 324.744 141.197 319.828 147.261 319.828C153.325 319.828 158.241 324.744 158.241 330.808C158.241 336.872 153.325 341.788 147.261 341.788Z" fill="#4F27AA"/>
<path d="M772.408 445.777C769.578 445.777 767.284 443.483 767.284 440.653C767.284 437.823 769.578 435.529 772.408 435.529C775.238 435.529 777.532 437.823 777.532 440.653C777.532 443.483 775.238 445.777 772.408 445.777Z" fill="#4F27AA"/>
<path d="M709.593 426.209C705.955 426.209 703.005 423.26 703.005 419.621C703.005 415.983 705.955 413.033 709.593 413.033C713.231 413.033 716.181 415.983 716.181 419.621C716.181 423.26 713.231 426.209 709.593 426.209Z" fill="#E1E4E5"/>
<path d="M146.868 445.993C141.612 445.993 137.352 441.732 137.352 436.477C137.352 431.221 141.612 426.961 146.868 426.961C152.124 426.961 156.384 431.221 156.384 436.477C156.384 441.732 152.124 445.993 146.868 445.993Z" fill="#E1E4E5"/>
<path d="M345.723 134.491C341.877 134.491 338.759 131.373 338.759 127.527C338.759 123.68 341.877 120.562 345.723 120.562C349.569 120.562 352.687 123.68 352.687 127.527C352.687 131.373 349.569 134.491 345.723 134.491Z" fill="#E1E4E5"/>
<path d="M681.061 130.241C676.614 130.241 673.009 126.636 673.009 122.189C673.009 117.742 676.614 114.137 681.061 114.137C685.508 114.137 689.113 117.742 689.113 122.189C689.113 126.636 685.508 130.241 681.061 130.241Z" fill="#E1E4E5"/>
<path d="M247.467 319.314C248.501 323.171 246.212 327.136 242.354 328.17C238.497 329.204 234.532 326.914 233.498 323.057C232.464 319.199 234.754 315.234 238.611 314.201C242.469 313.167 246.434 315.456 247.467 319.314Z" fill="#E1E4E5"/>
<path d="M380.985 87.6775C375.672 87.6775 371.365 83.3705 371.365 78.0575C371.365 72.7445 375.672 68.4375 380.985 68.4375C386.298 68.4375 390.605 72.7445 390.605 78.0575C390.605 83.3705 386.298 87.6775 380.985 87.6775Z" fill="#E1E4E5"/>
<path d="M755.4 509.506C751.313 509.506 748 506.856 748 503.586C748 500.316 751.313 497.666 755.4 497.666C759.487 497.666 762.8 500.316 762.8 503.586C762.8 506.856 759.487 509.506 755.4 509.506Z" fill="#E1E4E5"/>
<path d="M627.114 82.6038C628.313 87.0807 625.656 91.6823 621.18 92.8819C616.703 94.0815 612.101 91.4247 610.902 86.9478C609.702 82.471 612.359 77.8694 616.836 76.6698C621.312 75.4702 625.914 78.127 627.114 82.6038Z" fill="#E1E4E5"/>
<path d="M798.716 314.472H798.91C800.056 330.713 812.135 330.963 812.135 330.963C812.135 330.963 798.815 331.223 798.815 349.99C798.815 331.223 785.496 330.963 785.496 330.963C785.496 330.963 797.57 330.713 798.716 314.472ZM309.238 72.3555H309.355C310.046 82.6425 317.333 82.8015 317.333 82.8015C317.333 82.8015 309.298 82.9655 309.298 94.8525C309.298 82.9655 301.263 82.8015 301.263 82.8015C301.263 82.8015 308.546 82.6425 309.238 72.3555ZM197.821 213.768H197.938C198.629 224.056 205.916 224.214 205.916 224.214C205.916 224.214 197.881 224.379 197.881 236.266C197.881 224.379 189.846 224.214 189.846 224.214C189.846 224.214 197.13 224.056 197.821 213.768Z" fill="#E1E4E5"/>
<path d="M121.282 484.81H424.464V523.377H121.282V484.81ZM202.702 446.243H505.884V484.81H202.702V446.243ZM284.122 407.676H587.304V446.243H284.122V407.676ZM365.541 369.109H668.723V407.676H365.541V369.109ZM446.961 330.541H750.143V369.108H446.961V330.541Z" fill="white" stroke="#E1E4E5" stroke-width="4"/>
<path d="M417.854 141.588C417.349 143.607 418.019 145.705 419.123 147.469C419.904 148.714 420.996 147.339 422.587 147.118C425.048 146.773 426.607 144.169 427.14 137.821C427.386 133.184 427.27 130.87 427.012 130.465C426.092 129.016 423.727 128.532 421.863 128.672" fill="#2E2445"/>
<path fill-rule="evenodd" clip-rule="evenodd" d="M422.323 417.499C422.323 417.499 422.173 427.033 428.058 430.419C433.941 433.805 443.057 440.098 443.057 440.098L408.379 441.267L409.368 417.414L422.323 417.499Z" fill="#F8AE9D"/>
<path fill-rule="evenodd" clip-rule="evenodd" d="M407.169 428.005L406.605 443.471H414.659L415.211 441.478C415.211 441.478 418.244 441.354 419.996 442.215C421.849 443.125 422.098 443.567 422.098 443.567L447.647 443.62C447.647 443.62 448.908 438.622 441.119 435.006C433.331 431.39 427.661 426.257 426.583 425.732C425.498 425.203 423.309 424.904 421.768 426.148C420.226 427.39 419.007 430.659 415.514 430.761C411.018 430.893 408.435 425.39 407.169 428.005ZM397.21 261.914C397.21 261.914 406.675 342.227 406.969 347.81C407.264 353.393 403.929 363.028 403.994 373.471C404.059 383.914 405.212 420.72 405.212 420.72L426.091 421.06C426.091 421.06 434.866 354.549 434.961 344.576C435.055 334.602 435.86 262.874 435.86 262.874L397.21 261.914Z" fill="#2E2445"/>
<path fill-rule="evenodd" clip-rule="evenodd" d="M371.674 415.824L367.605 440.535L382.606 440.46L383.08 415.438L371.674 415.824Z" fill="#F8AE9D"/>
<path fill-rule="evenodd" clip-rule="evenodd" d="M369.848 426.559C369.195 426.701 368.608 427.057 368.181 427.57C367.753 428.083 367.509 428.724 367.487 429.392L367.358 433.289C365.229 435.657 364.227 442.511 364.127 443.228C364.12 443.27 364.119 443.313 364.122 443.355C364.406 446.709 386.346 446.661 388.315 443.499C388.398 443.367 388.403 443.212 388.378 443.058C388.158 441.716 386.939 434.915 384.582 433.066L384.568 429.207C384.565 428.549 384.346 427.91 383.945 427.389C383.544 426.867 382.982 426.492 382.347 426.321L379.886 425.659C377.693 422.453 374.704 422.566 372.144 426.06L369.848 426.559ZM379.039 262.671C379.039 262.671 372.354 317.465 372.445 327.959C372.536 338.452 374.502 343.061 371.704 350.588C368.904 358.116 366.518 418.2 366.518 418.2L387.214 419.924C387.214 419.924 400.436 355.63 401.874 346.717C403.312 337.803 421.082 261.914 421.082 261.914L379.039 262.671Z" fill="#2E2445"/>
<path fill-rule="evenodd" clip-rule="evenodd" d="M482.241 164.15C482.241 164.15 480.512 154.52 481.134 152.569C481.665 150.884 486.681 148.454 486.681 148.454C486.681 148.454 495.405 134.672 497.315 136.075C498.868 137.213 492.771 147.373 492.771 147.373C492.771 147.373 498.331 153.206 498.253 155.813C498.175 158.421 489.179 166.583 489.179 166.583L482.241 164.15ZM392.57 166.412C392.57 166.412 398.316 165.063 398.516 155.648C398.715 146.233 398.575 143.02 398.575 143.02L412.197 142.791C412.197 142.791 412.335 153.284 412.337 157.079C412.343 165.342 418.479 167.574 418.479 167.574C418.479 167.574 417.969 176.609 406.5 177.254C397.546 177.758 392.57 166.412 392.57 166.412Z" fill="#F8AE9D"/>
<path fill-rule="evenodd" clip-rule="evenodd" d="M397.324 138.261C391.678 138.043 392.599 146.308 398.464 146.297C398.464 146.297 404.767 158.971 414.664 159.004C419.431 159.02 420.987 154.774 422.416 151.793C423.845 148.812 424.894 144.354 424.981 141.624C425.075 138.713 425.087 129.15 425.087 129.15L397.104 129.137L397.324 138.261Z" fill="#F8AE9D"/>
<path fill-rule="evenodd" clip-rule="evenodd" d="M418.693 167.015C418.693 167.015 433.368 171.596 436.905 177.068C448.297 187.076 462.545 200.82 462.545 200.82C462.545 200.82 476.115 166.762 480.552 162.879C483.587 160.222 489.635 163.508 490.762 166.884C492.209 171.22 482.915 196.656 478.525 208.669V208.671C477.884 210.405 477.256 212.145 476.64 213.889C473.964 221.654 467.451 226.108 459.526 221.172C456.331 219.183 446.824 212.664 438.713 206.754C438.586 212.962 438.373 219.505 438.17 225.719C437.677 240.816 437.247 253.971 438.279 255.681C443.395 264.153 436.593 269.97 414.074 272.107C391.554 274.244 371.575 272.494 375.201 261.187C375.957 258.83 375.947 253.759 375.57 247.17C373.364 247.052 371.159 246.907 368.957 246.734C359.558 245.994 352.608 241.956 351.638 231.467C350.959 224.123 364.951 189.643 370.198 178.305C371.425 175.653 373.323 174.001 375.473 173.178C375.974 172.619 376.537 172.227 377.171 172.018C381.025 170.748 394.843 164.942 394.843 164.942L411.282 175.698L418.693 167.015ZM374.048 227.709L374.011 227.805L374.056 227.811C374.053 227.777 374.05 227.743 374.048 227.709Z" fill="#4F27AA"/>
<path fill-rule="evenodd" clip-rule="evenodd" d="M410.523 236.807C410.523 236.807 415.536 235.799 417.589 234.188C419.64 232.577 425.854 231.439 425.854 231.439L423.866 235.625C423.866 235.625 439.097 234.196 439.457 235.698C439.818 237.201 435.413 238.834 435.413 238.834C435.413 238.834 433.241 242.892 431.138 245.244C429.148 247.47 419.262 247.205 415.796 245.816C412.802 244.616 409.546 245.216 409.546 245.216L410.523 236.807Z" fill="#F8AE9D"/>
<path d="M398.86 129.527C399.685 130.607 401.139 130.845 402.338 131.059C403.948 131.345 404.745 131.943 405.581 133.548C406.111 134.573 406.64 135.696 407.588 136.251C408.36 136.705 408.336 135.556 408.45 134.667C408.462 134.584 408.478 134.502 408.499 134.421C408.683 133.711 409.437 133.83 409.656 134.53C409.856 135.165 410.285 135.702 410.832 136.001C410.921 136.05 411.016 136.092 411.11 136.074C411.238 136.056 411.339 135.934 411.422 135.824C411.613 135.56 411.789 135.284 411.947 134.999C412.537 133.985 413.662 134.341 414.321 135.311C414.733 135.915 415.224 136.538 415.898 136.678C416.115 136.727 416.388 136.69 416.489 136.477C416.617 136.214 416.416 135.952 416.45 135.684C416.478 135.433 416.583 135.324 416.701 135.11C417.157 134.286 418.215 134.256 418.86 134.943C419.309 135.422 419.777 135.88 420.262 136.318C420.468 136.501 420.769 136.684 420.975 136.501C421.087 136.404 421.115 136.239 421.137 136.08C421.254 135.305 421.366 134.53 421.483 133.756C421.549 133.322 421.778 132.755 422.168 132.865C422.358 132.92 422.469 133.121 422.575 133.304C422.703 133.536 424.994 136.178 425.039 135.976C425.395 134.476 426.125 133.109 426.482 131.608C428.789 121.949 418.551 114.182 410.731 114.139C408.992 114.127 407.404 114.156 405.715 114.565C403.915 115.004 402.014 115.701 400.381 116.684C398.091 118.056 396.357 120.552 396.803 123.529" fill="#2E2445"/>
<path d="M405.219 126.404C406.321 127.665 406.613 129.44 406.716 131.116C406.867 133.644 406.662 136.27 405.505 138.514C405.175 139.152 404.932 142.313 404.424 142.139C404.262 142.084 404.289 139.633 403.862 138.312C403.203 136.264 400.165 135.483 398.797 136.777C396.614 138.836 397.895 141.336 398.619 142.892C399.051 143.831 399.738 144.885 399.857 145.879C400.003 147.151 400.046 151.786 399.224 152.867C398.538 153.773 397.808 149.395 397.187 148.532C392.587 142.106 388.176 125.743 396.03 122.195C397.224 121.654 400.911 121.376 402.03 122.064" fill="#2E2445"/>
<path fill-rule="evenodd" clip-rule="evenodd" d="M223.406 264.985H284.97C290.474 264.985 292.845 257.843 288.341 254.675L288.15 254.541C281.737 250.124 273.321 250.525 273.321 250.525C273.321 250.525 272.119 226.625 249.474 226.625C229.001 226.625 220.837 246.762 217.892 257.857C216.935 261.461 219.684 264.985 223.406 264.985ZM668.001 100.002H729.564C735.069 100.002 737.44 92.8596 732.936 89.6916C732.873 89.6463 732.809 89.6016 732.745 89.5576C726.332 85.1406 717.916 85.5426 717.916 85.5426C717.916 85.5426 716.714 61.6426 694.069 61.6426C673.596 61.6426 665.431 81.7796 662.487 92.8736C661.53 96.4786 664.279 100.002 668.001 100.002ZM107.704 266.056H169.268C174.772 266.056 177.143 258.914 172.639 255.746C172.576 255.7 172.513 255.655 172.449 255.612C166.035 251.195 157.619 251.596 157.619 251.596C157.619 251.596 156.418 227.696 133.773 227.696C113.299 227.696 105.135 247.833 102.19 258.928C101.233 262.532 103.982 266.056 107.704 266.056ZM151.678 189.129H92.034C87.206 189.129 85.124 182.946 89.076 180.202L89.244 180.087C94.871 176.262 102.256 176.609 102.256 176.609C102.256 176.609 103.311 155.918 123.18 155.918C133.003 155.918 140.942 172.524 140.942 172.524C140.942 172.524 154.306 172.524 156.517 182.957C157.186 186.118 154.944 189.129 151.678 189.129ZM782.385 166.756H708.196C702.19 166.756 699.599 159.153 704.516 155.78L704.724 155.638C711.724 150.935 720.91 151.362 720.91 151.362C720.91 151.362 722.222 125.922 746.937 125.922C759.156 125.922 769.032 146.339 769.032 146.339C769.032 146.339 785.654 146.339 788.405 159.167C789.237 163.053 786.449 166.756 782.385 166.756ZM662.398 163.542H588.209C582.203 163.542 579.612 155.939 584.529 152.566L584.737 152.424C591.737 147.721 600.923 148.148 600.923 148.148C600.923 148.148 602.235 122.708 626.95 122.708C639.169 122.708 649.045 143.125 649.045 143.125C649.045 143.125 665.667 143.125 668.418 155.953C669.25 159.839 666.462 163.542 662.398 163.542Z" fill="white" stroke="#E1E4E5" stroke-width="4"/>
<path d="M551.347 122.605L532.868 127.705C514.497 132.776 495.495 121.994 490.424 103.624C485.354 85.2541 496.135 66.2511 514.506 61.1801C532.876 56.1101 551.879 66.8911 556.949 85.2621L558.48 90.8051C559.888 95.9081 556.893 101.187 551.79 102.595C546.687 104.004 541.409 101.009 540 95.9061L538.47 90.3621C536.217 82.1981 527.771 77.4061 519.606 79.6591C511.442 81.9131 506.65 90.3591 508.903 98.5231C511.157 106.688 519.603 111.48 527.767 109.226C535.932 106.973 540.724 98.5261 538.47 90.3621" stroke="#E1E4E5" stroke-width="4" stroke-linecap="round" stroke-linejoin="round"/>
<path fill-rule="evenodd" clip-rule="evenodd" d="M194.206 190.199H334.197C347.338 190.199 346.735 179.399 342.443 175.635C338.043 171.778 329.351 173.342 329.351 173.342C329.351 173.342 326.763 166.077 318.244 162.541C310.709 159.412 302.815 160.901 302.815 160.901C302.815 160.901 302.815 155.915 297.991 151.785C293.166 147.656 286.733 148.057 286.733 148.057C286.733 148.057 282.311 120.564 252.76 120.564C223.21 120.564 219.792 146.451 219.792 146.451C219.792 146.451 213.158 146.451 208.334 150.867C203.509 155.282 202.906 160.298 202.906 160.298C202.906 160.298 186.771 158.128 181.999 172.022C179.155 180.304 184.998 190.199 194.206 190.199Z" fill="white" stroke="#E1E4E5" stroke-width="4"/>
<path d="M537.311 207.47L525.271 219.498L519.421 213.666M563.398 201.713H598.983M563.676 219.367H622.524M537.311 248.663L525.271 260.692L519.421 254.86M563.398 242.907H598.983M563.676 260.562H622.524M622.523 301.754H563.398M622.524 284.1H563.676" stroke="#E1E4E5" stroke-width="5.5" stroke-linecap="round" stroke-linejoin="round"/>
<path d="M528.366 307.64C534.866 307.64 540.136 302.37 540.136 295.87C540.136 289.37 534.866 284.1 528.366 284.1C521.866 284.1 516.596 289.37 516.596 295.87C516.596 302.37 521.866 307.64 528.366 307.64Z" stroke="#E1E4E5" stroke-width="5.5" stroke-linecap="round" stroke-linejoin="round"/>
<path d="M689.438 207.47L677.397 219.498L671.548 213.666M715.525 201.713H751.11M715.802 219.367H774.65M689.438 248.663L677.397 260.692L671.548 254.86M715.525 242.907H751.11M715.802 260.562H774.65M774.649 301.754H715.525M774.65 284.1H715.802" stroke="#E1E4E5" stroke-width="5.5" stroke-linecap="round" stroke-linejoin="round"/>
<path d="M680.492 307.64C686.993 307.64 692.262 302.37 692.262 295.87C692.262 289.37 686.993 284.1 680.492 284.1C673.992 284.1 668.723 289.37 668.723 295.87C668.723 302.37 673.992 307.64 680.492 307.64Z" stroke="#E1E4E5" stroke-width="5.5" stroke-linecap="round" stroke-linejoin="round"/>
<path fill-rule="evenodd" clip-rule="evenodd" d="M634.91 491.645H638.439C639.292 491.645 639.979 492.339 639.979 493.185V496.714C639.979 497.567 639.285 498.254 638.439 498.254H634.91C634.064 498.254 633.37 497.56 633.37 496.714V493.185C633.369 492.982 633.409 492.782 633.486 492.595C633.563 492.407 633.677 492.238 633.82 492.094C633.963 491.951 634.133 491.838 634.32 491.761C634.507 491.683 634.708 491.644 634.91 491.645ZM647.145 491.645H650.674C651.52 491.645 652.215 492.339 652.215 493.185V496.714C652.215 497.567 651.52 498.254 650.674 498.254H647.145C646.299 498.254 645.605 497.56 645.605 496.714V493.185C645.605 492.339 646.299 491.645 647.145 491.645ZM659.389 491.645H662.918C663.764 491.645 664.458 492.339 664.458 493.185V496.714C664.458 497.567 663.764 498.254 662.918 498.254H659.389C658.981 498.252 658.59 498.089 658.301 497.801C658.013 497.512 657.85 497.122 657.848 496.714V493.185C657.848 492.982 657.887 492.782 657.965 492.595C658.042 492.407 658.155 492.237 658.299 492.094C658.442 491.951 658.612 491.838 658.799 491.761C658.986 491.683 659.187 491.644 659.389 491.645ZM671.624 491.645H675.153C675.999 491.645 676.693 492.339 676.693 493.185V496.714C676.693 497.567 675.999 498.254 675.153 498.254H671.624C671.215 498.254 670.822 498.092 670.532 497.803C670.242 497.514 670.078 497.123 670.076 496.714V493.185C670.081 492.776 670.246 492.386 670.535 492.098C670.825 491.81 671.216 491.647 671.624 491.645ZM683.86 491.645H687.389C688.243 491.645 688.937 492.339 688.937 493.185V496.714C688.937 497.567 688.243 498.254 687.389 498.254H683.86C683.014 498.254 682.32 497.56 682.32 496.714V493.185C682.32 492.339 683.014 491.645 683.86 491.645ZM647.594 504.987H651.123C651.969 504.987 652.663 505.681 652.663 506.527V510.063C652.663 510.91 651.969 511.604 651.123 511.604H647.594C646.741 511.604 646.054 510.91 646.054 510.063V506.534C646.053 506.331 646.092 506.13 646.169 505.942C646.246 505.754 646.359 505.583 646.502 505.439C646.645 505.296 646.815 505.182 647.003 505.104C647.19 505.026 647.391 504.986 647.594 504.987ZM659.829 504.987H663.358C664.204 504.987 664.899 505.681 664.899 506.527V510.063C664.899 510.91 664.204 511.604 663.358 511.604H659.829C658.983 511.604 658.289 510.91 658.289 510.063V506.534C658.288 506.331 658.327 506.13 658.404 505.942C658.481 505.754 658.594 505.583 658.737 505.439C658.88 505.296 659.05 505.182 659.238 505.104C659.425 505.026 659.626 504.986 659.829 504.987ZM672.065 504.987H675.594C676.448 504.987 677.142 505.681 677.142 506.527V510.063C677.142 510.91 676.448 511.604 675.594 511.604H672.065C671.219 511.604 670.525 510.91 670.525 510.063V506.534C670.525 505.681 671.219 504.987 672.065 504.987ZM659.389 477.311H662.918C663.764 477.311 664.458 478.005 664.458 478.852V482.381C664.458 483.234 663.764 483.921 662.918 483.921H659.389C658.981 483.919 658.59 483.756 658.301 483.468C658.013 483.179 657.85 482.789 657.848 482.381V478.852C657.847 478.649 657.887 478.448 657.964 478.261C658.041 478.074 658.155 477.904 658.298 477.761C658.441 477.618 658.611 477.504 658.799 477.427C658.986 477.35 659.186 477.31 659.389 477.311ZM671.624 477.311H675.153C675.999 477.311 676.693 478.005 676.693 478.852V482.381C676.693 483.234 675.999 483.921 675.153 483.921H671.624C671.215 483.921 670.822 483.759 670.532 483.47C670.242 483.181 670.078 482.79 670.076 482.381V478.852C670.08 478.443 670.245 478.053 670.535 477.764C670.824 477.476 671.215 477.313 671.624 477.311Z" fill="#E1E4E5"/>
</g>
<defs>
<linearGradient id="paint0_linear_1235_22268" x1="448.086" y1="543.581" x2="340.321" y2="57.3825" gradientUnits="userSpaceOnUse">
<stop stop-color="white"/>
<stop offset="1" stop-color="#EEEEEE"/>
</linearGradient>
<linearGradient id="paint1_linear_1235_22268" x1="448.308" y1="335.324" x2="394.136" y2="91.8946" gradientUnits="userSpaceOnUse">
<stop stop-color="white"/>
<stop offset="1" stop-color="#EEEEEE"/>
</linearGradient>
<linearGradient id="paint2_linear_1235_22268" x1="482.599" y1="558.185" x2="659.524" y2="418.236" gradientUnits="userSpaceOnUse">
<stop stop-color="white"/>
<stop offset="1" stop-color="#EEEEEE"/>
</linearGradient>
<linearGradient id="paint3_linear_1235_22268" x1="274.943" y1="436.25" x2="131.295" y2="302.783" gradientUnits="userSpaceOnUse">
<stop stop-color="white"/>
<stop offset="1" stop-color="#EEEEEE"/>
</linearGradient>
<clipPath id="clip0_1235_22268">
<rect width="900" height="600" fill="white"/>
</clipPath>
</defs>
</svg>
