<svg width="900" height="600" viewBox="0 0 900 600" fill="none" xmlns="http://www.w3.org/2000/svg">
<g clip-path="url(#clip0_1235_22307)">
<path fill-rule="evenodd" clip-rule="evenodd" d="M296.342 307.313C274.991 307.313 257.697 290.02 257.697 268.668C257.697 247.317 274.991 230.023 296.342 230.023C317.694 230.023 334.987 247.317 334.987 268.668C334.987 290.02 317.694 307.313 296.342 307.313ZM431.601 307.313C410.249 307.313 392.956 290.02 392.956 268.668C392.956 247.317 410.249 230.023 431.601 230.023C452.953 230.023 470.246 247.317 470.246 268.668C470.246 290.02 452.953 307.313 431.601 307.313ZM566.86 307.313C545.508 307.313 528.214 290.02 528.214 268.668C528.214 247.317 545.508 230.023 566.86 230.023C588.211 230.023 605.505 247.317 605.505 268.668C605.505 290.02 588.211 307.313 566.86 307.313ZM296.342 442.572C274.991 442.572 257.697 425.279 257.697 403.927C257.697 382.576 274.991 365.282 296.342 365.282C317.694 365.282 334.987 382.576 334.987 403.927C334.987 425.279 317.694 442.572 296.342 442.572ZM431.601 442.572C410.249 442.572 392.956 425.279 392.956 403.927C392.956 382.576 410.249 365.282 431.601 365.282C452.953 365.282 470.246 382.576 470.246 403.927C470.246 425.279 452.953 442.572 431.601 442.572ZM566.86 442.572C545.508 442.572 528.214 425.279 528.214 403.927C528.214 382.576 545.508 365.282 566.86 365.282C588.211 365.282 605.505 382.576 605.505 403.927C605.505 425.279 588.211 442.572 566.86 442.572ZM296.342 172.055C274.991 172.055 257.697 154.761 257.697 133.409C257.697 112.058 274.991 94.7637 296.342 94.7637C317.694 94.7637 334.988 112.058 334.988 133.409C334.988 154.761 317.694 172.055 296.342 172.055ZM431.601 172.055C410.249 172.055 392.956 154.761 392.956 133.409C392.956 112.058 410.249 94.7637 431.601 94.7637C452.953 94.7637 470.246 112.058 470.246 133.409C470.246 154.761 452.953 172.055 431.601 172.055ZM566.86 172.055C545.508 172.055 528.214 154.761 528.214 133.409C528.214 112.058 545.508 94.7637 566.86 94.7637C588.211 94.7637 605.505 112.058 605.505 133.409C605.505 154.761 588.211 172.055 566.86 172.055Z" fill="white" stroke="#E1E4E5" stroke-width="4"/>
<path fill-rule="evenodd" clip-rule="evenodd" d="M412.942 287.335C393.852 268.247 379.461 246.874 369.9 225.191C367.876 220.606 369.067 215.239 372.608 211.698L385.971 198.352C396.919 187.405 396.919 171.922 387.358 162.361L368.203 143.207C355.46 130.465 334.803 130.465 322.06 143.207L311.422 153.844C299.332 165.934 294.29 183.375 297.554 200.669C305.614 243.301 330.382 289.978 370.34 329.934C410.298 369.89 456.979 394.657 499.613 402.717C516.908 405.98 534.35 400.938 546.441 388.849L557.063 378.227C569.805 365.485 569.805 344.83 557.063 332.088L537.924 312.95C528.362 303.39 512.862 303.39 503.317 312.95L488.583 327.699C485.043 331.24 479.675 332.431 475.09 330.408C453.406 320.83 432.032 306.424 412.942 287.335Z" fill="#4F27AA"/>
<path fill-rule="evenodd" clip-rule="evenodd" d="M667.009 440.468H671.81C672.971 440.468 673.905 441.412 673.905 442.563V447.364C673.905 447.919 673.684 448.452 673.291 448.845C672.898 449.238 672.366 449.459 671.81 449.459H667.009C666.454 449.457 665.922 449.235 665.53 448.843C665.138 448.45 664.916 447.919 664.914 447.364V442.563C664.913 442.287 664.967 442.015 665.072 441.76C665.177 441.506 665.332 441.275 665.526 441.08C665.721 440.885 665.952 440.731 666.207 440.626C666.461 440.521 666.734 440.467 667.009 440.468ZM683.654 440.468H688.454C689.605 440.468 690.55 441.412 690.55 442.563V447.364C690.549 447.919 690.328 448.452 689.935 448.845C689.542 449.238 689.01 449.459 688.454 449.459H683.654C683.099 449.457 682.567 449.235 682.175 448.843C681.782 448.45 681.56 447.919 681.558 447.364V442.563C681.558 441.412 682.503 440.468 683.654 440.468ZM700.309 440.468H705.11C706.261 440.468 707.206 441.412 707.206 442.563V447.364C707.206 447.919 706.984 448.452 706.591 448.845C706.198 449.238 705.666 449.459 705.11 449.459H700.309C699.754 449.457 699.222 449.235 698.83 448.843C698.438 448.45 698.216 447.919 698.214 447.364V442.563C698.213 442.287 698.267 442.015 698.372 441.76C698.477 441.506 698.632 441.275 698.826 441.08C699.021 440.885 699.252 440.731 699.507 440.626C699.761 440.521 700.034 440.467 700.309 440.468ZM716.954 440.468H721.755C722.906 440.468 723.85 441.412 723.85 442.563V447.364C723.85 447.919 723.629 448.452 723.236 448.845C722.843 449.238 722.311 449.459 721.755 449.459H716.954C716.397 449.459 715.864 449.238 715.469 448.846C715.075 448.453 714.852 447.92 714.849 447.364V442.563C714.855 442.007 715.079 441.476 715.473 441.084C715.866 440.692 716.398 440.471 716.954 440.468ZM733.6 440.468H738.401C739.562 440.468 740.506 441.412 740.506 442.563V447.364C740.506 447.64 740.451 447.913 740.345 448.167C740.239 448.422 740.084 448.653 739.888 448.848C739.693 449.042 739.461 449.197 739.205 449.301C738.95 449.406 738.677 449.46 738.401 449.459H733.6C733.045 449.457 732.513 449.235 732.121 448.843C731.728 448.45 731.506 447.919 731.504 447.364V442.563C731.504 441.412 732.449 440.468 733.6 440.468ZM684.264 458.618H689.065C690.216 458.618 691.16 459.563 691.16 460.714V465.524C691.158 466.079 690.937 466.611 690.544 467.003C690.152 467.396 689.62 467.617 689.065 467.62H684.264C683.708 467.619 683.176 467.398 682.783 467.005C682.39 466.612 682.169 466.079 682.169 465.524V460.724C682.167 460.448 682.22 460.174 682.325 459.918C682.429 459.663 682.583 459.43 682.778 459.235C682.973 459.039 683.204 458.884 683.459 458.778C683.714 458.672 683.988 458.618 684.264 458.618ZM700.909 458.618H705.709C706.86 458.618 707.805 459.563 707.805 460.714V465.524C707.803 466.079 707.581 466.611 707.189 467.004C706.796 467.396 706.264 467.618 705.709 467.62H700.909C700.354 467.618 699.822 467.396 699.429 467.004C699.037 466.611 698.815 466.079 698.813 465.524V460.724C698.811 460.448 698.865 460.174 698.969 459.918C699.074 459.663 699.228 459.43 699.423 459.235C699.618 459.039 699.849 458.884 700.104 458.778C700.359 458.672 700.633 458.618 700.909 458.618ZM717.555 458.618H722.355C723.516 458.618 724.461 459.563 724.461 460.714V465.524C724.458 466.08 724.235 466.613 723.84 467.006C723.446 467.399 722.912 467.62 722.355 467.62H717.555C717 467.618 716.468 467.396 716.075 467.004C715.683 466.611 715.461 466.079 715.459 465.524V460.724C715.459 459.563 716.404 458.618 717.555 458.618ZM700.309 420.969H705.11C706.261 420.969 707.206 421.914 707.206 423.065V427.866C707.206 429.026 706.261 429.961 705.11 429.961H700.309C699.754 429.959 699.222 429.737 698.83 429.345C698.438 428.952 698.216 428.421 698.214 427.866V423.065C698.213 422.789 698.267 422.517 698.372 422.262C698.477 422.007 698.631 421.776 698.826 421.581C699.021 421.386 699.252 421.232 699.506 421.127C699.761 421.022 700.034 420.968 700.309 420.969ZM716.954 420.969H721.755C722.906 420.969 723.85 421.914 723.85 423.065V427.866C723.85 429.026 722.906 429.961 721.755 429.961H716.954C716.397 429.961 715.864 429.74 715.469 429.348C715.075 428.955 714.852 428.422 714.849 427.866V423.065C714.855 422.509 715.079 421.978 715.473 421.586C715.866 421.194 716.398 420.972 716.954 420.969ZM153.938 478.273H158.738C159.899 478.273 160.834 479.218 160.834 480.369V485.169C160.834 485.725 160.613 486.257 160.22 486.65C159.827 487.043 159.294 487.264 158.738 487.265H153.938C153.383 487.263 152.851 487.041 152.458 486.649C152.066 486.256 151.844 485.724 151.842 485.169V480.369C151.842 480.093 151.895 479.821 152.001 479.566C152.106 479.312 152.26 479.08 152.455 478.886C152.65 478.691 152.881 478.536 153.135 478.431C153.39 478.326 153.663 478.272 153.938 478.273ZM170.582 478.273H175.383C176.534 478.273 177.478 479.218 177.478 480.369V485.169C177.478 485.724 177.257 486.257 176.864 486.65C176.471 487.043 175.939 487.264 175.383 487.265H170.582C170.027 487.262 169.495 487.041 169.103 486.648C168.711 486.256 168.489 485.724 168.487 485.169V480.369C168.487 479.218 169.431 478.273 170.582 478.273ZM187.238 478.273H192.039C193.19 478.273 194.134 479.218 194.134 480.369V485.169C194.134 485.724 193.913 486.257 193.52 486.65C193.127 487.043 192.595 487.264 192.039 487.265H187.238C186.683 487.262 186.151 487.041 185.759 486.648C185.367 486.256 185.145 485.724 185.143 485.169V480.369C185.142 480.093 185.196 479.821 185.301 479.566C185.406 479.311 185.56 479.08 185.755 478.885C185.95 478.69 186.181 478.536 186.435 478.431C186.69 478.326 186.963 478.272 187.238 478.273ZM203.883 478.273H208.683C209.834 478.273 210.779 479.218 210.779 480.369V485.169C210.779 485.725 210.558 486.257 210.165 486.65C209.772 487.043 209.239 487.264 208.683 487.265H203.883C203.326 487.265 202.792 487.044 202.398 486.651C202.003 486.258 201.78 485.726 201.777 485.169V480.369C201.783 479.813 202.007 479.282 202.401 478.89C202.795 478.498 203.327 478.276 203.883 478.273ZM220.528 478.273H225.329C226.49 478.273 227.435 479.217 227.435 480.368V485.169C227.435 485.445 227.38 485.718 227.273 485.973C227.167 486.227 227.012 486.459 226.816 486.653C226.621 486.848 226.389 487.002 226.134 487.107C225.878 487.212 225.605 487.266 225.329 487.265H220.528C219.973 487.262 219.441 487.041 219.049 486.648C218.657 486.256 218.435 485.724 218.433 485.169V480.368C218.433 479.217 219.377 478.273 220.528 478.273ZM171.193 496.424H175.993C177.145 496.424 178.089 497.368 178.089 498.519V503.33C178.087 503.885 177.865 504.417 177.473 504.809C177.08 505.202 176.548 505.423 175.993 505.425H171.193C170.637 505.424 170.105 505.204 169.712 504.811C169.319 504.418 169.098 503.885 169.097 503.33V498.529C169.095 498.253 169.149 497.979 169.253 497.723C169.358 497.468 169.512 497.236 169.707 497.04C169.902 496.844 170.133 496.689 170.388 496.583C170.643 496.478 170.917 496.423 171.193 496.424ZM187.837 496.424H192.638C193.789 496.424 194.733 497.368 194.733 498.519V503.33C194.731 503.885 194.51 504.416 194.117 504.809C193.725 505.201 193.193 505.423 192.638 505.425H187.837C187.282 505.423 186.75 505.201 186.358 504.809C185.966 504.416 185.744 503.885 185.742 503.33V498.529C185.74 498.253 185.793 497.979 185.898 497.723C186.002 497.468 186.156 497.236 186.351 497.04C186.546 496.844 186.778 496.689 187.033 496.583C187.288 496.478 187.561 496.423 187.837 496.424ZM204.483 496.424H209.284C210.445 496.424 211.389 497.368 211.389 498.519V503.33C211.386 503.886 211.163 504.419 210.769 504.812C210.375 505.204 209.841 505.425 209.284 505.425H204.483C203.928 505.423 203.396 505.201 203.004 504.809C202.612 504.416 202.39 503.885 202.388 503.33V498.529C202.388 497.368 203.332 496.424 204.483 496.424ZM187.238 458.774H192.039C193.19 458.774 194.134 459.719 194.134 460.87V465.671C194.134 466.226 193.913 466.759 193.52 467.152C193.127 467.545 192.595 467.765 192.039 467.766H187.238C186.683 467.764 186.151 467.542 185.759 467.15C185.367 466.757 185.145 466.226 185.143 465.671V460.87C185.142 460.594 185.196 460.322 185.301 460.067C185.406 459.812 185.56 459.581 185.755 459.386C185.95 459.191 186.181 459.037 186.435 458.932C186.69 458.827 186.963 458.773 187.238 458.774ZM203.883 458.774H208.683C209.834 458.774 210.779 459.719 210.779 460.87V465.671C210.779 466.226 210.557 466.759 210.164 467.152C209.772 467.545 209.239 467.765 208.683 467.766H203.883C203.326 467.766 202.792 467.545 202.398 467.153C202.003 466.76 201.78 466.227 201.777 465.671V460.87C201.783 460.314 202.007 459.783 202.401 459.391C202.795 458.999 203.327 458.777 203.883 458.774Z" fill="#E1E4E5"/>
<path fill-rule="evenodd" clip-rule="evenodd" d="M216.059 216.642H135.923C129.436 216.642 126.637 208.43 131.948 204.786L132.173 204.633C139.734 199.553 149.656 200.014 149.656 200.014C149.656 200.014 151.074 172.535 177.77 172.535C190.968 172.535 201.635 194.588 201.635 194.588C201.635 194.588 219.589 194.588 222.561 208.445C223.459 212.642 220.448 216.642 216.059 216.642ZM714.008 229.604H633.872C627.385 229.604 624.587 221.392 629.898 217.748C629.972 217.697 630.047 217.645 630.123 217.595C637.683 212.515 647.605 212.976 647.605 212.976C647.605 212.976 649.023 185.496 675.719 185.496C688.917 185.496 699.584 207.55 699.584 207.55C699.584 207.55 717.539 207.55 720.51 221.406C721.409 225.604 718.397 229.604 714.008 229.604ZM85.878 382.77H237.09C251.284 382.77 250.632 371.104 245.996 367.038C241.244 362.872 231.854 364.562 231.854 364.562C231.854 364.562 229.059 356.715 219.858 352.894C211.719 349.515 203.192 351.123 203.192 351.123C203.192 351.123 203.192 345.738 197.981 341.277C192.77 336.817 185.821 337.25 185.821 337.25C185.821 337.25 181.045 307.553 149.125 307.553C117.206 307.553 113.515 335.516 113.515 335.516C113.515 335.516 106.349 335.516 101.138 340.285C95.926 345.054 95.275 350.472 95.275 350.472C95.275 350.472 77.847 348.128 72.692 363.136C69.621 372.081 75.932 382.77 85.878 382.77ZM665.919 364.408H817.13C831.324 364.408 830.673 352.741 826.037 348.676C821.285 344.509 811.895 346.199 811.895 346.199C811.895 346.199 809.1 338.352 799.898 334.532C791.76 331.153 783.233 332.761 783.233 332.761C783.233 332.761 783.233 327.375 778.022 322.915C772.81 318.454 765.862 318.888 765.862 318.888C765.862 318.888 761.085 289.191 729.166 289.191C697.247 289.191 693.556 317.153 693.556 317.153C693.556 317.153 686.39 317.153 681.178 321.922C675.967 326.691 675.316 332.11 675.316 332.11C675.316 332.11 657.888 329.766 652.733 344.774C649.662 353.719 655.972 364.408 665.919 364.408Z" fill="white" stroke="#E1E4E5" stroke-width="4"/>
<path d="M125.918 110.904H164.356M660.593 110.904H699.03M757.806 245.923H796.244M151.842 255.644H190.28M322.506 466.273H360.943M483.448 461.953H521.886M126.218 129.973H189.783M660.893 129.973H724.457M758.106 264.992H821.671M152.142 274.713H215.707M322.806 485.343H386.37M483.748 481.022H547.313" stroke="#E1E4E5" stroke-width="5.5" stroke-linecap="round" stroke-linejoin="round"/>
</g>
<defs>
<clipPath id="clip0_1235_22307">
<rect width="900" height="600" fill="white"/>
</clipPath>
</defs>
</svg>
