<svg width="900" height="600" viewBox="0 0 900 600" fill="none" xmlns="http://www.w3.org/2000/svg">
<g clip-path="url(#clip0_1235_22349)">
<path opacity="0.76" fill-rule="evenodd" clip-rule="evenodd" d="M503.242 361.201L572.62 469.661H433.864L503.242 361.201Z" fill="url(#paint0_linear_1235_22349)"/>
<path opacity="0.76" fill-rule="evenodd" clip-rule="evenodd" d="M657.441 286.584L680.956 323.164H633.926L657.441 286.584Z" fill="url(#paint1_linear_1235_22349)"/>
<path d="M593.327 340.981C593.327 344.591 590.255 347.513 586.461 347.513C582.667 347.513 579.61 344.577 579.61 340.981C579.61 337.372 582.682 334.449 586.476 334.449C590.271 334.449 593.327 337.372 593.327 340.981Z" stroke="#E1E4E5" stroke-width="5.225" stroke-miterlimit="10"/>
<path d="M463.927 338.178C458.111 343.259 448.107 341.332 448.107 341.332C448.107 341.332 447.538 331.166 453.359 326.088C459.175 321.006 469.174 322.929 469.174 322.929C469.174 322.929 469.743 333.096 463.927 338.178Z" fill="url(#paint2_linear_1235_22349)"/>
<path d="M560.211 304.05C559.702 305.95 560.83 307.903 562.73 308.412C564.63 308.922 566.584 307.794 567.093 305.894C567.602 303.993 566.474 302.04 564.574 301.531C562.674 301.022 560.721 302.15 560.211 304.05Z" fill="#E1E4E5"/>
<path d="M545.669 331.923C545.16 333.823 546.288 335.776 548.188 336.286C550.088 336.795 552.042 335.667 552.551 333.767C553.06 331.867 551.932 329.913 550.032 329.404C548.132 328.895 546.179 330.023 545.669 331.923Z" fill="#E1E4E5"/>
<path d="M628.074 282.843C627.565 284.743 628.693 286.696 630.593 287.205C632.493 287.715 634.446 286.587 634.956 284.687C635.465 282.787 634.337 280.833 632.437 280.324C630.537 279.815 628.583 280.943 628.074 282.843Z" fill="#E1E4E5"/>
<path d="M737.429 294.995C737.094 296.244 737.835 297.527 739.084 297.862C740.333 298.197 741.617 297.455 741.951 296.207C742.286 294.958 741.545 293.674 740.296 293.339C739.047 293.005 737.763 293.746 737.429 294.995Z" fill="#E1E4E5"/>
<path d="M838.933 428.87C838.424 430.77 839.552 432.724 841.452 433.233C843.352 433.742 845.305 432.614 845.814 430.714C846.324 428.814 845.196 426.861 843.296 426.352C841.396 425.842 839.442 426.97 838.933 428.87Z" fill="#E1E4E5"/>
<path d="M761.085 470.225L752.536 478.774C752.224 479.086 752.224 479.59 752.536 479.901C752.847 480.213 753.352 480.213 753.663 479.901L762.212 471.352C762.524 471.041 762.524 470.536 762.212 470.225C761.901 469.913 761.397 469.913 761.085 470.225Z" fill="#E1E4E5"/>
<path d="M760.248 476.346L757.782 478.811C757.471 479.123 757.471 479.627 757.782 479.939C758.094 480.25 758.598 480.25 758.909 479.939L761.375 477.473C761.686 477.162 761.686 476.657 761.375 476.346C761.064 476.035 760.559 476.035 760.248 476.346Z" fill="#E1E4E5"/>
<path d="M822.723 418.681C822.641 418.563 828.604 414.315 836.048 409.21C843.488 404.096 849.595 400.049 849.677 400.167C849.759 400.285 843.793 404.524 836.352 409.638C828.902 414.755 822.805 418.799 822.723 418.681Z" fill="white"/>
<path d="M830.517 350.9H830.602C831.108 357.77 836.44 357.876 836.44 357.876C836.44 357.876 830.561 357.986 830.561 365.924C830.561 357.986 824.682 357.876 824.682 357.876C824.682 357.876 830.011 357.77 830.517 350.9Z" fill="#E1E4E5"/>
<path d="M635.686 399.359L614.806 475.693L622.255 467.119C619.5 468.586 616.305 469.711 612.768 470.51C609.231 471.308 605.384 471.765 601.358 471.977C597.332 472.188 593.143 472.156 588.839 471.977C584.552 471.797 580.168 471.471 575.718 471.096H575.701C569.132 470.542 563.362 475.4 562.791 481.969C562.254 488.228 566.703 493.77 572.8 494.764C577.396 495.498 582.058 496.182 586.851 496.737C591.643 497.291 596.549 497.698 601.635 497.812C606.721 497.927 611.986 497.731 617.43 496.949C622.858 496.166 628.498 494.748 634.007 492.368C635.683 491.646 637.188 490.58 638.423 489.237C639.659 487.895 640.598 486.307 641.179 484.577L641.44 483.778L666.494 408.699C669.314 400.255 664.75 391.144 656.306 388.324C647.863 385.504 638.751 390.068 635.931 398.511C635.849 398.788 635.751 399.098 635.686 399.359Z" fill="#F8AE9D"/>
<path d="M682.092 504.219C682.369 506.371 683.315 508.017 684.211 507.887C685.091 507.773 685.597 505.931 685.319 503.796C685.042 501.644 684.097 499.998 683.2 500.128C682.304 500.242 681.815 502.084 682.092 504.219Z" fill="#B55E63"/>
<mask id="mask0_1235_22349" style="mask-type:alpha" maskUnits="userSpaceOnUse" x="634" y="369" width="110" height="141">
<path fill-rule="evenodd" clip-rule="evenodd" d="M646.281 477.517C646.281 477.481 646.272 477.445 646.255 477.414C646.239 477.382 646.214 477.355 646.185 477.335C645.909 477.142 645.638 476.943 645.371 476.738C643.484 475.346 643.147 472.124 642.59 466.811C642.405 465.044 642.196 463.046 641.897 460.807C640.732 452.066 639.863 446.769 637.3 435.367C637.025 434.143 636.693 432.911 636.359 431.674C635.433 428.237 634.495 424.76 634.735 421.281C634.834 420.088 634.9 418.896 634.933 417.687C634.966 416.726 634.983 415.765 634.983 414.804V413.926C634.977 412.532 634.963 411.138 634.942 409.745C634.806 399.685 634.729 394.046 641.897 389.08C643.75 387.788 646.099 386.562 649.044 385.304C651.426 384.293 654.188 383.266 657.43 382.189C658.737 381.759 660.143 381.312 661.632 380.848L665.139 379.887L701.369 369.85C701.729 369.751 702.103 369.716 702.475 369.733C704.326 369.829 706.176 369.949 708.025 370.093C712.282 370.406 716.531 370.816 720.77 371.323C721.977 371.461 723.227 371.627 724.492 371.795L724.807 371.837C729.009 372.4 732.4 373.825 735.079 375.878C739.827 379.523 742.391 385.188 743.334 391.764C743.863 395.457 743.896 399.433 743.533 403.508C743.385 405.132 743.18 406.751 742.92 408.361C742.687 409.833 742.406 411.296 742.077 412.75C741.111 417.093 740.267 421.462 739.546 425.853L739.248 427.642C739.188 428.051 739.123 428.464 739.059 428.879C738.983 429.37 738.906 429.864 738.835 430.358C736.849 443.576 735.874 456.414 736.072 465.441V465.45L736.122 467.065C736.353 473.144 737.048 479.952 738.355 487.521C738.427 487.903 738.495 488.285 738.563 488.669C738.619 488.986 738.676 489.304 738.735 489.625C738.774 489.828 738.781 490.028 738.762 490.22C742.63 493.983 744.462 498.798 741.053 503.309C739.422 505.467 735.278 506.643 732.575 506.747L669.528 509.175C658.602 509.595 647.512 504.687 647.738 493.755C647.755 492.929 647.799 492.069 647.875 491.172C647.875 491.17 648.094 490.945 648.526 490.549C647.455 490.185 646.628 489.212 646.628 487.985C646.619 486.4 646.592 484.815 646.546 483.231C646.496 481.426 646.43 479.836 646.347 478.51C646.334 478.178 646.312 477.847 646.281 477.517Z" fill="white"/>
</mask>
<g mask="url(#mask0_1235_22349)">
<path fill-rule="evenodd" clip-rule="evenodd" d="M646.281 477.517C646.281 477.481 646.272 477.445 646.255 477.414C646.239 477.382 646.214 477.355 646.185 477.335C645.909 477.142 645.638 476.943 645.371 476.738C643.484 475.346 643.147 472.124 642.59 466.811C642.405 465.044 642.196 463.046 641.897 460.807C640.732 452.066 639.863 446.769 637.3 435.367C637.025 434.143 636.693 432.911 636.359 431.674C635.433 428.237 634.495 424.76 634.735 421.281C634.834 420.088 634.9 418.896 634.933 417.687C634.966 416.726 634.983 415.765 634.983 414.804V413.926C634.977 412.532 634.963 411.138 634.942 409.745C634.806 399.685 634.729 394.046 641.897 389.08C643.75 387.788 646.099 386.562 649.044 385.304C651.426 384.293 654.188 383.266 657.43 382.189C658.737 381.759 660.143 381.312 661.632 380.848L665.139 379.887L701.369 369.85C701.729 369.751 702.103 369.716 702.475 369.733C704.326 369.829 706.176 369.949 708.025 370.093C712.282 370.406 716.531 370.816 720.77 371.323C721.977 371.461 723.227 371.627 724.492 371.795L724.807 371.837C729.009 372.4 732.4 373.825 735.079 375.878C739.827 379.523 742.391 385.188 743.334 391.764C743.863 395.457 743.896 399.433 743.533 403.508C743.385 405.132 743.18 406.751 742.92 408.361C742.687 409.833 742.406 411.296 742.077 412.75C741.111 417.093 740.267 421.462 739.546 425.853L739.248 427.642C739.188 428.051 739.123 428.464 739.059 428.879C738.983 429.37 738.906 429.864 738.835 430.358C736.849 443.576 735.874 456.414 736.072 465.441V465.45L736.122 467.065C736.353 473.144 737.048 479.952 738.355 487.521C738.427 487.903 738.495 488.285 738.563 488.669C738.619 488.986 738.676 489.304 738.735 489.625C738.774 489.828 738.781 490.028 738.762 490.22C742.63 493.983 744.462 498.798 741.053 503.309C739.422 505.467 735.278 506.643 732.575 506.747L669.528 509.175C658.602 509.595 647.512 504.687 647.738 493.755C647.755 492.929 647.799 492.069 647.875 491.172C647.875 491.17 648.094 490.945 648.526 490.549C647.455 490.185 646.628 489.212 646.628 487.985C646.619 486.4 646.592 484.815 646.546 483.231C646.496 481.426 646.43 479.836 646.347 478.51C646.334 478.178 646.312 477.847 646.281 477.517Z" fill="white"/>
<path d="M646.185 477.333L645.046 478.977L646.185 477.333ZM646.281 477.515L644.292 477.724L644.281 477.619V477.515H646.281ZM645.371 476.736L646.559 475.127L646.573 475.137L646.587 475.148L645.371 476.736ZM642.59 466.809L644.579 466.601L642.59 466.809ZM641.897 460.805L643.88 460.541L641.897 460.805ZM637.3 435.365L635.349 435.804L637.3 435.365ZM636.359 431.672L638.29 431.151L636.359 431.672ZM634.735 421.279L632.739 421.142L632.74 421.127L632.742 421.113L634.735 421.279ZM634.933 417.685L632.934 417.63V417.616L634.933 417.685ZM634.983 413.924L636.983 413.919V413.924H634.983ZM634.942 409.743L636.942 409.715L634.942 409.743ZM641.897 389.078L643.041 390.719L643.036 390.722L641.897 389.078ZM649.044 385.302L648.257 383.463L648.263 383.46L649.044 385.302ZM657.43 382.187L656.8 380.289L656.804 380.288L657.43 382.187ZM661.632 380.846L661.037 378.936L661.07 378.926L661.104 378.917L661.632 380.846ZM665.139 379.885L665.673 381.812L665.668 381.814L665.139 379.885ZM701.369 369.848L701.903 371.776L701.369 369.848ZM702.475 369.731L702.39 371.729H702.384L702.475 369.731ZM706.991 370.013L707.129 368.018H707.138L707.147 368.019L706.991 370.013ZM708.025 370.091L707.875 372.086L708.025 370.091ZM709.786 370.228L709.626 372.222L709.623 372.221L709.786 370.228ZM720.77 371.321L720.544 373.308L720.531 373.307L720.77 371.321ZM724.492 371.793L724.755 369.81L724.492 371.793ZM724.807 371.835L725.07 369.852L725.072 369.853L724.807 371.835ZM735.079 375.876L736.296 374.289L736.297 374.29L735.079 375.876ZM743.334 391.762L745.314 391.478L743.334 391.762ZM743.533 403.506L745.525 403.684L745.524 403.69L743.533 403.506ZM742.92 408.359L740.945 408.045L740.947 408.037L742.92 408.359ZM742.077 412.748L740.125 412.312L740.126 412.306L742.077 412.748ZM739.546 425.851L741.519 426.177V426.179L739.546 425.851ZM739.248 427.64L737.27 427.347L737.272 427.329L737.275 427.311L739.248 427.64ZM739.059 428.877L737.083 428.571L739.059 428.877ZM738.835 430.356L740.814 430.644L740.812 430.653L738.835 430.356ZM736.072 465.439L734.073 465.5V465.483L736.072 465.439ZM736.072 465.448L738.071 465.388L736.072 465.448ZM736.122 467.063L734.123 467.139V467.125L736.122 467.063ZM738.355 487.519L736.39 487.893L736.387 487.876L736.384 487.86L738.355 487.519ZM738.563 488.667L736.594 489.016L738.563 488.667ZM738.735 489.623L736.77 489.995L736.769 489.988L738.735 489.623ZM738.762 490.218L737.368 491.652L736.676 490.979L736.772 490.019L738.762 490.218ZM741.053 503.307L742.649 504.512L741.053 503.307ZM732.575 506.745L732.498 504.746L732.575 506.745ZM669.528 509.173L669.451 507.174L669.528 509.173ZM647.738 493.753L645.738 493.712L647.738 493.753ZM647.875 491.17H649.875V491.255L649.868 491.339L647.875 491.17ZM648.526 490.547L649.169 488.653L652.368 489.741L649.876 492.022L648.526 490.547ZM646.628 487.983L648.628 487.964V487.983H646.628ZM646.546 483.229L644.547 483.297L644.546 483.284L646.546 483.229ZM646.347 478.508L644.351 478.633L644.35 478.618L644.349 478.603L646.347 478.508ZM647.325 475.69C647.913 476.098 648.281 476.774 648.281 477.515H644.281C644.281 478.11 644.577 478.651 645.046 478.977L647.325 475.69ZM646.587 475.148C646.948 475.424 647.208 475.609 647.325 475.69L645.046 478.977C644.744 478.766 644.447 478.549 644.155 478.324L646.587 475.148ZM644.579 466.601C644.863 469.308 645.075 471.292 645.428 472.781C645.782 474.277 646.192 474.856 646.559 475.127L644.184 478.345C642.663 477.224 641.961 475.496 641.536 473.704C641.109 471.907 640.874 469.623 640.601 467.017L644.579 466.601ZM643.88 460.541C644.183 462.811 644.394 464.835 644.579 466.601L640.601 467.017C640.416 465.249 640.209 463.277 639.915 461.07L643.88 460.541ZM639.251 434.927C641.828 446.388 642.707 451.743 643.88 460.541L639.915 461.07C638.757 452.385 637.898 447.146 635.349 435.804L639.251 434.927ZM638.29 431.151C638.622 432.381 638.965 433.654 639.251 434.927L635.349 435.804C635.067 434.594 634.76 433.39 634.428 432.193L638.29 431.151ZM636.73 421.416C636.517 424.503 637.346 427.65 638.29 431.151L634.428 432.193C633.519 428.821 632.473 425.013 632.739 421.142L636.73 421.416ZM636.932 417.739C636.898 418.976 636.83 420.212 636.728 421.445L632.742 421.113C632.838 419.954 632.902 418.793 632.934 417.63L636.932 417.739ZM636.983 414.802C636.983 415.786 636.966 416.77 636.932 417.753L632.934 417.616C632.967 416.678 632.983 415.74 632.983 414.802H636.983ZM636.983 414.587V414.802H632.983V414.587H636.983ZM636.983 413.924V414.587H632.983V413.924H636.983ZM636.942 409.715C636.96 411.03 636.979 412.432 636.983 413.919L632.983 413.93C632.979 412.467 632.96 411.086 632.942 409.77L636.942 409.715ZM643.036 390.722C639.81 392.957 638.344 395.22 637.615 398.006C636.839 400.975 636.872 404.592 636.942 409.715L632.942 409.77C632.875 404.834 632.802 400.602 633.746 396.994C634.737 393.205 636.817 390.165 640.758 387.434L643.036 390.722ZM649.83 387.14C646.952 388.371 644.739 389.535 643.041 390.719L640.753 387.438C642.761 386.038 645.246 384.75 648.257 383.463L649.83 387.14ZM658.061 384.086C654.855 385.15 652.145 386.158 649.825 387.143L648.263 383.46C650.706 382.424 653.521 381.378 656.8 380.289L658.061 384.086ZM662.227 382.755C660.745 383.217 659.35 383.661 658.056 384.087L656.804 380.288C658.125 379.853 659.542 379.402 661.037 378.936L662.227 382.755ZM665.668 381.814L662.161 382.775L661.104 378.917L664.611 377.956L665.668 381.814ZM701.903 371.776L665.673 381.812L664.605 377.958L700.835 367.921L701.903 371.776ZM702.384 371.729C702.222 371.72 702.06 371.736 701.903 371.776L700.835 367.921C701.398 367.768 701.983 367.704 702.566 367.733L702.384 371.729ZM706.853 372.008C705.366 371.9 703.878 371.807 702.39 371.729L702.56 367.733C703.368 367.767 704.982 367.869 707.129 368.018L706.853 372.008ZM707.875 372.086L706.834 372.007L707.147 368.019L708.174 368.097L707.875 372.086ZM709.623 372.221C709.017 372.172 708.434 372.128 707.875 372.086L708.174 368.097C708.731 368.139 709.328 368.184 709.95 368.235L709.623 372.221ZM720.531 373.307C716.903 372.874 713.268 372.512 709.626 372.222L709.947 368.235C713.042 368.484 716.857 368.835 721.01 369.336L720.531 373.307ZM724.229 373.776C722.96 373.607 721.729 373.444 720.544 373.308L720.997 369.334C722.226 369.474 723.493 369.643 724.755 369.81L724.229 373.776ZM724.544 373.817C724.439 373.803 724.334 373.79 724.229 373.776L724.755 369.81L725.07 369.852L724.544 373.817ZM733.863 377.464C731.488 375.644 728.433 374.339 724.541 373.817L725.072 369.853C729.584 370.457 733.311 372.001 736.296 374.289L733.863 377.464ZM741.354 392.045C740.457 385.79 738.06 380.686 733.862 377.463L736.297 374.29C741.594 378.355 744.325 384.581 745.314 391.478L741.354 392.045ZM741.54 403.328C741.894 399.373 741.857 395.556 741.354 392.045L745.314 391.478C745.869 395.355 745.899 399.488 745.525 403.684L741.54 403.328ZM740.947 408.037C741.203 406.466 741.396 404.889 741.541 403.321L745.524 403.69C745.372 405.361 745.162 407.026 744.894 408.681L740.947 408.037ZM740.126 412.306C740.447 410.893 740.72 409.462 740.945 408.045L744.896 408.673C744.656 410.188 744.366 411.695 744.027 413.191L740.126 412.306ZM737.573 425.525C738.3 421.098 739.151 416.692 740.125 412.312L744.029 413.185C743.071 417.492 742.234 421.824 741.519 426.177L737.573 425.525ZM737.275 427.311L737.573 425.522L741.519 426.179L741.221 427.968L737.275 427.311ZM737.083 428.571C737.147 428.155 737.21 427.748 737.27 427.347L741.227 427.932C741.165 428.35 741.1 428.77 741.035 429.184L737.083 428.571ZM736.855 430.069C736.929 429.564 737.007 429.06 737.083 428.571L741.035 429.184C740.959 429.677 740.884 430.161 740.814 430.644L736.855 430.069ZM734.073 465.483C733.871 456.306 734.861 443.349 736.857 430.059L740.812 430.653C738.838 443.8 737.876 456.517 738.072 465.395L734.073 465.483ZM734.073 465.509V465.5L738.071 465.379V465.388L734.073 465.509ZM734.123 467.125L734.073 465.509L738.071 465.388L738.121 467L734.123 467.125ZM736.384 487.86C735.063 480.209 734.358 473.313 734.123 467.139L738.12 466.986C738.348 472.97 739.033 479.69 740.326 487.179L736.384 487.86ZM736.594 489.016C736.525 488.63 736.46 488.26 736.39 487.893L740.32 487.146C740.395 487.542 740.465 487.936 740.533 488.318L736.594 489.016ZM736.769 489.988C736.707 489.657 736.65 489.331 736.594 489.016L740.533 488.318C740.589 488.636 740.644 488.946 740.702 489.258L736.769 489.988ZM736.772 490.019V490.011L736.77 489.995L740.7 489.251C740.775 489.643 740.79 490.036 740.752 490.418L736.772 490.019ZM740.157 488.785C742.259 490.83 743.955 493.297 744.585 496.033C745.235 498.854 744.706 501.79 742.649 504.512L739.457 502.101C740.809 500.312 741.068 498.585 740.687 496.93C740.287 495.19 739.133 493.369 737.368 491.652L740.157 488.785ZM742.649 504.512C741.491 506.044 739.62 507.047 737.903 507.674C736.136 508.32 734.219 508.683 732.652 508.743L732.498 504.746C733.634 504.702 735.141 504.425 736.529 503.917C737.968 503.392 738.984 502.727 739.457 502.101L742.649 504.512ZM732.652 508.743L669.605 511.171L669.451 507.174L732.498 504.746L732.652 508.743ZM669.605 511.171C663.86 511.392 657.934 510.225 653.399 507.421C648.785 504.568 645.609 499.993 645.738 493.712L649.737 493.794C649.641 498.445 651.897 501.789 655.503 504.019C659.188 506.297 664.27 507.374 669.451 507.174L669.605 511.171ZM645.738 493.712C645.756 492.843 645.803 491.94 645.882 491.002L649.868 491.339C649.798 492.156 649.755 492.975 649.737 493.794L645.738 493.712ZM645.875 491.17C645.875 490.784 645.99 490.499 646.019 490.425C646.081 490.275 646.16 490.132 646.254 489.999C646.294 489.943 646.329 489.901 646.339 489.889L646.395 489.825L646.436 489.781L646.491 489.724L646.641 489.575C646.766 489.454 646.944 489.284 647.175 489.072L649.876 492.022C649.676 492.206 649.529 492.346 649.436 492.437L649.341 492.531L649.335 492.537L649.36 492.51L649.412 492.45C649.422 492.438 649.456 492.397 649.497 492.341C649.514 492.317 649.561 492.251 649.612 492.161C649.703 492.005 649.771 491.836 649.814 491.66C649.837 491.559 649.87 491.314 649.875 491.17H645.875ZM648.628 487.983C648.628 488.242 648.799 488.528 649.169 488.653L647.882 492.441C646.111 491.839 644.628 490.178 644.628 487.983H648.628ZM648.545 483.161C648.595 484.647 648.612 486.262 648.628 487.964L644.629 488.003C644.62 486.434 644.593 484.866 644.547 483.297L648.545 483.161ZM648.343 478.384C648.428 479.739 648.495 481.354 648.545 483.174L644.546 483.284C644.507 481.733 644.442 480.182 644.351 478.633L648.343 478.384ZM648.27 477.305C648.31 477.686 648.329 478.073 648.345 478.413L644.349 478.603C644.338 478.31 644.319 478.017 644.292 477.724L648.27 477.305Z" fill="#E1E4E5"/>
<path d="M701.116 371.503C701.116 371.503 697.873 383.777 685.615 387.184C670.032 391.503 667.684 386.271 667.684 386.271C668.076 384.038 668.206 381.854 668.108 379.539C668.069 378.64 667.998 377.743 667.896 376.849C667.619 374.339 667.098 371.601 666.364 368.471C666.201 367.737 666.006 366.971 665.81 366.189L665.794 366.091C676.454 362.081 684.816 356.066 689.934 347.167L691.45 345.977L692.477 345.162L692.771 345.781L692.819 347.851C693.031 357.582 694.678 363.336 701.116 371.503ZM705.461 390.921L682.047 477.252L690.396 467.557C687.307 469.218 683.726 470.48 679.766 471.39C675.806 472.285 671.481 472.812 666.982 473.035C662.467 473.275 657.762 473.227 652.946 473.035C648.131 472.828 643.22 472.476 638.23 472.045H638.198C630.832 471.406 624.353 476.917 623.719 484.344C623.117 491.42 628.107 497.697 634.951 498.815C640.099 499.646 645.343 500.428 650.713 501.051C656.083 501.674 661.596 502.153 667.299 502.281C673.002 502.409 678.911 502.185 685.01 501.291C691.108 500.396 697.429 498.799 703.607 496.116C707.568 494.391 710.372 491.116 711.655 487.315L711.956 486.42L740.027 401.494C743.179 391.943 738.078 381.641 728.605 378.446C719.148 375.268 708.914 380.411 705.746 389.962C705.651 390.266 705.54 390.633 705.461 390.921Z" fill="#F8AE9D"/>
<path fill-rule="evenodd" clip-rule="evenodd" d="M429.674 510.398V505.879C429.674 503.285 432.279 501.183 435.479 501.17H838.923C842.141 501.17 844.729 503.285 844.729 505.879V510.398C844.729 513.004 842.124 515.106 838.923 515.106H820.859C819.637 515.106 818.465 515.592 817.6 516.456C816.736 517.32 816.25 518.493 816.25 519.715C816.25 520.519 814.93 521.166 813.3 521.166H450.18C448.566 521.166 447.246 520.519 447.246 519.715C447.246 518.493 446.76 517.32 445.896 516.456C445.032 515.592 443.859 515.106 442.637 515.106H435.479C432.262 515.106 429.674 513.004 429.674 510.398Z" fill="white"/>
<path d="M435.479 501.17L435.475 500.17H435.479V501.17ZM430.674 505.879V510.398H428.674V505.879H430.674ZM435.483 502.17C432.622 502.181 430.674 504.026 430.674 505.879H428.674C428.674 502.545 431.935 500.184 435.475 500.17L435.483 502.17ZM838.923 502.17H435.479V500.17H838.923V502.17ZM843.729 505.879C843.729 504.021 841.792 502.17 838.923 502.17V500.17C842.49 500.17 845.729 502.549 845.729 505.879H843.729ZM843.729 510.398V505.879H845.729V510.398H843.729ZM838.923 514.106C841.779 514.106 843.729 512.265 843.729 510.398H845.729C845.729 513.743 842.469 516.106 838.923 516.106V514.106ZM820.859 514.106H838.923V516.106H820.859V514.106ZM813.3 520.166C813.996 520.166 814.577 520.025 814.946 519.844C815.378 519.632 815.25 519.526 815.25 519.715H817.25C817.25 520.708 816.463 521.327 815.827 521.639C815.129 521.983 814.234 522.166 813.3 522.166V520.166ZM450.18 520.166H813.3V522.166H450.18V520.166ZM448.246 519.715C448.246 519.527 448.119 519.632 448.55 519.845C448.917 520.026 449.493 520.166 450.18 520.166V522.166C449.253 522.166 448.362 521.982 447.665 521.639C447.032 521.326 446.246 520.707 446.246 519.715H448.246ZM435.479 514.106H442.637V516.106H435.479V514.106ZM430.674 510.398C430.674 512.267 432.609 514.106 435.479 514.106V516.106C431.915 516.106 428.674 513.741 428.674 510.398H430.674ZM446.246 519.715C446.246 518.758 445.865 517.84 445.189 517.163C444.512 516.487 443.594 516.106 442.637 516.106V514.106C444.125 514.106 445.551 514.697 446.603 515.749C447.655 516.801 448.246 518.227 448.246 519.715H446.246ZM820.859 516.106C819.902 516.106 818.984 516.487 818.307 517.163C817.631 517.84 817.25 518.758 817.25 519.715H815.25C815.25 518.227 815.841 516.801 816.893 515.749C817.945 514.697 819.371 514.106 820.859 514.106V516.106Z" fill="#E1E4E5"/>
<path d="M478.503 389.107L497.412 469.076L497.917 471.179L499.188 476.558C499.454 477.69 500.095 478.698 501.007 479.42C501.918 480.142 503.046 480.535 504.209 480.536H631.595C634.921 480.536 637.398 477.422 636.632 474.178L615.947 386.728C615.681 385.596 615.04 384.588 614.129 383.866C613.218 383.144 612.089 382.751 610.927 382.75H483.54C480.199 382.767 477.737 385.88 478.503 389.107Z" fill="#4F27AA"/>
<path d="M605.858 382.764L627.88 480.549H631.596C634.922 480.549 637.383 477.436 636.617 474.192L615.932 386.741C615.665 385.609 615.024 384.601 614.113 383.879C613.202 383.157 612.073 382.764 610.911 382.764H605.858ZM569.05 479.758L572.543 499.306H561L557.506 479.758H569.05Z" fill="#2E2445"/>
<path fill-rule="evenodd" clip-rule="evenodd" d="M681.25 346.928V361.157L691.654 352.744C691.654 352.744 694.852 339.11 697.453 328.984C699.084 322.634 703.058 301.144 687.06 302.151C673.955 278.95 635.789 293.31 635.486 321.655C642.791 362.835 636.606 375.913 636.606 375.913C658.188 377.157 669.148 367.131 681.25 346.928Z" fill="#2E2445"/>
</g>
</g>
<defs>
<linearGradient id="paint0_linear_1235_22349" x1="506.2" y1="530.469" x2="503.586" y2="243.2" gradientUnits="userSpaceOnUse">
<stop stop-color="white"/>
<stop offset="1" stop-color="#EEEEEE"/>
</linearGradient>
<linearGradient id="paint1_linear_1235_22349" x1="658.444" y1="343.672" x2="657.566" y2="246.787" gradientUnits="userSpaceOnUse">
<stop stop-color="white"/>
<stop offset="1" stop-color="#EEEEEE"/>
</linearGradient>
<linearGradient id="paint2_linear_1235_22349" x1="440.963" y1="355.3" x2="484.643" y2="297.109" gradientUnits="userSpaceOnUse">
<stop stop-color="white"/>
<stop offset="1" stop-color="#EEEEEE"/>
</linearGradient>
<clipPath id="clip0_1235_22349">
<rect width="900" height="600" fill="white"/>
</clipPath>
</defs>
</svg>
