<svg width="900" height="600" viewBox="0 0 900 600" fill="none" xmlns="http://www.w3.org/2000/svg">
<g clip-path="url(#clip0_1235_22441)">
<path d="M640.94 230.51C630.734 248.724 608.383 251.226 572.576 247.765C545.646 245.157 521.088 243.139 494.156 228.455C475.305 218.185 460.384 204.29 449.493 190.794C437.691 176.174 421.219 159.488 429.294 142.911C440.391 120.139 504.567 100.96 566.884 132.324C635.339 166.787 650.923 212.709 640.94 230.51Z" fill="url(#paint0_linear_1235_22441)"/>
<path d="M817.318 238.109C791.547 250.893 757.343 234.455 757.343 234.455C757.343 234.455 764.945 197.299 790.729 184.533C816.499 171.749 850.69 188.169 850.69 188.169C850.69 188.169 843.088 225.325 817.318 238.109Z" fill="url(#paint1_linear_1235_22441)"/>
<path d="M212.777 182.459C227.697 191.401 249.103 183.135 249.103 183.135C249.103 183.135 246.304 160.373 231.375 151.441C216.454 142.499 195.058 150.755 195.058 150.755C195.058 150.755 197.857 173.517 212.777 182.459Z" fill="url(#paint2_linear_1235_22441)"/>
<path d="M612.232 409.046C604.461 409.046 598.161 415.345 598.161 423.116C598.161 430.888 604.461 437.188 612.232 437.188C620.003 437.188 626.303 430.888 626.303 423.116C626.303 415.345 620.003 409.046 612.232 409.046Z" fill="#4F27AA"/>
<path d="M290.584 186C284.186 186 279 191.186 279 197.584C279 203.982 284.186 209.168 290.584 209.168C296.982 209.168 302.168 203.982 302.168 197.584C302.168 191.186 296.982 186 290.584 186Z" fill="#4F27AA"/>
<path d="M221.67 428.085C214.384 428.085 208.478 422.179 208.478 414.893C208.478 407.607 214.384 401.701 221.67 401.701C228.956 401.701 234.862 407.607 234.862 414.893C234.862 422.179 228.956 428.085 221.67 428.085Z" fill="#4F27AA"/>
<path d="M645.932 213.863C642.532 213.863 639.776 211.107 639.776 207.707C639.776 204.307 642.532 201.551 645.932 201.551C649.332 201.551 652.088 204.307 652.088 207.707C652.088 211.107 649.332 213.863 645.932 213.863Z" fill="#4F27AA"/>
<path d="M473.655 494.633C469.283 494.633 465.74 491.089 465.74 486.718C465.74 482.346 469.283 478.803 473.655 478.803C478.026 478.803 481.57 482.346 481.57 486.718C481.57 491.089 478.026 494.633 473.655 494.633Z" fill="#E1E4E5"/>
<path d="M128.212 411.647C121.898 411.647 116.779 406.529 116.779 400.214C116.779 393.9 121.898 388.781 128.212 388.781C134.526 388.781 139.645 393.9 139.645 400.214C139.645 406.529 134.526 411.647 128.212 411.647Z" fill="#E1E4E5"/>
<path d="M576.121 482.017C571.316 482.017 567.42 478.122 567.42 473.316C567.42 468.511 571.316 464.615 576.121 464.615C580.927 464.615 584.822 468.511 584.822 473.316C584.822 478.122 580.927 482.017 576.121 482.017Z" fill="#E1E4E5"/>
<path d="M682.884 119.381C677.541 119.381 673.21 115.05 673.21 109.707C673.21 104.364 677.541 100.033 682.884 100.033C688.227 100.033 692.558 104.364 692.558 109.707C692.558 115.05 688.227 119.381 682.884 119.381Z" fill="#E1E4E5"/>
<path d="M162.8 217.242C164.042 221.876 161.291 226.64 156.657 227.881C152.023 229.123 147.26 226.373 146.018 221.739C144.776 217.104 147.526 212.341 152.161 211.099C156.795 209.858 161.558 212.608 162.8 217.242Z" fill="#E1E4E5"/>
<path d="M353.557 156.114C347.175 156.114 342 150.94 342 144.557C342 138.174 347.175 133 353.557 133C359.94 133 365.114 138.174 365.114 144.557C365.114 150.94 359.94 156.114 353.557 156.114Z" fill="#E1E4E5"/>
<path d="M765.481 401.988C760.571 401.988 756.591 398.804 756.591 394.876C756.591 390.948 760.571 387.764 765.481 387.764C770.391 387.764 774.371 390.948 774.371 394.876C774.371 398.804 770.391 401.988 765.481 401.988Z" fill="#E1E4E5"/>
<path d="M371.745 469.072C374.329 478.717 368.606 488.631 358.961 491.215C349.315 493.8 339.402 488.076 336.817 478.431C334.233 468.786 339.957 458.872 349.602 456.287C359.247 453.703 369.161 459.427 371.745 469.072Z" fill="#E1E4E5"/>
<path d="M680.253 384.217H680.485C681.862 403.729 696.374 404.03 696.374 404.03C696.374 404.03 680.372 404.342 680.372 426.888C680.372 404.342 664.37 404.03 664.37 404.03C664.37 404.03 678.875 403.729 680.253 384.217ZM180.744 437.74H180.865C181.585 448.334 189.172 448.497 189.172 448.497C189.172 448.497 180.806 448.667 180.806 460.907C180.806 448.667 172.44 448.497 172.44 448.497C172.44 448.497 180.024 448.334 180.744 437.74Z" fill="#E1E4E5"/>
<path fill-rule="evenodd" clip-rule="evenodd" d="M546.671 205.208C600.48 259.016 600.48 346.257 546.671 400.066C492.863 453.874 405.622 453.874 351.814 400.066C298.005 346.257 298.005 259.016 351.814 205.208C405.622 151.399 492.863 151.399 546.671 205.208Z" fill="#4F27AA"/>
<path fill-rule="evenodd" clip-rule="evenodd" d="M479.554 272.325C496.295 289.065 496.295 316.207 479.554 332.947C462.814 349.688 435.672 349.688 418.932 332.947C402.191 316.207 402.191 289.065 418.932 272.325C435.672 255.584 462.814 255.584 479.554 272.325Z" fill="white"/>
<path d="M160.658 283.882V310.673M187.45 257.09V337.465M214.242 236.996V357.559M241.033 257.09V337.465M267.825 283.882V310.673M81.0801 287.964V306.591M99.7071 269.338V325.217M118.334 255.368V339.187M136.96 269.338V325.217M737.348 283.882V310.673M710.557 257.09V337.465M683.765 236.996V357.559M656.973 257.09V337.465M630.182 283.882V310.673M816.926 287.964V306.591M798.299 269.338V325.217M779.673 255.368V339.187M761.046 269.338V325.217" stroke="#E1E4E5" stroke-width="7.381" stroke-linecap="round" stroke-linejoin="round"/>
</g>
<defs>
<linearGradient id="paint0_linear_1235_22441" x1="572.189" y1="348.551" x2="481.226" y2="-60.1996" gradientUnits="userSpaceOnUse">
<stop stop-color="white"/>
<stop offset="1" stop-color="#EEEEEE"/>
</linearGradient>
<linearGradient id="paint1_linear_1235_22441" x1="718.356" y1="277.985" x2="930.912" y2="109.851" gradientUnits="userSpaceOnUse">
<stop stop-color="white"/>
<stop offset="1" stop-color="#EEEEEE"/>
</linearGradient>
<linearGradient id="paint2_linear_1235_22441" x1="270.514" y1="211.243" x2="150.461" y2="99.6995" gradientUnits="userSpaceOnUse">
<stop stop-color="white"/>
<stop offset="1" stop-color="#EEEEEE"/>
</linearGradient>
<clipPath id="clip0_1235_22441">
<rect width="900" height="600" fill="white"/>
</clipPath>
</defs>
</svg>
