<svg width="900" height="600" viewBox="0 0 900 600" fill="none" xmlns="http://www.w3.org/2000/svg">
<g clip-path="url(#clip0_1235_22462)">
<path fill-rule="evenodd" clip-rule="evenodd" d="M667.211 303.133C667.211 351.602 642.493 394.484 604.143 422.519C601.417 424.513 599.737 427.653 599.739 431.03C599.744 442.132 599.729 455.354 599.721 469.484C599.717 477.057 591.762 481.996 584.975 478.638L536.594 454.701C534.596 453.713 532.331 453.414 530.134 453.795C519.678 455.614 509.086 456.531 498.473 456.534C405.63 456.534 329.736 388.232 329.736 303.133C329.736 218.033 405.63 149.732 498.473 149.732C591.316 149.732 667.211 218.033 667.211 303.133Z" fill="#E1E4E5"/>
<path fill-rule="evenodd" clip-rule="evenodd" d="M247.924 303.133C247.924 351.602 272.642 394.484 310.992 422.519C313.718 424.513 315.398 427.653 315.396 431.03C315.391 442.132 315.406 455.354 315.414 469.484C315.418 477.057 323.373 481.996 330.16 478.638L378.541 454.701C380.539 453.713 382.804 453.414 385.001 453.795C395.456 455.614 406.049 456.531 416.662 456.534C509.505 456.534 585.399 388.232 585.399 303.133C585.399 218.033 509.505 149.732 416.662 149.732C323.819 149.732 247.924 218.033 247.924 303.133Z" fill="url(#paint0_linear_1235_22462)"/>
<path fill-rule="evenodd" clip-rule="evenodd" d="M247.924 303.133C247.924 351.602 272.642 394.484 310.992 422.519C313.718 424.513 315.398 427.653 315.396 431.03C315.391 442.132 315.406 455.354 315.414 469.484C315.418 477.057 323.373 481.996 330.16 478.638L378.541 454.701C380.539 453.713 382.804 453.414 385.001 453.795C395.456 455.614 406.049 456.531 416.662 456.534C509.505 456.534 585.399 388.232 585.399 303.133C585.399 218.033 509.505 149.732 416.662 149.732C323.819 149.732 247.924 218.033 247.924 303.133Z" fill="#4F27AA"/>
<path fill-rule="evenodd" clip-rule="evenodd" d="M400.991 249.943L467.745 288.679C477.356 294.254 477.356 307.904 467.745 313.499L400.991 352.235C391.192 357.913 378.824 350.985 378.824 339.836V262.363C378.824 251.173 391.192 244.246 400.991 249.943Z" fill="white"/>
<path d="M222.46 420.341C209.208 423.48 195.193 412.242 195.193 412.242C195.193 412.242 202.672 395.92 215.928 392.79C229.179 389.651 243.19 400.879 243.19 400.879C243.19 400.879 235.711 417.201 222.46 420.341Z" fill="url(#paint1_linear_1235_22462)"/>
<path d="M232.853 160.947C253.008 174.829 283.798 165.125 283.798 165.125C283.798 165.125 281.892 132.917 261.724 119.048C241.569 105.166 210.792 114.857 210.792 114.857C210.792 114.857 212.699 147.065 232.853 160.947Z" fill="url(#paint2_linear_1235_22462)"/>
<path d="M686.193 157.468C674.155 169.721 651.643 167.137 651.643 167.137C651.643 167.137 648.664 144.688 660.713 132.442C672.752 120.19 695.253 122.765 695.253 122.765C695.253 122.765 698.232 145.215 686.193 157.468Z" fill="url(#paint3_linear_1235_22462)"/>
<path d="M741.523 471.216C735.811 471.216 731.18 475.847 731.18 481.559C731.18 487.272 735.811 491.902 741.523 491.902C747.235 491.902 751.866 487.272 751.866 481.559C751.866 475.847 747.235 471.216 741.523 471.216Z" fill="#4F27AA"/>
<path d="M300.593 487.703C294.268 487.703 289.14 492.574 289.14 498.583C289.14 504.592 294.268 509.463 300.593 509.463C306.918 509.463 312.046 504.592 312.046 498.583C312.046 492.574 306.918 487.703 300.593 487.703Z" fill="#4F27AA"/>
<path d="M720.097 244.72C711.909 244.72 705.271 238.083 705.271 229.894C705.271 221.706 711.909 215.068 720.097 215.068C728.285 215.068 734.923 221.706 734.923 229.894C734.923 238.083 728.285 244.72 720.097 244.72Z" fill="#4F27AA"/>
<path d="M437.52 507.171C431.828 507.171 427.213 502.813 427.213 497.436C427.213 492.06 431.828 487.701 437.52 487.701C443.213 487.701 447.827 492.06 447.827 497.436C447.827 502.813 443.213 507.171 437.52 507.171Z" fill="#E1E4E5"/>
<path d="M127.173 430.894C122.603 430.894 118.899 427.189 118.899 422.62C118.899 418.05 122.603 414.346 127.173 414.346C131.742 414.346 135.447 418.05 135.447 422.62C135.447 427.189 131.742 430.894 127.173 430.894Z" fill="#E1E4E5"/>
<path d="M515.617 501.706C512.888 501.706 510.675 499.494 510.675 496.764C510.675 494.035 512.888 491.822 515.617 491.822C518.346 491.822 520.559 494.035 520.559 496.764C520.559 499.494 518.346 501.706 515.617 501.706Z" fill="#E1E4E5"/>
<path d="M513.613 123.667C509.714 123.667 506.553 120.506 506.553 116.607C506.553 112.708 509.714 109.547 513.613 109.547C517.512 109.547 520.673 112.708 520.673 116.607C520.673 120.506 517.512 123.667 513.613 123.667Z" fill="#E1E4E5"/>
<path d="M189.88 486.122C190.866 489.802 188.682 493.585 185.002 494.572C181.321 495.558 177.538 493.374 176.552 489.693C175.566 486.013 177.75 482.23 181.431 481.244C185.111 480.258 188.894 482.442 189.88 486.122Z" fill="#E1E4E5"/>
<path d="M204.552 240.215C199.483 240.215 195.374 236.106 195.374 231.037C195.374 225.969 199.483 221.859 204.552 221.859C209.621 221.859 213.73 225.969 213.73 231.037C213.73 236.106 209.621 240.215 204.552 240.215Z" fill="#E1E4E5"/>
<path d="M774.94 327.583C771.041 327.583 767.88 325.054 767.88 321.935C767.88 318.816 771.041 316.287 774.94 316.287C778.839 316.287 782 318.816 782 321.935C782 325.054 778.839 327.583 774.94 327.583Z" fill="#E1E4E5"/>
<path d="M672.988 429.442C675.041 437.102 670.495 444.975 662.836 447.027C655.176 449.08 647.303 444.534 645.251 436.875C643.198 429.215 647.744 421.342 655.403 419.29C663.063 417.237 670.936 421.783 672.988 429.442Z" fill="#E1E4E5"/>
<path d="M706.432 298.674H706.616C707.71 314.169 719.234 314.408 719.234 314.408C719.234 314.408 706.526 314.656 706.526 332.561C706.526 314.656 693.819 314.408 693.819 314.408C693.819 314.408 705.338 314.169 706.432 298.674ZM347.827 103.365H348.007C349.075 119.13 360.331 119.373 360.331 119.373C360.331 119.373 347.919 119.625 347.919 137.841C347.919 119.625 335.508 119.373 335.508 119.373C335.508 119.373 346.759 119.13 347.827 103.365ZM135.565 315.626H135.746C136.814 331.391 148.069 331.634 148.069 331.634C148.069 331.634 135.658 331.886 135.658 350.102C135.658 331.886 123.246 331.634 123.246 331.634C123.246 331.634 134.497 331.391 135.565 315.626ZM764.319 163H764.499C765.568 178.765 776.823 179.008 776.823 179.008C776.823 179.008 764.411 179.26 764.411 197.476C764.411 179.26 752 179.008 752 179.008C752 179.008 763.251 178.765 764.319 163ZM204.578 285.745H204.713C205.511 297.524 213.921 297.705 213.921 297.705C213.921 297.705 204.648 297.894 204.648 311.505C204.648 297.894 195.374 297.705 195.374 297.705C195.374 297.705 203.78 297.524 204.578 285.745Z" fill="#E1E4E5"/>
</g>
<defs>
<linearGradient id="paint0_linear_1235_22462" x1="416.662" y1="149.732" x2="416.662" y2="485.931" gradientUnits="userSpaceOnUse">
<stop stop-color="#8B6EE7"/>
<stop offset="1" stop-color="#5C30D6"/>
</linearGradient>
<linearGradient id="paint1_linear_1235_22462" x1="172.558" y1="428.146" x2="288.561" y2="373.342" gradientUnits="userSpaceOnUse">
<stop stop-color="white"/>
<stop offset="1" stop-color="#EEEEEE"/>
</linearGradient>
<linearGradient id="paint2_linear_1235_22462" x1="311.363" y1="206.496" x2="152.713" y2="39.2026" gradientUnits="userSpaceOnUse">
<stop stop-color="white"/>
<stop offset="1" stop-color="#EEEEEE"/>
</linearGradient>
<linearGradient id="paint3_linear_1235_22462" x1="638.161" y1="199.321" x2="725.194" y2="62.8896" gradientUnits="userSpaceOnUse">
<stop stop-color="white"/>
<stop offset="1" stop-color="#EEEEEE"/>
</linearGradient>
<clipPath id="clip0_1235_22462">
<rect width="900" height="600" fill="white"/>
</clipPath>
</defs>
</svg>
