<svg width="900" height="600" viewBox="0 0 900 600" fill="none" xmlns="http://www.w3.org/2000/svg">
<g clip-path="url(#clip0_1235_18111)">
<path d="M697.861 354.379C701.303 417.801 577.307 546.763 424.474 499.03C353.393 476.828 359.414 439.977 305.364 391.411C273.147 362.465 226.857 340.577 213.983 298.502C202.861 262.185 209.681 223.149 228.963 197.759C272.328 140.658 359.873 101.558 446.133 191.525C532.393 281.492 688.966 190.808 697.861 354.379Z" fill="url(#paint0_linear_1235_18111)"/>
<path d="M644.056 191.92C632.694 212.199 607.808 214.985 567.94 211.131C537.957 208.228 510.614 205.981 480.628 189.632C459.64 178.197 443.027 162.726 430.901 147.7C417.761 131.422 399.42 112.844 408.411 94.388C420.767 69.034 492.22 47.68 561.603 82.6C637.82 120.971 655.172 172.1 644.056 191.92Z" fill="url(#paint1_linear_1235_18111)"/>
<path d="M304.876 516.864C277.006 477.874 248.463 436.435 211.096 416.024C172.552 394.961 165.444 407.942 162.776 428.581C160.108 449.219 171.999 498.119 224.6 525.941C277.215 553.771 330.953 553.354 304.876 516.864Z" fill="url(#paint2_linear_1235_18111)"/>
<path d="M708.176 253.491C688.452 258.163 667.592 241.436 667.592 241.436C667.592 241.436 678.724 217.143 698.454 212.485C718.177 207.812 739.031 224.525 739.031 224.525C739.031 224.525 727.899 248.818 708.176 253.491Z" fill="url(#paint3_linear_1235_18111)"/>
<path d="M740.872 435.733C758.754 448.049 786.072 439.44 786.072 439.44C786.072 439.44 784.38 410.864 766.487 398.559C748.605 386.243 721.299 394.84 721.299 394.84C721.299 394.84 722.99 423.416 740.872 435.733Z" fill="url(#paint4_linear_1235_18111)"/>
<path d="M133.966 308.878C153.351 328.608 189.602 324.448 189.602 324.448C189.602 324.448 194.399 288.299 174.995 268.58C155.61 248.85 119.377 252.998 119.377 252.998C119.377 252.998 114.58 289.147 133.966 308.878Z" fill="url(#paint5_linear_1235_18111)"/>
<path d="M727.4 315.838C719.443 315.838 712.993 322.008 712.993 329.618C712.993 337.229 719.443 343.398 727.4 343.398C735.357 343.398 741.807 337.229 741.807 329.618C741.807 322.008 735.357 315.838 727.4 315.838Z" fill="#4F27AA"/>
<path d="M242.228 428.34C231.504 428.34 222.81 436.753 222.81 447.131C222.81 457.509 231.504 465.922 242.228 465.922C252.952 465.922 261.646 457.509 261.646 447.131C261.646 436.753 252.952 428.34 242.228 428.34Z" fill="#4F27AA"/>
<path d="M230.907 206.739C223.097 206.739 216.766 200.408 216.766 192.598C216.766 184.788 223.097 178.457 230.907 178.457C238.717 178.457 245.048 184.788 245.048 192.598C245.048 200.408 238.717 206.739 230.907 206.739Z" fill="#4F27AA"/>
<path d="M539.981 156.476C532.716 156.476 526.827 150.587 526.827 143.322C526.827 136.057 532.716 130.168 539.981 130.168C547.246 130.168 553.135 136.057 553.135 143.322C553.135 150.587 547.246 156.476 539.981 156.476Z" fill="#4F27AA"/>
<path d="M698.533 465.685C692 465.685 686.703 460.389 686.703 453.855C686.703 447.322 692 442.025 698.533 442.025C705.067 442.025 710.363 447.322 710.363 453.855C710.363 460.389 705.067 465.685 698.533 465.685Z" fill="#E1E4E5"/>
<path d="M203.6 373.587C196.728 373.587 191.157 368.016 191.157 361.144C191.157 354.272 196.728 348.701 203.6 348.701C210.472 348.701 216.043 354.272 216.043 361.144C216.043 368.016 210.472 373.587 203.6 373.587Z" fill="#E1E4E5"/>
<path d="M340.129 514.321C336.743 514.321 333.998 511.576 333.998 508.19C333.998 504.804 336.743 502.059 340.129 502.059C343.515 502.059 346.26 504.804 346.26 508.19C346.26 511.576 343.515 514.321 340.129 514.321Z" fill="#E1E4E5"/>
<path d="M636.445 156.64C631.277 156.64 627.087 152.45 627.087 147.282C627.087 142.114 631.277 137.924 636.445 137.924C641.613 137.924 645.803 142.114 645.803 147.282C645.803 152.45 641.613 156.64 636.445 156.64Z" fill="#E1E4E5"/>
<path d="M243.455 286.418C244.33 289.683 242.392 293.04 239.127 293.914C235.861 294.789 232.505 292.852 231.63 289.586C230.755 286.321 232.693 282.965 235.958 282.09C239.223 281.215 242.58 283.152 243.455 286.418Z" fill="#E1E4E5"/>
<path d="M345.354 146.454C340.857 146.454 337.211 142.808 337.211 138.311C337.211 133.814 340.857 130.168 345.354 130.168C349.851 130.168 353.497 133.814 353.497 138.311C353.497 142.808 349.851 146.454 345.354 146.454Z" fill="#E1E4E5"/>
<path d="M628.56 314.032C625.1 314.032 622.296 311.788 622.296 309.021C622.296 306.253 625.1 304.01 628.56 304.01C632.019 304.01 634.824 306.253 634.824 309.021C634.824 311.788 632.019 314.032 628.56 314.032Z" fill="#E1E4E5"/>
<path d="M511.358 84.2244C513.179 91.0202 509.146 98.0055 502.35 99.8264C495.554 101.647 488.569 97.6144 486.748 90.8186C484.927 84.0228 488.96 77.0375 495.756 75.2166C502.551 73.3956 509.537 77.4286 511.358 84.2244Z" fill="#E1E4E5"/>
<path d="M774.13 258.004H774.294C775.264 271.752 785.489 271.964 785.489 271.964C785.489 271.964 774.214 272.184 774.214 288.07C774.214 272.184 762.94 271.964 762.94 271.964C762.94 271.964 773.16 271.752 774.13 258.004ZM302.44 68.7227H302.722C304.393 92.7827 322.002 93.1527 322.002 93.1527C322.002 93.1527 302.585 93.5377 302.585 121.339C302.585 93.5387 283.167 93.1527 283.167 93.1527C283.167 93.1527 300.769 92.7827 302.44 68.7227Z" fill="#E1E4E5"/>
<path fill-rule="evenodd" clip-rule="evenodd" d="M398.491 151.489L410.177 125.014C417.274 108.913 433.121 98.5391 450.609 98.5391C468.097 98.5391 483.944 108.913 491.041 125.014L502.727 151.489C506.872 160.866 513.868 168.697 522.721 173.868C531.601 179.033 541.896 181.236 552.112 180.157L580.704 177.091C598.091 175.238 614.931 183.878 623.668 199.135C632.417 214.383 631.425 233.393 621.136 247.632L604.208 271.063C598.175 279.484 594.956 289.596 595.01 299.955C595.005 310.286 598.254 320.356 604.296 328.736L621.225 352.167C631.514 366.406 632.506 385.416 623.757 400.664C615.02 415.921 598.18 424.56 580.792 422.708L552.201 419.642C541.985 418.563 531.69 420.765 522.81 425.93C513.939 431.13 506.941 439.003 502.816 448.422L491.041 474.897C483.944 490.998 468.097 501.372 450.609 501.372C433.121 501.372 417.274 490.998 410.177 474.897L398.491 448.422C394.366 439.003 387.367 431.13 378.497 425.93C369.617 420.765 359.322 418.563 349.106 419.642L320.426 422.708C303.038 424.56 286.199 415.921 277.461 400.664C268.712 385.416 269.705 366.406 279.993 352.167L296.922 328.736C302.964 320.356 306.213 310.286 306.208 299.955C306.213 289.624 302.964 279.555 296.922 271.175L279.993 247.744C269.705 233.505 268.712 214.495 277.461 199.247C286.207 183.999 303.04 175.362 320.426 177.203L349.017 180.269C359.233 181.348 369.528 179.145 378.408 173.98C387.312 168.795 394.343 160.921 398.491 151.489Z" fill="#4F27AA"/>
<path fill-rule="evenodd" clip-rule="evenodd" d="M450.609 407.778C392.088 407.778 344.647 359.504 344.647 299.956C344.647 240.408 392.088 192.135 450.609 192.135C509.13 192.135 556.571 240.408 556.571 299.956C556.571 359.504 509.13 407.778 450.609 407.778Z" fill="white"/>
<path fill-rule="evenodd" clip-rule="evenodd" d="M430.099 211.758C428.781 213.217 427.609 214.802 426.602 216.491C418.367 230.24 412.348 245.062 408.548 260.379C396.437 258.617 384.678 256.081 373.582 252.771C385.994 232.418 406.224 217.356 430.099 211.758ZM367.743 264.664C379.83 268.397 392.668 271.245 405.9 273.206C402.916 291.268 402.915 309.697 405.898 327.759C392.782 329.704 380.054 332.52 368.062 336.206C363.147 325.06 360.419 312.734 360.419 299.771C360.419 287.292 362.947 275.404 367.52 264.591C367.593 264.616 367.668 264.641 367.743 264.664ZM374.33 347.976C386.529 367.293 405.845 381.667 428.594 387.418C427.874 386.481 427.209 385.502 426.602 384.488C418.364 370.734 412.345 355.908 408.544 340.586C396.706 342.31 385.204 344.773 374.33 347.976ZM421.632 338.995C425.141 352.525 430.537 365.609 437.821 377.77L437.822 377.771C443.875 387.881 457.769 387.881 463.822 377.771L463.823 377.77C471.106 365.609 476.503 352.525 480.012 338.995C460.598 337.104 441.046 337.104 421.632 338.995ZM493.099 340.587C489.298 355.908 483.279 370.734 475.042 384.488C474.435 385.501 473.771 386.478 473.052 387.415C495.797 381.662 515.109 367.288 527.307 347.972C516.434 344.771 504.935 342.309 493.099 340.587ZM533.574 336.202C521.583 332.518 508.858 329.703 495.746 327.759C498.729 309.696 498.728 291.266 495.743 273.204C508.968 271.242 521.798 268.396 533.877 264.664C533.957 264.639 534.035 264.614 534.113 264.586C538.686 275.401 541.216 287.291 541.216 299.771C541.216 312.733 538.488 325.057 533.574 336.202ZM482.76 326.13C461.523 323.957 440.121 323.957 418.884 326.129C416.022 309.15 416.023 291.813 418.886 274.835C439.949 277.007 461.696 277.007 482.757 274.834C485.621 291.812 485.622 309.151 482.76 326.13ZM421.635 261.97C441.047 263.86 460.596 263.859 480.008 261.968C476.499 248.445 471.104 235.366 463.824 223.211C457.76 213.094 443.873 213.1 437.822 223.208L437.821 223.209C430.54 235.365 425.145 248.445 421.635 261.97ZM493.095 260.376C505.203 258.614 516.958 256.078 528.05 252.767C515.639 232.419 495.413 217.359 471.543 211.76C472.861 213.217 474.032 214.801 475.04 216.488L475.041 216.49C483.276 230.239 489.294 245.06 493.095 260.376Z" fill="#4F27AA"/>
</g>
<defs>
<linearGradient id="paint0_linear_1235_18111" x1="549.66" y1="734.543" x2="317.719" y2="-311.894" gradientUnits="userSpaceOnUse">
<stop stop-color="white"/>
<stop offset="1" stop-color="#EEEEEE"/>
</linearGradient>
<linearGradient id="paint1_linear_1235_18111" x1="567.51" y1="323.346" x2="466.232" y2="-131.754" gradientUnits="userSpaceOnUse">
<stop stop-color="white"/>
<stop offset="1" stop-color="#EEEEEE"/>
</linearGradient>
<linearGradient id="paint2_linear_1235_18111" x1="273.756" y1="644.857" x2="182.317" y2="222.001" gradientUnits="userSpaceOnUse">
<stop stop-color="white"/>
<stop offset="1" stop-color="#EEEEEE"/>
</linearGradient>
<linearGradient id="paint3_linear_1235_18111" x1="633.903" y1="265.108" x2="806.561" y2="183.539" gradientUnits="userSpaceOnUse">
<stop stop-color="white"/>
<stop offset="1" stop-color="#EEEEEE"/>
</linearGradient>
<linearGradient id="paint4_linear_1235_18111" x1="810.528" y1="476.145" x2="669.769" y2="327.719" gradientUnits="userSpaceOnUse">
<stop stop-color="white"/>
<stop offset="1" stop-color="#EEEEEE"/>
</linearGradient>
<linearGradient id="paint5_linear_1235_18111" x1="211.31" y1="376.273" x2="71.1641" y2="156.582" gradientUnits="userSpaceOnUse">
<stop stop-color="white"/>
<stop offset="1" stop-color="#EEEEEE"/>
</linearGradient>
<clipPath id="clip0_1235_18111">
<rect width="900" height="600" fill="white"/>
</clipPath>
</defs>
</svg>
