<svg width="900" height="600" viewBox="0 0 900 600" fill="none" xmlns="http://www.w3.org/2000/svg">
<g clip-path="url(#clip0_1235_22483)">
<path d="M462.932 200.334C459.747 218.206 441.198 233.925 441.198 233.925C441.198 233.925 425.991 212.18 429.176 194.308C432.373 176.432 442.503 163.292 451.828 164.961C461.149 166.618 466.117 182.461 462.932 200.334ZM422.091 231.38C434.524 244.603 436.057 268.864 436.057 268.864C436.057 268.864 409.542 268.097 397.105 254.862C384.669 241.627 380.183 225.655 387.091 219.172C393.986 212.692 409.657 218.157 422.091 231.38ZM436.949 322.946C437.509 326.048 437.73 328.221 437.788 328.773C437.792 328.837 437.805 328.885 437.799 328.912L437.802 328.924C437.802 328.924 437.79 328.927 437.787 328.915L437.7 328.926C437.412 328.913 436.553 328.885 435.255 328.807C428.309 328.358 408.89 326.194 398.594 315.65C385.914 302.66 381.135 286.754 387.908 280.152C394.678 273.538 410.45 278.706 423.13 291.695C428.806 297.516 432.346 305.574 434.507 312.724C435.525 316.08 436.34 319.493 436.949 322.946ZM475.794 264.177C459.997 273.12 436.06 268.876 436.06 268.876C436.06 268.876 443.1 243.286 458.897 234.344C474.694 225.401 491.276 224.829 495.947 233.061C500.62 241.306 491.591 255.235 475.794 264.177Z" fill="#E1E4E5"/>
<path d="M474.021 320.015C459.245 330.554 435 328.819 435 328.819C435 328.819 439.339 302.637 454.115 292.097C468.891 281.558 485.332 279.255 490.831 286.969C496.33 294.682 488.809 309.472 474.021 320.015Z" fill="#E1E4E5"/>
<path d="M444.327 226.583C444.24 226.839 437.246 251.538 439.651 314.351C439.825 318.95 440.057 323.765 440.341 328.773L440.036 328.79L437.798 328.912L437.795 328.9L437.783 328.903L437.695 328.914C437.408 328.901 436.549 328.873 435.25 328.795C434.942 323.437 434.693 318.076 434.502 312.712C432.228 250.289 439.138 226.193 439.444 225.117L444.327 226.583ZM562.198 286.66C557.179 299.61 563.06 317.258 563.06 317.258C563.06 317.258 581.643 309.084 586.662 296.133C591.675 283.176 590.273 270.56 583.513 267.946C576.761 265.325 567.217 273.709 562.198 286.66ZM576.564 323.186C563.181 326.891 552.539 342.143 552.539 342.143C552.539 342.143 570.178 352.178 583.568 348.466C596.958 344.755 606.238 336.095 604.298 329.112C602.364 322.135 589.947 319.482 576.564 323.186ZM530.466 377.147C528.867 378.953 527.859 380.286 527.602 380.624C527.574 380.664 527.547 380.69 527.54 380.71L527.533 380.717C527.533 380.717 527.539 380.723 527.546 380.717L527.599 380.759C527.792 380.864 528.365 381.187 529.245 381.652C533.964 384.119 547.52 390.42 558.441 387.617C571.893 384.164 581.337 375.663 579.532 368.655C577.735 361.641 565.37 358.753 551.918 362.206C545.895 363.757 540.379 367.618 536.125 371.434C534.126 373.224 532.236 375.131 530.466 377.147ZM528.421 323.289C535.196 335.413 552.532 342.149 552.532 342.149C552.532 342.149 558.098 322.622 551.323 310.498C544.548 298.375 533.934 291.412 527.61 294.938C521.278 298.471 521.647 311.166 528.421 323.289Z" fill="#E1E4E5"/>
<path d="M507.394 360.5C512.866 373.262 529.408 381.761 529.408 381.761C529.408 381.761 536.974 362.92 531.502 350.158C526.029 337.396 516.195 329.358 509.535 332.216C502.875 335.074 501.915 347.731 507.394 360.5Z" fill="#E1E4E5"/>
<path d="M563.932 311.215C563.887 311.416 558.645 330.344 532.114 370.455C530.082 373.526 528.022 376.577 525.932 379.609L526.125 379.742L527.54 380.711L527.547 380.704L527.553 380.711L527.606 380.753C527.799 380.858 528.372 381.182 529.252 381.647C531.582 378.266 533.876 374.86 536.132 371.429C562.422 331.522 567.479 313.021 567.707 312.197L563.932 311.215Z" fill="#E1E4E5"/>
<path d="M354.286 258.965C354.286 258.965 346.055 229.503 357.733 215.925C370.275 201.318 380.082 215.344 370.373 235.775C363.715 249.801 354.286 258.965 354.286 258.965ZM349.897 291.836C349.897 291.836 322.967 277.251 321.395 259.464C319.693 240.354 336.634 243.089 344.528 264.236C349.917 278.736 349.897 291.836 349.897 291.836ZM350.278 311.284C350.278 311.284 379.02 300.436 383.107 283.041C387.508 264.334 370.325 264.784 359.524 284.662C352.132 298.295 350.278 311.284 350.278 311.284ZM351.952 325.319C351.952 325.319 321.319 323.392 312.397 307.953C302.8 291.342 319.366 286.737 335.433 302.576C346.443 313.418 351.952 325.319 351.952 325.319Z" fill="#4F27AA"/>
<path d="M359.909 232.515C354.267 251.166 350.076 270.3 348.965 289.765C347.877 308.927 349.859 328.092 353.954 346.803C355.028 351.711 356.23 356.59 357.558 361.436L359.4 360.441C355.93 347.564 353.201 334.473 351.788 321.192C349.81 302.73 350.577 284.095 353.833 265.819C355.81 254.758 358.605 243.857 361.855 233.106C362.236 231.84 360.282 231.275 359.909 232.515Z" fill="#2E2445"/>
<mask id="mask0_1235_22483" style="mask-type:alpha" maskUnits="userSpaceOnUse" x="295" y="214" width="298" height="298">
<path d="M444.112 511.357C525.959 511.357 592.309 445.007 592.309 363.16C592.309 281.313 525.959 214.963 444.112 214.963C362.265 214.963 295.915 281.313 295.915 363.16C295.915 445.007 362.265 511.357 444.112 511.357Z" fill="#C4C4C4"/>
</mask>
<g mask="url(#mask0_1235_22483)">
<path d="M473.334 621.982C555.181 621.982 621.531 555.632 621.531 473.785C621.531 391.938 555.181 325.588 473.334 325.588C391.487 325.588 325.137 391.938 325.137 473.785C325.137 555.632 391.487 621.982 473.334 621.982Z" fill="#4F27AA"/>
<path d="M410.314 522.762C468.783 522.762 516.182 477.338 516.182 421.305C516.182 365.272 468.783 319.848 410.314 319.848C351.845 319.848 304.446 365.272 304.446 421.305C304.446 477.338 351.845 522.762 410.314 522.762Z" fill="#E1E4E5"/>
<path d="M426.37 653.292C508.217 653.292 574.567 586.942 574.567 505.095C574.567 423.249 508.217 356.898 426.37 356.898C344.523 356.898 278.173 423.249 278.173 505.095C278.173 586.942 344.523 653.292 426.37 653.292Z" fill="#2E2445"/>
<path d="M279.035 322.996C279.035 322.996 254.827 287.898 264.062 264.707C273.969 239.769 293.255 253.807 289.722 285.138C287.307 306.642 279.035 322.996 279.035 322.996ZM288.154 368.309C288.154 368.309 246.048 361.298 235.91 338.567C225.003 314.152 248.571 310.075 268.563 334.367C282.241 351.034 288.154 368.309 288.154 368.309ZM297.476 393.768C297.476 393.768 330.438 366.439 327.938 341.66C325.255 315.009 302.813 323.392 297.591 354.489C294.03 375.808 297.476 393.768 297.476 393.768ZM306.045 411.507C306.045 411.507 264.799 422.857 246.039 406.555C225.858 389.013 245.604 375.432 273.962 389.023C293.389 398.32 306.045 411.507 306.045 411.507Z" fill="#4F27AA"/>
<path d="M274.452 285.583C275.472 312.721 278.625 339.84 285.986 365.999C293.241 391.746 304.544 416.108 318.425 438.911C322.055 444.899 325.881 450.788 329.81 456.563L331.786 454.417C321.375 439.018 311.842 423.003 303.957 406.138C292.979 382.703 285.54 357.794 281.545 332.231C279.135 316.756 277.876 301.122 277.285 285.478C277.213 283.637 274.382 283.778 274.452 285.583Z" fill="#2E2445"/>
<path d="M536.093 256.793C536.093 256.793 548.729 216.072 532.996 196.691C516.1 175.844 501.881 194.996 514.599 223.847C523.319 243.651 536.093 256.793 536.093 256.793ZM540.908 302.763C540.908 302.763 579.005 283.509 581.9 258.789C585.027 232.233 561.316 235.372 549.481 264.522C541.398 284.51 540.908 302.763 540.908 302.763ZM539.605 329.844C539.605 329.844 499.99 313.592 494.985 289.195C489.595 262.958 513.516 264.265 527.777 292.388C537.536 311.673 539.605 329.844 539.605 329.844ZM536.718 349.331C536.718 349.331 579.472 347.859 592.514 326.703C606.544 303.94 583.645 296.868 560.633 318.3C544.864 332.968 536.718 349.331 536.718 349.331Z" fill="#4F27AA"/>
<path d="M529.307 219.718C536.429 245.926 541.51 272.75 542.288 299.914C543.044 326.653 539.523 353.277 533.077 379.183C531.398 385.981 529.504 392.743 527.477 399.428L524.95 397.969C530.294 380.165 534.614 362.035 537.109 343.587C540.596 317.943 540.266 291.95 536.453 266.358C534.136 250.869 530.674 235.572 526.571 220.463C526.091 218.685 528.836 217.975 529.307 219.718Z" fill="#2E2445"/>
<path d="M290.466 476.063C282.942 476.063 276.842 482.162 276.842 489.687C276.842 497.211 282.942 503.311 290.466 503.311C297.99 503.311 304.09 497.211 304.09 489.687C304.09 482.162 297.99 476.063 290.466 476.063Z" fill="#4F27AA"/>
<path d="M588.172 491.057C583.655 491.057 579.993 487.7 579.993 483.56C579.993 479.419 583.655 476.062 588.172 476.062C592.689 476.062 596.351 479.419 596.351 483.56C596.351 487.7 592.689 491.057 588.172 491.057Z" fill="#E1E4E5"/>
<path d="M305.607 210.627C306.906 215.475 304.029 220.458 299.18 221.757C294.332 223.056 289.349 220.179 288.05 215.331C286.751 210.483 289.628 205.5 294.476 204.201C299.324 202.902 304.308 205.779 305.607 210.627Z" fill="#E1E4E5"/>
</g>
</g>
<defs>
<clipPath id="clip0_1235_22483">
<rect width="900" height="600" fill="white"/>
</clipPath>
</defs>
</svg>
