<svg width="900" height="600" viewBox="0 0 900 600" fill="none" xmlns="http://www.w3.org/2000/svg">
<g clip-path="url(#clip0_1235_22517)">
<path d="M450.067 473.801C545.136 473.801 622.205 396.733 622.205 301.663C622.205 206.594 545.136 129.525 450.067 129.525C354.998 129.525 277.929 206.594 277.929 301.663C277.929 396.733 354.998 473.801 450.067 473.801Z" fill="#4F27AA" stroke="#4F27AA" stroke-width="29.873" stroke-linecap="round" stroke-linejoin="round"/>
<path d="M468.284 237.912L431.853 365.421M390.846 319.876L354.43 283.459L390.846 247.023M509.257 356.312L545.693 319.876L509.257 283.459" stroke="white" stroke-width="23.898" stroke-linecap="round" stroke-linejoin="round"/>
<path d="M170.914 268.001H222.696M222.696 242.111H188.175M222.696 216.219H214.066" stroke="#E1E4E5" stroke-width="11.867" stroke-linecap="round" stroke-linejoin="round"/>
<path d="M594.607 515.942C587.819 520.615 577.452 517.345 577.452 517.345C577.452 517.345 578.096 506.5 584.888 501.831C591.676 497.158 602.039 500.424 602.039 500.424C602.039 500.424 601.394 511.269 594.607 515.942Z" fill="url(#paint0_linear_1235_22517)"/>
<path d="M755.4 254.916C763.095 249.646 763.855 237.366 763.855 237.366C763.855 237.366 752.138 233.638 744.446 238.915C736.751 244.185 735.987 256.458 735.987 256.458C735.987 256.458 747.705 260.186 755.4 254.916Z" fill="url(#paint1_linear_1235_22517)"/>
<path d="M201.255 398.437C214.563 386.939 213.397 363.768 213.397 363.768C213.397 363.768 190.655 359.255 177.354 370.764C164.047 382.262 165.205 405.421 165.205 405.421C165.205 405.421 187.948 409.935 201.255 398.437Z" fill="url(#paint2_linear_1235_22517)"/>
<path d="M387.431 529.502C381.651 529.502 376.965 524.817 376.965 519.036C376.965 513.256 381.651 508.57 387.431 508.57C393.211 508.57 397.897 513.256 397.897 519.036C397.897 524.817 393.211 529.502 387.431 529.502Z" fill="#E1E4E5"/>
<path d="M687.054 275.894C682.418 275.894 678.659 272.135 678.659 267.499C678.659 262.862 682.418 259.104 687.054 259.104C691.69 259.104 695.449 262.862 695.449 267.499C695.449 272.135 691.69 275.894 687.054 275.894Z" fill="#E1E4E5"/>
<path d="M689.158 134.275C686.191 134.275 683.785 131.87 683.785 128.902C683.785 125.935 686.191 123.529 689.158 123.529C692.125 123.529 694.531 125.935 694.531 128.902C694.531 131.87 692.125 134.275 689.158 134.275Z" fill="#E1E4E5"/>
<path d="M509.636 524.713C506.669 524.713 504.263 522.307 504.263 519.34C504.263 516.372 506.669 513.967 509.636 513.967C512.603 513.967 515.009 516.372 515.009 519.34C515.009 522.307 512.603 524.713 509.636 524.713Z" fill="#E1E4E5"/>
<path d="M641.249 492.348C638.282 492.348 635.876 489.942 635.876 486.975C635.876 484.007 638.282 481.602 641.249 481.602C644.216 481.602 646.622 484.007 646.622 486.975C646.622 489.942 644.216 492.348 641.249 492.348Z" fill="#E1E4E5"/>
<path d="M225.216 449.96C219.059 449.96 214.067 444.969 214.067 438.811C214.067 432.654 219.059 427.662 225.216 427.662C231.373 427.662 236.365 432.654 236.365 438.811C236.365 444.969 231.373 449.96 225.216 449.96Z" fill="#E1E4E5"/>
<path d="M300.318 499.64C295.582 499.64 291.742 496.568 291.742 492.779C291.742 488.99 295.582 485.918 300.318 485.918C305.054 485.918 308.894 488.99 308.894 492.779C308.894 496.568 305.054 499.64 300.318 499.64Z" fill="#E1E4E5"/>
<path d="M564.817 94.9277C564.817 99.8734 560.808 103.883 555.862 103.883C550.916 103.883 546.907 99.8734 546.907 94.9277C546.907 89.9819 550.916 85.9727 555.862 85.9727C560.808 85.9727 564.817 89.9819 564.817 94.9277Z" fill="#E1E4E5"/>
<path d="M722.399 297.13H722.623C723.952 315.955 737.951 316.245 737.951 316.245C737.951 316.245 722.514 316.546 722.514 338.297C722.514 316.546 707.076 316.245 707.076 316.245C707.076 316.245 721.07 315.955 722.399 297.13ZM651.516 179.614H651.741C653.069 198.439 667.069 198.728 667.069 198.728C667.069 198.728 651.631 199.03 651.631 220.781C651.631 199.03 636.194 198.728 636.194 198.728C636.194 198.728 650.188 198.439 651.516 179.614ZM353.331 71H353.493C354.451 84.774 364.547 84.987 364.547 84.987C364.547 84.987 353.414 85.207 353.414 101.123C353.414 85.207 342.282 84.987 342.282 84.987C342.282 84.987 352.373 84.774 353.331 71ZM177.262 303.361H177.424C178.382 317.136 188.478 317.348 188.478 317.348C188.478 317.348 177.345 317.568 177.345 333.484C177.345 317.568 166.213 317.348 166.213 317.348C166.213 317.348 176.304 317.136 177.262 303.361Z" fill="#E1E4E5"/>
<path fill-rule="evenodd" clip-rule="evenodd" d="M666.147 408.642H669.947C670.387 408.642 670.809 408.817 671.12 409.128C671.431 409.439 671.606 409.861 671.606 410.301V414.101C671.606 414.54 671.431 414.962 671.12 415.273C670.809 415.584 670.387 415.759 669.947 415.76H666.147C665.708 415.758 665.287 415.582 664.976 415.272C664.665 414.961 664.49 414.54 664.488 414.101V410.301C664.488 410.083 664.53 409.867 664.613 409.665C664.697 409.464 664.819 409.281 664.973 409.127C665.127 408.972 665.31 408.85 665.512 408.767C665.713 408.684 665.929 408.641 666.147 408.642ZM679.323 408.642H683.123C684.034 408.642 684.782 409.39 684.782 410.301V414.101C684.782 414.54 684.607 414.962 684.296 415.273C683.985 415.584 683.563 415.759 683.123 415.76H679.323C678.884 415.758 678.463 415.582 678.152 415.272C677.841 414.961 677.666 414.54 677.664 414.101V410.301C677.664 409.39 678.412 408.642 679.323 408.642ZM692.508 408.642H696.308C697.219 408.642 697.967 409.39 697.967 410.301V414.101C697.967 414.54 697.792 414.962 697.481 415.273C697.17 415.584 696.748 415.759 696.308 415.76H692.508C692.068 415.758 691.647 415.583 691.337 415.272C691.026 414.961 690.851 414.54 690.849 414.101V410.301C690.848 410.083 690.891 409.867 690.974 409.665C691.057 409.464 691.18 409.28 691.334 409.126C691.488 408.972 691.671 408.85 691.872 408.767C692.074 408.684 692.29 408.641 692.508 408.642ZM705.683 408.642H709.484C710.395 408.642 711.142 409.39 711.142 410.301V414.101C711.142 414.54 710.967 414.962 710.656 415.273C710.345 415.584 709.924 415.759 709.484 415.76H705.683C705.242 415.759 704.82 415.585 704.508 415.274C704.195 414.963 704.019 414.541 704.017 414.101V410.301C704.022 409.861 704.199 409.44 704.511 409.13C704.822 408.82 705.243 408.644 705.683 408.642ZM718.86 408.642H722.66C723.579 408.642 724.327 409.39 724.327 410.301V414.101C724.327 415.02 723.579 415.76 722.66 415.76H718.86C718.421 415.758 718 415.582 717.689 415.272C717.378 414.961 717.203 414.54 717.201 414.101V410.301C717.201 409.39 717.949 408.642 718.86 408.642ZM679.806 423.01H683.606C684.518 423.01 685.265 423.757 685.265 424.668V428.477C685.265 429.388 684.518 430.135 683.606 430.135H679.806C679.366 430.134 678.945 429.96 678.634 429.649C678.322 429.338 678.147 428.916 678.147 428.477V424.676C678.146 424.457 678.188 424.24 678.271 424.038C678.354 423.836 678.476 423.652 678.63 423.497C678.784 423.342 678.967 423.22 679.169 423.136C679.371 423.052 679.587 423.009 679.806 423.01ZM692.982 423.01H696.782C697.694 423.01 698.441 423.757 698.441 424.668V428.477C698.441 429.388 697.694 430.135 696.782 430.135H692.982C692.543 430.133 692.122 429.958 691.811 429.647C691.5 429.337 691.325 428.916 691.323 428.477V424.676C691.322 424.457 691.364 424.24 691.447 424.038C691.53 423.836 691.652 423.652 691.806 423.497C691.96 423.342 692.143 423.22 692.345 423.136C692.547 423.052 692.763 423.009 692.982 423.01ZM706.159 423.01H709.959C710.878 423.01 711.626 423.757 711.626 424.668V428.477C711.626 429.388 710.878 430.135 709.959 430.135H706.159C705.72 430.133 705.299 429.958 704.988 429.647C704.677 429.337 704.502 428.916 704.5 428.477V424.676C704.5 423.757 705.248 423.01 706.159 423.01ZM692.508 393.207H696.308C697.219 393.207 697.967 393.955 697.967 394.866V398.666C697.967 399.105 697.792 399.527 697.481 399.838C697.17 400.149 696.748 400.324 696.308 400.325H692.508C692.068 400.323 691.647 400.148 691.337 399.837C691.026 399.526 690.851 399.105 690.849 398.666V394.866C690.848 394.648 690.891 394.432 690.974 394.23C691.057 394.029 691.18 393.845 691.334 393.691C691.488 393.537 691.671 393.415 691.872 393.332C692.074 393.249 692.29 393.206 692.508 393.207ZM705.683 393.207H709.484C710.395 393.207 711.142 393.955 711.142 394.866V398.666C711.142 399.105 710.967 399.527 710.656 399.838C710.345 400.149 709.924 400.324 709.484 400.325H705.683C705.242 400.324 704.82 400.15 704.508 399.839C704.195 399.528 704.019 399.106 704.017 398.666V394.866C704.022 394.426 704.199 394.005 704.511 393.695C704.822 393.385 705.243 393.209 705.683 393.207ZM224.567 126.58H228.367C228.807 126.58 229.228 126.755 229.539 127.065C229.85 127.376 230.025 127.798 230.026 128.238V132.039C230.025 132.478 229.85 132.9 229.539 133.211C229.228 133.522 228.807 133.696 228.367 133.697H224.567C224.128 133.695 223.707 133.52 223.396 133.209C223.085 132.899 222.91 132.478 222.908 132.039V128.238C222.908 128.02 222.95 127.804 223.033 127.602C223.117 127.401 223.239 127.218 223.393 127.064C223.547 126.91 223.73 126.788 223.932 126.705C224.133 126.622 224.349 126.579 224.567 126.58ZM237.743 126.58H241.543C242.454 126.58 243.202 127.327 243.202 128.238V132.039C243.201 132.478 243.026 132.9 242.715 133.211C242.404 133.522 241.983 133.696 241.543 133.697H237.743C237.304 133.695 236.883 133.52 236.572 133.209C236.261 132.899 236.086 132.478 236.084 132.039V128.238C236.084 127.327 236.832 126.58 237.743 126.58ZM250.927 126.58H254.728C255.639 126.58 256.386 127.327 256.386 128.238V132.039C256.385 132.478 256.211 132.9 255.9 133.21C255.589 133.521 255.168 133.696 254.728 133.697H250.927C250.488 133.695 250.067 133.52 249.756 133.209C249.446 132.899 249.271 132.478 249.269 132.039V128.238C249.268 128.02 249.311 127.804 249.394 127.602C249.477 127.401 249.599 127.218 249.753 127.064C249.907 126.91 250.09 126.788 250.292 126.705C250.493 126.622 250.709 126.579 250.927 126.58ZM264.103 126.58H267.903C268.814 126.58 269.562 127.327 269.562 128.238V132.039C269.561 132.478 269.386 132.9 269.075 133.211C268.764 133.522 268.343 133.696 267.903 133.697H264.103C263.662 133.697 263.24 133.522 262.928 133.211C262.616 132.901 262.439 132.479 262.437 132.039V128.238C262.441 127.798 262.619 127.377 262.93 127.067C263.242 126.757 263.663 126.582 264.103 126.58ZM277.28 126.58H281.08C281.999 126.58 282.747 127.327 282.747 128.238V132.039C282.747 132.957 281.999 133.697 281.08 133.697H277.28C276.841 133.695 276.42 133.52 276.109 133.209C275.798 132.899 275.623 132.478 275.621 132.039V128.238C275.621 127.327 276.369 126.58 277.28 126.58ZM238.226 140.947H242.026C242.937 140.947 243.685 141.695 243.685 142.606V146.414C243.685 147.325 242.937 148.073 242.026 148.073H238.226C237.786 148.072 237.364 147.897 237.053 147.586C236.742 147.275 236.567 146.853 236.567 146.414V142.614C236.566 142.395 236.608 142.178 236.691 141.976C236.774 141.774 236.896 141.59 237.05 141.435C237.204 141.28 237.387 141.157 237.589 141.073C237.791 140.989 238.007 140.946 238.226 140.947ZM251.402 140.947H255.202C256.113 140.947 256.861 141.695 256.861 142.606V146.414C256.861 147.325 256.113 148.073 255.202 148.073H251.402C250.963 148.071 250.542 147.895 250.231 147.585C249.92 147.274 249.745 146.853 249.743 146.414V142.614C249.742 142.395 249.784 142.178 249.866 141.976C249.949 141.774 250.071 141.59 250.225 141.435C250.38 141.28 250.563 141.157 250.765 141.073C250.967 140.989 251.183 140.946 251.402 140.947ZM264.579 140.947H268.379C269.298 140.947 270.045 141.695 270.045 142.606V146.414C270.045 147.325 269.298 148.073 268.379 148.073H264.579C264.14 148.071 263.719 147.895 263.408 147.585C263.097 147.274 262.922 146.853 262.92 146.414V142.614C262.92 141.695 263.668 140.947 264.579 140.947ZM250.927 111.145H254.728C255.639 111.145 256.386 111.892 256.386 112.803V116.604C256.386 117.523 255.639 118.262 254.728 118.262H250.927C250.488 118.26 250.067 118.085 249.756 117.774C249.446 117.464 249.271 117.043 249.269 116.604V112.803C249.268 112.585 249.311 112.369 249.394 112.167C249.477 111.966 249.599 111.783 249.753 111.629C249.907 111.475 250.09 111.353 250.292 111.27C250.493 111.187 250.709 111.144 250.927 111.145ZM264.103 111.145H267.903C268.814 111.145 269.562 111.892 269.562 112.803V116.604C269.561 117.043 269.386 117.465 269.075 117.776C268.764 118.087 268.343 118.261 267.903 118.262H264.103C263.662 118.262 263.24 118.087 262.928 117.776C262.616 117.466 262.439 117.044 262.437 116.604V112.803C262.441 112.363 262.619 111.942 262.93 111.632C263.242 111.322 263.663 111.147 264.103 111.145Z" fill="#E1E4E5"/>
</g>
<defs>
<linearGradient id="paint0_linear_1235_22517" x1="568.167" y1="531.274" x2="621.602" y2="474.953" gradientUnits="userSpaceOnUse">
<stop stop-color="white"/>
<stop offset="1" stop-color="#EEEEEE"/>
</linearGradient>
<linearGradient id="paint1_linear_1235_22517" x1="782.342" y1="233.221" x2="701.132" y2="266.768" gradientUnits="userSpaceOnUse">
<stop stop-color="white"/>
<stop offset="1" stop-color="#EEEEEE"/>
</linearGradient>
<linearGradient id="paint2_linear_1235_22517" x1="247.163" y1="352.101" x2="102.067" y2="432.092" gradientUnits="userSpaceOnUse">
<stop stop-color="white"/>
<stop offset="1" stop-color="#EEEEEE"/>
</linearGradient>
<clipPath id="clip0_1235_22517">
<rect width="900" height="600" fill="white"/>
</clipPath>
</defs>
</svg>
