<svg width="900" height="600" viewBox="0 0 900 600" fill="none" xmlns="http://www.w3.org/2000/svg">
<g clip-path="url(#clip0_1235_22571)">
<path fill-rule="evenodd" clip-rule="evenodd" d="M535.298 169.506C602.621 169.506 647.764 232.398 647.764 290.964C647.764 409.848 460.341 507.183 456.927 507.183C453.513 507.183 266.09 409.848 266.09 290.964C266.09 232.398 311.233 169.506 378.557 169.506C417.042 169.506 442.317 188.605 456.927 205.616C471.537 188.605 496.812 169.506 535.298 169.506Z" fill="#4F27AA"/>
<path fill-rule="evenodd" clip-rule="evenodd" d="M498.477 249C534.108 249 558 282.339 558 313.384C558 376.403 458.807 428 457 428C455.193 428 356 376.403 356 313.384C356 282.339 379.892 249 415.523 249C435.891 249 449.268 259.125 457 268.142C464.732 259.125 478.109 249 498.477 249Z" fill="white"/>
<path fill-rule="evenodd" clip-rule="evenodd" d="M218.384 473.778H222.346C222.805 473.778 223.244 473.96 223.568 474.284C223.893 474.608 224.075 475.048 224.075 475.507V479.469C224.075 479.927 223.893 480.367 223.568 480.691C223.244 481.015 222.805 481.197 222.346 481.198H218.384C217.434 481.198 216.655 480.418 216.655 479.469V475.507C216.655 475.279 216.699 475.054 216.786 474.844C216.872 474.634 217 474.443 217.16 474.283C217.321 474.122 217.512 473.995 217.722 473.908C217.932 473.821 218.157 473.777 218.384 473.778ZM232.12 473.778H236.082C237.031 473.778 237.811 474.557 237.811 475.507V479.469C237.811 479.927 237.629 480.367 237.304 480.691C236.98 481.015 236.541 481.197 236.082 481.198H232.12C231.17 481.198 230.391 480.418 230.391 479.469V475.507C230.391 474.557 231.17 473.778 232.12 473.778ZM245.865 473.778H249.826C250.776 473.778 251.556 474.557 251.556 475.507V479.469C251.556 480.427 250.776 481.198 249.826 481.198H245.865C244.915 481.198 244.135 480.418 244.135 479.469V475.507C244.135 475.279 244.179 475.054 244.266 474.844C244.353 474.634 244.48 474.443 244.641 474.283C244.802 474.122 244.993 473.995 245.203 473.908C245.413 473.821 245.638 473.777 245.865 473.778ZM259.6 473.778H263.562C264.512 473.778 265.291 474.557 265.291 475.507V479.469C265.291 479.927 265.109 480.367 264.784 480.691C264.46 481.015 264.021 481.197 263.562 481.198H259.6C258.642 481.198 257.863 480.418 257.863 479.469V475.507C257.868 475.048 258.053 474.61 258.377 474.286C258.702 473.963 259.142 473.78 259.6 473.778ZM273.337 473.777H277.299C278.257 473.777 279.036 474.557 279.036 475.507V479.468C279.036 480.426 278.257 481.198 277.299 481.198H273.337C272.387 481.198 271.608 480.418 271.608 479.468V475.507C271.608 474.557 272.387 473.777 273.337 473.777ZM232.624 488.756H236.585C237.535 488.756 238.315 489.535 238.315 490.485V494.455C238.315 495.404 237.535 496.184 236.585 496.184H232.624C231.666 496.184 230.894 495.404 230.894 494.455V490.493C230.893 490.265 230.937 490.039 231.023 489.828C231.11 489.617 231.237 489.426 231.398 489.264C231.558 489.103 231.75 488.975 231.96 488.887C232.171 488.8 232.396 488.755 232.624 488.756ZM246.359 488.756H250.321C251.271 488.756 252.05 489.535 252.05 490.485V494.455C252.05 495.404 251.271 496.184 250.321 496.184H246.359C245.409 496.184 244.63 495.404 244.63 494.455V490.493C244.629 490.265 244.672 490.039 244.759 489.828C244.845 489.617 244.972 489.426 245.133 489.264C245.294 489.103 245.485 488.975 245.695 488.887C245.906 488.8 246.131 488.755 246.359 488.756ZM260.096 488.756H264.058C265.016 488.756 265.795 489.535 265.795 490.485V494.455C265.795 495.404 265.016 496.184 264.058 496.184H260.096C259.146 496.184 258.367 495.404 258.367 494.455V490.493C258.367 489.535 259.146 488.756 260.096 488.756ZM245.865 457.686H249.826C250.776 457.687 251.556 458.466 251.556 459.416V463.377C251.556 464.335 250.776 465.107 249.826 465.107H245.865C244.915 465.107 244.135 464.327 244.135 463.377V459.416C244.135 459.188 244.179 458.963 244.266 458.753C244.353 458.543 244.48 458.352 244.641 458.191C244.802 458.031 244.992 457.903 245.203 457.816C245.413 457.73 245.638 457.685 245.865 457.686ZM259.6 457.686H263.562C264.512 457.687 265.291 458.466 265.291 459.416V463.377C265.291 464.335 264.512 465.107 263.562 465.107H259.6C258.642 465.107 257.863 464.327 257.863 463.377V459.416C257.871 458.466 258.65 457.686 259.6 457.686ZM697.815 476.824H694.187C693.309 476.824 692.603 477.538 692.603 478.408V482.036C692.603 482.913 693.317 483.62 694.187 483.62H697.815C698.235 483.618 698.637 483.451 698.933 483.154C699.23 482.857 699.397 482.455 699.399 482.036V478.408C699.4 478.199 699.359 477.993 699.28 477.801C699.2 477.608 699.083 477.434 698.936 477.286C698.789 477.139 698.614 477.022 698.422 476.943C698.229 476.864 698.023 476.823 697.815 476.824ZM685.235 476.824H681.606C681.187 476.825 680.785 476.993 680.488 477.29C680.192 477.586 680.025 477.988 680.023 478.408V482.036C680.023 482.913 680.737 483.62 681.606 483.62H685.235C685.655 483.618 686.057 483.451 686.353 483.154C686.65 482.857 686.817 482.455 686.819 482.036V478.408C686.817 477.988 686.65 477.586 686.353 477.289C686.057 476.993 685.655 476.825 685.235 476.824ZM672.646 476.824H669.018C668.598 476.825 668.196 476.993 667.9 477.289C667.603 477.586 667.436 477.988 667.434 478.408V482.036C667.434 482.913 668.148 483.62 669.018 483.62H672.646C673.066 483.618 673.468 483.451 673.764 483.154C674.061 482.857 674.228 482.455 674.23 482.036V478.408C674.231 478.199 674.19 477.993 674.111 477.801C674.031 477.608 673.914 477.434 673.767 477.286C673.62 477.139 673.445 477.022 673.253 476.943C673.06 476.864 672.854 476.823 672.646 476.824ZM660.066 476.824H656.437C656.018 476.825 655.616 476.993 655.319 477.29C655.023 477.586 654.856 477.988 654.854 478.408V482.036C654.854 482.913 655.567 483.62 656.437 483.62H660.066C660.943 483.62 661.657 482.906 661.657 482.036V478.408C661.653 477.988 661.484 477.586 661.186 477.29C660.888 476.993 660.486 476.826 660.066 476.824ZM647.485 476.824H643.856C643.435 476.823 643.032 476.99 642.734 477.286C642.435 477.583 642.267 477.986 642.265 478.407V482.036C642.265 482.913 642.979 483.62 643.856 483.62H647.485C647.904 483.618 648.306 483.45 648.603 483.154C648.899 482.857 649.066 482.455 649.068 482.036V478.407C649.066 477.987 648.899 477.586 648.602 477.289C648.306 476.993 647.904 476.825 647.485 476.824ZM684.774 490.542H681.145C680.725 490.543 680.323 490.711 680.027 491.007C679.73 491.304 679.563 491.706 679.561 492.126V495.762C679.561 496.632 680.275 497.346 681.145 497.346H684.774C685.651 497.346 686.357 496.632 686.357 495.762V492.133C686.358 491.924 686.318 491.717 686.239 491.524C686.16 491.331 686.044 491.155 685.897 491.007C685.75 490.86 685.575 490.742 685.382 490.662C685.189 490.582 684.983 490.541 684.774 490.542ZM672.193 490.542H668.565C668.145 490.543 667.743 490.711 667.447 491.007C667.15 491.304 666.983 491.706 666.981 492.126V495.762C666.981 496.632 667.695 497.346 668.565 497.346H672.193C672.613 497.344 673.015 497.177 673.311 496.88C673.608 496.583 673.775 496.181 673.777 495.762V492.133C673.778 491.924 673.738 491.717 673.659 491.524C673.58 491.331 673.463 491.155 673.316 491.007C673.169 490.859 672.994 490.742 672.801 490.662C672.608 490.582 672.402 490.541 672.193 490.542ZM659.612 490.542H655.983C655.106 490.542 654.392 491.256 654.392 492.126V495.762C654.392 496.632 655.106 497.346 655.983 497.346H659.612C660.032 497.344 660.434 497.177 660.73 496.88C661.027 496.583 661.194 496.181 661.196 495.762V492.133C661.196 491.256 660.482 490.542 659.612 490.542ZM672.646 462.086H669.018C668.598 462.087 668.196 462.255 667.9 462.551C667.603 462.848 667.436 463.25 667.434 463.67V467.298C667.434 468.176 668.148 468.882 669.018 468.882H672.646C673.066 468.88 673.468 468.713 673.764 468.416C674.061 468.119 674.228 467.717 674.23 467.298V463.67C674.231 463.461 674.19 463.255 674.111 463.063C674.031 462.87 673.914 462.696 673.767 462.548C673.62 462.401 673.445 462.284 673.253 462.205C673.06 462.126 672.854 462.085 672.646 462.086ZM660.066 462.086H656.437C656.018 462.087 655.616 462.255 655.319 462.552C655.023 462.848 654.856 463.25 654.854 463.67V467.298C654.854 468.176 655.567 468.882 656.437 468.882H660.066C660.943 468.882 661.657 468.168 661.657 467.298V463.67C661.653 463.25 661.484 462.848 661.186 462.552C660.888 462.255 660.486 462.088 660.066 462.086Z" fill="#E1E4E5"/>
<path d="M699.531 399.614C688.658 412.198 666.747 411.096 666.747 411.096C666.747 411.096 662.478 389.59 673.363 377.012C684.236 364.428 706.136 365.524 706.136 365.524C706.136 365.524 710.404 387.03 699.531 399.614Z" fill="url(#paint0_linear_1235_22571)"/>
<path d="M584.85 504.448C593.387 498.602 594.231 484.979 594.231 484.979C594.231 484.979 581.232 480.843 572.698 486.697C564.161 492.544 563.315 506.159 563.315 506.159C563.315 506.159 576.314 510.295 584.85 504.448Z" fill="url(#paint1_linear_1235_22571)"/>
<path d="M186.738 377.923C200.412 391.84 225.981 388.906 225.981 388.906C225.981 388.906 229.365 363.408 215.679 349.499C202.005 335.582 176.448 338.508 176.448 338.508C176.448 338.508 173.064 364.006 186.738 377.923Z" fill="url(#paint2_linear_1235_22571)"/>
<path d="M457.991 327C453.578 327 450 330.578 450 334.991C450 339.405 453.578 342.982 457.991 342.982C462.404 342.982 465.982 339.405 465.982 334.991C465.982 330.578 462.404 327 457.991 327Z" fill="#4F27AA"/>
<path d="M318.948 166.205C312.873 166.205 307.949 161.281 307.949 155.206C307.949 149.131 312.873 144.207 318.948 144.207C325.023 144.207 329.947 149.131 329.947 155.206C329.947 161.281 325.023 166.205 318.948 166.205Z" fill="#4F27AA"/>
<path d="M645.076 194.804C638.09 194.804 632.427 189.141 632.427 182.155C632.427 175.169 638.09 169.506 645.076 169.506C652.062 169.506 657.725 175.169 657.725 182.155C657.725 189.141 652.062 194.804 645.076 194.804Z" fill="#4F27AA"/>
<path d="M488.825 157.095C484.876 157.095 481.675 153.894 481.675 149.945C481.675 145.996 484.876 142.795 488.825 142.795C492.774 142.795 495.975 145.996 495.975 149.945C495.975 153.894 492.774 157.095 488.825 157.095Z" fill="#4F27AA"/>
<path d="M736.858 286.887C733.82 286.887 731.358 284.424 731.358 281.387C731.358 278.349 733.82 275.887 736.858 275.887C739.895 275.887 742.358 278.349 742.358 281.387C742.358 284.424 739.895 286.887 736.858 286.887Z" fill="#E1E4E5"/>
<path d="M180.268 289.317C175.125 289.317 170.955 285.148 170.955 280.004C170.955 274.861 175.125 270.691 180.268 270.691C185.411 270.691 189.581 274.861 189.581 280.004C189.581 285.148 185.411 289.317 180.268 289.317Z" fill="#E1E4E5"/>
<path d="M699.461 170.295C696.423 170.295 693.961 167.832 693.961 164.795C693.961 161.757 696.423 159.295 699.461 159.295C702.499 159.295 704.961 161.757 704.961 164.795C704.961 167.832 702.499 170.295 699.461 170.295Z" fill="#E1E4E5"/>
<path d="M131.368 391.623C132.697 396.583 129.753 401.682 124.793 403.011C119.833 404.34 114.735 401.396 113.406 396.436C112.076 391.476 115.02 386.378 119.98 385.049C124.94 383.72 130.039 386.663 131.368 391.623Z" fill="white"/>
<path d="M446.747 143.336C439.916 143.336 434.378 137.798 434.378 130.967C434.378 124.135 439.916 118.598 446.747 118.598C453.578 118.598 459.116 124.135 459.116 130.967C459.116 137.798 453.578 143.336 446.747 143.336Z" fill="#E1E4E5"/>
<path d="M725.282 425.579C720.028 425.579 715.768 422.171 715.768 417.967C715.768 413.763 720.028 410.355 725.282 410.355C730.536 410.355 734.796 413.763 734.796 417.967C734.796 422.171 730.536 425.579 725.282 425.579Z" fill="white"/>
<path d="M621.66 109.787C622.752 113.862 620.334 118.05 616.26 119.142C612.185 120.234 607.997 117.816 606.905 113.741C605.813 109.666 608.231 105.478 612.306 104.386C616.38 103.295 620.569 105.713 621.66 109.787Z" fill="#E1E4E5"/>
<path d="M212.755 162.906H213.004C214.477 183.79 230.008 184.111 230.008 184.111C230.008 184.111 212.882 184.445 212.882 208.576C212.882 184.445 195.756 184.111 195.756 184.111C195.756 184.111 211.281 183.79 212.755 162.906ZM356.443 79H356.622C357.685 94.281 368.885 94.516 368.885 94.516C368.885 94.516 356.535 94.761 356.535 112.418C356.535 94.761 344.185 94.516 344.185 94.516C344.185 94.516 355.38 94.281 356.443 79Z" fill="#E1E4E5"/>
<path d="M738.768 218.044C760.453 212.907 783.388 231.297 783.388 231.297C783.388 231.297 771.149 258.007 749.457 263.128C727.772 268.265 704.843 249.891 704.843 249.891C704.843 249.891 717.083 223.181 738.768 218.044Z" fill="url(#paint3_linear_1235_22571)"/>
<path d="M156.814 226.725C163.285 226.725 168.53 221.48 168.53 215.009C168.53 208.538 163.285 203.293 156.814 203.293C150.343 203.293 145.098 208.538 145.098 215.009C145.098 221.48 150.343 226.725 156.814 226.725Z" fill="#4F27AA"/>
<path d="M731.356 325.383C736.215 325.383 740.153 329.321 740.153 334.18C740.153 339.038 736.215 342.977 731.356 342.977C726.498 342.977 722.559 339.038 722.559 334.18C722.559 329.321 726.498 325.383 731.356 325.383Z" fill="#4F27AA"/>
<path d="M185.409 422.49C194.684 422.49 202.203 430.009 202.203 439.284C202.203 448.559 194.684 456.078 185.409 456.078C176.134 456.078 168.615 448.559 168.615 439.284C168.615 430.009 176.134 422.49 185.409 422.49Z" fill="#4F27AA"/>
<path d="M609.84 430.977C615.017 430.977 619.213 435.173 619.213 440.35C619.213 445.526 615.017 449.723 609.84 449.723C604.663 449.723 600.467 445.526 600.467 440.35C600.467 435.173 604.663 430.977 609.84 430.977Z" fill="#E1E4E5"/>
<path d="M374.528 490.68C378.945 490.68 382.525 494.26 382.525 498.677C382.525 503.093 378.945 506.674 374.528 506.674C370.111 506.674 366.531 503.093 366.531 498.677C366.531 494.26 370.111 490.68 374.528 490.68Z" fill="#E1E4E5"/>
<path d="M662.304 317.434C661.187 313.265 663.661 308.98 667.831 307.863C672 306.746 676.285 309.22 677.402 313.389C678.519 317.558 676.045 321.843 671.876 322.96C667.707 324.077 663.422 321.603 662.304 317.434Z" fill="#E1E4E5"/>
<path d="M698.34 428.581C704.082 428.581 708.736 433.235 708.736 438.977C708.736 444.719 704.082 449.373 698.34 449.373C692.598 449.373 687.944 444.719 687.944 438.977C687.944 433.235 692.598 428.581 698.34 428.581Z" fill="#E1E4E5"/>
<path d="M125.881 281.929C130.298 281.929 133.878 284.793 133.878 288.327C133.878 291.86 130.298 294.725 125.881 294.725C121.464 294.725 117.884 291.86 117.884 288.327C117.884 284.793 121.464 281.929 125.881 281.929Z" fill="#E1E4E5"/>
<path d="M250.5 120.729C248.175 112.052 253.324 103.134 262 100.809C270.677 98.4845 279.595 103.633 281.92 112.31C284.245 120.986 279.096 129.904 270.419 132.229C261.743 134.554 252.825 129.405 250.5 120.729Z" fill="#E1E4E5"/>
<path d="M229.307 333.207H229.098C227.859 315.655 214.805 315.385 214.805 315.385C214.805 315.385 229.2 315.104 229.2 294.822C229.2 315.104 243.595 315.385 243.595 315.385C243.595 315.385 230.546 315.655 229.307 333.207ZM510.901 521.169H510.749C509.85 508.092 500.374 507.891 500.374 507.891C500.374 507.891 510.823 507.682 510.823 492.571C510.823 507.682 521.273 507.891 521.273 507.891C521.273 507.891 511.801 508.092 510.901 521.169Z" fill="#E1E4E5"/>
</g>
<defs>
<linearGradient id="paint0_linear_1235_22571" x1="655.714" y1="443.027" x2="731.357" y2="305.817" gradientUnits="userSpaceOnUse">
<stop stop-color="white"/>
<stop offset="1" stop-color="#EEEEEE"/>
</linearGradient>
<linearGradient id="paint1_linear_1235_22571" x1="614.739" y1="480.38" x2="524.647" y2="517.597" gradientUnits="userSpaceOnUse">
<stop stop-color="white"/>
<stop offset="1" stop-color="#EEEEEE"/>
</linearGradient>
<linearGradient id="paint2_linear_1235_22571" x1="241.294" y1="425.461" x2="142.441" y2="270.5" gradientUnits="userSpaceOnUse">
<stop stop-color="white"/>
<stop offset="1" stop-color="#EEEEEE"/>
</linearGradient>
<linearGradient id="paint3_linear_1235_22571" x1="820.428" y1="205.271" x2="630.598" y2="294.953" gradientUnits="userSpaceOnUse">
<stop stop-color="white"/>
<stop offset="1" stop-color="#EEEEEE"/>
</linearGradient>
<clipPath id="clip0_1235_22571">
<rect width="900" height="600" fill="white"/>
</clipPath>
</defs>
</svg>
