<svg width="900" height="600" viewBox="0 0 900 600" fill="none" xmlns="http://www.w3.org/2000/svg">
<g clip-path="url(#clip0_1235_22635)">
<path d="M145.224 184.054H398.11M266.055 316.113H518.94M266.056 436.94V184.055M398.109 316.112V63.2266" stroke="#E1E4E5" stroke-width="4" stroke-linecap="round" stroke-linejoin="round"/>
<path d="M332.082 448.165C441.48 448.165 530.165 359.48 530.165 250.082C530.165 140.685 441.48 52 332.082 52C222.685 52 134 140.685 134 250.082C134 359.48 222.685 448.165 332.082 448.165V448.165Z" stroke="#E1E4E5" stroke-width="4" stroke-linecap="round" stroke-linejoin="round"/>
<path d="M746.859 318.23H397.141C386.784 318.23 379 311.234 379 303.304V119.157C379 111.226 386.784 104.23 397.141 104.23H746.859C757.216 104.23 765 111.226 765 119.157V303.304C765 311.234 757.216 318.23 746.859 318.23Z" fill="white" stroke="#E1E4E5" stroke-width="4"/>
<path fill-rule="evenodd" clip-rule="evenodd" d="M410.59 166.215V234.809C410.59 238.533 413.571 241.548 417.253 241.548H457.631L475.256 216.424C476.097 215.226 478.198 215.226 479.038 216.424L485.209 225.222L485.257 225.29L485.299 225.23L498.533 206.014C499.448 204.684 501.742 204.684 502.657 206.014L520.184 231.466V166.215C520.184 162.492 517.195 159.477 513.521 159.477H417.253C413.571 159.477 410.59 162.492 410.59 166.215Z" fill="#4F27AA"/>
<path d="M441.497 206.194C435.068 206.194 429.856 200.982 429.856 194.553C429.856 188.124 435.068 182.912 441.497 182.912C447.926 182.912 453.138 188.124 453.138 194.553C453.138 200.982 447.926 206.194 441.497 206.194Z" fill="white"/>
<path d="M765 127.465H379V122.141C379 112.124 387.124 104 397.141 104H746.859C756.876 104 765 112.124 765 122.141V127.465Z" fill="white" stroke="#E1E4E5" stroke-width="4"/>
<path d="M397.178 120.941C398.325 120.941 399.425 120.485 400.236 119.674C401.047 118.863 401.503 117.763 401.503 116.616C401.503 115.469 401.047 114.369 400.236 113.558C399.425 112.747 398.325 112.291 397.178 112.291C396.031 112.291 394.931 112.747 394.12 113.558C393.309 114.369 392.853 115.469 392.853 116.616C392.853 117.763 393.309 118.863 394.12 119.674C394.931 120.485 396.031 120.941 397.178 120.941ZM415.201 120.941C416.348 120.941 417.448 120.485 418.259 119.674C419.07 118.863 419.526 117.763 419.526 116.616C419.526 115.469 419.07 114.369 418.259 113.558C417.448 112.747 416.348 112.291 415.201 112.291C414.054 112.291 412.954 112.747 412.143 113.558C411.332 114.369 410.876 115.469 410.876 116.616C410.876 117.763 411.332 118.863 412.143 119.674C412.954 120.485 414.054 120.941 415.201 120.941ZM432.503 120.941C433.65 120.941 434.75 120.485 435.561 119.674C436.372 118.863 436.828 117.763 436.828 116.616C436.828 115.469 436.372 114.369 435.561 113.558C434.75 112.747 433.65 112.291 432.503 112.291C431.356 112.291 430.256 112.747 429.445 113.558C428.634 114.369 428.178 115.469 428.178 116.616C428.178 117.763 428.634 118.863 429.445 119.674C430.256 120.485 431.356 120.941 432.503 120.941Z" fill="#E1E4E5"/>
<path d="M726.708 159.477H544.576C540.66 159.477 537.485 162.651 537.485 166.568C537.485 170.484 540.66 173.659 544.576 173.659H726.708C730.624 173.659 733.799 170.484 733.799 166.568C733.799 162.651 730.624 159.477 726.708 159.477Z" fill="#E1E4E5"/>
<path d="M726.708 192.32H544.576C540.66 192.32 537.485 195.495 537.485 199.411C537.485 203.328 540.66 206.502 544.576 206.502H726.708C730.624 206.502 733.799 203.328 733.799 199.411C733.799 195.495 730.624 192.32 726.708 192.32Z" fill="#E1E4E5"/>
<path d="M716 225H544C540.134 225 537 228.134 537 232C537 235.866 540.134 239 544 239H716C719.866 239 723 235.866 723 232C723 228.134 719.866 225 716 225Z" fill="#E1E4E5"/>
<path d="M726.708 258.006H544.576C540.66 258.006 537.485 261.181 537.485 265.097C537.485 269.013 540.66 272.188 544.576 272.188H726.708C730.624 272.188 733.799 269.013 733.799 265.097C733.799 261.181 730.624 258.006 726.708 258.006Z" fill="#E1E4E5"/>
<path d="M292.821 146.397C292.152 149.073 293.04 151.855 294.504 154.193C295.539 155.844 296.986 154.021 299.096 153.729C302.36 153.271 304.426 149.817 305.132 141.4C305.459 135.253 305.305 132.186 304.963 131.649C303.744 129.728 300.608 129.086 298.136 129.271" fill="#2E2445"/>
<path fill-rule="evenodd" clip-rule="evenodd" d="M298.747 512.208C298.747 512.208 298.549 524.847 306.35 529.336C314.151 533.826 326.237 542.169 326.237 542.169L280.26 543.719L281.571 512.094L298.747 512.208Z" fill="#F8AE9D"/>
<path fill-rule="evenodd" clip-rule="evenodd" d="M278.655 526.135L277.907 546.639H288.587L289.319 543.998C289.319 543.998 293.339 543.833 295.663 544.974C298.119 546.181 298.448 546.766 298.448 546.766L332.323 546.837C332.323 546.837 333.994 540.21 323.668 535.417C313.342 530.622 305.824 523.818 304.396 523.121C302.957 522.42 300.055 522.023 298.011 523.672C295.967 525.319 294.351 529.653 289.719 529.789C283.758 529.964 280.334 522.667 278.655 526.135ZM265.453 305.928C265.453 305.928 278.002 412.408 278.392 419.81C278.782 427.212 274.362 439.986 274.448 453.832C274.534 467.677 276.062 516.476 276.062 516.476L303.744 516.927C303.744 516.927 315.378 428.745 315.504 415.522C315.629 402.299 316.696 307.2 316.696 307.2L265.453 305.928Z" fill="#2E2445"/>
<path fill-rule="evenodd" clip-rule="evenodd" d="M231.592 509.987L226.197 542.749L246.085 542.649L246.714 509.473L231.592 509.987Z" fill="#F8AE9D"/>
<path fill-rule="evenodd" clip-rule="evenodd" d="M228.235 524.421C227.637 524.551 227.1 524.876 226.708 525.346C226.317 525.816 226.093 526.403 226.073 527.015L225.871 533.14C223.018 536.312 221.692 545.559 221.583 546.345C221.578 546.382 221.576 546.421 221.578 546.459C221.841 550.963 251.433 550.877 253.705 546.592C253.766 546.467 253.784 546.326 253.756 546.191C253.512 544.678 251.894 535.345 248.707 532.845L248.684 526.788C248.682 526.185 248.482 525.601 248.114 525.123C247.747 524.646 247.233 524.303 246.651 524.147L242.48 523.025C239.573 518.773 235.611 518.924 232.216 523.556L228.235 524.421ZM241.356 306.931C241.356 306.931 232.493 379.579 232.614 393.491C232.734 407.404 235.341 413.514 231.631 423.494C227.92 433.474 224.755 513.134 224.755 513.134L252.195 515.42C252.195 515.42 269.725 430.179 271.631 418.361C273.538 406.542 297.098 305.928 297.098 305.928L241.356 306.931Z" fill="#2E2445"/>
<path fill-rule="evenodd" clip-rule="evenodd" d="M378.186 176.308C378.186 176.308 375.895 163.54 376.719 160.955C377.422 158.72 384.073 155.498 384.073 155.498C384.073 155.498 395.64 137.225 398.171 139.086C400.231 140.594 392.147 154.066 392.147 154.066C392.147 154.066 399.519 161.799 399.416 165.256C399.313 168.713 387.385 179.535 387.385 179.535L378.186 176.308ZM259.301 179.308C259.301 179.308 266.919 177.519 267.183 165.037C267.448 152.554 267.262 148.293 267.262 148.293L285.323 147.99C285.323 147.99 285.505 161.902 285.508 166.934C285.515 177.889 293.651 180.849 293.651 180.849C293.651 180.849 292.975 192.827 277.77 193.682C265.898 194.35 259.301 179.308 259.301 179.308Z" fill="#F8AE9D"/>
<path fill-rule="evenodd" clip-rule="evenodd" d="M265.604 141.986C258.118 141.696 259.339 152.654 267.115 152.64C267.115 152.64 275.473 169.443 288.593 169.487C294.913 169.508 296.977 163.878 298.871 159.926C300.766 155.974 302.156 150.063 302.272 146.443C302.396 142.584 302.412 129.906 302.412 129.906L265.312 129.889L265.604 141.986Z" fill="#F8AE9D"/>
<path fill-rule="evenodd" clip-rule="evenodd" d="M293.936 180.105C293.936 180.105 313.397 186.18 318.083 193.437C333.186 206.705 352.074 224.926 352.074 224.926C352.074 224.926 370.066 179.771 375.947 174.622C379.972 171.1 387.99 175.456 389.484 179.932C391.403 185.681 379.081 219.405 373.261 235.332C372.134 238.418 371.25 240.835 370.762 242.252C367.213 252.548 358.578 258.453 348.071 251.909C343.836 249.271 331.232 240.628 320.478 232.793C320.31 241.025 320.027 249.699 319.758 257.937C319.104 277.952 318.534 295.394 319.903 297.66C326.686 308.894 317.668 316.605 287.811 319.439C257.954 322.272 231.466 319.952 236.272 304.961C237.274 301.836 237.262 295.113 236.762 286.378C233.837 286.222 230.913 286.029 227.993 285.8C215.532 284.818 206.317 279.464 205.032 265.558C204.131 255.821 222.683 210.107 229.639 195.075C231.266 191.558 233.783 189.368 236.633 188.276C237.297 187.536 238.044 187.016 238.884 186.739C243.994 185.055 262.315 177.358 262.315 177.358L284.109 191.617L293.936 180.105ZM234.743 260.574L234.694 260.702L234.755 260.71C234.751 260.665 234.747 260.619 234.743 260.574Z" fill="#4F27AA"/>
<path fill-rule="evenodd" clip-rule="evenodd" d="M283.101 272.64C283.101 272.64 289.748 271.304 292.469 269.168C295.189 267.032 303.428 265.523 303.428 265.523L300.792 271.073C300.792 271.073 320.985 269.178 321.463 271.17C321.942 273.162 316.101 275.328 316.101 275.328C316.101 275.328 313.221 280.707 310.433 283.826C307.795 286.777 294.688 286.426 290.093 284.584C286.123 282.993 281.806 283.788 281.806 283.788L283.101 272.64Z" fill="#F8AE9D"/>
<path d="M267.638 130.405C268.732 131.836 270.66 132.152 272.249 132.435C274.385 132.815 275.441 133.608 276.55 135.735C277.252 137.095 277.954 138.583 279.21 139.319C280.233 139.921 280.202 138.397 280.354 137.22C280.368 137.11 280.39 137 280.418 136.893C280.662 135.951 281.662 136.109 281.951 137.038C282.218 137.879 282.787 138.591 283.511 138.987C283.629 139.052 283.755 139.109 283.88 139.085C284.05 139.06 284.183 138.898 284.294 138.753C284.524 138.45 284.754 138.066 284.99 137.659C285.772 136.315 287.263 136.787 288.136 138.073C288.683 138.874 289.334 139.699 290.228 139.885C290.516 139.95 290.878 139.902 291.011 139.618C291.181 139.271 290.915 138.923 290.959 138.567C290.996 138.235 291.137 138.09 291.292 137.806C291.897 136.714 293.3 136.674 294.155 137.585C294.75 138.217 295.37 138.826 296.014 139.408C296.287 139.651 296.686 139.894 296.96 139.651C297.107 139.521 297.144 139.303 297.174 139.093C297.329 138.065 297.477 137.038 297.632 136.011C297.721 135.436 298.024 134.684 298.541 134.829C298.792 134.902 298.94 135.169 299.08 135.412C299.25 135.719 302.287 139.222 302.347 138.955C302.819 136.965 303.787 135.153 304.26 133.163C307.32 120.357 293.745 110.059 283.378 110.003C281.072 109.987 278.966 110.025 276.727 110.567C274.34 111.149 271.82 112.074 269.655 113.376C266.618 115.196 264.32 118.505 264.911 122.453" fill="#2E2445"/>
<path d="M276.068 126.265C277.53 127.937 277.917 130.29 278.053 132.512C278.254 135.863 277.982 139.345 276.448 142.32C276.011 143.167 275.688 147.358 275.015 147.127C274.8 147.054 274.836 143.804 274.27 142.052C273.395 139.338 269.368 138.303 267.555 140.018C264.659 142.747 266.358 146.062 267.318 148.125C267.891 149.37 268.802 150.768 268.959 152.085C269.153 153.771 269.21 159.917 268.121 161.35C267.211 162.552 266.243 156.747 265.419 155.603C259.321 147.083 253.473 125.389 263.886 120.684C265.469 119.968 270.357 119.599 271.84 120.511" fill="#2E2445"/>
<path fill-rule="evenodd" clip-rule="evenodd" d="M547.442 363.413H550.744C551.543 363.413 552.185 364.063 552.185 364.854V368.157C552.185 368.955 551.536 369.598 550.744 369.598H547.442C547.06 369.597 546.694 369.444 546.424 369.175C546.154 368.905 546.002 368.539 546 368.157V364.854C546 364.665 546.037 364.477 546.109 364.302C546.181 364.127 546.288 363.968 546.422 363.834C546.556 363.7 546.715 363.594 546.89 363.522C547.065 363.449 547.253 363.412 547.442 363.413ZM558.891 363.413H562.194C562.986 363.413 563.635 364.063 563.635 364.854V368.157C563.635 368.955 562.986 369.598 562.194 369.598H558.891C558.509 369.597 558.143 369.444 557.874 369.175C557.604 368.905 557.451 368.539 557.45 368.157V364.854C557.45 364.063 558.1 363.413 558.891 363.413ZM570.349 363.413H573.651C574.443 363.413 575.093 364.063 575.093 364.854V368.157C575.093 368.955 574.443 369.598 573.651 369.598H570.349C569.967 369.597 569.601 369.444 569.331 369.175C569.061 368.905 568.909 368.539 568.907 368.157V364.854C568.907 364.665 568.944 364.477 569.017 364.302C569.089 364.127 569.195 363.968 569.329 363.834C569.463 363.701 569.622 363.594 569.797 363.522C569.972 363.45 570.16 363.413 570.349 363.413ZM581.799 363.413H585.101C585.893 363.413 586.542 364.063 586.542 364.854V368.157C586.542 368.955 585.893 369.598 585.101 369.598H581.799C581.416 369.598 581.048 369.447 580.777 369.177C580.505 368.907 580.352 368.54 580.35 368.157V364.854C580.354 364.472 580.509 364.107 580.78 363.837C581.051 363.568 581.417 363.415 581.799 363.413ZM593.249 363.413H596.552C597.35 363.413 598 364.062 598 364.854V368.156C598 368.955 597.35 369.598 596.552 369.598H593.249C592.458 369.598 591.808 368.948 591.808 368.156V364.854C591.808 364.062 592.458 363.413 593.249 363.413ZM559.311 375.899H562.614C563.406 375.899 564.055 376.548 564.055 377.34V380.649C564.055 381.441 563.406 382.091 562.614 382.091H559.311C558.513 382.091 557.87 381.441 557.87 380.649V377.347C557.869 377.157 557.905 376.969 557.977 376.793C558.049 376.618 558.155 376.458 558.289 376.323C558.423 376.189 558.582 376.082 558.758 376.009C558.933 375.936 559.121 375.899 559.311 375.899ZM570.761 375.899H574.064C574.855 375.899 575.505 376.548 575.505 377.34V380.649C575.505 381.441 574.855 382.091 574.064 382.091H570.761C569.969 382.091 569.32 381.441 569.32 380.649V377.347C569.319 377.157 569.355 376.969 569.427 376.793C569.499 376.618 569.605 376.458 569.739 376.323C569.873 376.189 570.032 376.082 570.208 376.009C570.383 375.936 570.571 375.899 570.761 375.899ZM582.212 375.899H585.514C586.313 375.899 586.963 376.548 586.963 377.34V380.649C586.961 381.032 586.807 381.399 586.536 381.669C586.264 381.939 585.897 382.091 585.514 382.091H582.212C581.42 382.091 580.77 381.441 580.77 380.649V377.347C580.77 376.548 581.42 375.899 582.212 375.899ZM570.349 350H573.651C574.443 350 575.093 350.65 575.093 351.441V354.744C575.093 355.542 574.443 356.185 573.651 356.185H570.349C569.967 356.184 569.601 356.031 569.331 355.762C569.061 355.492 568.909 355.126 568.907 354.744V351.441C568.907 351.252 568.944 351.064 569.017 350.889C569.089 350.714 569.195 350.555 569.329 350.421C569.463 350.288 569.622 350.181 569.797 350.109C569.972 350.037 570.16 350 570.349 350ZM581.799 350H585.101C585.893 350 586.542 350.65 586.542 351.441V354.744C586.542 355.542 585.893 356.185 585.101 356.185H581.799C581.416 356.185 581.048 356.034 580.777 355.764C580.505 355.494 580.352 355.127 580.35 354.744V351.441C580.354 351.059 580.509 350.694 580.78 350.424C581.051 350.155 581.417 350.002 581.799 350Z" fill="#E1E4E5"/>
<path d="M595.349 466.626C603.004 461.383 603.761 449.166 603.761 449.166C603.761 449.166 592.104 445.458 584.451 450.707C576.795 455.95 576.036 468.16 576.036 468.16C576.036 468.16 587.693 471.869 595.349 466.626Z" fill="#E1E4E5"/>
<path d="M441.166 348C437.208 348 434 351.208 434 355.166C434 359.124 437.208 362.332 441.166 362.332C445.124 362.332 448.332 359.124 448.332 355.166C448.332 351.208 445.124 348 441.166 348Z" fill="#4F27AA"/>
<path d="M642.204 367.408C635.464 367.408 630 361.944 630 355.204C630 348.464 635.464 343 642.204 343C648.944 343 654.408 348.464 654.408 355.204C654.408 361.944 648.944 367.408 642.204 367.408Z" fill="#4F27AA"/>
<path d="M722.772 369.544C717.375 369.544 713 365.169 713 359.772C713 354.375 717.375 350 722.772 350C728.169 350 732.544 354.375 732.544 359.772C732.544 365.169 728.169 369.544 722.772 369.544Z" fill="#E1E4E5"/>
<path d="M447.414 521.043C441.664 521.043 437.002 516.381 437.002 510.631C437.002 504.88 441.664 500.219 447.414 500.219C453.164 500.219 457.826 504.88 457.826 510.631C457.826 516.381 453.164 521.043 447.414 521.043Z" fill="#E1E4E5"/>
<path d="M174.578 276.874C169.966 276.874 166.227 273.135 166.227 268.523C166.227 263.911 169.966 260.172 174.578 260.172C179.19 260.172 182.929 263.911 182.929 268.523C182.929 273.135 179.19 276.874 174.578 276.874Z" fill="#E1E4E5"/>
<path d="M710.747 83.494C703.707 83.494 698 77.787 698 70.747C698 63.707 703.707 58 710.747 58C717.787 58 723.494 63.707 723.494 70.747C723.494 77.787 717.787 83.494 710.747 83.494Z" fill="#E1E4E5"/>
<path d="M382.092 391.184C375.966 391.184 371 386.218 371 380.092C371 373.966 375.966 369 382.092 369C388.218 369 393.184 373.966 393.184 380.092C393.184 386.218 388.218 391.184 382.092 391.184Z" fill="#E1E4E5"/>
<path d="M683.532 404.652C678.82 404.652 675 401.596 675 397.826C675 394.056 678.82 391 683.532 391C688.244 391 692.064 394.056 692.064 397.826C692.064 401.596 688.244 404.652 683.532 404.652Z" fill="#E1E4E5"/>
<path d="M502.09 424.795C495.197 428.158 487.457 426.472 484.802 421.03C482.147 415.588 485.582 408.45 492.475 405.087C499.368 401.724 507.108 403.41 509.763 408.852C512.418 414.294 508.983 421.432 502.09 424.795Z" fill="#E1E4E5"/>
<path d="M530.373 65.5979C532.681 74.2118 527.569 83.0657 518.955 85.3738C510.341 87.6819 501.487 82.5701 499.179 73.9562C496.871 65.3423 501.983 56.4883 510.597 54.1802C519.21 51.8721 528.064 56.984 530.373 65.5979Z" fill="#E1E4E5"/>
<path d="M375.371 468.088H375.594C376.916 486.815 390.843 487.104 390.843 487.104C390.843 487.104 375.485 487.404 375.485 509.043C375.485 487.404 360.127 487.104 360.127 487.104C360.127 487.104 374.049 486.815 375.371 468.088Z" fill="#E1E4E5"/>
</g>
<defs>
<clipPath id="clip0_1235_22635">
<rect width="900" height="600" fill="white"/>
</clipPath>
</defs>
</svg>
