<svg width="900" height="600" viewBox="0 0 900 600" fill="none" xmlns="http://www.w3.org/2000/svg">
<g clip-path="url(#clip0_1235_22672)">
<path fill-rule="evenodd" clip-rule="evenodd" d="M391.443 403.666V377.017H424.763L453.05 348.73L492.099 365.314C506.252 371.326 522.629 368.141 533.484 357.267L588.947 301.804C599.822 290.93 602.988 274.553 596.995 260.418L568.688 193.779C564.873 184.791 557.718 177.636 548.73 173.822L482.092 145.515C475.178 142.576 467.542 141.772 460.168 143.206C452.793 144.64 446.015 148.246 440.706 153.562L385.243 209.026C374.388 219.881 371.203 236.258 377.214 250.411L393.365 288.461L279.838 401.988V461.956H339.805L364.795 436.966V403.647H391.443V403.666Z" fill="#4F27AA"/>
<path fill-rule="evenodd" clip-rule="evenodd" d="M484.648 221.326C467.74 221.397 454.015 235.121 454.086 252.029C454.086 268.937 467.881 282.661 484.789 282.591C501.697 282.591 515.421 268.866 515.421 251.958C515.421 235.05 501.697 221.326 484.789 221.326" fill="white"/>
<path fill-rule="evenodd" clip-rule="evenodd" d="M587.471 393.045H593.474C594.169 393.046 594.835 393.322 595.327 393.813C595.818 394.305 596.095 394.971 596.095 395.666V401.669C596.094 402.364 595.818 403.03 595.327 403.521C594.835 404.012 594.169 404.289 593.474 404.289H587.471C586.777 404.286 586.112 404.01 585.621 403.519C585.131 403.028 584.854 402.363 584.851 401.669V395.666C584.839 394.226 586.02 393.045 587.471 393.045ZM608.284 393.045H614.287C614.982 393.047 615.647 393.324 616.138 393.815C616.629 394.306 616.906 394.972 616.908 395.666V401.669C616.907 402.364 616.631 403.03 616.14 403.521C615.648 404.012 614.982 404.289 614.287 404.289H608.284C607.59 404.286 606.925 404.01 606.434 403.519C605.944 403.028 605.667 402.363 605.664 401.669V395.666C605.667 394.972 605.943 394.307 606.434 393.816C606.925 393.325 607.59 393.048 608.284 393.045ZM629.112 393.045H635.115C635.809 393.048 636.474 393.325 636.965 393.816C637.456 394.307 637.733 394.972 637.735 395.666V401.669C637.735 403.12 636.555 404.289 635.115 404.289H629.112C628.418 404.286 627.753 404.01 627.262 403.519C626.772 403.028 626.495 402.363 626.492 401.669V395.666C626.479 394.226 627.66 393.045 629.112 393.045ZM649.925 393.045H655.928C656.623 393.047 657.288 393.324 657.779 393.815C658.27 394.306 658.547 394.972 658.549 395.666V401.669C658.548 402.364 658.272 403.03 657.781 403.521C657.289 404.012 656.623 404.289 655.928 404.289H649.925C649.229 404.289 648.562 404.013 648.069 403.522C647.575 403.031 647.297 402.365 647.293 401.669V395.666C647.305 394.226 648.486 393.045 649.925 393.045ZM670.74 393.045H676.744C677.44 393.045 678.108 393.321 678.601 393.812C679.094 394.304 679.373 394.97 679.376 395.666V401.669C679.375 402.014 679.307 402.355 679.174 402.674C679.042 402.992 678.847 403.281 678.603 403.524C678.359 403.768 678.069 403.961 677.75 404.092C677.431 404.223 677.089 404.29 676.744 404.289H670.74C670.046 404.286 669.381 404.01 668.89 403.519C668.4 403.028 668.123 402.363 668.12 401.669V395.666C668.123 394.972 668.399 394.307 668.89 393.816C669.381 393.325 670.046 393.048 670.74 393.045ZM609.048 415.742H615.051C615.745 415.745 616.41 416.022 616.901 416.512C617.392 417.003 617.669 417.668 617.671 418.362V424.378C617.669 425.072 617.392 425.737 616.901 426.228C616.41 426.719 615.745 426.995 615.051 426.998H609.048C608.353 426.998 607.687 426.721 607.196 426.23C606.705 425.739 606.429 425.073 606.428 424.378V418.375C606.426 418.03 606.492 417.687 606.623 417.368C606.753 417.048 606.946 416.758 607.19 416.513C607.433 416.268 607.723 416.074 608.042 415.942C608.361 415.809 608.703 415.742 609.048 415.742ZM629.861 415.742H635.864C636.558 415.744 637.224 416.021 637.715 416.512C638.205 417.003 638.483 417.668 638.485 418.362V424.378C638.483 425.072 638.205 425.737 637.715 426.228C637.224 426.719 636.558 426.996 635.864 426.998H629.861C629.167 426.995 628.502 426.719 628.011 426.228C627.521 425.737 627.244 425.072 627.241 424.378V418.375C627.239 418.03 627.306 417.688 627.436 417.368C627.567 417.049 627.76 416.758 628.003 416.513C628.247 416.269 628.536 416.075 628.855 415.942C629.174 415.81 629.516 415.742 629.861 415.742ZM650.676 415.742H656.679C657.375 415.742 658.043 416.018 658.536 416.509C659.03 417 659.309 417.666 659.312 418.362V424.378C659.309 425.074 659.03 425.741 658.536 426.231C658.043 426.722 657.375 426.998 656.679 426.998H650.676C649.982 426.995 649.317 426.719 648.826 426.228C648.336 425.737 648.059 425.072 648.056 424.378V418.375C648.056 417.679 648.332 417.011 648.823 416.518C649.314 416.024 649.98 415.746 650.676 415.742ZM629.112 368.664H635.115C636.555 368.664 637.735 369.844 637.735 371.284V377.287C637.735 378.739 636.555 379.907 635.115 379.907H629.112C628.418 379.904 627.753 379.628 627.262 379.137C626.772 378.646 626.495 377.981 626.492 377.287V371.284C626.479 369.844 627.66 368.664 629.112 368.664ZM649.925 368.664H655.928C656.622 368.666 657.288 368.943 657.779 369.434C658.27 369.925 658.547 370.59 658.549 371.284V377.287C658.549 377.982 658.272 378.648 657.781 379.139C657.289 379.631 656.623 379.907 655.928 379.907H649.925C649.229 379.907 648.562 379.631 648.069 379.14C647.575 378.649 647.297 377.983 647.293 377.287V371.284C647.301 370.589 647.58 369.925 648.073 369.435C648.565 368.945 649.23 368.668 649.925 368.664Z" fill="#E1E4E5"/>
<path d="M707.292 323.187C684.355 328.621 660.095 309.169 660.095 309.169C660.095 309.169 673.041 280.917 695.986 275.5C718.923 270.066 743.175 289.502 743.175 289.502C743.175 289.502 730.229 317.753 707.292 323.187Z" fill="url(#paint0_linear_1235_22672)"/>
<path d="M150.615 376.535C127.678 381.969 103.418 362.517 103.418 362.517C103.418 362.517 116.364 334.264 139.309 328.847C162.246 323.413 186.498 342.85 186.498 342.85C186.498 342.85 173.552 371.102 150.615 376.535Z" fill="url(#paint1_linear_1235_22672)"/>
<path d="M324.429 168.87C353.169 163.06 370.44 128.45 370.44 128.45C370.44 128.45 341.099 103.28 312.359 109.113C283.619 114.923 266.348 149.51 266.348 149.51C266.348 149.51 295.688 174.68 324.429 168.87Z" fill="url(#paint2_linear_1235_22672)"/>
<path d="M687.807 191.223C677.062 191.223 668.352 199.555 668.352 209.832C668.352 220.11 677.062 228.441 687.807 228.441C698.552 228.441 707.262 220.11 707.262 209.832C707.262 199.555 698.552 191.223 687.807 191.223Z" fill="#4F27AA"/>
<path d="M394.194 476.622C384.84 476.622 377.257 484.205 377.257 493.559C377.257 502.913 384.84 510.496 394.194 510.496C403.548 510.496 411.131 502.913 411.131 493.559C411.131 484.205 403.548 476.622 394.194 476.622Z" fill="#4F27AA"/>
<path d="M244.686 228.387C239.547 228.387 235.381 224.221 235.381 219.082C235.381 213.943 239.547 209.777 244.686 209.777C249.825 209.777 253.991 213.943 253.991 219.082C253.991 224.221 249.825 228.387 244.686 228.387Z" fill="#4F27AA"/>
<path d="M508.883 490.437C500.556 490.437 493.806 483.947 493.806 475.94C493.806 467.934 500.556 461.443 508.883 461.443C517.21 461.443 523.96 467.934 523.96 475.94C523.96 483.947 517.21 490.437 508.883 490.437Z" fill="#E1E4E5"/>
<path d="M279.314 311.947C273.839 311.947 269.4 307.508 269.4 302.033C269.4 296.558 273.839 292.119 279.314 292.119C284.789 292.119 289.228 296.558 289.228 302.033C289.228 307.508 284.789 311.947 279.314 311.947Z" fill="#E1E4E5"/>
<path d="M598.763 527.548C593.959 527.548 590.065 523.394 590.065 518.27C590.065 513.146 593.959 508.992 598.763 508.992C603.567 508.992 607.461 513.146 607.461 518.27C607.461 523.394 603.567 527.548 598.763 527.548Z" fill="#E1E4E5"/>
<path d="M514.447 88.6875C509.775 88.6875 505.988 84.9003 505.988 80.2285C505.988 75.5568 509.775 71.7695 514.447 71.7695C519.119 71.7695 522.906 75.5568 522.906 80.2285C522.906 84.9003 519.119 88.6875 514.447 88.6875Z" fill="#E1E4E5"/>
<path d="M223.165 423.94C224.347 428.35 221.73 432.882 217.32 434.064C212.911 435.245 208.378 432.628 207.197 428.219C206.015 423.809 208.632 419.277 213.041 418.095C217.451 416.913 221.984 419.53 223.165 423.94Z" fill="#E1E4E5"/>
<path d="M617.897 125.497C620.356 134.674 614.91 144.107 605.733 146.566C596.555 149.025 587.122 143.579 584.663 134.402C582.204 125.225 587.651 115.792 596.828 113.333C606.005 110.874 615.438 116.32 617.897 125.497Z" fill="#E1E4E5"/>
</g>
<defs>
<linearGradient id="paint0_linear_1235_22672" x1="620.917" y1="336.697" x2="821.707" y2="241.837" gradientUnits="userSpaceOnUse">
<stop stop-color="white"/>
<stop offset="1" stop-color="#EEEEEE"/>
</linearGradient>
<linearGradient id="paint1_linear_1235_22672" x1="64.24" y1="390.046" x2="265.031" y2="295.185" gradientUnits="userSpaceOnUse">
<stop stop-color="white"/>
<stop offset="1" stop-color="#EEEEEE"/>
</linearGradient>
<linearGradient id="paint2_linear_1235_22672" x1="429.036" y1="139.138" x2="152.808" y2="136.576" gradientUnits="userSpaceOnUse">
<stop stop-color="white"/>
<stop offset="1" stop-color="#EEEEEE"/>
</linearGradient>
<clipPath id="clip0_1235_22672">
<rect width="900" height="600" fill="white"/>
</clipPath>
</defs>
</svg>
