<svg width="900" height="600" viewBox="0 0 900 600" fill="none" xmlns="http://www.w3.org/2000/svg">
<g clip-path="url(#clip0_1235_22689)">
<path fill-rule="evenodd" clip-rule="evenodd" d="M104.75 461.059C104.75 461.059 193.199 347.61 317.477 346.017C442.32 344.416 541.642 457.175 550.792 463L104.75 461.059Z" fill="white" stroke="#E1E4E5" stroke-width="4"/>
<path fill-rule="evenodd" clip-rule="evenodd" d="M348.541 461.059C348.541 461.059 436.99 347.61 561.269 346.017C686.111 344.416 785.434 457.175 794.583 463L348.541 461.059Z" fill="white" stroke="#E1E4E5" stroke-width="4"/>
<path fill-rule="evenodd" clip-rule="evenodd" d="M249.058 461.059C249.058 461.059 337.507 347.61 461.786 346.017C586.628 344.416 685.95 457.175 695.1 463L249.058 461.059Z" fill="white" stroke="#E1E4E5" stroke-width="4"/>
<path d="M209.701 461.228V438.182" stroke="#E1E4E5" stroke-width="4"/>
<path d="M334.331 461.228V438.182" stroke="#E1E4E5" stroke-width="4"/>
<path d="M548.605 461.228V438.182" stroke="#E1E4E5" stroke-width="4"/>
<path d="M225.007 461.227V445.273" stroke="#E1E4E5" stroke-width="4"/>
<path d="M348.541 461.227V445.273" stroke="#E1E4E5" stroke-width="4"/>
<path d="M563.91 461.227V445.273" stroke="#E1E4E5" stroke-width="4"/>
<path d="M194.395 461.227V445.273" stroke="#E1E4E5" stroke-width="4"/>
<path d="M319.025 461.227V445.273" stroke="#E1E4E5" stroke-width="4"/>
<path d="M533.299 461.227V445.273" stroke="#E1E4E5" stroke-width="4"/>
<path fill-rule="evenodd" clip-rule="evenodd" d="M74 479.368C74 479.368 170.441 403.083 305.95 402.011C442.073 400.935 550.37 476.757 560.346 480.674L74 479.368Z" fill="white" stroke="#E1E4E5" stroke-width="4"/>
<path fill-rule="evenodd" clip-rule="evenodd" d="M339.82 479.368C339.82 479.368 436.261 403.083 571.77 402.011C707.893 400.935 816.19 476.757 826.166 480.674L339.82 479.368Z" fill="white" stroke="#E1E4E5" stroke-width="4"/>
<path fill-rule="evenodd" clip-rule="evenodd" d="M231.348 479.368C231.348 479.368 327.789 403.083 463.297 402.011C599.42 400.935 707.717 476.757 717.694 480.674L231.348 479.368Z" fill="white" stroke="#E1E4E5" stroke-width="4"/>
<path d="M188.435 479.481V463.984" stroke="#E1E4E5" stroke-width="4"/>
<path d="M324.326 479.481V463.984" stroke="#E1E4E5" stroke-width="4"/>
<path d="M557.961 479.481V463.984" stroke="#E1E4E5" stroke-width="4"/>
<path d="M205.124 479.483V468.754" stroke="#E1E4E5" stroke-width="4"/>
<path d="M339.82 479.483V468.754" stroke="#E1E4E5" stroke-width="4"/>
<path d="M574.65 479.483V468.754" stroke="#E1E4E5" stroke-width="4"/>
<path d="M171.746 479.483V468.754" stroke="#E1E4E5" stroke-width="4"/>
<path d="M307.637 479.483V468.754" stroke="#E1E4E5" stroke-width="4"/>
<path d="M541.273 479.483V468.754" stroke="#E1E4E5" stroke-width="4"/>
<path d="M293.603 516.869C291.962 516.059 290.93 514.279 291.069 512.504C291.213 510.585 292.523 508.926 294.379 508.39C294.889 508.243 295.43 508.189 295.963 508.131C299.151 507.77 302.345 507.467 305.48 506.721C306.866 506.386 308.23 506.61 309.46 507.393C311.087 508.431 311.811 509.956 311.61 511.834C311.403 513.721 310.298 515.014 308.518 515.688C308.183 515.814 307.835 515.902 307.481 515.952C303.822 516.492 300.168 517.09 296.474 517.366C295.464 517.442 294.507 517.321 293.603 516.869ZM308.349 529.905C307.664 531.318 306.497 532.266 305.039 532.632C301.452 533.521 297.829 534.347 294.122 534.494C290.736 534.623 288.479 531.447 289.589 528.29C290.224 526.483 291.62 525.459 293.485 525.263C295.891 525.013 298.225 524.482 300.6 524.094C301.356 523.969 302.058 523.705 302.778 523.473C303.654 523.187 304.595 523.169 305.48 523.423C306.366 523.677 307.155 524.19 307.746 524.896C308.327 525.58 308.694 526.419 308.802 527.31C308.909 528.201 308.751 529.103 308.349 529.905ZM318.825 520.454C319.429 519.224 320.405 518.438 321.706 518.049C323.668 517.464 325.658 516.978 327.668 516.593C328.585 516.414 329.461 516.159 330.311 515.735C330.919 515.43 331.584 515.253 332.263 515.216C332.942 515.179 333.622 515.282 334.26 515.519C334.898 515.757 335.48 516.123 335.97 516.595C336.46 517.067 336.847 517.635 337.108 518.263C338.172 520.831 336.896 523.648 334.199 524.658C333.828 524.796 333.439 524.926 333.045 524.997C330.067 525.52 327.115 526.19 324.172 526.886C322.347 527.315 320.724 526.894 319.454 525.454C318.216 524.04 317.988 522.149 318.825 520.454ZM323.983 532.919C325.945 533.957 326.719 535.541 326.745 537.5C326.771 539.436 325.89 540.929 324.186 541.877C323.559 542.219 322.89 542.474 322.195 542.637C319.767 543.222 317.352 543.825 314.923 544.41C313.376 544.776 311.895 544.606 310.617 543.586C309.213 542.459 308.609 540.96 308.936 539.189C309.277 537.325 310.431 536.068 312.251 535.514C313.66 535.09 315.087 534.741 316.527 534.411C317.614 534.161 318.629 533.852 319.582 533.177C320.995 532.163 322.578 532.239 323.983 532.919ZM352.857 538.008C352.374 538.996 351.65 539.774 350.643 540.243C350.075 540.507 349.498 540.744 348.899 540.891C346.868 541.396 344.856 541.955 342.843 542.513C339.793 543.357 337.003 541.402 336.838 538.379C336.736 536.483 337.801 534.779 339.661 533.921C341.043 533.282 342.515 532.911 343.986 532.563C344.773 532.375 345.503 532.125 346.205 531.705C348.106 530.565 350.248 530.843 351.862 532.355C353.391 533.791 353.797 536.085 352.857 538.008ZM266.941 513.458C267.478 512.474 268.199 511.772 269.156 511.334C269.809 511.035 270.489 510.816 271.204 510.749C273.105 510.571 275.015 510.33 276.924 510.245C280.386 510.099 282.742 513.167 281.649 516.4C281.081 518.095 279.811 519.092 278.071 519.44C277.512 519.552 276.922 519.547 276.349 519.619C274.806 519.797 273.25 519.868 271.707 520.114C269.882 520.409 268.366 519.728 267.302 518.212C266.225 516.7 266.203 515.068 266.941 513.458ZM320.8 494.829C322.616 495.76 323.572 497.424 323.433 499.266C323.28 501.247 322.238 502.571 320.413 503.29C320.003 503.464 319.566 503.567 319.121 503.594C317.426 503.674 315.74 503.736 314.049 503.74C313.097 503.744 312.211 503.436 311.42 502.872C309.855 501.731 309.153 499.87 309.61 498.041C310.08 496.186 311.543 494.759 313.421 494.581C315.277 494.403 317.156 494.403 319.02 494.364C319.645 494.352 320.261 494.513 320.8 494.829ZM662.366 378.45C661.648 378.022 661.243 377.174 661.371 376.371C661.436 375.946 661.629 375.55 661.925 375.237C662.22 374.924 662.605 374.708 663.026 374.619C663.264 374.57 663.512 374.566 663.756 374.559C665.221 374.51 666.685 374.488 668.139 374.262C668.452 374.21 668.772 374.223 669.08 374.3C669.387 374.377 669.676 374.518 669.926 374.712C670.629 375.243 670.903 375.964 670.743 376.811C670.581 377.663 670.031 378.211 669.197 378.453C669.04 378.498 668.878 378.526 668.715 378.536C667.03 378.649 665.346 378.789 663.654 378.78C663.192 378.778 662.76 378.688 662.366 378.45ZM668.604 384.917C668.438 385.213 668.207 385.467 667.929 385.661C667.651 385.855 667.334 385.984 666.999 386.039C665.334 386.313 663.655 386.558 661.963 386.49C660.417 386.426 659.505 384.899 660.125 383.502C660.479 382.703 661.152 382.288 662.007 382.266C663.112 382.239 664.193 382.082 665.288 381.992C665.637 381.962 665.966 381.868 666.302 381.788C667.154 381.588 668.006 381.916 668.512 382.616C669.002 383.296 669.037 384.192 668.604 384.917ZM673.715 380.996C674.034 380.458 674.507 380.135 675.113 380.006C676.028 379.806 676.951 379.665 677.879 379.559C678.302 379.518 678.717 379.419 679.113 379.265C679.401 379.148 679.71 379.092 680.02 379.1C680.331 379.107 680.637 379.179 680.918 379.31C681.2 379.441 681.452 379.629 681.658 379.861C681.863 380.094 682.019 380.367 682.115 380.662C682.506 381.869 681.824 383.105 680.559 383.467C680.384 383.52 680.204 383.558 680.022 383.579C678.647 383.709 677.28 383.907 675.915 384.117C675.069 384.246 674.345 383.996 673.82 383.294C673.307 382.606 673.273 381.737 673.715 380.996ZM675.61 386.856C676.466 387.4 676.76 388.148 676.701 389.041C676.643 389.923 676.188 390.571 675.378 390.94C675.081 391.074 674.766 391.166 674.444 391.214C673.318 391.392 672.197 391.579 671.07 391.757C670.353 391.868 669.685 391.737 669.14 391.226C668.542 390.662 668.322 389.958 668.535 389.164C668.758 388.328 669.328 387.798 670.177 387.612C670.835 387.474 671.497 387.359 672.163 387.265C672.667 387.19 673.14 387.087 673.598 386.814C674.278 386.404 674.996 386.496 675.61 386.856ZM688.567 390.219C688.312 390.651 687.954 390.979 687.479 391.156C687.211 391.256 686.939 391.343 686.661 391.388C685.719 391.544 684.783 391.725 683.846 391.906C682.428 392.18 681.229 391.189 681.263 389.807C681.285 388.941 681.832 388.204 682.71 387.881C683.362 387.64 684.045 387.525 684.727 387.419C685.088 387.371 685.44 387.267 685.768 387.109C686.675 386.659 687.64 386.864 688.319 387.61C688.963 388.319 689.065 389.378 688.567 390.219ZM650.355 375.931C650.635 375.503 650.988 375.209 651.44 375.045C651.748 374.932 652.065 374.857 652.393 374.853C653.265 374.84 654.143 374.8 655.015 374.831C656.596 374.889 657.557 376.371 656.942 377.803C656.622 378.554 656.008 378.962 655.203 379.057C654.945 379.088 654.676 379.064 654.413 379.076C653.705 379.101 652.994 379.077 652.283 379.133C651.441 379.201 650.776 378.836 650.347 378.108C649.911 377.38 649.961 376.637 650.355 375.931ZM675.543 369.405C676.335 369.894 676.71 370.686 676.58 371.52C676.439 372.416 675.917 372.981 675.06 373.242C674.869 373.302 674.659 373.341 674.461 373.333C673.689 373.311 672.917 373.272 672.147 373.216C671.716 373.181 671.308 373.009 670.982 372.725C670.311 372.149 670.059 371.277 670.334 370.461C670.615 369.634 671.332 369.038 672.194 369.025C673.045 369.011 673.9 369.079 674.75 369.129C675.06 369.145 675.345 369.264 675.543 369.405ZM279.64 384.528C278.492 383.843 277.843 382.486 278.048 381.201C278.264 379.812 279.315 378.68 280.698 378.397C281.078 378.319 281.475 378.312 281.866 378.3C284.209 378.222 286.553 378.187 288.88 377.825C289.381 377.741 289.893 377.762 290.386 377.886C290.878 378.01 291.339 378.235 291.74 378.546C292.865 379.396 293.304 380.549 293.048 381.905C292.788 383.268 291.908 384.145 290.572 384.533C290.321 384.605 290.062 384.649 289.801 384.665C287.105 384.846 284.409 385.07 281.703 385.057C280.962 385.053 280.272 384.909 279.64 384.528ZM289.624 394.878C289.043 395.868 288.138 396.49 287.055 396.672C284.391 397.112 281.704 397.503 278.995 397.395C276.522 397.292 275.062 394.848 276.054 392.613C276.621 391.334 277.697 390.669 279.067 390.635C280.834 390.592 282.565 390.341 284.318 390.196C284.875 390.148 285.402 389.997 285.94 389.87C286.594 389.713 287.281 389.754 287.911 389.991C288.541 390.227 289.087 390.646 289.476 391.195C289.86 391.727 290.078 392.36 290.104 393.015C290.131 393.669 289.964 394.318 289.624 394.878ZM297.803 388.602C298.314 387.742 299.07 387.225 300.041 387.018C301.504 386.706 302.981 386.467 304.468 386.303C305.146 386.226 305.799 386.091 306.443 385.831C306.904 385.644 307.398 385.554 307.895 385.567C308.392 385.579 308.881 385.694 309.332 385.904C309.783 386.114 310.185 386.414 310.515 386.787C310.844 387.159 311.094 387.595 311.247 388.068C311.873 389.999 310.78 391.977 308.757 392.556C308.479 392.636 308.188 392.707 307.897 392.737C305.697 392.944 303.508 393.261 301.324 393.598C299.97 393.804 298.812 393.403 297.971 392.281C297.151 391.179 297.095 389.788 297.803 388.602ZM300.836 397.981C302.206 398.851 302.677 400.049 302.583 401.477C302.49 402.889 301.761 403.926 300.465 404.517C299.989 404.729 299.486 404.877 298.971 404.955C297.168 405.24 295.374 405.539 293.571 405.825C292.423 406.002 291.355 405.792 290.482 404.975C289.525 404.072 289.173 402.946 289.514 401.675C289.87 400.336 290.783 399.488 292.141 399.19C293.194 398.97 294.254 398.785 295.32 398.635C296.126 398.515 296.883 398.35 297.616 397.913C298.705 397.256 299.853 397.404 300.836 397.981ZM321.573 403.363C321.163 404.054 320.59 404.579 319.83 404.862C319.401 405.022 318.967 405.161 318.522 405.233C317.014 405.483 315.516 405.773 314.017 406.063C311.747 406.501 309.828 404.915 309.883 402.704C309.919 401.316 310.793 400.137 312.198 399.62C313.242 399.235 314.335 399.05 315.427 398.882C316.011 398.791 316.557 398.651 317.093 398.386C318.544 397.666 320.088 397.992 321.176 399.187C322.206 400.322 322.369 402.017 321.573 403.363ZM260.419 380.496C260.867 379.811 261.432 379.342 262.155 379.078C262.648 378.898 263.156 378.778 263.681 378.771C265.075 378.751 266.48 378.686 267.876 378.736C270.406 378.83 271.944 381.202 270.961 383.493C270.448 384.694 269.465 385.347 268.178 385.5C267.764 385.548 267.334 385.511 266.913 385.53C265.779 385.57 264.641 385.532 263.503 385.621C262.157 385.73 261.093 385.146 260.406 383.98C259.709 382.816 259.787 381.626 260.419 380.496ZM300.729 370.053C301.997 370.836 302.597 372.103 302.389 373.437C302.163 374.871 301.327 375.775 299.956 376.193C299.647 376.296 299.323 376.346 298.997 376.339C297.761 376.305 296.527 376.242 295.294 376.151C294.6 376.099 293.973 375.823 293.43 375.366C292.356 374.445 291.953 373.049 292.392 371.743C292.842 370.419 293.99 369.465 295.368 369.444C296.731 369.422 298.099 369.531 299.459 369.61C299.955 369.637 300.412 369.827 300.729 370.053ZM119.64 484.528C118.492 483.843 117.843 482.486 118.048 481.201C118.264 479.812 119.315 478.68 120.698 478.397C121.078 478.319 121.475 478.312 121.866 478.3C124.209 478.222 126.553 478.187 128.88 477.825C129.381 477.741 129.893 477.762 130.386 477.886C130.878 478.01 131.339 478.235 131.74 478.546C132.865 479.396 133.304 480.549 133.048 481.905C132.788 483.268 131.908 484.145 130.572 484.533C130.321 484.605 130.062 484.649 129.801 484.665C127.105 484.846 124.409 485.07 121.703 485.057C120.962 485.053 120.272 484.909 119.64 484.528ZM129.624 494.878C129.043 495.868 128.138 496.49 127.055 496.672C124.391 497.112 121.704 497.503 118.995 497.395C116.522 497.292 115.062 494.848 116.054 492.613C116.621 491.334 117.697 490.669 119.067 490.635C120.834 490.592 122.565 490.341 124.318 490.196C124.875 490.148 125.402 489.997 125.94 489.87C126.594 489.713 127.281 489.754 127.911 489.991C128.541 490.227 129.087 490.646 129.476 491.195C129.86 491.727 130.078 492.36 130.104 493.015C130.131 493.669 129.964 494.318 129.624 494.878ZM137.803 488.602C138.314 487.742 139.07 487.225 140.041 487.018C141.504 486.706 142.981 486.467 144.468 486.303C145.146 486.226 145.799 486.091 146.443 485.831C146.904 485.644 147.398 485.554 147.895 485.567C148.392 485.579 148.881 485.694 149.332 485.904C149.783 486.114 150.185 486.414 150.515 486.787C150.844 487.159 151.094 487.595 151.247 488.068C151.873 489.999 150.78 491.977 148.757 492.556C148.479 492.636 148.188 492.707 147.897 492.737C145.697 492.944 143.508 493.261 141.324 493.598C139.97 493.804 138.812 493.403 137.971 492.281C137.151 491.179 137.095 489.788 137.803 488.602ZM140.836 497.981C142.206 498.851 142.677 500.049 142.583 501.477C142.49 502.889 141.761 503.926 140.465 504.517C139.989 504.729 139.486 504.877 138.971 504.955C137.168 505.24 135.374 505.539 133.571 505.825C132.423 506.002 131.355 505.792 130.482 504.975C129.525 504.072 129.173 502.946 129.514 501.675C129.87 500.336 130.783 499.488 132.141 499.19C133.194 498.97 134.254 498.785 135.32 498.635C136.126 498.515 136.883 498.35 137.616 497.913C138.705 497.256 139.853 497.404 140.836 497.981ZM161.573 503.363C161.163 504.054 160.59 504.579 159.83 504.862C159.401 505.022 158.967 505.161 158.522 505.233C157.014 505.483 155.516 505.773 154.017 506.063C151.747 506.501 149.828 504.915 149.883 502.704C149.919 501.316 150.793 500.137 152.198 499.62C153.242 499.235 154.335 499.05 155.427 498.882C156.011 498.791 156.557 498.651 157.093 498.386C158.544 497.666 160.088 497.992 161.176 499.187C162.206 500.322 162.369 502.017 161.573 503.363ZM100.419 480.496C100.867 479.811 101.432 479.342 102.155 479.078C102.648 478.898 103.156 478.778 103.681 478.771C105.075 478.751 106.48 478.686 107.876 478.736C110.406 478.83 111.944 481.202 110.961 483.493C110.448 484.694 109.465 485.347 108.178 485.5C107.764 485.548 107.334 485.511 106.913 485.53C105.779 485.57 104.641 485.532 103.503 485.621C102.157 485.73 101.093 485.146 100.406 483.98C99.709 482.816 99.787 481.626 100.419 480.496ZM140.729 470.053C141.997 470.836 142.597 472.103 142.389 473.437C142.163 474.871 141.327 475.775 139.956 476.193C139.647 476.296 139.323 476.346 138.997 476.339C137.761 476.305 136.527 476.242 135.294 476.151C134.6 476.099 133.973 475.823 133.43 475.366C132.356 474.445 131.953 473.049 132.392 471.743C132.842 470.419 133.99 469.465 135.368 469.444C136.731 469.422 138.099 469.531 139.459 469.61C139.955 469.637 140.412 469.827 140.729 470.053ZM730.102 510.279C728.532 509.64 727.459 508.063 727.47 506.414C727.476 504.631 728.577 503.012 730.256 502.393C730.717 502.223 731.214 502.138 731.702 502.049C734.624 501.503 737.554 501.011 740.402 500.114C741.66 499.712 742.935 499.829 744.124 500.471C745.696 501.322 746.466 502.683 746.405 504.432C746.339 506.189 745.404 507.456 743.804 508.198C743.503 508.337 743.187 508.441 742.863 508.51C739.519 509.252 736.182 510.047 732.787 510.548C731.859 510.685 730.966 510.637 730.102 510.279ZM744.591 521.345C744.052 522.696 743.036 523.649 741.714 524.085C738.458 525.144 735.166 526.148 731.75 526.529C728.631 526.873 726.334 524.088 727.15 521.098C727.617 519.386 728.839 518.348 730.549 518.043C732.756 517.652 734.877 517.006 737.046 516.49C737.736 516.324 738.367 516.034 739.017 515.771C739.807 515.449 740.676 515.37 741.511 515.546C742.346 515.722 743.109 516.144 743.702 516.757C744.284 517.35 744.679 518.102 744.837 518.917C744.995 519.733 744.91 520.578 744.591 521.345ZM753.644 511.917C754.12 510.741 754.969 509.949 756.146 509.504C757.919 508.833 759.726 508.252 761.558 507.763C762.393 507.537 763.186 507.243 763.943 506.794C764.485 506.472 765.087 506.265 765.712 506.186C766.338 506.106 766.973 506.157 767.578 506.334C768.183 506.511 768.745 506.81 769.229 507.214C769.713 507.618 770.108 508.117 770.391 508.68C771.544 510.981 770.553 513.669 768.128 514.781C767.792 514.942 767.443 515.072 767.084 515.171C764.367 515.852 761.684 516.667 759.011 517.506C757.353 518.023 755.826 517.742 754.557 516.495C753.319 515.271 752.983 513.539 753.644 511.917ZM759.236 523.092C761.119 523.921 761.938 525.333 762.093 527.141C762.245 528.928 761.53 530.367 760.018 531.356C759.462 531.713 758.861 531.993 758.23 532.19C756.025 532.891 753.833 533.609 751.628 534.311C750.223 534.752 748.844 534.693 747.595 533.835C746.223 532.887 745.566 531.542 745.75 529.884C745.941 528.139 746.924 526.901 748.569 526.269C749.843 525.783 751.138 525.366 752.446 524.965C753.434 524.662 754.352 524.31 755.187 523.623C756.426 522.591 757.894 522.557 759.236 523.092ZM786.254 525.877C785.873 526.823 785.255 527.59 784.356 528.09C783.849 528.371 783.331 528.628 782.787 528.804C780.95 529.413 779.12 530.047 777.3 530.705C774.537 531.687 771.83 530.066 771.477 527.284C771.256 525.538 772.127 523.894 773.79 522.977C775.024 522.295 776.359 521.855 777.695 521.435C778.41 521.21 779.067 520.93 779.688 520.495C781.369 519.316 783.367 519.43 784.958 520.72C786.466 521.946 786.994 524.039 786.254 525.877ZM705.241 508.897C705.671 507.953 706.29 507.256 707.146 506.788C707.729 506.468 708.343 506.221 708.999 506.111C710.744 505.82 712.492 505.471 714.251 505.266C717.44 504.901 719.82 507.58 719.026 510.64C718.613 512.243 717.505 513.249 715.921 513.686C715.412 513.826 714.866 513.861 714.342 513.965C712.928 514.232 711.495 514.401 710.085 514.731C708.419 515.124 706.973 514.596 705.89 513.266C704.794 511.94 704.665 510.433 705.241 508.897ZM753.768 488.109C755.507 488.849 756.501 490.323 756.495 492.034C756.485 493.875 755.61 495.167 753.972 495.953C753.607 496.133 753.197 496.274 752.798 496.319C751.237 496.506 749.683 496.675 748.122 496.791C747.242 496.858 746.403 496.632 745.634 496.163C744.113 495.213 743.341 493.54 743.642 491.82C743.953 490.074 745.21 488.66 746.933 488.37C748.636 488.082 750.372 487.958 752.092 487.797C752.669 487.746 753.249 487.854 753.768 488.109Z" fill="#E1E4E5"/>
<path d="M375.31 483.964C375.63 482.994 376.3 482.214 376.81 481.354C380.59 474.884 383.83 468.164 386.31 461.074C387.82 456.764 389.31 452.444 390.32 447.984C391.21 444.064 391.98 440.124 392.38 436.114C392.59 434.034 392.79 431.964 392.86 429.874C392.9 428.754 393.09 427.634 393 426.514C392.83 424.474 392.89 422.414 392.35 420.414C392.25 420.044 392.15 419.664 392 419.314C391.15 417.264 389.24 416.854 387.62 418.344C386.84 419.064 386.28 419.944 385.76 420.854C383.35 425.064 381.35 429.474 379.58 433.984C376.86 440.904 374.41 447.924 372.13 454.994C371.72 456.274 371.32 457.564 370.74 458.834C370.74 458.144 370.64 457.434 370.76 456.764C370.95 455.794 370.89 454.834 370.95 453.874C371.32 447.914 371.27 441.944 371.12 435.974C371.06 433.594 370.84 431.194 370.56 428.814C370.37 427.204 370.23 425.584 370.01 423.984C369.36 419.354 368.72 414.714 366.99 410.324C366.65 409.454 366.2 408.634 365.54 407.964C364.21 406.594 362.56 406.694 361.35 408.194C360.18 409.644 359.61 411.384 359.11 413.134C358.49 415.334 358.17 417.584 357.88 419.854C357.39 423.694 357.28 427.554 357.14 431.424C357.05 434.054 356.95 436.694 357.03 439.324C357.12 442.264 357.11 445.214 357.27 448.154C357.43 451.094 357.53 454.024 357.68 456.964C357.68 457.044 357.66 457.114 357.63 457.294C357.23 456.644 357.18 455.974 357.03 455.354C355.18 447.544 352.81 439.894 349.68 432.504C347.74 427.934 345.59 423.464 342.62 419.444C341.42 417.814 340.14 416.254 338.37 415.214C337.43 414.664 336.44 414.234 335.29 414.534C334.09 414.844 333.39 415.664 332.97 416.774C332.37 418.364 332.22 420.024 332.36 421.684C332.58 424.304 332.94 426.904 333.45 429.484C334.38 434.204 335.76 438.794 337.45 443.294C340.57 451.624 344.15 459.784 347.58 468.004C347.73 468.354 347.97 468.684 347.89 469.104C348.01 469.124 348.07 469.194 348.07 469.304C348.07 469.334 348 469.364 347.96 469.394C347.93 469.294 347.91 469.204 347.88 469.104C347.22 468.644 346.91 467.904 346.48 467.284C344.13 463.914 341.71 460.604 339.05 457.474C336.46 454.434 333.77 451.484 330.34 449.344C329.12 448.584 327.87 447.884 326.36 447.894C324.65 447.904 323.49 448.674 322.95 450.324C322.6 451.394 322.51 452.474 322.64 453.624C323.08 457.424 324.66 460.754 326.67 463.904C329.47 468.284 332.71 472.324 336.18 476.194C339.66 480.074 343.6 483.434 347.67 486.654C351.28 489.514 354.83 492.454 358.4 495.354C359.36 496.134 360.34 496.894 361.37 497.584C362.4 498.284 363.5 498.454 364.68 498.124C369.38 496.784 374 495.274 378.33 492.954C381.72 491.134 384.87 488.974 387.84 486.524C390.69 484.184 393.43 481.734 395.94 479.034C398.15 476.644 400.23 474.144 401.74 471.234C402.22 470.314 402.44 469.354 402.34 468.324C402.24 467.284 401.45 466.404 400.41 466.304C399.53 466.224 398.64 466.234 397.77 466.514C395.44 467.264 393.48 468.654 391.62 470.174C387.49 473.564 383.39 476.984 379.47 480.614C378.31 481.694 377.1 482.724 375.91 483.774C375.76 483.904 375.61 484.024 375.41 484.044C375.36 484.224 375.29 484.374 375.09 484.434C375.08 484.464 375.07 484.494 375.05 484.514C375.04 484.524 375.01 484.524 374.99 484.524C375.03 484.494 375.07 484.474 375.11 484.444C375.06 484.254 375.13 484.094 375.31 483.964ZM670.929 495.014C666.19 499.753 661.525 504.565 656.683 509.201C654.717 511.079 652.81 513.075 650.49 514.57C649.859 514.966 649.213 515.259 648.479 515.375C646.848 515.622 645.466 514.886 644.758 513.357C644.139 512.033 644.122 510.637 644.149 509.227C644.246 504.834 645.003 500.485 645.761 496.167C648.922 477.937 655.215 460.813 664.213 444.664C666.807 439.985 669.579 435.406 672.523 430.938C675.881 425.815 680.047 421.383 684.493 417.232C690.157 411.95 696.307 407.331 703.001 403.433C705.277 402.099 707.714 401.162 710.226 400.387C712.047 399.832 712.635 400.244 713.666 401.773C715.757 404.892 715.895 408.404 716.106 411.93C716.634 421.497 715.296 430.781 712.107 439.798C709.268 447.817 705.238 455.231 700.312 462.159C697.452 466.166 694.431 470.041 691.292 473.827C685.968 480.181 680.085 486.006 674.245 491.845L671.018 495.073C670.973 495.058 670.959 495.043 670.929 495.014ZM635.501 461.269C634.289 466.16 633.165 471.081 631.85 475.957C631.309 477.94 630.856 479.952 629.948 481.832C629.716 482.332 629.381 482.776 628.966 483.138C627.997 483.93 626.836 483.972 625.792 483.28C624.88 482.662 624.32 481.779 623.805 480.853C622.155 477.97 620.975 474.883 619.765 471.796C614.721 458.799 612.114 445.306 611.638 431.391C611.485 427.365 611.494 423.324 611.65 419.313C611.819 414.699 612.782 410.234 614.025 405.813C615.618 400.217 617.784 394.842 620.569 389.733C621.506 388.001 622.724 386.43 624.029 384.978C624.983 383.906 625.526 383.951 626.776 384.526C629.335 385.735 630.793 387.956 632.295 390.133C636.374 396.09 639.116 402.618 640.552 409.658C641.84 415.934 642.129 422.297 641.653 428.659C641.379 432.346 640.944 436.019 640.377 439.677C639.445 445.847 637.912 451.884 636.422 457.935C636.159 459.051 635.867 460.168 635.589 461.269C635.545 461.284 635.516 461.284 635.501 461.269ZM298.389 461.27C297.177 466.161 296.053 471.082 294.738 475.958C294.197 477.941 293.744 479.953 292.836 481.833C292.604 482.333 292.269 482.778 291.854 483.139C290.885 483.931 289.724 483.973 288.68 483.281C287.768 482.663 287.208 481.78 286.693 480.854C285.043 477.971 283.863 474.884 282.653 471.797C277.609 458.8 275.002 445.307 274.526 431.392C274.373 427.366 274.382 423.325 274.538 419.314C274.707 414.7 275.67 410.235 276.912 405.814C278.506 400.218 280.672 394.843 283.456 389.734C284.394 388.002 285.612 386.431 286.917 384.979C287.871 383.907 288.414 383.952 289.664 384.527C292.223 385.736 293.681 387.957 295.183 390.134C299.262 396.091 302.004 402.619 303.44 409.659C304.728 415.935 305.016 422.298 304.541 428.66C304.267 432.347 303.832 436.02 303.264 439.678C302.333 445.848 300.799 451.884 299.31 457.936C299.047 459.052 298.755 460.169 298.477 461.27C298.433 461.285 298.404 461.285 298.389 461.27ZM205.565 482.395C205.745 478.385 205.525 474.435 205.345 470.485C205.225 467.895 205.065 465.305 204.885 462.725C204.555 457.965 204.415 453.205 204.535 448.435C204.645 444.335 205.005 440.255 205.575 436.195C206.425 430.155 207.795 424.255 209.835 418.515C211.745 413.165 214.115 408.045 217.495 403.445C219.205 401.115 221.205 399.075 223.725 397.595C225.105 396.785 226.575 396.185 228.185 396.035C230.985 395.775 233.155 396.925 234.795 399.145C236.175 401.035 236.845 403.205 237.275 405.475C237.855 408.505 237.885 411.565 237.745 414.625C237.135 427.655 233.535 439.905 228.085 451.685C225.935 456.325 223.545 460.845 221.245 465.415C218.045 471.775 215.665 478.435 213.795 485.285C212.855 488.725 211.805 492.125 210.555 495.455C210.265 496.225 209.945 496.965 209.485 497.645C208.575 498.985 207.395 499.255 205.965 498.455C205.315 498.095 204.755 497.625 204.305 497.025C203.345 495.745 202.475 494.405 201.945 492.905C201.455 491.505 200.615 490.405 199.665 489.315C192.775 481.425 186.845 472.885 182.205 463.475C179.665 458.325 177.515 453.015 176.225 447.395C175.865 445.845 175.555 444.295 175.585 442.695C175.585 442.425 175.595 442.155 175.625 441.885C175.895 439.595 177.685 438.605 179.745 439.635C181.095 440.305 182.095 441.395 183.045 442.525C185.245 445.145 187.125 447.995 188.935 450.885C193.795 458.635 198.305 466.595 202.225 474.865C203.305 477.145 204.235 479.485 205.145 481.825C205.225 482.015 205.195 482.285 205.565 482.395Z" fill="#4F27AA"/>
<path d="M230.532 509.993C228.433 509.952 226.831 508.958 225.608 507.263C224.499 505.729 224.389 504.02 224.811 502.234C225.198 500.593 225.92 499.117 227.091 497.916C228.138 496.841 229.392 496.099 230.911 496.005C231.742 495.955 232.53 496.225 233.208 496.738C233.564 497.008 233.947 497.237 234.308 497.498C236.024 498.739 237.142 500.395 237.529 502.522C237.648 503.161 237.56 503.813 237.362 504.429C236.491 507.146 234.788 509.017 232.051 509.813C231.559 509.959 231.045 510.02 230.532 509.993ZM733.075 463.994C731.137 463.959 729.658 463.107 728.529 461.654C727.505 460.339 727.404 458.874 727.794 457.343C728.151 455.936 728.817 454.672 729.898 453.642C730.865 452.721 732.023 452.085 733.424 452.004C734.182 451.967 734.929 452.188 735.544 452.632C735.874 452.864 736.227 453.06 736.56 453.284C738.144 454.348 739.176 455.767 739.534 457.59C739.643 458.138 739.562 458.697 739.379 459.225C738.575 461.553 737.003 463.157 734.476 463.84C734.02 463.965 733.547 464.017 733.075 463.994Z" fill="#E1E4E5"/>
<path d="M592.935 506.38C600.8 503.723 607.617 498.063 611.597 490.804C612.722 488.802 613.64 486.502 613.338 484.226C613.261 483.762 613.143 483.213 612.726 482.997C612.35 482.781 611.844 482.899 611.421 483.019C598.284 486.563 584.396 492.536 570.607 491.906C569.976 491.896 569.346 491.845 568.795 492.089C568.118 492.373 567.688 492.998 567.383 493.666C566.341 495.838 565.437 499.947 565.778 502.392C566.197 505.301 569.009 505.722 571.481 506.348C578.522 508.138 585.916 508.755 592.935 506.38Z" fill="#F8AE9D"/>
<path d="M594.149 490.076C595.208 489.629 596.308 489.183 597.444 489.159C598.581 489.134 599.833 489.742 600.195 490.841C600.436 491.602 600.214 492.398 599.908 493.108C599.081 494.947 597.628 496.439 596.094 497.762C590.213 502.721 582.68 505.719 574.974 506.191C571.564 506.392 567.992 506.085 564.988 504.483C566.488 502.655 566.191 500.042 566.353 497.731C566.834 490.965 572.6 493.535 577.228 493.521C583.035 493.399 588.815 492.267 594.149 490.076Z" fill="#F8AE9D"/>
<path d="M418.142 440.034L417.878 440.787C416.03 446.144 414.599 451.675 414.008 457.345C412.925 467.761 414.969 479.95 422.805 487.515C433.253 497.601 450.014 499.16 463.638 496.759C469.215 495.784 474.466 493.451 478.928 489.966C483.368 493.987 488.139 498.393 492.109 502.87C500.084 500.081 507.675 496.295 514.702 491.603C531.329 499.217 548.288 504.355 566.195 508.076C568.241 502.985 569.677 497.669 570.474 492.24C570.613 491.358 559.454 483.827 558.166 482.756C554.303 479.5 546.255 472.058 546.255 472.058C546.255 472.058 556.398 463.42 560.835 459.365C565.529 455.15 570.032 450.727 574.33 446.108C577.879 442.292 581.348 438.264 583.523 433.502C585.699 428.781 586.498 423.198 584.68 418.291C578.938 403.017 555.762 408.386 544.997 413.649C536.096 418.015 528.301 424.375 520.8 430.824C517.774 433.386 514.789 436.033 511.847 438.639C509.527 436.248 506.966 433.138 504.775 430.623C502.419 427.895 499.723 425.33 496.466 423.724C493.043 421.989 489.884 422.235 486.232 421.717C484.595 421.482 483.004 420.995 481.41 420.718C476.627 419.846 471.565 420.779 467.363 423.239C463.373 425.577 460.134 428.346 455.451 429.242C450.135 430.255 443.96 429.657 438.629 428.945C433.843 428.283 428.98 427.2 424.212 428.137C422.229 428.527 421.471 431.292 420.816 432.881C419.94 435.181 419.02 437.565 418.142 440.034ZM460.385 263.863C460.385 263.863 447.513 261.816 444.057 284.539C440.216 309.8 429.96 305.644 413.674 326.156C404.155 338.142 414.172 359.309 434.528 358.889C454.883 358.48 473.266 352.594 484.975 355.112C496.684 357.63 497.328 327.64 485.775 318.387C474.221 309.134 498.854 282.563 483.844 270.731C468.834 258.899 460.385 263.863 460.385 263.863Z" fill="#2E2445"/>
<path d="M383.446 364.062C382.272 361.649 382.343 358.847 382.767 356.232C384.601 345.007 392.467 335.628 401.484 328.755C410.529 321.864 420.883 316.944 430.4 310.769C432.87 309.16 435.346 307.428 438.182 306.559C441.018 305.69 444.314 305.784 446.656 307.612C448.309 308.896 449.264 310.879 449.821 312.864C451.039 317.209 450.572 321.81 449.829 326.217C448.899 331.777 447.535 337.278 445.295 342.388C443.499 346.51 440.576 350.751 436.183 351.558C434.912 356.484 432.295 361.101 428.624 364.633C424.425 368.683 419.102 371.331 413.577 373.18C408.487 374.888 402.92 376.003 397.8 374.409C394.761 373.481 392.085 371.694 389.467 369.872C387.131 368.32 384.708 366.621 383.446 364.062ZM429.449 356.577L432.453 351.806C431.817 351.862 431.192 352.01 430.598 352.245C428.948 352.959 427.954 355.557 429.449 356.577Z" fill="#2E2445"/>
<path d="M485.13 283.845C485.286 284.689 485.314 285.573 485.257 286.582C484.917 292.474 483.65 298.275 481.504 303.772C480.193 307.034 478.587 310.248 476.317 312.948C475.374 314.07 474.307 315.105 472.913 315.505C471.476 315.904 469.666 315.96 468.242 315.602C466.985 320.799 467.509 330.609 471.996 334.295C473.367 335.41 474.997 336.107 476.629 336.721C479.807 337.947 483.116 338.881 486.429 339.604C490.202 340.419 494.316 341.028 496.966 343.803C497.297 344.144 497.627 344.612 497.494 345.073C497.405 345.366 497.191 345.573 496.937 345.738C494.85 347.431 492.269 348.359 489.69 349.245C485.165 350.775 480.519 352.051 475.794 352.904C470.859 353.797 465.762 354.224 460.764 353.686C456.901 353.248 453.087 352.265 449.58 350.529C445.906 348.706 442.142 347.219 438.341 345.478C435.124 343.999 431.952 342.311 428.47 341.711C430.116 338.581 433.55 336.824 436.97 335.993C440.39 335.203 443.967 335.131 447.426 334.469C448.566 334.234 449.706 333.956 450.684 333.256C453.363 331.32 452.63 327.018 452.672 324.2L452.808 315.284C452.41 311.029 450.655 307.468 449.115 303.575C446.766 297.608 446.28 290.827 448.35 284.717C450.42 278.649 455.127 273.378 461.175 271.24C467.223 269.102 474.483 270.306 479.127 274.752C482.07 277.615 484.471 280.176 485.13 283.845Z" fill="#F8AE9D"/>
<path d="M466.531 264.886C472.559 264.214 478.052 267.165 482.124 271.741C485.551 275.577 487.565 280.64 487.463 285.727C487.448 286.454 487.366 287.246 486.957 287.898C485.868 289.463 483.5 288.887 481.73 288.191C478.844 287.075 476.695 285.446 474.079 284.072C471.463 282.698 468.286 282.899 465.945 281.002C463.734 279.173 456.144 275.32 455.939 272.342C455.681 268.701 462.35 265.728 465.138 265.123C465.537 264.999 466.001 264.942 466.531 264.886Z" fill="#2E2445"/>
<path d="M449.165 273.127C444.068 276.414 441.675 282.173 441.41 288.293C441.178 293.431 442.816 298.628 446.11 302.506C446.58 303.06 447.144 303.622 447.874 303.869C449.706 304.394 451.177 302.451 452.11 300.793C453.642 298.105 454.278 295.485 455.437 292.766C456.597 290.048 459.186 288.197 459.802 285.247C460.36 282.432 463.808 274.65 462.085 272.212C459.984 269.228 452.937 271.137 450.394 272.43C450.006 272.586 449.61 272.835 449.165 273.127Z" fill="#2E2445"/>
<path d="M494.504 342.506C495.308 342.139 496.272 342.406 496.808 343.13C502.822 351.55 505.143 362.102 507.176 372.272C509.483 383.833 511.536 395.433 513.505 407.031C513.623 407.622 513.697 408.254 513.436 408.797C513.176 409.34 512.583 409.625 512.032 409.869C508.557 411.541 505.041 413.171 501.566 414.843C497.816 406.311 495.113 397.357 493.515 388.176C491.284 393.821 487.255 398.724 482.117 401.927C485.945 407.412 490.659 418.379 495.255 423.202C495.958 423.97 500.309 422.774 501.282 422.453C501.887 424.186 499.054 422.335 499.069 424.102C496.455 424.483 493.114 422.917 490.427 422.582C487.186 422.203 483.914 422.182 480.668 422.518C475.274 423.109 470.032 424.796 465.24 427.332C462.858 428.6 460.572 430.041 458.402 431.645C456.53 433.047 451.894 436.342 451.894 436.342C451.554 436.589 449.961 436.228 449.584 436.138C448.484 435.951 447.378 435.808 446.267 435.709C443.479 435.492 440.704 435.127 437.954 434.616C432.459 433.607 427.055 432.052 421.872 429.912C421.373 429.526 423.153 425.851 423.248 425.137C423.154 425.809 412.944 424.981 411.937 424.797C407.911 423.979 403.837 423.538 399.812 422.678C401.615 406.467 406.564 390.809 411.428 375.276C413.329 369.163 415.273 363.051 417.969 357.287C420.839 351.146 424.544 345.397 428.996 340.291C429.124 340.166 429.336 340.085 429.503 340.13C431.641 340.667 444.673 344.02 451.157 346.433C454.461 347.703 457.809 348.847 461.199 349.993C462.538 350.434 463.92 350.875 465.308 350.854C466.234 350.826 467.163 350.63 468.049 350.433C477.082 348.425 486.117 346.248 494.504 342.506Z" fill="#4F27AA"/>
<path d="M435.71 374.803C435.338 377.111 434.84 379.459 434.342 381.765C433.131 386.998 431.577 392.145 429.691 397.175C428.727 399.685 427.722 402.151 426.591 404.616C426.029 405.835 425.449 407.047 424.853 408.25C424.55 408.834 424.246 409.46 423.942 410.045C423.682 410.545 423.381 411.004 423.121 411.462C424.931 411.406 433.863 411.921 435.712 412.075" stroke="white" stroke-width="1.376" stroke-miterlimit="10" stroke-linecap="round"/>
<path d="M436 413.887C435.813 415.069 435.585 416.244 435.316 417.41L434.505 420.931C434.238 421.937 433.63 423.19 433.614 424.241C433.617 424.031 440.777 423.424 441.452 423.351C448.909 422.622 456.403 422.189 463.856 421.714C468.699 421.409 473.451 421.523 478.288 421.554C479.718 421.576 481.403 421.433 482.178 420.267C482.824 419.267 482.296 417.997 482.815 417.08C483.15 417.169 487.047 418.154 487.007 418.069C487.161 418.955 487.47 420.81 488.389 421.245C488.723 421.376 489.059 421.423 489.396 421.429C489.9 421.436 490.406 421.36 490.912 421.283C490.99 421.283 491.066 421.255 491.124 421.202C491.209 421.12 491.127 420.992 491.045 420.865C489.898 419.17 489.297 417.164 489.323 415.117C488.116 414.3 486.91 413.356 485.874 412.331C485.045 411.477 484.431 410.374 483.517 409.645C482.562 408.831 481.629 409.321 480.573 409.6C479.351 409.874 478.14 410.192 476.941 410.554C474.616 411.276 472.289 412.166 470.332 413.609C469.651 414.103 469.012 414.641 468.209 414.881C467.448 415.122 466.607 415.109 465.808 415.097C460.888 414.98 455.969 414.737 451.098 414.2C446.1 413.661 442.691 413.736 436.144 412.753C436.143 412.795 436.137 413.174 436 413.887Z" fill="#F8AE9D"/>
<path d="M490.184 374.336C491.36 379.421 492.208 384.556 492.782 389.795" stroke="white" stroke-width="1.376" stroke-miterlimit="10" stroke-linecap="round"/>
<path d="M589.387 365.948L574.947 430.344L465.303 428.679C465.36 424.894 468.478 421.828 472.305 421.886L498.507 422.284L511.564 363.041C511.766 362.109 512.283 361.277 513.028 360.682C513.773 360.088 514.7 359.769 515.652 359.78L585.384 360.839C588.033 360.922 589.973 363.349 589.387 365.948Z" fill="#2E2445"/>
<path d="M446.155 523.291C446.663 520.354 448.097 517.347 449.441 514.717C454.989 503.948 464.906 496.358 475.586 491.136C476.688 490.606 477.79 490.075 478.932 489.672C478.846 489.797 478.76 489.922 478.673 490.089L478.672 490.131L478.63 490.13C478.758 490.048 478.843 489.965 478.971 489.883C483.287 493.777 487.891 498.053 491.822 502.362C489.224 504.468 485.454 506.178 483.582 507.579C479.157 510.835 474.898 514.304 470.308 517.348C464.145 521.503 457.579 524.516 450.239 525.835C447.413 526.339 445.933 526.863 445.966 524.676C446.013 524.34 446.062 523.878 446.155 523.291Z" fill="#F8AE9D"/>
<path d="M453.312 514.819C456.17 509.436 460.607 505.338 465.458 501.71C468.862 499.154 472.473 496.853 475.916 494.507C476.893 493.849 478.813 492.069 480.467 491.211C483.911 494.334 487.437 497.627 490.624 501.041C480.094 507.443 470.713 515.798 459.159 520.334C458.101 520.739 457.002 521.143 455.865 521.168C454.729 521.193 453.517 520.711 452.858 519.776C451.828 518.33 452.489 516.363 453.312 514.819Z" fill="#F8AE9D"/>
<path d="M546.583 402C551.554 402 555.583 397.971 555.583 393C555.583 388.029 551.554 384 546.583 384C541.612 384 537.583 388.029 537.583 393C537.583 397.971 541.612 402 546.583 402Z" fill="white"/>
<path fill-rule="evenodd" clip-rule="evenodd" d="M416.692 130.768C416.692 153.637 435.231 172.178 458.102 172.178C480.971 172.178 499.511 153.637 499.511 130.768C499.511 107.899 480.971 89.3594 458.102 89.3594C435.231 89.3594 416.692 107.899 416.692 130.768Z" fill="#E1E4E5"/>
<path fill-rule="evenodd" clip-rule="evenodd" d="M154.793 215.375C140.39 215.375 147.129 192.536 165.376 197.991C166.386 166.279 218.076 143.076 239.451 185.848C245.494 181.066 259.064 190.099 256.059 197.991C262.771 198.563 268.052 199.34 272.161 200.368C281.648 202.743 279.77 215.268 269.991 215.181L154.793 215.375ZM426.154 215.376C439.774 215.376 433.401 193.779 416.147 198.937C415.191 168.95 366.312 147.008 346.1 187.455C340.385 182.933 327.553 191.474 330.395 198.937C324.047 199.479 319.054 200.213 315.168 201.185C306.197 203.431 307.973 215.275 317.22 215.192L426.154 215.376ZM539.791 123.823C529.607 123.823 534.372 107.674 547.274 111.531C547.988 89.108 584.537 72.701 599.651 102.945C603.924 99.564 613.519 105.95 611.394 111.531C616.14 111.936 619.874 112.485 622.779 113.212C629.487 114.891 628.16 123.747 621.245 123.685L539.791 123.823ZM320.399 177.88H259.383C253.928 177.88 251.577 170.802 256.041 167.662C256.103 167.617 256.167 167.572 256.23 167.529C262.586 163.151 270.928 163.549 270.928 163.549C270.928 163.549 272.119 139.862 294.562 139.862C314.854 139.862 322.945 159.82 325.864 170.815C326.812 174.387 324.087 177.88 320.399 177.88ZM717.1 165.11H662.289C657.388 165.11 655.277 158.717 659.287 155.881L659.457 155.76C665.167 151.806 672.66 152.166 672.66 152.166C672.66 152.166 673.73 130.771 693.891 130.771C712.119 130.771 719.387 148.797 722.009 158.729C722.861 161.955 720.413 165.11 717.1 165.11ZM703.764 215.156H777.293C783.245 215.156 785.813 207.621 780.94 204.278L780.733 204.137C773.796 199.476 764.692 199.899 764.692 199.899C764.692 199.899 763.391 174.685 738.896 174.685C726.786 174.685 716.998 194.921 716.998 194.921C716.998 194.921 700.524 194.921 697.797 207.635C696.973 211.486 699.736 215.156 703.764 215.156ZM662.407 217.617H499.394C484.092 217.617 484.794 204.952 489.792 200.539C494.915 196.016 505.038 197.851 505.038 197.851C505.038 197.851 508.051 189.332 517.971 185.184C526.745 181.516 535.937 183.261 535.937 183.261C535.937 183.261 535.937 177.415 541.554 172.573C547.173 167.731 554.664 168.202 554.664 168.202C554.664 168.202 559.813 135.963 594.223 135.963C628.634 135.963 632.613 166.318 632.613 166.318C632.613 166.318 640.338 166.318 645.957 171.496C651.574 176.673 652.277 182.555 652.277 182.555C652.277 182.555 671.065 180.01 676.622 196.303C679.933 206.013 673.13 217.617 662.407 217.617ZM255.815 126.064H375.726C386.982 126.064 386.465 116.748 382.789 113.502C379.02 110.174 371.575 111.524 371.575 111.524C371.575 111.524 369.358 105.257 362.061 102.207C355.607 99.508 348.846 100.792 348.846 100.792C348.846 100.792 348.846 96.492 344.713 92.93C340.58 89.368 335.07 89.714 335.07 89.714C335.07 89.714 331.282 66 305.97 66C280.658 66 277.731 88.33 277.731 88.33C277.731 88.33 272.049 88.33 267.916 92.138C263.784 95.946 263.267 100.273 263.267 100.273C263.267 100.273 249.446 98.401 245.359 110.385C242.923 117.528 247.928 126.064 255.815 126.064Z" fill="white" stroke="#E1E4E5" stroke-width="4"/>
</g>
<defs>
<clipPath id="clip0_1235_22689">
<rect width="900" height="600" fill="white"/>
</clipPath>
</defs>
</svg>
