<svg width="900" height="600" viewBox="0 0 900 600" fill="none" xmlns="http://www.w3.org/2000/svg">
<g clip-path="url(#clip0_1235_22753)">
<path fill-rule="evenodd" clip-rule="evenodd" d="M271.648 430.97C253.816 430.97 262.159 402.694 284.751 409.447C286.001 370.185 349.998 341.457 376.462 394.414C383.944 388.493 400.744 399.676 397.024 409.447C405.335 410.156 411.873 411.117 416.96 412.39C428.706 415.331 426.381 430.838 414.274 430.729L271.648 430.97ZM171.805 354.601C154.943 354.601 162.833 327.862 184.196 334.249C185.378 297.121 245.895 269.956 270.919 320.032C277.994 314.434 293.881 325.009 290.363 334.249C298.222 334.919 304.405 335.828 309.215 337.032C320.322 339.812 318.123 354.476 306.675 354.373L171.805 354.601ZM233.295 430.086H157.752C150.998 430.086 148.089 421.322 153.615 417.436C153.692 417.38 153.771 417.324 153.849 417.27C161.719 411.85 172.047 412.343 172.047 412.343C172.047 412.343 173.521 383.016 201.308 383.016C226.43 383.016 236.448 407.726 240.062 421.339C241.235 425.762 237.862 430.086 233.295 430.086ZM676.076 431.608H622.951C618.201 431.608 616.155 425.445 620.042 422.712C620.096 422.673 620.151 422.634 620.206 422.596C625.74 418.784 633.003 419.131 633.003 419.131C633.003 419.131 634.04 398.507 653.581 398.507C671.248 398.507 678.294 415.884 680.835 425.457C681.66 428.568 679.288 431.608 676.076 431.608ZM466.567 430.613H557.603C564.972 430.613 568.151 421.284 562.118 417.145C562.034 417.087 561.948 417.028 561.862 416.971C553.274 411.2 542.002 411.724 542.002 411.724C542.002 411.724 540.391 380.507 510.064 380.507C495.07 380.507 482.953 405.56 482.953 405.56C482.953 405.56 462.556 405.56 459.181 421.301C458.16 426.07 461.581 430.613 466.567 430.613Z" fill="white" stroke="#E1E4E5" stroke-width="4"/>
<path fill-rule="evenodd" clip-rule="evenodd" d="M729.653 386.175H527.829C508.884 386.175 509.753 370.495 515.941 365.031C522.284 359.431 534.816 361.702 534.816 361.702C534.816 361.702 538.548 351.155 550.829 346.021C561.692 341.479 573.072 343.64 573.072 343.64C573.072 343.64 573.072 336.402 580.027 330.407C586.984 324.411 596.258 324.994 596.258 324.994C596.258 324.994 602.633 285.08 645.236 285.08C687.839 285.08 692.766 322.663 692.766 322.663C692.766 322.663 702.33 322.663 709.286 329.073C716.241 335.483 717.111 342.765 717.111 342.765C717.111 342.765 740.373 339.615 747.252 359.786C751.352 371.809 742.929 386.175 729.653 386.175Z" fill="white" stroke="#E1E4E5" stroke-width="4"/>
<path fill-rule="evenodd" clip-rule="evenodd" d="M362.834 232.818C324.572 238.042 295 270.5 295 310.191C295 353.505 330.125 388.63 373.439 388.63H546.006C580.66 388.63 608.757 360.533 608.757 325.879C608.757 291.224 580.66 263.127 546.006 263.127C546.006 211.138 503.868 169 451.879 169C410.51 169 375.463 195.716 362.834 232.818Z" fill="#4F27AA"/>
<path d="M489.531 294.503H414.229M451.879 332.155V256.854" stroke="white" stroke-width="21.625" stroke-linecap="round" stroke-linejoin="round"/>
<path d="M622.751 478.766C636.562 482.038 651.17 470.325 651.17 470.325C651.17 470.325 643.375 453.314 629.559 450.052C615.748 446.78 601.145 458.483 601.145 458.483C601.145 458.483 608.94 475.494 622.751 478.766Z" fill="url(#paint0_linear_1235_22753)"/>
<path d="M677.233 173.901C656.228 188.37 624.137 178.256 624.137 178.256C624.137 178.256 626.124 144.688 647.144 130.233C668.149 115.765 700.226 125.865 700.226 125.865C700.226 125.865 698.239 159.433 677.233 173.901Z" fill="url(#paint1_linear_1235_22753)"/>
<path d="M204.75 170.274C217.297 183.044 240.76 180.351 240.76 180.351C240.76 180.351 243.865 156.954 231.306 144.191C218.759 131.421 195.308 134.106 195.308 134.106C195.308 134.106 192.203 157.503 204.75 170.274Z" fill="url(#paint2_linear_1235_22753)"/>
<path d="M139.78 383.506C145.734 383.506 150.56 388.333 150.56 394.286C150.56 400.24 145.734 405.066 139.78 405.066C133.826 405.066 129 400.24 129 394.286C129 388.333 133.826 383.506 139.78 383.506Z" fill="#4F27AA"/>
<path d="M536.064 462.271C542.656 462.271 548 467.348 548 473.61C548 479.873 542.656 484.949 536.064 484.949C529.472 484.949 524.128 479.873 524.128 473.61C524.128 467.348 529.472 462.271 536.064 462.271Z" fill="#4F27AA"/>
<path d="M152.017 280.076C160.551 280.076 167.469 273.158 167.469 264.624C167.469 256.09 160.551 249.172 152.017 249.172C143.483 249.172 136.565 256.09 136.565 264.624C136.565 273.158 143.483 280.076 152.017 280.076Z" fill="#4F27AA"/>
<path d="M412.995 483.651C418.928 483.651 423.738 479.109 423.738 473.505C423.738 467.902 418.928 463.359 412.995 463.359C407.062 463.359 402.252 467.902 402.252 473.505C402.252 479.109 407.062 483.651 412.995 483.651Z" fill="#E1E4E5"/>
<path d="M787.376 455.246C792.139 455.246 796 451.385 796 446.622C796 441.859 792.139 437.998 787.376 437.998C782.613 437.998 778.752 441.859 778.752 446.622C778.752 451.385 782.613 455.246 787.376 455.246Z" fill="#E1E4E5"/>
<path d="M341.351 499.488C344.196 499.488 346.502 497.181 346.502 494.337C346.502 491.492 344.196 489.186 341.351 489.186C338.506 489.186 336.2 491.492 336.2 494.337C336.2 497.181 338.506 499.488 341.351 499.488Z" fill="#E1E4E5"/>
<path d="M384.618 135.046C388.681 135.046 391.976 131.752 391.976 127.688C391.976 123.624 388.681 120.33 384.618 120.33C380.554 120.33 377.26 123.624 377.26 127.688C377.26 131.752 380.554 135.046 384.618 135.046Z" fill="#E1E4E5"/>
<path d="M680.843 483.245C679.815 487.08 682.091 491.023 685.927 492.051C689.763 493.078 693.705 490.802 694.733 486.966C695.761 483.131 693.484 479.188 689.649 478.161C685.813 477.133 681.871 479.409 680.843 483.245Z" fill="#E1E4E5"/>
<path d="M706.73 256.517C712.013 256.517 716.295 252.234 716.295 246.952C716.295 241.669 712.013 237.387 706.73 237.387C701.447 237.387 697.165 241.669 697.165 246.952C697.165 252.234 701.447 256.517 706.73 256.517Z" fill="#E1E4E5"/>
<path d="M112.256 347.573C116.32 347.573 119.614 344.938 119.614 341.687C119.614 338.436 116.32 335.801 112.256 335.801C108.192 335.801 104.898 338.436 104.898 341.687C104.898 344.938 108.192 347.573 112.256 347.573Z" fill="#E1E4E5"/>
<path d="M177 461.882C177 468.278 182.185 473.463 188.581 473.463C194.977 473.463 200.162 468.278 200.162 461.882C200.162 455.486 194.977 450.301 188.581 450.301C182.185 450.301 177 455.486 177 461.882Z" fill="#E1E4E5"/>
<path d="M227.169 243.73H226.977C225.837 259.881 213.826 260.129 213.826 260.129C213.826 260.129 227.071 260.388 227.071 279.049C227.071 260.388 240.315 260.129 240.315 260.129C240.315 260.129 228.309 259.881 227.169 243.73ZM557.405 113.887H557.217C556.104 130.318 544.373 130.57 544.373 130.57C544.373 130.57 557.308 130.834 557.308 149.819C557.308 130.834 570.244 130.57 570.244 130.57C570.244 130.57 558.518 130.318 557.405 113.887ZM778.629 335.111H778.441C777.328 351.542 765.597 351.795 765.597 351.795C765.597 351.795 778.533 352.058 778.533 371.043C778.533 352.058 791.468 351.795 791.468 351.795C791.468 351.795 779.742 351.542 778.629 335.111ZM343.293 171.911H343.105C341.992 188.342 330.261 188.595 330.261 188.595C330.261 188.595 343.197 188.858 343.197 207.843C343.197 188.858 356.132 188.595 356.132 188.595C356.132 188.595 344.406 188.342 343.293 171.911ZM608.777 237.201H608.637C607.805 249.478 599.04 249.667 599.04 249.667C599.04 249.667 608.705 249.864 608.705 264.049C608.705 249.864 618.371 249.667 618.371 249.667C618.371 249.667 609.609 249.478 608.777 237.201Z" fill="#E1E4E5"/>
</g>
<defs>
<linearGradient id="paint0_linear_1235_22753" x1="674.76" y1="486.901" x2="553.858" y2="429.783" gradientUnits="userSpaceOnUse">
<stop stop-color="white"/>
<stop offset="1" stop-color="#EEEEEE"/>
</linearGradient>
<linearGradient id="paint1_linear_1235_22753" x1="595.409" y1="221.374" x2="760.758" y2="47.0166" gradientUnits="userSpaceOnUse">
<stop stop-color="white"/>
<stop offset="1" stop-color="#EEEEEE"/>
</linearGradient>
<linearGradient id="paint2_linear_1235_22753" x1="254.811" y1="213.894" x2="164.103" y2="71.7014" gradientUnits="userSpaceOnUse">
<stop stop-color="white"/>
<stop offset="1" stop-color="#EEEEEE"/>
</linearGradient>
<clipPath id="clip0_1235_22753">
<rect width="900" height="600" fill="white"/>
</clipPath>
</defs>
</svg>
