<svg width="900" height="600" viewBox="0 0 900 600" fill="none" xmlns="http://www.w3.org/2000/svg">
<g clip-path="url(#clip0_1235_18135)">
<path d="M596.686 201.362C580.583 148.804 441.404 80.9686 331.447 165.297C280.308 204.518 296.181 232.666 266.737 288.234C249.186 321.353 218.097 352.932 220.174 390.956C221.96 423.778 239.134 453.463 262.367 468.347C314.617 501.821 397.401 507.503 440.68 408.698C483.958 309.892 638.201 336.918 596.686 201.362Z" fill="url(#paint0_linear_1235_18135)"/>
<path d="M662.122 312.524C643.049 292.954 613.944 297.362 569.846 313.868C536.684 326.287 506.32 337.158 477.245 364.845C456.892 384.215 442.734 406.837 433.537 427.589C423.57 450.071 408.397 476.746 424.221 494.968C445.965 519.998 533.597 522.505 601.757 461.743C676.627 394.984 680.774 331.647 662.122 312.524Z" fill="url(#paint1_linear_1235_18135)"/>
<mask id="mask0_1235_18135" style="mask-type:alpha" maskUnits="userSpaceOnUse" x="257" y="126" width="390" height="350">
<path fill-rule="evenodd" clip-rule="evenodd" d="M589.651 177.647C665.63 245.743 665.63 356.148 589.651 424.244C513.672 492.341 390.487 492.341 314.508 424.244C238.529 356.148 238.529 245.743 314.508 177.647C390.487 109.55 513.672 109.55 589.651 177.647Z" fill="white"/>
</mask>
<g mask="url(#mask0_1235_18135)">
<path fill-rule="evenodd" clip-rule="evenodd" d="M589.651 177.647C665.63 245.743 665.63 356.148 589.651 424.244C513.672 492.341 390.487 492.341 314.508 424.244C238.529 356.148 238.529 245.743 314.508 177.647C390.487 109.55 513.672 109.55 589.651 177.647Z" fill="white"/>
<path d="M586.981 180.625C661.186 247.132 661.186 354.759 586.981 421.266L592.321 427.223C670.073 357.537 670.073 244.354 592.321 174.668L586.981 180.625ZM586.981 421.266C512.522 488 391.637 488 317.178 421.266L311.838 427.223C389.336 496.681 514.823 496.681 592.321 427.223L586.981 421.266ZM317.178 421.266C242.973 354.759 242.973 247.132 317.178 180.625L311.838 174.668C234.086 244.354 234.086 357.537 311.838 427.223L317.178 421.266ZM317.178 180.625C391.637 113.891 512.522 113.891 586.981 180.625L592.321 174.668C514.823 105.21 389.336 105.21 311.838 174.668L317.178 180.625Z" fill="#E1E4E5"/>
<path d="M260.645 301.506C260.645 293.379 263.716 285.244 269.818 277.642C301.93 237.639 373.363 211.555 452.64 211.555C531.917 211.555 603.35 237.639 635.461 277.642C641.564 285.244 644.635 293.379 644.635 301.506C644.635 309.633 641.564 317.768 635.461 325.37C603.35 365.374 531.917 391.457 452.64 391.457C373.363 391.457 301.93 365.374 269.818 325.37C263.716 317.768 260.645 309.633 260.645 301.506Z" fill="white" stroke="#E1E4E5" stroke-width="4"/>
</g>
<mask id="mask1_1235_18135" style="mask-type:alpha" maskUnits="userSpaceOnUse" x="360" y="209" width="185" height="185">
<path fill-rule="evenodd" clip-rule="evenodd" d="M517.884 236.573C553.805 272.485 553.805 330.783 517.884 366.756C481.964 402.667 423.651 402.667 387.669 366.756C351.749 330.844 351.749 272.546 387.669 236.573C423.651 200.601 481.933 200.601 517.884 236.573Z" fill="white"/>
</mask>
<g mask="url(#mask1_1235_18135)">
<path fill-rule="evenodd" clip-rule="evenodd" d="M517.884 236.573C553.805 272.485 553.805 330.783 517.884 366.756C481.964 402.667 423.651 402.667 387.669 366.756C351.749 330.844 351.749 272.546 387.669 236.573C423.651 200.601 481.933 200.601 517.884 236.573Z" fill="white"/>
<path d="M517.884 366.756L520.712 369.585L520.715 369.582L517.884 366.756ZM387.669 366.756L384.841 369.585L384.844 369.587L387.669 366.756ZM387.669 236.573L384.841 233.745L384.839 233.747L387.669 236.573ZM515.056 239.402C549.413 273.75 549.416 329.517 515.054 363.929L520.715 369.582C558.193 332.049 558.197 271.219 520.712 233.745L515.056 239.402ZM515.056 363.927C480.699 398.275 424.916 398.279 390.495 363.925L384.844 369.587C422.385 407.055 483.229 407.059 520.712 369.585L515.056 363.927ZM390.497 363.927C356.141 329.579 356.137 273.812 390.5 239.4L384.839 233.747C347.36 271.28 347.357 332.11 384.841 369.585L390.497 363.927ZM390.497 239.402C424.918 204.99 480.667 204.992 515.055 239.401L520.714 233.746C483.2 196.209 422.384 196.211 384.841 233.745L390.497 239.402Z" fill="#E1E4E5"/>
<path fill-rule="evenodd" clip-rule="evenodd" d="M505.565 302.235C505.565 316.078 500.067 329.355 490.278 339.144C482.978 346.442 473.677 351.413 463.553 353.426C453.428 355.439 442.934 354.405 433.396 350.455C423.859 346.504 415.707 339.815 409.972 331.232C404.237 322.649 401.175 312.558 401.174 302.235C401.174 288.391 406.673 275.115 416.462 265.327C426.25 255.538 439.526 250.039 453.37 250.039C467.213 250.039 480.489 255.538 490.277 265.327C500.066 275.115 505.565 288.391 505.565 302.235Z" fill="#4F27AA"/>
<path d="M442.539 301.078C452.226 301.078 460.078 293.226 460.078 283.539C460.078 273.852 452.226 266 442.539 266C432.852 266 425 273.852 425 283.539C425 293.226 432.852 301.078 442.539 301.078Z" fill="white"/>
</g>
</g>
<defs>
<linearGradient id="paint0_linear_1235_18135" x1="362.982" y1="-63.3684" x2="486.356" y2="856.004" gradientUnits="userSpaceOnUse">
<stop stop-color="white"/>
<stop offset="1" stop-color="#EEEEEE"/>
</linearGradient>
<linearGradient id="paint1_linear_1235_18135" x1="535.216" y1="186.579" x2="558.682" y2="734.159" gradientUnits="userSpaceOnUse">
<stop stop-color="white"/>
<stop offset="1" stop-color="#EEEEEE"/>
</linearGradient>
<clipPath id="clip0_1235_18135">
<rect width="900" height="600" fill="white"/>
</clipPath>
</defs>
</svg>
