<svg width="900" height="600" viewBox="0 0 900 600" fill="none" xmlns="http://www.w3.org/2000/svg">
<g clip-path="url(#clip0_1235_22774)">
<path fill-rule="evenodd" clip-rule="evenodd" d="M279.457 345.206V254.846C279.457 224.448 295.623 196.346 321.885 181.052L407.273 131.356C420.315 123.769 435.134 119.771 450.223 119.771C465.312 119.771 480.131 123.769 493.173 131.356L578.561 181.052C604.842 196.346 621.008 224.448 621.008 254.846V345.206C621.008 375.604 604.842 403.706 578.58 419L493.192 468.696C480.15 476.283 465.331 480.28 450.242 480.28C435.154 480.28 420.334 476.283 407.292 468.696L321.904 419C295.623 403.706 279.457 375.604 279.457 345.206Z" fill="#4F27AA"/>
<path fill-rule="evenodd" clip-rule="evenodd" d="M459.481 207.762C460.049 203.672 454.801 201.507 452.321 204.809L367.693 317.478C365.713 320.114 367.594 323.88 370.891 323.88H445.397C445.969 323.88 446.534 324.002 447.054 324.239C447.575 324.476 448.038 324.822 448.414 325.253C448.789 325.684 449.068 326.191 449.231 326.739C449.394 327.287 449.438 327.863 449.359 328.43L440.5 392.203C439.932 396.294 445.181 398.458 447.661 395.156L532.288 282.487C534.269 279.851 532.388 276.085 529.09 276.085H454.585C454.013 276.085 453.448 275.962 452.928 275.725C452.407 275.488 451.944 275.143 451.568 274.711C451.193 274.28 450.914 273.773 450.751 273.225C450.588 272.677 450.544 272.101 450.623 271.535L459.481 207.762Z" fill="white"/>
<path fill-rule="evenodd" clip-rule="evenodd" d="M665.486 434.276H670.791C671.405 434.277 671.994 434.521 672.428 434.955C672.862 435.39 673.106 435.978 673.107 436.592V441.897C673.106 442.511 672.862 443.1 672.428 443.534C671.994 443.968 671.405 444.212 670.791 444.212H665.486C664.873 444.21 664.285 443.966 663.851 443.532C663.418 443.098 663.173 442.511 663.171 441.897V436.592C663.16 435.32 664.204 434.276 665.486 434.276ZM683.878 434.276H689.184C689.797 434.279 690.385 434.524 690.818 434.958C691.252 435.392 691.497 435.979 691.499 436.592V441.897C691.498 442.511 691.254 443.1 690.82 443.534C690.386 443.968 689.798 444.212 689.184 444.212H683.878C683.265 444.21 682.677 443.965 682.244 443.532C681.81 443.098 681.565 442.511 681.563 441.897V436.592C681.565 435.979 681.81 435.392 682.244 434.958C682.677 434.524 683.265 434.279 683.878 434.276ZM702.284 434.276H707.589C708.202 434.279 708.79 434.524 709.224 434.957C709.658 435.391 709.903 435.979 709.905 436.592V441.897C709.904 442.511 709.66 443.1 709.226 443.534C708.792 443.968 708.203 444.212 707.589 444.212H702.284C701.671 444.21 701.083 443.966 700.649 443.532C700.216 443.098 699.971 442.511 699.969 441.897V436.592C699.958 435.32 701.001 434.276 702.284 434.276ZM720.677 434.276H725.982C726.595 434.279 727.183 434.524 727.617 434.957C728.051 435.391 728.296 435.979 728.298 436.592V441.897C728.297 442.511 728.053 443.1 727.619 443.534C727.185 443.968 726.596 444.212 725.982 444.212H720.677C720.062 444.212 719.472 443.969 719.036 443.535C718.6 443.101 718.354 442.512 718.351 441.897V436.592C718.357 435.978 718.605 435.391 719.04 434.958C719.475 434.525 720.063 434.28 720.677 434.276ZM739.071 434.276H744.376C744.991 434.276 745.581 434.52 746.018 434.954C746.454 435.388 746.7 435.977 746.703 436.592V441.897C746.702 442.202 746.642 442.504 746.524 442.785C746.407 443.067 746.235 443.322 746.019 443.537C745.803 443.752 745.547 443.922 745.265 444.038C744.983 444.154 744.681 444.213 744.376 444.212H739.071C738.458 444.21 737.87 443.966 737.436 443.532C737.003 443.098 736.758 442.511 736.756 441.897V436.592C736.758 435.979 737.003 435.391 737.436 434.957C737.87 434.524 738.458 434.279 739.071 434.276ZM684.553 454.333H689.858C690.471 454.336 691.059 454.581 691.493 455.014C691.927 455.448 692.172 456.036 692.174 456.649V461.965C692.171 462.579 691.926 463.166 691.493 463.6C691.059 464.033 690.471 464.278 689.858 464.28H684.553C683.939 464.28 683.351 464.036 682.917 463.602C682.483 463.168 682.238 462.579 682.238 461.965V456.659C682.236 456.354 682.295 456.052 682.41 455.77C682.526 455.487 682.696 455.231 682.911 455.014C683.126 454.798 683.382 454.627 683.664 454.51C683.946 454.393 684.248 454.333 684.553 454.333ZM702.946 454.333H708.251C708.864 454.336 709.452 454.581 709.886 455.014C710.319 455.448 710.564 456.036 710.566 456.649V461.965C710.564 462.579 710.319 463.166 709.885 463.6C709.452 464.033 708.864 464.278 708.251 464.28H702.946C702.333 464.278 701.745 464.033 701.311 463.6C700.878 463.166 700.633 462.579 700.63 461.965V456.659C700.628 456.354 700.687 456.052 700.803 455.77C700.918 455.487 701.089 455.231 701.304 455.014C701.519 454.798 701.775 454.627 702.057 454.51C702.339 454.393 702.641 454.333 702.946 454.333ZM721.34 454.333H726.645C727.26 454.334 727.85 454.577 728.286 455.011C728.722 455.445 728.968 456.034 728.971 456.649V461.965C728.968 462.58 728.722 463.169 728.286 463.603C727.85 464.037 727.26 464.28 726.645 464.28H721.34C720.727 464.278 720.139 464.033 719.705 463.6C719.271 463.166 719.027 462.579 719.024 461.965V456.659C719.024 456.044 719.268 455.454 719.702 455.019C720.136 454.583 720.725 454.336 721.34 454.333ZM702.284 412.73H707.589C708.202 412.733 708.79 412.977 709.224 413.411C709.658 413.844 709.903 414.432 709.905 415.045V420.35C709.904 420.965 709.66 421.553 709.226 421.988C708.792 422.422 708.203 422.666 707.589 422.666H702.284C701.671 422.664 701.083 422.419 700.649 421.985C700.216 421.552 699.971 420.964 699.969 420.35V415.045C699.958 413.773 701.001 412.73 702.284 412.73ZM720.677 412.73H725.982C726.595 412.733 727.183 412.977 727.617 413.411C728.051 413.844 728.296 414.432 728.298 415.045V420.35C728.297 420.965 728.053 421.553 727.619 421.988C727.185 422.422 726.596 422.666 725.982 422.666H720.677C720.062 422.666 719.472 422.422 719.036 421.988C718.6 421.554 718.354 420.966 718.351 420.35V415.045C718.358 414.432 718.605 413.845 719.04 413.412C719.475 412.979 720.063 412.734 720.677 412.73Z" fill="#E1E4E5"/>
<path d="M705.906 321.349C696.643 332.069 677.978 331.13 677.978 331.13C677.978 331.13 674.342 312.81 683.614 302.095C692.876 291.375 711.532 292.308 711.532 292.308C711.532 292.308 715.168 310.629 705.906 321.349Z" fill="url(#paint0_linear_1235_22774)"/>
<path d="M170.231 299.914C156.545 303.156 142.069 291.549 142.069 291.549C142.069 291.549 149.794 274.692 163.485 271.459C177.171 268.217 191.642 279.814 191.642 279.814C191.642 279.814 183.917 296.672 170.231 299.914Z" fill="url(#paint1_linear_1235_22774)"/>
<path d="M377.117 115.388C390.929 112.596 399.229 95.9625 399.229 95.9625C399.229 95.9625 385.129 83.8665 371.317 86.6695C357.505 89.4625 349.205 106.084 349.205 106.084C349.205 106.084 363.305 118.18 377.117 115.388Z" fill="url(#paint2_linear_1235_22774)"/>
<path d="M590.84 520.605C613.122 515.485 625.872 488.152 625.872 488.152C625.872 488.152 602.485 469.137 580.203 474.275C557.921 479.395 545.17 506.71 545.17 506.71C545.17 506.71 568.557 525.725 590.84 520.605Z" fill="url(#paint3_linear_1235_22774)"/>
<path d="M761 355C757.686 355 755 357.686 755 361C755 364.314 757.686 367 761 367C764.314 367 767 364.314 767 361C767 357.686 764.314 355 761 355Z" fill="#4F27AA"/>
<path d="M228.559 234.188C224.018 234.188 220.336 230.507 220.336 225.965C220.336 221.424 224.018 217.742 228.559 217.742C233.101 217.742 236.782 221.424 236.782 225.965C236.782 230.507 233.101 234.188 228.559 234.188Z" fill="#4F27AA"/>
<path d="M682.111 166.382C674.48 166.382 668.295 159.938 668.295 151.99C668.295 144.041 674.48 137.598 682.111 137.598C689.741 137.598 695.927 144.041 695.927 151.99C695.927 159.938 689.741 166.382 682.111 166.382Z" fill="#4F27AA"/>
<path d="M224.343 455.206C218.302 455.206 213.405 450.309 213.405 444.268C213.405 438.227 218.302 433.33 224.343 433.33C230.384 433.33 235.281 438.227 235.281 444.268C235.281 450.309 230.384 455.206 224.343 455.206Z" fill="#4F27AA"/>
<path d="M335.323 500.622C327.965 500.622 322 494.886 322 487.811C322 480.736 327.965 475 335.323 475C342.681 475 348.646 480.736 348.646 487.811C348.646 494.886 342.681 500.622 335.323 500.622Z" fill="#E1E4E5"/>
<path d="M220.015 330.409C215.176 330.409 211.254 326.486 211.254 321.648C211.254 316.809 215.176 312.887 220.015 312.887C224.853 312.887 228.776 316.809 228.776 321.648C228.776 326.486 224.853 330.409 220.015 330.409Z" fill="#E1E4E5"/>
<path d="M441.487 522.2C441.487 517.954 445.158 514.513 449.686 514.513C454.214 514.513 457.885 517.954 457.885 522.2C457.885 526.445 454.214 529.887 449.686 529.887C445.158 529.887 441.487 526.445 441.487 522.2Z" fill="#E1E4E5"/>
<path d="M514.475 108.95C510.347 108.95 507 105.603 507 101.475C507 97.3467 510.347 94 514.475 94C518.604 94 521.95 97.3467 521.95 101.475C521.95 105.603 518.604 108.95 514.475 108.95Z" fill="#E1E4E5"/>
<path d="M200.372 374.786C201.416 378.683 199.104 382.689 195.207 383.733C191.31 384.777 187.304 382.465 186.26 378.568C185.216 374.671 187.528 370.665 191.425 369.621C195.322 368.577 199.328 370.889 200.372 374.786Z" fill="#E1E4E5"/>
<path d="M278.718 147.436C273.351 147.436 269 143.085 269 137.718C269 132.351 273.351 128 278.718 128C284.085 128 288.436 132.351 288.436 137.718C288.436 143.085 284.085 147.436 278.718 147.436Z" fill="#E1E4E5"/>
<path d="M728.104 234.771C723.976 234.771 720.629 232.093 720.629 228.791C720.629 225.488 723.976 222.811 728.104 222.811C732.232 222.811 735.579 225.488 735.579 228.791C735.579 232.093 732.232 234.771 728.104 234.771Z" fill="#E1E4E5"/>
<path d="M619.304 134.684C621.477 142.794 616.664 151.13 608.554 153.303C600.444 155.476 592.109 150.663 589.936 142.553C587.763 134.443 592.575 126.108 600.685 123.935C608.795 121.762 617.131 126.574 619.304 134.684Z" fill="#E1E4E5"/>
<path d="M673.355 216H673.55C674.708 232.407 686.91 232.66 686.91 232.66C686.91 232.66 673.455 232.922 673.455 251.88C673.455 232.922 660 232.66 660 232.66C660 232.66 672.197 232.407 673.355 216ZM188 139H188.337C190.331 167.712 211.345 168.154 211.345 168.154C211.345 168.154 188.173 168.614 188.173 201.79C188.173 168.614 165 168.154 165 168.154C165 168.154 186.006 167.712 188 139Z" fill="#E1E4E5"/>
</g>
<defs>
<linearGradient id="paint0_linear_1235_22774" x1="668.58" y1="358.331" x2="733.017" y2="241.447" gradientUnits="userSpaceOnUse">
<stop stop-color="white"/>
<stop offset="1" stop-color="#EEEEEE"/>
</linearGradient>
<linearGradient id="paint1_linear_1235_22774" x1="118.692" y1="307.976" x2="238.502" y2="251.373" gradientUnits="userSpaceOnUse">
<stop stop-color="white"/>
<stop offset="1" stop-color="#EEEEEE"/>
</linearGradient>
<linearGradient id="paint2_linear_1235_22774" x1="427.388" y1="101.1" x2="294.641" y2="99.8685" gradientUnits="userSpaceOnUse">
<stop stop-color="white"/>
<stop offset="1" stop-color="#EEEEEE"/>
</linearGradient>
<linearGradient id="paint3_linear_1235_22774" x1="671.765" y1="495.278" x2="456.404" y2="498.964" gradientUnits="userSpaceOnUse">
<stop stop-color="white"/>
<stop offset="1" stop-color="#EEEEEE"/>
</linearGradient>
<clipPath id="clip0_1235_22774">
<rect width="900" height="600" fill="white"/>
</clipPath>
</defs>
</svg>
