<svg width="900" height="600" viewBox="0 0 900 600" fill="none" xmlns="http://www.w3.org/2000/svg">
<g clip-path="url(#clip0_1235_22796)">
<path d="M746.811 477.33H153.189C135.074 477.33 121 465.048 121 450.599V138.021C121 123.572 135.074 111.289 153.189 111.289H746.811C764.926 111.289 779 123.572 779 138.021V450.599C779 465.048 764.926 477.33 746.811 477.33Z" fill="white" stroke="#E1E4E5" stroke-width="4"/>
<path fill-rule="evenodd" clip-rule="evenodd" d="M176.017 217.899V334.333C176.017 340.653 181.077 345.771 187.326 345.771H255.866L285.785 303.126C287.211 301.091 290.778 301.091 292.204 303.126L302.679 318.059L302.76 318.175L302.831 318.073L325.296 285.455C326.849 283.197 330.742 283.197 332.295 285.455L362.046 328.657V217.899C362.046 211.579 356.972 206.461 350.736 206.461H187.326C181.077 206.461 176.017 211.579 176.017 217.899Z" fill="#4F27AA"/>
<path d="M228.479 285.763C217.566 285.763 208.72 276.916 208.72 266.003C208.72 255.091 217.566 246.244 228.479 246.244C239.392 246.244 248.239 255.091 248.239 266.003C248.239 276.916 239.392 285.763 228.479 285.763Z" fill="white"/>
<path d="M779 153.518H121V143.087C121 125.312 135.414 110.898 153.189 110.898H746.811C764.586 110.898 779 125.312 779 143.087V153.518Z" fill="white" stroke="#E1E4E5" stroke-width="4"/>
<path d="M153.251 141.05C155.198 141.05 157.066 140.277 158.443 138.9C159.819 137.523 160.593 135.655 160.593 133.708C160.593 131.761 159.819 129.894 158.443 128.517C157.066 127.14 155.198 126.366 153.251 126.366C151.304 126.366 149.436 127.14 148.059 128.517C146.682 129.894 145.909 131.761 145.909 133.708C145.909 135.655 146.682 137.523 148.059 138.9C149.436 140.277 151.304 141.05 153.251 141.05ZM183.844 141.05C184.808 141.05 185.763 140.86 186.654 140.491C187.545 140.122 188.354 139.581 189.036 138.899C189.717 138.217 190.258 137.408 190.627 136.517C190.996 135.626 191.186 134.671 191.186 133.707C191.186 132.743 190.996 131.788 190.627 130.897C190.258 130.007 189.717 129.197 189.035 128.515C188.353 127.834 187.544 127.293 186.653 126.924C185.762 126.555 184.807 126.365 183.843 126.365C181.896 126.365 180.028 127.139 178.651 128.516C177.274 129.893 176.501 131.761 176.501 133.708C176.501 135.656 177.275 137.523 178.652 138.9C180.029 140.277 181.897 141.05 183.844 141.05ZM213.213 141.05C215.16 141.05 217.028 140.277 218.405 138.9C219.781 137.523 220.555 135.655 220.555 133.708C220.555 131.761 219.781 129.894 218.405 128.517C217.028 127.14 215.16 126.366 213.213 126.366C211.266 126.366 209.398 127.14 208.021 128.517C206.644 129.894 205.871 131.761 205.871 133.708C205.871 135.655 206.644 137.523 208.021 138.9C209.398 140.277 211.266 141.05 213.213 141.05Z" fill="#E1E4E5"/>
<path d="M712.608 206.461H403.451C396.803 206.461 391.414 211.85 391.414 218.498C391.414 225.146 396.803 230.535 403.451 230.535H712.608C719.256 230.535 724.645 225.146 724.645 218.498C724.645 211.85 719.256 206.461 712.608 206.461Z" fill="#E1E4E5"/>
<path d="M712.608 262.211H403.451C396.803 262.211 391.414 267.6 391.414 274.248C391.414 280.896 396.803 286.285 403.451 286.285H712.608C719.256 286.285 724.645 280.896 724.645 274.248C724.645 267.6 719.256 262.211 712.608 262.211Z" fill="#E1E4E5"/>
<path d="M694.431 317.684H402.472C395.91 317.684 390.59 323.003 390.59 329.566C390.59 336.128 395.91 341.448 402.472 341.448H694.431C700.993 341.448 706.313 336.128 706.313 329.566C706.313 323.003 700.993 317.684 694.431 317.684Z" fill="#E1E4E5"/>
<path d="M712.608 373.711H403.451C396.803 373.711 391.414 379.1 391.414 385.748C391.414 392.396 396.803 397.785 403.451 397.785H712.608C719.256 397.785 724.645 392.396 724.645 385.748C724.645 379.1 719.256 373.711 712.608 373.711Z" fill="#E1E4E5"/>
</g>
<defs>
<clipPath id="clip0_1235_22796">
<rect width="900" height="600" fill="white"/>
</clipPath>
</defs>
</svg>
