<svg width="900" height="600" viewBox="0 0 900 600" fill="none" xmlns="http://www.w3.org/2000/svg">
<g clip-path="url(#clip0_1235_22807)">
<path fill-rule="evenodd" clip-rule="evenodd" d="M422.252 160.346V192.136H422.262C417.656 191.207 412.886 191.517 408.439 193.035C404.372 194.425 400.717 196.811 397.808 199.976C394.899 203.14 392.827 206.982 391.783 211.151C390.798 215.004 390.706 219.031 391.515 222.924C392.323 226.818 394.011 230.475 396.448 233.618C398.885 236.76 402.008 239.303 405.579 241.055C409.149 242.806 413.072 243.718 417.049 243.722C418.8 243.719 420.546 243.544 422.262 243.199V274.989C422.262 280.517 420.066 285.818 416.158 289.727C412.249 293.635 406.947 295.831 401.419 295.831H369.627V295.84C370.557 291.235 370.247 286.465 368.729 282.018C367.338 277.951 364.952 274.297 361.787 271.388C358.623 268.479 354.781 266.408 350.611 265.363C346.758 264.378 342.732 264.287 338.838 265.095C334.945 265.904 331.287 267.591 328.145 270.028C325.003 272.465 322.459 275.588 320.708 279.158C318.956 282.729 318.043 286.652 318.039 290.628C318.042 292.378 318.217 294.124 318.562 295.84L286.78 295.831C275.272 295.833 265.94 286.506 265.937 274.999V243.208C264.221 243.553 262.475 243.729 260.724 243.732C256.748 243.727 252.825 242.815 249.255 241.063C245.685 239.312 242.562 236.768 240.125 233.626C237.688 230.484 236 226.827 235.191 222.934C234.383 219.04 234.474 215.014 235.458 211.161C236.502 206.992 238.574 203.15 241.483 199.986C244.392 196.821 248.047 194.435 252.114 193.045C256.561 191.527 261.331 191.217 265.937 192.146H265.927V160.356C265.927 154.828 268.123 149.527 272.032 145.619C275.941 141.71 281.242 139.514 286.77 139.514H318.562C318.217 137.798 318.042 136.052 318.039 134.301C318.044 130.325 318.956 126.402 320.708 122.832C322.459 119.262 325.003 116.139 328.145 113.702C331.288 111.265 334.945 109.578 338.838 108.769C342.732 107.961 346.758 108.052 350.611 109.037C354.779 110.084 358.62 112.157 361.784 115.065C364.948 117.974 367.335 121.627 368.729 125.692C370.247 130.139 370.557 134.909 369.627 139.514H401.419C406.947 139.514 412.248 141.71 416.157 145.619C420.066 149.527 422.262 154.828 422.262 160.356M422.252 355.638V387.428H422.262C417.656 386.499 412.886 386.809 408.439 388.327C404.372 389.718 400.717 392.104 397.808 395.268C394.898 398.432 392.827 402.274 391.783 406.444C390.688 410.727 390.699 415.217 391.814 419.494C392.929 423.771 395.112 427.695 398.158 430.898C401.204 434.101 405.014 436.478 409.23 437.806C413.446 439.134 417.93 439.37 422.262 438.491V470.281C422.262 475.809 420.066 481.11 416.157 485.019C412.248 488.927 406.947 491.123 401.419 491.123H369.627V491.133C370.557 486.527 370.247 481.757 368.729 477.311C367.338 473.244 364.952 469.589 361.787 466.68C358.623 463.771 354.781 461.7 350.611 460.655C346.758 459.67 342.731 459.578 338.838 460.386C334.944 461.195 331.286 462.882 328.144 465.319C325.002 467.757 322.458 470.88 320.707 474.45C318.956 478.02 318.043 481.943 318.039 485.92C318.042 487.67 318.217 489.416 318.562 491.133L286.78 491.123C275.272 491.125 265.94 481.799 265.937 470.291V438.501C264.221 438.846 262.475 439.021 260.724 439.024C256.748 439.019 252.825 438.107 249.255 436.355C245.685 434.604 242.562 432.06 240.125 428.918C237.688 425.776 236 422.119 235.191 418.226C234.383 414.332 234.474 410.306 235.458 406.453C236.503 402.284 238.574 398.442 241.483 395.278C244.392 392.113 248.047 389.727 252.114 388.337C256.561 386.819 261.331 386.509 265.937 387.438H265.927V355.648C265.927 350.12 268.123 344.819 272.032 340.911C275.941 337.002 281.242 334.806 286.77 334.806H318.562C318.217 333.09 318.042 331.344 318.039 329.593C318.043 325.616 318.955 321.693 320.706 318.123C322.458 314.552 325.002 311.429 328.144 308.992C331.286 306.555 334.944 304.868 338.838 304.059C342.731 303.251 346.758 303.344 350.611 304.329C354.779 305.376 358.62 307.449 361.784 310.357C364.948 313.266 367.335 316.919 368.729 320.984C370.247 325.431 370.557 330.201 369.627 334.806H401.419C406.947 334.806 412.248 337.002 416.157 340.911C420.066 344.819 422.262 350.12 422.262 355.648M630.336 160.345V192.136H630.346C625.74 191.206 620.97 191.516 616.524 193.034C612.457 194.424 608.802 196.811 605.892 199.975C602.983 203.139 600.912 206.981 599.867 211.151C598.882 215.004 598.791 219.031 599.599 222.924C600.408 226.818 602.095 230.475 604.532 233.617C606.97 236.759 610.093 239.303 613.663 241.054C617.233 242.806 621.156 243.718 625.133 243.722C626.884 243.719 628.63 243.543 630.346 243.198V274.989C630.346 277.726 629.807 280.436 628.76 282.965C627.713 285.494 626.177 287.792 624.242 289.727C622.307 291.662 620.009 293.197 617.48 294.244C614.951 295.292 612.241 295.83 609.504 295.83H577.711V295.84C578.641 291.235 578.331 286.465 576.813 282.018C575.422 277.951 573.036 274.296 569.872 271.387C566.707 268.478 562.865 266.407 558.695 265.363C554.842 264.378 550.816 264.286 546.922 265.094C543.028 265.903 539.371 267.59 536.229 270.027C533.086 272.464 530.543 275.587 528.791 279.157C527.04 282.727 526.127 286.65 526.123 290.627C526.126 292.378 526.301 294.124 526.646 295.84L494.864 295.83C483.356 295.832 474.025 286.506 474.022 274.999V243.208C472.305 243.553 470.559 243.728 468.808 243.731C464.831 243.727 460.908 242.815 457.338 241.064C453.768 239.313 450.645 236.769 448.207 233.627C445.77 230.485 444.083 226.828 443.274 222.934C442.466 219.041 442.557 215.014 443.542 211.161C444.587 206.992 446.658 203.15 449.568 199.985C452.477 196.821 456.132 194.435 460.199 193.044C464.646 191.526 469.416 191.216 474.022 192.146H474.012V160.355C474.011 157.618 474.55 154.908 475.597 152.379C476.645 149.85 478.18 147.552 480.115 145.617C482.051 143.681 484.349 142.146 486.878 141.099C489.406 140.052 492.117 139.513 494.854 139.514H526.646C526.301 137.798 526.126 136.052 526.123 134.301C526.127 130.324 527.04 126.401 528.791 122.831C530.543 119.261 533.086 116.138 536.229 113.701C539.371 111.263 543.028 109.576 546.922 108.768C550.815 107.959 554.842 108.051 558.695 109.036C562.863 110.083 566.704 112.156 569.868 115.064C573.032 117.973 575.419 121.626 576.813 125.692C578.331 130.139 578.641 134.909 577.711 139.514H609.504C612.241 139.513 614.952 140.052 617.48 141.099C620.009 142.146 622.307 143.681 624.243 145.617C626.178 147.552 627.713 149.85 628.761 152.379C629.808 154.908 630.347 157.618 630.346 160.355M630.336 355.638V387.428H630.346C625.74 386.499 620.971 386.809 616.524 388.327C612.456 389.717 608.801 392.103 605.892 395.268C602.983 398.432 600.911 402.274 599.867 406.444C598.772 410.727 598.783 415.217 599.898 419.494C601.013 423.771 603.196 427.695 606.242 430.898C609.288 434.101 613.098 436.478 617.314 437.806C621.53 439.134 626.014 439.37 630.346 438.491V470.281C630.346 473.018 629.807 475.728 628.76 478.257C627.712 480.786 626.177 483.083 624.242 485.019C622.306 486.954 620.009 488.49 617.48 489.537C614.951 490.584 612.241 491.123 609.504 491.123H577.711V491.133C578.641 486.527 578.331 481.757 576.813 477.311C575.423 473.244 573.036 469.589 569.872 466.679C566.707 463.77 562.865 461.699 558.695 460.655C554.842 459.671 550.816 459.579 546.922 460.388C543.029 461.196 539.371 462.884 536.229 465.321C533.087 467.758 530.543 470.881 528.792 474.451C527.04 478.021 526.128 481.944 526.123 485.92C526.126 487.67 526.301 489.416 526.646 491.133L494.864 491.123C483.356 491.125 474.025 481.799 474.022 470.291V438.501C472.305 438.846 470.559 439.021 468.808 439.024C464.832 439.02 460.909 438.107 457.339 436.355C453.769 434.604 450.646 432.06 448.208 428.918C445.771 425.776 444.084 422.119 443.275 418.226C442.466 414.332 442.558 410.306 443.542 406.453C444.587 402.284 446.658 398.442 449.568 395.278C452.477 392.114 456.132 389.728 460.199 388.337C464.646 386.819 469.416 386.509 474.022 387.438H474.012V355.648C474.011 352.911 474.55 350.2 475.597 347.671C476.644 345.142 478.18 342.845 480.115 340.909C482.051 338.974 484.348 337.438 486.877 336.391C489.406 335.344 492.117 334.805 494.854 334.806H526.646C526.301 333.09 526.126 331.344 526.123 329.593C526.127 325.616 527.039 321.693 528.791 318.123C530.542 314.553 533.086 311.43 536.228 308.992C539.37 306.555 543.028 304.868 546.922 304.06C550.815 303.252 554.842 303.344 558.695 304.329C562.863 305.376 566.704 307.448 569.868 310.357C573.032 313.265 575.419 316.919 576.813 320.984C578.331 325.431 578.641 330.201 577.711 334.806H609.504C612.241 334.806 614.951 335.345 617.48 336.392C620.009 337.44 622.306 338.975 624.242 340.91C626.177 342.846 627.712 345.143 628.76 347.672C629.807 350.201 630.346 352.911 630.346 355.648" fill="#4F27AA"/>
<path d="M668.284 193.602C676.365 184.249 692.649 185.069 692.649 185.069C692.649 185.069 695.821 201.052 687.732 210.4C679.651 219.752 663.375 218.938 663.375 218.938C663.375 218.938 660.203 202.955 668.284 193.602Z" fill="url(#paint0_linear_1235_22807)"/>
<path d="M188 249C191.866 249 195 245.866 195 242C195 238.134 191.866 235 188 235C184.134 235 181 238.134 181 242C181 245.866 184.134 249 188 249Z" fill="#4F27AA"/>
<path d="M690.178 292.999C695.799 292.999 700.356 297.556 700.356 303.177C700.356 308.799 695.799 313.355 690.178 313.355C684.557 313.355 680 308.799 680 303.177C680 297.556 684.557 292.999 690.178 292.999Z" fill="#4F27AA"/>
<path d="M340.544 509.338C345.654 509.338 349.797 513.48 349.797 518.591C349.797 523.701 345.654 527.844 340.544 527.844C335.434 527.844 331.291 523.701 331.291 518.591C331.291 513.48 335.434 509.338 340.544 509.338Z" fill="#E1E4E5"/>
<path d="M435 93.6374C435 85.553 441.554 78.9994 449.638 78.9994C457.722 78.9994 464.276 85.553 464.276 93.6374C464.276 101.722 457.722 108.275 449.638 108.275C441.554 108.275 435 101.722 435 93.6374Z" fill="#E1E4E5"/>
<path d="M498.332 544.617H498.156C497.115 529.486 486.151 529.253 486.151 529.253C486.151 529.253 498.241 529.011 498.241 511.528C498.241 529.011 510.332 529.253 510.332 529.253C510.332 529.253 499.372 529.486 498.332 544.617ZM146.734 324.435C144.835 323.498 143.64 321.438 143.801 319.384C143.968 317.164 145.484 315.245 147.632 314.624C148.222 314.454 148.848 314.392 149.464 314.325C153.153 313.907 156.848 313.556 160.475 312.693C162.079 312.305 163.657 312.565 165.08 313.47C166.963 314.671 167.801 316.436 167.568 318.609C167.329 320.793 166.05 322.288 163.991 323.069C163.603 323.214 163.2 323.316 162.79 323.374C158.557 323.998 154.33 324.691 150.056 325.01C148.886 325.098 147.779 324.958 146.734 324.435ZM163.795 339.518C163.002 341.152 161.652 342.249 159.965 342.673C155.815 343.701 151.623 344.657 147.333 344.827C143.416 344.976 140.804 341.301 142.089 337.649C142.824 335.558 144.439 334.374 146.597 334.147C149.38 333.858 152.082 333.243 154.829 332.793C155.704 332.649 156.516 332.344 157.35 332.075C159.461 331.398 161.68 332.056 163.098 333.722C164.474 335.342 164.742 337.598 163.795 339.518ZM175.916 328.583C176.615 327.16 177.744 326.25 179.249 325.8C181.521 325.112 183.824 324.57 186.147 324.115C187.208 323.908 188.222 323.614 189.206 323.122C189.91 322.769 190.678 322.565 191.465 322.522C192.251 322.479 193.037 322.599 193.775 322.873C194.513 323.148 195.186 323.571 195.753 324.118C196.32 324.664 196.768 325.321 197.07 326.048C198.301 329.019 196.825 332.278 193.704 333.447C193.275 333.607 192.825 333.757 192.369 333.839C188.923 334.444 185.508 335.219 182.103 336.025C179.991 336.521 178.113 336.034 176.644 334.368C175.211 332.732 174.948 330.543 175.916 328.583ZM181.883 343.005C184.155 344.206 185.049 346.038 185.08 348.305C185.11 350.545 184.09 352.273 182.118 353.37C181.399 353.773 180.612 354.052 179.816 354.248C177.006 354.926 174.211 355.623 171.401 356.3C169.611 356.724 167.898 356.527 166.419 355.347C164.794 354.042 164.096 352.309 164.475 350.26C164.869 348.102 166.204 346.649 168.31 346.008C169.94 345.516 171.591 345.113 173.257 344.731C174.515 344.442 175.689 344.085 176.792 343.304C178.427 342.13 180.259 342.218 181.883 343.005ZM215.292 348.893C214.733 350.036 213.895 350.936 212.73 351.479C212.073 351.784 211.405 352.058 210.712 352.229C208.363 352.813 206.034 353.459 203.705 354.105C200.176 355.082 196.948 352.82 196.758 349.322C196.639 347.128 197.871 345.157 200.024 344.164C201.623 343.425 203.326 342.996 205.028 342.593C205.939 342.376 206.782 342.086 207.595 341.6C209.794 340.281 212.273 340.603 214.14 342.352C215.909 344.014 216.38 346.668 215.292 348.893ZM115.885 320.488C116.507 319.35 117.34 318.538 118.447 318.031C119.203 317.685 119.99 317.431 120.817 317.354C123.017 317.147 125.226 316.869 127.436 316.771C131.441 316.601 134.167 320.152 132.903 323.893C132.245 325.853 130.775 327.007 128.762 327.41C128.116 327.539 127.433 327.534 126.77 327.616C124.985 327.823 123.184 327.905 121.399 328.189C119.288 328.53 117.534 327.743 116.303 325.989C115.056 324.239 115.031 322.351 115.885 320.488ZM178.201 298.934C180.302 300.011 181.409 301.936 181.248 304.068C181.071 306.36 179.865 307.891 177.754 308.724C177.283 308.915 176.76 309.055 176.258 309.075C174.304 309.176 172.347 309.232 170.39 309.244C169.288 309.249 168.264 308.892 167.348 308.24C165.537 306.92 164.726 304.767 165.254 302.651C165.798 300.503 167.49 298.853 169.664 298.647C171.811 298.441 173.984 298.441 176.142 298.395C176.865 298.382 177.577 298.568 178.201 298.934ZM706.733 427.41C704.834 426.473 703.64 424.413 703.801 422.359C703.967 420.139 705.484 418.22 707.631 417.6C708.221 417.429 708.847 417.367 709.463 417.3C713.152 416.882 716.847 416.531 720.474 415.668C722.079 415.281 723.657 415.54 725.079 416.446C726.963 417.647 727.8 419.412 727.567 421.585C727.328 423.768 726.05 425.263 723.99 426.044C723.602 426.189 723.2 426.292 722.79 426.349C718.557 426.974 714.329 427.666 710.055 427.985C708.885 428.073 707.778 427.933 706.733 427.41ZM723.794 442.493C723.002 444.128 721.651 445.224 719.964 445.648C715.814 446.677 711.622 447.633 707.333 447.802C703.416 447.951 700.804 444.277 702.088 440.624C702.823 438.534 704.438 437.349 706.596 437.122C709.38 436.833 712.081 436.218 714.829 435.769C715.703 435.624 716.516 435.319 717.349 435.05C719.46 434.373 721.68 435.031 723.097 436.697C724.473 438.317 724.741 440.573 723.794 442.493ZM735.916 431.558C736.615 430.135 737.743 429.225 739.249 428.775C741.52 428.088 743.823 427.545 746.147 427.09C747.207 426.884 748.222 426.589 749.205 426.098C749.909 425.745 750.677 425.54 751.463 425.497C752.25 425.454 753.036 425.574 753.774 425.848C754.512 426.123 755.185 426.546 755.752 427.093C756.319 427.639 756.767 428.296 757.069 429.023C758.3 431.994 756.824 435.253 753.704 436.422C753.274 436.582 752.824 436.732 752.369 436.815C748.922 437.419 745.507 438.194 742.102 439.001C739.991 439.497 738.113 439.01 736.644 437.343C735.211 435.708 734.947 433.519 735.916 431.558ZM741.883 445.981C744.154 447.182 745.048 449.014 745.079 451.28C745.109 453.521 744.089 455.248 742.118 456.345C741.398 456.748 740.612 457.027 739.815 457.224C737.005 457.901 734.211 458.599 731.401 459.276C729.61 459.699 727.898 459.502 726.418 458.322C724.794 457.018 724.096 455.284 724.474 453.235C724.868 451.078 726.203 449.624 728.309 448.983C729.939 448.492 731.59 448.089 733.256 447.706C734.514 447.417 735.689 447.06 736.791 446.279C738.426 445.105 740.258 445.194 741.883 445.981ZM775.292 451.868C774.732 453.012 773.894 453.912 772.73 454.455C772.072 454.76 771.405 455.034 770.711 455.204C768.362 455.788 766.033 456.434 763.705 457.081C760.175 458.058 756.947 455.795 756.757 452.297C756.638 450.103 757.871 448.132 760.023 447.14C761.622 446.4 763.325 445.971 765.027 445.568C765.938 445.351 766.782 445.061 767.594 444.575C769.794 443.256 772.272 443.578 774.14 445.327C775.909 446.989 776.379 449.643 775.292 451.868ZM675.885 423.463C676.506 422.325 677.339 421.513 678.447 421.006C679.202 420.66 679.989 420.407 680.817 420.329C683.016 420.123 685.225 419.844 687.435 419.746C691.44 419.577 694.166 423.127 692.902 426.868C692.244 428.829 690.775 429.982 688.762 430.385C688.115 430.514 687.432 430.509 686.769 430.592C684.984 430.798 683.184 430.88 681.398 431.164C679.287 431.505 677.533 430.718 676.302 428.964C675.056 427.215 675.03 425.326 675.885 423.463ZM738.201 401.909C740.301 402.986 741.408 404.911 741.247 407.043C741.07 409.335 739.864 410.867 737.753 411.699C737.282 411.89 736.759 412.03 736.257 412.051C734.296 412.143 732.345 412.215 730.39 412.22C729.287 412.224 728.263 411.867 727.347 411.215C725.537 409.895 724.725 407.742 725.253 405.626C725.797 403.479 727.49 401.829 729.663 401.622C731.81 401.416 733.984 401.417 736.141 401.371C736.864 401.358 737.577 401.544 738.201 401.909Z" fill="#E1E4E5"/>
</g>
<defs>
<linearGradient id="paint0_linear_1235_22807" x1="700.849" y1="161.337" x2="644.63" y2="263.312" gradientUnits="userSpaceOnUse">
<stop stop-color="white"/>
<stop offset="1" stop-color="#EEEEEE"/>
</linearGradient>
<clipPath id="clip0_1235_22807">
<rect width="900" height="600" fill="white"/>
</clipPath>
</defs>
</svg>
