<svg width="900" height="600" viewBox="0 0 900 600" fill="none" xmlns="http://www.w3.org/2000/svg">
<g clip-path="url(#clip0_1235_22816)">
<path d="M354.387 452.581C368.416 446.205 386.27 446.205 400.298 452.581C414.327 458.958 432.181 458.958 446.209 452.581C460.238 446.205 478.092 446.205 492.121 452.581C506.149 458.958 524.003 458.958 538.032 452.581C552.06 446.205 569.914 446.205 583.943 452.581M173.359 452.607C181.52 448.099 191.906 448.099 200.066 452.607C208.227 457.114 218.613 457.114 226.773 452.607C234.933 448.099 245.32 448.099 253.48 452.607C261.64 457.114 272.026 457.114 280.187 452.607C288.347 448.099 298.733 448.099 306.894 452.607M631.434 452.607C639.594 448.099 649.98 448.099 658.141 452.607C666.301 457.114 676.687 457.114 684.848 452.607C693.008 448.099 703.394 448.099 711.555 452.607C719.715 457.114 730.101 457.114 738.262 452.607C746.422 448.099 756.808 448.099 764.969 452.607M579.034 494.019C587.195 489.512 597.581 489.512 605.741 494.019C613.902 498.527 624.288 498.527 632.448 494.019C640.609 489.512 650.995 489.512 659.155 494.019C667.315 498.527 677.702 498.527 685.862 494.019C694.022 489.512 704.408 489.512 712.569 494.019M225.759 494.019C233.919 489.512 244.305 489.512 252.466 494.019C260.626 498.527 271.012 498.527 279.173 494.019C287.333 489.512 297.719 489.512 305.88 494.019C314.04 498.527 324.426 498.527 332.587 494.019C340.747 489.512 351.133 489.512 359.294 494.019M400.299 490.84C414.327 497.217 432.182 497.217 446.21 490.84C460.239 484.464 478.093 484.464 492.121 490.84C506.15 497.217 524.004 497.217 538.032 490.84" stroke="#E1E4E5" stroke-width="6" stroke-linecap="round" stroke-linejoin="round"/>
<path fill-rule="evenodd" clip-rule="evenodd" d="M456.411 406.351V252.727C456.411 240.714 440.826 235.995 434.156 245.993L365.353 349.204C359.972 357.277 365.749 368.091 375.454 368.091H456.411" fill="#4F27AA"/>
<path d="M456.411 406.351V252.727C456.411 240.714 440.826 235.995 434.156 245.993L365.353 349.204C359.972 357.277 365.749 368.091 375.454 368.091H456.411" stroke="#4F27AA" stroke-width="6" stroke-linecap="round" stroke-linejoin="round"/>
<path fill-rule="evenodd" clip-rule="evenodd" d="M433.064 368.091V252.727C433.064 240.714 448.648 235.995 455.318 245.993L524.121 349.204C529.502 357.277 523.725 368.091 514.02 368.091H433.064Z" fill="#4F27AA" stroke="#4F27AA" stroke-width="6" stroke-linecap="round" stroke-linejoin="round"/>
<path d="M569.914 448.437L583.942 406.352H363.951L384.917 448.297" stroke="#E1E4E5" stroke-width="6" stroke-linecap="round" stroke-linejoin="round"/>
<path fill-rule="evenodd" clip-rule="evenodd" d="M407.581 131.199C407.581 154.068 426.12 172.609 448.99 172.609C471.86 172.609 490.4 154.068 490.4 131.199C490.4 108.329 471.86 89.7891 448.99 89.7891C426.12 89.7891 407.581 108.329 407.581 131.199Z" fill="#E1E4E5"/>
<path fill-rule="evenodd" clip-rule="evenodd" d="M145.681 215.807C131.278 215.807 138.017 192.968 156.264 198.423C157.275 166.711 208.965 143.507 230.339 186.28C236.382 181.498 249.952 190.53 246.947 198.423C253.66 198.995 258.941 199.772 263.05 200.8C272.537 203.175 270.659 215.7 260.88 215.612L145.681 215.807ZM417.043 215.808C430.663 215.808 424.29 194.211 407.035 199.369C406.08 169.381 357.201 147.44 336.989 187.887C331.274 183.365 318.442 191.906 321.284 199.369C314.936 199.91 309.942 200.644 306.057 201.617C297.086 203.862 298.862 215.706 308.109 215.624L417.043 215.808ZM530.68 124.254C520.496 124.254 525.261 108.105 538.163 111.963C538.877 89.5386 575.426 73.1326 590.539 103.377C594.812 99.9946 604.407 106.382 602.283 111.963C607.029 112.367 610.763 112.916 613.668 113.643C620.376 115.322 619.048 124.179 612.134 124.117L530.68 124.254ZM311.287 178.312H250.272C244.816 178.312 242.466 171.233 246.93 168.094L247.119 167.96C253.475 163.583 261.817 163.98 261.817 163.98C261.817 163.98 263.007 140.293 285.451 140.293C305.742 140.293 313.834 160.251 316.753 171.247C317.701 174.819 314.976 178.312 311.287 178.312ZM707.988 165.542H653.178C648.277 165.542 646.166 159.148 650.176 156.313C650.232 156.271 650.289 156.231 650.346 156.192C656.055 152.238 663.549 152.597 663.549 152.597C663.549 152.597 664.618 131.202 684.779 131.202C703.007 131.202 710.276 149.229 712.898 159.161C713.749 162.387 711.302 165.542 707.988 165.542ZM694.652 215.588H768.181C774.134 215.588 776.702 208.053 771.828 204.71L771.622 204.569C764.685 199.908 755.581 200.331 755.581 200.331C755.581 200.331 754.28 175.117 729.785 175.117C717.674 175.117 707.887 195.353 707.887 195.353C707.887 195.353 691.412 195.353 688.686 208.066C687.862 211.918 690.625 215.588 694.652 215.588ZM653.296 218.049H490.283C474.981 218.049 475.683 205.384 480.681 200.971C485.804 196.448 495.926 198.282 495.926 198.282C495.926 198.282 498.94 189.763 508.859 185.616C517.633 181.948 526.825 183.693 526.825 183.693C526.825 183.693 526.825 177.847 532.443 173.005C538.062 168.162 545.552 168.633 545.552 168.633C545.552 168.633 550.702 136.395 585.112 136.395C619.523 136.395 623.502 166.75 623.502 166.75C623.502 166.75 631.227 166.75 636.845 171.928C642.463 177.104 643.165 182.987 643.165 182.987C643.165 182.987 661.954 180.442 667.511 196.735C670.822 206.445 664.018 218.049 653.296 218.049ZM246.704 126.496H366.615C377.871 126.496 377.354 117.179 373.677 113.933C369.909 110.606 362.463 111.956 362.463 111.956C362.463 111.956 360.246 105.689 352.95 102.639C346.496 99.9396 339.734 101.224 339.734 101.224C339.734 101.224 339.734 96.9236 335.602 93.3616C331.469 89.7996 325.959 90.1456 325.959 90.1456C325.959 90.1456 322.171 66.4316 296.859 66.4316C271.547 66.4316 268.62 88.7606 268.62 88.7606C268.62 88.7606 262.938 88.7606 258.805 92.5686C254.672 96.3766 254.156 100.704 254.156 100.704C254.156 100.704 240.335 98.8316 236.248 110.817C233.812 117.96 238.816 126.496 246.704 126.496Z" fill="white" stroke="#E1E4E5" stroke-width="4"/>
<path d="M699.345 333.17C683.767 336.86 667.29 323.649 667.29 323.649C667.29 323.649 676.083 304.461 691.666 300.782C707.245 297.091 723.716 310.291 723.716 310.291C723.716 310.291 714.924 329.479 699.345 333.17Z" fill="url(#paint0_linear_1235_22816)"/>
<path d="M537.506 285.5C548.312 292.943 564.821 287.74 564.821 287.74C564.821 287.74 563.799 270.471 552.985 263.035C542.179 255.592 525.677 260.787 525.677 260.787C525.677 260.787 526.699 278.057 537.506 285.5Z" fill="url(#paint1_linear_1235_22816)"/>
<path d="M137.46 292.335C150.548 305.656 175.023 302.847 175.023 302.847C175.023 302.847 178.261 278.44 165.161 265.128C152.073 251.807 127.61 254.607 127.61 254.607C127.61 254.607 124.372 279.014 137.46 292.335Z" fill="url(#paint2_linear_1235_22816)"/>
<path d="M583.836 332.937C580.317 332.937 577.465 335.552 577.465 338.777C577.465 342.003 580.317 344.617 583.836 344.617C587.355 344.617 590.207 342.003 590.207 338.777C590.207 335.552 587.355 332.937 583.836 332.937Z" fill="#4F27AA"/>
<path d="M311.49 396.646C307.092 396.646 303.527 399.973 303.527 404.078C303.527 408.182 307.092 411.51 311.49 411.51C315.888 411.51 319.453 408.182 319.453 404.078C319.453 399.973 315.888 396.646 311.49 396.646Z" fill="#4F27AA"/>
<path d="M706.837 405.869C699.892 405.869 694.262 400.239 694.262 393.294C694.262 386.349 699.892 380.719 706.837 380.719C713.782 380.719 719.412 386.349 719.412 393.294C719.412 400.239 713.782 405.869 706.837 405.869Z" fill="#E1E4E5"/>
<path d="M249.375 358.42C245.27 358.42 241.943 354.855 241.943 350.457C241.943 346.059 245.27 342.494 249.375 342.494C253.48 342.494 256.807 346.059 256.807 350.457C256.807 354.855 253.48 358.42 249.375 358.42Z" fill="#E1E4E5"/>
<path d="M400.295 532.845C396.696 532.845 393.778 529.927 393.778 526.328C393.778 522.728 396.696 519.811 400.295 519.811C403.894 519.811 406.812 522.728 406.812 526.328C406.812 529.927 403.894 532.845 400.295 532.845Z" fill="#E1E4E5"/>
<path d="M704.209 251.962C698.715 251.962 694.262 247.509 694.262 242.015C694.262 236.522 698.715 232.068 704.209 232.068C709.703 232.068 714.156 236.522 714.156 242.015C714.156 247.509 709.703 251.962 704.209 251.962Z" fill="#E1E4E5"/>
<path d="M299.728 238.352C300.658 241.823 298.598 245.39 295.128 246.32C291.657 247.25 288.089 245.191 287.159 241.72C286.23 238.249 288.289 234.682 291.76 233.752C295.231 232.822 298.798 234.881 299.728 238.352Z" fill="#E1E4E5"/>
<path d="M631.904 388.185C628.227 388.185 625.246 385.8 625.246 382.858C625.246 379.916 628.227 377.531 631.904 377.531C635.581 377.531 638.562 379.916 638.562 382.858C638.562 385.8 635.581 388.185 631.904 388.185Z" fill="#E1E4E5"/>
<path d="M770.926 291.528H771.1C772.131 306.142 783 306.367 783 306.367C783 306.367 771.015 306.601 771.015 323.488C771.015 306.601 759.03 306.367 759.03 306.367C759.03 306.367 769.894 306.142 770.926 291.528ZM359.73 272.416H359.869C360.691 284.554 369.357 284.741 369.357 284.741C369.357 284.741 359.801 284.935 359.801 298.961C359.801 284.935 350.245 284.741 350.245 284.741C350.245 284.741 358.907 284.554 359.73 272.416Z" fill="#E1E4E5"/>
</g>
<defs>
<linearGradient id="paint0_linear_1235_22816" x1="640.681" y1="342.346" x2="777.054" y2="277.919" gradientUnits="userSpaceOnUse">
<stop stop-color="white"/>
<stop offset="1" stop-color="#EEEEEE"/>
</linearGradient>
<linearGradient id="paint1_linear_1235_22816" x1="579.601" y1="309.922" x2="494.536" y2="220.224" gradientUnits="userSpaceOnUse">
<stop stop-color="white"/>
<stop offset="1" stop-color="#EEEEEE"/>
</linearGradient>
<linearGradient id="paint2_linear_1235_22816" x1="189.679" y1="337.836" x2="95.06" y2="189.512" gradientUnits="userSpaceOnUse">
<stop stop-color="white"/>
<stop offset="1" stop-color="#EEEEEE"/>
</linearGradient>
<clipPath id="clip0_1235_22816">
<rect width="900" height="600" fill="white"/>
</clipPath>
</defs>
</svg>
