<svg width="900" height="600" viewBox="0 0 900 600" fill="none" xmlns="http://www.w3.org/2000/svg">
<g clip-path="url(#clip0_1235_22837)">
<path d="M590.866 116.039H392.838C381.792 116.039 372.838 124.993 372.838 136.039V187.321C372.838 198.367 381.792 207.321 392.838 207.321H590.866C601.912 207.321 610.866 198.367 610.866 187.321V136.039C610.866 124.993 601.912 116.039 590.866 116.039Z" fill="white" stroke="#E1E4E5" stroke-width="4"/>
<path d="M581.192 144.451H458.074C455.085 144.451 452.662 146.874 452.662 149.863C452.662 152.852 455.085 155.275 458.074 155.275H581.192C584.181 155.275 586.604 152.852 586.604 149.863C586.604 146.874 584.181 144.451 581.192 144.451Z" fill="#E1E4E5"/>
<path d="M533.839 167.451H458.074C455.085 167.451 452.662 169.874 452.662 172.863C452.662 175.852 455.085 178.275 458.074 178.275H533.839C536.828 178.275 539.251 175.852 539.251 172.863C539.251 169.874 536.828 167.451 533.839 167.451Z" fill="#E1E4E5"/>
<path fill-rule="evenodd" clip-rule="evenodd" d="M410.561 184.691C397.944 184.691 387.715 174.317 387.715 161.523C387.715 148.728 397.944 138.354 410.561 138.354C423.178 138.354 433.408 148.728 433.408 161.523C433.408 174.317 423.178 184.691 410.561 184.691Z" fill="#4F27AA"/>
<path d="M418.606 157.662L408.955 167.959L403.161 161.782" stroke="white" stroke-width="3.568" stroke-linecap="round" stroke-linejoin="round"/>
<path d="M618.543 253.271H420.515C409.469 253.271 400.515 262.226 400.515 273.271V324.553C400.515 335.599 409.469 344.553 420.515 344.553H618.543C629.589 344.553 638.543 335.599 638.543 324.553V273.271C638.543 262.226 629.589 253.271 618.543 253.271Z" fill="white" stroke="#E1E4E5" stroke-width="4"/>
<path d="M608.869 281.684H485.751C482.762 281.684 480.339 284.107 480.339 287.096C480.339 290.085 482.762 292.508 485.751 292.508H608.869C611.858 292.508 614.281 290.085 614.281 287.096C614.281 284.107 611.858 281.684 608.869 281.684Z" fill="#E1E4E5"/>
<path d="M561.516 304.684H485.751C482.762 304.684 480.339 307.107 480.339 310.096C480.339 313.085 482.762 315.508 485.751 315.508H561.516C564.505 315.508 566.928 313.085 566.928 310.096C566.928 307.107 564.505 304.684 561.516 304.684Z" fill="#E1E4E5"/>
<path fill-rule="evenodd" clip-rule="evenodd" d="M438.238 321.923C425.621 321.923 415.392 311.549 415.392 298.755C415.392 285.96 425.621 275.586 438.238 275.586C450.855 275.586 461.085 285.96 461.085 298.755C461.085 311.549 450.855 321.923 438.238 321.923Z" fill="#2E2445"/>
<path d="M446.283 294.895L436.632 305.192L430.838 299.015" stroke="white" stroke-width="3.568" stroke-linecap="round" stroke-linejoin="round"/>
<path d="M590.866 390.504H392.838C381.792 390.504 372.838 399.458 372.838 410.504V461.786C372.838 472.832 381.792 481.786 392.838 481.786H590.866C601.912 481.786 610.866 472.832 610.866 461.786V410.504C610.866 399.458 601.912 390.504 590.866 390.504Z" fill="white" stroke="#E1E4E5" stroke-width="4"/>
<path d="M581.192 418.914H458.074C455.085 418.914 452.662 421.337 452.662 424.326C452.662 427.315 455.085 429.738 458.074 429.738H581.192C584.181 429.738 586.604 427.315 586.604 424.326C586.604 421.337 584.181 418.914 581.192 418.914Z" fill="#E1E4E5"/>
<path d="M533.839 441.914H458.074C455.085 441.914 452.662 444.337 452.662 447.326C452.662 450.315 455.085 452.738 458.074 452.738H533.839C536.828 452.738 539.251 450.315 539.251 447.326C539.251 444.337 536.828 441.914 533.839 441.914Z" fill="#E1E4E5"/>
<path fill-rule="evenodd" clip-rule="evenodd" d="M410.561 459.155C397.944 459.155 387.715 448.781 387.715 435.987C387.715 423.192 397.944 412.818 410.561 412.818C423.178 412.818 433.408 423.192 433.408 435.987C433.408 448.781 423.178 459.155 410.561 459.155Z" fill="#4F27AA"/>
<path d="M418.606 432.127L408.955 442.424L403.161 436.247" stroke="white" stroke-width="3.568" stroke-linecap="round" stroke-linejoin="round"/>
<path d="M255.487 201.897C254.905 204.225 255.678 206.646 256.951 208.679C257.851 210.115 259.11 208.529 260.945 208.275C263.784 207.877 265.581 204.872 266.195 197.552C266.48 192.205 266.346 189.537 266.048 189.07C264.988 187.399 262.26 186.84 260.11 187.001" fill="#2E2445"/>
<path fill-rule="evenodd" clip-rule="evenodd" d="M260.641 520.083C260.641 520.083 260.468 531.076 267.254 534.981C274.039 538.887 284.552 546.143 284.552 546.143L244.56 547.491L245.7 519.984L260.641 520.083Z" fill="#F8AE9D"/>
<path fill-rule="evenodd" clip-rule="evenodd" d="M243.165 532.196L242.514 550.031H251.803L252.44 547.733C252.44 547.733 255.937 547.591 257.958 548.583C260.094 549.633 260.381 550.142 260.381 550.142L289.845 550.203C289.845 550.203 291.298 544.439 282.317 540.27C273.336 536.099 266.796 530.181 265.554 529.575C264.303 528.965 261.778 528.62 260 530.054C258.223 531.487 256.816 535.256 252.788 535.374C247.603 535.526 244.625 529.18 243.165 532.196ZM231.68 340.658C231.68 340.658 242.595 433.276 242.935 439.714C243.274 446.152 239.429 457.263 239.504 469.306C239.579 481.35 240.908 523.795 240.908 523.795L264.986 524.187C264.986 524.187 275.106 447.486 275.215 435.984C275.323 424.482 276.251 341.765 276.251 341.765L231.68 340.658Z" fill="#2E2445"/>
<path fill-rule="evenodd" clip-rule="evenodd" d="M202.232 518.15L197.54 546.647L214.838 546.56L215.385 517.703L202.232 518.15Z" fill="#F8AE9D"/>
<path fill-rule="evenodd" clip-rule="evenodd" d="M199.776 530.604C199.123 530.746 198.537 531.102 198.109 531.615C197.681 532.128 197.437 532.77 197.415 533.437L197.255 538.289C194.788 541.032 193.633 548.996 193.527 549.762C193.521 549.804 193.519 549.846 193.521 549.888C193.807 553.776 219.296 553.713 221.442 550.032C221.52 549.898 221.525 549.742 221.5 549.588C221.261 548.121 219.855 540.18 217.117 538.033L217.099 533.231C217.097 532.573 216.878 531.934 216.477 531.413C216.076 530.891 215.514 530.516 214.879 530.345L211.701 529.491C209.173 525.793 205.726 525.924 202.773 529.953L199.776 530.604ZM210.725 341.53C210.725 341.53 203.016 404.72 203.121 416.821C203.225 428.923 205.493 434.237 202.266 442.918C199.038 451.599 196.285 520.888 196.285 520.888L220.153 522.876C220.153 522.876 235.4 448.733 237.058 438.453C238.717 428.173 259.209 340.658 259.209 340.658L210.725 341.53Z" fill="#2E2445"/>
<path fill-rule="evenodd" clip-rule="evenodd" d="M329.738 227.915C329.738 227.915 327.745 216.81 328.462 214.561C329.074 212.617 334.859 209.815 334.859 209.815C334.859 209.815 344.92 193.921 347.122 195.539C348.913 196.851 341.882 208.569 341.882 208.569C341.882 208.569 348.294 215.295 348.204 218.302C348.114 221.309 337.74 230.722 337.74 230.722L329.738 227.915ZM226.33 230.524C226.33 230.524 232.956 228.969 233.186 218.111C233.416 207.254 233.254 203.548 233.254 203.548L248.964 203.284C248.964 203.284 249.122 215.385 249.125 219.761C249.131 229.29 256.208 231.864 256.208 231.864C256.208 231.864 255.619 242.283 242.394 243.027C232.068 243.608 226.33 230.524 226.33 230.524Z" fill="#F8AE9D"/>
<path fill-rule="evenodd" clip-rule="evenodd" d="M231.812 198.06C225.3 197.808 226.362 207.34 233.126 207.327C233.126 207.327 240.395 221.943 251.808 221.981C257.305 222 259.1 217.103 260.748 213.665C262.396 210.228 263.605 205.086 263.706 201.938C263.814 198.581 263.828 187.553 263.828 187.553L231.558 187.539L231.812 198.06Z" fill="#F8AE9D"/>
<path fill-rule="evenodd" clip-rule="evenodd" d="M256.455 231.218C256.455 231.218 273.378 236.501 277.457 242.811C290.594 254.353 307.026 270.203 307.026 270.203C307.026 270.203 322.675 230.927 327.791 226.449C331.291 223.385 338.265 227.174 339.565 231.067C341.234 236.068 330.516 265.401 325.454 279.254C324.473 281.938 323.705 284.041 323.28 285.274C320.193 294.229 312.683 299.365 303.543 293.673C299.859 291.379 288.896 283.861 279.542 277.045C279.396 284.205 279.149 291.75 278.915 298.916V298.917C278.347 316.326 277.851 331.497 279.042 333.468C284.941 343.239 277.097 349.947 251.127 352.411C225.158 354.876 202.118 352.857 206.299 339.818C207.17 337.1 207.159 331.252 206.725 323.655C204.181 323.519 201.638 323.352 199.098 323.152C188.26 322.298 180.244 317.641 179.126 305.546C178.343 297.076 194.479 257.313 200.53 244.239C201.945 241.18 204.133 239.275 206.613 238.326C207.19 237.682 207.84 237.229 208.57 236.988C213.015 235.523 228.951 228.828 228.951 228.828L247.908 241.231L256.455 231.218ZM204.969 301.212L204.926 301.322L204.979 301.329L204.969 301.212Z" fill="#4F27AA"/>
<path fill-rule="evenodd" clip-rule="evenodd" d="M247.032 311.707C247.032 311.707 252.814 310.544 255.181 308.687C257.546 306.829 264.713 305.516 264.713 305.516L262.42 310.344C262.42 310.344 279.984 308.695 280.4 310.428C280.817 312.16 275.736 314.044 275.736 314.044C275.736 314.044 273.231 318.724 270.806 321.436C268.511 324.003 257.111 323.697 253.114 322.095C249.661 320.712 245.906 321.404 245.906 321.404L247.032 311.707Z" fill="#F8AE9D"/>
<path d="M233.583 187.988C234.534 189.234 236.211 189.508 237.593 189.754C239.451 190.085 240.37 190.775 241.334 192.625C241.945 193.807 242.555 195.102 243.648 195.742C244.538 196.266 244.511 194.941 244.643 193.916C244.655 193.82 244.674 193.725 244.699 193.632C244.911 192.813 245.78 192.95 246.033 193.758C246.264 194.49 246.759 195.109 247.389 195.454C247.492 195.51 247.601 195.559 247.71 195.538C247.858 195.517 247.974 195.376 248.07 195.25C248.271 194.986 248.47 194.652 248.676 194.299C249.356 193.129 250.653 193.54 251.412 194.659C251.888 195.355 252.454 196.073 253.231 196.235C253.482 196.291 253.797 196.249 253.913 196.003C254.06 195.7 253.829 195.397 253.868 195.088C253.9 194.799 254.022 194.673 254.157 194.426C254.683 193.477 255.903 193.442 256.647 194.233C257.164 194.783 257.704 195.313 258.264 195.82C258.502 196.031 258.849 196.242 259.087 196.031C259.215 195.918 259.247 195.728 259.273 195.545C259.408 194.652 259.537 193.758 259.672 192.864C259.749 192.365 260.012 191.71 260.462 191.837C260.681 191.9 260.809 192.133 260.931 192.344C261.079 192.611 263.721 195.658 263.772 195.426C264.184 193.695 265.026 192.119 265.437 190.388C268.098 179.249 256.291 170.292 247.273 170.243C245.268 170.229 243.436 170.262 241.488 170.733C239.412 171.24 237.221 172.044 235.337 173.177C232.696 174.76 230.697 177.638 231.211 181.072" fill="#2E2445"/>
<path d="M240.916 184.388C242.188 185.842 242.524 187.888 242.643 189.821C242.817 192.736 242.58 195.765 241.246 198.353C240.866 199.089 240.586 202.735 240 202.533C239.813 202.47 239.844 199.643 239.351 198.12C238.591 195.759 235.088 194.858 233.511 196.35C230.992 198.724 232.47 201.608 233.305 203.402C233.804 204.485 234.595 205.7 234.732 206.846C234.901 208.313 234.951 213.658 234.003 214.905C233.212 215.95 232.37 210.901 231.653 209.906C226.349 202.495 221.262 183.626 230.319 179.533C231.697 178.91 235.948 178.589 237.238 179.382" fill="#2E2445"/>
<path d="M326.653 139.821C316.22 141.889 304.336 130.899 304.336 130.899C304.336 130.899 309.375 116.562 319.812 114.503C330.245 112.435 342.125 123.417 342.125 123.417C342.125 123.417 337.086 137.754 326.653 139.821Z" fill="url(#paint0_linear_1235_22837)"/>
<path d="M698.56 469.526C711.028 478.114 730.077 472.111 730.077 472.111C730.077 472.111 728.897 452.185 716.42 443.605C703.952 435.017 684.912 441.012 684.912 441.012C684.912 441.012 686.091 460.937 698.56 469.526Z" fill="url(#paint1_linear_1235_22837)"/>
<path d="M710.389 218.388C697.424 231.584 673.179 228.802 673.179 228.802C673.179 228.802 669.971 204.625 682.948 191.437C695.913 178.241 720.146 181.015 720.146 181.015C720.146 181.015 723.354 205.192 710.389 218.388Z" fill="url(#paint2_linear_1235_22837)"/>
<path d="M319.79 479.301C315.332 479.301 311.718 482.915 311.718 487.373C311.718 491.831 315.332 495.445 319.79 495.445C324.248 495.445 327.862 491.831 327.862 487.373C327.862 482.915 324.248 479.301 319.79 479.301Z" fill="#4F27AA"/>
<path d="M130 343.533C126.686 343.533 124 340.847 124 337.533C124 334.219 126.686 331.533 130 331.533C133.314 331.533 136 334.219 136 337.533C136 340.847 133.314 343.533 130 343.533Z" fill="#4F27AA"/>
<path d="M369.971 246.384C366.459 246.384 363.612 243.537 363.612 240.025C363.612 236.513 366.459 233.666 369.971 233.666C373.483 233.666 376.33 236.513 376.33 240.025C376.33 243.537 373.483 246.384 369.971 246.384Z" fill="#4F27AA"/>
<path d="M586.388 528.884C581.179 528.884 576.956 525.013 576.956 520.238C576.956 515.463 581.179 511.592 586.388 511.592C591.597 511.592 595.82 515.463 595.82 520.238C595.82 525.013 591.597 528.884 586.388 528.884Z" fill="#E1E4E5"/>
<path d="M166.5 442.533C163.462 442.533 161 440.071 161 437.033C161 433.996 163.462 431.533 166.5 431.533C169.538 431.533 172 433.996 172 437.033C172 440.071 169.538 442.533 166.5 442.533Z" fill="#E1E4E5"/>
<path d="M147.397 230.231C143.251 230.231 139.89 226.87 139.89 222.724C139.89 218.578 143.251 215.217 147.397 215.217C151.543 215.217 154.904 218.578 154.904 222.724C154.904 226.87 151.543 230.231 147.397 230.231Z" fill="#E1E4E5"/>
<path d="M512.297 64.532C508.083 64.532 504.667 60.8312 504.667 56.266C504.667 51.7008 508.083 48 512.297 48C516.511 48 519.927 51.7008 519.927 56.266C519.927 60.8312 516.511 64.532 512.297 64.532Z" fill="#E1E4E5"/>
<path d="M350.821 331.434C352.319 337.025 349.001 342.772 343.41 344.27C337.819 345.768 332.073 342.45 330.575 336.859C329.077 331.269 332.394 325.522 337.985 324.024C343.576 322.526 349.323 325.844 350.821 331.434Z" fill="#E1E4E5"/>
<path d="M189.273 126.848C183.654 126.848 179.099 122.293 179.099 116.674C179.099 111.055 183.654 106.5 189.273 106.5C194.892 106.5 199.447 111.055 199.447 116.674C199.447 122.293 194.892 126.848 189.273 126.848Z" fill="#E1E4E5"/>
<path d="M765.275 399.592C759.352 399.592 754.55 395.75 754.55 391.012C754.55 386.273 759.352 382.432 765.275 382.432C771.198 382.432 776 386.273 776 391.012C776 395.75 771.198 399.592 765.275 399.592Z" fill="#E1E4E5"/>
<path d="M710.075 330.848C713.193 342.483 706.288 354.443 694.652 357.561C683.017 360.679 671.057 353.774 667.94 342.138C664.822 330.503 671.727 318.543 683.362 315.425C694.998 312.308 706.957 319.212 710.075 330.848Z" fill="#E1E4E5"/>
<path d="M638.123 87.21H638.326C639.53 104.655 652.216 104.924 652.216 104.924C652.216 104.924 638.227 105.203 638.227 125.362C638.227 105.203 624.238 104.924 624.238 104.924C624.238 104.924 636.919 104.655 638.123 87.209V87.21ZM376.747 48H376.959C378.218 66.028 391.481 66.305 391.481 66.305C391.481 66.305 376.856 66.594 376.856 87.425C376.856 66.594 362.231 66.305 362.231 66.305C362.231 66.305 375.488 66.028 376.747 48Z" fill="#E1E4E5"/>
</g>
<defs>
<linearGradient id="paint0_linear_1235_22837" x1="287.131" y1="143.973" x2="377.174" y2="101.798" gradientUnits="userSpaceOnUse">
<stop stop-color="white"/>
<stop offset="1" stop-color="#EEEEEE"/>
</linearGradient>
<linearGradient id="paint1_linear_1235_22837" x1="747.13" y1="497.705" x2="648.98" y2="394.209" gradientUnits="userSpaceOnUse">
<stop stop-color="white"/>
<stop offset="1" stop-color="#EEEEEE"/>
</linearGradient>
<linearGradient id="paint2_linear_1235_22837" x1="658.66" y1="263.462" x2="752.391" y2="116.532" gradientUnits="userSpaceOnUse">
<stop stop-color="white"/>
<stop offset="1" stop-color="#EEEEEE"/>
</linearGradient>
<clipPath id="clip0_1235_22837">
<rect width="900" height="600" fill="white"/>
</clipPath>
</defs>
</svg>
