<svg width="900" height="600" viewBox="0 0 900 600" fill="none" xmlns="http://www.w3.org/2000/svg">
<g clip-path="url(#clip0_1235_22880)">
<path d="M542.409 429.188H468.948C395.921 429.188 336.72 369.986 336.72 296.959C336.72 223.931 395.921 164.73 468.948 164.73C541.976 164.73 601.177 223.931 601.177 296.959V318.997C601.177 339.282 584.732 355.727 564.447 355.727C544.161 355.727 527.717 339.282 527.717 318.997V296.959C527.717 264.502 501.405 238.191 468.948 238.191C436.492 238.191 410.18 264.502 410.18 296.959C410.18 329.415 436.492 355.727 468.948 355.727C501.405 355.727 527.717 329.415 527.717 296.959" stroke="#4F27AA" stroke-width="30" stroke-linecap="round" stroke-linejoin="round"/>
<path d="M708.894 416.669C681.446 423.171 652.417 399.894 652.417 399.894C652.417 399.894 667.908 366.086 695.364 359.604C722.812 353.102 751.833 376.359 751.833 376.359C751.833 376.359 736.341 410.166 708.894 416.669Z" fill="url(#paint0_linear_1235_22880)"/>
<path d="M203.913 416.669C176.466 423.171 147.436 399.894 147.436 399.894C147.436 399.894 162.928 366.086 190.384 359.604C217.831 353.102 246.852 376.359 246.852 376.359C246.852 376.359 231.36 410.166 203.913 416.669Z" fill="url(#paint1_linear_1235_22880)"/>
<path d="M365.233 133.494C385.692 129.358 397.987 104.72 397.987 104.72C397.987 104.72 377.1 86.8024 356.641 90.9544C336.181 95.0904 323.886 119.712 323.886 119.712C323.886 119.712 344.773 137.63 365.233 133.494Z" fill="url(#paint2_linear_1235_22880)"/>
<path d="M702.239 252.085C689.381 252.085 678.958 262.055 678.958 274.353C678.958 286.651 689.381 296.621 702.239 296.621C715.097 296.621 725.52 286.651 725.52 274.353C725.52 262.055 715.097 252.085 702.239 252.085Z" fill="#4F27AA"/>
<path d="M412.707 475.857C405.107 475.857 398.946 482.018 398.946 489.618C398.946 497.218 405.107 503.379 412.707 503.379C420.307 503.379 426.468 497.218 426.468 489.618C426.468 482.018 420.307 475.857 412.707 475.857Z" fill="#4F27AA"/>
<path d="M255.453 210.944C249.304 210.944 244.319 205.959 244.319 199.81C244.319 193.661 249.304 188.676 255.453 188.676C261.602 188.676 266.587 193.661 266.587 199.81C266.587 205.959 261.602 210.944 255.453 210.944Z" fill="#4F27AA"/>
<path d="M560.583 518.926C550.619 518.926 542.542 511.16 542.542 501.579C542.542 491.999 550.619 484.232 560.583 484.232C570.547 484.232 578.624 491.999 578.624 501.579C578.624 511.16 570.547 518.926 560.583 518.926Z" fill="#E1E4E5"/>
<path d="M268.409 323.677C261.857 323.677 256.546 318.366 256.546 311.814C256.546 305.262 261.857 299.951 268.409 299.951C274.961 299.951 280.272 305.262 280.272 311.814C280.272 318.366 274.961 323.677 268.409 323.677Z" fill="#E1E4E5"/>
<path d="M643.67 464.71C637.922 464.71 633.262 459.739 633.262 453.608C633.262 447.476 637.922 442.506 643.67 442.506C649.418 442.506 654.078 447.476 654.078 453.608C654.078 459.739 649.418 464.71 643.67 464.71Z" fill="#E1E4E5"/>
<path d="M497.652 101.637C492.062 101.637 487.53 97.1048 487.53 91.5146C487.53 85.9244 492.062 81.3926 497.652 81.3926C503.242 81.3926 507.774 85.9244 507.774 91.5146C507.774 97.1048 503.242 101.637 497.652 101.637Z" fill="#E1E4E5"/>
<path d="M297.36 474.641C298.773 479.918 295.642 485.341 290.366 486.755C285.089 488.169 279.665 485.038 278.252 479.761C276.838 474.484 279.969 469.061 285.246 467.647C290.522 466.233 295.946 469.365 297.36 474.641Z" fill="#E1E4E5"/>
<path d="M633.11 110.424C636.053 121.406 629.536 132.694 618.554 135.636C607.572 138.579 596.284 132.062 593.341 121.08C590.398 110.098 596.916 98.8099 607.897 95.8673C618.879 92.9247 630.167 99.4418 633.11 110.424Z" fill="#E1E4E5"/>
</g>
<defs>
<linearGradient id="paint0_linear_1235_22880" x1="605.534" y1="432.836" x2="845.808" y2="319.322" gradientUnits="userSpaceOnUse">
<stop stop-color="white"/>
<stop offset="1" stop-color="#EEEEEE"/>
</linearGradient>
<linearGradient id="paint1_linear_1235_22880" x1="100.554" y1="432.836" x2="340.827" y2="319.322" gradientUnits="userSpaceOnUse">
<stop stop-color="white"/>
<stop offset="1" stop-color="#EEEEEE"/>
</linearGradient>
<linearGradient id="paint2_linear_1235_22880" x1="439.7" y1="112.329" x2="243.06" y2="110.505" gradientUnits="userSpaceOnUse">
<stop stop-color="white"/>
<stop offset="1" stop-color="#EEEEEE"/>
</linearGradient>
<clipPath id="clip0_1235_22880">
<rect width="900" height="600" fill="white"/>
</clipPath>
</defs>
</svg>
