<svg width="900" height="600" viewBox="0 0 900 600" fill="none" xmlns="http://www.w3.org/2000/svg">
<g clip-path="url(#clip0_1235_22895)">
<path d="M652.027 354.871C655.207 413.469 540.643 532.621 399.436 488.519C333.762 468.006 339.325 433.959 289.386 389.087C259.62 362.343 216.852 342.12 204.957 303.245C194.681 269.691 200.982 233.625 218.798 210.166C258.864 157.409 339.749 121.283 419.447 204.406C499.145 287.529 643.808 203.743 652.027 354.871Z" fill="url(#paint0_linear_1235_22895)"/>
<path d="M581.304 186.373C571.815 203.309 551.032 205.636 517.736 202.417C492.696 199.992 469.861 198.116 444.818 184.462C427.29 174.912 413.415 161.992 403.288 149.443C392.315 135.848 376.998 120.333 384.506 104.919C394.825 83.7451 454.499 65.9121 512.443 95.0751C576.096 127.12 590.587 169.82 581.304 186.373Z" fill="url(#paint1_linear_1235_22895)"/>
<path fill-rule="evenodd" clip-rule="evenodd" d="M518.801 457.713H368.937C349.987 457.713 334.24 443.089 332.828 424.175L316.593 204.32H570.602L554.909 424.084C553.552 443.034 537.787 457.713 518.801 457.713Z" fill="#2E2445" stroke="#2E2445" stroke-width="24.404" stroke-linecap="round" stroke-linejoin="round"/>
<path d="M443.905 276.719V385.316" stroke="white" stroke-width="24.404" stroke-linecap="round" stroke-linejoin="round"/>
<path d="M299.109 204.322H588.701M534.403 204.322L516.068 155.417C513.481 148.515 508.848 142.568 502.79 138.37C496.732 134.172 489.537 131.923 482.167 131.924H405.643C398.272 131.923 391.077 134.172 385.019 138.37C378.961 142.568 374.329 148.515 371.742 155.417L353.407 204.322" stroke="#2E2445" stroke-width="24.404" stroke-linecap="round" stroke-linejoin="round"/>
<path d="M505.987 276.719L498.204 385.316M381.823 276.719L389.606 385.316" stroke="white" stroke-width="24.404" stroke-linecap="round" stroke-linejoin="round"/>
<path d="M597.208 445.751C596.611 443.941 595.36 442.485 594.409 440.881C587.356 428.808 581.31 416.269 576.683 403.04C573.865 394.998 571.085 386.937 569.2 378.615C567.54 371.301 566.103 363.949 565.356 356.467C564.965 352.585 564.591 348.723 564.461 344.823C564.386 342.733 564.032 340.644 564.2 338.554C564.517 334.747 564.405 330.903 565.412 327.172C565.599 326.481 565.786 325.772 566.065 325.119C567.652 321.294 571.215 320.529 574.238 323.309C575.694 324.653 576.739 326.295 577.709 327.993C582.206 335.848 585.938 344.077 589.24 352.492C594.315 365.404 598.887 378.503 603.141 391.695C603.906 394.083 604.653 396.49 605.735 398.86C605.735 397.573 605.922 396.248 605.698 394.998C605.343 393.188 605.455 391.397 605.343 389.605C604.653 378.484 604.746 367.345 605.026 356.205C605.138 351.764 605.548 347.286 606.071 342.845C606.425 339.841 606.687 336.818 607.097 333.833C608.31 325.194 609.504 316.536 612.732 308.344C613.367 306.721 614.206 305.191 615.438 303.941C617.919 301.385 620.998 301.571 623.256 304.37C625.439 307.076 626.503 310.322 627.436 313.588C628.592 317.693 629.19 321.891 629.731 326.127C630.645 333.292 630.85 340.494 631.111 347.715C631.279 352.623 631.466 357.549 631.317 362.456C631.149 367.942 631.167 373.446 630.869 378.932C630.57 384.418 630.384 389.885 630.104 395.371C630.104 395.52 630.141 395.651 630.197 395.987C630.943 394.774 631.037 393.524 631.317 392.367C634.769 377.794 639.191 363.52 645.031 349.731C648.651 341.203 652.663 332.863 658.205 325.362C660.444 322.32 662.832 319.409 666.135 317.469C667.889 316.443 669.736 315.64 671.882 316.2C674.121 316.778 675.427 318.308 676.211 320.38C677.33 323.346 677.61 326.444 677.349 329.541C676.942 334.426 676.263 339.285 675.315 344.095C673.58 352.903 671.005 361.467 667.851 369.864C662.03 385.407 655.35 400.633 648.95 415.971C648.67 416.624 648.222 417.239 648.371 418.023C648.147 418.06 648.035 418.191 648.035 418.396C648.035 418.452 648.166 418.508 648.241 418.564C648.297 418.378 648.334 418.21 648.39 418.023C649.621 417.165 650.2 415.784 651.002 414.627C655.387 408.339 659.903 402.163 664.866 396.323C669.699 390.65 674.718 385.146 681.118 381.153C683.394 379.735 685.727 378.428 688.544 378.447C691.735 378.466 693.9 379.902 694.907 382.981C695.56 384.978 695.728 386.993 695.486 389.139C694.665 396.229 691.716 402.443 687.966 408.32C682.741 416.493 676.696 424.031 670.221 431.253C663.728 438.492 656.376 444.762 648.782 450.77C642.046 456.107 635.422 461.592 628.76 467.004C626.969 468.459 625.14 469.877 623.219 471.165C621.297 472.471 619.244 472.788 617.042 472.172C608.273 469.672 599.652 466.854 591.573 462.525C585.247 459.129 579.369 455.099 573.828 450.527C568.51 446.161 563.397 441.59 558.714 436.552C554.59 432.092 550.709 427.427 547.891 421.998C546.996 420.281 546.585 418.49 546.772 416.568C546.958 414.627 548.433 412.985 550.373 412.799C552.015 412.649 553.676 412.668 555.299 413.19C559.647 414.59 563.304 417.184 566.775 420.02C574.481 426.345 582.131 432.727 589.445 439.5C591.61 441.515 593.868 443.437 596.088 445.396C596.368 445.639 596.648 445.863 597.021 445.9C597.114 446.236 597.245 446.516 597.618 446.628C597.637 446.684 597.655 446.74 597.693 446.777C597.711 446.796 597.767 446.796 597.805 446.796C597.73 446.74 597.655 446.702 597.581 446.646C597.674 446.292 597.544 445.993 597.208 445.751ZM241.142 445.751C240.544 443.941 239.294 442.485 238.343 440.881C231.29 428.808 225.244 416.269 220.616 403.04C217.799 394.998 215.019 386.937 213.134 378.615C211.473 371.301 210.037 363.949 209.29 356.467C208.898 352.585 208.525 348.723 208.395 344.823C208.32 342.733 207.966 340.644 208.133 338.554C208.451 334.747 208.339 330.903 209.346 327.172C209.533 326.481 209.72 325.772 209.999 325.119C211.585 321.294 215.149 320.529 218.172 323.309C219.628 324.653 220.672 326.295 221.643 327.993C226.14 335.848 229.871 344.077 233.174 352.492C238.249 365.404 242.821 378.503 247.075 391.695C247.84 394.083 248.587 396.49 249.669 398.86C249.669 397.573 249.855 396.248 249.632 394.998C249.277 393.188 249.389 391.397 249.277 389.605C248.587 378.484 248.68 367.345 248.96 356.205C249.072 351.764 249.482 347.286 250.005 342.845C250.359 339.841 250.62 336.818 251.031 333.833C252.244 325.194 253.438 316.536 256.666 308.344C257.3 306.721 258.14 305.191 259.372 303.941C261.853 301.385 264.932 301.571 267.19 304.37C269.373 307.076 270.437 310.322 271.369 313.588C272.526 317.693 273.123 321.891 273.665 326.127C274.579 333.292 274.784 340.494 275.045 347.715C275.213 352.623 275.4 357.549 275.251 362.456C275.083 367.942 275.101 373.446 274.803 378.932C274.504 384.418 274.318 389.885 274.038 395.371C274.038 395.52 274.075 395.651 274.131 395.987C274.877 394.774 274.971 393.524 275.251 392.367C278.703 377.794 283.125 363.52 288.965 349.731C292.585 341.203 296.597 332.863 302.138 325.362C304.378 322.32 306.766 319.409 310.069 317.469C311.823 316.443 313.67 315.64 315.816 316.2C318.055 316.778 319.361 318.308 320.145 320.38C321.264 323.346 321.544 326.444 321.283 329.541C320.876 334.426 320.197 339.285 319.249 344.095C317.514 352.903 314.939 361.467 311.785 369.864C305.964 385.407 299.284 400.633 292.883 415.971C292.604 416.624 292.156 417.239 292.305 418.023C292.081 418.06 291.969 418.191 291.969 418.396C291.969 418.452 292.1 418.508 292.174 418.564C292.23 418.378 292.268 418.21 292.324 418.023C293.555 417.165 294.134 415.784 294.936 414.627C299.321 408.339 303.836 402.163 308.8 396.323C313.633 390.65 318.652 385.146 325.052 381.153C327.328 379.735 329.661 378.428 332.478 378.447C335.669 378.466 337.833 379.902 338.841 382.981C339.494 384.978 339.662 386.993 339.42 389.139C338.599 396.229 335.65 402.443 331.9 408.32C326.675 416.493 320.63 424.031 314.155 431.253C307.662 438.492 300.31 444.762 292.716 450.77C285.98 456.107 279.356 461.592 272.694 467.004C270.903 468.459 269.074 469.877 267.152 471.165C265.231 472.471 263.178 472.788 260.976 472.172C252.206 469.672 243.586 466.854 235.506 462.525C229.181 459.129 223.303 455.099 217.762 450.527C212.444 446.161 207.331 441.59 202.648 436.552C198.524 432.092 194.643 427.427 191.825 421.998C190.93 420.281 190.519 418.49 190.706 416.568C190.892 414.627 192.366 412.985 194.307 412.799C195.949 412.649 197.61 412.668 199.233 413.19C203.581 414.59 207.238 417.184 210.708 420.02C218.415 426.345 226.065 432.727 233.379 439.5C235.544 441.515 237.802 443.437 240.022 445.396C240.302 445.639 240.582 445.863 240.955 445.9C241.048 446.236 241.179 446.516 241.552 446.628C241.571 446.684 241.589 446.74 241.627 446.777C241.645 446.796 241.701 446.796 241.739 446.796C241.664 446.74 241.589 446.702 241.515 446.646C241.608 446.292 241.477 445.993 241.142 445.751Z" fill="#4F27AA"/>
<path d="M222.126 451.42C222.478 455.795 222.91 460.17 223.173 464.56C223.275 466.347 223.458 468.134 223.228 469.938C223.164 470.431 223.028 470.868 222.778 471.288C222.197 472.21 221.25 472.566 220.196 472.283C219.272 472.025 218.566 471.451 217.883 470.828C215.724 468.904 213.895 466.681 212.042 464.466C204.282 455.128 198.398 444.706 194.156 433.346C192.918 430.064 191.807 426.736 190.824 423.368C189.688 419.511 189.249 415.557 189.052 411.563C188.82 406.501 189.123 401.463 190.009 396.474C190.304 394.784 190.875 393.15 191.551 391.589C192.043 390.441 192.504 390.328 193.695 390.457C196.142 390.747 197.961 392.178 199.803 393.56C204.819 397.352 208.89 401.984 212.023 407.401C214.822 412.228 216.82 417.403 218.187 422.788C218.981 425.909 219.637 429.063 220.18 432.24C221.118 437.593 221.521 443.003 221.964 448.412C222.056 449.407 222.123 450.41 222.199 451.396C222.167 451.42 222.142 451.428 222.126 451.42ZM682.974 441.014C684.381 436.322 686.224 431.861 688.021 427.383C689.205 424.452 690.423 421.534 691.675 418.63C693.971 413.28 696.048 407.853 697.829 402.31C699.344 397.545 700.589 392.698 701.558 387.792C703.01 380.493 703.806 373.145 703.767 365.712C703.72 358.781 703.051 351.929 701.009 345.27C699.977 341.898 698.494 338.743 696.187 336.024C694.924 334.535 693.472 333.253 691.678 332.432C688.557 331.005 685.595 331.456 682.812 333.354C680.462 334.975 678.816 337.205 677.407 339.647C675.52 342.904 674.254 346.416 673.183 349.998C668.641 365.252 667.858 380.812 669.394 396.575C670.003 402.785 670.937 408.954 671.747 415.144C672.873 423.758 672.934 432.387 672.331 441.031C672.029 445.371 671.87 449.71 671.97 454.049C671.994 455.053 672.065 456.034 672.321 457.003C672.83 458.913 674.08 459.698 676.049 459.353C676.939 459.207 677.787 458.873 678.537 458.373C680.158 457.285 681.7 456.092 682.914 454.578C684.042 453.162 685.452 452.233 686.985 451.36C698.097 445.045 708.365 437.594 717.498 428.622C722.496 423.712 727.11 418.461 730.858 412.507C731.897 410.866 732.878 409.206 733.487 407.35C733.596 407.039 733.693 406.724 733.767 406.401C734.378 403.655 732.714 401.794 729.927 402.151C728.102 402.38 726.512 403.233 724.962 404.152C721.374 406.285 718.061 408.811 714.813 411.411C706.095 418.382 697.696 425.736 689.852 433.685C687.691 435.876 685.677 438.197 683.687 440.527C683.519 440.713 683.445 441.036 682.974 441.014Z" fill="#4F27AA"/>
<path d="M156.405 340.23C162.893 352.431 180.848 355.579 180.848 355.579C180.848 355.579 188.273 338.943 181.775 326.745C175.287 314.544 157.342 311.393 157.342 311.393C157.342 311.393 149.917 328.029 156.405 340.23Z" fill="url(#paint2_linear_1235_22895)"/>
<path d="M620.81 140.08C625.786 132.751 622.198 121.629 622.198 121.629C622.198 121.629 610.544 122.398 605.573 129.732C600.597 137.062 604.18 148.179 604.18 148.179C604.18 148.179 615.834 147.41 620.81 140.08Z" fill="url(#paint3_linear_1235_22895)"/>
<path d="M641.87 244.749C627.245 241.792 618.456 224.18 618.456 224.18C618.456 224.18 633.387 211.371 648.012 214.339C662.638 217.296 671.427 234.897 671.427 234.897C671.427 234.897 656.496 247.706 641.87 244.749Z" fill="url(#paint4_linear_1235_22895)"/>
<path d="M629.592 179.995C635.862 179.995 640.945 174.912 640.945 168.642C640.945 162.372 635.862 157.289 629.592 157.289C623.322 157.289 618.239 162.372 618.239 168.642C618.239 174.912 623.322 179.995 629.592 179.995Z" fill="#4F27AA"/>
<path d="M669.705 285.221C674.792 285.221 678.915 281.097 678.915 276.011C678.915 270.924 674.792 266.801 669.705 266.801C664.619 266.801 660.495 270.924 660.495 276.011C660.495 281.097 664.619 285.221 669.705 285.221Z" fill="#E1E4E5"/>
<path d="M339.266 115.087C344.966 115.087 349.587 110.466 349.587 104.766C349.587 99.0662 344.966 94.4453 339.266 94.4453C333.566 94.4453 328.945 99.0662 328.945 104.766C328.945 110.466 333.566 115.087 339.266 115.087Z" fill="#E1E4E5"/>
<path d="M652.911 472.781C652.911 477.077 656.394 480.56 660.69 480.56C664.986 480.56 668.469 477.077 668.469 472.781C668.469 468.485 664.986 465.002 660.69 465.002C656.394 465.002 652.911 468.485 652.911 472.781Z" fill="#E1E4E5"/>
<path d="M236.335 137.171C234.822 142.816 238.172 148.618 243.817 150.13C249.461 151.643 255.263 148.293 256.776 142.648C258.288 137.004 254.938 131.202 249.294 129.689C243.649 128.177 237.847 131.526 236.335 137.171Z" fill="#E1E4E5"/>
</g>
<defs>
<linearGradient id="paint0_linear_1235_22895" x1="515.099" y1="706.117" x2="300.802" y2="-260.718" gradientUnits="userSpaceOnUse">
<stop stop-color="white"/>
<stop offset="1" stop-color="#EEEEEE"/>
</linearGradient>
<linearGradient id="paint1_linear_1235_22895" x1="517.377" y1="296.133" x2="432.795" y2="-83.9419" gradientUnits="userSpaceOnUse">
<stop stop-color="white"/>
<stop offset="1" stop-color="#EEEEEE"/>
</linearGradient>
<linearGradient id="paint2_linear_1235_22895" x1="183.898" y1="383.484" x2="147.92" y2="258.368" gradientUnits="userSpaceOnUse">
<stop stop-color="white"/>
<stop offset="1" stop-color="#EEEEEE"/>
</linearGradient>
<linearGradient id="paint3_linear_1235_22895" x1="637.106" y1="111.55" x2="576.937" y2="169.387" gradientUnits="userSpaceOnUse">
<stop stop-color="white"/>
<stop offset="1" stop-color="#EEEEEE"/>
</linearGradient>
<linearGradient id="paint4_linear_1235_22895" x1="588.637" y1="229.619" x2="729.206" y2="228.315" gradientUnits="userSpaceOnUse">
<stop stop-color="white"/>
<stop offset="1" stop-color="#EEEEEE"/>
</linearGradient>
<clipPath id="clip0_1235_22895">
<rect width="900" height="600" fill="white"/>
</clipPath>
</defs>
</svg>
