<svg width="900" height="600" viewBox="0 0 900 600" fill="none" xmlns="http://www.w3.org/2000/svg">
<g clip-path="url(#clip0_1235_22914)">
<path d="M425.989 419.398L425.369 498.811M349.919 498.506H501.89" stroke="#E1E4E5" stroke-width="17.25" stroke-linecap="round" stroke-linejoin="round"/>
<path fill-rule="evenodd" clip-rule="evenodd" d="M577.525 437.289H274.284C240.795 437.289 213.65 410.144 213.65 376.655V167.749C213.65 134.26 240.795 107.115 274.284 107.115H577.501C611.014 107.115 638.159 134.26 638.159 167.749V376.631C638.159 410.144 611.014 437.289 577.525 437.289ZM738.914 535.281C704.813 535.281 676.912 507.38 676.912 473.279V411.277C676.912 377.175 704.813 349.274 738.914 349.274C773.015 349.274 800.916 377.175 800.916 411.277V473.279C800.916 507.38 773.015 535.281 738.914 535.281Z" fill="#4F27AA"/>
<path d="M738.914 400.943V431.944" stroke="white" stroke-width="13.25" stroke-linecap="round" stroke-linejoin="round"/>
<path d="M734.676 173.774C760.044 167.765 786.875 189.279 786.875 189.279C786.875 189.279 772.557 220.525 747.18 226.516C721.812 232.526 694.989 211.031 694.989 211.031C694.989 211.031 709.308 179.784 734.676 173.774Z" fill="url(#paint0_linear_1235_22914)"/>
<path d="M138.447 228.115C146.017 228.115 152.153 221.979 152.153 214.409C152.153 206.84 146.017 200.703 138.447 200.703C130.877 200.703 124.741 206.84 124.741 214.409C124.741 221.979 130.877 228.115 138.447 228.115Z" fill="#4F27AA"/>
<path d="M803.672 322.816C809.355 322.816 813.963 327.424 813.963 333.107C813.963 338.791 809.355 343.398 803.672 343.398C797.988 343.398 793.381 338.791 793.381 333.107C793.381 327.424 797.988 322.816 803.672 322.816Z" fill="#4F27AA"/>
<path d="M227.447 456.901C238.297 456.901 247.093 465.697 247.093 476.547C247.093 487.398 238.297 496.193 227.447 496.193C216.597 496.193 207.801 487.398 207.801 476.547C207.801 465.697 216.597 456.901 227.447 456.901Z" fill="#4F27AA"/>
<path d="M631.965 448C638.021 448 642.93 452.909 642.93 458.965C642.93 465.02 638.021 469.93 631.965 469.93C625.909 469.93 621 465.02 621 458.965C621 452.909 625.909 448 631.965 448Z" fill="#E1E4E5"/>
<path d="M557.583 479.13C562.75 479.13 566.938 483.318 566.938 488.485C566.938 493.651 562.75 497.84 557.583 497.84C552.416 497.84 548.228 493.651 548.228 488.485C548.228 483.318 552.416 479.13 557.583 479.13Z" fill="#E1E4E5"/>
<path d="M722.892 313.519C721.585 308.642 724.479 303.629 729.356 302.322C734.233 301.016 739.246 303.91 740.553 308.787C741.86 313.664 738.965 318.677 734.088 319.983C729.212 321.29 724.199 318.396 722.892 313.519Z" fill="#E1E4E5"/>
<path d="M675.036 107.115C681.753 107.115 687.198 112.561 687.198 119.277C687.198 125.994 681.753 131.439 675.036 131.439C668.319 131.439 662.874 125.994 662.874 119.277C662.874 112.561 668.319 107.115 675.036 107.115Z" fill="#E1E4E5"/>
<path d="M95.355 271.981C100.522 271.981 104.71 275.332 104.71 279.465C104.71 283.599 100.522 286.949 95.355 286.949C90.1884 286.949 86 283.599 86 279.465C86 275.332 90.1884 271.981 95.355 271.981Z" fill="#E1E4E5"/>
<path d="M224.147 84.9384C222.226 77.7691 226.481 70.4 233.65 68.479C240.82 66.558 248.189 70.8126 250.11 77.9818C252.031 85.1511 247.776 92.5202 240.607 94.4412C233.438 96.3622 226.068 92.1076 224.147 84.9384Z" fill="#E1E4E5"/>
<path d="M174.462 367.272H174.217C172.768 346.738 157.497 346.422 157.497 346.422C157.497 346.422 174.336 346.094 174.336 322.367C174.336 346.094 191.176 346.422 191.176 346.422C191.176 346.422 175.911 346.738 174.462 367.272ZM179.171 124.191H178.993C177.941 108.893 166.856 108.658 166.856 108.658C166.856 108.658 179.08 108.413 179.08 90.7363C179.08 108.413 191.304 108.658 191.304 108.658C191.304 108.658 180.223 108.893 179.171 124.191Z" fill="#E1E4E5"/>
<path fill-rule="evenodd" clip-rule="evenodd" d="M335.281 215.159V327.939C335.281 334.061 340.182 339.018 346.235 339.018H412.625L441.604 297.712C442.986 295.741 446.44 295.741 447.822 297.712L457.968 312.176L458.047 312.289L458.115 312.189L479.875 280.595C481.38 278.408 485.15 278.408 486.655 280.595L515.472 322.442V215.159C515.472 209.037 510.557 204.08 504.517 204.08H346.235C340.182 204.08 335.281 209.037 335.281 215.159Z" fill="white"/>
<path d="M386.097 280.894C375.526 280.894 366.957 272.324 366.957 261.754C366.957 251.184 375.526 242.615 386.097 242.615C396.667 242.615 405.236 251.184 405.236 261.754C405.236 272.324 396.667 280.894 386.097 280.894Z" fill="#4F27AA"/>
</g>
<defs>
<linearGradient id="paint0_linear_1235_22914" x1="830.206" y1="158.832" x2="608.133" y2="263.747" gradientUnits="userSpaceOnUse">
<stop stop-color="white"/>
<stop offset="1" stop-color="#EEEEEE"/>
</linearGradient>
<clipPath id="clip0_1235_22914">
<rect width="900" height="600" fill="white"/>
</clipPath>
</defs>
</svg>
