<svg width="900" height="600" viewBox="0 0 900 600" fill="none" xmlns="http://www.w3.org/2000/svg">
<g clip-path="url(#clip0_1235_22932)">
<path d="M644.803 362.291C644.803 362.291 627.13 373.856 612.187 372.672C597.245 371.487 587.923 356.641 582.92 351.251C577.92 345.861 565.318 332.839 569.099 327.378C572.879 321.916 576.24 327.798 577.5 331.578C578.761 335.359 577.521 327.823 579.403 328.23C581.281 328.638 580.533 333.213 582.378 334.708C584.222 336.199 611.528 350.482 617.409 349.642C623.29 348.802 625.865 347.189 627.52 345.475C629.171 343.757 646.991 358.557 644.803 362.291Z" fill="#F8AE9D"/>
<path d="M587.015 502.961L586.969 510.88L568.876 520.63V524.894H605.062V517.585L606.957 502.961H587.015Z" fill="#E1E4E5"/>
<path d="M677.78 406.361C677.78 406.361 627.827 389.288 604.756 392.065C582.033 396.686 581.861 424.093 581.945 440.216C582.029 456.339 584.705 502.969 584.705 502.969H610.103C610.103 502.969 619.19 461.031 622.223 441.249C622.223 441.249 623.471 432.394 630.154 435.754C657.519 449.516 674.709 443.316 677.83 430.293C680.951 417.27 677.78 406.361 677.78 406.361Z" fill="#2E2445"/>
<path d="M657.128 333.279C657.128 333.279 640.782 341.324 627.491 343.336C613.628 345.436 632.952 363.5 648.075 363.5C663.198 363.5 657.128 333.279 657.128 333.279Z" fill="#4F27AA"/>
<path d="M724.582 512.69L734.278 512.736L743.322 524.919H747.846V490.799H740.092L724.582 493.891V512.69Z" fill="#E1E4E5"/>
<path d="M724.611 513.471V492.467C704.115 490.367 696.1 490.119 674.574 490.018C659.115 489.947 667.135 485.746 667.135 485.746C684.064 473.983 701.443 445.417 701.443 445.417C711.689 429.454 705.9 404.668 705.9 404.668C705.9 404.668 687.185 410.13 671.146 409.289C671.146 409.289 653.771 430.714 623.47 477.764C611.364 496.563 612.75 517.185 635.489 518.269C635.489 518.269 690.302 518.933 724.611 513.471Z" fill="#2E2445"/>
<path d="M662.946 331.018C662.946 331.018 648.495 333.673 646.727 352.383C645.408 366.347 646.496 385.285 646.496 391.376C646.496 397.467 643.391 396.955 647.655 398.782C651.919 400.61 674.541 418.947 705.594 404.781C705.594 404.781 710.442 376.711 708.988 359.714C708.072 349.023 705.207 331.568 686.707 330.068L662.946 331.018Z" fill="#4F27AA"/>
<path d="M667.282 301.89L659.338 301.705C659.338 301.705 652.776 330.439 669.025 327.171L668.719 330.204C668.719 330.204 663.749 330.931 661.867 331.351C661.867 331.351 667.504 336.203 674.293 335.661C681.082 335.119 685.816 330.695 685.816 330.695L682.481 330.359L681.246 318.294C681.246 318.294 685.127 316.236 685.371 313.812C685.615 311.388 685.068 310.72 683.312 309.93C681.556 309.141 678.826 311.93 678.826 311.93C678.826 311.93 676.343 306.171 676.104 302.47L667.282 301.89Z" fill="#F8AE9D"/>
<path d="M590.943 317.289L711.416 416.371C713.344 417.954 714.571 420.233 714.83 422.713C715.09 425.194 714.361 427.677 712.803 429.625C711.233 431.586 708.95 432.845 706.453 433.125C703.956 433.404 701.451 432.682 699.486 431.117L577.08 333.253L590.943 317.289Z" fill="#2E2445"/>
<path d="M546.414 227.182C579.941 227.182 607.117 254.358 607.117 287.885C607.117 321.412 579.941 348.588 546.414 348.588C512.887 348.588 485.711 321.412 485.711 287.885C485.711 254.358 512.887 227.182 546.414 227.182ZM546.414 330.801C570.115 330.801 589.33 311.586 589.33 287.885C589.33 264.184 570.115 244.969 546.414 244.969C522.712 244.969 503.498 264.184 503.498 287.885C503.498 311.586 522.712 330.801 546.414 330.801Z" fill="#E1E4E5"/>
<path d="M692.273 397.158C692.273 397.158 674.6 408.723 659.657 407.539C644.715 406.354 635.393 391.508 630.39 386.118C625.391 380.729 612.788 367.706 616.569 362.245C620.35 356.784 623.71 362.665 624.971 366.446C626.231 370.226 624.992 362.69 626.874 363.098C628.751 363.505 628.004 368.08 629.848 369.575C631.692 371.067 658.998 385.35 664.879 384.509C670.76 383.669 673.335 382.056 674.991 380.342C676.642 378.624 694.462 393.424 692.273 397.158Z" fill="#F8AE9D"/>
<path d="M707.711 350.737C707.711 350.737 708.568 377.783 702.267 389.125C695.965 400.468 695.516 400.837 689.647 394.771C683.783 388.705 673.281 382.572 674.751 377.657C676.221 372.742 679.242 364.26 680.422 356.778C681.682 348.797 684.623 332.412 690.924 330.312C690.924 330.312 706.014 335.879 707.711 350.737Z" fill="#4F27AA"/>
<path d="M684.889 318.122C683.591 320.194 680.481 320.184 681.028 317.801C681.648 315.093 682.035 311.503 679.726 311.927C677.417 312.351 677.108 314.125 676.303 312.983C675.498 311.841 675.96 307.444 669.333 306.41C662.706 305.38 659.749 307.397 656.803 305.701C655.038 304.686 654.453 302.598 654.267 301.085C654.215 300.656 654.582 300.103 654.826 300.46C655.057 300.797 655.725 300.85 655.574 300.47C654.643 298.121 653.419 293.087 658.28 289.965C664.789 285.784 670.542 289.61 673.98 290.194C681.558 291.484 686.434 292.476 688.38 297.745C689.992 302.116 688.524 312.322 684.889 318.122Z" fill="#2E2445"/>
<path d="M207.338 328.273H207.337C180.977 328.273 159.609 349.642 159.609 376.001V376.002C159.609 402.362 180.977 423.73 207.337 423.73H207.338C233.697 423.73 255.066 402.362 255.066 376.002V376.001C255.066 349.642 233.697 328.273 207.338 328.273Z" fill="#4F27AA"/>
<path fill-rule="evenodd" clip-rule="evenodd" d="M229.03 396.024V399.215C229.03 400.977 227.619 402.407 225.881 402.407H188.087C186.349 402.407 184.938 400.977 184.938 399.215V395.973C184.938 386.315 195.829 380.041 206.984 380.041C218.139 380.041 229.03 386.319 229.03 395.973M214.889 352.004C219.256 356.371 219.256 363.452 214.889 367.819C210.521 372.186 203.441 372.186 199.074 367.819C194.707 363.452 194.707 356.371 199.074 352.004C203.441 347.637 210.521 347.637 214.889 352.004Z" fill="white"/>
<path d="M435.609 351.1H435.608C409.248 351.1 387.88 372.468 387.88 398.828V398.829C387.88 425.188 409.248 446.557 435.608 446.557H435.609C461.968 446.557 483.337 425.188 483.337 398.829V398.828C483.337 372.468 461.968 351.1 435.609 351.1Z" fill="#4F27AA"/>
<path fill-rule="evenodd" clip-rule="evenodd" d="M457.301 418.85V422.041C457.301 423.803 455.89 425.233 454.152 425.233H416.358C414.62 425.233 413.209 423.803 413.209 422.041V418.799C413.209 409.142 424.1 402.867 435.255 402.867C446.411 402.867 457.301 409.145 457.301 418.799M443.16 374.83C447.527 379.197 447.527 386.278 443.16 390.645C438.793 395.012 431.712 395.012 427.345 390.645C422.978 386.278 422.978 379.197 427.345 374.83C431.712 370.463 438.793 370.463 443.16 374.83Z" fill="white"/>
<path d="M339.953 232.615H339.952C313.593 232.615 292.224 253.984 292.224 280.343V280.344C292.224 306.704 313.593 328.072 339.952 328.072H339.953C366.313 328.072 387.681 306.704 387.681 280.344V280.343C387.681 253.984 366.313 232.615 339.953 232.615Z" fill="#4F27AA"/>
<path fill-rule="evenodd" clip-rule="evenodd" d="M361.645 300.366V303.558C361.645 305.319 360.234 306.749 358.495 306.749H320.702C318.963 306.749 317.552 305.319 317.552 303.558V300.315C317.552 290.658 328.443 284.383 339.599 284.383C350.754 284.383 361.645 290.661 361.645 300.315M347.503 256.346C351.87 260.713 351.87 267.794 347.503 272.161C343.136 276.528 336.055 276.528 331.688 272.161C327.321 267.794 327.321 260.713 331.688 256.346C336.055 251.979 343.136 251.979 347.503 256.346Z" fill="white"/>
<path d="M199.729 170.656H199.728C173.369 170.656 152 192.025 152 218.384V218.385C152 244.745 173.369 266.113 199.728 266.113H199.729C226.088 266.113 247.457 244.745 247.457 218.385V218.384C247.457 192.025 226.088 170.656 199.729 170.656Z" fill="#4F27AA"/>
<path fill-rule="evenodd" clip-rule="evenodd" d="M221.421 238.407V241.598C221.421 243.36 220.01 244.79 218.272 244.79H180.478C178.74 244.79 177.329 243.36 177.329 241.598V238.356C177.329 228.698 188.22 222.424 199.375 222.424C210.53 222.424 221.421 228.702 221.421 238.356M207.28 194.387C211.647 198.754 211.647 205.835 207.28 210.202C202.912 214.569 195.832 214.569 191.465 210.202C187.097 205.835 187.097 198.754 191.465 194.387C195.832 190.02 202.912 190.02 207.28 194.387Z" fill="white"/>
<path d="M329.083 75H329.082C302.723 75 281.354 96.3685 281.354 122.728V122.729C281.354 149.088 302.723 170.457 329.082 170.457H329.083C355.442 170.457 376.811 149.088 376.811 122.729V122.728C376.811 96.3685 355.442 75 329.083 75Z" fill="#4F27AA"/>
<path fill-rule="evenodd" clip-rule="evenodd" d="M350.775 142.75V145.942C350.775 147.703 349.364 149.133 347.625 149.133H309.832C308.093 149.133 306.682 147.703 306.682 145.942V142.699C306.682 133.042 317.573 126.767 328.729 126.767C339.884 126.767 350.775 133.045 350.775 142.699M336.633 98.7303C341 103.097 341 110.178 336.633 114.545C332.266 118.912 325.186 118.912 320.818 114.545C316.451 110.178 316.451 103.097 320.818 98.7303C325.186 94.3633 332.266 94.3633 336.633 98.7303Z" fill="white"/>
<path d="M456.263 128.264H456.262C429.903 128.264 408.534 149.632 408.534 175.992V175.993C408.534 202.352 429.903 223.721 456.262 223.721H456.263C482.623 223.721 503.991 202.352 503.991 175.993V175.992C503.991 149.632 482.623 128.264 456.263 128.264Z" fill="#4F27AA"/>
<path fill-rule="evenodd" clip-rule="evenodd" d="M477.955 196.015V199.206C477.955 200.968 476.544 202.397 474.805 202.397H437.012C435.273 202.397 433.862 200.968 433.862 199.206V195.964C433.862 186.306 444.753 180.032 455.909 180.032C467.064 180.032 477.955 186.309 477.955 195.964M463.813 151.995C468.18 156.362 468.18 163.442 463.813 167.81C459.446 172.177 452.365 172.177 447.998 167.81C443.631 163.442 443.631 156.362 447.998 151.995C452.365 147.627 459.446 147.627 463.813 151.995Z" fill="white"/>
<path d="M622.575 122.828H622.574C596.215 122.828 574.846 144.197 574.846 170.556V170.557C574.846 196.917 596.215 218.285 622.574 218.285H622.575C648.935 218.285 670.303 196.917 670.303 170.557V170.556C670.303 144.197 648.935 122.828 622.575 122.828Z" fill="#4F27AA"/>
<path fill-rule="evenodd" clip-rule="evenodd" d="M644.267 190.579V193.77C644.267 195.532 642.856 196.961 641.117 196.961H603.324C601.585 196.961 600.174 195.532 600.174 193.77V190.527C600.174 180.87 611.065 174.596 622.221 174.596C633.376 174.596 644.267 180.873 644.267 190.527M630.125 146.559C634.492 150.926 634.492 158.006 630.125 162.374C625.758 166.741 618.677 166.741 614.31 162.374C609.943 158.006 609.943 150.926 614.31 146.559C618.677 142.191 625.758 142.191 630.125 146.559Z" fill="white"/>
</g>
<defs>
<clipPath id="clip0_1235_22932">
<rect width="900" height="600" fill="white"/>
</clipPath>
</defs>
</svg>
