<svg width="900" height="600" viewBox="0 0 900 600" fill="none" xmlns="http://www.w3.org/2000/svg">
<g clip-path="url(#clip0_1235_18161)">
<path d="M309.087 85.7667C416.559 79.5287 529.236 112.016 512.674 159.11C496.11 206.204 601.224 142.384 643.17 159.363C673.035 171.45 661.097 208.25 675.544 223.078C708.669 257.074 742.55 214.264 784.71 239.951C826.87 265.638 740.553 505.382 696.508 506.72L194.15 503.668L158.1 500.428C158.1 500.428 58.3799 445.892 129.714 395.585C177.947 361.569 143.242 336.867 137.996 321.294C131.973 303.413 117.92 272.186 179.153 249.27C240.387 226.354 224.577 176.488 223.07 166.165C221.566 155.837 201.618 92.0037 309.087 85.7667Z" fill="url(#paint0_linear_1235_18161)"/>
<path fill-rule="evenodd" clip-rule="evenodd" d="M326.75 316.213C280.591 299.412 256.79 248.377 273.589 202.224C290.387 156.07 341.425 132.274 387.584 149.074C433.743 165.875 457.544 216.91 440.745 263.064C423.947 309.218 372.909 333.013 326.75 316.213Z" fill="#E1E4E5"/>
<path fill-rule="evenodd" clip-rule="evenodd" d="M333.997 295.843C298.995 283.104 280.947 244.405 293.685 209.408C306.423 174.41 345.124 156.366 380.125 169.106C415.127 181.845 433.175 220.544 420.437 255.542C407.699 290.539 368.998 308.583 333.997 295.843Z" fill="white"/>
<path d="M370.657 315.915C368.293 308.639 372.275 300.825 379.551 298.461C386.826 296.097 394.641 300.078 397.005 307.354L407.817 340.63L381.469 349.19L370.657 315.915Z" fill="#E1E4E5"/>
<path d="M405.127 331.54L376.915 340.706C373.601 341.783 371.787 345.343 372.864 348.657L413.779 474.58C414.856 477.894 418.415 479.708 421.73 478.631L449.942 469.465C453.256 468.388 455.07 464.828 453.993 461.514L413.078 335.591C412.002 332.277 408.442 330.463 405.127 331.54Z" fill="#2E2445"/>
<path fill-rule="evenodd" clip-rule="evenodd" d="M548.267 439.875L538.468 424.513C526.441 405.658 509.397 390.529 489.249 380.822L449.065 361.465C442.587 358.344 435.489 356.724 428.298 356.723H419.77L423.011 367.479L377.348 356.326C372.035 355.028 366.805 358.738 366.273 364.181C366.118 365.762 366.385 367.355 367.046 368.798C367.708 370.242 368.739 371.484 370.037 372.399L382.66 381.301C374.751 385.111 373.654 395.93 380.637 401.25L387.051 406.137C380.963 409.902 380.611 418.628 386.376 422.871L395.681 429.72C395.106 432.63 395.516 435.648 396.845 438.298C398.174 440.949 400.348 443.083 403.023 444.362L412.973 449.118C414.446 449.823 415.98 450.396 417.555 450.828L463.566 463.479L514.914 497.903L548.267 439.875Z" fill="#F8AE9D"/>
<path fill-rule="evenodd" clip-rule="evenodd" d="M633.334 506L522.033 399.424L445.408 476.678L476.153 506H633.334Z" fill="#4F27AA"/>
<path d="M525 425C521.686 425 519 427.686 519 431C519 434.314 521.686 437 525 437C528.314 437 531 434.314 531 431C531 427.686 528.314 425 525 425Z" fill="white"/>
<path d="M322.747 497.583C263.144 475.824 221.454 423.929 196.978 384.229C170.402 341.127 157.806 302.684 157.682 302.299L155.051 303.348C155.175 303.733 167.86 342.467 194.601 385.86C219.313 425.957 261.435 478.38 321.777 500.411L322.747 497.583Z" fill="#4F27AA"/>
<path d="M160.013 288.329C165.435 298.58 166.381 310.23 163.478 320.327C154.004 318.009 145.217 311.292 139.794 301.041C134.366 290.79 133.419 279.139 136.323 269.043C145.802 271.361 154.584 278.078 160.013 288.329ZM154.176 327.531C159.105 329.467 163.576 332.411 167.301 336.174C171.027 339.937 173.927 344.436 175.814 349.384C166.92 354.045 155.98 354.904 145.619 350.825C140.691 348.887 136.221 345.942 132.496 342.18C128.77 338.417 125.87 333.918 123.981 328.971C132.875 324.305 143.815 323.452 154.176 327.531ZM162.349 387.812C177.665 385.624 189.304 378.384 188.346 371.641C187.387 364.898 174.194 361.206 158.878 363.395C143.562 365.584 131.923 372.824 132.881 379.566C133.84 386.309 147.033 390.001 162.349 387.812ZM183.366 422.093C198.682 419.905 210.321 412.665 209.362 405.922C208.404 399.179 195.211 395.487 179.894 397.676C164.578 399.865 152.939 407.105 153.898 413.847C154.856 420.59 168.049 424.282 183.366 422.093Z" fill="#4F27AA"/>
<path d="M178.871 344.197C179.474 333.377 183.974 323.606 190.597 316.936C196.487 323.381 199.911 333.009 199.308 343.829C198.705 354.649 194.205 364.42 187.581 371.09C181.686 364.645 178.268 355.017 178.871 344.197ZM200.81 379.675C201.254 368.849 205.618 358.995 212.14 352.207C218.131 358.533 221.691 368.09 221.247 378.916C220.804 389.742 216.439 399.596 209.911 406.385C203.932 400.058 200.367 390.501 200.81 379.675ZM216.387 433.029C220.621 430.788 225.275 430.717 229.201 432.424C228.001 436.847 225.068 440.796 220.84 443.037C216.605 445.278 211.951 445.349 208.025 443.641C209.219 439.219 212.153 435.27 216.387 433.029ZM299.647 500.89C276.478 473.053 270.794 435.485 270.106 408.873C269.357 379.979 274.171 357.395 274.22 357.17L272.62 356.933C272.571 357.158 267.718 379.911 268.465 408.995C269.156 435.871 274.902 473.824 298.357 502.007L299.647 500.89Z" fill="#4F27AA"/>
<path d="M279.378 350.946C279.113 357.56 276.238 363.581 271.908 367.73C267.898 363.868 265.489 358.033 265.754 351.418C266.016 344.803 268.892 338.782 273.221 334.633C277.234 338.496 279.64 344.33 279.378 350.946ZM265.251 368.616C267.128 370.985 268.489 373.721 269.248 376.647C270.007 379.573 270.147 382.625 269.659 385.608C263.933 385.356 258.288 382.641 254.346 377.656C252.47 375.286 251.109 372.551 250.35 369.625C249.591 366.7 249.451 363.648 249.938 360.665C255.665 360.914 261.309 363.631 265.251 368.616ZM251.99 400.707C260.176 404.021 267.997 403.788 269.458 400.186C270.919 396.583 265.468 390.977 257.283 387.663C249.097 384.349 241.276 384.582 239.815 388.184C238.353 391.787 243.805 397.393 251.99 400.707ZM252.525 423.653C260.711 426.967 268.532 426.733 269.993 423.131C271.455 419.529 266.003 413.922 257.818 410.608C249.632 407.294 241.811 407.528 240.35 411.13C238.889 414.732 244.34 420.339 252.525 423.653Z" fill="#4F27AA"/>
<path d="M272.655 383.924C276.057 378.758 281.081 375.227 286.263 373.836C287.32 378.706 286.248 384.439 282.846 389.606C279.444 394.772 274.42 398.302 269.238 399.694C268.178 394.822 269.254 389.09 272.655 383.924ZM273.303 407.725C276.628 402.51 281.609 398.9 286.775 397.421C287.916 402.261 286.931 407.999 283.606 413.214C280.281 418.429 275.301 422.039 270.132 423.516C268.996 418.679 269.979 412.94 273.303 407.725ZM265.683 438.521C268.415 438.63 270.732 439.93 272.18 441.899C270.318 443.738 267.738 444.845 265.009 444.737C262.277 444.629 259.96 443.329 258.512 441.359C260.37 439.52 262.95 438.413 265.683 438.521Z" fill="#4F27AA"/>
<path d="M369.006 506.177C363.716 498.91 334.278 460.277 314.814 453.363C293.33 445.731 312.965 474.142 312.965 474.142C312.965 474.142 275.71 431.059 261.482 434.434C248.441 437.528 260.629 463.916 260.629 463.916C260.629 463.916 246.471 449.092 228.796 448.58C211.594 448.083 239.224 501.304 240.722 504.084L369.006 506.177ZM670.87 464.113C629.374 419.31 616.431 356.711 612.881 312.091C609.025 263.644 615.099 225.323 615.159 224.945L612.446 224.68C612.383 225.064 606.26 263.666 610.13 312.433C613.709 357.497 626.79 420.736 668.8 466.097L670.87 464.113Z" fill="#4F27AA"/>
<path d="M623.28 214.065C623.433 225.194 619.132 235.534 612.219 242.861C605.123 236.712 600.544 227.115 600.396 215.989C600.242 204.86 604.543 194.52 611.457 187.193C618.555 193.337 623.126 202.937 623.28 214.065ZM601.094 244.903C604.463 248.716 606.999 253.19 608.539 258.039C610.08 262.887 610.591 268.005 610.04 273.062C600.38 273.117 590.636 269.03 583.553 260.989C576.47 252.948 573.525 242.627 574.605 232.835C584.267 232.776 594.011 236.862 601.094 244.903ZM581.653 299.89C595.728 304.772 608.869 303.728 611.005 297.559C613.141 291.389 603.462 282.43 589.388 277.549C575.313 272.667 562.171 273.711 560.035 279.881C557.9 286.05 567.578 295.009 581.653 299.89ZM584.618 338.362C598.693 343.244 611.834 342.2 613.97 336.031C616.106 329.861 606.428 320.902 592.353 316.021C578.278 311.139 565.137 312.183 563.001 318.353C560.865 324.522 570.543 333.481 584.618 338.362Z" fill="#4F27AA"/>
<path d="M614.93 269.992C620.191 261.035 628.329 254.69 636.925 251.922C639.143 260.01 637.853 269.725 632.591 278.682C627.33 287.639 619.192 293.985 610.596 296.752C608.374 288.662 609.669 278.949 614.93 269.992ZM618.162 309.892C623.289 300.86 631.347 294.384 639.909 291.471C642.264 299.502 641.122 309.216 635.995 318.249C630.868 327.281 622.81 333.757 614.243 336.668C611.895 328.647 613.032 318.93 618.162 309.892ZM608.104 362.231C612.712 362.186 616.729 364.176 619.342 367.361C616.375 370.602 612.132 372.675 607.528 372.723C602.92 372.768 598.904 370.779 596.29 367.593C599.252 364.35 603.496 362.276 608.104 362.231ZM634.758 438.501C634.758 438.501 612.294 388.842 619.803 377.762C630.182 362.448 643.087 409.438 643.718 405.307C649.662 366.303 648.417 317.111 676.22 309.657C692.023 305.42 675.176 346.396 677.137 356.954C679.098 367.511 705.39 329.819 721.581 309.875C737.771 289.934 747.686 300.936 738.302 325.129C729.227 348.523 696.347 375.936 703.707 378.282C711.067 380.627 752.336 348.038 758.555 360.048C766.182 374.774 702.609 400.769 708.988 403.703C715.368 406.636 745.65 392.849 745.65 404.578C745.65 416.307 703.802 419.241 704.891 424.313C706.654 432.525 732.94 411.499 734.993 422.895C737.092 434.549 699.309 435.433 700.628 444.55C701.387 449.788 710.903 444.306 712.624 451.508C716.549 467.93 657.007 490.945 657.007 490.945L634.758 438.501Z" fill="#4F27AA"/>
<path d="M578.898 445.786C566.555 451.556 569.886 465.887 569.886 465.887C569.886 465.887 536.423 439.808 523.911 455.029C511.399 470.251 517.976 500.084 532.649 504.936C547.321 509.785 674.948 506.386 674.948 506.386C674.948 506.386 590 440.597 578.898 445.786Z" fill="#2E2445"/>
<path d="M635.094 504.994C635.094 504.994 674.293 454.771 690.677 447.074C708.137 438.873 692.998 467.289 692.998 467.289C692.998 467.289 730.33 430.688 739.099 439.827C747.868 448.965 738.504 457.517 738.504 457.517C738.504 457.517 769.764 451.719 774.324 463.409C781.328 481.369 729.911 490.3 729.911 490.3C729.911 490.3 754.543 484.905 749.614 496.024C742.184 512.789 635.094 504.994 635.094 504.994Z" fill="#4F27AA"/>
<path d="M674.948 506.261C674.948 506.261 612.487 510.668 600.324 499.506C588.157 488.344 600.226 468.121 600.226 468.121C600.226 468.121 578.792 451.212 579.125 440.171C579.458 429.13 593.422 434.733 593.422 434.733C593.422 434.733 569.757 404.321 575.367 398.535C585.823 387.764 613.184 419.375 613.184 419.375C613.184 419.375 605.065 404.337 613.63 401.95C626.549 398.348 636.054 435.436 636.054 435.436C636.054 435.436 633.643 420.789 642.549 422.735C658.533 426.224 674.948 506.261 674.948 506.261Z" fill="#4F27AA"/>
<path d="M218.632 270.093C223.859 270.093 228.097 274.331 228.097 279.558C228.097 284.786 223.859 289.023 218.632 289.023C213.405 289.023 209.167 284.786 209.167 279.558C209.167 274.331 213.405 270.093 218.632 270.093Z" fill="#4F27AA"/>
<path d="M398.468 113.396C395.564 113.396 393.21 115.75 393.21 118.654C393.21 121.558 395.564 123.912 398.468 123.912C401.372 123.912 403.726 121.558 403.726 118.654C403.726 115.75 401.372 113.396 398.468 113.396Z" fill="#E1E4E5"/>
<path d="M648.766 158.617C645.862 158.617 643.508 160.971 643.508 163.875C643.508 166.779 645.862 169.133 648.766 169.133C651.67 169.133 654.024 166.779 654.024 163.875C654.024 160.971 651.67 158.617 648.766 158.617Z" fill="#E1E4E5"/>
<path d="M193.918 185.96C191.304 185.96 189.185 188.079 189.185 190.693C189.185 193.307 191.304 195.426 193.918 195.426C196.532 195.426 198.651 193.307 198.651 190.693C198.651 188.079 196.532 185.96 193.918 185.96Z" fill="#E1E4E5"/>
<path d="M517.141 126C525.779 128.315 530.905 137.193 528.59 145.831C526.276 154.469 517.397 159.595 508.759 157.281C500.122 154.966 494.995 146.087 497.31 137.45C499.624 128.812 508.503 123.686 517.141 126Z" fill="#4F27AA"/>
</g>
<defs>
<linearGradient id="paint0_linear_1235_18161" x1="464.755" y1="743.161" x2="456.829" y2="-373.855" gradientUnits="userSpaceOnUse">
<stop stop-color="white"/>
<stop offset="1" stop-color="#EEEEEE"/>
</linearGradient>
<clipPath id="clip0_1235_18161">
<rect width="900" height="600" fill="white"/>
</clipPath>
</defs>
</svg>
