<svg width="900" height="600" viewBox="0 0 900 600" fill="none" xmlns="http://www.w3.org/2000/svg">
<g clip-path="url(#clip0_1235_23052)">
<path d="M636.203 157.932H239.526C221.562 157.932 207 172.494 207 190.458V392.522C207 410.485 221.562 425.048 239.526 425.048H636.203C654.167 425.048 668.729 410.485 668.729 392.522V190.458C668.729 172.494 654.167 157.932 636.203 157.932Z" fill="#4F27AA"/>
<path d="M601.672 232.344H504.247M601.672 282.699H504.247M458.271 232.344H261.232M458.271 282.699H261.232M458.271 327.581H261.232" stroke="white" stroke-width="22.309" stroke-miterlimit="10" stroke-linecap="round" stroke-linejoin="round"/>
<path fill-rule="evenodd" clip-rule="evenodd" d="M551.054 334.152C546.101 330.367 540.038 328.32 533.804 328.33C518.085 328.33 505.342 341.073 505.342 356.791C505.342 372.51 518.085 385.253 533.804 385.253C539.774 385.262 545.595 383.385 550.435 379.89C544.551 374.17 540.895 366.169 540.895 357.314C540.895 348.152 544.808 339.905 551.054 334.152Z" fill="white"/>
<path d="M575.238 384.978C591.044 384.978 603.857 372.165 603.857 356.359C603.857 340.553 591.044 327.74 575.238 327.74C559.432 327.74 546.619 340.553 546.619 356.359C546.619 372.165 559.432 384.978 575.238 384.978Z" fill="white"/>
<path d="M501.136 445.514C506.745 484.192 479.9 520.093 441.115 525.729C402.357 531.365 366.377 504.573 360.74 465.895C355.131 427.243 382.003 391.317 420.761 385.68C459.546 380.044 495.527 406.836 501.136 445.514Z" fill="url(#paint0_linear_1235_23052)"/>
<path d="M484.441 447.945C488.714 477.407 468.253 504.787 438.711 509.087C409.168 513.361 381.735 492.953 377.461 463.491C373.187 434.001 393.648 406.622 423.191 402.348C452.734 398.047 480.14 418.455 484.441 447.945Z" fill="white"/>
<path d="M441.456 486.385L443.009 495.772L434.381 497.12L432.882 487.977C424.254 488.813 415.653 487.491 410.326 484.605L413.378 473.654C418.205 476.082 424.781 477.377 431.079 476.999L428.776 463C418.843 462.218 407.634 460.789 405.664 448.813C404.194 439.939 409.577 431.281 422.95 427.64L421.424 418.334L430.052 416.986L431.551 426.129C438.099 425.617 444.674 426.318 449.89 428.503L447.282 439.481C442.482 437.727 437.766 436.999 433.382 437.161L435.74 451.402C445.673 452.077 456.688 453.56 458.63 465.374C460.045 474.113 454.746 482.69 441.456 486.385ZM426.751 450.674L424.781 438.779C420.369 440.506 418.982 443.203 419.426 445.981C419.925 448.894 422.755 450.108 426.751 450.674ZM444.896 468.584C444.424 465.644 441.65 464.457 437.738 463.756L439.652 475.327C443.814 473.735 445.34 471.254 444.896 468.584Z" fill="#E1E4E5"/>
<path d="M284.136 438.514C289.745 477.192 262.9 513.093 224.115 518.729C185.357 524.365 149.377 497.573 143.74 458.895C138.131 420.243 165.003 384.317 203.761 378.68C242.546 373.044 278.527 399.836 284.136 438.514Z" fill="url(#paint1_linear_1235_23052)"/>
<path d="M267.441 440.945C271.714 470.407 251.253 497.787 221.711 502.087C192.168 506.361 164.735 485.953 160.461 456.491C156.187 427.001 176.648 399.622 206.191 395.348C235.734 391.047 263.14 411.455 267.441 440.945Z" fill="white"/>
<path d="M224.456 479.385L226.009 488.772L217.381 490.12L215.882 480.977C207.254 481.813 198.653 480.491 193.326 477.605L196.378 466.654C201.205 469.082 207.781 470.377 214.079 469.999L211.776 456C201.843 455.218 190.634 453.789 188.664 441.813C187.194 432.939 192.577 424.281 205.95 420.64L204.424 411.334L213.052 409.986L214.551 419.129C221.099 418.617 227.674 419.318 232.89 421.503L230.282 432.481C225.482 430.727 220.766 429.999 216.382 430.161L218.74 444.402C228.673 445.077 239.688 446.56 241.63 458.374C243.045 467.113 237.746 475.69 224.456 479.385ZM209.751 443.674L207.781 431.779C203.369 433.506 201.982 436.203 202.426 438.981C202.925 441.894 205.755 443.108 209.751 443.674ZM227.896 461.584C227.424 458.644 224.65 457.457 220.738 456.756L222.652 468.327C226.814 466.735 228.34 464.254 227.896 461.584Z" fill="#E1E4E5"/>
<path d="M758.136 445.514C763.745 484.192 736.9 520.093 698.115 525.729C659.357 531.365 623.377 504.573 617.74 465.895C612.131 427.243 639.003 391.317 677.761 385.68C716.546 380.044 752.527 406.836 758.136 445.514Z" fill="url(#paint2_linear_1235_23052)"/>
<path d="M741.441 447.945C745.714 477.407 725.253 504.787 695.711 509.087C666.168 513.361 638.735 492.953 634.461 463.491C630.187 434.001 650.648 406.622 680.191 402.348C709.734 398.047 737.14 418.455 741.441 447.945Z" fill="white"/>
<path d="M698.456 486.385L700.009 495.772L691.381 497.12L689.882 487.977C681.254 488.813 672.653 487.491 667.326 484.605L670.378 473.654C675.205 476.082 681.781 477.377 688.079 476.999L685.776 463C675.843 462.218 664.634 460.789 662.664 448.813C661.194 439.939 666.577 431.281 679.95 427.64L678.424 418.334L687.052 416.986L688.551 426.129C695.099 425.617 701.674 426.318 706.89 428.503L704.282 439.481C699.482 437.727 694.766 436.999 690.382 437.161L692.74 451.402C702.673 452.077 713.688 453.56 715.63 465.374C717.045 474.113 711.746 482.69 698.456 486.385ZM683.751 450.674L681.781 438.779C677.369 440.506 675.982 443.203 676.426 445.981C676.925 448.894 679.755 450.108 683.751 450.674ZM701.896 468.584C701.424 465.644 698.65 464.457 694.738 463.756L696.652 475.327C700.814 473.735 702.34 471.254 701.896 468.584Z" fill="#E1E4E5"/>
<path fill-rule="evenodd" clip-rule="evenodd" d="M118.967 126.229H123.471C124.561 126.229 125.438 127.115 125.438 128.195V132.7C125.437 133.221 125.23 133.721 124.861 134.09C124.492 134.458 123.992 134.665 123.471 134.666H118.967C118.446 134.664 117.947 134.456 117.579 134.088C117.21 133.72 117.002 133.221 117 132.7V128.195C116.999 127.936 117.05 127.68 117.149 127.441C117.247 127.203 117.392 126.986 117.575 126.803C117.758 126.62 117.975 126.475 118.214 126.377C118.453 126.278 118.709 126.228 118.967 126.229ZM134.585 126.229H139.09C140.17 126.229 141.056 127.115 141.056 128.195V132.7C141.055 133.221 140.848 133.721 140.48 134.089C140.111 134.458 139.611 134.665 139.09 134.666H134.585C134.064 134.664 133.565 134.456 133.197 134.088C132.829 133.719 132.621 133.22 132.619 132.7V128.195C132.619 127.115 133.505 126.229 134.585 126.229ZM150.214 126.229H154.719C155.799 126.229 156.686 127.115 156.686 128.195V132.7C156.685 133.221 156.478 133.721 156.109 134.089C155.74 134.458 155.24 134.665 154.719 134.666H150.214C149.693 134.664 149.194 134.456 148.826 134.088C148.458 133.719 148.25 133.22 148.248 132.7V128.195C148.247 127.936 148.298 127.68 148.397 127.442C148.495 127.203 148.64 126.986 148.823 126.803C149.005 126.621 149.222 126.476 149.461 126.377C149.7 126.279 149.956 126.228 150.214 126.229ZM165.833 126.229H170.338C171.418 126.229 172.304 127.115 172.304 128.195V132.7C172.303 133.221 172.096 133.721 171.728 134.089C171.359 134.458 170.859 134.665 170.338 134.666H165.833C165.311 134.666 164.81 134.459 164.44 134.09C164.07 133.722 163.86 133.222 163.858 132.7V128.195C163.864 127.673 164.074 127.175 164.443 126.807C164.813 126.44 165.312 126.232 165.833 126.229ZM181.453 126.228H185.958C187.047 126.228 187.934 127.114 187.934 128.195V132.699C187.934 132.958 187.882 133.214 187.783 133.453C187.683 133.692 187.537 133.909 187.354 134.092C187.17 134.275 186.953 134.419 186.713 134.518C186.474 134.616 186.217 134.666 185.958 134.666H181.453C180.932 134.664 180.433 134.456 180.065 134.087C179.697 133.719 179.489 133.22 179.487 132.699V128.195C179.487 127.114 180.373 126.228 181.453 126.228ZM135.158 143.26H139.663C140.743 143.26 141.629 144.147 141.629 145.227V149.741C141.629 150.821 140.743 151.707 139.663 151.707H135.158C134.637 151.706 134.137 151.499 133.768 151.131C133.399 150.762 133.192 150.262 133.191 149.741V145.236C133.19 144.976 133.239 144.72 133.338 144.48C133.436 144.24 133.581 144.022 133.763 143.838C133.946 143.655 134.164 143.509 134.403 143.41C134.642 143.31 134.899 143.259 135.158 143.26ZM150.777 143.26H155.282C156.362 143.26 157.248 144.147 157.248 145.227V149.741C157.248 150.821 156.362 151.707 155.282 151.707H150.777C150.256 151.705 149.757 151.497 149.389 151.129C149.02 150.761 148.812 150.262 148.81 149.741V145.236C148.809 144.976 148.858 144.72 148.957 144.48C149.055 144.24 149.2 144.022 149.382 143.838C149.565 143.655 149.783 143.509 150.022 143.41C150.261 143.31 150.518 143.259 150.777 143.26ZM166.397 143.26H170.902C171.991 143.26 172.877 144.147 172.877 145.227V149.741C172.877 150.821 171.991 151.707 170.902 151.707H166.397C165.876 151.705 165.377 151.497 165.009 151.129C164.641 150.76 164.433 150.261 164.431 149.741V145.236C164.431 144.147 165.317 143.26 166.397 143.26ZM150.214 107.932H154.719C155.799 107.932 156.686 108.818 156.686 109.898V114.403C156.685 114.924 156.478 115.424 156.109 115.792C155.74 116.161 155.24 116.368 154.719 116.369H150.214C149.693 116.367 149.194 116.159 148.826 115.791C148.458 115.422 148.25 114.923 148.248 114.403V109.898C148.247 109.639 148.298 109.383 148.397 109.145C148.495 108.906 148.64 108.689 148.823 108.506C149.005 108.324 149.222 108.179 149.461 108.08C149.7 107.982 149.956 107.931 150.214 107.932ZM165.833 107.932H170.338C171.418 107.932 172.304 108.818 172.304 109.898V114.403C172.303 114.924 172.096 115.424 171.728 115.792C171.359 116.161 170.859 116.368 170.338 116.369H165.833C165.311 116.369 164.81 116.162 164.44 115.793C164.07 115.425 163.86 114.925 163.858 114.403V109.898C163.864 109.376 164.074 108.878 164.443 108.51C164.813 108.143 165.312 107.935 165.833 107.932ZM690.967 152.229H695.471C696.561 152.229 697.438 153.115 697.438 154.195V158.7C697.437 159.221 697.23 159.721 696.861 160.09C696.492 160.458 695.992 160.665 695.471 160.666H690.967C690.446 160.664 689.947 160.456 689.578 160.088C689.21 159.72 689.002 159.221 689 158.7V154.195C688.999 153.936 689.05 153.68 689.149 153.441C689.247 153.203 689.392 152.986 689.575 152.803C689.758 152.62 689.975 152.475 690.214 152.377C690.453 152.278 690.709 152.228 690.967 152.229ZM706.585 152.229H711.09C712.17 152.229 713.056 153.115 713.056 154.195V158.7C713.055 159.221 712.848 159.721 712.48 160.089C712.111 160.458 711.611 160.665 711.09 160.666H706.585C706.064 160.664 705.565 160.456 705.197 160.088C704.829 159.719 704.621 159.22 704.619 158.7V154.195C704.619 153.115 705.505 152.229 706.585 152.229ZM722.214 152.229H726.719C727.799 152.229 728.686 153.115 728.686 154.195V158.7C728.685 159.221 728.478 159.721 728.109 160.089C727.74 160.458 727.24 160.665 726.719 160.666H722.214C721.693 160.664 721.194 160.456 720.826 160.088C720.458 159.719 720.25 159.22 720.248 158.7V154.195C720.247 153.936 720.298 153.68 720.397 153.442C720.495 153.203 720.64 152.986 720.823 152.803C721.005 152.621 721.222 152.476 721.461 152.377C721.7 152.279 721.956 152.228 722.214 152.229ZM737.833 152.229H742.338C743.418 152.229 744.304 153.115 744.304 154.195V158.7C744.303 159.221 744.096 159.721 743.728 160.089C743.359 160.458 742.859 160.665 742.338 160.666H737.833C737.311 160.666 736.81 160.459 736.44 160.09C736.07 159.722 735.86 159.222 735.858 158.7V154.195C735.863 153.673 736.074 153.175 736.443 152.807C736.812 152.44 737.312 152.232 737.833 152.229ZM753.453 152.228H757.958C759.047 152.228 759.934 153.114 759.934 154.195V158.699C759.934 158.958 759.882 159.214 759.783 159.453C759.683 159.692 759.537 159.909 759.354 160.092C759.17 160.275 758.953 160.419 758.713 160.518C758.474 160.616 758.217 160.666 757.958 160.666H753.453C752.932 160.664 752.433 160.456 752.065 160.087C751.697 159.719 751.489 159.22 751.487 158.699V154.195C751.487 153.114 752.373 152.228 753.453 152.228ZM707.158 169.26H711.663C712.743 169.26 713.629 170.147 713.629 171.227V175.741C713.629 176.821 712.743 177.707 711.663 177.707H707.158C706.637 177.706 706.137 177.499 705.768 177.131C705.399 176.762 705.192 176.262 705.191 175.741V171.236C705.19 170.976 705.239 170.72 705.338 170.48C705.436 170.24 705.581 170.022 705.763 169.838C705.946 169.655 706.164 169.509 706.403 169.41C706.642 169.31 706.899 169.259 707.158 169.26ZM722.777 169.26H727.282C728.362 169.26 729.248 170.147 729.248 171.227V175.741C729.248 176.821 728.362 177.707 727.282 177.707H722.777C722.256 177.705 721.757 177.497 721.388 177.129C721.02 176.761 720.812 176.262 720.81 175.741V171.236C720.809 170.976 720.858 170.72 720.957 170.48C721.055 170.24 721.2 170.022 721.382 169.838C721.565 169.655 721.782 169.509 722.022 169.41C722.261 169.31 722.518 169.259 722.777 169.26ZM738.397 169.26H742.902C743.991 169.26 744.877 170.147 744.877 171.227V175.741C744.877 176.821 743.991 177.707 742.902 177.707H738.397C737.876 177.705 737.377 177.497 737.009 177.129C736.641 176.76 736.433 176.261 736.431 175.741V171.236C736.431 170.147 737.317 169.26 738.397 169.26ZM722.214 133.932H726.719C727.799 133.932 728.686 134.818 728.686 135.898V140.403C728.685 140.924 728.478 141.424 728.109 141.792C727.74 142.161 727.24 142.368 726.719 142.369H722.214C721.693 142.367 721.194 142.159 720.826 141.791C720.458 141.422 720.25 140.923 720.248 140.403V135.898C720.247 135.639 720.298 135.383 720.397 135.145C720.495 134.906 720.64 134.689 720.823 134.506C721.005 134.324 721.222 134.179 721.461 134.08C721.7 133.982 721.956 133.931 722.214 133.932ZM737.833 133.932H742.338C743.418 133.932 744.304 134.818 744.304 135.898V140.403C744.303 140.924 744.096 141.424 743.728 141.792C743.359 142.161 742.859 142.368 742.338 142.369H737.833C737.311 142.369 736.81 142.162 736.44 141.793C736.07 141.425 735.86 140.925 735.858 140.403V135.898C735.863 135.376 736.074 134.878 736.443 134.51C736.812 134.143 737.312 133.935 737.833 133.932Z" fill="#E1E4E5"/>
<path d="M731.687 272.086C716.108 275.776 699.632 262.565 699.632 262.565C699.632 262.565 708.424 243.377 724.008 239.698C739.586 236.007 756.058 249.207 756.058 249.207C756.058 249.207 747.265 268.395 731.687 272.086Z" fill="url(#paint3_linear_1235_23052)"/>
<path d="M538.506 127.432C549.312 134.875 565.821 129.672 565.821 129.672C565.821 129.672 564.799 112.403 553.985 104.967C543.179 97.523 526.677 102.719 526.677 102.719C526.677 102.719 527.699 119.988 538.506 127.432Z" fill="url(#paint4_linear_1235_23052)"/>
<path d="M140.847 243.03C153.935 256.351 178.41 253.542 178.41 253.542C178.41 253.542 181.648 229.136 168.548 215.823C155.46 202.502 130.998 205.302 130.998 205.302C130.998 205.302 127.759 229.709 140.847 243.03Z" fill="url(#paint5_linear_1235_23052)"/>
<path d="M584.836 174.869C581.317 174.869 578.465 177.483 578.465 180.709C578.465 183.934 581.317 186.549 584.836 186.549C588.355 186.549 591.207 183.934 591.207 180.709C591.207 177.483 588.355 174.869 584.836 174.869Z" fill="#4F27AA"/>
<path d="M134.963 300.933C130.565 300.933 127 304.26 127 308.365C127 312.469 130.565 315.797 134.963 315.797C139.361 315.797 142.926 312.469 142.926 308.365C142.926 304.26 139.361 300.933 134.963 300.933Z" fill="#4F27AA"/>
<path d="M737.575 362.082C730.63 362.082 725 356.452 725 349.507C725 342.562 730.63 336.932 737.575 336.932C744.52 336.932 750.15 342.562 750.15 349.507C750.15 356.452 744.52 362.082 737.575 362.082Z" fill="#E1E4E5"/>
<path d="M458.432 131.858C454.327 131.858 451 128.292 451 123.895C451 119.497 454.327 115.932 458.432 115.932C462.537 115.932 465.864 119.497 465.864 123.895C465.864 128.292 462.537 131.858 458.432 131.858Z" fill="#E1E4E5"/>
<path d="M401.295 374.776C397.696 374.776 394.778 371.858 394.778 368.259C394.778 364.66 397.696 361.742 401.295 361.742C404.894 361.742 407.812 364.66 407.812 368.259C407.812 371.858 404.894 374.776 401.295 374.776Z" fill="#E1E4E5"/>
<path d="M705.209 93.894C699.715 93.894 695.262 89.4406 695.262 83.947C695.262 78.4534 699.715 74 705.209 74C710.703 74 715.156 78.4534 715.156 83.947C715.156 89.4406 710.703 93.894 705.209 93.894Z" fill="#E1E4E5"/>
<path d="M300.728 80.2857C301.658 83.7564 299.599 87.3239 296.128 88.2539C292.657 89.1839 289.09 87.1242 288.16 83.6535C287.23 80.1827 289.289 76.6152 292.76 75.6853C296.231 74.7553 299.798 76.815 300.728 80.2857Z" fill="#E1E4E5"/>
<path d="M632.904 230.117C629.227 230.117 626.246 227.732 626.246 224.79C626.246 221.848 629.227 219.463 632.904 219.463C636.581 219.463 639.562 221.848 639.562 224.79C639.562 227.732 636.581 230.117 632.904 230.117Z" fill="#E1E4E5"/>
<path d="M644.895 110H645.07C646.101 124.614 656.97 124.839 656.97 124.839C656.97 124.839 644.985 125.073 644.985 141.96C644.985 125.073 633 124.839 633 124.839C633 124.839 643.864 124.614 644.895 110ZM360.729 114.348H360.868C361.691 126.486 370.357 126.673 370.357 126.673C370.357 126.673 360.801 126.867 360.801 140.892C360.801 126.867 351.245 126.673 351.245 126.673C351.245 126.673 359.907 126.486 360.729 114.348Z" fill="#E1E4E5"/>
</g>
<defs>
<linearGradient id="paint0_linear_1235_23052" x1="433.964" y1="605.836" x2="429.609" y2="230.954" gradientUnits="userSpaceOnUse">
<stop stop-color="white"/>
<stop offset="1" stop-color="#EEEEEE"/>
</linearGradient>
<linearGradient id="paint1_linear_1235_23052" x1="216.964" y1="598.836" x2="212.609" y2="223.954" gradientUnits="userSpaceOnUse">
<stop stop-color="white"/>
<stop offset="1" stop-color="#EEEEEE"/>
</linearGradient>
<linearGradient id="paint2_linear_1235_23052" x1="690.964" y1="605.836" x2="686.609" y2="230.954" gradientUnits="userSpaceOnUse">
<stop stop-color="white"/>
<stop offset="1" stop-color="#EEEEEE"/>
</linearGradient>
<linearGradient id="paint3_linear_1235_23052" x1="673.023" y1="281.262" x2="809.395" y2="216.835" gradientUnits="userSpaceOnUse">
<stop stop-color="white"/>
<stop offset="1" stop-color="#EEEEEE"/>
</linearGradient>
<linearGradient id="paint4_linear_1235_23052" x1="580.601" y1="151.854" x2="495.536" y2="62.156" gradientUnits="userSpaceOnUse">
<stop stop-color="white"/>
<stop offset="1" stop-color="#EEEEEE"/>
</linearGradient>
<linearGradient id="paint5_linear_1235_23052" x1="193.066" y1="288.531" x2="98.447" y2="140.207" gradientUnits="userSpaceOnUse">
<stop stop-color="white"/>
<stop offset="1" stop-color="#EEEEEE"/>
</linearGradient>
<clipPath id="clip0_1235_23052">
<rect width="900" height="600" fill="white"/>
</clipPath>
</defs>
</svg>
