<svg width="900" height="600" viewBox="0 0 900 600" fill="none" xmlns="http://www.w3.org/2000/svg">
<g clip-path="url(#clip0_1235_23080)">
<path fill-rule="evenodd" clip-rule="evenodd" d="M542.366 165.998H348.036C339.592 165.998 332.606 172.536 332.045 180.948L319.29 372.169C318.057 390.66 332.734 406.347 351.273 406.347H539.129C557.668 406.347 572.346 390.66 571.112 372.169L558.357 180.948C557.796 172.536 550.81 165.998 542.366 165.998Z" fill="#4F27AA" stroke="#4F27AA" stroke-width="22.252" stroke-linecap="round" stroke-linejoin="round"/>
<path fill-rule="evenodd" clip-rule="evenodd" d="M423.966 323.843C422.73 324.487 421.338 324.773 419.948 324.667C418.558 324.561 417.226 324.068 416.101 323.244C414.977 322.42 414.106 321.297 413.587 320.003C413.068 318.71 412.921 317.296 413.164 315.924L417.19 292.858L400.243 276.622C399.228 275.654 398.505 274.42 398.16 273.06C397.814 271.701 397.858 270.271 398.288 268.936C398.718 267.601 399.515 266.414 400.589 265.511C401.662 264.608 402.969 264.027 404.358 263.833L427.887 260.47L438.51 239.285C439.128 238.039 440.081 236.991 441.262 236.258C442.444 235.525 443.807 235.137 445.197 235.137C446.587 235.137 447.95 235.525 449.132 236.258C450.313 236.991 451.266 238.039 451.884 239.285L462.507 260.47L486.036 263.833C487.425 264.028 488.73 264.61 489.803 265.513C490.876 266.416 491.673 267.603 492.102 268.937C492.532 270.272 492.577 271.701 492.232 273.06C491.886 274.419 491.165 275.654 490.151 276.622L473.204 292.858L477.229 315.929C477.472 317.301 477.325 318.715 476.806 320.008C476.287 321.302 475.416 322.425 474.292 323.249C473.167 324.073 471.835 324.566 470.445 324.672C469.055 324.778 467.663 324.492 466.427 323.848L445.197 312.879L423.966 323.843Z" fill="white"/>
<path d="M493.283 195.313V131.22C493.283 104.67 471.764 83.1504 445.213 83.1504H445.197C418.647 83.1504 397.127 104.67 397.127 131.22V195.313" stroke="#4F27AA" stroke-width="22.252" stroke-linecap="round" stroke-linejoin="round"/>
<path d="M186.743 394.228C184.352 393.048 182.847 390.454 183.05 387.867C183.259 385.071 185.169 382.654 187.874 381.873C188.617 381.658 189.405 381.58 190.181 381.496C194.827 380.969 199.48 380.527 204.048 379.44C206.068 378.952 208.056 379.279 209.848 380.42C212.219 381.932 213.274 384.154 212.98 386.891C212.679 389.641 211.069 391.524 208.476 392.507C207.988 392.69 207.48 392.818 206.964 392.891C201.633 393.678 196.309 394.55 190.926 394.952C189.453 395.063 188.059 394.886 186.743 394.228ZM208.228 413.222C207.231 415.281 205.53 416.662 203.405 417.196C198.179 418.491 192.9 419.695 187.498 419.909C182.565 420.096 179.275 415.469 180.893 410.869C181.819 408.236 183.852 406.745 186.57 406.459C190.076 406.095 193.478 405.32 196.938 404.754C198.039 404.572 199.062 404.188 200.112 403.849C202.771 402.997 205.566 403.825 207.351 405.924C209.084 407.964 209.422 410.805 208.228 413.222ZM223.494 399.451C224.374 397.659 225.795 396.513 227.692 395.946C230.553 395.081 233.453 394.397 236.379 393.825C237.715 393.564 238.992 393.193 240.23 392.575C241.116 392.13 242.084 391.872 243.074 391.818C244.064 391.764 245.055 391.914 245.984 392.26C246.914 392.606 247.762 393.139 248.476 393.827C249.19 394.515 249.754 395.343 250.134 396.259C251.684 400 249.826 404.105 245.896 405.576C245.355 405.778 244.788 405.967 244.214 406.071C239.874 406.832 235.573 407.809 231.285 408.824C228.626 409.449 226.261 408.836 224.411 406.737C222.606 404.677 222.275 401.92 223.494 399.451ZM231.009 417.614C233.869 419.127 234.996 421.434 235.034 424.288C235.072 427.11 233.788 429.286 231.305 430.667C230.399 431.175 229.408 431.526 228.405 431.774C224.866 432.626 221.347 433.505 217.808 434.358C215.553 434.891 213.396 434.643 211.533 433.157C209.487 431.514 208.608 429.331 209.085 426.751C209.581 424.033 211.263 422.203 213.915 421.395C215.968 420.777 218.047 420.269 220.145 419.788C221.729 419.423 223.208 418.974 224.596 417.99C226.656 416.512 228.963 416.623 231.009 417.614ZM273.083 425.029C272.379 426.469 271.323 427.603 269.856 428.287C269.029 428.671 268.188 429.016 267.315 429.231C264.356 429.966 261.423 430.78 258.491 431.594C254.046 432.824 249.981 429.975 249.741 425.57C249.592 422.807 251.144 420.325 253.855 419.074C255.869 418.143 258.013 417.603 260.157 417.095C261.304 416.822 262.366 416.457 263.389 415.845C266.159 414.184 269.28 414.589 271.632 416.792C273.86 418.884 274.452 422.228 273.083 425.029ZM147.893 389.257C148.675 387.824 149.725 386.801 151.12 386.163C152.071 385.727 153.062 385.408 154.104 385.31C156.874 385.05 159.657 384.699 162.439 384.576C167.483 384.363 170.916 388.834 169.324 393.545C168.496 396.014 166.645 397.467 164.11 397.974C163.295 398.137 162.435 398.13 161.601 398.234C159.353 398.494 157.085 398.598 154.837 398.956C152.178 399.385 149.969 398.394 148.419 396.184C146.849 393.981 146.817 391.603 147.893 389.257ZM226.372 362.113C229.017 363.469 230.411 365.893 230.208 368.578C229.986 371.465 228.467 373.393 225.808 374.441C225.215 374.682 224.556 374.858 223.924 374.884C221.455 375.001 218.998 375.091 216.535 375.097C215.147 375.103 213.857 374.653 212.703 373.832C210.423 372.169 209.401 369.458 210.066 366.793C210.751 364.089 212.883 362.011 215.62 361.751C218.324 361.491 221.061 361.492 223.778 361.434C224.689 361.417 225.586 361.652 226.372 362.113ZM340.554 467.122C338.635 466.175 337.428 464.094 337.591 462.018C337.759 459.775 339.291 457.836 341.461 457.209C342.057 457.037 342.69 456.974 343.312 456.906C347.04 456.484 350.773 456.13 354.438 455.257C356.059 454.866 357.654 455.128 359.091 456.043C360.994 457.257 361.84 459.04 361.604 461.235C361.363 463.442 360.071 464.952 357.99 465.741C357.598 465.887 357.191 465.991 356.777 466.049C352.5 466.681 348.229 467.38 343.91 467.703C342.728 467.791 341.61 467.65 340.554 467.122ZM357.792 482.362C356.992 484.014 355.627 485.122 353.922 485.55C349.729 486.589 345.494 487.555 341.16 487.727C337.202 487.877 334.563 484.164 335.86 480.473C336.603 478.361 338.235 477.165 340.415 476.935C343.228 476.643 345.957 476.022 348.734 475.568C349.617 475.422 350.438 475.113 351.28 474.842C353.413 474.158 355.656 474.822 357.088 476.506C358.478 478.143 358.75 480.423 357.792 482.362ZM370.04 471.313C370.747 469.875 371.887 468.955 373.408 468.501C375.704 467.806 378.03 467.258 380.378 466.799C381.45 466.59 382.475 466.292 383.468 465.796C384.179 465.439 384.956 465.232 385.75 465.189C386.544 465.146 387.339 465.266 388.085 465.544C388.83 465.821 389.511 466.249 390.083 466.801C390.656 467.353 391.109 468.017 391.414 468.752C392.658 471.753 391.167 475.047 388.014 476.227C387.577 476.399 387.126 476.532 386.665 476.624C383.182 477.235 379.732 478.018 376.291 478.833C374.158 479.334 372.26 478.842 370.776 477.158C369.328 475.506 369.062 473.294 370.04 471.313ZM376.069 485.885C378.364 487.099 379.268 488.95 379.299 491.24C379.33 493.504 378.299 495.25 376.307 496.357C375.58 496.765 374.785 497.047 373.98 497.246C371.141 497.93 368.317 498.635 365.478 499.319C363.669 499.747 361.939 499.548 360.444 498.355C358.802 497.037 358.097 495.286 358.479 493.215C358.877 491.035 360.227 489.566 362.355 488.919C364.002 488.423 365.67 488.015 367.353 487.629C368.624 487.336 369.811 486.976 370.925 486.187C372.577 485.001 374.428 485.09 376.069 485.885ZM409.826 491.835C409.261 492.99 408.414 493.9 407.238 494.448C406.573 494.757 405.899 495.033 405.198 495.206C402.825 495.796 400.472 496.449 398.119 497.102C394.553 498.089 391.291 495.803 391.099 492.269C390.979 490.052 392.224 488.06 394.399 487.057C396.015 486.31 397.735 485.876 399.455 485.469C400.376 485.25 401.228 484.957 402.049 484.466C404.271 483.133 406.775 483.458 408.662 485.226C410.45 486.905 410.925 489.587 409.826 491.835ZM309.384 463.134C310.012 461.984 310.854 461.163 311.973 460.651C312.736 460.301 313.531 460.045 314.368 459.967C316.59 459.758 318.822 459.477 321.055 459.378C325.101 459.207 327.856 462.794 326.579 466.574C325.914 468.555 324.429 469.721 322.395 470.128C321.742 470.258 321.052 470.253 320.382 470.336C318.578 470.545 316.759 470.628 314.955 470.915C312.822 471.259 311.05 470.464 309.806 468.692C308.546 466.924 308.521 465.016 309.384 463.134ZM372.349 441.355C374.472 442.443 375.59 444.389 375.427 446.543C375.249 448.859 374.03 450.406 371.897 451.247C371.421 451.44 370.893 451.581 370.386 451.602C368.404 451.696 366.433 451.768 364.457 451.773C363.343 451.778 362.308 451.417 361.383 450.758C359.553 449.424 358.733 447.249 359.267 445.111C359.817 442.941 361.527 441.274 363.723 441.065C365.892 440.857 368.088 440.857 370.268 440.811C370.999 440.797 371.719 440.985 372.349 441.355ZM517.661 461.449C515.561 460.413 514.24 458.135 514.418 455.863C514.602 453.409 516.279 451.286 518.654 450.6C519.307 450.412 519.999 450.343 520.68 450.269C524.76 449.807 528.846 449.419 532.857 448.464C534.631 448.036 536.376 448.322 537.949 449.324C540.032 450.652 540.958 452.604 540.7 455.007C540.436 457.421 539.022 459.075 536.745 459.938C536.321 460.098 535.863 460.213 535.417 460.275C530.736 460.966 526.061 461.732 521.335 462.085C520.041 462.182 518.817 462.027 517.661 461.449ZM536.528 478.128C535.652 479.936 534.158 481.148 532.292 481.617C527.703 482.754 523.068 483.812 518.324 483.999C513.992 484.164 511.104 480.1 512.524 476.061C513.337 473.749 515.123 472.44 517.509 472.189C520.588 471.869 523.575 471.189 526.613 470.692C527.581 470.532 528.479 470.195 529.4 469.897C531.735 469.149 534.19 469.876 535.757 471.719C537.279 473.51 537.575 476.005 536.528 478.128ZM549.932 466.036C550.705 464.462 551.953 463.456 553.618 462.958C556.13 462.198 558.677 461.598 561.246 461.095C562.419 460.867 563.541 460.541 564.628 459.997C565.406 459.606 566.256 459.38 567.126 459.333C567.995 459.285 568.865 459.417 569.681 459.721C570.497 460.025 571.242 460.493 571.869 461.097C572.496 461.702 572.992 462.429 573.325 463.233C574.686 466.518 573.054 470.122 569.603 471.414C569.125 471.602 568.631 471.747 568.127 471.849C564.316 472.517 560.539 473.374 556.773 474.266C554.439 474.815 552.362 474.276 550.737 472.433C549.153 470.625 548.862 468.204 549.932 466.036ZM556.531 481.985C559.042 483.313 560.032 485.339 560.065 487.845C560.099 490.323 558.971 492.234 556.791 493.446C555.995 493.892 555.125 494.201 554.244 494.418C551.137 495.167 548.047 495.939 544.939 496.687C542.959 497.156 541.066 496.938 539.429 495.633C537.633 494.19 536.861 492.273 537.279 490.007C537.715 487.621 539.192 486.014 541.521 485.305C543.324 484.762 545.149 484.316 546.992 483.893C548.382 483.573 549.681 483.179 550.9 482.315C552.709 481.017 554.734 481.115 556.531 481.985ZM593.476 488.496C592.858 489.761 591.93 490.756 590.643 491.356C589.916 491.694 589.178 491.997 588.411 492.185C585.813 492.831 583.238 493.546 580.663 494.26C576.76 495.341 573.19 492.839 572.979 488.971C572.849 486.545 574.211 484.365 576.592 483.267C578.36 482.449 580.243 481.975 582.125 481.529C583.133 481.289 584.065 480.969 584.964 480.431C587.396 478.973 590.137 479.329 592.202 481.263C594.158 483.101 594.678 486.036 593.476 488.496ZM483.547 457.085C484.234 455.826 485.156 454.928 486.38 454.368C487.216 453.984 488.086 453.704 489.001 453.619C491.433 453.39 493.877 453.082 496.32 452.974C500.749 452.787 503.763 456.713 502.366 460.849C501.639 463.018 500.013 464.293 497.787 464.739C497.072 464.882 496.317 464.876 495.584 464.967C493.61 465.196 491.619 465.287 489.645 465.601C487.31 465.978 485.37 465.108 484.009 463.167C482.631 461.233 482.603 459.144 483.547 457.085ZM552.459 433.248C554.782 434.439 556.006 436.568 555.828 438.926C555.632 441.461 554.299 443.154 551.964 444.074C551.443 444.286 550.865 444.44 550.31 444.463C548.141 444.565 545.984 444.645 543.821 444.65C542.602 444.655 541.47 444.26 540.457 443.539C538.455 442.079 537.557 439.699 538.141 437.358C538.743 434.984 540.614 433.159 543.018 432.931C545.393 432.703 547.796 432.704 550.182 432.653C550.981 432.637 551.769 432.843 552.459 433.248ZM653.967 386.672C651.576 385.491 650.071 382.897 650.274 380.31C650.484 377.515 652.394 375.098 655.098 374.317C655.841 374.102 656.63 374.024 657.405 373.939C662.051 373.413 666.704 372.971 671.273 371.884C673.293 371.396 675.28 371.723 677.072 372.863C679.443 374.376 680.498 376.598 680.204 379.335C679.904 382.085 678.294 383.968 675.7 384.951C675.211 385.133 674.704 385.262 674.188 385.335C668.857 386.122 663.533 386.994 658.151 387.396C656.678 387.506 655.283 387.33 653.967 386.672ZM675.453 405.666C674.455 407.725 672.754 409.106 670.629 409.64C665.403 410.935 660.124 412.139 654.722 412.353C649.789 412.54 646.5 407.913 648.117 403.312C649.043 400.68 651.077 399.188 653.794 398.902C657.3 398.539 660.702 397.764 664.162 397.198C665.264 397.016 666.287 396.632 667.336 396.293C669.995 395.44 672.79 396.269 674.575 398.368C676.308 400.408 676.646 403.249 675.453 405.666ZM690.718 391.895C691.599 390.103 693.02 388.957 694.916 388.39C697.777 387.524 700.677 386.841 703.603 386.268C704.939 386.008 706.216 385.637 707.455 385.018C708.341 384.573 709.309 384.316 710.299 384.262C711.289 384.208 712.28 384.359 713.209 384.704C714.139 385.05 714.986 385.584 715.7 386.271C716.414 386.959 716.979 387.787 717.359 388.703C718.908 392.444 717.05 396.549 713.12 398.02C712.579 398.222 712.012 398.411 711.439 398.515C707.099 399.276 702.798 400.252 698.509 401.268C695.851 401.893 693.485 401.279 691.635 399.181C689.831 397.121 689.499 394.364 690.718 391.895ZM698.233 410.058C701.093 411.571 702.22 413.878 702.258 416.732C702.297 419.554 701.012 421.73 698.529 423.111C697.623 423.619 696.633 423.97 695.629 424.218C692.09 425.07 688.571 425.949 685.032 426.802C682.778 427.335 680.621 427.087 678.758 425.601C676.712 423.958 675.833 421.775 676.309 419.194C676.805 416.477 678.487 414.647 681.139 413.839C683.192 413.221 685.271 412.713 687.37 412.232C688.953 411.867 690.433 411.418 691.821 410.434C693.88 408.956 696.187 409.067 698.233 410.058ZM740.307 417.473C739.603 418.913 738.547 420.047 737.081 420.73C736.253 421.115 735.412 421.46 734.539 421.675C731.58 422.41 728.648 423.224 725.715 424.037C721.27 425.268 717.205 422.419 716.965 418.014C716.816 415.251 718.368 412.768 721.079 411.518C723.093 410.587 725.237 410.047 727.381 409.539C728.528 409.266 729.59 408.901 730.613 408.289C733.383 406.628 736.505 407.033 738.856 409.236C741.084 411.328 741.676 414.671 740.307 417.473ZM615.117 381.701C615.9 380.268 616.949 379.245 618.344 378.607C619.296 378.17 620.286 377.851 621.329 377.754C624.098 377.494 626.881 377.143 629.663 377.02C634.707 376.806 638.14 381.278 636.549 385.989C635.72 388.458 633.869 389.911 631.334 390.418C630.52 390.581 629.66 390.574 628.825 390.678C626.577 390.938 624.309 391.042 622.061 391.4C619.402 391.829 617.194 390.838 615.643 388.628C614.073 386.425 614.042 384.047 615.117 381.701ZM693.596 354.556C696.241 355.913 697.635 358.337 697.432 361.022C697.21 363.909 695.691 365.837 693.032 366.885C692.439 367.126 691.781 367.302 691.149 367.328C688.679 367.444 686.222 367.535 683.759 367.541C682.371 367.547 681.081 367.097 679.928 366.276C677.647 364.613 676.625 361.902 677.291 359.237C677.976 356.533 680.107 354.455 682.844 354.195C685.548 353.935 688.285 353.936 691.003 353.878C691.913 353.861 692.811 354.096 693.596 354.556Z" fill="#E1E4E5"/>
<path d="M660.161 371.932C659.63 370.322 658.518 369.028 657.671 367.601C651.398 356.863 646.021 345.71 641.905 333.944C639.399 326.791 636.926 319.621 635.25 312.219C633.773 305.713 632.495 299.174 631.831 292.519C631.483 289.067 631.151 285.632 631.034 282.163C630.968 280.305 630.653 278.446 630.802 276.587C631.084 273.201 630.985 269.782 631.881 266.463C632.047 265.849 632.213 265.219 632.462 264.638C633.872 261.235 637.042 260.555 639.731 263.028C641.025 264.223 641.955 265.683 642.818 267.193C646.817 274.18 650.137 281.499 653.074 288.984C657.588 300.469 661.655 312.119 665.438 323.853C666.119 325.977 666.783 328.118 667.745 330.226C667.745 329.081 667.911 327.902 667.712 326.791C667.397 325.181 667.496 323.587 667.397 321.994C666.783 312.103 666.866 302.195 667.115 292.287C667.214 288.337 667.579 284.354 668.044 280.404C668.359 277.732 668.592 275.043 668.957 272.388C670.036 264.704 671.098 257.003 673.969 249.718C674.533 248.274 675.28 246.913 676.375 245.801C678.583 243.527 681.321 243.693 683.329 246.183C685.271 248.589 686.217 251.477 687.047 254.381C688.076 258.032 688.607 261.767 689.088 265.534C689.901 271.907 690.084 278.313 690.316 284.736C690.466 289.101 690.632 293.482 690.499 297.847C690.349 302.726 690.366 307.622 690.1 312.501C689.835 317.38 689.669 322.243 689.42 327.122C689.42 327.255 689.453 327.371 689.503 327.67C690.167 326.591 690.25 325.479 690.499 324.45C693.569 311.489 697.502 298.793 702.697 286.528C705.917 278.944 709.485 271.525 714.414 264.853C716.405 262.148 718.53 259.559 721.467 257.833C723.027 256.92 724.67 256.207 726.579 256.705C728.571 257.219 729.732 258.58 730.429 260.422C731.425 263.061 731.674 265.816 731.442 268.571C731.08 272.916 730.476 277.238 729.633 281.516C728.089 289.349 725.799 296.967 722.994 304.435C717.816 318.26 711.875 331.803 706.182 345.445C705.933 346.026 705.535 346.573 705.668 347.27C705.469 347.303 705.369 347.42 705.369 347.602C705.369 347.652 705.485 347.702 705.552 347.752C705.601 347.586 705.635 347.436 705.684 347.27C706.78 346.507 707.294 345.279 708.008 344.25C711.908 338.657 715.924 333.163 720.339 327.969C724.637 322.924 729.102 318.028 734.794 314.476C736.819 313.215 738.893 312.053 741.399 312.07C744.237 312.086 746.163 313.364 747.059 316.103C747.64 317.878 747.789 319.671 747.573 321.579C746.843 327.886 744.221 333.412 740.885 338.64C736.238 345.909 730.861 352.614 725.102 359.037C719.326 365.476 712.787 371.053 706.033 376.397C700.042 381.143 694.15 386.022 688.225 390.835C686.632 392.13 685.005 393.391 683.296 394.536C681.587 395.698 679.761 395.98 677.803 395.433C670.002 393.209 662.335 390.703 655.149 386.852C649.523 383.832 644.295 380.247 639.366 376.181C634.636 372.297 630.088 368.231 625.923 363.75C622.255 359.784 618.803 355.635 616.297 350.805C615.5 349.278 615.135 347.685 615.301 345.976C615.467 344.25 616.778 342.789 618.504 342.623C619.965 342.491 621.442 342.507 622.886 342.972C626.753 344.217 630.006 346.523 633.092 349.046C639.947 354.672 646.751 360.348 653.257 366.373C655.182 368.165 657.19 369.874 659.165 371.617C659.414 371.833 659.663 372.032 659.995 372.065C660.078 372.364 660.194 372.613 660.526 372.712C660.543 372.762 660.559 372.812 660.592 372.845C660.609 372.862 660.659 372.862 660.692 372.862C660.626 372.812 660.559 372.779 660.493 372.729C660.576 372.414 660.46 372.148 660.161 371.932ZM629.685 479.848C629.441 479.107 628.928 478.51 628.538 477.853C625.648 472.906 623.171 467.768 621.275 462.347C620.12 459.051 618.981 455.748 618.209 452.338C617.528 449.341 616.939 446.328 616.634 443.262C616.473 441.672 616.32 440.089 616.267 438.491C616.236 437.635 616.091 436.778 616.159 435.922C616.289 434.362 616.244 432.787 616.656 431.258C616.733 430.975 616.809 430.685 616.924 430.417C617.574 428.849 619.034 428.536 620.273 429.675C620.869 430.226 621.298 430.899 621.695 431.594C623.538 434.813 625.067 438.185 626.42 441.634C628.5 446.925 630.373 452.292 632.117 457.698C632.43 458.677 632.736 459.663 633.179 460.634C633.179 460.106 633.256 459.563 633.164 459.051C633.019 458.31 633.065 457.575 633.019 456.841C632.736 452.284 632.774 447.72 632.889 443.155C632.935 441.335 633.103 439.5 633.317 437.681C633.462 436.45 633.569 435.211 633.738 433.988C634.235 430.447 634.724 426.9 636.047 423.543C636.307 422.878 636.651 422.251 637.155 421.739C638.172 420.691 639.434 420.768 640.359 421.915C641.254 423.023 641.689 424.354 642.072 425.692C642.546 427.374 642.79 429.094 643.012 430.83C643.387 433.766 643.471 436.717 643.578 439.676C643.647 441.687 643.723 443.706 643.662 445.717C643.593 447.964 643.601 450.22 643.479 452.468C643.356 454.716 643.28 456.956 643.165 459.204C643.165 459.265 643.18 459.319 643.203 459.456C643.509 458.959 643.547 458.447 643.662 457.973C645.077 452.002 646.889 446.152 649.282 440.502C650.765 437.008 652.409 433.59 654.68 430.516C655.598 429.27 656.576 428.077 657.93 427.282C658.648 426.862 659.405 426.533 660.285 426.762C661.202 426.999 661.737 427.626 662.058 428.475C662.517 429.691 662.632 430.96 662.525 432.229C662.358 434.231 662.08 436.222 661.691 438.193C660.98 441.802 659.925 445.311 658.633 448.752C656.247 455.121 653.51 461.36 650.888 467.645C650.773 467.913 650.589 468.165 650.651 468.486C650.559 468.502 650.513 468.555 650.513 468.639C650.513 468.662 650.566 468.685 650.597 468.708C650.62 468.632 650.635 468.563 650.658 468.486C651.163 468.135 651.4 467.569 651.729 467.095C653.525 464.518 655.376 461.987 657.41 459.594C659.39 457.27 661.447 455.014 664.069 453.378C665.002 452.797 665.958 452.262 667.112 452.269C668.42 452.277 669.307 452.866 669.72 454.127C669.987 454.945 670.056 455.771 669.957 456.65C669.62 459.556 668.412 462.102 666.875 464.51C664.734 467.859 662.257 470.948 659.604 473.907C656.943 476.874 653.931 479.443 650.819 481.905C648.059 484.092 645.344 486.34 642.615 488.557C641.885 489.159 641.127 489.728 640.344 490.262C639.556 490.797 638.715 490.927 637.813 490.675C634.219 489.65 630.687 488.496 627.376 486.722C624.784 485.33 622.376 483.679 620.105 481.806C617.926 480.016 615.831 478.143 613.912 476.079C612.222 474.251 610.631 472.34 609.477 470.115C609.11 469.411 608.942 468.677 609.018 467.89C609.095 467.095 609.699 466.422 610.494 466.345C611.167 466.284 611.847 466.292 612.512 466.506C614.294 467.079 615.792 468.142 617.215 469.304C620.372 471.896 623.507 474.511 626.504 477.287C627.391 478.113 628.317 478.9 629.226 479.703C629.341 479.802 629.456 479.894 629.609 479.909C629.647 480.047 629.701 480.162 629.853 480.208C629.859 480.23 629.869 480.251 629.884 480.269C629.892 480.276 629.915 480.276 629.93 480.276C629.899 480.254 629.869 480.238 629.838 480.215C629.876 480.07 629.823 479.948 629.685 479.848ZM432.685 494.848C432.441 494.107 431.928 493.51 431.538 492.853C428.648 487.906 426.171 482.768 424.275 477.347C423.12 474.051 421.981 470.748 421.209 467.338C420.528 464.341 419.939 461.328 419.634 458.262C419.473 456.672 419.32 455.089 419.267 453.491C419.236 452.635 419.091 451.778 419.159 450.922C419.289 449.362 419.244 447.787 419.656 446.258C419.733 445.975 419.809 445.685 419.924 445.417C420.574 443.849 422.034 443.536 423.273 444.675C423.869 445.226 424.298 445.899 424.695 446.594C426.538 449.813 428.067 453.185 429.42 456.634C431.5 461.925 433.373 467.292 435.117 472.698C435.43 473.677 435.736 474.663 436.179 475.634C436.179 475.106 436.256 474.563 436.164 474.051C436.019 473.31 436.065 472.575 436.019 471.841C435.736 467.284 435.774 462.72 435.889 458.155C435.935 456.335 436.103 454.5 436.317 452.681C436.462 451.45 436.569 450.211 436.738 448.988C437.235 445.447 437.724 441.9 439.047 438.543C439.307 437.878 439.651 437.251 440.155 436.739C441.172 435.691 442.434 435.768 443.359 436.915C444.254 438.023 444.689 439.354 445.072 440.692C445.546 442.374 445.79 444.094 446.012 445.83C446.387 448.766 446.471 451.717 446.578 454.676C446.647 456.687 446.723 458.706 446.662 460.717C446.593 462.964 446.601 465.22 446.479 467.468C446.356 469.716 446.28 471.956 446.165 474.204C446.165 474.265 446.18 474.319 446.203 474.456C446.509 473.959 446.547 473.447 446.662 472.973C448.077 467.002 449.889 461.152 452.282 455.502C453.765 452.008 455.409 448.59 457.68 445.516C458.598 444.27 459.576 443.077 460.93 442.282C461.648 441.862 462.405 441.533 463.285 441.762C464.202 441.999 464.737 442.626 465.058 443.475C465.517 444.691 465.632 445.96 465.525 447.229C465.358 449.231 465.08 451.222 464.691 453.193C463.98 456.802 462.925 460.311 461.633 463.752C459.247 470.121 456.51 476.36 453.888 482.645C453.773 482.913 453.589 483.165 453.651 483.486C453.559 483.502 453.513 483.555 453.513 483.639C453.513 483.662 453.566 483.685 453.597 483.708C453.62 483.632 453.635 483.563 453.658 483.486C454.163 483.135 454.4 482.569 454.729 482.095C456.525 479.518 458.376 476.987 460.41 474.594C462.39 472.27 464.447 470.014 467.069 468.378C468.002 467.797 468.958 467.262 470.112 467.269C471.42 467.277 472.307 467.866 472.72 469.127C472.987 469.945 473.056 470.771 472.957 471.65C472.62 474.556 471.412 477.102 469.875 479.51C467.734 482.859 465.257 485.948 462.604 488.907C459.943 491.874 456.931 494.443 453.819 496.905C451.059 499.092 448.344 501.34 445.615 503.557C444.885 504.159 444.127 504.728 443.344 505.262C442.556 505.797 441.715 505.927 440.813 505.675C437.219 504.65 433.687 503.496 430.376 501.722C427.784 500.33 425.376 498.679 423.105 496.806C420.926 495.016 418.831 493.143 416.912 491.079C415.222 489.251 413.631 487.34 412.477 485.115C412.11 484.411 411.942 483.677 412.018 482.89C412.095 482.095 412.699 481.422 413.494 481.345C414.167 481.284 414.847 481.292 415.512 481.506C417.294 482.079 418.792 483.142 420.215 484.304C423.372 486.896 426.507 489.511 429.504 492.287C430.391 493.113 431.317 493.9 432.226 494.703C432.341 494.802 432.456 494.894 432.609 494.909C432.647 495.047 432.701 495.162 432.853 495.208C432.859 495.23 432.869 495.251 432.884 495.269C432.892 495.276 432.915 495.276 432.93 495.276C432.899 495.254 432.869 495.238 432.838 495.215C432.876 495.07 432.823 494.948 432.685 494.848ZM257.685 490.848C257.441 490.107 256.928 489.51 256.538 488.853C253.648 483.906 251.171 478.768 249.275 473.347C248.12 470.051 246.981 466.748 246.209 463.338C245.528 460.341 244.939 457.328 244.634 454.262C244.473 452.672 244.32 451.089 244.267 449.491C244.236 448.635 244.091 447.778 244.159 446.922C244.289 445.362 244.244 443.787 244.656 442.258C244.733 441.975 244.809 441.685 244.924 441.417C245.574 439.849 247.034 439.536 248.273 440.675C248.869 441.226 249.298 441.899 249.695 442.594C251.538 445.813 253.067 449.185 254.42 452.634C256.5 457.925 258.373 463.292 260.117 468.698C260.43 469.677 260.736 470.663 261.179 471.634C261.179 471.106 261.256 470.563 261.164 470.051C261.019 469.31 261.065 468.575 261.019 467.841C260.736 463.284 260.774 458.72 260.889 454.155C260.935 452.335 261.103 450.5 261.317 448.681C261.462 447.45 261.569 446.211 261.738 444.988C262.235 441.447 262.724 437.9 264.047 434.543C264.307 433.878 264.651 433.251 265.155 432.739C266.172 431.691 267.434 431.768 268.359 432.915C269.254 434.023 269.689 435.354 270.072 436.692C270.546 438.374 270.79 440.094 271.012 441.83C271.387 444.766 271.471 447.717 271.578 450.676C271.647 452.687 271.723 454.706 271.662 456.717C271.593 458.964 271.601 461.22 271.479 463.468C271.356 465.716 271.28 467.956 271.165 470.204C271.165 470.265 271.18 470.319 271.203 470.456C271.509 469.959 271.547 469.447 271.662 468.973C273.077 463.002 274.889 457.152 277.282 451.502C278.765 448.008 280.409 444.59 282.68 441.516C283.598 440.27 284.576 439.077 285.93 438.282C286.648 437.862 287.405 437.533 288.285 437.762C289.202 437.999 289.737 438.626 290.058 439.475C290.517 440.691 290.632 441.96 290.525 443.229C290.358 445.231 290.08 447.222 289.691 449.193C288.98 452.802 287.925 456.311 286.633 459.752C284.247 466.121 281.51 472.36 278.888 478.645C278.773 478.913 278.589 479.165 278.651 479.486C278.559 479.502 278.513 479.555 278.513 479.639C278.513 479.662 278.566 479.685 278.597 479.708C278.62 479.632 278.635 479.563 278.658 479.486C279.163 479.135 279.4 478.569 279.729 478.095C281.525 475.518 283.376 472.987 285.41 470.594C287.39 468.27 289.447 466.014 292.069 464.378C293.002 463.797 293.958 463.262 295.112 463.269C296.42 463.277 297.307 463.866 297.72 465.127C297.987 465.945 298.056 466.771 297.957 467.65C297.62 470.556 296.412 473.102 294.875 475.51C292.734 478.859 290.257 481.948 287.604 484.907C284.943 487.874 281.931 490.443 278.819 492.905C276.059 495.092 273.344 497.34 270.615 499.557C269.885 500.159 269.127 500.728 268.344 501.262C267.556 501.797 266.715 501.927 265.813 501.675C262.219 500.65 258.687 499.496 255.376 497.722C252.784 496.33 250.376 494.679 248.105 492.806C245.926 491.016 243.831 489.143 241.912 487.079C240.222 485.251 238.631 483.34 237.477 481.115C237.11 480.411 236.942 479.677 237.018 478.89C237.095 478.095 237.699 477.422 238.494 477.345C239.167 477.284 239.847 477.292 240.512 477.506C242.294 478.079 243.792 479.142 245.215 480.304C248.372 482.896 251.507 485.511 254.504 488.287C255.391 489.113 256.317 489.9 257.226 490.703C257.341 490.802 257.456 490.894 257.609 490.909C257.647 491.047 257.701 491.162 257.853 491.208C257.859 491.23 257.869 491.251 257.884 491.269C257.892 491.276 257.915 491.276 257.93 491.276C257.899 491.254 257.869 491.238 257.838 491.215C257.876 491.07 257.823 490.948 257.685 490.848ZM201.752 371.932C201.221 370.322 200.109 369.028 199.262 367.601C192.989 356.863 187.612 345.71 183.496 333.944C180.99 326.791 178.517 319.621 176.841 312.219C175.364 305.713 174.086 299.174 173.422 292.519C173.074 289.067 172.742 285.632 172.626 282.163C172.559 280.305 172.244 278.446 172.393 276.587C172.675 273.201 172.576 269.782 173.472 266.463C173.638 265.849 173.804 265.219 174.053 264.638C175.463 261.235 178.633 260.555 181.322 263.028C182.616 264.223 183.546 265.683 184.409 267.193C188.409 274.18 191.728 281.499 194.665 288.984C199.18 300.469 203.246 312.119 207.03 323.853C207.71 325.977 208.374 328.118 209.336 330.226C209.336 329.081 209.502 327.902 209.303 326.791C208.988 325.181 209.087 323.587 208.988 321.994C208.374 312.103 208.457 302.195 208.706 292.287C208.805 288.337 209.17 284.354 209.635 280.404C209.95 277.732 210.183 275.043 210.548 272.388C211.627 264.704 212.689 257.003 215.56 249.718C216.124 248.274 216.871 246.913 217.966 245.801C220.174 243.527 222.912 243.693 224.92 246.183C226.862 248.589 227.808 251.477 228.638 254.381C229.667 258.032 230.198 261.767 230.679 265.534C231.492 271.907 231.675 278.313 231.907 284.736C232.057 289.101 232.223 293.482 232.09 297.847C231.94 302.726 231.957 307.622 231.692 312.501C231.426 317.38 231.26 322.243 231.011 327.122C231.011 327.255 231.044 327.371 231.094 327.67C231.758 326.591 231.841 325.479 232.09 324.45C235.16 311.489 239.093 298.793 244.288 286.528C247.508 278.944 251.076 271.525 256.005 264.853C257.997 262.148 260.121 259.559 263.058 257.833C264.618 256.92 266.261 256.207 268.17 256.705C270.162 257.219 271.323 258.58 272.02 260.422C273.016 263.061 273.265 265.816 273.033 268.571C272.671 272.916 272.067 277.238 271.224 281.516C269.68 289.349 267.39 296.967 264.585 304.435C259.407 318.26 253.466 331.803 247.773 345.445C247.524 346.026 247.126 346.573 247.259 347.27C247.06 347.303 246.96 347.42 246.96 347.602C246.96 347.652 247.076 347.702 247.143 347.752C247.192 347.586 247.226 347.436 247.275 347.27C248.371 346.507 248.885 345.279 249.599 344.25C253.499 338.657 257.515 333.163 261.93 327.969C266.228 322.924 270.693 318.028 276.385 314.476C278.41 313.215 280.484 312.053 282.99 312.07C285.828 312.086 287.754 313.364 288.65 316.103C289.231 317.878 289.38 319.671 289.164 321.579C288.434 327.886 285.812 333.412 282.476 338.64C277.829 345.909 272.452 352.614 266.693 359.037C260.917 365.476 254.379 371.053 247.624 376.397C241.633 381.143 235.741 386.022 229.816 390.835C228.223 392.13 226.596 393.391 224.887 394.536C223.178 395.698 221.352 395.98 219.394 395.433C211.593 393.209 203.926 390.703 196.74 386.852C191.114 383.832 185.886 380.247 180.957 376.181C176.227 372.297 171.68 368.231 167.514 363.75C163.846 359.784 160.394 355.635 157.888 350.805C157.091 349.278 156.726 347.685 156.892 345.976C157.058 344.25 158.369 342.789 160.095 342.623C161.556 342.491 163.033 342.507 164.477 342.972C168.344 344.217 171.597 346.523 174.683 349.046C181.538 354.672 188.342 360.348 194.848 366.373C196.773 368.165 198.781 369.874 200.756 371.617C201.005 371.833 201.254 372.032 201.586 372.065C201.669 372.364 201.785 372.613 202.117 372.712C202.134 372.762 202.15 372.812 202.183 372.845C202.2 372.862 202.25 372.862 202.283 372.862C202.217 372.812 202.15 372.779 202.084 372.729C202.167 372.414 202.051 372.148 201.752 371.932Z" fill="#4F27AA"/>
<path d="M195.833 192.928L220.162 169.687M641.648 195.446L665.978 172.206M267.617 122.403L291.946 99.1631M573.642 109.809L597.972 86.5691M220.713 192.665C221.233 193.209 221.214 194.07 220.669 194.584C220.54 194.708 220.388 194.805 220.222 194.87C220.056 194.934 219.878 194.966 219.7 194.961C219.521 194.957 219.346 194.918 219.182 194.846C219.019 194.773 218.872 194.67 218.749 194.54C218.229 193.996 218.249 193.135 218.793 192.621C218.922 192.497 219.074 192.4 219.24 192.335C219.406 192.271 219.584 192.239 219.762 192.243C219.941 192.247 220.117 192.287 220.28 192.359C220.443 192.432 220.59 192.536 220.713 192.665M598.523 109.547C599.043 110.091 599.023 110.952 598.479 111.466C598.35 111.59 598.199 111.687 598.032 111.752C597.866 111.817 597.688 111.848 597.51 111.844C597.331 111.84 597.155 111.8 596.992 111.728C596.829 111.656 596.682 111.552 596.559 111.422C596.039 110.878 596.059 110.017 596.603 109.503C596.732 109.379 596.883 109.282 597.05 109.217C597.216 109.153 597.394 109.121 597.572 109.125C597.751 109.129 597.927 109.169 598.09 109.241C598.253 109.314 598.4 109.418 598.523 109.547M197.252 168.076C197.772 168.62 197.752 169.481 197.208 169.995C197.014 170.181 196.769 170.305 196.504 170.352C196.239 170.399 195.966 170.366 195.72 170.257C195.474 170.149 195.266 169.97 195.121 169.743C194.977 169.516 194.903 169.251 194.909 168.982C194.916 168.714 195.001 168.453 195.156 168.232C195.311 168.012 195.527 167.843 195.778 167.746C196.029 167.649 196.303 167.629 196.565 167.687C196.827 167.746 197.066 167.881 197.252 168.076M269.036 97.5511C269.556 98.0961 269.536 98.9561 268.992 99.4711C268.798 99.6566 268.553 99.7804 268.288 99.8267C268.024 99.8731 267.751 99.8399 267.506 99.7315C267.26 99.6231 267.052 99.4442 266.908 99.2175C266.764 98.9908 266.69 98.7265 266.696 98.458C266.703 98.1895 266.788 97.9288 266.942 97.709C267.097 97.4891 267.313 97.32 267.563 97.2229C267.814 97.1258 268.087 97.1052 268.349 97.1636C268.612 97.222 268.85 97.3569 269.036 97.5511M575.062 84.9571C575.582 85.5021 575.562 86.3631 575.018 86.8771C574.824 87.0626 574.579 87.1864 574.314 87.2327C574.05 87.2791 573.777 87.2459 573.532 87.1375C573.286 87.0291 573.078 86.8502 572.934 86.6235C572.79 86.3968 572.716 86.1325 572.722 85.864C572.729 85.5955 572.814 85.3348 572.968 85.115C573.123 84.8951 573.339 84.726 573.589 84.6289C573.84 84.5318 574.113 84.5112 574.375 84.5696C574.638 84.628 574.877 84.7629 575.062 84.9571M666.529 195.183C667.049 195.728 667.029 196.589 666.485 197.103C666.356 197.227 666.204 197.324 666.038 197.389C665.872 197.453 665.694 197.485 665.516 197.48C665.337 197.476 665.162 197.437 664.998 197.365C664.835 197.292 664.688 197.189 664.565 197.059C664.441 196.93 664.344 196.779 664.28 196.612C664.215 196.446 664.184 196.268 664.188 196.09C664.192 195.912 664.231 195.736 664.303 195.572C664.376 195.409 664.48 195.262 664.609 195.139C665.148 194.619 666.008 194.639 666.529 195.183ZM292.497 122.14C293.017 122.685 292.998 123.545 292.453 124.06C291.909 124.58 291.048 124.56 290.533 124.016C290.013 123.471 290.033 122.611 290.577 122.096C291.116 121.576 291.977 121.596 292.497 122.14ZM643.067 170.594C643.587 171.139 643.568 171.999 643.023 172.514C642.479 173.034 641.618 173.014 641.103 172.47C640.855 172.209 640.72 171.861 640.728 171.501C640.736 171.141 640.887 170.799 641.147 170.55C641.408 170.302 641.756 170.167 642.116 170.175C642.476 170.184 642.818 170.334 643.067 170.594Z" stroke="#E1E4E5" stroke-width="5.51" stroke-linecap="round" stroke-linejoin="round"/>
</g>
<defs>
<clipPath id="clip0_1235_23080">
<rect width="900" height="600" fill="white"/>
</clipPath>
</defs>
</svg>
