<svg width="900" height="600" viewBox="0 0 900 600" fill="none" xmlns="http://www.w3.org/2000/svg">
<g clip-path="url(#clip0_1235_23088)">
<path fill-rule="evenodd" clip-rule="evenodd" d="M475.107 379.748L503.614 408.255C504.822 409.463 505.67 410.984 506.063 412.647C506.456 414.31 506.377 416.049 505.837 417.67L497.979 441.246C497.562 442.496 496.881 443.642 495.983 444.607C495.084 445.571 493.989 446.331 492.771 446.836C491.553 447.34 490.242 447.577 488.924 447.531C487.607 447.484 486.315 447.155 485.136 446.566L468.601 438.298" fill="#4F27AA"/>
<path d="M475.107 379.748L503.614 408.255C504.822 409.463 505.67 410.984 506.063 412.647C506.456 414.31 506.377 416.049 505.837 417.67L497.979 441.246C497.562 442.496 496.881 443.642 495.983 444.607C495.084 445.571 493.989 446.331 492.771 446.836C491.553 447.34 490.242 447.577 488.924 447.531C487.607 447.484 486.315 447.155 485.136 446.566L468.601 438.298" stroke="#4F27AA" stroke-width="5" stroke-linecap="round" stroke-linejoin="round"/>
<path fill-rule="evenodd" clip-rule="evenodd" d="M407.346 438.301L390.812 446.568C389.633 447.158 388.341 447.488 387.024 447.535C385.706 447.582 384.394 447.345 383.176 446.84C381.958 446.336 380.863 445.576 379.965 444.611C379.066 443.646 378.386 442.5 377.969 441.249L370.111 417.673C369.571 416.052 369.492 414.313 369.885 412.65C370.277 410.987 371.125 409.466 372.333 408.258L400.841 379.75" fill="#4F27AA"/>
<path d="M407.346 438.301L390.812 446.568C389.633 447.158 388.341 447.488 387.024 447.535C385.706 447.582 384.394 447.345 383.176 446.84C381.958 446.336 380.863 445.576 379.965 444.611C379.066 443.646 378.386 442.5 377.969 441.249L370.111 417.673C369.571 416.052 369.492 414.313 369.885 412.65C370.277 410.987 371.125 409.466 372.333 408.258L400.841 379.75" stroke="#4F27AA" stroke-width="5" stroke-linecap="round" stroke-linejoin="round"/>
<path fill-rule="evenodd" clip-rule="evenodd" d="M475.091 371.652L467.415 440.738C467.141 443.198 465.97 445.471 464.126 447.122C462.282 448.772 459.893 449.685 457.418 449.685H418.528C416.053 449.685 413.665 448.772 411.82 447.122C409.976 445.471 408.805 443.198 408.531 440.738L400.855 371.652C399.122 356.057 400.919 340.271 406.113 325.464C411.307 310.656 419.765 297.207 430.861 286.111C434.789 282.184 441.157 282.184 445.085 286.111C456.181 297.207 464.639 310.656 469.833 325.464C475.027 340.271 476.824 356.057 475.091 371.652ZM454.594 492.122L437.974 514.619L421.354 492.122C419.08 489.046 417.705 485.399 417.382 481.588C417.059 477.776 417.8 473.95 419.523 470.534C421.246 467.119 423.883 464.249 427.141 462.245C430.399 460.24 434.149 459.179 437.974 459.179C441.799 459.179 445.549 460.241 448.806 462.246C452.063 464.251 454.7 467.121 456.423 470.536C458.146 473.951 458.887 477.777 458.564 481.588C458.241 485.399 456.867 489.046 454.594 492.122Z" fill="#4F27AA" stroke="#4F27AA" stroke-width="5" stroke-linecap="round" stroke-linejoin="round"/>
<path d="M320.323 260.329L302.452 278.199M302.452 256.754L295.304 263.902" stroke="#E1E4E5" stroke-width="1.5" stroke-linecap="round" stroke-linejoin="round"/>
<path fill-rule="evenodd" clip-rule="evenodd" d="M287.536 277.093L291.335 289.316L303.557 293.115C304.055 293.27 304.499 293.562 304.84 293.956C305.18 294.35 305.404 294.832 305.486 295.346C305.567 295.861 305.503 296.388 305.301 296.869C305.099 297.349 304.766 297.763 304.341 298.064L293.891 305.454L294.055 318.253C294.061 318.775 293.922 319.287 293.652 319.733C293.383 320.179 292.994 320.541 292.529 320.778C292.065 321.014 291.543 321.116 291.024 321.072C290.505 321.028 290.008 320.84 289.59 320.528L279.332 312.873L267.211 316.983C266.717 317.151 266.186 317.178 265.678 317.06C265.17 316.941 264.706 316.683 264.337 316.314C263.968 315.946 263.71 315.481 263.591 314.973C263.473 314.465 263.499 313.934 263.667 313.44L267.778 301.319L260.123 291.06C259.811 290.643 259.622 290.146 259.578 289.626C259.534 289.107 259.636 288.585 259.872 288.121C260.109 287.656 260.471 287.267 260.918 286.998C261.364 286.729 261.877 286.589 262.398 286.596L275.196 286.76L282.587 276.309C282.888 275.884 283.302 275.551 283.783 275.348C284.263 275.146 284.79 275.082 285.305 275.163C285.82 275.245 286.302 275.469 286.696 275.81C287.09 276.151 287.381 276.596 287.536 277.093Z" fill="#E1E4E5" stroke="#E1E4E5" stroke-width="1.5" stroke-linecap="round" stroke-linejoin="round"/>
<path d="M323.897 278.197L316.749 285.346M596.612 312.739L578.742 330.609M578.742 309.165L571.594 316.313" stroke="#E1E4E5" stroke-width="1.5" stroke-linecap="round" stroke-linejoin="round"/>
<path fill-rule="evenodd" clip-rule="evenodd" d="M563.825 329.504L567.625 341.727L579.847 345.526C580.345 345.681 580.79 345.971 581.131 346.366C581.473 346.76 581.697 347.242 581.778 347.757C581.86 348.272 581.796 348.8 581.593 349.28C581.39 349.76 581.057 350.174 580.631 350.475L570.181 357.865L570.344 370.664C570.351 371.186 570.212 371.698 569.942 372.145C569.673 372.591 569.284 372.953 568.819 373.19C568.355 373.427 567.833 373.529 567.314 373.484C566.794 373.44 566.298 373.251 565.88 372.939L555.622 365.284L543.5 369.394C543.006 369.561 542.476 369.586 541.969 369.467C541.462 369.348 540.998 369.09 540.629 368.722C540.261 368.354 540.003 367.89 539.884 367.382C539.765 366.875 539.79 366.345 539.957 365.851L544.068 353.73L536.413 343.472C536.101 343.054 535.912 342.558 535.868 342.038C535.824 341.519 535.926 340.998 536.162 340.533C536.399 340.068 536.761 339.679 537.207 339.41C537.653 339.14 538.166 339.001 538.687 339.007L551.486 339.171L558.876 328.72C559.177 328.295 559.591 327.962 560.072 327.76C560.552 327.558 561.079 327.494 561.594 327.575C562.109 327.657 562.59 327.881 562.985 328.222C563.379 328.562 563.67 329.007 563.825 329.504Z" fill="#E1E4E5" stroke="#E1E4E5" stroke-width="1.5" stroke-linecap="round" stroke-linejoin="round"/>
<path d="M600.187 330.609L593.038 337.757M684.737 404.436L666.866 422.306M666.866 400.861L659.718 408.009" stroke="#E1E4E5" stroke-width="1.5" stroke-linecap="round" stroke-linejoin="round"/>
<path fill-rule="evenodd" clip-rule="evenodd" d="M651.95 421.201L655.749 433.424L667.972 437.223C668.47 437.378 668.914 437.669 669.255 438.064C669.596 438.458 669.82 438.94 669.901 439.454C669.983 439.969 669.919 440.497 669.716 440.977C669.514 441.457 669.181 441.871 668.755 442.172L658.305 449.562L658.469 462.361C658.475 462.882 658.336 463.395 658.066 463.841C657.797 464.287 657.408 464.649 656.943 464.886C656.479 465.122 655.957 465.224 655.438 465.18C654.919 465.136 654.422 464.948 654.004 464.636L643.746 456.981L631.625 461.091C631.131 461.259 630.6 461.285 630.093 461.167C629.585 461.049 629.12 460.79 628.752 460.422C628.383 460.053 628.125 459.588 628.006 459.081C627.888 458.573 627.914 458.042 628.082 457.548L632.192 445.426L624.537 435.168C624.225 434.751 624.036 434.254 623.992 433.734C623.948 433.215 624.05 432.693 624.286 432.229C624.523 431.764 624.885 431.375 625.332 431.106C625.778 430.836 626.291 430.697 626.812 430.704L639.61 430.867L647.001 420.417C647.302 419.991 647.716 419.657 648.196 419.454C648.677 419.251 649.204 419.187 649.72 419.269C650.235 419.35 650.717 419.575 651.111 419.916C651.505 420.258 651.796 420.703 651.95 421.201Z" fill="#E1E4E5" stroke="#E1E4E5" stroke-width="1.5" stroke-linecap="round" stroke-linejoin="round"/>
<path d="M688.311 422.307L681.163 429.455M737.135 263.914L719.264 281.785M719.264 260.34L712.116 267.488" stroke="#E1E4E5" stroke-width="1.5" stroke-linecap="round" stroke-linejoin="round"/>
<path fill-rule="evenodd" clip-rule="evenodd" d="M704.348 280.679L708.147 292.901L720.37 296.701C720.868 296.855 721.314 297.145 721.655 297.54C721.997 297.934 722.221 298.416 722.303 298.931C722.384 299.446 722.32 299.974 722.117 300.454C721.914 300.935 721.58 301.349 721.154 301.65L710.703 309.04L710.867 321.838C710.873 322.359 710.734 322.871 710.464 323.317C710.195 323.763 709.806 324.125 709.341 324.362C708.877 324.599 708.355 324.701 707.836 324.657C707.317 324.612 706.82 324.424 706.402 324.113L696.144 316.458L684.023 320.569C683.529 320.735 682.999 320.76 682.492 320.642C681.985 320.523 681.521 320.265 681.152 319.896C680.784 319.528 680.526 319.064 680.407 318.557C680.288 318.05 680.314 317.519 680.48 317.026L684.59 304.904L676.935 294.646C676.623 294.228 676.434 293.731 676.39 293.212C676.346 292.692 676.448 292.171 676.684 291.706C676.921 291.242 677.283 290.853 677.73 290.583C678.176 290.314 678.689 290.175 679.21 290.182L692.009 290.345L699.399 279.895C699.7 279.469 700.114 279.135 700.594 278.933C701.075 278.73 701.602 278.666 702.117 278.747C702.632 278.829 703.114 279.053 703.509 279.394C703.903 279.736 704.194 280.181 704.348 280.679Z" fill="#E1E4E5" stroke="#E1E4E5" stroke-width="1.5" stroke-linecap="round" stroke-linejoin="round"/>
<path d="M740.709 281.783L733.561 288.931M568.031 213.897L550.161 231.767M550.161 210.322L543.013 217.47" stroke="#E1E4E5" stroke-width="1.5" stroke-linecap="round" stroke-linejoin="round"/>
<path fill-rule="evenodd" clip-rule="evenodd" d="M535.245 230.662L539.044 242.885L551.266 246.684C551.764 246.838 552.208 247.129 552.549 247.524C552.891 247.918 553.114 248.4 553.196 248.915C553.278 249.429 553.214 249.957 553.011 250.437C552.808 250.918 552.476 251.332 552.05 251.633L541.6 259.023L541.764 271.822C541.77 272.343 541.631 272.855 541.361 273.302C541.091 273.748 540.703 274.109 540.238 274.346C539.774 274.583 539.252 274.685 538.733 274.641C538.214 274.597 537.717 274.408 537.299 274.097L527.041 266.442L514.92 270.552C514.426 270.72 513.895 270.746 513.387 270.628C512.879 270.51 512.415 270.252 512.046 269.883C511.677 269.514 511.419 269.049 511.3 268.541C511.182 268.033 511.208 267.503 511.376 267.009L515.487 254.888L507.832 244.63C507.521 244.212 507.332 243.715 507.288 243.196C507.244 242.676 507.346 242.155 507.583 241.691C507.819 241.226 508.181 240.837 508.627 240.568C509.073 240.298 509.586 240.158 510.107 240.165L522.905 240.329L530.296 229.878C530.597 229.452 531.011 229.119 531.492 228.917C531.972 228.714 532.499 228.65 533.014 228.732C533.529 228.813 534.011 229.037 534.405 229.378C534.799 229.719 535.09 230.164 535.245 230.662Z" fill="#E1E4E5" stroke="#E1E4E5" stroke-width="1.5" stroke-linecap="round" stroke-linejoin="round"/>
<path d="M571.606 231.768L564.458 238.916M438.227 199.607L420.356 217.478M420.356 196.033L413.208 203.181" stroke="#E1E4E5" stroke-width="1.5" stroke-linecap="round" stroke-linejoin="round"/>
<path fill-rule="evenodd" clip-rule="evenodd" d="M405.44 216.372L409.239 228.594L421.462 232.394C421.96 232.548 422.405 232.839 422.747 233.233C423.089 233.627 423.313 234.109 423.395 234.624C423.476 235.14 423.412 235.667 423.209 236.148C423.006 236.628 422.672 237.042 422.246 237.343L411.795 244.733L411.959 257.532C411.965 258.053 411.826 258.566 411.557 259.012C411.287 259.458 410.898 259.82 410.434 260.057C409.969 260.293 409.448 260.395 408.928 260.351C408.409 260.306 407.912 260.118 407.494 259.806L397.236 252.151L385.115 256.262C384.621 256.429 384.091 256.454 383.583 256.336C383.076 256.217 382.612 255.959 382.243 255.591C381.875 255.222 381.617 254.758 381.498 254.25C381.38 253.743 381.405 253.213 381.572 252.719L385.682 240.597L378.027 230.339C377.715 229.921 377.526 229.424 377.482 228.905C377.438 228.386 377.54 227.864 377.776 227.399C378.013 226.935 378.375 226.546 378.821 226.277C379.268 226.007 379.781 225.868 380.302 225.875L393.1 226.038L400.491 215.588C400.792 215.162 401.206 214.829 401.686 214.626C402.167 214.423 402.694 214.359 403.209 214.441C403.724 214.522 404.206 214.746 404.601 215.088C404.995 215.429 405.286 215.874 405.44 216.372Z" fill="#E1E4E5" stroke="#E1E4E5" stroke-width="1.5" stroke-linecap="round" stroke-linejoin="round"/>
<path d="M441.801 217.477L434.653 224.625M228.634 231.761L210.763 249.631M210.763 228.186L203.615 235.334" stroke="#E1E4E5" stroke-width="1.5" stroke-linecap="round" stroke-linejoin="round"/>
<path fill-rule="evenodd" clip-rule="evenodd" d="M195.847 248.526L199.646 260.749L211.869 264.548C212.367 264.703 212.811 264.994 213.152 265.388C213.492 265.782 213.716 266.264 213.798 266.779C213.879 267.293 213.815 267.821 213.613 268.301C213.411 268.781 213.078 269.195 212.653 269.497L202.202 276.887L202.366 289.686C202.373 290.207 202.233 290.72 201.964 291.166C201.694 291.612 201.305 291.974 200.841 292.211C200.376 292.448 199.855 292.55 199.335 292.506C198.816 292.461 198.319 292.273 197.901 291.961L187.643 284.306L175.522 288.416C175.028 288.583 174.498 288.61 173.99 288.491C173.482 288.373 173.017 288.115 172.649 287.746C172.28 287.377 172.022 286.913 171.903 286.405C171.785 285.897 171.811 285.366 171.979 284.873L176.089 272.752L168.434 262.494C168.123 262.076 167.934 261.579 167.89 261.06C167.846 260.54 167.948 260.019 168.185 259.555C168.421 259.09 168.783 258.701 169.229 258.432C169.675 258.162 170.188 258.022 170.709 258.029L183.508 258.193L190.898 247.742C191.199 247.316 191.613 246.984 192.094 246.782C192.574 246.579 193.101 246.515 193.616 246.597C194.131 246.678 194.612 246.902 195.007 247.243C195.401 247.584 195.692 248.028 195.847 248.526Z" fill="#E1E4E5" stroke="#E1E4E5" stroke-width="1.5" stroke-linecap="round" stroke-linejoin="round"/>
<path d="M232.208 249.631L225.06 256.779M345.339 138.873L327.469 156.744M327.469 135.299L320.32 142.447" stroke="#E1E4E5" stroke-width="1.5" stroke-linecap="round" stroke-linejoin="round"/>
<path fill-rule="evenodd" clip-rule="evenodd" d="M312.552 155.638L316.351 167.861L328.574 171.66C329.072 171.814 329.517 172.105 329.858 172.499C330.2 172.893 330.424 173.375 330.505 173.89C330.587 174.405 330.523 174.933 330.32 175.413C330.117 175.894 329.784 176.308 329.358 176.609L318.908 184L319.071 196.798C319.078 197.319 318.939 197.832 318.669 198.278C318.4 198.724 318.011 199.087 317.546 199.323C317.082 199.56 316.56 199.662 316.041 199.618C315.521 199.573 315.025 199.385 314.607 199.073L304.349 191.418L292.227 195.529C291.733 195.695 291.203 195.721 290.695 195.602C290.188 195.483 289.724 195.225 289.356 194.856C288.987 194.488 288.729 194.024 288.61 193.516C288.492 193.009 288.517 192.478 288.684 191.985L292.795 179.864L285.139 169.606C284.827 169.188 284.638 168.691 284.593 168.171C284.549 167.652 284.651 167.13 284.887 166.665C285.124 166.201 285.486 165.812 285.933 165.542C286.379 165.273 286.892 165.134 287.414 165.141L300.213 165.305L307.603 154.855C307.904 154.429 308.318 154.096 308.798 153.893C309.279 153.691 309.806 153.627 310.321 153.708C310.836 153.79 311.317 154.013 311.712 154.354C312.106 154.695 312.397 155.14 312.552 155.638Z" fill="#E1E4E5" stroke="#E1E4E5" stroke-width="1.5" stroke-linecap="round" stroke-linejoin="round"/>
<path d="M348.913 156.742L341.765 163.89M133.721 350.447L123.802 360.366M123.802 348.463L119.834 352.431" stroke="#E1E4E5" stroke-width="1.5" stroke-linecap="round" stroke-linejoin="round"/>
<path fill-rule="evenodd" clip-rule="evenodd" d="M115.523 359.753L117.631 366.537L124.415 368.646C124.691 368.733 124.937 368.894 125.127 369.113C125.316 369.332 125.44 369.599 125.485 369.884C125.53 370.17 125.495 370.462 125.383 370.729C125.27 370.995 125.086 371.225 124.85 371.392L119.05 375.494L119.141 382.598C119.145 382.888 119.068 383.173 118.918 383.421C118.769 383.668 118.553 383.87 118.295 384.001C118.037 384.132 117.747 384.189 117.459 384.164C117.171 384.14 116.895 384.035 116.663 383.861L110.97 379.612L104.242 381.893C103.968 381.987 103.673 382.001 103.391 381.936C103.11 381.87 102.852 381.727 102.647 381.522C102.442 381.318 102.299 381.06 102.233 380.778C102.167 380.496 102.182 380.201 102.275 379.927L104.557 373.199L100.308 367.505C100.135 367.274 100.03 366.998 100.005 366.71C99.9803 366.421 100.037 366.132 100.168 365.874C100.3 365.616 100.5 365.4 100.748 365.25C100.996 365.101 101.281 365.024 101.57 365.027L108.674 365.118L112.776 359.318C112.943 359.082 113.173 358.897 113.439 358.784C113.706 358.672 113.999 358.636 114.285 358.681C114.571 358.726 114.838 358.851 115.057 359.04C115.276 359.23 115.437 359.477 115.523 359.753Z" fill="#E1E4E5" stroke="#E1E4E5" stroke-width="1.5" stroke-linecap="round" stroke-linejoin="round"/>
<path d="M135.704 360.367L131.737 364.334M244.471 456.436L234.553 466.354M234.553 454.452L230.585 458.419" stroke="#E1E4E5" stroke-width="1.5" stroke-linecap="round" stroke-linejoin="round"/>
<path fill-rule="evenodd" clip-rule="evenodd" d="M226.274 465.74L228.382 472.524L235.166 474.633C235.442 474.719 235.689 474.88 235.878 475.099C236.067 475.318 236.192 475.585 236.237 475.871C236.282 476.157 236.247 476.45 236.134 476.716C236.022 476.983 235.837 477.213 235.601 477.38L229.801 481.482L229.892 488.585C229.895 488.874 229.817 489.158 229.667 489.405C229.518 489.652 229.302 489.853 229.044 489.984C228.787 490.115 228.498 490.172 228.21 490.148C227.922 490.124 227.646 490.02 227.414 489.848L221.72 485.599L214.993 487.881C214.719 487.973 214.424 487.987 214.143 487.922C213.861 487.856 213.604 487.712 213.399 487.508C213.194 487.303 213.051 487.046 212.985 486.764C212.919 486.482 212.933 486.188 213.026 485.914L215.308 479.186L211.059 473.493C210.887 473.261 210.782 472.985 210.758 472.697C210.734 472.409 210.79 472.12 210.921 471.862C211.053 471.605 211.253 471.389 211.5 471.239C211.748 471.089 212.032 471.012 212.321 471.015L219.425 471.106L223.527 465.305C223.694 465.068 223.924 464.883 224.19 464.771C224.457 464.658 224.75 464.622 225.036 464.668C225.322 464.713 225.589 464.837 225.808 465.027C226.027 465.216 226.188 465.463 226.274 465.74Z" fill="#E1E4E5" stroke="#E1E4E5" stroke-width="1.5" stroke-linecap="round" stroke-linejoin="round"/>
<path d="M246.455 466.355L242.488 470.322M575.533 463.582L565.614 473.501M565.614 461.598L561.647 465.566" stroke="#E1E4E5" stroke-width="1.5" stroke-linecap="round" stroke-linejoin="round"/>
<path fill-rule="evenodd" clip-rule="evenodd" d="M557.335 472.886L559.444 479.67L566.228 481.779C566.505 481.864 566.752 482.026 566.941 482.245C567.131 482.463 567.255 482.731 567.3 483.017C567.346 483.303 567.31 483.596 567.197 483.862C567.085 484.129 566.9 484.359 566.663 484.526L560.862 488.628L560.953 495.731C560.957 496.02 560.88 496.305 560.73 496.553C560.581 496.801 560.365 497.002 560.107 497.133C559.849 497.265 559.56 497.321 559.271 497.297C558.983 497.272 558.707 497.167 558.475 496.994L552.782 492.745L546.054 495.027C545.78 495.12 545.485 495.134 545.203 495.069C544.922 495.003 544.664 494.86 544.459 494.655C544.254 494.45 544.111 494.192 544.046 493.91C543.98 493.628 543.995 493.334 544.088 493.06L546.369 486.332L542.12 480.639C541.947 480.407 541.843 480.131 541.819 479.843C541.795 479.555 541.851 479.266 541.983 479.008C542.114 478.75 542.315 478.534 542.562 478.385C542.81 478.235 543.094 478.157 543.383 478.161L550.486 478.252L554.588 472.451C554.755 472.215 554.985 472.031 555.252 471.918C555.518 471.806 555.811 471.771 556.096 471.816C556.382 471.861 556.649 471.985 556.868 472.174C557.087 472.363 557.249 472.61 557.335 472.886Z" fill="#E1E4E5" stroke="#E1E4E5" stroke-width="1.5" stroke-linecap="round" stroke-linejoin="round"/>
<path d="M577.517 473.5L573.549 477.467M797.034 377.838L787.116 387.757M787.116 375.854L783.148 379.821" stroke="#E1E4E5" stroke-width="1.5" stroke-linecap="round" stroke-linejoin="round"/>
<path fill-rule="evenodd" clip-rule="evenodd" d="M778.837 387.142L780.945 393.926L787.729 396.035C788.005 396.121 788.252 396.282 788.441 396.501C788.63 396.72 788.755 396.987 788.8 397.273C788.845 397.559 788.81 397.851 788.697 398.118C788.585 398.385 788.4 398.614 788.164 398.782L782.364 402.884L782.455 409.987C782.459 410.276 782.381 410.56 782.232 410.808C782.082 411.056 781.866 411.257 781.608 411.388C781.351 411.519 781.061 411.576 780.773 411.552C780.485 411.527 780.209 411.423 779.977 411.25L774.284 407.001L767.556 409.282C767.282 409.375 766.987 409.39 766.705 409.324C766.424 409.258 766.166 409.115 765.961 408.911C765.756 408.706 765.613 408.448 765.547 408.166C765.481 407.884 765.496 407.59 765.589 407.316L767.871 400.588L763.622 394.895C763.45 394.663 763.345 394.387 763.321 394.099C763.297 393.811 763.353 393.522 763.484 393.264C763.616 393.007 763.816 392.791 764.063 392.641C764.311 392.491 764.595 392.414 764.884 392.417L771.988 392.507L776.09 386.707C776.257 386.471 776.487 386.286 776.754 386.174C777.02 386.062 777.313 386.027 777.598 386.072C777.884 386.117 778.151 386.241 778.37 386.43C778.589 386.619 778.751 386.866 778.837 387.142Z" fill="#E1E4E5" stroke="#E1E4E5" stroke-width="1.5" stroke-linecap="round" stroke-linejoin="round"/>
<path d="M799.018 387.756L795.051 391.724M668.42 178.963L658.502 188.882M658.502 176.979L654.534 180.946" stroke="#E1E4E5" stroke-width="1.5" stroke-linecap="round" stroke-linejoin="round"/>
<path fill-rule="evenodd" clip-rule="evenodd" d="M650.223 188.268L652.332 195.052L659.115 197.16C659.391 197.246 659.637 197.408 659.826 197.627C660.015 197.846 660.139 198.113 660.184 198.398C660.23 198.684 660.194 198.976 660.082 199.243C659.971 199.509 659.787 199.739 659.551 199.907L653.75 204.009L653.841 211.113C653.845 211.402 653.768 211.687 653.618 211.935C653.468 212.182 653.253 212.383 652.995 212.515C652.737 212.646 652.447 212.702 652.159 212.678C651.871 212.653 651.595 212.548 651.363 212.375L645.67 208.126L638.942 210.408C638.668 210.5 638.373 210.515 638.092 210.449C637.81 210.383 637.552 210.24 637.347 210.036C637.143 209.831 637 209.573 636.934 209.291C636.868 209.01 636.882 208.715 636.975 208.441L639.257 201.714L635.008 196.02C634.835 195.788 634.73 195.512 634.705 195.224C634.68 194.935 634.737 194.646 634.868 194.388C635 194.13 635.201 193.914 635.449 193.764C635.697 193.615 635.982 193.538 636.271 193.542L643.374 193.633L647.476 187.833C647.643 187.597 647.873 187.412 648.14 187.3C648.406 187.187 648.699 187.152 648.985 187.197C649.271 187.242 649.538 187.366 649.757 187.556C649.976 187.745 650.137 187.992 650.223 188.268Z" fill="#E1E4E5" stroke="#E1E4E5" stroke-width="1.5" stroke-linecap="round" stroke-linejoin="round"/>
<path d="M670.404 188.881L666.437 192.849M508.721 162.984L498.802 172.903M498.802 161L494.834 164.967" stroke="#E1E4E5" stroke-width="1.5" stroke-linecap="round" stroke-linejoin="round"/>
<path fill-rule="evenodd" clip-rule="evenodd" d="M490.523 172.289L492.631 179.073L499.415 181.181C499.979 181.356 500.394 181.837 500.487 182.419C500.532 182.705 500.496 182.998 500.384 183.265C500.271 183.531 500.086 183.761 499.85 183.928L494.05 188.03L494.141 195.134C494.145 195.424 494.068 195.708 493.918 195.956C493.768 196.204 493.552 196.405 493.295 196.536C493.037 196.667 492.747 196.724 492.459 196.699C492.17 196.675 491.895 196.57 491.663 196.396L485.97 192.147L479.242 194.429C478.968 194.522 478.673 194.536 478.391 194.47C478.11 194.405 477.852 194.262 477.647 194.057C477.443 193.852 477.3 193.595 477.234 193.313C477.168 193.031 477.182 192.736 477.275 192.462L479.557 185.735L475.308 180.041C475.135 179.81 475.03 179.534 475.005 179.245C474.98 178.957 475.037 178.668 475.168 178.41C475.3 178.152 475.5 177.936 475.748 177.786C475.996 177.637 476.281 177.559 476.57 177.563L483.674 177.654L487.776 171.854C487.943 171.618 488.173 171.433 488.44 171.321C488.706 171.209 488.999 171.173 489.285 171.218C489.57 171.264 489.838 171.388 490.057 171.577C490.275 171.766 490.437 172.013 490.523 172.289Z" fill="#E1E4E5" stroke="#E1E4E5" stroke-width="1.5" stroke-linecap="round" stroke-linejoin="round"/>
<path d="M510.704 172.902L506.737 176.87M615.721 116.984L605.802 126.903M605.802 115L601.834 118.967" stroke="#E1E4E5" stroke-width="1.5" stroke-linecap="round" stroke-linejoin="round"/>
<path fill-rule="evenodd" clip-rule="evenodd" d="M597.523 126.289L599.631 133.073L606.415 135.181C606.979 135.356 607.394 135.837 607.487 136.419C607.532 136.705 607.496 136.998 607.384 137.265C607.271 137.531 607.086 137.761 606.85 137.928L601.05 142.03L601.141 149.134C601.145 149.424 601.068 149.708 600.918 149.956C600.768 150.204 600.552 150.405 600.295 150.536C600.037 150.667 599.747 150.724 599.459 150.699C599.17 150.675 598.895 150.57 598.663 150.396L592.97 146.147L586.242 148.429C585.968 148.522 585.673 148.536 585.392 148.47C585.11 148.405 584.852 148.262 584.647 148.057C584.443 147.852 584.3 147.595 584.234 147.313C584.168 147.031 584.182 146.736 584.275 146.462L586.557 139.735L582.308 134.041C582.135 133.81 582.03 133.534 582.005 133.245C581.98 132.957 582.037 132.668 582.168 132.41C582.3 132.152 582.5 131.936 582.748 131.786C582.996 131.637 583.281 131.559 583.57 131.563L590.674 131.654L594.776 125.854C594.943 125.618 595.173 125.433 595.44 125.321C595.706 125.209 595.999 125.173 596.285 125.218C596.57 125.264 596.838 125.388 597.057 125.577C597.275 125.766 597.437 126.013 597.523 126.289Z" fill="#E1E4E5" stroke="#E1E4E5" stroke-width="1.5" stroke-linecap="round" stroke-linejoin="round"/>
<path d="M617.704 126.902L613.737 130.87M540.721 87.984L530.802 97.903M530.802 86L526.834 89.968" stroke="#E1E4E5" stroke-width="1.5" stroke-linecap="round" stroke-linejoin="round"/>
<path fill-rule="evenodd" clip-rule="evenodd" d="M522.523 97.2893L524.631 104.073L531.415 106.181C531.979 106.356 532.394 106.837 532.487 107.419C532.532 107.705 532.496 107.998 532.384 108.265C532.271 108.531 532.086 108.761 531.85 108.928L526.05 113.03L526.141 120.134C526.145 120.424 526.068 120.708 525.918 120.956C525.768 121.204 525.552 121.405 525.295 121.536C525.037 121.667 524.747 121.724 524.459 121.699C524.17 121.675 523.895 121.57 523.663 121.396L517.97 117.147L511.242 119.429C510.968 119.522 510.673 119.536 510.391 119.47C510.11 119.405 509.852 119.262 509.647 119.057C509.443 118.852 509.3 118.595 509.234 118.313C509.168 118.031 509.182 117.736 509.275 117.462L511.557 110.735L507.308 105.041C507.135 104.81 507.03 104.534 507.005 104.245C506.98 103.957 507.037 103.668 507.168 103.41C507.3 103.152 507.5 102.936 507.748 102.786C507.996 102.637 508.281 102.559 508.57 102.563L515.674 102.654L519.776 96.8543C519.943 96.6181 520.173 96.4334 520.44 96.321C520.706 96.2086 520.999 96.1731 521.285 96.2183C521.57 96.2636 521.838 96.3878 522.057 96.5771C522.275 96.7664 522.437 97.013 522.523 97.2893Z" fill="#E1E4E5" stroke="#E1E4E5" stroke-width="1.5" stroke-linecap="round" stroke-linejoin="round"/>
<path d="M542.704 97.902L538.737 101.87M439.774 97.984L429.855 107.903M429.855 96L425.888 99.968" stroke="#E1E4E5" stroke-width="1.5" stroke-linecap="round" stroke-linejoin="round"/>
<path fill-rule="evenodd" clip-rule="evenodd" d="M421.576 107.289L423.685 114.073L430.469 116.181C430.745 116.268 430.991 116.429 431.18 116.648C431.369 116.867 431.494 117.134 431.539 117.42C431.584 117.705 431.549 117.998 431.436 118.265C431.324 118.531 431.14 118.761 430.904 118.928L425.103 123.03L425.194 130.134C425.198 130.424 425.121 130.709 424.972 130.957C424.822 131.205 424.606 131.406 424.348 131.537C424.09 131.669 423.8 131.725 423.512 131.7C423.223 131.675 422.948 131.57 422.716 131.396L417.023 127.147L410.295 129.429C410.021 129.522 409.726 129.536 409.445 129.47C409.163 129.404 408.906 129.261 408.701 129.056C408.496 128.852 408.353 128.594 408.287 128.312C408.221 128.031 408.235 127.736 408.328 127.462L410.61 120.735L406.361 115.041C406.188 114.809 406.083 114.534 406.058 114.245C406.033 113.957 406.09 113.667 406.221 113.409C406.353 113.151 406.554 112.935 406.802 112.786C407.05 112.636 407.335 112.559 407.624 112.563L414.727 112.654L418.829 106.854C418.996 106.618 419.226 106.433 419.493 106.321C419.759 106.209 420.052 106.173 420.338 106.218C420.623 106.264 420.891 106.388 421.11 106.577C421.328 106.766 421.49 107.013 421.576 107.289Z" fill="#E1E4E5" stroke="#E1E4E5" stroke-width="1.5" stroke-linecap="round" stroke-linejoin="round"/>
<path d="M441.757 107.902L437.79 111.87M251.617 130.137L241.698 140.056M241.698 128.154L237.73 132.121" stroke="#E1E4E5" stroke-width="1.5" stroke-linecap="round" stroke-linejoin="round"/>
<path fill-rule="evenodd" clip-rule="evenodd" d="M233.419 139.442L235.527 146.226L242.311 148.335C242.587 148.421 242.834 148.583 243.023 148.802C243.213 149.021 243.337 149.288 243.382 149.574C243.427 149.859 243.392 150.152 243.279 150.419C243.167 150.685 242.982 150.915 242.746 151.082L236.946 155.184L237.037 162.287C237.041 162.577 236.963 162.861 236.814 163.109C236.664 163.357 236.448 163.557 236.19 163.689C235.933 163.82 235.643 163.877 235.355 163.852C235.067 163.828 234.791 163.723 234.559 163.55L228.866 159.301L222.138 161.582C221.864 161.676 221.569 161.69 221.287 161.625C221.006 161.559 220.748 161.416 220.543 161.211C220.338 161.007 220.195 160.749 220.129 160.467C220.063 160.185 220.078 159.89 220.171 159.616L222.453 152.888L218.204 147.195C218.032 146.963 217.927 146.688 217.903 146.4C217.879 146.112 217.935 145.823 218.066 145.565C218.198 145.307 218.398 145.091 218.645 144.942C218.893 144.792 219.177 144.714 219.466 144.717L226.57 144.807L230.672 139.007C230.839 138.772 231.069 138.587 231.336 138.475C231.602 138.363 231.895 138.327 232.181 138.373C232.466 138.418 232.733 138.542 232.952 138.731C233.171 138.92 233.333 139.166 233.419 139.442Z" fill="#E1E4E5" stroke="#E1E4E5" stroke-width="1.5" stroke-linecap="round" stroke-linejoin="round"/>
<path d="M253.6 140.057L249.633 144.024M340.576 372.284L322.705 390.155M322.705 368.71L315.557 375.858" stroke="#E1E4E5" stroke-width="1.5" stroke-linecap="round" stroke-linejoin="round"/>
<path fill-rule="evenodd" clip-rule="evenodd" d="M307.789 389.048L311.588 401.27L323.811 405.069C324.309 405.223 324.754 405.514 325.095 405.908C325.436 406.303 325.66 406.785 325.742 407.3C325.823 407.815 325.759 408.342 325.556 408.823C325.353 409.303 325.02 409.717 324.594 410.018L314.144 417.409L314.308 430.207C314.315 430.728 314.176 431.241 313.907 431.688C313.637 432.134 313.248 432.497 312.783 432.733C312.319 432.97 311.797 433.072 311.277 433.028C310.758 432.983 310.261 432.794 309.843 432.482L299.585 424.827L287.464 428.938C286.97 429.105 286.44 429.13 285.932 429.012C285.425 428.893 284.961 428.635 284.592 428.266C284.224 427.898 283.966 427.434 283.847 426.926C283.729 426.419 283.754 425.888 283.921 425.395L288.031 413.273L280.376 403.015C280.064 402.597 279.875 402.1 279.831 401.581C279.787 401.061 279.889 400.54 280.125 400.075C280.362 399.611 280.724 399.222 281.17 398.952C281.617 398.683 282.13 398.544 282.651 398.551L295.449 398.714L302.84 388.264C303.141 387.838 303.555 387.505 304.035 387.302C304.516 387.099 305.043 387.035 305.558 387.116C306.073 387.198 306.555 387.422 306.95 387.763C307.344 388.105 307.635 388.55 307.789 389.048Z" fill="#E1E4E5" stroke="#E1E4E5" stroke-width="1.5" stroke-linecap="round" stroke-linejoin="round"/>
<path d="M344.15 390.152L337.002 397.301M240.543 344.892L222.672 362.763M222.672 341.318L215.524 348.466" stroke="#E1E4E5" stroke-width="1.5" stroke-linecap="round" stroke-linejoin="round"/>
<path fill-rule="evenodd" clip-rule="evenodd" d="M207.756 361.656L211.555 373.879L223.778 377.678C224.276 377.833 224.721 378.124 225.062 378.518C225.403 378.912 225.627 379.394 225.709 379.909C225.79 380.424 225.726 380.952 225.523 381.432C225.32 381.913 224.987 382.327 224.561 382.627L214.111 390.018L214.275 402.816C214.282 403.338 214.142 403.851 213.873 404.297C213.603 404.743 213.214 405.105 212.75 405.342C212.285 405.579 211.764 405.68 211.244 405.636C210.725 405.592 210.228 405.403 209.81 405.091L199.552 397.436L187.431 401.547C186.937 401.714 186.407 401.739 185.9 401.621C185.392 401.502 184.928 401.243 184.56 400.875C184.191 400.506 183.933 400.042 183.814 399.535C183.696 399.028 183.721 398.497 183.888 398.003L187.998 385.882L180.343 375.624C180.031 375.207 179.842 374.71 179.797 374.19C179.753 373.671 179.855 373.149 180.092 372.684C180.328 372.219 180.69 371.83 181.137 371.561C181.584 371.291 182.097 371.152 182.618 371.159L195.416 371.323L202.807 360.873C203.108 360.447 203.522 360.114 204.002 359.911C204.483 359.709 205.01 359.644 205.525 359.726C206.04 359.807 206.522 360.031 206.916 360.372C207.311 360.714 207.601 361.158 207.756 361.656Z" fill="#E1E4E5" stroke="#E1E4E5" stroke-width="1.5" stroke-linecap="round" stroke-linejoin="round"/>
<path d="M244.117 362.764L236.969 369.912" stroke="#E1E4E5" stroke-width="1.5" stroke-linecap="round" stroke-linejoin="round"/>
<path d="M506.896 313H507.07C508.101 327.614 518.97 327.839 518.97 327.839C518.97 327.839 506.985 328.073 506.985 344.96C506.985 328.073 495 327.839 495 327.839C495 327.839 505.864 327.614 506.896 313ZM616.896 250H617.07C618.101 264.614 628.97 264.839 628.97 264.839C628.97 264.839 616.985 265.073 616.985 281.96C616.985 265.073 605 264.839 605 264.839C605 264.839 615.864 264.614 616.896 250ZM655.896 339H656.07C657.101 353.614 667.97 353.839 667.97 353.839C667.97 353.839 655.985 354.073 655.985 370.96C655.985 354.073 644 353.839 644 353.839C644 353.839 654.864 353.614 655.896 339ZM587.896 401H588.07C589.101 415.614 599.97 415.839 599.97 415.839C599.97 415.839 587.985 416.073 587.985 432.96C587.985 416.073 576 415.839 576 415.839C576 415.839 586.864 415.614 587.896 401ZM733.896 436H734.07C735.101 450.614 745.97 450.839 745.97 450.839C745.97 450.839 733.985 451.073 733.985 467.96C733.985 451.073 722 450.839 722 450.839C722 450.839 732.864 450.614 733.896 436ZM360.896 296H361.07C362.101 310.614 372.97 310.839 372.97 310.839C372.97 310.839 360.985 311.073 360.985 327.96C360.985 311.073 349 310.839 349 310.839C349 310.839 359.864 310.614 360.896 296ZM178.896 313H179.07C180.101 327.614 190.97 327.839 190.97 327.839C190.97 327.839 178.985 328.073 178.985 344.96C178.985 328.073 167 327.839 167 327.839C167 327.839 177.864 327.614 178.896 313ZM135.896 408H136.07C137.101 422.614 147.97 422.839 147.97 422.839C147.97 422.839 135.985 423.073 135.985 439.96C135.985 423.073 124 422.839 124 422.839C124 422.839 134.864 422.614 135.896 408ZM327.896 465H328.07C329.101 479.614 339.97 479.839 339.97 479.839C339.97 479.839 327.985 480.073 327.985 496.96C327.985 480.073 316 479.839 316 479.839C316 479.839 326.864 479.614 327.896 465ZM393.896 152H394.07C395.101 166.614 405.97 166.839 405.97 166.839C405.97 166.839 393.985 167.073 393.985 183.96C393.985 167.073 382 166.839 382 166.839C382 166.839 392.864 166.614 393.896 152ZM179.896 180H180.07C181.101 194.614 191.97 194.839 191.97 194.839C191.97 194.839 179.985 195.073 179.985 211.96C179.985 195.073 168 194.839 168 194.839C168 194.839 178.864 194.614 179.896 180Z" fill="#E1E4E5"/>
</g>
<defs>
<clipPath id="clip0_1235_23088">
<rect width="900" height="600" fill="white"/>
</clipPath>
</defs>
</svg>
