<svg width="900" height="600" viewBox="0 0 900 600" fill="none" xmlns="http://www.w3.org/2000/svg">
<g clip-path="url(#clip0_1235_23156)">
<path fill-rule="evenodd" clip-rule="evenodd" d="M127 452.551C127 452.551 209.957 386.931 326.519 386.01C443.609 385.084 536.765 450.304 545.346 453.674L127 452.551Z" fill="white" stroke="#E1E4E5" stroke-width="4"/>
<path fill-rule="evenodd" clip-rule="evenodd" d="M355.654 452.551C355.654 452.551 438.611 386.931 555.173 386.01C672.263 385.084 765.418 450.304 774 453.674L355.654 452.551Z" fill="white" stroke="#E1E4E5" stroke-width="4"/>
<path fill-rule="evenodd" clip-rule="evenodd" d="M262.348 452.551C262.348 452.551 345.305 386.931 461.867 386.01C578.957 385.084 672.112 450.304 680.694 453.674L262.348 452.551Z" fill="white" stroke="#E1E4E5" stroke-width="4"/>
<path d="M225.435 452.648V439.318" stroke="#E1E4E5" stroke-width="4"/>
<path d="M342.326 452.648V439.318" stroke="#E1E4E5" stroke-width="4"/>
<path d="M543.295 452.648V439.318" stroke="#E1E4E5" stroke-width="4"/>
<path d="M711.454 452.648V439.318" stroke="#E1E4E5" stroke-width="4"/>
<path d="M239.791 452.648V443.42" stroke="#E1E4E5" stroke-width="4"/>
<path d="M355.654 452.648V443.42" stroke="#E1E4E5" stroke-width="4"/>
<path d="M557.65 452.648V443.42" stroke="#E1E4E5" stroke-width="4"/>
<path d="M725.808 452.648V443.42" stroke="#E1E4E5" stroke-width="4"/>
<path d="M211.079 452.648V443.42" stroke="#E1E4E5" stroke-width="4"/>
<path d="M327.971 452.648V443.42" stroke="#E1E4E5" stroke-width="4"/>
<path d="M528.939 452.648V443.42" stroke="#E1E4E5" stroke-width="4"/>
<path d="M697.099 452.648V443.42" stroke="#E1E4E5" stroke-width="4"/>
<path fill-rule="evenodd" clip-rule="evenodd" d="M639.186 255.867H639.258C640.205 255.867 641.113 256.243 641.782 256.913C642.452 257.582 642.828 258.49 642.828 259.437V420.417H635.616V259.437C635.616 258.49 635.992 257.582 636.662 256.913C637.331 256.243 638.239 255.867 639.186 255.867Z" fill="white" stroke="#E1E4E5" stroke-width="4"/>
<path fill-rule="evenodd" clip-rule="evenodd" d="M576 331.236C576 366.305 604.429 394.737 639.5 394.737C674.571 394.737 703 366.305 703 331.236C703 296.166 674.571 227 639.5 227C604.429 227 576 296.166 576 331.236Z" fill="white"/>
<path d="M576 331.236C576 366.305 604.429 394.737 639.5 394.737C674.571 394.737 703 366.305 703 331.236C703 296.166 674.571 227 639.5 227C604.429 227 576 296.166 576 331.236Z" stroke="#E1E4E5" stroke-width="4"/>
<path fill-rule="evenodd" clip-rule="evenodd" d="M253.186 255.867H253.258C254.205 255.867 255.113 256.243 255.782 256.913C256.452 257.582 256.828 258.49 256.828 259.437V420.417H249.616V259.437C249.616 258.49 249.992 257.582 250.662 256.913C251.331 256.243 252.239 255.867 253.186 255.867Z" fill="white" stroke="#E1E4E5" stroke-width="4"/>
<path fill-rule="evenodd" clip-rule="evenodd" d="M190 331.236C190 366.305 218.429 394.737 253.5 394.737C288.571 394.737 317 366.305 317 331.236C317 296.166 288.571 227 253.5 227C218.429 227 190 296.166 190 331.236Z" fill="white"/>
<path d="M190 331.236C190 366.305 218.429 394.737 253.5 394.737C288.571 394.737 317 366.305 317 331.236C317 296.166 288.571 227 253.5 227C218.429 227 190 296.166 190 331.236Z" stroke="#E1E4E5" stroke-width="4"/>
<path fill-rule="evenodd" clip-rule="evenodd" d="M157.339 351.773H157.376C158.385 351.773 159.204 352.591 159.204 353.601V435.992H155.512V353.601C155.512 352.591 156.33 351.773 157.339 351.773Z" fill="white" stroke="#E1E4E5" stroke-width="4"/>
<path fill-rule="evenodd" clip-rule="evenodd" d="M125 390.349C125 408.298 139.55 422.85 157.5 422.85C175.45 422.85 190 408.298 190 390.349C190 372.4 175.45 337 157.5 337C139.55 337 125 372.4 125 390.349Z" fill="white"/>
<path d="M125 390.349C125 408.298 139.55 422.85 157.5 422.85C175.45 422.85 190 408.298 190 390.349C190 372.4 175.45 337 157.5 337C139.55 337 125 372.4 125 390.349Z" stroke="#E1E4E5" stroke-width="4"/>
<path fill-rule="evenodd" clip-rule="evenodd" d="M305.539 422.297H305.565C306.268 422.297 306.838 422.867 306.838 423.57V480.993H304.265V423.57C304.265 422.867 304.836 422.297 305.539 422.297Z" fill="white" stroke="#E1E4E5" stroke-width="4"/>
<path fill-rule="evenodd" clip-rule="evenodd" d="M283 449.182C283 461.691 293.141 471.833 305.651 471.833C318.161 471.833 328.302 461.691 328.302 449.182C328.302 436.672 318.161 412 305.651 412C293.141 412 283 436.672 283 449.182Z" fill="white"/>
<path d="M283 449.182C283 461.691 293.141 471.833 305.651 471.833C318.161 471.833 328.302 461.691 328.302 449.182C328.302 436.672 318.161 412 305.651 412C293.141 412 283 436.672 283 449.182Z" stroke="#E1E4E5" stroke-width="4"/>
<path fill-rule="evenodd" clip-rule="evenodd" d="M741.339 367.773H741.376C742.385 367.773 743.204 368.591 743.204 369.601V451.992H739.512V369.601C739.512 368.591 740.33 367.773 741.339 367.773Z" fill="white" stroke="#E1E4E5" stroke-width="4"/>
<path fill-rule="evenodd" clip-rule="evenodd" d="M709 406.349C709 424.298 723.55 438.85 741.5 438.85C759.45 438.85 774 424.298 774 406.349C774 388.4 759.45 353 741.5 353C723.55 353 709 388.4 709 406.349Z" fill="white"/>
<path d="M709 406.349C709 424.298 723.55 438.85 741.5 438.85C759.45 438.85 774 424.298 774 406.349C774 388.4 759.45 353 741.5 353C723.55 353 709 388.4 709 406.349Z" stroke="#E1E4E5" stroke-width="4"/>
<path fill-rule="evenodd" clip-rule="evenodd" d="M91.9011 429.092H91.9241C92.5441 429.092 93.0481 429.595 93.0481 430.216V480.919H90.7771V430.216C90.7771 429.595 91.2801 429.092 91.9011 429.092Z" fill="white" stroke="#E1E4E5" stroke-width="4"/>
<path fill-rule="evenodd" clip-rule="evenodd" d="M72 452.83C72 463.876 80.954 472.83 92 472.83C103.046 472.83 112 463.876 112 452.83C112 441.785 103.046 420 92 420C80.954 420 72 441.785 72 452.83Z" fill="white"/>
<path d="M72 452.83C72 463.876 80.954 472.83 92 472.83C103.046 472.83 112 463.876 112 452.83C112 441.785 103.046 420 92 420C80.954 420 72 441.785 72 452.83Z" stroke="#E1E4E5" stroke-width="4"/>
<path fill-rule="evenodd" clip-rule="evenodd" d="M619.901 429.092H619.924C620.545 429.092 621.048 429.595 621.048 430.216V480.919H618.777V430.216C618.777 429.595 619.28 429.092 619.901 429.092Z" fill="white" stroke="#E1E4E5" stroke-width="4"/>
<path fill-rule="evenodd" clip-rule="evenodd" d="M600 452.83C600 463.876 608.954 472.83 620 472.83C631.046 472.83 640 463.876 640 452.83C640 441.785 631.046 420 620 420C608.954 420 600 441.785 600 452.83Z" fill="white"/>
<path d="M600 452.83C600 463.876 608.954 472.83 620 472.83C631.046 472.83 640 463.876 640 452.83C640 441.785 631.046 420 620 420C608.954 420 600 441.785 600 452.83Z" stroke="#E1E4E5" stroke-width="4"/>
<path fill-rule="evenodd" clip-rule="evenodd" d="M808.901 423.092H808.924C809.545 423.092 810.048 423.595 810.048 424.216V474.919H807.777V424.216C807.777 423.595 808.28 423.092 808.901 423.092Z" fill="white" stroke="#E1E4E5" stroke-width="4"/>
<path fill-rule="evenodd" clip-rule="evenodd" d="M789 446.83C789 457.876 797.954 466.83 809 466.83C820.046 466.83 829 457.876 829 446.83C829 435.785 820.046 414 809 414C797.954 414 789 435.785 789 446.83Z" fill="white"/>
<path d="M789 446.83C789 457.876 797.954 466.83 809 466.83C820.046 466.83 829 457.876 829 446.83C829 435.785 820.046 414 809 414C797.954 414 789 435.785 789 446.83Z" stroke="#E1E4E5" stroke-width="4"/>
<path d="M450 414C537.813 414 609 342.813 609 255C609 167.187 537.813 96 450 96C362.187 96 291 167.187 291 255C291 342.813 362.187 414 450 414Z" fill="#4F27AA"/>
<path fill-rule="evenodd" clip-rule="evenodd" d="M450.076 240.799C489.289 240.799 521.077 272.587 521.077 311.8C521.077 324.871 510.481 335.467 497.41 335.467H402.743C389.672 335.467 379.076 324.871 379.076 311.8C379.076 272.587 410.864 240.799 450.076 240.799Z" fill="white"/>
<path d="M389.051 201.682C387.702 201.686 386.41 202.225 385.459 203.181C384.508 204.137 383.975 205.432 383.979 206.781C383.983 208.13 384.522 209.422 385.478 210.373C386.434 211.324 387.729 211.857 389.078 211.853C390.426 211.851 391.718 211.315 392.67 210.361C393.622 209.407 394.157 208.115 394.157 206.767C394.159 206.097 394.029 205.433 393.773 204.813C393.517 204.194 393.14 203.632 392.666 203.159C392.191 202.686 391.627 202.312 391.006 202.058C390.386 201.805 389.721 201.677 389.051 201.682M511.102 201.682C509.753 201.686 508.461 202.225 507.51 203.181C506.559 204.137 506.026 205.432 506.03 206.781C506.034 208.13 506.573 209.422 507.529 210.373C508.485 211.324 509.78 211.857 511.129 211.853C512.477 211.851 513.768 211.314 514.721 210.361C515.673 209.407 516.208 208.115 516.208 206.767C516.21 206.097 516.08 205.433 515.824 204.813C515.568 204.194 515.191 203.632 514.717 203.159C514.242 202.686 513.678 202.312 513.057 202.058C512.437 201.805 511.772 201.677 511.102 201.682M450.077 181.338C449.072 181.342 448.091 181.644 447.257 182.205C446.423 182.766 445.774 183.562 445.392 184.492C445.011 185.421 444.913 186.443 445.111 187.428C445.31 188.414 445.796 189.318 446.508 190.027C447.22 190.737 448.126 191.219 449.112 191.414C450.098 191.608 451.12 191.506 452.048 191.121C452.976 190.735 453.769 190.084 454.327 189.248C454.885 188.412 455.183 187.429 455.183 186.424C455.186 185.754 455.055 185.09 454.799 184.47C454.543 183.851 454.167 183.288 453.692 182.815C453.217 182.342 452.653 181.968 452.032 181.714C451.412 181.461 450.747 181.333 450.077 181.338" stroke="white" stroke-width="30.5" stroke-linecap="round" stroke-linejoin="round"/>
<path d="M752.24 328.865C741.098 331.505 729.313 322.056 729.313 322.056C729.313 322.056 735.602 308.332 746.748 305.7C757.89 303.061 769.671 312.502 769.671 312.502C769.671 312.502 763.382 326.226 752.24 328.865Z" fill="url(#paint0_linear_1235_23156)"/>
<path d="M146.142 495.456C133.342 498.488 119.805 487.634 119.805 487.634C119.805 487.634 127.029 471.869 139.833 468.846C152.632 465.814 166.165 476.659 166.165 476.659C166.165 476.659 158.941 492.424 146.142 495.456Z" fill="url(#paint1_linear_1235_23156)"/>
<path d="M259.373 187.456C263.736 196.47 276.653 199.244 276.653 199.244C276.653 199.244 282.487 187.4 278.117 178.388C273.754 169.374 260.845 166.598 260.845 166.598C260.845 166.598 255.01 178.442 259.373 187.456Z" fill="url(#paint2_linear_1235_23156)"/>
<path d="M721 232C716.029 232 712 235.806 712 240.5C712 245.194 716.029 249 721 249C725.971 249 730 245.194 730 240.5C730 235.806 725.971 232 721 232Z" fill="#4F27AA"/>
<path d="M410.5 473C407.462 473 405 475.462 405 478.5C405 481.538 407.462 484 410.5 484C413.538 484 416 481.538 416 478.5C416 475.462 413.538 473 410.5 473Z" fill="#E1E4E5"/>
<path d="M170 304C166.686 304 164 301.314 164 298C164 294.686 166.686 292 170 292C173.314 292 176 294.686 176 298C176 301.314 173.314 304 170 304Z" fill="#4F27AA"/>
<path d="M545 485C540.029 485 536 481.194 536 476.5C536 471.806 540.029 468 545 468C549.971 468 554 471.806 554 476.5C554 481.194 549.971 485 545 485Z" fill="#E1E4E5"/>
<path d="M472 436C469.239 436 467 433.761 467 431C467 428.239 469.239 426 472 426C474.761 426 477 428.239 477 431C477 433.761 474.761 436 472 436Z" fill="#E1E4E5"/>
<path d="M697.5 477C694.462 477 692 474.314 692 471C692 467.686 694.462 465 697.5 465C700.538 465 703 467.686 703 471C703 474.314 700.538 477 697.5 477Z" fill="#E1E4E5"/>
<path d="M595.5 144C593.015 144 591 141.985 591 139.5C591 137.015 593.015 135 595.5 135C597.985 135 600 137.015 600 139.5C600 141.985 597.985 144 595.5 144Z" fill="#E1E4E5"/>
<path d="M254.668 480.553C256.082 485.83 252.95 491.253 247.674 492.667C242.397 494.081 236.974 490.95 235.56 485.673C234.146 480.397 237.277 474.973 242.554 473.559C247.83 472.145 253.254 475.277 254.668 480.553Z" fill="#E1E4E5"/>
<path d="M632.916 185.426C634.607 191.737 630.861 198.224 624.551 199.915C618.24 201.606 611.753 197.861 610.062 191.55C608.371 185.239 612.116 178.752 618.427 177.061C624.738 175.37 631.225 179.115 632.916 185.426Z" fill="#E1E4E5"/>
</g>
<defs>
<linearGradient id="paint0_linear_1235_23156" x1="710.281" y1="335.428" x2="807.82" y2="289.348" gradientUnits="userSpaceOnUse">
<stop stop-color="white"/>
<stop offset="1" stop-color="#EEEEEE"/>
</linearGradient>
<linearGradient id="paint1_linear_1235_23156" x1="97.9439" y1="502.995" x2="209.986" y2="450.062" gradientUnits="userSpaceOnUse">
<stop stop-color="white"/>
<stop offset="1" stop-color="#EEEEEE"/>
</linearGradient>
<linearGradient id="paint2_linear_1235_23156" x1="278.094" y1="219.536" x2="255.48" y2="127.939" gradientUnits="userSpaceOnUse">
<stop stop-color="white"/>
<stop offset="1" stop-color="#EEEEEE"/>
</linearGradient>
<clipPath id="clip0_1235_23156">
<rect width="900" height="600" fill="white"/>
</clipPath>
</defs>
</svg>
