<svg width="900" height="600" viewBox="0 0 900 600" fill="none" xmlns="http://www.w3.org/2000/svg">
<g clip-path="url(#clip0_1235_23224)">
<path d="M588.179 387.427H630.784C642.543 387.427 652.087 396.97 652.087 408.729V451.334C652.087 463.093 642.543 472.636 630.784 472.636H588.179C576.42 472.636 566.877 463.093 566.877 451.334V408.729C566.877 396.97 576.42 387.427 588.179 387.427ZM289.945 89.1934H332.55C344.309 89.1934 353.852 98.7364 353.852 110.495V153.1C353.852 164.859 344.309 174.402 332.55 174.402H289.945C278.186 174.402 268.643 164.859 268.643 153.1V110.495C268.643 98.7364 278.186 89.1934 289.945 89.1934V89.1934Z" stroke="#E1E4E5" stroke-width="8" stroke-linecap="round" stroke-linejoin="round"/>
<path d="M439.062 238.311H481.667C493.426 238.311 502.97 247.854 502.97 259.613V302.218C502.97 313.977 493.426 323.521 481.667 323.521H439.062C427.303 323.521 417.76 313.977 417.76 302.218V259.613C417.76 247.854 427.303 238.311 439.062 238.311Z" stroke="#E1E4E5" stroke-width="12" stroke-linecap="round" stroke-linejoin="round"/>
<path d="M439.062 131.799H609.482C633.021 131.799 652.087 150.865 652.087 174.404V238.312C652.087 261.851 633.021 280.916 609.482 280.916H566.877M481.667 430.034H311.248C287.708 430.034 268.643 410.968 268.643 387.429V323.521C268.643 299.982 287.708 280.917 311.248 280.917H353.852" stroke="#E1E4E5" stroke-width="8" stroke-linecap="round" stroke-linejoin="round"/>
<path d="M467.383 359.726C510.866 359.726 546.116 324.476 546.116 280.993C546.116 237.51 510.866 202.26 467.383 202.26C423.9 202.26 388.65 237.51 388.65 280.993C388.65 324.476 423.9 359.726 467.383 359.726Z" fill="#4F27AA" stroke="#4F27AA" stroke-width="11.812" stroke-linecap="round" stroke-linejoin="round"/>
<path d="M475.715 251.834L459.052 310.155M440.296 289.323L423.64 272.667L440.296 256.001M494.455 305.988L511.12 289.323L494.455 272.667" stroke="white" stroke-width="9.45" stroke-linecap="round" stroke-linejoin="round"/>
<path d="M847.652 131.701H696.535C694.505 131.701 692.86 133.347 692.86 135.376C692.86 137.406 694.505 139.051 696.535 139.051H847.652C849.682 139.051 851.327 137.406 851.327 135.376C851.327 133.347 849.682 131.701 847.652 131.701Z" fill="#E1E4E5"/>
<path d="M824.518 299.424H673.401C671.371 299.424 669.726 301.069 669.726 303.099C669.726 305.128 671.371 306.774 673.401 306.774H824.518C826.548 306.774 828.193 305.128 828.193 303.099C828.193 301.069 826.548 299.424 824.518 299.424Z" fill="#E1E4E5"/>
<path d="M251.955 206.887H100.838C98.8084 206.887 97.1631 208.532 97.1631 210.562C97.1631 212.591 98.8084 214.237 100.838 214.237H251.955C253.985 214.237 255.63 212.591 255.63 210.562C255.63 208.532 253.985 206.887 251.955 206.887Z" fill="#E1E4E5"/>
<path d="M243.858 445.166H92.7409C90.7113 445.166 89.0659 446.811 89.0659 448.841C89.0659 450.871 90.7113 452.516 92.7409 452.516H243.858C245.888 452.516 247.533 450.871 247.533 448.841C247.533 446.811 245.888 445.166 243.858 445.166Z" fill="#E1E4E5"/>
<path d="M847.652 169.873H696.535C694.505 169.873 692.86 171.518 692.86 173.548C692.86 175.578 694.505 177.223 696.535 177.223H847.652C849.682 177.223 851.327 175.578 851.327 173.548C851.327 171.518 849.682 169.873 847.652 169.873Z" fill="#E1E4E5"/>
<path d="M824.518 337.594H673.401C671.371 337.594 669.726 339.239 669.726 341.269C669.726 343.298 671.371 344.944 673.401 344.944H824.518C826.548 344.944 828.193 343.298 828.193 341.269C828.193 339.239 826.548 337.594 824.518 337.594Z" fill="#E1E4E5"/>
<path d="M251.955 245.059H100.838C98.8084 245.059 97.1631 246.704 97.1631 248.734C97.1631 250.763 98.8084 252.409 100.838 252.409H251.955C253.985 252.409 255.63 250.763 255.63 248.734C255.63 246.704 253.985 245.059 251.955 245.059Z" fill="#E1E4E5"/>
<path d="M243.858 483.338H92.7409C90.7113 483.338 89.0659 484.983 89.0659 487.013C89.0659 489.043 90.7113 490.688 92.7409 490.688H243.858C245.888 490.688 247.533 489.043 247.533 487.013C247.533 484.983 245.888 483.338 243.858 483.338Z" fill="#E1E4E5"/>
<path d="M764.964 231.931C780.703 228.202 797.35 241.55 797.35 241.55C797.35 241.55 788.466 260.936 772.722 264.653C756.983 268.382 740.341 255.046 740.341 255.046C740.341 255.046 749.225 235.66 764.964 231.931Z" fill="url(#paint0_linear_1235_23224)"/>
<path d="M207.865 337.202C216.621 337.202 223.719 330.104 223.719 321.348C223.719 312.592 216.621 305.494 207.865 305.494C199.109 305.494 192.011 312.592 192.011 321.348C192.011 330.104 199.109 337.202 207.865 337.202Z" fill="#4F27AA"/>
<path d="M840.096 224.526C846.67 224.526 851.999 229.855 851.999 236.429C851.999 243.003 846.67 248.332 840.096 248.332C833.522 248.332 828.193 243.003 828.193 236.429C828.193 229.855 833.522 224.526 840.096 224.526Z" fill="#4F27AA"/>
<path d="M584.467 174.79C591.041 174.79 596.37 180.119 596.37 186.693C596.37 193.267 591.041 198.596 584.467 198.596C577.893 198.596 572.564 193.267 572.564 186.693C572.564 180.119 577.893 174.79 584.467 174.79Z" fill="#4F27AA"/>
<path d="M326.936 482.47C339.487 482.47 349.661 492.644 349.661 505.195C349.661 517.746 339.487 527.92 326.936 527.92C314.385 527.92 304.211 517.746 304.211 505.195C304.211 492.644 314.385 482.47 326.936 482.47Z" fill="#4F27AA"/>
<path d="M609.537 417.695C616.542 417.695 622.22 423.373 622.22 430.378C622.22 437.382 616.542 443.061 609.537 443.061C602.532 443.061 596.854 437.382 596.854 430.378C596.854 423.373 602.532 417.695 609.537 417.695Z" fill="#E1E4E5"/>
<path d="M439.955 483.626C445.931 483.626 450.776 488.47 450.776 494.447C450.776 500.423 445.931 505.268 439.955 505.268C433.979 505.268 429.134 500.423 429.134 494.447C429.134 488.47 433.979 483.626 439.955 483.626Z" fill="#E1E4E5"/>
<path d="M733.767 410.25C732.256 404.608 735.604 398.81 741.245 397.298C746.886 395.786 752.685 399.134 754.197 404.776C755.708 410.417 752.36 416.216 746.719 417.727C741.078 419.239 735.279 415.891 733.767 410.25Z" fill="#E1E4E5"/>
<path d="M729.916 93.9538C737.686 93.9538 743.984 100.252 743.984 108.022C743.984 115.791 737.686 122.09 729.916 122.09C722.147 122.09 715.848 115.791 715.848 108.022C715.848 100.252 722.147 93.9538 729.916 93.9538Z" fill="#E1E4E5"/>
<path d="M59.403 284.653C65.3793 284.653 70.224 288.529 70.224 293.31C70.224 298.091 65.3793 301.967 59.403 301.967C53.4268 301.967 48.582 298.091 48.582 293.31C48.582 288.529 53.4268 284.653 59.403 284.653Z" fill="#E1E4E5"/>
<path d="M195.819 96.0626C193.597 87.7699 198.518 79.246 206.811 77.024C215.104 74.8019 223.627 79.7232 225.849 88.0159C228.071 96.3087 223.15 104.833 214.857 107.055C206.565 109.277 198.041 104.355 195.819 96.0626Z" fill="#E1E4E5"/>
<path d="M129.51 372.474H129.227C127.55 348.722 109.886 348.357 109.886 348.357C109.886 348.357 129.365 347.977 129.365 320.532C129.365 347.977 148.843 348.357 148.843 348.357C148.843 348.357 131.186 348.722 129.51 372.474ZM143.795 141.468H143.59C142.373 123.772 129.55 123.5 129.55 123.5C129.55 123.5 143.69 123.216 143.69 102.77C143.69 123.216 157.829 123.5 157.829 123.5C157.829 123.5 145.012 123.772 143.795 141.468Z" fill="#E1E4E5"/>
</g>
<defs>
<linearGradient id="paint0_linear_1235_23224" x1="824.233" y1="222.66" x2="686.453" y2="287.752" gradientUnits="userSpaceOnUse">
<stop stop-color="white"/>
<stop offset="1" stop-color="#EEEEEE"/>
</linearGradient>
<clipPath id="clip0_1235_23224">
<rect width="900" height="600" fill="white"/>
</clipPath>
</defs>
</svg>
