<svg width="900" height="600" viewBox="0 0 900 600" fill="none" xmlns="http://www.w3.org/2000/svg">
<g clip-path="url(#clip0_1235_23251)">
<path d="M344.18 443.621H569.441C587.213 443.621 601.621 429.213 601.621 411.441V186.18C601.621 168.408 587.213 154 569.441 154H408.54C390.768 154 376.36 168.408 376.36 186.18V411.441C376.36 429.213 361.953 443.621 344.18 443.621C326.408 443.621 312 429.213 312 411.441V234.45C312 216.678 326.408 202.27 344.18 202.27H376.36M432.676 218.36H545.306M432.676 282.721H545.306M432.676 347.082H545.306M619.847 443.621H744.774C754.63 443.621 762.621 435.63 762.621 425.774V300.847C762.621 290.99 754.63 283 744.774 283H655.54C645.684 283 637.693 290.99 637.693 300.847V425.774C637.693 435.63 629.703 443.621 619.847 443.621ZM619.847 443.621C609.99 443.621 602 435.63 602 425.774V327.617C602 317.76 609.99 309.77 619.847 309.77H637.693M668.926 318.694H731.389M668.926 354.387H731.389M668.926 390.081H731.389M168.847 443.621H293.774C303.63 443.621 311.621 435.63 311.621 425.774V300.847C311.621 290.99 303.63 283 293.774 283H204.54C194.684 283 186.693 290.99 186.693 300.847V425.774C186.693 435.63 178.703 443.621 168.847 443.621C158.99 443.621 151 435.63 151 425.774V327.617C151 317.76 158.99 309.77 168.847 309.77H186.693M217.926 318.694H280.389M217.926 354.387H280.389M217.926 390.081H280.389" stroke="#E1E4E5" stroke-width="4" stroke-linecap="round" stroke-linejoin="round"/>
<path d="M617.435 481.617C627.531 484.009 638.209 475.447 638.209 475.447C638.209 475.447 632.511 463.012 622.412 460.627C612.316 458.236 601.641 466.79 601.641 466.79C601.641 466.79 607.339 479.225 617.435 481.617Z" fill="url(#paint0_linear_1235_23251)"/>
<path d="M687.933 196.901C666.928 211.37 634.837 201.256 634.837 201.256C634.837 201.256 636.824 167.688 657.844 153.233C678.849 138.765 710.926 148.865 710.926 148.865C710.926 148.865 708.939 182.433 687.933 196.901Z" fill="url(#paint1_linear_1235_23251)"/>
<path d="M231.985 182.942C244.532 195.712 267.995 193.02 267.995 193.02C267.995 193.02 271.1 169.622 258.541 156.86C245.994 144.09 222.543 146.774 222.543 146.774C222.543 146.774 219.438 170.172 231.985 182.942Z" fill="url(#paint2_linear_1235_23251)"/>
<path d="M107.78 401.001C113.734 401.001 118.56 405.827 118.56 411.781C118.56 417.734 113.734 422.561 107.78 422.561C101.826 422.561 97 417.734 97 411.781C97 405.827 101.826 401.001 107.78 401.001Z" fill="#4F27AA"/>
<path d="M543.064 461.271C549.656 461.271 555 466.348 555 472.61C555 478.873 549.656 483.949 543.064 483.949C536.472 483.949 531.128 478.873 531.128 472.61C531.128 466.348 536.472 461.271 543.064 461.271Z" fill="#4F27AA"/>
<path d="M186.452 268.904C194.986 268.904 201.904 261.986 201.904 253.452C201.904 244.918 194.986 238 186.452 238C177.918 238 171 244.918 171 253.452C171 261.986 177.918 268.904 186.452 268.904Z" fill="#4F27AA"/>
<path d="M419.995 482.651C425.928 482.651 430.738 478.109 430.738 472.505C430.738 466.902 425.928 462.359 419.995 462.359C414.062 462.359 409.252 466.902 409.252 472.505C409.252 478.109 414.062 482.651 419.995 482.651Z" fill="#E1E4E5"/>
<path d="M794.376 454.246C799.139 454.246 803 450.385 803 445.622C803 440.859 799.139 436.998 794.376 436.998C789.613 436.998 785.752 440.859 785.752 445.622C785.752 450.385 789.613 454.246 794.376 454.246Z" fill="#E1E4E5"/>
<path d="M348.351 498.488C351.196 498.488 353.502 496.181 353.502 493.337C353.502 490.492 351.196 488.186 348.351 488.186C345.506 488.186 343.2 490.492 343.2 493.337C343.2 496.181 345.506 498.488 348.351 498.488Z" fill="#E1E4E5"/>
<path d="M391.618 134.046C395.681 134.046 398.976 130.752 398.976 126.688C398.976 122.624 395.681 119.33 391.618 119.33C387.554 119.33 384.26 122.624 384.26 126.688C384.26 130.752 387.554 134.046 391.618 134.046Z" fill="#E1E4E5"/>
<path d="M687.843 482.245C686.815 486.08 689.091 490.023 692.927 491.051C696.763 492.078 700.705 489.802 701.733 485.966C702.761 482.131 700.484 478.188 696.649 477.161C692.813 476.133 688.871 478.409 687.843 482.245Z" fill="#E1E4E5"/>
<path d="M713.73 255.517C719.013 255.517 723.295 251.234 723.295 245.952C723.295 240.669 719.013 236.387 713.73 236.387C708.447 236.387 704.165 240.669 704.165 245.952C704.165 251.234 708.447 255.517 713.73 255.517Z" fill="#E1E4E5"/>
<path d="M119.256 346.573C123.32 346.573 126.614 343.938 126.614 340.687C126.614 337.436 123.32 334.801 119.256 334.801C115.192 334.801 111.898 337.436 111.898 340.687C111.898 343.938 115.192 346.573 119.256 346.573Z" fill="#E1E4E5"/>
<path d="M220 487.581C220 493.977 225.185 499.162 231.581 499.162C237.977 499.162 243.162 493.977 243.162 487.581C243.162 481.185 237.977 476 231.581 476C225.185 476 220 481.185 220 487.581Z" fill="#E1E4E5"/>
<path d="M287.556 233H287.447C286.801 242.145 280 242.286 280 242.286C280 242.286 287.5 242.433 287.5 253C287.5 242.433 295 242.286 295 242.286C295 242.286 288.201 242.145 287.556 233ZM602.032 101H601.844C600.731 117.431 589 117.684 589 117.684C589 117.684 601.936 117.947 601.936 136.932C601.936 117.947 614.871 117.684 614.871 117.684C614.871 117.684 603.145 117.431 602.032 101ZM785.629 334.111H785.441C784.328 350.542 772.597 350.795 772.597 350.795C772.597 350.795 785.533 351.058 785.533 370.043C785.533 351.058 798.468 350.795 798.468 350.795C798.468 350.795 786.742 350.542 785.629 334.111ZM343.032 157H342.844C341.731 173.431 330 173.684 330 173.684C330 173.684 342.936 173.947 342.936 192.932C342.936 173.947 355.871 173.684 355.871 173.684C355.871 173.684 344.145 173.431 343.032 157ZM631.737 243H631.597C630.765 255.277 622 255.466 622 255.466C622 255.466 631.665 255.662 631.665 269.848C631.665 255.662 641.33 255.466 641.33 255.466C641.33 255.466 632.569 255.277 631.737 243Z" fill="#E1E4E5"/>
</g>
<defs>
<linearGradient id="paint0_linear_1235_23251" x1="655.453" y1="487.564" x2="567.075" y2="445.811" gradientUnits="userSpaceOnUse">
<stop stop-color="white"/>
<stop offset="1" stop-color="#EEEEEE"/>
</linearGradient>
<linearGradient id="paint1_linear_1235_23251" x1="606.109" y1="244.374" x2="771.458" y2="70.0164" gradientUnits="userSpaceOnUse">
<stop stop-color="white"/>
<stop offset="1" stop-color="#EEEEEE"/>
</linearGradient>
<linearGradient id="paint2_linear_1235_23251" x1="282.046" y1="226.563" x2="191.338" y2="84.3702" gradientUnits="userSpaceOnUse">
<stop stop-color="white"/>
<stop offset="1" stop-color="#EEEEEE"/>
</linearGradient>
<clipPath id="clip0_1235_23251">
<rect width="900" height="600" fill="white"/>
</clipPath>
</defs>
</svg>
