<svg width="900" height="600" viewBox="0 0 900 600" fill="none" xmlns="http://www.w3.org/2000/svg">
<g clip-path="url(#clip0_1235_23269)">
<path d="M693.628 397.155C696.464 449.408 594.304 555.66 468.385 516.333C409.822 498.04 414.782 467.679 370.251 427.666C343.707 403.817 305.569 385.784 294.962 351.118C285.799 321.196 291.418 289.035 307.304 268.116C343.033 221.071 415.161 188.856 486.23 262.98C557.299 337.104 686.3 262.389 693.628 397.155Z" fill="url(#paint0_linear_1235_23269)"/>
<path d="M652.126 174.455C643.729 189.441 625.339 191.5 595.878 188.652C573.72 186.507 553.515 184.846 531.356 172.765C515.846 164.315 503.569 152.882 494.608 141.778C484.898 129.749 471.345 116.02 477.989 102.381C487.119 83.6453 539.922 67.8653 591.194 93.6713C647.518 122.025 660.34 159.809 652.126 174.455Z" fill="url(#paint1_linear_1235_23269)"/>
<path d="M603.451 76.981C602.905 76.7849 602.353 76.6071 601.795 76.448C601.61 76.395 601.428 76.338 601.243 76.291C600.846 76.1905 600.449 76.0951 600.05 76.005C599.859 75.9638 599.667 75.9254 599.475 75.89C599.075 75.8151 598.673 75.7478 598.271 75.688C598.036 75.6551 597.8 75.6251 597.564 75.598C597.121 75.5469 596.677 75.5076 596.233 75.48C596.09 75.472 595.947 75.458 595.804 75.453C595.383 75.4326 594.962 75.4222 594.541 75.422H400.449C399.115 75.4183 397.782 75.5196 396.464 75.725C396.033 75.7912 395.603 75.8678 395.176 75.955C384.099 78.223 375.574 87.508 374.412 98.972C374.322 99.856 374.277 100.75 374.277 101.656V499.309C374.277 510.664 381.473 520.331 391.544 523.984C391.589 524.001 391.634 524.015 391.679 524.029C392.179 524.205 392.686 524.368 393.197 524.514C393.382 524.567 393.565 524.623 393.753 524.671C393.949 524.721 394.146 524.769 394.342 524.817C394.541 524.864 394.743 524.912 394.945 524.957C395.136 524.999 395.327 525.035 395.521 525.072C395.92 525.146 396.32 525.214 396.722 525.274C396.955 525.307 397.191 525.335 397.429 525.363C397.871 525.414 398.315 525.454 398.759 525.481C398.902 525.489 399.045 525.504 399.189 525.509C399.607 525.529 400.028 525.54 400.451 525.54H594.547C595.45 525.54 596.343 525.495 597.224 525.405C609.541 524.152 619.335 514.334 620.586 501.987C620.676 501.103 620.721 500.209 620.721 499.304V101.656C620.715 90.301 613.52 80.634 603.451 76.981Z" fill="#4F27AA"/>
<path d="M497.496 504.168C505.829 504.168 512.584 497.413 512.584 489.08C512.584 480.747 505.829 473.992 497.496 473.992C489.163 473.992 482.408 480.747 482.408 489.08C482.408 497.413 489.163 504.168 497.496 504.168Z" fill="white"/>
<path d="M521.386 95.5352H474.865C473.476 95.5352 472.35 96.6609 472.35 98.0497C472.35 99.4384 473.476 100.564 474.865 100.564H521.386C522.775 100.564 523.901 99.4384 523.901 98.0497C523.901 96.6609 522.775 95.5352 521.386 95.5352Z" fill="white"/>
<path d="M481.853 211.299C485.255 211.299 488.013 208.541 488.013 205.139C488.013 201.736 485.255 198.979 481.853 198.979C478.451 198.979 475.693 201.736 475.693 205.139C475.693 208.541 478.451 211.299 481.853 211.299Z" fill="white"/>
<path d="M544.223 216.439C542.104 216.113 539.964 215.939 537.82 215.919C524.896 215.826 512.582 221.492 504.133 231.421C495.684 241.349 491.95 254.54 493.917 267.508" stroke="white" stroke-width="10.395" stroke-linecap="round" stroke-linejoin="round"/>
<path d="M546.533 219.384C546.533 232.555 541.3 245.188 531.986 254.501C522.672 263.815 510.04 269.047 496.868 269.048V269.048C483.696 269.048 471.064 263.815 461.75 254.502C452.436 245.188 447.203 232.556 447.203 219.384V219.384C447.203 206.212 452.436 193.579 461.75 184.265C471.064 174.951 483.696 169.719 496.868 169.719V169.719C503.39 169.719 509.848 171.003 515.874 173.499C521.9 175.995 527.375 179.653 531.987 184.265C536.598 188.877 540.257 194.352 542.753 200.378C545.249 206.403 546.533 212.862 546.533 219.384Z" stroke="white" stroke-width="10.395" stroke-linecap="round" stroke-linejoin="round"/>
<path d="M565.392 367.119H435.886C433.108 367.119 430.857 369.371 430.857 372.148V372.149C430.857 374.927 433.108 377.178 435.886 377.178H565.392C568.169 377.178 570.421 374.927 570.421 372.149V372.148C570.421 369.371 568.169 367.119 565.392 367.119Z" fill="white"/>
<path d="M565.393 336.943H445.945C443.168 336.943 440.916 339.195 440.916 341.972V341.973C440.916 344.751 443.168 347.002 445.945 347.002H565.393C568.17 347.002 570.422 344.751 570.422 341.973V341.972C570.422 339.195 568.17 336.943 565.393 336.943Z" fill="white"/>
<path d="M565.393 306.768H429.6C426.822 306.768 424.571 309.019 424.571 311.797V311.798C424.571 314.575 426.822 316.827 429.6 316.827H565.393C568.17 316.827 570.422 314.575 570.422 311.798V311.797C570.422 309.019 568.17 306.768 565.393 306.768Z" fill="white"/>
<path d="M658.472 96.7044C659.612 100.959 657.087 105.333 652.832 106.473C648.577 107.613 644.204 105.088 643.064 100.833C641.924 96.5782 644.449 92.2047 648.704 91.0646C652.959 89.9245 657.332 92.4495 658.472 96.7044Z" fill="#E1E4E5"/>
<path d="M264.068 146.012C263.442 148.513 264.272 151.113 265.641 153.298C266.608 154.841 267.96 153.137 269.932 152.864C272.981 152.437 274.912 149.208 275.572 141.344C275.878 135.599 275.734 132.733 275.414 132.232C274.275 130.436 271.345 129.836 269.034 130.009" fill="#2E2445"/>
<path fill-rule="evenodd" clip-rule="evenodd" d="M269.604 487.85C269.604 487.85 269.419 499.661 276.709 503.856C283.999 508.052 295.293 515.848 295.293 515.848L252.328 517.296L253.553 487.744L269.604 487.85Z" fill="#F8AE9D"/>
<path fill-rule="evenodd" clip-rule="evenodd" d="M250.829 500.867L250.13 520.027H260.11L260.794 517.559C260.794 517.559 264.551 517.406 266.722 518.472C269.017 519.6 269.325 520.146 269.325 520.146L300.98 520.213C300.98 520.213 302.541 514.02 292.892 509.541C283.243 505.06 276.218 498.701 274.883 498.051C273.539 497.395 270.827 497.024 268.917 498.565C267.007 500.105 265.496 504.154 261.168 504.281C255.598 504.445 252.398 497.626 250.829 500.867ZM238.491 295.09C238.491 295.09 250.218 394.592 250.582 401.509C250.947 408.426 246.816 420.363 246.896 433.302C246.977 446.24 248.405 491.84 248.405 491.84L274.273 492.262C274.273 492.262 285.145 409.859 285.262 397.502C285.379 385.145 286.376 296.279 286.376 296.279L238.491 295.09Z" fill="#2E2445"/>
<path fill-rule="evenodd" clip-rule="evenodd" d="M206.852 485.775L201.811 516.391L220.395 516.297L220.983 485.295L206.852 485.775Z" fill="#F8AE9D"/>
<path fill-rule="evenodd" clip-rule="evenodd" d="M203.851 499.235C203.253 499.365 202.716 499.691 202.324 500.16C201.933 500.63 201.709 501.217 201.689 501.829L201.505 507.413C198.844 510.372 197.604 518.99 197.499 519.749C197.493 519.787 197.491 519.825 197.493 519.863C197.756 524.063 225.335 523.986 227.508 519.996C227.571 519.871 227.589 519.729 227.56 519.593C227.324 518.134 225.812 509.465 222.844 507.137L222.824 501.615C222.821 501.013 222.621 500.428 222.254 499.95C221.886 499.473 221.373 499.13 220.791 498.973L217.026 497.96C214.309 493.988 210.606 494.128 207.434 498.457L203.851 499.235ZM215.976 296.026C215.976 296.026 207.694 363.914 207.807 376.915C207.919 389.916 210.355 395.625 206.888 404.951C203.42 414.278 200.463 488.718 200.463 488.718L226.105 490.854C226.105 490.854 242.486 411.198 244.267 400.155C246.049 389.111 268.065 295.09 268.065 295.09L215.976 296.026Z" fill="#2E2445"/>
<path fill-rule="evenodd" clip-rule="evenodd" d="M343.839 173.964C343.839 173.964 341.698 162.033 342.467 159.617C343.125 157.529 349.339 154.518 349.339 154.518C349.339 154.518 360.149 137.442 362.514 139.181C364.439 140.591 356.885 153.179 356.885 153.179C356.885 153.179 363.773 160.406 363.677 163.636C363.581 166.867 352.435 176.979 352.435 176.979L343.839 173.964ZM232.742 176.767C232.742 176.767 239.861 175.096 240.108 163.431C240.355 151.767 240.182 147.785 240.182 147.785L257.059 147.502C257.059 147.502 257.229 160.502 257.232 165.204C257.239 175.441 264.841 178.207 264.841 178.207C264.841 178.207 264.209 189.4 250.001 190.199C238.907 190.824 232.742 176.767 232.742 176.767Z" fill="#F8AE9D"/>
<path fill-rule="evenodd" clip-rule="evenodd" d="M238.631 141.89C231.636 141.619 232.777 151.859 240.044 151.846C240.044 151.846 247.853 167.548 260.114 167.589C266.02 167.609 267.948 162.348 269.719 158.655C271.489 154.962 272.789 149.438 272.897 146.055C273.013 142.449 273.028 130.601 273.028 130.601L238.359 130.586L238.631 141.89Z" fill="#F8AE9D"/>
<path fill-rule="evenodd" clip-rule="evenodd" d="M265.107 177.511C265.107 177.511 283.289 183.187 287.67 189.967C301.785 202.366 319.437 219.394 319.437 219.394C319.437 219.394 336.25 177.198 341.746 172.387C345.507 169.096 352.999 173.166 354.395 177.349C356.189 182.722 344.674 214.236 339.235 229.119V229.12C338.182 232.003 337.356 234.262 336.9 235.585C333.584 245.207 325.515 250.725 315.696 244.61C311.738 242.145 299.959 234.068 289.91 226.746C289.753 234.437 289.489 242.543 289.237 250.241V250.243C288.626 268.946 288.094 285.245 289.373 287.363C295.711 297.86 287.284 305.066 259.383 307.714C231.483 310.362 206.731 308.193 211.222 294.185C212.159 291.265 212.147 284.982 211.68 276.82C208.947 276.674 206.215 276.494 203.486 276.279C191.842 275.362 183.231 270.359 182.03 257.364C181.188 248.265 198.524 205.546 205.024 191.5C206.545 188.214 208.896 186.167 211.56 185.147C212.18 184.455 212.878 183.969 213.663 183.71C218.438 182.137 235.558 174.944 235.558 174.944L255.924 188.269L265.107 177.511ZM209.794 252.708C209.778 252.748 209.763 252.788 209.748 252.827L209.804 252.834L209.794 252.708Z" fill="#4F27AA"/>
<path fill-rule="evenodd" clip-rule="evenodd" d="M254.984 263.983C254.984 263.983 261.196 262.734 263.738 260.738C266.28 258.743 273.979 257.332 273.979 257.332L271.516 262.519C271.516 262.519 290.385 260.748 290.832 262.609C291.28 264.471 285.822 266.494 285.822 266.494C285.822 266.494 283.13 271.522 280.525 274.436C278.059 277.193 265.811 276.865 261.518 275.144C257.807 273.658 253.773 274.401 253.773 274.401L254.984 263.983Z" fill="#F8AE9D"/>
<path d="M240.534 131.067C241.556 132.405 243.359 132.7 244.843 132.965C246.839 133.32 247.826 134.061 248.862 136.049C249.518 137.319 250.174 138.71 251.348 139.398C252.304 139.961 252.275 138.537 252.417 137.436C252.429 137.333 252.45 137.231 252.477 137.131C252.705 136.251 253.639 136.398 253.91 137.266C254.158 138.052 254.69 138.718 255.367 139.088C255.477 139.148 255.595 139.201 255.712 139.179C255.871 139.156 255.995 139.005 256.099 138.869C256.314 138.586 256.528 138.227 256.749 137.847C257.48 136.591 258.873 137.032 259.689 138.234C260.2 138.982 260.808 139.753 261.644 139.927C261.913 139.988 262.251 139.942 262.376 139.678C262.534 139.353 262.286 139.027 262.327 138.695C262.362 138.385 262.493 138.249 262.638 137.984C263.204 136.964 264.514 136.926 265.313 137.777C265.869 138.368 266.449 138.937 267.051 139.481C267.306 139.708 267.679 139.935 267.934 139.708C268.072 139.587 268.107 139.383 268.135 139.186C268.28 138.226 268.418 137.266 268.563 136.306C268.646 135.769 268.929 135.066 269.412 135.202C269.647 135.27 269.785 135.52 269.916 135.747C270.075 136.034 272.913 139.307 272.968 139.058C273.41 137.198 274.315 135.505 274.757 133.645C277.616 121.679 264.931 112.056 255.242 112.003C253.088 111.987 251.12 112.023 249.028 112.53C246.797 113.074 244.443 113.938 242.419 115.155C239.581 116.856 237.434 119.948 237.986 123.637" fill="#2E2445"/>
<path d="M248.413 127.198C249.779 128.761 250.141 130.959 250.268 133.036C250.455 136.168 250.201 139.421 248.768 142.201C248.359 142.993 248.058 146.909 247.428 146.693C247.228 146.625 247.261 143.588 246.732 141.951C245.915 139.414 242.151 138.447 240.457 140.05C237.752 142.6 239.339 145.698 240.236 147.626C240.772 148.79 241.622 150.095 241.77 151.326C241.95 152.902 242.004 158.645 240.986 159.984C240.136 161.107 239.232 155.682 238.462 154.614C232.763 146.652 227.298 126.38 237.028 121.983C238.508 121.314 243.076 120.969 244.462 121.821" fill="#2E2445"/>
<path d="M147.549 350.114C141.371 351.578 134.837 346.338 134.837 346.338C134.837 346.338 138.324 338.729 144.504 337.27C150.682 335.806 157.214 341.041 157.214 341.041C157.214 341.041 153.727 348.651 147.549 350.114Z" fill="url(#paint2_linear_1235_23269)"/>
<path d="M717.759 101.921C705.721 114.174 683.209 111.59 683.209 111.59C683.209 111.59 680.23 89.1399 692.28 76.8949C704.318 64.6419 726.819 67.2179 726.819 67.2179C726.819 67.2179 729.798 89.6679 717.759 101.921Z" fill="url(#paint3_linear_1235_23269)"/>
<path d="M755.624 432.214C749.911 432.214 745.281 436.845 745.281 442.557C745.281 448.27 749.911 452.9 755.624 452.9C761.336 452.9 765.967 448.27 765.967 442.557C765.967 436.845 761.336 432.214 755.624 432.214Z" fill="#4F27AA"/>
<path d="M322.453 448C316.128 448 311 452.871 311 458.88C311 464.889 316.128 469.76 322.453 469.76C328.779 469.76 333.906 464.889 333.906 458.88C333.906 452.871 328.779 448 322.453 448Z" fill="#4F27AA"/>
<path d="M734.198 205.72C726.01 205.72 719.372 199.083 719.372 190.894C719.372 182.706 726.01 176.068 734.198 176.068C742.386 176.068 749.024 182.706 749.024 190.894C749.024 199.083 742.386 205.72 734.198 205.72Z" fill="#4F27AA"/>
<path d="M321.307 402.47C315.615 402.47 311 398.111 311 392.735C311 387.359 315.615 383 321.307 383C327 383 331.614 387.359 331.614 392.735C331.614 398.111 327 402.47 321.307 402.47Z" fill="#E1E4E5"/>
<path d="M162.274 410.548C157.704 410.548 154 406.844 154 402.274C154 397.704 157.704 394 162.274 394C166.843 394 170.548 397.704 170.548 402.274C170.548 406.844 166.843 410.548 162.274 410.548Z" fill="#E1E4E5"/>
<path d="M690.942 494.884C688.212 494.884 686 492.671 686 489.942C686 487.213 688.212 485 690.942 485C693.671 485 695.884 487.213 695.884 489.942C695.884 492.671 693.671 494.884 690.942 494.884Z" fill="#E1E4E5"/>
<path d="M572.06 58.12C568.161 58.12 565 54.9591 565 51.06C565 47.1609 568.161 44 572.06 44C575.959 44 579.12 47.1609 579.12 51.06C579.12 54.9591 575.959 58.12 572.06 58.12Z" fill="#E1E4E5"/>
<path d="M161.113 485.665C162.099 489.345 159.915 493.128 156.235 494.115C152.554 495.101 148.771 492.917 147.785 489.236C146.799 485.556 148.983 481.773 152.663 480.787C156.344 479.801 160.127 481.985 161.113 485.665Z" fill="#E1E4E5"/>
<path d="M145.178 205.356C140.109 205.356 136 201.247 136 196.178C136 191.109 140.109 187 145.178 187C150.247 187 154.356 191.109 154.356 196.178C154.356 201.247 150.247 205.356 145.178 205.356Z" fill="#E1E4E5"/>
<path d="M759.161 364.296C755.262 364.296 752.101 361.767 752.101 358.648C752.101 355.529 755.262 353 759.161 353C763.06 353 766.221 355.529 766.221 358.648C766.221 361.767 763.06 364.296 759.161 364.296Z" fill="#E1E4E5"/>
<path d="M687.09 390.442C689.143 398.102 684.597 405.975 676.938 408.027C669.278 410.08 661.405 405.534 659.353 397.875C657.3 390.215 661.846 382.342 669.505 380.29C677.165 378.237 685.038 382.783 687.09 390.442Z" fill="#E1E4E5"/>
<path d="M717.714 283H717.899C718.993 298.496 730.517 298.734 730.517 298.734C730.517 298.734 717.809 298.982 717.809 316.887C717.809 298.982 705.101 298.734 705.101 298.734C705.101 298.734 716.621 298.496 717.714 283ZM277.42 44H277.601C278.669 59.765 289.924 60.008 289.924 60.008C289.924 60.008 277.513 60.26 277.513 78.476C277.513 60.26 265.101 60.008 265.101 60.008C265.101 60.008 276.352 59.765 277.42 44ZM162.319 125H162.499C163.568 140.765 174.823 141.008 174.823 141.008C174.823 141.008 162.411 141.26 162.411 159.476C162.411 141.26 150 141.008 150 141.008C150 141.008 161.251 140.765 162.319 125ZM673.42 191H673.6C674.669 206.765 685.924 207.008 685.924 207.008C685.924 207.008 673.513 207.26 673.513 225.476C673.513 207.26 661.101 207.008 661.101 207.008C661.101 207.008 672.352 206.765 673.42 191ZM324.204 95H324.339C325.137 106.779 333.547 106.961 333.547 106.961C333.547 106.961 324.274 107.149 324.274 120.76C324.274 107.149 315 106.961 315 106.961C315 106.961 323.406 106.779 324.204 95Z" fill="#E1E4E5"/>
</g>
<defs>
<linearGradient id="paint0_linear_1235_23269" x1="571.526" y1="710.371" x2="380.43" y2="-151.786" gradientUnits="userSpaceOnUse">
<stop stop-color="white"/>
<stop offset="1" stop-color="#EEEEEE"/>
</linearGradient>
<linearGradient id="paint1_linear_1235_23269" x1="595.56" y1="271.577" x2="520.717" y2="-64.7337" gradientUnits="userSpaceOnUse">
<stop stop-color="white"/>
<stop offset="1" stop-color="#EEEEEE"/>
</linearGradient>
<linearGradient id="paint2_linear_1235_23269" x1="124.284" y1="353.753" x2="178.367" y2="328.203" gradientUnits="userSpaceOnUse">
<stop stop-color="white"/>
<stop offset="1" stop-color="#EEEEEE"/>
</linearGradient>
<linearGradient id="paint3_linear_1235_23269" x1="669.727" y1="143.774" x2="756.76" y2="7.34194" gradientUnits="userSpaceOnUse">
<stop stop-color="white"/>
<stop offset="1" stop-color="#EEEEEE"/>
</linearGradient>
<clipPath id="clip0_1235_23269">
<rect width="900" height="600" fill="white"/>
</clipPath>
</defs>
</svg>
