<svg width="900" height="600" viewBox="0 0 900 600" fill="none" xmlns="http://www.w3.org/2000/svg">
<g clip-path="url(#clip0_1235_18187)">
<path d="M714.99 181.699C696.549 121.509 537.158 43.8227 411.234 140.396C352.668 185.314 370.847 217.549 337.126 281.186C317.026 319.115 281.423 355.28 283.802 398.825C285.846 436.415 305.514 470.41 332.121 487.456C391.96 525.79 486.766 532.298 536.329 419.144C585.893 305.99 762.534 336.94 714.99 181.699Z" fill="url(#paint0_linear_1235_18187)"/>
<path d="M349.857 149.812C328.842 205.846 307.809 265.053 269.334 301.748C229.652 339.611 216.883 326.25 206.994 302.219C197.106 278.189 195.646 215.365 250.099 164.807C304.566 114.235 369.517 97.3702 349.857 149.812Z" fill="url(#paint1_linear_1235_18187)"/>
<path d="M236.254 237.574L254.75 219.077C255.424 218.404 255.424 217.311 254.75 216.638C254.077 215.964 252.985 215.964 252.311 216.638L233.814 235.134C233.141 235.808 233.141 236.9 233.814 237.574C234.488 238.247 235.58 238.247 236.254 237.574Z" fill="#E1E4E5"/>
<path d="M238.063 224.332L243.397 218.997C244.071 218.323 244.071 217.231 243.397 216.558C242.724 215.884 241.632 215.884 240.958 216.558L235.623 221.892C234.95 222.566 234.95 223.658 235.624 224.332C236.297 225.005 237.389 225.005 238.063 224.332Z" fill="#E1E4E5"/>
<path d="M579.609 483.231L561.113 501.728C560.439 502.401 560.439 503.493 561.113 504.167C561.786 504.841 562.879 504.841 563.552 504.167L582.049 485.671C582.723 484.997 582.722 483.905 582.049 483.231C581.375 482.557 580.283 482.557 579.609 483.231Z" fill="#E1E4E5"/>
<path d="M577.799 496.473L572.465 501.808C571.791 502.481 571.791 503.573 572.465 504.247C573.139 504.921 574.231 504.921 574.904 504.247L580.239 498.913C580.912 498.239 580.912 497.147 580.239 496.473C579.565 495.799 578.473 495.8 577.799 496.473Z" fill="#E1E4E5"/>
<path d="M720.109 130.527L738.605 112.03C739.279 111.357 739.279 110.264 738.605 109.591C737.932 108.917 736.84 108.917 736.166 109.591L717.669 128.087C716.996 128.761 716.996 129.853 717.669 130.527C718.343 131.2 719.435 131.2 720.109 130.527Z" fill="#E1E4E5"/>
<path d="M721.919 117.283L727.253 111.948C727.927 111.275 727.927 110.182 727.253 109.509C726.58 108.835 725.488 108.835 724.814 109.509L719.479 114.843C718.806 115.517 718.806 116.609 719.479 117.283C720.153 117.956 721.245 117.956 721.919 117.283Z" fill="#E1E4E5"/>
<path d="M716.514 177.204V440.185C716.514 454.571 704.846 466.239 690.459 466.239H308.411C294.024 466.239 282.356 454.571 282.356 440.185V177.204C282.356 162.818 294.024 151.15 308.411 151.15H690.444C704.846 151.15 716.514 162.818 716.514 177.204Z" fill="#4F27AA"/>
<path d="M671.495 171.916H326.375C314.847 171.916 305.501 181.262 305.501 192.79V423.67C305.501 435.198 314.847 444.544 326.375 444.544H671.495C683.023 444.544 692.369 435.198 692.369 423.67V192.79C692.369 181.262 683.023 171.916 671.495 171.916Z" stroke="#2E2445" stroke-width="1.07" stroke-dasharray="7.49 12.85"/>
<path opacity="0.3" d="M431.725 316.561C431.725 316.561 431.815 331.5 427.303 340.539C422.791 349.577 421.268 353.043 411.781 356.524C402.294 360.005 281.927 373.197 281.927 373.197V332.546L431.725 316.561Z" fill="black"/>
<path d="M285.885 354.225H410.331C422.148 354.225 431.709 344.648 431.709 332.846V277.137C431.709 265.319 422.133 255.758 410.331 255.758H285.885C274.068 255.758 264.506 265.334 264.506 277.137V332.846C264.506 344.648 274.083 354.225 285.885 354.225Z" fill="#4F27AA"/>
<path d="M381.125 336.789C396.898 336.789 409.685 324.269 409.685 308.824C409.685 293.379 396.898 280.859 381.125 280.859C365.352 280.859 352.565 293.379 352.565 308.824C352.565 324.269 365.352 336.789 381.125 336.789Z" fill="white"/>
<path d="M754.525 233.832C754.525 233.832 740.739 230.132 735.986 261.737C731.234 293.341 731.2 310.653 731.2 310.653C731.2 310.653 729.454 317.525 724.329 315.119C719.204 312.713 710.382 304 704.401 308.09C698.199 312.335 698.499 320.735 703.552 331.543C708.606 342.352 718.806 366.418 719.722 368.605C720.624 370.741 720.438 374.405 716.685 373.322C712.931 372.239 688.853 358.543 683.043 370.352C677.22 382.165 696.251 409.953 698.27 413.026C700.29 416.099 700.118 417.767 698.795 419.139C697.472 420.51 689.808 415.142 682.805 411.522C675.801 407.901 667.038 404.944 664.253 412.04C661.468 419.135 667.666 442.679 702.08 472.791L718.939 485.7L738.768 477.844C780.174 458.449 792.658 437.54 791.944 429.953C791.23 422.365 781.996 422.778 774.258 424.316C766.52 425.853 757.671 428.884 756.779 427.199C755.888 425.513 756.176 423.87 758.969 421.472C761.763 419.074 787.743 397.655 785.422 384.685C783.104 371.728 756.174 378.215 752.268 378.204C748.365 378.205 749.21 374.639 750.664 372.834C752.15 370.993 768.63 350.69 776.475 341.703C784.322 332.728 786.934 324.731 782.152 318.935C777.546 313.338 766.646 319.282 761.058 320.175C755.471 321.068 755.699 313.97 755.699 313.97C755.699 313.97 760.474 297.325 764.656 265.64C768.837 233.955 754.218 233.763 754.218 233.763" fill="#E1E4E5"/>
<path d="M718.587 481.258C721.741 457.998 726.376 425.903 731.627 390.468C736.87 355.049 741.579 322.975 744.875 299.732C746.509 288.135 747.825 278.739 748.743 272.212C749.197 268.985 749.554 266.47 749.802 264.727C749.923 263.898 750.025 263.252 750.091 262.781C750.168 262.348 750.215 262.115 750.215 262.115C750.215 262.115 750.206 262.338 750.162 262.789C750.109 263.257 750.036 263.909 749.944 264.744C749.725 266.493 749.41 269.01 749.014 272.25C748.202 278.761 746.96 288.178 745.375 299.804C742.221 323.064 737.583 355.146 732.344 390.578C727.105 426.01 722.383 458.087 719.1 481.327" fill="white"/>
<path d="M716.255 320.786C716.303 320.76 716.635 321.179 717.234 321.98C717.831 322.769 718.652 323.937 719.646 325.389C721.636 328.305 724.284 332.392 727.121 336.978C729.883 341.487 732.392 345.57 734.322 348.722C735.19 350.112 735.918 351.291 736.524 352.269C737.05 353.104 737.315 353.583 737.267 353.609C737.219 353.636 736.874 353.22 736.278 352.431C735.695 351.639 734.874 350.471 733.889 349.003C731.921 346.068 729.33 341.938 726.509 337.361L719.229 325.679C718.362 324.29 717.621 323.114 717.015 322.136C716.485 321.288 716.22 320.809 716.255 320.786ZM739.229 353.344C739.117 353.182 747.311 347.345 757.539 340.33C767.764 333.302 776.155 327.742 776.267 327.904C776.379 328.067 768.182 333.891 757.958 340.919C747.72 347.95 739.342 353.507 739.229 353.344ZM728.728 407.393C728.714 407.342 729.239 407.146 730.18 406.812C731.278 406.449 732.63 406.004 734.218 405.469C737.625 404.336 742.338 402.743 747.467 400.805C752.6 398.88 757.189 396.977 760.511 395.578C762.055 394.931 763.363 394.375 764.437 393.922C765.365 393.536 765.893 393.353 765.916 393.388C765.943 393.436 765.451 393.705 764.561 394.177C763.294 394.828 762.013 395.451 760.718 396.045C756.458 398.018 752.126 399.83 747.73 401.477C743.334 403.129 738.879 404.62 734.374 405.949C732.641 406.455 731.23 406.833 730.265 407.077C729.287 407.326 728.742 407.444 728.728 407.393ZM701.473 382.509C701.504 382.473 701.915 382.776 702.65 383.362C703.371 383.952 704.4 384.817 705.664 385.894C708.951 388.715 712.212 391.566 715.446 394.446C718.687 397.322 721.902 400.227 725.092 403.159C726.061 404.048 727.018 404.951 727.961 405.867C728.629 406.512 728.98 406.899 728.949 406.935C728.917 406.971 728.506 406.669 727.772 406.082C727.05 405.492 726.021 404.627 724.757 403.551C721.471 400.73 718.21 397.879 714.975 394.998C711.187 391.63 707.776 388.544 705.342 386.283C704.373 385.394 703.417 384.491 702.473 383.575C701.792 382.932 701.428 382.549 701.473 382.509ZM686.138 429.043C686.17 429.007 686.701 429.401 687.632 430.155C688.657 431.007 689.963 432.086 691.508 433.39C694.762 436.146 699.225 439.981 704.124 444.261C709.023 448.542 713.436 452.445 716.604 455.293C717.85 456.428 719.094 457.565 720.335 458.704C721.199 459.517 721.671 459.996 721.639 460.032C721.608 460.068 721.076 459.674 720.146 458.92C719.12 458.068 717.814 456.989 716.269 455.685C712.038 452.092 707.832 448.468 703.653 444.813C698.755 440.533 694.342 436.63 691.174 433.782C689.928 432.648 688.684 431.51 687.442 430.37C686.566 429.561 686.107 429.079 686.138 429.043ZM720.992 459.051C720.979 458.999 721.634 458.728 722.818 458.273C724.143 457.781 725.842 457.147 727.88 456.394C732.152 454.796 738.059 452.581 744.5 449.948C750.005 447.703 755.473 445.368 760.901 442.942C762.893 442.065 764.552 441.332 765.84 440.753C767.01 440.247 767.665 439.976 767.692 440.023C767.718 440.071 767.096 440.417 765.963 441.009C764.36 441.839 762.742 442.639 761.109 443.409C755.736 445.971 750.29 448.375 744.776 450.617C739.262 452.864 733.684 454.949 728.049 456.871C725.882 457.603 724.123 458.171 722.903 458.539C721.695 458.904 721.015 459.086 720.992 459.051Z" fill="white"/>
<path d="M214.32 382.038C200.951 395.809 204.431 420.887 204.431 420.887C204.431 420.887 229.586 423.622 242.947 409.839C256.316 396.068 252.845 371.002 252.845 371.002C252.845 371.002 227.689 368.267 214.32 382.038Z" fill="url(#paint2_linear_1235_18187)"/>
<path fill-rule="evenodd" clip-rule="evenodd" d="M534.719 119.446H537.004C537.557 119.446 538.002 119.896 538.002 120.444V122.729C538.002 123.282 537.552 123.727 537.004 123.727H534.719C534.171 123.727 533.722 123.277 533.722 122.729V120.444C533.722 120.313 533.747 120.183 533.797 120.062C533.847 119.941 533.921 119.831 534.013 119.738C534.106 119.645 534.216 119.572 534.337 119.522C534.458 119.471 534.588 119.446 534.719 119.446ZM542.643 119.446H544.928C545.476 119.446 545.926 119.896 545.926 120.444V122.729C545.926 123.282 545.476 123.727 544.928 123.727H542.643C542.095 123.727 541.645 123.277 541.645 122.729V120.444C541.645 119.896 542.095 119.446 542.643 119.446ZM550.572 119.446H552.857C553.405 119.446 553.854 119.896 553.854 120.444V122.729C553.854 122.994 553.749 123.247 553.562 123.434C553.375 123.622 553.122 123.727 552.857 123.727H550.572C550.024 123.727 549.574 123.277 549.574 122.729V120.444C549.574 120.313 549.6 120.183 549.65 120.062C549.7 119.941 549.773 119.831 549.866 119.738C549.959 119.645 550.069 119.572 550.19 119.521C550.311 119.471 550.441 119.446 550.572 119.446ZM558.496 119.446H560.782C561.33 119.446 561.779 119.896 561.779 120.444V122.729C561.779 122.994 561.674 123.247 561.487 123.434C561.3 123.622 561.047 123.727 560.782 123.727H558.496C557.944 123.727 557.494 123.277 557.494 122.729V120.444C557.497 120.18 557.604 119.927 557.791 119.74C557.978 119.553 558.232 119.448 558.496 119.446ZM566.42 119.446H568.705C569.258 119.446 569.708 119.896 569.708 120.444V122.729C569.708 122.86 569.682 122.991 569.631 123.112C569.581 123.233 569.507 123.343 569.414 123.436C569.32 123.529 569.21 123.602 569.088 123.652C568.967 123.702 568.837 123.727 568.705 123.727H566.42C565.872 123.727 565.422 123.277 565.422 122.729V120.444C565.422 119.896 565.872 119.446 566.42 119.446ZM542.934 128.087H545.219C545.767 128.087 546.217 128.536 546.217 129.084V131.374C546.217 131.922 545.767 132.372 545.219 132.372H542.934C542.67 132.372 542.416 132.267 542.229 132.079C542.042 131.892 541.936 131.639 541.936 131.374V129.089C541.936 128.958 541.961 128.827 542.011 128.706C542.061 128.584 542.134 128.474 542.227 128.38C542.32 128.287 542.43 128.214 542.551 128.163C542.673 128.113 542.803 128.087 542.934 128.087ZM550.858 128.087H553.143C553.691 128.087 554.141 128.536 554.141 129.084V131.374C554.141 131.922 553.691 132.372 553.143 132.372H550.858C550.31 132.372 549.86 131.922 549.86 131.374V129.089C549.86 128.958 549.885 128.827 549.935 128.706C549.985 128.584 550.058 128.474 550.151 128.38C550.244 128.287 550.354 128.214 550.475 128.163C550.597 128.113 550.727 128.087 550.858 128.087ZM558.781 128.087H561.067C561.619 128.087 562.069 128.536 562.069 129.084V131.374C562.069 131.922 561.619 132.372 561.067 132.372H558.781C558.233 132.372 557.784 131.922 557.784 131.374V129.089C557.784 128.536 558.233 128.087 558.781 128.087ZM550.572 110.164H552.857C553.405 110.164 553.854 110.614 553.854 111.162V113.447C553.854 113.712 553.749 113.965 553.562 114.152C553.375 114.34 553.122 114.445 552.857 114.445H550.572C550.024 114.445 549.574 113.995 549.574 113.447V111.162C549.574 111.031 549.6 110.901 549.65 110.78C549.7 110.659 549.773 110.549 549.866 110.456C549.959 110.363 550.069 110.29 550.19 110.239C550.311 110.189 550.441 110.164 550.572 110.164ZM558.496 110.164H560.782C561.33 110.164 561.779 110.614 561.779 111.162V113.447C561.779 113.712 561.674 113.965 561.487 114.152C561.3 114.34 561.047 114.445 560.782 114.445H558.496C557.944 114.445 557.494 113.995 557.494 113.447V111.162C557.497 110.898 557.604 110.645 557.791 110.458C557.978 110.271 558.232 110.166 558.496 110.164Z" fill="#E1E4E5"/>
<path fill-rule="evenodd" clip-rule="evenodd" d="M616.823 406.237H619.108C619.661 406.237 620.105 406.687 620.105 407.235V409.52C620.105 409.785 620 410.038 619.813 410.225C619.626 410.413 619.373 410.518 619.108 410.518H616.823C616.275 410.518 615.825 410.068 615.825 409.52V407.235C615.825 407.104 615.851 406.974 615.901 406.853C615.951 406.732 616.024 406.622 616.117 406.529C616.21 406.436 616.32 406.363 616.441 406.313C616.562 406.262 616.692 406.237 616.823 406.237ZM624.746 406.237H627.032C627.58 406.237 628.029 406.687 628.029 407.235V409.52C628.029 409.785 627.924 410.038 627.737 410.225C627.55 410.413 627.297 410.518 627.032 410.518H624.746C624.198 410.518 623.749 410.068 623.749 409.52V407.235C623.749 406.687 624.198 406.237 624.746 406.237ZM632.676 406.237H634.961C635.509 406.237 635.958 406.687 635.958 407.235V409.52C635.958 409.785 635.853 410.038 635.666 410.225C635.479 410.413 635.226 410.518 634.961 410.518H632.676C632.128 410.518 631.678 410.068 631.678 409.52V407.235C631.678 407.104 631.704 406.974 631.754 406.853C631.804 406.732 631.877 406.622 631.97 406.529C632.063 406.436 632.173 406.363 632.294 406.313C632.415 406.262 632.545 406.237 632.676 406.237ZM640.6 406.237H642.885C643.433 406.237 643.883 406.687 643.883 407.235V409.52C643.883 410.073 643.433 410.518 642.885 410.518H640.6C640.047 410.518 639.598 410.068 639.598 409.52V407.235C639.601 406.971 639.707 406.718 639.895 406.531C640.082 406.344 640.336 406.239 640.6 406.237ZM648.523 406.237H650.809C651.361 406.237 651.811 406.687 651.811 407.235V409.52C651.811 409.651 651.785 409.781 651.734 409.903C651.684 410.024 651.61 410.134 651.517 410.227C651.424 410.319 651.313 410.393 651.192 410.443C651.071 410.493 650.941 410.518 650.809 410.518H648.523C647.976 410.518 647.526 410.068 647.526 409.52V407.235C647.526 406.687 647.976 406.237 648.523 406.237ZM625.037 414.878H627.323C627.587 414.879 627.84 414.984 628.027 415.171C628.214 415.358 628.319 415.611 628.32 415.875V418.165C628.32 418.713 627.871 419.163 627.323 419.163H625.037C624.773 419.163 624.519 419.057 624.332 418.87C624.146 418.683 624.04 418.43 624.04 418.165V415.88C624.039 415.749 624.065 415.618 624.114 415.497C624.164 415.375 624.237 415.265 624.33 415.172C624.423 415.078 624.533 415.005 624.654 414.954C624.776 414.904 624.906 414.878 625.037 414.878ZM632.961 414.878H635.247C635.511 414.879 635.764 414.984 635.951 415.171C636.138 415.358 636.243 415.611 636.244 415.875V418.165C636.244 418.713 635.795 419.163 635.247 419.163H632.961C632.413 419.163 631.964 418.713 631.964 418.165V415.88C631.963 415.749 631.989 415.618 632.038 415.497C632.088 415.375 632.161 415.265 632.254 415.172C632.347 415.078 632.457 415.005 632.578 414.954C632.7 414.904 632.83 414.878 632.961 414.878ZM640.885 414.878H643.17C643.723 414.878 644.172 415.327 644.172 415.875V418.165C644.172 418.713 643.723 419.163 643.17 419.163H640.885C640.337 419.163 639.887 418.713 639.887 418.165V415.88C639.887 415.327 640.337 414.878 640.885 414.878ZM632.676 396.955H634.961C635.509 396.955 635.958 397.405 635.958 397.953V400.238C635.958 400.503 635.853 400.756 635.666 400.943C635.479 401.131 635.226 401.236 634.961 401.236H632.676C632.128 401.236 631.678 400.786 631.678 400.238V397.953C631.678 397.822 631.704 397.692 631.754 397.571C631.804 397.45 631.877 397.34 631.97 397.247C632.063 397.154 632.173 397.081 632.294 397.031C632.415 396.98 632.545 396.955 632.676 396.955ZM640.6 396.955H642.885C643.433 396.955 643.883 397.405 643.883 397.953V400.238C643.883 400.791 643.433 401.236 642.885 401.236H640.6C640.047 401.236 639.598 400.786 639.598 400.238V397.953C639.601 397.689 639.707 397.436 639.895 397.249C640.082 397.062 640.336 396.957 640.6 396.955Z" fill="#2E2445"/>
<path d="M247.095 453.722C209.84 413.499 198.22 357.298 195.032 317.238C191.571 273.744 197.024 239.339 197.078 239L194.642 238.762C194.585 239.106 189.088 273.763 192.563 317.545C195.776 358.003 207.52 414.778 245.236 455.503L247.095 453.722Z" fill="#4F27AA"/>
<path d="M212.893 218.848C211.539 233.808 204.317 247.084 194.01 255.951C185.347 246.702 180.545 233.178 181.905 218.222C183.259 203.262 190.481 189.986 200.788 181.119C209.455 190.361 214.247 203.887 212.893 218.848ZM180.063 259.316C189.623 270.168 193.597 284.098 192.136 297.32C179.1 297.393 165.948 291.878 156.388 281.026C146.829 270.173 142.855 256.243 144.312 243.028C157.352 242.948 170.504 248.463 180.063 259.316ZM155.715 333.529C174.711 340.117 192.447 338.708 195.33 330.382C198.212 322.055 185.15 309.964 166.154 303.376C147.158 296.787 129.422 298.196 126.54 306.523C123.657 314.849 136.719 326.94 155.715 333.529ZM165.65 385.452C184.646 392.04 202.382 390.631 205.265 382.305C208.147 373.978 195.085 361.887 176.089 355.299C157.093 348.71 139.357 350.119 136.475 358.446C133.592 366.772 146.654 378.863 165.65 385.452Z" fill="#4F27AA"/>
<path d="M200.626 293.177C207.727 281.089 218.71 272.524 230.312 268.789C233.304 279.705 231.563 292.817 224.462 304.905C217.362 316.994 206.379 325.558 194.777 329.293C191.777 318.374 193.525 305.266 200.626 293.177ZM210.922 347.028C217.842 334.837 228.717 326.097 240.273 322.165C243.452 333.004 241.91 346.115 234.99 358.306C228.071 370.496 217.196 379.237 205.633 383.165C202.464 372.34 203.999 359.225 210.922 347.028ZM207.516 415.319C213.735 415.258 219.156 417.943 222.683 422.242C218.678 426.616 212.952 429.415 206.739 429.479C200.52 429.54 195.099 426.855 191.572 422.556C195.57 418.178 201.296 415.38 207.516 415.319Z" fill="#4F27AA"/>
<path d="M292.929 455.165C301.661 475.487 292.245 499.044 271.868 507.806C251.506 516.564 227.913 507.189 219.167 486.871C210.439 466.563 219.866 442.987 240.228 434.229C260.604 425.467 284.198 434.843 292.929 455.165Z" fill="url(#paint3_linear_1235_18187)"/>
<path d="M284.159 458.94C290.811 474.42 283.637 492.384 268.117 499.062C252.593 505.726 234.608 498.588 227.956 483.108C221.3 467.614 228.475 449.65 243.998 442.986C259.518 436.308 277.489 443.449 284.159 458.94Z" fill="white"/>
<path d="M266.292 486.249L268.516 491.152L263.996 493.154L261.838 488.375C257.244 490.096 252.348 490.633 249.013 489.836L249.078 483.402C252.072 484.022 255.857 483.767 259.244 482.638L255.935 475.323C250.391 476.35 244.054 477.21 241.223 470.952C239.119 466.317 240.793 460.796 247.57 456.846L245.373 451.983L249.893 449.982L252.051 454.761C255.555 453.521 259.253 452.942 262.424 453.372L262.606 459.755C259.726 459.5 257.04 459.792 254.668 460.523L258.043 467.963C263.572 466.876 269.81 466.074 272.602 472.247C274.656 476.817 273.015 482.282 266.292 486.249ZM253.022 468.881L250.203 462.667C248.044 464.257 247.681 465.935 248.331 467.389C249.03 468.908 250.755 469.157 253.022 468.881ZM265.565 476.014C264.876 474.476 263.186 474.233 260.944 474.423L263.686 480.468C265.728 478.988 266.199 477.408 265.565 476.014Z" fill="#E1E4E5"/>
<path d="M785.774 172.135C787.721 185.56 778.403 198.02 764.942 199.976C751.49 201.932 739.002 192.633 737.046 179.209C735.099 165.794 744.426 153.325 757.878 151.369C771.339 149.412 783.827 158.711 785.774 172.135Z" fill="url(#paint4_linear_1235_18187)"/>
<path d="M779.98 172.979C781.463 183.205 774.361 192.708 764.108 194.2C753.854 195.684 744.333 188.601 742.85 178.375C741.366 168.14 748.468 158.637 758.721 157.154C768.975 155.661 778.487 162.744 779.98 172.979Z" fill="white"/>
<path d="M765.06 186.321L765.599 189.579L762.605 190.047L762.084 186.873C759.09 187.163 756.104 186.705 754.256 185.703L755.315 181.902C756.99 182.745 759.273 183.194 761.459 183.063L760.659 178.205C757.212 177.933 753.322 177.437 752.638 173.281C752.127 170.201 753.996 167.196 758.637 165.932L758.107 162.702L761.102 162.234L761.622 165.408C763.895 165.23 766.177 165.473 767.987 166.231L767.082 170.042C765.416 169.433 763.779 169.18 762.258 169.236L763.076 174.179C766.524 174.413 770.347 174.928 771.021 179.028C771.512 182.062 769.673 185.038 765.06 186.321ZM759.956 173.927L759.273 169.798C757.742 170.397 757.26 171.333 757.414 172.298C757.587 173.309 758.57 173.73 759.956 173.927ZM766.254 180.142C766.09 179.122 765.127 178.71 763.77 178.467L764.434 182.483C765.879 181.93 766.408 181.069 766.254 180.142Z" fill="#E1E4E5"/>
</g>
<defs>
<linearGradient id="paint0_linear_1235_18187" x1="447.349" y1="-121.474" x2="588.638" y2="931.408" gradientUnits="userSpaceOnUse">
<stop stop-color="white"/>
<stop offset="1" stop-color="#EEEEEE"/>
</linearGradient>
<linearGradient id="paint1_linear_1235_18187" x1="270.956" y1="5.48919" x2="297.329" y2="545.071" gradientUnits="userSpaceOnUse">
<stop stop-color="white"/>
<stop offset="1" stop-color="#EEEEEE"/>
</linearGradient>
<linearGradient id="paint2_linear_1235_18187" x1="168.836" y1="436.796" x2="318.938" y2="335.976" gradientUnits="userSpaceOnUse">
<stop stop-color="white"/>
<stop offset="1" stop-color="#EEEEEE"/>
</linearGradient>
<linearGradient id="paint3_linear_1235_18187" x1="279.693" y1="552.645" x2="222.401" y2="348.351" gradientUnits="userSpaceOnUse">
<stop stop-color="white"/>
<stop offset="1" stop-color="#EEEEEE"/>
</linearGradient>
<linearGradient id="paint4_linear_1235_18187" x1="762.46" y1="227.779" x2="760.949" y2="97.6675" gradientUnits="userSpaceOnUse">
<stop stop-color="white"/>
<stop offset="1" stop-color="#EEEEEE"/>
</linearGradient>
<clipPath id="clip0_1235_18187">
<rect width="900" height="600" fill="white"/>
</clipPath>
</defs>
</svg>
