<svg width="900" height="600" viewBox="0 0 900 600" fill="none" xmlns="http://www.w3.org/2000/svg">
<g clip-path="url(#clip0_1235_23329)">
<path d="M465.509 195.039C461.271 201.687 450.2 209.434 442.346 209.328C415.594 208.838 406.787 190.615 403.9 183.98C404.443 183.848 405.357 183.742 406.006 183.662C410.933 182.947 415.965 178.074 417.435 172.578C419.329 165.426 421.66 151.441 421.382 142.555L455.219 161.281C455.166 163.85 454.994 166.658 454.755 169.492C454.592 171.18 454.411 172.866 454.212 174.551C454.033 176.037 453.835 177.52 453.616 179.001C452.994 183.636 455.06 188.231 458.967 190.787L465.509 195.039Z" fill="#F8AE9D"/>
<path d="M468.422 122.198C466.594 126.993 467.362 132.436 469.216 137.217C470.527 140.594 473.441 137.614 477.07 137.68C482.685 137.773 487.069 131.932 490.459 116.451C492.618 105.088 493.161 99.3274 492.724 98.2284C491.174 94.2944 486.062 92.1884 481.851 91.8184" fill="#2E2445"/>
<path d="M476.965 88.1498C485.811 98.8108 489.03 128.808 481.56 149.706C476.25 164.565 470.078 174.154 462.874 173.849C451.935 173.385 430.732 164.393 423.832 156.884C411.396 143.362 415.012 116.849 417.581 100.162C419.912 84.9978 427.01 65.3048 446.068 69.0528C458.596 71.5028 469.032 78.5748 476.965 88.1498Z" fill="#F8AE9D"/>
<path d="M426.913 99.926C428.875 102.447 432.334 103.003 435.184 103.501C439.015 104.171 440.91 105.567 442.898 109.313C444.158 111.705 445.417 114.326 447.67 115.622C449.501 116.68 449.432 113.978 449.727 111.884C449.754 111.701 449.792 111.52 449.839 111.342C450.284 109.671 452.064 109.958 452.588 111.606C453.065 113.087 454.086 114.34 455.385 115.038C455.597 115.152 455.822 115.252 456.047 115.209C456.352 115.167 456.591 114.882 456.79 114.625C457.207 114.087 457.622 113.404 458.05 112.68C459.457 110.305 462.112 111.159 463.682 113.429C464.663 114.839 465.83 116.292 467.434 116.619C467.951 116.733 468.6 116.648 468.839 116.149C469.144 115.537 468.666 114.924 468.746 114.298C468.812 113.714 469.064 113.457 469.342 112.959C470.436 111.021 472.931 110.952 474.469 112.56C475.539 113.678 476.654 114.752 477.812 115.779C478.303 116.206 479.019 116.634 479.509 116.206C479.774 115.978 479.84 115.594 479.893 115.223C480.172 113.415 480.437 111.606 480.715 109.797C480.874 108.786 481.418 107.461 482.346 107.717C482.796 107.846 483.061 108.316 483.313 108.743C483.618 109.284 489.066 115.451 489.172 114.981C490.02 111.478 491.757 108.287 492.605 104.783C498.093 82.236 473.743 64.105 455.146 64.005C451.011 63.976 447.233 64.043 443.216 64.998C438.935 66.023 434.415 67.651 430.531 69.944C425.084 73.149 420.961 78.974 422.022 85.925" fill="#2E2445"/>
<path d="M435.671 92.1895C438.373 95.2485 439.088 99.5525 439.339 103.619C439.71 109.75 439.207 116.121 436.373 121.564C435.565 123.113 434.969 130.781 433.724 130.357C433.327 130.225 433.393 124.279 432.347 121.074C430.731 116.107 423.288 114.213 419.938 117.352C414.587 122.345 417.726 128.41 419.501 132.185C420.56 134.463 422.242 137.019 422.533 139.429C422.891 142.515 422.997 153.758 420.984 156.381C419.302 158.579 417.514 147.958 415.991 145.865C404.721 130.278 393.914 90.5865 413.157 81.9785C416.084 80.6675 425.116 79.9915 427.857 81.6605M506.921 407.703C508.034 407.888 509.16 408.047 510.325 408.087C516.523 408.285 522.509 406.921 528.561 405.888C533.885 404.974 535.329 404.471 535.223 398.048C534.296 347.18 526.813 296.444 513.358 247.377C511.305 239.881 509.067 232.332 505.134 225.631C498.419 214.202 483.004 204.336 471.177 198.8C469.509 198.018 462.596 202.415 460.914 201.66C459.444 200.998 458.146 199.965 456.662 199.316C452.319 197.423 449.405 201.382 445.776 203.038C443.896 203.885 441.803 204.428 439.737 204.336C438.055 204.269 436.532 203.25 434.996 204.044C428.083 207.62 410.919 181.08 410.919 181.08L403.463 188.828L381.704 211.62L327.327 286.538C327.327 286.538 317.46 347.935 310.68 388.182C309.501 395.121 304.839 410.126 303.912 415.384C304.111 414.245 350.331 413.94 352.82 413.94H447.021C452.305 413.94 466.516 416.178 470.224 412.298C474.793 407.53 480.077 385.652 480.355 379.52C481.269 358.9 479.852 338.439 479.574 317.7C479.693 326.136 482.116 333.764 483.149 342.028C484.487 352.663 486.394 363.284 488.116 373.865C489.493 382.368 490.817 390.897 491.877 399.452C492.354 403.306 491.744 405.597 495.002 407.107C497.744 408.365 503.717 407.16 506.921 407.703Z" fill="#2E2445"/>
<path d="M429.953 368.078C429.953 368.078 439.62 373.561 438.759 385.215C437.899 396.869 434.402 410.378 419.808 408.961C405.214 407.557 429.953 368.078 429.953 368.078Z" fill="#2E2445"/>
<path d="M383.214 259.123C383.241 266.447 382.221 273.784 380.314 280.882C378.394 287.981 375.586 294.827 372.328 301.423C370.699 304.72 368.964 307.952 367.176 311.143C365.415 314.348 363.601 317.527 362.117 320.785C361.389 322.414 360.753 324.096 360.502 325.751C360.435 326.559 360.369 327.393 360.594 328.095C360.647 328.479 360.872 328.77 361.005 329.115C361.257 329.419 361.429 329.751 361.747 330.042C364.117 332.412 367.507 334.015 370.726 335.564C383.943 341.59 397.981 346.053 411.357 352.066C418.045 355.072 424.666 358.317 430.825 362.369L431.963 363.137C432.348 363.402 432.705 363.747 433.076 364.051C433.758 364.712 434.35 365.46 434.837 366.276C435.817 367.879 436.48 369.627 436.996 371.401C437.976 374.964 438.387 378.632 438.413 382.301C438.175 378.659 437.565 375.017 436.493 371.56C435.354 368.13 433.592 364.793 430.295 363.19C424.11 359.35 417.475 356.29 410.747 353.47C404.006 350.688 397.186 348.053 390.339 345.497C383.492 342.901 376.606 340.425 369.878 337.352C366.567 335.71 363.164 334.161 360.343 331.313C359.985 330.969 359.694 330.492 359.389 330.082C359.164 329.578 358.859 329.102 358.78 328.572C358.462 327.512 358.568 326.466 358.661 325.473C358.979 323.513 359.694 321.738 360.462 320.043C362.038 316.653 363.879 313.488 365.667 310.296C367.454 307.104 369.256 303.939 370.964 300.721C377.784 287.901 382.526 273.797 383.214 259.123Z" fill="white"/>
<path d="M473.892 200.059C470.554 203.37 455.695 213.952 441.525 213.952C439.167 213.952 436.677 213.74 434.042 213.25C422.149 211.078 412.137 203.145 406.284 194.06C405.216 192.388 404.273 190.639 403.463 188.829C402.403 186.551 401.648 184.22 401.211 181.968C407.171 181.24 412.866 179.744 413.793 178.684C414.799 185.624 423.368 198.152 436.346 200.509C437.975 200.814 439.512 200.946 440.982 200.973H441.008C447.1 201.079 451.775 199.132 454.967 197.172C454.993 197.172 461.178 192.298 461.204 192.272L473.892 200.059Z" fill="#2E2445"/>
<path d="M483.217 351.348C483.18 350.7 483.264 350.058 483.241 349.41C483.214 348.708 483.136 348.023 483.083 347.323L482.698 343.312C482.452 340.58 482.205 337.848 481.998 335.114C481.588 329.699 481.308 324.263 481.162 318.833C480.882 307.972 481.039 297.086 481.769 286.248C481.97 283.212 482.224 280.187 482.504 277.16C482.656 275.613 482.82 274.052 482.985 272.504C483.152 270.982 483.398 269.469 483.418 267.93C483.43 266.974 481.994 266.909 481.779 267.796C481.144 270.432 481.052 273.262 480.779 275.957C480.519 278.665 480.287 281.375 480.082 284.088C479.687 289.561 479.425 295.042 479.296 300.527C479.061 311.443 479.451 322.365 480.382 333.255C480.647 336.318 480.951 339.365 481.321 342.408C481.515 343.962 481.708 345.503 481.941 347.056C482.046 347.739 482.137 348.424 482.268 349.093C482.431 349.88 482.724 350.606 482.888 351.393C482.978 351.573 483.239 351.506 483.217 351.348Z" fill="white"/>
<path d="M480.169 139.985C480.261 139.985 480.512 139.84 480.301 139.84C480.195 139.84 479.957 139.985 480.169 139.985Z" fill="#CC6144"/>
<path fill-rule="evenodd" clip-rule="evenodd" d="M327.641 264.616H306.817C283.807 264.616 265.17 283.274 265.17 306.263V494.924C265.17 517.934 283.807 536.57 306.817 536.57H598.346C621.356 536.57 639.993 517.934 639.993 494.924V245.042C639.993 222.032 621.356 203.395 598.346 203.395H505.244C501.853 203.395 498.513 204.225 495.515 205.811C492.518 207.396 489.953 209.691 488.044 212.494L458.787 255.495C456.878 258.304 454.311 260.605 451.31 262.194C448.308 263.784 444.963 264.615 441.566 264.616H410.935" fill="#4F27AA"/>
<path d="M189.567 327.684L190.975 326.275C195.622 321.628 203.156 321.628 207.803 326.275L209.212 327.684C213.858 332.331 213.858 339.865 209.212 344.511L207.803 345.92C203.156 350.567 195.622 350.567 190.975 345.92L189.567 344.511C184.92 339.865 184.92 332.331 189.567 327.684Z" fill="#4F27AA"/>
<path d="M670.063 198H670.238C671.271 212.328 682.153 212.548 682.153 212.548C682.153 212.548 670.153 212.778 670.153 229.333C670.153 212.778 658.153 212.548 658.153 212.548C658.153 212.548 669.031 212.328 670.063 198Z" fill="#E1E4E5"/>
<path d="M478.166 279H600.726C604.012 279 606.676 281.664 606.676 284.95C606.676 288.235 604.012 290.899 600.726 290.899H478.166C474.88 290.899 472.216 288.235 472.216 284.95C472.216 281.664 474.88 279 478.166 279Z" fill="white"/>
<path d="M519.218 303.988H600.131C603.746 303.988 606.676 306.918 606.676 310.533C606.676 314.147 603.746 317.077 600.131 317.077H519.218C515.603 317.077 512.673 314.147 512.673 310.533C512.673 306.918 515.603 303.988 519.218 303.988Z" fill="white"/>
<path d="M519.218 330.168H600.131C603.746 330.168 606.676 333.098 606.676 336.712C606.676 340.327 603.746 343.257 600.131 343.257H519.218C515.603 343.257 512.673 340.327 512.673 336.712C512.673 333.098 515.603 330.168 519.218 330.168Z" fill="white"/>
<path d="M583.426 471.763L608.867 497.204C609.794 498.13 609.794 499.632 608.867 500.558C607.941 501.484 606.439 501.484 605.513 500.558L580.072 475.117C579.146 474.191 579.146 472.689 580.072 471.763C580.998 470.836 582.5 470.836 583.426 471.763Z" fill="#2E2445"/>
<path d="M562.61 471.763L588.051 497.204C588.977 498.13 588.977 499.632 588.051 500.558C587.124 501.484 585.622 501.484 584.696 500.558L559.255 475.117C558.329 474.191 558.329 472.689 559.255 471.763C560.181 470.836 561.683 470.836 562.61 471.763Z" fill="#2E2445"/>
<path d="M540.491 471.763L565.932 497.204C566.859 498.13 566.859 499.632 565.932 500.558C565.006 501.484 563.504 501.484 562.578 500.558L537.137 475.117C536.211 474.191 536.211 472.689 537.137 471.763C538.063 470.836 539.565 470.836 540.491 471.763Z" fill="#2E2445"/>
<path d="M198.313 385.893L223.754 411.334C224.68 412.261 224.68 413.763 223.754 414.689C222.828 415.615 221.326 415.615 220.399 414.689L194.958 389.248C194.032 388.322 194.032 386.82 194.958 385.893C195.885 384.967 197.387 384.967 198.313 385.893Z" fill="#E1E4E5"/>
<path d="M230.84 167.315L256.281 192.756C257.208 193.683 257.208 195.185 256.281 196.111C255.355 197.037 253.853 197.037 252.927 196.111L227.486 170.67C226.56 169.744 226.56 168.242 227.486 167.315C228.412 166.389 229.914 166.389 230.84 167.315Z" fill="#E1E4E5"/>
<path d="M200.804 404.109L208.141 411.446C209.067 412.372 209.067 413.874 208.141 414.8C207.214 415.727 205.713 415.727 204.786 414.8L197.449 407.463C196.523 406.537 196.523 405.035 197.449 404.109C198.376 403.183 199.877 403.183 200.804 404.109Z" fill="#E1E4E5"/>
<path d="M233.331 185.531L240.667 192.868C241.594 193.794 241.594 195.296 240.667 196.222C239.741 197.149 238.239 197.149 237.313 196.222L229.976 188.885C229.05 187.959 229.05 186.457 229.976 185.531C230.902 184.604 232.404 184.604 233.331 185.531Z" fill="#E1E4E5"/>
<path d="M332.24 512.958C322.255 512.969 307.886 510.369 296.115 499.024C284.347 487.678 290.962 480.628 302.647 479.35C314.331 478.072 328.344 483.4 337.417 494.811C346.49 506.222 340.436 512.948 332.24 512.958Z" fill="url(#paint0_linear_1235_23329)"/>
<path d="M669.742 435.566C667.208 435.566 665.153 433.648 665.153 431.283C665.153 428.918 667.208 427 669.742 427C672.276 427 674.331 428.918 674.331 431.283C674.331 433.648 672.276 435.566 669.742 435.566Z" fill="#E1E4E5"/>
<path d="M402.866 373.25C402.866 373.25 421.653 376.017 430.824 372.283C439.898 368.588 461.271 354.438 481.736 351.915C481.927 351.89 482.121 351.933 482.284 352.036C482.448 352.138 482.57 352.295 482.63 352.478C483.056 353.819 483.285 357.066 477.216 360.242C469.308 364.363 463.335 367.675 463.335 367.675C463.335 367.675 500.564 377.419 510.455 380.81C512.408 381.478 513.904 382.234 515.06 383.04C518.663 385.553 516.022 391.204 511.756 390.15L486.791 383.988C486.791 383.988 488.947 385.968 488.118 388.448C487.327 390.791 482.805 392.362 478.948 391.171C478.948 391.171 481.181 393.598 479.214 396.381C477.247 399.163 472.493 399.062 470.2 398.54C470.2 398.54 472.832 400.393 471.993 402.805C471.154 405.217 465.904 406.37 464.222 406.207C462.541 406.044 448.357 407.14 427.71 399.184L399.902 405.497C399.902 405.497 391.56 398.673 402.866 373.25Z" fill="#F8AE9D"/>
<path d="M422.163 407.808C387.174 419.952 340.358 408.351 310.679 388.181C292.085 375.573 280.219 359.562 282.219 343.921C287.397 303.29 319.327 210.162 346.953 196.574C365.732 187.33 388.511 183.503 401.212 181.966C407.171 181.238 410.893 181.066 410.893 181.066L406.284 194.071L383.214 259.123C382.353 297.728 354.727 320.652 360.223 329.645C365.719 338.61 409.118 348.291 431.91 363.641C438.214 367.905 446.213 398.749 422.163 407.808Z" fill="#2E2445"/>
<path d="M342.936 143.722C357.551 153.788 379.878 146.751 379.878 146.751C379.878 146.751 378.495 123.396 363.871 113.34C349.256 103.273 326.939 110.3 326.939 110.3C326.939 110.3 328.321 133.655 342.936 143.722Z" fill="url(#paint1_linear_1235_23329)"/>
<path d="M712.775 368.999C706.272 368.999 701.001 374.042 701.001 380.262C701.001 386.483 706.272 391.525 712.775 391.525C719.278 391.525 724.549 386.483 724.549 380.262C724.549 374.042 719.278 368.999 712.775 368.999Z" fill="#4F27AA"/>
<path d="M183.631 307.262C180.521 307.262 178 304.741 178 301.631C178 298.521 180.521 296 183.631 296C186.741 296 189.262 298.521 189.262 301.631C189.262 304.741 186.741 307.262 183.631 307.262Z" fill="#4F27AA"/>
<path d="M628.903 165.502C622.965 165.502 618.152 160.689 618.152 154.751C618.152 148.813 622.965 144 628.903 144C634.841 144 639.654 148.813 639.654 154.751C639.654 160.689 634.841 165.502 628.903 165.502Z" fill="#4F27AA"/>
<path d="M711.751 501.478C705.813 501.478 701 496.894 701 491.239C701 485.584 705.813 481 711.751 481C717.689 481 722.502 485.584 722.502 491.239C722.502 496.894 717.689 501.478 711.751 501.478Z" fill="#E1E4E5"/>
<path d="M375.583 504.168C373.604 504.168 371.999 502.563 371.999 500.584C371.999 498.605 373.604 497 375.583 497C377.562 497 379.167 498.605 379.167 500.584C379.167 502.563 377.562 504.168 375.583 504.168Z" fill="#E1E4E5"/>
<path d="M544.119 169.238C541.292 169.238 539 166.946 539 164.119C539 161.292 541.292 159 544.119 159C546.946 159 549.238 161.292 549.238 164.119C549.238 166.946 546.946 169.238 544.119 169.238Z" fill="#E1E4E5"/>
<path d="M185.96 419.833C186.675 422.502 185.091 425.245 182.422 425.96C179.753 426.675 177.01 425.091 176.295 422.422C175.579 419.753 177.163 417.01 179.832 416.295C182.501 415.58 185.244 417.164 185.96 419.833Z" fill="#E1E4E5"/>
<path d="M269.655 187.31C265.98 187.31 263 184.33 263 180.655C263 176.98 265.98 174 269.655 174C273.331 174 276.31 176.98 276.31 180.655C276.31 184.33 273.331 187.31 269.655 187.31Z" fill="#E1E4E5"/>
<path d="M704.119 291.19C701.292 291.19 699 289.357 699 287.095C699 284.833 701.292 283 704.119 283C706.946 283 709.238 284.833 709.238 287.095C709.238 289.357 706.946 291.19 704.119 291.19Z" fill="#E1E4E5"/>
<path d="M291.299 228H291.433C292.226 239.236 300.583 239.409 300.583 239.409C300.583 239.409 291.368 239.589 291.368 252.573C291.368 239.589 282.153 239.409 282.153 239.409C282.153 239.409 290.506 239.236 291.299 228ZM196.505 195.527H196.644C197.469 207.392 206.153 207.575 206.153 207.575C206.153 207.575 196.577 207.765 196.577 221.476C196.577 207.765 187 207.575 187 207.575C187 207.575 195.681 207.392 196.505 195.527Z" fill="#E1E4E5"/>
</g>
<defs>
<linearGradient id="paint0_linear_1235_23329" x1="279.463" y1="516.69" x2="370.302" y2="465.403" gradientUnits="userSpaceOnUse">
<stop stop-color="white"/>
<stop offset="1" stop-color="#EEEEEE"/>
</linearGradient>
<linearGradient id="paint1_linear_1235_23329" x1="399.866" y1="176.751" x2="284.824" y2="55.4416" gradientUnits="userSpaceOnUse">
<stop stop-color="white"/>
<stop offset="1" stop-color="#EEEEEE"/>
</linearGradient>
<clipPath id="clip0_1235_23329">
<rect width="900" height="600" fill="white"/>
</clipPath>
</defs>
</svg>
