<svg width="900" height="600" viewBox="0 0 900 600" fill="none" xmlns="http://www.w3.org/2000/svg">
<g clip-path="url(#clip0_1235_23369)">
<path d="M514.391 388.765V486.143M598.024 291V486.147M430.757 339.869V486.145M347.552 388.765V486.143M263.919 291V486.147M180.285 437.64V486.147" stroke="#4F27AA" stroke-width="36.547" stroke-linecap="round" stroke-linejoin="round"/>
<path d="M341.127 438.508C346.115 438.508 350.158 442.552 350.158 447.539C350.158 452.527 346.115 456.57 341.127 456.57C336.139 456.57 332.096 452.527 332.096 447.539C332.096 442.552 336.139 438.508 341.127 438.508Z" fill="#4F27AA"/>
<path d="M721.963 384.196H665.474M721.963 417.707H665.473M665.474 355.952H703.133M665.473 445.952H703.133M665.474 327.707H674.889M665.473 474.196H674.888" stroke="#E1E4E5" stroke-width="12.945" stroke-linecap="round" stroke-linejoin="round"/>
<path d="M703.967 273.676L611.912 237.029C610.504 236.468 609 236.189 607.485 236.21C605.969 236.231 604.473 236.55 603.081 237.149L512.071 276.33M512.059 276.116L420.004 239.468C418.596 238.907 417.091 238.628 415.576 238.649C414.06 238.67 412.564 238.989 411.172 239.589L320.163 278.77" stroke="#E1E4E5" stroke-width="4" stroke-linecap="round" stroke-linejoin="round"/>
<path d="M419.499 228.855C425.078 231.076 427.8 237.399 425.579 242.979C423.358 248.558 417.034 251.28 411.455 249.059C405.876 246.838 403.154 240.514 405.375 234.935C407.596 229.356 413.919 226.634 419.499 228.855Z" fill="#E1E4E5"/>
<path d="M323.287 269.394C328.866 271.615 331.589 277.938 329.368 283.518C327.146 289.097 320.823 291.819 315.244 289.598C309.665 287.377 306.943 281.053 309.164 275.474C311.385 269.895 317.708 267.173 323.287 269.394Z" fill="#E1E4E5"/>
<path d="M515.2 266.957C520.779 269.178 523.502 275.501 521.28 281.08C519.059 286.659 512.736 289.381 507.157 287.16C501.578 284.939 498.856 278.616 501.077 273.037C503.298 267.458 509.621 264.735 515.2 266.957Z" fill="#E1E4E5"/>
<path d="M610.988 227.48C616.567 229.701 619.289 236.024 617.068 241.604C614.847 247.183 608.524 249.905 602.945 247.684C597.366 245.463 594.643 239.139 596.865 233.56C599.086 227.981 605.409 225.259 610.988 227.48Z" fill="#E1E4E5"/>
<path d="M707.847 265.968C713.426 268.189 716.149 274.513 713.927 280.092C711.706 285.671 705.383 288.393 699.804 286.172C694.225 283.951 691.503 277.628 693.724 272.048C695.945 266.469 702.268 263.747 707.847 265.968Z" fill="#E1E4E5"/>
<path fill-rule="evenodd" clip-rule="evenodd" d="M150.349 348.898H153.525C154.292 348.898 154.911 349.522 154.911 350.284V353.459C154.911 354.227 154.286 354.845 153.525 354.845H150.349C149.982 354.844 149.63 354.697 149.37 354.438C149.111 354.178 148.964 353.826 148.963 353.459V350.284C148.963 350.102 148.998 349.921 149.068 349.753C149.137 349.585 149.239 349.432 149.368 349.303C149.497 349.174 149.65 349.072 149.818 349.003C149.986 348.933 150.167 348.898 150.349 348.898ZM161.358 348.898H164.534C165.295 348.898 165.92 349.522 165.92 350.284V353.459C165.92 354.227 165.295 354.845 164.534 354.845H161.358C160.991 354.844 160.639 354.697 160.379 354.438C160.12 354.178 159.973 353.826 159.972 353.459V350.284C159.972 349.522 160.597 348.898 161.358 348.898ZM172.375 348.898H175.551C176.312 348.898 176.937 349.522 176.937 350.284V353.459C176.937 354.227 176.312 354.845 175.551 354.845H172.375C172.008 354.844 171.656 354.697 171.396 354.438C171.137 354.178 170.99 353.826 170.989 353.459V350.284C170.989 350.102 171.024 349.921 171.094 349.753C171.163 349.585 171.265 349.432 171.394 349.303C171.523 349.174 171.676 349.072 171.844 349.003C172.012 348.933 172.193 348.898 172.375 348.898ZM183.385 348.898H186.56C187.321 348.898 187.946 349.522 187.946 350.284V353.459C187.946 354.227 187.321 354.845 186.56 354.845H183.385C183.017 354.845 182.664 354.699 182.402 354.439C182.141 354.18 181.994 353.827 181.992 353.459V350.284C181.996 349.916 182.144 349.565 182.405 349.306C182.665 349.047 183.017 348.9 183.385 348.898ZM194.395 348.898H197.57C198.338 348.898 198.963 349.522 198.963 350.284V353.459C198.963 354.227 198.338 354.845 197.57 354.845H194.395C194.028 354.844 193.676 354.697 193.416 354.438C193.157 354.178 193.01 353.826 193.009 353.459V350.284C193.009 349.522 193.634 348.898 194.395 348.898ZM161.762 360.903H164.937C165.699 360.903 166.323 361.528 166.323 362.289V365.471C166.323 366.232 165.699 366.857 164.937 366.857H161.762C161.395 366.857 161.042 366.711 160.782 366.451C160.522 366.191 160.376 365.839 160.376 365.471V362.295C160.375 362.112 160.41 361.932 160.48 361.763C160.549 361.594 160.651 361.44 160.78 361.311C160.908 361.181 161.061 361.079 161.23 361.009C161.399 360.939 161.579 360.903 161.762 360.903ZM172.772 360.903H175.947C176.708 360.903 177.333 361.528 177.333 362.289V365.471C177.333 366.232 176.708 366.857 175.947 366.857H172.772C172.405 366.856 172.053 366.709 171.793 366.45C171.534 366.19 171.387 365.838 171.386 365.471V362.295C171.385 362.112 171.42 361.931 171.489 361.762C171.558 361.593 171.66 361.44 171.789 361.31C171.918 361.181 172.071 361.078 172.24 361.009C172.409 360.939 172.589 360.903 172.772 360.903ZM183.782 360.903H186.958C187.725 360.903 188.35 361.528 188.35 362.289V365.471C188.35 366.232 187.725 366.857 186.958 366.857H183.782C183.415 366.855 183.063 366.709 182.804 366.449C182.544 366.19 182.398 365.838 182.396 365.471V362.295C182.396 361.528 183.021 360.903 183.782 360.903ZM172.375 336H175.551C176.312 336 176.937 336.625 176.937 337.386V340.562C176.937 341.33 176.312 341.948 175.551 341.948H172.375C172.008 341.946 171.656 341.8 171.397 341.54C171.137 341.281 170.991 340.929 170.989 340.562V337.386C170.989 337.204 171.024 337.023 171.094 336.855C171.163 336.687 171.265 336.534 171.394 336.405C171.523 336.276 171.676 336.174 171.844 336.105C172.012 336.035 172.193 336 172.375 336ZM183.385 336H186.56C187.321 336 187.946 336.625 187.946 337.386V340.562C187.946 341.33 187.321 341.948 186.56 341.948H183.385C183.017 341.948 182.664 341.802 182.402 341.542C182.141 341.283 181.994 340.93 181.992 340.562V337.386C181.996 337.018 182.145 336.667 182.405 336.408C182.666 336.149 183.017 336.002 183.385 336Z" fill="#E1E4E5"/>
<path d="M149.506 304.884C136.552 307.953 122.852 296.967 122.852 296.967C122.852 296.967 130.163 281.011 143.121 277.952C156.075 274.883 169.771 285.86 169.771 285.86C169.771 285.86 162.46 301.815 149.506 304.884Z" fill="url(#paint0_linear_1235_23369)"/>
<path d="M747.21 452.522C741.327 452.522 736.558 457.291 736.558 463.174C736.558 469.057 741.327 473.826 747.21 473.826C753.093 473.826 757.862 469.057 757.862 463.174C757.862 457.291 753.093 452.522 747.21 452.522Z" fill="#4F27AA"/>
<path d="M216.998 264.996C212.581 264.996 209 261.415 209 256.998C209 252.581 212.581 249 216.998 249C221.415 249 224.996 252.581 224.996 256.998C224.996 261.415 221.415 264.996 216.998 264.996Z" fill="#4F27AA"/>
<path d="M654.231 205.538C645.799 205.538 638.963 198.702 638.963 190.27C638.963 181.838 645.799 175.002 654.231 175.002C662.663 175.002 669.499 181.838 669.499 190.27C669.499 198.702 662.663 205.538 654.231 205.538Z" fill="#4F27AA"/>
<path d="M796.238 509.259C792.707 509.259 789.844 506.635 789.844 503.398C789.844 500.161 792.707 497.537 796.238 497.537C799.769 497.537 802.632 500.161 802.632 503.398C802.632 506.635 799.769 509.259 796.238 509.259Z" fill="#E1E4E5"/>
<path d="M114.962 425.153C110.256 425.153 106.441 421.338 106.441 416.632C106.441 411.926 110.256 408.111 114.962 408.111C119.668 408.111 123.483 411.926 123.483 416.632C123.483 421.338 119.668 425.153 114.962 425.153Z" fill="#E1E4E5"/>
<path d="M517.052 345.18C514.241 345.18 511.963 342.902 511.963 340.091C511.963 337.28 514.241 335.002 517.052 335.002C519.863 335.002 522.141 337.28 522.141 340.091C522.141 342.902 519.863 345.18 517.052 345.18Z" fill="#E1E4E5"/>
<path d="M506.271 205.54C502.255 205.54 499 202.285 499 198.269C499 194.253 502.255 190.998 506.271 190.998C510.287 190.998 513.542 194.253 513.542 198.269C513.542 202.285 510.287 205.54 506.271 205.54Z" fill="#E1E4E5"/>
<path d="M776.442 354.008C776.442 358.124 773.105 361.461 768.989 361.461C764.873 361.461 761.536 358.124 761.536 354.008C761.536 349.892 764.873 346.555 768.989 346.555C773.105 346.555 776.442 349.892 776.442 354.008Z" fill="#E1E4E5"/>
<path d="M746.952 188H747.142C748.269 203.959 760.137 204.204 760.137 204.204C760.137 204.204 747.05 204.46 747.05 222.899C747.05 204.46 733.963 204.204 733.963 204.204C733.963 204.204 745.826 203.959 746.952 188ZM296.437 201H296.56C297.292 211.797 305 211.963 305 211.963C305 211.963 296.5 212.136 296.5 224.611C296.5 212.136 288 211.963 288 211.963C288 211.963 295.705 211.797 296.437 201Z" fill="#E1E4E5"/>
</g>
<defs>
<linearGradient id="paint0_linear_1235_23369" x1="100.726" y1="312.514" x2="214.123" y2="258.941" gradientUnits="userSpaceOnUse">
<stop stop-color="white"/>
<stop offset="1" stop-color="#EEEEEE"/>
</linearGradient>
<clipPath id="clip0_1235_23369">
<rect width="900" height="600" fill="white"/>
</clipPath>
</defs>
</svg>
