<svg width="900" height="600" viewBox="0 0 900 600" fill="none" xmlns="http://www.w3.org/2000/svg">
<g clip-path="url(#clip0_1235_23391)">
<path fill-rule="evenodd" clip-rule="evenodd" d="M476.862 326.57V453.484C476.862 468.569 489.08 480.786 504.165 480.786H695.266C710.351 480.786 722.569 468.569 722.569 453.484V326.57" fill="#4F27AA"/>
<path d="M476.862 326.57V453.484C476.862 468.569 489.08 480.786 504.165 480.786H695.266C710.351 480.786 722.569 468.569 722.569 453.484V326.57" stroke="#4F27AA" stroke-width="18.3" stroke-linecap="round" stroke-linejoin="round"/>
<path fill-rule="evenodd" clip-rule="evenodd" d="M488.958 303.922L584.434 239.694C588.952 236.657 594.272 235.035 599.716 235.035C605.16 235.035 610.48 236.657 614.998 239.694L710.474 303.922C726.555 314.747 726.555 338.405 710.474 349.23L630.288 403.179C621.254 409.259 610.612 412.507 599.723 412.507C588.834 412.507 578.192 409.259 569.158 403.179L488.971 349.23C472.877 338.405 472.877 314.734 488.958 303.922Z" fill="white" stroke="#4F27AA" stroke-width="18.3" stroke-linecap="round" stroke-linejoin="round"/>
<path d="M553.541 310.682H645.904M563.702 347.321H636.124" stroke="#4F27AA" stroke-width="17.132" stroke-linecap="round" stroke-linejoin="round"/>
<path fill-rule="evenodd" clip-rule="evenodd" d="M367.617 492.46L344.488 515.59L321.359 492.46H275.1C255.938 492.46 240.406 476.929 240.406 457.766V318.991C240.406 299.828 255.938 284.297 275.1 284.297H413.876C433.039 284.297 448.57 299.828 448.57 318.991V457.766C448.57 476.929 433.039 492.46 413.876 492.46H367.617Z" fill="#4F27AA"/>
<path fill-rule="evenodd" clip-rule="evenodd" d="M319.496 413.336C342.719 436.569 372.144 451.377 389.643 433.952L393.888 429.707C399.537 424.059 398.749 414.708 392.196 410.144C388.058 407.261 383.611 404.166 378.697 400.708C373.612 397.134 366.633 397.677 362.219 402.059L357.421 406.825C351.474 403.059 345.591 398.219 340.123 392.762L340.102 392.741C334.645 387.283 329.805 381.39 326.039 375.443L330.805 370.645C335.187 366.231 335.741 359.242 332.145 354.157C328.989 349.68 325.851 345.191 322.73 340.689C318.177 334.115 308.816 333.317 303.157 338.976L298.912 343.221C281.498 360.72 296.295 390.124 319.518 413.368" fill="white"/>
<path d="M449.158 117.304V232.149C449.158 242.01 442.322 250.004 433.89 250.004H277.382C274.445 250.004 271.561 251.001 269.077 252.867L246.048 270.318C235.893 278.016 222.475 269.491 222.475 255.326V117.282C222.475 107.422 229.311 99.4277 237.743 99.4277H433.872C442.322 99.4487 449.158 107.443 449.158 117.304Z" fill="#4F27AA"/>
<path d="M270.74 182.496H401.138C405.222 182.496 408.544 179.174 408.544 175.09C408.544 171.006 405.222 167.685 401.138 167.685H270.74C266.656 167.685 263.334 171.006 263.334 175.09C263.334 179.174 266.656 182.496 270.74 182.496ZM271.177 150.677H329.969C334.053 150.677 337.375 147.355 337.375 143.271C337.375 139.187 334.053 135.865 329.969 135.865H271.177C267.093 135.865 263.772 139.187 263.772 143.271C263.772 147.355 267.093 150.677 271.177 150.677ZM401.138 200.483H270.74C266.656 200.483 263.334 203.805 263.334 207.889C263.334 211.973 266.656 215.295 270.74 215.295H401.138C405.222 215.295 408.544 211.973 408.544 207.889C408.544 203.805 405.222 200.483 401.138 200.483Z" fill="white"/>
<path d="M522.831 111.624V189.981C522.831 196.708 527.495 202.162 533.248 202.162H640.03C642.034 202.162 644.001 202.842 645.696 204.115L661.408 216.022C668.337 221.274 677.492 215.458 677.492 205.794V111.61C677.492 104.882 672.827 99.4277 667.075 99.4277H533.26C527.495 99.4417 522.831 104.897 522.831 111.624Z" fill="#4F27AA"/>
<path d="M644.562 156.102H555.594C554.254 156.101 552.97 155.568 552.022 154.621C551.075 153.673 550.542 152.389 550.541 151.049C550.543 149.71 551.076 148.425 552.023 147.478C552.97 146.531 554.254 145.998 555.594 145.997H644.562C645.901 145.998 647.186 146.531 648.133 147.478C649.08 148.425 649.613 149.71 649.614 151.049C649.613 152.389 649.08 153.673 648.133 154.62C647.186 155.568 645.902 156.101 644.562 156.102ZM644.263 134.393H604.151C602.811 134.392 601.527 133.859 600.579 132.912C599.632 131.964 599.099 130.68 599.098 129.34C599.099 128 599.632 126.716 600.579 125.769C601.527 124.821 602.811 124.288 604.151 124.287H644.263C645.603 124.289 646.887 124.822 647.834 125.769C648.781 126.716 649.314 128.001 649.315 129.34C649.314 130.68 648.781 131.964 647.834 132.911C646.887 133.859 645.603 134.392 644.263 134.393ZM555.594 168.374H644.562C645.902 168.376 647.186 168.909 648.133 169.856C649.08 170.803 649.613 172.088 649.614 173.427C649.613 174.767 649.08 176.051 648.133 176.998C647.186 177.946 645.902 178.479 644.562 178.48H555.594C554.254 178.479 552.97 177.946 552.022 176.999C551.075 176.051 550.542 174.767 550.541 173.427C550.542 172.087 551.075 170.803 552.022 169.856C552.97 168.908 554.254 168.375 555.594 168.374Z" fill="white"/>
<path d="M785.225 426.064C780.536 435.752 766.655 438.733 766.655 438.733C766.655 438.733 760.384 426.004 765.081 416.319C769.771 406.631 783.644 403.648 783.644 403.648C783.644 403.648 789.914 416.377 785.225 426.064Z" fill="url(#paint0_linear_1235_23391)"/>
<path d="M143.359 155.294C163.332 169.051 193.845 159.434 193.845 159.434C193.845 159.434 191.956 127.517 171.969 113.773C151.997 100.016 121.497 109.619 121.497 109.619C121.497 109.619 123.386 141.537 143.359 155.294Z" fill="url(#paint1_linear_1235_23391)"/>
<path d="M753.254 180.042C739.477 194.064 713.715 191.108 713.715 191.108C713.715 191.108 710.305 165.417 724.095 151.403C737.872 137.381 763.622 140.329 763.622 140.329C763.622 140.329 767.031 166.02 753.254 180.042Z" fill="url(#paint2_linear_1235_23391)"/>
<path d="M467.423 489.441C460.886 489.441 455.587 494.74 455.587 501.277C455.587 507.814 460.886 513.113 467.423 513.113C473.96 513.113 479.259 507.814 479.259 501.277C479.259 494.74 473.96 489.441 467.423 489.441Z" fill="#4F27AA"/>
<path d="M562.299 441.539C555.061 441.539 549.193 447.114 549.193 453.99C549.193 460.867 555.061 466.441 562.299 466.441C569.537 466.441 575.405 460.867 575.405 453.99C575.405 447.114 569.537 441.539 562.299 441.539Z" fill="#4F27AA"/>
<path d="M485.286 246.241C478.787 246.241 473.518 240.972 473.518 234.473C473.518 227.974 478.787 222.705 485.286 222.705C491.785 222.705 497.054 227.974 497.054 234.473C497.054 240.972 491.785 246.241 485.286 246.241Z" fill="#4F27AA"/>
<path d="M496.521 158.38C490.006 158.38 484.725 153.392 484.725 147.24C484.725 141.087 490.006 136.1 496.521 136.1C503.036 136.1 508.317 141.087 508.317 147.24C508.317 153.392 503.036 158.38 496.521 158.38Z" fill="#E1E4E5"/>
<path d="M236.427 525.19C231.197 525.19 226.958 520.951 226.958 515.721C226.958 510.491 231.197 506.252 236.427 506.252C241.657 506.252 245.896 510.491 245.896 515.721C245.896 520.951 241.657 525.19 236.427 525.19Z" fill="#E1E4E5"/>
<path d="M559.92 535.816C556.796 535.816 554.264 533.284 554.264 530.16C554.264 527.036 556.796 524.504 559.92 524.504C563.044 524.504 565.576 527.036 565.576 530.16C565.576 533.284 563.044 535.816 559.92 535.816Z" fill="#E1E4E5"/>
<path d="M700.14 84.2049C695.678 84.2049 692.061 80.5878 692.061 76.1259C692.061 71.664 695.678 68.0469 700.14 68.0469C704.602 68.0469 708.219 71.664 708.219 76.1259C708.219 80.5878 704.602 84.2049 700.14 84.2049Z" fill="#E1E4E5"/>
<path d="M644.354 520.602C645.482 524.813 642.983 529.143 638.771 530.271C634.559 531.4 630.23 528.9 629.102 524.688C627.973 520.477 630.472 516.148 634.684 515.019C638.896 513.891 643.225 516.39 644.354 520.602Z" fill="#E1E4E5"/>
<path d="M204.96 343.457C199.159 343.457 194.457 338.755 194.457 332.954C194.457 327.154 199.159 322.451 204.96 322.451C210.761 322.451 215.463 327.154 215.463 332.954C215.463 338.755 210.761 343.457 204.96 343.457Z" fill="#E1E4E5"/>
<path d="M468.149 290.549C463.687 290.549 460.07 287.655 460.07 284.086C460.07 280.517 463.687 277.623 468.149 277.623C472.611 277.623 476.228 280.517 476.228 284.086C476.228 287.655 472.611 290.549 468.149 290.549Z" fill="#E1E4E5"/>
<path d="M729.832 511.585C730.886 515.518 734.928 517.852 738.861 516.798C742.794 515.744 745.128 511.702 744.074 507.769C743.02 503.837 738.978 501.503 735.045 502.556C731.112 503.61 728.778 507.653 729.832 511.585Z" fill="#E1E4E5"/>
<path d="M194.321 68.0455H194.533C195.784 85.7785 208.972 86.0515 208.972 86.0515C208.972 86.0515 194.43 86.3355 194.43 106.827C194.43 86.3365 179.887 86.0515 179.887 86.0515C179.887 86.0515 193.07 85.7785 194.321 68.0455ZM453.994 63.5625H454.201C455.423 81.6035 468.304 81.8825 468.304 81.8825C468.304 81.8825 454.1 82.1705 454.1 103.017C454.1 82.1705 439.896 81.8815 439.896 81.8815C439.896 81.8815 452.772 81.6035 453.994 63.5625ZM162.605 386.021H162.811C164.033 404.062 176.914 404.341 176.914 404.341C176.914 404.341 162.71 404.63 162.71 425.476C162.71 404.63 148.507 404.341 148.507 404.341C148.507 404.341 161.382 404.062 162.605 386.021ZM731.935 226.068H732.142C733.364 244.109 746.245 244.387 746.245 244.387C746.245 244.387 732.041 244.677 732.041 265.523C732.041 244.677 717.838 244.387 717.838 244.387C717.838 244.387 730.713 244.109 731.935 226.068ZM775.442 297.795H775.596C776.509 311.275 786.134 311.484 786.134 311.484C786.134 311.484 775.521 311.699 775.521 327.275C775.521 311.699 764.908 311.484 764.908 311.484C764.908 311.484 774.528 311.275 775.442 297.795Z" fill="#E1E4E5"/>
</g>
<defs>
<linearGradient id="paint0_linear_1235_23391" x1="765.106" y1="460.542" x2="789.409" y2="362.1" gradientUnits="userSpaceOnUse">
<stop stop-color="white"/>
<stop offset="1" stop-color="#EEEEEE"/>
</linearGradient>
<linearGradient id="paint1_linear_1235_23391" x1="221.161" y1="200.432" x2="63.941" y2="34.6484" gradientUnits="userSpaceOnUse">
<stop stop-color="white"/>
<stop offset="1" stop-color="#EEEEEE"/>
</linearGradient>
<linearGradient id="paint2_linear_1235_23391" x1="698.286" y1="227.939" x2="797.886" y2="71.8066" gradientUnits="userSpaceOnUse">
<stop stop-color="white"/>
<stop offset="1" stop-color="#EEEEEE"/>
</linearGradient>
<clipPath id="clip0_1235_23391">
<rect width="900" height="600" fill="white"/>
</clipPath>
</defs>
</svg>
