<svg width="900" height="600" viewBox="0 0 900 600" fill="none" xmlns="http://www.w3.org/2000/svg">
<g clip-path="url(#clip0_1235_23418)">
<path d="M397.561 194.01L383.482 130.783H342.764" stroke="#4F27AA" stroke-width="29.305" stroke-linecap="round" stroke-linejoin="round"/>
<path fill-rule="evenodd" clip-rule="evenodd" d="M435.08 368.001L397.56 194.01H667.098C680.662 194.01 690.755 206.45 687.923 219.653L655.94 368.001C653.832 377.771 645.165 384.743 635.114 384.743H455.884C445.855 384.743 437.188 377.771 435.08 368.001Z" fill="#4F27AA" stroke="#4F27AA" stroke-width="29.305" stroke-linecap="round" stroke-linejoin="round"/>
<path d="M626.175 439.803C620.503 439.803 615.9 444.406 615.955 450.077C615.955 455.749 620.558 460.352 626.229 460.352C631.901 460.352 636.504 455.749 636.504 450.077C636.476 444.406 631.873 439.803 626.175 439.803ZM461.8 439.803C456.128 439.803 451.526 444.406 451.58 450.077C451.553 455.749 456.156 460.352 461.827 460.352C467.499 460.352 472.101 455.749 472.101 450.077C472.101 444.406 467.499 439.803 461.8 439.803Z" stroke="#4F27AA" stroke-width="37.956" stroke-linecap="round" stroke-linejoin="round"/>
<path d="M766.381 299.389L751.236 314.142L742.144 305.292" stroke="white" stroke-width="6.209" stroke-linecap="round" stroke-linejoin="round"/>
<path d="M614.638 244.592H471.325C465.505 244.592 460.787 249.31 460.787 255.13V259.345C460.787 265.165 465.505 269.883 471.325 269.883H614.638C620.458 269.883 625.176 265.165 625.176 259.345V255.13C625.176 249.31 620.458 244.592 614.638 244.592Z" fill="white"/>
<path d="M614.638 304.656H471.325C465.505 304.656 460.787 309.374 460.787 315.194V319.409C460.787 325.229 465.505 329.947 471.325 329.947H614.638C620.458 329.947 625.176 325.229 625.176 319.409V315.194C625.176 309.374 620.458 304.656 614.638 304.656Z" fill="white"/>
<path d="M742.006 215.406H741.845C740.893 228.416 730.859 228.617 730.859 228.617C730.859 228.617 741.923 228.825 741.923 243.858C741.923 228.825 752.988 228.617 752.988 228.617C752.988 228.617 742.958 228.416 742.006 215.406ZM154.444 248.946H154.284C153.331 261.956 143.297 262.156 143.297 262.156C143.297 262.156 154.362 262.365 154.362 277.398C154.362 262.365 165.426 262.156 165.426 262.156C165.426 262.156 155.397 261.956 154.444 248.946Z" fill="#E1E4E5"/>
<path fill-rule="evenodd" clip-rule="evenodd" d="M713.118 362.284H718.01C719.192 362.284 720.145 363.246 720.145 364.419V369.31C720.144 369.876 719.919 370.419 719.519 370.819C719.119 371.219 718.576 371.444 718.01 371.445H713.118C712.552 371.443 712.011 371.217 711.611 370.817C711.211 370.417 710.985 369.875 710.983 369.31V364.419C710.982 364.138 711.037 363.86 711.144 363.601C711.251 363.342 711.408 363.106 711.607 362.908C711.805 362.709 712.041 362.552 712.3 362.445C712.559 362.338 712.837 362.283 713.118 362.284ZM730.076 362.284H734.968C736.14 362.284 737.103 363.246 737.103 364.419V369.31C737.102 369.876 736.877 370.419 736.477 370.819C736.077 371.219 735.534 371.444 734.968 371.445H730.076C729.511 371.443 728.969 371.217 728.569 370.817C728.17 370.417 727.944 369.875 727.942 369.31V364.419C727.942 363.246 728.904 362.284 730.076 362.284ZM747.046 362.284H751.937C753.11 362.284 754.072 363.246 754.072 364.419V369.31C754.072 369.876 753.847 370.419 753.446 370.819C753.046 371.22 752.503 371.445 751.937 371.445H747.046C746.48 371.443 745.939 371.217 745.539 370.817C745.139 370.417 744.913 369.876 744.911 369.31V364.419C744.91 364.138 744.965 363.86 745.072 363.601C745.179 363.342 745.336 363.106 745.535 362.908C745.733 362.709 745.969 362.552 746.228 362.445C746.487 362.338 746.765 362.283 747.046 362.284ZM764.005 362.284H768.896C770.069 362.284 771.031 363.246 771.031 364.419V369.31C771.031 369.876 770.806 370.419 770.405 370.819C770.005 371.22 769.462 371.445 768.896 371.445H764.005C763.438 371.445 762.894 371.22 762.492 370.82C762.09 370.42 761.863 369.877 761.86 369.31V364.419C761.866 363.853 762.094 363.312 762.495 362.912C762.897 362.513 763.439 362.287 764.005 362.284ZM780.964 362.284H785.855C787.038 362.284 788 363.246 788 364.419V369.31C787.999 369.591 787.944 369.869 787.835 370.129C787.727 370.388 787.569 370.624 787.37 370.822C787.171 371.02 786.934 371.177 786.674 371.284C786.414 371.391 786.136 371.446 785.855 371.445H780.964C780.398 371.443 779.857 371.217 779.457 370.817C779.057 370.417 778.831 369.876 778.829 369.31V364.419C778.829 363.246 779.791 362.284 780.964 362.284ZM730.699 380.776H735.59C736.763 380.776 737.725 381.738 737.725 382.911V387.812C737.723 388.378 737.497 388.919 737.097 389.319C736.697 389.719 736.156 389.945 735.59 389.947H730.699C730.133 389.947 729.59 389.722 729.19 389.321C728.789 388.921 728.564 388.378 728.564 387.812V382.921C728.562 382.64 728.616 382.361 728.723 382.1C728.829 381.84 728.986 381.603 729.185 381.404C729.383 381.205 729.619 381.046 729.879 380.939C730.139 380.831 730.418 380.776 730.699 380.776ZM747.658 380.776H752.549C753.722 380.776 754.684 381.738 754.684 382.911V387.812C754.682 388.378 754.456 388.919 754.056 389.319C753.656 389.719 753.115 389.945 752.549 389.947H747.658C747.092 389.945 746.551 389.719 746.151 389.319C745.751 388.919 745.525 388.378 745.523 387.812V382.921C745.521 382.64 745.575 382.361 745.682 382.1C745.788 381.84 745.945 381.603 746.144 381.404C746.342 381.205 746.578 381.046 746.838 380.939C747.098 380.831 747.377 380.776 747.658 380.776ZM764.617 380.776H769.508C770.691 380.776 771.653 381.738 771.653 382.911V387.812C771.65 388.379 771.423 388.922 771.021 389.322C770.619 389.722 770.075 389.947 769.508 389.947H764.617C764.051 389.945 763.51 389.719 763.11 389.319C762.71 388.919 762.484 388.378 762.482 387.812V382.921C762.482 381.738 763.444 380.776 764.617 380.776ZM747.046 342.418H751.937C753.11 342.418 754.072 343.38 754.072 344.552V349.444C754.071 350.01 753.846 350.553 753.446 350.953C753.046 351.353 752.503 351.578 751.937 351.579H747.046C746.48 351.577 745.939 351.351 745.539 350.951C745.139 350.551 744.913 350.009 744.911 349.444V344.552C744.91 344.272 744.965 343.994 745.072 343.734C745.18 343.475 745.337 343.24 745.535 343.041C745.734 342.843 745.969 342.686 746.228 342.579C746.488 342.472 746.765 342.417 747.046 342.418ZM764.005 342.418H768.896C770.069 342.418 771.031 343.38 771.031 344.552V349.444C771.03 350.01 770.805 350.553 770.405 350.953C770.005 351.353 769.462 351.578 768.896 351.579H764.005C763.438 351.579 762.894 351.354 762.492 350.954C762.09 350.554 761.863 350.011 761.86 349.444V344.552C761.866 343.986 762.095 343.445 762.496 343.046C762.897 342.647 763.439 342.421 764.005 342.418Z" fill="#E1E4E5"/>
<path fill-rule="evenodd" clip-rule="evenodd" d="M237.57 477.543H203.918C197.197 477.543 191.743 472.089 191.743 465.368V246.216C191.743 239.495 197.197 234.041 203.918 234.041H237.57C239.336 234.041 240.943 235.039 241.734 236.609C245.003 243.155 250.032 248.661 256.255 252.508C262.479 256.356 269.652 258.393 276.969 258.391C284.286 258.39 291.457 256.352 297.681 252.505C303.904 248.658 308.933 243.154 312.204 236.609C312.592 235.837 313.187 235.189 313.922 234.735C314.657 234.282 315.504 234.041 316.368 234.041H350.02C356.74 234.041 362.195 239.495 362.195 246.216V465.368C362.195 472.089 356.74 477.543 350.02 477.543H316.368C315.504 477.543 314.657 477.302 313.922 476.849C313.187 476.396 312.592 475.747 312.204 474.975L311.924 474.439C308.603 468.036 303.586 462.668 297.422 458.921C291.258 455.174 284.183 453.193 276.969 453.193C269.654 453.193 262.483 455.229 256.26 459.074C250.037 462.919 245.007 468.42 241.734 474.962V474.974C241.346 475.746 240.751 476.395 240.016 476.849C239.281 477.302 238.434 477.543 237.57 477.543Z" fill="#4F27AA"/>
<path d="M245.681 383.603L306.557 322.728M307.395 379.706C306.996 379.705 306.6 379.784 306.231 379.937C305.862 380.09 305.527 380.314 305.245 380.597C304.963 380.88 304.74 381.216 304.589 381.585C304.438 381.955 304.361 382.351 304.363 382.75C304.383 383.544 304.713 384.298 305.282 384.853C305.85 385.407 306.613 385.717 307.407 385.717C308.201 385.717 308.964 385.407 309.532 384.853C310.101 384.298 310.431 383.544 310.451 382.75C310.451 382.349 310.371 381.953 310.217 381.583C310.063 381.213 309.838 380.877 309.554 380.594C309.27 380.312 308.934 380.088 308.563 379.935C308.193 379.783 307.796 379.705 307.395 379.706M246.519 318.83C246.12 318.829 245.724 318.908 245.355 319.061C244.986 319.214 244.651 319.438 244.369 319.721C244.087 320.004 243.864 320.34 243.713 320.709C243.562 321.079 243.485 321.475 243.487 321.874C243.507 322.668 243.837 323.422 244.406 323.977C244.974 324.531 245.737 324.841 246.531 324.841C247.325 324.841 248.088 324.531 248.656 323.977C249.225 323.422 249.555 322.668 249.575 321.874C249.574 321.473 249.495 321.077 249.341 320.707C249.187 320.337 248.962 320.001 248.678 319.719C248.394 319.436 248.057 319.212 247.687 319.059C247.316 318.907 246.92 318.829 246.519 318.83" stroke="white" stroke-width="16.364" stroke-linecap="round" stroke-linejoin="round"/>
<path d="M168.799 472.372L144.487 448.06C143.602 447.175 142.166 447.175 141.281 448.06C140.396 448.945 140.396 450.381 141.281 451.266L165.593 475.579C166.479 476.464 167.914 476.464 168.799 475.579C169.685 474.693 169.685 473.258 168.799 472.372Z" fill="#E1E4E5"/>
<path d="M151.392 469.992L144.38 462.98C143.495 462.095 142.059 462.095 141.174 462.98C140.289 463.865 140.289 465.301 141.174 466.186L148.186 473.198C149.071 474.083 150.506 474.083 151.392 473.198C152.277 472.312 152.277 470.877 151.392 469.992Z" fill="#E1E4E5"/>
<path d="M459.474 146.915L435.162 122.603C434.277 121.718 432.841 121.718 431.956 122.603C431.071 123.488 431.071 124.924 431.956 125.809L456.268 150.122C457.154 151.007 458.589 151.007 459.474 150.122C460.36 149.236 460.36 147.801 459.474 146.915Z" fill="#E1E4E5"/>
<path d="M442.067 144.535L435.055 137.523C434.17 136.638 432.734 136.638 431.849 137.523C430.964 138.408 430.964 139.844 431.849 140.729L438.861 147.741C439.746 148.626 441.181 148.626 442.067 147.741C442.952 146.855 442.952 145.42 442.067 144.535Z" fill="#E1E4E5"/>
<path d="M130.19 392.442C129.141 391.924 128.481 390.786 128.57 389.651C128.613 389.05 128.839 388.476 129.217 388.006C129.595 387.536 130.108 387.193 130.686 387.022C131.012 386.928 131.358 386.893 131.698 386.856C133.737 386.625 135.778 386.432 137.782 385.955C138.213 385.847 138.661 385.829 139.099 385.903C139.537 385.977 139.955 386.141 140.326 386.384C141.367 387.048 141.83 388.023 141.701 389.223C141.569 390.43 140.862 391.256 139.724 391.687C139.513 391.767 139.284 391.824 139.061 391.856C136.723 392.201 134.387 392.583 132.025 392.76C131.379 392.808 130.768 392.731 130.19 392.442ZM139.616 400.775C139.178 401.678 138.432 402.284 137.5 402.518C135.207 403.086 132.891 403.614 130.521 403.708C128.357 403.79 126.914 401.76 127.624 399.742C128.03 398.587 128.922 397.933 130.114 397.807C131.652 397.648 133.145 397.308 134.663 397.06C135.146 396.98 135.595 396.811 136.055 396.663C136.615 396.48 137.216 396.469 137.783 396.631C138.349 396.793 138.853 397.121 139.231 397.573C139.603 398.01 139.837 398.547 139.906 399.116C139.974 399.686 139.873 400.262 139.616 400.775ZM146.313 394.733C146.7 393.947 147.323 393.444 148.155 393.196C149.41 392.816 150.682 392.516 151.966 392.265C152.552 392.161 153.121 391.976 153.656 391.716C154.045 391.521 154.47 391.408 154.904 391.385C155.338 391.361 155.773 391.427 156.18 391.579C156.588 391.73 156.96 391.965 157.273 392.266C157.587 392.568 157.834 392.931 158.001 393.333C158.68 394.974 157.865 396.775 156.141 397.42C155.902 397.514 155.655 397.587 155.403 397.638C153.499 397.971 151.613 398.4 149.731 398.845C148.565 399.119 147.527 398.85 146.716 397.929C145.924 397.026 145.778 395.817 146.313 394.733ZM149.61 402.702C150.865 403.365 151.359 404.377 151.376 405.629C151.393 406.867 150.829 407.822 149.74 408.428C149.339 408.646 148.911 408.809 148.467 408.913C146.915 409.287 145.371 409.673 143.819 410.047C142.829 410.281 141.883 410.172 141.066 409.52C140.168 408.8 139.783 407.842 139.992 406.71C140.209 405.518 140.947 404.715 142.111 404.36C143.011 404.089 143.923 403.866 144.844 403.655C145.539 403.495 146.188 403.298 146.797 402.867C147.7 402.218 148.712 402.267 149.61 402.702ZM168.068 405.955C167.759 406.586 167.296 407.084 166.653 407.384C166.289 407.552 165.921 407.704 165.537 407.798C164.24 408.121 162.953 408.478 161.666 408.835C159.717 409.374 157.933 408.125 157.828 406.192C157.762 404.98 158.443 403.891 159.633 403.342C160.516 402.934 161.457 402.697 162.397 402.474C162.9 402.354 163.366 402.194 163.815 401.925C165.031 401.197 166.4 401.374 167.432 402.341C168.409 403.259 168.669 404.726 168.068 405.955ZM113.147 390.261C113.49 389.632 113.95 389.183 114.562 388.903C114.974 388.706 115.417 388.579 115.872 388.529C117.087 388.415 118.307 388.261 119.528 388.207C121.741 388.114 123.247 390.075 122.549 392.142C122.185 393.225 121.373 393.863 120.261 394.085C119.904 394.157 119.526 394.154 119.16 394.199C118.174 394.313 117.179 394.359 116.193 394.516C115.026 394.704 114.057 394.269 113.377 393.3C112.689 392.333 112.675 391.29 113.147 390.261ZM147.576 378.352C148.736 378.947 149.348 380.011 149.259 381.189C149.161 382.455 148.495 383.301 147.328 383.761C147.068 383.867 146.779 383.944 146.502 383.955C145.422 384.011 144.341 384.042 143.26 384.049C142.655 384.047 142.066 383.853 141.579 383.494C140.579 382.764 140.13 381.575 140.422 380.406C140.723 379.22 141.658 378.308 142.859 378.194C144.045 378.08 145.246 378.08 146.438 378.055C146.837 378.048 147.231 378.151 147.576 378.352ZM709.056 450.826C708.007 450.308 707.347 449.17 707.436 448.035C707.479 447.434 707.705 446.86 708.083 446.39C708.461 445.92 708.974 445.577 709.552 445.406C709.878 445.311 710.224 445.277 710.564 445.24C712.603 445.009 714.644 444.815 716.648 444.338C717.079 444.23 717.527 444.212 717.965 444.286C718.403 444.36 718.821 444.524 719.192 444.768C720.233 445.432 720.696 446.407 720.567 447.607C720.435 448.814 719.728 449.64 718.59 450.071C718.376 450.151 718.154 450.208 717.927 450.239C715.589 450.585 713.253 450.967 710.891 451.144C710.245 451.192 709.634 451.115 709.056 450.826ZM718.482 459.158C718.044 460.062 717.298 460.668 716.366 460.902C714.073 461.47 711.757 461.998 709.387 462.092C707.223 462.174 705.78 460.144 706.49 458.126C706.896 456.971 707.788 456.317 708.98 456.191C710.518 456.031 712.011 455.692 713.529 455.443C714.012 455.364 714.461 455.195 714.921 455.046C715.481 454.863 716.082 454.852 716.648 455.015C717.214 455.177 717.719 455.505 718.097 455.956C718.469 456.393 718.703 456.93 718.772 457.499C718.84 458.069 718.739 458.645 718.482 459.158ZM725.179 453.117C725.566 452.331 726.189 451.828 727.021 451.58C728.276 451.2 729.548 450.9 730.832 450.649C731.418 450.534 731.978 450.372 732.522 450.1C732.911 449.905 733.336 449.792 733.77 449.769C734.204 449.745 734.639 449.811 735.046 449.963C735.454 450.114 735.826 450.349 736.139 450.65C736.453 450.952 736.7 451.315 736.867 451.717C737.547 453.358 736.731 455.159 735.007 455.804C734.768 455.898 734.522 455.971 734.27 456.021C732.366 456.355 730.479 456.784 728.597 457.229C727.431 457.503 726.393 457.234 725.582 456.313C724.79 455.41 724.645 454.2 725.179 453.117ZM728.476 461.085C729.731 461.749 730.225 462.761 730.242 464.013C730.259 465.251 729.695 466.206 728.606 466.812C728.205 467.03 727.777 467.193 727.333 467.297C725.781 467.671 724.237 468.057 722.685 468.431C721.696 468.665 720.749 468.556 719.932 467.904C719.034 467.183 718.649 466.225 718.858 465.093C719.075 463.901 719.813 463.098 720.977 462.744C721.877 462.473 722.789 462.25 723.71 462.039C724.405 461.879 725.054 461.682 725.663 461.25C726.566 460.602 727.578 460.651 728.476 461.085ZM746.934 464.339C746.625 464.97 746.162 465.468 745.519 465.768C745.155 465.936 744.787 466.088 744.403 466.182C743.105 466.504 741.819 466.861 740.532 467.218C738.583 467.758 736.799 466.508 736.694 464.576C736.628 463.364 737.309 462.275 738.498 461.726C739.382 461.317 740.323 461.08 741.263 460.858C741.766 460.738 742.232 460.578 742.681 460.309C743.897 459.581 745.266 459.758 746.298 460.725C747.275 461.643 747.535 463.109 746.934 464.339ZM692.013 448.645C692.356 448.016 692.816 447.567 693.428 447.287C693.841 447.09 694.283 446.963 694.738 446.913C695.953 446.799 697.173 446.645 698.394 446.591C700.607 446.497 702.113 448.459 701.415 450.526C701.051 451.609 700.239 452.246 699.127 452.469C698.77 452.54 698.392 452.537 698.026 452.583C697.04 452.697 696.045 452.743 695.059 452.9C693.892 453.088 692.923 452.653 692.243 451.684C691.555 450.717 691.541 449.674 692.013 448.645ZM726.442 436.736C727.602 437.331 728.214 438.395 728.125 439.573C728.027 440.839 727.361 441.685 726.194 442.145C725.934 442.251 725.645 442.328 725.368 442.339C724.288 442.394 723.207 442.426 722.126 442.433C721.521 442.431 720.932 442.237 720.445 441.878C719.445 441.148 718.996 439.959 719.288 438.79C719.589 437.603 720.524 436.692 721.725 436.578C722.911 436.464 724.112 436.464 725.304 436.439C725.703 436.431 726.097 436.534 726.442 436.736Z" fill="#E1E4E5"/>
</g>
<defs>
<clipPath id="clip0_1235_23418">
<rect width="900" height="600" fill="white"/>
</clipPath>
</defs>
</svg>
