<svg width="900" height="600" viewBox="0 0 900 600" fill="none" xmlns="http://www.w3.org/2000/svg">
<g clip-path="url(#clip0_1235_23459)">
<path d="M304.425 240.6H135.573C133.305 240.6 131.467 242.438 131.467 244.706V244.707C131.467 246.974 133.305 248.813 135.573 248.813H304.425C306.693 248.813 308.531 246.974 308.531 244.707V244.706C308.531 242.438 306.693 240.6 304.425 240.6Z" fill="#E1E4E5"/>
<path d="M304.425 283.25H135.573C133.305 283.25 131.467 285.088 131.467 287.356V287.357C131.467 289.625 133.305 291.463 135.573 291.463H304.425C306.693 291.463 308.531 289.625 308.531 287.357V287.356C308.531 285.088 306.693 283.25 304.425 283.25Z" fill="#E1E4E5"/>
<path d="M241.502 137.274C241.502 127.681 249.278 119.905 258.871 119.905C268.464 119.905 276.24 127.681 276.24 137.274C276.24 146.866 268.464 154.643 258.871 154.643C249.278 154.643 241.502 146.866 241.502 137.274Z" fill="#E1E4E5"/>
<path d="M183.917 192.503H183.687C182.327 172.731 168 172.426 168 172.426C168 172.426 183.799 172.11 183.799 149.264C183.799 172.11 199.598 172.426 199.598 172.426C199.598 172.426 185.276 172.731 183.917 192.503Z" fill="#E1E4E5"/>
<path d="M765.894 417.143H597.042C594.774 417.143 592.936 418.981 592.936 421.249V421.25C592.936 423.517 594.774 425.356 597.042 425.356H765.894C768.162 425.356 770 423.517 770 421.25V421.249C770 418.981 768.162 417.143 765.894 417.143Z" fill="#E1E4E5"/>
<path d="M765.894 459.793H597.042C594.774 459.793 592.936 461.631 592.936 463.899V463.9C592.936 466.168 594.774 468.006 597.042 468.006H765.894C768.162 468.006 770 466.168 770 463.9V463.899C770 461.631 768.162 459.793 765.894 459.793Z" fill="#E1E4E5"/>
<path d="M702.578 288.817C702.578 279.224 710.354 271.448 719.947 271.448C729.54 271.448 737.316 279.224 737.316 288.817C737.316 298.409 729.54 306.186 719.947 306.186C710.354 306.186 702.578 298.409 702.578 288.817Z" fill="#E1E4E5"/>
<path d="M645.041 344.046H644.811C643.451 324.274 629.124 323.969 629.124 323.969C629.124 323.969 644.923 323.653 644.923 300.807C644.923 323.653 660.722 323.969 660.722 323.969C660.722 323.969 646.4 324.274 645.041 344.046Z" fill="#E1E4E5"/>
<path d="M765.894 243.951H597.042C594.774 243.951 592.936 245.789 592.936 248.057V248.058C592.936 250.326 594.774 252.164 597.042 252.164H765.894C768.162 252.164 770 250.326 770 248.058V248.057C770 245.789 768.162 243.951 765.894 243.951Z" fill="#E1E4E5"/>
<path d="M765.894 286.602H597.042C594.774 286.602 592.936 288.44 592.936 290.708V290.709C592.936 292.976 594.774 294.815 597.042 294.815H765.894C768.162 294.815 770 292.976 770 290.709V290.708C770 288.44 768.162 286.602 765.894 286.602Z" fill="#E1E4E5"/>
<path d="M666 190.5C666 186.358 669.358 183 673.5 183C677.642 183 681 186.358 681 190.5C681 194.642 677.642 198 673.5 198C669.358 198 666 194.642 666 190.5Z" fill="#E1E4E5"/>
<path d="M612.917 154.239H612.687C611.327 134.467 597 134.163 597 134.163C597 134.163 612.799 133.846 612.799 111C612.799 133.846 628.598 134.163 628.598 134.163C628.598 134.163 614.276 134.467 612.917 154.239Z" fill="#E1E4E5"/>
<path d="M304.425 417.143H135.573C133.305 417.143 131.467 418.981 131.467 421.249V421.25C131.467 423.517 133.305 425.356 135.573 425.356H304.425C306.693 425.356 308.531 423.517 308.531 421.25V421.249C308.531 418.981 306.693 417.143 304.425 417.143Z" fill="#E1E4E5"/>
<path d="M564 459.799H135C132.791 459.799 131 461.59 131 463.799C131 466.008 132.791 467.799 135 467.799H564C566.209 467.799 568 466.008 568 463.799C568 461.59 566.209 459.799 564 459.799Z" fill="#E1E4E5"/>
<path d="M766 501.799H135C132.791 501.799 131 503.59 131 505.799C131 508.008 132.791 509.799 135 509.799H766C768.209 509.799 770 508.008 770 505.799C770 503.59 768.209 501.799 766 501.799Z" fill="#E1E4E5"/>
<path d="M228.904 288.817C228.904 279.224 236.68 271.448 246.273 271.448C255.866 271.448 263.642 279.224 263.642 288.817C263.642 298.409 255.866 306.186 246.273 306.186C236.68 306.186 228.904 298.409 228.904 288.817Z" fill="#E1E4E5"/>
<path d="M165.904 463.07C165.904 453.478 173.68 445.701 183.273 445.701C192.866 445.701 200.642 453.478 200.642 463.07C200.642 472.663 192.866 480.439 183.273 480.439C173.68 480.439 165.904 472.663 165.904 463.07Z" fill="#E1E4E5"/>
<path d="M627.904 463.07C627.904 453.478 635.68 445.701 645.273 445.701C654.866 445.701 662.642 453.478 662.642 463.07C662.642 472.663 654.866 480.439 645.273 480.439C635.68 480.439 627.904 472.663 627.904 463.07Z" fill="#E1E4E5"/>
<path d="M183.572 344.046H183.342C181.983 324.274 167.655 323.969 167.655 323.969C167.655 323.969 183.454 323.653 183.454 300.807C183.454 323.653 199.253 323.969 199.253 323.969C199.253 323.969 184.932 324.274 183.572 344.046Z" fill="#E1E4E5"/>
<path fill-rule="evenodd" clip-rule="evenodd" d="M556.25 227.629C605.164 276.543 605.164 355.849 556.25 404.763C507.336 453.677 428.031 453.677 379.117 404.763C330.203 355.849 330.203 276.543 379.117 227.629C428.031 178.715 507.336 178.715 556.25 227.629Z" fill="#4F27AA"/>
<path d="M556.25 227.629C605.164 276.543 605.164 355.849 556.25 404.763C507.336 453.677 428.031 453.677 379.117 404.763C330.203 355.849 330.203 276.543 379.117 227.629C428.031 178.715 507.336 178.715 556.25 227.629Z" stroke="#4F27AA" stroke-width="22.586" stroke-linecap="round" stroke-linejoin="round"/>
<path d="M467.682 354.731V305.594M467.626 276.324C459.648 276.324 453.174 282.799 453.232 290.776C453.232 298.754 459.706 305.229 467.684 305.229C475.661 305.229 482.136 298.754 482.136 290.776C482.136 282.799 475.661 276.324 467.626 276.324Z" stroke="white" stroke-width="38.935" stroke-linecap="round" stroke-linejoin="round"/>
<path d="M395.79 149.476C403.864 117.932 432.479 94.5957 466.548 94.5957C506.879 94.5957 539.56 127.277 539.56 167.609V213.663" stroke="#4F27AA" stroke-width="38.935" stroke-linecap="round" stroke-linejoin="round"/>
<path d="M383 251C428.287 251 465 214.287 465 169C465 123.713 428.287 87 383 87C337.713 87 301 123.713 301 169C301 214.287 337.713 251 383 251Z" fill="#2E2445"/>
<path d="M382.873 185.193V172.619C392.201 172.619 399.763 165.113 399.763 155.854C399.763 146.595 392.201 139.088 382.873 139.088C373.545 139.088 365.983 146.595 365.983 155.854M382.873 205.986C382.761 205.989 382.655 206.037 382.578 206.118C382.501 206.199 382.459 206.308 382.462 206.42C382.462 206.659 382.646 206.853 382.873 206.853C382.985 206.85 383.091 206.802 383.168 206.721C383.245 206.64 383.287 206.532 383.284 206.42C383.287 206.308 383.245 206.199 383.168 206.118C383.091 206.037 382.985 205.989 382.873 205.986" stroke="white" stroke-width="11.179" stroke-linecap="round" stroke-linejoin="round"/>
</g>
<defs>
<clipPath id="clip0_1235_23459">
<rect width="900" height="600" fill="white"/>
</clipPath>
</defs>
</svg>
