<svg width="900" height="600" viewBox="0 0 900 600" fill="none" xmlns="http://www.w3.org/2000/svg">
<g clip-path="url(#clip0_1235_23486)">
<path fill-rule="evenodd" clip-rule="evenodd" d="M535.581 417.312L545.78 400.4C549.659 393.987 557.553 389.938 566.201 389.938H666.183C678.778 389.938 689 398.414 689 408.857V446.693C689 467.598 668.579 484.53 643.367 484.53H278.3C253.088 484.53 232.667 467.598 232.667 446.693V408.857C232.667 398.414 242.889 389.938 255.483 389.938H355.466C364.114 389.938 372.008 393.987 375.864 400.4L386.063 417.312C389.942 423.727 397.837 427.775 406.484 427.775H515.183C523.83 427.775 531.725 423.727 535.581 417.312Z" fill="white" stroke="#E1E4E5" stroke-width="4"/>
<path fill-rule="evenodd" clip-rule="evenodd" d="M666.183 389.938V181.837C666.183 160.932 645.762 144 620.55 144H301.117C275.904 144 255.484 160.932 255.484 181.837V389.938" fill="white"/>
<path d="M666.183 389.938V181.837C666.183 160.932 645.762 144 620.55 144H301.117C275.904 144 255.484 160.932 255.484 181.837V389.938" stroke="#E1E4E5" stroke-width="4"/>
<path d="M431.316 195.205V308.852C431.316 318.609 424.551 326.52 416.208 326.52H261.334C258.427 326.52 255.574 327.506 253.116 329.353L230.327 346.622C220.278 354.239 207 345.804 207 331.787V195.184C207 185.427 213.765 177.516 222.109 177.516H416.19C424.551 177.537 431.316 185.448 431.316 195.205Z" fill="#4F27AA"/>
<path d="M254.761 259.718H383.797C385.74 259.716 387.603 258.944 388.977 257.57C390.352 256.195 391.124 254.332 391.126 252.389C391.126 248.348 387.839 245.061 383.797 245.061H254.761C250.719 245.061 247.432 248.348 247.432 252.389C247.434 254.332 248.207 256.195 249.581 257.57C250.955 258.944 252.818 259.716 254.761 259.718ZM255.194 228.231H313.372C317.413 228.231 320.7 224.944 320.7 220.903C320.7 216.861 317.413 213.574 313.372 213.574H255.194C251.153 213.574 247.866 216.861 247.866 220.903C247.866 224.944 251.153 228.231 255.194 228.231ZM383.797 277.518H254.761C250.719 277.518 247.432 280.805 247.432 284.846C247.432 288.887 250.719 292.174 254.761 292.174H383.797C387.839 292.174 391.126 288.887 391.126 284.846C391.126 280.805 387.839 277.518 383.797 277.518Z" fill="white"/>
<path d="M676 250.657V347.931C676 356.282 670.21 363.054 663.068 363.054H530.506C528.018 363.054 525.576 363.898 523.472 365.478L503.966 380.26C495.365 386.779 484 379.559 484 367.562V250.639C484 242.287 489.79 235.516 496.932 235.516H663.052C670.21 235.534 676 242.305 676 250.657Z" fill="#4F27AA"/>
<path d="M524.88 305.875H635.327C636.99 305.873 638.585 305.212 639.761 304.036C640.937 302.86 641.598 301.265 641.6 299.602C641.598 297.939 640.936 296.345 639.76 295.169C638.584 293.993 636.99 293.332 635.327 293.33H524.88C523.217 293.331 521.623 293.993 520.447 295.169C519.271 296.345 518.609 297.939 518.608 299.602C518.61 301.265 519.271 302.859 520.447 304.035C521.623 305.211 523.217 305.873 524.88 305.875ZM525.251 278.924H575.047C576.71 278.922 578.304 278.261 579.48 277.085C580.656 275.909 581.318 274.315 581.32 272.652C581.318 270.989 580.657 269.394 579.481 268.218C578.305 267.042 576.71 266.381 575.047 266.379H525.251C523.588 266.381 521.993 267.042 520.817 268.218C519.641 269.394 518.98 270.989 518.978 272.652C518.98 274.315 519.642 275.909 520.818 277.085C521.994 278.261 523.588 278.922 525.251 278.924ZM635.327 321.11H524.88C523.217 321.112 521.623 321.774 520.447 322.95C519.271 324.126 518.61 325.72 518.608 327.383C518.61 329.046 519.271 330.64 520.447 331.816C521.623 332.992 523.217 333.654 524.88 333.656H635.327C636.99 333.654 638.585 332.993 639.761 331.817C640.937 330.641 641.598 329.046 641.6 327.383C641.598 325.72 640.937 324.125 639.761 322.949C638.585 321.773 636.99 321.112 635.327 321.11Z" fill="white"/>
<path d="M532.5 199.516C537.747 199.516 542 195.262 542 190.016C542 184.769 537.747 180.516 532.5 180.516C527.253 180.516 523 184.769 523 190.016C523 195.262 527.253 199.516 532.5 199.516Z" fill="#E1E4E5"/>
<path d="M567.5 199.516C572.747 199.516 577 195.262 577 190.016C577 184.769 572.747 180.516 567.5 180.516C562.253 180.516 558 184.769 558 190.016C558 195.262 562.253 199.516 567.5 199.516Z" fill="#E1E4E5"/>
<path d="M602.5 199.516C607.747 199.516 612 195.262 612 190.016C612 184.769 607.747 180.516 602.5 180.516C597.253 180.516 593 184.769 593 190.016C593 195.262 597.253 199.516 602.5 199.516Z" fill="#E1E4E5"/>
<path d="M718.078 186.491C710.58 191.656 699.124 188.046 699.124 188.046C699.124 188.046 699.833 176.063 707.337 170.903C714.836 165.738 726.286 169.343 726.286 169.343C726.286 169.343 725.577 181.326 718.078 186.491Z" fill="url(#paint0_linear_1235_23486)"/>
<path d="M215.185 142.952C222.208 150.1 235.339 148.593 235.339 148.593C235.339 148.593 237.077 135.498 230.048 128.355C223.026 121.207 209.901 122.71 209.901 122.71C209.901 122.71 208.163 135.805 215.185 142.952Z" fill="url(#paint1_linear_1235_23486)"/>
<path d="M308.936 420C315.528 420 320.872 425.076 320.872 431.339C320.872 437.601 315.528 442.678 308.936 442.678C302.344 442.678 297 437.601 297 431.339C297 425.076 302.344 420 308.936 420Z" fill="#4F27AA"/>
<path d="M214.5 383C219.194 383 223 379.194 223 374.5C223 369.806 219.194 366 214.5 366C209.806 366 206 369.806 206 374.5C206 379.194 209.806 383 214.5 383Z" fill="#4F27AA"/>
<path d="M177.624 437.248C182.387 437.248 186.248 433.387 186.248 428.624C186.248 423.861 182.387 420 177.624 420C172.861 420 169 423.861 169 428.624C169 433.387 172.861 437.248 177.624 437.248Z" fill="#E1E4E5"/>
<path d="M461.151 460.302C463.996 460.302 466.302 457.996 466.302 455.151C466.302 452.306 463.996 450 461.151 450C458.306 450 456 452.306 456 455.151C456 457.996 458.306 460.302 461.151 460.302Z" fill="#E1E4E5"/>
<path d="M673.358 139.716C677.422 139.716 680.716 136.422 680.716 132.358C680.716 128.294 677.422 125 673.358 125C669.294 125 666 128.294 666 132.358C666 136.422 669.294 139.716 673.358 139.716Z" fill="#E1E4E5"/>
<path d="M704.565 270.13C709.848 270.13 714.13 265.848 714.13 260.565C714.13 255.282 709.848 251 704.565 251C699.282 251 695 255.282 695 260.565C695 265.848 699.282 270.13 704.565 270.13Z" fill="#E1E4E5"/>
<path d="M423.556 363H423.447C422.801 372.145 416 372.286 416 372.286C416 372.286 423.5 372.433 423.5 383C423.5 372.433 431 372.286 431 372.286C431 372.286 424.201 372.145 423.556 363ZM182.032 156H181.844C180.731 172.431 169 172.684 169 172.684C169 172.684 181.936 172.947 181.936 191.932C181.936 172.947 194.871 172.684 194.871 172.684C194.871 172.684 183.145 172.431 182.032 156ZM718.032 365H717.844C716.731 381.431 705 381.684 705 381.684C705 381.684 717.936 381.947 717.936 400.932C717.936 381.947 730.871 381.684 730.871 381.684C730.871 381.684 719.145 381.431 718.032 365ZM465.737 218H465.597C464.765 230.277 456 230.466 456 230.466C456 230.466 465.665 230.662 465.665 244.848C465.665 230.662 475.33 230.466 475.33 230.466C475.33 230.466 466.569 230.277 465.737 218Z" fill="#E1E4E5"/>
</g>
<defs>
<linearGradient id="paint0_linear_1235_23486" x1="688.869" y1="203.438" x2="747.895" y2="141.196" gradientUnits="userSpaceOnUse">
<stop stop-color="white"/>
<stop offset="1" stop-color="#EEEEEE"/>
</linearGradient>
<linearGradient id="paint1_linear_1235_23486" x1="243.203" y1="167.366" x2="192.436" y2="87.7828" gradientUnits="userSpaceOnUse">
<stop stop-color="white"/>
<stop offset="1" stop-color="#EEEEEE"/>
</linearGradient>
<clipPath id="clip0_1235_23486">
<rect width="900" height="600" fill="white"/>
</clipPath>
</defs>
</svg>
