<svg width="900" height="600" viewBox="0 0 900 600" fill="none" xmlns="http://www.w3.org/2000/svg">
<g clip-path="url(#clip0_1235_23525)">
<path d="M746.811 521.432H153.189C135.074 521.432 121 509.15 121 494.7V182.123C121 167.673 135.074 155.391 153.189 155.391H746.811C764.926 155.391 779 167.673 779 182.123V494.7C779 509.15 764.926 521.432 746.811 521.432Z" fill="white" stroke="#E1E4E5" stroke-width="4"/>
<path fill-rule="evenodd" clip-rule="evenodd" d="M176.017 262.001V378.434C176.017 384.755 181.077 389.873 187.326 389.873H255.866L285.785 347.227C287.211 345.193 290.778 345.193 292.204 347.227L302.679 362.161L302.76 362.277L302.831 362.174L325.296 329.557C326.849 327.298 330.742 327.298 332.295 329.557L362.046 372.758V262.001C362.046 255.681 356.972 250.562 350.736 250.562H187.326C181.077 250.562 176.017 255.681 176.017 262.001Z" fill="#4F27AA"/>
<path d="M228.479 329.865C217.566 329.865 208.72 321.018 208.72 310.105C208.72 299.192 217.566 290.346 228.479 290.346C239.392 290.346 248.239 299.192 248.239 310.105C248.239 321.018 239.392 329.865 228.479 329.865Z" fill="white"/>
<path d="M779 197.62H121V187.189C121 169.414 135.414 155 153.189 155H746.811C764.586 155 779 169.414 779 187.189V197.62Z" fill="white" stroke="#E1E4E5" stroke-width="4"/>
<path d="M153.251 185.152C155.198 185.152 157.066 184.378 158.443 183.001C159.82 181.624 160.593 179.757 160.593 177.81C160.593 175.863 159.82 173.995 158.443 172.618C157.066 171.241 155.198 170.468 153.251 170.468C151.304 170.468 149.436 171.241 148.06 172.618C146.683 173.995 145.909 175.863 145.909 177.81C145.909 179.757 146.683 181.624 148.06 183.001C149.436 184.378 151.304 185.152 153.251 185.152ZM183.844 185.152C184.808 185.152 185.763 184.962 186.654 184.593C187.545 184.224 188.354 183.683 189.036 183.001C189.718 182.319 190.259 181.51 190.627 180.619C190.996 179.728 191.186 178.773 191.186 177.809C191.186 176.845 190.996 175.89 190.627 174.999C190.258 174.108 189.717 173.299 189.035 172.617C188.353 171.935 187.544 171.394 186.653 171.026C185.762 170.657 184.807 170.467 183.843 170.467C181.896 170.467 180.028 171.241 178.651 172.618C177.275 173.995 176.501 175.862 176.501 177.81C176.501 179.757 177.275 181.625 178.652 183.002C180.029 184.378 181.897 185.152 183.844 185.152ZM213.213 185.152C215.16 185.152 217.028 184.378 218.405 183.001C219.782 181.624 220.555 179.757 220.555 177.81C220.555 175.863 219.782 173.995 218.405 172.618C217.028 171.241 215.16 170.468 213.213 170.468C211.266 170.468 209.398 171.241 208.022 172.618C206.645 173.995 205.871 175.863 205.871 177.81C205.871 179.757 206.645 181.624 208.022 183.001C209.398 184.378 211.266 185.152 213.213 185.152Z" fill="#E1E4E5"/>
<path d="M683 250.102H433C429.134 250.102 426 253.236 426 257.102C426 260.968 429.134 264.102 433 264.102H683C686.866 264.102 690 260.968 690 257.102C690 253.236 686.866 250.102 683 250.102Z" fill="#E1E4E5"/>
<path d="M683 405.102H433C429.134 405.102 426 408.236 426 412.102C426 415.968 429.134 419.102 433 419.102H683C686.866 419.102 690 415.968 690 412.102C690 408.236 686.866 405.102 683 405.102Z" fill="#E1E4E5"/>
<path d="M683 289.102H433C429.134 289.102 426 292.236 426 296.102C426 299.968 429.134 303.102 433 303.102H683C686.866 303.102 690 299.968 690 296.102C690 292.236 686.866 289.102 683 289.102Z" fill="#E1E4E5"/>
<path d="M675 444.102H441C432.716 444.102 426 450.817 426 459.102C426 467.386 432.716 474.102 441 474.102H675C683.284 474.102 690 467.386 690 459.102C690 450.817 683.284 444.102 675 444.102Z" fill="#4F27AA"/>
<path d="M668.5 328.102H432.5C428.91 328.102 426 331.012 426 334.602C426 338.191 428.91 341.102 432.5 341.102H668.5C672.09 341.102 675 338.191 675 334.602C675 331.012 672.09 328.102 668.5 328.102Z" fill="#E1E4E5"/>
<path d="M683 366.102H433C429.134 366.102 426 369.236 426 373.102C426 376.968 429.134 380.102 433 380.102H683C686.866 380.102 690 376.968 690 373.102C690 369.236 686.866 366.102 683 366.102Z" fill="#E1E4E5"/>
<path d="M664 78H310C294.536 78 282 90.536 282 106V190C282 205.464 294.536 218 310 218H664C679.464 218 692 205.464 692 190V106C692 90.536 679.464 78 664 78Z" fill="white" stroke="#E1E4E5" stroke-width="4"/>
<path fill-rule="evenodd" clip-rule="evenodd" d="M343.389 171.828C342.85 172.118 342.24 172.251 341.629 172.211C341.018 172.171 340.431 171.959 339.935 171.6C339.438 171.24 339.052 170.748 338.82 170.179C338.588 169.611 338.52 168.989 338.623 168.384L340.987 154.651L330.977 144.921C330.543 144.492 330.237 143.951 330.093 143.358C329.949 142.765 329.973 142.143 330.162 141.563C330.35 140.983 330.696 140.468 331.162 140.074C331.627 139.681 332.193 139.425 332.796 139.336L346.635 137.332L352.816 124.827C353.089 124.279 353.509 123.817 354.03 123.494C354.55 123.172 355.151 123 355.763 123C357.01 123 358.151 123.707 358.709 124.827L364.891 137.332L378.73 139.336C379.333 139.425 379.899 139.681 380.364 140.074C380.83 140.468 381.176 140.983 381.364 141.563C381.553 142.143 381.577 142.765 381.433 143.358C381.289 143.951 380.983 144.492 380.549 144.921L370.533 154.646L372.897 168.378C373.002 168.983 372.935 169.606 372.703 170.175C372.472 170.745 372.086 171.238 371.589 171.599C371.093 171.959 370.505 172.171 369.894 172.211C369.282 172.252 368.671 172.119 368.132 171.828L355.757 165.352L343.389 171.828ZM408.757 171.828C407.657 172.421 406.317 172.332 405.303 171.6C404.806 171.24 404.42 170.748 404.188 170.179C403.956 169.611 403.889 168.989 403.992 168.384L406.356 154.651L396.345 144.921C395.911 144.492 395.605 143.951 395.462 143.357C395.318 142.764 395.342 142.143 395.531 141.563C395.719 140.983 396.065 140.468 396.53 140.074C396.995 139.681 397.561 139.425 398.164 139.336L412.003 137.332L418.185 124.827C418.458 124.279 418.878 123.817 419.399 123.494C419.919 123.172 420.52 123 421.132 123C422.379 123 423.52 123.707 424.078 124.827L430.26 137.332L444.099 139.336C444.702 139.425 445.268 139.681 445.733 140.074C446.199 140.468 446.545 140.983 446.733 141.563C446.922 142.143 446.946 142.765 446.802 143.358C446.658 143.951 446.352 144.492 445.918 144.921L435.902 154.646L438.266 168.378C438.371 168.984 438.304 169.606 438.072 170.176C437.841 170.745 437.455 171.238 436.957 171.599C436.461 171.959 435.873 172.171 435.262 172.211C434.65 172.252 434.039 172.119 433.5 171.828L421.126 165.352L408.757 171.828ZM474.126 171.828C473.587 172.118 472.977 172.251 472.366 172.211C471.755 172.171 471.168 171.959 470.672 171.6C470.175 171.24 469.789 170.748 469.557 170.179C469.325 169.611 469.257 168.989 469.36 168.384L471.724 154.651L461.714 144.921C461.28 144.492 460.974 143.951 460.83 143.358C460.686 142.765 460.71 142.143 460.899 141.563C461.087 140.983 461.433 140.468 461.899 140.074C462.364 139.681 462.93 139.425 463.533 139.336L477.372 137.332L483.553 124.827C483.826 124.279 484.246 123.817 484.767 123.494C485.287 123.172 485.888 123 486.5 123C487.747 123 488.888 123.707 489.446 124.827L495.628 137.332L509.467 139.336C510.07 139.425 510.636 139.681 511.101 140.074C511.567 140.468 511.913 140.983 512.101 141.563C512.29 142.143 512.314 142.765 512.17 143.358C512.027 143.951 511.72 144.492 511.286 144.921L501.27 154.646L503.634 168.378C503.739 168.983 503.672 169.606 503.44 170.175C503.209 170.745 502.823 171.238 502.326 171.599C501.83 171.959 501.242 172.171 500.631 172.211C500.019 172.252 499.408 172.119 498.869 171.828L486.495 165.352L474.126 171.828ZM539.495 171.828C538.956 172.118 538.346 172.251 537.735 172.211C537.124 172.171 536.537 171.959 536.041 171.6C535.544 171.24 535.157 170.748 534.925 170.18C534.694 169.611 534.626 168.989 534.729 168.384L537.093 154.651L527.082 144.921C526.648 144.492 526.342 143.951 526.199 143.357C526.055 142.764 526.079 142.143 526.268 141.563C526.456 140.983 526.802 140.468 527.267 140.074C527.732 139.681 528.298 139.425 528.901 139.336L542.741 137.332L548.922 124.827C549.195 124.279 549.615 123.817 550.136 123.494C550.656 123.172 551.257 123 551.869 123C553.116 123 554.257 123.707 554.815 124.827L560.997 137.332L574.836 139.336C575.439 139.425 576.005 139.681 576.47 140.074C576.936 140.468 577.282 140.983 577.47 141.563C577.659 142.143 577.683 142.765 577.539 143.358C577.395 143.951 577.089 144.492 576.655 144.921L566.639 154.646L569.003 168.378C569.108 168.984 569.041 169.606 568.809 170.176C568.578 170.745 568.192 171.238 567.694 171.599C567.198 171.959 566.61 172.171 565.999 172.211C565.387 172.252 564.776 172.119 564.237 171.828L551.863 165.352L539.495 171.828ZM604.863 171.828C604.324 172.118 603.714 172.251 603.103 172.211C602.492 172.171 601.905 171.959 601.409 171.6C600.912 171.24 600.526 170.748 600.294 170.179C600.062 169.611 599.994 168.989 600.097 168.384L602.461 154.651L592.451 144.921C592.017 144.492 591.711 143.951 591.567 143.358C591.423 142.765 591.447 142.143 591.636 141.563C591.824 140.983 592.17 140.468 592.636 140.074C593.101 139.681 593.667 139.425 594.27 139.336L608.109 137.332L614.291 124.827C614.564 124.279 614.984 123.817 615.504 123.494C616.025 123.172 616.625 123 617.237 123C618.485 123 619.625 123.707 620.183 124.827L626.365 137.332L640.204 139.336C640.807 139.425 641.373 139.681 641.838 140.074C642.304 140.468 642.65 140.983 642.838 141.563C643.027 142.143 643.051 142.765 642.907 143.358C642.763 143.951 642.457 144.492 642.023 144.921L632.007 154.646L634.371 168.378C634.476 168.983 634.409 169.606 634.177 170.175C633.946 170.745 633.56 171.238 633.063 171.599C632.567 171.959 631.979 172.171 631.368 172.211C630.756 172.252 630.145 172.119 629.606 171.828L617.232 165.352L604.863 171.828Z" fill="#4F27AA"/>
</g>
<defs>
<clipPath id="clip0_1235_23525">
<rect width="900" height="600" fill="white"/>
</clipPath>
</defs>
</svg>
