<svg width="900" height="600" viewBox="0 0 900 600" fill="none" xmlns="http://www.w3.org/2000/svg">
<g clip-path="url(#clip0_1235_18217)">
<path d="M450 535.765C631.149 535.765 778 530.05 778 522.999C778 515.948 631.149 510.232 450 510.232C268.851 510.232 122 515.948 122 522.999C122 530.05 268.851 535.765 450 535.765Z" fill="url(#paint0_linear_1235_18217)"/>
<path d="M622 122H221C211.059 122 203 130.059 203 140V465C203 474.941 211.059 483 221 483H622C631.941 483 640 474.941 640 465V140C640 130.059 631.941 122 622 122Z" fill="white" stroke="#E1E4E5" stroke-width="4"/>
<path fill-rule="evenodd" clip-rule="evenodd" d="M252 237.701V242.404C252 245.001 254.079 247.108 256.641 247.108H312.34C314.902 247.108 316.981 245.001 316.981 242.404V237.626C316.981 223.393 300.931 214.146 284.491 214.146C268.05 214.146 252 223.398 252 237.626M272.837 172.827C266.401 179.263 266.401 189.698 272.837 196.134C279.273 202.571 289.708 202.571 296.145 196.134C302.581 189.698 302.581 179.263 296.145 172.827C289.708 166.391 279.273 166.391 272.837 172.827Z" fill="#4F27AA"/>
<path d="M321 260H246C243.239 260 241 262.239 241 265C241 267.761 243.239 270 246 270H321C323.761 270 326 267.761 326 265C326 262.239 323.761 260 321 260Z" fill="#E1E4E5"/>
<path d="M321 280H246C243.239 280 241 282.239 241 285C241 287.761 243.239 290 246 290H321C323.761 290 326 287.761 326 285C326 282.239 323.761 280 321 280Z" fill="#E1E4E5"/>
<path fill-rule="evenodd" clip-rule="evenodd" d="M252 389.701V394.404C252 397.001 254.079 399.108 256.641 399.108H312.34C314.902 399.108 316.981 397.001 316.981 394.404V389.626C316.981 375.393 300.931 366.146 284.491 366.146C268.05 366.146 252 375.398 252 389.626M272.837 324.827C266.401 331.263 266.401 341.698 272.837 348.134C279.273 354.571 289.708 354.571 296.145 348.134C302.581 341.698 302.581 331.263 296.145 324.827C289.708 318.391 279.273 318.391 272.837 324.827Z" fill="#4F27AA"/>
<path d="M321 412H246C243.239 412 241 414.239 241 417C241 419.761 243.239 422 246 422H321C323.761 422 326 419.761 326 417C326 414.239 323.761 412 321 412Z" fill="#E1E4E5"/>
<path d="M321 432H246C243.239 432 241 434.239 241 437C241 439.761 243.239 442 246 442H321C323.761 442 326 439.761 326 437C326 434.239 323.761 432 321 432Z" fill="#E1E4E5"/>
<path fill-rule="evenodd" clip-rule="evenodd" d="M377 237.701V242.404C377 245.001 379.079 247.108 381.641 247.108H437.34C439.902 247.108 441.981 245.001 441.981 242.404V237.626C441.981 223.393 425.931 214.146 409.491 214.146C393.05 214.146 377 223.398 377 237.626M397.837 172.827C391.401 179.263 391.401 189.698 397.837 196.134C404.273 202.571 414.708 202.571 421.145 196.134C427.581 189.698 427.581 179.263 421.145 172.827C414.708 166.391 404.273 166.391 397.837 172.827Z" fill="#4F27AA"/>
<path d="M446 260H371C368.239 260 366 262.239 366 265C366 267.761 368.239 270 371 270H446C448.761 270 451 267.761 451 265C451 262.239 448.761 260 446 260Z" fill="#E1E4E5"/>
<path d="M446 280H371C368.239 280 366 282.239 366 285C366 287.761 368.239 290 371 290H446C448.761 290 451 287.761 451 285C451 282.239 448.761 280 446 280Z" fill="#E1E4E5"/>
<path fill-rule="evenodd" clip-rule="evenodd" d="M377 389.701V394.404C377 397.001 379.079 399.108 381.641 399.108H437.34C439.902 399.108 441.981 397.001 441.981 394.404V389.626C441.981 375.393 425.931 366.146 409.491 366.146C393.05 366.146 377 375.398 377 389.626M397.837 324.827C391.401 331.263 391.401 341.698 397.837 348.134C404.273 354.571 414.708 354.571 421.145 348.134C427.581 341.698 427.581 331.263 421.145 324.827C414.708 318.391 404.273 318.391 397.837 324.827Z" fill="#4F27AA"/>
<path d="M446 412H371C368.239 412 366 414.239 366 417C366 419.761 368.239 422 371 422H446C448.761 422 451 419.761 451 417C451 414.239 448.761 412 446 412Z" fill="#E1E4E5"/>
<path d="M446 432H371C368.239 432 366 434.239 366 437C366 439.761 368.239 442 371 442H446C448.761 442 451 439.761 451 437C451 434.239 448.761 432 446 432Z" fill="#E1E4E5"/>
<path fill-rule="evenodd" clip-rule="evenodd" d="M502 237.701V242.404C502 245 504.079 247.108 506.641 247.108H562.34C564.902 247.108 566.981 245 566.981 242.404V237.626C566.981 223.393 550.931 214.146 534.491 214.146C518.05 214.146 502 223.398 502 237.626M502 389.701V394.404C502 397 504.079 399.108 506.641 399.108H562.34C564.902 399.108 566.981 397 566.981 394.404V389.626C566.981 375.393 550.931 366.146 534.491 366.146C518.05 366.146 502 375.398 502 389.626M522.837 172.827C516.401 179.263 516.401 189.698 522.837 196.135C529.273 202.571 539.708 202.571 546.145 196.135C552.581 189.698 552.581 179.263 546.145 172.827C539.708 166.391 529.273 166.391 522.837 172.827ZM522.837 324.827C516.401 331.263 516.401 341.698 522.837 348.135C529.273 354.571 539.708 354.571 546.145 348.135C552.581 341.698 552.581 331.263 546.145 324.827C539.708 318.391 529.273 318.391 522.837 324.827Z" fill="#4F27AA"/>
<path d="M571 260H496C493.239 260 491 262.239 491 265C491 267.761 493.239 270 496 270H571C573.761 270 576 267.761 576 265C576 262.239 573.761 260 571 260Z" fill="#E1E4E5"/>
<path d="M571 412H496C493.239 412 491 414.239 491 417C491 419.761 493.239 422 496 422H571C573.761 422 576 419.761 576 417C576 414.239 573.761 412 571 412Z" fill="#E1E4E5"/>
<path d="M548 280H496C493.239 280 491 282.239 491 285C491 287.761 493.239 290 496 290H548C550.761 290 553 287.761 553 285C553 282.239 550.761 280 548 280Z" fill="#E1E4E5"/>
<path d="M571 432H496C493.239 432 491 434.239 491 437C491 439.761 493.239 442 496 442H571C573.761 442 576 439.761 576 437C576 434.239 573.761 432 571 432Z" fill="#E1E4E5"/>
<path d="M683.358 373.294C683.358 373.294 667.099 383.934 653.353 382.844C639.606 381.754 631.031 368.096 626.428 363.138C621.829 358.18 610.235 346.199 613.713 341.175C617.191 336.151 620.283 341.562 621.442 345.04C622.602 348.518 621.462 341.585 623.193 341.96C624.921 342.335 624.233 346.543 625.929 347.919C627.626 349.291 652.746 362.431 658.156 361.658C663.567 360.885 665.936 359.401 667.459 357.824C668.977 356.244 685.371 369.859 683.358 373.294Z" fill="#F8AE9D"/>
<path d="M630.196 502.705L630.153 509.99L613.508 518.959V522.882H646.798V516.158L648.541 502.705H630.196Z" fill="#E1E4E5"/>
<path d="M713.695 413.839C713.695 413.839 667.741 398.133 646.516 400.687C625.612 404.938 625.454 430.151 625.531 444.984C625.609 459.816 628.07 502.714 628.07 502.714H651.436C651.436 502.714 659.795 464.133 662.585 445.934C662.585 445.934 663.733 437.788 669.882 440.879C695.056 453.54 710.87 447.836 713.742 435.855C716.613 423.875 713.695 413.839 713.695 413.839Z" fill="#2E2445"/>
<path d="M694.696 346.605C694.696 346.605 679.659 354.006 667.431 355.857C654.678 357.789 672.455 374.407 686.368 374.407C700.281 374.407 694.696 346.605 694.696 346.605Z" fill="#4F27AA"/>
<path d="M756.751 511.656L765.671 511.699L773.991 522.906H778.153V491.518H771.019L756.751 494.362V511.656Z" fill="#E1E4E5"/>
<path d="M756.778 512.375V493.052C737.922 491.12 730.549 490.892 710.746 490.799C696.524 490.733 703.902 486.868 703.902 486.868C719.476 476.047 735.464 449.768 735.464 449.768C744.89 435.082 739.565 412.281 739.565 412.281C739.565 412.281 722.348 417.305 707.593 416.532C707.593 416.532 691.608 436.242 663.733 479.526C652.595 496.82 653.87 515.791 674.79 516.788C674.79 516.788 725.215 517.399 756.778 512.375Z" fill="#2E2445"/>
<path d="M700.049 344.525C700.049 344.525 686.754 346.968 685.127 364.181C683.914 377.027 684.915 394.449 684.915 400.052C684.915 405.656 682.059 405.185 685.981 406.866C689.904 408.547 710.715 425.416 739.283 412.384C739.283 412.384 743.742 386.561 742.405 370.925C741.563 361.089 738.927 345.031 721.907 343.652L700.049 344.525Z" fill="#4F27AA"/>
<path d="M704.037 317.729L696.729 317.559C696.729 317.559 690.693 343.993 705.641 340.986L705.359 343.776C705.359 343.776 700.787 344.445 699.056 344.832C699.056 344.832 704.242 349.295 710.487 348.797C716.732 348.298 721.088 344.229 721.088 344.229L718.019 343.919L716.883 332.82C716.883 332.82 720.454 330.927 720.678 328.697C720.902 326.467 720.4 325.852 718.785 325.126C717.169 324.399 714.657 326.965 714.657 326.965C714.657 326.965 712.373 321.667 712.153 318.262L704.037 317.729Z" fill="#F8AE9D"/>
<path d="M633.809 331.896L744.639 423.048C746.413 424.505 747.541 426.601 747.78 428.883C748.018 431.166 747.348 433.45 745.914 435.241C744.47 437.046 742.369 438.203 740.072 438.461C737.776 438.718 735.471 438.054 733.663 436.613L621.056 346.582L633.809 331.896Z" fill="#2E2445"/>
<path d="M592.844 249C623.688 249 648.688 274 648.688 304.844C648.688 335.688 623.688 360.688 592.844 360.688C562 360.688 537 335.688 537 304.844C537 274 562 249 592.844 249ZM592.844 344.325C614.648 344.325 632.325 326.648 632.325 304.844C632.325 283.04 614.648 265.363 592.844 265.363C571.04 265.363 553.363 283.04 553.363 304.844C553.363 326.648 571.04 344.325 592.844 344.325Z" fill="#E1E4E5"/>
<path d="M727.028 405.372C727.028 405.372 710.77 416.011 697.023 414.921C683.277 413.832 674.701 400.174 670.098 395.216C665.499 390.257 653.905 378.277 657.383 373.253C660.862 368.229 663.953 373.639 665.113 377.118C666.272 380.596 665.132 373.663 666.863 374.037C668.591 374.412 667.903 378.621 669.6 379.997C671.296 381.369 696.416 394.508 701.827 393.736C707.237 392.963 709.606 391.479 711.129 389.902C712.648 388.321 729.042 401.936 727.028 405.372Z" fill="#F8AE9D"/>
<path d="M741.231 362.667C741.231 362.667 742.019 387.547 736.222 397.982C730.425 408.416 730.011 408.756 724.613 403.176C719.218 397.595 709.556 391.953 710.909 387.431C712.261 382.91 715.04 375.107 716.126 368.224C717.285 360.881 719.99 345.809 725.787 343.877C725.787 343.877 739.669 348.997 741.231 362.667Z" fill="#4F27AA"/>
<path d="M720.235 332.662C719.041 334.568 716.18 334.559 716.683 332.367C717.254 329.875 717.61 326.572 715.485 326.962C713.361 327.353 713.077 328.985 712.337 327.935C711.596 326.884 712.021 322.838 705.925 321.887C699.828 320.939 697.107 322.795 694.397 321.235C692.773 320.301 692.235 318.38 692.064 316.988C692.016 316.593 692.354 316.085 692.578 316.413C692.791 316.724 693.405 316.772 693.267 316.423C692.41 314.262 691.284 309.631 695.756 306.758C701.744 302.912 707.036 306.432 710.2 306.97C717.171 308.156 721.657 309.069 723.447 313.916C724.93 317.937 723.579 327.326 720.235 332.662Z" fill="#2E2445"/>
<path d="M174.364 378.662C162.957 389.147 142.796 385.787 142.796 385.787C142.796 385.787 141.143 365.428 152.559 354.949C163.966 344.464 184.117 347.817 184.117 347.817C184.117 347.817 185.771 368.176 174.364 378.662Z" fill="url(#paint1_linear_1235_18217)"/>
<path d="M167 303C170.866 303 174 306.134 174 310C174 313.866 170.866 317 167 317C163.134 317 160 313.866 160 310C160 306.134 163.134 303 167 303Z" fill="#E1E4E5"/>
<path d="M708 201C712.418 201 716 197.418 716 193C716 188.582 712.418 185 708 185C703.582 185 700 188.582 700 193C700 197.418 703.582 201 708 201Z" fill="#2E2445"/>
<path d="M682 257C687.523 257 692 252.523 692 247C692 241.477 687.523 237 682 237C676.477 237 672 241.477 672 247C672 252.523 676.477 257 682 257Z" fill="#E1E4E5"/>
<path d="M659.82 171.062C659.367 172.754 660.371 174.493 662.062 174.946C663.754 175.399 665.493 174.395 665.946 172.704C666.399 171.012 665.395 169.273 663.704 168.82C662.012 168.367 660.273 169.371 659.82 171.062Z" fill="#E1E4E5"/>
<path d="M691 153C693.761 153 696 150.761 696 148C696 145.239 693.761 143 691 143C688.239 143 686 145.239 686 148C686 150.761 688.239 153 691 153Z" fill="#E1E4E5"/>
<path d="M654.578 91H654.426C653.522 103.346 644 103.536 644 103.536C644 103.536 654.5 103.734 654.5 118C654.5 103.734 665 103.536 665 103.536C665 103.536 655.482 103.346 654.578 91Z" fill="#E1E4E5"/>
<path d="M159.5 136C166.404 136 172 141.596 172 148.5C172 155.404 166.404 161 159.5 161C152.596 161 147 155.404 147 148.5C147 141.596 152.596 136 159.5 136Z" fill="url(#paint2_linear_1235_18217)"/>
<path d="M229.5 101C225.91 101 223 98.0899 223 94.5C223 90.9101 225.91 88 229.5 88C233.09 88 236 90.9101 236 94.5C236 98.0899 233.09 101 229.5 101Z" fill="#E1E4E5"/>
</g>
<defs>
<linearGradient id="paint0_linear_1235_18217" x1="463.987" y1="550.081" x2="463.957" y2="482.448" gradientUnits="userSpaceOnUse">
<stop stop-color="white"/>
<stop offset="1" stop-color="#EEEEEE"/>
</linearGradient>
<linearGradient id="paint1_linear_1235_18217" x1="129.175" y1="414.161" x2="213.835" y2="295.253" gradientUnits="userSpaceOnUse">
<stop stop-color="white"/>
<stop offset="1" stop-color="#EEEEEE"/>
</linearGradient>
<linearGradient id="paint2_linear_1235_18217" x1="172.533" y1="109.484" x2="171.762" y2="175.696" gradientUnits="userSpaceOnUse">
<stop stop-color="white"/>
<stop offset="1" stop-color="#EEEEEE"/>
</linearGradient>
<clipPath id="clip0_1235_18217">
<rect width="900" height="600" fill="white"/>
</clipPath>
</defs>
</svg>
