<svg width="900" height="600" viewBox="0 0 900 600" fill="none" xmlns="http://www.w3.org/2000/svg">
<g clip-path="url(#clip0_1235_23540)">
<path d="M675.511 427.155C665.527 483.904 529.475 572.393 404.229 498.827C345.979 464.609 358.868 433.284 321.082 379.269C298.559 347.074 262.151 318.226 259.416 278.403C257.047 244.028 271.09 210.936 293.343 192.46C343.389 150.91 428.777 134.339 486.522 231.553C544.267 328.767 701.245 280.791 675.511 427.155Z" fill="url(#paint0_linear_1235_23540)"/>
<path d="M686.607 240.645C674.838 261.648 649.064 264.534 607.771 260.543C576.717 257.535 548.398 255.208 517.34 238.276C495.603 226.432 478.396 210.409 465.837 194.846C452.227 177.986 433.232 158.745 442.544 139.629C455.341 113.369 529.346 91.2527 601.208 127.42C680.147 167.162 698.119 220.117 686.607 240.645Z" fill="url(#paint1_linear_1235_23540)"/>
<path d="M766.162 284.555C743.991 295.553 714.566 281.412 714.566 281.412C714.566 281.412 721.105 249.446 743.288 238.464C765.458 227.466 794.872 241.592 794.872 241.592C794.872 241.592 788.333 273.558 766.162 284.555Z" fill="url(#paint2_linear_1235_23540)"/>
<path d="M135.06 363.43C158.697 377.597 192.61 364.501 192.61 364.501C192.61 364.501 188.175 328.441 164.523 314.29C140.886 300.123 106.988 313.203 106.988 313.203C106.988 313.203 111.422 349.263 135.06 363.43Z" fill="url(#paint3_linear_1235_23540)"/>
<path d="M722.538 198.755C715.852 198.755 710.432 204.175 710.432 210.861C710.432 217.547 715.852 222.967 722.538 222.967C729.224 222.967 734.644 217.547 734.644 210.861C734.644 204.175 729.224 198.755 722.538 198.755Z" fill="#4F27AA"/>
<path d="M352.428 237.021C346.925 237.021 342.463 241.483 342.463 246.986C342.463 252.49 346.925 256.951 352.428 256.951C357.932 256.951 362.393 252.49 362.393 246.986C362.393 241.483 357.932 237.021 352.428 237.021Z" fill="#4F27AA"/>
<path d="M222.793 344.458C216.525 344.458 211.444 339.377 211.444 333.109C211.444 326.841 216.525 321.76 222.793 321.76C229.061 321.76 234.142 326.841 234.142 333.109C234.142 339.377 229.061 344.458 222.793 344.458Z" fill="#4F27AA"/>
<path d="M698.329 278.983C695.404 278.983 693.033 276.612 693.033 273.687C693.033 270.762 695.404 268.391 698.329 268.391C701.254 268.391 703.625 270.762 703.625 273.687C703.625 276.612 701.254 278.983 698.329 278.983Z" fill="#4F27AA"/>
<path d="M695.272 479.639C691.512 479.639 688.463 476.591 688.463 472.83C688.463 469.07 691.512 466.021 695.272 466.021C699.033 466.021 702.081 469.07 702.081 472.83C702.081 476.591 699.033 479.639 695.272 479.639Z" fill="#E1E4E5"/>
<path d="M173.321 433.852C167.889 433.852 163.485 429.448 163.485 424.016C163.485 418.583 167.889 414.18 173.321 414.18C178.753 414.18 183.157 418.583 183.157 424.016C183.157 429.448 178.753 433.852 173.321 433.852Z" fill="#E1E4E5"/>
<path d="M729.949 412.993C725.815 412.993 722.463 409.642 722.463 405.507C722.463 401.373 725.815 398.021 729.949 398.021C734.083 398.021 737.435 401.373 737.435 405.507C737.435 409.642 734.083 412.993 729.949 412.993Z" fill="#E1E4E5"/>
<path d="M650.508 182.414C645.911 182.414 642.185 178.687 642.185 174.091C642.185 169.494 645.911 165.768 650.508 165.768C655.105 165.768 658.831 169.494 658.831 174.091C658.831 178.687 655.105 182.414 650.508 182.414Z" fill="#E1E4E5"/>
<path d="M203.077 266.602C204.146 270.59 201.779 274.688 197.792 275.756C193.805 276.825 189.707 274.458 188.639 270.471C187.57 266.484 189.936 262.386 193.923 261.318C197.911 260.249 202.009 262.615 203.077 266.602Z" fill="#E1E4E5"/>
<path d="M388.995 132.204C383.504 132.204 379.053 127.753 379.053 122.262C379.053 116.771 383.504 112.32 388.995 112.32C394.486 112.32 398.937 116.771 398.937 122.262C398.937 127.753 394.486 132.204 388.995 132.204Z" fill="#E1E4E5"/>
<path d="M702.702 370.16C698.478 370.16 695.054 367.421 695.054 364.042C695.054 360.663 698.478 357.924 702.702 357.924C706.926 357.924 710.35 360.663 710.35 364.042C710.35 367.421 706.926 370.16 702.702 370.16Z" fill="#E1E4E5"/>
<path d="M573.476 105.416C575.699 113.714 570.775 122.242 562.477 124.466C554.18 126.689 545.651 121.765 543.428 113.467C541.204 105.17 546.128 96.641 554.426 94.4177C562.723 92.1944 571.252 97.1185 573.476 105.416Z" fill="#E1E4E5"/>
<path d="M229.903 217.021H230.012C230.657 226.162 237.456 226.303 237.456 226.303C237.456 226.303 229.959 226.449 229.959 237.011C229.959 226.449 222.463 226.303 222.463 226.303C222.463 226.303 229.258 226.162 229.903 217.021ZM218.514 456.298H218.619C219.239 465.412 225.765 465.552 225.765 465.552C225.765 465.552 218.568 465.698 218.568 476.229C218.568 465.698 211.371 465.552 211.371 465.552C211.371 465.552 217.895 465.412 218.514 456.298Z" fill="#E1E4E5"/>
<path fill-rule="evenodd" clip-rule="evenodd" d="M614.221 294.846H465.417C440.76 294.846 420.775 314.83 420.775 339.487C420.775 364.144 440.76 384.128 465.417 384.128H614.221C638.877 384.128 658.862 364.144 658.862 339.487C658.862 314.83 638.877 294.846 614.221 294.846Z" fill="#2E2445" stroke="#2E2445" stroke-width="11.023" stroke-linecap="round" stroke-linejoin="round"/>
<path d="M539.818 339.486H614.22" stroke="white" stroke-width="11.023" stroke-linecap="round" stroke-linejoin="round"/>
<path d="M465.941 338.959C466.081 339.099 466.159 339.288 466.159 339.485C466.159 339.682 466.081 339.871 465.942 340.01C465.803 340.15 465.614 340.228 465.417 340.229C465.22 340.229 465.031 340.151 464.891 340.011C464.822 339.942 464.767 339.861 464.73 339.77C464.692 339.68 464.673 339.584 464.673 339.486C464.673 339.388 464.692 339.292 464.729 339.202C464.766 339.111 464.821 339.029 464.89 338.96C464.959 338.891 465.041 338.836 465.131 338.799C465.221 338.762 465.318 338.742 465.415 338.742C465.513 338.742 465.61 338.761 465.7 338.798C465.79 338.836 465.872 338.89 465.941 338.959M494.875 338.959C495.015 339.099 495.093 339.288 495.093 339.485C495.093 339.682 495.015 339.871 494.876 340.01C494.737 340.15 494.548 340.228 494.351 340.229C494.154 340.229 493.965 340.151 493.825 340.011C493.756 339.942 493.701 339.861 493.664 339.77C493.626 339.68 493.607 339.584 493.607 339.486C493.607 339.388 493.626 339.292 493.663 339.202C493.7 339.111 493.755 339.029 493.824 338.96C493.893 338.891 493.975 338.836 494.065 338.799C494.155 338.762 494.252 338.742 494.349 338.742C494.447 338.742 494.544 338.761 494.634 338.798C494.724 338.836 494.806 338.89 494.875 338.959" stroke="#4F27AA" stroke-width="11.023" stroke-linecap="round" stroke-linejoin="round"/>
<path fill-rule="evenodd" clip-rule="evenodd" d="M614.221 184.619H465.417C440.76 184.619 420.775 204.603 420.775 229.26C420.775 253.917 440.76 273.901 465.417 273.901H614.221C638.877 273.901 658.862 253.917 658.862 229.26C658.862 204.603 638.877 184.619 614.221 184.619Z" fill="#2E2445" stroke="#2E2445" stroke-width="11.023" stroke-linecap="round" stroke-linejoin="round"/>
<path d="M539.819 229.262H614.221" stroke="white" stroke-width="11.023" stroke-linecap="round" stroke-linejoin="round"/>
<path d="M494.876 228.733C494.945 228.802 495 228.884 495.038 228.975C495.075 229.065 495.094 229.162 495.094 229.26C495.094 229.357 495.075 229.454 495.038 229.544C495 229.635 494.946 229.717 494.877 229.786C494.808 229.855 494.725 229.91 494.635 229.947C494.545 229.985 494.448 230.004 494.35 230.004C494.253 230.004 494.156 229.985 494.066 229.948C493.975 229.91 493.893 229.855 493.824 229.786C493.684 229.647 493.606 229.458 493.606 229.26C493.606 229.063 493.684 228.873 493.824 228.734C493.963 228.594 494.152 228.516 494.35 228.516C494.547 228.516 494.736 228.594 494.876 228.733M465.942 228.733C466.011 228.802 466.066 228.884 466.104 228.975C466.141 229.065 466.16 229.162 466.16 229.26C466.16 229.357 466.141 229.454 466.104 229.544C466.066 229.635 466.012 229.717 465.943 229.786C465.874 229.855 465.792 229.91 465.701 229.947C465.611 229.985 465.514 230.004 465.416 230.004C465.319 230.004 465.222 229.985 465.132 229.948C465.041 229.91 464.959 229.855 464.89 229.786C464.75 229.647 464.672 229.458 464.672 229.26C464.672 229.063 464.75 228.873 464.89 228.734C465.029 228.594 465.218 228.516 465.416 228.516C465.613 228.516 465.802 228.594 465.942 228.733Z" stroke="#4F27AA" stroke-width="11.023" stroke-linecap="round" stroke-linejoin="round"/>
<path fill-rule="evenodd" clip-rule="evenodd" d="M614.22 405.07H465.416C440.759 405.07 420.775 425.054 420.775 449.711C420.775 474.368 440.759 494.352 465.416 494.352H614.22C638.877 494.352 658.861 474.368 658.861 449.711C658.861 425.054 638.877 405.07 614.22 405.07Z" fill="#2E2445" stroke="#2E2445" stroke-width="11.023" stroke-linecap="round" stroke-linejoin="round"/>
<path d="M539.819 449.711H614.221" stroke="white" stroke-width="11.023" stroke-linecap="round" stroke-linejoin="round"/>
<path d="M465.942 449.186C466.011 449.255 466.066 449.337 466.103 449.427C466.141 449.517 466.16 449.614 466.16 449.711C466.16 449.809 466.141 449.905 466.104 449.996C466.067 450.086 466.012 450.168 465.943 450.237C465.874 450.306 465.792 450.361 465.702 450.398C465.612 450.436 465.515 450.455 465.418 450.455C465.32 450.455 465.223 450.436 465.133 450.399C465.043 450.362 464.961 450.307 464.892 450.238C464.752 450.099 464.674 449.91 464.674 449.713C464.674 449.516 464.752 449.326 464.891 449.187C465.03 449.047 465.219 448.969 465.416 448.969C465.613 448.969 465.802 449.047 465.942 449.186M494.876 449.186C494.945 449.255 495 449.337 495.037 449.427C495.075 449.517 495.094 449.614 495.094 449.711C495.094 449.809 495.075 449.905 495.038 449.996C495.001 450.086 494.946 450.168 494.877 450.237C494.808 450.306 494.726 450.361 494.636 450.398C494.546 450.436 494.449 450.455 494.352 450.455C494.254 450.455 494.157 450.436 494.067 450.399C493.977 450.362 493.895 450.307 493.826 450.238C493.686 450.099 493.608 449.91 493.608 449.713C493.608 449.516 493.686 449.326 493.825 449.187C493.964 449.047 494.153 448.969 494.35 448.969C494.547 448.969 494.737 449.047 494.876 449.186" stroke="#4F27AA" stroke-width="11.023" stroke-linecap="round" stroke-linejoin="round"/>
<path d="M272.522 371.635V338.016C272.522 313.261 292.593 293.191 317.347 293.191C342.102 293.191 362.172 313.261 362.172 338.016V371.635" stroke="#2E2445" stroke-width="11.023" stroke-linecap="round" stroke-linejoin="round"/>
<path fill-rule="evenodd" clip-rule="evenodd" d="M373.378 494.903H261.316C248.933 494.903 238.903 484.874 238.903 472.491V394.047C238.903 381.664 248.933 371.635 261.316 371.635H373.378C385.761 371.635 395.79 381.664 395.79 394.047V472.491C395.79 484.874 385.761 494.903 373.378 494.903Z" fill="#2E2445" stroke="#2E2445" stroke-width="11.023" stroke-linecap="round" stroke-linejoin="round"/>
<path d="M316.611 460.157V432.05M316.579 415.309C312.016 415.309 308.312 419.012 308.345 423.575C308.346 425.767 309.217 427.869 310.767 429.419C312.317 430.97 314.42 431.841 316.612 431.842C318.804 431.841 320.907 430.97 322.457 429.419C324.007 427.869 324.878 425.767 324.879 423.575C324.879 419.012 321.175 415.309 316.579 415.309Z" stroke="white" stroke-width="23" stroke-linecap="round" stroke-linejoin="round"/>
</g>
<defs>
<linearGradient id="paint0_linear_1235_23540" x1="466.479" y1="732.644" x2="476.442" y2="-239.659" gradientUnits="userSpaceOnUse">
<stop stop-color="white"/>
<stop offset="1" stop-color="#EEEEEE"/>
</linearGradient>
<linearGradient id="paint1_linear_1235_23540" x1="607.326" y1="376.766" x2="502.43" y2="-94.5913" gradientUnits="userSpaceOnUse">
<stop stop-color="white"/>
<stop offset="1" stop-color="#EEEEEE"/>
</linearGradient>
<linearGradient id="paint2_linear_1235_23540" x1="681.025" y1="318.861" x2="863.888" y2="174.215" gradientUnits="userSpaceOnUse">
<stop stop-color="white"/>
<stop offset="1" stop-color="#EEEEEE"/>
</linearGradient>
<linearGradient id="paint3_linear_1235_23540" x1="226.531" y1="409.033" x2="36.3338" y2="232.316" gradientUnits="userSpaceOnUse">
<stop stop-color="white"/>
<stop offset="1" stop-color="#EEEEEE"/>
</linearGradient>
<clipPath id="clip0_1235_23540">
<rect width="900" height="600" fill="white"/>
</clipPath>
</defs>
</svg>
