<svg width="900" height="600" viewBox="0 0 900 600" fill="none" xmlns="http://www.w3.org/2000/svg">
<g clip-path="url(#clip0_1235_23592)">
<path fill-rule="evenodd" clip-rule="evenodd" d="M665.033 154.441L597.631 86.979C593.207 82.5499 587.954 79.0356 582.171 76.6371C576.389 74.2386 570.19 73.0027 563.93 73H392.993C366.656 73 345.325 94.35 345.325 120.71V454.681C345.325 481.041 366.656 502.391 392.993 502.391H631.332C657.669 502.391 679 481.041 679 454.681V188.172C678.996 175.522 673.973 163.391 665.033 154.441Z" fill="white" stroke="#E1E4E5" stroke-width="4"/>
<path d="M422.495 207.1H569.602M422.495 273.738H569.602M422.183 340.15H587.715" stroke="#4F27AA" stroke-width="27.221" stroke-linecap="round" stroke-linejoin="round"/>
<path fill-rule="evenodd" clip-rule="evenodd" d="M293.319 379.473C254.783 384.587 225 416.361 225 455.214C225 497.615 260.376 532 304 532H477.8C512.702 532 541 504.495 541 470.571C541 436.647 512.702 409.143 477.8 409.143C477.8 358.249 435.361 317 383 317C341.335 317 306.038 343.153 293.319 379.473Z" fill="#4F27AA"/>
<path d="M417.553 438.457L379.731 476.279L341.909 438.457M379.731 373.404V473.254" stroke="white" stroke-width="17.474" stroke-linecap="round" stroke-linejoin="round"/>
<path fill-rule="evenodd" clip-rule="evenodd" d="M220.386 311.09H223.562C224.33 311.09 224.948 311.715 224.948 312.476V315.652C224.948 316.419 224.323 317.038 223.562 317.038H220.386C220.019 317.037 219.667 316.89 219.408 316.631C219.148 316.371 219.002 316.019 219 315.652V312.476C219 312.294 219.035 312.114 219.105 311.945C219.174 311.777 219.276 311.624 219.405 311.495C219.534 311.367 219.687 311.265 219.855 311.195C220.023 311.126 220.204 311.09 220.386 311.09ZM231.395 311.09H234.571C235.332 311.09 235.957 311.715 235.957 312.476V315.652C235.957 316.419 235.332 317.038 234.571 317.038H231.395C231.028 317.037 230.676 316.89 230.417 316.631C230.157 316.371 230.011 316.019 230.009 315.652V312.476C230.009 311.715 230.634 311.09 231.395 311.09ZM242.412 311.09H245.588C246.349 311.09 246.974 311.715 246.974 312.476V315.652C246.974 316.419 246.349 317.038 245.588 317.038H242.412C242.045 317.037 241.693 316.89 241.434 316.631C241.174 316.371 241.028 316.019 241.026 315.652V312.476C241.026 312.294 241.061 312.114 241.131 311.945C241.2 311.777 241.302 311.624 241.431 311.495C241.56 311.367 241.713 311.265 241.881 311.195C242.049 311.126 242.23 311.09 242.412 311.09ZM253.422 311.09H256.597C257.358 311.09 257.983 311.715 257.983 312.476V315.652C257.983 316.419 257.358 317.038 256.597 317.038H253.422C253.054 317.038 252.701 316.893 252.439 316.633C252.178 316.373 252.031 316.021 252.029 315.652V312.476C252.033 312.109 252.182 311.758 252.442 311.498C252.703 311.239 253.054 311.093 253.422 311.09ZM264.432 311.09H267.607C268.375 311.09 269 311.715 269 312.476V315.652C268.999 316.021 268.852 316.374 268.59 316.634C268.329 316.894 267.975 317.039 267.607 317.038H264.432C264.065 317.037 263.713 316.89 263.454 316.631C263.194 316.371 263.048 316.019 263.046 315.652V312.476C263.046 311.715 263.671 311.09 264.432 311.09ZM231.799 323.095H234.975C235.736 323.095 236.361 323.72 236.361 324.481V327.663C236.361 328.425 235.736 329.049 234.975 329.049H231.799C231.431 329.049 231.079 328.903 230.819 328.643C230.559 328.383 230.413 328.031 230.413 327.663V324.488C230.412 324.306 230.447 324.125 230.516 323.956C230.585 323.787 230.687 323.633 230.816 323.503C230.945 323.374 231.098 323.271 231.267 323.201C231.435 323.131 231.616 323.095 231.799 323.095ZM242.809 323.095H245.984C246.745 323.095 247.37 323.72 247.37 324.481V327.663C247.37 328.425 246.745 329.049 245.984 329.049H242.809C242.442 329.048 242.09 328.902 241.83 328.642C241.57 328.383 241.424 328.031 241.423 327.663V324.488C241.422 324.306 241.457 324.125 241.526 323.956C241.595 323.786 241.697 323.633 241.826 323.503C241.955 323.374 242.108 323.271 242.277 323.201C242.445 323.131 242.626 323.095 242.809 323.095ZM253.819 323.095H256.995C257.763 323.095 258.387 323.72 258.387 324.481V327.663C258.387 328.425 257.763 329.049 256.995 329.049H253.819C253.452 329.048 253.1 328.902 252.84 328.642C252.581 328.382 252.434 328.031 252.433 327.663V324.488C252.433 323.72 253.058 323.095 253.819 323.095ZM242.412 298.193H245.588C246.349 298.193 246.974 298.817 246.974 299.579V302.754C246.974 303.522 246.349 304.14 245.588 304.14H242.412C242.045 304.139 241.693 303.992 241.434 303.733C241.174 303.473 241.028 303.121 241.026 302.754V299.579C241.026 299.397 241.061 299.217 241.131 299.048C241.2 298.88 241.302 298.727 241.431 298.598C241.56 298.47 241.713 298.368 241.881 298.298C242.049 298.229 242.23 298.193 242.412 298.193ZM253.422 298.193H256.597C257.358 298.193 257.983 298.817 257.983 299.579V302.754C257.983 303.522 257.358 304.14 256.597 304.14H253.422C253.054 304.14 252.701 303.995 252.439 303.735C252.178 303.475 252.031 303.123 252.029 302.754V299.579C252.033 299.212 252.181 298.86 252.442 298.601C252.702 298.342 253.054 298.195 253.422 298.193ZM593.386 443.09H596.562C597.33 443.09 597.948 443.715 597.948 444.476V447.652C597.948 448.419 597.323 449.038 596.562 449.038H593.386C593.019 449.037 592.667 448.89 592.408 448.631C592.148 448.371 592.002 448.019 592 447.652V444.476C592 444.294 592.035 444.114 592.105 443.945C592.174 443.777 592.276 443.624 592.405 443.495C592.534 443.367 592.687 443.265 592.855 443.195C593.023 443.126 593.204 443.09 593.386 443.09ZM604.395 443.09H607.571C608.332 443.09 608.957 443.715 608.957 444.476V447.652C608.957 448.419 608.332 449.038 607.571 449.038H604.395C604.028 449.037 603.676 448.89 603.417 448.631C603.157 448.371 603.011 448.019 603.009 447.652V444.476C603.009 443.715 603.634 443.09 604.395 443.09ZM615.412 443.09H618.588C619.349 443.09 619.974 443.715 619.974 444.476V447.652C619.974 448.419 619.349 449.038 618.588 449.038H615.412C615.045 449.037 614.693 448.89 614.434 448.631C614.174 448.371 614.028 448.019 614.026 447.652V444.476C614.026 444.294 614.061 444.114 614.131 443.945C614.2 443.777 614.302 443.624 614.431 443.495C614.56 443.367 614.713 443.265 614.881 443.195C615.049 443.126 615.23 443.09 615.412 443.09ZM626.422 443.09H629.597C630.358 443.09 630.983 443.715 630.983 444.476V447.652C630.983 448.419 630.358 449.038 629.597 449.038H626.422C626.054 449.038 625.701 448.893 625.439 448.633C625.178 448.373 625.031 448.021 625.029 447.652V444.476C625.033 444.109 625.181 443.758 625.442 443.498C625.703 443.239 626.054 443.093 626.422 443.09ZM637.432 443.09H640.607C641.375 443.09 642 443.715 642 444.476V447.652C641.999 448.021 641.852 448.374 641.59 448.634C641.329 448.894 640.975 449.039 640.607 449.038H637.432C637.065 449.037 636.713 448.89 636.454 448.631C636.194 448.371 636.048 448.019 636.046 447.652V444.476C636.046 443.715 636.671 443.09 637.432 443.09ZM604.799 455.095H607.975C608.736 455.095 609.361 455.72 609.361 456.481V459.663C609.361 460.425 608.736 461.049 607.975 461.049H604.799C604.431 461.049 604.079 460.903 603.819 460.643C603.559 460.383 603.413 460.031 603.413 459.663V456.488C603.412 456.306 603.447 456.125 603.516 455.956C603.585 455.787 603.687 455.633 603.816 455.503C603.945 455.374 604.098 455.271 604.267 455.201C604.436 455.131 604.616 455.095 604.799 455.095ZM615.809 455.095H618.984C619.745 455.095 620.37 455.72 620.37 456.481V459.663C620.37 460.425 619.745 461.049 618.984 461.049H615.809C615.442 461.048 615.09 460.902 614.83 460.642C614.57 460.383 614.424 460.031 614.423 459.663V456.488C614.422 456.306 614.457 456.125 614.526 455.956C614.595 455.786 614.697 455.633 614.826 455.503C614.955 455.374 615.108 455.271 615.277 455.201C615.445 455.131 615.626 455.095 615.809 455.095ZM626.819 455.095H629.995C630.763 455.095 631.387 455.72 631.387 456.481V459.663C631.387 460.425 630.763 461.049 629.995 461.049H626.819C626.452 461.048 626.1 460.902 625.84 460.642C625.581 460.382 625.434 460.031 625.433 459.663V456.488C625.433 455.72 626.058 455.095 626.819 455.095ZM615.412 430.193H618.588C619.349 430.193 619.974 430.817 619.974 431.579V434.754C619.974 435.522 619.349 436.14 618.588 436.14H615.412C615.045 436.139 614.693 435.992 614.434 435.733C614.174 435.473 614.028 435.121 614.026 434.754V431.579C614.026 431.397 614.061 431.217 614.131 431.048C614.2 430.88 614.302 430.727 614.431 430.598C614.56 430.47 614.713 430.368 614.881 430.298C615.049 430.229 615.23 430.193 615.412 430.193ZM626.422 430.193H629.597C630.358 430.193 630.983 430.817 630.983 431.579V434.754C630.983 435.522 630.358 436.14 629.597 436.14H626.422C626.054 436.14 625.701 435.995 625.439 435.735C625.178 435.475 625.031 435.123 625.029 434.754V431.579C625.033 431.212 625.181 430.86 625.442 430.601C625.702 430.342 626.054 430.195 626.422 430.193Z" fill="#E1E4E5"/>
<path d="M675.342 93.968C689.489 90.616 704.452 102.614 704.452 102.614C704.452 102.614 696.467 120.04 682.315 123.381C668.168 126.732 653.21 114.745 653.21 114.745C653.21 114.745 661.195 97.319 675.342 93.968Z" fill="url(#paint0_linear_1235_23592)"/>
<path d="M194.716 255.625C201.187 255.625 206.432 250.38 206.432 243.909C206.432 237.439 201.187 232.193 194.716 232.193C188.245 232.193 183 237.439 183 243.909C183 250.38 188.245 255.625 194.716 255.625Z" fill="#4F27AA"/>
<path d="M717.797 274.193C722.655 274.193 726.594 278.132 726.594 282.99C726.594 287.849 722.655 291.787 717.797 291.787C712.939 291.787 709 287.849 709 282.99C709 278.132 712.939 274.193 717.797 274.193Z" fill="#4F27AA"/>
<path d="M168.794 473.193C178.069 473.193 185.588 480.712 185.588 489.987C185.588 499.262 178.069 506.781 168.794 506.781C159.519 506.781 152 499.262 152 489.987C152 480.712 159.519 473.193 168.794 473.193Z" fill="#4F27AA"/>
<path d="M736.373 394.193C741.55 394.193 745.746 398.39 745.746 403.566C745.746 408.743 741.55 412.939 736.373 412.939C731.196 412.939 727 408.743 727 403.566C727 398.39 731.196 394.193 736.373 394.193Z" fill="#E1E4E5"/>
<path d="M448.997 117.193C453.414 117.193 456.994 120.774 456.994 125.19C456.994 129.607 453.414 133.188 448.997 133.188C444.58 133.188 441 129.607 441 125.19C441 120.774 444.58 117.193 448.997 117.193Z" fill="#E1E4E5"/>
<path d="M627.022 295.788C625.905 291.619 628.379 287.333 632.548 286.216C636.717 285.099 641.002 287.573 642.119 291.742C643.236 295.911 640.762 300.197 636.593 301.314C632.424 302.431 628.139 299.957 627.022 295.788Z" fill="#E1E4E5"/>
<path d="M737.396 466.194C743.138 466.194 747.792 470.849 747.792 476.59C747.792 482.332 743.138 486.986 737.396 486.986C731.654 486.986 727 482.332 727 476.59C727 470.849 731.654 466.194 737.396 466.194Z" fill="#E1E4E5"/>
<path d="M286.997 127.194C291.414 127.194 294.994 130.059 294.994 133.592C294.994 137.126 291.414 139.99 286.997 139.99C282.58 139.99 279 137.126 279 133.592C279 130.059 282.58 127.194 286.997 127.194Z" fill="#E1E4E5"/>
<path d="M265.21 220.322C262.885 211.646 268.034 202.728 276.71 200.403C285.386 198.078 294.305 203.227 296.629 211.903C298.954 220.58 293.805 229.498 285.129 231.823C276.453 234.148 267.534 228.999 265.21 220.322Z" fill="#E1E4E5"/>
<path d="M197.502 389.579H197.293C196.054 372.026 183 371.756 183 371.756C183 371.756 197.395 371.475 197.395 351.193C197.395 371.475 211.789 371.756 211.789 371.756C211.789 371.756 198.741 372.026 197.502 389.579ZM390.527 186.791H390.375C389.476 173.714 380 173.513 380 173.513C380 173.513 390.449 173.303 390.449 158.193C390.449 173.303 400.898 173.513 400.898 173.513C400.898 173.513 391.426 173.714 390.527 186.791Z" fill="#E1E4E5"/>
</g>
<defs>
<linearGradient id="paint0_linear_1235_23592" x1="728.617" y1="85.6351" x2="604.772" y2="144.143" gradientUnits="userSpaceOnUse">
<stop stop-color="white"/>
<stop offset="1" stop-color="#EEEEEE"/>
</linearGradient>
<clipPath id="clip0_1235_23592">
<rect width="900" height="600" fill="white"/>
</clipPath>
</defs>
</svg>
