<svg width="900" height="600" viewBox="0 0 900 600" fill="none" xmlns="http://www.w3.org/2000/svg">
<g clip-path="url(#clip0_1235_23610)">
<path fill-rule="evenodd" clip-rule="evenodd" d="M658.709 189.441L591.306 121.979C586.882 117.55 581.629 114.036 575.846 111.637C570.064 109.238 563.865 108.003 557.605 108H386.668C360.331 108 339 129.35 339 155.71V489.681C339 516.041 360.331 537.391 386.668 537.391H625.007C651.344 537.391 672.675 516.041 672.675 489.681V223.172C672.671 210.522 667.648 198.391 658.709 189.441Z" fill="white" stroke="#E1E4E5" stroke-width="4"/>
<path fill-rule="evenodd" clip-rule="evenodd" d="M571.709 144.441L504.306 76.979C499.882 72.5499 494.629 69.0356 488.846 66.6371C483.064 64.2386 476.865 63.0027 470.605 63H299.668C273.331 63 252 84.35 252 110.71V444.681C252 471.041 273.331 492.391 299.668 492.391H538.007C564.344 492.391 585.675 471.041 585.675 444.681V178.172C585.671 165.522 580.648 153.391 571.709 144.441Z" fill="#4F27AA"/>
<path fill-rule="evenodd" clip-rule="evenodd" d="M506 226.556C506 278.628 466.801 327.318 414.118 339.14C361.435 327.318 322.236 278.628 322.236 226.556V185.652C322.237 181.096 323.596 176.644 326.138 172.863C328.681 169.083 332.293 166.146 336.512 164.427L393.938 140.965C406.872 135.678 421.364 135.678 434.298 140.965L491.724 164.427C500.361 167.958 506 176.341 506 185.652V226.556Z" fill="white"/>
<path d="M494.463 375H334.964C329.968 375 325.906 379.063 325.906 384.058C325.906 389.054 329.968 393.117 334.964 393.117H494.463C499.458 393.117 503.521 389.054 503.521 384.058C503.521 379.063 499.458 375 494.463 375ZM458.033 414H370.967C364.919 414 360 418.037 360 423C360 427.963 364.919 432 370.967 432H458.033C464.081 432 469 427.963 469 423C469 418.037 464.081 414 458.033 414Z" fill="white"/>
<path d="M178.778 188.152C188.345 199.225 207.624 198.255 207.624 198.255C207.624 198.255 211.38 179.332 201.803 168.265C192.236 157.192 172.967 158.156 172.967 158.156C172.967 158.156 169.211 177.079 178.778 188.152Z" fill="url(#paint0_linear_1235_23610)"/>
<path d="M681.795 148.28C675.28 148.28 669.999 143.292 669.999 137.14C669.999 130.988 675.28 126 681.795 126C688.31 126 693.591 130.988 693.591 137.14C693.591 143.292 688.31 148.28 681.795 148.28Z" fill="#E1E4E5"/>
<path d="M291.469 528.938C286.239 528.938 282 524.699 282 519.469C282 514.239 286.239 510 291.469 510C296.699 510 300.938 514.239 300.938 519.469C300.938 524.699 296.699 528.938 291.469 528.938Z" fill="#E1E4E5"/>
<path d="M621.656 503.312C618.532 503.312 616 500.78 616 497.656C616 494.532 618.532 492 621.656 492C624.78 492 627.312 494.532 627.312 497.656C627.312 500.78 624.78 503.312 621.656 503.312Z" fill="#E1E4E5"/>
<path d="M640.079 249.158C635.617 249.158 632 245.541 632 241.079C632 236.617 635.617 233 640.079 233C644.541 233 648.158 236.617 648.158 241.079C648.158 245.541 644.541 249.158 640.079 249.158Z" fill="#E1E4E5"/>
<path d="M702.295 446.627C703.423 450.839 700.924 455.168 696.712 456.296C692.5 457.425 688.171 454.926 687.043 450.714C685.914 446.502 688.413 442.173 692.625 441.045C696.837 439.916 701.166 442.415 702.295 446.627Z" fill="#E1E4E5"/>
<path d="M216.959 343.457C211.158 343.457 206.456 338.755 206.456 332.954C206.456 327.154 211.158 322.451 216.959 322.451C222.76 322.451 227.462 327.154 227.462 332.954C227.462 338.755 222.76 343.457 216.959 343.457Z" fill="#E1E4E5"/>
<path d="M728.079 277.926C723.617 277.926 720 275.032 720 271.463C720 267.894 723.617 265 728.079 265C732.541 265 736.158 267.894 736.158 271.463C736.158 275.032 732.541 277.926 728.079 277.926Z" fill="#E1E4E5"/>
<path d="M619.908 329.937C620.962 333.87 625.004 336.203 628.937 335.15C632.87 334.096 635.204 330.054 634.15 326.121C633.096 322.188 629.054 319.854 625.121 320.908C621.188 321.962 618.854 326.004 619.908 329.937Z" fill="#E1E4E5"/>
<path d="M693.452 169H693.546C694.105 176.926 700 177.048 700 177.048C700 177.048 693.5 177.175 693.5 186.333C693.5 177.175 687 177.048 687 177.048C687 177.048 692.892 176.926 693.452 169ZM641.452 99H641.546C642.105 107.256 648 107.383 648 107.383C648 107.383 641.5 107.516 641.5 117.056C641.5 107.516 635 107.383 635 107.383C635 107.383 640.892 107.256 641.452 99ZM213.098 454H213.304C214.527 472.041 227.407 472.319 227.407 472.319C227.407 472.319 213.204 472.608 213.204 493.455C213.204 472.608 199 472.319 199 472.319C199 472.319 211.875 472.041 213.098 454Z" fill="#E1E4E5"/>
</g>
<defs>
<linearGradient id="paint0_linear_1235_23610" x1="217.332" y1="226.35" x2="150.775" y2="105.622" gradientUnits="userSpaceOnUse">
<stop stop-color="white"/>
<stop offset="1" stop-color="#EEEEEE"/>
</linearGradient>
<clipPath id="clip0_1235_23610">
<rect width="900" height="600" fill="white"/>
</clipPath>
</defs>
</svg>
