<svg width="900" height="600" viewBox="0 0 900 600" fill="none" xmlns="http://www.w3.org/2000/svg">
<g clip-path="url(#clip0_1235_23626)">
<path d="M777.431 522H385.569C374.055 522 365 513.427 365 503.191V276.809C365 266.573 374.055 258 385.569 258H777.431C788.945 258 798 266.572 798 276.809V503.191C798 513.427 788.945 522 777.431 522Z" fill="white" stroke="#E1E4E5" stroke-width="4"/>
<path d="M798 268.775H365V262.569C365 251.211 374.211 242 385.569 242H777.431C788.789 242 798 251.211 798 262.569V268.775Z" fill="white" stroke="#E1E4E5" stroke-width="4"/>
<path d="M385.61 261.223C386.252 261.232 386.89 261.114 387.486 260.874C388.082 260.635 388.625 260.279 389.082 259.828C389.54 259.377 389.903 258.84 390.151 258.247C390.399 257.655 390.526 257.019 390.526 256.376C390.526 255.734 390.398 255.098 390.15 254.505C389.902 253.913 389.539 253.375 389.081 252.925C388.624 252.474 388.081 252.118 387.485 251.879C386.889 251.639 386.251 251.521 385.609 251.53C384.336 251.549 383.121 252.068 382.227 252.975C381.333 253.882 380.832 255.104 380.832 256.377C380.832 257.651 381.334 258.873 382.228 259.78C383.122 260.687 384.337 261.205 385.61 261.223ZM405.805 261.223C406.447 261.232 407.085 261.114 407.681 260.874C408.277 260.635 408.82 260.279 409.277 259.828C409.735 259.377 410.098 258.84 410.346 258.247C410.594 257.655 410.721 257.019 410.721 256.376C410.721 255.734 410.593 255.098 410.345 254.505C410.097 253.913 409.734 253.375 409.276 252.925C408.819 252.474 408.276 252.118 407.68 251.879C407.084 251.639 406.446 251.521 405.804 251.53C404.531 251.549 403.316 252.068 402.422 252.975C401.528 253.882 401.027 255.104 401.027 256.377C401.027 257.651 401.529 258.873 402.423 259.78C403.317 260.687 404.532 261.205 405.805 261.223ZM425.192 261.223C426.478 261.223 427.71 260.713 428.619 259.804C429.528 258.895 430.039 257.662 430.039 256.376C430.039 255.091 429.528 253.858 428.619 252.949C427.71 252.04 426.478 251.529 425.192 251.529C423.907 251.529 422.674 252.04 421.765 252.949C420.856 253.858 420.345 255.091 420.345 256.376C420.345 257.662 420.856 258.895 421.765 259.804C422.674 260.713 423.907 261.223 425.192 261.223Z" fill="#E1E4E5"/>
<path d="M649.431 431H257.569C246.055 431 237 422.427 237 412.191V185.809C237 175.573 246.055 167 257.569 167H649.431C660.945 167 670 175.572 670 185.809V412.191C670 422.427 660.945 431 649.431 431Z" fill="white" stroke="#E1E4E5" stroke-width="4"/>
<path d="M670 185.775H237V179.569C237 168.211 246.211 159 257.569 159H649.431C660.789 159 670 168.211 670 179.569V185.775Z" fill="white" stroke="#E1E4E5" stroke-width="4"/>
<path d="M257.61 178.223C258.252 178.232 258.89 178.114 259.486 177.874C260.082 177.635 260.625 177.279 261.082 176.828C261.54 176.377 261.903 175.84 262.151 175.247C262.399 174.655 262.526 174.019 262.526 173.376C262.526 172.734 262.398 172.098 262.15 171.505C261.902 170.913 261.539 170.375 261.081 169.925C260.624 169.474 260.081 169.118 259.485 168.879C258.889 168.639 258.251 168.521 257.609 168.53C256.336 168.549 255.121 169.068 254.227 169.975C253.333 170.882 252.832 172.104 252.832 173.377C252.832 174.651 253.334 175.873 254.228 176.78C255.122 177.687 256.337 178.205 257.61 178.223ZM277.805 178.223C278.447 178.232 279.085 178.114 279.681 177.874C280.277 177.635 280.82 177.279 281.277 176.828C281.735 176.377 282.098 175.84 282.346 175.247C282.594 174.655 282.721 174.019 282.721 173.376C282.721 172.734 282.593 172.098 282.345 171.505C282.097 170.913 281.734 170.375 281.276 169.925C280.819 169.474 280.276 169.118 279.68 168.879C279.084 168.639 278.446 168.521 277.804 168.53C276.531 168.549 275.316 169.068 274.422 169.975C273.528 170.882 273.027 172.104 273.027 173.377C273.027 174.651 273.529 175.873 274.423 176.78C275.317 177.687 276.532 178.205 277.805 178.223ZM297.192 178.223C297.829 178.223 298.459 178.098 299.047 177.854C299.635 177.611 300.169 177.254 300.619 176.804C301.069 176.354 301.426 175.819 301.67 175.231C301.914 174.643 302.039 174.013 302.039 173.376C302.039 172.74 301.914 172.11 301.67 171.521C301.426 170.933 301.069 170.399 300.619 169.949C300.169 169.499 299.635 169.142 299.047 168.898C298.459 168.655 297.829 168.529 297.192 168.529C295.907 168.529 294.674 169.04 293.765 169.949C292.856 170.858 292.345 172.091 292.345 173.376C292.345 174.662 292.856 175.895 293.765 176.804C294.674 177.713 295.907 178.223 297.192 178.223Z" fill="#E1E4E5"/>
<path d="M513.431 343H121.569C110.055 343 101 334.427 101 324.191V97.809C101 87.573 110.055 79 121.569 79H513.431C524.945 79 534 87.573 534 97.809V324.19C534 334.426 524.945 342.999 513.431 342.999V343Z" fill="white" stroke="#E1E4E5" stroke-width="4"/>
<path d="M534 105.775H101V99.569C101 88.21 110.211 79 121.569 79H513.431C524.789 79 534 88.21 534 99.569V105.775Z" fill="white" stroke="#E1E4E5" stroke-width="4"/>
<path d="M121.61 98.2233C122.246 98.2232 122.877 98.0978 123.465 97.8541C124.053 97.6105 124.587 97.2534 125.037 96.8033C125.487 96.3532 125.844 95.8188 126.088 95.2307C126.331 94.6426 126.457 94.0123 126.456 93.3758C126.456 92.7393 126.331 92.109 126.087 91.521C125.844 90.9329 125.487 90.3986 125.036 89.9486C124.586 89.4986 124.052 89.1416 123.464 88.8981C122.876 88.6545 122.245 88.5292 121.609 88.5293C120.323 88.5294 119.091 89.0402 118.182 89.9493C117.273 90.8584 116.762 92.0913 116.762 93.3768C116.763 94.6623 117.273 95.8951 118.182 96.804C119.092 97.7129 120.324 98.2234 121.61 98.2233ZM141.805 98.2233C142.441 98.2232 143.072 98.0978 143.66 97.8541C144.248 97.6105 144.782 97.2534 145.232 96.8033C145.682 96.3532 146.039 95.8188 146.283 95.2307C146.526 94.6426 146.652 94.0123 146.651 93.3758C146.651 92.7393 146.526 92.109 146.282 91.521C146.039 90.9329 145.682 90.3986 145.231 89.9486C144.781 89.4986 144.247 89.1416 143.659 88.8981C143.071 88.6545 142.44 88.5292 141.804 88.5293C140.518 88.5294 139.286 89.0402 138.377 89.9493C137.468 90.8584 136.957 92.0913 136.957 93.3768C136.958 94.6623 137.468 95.8951 138.377 96.804C139.287 97.7129 140.519 98.2234 141.805 98.2233ZM161.192 98.2233C162.477 98.2233 163.71 97.7126 164.619 96.8036C165.528 95.8947 166.039 94.6618 166.039 93.3763C166.039 92.0908 165.528 90.8579 164.619 89.949C163.71 89.04 162.477 88.5293 161.192 88.5293C159.906 88.5293 158.674 89.04 157.765 89.949C156.856 90.8579 156.345 92.0908 156.345 93.3763C156.345 94.6618 156.856 95.8947 157.765 96.8036C158.674 97.7126 159.906 98.2233 161.192 98.2233Z" fill="#E1E4E5"/>
<path d="M257.569 431C255.651 431 253.799 430.752 252.043 430.291L251.534 432.225C249.894 431.794 248.306 431.185 246.799 430.407L247.717 428.63C244.355 426.892 241.571 424.298 239.686 421.174L237.973 422.208C237.095 420.756 236.399 419.202 235.9 417.581L237.812 416.994C237.273 415.237 236.999 413.408 237 411.57V405.693H235V400.795H237V389.04H235V384.142H237V372.387H235V367.489H237V355.734H235V350.836H237V339.081H235V334.183H237V322.428H235V317.53H237V305.775H235V300.877H237V289.123H235V284.225H237V272.47H235V267.572H237V255.817H235V250.919H237V239.164H235V234.266H237V222.511H235V217.613H237V205.858H235V200.96H237V189.205H235V184.307H237V178.43C237 176.545 237.284 174.726 237.812 173.006L235.9 172.419C236.399 170.798 237.095 169.244 237.973 167.792L239.686 168.826C241.571 165.702 244.355 163.108 247.717 161.37L246.799 159.593C248.306 158.815 249.894 158.206 251.534 157.775L252.043 159.709C253.847 159.237 255.704 158.998 257.569 159H263.582V157H268.593V159H280.619V157H285.63V159H297.657V157H302.668V159H314.694V157H319.705V159H331.732V157H336.743V159H348.769V157H353.78V159H365.807V157H370.818V159H382.844V157H387.855V159H399.882V157H404.893V159H416.919V157H421.93V159H433.957V157H438.968V159H450.994V157H456.005V159H468.032V157H473.043V159H485.069V157H490.08V159H502.107V157H507.118V159H519.144V157H524.156V159H536.182V157H541.193V159H553.22V157H558.231V159H570.257V157H575.268V159H587.295V157H592.306V159H604.332V157H609.343V159H621.37V157H626.381V159H638.407V157H643.418V159H649.431C651.349 159 653.201 159.248 654.957 159.709L655.466 157.775C657.106 158.206 658.694 158.815 660.201 159.593L659.283 161.37C662.645 163.108 665.429 165.702 667.314 168.826L669.027 167.792C669.905 169.244 670.601 170.798 671.1 172.419L669.188 173.006C669.716 174.726 670 176.545 670 178.43V184.307H672V189.205H670V200.96H672V205.858H670V217.613H672V222.511H670V234.266H672V239.164H670V250.919H672V255.817H670V267.572H672V272.47H670V284.225H672V289.123H670V300.877H672V305.775H670V317.53H672V322.428H670V334.183H672V339.081H670V350.836H672V355.734H670V367.489H672V372.387H670V384.142H672V389.04H670V400.795H672V405.693H670V411.57C670 413.455 669.716 415.274 669.188 416.994L671.1 417.581C670.601 419.202 669.905 420.756 669.027 422.208L667.314 421.174C665.429 424.298 662.645 426.892 659.283 428.63L660.201 430.407C658.694 431.185 657.106 431.794 655.466 432.225L654.957 430.291C653.153 430.763 651.296 431.002 649.431 431H643.418V433H638.407V431H626.381V433H621.37V431H609.343V433H604.332V431H592.306V433H587.295V431H575.268V433H570.257V431H558.231V433H553.22V431H541.193V433H536.182V431H524.156V433H519.145V431H507.118V433H502.107V431H490.081V433H485.07V431H473.043V433H468.032V431H456.006V433H450.995V431H438.968V433H433.957V431H421.931V433H416.92V431H404.893V433H399.882V431H387.856V433H382.844V431H370.818V433H365.807V431H353.78V433H348.769V431H336.743V433H331.732V431H319.705V433H314.694V431H302.668V433H297.657V431H285.63V433H280.619V431H268.593V433H263.582V431H257.569V431Z" stroke="#E1E4E5" stroke-width="4" stroke-dasharray="12 5"/>
<path fill-rule="evenodd" clip-rule="evenodd" d="M337 289.704C337 320.759 353.436 348.099 378.657 365.333C378.646 375.23 378.669 388.564 378.669 402.558L419.539 382.337C426.668 383.711 433.912 384.404 441.172 384.408C498.49 384.408 545.345 342.242 545.345 289.704C545.345 237.167 498.49 195 441.172 195C383.854 195 337 237.167 337 289.704Z" fill="#4F27AA" stroke="#4F27AA" stroke-width="12.5" stroke-linecap="round" stroke-linejoin="round"/>
<path fill-rule="evenodd" clip-rule="evenodd" d="M433.223 259.957L470.204 281.833C475.528 284.982 475.528 292.69 470.204 295.85L433.223 317.727C427.794 320.933 420.942 317.02 420.942 310.724V266.971C420.942 260.652 427.794 256.739 433.223 259.957Z" fill="white"/>
</g>
<defs>
<clipPath id="clip0_1235_23626">
<rect width="900" height="600" fill="white"/>
</clipPath>
</defs>
</svg>
