<svg width="900" height="600" viewBox="0 0 900 600" fill="none" xmlns="http://www.w3.org/2000/svg">
<g clip-path="url(#clip0_1235_23640)">
<path d="M286.581 185.917C326.789 135.603 412.232 114.552 469.352 189.977C517.803 253.951 538.911 257.611 575.737 269.782C600.053 277.823 639.843 288.717 616.657 350.943C586.311 432.387 436.185 454.386 354.101 423.985C275.604 394.917 213.608 277.22 286.581 185.917Z" fill="url(#paint0_linear_1235_23640)"/>
<path d="M470.75 155.003C489.625 188.018 525.374 230.538 584.891 247.787C644.408 265.027 655.008 229.719 637.068 188.675C619.128 147.63 575.104 111.494 520.48 103.283C465.856 95.073 455.256 127.906 470.75 155.003Z" fill="url(#paint1_linear_1235_23640)"/>
<path d="M702.852 487.963V177.994C702.852 172.471 698.375 167.994 692.852 167.994L205.208 167.994C199.685 167.994 195.208 172.471 195.208 177.994V487.963C195.208 493.486 199.685 497.963 205.208 497.963L692.852 497.963C698.375 497.963 702.852 493.486 702.852 487.963Z" fill="#4F27AA"/>
<path fill-rule="evenodd" clip-rule="evenodd" d="M484.864 251.4C475.351 252.661 468 260.494 468 270.071C468 280.524 476.732 289 487.5 289H530.4C539.015 289 546 282.22 546 273.857C546 265.495 539.015 258.714 530.4 258.714C530.4 246.168 519.925 236 507 236C496.716 236 488.003 242.447 484.864 251.4ZM595.026 249.17C588.807 250.002 584 255.175 584 261.5C584 268.403 589.709 274 596.75 274H624.8C630.433 274 635 269.523 635 264C635 258.477 630.433 254 624.8 254C624.8 245.715 617.951 239 609.5 239C602.776 239 597.079 243.257 595.026 249.17ZM385.864 236.4C376.351 237.661 369 245.494 369 255.071C369 265.524 377.732 274 388.5 274H431.4C440.015 274 447 267.22 447 258.857C447 250.495 440.015 243.714 431.4 243.714C431.4 231.168 420.925 221 408 221C397.716 221 389.003 227.447 385.864 236.4ZM284.621 255.495C276.938 256.517 271 262.872 271 270.643C271 279.123 278.053 286 286.75 286H321.4C328.358 286 334 280.499 334 273.714C334 266.929 328.358 261.429 321.4 261.429C321.4 251.25 312.939 243 302.5 243C294.193 243 287.156 248.231 284.621 255.495ZM315.135 328.683C311.11 329.23 308 332.629 308 336.786C308 341.322 311.694 345 316.25 345H334.4C338.045 345 341 342.058 341 338.429C341 334.8 338.045 331.857 334.4 331.857C334.4 326.413 329.968 322 324.5 322C322.437 321.998 320.425 322.642 318.746 323.84C317.067 325.038 315.804 326.732 315.135 328.683ZM580.865 328.683C584.89 329.23 588 332.629 588 336.786C588 341.322 584.306 345 579.75 345H561.6C557.955 345 555 342.058 555 338.429C555 334.8 557.955 331.857 561.6 331.857C561.6 326.413 566.032 322 571.5 322C573.563 321.998 575.575 322.642 577.254 323.84C578.933 325.038 580.196 326.732 580.865 328.683ZM278.135 389.683C274.11 390.23 271 393.629 271 397.786C271 402.322 274.694 406 279.25 406H297.4C301.045 406 304 403.058 304 399.429C304 395.8 301.045 392.857 297.4 392.857C297.4 387.413 292.968 383 287.5 383C285.437 382.998 283.425 383.642 281.746 384.84C280.067 386.038 278.804 387.732 278.135 389.683ZM617.865 389.683C621.89 390.23 625 393.629 625 397.786C625 402.322 621.306 406 616.75 406H598.6C594.955 406 592 403.058 592 399.429C592 395.8 594.955 392.857 598.6 392.857C598.6 387.413 603.032 383 608.5 383C610.563 382.998 612.575 383.642 614.254 384.84C615.933 386.038 617.196 387.732 617.865 389.683Z" fill="white"/>
<path d="M786 482H113C108.582 482 105 485.582 105 490C105 494.418 108.582 498 113 498H786C790.418 498 794 494.418 794 490C794 485.582 790.418 482 786 482Z" fill="#E1E4E5"/>
<path d="M454 201C457.866 201 461 197.866 461 194C461 190.134 457.866 187 454 187C450.134 187 447 190.134 447 194C447 197.866 450.134 201 454 201Z" fill="white"/>
<path fill-rule="evenodd" clip-rule="evenodd" d="M146.248 249.291H148.057C148.266 249.291 148.467 249.208 148.615 249.06C148.763 248.912 148.846 248.711 148.846 248.502V246.694C148.846 246.485 148.763 246.284 148.615 246.136C148.467 245.988 148.266 245.904 148.057 245.904H146.248C146.039 245.905 145.839 245.989 145.691 246.137C145.543 246.285 145.46 246.485 145.459 246.694V248.502C145.459 248.606 145.479 248.708 145.519 248.804C145.558 248.9 145.616 248.987 145.689 249.061C145.763 249.134 145.85 249.192 145.946 249.231C146.042 249.271 146.144 249.291 146.248 249.291ZM152.517 249.291H154.325C154.759 249.291 155.115 248.935 155.115 248.502V246.694C155.115 246.484 155.032 246.284 154.884 246.135C154.735 245.987 154.535 245.904 154.325 245.904H152.517C152.308 245.905 152.107 245.988 151.96 246.136C151.812 246.284 151.729 246.485 151.728 246.694V248.502C151.728 248.935 152.083 249.291 152.517 249.291ZM158.791 249.291H160.599C161.033 249.291 161.389 248.935 161.389 248.502V246.694C161.389 246.484 161.306 246.284 161.158 246.135C161.009 245.987 160.809 245.904 160.599 245.904H158.791C158.582 245.905 158.382 245.989 158.234 246.137C158.086 246.285 158.003 246.485 158.002 246.694V248.502C158.002 248.606 158.022 248.708 158.062 248.804C158.101 248.9 158.159 248.987 158.232 249.061C158.306 249.134 158.393 249.192 158.489 249.231C158.585 249.271 158.687 249.291 158.791 249.291ZM165.061 249.291H166.87C167.079 249.29 167.279 249.206 167.427 249.059C167.574 248.911 167.658 248.711 167.659 248.502V246.694C167.659 246.485 167.576 246.284 167.428 246.136C167.28 245.988 167.079 245.904 166.87 245.904H165.061C164.851 245.904 164.65 245.987 164.502 246.135C164.353 246.284 164.269 246.484 164.268 246.694V248.502C164.272 248.935 164.628 249.291 165.061 249.291ZM171.331 249.291H173.139C173.349 249.291 173.55 249.208 173.698 249.06C173.847 248.912 173.931 248.712 173.932 248.502V246.694C173.932 246.59 173.911 246.487 173.871 246.391C173.831 246.295 173.773 246.208 173.699 246.135C173.626 246.061 173.538 246.003 173.442 245.964C173.346 245.924 173.243 245.904 173.139 245.904H171.331C171.122 245.905 170.921 245.988 170.774 246.136C170.626 246.284 170.543 246.485 170.542 246.694V248.502C170.542 248.935 170.897 249.291 171.331 249.291ZM152.747 242.455H154.555C154.989 242.455 155.345 242.099 155.345 241.665V239.853C155.344 239.644 155.26 239.444 155.112 239.296C154.964 239.148 154.764 239.065 154.555 239.064H152.747C152.538 239.064 152.337 239.147 152.189 239.295C152.041 239.443 151.958 239.644 151.958 239.853V241.662C151.957 241.766 151.977 241.869 152.017 241.965C152.056 242.062 152.114 242.149 152.187 242.223C152.261 242.297 152.348 242.355 152.444 242.395C152.54 242.435 152.643 242.455 152.747 242.455ZM159.017 242.455H160.826C161.035 242.454 161.235 242.37 161.383 242.222C161.531 242.074 161.614 241.874 161.615 241.665V239.853C161.614 239.644 161.53 239.444 161.383 239.296C161.235 239.149 161.035 239.065 160.826 239.064H159.017C158.808 239.065 158.608 239.149 158.46 239.296C158.312 239.444 158.229 239.644 158.228 239.853V241.662C158.227 241.766 158.247 241.869 158.287 241.965C158.326 242.062 158.384 242.149 158.457 242.223C158.531 242.297 158.618 242.355 158.714 242.395C158.81 242.435 158.913 242.455 159.017 242.455ZM165.287 242.455H167.095C167.305 242.455 167.506 242.372 167.654 242.224C167.803 242.076 167.887 241.875 167.888 241.665V239.853C167.887 239.643 167.803 239.443 167.654 239.295C167.506 239.147 167.305 239.064 167.095 239.064H165.287C165.078 239.065 164.878 239.148 164.73 239.296C164.582 239.444 164.498 239.644 164.497 239.853V241.662C164.497 242.099 164.853 242.455 165.287 242.455ZM158.791 256.636H160.599C161.033 256.636 161.389 256.28 161.389 255.847V254.038C161.389 253.829 161.305 253.628 161.157 253.48C161.009 253.332 160.808 253.249 160.599 253.249H158.791C158.582 253.25 158.382 253.334 158.234 253.481C158.087 253.629 158.003 253.829 158.002 254.038V255.847C158.002 255.951 158.022 256.053 158.062 256.149C158.101 256.245 158.159 256.332 158.232 256.405C158.306 256.479 158.393 256.537 158.489 256.576C158.585 256.616 158.687 256.636 158.791 256.636ZM165.061 256.636H166.87C167.079 256.635 167.279 256.551 167.427 256.404C167.574 256.256 167.658 256.056 167.659 255.847V254.038C167.659 253.829 167.576 253.628 167.428 253.48C167.28 253.332 167.079 253.249 166.87 253.249H165.061C164.851 253.249 164.65 253.332 164.502 253.48C164.353 253.628 164.269 253.828 164.268 254.038V255.847C164.272 256.28 164.628 256.636 165.061 256.636ZM784.446 167.897H781.281C780.915 167.897 780.564 167.751 780.305 167.492C780.046 167.233 779.9 166.882 779.9 166.516V163.351C779.9 162.586 780.523 161.97 781.281 161.97H784.446C785.205 161.97 785.827 162.593 785.827 163.351V166.516C785.828 166.698 785.792 166.877 785.723 167.045C785.654 167.213 785.552 167.365 785.424 167.494C785.295 167.622 785.143 167.724 784.975 167.793C784.807 167.862 784.628 167.898 784.446 167.897ZM773.475 167.897H770.311C769.945 167.896 769.595 167.75 769.336 167.491C769.077 167.232 768.931 166.882 768.93 166.516V163.351C768.93 162.586 769.552 161.97 770.311 161.97H773.475C774.234 161.97 774.856 162.593 774.856 163.351V166.516C774.856 167.275 774.234 167.897 773.475 167.897ZM762.496 167.897H759.331C758.965 167.896 758.615 167.75 758.356 167.491C758.097 167.232 757.951 166.882 757.95 166.516V163.351C757.95 162.586 758.573 161.97 759.331 161.97H762.496C763.254 161.97 763.877 162.593 763.877 163.351V166.516C763.877 166.697 763.842 166.877 763.773 167.045C763.703 167.213 763.602 167.365 763.473 167.493C763.345 167.622 763.193 167.723 763.025 167.793C762.857 167.862 762.677 167.897 762.496 167.897ZM751.523 167.897H748.359C747.993 167.896 747.643 167.75 747.384 167.491C747.125 167.232 746.979 166.882 746.978 166.516V163.351C746.978 162.586 747.6 161.97 748.359 161.97H751.523C752.288 161.97 752.911 162.593 752.911 163.351V166.516C752.907 166.882 752.759 167.232 752.5 167.491C752.24 167.749 751.889 167.895 751.523 167.897ZM740.552 167.897H737.388C737.021 167.897 736.669 167.752 736.409 167.493C736.149 167.234 736.002 166.883 736 166.516V163.351C736 162.586 736.623 161.97 737.388 161.97H740.552C741.311 161.97 741.933 162.593 741.933 163.351V166.516C741.933 167.275 741.311 167.897 740.552 167.897ZM773.073 155.933H769.908C769.542 155.932 769.192 155.786 768.933 155.527C768.674 155.268 768.528 154.918 768.527 154.552V151.381C768.527 150.623 769.15 150 769.908 150H773.073C773.838 150 774.454 150.623 774.454 151.381V154.546C774.455 154.728 774.42 154.908 774.351 155.076C774.282 155.245 774.18 155.398 774.052 155.527C773.924 155.656 773.771 155.758 773.603 155.828C773.435 155.897 773.255 155.933 773.073 155.933ZM762.1 155.933H758.936C758.57 155.932 758.22 155.786 757.961 155.527C757.702 155.268 757.556 154.918 757.555 154.552V151.381C757.555 150.623 758.177 150 758.936 150H762.1C762.859 150 763.481 150.623 763.481 151.381V154.546C763.482 154.728 763.447 154.908 763.378 155.077C763.309 155.245 763.208 155.398 763.079 155.527C762.951 155.656 762.798 155.758 762.63 155.828C762.462 155.898 762.282 155.933 762.1 155.933ZM751.129 155.933H747.965C747.598 155.933 747.246 155.788 746.986 155.529C746.726 155.27 746.579 154.919 746.577 154.552V151.381C746.577 150.623 747.199 150 747.965 150H751.129C751.888 150 752.51 150.623 752.51 151.381V154.546C752.51 155.311 751.888 155.933 751.129 155.933ZM762.496 180.75H759.331C758.965 180.748 758.615 180.602 758.356 180.343C758.097 180.085 757.951 179.734 757.95 179.368V176.204C757.95 175.439 758.573 174.823 759.331 174.823H762.496C763.254 174.823 763.877 175.445 763.877 176.204V179.368C763.877 179.55 763.842 179.729 763.773 179.897C763.703 180.065 763.602 180.217 763.473 180.346C763.345 180.474 763.193 180.576 763.025 180.645C762.857 180.715 762.677 180.75 762.496 180.75ZM751.523 180.75H748.359C747.993 180.748 747.643 180.602 747.384 180.343C747.125 180.085 746.979 179.734 746.978 179.368V176.204C746.978 175.439 747.6 174.823 748.359 174.823H751.523C752.288 174.823 752.911 175.445 752.911 176.204V179.368C752.907 179.734 752.759 180.084 752.5 180.343C752.24 180.601 751.889 180.748 751.523 180.75Z" fill="#E1E4E5"/>
<path fill-rule="evenodd" clip-rule="evenodd" d="M380 367.274C380 389.334 391.676 408.755 409.592 420.998C409.584 428.028 409.6 437.5 409.6 447.441L438.633 433.077C443.697 434.053 448.843 434.545 454 434.548C494.716 434.548 528 404.595 528 367.274C528 329.954 494.716 300 454 300C413.284 300 380 329.954 380 367.274Z" fill="white"/>
<path fill-rule="evenodd" clip-rule="evenodd" d="M448.353 346.144L474.623 361.684C478.405 363.92 478.405 369.396 474.623 371.641L448.353 387.181C444.497 389.459 439.629 386.68 439.629 382.207V351.127C439.629 346.637 444.497 343.858 448.353 346.144Z" fill="#4F27AA"/>
</g>
<defs>
<linearGradient id="paint0_linear_1235_23640" x1="446.757" y1="603.261" x2="439.423" y2="-181.958" gradientUnits="userSpaceOnUse">
<stop stop-color="white"/>
<stop offset="1" stop-color="#EEEEEE"/>
</linearGradient>
<linearGradient id="paint1_linear_1235_23640" x1="558.473" y1="336.509" x2="554.621" y2="-61.4769" gradientUnits="userSpaceOnUse">
<stop stop-color="white"/>
<stop offset="1" stop-color="#EEEEEE"/>
</linearGradient>
<clipPath id="clip0_1235_23640">
<rect width="900" height="600" fill="white"/>
</clipPath>
</defs>
</svg>
