<svg width="900" height="600" viewBox="0 0 900 600" fill="none" xmlns="http://www.w3.org/2000/svg">
<g clip-path="url(#clip0_1235_23651)">
<path fill-rule="evenodd" clip-rule="evenodd" d="M362.614 458.077C360.953 458.069 360.02 456.217 361.088 454.945C376.396 436.702 459.288 344.452 571.269 343.017C683.959 341.572 775.856 433.307 799.408 455.464C800.869 456.838 799.667 459.979 797.661 459.97L362.614 458.077Z" fill="white" stroke="#E1E4E5" stroke-width="4"/>
<path fill-rule="evenodd" clip-rule="evenodd" d="M259.058 458.059C259.058 458.059 347.507 344.61 471.786 343.017C596.628 341.416 695.95 454.175 705.1 460L259.058 458.059Z" fill="white" stroke="#E1E4E5" stroke-width="4"/>
<path d="M219.701 440.228V417.182" stroke="#E1E4E5" stroke-width="4"/>
<path d="M344.331 440.228V417.182" stroke="#E1E4E5" stroke-width="4"/>
<path d="M235.007 440.227V424.273" stroke="#E1E4E5" stroke-width="4"/>
<path d="M358.541 440.227V424.273" stroke="#E1E4E5" stroke-width="4"/>
<path d="M578 459.046V443.092" stroke="#E1E4E5" stroke-width="4"/>
<path d="M204.395 440.227V424.273" stroke="#E1E4E5" stroke-width="4"/>
<path d="M329.025 440.227V424.273" stroke="#E1E4E5" stroke-width="4"/>
<path d="M543.299 459.046V443.092" stroke="#E1E4E5" stroke-width="4"/>
<path fill-rule="evenodd" clip-rule="evenodd" d="M84 458.368C84 458.368 180.441 382.083 315.95 381.011C452.073 379.935 560.37 455.757 570.346 459.674L84 458.368Z" fill="white" stroke="#E1E4E5" stroke-width="4"/>
<path d="M198.435 458.481V442.984" stroke="#E1E4E5" stroke-width="4"/>
<path d="M334.326 458.481V442.984" stroke="#E1E4E5" stroke-width="4"/>
<path d="M567.961 458.481V442.984" stroke="#E1E4E5" stroke-width="4"/>
<path d="M215.124 458.483V447.754" stroke="#E1E4E5" stroke-width="4"/>
<path d="M349.82 458.483V447.754" stroke="#E1E4E5" stroke-width="4"/>
<path d="M588.74 458.483V447.754" stroke="#E1E4E5" stroke-width="4"/>
<path d="M181.746 458.483V447.754" stroke="#E1E4E5" stroke-width="4"/>
<path d="M317.637 458.483V447.754" stroke="#E1E4E5" stroke-width="4"/>
<path d="M290.505 489.56C289.329 488.979 288.589 487.704 288.689 486.432C288.738 485.758 288.991 485.115 289.415 484.588C289.838 484.062 290.413 483.677 291.061 483.486C291.426 483.38 291.813 483.342 292.195 483.3C294.479 483.041 296.766 482.824 299.012 482.29C300.005 482.05 300.982 482.21 301.863 482.771C303.029 483.515 303.548 484.607 303.403 485.953C303.256 487.305 302.464 488.23 301.189 488.714C300.949 488.803 300.7 488.866 300.446 488.902C297.825 489.289 295.207 489.718 292.561 489.916C291.837 489.97 291.152 489.883 290.505 489.56ZM301.067 498.897C300.577 499.91 299.741 500.589 298.696 500.851C296.127 501.488 293.532 502.08 290.876 502.185C288.451 502.277 286.833 500.002 287.629 497.74C288.084 496.446 289.084 495.713 290.42 495.572C292.143 495.393 293.816 495.013 295.517 494.734C296.058 494.645 296.561 494.456 297.077 494.29C297.704 494.085 298.378 494.072 299.013 494.254C299.647 494.436 300.212 494.803 300.636 495.309C301.052 495.799 301.315 496.4 301.392 497.038C301.468 497.676 301.355 498.323 301.067 498.897ZM308.572 492.128C309.005 491.247 309.703 490.683 310.636 490.405C312.041 489.985 313.466 489.637 314.906 489.362C315.563 489.234 316.191 489.051 316.8 488.747C317.236 488.528 317.712 488.402 318.198 488.375C318.685 488.349 319.172 488.423 319.629 488.593C320.086 488.763 320.502 489.025 320.853 489.363C321.205 489.701 321.482 490.108 321.669 490.558C322.431 492.398 321.517 494.416 319.585 495.139C319.317 495.244 319.041 495.325 318.759 495.382C316.625 495.756 314.51 496.236 312.402 496.736C311.095 497.043 309.932 496.741 309.023 495.709C308.136 494.697 307.973 493.342 308.572 492.128ZM312.266 501.057C313.673 501.801 314.227 502.935 314.245 504.338C314.264 505.725 313.633 506.795 312.412 507.474C311.967 507.724 311.48 507.897 310.986 508.018C309.247 508.437 307.516 508.869 305.777 509.288C304.668 509.551 303.608 509.429 302.692 508.698C301.686 507.891 301.254 506.817 301.488 505.549C301.732 504.213 302.559 503.313 303.863 502.916C304.875 502.618 305.896 502.355 306.926 502.126C307.704 501.946 308.432 501.726 309.114 501.242C310.127 500.515 311.261 500.57 312.266 501.057ZM332.951 504.702C332.605 505.41 332.086 505.967 331.365 506.304C330.958 506.492 330.545 506.662 330.115 506.768C328.661 507.129 327.219 507.529 325.777 507.929C323.592 508.534 321.594 507.134 321.476 504.968C321.402 503.61 322.165 502.389 323.498 501.775C324.488 501.317 325.542 501.051 326.596 500.802C327.16 500.667 327.682 500.488 328.185 500.187C329.547 499.371 331.082 499.57 332.238 500.653C333.333 501.681 333.624 503.325 332.951 504.702ZM271.406 487.116C271.79 486.411 272.306 485.908 272.992 485.595C273.46 485.38 273.947 485.223 274.459 485.175C275.821 485.048 277.189 484.875 278.557 484.815C281.036 484.71 282.724 486.908 281.942 489.224C281.534 490.438 280.624 491.152 279.378 491.401C278.978 491.481 278.555 491.478 278.145 491.529C277.039 491.657 275.925 491.708 274.819 491.884C273.512 492.095 272.426 491.608 271.664 490.521C270.892 489.438 270.877 488.269 271.406 487.116ZM309.987 473.771C311.287 474.438 311.973 475.63 311.873 476.95C311.764 478.369 311.017 479.317 309.71 479.832C309.416 479.957 309.103 480.03 308.784 480.05C307.574 480.112 306.363 480.147 305.151 480.155C304.469 480.158 303.834 479.936 303.267 479.533C302.146 478.715 301.644 477.383 301.971 476.072C302.308 474.743 303.356 473.721 304.701 473.594C306.031 473.466 307.376 473.466 308.712 473.438C309.199 473.425 309.66 473.576 309.987 473.771ZM131.918 479.631C131.193 479.199 130.784 478.343 130.913 477.532C130.979 477.102 131.174 476.702 131.472 476.386C131.771 476.07 132.159 475.853 132.585 475.763C132.825 475.714 133.075 475.709 133.322 475.702C134.801 475.653 136.279 475.63 137.748 475.402C138.064 475.349 138.387 475.362 138.698 475.44C139.008 475.519 139.299 475.661 139.552 475.857C140.262 476.393 140.539 477.121 140.378 477.977C140.214 478.836 139.659 479.39 138.816 479.635C138.657 479.68 138.494 479.708 138.329 479.718C136.628 479.832 134.927 479.973 133.219 479.965C132.752 479.963 132.316 479.872 131.918 479.631ZM138.217 486.163C138.049 486.461 137.816 486.717 137.535 486.913C137.255 487.109 136.934 487.24 136.596 487.295C134.915 487.572 133.22 487.819 131.511 487.751C129.95 487.686 129.029 486.144 129.655 484.733C130.013 483.926 130.692 483.507 131.556 483.485C132.671 483.458 133.763 483.3 134.869 483.208C135.221 483.178 135.553 483.083 135.893 483.002C136.753 482.8 137.614 483.132 138.124 483.839C138.619 484.526 138.655 485.43 138.217 486.163ZM143.378 482.203C143.701 481.66 144.178 481.334 144.79 481.203C145.713 481.005 146.646 480.855 147.584 480.752C148.011 480.71 148.43 480.61 148.83 480.454C149.121 480.336 149.433 480.279 149.746 480.287C150.06 480.295 150.368 480.367 150.653 480.499C150.937 480.632 151.191 480.821 151.399 481.056C151.607 481.291 151.764 481.567 151.861 481.865C152.256 483.084 151.567 484.332 150.29 484.697C150.113 484.752 149.931 484.79 149.747 484.811C148.359 484.942 146.978 485.142 145.6 485.355C144.746 485.485 144.015 485.232 143.484 484.524C142.967 483.829 142.932 482.951 143.378 482.203ZM145.292 488.12C146.156 488.669 146.454 489.425 146.394 490.326C146.335 491.217 145.876 491.871 145.058 492.245C144.757 492.379 144.44 492.471 144.115 492.521C142.978 492.701 141.846 492.89 140.708 493.07C139.983 493.181 139.309 493.049 138.759 492.533C138.155 491.964 137.933 491.253 138.148 490.451C138.372 489.606 138.949 489.071 139.806 488.883C140.47 488.744 141.139 488.627 141.811 488.533C142.32 488.458 142.798 488.353 143.26 488.078C143.947 487.663 144.672 487.756 145.292 488.12ZM158.377 491.516C158.118 491.952 157.757 492.283 157.277 492.462C157.01 492.567 156.734 492.645 156.452 492.696C155.5 492.854 154.555 493.037 153.609 493.22C152.176 493.496 150.966 492.495 151.001 491.1C151.023 490.225 151.575 489.481 152.462 489.155C153.12 488.911 153.81 488.795 154.499 488.689C154.864 488.64 155.218 488.534 155.55 488.375C156.465 487.921 157.44 488.127 158.126 488.881C158.776 489.597 158.879 490.667 158.377 491.516ZM119.789 477.088C120.072 476.655 120.429 476.359 120.885 476.193C121.196 476.079 121.516 476.004 121.847 475.999C122.727 475.987 123.614 475.946 124.495 475.977C126.091 476.036 127.061 477.533 126.441 478.979C126.118 479.737 125.497 480.148 124.685 480.245C124.424 480.276 124.153 480.252 123.887 480.264C123.172 480.289 122.454 480.265 121.736 480.321C120.886 480.39 120.214 480.022 119.781 479.286C119.341 478.552 119.391 477.801 119.789 477.088ZM145.224 470.498C146.025 470.992 146.403 471.792 146.272 472.633C146.129 473.538 145.602 474.108 144.737 474.372C144.543 474.433 144.331 474.472 144.131 474.465C143.352 474.442 142.573 474.403 141.795 474.346C141.36 474.311 140.948 474.137 140.619 473.851C139.941 473.269 139.687 472.388 139.964 471.564C140.248 470.729 140.972 470.127 141.842 470.114C142.702 470.1 143.565 470.169 144.423 470.219C144.736 470.235 145.025 470.356 145.224 470.498ZM463.536 495.756C462.421 495.302 461.66 494.183 461.668 493.012C461.668 492.391 461.857 491.785 462.211 491.275C462.564 490.765 463.065 490.375 463.646 490.157C463.973 490.037 464.326 489.976 464.672 489.913C466.747 489.526 468.827 489.176 470.848 488.539C471.282 488.396 471.741 488.345 472.196 488.389C472.651 488.432 473.092 488.57 473.491 488.792C474.607 489.397 475.154 490.363 475.11 491.605C475.064 492.852 474.4 493.752 473.264 494.278C473.05 494.376 472.826 494.451 472.596 494.5C470.221 495.027 467.853 495.591 465.443 495.947C464.783 496.044 464.15 496.01 463.536 495.756ZM473.823 503.611C473.44 504.57 472.719 505.247 471.78 505.556C469.469 506.308 467.132 507.021 464.707 507.292C462.492 507.536 460.861 505.559 461.441 503.436C461.773 502.221 462.64 501.483 463.854 501.267C465.42 500.99 466.927 500.531 468.466 500.164C468.956 500.047 469.404 499.841 469.866 499.654C470.427 499.425 471.044 499.37 471.636 499.494C472.229 499.619 472.771 499.919 473.192 500.354C474.038 501.216 474.282 502.484 473.823 503.611ZM480.249 496.918C480.588 496.083 481.19 495.521 482.026 495.205C483.285 494.728 484.567 494.316 485.868 493.968C486.461 493.808 487.024 493.6 487.561 493.281C487.946 493.052 488.373 492.905 488.817 492.849C489.261 492.793 489.712 492.828 490.142 492.954C490.571 493.08 490.97 493.292 491.314 493.579C491.657 493.866 491.938 494.22 492.139 494.62C492.957 496.253 492.254 498.161 490.532 498.951C490.294 499.065 490.046 499.158 489.791 499.228C487.862 499.711 485.957 500.29 484.06 500.885C482.883 501.253 481.798 501.053 480.898 500.168C480.019 499.299 479.78 498.069 480.249 496.918ZM484.22 504.852C485.556 505.44 486.138 506.443 486.248 507.726C486.356 508.995 485.848 510.016 484.775 510.718C484.38 510.972 483.953 511.171 483.505 511.31C481.94 511.809 480.384 512.318 478.819 512.816C477.821 513.129 476.842 513.087 475.955 512.479C474.981 511.805 474.515 510.851 474.646 509.674C474.781 508.435 475.479 507.556 476.647 507.107C477.554 506.767 478.472 506.459 479.4 506.182C480.101 505.966 480.752 505.716 481.345 505.229C482.225 504.496 483.267 504.472 484.22 504.852ZM503.4 506.829C503.13 507.5 502.691 508.044 502.053 508.4C501.693 508.599 501.326 508.782 500.939 508.907C499.634 509.339 498.336 509.789 497.043 510.256C495.082 510.954 493.16 509.803 492.91 507.827C492.753 506.588 493.372 505.421 494.552 504.77C495.428 504.286 496.376 503.973 497.325 503.675C497.832 503.515 498.298 503.317 498.739 503.008C499.933 502.171 501.351 502.252 502.481 503.168C503.551 504.038 503.926 505.523 503.4 506.829ZM445.887 494.774C446.192 494.104 446.632 493.609 447.239 493.277C447.647 493.044 448.092 492.881 448.555 492.797C449.793 492.59 451.035 492.342 452.283 492.197C454.547 491.937 456.237 493.839 455.673 496.011C455.38 497.15 454.594 497.864 453.469 498.174C453.107 498.274 452.72 498.299 452.348 498.372C451.344 498.562 450.327 498.682 449.326 498.916C448.143 499.195 447.117 498.82 446.347 497.876C445.569 496.935 445.478 495.865 445.887 494.774ZM480.338 480.017C481.572 480.542 482.278 481.588 482.274 482.803C482.267 484.11 481.645 485.027 480.482 485.585C480.221 485.718 479.939 485.806 479.649 485.845C478.545 485.982 477.438 486.094 476.329 486.18C475.704 486.228 475.109 486.067 474.563 485.734C473.483 485.06 472.935 483.872 473.149 482.651C473.37 481.412 474.262 480.407 475.486 480.202C476.695 479.997 477.927 479.909 479.148 479.795C479.593 479.751 480.025 479.859 480.338 480.017ZM644.536 495.756C643.421 495.302 642.66 494.183 642.668 493.012C642.668 492.391 642.857 491.785 643.211 491.275C643.564 490.765 644.065 490.375 644.646 490.157C644.973 490.037 645.326 489.976 645.672 489.913C647.747 489.526 649.827 489.176 651.848 488.539C652.282 488.396 652.741 488.345 653.196 488.389C653.651 488.432 654.092 488.57 654.491 488.792C655.607 489.397 656.154 490.363 656.11 491.605C656.064 492.852 655.4 493.752 654.264 494.278C654.05 494.376 653.826 494.451 653.596 494.5C651.221 495.027 648.853 495.591 646.443 495.947C645.783 496.044 645.15 496.01 644.536 495.756ZM654.823 503.611C654.44 504.57 653.719 505.247 652.78 505.556C650.469 506.308 648.132 507.021 645.707 507.292C643.492 507.536 641.861 505.559 642.441 503.436C642.773 502.221 643.64 501.483 644.854 501.267C646.42 500.99 647.927 500.531 649.466 500.164C649.956 500.047 650.404 499.841 650.866 499.654C651.427 499.425 652.044 499.37 652.636 499.494C653.229 499.619 653.771 499.919 654.192 500.354C655.038 501.216 655.282 502.484 654.823 503.611ZM661.249 496.918C661.588 496.083 662.19 495.521 663.026 495.205C664.285 494.728 665.567 494.316 666.868 493.968C667.461 493.808 668.024 493.6 668.561 493.281C668.946 493.052 669.373 492.905 669.817 492.849C670.261 492.793 670.712 492.828 671.142 492.954C671.571 493.08 671.97 493.292 672.314 493.579C672.657 493.866 672.938 494.22 673.139 494.62C673.957 496.253 673.254 498.161 671.532 498.951C671.294 499.065 671.046 499.158 670.791 499.228C668.862 499.711 666.957 500.29 665.06 500.885C663.883 501.253 662.798 501.053 661.898 500.168C661.019 499.299 660.78 498.069 661.249 496.918ZM665.22 504.852C666.556 505.44 667.138 506.443 667.248 507.726C667.356 508.995 666.848 510.016 665.775 510.718C665.38 510.972 664.953 511.171 664.505 511.31C662.94 511.809 661.384 512.318 659.819 512.816C658.821 513.129 657.842 513.087 656.955 512.479C655.981 511.805 655.515 510.851 655.646 509.674C655.781 508.435 656.479 507.556 657.647 507.107C658.554 506.767 659.472 506.459 660.4 506.182C661.101 505.966 661.752 505.716 662.345 505.229C663.225 504.496 664.267 504.472 665.22 504.852ZM684.4 506.829C684.13 507.5 683.691 508.044 683.053 508.4C682.693 508.599 682.326 508.782 681.939 508.907C680.631 509.334 679.337 509.795 678.043 510.256C676.082 510.954 674.16 509.803 673.91 507.827C673.753 506.588 674.372 505.421 675.552 504.77C676.428 504.286 677.376 503.973 678.325 503.675C678.832 503.515 679.298 503.317 679.739 503.008C680.933 502.171 682.351 502.252 683.481 503.168C684.551 504.038 684.926 505.523 684.4 506.829ZM626.887 494.774C627.192 494.104 627.632 493.609 628.239 493.277C628.647 493.044 629.092 492.881 629.555 492.797C630.793 492.59 632.035 492.342 633.283 492.197C635.547 491.937 637.237 493.839 636.673 496.011C636.38 497.15 635.594 497.864 634.469 498.174C634.107 498.274 633.72 498.299 633.348 498.372C632.344 498.562 631.327 498.682 630.326 498.916C629.143 499.195 628.117 498.82 627.347 497.876C626.569 496.935 626.478 495.865 626.887 494.774ZM661.338 480.017C662.572 480.542 663.278 481.588 663.274 482.803C663.267 484.11 662.645 485.027 661.482 485.585C661.221 485.718 660.939 485.806 660.649 485.845C659.545 485.982 658.438 486.094 657.329 486.18C656.704 486.228 656.109 486.067 655.563 485.734C654.483 485.06 653.935 483.872 654.149 482.651C654.37 481.412 655.262 480.407 656.486 480.202C657.695 479.997 658.927 479.909 660.148 479.795C660.593 479.751 661.025 479.859 661.338 480.017ZM769.536 495.756C768.421 495.302 767.66 494.183 767.668 493.012C767.668 492.391 767.857 491.785 768.211 491.275C768.564 490.765 769.065 490.375 769.646 490.157C769.973 490.037 770.326 489.976 770.672 489.913C772.747 489.526 774.827 489.176 776.848 488.539C777.282 488.396 777.741 488.345 778.196 488.389C778.651 488.432 779.092 488.57 779.491 488.792C780.607 489.397 781.154 490.363 781.11 491.605C781.064 492.852 780.4 493.752 779.264 494.278C779.05 494.376 778.826 494.451 778.596 494.5C776.221 495.027 773.853 495.591 771.443 495.947C770.783 496.044 770.15 496.01 769.536 495.756ZM779.823 503.611C779.44 504.57 778.719 505.247 777.78 505.556C775.469 506.308 773.132 507.021 770.707 507.292C768.492 507.536 766.861 505.559 767.441 503.436C767.773 502.221 768.64 501.483 769.854 501.267C771.42 500.99 772.927 500.531 774.466 500.164C774.956 500.047 775.404 499.841 775.866 499.654C776.427 499.425 777.044 499.37 777.636 499.494C778.229 499.619 778.771 499.919 779.192 500.354C780.038 501.216 780.282 502.484 779.823 503.611ZM786.249 496.918C786.588 496.083 787.19 495.521 788.026 495.205C789.285 494.728 790.567 494.316 791.868 493.968C792.461 493.808 793.024 493.6 793.561 493.281C793.946 493.052 794.373 492.905 794.817 492.849C795.261 492.793 795.712 492.828 796.142 492.954C796.571 493.08 796.97 493.292 797.314 493.579C797.657 493.866 797.938 494.22 798.139 494.62C798.957 496.253 798.254 498.161 796.532 498.951C796.294 499.065 796.046 499.158 795.791 499.228C793.862 499.711 791.957 500.29 790.06 500.885C788.883 501.253 787.798 501.053 786.898 500.168C786.019 499.299 785.78 498.069 786.249 496.918ZM790.22 504.852C791.556 505.44 792.138 506.443 792.248 507.726C792.356 508.995 791.848 510.016 790.775 510.718C790.38 510.972 789.953 511.171 789.505 511.31C787.94 511.809 786.384 512.318 784.819 512.816C783.821 513.129 782.842 513.087 781.955 512.479C780.981 511.805 780.515 510.851 780.646 509.674C780.781 508.435 781.479 507.556 782.647 507.107C783.554 506.767 784.472 506.459 785.4 506.182C786.101 505.966 786.752 505.716 787.345 505.229C788.225 504.496 789.267 504.472 790.22 504.852ZM809.4 506.829C809.13 507.5 808.691 508.044 808.053 508.4C807.693 508.599 807.326 508.782 806.939 508.907C805.631 509.334 804.337 509.795 803.043 510.256C801.082 510.954 799.16 509.803 798.91 507.827C798.753 506.588 799.372 505.421 800.552 504.77C801.428 504.286 802.376 503.973 803.325 503.675C803.832 503.515 804.298 503.317 804.739 503.008C805.933 502.171 807.351 502.252 808.481 503.168C809.551 504.038 809.926 505.523 809.4 506.829ZM751.887 494.774C752.192 494.104 752.632 493.609 753.239 493.277C753.647 493.044 754.092 492.881 754.555 492.797C755.793 492.59 757.035 492.342 758.283 492.197C760.547 491.937 762.237 493.839 761.673 496.011C761.38 497.15 760.594 497.864 759.469 498.174C759.107 498.274 758.72 498.299 758.348 498.372C757.344 498.562 756.327 498.682 755.326 498.916C754.143 499.195 753.117 498.82 752.347 497.876C751.569 496.935 751.478 495.865 751.887 494.774ZM786.338 480.017C787.572 480.542 788.278 481.588 788.274 482.803C788.267 484.11 787.645 485.027 786.482 485.585C786.221 485.718 785.939 485.806 785.649 485.845C784.545 485.982 783.438 486.094 782.329 486.18C781.704 486.228 781.109 486.067 780.563 485.734C779.483 485.06 778.935 483.872 779.149 482.651C779.37 481.412 780.262 480.407 781.486 480.202C782.695 479.997 783.927 479.909 785.148 479.795C785.593 479.751 786.025 479.859 786.338 480.017ZM240.532 488.993C238.433 488.952 236.831 487.958 235.608 486.263C234.499 484.729 234.389 483.02 234.811 481.234C235.198 479.593 235.92 478.117 237.091 476.916C238.138 475.841 239.392 475.099 240.911 475.005C241.742 474.955 242.53 475.225 243.208 475.738C243.564 476.008 243.947 476.237 244.308 476.498C246.024 477.739 247.142 479.395 247.529 481.522C247.648 482.161 247.56 482.813 247.362 483.429C246.491 486.146 244.788 488.017 242.051 488.813C241.559 488.959 241.045 489.02 240.532 488.993ZM743.075 442.994C741.137 442.959 739.658 442.107 738.529 440.654C737.505 439.339 737.404 437.874 737.794 436.343C738.151 434.936 738.817 433.672 739.898 432.642C740.865 431.721 742.023 431.085 743.424 431.004C744.182 430.967 744.929 431.188 745.544 431.632C745.874 431.864 746.227 432.06 746.56 432.284C748.144 433.348 749.176 434.767 749.534 436.59C749.643 437.138 749.562 437.697 749.379 438.225C748.575 440.553 747.003 442.157 744.476 442.84C744.02 442.965 743.547 443.017 743.075 442.994Z" fill="#E1E4E5"/>
<path fill-rule="evenodd" clip-rule="evenodd" d="M126.339 206.437C112.774 206.437 119.121 184.926 136.306 190.064C137.258 160.197 185.941 138.344 206.071 178.628C211.763 174.124 224.543 182.631 221.713 190.064C228.035 190.603 233.009 191.334 236.878 192.303C245.813 194.539 244.045 206.336 234.835 206.253L126.339 206.437ZM381.911 206.437C394.739 206.437 388.737 186.097 372.486 190.955C371.586 162.712 325.551 142.048 306.515 180.141C301.133 175.882 289.048 183.926 291.724 190.955C285.746 191.465 281.043 192.157 277.383 193.072C268.934 195.187 270.607 206.342 279.316 206.264L381.911 206.437ZM492.189 114.211C482.598 114.211 487.086 99.001 499.237 102.635C499.91 81.516 534.332 66.065 548.566 94.548C552.59 91.364 561.627 97.378 559.626 102.635C564.096 103.016 567.613 103.533 570.349 104.218C576.667 105.799 575.416 114.14 568.904 114.082L492.189 114.211ZM282.309 171.123H224.844C219.706 171.123 217.492 164.457 221.697 161.5C221.756 161.457 221.815 161.415 221.875 161.374C227.861 157.251 235.717 157.626 235.717 157.626C235.717 157.626 236.839 135.317 257.976 135.317C277.087 135.317 284.708 154.114 287.456 164.47C288.349 167.834 285.783 171.123 282.309 171.123ZM701.09 159.096H649.469C644.853 159.096 642.865 153.075 646.641 150.404L646.801 150.29C652.179 146.567 659.236 146.905 659.236 146.905C659.236 146.905 660.244 126.755 679.232 126.755C696.399 126.755 703.245 143.733 705.714 153.086C706.516 156.125 704.211 159.096 701.09 159.096ZM688.53 206.23H757.781C763.387 206.23 765.805 199.134 761.216 195.985C761.151 195.94 761.086 195.896 761.021 195.853C754.488 191.463 745.913 191.861 745.913 191.861C745.913 191.861 744.688 168.114 721.618 168.114C710.212 168.114 700.995 187.172 700.995 187.172C700.995 187.172 685.479 187.172 682.911 199.147C682.135 202.774 684.737 206.23 688.53 206.23ZM649.58 208.548H496.052C481.64 208.548 482.301 196.62 487.009 192.464C491.834 188.204 501.367 189.932 501.367 189.932C501.367 189.932 504.205 181.909 513.548 178.003C521.811 174.548 530.468 176.192 530.468 176.192C530.468 176.192 530.468 170.685 535.759 166.125C541.051 161.564 548.105 162.008 548.105 162.008C548.105 162.008 552.955 131.645 585.364 131.645C617.772 131.645 621.52 160.234 621.52 160.234C621.52 160.234 628.795 160.234 634.086 165.11C639.377 169.986 640.039 175.526 640.039 175.526C640.039 175.526 657.734 173.129 662.968 188.474C666.086 197.62 659.679 208.548 649.58 208.548ZM347.754 146H475.011C486.956 146 486.408 136.073 482.506 132.614C478.507 129.069 470.605 130.507 470.605 130.507C470.605 130.507 468.252 123.83 460.509 120.58C453.659 117.704 446.484 119.072 446.484 119.072C446.484 119.072 446.484 114.49 442.098 110.695C437.712 106.899 431.864 107.268 431.864 107.268C431.864 107.268 427.845 82 400.982 82C374.119 82 371.013 105.792 371.013 105.792C371.013 105.792 364.983 105.792 360.597 109.85C356.211 113.908 355.663 118.519 355.663 118.519C355.663 118.519 340.996 116.524 336.658 129.294C334.073 136.905 339.384 146 347.754 146Z" fill="white" stroke="#E1E4E5" stroke-width="4"/>
<path d="M380.001 263.687V221.312C380.001 190.111 405.299 164.812 436.501 164.812C467.702 164.812 493 190.111 493 221.312V263.687" stroke="#2E2445" stroke-width="13.893" stroke-linecap="round" stroke-linejoin="round"/>
<path fill-rule="evenodd" clip-rule="evenodd" d="M522.571 463.858H350.429C331.407 463.858 316 448.451 316 429.429V308.929C316 289.907 331.407 274.5 350.429 274.5H522.571C541.593 274.5 557 289.907 557 308.929V429.429C557 448.451 541.593 463.858 522.571 463.858Z" fill="#4F27AA" stroke="#4F27AA" stroke-width="16.932" stroke-linecap="round" stroke-linejoin="round"/>
<path d="M435.369 410.482V367.306M435.321 341.588C428.311 341.588 422.622 347.277 422.673 354.287C422.673 361.297 428.362 366.986 435.371 366.986C442.381 366.986 448.07 361.297 448.07 354.287C448.07 347.277 442.381 341.588 435.321 341.588" stroke="white" stroke-width="35.331" stroke-linecap="round" stroke-linejoin="round"/>
<path fill-rule="evenodd" clip-rule="evenodd" d="M296 385.766C296 424.587 266.776 460.886 227.5 469.7C188.224 460.886 159 424.587 159 385.766V355.271C159.001 351.874 160.014 348.555 161.909 345.736C163.805 342.918 166.497 340.728 169.643 339.447L212.456 321.956C222.098 318.015 232.902 318.015 242.544 321.956L285.357 339.447C288.502 340.729 291.194 342.919 293.089 345.737C294.985 348.556 295.998 351.874 296 355.271V385.766Z" fill="#4F27AA"/>
<path d="M253.473 378.014L223.504 407.982L205.523 390.001" stroke="white" stroke-width="16.625" stroke-linecap="round" stroke-linejoin="round"/>
<path d="M731.057 461.308C737.573 459.106 743.221 454.417 746.519 448.402C747.451 446.743 748.212 444.838 747.961 442.952C747.898 442.568 747.8 442.113 747.454 441.933C747.143 441.754 746.723 441.853 746.373 441.952C735.489 444.889 723.981 449.837 712.557 449.315C712.034 449.307 711.512 449.265 711.056 449.467C710.495 449.702 710.138 450.22 709.886 450.774C709.022 452.573 708.273 455.977 708.556 458.003C708.903 460.413 711.233 460.762 713.282 461.281C719.115 462.764 725.241 463.276 731.057 461.308Z" fill="#F8AE9D"/>
<path d="M732.063 447.8C732.94 447.43 733.851 447.061 734.793 447.04C735.734 447.02 736.772 447.523 737.072 448.434C737.272 449.065 737.087 449.724 736.834 450.313C736.149 451.836 734.945 453.072 733.674 454.168C728.801 458.277 722.56 460.761 716.175 461.152C713.35 461.318 710.391 461.064 707.901 459.737C709.144 458.222 708.898 456.058 709.032 454.143C709.431 448.537 714.208 450.666 718.043 450.655C722.854 450.553 727.643 449.615 732.063 447.8Z" fill="#F8AE9D"/>
<path d="M586.233 406.338L586.014 406.963C584.483 411.401 583.298 415.983 582.808 420.681C581.91 429.312 583.604 439.41 590.097 445.678C598.753 454.036 612.64 455.327 623.929 453.337C628.55 452.529 632.9 450.596 636.597 447.709C640.275 451.041 644.228 454.691 647.518 458.401C654.126 456.09 660.415 452.953 666.237 449.066C680.014 455.374 694.065 459.631 708.901 462.715C710.597 458.496 711.787 454.092 712.447 449.593C712.562 448.863 703.316 442.623 702.249 441.736C699.048 439.038 692.38 432.872 692.38 432.872C692.38 432.872 700.784 425.715 704.46 422.355C708.35 418.863 712.08 415.198 715.641 411.371C718.582 408.21 721.456 404.872 723.259 400.926C725.061 397.015 725.724 392.389 724.217 388.323C719.46 375.669 700.257 380.117 691.338 384.478C683.963 388.095 677.505 393.365 671.289 398.708C668.783 400.831 666.309 403.024 663.872 405.183C661.95 403.202 659.828 400.625 658.012 398.541C656.06 396.281 653.827 394.155 651.128 392.825C648.292 391.387 645.675 391.592 642.649 391.162C641.293 390.967 639.974 390.564 638.653 390.335C634.691 389.612 630.496 390.385 627.015 392.424C623.709 394.36 621.025 396.655 617.145 397.397C612.741 398.237 607.625 397.741 603.207 397.151C599.242 396.603 595.212 395.705 591.262 396.481C589.619 396.805 588.992 399.096 588.449 400.412C587.723 402.318 586.961 404.293 586.233 406.338ZM621.233 260.374C621.233 260.374 610.568 258.678 607.704 277.504C604.522 298.434 596.025 294.991 582.531 311.986C574.644 321.917 582.944 339.455 599.809 339.107C616.675 338.768 631.906 333.891 641.607 335.978C651.309 338.064 651.842 313.216 642.27 305.55C632.697 297.883 653.106 275.868 640.67 266.064C628.234 256.261 621.233 260.374 621.233 260.374Z" fill="#2E2445"/>
<path d="M557.486 343.391C556.513 341.392 556.572 339.07 556.923 336.903C558.443 327.603 564.961 319.832 572.431 314.137C579.926 308.428 588.504 304.352 596.39 299.235C598.436 297.903 600.487 296.468 602.837 295.747C605.187 295.027 607.918 295.105 609.858 296.62C611.228 297.683 612.019 299.327 612.48 300.971C613.49 304.571 613.103 308.383 612.487 312.035C611.717 316.641 610.587 321.2 608.731 325.433C607.243 328.848 604.821 332.362 601.181 333.031C600.128 337.112 597.959 340.937 594.918 343.864C591.439 347.219 587.029 349.413 582.451 350.946C578.234 352.361 573.621 353.285 569.379 351.964C566.861 351.195 564.643 349.715 562.474 348.205C560.539 346.919 558.531 345.511 557.486 343.391ZM595.601 337.189L598.091 333.237C597.564 333.283 597.045 333.405 596.553 333.6C595.186 334.191 594.363 336.345 595.601 337.189Z" fill="#2E2445"/>
<path d="M641.736 276.93C641.865 277.629 641.888 278.361 641.841 279.197C641.559 284.078 640.509 288.885 638.731 293.44C637.645 296.142 636.315 298.806 634.433 301.043C633.652 301.972 632.768 302.83 631.613 303.161C630.423 303.491 628.923 303.538 627.743 303.242C626.701 307.548 627.136 315.675 630.854 318.729C631.99 319.653 633.34 320.231 634.692 320.74C637.325 321.756 640.067 322.529 642.812 323.128C645.938 323.803 649.346 324.308 651.542 326.607C651.817 326.89 652.09 327.278 651.979 327.659C651.906 327.902 651.729 328.074 651.518 328.21C649.789 329.613 647.651 330.382 645.513 331.116C641.765 332.384 637.915 333.441 634 334.148C629.911 334.888 625.688 335.242 621.547 334.795C618.346 334.433 615.187 333.618 612.281 332.18C609.237 330.67 606.118 329.437 602.968 327.995C600.303 326.77 597.676 325.371 594.79 324.874C596.154 322.28 598.999 320.825 601.833 320.136C604.666 319.482 607.63 319.422 610.496 318.873C611.44 318.679 612.385 318.449 613.195 317.869C615.416 316.264 614.807 312.7 614.843 310.365L614.955 302.978C614.625 299.452 613.171 296.502 611.896 293.276C609.949 288.332 609.547 282.715 611.262 277.652C612.976 272.624 616.877 268.257 621.888 266.486C626.899 264.714 632.914 265.712 636.761 269.395C639.2 271.768 641.189 273.889 641.736 276.93Z" fill="#F8AE9D"/>
<path d="M626.326 261.222C631.32 260.664 635.871 263.11 639.245 266.901C642.084 270.079 643.753 274.275 643.669 278.489C643.657 279.092 643.589 279.747 643.249 280.288C642.347 281.584 640.385 281.107 638.918 280.53C636.527 279.606 634.747 278.257 632.579 277.118C630.412 275.979 627.78 276.146 625.84 274.574C624.008 273.059 617.72 269.866 617.55 267.399C617.336 264.383 622.862 261.919 625.172 261.418C625.502 261.315 625.887 261.268 626.326 261.222Z" fill="#2E2445"/>
<path d="M611.937 268.048C607.713 270.772 605.731 275.543 605.512 280.613C605.319 284.87 606.677 289.176 609.405 292.39C609.795 292.849 610.262 293.315 610.867 293.519C612.385 293.954 613.604 292.345 614.377 290.97C615.646 288.743 616.173 286.572 617.134 284.32C618.095 282.068 620.24 280.534 620.75 278.09C621.212 275.758 624.069 269.31 622.642 267.29C620.901 264.818 615.062 266.4 612.955 267.471C612.634 267.6 612.306 267.806 611.937 268.048Z" fill="#2E2445"/>
<path d="M649.502 325.53C650.169 325.226 650.967 325.447 651.411 326.047C656.394 333.023 658.318 341.766 660.002 350.192C661.913 359.771 663.614 369.382 665.246 378.992C665.343 379.481 665.405 380.005 665.189 380.455C664.973 380.905 664.481 381.141 664.025 381.343C661.146 382.729 658.233 384.079 655.353 385.464C652.246 378.395 650.007 370.976 648.683 363.369C646.835 368.047 643.497 372.109 639.239 374.763C642.411 379.307 646.316 388.394 650.125 392.39C650.707 393.026 654.312 392.036 655.118 391.769C655.619 393.206 653.272 391.671 653.285 393.135C651.119 393.451 648.351 392.154 646.124 391.876C643.439 391.562 640.728 391.545 638.039 391.823C633.57 392.313 629.227 393.711 625.256 395.812C623.282 396.862 621.388 398.056 619.59 399.385C618.039 400.547 614.198 403.277 614.198 403.277C613.916 403.482 612.596 403.183 612.284 403.108C611.373 402.954 610.456 402.835 609.536 402.753C607.225 402.573 604.926 402.271 602.648 401.847C598.095 401.011 593.618 399.723 589.323 397.95C588.91 397.63 590.385 394.585 590.464 393.993C590.386 394.55 581.926 393.864 581.092 393.712C577.757 393.034 574.381 392.669 571.046 391.956C572.54 378.525 576.64 365.551 580.67 352.681C582.246 347.617 583.856 342.552 586.09 337.776C588.467 332.689 591.537 327.925 595.226 323.694C595.333 323.591 595.508 323.524 595.647 323.561C597.417 324.006 608.215 326.785 613.587 328.783C616.325 329.836 619.099 330.784 621.907 331.733C623.017 332.098 624.162 332.464 625.312 332.447C626.08 332.424 626.849 332.261 627.583 332.098C635.067 330.434 642.554 328.631 649.502 325.53Z" fill="#4F27AA"/>
<path d="M600.789 352.289C600.481 354.202 600.068 356.147 599.655 358.058C598.651 362.394 597.364 366.659 595.802 370.826C595.003 372.905 594.171 374.949 593.233 376.991C592.768 378.001 592.288 379.005 591.793 380.001C591.542 380.486 591.29 381.005 591.039 381.489C590.823 381.904 590.574 382.283 590.359 382.663C591.858 382.617 599.258 383.043 600.79 383.171" stroke="white" stroke-width="1.376" stroke-miterlimit="10" stroke-linecap="round"/>
<path d="M601.03 384.675C600.874 385.654 600.684 386.628 600.462 387.594L599.791 390.511C599.569 391.345 599.065 392.382 599.052 393.254C599.055 393.079 604.988 392.577 605.546 392.516C611.725 391.913 617.934 391.554 624.109 391.16C628.122 390.907 632.059 391.002 636.067 391.028C637.251 391.046 638.647 390.927 639.289 389.961C639.825 389.133 639.388 388.081 639.817 387.32C640.095 387.394 643.324 388.21 643.291 388.14C643.419 388.874 643.674 390.411 644.436 390.771C644.713 390.88 644.991 390.919 645.27 390.923C645.688 390.93 646.107 390.866 646.526 390.803C646.591 390.802 646.653 390.779 646.702 390.736C646.772 390.667 646.704 390.562 646.636 390.456C645.686 389.051 645.188 387.39 645.21 385.694C644.209 385.017 643.21 384.235 642.352 383.385C641.666 382.678 641.157 381.764 640.399 381.16C639.608 380.486 638.835 380.892 637.96 381.123C636.947 381.349 635.943 381.613 634.95 381.914C633.024 382.512 631.096 383.249 629.474 384.444C628.911 384.854 628.381 385.299 627.716 385.498C627.085 385.698 626.388 385.687 625.726 385.677C621.65 385.58 617.575 385.379 613.538 384.934C609.398 384.488 606.573 384.55 601.148 383.735C601.148 383.77 601.143 384.084 601.03 384.675Z" fill="#F8AE9D"/>
<path d="M645.923 351.902C646.893 356.125 647.611 360.402 648.076 364.71" stroke="white" stroke-width="1.376" stroke-miterlimit="10" stroke-linecap="round"/>
<path d="M728.117 344.953L716.153 398.308L625.308 396.928C625.332 395.413 625.956 393.969 627.044 392.913C628.132 391.858 629.594 391.278 631.109 391.3L652.819 391.63L663.637 342.544C663.804 341.772 664.233 341.082 664.85 340.59C665.467 340.098 666.236 339.833 667.025 339.842L724.8 340.72C726.995 340.788 728.603 342.799 728.117 344.953Z" fill="#2E2445"/>
<path d="M609.443 475.32C609.864 472.886 611.052 470.395 612.165 468.216C616.762 459.293 624.979 453.005 633.828 448.678C634.741 448.239 635.654 447.799 636.6 447.465C636.529 447.569 636.457 447.672 636.386 447.811L636.385 447.845H636.35C636.456 447.777 636.527 447.708 636.632 447.64C640.208 450.866 644.023 454.41 647.28 457.979C645.127 459.724 642.004 461.141 640.453 462.302C636.787 465 633.258 467.874 629.455 470.396C624.349 473.838 618.908 476.335 612.827 477.428C610.485 477.845 609.259 478.28 609.286 476.468C609.326 476.189 609.366 475.807 609.443 475.32Z" fill="#F8AE9D"/>
<path d="M615.373 468.299C617.741 463.838 621.417 460.444 625.436 457.438C628.257 455.319 631.248 453.413 634.101 451.47C634.911 450.924 636.502 449.45 637.872 448.738C640.726 451.326 643.647 454.054 646.288 456.883C637.563 462.188 629.79 469.11 620.218 472.869C619.341 473.204 618.43 473.538 617.489 473.559C616.547 473.58 615.542 473.181 614.997 472.406C614.143 471.208 614.691 469.578 615.373 468.299Z" fill="#F8AE9D"/>
</g>
<defs>
<clipPath id="clip0_1235_23651">
<rect width="900" height="600" fill="white"/>
</clipPath>
</defs>
</svg>
