<svg width="900" height="600" viewBox="0 0 900 600" fill="none" xmlns="http://www.w3.org/2000/svg">
<g clip-path="url(#clip0_1235_23709)">
<path d="M328 133H140C123.431 133 110 146.431 110 163V393C110 409.569 123.431 423 140 423H328C344.569 423 358 409.569 358 393V163C358 146.431 344.569 133 328 133Z" fill="white" stroke="#E1E4E5" stroke-width="4" stroke-linecap="round" stroke-linejoin="round"/>
<path d="M143 173C145.122 173 147.157 172.157 148.657 170.657C150.157 169.157 151 167.122 151 165C151 162.878 150.157 160.843 148.657 159.343C147.157 157.843 145.122 157 143 157C140.878 157 138.843 157.843 137.343 159.343C135.843 160.843 135 162.878 135 165C135 167.122 135.843 169.157 137.343 170.657C138.843 172.157 140.878 173 143 173ZM165 173C167.122 173 169.157 172.157 170.657 170.657C172.157 169.157 173 167.122 173 165C173 162.878 172.157 160.843 170.657 159.343C169.157 157.843 167.122 157 165 157C162.878 157 160.843 157.843 159.343 159.343C157.843 160.843 157 162.878 157 165C157 167.122 157.843 169.157 159.343 170.657C160.843 172.157 162.878 173 165 173ZM187 173C189.122 173 191.157 172.157 192.657 170.657C194.157 169.157 195 167.122 195 165C195 162.878 194.157 160.843 192.657 159.343C191.157 157.843 189.122 157 187 157C184.878 157 182.843 157.843 181.343 159.343C179.843 160.843 179 162.878 179 165C179 167.122 179.843 169.157 181.343 170.657C182.843 172.157 184.878 173 187 173Z" fill="#E1E4E5"/>
<path d="M324 220H138C136.343 220 135 221.343 135 223C135 224.657 136.343 226 138 226H324C325.657 226 327 224.657 327 223C327 221.343 325.657 220 324 220Z" fill="#E1E4E5"/>
<path d="M324 312H138C136.343 312 135 313.343 135 315C135 316.657 136.343 318 138 318H324C325.657 318 327 316.657 327 315C327 313.343 325.657 312 324 312Z" fill="#E1E4E5"/>
<path d="M138 272H324C325.657 272 327 270.657 327 269C327 267.343 325.657 266 324 266H138C136.343 266 135 267.343 135 269C135 270.657 136.343 272 138 272Z" fill="#E1E4E5"/>
<path d="M138 364H324C325.657 364 327 362.657 327 361C327 359.343 325.657 358 324 358H138C136.343 358 135 359.343 135 361C135 362.657 136.343 364 138 364Z" fill="#E1E4E5"/>
<path d="M265 241C274.941 241 283 232.941 283 223C283 213.059 274.941 205 265 205C255.059 205 247 213.059 247 223C247 232.941 255.059 241 265 241ZM265 333C274.941 333 283 324.941 283 315C283 305.059 274.941 297 265 297C255.059 297 247 305.059 247 315C247 324.941 255.059 333 265 333ZM183 251C173.059 251 165 259.059 165 269C165 278.941 173.059 287 183 287C192.941 287 201 278.941 201 269C201 259.059 192.941 251 183 251ZM183 343C173.059 343 165 351.059 165 361C165 370.941 173.059 379 183 379C192.941 379 201 370.941 201 361C201 351.059 192.941 343 183 343Z" fill="#E1E4E5"/>
<path d="M760 114H572C555.431 114 542 127.431 542 144V374C542 390.569 555.431 404 572 404H760C776.569 404 790 390.569 790 374V144C790 127.431 776.569 114 760 114Z" fill="white" stroke="#E1E4E5" stroke-width="4" stroke-linecap="round" stroke-linejoin="round"/>
<path d="M575 154C577.122 154 579.157 153.157 580.657 151.657C582.157 150.157 583 148.122 583 146C583 143.878 582.157 141.843 580.657 140.343C579.157 138.843 577.122 138 575 138C572.878 138 570.843 138.843 569.343 140.343C567.843 141.843 567 143.878 567 146C567 148.122 567.843 150.157 569.343 151.657C570.843 153.157 572.878 154 575 154ZM597 154C599.122 154 601.157 153.157 602.657 151.657C604.157 150.157 605 148.122 605 146C605 143.878 604.157 141.843 602.657 140.343C601.157 138.843 599.122 138 597 138C594.878 138 592.843 138.843 591.343 140.343C589.843 141.843 589 143.878 589 146C589 148.122 589.843 150.157 591.343 151.657C592.843 153.157 594.878 154 597 154ZM619 154C621.122 154 623.157 153.157 624.657 151.657C626.157 150.157 627 148.122 627 146C627 143.878 626.157 141.843 624.657 140.343C623.157 138.843 621.122 138 619 138C616.878 138 614.843 138.843 613.343 140.343C611.843 141.843 611 143.878 611 146C611 148.122 611.843 150.157 613.343 151.657C614.843 153.157 616.878 154 619 154Z" fill="#E1E4E5"/>
<path d="M756 201H570C568.343 201 567 202.343 567 204C567 205.657 568.343 207 570 207H756C757.657 207 759 205.657 759 204C759 202.343 757.657 201 756 201Z" fill="#E1E4E5"/>
<path d="M756 293H570C568.343 293 567 294.343 567 296C567 297.657 568.343 299 570 299H756C757.657 299 759 297.657 759 296C759 294.343 757.657 293 756 293Z" fill="#E1E4E5"/>
<path d="M570 253L756 253C757.657 253 759 251.657 759 250C759 248.343 757.657 247 756 247L570 247C568.343 247 567 248.343 567 250C567 251.657 568.343 253 570 253Z" fill="#E1E4E5"/>
<path d="M570 345H756C757.657 345 759 343.657 759 342C759 340.343 757.657 339 756 339H570C568.343 339 567 340.343 567 342C567 343.657 568.343 345 570 345Z" fill="#E1E4E5"/>
<path d="M704 222C713.941 222 722 213.941 722 204C722 194.059 713.941 186 704 186C694.059 186 686 194.059 686 204C686 213.941 694.059 222 704 222ZM704 314C713.941 314 722 305.941 722 296C722 286.059 713.941 278 704 278C694.059 278 686 286.059 686 296C686 305.941 694.059 314 704 314ZM622 232C612.059 232 604 240.059 604 250C604 259.941 612.059 268 622 268C631.941 268 640 259.941 640 250C640 240.059 631.941 232 622 232ZM622 324C612.059 324 604 332.059 604 342C604 351.941 612.059 360 622 360C631.941 360 640 351.941 640 342C640 332.059 631.941 324 622 324Z" fill="#E1E4E5"/>
<path d="M521 189H333C316.431 189 303 202.431 303 219V449C303 465.569 316.431 479 333 479H521C537.569 479 551 465.569 551 449V219C551 202.431 537.569 189 521 189Z" fill="white" stroke="#E1E4E5" stroke-width="4" stroke-linecap="round" stroke-linejoin="round"/>
<path d="M336 229C338.122 229 340.157 228.157 341.657 226.657C343.157 225.157 344 223.122 344 221C344 218.878 343.157 216.843 341.657 215.343C340.157 213.843 338.122 213 336 213C333.878 213 331.843 213.843 330.343 215.343C328.843 216.843 328 218.878 328 221C328 223.122 328.843 225.157 330.343 226.657C331.843 228.157 333.878 229 336 229ZM358 229C360.122 229 362.157 228.157 363.657 226.657C365.157 225.157 366 223.122 366 221C366 218.878 365.157 216.843 363.657 215.343C362.157 213.843 360.122 213 358 213C355.878 213 353.843 213.843 352.343 215.343C350.843 216.843 350 218.878 350 221C350 223.122 350.843 225.157 352.343 226.657C353.843 228.157 355.878 229 358 229ZM380 229C382.122 229 384.157 228.157 385.657 226.657C387.157 225.157 388 223.122 388 221C388 218.878 387.157 216.843 385.657 215.343C384.157 213.843 382.122 213 380 213C377.878 213 375.843 213.843 374.343 215.343C372.843 216.843 372 218.878 372 221C372 223.122 372.843 225.157 374.343 226.657C375.843 228.157 377.878 229 380 229Z" fill="#E1E4E5"/>
<path d="M375 329C394.33 329 410 313.33 410 294C410 274.67 394.33 259 375 259C355.67 259 340 274.67 340 294C340 313.33 355.67 329 375 329Z" fill="#4F27AA"/>
<path d="M477.5 229L533.359 325.75H421.641L477.5 229Z" fill="#E1E4E5"/>
<path d="M413 337H527V440H413V337ZM398 347H378V430H398V347ZM366 347H346V430H366V347Z" fill="#4F27AA"/>
<path d="M418.83 520.578C418.115 526.436 412.538 529.487 402.803 532.423C395.482 534.629 388.843 536.735 380.226 535.784C374.195 535.12 368.803 533.087 364.507 530.726C359.853 528.168 353.756 525.572 354.09 520.371C354.549 513.226 369.274 501.327 388.934 502.845C410.531 504.515 419.531 514.852 418.83 520.578Z" fill="url(#paint0_linear_1235_23709)"/>
<path d="M487.184 136.97C475.391 145.766 456.674 140.633 456.674 140.633C456.674 140.633 457.091 121.242 468.892 112.454C480.685 103.658 499.393 108.783 499.393 108.783C499.393 108.783 498.977 128.175 487.184 136.97Z" fill="url(#paint1_linear_1235_23709)"/>
<path d="M190.317 93.0488C201.528 106.024 224.119 104.888 224.119 104.888C224.119 104.888 228.52 82.7128 217.298 69.7448C206.087 56.7708 183.508 57.8998 183.508 57.8998C183.508 57.8998 179.107 80.0738 190.317 93.0488Z" fill="url(#paint2_linear_1235_23709)"/>
<path d="M498.673 533.346C493.331 533.346 489 529.015 489 523.673C489 518.331 493.331 514 498.673 514C504.015 514 508.346 518.331 508.346 523.673C508.346 529.015 504.015 533.346 498.673 533.346Z" fill="#E1E4E5"/>
<path d="M621.634 480.268C615.761 480.268 611 475.507 611 469.634C611 463.761 615.761 459 621.634 459C627.507 459 632.268 463.761 632.268 469.634C632.268 475.507 627.507 480.268 621.634 480.268Z" fill="#E1E4E5"/>
<path d="M416.585 157.17C411.844 157.17 408 153.326 408 148.585C408 143.844 411.844 140 416.585 140C421.326 140 425.17 143.844 425.17 148.585C425.17 153.326 421.326 157.17 416.585 157.17Z" fill="#E1E4E5"/>
<path d="M272.259 467.256C273.776 472.919 270.415 478.741 264.751 480.259C259.087 481.776 253.266 478.415 251.748 472.751C250.231 467.088 253.592 461.266 259.255 459.748C264.919 458.231 270.741 461.592 272.259 467.256Z" fill="#E1E4E5"/>
<path d="M384.124 109.248C376.324 109.248 370 102.924 370 95.124C370 87.3235 376.324 81 384.124 81C391.925 81 398.248 87.3235 398.248 95.124C398.248 102.924 391.925 109.248 384.124 109.248Z" fill="#E1E4E5"/>
<path d="M778.865 457.384C772.864 457.384 768 453.492 768 448.692C768 443.892 772.864 440 778.865 440C784.866 440 789.73 443.892 789.73 448.692C789.73 453.492 784.866 457.384 778.865 457.384Z" fill="#E1E4E5"/>
<path d="M165.211 482.607C165.211 491.225 158.224 498.212 149.606 498.212C140.988 498.212 134.001 491.225 134.001 482.607C134.001 473.989 140.988 467.002 149.606 467.002C158.224 467.002 165.211 473.989 165.211 482.607Z" fill="#E1E4E5"/>
<path d="M692.41 440H692.695C694.378 463.847 712.112 464.214 712.112 464.214C712.112 464.214 692.556 464.596 692.556 492.15C692.556 464.596 673 464.214 673 464.214C673 464.214 690.727 463.847 692.41 440Z" fill="#E1E4E5"/>
</g>
<defs>
<linearGradient id="paint0_linear_1235_23709" x1="413.512" y1="558.819" x2="345.886" y2="461.688" gradientUnits="userSpaceOnUse">
<stop stop-color="white"/>
<stop offset="1" stop-color="#EEEEEE"/>
</linearGradient>
<linearGradient id="paint1_linear_1235_23709" x1="441.052" y1="166.11" x2="532.571" y2="62.0222" gradientUnits="userSpaceOnUse">
<stop stop-color="white"/>
<stop offset="1" stop-color="#EEEEEE"/>
</linearGradient>
<linearGradient id="paint2_linear_1235_23709" x1="235.495" y1="137.81" x2="157.503" y2="-3.6592" gradientUnits="userSpaceOnUse">
<stop stop-color="white"/>
<stop offset="1" stop-color="#EEEEEE"/>
</linearGradient>
<clipPath id="clip0_1235_23709">
<rect width="900" height="600" fill="white"/>
</clipPath>
</defs>
</svg>
