<svg width="900" height="600" viewBox="0 0 900 600" fill="none" xmlns="http://www.w3.org/2000/svg">
<g clip-path="url(#clip0_1235_23741)">
<path d="M450.5 524C575.592 524 677 517.956 677 510.5C677 503.044 575.592 497 450.5 497C325.408 497 224 503.044 224 510.5C224 517.956 325.408 524 450.5 524Z" fill="url(#paint0_linear_1235_23741)"/>
<path d="M458.122 501H442.878C442.393 501 442 496.584 442 491.139V383.861C442 378.416 442.393 374 442.878 374H458.122C458.607 374 459 378.416 459 383.861V491.139C459 496.584 458.607 501 458.122 501Z" fill="white" stroke="#E1E4E5" stroke-width="4"/>
<path d="M346.691 501.723L340.916 495.948C340.732 495.764 344.272 491.926 348.821 487.377L438.442 397.756C442.991 393.207 446.829 389.667 447.013 389.851L452.788 395.626C452.972 395.809 449.432 399.647 444.883 404.196L355.261 493.818C350.712 498.367 346.875 501.906 346.691 501.723Z" fill="white" stroke="#E1E4E5" stroke-width="4"/>
<path d="M556.787 502.824L562.562 497.049C562.746 496.865 559.168 492.989 554.572 488.393L464.02 397.841C459.424 393.245 455.548 389.667 455.364 389.851L449.589 395.626C449.405 395.809 452.984 399.686 457.58 404.282L548.131 494.833C552.727 499.429 556.604 503.008 556.787 502.824Z" fill="white" stroke="#E1E4E5" stroke-width="4"/>
<path d="M653.605 427H247.395C235.573 427 226 417.456 226 405.707V152.293C226 140.544 235.573 131 247.395 131H653.605C665.427 131 675 140.544 675 152.293V405.707C675 417.456 665.427 427 653.605 427ZM500.267 509H400.733C399.268 509 398.01 508.845 397.178 508.631C397.118 508.616 397.059 508.599 397 508.582V494.418C397.054 494.402 397.114 494.386 397.178 494.369C398.01 494.155 399.268 494 400.733 494H500.267C501.732 494 502.99 494.155 503.822 494.369C503.886 494.386 503.946 494.402 504 494.418V508.582C503.941 508.599 503.882 508.616 503.822 508.631C502.99 508.845 501.732 509 500.267 509ZM396.49 508.39C396.449 508.366 396.458 508.366 396.494 508.393L396.49 508.39ZM396.49 494.61L396.494 494.607C396.458 494.634 396.449 494.634 396.49 494.61ZM504.51 494.61C504.551 494.634 504.542 494.634 504.506 494.607L504.51 494.61ZM504.51 508.39L504.506 508.393C504.542 508.366 504.551 508.366 504.51 508.39ZM365 494V509H331V494H365ZM570 494V509H536V494H570Z" fill="white" stroke="#E1E4E5" stroke-width="4"/>
<path d="M226 131H675V148H226V131Z" fill="white" stroke="#E1E4E5" stroke-width="4"/>
<path d="M481.5 123H417.5C413.358 123 410 126.358 410 130.5C410 134.642 413.358 138 417.5 138H481.5C485.642 138 489 134.642 489 130.5C489 126.358 485.642 123 481.5 123Z" fill="white" stroke="#E1E4E5" stroke-width="4"/>
<path d="M190.067 263.189C181.717 270.864 166.958 268.405 166.958 268.405C166.958 268.405 165.748 253.501 174.105 245.831C182.455 238.155 197.206 240.61 197.206 240.61C197.206 240.61 198.417 255.513 190.067 263.189Z" fill="url(#paint1_linear_1235_23741)"/>
<path d="M186 322C189.866 322 193 325.134 193 329C193 332.866 189.866 336 186 336C182.134 336 179 332.866 179 329C179 325.134 182.134 322 186 322Z" fill="#E1E4E5"/>
<path d="M193 159C197.418 159 201 162.806 201 167.5C201 172.194 197.418 176 193 176C188.582 176 185 172.194 185 167.5C185 162.806 188.582 159 193 159Z" fill="url(#paint2_linear_1235_23741)"/>
<path d="M677 377C682.523 377 687 372.523 687 367C687 361.477 682.523 357 677 357C671.477 357 667 361.477 667 367C667 372.523 671.477 377 677 377Z" fill="#E1E4E5"/>
<path d="M689.129 193.188C688.662 194.93 689.696 196.72 691.438 197.187C693.18 197.654 694.97 196.62 695.437 194.878C695.903 193.137 694.87 191.346 693.128 190.88C691.386 190.413 689.596 191.447 689.129 193.188Z" fill="#E1E4E5"/>
<path d="M708 256C710.761 256 713 253.761 713 251C713 248.239 710.761 246 708 246C705.239 246 703 248.239 703 251C703 253.761 705.239 256 708 256Z" fill="#E1E4E5"/>
<path fill-rule="evenodd" clip-rule="evenodd" d="M391.95 269.475C391.95 308.953 359.953 340.95 320.475 340.95C280.997 340.95 249 308.953 249 269.475C249 229.997 280.997 198 320.475 198C359.953 198 391.95 229.997 391.95 269.475Z" fill="#4F27AA" stroke="white" stroke-width="4" stroke-linecap="round" stroke-linejoin="round"/>
<path d="M371.016 320.016L322.802 271.802C322.064 271.065 321.479 270.19 321.08 269.226C320.68 268.263 320.475 267.23 320.475 266.187V198" stroke="white" stroke-width="4" stroke-linecap="round" stroke-linejoin="round"/>
<path d="M382.375 233.738L323.325 267.83C322.422 268.351 321.63 269.045 320.995 269.872C320.36 270.7 319.894 271.644 319.624 272.651L301.976 338.515M320.928 269.926L370.982 320.007" stroke="white" stroke-width="4" stroke-linecap="round" stroke-linejoin="round"/>
<path d="M424.558 305.568H475.608M539.44 305.605H597.143M539.44 343.157H597.143M424.558 321.977H509.337M539.42 321.977H623.911M539.42 359.529H623.911M424.558 343.855H475.608M424.558 360.264H509.337" stroke="#E1E4E5" stroke-width="5.5" stroke-linecap="round" stroke-linejoin="round"/>
<path d="M484.751 198H474.668C469.145 198 464.668 202.477 464.668 208V277.337C464.668 282.86 469.145 287.337 474.668 287.337H484.751C490.274 287.337 494.751 282.86 494.751 277.337V208C494.751 202.477 490.274 198 484.751 198Z" fill="#4F27AA"/>
<path d="M574.088 198H564.005C558.482 198 554.005 202.477 554.005 208V277.337C554.005 282.86 558.482 287.337 564.005 287.337H574.088C579.611 287.337 584.088 282.86 584.088 277.337V208C584.088 202.477 579.611 198 574.088 198Z" fill="#4F27AA"/>
<path d="M440.083 234.465H430C424.477 234.465 420 238.942 420 244.465V277.338C420 282.861 424.477 287.338 430 287.338H440.083C445.606 287.338 450.083 282.861 450.083 277.338V244.465C450.083 238.942 445.606 234.465 440.083 234.465Z" fill="#E1E4E5"/>
<path d="M529.42 234.465H519.337C513.814 234.465 509.337 238.942 509.337 244.465V277.338C509.337 282.861 513.814 287.338 519.337 287.338H529.42C534.943 287.338 539.42 282.861 539.42 277.338V244.465C539.42 238.942 534.943 234.465 529.42 234.465Z" fill="#E1E4E5"/>
<path d="M618.757 234.465H608.674C603.151 234.465 598.674 238.942 598.674 244.465V277.338C598.674 282.861 603.151 287.338 608.674 287.338H618.757C624.28 287.338 628.757 282.861 628.757 277.338V244.465C628.757 238.942 624.28 234.465 618.757 234.465Z" fill="#E1E4E5"/>
</g>
<defs>
<linearGradient id="paint0_linear_1235_23741" x1="460.159" y1="539.138" x2="460.109" y2="467.619" gradientUnits="userSpaceOnUse">
<stop stop-color="white"/>
<stop offset="1" stop-color="#EEEEEE"/>
</linearGradient>
<linearGradient id="paint1_linear_1235_23741" x1="156.988" y1="289.175" x2="218.961" y2="202.132" gradientUnits="userSpaceOnUse">
<stop stop-color="white"/>
<stop offset="1" stop-color="#EEEEEE"/>
</linearGradient>
<linearGradient id="paint2_linear_1235_23741" x1="201.341" y1="140.969" x2="200.784" y2="185.992" gradientUnits="userSpaceOnUse">
<stop stop-color="white"/>
<stop offset="1" stop-color="#EEEEEE"/>
</linearGradient>
<clipPath id="clip0_1235_23741">
<rect width="900" height="600" fill="white"/>
</clipPath>
</defs>
</svg>
