<svg width="900" height="600" viewBox="0 0 900 600" fill="none" xmlns="http://www.w3.org/2000/svg">
<g clip-path="url(#clip0_1235_23765)">
<mask id="mask0_1235_23765" style="mask-type:alpha" maskUnits="userSpaceOnUse" x="0" y="0" width="900" height="600">
<path d="M0 0H900V600H0V0Z" fill="white"/>
</mask>
<g mask="url(#mask0_1235_23765)">
<path d="M664.146 409.397C654.133 466.306 517.698 555.044 392.101 481.27C333.687 446.957 346.612 415.543 308.72 361.376C286.133 329.092 249.623 300.162 246.88 260.227C244.505 225.755 258.588 192.57 280.903 174.043C331.09 132.376 416.718 115.758 474.625 213.245C532.532 310.732 689.951 262.622 664.146 409.397Z" fill="url(#paint0_linear_1235_23765)"/>
<path d="M675.272 222.361C663.471 243.424 637.624 246.318 596.216 242.315C565.074 239.299 536.675 236.966 505.53 219.985C483.732 208.109 466.476 192.04 453.882 176.433C440.234 159.526 421.185 140.231 430.524 121.061C443.357 94.7282 517.57 72.5502 589.633 108.818C668.795 148.671 686.817 201.776 675.272 222.361Z" fill="url(#paint1_linear_1235_23765)"/>
<path d="M755.051 266.396C732.818 277.425 703.31 263.244 703.31 263.244C703.31 263.244 709.868 231.188 732.113 220.175C754.346 209.146 783.842 223.312 783.842 223.312C783.842 223.312 777.284 255.367 755.051 266.396Z" fill="url(#paint2_linear_1235_23765)"/>
<path d="M122.175 345.494C145.879 359.701 179.887 346.567 179.887 346.567C179.887 346.567 175.44 310.405 151.722 296.214C128.018 282.008 94.0239 295.126 94.0239 295.126C94.0239 295.126 98.4709 331.287 122.175 345.494Z" fill="url(#paint3_linear_1235_23765)"/>
<path d="M711.305 180.355C704.6 180.355 699.165 185.79 699.165 192.495C699.165 199.2 704.6 204.635 711.305 204.635C718.01 204.635 723.445 199.2 723.445 192.495C723.445 185.79 718.01 180.355 711.305 180.355Z" fill="#4F27AA"/>
<path d="M340.155 218.729C334.636 218.729 330.162 223.203 330.162 228.722C330.162 234.241 334.636 238.715 340.155 238.715C345.674 238.715 350.148 234.241 350.148 228.722C350.148 223.203 345.674 218.729 340.155 218.729Z" fill="#4F27AA"/>
<path d="M210.154 326.467C203.869 326.467 198.773 321.372 198.773 315.086C198.773 308.801 203.869 303.705 210.154 303.705C216.44 303.705 221.535 308.801 221.535 315.086C221.535 321.372 216.44 326.467 210.154 326.467Z" fill="#4F27AA"/>
<path d="M687.028 260.809C684.095 260.809 681.717 258.432 681.717 255.498C681.717 252.565 684.095 250.188 687.028 250.188C689.961 250.188 692.339 252.565 692.339 255.498C692.339 258.432 689.961 260.809 687.028 260.809Z" fill="#4F27AA"/>
<path d="M683.962 462.031C680.19 462.031 677.133 458.974 677.133 455.202C677.133 451.43 680.19 448.373 683.962 448.373C687.734 448.373 690.791 451.43 690.791 455.202C690.791 458.974 687.734 462.031 683.962 462.031Z" fill="#E1E4E5"/>
<path d="M160.544 416.113C155.097 416.113 150.681 411.697 150.681 406.25C150.681 400.803 155.097 396.387 160.544 396.387C165.991 396.387 170.407 400.803 170.407 406.25C170.407 411.697 165.991 416.113 160.544 416.113Z" fill="#E1E4E5"/>
<path d="M718.736 395.196C714.59 395.196 711.229 391.835 711.229 387.689C711.229 383.543 714.59 380.182 718.736 380.182C722.882 380.182 726.243 383.543 726.243 387.689C726.243 391.835 722.882 395.196 718.736 395.196Z" fill="#E1E4E5"/>
<path d="M639.072 163.967C634.463 163.967 630.726 160.231 630.726 155.621C630.726 151.012 634.463 147.275 639.072 147.275C643.681 147.275 647.418 151.012 647.418 155.621C647.418 160.231 643.681 163.967 639.072 163.967Z" fill="#E1E4E5"/>
<path d="M190.383 248.393C191.455 252.391 189.082 256.501 185.084 257.573C181.085 258.644 176.976 256.271 175.904 252.273C174.833 248.274 177.206 244.165 181.204 243.093C185.202 242.022 189.312 244.395 190.383 248.393Z" fill="#E1E4E5"/>
<path d="M376.823 113.618C371.317 113.618 366.853 109.154 366.853 103.648C366.853 98.1415 371.317 93.6777 376.823 93.6777C382.329 93.6777 386.793 98.1415 386.793 103.648C386.793 109.154 382.329 113.618 376.823 113.618Z" fill="#E1E4E5"/>
<path d="M691.413 352.243C687.178 352.243 683.744 349.496 683.744 346.107C683.744 342.718 687.178 339.971 691.413 339.971C695.649 339.971 699.082 342.718 699.082 346.107C699.082 349.496 695.649 352.243 691.413 352.243Z" fill="#E1E4E5"/>
<path d="M561.824 86.7522C564.053 95.0732 559.115 103.626 550.794 105.856C542.473 108.085 533.92 103.147 531.691 94.8263C529.461 86.5053 534.399 77.9523 542.72 75.7227C551.041 73.4931 559.594 78.4312 561.824 86.7522Z" fill="#E1E4E5"/>
<path d="M217.285 198.674H217.395C218.042 207.841 224.859 207.982 224.859 207.982C224.859 207.982 217.341 208.129 217.341 218.721C217.341 208.129 209.824 207.982 209.824 207.982C209.824 207.982 216.638 207.841 217.285 198.674ZM205.865 438.624H205.97C206.591 447.763 213.136 447.904 213.136 447.904C213.136 447.904 205.918 448.05 205.918 458.61C205.918 448.05 198.701 447.904 198.701 447.904C198.701 447.904 205.244 447.763 205.865 438.624Z" fill="#E1E4E5"/>
<mask id="mask1_1235_23765" style="mask-type:alpha" maskUnits="userSpaceOnUse" x="310" y="167" width="336" height="335">
<path fill-rule="evenodd" clip-rule="evenodd" d="M577.375 468.81C533.976 501.075 475.762 511.717 421.041 492.092C334.119 460.92 288.925 365.186 320.097 278.264C351.269 191.343 447.003 146.149 533.925 177.321C620.847 208.493 666.041 304.227 634.869 391.149C632.324 398.251 629.306 405.175 625.834 411.873L645.607 477.422C647.407 483.39 641.8 488.942 635.849 487.083L577.375 468.81Z" fill="white"/>
</mask>
<g mask="url(#mask1_1235_23765)">
<path d="M577.375 468.81L580.954 457.356L575.121 455.533L570.216 459.179L577.375 468.81ZM421.041 492.092L416.99 503.388L421.041 492.092ZM320.097 278.264L308.802 274.214L320.097 278.264ZM634.869 391.149L646.164 395.2L634.869 391.149ZM625.834 411.873L615.181 406.349L612.938 410.674L614.345 415.339L625.834 411.873ZM645.607 477.422L634.118 480.887L645.607 477.422ZM635.849 487.083L632.27 498.536L635.849 487.083ZM570.216 459.179C529.902 489.151 475.875 499.009 425.092 480.797L416.99 503.388C475.65 524.425 538.05 512.999 584.535 478.44L570.216 459.179ZM425.092 480.797C344.408 451.862 302.458 362.999 331.393 282.315L308.802 274.214C275.392 367.374 323.83 469.979 416.99 503.388L425.092 480.797ZM331.393 282.315C360.328 201.632 449.191 159.682 529.874 188.617L537.976 166.025C444.816 132.616 342.211 181.053 308.802 274.214L331.393 282.315ZM529.874 188.617C610.558 217.552 652.508 306.415 623.573 387.098L646.164 395.2C679.574 302.04 631.136 199.435 537.976 166.025L529.874 188.617ZM623.573 387.098C621.209 393.695 618.405 400.127 615.181 406.349L636.486 417.398C640.205 410.223 643.438 402.807 646.164 395.2L623.573 387.098ZM614.345 415.339L634.118 480.887L657.095 473.956L637.322 408.408L614.345 415.339ZM634.118 480.887C633.138 477.639 636.19 474.617 639.429 475.629L632.27 498.536C647.409 503.267 661.676 489.141 657.095 473.956L634.118 480.887ZM639.429 475.629L580.954 457.356L573.796 480.263L632.27 498.536L639.429 475.629Z" fill="#E1E4E5"/>
<path d="M261.657 352.382C292.829 439.304 388.563 484.498 475.485 453.326C562.407 422.153 607.601 326.419 576.429 239.498C545.256 152.576 449.522 107.382 362.601 138.554C275.679 169.726 230.485 265.46 261.657 352.382Z" fill="#4F27AA"/>
<path d="M326.86 310.396V364.111C326.86 368.831 330.686 372.656 335.405 372.656H335.406C340.125 372.656 343.951 368.831 343.951 364.111V310.396C343.951 305.677 340.125 301.851 335.406 301.851H335.405C330.686 301.851 326.86 305.677 326.86 310.396Z" fill="white"/>
<path d="M374.47 285.978V364.109C374.47 368.829 378.296 372.654 383.015 372.654H383.016C387.735 372.654 391.561 368.829 391.561 364.109V285.978C391.561 281.259 387.735 277.433 383.016 277.433H383.015C378.296 277.433 374.47 281.259 374.47 285.978Z" fill="white"/>
<path d="M422.081 258.511V364.719C422.081 369.102 425.634 372.654 430.016 372.654C434.398 372.654 437.951 369.102 437.951 364.719V258.511C437.951 254.129 434.398 250.576 430.016 250.576C425.634 250.576 422.081 254.129 422.081 258.511Z" fill="white"/>
<path d="M468.968 224.339V364.606C468.968 369.051 472.571 372.654 477.016 372.654C481.461 372.654 485.064 369.051 485.064 364.606V224.339C485.064 219.894 481.461 216.291 477.016 216.291C472.571 216.291 468.968 219.894 468.968 224.339Z" fill="white"/>
<path d="M285.052 364.593C280.861 360.587 273.917 362.415 272.243 367.966L250.919 438.654C249.119 444.623 254.726 450.175 260.677 448.315L332.48 425.877C338.129 424.112 339.809 416.932 335.531 412.843L285.052 364.593Z" fill="#4F27AA"/>
</g>
</g>
</g>
<defs>
<linearGradient id="paint0_linear_1235_23765" x1="454.525" y1="715.745" x2="464.516" y2="-259.291" gradientUnits="userSpaceOnUse">
<stop stop-color="white"/>
<stop offset="1" stop-color="#EEEEEE"/>
</linearGradient>
<linearGradient id="paint1_linear_1235_23765" x1="595.769" y1="358.865" x2="490.578" y2="-113.817" gradientUnits="userSpaceOnUse">
<stop stop-color="white"/>
<stop offset="1" stop-color="#EEEEEE"/>
</linearGradient>
<linearGradient id="paint2_linear_1235_23765" x1="669.675" y1="300.798" x2="853.052" y2="155.745" gradientUnits="userSpaceOnUse">
<stop stop-color="white"/>
<stop offset="1" stop-color="#EEEEEE"/>
</linearGradient>
<linearGradient id="paint3_linear_1235_23765" x1="213.903" y1="391.225" x2="23.1719" y2="214.011" gradientUnits="userSpaceOnUse">
<stop stop-color="white"/>
<stop offset="1" stop-color="#EEEEEE"/>
</linearGradient>
<clipPath id="clip0_1235_23765">
<rect width="900" height="600" fill="white"/>
</clipPath>
</defs>
</svg>
