<svg width="900" height="600" viewBox="0 0 900 600" fill="none" xmlns="http://www.w3.org/2000/svg">
<g clip-path="url(#clip0_1235_17856)">
<path d="M157.151 349.225C153.257 420.978 293.539 566.879 466.446 512.876C546.864 487.758 540.052 446.067 601.201 391.122C637.65 358.374 690.019 333.611 704.585 286.009C717.168 244.922 709.451 200.759 687.637 172.034C638.576 107.433 539.532 63.1967 441.943 164.981C344.353 266.765 167.214 164.17 157.151 349.225V349.225Z" fill="url(#paint0_linear_1235_17856)"/>
<path d="M195.606 193.213C209.251 217.565 239.134 220.911 287.01 216.283C323.016 212.797 355.85 210.099 391.859 190.466C417.063 176.734 437.013 158.156 451.574 140.112C467.353 120.564 489.378 98.2551 478.581 76.0921C463.743 45.6451 377.939 20.0021 294.62 61.9361C203.095 108.014 182.258 169.413 195.606 193.213V193.213Z" fill="url(#paint1_linear_1235_17856)"/>
<path d="M543.362 494.931C575.15 450.46 607.705 403.194 650.327 379.914C694.289 355.889 702.397 370.696 705.44 394.236C708.483 417.776 694.92 473.551 634.923 505.284C574.911 537.028 513.618 536.552 543.362 494.931Z" fill="url(#paint2_linear_1235_17856)"/>
<path d="M613.83 372.237V522.781H399.096V500.193C399.096 479.174 379.121 471.607 331.906 474.783C294.135 477.324 282.271 462.532 281.06 454.818V358.17L247.011 346.827C249.584 282.093 274.16 142.914 351.882 104.073C449.034 55.523 537.691 77.528 596.125 164.421C639.227 228.516 624.12 323.988 613.83 372.237V372.237Z" fill="#4F27AA"/>
<path d="M706.011 211.781C715.4 211.781 723.011 219.169 723.011 228.281C723.011 237.394 715.4 244.781 706.011 244.781C696.622 244.781 689.011 237.394 689.011 228.281C689.011 219.169 696.622 211.781 706.011 211.781Z" fill="#2E2445"/>
<path d="M637.511 142.781C643.31 142.781 648.011 147.482 648.011 153.281C648.011 159.08 643.31 163.781 637.511 163.781C631.712 163.781 627.011 159.08 627.011 153.281C627.011 147.482 631.712 142.781 637.511 142.781Z" fill="#F8AE9D"/>
<path d="M160.512 402.781C173.491 402.781 184.012 413.303 184.012 426.281C184.012 439.26 173.491 449.781 160.512 449.781C147.533 449.781 137.012 439.26 137.012 426.281C137.012 413.303 147.533 402.781 160.512 402.781Z" fill="#4F27AA"/>
<path d="M184.012 329.781C190.087 329.781 195.012 334.93 195.012 341.281C195.012 347.633 190.087 352.781 184.012 352.781C177.937 352.781 173.012 347.633 173.012 341.281C173.012 334.93 177.937 329.781 184.012 329.781Z" fill="#F8AE9D"/>
<path d="M223.012 272.781C219.698 272.781 217.012 275.244 217.012 278.281C217.012 281.319 219.698 283.781 223.012 283.781C226.326 283.781 229.012 281.319 229.012 278.281C229.012 275.244 226.326 272.781 223.012 272.781Z" fill="#E1E4E5"/>
<path d="M251.512 476.781C257.863 476.781 263.012 481.93 263.012 488.281C263.012 494.633 257.863 499.781 251.512 499.781C245.161 499.781 240.012 494.633 240.012 488.281C240.012 481.93 245.161 476.781 251.512 476.781Z" fill="#E1E4E5"/>
<path d="M576.5 376C584.508 376 591 382.492 591 390.5C591 398.508 584.508 405 576.5 405C568.492 405 562 398.508 562 390.5C562 382.492 568.492 376 576.5 376Z" fill="#E1E4E5"/>
<path d="M357.012 283.781C366.953 283.781 375.012 275.722 375.012 265.781C375.012 255.84 366.953 247.781 357.012 247.781C347.071 247.781 339.012 255.84 339.012 265.781C339.012 275.722 347.071 283.781 357.012 283.781Z" fill="white"/>
<path d="M354.651 369.781L354.582 370.332C354.605 370.31 354.651 370.172 354.651 369.781ZM354.674 507.683C354.674 507.729 354.674 507.774 354.697 507.82C354.697 507.729 354.697 507.706 354.674 507.683ZM351.941 390.958V390.935C351.941 390.889 351.918 390.843 351.918 390.797L351.941 390.958ZM362.919 532.35L363.999 532.419C363.999 532.396 363.723 532.373 362.919 532.35ZM637 532.328C637.092 532.328 637.183 532.328 637.252 532.305C637.092 532.305 637.023 532.328 637 532.328ZM405.02 535.061H404.951C404.86 535.061 404.745 535.084 404.676 535.084L405.02 535.061Z" fill="#B1CBC0"/>
<path d="M637.682 529.044C623.192 529.413 619.358 530.978 604.317 530.334C597.153 530.426 589.507 530.149 582.503 529.965C579.174 528.768 573.318 529.965 569.369 528.952L567.853 529.597C566.498 529.228 564.914 529.044 563.536 529.412L563.628 529.597C561.607 529.136 559.311 529.412 558.324 529.136L558.416 529.32L555.959 529.228L556.372 529.505C552.836 528.952 549.208 528.952 545.993 529.136L546.269 528.307C539.403 529.228 536.9 527.57 530.723 528.584L530.815 528.768C522.985 526.649 518.461 530.241 510.401 528.215C511.412 528.492 509.965 528.584 510.057 528.86C506.337 528.676 502.388 528.492 502.319 526.926C499.609 526.926 500.114 527.386 499.77 528.031C499.793 527.386 497.428 527.018 495.315 527.018L496.28 527.294L490.218 527.018L491.412 525.728C488.197 526.097 490.585 527.294 487.531 527.018L487.577 525.913C483.145 526.097 480.527 527.755 476.234 528.584C458.369 529.044 439.172 526.281 422.571 528.215L421.836 529.044C421.514 530.241 417.243 527.294 416.623 528.399L414.694 527.847C414.143 528.031 412.995 528.307 413.96 528.584C412.169 528.676 412.123 528.399 410.837 528.123L408.908 528.86C401.859 529.412 395.865 528.031 388.449 528.307C379.539 529.781 362.754 528.399 353.087 527.663C339.493 525.913 323.695 530.61 309.78 528.584C309.32 528.768 308.149 528.399 308.172 528.215L295.428 528.399C295.428 528.399 233.683 528.86 280.595 519.005L280.273 518.729C287.254 518.084 291.639 517.992 296.439 519.281C297.196 517.715 302.156 519.097 303.787 518.636L303.626 518.544C307.874 519.742 312.374 517.531 316.485 518.636C316.324 518.544 316.232 518.084 315.291 518.084C318.276 518.268 322.363 518.637 322.593 517.715C329.734 517.992 339.677 517.531 344.246 519.005L343.925 518.729C346.519 519.742 347.3 518.913 350.216 519.373C350.377 519.281 350.584 519.189 350.538 519.097C353.385 520.11 358.827 519.281 361.1 519.65L361.238 519.005L366.887 519.189L364.774 519.281C365.509 520.939 369.045 518.176 373.133 519.281C376.967 519.097 380.917 522.781 384.889 521.952C386.795 522.781 383.213 520.663 386.06 521.307C386.152 520.386 384.729 520.755 385.464 520.018C388.242 520.479 390.033 519.097 393.477 519.742L393.615 519.097C398.093 520.386 402.065 518.176 405.05 519.373C409.666 519.926 408.15 517.347 412.972 518.636L414.855 517.715C416.922 517.531 416.325 518.821 418.621 518.36C418.483 517.808 421.514 517.9 420.16 517.347C425.326 516.426 430.653 518.636 437.473 517.071C438.943 518.176 442.387 517.531 443.489 518.36C443.673 517.9 450.355 518.268 446.52 517.163C446.199 517.071 445.602 517.071 445.648 517.255L445.188 516.61C449.069 515.321 452.238 517.347 456.096 517.071C454.947 517.255 453.432 517.255 454.442 517.715L458.024 517.623L457.29 517.071L462.617 516.702L461.882 517.439C464.477 517.071 465.395 515.873 468.335 516.886C469.666 517.439 465.878 517.808 468.61 518.084C472.1 517.623 477.313 516.887 481.744 516.702C481.331 517.531 482.525 517.439 483.765 517.623L483.903 516.979C488.61 517.9 485.625 515.505 490.309 516.242L489.896 515.781L491.136 517.255C495.361 518.636 493.409 515.873 498.094 517.715C496.234 517.623 497.221 519.189 499.494 518.913L498.92 518.268C500.183 518.452 500.596 518.729 501.446 518.544C500.688 518.176 501.056 517.623 502.916 517.715L501.676 516.886L505.189 518.084C507.899 517.347 512.192 518.268 513.318 517.347C513.318 517.347 519.15 516.886 520.482 517.9C519.311 517.255 522.526 516.979 521.607 516.242C523.123 516.979 527.577 517.531 529.368 516.794L529.024 516.702C535.637 515.873 540.321 517.808 546.246 516.794C545.97 517.623 549.116 517.163 548.335 518.176C554.466 519.189 559.518 516.058 561.745 519.281C564.547 519.465 565.052 518.544 566.498 518.36L565.832 518.176C571.068 518.452 572.583 518.452 576.464 518.36C578.393 518.636 578.714 520.11 582.182 519.742C581.056 519.189 582.48 519.281 583.766 519.281C582.939 519.189 582.687 519.005 584.386 518.544C584.616 518.729 585.006 518.821 585.35 518.913C585.373 518.913 585.442 518.821 585.396 518.729C587.555 518.913 587.187 519.097 586.177 519.189C586.223 519.281 586.154 519.373 585.833 519.558C588.083 518.821 592.101 519.65 592.377 518.636C598.898 518.913 603.56 519.926 608.979 520.294C609.599 519.742 608.313 519.281 606.751 519.097L610.609 519.281C610.586 518.544 608.405 518.821 607.211 518.729C611.803 517.531 616.671 519.926 622.044 518.821L623.169 519.373L623.491 519.281C623.468 519.558 624.685 520.018 625.466 520.11C626.223 519.465 625.42 518.636 628.083 518.636C630.196 517.992 634.053 518.913 636.809 519.281C635.316 519.373 635.799 519.742 636.442 520.018C637.773 520.018 638.531 519.373 639.564 519.65L639.702 518.821C639.174 519.65 643.17 519.742 643.675 520.018C644.432 519.373 641.608 519.465 641.287 519.005C646.614 519.097 643.95 519.005 649.3 519.097C652.148 519.742 648.772 519.926 650.15 520.663C652.653 520.847 655.11 521.4 658.003 520.939L657.085 521.676C661.815 522.321 664.639 522.228 667.808 521.4C702.986 527.663 675.225 529.965 675.225 529.965C661.31 531.899 654.168 529.689 637.682 529.044V529.044Z" fill="#4F27AA"/>
<path d="M626.825 420.795L626.135 421.323C626.158 421.346 626.342 421.208 626.825 420.795ZM453.231 434.415L453.093 434.576C453.185 434.484 453.231 434.438 453.231 434.415ZM599.929 441.696L599.975 441.673L600.113 441.512L599.929 441.696V441.696Z" fill="#B1CBC0"/>
<path d="M446 477C447.857 477 449.637 476.262 450.95 474.95C452.262 473.637 453 471.857 453 470C453 468.143 452.262 466.363 450.95 465.05C449.637 463.738 447.857 463 446 463C444.143 463 442.363 463.738 441.05 465.05C439.738 466.363 439 468.143 439 470C439 471.857 439.738 473.637 441.05 474.95C442.363 476.262 444.143 477 446 477V477Z" fill="white"/>
<path d="M518.5 463C526.508 463 533 456.508 533 448.5C533 440.492 526.508 434 518.5 434C510.492 434 504 440.492 504 448.5C504 456.508 510.492 463 518.5 463Z" fill="#2E2445"/>
</g>
<defs>
<linearGradient id="paint0_linear_1235_17856" x1="324.818" y1="779.323" x2="587.223" y2="-404.56" gradientUnits="userSpaceOnUse">
<stop stop-color="white"/>
<stop offset="1" stop-color="#EEEEEE"/>
</linearGradient>
<linearGradient id="paint1_linear_1235_17856" x1="287.527" y1="351.037" x2="409.146" y2="-195.471" gradientUnits="userSpaceOnUse">
<stop stop-color="white"/>
<stop offset="1" stop-color="#EEEEEE"/>
</linearGradient>
<linearGradient id="paint2_linear_1235_17856" x1="578.857" y1="640.92" x2="683.151" y2="158.612" gradientUnits="userSpaceOnUse">
<stop stop-color="white"/>
<stop offset="1" stop-color="#EEEEEE"/>
</linearGradient>
<clipPath id="clip0_1235_17856">
<rect width="900" height="600" fill="white"/>
</clipPath>
</defs>
</svg>
