<svg width="900" height="600" viewBox="0 0 900 600" fill="none" xmlns="http://www.w3.org/2000/svg">
<g clip-path="url(#clip0_1235_23797)">
<path fill-rule="evenodd" clip-rule="evenodd" d="M148.503 232.954H331.977C349.2 232.954 348.41 218.699 342.784 213.732C337.018 208.641 325.625 210.706 325.625 210.706C325.625 210.706 322.233 201.118 311.069 196.45C301.193 192.321 290.848 194.286 290.848 194.286C290.848 194.286 290.848 187.706 284.525 182.256C278.201 176.806 269.77 177.336 269.77 177.336C269.77 177.336 263.975 141.051 225.245 141.051C186.516 141.051 182.037 175.216 182.037 175.216C182.037 175.216 173.342 175.216 167.019 181.044C160.696 186.87 159.905 193.491 159.905 193.491C159.905 193.491 138.759 190.627 132.504 208.964C128.778 219.894 136.435 232.954 148.503 232.954ZM141.947 377.954H325.421C342.644 377.954 341.853 363.7 336.228 358.733C330.462 353.642 319.069 355.707 319.069 355.707C319.069 355.707 315.677 346.119 304.513 341.451C294.637 337.322 284.292 339.287 284.292 339.287C284.292 339.287 284.292 332.706 277.969 327.257C271.645 321.806 263.214 322.336 263.214 322.336C263.214 322.336 257.418 286.051 218.689 286.051C179.959 286.051 175.481 320.217 175.481 320.217C175.481 320.217 166.786 320.217 160.463 326.044C154.14 331.871 153.349 338.492 153.349 338.492C153.349 338.492 132.202 335.627 125.948 353.965C122.221 364.894 129.879 377.954 141.947 377.954Z" fill="white" stroke="#E1E4E5" stroke-width="4"/>
<path fill-rule="evenodd" clip-rule="evenodd" d="M438.401 300.529C406.015 247.188 410.632 179.252 449.936 130.783C451.204 129.023 451.948 126.94 452.082 124.775C452.216 122.61 451.734 120.452 450.692 118.549C449.651 116.647 448.092 115.078 446.197 114.024C444.301 112.97 442.146 112.474 439.98 112.594C406.177 113.464 373.222 123.365 344.538 141.272C256.159 194.947 228.013 310.096 281.666 398.488C337.646 485.424 453.496 510.533 540.446 454.574C569.111 436.64 592.447 411.353 608.026 381.343C609.085 379.446 609.584 377.288 609.466 375.119C609.349 372.95 608.618 370.859 607.36 369.088C606.103 367.317 604.368 365.939 602.359 365.113C600.35 364.288 598.148 364.049 596.008 364.424C535.251 378.539 472.176 352.968 438.401 300.529Z" fill="#4F27AA"/>
<path fill-rule="evenodd" clip-rule="evenodd" d="M712.25 474.961H520.085C502.046 474.961 502.874 459.916 508.766 454.673C514.805 449.3 526.738 451.48 526.738 451.48C526.738 451.48 530.29 441.36 541.984 436.433C552.327 432.075 563.162 434.149 563.162 434.149C563.162 434.149 563.162 427.204 569.785 421.452C576.408 415.699 585.238 416.258 585.238 416.258C585.238 416.258 591.309 377.961 631.873 377.961C672.437 377.961 677.128 414.021 677.128 414.021C677.128 414.021 686.234 414.021 692.858 420.172C699.48 426.322 700.308 433.309 700.308 433.309C700.308 433.309 722.456 430.286 729.007 449.641C732.91 461.176 724.89 474.961 712.25 474.961Z" fill="white" stroke="#E1E4E5" stroke-width="4"/>
<path d="M509.722 232H509.879C510.809 245.68 520.605 245.89 520.605 245.89C520.605 245.89 509.803 246.109 509.803 261.916C509.803 246.109 499 245.89 499 245.89C499 245.89 508.792 245.68 509.722 232ZM493.722 280H493.879C494.809 293.68 504.605 293.89 504.605 293.89C504.605 293.89 493.803 294.109 493.803 309.916C493.803 294.109 483 293.89 483 293.89C483 293.89 492.792 293.68 493.722 280ZM269.722 414H269.879C270.809 427.68 280.605 427.89 280.605 427.89C280.605 427.89 269.803 428.109 269.803 443.916C269.803 428.109 259 427.89 259 427.89C259 427.89 268.792 427.68 269.722 414ZM308.722 482.961H308.879C309.809 496.64 319.605 496.851 319.605 496.851C319.605 496.851 308.803 497.07 308.803 512.876C308.803 497.07 298 496.851 298 496.851C298 496.851 307.792 496.64 308.722 482.961ZM587.722 483H587.879C588.809 496.68 598.605 496.89 598.605 496.89C598.605 496.89 587.803 497.109 587.803 512.916C587.803 497.109 577 496.89 577 496.89C577 496.89 586.792 496.68 587.722 483ZM181.722 417.886H181.879C182.809 431.565 192.605 431.776 192.605 431.776C192.605 431.776 181.803 431.995 181.803 447.801C181.803 431.995 171 431.776 171 431.776C171 431.776 180.792 431.565 181.722 417.886ZM234.722 455.886H234.879C235.809 469.565 245.605 469.776 245.605 469.776C245.605 469.776 234.803 469.995 234.803 485.801C234.803 469.995 224 469.776 224 469.776C224 469.776 233.792 469.565 234.722 455.886ZM448.722 247H448.879C449.809 260.68 459.605 260.89 459.605 260.89C459.605 260.89 448.803 261.109 448.803 276.916C448.803 261.109 438 260.89 438 260.89C438 260.89 447.792 260.68 448.722 247ZM467.722 187H467.879C468.809 200.68 478.605 200.89 478.605 200.89C478.605 200.89 467.803 201.109 467.803 216.916C467.803 201.109 457 200.89 457 200.89C457 200.89 466.792 200.68 467.722 187ZM504.722 156H504.879C505.809 169.68 515.605 169.89 515.605 169.89C515.605 169.89 504.803 170.109 504.803 185.916C504.803 170.109 494 169.89 494 169.89C494 169.89 503.792 169.68 504.722 156Z" fill="#E1E4E5"/>
<path fill-rule="evenodd" clip-rule="evenodd" d="M594.432 219.342H542.811C538.195 219.342 536.207 213.32 539.984 210.65C540.036 210.611 540.09 210.573 540.144 210.536C545.521 206.812 552.579 207.151 552.579 207.151C552.579 207.151 553.586 187 572.574 187C589.741 187 596.587 203.978 599.056 213.332C599.858 216.371 597.553 219.342 594.432 219.342ZM698.784 257.302H750.406C755.021 257.302 757.01 251.281 753.233 248.61L753.073 248.497C747.696 244.773 740.638 245.111 740.638 245.111C740.638 245.111 739.631 224.961 720.643 224.961C703.476 224.961 696.63 241.939 694.161 251.292C693.359 254.331 695.664 257.302 698.784 257.302ZM718.784 378.301H770.406C775.021 378.301 777.01 372.28 773.233 369.61C773.181 369.571 773.127 369.533 773.073 369.496C767.696 365.772 760.638 366.11 760.638 366.11C760.638 366.11 759.631 345.96 740.643 345.96C723.476 345.96 716.63 362.938 714.161 372.292C713.359 375.331 715.664 378.301 718.784 378.301ZM574.215 324.602H697.107C707.056 324.602 711.347 312.008 703.202 306.42L702.857 306.185C691.263 298.394 676.047 299.102 676.047 299.102C676.047 299.102 673.873 256.961 632.933 256.961C612.692 256.961 596.335 290.781 596.335 290.781C596.335 290.781 568.8 290.781 564.243 312.03C562.866 318.468 567.484 324.602 574.215 324.602Z" fill="white" stroke="#E1E4E5" stroke-width="4"/>
</g>
<defs>
<clipPath id="clip0_1235_23797">
<rect width="900" height="600" fill="white"/>
</clipPath>
</defs>
</svg>
