<svg width="900" height="600" viewBox="0 0 900 600" fill="none" xmlns="http://www.w3.org/2000/svg">
<g clip-path="url(#clip0_1235_23818)">
<path fill-rule="evenodd" clip-rule="evenodd" d="M695.131 135.743L625.309 65.8599C620.726 61.2716 615.284 57.6311 609.294 55.1464C603.304 52.6617 596.883 51.3815 590.398 51.3789H413.326C386.044 51.3789 363.947 73.4949 363.947 100.801V446.759C363.947 474.065 386.044 496.182 413.326 496.182H660.22C687.502 496.182 709.599 474.065 709.599 446.759V170.685C709.595 157.581 704.392 145.014 695.131 135.743Z" fill="white" stroke="#E1E4E5" stroke-width="4"/>
<path d="M631.146 356.846H443.772C436.873 356.846 431.28 362.438 431.28 369.337C431.28 376.236 436.873 381.829 443.772 381.829H631.146C638.045 381.829 643.638 376.236 643.638 369.337C643.638 362.438 638.045 356.846 631.146 356.846Z" fill="#E1E4E5"/>
<path d="M631.146 307.244H443.772C436.873 307.244 431.28 312.837 431.28 319.736C431.28 326.635 436.873 332.227 443.772 332.227H631.146C638.045 332.227 643.638 326.635 643.638 319.736C643.638 312.837 638.045 307.244 631.146 307.244Z" fill="#E1E4E5"/>
<path d="M631.146 257.521H443.772C436.873 257.521 431.28 263.114 431.28 270.013C431.28 276.912 436.873 282.504 443.772 282.504H631.146C638.045 282.504 643.638 276.912 643.638 270.013C643.638 263.114 638.045 257.521 631.146 257.521Z" fill="#E1E4E5"/>
<path d="M631.146 207.799H443.772C436.873 207.799 431.28 213.391 431.28 220.29C431.28 227.189 436.873 232.782 443.772 232.782H631.146C638.045 232.782 643.638 227.189 643.638 220.29C643.638 213.391 638.045 207.799 631.146 207.799Z" fill="#E1E4E5"/>
<path d="M631.146 158.076H443.772C436.873 158.076 431.28 163.669 431.28 170.568C431.28 177.467 436.873 183.059 443.772 183.059H631.146C638.045 183.059 643.638 177.467 643.638 170.568C643.638 163.669 638.045 158.076 631.146 158.076Z" fill="#E1E4E5"/>
<path d="M631.146 406.812H443.772C436.873 406.812 431.28 412.405 431.28 419.304C431.28 426.203 436.873 431.796 443.772 431.796H631.146C638.045 431.796 643.638 426.203 643.638 419.304C643.638 412.405 638.045 406.812 631.146 406.812Z" fill="#E1E4E5"/>
<path fill-rule="evenodd" clip-rule="evenodd" d="M519.029 188.573L449.207 118.69C444.624 114.102 439.182 110.461 433.192 107.976C427.202 105.492 420.781 104.212 414.296 104.209H237.224C209.942 104.209 187.845 126.326 187.845 153.632V499.59C187.845 526.896 209.942 549.012 237.224 549.012H484.118C511.4 549.012 533.497 526.896 533.497 499.59V223.515C533.493 210.411 528.29 197.844 519.029 188.573Z" fill="white" stroke="#E1E4E5" stroke-width="4"/>
<path fill-rule="evenodd" clip-rule="evenodd" d="M282.66 353.965V365.715C282.66 372.202 287.855 377.466 294.256 377.466H433.409C439.81 377.466 445.005 372.202 445.005 365.715V353.777C445.005 318.219 404.906 295.117 363.832 295.117C322.759 295.117 282.66 318.231 282.66 353.777M334.718 191.888C318.639 207.968 318.639 234.038 334.718 250.118C350.798 266.197 376.868 266.197 392.948 250.118C409.027 234.038 409.027 207.968 392.948 191.888C376.868 175.808 350.798 175.808 334.718 191.888Z" fill="#4F27AA"/>
<path d="M455.044 409.676H267.67C260.771 409.676 255.178 415.268 255.178 422.167C255.178 429.066 260.771 434.659 267.67 434.659H455.044C461.943 434.659 467.536 429.066 467.536 422.167C467.536 415.268 461.943 409.676 455.044 409.676Z" fill="#E1E4E5"/>
<path d="M455.044 459.643H267.67C260.771 459.643 255.178 465.235 255.178 472.134C255.178 479.033 260.771 484.626 267.67 484.626H455.044C461.943 484.626 467.536 479.033 467.536 472.134C467.536 465.235 461.943 459.643 455.044 459.643Z" fill="#E1E4E5"/>
<path d="M755.318 482.135C745.284 484.512 734.672 476.003 734.672 476.003C734.672 476.003 740.335 463.645 750.372 461.275C760.406 458.898 771.014 467.4 771.014 467.4C771.014 467.4 765.351 479.758 755.318 482.135Z" fill="url(#paint0_linear_1235_23818)"/>
<path d="M223.522 373.346C217.61 374.747 211.357 369.733 211.357 369.733C211.357 369.733 214.694 362.45 220.608 361.054C226.52 359.653 232.771 364.663 232.771 364.663C232.771 364.663 229.434 371.945 223.522 373.346Z" fill="url(#paint1_linear_1235_23818)"/>
<path d="M305.996 161.146C316.202 159.082 322.335 146.792 322.335 146.792C322.335 146.792 311.916 137.854 301.71 139.925C291.504 141.988 285.371 154.271 285.371 154.271C285.371 154.271 295.79 163.209 305.996 161.146Z" fill="url(#paint2_linear_1235_23818)"/>
<path d="M701.853 142.537C697.163 142.537 693.361 146.174 693.361 150.66C693.361 155.146 697.163 158.783 701.853 158.783C706.543 158.783 710.345 155.146 710.345 150.66C710.345 146.174 706.543 142.537 701.853 142.537Z" fill="#4F27AA"/>
<path d="M501.035 508.208C496.265 508.208 492.398 512.075 492.398 516.845C492.398 521.616 496.265 525.482 501.035 525.482C505.805 525.482 509.672 521.616 509.672 516.845C509.672 512.075 505.805 508.208 501.035 508.208Z" fill="#4F27AA"/>
<path d="M244.354 217.901C238.461 217.901 233.683 213.123 233.683 207.23C233.683 201.336 238.461 196.559 244.354 196.559C250.247 196.559 255.025 201.336 255.025 207.23C255.025 213.123 250.247 217.901 244.354 217.901Z" fill="#4F27AA"/>
<path d="M664.874 461.942C661.728 461.942 659.177 459.49 659.177 456.464C659.177 453.439 661.728 450.986 664.874 450.986C668.02 450.986 670.571 453.439 670.571 456.464C670.571 459.49 668.02 461.942 664.874 461.942Z" fill="#E1E4E5"/>
<path d="M473.727 296.836C467.448 296.836 462.357 291.745 462.357 285.466C462.357 279.186 467.448 274.096 473.727 274.096C480.006 274.096 485.097 279.186 485.097 285.466C485.097 291.745 480.006 296.836 473.727 296.836Z" fill="#E1E4E5"/>
<path d="M592.879 534.662C590.59 534.662 588.735 532.683 588.735 530.242C588.735 527.801 590.59 525.822 592.879 525.822C595.168 525.822 597.023 527.801 597.023 530.242C597.023 532.683 595.168 534.662 592.879 534.662Z" fill="#E1E4E5"/>
<path d="M519.71 98.7497C514.352 98.7497 510.009 94.4064 510.009 89.0487C510.009 83.6909 514.352 79.3477 519.71 79.3477C525.068 79.3477 529.411 83.6909 529.411 89.0487C529.411 94.4064 525.068 98.7497 519.71 98.7497Z" fill="#E1E4E5"/>
<path d="M230.366 470.748C231.721 475.805 228.72 481.003 223.663 482.358C218.606 483.713 213.407 480.712 212.052 475.655C210.697 470.598 213.698 465.4 218.756 464.044C223.813 462.689 229.011 465.691 230.366 470.748Z" fill="#E1E4E5"/>
<path d="M631.466 110.718C632.429 114.312 630.296 118.007 626.701 118.97C623.107 119.933 619.412 117.8 618.449 114.206C617.486 110.611 619.619 106.916 623.213 105.953C626.808 104.99 630.502 107.123 631.466 110.718Z" fill="#E1E4E5"/>
</g>
<defs>
<linearGradient id="paint0_linear_1235_23818" x1="717.534" y1="488.045" x2="805.368" y2="446.55" gradientUnits="userSpaceOnUse">
<stop stop-color="white"/>
<stop offset="1" stop-color="#EEEEEE"/>
</linearGradient>
<linearGradient id="paint1_linear_1235_23818" x1="201.258" y1="376.829" x2="253.014" y2="352.377" gradientUnits="userSpaceOnUse">
<stop stop-color="white"/>
<stop offset="1" stop-color="#EEEEEE"/>
</linearGradient>
<linearGradient id="paint2_linear_1235_23818" x1="343.143" y1="150.588" x2="245.051" y2="149.678" gradientUnits="userSpaceOnUse">
<stop stop-color="white"/>
<stop offset="1" stop-color="#EEEEEE"/>
</linearGradient>
<clipPath id="clip0_1235_23818">
<rect width="900" height="600" fill="white"/>
</clipPath>
</defs>
</svg>
