<svg width="900" height="600" viewBox="0 0 900 600" fill="none" xmlns="http://www.w3.org/2000/svg">
<g clip-path="url(#clip0_1235_23843)">
<path fill-rule="evenodd" clip-rule="evenodd" d="M345.952 121.43H299.945C274.526 121.43 253.938 142.018 253.938 167.437V489.487C253.938 514.906 274.526 535.494 299.945 535.494H575.987C601.406 535.494 621.995 514.906 621.995 489.487V466.483" fill="white"/>
<path d="M345.952 121.43H299.945C274.526 121.43 253.938 142.018 253.938 167.437V489.487C253.938 514.906 274.526 535.494 299.945 535.494H575.987C601.406 535.494 621.995 514.906 621.995 489.487V466.483" stroke="#E1E4E5" stroke-width="4"/>
<path fill-rule="evenodd" clip-rule="evenodd" d="M495.475 155.935H380.457C361.411 155.935 345.952 140.476 345.952 121.429C345.952 102.382 361.411 86.9238 380.457 86.9238H495.475C514.522 86.9238 529.98 102.382 529.98 121.429C529.98 140.476 514.522 155.935 495.475 155.935Z" fill="white" stroke="#E1E4E5" stroke-width="4"/>
<path d="M345.952 236.447H483.973" stroke="#E1E4E5" stroke-width="6.462"/>
<path d="M345.952 328.461H437.966" stroke="#E1E4E5" stroke-width="6.462"/>
<path d="M345.952 419.695H437.966" stroke="#E1E4E5" stroke-width="6.462"/>
<path fill-rule="evenodd" clip-rule="evenodd" d="M529.98 121.43H575.988C601.406 121.43 621.995 142.018 621.995 167.437" fill="white"/>
<path d="M529.98 121.43H575.988C601.406 121.43 621.995 142.018 621.995 167.437" stroke="#E1E4E5" stroke-width="4"/>
<path fill-rule="evenodd" clip-rule="evenodd" d="M492.963 279.912V439.732C492.963 457.312 507.347 471.696 524.927 471.696H748.675C766.256 471.696 780.639 457.312 780.639 439.732V279.912" fill="#E1E4E5"/>
<path d="M492.963 279.912V439.732C492.963 457.312 507.347 471.696 524.927 471.696H748.675C766.256 471.696 780.64 457.312 780.64 439.732V279.912" stroke="#E1E4E5" stroke-width="4.532"/>
<path fill-rule="evenodd" clip-rule="evenodd" d="M502.359 462.298L599.753 364.904L502.359 462.298Z" fill="white"/>
<path d="M502.359 462.298L599.753 364.904" stroke="white" stroke-width="4.532"/>
<path fill-rule="evenodd" clip-rule="evenodd" d="M674.52 365.576L771.243 462.299L674.52 365.576Z" fill="white"/>
<path d="M674.52 365.576L771.243 462.299" stroke="white" stroke-width="4.532"/>
<path fill-rule="evenodd" clip-rule="evenodd" d="M492.963 276.716C492.963 286.306 497.758 294.297 505.749 300.689L601.641 366.216C624.016 380.599 651.185 380.599 673.56 366.216L769.452 302.288C775.845 294.297 780.64 286.306 780.64 276.716C780.656 272.934 779.922 269.186 778.482 265.689C777.042 262.192 774.924 259.014 772.249 256.34C769.575 253.665 766.397 251.547 762.9 250.107C759.402 248.667 755.654 247.934 751.872 247.949H521.731C517.949 247.934 514.201 248.667 510.703 250.107C507.206 251.547 504.028 253.665 501.354 256.34C498.679 259.014 496.561 262.192 495.121 265.689C493.681 269.186 492.947 272.934 492.963 276.716Z" fill="white" stroke="#E1E4E5" stroke-width="4.532"/>
<path fill-rule="evenodd" clip-rule="evenodd" d="M636.973 311.75C588.986 311.75 550.075 272.839 550.075 224.853C550.075 177.851 590.048 137.916 637.031 137.955C684.999 137.993 723.871 176.885 723.871 224.853C723.871 272.839 684.979 311.75 636.973 311.75Z" fill="#4F27AA"/>
<path d="M668.172 210.289L629.348 249.245L606.053 225.856" stroke="white" stroke-width="20.624" stroke-linecap="round" stroke-linejoin="round"/>
<path d="M180.393 242.673C199.459 215.168 237.214 208.326 264.72 227.393C292.225 246.459 299.067 284.214 280 311.72C260.934 339.226 223.179 346.067 195.673 327C168.168 307.934 161.326 270.179 180.393 242.673Z" fill="#4F27AA"/>
<path d="M194.313 311.471C195.322 313.314 194.03 315.573 191.93 315.638L165.183 316.473C162.925 316.543 161.507 314.059 162.716 312.15L177.307 289.118C178.455 287.306 181.126 287.391 182.156 289.273L194.313 311.471Z" fill="#4F27AA"/>
<path d="M248.883 279.674C248.961 284.165 252.664 287.726 257.155 287.647C261.645 287.568 265.206 283.865 265.127 279.375C265.049 274.884 261.346 271.323 256.855 271.402C252.365 271.497 248.804 275.184 248.883 279.674ZM220.663 280.871C221.12 285.33 225.122 288.576 229.581 288.119C234.04 287.662 237.286 283.66 236.829 279.201C236.372 274.742 232.37 271.496 227.911 271.953C223.452 272.426 220.206 276.412 220.663 280.871ZM194.129 281.36C194.586 285.819 198.588 289.065 203.047 288.608C207.506 288.151 210.752 284.149 210.295 279.69C209.838 275.231 205.836 271.985 201.377 272.442C196.918 272.899 193.672 276.885 194.129 281.36Z" fill="white"/>
<path d="M257.393 376.673C276.46 349.168 314.214 342.326 341.72 361.393C369.226 380.459 376.067 418.214 357 445.72C337.934 473.226 300.179 480.067 272.674 461C245.168 441.934 238.326 404.179 257.393 376.673Z" fill="#4F27AA"/>
<path d="M271.313 445.471C272.322 447.314 271.03 449.573 268.93 449.638L242.183 450.473C239.925 450.543 238.507 448.059 239.716 446.15L254.307 423.118C255.455 421.306 258.126 421.391 259.156 423.273L271.313 445.471Z" fill="#4F27AA"/>
<path d="M325.883 413.674C325.961 418.165 329.664 421.726 334.155 421.647C338.645 421.568 342.206 417.865 342.127 413.375C342.049 408.884 338.346 405.323 333.855 405.402C329.365 405.497 325.804 409.184 325.883 413.674ZM297.663 414.871C298.12 419.33 302.122 422.576 306.581 422.119C311.04 421.662 314.286 417.66 313.829 413.201C313.372 408.742 309.37 405.496 304.911 405.953C300.452 406.426 297.206 410.412 297.663 414.871ZM271.129 415.36C271.586 419.819 275.588 423.065 280.047 422.608C284.506 422.151 287.752 418.149 287.295 413.69C286.838 409.231 282.836 405.985 278.377 406.442C273.918 406.899 270.672 410.885 271.129 415.36Z" fill="white"/>
<path fill-rule="evenodd" clip-rule="evenodd" d="M167.86 494.388H171.769C172.714 494.388 173.475 495.157 173.475 496.094V500.002C173.475 500.947 172.706 501.708 171.769 501.708H167.86C167.408 501.706 166.975 501.525 166.656 501.206C166.337 500.886 166.157 500.453 166.155 500.002V496.094C166.154 495.87 166.198 495.648 166.284 495.44C166.369 495.233 166.495 495.045 166.653 494.887C166.812 494.728 167 494.602 167.207 494.517C167.414 494.431 167.636 494.387 167.86 494.388ZM181.411 494.388H185.319C186.256 494.388 187.025 495.157 187.025 496.094V500.002C187.025 500.947 186.256 501.708 185.319 501.708H181.411C180.959 501.706 180.526 501.526 180.206 501.206C179.887 500.887 179.707 500.454 179.705 500.002V496.094C179.705 495.157 180.473 494.388 181.411 494.388ZM194.971 494.388H198.879C199.816 494.388 200.585 495.157 200.585 496.094V500.002C200.585 500.947 199.816 501.708 198.879 501.708H194.971C194.519 501.706 194.086 501.526 193.767 501.206C193.447 500.886 193.267 500.454 193.265 500.002V496.094C193.264 495.869 193.308 495.647 193.394 495.44C193.479 495.233 193.605 495.045 193.764 494.886C193.922 494.728 194.11 494.602 194.318 494.516C194.525 494.431 194.747 494.387 194.971 494.388ZM208.521 494.388H212.43C213.367 494.388 214.135 495.157 214.135 496.094V500.002C214.135 500.947 213.367 501.708 212.43 501.708H208.521C208.068 501.708 207.633 501.528 207.312 501.208C206.991 500.889 206.809 500.455 206.807 500.002V496.094C206.812 495.641 206.994 495.209 207.315 494.89C207.636 494.571 208.069 494.391 208.521 494.388ZM222.073 494.388H225.982C226.927 494.388 227.696 495.157 227.696 496.094V500.002C227.696 500.948 226.927 501.708 225.982 501.708H222.073C221.621 501.706 221.188 501.526 220.869 501.206C220.549 500.886 220.369 500.454 220.367 500.002V496.094C220.367 495.157 221.136 494.388 222.073 494.388ZM181.908 509.165H185.816C186.753 509.165 187.522 509.934 187.522 510.871V514.787C187.522 515.724 186.753 516.493 185.816 516.493H181.908C181.456 516.492 181.022 516.312 180.702 515.992C180.382 515.673 180.203 515.239 180.202 514.787V510.879C180.201 510.654 180.244 510.431 180.329 510.223C180.414 510.015 180.54 509.826 180.698 509.667C180.857 509.507 181.045 509.381 181.253 509.295C181.461 509.209 181.683 509.164 181.908 509.165ZM195.459 509.165H199.367C200.304 509.165 201.073 509.934 201.073 510.871V514.787C201.073 515.724 200.304 516.493 199.367 516.493H195.459C195.007 516.491 194.574 516.311 194.255 515.991C193.935 515.671 193.755 515.239 193.753 514.787V510.879C193.752 510.654 193.795 510.431 193.88 510.223C193.965 510.015 194.091 509.826 194.249 509.667C194.408 509.507 194.596 509.381 194.804 509.295C195.012 509.209 195.234 509.164 195.459 509.165ZM209.01 509.165H212.919C213.864 509.165 214.633 509.934 214.633 510.871V514.787C214.633 515.724 213.864 516.493 212.919 516.493H209.01C208.558 516.491 208.125 516.311 207.806 515.991C207.486 515.671 207.306 515.239 207.304 514.787V510.879C207.304 509.934 208.073 509.165 209.01 509.165ZM194.971 478.514H198.879C199.816 478.514 200.585 479.283 200.585 480.22V484.128C200.585 485.073 199.816 485.834 198.879 485.834H194.971C194.519 485.832 194.086 485.652 193.767 485.332C193.447 485.012 193.267 484.58 193.265 484.128V480.22C193.264 479.995 193.308 479.773 193.394 479.566C193.479 479.359 193.605 479.171 193.764 479.012C193.922 478.854 194.11 478.728 194.318 478.642C194.525 478.557 194.747 478.513 194.971 478.514ZM208.521 478.514H212.43C213.367 478.514 214.135 479.283 214.135 480.22V484.128C214.135 485.073 213.367 485.834 212.43 485.834H208.521C208.068 485.834 207.633 485.654 207.312 485.334C206.991 485.015 206.809 484.581 206.807 484.128V480.22C206.812 479.767 206.994 479.335 207.315 479.016C207.636 478.697 208.069 478.517 208.521 478.514Z" fill="#E1E4E5"/>
<path d="M738.999 517.428C728.387 519.941 717.164 510.942 717.164 510.942C717.164 510.942 723.153 497.871 733.769 495.365C744.38 492.851 755.6 501.843 755.6 501.843C755.6 501.843 749.611 514.914 738.999 517.428Z" fill="url(#paint0_linear_1235_23843)"/>
<path d="M154.015 369.941C147.762 371.423 141.148 366.12 141.148 366.12C141.148 366.12 144.678 358.418 150.933 356.941C157.186 355.46 163.797 360.758 163.797 360.758C163.797 360.758 160.268 368.46 154.015 369.941Z" fill="url(#paint1_linear_1235_23843)"/>
<path d="M230.422 139.958C236.608 130.846 232.148 117.02 232.148 117.02C232.148 117.02 217.66 117.976 211.481 127.094C205.295 136.205 209.749 150.024 209.749 150.024C209.749 150.024 224.237 149.069 230.422 139.958Z" fill="url(#paint2_linear_1235_23843)"/>
<path d="M659.532 494.377C654.572 494.377 650.551 498.223 650.551 502.968C650.551 507.712 654.572 511.559 659.532 511.559C664.492 511.559 668.513 507.712 668.513 502.968C668.513 498.223 664.492 494.377 659.532 494.377Z" fill="#4F27AA"/>
<path d="M466.139 485.916C461.094 485.916 457.004 490.005 457.004 495.051C457.004 500.096 461.094 504.186 466.139 504.186C471.184 504.186 475.274 500.096 475.274 495.051C475.274 490.005 471.184 485.916 466.139 485.916Z" fill="#4F27AA"/>
<path d="M176.047 205.539C169.814 205.539 164.761 200.486 164.761 194.253C164.761 188.02 169.814 182.967 176.047 182.967C182.28 182.967 187.333 188.02 187.333 194.253C187.333 200.486 182.28 205.539 176.047 205.539Z" fill="#4F27AA"/>
<path d="M620.804 463.645C617.476 463.645 614.778 461.051 614.778 457.851C614.778 454.651 617.476 452.057 620.804 452.057C624.132 452.057 626.83 454.651 626.83 457.851C626.83 461.051 624.132 463.645 620.804 463.645Z" fill="#E1E4E5"/>
<path d="M415.945 286.328C410.792 286.328 406.615 282.151 406.615 276.998C406.615 271.845 410.792 267.668 415.945 267.668C421.098 267.668 425.275 271.845 425.275 276.998C425.275 282.151 421.098 286.328 415.945 286.328Z" fill="#E1E4E5"/>
<path d="M544.659 540.557C542.239 540.557 540.277 538.464 540.277 535.882C540.277 533.3 542.239 531.207 544.659 531.207C547.079 531.207 549.041 533.3 549.041 535.882C549.041 538.464 547.079 540.557 544.659 540.557Z" fill="#E1E4E5"/>
<path d="M467.273 79.52C461.607 79.52 457.013 74.9264 457.013 69.26C457.013 63.5936 461.607 59 467.273 59C472.939 59 477.533 63.5936 477.533 69.26C477.533 74.9264 472.939 79.52 467.273 79.52Z" fill="#E1E4E5"/>
<path d="M208.277 412.109C209.093 415.155 207.286 418.286 204.239 419.102C201.193 419.918 198.062 418.11 197.246 415.064C196.43 412.018 198.238 408.887 201.284 408.071C204.33 407.255 207.461 409.062 208.277 412.109Z" fill="#E1E4E5"/>
<path d="M585.471 92.1774C586.49 95.9794 584.234 99.8874 580.432 100.906C576.63 101.925 572.722 99.6686 571.703 95.8666C570.684 92.0646 572.94 88.1566 576.742 87.1378C580.544 86.1191 584.452 88.3754 585.471 92.1774Z" fill="#E1E4E5"/>
</g>
<defs>
<linearGradient id="paint0_linear_1235_23843" x1="699.038" y1="523.678" x2="791.934" y2="479.791" gradientUnits="userSpaceOnUse">
<stop stop-color="white"/>
<stop offset="1" stop-color="#EEEEEE"/>
</linearGradient>
<linearGradient id="paint1_linear_1235_23843" x1="130.468" y1="373.625" x2="185.207" y2="347.764" gradientUnits="userSpaceOnUse">
<stop stop-color="white"/>
<stop offset="1" stop-color="#EEEEEE"/>
</linearGradient>
<linearGradient id="paint2_linear_1235_23843" x1="250.68" y1="104.491" x2="175.883" y2="176.389" gradientUnits="userSpaceOnUse">
<stop stop-color="white"/>
<stop offset="1" stop-color="#EEEEEE"/>
</linearGradient>
<clipPath id="clip0_1235_23843">
<rect width="900" height="600" fill="white"/>
</clipPath>
</defs>
</svg>
