<svg width="900" height="600" viewBox="0 0 900 600" fill="none" xmlns="http://www.w3.org/2000/svg">
<g clip-path="url(#clip0_1235_23901)">
<path d="M718.697 359.789C721.044 428.997 568.869 573.135 387.09 524.958C302.546 502.549 310.792 462.128 247.392 410.47C209.603 379.681 154.754 356.97 140.507 311.332C128.198 271.939 137.463 229.11 161.277 200.866C214.833 137.346 320.819 92.3444 421.651 188.401C522.483 284.457 712.619 181.296 718.697 359.789Z" fill="url(#paint0_linear_1235_23901)"/>
<path fill-rule="evenodd" clip-rule="evenodd" d="M629.602 207.307V156.153C629.602 127.902 606.7 105 578.448 105H322.681C294.43 105 271.528 127.902 271.528 156.153V284.037" fill="white"/>
<path d="M629.602 207.307V156.153C629.602 127.902 606.7 105 578.448 105H322.681C294.43 105 271.528 127.902 271.528 156.153V284.037" stroke="#E1E4E5" stroke-width="4.13"/>
<path fill-rule="evenodd" clip-rule="evenodd" d="M271.528 216.252H436.882C441.092 216.252 445.236 215.213 448.948 213.228C452.66 211.242 455.825 208.371 458.161 204.87L494.046 150.929C496.386 147.411 499.562 144.528 503.288 142.537C507.015 140.547 511.177 139.511 515.402 139.522H629.602C657.853 139.522 680.756 162.424 680.756 190.675V446.442C680.756 474.694 657.853 497.596 629.602 497.596H271.528C243.277 497.596 220.375 474.694 220.375 446.442V267.405C220.375 239.154 243.277 216.252 271.528 216.252Z" fill="white" stroke="#E1E4E5" stroke-width="4.13"/>
<path d="M718.227 492.403C710.541 492.403 704.31 486.469 704.31 479.149C704.31 471.829 710.541 465.895 718.227 465.895C725.913 465.895 732.144 471.829 732.144 479.149C732.144 486.469 725.913 492.403 718.227 492.403Z" fill="#E1E4E5"/>
<path d="M292.465 524.423C289.903 524.423 287.826 522.346 287.826 519.784C287.826 517.221 289.903 515.145 292.465 515.145C295.027 515.145 297.104 517.221 297.104 519.784C297.104 522.346 295.027 524.423 292.465 524.423Z" fill="#E1E4E5"/>
<path d="M566.399 212.557C562.739 212.557 559.772 209.59 559.772 205.93C559.772 202.27 562.739 199.303 566.399 199.303C570.059 199.303 573.026 202.27 573.026 205.93C573.026 209.59 570.059 212.557 566.399 212.557Z" fill="#E1E4E5"/>
<path d="M175.677 405.77C176.602 409.225 174.552 412.776 171.098 413.702C167.643 414.627 164.092 412.577 163.166 409.123C162.24 405.668 164.291 402.117 167.745 401.191C171.2 400.265 174.751 402.316 175.677 405.77Z" fill="#E1E4E5"/>
<path d="M704.513 238.813C700.853 238.813 697.886 236.439 697.886 233.511C697.886 230.583 700.853 228.209 704.513 228.209C708.173 228.209 711.14 230.583 711.14 233.511C711.14 236.439 708.173 238.813 704.513 238.813Z" fill="#E1E4E5"/>
<path d="M186.177 456.26H186.351C187.377 470.805 198.195 471.029 198.195 471.029C198.195 471.029 186.266 471.262 186.266 488.069C186.266 471.262 174.337 471.029 174.337 471.029C174.337 471.029 185.151 470.805 186.177 456.26ZM760.511 290.309H760.691C761.758 305.669 773 305.905 773 305.905C773 305.905 760.603 306.151 760.603 323.899C760.603 306.151 748.207 305.905 748.207 305.905C748.207 305.905 759.444 305.669 760.511 290.309Z" fill="#E1E4E5"/>
<path d="M468.787 323.333C468.787 319.384 465.586 316.184 461.638 316.184C457.69 316.184 454.489 319.384 454.489 323.333V382.724C454.489 386.672 457.69 389.873 461.638 389.873C465.586 389.873 468.787 386.672 468.787 382.724V323.333Z" fill="white"/>
<path d="M491.334 360.177C495.282 360.177 498.483 356.976 498.483 353.028C498.483 349.08 495.282 345.879 491.334 345.879H431.943C427.995 345.879 424.794 349.08 424.794 353.028C424.794 356.976 427.995 360.177 431.943 360.177H491.334Z" fill="white"/>
<path d="M562.351 438.273L503 393.076" stroke="#4F27AA" stroke-width="20" stroke-linecap="round" stroke-linejoin="round"/>
<path d="M460.266 438.532C512.328 438.532 554.532 396.328 554.532 344.266C554.532 292.204 512.328 250 460.266 250C408.204 250 366 292.204 366 344.266C366 396.328 408.204 438.532 460.266 438.532Z" fill="#4F27AA" stroke="#4F27AA" stroke-width="18.345" stroke-linecap="round" stroke-linejoin="round"/>
<path d="M414.281 349.643H506.734M414.281 312.662H506.734M414.281 387.137H478.998" stroke="white" stroke-width="10" stroke-linecap="round" stroke-linejoin="round"/>
</g>
<defs>
<linearGradient id="paint0_linear_1235_23901" x1="530.485" y1="779.032" x2="277.414" y2="-357.319" gradientUnits="userSpaceOnUse">
<stop stop-color="white"/>
<stop offset="1" stop-color="#EEEEEE"/>
</linearGradient>
<clipPath id="clip0_1235_23901">
<rect width="900" height="600" fill="white"/>
</clipPath>
</defs>
</svg>
