<svg width="900" height="600" viewBox="0 0 900 600" fill="none" xmlns="http://www.w3.org/2000/svg">
<g clip-path="url(#clip0_1235_23918)">
<path d="M721.77 218.287C708.389 150.344 527.534 44.3998 361.381 132.478C284.105 173.445 301.288 210.95 251.229 275.62C221.391 314.164 173.108 348.703 169.562 396.382C166.491 437.538 185.212 477.158 214.801 499.278C281.347 549.024 394.77 568.863 471.237 452.473C547.705 336.083 756.26 393.522 721.77 218.287Z" fill="url(#paint0_linear_1235_23918)"/>
<path fill-rule="evenodd" clip-rule="evenodd" d="M629.602 207.307V156.154C629.602 127.902 606.7 105 578.448 105H322.681C294.43 105 271.527 127.902 271.527 156.154V284.037" fill="white"/>
<path d="M629.602 207.307V156.154C629.602 127.902 606.7 105 578.448 105H322.681C294.43 105 271.528 127.902 271.528 156.154V284.037" stroke="#E1E4E5" stroke-width="4.13"/>
<path fill-rule="evenodd" clip-rule="evenodd" d="M271.528 216.252H436.881C441.091 216.252 445.236 215.213 448.948 213.228C452.66 211.242 455.825 208.371 458.161 204.87L494.045 150.929C496.386 147.411 499.561 144.528 503.288 142.538C507.015 140.547 511.177 139.511 515.402 139.522H629.602C657.853 139.522 680.756 162.424 680.756 190.675V446.442C680.756 474.694 657.853 497.596 629.602 497.596H271.528C243.277 497.596 220.374 474.694 220.374 446.442V267.405C220.374 239.154 243.277 216.252 271.528 216.252Z" fill="white" stroke="#E1E4E5" stroke-width="4.13"/>
<path d="M707 494C701.477 494 697 489.747 697 484.5C697 479.253 701.477 475 707 475C712.523 475 717 479.253 717 484.5C717 489.747 712.523 494 707 494Z" fill="#E1E4E5"/>
<path d="M647.639 119.278C645.077 119.278 643 117.201 643 114.639C643 112.077 645.077 110 647.639 110C650.201 110 652.278 112.077 652.278 114.639C652.278 117.201 650.201 119.278 647.639 119.278Z" fill="#E1E4E5"/>
<path d="M569.5 216C564.253 216 560 211.523 560 206C560 200.477 564.253 196 569.5 196C574.747 196 579 200.477 579 206C579 211.523 574.747 216 569.5 216Z" fill="#E1E4E5"/>
<path d="M255.186 159.255C256.111 162.709 254.061 166.26 250.606 167.186C247.152 168.112 243.601 166.062 242.675 162.607C241.749 159.152 243.799 155.601 247.254 154.675C250.709 153.75 254.26 155.8 255.186 159.255Z" fill="#E1E4E5"/>
<path d="M704.513 238.815C700.853 238.815 697.886 236.441 697.886 233.513C697.886 230.585 700.853 228.211 704.513 228.211C708.173 228.211 711.14 230.585 711.14 233.513C711.14 236.441 708.173 238.815 704.513 238.815Z" fill="#E1E4E5"/>
<path d="M188.84 447.001H189.013C190.04 461.547 200.857 461.771 200.857 461.771C200.857 461.771 188.929 462.004 188.929 478.811C188.929 462.004 177 461.771 177 461.771C177 461.771 187.813 461.547 188.84 447.001ZM760.511 290.309H760.691C761.758 305.669 773 305.905 773 305.905C773 305.905 760.603 306.151 760.603 323.899C760.603 306.151 748.207 305.905 748.207 305.905C748.207 305.905 759.444 305.669 760.511 290.309Z" fill="#E1E4E5"/>
<path fill-rule="evenodd" clip-rule="evenodd" d="M483.698 430.997H419.299C392.624 430.997 371 409.372 371 382.698V318.299C371 291.624 392.624 270 419.299 270H483.698C510.372 270 531.997 291.624 531.997 318.299V382.698C531.997 409.372 510.372 430.997 483.698 430.997Z" fill="#4F27AA" stroke="#4F27AA" stroke-width="24.139" stroke-linecap="round" stroke-linejoin="round"/>
<path d="M451.5 347.507V317.965" stroke="white" stroke-width="24.139" stroke-linecap="round" stroke-linejoin="round"/>
<path fill-rule="evenodd" clip-rule="evenodd" d="M451.499 380.106C451.307 380.106 451.118 380.144 450.941 380.217C450.764 380.291 450.603 380.399 450.469 380.536C450.334 380.672 450.227 380.833 450.156 381.011C450.084 381.189 450.048 381.379 450.05 381.571C450.05 381.861 450.136 382.145 450.298 382.387C450.459 382.629 450.689 382.817 450.958 382.927C451.227 383.038 451.523 383.066 451.808 383.008C452.093 382.95 452.354 382.809 452.558 382.602C452.763 382.396 452.901 382.133 452.956 381.847C453.01 381.562 452.979 381.267 452.865 380.999C452.752 380.731 452.561 380.503 452.318 380.344C452.075 380.185 451.79 380.102 451.499 380.106Z" fill="white"/>
<path d="M451.499 380.106C451.307 380.106 451.118 380.144 450.941 380.217C450.764 380.291 450.603 380.399 450.469 380.536C450.334 380.672 450.227 380.833 450.156 381.011C450.084 381.189 450.048 381.379 450.05 381.571C450.05 381.861 450.136 382.145 450.298 382.387C450.459 382.629 450.689 382.817 450.958 382.927C451.227 383.038 451.523 383.066 451.808 383.008C452.093 382.95 452.354 382.809 452.558 382.602C452.763 382.396 452.901 382.133 452.956 381.847C453.01 381.562 452.979 381.267 452.865 380.999C452.752 380.731 452.561 380.503 452.318 380.344C452.075 380.185 451.79 380.102 451.499 380.106" stroke="white" stroke-width="24.139" stroke-linecap="round" stroke-linejoin="round"/>
<path fill-rule="evenodd" clip-rule="evenodd" d="M318.022 446.016V449.984H321.986C322.785 449.988 323.549 450.307 324.114 450.872C324.678 451.436 324.997 452.201 325 453C324.997 453.799 324.678 454.564 324.114 455.128C323.549 455.693 322.785 456.012 321.986 456.016H318.022V459.984C318.019 460.783 317.7 461.548 317.136 462.112C316.571 462.677 315.807 462.996 315.008 463C314.21 462.996 313.445 462.677 312.88 462.112C312.316 461.547 311.997 460.783 311.994 459.984V456.033H308.014C307.215 456.029 306.451 455.71 305.886 455.145C305.322 454.58 305.003 453.815 305 453.016C305.003 452.217 305.322 451.453 305.886 450.888C306.451 450.323 307.216 450.004 308.014 450H311.978V446.016C311.982 445.215 312.303 444.448 312.871 443.883C313.438 443.318 314.207 443 315.008 443C315.807 443.004 316.571 443.323 317.136 443.888C317.7 444.452 318.019 445.217 318.022 446.016ZM284.882 418.223V423.777H290.63C293.029 423.777 295 425.682 295 428C295 430.318 293.029 432.223 290.63 432.223H284.882V437.777C284.882 440.095 282.911 442 280.512 442C278.113 442 276.142 440.095 276.142 437.777V432.246H270.37C267.971 432.246 266 430.341 266 428.023C266 425.705 267.971 423.8 270.37 423.8H276.118V418.223C276.118 415.905 278.089 414 280.512 414C282.911 414 284.882 415.905 284.882 418.223Z" fill="#E1E4E5"/>
</g>
<defs>
<linearGradient id="paint0_linear_1235_23918" x1="443.534" y1="-147.462" x2="454.289" y2="1016.68" gradientUnits="userSpaceOnUse">
<stop stop-color="white"/>
<stop offset="1" stop-color="#EEEEEE"/>
</linearGradient>
<clipPath id="clip0_1235_23918">
<rect width="900" height="600" fill="white"/>
</clipPath>
</defs>
</svg>
