<svg width="900" height="600" viewBox="0 0 900 600" fill="none" xmlns="http://www.w3.org/2000/svg">
<g clip-path="url(#clip0_1235_23955)">
<path d="M704.17 357.993C706.4 423.733 561.852 560.645 389.185 514.884C308.879 493.598 316.711 455.203 256.489 406.134C220.594 376.888 168.495 355.315 154.961 311.964C143.27 274.547 152.07 233.864 174.69 207.036C225.562 146.699 326.236 103.953 422.014 195.195C517.792 286.437 698.397 188.446 704.17 357.993Z" fill="url(#paint0_linear_1235_23955)"/>
<path fill-rule="evenodd" clip-rule="evenodd" d="M629.602 207.307V156.153C629.602 127.902 606.7 105 578.449 105H322.681C294.43 105 271.528 127.902 271.528 156.153V284.037" fill="white"/>
<path d="M629.602 207.307V156.153C629.602 127.902 606.7 105 578.449 105H322.681C294.43 105 271.528 127.902 271.528 156.153V284.037" stroke="#E1E4E5" stroke-width="4.13"/>
<path fill-rule="evenodd" clip-rule="evenodd" d="M271.528 216.252H436.882C441.092 216.252 445.236 215.213 448.949 213.228C452.661 211.242 455.825 208.371 458.162 204.87L494.046 150.929C496.386 147.411 499.562 144.528 503.288 142.537C507.015 140.547 511.177 139.511 515.402 139.522H629.602C657.854 139.522 680.756 162.424 680.756 190.675V446.442C680.756 474.694 657.854 497.596 629.602 497.596H271.528C243.277 497.596 220.375 474.694 220.375 446.442V267.405C220.375 239.154 243.277 216.252 271.528 216.252Z" fill="white" stroke="#E1E4E5" stroke-width="4.13"/>
<path d="M451.101 457.193C505.722 457.193 550 412.914 550 358.294C550 303.673 505.722 259.395 451.101 259.395C396.481 259.395 352.202 303.673 352.202 358.294C352.202 412.914 396.481 457.193 451.101 457.193Z" fill="#4F27AA"/>
<path d="M486 339.16L442.139 383.828L415.807 357.031" stroke="white" stroke-width="18.095" stroke-linecap="round" stroke-linejoin="round"/>
<path d="M710.917 497.508C703.231 497.508 697 491.574 697 484.254C697 476.934 703.231 471 710.917 471C718.603 471 724.834 476.934 724.834 484.254C724.834 491.574 718.603 497.508 710.917 497.508Z" fill="#E1E4E5"/>
<path d="M292.466 524.423C289.904 524.423 287.827 522.346 287.827 519.784C287.827 517.221 289.904 515.145 292.466 515.145C295.028 515.145 297.105 517.221 297.105 519.784C297.105 522.346 295.028 524.423 292.466 524.423Z" fill="#E1E4E5"/>
<path d="M566.399 212.557C562.739 212.557 559.772 209.59 559.772 205.93C559.772 202.27 562.739 199.303 566.399 199.303C570.059 199.303 573.026 202.27 573.026 205.93C573.026 209.59 570.059 212.557 566.399 212.557Z" fill="#E1E4E5"/>
<path d="M175.677 405.77C176.603 409.225 174.553 412.776 171.098 413.702C167.643 414.627 164.092 412.577 163.166 409.123C162.241 405.668 164.291 402.117 167.746 401.191C171.2 400.265 174.751 402.316 175.677 405.77Z" fill="#E1E4E5"/>
<path d="M219.615 180.23C214.857 180.23 211 176.373 211 171.615C211 166.857 214.857 163 219.615 163C224.373 163 228.23 166.857 228.23 171.615C228.23 176.373 224.373 180.23 219.615 180.23Z" fill="#E1E4E5"/>
<path d="M704.513 238.813C700.853 238.813 697.886 236.439 697.886 233.511C697.886 230.583 700.853 228.209 704.513 228.209C708.173 228.209 711.14 230.583 711.14 233.511C711.14 236.439 708.173 238.813 704.513 238.813Z" fill="#E1E4E5"/>
<path d="M186.177 456.259H186.351C187.377 470.804 198.195 471.028 198.195 471.028C198.195 471.028 186.266 471.261 186.266 488.068C186.266 471.261 174.337 471.028 174.337 471.028C174.337 471.028 185.151 470.804 186.177 456.259ZM748.304 300H748.484C749.551 315.36 760.793 315.597 760.793 315.597C760.793 315.597 748.397 315.842 748.397 333.591C748.397 315.842 736 315.597 736 315.597C736 315.597 747.237 315.36 748.304 300Z" fill="#E1E4E5"/>
<path fill-rule="evenodd" clip-rule="evenodd" d="M602.022 283.016V286.984H605.986C606.785 286.988 607.549 287.307 608.114 287.872C608.678 288.436 608.997 289.201 609 290C608.997 290.799 608.678 291.564 608.114 292.128C607.549 292.693 606.785 293.012 605.986 293.016H602.022V296.984C602.019 297.783 601.7 298.548 601.136 299.112C600.571 299.677 599.807 299.996 599.008 300C598.21 299.996 597.445 299.677 596.88 299.112C596.316 298.547 595.997 297.783 595.994 296.984V293.033H592.014C591.215 293.029 590.451 292.71 589.886 292.145C589.322 291.58 589.003 290.815 589 290.016C589.003 289.217 589.322 288.453 589.886 287.888C590.451 287.323 591.215 287.004 592.014 287H595.978V283.016C595.982 282.215 596.303 281.448 596.871 280.883C597.438 280.318 598.207 280 599.008 280C599.807 280.004 600.571 280.323 601.136 280.888C601.7 281.452 602.019 282.217 602.022 283.016ZM568.882 255.223V260.777H574.63C577.029 260.777 579 262.682 579 265C579 267.318 577.029 269.223 574.63 269.223H568.882V274.777C568.882 277.095 566.911 279 564.512 279C562.113 279 560.142 277.095 560.142 274.777V269.246H554.37C551.971 269.246 550 267.341 550 265.023C550 262.705 551.971 260.8 554.37 260.8H560.118V255.223C560.118 252.905 562.089 251 564.512 251C566.911 251 568.882 252.905 568.882 255.223Z" fill="#E1E4E5"/>
</g>
<defs>
<linearGradient id="paint0_linear_1235_23955" x1="525.393" y1="756.222" x2="285.006" y2="-323.17" gradientUnits="userSpaceOnUse">
<stop stop-color="white"/>
<stop offset="1" stop-color="#EEEEEE"/>
</linearGradient>
<clipPath id="clip0_1235_23955">
<rect width="900" height="600" fill="white"/>
</clipPath>
</defs>
</svg>
