<svg width="900" height="600" viewBox="0 0 900 600" fill="none" xmlns="http://www.w3.org/2000/svg">
<g clip-path="url(#clip0_1235_18276)">
<path fill-rule="evenodd" clip-rule="evenodd" d="M227.179 128.152C183.197 128.152 147.219 163.9 147.219 207.6C147.219 251.3 183.197 287.049 227.179 287.049C236.002 287.049 243.228 294.228 243.228 302.995C243.228 311.761 236.002 318.941 227.179 318.941H185.339C163.883 318.941 146.326 336.386 146.326 357.704C146.326 379.022 163.883 396.466 185.339 396.466C203.895 396.466 219.078 411.553 219.078 429.99C219.078 463.629 246.778 491.152 280.634 491.152H641.985C685.966 491.152 721.945 455.403 721.945 411.704C721.945 368.004 685.966 332.255 641.985 332.255H634.25C625.427 332.255 618.201 325.084 618.201 316.309C618.201 307.542 625.418 300.362 634.25 300.362H686.314C707.77 300.362 725.326 282.918 725.326 261.6C725.326 240.308 707.814 222.882 686.394 222.837H644.501C625.945 222.837 610.761 207.751 610.761 189.314C610.761 155.675 583.061 128.152 549.205 128.152H227.179Z" fill="url(#paint0_linear_1235_18276)"/>
<path d="M378.087 519.969H742.709C753.527 519.969 762.299 511.197 762.299 500.379V271.919C762.299 261.101 753.527 252.328 742.709 252.328H378.087C367.269 252.328 358.496 261.101 358.496 271.919V500.379C358.496 511.197 367.269 519.969 378.087 519.969Z" fill="white" stroke="#E1E4E5" stroke-width="2.819"/>
<path d="M358.496 271.919C358.496 273.57 359.152 275.154 360.32 276.321C361.487 277.489 363.071 278.145 364.722 278.145H756.073C757.724 278.145 759.308 277.489 760.475 276.322C761.643 275.154 762.299 273.57 762.299 271.919C762.299 261.101 753.527 252.328 742.709 252.328H378.087C367.269 252.328 358.496 261.101 358.496 271.919Z" fill="white" stroke="#E1E4E5" stroke-width="2.819"/>
<path d="M419.386 270.666C418.794 270.666 418.207 270.55 417.66 270.323C417.113 270.097 416.616 269.764 416.197 269.346C415.778 268.927 415.446 268.43 415.219 267.882C414.993 267.335 414.876 266.749 414.876 266.156C414.876 265.564 414.993 264.978 415.219 264.431C415.446 263.883 415.778 263.386 416.197 262.967C416.616 262.549 417.113 262.216 417.66 261.99C418.207 261.763 418.794 261.646 419.386 261.646C420.582 261.646 421.729 262.122 422.575 262.967C423.421 263.813 423.896 264.96 423.896 266.156C423.896 267.353 423.421 268.5 422.575 269.346C421.729 270.191 420.582 270.666 419.386 270.666ZM400.595 270.666C400.003 270.666 399.416 270.55 398.869 270.323C398.322 270.096 397.825 269.764 397.406 269.345C396.987 268.926 396.655 268.429 396.429 267.882C396.202 267.335 396.085 266.748 396.086 266.156C396.086 265.564 396.202 264.977 396.429 264.43C396.656 263.883 396.988 263.386 397.407 262.967C397.826 262.548 398.323 262.216 398.87 261.99C399.417 261.763 400.004 261.646 400.596 261.646C401.792 261.647 402.939 262.122 403.785 262.968C404.631 263.814 405.106 264.961 405.105 266.157C405.105 267.353 404.63 268.5 403.784 269.346C402.938 270.192 401.791 270.667 400.595 270.666ZM382.556 270.666C381.36 270.666 380.213 270.191 379.367 269.345C378.521 268.499 378.046 267.352 378.047 266.156C378.047 264.96 378.522 263.813 379.368 262.967C380.214 262.121 381.361 261.646 382.557 261.646C383.149 261.647 383.736 261.763 384.283 261.99C384.83 262.217 385.327 262.549 385.746 262.968C386.165 263.387 386.497 263.884 386.723 264.431C386.95 264.978 387.067 265.565 387.066 266.157C387.066 266.749 386.95 267.336 386.723 267.883C386.496 268.43 386.164 268.927 385.745 269.346C385.326 269.765 384.829 270.097 384.282 270.323C383.735 270.55 383.148 270.667 382.556 270.666Z" fill="#E1E4E5"/>
<path d="M600.913 322.537C600.913 322.537 618.133 319.759 622.757 350.588C627.896 384.861 641.616 379.223 663.404 407.052C676.138 423.314 662.738 452.032 635.506 451.462C608.273 450.907 583.68 442.922 568.015 446.338C552.351 449.754 551.49 409.066 566.946 396.512C582.402 383.958 549.449 347.908 569.529 331.855C589.609 315.802 600.913 322.537 600.913 322.537Z" fill="#2E2445"/>
<path d="M559.031 414.647L541.242 479.679L547.588 472.374C545.241 473.624 542.519 474.582 539.506 475.263C536.492 475.943 533.215 476.332 529.785 476.512C526.355 476.693 522.786 476.665 519.12 476.512C515.468 476.36 511.732 476.082 507.941 475.763H507.927C505.241 475.535 502.574 476.382 500.512 478.119C498.45 479.855 497.161 482.34 496.929 485.025C496.47 490.358 500.261 495.079 505.455 495.926C509.371 496.551 513.343 497.134 517.426 497.607C521.508 498.079 525.688 498.426 530.021 498.523C534.354 498.62 538.839 498.454 543.477 497.787C548.102 497.121 552.907 495.912 557.6 493.885C560.6 492.593 562.738 490.122 563.71 487.247L563.933 486.567L585.277 422.604C587.679 415.41 583.791 407.648 576.598 405.245C569.404 402.843 561.641 406.731 559.239 413.924C559.169 414.16 559.086 414.424 559.031 414.647Z" fill="#F8AE9D"/>
<path d="M647.531 491.401C647.531 491.401 648.184 496.289 641.629 497.58L573.431 498.983C573.431 498.983 568.848 496.608 569.751 490.915C569.751 490.901 598.733 475.111 647.531 491.401Z" fill="#2E2445"/>
<path d="M573.612 492.914C588.693 492.191 618.355 492.247 642.185 501.412C641.337 496.617 640.684 491.79 640.227 486.942C625.187 485.928 588.304 483.887 573.806 487.123L573.612 492.914Z" fill="#F8AE9D"/>
<path d="M571.765 515.516C613.927 520.491 645.365 510.818 645.365 510.818C643.548 506.685 642.216 502.031 641.272 497.799C640.427 493.985 639.774 490.132 639.316 486.253C624.291 485.444 587.442 483.816 572.958 486.397L572.764 491.018L571.765 515.516Z" fill="#F8AE9D"/>
<path d="M569.446 478.693V478.79C569.473 479.054 569.487 479.331 569.501 479.623C569.571 480.734 569.626 482.067 569.668 483.581C569.709 484.803 569.723 486.136 569.737 487.566C569.737 488.635 569.751 489.746 569.751 490.899C589.859 482.22 630.978 488.386 647.531 491.399C647.365 490.566 647.212 489.746 647.059 488.941C646.948 488.344 646.851 487.761 646.74 487.177C645.643 480.831 645.059 475.124 644.865 470.027L644.823 468.666C644.657 461.098 645.476 450.336 647.143 439.254C647.254 438.49 647.379 437.726 647.49 436.976L647.74 435.477C648.345 431.797 649.054 428.134 649.864 424.492C650.142 423.27 650.378 422.034 650.573 420.812C650.795 419.451 650.961 418.09 651.086 416.743C651.392 413.327 651.364 409.994 650.92 406.897C650.128 401.384 647.976 396.635 643.99 393.58C641.741 391.858 638.894 390.664 635.366 390.192C634.214 390.039 633.075 389.886 631.978 389.761C628.911 389.395 625.836 389.09 622.757 388.845C621.91 388.775 621.119 388.72 620.41 388.664C619.147 388.572 617.883 388.494 616.619 388.428C616.314 388.414 616.147 388.4 616.147 388.4L585.277 396.941L582.333 397.746C581.083 398.135 579.902 398.51 578.805 398.871C576.083 399.773 573.764 400.634 571.765 401.482C569.293 402.537 567.321 403.565 565.765 404.648C558.961 409.355 559.933 414.785 559.961 425.478V426.214C559.961 427.019 559.947 427.825 559.919 428.63C559.892 429.636 559.836 430.641 559.752 431.644C559.611 433.645 559.411 435.641 559.155 437.629C557.683 449.655 554.934 460.376 557.669 465.917C560.6 471.86 566.571 476.582 568.682 478.137C569.154 478.498 569.446 478.693 569.446 478.693Z" fill="#4F27AA"/>
<path d="M626.146 485.999C626.279 485.971 626.401 485.905 626.497 485.809C626.593 485.713 626.659 485.591 626.687 485.458C626.705 485.369 626.705 485.278 626.687 485.189C626.67 485.101 626.635 485.017 626.585 484.942C626.534 484.867 626.47 484.803 626.394 484.753C626.319 484.703 626.235 484.669 626.146 484.652C612.078 481.875 601.955 476.917 601.857 476.862C601.695 476.782 601.508 476.77 601.337 476.827C601.165 476.884 601.023 477.006 600.941 477.167C600.862 477.329 600.849 477.516 600.906 477.687C600.963 477.859 601.085 478.001 601.246 478.084C601.344 478.139 611.62 483.18 625.882 485.986C625.979 486.013 626.062 486.013 626.146 485.999ZM614.772 390.916C614.772 390.916 612.009 401.373 601.566 404.275C588.29 407.955 586.291 403.498 586.291 403.498C586.624 401.595 586.735 399.734 586.652 397.762C586.618 396.996 586.557 396.232 586.471 395.471C586.235 393.332 585.791 390.999 585.166 388.333C585.027 387.708 584.86 387.056 584.694 386.389L584.68 386.306C593.762 382.89 600.886 377.765 605.246 370.183L606.538 369.169L607.412 368.475L607.662 369.003L607.704 370.766C607.885 379.057 609.287 383.959 614.772 390.916Z" fill="#F8AE9D"/>
<path d="M599.678 378.207C598.275 382.929 594.692 391.414 586.471 395.455C586.235 393.316 585.791 390.983 585.166 388.317C585.027 387.692 584.861 387.039 584.694 386.373C584.874 386.373 585.069 386.359 585.263 386.345C590.401 386.04 595.609 382.707 599.678 378.207Z" fill="#F8AE9D"/>
<path d="M617.078 353.531C618.05 358.558 614.967 365.543 608.426 367.001L608.398 367.015L608.26 367.043C608.204 367.348 608.135 367.654 608.065 367.973C608.037 368.112 607.996 368.251 607.968 368.39C607.968 368.404 607.968 368.418 607.954 368.431C605.496 377.763 594.289 385.137 587.735 386.595C585.388 387.109 583.708 386.887 583.18 386.873C575.903 386.707 572.779 377.513 572.487 370.084C572.442 369.056 572.46 368.027 572.543 367.001C572.543 366.932 572.556 366.862 572.556 366.807C572.556 366.807 568.279 357.169 566.877 352.864C564.183 344.532 567.404 334.922 585.791 329.618C604.177 324.313 610.898 335.061 613.398 340.963C613.814 341.949 614.786 348.101 613.953 349.281C615.883 349.851 616.744 351.837 617.078 353.531Z" fill="#F8AE9D"/>
<path d="M585.68 378.903C586.596 378.487 586.957 377.695 586.985 377.653C587.082 377.417 586.985 377.153 586.749 377.056C586.64 377.008 586.517 377.005 586.406 377.046C586.294 377.088 586.203 377.171 586.152 377.278C586.124 377.334 585.652 378.306 584.319 378.237C584.198 378.231 584.079 378.272 583.988 378.352C583.897 378.433 583.841 378.546 583.833 378.667C583.819 378.917 584.013 379.139 584.263 379.153C584.749 379.184 585.234 379.098 585.68 378.903ZM608.412 367.002L608.385 367.016L608.246 367.044C608.19 367.349 608.121 367.655 608.051 367.974C608.024 368.113 607.982 368.252 607.954 368.391C607.954 368.405 607.954 368.418 607.94 368.432C607.163 368.46 606.177 368.363 605.204 367.918C604.586 367.636 604.033 367.229 603.58 366.724C603.519 366.657 603.473 366.578 603.443 366.493C603.412 366.407 603.4 366.317 603.405 366.226C603.41 366.136 603.433 366.047 603.472 365.966C603.512 365.885 603.567 365.812 603.635 365.752C603.701 365.69 603.78 365.641 603.865 365.61C603.951 365.579 604.042 365.566 604.133 365.571C604.224 365.577 604.313 365.6 604.394 365.641C604.476 365.682 604.548 365.738 604.607 365.808C605.113 366.357 605.77 366.743 606.496 366.919C606.909 367.024 607.334 367.07 607.76 367.057C608.01 367.03 608.232 367.016 608.412 367.002Z" fill="#F8AE9D"/>
<path opacity="0.5" d="M576.028 367.891C576.153 368.641 574.626 369.557 572.473 370.071C572.429 369.043 572.447 368.014 572.529 366.988C574.445 366.863 575.903 367.21 576.028 367.891Z" fill="#F8AE9D"/>
<path d="M580.875 369.404C580.769 369.428 580.659 369.423 580.555 369.39L577.709 368.377C577.615 368.343 577.531 368.286 577.465 368.211C577.4 368.135 577.355 368.044 577.334 367.946C577.313 367.848 577.319 367.746 577.35 367.651C577.382 367.556 577.438 367.471 577.514 367.405C579.306 365.821 580.166 363.752 580.236 360.892C580.243 360.739 580.309 360.594 580.42 360.487C580.531 360.381 580.679 360.322 580.833 360.322C580.987 360.329 581.131 360.395 581.237 360.506C581.343 360.618 581.402 360.766 581.402 360.919C581.333 363.752 580.555 365.891 578.972 367.613L580.944 368.307C581.088 368.359 581.206 368.465 581.273 368.602C581.341 368.74 581.352 368.898 581.305 369.043C581.271 369.136 581.213 369.217 581.138 369.281C581.062 369.344 580.972 369.387 580.875 369.404Z" fill="#F8AE9D"/>
<path opacity="0.5" d="M587.665 365.754C587.818 366.615 590.068 366.934 592.692 366.476C595.317 366.017 597.331 364.948 597.178 364.101C597.025 363.24 594.775 362.921 592.151 363.379C589.526 363.837 587.527 364.893 587.665 365.754Z" fill="#F8AE9D"/>
<path d="M607.038 363.197C607.172 363.148 607.288 363.059 607.37 362.943C607.452 362.826 607.496 362.687 607.496 362.544C607.496 357.642 612.745 354.504 612.801 354.462C612.88 354.417 612.949 354.357 613.005 354.285C613.06 354.212 613.101 354.13 613.124 354.042C613.147 353.954 613.153 353.863 613.14 353.773C613.128 353.683 613.097 353.596 613.051 353.518C613.006 353.439 612.946 353.37 612.873 353.314C612.801 353.259 612.719 353.218 612.631 353.195C612.543 353.171 612.451 353.166 612.361 353.178C612.271 353.191 612.184 353.221 612.106 353.268C611.856 353.407 606.107 356.823 606.121 362.544C606.121 362.933 606.427 363.239 606.815 363.239C606.885 363.239 606.968 363.211 607.038 363.197Z" fill="#F8AE9D"/>
<path d="M612.44 359.406C612.524 359.378 612.6 359.331 612.662 359.267C612.729 359.206 612.783 359.133 612.821 359.051C612.86 358.969 612.882 358.88 612.885 358.79C612.889 358.699 612.875 358.609 612.844 358.524C612.812 358.439 612.765 358.361 612.703 358.295C612.634 358.212 610.954 356.421 608.218 357.059C608.129 357.08 608.046 357.118 607.972 357.171C607.898 357.224 607.835 357.292 607.788 357.369C607.74 357.447 607.708 357.533 607.693 357.623C607.679 357.713 607.683 357.804 607.704 357.893C607.724 357.982 607.762 358.065 607.816 358.139C607.869 358.213 607.936 358.276 608.013 358.323C608.091 358.371 608.177 358.403 608.267 358.417C608.357 358.431 608.449 358.428 608.537 358.406C610.495 357.948 611.676 359.212 611.69 359.226C611.884 359.448 612.19 359.503 612.44 359.406Z" fill="#F8AE9D"/>
<path d="M589.054 339.493C589.054 339.493 589.04 345.006 594.123 347.2C598.331 349.02 600.705 349.297 600.705 349.297C600.705 349.297 597.359 365.073 603.288 366.128C609.232 367.184 605.51 351.325 613.926 349.283C613.926 349.283 616.87 348.061 615.536 342.771C614.203 337.48 606.982 323.662 588.374 327.495C574.417 330.37 563.475 340.243 564.849 350.144C566.224 360.046 567.974 357.727 567.974 357.727C567.974 357.727 565.891 352.2 571.834 346.631C576.75 342.007 589.054 339.493 589.054 339.493Z" fill="#2E2445"/>
<path d="M610.759 478.527C610.893 478.526 611.022 478.481 611.128 478.399C611.234 478.317 611.31 478.203 611.345 478.074C611.38 477.945 611.371 477.808 611.32 477.684C611.27 477.56 611.18 477.456 611.065 477.388C610.87 477.277 606.385 474.75 601.691 474.375C601.536 474.372 601.386 474.428 601.271 474.532C601.156 474.635 601.086 474.779 601.073 474.933C601.061 475.088 601.108 475.241 601.205 475.362C601.301 475.482 601.441 475.562 601.594 475.583C606.01 475.93 610.412 478.402 610.468 478.43C610.551 478.513 610.648 478.527 610.759 478.527Z" fill="#F8AE9D"/>
<path d="M603.302 475.819C603.414 475.82 603.523 475.791 603.621 475.736C606.454 474.014 609.884 473.764 609.912 473.75C610.072 473.735 610.221 473.659 610.327 473.538C610.433 473.416 610.488 473.258 610.481 473.097C610.469 472.936 610.393 472.786 610.271 472.679C610.149 472.573 609.99 472.519 609.829 472.528C609.676 472.542 606.065 472.806 602.996 474.68C602.858 474.764 602.76 474.898 602.721 475.054C602.682 475.21 602.706 475.375 602.788 475.513C602.835 475.609 602.908 475.688 602.999 475.743C603.091 475.797 603.196 475.824 603.302 475.819Z" fill="#F8AE9D"/>
<path d="M619.938 405.872L599.414 480.93L606.732 472.501C604.024 473.945 600.886 475.042 597.414 475.834C593.942 476.612 590.151 477.07 586.207 477.264C582.249 477.473 578.125 477.431 573.903 477.264C569.682 477.084 565.377 476.778 561.002 476.403H560.975C554.517 475.848 548.838 480.639 548.282 487.096C547.754 493.248 552.129 498.706 558.128 499.678C562.641 500.4 567.238 501.08 571.945 501.622C576.653 502.163 581.486 502.58 586.485 502.691C591.484 502.802 596.664 502.608 602.01 501.83C607.357 501.052 612.898 499.664 618.314 497.331C619.96 496.621 621.439 495.573 622.654 494.255C623.869 492.936 624.794 491.377 625.368 489.679L625.632 488.901L650.239 415.065C653.003 406.761 648.531 397.804 640.227 395.026C631.937 392.263 622.966 396.734 620.188 405.039C620.105 405.303 620.008 405.622 619.938 405.872Z" fill="#F8AE9D"/>
<path d="M646.575 508.081L644.9 504.038L641.494 497.392C641.494 497.392 601.431 504.185 572.651 497.1L571.963 500.343C571.963 500.343 588.521 510.772 614.528 510.069C640.55 509.367 646.575 508.081 646.575 508.081Z" fill="#2E2445"/>
<path d="M588.694 503.487H494.489L493.463 499.309C492.825 496.682 494.503 494.055 496.82 494.055H583.741C585.295 494.055 586.668 495.262 587.098 497.025L588.694 503.487Z" fill="#E1E4E5"/>
<path d="M425.12 405.914L441.228 474.043L441.659 475.834L442.742 480.417C442.969 481.381 443.515 482.24 444.291 482.855C445.067 483.47 446.029 483.805 447.019 483.805H555.545C558.378 483.805 560.489 481.153 559.836 478.389L542.214 403.886C541.987 402.922 541.441 402.063 540.665 401.448C539.889 400.833 538.927 400.498 537.937 400.498H429.411C426.564 400.512 424.467 403.164 425.12 405.914Z" fill="#4F27AA"/>
<path d="M477.848 445.075C478.362 449.769 482.584 453.56 487.277 453.56C491.971 453.56 495.346 449.755 494.832 445.075C494.318 440.381 490.096 436.59 485.403 436.59C480.709 436.59 477.334 440.381 477.848 445.075Z" fill="white"/>
<path d="M533.617 400.512L552.379 483.819H555.545C558.378 483.819 560.475 481.166 559.822 478.403L542.2 403.9C541.973 402.936 541.427 402.077 540.65 401.462C539.874 400.847 538.912 400.512 537.922 400.512H533.617ZM502.192 483.819L505.483 502.33H494.61L491.318 483.819H502.192Z" fill="#2E2445"/>
<path d="M521.758 499.136L519.537 496.012C519.143 495.462 518.624 495.014 518.023 494.705C517.422 494.396 516.755 494.234 516.079 494.234H486.264C485.49 494.232 484.73 494.444 484.068 494.846C483.407 495.248 482.869 495.824 482.514 496.512L481.014 499.386C480.306 500.733 481.292 502.33 482.806 502.33H520.106C521.745 502.33 522.703 500.47 521.758 499.136Z" fill="#2E2445"/>
<path d="M400.841 507.395V512.153C400.841 514.896 402.83 517.109 405.304 517.109H715.491C717.952 517.109 719.955 514.896 719.955 512.153V507.395C719.955 504.664 717.965 502.438 715.491 502.438H405.304C402.843 502.451 400.841 504.664 400.841 507.395Z" fill="white"/>
<path d="M136 369.059H500.622C511.44 369.059 520.213 360.286 520.213 349.469V121.009C520.213 110.191 511.44 101.418 500.622 101.418H136C125.182 101.418 116.409 110.191 116.409 121.009V349.469C116.409 360.286 125.182 369.059 136 369.059Z" fill="white" stroke="#E1E4E5" stroke-width="2.819"/>
<path d="M116.409 121.009C116.409 122.66 117.065 124.244 118.233 125.411C119.4 126.579 120.984 127.235 122.635 127.235H513.986C515.637 127.235 517.221 126.579 518.389 125.411C519.556 124.244 520.213 122.66 520.213 121.009C520.213 110.191 511.44 101.418 500.622 101.418H136C125.182 101.418 116.409 110.191 116.409 121.009Z" fill="white" stroke="#E1E4E5" stroke-width="2.819"/>
<path d="M177.299 119.756C176.103 119.756 174.956 119.281 174.11 118.435C173.264 117.59 172.789 116.442 172.789 115.246C172.789 114.05 173.264 112.903 174.11 112.057C174.956 111.211 176.103 110.736 177.299 110.736C178.495 110.736 179.642 111.211 180.488 112.057C181.334 112.903 181.809 114.05 181.809 115.246C181.809 116.442 181.334 117.59 180.488 118.435C179.642 119.281 178.495 119.756 177.299 119.756ZM158.509 119.756C157.313 119.756 156.166 119.281 155.32 118.435C154.474 117.59 153.999 116.442 153.999 115.246C153.999 114.05 154.474 112.903 155.32 112.057C156.166 111.211 157.313 110.736 158.509 110.736C159.705 110.736 160.852 111.211 161.698 112.057C162.544 112.903 163.019 114.05 163.019 115.246C163.019 116.442 162.544 117.59 161.698 118.435C160.852 119.281 159.705 119.756 158.509 119.756ZM140.47 119.756C139.274 119.756 138.127 119.281 137.281 118.435C136.435 117.59 135.96 116.442 135.96 115.246C135.96 114.05 136.435 112.903 137.281 112.057C138.127 111.211 139.274 110.736 140.47 110.736C141.666 110.736 142.813 111.211 143.659 112.057C144.505 112.903 144.98 114.05 144.98 115.246C144.98 116.442 144.505 117.59 143.659 118.435C142.813 119.281 141.666 119.756 140.47 119.756Z" fill="#E1E4E5"/>
<path d="M311.071 226.262C308.648 230.063 302.32 234.491 297.831 234.431C282.539 234.15 277.505 223.734 275.855 219.941C276.165 219.866 276.687 219.805 277.058 219.76C279.874 219.351 282.751 216.565 283.591 213.423C284.674 209.336 286.006 201.342 285.847 196.262L305.189 206.966C305.149 208.533 305.06 210.098 304.924 211.66C304.825 212.644 304.727 213.613 304.613 214.551C304.511 215.4 304.397 216.248 304.273 217.095C303.917 219.745 305.098 222.371 307.331 223.832L311.071 226.262Z" fill="#F8AE9D"/>
<path d="M312.735 184.628C311.691 187.368 312.13 190.48 313.19 193.212C313.939 195.143 315.605 193.439 317.679 193.477C320.888 193.53 323.394 190.192 325.332 181.342C326.566 174.847 326.876 171.554 326.627 170.926C325.741 168.678 322.819 167.474 320.412 167.262" fill="#2E2445"/>
<path d="M317.619 165.164C322.676 171.258 324.515 188.404 320.246 200.35C317.21 208.843 313.682 214.324 309.564 214.15C303.311 213.885 291.192 208.745 287.248 204.453C280.139 196.724 282.206 181.568 283.674 172.03C285.007 163.362 289.064 152.105 299.958 154.248C307.119 155.648 313.084 159.691 317.619 165.164Z" fill="#F8AE9D"/>
<path d="M289.009 171.895C290.13 173.336 292.107 173.654 293.736 173.939C295.926 174.321 297.01 175.119 298.146 177.261C298.866 178.628 299.586 180.126 300.874 180.867C301.92 181.472 301.881 179.927 302.05 178.731C302.065 178.627 302.086 178.523 302.113 178.421C302.368 177.465 303.385 177.629 303.685 178.571C303.958 179.418 304.541 180.135 305.283 180.533C305.405 180.599 305.533 180.656 305.662 180.631C305.837 180.607 305.973 180.444 306.087 180.297C306.325 179.99 306.562 179.599 306.807 179.186C307.611 177.828 309.129 178.316 310.026 179.613C310.587 180.419 311.254 181.25 312.171 181.437C312.466 181.502 312.837 181.453 312.974 181.169C313.148 180.818 312.875 180.468 312.921 180.11C312.959 179.776 313.103 179.63 313.262 179.345C313.887 178.237 315.313 178.197 316.192 179.117C316.805 179.757 317.443 180.37 318.103 180.957C318.384 181.201 318.793 181.445 319.073 181.201C319.225 181.071 319.263 180.851 319.293 180.639C319.452 179.605 319.603 178.571 319.763 177.537C319.854 176.959 320.164 176.202 320.695 176.349C320.952 176.422 321.104 176.691 321.248 176.935C321.422 177.244 324.536 180.77 324.597 180.501C325.081 178.498 326.074 176.674 326.559 174.672C329.696 161.783 315.777 151.419 305.147 151.362C302.783 151.346 300.624 151.384 298.328 151.93C295.881 152.516 293.297 153.447 291.077 154.757C287.963 156.589 285.607 159.919 286.213 163.892" fill="#2E2445"/>
<path d="M294.015 167.474C295.559 169.223 295.968 171.683 296.112 174.007C296.324 177.512 296.036 181.153 294.416 184.264C293.954 185.15 293.614 189.533 292.902 189.291C292.675 189.215 292.713 185.816 292.115 183.984C291.191 181.146 286.937 180.063 285.022 181.857C281.963 184.711 283.757 188.178 284.772 190.336C285.377 191.638 286.339 193.099 286.505 194.476C286.71 196.24 286.77 202.667 285.62 204.166C284.658 205.423 283.636 199.352 282.766 198.156C276.323 189.246 270.146 166.558 281.146 161.637C282.819 160.888 287.981 160.502 289.548 161.456M334.743 347.824C335.378 347.93 336.022 348.021 336.688 348.044C340.231 348.157 343.653 347.378 347.112 346.787C350.155 346.265 350.98 345.977 350.92 342.306C350.39 313.229 346.113 284.228 338.422 256.181C337.248 251.896 335.969 247.581 333.721 243.75C329.883 237.217 321.071 231.578 314.311 228.413C313.357 227.967 309.405 230.48 308.444 230.049C307.604 229.67 306.862 229.08 306.014 228.709C303.531 227.626 301.866 229.89 299.791 230.836C298.716 231.32 297.52 231.631 296.339 231.578C295.378 231.54 294.507 230.957 293.629 231.411C289.678 233.455 279.867 218.285 279.867 218.285L275.605 222.713L263.167 235.741L232.084 278.565C232.084 278.565 226.445 313.66 222.569 336.666C221.895 340.633 219.23 349.209 218.701 352.215C218.814 351.564 245.234 351.39 246.657 351.39H300.503C303.523 351.39 311.646 352.669 313.766 350.451C316.377 347.726 319.398 335.22 319.557 331.715C320.079 319.928 319.269 308.233 319.11 296.378C319.178 301.2 320.564 305.56 321.154 310.284C321.919 316.363 323.009 322.434 323.993 328.483C324.78 333.343 325.537 338.218 326.143 343.108C326.415 345.311 326.067 346.621 327.929 347.484C329.496 348.203 332.911 347.514 334.743 347.824Z" fill="#2E2445"/>
<path d="M321.624 337.755C320.186 337.164 311.306 334.961 307.302 334.129C305.205 333.697 295.697 331.229 293.494 331.229C291.291 331.229 288.293 334.378 288.293 334.378L289.088 345.211C291.208 344.999 294.046 346.097 295.568 346.309C297.09 346.521 302.26 346.551 305.439 344.954C305.621 344.863 305.788 344.764 305.954 344.665C307.234 345.801 308.838 346.906 310.617 346.997C310.617 346.997 312.01 346.854 311.874 346.294C311.813 346.021 310.89 344.612 309.966 343.234C311.329 344.62 313.555 346.868 316.121 346.997C316.121 346.997 317.514 346.854 317.377 346.294C317.302 345.961 315.969 343.97 314.894 342.388C314.91 342.403 314.932 342.409 314.94 342.424C316.068 343.416 318.748 346.838 321.92 346.997C321.92 346.997 323.312 346.854 323.176 346.294C323.131 346.089 322.601 345.249 321.957 344.273C322.767 344.893 323.759 345.552 324.963 346.15C328.392 347.846 330.345 346.559 330.345 346.15C330.353 345.734 323.063 338.345 321.624 337.755Z" fill="#F8AE9D"/>
<path d="M290.747 325.174C290.747 325.174 296.273 328.308 295.781 334.97C295.289 341.631 293.29 349.353 284.948 348.543C276.606 347.741 290.747 325.174 290.747 325.174Z" fill="#2E2445"/>
<path d="M286.294 347.883C266.294 354.825 239.533 348.193 222.569 336.664C211.94 329.457 205.158 320.305 206.301 311.365C209.261 288.14 227.512 234.907 243.303 227.14C254.038 221.856 267.058 219.668 274.318 218.79C277.725 218.374 279.852 218.275 279.852 218.275L277.217 225.709L264.03 262.893C263.538 284.96 247.747 298.064 250.889 303.204C254.03 308.329 278.837 313.863 291.866 322.636C295.469 325.074 300.041 342.705 286.294 347.883Z" fill="#2E2445"/>
<path d="M264.03 262.895C264.045 267.081 263.462 271.275 262.372 275.333C261.275 279.39 259.67 283.304 257.808 287.074C256.874 288.951 255.892 290.803 254.863 292.63C253.856 294.462 252.819 296.279 251.971 298.142C251.555 299.073 251.191 300.034 251.048 300.98C251.01 301.442 250.972 301.919 251.101 302.32C251.131 302.54 251.259 302.706 251.335 302.903C251.479 303.077 251.577 303.266 251.759 303.433C253.114 304.788 255.052 305.704 256.892 306.59C264.447 310.034 272.471 312.585 280.117 316.022C283.94 317.74 287.725 319.595 291.245 321.912L291.896 322.351C292.115 322.502 292.32 322.699 292.532 322.873C292.925 323.259 293.266 323.683 293.538 324.145C294.099 325.061 294.477 326.06 294.772 327.074C295.333 329.111 295.567 331.208 295.582 333.305C295.446 331.223 295.098 329.141 294.485 327.165C293.834 325.205 292.827 323.297 290.942 322.381C287.407 320.186 283.614 318.437 279.768 316.825C275.906 315.239 272.017 313.719 268.103 312.267C264.189 310.784 260.253 309.368 256.407 307.612C254.515 306.673 252.569 305.787 250.957 304.16C250.752 303.963 250.586 303.69 250.412 303.456C250.283 303.168 250.109 302.896 250.063 302.593C249.882 301.987 249.942 301.389 249.995 300.821C250.177 299.701 250.586 298.687 251.025 297.718C251.926 295.78 252.978 293.97 254 292.146C255.022 290.322 256.051 288.512 257.028 286.673C260.926 279.345 263.637 271.283 264.03 262.895Z" fill="white"/>
<path d="M315.862 229.13C313.955 231.023 305.461 237.071 297.361 237.071C296.014 237.071 294.59 236.95 293.084 236.67C286.286 235.429 280.563 230.894 277.217 225.701C276.606 224.746 276.067 223.746 275.605 222.711C275.019 221.461 274.587 220.144 274.318 218.79C277.724 218.373 280.979 217.518 281.509 216.912C282.085 220.879 286.982 228.04 294.401 229.388C295.332 229.562 296.21 229.638 297.051 229.653H297.066C299.88 229.714 302.651 228.959 305.045 227.48C305.06 227.48 308.595 224.694 308.61 224.679L315.862 229.13Z" fill="#2E2445"/>
<path d="M321.193 315.611C321.172 315.241 321.22 314.875 321.206 314.504C321.191 314.103 321.147 313.711 321.117 313.311L320.897 311.018C320.752 309.457 320.619 307.894 320.496 306.332C320.262 303.234 320.102 300.131 320.018 297.026C319.858 290.817 319.948 284.595 320.365 278.4C320.48 276.665 320.625 274.935 320.786 273.205C320.872 272.321 320.966 271.428 321.06 270.544C321.156 269.674 321.297 268.809 321.308 267.929C321.315 267.383 320.494 267.345 320.371 267.853C320.008 269.359 319.955 270.977 319.799 272.518C319.651 274.065 319.518 275.614 319.401 277.165C319.175 280.293 319.026 283.426 318.952 286.562C318.818 292.802 319.04 299.045 319.572 305.27C319.724 307.02 319.898 308.762 320.109 310.502C320.22 311.39 320.33 312.271 320.463 313.158C320.523 313.549 320.576 313.94 320.65 314.323C320.744 314.772 320.911 315.188 321.005 315.637C321.056 315.741 321.206 315.702 321.193 315.611Z" fill="white"/>
<path d="M319.45 194.794C319.503 194.794 319.647 194.711 319.526 194.711C319.465 194.711 319.33 194.794 319.45 194.794Z" fill="#CC6144"/>
<path d="M309.364 352.063H402.546L430.579 282.357H337.535L309.364 352.063Z" fill="#4F27AA"/>
<path d="M403.639 349.35H280.585V352.064H402.545L403.639 349.35Z" fill="#4F27AA"/>
<path d="M382.007 317.036C383.202 312.839 380.792 309.436 376.632 309.436C372.473 309.436 368.138 312.839 366.943 317.036C365.748 321.234 368.158 324.637 372.317 324.637C376.477 324.637 380.811 321.234 382.007 317.036Z" fill="white"/>
<path fill-rule="evenodd" clip-rule="evenodd" d="M554.11 262.971C554.11 284.099 536.986 301.223 515.858 301.223C494.73 301.223 477.606 284.099 477.606 262.971C477.606 241.843 494.73 224.719 515.858 224.719C536.986 224.719 554.11 241.843 554.11 262.971Z" fill="#4F27AA" stroke="#4F27AA" stroke-width="8.398" stroke-linecap="round" stroke-linejoin="round"/>
<path fill-rule="evenodd" clip-rule="evenodd" d="M511.357 250.467L527.856 260.226C529.943 261.459 529.943 264.48 527.856 265.713L511.357 275.471C509.232 276.729 506.546 275.195 506.546 272.726V253.213C506.546 250.744 509.232 249.209 511.357 250.467Z" fill="white"/>
<path fill-rule="evenodd" clip-rule="evenodd" d="M314.947 421.541H312.018C311.679 421.54 311.354 421.406 311.114 421.166C310.874 420.926 310.739 420.601 310.739 420.262V417.333C310.74 416.994 310.875 416.669 311.114 416.429C311.354 416.19 311.679 416.055 312.018 416.055H314.947C315.649 416.055 316.225 416.631 316.225 417.333V420.262C316.226 420.43 316.193 420.596 316.129 420.751C316.065 420.907 315.971 421.048 315.852 421.167C315.733 421.286 315.592 421.38 315.437 421.444C315.282 421.508 315.115 421.541 314.947 421.541ZM304.791 421.541H301.862C301.523 421.539 301.199 421.404 300.959 421.165C300.72 420.925 300.584 420.6 300.583 420.262V417.333C300.584 416.994 300.719 416.669 300.958 416.429C301.198 416.19 301.523 416.055 301.862 416.055H304.791C305.493 416.055 306.07 416.631 306.07 417.333V420.262C306.07 420.965 305.493 421.541 304.791 421.541ZM294.629 421.541H291.7C291.361 421.539 291.037 421.404 290.797 421.165C290.558 420.925 290.422 420.6 290.421 420.262V417.333C290.422 416.994 290.557 416.669 290.796 416.429C291.036 416.19 291.361 416.055 291.7 416.055H294.629C295.331 416.055 295.908 416.631 295.908 417.333V420.262C295.908 420.43 295.876 420.596 295.811 420.752C295.747 420.907 295.653 421.048 295.534 421.167C295.415 421.286 295.274 421.38 295.119 421.444C294.964 421.508 294.797 421.541 294.629 421.541ZM284.473 421.541H281.544C281.205 421.539 280.881 421.404 280.641 421.165C280.402 420.925 280.266 420.6 280.265 420.262V417.333C280.266 416.994 280.401 416.669 280.64 416.429C280.88 416.19 281.205 416.055 281.544 416.055H284.473C285.181 416.055 285.758 416.631 285.758 417.333V420.262C285.754 420.601 285.618 420.925 285.377 421.164C285.137 421.403 284.812 421.539 284.473 421.541ZM274.317 421.541H271.388C271.048 421.541 270.722 421.406 270.482 421.166C270.241 420.927 270.105 420.601 270.103 420.262V417.333C270.103 417.164 270.137 416.998 270.202 416.842C270.266 416.687 270.361 416.546 270.48 416.427C270.6 416.308 270.741 416.214 270.897 416.15C271.053 416.087 271.22 416.054 271.388 416.055H274.317C275.019 416.055 275.595 416.631 275.595 417.333V420.262C275.595 420.965 275.019 421.541 274.317 421.541ZM304.419 410.467H301.49C301.151 410.466 300.826 410.33 300.587 410.091C300.347 409.851 300.212 409.526 300.211 409.188V406.253C300.211 405.551 300.787 404.975 301.49 404.975H304.419C305.127 404.975 305.697 405.551 305.697 406.253V409.182C305.698 409.35 305.666 409.517 305.602 409.673C305.538 409.829 305.444 409.971 305.326 410.09C305.207 410.21 305.065 410.304 304.91 410.369C304.754 410.434 304.587 410.467 304.419 410.467ZM294.263 410.467H291.334C290.995 410.466 290.67 410.33 290.431 410.091C290.191 409.851 290.056 409.526 290.055 409.188V406.253C290.055 405.551 290.631 404.975 291.334 404.975H294.263C294.965 404.975 295.541 405.551 295.541 406.253V409.182C295.542 409.35 295.51 409.517 295.446 409.673C295.382 409.829 295.288 409.971 295.169 410.09C295.051 410.21 294.909 410.304 294.754 410.369C294.598 410.434 294.431 410.467 294.263 410.467ZM284.107 410.467H281.178C280.838 410.467 280.512 410.332 280.272 410.092C280.031 409.853 279.895 409.527 279.893 409.188V406.253C279.893 405.551 280.469 404.975 281.178 404.975H284.107C284.809 404.975 285.385 405.551 285.385 406.253V409.182C285.385 409.891 284.809 410.467 284.107 410.467ZM294.629 433.438H291.7C291.361 433.436 291.037 433.301 290.797 433.062C290.558 432.822 290.422 432.497 290.421 432.159V429.23C290.422 428.891 290.557 428.566 290.796 428.326C291.036 428.087 291.361 427.952 291.7 427.952H294.629C295.331 427.952 295.908 428.528 295.908 429.23V432.159C295.908 432.327 295.876 432.493 295.811 432.649C295.747 432.804 295.653 432.945 295.534 433.064C295.415 433.183 295.274 433.277 295.119 433.341C294.964 433.405 294.797 433.438 294.629 433.438ZM284.473 433.438H281.544C281.205 433.436 280.881 433.301 280.641 433.062C280.402 432.822 280.266 432.497 280.265 432.159V429.23C280.266 428.891 280.401 428.566 280.64 428.326C280.88 428.087 281.205 427.952 281.544 427.952H284.473C285.181 427.952 285.758 428.528 285.758 429.23V432.159C285.754 432.498 285.618 432.822 285.377 433.061C285.137 433.3 284.812 433.436 284.473 433.438Z" fill="#E1E4E5"/>
<path d="M726.275 195.283C707.014 199.845 686.643 183.511 686.643 183.511C686.643 183.511 697.514 159.787 716.781 155.239C736.042 150.676 756.407 166.996 756.407 166.996C756.407 166.996 745.536 190.72 726.275 195.283Z" fill="url(#paint1_linear_1235_18276)"/>
<path d="M748.564 406.788C759.958 414.635 777.364 409.15 777.364 409.15C777.364 409.15 776.286 390.942 764.885 383.102C753.491 375.255 736.093 380.733 736.093 380.733C736.093 380.733 737.171 398.94 748.564 406.788Z" fill="url(#paint2_linear_1235_18276)"/>
<path d="M386.809 479.79C395.6 488.737 412.039 486.851 412.039 486.851C412.039 486.851 414.214 470.458 405.415 461.516C396.624 452.569 380.194 454.45 380.194 454.45C380.194 454.45 378.018 470.843 386.809 479.79Z" fill="url(#paint3_linear_1235_18276)"/>
<path d="M697.16 323.231C692.819 323.231 689.3 326.75 689.3 331.091C689.3 335.432 692.819 338.951 697.16 338.951C701.501 338.951 705.02 335.432 705.02 331.091C705.02 326.75 701.501 323.231 697.16 323.231Z" fill="#4F27AA"/>
<path d="M177.017 208.321C169.391 208.321 163.208 202.139 163.208 194.512C163.208 186.886 169.391 180.703 177.017 180.703C184.644 180.703 190.826 186.886 190.826 194.512C190.826 202.139 184.644 208.321 177.017 208.321Z" fill="#4F27AA"/>
<path d="M586.866 153.995C579.772 153.995 574.021 148.244 574.021 141.15C574.021 134.056 579.772 128.305 586.866 128.305C593.96 128.305 599.711 134.056 599.711 141.15C599.711 148.244 593.96 153.995 586.866 153.995Z" fill="#4F27AA"/>
<path d="M236.043 391.351C239.805 391.351 242.855 394.4 242.855 398.163C242.855 401.925 239.805 404.975 236.043 404.975C232.281 404.975 229.231 401.925 229.231 398.163C229.231 394.4 232.281 391.351 236.043 391.351Z" fill="#4F27AA"/>
<path d="M681.808 474.038C675.428 474.038 670.255 468.865 670.255 462.485C670.255 456.104 675.428 450.932 681.808 450.932C688.189 450.932 693.361 456.104 693.361 462.485C693.361 468.865 688.189 474.038 681.808 474.038Z" fill="#E1E4E5"/>
<path d="M164.879 333.711C160.593 333.711 157.119 330.237 157.119 325.951C157.119 321.666 160.593 318.191 164.879 318.191C169.165 318.191 172.639 321.666 172.639 325.951C172.639 330.237 169.165 333.711 164.879 333.711Z" fill="#E1E4E5"/>
<path d="M485.689 331.013C482.382 331.013 479.702 328.333 479.702 325.026C479.702 321.72 482.382 319.039 485.689 319.039C488.996 319.039 491.676 321.72 491.676 325.026C491.676 328.333 488.996 331.013 485.689 331.013Z" fill="#E1E4E5"/>
<path d="M647.087 183.26C642.04 183.26 637.949 179.169 637.949 174.122C637.949 169.076 642.04 164.984 647.087 164.984C652.134 164.984 656.225 169.076 656.225 174.122C656.225 179.169 652.134 183.26 647.087 183.26Z" fill="#E1E4E5"/>
<path d="M176.832 413.358C187.829 413.358 196.744 422.273 196.744 433.27C196.744 444.267 187.829 453.182 176.832 453.182C165.835 453.182 156.92 444.267 156.92 433.27C156.92 422.273 165.835 413.358 176.832 413.358Z" fill="url(#paint4_linear_1235_18276)"/>
<path d="M388.094 237.478C383.702 237.478 380.142 233.918 380.142 229.526C380.142 225.134 383.702 221.574 388.094 221.574C392.486 221.574 396.046 225.134 396.046 229.526C396.046 233.918 392.486 237.478 388.094 237.478Z" fill="#E1E4E5"/>
<path d="M677.249 354.671C671.751 354.671 667.293 351.152 667.293 346.811C667.293 342.47 671.751 338.951 677.249 338.951C682.748 338.951 687.205 342.47 687.205 346.811C687.205 351.152 682.748 354.671 677.249 354.671Z" fill="white"/>
<path d="M557.46 89.1816C559.115 95.357 555.45 101.705 549.275 103.359C543.099 105.014 536.752 101.349 535.097 95.1737C533.442 88.9983 537.107 82.6508 543.283 80.9961C549.458 79.3414 555.805 83.0062 557.46 89.1816Z" fill="#E1E4E5"/>
<path d="M322.091 458.641C321.161 455.17 323.22 451.603 326.69 450.674C330.16 449.744 333.727 451.803 334.657 455.273C335.587 458.743 333.528 462.31 330.057 463.24C326.587 464.17 323.02 462.111 322.091 458.641Z" fill="#E1E4E5"/>
<path d="M739.005 291.792H739.165C740.112 305.218 750.097 305.425 750.097 305.425C750.097 305.425 739.087 305.64 739.087 321.153C739.087 305.64 728.076 305.425 728.076 305.425C728.076 305.425 738.057 305.218 739.005 291.792ZM425.163 160.793H425.438C427.07 184.288 444.267 184.65 444.267 184.65C444.267 184.65 425.304 185.026 425.304 212.174C425.304 185.026 406.342 184.65 406.342 184.65C406.342 184.65 423.531 184.288 425.163 160.793Z" fill="#E1E4E5"/>
</g>
<defs>
<linearGradient id="paint0_linear_1235_18276" x1="448.172" y1="694.671" x2="441.154" y2="-266.809" gradientUnits="userSpaceOnUse">
<stop stop-color="white"/>
<stop offset="1" stop-color="#EEEEEE"/>
</linearGradient>
<linearGradient id="paint1_linear_1235_18276" x1="653.744" y1="206.628" x2="822.353" y2="126.971" gradientUnits="userSpaceOnUse">
<stop stop-color="white"/>
<stop offset="1" stop-color="#EEEEEE"/>
</linearGradient>
<linearGradient id="paint2_linear_1235_18276" x1="792.946" y1="432.537" x2="703.261" y2="337.966" gradientUnits="userSpaceOnUse">
<stop stop-color="white"/>
<stop offset="1" stop-color="#EEEEEE"/>
</linearGradient>
<linearGradient id="paint3_linear_1235_18276" x1="421.883" y1="510.352" x2="358.33" y2="410.727" gradientUnits="userSpaceOnUse">
<stop stop-color="white"/>
<stop offset="1" stop-color="#EEEEEE"/>
</linearGradient>
<linearGradient id="paint4_linear_1235_18276" x1="197.593" y1="371.119" x2="196.365" y2="476.592" gradientUnits="userSpaceOnUse">
<stop stop-color="white"/>
<stop offset="1" stop-color="#EEEEEE"/>
</linearGradient>
<clipPath id="clip0_1235_18276">
<rect width="900" height="600" fill="white"/>
</clipPath>
</defs>
</svg>
