<svg width="900" height="600" viewBox="0 0 900 600" fill="none" xmlns="http://www.w3.org/2000/svg">
<g clip-path="url(#clip0_1235_23995)">
<path d="M610.449 203.229C600.757 220.525 579.533 222.901 545.529 219.614C519.957 217.138 496.636 215.222 471.061 201.278C453.161 191.525 438.991 178.33 428.649 165.514C417.442 151.631 401.799 135.786 409.468 120.044C420.006 98.4197 480.948 80.2067 540.124 109.99C605.13 142.717 619.929 186.325 610.449 203.229Z" fill="url(#paint0_linear_1235_23995)"/>
<path d="M743.499 300.414C719.027 312.554 686.546 296.944 686.546 296.944C686.546 296.944 693.765 261.66 718.25 249.538C742.722 237.398 775.19 252.99 775.19 252.99C775.19 252.99 767.971 288.275 743.499 300.414Z" fill="url(#paint1_linear_1235_23995)"/>
<path d="M207.395 207.515C221.563 216.006 241.89 208.157 241.89 208.157C241.89 208.157 239.232 186.542 225.055 178.06C210.887 169.569 190.568 177.409 190.568 177.409C190.568 177.409 193.226 199.023 207.395 207.515Z" fill="url(#paint2_linear_1235_23995)"/>
<path d="M672.607 348.745C665.227 348.745 659.245 354.727 659.245 362.107C659.245 369.486 665.227 375.469 672.607 375.469C679.986 375.469 685.969 369.486 685.969 362.107C685.969 354.727 679.986 348.745 672.607 348.745Z" fill="#4F27AA"/>
<path d="M225.027 257.943C218.952 257.943 214.027 262.868 214.027 268.943C214.027 275.018 218.952 279.943 225.027 279.943C231.102 279.943 236.027 275.018 236.027 268.943C236.027 262.868 231.102 257.943 225.027 257.943Z" fill="#4F27AA"/>
<path d="M226.554 425.544C219.636 425.544 214.027 419.936 214.027 413.017C214.027 406.099 219.636 400.49 226.554 400.49C233.473 400.49 239.081 406.099 239.081 413.017C239.081 419.936 233.473 425.544 226.554 425.544Z" fill="#4F27AA"/>
<path d="M641.657 263.778C638.428 263.778 635.811 261.161 635.811 257.932C635.811 254.703 638.428 252.086 641.657 252.086C644.886 252.086 647.503 254.703 647.503 257.932C647.503 261.161 644.886 263.778 641.657 263.778Z" fill="#4F27AA"/>
<path d="M448.056 533.663C443.905 533.663 440.54 530.298 440.54 526.147C440.54 521.996 443.905 518.631 448.056 518.631C452.207 518.631 455.572 521.996 455.572 526.147C455.572 530.298 452.207 533.663 448.056 533.663Z" fill="#E1E4E5"/>
<path d="M123.558 430.316C117.562 430.316 112.701 425.455 112.701 419.459C112.701 413.462 117.562 408.602 123.558 408.602C129.554 408.602 134.415 413.462 134.415 419.459C134.415 425.455 129.554 430.316 123.558 430.316Z" fill="#E1E4E5"/>
<path d="M548.897 497.139C544.334 497.139 540.634 493.44 540.634 488.876C540.634 484.313 544.334 480.613 548.897 480.613C553.461 480.613 557.16 484.313 557.16 488.876C557.16 493.44 553.461 497.139 548.897 497.139Z" fill="#E1E4E5"/>
<path d="M647.927 183.563C642.853 183.563 638.74 179.45 638.74 174.376C638.74 169.303 642.853 165.189 647.927 165.189C653.001 165.189 657.114 169.303 657.114 174.376C657.114 179.45 653.001 183.563 647.927 183.563Z" fill="#E1E4E5"/>
<path d="M156.403 245.706C157.582 250.106 154.971 254.63 150.57 255.809C146.17 256.988 141.647 254.376 140.468 249.976C139.288 245.575 141.9 241.052 146.3 239.873C150.701 238.694 155.224 241.305 156.403 245.706Z" fill="#E1E4E5"/>
<path d="M311.897 160.776C305.836 160.776 300.923 155.863 300.923 149.802C300.923 143.741 305.836 138.828 311.897 138.828C317.958 138.828 322.871 143.741 322.871 149.802C322.871 155.863 317.958 160.776 311.897 160.776Z" fill="#E1E4E5"/>
<path d="M728.714 421.141C724.052 421.141 720.272 418.117 720.272 414.388C720.272 410.658 724.052 407.635 728.714 407.635C733.377 407.635 737.156 410.658 737.156 414.388C737.156 418.117 733.377 421.141 728.714 421.141Z" fill="#E1E4E5"/>
<path d="M317.053 480.536C319.507 489.696 314.072 499.11 304.913 501.564C295.754 504.018 286.339 498.583 283.885 489.424C281.431 480.265 286.866 470.85 296.025 468.396C305.184 465.942 314.599 471.377 317.053 480.536Z" fill="#E1E4E5"/>
<path d="M647.78 404.268H648.001C649.309 422.797 663.089 423.082 663.089 423.082C663.089 423.082 647.893 423.379 647.893 444.789C647.893 423.379 632.698 423.082 632.698 423.082C632.698 423.082 646.472 422.797 647.78 404.268ZM173.443 455.094H173.558C174.242 465.154 181.446 465.309 181.446 465.309C181.446 465.309 173.502 465.47 173.502 477.094C173.502 465.47 165.558 465.309 165.558 465.309C165.558 465.309 172.759 465.154 173.443 455.094Z" fill="#E1E4E5"/>
<path fill-rule="evenodd" clip-rule="evenodd" d="M530.305 138.186L494.891 102.929C490.186 98.2497 483.82 95.623 477.184 95.623H387.371C373.533 95.623 362.325 106.781 362.325 120.557V295.097C362.325 308.873 373.533 320.031 387.371 320.031H512.598C526.436 320.031 537.644 308.873 537.644 295.097V155.814C537.642 152.537 536.992 149.293 535.733 146.268C534.473 143.243 532.629 140.497 530.305 138.186Z" fill="white" stroke="#E1E4E5" stroke-width="4.374"/>
<path d="M476.371 148.219H418.925C398.64 148.219 382.196 164.663 382.196 184.948V242.394C382.196 262.679 398.64 279.123 418.925 279.123H476.371C496.656 279.123 513.1 262.679 513.1 242.394V184.948C513.1 164.663 496.656 148.219 476.371 148.219Z" fill="#4F27AA" stroke="white" stroke-width="18.364" stroke-linecap="round" stroke-linejoin="round"/>
<path d="M426.586 187.499C427.099 188.007 427.45 188.655 427.594 189.362C427.738 190.07 427.668 190.804 427.393 191.471C427.119 192.139 426.653 192.709 426.053 193.111C425.454 193.513 424.748 193.727 424.027 193.727C423.305 193.727 422.6 193.513 422 193.111C421.401 192.709 420.934 192.139 420.66 191.471C420.386 190.804 420.316 190.07 420.46 189.362C420.603 188.655 420.954 188.007 421.467 187.499C422.151 186.82 423.076 186.439 424.04 186.439C425.003 186.439 425.928 186.82 426.612 187.499M513.099 199.927C503.158 198.405 493.005 199.06 483.342 201.845C473.678 204.63 464.734 209.48 457.128 216.059C449.522 222.638 443.435 230.79 439.287 239.952C435.139 249.114 433.03 259.067 433.104 269.123C433.124 272.471 433.391 275.814 433.902 279.124" stroke="white" stroke-width="18.364" stroke-linecap="round" stroke-linejoin="round"/>
<path fill-rule="evenodd" clip-rule="evenodd" d="M770.432 305.01L757.391 256.769C755.656 250.364 751.456 244.906 745.709 241.589L667.928 196.682C655.945 189.763 640.659 193.822 633.771 205.753L546.502 356.908C539.614 368.839 543.741 384.106 555.725 391.025L664.175 453.638C676.158 460.557 691.444 456.498 698.332 444.568L767.973 323.946C769.609 321.107 770.669 317.972 771.091 314.723C771.513 311.473 771.289 308.172 770.432 305.01Z" fill="white" stroke="#E1E4E5" stroke-width="4.374"/>
<path d="M718.706 286.73L668.956 258.007C651.389 247.865 628.926 253.884 618.783 271.451L590.06 321.201C579.918 338.768 585.937 361.231 603.504 371.373L653.254 400.096C670.821 410.239 693.284 404.22 703.427 386.653L732.15 336.903C742.292 319.336 736.273 296.873 718.706 286.73Z" fill="#4F27AA" stroke="white" stroke-width="18.364" stroke-linecap="round" stroke-linejoin="round"/>
<path d="M655.951 295.855C656.094 296.376 656.12 296.922 656.026 297.453C655.932 297.985 655.721 298.489 655.408 298.929C655.095 299.369 654.689 299.733 654.218 299.997C653.746 300.26 653.223 300.416 652.684 300.452C652.146 300.488 651.606 300.403 651.104 300.205C650.602 300.007 650.15 299.699 649.782 299.305C649.413 298.91 649.137 298.439 648.973 297.925C648.809 297.41 648.762 296.866 648.834 296.331C648.93 295.616 649.237 294.946 649.715 294.406C650.193 293.865 650.82 293.479 651.518 293.296C652.45 293.051 653.441 293.183 654.275 293.665C655.109 294.147 655.72 294.939 655.973 295.868M724.66 349.875C716.812 343.587 707.692 339.078 697.93 336.658C688.169 334.239 677.999 333.967 668.122 335.862C658.246 337.757 648.898 341.773 640.725 347.633C632.552 353.493 625.748 361.057 620.784 369.803C619.127 372.713 617.687 375.742 616.475 378.863" stroke="white" stroke-width="18.364" stroke-linecap="round" stroke-linejoin="round"/>
<path fill-rule="evenodd" clip-rule="evenodd" d="M268.756 224.687L220.458 211.861C214.043 210.162 207.217 211.07 201.47 214.387L123.69 259.294C111.706 266.213 107.579 281.48 114.467 293.41L201.737 444.566C208.625 456.496 223.91 460.555 235.894 453.636L344.344 391.023C356.328 384.104 360.455 368.837 353.567 356.906L283.926 236.284C282.285 233.448 280.101 230.963 277.497 228.973C274.894 226.983 271.923 225.527 268.756 224.687Z" fill="white" stroke="#E1E4E5" stroke-width="4.374"/>
<path d="M227.063 260.344L177.313 289.067C159.746 299.21 153.727 321.673 163.869 339.24L192.592 388.99C202.735 406.557 225.198 412.576 242.765 402.433L292.515 373.71C310.082 363.568 316.101 341.105 305.959 323.538L277.236 273.788C267.093 256.221 244.63 250.202 227.063 260.344Z" fill="#4F27AA" stroke="white" stroke-width="18.364" stroke-linecap="round" stroke-linejoin="round"/>
<path d="M203.588 319.256C204.286 319.439 204.914 319.825 205.392 320.365C205.87 320.906 206.176 321.576 206.272 322.291C206.369 323.006 206.25 323.733 205.932 324.381C205.614 325.028 205.11 325.567 204.485 325.927C203.861 326.288 203.143 326.455 202.423 326.407C201.703 326.359 201.014 326.098 200.443 325.657C199.872 325.216 199.444 324.616 199.215 323.931C198.986 323.247 198.966 322.511 199.156 321.815C199.409 320.885 200.019 320.093 200.854 319.611C201.688 319.13 202.679 318.997 203.611 319.243M284.726 286.762C275.356 290.415 266.891 296.058 259.915 303.302C252.939 310.545 247.618 319.217 244.32 328.718C241.023 338.219 239.827 348.322 240.816 358.33C241.805 368.338 244.954 378.013 250.046 386.685C251.738 389.575 253.641 392.336 255.738 394.947" stroke="white" stroke-width="18.364" stroke-linecap="round" stroke-linejoin="round"/>
<path d="M449.884 503.735C510.273 503.735 559.228 454.78 559.228 394.391C559.228 334.002 510.273 285.047 449.884 285.047C389.495 285.047 340.54 334.002 340.54 394.391C340.54 454.78 389.495 503.735 449.884 503.735Z" fill="#4F27AA"/>
<path d="M458.824 357.254C458.824 352.317 454.821 348.314 449.884 348.314C444.946 348.314 440.944 352.317 440.944 357.254V431.526C440.944 436.464 444.946 440.466 449.884 440.466C454.821 440.466 458.824 436.464 458.824 431.526V357.254Z" fill="white"/>
<path d="M487.019 403.329C491.956 403.329 495.959 399.327 495.959 394.389C495.959 389.452 491.956 385.449 487.019 385.449H412.747C407.81 385.449 403.807 389.452 403.807 394.389C403.807 399.327 407.81 403.329 412.747 403.329H487.019Z" fill="white"/>
</g>
<defs>
<linearGradient id="paint0_linear_1235_23995" x1="545.162" y1="315.322" x2="458.783" y2="-72.8313" gradientUnits="userSpaceOnUse">
<stop stop-color="white"/>
<stop offset="1" stop-color="#EEEEEE"/>
</linearGradient>
<linearGradient id="paint1_linear_1235_23995" x1="649.524" y1="338.28" x2="851.37" y2="178.619" gradientUnits="userSpaceOnUse">
<stop stop-color="white"/>
<stop offset="1" stop-color="#EEEEEE"/>
</linearGradient>
<linearGradient id="paint2_linear_1235_23995" x1="262.222" y1="234.849" x2="148.219" y2="128.925" gradientUnits="userSpaceOnUse">
<stop stop-color="white"/>
<stop offset="1" stop-color="#EEEEEE"/>
</linearGradient>
<clipPath id="clip0_1235_23995">
<rect width="900" height="600" fill="white"/>
</clipPath>
</defs>
</svg>
