<svg width="900" height="600" viewBox="0 0 900 600" fill="none" xmlns="http://www.w3.org/2000/svg">
<g clip-path="url(#clip0_1235_24052)">
<path d="M464.632 501.426C580.729 501.426 674.845 407.31 674.845 291.213C674.845 175.116 580.729 81 464.632 81C348.535 81 254.419 175.116 254.419 291.213C254.419 407.31 348.535 501.426 464.632 501.426Z" fill="url(#paint0_linear_1235_24052)"/>
<path d="M113.808 373.148C132.695 384.468 159.792 374.004 159.792 374.004C159.792 374.004 156.249 345.191 137.35 333.884C118.463 322.564 91.378 333.015 91.378 333.015C91.378 333.015 94.921 361.829 113.808 373.148Z" fill="url(#paint1_linear_1235_24052)"/>
<path d="M712.899 209.263C703.04 209.263 695.048 217.255 695.048 227.114C695.048 236.973 703.04 244.965 712.899 244.965C722.758 244.965 730.75 236.973 730.75 227.114C730.75 217.255 722.758 209.263 712.899 209.263Z" fill="#4F27AA"/>
<path d="M338.529 212.516C330.413 212.516 323.834 219.095 323.834 227.211C323.834 235.327 330.413 241.906 338.529 241.906C346.645 241.906 353.224 235.327 353.224 227.211C353.224 219.095 346.645 212.516 338.529 212.516Z" fill="#4F27AA"/>
<path d="M664.707 517.957C659.161 517.957 654.666 513.461 654.666 507.916C654.666 502.371 659.161 497.875 664.707 497.875C670.252 497.875 674.748 502.371 674.748 507.916C674.748 513.461 670.252 517.957 664.707 517.957Z" fill="#E1E4E5"/>
<path d="M687.129 144.73C680.351 144.73 674.856 139.235 674.856 132.457C674.856 125.678 680.351 120.184 687.129 120.184C693.907 120.184 699.402 125.678 699.402 132.457C699.402 139.235 693.907 144.73 687.129 144.73Z" fill="#E1E4E5"/>
<path d="M169.906 217.769C171.482 223.648 167.993 229.691 162.113 231.267C156.234 232.842 150.191 229.353 148.615 223.474C147.04 217.594 150.529 211.551 156.408 209.976C162.288 208.4 168.331 211.889 169.906 217.769Z" fill="#E1E4E5"/>
<path d="M367.648 119.81C359.551 119.81 352.987 113.246 352.987 105.149C352.987 97.0522 359.551 90.4883 367.648 90.4883C375.745 90.4883 382.309 97.0522 382.309 105.149C382.309 113.246 375.745 119.81 367.648 119.81Z" fill="#E1E4E5"/>
<path d="M764.41 401.583C758.181 401.583 753.132 397.544 753.132 392.561C753.132 387.578 758.181 383.539 764.41 383.539C770.639 383.539 775.688 387.578 775.688 392.561C775.688 397.544 770.639 401.583 764.41 401.583Z" fill="#E1E4E5"/>
<path d="M209.464 144.652H209.625C210.576 158.132 220.601 158.339 220.601 158.339C220.601 158.339 209.546 158.555 209.546 174.13C209.546 158.555 198.492 158.339 198.492 158.339C198.492 158.339 208.513 158.132 209.464 144.652ZM276.818 483.621H276.972C277.885 497.06 287.51 497.267 287.51 497.267C287.51 497.267 276.897 497.482 276.897 513.011C276.897 497.482 266.284 497.267 266.284 497.267C266.284 497.267 275.904 497.06 276.818 483.621Z" fill="#E1E4E5"/>
<path fill-rule="evenodd" clip-rule="evenodd" d="M314.971 215.514C250.661 224.048 200.959 277.073 200.959 341.912C200.959 412.672 259.995 470.053 332.795 470.053H622.835C681.08 470.053 728.304 424.153 728.304 367.54C728.304 310.928 681.08 265.028 622.835 265.028C622.835 180.096 552.012 111.258 464.631 111.258C395.101 111.258 336.197 154.903 314.971 215.514Z" fill="#4F27AA"/>
<path d="M396.059 306.215L459.177 243.098L522.294 306.215M459.177 414.777V248.147" stroke="white" stroke-width="17.816" stroke-linecap="round" stroke-linejoin="round"/>
<path fill-rule="evenodd" clip-rule="evenodd" d="M135.286 466.846H139.928C141.05 466.846 141.954 467.759 141.954 468.872V473.515C141.953 474.052 141.74 474.567 141.36 474.947C140.98 475.327 140.465 475.541 139.928 475.541H135.286C134.749 475.539 134.235 475.325 133.856 474.945C133.476 474.566 133.262 474.052 133.26 473.515V468.872C133.259 468.606 133.311 468.342 133.413 468.096C133.514 467.85 133.663 467.626 133.852 467.438C134.04 467.25 134.264 467.1 134.51 466.999C134.756 466.897 135.02 466.845 135.286 466.846ZM151.379 466.846H156.021C157.134 466.846 158.048 467.759 158.048 468.872V473.515C158.047 474.052 157.833 474.567 157.453 474.947C157.073 475.327 156.558 475.541 156.021 475.541H151.379C150.842 475.539 150.328 475.325 149.949 474.945C149.569 474.566 149.355 474.052 149.353 473.515V468.872C149.353 467.759 150.266 466.846 151.379 466.846ZM167.485 466.846H172.127C173.24 466.846 174.153 467.759 174.153 468.872V473.515C174.152 474.052 173.939 474.567 173.559 474.947C173.179 475.327 172.664 475.541 172.127 475.541H167.485C166.948 475.539 166.434 475.325 166.055 474.945C165.675 474.566 165.461 474.052 165.459 473.515V468.872C165.458 468.606 165.51 468.342 165.612 468.096C165.713 467.85 165.862 467.626 166.051 467.438C166.239 467.25 166.463 467.1 166.709 466.999C166.955 466.897 167.219 466.845 167.485 466.846ZM183.579 466.846H188.221C189.334 466.846 190.247 467.759 190.247 468.872V473.515C190.246 474.052 190.033 474.567 189.653 474.947C189.273 475.327 188.758 475.541 188.221 475.541H183.579C183.041 475.541 182.525 475.328 182.143 474.948C181.762 474.569 181.546 474.053 181.543 473.515V468.872C181.549 468.335 181.766 467.822 182.147 467.443C182.527 467.064 183.042 466.85 183.579 466.846ZM199.675 466.846H204.317C205.44 466.846 206.353 467.759 206.353 468.872V473.515C206.352 473.782 206.299 474.046 206.197 474.292C206.094 474.538 205.944 474.762 205.755 474.95C205.566 475.138 205.342 475.287 205.095 475.389C204.848 475.49 204.584 475.542 204.317 475.541H199.675C199.138 475.539 198.624 475.325 198.245 474.945C197.865 474.566 197.651 474.052 197.649 473.515V468.872C197.649 467.759 198.562 466.846 199.675 466.846ZM151.97 484.397H156.612C157.725 484.397 158.638 485.31 158.638 486.423V491.075C158.636 491.612 158.422 492.126 158.042 492.505C157.663 492.885 157.149 493.099 156.612 493.101H151.97C151.433 493.101 150.918 492.887 150.538 492.507C150.158 492.127 149.945 491.612 149.944 491.075V486.432C149.942 486.165 149.994 485.901 150.095 485.654C150.196 485.407 150.345 485.182 150.533 484.993C150.722 484.804 150.946 484.654 151.192 484.551C151.439 484.449 151.703 484.397 151.97 484.397ZM168.065 484.397H172.707C173.82 484.397 174.733 485.31 174.733 486.423V491.075C174.731 491.612 174.517 492.126 174.137 492.505C173.758 492.885 173.244 493.099 172.707 493.101H168.065C167.528 493.099 167.014 492.885 166.634 492.506C166.255 492.126 166.04 491.612 166.038 491.075V486.432C166.037 486.165 166.088 485.901 166.189 485.654C166.29 485.407 166.44 485.182 166.628 484.993C166.816 484.804 167.04 484.654 167.287 484.551C167.534 484.449 167.798 484.397 168.065 484.397ZM184.16 484.397H188.802C189.925 484.397 190.838 485.31 190.838 486.423V491.075C190.835 491.613 190.62 492.129 190.238 492.508C189.857 492.888 189.34 493.101 188.802 493.101H184.16C183.623 493.099 183.109 492.885 182.73 492.505C182.35 492.126 182.136 491.612 182.134 491.075V486.432C182.134 485.31 183.047 484.397 184.16 484.397ZM167.485 447.992H172.127C173.24 447.992 174.153 448.905 174.153 450.018V454.66C174.153 455.198 173.939 455.713 173.559 456.093C173.18 456.473 172.664 456.687 172.127 456.687H167.485C166.948 456.685 166.434 456.471 166.054 456.091C165.675 455.711 165.461 455.197 165.459 454.66V450.018C165.458 449.752 165.51 449.488 165.612 449.242C165.713 448.996 165.862 448.772 166.051 448.584C166.239 448.396 166.463 448.246 166.709 448.145C166.955 448.043 167.219 447.991 167.485 447.992ZM183.579 447.992H188.221C189.334 447.992 190.247 448.905 190.247 450.018V454.66C190.247 455.198 190.033 455.713 189.653 456.093C189.274 456.473 188.758 456.687 188.221 456.687H183.579C183.041 456.687 182.524 456.474 182.143 456.094C181.761 455.714 181.546 455.199 181.543 454.66V450.018C181.549 449.481 181.766 448.968 182.147 448.589C182.527 448.21 183.042 447.996 183.579 447.992ZM724.392 466.846H729.034C730.156 466.846 731.06 467.759 731.06 468.872V473.515C731.059 474.052 730.846 474.567 730.466 474.947C730.086 475.327 729.571 475.541 729.034 475.541H724.392C723.855 475.539 723.341 475.325 722.962 474.945C722.582 474.566 722.368 474.052 722.366 473.515V468.872C722.365 468.606 722.417 468.342 722.519 468.096C722.62 467.85 722.769 467.626 722.958 467.438C723.146 467.25 723.37 467.1 723.616 466.999C723.862 466.897 724.126 466.845 724.392 466.846ZM740.485 466.846H745.127C746.24 466.846 747.154 467.759 747.154 468.872V473.515C747.153 474.052 746.939 474.567 746.559 474.947C746.179 475.327 745.664 475.541 745.127 475.541H740.485C739.948 475.539 739.434 475.325 739.055 474.945C738.675 474.566 738.461 474.052 738.459 473.515V468.872C738.459 467.759 739.372 466.846 740.485 466.846ZM756.591 466.846H761.233C762.346 466.846 763.259 467.759 763.259 468.872V473.515C763.258 474.052 763.045 474.567 762.665 474.947C762.285 475.327 761.77 475.541 761.233 475.541H756.591C756.054 475.539 755.54 475.325 755.161 474.945C754.781 474.566 754.567 474.052 754.565 473.515V468.872C754.564 468.606 754.616 468.342 754.718 468.096C754.819 467.85 754.968 467.626 755.157 467.438C755.345 467.25 755.569 467.1 755.815 466.999C756.061 466.897 756.325 466.845 756.591 466.846ZM772.685 466.846H777.327C778.44 466.846 779.353 467.759 779.353 468.872V473.515C779.352 474.052 779.139 474.567 778.759 474.947C778.379 475.327 777.864 475.541 777.327 475.541H772.685C772.147 475.541 771.631 475.328 771.249 474.948C770.868 474.569 770.652 474.053 770.649 473.515V468.872C770.655 468.335 770.872 467.822 771.253 467.443C771.633 467.064 772.148 466.85 772.685 466.846ZM788.781 466.846H793.423C794.546 466.846 795.459 467.759 795.459 468.872V473.515C795.458 473.782 795.405 474.046 795.303 474.292C795.2 474.538 795.05 474.762 794.861 474.95C794.672 475.138 794.447 475.287 794.201 475.389C793.954 475.49 793.69 475.542 793.423 475.541H788.781C788.244 475.539 787.73 475.325 787.351 474.945C786.971 474.566 786.757 474.052 786.755 473.515V468.872C786.755 467.759 787.668 466.846 788.781 466.846ZM741.076 484.397H745.718C746.831 484.397 747.744 485.31 747.744 486.423V491.075C747.742 491.612 747.528 492.126 747.148 492.505C746.769 492.885 746.255 493.099 745.718 493.101H741.076C740.539 493.101 740.024 492.887 739.644 492.507C739.264 492.127 739.051 491.612 739.05 491.075V486.432C739.048 486.165 739.1 485.901 739.201 485.654C739.302 485.407 739.451 485.182 739.639 484.993C739.828 484.804 740.052 484.654 740.298 484.551C740.545 484.449 740.809 484.397 741.076 484.397ZM757.171 484.397H761.813C762.926 484.397 763.839 485.31 763.839 486.423V491.075C763.837 491.612 763.623 492.126 763.243 492.505C762.864 492.885 762.35 493.099 761.813 493.101H757.171C756.634 493.099 756.12 492.885 755.74 492.506C755.361 492.126 755.146 491.612 755.144 491.075V486.432C755.143 486.165 755.194 485.901 755.295 485.654C755.396 485.407 755.546 485.182 755.734 484.993C755.922 484.804 756.146 484.654 756.393 484.551C756.64 484.449 756.904 484.397 757.171 484.397ZM773.266 484.397H777.908C779.031 484.397 779.944 485.31 779.944 486.423V491.075C779.941 491.613 779.726 492.129 779.344 492.508C778.963 492.888 778.446 493.101 777.908 493.101H773.266C772.729 493.099 772.215 492.885 771.836 492.505C771.456 492.126 771.242 491.612 771.24 491.075V486.432C771.24 485.31 772.153 484.397 773.266 484.397ZM756.591 447.992H761.233C762.346 447.992 763.259 448.905 763.259 450.018V454.66C763.259 455.198 763.045 455.713 762.665 456.093C762.285 456.473 761.77 456.687 761.233 456.687H756.591C756.054 456.685 755.54 456.471 755.16 456.091C754.781 455.711 754.567 455.197 754.565 454.66V450.018C754.564 449.752 754.616 449.488 754.718 449.242C754.819 448.996 754.968 448.772 755.157 448.584C755.345 448.396 755.569 448.246 755.815 448.145C756.061 448.043 756.325 447.991 756.591 447.992ZM772.685 447.992H777.327C778.44 447.992 779.353 448.905 779.353 450.018V454.66C779.353 455.198 779.139 455.713 778.759 456.093C778.379 456.473 777.864 456.687 777.327 456.687H772.685C772.147 456.687 771.63 456.474 771.249 456.094C770.867 455.714 770.652 455.199 770.649 454.66V450.018C770.655 449.481 770.872 448.968 771.253 448.589C771.633 448.21 772.148 447.996 772.685 447.992Z" fill="#E1E4E5"/>
</g>
<defs>
<linearGradient id="paint0_linear_1235_24052" x1="473.596" y1="737.141" x2="460.632" y2="-376.352" gradientUnits="userSpaceOnUse">
<stop stop-color="white"/>
<stop offset="1" stop-color="#EEEEEE"/>
</linearGradient>
<linearGradient id="paint1_linear_1235_24052" x1="186.896" y1="409.586" x2="34.923" y2="268.384" gradientUnits="userSpaceOnUse">
<stop stop-color="white"/>
<stop offset="1" stop-color="#EEEEEE"/>
</linearGradient>
<clipPath id="clip0_1235_24052">
<rect width="900" height="600" fill="white"/>
</clipPath>
</defs>
</svg>
