<svg width="900" height="600" viewBox="0 0 900 600" fill="none" xmlns="http://www.w3.org/2000/svg">
<g clip-path="url(#clip0_1235_24067)">
<path d="M483.097 544.166C617.743 544.166 726.895 435.014 726.895 300.368C726.895 165.722 617.743 56.5703 483.097 56.5703C348.451 56.5703 239.299 165.722 239.299 300.368C239.299 435.014 348.451 544.166 483.097 544.166Z" fill="url(#paint0_linear_1235_24067)"/>
<path fill-rule="evenodd" clip-rule="evenodd" d="M447.437 144.898L368.74 99.4162C363.574 96.4296 357.87 94.49 351.955 93.7081C346.039 92.9262 340.027 93.3174 334.263 94.8592L176.886 137.028C152.639 143.525 138.267 168.444 144.77 192.713L227.158 500.19C233.661 524.459 258.567 538.853 282.814 532.356L502.247 473.56C526.494 467.063 540.866 442.144 534.363 417.875L468.617 172.508C465.493 160.863 457.876 150.932 447.437 144.898Z" fill="white" stroke="#E1E4E5" stroke-width="3.68"/>
<path d="M443.225 356.649L276.691 401.271C270.56 402.914 266.921 409.217 268.564 415.348C270.207 421.48 276.509 425.119 282.641 423.476L449.174 378.853C455.306 377.21 458.945 370.908 457.302 364.776C455.659 358.645 449.356 355.006 443.225 356.649Z" fill="#E1E4E5"/>
<path d="M431.413 312.563L264.879 357.185C258.748 358.828 255.109 365.131 256.752 371.262C258.395 377.394 264.697 381.033 270.829 379.39L437.362 334.768C443.494 333.125 447.133 326.822 445.49 320.69C443.847 314.559 437.544 310.92 431.413 312.563Z" fill="#E1E4E5"/>
<path d="M419.572 268.371L253.038 312.994C246.907 314.637 243.268 320.939 244.911 327.071C246.554 333.203 252.856 336.842 258.988 335.199L425.521 290.576C431.653 288.933 435.292 282.631 433.649 276.499C432.006 270.367 425.703 266.728 419.572 268.371Z" fill="#E1E4E5"/>
<path d="M407.73 224.18L241.196 268.802C235.065 270.445 231.426 276.748 233.069 282.88C234.712 289.011 241.014 292.65 247.146 291.007L413.679 246.385C419.811 244.742 423.45 238.439 421.807 232.307C420.164 226.176 413.861 222.537 407.73 224.18Z" fill="#E1E4E5"/>
<path d="M395.89 179.985L229.356 224.607C223.225 226.25 219.586 232.553 221.229 238.684C222.872 244.816 229.174 248.455 235.306 246.812L401.839 202.189C407.971 200.546 411.61 194.244 409.967 188.112C408.324 181.981 402.021 178.342 395.89 179.985Z" fill="#E1E4E5"/>
<path d="M455.125 401.055L288.591 445.677C282.46 447.32 278.821 453.623 280.464 459.755C282.107 465.886 288.409 469.525 294.541 467.882L461.074 423.26C467.206 421.617 470.845 415.314 469.202 409.182C467.559 403.051 461.256 399.412 455.125 401.055Z" fill="#E1E4E5"/>
<path fill-rule="evenodd" clip-rule="evenodd" d="M699.52 162.488L635.275 98.1873C631.058 93.9657 626.051 90.6161 620.539 88.33C615.028 86.0438 609.12 84.8658 603.153 84.8633H440.225C415.122 84.8633 394.79 105.212 394.79 130.337V448.661C394.79 473.786 415.122 494.136 440.225 494.136H667.398C692.5 494.136 712.832 473.786 712.832 448.661V194.639C712.829 182.582 708.041 171.019 699.52 162.488Z" fill="white" stroke="#E1E4E5" stroke-width="3.68"/>
<path d="M640.647 365.934H468.239C461.891 365.934 456.745 371.08 456.745 377.428C456.745 383.776 461.891 388.922 468.239 388.922H640.647C646.995 388.922 652.141 383.776 652.141 377.428C652.141 371.08 646.995 365.934 640.647 365.934Z" fill="#E1E4E5"/>
<path d="M640.647 320.293H468.239C461.891 320.293 456.745 325.439 456.745 331.787C456.745 338.135 461.891 343.281 468.239 343.281H640.647C646.995 343.281 652.141 338.135 652.141 331.787C652.141 325.439 646.995 320.293 640.647 320.293Z" fill="#E1E4E5"/>
<path d="M640.647 274.539H468.239C461.891 274.539 456.745 279.685 456.745 286.033C456.745 292.381 461.891 297.527 468.239 297.527H640.647C646.995 297.527 652.141 292.381 652.141 286.033C652.141 279.685 646.995 274.539 640.647 274.539Z" fill="#E1E4E5"/>
<path d="M640.647 228.789H468.239C461.891 228.789 456.745 233.935 456.745 240.283C456.745 246.631 461.891 251.777 468.239 251.777H640.647C646.995 251.777 652.141 246.631 652.141 240.283C652.141 233.935 646.995 228.789 640.647 228.789Z" fill="#E1E4E5"/>
<path d="M640.647 183.039H468.239C461.891 183.039 456.745 188.185 456.745 194.533C456.745 200.881 461.891 206.027 468.239 206.027H640.647C646.995 206.027 652.141 200.881 652.141 194.533C652.141 188.185 646.995 183.039 640.647 183.039Z" fill="#E1E4E5"/>
<path d="M640.647 411.906H468.239C461.891 411.906 456.745 417.052 456.745 423.4C456.745 429.748 461.891 434.894 468.239 434.894H640.647C646.995 434.894 652.141 429.748 652.141 423.4C652.141 417.052 646.995 411.906 640.647 411.906Z" fill="#E1E4E5"/>
<path d="M766.279 536.354L699.531 466.234" stroke="#4F27AA" stroke-width="25.954" stroke-linecap="round" stroke-linejoin="round"/>
<path d="M643.686 518.832C711.246 518.832 766.014 464.064 766.014 396.504C766.014 328.944 711.246 274.176 643.686 274.176C576.126 274.176 521.358 328.944 521.358 396.504C521.358 464.064 576.126 518.832 643.686 518.832Z" fill="white" stroke="#4F27AA" stroke-width="23.807" stroke-linecap="round" stroke-linejoin="round"/>
</g>
<defs>
<linearGradient id="paint0_linear_1235_24067" x1="493.493" y1="817.542" x2="478.459" y2="-473.852" gradientUnits="userSpaceOnUse">
<stop stop-color="white"/>
<stop offset="1" stop-color="#EEEEEE"/>
</linearGradient>
<clipPath id="clip0_1235_24067">
<rect width="900" height="600" fill="white"/>
</clipPath>
</defs>
</svg>
