<svg width="900" height="600" viewBox="0 0 900 600" fill="none" xmlns="http://www.w3.org/2000/svg">
<g clip-path="url(#clip0_1235_24086)">
<path d="M444.295 512.644C567.177 512.644 666.793 413.029 666.793 290.146C666.793 167.264 567.177 67.6484 444.295 67.6484C321.413 67.6484 221.797 167.264 221.797 290.146C221.797 413.029 321.413 512.644 444.295 512.644Z" fill="url(#paint0_linear_1235_24086)"/>
<path fill-rule="evenodd" clip-rule="evenodd" d="M616.031 293.592H193.745C154.105 293.592 155.924 260.799 168.872 249.373C182.143 237.661 208.365 242.412 208.365 242.412C208.365 242.412 216.172 220.354 241.868 209.616C264.598 200.117 288.409 204.637 288.409 204.637C288.409 204.637 288.409 189.499 302.962 176.962C317.517 164.423 336.922 165.643 336.922 165.643C336.922 165.643 350.261 82.168 439.401 82.168C528.542 82.168 538.85 160.767 538.85 160.767C538.85 160.767 558.862 160.767 573.416 174.172C587.969 187.577 589.788 202.808 589.788 202.808C589.788 202.808 638.46 196.218 652.855 238.404C661.433 263.547 643.809 293.592 616.031 293.592Z" fill="white" stroke="#E1E4E5" stroke-width="4"/>
<path fill-rule="evenodd" clip-rule="evenodd" d="M486.221 375.406H350.912C338.814 375.406 333.602 359.757 343.501 352.817C343.639 352.717 343.78 352.618 343.92 352.522C358.016 342.844 376.515 343.723 376.515 343.723C376.515 343.723 379.155 291.355 428.926 291.355C473.925 291.355 491.869 335.478 498.342 359.788C500.444 367.685 494.402 375.406 486.221 375.406Z" fill="white" stroke="#E1E4E5" stroke-width="4"/>
<path fill-rule="evenodd" clip-rule="evenodd" d="M309.844 285.939C309.844 364.885 395.847 449.988 427.219 478.409C433.72 484.297 443.274 484.297 449.774 478.409C481.129 449.988 567.132 364.885 567.132 285.939C567.132 216.747 509.534 160.656 438.488 160.656C367.442 160.656 309.844 216.747 309.844 285.939Z" fill="#4F27AA" stroke="#4F27AA" stroke-width="23" stroke-linecap="round" stroke-linejoin="round"/>
<path d="M438.488 242.523V345.438M489.946 293.981H387.031" stroke="white" stroke-width="23" stroke-linecap="round" stroke-linejoin="round"/>
<path fill-rule="evenodd" clip-rule="evenodd" d="M159.509 442.106H346.082C361.186 442.106 367.701 422.794 355.336 414.225C355.164 414.106 354.988 413.983 354.812 413.864C337.21 401.917 314.109 403.002 314.109 403.002C314.109 403.002 310.808 338.378 248.654 338.378C217.925 338.378 193.091 390.242 193.091 390.242C193.091 390.242 151.288 390.242 144.37 422.828C142.279 432.7 149.29 442.106 159.509 442.106ZM591.252 406.839H743.176C755.475 406.839 760.781 391.003 750.712 383.976L750.285 383.68C735.952 373.883 717.141 374.773 717.141 374.773C717.141 374.773 714.453 321.781 663.842 321.781C638.82 321.781 618.598 364.31 618.598 364.31C618.598 364.31 584.558 364.31 578.925 391.031C577.222 399.126 582.931 406.839 591.252 406.839ZM636.524 525.09H509.477C499.191 525.09 494.755 512.15 503.175 506.409C503.292 506.329 503.412 506.247 503.532 506.167C515.518 498.163 531.249 498.89 531.249 498.89C531.249 498.89 533.496 455.591 575.82 455.591C596.746 455.591 613.656 490.34 613.656 490.34C613.656 490.34 642.122 490.34 646.833 512.173C648.257 518.787 643.483 525.09 636.524 525.09ZM373.049 532.351H258.44C249.162 532.351 245.16 520.57 252.756 515.343L253.077 515.123C263.89 507.835 278.081 508.497 278.081 508.497C278.081 508.497 280.108 469.076 318.289 469.076C337.165 469.076 352.421 500.713 352.421 500.713C352.421 500.713 378.099 500.713 382.349 520.591C383.634 526.613 379.327 532.351 373.049 532.351Z" fill="white" stroke="#E1E4E5" stroke-width="4"/>
</g>
<defs>
<linearGradient id="paint0_linear_1235_24086" x1="453.783" y1="762.135" x2="440.062" y2="-416.433" gradientUnits="userSpaceOnUse">
<stop stop-color="white"/>
<stop offset="1" stop-color="#EEEEEE"/>
</linearGradient>
<clipPath id="clip0_1235_24086">
<rect width="900" height="600" fill="white"/>
</clipPath>
</defs>
</svg>
