<svg width="900" height="600" viewBox="0 0 900 600" fill="none" xmlns="http://www.w3.org/2000/svg">
<g clip-path="url(#clip0_1235_24094)">
<path d="M606.693 205.487C597.229 222.378 576.5 224.699 543.292 221.489C518.317 219.071 495.541 217.199 470.564 203.581C453.082 194.057 439.244 181.17 429.143 168.654C418.198 155.095 402.921 139.62 410.41 124.246C420.702 103.128 480.22 85.3408 538.013 114.428C601.499 146.389 615.952 188.978 606.693 205.487Z" fill="url(#paint0_linear_1235_24094)"/>
<path d="M736.634 300.4C712.733 312.256 681.012 297.012 681.012 297.012C681.012 297.012 688.062 262.553 711.975 250.713C735.875 238.858 767.583 254.085 767.583 254.085C767.583 254.085 760.534 288.545 736.634 300.4Z" fill="url(#paint1_linear_1235_24094)"/>
<path d="M213.061 209.671C226.898 217.964 246.749 210.297 246.749 210.297C246.749 210.297 244.154 189.188 230.308 180.905C216.471 172.612 196.628 180.268 196.628 180.268C196.628 180.268 199.224 201.378 213.061 209.671Z" fill="url(#paint2_linear_1235_24094)"/>
<path d="M667.398 347.599C660.191 347.599 654.348 353.442 654.348 360.649C654.348 367.857 660.191 373.699 667.398 373.699C674.605 373.699 680.448 367.857 680.448 360.649C680.448 353.442 674.605 347.599 667.398 347.599Z" fill="#4F27AA"/>
<path d="M199.743 264.998C193.81 264.998 189 269.808 189 275.741C189 281.675 193.81 286.484 199.743 286.484C205.676 286.484 210.486 281.675 210.486 275.741C210.486 269.808 205.676 264.998 199.743 264.998Z" fill="#4F27AA"/>
<path d="M231.772 422.605C225.015 422.605 219.538 417.127 219.538 410.371C219.538 403.614 225.015 398.137 231.772 398.137C238.529 398.137 244.006 403.614 244.006 410.371C244.006 417.127 238.529 422.605 231.772 422.605Z" fill="#4F27AA"/>
<path d="M637.173 264.617C634.02 264.617 631.464 262.061 631.464 258.908C631.464 255.755 634.02 253.199 637.173 253.199C640.326 253.199 642.882 255.755 642.882 258.908C642.882 262.061 640.326 264.617 637.173 264.617Z" fill="#4F27AA"/>
<path d="M254.341 152.682C250.287 152.682 247 149.395 247 145.341C247 141.287 250.287 138 254.341 138C258.395 138 261.682 141.287 261.682 145.341C261.682 149.395 258.395 152.682 254.341 152.682Z" fill="#E1E4E5"/>
<path d="M131.184 427.265C125.328 427.265 120.581 422.517 120.581 416.662C120.581 410.806 125.328 406.059 131.184 406.059C137.04 406.059 141.787 410.806 141.787 416.662C141.787 422.517 137.04 427.265 131.184 427.265Z" fill="#E1E4E5"/>
<path d="M546.58 492.527C542.123 492.527 538.51 488.914 538.51 484.457C538.51 480 542.123 476.387 546.58 476.387C551.037 476.387 554.65 480 554.65 484.457C554.65 488.914 551.037 492.527 546.58 492.527Z" fill="#E1E4E5"/>
<path d="M651.972 184.944C647.017 184.944 643 180.927 643 175.972C643 171.017 647.017 167 651.972 167C656.927 167 660.944 171.017 660.944 175.972C660.944 180.927 656.927 184.944 651.972 184.944Z" fill="#E1E4E5"/>
<path d="M163.261 246.971C164.413 251.269 161.862 255.687 157.564 256.839C153.266 257.991 148.848 255.44 147.696 251.142C146.544 246.844 149.095 242.426 153.393 241.274C157.691 240.122 162.109 242.673 163.261 246.971Z" fill="#E1E4E5"/>
<path d="M315.12 164.026C309.201 164.026 304.402 159.227 304.402 153.308C304.402 147.388 309.201 142.59 315.12 142.59C321.039 142.59 325.838 147.388 325.838 153.308C325.838 159.227 321.039 164.026 315.12 164.026Z" fill="#E1E4E5"/>
<path d="M722.194 418.305C717.64 418.305 713.949 415.352 713.949 411.709C713.949 408.066 717.64 405.113 722.194 405.113C726.748 405.113 730.439 408.066 730.439 411.709C730.439 415.352 726.748 418.305 722.194 418.305Z" fill="#E1E4E5"/>
<path d="M320.155 476.313C322.552 485.258 317.243 494.452 308.299 496.849C299.354 499.245 290.16 493.937 287.763 484.993C285.367 476.048 290.675 466.854 299.62 464.457C308.564 462.061 317.758 467.369 320.155 476.313Z" fill="#E1E4E5"/>
<path d="M643.152 401.824H643.368C644.645 419.92 658.103 420.198 658.103 420.198C658.103 420.198 643.263 420.488 643.263 441.398C643.263 420.488 628.423 420.198 628.423 420.198C628.423 420.198 641.875 419.92 643.152 401.824ZM179.902 451.462H180.015C180.683 461.286 187.719 461.438 187.719 461.438C187.719 461.438 179.96 461.595 179.96 472.947C179.96 461.595 172.202 461.438 172.202 461.438C172.202 461.438 179.235 461.286 179.902 451.462Z" fill="#E1E4E5"/>
<path d="M449.705 494.656C564.743 494.656 658 401.4 658 286.361C658 171.323 564.743 78.0664 449.705 78.0664C334.667 78.0664 241.41 171.323 241.41 286.361C241.41 401.4 334.667 494.656 449.705 494.656Z" fill="url(#paint3_linear_1235_24094)"/>
<path d="M449.01 142.312H449.009C369.746 142.312 305.49 206.568 305.49 285.831V285.833C305.49 365.096 369.746 429.352 449.009 429.352H449.01C528.273 429.352 592.529 365.096 592.529 285.833V285.831C592.529 206.568 528.273 142.312 449.01 142.312Z" fill="#4F27AA"/>
<path fill-rule="evenodd" clip-rule="evenodd" d="M514.239 346.037V355.634C514.239 360.931 509.996 365.231 504.768 365.231H391.123C385.895 365.231 381.653 360.931 381.653 355.634V345.884C381.653 316.844 414.401 297.977 447.946 297.977C481.49 297.977 514.239 316.854 514.239 345.884M471.715 213.67C484.847 226.802 484.847 248.093 471.715 261.225C458.583 274.357 437.291 274.357 424.159 261.225C411.027 248.093 411.027 226.802 424.159 213.67C437.291 200.537 458.583 200.537 471.715 213.67Z" fill="white"/>
<path d="M449.202 521.806C484.845 521.806 513.74 492.912 513.74 457.268C513.74 421.625 484.845 392.73 449.202 392.73C413.559 392.73 384.664 421.625 384.664 457.268C384.664 492.912 413.559 521.806 449.202 521.806Z" fill="#2E2445"/>
<path d="M454.479 435.351C454.479 432.437 452.117 430.074 449.203 430.074C446.288 430.074 443.926 432.437 443.926 435.351V479.187C443.926 482.102 446.288 484.464 449.203 484.464C452.117 484.464 454.479 482.102 454.479 479.187V435.351Z" fill="white"/>
<path d="M471.12 462.545C474.034 462.545 476.397 460.183 476.397 457.269C476.397 454.355 474.034 451.992 471.12 451.992H427.284C424.37 451.992 422.007 454.355 422.007 457.269C422.007 460.183 424.37 462.545 427.284 462.545H471.12Z" fill="white"/>
</g>
<defs>
<linearGradient id="paint0_linear_1235_24094" x1="542.933" y1="314.96" x2="458.573" y2="-64.1212" gradientUnits="userSpaceOnUse">
<stop stop-color="white"/>
<stop offset="1" stop-color="#EEEEEE"/>
</linearGradient>
<linearGradient id="paint1_linear_1235_24094" x1="644.855" y1="337.381" x2="841.983" y2="181.453" gradientUnits="userSpaceOnUse">
<stop stop-color="white"/>
<stop offset="1" stop-color="#EEEEEE"/>
</linearGradient>
<linearGradient id="paint2_linear_1235_24094" x1="266.606" y1="236.366" x2="155.268" y2="132.918" gradientUnits="userSpaceOnUse">
<stop stop-color="white"/>
<stop offset="1" stop-color="#EEEEEE"/>
</linearGradient>
<linearGradient id="paint3_linear_1235_24094" x1="458.588" y1="728.22" x2="445.742" y2="-375.112" gradientUnits="userSpaceOnUse">
<stop stop-color="white"/>
<stop offset="1" stop-color="#EEEEEE"/>
</linearGradient>
<clipPath id="clip0_1235_24094">
<rect width="900" height="600" fill="white"/>
</clipPath>
</defs>
</svg>
