<svg width="900" height="600" viewBox="0 0 900 600" fill="none" xmlns="http://www.w3.org/2000/svg">
<g clip-path="url(#clip0_1235_24118)">
<path d="M646.613 431.582C637.112 485.584 507.646 569.79 388.464 499.784C333.034 467.224 345.298 437.415 309.341 386.014C287.909 355.379 253.264 327.927 250.661 290.032C248.407 257.321 261.77 225.83 282.946 208.249C330.569 168.71 411.824 152.942 466.773 245.45C521.722 337.957 671.101 292.304 646.613 431.582Z" fill="url(#paint0_linear_1235_24118)"/>
<path d="M698.821 237.699C686.473 259.738 659.428 262.766 616.1 258.578C583.514 255.422 553.799 252.981 521.211 235.213C498.401 222.786 480.346 205.972 467.168 189.642C452.888 171.951 432.956 151.762 442.727 131.703C456.155 104.149 533.808 80.9433 609.212 118.893C692.044 160.593 710.902 216.16 698.821 237.699Z" fill="url(#paint1_linear_1235_24118)"/>
<path d="M782.299 283.777C759.035 295.317 728.159 280.478 728.159 280.478C728.159 280.478 735.021 246.937 758.297 235.413C781.56 223.873 812.424 238.695 812.424 238.695C812.424 238.695 805.562 272.237 782.299 283.777Z" fill="url(#paint2_linear_1235_24118)"/>
<path d="M120.084 366.537C144.887 381.402 180.471 367.66 180.471 367.66C180.471 367.66 175.818 329.822 151 314.974C126.197 300.109 90.6279 313.834 90.6279 313.834C90.6279 313.834 95.2809 351.672 120.084 366.537Z" fill="url(#paint3_linear_1235_24118)"/>
<path d="M736.524 193.744C729.509 193.744 723.822 199.431 723.822 206.446C723.822 213.462 729.509 219.148 736.524 219.148C743.539 219.148 749.226 213.462 749.226 206.446C749.226 199.431 743.539 193.744 736.524 193.744Z" fill="#4F27AA"/>
<path d="M348.169 233.898C342.394 233.898 337.712 238.58 337.712 244.355C337.712 250.131 342.394 254.812 348.169 254.812C353.944 254.812 358.626 250.131 358.626 244.355C358.626 238.58 353.944 233.898 348.169 233.898Z" fill="#4F27AA"/>
<path d="M212.142 346.631C205.565 346.631 200.233 341.299 200.233 334.722C200.233 328.144 205.565 322.812 212.142 322.812C218.719 322.812 224.051 328.144 224.051 334.722C224.051 341.299 218.719 346.631 212.142 346.631Z" fill="#4F27AA"/>
<path d="M711.122 277.927C708.053 277.927 705.565 275.439 705.565 272.37C705.565 269.3 708.053 266.812 711.122 266.812C714.191 266.812 716.679 269.3 716.679 272.37C716.679 275.439 714.191 277.927 711.122 277.927Z" fill="#4F27AA"/>
<path d="M707.914 488.477C703.968 488.477 700.769 485.279 700.769 481.332C700.769 477.386 703.968 474.188 707.914 474.188C711.86 474.188 715.059 477.386 715.059 481.332C715.059 485.279 711.86 488.477 707.914 488.477Z" fill="#E1E4E5"/>
<path d="M155.224 448.634C152.29 448.634 149.911 446.255 149.911 443.321C149.911 440.387 152.29 438.008 155.224 438.008C158.158 438.008 160.537 440.387 160.537 443.321C160.537 446.255 158.158 448.634 155.224 448.634Z" fill="#E1E4E5"/>
<path d="M744.3 418.546C739.962 418.546 736.445 415.029 736.445 410.691C736.445 406.353 739.962 402.836 744.3 402.836C748.638 402.836 752.155 406.353 752.155 410.691C752.155 415.029 748.638 418.546 744.3 418.546Z" fill="#E1E4E5"/>
<path d="M660.943 176.599C656.12 176.599 652.21 172.689 652.21 167.866C652.21 163.043 656.12 159.133 660.943 159.133C665.766 159.133 669.676 163.043 669.676 167.866C669.676 172.689 665.766 176.599 660.943 176.599Z" fill="#E1E4E5"/>
<path d="M191.454 264.937C192.575 269.121 190.092 273.421 185.909 274.542C181.726 275.663 177.426 273.18 176.305 268.997C175.184 264.813 177.666 260.513 181.85 259.392C186.033 258.271 190.333 260.754 191.454 264.937Z" fill="#E1E4E5"/>
<path d="M390.753 111.432C386.768 111.432 383.537 108.201 383.537 104.216C383.537 100.231 386.768 97 390.753 97C394.738 97 397.969 100.231 397.969 104.216C397.969 108.201 394.738 111.432 390.753 111.432Z" fill="#E1E4E5"/>
<path d="M715.71 373.602C711.278 373.602 707.685 370.727 707.685 367.182C707.685 363.636 711.278 360.762 715.71 360.762C720.142 360.762 723.735 363.636 723.735 367.182C723.735 370.727 720.142 373.602 715.71 373.602Z" fill="#E1E4E5"/>
<path d="M580.112 95.8048C582.445 104.511 577.278 113.461 568.572 115.794C559.865 118.127 550.916 112.96 548.583 104.253C546.25 95.5465 551.417 86.597 560.123 84.2641C568.83 81.9311 577.779 87.0981 580.112 95.8048Z" fill="#E1E4E5"/>
<path d="M219.603 212.91H219.718C220.395 222.501 227.528 222.649 227.528 222.649C227.528 222.649 219.662 222.803 219.662 233.886C219.662 222.803 211.796 222.649 211.796 222.649C211.796 222.649 218.926 222.501 219.603 212.91ZM207.653 463.983H207.763C208.413 473.546 215.261 473.694 215.261 473.694C215.261 473.694 207.709 473.847 207.709 484.897C207.709 473.847 200.157 473.694 200.157 473.694C200.157 473.694 207.003 473.546 207.653 463.983Z" fill="#E1E4E5"/>
<path fill-rule="evenodd" clip-rule="evenodd" d="M268.692 225.277L230.703 187.458C225.656 182.439 218.827 179.621 211.709 179.621H115.368C100.525 179.621 88.502 191.59 88.502 206.368V393.593C88.502 408.37 100.525 420.339 115.368 420.339H249.698C264.541 420.339 276.563 408.37 276.563 393.593V244.187C276.56 240.672 275.864 237.192 274.513 233.947C273.162 230.702 271.184 227.756 268.692 225.277Z" fill="white" stroke="#E1E4E5" stroke-width="4.64"/>
<path d="M135.021 374.938H228.516M135.021 348.645H228.516" stroke="#E1E4E5" stroke-width="10" stroke-linecap="round" stroke-linejoin="round"/>
<path fill-rule="evenodd" clip-rule="evenodd" d="M224.013 311.965V318.006C224.013 321.341 221.327 324.048 218.017 324.048H146.073C142.763 324.048 140.077 321.341 140.077 318.006V311.868C140.077 293.586 160.809 281.709 182.045 281.709C203.281 281.709 224.013 293.592 224.013 311.868M196.38 237.508C204.502 245.92 204.502 259.559 196.38 267.972C188.258 276.384 175.089 276.384 166.967 267.972C158.845 259.559 158.845 245.92 166.967 237.508C175.089 229.096 188.258 229.096 196.38 237.508Z" fill="#4F27AA"/>
<path fill-rule="evenodd" clip-rule="evenodd" d="M572.849 193.918L518.913 140.221C511.747 133.094 502.051 129.094 491.945 129.094H355.159C334.084 129.094 317.014 146.088 317.014 167.069V432.893C317.014 453.874 334.084 470.868 355.159 470.868H545.881C566.955 470.868 584.025 453.874 584.025 432.893V220.766C584.021 215.775 583.032 210.834 581.114 206.227C579.197 201.62 576.388 197.437 572.849 193.918Z" fill="white" stroke="#E1E4E5" stroke-width="4.64"/>
<path d="M383.062 369.07H515.806" stroke="#E1E4E5" stroke-width="10" stroke-linecap="round" stroke-linejoin="round"/>
<path fill-rule="evenodd" clip-rule="evenodd" d="M509.413 316.992V325.57C509.413 330.305 505.599 334.147 500.901 334.147H398.753C394.054 334.147 390.241 330.305 390.241 325.57V316.855C390.241 290.898 419.676 274.034 449.827 274.034C479.977 274.034 509.413 290.907 509.413 316.855M470.18 211.278C481.712 223.221 481.712 242.586 470.18 254.53C458.648 266.474 439.951 266.474 428.419 254.53C416.887 242.586 416.887 223.221 428.419 211.278C439.951 199.334 458.648 199.334 470.18 211.278Z" fill="#4F27AA"/>
<path fill-rule="evenodd" clip-rule="evenodd" d="M804.665 225.277L766.677 187.458C761.63 182.439 754.801 179.621 747.683 179.621H651.342C636.498 179.621 624.476 191.59 624.476 206.368V393.593C624.476 408.37 636.498 420.339 651.342 420.339H785.671C800.515 420.339 812.537 408.37 812.537 393.593V244.187C812.535 240.672 811.838 237.192 810.487 233.947C809.136 230.702 807.158 227.756 804.665 225.277Z" fill="white" stroke="#E1E4E5" stroke-width="4.64"/>
<path d="M670.994 374.938H764.489M670.994 348.645H764.489" stroke="#E1E4E5" stroke-width="10" stroke-linecap="round" stroke-linejoin="round"/>
<path fill-rule="evenodd" clip-rule="evenodd" d="M759.986 311.965V318.006C759.986 321.341 757.3 324.048 753.991 324.048H682.046C678.737 324.048 676.051 321.341 676.051 318.006V311.868C676.051 293.586 696.783 281.709 718.018 281.709C739.254 281.709 759.986 293.592 759.986 311.868M732.354 237.508C740.476 245.92 740.476 259.559 732.354 267.972C724.231 276.384 711.063 276.384 702.941 267.972C694.818 259.559 694.818 245.92 702.941 237.508C711.063 229.096 724.231 229.096 732.354 237.508Z" fill="#4F27AA"/>
<path d="M594.335 438.149L544.315 388.129" stroke="#4F27AA" stroke-width="28.186" stroke-linecap="round" stroke-linejoin="round"/>
<path d="M449.781 417.488C529.445 417.488 594.025 352.908 594.025 273.244C594.025 193.58 529.445 129 449.781 129C370.117 129 305.537 193.58 305.537 273.244C305.537 352.908 370.117 417.488 449.781 417.488Z" stroke="#4F27AA" stroke-width="25.854" stroke-linecap="round" stroke-linejoin="round"/>
</g>
<defs>
<linearGradient id="paint0_linear_1235_24118" x1="447.7" y1="722.283" x2="457.181" y2="-202.951" gradientUnits="userSpaceOnUse">
<stop stop-color="white"/>
<stop offset="1" stop-color="#EEEEEE"/>
</linearGradient>
<linearGradient id="paint1_linear_1235_24118" x1="615.632" y1="380.531" x2="505.565" y2="-114.063" gradientUnits="userSpaceOnUse">
<stop stop-color="white"/>
<stop offset="1" stop-color="#EEEEEE"/>
</linearGradient>
<linearGradient id="paint2_linear_1235_24118" x1="692.964" y1="319.773" x2="884.843" y2="167.996" gradientUnits="userSpaceOnUse">
<stop stop-color="white"/>
<stop offset="1" stop-color="#EEEEEE"/>
</linearGradient>
<linearGradient id="paint3_linear_1235_24118" x1="216.064" y1="414.388" x2="16.4919" y2="228.958" gradientUnits="userSpaceOnUse">
<stop stop-color="white"/>
<stop offset="1" stop-color="#EEEEEE"/>
</linearGradient>
<clipPath id="clip0_1235_24118">
<rect width="900" height="600" fill="white"/>
</clipPath>
</defs>
</svg>
