<svg width="900" height="600" viewBox="0 0 900 600" fill="none" xmlns="http://www.w3.org/2000/svg">
<g clip-path="url(#clip0_1235_24148)">
<path d="M703.779 443.025C692.544 506.879 539.458 606.447 398.532 523.67C332.989 485.169 347.491 449.921 304.975 389.143C279.632 352.918 238.666 320.458 235.588 275.649C232.923 236.971 248.725 199.735 273.763 178.947C330.075 132.194 426.154 113.549 491.128 222.934C556.102 332.319 732.734 278.337 703.779 443.025Z" fill="url(#paint0_linear_1235_24148)"/>
<path d="M716.263 233.165C703.021 256.798 674.02 260.045 627.558 255.554C592.615 252.17 560.751 249.552 525.805 230.499C501.346 217.173 481.984 199.144 467.853 181.632C452.54 162.662 431.166 141.011 441.644 119.502C456.044 89.9554 539.314 65.0704 620.172 105.765C708.995 150.482 729.217 210.068 716.263 233.165Z" fill="url(#paint1_linear_1235_24148)"/>
<path d="M805.779 282.575C780.832 294.949 747.722 279.037 747.722 279.037C747.722 279.037 755.081 243.069 780.041 230.712C804.987 218.337 838.084 234.232 838.084 234.232C838.084 234.232 830.725 270.2 805.779 282.575Z" fill="url(#paint2_linear_1235_24148)"/>
<path d="M95.6629 371.322C122.26 387.263 160.418 372.527 160.418 372.527C160.418 372.527 155.429 331.952 128.816 316.03C102.219 300.089 64.0769 314.807 64.0769 314.807C64.0769 314.807 69.0669 355.382 95.6629 371.322Z" fill="url(#paint3_linear_1235_24148)"/>
<path d="M756.693 186.031C749.17 186.031 743.072 192.13 743.072 199.652C743.072 207.175 749.17 213.273 756.693 213.273C764.216 213.273 770.314 207.175 770.314 199.652C770.314 192.13 764.216 186.031 756.693 186.031Z" fill="#4F27AA"/>
<path d="M579.432 418.097C567.625 418.097 558.053 427.669 558.053 439.476C558.053 451.284 567.625 460.855 579.432 460.855C591.239 460.855 600.811 451.284 600.811 439.476C600.811 427.669 591.239 418.097 579.432 418.097Z" fill="#4F27AA"/>
<path d="M320.597 195.308C314.404 195.308 309.384 200.329 309.384 206.521C309.384 212.714 314.404 217.734 320.597 217.734C326.79 217.734 331.81 212.714 331.81 206.521C331.81 200.329 326.79 195.308 320.597 195.308Z" fill="#4F27AA"/>
<path d="M194.38 349.974C187.327 349.974 181.61 344.256 181.61 337.204C181.61 330.151 187.327 324.434 194.38 324.434C201.433 324.434 207.15 330.151 207.15 337.204C207.15 344.256 201.433 349.974 194.38 349.974Z" fill="#4F27AA"/>
<path d="M729.453 276.305C726.162 276.305 723.494 273.637 723.494 270.346C723.494 267.055 726.162 264.387 729.453 264.387C732.744 264.387 735.412 267.055 735.412 270.346C735.412 273.637 732.744 276.305 729.453 276.305Z" fill="#4F27AA"/>
<path d="M726.014 502.082C721.782 502.082 718.352 498.651 718.352 494.42C718.352 490.188 721.782 486.758 726.014 486.758C730.245 486.758 733.676 490.188 733.676 494.42C733.676 498.651 730.245 502.082 726.014 502.082Z" fill="#E1E4E5"/>
<path d="M138.715 450.56C132.603 450.56 127.648 445.605 127.648 439.493C127.648 433.381 132.603 428.426 138.715 428.426C144.827 428.426 149.782 433.381 149.782 439.493C149.782 445.605 144.827 450.56 138.715 450.56Z" fill="#E1E4E5"/>
<path d="M765.032 427.092C760.38 427.092 756.609 423.321 756.609 418.669C756.609 414.017 760.38 410.246 765.032 410.246C769.684 410.246 773.455 414.017 773.455 418.669C773.455 423.321 769.684 427.092 765.032 427.092Z" fill="#E1E4E5"/>
<path d="M675.645 167.644C670.473 167.644 666.28 163.451 666.28 158.279C666.28 153.107 670.473 148.914 675.645 148.914C680.817 148.914 685.01 153.107 685.01 158.279C685.01 163.451 680.817 167.644 675.645 167.644Z" fill="#E1E4E5"/>
<path d="M172.197 262.371C173.399 266.857 170.737 271.468 166.251 272.67C161.765 273.872 157.154 271.21 155.952 266.724C154.75 262.238 157.412 257.627 161.898 256.425C166.384 255.223 170.995 257.885 172.197 262.371Z" fill="#E1E4E5"/>
<path d="M381.39 111.147C375.211 111.147 370.203 106.139 370.203 99.9604C370.203 93.782 375.211 88.7734 381.39 88.7734C387.568 88.7734 392.577 93.782 392.577 99.9604C392.577 106.139 387.568 111.147 381.39 111.147Z" fill="#E1E4E5"/>
<path d="M734.374 378.897C729.622 378.897 725.769 375.815 725.769 372.013C725.769 368.211 729.622 365.129 734.374 365.129C739.126 365.129 742.979 368.211 742.979 372.013C742.979 375.815 739.126 378.897 734.374 378.897Z" fill="#E1E4E5"/>
<path d="M588.967 81.0056C591.468 90.3418 585.928 99.9383 576.592 102.44C567.256 104.942 557.659 99.401 555.158 90.0648C552.656 80.7286 558.196 71.1322 567.533 68.6306C576.869 66.1289 586.465 71.6694 588.967 81.0056Z" fill="#E1E4E5"/>
<path d="M202.381 206.586H202.504C203.23 216.871 210.879 217.03 210.879 217.03C210.879 217.03 202.444 217.194 202.444 229.079C202.444 217.194 194.009 217.03 194.009 217.03C194.009 217.03 201.655 216.871 202.381 206.586ZM189.566 475.82H189.684C190.381 486.075 197.725 486.233 197.725 486.233C197.725 486.233 189.627 486.397 189.627 498.247C189.627 486.397 181.528 486.233 181.528 486.233C181.528 486.233 188.869 486.075 189.566 475.82Z" fill="#E1E4E5"/>
<path fill-rule="evenodd" clip-rule="evenodd" d="M479.442 155.102H569.836C593.789 155.102 613.187 174.5 613.187 198.433V288.826C613.182 300.322 608.615 311.347 600.489 319.48L427.123 492.845C410.199 509.77 382.762 509.77 365.837 492.845L275.444 402.452C258.52 385.528 258.52 358.09 275.444 341.166L448.81 167.8C456.934 159.674 467.952 155.107 479.442 155.102Z" fill="#4F27AA" stroke="#4F27AA" stroke-width="26" stroke-linecap="round" stroke-linejoin="round"/>
<path d="M526.757 241.529C527.467 242.239 528.031 243.082 528.415 244.01C528.799 244.938 528.997 245.933 528.997 246.937C528.997 247.941 528.799 248.936 528.415 249.864C528.031 250.792 527.467 251.635 526.757 252.345C526.047 253.055 525.204 253.619 524.276 254.003C523.348 254.388 522.354 254.585 521.35 254.585C520.345 254.585 519.351 254.388 518.423 254.003C517.495 253.619 516.652 253.055 515.942 252.345C515.222 251.637 514.649 250.794 514.256 249.863C513.864 248.933 513.659 247.934 513.655 246.924C513.65 245.914 513.846 244.913 514.231 243.979C514.615 243.045 515.181 242.197 515.895 241.482C516.609 240.768 517.457 240.203 518.391 239.818C519.325 239.434 520.326 239.238 521.336 239.242C522.345 239.247 523.345 239.451 524.275 239.843C525.206 240.236 526.049 240.809 526.757 241.529" stroke="white" stroke-width="26" stroke-linecap="round" stroke-linejoin="round"/>
</g>
<defs>
<linearGradient id="paint0_linear_1235_24148" x1="468.575" y1="786.761" x2="479.786" y2="-307.273" gradientUnits="userSpaceOnUse">
<stop stop-color="white"/>
<stop offset="1" stop-color="#EEEEEE"/>
</linearGradient>
<linearGradient id="paint1_linear_1235_24148" x1="627.057" y1="386.328" x2="509.028" y2="-144.041" gradientUnits="userSpaceOnUse">
<stop stop-color="white"/>
<stop offset="1" stop-color="#EEEEEE"/>
</linearGradient>
<linearGradient id="paint2_linear_1235_24148" x1="709.982" y1="321.175" x2="915.74" y2="158.419" gradientUnits="userSpaceOnUse">
<stop stop-color="white"/>
<stop offset="1" stop-color="#EEEEEE"/>
</linearGradient>
<linearGradient id="paint3_linear_1235_24148" x1="198.586" y1="422.634" x2="-15.4221" y2="223.792" gradientUnits="userSpaceOnUse">
<stop stop-color="white"/>
<stop offset="1" stop-color="#EEEEEE"/>
</linearGradient>
<clipPath id="clip0_1235_24148">
<rect width="900" height="600" fill="white"/>
</clipPath>
</defs>
</svg>
