<svg width="900" height="600" viewBox="0 0 900 600" fill="none" xmlns="http://www.w3.org/2000/svg">
<g clip-path="url(#clip0_1235_24170)">
<path d="M691.916 435.312C681.23 496.049 535.616 590.757 401.568 512.021C339.225 475.399 353.019 441.872 312.577 384.06C288.471 349.604 249.505 318.728 246.578 276.106C244.042 239.315 259.073 203.897 282.89 184.123C336.452 139.653 427.842 121.918 489.645 225.963C551.448 330.009 719.457 278.662 691.916 435.312Z" fill="url(#paint0_linear_1235_24170)"/>
<path d="M703.791 235.696C691.195 258.175 663.609 261.264 619.415 256.992C586.178 253.773 555.869 251.283 522.629 233.16C499.363 220.484 480.947 203.335 467.506 186.678C452.94 168.633 432.609 148.04 442.576 127.58C456.272 99.4748 535.478 75.8048 612.39 114.514C696.877 157.048 716.112 213.725 703.791 235.696Z" fill="url(#paint1_linear_1235_24170)"/>
<path d="M788.937 282.695C765.208 294.466 733.714 279.331 733.714 279.331C733.714 279.331 740.714 245.119 764.455 233.364C788.184 221.594 819.665 236.712 819.665 236.712C819.665 236.712 812.666 270.924 788.937 282.695Z" fill="url(#paint2_linear_1235_24170)"/>
<path d="M113.482 367.109C138.781 382.272 175.077 368.255 175.077 368.255C175.077 368.255 170.331 329.661 145.017 314.515C119.718 299.353 83.438 313.352 83.438 313.352C83.438 313.352 88.184 351.947 113.482 367.109Z" fill="url(#paint3_linear_1235_24170)"/>
<path d="M742.247 190.861C735.092 190.861 729.291 196.662 729.291 203.817C729.291 210.973 735.092 216.773 742.247 216.773C749.403 216.773 755.203 210.973 755.203 203.817C755.203 196.662 749.403 190.861 742.247 190.861Z" fill="#4F27AA"/>
<path d="M346.127 231.816C340.236 231.816 335.461 236.592 335.461 242.482C335.461 248.373 340.236 253.148 346.127 253.148C352.018 253.148 356.793 248.373 356.793 242.482C356.793 236.592 352.018 231.816 346.127 231.816Z" fill="#4F27AA"/>
<path d="M317.324 478.405C312.648 478.405 308.858 474.614 308.858 469.939C308.858 465.263 312.648 461.473 317.324 461.473C322 461.473 325.79 465.263 325.79 469.939C325.79 474.614 322 478.405 317.324 478.405Z" fill="#4F27AA"/>
<path d="M716.337 276.727C713.207 276.727 710.669 274.189 710.669 271.059C710.669 267.928 713.207 265.391 716.337 265.391C719.467 265.391 722.005 267.928 722.005 271.059C722.005 274.189 719.467 276.727 716.337 276.727Z" fill="#4F27AA"/>
<path d="M713.065 491.486C709.04 491.486 705.777 488.223 705.777 484.198C705.777 480.173 709.04 476.91 713.065 476.91C717.09 476.91 720.353 480.173 720.353 484.198C720.353 488.223 717.09 491.486 713.065 491.486Z" fill="#E1E4E5"/>
<path d="M154.433 442.48C148.619 442.48 143.906 437.767 143.906 431.953C143.906 426.139 148.619 421.426 154.433 421.426C160.247 421.426 164.96 426.139 164.96 431.953C164.96 437.767 160.247 442.48 154.433 442.48Z" fill="#E1E4E5"/>
<path d="M750.179 420.157C745.754 420.157 742.167 416.57 742.167 412.145C742.167 407.72 745.754 404.133 750.179 404.133C754.604 404.133 758.191 407.72 758.191 412.145C758.191 416.57 754.604 420.157 750.179 420.157Z" fill="#E1E4E5"/>
<path d="M665.155 173.371C660.235 173.371 656.247 169.382 656.247 164.463C656.247 159.543 660.235 155.555 665.155 155.555C670.075 155.555 674.063 159.543 674.063 164.463C674.063 169.382 670.075 173.371 665.155 173.371Z" fill="#E1E4E5"/>
<path d="M186.28 263.476C187.424 267.744 184.892 272.13 180.624 273.273C176.357 274.417 171.971 271.884 170.828 267.617C169.684 263.35 172.217 258.964 176.484 257.82C180.751 256.677 185.137 259.209 186.28 263.476Z" fill="#E1E4E5"/>
<path d="M385.263 119.634C379.386 119.634 374.622 114.869 374.622 108.993C374.622 103.116 379.386 98.3516 385.263 98.3516C391.14 98.3516 395.904 103.116 395.904 108.993C395.904 114.869 391.14 119.634 385.263 119.634Z" fill="#E1E4E5"/>
<path d="M721.017 374.315C716.497 374.315 712.832 371.383 712.832 367.767C712.832 364.15 716.497 361.219 721.017 361.219C725.538 361.219 729.202 364.15 729.202 367.767C729.202 371.383 725.538 374.315 721.017 374.315Z" fill="#E1E4E5"/>
<path d="M582.708 90.9626C585.088 99.8433 579.818 108.971 570.937 111.351C562.057 113.731 552.928 108.46 550.549 99.5798C548.169 90.6992 553.439 81.571 562.32 79.1914C571.201 76.8119 580.329 82.082 582.708 90.9626Z" fill="#E1E4E5"/>
<path d="M214.992 210.414H215.108C215.799 220.197 223.074 220.348 223.074 220.348C223.074 220.348 215.051 220.504 215.051 231.809C215.051 220.504 207.028 220.348 207.028 220.348C207.028 220.348 214.301 220.197 214.992 210.414ZM202.802 466.507H202.914C203.577 476.261 210.562 476.411 210.562 476.411C210.562 476.411 202.859 476.567 202.859 487.838C202.859 476.567 195.156 476.411 195.156 476.411C195.156 476.411 202.139 476.261 202.802 466.507Z" fill="#E1E4E5"/>
<path d="M482.147 515.055V406.872C482.147 395.231 472.709 385.793 461.067 385.793C449.426 385.793 439.988 395.231 439.988 406.872V515.055C439.988 526.696 449.426 536.134 461.067 536.134C472.709 536.134 482.147 526.696 482.147 515.055Z" fill="white" stroke="#E1E4E5" stroke-width="5.247"/>
<path d="M326.006 205.875H580.872C624.211 205.875 659.343 241.007 659.343 284.345V411.779C659.343 423.119 650.137 432.325 638.797 432.325H268.081C256.741 432.325 247.535 423.119 247.535 411.779V284.345C247.535 241.007 282.668 205.875 326.006 205.875Z" fill="white" stroke="#E1E4E5" stroke-width="5.247"/>
<path d="M499.78 133.742V295.93" stroke="#E1E4E5" stroke-width="9.568"/>
<path d="M499.757 287.238C497.454 287.249 495.249 288.172 493.625 289.805C492.001 291.438 491.089 293.647 491.091 295.95C491.091 300.746 494.984 304.639 499.78 304.615C502.084 304.615 504.293 303.699 505.923 302.07C507.552 300.441 508.467 298.231 508.468 295.927C508.468 291.131 504.576 287.238 499.757 287.238Z" stroke="#E1E4E5" stroke-width="19.435" stroke-linecap="round" stroke-linejoin="round"/>
<mask id="mask0_1235_24170" style="mask-type:alpha" maskUnits="userSpaceOnUse" x="326" y="203" width="82" height="232">
<path fill-rule="evenodd" clip-rule="evenodd" d="M326.009 203.25C370.796 203.25 407.103 239.557 407.103 284.344V434.947" fill="white"/>
</mask>
<g mask="url(#mask0_1235_24170)">
<path fill-rule="evenodd" clip-rule="evenodd" d="M326.009 203.25C370.796 203.25 407.103 239.557 407.103 284.344V434.947" fill="white"/>
<path d="M326.009 208.498C367.898 208.498 401.856 242.456 401.856 284.345H412.351C412.351 236.66 373.694 198.004 326.009 198.004V208.498ZM401.856 284.345V434.948H412.351V284.345H401.856Z" fill="#E1E4E5"/>
</g>
<mask id="mask1_1235_24170" style="mask-type:alpha" maskUnits="userSpaceOnUse" x="434" y="359" width="95" height="1">
<path fill-rule="evenodd" clip-rule="evenodd" d="M528.872 359.912L434.363 359.738L528.872 359.912Z" fill="white"/>
</mask>
<g mask="url(#mask1_1235_24170)">
<path fill-rule="evenodd" clip-rule="evenodd" d="M528.872 359.912L434.363 359.738L528.872 359.912Z" fill="white"/>
<path d="M528.98 354.666L434.47 354.492L434.256 364.984L528.765 365.158L528.98 354.666Z" fill="#E1E4E5"/>
</g>
<mask id="mask2_1235_24170" style="mask-type:alpha" maskUnits="userSpaceOnUse" x="433" y="388" width="159" height="1">
<path fill-rule="evenodd" clip-rule="evenodd" d="M591.303 388.372L433.788 388.082L591.303 388.372Z" fill="white"/>
</mask>
<g mask="url(#mask2_1235_24170)">
<path fill-rule="evenodd" clip-rule="evenodd" d="M591.303 388.372L433.788 388.082L591.303 388.372Z" fill="white"/>
<path d="M591.411 383.126L433.895 382.836L433.681 393.328L591.196 393.619L591.411 383.126Z" fill="#E1E4E5"/>
</g>
</g>
<defs>
<linearGradient id="paint0_linear_1235_24170" x1="468.193" y1="762.27" x2="478.856" y2="-278.364" gradientUnits="userSpaceOnUse">
<stop stop-color="white"/>
<stop offset="1" stop-color="#EEEEEE"/>
</linearGradient>
<linearGradient id="paint1_linear_1235_24170" x1="618.938" y1="381.383" x2="506.671" y2="-123.1" gradientUnits="userSpaceOnUse">
<stop stop-color="white"/>
<stop offset="1" stop-color="#EEEEEE"/>
</linearGradient>
<linearGradient id="paint2_linear_1235_24170" x1="697.816" y1="319.411" x2="893.531" y2="164.6" gradientUnits="userSpaceOnUse">
<stop stop-color="white"/>
<stop offset="1" stop-color="#EEEEEE"/>
</linearGradient>
<linearGradient id="paint3_linear_1235_24170" x1="211.382" y1="415.917" x2="7.81898" y2="226.78" gradientUnits="userSpaceOnUse">
<stop stop-color="white"/>
<stop offset="1" stop-color="#EEEEEE"/>
</linearGradient>
<clipPath id="clip0_1235_24170">
<rect width="900" height="600" fill="white"/>
</clipPath>
</defs>
</svg>
