<svg width="900" height="600" viewBox="0 0 900 600" fill="none" xmlns="http://www.w3.org/2000/svg">
<g clip-path="url(#clip0_1235_24220)">
<path d="M229.88 437.866C240.765 499.736 389.094 596.211 525.642 516.006C589.148 478.701 575.096 444.548 616.292 385.659C640.847 350.56 680.54 319.108 683.522 275.692C686.105 238.215 670.794 202.136 646.533 181.994C591.972 136.694 498.878 118.628 435.923 224.614C372.967 330.6 201.824 278.296 229.88 437.866Z" fill="url(#paint0_linear_1235_24220)"/>
<path d="M217.783 234.529C230.614 257.427 258.714 260.574 303.732 256.222C337.589 252.943 368.463 250.406 402.323 231.946C426.022 219.034 444.782 201.564 458.474 184.597C473.312 166.216 494.021 145.238 483.869 124.397C469.917 95.7679 389.234 71.6569 310.888 111.087C224.825 154.415 205.232 212.149 217.783 234.529Z" fill="url(#paint1_linear_1235_24220)"/>
<path d="M131.049 282.402C155.22 294.392 187.301 278.975 187.301 278.975C187.301 278.975 180.172 244.124 155.988 232.151C131.816 220.161 99.748 235.561 99.748 235.561C99.748 235.561 106.878 270.411 131.049 282.402Z" fill="url(#paint2_linear_1235_24220)"/>
<path d="M780.347 386.16C762.701 396.736 737.383 386.96 737.383 386.96C737.383 386.96 740.694 360.039 758.351 349.475C775.997 338.899 801.304 348.663 801.304 348.663C801.304 348.663 797.993 375.584 780.347 386.16Z" fill="url(#paint3_linear_1235_24220)"/>
<path d="M350.363 413.711C361.804 413.711 371.078 422.985 371.078 434.426C371.078 445.866 361.804 455.141 350.363 455.141C338.922 455.141 329.648 445.866 329.648 434.426C329.648 422.985 338.922 413.711 350.363 413.711Z" fill="#4F27AA"/>
<path d="M601.155 197.844C607.156 197.844 612.02 202.709 612.02 208.709C612.02 214.71 607.156 219.574 601.155 219.574C595.154 219.574 590.29 214.71 590.29 208.709C590.29 202.709 595.154 197.844 601.155 197.844Z" fill="#4F27AA"/>
<path d="M723.45 347.707C730.284 347.707 735.823 342.167 735.823 335.334C735.823 328.501 730.284 322.961 723.45 322.961C716.617 322.961 711.077 328.501 711.077 335.334C711.077 342.167 716.617 347.707 723.45 347.707Z" fill="#4F27AA"/>
<path d="M208.336 495.09C212.436 495.09 215.76 491.766 215.76 487.666C215.76 483.566 212.436 480.242 208.336 480.242C204.236 480.242 200.912 483.566 200.912 487.666C200.912 491.766 204.236 495.09 208.336 495.09Z" fill="#E1E4E5"/>
<path d="M751.783 438.733C755.838 438.733 759.126 435.445 759.126 431.39C759.126 427.334 755.838 424.047 751.783 424.047C747.728 424.047 744.44 427.334 744.44 431.39C744.44 435.445 747.728 438.733 751.783 438.733Z" fill="#E1E4E5"/>
<path d="M257.139 171.043C262.15 171.043 266.213 166.98 266.213 161.969C266.213 156.957 262.15 152.895 257.139 152.895C252.128 152.895 248.065 156.957 248.065 161.969C248.065 166.98 252.128 171.043 257.139 171.043Z" fill="#E1E4E5"/>
<path d="M744.945 262.828C743.78 267.175 746.36 271.643 750.706 272.808C755.053 273.972 759.521 271.393 760.686 267.046C761.85 262.699 759.271 258.232 754.924 257.067C750.577 255.902 746.11 258.482 744.945 262.828Z" fill="#E1E4E5"/>
<path d="M542.251 116.299C548.237 116.299 553.09 111.446 553.09 105.46C553.09 99.4739 548.237 94.6211 542.251 94.6211C536.265 94.6211 531.412 99.4739 531.412 105.46C531.412 111.446 536.265 116.299 542.251 116.299Z" fill="#E1E4E5"/>
<path d="M200.235 375.731C204.84 375.731 208.573 372.744 208.573 369.061C208.573 365.377 204.84 362.391 200.235 362.391C195.63 362.391 191.897 365.377 191.897 369.061C191.897 372.744 195.63 375.731 200.235 375.731Z" fill="#E1E4E5"/>
<path d="M341.124 87.0938C338.7 96.1398 344.068 105.438 353.114 107.862C362.16 110.286 371.458 104.917 373.882 95.8714C376.306 86.8254 370.938 77.5273 361.892 75.1034C352.846 72.6795 343.548 78.0478 341.124 87.0938Z" fill="#E1E4E5"/>
<path d="M715.697 208.773H715.579C714.875 218.739 707.464 218.893 707.464 218.893C707.464 218.893 715.636 219.052 715.636 230.567C715.636 219.052 723.809 218.893 723.809 218.893C723.809 218.893 716.401 218.739 715.697 208.773ZM728.114 469.642H728C727.325 479.578 720.209 479.731 720.209 479.731C720.209 479.731 728.055 479.89 728.055 491.371C728.055 479.89 735.902 479.731 735.902 479.731C735.902 479.731 728.789 479.578 728.114 469.642Z" fill="#E1E4E5"/>
<path fill-rule="evenodd" clip-rule="evenodd" d="M613.887 480.616H303.957C261.161 480.616 226.474 445.93 226.474 403.134V196.514C226.474 153.718 261.161 119.031 303.957 119.031H613.887C656.683 119.031 691.369 153.718 691.369 196.514V403.134C691.369 445.93 656.683 480.616 613.887 480.616Z" fill="white" stroke="#E1E4E5" stroke-width="4" stroke-linecap="round" stroke-linejoin="round"/>
<path d="M342.285 385.312H275.909" stroke="#E1E4E5" stroke-width="14" stroke-linecap="round" stroke-linejoin="round"/>
<path d="M442.206 385.312H375.83" stroke="#E1E4E5" stroke-width="14" stroke-linecap="round" stroke-linejoin="round"/>
<path d="M542.127 385.312H475.75" stroke="#E1E4E5" stroke-width="14" stroke-linecap="round" stroke-linejoin="round"/>
<path d="M642.048 385.312H575.671" stroke="#E1E4E5" stroke-width="14" stroke-linecap="round" stroke-linejoin="round"/>
<path d="M330.586 187.285H288.546C277.5 187.285 268.546 196.239 268.546 207.285V249.325C268.546 260.371 277.5 269.325 288.546 269.325H330.586C341.632 269.325 350.586 260.371 350.586 249.325V207.285C350.586 196.239 341.632 187.285 330.586 187.285Z" fill="#E1E4E5"/>
<path d="M562.524 188.336H561.472C539.108 188.336 520.978 206.466 520.978 228.83V228.831C520.978 251.195 539.108 269.325 561.472 269.325H562.524C584.888 269.325 603.018 251.195 603.018 228.831V228.83C603.018 206.466 584.888 188.336 562.524 188.336Z" fill="#E1E4E5"/>
<path d="M613.01 188.336H611.958C589.594 188.336 571.464 206.466 571.464 228.83V228.831C571.464 251.195 589.594 269.325 611.958 269.325H613.01C635.374 269.325 653.504 251.195 653.504 228.831V228.83C653.504 206.466 635.374 188.336 613.01 188.336Z" fill="#4F27AA"/>
<path d="M632.829 502.611C678.338 502.611 715.23 465.718 715.23 420.21C715.23 374.701 678.338 337.809 632.829 337.809C587.32 337.809 550.428 374.701 550.428 420.21C550.428 465.718 587.32 502.611 632.829 502.611Z" fill="#2E2445"/>
<path d="M639.566 392.221C639.566 388.501 636.55 385.484 632.829 385.484C629.108 385.484 626.092 388.501 626.092 392.221V448.192C626.092 451.913 629.108 454.929 632.829 454.929C636.55 454.929 639.566 451.913 639.566 448.192V392.221Z" fill="white"/>
<path d="M660.814 426.947C664.535 426.947 667.551 423.93 667.551 420.21C667.551 416.489 664.535 413.473 660.814 413.473H604.843C601.122 413.473 598.106 416.489 598.106 420.21C598.106 423.93 601.122 426.947 604.843 426.947H660.814Z" fill="white"/>
<path fill-rule="evenodd" clip-rule="evenodd" d="M121.568 450.375H127.012C127.642 450.375 128.246 450.626 128.691 451.071C129.137 451.517 129.387 452.121 129.388 452.751V458.196C129.387 458.826 129.137 459.43 128.691 459.875C128.246 460.321 127.642 460.571 127.012 460.572H121.568C120.938 460.569 120.335 460.318 119.89 459.873C119.445 459.428 119.194 458.825 119.191 458.196V452.751C119.18 451.446 120.251 450.375 121.568 450.375ZM140.443 450.375H145.888C146.517 450.377 147.12 450.628 147.565 451.073C148.011 451.518 148.262 452.121 148.264 452.751V458.196C148.263 458.826 148.013 459.43 147.568 459.875C147.122 460.321 146.518 460.571 145.888 460.572H140.443C139.814 460.569 139.211 460.318 138.766 459.873C138.32 459.428 138.069 458.825 138.067 458.196V452.751C138.069 452.121 138.32 451.518 138.766 451.073C139.211 450.628 139.814 450.377 140.443 450.375ZM159.333 450.375H164.777C165.407 450.377 166.01 450.628 166.455 451.073C166.9 451.518 167.151 452.121 167.154 452.751V458.196C167.153 458.826 166.903 459.43 166.457 459.876C166.011 460.321 165.407 460.571 164.777 460.572H159.333C158.703 460.569 158.1 460.318 157.655 459.873C157.21 459.428 156.959 458.825 156.956 458.196V452.751C156.945 451.446 158.016 450.375 159.333 450.375ZM178.209 450.375H183.653C184.282 450.377 184.885 450.628 185.33 451.073C185.776 451.518 186.027 452.121 186.029 452.751V458.196C186.028 458.826 185.778 459.43 185.333 459.875C184.887 460.321 184.283 460.571 183.653 460.572H178.209C177.578 460.572 176.972 460.322 176.525 459.877C176.077 459.431 175.824 458.827 175.821 458.196V452.751C175.828 452.121 176.082 451.518 176.529 451.074C176.975 450.629 177.579 450.378 178.209 450.375ZM197.086 450.375H202.531C203.162 450.375 203.767 450.625 204.215 451.07C204.662 451.515 204.915 452.12 204.918 452.751V458.196C204.917 458.509 204.855 458.818 204.735 459.107C204.615 459.396 204.439 459.658 204.217 459.879C203.995 460.099 203.732 460.274 203.443 460.393C203.154 460.512 202.844 460.573 202.531 460.572H197.086C196.457 460.569 195.854 460.318 195.409 459.873C194.963 459.428 194.712 458.825 194.71 458.196V452.751C194.712 452.121 194.963 451.518 195.409 451.073C195.854 450.628 196.457 450.377 197.086 450.375ZM141.136 470.959H146.581C147.21 470.961 147.813 471.212 148.258 471.657C148.704 472.102 148.955 472.705 148.957 473.335V478.791C148.955 479.42 148.704 480.023 148.258 480.468C147.813 480.913 147.21 481.164 146.581 481.167H141.136C140.506 481.166 139.902 480.916 139.456 480.47C139.011 480.025 138.761 479.421 138.76 478.791V473.346C138.758 473.033 138.818 472.722 138.937 472.433C139.056 472.143 139.231 471.88 139.451 471.658C139.672 471.436 139.935 471.26 140.224 471.14C140.513 471.02 140.823 470.958 141.136 470.959ZM160.012 470.959H165.457C166.086 470.961 166.689 471.212 167.134 471.657C167.58 472.102 167.831 472.705 167.833 473.335V478.791C167.831 479.42 167.58 480.023 167.134 480.468C166.689 480.913 166.086 481.164 165.457 481.167H160.012C159.383 481.164 158.78 480.913 158.335 480.468C157.889 480.023 157.638 479.42 157.636 478.791V473.346C157.634 473.033 157.694 472.722 157.813 472.433C157.932 472.143 158.107 471.88 158.327 471.658C158.548 471.436 158.811 471.26 159.1 471.14C159.389 471.02 159.699 470.958 160.012 470.959ZM178.889 470.959H184.334C184.965 470.959 185.57 471.209 186.018 471.654C186.465 472.099 186.718 472.704 186.721 473.335V478.791C186.718 479.422 186.465 480.026 186.018 480.471C185.57 480.916 184.965 481.166 184.334 481.167H178.889C178.26 481.164 177.657 480.913 177.212 480.468C176.766 480.023 176.515 479.42 176.513 478.791V473.346C176.513 472.715 176.763 472.109 177.209 471.662C177.654 471.215 178.258 470.962 178.889 470.959ZM159.333 428.262H164.777C165.407 428.264 166.01 428.515 166.455 428.961C166.9 429.406 167.152 430.009 167.154 430.639V436.083C167.153 436.713 166.903 437.317 166.457 437.763C166.011 438.208 165.407 438.458 164.777 438.459H159.333C158.703 438.456 158.1 438.205 157.655 437.76C157.21 437.315 156.959 436.712 156.956 436.083V430.639C156.945 429.333 158.016 428.262 159.333 428.262ZM178.209 428.262H183.653C184.283 428.264 184.885 428.516 185.331 428.961C185.776 429.406 186.027 430.009 186.029 430.639V436.083C186.028 436.713 185.778 437.317 185.333 437.762C184.887 438.208 184.283 438.458 183.653 438.459H178.209C177.578 438.459 176.972 438.209 176.525 437.764C176.077 437.318 175.824 436.714 175.821 436.083V430.639C175.828 430.008 176.082 429.406 176.528 428.961C176.975 428.517 177.579 428.265 178.209 428.262Z" fill="#E1E4E5"/>
</g>
<defs>
<linearGradient id="paint0_linear_1235_24220" x1="457.775" y1="770.922" x2="446.913" y2="-289.118" gradientUnits="userSpaceOnUse">
<stop stop-color="white"/>
<stop offset="1" stop-color="#EEEEEE"/>
</linearGradient>
<linearGradient id="paint1_linear_1235_24220" x1="304.218" y1="382.933" x2="418.579" y2="-130.957" gradientUnits="userSpaceOnUse">
<stop stop-color="white"/>
<stop offset="1" stop-color="#EEEEEE"/>
</linearGradient>
<linearGradient id="paint2_linear_1235_24220" x1="223.869" y1="319.802" x2="24.505" y2="162.104" gradientUnits="userSpaceOnUse">
<stop stop-color="white"/>
<stop offset="1" stop-color="#EEEEEE"/>
</linearGradient>
<linearGradient id="paint3_linear_1235_24220" x1="712.06" y1="420.205" x2="854.05" y2="288.277" gradientUnits="userSpaceOnUse">
<stop stop-color="white"/>
<stop offset="1" stop-color="#EEEEEE"/>
</linearGradient>
<clipPath id="clip0_1235_24220">
<rect width="900" height="600" fill="white"/>
</clipPath>
</defs>
</svg>
