<svg width="900" height="600" viewBox="0 0 900 600" fill="none" xmlns="http://www.w3.org/2000/svg">
<g clip-path="url(#clip0_1235_18346)">
<path d="M763.006 135.736H519.599C507.422 135.736 497.551 145.608 497.551 157.784V222.513C497.551 234.69 507.422 244.561 519.599 244.561H763.006C775.183 244.561 785.054 234.69 785.054 222.513V157.784C785.054 145.608 775.183 135.736 763.006 135.736Z" fill="white" stroke="#E1E4E5" stroke-width="2.321"/>
<path d="M749.877 168.709H586.24C582.636 168.709 579.715 171.63 579.715 175.234V175.235C579.715 178.839 582.636 181.76 586.24 181.76H749.877C753.481 181.76 756.402 178.839 756.402 175.235V175.234C756.402 171.63 753.481 168.709 749.877 168.709Z" fill="url(#paint0_linear_1235_18346)"/>
<path d="M687.635 197.822H586.24C582.636 197.822 579.715 200.744 579.715 204.347V204.348C579.715 207.952 582.636 210.873 586.24 210.873H687.635C691.239 210.873 694.16 207.952 694.16 204.348V204.347C694.16 200.744 691.239 197.822 687.635 197.822Z" fill="url(#paint1_linear_1235_18346)"/>
<path fill-rule="evenodd" clip-rule="evenodd" d="M542.323 218.166C526.96 218.166 514.505 205.535 514.505 189.956C514.505 174.377 526.96 161.746 542.323 161.746C557.685 161.746 570.14 174.377 570.14 189.956C570.14 205.535 557.685 218.166 542.323 218.166Z" fill="#4F27AA"/>
<path d="M552.118 185.256L540.366 197.794L533.311 190.273" stroke="white" stroke-width="4.381" stroke-linecap="round" stroke-linejoin="round"/>
<path d="M459.482 324.442V455.732C459.482 465.323 451.707 473.08 442.118 473.08H132.524C122.935 473.08 115.16 465.323 115.16 455.732V324.442C115.16 314.848 122.937 307.068 132.524 307.068H442.118C451.705 307.068 459.482 314.848 459.482 324.442Z" fill="white" stroke="#E1E4E5" stroke-width="2.321"/>
<path d="M234.053 460.812H142.852C135.947 460.812 130.331 455.192 130.331 448.284V357.028C130.331 350.12 135.947 344.5 142.852 344.5H234.053C240.957 344.5 246.574 350.12 246.574 357.028V448.284C246.574 455.218 240.957 460.812 234.053 460.812Z" fill="#4F27AA"/>
<path d="M459.482 324.442C459.482 325.598 459.023 326.706 458.206 327.523C457.388 328.339 456.28 328.798 455.125 328.798H119.517C118.362 328.798 117.254 328.339 116.437 327.523C115.619 326.706 115.16 325.598 115.16 324.442C115.16 314.848 122.937 307.068 132.524 307.068H442.118C451.705 307.068 459.482 314.848 459.482 324.442Z" fill="white" stroke="#E1E4E5" stroke-width="2.321"/>
<path d="M137.529 318.362C137.527 319.292 137.157 320.185 136.499 320.843C135.841 321.501 134.949 321.872 134.018 321.875C133.087 321.872 132.195 321.501 131.537 320.843C130.879 320.185 130.509 319.292 130.507 318.362C130.509 317.431 130.878 316.54 131.536 315.881C132.193 315.223 133.084 314.851 134.014 314.848C135.959 314.872 137.529 316.436 137.529 318.362ZM151.097 318.361C151.095 319.292 150.725 320.184 150.067 320.843C149.409 321.501 148.517 321.872 147.586 321.875C146.655 321.872 145.763 321.501 145.106 320.842C144.448 320.184 144.078 319.291 144.076 318.361C144.078 317.431 144.447 316.539 145.104 315.881C145.761 315.223 146.652 314.851 147.582 314.848C149.527 314.871 151.097 316.436 151.097 318.361ZM164.665 318.361C164.663 319.292 164.293 320.184 163.635 320.843C162.977 321.501 162.085 321.872 161.154 321.875C160.223 321.872 159.331 321.501 158.673 320.843C158.015 320.184 157.645 319.292 157.643 318.361C157.645 317.431 158.015 316.539 158.672 315.881C159.329 315.223 160.22 314.851 161.15 314.848C163.118 314.871 164.665 316.433 164.665 318.361Z" fill="#E1E4E5" stroke="#E1E4E5" stroke-width="1.583"/>
<path d="M322.586 346.523H272.108C263.296 346.523 256.152 353.667 256.152 362.479C256.152 371.292 263.296 378.435 272.108 378.435H322.586C331.398 378.435 338.542 371.292 338.542 362.479C338.542 353.667 331.398 346.523 322.586 346.523Z" fill="url(#paint2_linear_1235_18346)"/>
<path d="M322.586 425.432H272.108C263.296 425.432 256.152 432.575 256.152 441.388C256.152 450.2 263.296 457.344 272.108 457.344H322.586C331.398 457.344 338.542 450.2 338.542 441.388C338.542 432.575 331.398 425.432 322.586 425.432Z" fill="url(#paint3_linear_1235_18346)"/>
<path d="M290.094 385.979H272.108C263.296 385.979 256.152 393.122 256.152 401.935C256.152 410.747 263.296 417.891 272.108 417.891H290.094C298.906 417.891 306.05 410.747 306.05 401.935C306.05 393.122 298.906 385.979 290.094 385.979Z" fill="url(#paint4_linear_1235_18346)"/>
<path d="M356.818 385.979H338.832C330.02 385.979 322.876 393.122 322.876 401.935C322.876 410.747 330.02 417.891 338.832 417.891H356.818C365.63 417.891 372.774 410.747 372.774 401.935C372.774 393.122 365.63 385.979 356.818 385.979Z" fill="url(#paint5_linear_1235_18346)"/>
<path d="M423.543 385.979H405.557C396.745 385.979 389.601 393.122 389.601 401.935C389.601 410.747 396.745 417.891 405.557 417.891H423.543C432.355 417.891 439.499 410.747 439.499 401.935C439.499 393.122 432.355 385.979 423.543 385.979Z" fill="url(#paint6_linear_1235_18346)"/>
<path d="M423.543 346.523H373.065C364.253 346.523 357.109 353.667 357.109 362.479C357.109 371.292 364.253 378.435 373.065 378.435H423.543C432.355 378.435 439.499 371.292 439.499 362.479C439.499 353.667 432.355 346.523 423.543 346.523Z" fill="url(#paint7_linear_1235_18346)"/>
<path d="M423.543 425.432H373.065C364.253 425.432 357.109 432.575 357.109 441.388C357.109 450.2 364.253 457.344 373.065 457.344H423.543C432.355 457.344 439.499 450.2 439.499 441.388C439.499 432.575 432.355 425.432 423.543 425.432Z" fill="url(#paint8_linear_1235_18346)"/>
<path d="M168.682 415.543L155.507 402.367L168.682 389.192M208.209 389.192L221.385 402.367L208.209 415.543M193.559 382.605L182.577 422.132" stroke="white" stroke-width="9.389" stroke-linecap="round" stroke-linejoin="round"/>
<path d="M784.569 277.059V408.348C784.569 417.94 776.794 425.697 767.206 425.697H457.611C448.022 425.697 440.248 417.94 440.248 408.348V277.059C440.248 267.465 448.024 259.684 457.611 259.684H767.206C776.792 259.684 784.569 267.465 784.569 277.059Z" fill="white" stroke="#E1E4E5" stroke-width="2.321"/>
<path d="M559.14 413.426H467.939C461.034 413.426 455.418 407.806 455.418 400.897V309.642C455.418 302.733 461.034 297.113 467.939 297.113H559.14C566.044 297.113 571.661 302.733 571.661 309.642V400.897C571.661 407.832 566.044 413.426 559.14 413.426Z" fill="url(#paint9_linear_1235_18346)"/>
<path d="M784.569 277.059C784.569 278.214 784.11 279.322 783.293 280.138C782.476 280.955 781.368 281.414 780.213 281.415H444.604C443.449 281.415 442.341 280.956 441.524 280.139C440.707 279.322 440.248 278.214 440.248 277.059C440.248 267.465 448.024 259.684 457.611 259.684H767.206C776.792 259.684 784.569 267.465 784.569 277.059Z" fill="white" stroke="#E1E4E5" stroke-width="2.321"/>
<path d="M462.616 270.975C462.614 271.906 462.244 272.798 461.586 273.456C460.928 274.115 460.036 274.486 459.105 274.488C458.174 274.486 457.282 274.115 456.624 273.456C455.966 272.798 455.596 271.906 455.594 270.975C455.596 270.045 455.965 269.153 456.622 268.495C457.279 267.836 458.17 267.465 459.1 267.461C461.046 267.485 462.616 269.049 462.616 270.975ZM476.184 270.974C476.182 271.905 475.812 272.797 475.154 273.456C474.496 274.114 473.604 274.486 472.673 274.488C471.742 274.486 470.85 274.114 470.192 273.456C469.534 272.797 469.164 271.905 469.162 270.974C469.164 270.044 469.534 269.152 470.191 268.494C470.848 267.836 471.739 267.464 472.669 267.461C474.614 267.484 476.184 269.049 476.184 270.974ZM489.752 270.974C489.75 271.905 489.38 272.797 488.722 273.456C488.064 274.114 487.172 274.486 486.241 274.488C485.31 274.485 484.418 274.114 483.761 273.456C483.103 272.797 482.733 271.905 482.731 270.974C482.733 270.044 483.103 269.153 483.759 268.494C484.416 267.836 485.307 267.465 486.237 267.461C488.205 267.484 489.752 269.046 489.752 270.974Z" fill="#E1E4E5" stroke="#E1E4E5" stroke-width="1.583"/>
<path d="M647.673 299.139H597.195C588.383 299.139 581.239 306.282 581.239 315.095C581.239 323.907 588.383 331.051 597.195 331.051H647.673C656.485 331.051 663.629 323.907 663.629 315.095C663.629 306.282 656.485 299.139 647.673 299.139Z" fill="url(#paint10_linear_1235_18346)"/>
<path d="M647.673 378.047H597.195C588.383 378.047 581.239 385.191 581.239 394.003C581.239 402.815 588.383 409.959 597.195 409.959H647.673C656.485 409.959 663.629 402.815 663.629 394.003C663.629 385.191 656.485 378.047 647.673 378.047Z" fill="url(#paint11_linear_1235_18346)"/>
<path d="M615.181 338.592H597.195C588.383 338.592 581.239 345.736 581.239 354.548C581.239 363.36 588.383 370.504 597.195 370.504H615.181C623.993 370.504 631.137 363.36 631.137 354.548C631.137 345.736 623.993 338.592 615.181 338.592Z" fill="url(#paint12_linear_1235_18346)"/>
<path d="M681.905 338.592H663.919C655.107 338.592 647.963 345.736 647.963 354.548C647.963 363.36 655.107 370.504 663.919 370.504H681.905C690.717 370.504 697.861 363.36 697.861 354.548C697.861 345.736 690.717 338.592 681.905 338.592Z" fill="url(#paint13_linear_1235_18346)"/>
<path d="M748.629 338.592H730.643C721.831 338.592 714.687 345.736 714.687 354.548C714.687 363.36 721.831 370.504 730.643 370.504H748.629C757.441 370.504 764.585 363.36 764.585 354.548C764.585 345.736 757.441 338.592 748.629 338.592Z" fill="url(#paint14_linear_1235_18346)"/>
<path d="M748.63 299.139H698.152C689.34 299.139 682.196 306.282 682.196 315.095C682.196 323.907 689.34 331.051 698.152 331.051H748.63C757.442 331.051 764.586 323.907 764.586 315.095C764.586 306.282 757.442 299.139 748.63 299.139Z" fill="url(#paint15_linear_1235_18346)"/>
<path d="M748.63 378.047H698.152C689.34 378.047 682.196 385.191 682.196 394.003C682.196 402.815 689.34 409.959 698.152 409.959H748.63C757.442 409.959 764.586 402.815 764.586 394.003C764.586 385.191 757.442 378.047 748.63 378.047Z" fill="url(#paint16_linear_1235_18346)"/>
<path d="M493.769 368.158L480.593 354.983L493.769 341.807M533.296 341.807L546.472 354.983L533.296 368.158M518.645 335.221L507.663 374.747" stroke="white" stroke-width="9.389" stroke-linecap="round" stroke-linejoin="round"/>
<path d="M482.623 132.697V263.986C482.623 273.578 474.849 281.335 465.26 281.335H155.665C146.077 281.335 138.302 273.578 138.302 263.986V132.697C138.302 123.103 146.079 115.322 155.665 115.322H465.26C474.847 115.322 482.623 123.103 482.623 132.697Z" fill="white" stroke="#E1E4E5" stroke-width="2.321"/>
<path d="M257.195 269.066H165.994C159.089 269.066 153.473 263.447 153.473 256.538V165.282C153.473 158.374 159.089 152.754 165.994 152.754H257.195C264.099 152.754 269.716 158.374 269.716 165.282V256.538C269.716 263.473 264.099 269.066 257.195 269.066Z" fill="#4F27AA"/>
<path d="M482.623 132.697C482.623 133.853 482.164 134.961 481.347 135.777C480.53 136.594 479.422 137.053 478.267 137.053H142.658C141.503 137.053 140.395 136.594 139.578 135.777C138.761 134.96 138.302 133.852 138.302 132.697C138.302 123.103 146.079 115.322 155.665 115.322H465.26C474.847 115.322 482.623 123.103 482.623 132.697Z" fill="white" stroke="#E1E4E5" stroke-width="2.321"/>
<path d="M160.671 126.613C160.669 127.544 160.299 128.436 159.641 129.095C158.983 129.753 158.091 130.124 157.16 130.127C156.229 130.124 155.337 129.753 154.679 129.095C154.021 128.436 153.651 127.544 153.649 126.613C153.651 125.683 154.021 124.791 154.678 124.133C155.335 123.474 156.226 123.103 157.156 123.1C159.101 123.124 160.671 124.688 160.671 126.613ZM174.24 126.614C174.238 127.544 173.868 128.437 173.21 129.095C172.552 129.753 171.66 130.124 170.729 130.127C169.798 130.124 168.906 129.753 168.248 129.095C167.59 128.437 167.22 127.544 167.218 126.614C167.22 125.684 167.589 124.792 168.246 124.133C168.903 123.475 169.794 123.103 170.724 123.1C172.67 123.124 174.24 124.688 174.24 126.614ZM187.807 126.614C187.805 127.544 187.435 128.437 186.777 129.095C186.119 129.753 185.227 130.124 184.296 130.127C183.365 130.124 182.474 129.753 181.816 129.095C181.158 128.436 180.788 127.544 180.786 126.614C180.788 125.684 181.157 124.792 181.814 124.133C182.471 123.475 183.362 123.103 184.292 123.1C186.26 123.124 187.807 124.685 187.807 126.614Z" fill="#E1E4E5" stroke="#E1E4E5" stroke-width="1.583"/>
<path d="M345.728 154.777H295.25C286.438 154.777 279.294 161.921 279.294 170.733C279.294 179.546 286.438 186.689 295.25 186.689H345.728C354.54 186.689 361.684 179.546 361.684 170.733C361.684 161.921 354.54 154.777 345.728 154.777Z" fill="url(#paint17_linear_1235_18346)"/>
<path d="M345.728 233.686H295.25C286.438 233.686 279.294 240.829 279.294 249.642C279.294 258.454 286.438 265.598 295.25 265.598H345.728C354.54 265.598 361.684 258.454 361.684 249.642C361.684 240.829 354.54 233.686 345.728 233.686Z" fill="url(#paint18_linear_1235_18346)"/>
<path d="M313.236 194.23H295.25C286.438 194.23 279.294 201.374 279.294 210.186C279.294 218.999 286.438 226.142 295.25 226.142H313.236C322.048 226.142 329.192 218.999 329.192 210.186C329.192 201.374 322.048 194.23 313.236 194.23Z" fill="url(#paint19_linear_1235_18346)"/>
<path d="M379.961 194.23H361.975C353.163 194.23 346.019 201.374 346.019 210.186C346.019 218.999 353.163 226.142 361.975 226.142H379.961C388.773 226.142 395.917 218.999 395.917 210.186C395.917 201.374 388.773 194.23 379.961 194.23Z" fill="url(#paint20_linear_1235_18346)"/>
<path d="M446.685 194.23H428.699C419.887 194.23 412.743 201.374 412.743 210.186C412.743 218.999 419.887 226.142 428.699 226.142H446.685C455.497 226.142 462.641 218.999 462.641 210.186C462.641 201.374 455.497 194.23 446.685 194.23Z" fill="url(#paint21_linear_1235_18346)"/>
<path d="M446.685 154.777H396.207C387.395 154.777 380.251 161.921 380.251 170.733C380.251 179.546 387.395 186.689 396.207 186.689H446.685C455.497 186.689 462.641 179.546 462.641 170.733C462.641 161.921 455.497 154.777 446.685 154.777Z" fill="url(#paint22_linear_1235_18346)"/>
<path d="M446.685 233.686H396.207C387.395 233.686 380.251 240.829 380.251 249.642C380.251 258.454 387.395 265.598 396.207 265.598H446.685C455.497 265.598 462.641 258.454 462.641 249.642C462.641 240.829 455.497 233.686 446.685 233.686Z" fill="url(#paint23_linear_1235_18346)"/>
<path d="M191.824 223.795L178.649 210.62L191.824 197.444M231.351 197.444L244.527 210.62L231.351 223.795M216.701 190.857L205.719 230.384" stroke="white" stroke-width="9.389" stroke-linecap="round" stroke-linejoin="round"/>
<path d="M418.888 313.174L432.426 309.056L491.28 307.324L504.553 310.947L502.821 343.29L472.793 362.449L443.667 361.866L425.357 345.182L421.292 328.639L418.888 313.174Z" fill="#F8AE9D"/>
<path d="M588.805 365.188C584.545 356.405 580.463 349.353 576.822 343.785C569.674 332.816 558.741 324.858 546.105 321.428L498.103 308.42C498.103 308.42 495.611 356.387 462.596 356.387C429.581 356.387 423.148 311.407 423.148 311.407L367.599 333.57C365.69 334.312 352.806 338.766 337.819 370.915C323.538 401.526 317.299 417.202 317.299 417.202L374.527 433.728L378.097 485.194L376.878 514.585L550.576 514.196L549.604 480.598L550.329 429.079L552.503 432.596L610.314 409.408C610.314 409.408 602.873 394.138 588.805 365.188Z" fill="#4F27AA"/>
<path d="M456.987 330.287C471.075 330.028 487.079 302.548 487.079 302.548L487.998 231.961C488.734 211.631 476.087 194.309 453.293 194.213L451.177 194.309C429.961 195.32 413.16 210.687 412.593 229.623C412.057 247.245 411.735 266.714 412.425 276.12C413.866 295.589 436.078 292.303 436.078 292.303C436.124 292.303 436.017 302.11 436.078 307.839C436.246 320.704 451.331 330.725 456.987 330.287Z" fill="#F8AE9D"/>
<path d="M480.959 235.834C481.347 235.65 496.521 230.582 496.86 245.57C497.199 260.559 481.314 257.795 481.282 257.365C481.25 256.935 480.959 235.834 480.959 235.834ZM322.231 418.636L298.954 465.348C296.354 470.567 295.136 476.366 295.419 482.191C296.303 500.324 311.273 514.587 329.424 514.587L396.721 513.529L399.094 480.264L348.3 468.016L367.546 431.626L322.231 418.636ZM607.363 410.595C607.363 410.595 621.802 453.489 637.55 492.477C637.868 493.255 638.221 494.704 638.504 495.5C642.056 505.167 631.364 514.587 620.565 514.587L529.562 514.428V484.842L586.172 472.824L565.67 427.296L607.363 410.595Z" fill="#F8AE9D"/>
<path d="M424.968 483.48C424.985 483.586 427.053 482.932 430.5 482.72C433.928 482.49 438.789 482.879 443.631 484.947C448.474 487.015 452.132 490.249 454.324 492.882C456.551 495.516 457.505 497.477 457.594 497.407C457.629 497.389 457.417 496.894 456.94 496.046C456.257 494.851 455.483 493.711 454.624 492.635C452.468 489.895 448.792 486.537 443.843 484.434C438.895 482.331 433.928 481.978 430.464 482.331C429.093 482.45 427.733 482.68 426.399 483.02C425.463 483.25 424.95 483.444 424.968 483.48ZM428.078 476.322C428.114 476.463 430.217 475.421 433.84 475.315C437.446 475.155 442.518 476.251 447.255 479.114C451.991 481.995 455.544 485.636 458.053 488.252C459.255 489.524 460.245 490.585 461.022 491.398C461.729 492.14 462.118 492.547 462.154 492.511C462.189 492.493 461.835 492.034 461.181 491.256C460.261 490.147 459.319 489.057 458.354 487.987C455.897 485.3 452.362 481.571 447.537 478.637C442.712 475.721 437.499 474.661 433.822 474.926C431.984 475.032 430.517 475.368 429.545 475.703C429.05 475.845 428.697 476.021 428.45 476.128C428.202 476.234 428.078 476.304 428.078 476.322Z" fill="#EB996E"/>
<path d="M548.702 479.414H535.641C535.641 479.414 506.161 468.757 500.099 469.782C494.638 470.701 474.649 483.974 470.725 486.607C470.283 486.908 469.965 487.314 469.771 487.809C469.386 488.849 469.42 489.998 469.865 491.013C470.31 492.028 471.132 492.831 472.157 493.253L472.563 493.43L472.387 494.03C472.153 494.803 472.051 495.61 472.086 496.416C472.227 499.227 476.01 500.075 477.441 497.654L476.681 498.997C476.376 499.541 476.229 500.159 476.257 500.782L476.328 502.001C476.365 502.661 476.601 503.295 477.005 503.818C477.409 504.342 477.961 504.731 478.59 504.935C479.187 505.134 479.83 505.155 480.439 504.995C481.047 504.835 481.597 504.501 482.019 504.034C484.546 501.241 490.025 495.656 493.737 495.038C497.024 494.49 502.52 494.419 505.843 494.437C506.666 494.439 507.47 494.689 508.148 495.156C508.827 495.623 509.348 496.285 509.643 497.053C507.451 497.212 492.128 505.2 486.702 508.063C485.023 508.947 483.768 510.538 483.556 512.429C483.362 514.126 484.21 515.911 487.568 515.115C494.779 513.436 507.734 507.48 507.734 507.48C507.734 507.48 514.415 505.571 518.745 508.629C524.842 512.924 527.635 514.497 532.866 512.765C538.098 511.033 541.951 508.541 541.951 508.541L552.255 507.516C552.29 507.516 562.028 483.161 548.702 479.414Z" fill="#F8AE9D"/>
<path d="M509.766 484.398C509.748 484.504 507.681 483.851 504.234 483.638C500.805 483.409 495.945 483.798 491.103 485.865C486.26 487.933 482.601 491.167 480.41 493.801C478.183 496.434 477.229 498.396 477.14 498.325C477.105 498.308 477.317 497.813 477.794 496.964C478.476 495.769 479.25 494.628 480.109 493.553C482.266 490.814 485.942 487.456 490.89 485.353C495.839 483.25 500.805 482.896 504.27 483.25C506.002 483.409 507.398 483.691 508.334 483.939C509.271 484.186 509.784 484.363 509.766 484.398ZM506.655 477.241C506.62 477.382 504.517 476.339 500.894 476.233C497.288 476.074 492.216 477.17 487.479 480.033C482.743 482.914 479.19 486.555 476.681 489.17C475.479 490.443 474.489 491.503 473.711 492.316C473.004 493.059 472.616 493.465 472.58 493.43C472.545 493.412 472.898 492.953 473.552 492.175C474.206 491.38 475.161 490.266 476.38 488.905C478.837 486.219 482.371 482.49 487.196 479.556C492.021 476.64 497.235 475.579 500.911 475.844C502.749 475.95 504.216 476.286 505.188 476.622C505.683 476.763 506.037 476.94 506.284 477.046C506.532 477.152 506.655 477.223 506.655 477.241Z" fill="#EB996E"/>
<path d="M531.029 515.417H393.898C392.022 515.418 390.219 514.695 388.865 513.396C387.511 512.098 386.711 510.327 386.634 508.453L382.516 414.075C382.339 409.94 385.644 406.475 389.78 406.475H534.882C539.017 406.475 542.322 409.922 542.163 414.058L538.31 508.453C538.151 512.342 534.935 515.417 531.029 515.417Z" fill="#2E2445"/>
<path d="M476.188 462.692C476.188 470.446 469.918 476.715 462.164 476.715C454.41 476.715 448.141 470.446 448.141 462.692C448.141 454.938 454.41 448.668 462.164 448.668C469.918 448.668 476.188 454.971 476.188 462.692Z" fill="white"/>
<path d="M475.657 263.141H488.029V316.162H475.657V263.141Z" fill="#F8AE9D"/>
<path d="M480.513 215.764C478.284 218.641 474.352 219.275 471.114 219.844C466.76 220.608 464.606 222.2 462.346 226.474C460.915 229.205 459.484 232.195 456.923 233.674C454.841 234.881 454.917 231.803 454.587 229.419C454.557 229.208 454.514 228.998 454.459 228.792C453.955 226.889 451.93 227.214 451.335 229.091C450.793 230.781 449.633 232.211 448.156 233.008C447.915 233.138 447.659 233.251 447.403 233.203C447.057 233.154 446.786 232.829 446.56 232.536C446.086 231.924 445.616 231.146 445.13 230.322C443.533 227.614 440.51 228.582 438.726 231.171C437.612 232.78 436.286 234.438 434.463 234.812C433.876 234.942 433.138 234.844 432.867 234.275C432.52 233.577 433.062 232.878 432.972 232.163C432.897 231.496 432.61 231.204 432.294 230.635C431.053 228.428 428.212 228.348 426.466 230.181C425.251 231.456 423.984 232.681 422.668 233.853C422.111 234.34 421.297 234.828 420.74 234.34C420.439 234.08 420.364 233.642 420.303 233.219C419.987 231.155 419.686 229.091 419.369 227.027C419.189 225.873 418.571 224.362 417.516 224.654C417.004 224.801 416.703 225.337 416.417 225.824C416.07 226.442 409.879 233.479 409.759 232.943C408.794 228.945 406.821 225.304 405.857 221.306C399.621 195.58 427.293 174.891 448.427 174.777C453.127 174.745 457.421 174.821 461.985 175.91C466.851 177.08 471.987 178.938 476.401 181.554C482.592 185.211 487.277 191.858 486.072 199.789" fill="#2E2445"/>
<path d="M469.398 207.068C466.289 210.482 465.465 215.286 465.176 219.824C464.749 226.668 465.328 233.778 468.59 239.853C469.52 241.583 470.206 250.141 471.639 249.668C472.097 249.521 472.02 242.884 473.225 239.306C475.084 233.763 483.652 231.65 487.508 235.153C493.667 240.725 490.054 247.495 488.011 251.708C486.792 254.251 484.856 257.104 484.52 259.794C484.109 263.238 483.987 275.788 486.304 278.714C488.24 281.168 490.298 269.313 492.051 266.978C505.024 249.58 517.463 205.279 495.313 195.671C491.944 194.207 481.548 193.454 478.392 195.316" fill="#2E2445"/>
<path fill-rule="evenodd" clip-rule="evenodd" d="M568.947 99.883H565.431C564.581 99.883 563.897 99.191 563.897 98.348V94.833C563.897 93.983 564.588 93.298 565.431 93.298H568.947C569.354 93.2996 569.743 93.4618 570.03 93.7494C570.318 94.037 570.48 94.4265 570.481 94.833V98.348C570.482 98.5497 570.442 98.7495 570.366 98.936C570.289 99.1224 570.176 99.2919 570.033 99.4345C569.891 99.5772 569.721 99.6902 569.535 99.7672C569.348 99.8442 569.149 99.8835 568.947 99.883ZM556.758 99.883H553.242C552.835 99.8814 552.446 99.7192 552.159 99.4316C551.871 99.144 551.709 98.7545 551.708 98.348V94.833C551.708 93.983 552.4 93.298 553.242 93.298H556.758C557.165 93.2996 557.554 93.4618 557.841 93.7494C558.129 94.037 558.291 94.4265 558.292 94.833V98.348C558.291 98.7545 558.129 99.144 557.841 99.4316C557.554 99.7192 557.165 99.8814 556.758 99.883ZM544.561 99.883H541.045C540.638 99.8814 540.249 99.7192 539.962 99.4316C539.674 99.144 539.512 98.7545 539.511 98.348V94.833C539.511 93.983 540.202 93.298 541.045 93.298H544.561C544.968 93.2996 545.357 93.4618 545.644 93.7494C545.932 94.037 546.094 94.4265 546.095 94.833V98.348C546.096 98.5497 546.056 98.7495 545.98 98.936C545.903 99.1224 545.79 99.2919 545.647 99.4345C545.505 99.5772 545.335 99.6902 545.149 99.7672C544.962 99.8442 544.763 99.8835 544.561 99.883ZM532.371 99.883H528.855C528.448 99.8814 528.059 99.7192 527.772 99.4316C527.484 99.144 527.322 98.7545 527.321 98.348V94.833C527.321 93.983 528.013 93.298 528.855 93.298H532.371C533.221 93.298 533.913 93.99 533.913 94.833V98.348C533.909 98.7549 533.744 99.1438 533.456 99.431C533.168 99.7181 532.778 99.8804 532.371 99.883ZM520.182 99.883H516.666C515.816 99.883 515.125 99.191 515.125 98.348V94.833C515.125 93.983 515.816 93.298 516.666 93.298H520.182C520.589 93.2993 520.978 93.4615 521.266 93.749C521.554 94.0366 521.716 94.4263 521.717 94.833V98.348C521.716 98.7547 521.554 99.1444 521.266 99.432C520.978 99.7195 520.589 99.8817 520.182 99.883ZM556.311 86.592H552.796C552.389 86.5907 552 86.4285 551.712 86.141C551.424 85.8534 551.262 85.4637 551.261 85.057V81.534C551.263 81.1275 551.425 80.7381 551.712 80.4507C552 80.1633 552.389 80.0013 552.796 80H556.311C557.161 80 557.846 80.692 557.846 81.534V85.05C557.847 85.2522 557.808 85.4527 557.732 85.6399C557.655 85.827 557.542 85.9972 557.399 86.1405C557.257 86.2839 557.087 86.3975 556.9 86.475C556.714 86.5525 556.513 86.5923 556.311 86.592ZM544.122 86.592H540.606C540.199 86.5904 539.81 86.4282 539.523 86.1406C539.235 85.853 539.073 85.4635 539.072 85.057V81.534C539.074 81.1276 539.236 80.7384 539.523 80.451C539.81 80.1637 540.2 80.0016 540.606 80H544.122C544.528 80.0016 544.918 80.1637 545.205 80.451C545.492 80.7384 545.654 81.1276 545.656 81.534V85.05C545.657 85.2522 545.619 85.4527 545.542 85.6398C545.466 85.827 545.353 85.9971 545.21 86.1405C545.068 86.2838 544.898 86.3975 544.711 86.475C544.524 86.5525 544.324 86.5923 544.122 86.592ZM531.933 86.592H528.417C527.567 86.592 526.875 85.9 526.875 85.057V81.534C526.875 80.692 527.567 80 528.417 80H531.933C532.339 80.0016 532.729 80.1637 533.016 80.451C533.303 80.7384 533.465 81.1276 533.467 81.534V85.05C533.467 85.9 532.776 86.592 531.933 86.592ZM544.561 114.162H541.045C540.638 114.16 540.249 113.998 539.962 113.711C539.674 113.423 539.512 113.034 539.511 112.627V109.112C539.511 108.262 540.202 107.577 541.045 107.577H544.561C544.968 107.579 545.357 107.741 545.644 108.028C545.932 108.316 546.094 108.705 546.095 109.112V112.627C546.095 112.829 546.056 113.028 545.979 113.215C545.902 113.401 545.789 113.571 545.647 113.713C545.504 113.856 545.335 113.969 545.149 114.046C544.962 114.123 544.763 114.162 544.561 114.162ZM532.371 114.162H528.855C528.448 114.16 528.059 113.998 527.772 113.711C527.484 113.423 527.322 113.034 527.321 112.627V109.112C527.321 108.262 528.013 107.577 528.855 107.577H532.371C533.221 107.577 533.913 108.269 533.913 109.112V112.627C533.909 113.034 533.744 113.423 533.456 113.71C533.168 113.997 532.778 114.159 532.371 114.162Z" fill="#E1E4E5"/>
<path d="M721 511H204C201.239 511 199 513.239 199 516C199 518.761 201.239 521 204 521H721C723.761 521 726 518.761 726 516C726 513.239 723.761 511 721 511Z" fill="#E1E4E5"/>
<path d="M695.15 465.74L668.754 492.137C667.793 493.098 667.793 494.656 668.754 495.617L668.755 495.618C669.716 496.579 671.274 496.579 672.235 495.618L698.632 469.222C699.593 468.26 699.593 466.702 698.632 465.741L698.631 465.74C697.67 464.779 696.112 464.779 695.15 465.74Z" fill="#E1E4E5"/>
<path d="M692.567 484.639L684.954 492.252C683.993 493.213 683.993 494.771 684.954 495.732L684.955 495.733C685.916 496.694 687.474 496.694 688.435 495.733L696.048 488.12C697.009 487.159 697.009 485.601 696.048 484.64L696.047 484.639C695.086 483.678 693.528 483.678 692.567 484.639Z" fill="#E1E4E5"/>
</g>
<defs>
<linearGradient id="paint0_linear_1235_18346" x1="671.826" y1="189.077" x2="671.796" y2="154.507" gradientUnits="userSpaceOnUse">
<stop stop-color="white"/>
<stop offset="1" stop-color="#EEEEEE"/>
</linearGradient>
<linearGradient id="paint1_linear_1235_18346" x1="639.377" y1="218.19" x2="639.332" y2="183.621" gradientUnits="userSpaceOnUse">
<stop stop-color="white"/>
<stop offset="1" stop-color="#EEEEEE"/>
</linearGradient>
<linearGradient id="paint2_linear_1235_18346" x1="299.104" y1="396.326" x2="298.723" y2="311.799" gradientUnits="userSpaceOnUse">
<stop stop-color="white"/>
<stop offset="1" stop-color="#EEEEEE"/>
</linearGradient>
<linearGradient id="paint3_linear_1235_18346" x1="299.104" y1="475.236" x2="298.723" y2="390.708" gradientUnits="userSpaceOnUse">
<stop stop-color="white"/>
<stop offset="1" stop-color="#EEEEEE"/>
</linearGradient>
<linearGradient id="paint4_linear_1235_18346" x1="282.165" y1="435.782" x2="281.536" y2="351.257" gradientUnits="userSpaceOnUse">
<stop stop-color="white"/>
<stop offset="1" stop-color="#EEEEEE"/>
</linearGradient>
<linearGradient id="paint5_linear_1235_18346" x1="348.889" y1="435.782" x2="348.26" y2="351.257" gradientUnits="userSpaceOnUse">
<stop stop-color="white"/>
<stop offset="1" stop-color="#EEEEEE"/>
</linearGradient>
<linearGradient id="paint6_linear_1235_18346" x1="415.614" y1="435.782" x2="414.985" y2="351.257" gradientUnits="userSpaceOnUse">
<stop stop-color="white"/>
<stop offset="1" stop-color="#EEEEEE"/>
</linearGradient>
<linearGradient id="paint7_linear_1235_18346" x1="400.061" y1="396.326" x2="399.68" y2="311.799" gradientUnits="userSpaceOnUse">
<stop stop-color="white"/>
<stop offset="1" stop-color="#EEEEEE"/>
</linearGradient>
<linearGradient id="paint8_linear_1235_18346" x1="400.061" y1="475.236" x2="399.68" y2="390.708" gradientUnits="userSpaceOnUse">
<stop stop-color="white"/>
<stop offset="1" stop-color="#EEEEEE"/>
</linearGradient>
<linearGradient id="paint9_linear_1235_18346" x1="516.018" y1="478.637" x2="512.429" y2="170.585" gradientUnits="userSpaceOnUse">
<stop stop-color="white"/>
<stop offset="1" stop-color="#EEEEEE"/>
</linearGradient>
<linearGradient id="paint10_linear_1235_18346" x1="624.19" y1="348.942" x2="623.809" y2="264.415" gradientUnits="userSpaceOnUse">
<stop stop-color="white"/>
<stop offset="1" stop-color="#EEEEEE"/>
</linearGradient>
<linearGradient id="paint11_linear_1235_18346" x1="624.19" y1="427.85" x2="623.809" y2="343.323" gradientUnits="userSpaceOnUse">
<stop stop-color="white"/>
<stop offset="1" stop-color="#EEEEEE"/>
</linearGradient>
<linearGradient id="paint12_linear_1235_18346" x1="607.252" y1="388.396" x2="606.622" y2="303.871" gradientUnits="userSpaceOnUse">
<stop stop-color="white"/>
<stop offset="1" stop-color="#EEEEEE"/>
</linearGradient>
<linearGradient id="paint13_linear_1235_18346" x1="673.976" y1="388.396" x2="673.347" y2="303.871" gradientUnits="userSpaceOnUse">
<stop stop-color="white"/>
<stop offset="1" stop-color="#EEEEEE"/>
</linearGradient>
<linearGradient id="paint14_linear_1235_18346" x1="740.7" y1="388.396" x2="740.071" y2="303.871" gradientUnits="userSpaceOnUse">
<stop stop-color="white"/>
<stop offset="1" stop-color="#EEEEEE"/>
</linearGradient>
<linearGradient id="paint15_linear_1235_18346" x1="725.148" y1="348.942" x2="724.766" y2="264.415" gradientUnits="userSpaceOnUse">
<stop stop-color="white"/>
<stop offset="1" stop-color="#EEEEEE"/>
</linearGradient>
<linearGradient id="paint16_linear_1235_18346" x1="725.148" y1="427.85" x2="724.766" y2="343.323" gradientUnits="userSpaceOnUse">
<stop stop-color="white"/>
<stop offset="1" stop-color="#EEEEEE"/>
</linearGradient>
<linearGradient id="paint17_linear_1235_18346" x1="322.246" y1="204.58" x2="321.865" y2="120.053" gradientUnits="userSpaceOnUse">
<stop stop-color="white"/>
<stop offset="1" stop-color="#EEEEEE"/>
</linearGradient>
<linearGradient id="paint18_linear_1235_18346" x1="322.246" y1="283.489" x2="321.865" y2="198.961" gradientUnits="userSpaceOnUse">
<stop stop-color="white"/>
<stop offset="1" stop-color="#EEEEEE"/>
</linearGradient>
<linearGradient id="paint19_linear_1235_18346" x1="305.307" y1="244.033" x2="304.678" y2="159.509" gradientUnits="userSpaceOnUse">
<stop stop-color="white"/>
<stop offset="1" stop-color="#EEEEEE"/>
</linearGradient>
<linearGradient id="paint20_linear_1235_18346" x1="372.032" y1="244.033" x2="371.402" y2="159.509" gradientUnits="userSpaceOnUse">
<stop stop-color="white"/>
<stop offset="1" stop-color="#EEEEEE"/>
</linearGradient>
<linearGradient id="paint21_linear_1235_18346" x1="438.756" y1="244.033" x2="438.127" y2="159.509" gradientUnits="userSpaceOnUse">
<stop stop-color="white"/>
<stop offset="1" stop-color="#EEEEEE"/>
</linearGradient>
<linearGradient id="paint22_linear_1235_18346" x1="423.203" y1="204.58" x2="422.822" y2="120.053" gradientUnits="userSpaceOnUse">
<stop stop-color="white"/>
<stop offset="1" stop-color="#EEEEEE"/>
</linearGradient>
<linearGradient id="paint23_linear_1235_18346" x1="423.203" y1="283.489" x2="422.822" y2="198.961" gradientUnits="userSpaceOnUse">
<stop stop-color="white"/>
<stop offset="1" stop-color="#EEEEEE"/>
</linearGradient>
<clipPath id="clip0_1235_18346">
<rect width="900" height="600" fill="white"/>
</clipPath>
</defs>
</svg>
