<svg width="900" height="600" viewBox="0 0 900 600" fill="none" xmlns="http://www.w3.org/2000/svg">
<g clip-path="url(#clip0_1235_24253)">
<path d="M676.711 404.144C674.298 465.359 543.598 578.021 401.136 518.404C334.878 490.675 343.983 455.83 296.457 404.319C268.129 373.618 225.65 348.425 217.08 306.859C209.674 270.981 219.744 234.111 240.549 211.467C287.34 160.542 374.935 130.887 449.659 225.06C524.383 319.232 682.916 246.265 676.711 404.144Z" fill="url(#paint0_linear_1235_24253)"/>
<path d="M713.606 216.612C700.597 239.83 672.106 243.02 626.461 238.608C592.133 235.283 560.829 232.711 526.498 213.993C502.468 200.902 483.448 183.189 469.565 165.986C454.521 147.349 433.523 126.079 443.817 104.948C457.963 75.9204 539.769 51.4734 619.205 91.4534C706.466 135.383 726.332 193.921 713.606 216.612Z" fill="url(#paint1_linear_1235_24253)"/>
<path d="M791.055 275.309C764.572 288.446 729.423 271.554 729.423 271.554C729.423 271.554 737.235 233.371 763.732 220.252C790.214 207.115 825.35 223.988 825.35 223.988C825.35 223.988 817.538 262.172 791.055 275.309Z" fill="url(#paint2_linear_1235_24253)"/>
<path d="M123.143 359.67C137.531 368.294 158.174 360.322 158.174 360.322C158.174 360.322 155.475 338.371 141.078 329.758C126.689 321.134 106.055 329.096 106.055 329.096C106.055 329.096 108.754 351.046 123.143 359.67Z" fill="url(#paint3_linear_1235_24253)"/>
<path d="M744.583 504.502C740.091 504.502 736.449 500.861 736.449 496.368C736.449 491.876 740.091 488.234 744.583 488.234C749.075 488.234 752.717 491.876 752.717 496.368C752.717 500.861 749.075 504.502 744.583 504.502Z" fill="#E1E4E5"/>
<path d="M121.111 449.807C114.622 449.807 109.362 444.546 109.362 438.058C109.362 431.569 114.622 426.309 121.111 426.309C127.6 426.309 132.86 431.569 132.86 438.058C132.86 444.546 127.6 449.807 121.111 449.807Z" fill="#E1E4E5"/>
<path d="M786.004 424.892C781.065 424.892 777.062 420.888 777.062 415.95C777.062 411.011 781.065 407.008 786.004 407.008C790.942 407.008 794.946 411.011 794.946 415.95C794.946 420.888 790.942 424.892 786.004 424.892Z" fill="#E1E4E5"/>
<path d="M691.112 149.464C685.621 149.464 681.171 145.013 681.171 139.523C681.171 134.033 685.621 129.582 691.112 129.582C696.602 129.582 701.053 134.033 701.053 139.523C701.053 145.013 696.602 149.464 691.112 149.464Z" fill="#E1E4E5"/>
<path d="M97.854 243.79C97.854 248.721 93.8572 252.717 88.927 252.717C83.9968 252.717 80 248.721 80 243.79C80 238.86 83.9968 234.863 88.927 234.863C93.8572 234.863 97.854 238.86 97.854 243.79Z" fill="#E1E4E5"/>
<path d="M378.733 89.4903C372.174 89.4903 366.857 84.1732 366.857 77.6143C366.857 71.0553 372.174 65.7383 378.733 65.7383C385.292 65.7383 390.609 71.0553 390.609 77.6143C390.609 84.1732 385.292 89.4903 378.733 89.4903Z" fill="#E1E4E5"/>
<path d="M753.458 373.729C748.412 373.729 744.322 370.457 744.322 366.421C744.322 362.385 748.412 359.113 753.458 359.113C758.503 359.113 762.594 362.385 762.594 366.421C762.594 370.457 758.503 373.729 753.458 373.729Z" fill="#E1E4E5"/>
<path d="M188.699 190.805H188.829C189.6 201.724 197.72 201.892 197.72 201.892C197.72 201.892 188.766 202.067 188.766 214.683C188.766 202.067 179.811 201.892 179.811 201.892C179.811 201.892 187.928 201.724 188.699 190.805ZM175.095 476.622H175.22C175.959 487.509 183.756 487.676 183.756 487.676C183.756 487.676 175.159 487.851 175.159 500.43C175.159 487.851 166.562 487.676 166.562 487.676C166.562 487.676 174.355 487.509 175.095 476.622Z" fill="#E1E4E5"/>
<path d="M588.147 405.191V565.437H359.575V541.393C359.575 519.02 338.313 510.965 288.056 514.345C247.85 517.05 235.222 501.305 233.933 493.094V390.218L197.69 378.144C200.429 309.238 226.588 161.09 309.318 119.747C412.732 68.0667 507.102 91.4897 569.301 183.984C615.181 252.209 599.101 353.834 588.147 405.191Z" fill="#2E2445"/>
<path d="M314.779 311.035C325.361 311.035 333.939 302.457 333.939 291.875C333.939 281.293 325.361 272.715 314.779 272.715C304.197 272.715 295.619 281.293 295.619 291.875C295.619 302.457 304.197 311.035 314.779 311.035Z" fill="white"/>
<path d="M381.839 507.957H586.212V553.728H381.839V507.957Z" fill="#2E2445"/>
<path d="M653.271 507.955L587.808 565.435L576.099 504.23L653.271 507.955Z" fill="#2E2445"/>
<path d="M653.078 347.71V507.956H424.506V483.912C424.506 461.539 403.243 453.484 352.987 456.865C312.781 459.569 300.152 443.824 298.864 435.613V332.738L262.621 320.663C265.359 251.757 291.519 103.61 374.249 62.266C477.662 10.586 572.033 34.01 634.232 126.503C680.111 194.728 664.031 296.353 653.078 347.71Z" fill="#4F27AA"/>
<path d="M379.71 253.554C390.292 253.554 398.87 244.976 398.87 234.394C398.87 223.813 390.292 215.234 379.71 215.234C369.128 215.234 360.55 223.813 360.55 234.394C360.55 244.976 369.128 253.554 379.71 253.554Z" fill="white"/>
</g>
<defs>
<linearGradient id="paint0_linear_1235_24253" x1="500.118" y1="755.854" x2="371.731" y2="-269.952" gradientUnits="userSpaceOnUse">
<stop stop-color="white"/>
<stop offset="1" stop-color="#EEEEEE"/>
</linearGradient>
<linearGradient id="paint1_linear_1235_24253" x1="625.968" y1="367.082" x2="510.016" y2="-153.961" gradientUnits="userSpaceOnUse">
<stop stop-color="white"/>
<stop offset="1" stop-color="#EEEEEE"/>
</linearGradient>
<linearGradient id="paint2_linear_1235_24253" x1="689.358" y1="316.286" x2="907.789" y2="143.506" gradientUnits="userSpaceOnUse">
<stop stop-color="white"/>
<stop offset="1" stop-color="#EEEEEE"/>
</linearGradient>
<linearGradient id="paint3_linear_1235_24253" x1="178.822" y1="387.429" x2="63.0472" y2="279.859" gradientUnits="userSpaceOnUse">
<stop stop-color="white"/>
<stop offset="1" stop-color="#EEEEEE"/>
</linearGradient>
<clipPath id="clip0_1235_24253">
<rect width="900" height="600" fill="white"/>
</clipPath>
</defs>
</svg>
