<svg width="900" height="600" viewBox="0 0 900 600" fill="none" xmlns="http://www.w3.org/2000/svg">
<g clip-path="url(#clip0_1235_24273)">
<path d="M450.498 522.996C573.38 522.996 672.996 423.38 672.996 300.498C672.996 177.616 573.38 78 450.498 78C327.616 78 228 177.616 228 300.498C228 423.38 327.616 522.996 450.498 522.996Z" fill="url(#paint0_linear_1235_24273)"/>
<path fill-rule="evenodd" clip-rule="evenodd" d="M415.577 447.016V452.942C415.577 473.48 432.235 490.137 452.789 490.137C473.342 490.137 490 473.48 490 452.926V447" fill="white"/>
<path d="M415.577 447.016V452.942C415.577 473.48 432.235 490.137 452.789 490.137C473.342 490.137 490 473.48 490 452.926V447" stroke="#E1E4E5" stroke-width="4.967" stroke-linecap="round" stroke-linejoin="round"/>
<path fill-rule="evenodd" clip-rule="evenodd" d="M486.015 149.817V133.243C486.015 114.971 471.017 100.148 452.489 100.148C433.961 100.148 418.963 114.971 418.963 133.243V149.817" fill="white"/>
<path d="M486.015 149.817V133.243C486.015 114.971 471.017 100.148 452.489 100.148C433.961 100.148 418.963 114.971 418.963 133.243V149.817" stroke="#E1E4E5" stroke-width="4.967" stroke-linecap="round" stroke-linejoin="round"/>
<path fill-rule="evenodd" clip-rule="evenodd" d="M325.457 256.387C325.457 197.768 372.975 150.273 431.57 150.273H474.03C532.648 150.273 580.143 197.791 580.143 256.387V321.891C580.148 334.313 585.084 346.224 593.867 355.006L608.879 370.018C617.662 378.801 622.598 390.712 622.602 403.133C622.602 427.583 602.79 447.395 578.34 447.395H327.26C302.81 447.395 282.998 427.583 282.998 403.133C283.002 390.712 287.938 378.801 296.721 370.018L311.733 355.006C320.516 346.224 325.453 334.313 325.457 321.891V256.387Z" fill="white" stroke="#E1E4E5" stroke-width="4.967" stroke-linecap="round" stroke-linejoin="round"/>
<path d="M415.74 218.109H209.115C195.4 218.109 184.281 229.228 184.281 242.943V291.562C184.281 305.278 195.4 316.396 209.115 316.396H415.74C429.455 316.396 440.574 305.278 440.574 291.562V242.943C440.574 229.228 429.455 218.109 415.74 218.109Z" fill="white" stroke="#E1E4E5" stroke-width="4.967"/>
<path d="M408.623 248.703H276.057C272.839 248.703 270.23 251.312 270.23 254.53C270.23 257.748 272.839 260.357 276.057 260.357H408.623C411.841 260.357 414.45 257.748 414.45 254.53C414.45 251.312 411.841 248.703 408.623 248.703Z" fill="#E1E4E5"/>
<path d="M357.636 273.469H276.057C272.839 273.469 270.23 276.078 270.23 279.296C270.23 282.514 272.839 285.123 276.057 285.123H357.636C360.854 285.123 363.463 282.514 363.463 279.296C363.463 276.078 360.854 273.469 357.636 273.469Z" fill="#E1E4E5"/>
<path fill-rule="evenodd" clip-rule="evenodd" d="M224.899 292.033C211.314 292.033 200.299 280.863 200.299 267.087C200.299 253.31 211.314 242.141 224.899 242.141C238.484 242.141 249.498 253.31 249.498 267.087C249.498 280.863 238.484 292.033 224.899 292.033Z" fill="#4F27AA"/>
<path d="M233.561 262.93L223.169 274.017L216.93 267.366" stroke="white" stroke-width="4.431" stroke-linecap="round" stroke-linejoin="round"/>
<path fill-rule="evenodd" clip-rule="evenodd" d="M521.403 206.936C493.631 206.936 471.114 183.585 471.114 154.784C471.114 125.984 493.631 102.633 521.403 102.633C549.175 102.633 571.692 125.984 571.692 154.784C571.692 183.585 549.175 206.936 521.403 206.936Z" fill="#4F27AA"/>
<path d="M402.459 361H195.834C182.119 361 171 372.119 171 385.834V434.453C171 448.168 182.119 459.287 195.834 459.287H402.459C416.174 459.287 427.293 448.168 427.293 434.453V385.834C427.293 372.119 416.174 361 402.459 361Z" fill="white" stroke="#E1E4E5" stroke-width="4.967"/>
<path d="M395.342 391.594H262.776C259.558 391.594 256.949 394.203 256.949 397.421C256.949 400.639 259.558 403.248 262.776 403.248H395.342C398.56 403.248 401.169 400.639 401.169 397.421C401.169 394.203 398.56 391.594 395.342 391.594Z" fill="#E1E4E5"/>
<path d="M344.355 416.355H262.776C259.558 416.355 256.949 418.964 256.949 422.182C256.949 425.401 259.558 428.009 262.776 428.009H344.355C347.573 428.009 350.182 425.401 350.182 422.182C350.182 418.964 347.573 416.355 344.355 416.355Z" fill="#E1E4E5"/>
<path fill-rule="evenodd" clip-rule="evenodd" d="M211.618 434.919C198.033 434.919 187.019 423.75 187.019 409.973C187.019 396.197 198.033 385.027 211.618 385.027C225.203 385.027 236.218 396.197 236.218 409.973C236.218 423.75 225.203 434.919 211.618 434.919Z" fill="#4F27AA"/>
<path d="M220.28 405.816L209.888 416.903L203.649 410.251" stroke="white" stroke-width="4.431" stroke-linecap="round" stroke-linejoin="round"/>
<path d="M726.166 262.812H519.541C505.826 262.812 494.707 273.931 494.707 287.647V336.266C494.707 349.981 505.826 361.1 519.541 361.1H726.166C739.881 361.1 751 349.981 751 336.266V287.647C751 273.931 739.881 262.812 726.166 262.812Z" fill="white" stroke="#E1E4E5" stroke-width="4.967"/>
<path d="M719.049 293.406H586.483C583.265 293.406 580.656 296.015 580.656 299.233C580.656 302.451 583.265 305.06 586.483 305.06H719.049C722.267 305.06 724.876 302.451 724.876 299.233C724.876 296.015 722.267 293.406 719.049 293.406Z" fill="#E1E4E5"/>
<path d="M668.062 318.172H586.483C583.265 318.172 580.656 320.781 580.656 323.999C580.656 327.217 583.265 329.826 586.483 329.826H668.062C671.28 329.826 673.889 327.217 673.889 323.999C673.889 320.781 671.28 318.172 668.062 318.172Z" fill="#E1E4E5"/>
<path fill-rule="evenodd" clip-rule="evenodd" d="M535.325 336.732C521.74 336.732 510.725 325.563 510.725 311.786C510.725 298.01 521.74 286.84 535.325 286.84C548.91 286.84 559.924 298.01 559.924 311.786C559.924 325.563 548.91 336.732 535.325 336.732Z" fill="#4F27AA"/>
<path d="M543.987 307.629L533.595 318.716L527.356 312.065" stroke="white" stroke-width="4.431" stroke-linecap="round" stroke-linejoin="round"/>
<path d="M529.033 134.574H520.598L510.091 141.227V149.185L519.81 143.092H520.059V177.018H529.033V134.574Z" fill="white"/>
</g>
<defs>
<linearGradient id="paint0_linear_1235_24273" x1="459.986" y1="772.487" x2="446.265" y2="-406.081" gradientUnits="userSpaceOnUse">
<stop stop-color="white"/>
<stop offset="1" stop-color="#EEEEEE"/>
</linearGradient>
<clipPath id="clip0_1235_24273">
<rect width="900" height="600" fill="white"/>
</clipPath>
</defs>
</svg>
