<svg width="900" height="600" viewBox="0 0 900 600" fill="none" xmlns="http://www.w3.org/2000/svg">
<g clip-path="url(#clip0_1235_24298)">
<path d="M254.755 395.936C266.515 374.948 292.27 372.064 333.531 376.053C364.563 379.058 392.861 381.383 423.896 398.303C445.617 410.138 462.811 426.15 475.361 441.701C488.96 458.548 507.942 477.775 498.637 496.877C485.849 523.117 411.899 545.217 340.09 509.077C261.209 469.365 243.251 416.448 254.755 395.936Z" fill="url(#paint0_linear_1235_24298)"/>
<path d="M104.414 214.658C122.537 205.668 146.59 217.227 146.59 217.227C146.59 217.227 141.244 243.356 123.112 252.333C104.99 261.323 80.947 249.776 80.947 249.776C80.947 249.776 86.292 223.647 104.414 214.658Z" fill="url(#paint1_linear_1235_24298)"/>
<path d="M804.135 453.005C786.943 442.701 762.277 452.226 762.277 452.226C762.277 452.226 765.502 478.454 782.705 488.747C799.898 499.051 824.553 489.537 824.553 489.537C824.553 489.537 821.328 463.309 804.135 453.005Z" fill="url(#paint2_linear_1235_24298)"/>
<path d="M185.725 502.551C194.68 502.551 201.94 495.291 201.94 486.336C201.94 477.381 194.68 470.121 185.725 470.121C176.77 470.121 169.51 477.381 169.51 486.336C169.51 495.291 176.77 502.551 185.725 502.551Z" fill="#4F27AA"/>
<path d="M760.391 321.993C767.763 321.993 773.739 316.017 773.739 308.645C773.739 301.273 767.763 295.297 760.391 295.297C753.019 295.297 747.043 301.273 747.043 308.645C747.043 316.017 753.019 321.993 760.391 321.993Z" fill="#4F27AA"/>
<path d="M720.595 126.164C728.99 126.164 735.796 132.97 735.796 141.365C735.796 149.761 728.99 156.566 720.595 156.566C712.2 156.566 705.394 149.761 705.394 141.365C705.394 132.97 712.2 126.164 720.595 126.164Z" fill="#4F27AA"/>
<path d="M216.885 322.464C220.803 322.464 223.979 325.64 223.979 329.558C223.979 333.476 220.803 336.652 216.885 336.652C212.967 336.652 209.791 333.476 209.791 329.558C209.791 325.64 212.967 322.464 216.885 322.464Z" fill="#4F27AA"/>
<path d="M782.411 215.941C789.687 215.941 795.585 221.839 795.585 229.115C795.585 236.391 789.687 242.289 782.411 242.289C775.135 242.289 769.237 236.391 769.237 229.115C769.237 221.839 775.135 215.941 782.411 215.941Z" fill="#E1E4E5"/>
<path d="M151.375 398.669C157.532 398.669 162.523 403.66 162.523 409.817C162.523 415.974 157.532 420.965 151.375 420.965C145.218 420.965 140.227 415.974 140.227 409.817C140.227 403.66 145.218 398.669 151.375 398.669Z" fill="#E1E4E5"/>
<path d="M742.544 408.833C741.113 403.493 744.282 398.004 749.622 396.573C754.962 395.142 760.451 398.311 761.882 403.651C763.312 408.991 760.143 414.48 754.803 415.911C749.463 417.342 743.975 414.173 742.544 408.833Z" fill="#E1E4E5"/>
<path d="M617.035 447.452C624.39 447.452 630.352 453.414 630.352 460.769C630.352 468.124 624.39 474.086 617.035 474.086C609.68 474.086 603.718 468.124 603.718 460.769C603.718 453.414 609.68 447.452 617.035 447.452Z" fill="#E1E4E5"/>
<path d="M111.246 131.508C116.904 131.508 121.49 135.177 121.49 139.703C121.49 144.229 116.904 147.898 111.246 147.898C105.588 147.898 101.002 144.229 101.002 139.703C101.002 135.177 105.588 131.508 111.246 131.508Z" fill="#E1E4E5"/>
<path d="M226.742 125.721H226.474C224.887 103.237 208.165 102.891 208.165 102.891C208.165 102.891 226.604 102.531 226.604 76.5508C226.604 102.531 245.043 102.891 245.043 102.891C245.043 102.891 228.329 103.237 226.742 125.721ZM764.892 114.96H764.752C763.923 102.752 755.18 102.564 755.18 102.564C755.18 102.564 764.821 102.369 764.821 88.2638C764.821 102.369 774.461 102.564 774.461 102.564C774.461 102.564 765.722 102.752 764.892 114.96Z" fill="#E1E4E5"/>
<path d="M434.786 75.3242H686.504C714.83 75.3242 737.899 107.067 737.899 146.043V192.251C737.899 212.341 725.926 228.815 711.325 228.815H496.694C482.093 228.815 470.12 212.341 470.12 192.251V142.025C470.12 123.14 465.156 104.255 455.812 90.1912C450.263 81.7532 443.255 75.3242 434.786 75.3242Z" fill="url(#paint3_linear_1235_24298)"/>
<path fill-rule="evenodd" clip-rule="evenodd" d="M335.604 75.3242H683.724C672.013 75.3242 662.32 81.7542 654.647 90.1912C641.724 104.255 634.858 123.14 634.858 142.025V192.251C634.858 193.354 634.808 194.447 634.711 195.527V470.015H264.526V146.043C264.526 107.067 296.431 75.3242 335.604 75.3242Z" fill="#4F27AA"/>
<path fill-rule="evenodd" clip-rule="evenodd" d="M335.604 75.3242H683.724C672.013 75.3242 662.32 81.7542 654.647 90.1912C641.724 104.255 634.858 123.14 634.858 142.025V192.251C634.858 193.354 634.808 194.447 634.711 195.527V470.015H264.526V146.043C264.526 107.067 296.431 75.3242 335.604 75.3242Z" fill="#E1E4E5"/>
<path fill-rule="evenodd" clip-rule="evenodd" d="M242.135 324.428V488.508C242.135 513.943 262.695 534.544 288.08 534.544H609.672C635.057 534.544 655.617 513.943 655.617 488.508V322.93L515.001 417.883C474.342 445.339 421.191 445.339 380.532 417.883L242.135 324.428Z" fill="#E1E4E5"/>
<path d="M242.135 324.427L249.941 312.867C247.843 311.45 245.398 310.63 242.87 310.496C240.341 310.363 237.824 310.92 235.588 312.108C233.352 313.296 231.482 315.07 230.178 317.24C228.873 319.411 228.185 321.895 228.185 324.427H242.135ZM655.617 322.929H669.566C669.566 320.397 668.877 317.913 667.573 315.743C666.268 313.574 664.398 311.8 662.162 310.612C659.927 309.424 657.41 308.866 654.882 309C652.353 309.133 649.909 309.952 647.811 311.369L655.617 322.929ZM515.001 417.882L507.195 406.321L515.001 417.882ZM380.532 417.882L388.338 406.321L380.532 417.882ZM228.185 324.427V488.507H256.084V324.427H228.185ZM228.185 488.507C228.185 521.62 254.965 548.493 288.08 548.493V520.594C270.425 520.594 256.084 506.264 256.084 488.507H228.185ZM288.08 548.493H609.672V520.594H288.08V548.493ZM609.672 548.493C642.787 548.493 669.566 521.62 669.566 488.507H641.668C641.668 506.264 627.327 520.594 609.672 520.594V548.493ZM669.566 488.507V322.929H641.668V488.507H669.566ZM647.811 311.369L507.195 406.321L522.808 429.442L663.424 334.489L647.811 311.369ZM507.195 406.321C489.647 418.185 468.949 424.525 447.767 424.525C426.584 424.525 405.886 418.185 388.338 406.321L372.725 429.442C418.101 460.084 477.432 460.084 522.808 429.442L507.195 406.321ZM388.338 406.321L249.941 312.867L234.328 335.988L372.725 429.442L388.338 406.321Z" fill="white"/>
<path d="M344.041 320.778H565.424M345.212 255.768H565.424M345.212 201.887H565.424" stroke="white" stroke-width="20" stroke-linecap="round" stroke-linejoin="round"/>
<path d="M701.957 480.389L670.572 511.774C669.429 512.917 669.429 514.77 670.571 515.913C671.714 517.056 673.567 517.056 674.71 515.913L706.095 484.528C707.238 483.385 707.239 481.532 706.096 480.389C704.953 479.246 703.1 479.246 701.957 480.389Z" fill="#E1E4E5"/>
<path d="M698.885 502.864L689.834 511.915C688.691 513.058 688.69 514.911 689.833 516.054C690.976 517.197 692.829 517.196 693.972 516.053L703.023 507.002C704.166 505.859 704.167 504.006 703.024 502.863C701.881 501.72 700.028 501.721 698.885 502.864Z" fill="#E1E4E5"/>
<path d="M201.488 209.162L232.873 177.777C234.016 176.634 234.017 174.781 232.874 173.638C231.731 172.495 229.878 172.495 228.735 173.638L197.35 205.023C196.207 206.166 196.206 208.019 197.349 209.162C198.492 210.305 200.345 210.305 201.488 209.162Z" fill="#E1E4E5"/>
<path d="M204.56 186.691L213.611 177.64C214.754 176.497 214.755 174.644 213.612 173.501C212.469 172.358 210.616 172.358 209.473 173.501L200.422 182.552C199.279 183.695 199.278 185.548 200.421 186.691C201.564 187.834 203.417 187.834 204.56 186.691Z" fill="#E1E4E5"/>
<path d="M170.124 260.222C192.457 228.003 236.68 219.99 268.899 242.323C301.118 264.657 309.131 308.88 286.798 341.098C264.464 373.317 220.241 381.331 188.023 358.997C155.804 336.664 147.79 292.441 170.124 260.222Z" fill="#4F27AA"/>
<path d="M186.806 341.493C187.815 343.336 186.524 345.595 184.424 345.661L151.398 346.691C149.14 346.761 147.722 344.277 148.931 342.369L166.947 313.93C168.095 312.118 170.766 312.203 171.796 314.084L186.806 341.493Z" fill="#4F27AA"/>
<path d="M250.348 303.562C250.44 308.822 254.778 312.993 260.038 312.901C265.298 312.809 269.469 308.472 269.376 303.212C269.284 297.952 264.947 293.781 259.687 293.873C254.427 293.984 250.256 298.302 250.348 303.562ZM217.294 304.964C217.829 310.187 222.517 313.989 227.74 313.454C232.963 312.919 236.765 308.231 236.23 303.008C235.694 297.785 231.006 293.983 225.783 294.518C220.56 295.072 216.758 299.741 217.294 304.964ZM186.213 305.537C186.749 310.76 191.436 314.562 196.659 314.026C201.882 313.491 205.684 308.803 205.149 303.58C204.614 298.357 199.926 294.555 194.703 295.09C189.48 295.626 185.678 300.295 186.213 305.537Z" fill="white"/>
<path d="M648.496 259.281H643.997C600.602 259.281 565.424 294.46 565.424 337.854V342.353C565.424 385.748 600.602 420.926 643.997 420.926H648.496C691.891 420.926 727.069 385.748 727.069 342.353V337.854C727.069 294.46 691.891 259.281 648.496 259.281Z" fill="#4F27AA"/>
<path fill-rule="evenodd" clip-rule="evenodd" d="M682.98 374.007V379.411C682.98 382.394 680.59 384.815 677.646 384.815H613.647C610.704 384.815 608.314 382.394 608.314 379.411V373.92C608.314 357.567 626.757 346.942 645.647 346.942C664.537 346.942 682.98 357.572 682.98 373.92M659.033 299.464C666.428 306.859 666.428 318.85 659.033 326.245C651.637 333.64 639.647 333.64 632.252 326.245C624.856 318.85 624.856 306.859 632.252 299.464C639.647 292.069 651.637 292.069 659.033 299.464Z" fill="white"/>
</g>
<defs>
<linearGradient id="paint0_linear_1235_24298" x1="333.977" y1="259.916" x2="438.795" y2="730.923" gradientUnits="userSpaceOnUse">
<stop stop-color="white"/>
<stop offset="1" stop-color="#EEEEEE"/>
</linearGradient>
<linearGradient id="paint1_linear_1235_24298" x1="174.006" y1="186.617" x2="24.533" y2="304.85" gradientUnits="userSpaceOnUse">
<stop stop-color="white"/>
<stop offset="1" stop-color="#EEEEEE"/>
</linearGradient>
<linearGradient id="paint2_linear_1235_24298" x1="737.605" y1="419.837" x2="875.942" y2="548.37" gradientUnits="userSpaceOnUse">
<stop stop-color="white"/>
<stop offset="1" stop-color="#EEEEEE"/>
</linearGradient>
<linearGradient id="paint3_linear_1235_24298" x1="579.88" y1="-10.7308" x2="582.277" y2="395.828" gradientUnits="userSpaceOnUse">
<stop stop-color="white"/>
<stop offset="1" stop-color="#EEEEEE"/>
</linearGradient>
<clipPath id="clip0_1235_24298">
<rect width="900" height="600" fill="white"/>
</clipPath>
</defs>
</svg>
