<svg width="900" height="600" viewBox="0 0 900 600" fill="none" xmlns="http://www.w3.org/2000/svg">
<g clip-path="url(#clip0_1235_24328)">
<path d="M738.921 497.008H173.123C156.371 497.008 142.798 483.467 142.798 466.784V113.369C142.798 96.6855 156.371 83.1445 173.123 83.1445H738.921C755.673 83.1445 769.246 96.6855 769.246 113.369V466.784C769.246 483.467 755.673 497.008 738.921 497.008Z" fill="white" stroke="#E1E4E5" stroke-width="4.523"/>
<path d="M769.246 131.768H142.798V119.858C142.798 99.1885 156.74 83.1445 173.123 83.1445H738.921C755.304 83.1445 769.246 99.1885 769.246 119.858V131.768Z" fill="white" stroke="#E1E4E5" stroke-width="4.523"/>
<path d="M179.266 117.125C180.364 117.137 181.453 116.931 182.471 116.52C183.489 116.108 184.415 115.498 185.196 114.726C185.977 113.954 186.597 113.035 187.02 112.021C187.443 111.008 187.661 109.921 187.661 108.823C187.661 107.725 187.443 106.638 187.02 105.625C186.597 104.611 185.977 103.692 185.197 102.92C184.416 102.147 183.49 101.538 182.472 101.126C181.454 100.714 180.365 100.508 179.267 100.52C177.081 100.544 174.992 101.429 173.455 102.983C171.917 104.538 171.055 106.636 171.055 108.822C171.054 111.008 171.917 113.106 173.454 114.661C174.991 116.215 177.08 117.101 179.266 117.125ZM213.86 117.125C214.95 117.125 216.03 116.91 217.037 116.493C218.045 116.076 218.96 115.464 219.731 114.693C220.502 113.922 221.113 113.007 221.53 111.999C221.947 110.992 222.162 109.912 222.162 108.822C222.162 106.62 221.287 104.509 219.73 102.952C218.173 101.395 216.062 100.52 213.86 100.52C211.658 100.52 209.547 101.395 207.99 102.952C206.433 104.509 205.558 106.62 205.558 108.822C205.558 109.912 205.773 110.992 206.19 111.999C206.607 113.007 207.218 113.922 207.989 114.693C208.76 115.464 209.675 116.076 210.683 116.493C211.69 116.91 212.77 117.125 213.86 117.125ZM247.07 117.125C248.16 117.125 249.24 116.91 250.247 116.493C251.255 116.076 252.17 115.464 252.941 114.693C253.712 113.922 254.323 113.007 254.74 111.999C255.157 110.992 255.372 109.912 255.372 108.822C255.372 106.62 254.497 104.509 252.94 102.952C251.383 101.395 249.272 100.52 247.07 100.52C244.868 100.52 242.757 101.395 241.2 102.952C239.643 104.509 238.768 106.62 238.768 108.822C238.768 109.912 238.983 110.992 239.4 111.999C239.817 113.007 240.428 113.922 241.199 114.693C241.97 115.464 242.885 116.076 243.893 116.493C244.9 116.91 245.98 117.125 247.07 117.125Z" fill="#E1E4E5"/>
<path d="M221.999 459.071C210.991 443.671 199.718 427.304 184.959 419.243C169.735 410.923 166.928 416.051 165.874 424.202C164.82 432.354 169.517 451.667 190.293 462.656C211.074 473.648 232.299 473.483 221.999 459.071Z" fill="url(#paint0_linear_1235_24328)"/>
<path d="M702.677 221.441C678.422 227.187 652.769 206.617 652.769 206.617C652.769 206.617 666.459 176.742 690.721 171.014C714.976 165.268 740.621 185.82 740.621 185.82C740.621 185.82 726.931 215.695 702.677 221.441Z" fill="url(#paint1_linear_1235_24328)"/>
<path d="M639.447 477.662C649.483 484.574 664.814 479.743 664.814 479.743C664.814 479.743 663.865 463.705 653.823 456.8C643.787 449.887 628.462 454.713 628.462 454.713C628.462 454.713 629.412 470.75 639.447 477.662Z" fill="url(#paint2_linear_1235_24328)"/>
<path d="M75.674 389.841C83.622 406.44 107.338 411.637 107.338 411.637C107.338 411.637 118.151 389.916 110.189 373.32C102.24 356.721 78.538 351.52 78.538 351.52C78.538 351.52 67.725 373.241 75.674 389.841Z" fill="url(#paint3_linear_1235_24328)"/>
<path d="M762.283 340.506C752.499 340.506 744.567 348.093 744.567 357.452C744.567 366.811 752.499 374.398 762.283 374.398C772.067 374.398 779.999 366.811 779.999 357.452C779.999 348.093 772.067 340.506 762.283 340.506Z" fill="#4F27AA"/>
<path d="M254.903 418.378C241.715 418.378 231.024 428.724 231.024 441.486C231.024 454.248 241.715 464.594 254.903 464.594C268.091 464.594 278.782 454.248 278.782 441.486C278.782 428.724 268.091 418.378 254.903 418.378Z" fill="#4F27AA"/>
<path d="M186.634 174.846C177.03 174.846 169.244 167.061 169.244 157.456C169.244 147.852 177.03 140.066 186.634 140.066C196.238 140.066 204.024 147.852 204.024 157.456C204.024 167.061 196.238 174.846 186.634 174.846Z" fill="#4F27AA"/>
<path d="M721.246 464.592C713.211 464.592 706.698 458.079 706.698 450.044C706.698 442.009 713.211 435.496 721.246 435.496C729.281 435.496 735.794 442.009 735.794 450.044C735.794 458.079 729.281 464.592 721.246 464.592Z" fill="#E1E4E5"/>
<path d="M238.956 381.659C234.576 381.659 231.025 378.108 231.025 373.728C231.025 369.348 234.576 365.797 238.956 365.797C243.336 365.797 246.887 369.348 246.887 373.728C246.887 378.108 243.336 381.659 238.956 381.659Z" fill="#E1E4E5"/>
<path d="M119.952 490.932C115.788 490.932 112.412 487.556 112.412 483.392C112.412 479.227 115.788 475.852 119.952 475.852C124.116 475.852 127.492 479.227 127.492 483.392C127.492 487.556 124.116 490.932 119.952 490.932Z" fill="#E1E4E5"/>
<path d="M685.342 113.239C678.986 113.239 673.834 108.086 673.834 101.731C673.834 95.375 678.986 90.2227 685.342 90.2227C691.698 90.2227 696.85 95.375 696.85 101.731C696.85 108.086 691.698 113.239 685.342 113.239Z" fill="#E1E4E5"/>
<path d="M233.689 193.456C234.765 197.472 232.382 201.599 228.366 202.675C224.351 203.751 220.224 201.368 219.148 197.353C218.072 193.337 220.455 189.21 224.47 188.134C228.485 187.058 232.613 189.441 233.689 193.456Z" fill="#E1E4E5"/>
<path d="M675.645 306.789C671.391 306.789 667.942 304.03 667.942 300.627C667.942 297.224 671.391 294.465 675.645 294.465C679.899 294.465 683.348 297.224 683.348 300.627C683.348 304.03 679.899 306.789 675.645 306.789Z" fill="#E1E4E5"/>
<path d="M600.624 162.812H600.826C602.019 179.719 614.593 179.979 614.593 179.979C614.593 179.979 600.728 180.25 600.728 199.785C600.728 180.25 586.863 179.979 586.863 179.979C586.863 179.979 599.431 179.719 600.624 162.812ZM297.865 192.16H298.002C298.814 203.854 307.374 204.035 307.374 204.035C307.374 204.035 297.935 204.222 297.935 217.735C297.935 204.222 288.497 204.035 288.497 204.035C288.497 204.035 297.053 203.854 297.865 192.16Z" fill="#E1E4E5"/>
<path fill-rule="evenodd" clip-rule="evenodd" d="M332.706 255.059C325.724 273.283 322.643 293.461 324.48 314.578C325.113 321.853 326.366 329.061 328.228 336.123L346.466 330.897C350.579 329.718 354.935 329.678 359.069 330.78C363.203 331.883 366.961 334.087 369.941 337.157L400.966 369.117C402.984 371.195 405.425 372.815 408.125 373.865C410.824 374.916 413.718 375.374 416.61 375.207L417.117 375.178C431.834 374.326 443.733 387.005 441.95 401.639L438.028 433.82C440.152 434.113 442.29 434.354 444.443 434.541C451.108 435.121 457.679 435.211 464.125 434.843C461.312 431.878 459.316 428.235 458.332 424.269C457.347 420.303 457.407 416.149 458.506 412.214L464.632 390.275C467.735 379.163 478.405 371.914 489.879 373.122L515.155 375.785C532.038 377.563 541.349 395.86 533.563 410.385C540.128 405.684 546.25 400.394 551.853 394.581L536.534 349.716C535.567 346.883 533.981 344.301 531.893 342.156C529.805 340.012 527.265 338.359 524.459 337.318L496.177 326.822C479.936 320.794 475.479 299.923 487.842 287.787L558.463 218.467C546.567 204.108 531.726 192.237 514.944 183.86L495.659 245.833C494.387 249.918 492.031 253.582 488.841 256.433C485.651 259.285 481.747 261.217 477.545 262.025L427.164 271.703C424.32 272.249 421.627 273.4 419.268 275.08C416.909 276.759 414.939 278.926 413.492 281.435L411.409 285.046C404.05 297.799 386.95 300.796 375.693 291.305L332.706 255.059ZM434.604 433.3L438.513 401.22C440.036 388.729 429.879 377.907 417.317 378.633L416.81 378.663C413.422 378.858 410.031 378.322 406.869 377.091C403.706 375.86 400.846 373.962 398.482 371.528L367.457 339.568C364.913 336.947 361.706 335.066 358.177 334.125C354.649 333.184 350.931 333.219 347.42 334.225L329.154 339.459C343.213 387.552 384.53 425 434.604 433.3ZM588.351 290.633C591.746 329.682 578.336 365.512 554.533 391.716L539.81 348.597C538.677 345.278 536.819 342.253 534.372 339.741C531.926 337.229 528.951 335.293 525.663 334.073L497.382 323.577C483.519 318.432 479.715 300.616 490.267 290.258L560.648 221.174C576.064 240.788 586.1 264.742 588.351 290.633ZM334.058 251.671L377.924 288.658C387.533 296.76 402.129 294.202 408.41 283.316L410.494 279.705C412.189 276.766 414.497 274.227 417.26 272.259C420.024 270.292 423.179 268.942 426.51 268.303L476.892 258.625C480.479 257.936 483.811 256.286 486.534 253.852C489.257 251.418 491.268 248.291 492.353 244.804L511.792 182.338C498.333 176.06 483.699 172.005 468.388 170.67C408.052 165.424 355.387 200.312 334.058 251.671ZM468.677 434.505C489.714 432.586 509.305 425.778 526.312 415.224L529.469 410.489C537.885 397.865 529.882 380.817 514.793 379.228L489.516 376.565C479.723 375.533 470.615 381.721 467.967 391.206L461.84 413.145C460.876 416.596 460.849 420.242 461.761 423.707C462.673 427.172 464.491 430.332 467.029 432.863L468.677 434.505Z" fill="#E1E4E5"/>
<path fill-rule="evenodd" clip-rule="evenodd" d="M638.764 429.384H539.852C532.045 429.384 525.722 423.06 525.722 415.254V316.342C525.722 308.535 532.045 302.211 539.852 302.211H638.764C646.571 302.211 652.895 308.535 652.895 316.342V415.254C652.895 423.06 646.571 429.384 638.764 429.384Z" fill="#4F27AA"/>
<path d="M587.966 336.125H553.983M571.009 330.473V336.125M579.481 336.139C579.481 350.75 568.064 362.584 553.983 362.584" stroke="white" stroke-width="10.598" stroke-linecap="round" stroke-linejoin="round"/>
<path d="M587.987 362.584C581.876 362.584 576.408 359.327 572.529 354.191M608.576 369.013L592.524 401.124M624.634 401.124L608.575 369.013M595.356 395.458H621.801" stroke="white" stroke-width="10.598" stroke-linecap="round" stroke-linejoin="round"/>
</g>
<defs>
<linearGradient id="paint0_linear_1235_24328" x1="209.708" y1="509.624" x2="173.592" y2="342.61" gradientUnits="userSpaceOnUse">
<stop stop-color="white"/>
<stop offset="1" stop-color="#EEEEEE"/>
</linearGradient>
<linearGradient id="paint1_linear_1235_24328" x1="611.34" y1="235.727" x2="823.665" y2="135.418" gradientUnits="userSpaceOnUse">
<stop stop-color="white"/>
<stop offset="1" stop-color="#EEEEEE"/>
</linearGradient>
<linearGradient id="paint2_linear_1235_24328" x1="678.539" y1="500.342" x2="599.543" y2="417.043" gradientUnits="userSpaceOnUse">
<stop stop-color="white"/>
<stop offset="1" stop-color="#EEEEEE"/>
</linearGradient>
<linearGradient id="paint3_linear_1235_24328" x1="109.83" y1="448.939" x2="68.976" y2="280.434" gradientUnits="userSpaceOnUse">
<stop stop-color="white"/>
<stop offset="1" stop-color="#EEEEEE"/>
</linearGradient>
<clipPath id="clip0_1235_24328">
<rect width="900" height="600" fill="white"/>
</clipPath>
</defs>
</svg>
