<svg width="900" height="600" viewBox="0 0 900 600" fill="none" xmlns="http://www.w3.org/2000/svg">
<g clip-path="url(#clip0_1235_24351)">
<path d="M606.693 205.487C597.229 222.378 576.5 224.699 543.291 221.489C518.316 219.071 495.541 217.199 470.564 203.581C453.082 194.057 439.243 181.17 429.143 168.654C418.198 155.095 402.921 139.62 410.41 124.246C420.702 103.128 480.219 85.3408 538.013 114.428C601.499 146.389 615.952 188.978 606.693 205.487Z" fill="url(#paint0_linear_1235_24351)"/>
<path d="M667.105 166.165C654.116 176.458 632.873 171.296 632.873 171.296C632.873 171.296 632.702 149.448 645.7 139.164C658.689 128.871 679.923 134.025 679.923 134.025C679.923 134.025 680.094 155.873 667.105 166.165Z" fill="url(#paint1_linear_1235_24351)"/>
<path d="M213.061 209.671C226.898 217.964 246.749 210.297 246.749 210.297C246.749 210.297 244.154 189.188 230.308 180.905C216.471 172.612 196.628 180.268 196.628 180.268C196.628 180.268 199.224 201.378 213.061 209.671Z" fill="url(#paint2_linear_1235_24351)"/>
<path d="M667.398 347.599C660.191 347.599 654.348 353.442 654.348 360.649C654.348 367.857 660.191 373.699 667.398 373.699C674.605 373.699 680.448 367.857 680.448 360.649C680.448 353.442 674.605 347.599 667.398 347.599Z" fill="#4F27AA"/>
<path d="M199.743 264.998C193.81 264.998 189 269.808 189 275.741C189 281.675 193.81 286.484 199.743 286.484C205.676 286.484 210.486 281.675 210.486 275.741C210.486 269.808 205.676 264.998 199.743 264.998Z" fill="#4F27AA"/>
<path d="M265.5 435C261.91 435 259 432.09 259 428.5C259 424.91 261.91 422 265.5 422C269.09 422 272 424.91 272 428.5C272 432.09 269.09 435 265.5 435Z" fill="#4F27AA"/>
<path d="M637.172 264.617C634.019 264.617 631.463 262.061 631.463 258.908C631.463 255.755 634.019 253.199 637.172 253.199C640.325 253.199 642.881 255.755 642.881 258.908C642.881 262.061 640.325 264.617 637.172 264.617Z" fill="#4F27AA"/>
<path d="M254.34 152.682C250.286 152.682 246.999 149.395 246.999 145.341C246.999 141.287 250.286 138 254.34 138C258.394 138 261.681 141.287 261.681 145.341C261.681 149.395 258.394 152.682 254.34 152.682Z" fill="#E1E4E5"/>
<path d="M132.5 422C129.462 422 127 419.538 127 416.5C127 413.462 129.462 411 132.5 411C135.538 411 138 413.462 138 416.5C138 419.538 135.538 422 132.5 422Z" fill="#E1E4E5"/>
<path d="M546.58 492.527C542.123 492.527 538.51 488.914 538.51 484.457C538.51 480 542.123 476.387 546.58 476.387C551.037 476.387 554.65 480 554.65 484.457C554.65 488.914 551.037 492.527 546.58 492.527Z" fill="#E1E4E5"/>
<path d="M722.972 181.944C718.017 181.944 714 177.927 714 172.972C714 168.017 718.017 164 722.972 164C727.927 164 731.944 168.017 731.944 172.972C731.944 177.927 727.927 181.944 722.972 181.944Z" fill="#E1E4E5"/>
<path d="M129.65 233.78C130.802 238.078 128.251 242.496 123.953 243.648C119.655 244.799 115.237 242.249 114.085 237.95C112.934 233.652 115.484 229.234 119.782 228.083C124.081 226.931 128.499 229.482 129.65 233.78Z" fill="#E1E4E5"/>
<path d="M307.5 113C305.567 113 304 111.433 304 109.5C304 107.567 305.567 106 307.5 106C309.433 106 311 107.567 311 109.5C311 111.433 309.433 113 307.5 113Z" fill="#E1E4E5"/>
<path d="M694.245 429.192C689.691 429.192 686 426.239 686 422.596C686 418.953 689.691 416 694.245 416C698.799 416 702.49 418.953 702.49 422.596C702.49 426.239 698.799 429.192 694.245 429.192Z" fill="#E1E4E5"/>
<path d="M312.146 470.573C312.146 476.965 306.965 482.146 300.573 482.146C294.181 482.146 289 476.965 289 470.573C289 464.181 294.181 459 300.573 459C306.965 459 312.146 464.181 312.146 470.573Z" fill="#E1E4E5"/>
<path d="M623.729 464H623.945C625.222 482.096 638.68 482.375 638.68 482.375C638.68 482.375 623.84 482.664 623.84 503.574C623.84 482.664 609 482.375 609 482.375C609 482.375 622.452 482.096 623.729 464ZM207.701 429H207.814C208.481 438.825 215.517 438.976 215.517 438.976C215.517 438.976 207.759 439.133 207.759 450.486C207.759 439.133 200 438.976 200 438.976C200 438.976 207.033 438.825 207.701 429Z" fill="#E1E4E5"/>
<path d="M641.581 352.105C644.298 402.168 546.421 503.965 425.781 466.287C369.672 448.761 374.425 419.673 331.76 381.337C306.33 358.488 269.79 341.21 259.628 307.998C250.849 279.331 256.232 248.518 271.453 228.476C305.683 183.403 374.788 152.538 442.878 223.555C510.967 294.571 634.56 222.989 641.581 352.105Z" fill="url(#paint3_linear_1235_24351)"/>
<path d="M618.397 215.81C608.17 234.062 585.773 236.569 549.891 233.101C522.905 230.488 498.296 228.465 471.308 213.751C452.418 203.46 437.465 189.535 426.552 176.012C414.726 161.361 398.219 144.641 406.311 128.029C417.431 105.21 481.74 85.9924 544.187 117.42C612.784 151.955 628.401 197.972 618.397 215.81Z" fill="url(#paint4_linear_1235_24351)"/>
<path d="M559.79 77.4224C559.244 77.2263 558.692 77.0485 558.134 76.8894C557.949 76.8364 557.767 76.7794 557.581 76.7324C557.185 76.631 556.788 76.5356 556.389 76.4464C556.198 76.405 556.006 76.3667 555.813 76.3314C555.413 76.2565 555.012 76.1892 554.61 76.1294C553.933 76.0357 553.254 75.9666 552.572 75.9224C552.429 75.9134 552.286 75.8994 552.143 75.8944C551.722 75.874 551.301 75.8636 550.88 75.8634H356.787C355.453 75.8598 354.121 75.9611 352.803 76.1664C352.37 76.2334 351.938 76.3094 351.514 76.3964C340.438 78.6644 331.913 87.9494 330.751 99.4134C330.661 100.296 330.616 101.191 330.616 102.096V499.75C330.616 511.105 337.811 520.772 347.883 524.425C347.928 524.442 347.973 524.456 348.018 524.47C348.517 524.646 349.025 524.809 349.536 524.955C349.721 525.008 349.904 525.064 350.092 525.112C350.488 525.214 350.885 525.309 351.284 525.398C351.475 525.44 351.666 525.476 351.86 525.513C352.076 525.555 352.292 525.594 352.508 525.628C352.926 525.698 353.347 525.756 353.768 525.804C353.939 525.824 354.11 525.843 354.284 525.86C354.554 525.885 354.826 525.905 355.098 525.922C355.241 525.93 355.384 525.944 355.527 525.95C355.946 525.97 356.367 525.981 356.79 525.981H550.886C551.789 525.981 552.682 525.936 553.563 525.846C565.88 524.593 575.673 514.775 576.925 502.427C577.015 501.544 577.06 500.65 577.06 499.744V102.096C577.054 90.7424 569.859 81.0754 559.79 77.4224Z" fill="#4F27AA"/>
<path d="M453.835 504.613C462.168 504.613 468.923 497.858 468.923 489.525C468.923 481.192 462.168 474.438 453.835 474.438C445.502 474.438 438.747 481.192 438.747 489.525C438.747 497.858 445.502 504.613 453.835 504.613Z" fill="white"/>
<path d="M477.724 95.9805H431.203C429.814 95.9805 428.688 97.1063 428.688 98.495C428.688 99.8837 429.814 101.009 431.203 101.009H477.724C479.113 101.009 480.239 99.8837 480.239 98.495C480.239 97.1063 479.113 95.9805 477.724 95.9805Z" fill="white"/>
<path d="M614.811 97.1459C615.951 101.401 613.426 105.774 609.171 106.914C604.916 108.055 600.543 105.529 599.402 101.275C598.262 97.0196 600.787 92.6461 605.042 91.506C609.297 90.3659 613.671 92.8909 614.811 97.1459Z" fill="#E1E4E5"/>
<path fill-rule="evenodd" clip-rule="evenodd" d="M742.98 237.251L711.57 205.98C707.397 201.83 701.751 199.5 695.865 199.5H616.206C603.933 199.5 593.992 209.397 593.992 221.615V376.42C593.992 388.639 603.933 398.535 616.206 398.535H727.275C739.548 398.535 749.489 388.639 749.489 376.42V252.886C749.487 249.98 748.911 247.102 747.794 244.419C746.677 241.736 745.041 239.3 742.98 237.251Z" fill="white" stroke="#E1E4E5" stroke-width="4.64"/>
<path d="M718.211 272.469H669.553M718.211 301.97H669.553M718.211 331.471H669.553M637.542 271.242C637.202 271.242 636.876 271.377 636.636 271.617C636.396 271.858 636.261 272.183 636.261 272.523C636.261 272.863 636.396 273.189 636.636 273.429C636.876 273.669 637.202 273.804 637.542 273.804C637.882 273.804 638.208 273.669 638.448 273.429C638.688 273.189 638.823 272.863 638.823 272.523C638.823 272.183 638.688 271.858 638.448 271.617C638.208 271.377 637.882 271.242 637.542 271.242ZM637.542 300.69C637.202 300.69 636.876 300.825 636.636 301.065C636.396 301.306 636.261 301.631 636.261 301.971C636.261 302.311 636.396 302.637 636.636 302.877C636.876 303.117 637.202 303.252 637.542 303.252C637.882 303.252 638.208 303.117 638.448 302.877C638.688 302.637 638.823 302.311 638.823 301.971C638.823 301.631 638.688 301.306 638.448 301.065C638.208 300.825 637.882 300.69 637.542 300.69ZM637.542 330.14C637.213 330.156 636.903 330.298 636.676 330.536C636.449 330.775 636.322 331.091 636.322 331.421C636.322 331.75 636.449 332.067 636.676 332.305C636.903 332.543 637.213 332.685 637.542 332.701C637.882 332.701 638.207 332.566 638.447 332.326C638.688 332.086 638.823 331.76 638.823 331.421C638.823 331.081 638.688 330.755 638.447 330.515C638.207 330.275 637.882 330.14 637.542 330.14Z" stroke="#4F27AA" stroke-width="17.194" stroke-linecap="round" stroke-linejoin="round"/>
<path fill-rule="evenodd" clip-rule="evenodd" d="M525.484 237.251L494.074 205.98C489.9 201.83 484.254 199.5 478.368 199.5H398.71C386.437 199.5 376.496 209.397 376.496 221.615V376.42C376.496 388.639 386.437 398.535 398.71 398.535H509.779C522.052 398.535 531.992 388.639 531.992 376.42V252.886C531.99 249.98 531.414 247.103 530.297 244.419C529.181 241.736 527.545 239.3 525.484 237.251Z" fill="white"/>
<path fill-rule="evenodd" clip-rule="evenodd" d="M484.88 315.755L444.38 338.674C434.409 344.31 422.073 337.065 422.073 325.56V279.731C422.073 268.216 434.389 260.981 444.38 266.617L484.88 289.537C495.052 295.274 495.052 309.997 484.88 315.755Z" fill="#4F27AA"/>
<path fill-rule="evenodd" clip-rule="evenodd" d="M307.988 237.25L276.577 205.98C272.404 201.829 266.758 199.5 260.872 199.5H181.214C168.941 199.5 159 209.397 159 221.615V376.42C159 388.639 168.941 398.535 181.214 398.535H292.282C304.556 398.535 314.496 388.639 314.496 376.42V252.886C314.494 249.98 313.918 247.102 312.801 244.419C311.684 241.736 310.049 239.299 307.988 237.25Z" fill="white" stroke="#E1E4E5" stroke-width="4.64"/>
<path d="M253.767 246.148H215.582C194.066 246.148 176.623 263.591 176.623 285.107V323.292C176.623 344.809 194.066 362.251 215.582 362.251H253.767C275.284 362.251 292.726 344.809 292.726 323.292V285.107C292.726 263.591 275.284 246.148 253.767 246.148Z" fill="#4F27AA" stroke="white" stroke-width="19.48" stroke-linecap="round" stroke-linejoin="round"/>
<path d="M215.994 280.99C216.449 281.44 216.76 282.015 216.887 282.643C217.015 283.27 216.953 283.921 216.71 284.512C216.466 285.104 216.053 285.611 215.521 285.967C214.989 286.323 214.364 286.513 213.724 286.513C213.084 286.513 212.459 286.323 211.927 285.967C211.395 285.611 210.982 285.104 210.738 284.512C210.495 283.921 210.433 283.27 210.561 282.643C210.688 282.015 210.999 281.44 211.454 280.99C212.061 280.388 212.881 280.051 213.735 280.051C214.59 280.051 215.41 280.388 216.017 280.99M292.726 292.013C283.909 290.663 274.904 291.243 266.333 293.714C257.762 296.184 249.83 300.485 243.083 306.321C236.337 312.156 230.938 319.387 227.26 327.512C223.581 335.638 221.71 344.466 221.776 353.385C221.794 356.355 222.031 359.32 222.484 362.255" stroke="white" stroke-width="19.48" stroke-linecap="round" stroke-linejoin="round"/>
<path d="M286.96 132H227C215.954 132 207 140.954 207 152V187.579C207 198.625 215.954 207.579 227 207.579H286.96C298.006 207.579 306.96 198.625 306.96 187.579V152C306.96 140.954 298.006 132 286.96 132Z" fill="#4F27AA"/>
<path d="M266.564 198.878L261.523 193.836C258.789 191.103 254.357 191.103 251.623 193.836L246.582 198.878C243.848 201.612 243.848 206.044 246.582 208.778L251.623 213.819C254.357 216.553 258.789 216.553 261.523 213.819L266.564 208.778C269.298 206.044 269.298 201.612 266.564 198.878Z" fill="#4F27AA"/>
<path fill-rule="evenodd" clip-rule="evenodd" d="M267.159 148.254C275.903 148.254 281.767 156.427 281.767 164.038C281.767 179.489 257.423 192.138 256.98 192.138C256.536 192.138 232.193 179.489 232.193 164.038C232.193 156.427 238.057 148.254 246.801 148.254C251.799 148.254 255.082 150.736 256.98 152.947C258.877 150.736 262.16 148.254 267.159 148.254Z" fill="white"/>
</g>
<defs>
<linearGradient id="paint0_linear_1235_24351" x1="542.933" y1="314.96" x2="458.573" y2="-64.1212" gradientUnits="userSpaceOnUse">
<stop stop-color="white"/>
<stop offset="1" stop-color="#EEEEEE"/>
</linearGradient>
<linearGradient id="paint1_linear_1235_24351" x1="616.122" y1="200.497" x2="715.738" y2="80.2778" gradientUnits="userSpaceOnUse">
<stop stop-color="white"/>
<stop offset="1" stop-color="#EEEEEE"/>
</linearGradient>
<linearGradient id="paint2_linear_1235_24351" x1="266.606" y1="236.366" x2="155.268" y2="132.918" gradientUnits="userSpaceOnUse">
<stop stop-color="white"/>
<stop offset="1" stop-color="#EEEEEE"/>
</linearGradient>
<linearGradient id="paint3_linear_1235_24351" x1="524.597" y1="652.191" x2="341.513" y2="-173.824" gradientUnits="userSpaceOnUse">
<stop stop-color="white"/>
<stop offset="1" stop-color="#EEEEEE"/>
</linearGradient>
<linearGradient id="paint4_linear_1235_24351" x1="549.503" y1="334.096" x2="458.351" y2="-75.5026" gradientUnits="userSpaceOnUse">
<stop stop-color="white"/>
<stop offset="1" stop-color="#EEEEEE"/>
</linearGradient>
<clipPath id="clip0_1235_24351">
<rect width="900" height="600" fill="white"/>
</clipPath>
</defs>
</svg>
