<svg width="900" height="600" viewBox="0 0 900 600" fill="none" xmlns="http://www.w3.org/2000/svg">
<g clip-path="url(#clip0_1235_24411)">
<path d="M642.83 214.455L550.775 177.808C549.367 177.247 547.863 176.969 546.347 176.989C544.832 177.01 543.336 177.329 541.944 177.928L450.934 217.109M450.922 216.895L358.867 180.247C357.459 179.686 355.955 179.408 354.439 179.429C352.924 179.449 351.428 179.769 350.036 180.368L259.026 219.549" stroke="#E1E4E5" stroke-width="4" stroke-linecap="round" stroke-linejoin="round"/>
<path d="M358.36 169.634C363.939 171.855 366.661 178.179 364.44 183.758C362.219 189.337 355.896 192.059 350.317 189.838C344.738 187.617 342.015 181.294 344.237 175.715C346.458 170.135 352.781 167.413 358.36 169.634Z" fill="#E1E4E5"/>
<path d="M262.149 210.173C267.728 212.394 270.45 218.718 268.229 224.297C266.008 229.876 259.685 232.598 254.106 230.377C248.527 228.156 245.804 221.833 248.026 216.254C250.247 210.674 256.57 207.952 262.149 210.173Z" fill="#E1E4E5"/>
<path d="M454.062 207.736C459.641 209.957 462.364 216.28 460.142 221.859C457.921 227.439 451.598 230.161 446.019 227.94C440.44 225.719 437.718 219.395 439.939 213.816C442.16 208.237 448.483 205.515 454.062 207.736Z" fill="#E1E4E5"/>
<path d="M549.851 168.259C555.43 170.48 558.152 176.804 555.931 182.383C553.71 187.962 547.386 190.684 541.807 188.463C536.228 186.242 533.506 179.919 535.727 174.34C537.948 168.76 544.271 166.038 549.851 168.259Z" fill="#E1E4E5"/>
<path d="M646.709 206.748C652.288 208.969 655.011 215.292 652.789 220.871C650.568 226.45 644.245 229.172 638.666 226.951C633.087 224.73 630.365 218.407 632.586 212.828C634.807 207.249 641.13 204.526 646.709 206.748Z" fill="#E1E4E5"/>
<path d="M642.83 420.455L550.775 383.808C549.367 383.247 547.863 382.969 546.347 382.989C544.832 383.01 543.336 383.329 541.944 383.928L450.934 423.109M450.922 422.895L358.867 386.247C357.459 385.686 355.955 385.408 354.439 385.429C352.924 385.449 351.428 385.769 350.036 386.368L259.026 425.549" stroke="#E1E4E5" stroke-width="4" stroke-linecap="round" stroke-linejoin="round"/>
<path d="M358.359 375.638C363.938 377.859 366.661 384.183 364.44 389.762C362.218 395.341 355.895 398.063 350.316 395.842C344.737 393.621 342.015 387.298 344.236 381.718C346.457 376.139 352.78 373.417 358.359 375.638Z" fill="#E1E4E5"/>
<path d="M262.148 416.177C267.727 418.398 270.449 424.722 268.228 430.301C266.007 435.88 259.684 438.602 254.105 436.381C248.526 434.16 245.803 427.837 248.025 422.257C250.246 416.678 256.569 413.956 262.148 416.177Z" fill="#E1E4E5"/>
<path d="M454.061 413.74C459.641 415.961 462.363 422.284 460.142 427.863C457.921 433.442 451.597 436.165 446.018 433.944C440.439 431.722 437.717 425.399 439.938 419.82C442.159 414.241 448.482 411.519 454.061 413.74Z" fill="#E1E4E5"/>
<path d="M549.85 374.263C555.429 376.484 558.151 382.808 555.93 388.387C553.709 393.966 547.386 396.688 541.806 394.467C536.227 392.246 533.505 385.923 535.726 380.343C537.947 374.764 544.271 372.042 549.85 374.263Z" fill="#E1E4E5"/>
<path d="M646.708 412.751C652.288 414.973 655.01 421.296 652.789 426.875C650.568 432.454 644.244 435.176 638.665 432.955C633.086 430.734 630.364 424.411 632.585 418.832C634.806 413.253 641.129 410.53 646.708 412.751Z" fill="#E1E4E5"/>
<path d="M704.552 307.094L582.97 258.692C581.111 257.951 579.124 257.584 577.122 257.611C575.121 257.638 573.144 258.06 571.306 258.851L451.105 310.599M451.09 310.316L329.508 261.914C327.649 261.173 325.662 260.805 323.66 260.833C321.659 260.86 319.682 261.282 317.844 262.073L197.643 313.821" stroke="#E1E4E5" stroke-width="4" stroke-linecap="round" stroke-linejoin="round"/>
<path d="M328.836 247.898C336.204 250.831 339.8 259.182 336.866 266.551C333.933 273.919 325.582 277.514 318.213 274.581C310.845 271.648 307.25 263.296 310.183 255.928C313.116 248.56 321.468 244.964 328.836 247.898Z" fill="#E1E4E5"/>
<path d="M201.766 301.437C209.134 304.37 212.729 312.721 209.796 320.09C206.862 327.458 198.511 331.053 191.143 328.12C183.775 325.187 180.179 316.835 183.113 309.467C186.046 302.099 194.397 298.503 201.766 301.437Z" fill="#E1E4E5"/>
<path d="M455.233 298.214C462.602 301.148 466.197 309.499 463.264 316.867C460.33 324.236 451.979 327.831 444.611 324.897C437.242 321.964 433.647 313.613 436.58 306.244C439.514 298.876 447.865 295.281 455.233 298.214Z" fill="#E1E4E5"/>
<path d="M581.746 246.077C589.114 249.011 592.709 257.362 589.776 264.73C586.842 272.099 578.491 275.694 571.123 272.761C563.754 269.827 560.159 261.476 563.093 254.108C566.026 246.739 574.377 243.144 581.746 246.077Z" fill="#E1E4E5"/>
<path d="M709.672 296.913C717.04 299.847 720.636 308.198 717.702 315.566C714.769 322.935 706.417 326.53 699.049 323.597C691.681 320.663 688.086 312.312 691.019 304.944C693.952 297.575 702.304 293.98 709.672 296.913Z" fill="#E1E4E5"/>
<path d="M530 286.52C530 242.624 494.415 207.039 450.52 207.039C406.624 207.039 371.039 242.624 371.039 286.52C371.039 330.415 406.624 366 450.52 366C494.415 366 530 330.415 530 286.52Z" fill="#4F27AA"/>
<path fill-rule="evenodd" clip-rule="evenodd" d="M486.643 319.861V325.176C486.643 328.109 484.294 330.49 481.399 330.49H418.462C415.567 330.49 413.218 328.109 413.218 325.176V319.776C413.218 303.694 431.354 293.245 449.931 293.245C468.507 293.245 486.643 303.699 486.643 319.776M463.094 246.556C470.366 253.829 470.366 265.62 463.094 272.892C455.821 280.165 444.03 280.165 436.758 272.892C429.485 265.62 429.485 253.829 436.758 246.556C444.03 239.284 455.821 239.284 463.094 246.556Z" fill="white"/>
<path d="M313.961 432.48C313.961 388.585 278.376 353 234.48 353C190.585 353 155 388.585 155 432.48C155 476.376 190.585 511.961 234.48 511.961C278.376 511.961 313.961 476.376 313.961 432.48Z" fill="#4F27AA"/>
<path fill-rule="evenodd" clip-rule="evenodd" d="M270.605 465.822V471.136C270.605 474.07 268.255 476.451 265.36 476.451H202.424C199.529 476.451 197.179 474.07 197.179 471.136V465.736C197.179 449.654 215.315 439.206 233.892 439.206C252.469 439.206 270.605 449.66 270.605 465.736M247.055 392.517C254.328 399.789 254.328 411.58 247.055 418.853C239.783 426.125 227.991 426.125 220.719 418.853C213.446 411.58 213.446 399.789 220.719 392.517C227.991 385.244 239.783 385.244 247.055 392.517Z" fill="white"/>
<path d="M745.961 432.48C745.961 388.585 710.376 353 666.481 353C622.585 353 587 388.585 587 432.48C587 476.376 622.585 511.961 666.481 511.961C710.376 511.961 745.961 476.376 745.961 432.48Z" fill="#4F27AA"/>
<path fill-rule="evenodd" clip-rule="evenodd" d="M702.605 465.822V471.136C702.605 474.07 700.255 476.451 697.36 476.451H634.424C631.529 476.451 629.179 474.07 629.179 471.136V465.736C629.179 449.654 647.315 439.206 665.892 439.206C684.469 439.206 702.605 449.66 702.605 465.736M679.055 392.517C686.328 399.789 686.328 411.58 679.055 418.853C671.783 426.125 659.991 426.125 652.719 418.853C645.446 411.58 645.446 399.789 652.719 392.517C659.991 385.244 671.783 385.244 679.055 392.517Z" fill="white"/>
<path d="M745.961 167.48C745.961 123.585 710.376 88 666.481 88C622.585 88 587 123.585 587 167.48C587 211.376 622.585 246.961 666.481 246.961C710.376 246.961 745.961 211.376 745.961 167.48Z" fill="#4F27AA"/>
<path fill-rule="evenodd" clip-rule="evenodd" d="M702.605 200.822V206.136C702.605 209.07 700.255 211.451 697.36 211.451H634.424C631.529 211.451 629.179 209.07 629.179 206.136V200.736C629.179 184.654 647.315 174.206 665.892 174.206C684.469 174.206 702.605 184.66 702.605 200.736M679.055 127.517C686.328 134.789 686.328 146.58 679.055 153.853C671.783 161.125 659.991 161.125 652.719 153.853C645.446 146.58 645.446 134.789 652.719 127.517C659.991 120.244 671.783 120.244 679.055 127.517Z" fill="white"/>
<path d="M313.961 167.48C313.961 123.585 278.376 88 234.48 88C190.585 88 155 123.585 155 167.48C155 211.376 190.585 246.961 234.48 246.961C278.376 246.961 313.961 211.376 313.961 167.48Z" fill="#4F27AA"/>
<path fill-rule="evenodd" clip-rule="evenodd" d="M270.605 200.822V206.136C270.605 209.07 268.255 211.451 265.36 211.451H202.424C199.529 211.451 197.179 209.07 197.179 206.136V200.736C197.179 184.654 215.315 174.206 233.892 174.206C252.469 174.206 270.605 184.66 270.605 200.736M247.055 127.517C254.328 134.789 254.328 146.58 247.055 153.853C239.783 161.125 227.991 161.125 220.719 153.853C213.446 146.58 213.446 134.789 220.719 127.517C227.991 120.244 239.783 120.244 247.055 127.517Z" fill="white"/>
</g>
<defs>
<clipPath id="clip0_1235_24411">
<rect width="900" height="600" fill="white"/>
</clipPath>
</defs>
</svg>
