<svg width="900" height="600" viewBox="0 0 900 600" fill="none" xmlns="http://www.w3.org/2000/svg">
<g clip-path="url(#clip0_1235_24441)">
<path d="M699.656 187.13C692.475 199.945 676.748 201.706 651.552 199.271C632.604 197.436 615.324 196.016 596.373 185.684C583.109 178.457 572.61 168.68 564.947 159.184C556.643 148.896 545.052 137.156 550.734 125.492C558.543 109.469 603.699 95.9741 647.547 118.042C695.715 142.292 706.681 174.604 699.656 187.13Z" fill="url(#paint0_linear_1235_24441)"/>
<path d="M773.496 255.566C757.416 263.543 736.074 253.287 736.074 253.287C736.074 253.287 740.817 230.103 756.906 222.137C772.985 214.161 794.319 224.406 794.319 224.406C794.319 224.406 789.576 247.59 773.496 255.566Z" fill="url(#paint1_linear_1235_24441)"/>
<path d="M128.401 356.286C146.24 366.978 171.834 357.094 171.834 357.094C171.834 357.094 168.487 329.88 150.637 319.2C132.798 308.509 107.215 318.38 107.215 318.38C107.215 318.38 110.562 345.594 128.401 356.286Z" fill="url(#paint2_linear_1235_24441)"/>
<path d="M691.507 214.219C683.434 214.219 676.89 220.763 676.89 228.836C676.89 236.909 683.434 243.453 691.507 243.453C699.58 243.453 706.124 236.909 706.124 228.836C706.124 220.763 699.58 214.219 691.507 214.219Z" fill="#4F27AA"/>
<path d="M594.228 408.925C581.557 408.925 571.286 419.196 571.286 431.867C571.286 444.537 581.557 454.809 594.228 454.809C606.898 454.809 617.17 444.537 617.17 431.867C617.17 419.196 606.898 408.925 594.228 408.925Z" fill="#4F27AA"/>
<path d="M320.848 167.004C314.202 167.004 308.815 172.392 308.815 179.037C308.815 185.683 314.202 191.07 320.848 191.07C327.494 191.07 332.881 185.683 332.881 179.037C332.881 172.392 327.494 167.004 320.848 167.004Z" fill="#4F27AA"/>
<path d="M214.135 407.957C206.567 407.957 200.432 401.822 200.432 394.254C200.432 386.686 206.567 380.551 214.135 380.551C221.703 380.551 227.838 386.686 227.838 394.254C227.838 401.822 221.703 407.957 214.135 407.957Z" fill="#4F27AA"/>
<path d="M734.794 312.856C731.262 312.856 728.399 309.993 728.399 306.461C728.399 302.93 731.262 300.066 734.794 300.066C738.326 300.066 741.189 302.93 741.189 306.461C741.189 309.993 738.326 312.856 734.794 312.856Z" fill="#4F27AA"/>
<path d="M769.888 500.014C765.347 500.014 761.666 496.333 761.666 491.792C761.666 487.251 765.347 483.57 769.888 483.57C774.429 483.57 778.11 487.251 778.11 491.792C778.11 496.333 774.429 500.014 769.888 500.014Z" fill="#E1E4E5"/>
<path d="M167.237 434.35C160.678 434.35 155.361 429.033 155.361 422.474C155.361 415.915 160.678 410.598 167.237 410.598C173.796 410.598 179.113 415.915 179.113 422.474C179.113 429.033 173.796 434.35 167.237 434.35Z" fill="#E1E4E5"/>
<path d="M768.558 424.383C763.566 424.383 759.519 420.336 759.519 415.344C759.519 410.352 763.566 406.305 768.558 406.305C773.55 406.305 777.597 410.352 777.597 415.344C777.597 420.336 773.55 424.383 768.558 424.383Z" fill="#E1E4E5"/>
<path d="M697.475 140.16C691.925 140.16 687.426 135.661 687.426 130.111C687.426 124.562 691.925 120.062 697.475 120.062C703.025 120.062 707.524 124.562 707.524 130.111C707.524 135.661 703.025 140.16 697.475 140.16Z" fill="#E1E4E5"/>
<path d="M169.764 266.936C171.054 271.75 168.198 276.698 163.384 277.988C158.57 279.278 153.621 276.421 152.331 271.607C151.042 266.793 153.898 261.845 158.712 260.555C163.526 259.265 168.475 262.122 169.764 266.936Z" fill="#E1E4E5"/>
<path d="M349.056 94.0315C346.982 94.0315 345.3 92.3499 345.3 90.2755C345.3 88.2011 346.982 86.5195 349.056 86.5195C351.13 86.5195 352.812 88.2011 352.812 90.2755C352.812 92.3499 351.13 94.0315 349.056 94.0315Z" fill="#E1E4E5"/>
<path d="M711.879 378.159C706.779 378.159 702.644 374.851 702.644 370.771C702.644 366.691 706.779 363.383 711.879 363.383C716.98 363.383 721.114 366.691 721.114 370.771C721.114 374.851 716.98 378.159 711.879 378.159Z" fill="#E1E4E5"/>
<path d="M515.213 91.7568C516.146 95.2419 514.078 98.8242 510.593 99.758C507.108 100.692 503.526 98.6237 502.592 95.1385C501.658 91.6534 503.726 88.0711 507.211 87.1373C510.696 86.2034 514.279 88.2717 515.213 91.7568Z" fill="#E1E4E5"/>
<path d="M237.316 151.98H237.448C238.227 163.017 246.435 163.187 246.435 163.187C246.435 163.187 237.384 163.364 237.384 176.117C237.384 163.364 228.332 163.187 228.332 163.187C228.332 163.187 236.537 163.017 237.316 151.98ZM231.592 476.058H231.719C232.466 487.062 240.347 487.232 240.347 487.232C240.347 487.232 231.657 487.408 231.657 500.123C231.657 487.408 222.967 487.232 222.967 487.232C222.967 487.232 230.844 487.062 231.592 476.058Z" fill="#E1E4E5"/>
<path d="M634.72 264.136V240.615C634.72 214.624 613.669 193.572 587.678 193.572H482.655C478.783 193.572 474.972 192.617 471.558 190.791C468.144 188.966 465.234 186.325 463.085 183.105L430.014 133.498C427.868 130.273 424.959 127.628 421.545 125.798C418.132 123.968 414.318 123.009 410.445 123.008H305.422C279.431 123.008 258.379 144.06 258.379 170.051V472.37C258.379 487.283 270.446 499.349 285.358 499.349C297.26 499.349 307.774 491.54 311.185 480.132L365.919 297.677C371.893 277.755 390.216 264.136 410.985 264.136H642.459C673.86 264.136 696.44 294.29 687.596 324.421L646.175 465.549C640.295 485.589 621.925 499.349 601.038 499.349H285.358" stroke="#E1E4E5" stroke-width="4" stroke-linecap="round" stroke-linejoin="round"/>
<path fill-rule="evenodd" clip-rule="evenodd" d="M315.445 220.842L290.292 195.801C286.95 192.478 282.429 190.613 277.716 190.613H213.927C204.099 190.613 196.139 198.537 196.139 208.322V332.286C196.139 342.07 204.099 349.995 213.927 349.995H302.868C312.696 349.995 320.657 342.07 320.657 332.286V233.362C320.657 228.67 318.78 224.163 315.445 220.842Z" fill="white" stroke="#E1E4E5" stroke-width="4"/>
<path d="M278.915 227.969H234.56C221.134 227.969 210.251 238.852 210.251 252.278V296.633C210.251 310.058 221.134 320.942 234.56 320.942H278.915C292.34 320.942 303.224 310.058 303.224 296.633V252.278C303.224 238.852 292.34 227.969 278.915 227.969Z" fill="#4F27AA" stroke="white" stroke-width="12.155" stroke-linecap="round" stroke-linejoin="round"/>
<path d="M241.778 255.866C242.142 256.227 242.391 256.687 242.493 257.189C242.595 257.691 242.545 258.212 242.35 258.686C242.156 259.159 241.824 259.564 241.399 259.85C240.973 260.135 240.473 260.287 239.96 260.287C239.448 260.287 238.948 260.135 238.522 259.85C238.097 259.564 237.765 259.159 237.571 258.686C237.376 258.212 237.326 257.691 237.428 257.189C237.53 256.687 237.779 256.227 238.143 255.866C238.629 255.384 239.285 255.113 239.97 255.113C240.654 255.113 241.311 255.384 241.797 255.866M303.224 264.693C296.163 263.612 288.952 264.076 282.089 266.054C275.225 268.032 268.873 271.477 263.471 276.149C258.068 280.822 253.745 286.612 250.799 293.119C247.853 299.627 246.355 306.696 246.408 313.838C246.423 316.216 246.613 318.59 246.976 320.941" stroke="white" stroke-width="12.155" stroke-linecap="round" stroke-linejoin="round"/>
<path fill-rule="evenodd" clip-rule="evenodd" d="M479.899 105.529L456.047 81.7833C452.878 78.6317 448.59 76.8628 444.121 76.8633H383.631C374.311 76.8633 366.763 84.3783 366.763 93.6563V211.21C366.763 220.489 374.311 228.004 383.631 228.004H467.973C477.293 228.004 484.842 220.489 484.842 211.21V117.402C484.842 112.952 483.062 108.678 479.899 105.529Z" fill="white" stroke="#E1E4E5" stroke-width="4"/>
<path fill-rule="evenodd" clip-rule="evenodd" d="M449.066 165.144L418.312 182.548C410.74 186.828 401.372 181.327 401.372 172.59V137.789C401.372 129.045 410.724 123.551 418.312 127.831L449.066 145.235C456.791 149.592 456.791 160.772 449.066 165.144Z" fill="#4F27AA"/>
<path fill-rule="evenodd" clip-rule="evenodd" d="M644.405 120.603L622.295 98.5913C619.357 95.6703 615.383 94.0309 611.24 94.0313H555.169C546.53 94.0313 539.533 100.996 539.533 109.597V218.564C539.533 227.165 546.53 234.131 555.169 234.131H633.35C641.989 234.131 648.986 227.165 648.986 218.564V131.608C648.986 127.483 647.337 123.521 644.405 120.603Z" fill="white" stroke="#E1E4E5" stroke-width="4"/>
<path d="M626.97 145.394H592.72M626.97 166.16H592.72M626.97 186.925H592.72M570.187 165.259C570.069 165.259 569.952 165.282 569.842 165.328C569.733 165.373 569.634 165.439 569.55 165.523C569.467 165.606 569.4 165.705 569.355 165.815C569.31 165.924 569.286 166.041 569.286 166.159C569.286 166.277 569.309 166.395 569.354 166.504C569.4 166.613 569.466 166.712 569.549 166.796C569.633 166.88 569.732 166.946 569.842 166.992C569.951 167.037 570.068 167.06 570.186 167.06C570.425 167.06 570.654 166.966 570.823 166.797C570.992 166.628 571.087 166.399 571.087 166.16C571.087 165.921 570.993 165.692 570.824 165.523C570.655 165.354 570.426 165.259 570.187 165.259M570.187 144.531C569.948 144.531 569.719 144.626 569.55 144.795C569.381 144.964 569.286 145.194 569.286 145.433C569.286 145.672 569.381 145.901 569.55 146.07C569.719 146.239 569.948 146.334 570.187 146.334C570.426 146.334 570.656 146.239 570.825 146.07C570.994 145.901 571.089 145.672 571.089 145.433C571.089 145.194 570.994 144.964 570.825 144.795C570.656 144.626 570.426 144.531 570.187 144.531ZM570.187 185.989C569.948 185.989 569.719 186.084 569.55 186.253C569.381 186.422 569.286 186.651 569.286 186.89C569.286 187.129 569.381 187.358 569.55 187.527C569.719 187.696 569.948 187.791 570.187 187.791C570.426 187.791 570.655 187.696 570.824 187.527C570.993 187.358 571.088 187.129 571.088 186.89C571.088 186.651 570.993 186.422 570.824 186.253C570.655 186.084 570.426 185.989 570.187 185.989Z" stroke="#4F27AA" stroke-width="9.43" stroke-linecap="round" stroke-linejoin="round"/>
<path fill-rule="evenodd" clip-rule="evenodd" d="M487.157 367.439C449.84 372.386 421 403.126 421 440.714C421 481.735 455.257 515 497.5 515H665.8C699.598 515 727 488.391 727 455.571C727 422.752 699.598 396.143 665.8 396.143C665.8 346.906 624.704 307 574 307C533.654 307 499.474 332.302 487.157 367.439Z" fill="#4F27AA"/>
<path d="M534 420L570.5 383L607 420M570.5 465V387" stroke="white" stroke-width="16" stroke-linecap="round" stroke-linejoin="round"/>
</g>
<defs>
<linearGradient id="paint0_linear_1235_24441" x1="651.281" y1="270.188" x2="587.275" y2="-17.424" gradientUnits="userSpaceOnUse">
<stop stop-color="white"/>
<stop offset="1" stop-color="#EEEEEE"/>
</linearGradient>
<linearGradient id="paint1_linear_1235_24441" x1="711.748" y1="280.447" x2="844.375" y2="175.539" gradientUnits="userSpaceOnUse">
<stop stop-color="white"/>
<stop offset="1" stop-color="#EEEEEE"/>
</linearGradient>
<linearGradient id="paint2_linear_1235_24441" x1="197.434" y1="390.702" x2="53.8941" y2="257.335" gradientUnits="userSpaceOnUse">
<stop stop-color="white"/>
<stop offset="1" stop-color="#EEEEEE"/>
</linearGradient>
<clipPath id="clip0_1235_24441">
<rect width="900" height="600" fill="white"/>
</clipPath>
</defs>
</svg>
