<svg width="900" height="600" viewBox="0 0 900 600" fill="none" xmlns="http://www.w3.org/2000/svg">
<g clip-path="url(#clip0_1235_24470)">
<path d="M725.951 307.672C704.931 318.099 677.032 304.692 677.032 304.692C677.032 304.692 683.233 274.385 704.264 263.973C725.284 253.546 753.171 266.938 753.171 266.938C753.171 266.938 746.971 297.245 725.951 307.672Z" fill="url(#paint0_linear_1235_24470)"/>
<path d="M174.929 397.671C197.339 411.103 229.492 398.686 229.492 398.686C229.492 398.686 225.288 364.498 202.863 351.081C180.453 337.65 148.314 350.051 148.314 350.051C148.314 350.051 152.518 384.24 174.929 397.671Z" fill="url(#paint1_linear_1235_24470)"/>
<path d="M678.477 234.999C672.139 234.999 667 240.138 667 246.476C667 252.815 672.139 257.953 678.477 257.953C684.816 257.953 689.954 252.815 689.954 246.476C689.954 240.138 684.816 234.999 678.477 234.999Z" fill="#4F27AA"/>
<path d="M351.016 248.561C345.798 248.561 341.568 252.791 341.568 258.009C341.568 263.227 345.798 267.457 351.016 267.457C356.234 267.457 360.464 263.227 360.464 258.009C360.464 252.791 356.234 248.561 351.016 248.561Z" fill="#4F27AA"/>
<path d="M325.5 467C321.358 467 318 463.642 318 459.5C318 455.358 321.358 452 325.5 452C329.642 452 333 455.358 333 459.5C333 463.642 329.642 467 325.5 467Z" fill="#4F27AA"/>
<path d="M654.021 277.042C651.248 277.042 649 274.794 649 272.021C649 269.248 651.248 267 654.021 267C656.794 267 659.042 269.248 659.042 272.021C659.042 274.794 656.794 277.042 654.021 277.042Z" fill="#4F27AA"/>
<path d="M676.065 478.588C672.499 478.588 669.609 475.697 669.609 472.132C669.609 468.566 672.499 465.676 676.065 465.676C679.631 465.676 682.521 468.566 682.521 472.132C682.521 475.697 679.631 478.588 676.065 478.588Z" fill="#E1E4E5"/>
<path d="M251.325 441.65C246.175 441.65 242 437.475 242 432.325C242 427.175 246.175 423 251.325 423C256.475 423 260.65 427.175 260.65 432.325C260.65 437.475 256.475 441.65 251.325 441.65Z" fill="#E1E4E5"/>
<path d="M711.097 424.194C707.177 424.194 704 421.017 704 417.097C704 413.177 707.177 410 711.097 410C715.016 410 718.194 413.177 718.194 417.097C718.194 421.017 715.016 424.194 711.097 424.194Z" fill="#E1E4E5"/>
<path d="M633.624 196.786C629.266 196.786 625.733 193.253 625.733 188.895C625.733 184.537 629.266 181.004 633.624 181.004C637.982 181.004 641.515 184.537 641.515 188.895C641.515 193.253 637.982 196.786 633.624 196.786Z" fill="#E1E4E5"/>
<path d="M190.523 274.845C191.535 278.625 189.292 282.51 185.512 283.523C181.732 284.536 177.846 282.293 176.834 278.513C175.821 274.732 178.064 270.847 181.844 269.834C185.624 268.821 189.51 271.064 190.523 274.845Z" fill="#E1E4E5"/>
<path d="M385.684 149.184C380.478 149.184 376.258 144.964 376.258 139.758C376.258 134.552 380.478 130.332 385.684 130.332C390.89 130.332 395.11 134.552 395.11 139.758C395.11 144.964 390.89 149.184 385.684 149.184Z" fill="#E1E4E5"/>
<path d="M690.251 366.602C686.246 366.602 683 364.005 683 360.801C683 357.597 686.246 355 690.251 355C694.256 355 697.502 357.597 697.502 360.801C697.502 364.005 694.256 366.602 690.251 366.602Z" fill="#E1E4E5"/>
<path d="M560.59 123.787C562.698 131.654 558.03 139.74 550.163 141.848C542.296 143.956 534.209 139.287 532.101 131.42C529.994 123.553 534.662 115.467 542.529 113.359C550.396 111.251 558.483 115.92 560.59 123.787Z" fill="#E1E4E5"/>
<path d="M234.85 229.598H234.953C235.565 238.264 242.01 238.398 242.01 238.398C242.01 238.398 234.903 238.537 234.903 248.551C234.903 238.537 227.796 238.398 227.796 238.398C227.796 238.398 234.238 238.264 234.85 229.598ZM273.773 474.999H273.872C274.459 483.64 280.647 483.773 280.647 483.773C280.647 483.773 273.824 483.911 273.824 493.895C273.824 483.911 267 483.773 267 483.773C267 483.773 273.186 483.64 273.773 474.999Z" fill="#E1E4E5"/>
<path d="M431.306 91H643.646C667.54 91 687 117.777 687 150.655V189.635C687 206.582 676.901 220.479 664.584 220.479H483.529C471.212 220.479 461.112 206.582 461.112 189.635V147.266C461.112 131.335 456.925 115.405 449.042 103.541C444.362 96.423 438.45 91.001 431.306 91.001V91Z" fill="url(#paint2_linear_1235_24470)"/>
<path fill-rule="evenodd" clip-rule="evenodd" d="M347.64 91H641.301C631.421 91 623.245 96.423 616.772 103.541C605.871 115.404 600.079 131.335 600.079 147.266V189.635C600.079 190.567 600.037 191.49 599.954 192.402V423.947H287.681V150.655C287.681 117.777 314.594 91 347.64 91Z" fill="#E1E4E5"/>
<path d="M354.756 298.054H541.507M355.745 243.214H541.507M355.745 197.762H541.507" stroke="white" stroke-width="16.871" stroke-linecap="round" stroke-linejoin="round"/>
<path d="M430.625 508.749H642.965C666.859 508.749 686.32 481.972 686.32 449.094V410.114C686.32 393.167 676.22 379.27 663.903 379.27H482.848C470.531 379.27 460.432 393.167 460.432 410.114V452.483C460.432 468.414 456.244 484.344 448.361 496.208C443.681 503.326 437.769 508.749 430.625 508.749Z" fill="url(#paint3_linear_1235_24470)"/>
<path fill-rule="evenodd" clip-rule="evenodd" d="M346.959 508.748H640.62C630.741 508.748 622.564 503.325 616.092 496.207C605.19 484.343 599.399 468.413 599.399 452.482V410.113C599.399 409.181 599.356 408.258 599.274 407.346V175.801H287V449.092C287 481.971 313.914 508.748 346.959 508.748Z" fill="#E1E4E5"/>
<path d="M354.076 340.093H540.826M354.076 185.188H540.826M355.064 395.001H540.826M355.064 240.096H540.826M355.064 439.8H540.826M355.064 284.895H540.826" stroke="white" stroke-width="16.871" stroke-linecap="round" stroke-linejoin="round"/>
<path fill-rule="evenodd" clip-rule="evenodd" d="M292.133 168.4L304.762 162.224C310.589 159.376 317.635 161.658 320.675 167.398L327.268 179.818C328.128 181.435 329.346 182.835 330.828 183.911C332.31 184.987 334.017 185.711 335.821 186.028L349.67 188.458C356.063 189.582 360.409 195.566 359.503 201.994L357.535 215.912C357.278 217.726 357.439 219.574 358.005 221.316C358.571 223.058 359.527 224.647 360.801 225.963L370.574 236.066C375.085 240.726 375.085 248.13 370.574 252.798L360.801 262.901C359.527 264.218 358.571 265.807 358.005 267.549C357.439 269.291 357.278 271.14 357.535 272.953L359.503 286.871C360.409 293.299 356.063 299.283 349.67 300.406L335.821 302.836C334.017 303.154 332.31 303.878 330.828 304.954C329.346 306.03 328.128 307.429 327.268 309.046L320.675 321.466C317.635 327.198 310.598 329.488 304.762 326.64L292.133 320.465C290.488 319.661 288.682 319.243 286.851 319.243C285.02 319.243 283.213 319.661 281.568 320.465L268.938 326.64C263.111 329.488 256.065 327.206 253.025 321.466L246.432 309.038C245.572 307.421 244.355 306.022 242.873 304.945C241.391 303.869 239.683 303.145 237.879 302.827L224.03 300.397C217.637 299.274 213.291 293.29 214.197 286.862L216.165 272.944C216.422 271.131 216.261 269.283 215.695 267.541C215.129 265.799 214.173 264.209 212.899 262.893L203.127 252.789C198.615 248.13 198.615 240.726 203.127 236.058L212.899 225.954C214.173 224.638 215.129 223.049 215.695 221.307C216.261 219.565 216.422 217.717 216.165 215.903L214.206 201.985C213.291 195.566 217.646 189.573 224.039 188.458L237.888 186.028C239.69 185.71 241.396 184.985 242.877 183.909C244.357 182.833 245.573 181.434 246.432 179.818L253.025 167.398C256.065 161.667 263.103 159.376 268.938 162.224L281.568 168.4C283.213 169.204 285.02 169.621 286.851 169.621C288.681 169.621 290.488 169.204 292.133 168.4Z" fill="#4F27AA" stroke="#4F27AA" stroke-width="7.464" stroke-linecap="round" stroke-linejoin="round"/>
<path d="M287.033 297.678C316.212 297.678 339.866 274.024 339.866 244.845C339.866 215.666 316.212 192.012 287.033 192.012C257.854 192.012 234.2 215.666 234.2 244.845C234.2 274.024 257.854 297.678 287.033 297.678Z" fill="white"/>
<path fill-rule="evenodd" clip-rule="evenodd" d="M286.323 263.457L299.914 270.596C302.561 271.988 305.655 269.742 305.148 266.792L302.554 251.658L313.551 240.949C315.691 238.861 314.511 235.223 311.554 234.792L296.36 232.584L289.568 218.811C288.244 216.126 284.425 216.126 283.101 218.811L276.309 232.584L261.107 234.8C258.15 235.231 256.97 238.869 259.111 240.956L270.108 251.666L267.513 266.8C267.007 269.749 270.1 271.996 272.747 270.604L286.338 263.464H286.323V263.457Z" fill="#4F27AA"/>
<path d="M665 360.5C665 321.012 632.988 289 593.5 289C554.012 289 522 321.012 522 360.5C522 399.988 554.012 432 593.5 432C632.988 432 665 399.988 665 360.5Z" fill="#4F27AA"/>
<path d="M617 348L585.75 379L567 360.4" stroke="white" stroke-width="10.287" stroke-linecap="round" stroke-linejoin="round"/>
</g>
<defs>
<linearGradient id="paint0_linear_1235_24470" x1="645.232" y1="340.197" x2="818.605" y2="203.059" gradientUnits="userSpaceOnUse">
<stop stop-color="white"/>
<stop offset="1" stop-color="#EEEEEE"/>
</linearGradient>
<linearGradient id="paint1_linear_1235_24470" x1="261.652" y1="440.907" x2="81.3269" y2="273.362" gradientUnits="userSpaceOnUse">
<stop stop-color="white"/>
<stop offset="1" stop-color="#EEEEEE"/>
</linearGradient>
<linearGradient id="paint2_linear_1235_24470" x1="553.701" y1="18.407" x2="555.723" y2="361.365" gradientUnits="userSpaceOnUse">
<stop stop-color="white"/>
<stop offset="1" stop-color="#EEEEEE"/>
</linearGradient>
<linearGradient id="paint3_linear_1235_24470" x1="553.021" y1="581.342" x2="555.043" y2="238.384" gradientUnits="userSpaceOnUse">
<stop stop-color="white"/>
<stop offset="1" stop-color="#EEEEEE"/>
</linearGradient>
<clipPath id="clip0_1235_24470">
<rect width="900" height="600" fill="white"/>
</clipPath>
</defs>
</svg>
