<svg width="900" height="600" viewBox="0 0 900 600" fill="none" xmlns="http://www.w3.org/2000/svg">
<g clip-path="url(#clip0_1235_24498)">
<path d="M442.22 191.883H180.266C166.551 191.883 155.432 203.001 155.432 216.717V286.555C155.432 300.27 166.551 311.389 180.266 311.389H442.22C455.936 311.389 467.054 300.27 467.054 286.555V216.717C467.054 203.001 455.936 191.883 442.22 191.883Z" fill="white" stroke="#E1E4E5" stroke-width="4.967"/>
<path d="M428.206 229.078H267.021C263.108 229.078 259.936 232.25 259.936 236.163C259.936 240.076 263.108 243.248 267.021 243.248H428.206C432.119 243.248 435.291 240.076 435.291 236.163C435.291 232.25 432.119 229.078 428.206 229.078Z" fill="#E1E4E5"/>
<path d="M366.212 259.191H267.021C263.108 259.191 259.936 262.363 259.936 266.276C259.936 270.189 263.108 273.361 267.021 273.361H366.212C370.125 273.361 373.297 270.189 373.297 266.276C373.297 262.363 370.125 259.191 366.212 259.191Z" fill="#E1E4E5"/>
<path fill-rule="evenodd" clip-rule="evenodd" d="M204.819 281.761C188.301 281.761 174.908 268.18 174.908 251.43C174.908 234.679 188.301 221.098 204.819 221.098C221.337 221.098 234.729 234.679 234.729 251.43C234.729 268.18 221.337 281.761 204.819 281.761Z" fill="#4F27AA"/>
<path d="M215.351 246.375L202.715 259.856L195.13 251.769" stroke="white" stroke-width="4.431" stroke-linecap="round" stroke-linejoin="round"/>
<path d="M721.873 266.051H459.919C446.204 266.051 435.085 277.169 435.085 290.885V360.723C435.085 374.438 446.204 385.557 459.919 385.557H721.873C735.588 385.557 746.707 374.438 746.707 360.723V290.885C746.707 277.169 735.588 266.051 721.873 266.051Z" fill="white" stroke="#E1E4E5" stroke-width="4.967"/>
<path d="M707.859 303.25H546.674C542.761 303.25 539.589 306.422 539.589 310.335C539.589 314.248 542.761 317.42 546.674 317.42H707.859C711.772 317.42 714.944 314.248 714.944 310.335C714.944 306.422 711.772 303.25 707.859 303.25Z" fill="#E1E4E5"/>
<path d="M645.865 333.359H546.674C542.761 333.359 539.589 336.531 539.589 340.444C539.589 344.357 542.761 347.529 546.674 347.529H645.865C649.778 347.529 652.95 344.357 652.95 340.444C652.95 336.531 649.778 333.359 645.865 333.359Z" fill="#E1E4E5"/>
<path fill-rule="evenodd" clip-rule="evenodd" d="M484.472 355.929C467.954 355.929 454.562 342.348 454.562 325.597C454.562 308.847 467.954 295.266 484.472 295.266C500.99 295.266 514.382 308.847 514.382 325.597C514.382 342.348 500.99 355.929 484.472 355.929Z" fill="#4F27AA"/>
<path d="M495.004 320.543L482.369 334.024L474.783 325.937" stroke="white" stroke-width="4.431" stroke-linecap="round" stroke-linejoin="round"/>
<path d="M543.138 410H281.184C267.469 410 256.35 421.119 256.35 434.834V504.672C256.35 518.387 267.469 529.506 281.184 529.506H543.138C556.854 529.506 567.972 518.387 567.972 504.672V434.834C567.972 421.119 556.854 410 543.138 410Z" fill="white" stroke="#E1E4E5" stroke-width="4.967"/>
<path d="M529.124 447.195H367.939C364.026 447.195 360.854 450.367 360.854 454.28C360.854 458.193 364.026 461.365 367.939 461.365H529.124C533.037 461.365 536.209 458.193 536.209 454.28C536.209 450.367 533.037 447.195 529.124 447.195Z" fill="#E1E4E5"/>
<path d="M467.13 477.309H367.939C364.026 477.309 360.854 480.481 360.854 484.394C360.854 488.307 364.026 491.479 367.939 491.479H467.13C471.043 491.479 474.215 488.307 474.215 484.394C474.215 480.481 471.043 477.309 467.13 477.309Z" fill="#E1E4E5"/>
<path fill-rule="evenodd" clip-rule="evenodd" d="M305.737 499.877C289.219 499.877 275.827 486.297 275.827 469.546C275.827 452.795 289.219 439.215 305.737 439.215C322.255 439.215 335.647 452.795 335.647 469.546C335.647 486.297 322.255 499.877 305.737 499.877Z" fill="#4F27AA"/>
<path d="M316.269 464.492L303.634 477.972L296.048 469.885" stroke="white" stroke-width="4.431" stroke-linecap="round" stroke-linejoin="round"/>
<path d="M421.711 70H421.71C394.85 70 373.075 91.7746 373.075 118.635V118.636C373.075 145.496 394.85 167.271 421.71 167.271H421.711C448.572 167.271 470.346 145.496 470.346 118.636V118.635C470.346 91.7746 448.572 70 421.711 70Z" fill="#4F27AA"/>
<path fill-rule="evenodd" clip-rule="evenodd" d="M443.815 139.038V142.29C443.815 144.085 442.377 145.542 440.606 145.542H402.094C400.323 145.542 398.885 144.085 398.885 142.29V138.986C398.885 129.145 409.983 122.751 421.35 122.751C432.717 122.751 443.815 129.148 443.815 138.986M429.405 94.1812C433.855 98.6312 433.855 105.847 429.405 110.297C424.954 114.747 417.739 114.747 413.289 110.297C408.839 105.847 408.839 98.6312 413.289 94.1812C417.739 89.7313 424.954 89.7313 429.405 94.1812Z" fill="white"/>
<path d="M556.674 70H556.673C529.813 70 508.038 91.7746 508.038 118.635V118.636C508.038 145.496 529.813 167.271 556.673 167.271H556.674C583.534 167.271 605.309 145.496 605.309 118.636V118.635C605.309 91.7746 583.534 70 556.674 70Z" fill="#4F27AA"/>
<path fill-rule="evenodd" clip-rule="evenodd" d="M578.778 139.038V142.29C578.778 144.085 577.34 145.542 575.569 145.542H537.057C535.285 145.542 533.848 144.085 533.848 142.29V138.986C533.848 129.145 544.945 122.751 556.313 122.751C567.68 122.751 578.778 129.148 578.778 138.986M564.367 94.1812C568.818 98.6312 568.818 105.847 564.367 110.297C559.917 114.747 552.702 114.747 548.252 110.297C543.802 105.847 543.802 98.6312 548.252 94.1812C552.702 89.7313 559.917 89.7313 564.367 94.1812Z" fill="white"/>
<path d="M691.637 70H691.636C664.776 70 643.001 91.7746 643.001 118.635V118.636C643.001 145.496 664.776 167.271 691.636 167.271H691.637C718.497 167.271 740.272 145.496 740.272 118.636V118.635C740.272 91.7746 718.497 70 691.637 70Z" fill="#4F27AA"/>
<path d="M707.621 110.133L686.364 131.219L673.61 118.567" stroke="white" stroke-width="10.287" stroke-linecap="round" stroke-linejoin="round"/>
<path fill-rule="evenodd" clip-rule="evenodd" d="M213.325 395.132H209.385C208.432 395.132 207.665 395.907 207.665 396.852V400.792C207.665 401.745 208.44 402.512 209.385 402.512H213.325C214.27 402.512 215.045 401.737 215.045 400.792V396.852C215.046 396.626 215.001 396.402 214.915 396.193C214.829 395.984 214.702 395.794 214.542 395.634C214.383 395.475 214.193 395.348 213.984 395.262C213.775 395.176 213.551 395.131 213.325 395.132ZM199.661 395.132H195.72C194.776 395.132 194 395.907 194 396.852V400.792C194 401.745 194.776 402.512 195.72 402.512H199.661C200.605 402.512 201.381 401.737 201.381 400.792V396.852C201.381 395.907 200.605 395.132 199.661 395.132ZM185.991 395.132H182.051C181.106 395.132 180.331 395.907 180.331 396.852V400.792C180.331 401.745 181.106 402.512 182.051 402.512H185.991C186.936 402.512 187.711 401.737 187.711 400.792V396.852C187.712 396.626 187.667 396.402 187.581 396.193C187.495 395.984 187.368 395.794 187.208 395.634C187.049 395.475 186.859 395.348 186.65 395.262C186.441 395.176 186.217 395.131 185.991 395.132ZM172.33 395.132H168.39C167.445 395.132 166.67 395.907 166.67 396.852V400.792C166.67 401.745 167.445 402.512 168.39 402.512H172.33C173.283 402.512 174.058 401.737 174.058 400.792V396.852C174.053 396.396 173.869 395.96 173.546 395.638C173.223 395.316 172.786 395.135 172.33 395.132ZM158.668 395.132H154.728C153.775 395.132 153 395.907 153 396.852V400.792C153 401.745 153.775 402.512 154.728 402.512H158.668C159.613 402.512 160.388 401.737 160.388 400.792V396.852C160.388 395.907 159.613 395.132 158.668 395.132ZM199.164 410.029H195.224C194.279 410.029 193.504 410.805 193.504 411.749V415.698C193.504 416.642 194.279 417.417 195.224 417.417H199.164C200.117 417.417 200.884 416.642 200.884 415.698V411.757C200.885 411.53 200.842 411.306 200.756 411.096C200.67 410.886 200.544 410.696 200.384 410.535C200.224 410.374 200.034 410.247 199.824 410.16C199.615 410.073 199.391 410.029 199.164 410.029ZM185.499 410.029H181.559C180.614 410.029 179.839 410.805 179.839 411.749V415.698C179.839 416.642 180.614 417.417 181.559 417.417H185.499C186.444 417.417 187.219 416.642 187.219 415.698V411.757C187.22 411.53 187.177 411.306 187.091 411.096C187.005 410.886 186.879 410.696 186.719 410.535C186.559 410.374 186.369 410.247 186.159 410.16C185.95 410.073 185.726 410.029 185.499 410.029ZM171.836 410.029H167.896C166.943 410.029 166.168 410.805 166.168 411.749V415.698C166.168 416.642 166.943 417.417 167.896 417.417H171.836C172.781 417.417 173.556 416.642 173.556 415.698V411.757C173.556 410.805 172.781 410.029 171.836 410.029ZM185.991 379.129H182.051C181.106 379.129 180.331 379.904 180.331 380.848V384.789C180.331 385.742 181.106 386.509 182.051 386.509H185.991C186.936 386.509 187.711 385.733 187.711 384.789V380.848C187.711 380.622 187.667 380.398 187.581 380.189C187.495 379.981 187.368 379.791 187.208 379.631C187.048 379.471 186.858 379.345 186.65 379.259C186.441 379.172 186.217 379.128 185.991 379.129ZM172.33 379.129H168.39C167.445 379.129 166.67 379.904 166.67 380.848V384.789C166.67 385.742 167.445 386.509 168.39 386.509H172.33C173.283 386.509 174.058 385.733 174.058 384.789V380.848C174.053 380.392 173.869 379.956 173.546 379.635C173.223 379.313 172.786 379.132 172.33 379.129ZM720.348 454.71H716.408C715.455 454.71 714.688 455.485 714.688 456.43V460.37C714.688 461.323 715.463 462.09 716.408 462.09H720.348C721.293 462.09 722.068 461.315 722.068 460.37V456.43C722.069 456.204 722.024 455.98 721.938 455.771C721.852 455.562 721.725 455.372 721.565 455.213C721.406 455.053 721.216 454.926 721.007 454.84C720.798 454.754 720.574 454.709 720.348 454.71ZM706.684 454.71H702.744C701.799 454.71 701.024 455.485 701.024 456.43V460.37C701.024 461.323 701.799 462.09 702.744 462.09H706.684C707.629 462.09 708.404 461.315 708.404 460.37V456.43C708.404 455.485 707.629 454.71 706.684 454.71ZM693.014 454.71H689.074C688.129 454.71 687.354 455.485 687.354 456.43V460.37C687.354 461.323 688.129 462.09 689.074 462.09H693.014C693.959 462.09 694.734 461.315 694.734 460.37V456.43C694.735 456.204 694.69 455.98 694.604 455.771C694.518 455.562 694.391 455.372 694.231 455.213C694.072 455.053 693.882 454.926 693.673 454.84C693.464 454.754 693.24 454.709 693.014 454.71ZM679.353 454.71H675.413C674.468 454.71 673.693 455.485 673.693 456.43V460.37C673.693 461.323 674.468 462.09 675.413 462.09H679.353C680.306 462.09 681.081 461.315 681.081 460.37V456.43C681.076 455.974 680.892 455.538 680.569 455.216C680.246 454.894 679.809 454.713 679.353 454.71ZM665.691 454.71H661.751C660.798 454.71 660.023 455.485 660.023 456.43V460.37C660.023 461.323 660.798 462.09 661.751 462.09H665.691C666.636 462.09 667.411 461.315 667.411 460.37V456.43C667.411 455.485 666.636 454.71 665.691 454.71ZM706.187 469.607H702.246C701.302 469.607 700.527 470.383 700.527 471.327V475.276C700.527 476.22 701.302 476.996 702.246 476.996H706.187C707.14 476.996 707.907 476.22 707.907 475.276V471.335C707.908 471.108 707.865 470.884 707.779 470.674C707.693 470.464 707.567 470.274 707.407 470.113C707.247 469.952 707.057 469.825 706.847 469.738C706.638 469.651 706.414 469.607 706.187 469.607ZM692.522 469.607H688.582C687.637 469.607 686.862 470.383 686.862 471.327V475.276C686.862 476.22 687.637 476.996 688.582 476.996H692.522C693.467 476.996 694.242 476.22 694.242 475.276V471.335C694.243 471.108 694.2 470.884 694.114 470.674C694.028 470.464 693.901 470.274 693.742 470.113C693.582 469.952 693.392 469.825 693.182 469.738C692.973 469.651 692.749 469.607 692.522 469.607ZM678.859 469.607H674.919C673.966 469.607 673.191 470.383 673.191 471.327V475.276C673.191 476.22 673.966 476.996 674.919 476.996H678.859C679.804 476.996 680.579 476.22 680.579 475.276V471.335C680.579 470.383 679.804 469.607 678.859 469.607ZM693.014 438.707H689.074C688.129 438.707 687.354 439.482 687.354 440.427V444.367C687.354 445.32 688.129 446.087 689.074 446.087H693.014C693.959 446.087 694.734 445.312 694.734 444.367V440.427C694.735 440.201 694.69 439.977 694.604 439.768C694.518 439.559 694.391 439.369 694.231 439.21C694.072 439.05 693.882 438.923 693.673 438.837C693.464 438.751 693.24 438.706 693.014 438.707ZM679.353 438.707H675.413C674.468 438.707 673.693 439.482 673.693 440.427V444.367C673.693 445.32 674.468 446.087 675.413 446.087H679.353C680.306 446.087 681.081 445.312 681.081 444.367V440.427C681.076 439.971 680.892 439.535 680.569 439.213C680.246 438.891 679.809 438.71 679.353 438.707Z" fill="#E1E4E5"/>
</g>
<defs>
<clipPath id="clip0_1235_24498">
<rect width="900" height="600" fill="white"/>
</clipPath>
</defs>
</svg>
