<svg width="900" height="600" viewBox="0 0 900 600" fill="none" xmlns="http://www.w3.org/2000/svg">
<g clip-path="url(#clip0_1235_18405)">
<path d="M354.47 232.015C383.52 195.348 445.25 180.008 486.517 234.973C521.522 281.594 536.772 284.261 563.377 293.131C580.945 298.99 609.692 306.929 592.941 352.276C571.017 411.627 462.555 427.659 403.251 405.505C346.54 384.322 301.749 298.55 354.47 232.015Z" fill="url(#paint0_linear_1235_18405)"/>
<path d="M461.452 142.13L451.871 132.549L461.452 122.969L471.032 132.549L461.452 142.13ZM657.521 359.688L646.677 348.844L657.521 338.001L668.364 348.844L657.521 359.688Z" stroke="#E1E4E5" stroke-width="5.087" stroke-linecap="round" stroke-linejoin="round"/>
<path fill-rule="evenodd" clip-rule="evenodd" d="M469 411C469 411 379 339.135 379 273.503C379 225.172 419.298 186 469 186C518.703 186 559 225.172 559 273.503C559 339.135 469 411 469 411Z" fill="#4F27AA" stroke="#4F27AA" stroke-width="28.772" stroke-linecap="round" stroke-linejoin="round"/>
<path d="M468.981 265.455C462.977 265.455 458.151 270.205 458.151 276.019C458.151 281.833 463.015 286.545 469.019 286.545C475.023 286.545 479.849 281.833 479.849 275.981C479.887 270.205 475.023 265.455 468.981 265.455Z" stroke="white" stroke-width="48.925" stroke-linecap="round" stroke-linejoin="round"/>
<path d="M490.126 130.18C562.905 115.83 618.583 195.484 601.011 254.132" stroke="#E1E4E5" stroke-width="1.829" stroke-miterlimit="10" stroke-dasharray="7.6 7.6"/>
<path d="M589.985 269.962C585.379 272.426 583.625 278.148 586.088 282.754C588.535 287.36 594.273 289.114 598.879 286.651C603.485 284.188 605.24 278.466 602.776 273.86C600.313 269.237 594.591 267.499 589.985 269.962Z" fill="#E1E4E5"/>
<path d="M554.305 516.533L146.95 515.605C149.896 513.856 152.874 512.162 155.883 510.524C165.534 505.26 179.638 498.226 197.416 491.164C232.978 477.038 283.196 462.821 341.854 462.428C400.78 462.032 453.718 475.77 493.035 489.988C512.688 497.095 528.925 504.317 540.794 509.945C545.318 512.098 549.822 514.294 554.305 516.533Z" fill="white" stroke="#E1E4E5" stroke-width="4"/>
<path d="M774.99 516.533L451.916 515.797C453.557 514.837 455.526 513.717 457.807 512.473C465.524 508.264 476.805 502.637 491.026 496.988C519.473 485.688 559.641 474.318 606.556 474.003C653.685 473.687 696.033 484.674 727.492 496.051C743.216 501.737 756.208 507.516 765.705 512.02C768.813 513.497 771.908 515.001 774.99 516.533ZM148.577 249.581C151.391 238.176 177.98 221.52 192.189 231.561C196.55 209.834 200.63 196.285 214.879 185.581C229.128 174.878 252.903 188.869 256.722 218.172C260.54 206.126 279.954 189.891 295.55 203.581C309.98 216.248 311.427 237.474 309.92 249.561H148.577V249.581ZM724.387 231.548C722.795 225.081 707.752 215.636 699.713 221.33C697.246 209.01 694.938 201.326 686.876 195.257C678.814 189.187 665.363 197.121 663.203 213.738C661.042 206.907 650.058 197.7 641.235 205.463C633.071 212.647 632.252 224.683 633.105 231.537H724.387V231.548ZM607 148.791C608.113 144.27 618.629 137.667 624.249 141.647C625.974 133.034 627.588 127.663 633.223 123.42C638.859 119.177 648.263 124.723 649.773 136.34C651.283 131.564 658.962 125.128 665.13 130.555C670.838 135.577 671.41 143.991 670.814 148.783H607V148.791ZM708 180.791C709.113 176.27 719.629 169.667 725.249 173.647C726.974 165.034 728.588 159.663 734.223 155.42C739.859 151.177 749.263 156.723 750.773 168.34C752.283 163.564 759.962 157.128 766.13 162.555C771.838 167.577 772.41 175.991 771.814 180.783H708V180.791ZM375.548 154.323C373.957 147.855 358.913 138.41 350.874 144.105C348.407 131.784 346.099 124.1 338.037 118.031C329.976 111.961 316.524 119.895 314.364 136.512C312.203 129.681 301.22 120.475 292.396 128.238C284.232 135.421 283.413 147.458 284.266 154.311H375.548V154.323Z" fill="white" stroke="#E1E4E5" stroke-width="4"/>
<path d="M329.919 274C333.74 274 336.838 277.098 336.838 280.919C336.838 284.74 333.74 287.838 329.919 287.838C326.098 287.838 323 284.74 323 280.919C323 277.098 326.098 274 329.919 274Z" fill="#E1E4E5"/>
<path d="M386.623 160.226C382.68 160.226 379.484 163.422 379.484 167.365C379.484 171.308 382.68 174.504 386.623 174.504C390.566 174.504 393.762 171.308 393.762 167.365C393.762 163.422 390.566 160.226 386.623 160.226Z" fill="#E1E4E5"/>
<path d="M325.537 362.124C329.21 367.469 326.628 375.626 326.628 375.626C326.628 375.626 318.093 375.111 314.425 369.762C310.752 364.416 313.33 356.263 313.33 356.263C313.33 356.263 321.865 356.778 325.537 362.124ZM660.484 270.474C656.814 275.817 659.394 283.969 659.394 283.969C659.394 283.969 667.924 283.454 671.591 278.107C675.262 272.765 672.685 264.616 672.685 264.616C672.685 264.616 664.155 265.131 660.484 270.474ZM568.42 401.119C564.749 406.462 567.329 414.614 567.329 414.614C567.329 414.614 575.859 414.099 579.526 408.752C583.197 403.41 580.62 395.261 580.62 395.261C580.62 395.261 572.09 395.776 568.42 401.119ZM580.618 168.905C577.839 172.95 579.792 179.123 579.792 179.123C579.792 179.123 586.251 178.733 589.028 174.685C591.807 170.639 589.856 164.469 589.856 164.469C589.856 164.469 583.397 164.859 580.618 168.905Z" fill="#E1E4E5"/>
<path fill-rule="evenodd" clip-rule="evenodd" d="M219.271 472.256C219.271 483.593 211.823 493.787 202.636 493.787C193.448 493.787 186 483.593 186 472.256C186 460.92 197.437 428 202.636 428C207.834 428 219.271 460.92 219.271 472.256Z" fill="#E1E4E5" stroke="#E1E4E5" stroke-width="2" stroke-linecap="round" stroke-linejoin="round"/>
<mask id="mask0_1235_18405" style="mask-type:alpha" maskUnits="userSpaceOnUse" x="201" y="442" width="4" height="64">
<path fill-rule="evenodd" clip-rule="evenodd" d="M203.025 442.367H203.003C202.382 442.367 201.88 442.888 201.88 443.529V505.129H204.148V443.529C204.148 442.888 203.645 442.367 203.025 442.367Z" fill="white"/>
</mask>
<g mask="url(#mask0_1235_18405)">
<path d="M201.88 505.129H198.88C198.88 505.925 199.196 506.688 199.759 507.25C200.321 507.813 201.084 508.129 201.88 508.129V505.129ZM204.148 505.129V508.129C204.944 508.129 205.707 507.813 206.269 507.25C206.832 506.688 207.148 505.925 207.148 505.129H204.148ZM203.025 439.367H203.003V445.367H203.025V439.367ZM203.003 439.367C200.629 439.367 198.88 441.329 198.88 443.529H204.88C204.88 444.446 204.136 445.367 203.003 445.367V439.367ZM198.88 443.529V505.129H204.88V443.529H198.88ZM201.88 508.129H204.148V502.129H201.88V508.129ZM207.148 505.129V443.529H201.148V505.129H207.148ZM207.148 443.529C207.148 441.328 205.398 439.367 203.025 439.367V445.367C202.781 445.37 202.539 445.324 202.313 445.233C202.086 445.142 201.88 445.008 201.706 444.837C201.531 444.666 201.392 444.463 201.297 444.239C201.201 444.014 201.15 443.773 201.148 443.529H207.148Z" fill="#E1E4E5"/>
</g>
<mask id="mask1_1235_18405" style="mask-type:alpha" maskUnits="userSpaceOnUse" x="361" y="427" width="3" height="68">
<path fill-rule="evenodd" clip-rule="evenodd" d="M362.448 427.785H362.424C361.765 427.785 361.23 428.338 361.23 429.02V494.484H363.641V429.02C363.641 428.338 363.107 427.785 362.448 427.785Z" fill="white"/>
</mask>
<g mask="url(#mask1_1235_18405)">
<path d="M361.23 494.484H358.23C358.23 495.28 358.546 496.043 359.109 496.605C359.671 497.168 360.434 497.484 361.23 497.484V494.484ZM363.641 494.484V497.484C364.437 497.484 365.2 497.168 365.762 496.605C366.325 496.043 366.641 495.28 366.641 494.484H363.641ZM362.448 424.785H362.424V430.785H362.448V424.785ZM362.424 424.785C360.011 424.785 358.23 426.779 358.23 429.02H364.23C364.23 429.896 363.518 430.785 362.424 430.785V424.785ZM358.23 429.02V494.484H364.23V429.02H358.23ZM361.23 497.484H363.641V491.484H361.23V497.484ZM366.641 494.484V429.02H360.641V494.484H366.641ZM366.641 429.02C366.641 426.779 364.86 424.785 362.448 424.785V430.785C362.213 430.788 361.981 430.744 361.763 430.657C361.545 430.57 361.347 430.441 361.179 430.277C361.011 430.113 360.877 429.918 360.785 429.702C360.693 429.486 360.644 429.255 360.641 429.02H366.641Z" fill="#E1E4E5"/>
</g>
<mask id="mask2_1235_18405" style="mask-type:alpha" maskUnits="userSpaceOnUse" x="617" y="415" width="4" height="79">
<path fill-rule="evenodd" clip-rule="evenodd" d="M618.838 415.529H618.81C618.04 415.529 617.417 416.175 617.417 416.972V493.418H620.232V416.972C620.232 416.175 619.608 415.529 618.838 415.529Z" fill="white"/>
</mask>
<g mask="url(#mask2_1235_18405)">
<path d="M617.417 493.418H614.417C614.417 494.214 614.733 494.977 615.296 495.54C615.858 496.102 616.621 496.418 617.417 496.418V493.418ZM620.232 493.418V496.418C621.028 496.418 621.791 496.102 622.353 495.54C622.916 494.977 623.232 494.214 623.232 493.418H620.232ZM618.838 412.529H618.81V418.529H618.838V412.529ZM618.81 412.529C616.287 412.529 614.417 414.617 614.417 416.972H620.417C620.417 417.733 619.794 418.529 618.81 418.529V412.529ZM614.417 416.972V493.418H620.417V416.972H614.417ZM617.417 496.418H620.232V490.418H617.417V496.418ZM623.232 493.418V416.972H617.232V493.418H623.232ZM623.232 416.972C623.232 414.616 621.361 412.529 618.838 412.529V418.529C618.419 418.536 618.014 418.375 617.713 418.083C617.411 417.791 617.239 417.392 617.232 416.972H623.232Z" fill="#E1E4E5"/>
</g>
<mask id="mask3_1235_18405" style="mask-type:alpha" maskUnits="userSpaceOnUse" x="440" y="461" width="2" height="44">
<path fill-rule="evenodd" clip-rule="evenodd" d="M441.03 461.619H441.015C440.595 461.619 440.255 461.97 440.255 462.404V504.063H441.79V462.404C441.793 462.199 441.715 462.002 441.572 461.854C441.43 461.707 441.235 461.623 441.03 461.619Z" fill="white"/>
</mask>
<g mask="url(#mask3_1235_18405)">
<path d="M440.255 504.063H437.255C437.255 504.859 437.571 505.622 438.134 506.184C438.696 506.747 439.459 507.063 440.255 507.063V504.063ZM441.79 504.063V507.063C442.586 507.063 443.349 506.747 443.911 506.184C444.474 505.622 444.79 504.859 444.79 504.063H441.79ZM441.03 458.619H441.015V464.619H441.03V458.619ZM441.015 458.619C438.842 458.619 437.255 460.412 437.255 462.404H443.255C443.253 462.697 443.194 462.986 443.081 463.256C442.967 463.525 442.802 463.77 442.594 463.976C442.386 464.181 442.139 464.344 441.868 464.455C441.598 464.565 441.308 464.621 441.015 464.619V458.619ZM437.255 462.404V504.063H443.255V462.404H437.255ZM440.255 507.063H441.79V501.063H440.255V507.063ZM444.79 504.063V462.404H438.79V504.063H444.79ZM444.79 462.404C444.79 460.411 443.202 458.619 441.03 458.619V464.619C440.439 464.622 439.871 464.391 439.451 463.975C439.031 463.56 438.793 462.995 438.79 462.404H444.79Z" fill="#E1E4E5"/>
</g>
<mask id="mask4_1235_18405" style="mask-type:alpha" maskUnits="userSpaceOnUse" x="540" y="453" width="2" height="43">
<path fill-rule="evenodd" clip-rule="evenodd" d="M541.095 453.104H541.079C540.874 453.107 540.679 453.192 540.537 453.339C540.394 453.487 540.317 453.685 540.32 453.89V495.549H541.854V453.89C541.857 453.685 541.779 453.487 541.637 453.339C541.495 453.192 541.3 453.107 541.095 453.104Z" fill="white"/>
</mask>
<g mask="url(#mask4_1235_18405)">
<path d="M540.32 495.549H537.32C537.32 496.344 537.636 497.107 538.199 497.67C538.761 498.232 539.524 498.549 540.32 498.549V495.549ZM541.854 495.549V498.549C542.65 498.549 543.413 498.232 543.975 497.67C544.538 497.107 544.854 496.344 544.854 495.549H541.854ZM541.095 450.104H541.079V456.104H541.095V450.104ZM541.079 450.104C538.906 450.104 537.32 451.898 537.32 453.89H543.32C543.318 454.182 543.259 454.471 543.145 454.741C543.032 455.011 542.866 455.255 542.658 455.461C542.45 455.666 542.204 455.829 541.933 455.939C541.662 456.05 541.372 456.105 541.079 456.104V450.104ZM537.32 453.89V495.549H543.32V453.89H537.32ZM540.32 498.549H541.854V492.549H540.32V498.549ZM544.854 495.549V453.89H538.854V495.549H544.854ZM544.854 453.89C544.854 451.897 543.267 450.104 541.095 450.104V456.104C540.802 456.105 540.512 456.05 540.241 455.939C539.97 455.829 539.724 455.666 539.516 455.461C539.308 455.255 539.142 455.011 539.029 454.741C538.915 454.471 538.856 454.182 538.854 453.89H544.854Z" fill="#E1E4E5"/>
</g>
<mask id="mask5_1235_18405" style="mask-type:alpha" maskUnits="userSpaceOnUse" x="698" y="437" width="3" height="65">
<path fill-rule="evenodd" clip-rule="evenodd" d="M699.232 437.541H699.209C698.581 437.541 698.072 438.068 698.072 438.718V501.064H700.368V438.718C700.368 438.068 699.859 437.541 699.232 437.541Z" fill="white"/>
</mask>
<g mask="url(#mask5_1235_18405)">
<path d="M698.072 501.064H695.072C695.072 501.86 695.388 502.623 695.951 503.185C696.513 503.748 697.276 504.064 698.072 504.064V501.064ZM700.368 501.064V504.064C701.164 504.064 701.927 503.748 702.489 503.185C703.052 502.623 703.368 501.86 703.368 501.064H700.368ZM699.232 434.541H699.209V440.541H699.232V434.541ZM699.209 434.541C696.827 434.541 695.072 436.51 695.072 438.718H701.072C701.072 439.626 700.335 440.541 699.209 440.541V434.541ZM695.072 438.718V501.064H701.072V438.718H695.072ZM698.072 504.064H700.368V498.064H698.072V504.064ZM703.368 501.064V438.718H697.368V501.064H703.368ZM703.368 438.718C703.368 436.509 701.612 434.541 699.232 434.541V440.541C698.99 440.544 698.75 440.499 698.525 440.409C698.3 440.319 698.095 440.185 697.922 440.016C697.749 439.846 697.611 439.645 697.516 439.422C697.421 439.199 697.371 438.96 697.368 438.718H703.368Z" fill="#E1E4E5"/>
</g>
</g>
<defs>
<linearGradient id="paint0_linear_1235_18405" x1="470.193" y1="536.151" x2="464.802" y2="-36.0714" gradientUnits="userSpaceOnUse">
<stop stop-color="white"/>
<stop offset="1" stop-color="#EEEEEE"/>
</linearGradient>
<clipPath id="clip0_1235_18405">
<rect width="900" height="600" fill="white"/>
</clipPath>
</defs>
</svg>
