<svg width="900" height="600" viewBox="0 0 900 600" fill="none" xmlns="http://www.w3.org/2000/svg">
<g clip-path="url(#clip0_1235_24522)">
<path d="M778.239 395.362H714.817C699.277 395.362 686.257 384.787 686.257 371.391C686.257 364.694 689.617 358.701 694.657 354.471C699.697 350.241 706.837 347.42 714.817 347.42H724.058C732.038 347.42 739.178 344.6 744.218 340.37C749.258 336.14 752.618 330.147 752.618 323.449C752.618 310.406 740.018 299.479 724.058 299.479H530.344C525.284 299.479 522.032 293.258 522.032 288.198C522.032 275.508 509.852 265.285 494.731 265.285H422.643C420.84 265.254 419.122 264.516 417.858 263.23C416.594 261.945 415.885 260.214 415.885 258.411C415.885 256.608 416.594 254.877 417.858 253.591C419.122 252.305 420.84 251.567 422.643 251.537H698.857C711.037 251.537 722.378 247.306 730.358 240.609C738.338 233.911 743.378 224.393 743.378 214.17C743.378 193.372 723.218 176.804 698.857 176.804H556.196C533.812 176.804 511.655 159.53 489.271 159.53H409.619C397.938 159.53 388.468 150.061 388.468 138.38C388.468 126.698 397.938 117.229 409.619 117.229H587.974C596.374 117.229 604.354 114.409 609.814 109.826C615.275 105.243 618.635 98.8977 618.635 91.4957C618.635 77.3947 604.774 65.7617 587.974 65.7617H176.782C168.382 65.7617 160.402 68.5817 154.942 73.1637C149.482 77.7467 146.122 84.0917 146.122 91.4947C146.122 105.596 159.982 117.229 176.782 117.229H187.283C201.143 117.229 212.903 126.747 212.903 138.732C212.903 144.725 209.963 150.012 205.343 153.89C200.723 157.768 194.423 160.235 187.283 160.235H136.461C127.641 160.235 119.241 163.408 113.361 168.343C107.481 173.278 103.7 179.976 103.7 187.732C103.7 202.89 118.401 214.875 136.041 214.875H187.703C204.503 214.875 218.364 226.508 218.364 240.609C218.364 247.659 215.004 254.004 209.543 258.587C204.083 263.17 196.523 265.99 188.123 265.99H141.921C134.361 265.99 127.641 268.457 122.601 272.687C117.561 276.918 114.621 282.558 114.621 288.903C114.621 301.594 126.801 311.817 141.921 311.817H179.303C200.723 311.817 217.944 326.27 217.944 344.248C217.944 353.061 213.743 361.521 206.603 367.161C199.463 373.154 189.803 376.679 179.303 376.679H127.221C116.721 376.679 107.061 380.204 100.34 386.197C93.2 391.837 89 399.945 89 408.758C89 426.384 106.22 440.837 127.221 440.837H288.04C305.8 440.837 323.247 450.707 341.007 450.707H370.299C381.493 450.707 390.568 459.782 390.568 470.977C390.568 482.171 381.493 491.246 370.299 491.246H299.006C289.766 491.246 281.785 494.419 275.905 499.354C270.025 504.289 266.245 511.34 266.245 518.742C266.245 533.9 280.945 546.238 299.006 546.238H735.818C745.058 546.238 753.038 543.066 758.919 538.131C764.799 533.195 768.579 526.145 768.579 518.742C768.579 503.584 753.878 491.246 735.818 491.246H722.798C709.357 491.246 698.857 482.081 698.857 471.153C698.857 465.513 701.377 460.577 705.997 457.052C710.197 453.527 716.497 451.06 723.218 451.06H778.239C787.479 451.06 795.46 447.887 801.34 442.952C807.22 438.017 811 430.966 811 423.564C811 407.7 796.3 395.362 778.239 395.362Z" fill="url(#paint0_linear_1235_24522)"/>
<path fill-rule="evenodd" clip-rule="evenodd" d="M293.952 220.268C226.898 229.129 175.075 284.189 175.075 351.516C175.075 424.991 236.63 484.574 312.537 484.574H614.955C675.686 484.574 724.925 436.913 724.925 378.128C724.925 319.343 675.686 271.681 614.955 271.681C614.955 183.49 541.11 112.012 450 112.012C377.502 112.012 316.084 157.331 293.952 220.268Z" fill="#4F27AA"/>
<path d="M411.5 281V300M488.5 281V300M517 371C517 371 491.697 396 449.5 396C407.303 396 382 371 382 371" stroke="white" stroke-width="33.453" stroke-linecap="round" stroke-linejoin="round"/>
</g>
<defs>
<linearGradient id="paint0_linear_1235_24522" x1="465.394" y1="815.622" x2="455.534" y2="-457.012" gradientUnits="userSpaceOnUse">
<stop stop-color="white"/>
<stop offset="1" stop-color="#EEEEEE"/>
</linearGradient>
<clipPath id="clip0_1235_24522">
<rect width="900" height="600" fill="white"/>
</clipPath>
</defs>
</svg>
