<svg width="900" height="600" viewBox="0 0 900 600" fill="none" xmlns="http://www.w3.org/2000/svg">
<g clip-path="url(#clip0_1235_24527)">
<mask id="mask0_1235_24527" style="mask-type:alpha" maskUnits="userSpaceOnUse" x="0" y="0" width="900" height="600">
<path d="M0 0H900V600H0V0Z" fill="white"/>
</mask>
<g mask="url(#mask0_1235_24527)">
<path d="M417.878 513.838C575.764 513.838 703.756 507.102 703.756 498.792C703.756 490.482 575.764 483.746 417.878 483.746C259.992 483.746 132 490.482 132 498.792C132 507.102 259.992 513.838 417.878 513.838Z" fill="url(#paint0_linear_1235_24527)"/>
<path d="M166.613 493.426V479.594" stroke="#E1E4E5" stroke-width="4"/>
<path d="M287.906 493.426V479.594" stroke="#E1E4E5" stroke-width="4"/>
<path d="M496.446 493.426V479.594" stroke="#E1E4E5" stroke-width="4"/>
<path d="M670.94 493.426V479.594" stroke="#E1E4E5" stroke-width="4"/>
<path d="M181.509 493.428V483.852" stroke="#E1E4E5" stroke-width="4"/>
<path d="M301.737 493.428V483.852" stroke="#E1E4E5" stroke-width="4"/>
<path d="M511.342 493.428V483.852" stroke="#E1E4E5" stroke-width="4"/>
<path d="M685.835 493.428V483.852" stroke="#E1E4E5" stroke-width="4"/>
<path d="M151.716 493.428V483.852" stroke="#E1E4E5" stroke-width="4"/>
<path d="M273.011 493.428V483.852" stroke="#E1E4E5" stroke-width="4"/>
<path d="M481.55 493.428V483.852" stroke="#E1E4E5" stroke-width="4"/>
<path d="M656.044 493.428V483.852" stroke="#E1E4E5" stroke-width="4"/>
<path d="M487.248 512.158C495.409 509.401 502.483 503.528 506.613 495.996C507.78 493.918 508.733 491.532 508.419 489.17C508.339 488.688 508.217 488.119 507.784 487.894C507.395 487.67 506.869 487.793 506.43 487.917C492.799 491.595 478.387 497.793 464.079 497.139C463.424 497.129 462.77 497.076 462.199 497.329C461.496 497.624 461.05 498.272 460.734 498.966C459.652 501.219 458.714 505.483 459.068 508.02C459.503 511.038 462.421 511.476 464.986 512.126C472.291 513.983 479.964 514.623 487.248 512.158Z" fill="#F8AE9D"/>
<path d="M488.508 495.239C489.606 494.775 490.748 494.312 491.927 494.286C493.106 494.261 494.406 494.892 494.782 496.032C495.032 496.822 494.801 497.648 494.484 498.385C493.626 500.293 492.118 501.841 490.526 503.214C484.423 508.359 476.606 511.471 468.61 511.961C465.071 512.169 461.366 511.851 458.248 510.188C459.805 508.291 459.497 505.58 459.664 503.182C460.164 496.161 466.147 498.828 470.949 498.813C476.975 498.686 482.973 497.512 488.508 495.239Z" fill="#F8AE9D"/>
<path d="M305.87 443.313L305.596 444.095C303.678 449.653 302.194 455.392 301.581 461.276C300.456 472.085 302.578 484.732 310.709 492.582C321.55 503.049 338.943 504.666 353.08 502.175C358.867 501.163 364.315 498.742 368.945 495.126C373.553 499.299 378.503 503.87 382.623 508.516C390.899 505.622 398.776 501.693 406.067 496.825C423.321 504.726 440.919 510.057 459.5 513.918C461.624 508.635 463.114 503.119 463.94 497.485C464.085 496.571 452.505 488.756 451.168 487.644C447.16 484.266 438.809 476.544 438.809 476.544C438.809 476.544 449.334 467.58 453.938 463.372C458.809 458.998 463.481 454.408 467.941 449.616C471.624 445.656 475.224 441.477 477.481 436.535C479.738 431.636 480.568 425.843 478.681 420.751C472.724 404.902 448.674 410.473 437.503 415.935C428.268 420.465 420.179 427.065 412.395 433.756C409.255 436.415 406.158 439.162 403.105 441.865C400.698 439.384 398.04 436.157 395.766 433.547C393.321 430.716 390.524 428.055 387.145 426.388C383.593 424.588 380.315 424.844 376.525 424.306C374.827 424.062 373.176 423.557 371.521 423.27C366.559 422.365 361.306 423.333 356.945 425.886C352.805 428.311 349.444 431.185 344.584 432.115C339.068 433.166 332.661 432.545 327.128 431.806C322.162 431.12 317.116 429.995 312.168 430.968C310.111 431.373 309.325 434.242 308.645 435.891C307.736 438.278 306.781 440.751 305.87 443.313ZM349.705 260.506C349.705 260.506 336.348 258.382 332.761 281.961C328.776 308.173 318.134 303.861 301.234 325.146C291.357 337.583 301.751 359.547 322.873 359.112C343.996 358.687 363.072 352.58 375.222 355.193C387.372 357.805 388.039 326.686 376.051 317.084C364.063 307.483 389.623 279.911 374.048 267.633C358.472 255.355 349.705 260.506 349.705 260.506Z" fill="#2E2445"/>
<path d="M269.867 364.478C268.649 361.975 268.722 359.067 269.162 356.353C271.066 344.706 279.228 334.973 288.584 327.841C297.971 320.69 308.714 315.586 318.59 309.178C321.153 307.509 323.722 305.711 326.665 304.81C329.608 303.908 333.028 304.005 335.458 305.902C337.173 307.234 338.165 309.292 338.742 311.352C340.006 315.861 339.522 320.635 338.75 325.208C337.786 330.977 336.37 336.686 334.046 341.988C332.183 346.265 329.149 350.666 324.591 351.504C323.272 356.615 320.556 361.406 316.747 365.071C312.39 369.273 306.866 372.021 301.133 373.94C295.852 375.712 290.075 376.869 284.762 375.215C281.608 374.252 278.831 372.398 276.114 370.507C273.691 368.897 271.176 367.134 269.867 364.478ZM317.603 356.711L320.72 351.761C320.056 351.83 319.428 351.959 318.795 352.216C317.083 352.957 316.052 355.653 317.603 356.711Z" fill="#2E2445"/>
<path d="M375.382 281.241C375.543 282.117 375.573 283.034 375.513 284.081C375.16 290.195 373.846 296.215 371.619 301.919C370.258 305.303 368.593 308.639 366.237 311.441C365.258 312.604 364.151 313.679 362.704 314.093C361.214 314.507 359.336 314.566 357.857 314.194C356.553 319.587 357.097 329.767 361.753 333.591C363.176 334.748 364.867 335.472 366.56 336.109C369.858 337.381 373.292 338.35 376.729 339.101C380.645 339.946 384.913 340.578 387.663 343.457C388.007 343.812 388.349 344.297 388.211 344.775C388.119 345.079 387.897 345.294 387.633 345.465C385.467 347.222 382.79 348.185 380.113 349.105C375.418 350.692 370.596 352.016 365.694 352.902C360.573 353.828 355.284 354.271 350.098 353.712C346.089 353.259 342.132 352.238 338.493 350.437C334.68 348.546 330.775 347.002 326.83 345.196C323.492 343.661 320.201 341.909 316.587 341.286C318.295 338.038 321.859 336.216 325.408 335.353C328.956 334.534 332.668 334.459 336.258 333.772C337.44 333.528 338.623 333.24 339.638 332.513C342.418 330.504 341.657 326.04 341.701 323.116L341.842 313.864C341.429 309.449 339.608 305.754 338.01 301.714C335.573 295.522 335.068 288.486 337.216 282.146C339.364 275.849 344.249 270.379 350.524 268.161C356.8 265.943 364.333 267.192 369.152 271.805C372.206 274.776 374.698 277.433 375.382 281.241Z" fill="#F8AE9D"/>
<path d="M356.082 261.568C362.337 260.87 368.037 263.933 372.263 268.681C375.818 272.661 377.908 277.915 377.803 283.194C377.788 283.948 377.703 284.77 377.278 285.447C376.148 287.07 373.691 286.473 371.853 285.75C368.859 284.593 366.629 282.902 363.915 281.476C361.2 280.051 357.904 280.259 355.474 278.29C353.18 276.393 345.304 272.395 345.092 269.304C344.824 265.527 351.744 262.441 354.637 261.813C355.051 261.685 355.532 261.626 356.082 261.568Z" fill="#2E2445"/>
<path d="M338.062 270.118C332.773 273.529 330.29 279.505 330.015 285.855C329.774 291.186 331.474 296.579 334.892 300.604C335.38 301.179 335.965 301.762 336.722 302.018C338.624 302.563 340.15 300.547 341.118 298.826C342.708 296.037 343.367 293.318 344.571 290.497C345.774 287.677 348.46 285.756 349.1 282.694C349.679 279.774 353.257 271.699 351.469 269.169C349.289 266.072 341.976 268.054 339.337 269.395C338.935 269.557 338.524 269.815 338.062 270.118Z" fill="#2E2445"/>
<path d="M385.109 342.107C385.944 341.727 386.944 342.004 387.5 342.755C393.74 351.492 396.15 362.442 398.259 372.994C400.652 384.991 402.783 397.028 404.827 409.063C404.948 409.676 405.026 410.332 404.755 410.896C404.485 411.459 403.869 411.755 403.298 412.008C399.692 413.743 396.043 415.434 392.437 417.169C388.546 408.316 385.741 399.025 384.083 389.498C381.768 395.355 377.588 400.443 372.255 403.767C376.228 409.458 381.119 420.838 385.889 425.844C386.619 426.64 391.134 425.399 392.143 425.066C392.77 426.865 389.831 424.943 389.847 426.777C387.134 427.172 383.667 425.548 380.878 425.2C377.523 424.8 374.118 424.792 370.752 425.133C365.155 425.747 359.716 427.498 354.743 430.128C352.271 431.444 349.9 432.94 347.647 434.604C345.704 436.059 340.894 439.478 340.894 439.478C340.541 439.734 338.888 439.36 338.497 439.267C337.356 439.073 336.208 438.924 335.055 438.822C332.162 438.596 329.282 438.217 326.429 437.687C320.727 436.64 315.12 435.027 309.741 432.806C309.223 432.405 311.071 428.592 311.169 427.851C311.072 428.548 300.477 427.689 299.432 427.499C295.255 426.649 291.027 426.192 286.85 425.299C288.721 408.478 293.857 392.23 298.903 376.112C300.877 369.769 302.894 363.426 305.691 357.445C308.669 351.073 312.514 345.108 317.134 339.809C317.267 339.68 317.486 339.596 317.66 339.642C319.878 340.2 333.401 343.679 340.129 346.182C343.558 347.5 347.032 348.688 350.549 349.876C351.939 350.334 353.373 350.792 354.814 350.77C355.775 350.741 356.738 350.538 357.658 350.333C367.031 348.249 376.407 345.991 385.109 342.107Z" fill="#4F27AA"/>
<path d="M324.1 375.621C323.714 378.016 323.197 380.452 322.68 382.845C321.423 388.275 319.811 393.617 317.854 398.836C316.854 401.44 315.811 404 314.637 406.557C314.054 407.823 313.453 409.08 312.834 410.328C312.519 410.934 312.204 411.584 311.889 412.19C311.619 412.71 311.306 413.185 311.037 413.661C312.915 413.603 322.183 414.137 324.102 414.297" stroke="white" stroke-width="1.376" stroke-miterlimit="10" stroke-linecap="round"/>
<path d="M324.402 416.179C324.208 417.405 323.97 418.625 323.691 419.835L322.85 423.489C322.572 424.532 321.941 425.832 321.925 426.923C321.928 426.705 329.359 426.076 330.058 425.999C337.796 425.244 345.573 424.794 353.307 424.301C358.332 423.984 363.263 424.103 368.282 424.135C369.766 424.158 371.514 424.01 372.318 422.8C372.989 421.762 372.441 420.444 372.98 419.492C373.327 419.585 377.372 420.607 377.329 420.519C377.49 421.438 377.81 423.363 378.763 423.814C379.111 423.951 379.459 424 379.808 424.005C380.332 424.013 380.857 423.934 381.382 423.854C381.463 423.854 381.541 423.824 381.601 423.77C381.69 423.684 381.605 423.552 381.519 423.42C380.329 421.66 379.706 419.579 379.733 417.456C378.48 416.608 377.229 415.628 376.154 414.564C375.294 413.678 374.657 412.533 373.708 411.777C372.717 410.933 371.749 411.442 370.653 411.731C369.383 412.017 368.112 412.347 366.884 412.721C364.472 413.47 362.057 414.394 360.026 415.891C359.32 416.404 358.657 416.961 357.823 417.21C357.034 417.46 356.161 417.447 355.332 417.435C350.226 417.313 345.123 417.061 340.068 416.504C334.882 415.945 331.345 416.022 324.551 415.003C324.55 415.046 324.544 415.439 324.402 416.179Z" fill="#F8AE9D"/>
<path d="M380.626 375.137C381.846 380.413 382.727 385.741 383.322 391.178" stroke="white" stroke-width="1.376" stroke-miterlimit="10" stroke-linecap="round"/>
<path d="M483.566 366.433L468.582 433.255L354.808 431.526C354.867 427.599 358.102 424.417 362.074 424.478L389.263 424.891L402.812 363.416C403.235 361.415 405.046 360.002 407.054 360.032L479.412 361.131C482.161 361.217 484.174 363.736 483.566 366.433Z" fill="#2E2445"/>
<path d="M334.939 529.705C335.465 526.658 336.953 523.537 338.348 520.809C344.105 509.634 354.396 501.758 365.478 496.339C366.622 495.789 367.765 495.239 368.95 494.82C368.861 494.95 368.771 495.08 368.681 495.253V495.296H368.637C368.769 495.21 368.858 495.125 368.99 495.039C373.469 499.08 378.247 503.517 382.326 507.988C379.63 510.173 375.718 511.947 373.775 513.402C369.184 516.781 364.764 520.38 360.001 523.538C353.606 527.85 346.793 530.977 339.177 532.345C336.244 532.868 334.708 533.412 334.742 531.143C334.791 530.795 334.842 530.315 334.939 529.705Z" fill="#F8AE9D"/>
<path d="M342.365 520.911C345.331 515.325 349.935 511.073 354.968 507.309C358.501 504.656 362.248 502.268 365.82 499.834C366.835 499.151 368.827 497.304 370.543 496.414C374.117 499.655 377.775 503.072 381.083 506.614C370.156 513.258 360.421 521.927 348.433 526.634C347.335 527.054 346.194 527.473 345.015 527.499C343.836 527.525 342.577 527.026 341.894 526.055C340.825 524.555 341.511 522.513 342.365 520.911Z" fill="#F8AE9D"/>
<path d="M487.407 156.669C530.157 94.9986 614.806 79.6586 676.477 122.408C738.148 165.158 753.487 249.807 710.738 311.478C667.989 373.15 583.339 388.489 521.668 345.739C459.997 302.99 444.658 218.34 487.407 156.669Z" fill="#4F27AA"/>
<path d="M521.354 315.917C522.363 317.76 521.072 320.019 518.972 320.085L446.709 322.338C444.451 322.409 443.033 319.925 444.242 318.016L483.662 255.79C484.81 253.978 487.481 254.063 488.512 255.945L521.354 315.917Z" fill="#4F27AA"/>
<path d="M640.968 239.624C641.145 249.692 649.447 257.677 659.515 257.5C669.584 257.323 677.568 249.021 677.391 238.953C677.215 228.885 668.913 220.901 658.844 221.077C648.776 221.289 640.792 229.556 640.968 239.624ZM577.697 242.307C578.722 252.305 587.695 259.582 597.692 258.558C607.69 257.533 614.968 248.56 613.943 238.562C612.919 228.565 603.945 221.287 593.948 222.312C583.95 223.372 576.673 232.31 577.697 242.307ZM518.205 243.403C519.229 253.401 528.203 260.678 538.2 259.654C548.198 258.629 555.475 249.656 554.451 239.658C553.426 229.661 544.453 222.383 534.456 223.408C524.458 224.432 517.18 233.37 518.205 243.403Z" fill="white"/>
</g>
</g>
<defs>
<linearGradient id="paint0_linear_1235_24527" x1="430.069" y1="530.71" x2="430.02" y2="451" gradientUnits="userSpaceOnUse">
<stop stop-color="white"/>
<stop offset="1" stop-color="#EEEEEE"/>
</linearGradient>
<clipPath id="clip0_1235_24527">
<rect width="900" height="600" fill="white"/>
</clipPath>
</defs>
</svg>
