<svg width="900" height="600" viewBox="0 0 900 600" fill="none" xmlns="http://www.w3.org/2000/svg">
<g clip-path="url(#clip0_1235_24575)">
<path d="M740.915 373.602H684.608C670.811 373.602 659.251 364.182 659.251 352.249C659.251 346.283 662.234 340.945 666.709 337.177C671.184 333.409 677.523 330.897 684.608 330.897H692.812C699.896 330.897 706.236 328.384 710.71 324.616C715.185 320.848 718.168 315.51 718.168 309.544C718.168 297.925 706.981 288.191 692.812 288.191H520.862C516.352 288.191 513.451 282.653 513.451 278.142C513.451 266.838 502.637 257.731 489.213 257.731H425.233C423.609 257.731 422.052 257.086 420.903 255.938C419.755 254.789 419.11 253.232 419.11 251.608C419.11 249.984 419.755 248.427 420.903 247.278C422.052 246.13 423.609 245.485 425.233 245.485H670.438C681.252 245.485 691.32 241.717 698.405 235.751C705.49 229.784 709.965 221.306 709.965 212.2C709.965 193.673 692.066 178.914 670.438 178.914H543.814C523.926 178.914 504.253 163.528 484.365 163.528H413.712C403.307 163.528 394.871 155.092 394.871 144.687C394.871 134.281 403.307 125.846 413.712 125.846H571.995C579.453 125.846 586.538 123.334 591.385 119.252C596.233 115.169 599.216 109.517 599.216 102.923C599.216 90.363 586.91 80 571.995 80H206.934C199.476 80 192.392 82.512 187.544 86.594C182.696 90.676 179.713 96.329 179.713 102.923C179.713 115.483 192.019 125.846 206.934 125.846H216.257C228.562 125.846 239.003 134.324 239.003 145.001C239.003 150.339 236.393 155.049 232.291 158.503C228.189 161.957 222.596 164.156 216.257 164.156H171.137C163.306 164.156 155.848 166.982 150.628 171.378C145.407 175.774 142.051 181.74 142.051 188.649C142.051 202.151 155.102 212.828 170.764 212.828H216.629C231.545 212.828 243.85 223.19 243.85 235.751C243.85 242.031 240.867 247.683 236.02 251.765C231.172 255.847 224.46 258.359 217.002 258.359H175.984C169.272 258.359 163.306 260.558 158.831 264.326C154.357 268.094 151.746 273.118 151.746 278.77C151.746 290.075 162.56 299.181 175.984 299.181H209.172C228.189 299.181 243.478 312.056 243.478 328.07C243.478 335.921 239.749 343.457 233.41 348.481C227.07 353.82 218.494 356.96 209.172 356.96H162.933C153.611 356.96 145.034 360.1 139.068 365.438C132.729 370.462 129 377.685 129 385.535C129 401.236 144.289 414.11 162.933 414.11H305.696C321.47 414.11 336.961 422.902 352.735 422.902H378.68C388.652 422.902 396.736 430.986 396.736 440.958C396.736 450.93 388.652 459.014 378.68 459.014H315.446C307.242 459.014 300.157 461.84 294.937 466.236C289.716 470.632 286.36 476.913 286.36 483.507C286.36 497.01 299.411 508 315.446 508H703.253C711.456 508 718.541 505.174 723.762 500.778C728.982 496.382 732.338 490.101 732.338 483.507C732.338 470.004 719.287 459.014 703.253 459.014H691.693C679.76 459.014 670.438 450.85 670.438 441.115C670.438 436.091 672.675 431.695 676.777 428.555C680.506 425.415 686.099 423.216 692.066 423.216H740.915C749.118 423.216 756.203 420.39 761.424 415.994C766.644 411.598 770 405.318 770 398.723C770 384.593 756.949 373.602 740.915 373.602Z" fill="url(#paint0_linear_1235_24575)"/>
<path d="M460.906 415.652L479.247 501.91M439.001 415.652L420.66 501.91M369.464 510.546H529.702" stroke="#4F27AA" stroke-width="17.25" stroke-linecap="round" stroke-linejoin="round"/>
<path fill-rule="evenodd" clip-rule="evenodd" d="M609.524 458.28H289.79C254.479 458.28 225.858 429.659 225.858 394.348V174.08C225.858 138.769 254.479 110.148 289.79 110.148H609.499C644.835 110.148 673.456 138.769 673.456 174.08V394.323C673.456 429.659 644.835 458.28 609.524 458.28Z" fill="#4F27AA"/>
<path d="M550 293.729C550 238.35 505.107 193.457 449.729 193.457C394.35 193.457 349.457 238.35 349.457 293.729C349.457 349.107 394.35 394 449.729 394C505.107 394 550 349.107 550 293.729Z" fill="white"/>
<path fill-rule="evenodd" clip-rule="evenodd" d="M495.302 335.792V342.497C495.302 346.198 492.338 349.202 488.685 349.202H409.286C405.633 349.202 402.669 346.198 402.669 342.497V335.685C402.669 315.396 425.55 302.214 448.986 302.214C472.422 302.214 495.302 315.402 495.302 335.685M465.592 243.311C474.767 252.486 474.767 267.362 465.592 276.537C456.417 285.711 441.542 285.711 432.367 276.537C423.192 267.362 423.192 252.486 432.367 243.311C441.542 234.136 456.417 234.136 465.592 243.311Z" fill="#4F27AA"/>
</g>
<defs>
<linearGradient id="paint0_linear_1235_24575" x1="463.167" y1="747.961" x2="454.355" y2="-385.676" gradientUnits="userSpaceOnUse">
<stop stop-color="white"/>
<stop offset="1" stop-color="#EEEEEE"/>
</linearGradient>
<clipPath id="clip0_1235_24575">
<rect width="900" height="600" fill="white"/>
</clipPath>
</defs>
</svg>
