<svg width="900" height="600" viewBox="0 0 900 600" fill="none" xmlns="http://www.w3.org/2000/svg">
<g clip-path="url(#clip0_1235_24582)">
<path d="M743.764 391.308H687.01C673.104 391.308 661.453 381.843 661.453 369.854C661.453 363.86 664.459 358.497 668.97 354.711C673.48 350.925 679.869 348.401 687.01 348.401H695.279C702.42 348.401 708.81 345.877 713.32 342.091C717.83 338.305 720.837 332.942 720.837 326.947C720.837 315.274 709.562 305.494 695.279 305.494H521.935C517.406 305.494 514.495 299.927 514.495 295.398C514.495 284.041 503.595 274.891 490.065 274.891H425.557C424.749 274.891 423.949 274.732 423.203 274.423C422.456 274.114 421.778 273.661 421.207 273.089C420.636 272.518 420.182 271.84 419.873 271.093C419.564 270.347 419.405 269.547 419.405 268.739C419.405 267.931 419.564 267.131 419.873 266.385C420.182 265.639 420.636 264.96 421.207 264.389C421.778 263.818 422.456 263.365 423.203 263.056C423.949 262.746 424.749 262.587 425.557 262.587H672.728C683.628 262.587 693.776 258.801 700.917 252.807C708.058 246.813 712.568 238.294 712.568 229.145C712.568 210.531 694.527 195.703 672.728 195.703H545.068C525.037 195.703 505.21 180.244 485.179 180.244H413.904C403.45 180.244 394.975 171.769 394.975 161.314C394.975 150.86 403.45 142.385 413.904 142.385H573.504C581.021 142.385 588.162 139.861 593.048 135.76C597.934 131.658 600.941 125.979 600.941 119.354C600.941 106.734 588.538 96.3242 573.504 96.3242H205.546C198.029 96.3242 190.888 98.8472 186.002 102.948C181.116 107.05 178.109 112.729 178.109 119.354C178.109 131.974 190.512 142.385 205.546 142.385H214.942C227.345 142.385 237.869 150.903 237.869 161.63C237.869 166.993 235.238 171.726 231.104 175.196C226.97 178.666 221.332 180.875 214.942 180.875H169.465C161.572 180.875 154.055 183.714 148.793 188.131C143.531 192.548 140.148 198.542 140.148 205.483C140.148 219.049 153.303 229.776 169.089 229.776H215.318C230.352 229.776 242.755 240.187 242.755 252.807C242.755 259.117 239.749 264.796 234.862 268.897C229.976 272.998 223.211 275.522 215.694 275.522H174.351C167.585 275.522 161.572 277.731 157.061 281.517C152.551 285.303 149.92 290.35 149.92 296.029C149.92 307.387 160.82 316.536 174.351 316.536H207.801C226.97 316.536 242.379 329.471 242.379 345.561C242.379 353.449 238.621 361.021 232.232 366.068C225.842 371.432 217.198 374.587 207.801 374.587H161.196C151.8 374.587 143.155 377.742 137.141 383.105C130.752 388.153 126.993 395.409 126.993 403.296C126.993 419.071 142.403 432.006 161.196 432.006H305.105C320.998 432.006 336.611 440.84 352.504 440.84H378.713C388.732 440.84 396.854 448.962 396.854 458.981C396.854 469 388.732 477.121 378.713 477.121H314.919C306.65 477.121 299.509 479.961 294.247 484.378C288.985 488.795 285.602 495.104 285.602 501.73C285.602 515.296 298.757 526.338 314.919 526.338H705.803C714.072 526.338 721.213 523.499 726.475 519.082C731.737 514.665 735.119 508.355 735.119 501.73C735.119 488.164 721.965 477.121 705.803 477.121H694.152C682.124 477.121 672.728 468.919 672.728 459.138C672.728 454.091 674.983 449.674 679.118 446.519C682.876 443.364 688.514 441.155 694.528 441.155H743.764C752.033 441.155 759.174 438.316 764.436 433.899C769.698 429.482 773.08 423.172 773.08 416.547C773.08 402.35 759.925 391.308 743.764 391.308Z" fill="url(#paint0_linear_1235_24582)"/>
<path d="M788.218 355.357C778.647 360.105 765.943 354 765.943 354C765.943 354 768.766 340.199 778.343 335.458C787.914 330.71 800.613 336.808 800.613 336.808C800.613 336.808 797.79 350.609 788.218 355.357Z" fill="url(#paint1_linear_1235_24582)"/>
<path d="M118.278 350.446C132.255 358.822 152.307 351.079 152.307 351.079C152.307 351.079 149.685 329.757 135.7 321.39C121.723 313.013 101.68 320.747 101.68 320.747C101.68 320.747 104.302 342.069 118.278 350.446Z" fill="url(#paint2_linear_1235_24582)"/>
<path d="M754.5 208C750.91 208 748 210.91 748 214.5C748 218.09 750.91 221 754.5 221C758.09 221 761 218.09 761 214.5C761 210.91 758.09 208 754.5 208Z" fill="#4F27AA"/>
<path d="M330.157 243.874C323.405 243.874 317.932 249.348 317.932 256.099C317.932 262.851 323.405 268.324 330.157 268.324C336.909 268.324 342.382 262.851 342.382 256.099C342.382 249.348 336.909 243.874 330.157 243.874Z" fill="#4F27AA"/>
<path d="M216.53 477.623C211.171 477.623 206.826 473.278 206.826 467.919C206.826 462.559 211.171 458.215 216.53 458.215C221.889 458.215 226.234 462.559 226.234 467.919C226.234 473.278 221.889 477.623 216.53 477.623Z" fill="#4F27AA"/>
<path d="M726.361 289.197C722.773 289.197 719.864 286.288 719.864 282.7C719.864 279.112 722.773 276.203 726.361 276.203C729.949 276.203 732.858 279.112 732.858 282.7C732.858 286.288 729.949 289.197 726.361 289.197Z" fill="#4F27AA"/>
<path d="M110.441 485.331C103.777 485.331 98.375 479.929 98.375 473.265C98.375 466.601 103.777 461.199 110.441 461.199C117.105 461.199 122.507 466.601 122.507 473.265C122.507 479.929 117.105 485.331 110.441 485.331Z" fill="#E1E4E5"/>
<path d="M764.181 487.366C759.109 487.366 754.998 483.255 754.998 478.183C754.998 473.111 759.109 469 764.181 469C769.253 469 773.364 473.111 773.364 478.183C773.364 483.255 769.253 487.366 764.181 487.366Z" fill="#E1E4E5"/>
<path d="M663.286 157.727C656.911 157.727 651.743 152.559 651.743 146.184C651.743 139.809 656.911 134.641 663.286 134.641C669.661 134.641 674.829 139.809 674.829 146.184C674.829 152.559 669.661 157.727 663.286 157.727Z" fill="#E1E4E5"/>
<path d="M209.879 253.129C211.19 258.02 208.287 263.047 203.396 264.358C198.506 265.668 193.478 262.766 192.168 257.875C190.857 252.984 193.76 247.957 198.651 246.647C203.541 245.336 208.569 248.239 209.879 253.129Z" fill="#E1E4E5"/>
<path d="M375.014 115.292C368.278 115.292 362.817 109.832 362.817 103.095C362.817 96.3592 368.278 90.8984 375.014 90.8984C381.75 90.8984 387.211 96.3592 387.211 103.095C387.211 109.832 381.75 115.292 375.014 115.292Z" fill="#E1E4E5"/>
<path d="M710.086 375.301C704.904 375.301 700.704 371.941 700.704 367.795C700.704 363.65 704.904 360.289 710.086 360.289C715.268 360.289 719.468 363.65 719.468 367.795C719.468 371.941 715.268 375.301 710.086 375.301Z" fill="#E1E4E5"/>
<path d="M601.323 82.4288C604.051 92.6078 598.01 103.071 587.831 105.798C577.652 108.526 567.189 102.485 564.461 92.3058C561.734 82.1268 567.775 71.6639 577.954 68.9365C588.133 66.209 598.596 72.2497 601.323 82.4288Z" fill="#E1E4E5"/>
<path d="M217.018 152.734H217.152C217.943 163.948 226.282 164.121 226.282 164.121C226.282 164.121 217.086 164.3 217.086 177.257C217.086 164.3 207.89 164.121 207.89 164.121C207.89 164.121 216.226 163.948 217.018 152.734ZM225.169 512.499H225.297C226.057 523.679 234.063 523.852 234.063 523.852C234.063 523.852 225.234 524.031 225.234 536.949C225.234 524.031 216.405 523.852 216.405 523.852C216.405 523.852 224.409 523.679 225.169 512.499Z" fill="#E1E4E5"/>
<path fill-rule="evenodd" clip-rule="evenodd" d="M611.936 232.872V186.399C611.936 160.733 591.129 139.926 565.462 139.926H333.097C307.43 139.926 286.624 160.733 286.624 186.399V302.582" fill="white"/>
<path d="M611.936 232.872V186.399C611.936 160.733 591.129 139.926 565.462 139.926H333.097C307.43 139.926 286.624 160.733 286.624 186.399V302.582" stroke="#E1E4E5" stroke-width="4.789"/>
<path fill-rule="evenodd" clip-rule="evenodd" d="M286.624 240.999H436.849C440.673 241 444.439 240.056 447.811 238.252C451.183 236.449 454.058 233.84 456.181 230.659L488.782 181.653C490.909 178.458 493.794 175.838 497.18 174.03C500.565 172.221 504.346 171.28 508.185 171.289H611.936C637.602 171.289 658.409 192.096 658.409 217.762V450.128C658.409 475.794 637.602 496.601 611.936 496.601H286.624C260.958 496.601 240.151 475.794 240.151 450.128V287.472C240.151 261.806 260.958 240.999 286.624 240.999Z" fill="#4F27AA"/>
<path d="M413.303 311.488V329.794M486.534 311.488V329.794M513.996 397.308C513.996 397.308 489.978 421.327 449.923 421.327C409.869 421.327 385.851 397.308 385.851 397.308" stroke="white" stroke-width="25.788" stroke-linecap="round" stroke-linejoin="round"/>
</g>
<defs>
<linearGradient id="paint0_linear_1235_24582" x1="463.813" y1="767.429" x2="454.987" y2="-371.546" gradientUnits="userSpaceOnUse">
<stop stop-color="white"/>
<stop offset="1" stop-color="#EEEEEE"/>
</linearGradient>
<linearGradient id="paint1_linear_1235_24582" x1="751.463" y1="370.167" x2="830.409" y2="307.72" gradientUnits="userSpaceOnUse">
<stop stop-color="white"/>
<stop offset="1" stop-color="#EEEEEE"/>
</linearGradient>
<linearGradient id="paint2_linear_1235_24582" x1="172.364" y1="377.41" x2="59.903" y2="272.919" gradientUnits="userSpaceOnUse">
<stop stop-color="white"/>
<stop offset="1" stop-color="#EEEEEE"/>
</linearGradient>
<clipPath id="clip0_1235_24582">
<rect width="900" height="600" fill="white"/>
</clipPath>
</defs>
</svg>
