<svg width="900" height="600" viewBox="0 0 900 600" fill="none" xmlns="http://www.w3.org/2000/svg">
<g clip-path="url(#clip0_1235_24622)">
<path d="M461.515 411.596C410.557 372.614 333.56 365.735 273.415 390.959C256.861 397.88 237.468 388.434 237.468 372.825V134.829C237.468 122.059 244.314 109.815 256.288 102.031C318.25 61.7031 405.578 66.4991 461.515 116.421C517.452 66.4991 604.781 61.7031 666.742 102.053C678.716 109.836 685.562 122.08 685.562 134.829V372.803C685.562 388.413 666.17 397.88 649.615 390.938C589.471 365.735 512.474 372.614 461.515 411.596Z" stroke="#E1E4E5" stroke-width="10" stroke-linecap="round" stroke-linejoin="round"/>
<path d="M237.468 212.794V450.68C237.468 466.283 256.861 475.724 273.415 468.806C333.56 443.594 410.557 450.47 461.515 489.434C512.474 450.47 589.471 443.594 649.615 468.785C666.17 475.724 685.562 466.262 685.562 450.659V212.794M461.515 411.596V116.023" stroke="#E1E4E5" stroke-width="10" stroke-linecap="round" stroke-linejoin="round"/>
<path fill-rule="evenodd" clip-rule="evenodd" d="M516.035 353.093L551.976 280.213L461.807 148.629L371.616 280.213L407.556 353.093" fill="#4F27AA"/>
<path d="M516.035 353.093L551.976 280.213L461.807 148.629L371.616 280.213L407.556 353.093" stroke="white" stroke-width="14.86" stroke-linecap="round" stroke-linejoin="round"/>
<path fill-rule="evenodd" clip-rule="evenodd" d="M407.028 353.324H516.386V416.242H407.028V353.324Z" fill="#4F27AA" stroke="white" stroke-width="14.86" stroke-linecap="round" stroke-linejoin="round"/>
<path d="M461.779 278.578V148.629" stroke="white" stroke-width="14.86" stroke-linecap="round" stroke-linejoin="round"/>
<path d="M766.076 251.898C738.493 265.581 701.883 247.988 701.883 247.988C701.883 247.988 710.02 208.218 737.617 194.554C765.2 180.871 801.796 198.446 801.796 198.446C801.796 198.446 793.659 238.215 766.076 251.898Z" fill="url(#paint0_linear_1235_24622)"/>
<path d="M296.764 243.914C312.734 253.485 335.645 244.637 335.645 244.637C335.645 244.637 332.649 220.275 316.67 210.715C300.7 201.143 277.799 209.98 277.799 209.98C277.799 209.98 280.795 234.343 296.764 243.914Z" fill="url(#paint1_linear_1235_24622)"/>
<path d="M723.764 347.433C715.446 347.433 708.703 354.176 708.703 362.494C708.703 370.812 715.446 377.555 723.764 377.555C732.082 377.555 738.825 370.812 738.825 362.494C738.825 354.176 732.082 347.433 723.764 347.433Z" fill="#4F27AA"/>
<path d="M190.962 253.817C184.115 253.817 178.564 259.368 178.564 266.215C178.564 273.063 184.115 278.613 190.962 278.613C197.809 278.613 203.36 273.063 203.36 266.215C203.36 259.368 197.809 253.817 190.962 253.817Z" fill="#4F27AA"/>
<path d="M209.678 425.119C201.88 425.119 195.558 418.797 195.558 410.999C195.558 403.201 201.88 396.879 209.678 396.879C217.476 396.879 223.798 403.201 223.798 410.999C223.798 418.797 217.476 425.119 209.678 425.119Z" fill="#4F27AA"/>
<path d="M626.936 231.233C623.297 231.233 620.347 228.283 620.347 224.644C620.347 221.005 623.297 218.055 626.936 218.055C630.575 218.055 633.525 221.005 633.525 224.644C633.525 228.283 630.575 231.233 626.936 231.233Z" fill="#4F27AA"/>
<path d="M203.866 101.413C199.187 101.413 195.394 97.6197 195.394 92.9408C195.394 88.2618 199.187 84.4688 203.866 84.4688C208.545 84.4688 212.338 88.2618 212.338 92.9408C212.338 97.6197 208.545 101.413 203.866 101.413Z" fill="#E1E4E5"/>
<path d="M98.237 393.997C91.4787 393.997 86 388.519 86 381.76C86 375.002 91.4787 369.523 98.237 369.523C104.995 369.523 110.474 375.002 110.474 381.76C110.474 388.519 104.995 393.997 98.237 393.997Z" fill="#E1E4E5"/>
<path d="M573 505.813C567.857 505.813 563.687 501.644 563.687 496.5C563.687 491.357 567.857 487.188 573 487.188C578.143 487.188 582.313 491.357 582.313 496.5C582.313 501.644 578.143 505.813 573 505.813Z" fill="#E1E4E5"/>
<path d="M615.975 153.56C610.257 153.56 605.621 148.924 605.621 143.206C605.621 137.487 610.257 132.852 615.975 132.852C621.693 132.852 626.329 137.487 626.329 143.206C626.329 148.924 621.693 153.56 615.975 153.56Z" fill="#E1E4E5"/>
<path d="M130.562 213.36C131.891 218.32 128.947 223.418 123.987 224.747C119.027 226.076 113.929 223.133 112.6 218.173C111.271 213.212 114.214 208.114 119.174 206.785C124.134 205.456 129.233 208.399 130.562 213.36Z" fill="#E1E4E5"/>
<path d="M331.883 148.127C325.051 148.127 319.513 142.588 319.513 135.757C319.513 128.925 325.051 123.387 331.883 123.387C338.715 123.387 344.253 128.925 344.253 135.757C344.253 142.588 338.715 148.127 331.883 148.127Z" fill="#E1E4E5"/>
<path d="M784.486 452.064C779.231 452.064 774.971 448.656 774.971 444.452C774.971 440.248 779.231 436.84 784.486 436.84C789.741 436.84 794.001 440.248 794.001 444.452C794.001 448.656 789.741 452.064 784.486 452.064Z" fill="#E1E4E5"/>
<path d="M367.165 495.503C369.931 505.826 363.804 516.437 353.481 519.203C343.158 521.969 332.547 515.843 329.781 505.52C327.015 495.197 333.141 484.586 343.465 481.82C353.788 479.054 364.399 485.18 367.165 495.503Z" fill="#E1E4E5"/>
<path d="M651.021 287.477H651.269C652.743 308.361 668.275 308.683 668.275 308.683C668.275 308.683 651.148 309.017 651.148 333.149C651.148 309.017 634.021 308.683 634.021 308.683C634.021 308.683 649.546 308.361 651.021 287.477ZM149.815 458.421H149.945C150.716 469.759 158.836 469.934 158.836 469.934C158.836 469.934 149.882 470.116 149.882 483.217C149.882 470.116 140.927 469.934 140.927 469.934C140.927 469.934 149.044 469.759 149.815 458.421Z" fill="#E1E4E5"/>
</g>
<defs>
<linearGradient id="paint0_linear_1235_24622" x1="660.154" y1="294.578" x2="887.66" y2="114.62" gradientUnits="userSpaceOnUse">
<stop stop-color="white"/>
<stop offset="1" stop-color="#EEEEEE"/>
</linearGradient>
<linearGradient id="paint1_linear_1235_24622" x1="358.562" y1="274.723" x2="230.066" y2="155.333" gradientUnits="userSpaceOnUse">
<stop stop-color="white"/>
<stop offset="1" stop-color="#EEEEEE"/>
</linearGradient>
<clipPath id="clip0_1235_24622">
<rect width="900" height="600" fill="white"/>
</clipPath>
</defs>
</svg>
