<svg width="900" height="600" viewBox="0 0 900 600" fill="none" xmlns="http://www.w3.org/2000/svg">
<g clip-path="url(#clip0_1235_24645)">
<path d="M625.862 202.564C621.095 205.156 615.833 202.612 608.437 196.894C602.876 192.592 597.754 188.748 593.864 181.79C591.14 176.921 589.782 171.799 589.255 167.323C588.684 162.474 587.371 156.523 591.442 153.996C597.035 150.524 613.805 155.191 623.168 170.716C633.452 187.773 630.522 200.031 625.862 202.564Z" fill="url(#paint0_linear_1235_24645)"/>
<path d="M743.797 277.705C729.773 284.662 711.16 275.717 711.16 275.717C711.16 275.717 715.297 255.497 729.328 248.55C743.352 241.593 761.958 250.528 761.958 250.528C761.958 250.528 757.821 270.748 743.797 277.705Z" fill="url(#paint1_linear_1235_24645)"/>
<path d="M151.122 224.199C159.007 228.924 170.319 224.556 170.319 224.556C170.319 224.556 168.839 212.528 160.95 207.808C153.066 203.083 141.759 207.445 141.759 207.445C141.759 207.445 143.238 219.474 151.122 224.199Z" fill="url(#paint2_linear_1235_24645)"/>
<path d="M181.232 346.031C175.472 346.031 170.802 350.7 170.802 356.461C170.802 362.221 175.472 366.891 181.232 366.891C186.992 366.891 191.662 362.221 191.662 356.461C191.662 350.7 186.992 346.031 181.232 346.031Z" fill="#4F27AA"/>
<path d="M587.449 411.455C576.398 411.455 567.44 420.413 567.44 431.464C567.44 442.514 576.398 451.473 587.449 451.473C598.5 451.473 607.458 442.514 607.458 431.464C607.458 420.413 598.5 411.455 587.449 411.455Z" fill="#4F27AA"/>
<path d="M349.023 200.465C343.227 200.465 338.529 205.163 338.529 210.959C338.529 216.755 343.227 221.453 349.023 221.453C354.819 221.453 359.517 216.755 359.517 210.959C359.517 205.163 354.819 200.465 349.023 200.465Z" fill="#4F27AA"/>
<path d="M255.954 410.613C249.354 410.613 244.003 405.262 244.003 398.662C244.003 392.062 249.354 386.711 255.954 386.711C262.554 386.711 267.905 392.062 267.905 398.662C267.905 405.262 262.554 410.613 255.954 410.613Z" fill="#4F27AA"/>
<path d="M736.459 332.154C733.379 332.154 730.882 329.657 730.882 326.577C730.882 323.497 733.379 321 736.459 321C739.539 321 742.036 323.497 742.036 326.577C742.036 329.657 739.539 332.154 736.459 332.154Z" fill="#4F27AA"/>
<path d="M696.809 477.065C692.849 477.065 689.638 473.854 689.638 469.894C689.638 465.933 692.849 462.723 696.809 462.723C700.769 462.723 703.98 465.933 703.98 469.894C703.98 473.854 700.769 477.065 696.809 477.065Z" fill="#E1E4E5"/>
<path d="M215.052 433.63C209.331 433.63 204.694 428.993 204.694 423.272C204.694 417.551 209.331 412.914 215.052 412.914C220.772 412.914 225.41 417.551 225.41 423.272C225.41 428.993 220.772 433.63 215.052 433.63Z" fill="#E1E4E5"/>
<path d="M862.43 371.985C858.076 371.985 854.547 368.455 854.547 364.102C854.547 359.748 858.076 356.219 862.43 356.219C866.784 356.219 870.313 359.748 870.313 364.102C870.313 368.455 866.784 371.985 862.43 371.985Z" fill="#E1E4E5"/>
<path d="M639.249 160.389C636.719 160.389 634.668 158.338 634.668 155.808C634.668 153.278 636.719 151.227 639.249 151.227C641.779 151.227 643.83 153.278 643.83 155.808C643.83 158.338 641.779 160.389 639.249 160.389Z" fill="#E1E4E5"/>
<path d="M208.714 249.301C209.839 253.5 207.348 257.815 203.15 258.94C198.951 260.065 194.636 257.574 193.511 253.375C192.386 249.177 194.877 244.861 199.076 243.737C203.274 242.612 207.59 245.103 208.714 249.301Z" fill="#E1E4E5"/>
<path d="M310.415 197.861C308.606 197.861 307.139 196.394 307.139 194.585C307.139 192.775 308.606 191.309 310.415 191.309C312.224 191.309 313.691 192.775 313.691 194.585C313.691 196.394 312.224 197.861 310.415 197.861Z" fill="#E1E4E5"/>
<path d="M723.291 393.335C718.843 393.335 715.237 390.451 715.237 386.892C715.237 383.334 718.843 380.449 723.291 380.449C727.739 380.449 731.345 383.334 731.345 386.892C731.345 390.451 727.739 393.335 723.291 393.335Z" fill="#E1E4E5"/>
<path d="M517.741 115.503C518.556 118.542 516.752 121.666 513.713 122.48C510.674 123.295 507.55 121.491 506.736 118.452C505.921 115.413 507.725 112.289 510.764 111.475C513.803 110.66 516.927 112.464 517.741 115.503Z" fill="#E1E4E5"/>
<path d="M286.345 143.211H286.46C287.139 152.837 294.298 152.985 294.298 152.985C294.298 152.985 286.404 153.139 286.404 164.262C286.404 153.139 278.509 152.985 278.509 152.985C278.509 152.985 285.665 152.837 286.345 143.211ZM271.179 470.005H271.289C271.941 479.603 278.815 479.75 278.815 479.75C278.815 479.75 271.235 479.904 271.235 490.994C271.235 479.904 263.656 479.75 263.656 479.75C263.656 479.75 270.527 479.603 271.179 470.005Z" fill="#E1E4E5"/>
<path fill-rule="evenodd" clip-rule="evenodd" d="M221.68 342.128C221.68 283.565 266.52 235.673 324.538 227.965C343.687 173.221 396.829 133.801 459.557 133.801C507.818 133.801 550.48 157.104 576.311 192.778L576.032 193.051L319.731 449.353C318.015 451.064 316.646 453.089 315.697 455.319C261.98 444.17 221.68 397.72 221.68 342.128ZM364.704 457.865H602.283C654.83 457.865 697.433 416.408 697.433 365.275C697.433 314.143 654.83 272.686 602.283 272.686C602.283 257.006 599.613 241.934 594.693 227.877L364.704 457.865ZM105.416 310.313H175.187C181.425 310.313 184.112 302.097 179.008 298.453C178.936 298.401 178.864 298.349 178.792 298.298C171.524 293.217 161.985 293.679 161.985 293.679C161.985 293.679 160.624 266.185 134.96 266.185C111.757 266.185 102.504 289.35 99.167 302.113C98.083 306.259 101.198 310.313 105.416 310.313ZM206.083 213.783H275.853C282.092 213.783 284.779 205.568 279.675 201.924C279.604 201.871 279.531 201.819 279.458 201.769C272.19 196.688 262.652 197.149 262.652 197.149C262.652 197.149 261.29 169.655 235.626 169.655C212.423 169.655 203.171 192.821 199.833 205.584C198.749 209.73 201.865 213.783 206.083 213.783ZM653.46 224.815H759.279C768.74 224.815 772.816 212.492 765.074 207.026C764.966 206.947 764.856 206.869 764.746 206.793C753.723 199.172 739.256 199.864 739.256 199.864C739.256 199.864 737.191 158.624 698.268 158.624C663.077 158.624 649.043 193.371 643.982 212.516C642.337 218.735 647.063 224.815 653.46 224.815ZM775.113 320.997H847.232C853.68 320.997 856.458 312.648 851.182 308.944C851.108 308.891 851.033 308.838 850.958 308.787C843.445 303.623 833.586 304.092 833.586 304.092C833.586 304.092 832.179 276.149 805.651 276.149C781.667 276.149 772.103 299.693 768.653 312.664C767.533 316.878 770.753 320.997 775.113 320.997ZM187.54 452.349H42.263C30.502 452.349 25.429 437.458 35.057 430.851C35.191 430.759 35.328 430.665 35.465 430.573C49.171 421.361 67.159 422.197 67.159 422.197C67.159 422.197 69.729 372.368 118.126 372.368C142.054 372.368 161.391 412.358 161.391 412.358C161.391 412.358 193.941 412.358 199.328 437.484C200.957 445.096 195.497 452.349 187.54 452.349ZM845.343 444.069H729.212C719.81 444.069 715.755 432.224 723.451 426.968L723.777 426.747C734.734 419.419 749.113 420.085 749.113 420.085C749.113 420.085 751.168 380.447 789.855 380.447C808.982 380.447 824.44 412.258 824.44 412.258C824.44 412.258 850.46 412.258 854.766 432.245C856.068 438.3 851.704 444.069 845.343 444.069Z" fill="#E1E4E5"/>
</g>
<defs>
<linearGradient id="paint0_linear_1235_24645" x1="594.399" y1="219.006" x2="630.984" y2="116.515" gradientUnits="userSpaceOnUse">
<stop stop-color="white"/>
<stop offset="1" stop-color="#EEEEEE"/>
</linearGradient>
<linearGradient id="paint1_linear_1235_24645" x1="689.944" y1="299.405" x2="805.614" y2="207.908" gradientUnits="userSpaceOnUse">
<stop stop-color="white"/>
<stop offset="1" stop-color="#EEEEEE"/>
</linearGradient>
<linearGradient id="paint2_linear_1235_24645" x1="181.633" y1="239.41" x2="118.192" y2="180.465" gradientUnits="userSpaceOnUse">
<stop stop-color="white"/>
<stop offset="1" stop-color="#EEEEEE"/>
</linearGradient>
<clipPath id="clip0_1235_24645">
<rect width="900" height="600" fill="white"/>
</clipPath>
</defs>
</svg>
