<svg width="900" height="600" viewBox="0 0 900 600" fill="none" xmlns="http://www.w3.org/2000/svg">
<g clip-path="url(#clip0_1235_24665)">
<path d="M684.634 199.011C677.901 211.027 663.156 212.678 639.534 210.394C621.769 208.674 605.568 207.343 587.801 197.656C575.365 190.88 565.522 181.714 558.337 172.811C550.551 163.166 539.685 152.158 545.012 141.222C552.333 126.2 594.669 113.548 635.779 134.238C680.939 156.973 691.22 187.268 684.634 199.011Z" fill="url(#paint0_linear_1235_24665)"/>
<path d="M753.862 263.172C738.787 270.65 718.778 261.034 718.778 261.034C718.778 261.034 723.224 239.298 738.308 231.83C753.384 224.351 773.385 233.957 773.385 233.957C773.385 233.957 768.938 255.693 753.862 263.172Z" fill="url(#paint1_linear_1235_24665)"/>
<path d="M149.052 357.602C165.777 367.626 189.773 358.36 189.773 358.36C189.773 358.36 186.635 332.845 169.9 322.832C153.175 312.808 129.19 322.063 129.19 322.063C129.19 322.063 132.327 347.578 149.052 357.602Z" fill="url(#paint2_linear_1235_24665)"/>
<path d="M676.994 224.408C669.426 224.408 663.29 230.544 663.29 238.112C663.29 245.681 669.426 251.816 676.994 251.816C684.563 251.816 690.698 245.681 690.698 238.112C690.698 230.544 684.563 224.408 676.994 224.408Z" fill="#4F27AA"/>
<path d="M329.481 180.141C323.251 180.141 318.2 185.192 318.2 191.422C318.2 197.652 323.251 202.703 329.481 202.703C335.711 202.703 340.762 197.652 340.762 191.422C340.762 185.192 335.711 180.141 329.481 180.141Z" fill="#4F27AA"/>
<path d="M229.433 406.048C222.337 406.048 216.585 400.295 216.585 393.2C216.585 386.104 222.337 380.352 229.433 380.352C236.529 380.352 242.281 386.104 242.281 393.2C242.281 400.295 236.529 406.048 229.433 406.048Z" fill="#4F27AA"/>
<path d="M717.578 316.887C714.267 316.887 711.582 314.202 711.582 310.891C711.582 307.579 714.267 304.895 717.578 304.895C720.89 304.895 723.574 307.579 723.574 310.891C723.574 314.202 720.89 316.887 717.578 316.887Z" fill="#4F27AA"/>
<path d="M750.48 492.356C746.222 492.356 742.771 488.904 742.771 484.647C742.771 480.389 746.222 476.938 750.48 476.938C754.738 476.938 758.189 480.389 758.189 484.647C758.189 488.904 754.738 492.356 750.48 492.356Z" fill="#E1E4E5"/>
<path d="M185.464 430.793C179.314 430.793 174.329 425.808 174.329 419.658C174.329 413.509 179.314 408.523 185.464 408.523C191.614 408.523 196.599 413.509 196.599 419.658C196.599 425.808 191.614 430.793 185.464 430.793Z" fill="#E1E4E5"/>
<path d="M749.233 421.448C744.553 421.448 740.759 417.654 740.759 412.974C740.759 408.294 744.553 404.5 749.233 404.5C753.913 404.5 757.707 408.294 757.707 412.974C757.707 417.654 753.913 421.448 749.233 421.448Z" fill="#E1E4E5"/>
<path d="M682.589 154.973C677.385 154.973 673.167 150.755 673.167 145.551C673.167 140.347 677.385 136.129 682.589 136.129C687.792 136.129 692.011 140.347 692.011 145.551C692.011 150.755 687.792 154.973 682.589 154.973Z" fill="#E1E4E5"/>
<path d="M187.834 273.832C189.044 278.346 186.365 282.985 181.851 284.195C177.338 285.404 172.698 282.725 171.489 278.212C170.279 273.698 172.958 269.059 177.472 267.849C181.985 266.64 186.625 269.318 187.834 273.832Z" fill="#E1E4E5"/>
<path d="M355.928 111.726C353.983 111.726 352.407 110.149 352.407 108.205C352.407 106.26 353.983 104.684 355.928 104.684C357.873 104.684 359.449 106.26 359.449 108.205C359.449 110.149 357.873 111.726 355.928 111.726Z" fill="#E1E4E5"/>
<path d="M696.094 378.106C691.312 378.106 687.436 375.005 687.436 371.18C687.436 367.355 691.312 364.254 696.094 364.254C700.876 364.254 704.752 367.355 704.752 371.18C704.752 375.005 700.876 378.106 696.094 378.106Z" fill="#E1E4E5"/>
<path d="M511.709 109.593C512.584 112.861 510.645 116.219 507.378 117.095C504.11 117.97 500.752 116.031 499.876 112.764C499.001 109.496 500.94 106.138 504.207 105.262C507.475 104.387 510.833 106.326 511.709 109.593Z" fill="#E1E4E5"/>
<path d="M251.166 166.055H251.29C252.02 176.403 259.716 176.562 259.716 176.562C259.716 176.562 251.229 176.728 251.229 188.685C251.229 176.728 242.743 176.562 242.743 176.562C242.743 176.562 250.436 176.403 251.166 166.055ZM245.8 469.894H245.918C246.619 480.212 254.008 480.37 254.008 480.37C254.008 480.37 245.86 480.536 245.86 492.457C245.86 480.536 237.713 480.37 237.713 480.37C237.713 480.37 245.098 480.212 245.8 469.894Z" fill="#E1E4E5"/>
<path d="M658.557 284.383C641.238 305.984 611.455 304.385 565.371 292.052C530.713 282.771 499.029 274.778 467 249.7C444.581 232.157 428.091 210.729 416.787 190.701C404.536 169.004 386.626 143.588 400.802 123.664C420.282 96.2965 508.409 85.1975 583.088 139.806C665.12 199.807 675.497 263.275 658.557 284.383Z" fill="url(#paint3_linear_1235_24665)"/>
<path d="M606.188 427.281C597.844 474.705 484.149 548.653 379.485 487.175C330.807 458.581 341.577 432.403 310.001 387.264C291.179 360.36 260.754 336.252 258.468 302.973C256.488 274.247 268.224 246.593 286.82 231.153C328.642 196.431 399.999 182.583 448.255 263.822C496.51 345.061 627.693 304.969 606.188 427.281Z" fill="url(#paint4_linear_1235_24665)"/>
<path d="M468 166V353H448.284C448.284 344.663 440.552 332.544 436.686 327.526C387.396 286.421 370 262.562 370 225.632C370 190.895 390.296 172.368 403.053 166H468ZM468 166V353H487.515C487.515 344.663 495.168 332.544 498.994 327.526C547.781 286.421 565 262.562 565 225.632C565 190.895 544.911 172.368 532.284 166H468Z" fill="#4F27AA"/>
<path d="M468 493V307H448.284C448.284 315.292 440.552 327.347 436.686 332.337C387.396 373.223 370 396.954 370 433.687C370 468.238 390.296 486.666 403.053 493H468ZM468 493V307H487.515C487.515 315.292 495.168 327.347 498.994 332.337C547.781 373.223 565 396.954 565 433.687C565 468.238 544.911 486.666 532.284 493H468Z" fill="#4F27AA"/>
<path d="M566.535 509.74H370.369V501.307C370.369 496.233 374.487 492.117 379.57 492.117H557.713C562.585 492.117 566.535 496.062 566.535 500.928V509.74Z" fill="#E1E4E5"/>
<path d="M404.932 216.875C413.771 218.175 426.521 219.764 439.463 220.404C452.462 221.047 465.425 220.717 474.798 218.292C503.363 210.9 521.136 208.969 531.6 208.806L404.932 216.875ZM404.932 216.875C397.206 215.739 390.419 221.88 390.419 229.71V237.528C390.419 240.706 391.451 244.151 393.1 247.672C394.76 251.216 397.117 254.986 399.936 258.856C405.574 266.595 413.205 274.924 421.242 282.891C437.326 298.836 455.265 313.555 462.759 319.554M404.932 216.875L462.759 319.554L404.932 216.875ZM462.759 319.554C464.452 320.909 465.459 323.005 465.459 325.247V445.056C465.459 448.388 463.858 451.481 461.211 453.382C455.092 457.775 447.043 466.251 440.639 473.462C437.036 477.524 433.515 481.657 430.078 485.86L429.423 486.666L429.252 486.878L429.208 486.933L429.196 486.947L429.193 486.951L429.192 486.952L431.037 488.433L429.192 486.953L426.108 490.798M462.759 319.554L426.108 490.798L462.759 319.554ZM426.108 490.798H431.037H426.108ZM426.108 490.798H431.037H426.108ZM505.931 488.433L507.739 486.908V486.907L507.736 486.903L507.724 486.89L507.679 486.837L507.507 486.633L506.845 485.855C503.368 481.79 499.829 477.778 496.229 473.82C489.81 466.769 481.848 458.459 476.035 453.897L476.034 453.896C474.038 452.332 472.848 449.896 472.848 447.293V325.214C472.848 322.979 473.838 320.884 475.513 319.509H475.514C482.86 313.473 500.416 298.691 516.153 282.696C524.017 274.703 531.482 266.351 536.997 258.598C539.755 254.72 542.059 250.945 543.682 247.4C545.294 243.877 546.3 240.438 546.3 237.273V223.595C546.3 215.394 539.742 208.679 531.6 208.806L505.931 488.433ZM505.931 488.433L507.74 486.908L505.931 488.433ZM505.931 488.433L507.74 486.908L505.931 488.433ZM431.037 490.798H511.018H431.037ZM431.037 490.798H511.018H431.037ZM511.018 490.798L507.74 486.908L511.018 490.798ZM511.018 490.798L507.74 486.908L511.018 490.798Z" fill="white"/>
<path d="M404.932 216.875C397.206 215.739 390.419 221.88 390.419 229.71V237.528C390.419 240.706 391.451 244.151 393.1 247.672C394.76 251.216 397.117 254.986 399.936 258.856C405.574 266.595 413.205 274.924 421.242 282.891C437.326 298.836 455.265 313.555 462.759 319.554M404.932 216.875L462.759 319.554M462.759 319.554C464.452 320.909 465.459 323.005 465.459 325.247V445.056C465.459 448.388 463.858 451.481 461.211 453.382C455.092 457.775 447.043 466.251 440.639 473.462C437.036 477.524 433.515 481.657 430.078 485.86L429.423 486.666L429.252 486.878L429.208 486.933L429.196 486.947L429.193 486.951L429.192 486.952L431.037 488.433L429.192 486.953L426.108 490.798M462.759 319.554L426.108 490.798M426.108 490.798H431.037M426.108 490.798H431.037M505.931 488.433L507.74 486.908M505.931 488.433L507.74 486.908M431.037 490.798H511.018M431.037 490.798H511.018M511.018 490.798L507.74 486.908M511.018 490.798L507.74 486.908M404.932 216.875C413.771 218.175 426.521 219.764 439.463 220.404C452.462 221.047 465.425 220.717 474.798 218.292C503.363 210.9 521.136 208.969 531.6 208.806L404.932 216.875ZM505.931 488.433L507.739 486.908V486.907L507.736 486.903L507.724 486.89L507.679 486.837L507.507 486.633L506.845 485.855C503.368 481.79 499.829 477.778 496.229 473.82C489.81 466.769 481.848 458.459 476.035 453.897L476.034 453.896C474.038 452.332 472.848 449.896 472.848 447.293V325.214C472.848 322.979 473.838 320.884 475.513 319.509H475.514C482.86 313.473 500.416 298.691 516.153 282.696C524.017 274.703 531.482 266.351 536.997 258.598C539.755 254.72 542.059 250.945 543.682 247.4C545.294 243.877 546.3 240.438 546.3 237.273V223.595C546.3 215.394 539.742 208.679 531.6 208.806L505.931 488.433V488.433Z" stroke="white" stroke-width="4.73"/>
<path d="M557.384 173.768H379.192C374.32 173.768 370.369 169.822 370.369 164.956V156.145H566.535V164.628C566.535 169.678 562.441 173.768 557.384 173.768Z" fill="#E1E4E5"/>
<path fill-rule="evenodd" clip-rule="evenodd" d="M483.753 232.222V188.562C483.754 181.345 485.647 174.254 489.245 167.998C492.842 161.741 498.017 156.538 504.254 152.906L545.512 128.894C551.814 125.228 558.974 123.297 566.265 123.297C573.556 123.297 580.716 125.228 587.018 128.894L628.276 152.906C634.515 156.536 639.692 161.739 643.291 167.996C646.89 174.253 648.784 181.344 648.785 188.562V232.222C648.784 239.439 646.891 246.53 643.294 252.787C639.697 259.043 634.522 264.247 628.285 267.879L587.027 291.891C580.725 295.557 573.565 297.488 566.274 297.488C558.983 297.488 551.823 295.557 545.521 291.891L504.263 267.879C498.024 264.249 492.846 259.046 489.247 252.789C485.648 246.532 483.754 239.44 483.753 232.222Z" fill="#2E2445"/>
<path d="M566.269 210.391V169.133M566.26 242.481C565.959 242.48 565.662 242.539 565.384 242.655C565.106 242.77 564.854 242.939 564.642 243.152C564.43 243.365 564.262 243.618 564.147 243.896C564.033 244.174 563.975 244.472 563.977 244.773C563.99 245.373 564.237 245.943 564.665 246.363C565.094 246.783 565.67 247.018 566.27 247.018C566.869 247.018 567.445 246.783 567.874 246.363C568.303 245.943 568.55 245.373 568.562 244.773C568.562 244.471 568.502 244.172 568.386 243.894C568.27 243.615 568.1 243.362 567.886 243.149C567.673 242.937 567.419 242.768 567.14 242.653C566.861 242.538 566.562 242.48 566.26 242.481" stroke="white" stroke-width="15.588" stroke-linecap="round" stroke-linejoin="round"/>
</g>
<defs>
<linearGradient id="paint0_linear_1235_24665" x1="639.279" y1="276.882" x2="579.271" y2="7.23096" gradientUnits="userSpaceOnUse">
<stop stop-color="white"/>
<stop offset="1" stop-color="#EEEEEE"/>
</linearGradient>
<linearGradient id="paint1_linear_1235_24665" x1="695.97" y1="286.498" x2="820.315" y2="188.141" gradientUnits="userSpaceOnUse">
<stop stop-color="white"/>
<stop offset="1" stop-color="#EEEEEE"/>
</linearGradient>
<linearGradient id="paint2_linear_1235_24665" x1="213.774" y1="389.869" x2="79.198" y2="264.83" gradientUnits="userSpaceOnUse">
<stop stop-color="white"/>
<stop offset="1" stop-color="#EEEEEE"/>
</linearGradient>
<linearGradient id="paint3_linear_1235_24665" x1="542.897" y1="423.804" x2="513.006" y2="-130.7" gradientUnits="userSpaceOnUse">
<stop stop-color="white"/>
<stop offset="1" stop-color="#EEEEEE"/>
</linearGradient>
<linearGradient id="paint4_linear_1235_24665" x1="431.505" y1="682.57" x2="439.831" y2="-129.957" gradientUnits="userSpaceOnUse">
<stop stop-color="white"/>
<stop offset="1" stop-color="#EEEEEE"/>
</linearGradient>
<clipPath id="clip0_1235_24665">
<rect width="900" height="600" fill="white"/>
</clipPath>
</defs>
</svg>
