<svg width="900" height="600" viewBox="0 0 900 600" fill="none" xmlns="http://www.w3.org/2000/svg">
<g clip-path="url(#clip0_1235_24721)">
<path d="M619.637 456.165C610.616 507.439 487.691 587.39 374.531 520.921C321.901 490.006 333.546 461.703 299.406 412.899C279.056 383.812 246.161 357.747 243.69 321.766C241.55 290.708 254.238 260.809 274.344 244.116C319.561 206.575 396.71 191.603 448.883 279.437C501.056 367.27 642.888 323.924 619.637 456.165Z" fill="url(#paint0_linear_1235_24721)"/>
<path d="M711.216 202.979C701.188 220.875 679.226 223.334 644.042 219.933C617.581 217.371 593.45 215.388 566.987 200.96C548.465 190.868 533.803 177.215 523.102 163.954C511.506 149.588 495.32 133.193 503.254 116.905C514.159 94.5303 577.217 75.6854 638.449 106.502C705.712 140.365 721.025 185.488 711.216 202.979Z" fill="url(#paint1_linear_1235_24721)"/>
<path d="M794.245 282.663C770.126 294.628 738.113 279.244 738.113 279.244C738.113 279.244 745.228 244.468 769.36 232.52C793.48 220.556 825.479 235.923 825.479 235.923C825.479 235.923 818.365 270.699 794.245 282.663Z" fill="url(#paint2_linear_1235_24721)"/>
<path d="M107.669 368.47C133.385 383.882 170.278 369.635 170.278 369.635C170.278 369.635 165.454 330.405 139.723 315.01C114.008 299.598 77.1299 313.828 77.1299 313.828C77.1299 313.828 81.9539 353.058 107.669 368.47Z" fill="url(#paint3_linear_1235_24721)"/>
<path d="M746.787 189.32C739.513 189.32 733.617 195.217 733.617 202.49C733.617 209.764 739.513 215.66 746.787 215.66C754.061 215.66 759.957 209.764 759.957 202.49C759.957 195.217 754.061 189.32 746.787 189.32Z" fill="#4F27AA"/>
<path d="M575.401 413.691C563.985 413.691 554.731 422.946 554.731 434.361C554.731 445.777 563.985 455.031 575.401 455.031C586.817 455.031 596.071 445.777 596.071 434.361C596.071 422.946 586.817 413.691 575.401 413.691Z" fill="#4F27AA"/>
<path d="M325.147 198.291C319.159 198.291 314.306 203.144 314.306 209.132C314.306 215.119 319.159 219.973 325.147 219.973C331.134 219.973 335.988 215.119 335.988 209.132C335.988 203.144 331.134 198.291 325.147 198.291Z" fill="#4F27AA"/>
<path d="M203.114 347.831C196.295 347.831 190.767 342.303 190.767 335.484C190.767 328.665 196.295 323.137 203.114 323.137C209.933 323.137 215.461 328.665 215.461 335.484C215.461 342.303 209.933 347.831 203.114 347.831Z" fill="#4F27AA"/>
<path d="M647.761 257.524C644.579 257.524 641.999 254.944 641.999 251.762C641.999 248.58 644.579 246 647.761 246C650.943 246 653.523 248.58 653.523 251.762C653.523 254.944 650.943 257.524 647.761 257.524Z" fill="#4F27AA"/>
<path d="M637.406 494.816C633.315 494.816 629.998 491.499 629.998 487.408C629.998 483.317 633.315 480 637.406 480C641.497 480 644.814 483.317 644.814 487.408C644.814 491.499 641.497 494.816 637.406 494.816Z" fill="#E1E4E5"/>
<path d="M149.294 445.08C143.385 445.08 138.594 440.289 138.594 434.38C138.594 428.47 143.385 423.68 149.294 423.68C155.204 423.68 159.994 428.47 159.994 434.38C159.994 440.289 155.204 445.08 149.294 445.08Z" fill="#E1E4E5"/>
<path d="M754.848 422.39C750.35 422.39 746.704 418.743 746.704 414.246C746.704 409.748 750.35 406.102 754.848 406.102C759.346 406.102 762.992 409.748 762.992 414.246C762.992 418.743 759.346 422.39 754.848 422.39Z" fill="#E1E4E5"/>
<path d="M668.425 171.542C663.425 171.542 659.371 167.488 659.371 162.488C659.371 157.487 663.425 153.434 668.425 153.434C673.425 153.434 677.479 157.487 677.479 162.488C677.479 167.488 673.425 171.542 668.425 171.542Z" fill="#E1E4E5"/>
<path d="M181.667 263.129C182.829 267.467 180.255 271.926 175.917 273.088C171.58 274.25 167.121 271.676 165.959 267.338C164.797 263.001 167.371 258.542 171.708 257.38C176.046 256.218 180.505 258.792 181.667 263.129Z" fill="#E1E4E5"/>
<path d="M383.925 116.917C377.952 116.917 373.109 112.075 373.109 106.101C373.109 100.128 377.952 95.2852 383.925 95.2852C389.899 95.2852 394.741 100.128 394.741 106.101C394.741 112.075 389.899 116.917 383.925 116.917Z" fill="#E1E4E5"/>
<path d="M725.207 375.792C720.612 375.792 716.887 372.812 716.887 369.136C716.887 365.46 720.612 362.48 725.207 362.48C729.802 362.48 733.527 365.46 733.527 369.136C733.527 372.812 729.802 375.792 725.207 375.792Z" fill="#E1E4E5"/>
<path d="M584.62 87.773C587.039 96.7998 581.682 106.078 572.655 108.497C563.628 110.916 554.35 105.559 551.931 96.5319C549.513 87.5052 554.869 78.2267 563.896 75.808C572.923 73.3893 582.201 78.7462 584.62 87.773Z" fill="#E1E4E5"/>
<path d="M210.85 209.191H210.968C211.67 219.135 219.066 219.288 219.066 219.288C219.066 219.288 210.911 219.447 210.911 230.938C210.911 219.447 202.755 219.288 202.755 219.288C202.755 219.288 210.148 219.135 210.85 209.191ZM198.46 469.5H198.574C199.248 479.415 206.348 479.568 206.348 479.568C206.348 479.568 198.518 479.727 198.518 491.183C198.518 479.727 190.688 479.568 190.688 479.568C190.688 479.568 197.786 479.415 198.46 469.5Z" fill="#E1E4E5"/>
<path fill-rule="evenodd" clip-rule="evenodd" d="M555.609 127.3L476.456 92.6954C471.26 90.4232 465.668 89.1968 459.998 89.0863C454.328 88.9758 448.692 89.9834 443.411 92.0514L299.252 148.579C277.042 157.289 266.112 182.348 274.829 204.579L385.272 486.231C393.989 508.462 419.039 519.413 441.25 510.704L642.252 431.886C664.463 423.177 675.392 398.117 666.675 375.886L578.542 151.128C574.357 140.461 566.109 131.891 555.609 127.3Z" fill="white" stroke="#E1E4E5" stroke-width="3.498"/>
<path d="M574.102 327.731L421.556 387.547C415.939 389.75 413.171 396.088 415.373 401.705C417.576 407.321 423.914 410.089 429.531 407.887L582.077 348.071C587.694 345.868 590.462 339.53 588.259 333.913C586.057 328.297 579.718 325.529 574.102 327.731Z" fill="#E1E4E5"/>
<path d="M558.268 287.353L405.722 347.168C400.105 349.371 397.337 355.709 399.539 361.326C401.742 366.942 408.08 369.71 413.697 367.508L566.243 307.692C571.86 305.489 574.628 299.151 572.425 293.534C570.223 287.918 563.884 285.15 558.268 287.353Z" fill="#E1E4E5"/>
<path d="M542.394 246.872L389.848 306.688C384.232 308.89 381.464 315.229 383.666 320.845C385.868 326.462 392.207 329.23 397.824 327.027L550.369 267.211C555.986 265.009 558.754 258.67 556.552 253.054C554.349 247.437 548.011 244.67 542.394 246.872Z" fill="#E1E4E5"/>
<path d="M526.521 206.392L373.975 266.207C368.358 268.41 365.591 274.748 367.793 280.365C369.995 285.981 376.334 288.749 381.951 286.547L534.496 226.731C540.113 224.528 542.881 218.19 540.679 212.573C538.476 206.957 532.138 204.189 526.521 206.392Z" fill="#E1E4E5"/>
<path d="M510.649 165.911L358.103 225.727C352.486 227.929 349.718 234.268 351.921 239.884C354.123 245.501 360.462 248.269 366.079 246.066L518.624 186.25C524.241 184.048 527.009 177.709 524.807 172.093C522.604 166.476 516.266 163.709 510.649 165.911Z" fill="#E1E4E5"/>
<path d="M590.053 368.411L437.507 428.227C431.89 430.429 429.122 436.768 431.325 442.384C433.527 448.001 439.866 450.769 445.482 448.566L598.028 388.75C603.645 386.548 606.413 380.209 604.211 374.593C602.008 368.976 595.67 366.209 590.053 368.411Z" fill="#E1E4E5"/>
<path fill-rule="evenodd" clip-rule="evenodd" d="M205.851 385.542L207.717 390.953C214.179 409.727 234.631 419.702 253.405 413.24C272.179 406.778 282.154 386.326 275.692 367.552L273.825 362.141" fill="#2E2445"/>
<path fill-rule="evenodd" clip-rule="evenodd" d="M228.058 169.008L223.368 155.394C218.193 140.385 201.834 132.401 186.809 137.577C171.799 142.753 163.816 159.111 168.976 174.121L173.666 187.735" fill="#4F27AA"/>
<path fill-rule="evenodd" clip-rule="evenodd" d="M142.88 271.928C130.097 234.819 149.828 194.37 186.936 181.588L213.818 172.334C250.927 159.552 291.376 179.282 304.158 216.39L318.431 257.859C321.139 265.722 326.86 272.187 334.334 275.833L347.117 282.059C350.819 283.864 354.128 286.38 356.857 289.464C359.586 292.548 361.68 296.139 363.02 300.033C368.353 315.513 360.119 332.389 344.639 337.722L185.681 392.459C170.201 397.792 153.325 389.558 147.993 374.078C145.283 366.212 145.808 357.592 149.451 350.112L155.678 337.33C157.486 333.628 158.545 329.605 158.795 325.493C159.046 321.38 158.482 317.259 157.136 313.365L142.88 271.928Z" fill="#4F27AA"/>
<path d="M747.954 508.888L725 467" stroke="#4F27AA" stroke-width="19.032" stroke-linecap="round" stroke-linejoin="round"/>
<path d="M648.505 468.221C699.669 484.826 754.606 456.809 771.21 405.646C787.815 354.482 759.799 299.544 708.635 282.94C657.471 266.336 602.534 294.352 585.929 345.516C569.325 396.679 597.341 451.617 648.505 468.221Z" fill="white" stroke="#4F27AA" stroke-width="17.457" stroke-linecap="round" stroke-linejoin="round"/>
</g>
<defs>
<linearGradient id="paint0_linear_1235_24721" x1="430.774" y1="732.178" x2="439.776" y2="-146.308" gradientUnits="userSpaceOnUse">
<stop stop-color="white"/>
<stop offset="1" stop-color="#EEEEEE"/>
</linearGradient>
<linearGradient id="paint1_linear_1235_24721" x1="643.662" y1="318.965" x2="554.282" y2="-82.6687" gradientUnits="userSpaceOnUse">
<stop stop-color="white"/>
<stop offset="1" stop-color="#EEEEEE"/>
</linearGradient>
<linearGradient id="paint2_linear_1235_24721" x1="701.624" y1="319.984" x2="900.562" y2="162.624" gradientUnits="userSpaceOnUse">
<stop stop-color="white"/>
<stop offset="1" stop-color="#EEEEEE"/>
</linearGradient>
<linearGradient id="paint3_linear_1235_24721" x1="207.18" y1="418.081" x2="0.265895" y2="225.831" gradientUnits="userSpaceOnUse">
<stop stop-color="white"/>
<stop offset="1" stop-color="#EEEEEE"/>
</linearGradient>
<clipPath id="clip0_1235_24721">
<rect width="900" height="600" fill="white"/>
</clipPath>
</defs>
</svg>
