<svg width="900" height="600" viewBox="0 0 900 600" fill="none" xmlns="http://www.w3.org/2000/svg">
<g clip-path="url(#clip0_1235_24753)">
<path d="M695 300.499C695 166.704 586.538 58.2422 452.743 58.2422C318.948 58.2422 210.486 166.704 210.486 300.499C210.486 434.294 318.948 542.756 452.743 542.756C586.538 542.756 695 434.294 695 300.499Z" fill="#4F27AA"/>
<mask id="mask0_1235_24753" style="mask-type:alpha" maskUnits="userSpaceOnUse" x="205" y="58" width="485" height="485">
<path d="M689.514 300.499C689.514 166.704 581.052 58.2422 447.257 58.2422C313.462 58.2422 205 166.704 205 300.499C205 434.294 313.462 542.756 447.257 542.756C581.052 542.756 689.514 434.294 689.514 300.499Z" fill="#4F27AA"/>
</mask>
<g mask="url(#mask0_1235_24753)">
<g opacity="0.5">
<path d="M-32.918 174.883C-65.958 229.122 -87.584 290.298 -95.984 353.272C-101.181 392.232 -99.358 436.915 -70.718 463.792C-49.254 483.939 -17.615 488.952 11.784 487.869C41.184 486.786 70.417 480.598 99.784 482.327C129.15 484.058 160.248 495.667 175.147 521.069C189.247 545.107 185.736 575.053 184.007 602.877C182.283 630.704 184.358 662.292 205.329 680.627C235.029 706.592 283.421 690.548 318.431 708.701C351.638 725.919 365.122 769.845 399.337 784.951C427.937 797.58 460.855 785.844 489.779 773.988C519.932 761.626 550.024 749.112 580.051 736.447" stroke="white" stroke-width="2.917"/>
<path d="M1.588 138.996C-30.75 191.971 -51.92 251.718 -60.144 313.224C-65.23 351.275 -63.445 394.916 -35.411 421.168C-14.403 440.844 16.567 445.74 45.344 444.68C74.119 443.624 102.734 437.58 131.481 439.27C160.228 440.96 190.667 452.299 205.25 477.106C219.052 500.586 215.615 529.832 213.923 557.009C212.234 584.186 214.264 615.035 234.793 632.944C263.865 658.304 311.233 642.634 345.502 660.364C378.005 677.18 391.204 720.081 424.697 734.837C452.688 747.167 484.911 735.708 513.225 724.128C542.739 712.053 572.192 699.832 601.584 687.463" stroke="white" stroke-width="2.917"/>
<path d="M34.3011 103.105C2.66106 154.975 -18.0509 213.473 -26.0939 273.694C-31.0729 310.951 -29.3259 353.679 -1.89894 379.382C18.6571 398.646 48.9581 403.439 77.1111 402.403C105.266 401.367 133.262 395.451 161.386 397.105C189.511 398.76 219.291 409.861 233.56 434.151C247.064 457.139 243.699 485.774 242.047 512.384C240.392 538.992 242.378 569.198 262.465 586.732C290.908 611.562 337.25 596.219 370.78 613.581C402.58 630.046 415.495 672.048 448.26 686.495C475.648 698.57 507.173 687.348 534.875 676.01C563.751 664.188 592.568 652.222 621.325 640.112" stroke="white" stroke-width="2.917"/>
<path d="M68.636 67.2148C37.78 117.818 17.586 174.891 9.74 233.642C4.886 269.99 6.59 311.676 33.334 336.752C53.38 355.547 82.926 360.224 110.379 359.213C137.834 358.202 165.134 352.429 192.559 354.045C219.985 355.658 249.025 366.488 262.938 390.186C276.108 412.615 272.828 440.55 271.215 466.51C269.602 492.472 271.54 521.939 291.123 539.045C318.86 563.268 364.053 548.301 396.747 565.237C427.758 581.301 440.346 622.28 472.301 636.375C499.008 648.156 529.752 637.208 556.762 626.146C584.921 614.613 613.022 602.938 641.063 591.122" stroke="white" stroke-width="2.917"/>
<path d="M101.349 29.5312C71.1931 79.0283 51.4551 134.85 43.7871 192.32C39.0441 227.871 40.7081 268.646 66.8481 293.174C86.4381 311.556 115.315 316.131 142.146 315.142C168.979 314.154 195.661 308.508 222.465 310.086C249.268 311.666 277.651 322.26 291.249 345.439C304.118 367.376 300.914 394.701 299.336 420.094C297.76 445.487 299.655 474.31 318.795 491.043C345.903 514.735 390.07 500.095 422.026 516.66C452.332 532.374 464.637 572.456 495.868 586.242C521.969 597.765 552.014 587.057 578.415 576.237C605.935 564.957 633.398 553.537 660.803 541.98" stroke="white" stroke-width="2.917"/>
<path d="M135.682 -6.35938C106.314 41.8706 87.0911 96.2706 79.6221 152.267C75.0021 186.912 76.6241 226.642 102.08 250.543C121.161 268.457 149.283 272.914 175.414 271.951C201.55 270.989 227.533 265.486 253.638 267.025C279.741 268.564 307.386 278.886 320.628 301.474C333.162 322.849 330.039 349.478 328.505 374.221C326.97 398.964 328.812 427.051 347.455 443.356C373.855 466.443 416.869 452.177 447.991 468.32C477.508 483.631 489.492 522.687 519.909 536.122C545.329 547.35 574.589 536.917 600.302 526.373C627.104 515.379 653.851 504.251 680.542 492.99" stroke="white" stroke-width="2.917"/>
<path d="M170.19 -42.25C141.522 4.717 122.754 57.686 115.464 112.215C110.956 145.951 112.538 184.639 137.39 207.915C156.014 225.357 183.468 229.699 208.978 228.761C234.487 227.821 259.854 222.465 285.337 223.964C310.819 225.463 337.804 235.515 350.732 257.509C362.967 278.325 359.92 304.252 358.422 328.347C356.922 352.442 358.721 379.792 376.921 395.669C402.693 418.151 444.682 404.259 475.063 419.979C503.878 434.888 515.577 472.92 545.267 486.002C570.083 496.936 598.646 486.776 623.746 476.509C649.91 465.805 676.021 454.969 702.077 444.003" stroke="white" stroke-width="2.917"/>
<path d="M202.901 -78.1406C174.933 -32.2826 156.623 19.4394 149.511 72.6844C145.112 105.623 146.657 143.402 170.9 166.126C189.072 183.158 215.855 187.398 240.743 186.48C265.63 185.567 290.377 180.333 315.241 181.799C340.102 183.261 366.427 193.076 379.04 214.553C390.978 234.877 388.005 260.193 386.542 283.721C385.081 307.247 386.837 333.953 404.591 349.456C429.735 371.409 470.7 357.843 500.338 373.193C528.45 387.749 539.864 424.888 568.83 437.66C593.041 448.336 620.91 438.416 645.398 428.391C670.924 417.939 696.397 407.358 721.816 396.65" stroke="white" stroke-width="2.917"/>
<path d="M237.236 -114.031C210.051 -69.4372 192.259 -19.1413 185.348 32.6317C181.071 64.6627 182.572 101.4 206.136 123.499C223.795 140.062 249.826 144.182 274.013 143.291C298.203 142.401 322.252 137.314 346.414 138.736C370.578 140.161 396.163 149.703 408.421 170.589C420.023 190.351 417.134 214.972 415.712 237.848C414.291 260.726 415.998 286.696 433.254 301.77C457.688 323.118 497.503 309.926 526.307 324.852C553.627 339.01 564.722 375.12 592.873 387.541C616.402 397.923 643.486 388.277 667.286 378.526C692.094 368.363 716.851 358.075 741.556 347.663" stroke="white" stroke-width="2.917"/>
<path d="M269.947 -151.715C243.462 -108.227 226.127 -59.1798 219.395 -8.69084C215.227 22.5452 216.691 58.3692 239.647 79.9192C256.853 96.0702 282.212 100.089 305.779 99.2222C329.345 98.3542 352.779 93.3922 376.316 94.7782C399.858 96.1682 424.786 105.474 436.728 125.84C448.031 145.113 445.215 169.121 443.833 191.429C442.446 213.741 444.108 239.064 460.922 253.763C484.729 274.582 523.517 261.718 551.582 276.273C578.201 290.079 589.008 325.294 616.436 337.408C639.36 347.531 665.748 338.123 688.932 328.616C713.103 318.706 737.225 308.673 761.295 298.519" stroke="white" stroke-width="2.917"/>
<path d="M304.281 -187.605C278.583 -145.383 261.763 -97.7615 255.23 -48.7425C251.187 -18.4155 252.605 16.3675 274.879 37.2895C291.575 52.9705 316.183 56.8725 339.049 56.0305C361.912 55.1865 384.651 50.3705 407.493 51.7175C430.333 53.0655 454.522 62.1025 466.109 81.8755C477.076 100.589 474.344 123.897 473.001 145.558C471.658 167.219 473.272 191.806 489.585 206.079C512.684 226.291 550.321 213.803 577.552 227.934C603.38 241.335 613.867 275.528 640.477 287.288C662.722 297.118 688.327 287.984 710.823 278.753C734.276 269.13 757.68 259.389 781.034 249.53" stroke="white" stroke-width="2.917"/>
<path d="M338.788 -223.492C313.791 -182.535 297.427 -136.343 291.07 -88.7892C287.14 -59.3732 288.521 -25.6322 310.188 -5.33519C326.43 9.87481 350.366 13.6608 372.61 12.8448C394.854 12.0248 416.972 7.35281 439.192 8.66081C461.41 9.96781 484.938 18.7328 496.213 37.9138C506.883 56.0648 504.224 78.6758 502.918 99.6888C501.61 120.7 503.181 144.55 519.05 158.396C541.52 178 578.133 165.888 604.624 179.596C629.748 192.598 639.949 225.764 665.837 237.172C687.476 246.706 712.383 237.847 734.267 228.893C757.081 219.558 779.848 210.108 802.568 200.546" stroke="white" stroke-width="2.917"/>
<path d="M371.501 -259.383C347.203 -219.532 331.297 -174.588 325.119 -128.322C321.295 -99.6968 322.637 -66.8708 343.701 -47.1208C359.487 -32.3208 382.756 -28.6378 404.376 -29.4328C425.997 -30.2308 447.496 -34.7748 469.096 -33.5058C490.694 -32.2318 513.563 -23.7058 524.522 -5.04282C534.892 12.6192 532.309 34.6182 531.04 55.0622C529.769 75.5062 531.295 98.7132 546.719 112.184C568.564 131.259 604.152 119.474 629.899 132.811C654.321 145.46 664.239 177.731 689.402 188.831C710.435 198.108 734.644 189.486 755.917 180.776C778.094 171.694 800.224 162.5 822.307 153.194" stroke="white" stroke-width="2.917"/>
<path d="M405.835 -295.273C382.325 -256.688 366.931 -213.17 360.954 -168.373C357.255 -140.657 358.553 -108.871 378.933 -89.7514C394.211 -75.4194 416.723 -71.8544 437.647 -72.6254C458.567 -73.3954 479.371 -77.7974 500.271 -76.5664C521.169 -75.3334 543.299 -67.0784 553.902 -49.0084C563.937 -31.9054 561.437 -10.6034 560.208 9.19055C558.979 28.9846 560.455 51.4546 575.38 64.4966C596.517 82.9676 630.952 71.5566 655.867 84.4696C679.499 96.7176 689.094 127.965 713.444 138.712C733.794 147.694 757.222 139.346 777.807 130.912C799.265 122.118 820.679 113.216 842.047 104.206" stroke="white" stroke-width="2.917"/>
</g>
<path d="M450 457.012C536.709 457.012 607 386.72 607 300.012C607 213.303 536.709 143.012 450 143.012C363.291 143.012 293 213.303 293 300.012C293 386.72 363.291 457.012 450 457.012Z" fill="white"/>
<path d="M504.88 267.938L435.93 338.158L394.536 296.033" stroke="#4F27AA" stroke-width="28.445" stroke-linecap="round" stroke-linejoin="round"/>
</g>
</g>
<defs>
<clipPath id="clip0_1235_24753">
<rect width="900" height="600" fill="white"/>
</clipPath>
</defs>
</svg>
