<svg width="900" height="600" viewBox="0 0 900 600" fill="none" xmlns="http://www.w3.org/2000/svg">
<g clip-path="url(#clip0_1235_24798)">
<path d="M686.499 394.517C684.032 457.094 550.424 572.263 404.793 511.319C337.061 482.973 346.368 447.353 297.785 394.696C268.827 363.312 225.403 337.558 216.642 295.068C209.072 258.392 219.365 220.701 240.633 197.553C288.465 145.496 378.009 115.181 454.395 211.449C530.782 307.716 692.842 233.125 686.499 394.517Z" fill="url(#paint0_linear_1235_24798)"/>
<path d="M678.604 187.735C668.03 206.606 644.871 209.199 607.769 205.613C579.866 202.911 554.421 200.82 526.515 185.606C506.984 174.964 491.523 160.567 480.238 146.583C468.01 131.434 450.942 114.146 459.309 96.9701C470.808 73.3751 537.303 53.5031 601.872 86.0001C672.8 121.708 688.948 169.29 678.604 187.735Z" fill="url(#paint1_linear_1235_24798)"/>
<path d="M458.5 483.816C568.681 483.816 658 394.497 658 284.316C658 174.136 568.681 84.8164 458.5 84.8164C348.319 84.8164 259 174.136 259 284.316C259 394.497 348.319 483.816 458.5 483.816Z" fill="#4F27AA"/>
<path d="M455.404 331.512C455.808 331.916 456.288 332.236 456.815 332.454C457.343 332.672 457.909 332.783 458.48 332.783C459.051 332.782 459.616 332.669 460.143 332.449C460.67 332.23 461.149 331.909 461.552 331.504C462.365 330.684 462.821 329.576 462.819 328.421C462.818 327.266 462.359 326.158 461.544 325.34C461.141 324.936 460.661 324.615 460.133 324.396C459.605 324.178 459.04 324.066 458.468 324.066C457.897 324.067 457.331 324.181 456.804 324.401C456.277 324.621 455.798 324.943 455.396 325.348C454.58 326.165 454.122 327.272 454.122 328.426C454.122 329.581 454.58 330.688 455.396 331.504" stroke="white" stroke-width="17.412" stroke-linecap="round" stroke-linejoin="round"/>
<path d="M485.593 172.408L485.7 266.464C509.503 277.036 526.165 300.79 526.198 328.484C526.239 365.953 495.894 396.298 458.433 396.249C420.963 396.208 390.552 365.797 390.503 328.319C390.47 300.363 407.371 276.42 431.502 266.045L431.396 172.351L458.466 145.281L485.593 172.408V172.408Z" stroke="white" stroke-width="17.412" stroke-linecap="round" stroke-linejoin="round"/>
<path d="M723.757 263.874C703.876 273.737 677.489 261.056 677.489 261.056C677.489 261.056 683.353 232.391 703.245 222.543C723.126 212.681 749.502 225.348 749.502 225.348C749.502 225.348 743.638 254.012 723.757 263.874Z" fill="url(#paint2_linear_1235_24798)"/>
<path d="M138.137 301.104C167 318.402 208.41 302.411 208.41 302.411C208.41 302.411 202.995 258.379 174.115 241.099C145.251 223.8 103.859 239.772 103.859 239.772C103.859 239.772 109.274 283.805 138.137 301.104Z" fill="url(#paint3_linear_1235_24798)"/>
<path d="M714.722 485.864C710.13 485.864 706.407 482.142 706.407 477.549C706.407 472.957 710.13 469.234 714.722 469.234C719.314 469.234 723.037 472.957 723.037 477.549C723.037 482.142 719.314 485.864 714.722 485.864Z" fill="#E1E4E5"/>
<path d="M184.858 387.094C178.225 387.094 172.848 381.717 172.848 375.084C172.848 368.451 178.225 363.074 184.858 363.074C191.491 363.074 196.868 368.451 196.868 375.084C196.868 381.717 191.491 387.094 184.858 387.094Z" fill="#E1E4E5"/>
<path d="M803.164 423.333C798.116 423.333 794.023 419.24 794.023 414.192C794.023 409.143 798.116 405.051 803.164 405.051C808.212 405.051 812.305 409.143 812.305 414.192C812.305 419.24 808.212 423.333 803.164 423.333Z" fill="#E1E4E5"/>
<path d="M723.163 125.142C717.55 125.142 713 120.592 713 114.979C713 109.367 717.55 104.816 723.163 104.816C728.776 104.816 733.326 109.367 733.326 114.979C733.326 120.592 728.776 125.142 723.163 125.142Z" fill="#E1E4E5"/>
<path d="M140.338 183.939C140.338 188.979 136.252 193.065 131.212 193.065C126.172 193.065 122.086 188.979 122.086 183.939C122.086 178.898 126.172 174.812 131.212 174.812C136.252 174.812 140.338 178.898 140.338 183.939Z" fill="#E1E4E5"/>
<path d="M287.598 124.714C280.893 124.714 275.458 119.278 275.458 112.574C275.458 105.869 280.893 100.434 287.598 100.434C294.303 100.434 299.738 105.869 299.738 112.574C299.738 119.278 294.303 124.714 287.598 124.714Z" fill="#E1E4E5"/>
<path d="M775.855 339.508C770.697 339.508 766.516 336.164 766.516 332.037C766.516 327.911 770.697 324.566 775.855 324.566C781.013 324.566 785.194 327.911 785.194 332.037C785.194 336.164 781.013 339.508 775.855 339.508Z" fill="#E1E4E5"/>
<path d="M654.497 56.0614C656.161 62.2704 652.476 68.6525 646.267 70.3162C640.058 71.9799 633.676 68.2952 632.012 62.0862C630.348 55.8771 634.033 49.4951 640.242 47.8314C646.451 46.1677 652.833 49.8524 654.497 56.0614Z" fill="#E1E4E5"/>
<path d="M296.769 461.086H296.902C297.689 472.248 305.99 472.42 305.99 472.42C305.99 472.42 296.837 472.599 296.837 485.496C296.837 472.599 287.683 472.42 287.683 472.42C287.683 472.42 295.981 472.248 296.769 461.086ZM240.042 414.504H240.17C240.926 425.633 248.896 425.804 248.896 425.804C248.896 425.804 240.108 425.982 240.108 438.841C240.108 425.982 231.319 425.804 231.319 425.804C231.319 425.804 239.286 425.633 240.042 414.504Z" fill="#E1E4E5"/>
</g>
<defs>
<linearGradient id="paint0_linear_1235_24798" x1="505.977" y1="754.052" x2="374.734" y2="-294.575" gradientUnits="userSpaceOnUse">
<stop stop-color="white"/>
<stop offset="1" stop-color="#EEEEEE"/>
</linearGradient>
<linearGradient id="paint1_linear_1235_24798" x1="607.369" y1="310.042" x2="513.118" y2="-113.481" gradientUnits="userSpaceOnUse">
<stop stop-color="white"/>
<stop offset="1" stop-color="#EEEEEE"/>
</linearGradient>
<linearGradient id="paint2_linear_1235_24798" x1="647.412" y1="294.637" x2="811.39" y2="164.929" gradientUnits="userSpaceOnUse">
<stop stop-color="white"/>
<stop offset="1" stop-color="#EEEEEE"/>
</linearGradient>
<linearGradient id="paint3_linear_1235_24798" x1="249.83" y1="356.788" x2="17.586" y2="141.002" gradientUnits="userSpaceOnUse">
<stop stop-color="white"/>
<stop offset="1" stop-color="#EEEEEE"/>
</linearGradient>
<clipPath id="clip0_1235_24798">
<rect width="900" height="600" fill="white"/>
</clipPath>
</defs>
</svg>
