<svg width="900" height="600" viewBox="0 0 900 600" fill="none" xmlns="http://www.w3.org/2000/svg">
<g clip-path="url(#clip0_1235_24838)">
<path d="M464.718 560.564C608.468 560.564 725 444.032 725 300.282C725 156.532 608.468 40 464.718 40C320.968 40 204.436 156.532 204.436 300.282C204.436 444.032 320.968 560.564 464.718 560.564Z" fill="url(#paint0_linear_1235_24838)"/>
<path fill-rule="evenodd" clip-rule="evenodd" d="M630.736 155L557.456 81.656C552.646 76.8405 546.935 73.0196 540.648 70.4117C534.362 67.8039 527.623 66.46 520.817 66.457H334.975C306.342 66.457 283.15 89.669 283.15 118.328V481.419C283.15 510.077 306.342 533.289 334.975 533.289H594.096C622.729 533.289 645.92 510.077 645.92 481.419V191.672C645.916 177.919 640.455 164.73 630.736 155Z" fill="white" stroke="#E1E4E5" stroke-width="4"/>
<path d="M563.583 387.391H366.928C359.687 387.391 353.818 393.26 353.818 400.501V400.502C353.818 407.742 359.687 413.612 366.928 413.612H563.583C570.823 413.612 576.693 407.742 576.693 400.502V400.501C576.693 393.26 570.823 387.391 563.583 387.391Z" fill="#E1E4E5"/>
<path d="M563.583 282.441H366.928C359.687 282.441 353.818 288.311 353.818 295.551V295.552C353.818 302.793 359.687 308.662 366.928 308.662H563.583C570.823 308.662 576.693 302.793 576.693 295.552V295.551C576.693 288.311 570.823 282.441 563.583 282.441Z" fill="#E1E4E5"/>
<path d="M488.333 177.488H366.588C359.343 177.488 353.469 183.362 353.469 190.607C353.469 197.853 359.343 203.726 366.588 203.726H488.333C495.578 203.726 501.452 197.853 501.452 190.607C501.452 183.362 495.578 177.488 488.333 177.488Z" fill="#E1E4E5"/>
<path d="M563.583 439.867H366.928C359.687 439.867 353.818 445.737 353.818 452.977V452.978C353.818 460.219 359.687 466.088 366.928 466.088H563.583C570.823 466.088 576.693 460.219 576.693 452.978V452.977C576.693 445.737 570.823 439.867 563.583 439.867Z" fill="#E1E4E5"/>
<path d="M563.583 334.914H366.928C359.687 334.914 353.818 340.784 353.818 348.024V348.025C353.818 355.266 359.687 361.135 366.928 361.135H563.583C570.823 361.135 576.693 355.266 576.693 348.025V348.024C576.693 340.784 570.823 334.914 563.583 334.914Z" fill="#E1E4E5"/>
<path d="M563.583 229.965H366.928C359.687 229.965 353.818 235.834 353.818 243.075V243.076C353.818 250.316 359.687 256.186 366.928 256.186H563.583C570.823 256.186 576.693 250.316 576.693 243.076V243.075C576.693 235.834 570.823 229.965 563.583 229.965Z" fill="#E1E4E5"/>
<path d="M217.38 321.74V278.36C217.38 246.418 243.278 220.52 275.22 220.52C307.162 220.52 333.06 246.418 333.06 278.36V321.74" stroke="#4F27AA" stroke-width="13.552" stroke-linecap="round" stroke-linejoin="round"/>
<path fill-rule="evenodd" clip-rule="evenodd" d="M347.52 480.798H202.92C186.942 480.798 174 467.856 174 451.878V350.658C174 334.679 186.942 321.738 202.92 321.738H347.52C363.498 321.738 376.44 334.679 376.44 350.658V451.878C376.44 467.856 363.498 480.798 347.52 480.798Z" fill="#4F27AA" stroke="#4F27AA" stroke-width="13.552" stroke-linecap="round" stroke-linejoin="round"/>
<path d="M274.27 435.964V399.696M274.229 378.094C268.341 378.094 263.562 382.872 263.605 388.761C263.605 394.649 268.383 399.428 274.272 399.428C280.16 399.428 284.939 394.649 284.939 388.761C284.939 382.872 280.16 378.094 274.229 378.094" stroke="white" stroke-width="28.278" stroke-linecap="round" stroke-linejoin="round"/>
</g>
<defs>
<linearGradient id="paint0_linear_1235_24838" x1="475.818" y1="852.422" x2="459.766" y2="-526.285" gradientUnits="userSpaceOnUse">
<stop stop-color="white"/>
<stop offset="1" stop-color="#EEEEEE"/>
</linearGradient>
<clipPath id="clip0_1235_24838">
<rect width="900" height="600" fill="white"/>
</clipPath>
</defs>
</svg>
