<svg width="900" height="600" viewBox="0 0 900 600" fill="none" xmlns="http://www.w3.org/2000/svg">
<g clip-path="url(#clip0_1235_24936)">
<path d="M629.274 461.645C619.74 515.833 489.829 600.328 370.236 530.082C314.616 497.409 326.922 467.498 290.842 415.92C269.335 385.179 234.571 357.633 231.959 319.607C229.697 286.784 243.107 255.185 264.355 237.544C312.142 197.869 393.676 182.046 448.815 274.872C503.953 367.698 653.846 321.888 629.274 461.645Z" fill="url(#paint0_linear_1235_24936)"/>
<path d="M726.057 194.064C715.46 212.978 692.25 215.577 655.066 211.983C627.101 209.274 601.599 207.179 573.631 191.931C554.056 181.266 538.561 166.836 527.252 152.822C514.996 137.639 497.891 120.313 506.276 103.098C517.8 79.4513 584.443 59.5353 649.155 92.1043C720.241 127.892 736.425 175.579 726.057 194.064Z" fill="url(#paint1_linear_1235_24936)"/>
<path d="M813.806 278.28C788.315 290.924 754.483 274.666 754.483 274.666C754.483 274.666 762.002 237.913 787.506 225.287C812.996 212.642 846.815 228.883 846.815 228.883C846.815 228.883 839.296 265.635 813.806 278.28Z" fill="url(#paint2_linear_1235_24936)"/>
<path d="M88.2081 368.963C115.384 385.251 154.375 370.194 154.375 370.194C154.375 370.194 149.276 328.734 122.083 312.465C94.9061 296.176 55.9331 311.215 55.9331 311.215C55.9331 311.215 61.0311 352.675 88.2081 368.963Z" fill="url(#paint3_linear_1235_24936)"/>
<path d="M763.65 179.633C755.963 179.633 749.732 185.864 749.732 193.551C749.732 201.237 755.963 207.469 763.65 207.469C771.337 207.469 777.568 201.237 777.568 193.551C777.568 185.864 771.337 179.633 763.65 179.633Z" fill="#4F27AA"/>
<path d="M582.524 416.755C570.46 416.755 560.679 426.536 560.679 438.6C560.679 450.665 570.46 460.445 582.524 460.445C594.589 460.445 604.369 450.665 604.369 438.6C604.369 426.536 594.589 416.755 582.524 416.755Z" fill="#4F27AA"/>
<path d="M318.046 189.107C311.718 189.107 306.588 194.237 306.588 200.565C306.588 206.894 311.718 212.023 318.046 212.023C324.374 212.023 329.504 206.894 329.504 200.565C329.504 194.237 324.374 189.107 318.046 189.107Z" fill="#4F27AA"/>
<path d="M189.077 347.151C181.871 347.151 176.029 341.309 176.029 334.103C176.029 326.896 181.871 321.055 189.077 321.055C196.283 321.055 202.125 326.896 202.125 334.103C202.125 341.309 196.283 347.151 189.077 347.151Z" fill="#4F27AA"/>
<path d="M658.996 251.709C655.633 251.709 652.907 248.983 652.907 245.62C652.907 242.257 655.633 239.531 658.996 239.531C662.359 239.531 665.085 242.257 665.085 245.62C665.085 248.983 662.359 251.709 658.996 251.709Z" fill="#4F27AA"/>
<path d="M648.052 502.49C643.728 502.49 640.223 498.985 640.223 494.661C640.223 490.337 643.728 486.832 648.052 486.832C652.376 486.832 655.881 490.337 655.881 494.661C655.881 498.985 652.376 502.49 648.052 502.49Z" fill="#E1E4E5"/>
<path d="M132.198 449.931C125.952 449.931 120.889 444.867 120.889 438.622C120.889 432.376 125.952 427.312 132.198 427.312C138.444 427.312 143.507 432.376 143.507 438.622C143.507 444.867 138.444 449.931 132.198 449.931Z" fill="#E1E4E5"/>
<path d="M772.17 425.948C767.416 425.948 763.563 422.095 763.563 417.341C763.563 412.588 767.416 408.734 772.17 408.734C776.923 408.734 780.777 412.588 780.777 417.341C780.777 422.095 776.923 425.948 772.17 425.948Z" fill="#E1E4E5"/>
<path d="M680.835 160.841C675.55 160.841 671.266 156.557 671.266 151.272C671.266 145.987 675.55 141.703 680.835 141.703C686.12 141.703 690.404 145.987 690.404 151.272C690.404 156.557 686.12 160.841 680.835 160.841Z" fill="#E1E4E5"/>
<path d="M166.409 257.637C167.637 262.221 164.917 266.933 160.333 268.162C155.749 269.39 151.037 266.669 149.809 262.085C148.58 257.501 151.301 252.789 155.885 251.561C160.469 250.333 165.181 253.053 166.409 257.637Z" fill="#E1E4E5"/>
<path d="M380.165 103.116C373.852 103.116 368.734 97.9981 368.734 91.6849C368.734 85.3717 373.852 80.2539 380.165 80.2539C386.478 80.2539 391.596 85.3717 391.596 91.6849C391.596 97.9981 386.478 103.116 380.165 103.116Z" fill="#E1E4E5"/>
<path d="M740.844 376.703C735.988 376.703 732.051 373.553 732.051 369.668C732.051 365.782 735.988 362.633 740.844 362.633C745.7 362.633 749.637 365.782 749.637 369.668C749.637 373.553 745.7 376.703 740.844 376.703Z" fill="#E1E4E5"/>
<path d="M592.268 72.3136C594.824 81.8536 589.162 91.6595 579.622 94.2157C570.082 96.7719 560.276 91.1105 557.72 81.5705C555.164 72.0306 560.825 62.2246 570.365 59.6684C579.905 57.1122 589.711 62.7736 592.268 72.3136Z" fill="#E1E4E5"/>
<path d="M197.253 200.633H197.378C198.12 211.143 205.936 211.305 205.936 211.305C205.936 211.305 197.317 211.473 197.317 223.617C197.317 211.473 188.698 211.305 188.698 211.305C188.698 211.305 196.511 211.143 197.253 200.633ZM184.159 475.738H184.279C184.991 486.216 192.495 486.378 192.495 486.378C192.495 486.378 184.22 486.545 184.22 498.653C184.22 486.545 175.945 486.378 175.945 486.378C175.945 486.378 183.446 486.216 184.159 475.738Z" fill="#E1E4E5"/>
<path d="M609.381 438.948L556.892 401.156M327.595 438.486L289.803 490.975" stroke="#2E2445" stroke-width="30.355" stroke-linecap="round" stroke-linejoin="round"/>
<path fill-rule="evenodd" clip-rule="evenodd" d="M338.965 170.936C414.999 123.887 514.758 147.382 561.806 223.416C608.855 299.449 585.341 399.211 509.324 446.237C433.29 493.285 333.528 469.771 286.503 393.754C239.457 317.74 262.948 217.962 338.965 170.936Z" fill="#4F27AA"/>
<path d="M338.965 170.936C414.999 123.887 514.758 147.382 561.806 223.416C608.855 299.449 585.341 399.211 509.324 446.237C433.29 493.285 333.528 469.771 286.503 393.754C239.457 317.74 262.948 217.962 338.965 170.936" stroke="#4F27AA" stroke-width="30.355" stroke-linecap="round" stroke-linejoin="round"/>
<path d="M302.336 125.414C277.322 122.515 251.544 132.555 235.792 154.433C222.234 173.289 219.399 196.427 225.632 217.084M481.802 96.1972C504.604 85.5132 532.216 86.8622 554.094 102.614C572.953 116.192 582.981 137.236 583.622 158.803" stroke="#2E2445" stroke-width="30.355" stroke-linecap="round" stroke-linejoin="round"/>
<path d="M370.628 336.593L423.129 328.046L423.133 328.073L379.18 389.12L379.156 388.975L431.656 380.428M450.991 227.352L503.491 218.805L503.496 218.831L459.542 279.878L459.519 279.734L512.019 271.187M336.991 219.352L389.491 210.805L389.496 210.831L345.542 271.878L345.519 271.734L398.019 263.187" stroke="white" stroke-width="18" stroke-linecap="round" stroke-linejoin="round"/>
<path d="M641.34 528.68C641.34 528.68 614.094 492.02 592.144 482.772C570.426 473.623 510.007 461.337 470.908 430.82C470.54 430.537 470.282 430.135 470.18 429.683C470.077 429.23 470.135 428.756 470.345 428.343C471.901 425.338 477.032 419.426 492.758 424.347C513.218 430.787 529.01 435.312 529.01 435.312C529.01 435.312 482.263 355.42 471.206 332.829C469.021 328.37 467.763 324.539 467.167 321.203C465.313 310.8 479.416 305.681 484.879 314.73L516.86 367.673C516.86 367.673 516.562 360.638 522.19 357.831C527.52 355.188 537.882 360.208 542.418 368.796C542.418 368.796 542.749 360.869 550.827 359.482C558.905 358.095 566.817 366.351 569.83 371.14C569.83 371.14 568.506 363.511 574.035 360.836C579.563 358.161 590.455 365.129 593.038 368.267C595.62 371.405 621.609 393.665 643.194 442.314L701.23 478.875C701.23 478.875 703.812 504.669 641.34 528.68Z" fill="#F8AE9D"/>
</g>
<defs>
<linearGradient id="paint0_linear_1235_24936" x1="429.676" y1="753.346" x2="439.189" y2="-175.071" gradientUnits="userSpaceOnUse">
<stop stop-color="white"/>
<stop offset="1" stop-color="#EEEEEE"/>
</linearGradient>
<linearGradient id="paint1_linear_1235_24936" x1="654.664" y1="316.643" x2="560.205" y2="-107.819" gradientUnits="userSpaceOnUse">
<stop stop-color="white"/>
<stop offset="1" stop-color="#EEEEEE"/>
</linearGradient>
<linearGradient id="paint2_linear_1235_24936" x1="715.92" y1="317.721" x2="926.165" y2="151.417" gradientUnits="userSpaceOnUse">
<stop stop-color="white"/>
<stop offset="1" stop-color="#EEEEEE"/>
</linearGradient>
<linearGradient id="paint3_linear_1235_24936" x1="193.375" y1="421.393" x2="-25.2999" y2="218.216" gradientUnits="userSpaceOnUse">
<stop stop-color="white"/>
<stop offset="1" stop-color="#EEEEEE"/>
</linearGradient>
<clipPath id="clip0_1235_24936">
<rect width="900" height="600" fill="white"/>
</clipPath>
</defs>
</svg>
