<svg width="900" height="600" viewBox="0 0 900 600" fill="none" xmlns="http://www.w3.org/2000/svg">
<g clip-path="url(#clip0_1235_18460)">
<path d="M671.157 171.197C653.212 112.625 498.109 37.0294 375.572 131.005C318.582 174.714 336.271 206.082 303.458 268.007C283.899 304.916 249.253 340.108 251.568 382.482C253.558 419.06 272.697 452.141 298.588 468.728C356.816 506.031 449.072 512.364 497.302 402.254C545.532 292.144 717.422 322.262 671.157 171.197Z" fill="url(#paint0_linear_1235_18460)"/>
<path d="M740.703 350.516C727.353 333.354 703.949 334.264 667.619 343.414C640.296 350.301 615.325 356.21 589.884 375.531C572.077 389.047 558.88 405.682 549.772 421.278C539.901 438.173 525.543 457.924 536.444 473.733C551.423 495.449 620.495 505.185 679.767 463.169C744.877 417.003 753.76 367.288 740.703 350.516Z" fill="url(#paint1_linear_1235_18460)"/>
<path d="M305.248 191.019C285.094 244.758 264.922 301.541 228.022 336.733C189.965 373.045 177.719 360.231 168.236 337.185C158.753 314.138 157.352 253.887 209.575 205.4C261.812 156.899 324.103 140.725 305.248 191.019Z" fill="url(#paint2_linear_1235_18460)"/>
<path d="M343.026 241.613C343.026 270.038 353.135 296.104 369.957 316.458C384.511 334.054 392.592 356.08 392.592 378.871V411.745C392.592 432.646 409.753 449.745 430.73 449.745H491.763C512.74 449.745 529.901 432.646 529.901 411.745V378.812C529.901 355.97 538.102 333.965 552.646 316.308C569.537 295.806 579.626 269.53 579.456 240.896C579.067 175.935 526.435 123.822 461.246 123.822C454.004 123.822 446.912 124.479 440.02 125.723C438.491 126.002 436.983 126.3 435.475 126.639C382.573 138.343 343.026 185.37 343.026 241.613Z" fill="#4F27AA"/>
<path d="M483.572 219.84C481.754 239.403 463.172 258.033 463.172 258.033C463.172 258.033 444.804 235.958 446.622 216.395C448.453 196.828 458.19 181.74 468.397 182.697C478.6 183.64 485.39 200.277 483.572 219.84ZM445.04 257.777C457.854 269.302 461.23 292.136 461.23 292.136C461.23 292.136 436.081 293.516 423.262 281.979C410.444 270.443 404.931 255.686 410.953 249.003C416.964 242.324 432.225 246.252 445.04 257.777ZM464.762 334.468C465.463 337.078 465.807 338.919 465.896 339.386C465.904 339.44 465.918 339.48 465.916 339.504L465.919 339.514C465.919 339.514 465.909 339.518 465.906 339.508L465.832 339.523C465.585 339.532 464.849 339.57 463.734 339.597C457.768 339.711 441.022 339.254 431.47 330.983C419.706 320.795 414.483 307.547 419.796 301.421C425.106 295.286 438.951 298.57 450.716 308.759C455.982 313.325 459.584 319.956 461.942 325.909C463.052 328.703 463.994 331.562 464.762 334.468ZM498.459 284.547C484.221 294.263 461.234 292.147 461.234 292.147C461.234 292.147 465.865 267.375 480.102 257.659C494.34 247.944 509.985 246.086 515.058 253.505C520.135 260.935 512.697 274.831 498.459 284.547Z" fill="white"/>
<path d="M496.78 329.146C484.911 339.21 464.073 339.465 464.073 339.465C464.073 339.465 465.904 316.785 477.772 306.721C489.64 296.658 503.522 293.512 508.773 299.708C514.024 305.904 508.658 319.079 496.78 329.146Z" fill="white"/>
<path d="M465.883 249.832C465.812 250.115 460.504 277.386 468.78 344.909C469.415 350.079 470.098 355.243 470.829 360.4L470.502 360.446L468.099 360.78L468.095 360.767L468.082 360.772L467.989 360.791C467.677 360.803 466.748 360.851 465.341 360.884C464.524 355.134 463.77 349.374 463.079 343.607C454.979 276.493 460.252 249.88 460.484 248.693L465.883 249.832Z" fill="white"/>
<path d="M483.764 452.942L483.676 453.386L482.538 458.995L482.241 460.473V460.486L481.936 461.972L480.806 467.577L480.508 469.054L480.501 469.067L480.203 470.559L480.034 471.378C479.458 474.224 474.408 476.395 468.363 476.395H454.75C453.308 476.395 451.934 476.272 450.654 476.046H450.647C449.567 475.858 448.507 475.574 447.479 475.195L447.405 475.169C446.686 474.905 445.996 474.566 445.347 474.158C444.128 473.382 443.323 472.454 443.093 471.429L442.612 469.255L442.307 467.886V467.882L442.301 467.852V467.847L442.003 466.509L440.845 461.31L440.541 459.945L440.534 459.915L440.236 458.568L438.984 452.938H483.764V452.942Z" fill="#2E2445"/>
<path d="M304.643 313.265C308.765 313.265 312.106 316.607 312.106 320.728C312.106 324.85 308.765 328.191 304.643 328.191C300.521 328.191 297.18 324.85 297.18 320.728C297.18 316.607 300.521 313.265 304.643 313.265Z" fill="#4F27AA"/>
<path d="M657.648 149.621C648.059 155.158 635.797 151.872 630.261 142.283C624.724 132.694 628.01 120.432 637.599 114.896C647.189 109.359 659.45 112.645 664.987 122.234C670.523 131.823 667.238 144.085 657.648 149.621Z" fill="#4F27AA"/>
<path d="M663.626 229.261C659.313 231.751 653.798 230.273 651.308 225.961C648.818 221.648 650.296 216.133 654.609 213.643C658.921 211.153 664.436 212.631 666.926 216.944C669.416 221.256 667.938 226.771 663.626 229.261Z" fill="#F8AE9D"/>
<path d="M265.604 206.567C261.188 206.567 257.608 210.147 257.608 214.563C257.608 218.979 261.188 222.559 265.604 222.559C270.02 222.559 273.6 218.979 273.6 214.563C273.6 210.147 270.02 206.567 265.604 206.567Z" fill="#E1E4E5"/>
<path d="M739.96 414.355C745.504 411.154 747.404 404.064 744.203 398.519C741.001 392.974 733.911 391.074 728.367 394.276C722.822 397.477 720.922 404.567 724.123 410.112C727.324 415.657 734.415 417.557 739.96 414.355Z" fill="#E1E4E5"/>
<path d="M175.634 409.222C183.878 409.222 190.561 415.905 190.561 424.149C190.561 432.393 183.878 439.076 175.634 439.076C167.39 439.076 160.707 432.393 160.707 424.149C160.707 415.905 167.39 409.222 175.634 409.222Z" fill="#E1E4E5"/>
<path d="M505.128 94.8238C500.199 97.6698 493.896 95.9809 491.05 91.0516C488.204 86.1223 489.893 79.8192 494.822 76.9733C499.751 74.1274 506.054 75.8163 508.9 80.7456C511.746 85.6749 510.057 91.9779 505.128 94.8238Z" fill="#E1E4E5"/>
<path d="M325.967 147.52C330.089 147.52 333.43 144.178 333.43 140.057C333.43 135.935 330.089 132.594 325.967 132.594C321.845 132.594 318.504 135.935 318.504 140.057C318.504 144.178 321.845 147.52 325.967 147.52Z" fill="#4F27AA"/>
<path d="M649.797 441.896C638.941 435.628 625.059 439.347 618.791 450.204C612.523 461.06 616.243 474.942 627.099 481.21C637.955 487.477 651.837 483.758 658.105 472.902C664.373 462.045 660.653 448.163 649.797 441.896Z" fill="#4F27AA"/>
<path d="M218.94 300.42C214.057 297.601 207.813 299.274 204.994 304.157C202.175 309.04 203.848 315.283 208.731 318.103C213.613 320.922 219.857 319.249 222.676 314.366C225.495 309.483 223.822 303.239 218.94 300.42Z" fill="#F8AE9D"/>
<path d="M288.117 428.381C283.112 428.381 279.054 424.801 279.054 420.385C279.054 415.969 283.112 412.389 288.117 412.389C293.122 412.389 297.18 415.969 297.18 420.385C297.18 424.801 293.122 428.381 288.117 428.381Z" fill="#E1E4E5"/>
<path d="M693.26 295.076C696.127 296.731 697.109 300.397 695.454 303.264C693.799 306.131 690.133 307.113 687.266 305.458C684.399 303.803 683.417 300.137 685.072 297.27C686.727 294.403 690.393 293.421 693.26 295.076Z" fill="#E1E4E5"/>
<path d="M195.768 225.792C205.189 225.792 212.827 218.393 212.827 209.266C212.827 200.139 205.189 192.74 195.768 192.74C186.347 192.74 178.709 200.139 178.709 209.266C178.709 218.393 186.347 225.792 195.768 225.792Z" fill="#E1E4E5"/>
<path d="M627.375 349.689C620.626 345.793 611.997 348.105 608.1 354.854C604.204 361.603 606.516 370.232 613.265 374.129C620.014 378.025 628.643 375.713 632.54 368.964C636.436 362.215 634.124 353.586 627.375 349.689Z" fill="#E1E4E5"/>
<path d="M573.439 418.688C572.377 479.089 523.319 527.703 462.968 527.703C402.627 527.703 353.569 479.089 352.507 418.688H573.439Z" fill="white" stroke="#E1E4E5" stroke-width="4"/>
<path d="M350.527 533.034C351.484 527.448 356.383 523.174 362.309 523.174H563.658C569.565 523.174 574.464 527.44 575.42 533.034H350.527Z" fill="#E1E4E5" stroke="#E1E4E5" stroke-width="4"/>
<path d="M577.589 416.688H346.225V436.944H577.589V416.688Z" fill="#E1E4E5"/>
</g>
<defs>
<linearGradient id="paint0_linear_1235_18460" x1="410.715" y1="-123.821" x2="548.204" y2="900.738" gradientUnits="userSpaceOnUse">
<stop stop-color="white"/>
<stop offset="1" stop-color="#EEEEEE"/>
</linearGradient>
<linearGradient id="paint1_linear_1235_18460" x1="651.497" y1="239.698" x2="621.604" y2="674.768" gradientUnits="userSpaceOnUse">
<stop stop-color="white"/>
<stop offset="1" stop-color="#EEEEEE"/>
</linearGradient>
<linearGradient id="paint2_linear_1235_18460" x1="229.578" y1="52.6074" x2="254.871" y2="570.091" gradientUnits="userSpaceOnUse">
<stop stop-color="white"/>
<stop offset="1" stop-color="#EEEEEE"/>
</linearGradient>
<clipPath id="clip0_1235_18460">
<rect width="900" height="600" fill="white"/>
</clipPath>
</defs>
</svg>
