<svg width="900" height="600" viewBox="0 0 900 600" fill="none" xmlns="http://www.w3.org/2000/svg">
<g clip-path="url(#clip0_1235_24962)">
<path d="M205.409 410.525C207.823 471.786 338.62 584.532 481.188 524.871C547.495 497.121 538.384 462.25 585.945 410.701C614.294 379.977 656.804 354.765 665.381 313.169C672.792 277.264 662.715 240.366 641.894 217.706C595.068 166.743 507.408 137.066 432.629 231.309C357.85 325.551 199.199 252.529 205.409 410.525Z" fill="url(#paint0_linear_1235_24962)"/>
<path d="M170.667 209.347C183.686 232.581 212.199 235.774 257.877 231.359C292.231 228.032 323.559 225.457 357.915 206.726C381.962 193.624 400.997 175.899 414.89 158.682C429.945 140.032 450.959 118.746 440.657 97.5985C426.501 68.5495 344.634 44.0845 265.139 84.0935C177.813 128.057 157.932 186.638 170.667 209.347Z" fill="url(#paint1_linear_1235_24962)"/>
<path d="M90.9802 281.596C117.482 294.743 152.658 277.838 152.658 277.838C152.658 277.838 144.84 239.627 118.324 226.498C91.8212 213.352 56.6602 230.237 56.6602 230.237C56.6602 230.237 64.4772 268.449 90.9802 281.596Z" fill="url(#paint2_linear_1235_24962)"/>
<path d="M807.159 372.043C778.903 388.978 738.364 373.323 738.364 373.323C738.364 373.323 743.665 330.217 771.938 313.301C800.194 296.366 840.715 312.002 840.715 312.002C840.715 312.002 835.415 355.108 807.159 372.043Z" fill="url(#paint3_linear_1235_24962)"/>
<path d="M382.748 549.089C387.243 549.089 390.888 545.444 390.888 540.949C390.888 536.453 387.243 532.809 382.748 532.809C378.252 532.809 374.608 536.453 374.608 540.949C374.608 545.444 378.252 549.089 382.748 549.089Z" fill="#E1E4E5"/>
<path d="M761.422 456.227C767.916 456.227 773.18 450.963 773.18 444.469C773.18 437.975 767.916 432.711 761.422 432.711C754.928 432.711 749.664 437.975 749.664 444.469C749.664 450.963 754.928 456.227 761.422 456.227Z" fill="#E1E4E5"/>
<path d="M96.034 431.293C100.976 431.293 104.983 427.286 104.983 422.344C104.983 417.401 100.976 413.395 96.034 413.395C91.0916 413.395 87.085 417.401 87.085 422.344C87.085 427.286 91.0916 431.293 96.034 431.293Z" fill="#E1E4E5"/>
<path d="M190.997 155.66C196.492 155.66 200.946 151.205 200.946 145.711C200.946 140.216 196.492 135.762 190.997 135.762C185.502 135.762 181.048 140.216 181.048 145.711C181.048 151.205 185.502 155.66 190.997 155.66Z" fill="#E1E4E5"/>
<path d="M805.004 257.344C805.004 262.278 809.004 266.278 813.938 266.278C818.872 266.278 822.872 262.278 822.872 257.344C822.872 252.41 818.872 248.41 813.938 248.41C809.004 248.41 805.004 252.41 805.004 257.344Z" fill="#E1E4E5"/>
<path d="M503.608 95.6372C510.172 95.6372 515.493 90.3161 515.493 83.7522C515.493 77.1883 510.172 71.8672 503.608 71.8672C497.044 71.8672 491.723 77.1883 491.723 83.7522C491.723 90.3161 497.044 95.6372 503.608 95.6372Z" fill="#E1E4E5"/>
<path d="M128.605 380.089C133.654 380.089 137.747 376.814 137.747 372.775C137.747 368.736 133.654 365.461 128.605 365.461C123.556 365.461 119.463 368.736 119.463 372.775C119.463 376.814 123.556 380.089 128.605 380.089Z" fill="#E1E4E5"/>
<path d="M283.081 63.6163C280.424 73.535 286.31 83.7302 296.229 86.3879C306.147 89.0457 316.343 83.1594 319 73.2407C321.658 63.322 315.772 53.1267 305.853 50.469C295.934 47.8113 285.739 53.6975 283.081 63.6163Z" fill="#E1E4E5"/>
<path d="M693.783 197.027H693.653C692.882 207.954 684.755 208.122 684.755 208.122C684.755 208.122 693.716 208.297 693.716 220.923C693.716 208.297 702.677 208.122 702.677 208.122C702.677 208.122 694.554 207.954 693.783 197.027ZM707.398 483.057H707.273C706.532 493.951 698.73 494.119 698.73 494.119C698.73 494.119 707.334 494.294 707.334 506.882C707.334 494.294 715.937 494.119 715.937 494.119C715.937 494.119 708.138 493.951 707.398 483.057Z" fill="#E1E4E5"/>
<path d="M724.197 532.697L649.661 458.16" stroke="#4F27AA" stroke-width="40.114" stroke-linecap="round" stroke-linejoin="round"/>
<path d="M494.269 511.419C612.977 511.419 709.209 415.187 709.209 296.479C709.209 177.771 612.977 81.5391 494.269 81.5391C375.561 81.5391 279.329 177.771 279.329 296.479C279.329 415.187 375.561 511.419 494.269 511.419Z" fill="white" stroke="#4F27AA" stroke-width="36.795" stroke-linecap="round" stroke-linejoin="round"/>
<path fill-rule="evenodd" clip-rule="evenodd" d="M604.317 185.898C665.197 246.763 665.197 345.57 604.317 406.538C543.437 467.402 444.606 467.402 383.622 406.538C322.743 345.674 322.743 246.867 383.622 185.898C444.606 124.93 543.385 124.93 604.317 185.898Z" fill="url(#paint4_linear_1235_24962)"/>
<path fill-rule="evenodd" clip-rule="evenodd" d="M582.241 297.042C582.241 308.521 579.981 319.888 575.588 330.493C571.195 341.099 564.756 350.735 556.639 358.852C548.522 366.969 538.886 373.408 528.28 377.801C517.675 382.193 506.308 384.454 494.829 384.454C483.35 384.454 471.983 382.194 461.377 377.801C450.772 373.408 441.135 366.969 433.018 358.852C424.901 350.735 418.462 341.099 414.069 330.494C409.677 319.888 407.416 308.521 407.416 297.042C407.416 285.562 409.676 274.195 414.069 263.59C418.462 252.984 424.9 243.347 433.017 235.23C441.134 227.113 450.771 220.674 461.377 216.282C471.983 211.889 483.35 209.629 494.829 209.629C506.308 209.629 517.675 211.889 528.281 216.282C538.886 220.675 548.523 227.114 556.64 235.231C564.757 243.348 571.195 252.985 575.588 263.59C579.981 274.196 582.241 285.563 582.241 297.042Z" fill="#4F27AA"/>
<path d="M476.691 295.103C492.913 295.103 506.063 281.953 506.063 265.731C506.063 249.51 492.913 236.359 476.691 236.359C460.469 236.359 447.319 249.51 447.319 265.731C447.319 281.953 460.469 295.103 476.691 295.103Z" fill="white"/>
<path d="M191.64 345.432V306.392C191.64 277.646 215.08 254.34 243.991 254.34C272.902 254.34 296.342 277.646 296.342 306.392V345.432" stroke="#2E2445" stroke-width="23" stroke-linecap="round" stroke-linejoin="round"/>
<path fill-rule="evenodd" clip-rule="evenodd" d="M319.921 514.298H168.521C151.792 514.298 138.241 500.747 138.241 484.018V378.038C138.241 361.308 151.792 347.758 168.521 347.758H319.921C336.651 347.758 350.201 361.308 350.201 378.038V484.018C350.201 500.747 336.651 514.298 319.921 514.298Z" fill="#2E2445" stroke="#2E2445" stroke-width="13.552" stroke-linecap="round" stroke-linejoin="round"/>
<path d="M243.226 467.354V429.38M243.184 406.762C237.019 406.762 232.015 411.765 232.06 417.93C232.06 424.095 237.063 429.099 243.229 429.099C249.394 429.099 254.397 424.095 254.397 417.93C254.397 411.765 249.394 406.762 243.184 406.762" stroke="white" stroke-width="28.278" stroke-linecap="round" stroke-linejoin="round"/>
</g>
<defs>
<linearGradient id="paint0_linear_1235_24962" x1="382.132" y1="762.497" x2="510.615" y2="-264.07" gradientUnits="userSpaceOnUse">
<stop stop-color="white"/>
<stop offset="1" stop-color="#EEEEEE"/>
</linearGradient>
<linearGradient id="paint1_linear_1235_24962" x1="258.37" y1="359.928" x2="374.409" y2="-161.502" gradientUnits="userSpaceOnUse">
<stop stop-color="white"/>
<stop offset="1" stop-color="#EEEEEE"/>
</linearGradient>
<linearGradient id="paint2_linear_1235_24962" x1="192.752" y1="322.604" x2="-25.8409" y2="149.696" gradientUnits="userSpaceOnUse">
<stop stop-color="white"/>
<stop offset="1" stop-color="#EEEEEE"/>
</linearGradient>
<linearGradient id="paint3_linear_1235_24962" x1="697.815" y1="426.556" x2="925.174" y2="215.31" gradientUnits="userSpaceOnUse">
<stop stop-color="white"/>
<stop offset="1" stop-color="#EEEEEE"/>
</linearGradient>
<linearGradient id="paint4_linear_1235_24962" x1="500.622" y1="627.12" x2="491.001" y2="-199.246" gradientUnits="userSpaceOnUse">
<stop stop-color="white"/>
<stop offset="1" stop-color="#EEEEEE"/>
</linearGradient>
<clipPath id="clip0_1235_24962">
<rect width="900" height="600" fill="white"/>
</clipPath>
</defs>
</svg>
