<svg width="479" height="319" viewBox="0 0 479 319" fill="none" xmlns="http://www.w3.org/2000/svg">
<g clip-path="url(#clip0_1334_6709)">
<path d="M423.49 206.606H390.047C381.852 206.606 374.987 201.035 374.987 193.978C374.987 190.449 376.759 187.292 379.416 185.063C382.074 182.835 385.839 181.349 390.047 181.349H394.92C399.128 181.349 402.893 179.863 405.551 177.635C408.209 175.406 409.98 172.249 409.98 168.72C409.98 161.849 403.336 156.092 394.92 156.092H292.773C290.105 156.092 288.389 152.815 288.389 150.149C288.389 143.463 281.967 138.078 273.994 138.078H235.982C235.028 138.066 234.117 137.679 233.446 137.002C232.776 136.324 232.4 135.409 232.4 134.456C232.4 133.503 232.776 132.589 233.446 131.911C234.117 131.233 235.028 130.846 235.982 130.835H381.631C388.054 130.835 394.034 128.606 398.242 125.077C402.45 121.549 405.108 116.535 405.108 111.149C405.108 100.192 394.477 91.4632 381.631 91.4632H306.405C294.602 91.4632 282.918 82.3632 271.115 82.3632H229.115C222.954 82.3632 217.96 77.3741 217.96 71.22C217.96 65.066 222.954 60.0774 229.115 60.0774H323.162C327.591 60.0774 331.799 58.5914 334.678 56.1771C337.557 53.7628 339.329 50.4202 339.329 46.5199C339.329 39.0914 332.02 32.9629 323.162 32.9629H106.336C101.907 32.9629 97.6985 34.4484 94.8192 36.8627C91.9398 39.277 90.1681 42.6201 90.1681 46.5199C90.1681 53.9488 97.4771 60.0774 106.336 60.0774H111.873C119.182 60.0774 125.383 65.0915 125.383 71.4061C125.383 74.5632 123.833 77.3486 121.396 79.3917C118.96 81.4344 115.638 82.7343 111.873 82.7343H85.0742C80.4231 82.7343 75.9939 84.4059 72.8932 87.0057C69.7925 89.6061 67.7993 93.1343 67.7993 97.2201C67.7993 105.206 75.5506 111.52 84.8528 111.52H112.095C120.953 111.52 128.262 117.649 128.262 125.077C128.262 128.792 126.491 132.135 123.611 134.549C120.732 136.963 116.746 138.449 112.316 138.449H87.9535C83.9672 138.449 80.4231 139.749 77.7657 141.977C75.1078 144.206 73.5574 147.178 73.5574 150.52C73.5574 157.206 79.9803 162.592 87.9535 162.592H107.665C118.96 162.592 128.04 170.206 128.04 179.677C128.04 184.32 125.826 188.777 122.061 191.749C118.296 194.906 113.202 196.764 107.665 196.764H80.2017C74.665 196.764 69.5711 198.621 66.0275 201.778C62.2621 204.749 60.0475 209.021 60.0475 213.664C60.0475 222.949 69.1283 230.564 80.2017 230.564H165.003C174.368 230.564 183.568 235.763 192.933 235.763H208.378C214.282 235.763 219.068 240.545 219.068 246.442C219.068 252.34 214.282 257.12 208.378 257.12H170.786C165.913 257.12 161.705 258.792 158.604 261.392C155.504 263.992 153.51 267.707 153.51 271.606C153.51 279.592 161.262 286.092 170.786 286.092H401.121C405.994 286.092 410.202 284.42 413.303 281.821C416.403 279.221 418.396 275.507 418.396 271.606C418.396 263.621 410.645 257.12 401.121 257.12H394.255C387.168 257.12 381.631 252.292 381.631 246.535C381.631 243.564 382.96 240.964 385.397 239.107C387.611 237.249 390.933 235.949 394.477 235.949H423.49C428.363 235.949 432.571 234.278 435.671 231.678C438.772 229.078 440.765 225.363 440.765 221.463C440.765 213.106 433.014 206.606 423.49 206.606Z" fill="url(#paint0_linear_1334_6709)"/>
<path fill-rule="evenodd" clip-rule="evenodd" d="M152.142 148.528V96.0704C152.142 85.3057 159.145 75.7905 169.43 72.5798L243.339 49.507C248.124 48.0133 253.251 48.0133 258.036 49.507L331.945 72.5798C342.23 75.7905 349.232 85.3057 349.232 96.0704V148.528C349.232 199.822 317.381 245.736 269.303 263.746L255.013 269.099C252.224 270.143 249.151 270.143 246.362 269.099L232.072 263.746C183.993 245.736 152.142 199.822 152.142 148.528Z" fill="#4F27AA"/>
<g clip-path="url(#clip1_1334_6709)">
<path d="M249.736 111.001C246.451 114.062 243.816 117.754 241.988 121.855C240.16 125.957 239.178 130.385 239.099 134.874C239.019 139.364 239.845 143.824 241.527 147.987C243.209 152.151 245.712 155.933 248.887 159.108C252.062 162.283 255.844 164.786 260.008 166.468C264.171 168.15 268.631 168.976 273.121 168.897C277.61 168.817 282.038 167.835 286.14 166.007C290.241 164.179 293.933 161.545 296.994 158.259C295.576 181.599 276.2 200.083 252.504 200.083C227.877 200.083 207.917 180.123 207.917 155.5C207.917 131.804 226.401 112.428 249.736 111.001Z" fill="white"/>
</g>
<path d="M47.7983 169.096C56.7476 164.661 68.6263 170.364 68.6263 170.364C68.6263 170.364 65.9865 183.254 57.0318 187.683C48.082 192.118 36.2086 186.421 36.2086 186.421C36.2086 186.421 38.8484 173.531 47.7983 169.096Z" fill="url(#paint1_linear_1334_6709)"/>
<path d="M433.149 133.733C424.862 128.772 412.974 133.358 412.974 133.358C412.974 133.358 414.529 145.986 422.82 150.942C431.106 155.903 442.989 151.322 442.989 151.322C442.989 151.322 441.435 138.694 433.149 133.733Z" fill="url(#paint2_linear_1334_6709)"/>
<path d="M148.063 45.3388C150.865 45.3388 153.137 47.608 153.137 50.4072C153.137 53.2064 150.865 55.4756 148.063 55.4756C145.261 55.4756 142.99 53.2064 142.99 50.4072C142.99 47.608 145.261 45.3388 148.063 45.3388Z" fill="#E1E4E5"/>
<path d="M365.107 63.0171C369.155 63.0171 372.436 66.2948 372.436 70.3381C372.436 74.3814 369.155 77.6592 365.107 77.6592C361.059 77.6592 357.778 74.3814 357.778 70.3381C357.778 66.2948 361.059 63.0171 365.107 63.0171Z" fill="#E1E4E5"/>
<path d="M52.7662 69.7215C55.8466 69.7215 58.3439 72.2161 58.3439 75.2934C58.3439 78.3706 55.8466 80.8652 52.7662 80.8652C49.6857 80.8652 47.1885 78.3706 47.1885 75.2934C47.1885 72.2161 49.6857 69.7215 52.7662 69.7215Z" fill="#E1E4E5"/>
<path d="M416.357 250.228C416.357 247.156 418.851 244.665 421.926 244.665C425.001 244.665 427.495 247.156 427.495 250.228C427.495 253.3 425.001 255.791 421.926 255.791C418.851 255.791 416.357 253.3 416.357 250.228Z" fill="#E1E4E5"/>
<path d="M329.185 262.343C333.276 262.343 336.593 265.656 336.593 269.743C336.593 273.83 333.276 277.144 329.185 277.144C325.094 277.144 321.777 273.83 321.777 269.743C321.777 265.656 325.094 262.343 329.185 262.343Z" fill="#E1E4E5"/>
<path d="M107.194 120.315C110.342 120.315 112.893 122.354 112.893 124.87C112.893 127.385 110.342 129.424 107.194 129.424C104.047 129.424 101.496 127.385 101.496 124.87C101.496 122.354 104.047 120.315 107.194 120.315Z" fill="#E1E4E5"/>
<path d="M136.284 252.144C135.269 248.359 137.517 244.468 141.306 243.454C145.095 242.44 148.99 244.686 150.005 248.471C151.02 252.256 148.772 256.146 144.983 257.161C141.194 258.175 137.299 255.929 136.284 252.144Z" fill="#E1E4E5"/>
<path d="M413.827 90.0426H413.75C413.288 83.259 408.425 83.1548 408.425 83.1548C408.425 83.1548 413.787 83.0464 413.787 75.208C413.787 83.0464 419.15 83.1548 419.15 83.1548C419.15 83.1548 414.289 83.259 413.827 90.0426Z" fill="#E1E4E5"/>
</g>
<defs>
<linearGradient id="paint0_linear_1334_6709" x1="258.524" y1="428.011" x2="253.334" y2="-242.45" gradientUnits="userSpaceOnUse">
<stop stop-color="#FFA6A6"/>
<stop offset="1" stop-color="#EEEEEE"/>
</linearGradient>
<linearGradient id="paint1_linear_1334_6709" x1="82.166" y1="155.263" x2="8.40776" y2="213.666" gradientUnits="userSpaceOnUse">
<stop stop-color="white"/>
<stop offset="1" stop-color="#EEEEEE"/>
</linearGradient>
<linearGradient id="paint2_linear_1334_6709" x1="401.083" y1="117.764" x2="467.693" y2="179.718" gradientUnits="userSpaceOnUse">
<stop stop-color="white"/>
<stop offset="1" stop-color="#EEEEEE"/>
</linearGradient>
<clipPath id="clip0_1334_6709">
<rect width="479" height="319" fill="white"/>
</clipPath>
<clipPath id="clip1_1334_6709">
<rect width="107" height="107" fill="white" transform="translate(199 102)"/>
</clipPath>
</defs>
</svg>
