<svg width="900" height="600" viewBox="0 0 900 600" fill="none" xmlns="http://www.w3.org/2000/svg">
<g clip-path="url(#clip0_1235_25066)">
<path d="M757.281 383.609H697.812C683.24 383.609 671.031 373.675 671.031 361.092C671.031 354.8 674.182 349.171 678.908 345.197C683.634 341.224 690.329 338.575 697.812 338.575H706.476C713.959 338.575 720.654 335.926 725.38 331.952C730.107 327.978 733.257 322.349 733.257 316.058C733.257 303.806 721.442 293.541 706.476 293.541H524.854C520.099 293.541 517.042 287.699 517.042 282.944C517.042 271.024 505.621 261.421 491.443 261.421H423.86C422.147 261.421 420.505 260.741 419.294 259.53C418.083 258.319 417.403 256.677 417.403 254.964C417.403 253.251 418.083 251.609 419.294 250.398C420.505 249.187 422.147 248.507 423.86 248.507H682.846C694.268 248.507 704.901 244.533 712.384 238.242C719.867 231.95 724.593 223.01 724.593 213.407C724.593 193.87 705.689 178.307 682.846 178.307H549.095C528.098 178.307 507.32 162.081 486.323 162.081H411.671C400.699 162.081 391.803 153.186 391.803 142.213C391.803 131.24 400.699 122.345 411.671 122.345H578.874C586.751 122.345 594.234 119.696 599.354 115.392C604.474 111.087 607.624 105.126 607.624 98.172C607.624 84.927 594.628 74 578.874 74H193.311C185.435 74 177.952 76.65 172.832 80.954C167.712 85.259 164.561 91.219 164.561 98.173C164.561 111.418 177.558 122.345 193.311 122.345H203.157C216.154 122.345 227.181 131.286 227.181 142.544C227.181 148.174 224.424 153.141 220.092 156.783C215.76 160.426 209.852 162.743 203.157 162.743H155.503C147.233 162.743 139.356 165.724 133.842 170.359C128.329 174.995 124.784 181.287 124.784 188.572C124.784 202.81 138.568 214.069 155.109 214.069H203.551C219.304 214.069 232.301 224.996 232.301 238.242C232.301 244.864 229.15 250.825 224.03 255.129C218.91 259.434 211.821 262.083 203.945 262.083H160.623C153.534 262.083 147.233 264.401 142.507 268.375C137.781 272.348 135.024 277.646 135.024 283.607C135.024 295.527 146.445 305.13 160.623 305.13H195.674C215.76 305.13 231.907 318.707 231.907 335.594C231.907 343.873 227.969 351.82 221.273 357.118C214.578 362.747 205.52 366.059 195.674 366.059H146.839C136.993 366.059 127.935 369.37 121.634 374.999C114.938 380.297 111 387.913 111 396.192C111 412.748 127.147 426.325 146.839 426.325H297.627C314.283 426.325 330.643 435.596 347.3 435.596H374.732C385.248 435.596 393.773 444.121 393.773 454.637C393.773 465.152 385.248 473.677 374.732 473.677H307.917C299.252 473.677 291.77 476.657 286.256 481.293C280.742 485.929 277.198 492.551 277.198 499.505C277.198 513.744 290.982 525.333 307.917 525.333H717.504C726.168 525.333 733.651 522.353 739.165 517.717C744.678 513.081 748.223 506.459 748.223 499.505C748.223 485.266 734.439 473.677 717.504 473.677H705.295C692.692 473.677 682.846 465.067 682.846 454.802C682.846 449.504 685.209 444.868 689.542 441.557C693.48 438.245 699.387 435.928 705.689 435.928H757.281C765.945 435.928 773.428 432.947 778.942 428.312C784.456 423.676 788 417.053 788 410.099C788 395.198 774.216 383.609 757.281 383.609Z" fill="url(#paint0_linear_1235_25066)"/>
<path d="M362.99 263.561V200.918C362.99 154.792 400.388 117.395 446.513 117.395C492.639 117.395 530.037 154.792 530.037 200.918V263.561" stroke="#4F27AA" stroke-width="32.641" stroke-linecap="round" stroke-linejoin="round"/>
<path fill-rule="evenodd" clip-rule="evenodd" d="M570.088 519.041H322.938C295.627 519.041 273.507 496.921 273.507 469.611V296.606C273.507 269.296 295.627 247.176 322.938 247.176H570.088C597.398 247.176 619.518 269.296 619.518 296.606V469.611C619.518 496.921 597.398 519.041 570.088 519.041Z" fill="#4F27AA" stroke="#4F27AA" stroke-width="24.31" stroke-linecap="round" stroke-linejoin="round"/>
<path d="M444.889 442.409V380.419M444.819 343.496C434.755 343.496 426.587 351.664 426.66 361.728C426.66 371.792 434.828 379.96 444.892 379.96C454.956 379.96 463.124 371.792 463.124 361.728C463.124 351.664 454.956 343.496 444.819 343.496" stroke="white" stroke-width="50.726" stroke-linecap="round" stroke-linejoin="round"/>
<path fill-rule="evenodd" clip-rule="evenodd" d="M750.542 203.178C750.542 277.126 694.875 346.271 620.06 363.06C545.245 346.271 489.578 277.126 489.578 203.178V145.091C489.579 138.621 491.509 132.298 495.12 126.93C498.731 121.561 503.86 117.39 509.852 114.949L591.403 81.6304C609.77 74.1232 630.35 74.1232 648.717 81.6304L730.268 114.949C742.533 119.964 750.542 131.868 750.542 145.091V203.178Z" fill="#2E2445"/>
<path d="M671 183.879L611.239 243.115L575.311 207.587" stroke="white" stroke-width="28" stroke-linecap="round" stroke-linejoin="round"/>
</g>
<defs>
<linearGradient id="paint0_linear_1235_25066" x1="463.935" y1="778.377" x2="454.656" y2="-417.064" gradientUnits="userSpaceOnUse">
<stop stop-color="white"/>
<stop offset="1" stop-color="#EEEEEE"/>
</linearGradient>
<clipPath id="clip0_1235_25066">
<rect width="900" height="600" fill="white"/>
</clipPath>
</defs>
</svg>
