<svg width="900" height="600" viewBox="0 0 900 600" fill="none" xmlns="http://www.w3.org/2000/svg">
<g clip-path="url(#clip0_1235_25092)">
<path d="M177.15 376.307C180.27 455.471 349.294 601.169 533.529 524.071C619.215 488.211 607.441 443.149 668.902 376.534C705.537 336.83 760.471 304.25 771.554 250.497C781.131 204.098 768.11 156.417 741.203 127.133C680.692 61.2768 567.412 22.9258 470.778 144.712C374.144 266.498 169.125 172.135 177.15 376.307Z" fill="url(#paint0_linear_1235_25092)"/>
<mask id="mask0_1235_25092" style="mask-type:alpha" maskUnits="userSpaceOnUse" x="176" y="65" width="599" height="481">
<path d="M177.15 376.307C180.27 455.471 349.294 601.169 533.529 524.071C619.215 488.211 607.441 443.149 668.902 376.534C705.537 336.83 760.471 304.25 771.554 250.497C781.131 204.098 768.11 156.417 741.203 127.133C680.692 61.2768 567.412 22.9258 470.778 144.712C374.144 266.498 169.125 172.135 177.15 376.307Z" fill="#4F27AA"/>
</mask>
<g mask="url(#mask0_1235_25092)">
<path d="M2.30798 223.121C-36.152 286.26 -61.328 357.474 -71.106 430.781C-77.156 476.133 -75.033 528.147 -41.694 559.435C-16.708 582.888 20.122 588.723 54.346 587.462C88.568 586.201 122.598 578.999 156.783 581.011C190.969 583.026 227.169 596.54 244.513 626.11C260.926 654.092 256.839 688.951 254.827 721.342C252.819 753.734 255.235 790.506 279.647 811.848C314.22 842.073 370.552 823.397 411.307 844.53C449.962 864.572 465.66 915.706 505.489 933.29C538.78 947.991 577.1 934.33 610.77 920.528C645.871 906.138 680.9 891.571 715.854 876.827" stroke="white" stroke-width="4.556"/>
<path d="M42.475 181.344C4.833 243.011 -19.812 312.562 -29.385 384.159C-35.305 428.454 -33.228 479.255 -0.593998 509.815C23.861 532.72 59.913 538.42 93.411 537.185C126.908 535.956 160.219 528.92 193.682 530.887C227.146 532.855 262.579 546.054 279.555 574.932C295.622 602.265 291.621 636.309 289.652 667.945C287.685 699.581 290.047 735.493 313.946 756.34C347.788 785.861 402.928 767.62 442.82 788.259C480.656 807.834 496.021 857.774 535.009 874.951C567.593 889.305 605.103 875.965 638.063 862.485C672.419 848.429 706.706 834.203 740.92 819.805" stroke="white" stroke-width="4.556"/>
<path d="M116.327 39.332C80.4089 98.239 56.9019 164.676 47.7669 233.067C42.1169 275.38 44.0999 323.906 75.2339 353.096C98.5689 374.974 132.962 380.42 164.92 379.242C196.88 378.065 228.66 371.345 260.585 373.226C292.51 375.105 326.315 387.711 342.512 415.298C357.842 441.407 354.024 473.926 352.146 504.145C350.268 534.367 352.524 568.669 375.32 588.581C407.608 616.779 460.217 599.357 498.276 619.071C534.375 637.771 549.029 685.474 586.227 701.882C617.315 715.595 653.104 702.851 684.545 689.975C717.324 676.549 750.036 662.958 782.679 649.203" stroke="white" stroke-width="4.556"/>
<path d="M176.414 -10.7227C141.31 46.8953 118.333 111.876 109.407 178.775C103.886 220.159 105.823 267.624 136.252 296.177C159.056 317.576 192.671 322.901 223.904 321.749C255.141 320.6 286.201 314.027 317.402 315.864C348.603 317.704 381.644 330.036 397.472 357.018C412.454 382.555 408.724 414.363 406.887 443.922C405.052 473.482 407.258 507.034 429.538 526.513C461.095 554.092 512.508 537.05 549.707 556.333C584.986 574.625 599.311 621.284 635.665 637.333C666.049 650.746 701.025 638.281 731.757 625.686C763.793 612.555 795.762 599.261 827.664 585.807" stroke="white" stroke-width="4.556"/>
<path d="M258.041 -144.594C226.396 -92.6838 205.683 -34.1338 197.639 26.1342C192.66 63.4212 194.407 106.185 221.838 131.91C242.395 151.191 272.696 155.987 300.852 154.95C329.011 153.913 357.007 147.992 385.133 149.648C413.261 151.306 443.045 162.414 457.314 186.727C470.82 209.732 467.456 238.392 465.802 265.022C464.147 291.653 466.135 321.884 486.221 339.432C514.665 364.283 561.013 348.927 594.543 366.302C626.346 382.782 639.262 424.818 672.031 439.277C699.421 451.362 730.949 440.133 758.654 428.782C787.533 416.952 816.352 404.976 845.11 392.856" stroke="white" stroke-width="4.556"/>
<path d="M321.618 -185.336C290.788 -134.712 270.608 -77.6179 262.772 -18.8439C257.92 17.5161 259.624 59.2191 286.347 84.3061C306.376 103.106 335.895 107.785 363.33 106.776C390.762 105.764 418.041 99.9881 445.441 101.602C472.845 103.219 501.864 114.052 515.765 137.76C528.923 160.195 525.645 188.143 524.036 214.112C522.422 240.084 524.356 269.562 543.929 286.674C571.642 310.908 616.795 295.933 649.465 312.876C680.451 328.948 693.032 369.941 724.96 384.042C751.645 395.827 782.363 384.876 809.351 373.809C837.488 362.272 865.567 350.593 893.587 338.773" stroke="white" stroke-width="4.556"/>
<path d="M372.191 -235.395C342.277 -186.246 322.697 -130.81 315.092 -73.7475C310.385 -38.4435 312.036 2.04549 337.966 26.4015C357.4 44.6555 386.046 49.1975 412.664 48.2175C439.279 47.2345 465.749 41.6275 492.339 43.1975C518.926 44.7665 547.084 55.2855 560.572 78.3025C573.339 100.086 570.158 127.218 568.595 152.433C567.032 177.648 568.91 206.27 587.9 222.885C614.79 246.413 658.602 231.876 690.301 248.326C720.367 263.926 732.574 303.729 763.551 317.419C789.446 328.861 819.252 318.229 845.44 307.484C872.74 296.282 899.984 284.943 927.17 273.466" stroke="white" stroke-width="4.556"/>
<path d="M476.513 -256.473C447.414 -208.795 428.364 -155.024 420.964 -99.6677C416.389 -65.4237 417.997 -26.1477 443.219 -2.51965C462.126 15.1863 489.99 19.5933 515.884 18.6423C541.777 17.6893 567.525 12.2503 593.391 13.7723C619.254 15.2933 646.643 25.4973 659.767 47.8253C672.188 68.9553 669.093 95.2753 667.573 119.736C666.05 144.194 667.878 171.959 686.352 188.076C712.508 210.897 755.13 196.797 785.966 212.754C815.213 227.89 827.088 266.498 857.223 279.777C882.413 290.877 911.407 280.563 936.882 270.14C963.439 259.273 989.942 248.274 1016.39 237.142" stroke="white" stroke-width="4.556"/>
<path d="M514.592 -298.254C486.308 -251.864 467.792 -199.546 460.6 -145.688C456.149 -112.367 457.711 -74.1539 482.231 -51.1629C500.607 -33.9349 527.695 -29.6479 552.861 -30.5729C578.031 -31.5019 603.057 -36.7929 628.202 -35.3149C653.343 -33.8319 679.965 -23.9049 692.721 -2.18192C704.793 18.3781 701.786 43.9881 700.309 67.7861C698.83 91.5851 700.605 118.599 718.56 134.28C743.99 156.486 785.417 142.766 815.388 158.292C843.818 173.017 855.363 210.582 884.655 223.504C909.14 234.303 937.321 224.266 962.084 214.127C987.9 203.555 1013.66 192.852 1039.37 182.02" stroke="white" stroke-width="4.556"/>
<path d="M513.052 -324.18C485.685 -279.264 467.765 -228.605 460.807 -176.458C456.501 -144.194 458.012 -107.192 481.737 -84.9347C499.521 -68.2517 525.727 -64.1017 550.085 -64.9987C574.437 -65.8947 598.654 -71.0187 622.984 -69.5867C647.311 -68.1517 673.072 -58.5417 685.414 -37.5067C697.096 -17.5967 694.186 7.2003 692.755 30.2413C691.324 53.2833 693.043 79.4413 710.417 94.6233C735.022 116.124 775.107 102.84 804.11 117.872C831.62 132.131 842.789 168.504 871.135 181.014C894.824 191.47 922.096 181.753 946.058 171.935C971.038 161.698 995.965 151.335 1020.84 140.846" stroke="white" stroke-width="4.556"/>
<path d="M788.358 356.342C777.009 366.259 757.485 362.498 757.485 362.498C757.485 362.498 756.375 342.658 767.734 332.748C779.084 322.83 798.599 326.584 798.599 326.584C798.599 326.584 799.708 346.425 788.358 356.342Z" fill="url(#paint1_linear_1235_25092)"/>
<path opacity="0.76" fill-rule="evenodd" clip-rule="evenodd" d="M206.643 126.775C210.944 120.148 220.645 120.148 224.947 126.775L248.607 163.225C253.319 170.484 248.109 180.077 239.455 180.077H192.135C183.48 180.077 178.27 170.484 182.982 163.225L206.643 126.775Z" fill="url(#paint2_linear_1235_25092)"/>
<path opacity="0.76" fill-rule="evenodd" clip-rule="evenodd" d="M696.069 429.482C700.371 422.855 710.072 422.855 714.374 429.482L738.034 465.932C742.746 473.191 737.536 482.784 728.882 482.784H681.561C672.907 482.784 667.697 473.191 672.409 465.932L696.069 429.482Z" fill="url(#paint3_linear_1235_25092)"/>
<path fill-rule="evenodd" clip-rule="evenodd" d="M291.13 282.957C291.13 339.084 320.883 388.496 366.539 419.645C366.518 437.531 366.559 461.631 366.559 486.922L440.543 450.376C453.448 452.861 466.56 454.115 479.703 454.121C583.46 454.121 668.276 377.911 668.276 282.957C668.276 188.003 583.46 111.793 479.703 111.793C375.946 111.793 291.13 188.003 291.13 282.957Z" fill="#4F27AA"/>
<path d="M494.471 254.722L437.061 312.122C430.404 318.783 430.404 329.578 437.061 336.239C443.722 342.896 454.517 342.896 461.178 336.239L550.729 246.687C553.896 243.521 556.409 239.761 558.123 235.623C559.838 231.485 560.72 227.05 560.72 222.571C560.72 218.092 559.838 213.657 558.123 209.519C556.409 205.381 553.896 201.621 550.729 198.454V198.454C547.563 195.287 543.804 192.775 539.667 191.061C535.53 189.347 531.096 188.465 526.618 188.465C522.14 188.465 517.706 189.347 513.569 191.061C509.432 192.775 505.673 195.287 502.507 198.454L412.955 288.016C408.204 292.766 404.435 298.404 401.863 304.61C399.292 310.816 397.968 317.468 397.968 324.186C397.968 330.904 399.292 337.556 401.863 343.762C404.435 349.968 408.204 355.606 412.955 360.355C417.705 365.105 423.343 368.873 429.549 371.444C435.755 374.015 442.407 375.338 449.124 375.338C455.842 375.338 462.493 374.015 468.699 371.444C474.905 368.873 480.544 365.105 485.294 360.355L550.698 294.951" stroke="white" stroke-width="15.566" stroke-linecap="round" stroke-linejoin="round"/>
</g>
</g>
<defs>
<linearGradient id="paint0_linear_1235_25092" x1="405.523" y1="831.146" x2="571.556" y2="-495.447" gradientUnits="userSpaceOnUse">
<stop stop-color="white"/>
<stop offset="1" stop-color="#EEEEEE"/>
</linearGradient>
<linearGradient id="paint1_linear_1235_25092" x1="743.544" y1="389.757" x2="828.787" y2="276.195" gradientUnits="userSpaceOnUse">
<stop stop-color="white"/>
<stop offset="1" stop-color="#EEEEEE"/>
</linearGradient>
<linearGradient id="paint2_linear_1235_25092" x1="217.661" y1="217.866" x2="216.06" y2="39.345" gradientUnits="userSpaceOnUse">
<stop stop-color="white"/>
<stop offset="1" stop-color="#EEEEEE"/>
</linearGradient>
<linearGradient id="paint3_linear_1235_25092" x1="707.087" y1="520.573" x2="705.486" y2="342.052" gradientUnits="userSpaceOnUse">
<stop stop-color="white"/>
<stop offset="1" stop-color="#EEEEEE"/>
</linearGradient>
<clipPath id="clip0_1235_25092">
<rect width="900" height="600" fill="white"/>
</clipPath>
</defs>
</svg>
