<svg width="900" height="600" viewBox="0 0 900 600" fill="none" xmlns="http://www.w3.org/2000/svg">
<g clip-path="url(#clip0_1235_25114)">
<path fill-rule="evenodd" clip-rule="evenodd" d="M184.739 365.017L158.975 339.253C154.508 334.783 152 328.722 152 322.403V278.597C152 272.277 154.513 266.216 158.983 261.747L184.747 235.983C186.959 233.77 189.586 232.014 192.477 230.815C195.369 229.617 198.467 229 201.597 229H245.403C251.723 229 257.784 231.513 262.253 235.983L288.025 261.755C292.492 266.225 295 272.286 295 278.605V322.403C295 328.722 292.492 334.783 288.025 339.253L262.261 365.025C260.047 367.238 257.418 368.993 254.526 370.189C251.633 371.386 248.533 372.001 245.403 372H201.597C198.466 372 195.366 371.384 192.473 370.185C189.581 368.987 186.953 367.231 184.739 365.017Z" fill="#4F27AA"/>
<path fill-rule="evenodd" clip-rule="evenodd" d="M232.159 307.726C239.843 303.74 243.803 295.027 241.749 286.628C239.694 278.229 232.157 272.32 223.498 272.32C214.839 272.32 207.302 278.229 205.248 286.628C203.193 295.027 207.153 303.74 214.837 307.726L209.201 324.572C209.044 325.043 209.001 325.544 209.076 326.035C209.152 326.525 209.342 326.99 209.633 327.393C209.924 327.795 210.306 328.122 210.748 328.347C211.191 328.572 211.68 328.688 212.176 328.686H234.795C235.291 328.688 235.781 328.572 236.223 328.347C236.665 328.122 237.047 327.795 237.338 327.393C237.629 326.99 237.82 326.525 237.895 326.035C237.97 325.544 237.927 325.043 237.77 324.572L232.159 307.726Z" fill="white"/>
<path fill-rule="evenodd" clip-rule="evenodd" d="M259.739 214.017L233.975 188.253C229.508 183.783 227 177.722 227 171.403V127.597C227 121.277 229.513 115.216 233.983 110.747L259.747 84.983C261.959 82.7696 264.586 81.0136 267.477 79.8155C270.369 78.6173 273.467 78.0004 276.597 78H320.403C326.723 78 332.784 80.513 337.253 84.983L363.025 110.755C367.492 115.225 370 121.286 370 127.605V171.403C370 177.722 367.492 183.783 363.025 188.253L337.261 214.025C335.047 216.238 332.418 217.993 329.526 219.189C326.633 220.386 323.533 221.001 320.403 221H276.597C273.466 221 270.366 220.384 267.473 219.185C264.581 217.987 261.953 216.231 259.739 214.017Z" fill="#4F27AA"/>
<path fill-rule="evenodd" clip-rule="evenodd" d="M307.159 156.726C314.843 152.74 318.803 144.027 316.749 135.628C314.694 127.229 307.157 121.32 298.498 121.32C289.839 121.32 282.302 127.229 280.248 135.628C278.193 144.027 282.153 152.74 289.837 156.726L284.201 173.572C284.044 174.043 284.001 174.544 284.076 175.035C284.152 175.525 284.342 175.99 284.633 176.393C284.924 176.795 285.306 177.122 285.748 177.347C286.191 177.572 286.68 177.688 287.176 177.686H309.795C310.291 177.688 310.781 177.572 311.223 177.347C311.665 177.122 312.047 176.795 312.338 176.393C312.629 175.99 312.82 175.525 312.895 175.035C312.97 174.544 312.927 174.043 312.77 173.572L307.159 156.726Z" fill="white"/>
<path fill-rule="evenodd" clip-rule="evenodd" d="M259.739 516.017L233.975 490.253C229.508 485.783 227 479.722 227 473.403V429.597C227 423.277 229.513 417.216 233.983 412.747L259.747 386.983C261.959 384.77 264.586 383.014 267.477 381.815C270.369 380.617 273.467 380 276.597 380H320.403C326.723 380 332.784 382.513 337.253 386.983L363.025 412.755C367.492 417.225 370 423.286 370 429.605V473.403C370 479.722 367.492 485.783 363.025 490.253L337.261 516.025C335.047 518.238 332.418 519.993 329.526 521.189C326.633 522.386 323.533 523.001 320.403 523H276.597C273.466 523 270.366 522.384 267.473 521.185C264.581 519.987 261.953 518.231 259.739 516.017Z" fill="#4F27AA"/>
<path fill-rule="evenodd" clip-rule="evenodd" d="M307.159 458.726C314.843 454.74 318.803 446.027 316.749 437.628C314.694 429.229 307.157 423.32 298.498 423.32C289.839 423.32 282.302 429.229 280.248 437.628C278.193 446.027 282.153 454.74 289.837 458.726L284.201 475.572C284.044 476.043 284.001 476.544 284.076 477.035C284.152 477.525 284.342 477.99 284.633 478.393C284.924 478.795 285.306 479.122 285.748 479.347C286.191 479.572 286.68 479.688 287.176 479.686H309.795C310.291 479.688 310.781 479.572 311.223 479.347C311.665 479.122 312.047 478.795 312.338 478.393C312.629 477.99 312.82 477.525 312.895 477.035C312.97 476.544 312.927 476.043 312.77 475.572L307.159 458.726Z" fill="white"/>
<path fill-rule="evenodd" clip-rule="evenodd" d="M335.739 365.017L309.975 339.253C305.508 334.783 303 328.722 303 322.403V278.597C303 272.277 305.513 266.216 309.983 261.747L335.747 235.983C337.959 233.77 340.586 232.014 343.477 230.815C346.369 229.617 349.467 229 352.597 229H396.403C402.723 229 408.784 231.513 413.253 235.983L439.025 261.755C443.492 266.225 446 272.286 446 278.605V322.403C446 328.722 443.492 334.783 439.025 339.253L413.261 365.025C411.047 367.238 408.418 368.993 405.526 370.189C402.633 371.386 399.533 372.001 396.403 372H352.597C349.466 372 346.366 371.384 343.473 370.185C340.581 368.987 337.953 367.231 335.739 365.017Z" fill="#4F27AA"/>
<path fill-rule="evenodd" clip-rule="evenodd" d="M383.159 307.726C390.843 303.74 394.803 295.027 392.749 286.628C390.694 278.229 383.157 272.32 374.498 272.32C365.839 272.32 358.302 278.229 356.248 286.628C354.193 295.027 358.153 303.74 365.837 307.726L360.201 324.572C360.044 325.043 360.001 325.544 360.076 326.035C360.152 326.525 360.342 326.99 360.633 327.393C360.924 327.795 361.306 328.122 361.748 328.347C362.191 328.572 362.68 328.688 363.176 328.686H385.795C386.291 328.688 386.781 328.572 387.223 328.347C387.665 328.122 388.047 327.795 388.338 327.393C388.629 326.99 388.82 326.525 388.895 326.035C388.97 325.544 388.927 325.043 388.77 324.572L383.159 307.726Z" fill="white"/>
<path fill-rule="evenodd" clip-rule="evenodd" d="M410.739 214.017L384.975 188.253C380.508 183.783 378 177.722 378 171.403V127.597C378 121.277 380.513 115.216 384.983 110.747L410.747 84.983C412.959 82.7696 415.586 81.0136 418.477 79.8155C421.369 78.6173 424.467 78.0004 427.597 78H471.403C477.723 78 483.784 80.513 488.253 84.983L514.025 110.755C518.492 115.225 521 121.286 521 127.605V171.403C521 177.722 518.492 183.783 514.025 188.253L488.261 214.025C486.047 216.238 483.418 217.993 480.526 219.189C477.633 220.386 474.533 221.001 471.403 221H427.597C424.466 221 421.366 220.384 418.473 219.185C415.581 217.987 412.953 216.231 410.739 214.017Z" fill="#4F27AA"/>
<path fill-rule="evenodd" clip-rule="evenodd" d="M458.159 156.726C465.843 152.74 469.803 144.027 467.749 135.628C465.694 127.229 458.157 121.32 449.498 121.32C440.839 121.32 433.302 127.229 431.248 135.628C429.193 144.027 433.153 152.74 440.837 156.726L435.201 173.572C435.044 174.043 435.001 174.544 435.076 175.035C435.152 175.525 435.342 175.99 435.633 176.393C435.924 176.795 436.306 177.122 436.748 177.347C437.191 177.572 437.68 177.688 438.176 177.686H460.795C461.291 177.688 461.781 177.572 462.223 177.347C462.665 177.122 463.047 176.795 463.338 176.393C463.629 175.99 463.82 175.525 463.895 175.035C463.97 174.544 463.927 174.043 463.77 173.572L458.159 156.726Z" fill="white"/>
<path fill-rule="evenodd" clip-rule="evenodd" d="M410.739 516.017L384.975 490.253C380.508 485.783 378 479.722 378 473.403V429.597C378 423.277 380.513 417.216 384.983 412.747L410.747 386.983C412.959 384.77 415.586 383.014 418.477 381.815C421.369 380.617 424.467 380 427.597 380H471.403C477.723 380 483.784 382.513 488.253 386.983L514.025 412.755C518.492 417.225 521 423.286 521 429.605V473.403C521 479.722 518.492 485.783 514.025 490.253L488.261 516.025C486.047 518.238 483.418 519.993 480.526 521.189C477.633 522.386 474.533 523.001 471.403 523H427.597C424.466 523 421.366 522.384 418.473 521.185C415.581 519.987 412.953 518.231 410.739 516.017Z" fill="#4F27AA"/>
<path fill-rule="evenodd" clip-rule="evenodd" d="M458.159 458.726C465.843 454.74 469.803 446.027 467.749 437.628C465.694 429.229 458.157 423.32 449.498 423.32C440.839 423.32 433.302 429.229 431.248 437.628C429.193 446.027 433.153 454.74 440.837 458.726L435.201 475.572C435.044 476.043 435.001 476.544 435.076 477.035C435.152 477.525 435.342 477.99 435.633 478.393C435.924 478.795 436.306 479.122 436.748 479.347C437.191 479.572 437.68 479.688 438.176 479.686H460.795C461.291 479.688 461.781 479.572 462.223 479.347C462.665 479.122 463.047 478.795 463.338 478.393C463.629 477.99 463.82 477.525 463.895 477.035C463.97 476.544 463.927 476.043 463.77 475.572L458.159 458.726Z" fill="white"/>
<path fill-rule="evenodd" clip-rule="evenodd" d="M486.739 365.017L460.975 339.253C456.508 334.783 454 328.722 454 322.403V278.597C454 272.277 456.513 266.216 460.983 261.747L486.747 235.983C488.959 233.77 491.586 232.014 494.477 230.815C497.369 229.617 500.467 229 503.597 229H547.403C553.723 229 559.784 231.513 564.253 235.983L590.025 261.755C594.492 266.225 597 272.286 597 278.605V322.403C597 328.722 594.492 334.783 590.025 339.253L564.261 365.025C562.047 367.238 559.418 368.993 556.526 370.189C553.633 371.386 550.533 372.001 547.403 372H503.597C500.466 372 497.366 371.384 494.473 370.185C491.581 368.987 488.953 367.231 486.739 365.017Z" fill="#4F27AA"/>
<path fill-rule="evenodd" clip-rule="evenodd" d="M534.159 307.726C541.843 303.74 545.803 295.027 543.749 286.628C541.694 278.229 534.157 272.32 525.498 272.32C516.839 272.32 509.302 278.229 507.248 286.628C505.193 295.027 509.153 303.74 516.837 307.726L511.201 324.572C511.044 325.043 511.001 325.544 511.076 326.035C511.152 326.525 511.342 326.99 511.633 327.393C511.924 327.795 512.306 328.122 512.748 328.347C513.191 328.572 513.68 328.688 514.176 328.686H536.795C537.291 328.688 537.781 328.572 538.223 328.347C538.665 328.122 539.047 327.795 539.338 327.393C539.629 326.99 539.82 326.525 539.895 326.035C539.97 325.544 539.927 325.043 539.77 324.572L534.159 307.726Z" fill="white"/>
<path fill-rule="evenodd" clip-rule="evenodd" d="M561.739 214.017L535.975 188.253C531.508 183.783 529 177.722 529 171.403V127.597C529 121.277 531.513 115.216 535.983 110.747L561.747 84.983C563.959 82.7696 566.586 81.0136 569.477 79.8155C572.369 78.6173 575.467 78.0004 578.597 78H622.403C628.723 78 634.784 80.513 639.253 84.983L665.025 110.755C669.492 115.225 672 121.286 672 127.605V171.403C672 177.722 669.492 183.783 665.025 188.253L639.261 214.025C637.047 216.238 634.418 217.993 631.526 219.189C628.633 220.386 625.533 221.001 622.403 221H578.597C575.466 221 572.366 220.384 569.473 219.185C566.581 217.987 563.953 216.231 561.739 214.017Z" fill="#4F27AA"/>
<path fill-rule="evenodd" clip-rule="evenodd" d="M609.159 156.726C616.843 152.74 620.803 144.027 618.749 135.628C616.694 127.229 609.157 121.32 600.498 121.32C591.839 121.32 584.302 127.229 582.248 135.628C580.193 144.027 584.153 152.74 591.837 156.726L586.201 173.572C586.044 174.043 586.001 174.544 586.076 175.035C586.152 175.525 586.342 175.99 586.633 176.393C586.924 176.795 587.306 177.122 587.748 177.347C588.191 177.572 588.68 177.688 589.176 177.686H611.795C612.291 177.688 612.781 177.572 613.223 177.347C613.665 177.122 614.047 176.795 614.338 176.393C614.629 175.99 614.82 175.525 614.895 175.035C614.97 174.544 614.927 174.043 614.77 173.572L609.159 156.726Z" fill="white"/>
<path fill-rule="evenodd" clip-rule="evenodd" d="M561.739 516.017L535.975 490.253C531.508 485.783 529 479.722 529 473.403V429.597C529 423.277 531.513 417.216 535.983 412.747L561.747 386.983C563.959 384.77 566.586 383.014 569.477 381.815C572.369 380.617 575.467 380 578.597 380H622.403C628.723 380 634.784 382.513 639.253 386.983L665.025 412.755C669.492 417.225 672 423.286 672 429.605V473.403C672 479.722 669.492 485.783 665.025 490.253L639.261 516.025C637.047 518.238 634.418 519.993 631.526 521.189C628.633 522.386 625.533 523.001 622.403 523H578.597C575.466 523 572.366 522.384 569.473 521.185C566.581 519.987 563.953 518.231 561.739 516.017Z" fill="#4F27AA"/>
<path fill-rule="evenodd" clip-rule="evenodd" d="M609.159 458.726C616.843 454.74 620.803 446.027 618.749 437.628C616.694 429.229 609.157 423.32 600.498 423.32C591.839 423.32 584.302 429.229 582.248 437.628C580.193 446.027 584.153 454.74 591.837 458.726L586.201 475.572C586.044 476.043 586.001 476.544 586.076 477.035C586.152 477.525 586.342 477.99 586.633 478.393C586.924 478.795 587.306 479.122 587.748 479.347C588.191 479.572 588.68 479.688 589.176 479.686H611.795C612.291 479.688 612.781 479.572 613.223 479.347C613.665 479.122 614.047 478.795 614.338 478.393C614.629 477.99 614.82 477.525 614.895 477.035C614.97 476.544 614.927 476.043 614.77 475.572L609.159 458.726Z" fill="white"/>
<path fill-rule="evenodd" clip-rule="evenodd" d="M637.739 365.017L611.975 339.253C607.508 334.783 605 328.722 605 322.403V278.597C605 272.277 607.513 266.216 611.983 261.747L637.747 235.983C639.959 233.77 642.586 232.014 645.477 230.815C648.369 229.617 651.467 229 654.597 229H698.403C704.723 229 710.784 231.513 715.253 235.983L741.025 261.755C745.492 266.225 748 272.286 748 278.605V322.403C748 328.722 745.492 334.783 741.025 339.253L715.261 365.025C713.047 367.238 710.418 368.993 707.526 370.189C704.633 371.386 701.533 372.001 698.403 372H654.597C651.466 372 648.366 371.384 645.473 370.185C642.581 368.987 639.953 367.231 637.739 365.017Z" fill="#4F27AA"/>
<path fill-rule="evenodd" clip-rule="evenodd" d="M685.159 307.726C692.843 303.74 696.803 295.027 694.749 286.628C692.694 278.229 685.157 272.32 676.498 272.32C667.839 272.32 660.302 278.229 658.248 286.628C656.193 295.027 660.153 303.74 667.837 307.726L662.201 324.572C662.044 325.043 662.001 325.544 662.076 326.035C662.152 326.525 662.342 326.99 662.633 327.393C662.924 327.795 663.306 328.122 663.748 328.347C664.191 328.572 664.68 328.688 665.176 328.686H687.795C688.291 328.688 688.781 328.572 689.223 328.347C689.665 328.122 690.047 327.795 690.338 327.393C690.629 326.99 690.82 326.525 690.895 326.035C690.97 325.544 690.927 325.043 690.77 324.572L685.159 307.726Z" fill="white"/>
</g>
<defs>
<clipPath id="clip0_1235_25114">
<rect width="900" height="600" fill="white"/>
</clipPath>
</defs>
</svg>
