<svg width="900" height="600" viewBox="0 0 900 600" fill="none" xmlns="http://www.w3.org/2000/svg">
<g clip-path="url(#clip0_1235_25136)">
<path d="M731.004 388.739H676.805C663.525 388.739 652.398 379.751 652.398 368.367C652.398 362.675 655.269 357.583 659.577 353.988C663.884 350.393 669.985 347.996 676.805 347.996H684.702C691.521 347.996 697.623 345.599 701.93 342.004C706.237 338.409 709.109 333.317 709.109 327.625C709.109 316.54 698.341 307.253 684.702 307.253H519.11C514.814 307.253 512.056 301.963 512.056 297.667C512.056 286.882 501.647 278.194 488.726 278.194H427.089C426.315 278.204 425.548 278.06 424.83 277.771C424.112 277.482 423.459 277.054 422.909 276.51C422.358 275.967 421.921 275.319 421.623 274.606C421.324 273.892 421.171 273.126 421.171 272.352C421.171 271.579 421.324 270.813 421.623 270.099C421.921 269.385 422.358 268.738 422.909 268.194C423.459 267.651 424.112 267.222 424.83 266.933C425.548 266.644 426.315 266.501 427.089 266.511H663.166C673.575 266.511 683.266 262.916 690.086 257.224C696.905 251.532 701.212 243.443 701.212 234.755C701.212 217.08 683.984 203 663.166 203H541.201C522.096 203 503.164 188.321 484.06 188.321H415.892C405.964 188.321 397.917 180.273 397.917 170.346C397.917 160.419 405.964 152.371 415.892 152.371H568.408C575.587 152.371 582.407 149.975 587.073 146.08C591.739 142.186 594.61 136.793 594.61 130.502C594.61 118.519 582.766 108.633 568.408 108.633H217.016C209.838 108.633 203.018 111.029 198.352 114.924C193.686 118.819 190.814 124.211 190.814 130.502C190.814 142.485 202.659 152.371 217.016 152.371H225.99C237.834 152.371 247.884 160.46 247.884 170.646C247.884 175.738 245.372 180.232 241.424 183.527C237.475 186.823 232.091 188.92 225.99 188.92H182.559C175.022 188.92 167.843 191.616 162.818 195.81C157.793 200.004 154.563 205.696 154.563 212.287C154.563 225.169 167.125 235.355 182.2 235.355H226.348C240.706 235.355 252.55 245.241 252.55 257.224C252.55 263.215 249.679 268.608 245.013 272.502C240.347 276.397 233.886 278.793 226.707 278.793H187.225C180.764 278.793 175.022 280.89 170.714 284.485C166.407 288.08 163.895 292.874 163.895 298.266C163.895 309.051 174.304 317.739 187.225 317.739H219.17C237.475 317.739 252.191 330.021 252.191 345.3C252.191 352.789 248.602 359.979 242.5 364.772C236.398 369.865 228.143 372.861 219.17 372.861H174.663C165.689 372.861 157.434 375.857 151.691 380.95C145.589 385.743 142 392.633 142 400.123C142 415.102 156.716 427.384 174.663 427.384H312.116C327.284 427.384 342.19 435.772 357.358 435.772H382.486C391.999 435.772 399.711 443.485 399.711 452.998C399.711 462.512 391.999 470.224 382.486 470.224H321.465C313.568 470.224 306.749 472.92 301.724 477.114C296.699 481.308 293.468 487.3 293.468 493.591C293.468 506.473 306.031 516.958 321.465 516.958H694.752C702.648 516.958 709.468 514.262 714.493 510.068C719.518 505.874 722.748 499.882 722.748 493.591C722.748 480.709 710.186 470.224 694.752 470.224H683.625C672.139 470.224 663.166 462.435 663.166 453.148C663.166 448.355 665.319 444.161 669.268 441.165C672.857 438.169 678.241 436.072 683.984 436.072H731.004C738.9 436.072 745.72 433.376 750.745 429.182C755.77 424.988 759 418.996 759 412.705C759 399.224 746.438 388.739 731.004 388.739Z" fill="url(#paint0_linear_1235_25136)"/>
<path d="M380.712 263.164H190.664C168.573 263.164 150.664 281.073 150.664 303.164V493.212C150.664 515.303 168.573 533.212 190.664 533.212H380.712C402.803 533.212 420.712 515.303 420.712 493.212V303.164C420.712 281.073 402.803 263.164 380.712 263.164Z" fill="#4F27AA"/>
<path fill-rule="evenodd" clip-rule="evenodd" d="M249.776 431.917C282.166 464.32 323.207 484.973 347.615 460.67L353.535 454.751C361.414 446.872 360.316 433.831 351.176 427.466C345.404 423.445 339.202 419.128 332.347 414.306C325.255 409.321 315.521 410.077 309.364 416.19L302.672 422.837C294.378 417.585 286.172 410.834 278.546 403.223L278.516 403.193C270.904 395.582 264.153 387.362 258.901 379.069L265.548 372.377C271.661 366.22 272.433 356.473 267.418 349.381C262.595 342.541 258.278 336.354 254.286 330.597C247.936 321.428 234.879 320.316 226.985 328.209L221.065 334.129C196.776 358.535 217.415 399.543 249.805 431.962" fill="white"/>
<path fill-rule="evenodd" clip-rule="evenodd" d="M461.092 336.609V497.151C461.092 514.811 475.541 529.26 493.2 529.26H717.959C735.619 529.26 750.068 514.811 750.068 497.151V336.609" fill="#E1E4E5"/>
<path d="M461.092 336.609V497.151C461.092 514.811 475.541 529.26 493.2 529.26H717.959C735.619 529.26 750.068 514.811 750.068 497.151V336.609" stroke="#E1E4E5" stroke-width="4.532"/>
<path fill-rule="evenodd" clip-rule="evenodd" d="M470.53 519.818L568.365 421.984L470.53 519.818Z" fill="white"/>
<path d="M470.53 519.818L568.365 421.984" stroke="white" stroke-width="4.532"/>
<path fill-rule="evenodd" clip-rule="evenodd" d="M643.469 422.66L740.63 519.82L643.469 422.66Z" fill="white"/>
<path d="M643.469 422.66L740.63 519.82" stroke="white" stroke-width="4.532"/>
<path fill-rule="evenodd" clip-rule="evenodd" d="M461.093 333.398C461.093 343.03 465.909 351.057 473.936 357.479L570.261 423.301C592.737 437.75 620.029 437.75 642.505 423.301L738.831 359.084C745.252 351.057 750.069 343.03 750.069 333.398C750.085 329.599 749.348 325.834 747.902 322.321C746.455 318.807 744.327 315.615 741.64 312.929C738.954 310.242 735.762 308.114 732.249 306.668C728.735 305.221 724.97 304.484 721.171 304.5H489.99C486.191 304.484 482.426 305.221 478.913 306.668C475.399 308.114 472.208 310.242 469.521 312.929C466.834 315.616 464.707 318.808 463.26 322.321C461.814 325.834 461.077 329.599 461.093 333.398Z" fill="white" stroke="#E1E4E5" stroke-width="4.532"/>
<path d="M218.806 85.106V207.857C218.806 218.395 226.113 226.94 235.126 226.94H402.405C405.545 226.94 408.627 228.005 411.282 230L435.896 248.652C446.75 256.88 461.092 247.769 461.092 232.629V85.083C461.092 74.545 453.785 66 444.773 66H235.145C226.113 66.023 218.806 74.567 218.806 85.106Z" fill="#4F27AA"/>
<path d="M409.506 154.785H270.132C265.767 154.785 262.217 151.235 262.217 146.87C262.217 142.505 265.767 138.954 270.132 138.954H409.506C413.871 138.954 417.421 142.505 417.421 146.87C417.421 151.235 413.871 154.785 409.506 154.785ZM332.465 120.776H269.627C265.262 120.776 261.711 117.226 261.711 112.86C261.711 108.495 265.262 104.945 269.627 104.945H332.465C336.83 104.945 340.38 108.495 340.38 112.86C340.38 117.226 336.83 120.776 332.465 120.776ZM270.132 174.011H409.506C413.871 174.011 417.421 177.561 417.421 181.926C417.421 186.291 413.871 189.842 409.506 189.842H270.132C265.767 189.842 262.217 186.291 262.217 181.926C262.217 177.561 265.767 174.011 270.132 174.011Z" fill="white"/>
<path d="M741.235 115.391V238.141C741.235 248.68 733.928 257.225 724.916 257.225H557.636C554.496 257.225 551.414 258.29 548.759 260.284L524.145 278.937C513.291 287.164 498.949 278.053 498.949 262.913V115.368C498.949 104.829 506.256 96.2852 515.268 96.2852H724.896C733.928 96.3072 741.235 104.852 741.235 115.391Z" fill="#4F27AA"/>
<path d="M550.536 185.074H689.909C694.274 185.074 697.824 181.524 697.824 177.158C697.824 172.793 694.274 169.243 689.909 169.243H550.536C546.171 169.243 542.62 172.793 542.62 177.158C542.62 181.524 546.171 185.074 550.536 185.074ZM551.004 151.064H613.842C618.207 151.064 621.758 147.514 621.758 143.149C621.758 138.784 618.207 135.234 613.842 135.234H551.004C546.639 135.234 543.089 138.784 543.089 143.149C543.089 147.514 546.639 151.064 551.004 151.064ZM689.909 204.299H550.536C546.171 204.299 542.62 207.85 542.62 212.215C542.62 216.58 546.171 220.13 550.536 220.13H689.909C694.274 220.13 697.824 216.58 697.824 212.215C697.824 207.85 694.274 204.299 689.909 204.299Z" fill="white"/>
</g>
<defs>
<linearGradient id="paint0_linear_1235_25136" x1="463.656" y1="745.889" x2="455.323" y2="-335.638" gradientUnits="userSpaceOnUse">
<stop stop-color="white"/>
<stop offset="1" stop-color="#EEEEEE"/>
</linearGradient>
<clipPath id="clip0_1235_25136">
<rect width="900" height="600" fill="white"/>
</clipPath>
</defs>
</svg>
