<svg width="900" height="600" viewBox="0 0 900 600" fill="none" xmlns="http://www.w3.org/2000/svg">
<g clip-path="url(#clip0_1235_25152)">
<path d="M518.027 235.491C507.055 255.072 483.026 257.762 444.53 254.041C415.579 251.238 389.177 249.068 360.223 233.282C339.957 222.241 323.916 207.302 312.207 192.793C299.519 177.075 281.81 159.137 290.492 141.315C302.422 116.834 371.416 96.2149 438.411 129.933C512.005 166.984 528.76 216.353 518.027 235.491Z" fill="url(#paint0_linear_1235_25152)"/>
<path d="M721.527 238.159C700.857 248.412 673.424 235.228 673.424 235.228C673.424 235.228 679.521 205.427 700.201 195.188C720.871 184.935 748.293 198.104 748.293 198.104C748.293 198.104 742.196 227.906 721.527 238.159Z" fill="url(#paint1_linear_1235_25152)"/>
<path d="M84.2799 345.098C106.316 358.305 137.932 346.097 137.932 346.097C137.932 346.097 133.798 312.478 111.748 299.285C89.7109 286.077 58.1079 298.272 58.1079 298.272C58.1079 298.272 62.2419 331.89 84.2789 345.098H84.2799Z" fill="url(#paint2_linear_1235_25152)"/>
<path d="M684.752 146.178C678.519 146.178 673.466 151.231 673.466 157.464C673.466 163.697 678.519 168.75 684.752 168.75C690.985 168.75 696.038 163.697 696.038 157.464C696.038 151.231 690.985 146.178 684.752 146.178Z" fill="#4F27AA"/>
<path d="M295.269 218.832C290.138 218.832 285.978 222.992 285.978 228.123C285.978 233.254 290.138 237.414 295.269 237.414C300.4 237.414 304.56 233.254 304.56 228.123C304.56 222.992 300.4 218.832 295.269 218.832Z" fill="#4F27AA"/>
<path d="M228.308 320.353C222.464 320.353 217.727 315.616 217.727 309.772C217.727 303.929 222.464 299.191 228.308 299.191C234.152 299.191 238.889 303.929 238.889 309.772C238.889 315.616 234.152 320.353 228.308 320.353Z" fill="#4F27AA"/>
<path d="M625.564 206.692C622.837 206.692 620.626 204.482 620.626 201.754C620.626 199.027 622.837 196.816 625.564 196.816C628.291 196.816 630.502 199.027 630.502 201.754C630.502 204.482 628.291 206.692 625.564 206.692Z" fill="#4F27AA"/>
<path d="M651.689 423.075C648.183 423.075 645.341 420.233 645.341 416.727C645.341 413.221 648.183 410.379 651.689 410.379C655.195 410.379 658.037 413.221 658.037 416.727C658.037 420.233 655.195 423.075 651.689 423.075Z" fill="#E1E4E5"/>
<path d="M190.57 381.379C185.506 381.379 181.4 377.274 181.4 372.209C181.4 367.145 185.506 363.039 190.57 363.039C195.635 363.039 199.74 367.145 199.74 372.209C199.74 377.274 195.635 381.379 190.57 381.379Z" fill="#E1E4E5"/>
<path d="M703.562 371.493C699.708 371.493 696.583 368.369 696.583 364.514C696.583 360.66 699.708 357.535 703.562 357.535C707.416 357.535 710.541 360.66 710.541 364.514C710.541 368.369 707.416 371.493 703.562 371.493Z" fill="#E1E4E5"/>
<path d="M609.956 145.975C605.671 145.975 602.197 142.501 602.197 138.216C602.197 133.931 605.671 130.457 609.956 130.457C614.241 130.457 617.715 133.931 617.715 138.216C617.715 142.501 614.241 145.975 609.956 145.975Z" fill="#E1E4E5"/>
<path d="M204.371 226.663C205.367 230.38 203.161 234.201 199.443 235.197C195.726 236.193 191.905 233.987 190.909 230.27C189.913 226.552 192.119 222.732 195.837 221.736C199.554 220.74 203.375 222.946 204.371 226.663Z" fill="#E1E4E5"/>
<path d="M366.152 99.1669C361.033 99.1669 356.883 95.017 356.883 89.8979C356.883 84.7788 361.033 80.6289 366.152 80.6289C371.271 80.6289 375.421 84.7788 375.421 89.8979C375.421 95.017 371.271 99.1669 366.152 99.1669Z" fill="#E1E4E5"/>
<path d="M637.664 339.22C633.726 339.22 630.534 336.667 630.534 333.516C630.534 330.366 633.726 327.812 637.664 327.812C641.602 327.812 644.794 330.366 644.794 333.516C644.794 336.667 641.602 339.22 637.664 339.22Z" fill="#E1E4E5"/>
<path d="M548.931 64.807C548.931 71.8801 543.197 77.614 536.124 77.614C529.051 77.614 523.317 71.8801 523.317 64.807C523.317 57.7339 529.051 52 536.124 52C543.197 52 548.931 57.7339 548.931 64.807Z" fill="#E1E4E5"/>
<path d="M217.834 178.242H217.936C218.537 186.764 224.875 186.895 224.875 186.895C224.875 186.895 217.886 187.031 217.886 196.878C217.886 187.031 210.898 186.895 210.898 186.895C210.898 186.895 217.233 186.764 217.834 178.242ZM275.025 423.586H275.123C275.7 432.083 281.785 432.213 281.785 432.213C281.785 432.213 275.075 432.349 275.075 442.167C275.075 432.349 268.365 432.213 268.365 432.213C268.365 432.213 274.448 432.083 275.025 423.586Z" fill="#E1E4E5"/>
<path fill-rule="evenodd" clip-rule="evenodd" d="M572.844 403.367V469.259C572.844 475.328 571.195 481.284 568.072 486.488C564.95 491.692 560.471 495.95 555.116 498.806L469.739 544.39C464.891 546.975 459.48 548.328 453.986 548.328C448.491 548.328 443.081 546.975 438.233 544.39L352.856 498.806C347.5 495.95 343.022 491.693 339.899 486.488C336.776 481.284 335.127 475.329 335.127 469.259V403.367" fill="white"/>
<path d="M572.844 403.367V469.259C572.844 475.328 571.195 481.284 568.072 486.488C564.95 491.692 560.471 495.95 555.116 498.806L469.739 544.39C464.891 546.975 459.48 548.328 453.986 548.328C448.491 548.328 443.081 546.975 438.233 544.39L352.856 498.806C347.5 495.95 343.022 491.693 339.899 486.488C336.776 481.284 335.127 475.329 335.127 469.259V403.367" stroke="#E1E4E5" stroke-width="4"/>
<path fill-rule="evenodd" clip-rule="evenodd" d="M406.075 250.726L607.917 354.903C610.631 356.304 612.91 358.419 614.507 361.021C616.105 363.624 616.96 366.613 616.981 369.667C617.002 372.72 616.187 375.721 614.625 378.345C613.062 380.968 610.812 383.115 608.118 384.551L532.785 424.728C528.005 427.279 522.677 428.631 517.26 428.669C511.842 428.707 506.496 427.429 501.681 424.946L299.889 320.735C297.175 319.335 294.897 317.22 293.299 314.618C291.702 312.016 290.846 309.026 290.826 305.973C290.805 302.919 291.62 299.919 293.182 297.295C294.744 294.672 296.994 292.525 299.688 291.088L375.021 250.91C379.797 248.374 385.117 247.033 390.525 247.001C395.933 246.969 401.269 248.247 406.075 250.726Z" fill="white" stroke="#E1E4E5" stroke-width="4"/>
<path d="M501.731 250.726L299.889 354.903C297.175 356.304 294.896 358.419 293.298 361.021C291.701 363.624 290.845 366.613 290.825 369.667C290.804 372.72 291.619 375.721 293.181 378.345C294.743 380.968 296.993 383.115 299.688 384.551L375.021 424.728C379.801 427.279 385.128 428.631 390.546 428.669C395.964 428.707 401.31 427.429 406.125 424.946L607.917 320.735C610.63 319.335 612.909 317.22 614.507 314.618C616.104 312.016 616.96 309.026 616.98 305.973C617.001 302.919 616.186 299.919 614.624 297.295C613.062 294.672 610.812 292.525 608.118 291.088L532.785 250.91C528.008 248.374 522.689 247.033 517.281 247.001C511.872 246.969 506.537 248.247 501.731 250.726V250.726Z" stroke="#E1E4E5" stroke-width="4"/>
<path d="M453.904 548.326V400.238" stroke="#E1E4E5" stroke-width="4"/>
<path d="M122.768 217.694C149.547 194.669 220.222 152.224 288.694 166.64C374.285 184.659 563.486 177.151 579.253 108.828C595.02 40.5061 450.867 54.0201 507.176 151.624C552.224 229.706 710.642 290.271 784.971 316.048" stroke="#E1E4E5" stroke-width="2" stroke-dasharray="7 6"/>
<path d="M526.746 118.41H380.395C361.865 118.41 346.844 133.431 346.844 151.961V293.325C346.844 311.855 361.865 326.876 380.395 326.876H526.746C545.275 326.876 560.297 311.855 560.297 293.325V151.961C560.297 133.431 545.275 118.41 526.746 118.41Z" fill="#4F27AA"/>
<path d="M476.331 310.4L461.027 295.097C456.441 290.511 449.006 290.511 444.42 295.097L429.116 310.4C424.53 314.986 424.53 322.422 429.116 327.008L444.42 342.311C449.006 346.897 456.441 346.897 461.027 342.311L476.331 327.008C480.917 322.422 480.917 314.986 476.331 310.4Z" fill="#4F27AA"/>
<path fill-rule="evenodd" clip-rule="evenodd" d="M509.428 268.76V276.873C509.428 281.351 505.821 284.986 501.377 284.986H404.767C400.323 284.986 396.717 281.351 396.717 276.873V268.63C396.717 244.081 424.556 228.131 453.072 228.131C481.588 228.131 509.428 244.089 509.428 268.63M472.322 168.777C483.229 180.073 483.229 198.388 472.322 209.684C461.415 220.981 443.732 220.981 432.825 209.684C421.918 198.388 421.918 180.073 432.825 168.777C443.732 157.481 461.415 157.481 472.322 168.777Z" fill="white"/>
<path d="M135.489 151.516H79.9299C61.4002 151.516 46.3789 166.537 46.3789 185.067V237.76C46.3789 256.289 61.4002 271.311 79.9299 271.311H135.489C154.019 271.311 169.04 256.289 169.04 237.76V185.067C169.04 166.537 154.019 151.516 135.489 151.516Z" fill="#4F27AA"/>
<path d="M117.256 258.307L115.526 256.577C110.94 251.991 103.505 251.991 98.9186 256.577L97.1883 258.307C92.6024 262.893 92.6024 270.328 97.1883 274.914L98.9186 276.645C103.505 281.231 110.94 281.231 115.526 276.645L117.256 274.914C121.842 270.328 121.842 262.893 117.256 258.307Z" fill="#4F27AA"/>
<path fill-rule="evenodd" clip-rule="evenodd" d="M139.807 237.914V242.576C139.807 245.15 137.735 247.238 135.181 247.238H79.6641C77.1101 247.238 75.0381 245.15 75.0381 242.576V237.84C75.0381 223.732 91.0361 214.567 107.422 214.567C123.809 214.567 139.807 223.737 139.807 237.84M118.485 180.459C124.752 186.95 124.752 197.475 118.485 203.966C112.217 210.458 102.055 210.458 95.7881 203.966C89.5201 197.475 89.5201 186.95 95.7881 180.459C102.055 173.967 112.217 173.967 118.485 180.459Z" fill="white"/>
<path d="M820.449 238.09H764.89C746.36 238.09 731.339 253.111 731.339 271.641V324.334C731.339 342.864 746.36 357.885 764.89 357.885H820.449C838.979 357.885 854 342.864 854 324.334V271.641C854 253.111 838.979 238.09 820.449 238.09Z" fill="#4F27AA"/>
<path d="M802.216 344.885L800.486 343.155C795.9 338.569 788.465 338.569 783.879 343.155L782.148 344.885C777.562 349.471 777.562 356.907 782.148 361.492L783.879 363.223C788.465 367.809 795.9 367.809 800.486 363.223L802.216 361.492C806.802 356.907 806.802 349.471 802.216 344.885Z" fill="#4F27AA"/>
<path fill-rule="evenodd" clip-rule="evenodd" d="M824.768 324.488V329.15C824.768 331.724 822.695 333.812 820.141 333.812H764.624C762.07 333.812 759.998 331.724 759.998 329.15V324.413C759.998 310.306 775.996 301.141 792.383 301.141C808.769 301.141 824.768 310.311 824.768 324.413M803.445 267.032C809.712 273.524 809.712 284.049 803.445 290.54C797.177 297.031 787.015 297.031 780.748 290.54C774.48 284.049 774.48 273.524 780.748 267.032C787.015 260.541 797.177 260.541 803.445 267.032Z" fill="white"/>
</g>
<defs>
<linearGradient id="paint0_linear_1235_25152" x1="444.115" y1="362.394" x2="346.323" y2="-77.0431" gradientUnits="userSpaceOnUse">
<stop stop-color="white"/>
<stop offset="1" stop-color="#EEEEEE"/>
</linearGradient>
<linearGradient id="paint1_linear_1235_25152" x1="642.155" y1="270.141" x2="812.635" y2="135.29" gradientUnits="userSpaceOnUse">
<stop stop-color="white"/>
<stop offset="1" stop-color="#EEEEEE"/>
</linearGradient>
<linearGradient id="paint2_linear_1235_25152" x1="169.556" y1="387.612" x2="-7.76007" y2="222.862" gradientUnits="userSpaceOnUse">
<stop stop-color="white"/>
<stop offset="1" stop-color="#EEEEEE"/>
</linearGradient>
<clipPath id="clip0_1235_25152">
<rect width="900" height="600" fill="white"/>
</clipPath>
</defs>
</svg>
