<svg width="900" height="600" viewBox="0 0 900 600" fill="none" xmlns="http://www.w3.org/2000/svg">
<g clip-path="url(#clip0_1235_18487)">
<path d="M368.469 349.072C378.827 387.259 477.371 439.309 558.443 381.209C596.149 354.185 585.386 333.565 607.866 294.276C621.266 270.859 644.368 248.866 643.761 221.463C643.243 197.808 631.58 176.052 615.214 164.802C578.405 139.501 518.982 133.481 485.54 203.553C452.099 273.625 341.766 250.583 368.469 349.072Z" fill="url(#paint0_linear_1235_18487)"/>
<path d="M504.004 187.556C460.066 213.774 414.422 242.1 369.141 246.082C322.429 250.2 321.029 234.461 327.246 213.132C333.464 191.803 366.011 149.058 429.364 144.342C492.734 139.623 545.12 163.016 504.004 187.556Z" fill="url(#paint1_linear_1235_18487)"/>
<path d="M450.84 140.077L437.615 163.153L437.3 163.702C435.708 166.523 436.47 170.074 439.071 171.965L457.033 185.035C457.333 185.251 457.602 185.486 457.852 185.736C459.547 187.52 460.118 190.172 459.128 192.471C453.476 206.111 450.588 220.703 450.666 235.458C450.657 236.054 450.572 236.647 450.413 237.223C449.797 239.346 448.057 241.052 445.859 241.618L427.864 246.072C425.499 246.677 423.722 248.599 423.21 250.88C423.076 251.578 423.016 252.338 423.117 253.105L426.791 280.014C427.234 283.318 430.185 285.779 433.553 285.594L458.183 284.336C459.371 284.276 460.552 284.556 461.587 285.143C462.622 285.731 463.468 286.601 464.025 287.653C465.72 290.727 467.516 293.732 469.504 296.683C473.159 302.114 477.292 307.207 481.853 311.904L481.873 311.93C483.744 313.857 484.237 316.68 483.109 319.108L472.558 341.819L472.04 342.966C470.659 345.87 471.758 349.42 474.594 351.037L498.164 364.58C501.046 366.208 504.713 365.448 506.661 362.762L521.212 342.78C522.827 340.554 525.685 339.612 528.264 340.455C539.239 343.842 550.684 345.547 562.181 345.429C563.604 345.426 564.986 345.901 566.106 346.777C567.227 347.653 568.021 348.88 568.362 350.261L573.699 371.575C574.086 373.126 575.033 374.48 576.359 375.375C577.684 376.269 579.294 376.641 580.878 376.42L607.906 372.749C611.1 372.306 613.418 369.488 613.246 366.303L611.804 337.351C611.669 334.896 612.957 332.585 615.103 331.374C617.773 329.882 620.378 328.278 622.911 326.565C627.651 323.375 632.142 319.83 636.344 315.959C638.204 314.215 640.925 313.745 643.229 314.852L670.516 327.56C671.959 328.229 673.601 328.333 675.117 327.852C676.633 327.372 677.915 326.341 678.709 324.963L692.299 301.296C693.721 298.786 693.247 295.606 691.232 293.627C691.023 293.428 690.794 293.204 690.528 293.039L668.363 276.885C666.296 275.393 665.295 272.842 665.864 270.366C665.907 270.15 665.951 269.928 666.034 269.718C666.248 269.081 666.457 268.484 666.612 267.811C668.982 260.262 670.535 252.481 671.245 244.602C671.438 241.965 673.371 239.753 675.982 239.131L698.497 233.489C701.691 232.703 703.769 229.596 703.316 226.331L702.509 220.347L699.637 199.468C699.209 196.189 696.317 193.811 693.001 193.955L668.739 195.193C666.148 195.347 663.789 193.821 662.756 191.44C660 185.058 656.656 178.947 652.768 173.186C649.859 168.87 646.648 164.767 643.158 160.906L645.379 156.144L654.449 136.593C655.597 134.184 655.044 131.331 653.192 129.545C652.807 129.155 652.366 128.826 651.884 128.567L628.166 114.896C625.344 113.304 621.788 114.106 619.876 116.686L609.957 130.359C608.281 132.665 605.176 133.578 602.53 132.518C591.59 128.118 580.021 125.482 568.255 124.709C565.476 124.534 563.173 122.631 562.571 119.999L555.839 93.0556C555.468 91.5997 554.575 90.3309 553.33 89.4907C552.085 88.6504 550.574 88.2973 549.085 88.4986L521.769 92.2516C518.529 92.6906 516.186 95.5216 516.378 98.7326L517.886 128.855C518.04 131.446 516.574 133.84 514.202 134.944C509.14 137.293 504.214 140.118 499.407 143.357C496.844 145.082 494.354 146.913 491.943 148.845C491.021 149.578 489.915 150.042 488.746 150.186C487.577 150.331 486.391 150.149 485.318 149.663L459.153 137.494C457.696 136.804 456.033 136.686 454.493 137.165C452.953 137.643 451.65 138.682 450.84 140.077ZM508.208 262.361C498.06 242.944 498.949 222.426 507.527 207.614C537.681 155.741 610.715 169.284 620.778 227.585C623.167 242.541 619.535 258.474 607.243 272.966C578.502 306.49 527.633 299.461 508.208 262.361ZM289.757 203.438L272.546 211.467L272.136 211.658C270.047 212.65 269.03 215.036 269.77 217.209L274.878 232.227C274.964 232.476 275.025 232.723 275.067 232.972C275.323 234.711 274.565 236.494 273.041 237.428C264.137 243.052 256.446 250.399 250.42 259.037C250.169 259.381 249.875 259.692 249.546 259.963C248.924 260.453 248.187 260.775 247.404 260.896C246.622 261.017 245.821 260.934 245.08 260.655L232.745 255.852C231.956 255.556 231.101 255.483 230.273 255.64C229.445 255.798 228.677 256.179 228.051 256.744C227.662 257.109 227.335 257.534 227.081 258.004L218.157 275.221C217.055 277.331 217.766 279.982 219.808 281.259L234.701 290.657C235.419 291.111 235.993 291.76 236.355 292.528C236.717 293.297 236.853 294.153 236.746 294.996C236.462 297.495 236.29 300.006 236.229 302.521C236.129 307.194 236.445 311.867 237.175 316.485L237.176 316.508C237.327 317.425 237.194 318.366 236.796 319.206C236.397 320.045 235.751 320.743 234.945 321.206L219.444 330.121L218.67 330.577C216.669 331.704 215.851 334.228 216.841 336.338L225.027 353.939C226.039 356.074 228.491 357.139 230.733 356.373L247.446 350.696C249.305 350.061 251.36 350.687 252.518 352.24C257.531 358.731 263.509 364.435 270.268 369.095C271.099 369.678 271.711 370.524 272.004 371.496C272.298 372.469 272.257 373.511 271.888 374.458L266.235 389.093C265.823 390.158 265.819 391.337 266.224 392.405C266.63 393.473 267.416 394.352 268.432 394.875L285.717 403.85C287.764 404.905 290.276 404.214 291.486 402.285L302.554 384.794C303.013 384.065 303.667 383.479 304.442 383.102C305.216 382.725 306.081 382.573 306.938 382.662C309.092 382.889 311.272 383.024 313.474 383.067C317.553 383.155 321.632 382.933 325.677 382.402C327.48 382.15 329.262 382.995 330.151 384.588L340.849 403.23C341.416 404.214 342.331 404.95 343.414 405.294C344.497 405.637 345.669 405.562 346.7 405.085L364.367 396.863C365.268 396.432 366.004 395.719 366.461 394.831C366.918 393.943 367.072 392.93 366.899 391.947C366.859 391.745 366.817 391.52 366.73 391.314L360.438 372.768C359.846 371.047 360.311 369.146 361.662 367.935C361.776 367.827 361.892 367.716 362.027 367.627C362.414 367.343 362.782 367.081 363.149 366.752C367.638 363.321 371.745 359.418 375.4 355.111C376.598 353.652 378.636 353.156 380.416 353.867L395.877 359.836C398.065 360.691 400.556 359.732 401.635 357.641L403.626 353.816L410.538 340.448C411.637 338.358 410.928 335.781 408.933 334.501L394.263 325.243C392.687 324.267 391.938 322.406 392.315 320.592C393.331 315.733 393.893 310.791 393.994 305.829C394.071 302.113 393.885 298.397 393.436 294.708L396.692 292.842L410.028 285.162C410.827 284.712 411.466 284.024 411.854 283.194C412.242 282.364 412.361 281.433 412.193 280.532C412.13 280.146 412.008 279.772 411.832 279.423L403.613 261.687C402.621 259.597 400.216 258.602 398.038 259.322L386.625 263.222C384.697 263.878 382.51 263.134 381.402 261.427C376.827 254.358 371.159 248.06 364.609 242.769C363.059 241.524 362.498 239.466 363.229 237.682L370.383 219.188C370.766 218.185 370.766 217.078 370.385 216.075C370.004 215.072 369.268 214.245 368.316 213.75L350.829 204.703C348.757 203.626 346.225 204.315 345.016 206.268L333.505 224.469C332.53 226.045 330.689 226.839 328.851 226.507C324.93 225.796 320.892 225.418 316.755 225.332C314.55 225.285 312.343 225.329 310.141 225.464C309.301 225.512 308.464 225.329 307.723 224.932C306.981 224.536 306.363 223.942 305.937 223.217L295.672 205.351C295.105 204.349 294.183 203.596 293.087 203.242C291.992 202.887 290.803 202.957 289.757 203.438ZM272.937 298.41C275.002 282.902 283.961 271.293 295.061 266.176C333.999 248.304 371.055 286.252 352.945 324.419C348.187 334.131 339.513 341.937 326.377 345.338C295.812 353.082 269.014 328.054 272.937 298.41ZM408.261 375.851L398.951 385.188L398.73 385.41C398.186 385.958 397.863 386.688 397.823 387.46C397.782 388.231 398.027 388.991 398.51 389.594L405.419 398.169C405.535 398.31 405.633 398.458 405.721 398.609C406.302 399.682 406.233 401.025 405.462 401.998C400.996 407.787 397.731 414.41 395.861 421.479C395.78 421.763 395.662 422.036 395.512 422.291C395.224 422.759 394.819 423.144 394.338 423.41C393.857 423.676 393.315 423.812 392.765 423.807L383.577 423.615C382.992 423.61 382.417 423.766 381.915 424.066C381.413 424.366 381.003 424.798 380.729 425.315C380.562 425.645 380.45 426.001 380.397 426.368L378.681 439.721C378.58 440.519 378.783 441.326 379.249 441.982C379.714 442.639 380.409 443.096 381.196 443.265L393.147 445.843C393.724 445.967 394.253 446.254 394.672 446.669C395.092 447.084 395.384 447.609 395.515 448.185C395.929 449.875 396.401 451.545 396.971 453.215C398.02 456.286 399.34 459.257 400.916 462.094L400.922 462.109C401.239 462.671 401.377 463.316 401.317 463.958C401.257 464.601 401.002 465.21 400.587 465.704L392.604 475.211L392.208 475.693C391.706 476.286 391.446 477.047 391.48 477.824C391.513 478.601 391.837 479.337 392.388 479.886L401.921 489.411C403.089 490.562 404.943 490.672 406.222 489.638L415.766 481.954C416.279 481.536 416.911 481.292 417.571 481.255C418.232 481.219 418.887 481.393 419.442 481.752C424.258 484.797 429.517 487.077 435.032 488.512C435.713 488.694 436.314 489.1 436.737 489.664C437.16 490.228 437.382 490.917 437.367 491.623L437.169 502.513C437.154 503.305 437.432 504.075 437.951 504.675C438.47 505.274 439.192 505.66 439.979 505.759L453.389 507.492C454.151 507.589 454.922 507.396 455.549 506.953C456.176 506.509 456.615 505.846 456.777 505.096L459.826 491.054C459.951 490.469 460.238 489.931 460.653 489.501C461.069 489.07 461.596 488.765 462.176 488.619C463.646 488.249 465.1 487.818 466.534 487.325C469.215 486.411 471.822 485.294 474.333 483.984C475.448 483.389 476.811 483.516 477.771 484.343L489.19 493.949C489.794 494.455 490.566 494.717 491.354 494.683C492.142 494.649 492.888 494.321 493.446 493.764L503.007 484.192C503.492 483.696 503.802 483.056 503.888 482.368C503.975 481.68 503.833 480.983 503.486 480.383C503.412 480.261 503.331 480.124 503.225 480.011L494.703 469.417C493.906 468.437 493.756 467.086 494.349 465.975C494.397 465.877 494.447 465.776 494.514 465.686C494.698 465.409 494.876 465.15 495.037 464.848C497.146 461.541 498.894 458.018 500.251 454.339C500.684 453.102 501.895 452.292 503.225 452.332L514.729 452.539C516.359 452.575 517.755 451.357 517.96 449.735L518.346 446.767L519.668 436.404C519.886 434.779 518.809 433.267 517.204 432.908L505.432 430.367C504.172 430.107 503.24 429.072 503.053 427.799C502.558 424.389 501.747 421.032 500.63 417.773C499.795 415.331 498.787 412.952 497.616 410.654L499.294 408.662L506.159 400.476C506.573 399.992 506.826 399.391 506.881 398.757C506.936 398.123 506.792 397.488 506.468 396.94C506.338 396.704 506.168 396.497 505.968 396.303L496.382 386.698C495.237 385.571 493.431 385.496 492.183 386.484L485.67 391.747C484.57 392.634 482.966 392.67 481.837 391.821C477.169 388.302 471.973 385.547 466.441 383.658C465.134 383.215 464.277 382.007 464.328 380.67L464.586 366.906C464.597 366.161 464.333 365.438 463.846 364.875C463.358 364.312 462.681 363.948 461.942 363.852L448.383 362.121C446.776 361.913 445.289 362.965 444.966 364.527L441.798 379.138C441.538 380.398 440.527 381.355 439.249 381.576C436.523 382.047 433.8 382.763 431.082 383.693C429.633 384.187 428.205 384.742 426.801 385.355C426.265 385.586 425.676 385.666 425.097 385.584C424.519 385.502 423.975 385.263 423.524 384.892L412.573 375.688C411.965 375.17 411.184 374.899 410.385 374.929C409.587 374.959 408.829 375.288 408.261 375.851ZM419.927 441.786C417.577 431.182 420.653 421.477 426.67 415.495C447.801 394.562 481.007 410.475 478.294 439.677C477.507 447.144 473.711 454.301 465.956 459.649C447.872 471.983 424.433 462.05 419.927 441.786Z" fill="#4F27AA"/>
<path d="M623.852 391.923L624.118 405.593L624.126 405.918C624.144 406.718 624.456 407.484 625.003 408.069C625.55 408.654 626.293 409.017 627.091 409.089L638.469 410.094C638.658 410.111 638.839 410.141 639.014 410.188C640.232 410.526 641.187 411.542 641.356 412.819C642.462 420.318 645.057 427.519 648.988 434.001C649.148 434.272 649.264 434.558 649.343 434.846C649.484 435.398 649.48 435.978 649.332 436.529C649.184 437.079 648.896 437.583 648.496 437.99L641.737 444.717C641.312 445.15 641.014 445.692 640.876 446.283C640.738 446.874 640.765 447.492 640.954 448.069C641.078 448.414 641.254 448.763 641.502 449.076L650.238 459.961C650.762 460.611 651.511 461.04 652.336 461.164C653.161 461.288 654.003 461.098 654.695 460.631L665.228 453.557C665.736 453.216 666.331 453.027 666.942 453.011C667.554 452.996 668.157 453.156 668.681 453.471C673.144 456.101 677.946 458.109 682.954 459.437L682.968 459.444C683.616 459.611 684.198 459.972 684.634 460.479C685.071 460.986 685.342 461.615 685.411 462.281L686.765 475.077L686.841 475.72C686.998 477.366 688.423 478.637 690.102 478.6L704.085 478.318C705.786 478.271 707.201 476.967 707.354 475.269L708.491 462.612C708.549 461.928 708.821 461.28 709.27 460.761C709.718 460.242 710.32 459.878 710.988 459.722C716.732 458.313 722.223 456.023 727.265 452.934C727.891 452.556 728.626 452.399 729.352 452.489C730.078 452.578 730.753 452.909 731.269 453.428L739.252 461.408C739.833 461.989 740.61 462.335 741.431 462.379C742.252 462.422 743.06 462.161 743.7 461.644L754.652 452.872C755.273 452.373 755.685 451.659 755.805 450.871C755.926 450.084 755.746 449.28 755.303 448.618L747.014 436.243C746.669 435.727 746.474 435.126 746.451 434.506C746.429 433.886 746.58 433.272 746.887 432.734C749.129 428.816 750.906 424.65 752.182 420.321C752.54 419.058 753.619 418.132 754.926 418.01L770.322 416.386C771.136 416.298 771.887 415.909 772.429 415.296C772.971 414.683 773.263 413.889 773.25 413.071L772.989 399.047C772.969 398.328 772.713 397.636 772.261 397.076C771.81 396.517 771.187 396.121 770.489 395.95C770.343 395.917 770.183 395.879 770.024 395.875L755.974 394.625C754.668 394.515 753.552 393.654 753.15 392.413C753.111 392.305 753.072 392.199 753.055 392.083C752.981 391.744 752.915 391.427 752.805 391.09C751.855 387.137 750.483 383.298 748.714 379.639C748.103 378.424 748.369 376.94 749.357 375.972L757.797 367.528C758.996 366.337 759.092 364.415 758.029 363.097L756.09 360.672L749.302 352.233C748.246 350.9 746.341 350.619 744.917 351.561L734.541 358.53C733.437 359.283 731.995 359.236 730.91 358.46C725.825 354.813 720.179 352.021 714.195 350.193L713.916 347.507L712.747 336.49C712.684 335.833 712.416 335.212 711.983 334.715C711.549 334.217 710.97 333.868 710.328 333.716C710.055 333.646 709.773 333.618 709.492 333.63L695.416 333.886C693.751 333.93 692.393 335.227 692.232 336.867L691.471 345.518C691.341 346.976 690.214 348.202 688.764 348.437C682.774 349.393 676.974 351.294 671.58 354.068C670.307 354.725 668.787 354.498 667.827 353.497L657.735 343.407C657.186 342.863 656.456 342.541 655.684 342.5C654.912 342.459 654.152 342.704 653.549 343.187L642.491 352.072C641.178 353.12 640.893 354.99 641.827 356.355L650.455 369.227C651.207 370.33 651.194 371.77 650.44 372.884C648.828 375.26 647.401 377.809 646.138 380.509C645.463 381.947 644.849 383.413 644.296 384.903C644.083 385.47 643.718 385.967 643.24 386.341C642.763 386.714 642.192 386.948 641.59 387.018L626.831 388.58C626.007 388.665 625.245 389.055 624.694 389.674C624.143 390.292 623.842 391.094 623.852 391.923ZM681.489 430.62C678.264 428.651 675.241 426.025 672.532 422.687C671.948 421.986 671.383 421.133 670.831 420.212C668.503 416.213 666.775 410.707 666.715 406.676C666.303 375.839 702.1 362.474 721.95 385.499C722.271 385.881 722.593 386.263 722.908 386.661C725.865 390.346 728.355 397.28 728.469 401.997C728.526 404.367 728.362 406.737 727.979 409.077C724.165 431.456 699.866 441.825 681.489 430.62Z" fill="url(#paint2_linear_1235_18487)"/>
<path d="M124.875 402.558L124.247 414.559L124.234 414.844C124.199 415.548 124.423 416.24 124.863 416.789C125.304 417.338 125.931 417.707 126.625 417.825L136.503 419.474C136.667 419.502 136.824 419.541 136.974 419.594C138.017 419.972 138.787 420.927 138.854 422.058C139.351 428.711 141.165 435.198 144.191 441.142C144.314 441.39 144.397 441.649 144.448 441.907C144.537 442.4 144.497 442.907 144.333 443.38C144.169 443.852 143.886 444.275 143.511 444.606L137.181 450.046C136.782 450.4 136.488 450.855 136.33 451.364C136.172 451.873 136.157 452.415 136.286 452.932C136.374 453.242 136.505 453.56 136.702 453.851L143.65 463.983C144.064 464.588 144.69 465.015 145.403 465.179C146.117 465.344 146.866 465.234 147.503 464.872L157.151 459.382C157.618 459.118 158.15 458.992 158.686 459.02C159.221 459.048 159.738 459.229 160.174 459.54C163.905 462.146 167.974 464.23 172.269 465.734L172.281 465.741C172.838 465.933 173.323 466.289 173.672 466.763C174.022 467.236 174.219 467.805 174.237 468.393L174.616 479.701L174.641 480.27C174.662 480.979 174.947 481.654 175.441 482.162C175.936 482.67 176.602 482.975 177.31 483.015L189.545 483.712C190.266 483.75 190.975 483.521 191.538 483.069C192.1 482.616 192.476 481.973 192.593 481.26L194.383 470.242C194.475 469.648 194.754 469.099 195.178 468.674C195.603 468.249 196.152 467.97 196.746 467.877C201.852 467.032 206.794 465.395 211.395 463.026C212.571 462.436 213.995 462.716 214.863 463.73L221.336 471.264C221.804 471.813 222.459 472.169 223.174 472.262C223.889 472.356 224.614 472.181 225.207 471.771L235.329 464.822C235.904 464.424 236.308 463.824 236.463 463.142C236.618 462.46 236.511 461.745 236.165 461.137L229.701 449.729C229.431 449.256 229.299 448.716 229.318 448.172C229.337 447.627 229.508 447.099 229.811 446.645C232.019 443.36 233.833 439.828 235.218 436.12C235.405 435.592 235.748 435.133 236.202 434.804C236.656 434.475 237.2 434.293 237.76 434.28L251.315 433.896C252.032 433.875 252.714 433.584 253.227 433.083C253.739 432.581 254.045 431.905 254.082 431.189L254.736 418.877C254.764 418.246 254.584 417.623 254.225 417.102C253.866 416.582 253.347 416.193 252.747 415.994C252.621 415.955 252.484 415.91 252.345 415.897L240.148 413.851C239.594 413.765 239.077 413.517 238.663 413.138C238.248 412.759 237.955 412.267 237.819 411.722C237.792 411.624 237.764 411.529 237.757 411.426C237.713 411.124 237.676 410.841 237.601 410.539C237.019 407.009 236.062 403.551 234.746 400.224C234.288 399.118 234.614 397.835 235.539 397.053L243.445 390.222C244.567 389.258 244.772 387.58 243.925 386.352L242.384 384.096L236.984 376.239C236.578 375.644 235.963 375.222 235.261 375.058C234.559 374.895 233.822 375.001 233.194 375.355L223.69 380.763C222.678 381.349 221.421 381.209 220.522 380.456C218.118 378.436 215.531 376.643 212.796 375.1C210.75 373.945 208.625 372.936 206.437 372.08L206.362 369.706L206.034 359.97C206.02 359.39 205.825 358.828 205.478 358.363C205.13 357.899 204.647 357.553 204.094 357.375C203.86 357.297 203.617 357.252 203.37 357.243L191.054 356.517C189.597 356.443 188.329 357.488 188.085 358.915L186.876 366.446C186.67 367.717 185.609 368.715 184.327 368.822C179.036 369.256 173.848 370.531 168.958 372.599C167.805 373.088 166.491 372.786 165.715 371.844L157.532 362.318C157.089 361.805 156.473 361.473 155.801 361.385C155.129 361.298 154.448 361.46 153.888 361.842L143.667 368.884C143.084 369.282 142.672 369.884 142.515 370.572C142.357 371.26 142.466 371.982 142.818 372.593L149.546 384.46C149.832 384.957 149.962 385.528 149.919 386.1C149.876 386.672 149.662 387.217 149.304 387.665C147.724 389.681 146.306 391.818 145.065 394.058C144.385 395.274 143.756 396.517 143.18 397.785C142.959 398.268 142.608 398.679 142.167 398.974C141.726 399.269 141.212 399.436 140.682 399.456L127.688 399.828C126.962 399.848 126.271 400.14 125.75 400.645C125.229 401.151 124.917 401.834 124.875 402.558ZM172.801 440.374C170.108 438.429 167.631 435.923 165.474 432.814C165.008 432.16 164.568 431.375 164.144 430.53C162.361 426.867 161.198 421.924 161.398 418.386C162.978 391.326 195.097 382.028 210.993 403.553C211.249 403.91 211.507 404.267 211.757 404.637C214.108 408.067 215.848 414.313 215.651 418.456C215.552 420.537 215.259 422.603 214.777 424.629C210.038 443.989 188.154 451.438 172.801 440.374Z" fill="url(#paint3_linear_1235_18487)"/>
<path d="M173.553 283.093C168.591 283.093 164.568 286.865 164.568 291.516C164.568 296.168 168.591 299.939 173.553 299.939C178.515 299.939 182.538 296.168 182.538 291.516C182.538 286.865 178.515 283.093 173.553 283.093Z" fill="#E1E4E5"/>
<path d="M744.652 261.755C740 261.755 736.229 265.777 736.229 270.74C736.229 275.702 740 279.725 744.652 279.725C749.304 279.725 753.075 275.702 753.075 270.74C753.075 265.777 749.304 261.755 744.652 261.755Z" fill="#E1E4E5"/>
<path d="M317.31 414.497C312.348 414.497 308.325 418.52 308.325 423.482C308.325 428.444 312.348 432.467 317.31 432.467C322.272 432.467 326.295 428.444 326.295 423.482C326.295 418.52 322.272 414.497 317.31 414.497Z" fill="#E1E4E5"/>
<path d="M399.064 163.331C392.642 167.039 384.429 164.839 380.721 158.416C377.013 151.994 379.214 143.781 385.636 140.073C392.059 136.365 400.271 138.566 403.979 144.988C407.687 151.411 405.487 159.623 399.064 163.331Z" fill="#E1E4E5"/>
<path d="M568.325 425.728C574.838 425.728 580.118 420.699 580.118 414.497C580.118 408.294 574.838 403.266 568.325 403.266C561.812 403.266 556.532 408.294 556.532 414.497C556.532 420.699 561.812 425.728 568.325 425.728Z" fill="#4F27AA"/>
</g>
<defs>
<linearGradient id="paint0_linear_1235_18487" x1="530.42" y1="544.977" x2="463.12" y2="-119.312" gradientUnits="userSpaceOnUse">
<stop stop-color="white"/>
<stop offset="1" stop-color="#EEEEEE"/>
</linearGradient>
<linearGradient id="paint1_linear_1235_18487" x1="528.309" y1="49.0456" x2="258.003" y2="423.561" gradientUnits="userSpaceOnUse">
<stop stop-color="white"/>
<stop offset="1" stop-color="#EEEEEE"/>
</linearGradient>
<linearGradient id="paint2_linear_1235_18487" x1="613.352" y1="270.394" x2="821.728" y2="602.833" gradientUnits="userSpaceOnUse">
<stop stop-color="white"/>
<stop offset="1" stop-color="#EEEEEE"/>
</linearGradient>
<linearGradient id="paint3_linear_1235_18487" x1="123.344" y1="295.315" x2="284.551" y2="600.786" gradientUnits="userSpaceOnUse">
<stop stop-color="white"/>
<stop offset="1" stop-color="#EEEEEE"/>
</linearGradient>
<clipPath id="clip0_1235_18487">
<rect width="900" height="600" fill="white"/>
</clipPath>
</defs>
</svg>
