<svg width="900" height="600" viewBox="0 0 900 600" fill="none" xmlns="http://www.w3.org/2000/svg">
<g clip-path="url(#clip0_1235_25210)">
<path d="M756.214 410.516H701.113C687.611 410.516 676.299 401.326 676.299 389.687C676.299 383.867 679.218 378.659 683.597 374.984C687.976 371.308 694.179 368.858 701.113 368.858H709.141C716.074 368.858 722.277 366.407 726.656 362.731C731.035 359.056 733.955 353.848 733.955 348.029C733.955 336.695 723.007 327.2 709.141 327.2H540.841C536.444 327.2 533.618 321.795 533.618 317.398C533.618 306.371 523.036 297.488 509.899 297.488H447.269C445.685 297.488 444.166 296.859 443.045 295.739C441.925 294.619 441.296 293.099 441.296 291.515C441.296 289.931 441.925 288.412 443.045 287.292C444.166 286.171 445.685 285.542 447.269 285.542H687.246C697.828 285.542 707.681 281.866 714.614 276.046C721.548 270.226 725.927 261.956 725.927 253.073C725.927 235.001 708.411 220.604 687.246 220.604H563.301C543.854 220.604 524.603 205.595 505.155 205.595H435.955C425.805 205.595 417.577 197.367 417.577 187.216C417.577 177.066 425.805 168.838 435.955 168.838H590.909C598.208 168.838 605.141 166.387 609.885 162.405C614.629 158.423 617.548 152.91 617.548 146.477C617.548 134.225 605.506 124.117 590.909 124.117H233.661C226.363 124.117 219.43 126.567 214.686 130.549C209.942 134.531 207.023 140.045 207.023 146.477C207.023 158.73 219.065 168.838 233.661 168.838H242.784C254.826 168.838 265.044 177.108 265.044 187.523C265.044 192.73 262.489 197.325 258.475 200.694C254.461 204.063 248.988 206.207 242.784 206.207H198.63C190.967 206.207 183.669 208.964 178.56 213.253C173.451 217.541 170.167 223.361 170.167 230.1C170.167 243.271 182.939 253.685 198.265 253.685H243.149C257.746 253.685 269.788 263.794 269.788 276.046C269.788 282.172 266.868 287.686 262.125 291.668C257.381 295.65 250.812 298.1 243.514 298.1H203.374C196.805 298.1 190.967 300.244 186.588 303.92C182.209 307.596 179.655 312.497 179.655 318.01C179.655 329.037 190.237 337.92 203.374 337.92H235.851C254.461 337.92 269.423 350.479 269.423 366.101C269.423 373.759 265.774 381.11 259.57 386.011C253.367 391.218 244.974 394.281 235.851 394.281H190.602C181.479 394.281 173.086 397.344 167.248 402.552C161.044 407.453 157.395 414.498 157.395 422.155C157.395 437.471 172.356 450.029 190.602 450.029H330.323C345.753 450.029 360.911 458.606 376.342 458.606H401.788C411.516 458.606 419.401 466.492 419.401 476.219C419.401 485.946 411.516 493.832 401.788 493.832H339.851C331.823 493.832 324.889 496.588 319.78 500.877C314.672 505.165 311.388 511.291 311.388 517.724C311.388 530.895 324.159 541.616 339.851 541.616H719.358C727.386 541.616 734.319 538.859 739.428 534.571C744.537 530.282 747.821 524.156 747.821 517.724C747.821 504.552 735.049 493.832 719.358 493.832H708.046C696.369 493.832 687.246 485.868 687.246 476.372C687.246 471.471 689.435 467.183 693.449 464.12C697.099 461.057 702.572 458.912 708.411 458.912H756.214C764.242 458.912 771.176 456.156 776.284 451.867C781.393 447.579 784.677 441.453 784.677 435.02C784.677 421.236 771.905 410.516 756.214 410.516Z" fill="url(#paint0_linear_1235_25210)"/>
<path d="M100.892 299.676C117.191 291.591 138.824 301.987 138.824 301.987C138.824 301.987 134.016 325.487 117.709 333.561C101.41 341.646 79.786 331.261 79.786 331.261C79.786 331.261 84.594 307.761 100.892 299.676Z" fill="url(#paint1_linear_1235_25210)"/>
<path d="M802.681 235.209C787.59 226.165 765.94 234.526 765.94 234.526C765.94 234.526 768.771 257.547 783.871 266.582C798.961 275.626 820.603 267.275 820.603 267.275C820.603 267.275 817.772 244.254 802.681 235.209Z" fill="url(#paint2_linear_1235_25210)"/>
<path d="M283.491 74.0591C288.594 74.0591 292.731 78.196 292.731 83.2991C292.731 88.4022 288.594 92.5391 283.491 92.5391C278.388 92.5391 274.251 88.4022 274.251 83.2991C274.251 78.196 278.388 74.0591 283.491 74.0591Z" fill="#E1E4E5"/>
<path d="M678.765 106.286C686.136 106.286 692.112 112.262 692.112 119.633C692.112 127.005 686.136 132.98 678.765 132.98C671.394 132.98 665.418 127.005 665.418 119.633C665.418 112.262 671.394 106.286 678.765 106.286Z" fill="#E1E4E5"/>
<path d="M109.939 118.512C115.549 118.512 120.097 123.06 120.097 128.67C120.097 134.28 115.549 138.828 109.939 138.828C104.329 138.828 99.781 134.28 99.781 128.67C99.781 123.06 104.329 118.512 109.939 118.512Z" fill="#E1E4E5"/>
<path d="M772.101 447.586C772.101 441.985 776.641 437.445 782.242 437.445C787.843 437.445 792.383 441.985 792.383 447.586C792.383 453.186 787.843 457.727 782.242 457.727C776.641 457.727 772.101 453.186 772.101 447.586Z" fill="#E1E4E5"/>
<path d="M613.345 469.674C620.796 469.674 626.836 475.714 626.836 483.165C626.836 490.616 620.796 496.656 613.345 496.656C605.894 496.656 599.854 490.616 599.854 483.165C599.854 475.714 605.894 469.674 613.345 469.674Z" fill="#E1E4E5"/>
<path d="M194.645 227.298C200.377 227.298 205.023 231.015 205.023 235.6C205.023 240.185 200.377 243.902 194.645 243.902C188.913 243.902 184.267 240.185 184.267 235.6C184.267 231.015 188.913 227.298 194.645 227.298Z" fill="#E1E4E5"/>
<path d="M262.041 451.077C260.193 444.177 264.287 437.085 271.187 435.236C278.087 433.387 285.179 437.482 287.028 444.382C288.877 451.282 284.782 458.374 277.882 460.223C270.982 462.071 263.89 457.977 262.041 451.077Z" fill="#E1E4E5"/>
<path d="M767.493 155.557H767.351C766.511 143.19 757.654 143 757.654 143C757.654 143 767.42 142.802 767.42 128.512C767.42 142.802 777.187 143 777.187 143C777.187 143 768.334 143.19 767.493 155.557Z" fill="#E1E4E5"/>
<path fill-rule="evenodd" clip-rule="evenodd" d="M363.872 316.694L479.281 244.563C498.111 232.78 509.561 212.14 509.561 189.93C509.561 157.054 482.923 130.416 450.048 130.416C417.173 130.416 390.534 157.054 390.534 189.93C390.534 209.641 374.537 225.638 354.826 225.638C335.115 225.638 319.118 209.641 319.118 189.93C319.118 117.609 377.727 59 450.048 59C522.369 59 580.978 117.609 580.978 189.93V487.497C580.978 513.802 559.672 535.108 533.367 535.108H366.729C340.424 535.108 319.118 513.802 319.118 487.497V397.442C319.118 364.614 336.02 334.095 363.872 316.694Z" fill="#4F27AA"/>
<path d="M520.253 359.246L445.023 435.861L399.858 389.899" stroke="white" stroke-width="31.036" stroke-linecap="round" stroke-linejoin="round"/>
</g>
<defs>
<linearGradient id="paint0_linear_1235_25210" x1="484.411" y1="775.69" x2="475.842" y2="-330.135" gradientUnits="userSpaceOnUse">
<stop stop-color="white"/>
<stop offset="1" stop-color="#EEEEEE"/>
</linearGradient>
<linearGradient id="paint1_linear_1235_25210" x1="163.482" y1="274.456" x2="29.048" y2="380.794" gradientUnits="userSpaceOnUse">
<stop stop-color="white"/>
<stop offset="1" stop-color="#EEEEEE"/>
</linearGradient>
<linearGradient id="paint2_linear_1235_25210" x1="744.284" y1="206.096" x2="865.709" y2="318.916" gradientUnits="userSpaceOnUse">
<stop stop-color="white"/>
<stop offset="1" stop-color="#EEEEEE"/>
</linearGradient>
<clipPath id="clip0_1235_25210">
<rect width="900" height="600" fill="white"/>
</clipPath>
</defs>
</svg>
