<svg width="900" height="600" viewBox="0 0 900 600" fill="none" xmlns="http://www.w3.org/2000/svg">
<g clip-path="url(#clip0_1235_25225)">
<path d="M248.546 282.592C268.173 294.356 296.332 283.481 296.332 283.481C296.332 283.481 292.65 253.539 273.011 241.789C253.384 230.026 225.237 240.887 225.237 240.887C225.237 240.887 228.919 270.829 248.546 282.592Z" fill="url(#paint0_linear_1235_25225)"/>
<path d="M717.236 387.505C707.013 387.505 698.725 395.793 698.725 406.016C698.725 416.24 707.013 424.527 717.236 424.527C727.459 424.527 735.747 416.24 735.747 406.016C735.747 395.793 727.459 387.505 717.236 387.505Z" fill="#4F27AA"/>
<path d="M328.915 316.419C320.499 316.419 313.677 323.241 313.677 331.657C313.677 340.072 320.499 346.895 328.915 346.895C337.331 346.895 344.153 340.072 344.153 331.657C344.153 323.241 337.331 316.419 328.915 316.419Z" fill="#4F27AA"/>
<path d="M270.311 484.411C260.727 484.411 252.957 476.641 252.957 467.057C252.957 457.473 260.727 449.703 270.311 449.703C279.895 449.703 287.665 457.473 287.665 467.057C287.665 476.641 279.895 484.411 270.311 484.411Z" fill="#4F27AA"/>
<path d="M691.246 218.184C686.774 218.184 683.148 214.559 683.148 210.086C683.148 205.614 686.774 201.988 691.246 201.988C695.718 201.988 699.344 205.614 699.344 210.086C699.344 214.559 695.718 218.184 691.246 218.184Z" fill="#4F27AA"/>
<path d="M384.808 137.316C379.058 137.316 374.396 132.655 374.396 126.904C374.396 121.154 379.058 116.492 384.808 116.492C390.558 116.492 395.22 121.154 395.22 126.904C395.22 132.655 390.558 137.316 384.808 137.316Z" fill="#E1E4E5"/>
<path d="M542.824 506.66C536.502 506.66 531.377 501.535 531.377 495.213C531.377 488.891 536.502 483.766 542.824 483.766C549.146 483.766 554.271 488.891 554.271 495.213C554.271 501.535 549.146 506.66 542.824 506.66Z" fill="#E1E4E5"/>
<path d="M677.774 122.725C670.746 122.725 665.048 117.028 665.048 109.999C665.048 102.971 670.746 97.2734 677.774 97.2734C684.802 97.2734 690.5 102.971 690.5 109.999C690.5 117.028 684.802 122.725 677.774 122.725Z" fill="#E1E4E5"/>
<path d="M158.034 173.439C159.668 179.536 156.05 185.802 149.953 187.436C143.857 189.069 137.591 185.451 135.957 179.355C134.324 173.259 137.941 166.992 144.038 165.359C150.134 163.725 156.401 167.343 158.034 173.439Z" fill="#E1E4E5"/>
<path d="M686.725 515.81C680.267 515.81 675.031 511.621 675.031 506.454C675.031 501.286 680.267 497.098 686.725 497.098C693.183 497.098 698.419 501.286 698.419 506.454C698.419 511.621 693.183 515.81 686.725 515.81Z" fill="#E1E4E5"/>
<path d="M177.985 418.605H178.145C179.092 432.541 189.073 432.755 189.073 432.755C189.073 432.755 178.067 432.978 178.067 449.081C178.067 432.978 167.062 432.755 167.062 432.755C167.062 432.755 177.038 432.541 177.985 418.605Z" fill="#E1E4E5"/>
<path d="M322.402 426.332H312.356C240.292 426.332 181.872 367.912 181.872 295.848C181.872 223.783 240.292 165.363 312.356 165.363H398.684C478.511 165.363 543.225 230.076 543.225 309.904C543.282 360.102 517.291 406.736 474.568 433.09L322.402 526.716V426.332" stroke="#E1E4E5" stroke-width="5.924" stroke-linecap="round" stroke-linejoin="round"/>
<path fill-rule="evenodd" clip-rule="evenodd" d="M627.092 333.969H637.138C709.203 333.969 767.623 275.549 767.623 203.485C767.623 131.42 709.203 73 637.138 73H550.811C470.983 73 406.269 137.713 406.269 217.541C406.212 267.739 432.203 314.373 474.926 340.727L627.092 434.353V333.969Z" fill="#4F27AA"/>
<path d="M627.092 333.969H637.138C709.203 333.969 767.623 275.549 767.623 203.485C767.623 131.42 709.203 73 637.138 73H550.811C470.983 73 406.269 137.713 406.269 217.541C406.212 267.739 432.203 314.373 474.926 340.727L627.092 434.353V333.969Z" stroke="#4F27AA" stroke-width="33.863" stroke-linecap="round" stroke-linejoin="round"/>
</g>
<defs>
<linearGradient id="paint0_linear_1235_25225" x1="324.497" y1="320.458" x2="166.57" y2="173.723" gradientUnits="userSpaceOnUse">
<stop stop-color="white"/>
<stop offset="1" stop-color="#EEEEEE"/>
</linearGradient>
<clipPath id="clip0_1235_25225">
<rect width="900" height="600" fill="white"/>
</clipPath>
</defs>
</svg>
