<svg width="900" height="600" viewBox="0 0 900 600" fill="none" xmlns="http://www.w3.org/2000/svg">
<g clip-path="url(#clip0_1235_25241)">
<path fill-rule="evenodd" clip-rule="evenodd" d="M343.115 441.669H265.982C237.571 441.669 214.559 418.657 214.559 390.246V107.423C214.559 79.012 237.571 56 265.982 56H625.939C654.35 56 677.362 79.012 677.362 107.423V390.246C677.362 418.657 654.35 441.669 625.939 441.669H548.806" fill="white"/>
<path d="M343.115 441.669H265.982C237.571 441.669 214.559 418.657 214.559 390.247V107.423C214.559 79.012 237.571 56 265.982 56H625.939C654.35 56 677.362 79.012 677.362 107.423V390.247C677.362 418.657 654.35 441.669 625.939 441.669H548.806" stroke="#E1E4E5" stroke-width="4"/>
<path d="M445.961 544.514C502.761 544.514 548.806 498.469 548.806 441.669C548.806 384.869 502.761 338.824 445.961 338.824C389.161 338.824 343.116 384.869 343.116 441.669C343.116 498.469 389.161 544.514 445.961 544.514Z" fill="#4F27AA"/>
<path d="M317.404 215.994H574.517M317.404 151.176H574.517M317.404 281.137H574.517" stroke="#E1E4E5" stroke-width="24" stroke-linecap="round" stroke-linejoin="round"/>
<path d="M445.961 477.924V405.418M409.71 441.669H482.215" stroke="white" stroke-width="17" stroke-linecap="round" stroke-linejoin="round"/>
<path fill-rule="evenodd" clip-rule="evenodd" d="M631.682 238.515V244.467H625.506C622.928 244.467 620.81 246.509 620.81 248.993C620.81 251.477 622.928 253.518 625.506 253.518H631.682V259.471C631.682 261.955 633.8 263.996 636.378 263.996C638.955 263.996 641.074 261.955 641.074 259.471V253.543H647.275C649.853 253.543 651.971 251.502 651.971 249.017C651.971 246.533 649.853 244.492 647.275 244.492H641.099V238.515C641.099 236.031 638.981 233.989 636.378 233.989C633.8 233.989 631.682 236.031 631.682 238.515ZM610.908 363.16V369.112H604.732C602.154 369.112 600.036 371.154 600.036 373.638C600.036 376.122 602.154 378.163 604.732 378.163H610.908V384.116C610.908 386.6 613.026 388.641 615.604 388.641C618.181 388.641 620.3 386.6 620.3 384.116V378.188H626.501C629.079 378.188 631.197 376.147 631.197 373.662C631.197 371.178 629.079 369.137 626.501 369.137H620.325V363.16C620.325 360.676 618.207 358.634 615.604 358.634C613.026 358.634 610.908 360.676 610.908 363.16ZM281.983 363.16V369.112H275.807C273.229 369.112 271.111 371.154 271.111 373.638C271.111 376.122 273.229 378.163 275.807 378.163H281.983V384.116C281.983 386.6 284.101 388.641 286.679 388.641C289.257 388.641 291.375 386.6 291.375 384.116V378.188H297.577C300.154 378.188 302.272 376.147 302.272 373.662C302.272 371.178 300.154 369.137 297.577 369.137H291.4V363.16C291.4 360.676 289.282 358.634 286.679 358.634C284.101 358.634 281.983 360.676 281.983 363.16ZM250.822 268.522V274.474H244.646C242.068 274.474 239.95 276.516 239.95 279C239.95 281.484 242.068 283.526 244.646 283.526H250.822V289.478C250.822 291.962 252.94 294.003 255.518 294.003C258.095 294.003 260.214 291.962 260.214 289.478V283.55H266.415C268.993 283.55 271.111 281.509 271.111 279.024C271.111 276.54 268.993 274.499 266.415 274.499H260.239V268.522C260.239 266.038 258.121 263.996 255.518 263.996C252.94 263.996 250.822 266.038 250.822 268.522ZM167.617 339.033V343.612H162.814C160.809 343.612 159.161 345.182 159.161 347.093C159.161 349.004 160.809 350.574 162.814 350.574H167.617V355.153C167.617 357.064 169.265 358.634 171.27 358.634C173.275 358.634 174.922 357.064 174.922 355.153V350.593H179.746C181.75 350.593 183.398 349.023 183.398 347.112C183.398 345.201 181.75 343.631 179.746 343.631H174.942V339.033C174.942 337.122 173.294 335.552 171.27 335.552C169.265 335.552 167.617 337.122 167.617 339.033ZM138.872 225.82V231.772H132.696C130.118 231.772 128 233.813 128 236.297C128 238.782 130.118 240.823 132.696 240.823H138.872V246.775C138.872 249.26 140.99 251.301 143.568 251.301C146.146 251.301 148.264 249.26 148.264 246.775V240.848H154.465C157.043 240.848 159.161 238.806 159.161 236.322C159.161 233.838 157.043 231.796 154.465 231.796H148.289V225.82C148.289 223.335 146.171 221.294 143.568 221.294C140.99 221.294 138.872 223.335 138.872 225.82ZM722.617 337.834V345.388H714.61C711.269 345.388 708.523 347.98 708.523 351.133C708.523 354.286 711.269 356.877 714.61 356.877H722.617V364.431C722.617 367.584 725.362 370.176 728.704 370.176C732.045 370.176 734.791 367.584 734.791 364.431V356.908H742.83C746.172 356.908 748.917 354.317 748.917 351.164C748.917 348.011 746.172 345.42 742.83 345.42H734.824V337.834C734.824 334.681 732.078 332.09 728.704 332.09C725.362 332.09 722.617 334.681 722.617 337.834ZM743.445 209.442V218.142H734.752C731.125 218.142 728.143 221.125 728.143 224.756C728.143 228.387 731.125 231.371 734.752 231.371H743.445V240.07C743.445 243.701 746.426 246.684 750.054 246.684C753.682 246.684 756.663 243.701 756.663 240.07V231.407H765.391C769.019 231.407 772 228.423 772 224.792C772 221.161 769.019 218.178 765.391 218.178H756.699V209.442C756.699 205.812 753.717 202.828 750.054 202.828C746.426 202.828 743.445 205.812 743.445 209.442Z" fill="#E1E4E5"/>
</g>
<defs>
<clipPath id="clip0_1235_25241">
<rect width="900" height="600" fill="white"/>
</clipPath>
</defs>
</svg>
