<svg width="900" height="600" viewBox="0 0 900 600" fill="none" xmlns="http://www.w3.org/2000/svg">
<g clip-path="url(#clip0_1235_25249)">
<path d="M500.778 368.861H690.59C716.808 368.861 738.043 390.096 738.043 416.314V487.494C738.043 513.711 716.808 534.946 690.59 534.946H643.137M394.995 351.041H205.184C178.966 351.041 157.731 372.276 157.731 398.493V469.673C157.731 495.89 178.966 517.126 205.184 517.126H252.637M394.995 308.847H205.184C178.966 308.847 157.731 287.612 157.731 261.394V190.215C157.731 163.997 178.966 142.762 205.184 142.762H252.637M480.73 308.847H670.542C696.759 308.847 717.995 287.612 717.995 261.394V190.215C717.995 163.997 696.759 142.762 670.542 142.762H623.089" stroke="#E1E4E5" stroke-width="3.855" stroke-linecap="round" stroke-linejoin="round"/>
<path fill-rule="evenodd" clip-rule="evenodd" d="M324.799 327.094C324.799 396.302 380.893 452.395 450.101 452.395C519.309 452.395 575.402 396.302 575.402 327.094C575.402 257.886 519.309 201.793 450.101 201.793C380.893 201.793 324.799 257.886 324.799 327.094Z" fill="#4F27AA"/>
<path d="M361.499 415.696L446.022 331.173C447.315 329.881 448.341 328.346 449.041 326.658C449.741 324.969 450.101 323.158 450.101 321.33V201.793M449.127 326.537L341.646 264.443" stroke="white" stroke-width="18.071" stroke-linecap="round" stroke-linejoin="round"/>
<path fill-rule="evenodd" clip-rule="evenodd" d="M743.309 93.53L713.076 63.27C711.092 61.2833 708.735 59.7071 706.142 58.6313C703.548 57.5554 700.768 57.0011 697.96 57H621.287C609.474 57 599.906 66.577 599.906 78.4V228.201C599.906 240.025 609.474 249.601 621.287 249.601H728.193C740.006 249.601 749.574 240.025 749.574 228.201V108.66C749.572 102.986 747.319 97.5443 743.309 93.53Z" fill="white" stroke="#E1E4E5" stroke-width="3.855" stroke-linecap="round" stroke-linejoin="round"/>
<path d="M715.604 189.27H634.47C631.483 189.27 629.061 191.691 629.061 194.679C629.061 197.666 631.483 200.088 634.47 200.088H715.604C718.591 200.088 721.013 197.666 721.013 194.679C721.013 191.691 718.591 189.27 715.604 189.27Z" fill="#E1E4E5"/>
<path d="M715.604 167.789H634.47C631.483 167.789 629.061 170.211 629.061 173.198C629.061 176.185 631.483 178.607 634.47 178.607H715.604C718.591 178.607 721.013 176.185 721.013 173.198C721.013 170.211 718.591 167.789 715.604 167.789Z" fill="#E1E4E5"/>
<path d="M715.604 146.262H634.47C631.483 146.262 629.061 148.683 629.061 151.671C629.061 154.658 631.483 157.08 634.47 157.08H715.604C718.591 157.08 721.013 154.658 721.013 151.671C721.013 148.683 718.591 146.262 715.604 146.262Z" fill="#E1E4E5"/>
<path d="M715.604 124.73H634.47C631.483 124.73 629.061 127.152 629.061 130.139C629.061 133.127 631.483 135.548 634.47 135.548H715.604C718.591 135.548 721.013 133.127 721.013 130.139C721.013 127.152 718.591 124.73 715.604 124.73Z" fill="#E1E4E5"/>
<path d="M715.605 103.199H634.471C631.484 103.199 629.062 105.621 629.062 108.608C629.062 111.596 631.484 114.017 634.471 114.017H715.605C718.592 114.017 721.014 111.596 721.014 108.608C721.014 105.621 718.592 103.199 715.605 103.199Z" fill="#E1E4E5"/>
<path d="M715.604 210.902H634.47C631.483 210.902 629.061 213.324 629.061 216.311C629.061 219.299 631.483 221.72 634.47 221.72H715.604C718.591 221.72 721.013 219.299 721.013 216.311C721.013 213.324 718.591 210.902 715.604 210.902Z" fill="#E1E4E5"/>
<path fill-rule="evenodd" clip-rule="evenodd" d="M274.404 93.53L244.171 63.27C242.186 61.2834 239.83 59.7071 237.236 58.6313C234.642 57.5555 231.862 57.0012 229.054 57H152.381C140.568 57 131 66.577 131 78.4V228.201C131 240.025 140.568 249.601 152.381 249.601H259.287C271.1 249.601 280.668 240.025 280.668 228.201V108.66C280.667 102.986 278.414 97.5444 274.404 93.53Z" fill="white" stroke="#E1E4E5" stroke-width="3.855" stroke-linecap="round" stroke-linejoin="round"/>
<path d="M246.699 189.27H165.565C162.578 189.27 160.156 191.691 160.156 194.679C160.156 197.666 162.578 200.088 165.565 200.088H246.699C249.686 200.088 252.108 197.666 252.108 194.679C252.108 191.691 249.686 189.27 246.699 189.27Z" fill="#E1E4E5"/>
<path d="M246.699 167.789H165.565C162.578 167.789 160.156 170.211 160.156 173.198C160.156 176.185 162.578 178.607 165.565 178.607H246.699C249.686 178.607 252.108 176.185 252.108 173.198C252.108 170.211 249.686 167.789 246.699 167.789Z" fill="#E1E4E5"/>
<path d="M246.699 146.262H165.565C162.578 146.262 160.156 148.683 160.156 151.671C160.156 154.658 162.578 157.08 165.565 157.08H246.699C249.686 157.08 252.108 154.658 252.108 151.671C252.108 148.683 249.686 146.262 246.699 146.262Z" fill="#E1E4E5"/>
<path d="M246.699 124.73H165.565C162.578 124.73 160.156 127.152 160.156 130.139C160.156 133.127 162.578 135.548 165.565 135.548H246.699C249.686 135.548 252.108 133.127 252.108 130.139C252.108 127.152 249.686 124.73 246.699 124.73Z" fill="#E1E4E5"/>
<path d="M559.809 167.797H339.279C336.203 167.797 333.71 170.29 333.71 173.366C333.71 176.442 336.203 178.935 339.279 178.935H559.809C562.885 178.935 565.378 176.442 565.378 173.366C565.378 170.29 562.885 167.797 559.809 167.797Z" fill="#E1E4E5"/>
<path d="M559.809 505.855H339.279C336.203 505.855 333.71 508.349 333.71 511.424C333.71 514.5 336.203 516.993 339.279 516.993H559.809C562.885 516.993 565.378 514.5 565.378 511.424C565.378 508.349 562.885 505.855 559.809 505.855Z" fill="#E1E4E5"/>
<path d="M246.699 103.199H165.565C162.578 103.199 160.156 105.621 160.156 108.608C160.156 111.596 162.578 114.017 165.565 114.017H246.699C249.686 114.017 252.108 111.596 252.108 108.608C252.108 105.621 249.686 103.199 246.699 103.199Z" fill="#E1E4E5"/>
<path d="M559.809 146.637H339.279C336.203 146.637 333.71 149.13 333.71 152.206C333.71 155.281 336.203 157.775 339.279 157.775H559.809C562.885 157.775 565.378 155.281 565.378 152.206C565.378 149.13 562.885 146.637 559.809 146.637Z" fill="#E1E4E5"/>
<path d="M559.809 484.695H339.279C336.203 484.695 333.71 487.189 333.71 490.264C333.71 493.34 336.203 495.833 339.279 495.833H559.809C562.885 495.833 565.378 493.34 565.378 490.264C565.378 487.189 562.885 484.695 559.809 484.695Z" fill="#E1E4E5"/>
<path d="M246.699 210.902H165.565C162.578 210.902 160.156 213.324 160.156 216.311C160.156 219.299 162.578 221.72 165.565 221.72H246.699C249.686 221.72 252.108 219.299 252.108 216.311C252.108 213.324 249.686 210.902 246.699 210.902Z" fill="#E1E4E5"/>
<path fill-rule="evenodd" clip-rule="evenodd" d="M763.358 387.569L733.125 357.309C731.141 355.322 728.784 353.746 726.19 352.67C723.596 351.594 720.816 351.04 718.008 351.039H641.335C629.522 351.039 619.954 360.615 619.954 372.439V522.24C619.954 534.063 629.522 543.64 641.335 543.64H748.241C760.054 543.64 769.622 534.063 769.622 522.24V402.698C769.621 397.024 767.368 391.583 763.358 387.569Z" fill="white" stroke="#E1E4E5" stroke-width="3.855" stroke-linecap="round" stroke-linejoin="round"/>
<path d="M735.652 483.309H654.518C651.531 483.309 649.109 485.73 649.109 488.718C649.109 491.705 651.531 494.127 654.518 494.127H735.652C738.639 494.127 741.061 491.705 741.061 488.718C741.061 485.73 738.639 483.309 735.652 483.309Z" fill="#E1E4E5"/>
<path d="M735.652 461.832H654.518C651.531 461.832 649.109 464.254 649.109 467.241C649.109 470.228 651.531 472.65 654.518 472.65H735.652C738.639 472.65 741.061 470.228 741.061 467.241C741.061 464.254 738.639 461.832 735.652 461.832Z" fill="#E1E4E5"/>
<path d="M735.652 440.301H654.518C651.531 440.301 649.109 442.722 649.109 445.71C649.109 448.697 651.531 451.119 654.518 451.119H735.652C738.639 451.119 741.061 448.697 741.061 445.71C741.061 442.722 738.639 440.301 735.652 440.301Z" fill="#E1E4E5"/>
<path d="M735.652 418.77H654.518C651.531 418.77 649.109 421.191 649.109 424.179C649.109 427.166 651.531 429.588 654.518 429.588H735.652C738.639 429.588 741.061 427.166 741.061 424.179C741.061 421.191 738.639 418.77 735.652 418.77Z" fill="#E1E4E5"/>
<path d="M735.653 397.242H654.519C651.532 397.242 649.11 399.664 649.11 402.651C649.11 405.638 651.532 408.06 654.519 408.06H735.653C738.64 408.06 741.062 405.638 741.062 402.651C741.062 399.664 738.64 397.242 735.653 397.242Z" fill="#E1E4E5"/>
<path d="M735.652 504.945H654.518C651.531 504.945 649.109 507.367 649.109 510.354C649.109 513.342 651.531 515.763 654.518 515.763H735.652C738.639 515.763 741.061 513.342 741.061 510.354C741.061 507.367 738.639 504.945 735.652 504.945Z" fill="#E1E4E5"/>
<path fill-rule="evenodd" clip-rule="evenodd" d="M294.452 387.569L264.219 357.309C262.235 355.322 259.878 353.746 257.284 352.67C254.69 351.594 251.91 351.04 249.102 351.039H172.429C160.616 351.039 151.048 360.615 151.048 372.439V522.24C151.048 534.063 160.616 543.64 172.429 543.64H279.335C291.149 543.64 300.717 534.063 300.717 522.24V402.698C300.715 397.024 298.462 391.583 294.452 387.569Z" fill="white" stroke="#E1E4E5" stroke-width="3.855" stroke-linecap="round" stroke-linejoin="round"/>
<path d="M266.747 483.309H185.613C182.626 483.309 180.204 485.73 180.204 488.718C180.204 491.705 182.626 494.127 185.613 494.127H266.747C269.734 494.127 272.156 491.705 272.156 488.718C272.156 485.73 269.734 483.309 266.747 483.309Z" fill="#E1E4E5"/>
<path d="M266.747 461.832H185.613C182.626 461.832 180.204 464.254 180.204 467.241C180.204 470.228 182.626 472.65 185.613 472.65H266.747C269.734 472.65 272.156 470.228 272.156 467.241C272.156 464.254 269.734 461.832 266.747 461.832Z" fill="#E1E4E5"/>
<path d="M266.747 440.301H185.613C182.626 440.301 180.204 442.722 180.204 445.71C180.204 448.697 182.626 451.119 185.613 451.119H266.747C269.734 451.119 272.156 448.697 272.156 445.71C272.156 442.722 269.734 440.301 266.747 440.301Z" fill="#E1E4E5"/>
<path d="M266.747 418.77H185.613C182.626 418.77 180.204 421.191 180.204 424.179C180.204 427.166 182.626 429.588 185.613 429.588H266.747C269.734 429.588 272.156 427.166 272.156 424.179C272.156 421.191 269.734 418.77 266.747 418.77Z" fill="#E1E4E5"/>
<path d="M266.747 397.242H185.613C182.626 397.242 180.204 399.664 180.204 402.651C180.204 405.638 182.626 408.06 185.613 408.06H266.747C269.734 408.06 272.156 405.638 272.156 402.651C272.156 399.664 269.734 397.242 266.747 397.242Z" fill="#E1E4E5"/>
<path d="M266.747 504.945H185.613C182.626 504.945 180.204 507.367 180.204 510.354C180.204 513.342 182.626 515.763 185.613 515.763H266.747C269.734 515.763 272.156 513.342 272.156 510.354C272.156 507.367 269.734 504.945 266.747 504.945Z" fill="#E1E4E5"/>
</g>
<defs>
<clipPath id="clip0_1235_25249">
<rect width="900" height="600" fill="white"/>
</clipPath>
</defs>
</svg>
