<svg width="900" height="600" viewBox="0 0 900 600" fill="none" xmlns="http://www.w3.org/2000/svg">
<g clip-path="url(#clip0_1235_25377)">
<path fill-rule="evenodd" clip-rule="evenodd" d="M338.294 145.615C338.294 112.138 311.156 85 277.679 85H225.615C192.138 85 165 112.138 165 145.615C165 179.091 192.138 206.23 225.615 206.23H243.033L268.224 226.474C271.095 228.781 275.359 226.738 275.359 223.055V206.23H277.679C311.156 206.23 338.294 179.091 338.294 145.615Z" fill="#4F27AA"/>
<path d="M251.103 123.621H213.533C211.538 123.621 209.92 125.238 209.92 127.234C209.92 129.229 211.538 130.846 213.533 130.846H251.103C253.098 130.846 254.716 129.229 254.716 127.234C254.716 125.238 253.098 123.621 251.103 123.621Z" fill="white"/>
<path d="M274.946 142.406H213.533C211.538 142.406 209.92 144.024 209.92 146.019C209.92 148.014 211.538 149.631 213.533 149.631H274.946C276.941 149.631 278.559 148.014 278.559 146.019C278.559 144.024 276.941 142.406 274.946 142.406Z" fill="white"/>
<path d="M300.235 161.191H213.533C211.538 161.191 209.92 162.809 209.92 164.804C209.92 166.799 211.538 168.416 213.533 168.416H300.235C302.23 168.416 303.848 166.799 303.848 164.804C303.848 162.809 302.23 161.191 300.235 161.191Z" fill="white"/>
<path fill-rule="evenodd" clip-rule="evenodd" d="M752.628 396.436C752.628 366.372 728.256 342 698.192 342H651.436C621.372 342 597 366.372 597 396.436C597 426.5 621.372 450.871 651.436 450.871H667.078L688.974 468.468C691.845 470.774 696.108 468.731 696.108 465.049V450.871H698.192C728.256 450.871 752.628 426.5 752.628 396.436Z" fill="#4F27AA"/>
<path d="M674.327 376.684H640.585C638.793 376.684 637.341 378.136 637.341 379.928V379.929C637.341 381.72 638.793 383.173 640.585 383.173H674.327C676.119 383.173 677.571 381.72 677.571 379.929V379.928C677.571 378.136 676.119 376.684 674.327 376.684Z" fill="white"/>
<path d="M695.739 393.555H640.585C638.793 393.555 637.341 395.007 637.341 396.799V396.8C637.341 398.591 638.793 400.044 640.585 400.044H695.739C697.531 400.044 698.983 398.591 698.983 396.8V396.799C698.983 395.007 697.531 393.555 695.739 393.555Z" fill="white"/>
<path d="M718.45 410.426H640.585C638.793 410.426 637.341 411.878 637.341 413.67V413.671C637.341 415.462 638.793 416.915 640.585 416.915H718.45C720.242 416.915 721.694 415.462 721.694 413.671V413.67C721.694 411.878 720.242 410.426 718.45 410.426Z" fill="white"/>
<path fill-rule="evenodd" clip-rule="evenodd" d="M308.692 416.61C308.692 388.659 286.033 366 258.082 366H214.61C186.659 366 164 388.659 164 416.61C164 444.562 186.659 467.221 214.61 467.221H229.153L249.01 483.178C251.88 485.485 256.144 483.441 256.144 479.759V467.221H258.082C286.033 467.221 308.692 444.562 308.692 416.61Z" fill="#4F27AA"/>
<path d="M235.893 398.246H204.522C202.856 398.246 201.506 399.596 201.506 401.262V401.263C201.506 402.929 202.856 404.279 204.522 404.279H235.893C237.559 404.279 238.909 402.929 238.909 401.263V401.262C238.909 399.596 237.559 398.246 235.893 398.246Z" fill="white"/>
<path d="M255.801 413.93H204.522C202.856 413.93 201.506 415.28 201.506 416.946V416.947C201.506 418.612 202.856 419.963 204.522 419.963H255.801C257.467 419.963 258.817 418.612 258.817 416.947V416.946C258.817 415.28 257.467 413.93 255.801 413.93Z" fill="white"/>
<path d="M276.915 429.617H204.522C202.856 429.617 201.506 430.967 201.506 432.633V432.634C201.506 434.3 202.856 435.65 204.522 435.65H276.915C278.581 435.65 279.931 434.3 279.931 432.634V432.633C279.931 430.967 278.581 429.617 276.915 429.617Z" fill="white"/>
<path fill-rule="evenodd" clip-rule="evenodd" d="M527.692 459.61C527.692 431.659 505.033 409 477.081 409H433.61C405.659 409 383 431.659 383 459.61C383 487.562 405.659 510.221 433.61 510.221H448.153L468.01 526.178C470.88 528.485 475.144 526.441 475.144 522.759V510.221H477.081C505.033 510.221 527.692 487.562 527.692 459.61Z" fill="#4F27AA"/>
<path d="M454.893 441.246H423.522C421.856 441.246 420.506 442.596 420.506 444.262V444.263C420.506 445.929 421.856 447.279 423.522 447.279H454.893C456.559 447.279 457.909 445.929 457.909 444.263V444.262C457.909 442.596 456.559 441.246 454.893 441.246Z" fill="white"/>
<path d="M474.801 456.93H423.522C421.856 456.93 420.506 458.28 420.506 459.946V459.947C420.506 461.612 421.856 462.963 423.522 462.963H474.801C476.467 462.963 477.817 461.612 477.817 459.947V459.946C477.817 458.28 476.467 456.93 474.801 456.93Z" fill="white"/>
<path d="M495.915 472.617H423.522C421.856 472.617 420.506 473.967 420.506 475.633V475.634C420.506 477.3 421.856 478.65 423.522 478.65H495.915C497.581 478.65 498.931 477.3 498.931 475.634V475.633C498.931 473.967 497.581 472.617 495.915 472.617Z" fill="white"/>
<mask id="mask0_1235_25377" style="mask-type:alpha" maskUnits="userSpaceOnUse" x="301" y="165" width="297" height="213">
<path fill-rule="evenodd" clip-rule="evenodd" d="M553.798 196.193C611.401 237.784 611.401 305.216 553.798 346.807C496.196 388.398 402.804 388.398 345.202 346.807C287.599 305.216 287.599 237.784 345.202 196.193C402.804 154.602 496.196 154.602 553.798 196.193Z" fill="white"/>
</mask>
<g mask="url(#mask0_1235_25377)">
<path fill-rule="evenodd" clip-rule="evenodd" d="M553.798 196.193C611.401 237.784 611.401 305.216 553.798 346.807C496.196 388.398 402.804 388.398 345.202 346.807C287.599 305.216 287.599 237.784 345.202 196.193C402.804 154.602 496.196 154.602 553.798 196.193Z" fill="white"/>
<path d="M551.457 199.436C579.413 219.622 593 245.754 593 271.5C593 297.246 579.413 323.378 551.457 343.564L556.14 350.05C585.786 328.644 601 300.265 601 271.5C601 242.735 585.786 214.356 556.14 192.95L551.457 199.436ZM551.457 343.564C523.458 363.78 486.571 374 449.5 374C412.429 374 375.542 363.78 347.543 343.564L342.86 350.05C372.464 371.425 411.074 382 449.5 382C487.926 382 526.536 371.425 556.14 350.05L551.457 343.564ZM347.543 343.564C319.587 323.378 306 297.246 306 271.5C306 245.754 319.587 219.622 347.543 199.436L342.86 192.95C313.214 214.356 298 242.735 298 271.5C298 300.265 313.214 328.644 342.86 350.05L347.543 343.564ZM347.543 199.436C375.542 179.22 412.429 169 449.5 169C486.571 169 523.458 179.22 551.457 199.436L556.14 192.95C526.536 171.575 487.926 161 449.5 161C411.074 161 372.464 171.575 342.86 192.95L347.543 199.436Z" fill="#E1E4E5"/>
<path d="M304.274 271.659C304.274 265.617 306.555 259.546 311.131 253.846C335.374 223.645 389.419 203.863 449.527 203.863C509.635 203.863 563.68 223.645 587.923 253.846C592.498 259.546 594.78 265.617 594.78 271.659C594.78 277.7 592.498 283.771 587.923 289.471C563.68 319.673 509.635 339.455 449.527 339.455C389.419 339.455 335.374 319.673 311.131 289.471C306.555 283.771 304.274 277.7 304.274 271.659Z" fill="white" stroke="#E1E4E5" stroke-width="4"/>
</g>
<mask id="mask1_1235_25377" style="mask-type:alpha" maskUnits="userSpaceOnUse" x="379" y="201" width="141" height="141">
<path fill-rule="evenodd" clip-rule="evenodd" d="M499.051 222.373C526.316 249.632 526.316 293.883 499.051 321.189C471.785 348.447 427.523 348.447 400.211 321.189C372.945 293.93 372.945 249.678 400.211 222.373C427.523 195.068 471.762 195.068 499.051 222.373Z" fill="white"/>
</mask>
<g mask="url(#mask1_1235_25377)">
<path fill-rule="evenodd" clip-rule="evenodd" d="M499.051 222.373C526.316 249.632 526.316 293.883 499.051 321.189C471.785 348.447 427.523 348.447 400.211 321.189C372.945 293.93 372.945 249.678 400.211 222.373C427.523 195.068 471.762 195.068 499.051 222.373Z" fill="white"/>
<path d="M499.051 321.19L501.879 324.018L501.881 324.016L499.051 321.19ZM400.211 321.19L397.383 324.018L397.385 324.021L400.211 321.19ZM400.211 222.374L397.383 219.545L397.38 219.548L400.211 222.374ZM496.223 225.203C521.925 250.898 521.928 292.618 496.22 318.363L501.881 324.016C530.705 295.15 530.708 248.367 501.879 219.545L496.223 225.203ZM496.223 318.361C470.521 344.057 428.788 344.06 403.036 318.358L397.385 324.021C426.257 352.837 473.05 352.84 501.879 324.018L496.223 318.361ZM403.039 318.361C377.337 292.666 377.334 250.945 403.041 225.2L397.38 219.548C368.557 248.413 368.553 295.196 397.383 324.018L403.039 318.361ZM403.039 225.203C428.789 199.458 470.496 199.46 496.222 225.202L501.88 219.546C473.029 190.677 426.256 190.679 397.383 219.545L403.039 225.203Z" fill="#E1E4E5"/>
<path fill-rule="evenodd" clip-rule="evenodd" d="M489.7 272.215C489.752 277.451 488.766 282.646 486.799 287.499C484.831 292.352 481.921 296.766 478.237 300.487C474.553 304.209 470.168 307.163 465.335 309.178C460.502 311.194 455.317 312.232 450.081 312.232C444.844 312.232 439.66 311.194 434.827 309.178C429.994 307.162 425.609 304.207 421.925 300.486C418.241 296.765 415.331 292.35 413.364 287.497C411.397 282.644 410.411 277.449 410.464 272.213C410.569 261.775 414.79 251.8 422.208 244.456C429.627 237.111 439.644 232.992 450.083 232.992C460.522 232.992 470.539 237.112 477.957 244.457C485.375 251.801 489.595 261.777 489.7 272.215Z" fill="#4F27AA"/>
<path d="M441.859 271.337C449.211 271.337 455.172 265.377 455.172 258.024C455.172 250.671 449.211 244.711 441.859 244.711C434.506 244.711 428.546 250.671 428.546 258.024C428.546 265.377 434.506 271.337 441.859 271.337Z" fill="white"/>
</g>
</g>
<defs>
<clipPath id="clip0_1235_25377">
<rect width="900" height="600" fill="white"/>
</clipPath>
</defs>
</svg>
