<svg width="900" height="600" viewBox="0 0 900 600" fill="none" xmlns="http://www.w3.org/2000/svg">
<g clip-path="url(#clip0_1235_25424)">
<mask id="mask0_1235_25424" style="mask-type:alpha" maskUnits="userSpaceOnUse" x="182" y="103" width="288" height="144">
<path fill-rule="evenodd" clip-rule="evenodd" d="M182.191 185.175V144.197C182.191 121.566 200.538 103.219 223.169 103.219H428.059C450.691 103.219 469.037 121.566 469.037 144.197V246.642" fill="white"/>
</mask>
<g mask="url(#mask0_1235_25424)">
<path fill-rule="evenodd" clip-rule="evenodd" d="M182.191 185.175V144.197C182.191 121.566 200.538 103.219 223.169 103.219H428.059C450.691 103.219 469.037 121.566 469.037 144.197V246.642" fill="white"/>
<path d="M186.191 185.175V144.197H178.191V185.175H186.191ZM186.191 144.197C186.191 123.775 202.747 107.219 223.169 107.219V99.2188C198.329 99.2188 178.191 119.357 178.191 144.197H186.191ZM223.169 107.219H428.059V99.2188H223.169V107.219ZM428.059 107.219C448.482 107.219 465.037 123.775 465.037 144.197H473.037C473.037 119.357 452.9 99.2188 428.059 99.2188V107.219ZM465.037 144.197V246.642H473.037V144.197H465.037Z" fill="#E1E4E5"/>
<path d="M317.864 184.332L317.865 184.334C319.919 187.413 322.702 189.938 325.966 191.683C329.23 193.429 332.874 194.343 336.576 194.342H469.037C490.564 194.342 508.015 211.793 508.015 233.32V376.743C508.015 398.27 490.564 415.721 469.037 415.721H182.191C160.664 415.721 143.213 398.27 143.213 376.743V171.853C143.213 150.326 160.664 132.875 182.191 132.875H273.679C276.733 132.867 279.742 133.616 282.436 135.055C285.13 136.494 287.426 138.578 289.118 141.121L317.864 184.332Z" fill="white" stroke="#E1E4E5" stroke-width="4"/>
</g>
<mask id="mask1_1235_25424" style="mask-type:alpha" maskUnits="userSpaceOnUse" x="304" y="158" width="287" height="144">
<path fill-rule="evenodd" clip-rule="evenodd" d="M304.057 240.179V199.201C304.057 176.57 322.403 158.223 345.035 158.223H549.925C572.556 158.223 590.903 176.57 590.903 199.201V301.646" fill="white"/>
</mask>
<g mask="url(#mask1_1235_25424)">
<path fill-rule="evenodd" clip-rule="evenodd" d="M304.057 240.179V199.201C304.057 176.57 322.403 158.223 345.035 158.223H549.925C572.556 158.223 590.903 176.57 590.903 199.201V301.646" fill="white"/>
<path d="M308.057 240.179V199.201H300.057V240.179H308.057ZM308.057 199.201C308.057 178.779 324.613 162.223 345.035 162.223V154.223C320.194 154.223 300.057 174.361 300.057 199.201H308.057ZM345.035 162.223H549.925V154.223H345.035V162.223ZM549.925 162.223C570.347 162.223 586.903 178.779 586.903 199.201H594.903C594.903 174.361 574.766 154.223 549.925 154.223V162.223ZM586.903 199.201V301.646H594.903V199.201H586.903Z" fill="#E1E4E5"/>
<path d="M439.729 239.332L439.731 239.334C441.785 242.413 444.568 244.938 447.831 246.684C451.095 248.429 454.74 249.343 458.441 249.342H590.903C612.43 249.342 629.881 266.793 629.881 288.32V431.743C629.881 453.27 612.43 470.721 590.903 470.721H304.057C282.53 470.721 265.079 453.27 265.079 431.743V226.853C265.079 205.326 282.53 187.875 304.057 187.875H395.545C398.599 187.867 401.608 188.616 404.302 190.055C406.996 191.494 409.291 193.578 410.983 196.121L439.729 239.332Z" fill="white" stroke="#E1E4E5" stroke-width="4"/>
</g>
<mask id="mask2_1235_25424" style="mask-type:alpha" maskUnits="userSpaceOnUse" x="425" y="213" width="288" height="144">
<path fill-rule="evenodd" clip-rule="evenodd" d="M425.922 295.179V254.201C425.922 231.569 444.269 213.223 466.9 213.223H671.791C694.422 213.223 712.769 231.569 712.769 254.201V356.646" fill="white"/>
</mask>
<g mask="url(#mask2_1235_25424)">
<path fill-rule="evenodd" clip-rule="evenodd" d="M425.922 295.179V254.201C425.922 231.569 444.269 213.223 466.9 213.223H671.791C694.422 213.223 712.769 231.569 712.769 254.201V356.646" fill="white"/>
<path d="M429.922 295.179V254.201H421.922V295.179H429.922ZM429.922 254.201C429.922 233.778 446.478 217.223 466.9 217.223V209.223C442.06 209.223 421.922 229.36 421.922 254.201H429.922ZM466.9 217.223H671.791V209.223H466.9V217.223ZM671.791 217.223C692.213 217.223 708.769 233.778 708.769 254.201H716.769C716.769 229.36 696.631 209.223 671.791 209.223V217.223ZM708.769 254.201V356.646H716.769V254.201H708.769Z" fill="#E1E4E5"/>
<path d="M561.595 294.332L561.596 294.335C563.651 297.414 566.433 299.938 569.697 301.684C572.961 303.429 576.606 304.342 580.307 304.342H712.768C734.295 304.342 751.746 321.793 751.746 343.32V486.743C751.746 508.27 734.295 525.721 712.768 525.721H425.922C404.395 525.721 386.944 508.27 386.944 486.743V281.853C386.944 260.326 404.395 242.875 425.922 242.875H517.411C520.465 242.868 523.474 243.617 526.167 245.056C528.861 246.495 531.157 248.579 532.849 251.121L561.595 294.332Z" fill="white" stroke="#E1E4E5" stroke-width="4"/>
<path d="M644.049 482.309C712.101 482.309 767.268 427.142 767.268 359.09C767.268 291.038 712.101 235.871 644.049 235.871C575.997 235.871 520.83 291.038 520.83 359.09C520.83 427.142 575.997 482.309 644.049 482.309Z" fill="white" stroke="#4F27AA" stroke-width="20.479" stroke-linecap="round" stroke-linejoin="round"/>
</g>
</g>
<defs>
<clipPath id="clip0_1235_25424">
<rect width="900" height="600" fill="white"/>
</clipPath>
</defs>
</svg>
