<svg width="900" height="600" viewBox="0 0 900 600" fill="none" xmlns="http://www.w3.org/2000/svg">
<g clip-path="url(#clip0_1235_25496)">
<path d="M551.619 501.628C513.499 501.628 482.596 470.725 482.596 432.605C482.596 394.485 513.499 363.582 551.619 363.582C589.739 363.582 620.642 394.485 620.642 432.605C620.642 470.725 589.739 501.628 551.619 501.628Z" fill="#2E2445"/>
<path d="M652.087 471.536C571.99 471.536 507.059 406.605 507.059 326.508C507.059 246.412 571.99 181.48 652.087 181.48C732.184 181.48 797.115 246.412 797.115 326.508C797.115 406.605 732.184 471.536 652.087 471.536Z" fill="#2E2445"/>
<path d="M528.926 446.762C487.522 446.762 453.957 413.197 453.957 371.793C453.957 330.389 487.522 296.824 528.926 296.824C570.33 296.824 603.895 330.389 603.895 371.793C603.895 413.197 570.33 446.762 528.926 446.762Z" fill="#2E2445"/>
<path d="M574.34 351.927C494.243 351.927 429.312 286.996 429.312 206.899C429.312 126.802 494.243 61.8711 574.34 61.8711C654.437 61.8711 719.368 126.802 719.368 206.899C719.368 286.996 654.437 351.927 574.34 351.927Z" fill="#2E2445"/>
<path d="M447.512 469.434C406.108 469.434 372.543 435.869 372.543 394.465C372.543 353.061 406.108 319.496 447.512 319.496C488.916 319.496 522.481 353.061 522.481 394.465C522.481 435.869 488.916 469.434 447.512 469.434Z" fill="#2E2445"/>
<path d="M376.982 378.837C296.885 378.837 231.954 313.906 231.954 233.809C231.954 153.712 296.885 88.7812 376.982 88.7812C457.079 88.7812 522.01 153.712 522.01 233.809C522.01 313.906 457.079 378.837 376.982 378.837Z" fill="#2E2445"/>
<path d="M211.028 387.798C291.125 387.798 356.056 322.867 356.056 242.77C356.056 162.673 291.125 97.7422 211.028 97.7422C130.931 97.7422 66 162.673 66 242.77C66 322.867 130.931 387.798 211.028 387.798Z" fill="#2E2445"/>
<path d="M355.69 499.937C317.57 499.937 286.667 469.034 286.667 430.914C286.667 392.793 317.57 361.891 355.69 361.891C393.81 361.891 424.713 392.793 424.713 430.914C424.713 469.034 393.81 499.937 355.69 499.937Z" fill="#2E2445"/>
<path d="M257.77 464.978C177.673 464.978 112.742 400.047 112.742 319.95C112.742 239.853 177.673 174.922 257.77 174.922C337.867 174.922 402.798 239.853 402.798 319.95C402.798 400.047 337.867 464.978 257.77 464.978Z" fill="#2E2445"/>
<path d="M550.939 469.505H550.868C550.447 475.967 546.011 476.067 546.011 476.067C546.011 476.067 550.902 476.17 550.902 483.637C550.902 476.17 555.794 476.067 555.794 476.067C555.794 476.067 551.36 475.967 550.939 469.505ZM674.313 442.33H674.25C673.876 448.295 669.933 448.386 669.933 448.386C669.933 448.386 674.281 448.482 674.281 455.374C674.281 448.482 678.629 448.386 678.629 448.386C678.629 448.386 674.687 448.295 674.313 442.33ZM368.732 422.763H368.608C367.873 433.176 360.129 433.336 360.129 433.336C360.129 433.336 368.668 433.503 368.668 445.534C368.668 433.503 377.207 433.336 377.207 433.336C377.207 433.336 369.467 433.176 368.732 422.763ZM745.934 319.462H745.831C745.218 328.139 738.765 328.272 738.765 328.272C738.765 328.272 745.881 328.411 745.881 338.437C745.881 328.411 752.997 328.272 752.997 328.272C752.997 328.272 746.546 328.139 745.934 319.462ZM703.239 357.705H703.136C702.523 366.382 696.07 366.516 696.07 366.516C696.07 366.516 703.186 366.654 703.186 376.68C703.186 366.654 710.302 366.516 710.302 366.516C710.302 366.516 703.852 366.382 703.239 357.705ZM635.634 345.079H635.541C634.989 352.888 629.182 353.008 629.182 353.008C629.182 353.008 635.586 353.133 635.586 362.157C635.586 353.133 641.99 353.008 641.99 353.008C641.99 353.008 636.185 352.888 635.634 345.079ZM557.338 382.081H557.287C556.98 387.287 553.754 387.367 553.754 387.367C553.754 387.367 557.312 387.451 557.312 393.466C557.312 387.451 560.87 387.367 560.87 387.367C560.87 387.367 557.645 387.287 557.338 382.081ZM640.609 134.925H640.526C640.037 141.866 634.874 141.973 634.874 141.973C634.874 141.973 640.567 142.084 640.567 150.105C640.567 142.084 646.26 141.973 646.26 141.973C646.26 141.973 641.099 141.866 640.609 134.925ZM466.133 126.371H466.009C465.274 136.132 457.531 136.282 457.531 136.282C457.531 136.282 466.07 136.439 466.07 147.718C466.07 136.439 474.609 136.282 474.609 136.282C474.609 136.282 466.868 136.132 466.133 126.371ZM712.485 232.174H712.392C711.84 239.983 706.033 240.104 706.033 240.104C706.033 240.104 712.437 240.229 712.437 249.252C712.437 240.229 718.841 240.104 718.841 240.104C718.841 240.104 713.036 239.983 712.485 232.174ZM643.488 261.112H643.343C642.485 274.127 633.451 274.328 633.451 274.328C633.451 274.328 643.413 274.536 643.413 289.575C643.413 274.536 653.375 274.328 653.375 274.328C653.375 274.328 644.345 274.127 643.488 261.112ZM306.208 151.528H306.042C305.063 165.411 294.738 165.625 294.738 165.625C294.738 165.625 306.123 165.847 306.123 181.889C306.123 165.847 317.508 165.625 317.508 165.625C317.508 165.625 307.188 165.411 306.208 151.528ZM533.872 136.166H533.789C533.299 143.107 528.137 143.214 528.137 143.214C528.137 143.214 533.829 143.325 533.829 151.346C533.829 143.325 539.522 143.214 539.522 143.214C539.522 143.214 534.362 143.107 533.872 136.166ZM265.464 253.187H265.34C264.605 262.948 256.861 263.098 256.861 263.098C256.861 263.098 265.4 263.255 265.4 274.534C265.4 263.255 273.939 263.098 273.939 263.098C273.939 263.098 266.199 262.948 265.464 253.187Z" fill="white"/>
<path d="M141.865 271.203V252.939M150.997 262.071H132.733M241.012 200.108V181.844M250.144 190.976H231.88M183.379 342.109V323.845M192.511 332.977H174.247M672.707 211.066V192.803M681.839 201.934H663.575" stroke="white" stroke-width="4" stroke-linecap="round" stroke-linejoin="round"/>
<path d="M706.64 301.816C712.339 301.816 716.96 297.195 716.96 291.496C716.96 285.796 712.339 281.176 706.64 281.176C700.94 281.176 696.32 285.796 696.32 291.496C696.32 297.195 700.94 301.816 706.64 301.816Z" fill="#4F27AA"/>
<path d="M425.978 355.848C429.737 355.848 432.785 352.801 432.785 349.041C432.785 345.282 429.737 342.234 425.978 342.234C422.219 342.234 419.171 345.282 419.171 349.041C419.171 352.801 422.219 355.848 425.978 355.848Z" fill="#4F27AA"/>
<path d="M210.663 297.758C216.967 297.758 222.077 292.647 222.077 286.344C222.077 280.04 216.967 274.93 210.663 274.93C204.359 274.93 199.249 280.04 199.249 286.344C199.249 292.647 204.359 297.758 210.663 297.758Z" fill="#4F27AA"/>
<path d="M250.355 401.182C255.669 401.182 259.977 396.874 259.977 391.56C259.977 386.245 255.669 381.938 250.355 381.938C245.041 381.938 240.733 386.245 240.733 391.56C240.733 396.874 245.041 401.182 250.355 401.182Z" fill="#E1E4E5"/>
<path d="M153.219 178.216C151.846 183.341 154.887 188.608 160.012 189.981C165.136 191.354 170.403 188.313 171.776 183.189C173.15 178.064 170.108 172.797 164.984 171.424C159.86 170.051 154.592 173.092 153.219 178.216Z" fill="#E1E4E5"/>
<path d="M453.614 72.74C459.618 72.74 464.484 67.8733 464.484 61.87C464.484 55.8667 459.618 51 453.614 51C447.611 51 442.744 55.8667 442.744 61.87C442.744 67.8733 447.611 72.74 453.614 72.74Z" fill="#E1E4E5"/>
<path d="M571.676 96.0273H571.418C569.886 118.153 553.754 118.494 553.754 118.494C553.754 118.494 571.543 118.848 571.543 144.415C571.543 118.848 589.333 118.494 589.333 118.494C589.333 118.494 573.207 118.153 571.676 96.0273Z" fill="#E1E4E5"/>
<path fill-rule="evenodd" clip-rule="evenodd" d="M584.261 210.852V363.937C584.261 380.776 570.484 394.554 553.644 394.554H339.325C322.486 394.554 308.708 380.776 308.708 363.937V210.852" fill="#4F27AA"/>
<path d="M584.261 210.852V363.937C584.261 380.776 570.484 394.554 553.644 394.554H339.325C322.486 394.554 308.708 380.776 308.708 363.937V210.852" stroke="#4F27AA" stroke-width="4.532"/>
<path fill-rule="evenodd" clip-rule="evenodd" d="M575.261 385.552L481.971 292.262L575.261 385.552Z" fill="white"/>
<path d="M575.261 385.552L481.971 292.262" stroke="#2E2445" stroke-width="4.532"/>
<path fill-rule="evenodd" clip-rule="evenodd" d="M410.355 292.906L317.708 385.553L410.355 292.906Z" fill="white"/>
<path d="M410.355 292.906L317.708 385.553" stroke="#2E2445" stroke-width="4.532"/>
<path fill-rule="evenodd" clip-rule="evenodd" d="M584.261 207.79C584.261 216.975 579.669 224.629 572.014 230.753L480.163 293.517C458.732 307.295 432.707 307.295 411.275 293.517L319.424 232.283C313.301 224.629 308.708 216.975 308.708 207.79C308.693 204.167 309.395 200.577 310.775 197.227C312.154 193.877 314.183 190.833 316.745 188.271C319.307 185.709 322.351 183.68 325.701 182.301C329.051 180.922 332.641 180.219 336.264 180.235H556.706C560.329 180.219 563.919 180.922 567.269 182.301C570.619 183.681 573.663 185.71 576.224 188.271C578.786 190.833 580.815 193.877 582.195 197.227C583.574 200.577 584.276 204.167 584.261 207.79Z" fill="#2E2445" stroke="#4F27AA" stroke-width="4.532"/>
<path d="M775.184 403.629C775.184 403.629 717.995 390.555 688.834 399.834C659.981 409.017 590.688 447.42 527.035 450.233C526.44 450.264 525.854 450.086 525.376 449.73C524.899 449.374 524.561 448.862 524.421 448.283C523.436 444.05 523.524 433.996 542.995 425.683C568.361 414.905 587.567 406.151 587.567 406.151C587.567 406.151 475.282 367.122 445.644 354.283C439.791 351.752 435.368 349.06 432.005 346.299C421.521 337.685 431.038 320.92 443.92 325.201L519.309 350.228C519.309 350.228 513.154 343.606 516.315 336.169C519.322 329.142 533.634 325.401 545.225 330.004C545.225 330.004 538.941 321.986 545.68 313.893C552.419 305.799 567.035 307.262 573.972 309.426C573.972 309.426 566.318 303.08 569.492 295.855C572.665 288.63 589.12 286.35 594.259 287.26C599.398 288.17 643.354 288.23 705.004 317.735L792.203 305.028C792.203 305.028 816.228 328.065 775.184 403.629Z" fill="#F8AE9D"/>
</g>
<defs>
<clipPath id="clip0_1235_25496">
<rect width="900" height="600" fill="white"/>
</clipPath>
</defs>
</svg>
