<svg width="900" height="600" viewBox="0 0 900 600" fill="none" xmlns="http://www.w3.org/2000/svg">
<g clip-path="url(#clip0_1235_25537)">
<path d="M746.811 533.102H153.189C135.535 533.102 121 517.78 121 498.609V101.595C121 82.4226 135.535 67.1016 153.189 67.1016H746.811C764.465 67.1006 779 82.4206 779 101.595V498.609C779 517.78 764.465 533.102 746.811 533.102Z" fill="white" stroke="#E1E4E5" stroke-width="4"/>
<path fill-rule="evenodd" clip-rule="evenodd" d="M357 200.438V316.872C357 323.192 362.06 328.31 368.31 328.31H436.849L466.768 285.664C468.195 283.63 471.761 283.63 473.188 285.664L483.662 300.598L483.743 300.714L483.814 300.611L506.279 267.994C507.832 265.735 511.725 265.735 513.278 267.994L543.029 311.196V200.438C543.029 194.118 537.955 189 531.72 189H368.31C362.06 189 357 194.118 357 200.438Z" fill="#4F27AA"/>
<path d="M409.463 268.3C398.55 268.3 389.703 259.453 389.703 248.54C389.703 237.627 398.55 228.781 409.463 228.781C420.376 228.781 429.222 237.627 429.222 248.54C429.222 259.453 420.376 268.3 409.463 268.3Z" fill="white"/>
<path d="M779 109.62H121V99.189C121 81.414 135.414 67 153.189 67H746.811C764.586 67 779 81.414 779 99.189V109.62Z" fill="white" stroke="#E1E4E5" stroke-width="4"/>
<path d="M153.251 97.1503C155.198 97.1503 157.066 96.3768 158.443 94.9999C159.819 93.623 160.593 91.7556 160.593 89.8083C160.593 87.8611 159.819 85.9937 158.443 84.6168C157.066 83.2399 155.198 82.4663 153.251 82.4663C151.304 82.4663 149.436 83.2399 148.059 84.6168C146.683 85.9937 145.909 87.8611 145.909 89.8083C145.909 91.7556 146.683 93.623 148.059 94.9999C149.436 96.3768 151.304 97.1503 153.251 97.1503ZM183.844 97.1503C184.815 97.1616 185.779 96.98 186.68 96.616C187.581 96.2521 188.401 95.713 189.091 95.03C189.782 94.347 190.331 93.5337 190.705 92.6372C191.08 91.7407 191.272 90.7788 191.272 89.8073C191.272 88.8358 191.079 87.874 190.705 86.9776C190.33 86.0811 189.782 85.2679 189.091 84.585C188.4 83.9021 187.58 83.3631 186.679 82.9993C185.778 82.6354 184.814 82.4539 183.843 82.4653C181.91 82.488 180.065 83.2717 178.706 84.6463C177.348 86.0209 176.586 87.8757 176.586 89.8083C176.586 91.741 177.348 93.5957 178.707 94.9701C180.066 96.3445 181.911 97.1279 183.844 97.1503ZM213.213 97.1503C215.16 97.1503 217.028 96.3768 218.405 94.9999C219.781 93.623 220.555 91.7556 220.555 89.8083C220.555 87.8611 219.781 85.9937 218.405 84.6168C217.028 83.2399 215.16 82.4663 213.213 82.4663C211.266 82.4663 209.398 83.2399 208.021 84.6168C206.645 85.9937 205.871 87.8611 205.871 89.8083C205.871 91.7556 206.645 93.623 208.021 94.9999C209.398 96.3768 211.266 97.1503 213.213 97.1503Z" fill="#E1E4E5"/>
<path d="M679 353H220C213.373 353 208 358.373 208 365C208 371.627 213.373 377 220 377H679C685.627 377 691 371.627 691 365C691 358.373 685.627 353 679 353Z" fill="#E1E4E5"/>
<path d="M679 128H667C660.373 128 655 133.373 655 140C655 146.627 660.373 152 667 152H679C685.627 152 691 146.627 691 140C691 133.373 685.627 128 679 128Z" fill="#E1E4E5"/>
<path d="M629 128H617C610.373 128 605 133.373 605 140C605 146.627 610.373 152 617 152H629C635.627 152 641 146.627 641 140C641 133.373 635.627 128 629 128Z" fill="#E1E4E5"/>
<path d="M579 128H567C560.373 128 555 133.373 555 140C555 146.627 560.373 152 567 152H579C585.627 152 591 146.627 591 140C591 133.373 585.627 128 579 128Z" fill="#E1E4E5"/>
<path d="M529 128H517C510.373 128 505 133.373 505 140C505 146.627 510.373 152 517 152H529C535.627 152 541 146.627 541 140C541 133.373 535.627 128 529 128Z" fill="#E1E4E5"/>
<path d="M282 128H220C213.373 128 208 133.373 208 140C208 146.627 213.373 152 220 152H282C288.627 152 294 146.627 294 140C294 133.373 288.627 128 282 128Z" fill="#E1E4E5"/>
<path d="M679 396H220C213.373 396 208 401.373 208 408C208 414.627 213.373 420 220 420H679C685.627 420 691 414.627 691 408C691 401.373 685.627 396 679 396Z" fill="#E1E4E5"/>
<path d="M529 448H370C355.641 448 344 459.641 344 474C344 488.359 355.641 500 370 500H529C543.359 500 555 488.359 555 474C555 459.641 543.359 448 529 448Z" fill="#4F27AA"/>
</g>
<defs>
<clipPath id="clip0_1235_25537">
<rect width="900" height="600" fill="white"/>
</clipPath>
</defs>
</svg>
