<svg width="900" height="600" viewBox="0 0 900 600" fill="none" xmlns="http://www.w3.org/2000/svg">
<g clip-path="url(#clip0_1235_25552)">
<path d="M555.817 76.559C555.271 76.3627 554.719 76.1849 554.161 76.026C553.976 75.973 553.793 75.916 553.608 75.869C553.412 75.819 553.215 75.771 553.019 75.723C552.819 75.676 552.617 75.628 552.415 75.583C552.225 75.541 552.034 75.505 551.84 75.468C551.44 75.3932 551.039 75.3258 550.636 75.266C550.229 75.209 549.822 75.1607 549.413 75.121C549.142 75.096 548.871 75.0754 548.599 75.059C548.456 75.051 548.313 75.036 548.17 75.031C547.751 75.011 547.33 75 546.907 75H352.814C351.043 74.9987 349.276 75.1772 347.541 75.533C336.465 77.801 327.939 87.086 326.778 98.55C326.688 99.434 326.643 100.328 326.643 101.234V498.887C326.643 510.242 333.838 519.909 343.91 523.562C343.955 523.579 344 523.593 344.044 523.607C344.544 523.784 345.052 523.946 345.563 524.092C345.748 524.145 345.93 524.201 346.118 524.249C346.315 524.299 346.511 524.347 346.708 524.395C346.907 524.442 347.109 524.49 347.311 524.535C347.502 524.577 347.693 524.613 347.886 524.65C348.285 524.724 348.686 524.792 349.087 524.852C349.32 524.885 349.556 524.913 349.795 524.941C350.237 524.993 350.681 525.032 351.125 525.059C351.268 525.068 351.411 525.082 351.554 525.087C351.972 525.107 352.393 525.118 352.817 525.118H546.912C547.816 525.118 548.708 525.073 549.589 524.983C561.906 523.73 571.7 513.912 572.952 501.565C573.041 500.682 573.086 499.787 573.086 498.882V101.234C573.081 89.879 565.885 80.212 555.817 76.559Z" fill="white" stroke="#E1E4E5" stroke-width="4" stroke-linecap="round" stroke-linejoin="round"/>
<path d="M449.862 503.746C458.195 503.746 464.95 496.991 464.95 488.658C464.95 480.325 458.195 473.57 449.862 473.57C441.529 473.57 434.774 480.325 434.774 488.658C434.774 496.991 441.529 503.746 449.862 503.746Z" fill="white" stroke="#E1E4E5" stroke-width="4" stroke-linecap="round" stroke-linejoin="round"/>
<path d="M473.751 95.1133H427.23C425.841 95.1133 424.715 96.2391 424.715 97.6278C424.715 99.0165 425.841 100.142 427.23 100.142H473.751C475.14 100.142 476.266 99.0165 476.266 97.6278C476.266 96.2391 475.14 95.1133 473.751 95.1133Z" fill="#E1E4E5"/>
<path fill-rule="evenodd" clip-rule="evenodd" d="M498.898 218.964C498.899 232.136 493.667 244.768 484.353 254.083C475.024 263.326 462.414 268.498 449.281 268.468C436.148 268.438 423.562 263.208 414.275 253.921C404.989 244.635 399.759 232.049 399.728 218.916C399.698 205.783 404.871 193.173 414.114 183.844C423.428 174.529 436.061 169.297 449.234 169.297C462.406 169.297 475.039 174.529 484.353 183.844C493.667 193.158 498.899 205.791 498.898 218.964Z" fill="white" stroke="#E1E4E5" stroke-width="4" stroke-linecap="round" stroke-linejoin="round"/>
<path d="M434.218 210.879C437.62 210.879 440.378 208.121 440.378 204.719C440.378 201.317 437.62 198.559 434.218 198.559C430.816 198.559 428.058 201.317 428.058 204.719C428.058 208.121 430.816 210.879 434.218 210.879Z" fill="#E1E4E5" stroke="#E1E4E5" stroke-width="4" stroke-linecap="round" stroke-linejoin="round"/>
<path fill-rule="evenodd" clip-rule="evenodd" d="M496.588 216.017C494.469 215.691 492.33 215.517 490.186 215.497C477.262 215.404 464.948 221.071 456.499 230.999C448.049 240.927 444.315 254.118 446.283 267.086" fill="white"/>
<path d="M496.588 216.017C494.469 215.691 492.33 215.517 490.186 215.497C477.262 215.404 464.948 221.071 456.499 230.999C448.049 240.927 444.315 254.118 446.283 267.086" stroke="#E1E4E5" stroke-width="4" stroke-linecap="round" stroke-linejoin="round"/>
<path d="M517.758 366.699H388.252C385.475 366.699 383.223 368.951 383.223 371.728V371.729C383.223 374.507 385.475 376.758 388.252 376.758H517.758C520.535 376.758 522.787 374.507 522.787 371.729V371.728C522.787 368.951 520.535 366.699 517.758 366.699Z" fill="white" stroke="#E1E4E5" stroke-width="4" stroke-linecap="round" stroke-linejoin="round"/>
<path d="M517.758 336.523H398.31C395.533 336.523 393.281 338.775 393.281 341.552V341.553C393.281 344.331 395.533 346.582 398.31 346.582H517.758C520.535 346.582 522.787 344.331 522.787 341.553V341.552C522.787 338.775 520.535 336.523 517.758 336.523Z" fill="white" stroke="#E1E4E5" stroke-width="4" stroke-linecap="round" stroke-linejoin="round"/>
<path d="M517.758 306.348H381.965C379.188 306.348 376.936 308.599 376.936 311.377V311.378C376.936 314.155 379.188 316.407 381.965 316.407H517.758C520.535 316.407 522.787 314.155 522.787 311.378V311.377C522.787 308.599 520.535 306.348 517.758 306.348Z" fill="white" stroke="#E1E4E5" stroke-width="4" stroke-linecap="round" stroke-linejoin="round"/>
<path d="M288.442 156.282C288.426 156.277 288.412 156.273 288.396 156.266C287.962 156.111 287.524 155.97 287.081 155.844C286.929 155.8 286.779 155.754 286.626 155.715C286.465 155.673 286.303 155.634 286.142 155.595C285.978 155.556 285.812 155.516 285.646 155.48C285.489 155.446 285.331 155.414 285.173 155.385C284.996 155.35 284.818 155.318 284.64 155.29C283.934 155.175 283.222 155.094 282.508 155.048C282.39 155.041 282.272 155.03 282.154 155.025C281.808 155.009 281.462 155 281.116 155H121.52C120.423 154.999 119.327 155.082 118.243 155.249C117.888 155.304 117.532 155.367 117.184 155.438C108.076 157.303 101.066 164.938 100.111 174.365C100.037 175.098 99.9996 175.834 100 176.571V503.549C100 512.886 105.916 520.835 114.198 523.839L114.309 523.875C114.72 524.021 115.137 524.154 115.557 524.274C115.709 524.318 115.859 524.364 116.014 524.403C116.176 524.445 116.337 524.484 116.499 524.523C116.662 524.562 116.829 524.602 116.995 524.639C117.152 524.673 117.309 524.703 117.468 524.733C117.645 524.768 117.823 524.8 118.001 524.828C118.345 524.885 118.691 524.933 119.037 524.973C119.178 524.989 119.318 525.005 119.462 525.019C119.683 525.04 119.907 525.056 120.131 525.07C120.248 525.077 120.366 525.088 120.484 525.093C120.828 525.109 121.174 525.118 121.522 525.118H281.121C281.864 525.118 282.598 525.081 283.322 525.007C293.45 523.977 301.503 515.904 302.532 505.751C302.606 505.025 302.643 504.289 302.643 503.545V176.571C302.638 167.234 296.722 159.286 288.442 156.282Z" fill="white" stroke="#E1E4E5" stroke-width="4" stroke-linecap="round" stroke-linejoin="round"/>
<path d="M201.319 507.547C208.171 507.547 213.725 501.993 213.725 495.141C213.725 488.289 208.171 482.734 201.319 482.734C194.467 482.734 188.913 488.289 188.913 495.141C188.913 501.993 194.467 507.547 201.319 507.547Z" fill="white" stroke="#E1E4E5" stroke-width="4" stroke-linecap="round" stroke-linejoin="round"/>
<path d="M220.963 171.539H182.71C181.568 171.539 180.642 172.465 180.642 173.607C180.642 174.748 181.568 175.674 182.71 175.674H220.963C222.105 175.674 223.031 174.748 223.031 173.607C223.031 172.465 222.105 171.539 220.963 171.539Z" fill="#E1E4E5"/>
<path fill-rule="evenodd" clip-rule="evenodd" d="M241.64 273.377C241.64 278.74 240.584 284.05 238.532 289.005C236.48 293.96 233.472 298.462 229.68 302.255C223.969 307.966 216.692 311.855 208.77 313.431C200.849 315.006 192.637 314.197 185.175 311.106C177.713 308.015 171.335 302.781 166.848 296.065C162.361 289.35 159.966 281.454 159.966 273.377C159.966 265.3 162.361 257.405 166.848 250.689C171.335 243.973 177.713 238.739 185.175 235.648C192.637 232.557 200.849 231.748 208.77 233.324C216.692 234.899 223.969 238.788 229.68 244.5C233.472 248.292 236.48 252.794 238.532 257.749C240.584 262.703 241.64 268.014 241.64 273.377Z" fill="white" stroke="#E1E4E5" stroke-width="4" stroke-linecap="round" stroke-linejoin="round"/>
<path d="M188.456 266.728C191.253 266.728 193.521 264.46 193.521 261.663C193.521 258.865 191.253 256.598 188.456 256.598C185.659 256.598 183.391 258.865 183.391 261.663C183.391 264.46 185.659 266.728 188.456 266.728Z" fill="#E1E4E5" stroke="#E1E4E5" stroke-width="4" stroke-linecap="round" stroke-linejoin="round"/>
<path fill-rule="evenodd" clip-rule="evenodd" d="M239.741 270.956C237.999 270.687 236.239 270.544 234.476 270.528C223.849 270.452 213.724 275.111 206.776 283.275C199.829 291.439 196.758 302.285 198.376 312.948" fill="white"/>
<path d="M239.741 270.956C237.999 270.687 236.239 270.544 234.476 270.528C223.849 270.452 213.724 275.111 206.776 283.275C199.829 291.439 196.758 302.285 198.376 312.948" stroke="#E1E4E5" stroke-width="4" stroke-linecap="round" stroke-linejoin="round"/>
<path d="M257.148 394.855H150.659C148.375 394.855 146.524 396.707 146.524 398.99V398.991C146.524 401.275 148.375 403.126 150.659 403.126H257.148C259.432 403.126 261.283 401.275 261.283 398.991V398.99C261.283 396.707 259.432 394.855 257.148 394.855Z" fill="white" stroke="#E1E4E5" stroke-width="4" stroke-linecap="round" stroke-linejoin="round"/>
<path d="M257.148 370.043H158.93C156.646 370.043 154.795 371.894 154.795 374.178V374.179C154.795 376.463 156.646 378.314 158.93 378.314H257.148C259.432 378.314 261.283 376.463 261.283 374.179V374.178C261.283 371.894 259.432 370.043 257.148 370.043Z" fill="white" stroke="#E1E4E5" stroke-width="4" stroke-linecap="round" stroke-linejoin="round"/>
<path d="M257.149 345.23H145.49C143.206 345.23 141.355 347.082 141.355 349.365V349.366C141.355 351.65 143.206 353.501 145.49 353.501H257.149C259.433 353.501 261.284 351.65 261.284 349.366V349.365C261.284 347.082 259.433 345.23 257.149 345.23Z" fill="white" stroke="#E1E4E5" stroke-width="4" stroke-linecap="round" stroke-linejoin="round"/>
<path d="M785.529 156.282C785.513 156.277 785.499 156.273 785.483 156.266C785.049 156.111 784.61 155.97 784.167 155.844C784.015 155.8 783.865 155.754 783.713 155.715C783.552 155.674 783.39 155.634 783.228 155.595C783.064 155.556 782.898 155.516 782.732 155.48C782.575 155.446 782.417 155.414 782.259 155.385C782.082 155.35 781.904 155.318 781.726 155.29C781.02 155.175 780.308 155.094 779.594 155.048C779.476 155.041 779.359 155.03 779.241 155.025C778.897 155.009 778.551 155 778.203 155H618.606C617.509 154.999 616.414 155.082 615.33 155.249C614.974 155.304 614.619 155.367 614.27 155.438C605.163 157.303 598.152 164.938 597.197 174.365C597.123 175.098 597.086 175.834 597.086 176.571V503.549C597.086 512.886 603.003 520.835 611.285 523.839C611.321 523.852 611.358 523.864 611.395 523.875C611.806 524.021 612.224 524.154 612.644 524.274C612.796 524.318 612.946 524.364 613.101 524.403C613.262 524.445 613.424 524.484 613.585 524.523C613.749 524.562 613.915 524.602 614.081 524.639C614.238 524.673 614.395 524.703 614.554 524.733C614.732 524.768 614.91 524.8 615.087 524.828C615.431 524.885 615.776 524.934 616.123 524.973C616.264 524.989 616.405 525.005 616.548 525.019C616.769 525.04 616.993 525.056 617.217 525.07C617.335 525.077 617.452 525.088 617.57 525.093C617.914 525.109 618.26 525.118 618.609 525.118H778.207C778.95 525.118 779.684 525.081 780.409 525.007C790.536 523.977 798.589 515.904 799.618 505.751C799.692 505.025 799.729 504.289 799.729 503.545V176.571C799.725 167.234 793.808 159.286 785.529 156.282Z" fill="white" stroke="#E1E4E5" stroke-width="4" stroke-linecap="round" stroke-linejoin="round"/>
<path d="M698.405 507.547C705.257 507.547 710.812 501.993 710.812 495.141C710.812 488.289 705.257 482.734 698.405 482.734C691.554 482.734 685.999 488.289 685.999 495.141C685.999 501.993 691.554 507.547 698.405 507.547Z" fill="white" stroke="#E1E4E5" stroke-width="4" stroke-linecap="round" stroke-linejoin="round"/>
<path d="M718.049 171.539H679.796C678.654 171.539 677.728 172.465 677.728 173.607C677.728 174.748 678.654 175.674 679.796 175.674H718.049C719.191 175.674 720.117 174.748 720.117 173.607C720.117 172.465 719.191 171.539 718.049 171.539Z" fill="#E1E4E5"/>
<path fill-rule="evenodd" clip-rule="evenodd" d="M738.727 273.374C738.727 281.451 736.331 289.346 731.844 296.062C727.356 302.777 720.978 308.012 713.516 311.103C706.054 314.194 697.843 315.003 689.921 313.427C681.999 311.852 674.723 307.963 669.011 302.252C661.353 294.593 657.051 284.205 657.051 273.374C657.051 262.544 661.353 252.156 669.011 244.497C672.803 240.705 677.305 237.696 682.26 235.644C687.215 233.592 692.525 232.535 697.888 232.535C703.252 232.535 708.562 233.592 713.517 235.644C718.472 237.696 722.974 240.705 726.766 244.497C730.558 248.289 733.566 252.791 735.619 257.746C737.671 262.701 738.727 268.011 738.727 273.374Z" fill="white" stroke="#E1E4E5" stroke-width="4" stroke-linecap="round" stroke-linejoin="round"/>
<path d="M685.542 266.728C688.339 266.728 690.607 264.46 690.607 261.663C690.607 258.865 688.339 256.598 685.542 256.598C682.745 256.598 680.477 258.865 680.477 261.663C680.477 264.46 682.745 266.728 685.542 266.728Z" fill="#E1E4E5" stroke="#E1E4E5" stroke-width="4" stroke-linecap="round" stroke-linejoin="round"/>
<path fill-rule="evenodd" clip-rule="evenodd" d="M736.827 270.956C735.085 270.687 733.325 270.544 731.562 270.528C720.936 270.452 710.81 275.111 703.863 283.275C696.915 291.439 693.845 302.285 695.463 312.948" fill="white"/>
<path d="M736.827 270.956C735.085 270.687 733.325 270.544 731.562 270.528C720.936 270.452 710.81 275.111 703.863 283.275C696.915 291.439 693.845 302.285 695.463 312.948" stroke="#E1E4E5" stroke-width="4" stroke-linecap="round" stroke-linejoin="round"/>
<path d="M754.234 394.855H647.745C645.461 394.855 643.61 396.707 643.61 398.99V398.991C643.61 401.275 645.461 403.126 647.745 403.126H754.234C756.518 403.126 758.369 401.275 758.369 398.991V398.99C758.369 396.707 756.518 394.855 754.234 394.855Z" fill="white" stroke="#E1E4E5" stroke-width="4" stroke-linecap="round" stroke-linejoin="round"/>
<path d="M754.234 370.043H656.016C653.732 370.043 651.881 371.894 651.881 374.178V374.179C651.881 376.463 653.732 378.314 656.016 378.314H754.234C756.518 378.314 758.369 376.463 758.369 374.179V374.178C758.369 371.894 756.518 370.043 754.234 370.043Z" fill="white" stroke="#E1E4E5" stroke-width="4" stroke-linecap="round" stroke-linejoin="round"/>
<path d="M754.235 345.23H642.576C640.292 345.23 638.441 347.082 638.441 349.365V349.366C638.441 351.65 640.292 353.501 642.576 353.501H754.235C756.519 353.501 758.37 351.65 758.37 349.366V349.365C758.37 347.082 756.519 345.23 754.235 345.23Z" fill="white" stroke="#E1E4E5" stroke-width="4" stroke-linecap="round" stroke-linejoin="round"/>
</g>
<defs>
<clipPath id="clip0_1235_25552">
<rect width="900" height="600" fill="white"/>
</clipPath>
</defs>
</svg>
