<svg width="900" height="600" viewBox="0 0 900 600" fill="none" xmlns="http://www.w3.org/2000/svg">
<g clip-path="url(#clip0_1235_25584)">
<path fill-rule="evenodd" clip-rule="evenodd" d="M337.664 336.282C330.937 353.868 327.97 373.335 329.742 393.709C330.352 400.716 331.558 407.658 333.347 414.46L350.53 409.537C354.643 408.358 358.999 408.318 363.133 409.42C367.267 410.523 371.025 412.726 374.005 415.796L403.562 446.245C405.535 448.277 407.922 449.86 410.561 450.888C413.2 451.915 416.029 452.362 418.856 452.198C433.292 451.363 444.963 463.8 443.213 478.153L439.468 508.884C441.5 509.163 443.546 509.393 445.605 509.572C452.023 510.13 458.351 510.218 464.559 509.866C461.856 506.905 459.95 503.305 459.021 499.405C458.092 495.504 458.171 491.432 459.249 487.57L464.878 467.412C467.98 456.3 478.651 449.051 490.124 450.26L512.676 452.635C529.214 454.378 538.487 471.971 531.539 486.342C537.915 481.79 543.86 476.663 549.299 471.025L534.608 428.001C533.641 425.169 532.055 422.587 529.967 420.443C527.878 418.298 525.339 416.646 522.533 415.604L496.657 406C480.416 399.972 475.959 379.101 488.322 366.965L555.691 300.837C544.221 287.004 529.919 275.565 513.751 267.484L495.261 326.902C493.99 330.987 491.633 334.651 488.443 337.503C485.254 340.354 481.35 342.287 477.148 343.094L429.264 352.292C426.42 352.839 423.728 353.991 421.369 355.67C419.01 357.35 417.039 359.517 415.592 362.025L414.199 364.44C406.84 377.194 389.739 380.191 378.483 370.699L337.664 336.282ZM436.044 508.364L439.777 477.734C441.265 465.524 431.337 454.944 419.056 455.654C415.733 455.847 412.407 455.321 409.305 454.114C406.202 452.906 403.397 451.045 401.078 448.656L371.521 418.207C368.977 415.587 365.77 413.706 362.241 412.765C358.712 411.824 354.994 411.858 351.483 412.864L334.273 417.796C347.862 464.2 387.728 500.331 436.044 508.364ZM584.596 370.582C587.872 408.271 574.94 442.856 551.979 468.161L537.884 426.882C536.751 423.564 534.893 420.539 532.447 418.027C530 415.515 527.025 413.578 523.737 412.358L497.861 402.755C483.998 397.61 480.194 379.794 490.747 369.436L557.876 303.543C572.744 322.479 582.423 345.597 584.596 370.582ZM339.017 332.894L380.714 368.053C390.323 376.154 404.919 373.596 411.2 362.71L412.594 360.295C414.289 357.357 416.597 354.818 419.361 352.85C422.125 350.883 425.28 349.533 428.611 348.893L476.494 339.694C480.081 339.005 483.413 337.356 486.136 334.922C488.859 332.489 490.87 329.361 491.955 325.874L510.599 265.963C497.615 259.913 483.5 256.005 468.732 254.718C410.48 249.653 359.632 283.322 339.017 332.894ZM469.088 509.53C489.327 507.671 508.179 501.128 524.556 490.989L526.989 487.339C535.406 474.715 527.402 457.668 512.314 456.078L489.761 453.702C479.968 452.671 470.86 458.859 468.212 468.343L462.583 488.501C461.619 491.953 461.592 495.598 462.504 499.064C463.416 502.529 465.234 505.689 467.772 508.219L469.088 509.53Z" fill="#E1E4E5"/>
<path d="M391.012 183.871L456.727 226.295L521.61 183.871L456.727 20L391.012 183.871Z" fill="white" stroke="#E1E4E5" stroke-width="4"/>
<path d="M454.568 141.449V254.578M415.465 168.105L456.235 197.229" stroke="#E1E4E5" stroke-width="4"/>
<path d="M497.191 244.352L546.032 275.882L594.254 244.352L546.032 122.559L497.191 244.352Z" fill="white" stroke="#E1E4E5" stroke-width="4"/>
<path d="M544.941 212.824V296.905M515.664 232.217L545.965 253.863" stroke="#E1E4E5" stroke-width="4"/>
<path d="M316.491 244.352L365.332 275.882L413.554 244.352L365.332 122.559L316.491 244.352Z" fill="white" stroke="#E1E4E5" stroke-width="4"/>
<path d="M364.24 212.824V296.905M334.964 232.217L365.265 253.863" stroke="#E1E4E5" stroke-width="4"/>
<path d="M643.735 292.799L614.643 321.891M288.846 302.566L259.754 331.658M275.823 413.266L246.731 442.357M366.987 522.337L337.895 551.429M515.128 540.244L486.036 569.336M625.827 486.522L596.736 515.614M690.945 377.451L661.853 406.543M614.643 286.98L603.006 298.617M259.754 296.748L248.118 308.385M246.731 407.447L235.094 419.084M337.895 516.519L326.258 528.155M486.036 534.425L474.4 546.062M596.736 480.704L585.099 492.34M661.853 371.633L650.216 383.27M649.553 321.89L637.917 333.527M294.665 331.657L283.028 343.294M281.641 442.357L270.005 453.994M372.805 551.428L361.169 563.065M520.947 569.335L509.31 580.972M631.646 515.614L620.009 527.251M696.763 406.542L685.126 418.179" stroke="#E1E4E5" stroke-width="4" stroke-linecap="round" stroke-linejoin="round"/>
<path d="M185.793 343.169C200.641 352.068 221.944 343.841 221.944 343.841C221.944 343.841 219.158 321.189 204.301 312.3C189.452 303.401 168.159 311.618 168.159 311.618C168.159 311.618 170.944 334.27 185.793 343.169Z" fill="url(#paint0_linear_1235_25584)"/>
<path d="M670.768 218.984C662.715 218.984 656.186 225.513 656.186 233.566C656.186 241.62 662.715 248.148 670.768 248.148C678.821 248.148 685.35 241.62 685.35 233.566C685.35 225.513 678.821 218.984 670.768 218.984Z" fill="#4F27AA"/>
<path d="M622.823 400.454C611.369 400.454 602.083 409.739 602.083 421.194C602.083 432.648 611.369 441.934 622.823 441.934C634.277 441.934 643.563 432.648 643.563 421.194C643.563 409.739 634.277 400.454 622.823 400.454Z" fill="#4F27AA"/>
<path d="M302.996 110.777C296.366 110.777 290.992 116.152 290.992 122.781C290.992 129.411 296.366 134.785 302.996 134.785C309.626 134.785 315 129.411 315 122.781C315 116.152 309.626 110.777 302.996 110.777Z" fill="#4F27AA"/>
<path d="M290.01 396.237C282.46 396.237 276.339 390.116 276.339 382.566C276.339 375.015 282.46 368.895 290.01 368.895C297.56 368.895 303.681 375.015 303.681 382.566C303.681 390.116 297.56 396.237 290.01 396.237Z" fill="#4F27AA"/>
<path d="M733.38 340.76C729.856 340.76 727 337.904 727 334.38C727 330.856 729.856 328 733.38 328C736.904 328 739.76 330.856 739.76 334.38C739.76 337.904 736.904 340.76 733.38 340.76Z" fill="#4F27AA"/>
<path d="M398.045 453.046C400.31 449.123 405.327 447.779 409.249 450.044C413.172 452.309 414.517 457.325 412.252 461.248C409.987 465.171 404.97 466.515 401.047 464.251C397.125 461.986 395.78 456.969 398.045 453.046Z" fill="#E1E4E5"/>
<path d="M194.635 415.133C188.092 415.133 182.787 409.829 182.787 403.285C182.787 396.742 188.092 391.438 194.635 391.438C201.179 391.438 206.483 396.742 206.483 403.285C206.483 409.829 201.179 415.133 194.635 415.133Z" fill="#E1E4E5"/>
<path d="M410.47 535.631C412.96 531.318 418.474 529.841 422.787 532.331C427.1 534.821 428.577 540.335 426.087 544.648C423.598 548.961 418.083 550.439 413.77 547.949C409.457 545.459 407.98 539.944 410.47 535.631Z" fill="#E1E4E5"/>
<path d="M643.668 161.261C638.131 161.261 633.643 156.773 633.643 151.236C633.643 145.699 638.131 141.211 643.668 141.211C649.205 141.211 653.693 145.699 653.693 151.236C653.693 156.773 649.205 161.261 643.668 161.261Z" fill="#E1E4E5"/>
<path d="M259.231 240.7C260.518 245.502 257.668 250.438 252.866 251.725C248.063 253.011 243.127 250.162 241.84 245.359C240.554 240.557 243.404 235.621 248.206 234.334C253.008 233.047 257.944 235.897 259.231 240.7Z" fill="#E1E4E5"/>
<path d="M559.35 530.164C561.894 525.758 566.813 523.836 570.338 525.871C573.863 527.906 574.659 533.128 572.115 537.534C569.571 541.94 564.651 543.862 561.126 541.827C557.601 539.792 556.806 534.57 559.35 530.164Z" fill="#E1E4E5"/>
<path d="M532.13 80.6087C533.703 86.479 530.219 92.5129 524.349 94.0858C518.479 95.6588 512.445 92.1751 510.872 86.3048C509.299 80.4346 512.783 74.4007 518.653 72.8277C524.523 71.2548 530.557 74.7385 532.13 80.6087Z" fill="#E1E4E5"/>
<path d="M291.545 180.977H291.676C292.453 191.988 300.642 192.157 300.642 192.157C300.642 192.157 291.612 192.334 291.612 205.056C291.612 192.334 282.583 192.157 282.583 192.157C282.583 192.157 290.768 191.988 291.545 180.977ZM277.826 469.2H277.952C278.699 480.178 286.561 480.347 286.561 480.347C286.561 480.347 277.891 480.523 277.891 493.208C277.891 480.523 269.222 480.347 269.222 480.347C269.222 480.347 277.08 480.178 277.826 469.2Z" fill="#E1E4E5"/>
</g>
<defs>
<linearGradient id="paint0_linear_1235_25584" x1="243.252" y1="371.815" x2="123.776" y2="260.806" gradientUnits="userSpaceOnUse">
<stop stop-color="white"/>
<stop offset="1" stop-color="#EEEEEE"/>
</linearGradient>
<clipPath id="clip0_1235_25584">
<rect width="900" height="600" fill="white"/>
</clipPath>
</defs>
</svg>
