<svg width="900" height="600" viewBox="0 0 900 600" fill="none" xmlns="http://www.w3.org/2000/svg">
<g clip-path="url(#clip0_1235_25608)">
<path d="M540.534 181.534C538.01 186.039 532.482 186.658 523.625 185.802C516.965 185.157 510.891 184.658 504.229 181.026C499.567 178.486 495.876 175.049 493.183 171.711C490.264 168.095 486.19 163.968 488.187 159.868C490.932 154.236 506.804 149.492 522.217 157.25C539.149 165.774 543.003 177.132 540.534 181.534Z" fill="url(#paint0_linear_1235_25608)"/>
<path d="M832.035 259.008C814.054 267.927 790.188 256.458 790.188 256.458C790.188 256.458 795.492 230.533 813.483 221.625C831.464 212.706 855.32 224.162 855.32 224.162C855.32 224.162 850.016 250.088 832.035 259.008Z" fill="url(#paint1_linear_1235_25608)"/>
<path d="M303.443 437.646C316.123 445.245 334.314 438.22 334.314 438.22C334.314 438.22 331.936 418.876 319.248 411.285C306.568 403.686 288.384 410.702 288.384 410.702C288.384 410.702 290.763 430.046 303.443 437.646Z" fill="url(#paint2_linear_1235_25608)"/>
<path d="M699.999 541.928C695.512 541.928 691.875 538.29 691.875 533.804C691.875 529.317 695.512 525.68 699.999 525.68C704.486 525.68 708.123 529.317 708.123 533.804C708.123 538.29 704.486 541.928 699.999 541.928Z" fill="#E1E4E5"/>
<path d="M97.333 430.365C90.8519 430.365 85.598 425.111 85.598 418.63C85.598 412.148 90.8519 406.895 97.333 406.895C103.814 406.895 109.068 412.148 109.068 418.63C109.068 425.111 103.814 430.365 97.333 430.365Z" fill="#E1E4E5"/>
<path d="M664.672 358.975C659.74 358.975 655.741 354.977 655.741 350.044C655.741 345.112 659.74 341.113 664.672 341.113C669.604 341.113 673.603 345.112 673.603 350.044C673.603 354.977 669.604 358.975 664.672 358.975Z" fill="#E1E4E5"/>
<path d="M595.486 211.399C590.002 211.399 585.556 206.953 585.556 201.469C585.556 195.985 590.002 191.539 595.486 191.539C600.97 191.539 605.416 195.985 605.416 201.469C605.416 206.953 600.97 211.399 595.486 211.399Z" fill="#E1E4E5"/>
<path d="M53.834 231.866C53.834 236.791 49.8417 240.783 44.917 240.783C39.9923 240.783 36 236.791 36 231.866C36 226.941 39.9923 222.949 44.917 222.949C49.8417 222.949 53.834 226.941 53.834 231.866Z" fill="#E1E4E5"/>
<path d="M234.473 79.8568C227.922 79.8568 222.611 74.546 222.611 67.9948C222.611 61.4436 227.922 56.1328 234.473 56.1328C241.024 56.1328 246.335 61.4436 246.335 67.9948C246.335 74.546 241.024 79.8568 234.473 79.8568Z" fill="#E1E4E5"/>
<path d="M594.681 490.159C589.642 490.159 585.556 486.89 585.556 482.859C585.556 478.827 589.642 475.559 594.681 475.559C599.721 475.559 603.806 478.827 603.806 482.859C603.806 486.89 599.721 490.159 594.681 490.159Z" fill="#E1E4E5"/>
<path d="M627.409 72.9248C630.062 82.8249 624.186 93.0009 614.286 95.6536C604.386 98.3063 594.21 92.4312 591.558 82.5311C588.905 72.6311 594.78 62.455 604.68 59.8023C614.58 57.1496 624.756 63.0247 627.409 72.9248Z" fill="#E1E4E5"/>
<path d="M164.841 171.667H164.971C165.741 182.573 173.852 182.74 173.852 182.74C173.852 182.74 164.908 182.915 164.908 195.517C164.908 182.915 155.964 182.74 155.964 182.74C155.964 182.74 164.071 182.573 164.841 171.667ZM214.373 449.737H214.498C215.237 460.611 223.024 460.778 223.024 460.778C223.024 460.778 214.437 460.952 214.437 473.517C214.437 460.952 205.85 460.778 205.85 460.778C205.85 460.778 213.634 460.611 214.373 449.737ZM237.403 108.152C237.909 108.149 238.397 108.338 238.768 108.681C239.139 109.025 239.365 109.497 239.4 110.002C239.435 110.507 239.276 111.006 238.956 111.397C238.636 111.789 238.179 112.043 237.677 112.109C232.998 112.765 228.087 113.605 223.069 114.602C222.813 114.653 222.55 114.653 222.295 114.602C222.039 114.55 221.796 114.449 221.579 114.304C221.363 114.159 221.177 113.973 221.033 113.756C220.888 113.539 220.788 113.295 220.738 113.039C220.636 112.523 220.743 111.988 221.036 111.55C221.328 111.113 221.781 110.808 222.297 110.704C227.217 109.722 232.162 108.877 237.129 108.169C237.221 108.16 237.312 108.152 237.403 108.152ZM208.128 113.937C208.571 113.939 209 114.087 209.349 114.36C209.697 114.632 209.945 115.013 210.053 115.442C210.18 115.953 210.1 116.494 209.829 116.945C209.559 117.397 209.12 117.723 208.61 117.852C203.824 119.061 199.07 120.389 194.35 121.834C193.847 121.987 193.304 121.935 192.839 121.688C192.374 121.442 192.026 121.022 191.869 120.52C191.714 120.017 191.765 119.473 192.011 119.007C192.257 118.541 192.677 118.192 193.18 118.035C197.965 116.567 202.786 115.22 207.639 113.995C207.805 113.962 207.971 113.937 208.128 113.937ZM179.65 122.723C180.455 122.723 181.218 123.222 181.508 124.02C181.599 124.265 181.64 124.526 181.63 124.786C181.62 125.047 181.558 125.304 181.449 125.541C181.339 125.778 181.184 125.991 180.992 126.168C180.8 126.344 180.575 126.482 180.33 126.571C175.705 128.276 171.132 130.12 166.618 132.099C166.379 132.204 166.122 132.261 165.862 132.266C165.601 132.271 165.342 132.225 165.1 132.13C164.857 132.035 164.635 131.894 164.447 131.713C164.26 131.532 164.109 131.316 164.005 131.077C163.793 130.595 163.782 130.048 163.973 129.557C164.164 129.066 164.543 128.671 165.025 128.458C169.611 126.444 174.259 124.573 178.961 122.848C179.185 122.756 179.418 122.723 179.65 122.723ZM152.383 134.717C153.096 134.717 153.793 135.108 154.141 135.789C154.261 136.021 154.335 136.273 154.357 136.533C154.38 136.793 154.351 137.055 154.273 137.303C154.194 137.552 154.067 137.782 153.899 137.982C153.732 138.182 153.526 138.346 153.295 138.466C148.933 140.739 144.655 143.171 140.47 145.756C140.249 145.894 140.002 145.987 139.745 146.029C139.487 146.071 139.224 146.062 138.97 146.001C138.716 145.941 138.477 145.831 138.266 145.677C138.055 145.524 137.877 145.33 137.741 145.107C137.603 144.886 137.511 144.64 137.468 144.382C137.426 144.125 137.434 143.862 137.494 143.608C137.553 143.354 137.662 143.114 137.814 142.902C137.966 142.691 138.158 142.511 138.38 142.373C142.647 139.733 147.011 137.251 151.462 134.933C151.76 134.792 152.076 134.717 152.383 134.717ZM127.106 150.444C127.712 150.444 128.309 150.718 128.699 151.25C129.012 151.675 129.144 152.206 129.067 152.728C128.989 153.25 128.707 153.72 128.284 154.034C124.347 156.958 120.549 160.065 116.903 163.344C116.511 163.696 115.996 163.877 115.47 163.849C114.944 163.821 114.451 163.586 114.099 163.194C113.748 162.801 113.567 162.285 113.595 161.759C113.623 161.233 113.858 160.739 114.248 160.385C117.898 157.093 121.822 153.885 125.92 150.842C126.285 150.568 126.7 150.444 127.106 150.444ZM105.057 170.384C105.529 170.384 106.002 170.55 106.384 170.899C106.775 171.253 107.01 171.748 107.036 172.275C107.063 172.802 106.879 173.318 106.525 173.709C103.255 177.341 100.192 181.154 97.35 185.13C97.044 185.559 96.5805 185.849 96.0612 185.936C95.5419 186.023 95.0092 185.901 94.58 185.595C94.1515 185.288 93.862 184.823 93.7749 184.303C93.6878 183.783 93.8101 183.25 94.115 182.819C97.0433 178.719 100.201 174.786 103.572 171.041C103.761 170.836 103.991 170.671 104.246 170.558C104.502 170.445 104.778 170.386 105.057 170.384ZM87.852 194.58C88.175 194.58 88.499 194.655 88.797 194.821C89.0264 194.947 89.2288 195.116 89.3925 195.32C89.5563 195.524 89.6783 195.758 89.7515 196.009C89.8247 196.26 89.8477 196.523 89.8191 196.783C89.7905 197.043 89.711 197.294 89.585 197.523C87.2514 201.808 85.1793 206.23 83.38 210.764C83.284 211.007 83.1411 211.228 82.9596 211.415C82.7781 211.602 82.5615 211.752 82.3222 211.855C82.0829 211.959 81.8256 212.014 81.5649 212.018C81.3043 212.022 81.0454 211.974 80.803 211.878C80.5607 211.782 80.3396 211.639 80.1525 211.458C79.9653 211.276 79.8157 211.06 79.7123 210.821C79.6089 210.581 79.5536 210.324 79.5496 210.063C79.5456 209.803 79.593 209.544 79.689 209.301C81.5456 204.614 83.6869 200.045 86.101 195.619C86.2739 195.306 86.5273 195.045 86.8349 194.862C87.1425 194.68 87.4933 194.582 87.851 194.58H87.852ZM76.902 222.16C77.2057 222.161 77.5053 222.231 77.7777 222.365C78.05 222.5 78.2879 222.695 78.473 222.936C78.6581 223.177 78.7854 223.457 78.8452 223.754C78.9051 224.052 78.8957 224.36 78.818 224.653C77.575 229.375 76.5945 234.161 75.881 238.991C75.8438 239.25 75.7557 239.498 75.6219 239.722C75.488 239.946 75.3111 240.142 75.1014 240.297C74.8916 240.453 74.6531 240.565 74.3997 240.628C74.1463 240.69 73.883 240.702 73.625 240.662C73.3665 240.624 73.1181 240.535 72.8939 240.401C72.6698 240.266 72.4743 240.089 72.3187 239.879C72.1631 239.669 72.0503 239.431 71.9869 239.177C71.9235 238.923 71.9106 238.66 71.949 238.401C72.696 233.381 73.708 228.41 74.977 223.622C75.0962 223.203 75.3483 222.834 75.6955 222.57C76.0427 222.306 76.4661 222.163 76.902 222.16ZM72.322 251.534H72.463C72.7232 251.552 72.9774 251.622 73.2109 251.738C73.4443 251.854 73.6526 252.015 73.8237 252.212C73.9948 252.409 74.1253 252.638 74.2079 252.885C74.2905 253.133 74.3235 253.394 74.305 253.654C74.0428 257.45 73.9101 261.254 73.907 265.058C73.907 266.172 73.915 267.285 73.94 268.366C73.9516 268.893 73.7537 269.402 73.3899 269.782C73.0261 270.162 72.5262 270.383 72 270.394C71.4737 270.405 70.9648 270.206 70.5852 269.841C70.2057 269.476 69.9865 268.976 69.976 268.449C69.9524 267.317 69.9415 266.183 69.943 265.05C69.943 261.259 70.083 257.336 70.349 253.371C70.3874 252.873 70.6119 252.408 70.9778 252.067C71.3437 251.727 71.8243 251.537 72.324 251.534H72.322ZM73.069 281.283C74.048 281.283 74.902 282.014 75.035 283.012C75.691 287.991 76.645 292.82 77.872 297.358C78.0096 297.866 77.9402 298.408 77.679 298.864C77.4179 299.321 76.9864 299.655 76.479 299.794C76.2271 299.862 75.9644 299.879 75.7059 299.845C75.4473 299.811 75.198 299.726 74.9722 299.596C74.7465 299.465 74.5486 299.292 74.39 299.085C74.2314 298.878 74.1152 298.641 74.048 298.389C72.778 293.676 71.792 288.681 71.111 283.527C71.0741 283.248 71.0971 282.964 71.1785 282.694C71.2598 282.425 71.3977 282.175 71.583 281.963C71.7682 281.751 71.9966 281.58 72.2528 281.463C72.509 281.346 72.7873 281.285 73.069 281.283ZM80.925 309.909C81.68 309.909 82.402 310.35 82.733 311.081C84.766 315.595 87.163 319.842 89.868 323.699C90.1703 324.131 90.2893 324.664 90.199 325.183C90.1086 325.702 89.8163 326.164 89.386 326.467C89.1731 326.617 88.9327 326.724 88.6786 326.781C88.4245 326.838 88.1616 326.844 87.905 326.799C87.6484 326.755 87.4032 326.66 87.1834 326.52C86.9636 326.38 86.7735 326.199 86.624 325.985C83.779 321.929 81.257 317.465 79.117 312.719C79.0098 312.482 78.9505 312.225 78.9425 311.964C78.9345 311.703 78.9779 311.444 79.0703 311.2C79.1627 310.956 79.3023 310.732 79.481 310.542C79.6597 310.352 79.8742 310.2 80.112 310.092C80.378 309.968 80.652 309.909 80.925 309.909ZM146.012 312.22C147.049 312.22 147.928 313.035 147.986 314.082C148.019 314.609 147.842 315.127 147.494 315.523C147.146 315.918 146.654 316.16 146.128 316.193C141.532 316.476 136.729 317.54 132.241 319.269C131.997 319.363 131.738 319.407 131.477 319.4C131.216 319.393 130.96 319.334 130.722 319.228C130.483 319.121 130.269 318.969 130.09 318.779C129.911 318.589 129.771 318.366 129.678 318.122C129.489 317.63 129.504 317.083 129.719 316.601C129.933 316.12 130.33 315.743 130.822 315.553C135.684 313.683 140.893 312.536 145.887 312.22C145.929 312.228 145.978 312.22 146.012 312.22ZM160.637 314.232C160.885 314.232 161.134 314.282 161.375 314.373C167.555 316.875 171.271 321.255 171.827 326.708C171.881 327.231 171.725 327.754 171.394 328.163C171.062 328.571 170.583 328.831 170.06 328.886C169.8 328.912 169.538 328.887 169.289 328.812C169.039 328.736 168.807 328.612 168.605 328.447C168.403 328.282 168.236 328.079 168.113 327.849C167.989 327.619 167.913 327.367 167.887 327.107C167.373 322.087 163.258 319.41 159.898 318.047C159.473 317.875 159.12 317.56 158.901 317.157C158.683 316.753 158.611 316.286 158.698 315.836C158.785 315.385 159.026 314.979 159.38 314.686C159.734 314.394 160.178 314.233 160.637 314.232ZM118.645 322.751C119.234 322.751 119.814 323.009 120.204 323.508C120.884 324.372 120.735 325.619 119.881 326.301C116.149 329.254 112.921 332.794 110.324 336.782C110.182 337.001 109.999 337.19 109.784 337.338C109.569 337.486 109.327 337.59 109.072 337.644C108.817 337.698 108.553 337.701 108.297 337.653C108.041 337.605 107.796 337.507 107.578 337.364C107.137 337.076 106.827 336.625 106.719 336.109C106.61 335.593 106.71 335.055 106.998 334.613C109.81 330.274 113.319 326.434 117.417 323.184C117.764 322.903 118.198 322.75 118.645 322.751ZM98.005 334.056C98.487 334.056 98.968 334.23 99.349 334.579C102.925 337.879 106.84 340.73 110.98 343.041C111.44 343.298 111.779 343.726 111.922 344.232C112.066 344.739 112.003 345.281 111.747 345.741C111.49 346.201 111.062 346.539 110.556 346.683C110.049 346.827 109.507 346.764 109.047 346.507C104.634 344.039 100.469 341.005 96.662 337.497C96.274 337.14 96.0437 336.644 96.0218 336.117C95.9998 335.59 96.188 335.076 96.545 334.688C96.944 334.272 97.475 334.056 98.005 334.056ZM164.959 338.627C165.398 338.627 165.838 338.769 166.203 339.068C167.057 339.758 167.19 341.005 166.51 341.861C163.316 345.834 159.027 348.934 153.76 351.071C153.519 351.169 153.26 351.218 153 351.216C152.739 351.213 152.482 351.16 152.242 351.058C152.003 350.956 151.785 350.807 151.603 350.621C151.421 350.435 151.277 350.215 151.18 349.973C151.082 349.732 151.033 349.473 151.035 349.213C151.037 348.952 151.09 348.694 151.192 348.454C151.294 348.214 151.442 347.996 151.628 347.814C151.813 347.631 152.033 347.486 152.275 347.388C156.904 345.51 160.653 342.817 163.416 339.376C163.6 339.143 163.834 338.954 164.101 338.825C164.369 338.695 164.662 338.627 164.959 338.627ZM102.643 347.264C102.817 347.264 102.991 347.289 103.165 347.33C103.417 347.399 103.654 347.517 103.86 347.677C104.067 347.837 104.24 348.036 104.369 348.263C104.499 348.49 104.582 348.74 104.615 349C104.647 349.259 104.628 349.522 104.559 349.774C103.356 354.188 102.709 358.975 102.643 363.996C102.635 364.518 102.423 365.016 102.052 365.382C101.682 365.749 101.182 365.956 100.66 365.957H100.635C100.374 365.954 100.117 365.899 99.8775 365.796C99.638 365.693 99.4212 365.544 99.2393 365.358C99.0575 365.171 98.9142 364.95 98.8178 364.708C98.7213 364.466 98.6735 364.207 98.677 363.946C98.752 358.585 99.441 353.464 100.735 348.727C100.848 348.308 101.097 347.938 101.442 347.673C101.786 347.409 102.209 347.265 102.643 347.264ZM123.771 348.369C123.937 348.369 124.111 348.394 124.277 348.436C129.022 349.682 133.809 350.256 138.446 350.131C138.972 350.119 139.482 350.316 139.864 350.679C140.245 351.042 140.466 351.542 140.479 352.068C140.486 352.329 140.442 352.589 140.349 352.833C140.256 353.076 140.115 353.299 139.936 353.488C139.756 353.677 139.541 353.829 139.302 353.935C139.064 354.041 138.807 354.098 138.546 354.104C133.535 354.237 128.367 353.622 123.265 352.276C122.756 352.142 122.321 351.811 122.055 351.356C121.789 350.901 121.714 350.359 121.847 349.849C121.961 349.426 122.211 349.051 122.559 348.784C122.906 348.516 123.332 348.371 123.771 348.369ZM101.921 376.821C102.867 376.821 103.704 377.503 103.87 378.467C104.667 383.005 105.861 387.785 107.421 392.655C107.581 393.158 107.535 393.703 107.294 394.172C107.053 394.641 106.637 394.995 106.135 395.157C105.633 395.317 105.088 395.271 104.62 395.03C104.152 394.788 103.799 394.371 103.638 393.869C102.02 388.824 100.784 383.878 99.963 379.157C99.8714 378.639 99.9895 378.105 100.291 377.673C100.593 377.241 101.054 376.947 101.573 376.854C101.689 376.829 101.805 376.821 101.921 376.821ZM110.822 405.19C111.207 405.191 111.584 405.304 111.907 405.515C112.23 405.726 112.484 406.027 112.639 406.379C114.514 410.676 116.679 415.139 119.084 419.636C119.599 420.609 119.234 421.806 118.271 422.329C117.807 422.577 117.263 422.63 116.759 422.477C116.256 422.324 115.833 421.979 115.584 421.515C113.136 416.918 110.922 412.372 109.005 407.975C108.794 407.493 108.783 406.946 108.974 406.455C109.165 405.964 109.544 405.569 110.026 405.356C110.283 405.248 110.557 405.19 110.822 405.19ZM125.024 431.331C125.654 431.331 126.268 431.631 126.658 432.187C129.444 436.191 132.484 440.011 135.758 443.625C135.934 443.818 136.07 444.044 136.158 444.29C136.247 444.536 136.286 444.796 136.274 445.057C136.262 445.318 136.198 445.574 136.087 445.81C135.976 446.047 135.819 446.259 135.626 446.434C135.433 446.61 135.208 446.747 134.963 446.835C134.717 446.924 134.457 446.963 134.196 446.951C133.936 446.938 133.68 446.875 133.444 446.763C133.209 446.652 132.997 446.495 132.822 446.301C129.43 442.559 126.282 438.603 123.398 434.457C123.192 434.159 123.07 433.811 123.048 433.449C123.025 433.087 123.101 432.726 123.268 432.404C123.436 432.083 123.688 431.813 123.997 431.624C124.306 431.435 124.661 431.334 125.024 431.331ZM144.933 453.341C145.389 453.341 145.854 453.499 146.227 453.824C149.935 457.009 153.818 459.984 157.858 462.734C158.074 462.881 158.258 463.069 158.401 463.287C158.544 463.505 158.643 463.75 158.692 464.006C158.74 464.262 158.737 464.526 158.684 464.781C158.631 465.037 158.527 465.279 158.38 465.494C158.234 465.71 158.047 465.895 157.83 466.039C157.612 466.182 157.368 466.281 157.112 466.33C156.856 466.378 156.593 466.376 156.338 466.322C156.083 466.268 155.841 466.165 155.626 466.017C151.461 463.184 147.459 460.117 143.639 456.833C143.441 456.663 143.279 456.456 143.161 456.223C143.043 455.99 142.973 455.736 142.954 455.475C142.934 455.215 142.967 454.953 143.049 454.706C143.131 454.458 143.261 454.229 143.432 454.031C143.822 453.574 144.377 453.341 144.933 453.341ZM474.97 468.885C475.767 468.885 476.513 469.367 476.82 470.148C477.011 470.639 477 471.185 476.79 471.667C476.581 472.15 476.189 472.53 475.7 472.725C471.693 474.296 466.915 475.942 461.482 477.621C460.979 477.776 460.435 477.724 459.97 477.478C459.505 477.232 459.156 476.811 459.001 476.308C458.846 475.805 458.897 475.261 459.143 474.795C459.389 474.329 459.809 473.979 460.312 473.822C465.646 472.168 470.341 470.556 474.248 469.018C474.481 468.926 474.73 468.885 474.97 468.885ZM169.463 470.123C169.778 470.123 170.11 470.198 170.409 470.364C174.72 472.7 179.132 474.844 183.632 476.79C183.871 476.894 184.088 477.044 184.269 477.231C184.45 477.418 184.592 477.639 184.688 477.882C184.783 478.124 184.83 478.383 184.825 478.644C184.821 478.905 184.764 479.162 184.66 479.4C184.557 479.64 184.409 479.856 184.222 480.038C184.035 480.219 183.814 480.362 183.572 480.457C183.33 480.553 183.072 480.6 182.812 480.595C182.551 480.591 182.294 480.535 182.056 480.43C177.451 478.434 172.934 476.241 168.517 473.856C168.13 473.645 167.824 473.311 167.647 472.907C167.471 472.502 167.434 472.051 167.542 471.623C167.651 471.195 167.898 470.816 168.246 470.544C168.594 470.273 169.022 470.125 169.463 470.123ZM446.575 477.829C447.454 477.829 448.259 478.419 448.491 479.308C448.559 479.56 448.576 479.823 448.542 480.082C448.508 480.341 448.423 480.59 448.291 480.816C448.16 481.041 447.986 481.239 447.778 481.396C447.57 481.554 447.333 481.67 447.081 481.735C442.264 483.012 437.427 484.212 432.572 485.334C432.318 485.393 432.055 485.401 431.798 485.359C431.541 485.316 431.294 485.222 431.073 485.084C430.852 484.946 430.66 484.766 430.509 484.554C430.358 484.341 430.25 484.101 430.191 483.847C430.131 483.593 430.123 483.33 430.165 483.072C430.207 482.814 430.3 482.568 430.438 482.346C430.576 482.124 430.757 481.932 430.969 481.78C431.181 481.629 431.422 481.52 431.676 481.461C436.492 480.343 441.29 479.152 446.069 477.887C446.235 477.847 446.405 477.828 446.575 477.829ZM196.714 482.01C196.929 482.01 197.145 482.043 197.361 482.118C202.01 483.718 206.711 485.165 211.455 486.457C211.962 486.596 212.394 486.93 212.655 487.387C212.917 487.843 212.986 488.385 212.849 488.892C212.781 489.144 212.664 489.379 212.505 489.585C212.346 489.792 212.148 489.964 211.923 490.094C211.697 490.224 211.448 490.307 211.19 490.341C210.932 490.374 210.669 490.356 210.418 490.288C205.587 488.976 200.801 487.504 196.067 485.875C195.623 485.722 195.248 485.416 195.008 485.012C194.768 484.608 194.679 484.133 194.756 483.669C194.834 483.206 195.073 482.785 195.431 482.481C195.79 482.178 196.244 482.011 196.714 482.01ZM417.582 484.595C418.503 484.595 419.332 485.243 419.523 486.182C419.628 486.698 419.525 487.234 419.235 487.673C418.946 488.112 418.495 488.419 417.98 488.526C413.104 489.528 408.214 490.467 403.314 491.344C402.796 491.436 402.262 491.319 401.83 491.018C401.397 490.718 401.102 490.258 401.007 489.74C400.915 489.222 401.032 488.688 401.332 488.255C401.632 487.822 402.09 487.526 402.608 487.429C407.494 486.548 412.397 485.609 417.184 484.628C417.316 484.603 417.449 484.595 417.582 484.595ZM388.282 489.856C388.756 489.856 389.215 490.027 389.574 490.336C389.934 490.646 390.17 491.074 390.24 491.543C390.321 492.064 390.191 492.596 389.88 493.022C389.569 493.447 389.102 493.732 388.581 493.813C383.67 494.577 378.701 495.292 373.798 495.932C373.539 495.968 373.276 495.951 373.024 495.884C372.772 495.817 372.535 495.7 372.329 495.541C372.122 495.382 371.949 495.183 371.819 494.956C371.69 494.73 371.607 494.479 371.575 494.22C371.506 493.698 371.648 493.17 371.968 492.753C372.289 492.335 372.762 492.061 373.284 491.992C378.153 491.352 383.097 490.646 387.975 489.889C388.083 489.864 388.183 489.856 388.282 489.856ZM225.4 489.864C225.532 489.864 225.673 489.881 225.806 489.906C230.501 490.895 235.396 491.793 240.34 492.582C240.859 492.666 241.325 492.951 241.634 493.377C241.943 493.802 242.072 494.333 241.991 494.852C241.951 495.11 241.86 495.358 241.724 495.581C241.588 495.804 241.409 495.997 241.198 496.151C240.987 496.305 240.747 496.415 240.493 496.476C240.239 496.537 239.976 496.547 239.718 496.506C234.785 495.73 229.872 494.826 224.985 493.796C224.47 493.687 224.019 493.378 223.732 492.937C223.444 492.497 223.343 491.96 223.45 491.444C223.547 490.999 223.793 490.599 224.148 490.312C224.502 490.025 224.944 489.867 225.4 489.864ZM358.767 493.73C359.77 493.73 360.625 494.486 360.741 495.508C360.797 496.031 360.643 496.555 360.314 496.965C359.984 497.375 359.505 497.637 358.982 497.694C354.022 498.226 349.019 498.7 344.117 499.099C343.592 499.141 343.072 498.973 342.671 498.632C342.269 498.291 342.02 497.804 341.977 497.279C341.955 497.019 341.985 496.757 342.064 496.509C342.144 496.26 342.271 496.029 342.44 495.83C342.609 495.631 342.815 495.467 343.047 495.348C343.279 495.228 343.533 495.156 343.793 495.134C348.72 494.728 353.643 494.263 358.559 493.738C358.626 493.738 358.7 493.73 358.767 493.73ZM254.791 494.544C254.865 494.544 254.94 494.544 255.015 494.552C259.801 495.093 264.762 495.542 269.756 495.899C270.016 495.918 270.271 495.987 270.504 496.105C270.737 496.222 270.945 496.384 271.116 496.582C271.286 496.779 271.416 497.009 271.497 497.257C271.578 497.505 271.609 497.767 271.589 498.027C271.571 498.288 271.502 498.542 271.385 498.776C271.269 499.009 271.107 499.217 270.91 499.388C270.712 499.559 270.483 499.689 270.235 499.771C269.987 499.852 269.725 499.884 269.465 499.864C264.491 499.505 259.524 499.051 254.567 498.501C254.064 498.444 253.602 498.195 253.275 497.808C252.949 497.421 252.783 496.923 252.812 496.417C252.841 495.911 253.062 495.436 253.429 495.088C253.797 494.739 254.284 494.545 254.791 494.544ZM329.11 496.157C329.628 496.156 330.127 496.356 330.5 496.717C330.872 497.077 331.089 497.569 331.104 498.087C331.119 498.606 330.931 499.109 330.581 499.491C330.23 499.872 329.744 500.102 329.226 500.13C324.255 500.406 319.28 500.614 314.303 500.753C313.777 500.762 313.268 500.564 312.886 500.202C312.505 499.84 312.281 499.342 312.262 498.816C312.254 498.556 312.298 498.296 312.39 498.052C312.483 497.809 312.622 497.585 312.801 497.396C312.98 497.206 313.194 497.053 313.432 496.946C313.67 496.839 313.926 496.78 314.187 496.772C319.048 496.639 324.033 496.431 329.002 496.148C329.037 496.156 329.074 496.159 329.11 496.157ZM284.472 496.689H284.547C289.383 496.863 294.369 496.955 299.362 496.963C300.457 496.963 301.345 497.861 301.345 498.958C301.345 499.219 301.294 499.476 301.194 499.716C301.094 499.957 300.948 500.175 300.764 500.359C300.58 500.543 300.361 500.688 300.12 500.787C299.88 500.886 299.622 500.937 299.362 500.936H299.354C294.37 500.927 289.387 500.833 284.406 500.653C284.146 500.644 283.89 500.584 283.653 500.476C283.416 500.368 283.203 500.214 283.026 500.023C282.848 499.832 282.711 499.609 282.62 499.364C282.529 499.12 282.488 498.861 282.498 498.6C282.515 498.088 282.731 497.603 283.099 497.246C283.467 496.889 283.959 496.69 284.472 496.689ZM627.273 500.936C626.772 500.933 626.29 500.74 625.925 500.396C625.56 500.053 625.338 499.584 625.304 499.084C625.269 498.584 625.425 498.09 625.739 497.699C626.054 497.309 626.504 497.052 627 496.979C631.892 496.286 636.763 495.455 641.608 494.486C641.864 494.436 642.127 494.436 642.382 494.487C642.638 494.539 642.881 494.64 643.097 494.785C643.313 494.93 643.499 495.116 643.644 495.333C643.788 495.55 643.889 495.793 643.939 496.048C644.041 496.565 643.934 497.101 643.642 497.539C643.349 497.976 642.895 498.281 642.379 498.384C637.459 499.367 632.514 500.212 627.547 500.919C627.456 500.93 627.365 500.935 627.273 500.936ZM656.548 495.151C656.064 495.15 655.597 494.971 655.236 494.65C654.874 494.328 654.641 493.886 654.582 493.406C654.523 492.925 654.642 492.44 654.915 492.041C655.188 491.641 655.598 491.355 656.067 491.236C660.853 490.028 665.607 488.7 670.327 487.254C670.83 487.101 671.373 487.154 671.838 487.4C672.303 487.646 672.651 488.066 672.807 488.568C672.962 489.072 672.911 489.616 672.665 490.082C672.42 490.547 672 490.897 671.497 491.053C666.712 492.522 661.891 493.869 657.038 495.093C656.877 495.128 656.713 495.148 656.548 495.151ZM685.027 486.365C684.561 486.365 684.109 486.201 683.752 485.901C683.395 485.601 683.155 485.185 683.074 484.726C682.993 484.267 683.076 483.794 683.308 483.39C683.541 482.986 683.908 482.677 684.346 482.516C688.972 480.812 693.545 478.969 698.059 476.989C698.298 476.885 698.555 476.828 698.815 476.823C699.076 476.817 699.335 476.864 699.577 476.958C699.82 477.053 700.042 477.195 700.23 477.376C700.417 477.557 700.568 477.773 700.672 478.011C700.883 478.494 700.895 479.041 700.703 479.532C700.512 480.023 700.134 480.418 699.652 480.63C695.066 482.645 690.418 484.516 685.715 486.24C685.496 486.327 685.262 486.369 685.027 486.365ZM712.294 474.371C711.581 474.371 710.884 473.98 710.535 473.298C710.415 473.067 710.341 472.814 710.319 472.555C710.296 472.295 710.325 472.033 710.404 471.785C710.483 471.536 710.61 471.306 710.777 471.106C710.945 470.907 711.151 470.742 711.382 470.622C715.744 468.35 720.022 465.918 724.206 463.332C724.427 463.194 724.674 463.101 724.932 463.059C725.189 463.017 725.453 463.027 725.706 463.087C725.96 463.147 726.2 463.257 726.411 463.411C726.622 463.565 726.8 463.758 726.936 463.981C727.516 464.912 727.226 466.142 726.297 466.715C722.03 469.356 717.666 471.838 713.215 474.155C712.928 474.294 712.613 474.368 712.294 474.371ZM737.571 458.644C737.153 458.642 736.747 458.508 736.409 458.262C736.072 458.016 735.82 457.67 735.69 457.273C735.559 456.877 735.557 456.449 735.683 456.051C735.81 455.652 736.058 455.304 736.393 455.054C740.33 452.131 744.128 449.024 747.774 445.744C748.166 445.393 748.681 445.212 749.207 445.24C749.733 445.268 750.226 445.503 750.578 445.894C751.308 446.708 751.242 447.963 750.429 448.703C746.692 452.067 742.797 455.251 738.757 458.245C738.392 458.52 737.977 458.644 737.571 458.644ZM759.62 438.704C759.129 438.706 758.655 438.522 758.293 438.189C757.902 437.835 757.667 437.341 757.641 436.814C757.614 436.287 757.798 435.771 758.152 435.379C761.422 431.747 764.485 427.934 767.327 423.958C767.479 423.746 767.671 423.566 767.892 423.427C768.114 423.289 768.36 423.196 768.618 423.153C768.875 423.11 769.139 423.118 769.393 423.177C769.647 423.236 769.888 423.345 770.1 423.496C770.312 423.648 770.493 423.84 770.631 424.062C770.769 424.283 770.862 424.53 770.905 424.787C770.948 425.045 770.94 425.308 770.881 425.562C770.822 425.817 770.714 426.057 770.562 426.269C767.634 430.37 764.476 434.302 761.105 438.047C760.916 438.253 760.686 438.417 760.431 438.53C760.175 438.643 759.899 438.702 759.62 438.704ZM776.825 414.508C776.501 414.508 776.178 414.433 775.879 414.267C775.65 414.142 775.447 413.972 775.284 413.769C775.12 413.565 774.998 413.331 774.924 413.08C774.851 412.829 774.828 412.566 774.857 412.306C774.885 412.046 774.965 411.794 775.091 411.565C777.425 407.281 779.497 402.859 781.296 398.324C781.392 398.082 781.535 397.861 781.716 397.674C781.898 397.486 782.115 397.337 782.354 397.233C782.593 397.13 782.851 397.075 783.111 397.07C783.372 397.066 783.631 397.114 783.873 397.21C784.116 397.306 784.337 397.449 784.524 397.63C784.711 397.812 784.861 398.028 784.965 398.268C785.068 398.507 785.123 398.765 785.127 399.025C785.131 399.286 785.084 399.545 784.988 399.787C783.131 404.474 780.99 409.044 778.575 413.469C778.402 413.783 778.149 414.044 777.841 414.227C777.534 414.409 777.183 414.507 776.825 414.508ZM787.775 386.928C787.471 386.928 787.172 386.858 786.899 386.723C786.627 386.589 786.389 386.394 786.204 386.153C786.019 385.912 785.892 385.632 785.832 385.334C785.772 385.037 785.781 384.729 785.859 384.435C787.102 379.714 788.082 374.927 788.795 370.097C788.832 369.839 788.92 369.59 789.054 369.366C789.188 369.142 789.365 368.947 789.575 368.791C789.785 368.636 790.023 368.524 790.277 368.461C790.531 368.398 790.794 368.387 791.052 368.426C791.574 368.504 792.044 368.786 792.358 369.21C792.672 369.634 792.805 370.165 792.727 370.687C791.993 375.666 790.982 380.599 789.7 385.465C789.581 385.885 789.329 386.254 788.982 386.518C788.635 386.782 788.211 386.926 787.775 386.928ZM792.354 357.554H792.213C791.953 357.536 791.699 357.467 791.465 357.351C791.232 357.235 791.023 357.073 790.852 356.876C790.681 356.679 790.551 356.451 790.468 356.203C790.385 355.956 790.352 355.695 790.371 355.434C790.637 351.561 790.77 347.729 790.77 344.03C790.77 342.916 790.761 341.802 790.736 340.722C790.725 340.196 790.923 339.687 791.287 339.306C791.651 338.926 792.152 338.706 792.678 338.694C793.204 338.684 793.713 338.883 794.093 339.248C794.472 339.612 794.692 340.113 794.702 340.639C794.727 341.753 794.735 342.9 794.735 344.038C794.735 347.829 794.594 351.752 794.328 355.717C794.29 356.216 794.066 356.681 793.7 357.021C793.334 357.362 792.854 357.552 792.354 357.554ZM791.607 327.805C791.126 327.803 790.662 327.627 790.3 327.309C789.939 326.991 789.705 326.553 789.641 326.076C788.986 321.097 788.032 316.268 786.804 311.73C786.667 311.223 786.736 310.681 786.997 310.224C787.259 309.768 787.69 309.433 788.198 309.294C788.45 309.227 788.713 309.21 788.971 309.244C789.23 309.278 789.479 309.363 789.705 309.493C789.93 309.624 790.128 309.797 790.287 310.004C790.445 310.211 790.562 310.447 790.629 310.699C791.898 315.412 792.885 320.407 793.565 325.561C793.602 325.841 793.579 326.125 793.498 326.394C793.416 326.664 793.278 326.914 793.093 327.126C792.908 327.338 792.679 327.509 792.423 327.626C792.167 327.743 791.889 327.804 791.607 327.805ZM783.752 299.178C782.997 299.178 782.275 298.738 781.943 298.006C779.911 293.493 777.513 289.246 774.809 285.389C774.506 284.958 774.387 284.425 774.477 283.906C774.567 283.387 774.86 282.925 775.29 282.621C775.503 282.471 775.743 282.365 775.998 282.307C776.252 282.25 776.515 282.244 776.772 282.289C777.028 282.334 777.274 282.429 777.493 282.568C777.713 282.708 777.904 282.89 778.053 283.103C780.898 287.159 783.42 291.623 785.56 296.369C785.776 296.85 785.793 297.396 785.606 297.889C785.42 298.382 785.045 298.78 784.565 298.996C784.311 299.116 784.033 299.178 783.752 299.178ZM718.665 296.868C718.161 296.868 717.676 296.674 717.309 296.328C716.942 295.982 716.721 295.51 716.691 295.006C716.674 294.746 716.709 294.484 716.794 294.237C716.878 293.99 717.01 293.762 717.183 293.566C717.355 293.37 717.565 293.21 717.799 293.095C718.034 292.98 718.288 292.912 718.549 292.895C723.145 292.612 727.948 291.548 732.436 289.819C732.68 289.726 732.939 289.681 733.2 289.689C733.461 289.696 733.718 289.754 733.956 289.861C734.194 289.967 734.409 290.12 734.588 290.31C734.767 290.499 734.906 290.723 734.999 290.966C735.188 291.459 735.173 292.006 734.958 292.488C734.744 292.97 734.346 293.347 733.854 293.535C728.993 295.405 723.783 296.552 718.789 296.868C718.748 296.859 718.698 296.868 718.665 296.868ZM704.04 294.856C703.791 294.856 703.542 294.806 703.302 294.715C697.122 292.213 693.405 287.833 692.849 282.38C692.742 281.291 693.53 280.31 694.616 280.202C694.876 280.176 695.138 280.202 695.388 280.277C695.637 280.352 695.87 280.476 696.072 280.641C696.274 280.806 696.441 281.01 696.564 281.24C696.688 281.47 696.764 281.722 696.79 281.981C697.304 287.001 701.419 289.678 704.778 291.041C705.206 291.211 705.562 291.525 705.784 291.929C706.005 292.334 706.078 292.802 705.991 293.255C705.903 293.707 705.66 294.115 705.304 294.408C704.948 294.7 704.501 294.859 704.04 294.856ZM746.032 286.336C745.732 286.338 745.435 286.27 745.164 286.139C744.894 286.008 744.657 285.817 744.472 285.58C744.146 285.166 743.998 284.64 744.058 284.117C744.119 283.594 744.384 283.116 744.796 282.787C748.528 279.834 751.755 276.295 754.352 272.306C754.494 272.087 754.677 271.899 754.892 271.751C755.107 271.603 755.349 271.499 755.604 271.445C755.859 271.391 756.122 271.387 756.379 271.435C756.635 271.483 756.88 271.582 757.098 271.724C757.54 272.012 757.849 272.464 757.958 272.98C758.067 273.495 757.967 274.033 757.679 274.475C754.867 278.814 751.358 282.654 747.26 285.904C746.912 286.185 746.479 286.338 746.032 286.336ZM766.671 275.032C766.19 275.032 765.709 274.858 765.327 274.508C761.796 271.241 757.893 268.401 753.697 266.047C753.237 265.791 752.898 265.363 752.755 264.856C752.611 264.35 752.674 263.808 752.93 263.348C753.187 262.888 753.615 262.549 754.122 262.406C754.628 262.262 755.17 262.325 755.63 262.581C760.043 265.049 764.207 268.083 768.015 271.591C768.82 272.331 768.878 273.594 768.131 274.4C767.943 274.599 767.717 274.757 767.466 274.866C767.215 274.975 766.944 275.031 766.671 275.032ZM699.718 270.46C699.278 270.46 698.839 270.319 698.474 270.02C698.065 269.69 697.802 269.21 697.745 268.687C697.688 268.164 697.839 267.639 698.167 267.227C701.361 263.254 705.649 260.154 710.917 258.017C711.158 257.92 711.417 257.871 711.677 257.873C711.938 257.875 712.195 257.929 712.435 258.031C712.674 258.133 712.892 258.281 713.074 258.467C713.256 258.653 713.4 258.874 713.497 259.115C713.595 259.357 713.644 259.616 713.642 259.876C713.64 260.137 713.587 260.395 713.485 260.635C713.383 260.875 713.235 261.092 713.049 261.275C712.864 261.458 712.644 261.603 712.402 261.7C707.773 263.578 704.023 266.271 701.261 269.712C700.871 270.203 700.299 270.46 699.718 270.46ZM762.034 261.824C761.86 261.824 761.686 261.799 761.511 261.758C761.259 261.69 761.023 261.572 760.816 261.412C760.609 261.252 760.437 261.053 760.307 260.826C760.178 260.599 760.094 260.348 760.062 260.089C760.03 259.83 760.049 259.566 760.118 259.314C761.321 254.9 761.968 250.113 762.034 245.092C762.042 244.571 762.254 244.073 762.625 243.706C762.995 243.34 763.495 243.133 764.017 243.131H764.041C764.302 243.135 764.559 243.189 764.799 243.292C765.038 243.395 765.255 243.544 765.437 243.731C765.619 243.918 765.762 244.139 765.858 244.381C765.955 244.623 766.003 244.882 765.999 245.142C765.925 250.503 765.236 255.624 763.942 260.361C763.828 260.781 763.58 261.151 763.235 261.415C762.89 261.679 762.468 261.823 762.034 261.824ZM740.905 260.719C740.739 260.719 740.565 260.694 740.399 260.652C735.654 259.405 730.868 258.832 726.231 258.957C725.705 258.97 725.195 258.773 724.813 258.41C724.432 258.047 724.211 257.547 724.198 257.02C724.191 256.76 724.235 256.5 724.328 256.256C724.421 256.013 724.562 255.79 724.741 255.601C724.921 255.411 725.136 255.26 725.375 255.154C725.613 255.048 725.87 254.99 726.131 254.984C731.141 254.851 736.31 255.466 741.411 256.812C741.92 256.947 742.355 257.278 742.621 257.733C742.887 258.188 742.962 258.729 742.83 259.239C742.716 259.663 742.466 260.038 742.118 260.305C741.77 260.572 741.344 260.718 740.905 260.719ZM762.756 232.267C762.289 232.266 761.838 232.101 761.481 231.8C761.124 231.499 760.885 231.081 760.806 230.621C760.01 226.083 758.815 221.303 757.256 216.432C757.096 215.93 757.142 215.385 757.383 214.916C757.624 214.447 758.04 214.093 758.542 213.93C759.044 213.771 759.589 213.817 760.056 214.059C760.524 214.301 760.877 214.718 761.038 215.219C762.656 220.264 763.892 225.21 764.713 229.931C764.764 230.217 764.751 230.511 764.677 230.792C764.602 231.073 764.466 231.333 764.28 231.556C764.093 231.779 763.86 231.958 763.597 232.081C763.333 232.204 763.047 232.267 762.756 232.267ZM753.855 203.898C753.469 203.898 753.092 203.785 752.77 203.574C752.447 203.363 752.193 203.063 752.038 202.709C750.066 198.207 747.915 193.784 745.592 189.452C745.345 188.987 745.292 188.443 745.445 187.939C745.597 187.434 745.942 187.011 746.405 186.759C746.87 186.512 747.413 186.459 747.917 186.611C748.421 186.764 748.844 187.11 749.093 187.573C751.54 192.17 753.755 196.716 755.671 201.113C755.883 201.596 755.894 202.143 755.703 202.634C755.512 203.125 755.133 203.52 754.651 203.732C754.399 203.84 754.129 203.896 753.855 203.898ZM739.653 177.757C739.332 177.757 739.015 177.679 738.73 177.53C738.445 177.381 738.201 177.165 738.018 176.9C735.232 172.897 732.193 169.077 728.918 165.463C728.563 165.073 728.378 164.558 728.403 164.031C728.428 163.505 728.661 163.009 729.051 162.654C729.244 162.478 729.469 162.342 729.714 162.254C729.96 162.165 730.22 162.126 730.481 162.138C730.741 162.15 730.997 162.214 731.233 162.326C731.468 162.437 731.68 162.594 731.855 162.787C735.248 166.527 738.417 170.517 741.279 174.631C741.485 174.93 741.606 175.278 741.629 175.64C741.651 176.002 741.575 176.363 741.408 176.684C741.24 177.006 740.989 177.275 740.679 177.465C740.37 177.654 740.015 177.755 739.653 177.757ZM719.743 155.746C719.287 155.746 718.823 155.588 718.449 155.264C714.741 152.08 710.859 149.105 706.819 146.354C706.603 146.208 706.418 146.02 706.275 145.802C706.132 145.584 706.034 145.339 705.985 145.083C705.936 144.827 705.939 144.563 705.992 144.308C706.046 144.052 706.149 143.81 706.296 143.594C706.442 143.378 706.629 143.193 706.847 143.05C707.065 142.907 707.308 142.808 707.565 142.759C707.821 142.71 708.084 142.713 708.339 142.767C708.594 142.82 708.836 142.924 709.051 143.071C713.216 145.905 717.218 148.971 721.038 152.255C721.867 152.97 721.967 154.225 721.245 155.057C720.855 155.514 720.299 155.746 719.743 155.746ZM389.706 140.203C389.307 140.203 388.917 140.082 388.587 139.857C388.257 139.632 388.003 139.312 387.857 138.94C387.666 138.45 387.676 137.904 387.886 137.422C388.096 136.939 388.487 136.559 388.976 136.363C392.983 134.792 397.761 133.146 403.195 131.467C403.698 131.313 404.242 131.364 404.707 131.611C405.172 131.857 405.52 132.278 405.675 132.78C405.83 133.284 405.779 133.828 405.534 134.294C405.288 134.76 404.868 135.11 404.365 135.266C399.031 136.92 394.335 138.532 390.428 140.07C390.198 140.159 389.953 140.204 389.706 140.203ZM695.214 138.964C694.898 138.964 694.567 138.89 694.268 138.723C689.957 136.389 685.545 134.245 681.045 132.298C680.806 132.195 680.589 132.045 680.408 131.858C680.227 131.671 680.084 131.45 679.988 131.207C679.893 130.965 679.846 130.706 679.851 130.445C679.856 130.184 679.912 129.927 680.016 129.688C680.119 129.449 680.268 129.232 680.454 129.051C680.641 128.869 680.862 128.727 681.104 128.631C681.346 128.535 681.605 128.488 681.865 128.493C682.126 128.498 682.382 128.554 682.621 128.658C687.226 130.654 691.743 132.848 696.159 135.232C696.546 135.444 696.851 135.778 697.027 136.182C697.203 136.586 697.24 137.037 697.132 137.464C697.024 137.892 696.777 138.271 696.43 138.542C696.082 138.814 695.655 138.962 695.214 138.964ZM418.102 131.259C417.223 131.259 416.418 130.669 416.186 129.78C416.118 129.528 416.101 129.266 416.135 129.007C416.169 128.748 416.255 128.499 416.386 128.273C416.517 128.048 416.691 127.85 416.899 127.692C417.107 127.534 417.344 127.419 417.596 127.353C422.413 126.076 427.25 124.876 432.105 123.753C432.359 123.695 432.622 123.687 432.879 123.73C433.137 123.773 433.383 123.866 433.604 124.004C433.825 124.142 434.017 124.323 434.168 124.535C434.319 124.747 434.427 124.987 434.486 125.241C434.546 125.496 434.554 125.759 434.512 126.017C434.469 126.274 434.376 126.521 434.238 126.742C434.101 126.964 433.92 127.156 433.708 127.308C433.496 127.46 433.255 127.569 433.001 127.627C428.185 128.745 423.387 129.937 418.608 131.201C418.442 131.241 418.272 131.261 418.102 131.259ZM667.963 127.078C667.747 127.078 667.531 127.045 667.316 126.97C662.667 125.371 657.966 123.923 653.222 122.631C652.715 122.493 652.283 122.158 652.022 121.702C651.76 121.246 651.691 120.704 651.828 120.196C651.896 119.945 652.013 119.71 652.172 119.503C652.331 119.297 652.529 119.124 652.754 118.995C652.98 118.865 653.229 118.781 653.487 118.748C653.745 118.715 654.008 118.732 654.259 118.8C659.09 120.113 663.876 121.585 668.61 123.213C669.053 123.368 669.427 123.674 669.666 124.078C669.905 124.481 669.993 124.956 669.916 125.419C669.838 125.881 669.6 126.301 669.243 126.605C668.885 126.909 668.432 127.077 667.963 127.078ZM447.095 124.493C446.638 124.493 446.196 124.334 445.842 124.045C445.488 123.756 445.245 123.354 445.154 122.906C445.049 122.391 445.152 121.855 445.441 121.416C445.731 120.976 446.182 120.67 446.697 120.562C451.574 119.561 456.463 118.622 461.363 117.744C461.881 117.653 462.415 117.77 462.847 118.071C463.279 118.371 463.575 118.831 463.669 119.348C463.762 119.867 463.645 120.401 463.345 120.834C463.045 121.267 462.586 121.564 462.068 121.659C457.182 122.54 452.279 123.479 447.493 124.46C447.362 124.484 447.228 124.495 447.095 124.493ZM476.395 119.232C475.921 119.233 475.462 119.062 475.102 118.752C474.743 118.442 474.507 118.014 474.437 117.544C474.357 117.024 474.486 116.492 474.797 116.067C475.108 115.641 475.575 115.357 476.096 115.275C481.007 114.511 485.976 113.796 490.878 113.156C491.137 113.121 491.4 113.137 491.652 113.205C491.904 113.272 492.141 113.388 492.348 113.548C492.555 113.707 492.728 113.906 492.857 114.132C492.987 114.359 493.07 114.609 493.102 114.868C493.171 115.39 493.029 115.918 492.709 116.336C492.388 116.754 491.915 117.027 491.393 117.096C486.523 117.736 481.579 118.442 476.701 119.199C476.601 119.222 476.498 119.233 476.395 119.232ZM639.277 119.223C639.144 119.223 639.003 119.207 638.87 119.182C634.048 118.172 629.202 117.279 624.337 116.505C623.83 116.408 623.381 116.118 623.084 115.696C622.788 115.273 622.667 114.752 622.748 114.243C622.829 113.733 623.104 113.275 623.517 112.965C623.93 112.655 624.447 112.518 624.959 112.582C629.969 113.372 634.93 114.286 639.692 115.292C640.207 115.402 640.657 115.711 640.945 116.151C641.232 116.592 641.334 117.129 641.226 117.644C641.129 118.09 640.883 118.489 640.529 118.776C640.174 119.063 639.733 119.221 639.277 119.223ZM505.91 115.358C505.42 115.357 504.948 115.175 504.583 114.847C504.219 114.518 503.989 114.068 503.936 113.58C503.88 113.057 504.033 112.534 504.363 112.124C504.692 111.714 505.171 111.452 505.694 111.394C510.643 110.863 515.599 110.395 520.56 109.989C521.086 109.947 521.607 110.114 522.009 110.456C522.411 110.797 522.661 111.285 522.704 111.81C522.747 112.336 522.579 112.857 522.238 113.26C521.896 113.662 521.409 113.912 520.883 113.954C516.014 114.353 511.045 114.826 506.117 115.35C506.051 115.35 505.976 115.358 505.91 115.358ZM609.886 114.544C609.811 114.544 609.737 114.544 609.662 114.535C604.875 113.995 599.915 113.546 594.921 113.189C594.661 113.171 594.406 113.101 594.173 112.984C593.94 112.867 593.732 112.705 593.561 112.507C593.391 112.309 593.261 112.08 593.18 111.832C593.099 111.583 593.068 111.322 593.088 111.061C593.106 110.801 593.175 110.547 593.291 110.313C593.408 110.079 593.569 109.871 593.767 109.7C593.964 109.53 594.193 109.4 594.441 109.318C594.689 109.236 594.951 109.204 595.211 109.224C600.255 109.59 605.265 110.047 610.11 110.587C610.617 110.641 611.083 110.887 611.414 111.275C611.744 111.664 611.912 112.164 611.883 112.673C611.854 113.181 611.631 113.659 611.259 114.008C610.887 114.356 610.396 114.549 609.886 114.544ZM535.566 112.931C535.048 112.933 534.549 112.732 534.176 112.372C533.804 112.011 533.587 111.52 533.572 111.001C533.557 110.483 533.745 109.98 534.095 109.598C534.446 109.216 534.932 108.987 535.45 108.958C540.452 108.684 545.471 108.468 550.374 108.335C550.9 108.327 551.408 108.525 551.79 108.887C552.172 109.249 552.396 109.746 552.415 110.271C552.431 110.798 552.237 111.309 551.876 111.693C551.515 112.076 551.016 112.3 550.49 112.316C545.629 112.449 540.643 112.657 535.674 112.94C535.641 112.931 535.608 112.931 535.566 112.931ZM580.205 112.399H580.13C575.193 112.224 570.254 112.132 565.314 112.125C564.787 112.123 564.282 111.912 563.911 111.538C563.539 111.164 563.331 110.658 563.332 110.13C563.332 109.033 564.219 108.152 565.314 108.152H565.322C570.358 108.16 575.385 108.26 580.271 108.434C580.531 108.444 580.787 108.504 581.024 108.613C581.261 108.721 581.474 108.875 581.651 109.066C581.828 109.256 581.966 109.48 582.057 109.724C582.147 109.969 582.189 110.228 582.179 110.488C582.161 111.001 581.946 111.486 581.578 111.842C581.21 112.199 580.717 112.398 580.205 112.399Z" fill="#E1E4E5"/>
<path d="M387.287 126.029C387.287 91.7972 359.537 64.0469 325.305 64.0469C291.073 64.0469 263.323 91.7972 263.323 126.029C263.323 160.261 291.073 188.011 325.305 188.011C359.537 188.011 387.287 160.261 387.287 126.029Z" fill="#4F27AA"/>
<path d="M345.677 115.195L318.587 142.068L302.333 125.944" stroke="white" stroke-width="10.287" stroke-linecap="round" stroke-linejoin="round"/>
<path d="M234.016 297.008C234.016 273.808 215.208 255 192.008 255C168.808 255 150 273.808 150 297.008C150 320.208 168.808 339.016 192.008 339.016C215.208 339.016 234.016 320.208 234.016 297.008Z" fill="#4F27AA"/>
<path fill-rule="evenodd" clip-rule="evenodd" d="M211.098 314.631V317.44C211.098 318.99 209.856 320.249 208.326 320.249H175.062C173.532 320.249 172.29 318.99 172.29 317.44V314.586C172.29 306.086 181.876 300.563 191.694 300.563C201.512 300.563 211.098 306.089 211.098 314.586M198.654 275.887C202.498 279.731 202.498 285.963 198.654 289.807C194.81 293.651 188.578 293.651 184.734 289.807C180.891 285.963 180.891 279.731 184.734 275.887C188.578 272.043 194.81 272.043 198.654 275.887Z" fill="white"/>
<path d="M759.016 145.008C759.016 121.808 740.208 103 717.008 103C693.808 103 675 121.808 675 145.008C675 168.208 693.808 187.016 717.008 187.016C740.208 187.016 759.016 168.208 759.016 145.008Z" fill="#4F27AA"/>
<path fill-rule="evenodd" clip-rule="evenodd" d="M736.098 162.631V165.44C736.098 166.99 734.856 168.249 733.326 168.249H700.062C698.532 168.249 697.29 166.99 697.29 165.44V162.586C697.29 154.086 706.876 148.563 716.694 148.563C726.512 148.563 736.098 154.089 736.098 162.586M723.654 123.887C727.498 127.731 727.498 133.963 723.654 137.806C719.81 141.65 713.578 141.65 709.734 137.806C705.891 133.963 705.891 127.731 709.734 123.887C713.578 120.043 719.81 120.043 723.654 123.887Z" fill="white"/>
<path fill-rule="evenodd" clip-rule="evenodd" d="M647.889 456.504C647.889 420.882 619.012 392.004 583.39 392.004H527.989C492.367 392.004 463.49 420.882 463.49 456.504C463.49 492.126 492.367 521.003 527.989 521.003H546.523L573.787 542.913C576.657 545.219 580.921 543.176 580.921 539.494V521.003H583.39C619.012 521.003 647.889 492.126 647.889 456.504Z" fill="#4F27AA"/>
<path d="M555.111 433.098H515.132C513.009 433.098 511.288 434.819 511.288 436.942C511.288 439.065 513.009 440.786 515.132 440.786H555.111C557.234 440.786 558.955 439.065 558.955 436.942C558.955 434.819 557.234 433.098 555.111 433.098Z" fill="white"/>
<path d="M580.482 453.09H515.132C513.009 453.09 511.288 454.811 511.288 456.934C511.288 459.057 513.009 460.778 515.132 460.778H580.482C582.605 460.778 584.326 459.057 584.326 456.934C584.326 454.811 582.605 453.09 580.482 453.09Z" fill="white"/>
<path d="M607.391 473.078H515.132C513.009 473.078 511.288 474.799 511.288 476.922C511.288 479.045 513.009 480.766 515.132 480.766H607.391C609.514 480.766 611.235 479.045 611.235 476.922C611.235 474.799 609.514 473.078 607.391 473.078Z" fill="white"/>
<path d="M547.275 326.624C546.057 357.535 480.058 414.426 408.12 384.321C374.663 370.319 379.26 352.724 355.261 326.713C340.957 311.21 319.507 298.488 315.179 277.499C311.44 259.382 316.524 240.764 327.03 229.329C350.658 203.615 394.89 188.64 432.623 236.193C470.356 283.747 550.409 246.901 547.275 326.624Z" fill="url(#paint3_linear_1235_25608)"/>
<path fill-rule="evenodd" clip-rule="evenodd" d="M374.381 242.965C349.419 246.246 330.127 266.636 330.127 291.569C330.127 318.778 353.042 340.843 381.299 340.843H493.879C516.487 340.843 534.817 323.193 534.817 301.424C534.817 279.654 516.487 262.004 493.879 262.004C493.879 229.345 466.389 202.875 432.472 202.875C405.483 202.875 382.62 219.658 374.381 242.965Z" fill="#4F27AA"/>
<path d="M431.906 279.775V246.98M431.913 305.503C432.849 305.503 433.609 306.39 433.603 307.482C433.603 308.574 432.843 309.461 431.906 309.461C430.97 309.461 430.21 308.574 430.21 307.482C430.21 306.39 430.97 305.503 431.913 305.503" stroke="white" stroke-width="15.588" stroke-linecap="round" stroke-linejoin="round"/>
</g>
<defs>
<linearGradient id="paint0_linear_1235_25608" x1="523.53" y1="210.73" x2="501.031" y2="109.632" gradientUnits="userSpaceOnUse">
<stop stop-color="white"/>
<stop offset="1" stop-color="#EEEEEE"/>
</linearGradient>
<linearGradient id="paint1_linear_1235_25608" x1="762.985" y1="286.831" x2="911.295" y2="169.516" gradientUnits="userSpaceOnUse">
<stop stop-color="white"/>
<stop offset="1" stop-color="#EEEEEE"/>
</linearGradient>
<linearGradient id="paint2_linear_1235_25608" x1="352.511" y1="462.108" x2="250.484" y2="367.312" gradientUnits="userSpaceOnUse">
<stop stop-color="white"/>
<stop offset="1" stop-color="#EEEEEE"/>
</linearGradient>
<linearGradient id="paint3_linear_1235_25608" x1="458.103" y1="504.225" x2="393.272" y2="-13.7687" gradientUnits="userSpaceOnUse">
<stop stop-color="white"/>
<stop offset="1" stop-color="#EEEEEE"/>
</linearGradient>
<clipPath id="clip0_1235_25608">
<rect width="900" height="600" fill="white"/>
</clipPath>
</defs>
</svg>
