<svg width="900" height="600" viewBox="0 0 900 600" fill="none" xmlns="http://www.w3.org/2000/svg">
<g clip-path="url(#clip0_1235_25635)">
<path d="M152 468.637H748" stroke="#E1E4E5" stroke-width="3.68"/>
<path d="M190 499.637H407" stroke="#E1E4E5" stroke-width="3.683"/>
<path d="M442 499.672H716" stroke="#E1E4E5" stroke-width="3.618"/>
<path fill-rule="evenodd" clip-rule="evenodd" d="M628.602 214.786V163.633C628.602 135.382 605.699 112.48 577.448 112.48H321.681C293.43 112.48 270.527 135.382 270.527 163.633V291.517" fill="white"/>
<path d="M628.602 214.786V163.633C628.602 135.382 605.699 112.48 577.448 112.48H321.681C293.43 112.48 270.527 135.382 270.527 163.633V291.517" stroke="#E1E4E5" stroke-width="4.13"/>
<path fill-rule="evenodd" clip-rule="evenodd" d="M270.528 188.73H435.882C440.092 188.731 444.236 187.692 447.949 185.707C451.661 183.722 454.825 180.851 457.162 177.349L493.046 123.407C495.387 119.89 498.562 117.007 502.289 115.017C506.015 113.026 510.177 111.99 514.402 112H628.602C656.854 112 679.756 134.902 679.756 163.154V418.921C679.756 447.172 656.854 470.074 628.602 470.074H270.528C242.277 470.074 219.375 447.172 219.375 418.921V239.884C219.375 211.633 242.277 188.73 270.528 188.73Z" fill="white" stroke="#E1E4E5" stroke-width="4.13"/>
<path d="M370.566 292.283C370.566 270.035 352.531 252 330.283 252C308.035 252 290 270.035 290 292.283C290 314.531 308.035 332.566 330.283 332.566C352.531 332.566 370.566 314.531 370.566 292.283Z" fill="#4F27AA"/>
<path d="M370.566 390.283C370.566 368.035 352.531 350 330.283 350C308.035 350 290 368.035 290 390.283C290 412.531 308.035 430.566 330.283 430.566C352.531 430.566 370.566 412.531 370.566 390.283Z" fill="#4F27AA"/>
<path d="M348.451 292.284C348.451 282.251 340.317 274.117 330.284 274.117C320.251 274.117 312.117 282.251 312.117 292.284C312.117 302.318 320.251 310.451 330.284 310.451C340.317 310.451 348.451 302.318 348.451 292.284Z" fill="white"/>
<path d="M348.451 390.284C348.451 380.251 340.317 372.117 330.284 372.117C320.251 372.117 312.117 380.251 312.117 390.284C312.117 400.318 320.251 408.451 330.284 408.451C340.317 408.451 348.451 400.318 348.451 390.284Z" fill="white"/>
<path d="M631.346 275.93H397.422C394.299 275.93 391.768 278.461 391.768 281.583C391.768 284.706 394.299 287.237 397.422 287.237H631.346C634.469 287.237 637 284.706 637 281.583C637 278.461 634.469 275.93 631.346 275.93Z" fill="#E1E4E5"/>
<path d="M631.346 373.93H397.422C394.299 373.93 391.768 376.461 391.768 379.583C391.768 382.706 394.299 385.237 397.422 385.237H631.346C634.469 385.237 637 382.706 637 379.583C637 376.461 634.469 373.93 631.346 373.93Z" fill="#E1E4E5"/>
<path d="M631.346 303.492H397.422C394.299 303.492 391.768 306.023 391.768 309.146C391.768 312.268 394.299 314.799 397.422 314.799H631.346C634.469 314.799 637 312.268 637 309.146C637 306.023 634.469 303.492 631.346 303.492Z" fill="#E1E4E5"/>
<path d="M631.346 401.492H397.422C394.299 401.492 391.768 404.023 391.768 407.146C391.768 410.268 394.299 412.799 397.422 412.799H631.346C634.469 412.799 637 410.268 637 407.146C637 404.023 634.469 401.492 631.346 401.492Z" fill="#E1E4E5"/>
<path fill-rule="evenodd" clip-rule="evenodd" d="M545.667 99H613.033C621.689 99 628.7 106.011 628.7 114.667V240L579.413 214.362L530 240V114.667C530 106.011 537.011 99 545.667 99Z" fill="#4F27AA" stroke="#4F27AA" stroke-width="11.75" stroke-linecap="round" stroke-linejoin="round"/>
<path d="M563.682 153.834H595.015M579.349 138.168V169.501" stroke="white" stroke-width="11" stroke-linecap="round" stroke-linejoin="round"/>
</g>
<defs>
<clipPath id="clip0_1235_25635">
<rect width="900" height="600" fill="white"/>
</clipPath>
</defs>
</svg>
