<svg width="900" height="600" viewBox="0 0 900 600" fill="none" xmlns="http://www.w3.org/2000/svg">
<g clip-path="url(#clip0_1235_25653)">
<path d="M420.375 167.128C462.132 192.154 522.039 169.019 522.039 169.019C522.039 169.019 514.206 105.318 472.424 80.319C430.668 55.293 370.785 78.399 370.785 78.399C370.785 78.399 378.619 142.101 420.375 167.128Z" fill="url(#paint0_linear_1235_25653)"/>
<path d="M623.362 441.316C614.985 441.316 608.194 448.107 608.194 456.484C608.194 464.861 614.985 471.652 623.362 471.652C631.739 471.652 638.53 464.861 638.53 456.484C638.53 448.107 631.739 441.316 623.362 441.316Z" fill="#4F27AA"/>
<path d="M555.046 244.428C543.132 244.428 533.473 254.087 533.473 266.001C533.473 277.916 543.132 287.574 555.046 287.574C566.961 287.574 576.619 277.916 576.619 266.001C576.619 254.087 566.961 244.428 555.046 244.428Z" fill="#4F27AA"/>
<path d="M382.126 299.989C375.23 299.989 369.64 305.579 369.64 312.475C369.64 319.371 375.23 324.961 382.126 324.961C389.022 324.961 394.612 319.371 394.612 312.475C394.612 305.579 389.022 299.989 382.126 299.989Z" fill="#4F27AA"/>
<path d="M295.532 459.725C287.678 459.725 281.312 453.359 281.312 445.505C281.312 437.652 287.678 431.285 295.532 431.285C303.385 431.285 309.752 437.652 309.752 445.505C309.752 453.359 303.385 459.725 295.532 459.725Z" fill="#4F27AA"/>
<path d="M756.653 364.78C752.988 364.78 750.017 361.809 750.017 358.144C750.017 354.479 752.988 351.508 756.653 351.508C760.318 351.508 763.289 354.479 763.289 358.144C763.289 361.809 760.318 364.78 756.653 364.78Z" fill="#4F27AA"/>
<path d="M661.682 501.36C664.039 497.28 669.257 495.881 673.337 498.237C677.418 500.593 678.816 505.812 676.46 509.892C674.104 513.973 668.886 515.371 664.805 513.015C660.725 510.659 659.326 505.441 661.682 501.36Z" fill="#E1E4E5"/>
<path d="M194.431 440.91C187.625 440.91 182.107 435.392 182.107 428.586C182.107 421.779 187.625 416.262 194.431 416.262C201.237 416.262 206.755 421.779 206.755 428.586C206.755 435.392 201.237 440.91 194.431 440.91Z" fill="#E1E4E5"/>
<path d="M426.698 531.612C429.288 527.126 435.024 525.589 439.51 528.179C443.996 530.769 445.533 536.505 442.943 540.991C440.353 545.477 434.617 547.014 430.131 544.424C425.645 541.834 424.108 536.098 426.698 531.612Z" fill="#E1E4E5"/>
<path d="M699.186 255.313C693.427 255.313 688.758 250.644 688.758 244.885C688.758 239.126 693.427 234.457 699.186 234.457C704.945 234.457 709.614 239.126 709.614 244.885C709.614 250.644 704.945 255.313 699.186 255.313Z" fill="#E1E4E5"/>
<path d="M559.685 373.374C561.023 378.369 558.059 383.504 553.063 384.842C548.068 386.181 542.933 383.216 541.595 378.221C540.256 373.225 543.221 368.091 548.216 366.752C553.212 365.414 558.346 368.378 559.685 373.374Z" fill="#E1E4E5"/>
<path d="M325.112 84.1406C318.232 84.1406 312.655 78.5634 312.655 71.6836C312.655 64.8038 318.232 59.2266 325.112 59.2266C331.992 59.2266 337.569 64.8038 337.569 71.6836C337.569 78.5634 331.992 84.1406 325.112 84.1406Z" fill="#E1E4E5"/>
<path d="M490.245 528.879C492.891 524.295 498.008 522.296 501.675 524.413C505.342 526.529 506.169 531.961 503.522 536.545C500.876 541.128 495.759 543.128 492.092 541.011C488.425 538.894 487.598 533.462 490.245 528.879Z" fill="#E1E4E5"/>
<path d="M635.999 60.955C638.785 71.3512 632.615 82.0372 622.219 84.8228C611.823 87.6085 601.137 81.4389 598.351 71.0427C595.566 60.6465 601.735 49.9605 612.132 47.1749C622.528 44.3892 633.214 50.5588 635.999 60.955Z" fill="#E1E4E5"/>
<path d="M265.325 197.492H265.462C266.27 208.945 274.788 209.121 274.788 209.121C274.788 209.121 265.395 209.304 265.395 222.538C265.395 209.304 256.003 209.121 256.003 209.121C256.003 209.121 264.517 208.945 265.325 197.492ZM300.236 345.807H300.367C301.143 357.226 309.321 357.402 309.321 357.402C309.321 357.402 300.303 357.585 300.303 370.779C300.303 357.585 291.285 357.402 291.285 357.402C291.285 357.402 299.459 357.226 300.236 345.807ZM647.846 361.478H647.977C648.754 372.897 656.931 373.073 656.931 373.073C656.931 373.073 647.914 373.256 647.914 386.45C647.914 373.256 638.896 373.073 638.896 373.073C638.896 373.073 647.07 372.897 647.846 361.478Z" fill="#E1E4E5"/>
<path d="M458.431 529.63H436.257C435.552 529.63 434.98 514.686 434.98 496.259V133.199C434.98 114.772 435.552 99.8281 436.257 99.8281H458.431C459.136 99.8281 459.708 114.772 459.708 133.199V496.259C459.708 514.686 459.136 529.63 458.431 529.63Z" fill="white" stroke="#E1E4E5" stroke-width="4"/>
<path d="M189.424 142.027V120.31C189.424 119.619 207.355 119.059 229.466 119.059H665.099C687.21 119.059 705.141 119.619 705.141 120.31V142.027C705.141 142.718 687.21 143.278 665.099 143.278H229.466C207.355 143.278 189.424 142.718 189.424 142.027ZM599.942 570.325H294.623C289.886 570.325 285.666 569.827 282.689 569.059C281.186 568.672 280.112 568.243 279.462 567.847C279.311 567.759 279.17 567.657 279.039 567.542V518.697C279.11 518.631 279.239 518.528 279.462 518.392C280.112 517.996 281.186 517.567 282.689 517.18C285.666 516.412 289.886 515.915 294.623 515.915H599.942C604.679 515.915 608.899 516.412 611.876 517.18C613.379 517.567 614.453 517.996 615.103 518.392C615.326 518.528 615.455 518.631 615.526 518.697V567.542C615.455 567.608 615.326 567.711 615.103 567.847C614.453 568.243 613.379 568.672 611.876 569.059C608.899 569.827 604.679 570.325 599.942 570.325ZM278.962 567.458L278.972 567.473C278.964 567.463 278.962 567.458 278.962 567.458ZM278.962 518.781C278.962 518.781 278.964 518.776 278.972 518.766L278.962 518.781ZM615.603 518.781L615.593 518.766C615.601 518.776 615.604 518.781 615.603 518.781ZM615.603 567.458C615.604 567.458 615.601 567.463 615.593 567.473L615.603 567.458Z" fill="white" stroke="#E1E4E5" stroke-width="4"/>
<path d="M539.9 516.191H354.665C351.922 516.191 349.533 515.714 347.904 515.022C347.086 514.674 346.552 514.311 346.253 514.01C346.047 513.803 346.004 513.683 345.997 513.651V464.321C346.004 464.288 346.047 464.169 346.253 463.962C346.552 463.661 347.086 463.298 347.904 462.95C349.533 462.257 351.922 461.781 354.665 461.781H539.9C542.643 461.781 545.032 462.257 546.661 462.95C547.479 463.298 548.013 463.661 548.312 463.962C548.519 464.169 548.561 464.288 548.569 464.321V513.651C548.561 513.683 548.519 513.803 548.312 514.01C548.013 514.311 547.479 514.674 546.661 515.022C545.032 515.714 542.643 516.191 539.9 516.191ZM345.995 513.642L345.996 513.65L345.995 513.642ZM345.995 464.33L345.996 464.321L345.995 464.33ZM548.57 464.33L548.569 464.321L548.57 464.33ZM548.57 513.642L548.569 513.65L548.57 513.642Z" fill="white" stroke="#E1E4E5" stroke-width="4"/>
<path d="M446.57 175.471C471.43 175.471 491.583 155.318 491.583 130.458C491.583 105.598 471.43 85.4453 446.57 85.4453C421.71 85.4453 401.557 105.598 401.557 130.458C401.557 155.318 421.71 175.471 446.57 175.471Z" fill="white" stroke="#E1E4E5" stroke-width="4"/>
<mask id="mask0_1235_25653" style="mask-type:alpha" maskUnits="userSpaceOnUse" x="136" y="298" width="114" height="52">
<path fill-rule="evenodd" clip-rule="evenodd" d="M136 298.562C139.434 326.983 163.638 349.008 192.985 349.008C222.333 349.008 246.537 326.983 249.971 298.562H136Z" fill="white"/>
</mask>
<g mask="url(#mask0_1235_25653)">
<path fill-rule="evenodd" clip-rule="evenodd" d="M136 298.562C139.434 326.983 163.638 349.008 192.985 349.008C222.333 349.008 246.537 326.983 249.971 298.562H136Z" fill="white"/>
<path d="M136 298.562V294.562H131.488L132.029 299.043L136 298.562ZM249.971 298.562L253.942 299.043L254.483 294.562H249.971V298.562ZM192.985 345.008C165.686 345.008 143.165 324.52 139.971 298.083L132.029 299.043C135.703 329.449 161.59 353.008 192.985 353.008V345.008ZM246 298.083C242.805 324.52 220.285 345.008 192.985 345.008V353.008C224.381 353.008 250.268 329.449 253.942 299.043L246 298.083ZM249.971 294.562H136V302.562H249.971V294.562Z" fill="#E1E4E5"/>
<path d="M196.333 128.16L137.922 299.118" stroke="#E1E4E5" stroke-width="4"/>
<path d="M189.638 128.16L248.049 299.118" stroke="#E1E4E5" stroke-width="4"/>
</g>
<mask id="mask1_1235_25653" style="mask-type:alpha" maskUnits="userSpaceOnUse" x="643" y="298" width="115" height="52">
<path fill-rule="evenodd" clip-rule="evenodd" d="M643.17 298.562C646.604 326.983 670.808 349.008 700.155 349.008C729.503 349.008 753.707 326.983 757.141 298.562H643.17Z" fill="white"/>
</mask>
<g mask="url(#mask1_1235_25653)">
<path fill-rule="evenodd" clip-rule="evenodd" d="M643.17 298.562C646.604 326.983 670.808 349.008 700.155 349.008C729.503 349.008 753.707 326.983 757.141 298.562H643.17Z" fill="white"/>
<path d="M643.17 298.562V294.562H638.658L639.199 299.043L643.17 298.562ZM757.141 298.562L761.112 299.043L761.653 294.562H757.141V298.562ZM700.155 345.008C672.856 345.008 650.335 324.52 647.141 298.083L639.199 299.043C642.873 329.449 668.76 353.008 700.155 353.008V345.008ZM753.169 298.083C749.975 324.52 727.455 345.008 700.155 345.008V353.008C731.551 353.008 757.438 329.449 761.112 299.043L753.169 298.083ZM757.141 294.562H643.17V302.562H757.141V294.562Z" fill="#E1E4E5"/>
<path d="M703.502 128.16L645.092 299.118" stroke="#E1E4E5" stroke-width="4"/>
<path d="M696.809 128.16L755.219 299.118" stroke="#E1E4E5" stroke-width="4"/>
</g>
</g>
<defs>
<linearGradient id="paint0_linear_1235_25653" x1="581.962" y1="247.686" x2="245.973" y2="-64.491" gradientUnits="userSpaceOnUse">
<stop stop-color="white"/>
<stop offset="1" stop-color="#EEEEEE"/>
</linearGradient>
<clipPath id="clip0_1235_25653">
<rect width="900" height="600" fill="white"/>
</clipPath>
</defs>
</svg>
