<svg width="900" height="600" viewBox="0 0 900 600" fill="none" xmlns="http://www.w3.org/2000/svg">
<g clip-path="url(#clip0_1235_25726)">
<path d="M670.281 407.098C662.923 407.098 656.959 413.063 656.959 420.42C656.959 427.778 662.923 433.742 670.281 433.742C677.639 433.742 683.603 427.778 683.603 420.42C683.603 413.063 677.639 407.098 670.281 407.098Z" fill="#4F27AA"/>
<path d="M714.363 231.647C703.898 231.647 695.415 240.13 695.415 250.595C695.415 261.06 703.898 269.543 714.363 269.543C724.828 269.543 733.311 261.06 733.311 250.595C733.311 240.13 724.828 231.647 714.363 231.647Z" fill="#4F27AA"/>
<path d="M218.03 284.199C211.973 284.199 207.063 289.109 207.063 295.166C207.063 301.223 211.973 306.133 218.03 306.133C224.087 306.133 228.997 301.223 228.997 295.166C228.997 289.109 224.087 284.199 218.03 284.199Z" fill="#4F27AA"/>
<path d="M311.848 521.066C304.95 521.066 299.358 515.474 299.358 508.576C299.358 501.678 304.95 496.086 311.848 496.086C318.746 496.086 324.338 501.678 324.338 508.576C324.338 515.474 318.746 521.066 311.848 521.066Z" fill="#4F27AA"/>
<path d="M368.756 342.717C365.537 342.717 362.927 340.107 362.927 336.888C362.927 333.668 365.537 331.059 368.756 331.059C371.975 331.059 374.585 333.668 374.585 336.888C374.585 340.107 371.975 342.717 368.756 342.717Z" fill="#4F27AA"/>
<path d="M603.464 520.48C599.325 520.48 595.97 517.125 595.97 512.986C595.97 508.847 599.325 505.492 603.464 505.492C607.603 505.492 610.958 508.847 610.958 512.986C610.958 517.125 607.603 520.48 603.464 520.48Z" fill="#E1E4E5"/>
<path d="M195.799 406.285C189.821 406.285 184.975 401.439 184.975 395.461C184.975 389.483 189.821 384.637 195.799 384.637C201.777 384.637 206.623 389.483 206.623 395.461C206.623 401.439 201.777 406.285 195.799 406.285Z" fill="#E1E4E5"/>
<path d="M733.689 403.566C729.139 403.566 725.451 399.878 725.451 395.328C725.451 390.778 729.139 387.09 733.689 387.09C738.238 387.09 741.927 390.778 741.927 395.328C741.927 399.878 738.238 403.566 733.689 403.566Z" fill="#E1E4E5"/>
<path d="M679.337 169.447C674.279 169.447 670.178 165.346 670.178 160.288C670.178 155.23 674.279 151.129 679.337 151.129C684.395 151.129 688.496 155.23 688.496 160.288C688.496 165.346 684.395 169.447 679.337 169.447Z" fill="#E1E4E5"/>
<path d="M177.018 238.148C178.194 242.536 175.59 247.046 171.202 248.222C166.815 249.397 162.304 246.793 161.129 242.406C159.953 238.018 162.557 233.508 166.945 232.332C171.332 231.156 175.843 233.76 177.018 238.148Z" fill="#E1E4E5"/>
<path d="M303.775 133.357C297.732 133.357 292.833 128.458 292.833 122.415C292.833 116.372 297.732 111.473 303.775 111.473C309.818 111.473 314.717 116.372 314.717 122.415C314.717 128.458 309.818 133.357 303.775 133.357Z" fill="#E1E4E5"/>
<path d="M607.864 91.5695C607.864 98.4769 602.265 104.076 595.357 104.076C588.45 104.076 582.85 98.4769 582.85 91.5695C582.85 84.6621 588.45 79.0625 595.357 79.0625C602.265 79.0625 607.864 84.6621 607.864 91.5695Z" fill="#E1E4E5"/>
<path d="M215.393 180.98H215.513C216.223 191.039 223.705 191.194 223.705 191.194C223.705 191.194 215.455 191.355 215.455 202.979C215.455 191.355 207.205 191.194 207.205 191.194C207.205 191.194 214.683 191.039 215.393 180.98ZM223.986 450.507H224.101C224.782 460.537 231.965 460.692 231.965 460.692C231.965 460.692 224.045 460.852 224.045 472.441C224.045 460.852 216.124 460.692 216.124 460.692C216.124 460.692 223.304 460.537 223.986 450.507Z" fill="#E1E4E5"/>
<path fill-rule="evenodd" clip-rule="evenodd" d="M612.453 346.824V433.845C612.453 441.861 610.275 449.726 606.151 456.599C602.027 463.472 596.112 469.095 589.04 472.867L476.284 533.07C469.881 536.484 462.736 538.27 455.479 538.27C448.223 538.27 441.078 536.484 434.675 533.07L321.92 472.867C314.847 469.096 308.932 463.472 304.808 456.599C300.684 449.726 298.506 441.861 298.507 433.845V346.824" fill="white"/>
<path d="M612.453 346.824V433.845C612.453 441.861 610.275 449.726 606.151 456.599C602.027 463.472 596.112 469.095 589.04 472.867L476.284 533.07C469.881 536.484 462.736 538.27 455.479 538.27C448.223 538.27 441.078 536.484 434.675 533.07L321.92 472.867C314.847 469.096 308.932 463.472 304.808 456.599C300.684 449.726 298.506 441.861 298.507 433.845V346.824" stroke="#E1E4E5" stroke-width="4"/>
<path fill-rule="evenodd" clip-rule="evenodd" d="M392.205 145.238L658.772 282.822C662.355 284.671 665.365 287.465 667.475 290.902C669.585 294.338 670.714 298.286 670.742 302.319C670.769 306.351 669.693 310.315 667.63 313.779C665.567 317.244 662.596 320.079 659.038 321.977L559.548 375.038C553.235 378.406 546.199 380.191 539.044 380.241C531.889 380.291 524.828 378.604 518.469 375.325L251.969 237.697C248.386 235.848 245.376 233.053 243.267 229.617C241.157 226.18 240.027 222.233 240 218.2C239.973 214.168 241.049 210.205 243.111 206.74C245.174 203.275 248.145 200.441 251.703 198.543L351.193 145.481C357.501 142.131 364.527 140.36 371.669 140.317C378.811 140.275 385.857 141.963 392.205 145.238Z" fill="white" stroke="#E1E4E5" stroke-width="4"/>
<path d="M541.596 340.052C536.948 340.052 533.179 337.037 533.179 333.319C533.179 329.6 536.948 326.586 541.596 326.586C546.245 326.586 550.013 329.6 550.013 333.319C550.013 337.037 546.245 340.052 541.596 340.052Z" fill="#E1E4E5"/>
<path d="M518.536 145.238L251.969 282.822C248.385 284.671 245.376 287.465 243.266 290.902C241.156 294.338 240.026 298.286 239.999 302.319C239.972 306.351 241.048 310.315 243.111 313.779C245.174 317.244 248.145 320.079 251.703 321.977L351.193 375.038C357.506 378.406 364.542 380.191 371.697 380.241C378.852 380.291 385.912 378.604 392.272 375.325L658.772 237.697C662.355 235.848 665.364 233.053 667.474 229.617C669.584 226.18 670.713 222.233 670.741 218.2C670.768 214.168 669.692 210.205 667.63 206.74C665.567 203.275 662.596 200.441 659.038 198.543L559.548 145.481C553.24 142.131 546.214 140.36 539.072 140.317C531.93 140.275 524.883 141.963 518.536 145.238V145.238Z" stroke="#E1E4E5" stroke-width="4"/>
<path d="M455.372 538.266V342.691" stroke="#E1E4E5" stroke-width="4"/>
<path d="M241.279 471.54H261.531M218.325 460.738H261.531M242.629 483.016H261.531M658.793 471.54H638.54M681.746 460.738H638.541M657.443 483.016H638.54" stroke="#E1E4E5" stroke-width="4.046" stroke-linecap="round" stroke-linejoin="round"/>
<path fill-rule="evenodd" clip-rule="evenodd" d="M351.718 191.899V139.431C351.718 130.758 353.994 122.237 358.317 114.718C362.64 107.199 368.859 100.946 376.354 96.5815L425.936 67.7265C433.509 63.3209 442.114 61 450.875 61C459.636 61 468.241 63.3209 475.814 67.7265L525.396 96.5825C532.893 100.944 539.116 107.197 543.441 114.716C547.766 122.235 550.042 130.757 550.043 139.431V191.899C550.042 200.572 547.767 209.093 543.444 216.612C539.121 224.131 532.902 230.384 525.407 234.748L475.825 263.605C468.252 268.011 459.647 270.331 450.886 270.331C442.125 270.331 433.52 268.011 425.947 263.605L376.365 234.748C368.867 230.387 362.645 224.134 358.32 216.615C353.995 209.096 351.718 200.574 351.718 191.899Z" fill="#4F27AA"/>
<path d="M450.881 165.667V116.086M450.87 204.231C450.509 204.23 450.151 204.301 449.817 204.44C449.483 204.578 449.18 204.781 448.925 205.037C448.67 205.293 448.468 205.597 448.331 205.931C448.194 206.265 448.124 206.624 448.126 206.985C448.15 207.7 448.45 208.377 448.964 208.875C449.478 209.372 450.165 209.65 450.88 209.65C451.596 209.65 452.283 209.372 452.797 208.875C453.311 208.377 453.611 207.7 453.635 206.985C453.634 206.622 453.563 206.264 453.423 205.929C453.284 205.594 453.08 205.291 452.823 205.035C452.567 204.779 452.262 204.576 451.927 204.438C451.592 204.301 451.232 204.23 450.87 204.231" stroke="white" stroke-width="15.588" stroke-linecap="round" stroke-linejoin="round"/>
</g>
<defs>
<clipPath id="clip0_1235_25726">
<rect width="900" height="600" fill="white"/>
</clipPath>
</defs>
</svg>
