<svg width="900" height="600" viewBox="0 0 900 600" fill="none" xmlns="http://www.w3.org/2000/svg">
<g clip-path="url(#clip0_1235_18545)">
<path fill-rule="evenodd" clip-rule="evenodd" d="M363.752 195.734C326.649 200.823 297.974 232.444 297.974 271.11C297.974 313.306 332.034 347.525 374.036 347.525H541.372C574.976 347.525 602.221 320.154 602.221 286.394C602.221 252.633 574.976 225.261 541.372 225.261C541.372 174.612 500.511 133.562 450.098 133.562C409.982 133.562 375.998 159.589 363.752 195.734ZM135.952 256.275C113.63 259.334 96.3779 278.344 96.3779 301.588C96.3779 326.955 116.87 347.525 142.139 347.525H242.813C263.03 347.525 279.421 331.07 279.421 310.775C279.421 290.48 263.03 274.025 242.813 274.025C242.813 243.577 218.23 218.9 187.9 218.9C163.765 218.9 143.319 234.546 135.952 256.275Z" fill="white" stroke="#E1E4E5" stroke-width="4.21"/>
<path fill-rule="evenodd" clip-rule="evenodd" d="M534.196 256.275C511.873 259.334 494.622 278.343 494.622 301.587C494.622 326.954 515.113 347.525 540.382 347.525H641.056C661.273 347.525 677.665 331.07 677.665 310.775C677.665 290.48 661.273 274.025 641.056 274.025C641.056 243.577 616.474 218.9 586.143 218.9C562.009 218.9 541.563 234.546 534.196 256.275ZM372.099 347.525H130.207C107.501 347.525 108.543 328.726 115.96 322.175C123.562 315.461 138.582 318.184 138.582 318.184C138.582 318.184 143.054 305.539 157.773 299.383C170.793 293.938 184.432 296.529 184.432 296.529C184.432 296.529 184.432 287.851 192.768 280.664C201.105 273.475 212.221 274.174 212.221 274.174C212.221 274.174 219.862 226.321 270.923 226.321C321.983 226.321 327.888 271.379 327.888 271.379C327.888 271.379 339.351 271.379 347.688 279.064C356.024 286.749 357.066 295.48 357.066 295.48C357.066 295.48 384.946 291.703 393.192 315.887C398.105 330.301 388.01 347.525 372.099 347.525Z" fill="white" stroke="#E1E4E5" stroke-width="4.21"/>
<path fill-rule="evenodd" clip-rule="evenodd" d="M787.559 347.526H544.611C521.806 347.526 522.853 328.727 530.302 322.176C537.937 315.462 553.023 318.185 553.023 318.185C553.023 318.185 557.514 305.54 572.298 299.384C585.374 293.939 599.073 296.53 599.073 296.53C599.073 296.53 599.073 287.852 607.446 280.665C615.819 273.476 626.983 274.175 626.983 274.175C626.983 274.175 634.658 226.322 685.941 226.322C737.225 226.322 743.156 271.38 743.156 271.38C743.156 271.38 754.669 271.38 763.042 279.065C771.415 286.75 772.461 295.481 772.461 295.481C772.461 295.481 800.463 291.704 808.744 315.888C813.679 330.302 803.54 347.526 787.559 347.526Z" fill="white" stroke="#E1E4E5" stroke-width="4.21"/>
<path fill-rule="evenodd" clip-rule="evenodd" d="M504.967 283.316C535.378 313.727 535.378 363.032 504.967 393.443C474.556 423.854 425.25 423.854 394.839 393.443C364.429 363.032 364.429 313.727 394.839 283.316C425.25 252.905 474.556 252.905 504.967 283.316Z" fill="#4F27AA"/>
<path d="M504.967 283.316C535.378 313.727 535.378 363.032 504.967 393.443C474.556 423.854 425.25 423.854 394.839 393.443C364.429 363.032 364.429 313.727 394.839 283.316C425.25 252.905 474.556 252.905 504.967 283.316Z" stroke="#4F27AA" stroke-width="14.042" stroke-linecap="round" stroke-linejoin="round"/>
<path d="M449.903 362.34V331.79M449.867 313.592C444.908 313.592 440.882 317.618 440.918 322.578C440.918 327.537 444.944 331.563 449.903 331.563C454.863 331.563 458.889 327.537 458.889 322.578C458.889 317.618 454.863 313.592 449.867 313.592Z" stroke="white" stroke-width="24.207" stroke-linecap="round" stroke-linejoin="round"/>
<path d="M405.206 234.725C410.225 215.113 428.016 200.605 449.197 200.605C474.272 200.605 494.591 220.923 494.591 245.998V274.631" stroke="#4F27AA" stroke-width="24.207" stroke-linecap="round" stroke-linejoin="round"/>
<path d="M271.013 400.848H335.243M168.648 379.298H232.878M89.1802 404.889H153.41M429.949 464.153H494.179M327.584 442.602H391.813M248.117 468.194H312.346M695.203 435.869H759.432M733.543 387.096H797.773M607.74 414.318H671.969M565.34 378.439H629.57M528.272 439.909H592.502" stroke="#E1E4E5" stroke-width="4.21" stroke-linecap="round" stroke-linejoin="round"/>
<path d="M690.847 317.949C671.165 322.612 650.347 305.92 650.347 305.92C650.347 305.92 661.456 281.676 681.145 277.028C700.828 272.365 721.639 289.043 721.639 289.043C721.639 289.043 710.53 313.286 690.847 317.949Z" fill="url(#paint0_linear_1235_18545)"/>
<path d="M225.991 189.312C243.836 201.603 271.098 193.011 271.098 193.011C271.098 193.011 269.41 164.494 251.553 152.215C233.709 139.923 206.458 148.503 206.458 148.503C206.458 148.503 208.146 177.021 225.991 189.312Z" fill="url(#paint1_linear_1235_18545)"/>
<path d="M717.541 331.883C709.804 331.883 703.532 337.904 703.532 345.331C703.532 352.758 709.804 358.779 717.541 358.779C725.278 358.779 731.55 352.758 731.55 345.331C731.55 337.904 725.278 331.883 717.541 331.883Z" fill="#4F27AA"/>
<path d="M573.53 194.036C566.103 194.036 560.082 188.266 560.082 181.148C560.082 174.03 566.103 168.26 573.53 168.26C580.957 168.26 586.978 174.03 586.978 181.148C586.978 188.266 580.957 194.036 573.53 194.036Z" fill="#4F27AA"/>
<path d="M649.178 200.759C643.917 200.759 639.652 196.494 639.652 191.233C639.652 185.972 643.917 181.707 649.178 181.707C654.439 181.707 658.704 185.972 658.704 191.233C658.704 196.494 654.439 200.759 649.178 200.759Z" fill="#E1E4E5"/>
<path d="M487.984 168.507C489.311 173.462 486.371 178.555 481.416 179.883C476.461 181.211 471.368 178.27 470.041 173.315C468.713 168.36 471.653 163.267 476.608 161.94C481.563 160.612 486.656 163.553 487.984 168.507Z" fill="#E1E4E5"/>
<path d="M776.295 270.244H776.458C777.423 283.568 787.586 283.773 787.586 283.773C787.586 283.773 776.379 283.987 776.379 299.382C776.379 283.987 765.172 283.773 765.172 283.773C765.172 283.773 775.331 283.568 776.295 270.244Z" fill="#E1E4E5"/>
<path d="M226.67 315.071C223.266 315.071 220.506 312.061 220.506 308.347C220.506 304.633 223.266 301.623 226.67 301.623C230.074 301.623 232.834 304.633 232.834 308.347C232.834 312.061 230.074 315.071 226.67 315.071Z" fill="#4F27AA"/>
<path d="M284.842 370.404C285.665 373.476 283.842 376.634 280.769 377.457C277.697 378.28 274.539 376.457 273.716 373.385C272.893 370.313 274.716 367.155 277.788 366.332C280.861 365.509 284.018 367.332 284.842 370.404Z" fill="#E1E4E5"/>
<path d="M282.145 274.726C277.813 274.726 274.3 271.465 274.3 267.441C274.3 263.418 277.813 260.156 282.145 260.156C286.478 260.156 289.99 263.418 289.99 267.441C289.99 271.465 286.478 274.726 282.145 274.726Z" fill="#E1E4E5"/>
<path d="M340.845 134.639H341.113C342.705 157.187 359.474 157.535 359.474 157.535C359.474 157.535 340.982 157.896 340.982 183.95C340.982 157.896 322.491 157.535 322.491 157.535C322.491 157.535 339.253 157.187 340.845 134.639Z" fill="#E1E4E5"/>
</g>
<defs>
<linearGradient id="paint0_linear_1235_18545" x1="616.727" y1="329.543" x2="789.03" y2="248.141" gradientUnits="userSpaceOnUse">
<stop stop-color="white"/>
<stop offset="1" stop-color="#EEEEEE"/>
</linearGradient>
<linearGradient id="paint1_linear_1235_18545" x1="295.504" y1="229.641" x2="155.034" y2="81.5185" gradientUnits="userSpaceOnUse">
<stop stop-color="white"/>
<stop offset="1" stop-color="#EEEEEE"/>
</linearGradient>
<clipPath id="clip0_1235_18545">
<rect width="900" height="600" fill="white"/>
</clipPath>
</defs>
</svg>
