<svg width="900" height="600" viewBox="0 0 900 600" fill="none" xmlns="http://www.w3.org/2000/svg">
<g clip-path="url(#clip0_1235_25751)">
<path d="M631.754 206.427C620.778 226.016 596.738 228.708 558.226 224.985C529.262 222.18 502.849 220.01 473.882 204.217C453.608 193.171 437.559 178.226 425.846 163.711C413.153 147.986 395.436 130.04 404.121 112.211C416.057 87.7186 485.08 67.0906 552.104 100.824C625.73 137.89 642.492 187.281 631.754 206.427Z" fill="url(#paint0_linear_1235_25751)"/>
<path d="M782.448 316.503C754.73 330.252 717.943 312.573 717.943 312.573C717.943 312.573 726.119 272.61 753.851 258.88C781.568 245.13 818.341 262.79 818.341 262.79C818.341 262.79 810.165 302.753 782.448 316.503Z" fill="url(#paint1_linear_1235_25751)"/>
<path d="M175.251 211.28C191.298 220.898 214.32 212.007 214.32 212.007C214.32 212.007 211.31 187.527 195.253 177.92C179.206 168.302 156.193 177.182 156.193 177.182C156.193 177.182 159.204 201.663 175.251 211.28Z" fill="url(#paint2_linear_1235_25751)"/>
<path d="M702.154 371.24C693.796 371.24 687.02 378.016 687.02 386.374C687.02 394.732 693.796 401.508 702.154 401.508C710.512 401.508 717.288 394.732 717.288 386.374C717.288 378.016 710.512 371.24 702.154 371.24Z" fill="#4F27AA"/>
<path d="M159.806 275.445C152.925 275.445 147.347 281.023 147.347 287.904C147.347 294.785 152.925 300.363 159.806 300.363C166.687 300.363 172.265 294.785 172.265 287.904C172.265 281.023 166.687 275.445 159.806 275.445Z" fill="#4F27AA"/>
<path d="M196.951 458.224C189.115 458.224 182.763 451.871 182.763 444.036C182.763 436.2 189.115 429.848 196.951 429.848C204.787 429.848 211.139 436.2 211.139 444.036C211.139 451.871 204.787 458.224 196.951 458.224Z" fill="#4F27AA"/>
<path d="M667.101 275.004C663.444 275.004 660.48 272.039 660.48 268.383C660.48 264.726 663.444 261.762 667.101 261.762C670.758 261.762 673.722 264.726 673.722 268.383C673.722 272.039 670.758 275.004 667.101 275.004Z" fill="#4F27AA"/>
<path d="M223.124 145.186C218.423 145.186 214.611 141.375 214.611 136.673C214.611 131.972 218.423 128.16 223.124 128.16C227.826 128.16 231.637 131.972 231.637 136.673C231.637 141.375 227.826 145.186 223.124 145.186Z" fill="#E1E4E5"/>
<path d="M80.2968 463.627C73.5059 463.627 68.0008 458.122 68.0008 451.331C68.0008 444.54 73.5059 439.035 80.2968 439.035C87.0877 439.035 92.5928 444.54 92.5928 451.331C92.5928 458.122 87.0877 463.627 80.2968 463.627Z" fill="#E1E4E5"/>
<path d="M562.039 539.312C556.87 539.312 552.68 535.122 552.68 529.953C552.68 524.784 556.87 520.594 562.039 520.594C567.208 520.594 571.398 524.784 571.398 529.953C571.398 535.122 567.208 539.312 562.039 539.312Z" fill="#E1E4E5"/>
<path d="M684.264 182.603C678.517 182.603 673.859 177.944 673.859 172.198C673.859 166.451 678.517 161.793 684.264 161.793C690.01 161.793 694.669 166.451 694.669 172.198C694.669 177.944 690.01 182.603 684.264 182.603Z" fill="#E1E4E5"/>
<path d="M117.498 254.536C118.833 259.52 115.875 264.643 110.891 265.979C105.907 267.314 100.784 264.356 99.4484 259.372C98.1129 254.388 101.071 249.265 106.055 247.93C111.039 246.594 116.162 249.552 117.498 254.536Z" fill="#E1E4E5"/>
<path d="M293.61 158.344C286.745 158.344 281.18 152.779 281.18 145.914C281.18 139.049 286.745 133.484 293.61 133.484C300.475 133.484 306.04 139.049 306.04 145.914C306.04 152.779 300.475 158.344 293.61 158.344Z" fill="#E1E4E5"/>
<path d="M765.702 453.236C760.422 453.236 756.141 449.811 756.141 445.587C756.141 441.362 760.422 437.938 765.702 437.938C770.983 437.938 775.263 441.362 775.263 445.587C775.263 449.811 770.983 453.236 765.702 453.236Z" fill="#E1E4E5"/>
<path d="M299.451 520.51C302.23 530.883 296.074 541.546 285.701 544.325C275.328 547.105 264.665 540.949 261.886 530.575C259.106 520.202 265.262 509.54 275.635 506.76C286.009 503.981 296.671 510.137 299.451 520.51Z" fill="#E1E4E5"/>
<path d="M674.036 434.125H674.286C675.767 455.111 691.375 455.434 691.375 455.434C691.375 455.434 674.164 455.77 674.164 480.019C674.164 455.77 656.954 455.434 656.954 455.434C656.954 455.434 672.555 455.111 674.036 434.125ZM136.796 491.691H136.927C137.702 503.085 145.861 503.26 145.861 503.26C145.861 503.26 136.863 503.443 136.863 516.608C136.863 503.443 127.866 503.26 127.866 503.26C127.866 503.26 136.022 503.085 136.796 491.691Z" fill="#E1E4E5"/>
<path fill-rule="evenodd" clip-rule="evenodd" d="M494.796 274.429C499.366 264.047 502.117 252.606 502.117 240.406C502.117 195.908 468.173 159.836 426.3 159.836C384.427 159.836 350.482 195.908 350.482 240.406C350.482 254.747 354.294 268.029 360.49 279.677" fill="#2E2445"/>
<path d="M235.627 359.689C231.917 349.064 233.416 337.811 240.792 330.425C251.83 319.371 271.57 321.19 284.885 334.486L298.995 348.577" stroke="#4F27AA" stroke-width="22" stroke-linecap="round" stroke-linejoin="round"/>
<path fill-rule="evenodd" clip-rule="evenodd" d="M572.359 232.414V278.215C586.559 289.836 597.833 304.326 604.517 320.915H621.803C632.721 320.915 641.581 328.949 641.581 338.848V393.814C641.581 403.713 632.721 411.747 621.803 411.747H595.875C585.491 428.03 570.5 441.588 552.581 451.039V483.48C552.581 493.379 543.721 501.414 532.803 501.414H505.376C494.458 501.414 493.762 493.379 493.762 483.48L493.248 465.547H377.566V481.113C377.566 491.012 381.394 499.046 370.476 499.046H344.914C333.997 499.046 325.137 491.012 325.137 481.113V437.983C300.909 418.275 285.581 389.779 285.581 357.947C285.581 298.516 338.704 250.347 404.248 250.347H493.762C502.247 250.347 510.474 247.818 517.238 243.192C527.107 236.449 539.29 232.414 552.581 232.414H572.359Z" fill="#4F27AA" stroke="#4F27AA" stroke-width="22" stroke-linecap="round" stroke-linejoin="round"/>
<path d="M554.973 321.951C556.139 323.249 556.139 325.342 554.973 326.64C553.806 327.939 551.927 327.939 550.76 326.64C549.593 325.342 549.593 323.249 550.76 321.951C551.024 321.653 551.349 321.415 551.712 321.252C552.075 321.088 552.468 321.004 552.867 321.004C553.265 321.004 553.658 321.088 554.021 321.252C554.384 321.415 554.709 321.653 554.973 321.951" stroke="white" stroke-width="25" stroke-linecap="round" stroke-linejoin="round"/>
</g>
<defs>
<linearGradient id="paint0_linear_1235_25751" x1="557.81" y1="333.384" x2="459.976" y2="-106.242" gradientUnits="userSpaceOnUse">
<stop stop-color="white"/>
<stop offset="1" stop-color="#EEEEEE"/>
</linearGradient>
<linearGradient id="paint1_linear_1235_25751" x1="676.01" y1="359.39" x2="904.623" y2="178.557" gradientUnits="userSpaceOnUse">
<stop stop-color="white"/>
<stop offset="1" stop-color="#EEEEEE"/>
</linearGradient>
<linearGradient id="paint2_linear_1235_25751" x1="237.349" y1="242.239" x2="108.228" y2="122.269" gradientUnits="userSpaceOnUse">
<stop stop-color="white"/>
<stop offset="1" stop-color="#EEEEEE"/>
</linearGradient>
<clipPath id="clip0_1235_25751">
<rect width="900" height="600" fill="white"/>
</clipPath>
</defs>
</svg>
