<svg width="900" height="600" viewBox="0 0 900 600" fill="none" xmlns="http://www.w3.org/2000/svg">
<g clip-path="url(#clip0_1235_25773)">
<path fill-rule="evenodd" clip-rule="evenodd" d="M684.111 166.499H467.893C462.386 166.499 456.964 165.137 452.11 162.537C447.255 159.936 443.118 156.177 440.067 151.592L393.144 80.9401C390.087 76.3352 385.936 72.5602 381.063 69.953C376.189 67.3457 370.745 65.9875 365.218 66.0001H215.889C178.947 65.9991 149 95.9951 149 132.999V467.999C149 505.002 178.947 534.999 215.889 534.999H684.111C721.053 534.999 751 505.002 751 467.999V233.499C751 196.496 721.053 166.499 684.111 166.499Z" fill="white" stroke="#E1E4E5" stroke-width="4"/>
<path d="M315 427C315 395.52 289.48 370 258 370C226.52 370 201 395.52 201 427C201 458.48 226.52 484 258 484C289.48 484 315 458.48 315 427Z" fill="#4F27AA"/>
<path fill-rule="evenodd" clip-rule="evenodd" d="M284 450.58V454.29C283.999 455.274 283.608 456.218 282.911 456.914C282.215 457.609 281.27 458 280.286 458H235.714C234.73 458 233.785 457.609 233.089 456.914C232.392 456.218 232.001 455.274 232 454.29V450.521C232 439.294 244.844 432 258 432C271.156 432 284 439.298 284 450.521M267.046 398.808C272.318 403.884 272.318 412.116 267.046 417.192C261.774 422.269 253.226 422.269 247.954 417.192C242.682 412.116 242.682 403.884 247.954 398.808C253.226 393.731 261.774 393.731 267.046 398.808Z" fill="white"/>
<path d="M684 379H353C348.582 379 345 382.582 345 387C345 391.418 348.582 395 353 395H684C688.418 395 692 391.418 692 387C692 382.582 688.418 379 684 379Z" fill="#E1E4E5"/>
<path d="M684 418H353C348.582 418 345 421.582 345 426C345 430.418 348.582 434 353 434H684C688.418 434 692 430.418 692 426C692 421.582 688.418 418 684 418Z" fill="#E1E4E5"/>
<path d="M684 457H353C348.582 457 345 460.582 345 465C345 469.418 348.582 473 353 473H684C688.418 473 692 469.418 692 465C692 460.582 688.418 457 684 457Z" fill="#E1E4E5"/>
<path d="M315 281C315 249.52 289.48 224 258 224C226.52 224 201 249.52 201 281C201 312.48 226.52 338 258 338C289.48 338 315 312.48 315 281Z" fill="#4F27AA"/>
<path fill-rule="evenodd" clip-rule="evenodd" d="M284 304.58V308.29C283.999 309.274 283.608 310.218 282.911 310.914C282.215 311.609 281.27 312 280.286 312H235.714C234.73 312 233.785 311.609 233.089 310.914C232.392 310.218 232.001 309.274 232 308.29V304.521C232 293.294 244.844 286 258 286C271.156 286 284 293.298 284 304.521M267.046 252.808C272.318 257.884 272.318 266.116 267.046 271.192C261.774 276.269 253.226 276.269 247.954 271.192C242.682 266.116 242.682 257.884 247.954 252.808C253.226 247.731 261.774 247.731 267.046 252.808Z" fill="white"/>
<path d="M684 233H353C348.582 233 345 236.582 345 241C345 245.418 348.582 249 353 249H684C688.418 249 692 245.418 692 241C692 236.582 688.418 233 684 233Z" fill="#E1E4E5"/>
<path d="M684 272H353C348.582 272 345 275.582 345 280C345 284.418 348.582 288 353 288H684C688.418 288 692 284.418 692 280C692 275.582 688.418 272 684 272Z" fill="#E1E4E5"/>
<path d="M684 311H353C348.582 311 345 314.582 345 319C345 323.418 348.582 327 353 327H684C688.418 327 692 323.418 692 319C692 314.582 688.418 311 684 311Z" fill="#E1E4E5"/>
</g>
<defs>
<clipPath id="clip0_1235_25773">
<rect width="900" height="600" fill="white"/>
</clipPath>
</defs>
</svg>
