<svg width="900" height="600" viewBox="0 0 900 600" fill="none" xmlns="http://www.w3.org/2000/svg">
<g clip-path="url(#clip0_1235_25918)">
<path d="M168.479 327.167C204.447 348.725 256.05 328.797 256.05 328.797C256.05 328.797 249.303 273.925 213.313 252.393C177.345 230.835 125.763 250.739 125.763 250.739C125.763 250.739 132.511 305.61 168.479 327.167Z" fill="url(#paint0_linear_1235_25918)"/>
<path d="M604.314 513.212C594.227 513.212 586.049 521.39 586.049 531.477C586.049 541.565 594.227 549.742 604.314 549.742C614.402 549.742 622.579 541.565 622.579 531.477C622.579 521.39 614.402 513.212 604.314 513.212Z" fill="#4F27AA"/>
<path d="M324.232 549.764C314.775 549.764 307.108 542.097 307.108 532.64C307.108 523.182 314.775 515.516 324.232 515.516C333.689 515.516 341.356 523.182 341.356 532.64C341.356 542.097 333.689 549.764 324.232 549.764Z" fill="#4F27AA"/>
<path d="M785.534 377.416C781.121 377.416 777.543 373.838 777.543 369.425C777.543 365.011 781.121 361.434 785.534 361.434C789.947 361.434 793.525 365.011 793.525 369.425C793.525 373.838 789.947 377.416 785.534 377.416Z" fill="#4F27AA"/>
<path d="M329.535 305.41C332.372 300.497 338.656 298.813 343.57 301.65C348.484 304.487 350.167 310.771 347.33 315.684C344.493 320.598 338.21 322.282 333.296 319.445C328.382 316.608 326.698 310.324 329.535 305.41Z" fill="#E1E4E5"/>
<path d="M130.609 450.68C122.413 450.68 115.769 444.036 115.769 435.84C115.769 427.644 122.413 421 130.609 421C138.805 421 145.449 427.644 145.449 435.84C145.449 444.036 138.805 450.68 130.609 450.68Z" fill="#E1E4E5"/>
<path d="M716.331 245.594C709.396 245.594 703.774 239.973 703.774 233.037C703.774 226.102 709.396 220.48 716.331 220.48C723.266 220.48 728.888 226.102 728.888 233.037C728.888 239.973 723.266 245.594 716.331 245.594Z" fill="#E1E4E5"/>
<path d="M548.342 387.766C549.954 393.781 546.384 399.964 540.369 401.576C534.353 403.188 528.17 399.618 526.559 393.603C524.947 387.587 528.517 381.404 534.532 379.792C540.547 378.181 546.73 381.75 548.342 387.766Z" fill="#E1E4E5"/>
<path d="M250.645 81.002C242.36 81.002 235.644 74.2858 235.644 66.001C235.644 57.7162 242.36 51 250.645 51C258.93 51 265.646 57.7162 265.646 66.001C265.646 74.2858 258.93 81.002 250.645 81.002Z" fill="#E1E4E5"/>
<path d="M637.459 90.9579C640.814 103.477 633.384 116.346 620.865 119.7C608.346 123.055 595.477 115.625 592.123 103.106C588.768 90.5865 596.198 77.7181 608.717 74.3635C621.237 71.009 634.105 78.4385 637.459 90.9579Z" fill="#E1E4E5"/>
<path d="M193.871 175.969H194.035C195.009 189.761 205.266 189.973 205.266 189.973C205.266 189.973 193.955 190.194 193.955 206.13C193.955 190.194 182.645 189.973 182.645 189.973C182.645 189.973 192.897 189.761 193.871 175.969ZM235.91 354.572H236.068C237.003 368.323 246.851 368.535 246.851 368.535C246.851 368.535 235.991 368.755 235.991 384.644C235.991 368.755 225.132 368.535 225.132 368.535C225.132 368.535 234.976 368.323 235.91 354.572ZM700.565 377.198H700.723C701.658 390.949 711.506 391.161 711.506 391.161C711.506 391.161 700.646 391.381 700.646 407.27C700.646 391.381 689.787 391.161 689.787 391.161C689.787 391.161 699.631 390.949 700.565 377.198Z" fill="#E1E4E5"/>
<path d="M464.481 539.994L430.467 519.585C426.552 517.237 423.388 513.82 421.346 509.736L419.005 505.054C417.339 501.721 416.471 498.045 416.471 494.318V480.646M600.452 278.792V258.796C600.452 236.701 582.555 218.804 560.459 218.804H471.177C467.886 218.805 464.645 217.993 461.743 216.441C458.841 214.889 456.367 212.644 454.54 209.906L426.425 167.734C424.601 164.993 422.128 162.744 419.226 161.188C416.324 159.632 413.082 158.818 409.789 158.816H320.506C298.41 158.816 280.514 176.712 280.514 198.808V455.818C280.514 468.496 290.772 478.754 303.449 478.754C313.567 478.754 322.506 472.115 325.405 462.417L371.936 307.307C377.015 290.37 392.592 278.792 410.249 278.792H607.03C633.725 278.792 652.921 304.427 645.403 330.042L610.19 450.019C605.191 467.056 589.574 478.754 571.817 478.754H303.449" stroke="#E1E4E5" stroke-width="4" stroke-linecap="round" stroke-linejoin="round"/>
<path d="M520.494 523.99L503.834 477.885C501.509 471.45 497.183 465.929 491.49 462.133L455.578 438.185C453.045 436.496 450.005 435.737 446.975 436.037C443.945 436.336 441.113 437.677 438.96 439.829V439.829C433.818 444.971 433.817 453.308 438.958 458.451L456.48 475.98V491.983" stroke="#E1E4E5" stroke-width="4" stroke-linecap="round" stroke-linejoin="round"/>
<path d="M258.286 271.203H241.716C214.102 271.203 191.716 293.589 191.716 321.203V337.773C191.716 365.387 214.102 387.773 241.716 387.773H258.286C285.9 387.773 308.286 365.387 308.286 337.773V321.203C308.286 293.589 285.9 271.203 258.286 271.203Z" fill="#4F27AA"/>
<path fill-rule="evenodd" clip-rule="evenodd" d="M276.488 353.938V357.835C276.488 359.987 274.765 361.733 272.641 361.733H226.489C224.366 361.733 222.643 359.987 222.643 357.835V353.875C222.643 342.082 235.942 334.42 249.565 334.42C263.188 334.42 276.488 342.086 276.488 353.875M259.222 300.183C264.555 305.516 264.555 314.163 259.222 319.496C253.889 324.829 245.242 324.829 239.909 319.496C234.576 314.163 234.576 305.516 239.909 300.183C245.242 294.85 253.889 294.85 259.222 300.183Z" fill="white"/>
<path fill-rule="evenodd" clip-rule="evenodd" d="M546.628 117.173L522.994 93.6057C519.856 90.4789 515.607 88.7231 511.177 88.7227H451.239C442.005 88.7227 434.525 96.1807 434.525 105.389V222.056C434.525 231.264 442.005 238.723 451.239 238.723H534.811C544.045 238.723 551.525 231.264 551.525 222.056V128.956C551.525 124.539 549.762 120.298 546.628 117.173Z" fill="white" stroke="#E1E4E5" stroke-width="4"/>
<path fill-rule="evenodd" clip-rule="evenodd" d="M521.775 179.138L483.89 200.578C474.563 205.85 463.023 199.073 463.023 188.31V145.441C463.023 134.669 474.544 127.902 483.89 133.174L521.775 154.613C531.291 159.98 531.291 173.752 521.775 179.138Z" fill="#4F27AA"/>
<path fill-rule="evenodd" clip-rule="evenodd" d="M464.28 115.515L434.898 86.2631C430.994 82.3812 425.712 80.2025 420.207 80.2031H345.692C334.212 80.2031 324.913 89.4601 324.913 100.889V245.699C324.913 257.128 334.212 266.386 345.692 266.386H449.589C461.07 266.386 470.369 257.128 470.369 245.699V130.141C470.367 127.422 469.828 124.731 468.783 122.221C467.738 119.711 466.208 117.432 464.28 115.515Z" fill="white" stroke="#E1E4E5" stroke-width="4"/>
<path d="M428.041 123.84H363.361C351.231 123.84 341.398 133.673 341.398 145.803V210.483C341.398 222.613 351.231 232.446 363.361 232.446H428.041C440.171 232.446 450.004 222.613 450.004 210.483V145.803C450.004 133.673 440.171 123.84 428.041 123.84Z" fill="#4F27AA" stroke="white" stroke-width="10.982" stroke-linecap="round" stroke-linejoin="round"/>
<path d="M378.227 156.43C378.653 156.851 378.944 157.389 379.063 157.975C379.183 158.562 379.125 159.171 378.897 159.725C378.67 160.278 378.283 160.752 377.785 161.085C377.288 161.418 376.703 161.596 376.104 161.595C375.506 161.595 374.92 161.418 374.423 161.084C373.926 160.751 373.539 160.278 373.311 159.724C373.084 159.171 373.026 158.562 373.145 157.976C373.264 157.389 373.555 156.851 373.98 156.43C374.548 155.867 375.315 155.551 376.115 155.551C376.914 155.551 377.681 155.867 378.249 156.43M450.005 166.741C441.757 165.479 433.334 166.022 425.317 168.333C417.299 170.644 409.879 174.667 403.569 180.126C397.258 185.584 392.208 192.348 388.766 199.949C385.325 207.549 383.574 215.807 383.635 224.15C383.652 226.929 383.874 229.702 384.298 232.448" stroke="white" stroke-width="10.982" stroke-linecap="round" stroke-linejoin="round"/>
<path fill-rule="evenodd" clip-rule="evenodd" d="M580.767 266.925C557.755 269.983 539.971 288.978 539.971 312.205C539.971 337.554 561.095 358.11 587.145 358.11H690.928C711.769 358.11 728.667 341.667 728.667 321.386C728.667 301.106 711.769 284.663 690.928 284.663C690.928 254.237 665.586 229.578 634.319 229.578C609.439 229.578 588.362 245.213 580.767 266.925Z" fill="#4F27AA"/>
<path fill-rule="evenodd" clip-rule="evenodd" d="M220.636 493.984H216.571C216.101 493.983 215.65 493.796 215.318 493.464C214.985 493.132 214.799 492.681 214.798 492.211V488.146C214.798 487.164 215.597 486.373 216.571 486.373H220.636C221.106 486.375 221.556 486.562 221.888 486.894C222.22 487.226 222.407 487.676 222.409 488.146V492.211C222.41 492.444 222.364 492.675 222.275 492.89C222.186 493.105 222.056 493.301 221.891 493.466C221.726 493.631 221.53 493.761 221.315 493.85C221.1 493.939 220.869 493.985 220.636 493.984ZM206.545 493.984H202.481C202.011 493.982 201.561 493.795 201.229 493.463C200.896 493.131 200.709 492.681 200.707 492.211V488.146C200.707 487.164 201.506 486.373 202.481 486.373H206.545C207.015 486.375 207.465 486.562 207.797 486.894C208.13 487.226 208.317 487.676 208.319 488.146V492.211C208.319 493.185 207.519 493.984 206.545 493.984ZM192.445 493.984H188.381C187.911 493.982 187.461 493.795 187.129 493.463C186.796 493.131 186.609 492.681 186.607 492.211V488.146C186.607 487.164 187.407 486.373 188.381 486.373H192.445C192.915 486.375 193.365 486.562 193.697 486.894C194.03 487.226 194.217 487.676 194.219 488.146V492.211C194.22 492.444 194.174 492.675 194.085 492.89C193.996 493.106 193.865 493.301 193.701 493.466C193.536 493.631 193.34 493.762 193.124 493.85C192.909 493.939 192.678 493.985 192.445 493.984ZM178.354 493.984H174.29C173.82 493.982 173.37 493.795 173.038 493.463C172.705 493.131 172.518 492.681 172.516 492.211V488.146C172.516 487.164 173.316 486.373 174.29 486.373H178.354C179.337 486.373 180.136 487.172 180.136 488.146V492.211C180.131 492.681 179.941 493.131 179.608 493.462C179.275 493.794 178.824 493.981 178.354 493.984ZM164.263 493.984H160.199C159.728 493.984 159.276 493.798 158.942 493.465C158.608 493.133 158.419 492.682 158.417 492.211V488.146C158.417 487.164 159.216 486.373 160.199 486.373H164.263C164.733 486.375 165.183 486.562 165.515 486.894C165.848 487.226 166.035 487.676 166.037 488.146V492.211C166.037 493.185 165.237 493.984 164.263 493.984ZM206.028 478.62H201.964C200.99 478.62 200.19 477.82 200.19 476.846V472.773C200.19 471.799 200.99 471 201.964 471H206.028C207.011 471 207.802 471.799 207.802 472.773V476.838C207.803 477.072 207.758 477.303 207.67 477.52C207.581 477.736 207.451 477.933 207.286 478.098C207.121 478.264 206.925 478.395 206.709 478.485C206.493 478.574 206.262 478.62 206.028 478.62ZM191.937 478.62H187.873C186.899 478.62 186.099 477.82 186.099 476.846V472.773C186.099 471.799 186.899 471 187.873 471H191.937C192.407 471.002 192.857 471.189 193.189 471.521C193.522 471.853 193.709 472.303 193.711 472.773V476.838C193.712 477.072 193.667 477.303 193.579 477.52C193.49 477.736 193.36 477.933 193.195 478.098C193.03 478.264 192.834 478.395 192.618 478.485C192.402 478.574 192.171 478.62 191.937 478.62ZM177.846 478.62H173.782C172.799 478.62 172 477.82 172 476.846V472.773C172 471.799 172.799 471 173.782 471H177.846C178.316 471.002 178.766 471.189 179.098 471.521C179.431 471.853 179.618 472.303 179.62 472.773V476.838C179.62 477.82 178.82 478.62 177.846 478.62ZM192.445 510.491H188.381C187.911 510.489 187.461 510.302 187.128 509.97C186.796 509.637 186.609 509.187 186.607 508.717V504.653C186.607 503.671 187.407 502.879 188.381 502.879H192.445C193.42 502.879 194.219 503.679 194.219 504.653V508.717C194.22 508.95 194.174 509.181 194.085 509.397C193.996 509.612 193.865 509.808 193.701 509.973C193.536 510.137 193.34 510.268 193.124 510.357C192.909 510.446 192.678 510.492 192.445 510.491ZM178.354 510.491H174.29C173.82 510.489 173.37 510.302 173.037 509.97C172.705 509.637 172.518 509.187 172.516 508.717V504.653C172.516 503.671 173.316 502.879 174.29 502.879H178.354C179.337 502.879 180.136 503.679 180.136 504.653V508.717C180.131 509.187 179.942 509.637 179.608 509.969C179.275 510.301 178.824 510.488 178.354 510.491ZM727.062 493.984H722.998C722.528 493.984 722.077 493.797 721.744 493.464C721.412 493.132 721.225 492.681 721.224 492.211V488.146C721.224 487.164 722.024 486.373 722.998 486.373H727.062C727.532 486.375 727.982 486.562 728.314 486.894C728.647 487.226 728.834 487.676 728.836 488.146V492.211C728.836 492.444 728.791 492.675 728.702 492.89C728.613 493.106 728.482 493.301 728.317 493.466C728.152 493.631 727.957 493.761 727.741 493.85C727.526 493.939 727.295 493.985 727.062 493.984ZM712.971 493.984H708.907C708.437 493.982 707.987 493.795 707.655 493.463C707.322 493.131 707.135 492.681 707.133 492.211V488.146C707.133 487.164 707.933 486.373 708.907 486.373H712.971C713.441 486.375 713.891 486.562 714.223 486.894C714.556 487.226 714.743 487.676 714.745 488.146V492.211C714.743 492.681 714.556 493.131 714.223 493.463C713.891 493.795 713.441 493.982 712.971 493.984ZM698.872 493.984H694.808C694.338 493.982 693.888 493.795 693.556 493.463C693.223 493.131 693.036 492.681 693.034 492.211V488.146C693.034 487.164 693.834 486.373 694.808 486.373H698.872C699.342 486.375 699.792 486.562 700.124 486.894C700.457 487.226 700.644 487.676 700.646 488.146V492.211C700.646 492.444 700.601 492.675 700.512 492.89C700.423 493.106 700.292 493.301 700.127 493.466C699.962 493.631 699.767 493.761 699.551 493.85C699.336 493.939 699.105 493.985 698.872 493.984ZM684.781 493.984H680.717C680.247 493.982 679.797 493.795 679.465 493.463C679.132 493.131 678.945 492.681 678.943 492.211V488.146C678.943 487.164 679.742 486.373 680.717 486.373H684.781C685.764 486.373 686.563 487.172 686.563 488.146V492.211C686.558 492.681 686.368 493.13 686.035 493.462C685.701 493.794 685.251 493.981 684.781 493.984ZM670.69 493.984H666.625C666.154 493.984 665.702 493.798 665.368 493.465C665.034 493.133 664.845 492.682 664.843 492.211V488.146C664.843 487.164 665.643 486.373 666.625 486.373H670.69C671.16 486.375 671.61 486.562 671.942 486.894C672.274 487.226 672.461 487.676 672.463 488.146V492.211C672.461 492.681 672.274 493.131 671.942 493.463C671.61 493.795 671.16 493.982 670.69 493.984ZM712.455 478.62H708.391C707.921 478.618 707.471 478.431 707.138 478.099C706.806 477.766 706.619 477.316 706.617 476.846V472.773C706.619 472.303 706.806 471.853 707.139 471.521C707.471 471.189 707.921 471.002 708.391 471H712.455C713.438 471 714.229 471.799 714.229 472.773V476.838C714.23 477.072 714.185 477.303 714.097 477.52C714.008 477.736 713.878 477.933 713.713 478.098C713.548 478.264 713.352 478.395 713.136 478.485C712.92 478.574 712.689 478.62 712.455 478.62ZM698.364 478.62H694.3C693.83 478.618 693.38 478.431 693.047 478.099C692.715 477.766 692.528 477.316 692.526 476.846V472.773C692.528 472.303 692.715 471.853 693.048 471.521C693.38 471.189 693.83 471.002 694.3 471H698.364C698.834 471.002 699.284 471.189 699.616 471.521C699.949 471.853 700.136 472.303 700.138 472.773V476.838C700.139 477.072 700.094 477.303 700.006 477.52C699.917 477.736 699.786 477.932 699.622 478.098C699.457 478.263 699.261 478.395 699.045 478.484C698.829 478.574 698.598 478.62 698.364 478.62ZM684.273 478.62H680.209C679.226 478.62 678.426 477.82 678.426 476.846V472.773C678.426 471.799 679.226 471 680.209 471H684.273C684.743 471.002 685.193 471.189 685.525 471.521C685.858 471.853 686.045 472.303 686.047 472.773V476.838C686.047 477.82 685.247 478.62 684.273 478.62ZM698.872 510.491H694.808C694.338 510.489 693.888 510.302 693.555 509.97C693.223 509.637 693.036 509.187 693.034 508.717V504.653C693.034 503.671 693.834 502.879 694.808 502.879H698.872C699.846 502.879 700.646 503.679 700.646 504.653V508.717C700.647 508.95 700.601 509.181 700.512 509.397C700.423 509.612 700.292 509.808 700.128 509.973C699.963 510.137 699.767 510.268 699.552 510.357C699.336 510.446 699.105 510.492 698.872 510.491ZM684.781 510.491H680.717C680.247 510.489 679.797 510.302 679.464 509.97C679.132 509.637 678.945 509.187 678.943 508.717V504.653C678.943 503.671 679.742 502.879 680.717 502.879H684.781C685.764 502.879 686.563 503.679 686.563 504.653V508.717C686.558 509.187 686.368 509.637 686.035 509.969C685.702 510.301 685.251 510.488 684.781 510.491Z" fill="#E1E4E5"/>
</g>
<defs>
<linearGradient id="paint0_linear_1235_25918" x1="307.667" y1="396.559" x2="18.2529" y2="127.655" gradientUnits="userSpaceOnUse">
<stop stop-color="white"/>
<stop offset="1" stop-color="#EEEEEE"/>
</linearGradient>
<clipPath id="clip0_1235_25918">
<rect width="900" height="600" fill="white"/>
</clipPath>
</defs>
</svg>
