<svg width="900" height="600" viewBox="0 0 900 600" fill="none" xmlns="http://www.w3.org/2000/svg">
<g clip-path="url(#clip0_1235_25942)">
<path d="M780.369 279.464C766.406 286.391 747.874 277.485 747.874 277.485C747.874 277.485 751.993 257.353 765.963 250.436C779.926 243.51 798.451 252.406 798.451 252.406C798.451 252.406 794.332 272.538 780.369 279.464Z" fill="url(#paint0_linear_1235_25942)"/>
<path d="M168.903 253.557C183.187 262.118 203.68 254.204 203.68 254.204C203.68 254.204 201.001 232.413 186.708 223.862C172.424 215.301 151.94 223.205 151.94 223.205C151.94 223.205 154.619 244.996 168.903 253.557Z" fill="url(#paint1_linear_1235_25942)"/>
<path d="M697.212 474.539C693.255 474.539 690.048 471.332 690.048 467.375C690.048 463.418 693.255 460.211 697.212 460.211C701.169 460.211 704.376 463.418 704.376 467.375C704.376 471.332 701.169 474.539 697.212 474.539Z" fill="#E1E4E5"/>
<path d="M148.083 426.364C142.368 426.364 137.735 421.731 137.735 416.016C137.735 410.301 142.368 405.668 148.083 405.668C153.798 405.668 158.431 410.301 158.431 416.016C158.431 421.731 153.798 426.364 148.083 426.364Z" fill="#E1E4E5"/>
<path d="M765.445 439.061C761.095 439.061 757.569 435.534 757.569 431.185C757.569 426.835 761.095 423.309 765.445 423.309C769.795 423.309 773.321 426.835 773.321 431.185C773.321 435.534 769.795 439.061 765.445 439.061Z" fill="#E1E4E5"/>
<path d="M614.416 244.508C609.58 244.508 605.66 240.588 605.66 235.752C605.66 230.916 609.58 226.996 614.416 226.996C619.252 226.996 623.172 230.916 623.172 235.752C623.172 240.588 619.252 244.508 614.416 244.508Z" fill="#E1E4E5"/>
<path d="M109.726 251.328C109.726 255.67 106.206 259.191 101.863 259.191C97.5204 259.191 94 255.67 94 251.328C94 246.985 97.5204 243.465 101.863 243.465C106.206 243.465 109.726 246.985 109.726 251.328Z" fill="#E1E4E5"/>
<path d="M374.987 109.01C369.21 109.01 364.527 104.327 364.527 98.5498C364.527 92.7729 369.21 88.0898 374.987 88.0898C380.764 88.0898 385.447 92.7729 385.447 98.5498C385.447 104.327 380.764 109.01 374.987 109.01Z" fill="#E1E4E5"/>
<path d="M675.638 347.378C671.194 347.378 667.592 344.496 667.592 340.941C667.592 337.386 671.194 334.504 675.638 334.504C680.082 334.504 683.684 337.386 683.684 340.941C683.684 344.496 680.082 347.378 675.638 347.378Z" fill="#E1E4E5"/>
<path d="M587.639 94.8045C589.978 103.534 584.798 112.507 576.068 114.846C567.338 117.185 558.365 112.005 556.026 103.275C553.687 94.5455 558.868 85.5725 567.597 83.2334C576.327 80.8943 585.3 86.0749 587.639 94.8045Z" fill="#E1E4E5"/>
<path d="M177.587 141.922H177.701C178.38 151.539 185.532 151.687 185.532 151.687C185.532 151.687 177.645 151.841 177.645 162.953C177.645 151.841 169.759 151.687 169.759 151.687C169.759 151.687 176.908 151.539 177.587 141.922ZM195.63 449.98H195.74C196.391 459.569 203.258 459.716 203.258 459.716C203.258 459.716 195.686 459.87 195.686 470.949C195.686 459.87 188.114 459.716 188.114 459.716C188.114 459.716 194.978 459.569 195.63 449.98Z" fill="#E1E4E5"/>
<path d="M685.751 480.967V186.035C685.751 168.362 671.424 154.035 653.751 154.035L245.333 154.035C227.66 154.035 213.333 168.362 213.333 186.035V480.967C213.333 498.64 227.66 512.967 245.333 512.967H653.751C671.424 512.967 685.751 498.64 685.751 480.967Z" fill="white" stroke="#E1E4E5" stroke-width="4"/>
<path d="M450.215 435.19C502.591 435.19 545.05 392.73 545.05 340.355C545.05 287.979 502.591 245.52 450.215 245.52C397.839 245.52 355.38 287.979 355.38 340.355C355.38 392.73 397.839 435.19 450.215 435.19Z" fill="#4F27AA"/>
<path d="M457.969 308.149C457.969 303.866 454.497 300.395 450.215 300.395C445.933 300.395 442.461 303.866 442.461 308.149V372.565C442.461 376.847 445.933 380.319 450.215 380.319C454.497 380.319 457.969 376.847 457.969 372.565V308.149Z" fill="white"/>
<path d="M482.423 348.11C486.705 348.11 490.177 344.638 490.177 340.356C490.177 336.073 486.705 332.602 482.423 332.602H418.007C413.724 332.602 410.253 336.073 410.253 340.356C410.253 344.638 413.724 348.11 418.007 348.11H482.423Z" fill="white"/>
<path d="M765.147 490H135.061C131.747 490 129.061 492.686 129.061 496V513.709C129.061 517.023 131.747 519.709 135.061 519.709H765.147C768.461 519.709 771.147 517.023 771.147 513.709V496C771.147 492.686 768.461 490 765.147 490Z" fill="white" stroke="#E1E4E5" stroke-width="4"/>
<path fill-rule="evenodd" clip-rule="evenodd" d="M761.492 206.458C761.492 172.678 734.108 145.293 700.327 145.293H647.79C614.009 145.293 586.624 172.678 586.624 206.458C586.624 240.239 614.009 267.624 647.79 267.624H665.366L690.851 288.104C693.722 290.411 697.985 288.368 697.985 284.685V267.624H700.327C734.107 267.624 761.492 240.239 761.492 206.458Z" fill="#4F27AA"/>
<path d="M673.51 184.266H635.597C633.584 184.266 631.952 185.898 631.952 187.911V187.912C631.952 189.925 633.584 191.557 635.597 191.557H673.51C675.523 191.557 677.155 189.925 677.155 187.912V187.911C677.155 185.898 675.523 184.266 673.51 184.266Z" fill="white"/>
<path d="M697.57 203.223H635.597C633.584 203.223 631.952 204.855 631.952 206.868V206.869C631.952 208.882 633.584 210.514 635.597 210.514H697.57C699.583 210.514 701.215 208.882 701.215 206.869V206.868C701.215 204.855 699.583 203.223 697.57 203.223Z" fill="white"/>
<path d="M723.088 222.176H635.597C633.584 222.176 631.952 223.808 631.952 225.821V225.822C631.952 227.835 633.584 229.467 635.597 229.467H723.088C725.101 229.467 726.733 227.835 726.733 225.822V225.821C726.733 223.808 725.101 222.176 723.088 222.176Z" fill="white"/>
<path fill-rule="evenodd" clip-rule="evenodd" d="M335.178 220.56H330.612C330.084 220.56 329.577 220.35 329.203 219.976C328.829 219.603 328.619 219.096 328.618 218.567V214.001C328.618 212.896 329.517 212.007 330.612 212.007H335.178C336.273 212.007 337.171 212.906 337.171 214.001V218.567C337.172 218.829 337.121 219.089 337.021 219.331C336.921 219.573 336.774 219.793 336.589 219.978C336.404 220.163 336.184 220.31 335.942 220.41C335.699 220.51 335.44 220.561 335.178 220.56ZM319.345 220.56H314.779C314.251 220.559 313.745 220.348 313.372 219.975C312.998 219.601 312.788 219.095 312.786 218.567V214.001C312.786 212.896 313.684 212.007 314.779 212.007H319.345C320.44 212.007 321.339 212.906 321.339 214.001V218.567C321.337 219.095 321.126 219.601 320.753 219.975C320.379 220.348 319.873 220.559 319.345 220.56ZM303.503 220.56H298.936C298.408 220.559 297.902 220.348 297.529 219.975C297.156 219.601 296.945 219.095 296.943 218.567V214.001C296.943 212.896 297.841 212.007 298.936 212.007H303.503C304.598 212.007 305.496 212.906 305.496 214.001V218.567C305.497 218.829 305.445 219.089 305.345 219.331C305.245 219.573 305.099 219.793 304.914 219.978C304.728 220.163 304.508 220.31 304.266 220.41C304.024 220.51 303.765 220.561 303.503 220.56ZM287.67 220.56H283.103C282.575 220.559 282.069 220.348 281.696 219.975C281.323 219.601 281.112 219.095 281.11 218.567V214.001C281.11 212.896 282.008 212.007 283.103 212.007H287.67C288.774 212.007 289.672 212.906 289.672 214.001V218.567C289.667 219.096 289.454 219.601 289.079 219.974C288.705 220.347 288.199 220.557 287.67 220.56ZM271.836 220.56H267.27C266.74 220.561 266.232 220.351 265.857 219.978C265.482 219.604 265.269 219.097 265.267 218.567V214.001C265.267 212.896 266.165 212.007 267.27 212.007H271.836C272.931 212.007 273.829 212.906 273.829 214.001V218.567C273.827 219.095 273.617 219.601 273.243 219.975C272.87 220.348 272.364 220.559 271.836 220.56ZM318.765 203.296H314.198C313.67 203.295 313.164 203.084 312.791 202.711C312.418 202.337 312.207 201.831 312.205 201.303V196.727C312.207 196.199 312.418 195.694 312.791 195.32C313.164 194.947 313.67 194.736 314.198 194.734H318.765C319.869 194.734 320.758 195.632 320.758 196.727V201.294C320.76 201.557 320.709 201.817 320.61 202.06C320.51 202.303 320.364 202.524 320.178 202.71C319.993 202.896 319.773 203.044 319.53 203.145C319.288 203.245 319.028 203.297 318.765 203.296ZM302.932 203.296H298.365C297.837 203.295 297.331 203.084 296.958 202.711C296.584 202.337 296.374 201.831 296.372 201.303V196.727C296.374 196.199 296.584 195.694 296.958 195.32C297.331 194.947 297.837 194.736 298.365 194.734H302.932C303.46 194.736 303.966 194.947 304.339 195.32C304.713 195.694 304.923 196.199 304.925 196.727V201.294C304.927 201.557 304.876 201.817 304.777 202.06C304.677 202.303 304.531 202.524 304.345 202.71C304.16 202.896 303.94 203.044 303.697 203.145C303.455 203.245 303.195 203.297 302.932 203.296ZM287.099 203.296H282.532C282.003 203.296 281.495 203.087 281.12 202.713C280.744 202.34 280.532 201.833 280.53 201.303V196.727C280.53 195.632 281.428 194.734 282.532 194.734H287.099C288.193 194.734 289.092 195.632 289.092 196.727V201.294C289.092 201.824 288.882 202.331 288.509 202.707C288.135 203.082 287.628 203.294 287.099 203.296ZM303.503 239.108H298.936C298.408 239.107 297.902 238.896 297.529 238.523C297.156 238.149 296.945 237.643 296.943 237.115V232.548C296.943 231.444 297.841 230.555 298.936 230.555H303.503C304.598 230.555 305.496 231.454 305.496 232.548V237.115C305.497 237.377 305.445 237.637 305.345 237.879C305.245 238.121 305.099 238.341 304.914 238.526C304.728 238.711 304.508 238.858 304.266 238.958C304.024 239.058 303.765 239.109 303.503 239.108ZM287.67 239.108H283.103C282.575 239.107 282.069 238.896 281.696 238.523C281.323 238.149 281.112 237.643 281.11 237.115V232.548C281.11 231.444 282.008 230.555 283.103 230.555H287.67C288.774 230.555 289.672 231.454 289.672 232.548V237.115C289.667 237.644 289.454 238.149 289.079 238.522C288.705 238.895 288.199 239.105 287.67 239.108ZM561.651 426.77H566.217C567.321 426.77 568.21 427.669 568.21 428.764V433.33C568.21 433.859 567.999 434.365 567.626 434.739C567.252 435.113 566.745 435.323 566.217 435.323H561.651C561.123 435.322 560.617 435.111 560.243 434.738C559.87 434.364 559.659 433.858 559.657 433.33V428.764C559.657 428.502 559.708 428.243 559.808 428.001C559.908 427.759 560.055 427.538 560.24 427.353C560.425 427.168 560.645 427.021 560.887 426.921C561.13 426.821 561.389 426.77 561.651 426.77ZM577.483 426.77H582.05C583.145 426.77 584.043 427.669 584.043 428.764V433.33C584.043 433.859 583.832 434.365 583.459 434.739C583.085 435.113 582.578 435.323 582.05 435.323H577.483C576.955 435.321 576.449 435.111 576.076 434.737C575.703 434.364 575.492 433.858 575.49 433.33V428.764C575.49 427.669 576.389 426.77 577.483 426.77ZM593.326 426.77H597.892C598.987 426.77 599.886 427.669 599.886 428.764V433.33C599.886 433.859 599.675 434.366 599.301 434.739C598.928 435.113 598.421 435.323 597.892 435.323H593.326C592.798 435.322 592.292 435.111 591.919 434.738C591.546 434.364 591.335 433.858 591.333 433.33V428.764C591.332 428.502 591.384 428.243 591.483 428.001C591.583 427.759 591.73 427.539 591.915 427.353C592.1 427.168 592.32 427.021 592.563 426.921C592.805 426.821 593.064 426.77 593.326 426.77ZM609.159 426.77H613.726C614.821 426.77 615.719 427.669 615.719 428.764V433.33C615.719 433.859 615.508 434.365 615.135 434.739C614.761 435.113 614.255 435.323 613.726 435.323H609.159C608.63 435.323 608.122 435.114 607.747 434.74C607.371 434.367 607.159 433.86 607.157 433.33V428.764C607.163 428.236 607.376 427.731 607.75 427.358C608.125 426.985 608.631 426.774 609.159 426.77ZM624.993 426.771H629.559C630.663 426.771 631.562 427.669 631.562 428.764V433.331C631.562 433.594 631.509 433.854 631.408 434.096C631.307 434.338 631.16 434.558 630.974 434.743C630.788 434.928 630.567 435.075 630.324 435.174C630.082 435.274 629.822 435.325 629.559 435.324H624.993C624.465 435.322 623.959 435.112 623.586 434.738C623.212 434.365 623.001 433.859 622.999 433.331V428.764C622.999 427.669 623.898 426.771 624.993 426.771ZM578.064 444.035H582.63C583.725 444.035 584.624 444.933 584.624 446.028V450.604C584.622 451.132 584.411 451.638 584.038 452.012C583.664 452.385 583.158 452.596 582.63 452.597H578.064C577.536 452.597 577.029 452.387 576.655 452.013C576.282 451.639 576.072 451.133 576.071 450.604V446.037C576.069 445.775 576.12 445.514 576.219 445.271C576.319 445.028 576.465 444.808 576.651 444.621C576.836 444.435 577.056 444.288 577.299 444.187C577.541 444.087 577.802 444.035 578.064 444.035ZM593.897 444.035H598.464C598.992 444.037 599.498 444.248 599.871 444.621C600.245 444.995 600.455 445.5 600.457 446.028V450.604C600.455 451.132 600.245 451.638 599.871 452.012C599.498 452.385 598.992 452.596 598.464 452.597H593.897C593.369 452.596 592.863 452.385 592.49 452.012C592.116 451.638 591.906 451.132 591.904 450.604V446.037C591.902 445.775 591.953 445.514 592.052 445.271C592.152 445.028 592.298 444.808 592.484 444.621C592.669 444.435 592.889 444.288 593.132 444.187C593.374 444.087 593.634 444.035 593.897 444.035ZM609.73 444.035H614.297C615.401 444.035 616.299 444.933 616.299 446.028V450.604C616.297 451.134 616.085 451.641 615.71 452.014C615.334 452.388 614.827 452.597 614.297 452.597H609.73C609.202 452.596 608.696 452.385 608.323 452.012C607.949 451.638 607.739 451.132 607.737 450.604V446.037C607.737 444.933 608.635 444.035 609.73 444.035ZM593.326 408.223H597.892C598.987 408.223 599.886 409.121 599.886 410.216V414.783C599.886 415.312 599.675 415.819 599.301 416.192C598.928 416.566 598.421 416.776 597.892 416.776H593.326C592.798 416.775 592.292 416.564 591.919 416.191C591.546 415.817 591.335 415.311 591.333 414.783V410.216C591.332 409.954 591.384 409.695 591.483 409.453C591.583 409.211 591.73 408.991 591.915 408.806C592.101 408.62 592.321 408.474 592.563 408.374C592.805 408.274 593.064 408.223 593.326 408.223ZM609.159 408.223H613.726C614.254 408.225 614.76 408.436 615.133 408.809C615.507 409.183 615.717 409.688 615.719 410.216V414.783C615.719 415.312 615.508 415.818 615.135 416.192C614.761 416.566 614.255 416.776 613.726 416.776H609.159C608.63 416.776 608.122 416.567 607.747 416.193C607.371 415.82 607.159 415.313 607.157 414.783V410.216C607.163 409.688 607.376 409.183 607.75 408.81C608.125 408.437 608.631 408.226 609.159 408.223Z" fill="#E1E4E5"/>
<path fill-rule="evenodd" clip-rule="evenodd" d="M294.894 305.201L261.88 272.334C257.494 267.972 251.559 265.523 245.373 265.523H161.646C148.746 265.523 138.297 275.925 138.297 288.768V451.479C138.297 464.322 148.746 474.724 161.646 474.724H278.387C291.287 474.724 301.735 464.322 301.735 451.479V321.635C301.733 318.581 301.127 315.556 299.953 312.736C298.779 309.916 297.06 307.355 294.894 305.201Z" fill="white" stroke="#E1E4E5" stroke-width="4"/>
<path d="M256.89 314.555H178.783C166.653 314.555 156.82 324.388 156.82 336.518V414.625C156.82 426.754 166.653 436.588 178.783 436.588H256.89C269.02 436.588 278.853 426.754 278.853 414.625V336.518C278.853 324.388 269.02 314.555 256.89 314.555Z" fill="#4F27AA" stroke="white" stroke-width="10.982" stroke-linecap="round" stroke-linejoin="round"/>
<path d="M198.202 351.171C198.68 351.644 199.007 352.249 199.142 352.908C199.276 353.567 199.211 354.251 198.955 354.874C198.699 355.496 198.264 356.028 197.706 356.403C197.147 356.777 196.489 356.977 195.817 356.977C195.144 356.977 194.486 356.777 193.928 356.403C193.369 356.028 192.934 355.496 192.678 354.874C192.423 354.251 192.358 353.567 192.492 352.908C192.626 352.249 192.953 351.644 193.431 351.171C194.069 350.539 194.931 350.184 195.829 350.184C196.727 350.184 197.589 350.539 198.227 351.171M278.854 362.757C268.806 361.22 258.537 362.068 248.877 365.235C239.218 368.401 230.439 373.797 223.251 380.985C216.063 388.173 210.668 396.952 207.501 406.611C204.335 416.271 203.486 426.54 205.024 436.588" stroke="white" stroke-width="10.982" stroke-linecap="round" stroke-linejoin="round"/>
<path fill-rule="evenodd" clip-rule="evenodd" d="M675.394 411.535L658.591 394.732C655.678 391.817 654.042 387.864 654.042 383.743V355.174C654.042 353.133 654.445 351.112 655.226 349.227C656.007 347.341 657.152 345.628 658.596 344.185L675.399 327.382C676.842 325.939 678.555 324.793 680.44 324.012C682.326 323.231 684.347 322.828 686.388 322.828H714.957C716.998 322.828 719.019 323.231 720.904 324.012C722.79 324.793 724.503 325.939 725.946 327.382L742.754 344.19C745.667 347.105 747.303 351.058 747.303 355.179V383.743C747.303 387.864 745.667 391.817 742.754 394.732L725.951 411.54C724.507 412.983 722.793 414.128 720.907 414.908C719.02 415.689 716.998 416.09 714.957 416.089H686.388C684.346 416.089 682.324 415.687 680.438 414.906C678.552 414.124 676.838 412.979 675.394 411.535Z" fill="#4F27AA"/>
<path fill-rule="evenodd" clip-rule="evenodd" d="M706.32 374.169C708.754 372.908 710.693 370.866 711.828 368.371C712.962 365.876 713.225 363.072 712.574 360.409C711.921 357.746 710.393 355.379 708.235 353.687C706.077 351.995 703.413 351.077 700.671 351.078C697.929 351.077 695.266 351.995 693.108 353.687C690.95 355.379 689.422 357.746 688.769 360.409C688.119 363.072 688.382 365.876 689.516 368.371C690.65 370.866 692.59 372.908 695.023 374.169L691.347 385.155C691.245 385.462 691.218 385.789 691.267 386.108C691.316 386.428 691.441 386.731 691.63 386.993C691.82 387.256 692.069 387.469 692.357 387.616C692.645 387.762 692.964 387.839 693.287 387.838H708.039C708.363 387.839 708.682 387.762 708.97 387.616C709.258 387.469 709.507 387.256 709.696 386.993C709.886 386.731 710.01 386.428 710.059 386.108C710.109 385.789 710.081 385.462 709.979 385.155L706.32 374.169Z" fill="white"/>
</g>
<defs>
<linearGradient id="paint0_linear_1235_25942" x1="726.75" y1="301.07" x2="841.916" y2="209.973" gradientUnits="userSpaceOnUse">
<stop stop-color="white"/>
<stop offset="1" stop-color="#EEEEEE"/>
</linearGradient>
<linearGradient id="paint1_linear_1235_25942" x1="224.179" y1="281.114" x2="109.244" y2="174.325" gradientUnits="userSpaceOnUse">
<stop stop-color="white"/>
<stop offset="1" stop-color="#EEEEEE"/>
</linearGradient>
<clipPath id="clip0_1235_25942">
<rect width="900" height="600" fill="white"/>
</clipPath>
</defs>
</svg>
