<svg width="900" height="600" viewBox="0 0 900 600" fill="none" xmlns="http://www.w3.org/2000/svg">
<g clip-path="url(#clip0_1235_25970)">
<path d="M622.835 414.159C613.318 468.256 483.624 552.61 364.232 482.481C308.705 449.863 320.991 420.002 284.971 368.511C263.501 337.822 228.794 310.322 226.187 272.36C223.929 239.591 237.316 208.046 258.529 190.434C306.236 150.825 387.633 135.029 442.679 227.699C497.725 320.37 647.366 274.636 622.835 414.159Z" fill="url(#paint0_linear_1235_25970)"/>
<path d="M711.959 256.622C697.508 282.412 665.86 285.956 615.158 281.055C577.026 277.362 542.253 274.505 504.119 253.713C477.427 239.171 456.299 219.496 440.878 200.386C424.167 179.684 400.843 156.058 412.277 132.586C427.99 100.342 518.86 73.1857 607.098 117.595C704.028 166.393 726.095 231.417 711.959 256.622Z" fill="url(#paint1_linear_1235_25970)"/>
<path d="M772.743 334.808C745.52 348.312 709.388 330.948 709.388 330.948C709.388 330.948 717.418 291.698 744.656 278.213C771.879 264.708 807.996 282.053 807.996 282.053C807.996 282.053 799.966 321.304 772.743 334.808Z" fill="url(#paint2_linear_1235_25970)"/>
<path d="M129.417 235.901C158.441 253.296 200.082 237.215 200.082 237.215C200.082 237.215 194.637 192.938 165.595 175.562C136.571 158.166 94.9482 174.227 94.9482 174.227C94.9482 174.227 100.393 218.505 129.417 235.901Z" fill="url(#paint3_linear_1235_25970)"/>
<path d="M813.802 235.543C809.826 235.543 806.603 238.767 806.603 242.742C806.603 246.718 809.826 249.941 813.802 249.941C817.778 249.941 821.001 246.718 821.001 242.742C821.001 238.767 817.778 235.543 813.802 235.543Z" fill="#4F27AA"/>
<path d="M337.209 238.665C330.451 238.665 324.973 244.143 324.973 250.901C324.973 257.658 330.451 263.137 337.209 263.137C343.967 263.137 349.445 257.658 349.445 250.901C349.445 244.143 343.967 238.665 337.209 238.665Z" fill="#4F27AA"/>
<path d="M235.152 356.258C229.648 356.258 225.185 351.796 225.185 346.291C225.185 340.787 229.648 336.324 235.152 336.324C240.657 336.324 245.119 340.787 245.119 346.291C245.119 351.796 240.657 356.258 235.152 356.258Z" fill="#4F27AA"/>
<path d="M689.451 327.967C685.86 327.967 682.948 325.055 682.948 321.464C682.948 317.872 685.86 314.961 689.451 314.961C693.043 314.961 695.954 317.872 695.954 321.464C695.954 325.055 693.043 327.967 689.451 327.967Z" fill="#4F27AA"/>
<path d="M682.714 530.531C678.097 530.531 674.353 526.787 674.353 522.17C674.353 517.552 678.097 513.809 682.714 513.809C687.332 513.809 691.075 517.552 691.075 522.17C691.075 526.787 687.332 530.531 682.714 530.531Z" fill="#E1E4E5"/>
<path d="M160.262 448.4C153.592 448.4 148.185 442.993 148.185 436.323C148.185 429.653 153.592 424.246 160.262 424.246C166.932 424.246 172.339 429.653 172.339 436.323C172.339 442.993 166.932 448.4 160.262 448.4Z" fill="#E1E4E5"/>
<path d="M725.293 448.693C720.216 448.693 716.101 444.577 716.101 439.501C716.101 434.424 720.216 430.309 725.293 430.309C730.369 430.309 734.485 434.424 734.485 439.501C734.485 444.577 730.369 448.693 725.293 448.693Z" fill="#E1E4E5"/>
<path d="M703.218 171.614C697.574 171.614 692.999 167.039 692.999 161.395C692.999 155.751 697.574 151.176 703.218 151.176C708.862 151.176 713.437 155.751 713.437 161.395C713.437 167.039 708.862 171.614 703.218 171.614Z" fill="#E1E4E5"/>
<path d="M196.798 243.036C198.109 247.931 195.204 252.964 190.309 254.275C185.413 255.587 180.381 252.682 179.069 247.786C177.757 242.891 180.663 237.858 185.558 236.547C190.454 235.235 195.486 238.14 196.798 243.036Z" fill="#E1E4E5"/>
<path d="M382.108 109.963C375.366 109.963 369.9 104.497 369.9 97.7549C369.9 91.0126 375.366 85.5469 382.108 85.5469C388.85 85.5469 394.316 91.0126 394.316 97.7549C394.316 104.497 388.85 109.963 382.108 109.963Z" fill="#E1E4E5"/>
<path d="M691.837 396.1C686.651 396.1 682.446 392.737 682.446 388.587C682.446 384.438 686.651 381.074 691.837 381.074C697.024 381.074 701.228 384.438 701.228 388.587C701.228 392.737 697.024 396.1 691.837 396.1Z" fill="#E1E4E5"/>
<path d="M631.303 75.9237C631.303 84.7117 624.179 91.8357 615.391 91.8357C606.603 91.8357 599.479 84.7117 599.479 75.9237C599.479 67.1358 606.603 60.0117 615.391 60.0117C624.179 60.0117 631.303 67.1358 631.303 75.9237Z" fill="#E1E4E5"/>
<path d="M229.738 182.156H229.872C230.664 193.38 239.012 193.553 239.012 193.553C239.012 193.553 229.807 193.733 229.807 206.702C229.807 193.733 220.602 193.553 220.602 193.553C220.602 193.553 228.946 193.38 229.738 182.156ZM215.754 475.962H215.882C216.643 487.153 224.657 487.325 224.657 487.325C224.657 487.325 215.82 487.504 215.82 500.435C215.82 487.504 206.982 487.325 206.982 487.325C206.982 487.325 214.993 487.153 215.754 475.962Z" fill="#E1E4E5"/>
<path d="M557.129 62.607C556.539 62.395 555.942 62.2028 555.339 62.031C555.139 61.974 554.941 61.913 554.741 61.861C554.529 61.807 554.316 61.756 554.104 61.704C553.682 61.5987 553.257 61.5066 552.829 61.428C552.397 61.3477 551.963 61.275 551.528 61.21C551.088 61.1478 550.647 61.0951 550.205 61.052C549.912 61.0254 549.619 61.0034 549.325 60.986C549.17 60.976 549.015 60.961 548.861 60.956C548.406 60.934 547.951 60.9227 547.495 60.922H337.629C336.186 60.918 334.746 61.0274 333.32 61.249C332.854 61.3209 332.39 61.4039 331.928 61.498C319.951 63.95 310.733 73.991 309.477 86.386C309.379 87.3499 309.331 88.3181 309.331 89.287V519.257C309.331 531.535 317.111 541.987 328.001 545.937C328.05 545.955 328.098 545.971 328.147 545.986C328.687 546.177 329.236 546.353 329.788 546.51C329.989 546.568 330.186 546.628 330.389 546.68C330.602 546.734 330.814 546.786 331.026 546.838C331.242 546.889 331.46 546.941 331.679 546.989C331.885 547.035 332.092 547.074 332.301 547.113C332.535 547.159 332.768 547.201 333.002 547.238C333.202 547.271 333.399 547.301 333.6 547.332C333.851 547.368 334.106 547.398 334.364 547.429C334.549 547.45 334.734 547.471 334.923 547.489C335.214 547.517 335.508 547.538 335.802 547.556C335.957 547.565 336.112 547.58 336.267 547.586C336.719 547.608 337.174 547.62 337.632 547.62H547.501C548.478 547.62 549.443 547.571 550.396 547.474C563.714 546.119 574.303 535.503 575.657 522.152C575.754 521.197 575.802 520.23 575.802 519.251V89.287C575.796 77.01 568.016 66.557 557.129 62.607Z" fill="white" stroke="#E1E4E5" stroke-width="4" stroke-linecap="round" stroke-linejoin="round"/>
<path d="M442.563 524.516C451.574 524.516 458.878 517.212 458.878 508.201C458.878 499.191 451.574 491.887 442.563 491.887C433.553 491.887 426.249 499.191 426.249 508.201C426.249 517.212 433.553 524.516 442.563 524.516Z" fill="white" stroke="#E1E4E5" stroke-width="4" stroke-linecap="round" stroke-linejoin="round"/>
<path d="M468.394 82.6719H418.092C416.59 82.6719 415.373 83.8892 415.373 85.3909C415.373 86.8925 416.59 88.1099 418.092 88.1099H468.394C469.896 88.1099 471.113 86.8925 471.113 85.3909C471.113 83.8892 469.896 82.6719 468.394 82.6719Z" fill="#E1E4E5"/>
<path fill-rule="evenodd" clip-rule="evenodd" d="M495.585 216.586C495.585 230.828 489.928 244.488 479.858 254.559C469.786 264.63 456.127 270.287 441.884 270.287C427.642 270.287 413.982 264.63 403.911 254.559C393.84 244.488 388.182 230.828 388.182 216.585C388.182 202.343 393.84 188.683 403.911 178.612C413.982 168.541 427.641 162.883 441.884 162.883C456.127 162.883 469.787 168.541 479.858 178.612C489.928 188.684 495.585 202.343 495.585 216.586Z" fill="white" stroke="#E1E4E5" stroke-width="4" stroke-linecap="round" stroke-linejoin="round"/>
<path fill-rule="evenodd" clip-rule="evenodd" d="M495.585 216.586C495.585 230.828 489.928 244.488 479.858 254.559C469.786 264.63 456.127 270.287 441.884 270.287C427.642 270.287 413.982 264.63 403.911 254.559C393.84 244.488 388.182 230.828 388.182 216.585C388.182 202.343 393.84 188.683 403.911 178.612C413.982 168.541 427.641 162.883 441.884 162.883C456.127 162.883 469.787 168.541 479.858 178.612C489.928 188.684 495.585 202.343 495.585 216.586Z" fill="white" stroke="#E1E4E5" stroke-width="4" stroke-linecap="round" stroke-linejoin="round"/>
<path d="M425.649 207.842C429.328 207.842 432.31 204.859 432.31 201.181C432.31 197.502 429.328 194.52 425.649 194.52C421.97 194.52 418.988 197.502 418.988 201.181C418.988 204.859 421.97 207.842 425.649 207.842Z" fill="#E1E4E5" stroke="#E1E4E5" stroke-width="4" stroke-linecap="round" stroke-linejoin="round"/>
<path d="M425.649 207.842C429.328 207.842 432.31 204.859 432.31 201.181C432.31 197.502 429.328 194.52 425.649 194.52C421.97 194.52 418.988 197.502 418.988 201.181C418.988 204.859 421.97 207.842 425.649 207.842Z" fill="#E1E4E5" stroke="#E1E4E5" stroke-width="4" stroke-linecap="round" stroke-linejoin="round"/>
<path fill-rule="evenodd" clip-rule="evenodd" d="M493.087 213.399C490.796 213.046 488.482 212.858 486.164 212.837C472.19 212.736 458.876 218.863 449.74 229.599C440.604 240.334 436.566 254.597 438.694 268.618" fill="white"/>
<path d="M493.087 213.399C490.796 213.046 488.482 212.858 486.164 212.837C472.19 212.736 458.876 218.863 449.74 229.599C440.604 240.334 436.566 254.597 438.694 268.618" stroke="#E1E4E5" stroke-width="4" stroke-linecap="round" stroke-linejoin="round"/>
<path fill-rule="evenodd" clip-rule="evenodd" d="M493.087 213.399C490.796 213.046 488.482 212.858 486.164 212.837C472.19 212.736 458.876 218.863 449.74 229.599C440.604 240.334 436.566 254.597 438.694 268.618" fill="white"/>
<path d="M493.087 213.399C490.796 213.046 488.482 212.858 486.164 212.837C472.19 212.736 458.876 218.863 449.74 229.599C440.604 240.334 436.566 254.597 438.694 268.618" stroke="#E1E4E5" stroke-width="4" stroke-linecap="round" stroke-linejoin="round"/>
<path d="M515.977 376.328H375.947C372.943 376.328 370.509 378.763 370.509 381.766C370.509 384.769 372.943 387.204 375.947 387.204H515.977C518.98 387.204 521.415 384.769 521.415 381.766C521.415 378.763 518.98 376.328 515.977 376.328Z" fill="white" stroke="#E1E4E5" stroke-width="4" stroke-linecap="round" stroke-linejoin="round"/>
<path d="M515.977 343.699H386.823C383.819 343.699 381.385 346.134 381.385 349.137C381.385 352.141 383.819 354.575 386.823 354.575H515.977C518.98 354.575 521.415 352.141 521.415 349.137C521.415 346.134 518.98 343.699 515.977 343.699Z" fill="white" stroke="#E1E4E5" stroke-width="4" stroke-linecap="round" stroke-linejoin="round"/>
<path d="M515.978 311.07H369.15C366.147 311.07 363.712 313.505 363.712 316.508C363.712 319.512 366.147 321.946 369.15 321.946H515.978C518.981 321.946 521.416 319.512 521.416 316.508C521.416 313.505 518.981 311.07 515.978 311.07Z" fill="white" stroke="#E1E4E5" stroke-width="4" stroke-linecap="round" stroke-linejoin="round"/>
<path fill-rule="evenodd" clip-rule="evenodd" d="M778.582 359.958L742.029 323.568C737.173 318.738 730.602 316.027 723.753 316.027H631.052C616.77 316.027 605.202 327.544 605.202 341.763V521.914C605.202 536.133 616.77 547.649 631.052 547.649H760.306C774.588 547.649 786.156 536.133 786.156 521.914V378.153C786.154 374.771 785.483 371.423 784.183 368.301C782.884 365.178 780.98 362.343 778.582 359.958Z" fill="white" stroke="#E1E4E5" stroke-width="4"/>
<path fill-rule="evenodd" clip-rule="evenodd" d="M731.329 451.318L684.199 477.99C672.595 484.549 658.24 476.117 658.24 462.729V409.397C658.24 395.996 672.572 387.577 684.199 394.136L731.329 420.808C743.168 427.484 743.168 444.618 731.329 451.318Z" fill="#4F27AA"/>
<path d="M695.935 285.784C746.046 285.784 786.669 245.161 786.669 195.05C786.669 144.939 746.046 104.316 695.935 104.316C645.824 104.316 605.201 144.939 605.201 195.05C605.201 245.161 645.824 285.784 695.935 285.784Z" fill="#4F27AA"/>
<path d="M674.343 224.845H666.275C665.078 224.845 663.931 224.369 663.085 223.523C662.239 222.676 661.763 221.529 661.763 220.332V188.762C661.763 187.565 662.239 186.418 663.085 185.572C663.931 184.726 665.079 184.25 666.275 184.25H674.343C675.54 184.25 676.687 184.726 677.534 185.572C678.38 186.418 678.856 187.565 678.856 188.762V220.332C678.856 221.529 678.38 222.677 677.534 223.523C676.688 224.369 675.54 224.845 674.343 224.845V224.845Z" stroke="white" stroke-width="4" stroke-linecap="round" stroke-linejoin="round"/>
<path d="M678.855 188.831L694.448 168.53C697.349 164.748 703.016 164.654 706.045 168.333C707.176 169.706 707.795 171.43 707.793 173.209V187.186H721.023C722.287 187.186 723.531 187.498 724.646 188.093C725.761 188.689 726.712 189.55 727.415 190.6L728.821 192.698C729.444 193.629 729.856 194.684 730.029 195.791C730.202 196.897 730.131 198.028 729.821 199.104L724.014 219.282C723.553 220.885 722.582 222.295 721.25 223.298C719.917 224.302 718.294 224.845 716.626 224.845H689.752C688.695 224.845 687.649 224.628 686.68 224.206C685.711 223.784 684.84 223.166 684.12 222.392L678.855 216.726" stroke="white" stroke-width="4" stroke-linecap="round" stroke-linejoin="round"/>
<path fill-rule="evenodd" clip-rule="evenodd" d="M171.282 312.91V315.732C171.282 325.514 179.215 333.447 189.005 333.447C198.794 333.447 206.727 325.514 206.727 315.725V312.902" fill="white"/>
<path d="M171.282 312.91V315.732C171.282 325.514 179.215 333.447 189.005 333.447C198.794 333.447 206.727 325.514 206.727 315.725V312.902" stroke="#E1E4E5" stroke-width="4" stroke-linecap="round" stroke-linejoin="round"/>
<path fill-rule="evenodd" clip-rule="evenodd" d="M204.829 171.367V163.473C204.829 154.771 197.686 147.711 188.862 147.711C180.038 147.711 172.895 154.771 172.895 163.473V171.367" fill="white"/>
<path d="M204.829 171.367V163.473C204.829 154.771 197.686 147.711 188.862 147.711C180.038 147.711 172.895 154.771 172.895 163.473V171.367" stroke="#E1E4E5" stroke-width="4" stroke-linecap="round" stroke-linejoin="round"/>
<path fill-rule="evenodd" clip-rule="evenodd" d="M128.361 222.12C128.361 194.202 150.992 171.582 178.899 171.582H199.121C227.039 171.582 249.659 194.213 249.659 222.12V253.317C249.661 259.233 252.012 264.906 256.195 269.089L263.345 276.238C267.528 280.421 269.879 286.094 269.881 292.01C269.881 303.655 260.445 313.091 248.8 313.091H129.22C117.575 313.091 108.139 303.655 108.139 292.01C108.141 286.094 110.492 280.421 114.675 276.238L121.824 269.089C126.008 264.906 128.359 259.233 128.361 253.317V222.12Z" fill="white" stroke="#E1E4E5" stroke-width="4" stroke-linecap="round" stroke-linejoin="round"/>
<path d="M189.668 547.464C239.779 547.464 280.402 506.841 280.402 456.73C280.402 406.619 239.779 365.996 189.668 365.996C139.557 365.996 98.9341 406.619 98.9341 456.73C98.9341 506.841 139.557 547.464 189.668 547.464Z" fill="#4F27AA"/>
<path d="M196.243 431.747C196.243 428.116 193.299 425.172 189.668 425.172C186.036 425.172 183.093 428.116 183.093 431.747V481.716C183.093 485.347 186.036 488.291 189.668 488.291C193.299 488.291 196.243 485.347 196.243 481.716V431.747Z" fill="white"/>
<path d="M214.652 463.306C218.283 463.306 221.227 460.363 221.227 456.731C221.227 453.1 218.283 450.156 214.652 450.156H164.683C161.052 450.156 158.108 453.1 158.108 456.731C158.108 460.363 161.052 463.306 164.683 463.306H214.652Z" fill="white"/>
</g>
<defs>
<linearGradient id="paint0_linear_1235_25970" x1="423.573" y1="705.371" x2="433.07" y2="-221.489" gradientUnits="userSpaceOnUse">
<stop stop-color="white"/>
<stop offset="1" stop-color="#EEEEEE"/>
</linearGradient>
<linearGradient id="paint1_linear_1235_25970" x1="614.611" y1="423.764" x2="485.811" y2="-155.01" gradientUnits="userSpaceOnUse">
<stop stop-color="white"/>
<stop offset="1" stop-color="#EEEEEE"/>
</linearGradient>
<linearGradient id="paint2_linear_1235_25970" x1="668.204" y1="376.931" x2="892.74" y2="199.322" gradientUnits="userSpaceOnUse">
<stop stop-color="white"/>
<stop offset="1" stop-color="#EEEEEE"/>
</linearGradient>
<linearGradient id="paint3_linear_1235_25970" x1="241.733" y1="291.896" x2="8.19327" y2="74.9063" gradientUnits="userSpaceOnUse">
<stop stop-color="white"/>
<stop offset="1" stop-color="#EEEEEE"/>
</linearGradient>
<clipPath id="clip0_1235_25970">
<rect width="900" height="600" fill="white"/>
</clipPath>
</defs>
</svg>
