<svg width="900" height="600" viewBox="0 0 900 600" fill="none" xmlns="http://www.w3.org/2000/svg">
<g clip-path="url(#clip0_1235_26016)">
<path d="M704.669 410.495C691.435 477.692 512.566 582.472 348.239 495.362C271.813 454.845 288.806 417.752 239.298 353.792C209.787 315.671 162.035 281.512 158.528 234.357C155.491 193.654 174.006 154.469 203.27 132.592C269.085 83.3918 381.261 63.7708 456.889 178.882C532.516 293.993 738.779 237.186 704.669 410.495Z" fill="url(#paint0_linear_1235_26016)"/>
<path fill-rule="evenodd" clip-rule="evenodd" d="M675.598 170.394V108.697C675.598 74.623 647.976 47 613.901 47H305.416C271.342 47 243.719 74.623 243.719 108.697V262.94" fill="white"/>
<path d="M675.598 170.394V108.697C675.598 74.623 647.976 47 613.901 47H305.416C271.342 47 243.719 74.623 243.719 108.697V262.94" stroke="#E1E4E5" stroke-width="4.13"/>
<path fill-rule="evenodd" clip-rule="evenodd" d="M243.719 181.183H443.155C448.232 181.184 453.232 179.931 457.709 177.536C462.186 175.141 466.003 171.679 468.821 167.455L512.102 102.396C514.925 98.1533 518.755 94.6761 523.25 92.2752C527.744 89.8742 532.764 88.6242 537.86 88.6368H675.599C709.673 88.6368 737.296 116.26 737.296 150.334V458.82C737.296 492.894 709.673 520.517 675.599 520.517H243.719C209.645 520.517 182.022 492.894 182.022 458.82V242.88C182.022 208.806 209.645 181.183 243.719 181.183Z" fill="#4F27AA" stroke="#4F27AA" stroke-width="4.13"/>
<path d="M754.167 528.794C747.096 528.794 741.364 523.322 741.364 516.573C741.364 509.823 747.096 504.352 754.167 504.352C761.238 504.352 766.97 509.823 766.97 516.573C766.97 523.322 761.238 528.794 754.167 528.794Z" fill="#E1E4E5"/>
<path d="M268.972 552.874C265.882 552.874 263.377 550.369 263.377 547.279C263.377 544.189 265.882 541.684 268.972 541.684C272.062 541.684 274.567 544.189 274.567 547.279C274.567 550.369 272.062 552.874 268.972 552.874Z" fill="#E1E4E5"/>
<path d="M342.74 134.146C338.325 134.146 334.747 130.568 334.747 126.153C334.747 121.739 338.325 118.16 342.74 118.16C347.154 118.16 350.733 121.739 350.733 126.153C350.733 130.568 347.154 134.146 342.74 134.146Z" fill="#E1E4E5"/>
<path d="M128.111 409.763C129.228 413.93 126.755 418.213 122.588 419.33C118.421 420.446 114.138 417.973 113.022 413.807C111.905 409.64 114.378 405.357 118.545 404.24C122.712 403.124 126.995 405.596 128.111 409.763Z" fill="#E1E4E5"/>
<path d="M765.95 208.393C761.535 208.393 757.957 205.531 757.957 201.999C757.957 198.468 761.535 195.605 765.95 195.605C770.364 195.605 773.943 198.468 773.943 201.999C773.943 205.531 770.364 208.393 765.95 208.393Z" fill="#E1E4E5"/>
<path d="M140.776 470.659H140.985C142.223 488.203 155.271 488.473 155.271 488.473C155.271 488.473 140.883 488.753 140.883 509.025C140.883 488.753 126.496 488.473 126.496 488.473C126.496 488.473 139.538 488.203 140.776 470.659ZM773.665 276.219H773.883C775.169 294.745 788.729 295.03 788.729 295.03C788.729 295.03 773.777 295.327 773.777 316.734C773.777 295.327 758.825 295.03 758.825 295.03C758.825 295.03 772.379 294.745 773.665 276.219Z" fill="#E1E4E5"/>
<path d="M492.821 391.297H425.125" stroke="white" stroke-width="10" stroke-linecap="round" stroke-linejoin="round"/>
<path d="M419.946 387.983C399.908 373.824 387.892 349.103 392.123 321.889C396.704 292.476 421.221 268.996 450.793 265.533C491.839 260.715 526.669 292.667 526.669 332.743C526.669 355.591 515.319 375.753 497.977 388.006C494.863 390.206 492.821 393.613 492.821 397.427V428.646C492.821 444.227 480.196 456.853 464.614 456.853H453.332C437.75 456.853 425.125 444.227 425.125 428.646V397.472C425.125 393.625 423.072 390.195 419.946 387.983V387.983Z" stroke="white" stroke-width="10" stroke-linecap="round" stroke-linejoin="round"/>
<path d="M549.235 276.331L562.661 262.904M379.995 265.048L366.569 251.621M459.852 238.465V219.477M560.518 332.744H579.585M338.362 332.744H357.43M419.128 413.344H497.741M419.128 435.42H497.741" stroke="white" stroke-width="10" stroke-linecap="round" stroke-linejoin="round"/>
</g>
<defs>
<linearGradient id="paint0_linear_1235_26016" x1="429.489" y1="772.225" x2="440.127" y2="-379.123" gradientUnits="userSpaceOnUse">
<stop stop-color="white"/>
<stop offset="1" stop-color="#EEEEEE"/>
</linearGradient>
<clipPath id="clip0_1235_26016">
<rect width="900" height="600" fill="white"/>
</clipPath>
</defs>
</svg>
