<svg width="900" height="600" viewBox="0 0 900 600" fill="none" xmlns="http://www.w3.org/2000/svg">
<g clip-path="url(#clip0_1235_18566)">
<path d="M203.541 156.802C263.741 80.8706 391.666 49.1015 477.186 162.929C549.726 259.476 581.329 264.999 636.464 283.367C672.871 295.502 732.443 311.942 697.729 405.851C652.295 528.761 427.528 561.961 304.631 516.082C187.107 472.215 94.2869 294.591 203.541 156.802Z" fill="url(#paint0_linear_1235_18566)"/>
<path d="M502.326 139.017C529.916 186.861 582.17 248.478 669.167 273.476C756.164 298.459 771.657 247.293 745.434 187.812C719.211 128.332 654.86 75.965 575.017 64.067C495.173 52.167 479.679 99.749 502.326 139.017Z" fill="url(#paint1_linear_1235_18566)"/>
<path fill-rule="evenodd" clip-rule="evenodd" d="M589.817 206.723H610.641C633.65 206.723 652.288 225.381 652.288 248.37V437.031C652.288 460.041 633.65 478.678 610.641 478.678H319.111C296.101 478.678 277.464 460.041 277.464 437.031V187.149C277.464 164.139 296.101 145.502 319.111 145.502H412.213C415.604 145.503 418.944 146.332 421.942 147.918C424.939 149.504 427.504 151.799 429.413 154.602L458.671 197.602C460.579 200.412 463.147 202.712 466.148 204.302C469.15 205.892 472.495 206.723 475.892 206.723H506.523" fill="#4F27AA"/>
<path fill-rule="evenodd" clip-rule="evenodd" d="M569.291 191.908H527.049C515.39 191.908 505.928 201.237 505.928 212.731V316.849L548.17 296.025L590.412 316.849V212.731C590.412 201.237 580.949 191.908 569.291 191.908Z" fill="white"/>
<path d="M222.659 156.909L207.67 141.92C203.023 137.273 195.489 137.273 190.842 141.92L175.853 156.909C171.206 161.556 171.206 169.09 175.853 173.737L190.842 188.726C195.489 193.373 203.023 193.373 207.67 188.726L222.659 173.737C227.306 169.09 227.306 161.556 222.659 156.909Z" fill="#4F27AA"/>
<path d="M727.891 269.791L726.483 268.383C721.836 263.736 714.302 263.736 709.655 268.383L708.246 269.791C703.6 274.438 703.6 281.972 708.246 286.619L709.655 288.027C714.302 292.674 721.836 292.674 726.483 288.027L727.891 286.619C732.538 281.972 732.538 274.438 727.891 269.791Z" fill="#4F27AA"/>
<path d="M196.71 254.973H196.399C194.555 280.547 175.132 280.94 175.132 280.94C175.132 280.94 196.55 281.35 196.55 310.899C196.55 281.35 217.969 280.94 217.969 280.94C217.969 280.94 198.553 280.547 196.71 254.973Z" fill="#E1E4E5"/>
<path d="M439.292 247.834H316.732C313.446 247.834 310.782 250.498 310.782 253.783C310.782 257.069 313.446 259.733 316.732 259.733H439.292C442.578 259.733 445.242 257.069 445.242 253.783C445.242 250.498 442.578 247.834 439.292 247.834Z" fill="white"/>
<path d="M398.24 272.822H317.327C313.713 272.822 310.782 275.752 310.782 279.367C310.782 282.981 313.713 285.911 317.327 285.911H398.24C401.855 285.911 404.785 282.981 404.785 279.367C404.785 275.752 401.855 272.822 398.24 272.822Z" fill="white"/>
<path d="M398.24 299H317.327C313.713 299 310.782 301.93 310.782 305.544C310.782 309.159 313.713 312.089 317.327 312.089H398.24C401.855 312.089 404.785 309.159 404.785 305.544C404.785 301.93 401.855 299 398.24 299Z" fill="white"/>
<path d="M334.031 413.87L308.59 439.311C307.664 440.237 307.664 441.739 308.59 442.666C309.517 443.592 311.019 443.592 311.945 442.666L337.386 417.225C338.312 416.298 338.312 414.796 337.386 413.87C336.46 412.944 334.958 412.944 334.031 413.87Z" fill="#2E2445"/>
<path d="M354.847 413.87L329.406 439.311C328.48 440.237 328.48 441.739 329.406 442.666C330.333 443.592 331.834 443.592 332.761 442.666L358.202 417.225C359.128 416.298 359.128 414.796 358.202 413.87C357.275 412.944 355.774 412.944 354.847 413.87Z" fill="#2E2445"/>
<path d="M376.966 413.87L351.525 439.311C350.599 440.237 350.599 441.739 351.525 442.666C352.452 443.592 353.954 443.592 354.88 442.666L380.321 417.225C381.247 416.298 381.247 414.796 380.321 413.87C379.395 412.944 377.893 412.944 376.966 413.87Z" fill="#2E2445"/>
<path d="M170.097 342.311L144.656 367.752C143.73 368.679 143.73 370.181 144.656 371.107C145.583 372.033 147.084 372.033 148.011 371.107L173.452 345.666C174.378 344.74 174.378 343.238 173.452 342.311C172.525 341.385 171.024 341.385 170.097 342.311Z" fill="#E1E4E5"/>
<path d="M510.974 109.421L485.533 134.862C484.607 135.788 484.607 137.29 485.533 138.216C486.46 139.143 487.961 139.143 488.888 138.216L514.329 112.775C515.255 111.849 515.255 110.347 514.329 109.421C513.402 108.494 511.901 108.494 510.974 109.421Z" fill="#E1E4E5"/>
<path d="M719.144 327.999L693.703 353.44C692.777 354.366 692.777 355.868 693.703 356.794C694.629 357.721 696.131 357.721 697.058 356.794L722.499 331.353C723.425 330.427 723.425 328.925 722.499 327.999C721.572 327.073 720.07 327.073 719.144 327.999Z" fill="#E1E4E5"/>
<path d="M686.618 109.421L661.177 134.862C660.251 135.788 660.251 137.29 661.177 138.216C662.104 139.143 663.605 139.143 664.532 138.216L689.973 112.775C690.899 111.849 690.899 110.347 689.973 109.421C689.046 108.494 687.545 108.494 686.618 109.421Z" fill="#E1E4E5"/>
<path d="M167.605 360.527L160.268 367.864C159.342 368.79 159.342 370.292 160.268 371.218C161.194 372.145 162.696 372.145 163.623 371.218L170.96 363.881C171.886 362.955 171.886 361.453 170.96 360.527C170.033 359.601 168.531 359.6 167.605 360.527Z" fill="#E1E4E5"/>
<path d="M508.484 127.636L501.147 134.973C500.221 135.899 500.221 137.401 501.147 138.328C502.074 139.254 503.576 139.254 504.502 138.328L511.839 130.991C512.765 130.064 512.765 128.562 511.839 127.636C510.913 126.71 509.411 126.71 508.484 127.636Z" fill="#E1E4E5"/>
<path d="M716.654 346.214L709.317 353.551C708.391 354.478 708.391 355.979 709.317 356.906C710.244 357.832 711.746 357.832 712.672 356.906L720.009 349.569C720.935 348.643 720.935 347.141 720.009 346.214C719.083 345.288 717.581 345.288 716.654 346.214Z" fill="#E1E4E5"/>
<path d="M684.127 127.636L676.79 134.973C675.864 135.899 675.864 137.401 676.79 138.328C677.716 139.254 679.218 139.254 680.145 138.328L687.482 130.991C688.408 130.064 688.408 128.563 687.481 127.636C686.555 126.71 685.053 126.71 684.127 127.636Z" fill="#E1E4E5"/>
<path d="M585.217 455.064C595.202 455.076 609.572 452.476 621.342 441.131C633.111 429.785 626.495 422.735 614.811 421.457C603.127 420.179 589.114 425.507 580.041 436.918C570.968 448.329 577.022 455.055 585.217 455.064Z" fill="url(#paint2_linear_1235_18566)"/>
<path d="M576.469 149.205C592.838 159.375 616.696 150.597 616.696 150.597C616.696 150.597 613.999 125.334 597.62 115.175C581.251 105.005 557.403 113.771 557.403 113.771C557.403 113.771 560.1 139.034 576.469 149.205Z" fill="white"/>
<path d="M431.558 520.324C436.486 520.324 440.482 516.595 440.482 511.995C440.482 507.395 436.486 503.666 431.558 503.666C426.629 503.666 422.634 507.395 422.634 511.995C422.634 516.595 426.629 520.324 431.558 520.324Z" fill="#E1E4E5"/>
<path d="M192.98 433.46C197.58 433.46 201.309 429.998 201.309 425.726C201.309 421.455 197.58 417.992 192.98 417.992C188.38 417.992 184.651 421.455 184.651 425.726C184.651 429.998 188.38 433.46 192.98 433.46Z" fill="#E1E4E5"/>
</g>
<defs>
<linearGradient id="paint0_linear_1235_18566" x1="443.356" y1="786.636" x2="432.2" y2="-398.374" gradientUnits="userSpaceOnUse">
<stop stop-color="white"/>
<stop offset="1" stop-color="#EEEEEE"/>
</linearGradient>
<linearGradient id="paint1_linear_1235_18566" x1="630.552" y1="402.047" x2="625.017" y2="-174.698" gradientUnits="userSpaceOnUse">
<stop stop-color="white"/>
<stop offset="1" stop-color="#EEEEEE"/>
</linearGradient>
<linearGradient id="paint2_linear_1235_18566" x1="637.994" y1="458.797" x2="547.156" y2="407.509" gradientUnits="userSpaceOnUse">
<stop stop-color="white"/>
<stop offset="1" stop-color="#EEEEEE"/>
</linearGradient>
<clipPath id="clip0_1235_18566">
<rect width="900" height="600" fill="white"/>
</clipPath>
</defs>
</svg>
