<svg width="900" height="600" viewBox="0 0 900 600" fill="none" xmlns="http://www.w3.org/2000/svg">
<g clip-path="url(#clip0_1235_26031)">
<path d="M734.038 290.631C709.098 303.003 675.996 287.095 675.996 287.095C675.996 287.095 683.353 251.136 708.306 238.781C733.247 226.409 766.335 242.3 766.335 242.3C766.335 242.3 758.979 278.259 734.038 290.631Z" fill="url(#paint0_linear_1235_26031)"/>
<path d="M184.523 202.419C198.962 211.073 219.678 203.073 219.678 203.073C219.678 203.073 216.97 181.045 202.521 172.401C188.082 163.747 167.375 171.737 167.375 171.737C167.375 171.737 170.084 193.765 184.523 202.419Z" fill="url(#paint1_linear_1235_26031)"/>
<path d="M665.499 363.784C657.978 363.784 651.881 369.881 651.881 377.402C651.881 384.923 657.978 391.02 665.499 391.02C673.02 391.02 679.117 384.923 679.117 377.402C679.117 369.881 673.02 363.784 665.499 363.784Z" fill="#4F27AA"/>
<path d="M203.837 291.631C197.646 291.631 192.627 296.65 192.627 302.841C192.627 309.032 197.646 314.051 203.837 314.051C210.028 314.051 215.047 309.032 215.047 302.841C215.047 296.65 210.028 291.631 203.837 291.631Z" fill="#4F27AA"/>
<path d="M232.858 437.319C225.807 437.319 220.091 431.603 220.091 424.552C220.091 417.501 225.807 411.785 232.858 411.785C239.909 411.785 245.625 417.501 245.625 424.552C245.625 431.603 239.909 437.319 232.858 437.319Z" fill="#4F27AA"/>
<path d="M657.463 244.041C654.172 244.041 651.505 241.374 651.505 238.083C651.505 234.792 654.172 232.125 657.463 232.125C660.753 232.125 663.421 234.792 663.421 238.083C663.421 241.374 660.753 244.041 657.463 244.041Z" fill="#4F27AA"/>
<path d="M234.461 160.382C230.231 160.382 226.801 156.953 226.801 152.722C226.801 148.492 230.231 145.062 234.461 145.062C238.692 145.062 242.121 148.492 242.121 152.722C242.121 156.953 238.692 160.382 234.461 160.382Z" fill="#E1E4E5"/>
<path d="M141.598 516.931C135.487 516.931 130.533 511.977 130.533 505.866C130.533 499.755 135.487 494.801 141.598 494.801C147.709 494.801 152.663 499.755 152.663 505.866C152.663 511.977 147.709 516.931 141.598 516.931Z" fill="#E1E4E5"/>
<path d="M539.422 515.022C534.771 515.022 531.001 511.251 531.001 506.601C531.001 501.95 534.771 498.18 539.422 498.18C544.073 498.18 547.843 501.95 547.843 506.601C547.843 511.251 544.073 515.022 539.422 515.022Z" fill="#E1E4E5"/>
<path d="M612.805 154.724C607.635 154.724 603.443 150.532 603.443 145.362C603.443 140.192 607.635 136 612.805 136C617.975 136 622.167 140.192 622.167 145.362C622.167 150.532 617.975 154.724 612.805 154.724Z" fill="#E1E4E5"/>
<path d="M139.417 258.773C140.619 263.258 137.958 267.867 133.473 269.069C128.988 270.271 124.378 267.609 123.176 263.124C121.975 258.64 124.636 254.03 129.121 252.828C133.606 251.626 138.216 254.288 139.417 258.773Z" fill="#E1E4E5"/>
<path d="M358.296 98.8641C352.119 98.8641 347.112 93.8568 347.112 87.6801C347.112 81.5033 352.119 76.4961 358.296 76.4961C364.473 76.4961 369.48 81.5033 369.48 87.6801C369.48 93.8568 364.473 98.8641 358.296 98.8641Z" fill="#E1E4E5"/>
<path d="M712.748 493.067C707.997 493.067 704.145 489.985 704.145 486.184C704.145 482.382 707.997 479.301 712.748 479.301C717.499 479.301 721.351 482.382 721.351 486.184C721.351 489.985 717.499 493.067 712.748 493.067Z" fill="#E1E4E5"/>
<path d="M332.115 511.711C332.115 517.477 327.44 522.152 321.674 522.152C315.908 522.152 311.233 517.477 311.233 511.711C311.233 505.944 315.908 501.27 321.674 501.27C327.44 501.27 332.115 505.944 332.115 511.711Z" fill="#E1E4E5"/>
<path d="M635.979 428.949H636.204C637.537 447.833 651.581 448.124 651.581 448.124C651.581 448.124 636.094 448.426 636.094 470.246C636.094 448.426 620.608 448.124 620.608 448.124C620.608 448.124 634.646 447.833 635.979 428.949Z" fill="#E1E4E5"/>
<path d="M438.658 493.03C545.466 493.03 632.05 406.446 632.05 299.638C632.05 192.831 545.466 106.246 438.658 106.246C331.851 106.246 245.266 192.831 245.266 299.638C245.266 406.446 331.851 493.03 438.658 493.03Z" stroke="#E1E4E5" stroke-width="2" stroke-linecap="round" stroke-linejoin="bevel" stroke-dasharray="10 25"/>
<path d="M438.658 574.28C590.338 574.28 713.298 451.32 713.298 299.64C713.298 147.961 590.338 25 438.658 25C286.979 25 164.018 147.961 164.018 299.64C164.018 451.32 286.979 574.28 438.658 574.28Z" stroke="#E1E4E5" stroke-width="2" stroke-linecap="round" stroke-linejoin="bevel" stroke-dasharray="10 25"/>
<path d="M438.659 473.577C534.723 473.577 612.598 395.702 612.598 299.638C612.598 203.574 534.723 125.699 438.659 125.699C342.595 125.699 264.72 203.574 264.72 299.638C264.72 395.702 342.595 473.577 438.659 473.577Z" stroke="#E1E4E5" stroke-width="2" stroke-linecap="round" stroke-linejoin="bevel" stroke-dasharray="10 25"/>
<path d="M523.216 283.938C483.693 316.55 459.969 364.531 457.991 415.853" stroke="#2E2445" stroke-width="4" stroke-linecap="round" stroke-linejoin="round"/>
<path fill-rule="evenodd" clip-rule="evenodd" d="M472.384 219.037C429.115 244.018 414.268 299.309 439.223 342.532C464.178 385.756 519.485 400.544 562.754 375.562C626.578 338.713 597.045 251.385 621.572 209.406C573.187 188.571 517.727 192.152 472.384 219.037Z" fill="#4F27AA"/>
<path d="M355.713 329.934C381.88 351.527 397.587 383.294 398.897 417.273" stroke="#2E2445" stroke-width="4" stroke-linecap="round" stroke-linejoin="round"/>
<path fill-rule="evenodd" clip-rule="evenodd" d="M389.368 286.962C418.015 303.501 427.845 340.109 411.323 368.726C394.8 397.344 358.183 407.135 329.535 390.595C287.278 366.198 306.831 308.379 290.592 280.585C322.627 266.791 359.346 269.162 389.368 286.962Z" fill="#4F27AA"/>
</g>
<defs>
<linearGradient id="paint0_linear_1235_26031" x1="638.265" y1="329.222" x2="843.973" y2="166.506" gradientUnits="userSpaceOnUse">
<stop stop-color="white"/>
<stop offset="1" stop-color="#EEEEEE"/>
</linearGradient>
<linearGradient id="paint1_linear_1235_26031" x1="240.399" y1="230.276" x2="124.215" y2="122.326" gradientUnits="userSpaceOnUse">
<stop stop-color="white"/>
<stop offset="1" stop-color="#EEEEEE"/>
</linearGradient>
<clipPath id="clip0_1235_26031">
<rect width="900" height="600" fill="white"/>
</clipPath>
</defs>
</svg>
