<svg width="900" height="600" viewBox="0 0 900 600" fill="none" xmlns="http://www.w3.org/2000/svg">
<g clip-path="url(#clip0_1235_26055)">
<path d="M637.589 380.734C635.735 427.759 535.333 514.305 425.896 468.508C374.998 447.206 381.991 420.439 345.483 380.869C323.722 357.285 291.09 337.932 284.507 306.002C278.818 278.441 286.553 250.117 302.535 232.723C338.48 193.603 405.769 170.823 463.171 243.165C520.572 315.507 642.355 259.454 637.589 380.734Z" fill="url(#paint0_linear_1235_26055)"/>
<path d="M665.931 236.675C655.938 254.51 634.051 256.961 598.987 253.572C572.617 251.018 548.569 249.042 522.197 234.663C503.738 224.606 489.126 211 478.462 197.785C466.905 183.468 450.775 167.129 458.682 150.896C469.549 128.598 532.391 109.818 593.413 140.529C660.446 174.276 675.707 219.244 665.931 236.675Z" fill="url(#paint1_linear_1235_26055)"/>
<path d="M725.426 281.764C705.082 291.856 678.081 278.88 678.081 278.88C678.081 278.88 684.082 249.548 704.436 239.47C724.78 229.379 751.771 242.34 751.771 242.34C751.771 242.34 745.77 271.672 725.426 281.764Z" fill="url(#paint2_linear_1235_26055)"/>
<path d="M175.676 351.193C197.366 364.193 228.484 352.176 228.484 352.176C228.484 352.176 224.415 319.087 202.712 306.102C181.022 293.103 149.918 305.105 149.918 305.105C149.918 305.105 153.986 338.194 175.676 351.193Z" fill="url(#paint3_linear_1235_26055)"/>
<path d="M689.727 457.832C686.276 457.832 683.479 455.035 683.479 451.584C683.479 448.133 686.276 445.336 689.727 445.336C693.178 445.336 695.975 448.133 695.975 451.584C695.975 455.035 693.178 457.832 689.727 457.832Z" fill="#E1E4E5"/>
<path d="M210.785 415.816C205.801 415.816 201.76 411.775 201.76 406.791C201.76 401.806 205.801 397.766 210.785 397.766C215.769 397.766 219.81 401.806 219.81 406.791C219.81 411.775 215.769 415.816 210.785 415.816Z" fill="#E1E4E5"/>
<path d="M721.546 396.675C717.752 396.675 714.677 393.6 714.677 389.806C714.677 386.013 717.752 382.938 721.546 382.938C725.34 382.938 728.415 386.013 728.415 389.806C728.415 393.6 725.34 396.675 721.546 396.675Z" fill="#E1E4E5"/>
<path d="M648.652 185.094C644.434 185.094 641.015 181.675 641.015 177.457C641.015 173.24 644.434 169.82 648.652 169.82C652.87 169.82 656.289 173.24 656.289 177.457C656.289 181.675 652.87 185.094 648.652 185.094Z" fill="#E1E4E5"/>
<path d="M177.33 263.151C177.33 266.939 174.26 270.009 170.472 270.009C166.684 270.009 163.614 266.939 163.614 263.151C163.614 259.363 166.684 256.293 170.472 256.293C174.26 256.293 177.33 259.363 177.33 263.151Z" fill="#E1E4E5"/>
<path d="M408.686 139.023C403.647 139.023 399.563 134.939 399.563 129.9C399.563 124.862 403.647 120.777 408.686 120.777C413.724 120.777 417.809 124.862 417.809 129.9C417.809 134.939 413.724 139.023 408.686 139.023Z" fill="#E1E4E5"/>
<path d="M696.544 357.373C692.668 357.373 689.526 354.859 689.526 351.759C689.526 348.658 692.668 346.145 696.544 346.145C700.42 346.145 703.562 348.658 703.562 351.759C703.562 354.859 700.42 357.373 696.544 357.373Z" fill="#E1E4E5"/>
<path d="M577.966 114.441C580.006 122.055 575.487 129.88 567.874 131.92C560.26 133.961 552.434 129.442 550.394 121.829C548.354 114.215 552.872 106.389 560.486 104.349C568.1 102.309 575.926 106.827 577.966 114.441Z" fill="#E1E4E5"/>
<path d="M262.704 216.852H262.804C263.396 225.24 269.634 225.369 269.634 225.369C269.634 225.369 262.756 225.503 262.756 235.195C262.756 225.503 255.877 225.369 255.877 225.369C255.877 225.369 262.112 225.24 262.704 216.852ZM252.254 436.413H252.35C252.918 444.775 258.907 444.904 258.907 444.904C258.907 444.904 252.303 445.038 252.303 454.701C252.303 445.038 245.699 444.904 245.699 444.904C245.699 444.904 251.685 444.775 252.254 436.413ZM232.267 533.768C232.26 532.792 232.63 531.979 233.335 531.317C234.398 530.318 235.511 529.374 236.67 528.488C237.197 528.082 237.674 527.641 238.08 527.099C238.37 526.71 238.737 526.386 239.158 526.145C239.579 525.905 240.045 525.754 240.527 525.702C241.009 525.65 241.497 525.698 241.96 525.842C242.422 525.987 242.85 526.225 243.217 526.543C244.713 527.84 244.799 530.042 243.402 531.545C243.21 531.757 243.001 531.953 242.775 532.129C241.044 533.412 239.377 534.779 237.724 536.162C236.698 537.017 235.53 537.266 234.262 536.753C233.022 536.247 232.274 535.114 232.267 533.768ZM239.527 540.066C241.108 540.102 242.106 540.864 242.747 542.104C243.381 543.329 243.295 544.562 242.512 545.709C242.227 546.129 241.871 546.5 241.486 546.827C240.125 547.974 238.778 549.129 237.418 550.276C236.548 551.002 235.551 551.366 234.411 551.124C233.157 550.853 232.295 550.09 231.939 548.858C231.561 547.561 231.896 546.393 232.879 545.46C233.647 544.744 234.438 544.055 235.252 543.393C235.865 542.888 236.413 542.367 236.805 541.634C237.382 540.536 238.415 540.081 239.527 540.066ZM259.546 534.102C259.553 534.886 259.34 535.613 258.848 536.233C258.57 536.582 258.278 536.917 257.943 537.202C256.811 538.17 255.706 539.168 254.602 540.165C252.928 541.676 250.527 541.319 249.458 539.446C248.788 538.27 248.924 536.845 249.836 535.705C250.512 534.858 251.332 534.152 252.158 533.461C252.6 533.091 252.985 532.699 253.298 532.207C254.146 530.875 255.599 530.369 257.11 530.818C258.542 531.245 259.532 532.578 259.546 534.102ZM672.15 538.748C672.888 538.752 673.581 538.296 673.851 537.631C673.997 537.279 674.031 536.892 673.951 536.52C673.87 536.148 673.678 535.81 673.4 535.551C673.243 535.406 673.057 535.289 672.876 535.172C671.792 534.467 670.695 533.781 669.699 532.947C669.487 532.764 669.239 532.627 668.971 532.546C668.704 532.464 668.422 532.438 668.144 532.471C667.37 532.552 666.833 532.971 666.567 533.685C666.301 534.402 666.467 535.067 666.987 535.632C667.083 535.736 667.196 535.833 667.313 535.914C668.535 536.768 669.744 537.643 671.026 538.409C671.376 538.619 671.743 538.748 672.15 538.748ZM664.483 540.788C664.474 541.087 664.533 541.384 664.654 541.657C664.776 541.931 664.957 542.174 665.185 542.368C666.317 543.335 667.474 544.287 668.784 545.008C669.981 545.665 671.368 544.928 671.537 543.589C671.634 542.823 671.316 542.203 670.679 541.796C669.856 541.272 669.111 540.659 668.325 540.09C668.075 539.909 667.869 539.687 667.652 539.474C667.388 539.213 667.052 539.037 666.687 538.968C666.322 538.9 665.945 538.943 665.604 539.091C665.271 539.232 664.987 539.469 664.788 539.77C664.589 540.072 664.483 540.426 664.483 540.788ZM662.412 535.491C662.417 535.229 662.365 534.97 662.261 534.731C662.156 534.492 662.002 534.278 661.807 534.104C661.205 533.539 660.575 533.005 659.92 532.504C659.619 532.279 659.351 532.015 659.122 531.718C658.958 531.498 658.75 531.314 658.512 531.178C658.274 531.043 658.01 530.957 657.737 530.928C657.465 530.898 657.189 530.925 656.927 531.007C656.665 531.089 656.423 531.224 656.216 531.404C655.37 532.137 655.321 533.383 656.111 534.233C656.22 534.35 656.337 534.467 656.466 534.564C657.441 535.296 658.394 536.057 659.324 536.845C659.904 537.329 660.565 537.47 661.283 537.18C661.984 536.894 662.408 536.253 662.412 535.491ZM658.304 539.054C657.409 539.074 656.845 539.506 656.482 540.207C656.123 540.9 656.172 541.598 656.615 542.247C656.776 542.485 656.978 542.694 657.196 542.88C657.965 543.529 658.727 544.182 659.497 544.831C659.989 545.242 660.553 545.447 661.198 545.31C661.908 545.157 662.395 544.726 662.597 544.028C662.811 543.295 662.621 542.634 662.065 542.106C661.634 541.699 661.182 541.316 660.723 540.937C660.376 540.651 660.066 540.356 659.844 539.941C659.517 539.32 658.933 539.062 658.304 539.054ZM682.377 542.327C682.372 541.903 682.226 541.493 681.962 541.162C681.785 540.934 681.571 540.738 681.329 540.582C680.676 540.174 680.031 539.743 679.358 539.368C678.136 538.691 676.733 539.372 676.544 540.735C676.443 541.448 676.721 542.037 677.286 542.476C677.467 542.617 677.681 542.722 677.874 542.851C678.398 543.194 678.946 543.5 679.458 543.867C680.063 544.302 680.732 544.33 681.389 543.976C682.05 543.625 682.353 543.04 682.377 542.327ZM666.322 525.897C665.499 525.905 664.854 526.332 664.572 527.022C664.27 527.763 664.407 528.429 664.935 529.017C665.052 529.15 665.193 529.275 665.346 529.36C665.943 529.694 666.539 530.021 667.148 530.327C667.491 530.5 667.866 530.549 668.253 530.488C669.022 530.359 669.611 529.815 669.776 529.073C669.942 528.32 669.671 527.542 669.026 527.139C668.39 526.74 667.712 526.401 667.047 526.05C666.824 525.933 666.573 525.88 666.322 525.897Z" fill="#E1E4E5"/>
<path d="M589.999 279.42C583.215 279.42 577.715 284.92 577.715 291.704C577.715 298.489 583.215 303.988 589.999 303.988C596.783 303.988 602.283 298.489 602.283 291.704C602.283 284.92 596.783 279.42 589.999 279.42Z" fill="#4F27AA"/>
<path d="M640.238 105.39C633.83 105.39 628.636 110.584 628.636 116.992C628.636 123.399 633.83 128.594 640.238 128.594C646.646 128.594 651.84 123.399 651.84 116.992C651.84 110.584 646.646 105.39 640.238 105.39Z" fill="#4F27AA"/>
<path d="M606.108 376.337C608.057 372.962 612.374 371.805 615.75 373.754C619.125 375.703 620.282 380.02 618.333 383.395C616.384 386.771 612.067 387.928 608.692 385.979C605.316 384.03 604.159 379.713 606.108 376.337Z" fill="#E1E4E5"/>
<path d="M637.711 192.937C635.024 192.937 632.846 190.759 632.846 188.072C632.846 185.385 635.024 183.207 637.711 183.207C640.398 183.207 642.576 185.385 642.576 188.072C642.576 190.759 640.398 192.937 637.711 192.937Z" fill="#E1E4E5"/>
<path d="M249.806 169.156H250.022C251.304 187.308 264.803 187.588 264.803 187.588C264.803 187.588 249.917 187.878 249.917 208.853C249.917 187.878 235.031 187.588 235.031 187.588C235.031 187.588 248.525 187.308 249.806 169.156ZM645.218 461.033H645.336C646.034 471.413 653.386 471.573 653.386 471.573C653.386 471.573 645.279 471.739 645.279 483.734C645.279 471.739 637.171 471.573 637.171 471.573C637.171 471.573 644.52 471.413 645.218 461.033Z" fill="#E1E4E5"/>
<path d="M446.615 61.2744V333.877H417.92C417.92 321.724 406.667 304.057 401.04 296.742C329.302 236.82 303.983 202.039 303.983 148.203C303.983 97.5654 333.522 70.5584 352.09 61.2734H446.615V61.2744ZM446.615 61.2744V333.877H475.31C475.31 321.724 486.563 304.057 492.189 296.742C563.927 236.82 589.246 202.039 589.246 148.203C589.246 97.5654 559.707 70.5584 541.14 61.2734H446.615V61.2744Z" fill="#4F27AA"/>
<path d="M609.065 47H295.568C289.001 47 283.677 52.3238 283.677 58.891C283.677 65.4582 289.001 70.782 295.568 70.782H609.065C615.632 70.782 620.956 65.4582 620.956 58.891C620.956 52.3238 615.632 47 609.065 47Z" fill="#2E2445"/>
<path d="M446.615 539.271V266.668H417.92C417.92 278.822 406.667 296.489 401.041 303.803C329.303 363.725 303.984 398.506 303.984 452.342C303.984 502.981 333.523 529.988 352.09 539.271H446.615ZM446.615 539.271V266.668H475.311C475.311 278.822 486.564 296.489 492.19 303.803C563.928 363.725 589.247 398.506 589.247 452.342C589.247 502.981 559.708 529.988 541.14 539.271H446.615Z" fill="#4F27AA"/>
<path d="M609.065 554H295.568C289.001 554 283.677 548.676 283.677 542.109C283.677 535.542 289.001 530.218 295.568 530.218H609.065C615.632 530.218 620.956 535.542 620.956 542.109C620.956 548.676 615.632 554 609.065 554Z" fill="#2E2445"/>
<path d="M301.711 285.556C296.439 285.556 292.166 290.097 292.166 295.698C292.166 301.299 296.439 305.84 301.711 305.84C306.983 305.84 311.256 301.299 311.256 295.698C311.256 290.097 306.983 285.556 301.711 285.556Z" fill="#4F27AA"/>
<path d="M430.162 189.463C434.267 182.352 443.359 179.916 450.469 184.021C457.58 188.127 460.016 197.218 455.911 204.329C451.805 211.439 442.714 213.875 435.603 209.77C428.493 205.665 426.057 196.573 430.162 189.463Z" fill="white"/>
<path d="M518.797 166.299C520.402 163.519 523.956 162.567 526.736 164.172C529.516 165.777 530.468 169.331 528.863 172.111C527.258 174.891 523.704 175.843 520.924 174.239C518.144 172.634 517.192 169.079 518.797 166.299Z" fill="white"/>
<path d="M363.199 156.745C364.804 153.965 368.358 153.012 371.138 154.617C373.918 156.222 374.87 159.777 373.265 162.557C371.66 165.336 368.106 166.289 365.326 164.684C362.546 163.079 361.594 159.524 363.199 156.745Z" fill="white"/>
<path d="M440.998 133.541C442.603 130.762 446.158 129.809 448.937 131.414C451.717 133.019 452.67 136.574 451.065 139.353C449.46 142.133 445.905 143.086 443.125 141.481C440.346 139.876 439.393 136.321 440.998 133.541Z" fill="white"/>
<path d="M403.143 150.809C404.388 146.203 409.131 143.478 413.737 144.723C418.343 145.968 421.068 150.71 419.823 155.316C418.578 159.922 413.835 162.647 409.229 161.402C404.623 160.158 401.899 155.415 403.143 150.809Z" fill="white"/>
<path d="M508.233 151.189C508.72 149.388 510.574 148.323 512.374 148.81C514.175 149.296 515.24 151.15 514.753 152.951C514.267 154.751 512.413 155.816 510.612 155.33C508.812 154.843 507.747 152.989 508.233 151.189Z" fill="white"/>
<path d="M352.635 141.634C353.122 139.834 354.976 138.769 356.776 139.255C358.577 139.742 359.642 141.596 359.155 143.396C358.669 145.197 356.815 146.262 355.014 145.775C353.214 145.289 352.149 143.435 352.635 141.634Z" fill="white"/>
<path d="M430.434 118.431C430.92 116.631 432.774 115.565 434.575 116.052C436.375 116.539 437.44 118.393 436.954 120.193C436.467 121.994 434.613 123.059 432.813 122.572C431.012 122.086 429.947 120.231 430.434 118.431Z" fill="white"/>
<path d="M520.191 200.605C521.257 198.758 523.319 197.952 524.797 198.805C526.274 199.658 526.607 201.847 525.541 203.694C524.474 205.542 522.412 206.348 520.935 205.495C519.457 204.642 519.124 202.453 520.191 200.605Z" fill="white"/>
<path d="M497.488 239.523C498.555 237.676 500.617 236.87 502.094 237.723C503.572 238.576 503.905 240.765 502.838 242.612C501.772 244.46 499.71 245.266 498.232 244.413C496.755 243.56 496.422 241.371 497.488 239.523Z" fill="white"/>
<path d="M485.597 207.094C486.664 205.247 488.726 204.441 490.203 205.294C491.681 206.147 492.014 208.336 490.948 210.183C489.881 212.03 487.819 212.836 486.341 211.983C484.864 211.13 484.531 208.941 485.597 207.094Z" fill="white"/>
<path d="M477.193 164.788C478.465 160.082 482.547 157.092 486.311 158.11C490.075 159.127 492.096 163.766 490.824 168.472C489.552 173.178 485.47 176.168 481.706 175.15C477.942 174.133 475.921 169.494 477.193 164.788Z" fill="white"/>
<path d="M537.184 156.655C537.681 154.816 539.277 153.647 540.748 154.045C542.22 154.442 543.01 156.256 542.513 158.095C542.016 159.935 540.42 161.103 538.948 160.706C537.477 160.308 536.687 158.495 537.184 156.655Z" fill="white"/>
<path d="M381.586 147.1C382.083 145.261 383.679 144.092 385.15 144.49C386.622 144.888 387.412 146.701 386.914 148.541C386.417 150.38 384.822 151.549 383.35 151.151C381.878 150.753 381.089 148.94 381.586 147.1Z" fill="white"/>
<path d="M459.385 123.897C459.882 122.058 461.478 120.889 462.949 121.287C464.421 121.685 465.211 123.498 464.714 125.337C464.217 127.177 462.621 128.346 461.149 127.948C459.678 127.55 458.888 125.737 459.385 123.897Z" fill="white"/>
<path d="M379.989 198.761C381.261 194.055 385.343 191.065 389.107 192.082C392.871 193.1 394.892 197.739 393.62 202.445C392.349 207.15 388.266 210.14 384.502 209.123C380.738 208.106 378.718 203.466 379.989 198.761Z" fill="white"/>
<path d="M418.206 254.718C419.477 250.012 423.56 247.022 427.324 248.039C431.088 249.057 433.108 253.696 431.837 258.402C430.565 263.107 426.483 266.097 422.718 265.08C418.954 264.063 416.934 259.423 418.206 254.718Z" fill="white"/>
<path d="M434.967 285.393C435.535 283.289 437.36 281.953 439.043 282.408C440.725 282.862 441.629 284.936 441.06 287.039C440.492 289.143 438.667 290.479 436.984 290.024C435.302 289.57 434.398 287.496 434.967 285.393Z" fill="white"/>
<path d="M456.423 264.272C457.695 259.567 461.777 256.577 465.541 257.594C469.306 258.611 471.326 263.251 470.054 267.956C468.783 272.662 464.7 275.652 460.936 274.635C457.172 273.617 455.152 268.978 456.423 264.272Z" fill="white"/>
<path d="M435.159 322.53C436.034 319.29 438.845 317.232 441.438 317.932C444.03 318.633 445.421 321.827 444.546 325.067C443.67 328.307 440.859 330.366 438.267 329.665C435.674 328.965 434.283 325.77 435.159 322.53Z" fill="white"/>
<path d="M461.467 327.448C462.343 324.208 465.154 322.149 467.746 322.85C470.339 323.551 471.73 326.745 470.855 329.985C469.979 333.225 467.168 335.284 464.576 334.583C461.983 333.883 460.592 330.688 461.467 327.448Z" fill="white"/>
<path d="M442.009 350.147C442.884 346.907 445.696 344.849 448.288 345.549C450.88 346.25 452.272 349.444 451.396 352.684C450.52 355.924 447.709 357.983 445.117 357.282C442.525 356.582 441.133 353.387 442.009 350.147Z" fill="white"/>
<path d="M414.982 357.714C415.858 354.474 418.669 352.415 421.261 353.116C423.854 353.816 425.245 357.011 424.37 360.251C423.494 363.491 420.683 365.549 418.091 364.849C415.498 364.148 414.107 360.954 414.982 357.714Z" fill="white"/>
<path d="M471.196 362.038C472.072 358.798 474.883 356.739 477.475 357.44C480.068 358.14 481.459 361.335 480.583 364.575C479.708 367.815 476.897 369.873 474.304 369.173C471.712 368.472 470.321 365.278 471.196 362.038Z" fill="white"/>
<path d="M274.493 358.121H274.701C275.931 376.219 288.892 376.498 288.892 376.498C288.892 376.498 274.6 376.788 274.6 397.7C274.6 376.788 260.308 376.498 260.308 376.498C260.308 376.498 273.263 376.219 274.493 358.121Z" fill="#E1E4E5"/>
<path fill-rule="evenodd" clip-rule="evenodd" d="M342.2 528.046C342.2 499.778 388.643 476.863 445.932 476.863C503.222 476.863 549.664 499.778 549.664 528.046C549.664 528.732 549.637 529.414 549.583 530.093H342.282C342.228 529.412 342.2 528.729 342.2 528.046Z" fill="white"/>
</g>
<defs>
<linearGradient id="paint0_linear_1235_26055" x1="501.933" y1="650.913" x2="403.307" y2="-137.096" gradientUnits="userSpaceOnUse">
<stop stop-color="white"/>
<stop offset="1" stop-color="#EEEEEE"/>
</linearGradient>
<linearGradient id="paint1_linear_1235_26055" x1="598.609" y1="352.264" x2="509.536" y2="-47.9941" gradientUnits="userSpaceOnUse">
<stop stop-color="white"/>
<stop offset="1" stop-color="#EEEEEE"/>
</linearGradient>
<linearGradient id="paint2_linear_1235_26055" x1="647.304" y1="313.242" x2="815.1" y2="180.515" gradientUnits="userSpaceOnUse">
<stop stop-color="white"/>
<stop offset="1" stop-color="#EEEEEE"/>
</linearGradient>
<linearGradient id="paint3_linear_1235_26055" x1="259.61" y1="393.038" x2="85.0859" y2="230.883" gradientUnits="userSpaceOnUse">
<stop stop-color="white"/>
<stop offset="1" stop-color="#EEEEEE"/>
</linearGradient>
<clipPath id="clip0_1235_26055">
<rect width="900" height="600" fill="white"/>
</clipPath>
</defs>
</svg>
