<svg width="900" height="600" viewBox="0 0 900 600" fill="none" xmlns="http://www.w3.org/2000/svg">
<g clip-path="url(#clip0_1235_26106)">
<path d="M391.603 221.344L407.816 160.836C419.754 116.282 465.557 89.8383 510.111 101.776C554.665 113.714 581.109 159.517 569.171 204.071L552.958 264.579" stroke="#4F27AA" stroke-width="32.641" stroke-linecap="round" stroke-linejoin="round"/>
<path fill-rule="evenodd" clip-rule="evenodd" d="M525.521 521.72L286.792 457.753C260.412 450.685 244.771 423.593 251.839 397.214L296.616 230.104C303.685 203.724 330.776 188.083 357.156 195.151L595.885 259.119C622.264 266.187 637.905 293.278 630.837 319.658L586.06 486.768C578.992 513.148 551.9 528.789 525.521 521.72Z" fill="#4F27AA" stroke="#4F27AA" stroke-width="24.31" stroke-linecap="round" stroke-linejoin="round"/>
<path d="M424.422 415.298L440.466 355.421M449.955 319.738C440.233 317.133 430.23 322.909 427.695 332.649C425.09 342.37 430.866 352.374 440.587 354.978C450.309 357.583 460.312 351.808 462.917 342.086C465.522 332.365 459.746 322.361 449.955 319.738Z" stroke="white" stroke-width="50.726" stroke-linecap="round" stroke-linejoin="round"/>
<path d="M368 172C368 110.696 318.304 61 257 61C195.696 61 146 110.696 146 172C146 233.304 195.696 283 257 283C318.304 283 368 233.304 368 172Z" fill="#2E2445"/>
<path d="M249.512 213.475H267.955L266.172 186.942L288.386 201.82L297.574 185.639L273.714 173.984L297.574 162.328L288.386 146.147L266.172 161.025L267.955 134.492H249.512L251.226 161.025L229.012 146.147L219.824 162.328L243.752 173.984L219.824 185.639L229.012 201.82L251.226 186.942L249.512 213.475Z" fill="white"/>
<path d="M753 287C753 242.265 716.735 206 672 206C627.265 206 591 242.265 591 287C591 331.735 627.265 368 672 368C716.735 368 753 331.735 753 287Z" fill="#2E2445"/>
<path d="M666.536 317.809H679.994L678.693 298.446L694.904 309.303L701.608 297.496L684.197 288.99L701.608 280.485L694.904 268.677L678.693 279.534L679.994 260.172H666.536L667.786 279.534L651.576 268.677L644.872 280.485L662.333 288.99L644.872 297.496L651.576 309.303L667.786 298.446L666.536 317.809Z" fill="white"/>
<path d="M354 466C354 423.474 319.526 389 277 389C234.474 389 200 423.474 200 466C200 508.526 234.474 543 277 543C319.526 543 354 508.526 354 466Z" fill="#2E2445"/>
<path d="M271.805 495.053H284.599L283.363 476.647L298.773 486.967L305.146 475.743L288.595 467.657L305.146 459.572L298.773 448.348L283.363 458.668L284.599 440.262H271.805L272.994 458.668L257.585 448.348L251.211 459.572L267.81 467.657L251.211 475.743L257.585 486.967L272.994 476.647L271.805 495.053Z" fill="white"/>
</g>
<defs>
<clipPath id="clip0_1235_26106">
<rect width="900" height="600" fill="white"/>
</clipPath>
</defs>
</svg>
