<svg width="900" height="600" viewBox="0 0 900 600" fill="none" xmlns="http://www.w3.org/2000/svg">
<g clip-path="url(#clip0_1235_26117)">
<path d="M215.353 385.786C217.983 452.519 360.465 575.337 515.768 510.346C587.998 480.117 578.073 442.132 629.882 385.977C660.764 352.509 707.071 325.045 716.414 279.733C724.487 240.621 713.51 200.427 690.83 175.742C639.821 120.228 544.33 87.8993 462.871 190.56C381.412 293.221 208.589 213.677 215.353 385.786Z" fill="url(#paint0_linear_1235_26117)"/>
<path d="M209.778 199.362C221.385 220.077 246.806 222.924 287.533 218.987C318.162 216.021 346.094 213.726 376.726 197.025C398.166 185.344 415.137 169.54 427.524 154.19C440.947 137.561 459.682 118.583 450.498 99.7287C437.876 73.8287 364.884 52.0157 294.007 87.6877C216.148 126.885 198.423 179.115 209.778 199.362Z" fill="url(#paint1_linear_1235_26117)"/>
<path d="M115.341 261.507C145.432 276.434 185.37 257.241 185.37 257.241C185.37 257.241 176.494 213.856 146.387 198.95C116.296 184.023 76.374 203.195 76.374 203.195C76.374 203.195 85.25 246.581 115.341 261.507Z" fill="url(#paint2_linear_1235_26117)"/>
<path d="M789.571 308.012C773.222 317.81 749.766 308.752 749.766 308.752C749.766 308.752 752.833 283.811 769.192 274.024C785.541 264.225 808.986 273.272 808.986 273.272C808.986 273.272 805.919 298.213 789.571 308.012Z" fill="url(#paint3_linear_1235_26117)"/>
<path d="M189.957 474.808C195.061 474.808 199.199 470.67 199.199 465.566C199.199 460.462 195.061 456.324 189.957 456.324C184.853 456.324 180.715 460.462 180.715 465.566C180.715 470.67 184.853 474.808 189.957 474.808Z" fill="#E1E4E5"/>
<path d="M791.879 410.427C799.252 410.427 805.229 404.45 805.229 397.077C805.229 389.704 799.252 383.727 791.879 383.727C784.506 383.727 778.529 389.704 778.529 397.077C778.529 404.45 784.506 410.427 791.879 410.427Z" fill="#E1E4E5"/>
<path d="M142.893 384.351C148.504 384.351 153.053 379.802 153.053 374.191C153.053 368.58 148.504 364.031 142.893 364.031C137.282 364.031 132.733 368.58 132.733 374.191C132.733 379.802 137.282 384.351 142.893 384.351Z" fill="#E1E4E5"/>
<path d="M199.775 116.295C206.014 116.295 211.071 111.238 211.071 104.999C211.071 98.7605 206.014 93.7031 199.775 93.7031C193.536 93.7031 188.479 98.7605 188.479 104.999C188.479 111.238 193.536 116.295 199.775 116.295Z" fill="#E1E4E5"/>
<path d="M818.305 176.338C818.305 181.94 822.846 186.481 828.448 186.481C834.05 186.481 838.591 181.94 838.591 176.338C838.591 170.736 834.05 166.195 828.448 166.195C822.846 166.195 818.305 170.736 818.305 176.338Z" fill="#E1E4E5"/>
<path d="M531.094 92.1521C538.547 92.1521 544.588 86.1106 544.588 78.6581C544.588 71.2055 538.547 65.1641 531.094 65.1641C523.641 65.1641 517.6 71.2055 517.6 78.6581C517.6 86.1106 523.641 92.1521 531.094 92.1521Z" fill="#E1E4E5"/>
<path d="M179.873 326.217C185.606 326.217 190.253 322.5 190.253 317.913C190.253 313.327 185.606 309.609 179.873 309.609C174.14 309.609 169.493 313.327 169.493 317.913C169.493 322.5 174.14 326.217 179.873 326.217Z" fill="#E1E4E5"/>
<path d="M715.083 116.133H714.935C714.06 128.54 704.833 128.731 704.833 128.731C704.833 128.731 715.007 128.929 715.007 143.265C715.007 128.929 725.182 128.731 725.182 128.731C725.182 128.731 715.959 128.54 715.083 116.133ZM730.541 440.891H730.399C729.558 453.261 720.7 453.451 720.7 453.451C720.7 453.451 730.468 453.649 730.468 467.942C730.468 453.649 740.237 453.451 740.237 453.451C740.237 453.451 731.382 453.261 730.541 440.891Z" fill="#E1E4E5"/>
<path fill-rule="evenodd" clip-rule="evenodd" d="M297.664 200.504H603.586C609.962 200.504 616.019 203.813 620.171 209.564C624.322 215.314 626.153 222.932 625.184 230.42L588.203 516.055C586.563 528.722 577.391 538.073 566.605 538.073H334.645C323.859 538.073 314.687 528.722 313.047 516.055L276.066 230.42C275.096 222.932 276.927 215.314 281.079 209.564C285.23 203.813 291.288 200.504 297.664 200.504Z" fill="white" stroke="#E1E4E5" stroke-width="4"/>
<path fill-rule="evenodd" clip-rule="evenodd" d="M505.255 538.073L527.107 200.504L505.255 538.073Z" fill="white"/>
<path d="M505.255 538.073L527.107 200.504" stroke="#E1E4E5" stroke-width="4"/>
<path fill-rule="evenodd" clip-rule="evenodd" d="M395.995 538.073L374.143 200.504L395.995 538.073Z" fill="white"/>
<path d="M395.995 538.073L374.143 200.504" stroke="#E1E4E5" stroke-width="4"/>
<path fill-rule="evenodd" clip-rule="evenodd" d="M403.714 132.791H535.521C546.192 132.791 550.794 119.497 542.059 113.598L541.689 113.35C529.253 105.126 512.933 105.873 512.933 105.873C512.933 105.873 510.601 61.3867 466.692 61.3867C444.983 61.3867 427.438 97.0887 427.438 97.0887C427.438 97.0887 397.906 97.0887 393.019 119.521C391.541 126.316 396.494 132.791 403.714 132.791Z" fill="white" stroke="#E1E4E5" stroke-width="4"/>
<path fill-rule="evenodd" clip-rule="evenodd" d="M596.015 173.416H464.208C453.537 173.416 448.934 160.122 457.67 154.223L458.04 153.975C470.476 145.751 486.796 146.498 486.796 146.498C486.796 146.498 489.127 102.012 533.037 102.012C554.746 102.012 572.291 137.714 572.291 137.714C572.291 137.714 601.823 137.714 606.71 160.146C608.188 166.941 603.234 173.416 596.015 173.416Z" fill="white" stroke="#E1E4E5" stroke-width="4"/>
<path fill-rule="evenodd" clip-rule="evenodd" d="M328.477 173.418C306.207 173.418 316.627 138.321 344.84 146.704C346.402 97.9709 426.323 62.3139 459.371 128.044C468.715 120.696 489.696 134.576 485.05 146.704C495.429 147.583 503.594 148.777 509.947 150.357C524.615 154.006 521.711 173.254 506.592 173.119L328.477 173.418Z" fill="white" stroke="#E1E4E5" stroke-width="4"/>
<path fill-rule="evenodd" clip-rule="evenodd" d="M291.669 200.5C273.718 200.5 282.117 165.403 304.859 173.786C306.118 125.053 370.539 89.3961 397.178 155.125C404.709 147.777 421.621 161.657 417.876 173.786C426.242 174.665 432.824 175.858 437.945 177.438C449.768 181.088 447.428 200.335 435.241 200.201L291.669 200.5Z" fill="white" stroke="#E1E4E5" stroke-width="4"/>
<path fill-rule="evenodd" clip-rule="evenodd" d="M415.886 200.5C393.616 200.5 404.036 165.403 432.249 173.786C433.811 125.053 513.732 89.3961 546.78 155.125C556.124 147.777 577.105 161.657 572.459 173.786C582.838 174.665 591.003 175.858 597.356 177.438C612.024 181.088 609.12 200.335 594.001 200.201L415.886 200.5Z" fill="white" stroke="#E1E4E5" stroke-width="4"/>
<path d="M450.004 471.403C508.137 471.403 555.264 424.276 555.264 366.143C555.264 308.009 508.137 260.883 450.004 260.883C391.871 260.883 344.744 308.009 344.744 366.143C344.744 424.276 391.871 471.403 450.004 471.403Z" fill="white" stroke="#E1E4E5" stroke-width="4"/>
<path fill-rule="evenodd" clip-rule="evenodd" d="M492.035 385.586L439.137 415.457C426.113 422.802 410 413.36 410 398.365V338.637C410 323.629 426.086 314.199 439.137 321.545L492.035 351.416C505.322 358.893 505.322 378.082 492.035 385.586Z" fill="#4F27AA"/>
</g>
<defs>
<linearGradient id="paint0_linear_1235_26117" x1="407.864" y1="769.199" x2="547.823" y2="-349.07" gradientUnits="userSpaceOnUse">
<stop stop-color="white"/>
<stop offset="1" stop-color="#EEEEEE"/>
</linearGradient>
<linearGradient id="paint1_linear_1235_26117" x1="287.973" y1="333.619" x2="391.432" y2="-131.283" gradientUnits="userSpaceOnUse">
<stop stop-color="white"/>
<stop offset="1" stop-color="#EEEEEE"/>
</linearGradient>
<linearGradient id="paint2_linear_1235_26117" x1="230.893" y1="308.068" x2="-17.297" y2="111.748" gradientUnits="userSpaceOnUse">
<stop stop-color="white"/>
<stop offset="1" stop-color="#EEEEEE"/>
</linearGradient>
<linearGradient id="paint3_linear_1235_26117" x1="726.305" y1="339.553" x2="857.853" y2="217.327" gradientUnits="userSpaceOnUse">
<stop stop-color="white"/>
<stop offset="1" stop-color="#EEEEEE"/>
</linearGradient>
<clipPath id="clip0_1235_26117">
<rect width="900" height="600" fill="white"/>
</clipPath>
</defs>
</svg>
