<svg width="900" height="600" viewBox="0 0 900 600" fill="none" xmlns="http://www.w3.org/2000/svg">
<g clip-path="url(#clip0_1235_26143)">
<path d="M733.114 371.423L650.803 228.856C646.385 221.204 636.599 218.582 628.947 223L383.802 364.534C376.149 368.953 373.527 378.738 377.945 386.391L460.256 528.958C464.675 536.61 474.46 539.232 482.113 534.814L727.258 393.28C734.91 388.861 737.532 379.076 733.114 371.423Z" fill="white" stroke="#E1E4E5" stroke-width="4"/>
<path d="M712.62 365.932L645.312 249.352C640.894 241.7 631.108 239.078 623.456 243.496L404.297 370.027C396.645 374.445 394.023 384.231 398.441 391.884L465.749 508.464C470.167 516.116 479.952 518.738 487.605 514.32L706.763 387.789C714.416 383.371 717.038 373.585 712.62 365.932Z" fill="white" stroke="#E1E4E5" stroke-width="4"/>
<path d="M633.53 279.81L636.541 268.572C636.827 267.506 636.194 266.409 635.127 266.123L623.89 263.112C622.823 262.826 621.726 263.459 621.44 264.526L618.429 275.764C618.143 276.831 618.776 277.927 619.843 278.213L631.081 281.224C632.148 281.51 633.244 280.877 633.53 279.81Z" fill="#E1E4E5"/>
<path d="M489.62 493.287L492.631 482.049C492.917 480.982 492.284 479.885 491.217 479.6L479.98 476.588C478.913 476.303 477.816 476.936 477.53 478.003L474.519 489.24C474.233 490.307 474.866 491.404 475.933 491.69L487.171 494.701C488.238 494.987 489.334 494.354 489.62 493.287Z" fill="#E1E4E5"/>
<path d="M489.62 493.287L492.631 482.049C492.917 480.982 492.284 479.885 491.217 479.6L479.98 476.588C478.913 476.303 477.816 476.936 477.53 478.003L474.519 489.24C474.233 490.307 474.866 491.404 475.933 491.69L487.171 494.701C488.238 494.987 489.334 494.354 489.62 493.287Z" fill="#E1E4E5"/>
<path d="M572.09 405.553L583.194 364.112C583.48 363.045 582.847 361.948 581.78 361.662L540.339 350.558C539.272 350.272 538.175 350.905 537.89 351.972L526.785 393.413C526.5 394.48 527.133 395.577 528.2 395.863L569.641 406.967C570.708 407.253 571.804 406.62 572.09 405.553Z" fill="#E1E4E5"/>
<path d="M167 371.423L249.311 228.856C253.729 221.204 263.515 218.582 271.168 223L516.313 364.535C523.965 368.953 526.587 378.738 522.169 386.391L439.858 528.958C435.44 536.61 425.654 539.232 418.002 534.814L172.857 393.28C165.204 388.861 162.582 379.076 167 371.423Z" fill="white" stroke="#E1E4E5" stroke-width="4"/>
<path d="M187.495 365.933L254.802 249.352C259.221 241.7 269.006 239.078 276.659 243.496L495.817 370.027C503.47 374.445 506.092 384.231 501.673 391.884L434.366 508.464C429.948 516.116 420.162 518.738 412.51 514.32L193.351 387.789C185.699 383.371 183.077 373.585 187.495 365.933Z" fill="white" stroke="#E1E4E5" stroke-width="4"/>
<path d="M266.583 279.81L263.572 268.572C263.286 267.506 263.919 266.409 264.986 266.123L276.223 263.112C277.29 262.826 278.387 263.459 278.673 264.526L281.684 275.764C281.97 276.831 281.337 277.927 280.27 278.213L269.032 281.224C267.965 281.51 266.869 280.877 266.583 279.81Z" fill="#E1E4E5"/>
<path d="M410.493 493.287L407.482 482.049C407.196 480.982 407.83 479.885 408.896 479.6L420.134 476.588C421.201 476.303 422.298 476.936 422.584 478.003L425.595 489.24C425.881 490.307 425.247 491.404 424.18 491.69L412.943 494.701C411.876 494.987 410.779 494.354 410.493 493.287Z" fill="#E1E4E5"/>
<path d="M410.493 493.287L407.482 482.049C407.196 480.982 407.83 479.885 408.896 479.6L420.134 476.588C421.201 476.303 422.298 476.936 422.584 478.003L425.595 489.24C425.881 490.307 425.247 491.404 424.18 491.69L412.943 494.701C411.876 494.987 410.779 494.354 410.493 493.287Z" fill="#E1E4E5"/>
<path d="M328.023 405.553L316.919 364.112C316.633 363.045 317.266 361.948 318.333 361.662L359.774 350.558C360.841 350.272 361.938 350.905 362.224 351.972L373.328 393.413C373.614 394.48 372.981 395.577 371.914 395.863L330.473 406.967C329.406 407.253 328.309 406.62 328.023 405.553Z" fill="#E1E4E5"/>
<path d="M673.365 192.504L539.083 114.977C531.431 110.558 521.645 113.18 517.227 120.833L383.358 352.701C378.94 360.354 381.562 370.139 389.214 374.557L523.496 452.085C531.149 456.503 540.934 453.881 545.352 446.228L679.221 214.36C683.64 206.708 681.018 196.922 673.365 192.504Z" fill="white" stroke="#E1E4E5" stroke-width="4"/>
<path d="M653.866 197.727L544.307 134.473C536.655 130.054 526.869 132.676 522.451 140.329L402.855 347.475C398.437 355.128 401.059 364.914 408.711 369.332L518.27 432.586C525.923 437.004 535.709 434.382 540.127 426.729L659.723 219.583C664.141 211.93 661.519 202.145 653.866 197.727Z" fill="white" stroke="#E1E4E5" stroke-width="4"/>
<path d="M548.391 164.693L545.577 154.19C545.291 153.123 544.194 152.49 543.127 152.775L532.624 155.59C531.557 155.876 530.924 156.972 531.21 158.039L534.024 168.543C534.31 169.61 535.406 170.243 536.473 169.957L546.977 167.143C548.044 166.857 548.677 165.76 548.391 164.693Z" fill="#E1E4E5"/>
<path d="M531.369 409.025L528.555 398.522C528.269 397.455 527.172 396.822 526.105 397.107L515.602 399.922C514.535 400.208 513.902 401.304 514.187 402.371L517.002 412.875C517.288 413.942 518.384 414.575 519.451 414.289L529.955 411.475C531.022 411.189 531.655 410.092 531.369 409.025Z" fill="#E1E4E5"/>
<path d="M531.369 409.025L528.555 398.522C528.269 397.455 527.172 396.822 526.105 397.107L515.602 399.922C514.535 400.208 513.902 401.304 514.187 402.371L517.002 412.875C517.288 413.942 518.384 414.575 519.451 414.289L529.955 411.475C531.022 411.189 531.655 410.092 531.369 409.025Z" fill="#E1E4E5"/>
<path d="M557.583 297.512L547.07 258.276C546.784 257.209 545.687 256.576 544.62 256.861L505.384 267.375C504.317 267.661 503.684 268.757 503.97 269.824L514.483 309.06C514.769 310.127 515.866 310.76 516.933 310.474L556.169 299.961C557.236 299.675 557.869 298.578 557.583 297.512Z" fill="#E1E4E5"/>
<path d="M226.75 192.504L361.031 114.977C368.684 110.558 378.469 113.18 382.888 120.833L516.757 352.701C521.175 360.354 518.553 370.139 510.9 374.557L376.619 452.085C368.966 456.503 359.181 453.881 354.762 446.228L220.893 214.36C216.475 206.708 219.097 196.922 226.75 192.504Z" fill="white" stroke="#E1E4E5" stroke-width="4"/>
<path d="M246.247 197.727L355.806 134.473C363.459 130.054 373.244 132.676 377.663 140.329L497.259 347.475C501.677 355.128 499.055 364.914 491.402 369.332L381.843 432.586C374.19 437.004 364.405 434.382 359.987 426.729L240.391 219.583C235.972 211.93 238.594 202.145 246.247 197.727Z" fill="white" stroke="#E1E4E5" stroke-width="4"/>
<path d="M351.723 164.693L354.537 154.19C354.823 153.123 355.92 152.49 356.987 152.775L367.49 155.59C368.557 155.876 369.19 156.972 368.905 158.039L366.09 168.543C365.804 169.61 364.708 170.243 363.641 169.957L353.137 167.143C352.07 166.857 351.437 165.76 351.723 164.693Z" fill="#E1E4E5"/>
<path d="M368.745 409.021L371.559 398.518C371.845 397.451 372.942 396.818 374.009 397.104L384.512 399.918C385.579 400.204 386.212 401.301 385.926 402.367L383.112 412.871C382.826 413.938 381.729 414.571 380.662 414.285L370.159 411.471C369.092 411.185 368.459 410.088 368.745 409.021Z" fill="#E1E4E5"/>
<path d="M368.745 409.021L371.559 398.518C371.845 397.451 372.942 396.818 374.009 397.104L384.512 399.918C385.579 400.204 386.212 401.301 385.926 402.367L383.112 412.871C382.826 413.938 381.729 414.571 380.662 414.285L370.159 411.471C369.092 411.185 368.459 410.088 368.745 409.021Z" fill="#E1E4E5"/>
<path d="M342.531 297.512L353.044 258.276C353.33 257.209 354.427 256.576 355.494 256.861L394.73 267.375C395.796 267.661 396.43 268.757 396.144 269.824L385.631 309.06C385.345 310.127 384.248 310.76 383.181 310.474L343.945 299.961C342.878 299.675 342.245 298.578 342.531 297.512Z" fill="#E1E4E5"/>
<path d="M559 57H342C333.163 57 326 64.1634 326 73V440C326 448.837 333.163 456 342 456H559C567.837 456 575 448.837 575 440V73C575 64.1634 567.837 57 559 57Z" fill="white" stroke="#E1E4E5" stroke-width="4"/>
<path d="M540 76H361C352.163 76 345 83.1634 345 92V421C345 429.837 352.163 437 361 437H540C548.837 437 556 429.837 556 421V92C556 83.1634 548.837 76 540 76Z" fill="white" stroke="#E1E4E5" stroke-width="4"/>
<path d="M391.586 108.586L380.414 97.4142C379.633 96.6332 378.367 96.6332 377.586 97.4142L366.414 108.586C365.633 109.367 365.633 110.633 366.414 111.414L377.586 122.586C378.367 123.367 379.633 123.367 380.414 122.586L391.586 111.414C392.367 110.633 392.367 109.367 391.586 108.586Z" fill="#E1E4E5"/>
<path d="M534.586 401.586L523.414 390.414C522.633 389.633 521.367 389.633 520.586 390.414L509.414 401.586C508.633 402.367 508.633 403.633 509.414 404.414L520.586 415.586C521.367 416.367 522.633 416.367 523.414 415.586L534.586 404.414C535.367 403.633 535.367 402.367 534.586 401.586Z" fill="#E1E4E5"/>
<path d="M534.586 401.586L523.414 390.414C522.633 389.633 521.367 389.633 520.586 390.414L509.414 401.586C508.633 402.367 508.633 403.633 509.414 404.414L520.586 415.586C521.367 416.367 522.633 416.367 523.414 415.586L534.586 404.414C535.367 403.633 535.367 402.367 534.586 401.586Z" fill="#E1E4E5"/>
<path d="M490.586 255.586L451.414 216.414C450.633 215.633 449.367 215.633 448.586 216.414L409.414 255.586C408.633 256.367 408.633 257.633 409.414 258.414L448.586 297.586C449.367 298.367 450.633 298.367 451.414 297.586L490.586 258.414C491.367 257.633 491.367 256.367 490.586 255.586Z" fill="#E1E4E5"/>
<path d="M196.462 129.264C215.15 140.465 241.961 130.111 241.961 130.111C241.961 130.111 238.456 101.602 219.756 90.4141C201.068 79.2141 174.268 89.5541 174.268 89.5541C174.268 89.5541 177.774 118.064 196.462 129.264Z" fill="url(#paint0_linear_1235_26143)"/>
<path d="M612.479 463.884C603.468 463.884 596.163 471.189 596.163 480.2C596.163 489.211 603.468 496.516 612.479 496.516C621.49 496.516 628.795 489.211 628.795 480.2C628.795 471.189 621.49 463.884 612.479 463.884Z" fill="#4F27AA"/>
<path d="M545.206 240.998C532.39 240.998 522 251.388 522 264.204C522 277.02 532.39 287.41 545.206 287.41C558.022 287.41 568.412 277.02 568.412 264.204C568.412 251.388 558.022 240.998 545.206 240.998Z" fill="#4F27AA"/>
<path d="M370.431 362.001C363.013 362.001 357 368.015 357 375.432C357 382.85 363.013 388.863 370.431 388.863C377.849 388.863 383.862 382.85 383.862 375.432C383.862 368.015 377.849 362.001 370.431 362.001Z" fill="#4F27AA"/>
<path d="M259.83 483.686C251.382 483.686 244.534 476.837 244.534 468.39C244.534 459.942 251.382 453.094 259.83 453.094C268.278 453.094 275.126 459.942 275.126 468.39C275.126 476.837 268.278 483.686 259.83 483.686Z" fill="#4F27AA"/>
<path d="M755.862 381.549C751.92 381.549 748.724 378.354 748.724 374.411C748.724 370.469 751.92 367.273 755.862 367.273C759.804 367.273 763 370.469 763 374.411C763 378.354 759.804 381.549 755.862 381.549Z" fill="#4F27AA"/>
<path d="M653.701 528.471C656.235 524.082 661.848 522.577 666.238 525.112C670.628 527.646 672.132 533.26 669.598 537.649C667.063 542.039 661.45 543.543 657.06 541.009C652.67 538.474 651.166 532.861 653.701 528.471Z" fill="#E1E4E5"/>
<path d="M151.075 463.444C143.753 463.444 137.818 457.508 137.818 450.187C137.818 442.865 143.753 436.93 151.075 436.93C158.397 436.93 164.332 442.865 164.332 450.187C164.332 457.508 158.397 463.444 151.075 463.444Z" fill="#E1E4E5"/>
<path d="M280.045 214.738C282.832 209.912 289.003 208.259 293.828 211.045C298.654 213.831 300.308 220.002 297.522 224.828C294.735 229.654 288.564 231.308 283.738 228.521C278.913 225.735 277.259 219.564 280.045 214.738Z" fill="#E1E4E5"/>
<path d="M694.044 263.793C687.849 263.793 682.827 258.771 682.827 252.576C682.827 246.381 687.849 241.359 694.044 241.359C700.239 241.359 705.261 246.381 705.261 252.576C705.261 258.771 700.239 263.793 694.044 263.793Z" fill="#E1E4E5"/>
<path d="M671.067 131.73C672.507 137.104 669.318 142.627 663.944 144.067C658.571 145.507 653.047 142.318 651.607 136.945C650.167 131.571 653.356 126.048 658.73 124.608C664.104 123.168 669.627 126.357 671.067 131.73Z" fill="#E1E4E5"/>
<path d="M291.649 79.6633C284.248 79.6633 278.249 73.6639 278.249 66.2633C278.249 58.8627 284.248 52.8633 291.649 52.8633C299.05 52.8633 305.049 58.8627 305.049 66.2633C305.049 73.6639 299.05 79.6633 291.649 79.6633Z" fill="#E1E4E5"/>
<path d="M725.155 307.929C728.002 302.998 733.506 300.848 737.45 303.125C741.394 305.402 742.284 311.244 739.438 316.175C736.591 321.105 731.086 323.256 727.142 320.979C723.198 318.701 722.309 312.859 725.155 307.929Z" fill="#E1E4E5"/>
<path d="M626.074 54.7221C629.071 65.9057 622.434 77.401 611.251 80.3977C600.067 83.3943 588.572 76.7575 585.575 65.5739C582.578 54.3903 589.215 42.895 600.399 39.8983C611.582 36.9017 623.078 43.5385 626.074 54.7221Z" fill="#E1E4E5"/>
<path d="M162.028 203H162.175C163.045 215.32 172.207 215.51 172.207 215.51C172.207 215.51 162.104 215.707 162.104 229.943C162.104 215.707 152 215.51 152 215.51C152 215.51 161.159 215.32 162.028 203ZM264.89 361.144H265.031C265.866 373.427 274.663 373.616 274.663 373.616C274.663 373.616 264.962 373.813 264.962 388.007C264.962 373.813 255.262 373.616 255.262 373.616C255.262 373.616 264.055 373.427 264.89 361.144ZM638.817 378.001H638.958C639.793 390.285 648.59 390.474 648.59 390.474C648.59 390.474 638.89 390.67 638.89 404.864C638.89 390.67 629.189 390.474 629.189 390.474C629.189 390.474 637.983 390.285 638.817 378.001Z" fill="#E1E4E5"/>
</g>
<defs>
<linearGradient id="paint0_linear_1235_26143" x1="268.779" y1="165.318" x2="118.409" y2="25.6051" gradientUnits="userSpaceOnUse">
<stop stop-color="white"/>
<stop offset="1" stop-color="#EEEEEE"/>
</linearGradient>
<clipPath id="clip0_1235_26143">
<rect width="900" height="600" fill="white"/>
</clipPath>
</defs>
</svg>
