<svg width="900" height="600" viewBox="0 0 900 600" fill="none" xmlns="http://www.w3.org/2000/svg">
<g clip-path="url(#clip0_1235_26190)">
<path d="M454.437 492.441C560.704 492.441 646.851 406.295 646.851 300.027C646.851 193.76 560.704 107.613 454.437 107.613C348.17 107.613 262.023 193.76 262.023 300.027C262.023 406.295 348.17 492.441 454.437 492.441Z" fill="#4F27AA"/>
<path d="M454.437 446.056C535.086 446.056 600.465 380.677 600.465 300.028C600.465 219.379 535.086 154 454.437 154C373.788 154 308.409 219.379 308.409 300.028C308.409 380.677 373.788 446.056 454.437 446.056Z" fill="white"/>
<path d="M454.437 392.8C505.673 392.8 547.208 351.265 547.208 300.029C547.208 248.793 505.673 207.258 454.437 207.258C403.201 207.258 361.666 248.793 361.666 300.029C361.666 351.265 403.201 392.8 454.437 392.8Z" fill="#4F27AA"/>
<path d="M454.437 336.105C474.362 336.105 490.515 319.953 490.515 300.027C490.515 280.102 474.362 263.949 454.437 263.949C434.512 263.949 418.359 280.102 418.359 300.027C418.359 319.953 434.512 336.105 454.437 336.105Z" fill="white"/>
<path fill-rule="evenodd" clip-rule="evenodd" d="M210.623 123.756C179.536 110.199 143.227 122.141 126.254 151.502L124.144 155.157C134.771 151.225 146.123 149.637 157.421 150.501C168.719 151.365 179.697 154.66 189.603 160.162L178.475 179.437C177.684 180.808 177.296 182.374 177.353 183.955C177.411 185.536 177.912 187.07 178.8 188.379C179.689 189.689 180.928 190.722 182.376 191.361C183.824 191.999 185.422 192.217 186.988 191.99L256.471 181.86C257.688 181.684 258.849 181.234 259.866 180.544C260.884 179.854 261.732 178.943 262.347 177.878C262.962 176.813 263.327 175.623 263.416 174.397C263.504 173.17 263.314 171.94 262.858 170.798L236.89 105.559C236.304 104.089 235.316 102.814 234.039 101.879C232.762 100.945 231.248 100.388 229.67 100.274C228.091 100.16 226.513 100.492 225.114 101.232C223.716 101.973 222.554 103.092 221.762 104.462L210.623 123.756ZM710.041 452.979C737.325 473.123 745.138 510.539 728.197 539.917L726.086 543.573C724.178 532.404 719.877 521.779 713.48 512.426C707.083 503.073 698.74 495.214 689.022 489.386L677.894 508.661C677.102 510.031 675.94 511.15 674.542 511.891C673.143 512.631 671.565 512.964 669.987 512.849C668.408 512.735 666.894 512.178 665.617 511.244C664.34 510.309 663.352 509.034 662.766 507.564L636.797 442.326C636.342 441.184 636.151 439.954 636.24 438.727C636.328 437.501 636.694 436.311 637.309 435.246C637.923 434.181 638.771 433.27 639.789 432.58C640.807 431.89 641.967 431.44 643.184 431.263L712.667 421.133C714.233 420.905 715.832 421.123 717.28 421.761C718.728 422.4 719.967 423.433 720.856 424.743C721.744 426.053 722.246 427.586 722.303 429.168C722.36 430.749 721.971 432.315 721.18 433.686L710.041 452.979ZM195.261 470.034C177.8 482.926 172.799 506.871 183.642 525.674L184.993 528.013C186.214 520.865 188.966 514.065 193.06 508.079C197.155 502.094 202.494 497.064 208.713 493.334L215.835 505.67C216.342 506.547 217.085 507.263 217.98 507.737C218.875 508.211 219.886 508.424 220.896 508.351C221.906 508.277 222.875 507.921 223.692 507.323C224.51 506.725 225.142 505.909 225.517 504.968L242.137 463.215C242.429 462.484 242.552 461.697 242.495 460.912C242.439 460.127 242.205 459.365 241.812 458.683C241.418 458.001 240.875 457.418 240.223 456.977C239.571 456.536 238.828 456.248 238.049 456.136L193.581 449.652C192.579 449.506 191.556 449.646 190.629 450.055C189.702 450.463 188.909 451.125 188.341 451.963C187.772 452.801 187.451 453.782 187.414 454.794C187.377 455.807 187.626 456.809 188.132 457.686L195.261 470.034ZM675.577 146.354C693.038 133.462 698.038 109.516 687.196 90.714L685.845 88.374C684.624 95.5225 681.872 102.322 677.777 108.308C673.683 114.294 668.343 119.324 662.124 123.054L655.002 110.718C654.495 109.841 653.752 109.124 652.857 108.65C651.962 108.175 650.951 107.963 649.941 108.036C648.931 108.109 647.962 108.465 647.144 109.064C646.327 109.662 645.695 110.479 645.32 111.42L628.701 153.172C628.41 153.903 628.288 154.69 628.344 155.475C628.401 156.26 628.635 157.021 629.028 157.703C629.421 158.384 629.964 158.968 630.615 159.409C631.267 159.851 632.009 160.139 632.788 160.252L677.257 166.735C678.26 166.881 679.283 166.742 680.21 166.333C681.137 165.925 681.93 165.264 682.499 164.425C683.067 163.587 683.388 162.605 683.425 161.593C683.461 160.58 683.212 159.578 682.705 158.701L675.577 146.354ZM720.846 314.057C733.569 312.621 743.187 301.862 743.194 289.058V287.464C740.462 290.756 737.05 293.418 733.193 295.269C729.335 297.119 725.124 298.114 720.846 298.185V289.782C720.847 289.184 720.679 288.598 720.362 288.091C720.044 287.584 719.591 287.177 719.053 286.916C718.514 286.656 717.914 286.552 717.319 286.617C716.725 286.682 716.161 286.914 715.692 287.285L694.886 303.714C694.521 304.001 694.226 304.367 694.023 304.785C693.821 305.203 693.715 305.661 693.715 306.125C693.715 306.589 693.821 307.047 694.023 307.465C694.226 307.883 694.521 308.249 694.886 308.536L715.692 324.965C716.161 325.336 716.725 325.568 717.319 325.633C717.914 325.698 718.514 325.594 719.053 325.334C719.591 325.073 720.044 324.666 720.362 324.159C720.679 323.652 720.847 323.066 720.846 322.468V314.057ZM213.059 327.471C200.336 326.035 190.718 315.276 190.711 302.472V300.878C193.444 304.17 196.855 306.832 200.713 308.683C204.57 310.533 208.781 311.528 213.059 311.599V303.196C213.058 302.598 213.226 302.012 213.543 301.505C213.861 300.998 214.314 300.591 214.853 300.33C215.391 300.07 215.991 299.966 216.586 300.031C217.18 300.096 217.744 300.328 218.213 300.699L239.019 317.128C239.384 317.415 239.679 317.781 239.882 318.199C240.084 318.617 240.19 319.075 240.19 319.539C240.19 320.003 240.084 320.461 239.882 320.879C239.679 321.297 239.384 321.663 239.019 321.95L218.213 338.379C217.744 338.75 217.18 338.982 216.586 339.047C215.991 339.112 215.391 339.008 214.853 338.748C214.314 338.487 213.861 338.08 213.543 337.573C213.226 337.066 213.058 336.48 213.059 335.882V327.471ZM450.5 62.348C451.936 49.625 462.695 40.007 475.499 40H477.092C473.8 42.7326 471.138 46.1444 469.288 50.0016C467.437 53.8589 466.442 58.0705 466.371 62.348H474.775C475.372 62.3486 475.957 62.5172 476.463 62.8346C476.969 63.1521 477.376 63.6055 477.636 64.143C477.897 64.6805 478.001 65.2805 477.936 65.8743C477.872 66.4681 477.642 67.0318 477.272 67.501L460.843 88.308C460.556 88.6727 460.189 88.9675 459.772 89.1701C459.354 89.3728 458.896 89.4781 458.432 89.4781C457.967 89.4781 457.509 89.3728 457.091 89.1701C456.674 88.9675 456.307 88.6727 456.02 88.308L439.591 67.5C439.221 67.0309 438.99 66.467 438.926 65.873C438.861 65.2789 438.965 64.6787 439.226 64.141C439.486 63.6033 439.893 63.1498 440.4 62.8326C440.906 62.5153 441.491 62.347 442.089 62.347H450.5V62.348ZM450.5 537.257C451.936 549.98 462.695 559.598 475.499 559.605H477.092C473.8 556.872 471.138 553.461 469.288 549.603C467.438 545.746 466.443 541.534 466.372 537.257H474.775C475.372 537.257 475.958 537.088 476.464 536.771C476.97 536.454 477.377 536 477.638 535.463C477.898 534.925 478.002 534.325 477.937 533.731C477.873 533.137 477.642 532.573 477.272 532.104L460.843 511.297C460.555 510.933 460.189 510.638 459.771 510.436C459.354 510.233 458.896 510.128 458.432 510.128C457.967 510.128 457.509 510.233 457.092 510.436C456.674 510.638 456.308 510.933 456.02 511.297L439.591 532.104C439.221 532.573 438.99 533.137 438.926 533.731C438.861 534.325 438.965 534.925 439.226 535.463C439.486 536.001 439.893 536.454 440.4 536.771C440.906 537.089 441.491 537.257 442.089 537.257H450.5Z" fill="#E1E4E5"/>
</g>
<defs>
<clipPath id="clip0_1235_26190">
<rect width="900" height="600" fill="white"/>
</clipPath>
</defs>
</svg>
