<svg width="900" height="600" viewBox="0 0 900 600" fill="none" xmlns="http://www.w3.org/2000/svg">
<g clip-path="url(#clip0_1235_26197)">
<path d="M587.726 156.949C645.489 214.713 662.769 301.585 631.508 377.057C600.246 452.529 526.6 501.737 444.91 501.737C363.219 501.737 289.573 452.529 258.312 377.057C227.05 301.585 244.33 214.713 302.094 156.949C320.848 138.193 343.113 123.315 367.618 113.164C392.122 103.014 418.386 97.7891 444.91 97.7891C471.434 97.7891 497.698 103.014 522.202 113.164C546.707 123.315 568.972 138.193 587.726 156.949M444.909 97.7998V131.462M444.909 501.74V468.079M587.725 156.946L563.915 180.756M302.094 442.578L325.904 418.768M646.881 299.767H613.219M242.938 299.767H276.6M587.725 442.578L563.915 418.768M302.094 156.946L325.904 180.756" stroke="#E1E4E5" stroke-width="4.389" stroke-linecap="round" stroke-linejoin="round"/>
<path d="M443.372 159.992C443.894 157.722 447.127 157.722 447.649 159.992L479.662 299.275C479.736 299.598 479.736 299.935 479.662 300.258L447.649 439.541C447.127 441.811 443.894 441.811 443.372 439.54L411.359 300.258C411.285 299.934 411.285 299.598 411.359 299.275L443.372 159.992V159.992Z" stroke="#E1E4E5" stroke-width="4.389"/>
<path d="M577.661 297.597C580.137 297.983 580.137 301.548 577.661 301.934L445.247 322.556C445.023 322.591 444.796 322.591 444.572 322.556L312.157 301.934C309.682 301.548 309.682 297.983 312.157 297.597L444.572 276.975C444.796 276.941 445.023 276.941 445.247 276.975L577.661 297.597V297.597Z" stroke="#E1E4E5" stroke-width="4.389"/>
<path d="M444.909 337.036C465.493 337.036 482.179 320.35 482.179 299.766C482.179 279.182 465.493 262.496 444.909 262.496C424.325 262.496 407.639 279.182 407.639 299.766C407.639 320.35 424.325 337.036 444.909 337.036Z" fill="#4F27AA"/>
<path d="M594.11 249.272C638.53 249.272 674.539 213.263 674.539 168.843C674.539 124.423 638.53 88.4141 594.11 88.4141C549.69 88.4141 513.681 124.423 513.681 168.843C513.681 213.263 549.69 249.272 594.11 249.272Z" fill="#4F27AA"/>
<path d="M622.491 153.281L586.822 189.607L565.407 167.815" stroke="white" stroke-width="13.43" stroke-linecap="round" stroke-linejoin="round"/>
<path d="M152.214 312.614C175.089 326.324 207.908 313.65 207.908 313.65C207.908 313.65 203.617 278.753 180.728 265.058C157.852 251.348 125.047 264.006 125.047 264.006C125.047 264.006 129.338 298.904 152.214 312.614Z" fill="url(#paint0_linear_1235_26197)"/>
<path d="M610.691 528.912C599.852 528.912 591.065 537.699 591.065 548.538C591.065 559.377 599.852 568.164 610.691 568.164C621.53 568.164 630.317 559.377 630.317 548.538C630.317 537.699 621.53 528.912 610.691 528.912Z" fill="#4F27AA"/>
<path d="M309.74 568.189C299.578 568.189 291.341 559.951 291.341 549.79C291.341 539.628 299.578 531.391 309.74 531.391C319.901 531.391 328.139 539.628 328.139 549.79C328.139 559.951 319.901 568.189 309.74 568.189Z" fill="#4F27AA"/>
<path d="M805.414 383C800.672 383 796.828 379.156 796.828 374.414C796.828 369.672 800.672 365.828 805.414 365.828C810.156 365.828 814 369.672 814 374.414C814 379.156 810.156 383 805.414 383Z" fill="#4F27AA"/>
<path d="M351.845 368.239C354.894 362.959 361.646 361.149 366.926 364.198C372.206 367.247 374.015 373.999 370.967 379.279C367.918 384.559 361.166 386.368 355.886 383.32C350.606 380.271 348.796 373.519 351.845 368.239Z" fill="#E1E4E5"/>
<path d="M101.69 461.724C92.8833 461.724 85.744 454.585 85.744 445.778C85.744 436.971 92.8833 429.832 101.69 429.832C110.497 429.832 117.636 436.971 117.636 445.778C117.636 454.585 110.497 461.724 101.69 461.724Z" fill="#E1E4E5"/>
<path d="M739.729 277.463C732.277 277.463 726.236 271.422 726.236 263.97C726.236 256.518 732.277 250.477 739.729 250.477C747.181 250.477 753.222 256.518 753.222 263.97C753.222 271.422 747.181 277.463 739.729 277.463Z" fill="#E1E4E5"/>
<path d="M588.07 383.604C589.803 390.068 585.966 396.712 579.502 398.444C573.038 400.176 566.394 396.34 564.662 389.876C562.93 383.412 566.766 376.768 573.23 375.036C579.694 373.304 586.338 377.14 588.07 383.604Z" fill="#E1E4E5"/>
<path d="M230.67 64.4997C221.768 64.4997 214.551 57.283 214.551 48.3807C214.551 39.4784 221.768 32.2617 230.67 32.2617C239.572 32.2617 246.789 39.4784 246.789 48.3807C246.789 57.283 239.572 64.4997 230.67 64.4997Z" fill="#E1E4E5"/>
<path d="M692.744 55.341C695.209 64.5417 689.749 73.9989 680.549 76.4642C671.348 78.9295 661.891 73.4694 659.426 64.2687C656.96 55.068 662.42 45.6108 671.621 43.1455C680.822 40.6802 690.279 46.1403 692.744 55.341Z" fill="#E1E4E5"/>
<path d="M169.666 166.543H169.843C170.889 181.363 181.91 181.591 181.91 181.591C181.91 181.591 169.757 181.828 169.757 198.952C169.757 181.828 157.603 181.591 157.603 181.591C157.603 181.591 168.62 181.363 169.666 166.543ZM214.838 358.454H215.007C216.012 373.229 226.593 373.457 226.593 373.457C226.593 373.457 214.925 373.693 214.925 390.766C214.925 373.693 203.256 373.457 203.256 373.457C203.256 373.457 213.833 373.229 214.838 358.454ZM714.114 382.766H714.283C715.288 397.542 725.869 397.769 725.869 397.769C725.869 397.769 714.201 398.006 714.201 415.079C714.201 398.006 702.532 397.769 702.532 397.769C702.532 397.769 713.11 397.542 714.114 382.766Z" fill="#E1E4E5"/>
</g>
<defs>
<linearGradient id="paint0_linear_1235_26197" x1="240.735" y1="356.746" x2="56.6719" y2="185.727" gradientUnits="userSpaceOnUse">
<stop stop-color="white"/>
<stop offset="1" stop-color="#EEEEEE"/>
</linearGradient>
<clipPath id="clip0_1235_26197">
<rect width="900" height="600" fill="white"/>
</clipPath>
</defs>
</svg>
