<svg width="900" height="600" viewBox="0 0 900 600" fill="none" xmlns="http://www.w3.org/2000/svg">
<g clip-path="url(#clip0_1235_26216)">
<path d="M413.961 218.376C412.543 158.786 465.984 124.971 492.882 115.512C484.606 129.109 485.434 172.087 554.955 235.224C641.857 314.145 617.915 519.872 457.412 514.551C296.91 509.231 298.684 370.01 305.778 322.126C312.872 274.241 351.889 190.886 359.87 250.299C366.254 297.829 377.577 305.813 390.583 307.882C393.539 300.197 415.38 277.965 413.961 218.376Z" fill="#4F27AA"/>
<path d="M475.432 346.602C477.751 319.408 454.124 302.45 442.021 297.371C445.446 303.817 443.864 323.436 410.132 350.335C367.968 383.959 373.224 478.654 447.171 480.738C521.118 482.822 524.196 419.146 522.273 397.062C520.35 374.978 504.741 335.785 499.41 362.713C495.146 384.256 482.004 390.801 475.966 391.381C474.822 387.785 473.113 373.796 475.432 346.602Z" fill="white"/>
<path d="M452.63 453.976C466.96 453.976 478.577 442.359 478.577 428.029C478.577 413.699 466.96 402.082 452.63 402.082C438.3 402.082 426.683 413.699 426.683 428.029C426.683 442.359 438.3 453.976 452.63 453.976Z" fill="#4F27AA"/>
<path d="M183.162 400.828C202.085 412.169 229.234 401.685 229.234 401.685C229.234 401.685 225.684 372.817 206.75 361.488C187.826 350.146 160.689 360.618 160.689 360.618C160.689 360.618 164.239 389.486 183.162 400.828Z" fill="url(#paint0_linear_1235_26216)"/>
<path d="M315.294 79.5491C305.241 79.5491 297.092 87.6984 297.092 97.7511C297.092 107.804 305.241 115.953 315.294 115.953C325.347 115.953 333.496 107.804 333.496 97.7511C333.496 87.6984 325.347 79.5491 315.294 79.5491Z" fill="#4F27AA"/>
<path d="M617.337 183.223C609.237 183.223 602.671 189.789 602.671 197.889C602.671 205.988 609.237 212.555 617.337 212.555C625.437 212.555 632.003 205.988 632.003 197.889C632.003 189.789 625.437 183.223 617.337 183.223Z" fill="#4F27AA"/>
<path d="M370.464 167.778C362.189 167.778 355.48 174.487 355.48 182.762C355.48 191.038 362.189 197.746 370.464 197.746C378.739 197.746 385.448 191.038 385.448 182.762C385.448 174.487 378.739 167.778 370.464 167.778Z" fill="#4F27AA"/>
<path d="M268.745 301.677C263.138 301.677 258.592 297.131 258.592 291.524C258.592 285.917 263.138 281.371 268.745 281.371C274.352 281.371 278.898 285.917 278.898 291.524C278.898 297.131 274.352 301.677 268.745 301.677Z" fill="#4F27AA"/>
<path d="M687.348 301.809C682.95 301.809 679.385 298.244 679.385 293.846C679.385 289.448 682.95 285.883 687.348 285.883C691.746 285.883 695.311 289.448 695.311 293.846C695.311 298.244 691.746 301.809 687.348 301.809Z" fill="#4F27AA"/>
<path d="M332.053 537.351C334.881 532.454 341.143 530.776 346.04 533.603C350.937 536.43 352.615 542.693 349.788 547.59C346.961 552.487 340.698 554.165 335.801 551.338C330.904 548.51 329.226 542.248 332.053 537.351Z" fill="#E1E4E5"/>
<path d="M687.405 428.273C679.237 428.273 672.616 421.652 672.616 413.484C672.616 405.317 679.237 398.695 687.405 398.695C695.573 398.695 702.194 405.317 702.194 413.484C702.194 421.652 695.573 428.273 687.405 428.273Z" fill="#E1E4E5"/>
<path d="M484.206 546.078C487.314 540.694 494.198 538.85 499.582 541.958C504.965 545.066 506.81 551.95 503.702 557.334C500.593 562.718 493.709 564.562 488.326 561.454C482.942 558.346 481.098 551.462 484.206 546.078Z" fill="#E1E4E5"/>
<path d="M736.486 197.997C729.575 197.997 723.972 192.394 723.972 185.483C723.972 178.571 729.575 172.969 736.486 172.969C743.397 172.969 749 178.571 749 185.483C749 192.394 743.397 197.997 736.486 197.997Z" fill="#E1E4E5"/>
<path d="M196.407 232.377C198.014 238.372 194.456 244.533 188.462 246.14C182.467 247.746 176.305 244.189 174.699 238.194C173.093 232.199 176.65 226.038 182.645 224.431C188.639 222.825 194.801 226.383 196.407 232.377Z" fill="#E1E4E5"/>
<path d="M463.067 63.0816C454.811 63.0816 448.118 56.3887 448.118 48.1326C448.118 39.8765 454.811 33.1836 463.067 33.1836C471.323 33.1836 478.016 39.8765 478.016 48.1326C478.016 56.3887 471.323 63.0816 463.067 63.0816Z" fill="#E1E4E5"/>
<path d="M626.471 513.572C629.646 508.072 635.788 505.673 640.188 508.214C644.588 510.754 645.581 517.272 642.406 522.772C639.23 528.272 633.089 530.671 628.689 528.13C624.289 525.59 623.296 519.072 626.471 513.572Z" fill="#E1E4E5"/>
<path d="M618.206 86.5661C621.549 99.0423 614.145 111.866 601.669 115.209C589.193 118.552 576.369 111.148 573.026 98.6721C569.683 86.196 577.087 73.372 589.563 70.029C602.039 66.6861 614.863 74.09 618.206 86.5661Z" fill="#E1E4E5"/>
<path d="M236.743 157.828H236.907C237.877 171.572 248.099 171.783 248.099 171.783C248.099 171.783 236.827 172.004 236.827 187.885C236.827 172.004 225.556 171.783 225.556 171.783C225.556 171.783 235.773 171.572 236.743 157.828ZM259.18 455.102H259.337C260.268 468.805 270.082 469.016 270.082 469.016C270.082 469.016 259.26 469.236 259.26 485.07C259.26 469.236 248.439 469.016 248.439 469.016C248.439 469.016 258.248 468.805 259.18 455.102Z" fill="#E1E4E5"/>
</g>
<defs>
<linearGradient id="paint0_linear_1235_26216" x1="256.39" y1="437.335" x2="104.126" y2="295.863" gradientUnits="userSpaceOnUse">
<stop stop-color="white"/>
<stop offset="1" stop-color="#EEEEEE"/>
</linearGradient>
<clipPath id="clip0_1235_26216">
<rect width="900" height="600" fill="white"/>
</clipPath>
</defs>
</svg>
