<svg width="900" height="600" viewBox="0 0 900 600" fill="none" xmlns="http://www.w3.org/2000/svg">
<g clip-path="url(#clip0_1235_26236)">
<path d="M788.21 277.934C758.123 292.858 718.192 273.668 718.192 273.668C718.192 273.668 727.066 230.29 757.168 215.386C787.255 200.462 827.17 219.631 827.17 219.631C827.17 219.631 818.296 263.009 788.21 277.934Z" fill="url(#paint0_linear_1235_26236)"/>
<path d="M114.719 366.817C146.796 386.042 192.816 368.27 192.816 368.27C192.816 368.27 186.799 319.336 154.702 300.132C122.626 280.907 76.625 298.658 76.625 298.658C76.625 298.658 82.642 347.592 114.719 366.817Z" fill="url(#paint1_linear_1235_26236)"/>
<path d="M681.569 169.609C672.496 169.609 665.141 176.964 665.141 186.037C665.141 195.11 672.496 202.465 681.569 202.465C690.642 202.465 697.997 195.11 697.997 186.037C697.997 176.964 690.642 169.609 681.569 169.609Z" fill="#4F27AA"/>
<path d="M346.243 146.16C342.358 146.16 339.208 149.31 339.208 153.195C339.208 157.081 342.358 160.23 346.243 160.23C350.128 160.23 353.278 157.081 353.278 153.195C353.278 149.31 350.128 146.16 346.243 146.16Z" fill="#4F27AA"/>
<path d="M645.463 379.134C637.994 379.134 631.94 385.188 631.94 392.657C631.94 400.125 637.994 406.18 645.463 406.18C652.931 406.18 658.986 400.125 658.986 392.657C658.986 385.188 652.931 379.134 645.463 379.134Z" fill="#4F27AA"/>
<path d="M463.946 528.822C458.017 528.822 453.211 524.015 453.211 518.087C453.211 512.158 458.017 507.352 463.946 507.352C469.875 507.352 474.681 512.158 474.681 518.087C474.681 524.015 469.875 528.822 463.946 528.822Z" fill="#4F27AA"/>
<path d="M726.26 328.19C722.291 328.19 719.073 324.973 719.073 321.003C719.073 317.034 722.291 313.816 726.26 313.816C730.23 313.816 733.447 317.034 733.447 321.003C733.447 324.973 730.23 328.19 726.26 328.19Z" fill="#4F27AA"/>
<path d="M690.796 506.99C685.692 506.99 681.555 502.852 681.555 497.749C681.555 492.645 685.692 488.508 690.796 488.508C695.9 488.508 700.037 492.645 700.037 497.749C700.037 502.852 695.9 506.99 690.796 506.99Z" fill="#E1E4E5"/>
<path d="M166.641 462.38C159.269 462.38 153.293 456.403 153.293 449.032C153.293 441.66 159.269 435.684 166.641 435.684C174.013 435.684 179.989 441.66 179.989 449.032C179.989 456.403 174.013 462.38 166.641 462.38Z" fill="#E1E4E5"/>
<path d="M798.324 462.357C792.713 462.357 788.165 457.809 788.165 452.198C788.165 446.587 792.713 442.039 798.324 442.039C803.935 442.039 808.483 446.587 808.483 452.198C808.483 457.809 803.935 462.357 798.324 462.357Z" fill="#E1E4E5"/>
<path d="M647.957 109.697C641.719 109.697 636.663 104.641 636.663 98.4034C636.663 92.1659 641.719 87.1094 647.957 87.1094C654.194 87.1094 659.251 92.1659 659.251 98.4034C659.251 104.641 654.194 109.697 647.957 109.697Z" fill="#E1E4E5"/>
<path d="M158.502 199.375C159.952 204.785 156.741 210.346 151.33 211.796C145.92 213.246 140.359 210.035 138.909 204.625C137.459 199.214 140.67 193.653 146.081 192.203C151.491 190.753 157.052 193.964 158.502 199.375Z" fill="#E1E4E5"/>
<path d="M376.317 77.9059C368.866 77.9059 362.825 71.8653 362.825 64.4139C362.825 56.9624 368.866 50.9219 376.317 50.9219C383.769 50.9219 389.809 56.9624 389.809 64.4139C389.809 71.8653 383.769 77.9059 376.317 77.9059Z" fill="#E1E4E5"/>
<path d="M761.349 404.227C755.617 404.227 750.97 400.51 750.97 395.924C750.97 391.338 755.617 387.621 761.349 387.621C767.081 387.621 771.728 391.338 771.728 395.924C771.728 400.51 767.081 404.227 761.349 404.227Z" fill="#E1E4E5"/>
<path d="M559.837 60.0795C561.152 64.9852 558.241 70.0277 553.335 71.3422C548.429 72.6567 543.386 69.7454 542.072 64.8397C540.758 59.9339 543.669 54.8914 548.575 53.5769C553.48 52.2624 558.523 55.1737 559.837 60.0795Z" fill="#E1E4E5"/>
<path d="M194.905 132.094H195.053C195.929 144.499 205.154 144.69 205.154 144.69C205.154 144.69 194.981 144.888 194.981 159.222C194.981 144.888 184.809 144.69 184.809 144.69C184.809 144.69 194.03 144.499 194.905 132.094ZM259.799 517.821H259.941C260.782 530.189 269.639 530.379 269.639 530.379C269.639 530.379 259.872 530.577 259.872 544.868C259.872 530.577 250.105 530.379 250.105 530.379C250.105 530.379 258.958 530.189 259.799 517.821Z" fill="#E1E4E5"/>
<path d="M599.824 138.645C623.993 162.814 628.503 202.662 615.497 248.103C602.512 293.47 572.17 343.93 527.466 388.633C482.763 433.337 432.303 463.68 386.936 476.664C341.494 489.67 301.647 485.16 277.478 460.992C253.31 436.823 248.8 396.976 261.806 351.534C274.79 306.167 305.133 255.707 349.836 211.004C394.54 166.3 445 135.958 490.367 122.973C535.808 109.967 575.656 114.477 599.824 138.645V138.645Z" stroke="url(#paint2_linear_1235_26236)" stroke-width="4"/>
<path d="M230.243 273.195C220.864 308.195 237.851 347.145 273.831 381.925C309.755 416.65 364.285 446.851 428.928 464.172C493.572 481.493 555.897 482.604 604.371 470.493C652.92 458.362 687.106 433.124 696.484 398.124C705.862 363.124 688.875 324.175 652.896 289.395C616.972 254.669 562.441 224.469 497.798 207.147C433.155 189.826 370.83 188.716 322.356 200.827C273.807 212.957 239.621 238.195 230.243 273.195V273.195Z" stroke="url(#paint3_linear_1235_26236)" stroke-width="4"/>
<path fill-rule="evenodd" clip-rule="evenodd" d="M459.221 441.832L550.601 489.797C568.399 499.146 589.197 484.055 585.79 464.238L568.348 362.569L642.286 290.622C656.677 276.6 648.744 252.16 628.861 249.264L526.701 234.428L481.036 141.903C472.137 123.865 446.458 123.865 437.559 141.903L391.894 234.428L289.683 249.314C269.8 252.21 261.867 276.649 276.258 290.673L350.196 362.62L332.754 464.289C329.347 484.105 350.145 499.195 367.943 489.846L459.323 441.883H459.221V441.832Z" fill="#4F27AA"/>
</g>
<defs>
<linearGradient id="paint0_linear_1235_26236" x1="672.676" y1="324.487" x2="920.827" y2="128.198" gradientUnits="userSpaceOnUse">
<stop stop-color="white"/>
<stop offset="1" stop-color="#EEEEEE"/>
</linearGradient>
<linearGradient id="paint1_linear_1235_26236" x1="238.848" y1="428.701" x2="-19.254" y2="188.891" gradientUnits="userSpaceOnUse">
<stop stop-color="white"/>
<stop offset="1" stop-color="#EEEEEE"/>
</linearGradient>
<linearGradient id="paint2_linear_1235_26236" x1="636.989" y1="484.29" x2="155.915" y2="9.39181" gradientUnits="userSpaceOnUse">
<stop stop-color="white"/>
<stop offset="1" stop-color="#EEEEEE"/>
</linearGradient>
<linearGradient id="paint3_linear_1235_26236" x1="379.195" y1="609.687" x2="568.819" y2="-80.141" gradientUnits="userSpaceOnUse">
<stop stop-color="white"/>
<stop offset="1" stop-color="#EEEEEE"/>
</linearGradient>
<clipPath id="clip0_1235_26236">
<rect width="900" height="600" fill="white"/>
</clipPath>
</defs>
</svg>
