<svg width="900" height="600" viewBox="0 0 900 600" fill="none" xmlns="http://www.w3.org/2000/svg">
<g clip-path="url(#clip0_1235_26257)">
<path d="M152 108.016H749V489.757H152V108.016Z" stroke="#E1E4E5" stroke-width="4.242" stroke-linecap="round" stroke-linejoin="bevel" stroke-dasharray="10.6 26.51"/>
<path fill-rule="evenodd" clip-rule="evenodd" d="M626.615 145.89L548.911 68.116C543.811 63.0097 537.754 58.9583 531.088 56.1931C524.421 53.4279 517.275 52.003 510.058 52H312.993C282.631 52 258.039 76.614 258.039 107.003V492.021C258.039 522.41 282.631 547.024 312.993 547.024H587.763C618.125 547.024 642.717 522.41 642.717 492.021V184.776C642.713 170.193 636.922 156.207 626.615 145.89Z" fill="white" stroke="#E1E4E5" stroke-width="4"/>
<path d="M555.479 179.062H322.193C318.972 179.062 316.361 181.674 316.361 184.895C316.361 188.115 318.972 190.727 322.193 190.727H555.479C558.7 190.727 561.311 188.115 561.311 184.895C561.311 181.674 558.7 179.062 555.479 179.062Z" fill="white" stroke="#E1E4E5" stroke-width="4.242" stroke-linecap="round" stroke-linejoin="round"/>
<path d="M555.479 216.176H322.193C318.972 216.176 316.361 218.787 316.361 222.008C316.361 225.229 318.972 227.84 322.193 227.84H555.479C558.7 227.84 561.311 225.229 561.311 222.008C561.311 218.787 558.7 216.176 555.479 216.176Z" fill="white" stroke="#E1E4E5" stroke-width="4.242" stroke-linecap="round" stroke-linejoin="round"/>
<path d="M555.479 253.289H322.193C318.972 253.289 316.361 255.9 316.361 259.121C316.361 262.342 318.972 264.953 322.193 264.953H555.479C558.7 264.953 561.311 262.342 561.311 259.121C561.311 255.9 558.7 253.289 555.479 253.289Z" fill="white" stroke="#E1E4E5" stroke-width="4.242" stroke-linecap="round" stroke-linejoin="round"/>
<path d="M555.479 290.402H322.193C318.972 290.402 316.361 293.013 316.361 296.234C316.361 299.455 318.972 302.066 322.193 302.066H555.479C558.7 302.066 561.311 299.455 561.311 296.234C561.311 293.013 558.7 290.402 555.479 290.402Z" fill="white" stroke="#E1E4E5" stroke-width="4.242" stroke-linecap="round" stroke-linejoin="round"/>
<path d="M555.479 327.516H322.193C318.972 327.516 316.361 330.127 316.361 333.348C316.361 336.569 318.972 339.18 322.193 339.18H555.479C558.7 339.18 561.311 336.569 561.311 333.348C561.311 330.127 558.7 327.516 555.479 327.516Z" fill="white" stroke="#E1E4E5" stroke-width="4.242" stroke-linecap="round" stroke-linejoin="round"/>
<path d="M555.479 364.629H322.193C318.972 364.629 316.361 367.24 316.361 370.461C316.361 373.682 318.972 376.293 322.193 376.293H555.479C558.7 376.293 561.311 373.682 561.311 370.461C561.311 367.24 558.7 364.629 555.479 364.629Z" fill="white" stroke="#E1E4E5" stroke-width="4.242" stroke-linecap="round" stroke-linejoin="round"/>
<path d="M555.479 401.742H322.193C318.972 401.742 316.361 404.353 316.361 407.574C316.361 410.795 318.972 413.406 322.193 413.406H555.479C558.7 413.406 561.311 410.795 561.311 407.574C561.311 404.353 558.7 401.742 555.479 401.742Z" fill="white" stroke="#E1E4E5" stroke-width="4.242" stroke-linecap="round" stroke-linejoin="round"/>
<path d="M555.479 438.855H322.193C318.972 438.855 316.361 441.467 316.361 444.687C316.361 447.908 318.972 450.519 322.193 450.519H555.479C558.7 450.519 561.311 447.908 561.311 444.687C561.311 441.467 558.7 438.855 555.479 438.855Z" fill="white" stroke="#E1E4E5" stroke-width="4.242" stroke-linecap="round" stroke-linejoin="round"/>
<path d="M555.479 475.969H322.193C318.972 475.969 316.361 478.58 316.361 481.801C316.361 485.022 318.972 487.633 322.193 487.633H555.479C558.7 487.633 561.311 485.022 561.311 481.801C561.311 478.58 558.7 475.969 555.479 475.969Z" fill="white" stroke="#E1E4E5" stroke-width="4.242" stroke-linecap="round" stroke-linejoin="round"/>
<path d="M695.938 519.586L650.047 473.695" stroke="#4F27AA" stroke-width="42.536" stroke-linecap="round" stroke-linejoin="round"/>
<path d="M554.418 506.272C627.33 506.272 686.437 447.165 686.437 374.253C686.437 301.341 627.33 242.234 554.418 242.234C481.506 242.234 422.399 301.341 422.399 374.253C422.399 447.165 481.506 506.272 554.418 506.272Z" fill="#4F27AA" stroke="#4F27AA" stroke-width="39.017" stroke-linecap="round" stroke-linejoin="round"/>
<path d="M554.408 400.224V395.925C554.408 381.846 563.109 374.224 571.831 368.368C580.346 362.636 588.881 355.16 588.881 341.371C588.881 322.328 573.451 306.918 554.429 306.918C535.406 306.918 519.956 322.307 519.956 341.35M554.386 448.797C553.977 448.795 553.572 448.874 553.195 449.03C552.817 449.186 552.474 449.416 552.186 449.706C551.898 449.996 551.67 450.34 551.517 450.719C551.363 451.098 551.286 451.503 551.291 451.912C551.291 452.321 551.371 452.727 551.527 453.105C551.684 453.483 551.913 453.826 552.203 454.116C552.492 454.405 552.836 454.635 553.214 454.791C553.592 454.947 553.998 455.028 554.407 455.027C554.816 455.027 555.222 454.947 555.6 454.791C555.978 454.634 556.321 454.405 556.611 454.116C556.9 453.826 557.129 453.483 557.286 453.104C557.442 452.726 557.522 452.321 557.522 451.912C557.524 451.501 557.444 451.093 557.286 450.713C557.129 450.333 556.898 449.988 556.606 449.698C556.314 449.408 555.968 449.179 555.587 449.024C555.205 448.87 554.797 448.792 554.386 448.797" stroke="white" stroke-width="25.449" stroke-linecap="round" stroke-linejoin="round"/>
</g>
<defs>
<clipPath id="clip0_1235_26257">
<rect width="900" height="600" fill="white"/>
</clipPath>
</defs>
</svg>
