<svg width="900" height="600" viewBox="0 0 900 600" fill="none" xmlns="http://www.w3.org/2000/svg">
<g clip-path="url(#clip0_1235_18593)">
<path d="M233.702 340.486C223.87 265.415 275.676 176.141 386.079 189.681C479.724 201.163 500.024 186.358 540.338 165.261C566.961 151.335 608.608 126.694 642.396 197.156C686.62 289.378 582.907 433.974 490.279 478.321C401.702 520.734 251.536 476.72 233.702 340.486Z" fill="#4F27AA"/>
<path d="M244.444 206.942L273.135 178.251C274.18 177.206 274.18 175.513 273.135 174.468C272.091 173.423 270.397 173.423 269.352 174.468L240.661 203.159C239.617 204.203 239.617 205.897 240.661 206.942C241.706 207.986 243.4 207.986 244.444 206.942Z" fill="#E1E4E5"/>
<path d="M235.322 468.944L252.368 451.898C252.989 451.277 252.989 450.27 252.368 449.65C251.748 449.029 250.741 449.029 250.12 449.65L233.074 466.696C232.453 467.317 232.453 468.324 233.073 468.944C233.694 469.565 234.701 469.565 235.322 468.944Z" fill="#E1E4E5"/>
<path d="M658.322 389.619L641.276 406.665C640.655 407.286 640.655 408.292 641.276 408.913C641.897 409.534 642.903 409.534 643.524 408.913L660.57 391.866C661.191 391.245 661.191 390.239 660.571 389.618C659.95 388.997 658.943 388.998 658.322 389.619Z" fill="#E1E4E5"/>
<path d="M247.252 186.399L255.526 178.124C256.571 177.079 256.571 175.386 255.526 174.341C254.482 173.296 252.788 173.296 251.743 174.341L243.469 182.615C242.424 183.66 242.424 185.354 243.469 186.398C244.514 187.443 246.207 187.443 247.252 186.399Z" fill="#E1E4E5"/>
<path d="M236.99 456.737L241.905 451.822C242.526 451.201 242.527 450.194 241.906 449.573C241.285 448.953 240.279 448.953 239.658 449.574L234.742 454.489C234.121 455.11 234.121 456.117 234.741 456.738C235.362 457.358 236.369 457.358 236.99 456.737Z" fill="#E1E4E5"/>
<path d="M656.653 401.825L651.737 406.741C651.116 407.362 651.116 408.368 651.737 408.989C652.357 409.61 653.364 409.61 653.985 408.989L658.901 404.073C659.522 403.452 659.522 402.446 658.901 401.825C658.28 401.204 657.274 401.204 656.653 401.825Z" fill="#E1E4E5"/>
<path d="M488.113 500.518C483.539 501.613 477.395 503.973 473.91 508.67C470.427 513.366 474.641 514.753 480.206 513.851C485.771 512.949 491.293 509.81 493.532 505.39C495.77 500.971 491.868 499.62 488.113 500.518ZM510.647 491.772C508.437 492.301 505.47 493.441 503.786 495.709C502.104 497.978 504.139 498.647 506.827 498.212C509.515 497.776 512.183 496.26 513.264 494.125C514.345 491.99 512.46 491.338 510.647 491.772ZM592.906 461.342C598.649 457.404 599.211 448.236 599.211 448.236C599.211 448.236 590.461 445.458 584.72 449.401C578.978 453.338 578.413 462.502 578.413 462.502C578.413 462.502 587.163 465.28 592.906 461.342Z" fill="#E1E4E5"/>
<path d="M577.372 125.326C581.601 125.326 585.029 121.653 585.029 117.122C585.029 112.591 581.601 108.918 577.372 108.918C573.143 108.918 569.715 112.591 569.715 117.122C569.715 121.653 573.143 125.326 577.372 125.326Z" fill="#E1E4E5"/>
<path d="M684.576 337.548C686.993 337.548 688.952 334.609 688.952 330.984C688.952 327.359 686.993 324.42 684.576 324.42C682.159 324.42 680.2 327.359 680.2 330.984C680.2 334.609 682.159 337.548 684.576 337.548Z" fill="#E1E4E5"/>
<path d="M360.775 334.885L408.898 383.491L513.925 277.381" stroke="white" stroke-width="45.945" stroke-linecap="round" stroke-linejoin="round"/>
<path d="M485.68 166.873C454.396 175.156 420.402 149.333 420.402 149.333C420.402 149.333 437.152 110.093 468.447 101.833C499.731 93.5496 533.715 119.351 533.715 119.351C533.715 119.351 516.964 158.59 485.68 166.873Z" fill="url(#paint0_linear_1235_18593)"/>
<path d="M703.145 246.156C693.738 255.73 676.147 253.712 676.147 253.712C676.147 253.712 673.82 236.17 683.235 226.601C692.642 217.027 710.224 219.04 710.224 219.04C710.224 219.04 712.552 236.582 703.145 246.156Z" fill="url(#paint1_linear_1235_18593)"/>
<path d="M198.328 317.856C207.088 317.856 214.19 325.447 214.19 334.812C214.19 344.176 207.088 351.768 198.328 351.768C189.567 351.768 182.466 344.176 182.466 334.812C182.466 325.447 189.567 317.856 198.328 317.856Z" fill="#E1E4E5"/>
<path d="M195.046 241.282C198.369 241.282 201.063 238.833 201.063 235.812C201.063 232.791 198.369 230.342 195.046 230.342C191.723 230.342 189.029 232.791 189.029 235.812C189.029 238.833 191.723 241.282 195.046 241.282Z" fill="#E1E4E5"/>
<path d="M350.383 164.706C356.727 164.706 361.869 159.564 361.869 153.22C361.869 146.877 356.727 141.734 350.383 141.734C344.039 141.734 338.897 146.877 338.897 153.22C338.897 159.564 344.039 164.706 350.383 164.706Z" fill="#E1E4E5"/>
<path d="M673.209 137.357H672.978C671.613 156.866 657.229 157.166 657.229 157.166C657.229 157.166 673.09 157.478 673.09 180.02C673.09 157.478 688.952 157.166 688.952 157.166C688.952 157.166 674.574 156.866 673.209 137.357Z" fill="#E1E4E5"/>
</g>
<defs>
<linearGradient id="paint0_linear_1235_18593" x1="367.623" y1="188.524" x2="639.781" y2="51.1076" gradientUnits="userSpaceOnUse">
<stop stop-color="white"/>
<stop offset="1" stop-color="#EEEEEE"/>
</linearGradient>
<linearGradient id="paint1_linear_1235_18593" x1="665.613" y1="278.86" x2="733.62" y2="172.253" gradientUnits="userSpaceOnUse">
<stop stop-color="white"/>
<stop offset="1" stop-color="#EEEEEE"/>
</linearGradient>
<clipPath id="clip0_1235_18593">
<rect width="900" height="600" fill="white"/>
</clipPath>
</defs>
</svg>
