<svg width="900" height="600" viewBox="0 0 900 600" fill="none" xmlns="http://www.w3.org/2000/svg">
<g clip-path="url(#clip0_1235_26361)">
<path d="M90.992 367.057C110.563 378.787 138.641 367.944 138.641 367.944C138.641 367.944 134.97 338.087 115.387 326.371C95.817 314.641 67.75 325.471 67.75 325.471C67.75 325.471 71.422 355.327 90.992 367.057Z" fill="url(#paint0_linear_1235_26361)"/>
<path d="M594.022 489.035C584.749 489.035 577.231 496.553 577.231 505.826C577.231 515.1 584.749 522.617 594.022 522.617C603.295 522.617 610.813 515.1 610.813 505.826C610.813 496.553 603.295 489.035 594.022 489.035Z" fill="#4F27AA"/>
<path d="M336.546 522.64C327.852 522.64 320.804 515.592 320.804 506.898C320.804 498.204 327.852 491.156 336.546 491.156C345.24 491.156 352.288 498.204 352.288 506.898C352.288 515.592 345.24 522.64 336.546 522.64Z" fill="#4F27AA"/>
<path d="M786.195 357.915C782.138 357.915 778.849 354.626 778.849 350.569C778.849 346.512 782.138 343.223 786.195 343.223C790.252 343.223 793.541 346.512 793.541 350.569C793.541 354.626 790.252 357.915 786.195 357.915Z" fill="#4F27AA"/>
<path d="M372.568 351.571C375.176 347.053 380.953 345.505 385.47 348.114C389.988 350.722 391.536 356.498 388.927 361.016C386.319 365.533 380.543 367.081 376.025 364.473C371.508 361.865 369.96 356.088 372.568 351.571Z" fill="#E1E4E5"/>
<path d="M272.061 473.938C264.526 473.938 258.418 467.83 258.418 460.295C258.418 452.761 264.526 446.652 272.061 446.652C279.596 446.652 285.704 452.761 285.704 460.295C285.704 467.83 279.596 473.938 272.061 473.938Z" fill="#E1E4E5"/>
<path d="M738.132 201.904C731.756 201.904 726.588 196.736 726.588 190.36C726.588 183.985 731.756 178.816 738.132 178.816C744.508 178.816 749.676 183.985 749.676 190.36C749.676 196.736 744.508 201.904 738.132 201.904Z" fill="#E1E4E5"/>
<path d="M574.669 364.721C576.15 370.251 572.869 375.935 567.339 377.417C561.809 378.899 556.125 375.617 554.643 370.087C553.161 364.557 556.443 358.873 561.973 357.391C567.503 355.91 573.187 359.191 574.669 364.721Z" fill="#E1E4E5"/>
<path d="M211.238 119.299C203.622 119.299 197.448 113.125 197.448 105.509C197.448 97.8927 203.622 91.7188 211.238 91.7188C218.854 91.7188 225.028 97.8927 225.028 105.509C225.028 113.125 218.854 119.299 211.238 119.299Z" fill="#E1E4E5"/>
<path d="M704.474 90.7282C706.584 98.6 701.912 106.691 694.04 108.801C686.168 110.91 678.077 106.238 675.968 98.3665C673.859 90.4947 678.53 82.4034 686.402 80.2941C694.274 78.1849 702.365 82.8564 704.474 90.7282Z" fill="#E1E4E5"/>
<path d="M216.707 179.016H216.858C217.753 191.695 227.182 191.89 227.182 191.89C227.182 191.89 216.784 192.093 216.784 206.743C216.784 192.093 206.387 191.89 206.387 191.89C206.387 191.89 215.812 191.695 216.707 179.016ZM255.353 343.204H255.498C256.357 355.845 265.41 356.04 265.41 356.04C265.41 356.04 255.427 356.242 255.427 370.849C255.427 356.242 245.444 356.04 245.444 356.04C245.444 356.04 254.494 355.845 255.353 343.204ZM643.951 424.881H644.096C644.955 437.523 654.008 437.717 654.008 437.717C654.008 437.717 644.025 437.92 644.025 452.526C644.025 437.92 634.043 437.717 634.043 437.717C634.043 437.717 643.092 437.523 643.951 424.881Z" fill="#E1E4E5"/>
<path d="M639.691 118.953H270.978C268.769 118.953 266.978 120.744 266.978 122.953V395.855C266.978 398.064 268.769 399.855 270.978 399.855H639.691C641.9 399.855 643.691 398.064 643.691 395.855V122.953C643.691 120.744 641.9 118.953 639.691 118.953Z" fill="white" stroke="#E1E4E5" stroke-width="4"/>
<path d="M639.691 118.953H270.978C268.769 118.953 266.978 120.744 266.978 122.953V147.616C266.978 149.825 268.769 151.616 270.978 151.616H639.691C641.9 151.616 643.691 149.825 643.691 147.616V122.953C643.691 120.744 641.9 118.953 639.691 118.953Z" fill="white" stroke="#E1E4E5" stroke-width="4"/>
<path d="M290.931 135.284C290.931 132.277 288.494 129.84 285.487 129.84C282.48 129.84 280.043 132.277 280.043 135.284C280.043 138.29 282.48 140.728 285.487 140.728C288.494 140.728 290.931 138.29 290.931 135.284Z" fill="white" stroke="#E1E4E5" stroke-width="4"/>
<path d="M310.529 135.284C310.529 132.277 308.092 129.84 305.085 129.84C302.078 129.84 299.641 132.277 299.641 135.284C299.641 138.29 302.078 140.728 305.085 140.728C308.092 140.728 310.529 138.29 310.529 135.284Z" fill="white" stroke="#E1E4E5" stroke-width="4"/>
<path d="M330.127 135.284C330.127 132.277 327.69 129.84 324.683 129.84C321.676 129.84 319.239 132.277 319.239 135.284C319.239 138.29 321.676 140.728 324.683 140.728C327.69 140.728 330.127 138.29 330.127 135.284Z" fill="white" stroke="#E1E4E5" stroke-width="4"/>
<path d="M372.943 170.125H299.286C297.077 170.125 295.286 171.916 295.286 174.125V198.788C295.286 200.997 297.077 202.788 299.286 202.788H372.943C375.152 202.788 376.943 200.997 376.943 198.788V174.125C376.943 171.916 375.152 170.125 372.943 170.125Z" fill="white" stroke="#E1E4E5" stroke-width="4"/>
<path d="M607.028 170.125H403.807C401.598 170.125 399.807 171.916 399.807 174.125V198.788C399.807 200.997 401.598 202.788 403.807 202.788H607.028C609.237 202.788 611.028 200.997 611.028 198.788V174.125C611.028 171.916 609.237 170.125 607.028 170.125Z" fill="white" stroke="#E1E4E5" stroke-width="4"/>
<path d="M372.943 331.262H299.286C297.077 331.262 295.286 333.053 295.286 335.262V359.925C295.286 362.134 297.077 363.925 299.286 363.925H372.943C375.152 363.925 376.943 362.134 376.943 359.925V335.262C376.943 333.053 375.152 331.262 372.943 331.262Z" fill="white" stroke="#E1E4E5" stroke-width="4"/>
<path d="M424.115 331.262H403.807C401.598 331.262 399.807 333.053 399.807 335.262V359.925C399.807 362.134 401.598 363.925 403.807 363.925H424.115C426.324 363.925 428.115 362.134 428.115 359.925V335.262C428.115 333.053 426.324 331.262 424.115 331.262Z" fill="white" stroke="#E1E4E5" stroke-width="4"/>
<path d="M469.843 331.262H449.535C447.326 331.262 445.535 333.053 445.535 335.262V359.925C445.535 362.134 447.326 363.925 449.535 363.925H469.843C472.052 363.925 473.843 362.134 473.843 359.925V335.262C473.843 333.053 472.052 331.262 469.843 331.262Z" fill="white" stroke="#E1E4E5" stroke-width="4"/>
<path d="M515.571 331.262H495.263C493.054 331.262 491.263 333.053 491.263 335.262V359.925C491.263 362.134 493.054 363.925 495.263 363.925H515.571C517.78 363.925 519.571 362.134 519.571 359.925V335.262C519.571 333.053 517.78 331.262 515.571 331.262Z" fill="white" stroke="#E1E4E5" stroke-width="4"/>
<path d="M561.3 331.262H540.992C538.783 331.262 536.992 333.053 536.992 335.262V359.925C536.992 362.134 538.783 363.925 540.992 363.925H561.3C563.509 363.925 565.3 362.134 565.3 359.925V335.262C565.3 333.053 563.509 331.262 561.3 331.262Z" fill="white" stroke="#E1E4E5" stroke-width="4"/>
<path d="M607.028 331.262H586.72C584.511 331.262 582.72 333.053 582.72 335.262V359.925C582.72 362.134 584.511 363.925 586.72 363.925H607.028C609.237 363.925 611.028 362.134 611.028 359.925V335.262C611.028 333.053 609.237 331.262 607.028 331.262Z" fill="white" stroke="#E1E4E5" stroke-width="4"/>
<path d="M372.943 221.297H299.286C297.077 221.297 295.286 223.088 295.286 225.297V308.753C295.286 310.962 297.077 312.753 299.286 312.753H372.943C375.152 312.753 376.943 310.962 376.943 308.753V225.297C376.943 223.088 375.152 221.297 372.943 221.297Z" fill="white" stroke="#E1E4E5" stroke-width="4"/>
<path d="M607.028 221.297H403.807C401.598 221.297 399.807 223.088 399.807 225.297V308.753C399.807 310.962 401.598 312.753 403.807 312.753H607.028C609.237 312.753 611.028 310.962 611.028 308.753V225.297C611.028 223.088 609.237 221.297 607.028 221.297Z" fill="white" stroke="#E1E4E5" stroke-width="4"/>
<path d="M192.942 325.995H269.155M719.904 325.995H643.69M145.036 269.379H269.155M767.81 269.379H643.691M102.574 221.118H269.155M810.271 221.118H643.69M195.297 406.386V323.64M717.549 406.386V323.64M103.84 140.727V223.473M809.005 140.727V223.473" stroke="#E1E4E5" stroke-width="4"/>
<path d="M102.574 158.148C120.012 158.148 134.148 144.012 134.148 126.574C134.148 109.136 120.012 95 102.574 95C85.1362 95 71 109.136 71 126.574C71 144.012 85.1362 158.148 102.574 158.148Z" fill="#4F27AA"/>
<path d="M88.42 127.664C96.237 117.502 108.911 117.502 116.728 127.664" stroke="white" stroke-width="4" stroke-linecap="round" stroke-linejoin="round"/>
<path d="M107.193 121.956C107.8 122.563 108.281 123.283 108.609 124.075C108.937 124.868 109.106 125.717 109.106 126.575C109.106 127.433 108.937 128.282 108.609 129.075C108.281 129.868 107.8 130.588 107.193 131.194C106.586 131.801 105.866 132.282 105.074 132.61C104.281 132.939 103.432 133.107 102.574 133.107C101.716 133.107 100.867 132.939 100.074 132.61C99.2817 132.282 98.5616 131.801 97.955 131.194C96.73 129.969 96.0417 128.308 96.0417 126.575C96.0417 124.843 96.73 123.181 97.955 121.956C99.18 120.731 100.842 120.043 102.574 120.043C104.306 120.043 105.968 120.731 107.193 121.956" stroke="white" stroke-width="4" stroke-linecap="round" stroke-linejoin="round"/>
<path d="M810.272 158.148C792.834 158.148 778.698 144.012 778.698 126.574C778.698 109.136 792.834 95 810.272 95C827.71 95 841.846 109.136 841.846 126.574C841.846 144.012 827.71 158.148 810.272 158.148Z" fill="#4F27AA"/>
<path d="M134.148 302.953C151.586 302.953 165.722 288.817 165.722 271.379C165.722 253.941 151.586 239.805 134.148 239.805C116.71 239.805 102.574 253.941 102.574 271.379C102.574 288.817 116.71 302.953 134.148 302.953Z" fill="#4F27AA"/>
<path fill-rule="evenodd" clip-rule="evenodd" d="M134.145 279.077L139.895 282.089C141.013 282.675 142.323 281.729 142.108 280.486L141.01 274.104L145.662 269.588C146.568 268.708 146.069 267.173 144.816 266.993L138.39 266.062L135.515 260.251C134.957 259.12 133.34 259.12 132.778 260.251L129.906 266.062L123.48 266.993C122.228 267.173 121.729 268.708 122.635 269.588L127.287 274.104L126.189 280.486C125.974 281.729 127.284 282.675 128.402 282.089L134.151 279.077H134.145Z" fill="white"/>
<path d="M778.697 302.953C761.259 302.953 747.123 288.817 747.123 271.379C747.123 253.941 761.259 239.805 778.697 239.805C796.135 239.805 810.271 253.941 810.271 271.379C810.271 288.817 796.135 302.953 778.697 302.953Z" fill="#4F27AA"/>
<path d="M779.242 272.467V259.402M779.239 281.993C779.129 281.99 779.02 282.009 778.918 282.049C778.816 282.088 778.723 282.148 778.644 282.225C778.565 282.301 778.503 282.393 778.461 282.494C778.418 282.595 778.397 282.704 778.397 282.813C778.398 282.923 778.42 283.032 778.463 283.132C778.507 283.233 778.57 283.324 778.649 283.4C778.728 283.476 778.822 283.535 778.925 283.574C779.027 283.613 779.136 283.631 779.246 283.626C779.458 283.618 779.658 283.528 779.804 283.375C779.951 283.222 780.032 283.018 780.031 282.806C780.03 282.595 779.947 282.392 779.799 282.24C779.652 282.088 779.451 282 779.239 281.993" stroke="white" stroke-width="5" stroke-linecap="round" stroke-linejoin="round"/>
<path d="M192.942 431.429C210.38 431.429 224.516 417.293 224.516 399.855C224.516 382.417 210.38 368.281 192.942 368.281C175.504 368.281 161.368 382.417 161.368 399.855C161.368 417.293 175.504 431.429 192.942 431.429Z" fill="#4F27AA"/>
<path fill-rule="evenodd" clip-rule="evenodd" d="M208.647 398.699C208.647 402.85 206.633 406.545 203.467 409.059C202.95 409.47 202.619 410.08 202.619 410.74L202.618 411.867C202.617 413.351 201.057 414.319 199.727 413.658L197.307 412.456C196.912 412.266 196.469 412.201 196.036 412.27C195.22 412.395 194.396 412.457 193.571 412.457C185.276 412.457 178.495 406.331 178.495 398.699C178.495 391.067 185.276 384.941 193.571 384.941C201.866 384.941 208.647 391.067 208.647 398.699Z" fill="white"/>
<path d="M719.904 431.429C702.466 431.429 688.33 417.293 688.33 399.855C688.33 382.417 702.466 368.281 719.904 368.281C737.342 368.281 751.478 382.417 751.478 399.855C751.478 417.293 737.342 431.429 719.904 431.429Z" fill="#4F27AA"/>
<path fill-rule="evenodd" clip-rule="evenodd" d="M730.792 410.901V412.455C730.792 413.312 730.095 414.008 729.237 414.008H710.572C710.368 414.008 710.166 413.968 709.977 413.89C709.789 413.812 709.617 413.698 709.473 413.553C709.328 413.409 709.214 413.238 709.136 413.049C709.057 412.861 709.017 412.659 709.017 412.455V410.876C709.017 406.175 714.395 403.121 719.904 403.121C725.413 403.121 730.792 406.177 730.792 410.876M723.754 389.472C724.26 389.977 724.661 390.578 724.934 391.238C725.208 391.899 725.348 392.607 725.348 393.322C725.348 394.037 725.207 394.745 724.934 395.405C724.66 396.066 724.259 396.666 723.753 397.171C723.248 397.677 722.648 398.078 721.987 398.351C721.327 398.625 720.619 398.766 719.904 398.766C719.189 398.766 718.481 398.625 717.82 398.351C717.16 398.078 716.56 397.676 716.054 397.171C715.033 396.15 714.46 394.765 714.46 393.321C714.46 391.877 715.033 390.492 716.055 389.471C717.076 388.45 718.46 387.877 719.904 387.877C721.348 387.877 722.733 388.451 723.754 389.472ZM806.316 135.96V133.78H809.035L811.344 131.466L814.531 132.823C815.095 133.063 815.719 133.129 816.321 133.012C816.923 132.894 817.476 132.599 817.909 132.165L822.436 127.628C822.869 127.193 823.164 126.638 823.281 126.035C823.398 125.432 823.332 124.808 823.093 124.242L820.782 118.791C820.471 118.056 819.887 117.471 819.153 117.159L813.714 114.843C813.15 114.603 812.526 114.537 811.924 114.654C811.322 114.772 810.769 115.067 810.336 115.502L805.81 120.039C805.377 120.474 805.083 121.028 804.966 121.631C804.849 122.234 804.914 122.858 805.154 123.424L806.473 126.536L797.207 135.823V140.728H802.101L804.141 138.684V135.958H806.316V135.96Z" fill="white"/>
<path fill-rule="evenodd" clip-rule="evenodd" d="M814.074 121.496C813.449 121.498 812.85 121.748 812.409 122.191C811.968 122.634 811.721 123.234 811.722 123.859C811.722 124.169 811.784 124.475 811.903 124.761C812.022 125.047 812.196 125.306 812.416 125.525C812.635 125.743 812.896 125.916 813.182 126.034C813.469 126.151 813.775 126.211 814.085 126.21C814.698 126.192 815.28 125.936 815.708 125.496C816.135 125.056 816.374 124.467 816.374 123.853C816.374 123.24 816.135 122.65 815.708 122.21C815.28 121.77 814.698 121.514 814.085 121.496" fill="#4F27AA"/>
<path d="M456.397 490.936C513.422 490.936 559.65 444.708 559.65 387.683C559.65 330.658 513.422 284.43 456.397 284.43C399.372 284.43 353.144 330.658 353.144 387.683C353.144 444.708 399.372 490.936 456.397 490.936Z" fill="#4F27AA"/>
<path d="M464.839 352.618C464.839 347.955 461.059 344.176 456.397 344.176C451.735 344.176 447.955 347.955 447.955 352.618V422.753C447.955 427.415 451.735 431.195 456.397 431.195C461.059 431.195 464.839 427.415 464.839 422.753V352.618Z" fill="white"/>
<path d="M491.464 396.122C496.126 396.122 499.906 392.343 499.906 387.68C499.906 383.018 496.126 379.238 491.464 379.238H421.329C416.667 379.238 412.887 383.018 412.887 387.68C412.887 392.343 416.667 396.122 421.329 396.122H491.464Z" fill="white"/>
</g>
<defs>
<linearGradient id="paint0_linear_1235_26361" x1="166.726" y1="404.814" x2="9.25202" y2="258.5" gradientUnits="userSpaceOnUse">
<stop stop-color="white"/>
<stop offset="1" stop-color="#EEEEEE"/>
</linearGradient>
<clipPath id="clip0_1235_26361">
<rect width="900" height="600" fill="white"/>
</clipPath>
</defs>
</svg>
