<svg width="900" height="600" viewBox="0 0 900 600" fill="none" xmlns="http://www.w3.org/2000/svg">
<g clip-path="url(#clip0_1235_26406)">
<path d="M520.102 120H377.928C344.155 120 316.777 147.378 316.777 181.151V323.325C316.777 357.098 344.155 384.476 377.928 384.476H520.102C553.875 384.476 581.253 357.098 581.253 323.325V181.151C581.253 147.378 553.875 120 520.102 120Z" fill="#4F27AA"/>
<path d="M449.642 317.996L502.96 371.314L449.642 424.632L396.324 371.314L449.642 317.996Z" fill="#4F27AA"/>
<path d="M450.001 183.473H449.976C433.42 183.473 419.998 196.894 419.998 213.451V260.604C419.998 277.16 433.42 290.582 449.976 290.582H450.001C466.557 290.582 479.979 277.16 479.979 260.604V213.451C479.979 196.894 466.557 183.473 450.001 183.473Z" fill="white" stroke="white" stroke-width="12.848" stroke-linecap="round" stroke-linejoin="round"/>
<path d="M514.247 256.305C514.247 291.798 485.475 320.571 449.982 320.571C414.489 320.571 385.716 291.798 385.716 256.305M449.982 346.277V320.571" stroke="white" stroke-width="12.848" stroke-linecap="round" stroke-linejoin="round"/>
<path d="M191.389 195.992L100.067 220.462C67.4453 229.203 48.086 262.734 56.827 295.356L81.2966 386.678C90.0376 419.3 123.569 438.659 156.191 429.918L247.512 405.449C280.134 396.708 299.494 363.176 290.753 330.554L266.283 239.233C257.542 206.611 224.011 187.251 191.389 195.992Z" fill="#4F27AA"/>
<path d="M196.762 396.703L222.855 411.768L207.79 437.861L181.697 422.796L196.762 396.703Z" fill="#4F27AA"/>
<path d="M121.541 326.423C136.343 322.457 145.128 307.242 141.162 292.439C137.195 277.636 121.98 268.852 107.177 272.818C92.3747 276.785 83.5901 292 87.5565 306.803C91.5228 321.605 106.738 330.39 121.541 326.423Z" fill="white"/>
<path d="M236.245 254.195L153.853 276.272C151.66 276.86 150.358 279.114 150.946 281.307C151.534 283.5 153.788 284.801 155.981 284.214L238.373 262.137C240.567 261.549 241.868 259.295 241.28 257.102C240.693 254.909 238.439 253.607 236.245 254.195Z" fill="white"/>
<path d="M250.875 308.792L102.966 348.424C100.773 349.012 99.4714 351.266 100.059 353.459C100.647 355.652 102.901 356.954 105.094 356.366L253.003 316.734C255.196 316.146 256.498 313.892 255.91 311.699C255.323 309.506 253.068 308.204 250.875 308.792Z" fill="white"/>
<path d="M242.097 276.035L159.705 298.112C157.512 298.699 156.21 300.954 156.798 303.147C157.386 305.34 159.64 306.641 161.833 306.054L244.225 283.977C246.419 283.389 247.72 281.135 247.132 278.942C246.545 276.749 244.29 275.447 242.097 276.035Z" fill="white"/>
<path d="M256.726 330.632L108.817 370.264C106.624 370.852 105.322 373.106 105.91 375.299C106.498 377.492 108.752 378.794 110.945 378.206L258.854 338.574C261.047 337.986 262.349 335.732 261.761 333.539C261.174 331.346 258.919 330.044 256.726 330.632Z" fill="white"/>
<path d="M800.709 220.461L709.387 195.991C676.765 187.25 643.234 206.609 634.493 239.231L610.023 330.553C601.282 363.175 620.642 396.706 653.264 405.447L744.585 429.917C777.207 438.658 810.739 419.299 819.48 386.677L843.949 295.355C852.69 262.733 833.331 229.202 800.709 220.461Z" fill="#4F27AA"/>
<path d="M705.007 396.969L720.072 423.062L693.979 438.127L678.914 412.034L705.007 396.969Z" fill="#4F27AA"/>
<path d="M675.003 298.494C689.806 302.46 705.021 293.676 708.987 278.873C712.954 264.07 704.169 248.855 689.367 244.889C674.564 240.922 659.349 249.707 655.383 264.51C651.416 279.312 660.201 294.527 675.003 298.494Z" fill="white"/>
<path d="M810.455 293.293L728.063 271.216C725.87 270.629 723.616 271.93 723.028 274.123C722.44 276.316 723.742 278.571 725.935 279.158L808.327 301.235C810.521 301.823 812.775 300.521 813.362 298.328C813.95 296.135 812.649 293.881 810.455 293.293Z" fill="white"/>
<path d="M795.825 347.891L647.916 308.259C645.723 307.672 643.469 308.973 642.881 311.166C642.293 313.359 643.595 315.614 645.788 316.201L793.697 355.833C795.89 356.421 798.145 355.119 798.732 352.926C799.32 350.733 798.018 348.479 795.825 347.891Z" fill="white"/>
<path d="M804.603 315.133L722.211 293.056C720.018 292.469 717.764 293.77 717.176 295.963C716.588 298.156 717.89 300.41 720.083 300.998L802.475 323.075C804.669 323.663 806.923 322.361 807.51 320.168C808.098 317.975 806.797 315.721 804.603 315.133Z" fill="white"/>
<path d="M789.974 369.731L642.065 330.099C639.872 329.512 637.618 330.813 637.03 333.006C636.442 335.199 637.744 337.453 639.937 338.041L787.846 377.673C790.039 378.261 792.294 376.959 792.881 374.766C793.469 372.573 792.167 370.319 789.974 369.731Z" fill="white"/>
<path d="M284.469 223.938C276.478 223.938 270 217.46 270 209.469C270 201.478 276.478 195 284.469 195C292.46 195 298.938 201.478 298.938 209.469C298.938 217.46 292.46 223.938 284.469 223.938Z" fill="#E1E4E5"/>
<path d="M617.028 190.054C611.49 190.054 607.001 185.565 607.001 180.027C607.001 174.489 611.49 170 617.028 170C622.566 170 627.055 174.489 627.055 180.027C627.055 185.565 622.566 190.054 617.028 190.054Z" fill="#E1E4E5"/>
<path d="M282.518 451.866C285.162 461.733 279.307 471.875 269.44 474.519C259.573 477.162 249.431 471.307 246.787 461.44C244.143 451.573 249.998 441.431 259.865 438.787C269.732 436.143 279.874 441.999 282.518 451.866Z" fill="#E1E4E5"/>
<path d="M567.699 426.215C569.506 432.96 565.504 439.893 558.758 441.701C552.013 443.508 545.08 439.505 543.273 432.76C541.465 426.015 545.468 419.082 552.213 417.274C558.959 415.467 565.892 419.47 567.699 426.215Z" fill="#E1E4E5"/>
<path d="M492.909 425H493.054C493.913 437.641 502.966 437.836 502.966 437.836C502.966 437.836 492.983 438.038 492.983 452.645C492.983 438.038 483 437.836 483 437.836C483 437.836 492.049 437.641 492.909 425ZM315.909 406H316.054C316.913 418.641 325.966 418.836 325.966 418.836C325.966 418.836 315.983 419.038 315.983 433.645C315.983 419.038 306 418.836 306 418.836C306 418.836 315.049 418.641 315.909 406ZM221.909 142H222.054C222.913 154.641 231.966 154.836 231.966 154.836C231.966 154.836 221.983 155.038 221.983 169.645C221.983 155.038 212 154.836 212 154.836C212 154.836 221.049 154.641 221.909 142Z" fill="#E1E4E5"/>
</g>
<defs>
<clipPath id="clip0_1235_26406">
<rect width="900" height="600" fill="white"/>
</clipPath>
</defs>
</svg>
