<svg width="900" height="600" viewBox="0 0 900 600" fill="none" xmlns="http://www.w3.org/2000/svg">
<g clip-path="url(#clip0_1235_26431)">
<path d="M451.426 562.125C596.193 562.125 713.549 444.768 713.549 300.002C713.549 155.235 596.193 37.8789 451.426 37.8789C306.659 37.8789 189.303 155.235 189.303 300.002C189.303 444.768 306.659 562.125 451.426 562.125Z" fill="url(#paint0_linear_1235_26431)"/>
<path d="M708.475 240.2C695.848 262.735 668.194 265.831 623.89 261.549C590.57 258.322 560.185 255.825 526.863 237.657C503.54 224.95 485.078 207.758 471.603 191.06C457.001 172.971 436.62 152.326 446.611 131.815C460.341 103.641 539.744 79.9111 616.847 118.716C701.545 161.357 720.828 218.175 708.475 240.2Z" fill="url(#paint1_linear_1235_26431)"/>
<path d="M793.833 287.318C770.045 299.118 738.473 283.945 738.473 283.945C738.473 283.945 745.489 249.648 769.29 237.864C793.077 226.064 824.637 241.22 824.637 241.22C824.637 241.22 817.62 275.518 793.833 287.318Z" fill="url(#paint2_linear_1235_26431)"/>
<path d="M118.142 373.555C149.223 392.183 193.815 374.963 193.815 374.963C193.815 374.963 187.984 327.547 156.884 308.94C125.803 290.311 81.23 307.511 81.23 307.511C81.23 307.511 87.06 354.927 118.142 373.555Z" fill="url(#paint3_linear_1235_26431)"/>
<path d="M747.028 195.256C739.854 195.256 734.039 201.072 734.039 208.245C734.039 215.419 739.854 221.234 747.028 221.234C754.202 221.234 760.017 215.419 760.017 208.245C760.017 201.072 754.202 195.256 747.028 195.256Z" fill="#4F27AA"/>
<path d="M257.822 267.206C249.752 267.206 243.21 273.748 243.21 281.818C243.21 289.888 249.752 296.43 257.822 296.43C265.892 296.43 272.434 289.888 272.434 281.818C272.434 273.748 265.892 267.206 257.822 267.206Z" fill="#4F27AA"/>
<path d="M159.929 208.108C153.204 208.108 147.752 202.656 147.752 195.931C147.752 189.206 153.204 183.754 159.929 183.754C166.654 183.754 172.106 189.206 172.106 195.931C172.106 202.656 166.654 208.108 159.929 208.108Z" fill="#4F27AA"/>
<path d="M635.635 264.932C632.496 264.932 629.952 262.388 629.952 259.249C629.952 256.111 632.496 253.566 635.635 253.566C638.774 253.566 641.318 256.111 641.318 259.249C641.318 262.388 638.774 264.932 635.635 264.932Z" fill="#4F27AA"/>
<path d="M668.43 520.116C664.395 520.116 661.124 516.845 661.124 512.81C661.124 508.775 664.395 505.504 668.43 505.504C672.465 505.504 675.736 508.775 675.736 512.81C675.736 516.845 672.465 520.116 668.43 520.116Z" fill="#E1E4E5"/>
<path d="M157.751 447.501C151.923 447.501 147.198 442.776 147.198 436.948C147.198 431.119 151.923 426.395 157.751 426.395C163.579 426.395 168.304 431.119 168.304 436.948C168.304 442.776 163.579 447.501 157.751 447.501Z" fill="#E1E4E5"/>
<path d="M279.793 175.334C275.357 175.334 271.761 171.737 271.761 167.302C271.761 162.866 275.357 159.27 279.793 159.27C284.229 159.27 287.825 162.866 287.825 167.302C287.825 171.737 284.229 175.334 279.793 175.334Z" fill="#E1E4E5"/>
<path d="M669.743 177.723C664.811 177.723 660.813 173.725 660.813 168.793C660.813 163.861 664.811 159.863 669.743 159.863C674.675 159.863 678.673 163.861 678.673 168.793C678.673 173.725 674.675 177.723 669.743 177.723Z" fill="#E1E4E5"/>
<path d="M189.678 268.052C190.825 272.33 188.286 276.727 184.008 277.873C179.73 279.019 175.333 276.481 174.187 272.203C173.041 267.925 175.579 263.528 179.857 262.382C184.135 261.235 188.532 263.774 189.678 268.052Z" fill="#E1E4E5"/>
<path d="M385.553 110.59C379.661 110.59 374.885 105.814 374.885 99.9219C374.885 94.0301 379.661 89.2539 385.553 89.2539C391.445 89.2539 396.221 94.0301 396.221 99.9219C396.221 105.814 391.445 110.59 385.553 110.59Z" fill="#E1E4E5"/>
<path d="M725.744 379.165C721.212 379.165 717.538 376.226 717.538 372.6C717.538 368.974 721.212 366.035 725.744 366.035C730.276 366.035 733.95 368.974 733.95 372.6C733.95 376.226 730.276 379.165 725.744 379.165Z" fill="#E1E4E5"/>
<path d="M587.091 95.1104C589.476 104.013 584.193 113.165 575.29 115.55C566.387 117.936 557.236 112.652 554.85 103.749C552.464 94.8462 557.748 85.695 566.651 83.3095C575.554 80.9239 584.705 86.2074 587.091 95.1104Z" fill="#E1E4E5"/>
<path d="M787.973 327.262H788.187C789.458 345.273 802.853 345.55 802.853 345.55C802.853 345.55 788.083 345.838 788.083 366.65C788.083 345.838 773.312 345.55 773.312 345.55C773.312 345.55 786.701 345.273 787.973 327.262ZM248.445 502.36H248.635C249.763 518.661 261.649 518.912 261.649 518.912C261.649 518.912 248.543 519.173 248.543 538.008C248.543 519.173 235.437 518.912 235.437 518.912C235.437 518.912 247.317 518.661 248.445 502.36Z" fill="#E1E4E5"/>
<path d="M678.726 128.305H225.322C223.006 128.305 221.128 130.182 221.128 132.499V468.453C221.128 470.769 223.006 472.647 225.322 472.647H678.726C681.042 472.647 682.92 470.769 682.92 468.453V132.499C682.92 130.182 681.042 128.305 678.726 128.305Z" fill="white" stroke="#E1E4E5" stroke-width="4"/>
<path d="M404.574 247.969V271.961M500.552 247.969V271.961M536.353 380.341C536.353 380.341 504.911 350.196 452.474 350.196C400.038 350.196 368.595 380.341 368.595 380.341" stroke="#4F27AA" stroke-width="33.798" stroke-linecap="round" stroke-linejoin="round"/>
<path d="M678.726 128.305H225.322C223.006 128.305 221.128 130.182 221.128 132.499V164.151C221.128 166.467 223.006 168.345 225.322 168.345H678.726C681.042 168.345 682.92 166.467 682.92 164.151V132.499C682.92 130.182 681.042 128.305 678.726 128.305Z" fill="white" stroke="#E1E4E5" stroke-width="4"/>
<path d="M243.818 141.648H243.817C240.132 141.648 237.144 144.636 237.144 148.321V148.322C237.144 152.008 240.132 154.995 243.817 154.995H243.818C247.503 154.995 250.491 152.008 250.491 148.322V148.321C250.491 144.636 247.503 141.648 243.818 141.648Z" fill="white" stroke="#E1E4E5" stroke-width="4.194"/>
<path d="M267.842 141.648H267.841C264.156 141.648 261.168 144.636 261.168 148.321V148.322C261.168 152.008 264.156 154.995 267.841 154.995H267.842C271.527 154.995 274.515 152.008 274.515 148.322V148.321C274.515 144.636 271.527 141.648 267.842 141.648Z" fill="white" stroke="#E1E4E5" stroke-width="4.194"/>
<path d="M291.865 141.648H291.864C288.179 141.648 285.191 144.636 285.191 148.321V148.322C285.191 152.008 288.179 154.995 291.864 154.995H291.865C295.55 154.995 298.538 152.008 298.538 148.322V148.321C298.538 144.636 295.55 141.648 291.865 141.648Z" fill="white" stroke="#E1E4E5" stroke-width="4.194"/>
</g>
<defs>
<linearGradient id="paint0_linear_1235_26431" x1="462.603" y1="856.047" x2="446.439" y2="-532.41" gradientUnits="userSpaceOnUse">
<stop stop-color="white"/>
<stop offset="1" stop-color="#EEEEEE"/>
</linearGradient>
<linearGradient id="paint1_linear_1235_26431" x1="623.412" y1="386.249" x2="510.865" y2="-119.488" gradientUnits="userSpaceOnUse">
<stop stop-color="white"/>
<stop offset="1" stop-color="#EEEEEE"/>
</linearGradient>
<linearGradient id="paint2_linear_1235_26431" x1="702.485" y1="324.125" x2="898.687" y2="168.929" gradientUnits="userSpaceOnUse">
<stop stop-color="white"/>
<stop offset="1" stop-color="#EEEEEE"/>
</linearGradient>
<linearGradient id="paint3_linear_1235_26431" x1="238.418" y1="433.518" x2="-11.673" y2="201.15" gradientUnits="userSpaceOnUse">
<stop stop-color="white"/>
<stop offset="1" stop-color="#EEEEEE"/>
</linearGradient>
<clipPath id="clip0_1235_26431">
<rect width="900" height="600" fill="white"/>
</clipPath>
</defs>
</svg>
