<svg width="900" height="600" viewBox="0 0 900 600" fill="none" xmlns="http://www.w3.org/2000/svg">
<g clip-path="url(#clip0_1235_26515)">
<path d="M769.105 71.4961H153.155C150.946 71.4961 149.155 73.287 149.155 75.4961V533.067C149.155 535.276 150.946 537.067 153.155 537.067H769.105C771.314 537.067 773.105 535.276 773.105 533.067V75.4961C773.105 73.287 771.314 71.4961 769.105 71.4961Z" fill="white" stroke="#E1E4E5" stroke-width="4"/>
<path d="M463.958 161.848H398.447C364.674 161.848 337.296 189.226 337.296 222.999V288.51C337.296 322.282 364.674 349.661 398.447 349.661H463.958C497.731 349.661 525.109 322.282 525.109 288.51V222.999C525.109 189.226 497.731 161.848 463.958 161.848Z" fill="#4F27AA"/>
<path d="M431.648 330.969L450.101 349.422L431.648 367.874L413.195 349.422L431.648 330.969Z" fill="#4F27AA"/>
<path d="M384.472 255.308C397.745 255.308 408.505 244.548 408.505 231.275C408.505 218.002 397.745 207.242 384.472 207.242C371.199 207.242 360.439 218.002 360.439 231.275C360.439 244.548 371.199 255.308 384.472 255.308Z" fill="white"/>
<path d="M496.626 220.598H422.746C420.78 220.598 419.186 222.192 419.186 224.158V224.159C419.186 226.125 420.78 227.719 422.746 227.719H496.626C498.592 227.719 500.186 226.125 500.186 224.159V224.158C500.186 222.192 498.592 220.598 496.626 220.598Z" fill="white"/>
<path d="M496.626 269.551H363.999C362.033 269.551 360.439 271.145 360.439 273.111V273.112C360.439 275.078 362.033 276.672 363.999 276.672H496.626C498.592 276.672 500.186 275.078 500.186 273.112V273.111C500.186 271.145 498.592 269.551 496.626 269.551Z" fill="white"/>
<path d="M496.626 240.18H422.746C420.78 240.18 419.186 241.774 419.186 243.74V243.741C419.186 245.707 420.78 247.301 422.746 247.301H496.626C498.592 247.301 500.186 245.707 500.186 243.741V243.74C500.186 241.774 498.592 240.18 496.626 240.18Z" fill="white"/>
<path d="M496.626 289.133H363.999C362.033 289.133 360.439 290.727 360.439 292.693V292.694C360.439 294.66 362.033 296.254 363.999 296.254H496.626C498.592 296.254 500.186 294.66 500.186 292.694V292.693C500.186 290.727 498.592 289.133 496.626 289.133Z" fill="white"/>
<path d="M687.177 276.648H621.666C587.893 276.648 560.515 304.027 560.515 337.799V403.31C560.515 437.083 587.893 464.461 621.666 464.461H687.177C720.95 464.461 748.328 437.083 748.328 403.31V337.799C748.328 304.027 720.95 276.648 687.177 276.648Z" fill="#4F27AA"/>
<path d="M654.866 445.77L673.319 464.223L654.866 482.675L636.413 464.223L654.866 445.77Z" fill="#4F27AA"/>
<path d="M607.691 370.109C620.964 370.109 631.724 359.349 631.724 346.076C631.724 332.803 620.964 322.043 607.691 322.043C594.418 322.043 583.658 332.803 583.658 346.076C583.658 359.349 594.418 370.109 607.691 370.109Z" fill="white"/>
<path d="M719.845 335.395H645.965C643.999 335.395 642.405 336.988 642.405 338.955V338.956C642.405 340.922 643.999 342.516 645.965 342.516H719.845C721.811 342.516 723.405 340.922 723.405 338.956V338.955C723.405 336.988 721.811 335.395 719.845 335.395Z" fill="white"/>
<path d="M719.845 384.352H587.218C585.252 384.352 583.658 385.945 583.658 387.912V387.913C583.658 389.879 585.252 391.473 587.218 391.473H719.845C721.811 391.473 723.405 389.879 723.405 387.913V387.912C723.405 385.945 721.811 384.352 719.845 384.352Z" fill="white"/>
<path d="M719.845 354.977H645.965C643.999 354.977 642.405 356.57 642.405 358.537V358.538C642.405 360.504 643.999 362.098 645.965 362.098H719.845C721.811 362.098 723.405 360.504 723.405 358.538V358.537C723.405 356.57 721.811 354.977 719.845 354.977Z" fill="white"/>
<path d="M719.845 403.934H587.218C585.252 403.934 583.658 405.527 583.658 407.494V407.495C583.658 409.461 585.252 411.055 587.218 411.055H719.845C721.811 411.055 723.405 409.461 723.405 407.495V407.494C723.405 405.527 721.811 403.934 719.845 403.934Z" fill="white"/>
<path fill-rule="evenodd" clip-rule="evenodd" d="M814.583 465.868V470.085H818.796C819.645 470.089 820.458 470.428 821.058 471.028C821.658 471.629 821.997 472.442 822 473.291C821.997 474.14 821.658 474.953 821.058 475.553C820.458 476.154 819.645 476.493 818.796 476.497H814.583V480.714C814.58 481.563 814.241 482.376 813.641 482.976C813.041 483.577 812.228 483.916 811.379 483.92C810.53 483.916 809.717 483.577 809.118 482.976C808.518 482.376 808.179 481.563 808.176 480.714V476.515H803.945C803.096 476.511 802.283 476.171 801.683 475.571C801.083 474.97 800.745 474.157 800.741 473.308C800.745 472.459 801.083 471.646 801.683 471.045C802.283 470.445 803.096 470.106 803.945 470.102H808.158V465.868C808.158 464.108 809.603 462.661 811.379 462.661C812.228 462.665 813.041 463.004 813.641 463.605C814.241 464.206 814.58 465.019 814.583 465.868ZM779.357 436.325V442.228H785.466C788.016 442.228 790.112 444.253 790.112 446.717C790.112 449.181 788.016 451.206 785.466 451.206H779.357V457.11C779.357 459.574 777.261 461.598 774.711 461.598C772.162 461.598 770.066 459.574 770.066 457.11V451.23H763.931C761.382 451.23 759.286 449.206 759.286 446.742C759.286 444.278 761.382 442.253 763.931 442.253H770.041V436.325C770.041 433.861 772.136 431.836 774.711 431.836C777.261 431.836 779.357 433.861 779.357 436.325Z" fill="#E1E4E5"/>
<path d="M306.723 71.4961H153.155C150.946 71.4961 149.155 73.287 149.155 75.4961V533.067C149.155 535.276 150.946 537.067 153.155 537.067H306.723C308.932 537.067 310.723 535.276 310.723 533.067V75.4961C310.723 73.287 308.932 71.4961 306.723 71.4961Z" fill="white" stroke="#E1E4E5" stroke-width="4"/>
<path d="M472.542 95.9453H341.296C339.087 95.9453 337.296 97.7362 337.296 99.9453V111.078C337.296 113.287 339.087 115.078 341.296 115.078H472.542C474.751 115.078 476.542 113.287 476.542 111.078V99.9453C476.542 97.7362 474.751 95.9453 472.542 95.9453Z" fill="white" stroke="#E1E4E5" stroke-width="4"/>
<path d="M376.877 124.645H341.296C339.087 124.645 337.296 126.435 337.296 128.645V139.778C337.296 141.987 339.087 143.778 341.296 143.778H376.877C379.086 143.778 380.877 141.987 380.877 139.778V128.645C380.877 126.435 379.086 124.645 376.877 124.645Z" fill="white" stroke="#E1E4E5" stroke-width="4"/>
<path d="M472.542 124.645H394.443C392.234 124.645 390.443 126.435 390.443 128.645V139.778C390.443 141.987 392.234 143.778 394.443 143.778H472.542C474.751 143.778 476.542 141.987 476.542 139.778V128.645C476.542 126.435 474.751 124.645 472.542 124.645Z" fill="white" stroke="#E1E4E5" stroke-width="4"/>
<path d="M744.657 124.645H666.558C664.349 124.645 662.558 126.435 662.558 128.645V139.778C662.558 141.987 664.349 143.778 666.558 143.778H744.657C746.866 143.778 748.657 141.987 748.657 139.778V128.645C748.657 126.435 746.866 124.645 744.657 124.645Z" fill="white" stroke="#E1E4E5" stroke-width="4"/>
<path d="M744.657 496.676H341.296C339.087 496.676 337.296 498.467 337.296 500.676V511.809C337.296 514.018 339.087 515.809 341.296 515.809H744.657C746.866 515.809 748.657 514.018 748.657 511.809V500.676C748.657 498.467 746.866 496.676 744.657 496.676Z" fill="white" stroke="#E1E4E5" stroke-width="4"/>
<path d="M288.653 197.988H171.225C169.016 197.988 167.225 199.779 167.225 201.988V213.121C167.225 215.33 169.016 217.121 171.225 217.121H288.653C290.862 217.121 292.653 215.33 292.653 213.121V201.988C292.653 199.779 290.862 197.988 288.653 197.988Z" fill="white" stroke="#E1E4E5" stroke-width="4"/>
<path d="M288.653 95.9453H171.225C169.016 95.9453 167.225 97.7362 167.225 99.9453V139.778C167.225 141.987 169.016 143.778 171.225 143.778H288.653C290.862 143.778 292.653 141.987 292.653 139.778V99.9453C292.653 97.7362 290.862 95.9453 288.653 95.9453Z" fill="white" stroke="#E1E4E5" stroke-width="4"/>
<path d="M288.653 326.605H171.225C169.016 326.605 167.225 328.396 167.225 330.605V341.738C167.225 343.948 169.016 345.738 171.225 345.738H288.653C290.862 345.738 292.653 343.948 292.653 341.738V330.605C292.653 328.396 290.862 326.605 288.653 326.605Z" fill="white" stroke="#E1E4E5" stroke-width="4"/>
<path d="M188.736 226.688H171.225C169.016 226.688 167.225 228.478 167.225 230.688V241.82C167.225 244.03 169.016 245.82 171.225 245.82H188.736C190.945 245.82 192.736 244.03 192.736 241.82V230.688C192.736 228.478 190.945 226.688 188.736 226.688Z" fill="white" stroke="#E1E4E5" stroke-width="4"/>
<path d="M188.736 355.305H171.225C169.016 355.305 167.225 357.096 167.225 359.305V370.438C167.225 372.647 169.016 374.438 171.225 374.438H188.736C190.945 374.438 192.736 372.647 192.736 370.438V359.305C192.736 357.096 190.945 355.305 188.736 355.305Z" fill="white" stroke="#E1E4E5" stroke-width="4"/>
<path d="M188.736 255.387H171.225C169.016 255.387 167.225 257.178 167.225 259.387V270.52C167.225 272.729 169.016 274.52 171.225 274.52H188.736C190.945 274.52 192.736 272.729 192.736 270.52V259.387C192.736 257.178 190.945 255.387 188.736 255.387Z" fill="white" stroke="#E1E4E5" stroke-width="4"/>
<path d="M188.736 384.004H171.225C169.016 384.004 167.225 385.795 167.225 388.004V399.137C167.225 401.346 169.016 403.137 171.225 403.137H188.736C190.945 403.137 192.736 401.346 192.736 399.137V388.004C192.736 385.795 190.945 384.004 188.736 384.004Z" fill="white" stroke="#E1E4E5" stroke-width="4"/>
<path d="M188.736 284.086H171.225C169.016 284.086 167.225 285.877 167.225 288.086V299.219C167.225 301.428 169.016 303.219 171.225 303.219H188.736C190.945 303.219 192.736 301.428 192.736 299.219V288.086C192.736 285.877 190.945 284.086 188.736 284.086Z" fill="white" stroke="#E1E4E5" stroke-width="4"/>
<path d="M188.736 412.703H171.225C169.016 412.703 167.225 414.494 167.225 416.703V427.836C167.225 430.045 169.016 431.836 171.225 431.836H188.736C190.945 431.836 192.736 430.045 192.736 427.836V416.703C192.736 414.494 190.945 412.703 188.736 412.703Z" fill="white" stroke="#E1E4E5" stroke-width="4"/>
<path d="M288.653 226.688H208.428C206.219 226.688 204.428 228.478 204.428 230.688V241.82C204.428 244.03 206.219 245.82 208.428 245.82H288.653C290.862 245.82 292.653 244.03 292.653 241.82V230.688C292.653 228.478 290.862 226.688 288.653 226.688Z" fill="white" stroke="#E1E4E5" stroke-width="4"/>
<path d="M288.653 355.305H208.428C206.219 355.305 204.428 357.096 204.428 359.305V370.438C204.428 372.647 206.219 374.438 208.428 374.438H288.653C290.862 374.438 292.653 372.647 292.653 370.438V359.305C292.653 357.096 290.862 355.305 288.653 355.305Z" fill="white" stroke="#E1E4E5" stroke-width="4"/>
<path d="M288.653 226.688H208.428C206.219 226.688 204.428 228.478 204.428 230.688V241.82C204.428 244.03 206.219 245.82 208.428 245.82H288.653C290.862 245.82 292.653 244.03 292.653 241.82V230.688C292.653 228.478 290.862 226.688 288.653 226.688Z" fill="white" stroke="#E1E4E5" stroke-width="4"/>
<path d="M288.653 355.305H208.428C206.219 355.305 204.428 357.096 204.428 359.305V370.438C204.428 372.647 206.219 374.438 208.428 374.438H288.653C290.862 374.438 292.653 372.647 292.653 370.438V359.305C292.653 357.096 290.862 355.305 288.653 355.305Z" fill="white" stroke="#E1E4E5" stroke-width="4"/>
<path d="M288.653 255.387H208.428C206.219 255.387 204.428 257.178 204.428 259.387V270.52C204.428 272.729 206.219 274.52 208.428 274.52H288.653C290.862 274.52 292.653 272.729 292.653 270.52V259.387C292.653 257.178 290.862 255.387 288.653 255.387Z" fill="white" stroke="#E1E4E5" stroke-width="4"/>
<path d="M288.653 384.004H208.428C206.219 384.004 204.428 385.795 204.428 388.004V399.137C204.428 401.346 206.219 403.137 208.428 403.137H288.653C290.862 403.137 292.653 401.346 292.653 399.137V388.004C292.653 385.795 290.862 384.004 288.653 384.004Z" fill="white" stroke="#E1E4E5" stroke-width="4"/>
<path d="M288.653 284.086H208.428C206.219 284.086 204.428 285.877 204.428 288.086V299.219C204.428 301.428 206.219 303.219 208.428 303.219H288.653C290.862 303.219 292.653 301.428 292.653 299.219V288.086C292.653 285.877 290.862 284.086 288.653 284.086Z" fill="white" stroke="#E1E4E5" stroke-width="4"/>
<path d="M288.653 412.703H208.428C206.219 412.703 204.428 414.494 204.428 416.703V427.836C204.428 430.045 206.219 431.836 208.428 431.836H288.653C290.862 431.836 292.653 430.045 292.653 427.836V416.703C292.653 414.494 290.862 412.703 288.653 412.703Z" fill="white" stroke="#E1E4E5" stroke-width="4"/>
<path fill-rule="evenodd" clip-rule="evenodd" d="M331.535 467.784C337.548 457.075 341.016 444.734 341.016 431.57C341.016 390.62 307.826 357.43 266.876 357.43C225.926 357.43 192.735 390.62 192.735 431.57C192.735 472.52 225.926 505.711 266.876 505.711C280.04 505.711 292.38 502.243 303.089 496.229L341.016 505.711L331.535 467.784Z" fill="#4F27AA"/>
<path fill-rule="evenodd" clip-rule="evenodd" d="M248.161 458.439H238.971C237.985 458.438 237.039 458.046 236.342 457.349C235.645 456.652 235.253 455.707 235.253 454.721V425.58C235.253 424.594 235.645 423.648 236.342 422.951C237.039 422.254 237.985 421.862 238.971 421.862H248.161C250.214 421.862 251.879 423.527 251.879 425.858V455C251.879 456.774 250.214 458.439 248.161 458.439ZM251.879 450.556L259.077 456.526C260.569 457.762 262.447 458.439 264.385 458.439H288.576C289.926 458.439 291.24 457.999 292.318 457.185C293.397 456.372 294.18 455.229 294.551 453.931L299.854 435.376C300.101 434.508 300.157 433.596 300.017 432.704C299.878 431.813 299.545 430.962 299.044 430.212L297.354 427.692C296.786 426.843 296.018 426.148 295.117 425.668C294.216 425.187 293.211 424.937 292.19 424.938H279.769L279.803 413.616C279.828 405.206 268.779 402.079 264.395 409.257L251.879 429.745" fill="white"/>
<path d="M179.416 175.469C168.343 175.469 159.367 166.493 159.367 155.42C159.367 144.347 168.343 135.371 179.416 135.371C190.489 135.371 199.465 144.347 199.465 155.42C199.465 166.493 190.489 175.469 179.416 175.469Z" fill="#E1E4E5"/>
<path d="M640.219 128.517C632.545 128.517 626.324 122.296 626.324 114.622C626.324 106.948 632.545 100.727 640.219 100.727C647.893 100.727 654.114 106.948 654.114 114.622C654.114 122.296 647.893 128.517 640.219 128.517Z" fill="#E1E4E5"/>
<path d="M176.712 491.289C180.376 504.961 172.262 519.014 158.591 522.677C144.919 526.341 130.866 518.227 127.203 504.556C123.54 490.884 131.653 476.831 145.325 473.168C158.996 469.504 173.049 477.618 176.712 491.289Z" fill="#E1E4E5"/>
<path d="M571.869 455.745C574.373 465.091 568.827 474.698 559.48 477.202C550.134 479.706 540.527 474.16 538.023 464.814C535.518 455.467 541.065 445.86 550.411 443.356C559.758 440.852 569.364 446.398 571.869 455.745Z" fill="#E1E4E5"/>
<path d="M468.236 454.064H468.437C469.627 471.58 482.171 471.85 482.171 471.85C482.171 471.85 468.339 472.13 468.339 492.369C468.339 472.13 454.506 471.85 454.506 471.85C454.506 471.85 467.045 471.58 468.236 454.064ZM696.483 197.988H696.684C697.875 215.504 710.419 215.773 710.419 215.773C710.419 215.773 696.586 216.054 696.586 236.293C696.586 216.054 682.754 215.773 682.754 215.773C682.754 215.773 695.293 215.504 696.483 197.988ZM92.73 61.9297H92.93C94.12 79.4457 106.665 79.7157 106.665 79.7157C106.665 79.7157 92.832 79.9957 92.832 100.236C92.832 79.9957 79 79.7157 79 79.7157C79 79.7157 91.539 79.4457 92.73 61.9297Z" fill="#E1E4E5"/>
</g>
<defs>
<clipPath id="clip0_1235_26515">
<rect width="900" height="600" fill="white"/>
</clipPath>
</defs>
</svg>
