<svg width="900" height="600" viewBox="0 0 900 600" fill="none" xmlns="http://www.w3.org/2000/svg">
<g clip-path="url(#clip0_1235_26569)">
<path d="M397.676 547.205C508.265 547.205 597.915 457.304 597.915 346.405C597.915 235.507 508.265 145.605 397.676 145.605C287.087 145.605 197.437 235.507 197.437 346.405C197.437 457.304 287.087 547.205 397.676 547.205Z" fill="url(#paint0_linear_1235_26569)"/>
<path d="M739.793 235.577C725.628 260.857 694.606 264.33 644.906 259.526C607.529 255.907 573.443 253.106 536.063 232.725C509.899 218.471 489.188 199.184 474.072 180.453C457.692 160.16 434.829 137.001 446.037 113.993C461.44 82.3867 550.513 55.7677 637.006 99.2987C732.018 147.132 753.649 210.87 739.793 235.577Z" fill="url(#paint1_linear_1235_26569)"/>
<path d="M835.545 288.426C808.861 301.663 773.443 284.643 773.443 284.643C773.443 284.643 781.315 246.168 808.013 232.95C834.698 219.713 870.101 236.715 870.101 236.715C870.101 236.715 862.23 275.189 835.545 288.426Z" fill="url(#paint2_linear_1235_26569)"/>
<path d="M77.5652 385.172C112.432 406.069 162.454 386.751 162.454 386.751C162.454 386.751 155.914 333.561 121.026 312.687C86.1592 291.791 36.1582 311.084 36.1582 311.084C36.1582 311.084 42.6982 364.275 77.5652 385.172Z" fill="url(#paint3_linear_1235_26569)"/>
<path d="M783.04 185.157C774.993 185.157 768.47 191.68 768.47 199.727C768.47 207.774 774.993 214.297 783.04 214.297C791.087 214.297 797.61 207.774 797.61 199.727C797.61 191.68 791.087 185.157 783.04 185.157Z" fill="#4F27AA"/>
<path d="M234.256 265.868C225.203 265.868 217.864 273.207 217.864 282.26C217.864 291.313 225.203 298.652 234.256 298.652C243.309 298.652 250.648 291.313 250.648 282.26C250.648 273.207 243.309 265.868 234.256 265.868Z" fill="#4F27AA"/>
<path d="M124.441 199.574C116.897 199.574 110.781 193.458 110.781 185.914C110.781 178.37 116.897 172.254 124.441 172.254C131.985 172.254 138.101 178.37 138.101 185.914C138.101 193.458 131.985 199.574 124.441 199.574Z" fill="#4F27AA"/>
<path d="M658.081 263.32C654.56 263.32 651.706 260.466 651.706 256.945C651.706 253.424 654.56 250.57 658.081 250.57C661.602 250.57 664.456 253.424 664.456 256.945C664.456 260.466 661.602 263.32 658.081 263.32Z" fill="#4F27AA"/>
<path d="M694.87 549.58C690.343 549.58 686.674 545.91 686.674 541.384C686.674 536.857 690.343 533.188 694.87 533.188C699.396 533.188 703.066 536.857 703.066 541.384C703.066 545.91 699.396 549.58 694.87 549.58Z" fill="#E1E4E5"/>
<path d="M121.998 468.121C115.46 468.121 110.16 462.821 110.16 456.283C110.16 449.745 115.46 444.445 121.998 444.445C128.536 444.445 133.836 449.745 133.836 456.283C133.836 462.821 128.536 468.121 121.998 468.121Z" fill="#E1E4E5"/>
<path d="M258.903 162.809C253.927 162.809 249.893 158.775 249.893 153.799C249.893 148.823 253.927 144.789 258.903 144.789C263.879 144.789 267.913 148.823 267.913 153.799C267.913 158.775 263.879 162.809 258.903 162.809Z" fill="#E1E4E5"/>
<path d="M696.344 165.487C690.812 165.487 686.327 161.002 686.327 155.47C686.327 149.938 690.812 145.453 696.344 145.453C701.876 145.453 706.361 149.938 706.361 155.47C706.361 161.002 701.876 165.487 696.344 165.487Z" fill="#E1E4E5"/>
<path d="M157.813 266.821C159.098 271.62 156.251 276.552 151.452 277.838C146.654 279.124 141.721 276.276 140.435 271.478C139.15 266.679 141.997 261.747 146.796 260.461C151.594 259.175 156.527 262.023 157.813 266.821Z" fill="#E1E4E5"/>
<path d="M377.544 90.1762C370.935 90.1762 365.577 84.8184 365.577 78.2092C365.577 71.6 370.935 66.2422 377.544 66.2422C384.153 66.2422 389.511 71.6 389.511 78.2092C389.511 84.8184 384.153 90.1762 377.544 90.1762Z" fill="#E1E4E5"/>
<path d="M759.165 391.462C754.081 391.462 749.96 388.165 749.96 384.098C749.96 380.031 754.081 376.734 759.165 376.734C764.249 376.734 768.37 380.031 768.37 384.098C768.37 388.165 764.249 391.462 759.165 391.462Z" fill="#E1E4E5"/>
<path d="M603.625 72.8143C606.301 82.8013 600.375 93.0667 590.388 95.7427C580.401 98.4187 570.135 92.492 567.459 82.505C564.783 72.518 570.71 62.2525 580.697 59.5765C590.684 56.9005 600.949 62.8273 603.625 72.8143Z" fill="#E1E4E5"/>
<path d="M828.972 333.238H829.212C830.638 353.442 845.664 353.753 845.664 353.753C845.664 353.753 829.095 354.077 829.095 377.423C829.095 354.077 812.526 353.753 812.526 353.753C812.526 353.753 827.545 353.442 828.972 333.238ZM608.02 448.489H608.234C609.499 466.776 622.832 467.057 622.832 467.057C622.832 467.057 608.13 467.35 608.13 488.479C608.13 467.35 593.427 467.057 593.427 467.057C593.427 467.057 606.755 466.776 608.02 448.489Z" fill="#E1E4E5"/>
<path d="M558.017 41.2812H310.25C308.041 41.2812 306.25 43.0721 306.25 45.2812V560.033C306.25 562.242 308.041 564.033 310.25 564.033H558.017C560.226 564.033 562.017 562.242 562.017 560.033V45.2812C562.017 43.0721 560.226 41.2812 558.017 41.2812Z" fill="white" stroke="#E1E4E5" stroke-width="4"/>
<path d="M507.813 92.8828H359.609C357.4 92.8828 355.609 94.6737 355.609 96.8828V110.346C355.609 112.555 357.4 114.346 359.609 114.346H507.813C510.022 114.346 511.813 112.555 511.813 110.346V96.8828C511.813 94.6737 510.022 92.8828 507.813 92.8828Z" fill="white" stroke="#E1E4E5" stroke-width="4"/>
<path d="M529.973 72.6914H337.173C334.964 72.6914 333.173 74.4823 333.173 76.6914V208.914C333.173 211.124 334.964 212.914 337.173 212.914H529.973C532.182 212.914 533.973 211.124 533.973 208.914V76.6914C533.973 74.4823 532.182 72.6914 529.973 72.6914Z" stroke="#E1E4E5" stroke-width="4"/>
<path d="M400.497 125.078H359.609C357.4 125.078 355.609 126.869 355.609 129.078V142.541C355.609 144.75 357.4 146.541 359.609 146.541H400.497C402.706 146.541 404.497 144.75 404.497 142.541V129.078C404.497 126.869 402.706 125.078 400.497 125.078Z" fill="white" stroke="#E1E4E5" stroke-width="4"/>
<path d="M507.813 125.078H419.229C417.02 125.078 415.229 126.869 415.229 129.078V142.541C415.229 144.75 417.02 146.541 419.229 146.541H507.813C510.022 146.541 511.813 144.75 511.813 142.541V129.078C511.813 126.869 510.022 125.078 507.813 125.078Z" fill="white" stroke="#E1E4E5" stroke-width="4"/>
<path d="M511.537 183.184C511.537 177.299 506.766 172.527 500.88 172.527C494.994 172.527 490.223 177.299 490.223 183.184C490.223 189.07 494.994 193.841 500.88 193.841C506.766 193.841 511.537 189.07 511.537 183.184Z" fill="white" stroke="#E1E4E5" stroke-width="4"/>
<path d="M507.813 253.297H359.609C357.4 253.297 355.609 255.088 355.609 257.297V270.76C355.609 272.969 357.4 274.76 359.609 274.76H507.813C510.022 274.76 511.813 272.969 511.813 270.76V257.297C511.813 255.088 510.022 253.297 507.813 253.297Z" fill="white" stroke="#E1E4E5" stroke-width="4"/>
<path d="M529.973 233.105H337.173C334.964 233.105 333.173 234.896 333.173 237.105V369.328C333.173 371.538 334.964 373.328 337.173 373.328H529.973C532.182 373.328 533.973 371.538 533.973 369.328V237.105C533.973 234.896 532.182 233.105 529.973 233.105Z" stroke="#E1E4E5" stroke-width="4"/>
<path d="M400.497 285.492H359.609C357.4 285.492 355.609 287.283 355.609 289.492V302.955C355.609 305.164 357.4 306.955 359.609 306.955H400.497C402.706 306.955 404.497 305.164 404.497 302.955V289.492C404.497 287.283 402.706 285.492 400.497 285.492Z" fill="white" stroke="#E1E4E5" stroke-width="4"/>
<path d="M507.813 285.492H419.229C417.02 285.492 415.229 287.283 415.229 289.492V302.955C415.229 305.164 417.02 306.955 419.229 306.955H507.813C510.022 306.955 511.813 305.164 511.813 302.955V289.492C511.813 287.283 510.022 285.492 507.813 285.492Z" fill="white" stroke="#E1E4E5" stroke-width="4"/>
<path d="M511.537 343.602C511.537 337.717 506.766 332.945 500.88 332.945C494.994 332.945 490.223 337.717 490.223 343.602C490.223 349.488 494.994 354.259 500.88 354.259C506.766 354.259 511.537 349.488 511.537 343.602Z" fill="white" stroke="#E1E4E5" stroke-width="4"/>
<path d="M507.813 413.715H359.609C357.4 413.715 355.609 415.506 355.609 417.715V431.178C355.609 433.387 357.4 435.178 359.609 435.178H507.813C510.022 435.178 511.813 433.387 511.813 431.178V417.715C511.813 415.506 510.022 413.715 507.813 413.715Z" fill="white" stroke="#E1E4E5" stroke-width="4"/>
<path d="M529.973 393.52H337.173C334.964 393.52 333.173 395.31 333.173 397.52V529.743C333.173 531.952 334.964 533.743 337.173 533.743H529.973C532.182 533.743 533.973 531.952 533.973 529.743V397.52C533.973 395.31 532.182 393.52 529.973 393.52Z" stroke="#E1E4E5" stroke-width="4"/>
<path d="M400.497 445.906H359.609C357.4 445.906 355.609 447.697 355.609 449.906V463.369C355.609 465.578 357.4 467.369 359.609 467.369H400.497C402.706 467.369 404.497 465.578 404.497 463.369V449.906C404.497 447.697 402.706 445.906 400.497 445.906Z" fill="white" stroke="#E1E4E5" stroke-width="4"/>
<path d="M507.813 445.906H419.229C417.02 445.906 415.229 447.697 415.229 449.906V463.369C415.229 465.578 417.02 467.369 419.229 467.369H507.813C510.022 467.369 511.813 465.578 511.813 463.369V449.906C511.813 447.697 510.022 445.906 507.813 445.906Z" fill="white" stroke="#E1E4E5" stroke-width="4"/>
<path d="M511.537 504.016C511.537 498.131 506.766 493.359 500.88 493.359C494.994 493.359 490.223 498.131 490.223 504.016C490.223 509.902 494.994 514.673 500.88 514.673C506.766 514.673 511.537 509.902 511.537 504.016Z" fill="white" stroke="#E1E4E5" stroke-width="4"/>
<path d="M745.103 310.442V411.118H602.464V396.012C602.464 381.956 589.196 376.895 557.833 379.019C532.743 380.718 524.862 370.826 524.058 365.668V301.035L501.441 293.449C503.15 250.158 519.474 157.083 571.102 131.109C635.636 98.6413 694.527 113.357 733.342 171.466C761.973 214.33 751.938 278.176 745.103 310.442Z" fill="#4F27AA"/>
<path d="M573.18 249.703C579.784 249.703 585.137 244.35 585.137 237.746C585.137 231.142 579.784 225.789 573.18 225.789C566.576 225.789 561.223 231.142 561.223 237.746C561.223 244.35 566.576 249.703 573.18 249.703Z" fill="white"/>
<path d="M167.427 446.18V546.857H310.066V531.751C310.066 517.695 323.335 512.634 354.697 514.758C379.787 516.458 387.668 506.565 388.472 501.407V436.774L411.089 429.188C409.38 385.898 393.056 292.823 341.428 266.848C276.894 234.38 218.003 249.096 179.188 307.206C150.557 350.069 160.592 413.914 167.427 446.18Z" fill="#4F27AA"/>
<path d="M339.35 385.441C332.746 385.441 327.393 380.088 327.393 373.484C327.393 366.881 332.746 361.527 339.35 361.527C345.954 361.527 351.307 366.881 351.307 373.484C351.307 380.088 345.954 385.441 339.35 385.441Z" fill="white"/>
</g>
<defs>
<linearGradient id="paint0_linear_1235_26569" x1="406.215" y1="772.364" x2="393.797" y2="-291.265" gradientUnits="userSpaceOnUse">
<stop stop-color="white"/>
<stop offset="1" stop-color="#EEEEEE"/>
</linearGradient>
<linearGradient id="paint1_linear_1235_26569" x1="644.37" y1="399.413" x2="518.117" y2="-167.915" gradientUnits="userSpaceOnUse">
<stop stop-color="white"/>
<stop offset="1" stop-color="#EEEEEE"/>
</linearGradient>
<linearGradient id="paint2_linear_1235_26569" x1="733.073" y1="329.716" x2="953.169" y2="155.619" gradientUnits="userSpaceOnUse">
<stop stop-color="white"/>
<stop offset="1" stop-color="#EEEEEE"/>
</linearGradient>
<linearGradient id="paint3_linear_1235_26569" x1="212.49" y1="452.438" x2="-68.0598" y2="191.771" gradientUnits="userSpaceOnUse">
<stop stop-color="white"/>
<stop offset="1" stop-color="#EEEEEE"/>
</linearGradient>
<clipPath id="clip0_1235_26569">
<rect width="900" height="600" fill="white"/>
</clipPath>
</defs>
</svg>
