<svg width="900" height="600" viewBox="0 0 900 600" fill="none" xmlns="http://www.w3.org/2000/svg">
<g clip-path="url(#clip0_1235_18612)">
<path d="M753.733 269.492H636.189C631.734 269.492 628.122 273.104 628.122 277.559C628.122 282.014 631.734 285.626 636.189 285.626H753.733C758.188 285.626 761.8 282.014 761.8 277.559C761.8 273.104 758.188 269.492 753.733 269.492Z" fill="url(#paint0_linear_1235_18612)"/>
<path d="M701.299 301.76H640.222C635.449 301.76 631.579 305.629 631.579 310.403C631.579 315.176 635.449 319.046 640.222 319.046H701.299C706.072 319.046 709.942 315.176 709.942 310.403C709.942 305.629 706.072 301.76 701.299 301.76Z" fill="url(#paint1_linear_1235_18612)"/>
<path d="M667.303 335.18H633.884C629.429 335.18 625.817 338.791 625.817 343.247C625.817 347.702 629.429 351.314 633.884 351.314H667.303C671.758 351.314 675.37 347.702 675.37 343.247C675.37 338.791 671.758 335.18 667.303 335.18Z" fill="url(#paint2_linear_1235_18612)"/>
<path d="M786 253.359C780.309 230.411 726.531 196.896 697.792 217.102C688.971 173.383 680.72 146.119 651.9 124.583C623.08 103.046 574.992 131.197 567.269 190.161C559.546 165.922 520.279 133.254 488.735 160.8C459.55 186.289 456.623 228.999 459.671 253.319H786V253.359Z" fill="url(#paint3_linear_1235_18612)"/>
<path d="M334.877 145.034C337.863 133.171 366.078 115.845 381.156 126.291C385.783 103.69 390.113 89.5973 405.233 78.4633C420.353 67.3303 445.582 81.8833 449.634 112.364C453.686 99.8343 474.287 82.9463 490.837 97.1863C506.149 110.362 507.684 132.441 506.085 145.013H334.877V145.034Z" fill="url(#paint4_linear_1235_18612)"/>
<path d="M112.465 269.493C116.854 252.184 158.324 226.906 180.485 242.146C187.287 209.172 193.65 188.609 215.874 172.365C238.097 156.121 275.179 177.354 281.135 221.826C287.09 203.544 317.37 178.905 341.694 199.681C364.2 218.906 366.457 251.12 364.106 269.462H112.465V269.493Z" fill="url(#paint5_linear_1235_18612)"/>
<path fill-rule="evenodd" clip-rule="evenodd" d="M588.884 383.139C603.588 358.897 612.053 330.451 612.053 300.028C612.053 211.397 540.204 139.547 451.572 139.547C362.941 139.547 291.091 211.397 291.091 300.028C291.091 388.659 362.941 460.509 451.572 460.509C476.916 460.509 500.887 454.634 522.199 444.173L500.51 374.426C495.933 359.698 510.91 346.5 524.808 353.025L588.884 383.139Z" fill="#4F27AA"/>
<path d="M396.49 363.413H414.929M396.49 308.674H432.215M396.49 252.783H507.12" stroke="white" stroke-width="23.84" stroke-linecap="round" stroke-linejoin="round"/>
<path fill-rule="evenodd" clip-rule="evenodd" d="M552.341 479.357L524.411 390.264C521.466 380.865 531.102 372.443 540.043 376.607L623.339 415.437C633.211 420.036 631.55 434.54 620.889 436.787L586.597 444.033L573.875 479.757C570.211 490.014 555.604 489.732 552.341 479.357Z" fill="#4F27AA"/>
<path d="M714.269 353.526L687.358 380.437C686.378 381.417 686.378 383.005 687.358 383.985L687.359 383.986C688.339 384.966 689.927 384.966 690.907 383.986L717.818 357.075C718.798 356.095 718.798 354.506 717.818 353.526L717.817 353.526C716.838 352.546 715.249 352.546 714.269 353.526Z" fill="#E1E4E5"/>
<path d="M711.635 372.793L703.874 380.554C702.894 381.534 702.894 383.122 703.874 384.102L703.875 384.103C704.855 385.083 706.443 385.083 707.423 384.103L715.184 376.342C716.164 375.362 716.164 373.773 715.184 372.793L715.184 372.793C714.204 371.813 712.615 371.813 711.635 372.793Z" fill="#E1E4E5"/>
<path d="M561.442 94.7504L534.531 121.661C533.551 122.641 533.551 124.23 534.531 125.21L534.532 125.21C535.512 126.19 537.1 126.19 538.08 125.21L564.991 98.2993C565.971 97.3195 565.971 95.7309 564.991 94.7511L564.991 94.7504C564.011 93.7705 562.422 93.7706 561.442 94.7504Z" fill="#E1E4E5"/>
<path d="M558.808 114.017L551.047 121.779C550.067 122.758 550.067 124.347 551.047 125.327L551.048 125.328C552.028 126.307 553.616 126.307 554.596 125.328L562.357 117.566C563.337 116.587 563.337 114.998 562.357 114.018L562.357 114.017C561.377 113.038 559.788 113.038 558.808 114.017Z" fill="#E1E4E5"/>
<path d="M234.18 361.767L261.091 334.856C262.071 333.876 262.071 332.288 261.091 331.308L261.09 331.307C260.11 330.327 258.522 330.327 257.542 331.307L230.631 358.218C229.651 359.198 229.651 360.787 230.631 361.767L230.632 361.767C231.611 362.747 233.2 362.747 234.18 361.767Z" fill="#E1E4E5"/>
<path d="M236.814 342.502L244.575 334.741C245.555 333.761 245.555 332.172 244.575 331.193L244.574 331.192C243.594 330.212 242.006 330.212 241.026 331.192L233.265 338.953C232.285 339.933 232.285 341.522 233.265 342.501L233.265 342.502C234.245 343.482 235.834 343.482 236.814 342.502Z" fill="#E1E4E5"/>
<path d="M445.644 484.94L418.733 511.851C417.753 512.831 417.753 514.419 418.733 515.399L418.734 515.4C419.714 516.38 421.302 516.38 422.282 515.4L449.193 488.489C450.173 487.509 450.173 485.92 449.193 484.941L449.192 484.94C448.213 483.96 446.624 483.96 445.644 484.94Z" fill="#E1E4E5"/>
<path d="M443.009 504.207L435.248 511.968C434.268 512.948 434.268 514.536 435.248 515.516L435.249 515.517C436.229 516.497 437.817 516.497 438.797 515.517L446.558 507.756C447.538 506.776 447.538 505.187 446.558 504.208L446.558 504.207C445.578 503.227 443.989 503.227 443.009 504.207Z" fill="#E1E4E5"/>
</g>
<defs>
<linearGradient id="paint0_linear_1235_18612" x1="697.811" y1="294.671" x2="697.751" y2="251.935" gradientUnits="userSpaceOnUse">
<stop stop-color="white"/>
<stop offset="1" stop-color="#EEEEEE"/>
</linearGradient>
<linearGradient id="paint1_linear_1235_18612" x1="672.431" y1="328.737" x2="672.314" y2="282.95" gradientUnits="userSpaceOnUse">
<stop stop-color="white"/>
<stop offset="1" stop-color="#EEEEEE"/>
</linearGradient>
<linearGradient id="paint2_linear_1235_18612" x1="651.65" y1="360.359" x2="651.488" y2="317.624" gradientUnits="userSpaceOnUse">
<stop stop-color="white"/>
<stop offset="1" stop-color="#EEEEEE"/>
</linearGradient>
<linearGradient id="paint3_linear_1235_18612" x1="629.338" y1="329.599" x2="627.596" y2="-30.5897" gradientUnits="userSpaceOnUse">
<stop stop-color="white"/>
<stop offset="1" stop-color="#EEEEEE"/>
</linearGradient>
<linearGradient id="paint4_linear_1235_18612" x1="417.07" y1="184.446" x2="417.957" y2="-1.75271" gradientUnits="userSpaceOnUse">
<stop stop-color="white"/>
<stop offset="1" stop-color="#EEEEEE"/>
</linearGradient>
<linearGradient id="paint5_linear_1235_18612" x1="233.271" y1="326.996" x2="234.557" y2="55.328" gradientUnits="userSpaceOnUse">
<stop stop-color="white"/>
<stop offset="1" stop-color="#EEEEEE"/>
</linearGradient>
<clipPath id="clip0_1235_18612">
<rect width="900" height="600" fill="white"/>
</clipPath>
</defs>
</svg>
