<svg width="900" height="600" viewBox="0 0 900 600" fill="none" xmlns="http://www.w3.org/2000/svg">
<g clip-path="url(#clip0_1235_26608)">
<path d="M215.095 214.229C225.731 233.212 249.025 235.82 286.344 232.213C314.41 229.495 340.004 227.392 368.073 212.088C387.719 201.384 403.27 186.903 414.62 172.838C426.92 157.6 444.088 140.211 435.672 122.934C424.106 99.2011 357.222 79.2141 292.276 111.9C220.932 147.817 204.69 195.677 215.095 214.229Z" fill="url(#paint0_linear_1235_26608)"/>
<path d="M143.196 253.916C163.233 263.856 189.827 251.076 189.827 251.076C189.827 251.076 183.917 222.186 163.869 212.26C143.832 202.321 117.248 215.087 117.248 215.087C117.248 215.087 123.159 243.977 143.196 253.916Z" fill="url(#paint1_linear_1235_26608)"/>
<path d="M712.352 326.56C686.172 342.251 648.61 327.746 648.61 327.746C648.61 327.746 653.522 287.806 679.718 272.133C705.899 256.441 743.444 270.929 743.444 270.929C743.444 270.929 738.533 310.869 712.352 326.56Z" fill="url(#paint2_linear_1235_26608)"/>
<path d="M182.621 176.372C188.664 176.372 193.562 181.27 193.562 187.313C193.562 193.355 188.664 198.254 182.621 198.254C176.579 198.254 171.68 193.355 171.68 187.313C171.68 181.27 176.579 176.372 182.621 176.372Z" fill="#4F27AA"/>
<path d="M594.695 236.978C601.493 236.978 607.003 242.488 607.003 249.286C607.003 256.083 601.493 261.594 594.695 261.594C587.898 261.594 582.387 256.083 582.387 249.286C582.387 242.488 587.898 236.978 594.695 236.978Z" fill="#4F27AA"/>
<path d="M677.154 187.198C682.819 187.198 687.411 182.605 687.411 176.941C687.411 171.276 682.819 166.684 677.154 166.684C671.489 166.684 666.897 171.276 666.897 176.941C666.897 182.605 671.489 187.198 677.154 187.198Z" fill="#4F27AA"/>
<path d="M276.451 235.062C279.095 235.062 281.238 232.919 281.238 230.275C281.238 227.631 279.095 225.488 276.451 225.488C273.807 225.488 271.664 227.631 271.664 230.275C271.664 232.919 273.807 235.062 276.451 235.062Z" fill="#4F27AA"/>
<path d="M248.827 450.011C252.226 450.011 254.981 447.256 254.981 443.857C254.981 440.458 252.226 437.703 248.827 437.703C245.428 437.703 242.673 440.458 242.673 443.857C242.673 447.256 245.428 450.011 248.827 450.011Z" fill="#E1E4E5"/>
<path d="M678.988 388.844C683.897 388.844 687.877 384.865 687.877 379.955C687.877 375.046 683.897 371.066 678.988 371.066C674.079 371.066 670.099 375.046 670.099 379.955C670.099 384.865 674.079 388.844 678.988 388.844Z" fill="#E1E4E5"/>
<path d="M538.266 310.458C542.003 310.458 545.032 307.429 545.032 303.692C545.032 299.955 542.003 296.926 538.266 296.926C534.529 296.926 531.5 299.955 531.5 303.692C531.5 307.429 534.529 310.458 538.266 310.458Z" fill="#E1E4E5"/>
<path d="M247.72 161.603C251.875 161.603 255.242 158.235 255.242 154.081C255.242 149.926 251.875 146.559 247.72 146.559C243.566 146.559 240.198 149.926 240.198 154.081C240.198 158.235 243.566 161.603 247.72 161.603Z" fill="#E1E4E5"/>
<path d="M652.096 237.692C651.131 241.295 653.269 244.998 656.872 245.964C660.475 246.929 664.179 244.791 665.144 241.188C666.109 237.585 663.971 233.881 660.368 232.916C656.765 231.951 653.062 234.089 652.096 237.692Z" fill="#E1E4E5"/>
<path d="M487.103 105.054C492.066 105.054 496.089 101.031 496.089 96.068C496.089 91.1052 492.066 87.082 487.103 87.082C482.14 87.082 478.117 91.1052 478.117 96.068C478.117 101.031 482.14 105.054 487.103 105.054Z" fill="#E1E4E5"/>
<path d="M200.549 331.283C204.367 331.283 207.461 328.807 207.461 325.753C207.461 322.699 204.367 320.223 200.549 320.223C196.732 320.223 193.637 322.699 193.637 325.753C193.637 328.807 196.732 331.283 200.549 331.283Z" fill="#E1E4E5"/>
<path d="M384.356 492.872C382.347 500.371 386.797 508.079 394.296 510.088C401.795 512.097 409.503 507.647 411.512 500.148C413.522 492.649 409.071 484.941 401.572 482.932C394.073 480.923 386.365 485.373 384.356 492.872Z" fill="#E1E4E5"/>
<path d="M148.132 287.562H147.951C146.88 302.734 135.597 302.967 135.597 302.967C135.597 302.967 148.039 303.21 148.039 320.74C148.039 303.21 160.481 302.967 160.481 302.967C160.481 302.967 149.203 302.734 148.132 287.562ZM314.041 374.103H313.881C312.931 387.834 302.919 388.046 302.919 388.046C302.919 388.046 313.959 388.266 313.959 404.132C313.959 388.266 324.999 388.046 324.999 388.046C324.999 388.046 314.991 387.834 314.041 374.103Z" fill="#E1E4E5"/>
<path d="M656.776 299.779C656.776 412.475 565.673 503.83 453.296 503.83C340.918 503.83 249.815 412.475 249.815 299.779C249.815 187.083 340.918 95.7266 453.296 95.7266C565.673 95.7266 656.776 187.083 656.776 299.779Z" stroke="#E1E4E5" stroke-width="1.048"/>
<path d="M434.962 257.703C439.522 255.07 444.696 253.684 449.962 253.684C455.228 253.684 460.401 255.07 464.962 257.703L488.754 271.439C493.315 274.072 497.102 277.859 499.735 282.42C502.368 286.98 503.754 292.154 503.754 297.42V324.892C503.754 330.158 502.368 335.331 499.735 339.892C497.102 344.453 493.315 348.24 488.754 350.873L464.962 364.609C460.401 367.242 455.228 368.628 449.962 368.628C444.696 368.628 439.522 367.242 434.962 364.609L411.17 350.873C406.609 348.24 402.822 344.453 400.189 339.892C397.556 335.331 396.17 330.158 396.17 324.892V297.42C396.17 292.154 397.556 286.98 400.189 282.42C402.822 277.859 406.609 274.072 411.17 271.439L434.962 257.703Z" fill="#4F27AA"/>
<path d="M469.174 299.555L446.502 322.047L432.898 308.552" stroke="white" stroke-width="8.45" stroke-linecap="round" stroke-linejoin="round"/>
<path d="M304.484 31.5881C303.928 31.3882 303.365 31.2071 302.797 31.0451C302.608 30.9911 302.422 30.9341 302.234 30.8851C301.83 30.7835 301.424 30.6869 301.018 30.5951C300.824 30.5511 300.63 30.5151 300.432 30.4771C300.025 30.4011 299.616 30.3324 299.206 30.2711C298.966 30.2371 298.728 30.2081 298.485 30.1801C298.311 30.1601 298.137 30.1401 297.959 30.1231C297.683 30.0977 297.407 30.0767 297.13 30.0601C296.984 30.0511 296.839 30.0371 296.693 30.0311C296.267 30.0111 295.838 30.0001 295.406 30.0001H97.663C96.3037 29.9962 94.9462 30.0992 93.603 30.3081C93.163 30.3771 92.723 30.4541 92.291 30.5431C81.007 32.8531 72.321 42.3131 71.137 53.9931C71.046 54.8931 71 55.8041 71 56.7271V461.859C71 473.427 78.33 483.276 88.592 486.998C88.637 487.015 88.683 487.029 88.729 487.043C89.238 487.223 89.755 487.389 90.276 487.538C90.464 487.592 90.65 487.649 90.842 487.698C91.2456 487.801 91.6506 487.898 92.057 487.989C92.251 488.032 92.446 488.069 92.643 488.106C92.863 488.149 93.083 488.189 93.303 488.223C93.493 488.255 93.678 488.283 93.867 488.312C94.104 488.346 94.344 488.374 94.587 488.403C94.761 488.423 94.936 488.443 95.113 488.46C95.388 488.486 95.665 488.506 95.943 488.523C96.088 488.532 96.233 488.546 96.38 488.552C96.806 488.572 97.235 488.583 97.666 488.583H295.412C296.333 488.583 297.242 488.537 298.139 488.446C310.688 487.169 320.666 477.166 321.941 464.587C322.032 463.687 322.078 462.776 322.078 461.853V56.7271C322.072 45.1591 314.742 35.3101 304.484 31.5881Z" fill="#4F27AA"/>
<path d="M220.875 52.9609H173.479C172.064 52.9609 170.917 54.108 170.917 55.5229C170.917 56.9379 172.064 58.0849 173.479 58.0849H220.875C222.29 58.0849 223.437 56.9379 223.437 55.5229C223.437 54.108 222.29 52.9609 220.875 52.9609Z" fill="white"/>
<path d="M180.599 170.9C184.065 170.9 186.875 168.09 186.875 164.624C186.875 161.158 184.065 158.348 180.599 158.348C177.133 158.348 174.323 161.158 174.323 164.624C174.323 168.09 177.133 170.9 180.599 170.9Z" fill="white"/>
<path d="M244.141 176.137C241.982 175.804 239.802 175.627 237.618 175.607C224.451 175.512 211.906 181.285 203.298 191.4C194.69 201.515 190.885 214.954 192.89 228.166" stroke="white" stroke-width="10.395" stroke-linecap="round" stroke-linejoin="round"/>
<path d="M246.495 179.133C246.495 192.553 241.165 205.423 231.676 214.913C222.186 224.402 209.316 229.733 195.896 229.732V229.732C182.476 229.732 169.606 224.402 160.116 214.913C150.627 205.423 145.296 192.553 145.297 179.133C145.297 165.714 150.627 152.844 160.116 143.354C169.606 133.865 182.476 128.535 195.896 128.535V128.535C209.316 128.535 222.186 133.865 231.676 143.354C241.165 152.844 246.495 165.714 246.495 179.133V179.133Z" stroke="white" stroke-width="10.395" stroke-linecap="round" stroke-linejoin="round"/>
<path d="M223.82 329.527H169.824C163.635 329.527 158.617 334.545 158.617 340.734C158.617 346.924 163.635 351.941 169.824 351.941H223.82C230.01 351.941 235.027 346.924 235.027 340.734C235.027 334.545 230.01 329.527 223.82 329.527Z" fill="white"/>
<path d="M175.937 382.508H133.147C126.957 382.508 121.94 387.525 121.94 393.715C121.94 399.904 126.957 404.922 133.147 404.922H175.937C182.126 404.922 187.144 399.904 187.144 393.715C187.144 387.525 182.126 382.508 175.937 382.508Z" fill="white"/>
<path d="M259.479 382.508H216.689C210.499 382.508 205.482 387.525 205.482 393.715C205.482 399.904 210.499 404.922 216.689 404.922H259.479C265.668 404.922 270.686 399.904 270.686 393.715C270.686 387.525 265.668 382.508 259.479 382.508Z" fill="white"/>
<path d="M265.592 298.965H127.034C124.221 298.965 121.94 301.245 121.94 304.059C121.94 306.872 124.221 309.153 127.034 309.153H265.592C268.405 309.153 270.686 306.872 270.686 304.059C270.686 301.245 268.405 298.965 265.592 298.965Z" fill="white"/>
<path d="M265.41 268.164H127.064C124.234 268.164 121.94 270.458 121.94 273.288C121.94 276.118 124.234 278.412 127.064 278.412H265.41C268.24 278.412 270.534 276.118 270.534 273.288C270.534 270.458 268.24 268.164 265.41 268.164Z" fill="white"/>
<path d="M811.849 113.093C811.294 112.893 810.731 112.712 810.163 112.55C809.974 112.496 809.788 112.439 809.599 112.39C809.399 112.339 809.199 112.29 808.999 112.241C808.796 112.193 808.59 112.144 808.384 112.099C808.19 112.056 807.995 112.019 807.798 111.981C807.391 111.905 806.982 111.837 806.572 111.776C806.158 111.719 805.742 111.669 805.325 111.627C805.049 111.602 804.773 111.581 804.496 111.564C804.35 111.556 804.204 111.542 804.058 111.536C803.632 111.516 803.204 111.504 802.772 111.504H605.029C604.569 111.504 604.111 111.516 603.657 111.539C602.748 111.584 601.85 111.676 600.969 111.813C600.529 111.882 600.089 111.959 599.657 112.047C588.372 114.358 579.687 123.818 578.503 135.498C578.411 136.406 578.365 137.318 578.366 138.231V543.363C578.366 554.932 585.696 564.78 595.957 568.502C596.003 568.519 596.049 568.534 596.095 568.548C596.604 568.728 597.121 568.893 597.641 569.042C597.83 569.096 598.016 569.153 598.207 569.202C598.408 569.253 598.608 569.302 598.808 569.351C599.011 569.399 599.217 569.448 599.423 569.493C599.617 569.536 599.811 569.573 600.009 569.61C600.229 569.653 600.449 569.693 600.669 569.728C600.858 569.759 601.044 569.788 601.232 569.816C601.647 569.874 602.063 569.924 602.479 569.965C602.753 569.99 603.031 570.01 603.308 570.027C603.454 570.036 603.6 570.05 603.745 570.056C604.171 570.076 604.6 570.087 605.032 570.087H802.778C803.698 570.087 804.607 570.042 805.505 569.95C818.053 568.674 828.032 558.671 829.307 546.091C829.398 545.191 829.444 544.28 829.444 543.358V138.231C829.438 126.663 822.108 116.814 811.849 113.093Z" fill="#4F27AA"/>
<path d="M728.241 134.465H680.845C679.43 134.465 678.283 135.612 678.283 137.027C678.283 138.442 679.43 139.589 680.845 139.589H728.241C729.656 139.589 730.803 138.442 730.803 137.027C730.803 135.612 729.656 134.465 728.241 134.465Z" fill="white"/>
<path d="M687.964 252.404C691.43 252.404 694.24 249.594 694.24 246.128C694.24 242.661 691.43 239.852 687.964 239.852C684.498 239.852 681.688 242.661 681.688 246.128C681.688 249.594 684.498 252.404 687.964 252.404Z" fill="white"/>
<path d="M751.507 257.641C749.348 257.308 747.168 257.13 744.984 257.111C731.817 257.017 719.272 262.79 710.664 272.905C702.055 283.02 698.251 296.459 700.256 309.67" stroke="white" stroke-width="10.395" stroke-linecap="round" stroke-linejoin="round"/>
<path d="M753.861 260.638C753.861 274.058 748.531 286.928 739.042 296.418C729.552 305.907 716.682 311.237 703.262 311.237V311.237C689.842 311.237 676.972 305.907 667.482 296.418C657.993 286.928 652.663 274.058 652.663 260.638V260.638C652.663 247.218 657.993 234.348 667.482 224.858C676.972 215.369 689.842 210.039 703.262 210.039V210.039C716.682 210.039 729.552 215.369 739.042 224.858C748.531 234.348 753.861 247.218 753.861 260.638Z" stroke="white" stroke-width="10.395" stroke-linecap="round" stroke-linejoin="round"/>
<path d="M731.186 411.035H677.19C671 411.035 665.983 416.053 665.983 422.242C665.983 428.432 671 433.449 677.19 433.449H731.186C737.375 433.449 742.393 428.432 742.393 422.242C742.393 416.053 737.375 411.035 731.186 411.035Z" fill="white"/>
<path d="M683.303 464.012H640.513C634.324 464.012 629.306 469.029 629.306 475.219C629.306 481.408 634.324 486.426 640.513 486.426H683.303C689.493 486.426 694.51 481.408 694.51 475.219C694.51 469.029 689.493 464.012 683.303 464.012Z" fill="white"/>
<path d="M766.845 464.012H724.055C717.866 464.012 712.848 469.029 712.848 475.219C712.848 481.408 717.866 486.426 724.055 486.426H766.845C773.035 486.426 778.052 481.408 778.052 475.219C778.052 469.029 773.035 464.012 766.845 464.012Z" fill="white"/>
<path d="M772.958 380.469H634.4C631.587 380.469 629.306 382.749 629.306 385.563C629.306 388.376 631.587 390.657 634.4 390.657H772.958C775.771 390.657 778.052 388.376 778.052 385.563C778.052 382.749 775.771 380.469 772.958 380.469Z" fill="white"/>
<path d="M772.776 349.668H634.43C631.6 349.668 629.306 351.962 629.306 354.792C629.306 357.622 631.6 359.916 634.43 359.916H772.776C775.606 359.916 777.9 357.622 777.9 354.792C777.9 351.962 775.606 349.668 772.776 349.668Z" fill="white"/>
<path d="M538.632 153.277H361.36C357.984 153.277 355.247 156.014 355.247 159.39C355.247 162.766 357.984 165.503 361.36 165.503H538.632C542.008 165.503 544.745 162.766 544.745 159.39C544.745 156.014 542.008 153.277 538.632 153.277Z" fill="#4F27AA"/>
<path d="M538.632 404.922H361.36C357.984 404.922 355.247 407.659 355.247 411.035C355.247 414.411 357.984 417.148 361.36 417.148H538.632C542.008 417.148 544.745 414.411 544.745 411.035C544.745 407.659 542.008 404.922 538.632 404.922Z" fill="#4F27AA"/>
<path d="M538.632 184.859H361.36C357.984 184.859 355.247 187.596 355.247 190.972C355.247 194.348 357.984 197.085 361.36 197.085H538.632C542.008 197.085 544.745 194.348 544.745 190.972C544.745 187.596 542.008 184.859 538.632 184.859Z" fill="#4F27AA"/>
<path d="M449.996 436.504H361.36C357.984 436.504 355.247 439.241 355.247 442.617C355.247 445.993 357.984 448.73 361.36 448.73H449.996C453.372 448.73 456.109 445.993 456.109 442.617C456.109 439.241 453.372 436.504 449.996 436.504Z" fill="#4F27AA"/>
<path d="M538.632 216.441H361.36C357.984 216.441 355.247 219.178 355.247 222.554C355.247 225.931 357.984 228.667 361.36 228.667H538.632C542.008 228.667 544.745 225.931 544.745 222.554C544.745 219.178 542.008 216.441 538.632 216.441Z" fill="#4F27AA"/>
</g>
<defs>
<linearGradient id="paint0_linear_1235_26608" x1="286.746" y1="337.252" x2="381.548" y2="-88.7469" gradientUnits="userSpaceOnUse">
<stop stop-color="white"/>
<stop offset="1" stop-color="#EEEEEE"/>
</linearGradient>
<linearGradient id="paint1_linear_1235_26608" x1="220.141" y1="284.92" x2="54.8741" y2="154.194" gradientUnits="userSpaceOnUse">
<stop stop-color="white"/>
<stop offset="1" stop-color="#EEEEEE"/>
</linearGradient>
<linearGradient id="paint2_linear_1235_26608" x1="611.04" y1="377.069" x2="821.7" y2="181.338" gradientUnits="userSpaceOnUse">
<stop stop-color="white"/>
<stop offset="1" stop-color="#EEEEEE"/>
</linearGradient>
<clipPath id="clip0_1235_26608">
<rect width="900" height="600" fill="white"/>
</clipPath>
</defs>
</svg>
