<svg width="900" height="600" viewBox="0 0 900 600" fill="none" xmlns="http://www.w3.org/2000/svg">
<g clip-path="url(#clip0_1235_26654)">
<path d="M595.966 258.164C648.064 259.107 695.071 261.465 700.752 265.265C716.122 275.547 712.279 474.352 700.752 481.206C689.225 488.06 647.08 491.027 647.08 491.027C647.08 491.027 649.255 541.229 645.412 551.511C641.57 561.793 548.911 491.027 548.911 491.027C548.911 491.027 399.364 488.337 387.838 481.483C381.143 477.502 373.979 415.213 375.061 356.273" stroke="#E1E4E5" stroke-width="5.81" stroke-linecap="round"/>
<path d="M585.271 57.2494C571.343 44.2354 225.739 43.8864 207.166 56.8994C188.594 69.9124 193.238 321.524 207.166 330.198C221.094 338.873 272.02 342.629 272.02 342.629C272.02 342.629 269.392 406.166 274.035 419.179C278.678 432.192 390.64 342.629 390.64 342.629C390.64 342.629 571.343 339.224 585.271 330.549C599.199 321.874 599.199 70.2644 585.271 57.2494Z" fill="#4F27AA"/>
<path d="M304.756 227.727C340.408 280.475 442.269 288.866 489.032 227.727" stroke="white" stroke-width="29.048" stroke-linejoin="round"/>
<path d="M349.776 134.781V169.628M445.625 134.781V169.628" stroke="white" stroke-width="29.048" stroke-linecap="round" stroke-linejoin="round"/>
<path d="M701.408 277.393C691.14 277.393 682.817 269.069 682.817 258.802C682.817 248.534 691.14 240.211 701.408 240.211C711.676 240.211 719.999 248.534 719.999 258.802C719.999 269.069 711.676 277.393 701.408 277.393Z" fill="#E1E4E5"/>
<path d="M669.933 166.608C662.817 166.608 657.049 160.839 657.049 153.724C657.049 146.608 662.817 140.84 669.933 140.84C677.049 140.84 682.817 146.608 682.817 153.724C682.817 160.839 677.049 166.608 669.933 166.608Z" fill="#E1E4E5"/>
<path d="M247.482 408.456C247.482 421.581 236.842 432.221 223.717 432.221C210.592 432.221 199.952 421.581 199.952 408.456C199.952 395.331 210.592 384.691 223.717 384.691C236.842 384.691 247.482 395.331 247.482 408.456Z" fill="#E1E4E5"/>
<path d="M618.326 469.494C620.649 478.161 615.505 487.07 606.838 489.393C598.171 491.715 589.262 486.572 586.94 477.904C584.617 469.237 589.761 460.328 598.428 458.006C607.095 455.684 616.004 460.827 618.326 469.494Z" fill="#E1E4E5"/>
<path d="M445.342 402.54H445.529C446.633 418.782 458.265 419.032 458.265 419.032C458.265 419.032 445.438 419.292 445.438 438.06C445.438 419.292 432.611 419.032 432.611 419.032C432.611 419.032 444.238 418.782 445.342 402.54ZM656.491 336.632H656.678C657.782 352.875 669.414 353.125 669.414 353.125C669.414 353.125 656.587 353.385 656.587 372.153C656.587 353.385 643.76 353.125 643.76 353.125C643.76 353.125 655.387 352.875 656.491 336.632ZM283.03 444.072H283.216C284.32 460.315 295.952 460.565 295.952 460.565C295.952 460.565 283.125 460.825 283.125 479.593C283.125 460.825 270.299 460.565 270.299 460.565C270.299 460.565 281.926 460.315 283.03 444.072ZM162.251 104.863H162.437C163.541 121.106 175.173 121.356 175.173 121.356C175.173 121.356 162.347 121.616 162.347 140.384C162.347 121.616 149.52 121.356 149.52 121.356C149.52 121.356 161.147 121.106 162.251 104.863Z" fill="#E1E4E5"/>
</g>
<defs>
<clipPath id="clip0_1235_26654">
<rect width="900" height="600" fill="white"/>
</clipPath>
</defs>
</svg>
