<svg width="900" height="600" viewBox="0 0 900 600" fill="none" xmlns="http://www.w3.org/2000/svg">
<g clip-path="url(#clip0_1235_26665)">
<path fill-rule="evenodd" clip-rule="evenodd" d="M132.875 497H813.567C877.463 497 874.531 443.954 853.66 425.47C832.268 406.526 790.001 414.21 790.001 414.21C790.001 414.21 777.416 378.53 735.996 361.159C699.358 345.794 660.976 353.105 660.976 353.105C660.976 353.105 660.976 328.618 637.517 308.338C614.057 288.056 582.778 290.028 582.778 290.028C582.778 290.028 561.276 155 417.588 155C273.901 155 257.285 282.14 257.285 282.14C257.285 282.14 225.028 282.14 201.567 303.826C178.108 325.509 175.176 350.146 175.176 350.146C175.176 350.146 96.721 339.488 73.518 407.728C59.69 448.399 88.1 497 132.875 497Z" fill="url(#paint0_linear_1235_26665)"/>
<path d="M312.063 245.54C265.586 332.863 286.365 419.651 370.772 464.446C455.179 509.24 541.978 488.5 589.704 405.836C637.431 323.172 606.086 234.22 530.996 186.93C455.906 139.641 358.541 158.217 312.063 245.54Z" fill="#4F27AA" stroke="white" stroke-width="22.907" stroke-linecap="round" stroke-linejoin="round"/>
<path d="M540.358 193.512C495.528 179.531 482.361 211.607 481.417 237.513C480.473 263.419 559.163 297.836 544.53 345.469C532.925 383.245 447.791 342.179 430.283 372.504C412.775 402.829 459.771 424.722 425.41 484.238" stroke="white" stroke-width="22.907" stroke-linejoin="round"/>
<path d="M407.501 167.062C427.339 178.517 430.744 227.101 412.032 234.253C399.557 239.021 383.184 233.087 374.518 243.046C360.652 258.981 403.525 283.733 376.23 315.855C362.583 331.916 300.661 328.275 293.944 375.269" stroke="white" stroke-width="22.907"/>
<path fill-rule="evenodd" clip-rule="evenodd" d="M369.426 202.538C369.426 177.11 350.098 156.496 326.254 156.496C302.411 156.496 283.083 177.11 283.083 202.538C283.083 240.584 326.254 268.743 326.254 268.743C326.254 268.743 369.426 240.584 369.426 202.538Z" fill="#2E2445"/>
<path d="M326.255 182.402C316.717 182.402 308.986 190.133 308.986 199.67C308.986 209.207 316.717 216.939 326.255 216.939C335.792 216.939 343.523 209.207 343.523 199.67C343.523 190.133 335.792 182.402 326.255 182.402Z" fill="white"/>
<path fill-rule="evenodd" clip-rule="evenodd" d="M610.483 236.369C610.483 210.941 591.154 190.328 567.311 190.328C543.468 190.328 524.139 210.941 524.139 236.369C524.139 274.416 567.311 302.574 567.311 302.574C567.311 302.574 610.483 274.416 610.483 236.369Z" fill="#2E2445"/>
<path d="M567.311 216.234C557.774 216.234 550.042 223.965 550.042 233.503C550.042 243.04 557.774 250.771 567.311 250.771C576.848 250.771 584.58 243.04 584.58 233.503C584.58 223.965 576.848 216.234 567.311 216.234Z" fill="white"/>
<path fill-rule="evenodd" clip-rule="evenodd" d="M394.801 435.139C394.801 409.711 375.472 389.098 351.629 389.098C327.786 389.098 308.457 409.711 308.457 435.139C308.457 473.186 351.629 501.344 351.629 501.344C351.629 501.344 394.801 473.186 394.801 435.139Z" fill="#2E2445"/>
<path d="M351.629 415C342.092 415 334.36 422.731 334.36 432.269C334.36 441.806 342.092 449.537 351.629 449.537C361.166 449.537 368.897 441.806 368.897 432.269C368.897 422.731 361.166 415 351.629 415Z" fill="white"/>
<path d="M746.004 174.912C737.536 190.025 718.989 192.101 689.277 189.229C666.932 187.065 646.554 185.391 624.207 173.207C608.565 164.685 596.184 153.155 587.147 141.957C577.354 129.825 563.686 115.98 570.386 102.225C579.595 83.3293 632.846 67.4153 684.554 93.4403C741.356 122.036 754.288 160.141 746.004 174.912Z" fill="url(#paint1_linear_1235_26665)"/>
<path d="M833.08 255.611C814.118 265.017 788.95 252.923 788.95 252.923C788.95 252.923 794.544 225.583 813.516 216.189C832.478 206.783 857.636 218.865 857.636 218.865C857.636 218.865 852.042 246.205 833.08 255.611Z" fill="url(#paint2_linear_1235_26665)"/>
<path d="M72.346 374.389C93.383 386.997 123.564 375.342 123.564 375.342C123.564 375.342 119.618 343.249 98.568 330.655C77.531 318.047 47.363 329.688 47.363 329.688C47.363 329.688 51.309 361.781 72.346 374.389Z" fill="url(#paint3_linear_1235_26665)"/>
<path d="M736.395 206.854C726.875 206.854 719.158 214.571 719.158 224.091C719.158 233.611 726.875 241.328 736.395 241.328C745.915 241.328 753.632 233.611 753.632 224.091C753.632 214.571 745.915 206.854 736.395 206.854Z" fill="#4F27AA"/>
<path d="M435.19 104.999C427.353 104.999 421 111.352 421 119.189C421 127.026 427.353 133.379 435.19 133.379C443.027 133.379 449.38 127.026 449.38 119.189C449.38 111.352 443.027 104.999 435.19 104.999Z" fill="#4F27AA"/>
<path d="M173.449 435.324C164.524 435.324 157.289 428.089 157.289 419.164C157.289 410.239 164.524 403.004 173.449 403.004C182.374 403.004 189.609 410.239 189.609 419.164C189.609 428.089 182.374 435.324 173.449 435.324Z" fill="#4F27AA"/>
<path d="M787.441 323.176C783.276 323.176 779.9 319.8 779.9 315.635C779.9 311.47 783.276 308.094 787.441 308.094C791.606 308.094 794.982 311.47 794.982 315.635C794.982 319.8 791.606 323.176 787.441 323.176Z" fill="#4F27AA"/>
<path d="M642.696 485.392C637.341 485.392 633 481.051 633 475.696C633 470.341 637.341 466 642.696 466C648.051 466 652.392 470.341 652.392 475.696C652.392 481.051 648.051 485.392 642.696 485.392Z" fill="#E1E4E5"/>
<path d="M118.145 466.448C110.41 466.448 104.14 460.177 104.14 452.443C104.14 444.708 110.41 438.438 118.145 438.438C125.88 438.438 132.15 444.708 132.15 452.443C132.15 460.177 125.88 466.448 118.145 466.448Z" fill="#E1E4E5"/>
<path d="M827.258 454.693C821.371 454.693 816.599 449.921 816.599 444.034C816.599 438.147 821.371 433.375 827.258 433.375C833.145 433.375 837.917 438.147 837.917 444.034C837.917 449.921 833.145 454.693 827.258 454.693Z" fill="#E1E4E5"/>
<path d="M743.432 119.522C736.887 119.522 731.581 114.216 731.581 107.671C731.581 101.126 736.887 95.8203 743.432 95.8203C749.977 95.8203 755.283 101.126 755.283 107.671C755.283 114.216 749.977 119.522 743.432 119.522Z" fill="#E1E4E5"/>
<path d="M121.124 269.021C122.645 274.698 119.276 280.533 113.599 282.054C107.922 283.576 102.087 280.207 100.566 274.529C99.0443 268.852 102.413 263.017 108.091 261.496C113.768 259.974 119.603 263.344 121.124 269.021Z" fill="#E1E4E5"/>
<path d="M332.556 65.1236C330.11 65.1236 328.127 63.1407 328.127 60.6946C328.127 58.2486 330.11 56.2656 332.556 56.2656C335.002 56.2656 336.985 58.2486 336.985 60.6946C336.985 63.1407 335.002 65.1236 332.556 65.1236Z" fill="#E1E4E5"/>
<path d="M760.419 400.182C754.405 400.182 749.529 396.281 749.529 391.47C749.529 386.658 754.405 382.758 760.419 382.758C766.433 382.758 771.309 386.658 771.309 391.47C771.309 396.281 766.433 400.182 760.419 400.182Z" fill="#E1E4E5"/>
<path d="M528.496 62.4419C529.598 66.5517 527.159 70.7761 523.049 71.8773C518.939 72.9785 514.715 70.5396 513.613 66.4298C512.512 62.32 514.951 58.0956 519.061 56.9943C523.171 55.8931 527.395 58.3321 528.496 62.4419Z" fill="#E1E4E5"/>
<path d="M200.786 133.461H200.941C201.86 146.477 211.54 146.677 211.54 146.677C211.54 146.677 200.865 146.886 200.865 161.925C200.865 146.886 190.191 146.677 190.191 146.677C190.191 146.677 199.867 146.477 200.786 133.461ZM194.036 515.632H194.185C195.067 528.61 204.36 528.809 204.36 528.809C204.36 528.809 194.112 529.017 194.112 544.012C194.112 529.017 183.864 528.809 183.864 528.809C183.864 528.809 193.154 528.61 194.036 515.632Z" fill="#E1E4E5"/>
</g>
<defs>
<linearGradient id="paint0_linear_1235_26665" x1="485.494" y1="688.745" x2="480.968" y2="-217.138" gradientUnits="userSpaceOnUse">
<stop stop-color="white"/>
<stop offset="1" stop-color="#EEEEEE"/>
</linearGradient>
<linearGradient id="paint1_linear_1235_26665" x1="688.957" y1="272.859" x2="613.478" y2="-66.3097" gradientUnits="userSpaceOnUse">
<stop stop-color="white"/>
<stop offset="1" stop-color="#EEEEEE"/>
</linearGradient>
<linearGradient id="paint2_linear_1235_26665" x1="760.263" y1="284.952" x2="916.664" y2="161.239" gradientUnits="userSpaceOnUse">
<stop stop-color="white"/>
<stop offset="1" stop-color="#EEEEEE"/>
</linearGradient>
<linearGradient id="paint3_linear_1235_26665" x1="153.753" y1="414.974" x2="-15.517" y2="257.7" gradientUnits="userSpaceOnUse">
<stop stop-color="white"/>
<stop offset="1" stop-color="#EEEEEE"/>
</linearGradient>
<clipPath id="clip0_1235_26665">
<rect width="900" height="600" fill="white"/>
</clipPath>
</defs>
</svg>
