<svg width="900" height="600" viewBox="0 0 900 600" fill="none" xmlns="http://www.w3.org/2000/svg">
<g clip-path="url(#clip0_1235_26729)">
<path d="M212.397 361.548C221.207 355.515 222.078 341.456 222.078 341.456C222.078 341.456 208.663 337.188 199.856 343.229C191.047 349.262 190.173 363.313 190.173 363.313C190.173 363.313 203.588 367.581 212.397 361.548Z" fill="#E1E4E5"/>
<path d="M404.236 288.506C399.681 288.506 395.989 292.198 395.989 296.753C395.989 301.308 399.681 305 404.236 305C408.791 305 412.483 301.308 412.483 296.753C412.483 292.198 408.791 288.506 404.236 288.506Z" fill="#4F27AA"/>
<path d="M611.42 102.551C603.663 102.551 597.375 96.2628 597.375 88.5059C597.375 80.7491 603.663 74.4609 611.42 74.4609C619.177 74.4609 625.465 80.7491 625.465 88.5059C625.465 96.2628 619.177 102.551 611.42 102.551Z" fill="#4F27AA"/>
<path d="M778.831 334.953C772.62 334.953 767.585 329.918 767.585 323.707C767.585 317.496 772.62 312.461 778.831 312.461C785.042 312.461 790.077 317.496 790.077 323.707C790.077 329.918 785.042 334.953 778.831 334.953Z" fill="#E1E4E5"/>
<path d="M136.577 281.456C131.269 281.456 126.966 277.153 126.966 271.845C126.966 266.537 131.269 262.234 136.577 262.234C141.885 262.234 146.188 266.537 146.188 271.845C146.188 277.153 141.885 281.456 136.577 281.456Z" fill="#E1E4E5"/>
<path d="M735.178 168.24C727.076 168.24 720.509 161.673 720.509 153.571C720.509 145.47 727.076 138.902 735.178 138.902C743.279 138.902 749.847 145.47 749.847 153.571C749.847 161.673 743.279 168.24 735.178 168.24Z" fill="#E1E4E5"/>
<path d="M160.184 173.637C153.135 173.637 147.42 167.923 147.42 160.873C147.42 153.824 153.135 148.109 160.184 148.109C167.233 148.109 172.948 153.824 172.948 160.873C172.948 167.923 167.233 173.637 160.184 173.637Z" fill="#E1E4E5"/>
<path d="M679.493 420.323C674.07 420.323 669.674 416.806 669.674 412.468C669.674 408.13 674.07 404.613 679.493 404.613C684.916 404.613 689.312 408.13 689.312 412.468C689.312 416.806 684.916 420.323 679.493 420.323Z" fill="#E1E4E5"/>
<path d="M178.598 428.663C170.666 432.533 161.759 430.593 158.703 424.33C155.648 418.068 159.602 409.854 167.534 405.984C175.467 402.114 184.374 404.053 187.429 410.316C190.485 416.579 186.531 424.793 178.598 428.663Z" fill="#E1E4E5"/>
<path d="M313.562 83.2012C316.218 93.114 310.335 103.303 300.422 105.959C290.509 108.616 280.32 102.733 277.664 92.8199C275.008 82.9071 280.891 72.7179 290.804 70.0617C300.716 67.4056 310.906 73.2883 313.562 83.2012Z" fill="#E1E4E5"/>
<path d="M660.949 323.027H661.206C662.727 344.578 678.755 344.91 678.755 344.91C678.755 344.91 661.081 345.255 661.081 370.157C661.081 345.255 643.407 344.91 643.407 344.91C643.407 344.91 659.428 344.578 660.949 323.027Z" fill="#E1E4E5"/>
<path d="M458.555 359.206C523.745 359.206 576.592 306.359 576.592 241.169C576.592 175.979 561.837 101 561.837 101H355.272C355.272 101 340.518 175.979 340.518 241.169C340.518 306.359 393.365 359.206 458.555 359.206Z" fill="#4F27AA" stroke="#4F27AA" stroke-width="29.509" stroke-linejoin="round"/>
<path d="M347.895 145.266H251.99C251.99 248.548 296.254 300.19 356.748 300.19M569.216 145.266H665.121C665.121 248.548 620.857 300.19 560.363 300.19" stroke="#4F27AA" stroke-width="29.509" stroke-linejoin="round"/>
<path d="M577 485.011C485.659 478.368 433.992 478.321 341 485.011M458.555 359.207V477.244" stroke="#4F27AA" stroke-width="29.509"/>
<path d="M549 230.012C549 180.306 508.706 140.012 459 140.012C409.294 140.012 369 180.306 369 230.012C369 279.717 409.294 320.012 459 320.012C508.706 320.012 549 279.717 549 230.012Z" fill="white"/>
<path d="M496 210.012L449.125 254.012L421 227.612" stroke="#4F27AA" stroke-width="20" stroke-linecap="round" stroke-linejoin="round"/>
<path d="M727.264 484.148C727.264 463.174 710.262 446.172 689.288 446.172C668.314 446.172 651.312 463.174 651.312 484.148C651.312 505.121 668.314 522.124 689.288 522.124C710.262 522.124 727.264 505.121 727.264 484.148Z" fill="#4F27AA"/>
<path fill-rule="evenodd" clip-rule="evenodd" d="M706.61 499.857V502.329C706.61 502.985 706.349 503.614 705.884 504.078C705.42 504.541 704.791 504.802 704.135 504.801H674.44C673.784 504.802 673.155 504.541 672.691 504.078C672.227 503.614 671.966 502.985 671.965 502.329V499.818C671.965 492.338 680.522 487.479 689.287 487.479C698.052 487.479 706.61 492.341 706.61 499.818M695.314 465.365C698.827 468.747 698.827 474.231 695.314 477.613C691.802 480.996 686.107 480.996 682.594 477.613C679.082 474.231 679.082 468.747 682.594 465.365C686.107 461.982 691.802 461.982 695.314 465.365Z" fill="white"/>
<path d="M855 430.062C855 409.088 837.998 392.086 817.024 392.086C796.05 392.086 779.048 409.088 779.048 430.062C779.048 451.036 796.05 468.038 817.024 468.038C837.998 468.038 855 451.036 855 430.062Z" fill="#4F27AA"/>
<path fill-rule="evenodd" clip-rule="evenodd" d="M834.347 445.772V448.243C834.346 448.899 834.085 449.528 833.621 449.992C833.157 450.455 832.528 450.716 831.872 450.715H802.177C801.521 450.716 800.892 450.455 800.428 449.992C799.964 449.528 799.703 448.899 799.702 448.243V445.732C799.702 438.252 808.259 433.393 817.024 433.393C825.789 433.393 834.347 438.255 834.347 445.732M823.051 411.279C826.563 414.661 826.563 420.145 823.051 423.528C819.538 426.91 813.844 426.91 810.331 423.528C806.819 420.145 806.819 414.661 810.331 411.279C813.844 407.896 819.538 407.896 823.051 411.279Z" fill="white"/>
<path d="M636.352 418.554C636.352 397.581 619.35 380.578 598.376 380.578C577.402 380.578 560.4 397.581 560.4 418.554C560.4 439.528 577.402 456.53 598.376 456.53C619.35 456.53 636.352 439.528 636.352 418.554Z" fill="#4F27AA"/>
<path fill-rule="evenodd" clip-rule="evenodd" d="M615.698 434.264V436.736C615.697 437.392 615.436 438.02 614.972 438.484C614.508 438.947 613.879 439.207 613.223 439.207H583.528C582.872 439.207 582.243 438.947 581.779 438.484C581.315 438.02 581.054 437.392 581.053 436.736V434.224C581.053 426.745 589.61 421.885 598.376 421.885C607.141 421.885 615.698 426.747 615.698 434.224M604.402 399.771C607.915 403.153 607.915 408.637 604.402 412.02C600.89 415.402 595.195 415.402 591.683 412.02C588.17 408.637 588.17 403.153 591.683 399.771C595.195 396.389 600.89 396.389 604.402 399.771Z" fill="white"/>
<path d="M173.736 484.148C173.736 463.174 190.738 446.172 211.712 446.172C232.686 446.172 249.688 463.174 249.688 484.148C249.688 505.121 232.686 522.124 211.712 522.124C190.738 522.124 173.736 505.121 173.736 484.148Z" fill="#4F27AA"/>
<path fill-rule="evenodd" clip-rule="evenodd" d="M194.39 499.857V502.329C194.391 502.985 194.652 503.614 195.116 504.078C195.58 504.541 196.209 504.802 196.865 504.801H226.56C227.216 504.802 227.845 504.541 228.309 504.078C228.773 503.614 229.034 502.985 229.035 502.329V499.818C229.035 492.338 220.478 487.479 211.713 487.479C202.948 487.479 194.39 492.341 194.39 499.818M205.686 465.365C202.173 468.747 202.173 474.231 205.686 477.613C209.198 480.996 214.893 480.996 218.406 477.613C221.918 474.231 221.918 468.747 218.406 465.365C214.893 461.982 209.198 461.982 205.686 465.365Z" fill="white"/>
<path d="M46 430.062C46 409.088 63.0025 392.086 83.976 392.086C104.95 392.086 121.952 409.088 121.952 430.062C121.952 451.036 104.95 468.038 83.976 468.038C63.0025 468.038 46 451.036 46 430.062Z" fill="#4F27AA"/>
<path fill-rule="evenodd" clip-rule="evenodd" d="M66.653 445.772V448.243C66.6535 448.899 66.9146 449.528 67.3787 449.992C67.8428 450.455 68.472 450.716 69.128 450.715H98.823C99.479 450.716 100.108 450.455 100.572 449.992C101.036 449.528 101.297 448.899 101.298 448.243V445.732C101.298 438.252 92.741 433.393 83.976 433.393C75.211 433.393 66.653 438.255 66.653 445.732M77.949 411.279C74.437 414.661 74.437 420.145 77.949 423.528C81.462 426.91 87.156 426.91 90.669 423.528C94.181 420.145 94.181 414.661 90.669 411.279C87.156 407.896 81.462 407.896 77.949 411.279Z" fill="white"/>
<path d="M264.648 418.554C264.648 397.581 281.65 380.578 302.624 380.578C323.598 380.578 340.6 397.581 340.6 418.554C340.6 439.528 323.598 456.53 302.624 456.53C281.65 456.53 264.648 439.528 264.648 418.554Z" fill="#4F27AA"/>
<path fill-rule="evenodd" clip-rule="evenodd" d="M285.302 434.264V436.736C285.303 437.392 285.564 438.02 286.028 438.484C286.492 438.947 287.121 439.207 287.777 439.207H317.472C318.128 439.207 318.757 438.947 319.221 438.484C319.685 438.02 319.946 437.392 319.947 436.736V434.224C319.947 426.745 311.39 421.885 302.624 421.885C293.859 421.885 285.302 426.747 285.302 434.224M296.598 399.771C293.085 403.153 293.085 408.637 296.598 412.02C300.11 415.402 305.805 415.402 309.317 412.02C312.83 408.637 312.83 403.153 309.317 399.771C305.805 396.389 300.11 396.389 296.598 399.771Z" fill="white"/>
</g>
<defs>
<clipPath id="clip0_1235_26729">
<rect width="900" height="600" fill="white"/>
</clipPath>
</defs>
</svg>
