<svg width="900" height="600" viewBox="0 0 900 600" fill="none" xmlns="http://www.w3.org/2000/svg">
<g clip-path="url(#clip0_1235_26759)">
<path d="M240.174 376.843C242.52 436.358 369.59 545.891 508.095 487.93C572.512 460.971 563.661 427.094 609.866 377.014C637.407 347.165 678.706 322.672 687.038 282.261C694.238 247.38 684.448 211.533 664.221 189.519C618.729 140.009 533.567 111.177 460.919 202.734C388.271 294.291 234.142 223.35 240.174 376.843Z" fill="url(#paint0_linear_1235_26759)"/>
<path d="M235.202 210.584C245.553 229.059 268.225 231.598 304.547 228.087C331.863 225.442 356.773 223.395 384.092 208.5C403.213 198.083 418.348 183.988 429.395 170.299C441.367 155.468 458.075 138.543 449.884 121.728C438.628 98.6302 373.531 79.1762 310.32 110.989C240.883 145.947 225.075 192.528 235.202 210.584Z" fill="url(#paint1_linear_1235_26759)"/>
<path d="M150.98 266.004C177.816 279.316 213.434 262.199 213.434 262.199C213.434 262.199 205.518 223.506 178.668 210.213C151.832 196.901 116.228 213.999 116.228 213.999C116.228 213.999 124.144 252.692 150.98 266.004Z" fill="url(#paint2_linear_1235_26759)"/>
<path d="M752.281 307.479C737.701 316.217 716.783 308.14 716.783 308.14C716.783 308.14 719.518 285.895 734.107 277.167C748.688 268.428 769.597 276.497 769.597 276.497C769.597 276.497 766.862 298.74 752.281 307.479Z" fill="url(#paint3_linear_1235_26759)"/>
<path d="M217.525 456.238C222.077 456.238 225.767 452.548 225.767 447.996C225.767 443.444 222.077 439.754 217.525 439.754C212.973 439.754 209.283 443.444 209.283 447.996C209.283 452.548 212.973 456.238 217.525 456.238Z" fill="#E1E4E5"/>
<path d="M754.34 398.82C760.916 398.82 766.246 393.489 766.246 386.914C766.246 380.338 760.916 375.008 754.34 375.008C747.765 375.008 742.434 380.338 742.434 386.914C742.434 393.489 747.765 398.82 754.34 398.82Z" fill="#E1E4E5"/>
<path d="M175.551 375.563C180.555 375.563 184.612 371.507 184.612 366.502C184.612 361.498 180.555 357.441 175.551 357.441C170.547 357.441 166.49 361.498 166.49 366.502C166.49 371.507 170.547 375.563 175.551 375.563Z" fill="#E1E4E5"/>
<path d="M226.281 136.503C231.845 136.503 236.355 131.993 236.355 126.429C236.355 120.866 231.845 116.355 226.281 116.355C220.717 116.355 216.207 120.866 216.207 126.429C216.207 131.993 220.717 136.503 226.281 136.503Z" fill="#E1E4E5"/>
<path d="M777.908 190.054C777.908 195.05 781.958 199.1 786.954 199.1C791.95 199.1 796 195.05 796 190.054C796 185.058 791.95 181.008 786.954 181.008C781.958 181.008 777.908 185.058 777.908 190.054Z" fill="#E1E4E5"/>
<path d="M521.763 114.972C528.41 114.972 533.798 109.584 533.798 102.937C533.798 96.2906 528.41 90.9023 521.763 90.9023C515.116 90.9023 509.728 96.2906 509.728 102.937C509.728 109.584 515.116 114.972 521.763 114.972Z" fill="#E1E4E5"/>
<path d="M208.532 323.718C213.645 323.718 217.789 320.402 217.789 316.312C217.789 312.222 213.645 308.906 208.532 308.906C203.42 308.906 199.275 312.222 199.275 316.312C199.275 320.402 203.42 323.718 208.532 323.718Z" fill="#E1E4E5"/>
<path d="M685.851 136.359H685.719C684.938 147.424 676.709 147.594 676.709 147.594C676.709 147.594 685.783 147.771 685.783 160.556C685.783 147.771 694.857 147.594 694.857 147.594C694.857 147.594 686.632 147.424 685.851 136.359ZM699.637 425.989H699.51C698.76 437.021 690.86 437.191 690.86 437.191C690.86 437.191 699.572 437.367 699.572 450.114C699.572 437.367 708.284 437.191 708.284 437.191C708.284 437.191 700.386 437.021 699.637 425.989Z" fill="#E1E4E5"/>
<path d="M146.745 469.697V431.63L52 317.428L139.457 226.066" stroke="#E1E4E5" stroke-width="4" stroke-linejoin="round"/>
<path d="M214.417 468.004H65.532" stroke="#E1E4E5" stroke-width="4"/>
<path d="M282.099 211.068L162.475 330.692L149.183 237.651L125.923 207.745L159.152 174.516L189.058 197.777L282.099 211.068Z" fill="#4F27AA" stroke="#4F27AA" stroke-width="13.078" stroke-linejoin="round"/>
<path fill-rule="evenodd" clip-rule="evenodd" d="M753.691 330.414L711.776 288.51V288.499H680.34C668.761 288.499 659.382 279.121 659.382 267.542V162.754C659.382 151.175 668.761 141.797 680.34 141.797H827.043C838.622 141.797 848 151.175 848 162.754V267.542C848 279.121 838.622 288.499 827.043 288.499H795.606L753.691 330.404" fill="white"/>
<path d="M753.691 330.414L711.776 288.51V288.499H680.34C668.761 288.499 659.382 279.121 659.382 267.542V162.754C659.382 151.175 668.761 141.797 680.34 141.797H827.043C838.622 141.797 848 151.175 848 162.754V267.542C848 279.121 838.622 288.499 827.043 288.499H795.606L753.691 330.404" stroke="#E1E4E5" stroke-width="4" stroke-linecap="round" stroke-linejoin="round"/>
<path d="M795.606 236.106H711.776M711.776 194.191H795.606" stroke="#E1E4E5" stroke-width="13.5" stroke-linecap="round" stroke-linejoin="round"/>
<path fill-rule="evenodd" clip-rule="evenodd" d="M377.038 300.142L350.906 274.017V274.01H331.307C324.088 274.01 318.241 268.163 318.241 260.944V195.613C318.241 188.394 324.088 182.547 331.307 182.547H422.77C429.989 182.547 435.836 188.394 435.836 195.613V260.944C435.836 268.163 429.989 274.01 422.77 274.01H403.17L377.038 300.136" fill="white"/>
<path d="M377.038 300.142L350.906 274.017V274.01H331.307C324.088 274.01 318.241 268.163 318.241 260.944V195.613C318.241 188.394 324.088 182.547 331.307 182.547H422.77C429.989 182.547 435.836 188.394 435.836 195.613V260.944C435.836 268.163 429.989 274.01 422.77 274.01H403.17L377.038 300.136" stroke="#E1E4E5" stroke-width="4" stroke-linecap="round" stroke-linejoin="round"/>
<path d="M403.17 241.347H350.906M350.906 215.215H403.17" stroke="#E1E4E5" stroke-width="13.5" stroke-linecap="round" stroke-linejoin="round"/>
<path fill-rule="evenodd" clip-rule="evenodd" d="M479.497 465.474L453.365 439.348V439.342H433.766C426.547 439.342 420.7 433.494 420.7 426.275V360.945C420.7 353.726 426.547 347.879 433.766 347.879H525.229C532.448 347.879 538.295 353.726 538.295 360.945V426.275C538.295 433.494 532.448 439.342 525.229 439.342H505.629L479.497 465.467" fill="white"/>
<path d="M479.497 465.474L453.365 439.348V439.342H433.766C426.547 439.342 420.7 433.494 420.7 426.275V360.945C420.7 353.726 426.547 347.879 433.766 347.879H525.229C532.448 347.879 538.295 353.726 538.295 360.945V426.275C538.295 433.494 532.448 439.342 525.229 439.342H505.629L479.497 465.467" stroke="#E1E4E5" stroke-width="4" stroke-linecap="round" stroke-linejoin="round"/>
<path d="M505.629 406.679H453.365M453.365 380.547H505.629" stroke="#E1E4E5" stroke-width="13.5" stroke-linecap="round" stroke-linejoin="round"/>
<path fill-rule="evenodd" clip-rule="evenodd" d="M652.979 439.861L626.847 413.735V413.729H607.247C600.028 413.729 594.181 407.882 594.181 400.663V335.332C594.181 328.113 600.028 322.266 607.247 322.266H698.71C705.929 322.266 711.776 328.113 711.776 335.332V400.663C711.776 407.882 705.929 413.729 698.71 413.729H679.111L652.979 439.854" fill="white"/>
<path d="M652.979 439.861L626.847 413.735V413.729H607.247C600.028 413.729 594.181 407.882 594.181 400.663V335.332C594.181 328.113 600.028 322.266 607.247 322.266H698.71C705.929 322.266 711.776 328.113 711.776 335.332V400.663C711.776 407.882 705.929 413.729 698.71 413.729H679.111L652.979 439.854" stroke="#E1E4E5" stroke-width="4" stroke-linecap="round" stroke-linejoin="round"/>
<path d="M679.111 381.063H626.847M626.847 354.93H679.111" stroke="#E1E4E5" stroke-width="13.5" stroke-linecap="round" stroke-linejoin="round"/>
<path fill-rule="evenodd" clip-rule="evenodd" d="M556.341 311.786L530.209 285.661V285.654H510.61C503.391 285.654 497.544 279.807 497.544 272.588V207.258C497.544 200.038 503.391 194.191 510.61 194.191H602.073C609.292 194.191 615.139 200.038 615.139 207.258V272.588C615.139 279.807 609.292 285.654 602.073 285.654H582.474L556.341 311.78" fill="white"/>
<path d="M556.341 311.786L530.209 285.661V285.654H510.61C503.391 285.654 497.544 279.807 497.544 272.588V207.258C497.544 200.038 503.391 194.191 510.61 194.191H602.073C609.292 194.191 615.139 200.038 615.139 207.258V272.588C615.139 279.807 609.292 285.654 602.073 285.654H582.474L556.341 311.78" stroke="#E1E4E5" stroke-width="4" stroke-linecap="round" stroke-linejoin="round"/>
<path d="M582.474 252.987H530.209M530.209 226.855H582.474" stroke="#E1E4E5" stroke-width="13.5" stroke-linecap="round" stroke-linejoin="round"/>
<path fill-rule="evenodd" clip-rule="evenodd" d="M281.565 437.533L255.433 411.408V411.4H235.834C228.615 411.4 222.768 405.554 222.768 398.335V333.004C222.768 325.785 228.615 319.938 235.834 319.938H327.297C334.516 319.938 340.363 325.785 340.363 333.004V398.335C340.363 405.554 334.516 411.4 327.297 411.4H307.697L281.565 437.526" fill="white"/>
<path d="M281.565 437.533L255.433 411.408V411.4H235.834C228.615 411.4 222.768 405.554 222.768 398.335V333.004C222.768 325.785 228.615 319.938 235.834 319.938H327.297C334.516 319.938 340.363 325.785 340.363 333.004V398.335C340.363 405.554 334.516 411.4 327.297 411.4H307.697L281.565 437.526" stroke="#E1E4E5" stroke-width="4" stroke-linecap="round" stroke-linejoin="round"/>
<path d="M307.697 378.734H255.433M255.433 352.602H307.697" stroke="#E1E4E5" stroke-width="13.5" stroke-linecap="round" stroke-linejoin="round"/>
</g>
<defs>
<linearGradient id="paint0_linear_1235_26759" x1="411.862" y1="718.784" x2="536.683" y2="-278.527" gradientUnits="userSpaceOnUse">
<stop stop-color="white"/>
<stop offset="1" stop-color="#EEEEEE"/>
</linearGradient>
<linearGradient id="paint1_linear_1235_26759" x1="304.939" y1="330.319" x2="397.207" y2="-84.2958" gradientUnits="userSpaceOnUse">
<stop stop-color="white"/>
<stop offset="1" stop-color="#EEEEEE"/>
</linearGradient>
<linearGradient id="paint2_linear_1235_26759" x1="254.033" y1="307.528" x2="32.688" y2="132.443" gradientUnits="userSpaceOnUse">
<stop stop-color="white"/>
<stop offset="1" stop-color="#EEEEEE"/>
</linearGradient>
<linearGradient id="paint3_linear_1235_26759" x1="695.859" y1="335.608" x2="813.178" y2="226.603" gradientUnits="userSpaceOnUse">
<stop stop-color="white"/>
<stop offset="1" stop-color="#EEEEEE"/>
</linearGradient>
<clipPath id="clip0_1235_26759">
<rect width="900" height="600" fill="white"/>
</clipPath>
</defs>
</svg>
