<svg width="900" height="600" viewBox="0 0 900 600" fill="none" xmlns="http://www.w3.org/2000/svg">
<g clip-path="url(#clip0_1235_26794)">
<path d="M611.924 380.186C603.676 395.277 497.109 418.808 400.326 399.245C355.313 390.146 365.604 381.816 336.675 367.452C319.432 358.891 291.362 351.219 289.573 340.629C288.023 331.488 299.227 322.688 316.692 317.775C355.968 306.726 422.519 302.32 466.603 328.171C510.686 354.022 633.183 341.265 611.924 380.186Z" fill="url(#paint0_linear_1235_26794)"/>
<path d="M407.62 255.928V241.116C407.62 235.662 412.041 231.242 417.495 231.242H422.432C427.885 231.242 432.306 235.662 432.306 241.116V252.965M471.804 252.965V241.313C471.804 235.86 476.225 231.439 481.678 231.439H487.109C492.563 231.439 496.984 235.86 496.984 241.313V256.421" stroke="#4F27AA" stroke-width="4" stroke-linejoin="round"/>
<path d="M397.743 273.693C397.747 273.638 397.75 273.625 397.76 273.571C400.339 258.096 405.275 251.029 417.495 250.588C436.848 249.889 467.491 249.895 486.616 250.588C498.824 251.03 503.771 258.123 506.351 273.571C506.36 273.625 506.363 273.638 506.368 273.693C506.51 275.435 511.302 333.966 511.302 348.303C511.302 362.858 502.215 369.962 490.325 370.684C470.498 371.889 433.75 371.807 413.942 370.616C401.989 369.898 392.809 362.561 392.809 348.155C392.809 333.963 397.6 275.429 397.743 273.693Z" fill="#4F27AA"/>
<path d="M393.611 269.777C393.611 280.138 404.152 294.454 415.455 296.037C422.255 296.989 481.855 296.989 488.644 296.034C500.3 294.394 510.499 280.331 510.499 269.777M425.978 340.978C439.712 327.117 464.398 327.117 478.121 340.975M452.055 309.836V285.15" stroke="white" stroke-width="4" stroke-linejoin="round"/>
<path d="M255.37 390.477L288.834 412.08L321.875 390.477L288.834 307.027L255.37 390.477Z" fill="white" stroke="#E1E4E5" stroke-width="4"/>
<path d="M288.716 368.871V426.481M268.393 381.646L289.155 396.477" stroke="#E1E4E5" stroke-width="4"/>
<path d="M46 395.497L63.45 406.763L80.68 395.497L63.45 351.98L46 395.497Z" fill="white" stroke="#E1E4E5" stroke-width="4"/>
<path d="M64.3459 384.234V414.276M53.3469 390.117L64.1739 397.851" stroke="#E1E4E5" stroke-width="4"/>
<path d="M308.033 250.729L331.301 265.751L354.274 250.729L331.301 192.707L308.033 250.729Z" fill="white" stroke="#E1E4E5" stroke-width="4"/>
<path d="M331.828 235.711V275.767M317.443 244.097L331.878 254.409" stroke="#E1E4E5" stroke-width="4"/>
<path d="M147.474 403.581L170.741 418.602L193.715 403.581L170.741 345.559L147.474 403.581Z" fill="white" stroke="#E1E4E5" stroke-width="4"/>
<path d="M171.269 388.562V428.618M156.883 396.949L171.319 407.262" stroke="#E1E4E5" stroke-width="4"/>
<path d="M193.715 276.42L216.983 291.441L239.956 276.42L216.983 218.398L193.715 276.42Z" fill="white" stroke="#E1E4E5" stroke-width="4"/>
<path d="M217.51 261.398V301.454M203.124 269.785L217.56 280.097" stroke="#E1E4E5" stroke-width="4"/>
<path d="M233.534 333.578V319.449" stroke="#E1E4E5" stroke-width="4"/>
<path d="M359.412 426.061V415.785" stroke="#E1E4E5" stroke-width="4"/>
<path d="M218.12 333.58V323.305" stroke="#E1E4E5" stroke-width="4"/>
<path d="M323.447 426.06V419.637" stroke="#E1E4E5" stroke-width="4"/>
<path d="M182.154 333.578V327.156" stroke="#E1E4E5" stroke-width="4"/>
<path d="M248.947 333.58V323.305" stroke="#E1E4E5" stroke-width="4"/>
<path d="M661.264 390.477L627.8 412.08L594.758 390.477L627.8 307.027L661.264 390.477Z" fill="white" stroke="#E1E4E5" stroke-width="4"/>
<path d="M627.918 368.871V426.481M648.24 381.646L627.479 396.476" stroke="#E1E4E5" stroke-width="4"/>
<path d="M527.679 441.74L510.228 453.006L492.998 441.74L510.228 398.223L527.679 441.74Z" fill="white" stroke="#E1E4E5" stroke-width="4"/>
<path d="M509.332 430.473V460.515M520.331 436.357L509.505 444.09" stroke="#E1E4E5" stroke-width="4"/>
<path d="M608.601 250.729L585.333 265.751L562.36 250.729L585.333 192.707L608.601 250.729Z" fill="white" stroke="#E1E4E5" stroke-width="4"/>
<path d="M584.805 235.711V275.767M599.191 244.098L584.755 254.41" stroke="#E1E4E5" stroke-width="4"/>
<path d="M769.16 403.581L745.892 418.602L722.919 403.581L745.892 345.559L769.16 403.581Z" fill="white" stroke="#E1E4E5" stroke-width="4"/>
<path d="M745.365 388.562V428.618M759.75 396.949L745.314 407.262" stroke="#E1E4E5" stroke-width="4"/>
<path d="M853.936 356.058L830.668 371.079L807.695 356.058L830.668 298.035L853.936 356.058Z" fill="white" stroke="#E1E4E5" stroke-width="4"/>
<path d="M830.14 341.035V381.091M844.526 349.422L830.09 359.734" stroke="#E1E4E5" stroke-width="4"/>
<path d="M722.919 276.42L699.651 291.441L676.678 276.42L699.651 218.398L722.919 276.42Z" fill="white" stroke="#E1E4E5" stroke-width="4"/>
<path d="M699.124 261.398V301.454M713.51 269.785L699.073 280.097" stroke="#E1E4E5" stroke-width="4"/>
<path d="M683.1 333.578V319.449" stroke="#E1E4E5" stroke-width="4"/>
<path d="M94.8101 467.586V453.457" stroke="#E1E4E5" stroke-width="4"/>
<path d="M388.955 481.715V467.586" stroke="#E1E4E5" stroke-width="4"/>
<path d="M684.385 474.008V459.879" stroke="#E1E4E5" stroke-width="4"/>
<path d="M236.103 462.445V448.316" stroke="#E1E4E5" stroke-width="4"/>
<path d="M557.222 426.061V415.785" stroke="#E1E4E5" stroke-width="4"/>
<path d="M698.514 333.58V323.305" stroke="#E1E4E5" stroke-width="4"/>
<path d="M110.224 467.585V457.309" stroke="#E1E4E5" stroke-width="4"/>
<path d="M404.369 481.712V471.438" stroke="#E1E4E5" stroke-width="4"/>
<path d="M699.799 474.006V463.73" stroke="#E1E4E5" stroke-width="4"/>
<path d="M251.516 462.448V452.172" stroke="#E1E4E5" stroke-width="4"/>
<path d="M593.187 426.06V419.637" stroke="#E1E4E5" stroke-width="4"/>
<path d="M734.479 333.578V327.156" stroke="#E1E4E5" stroke-width="4"/>
<path d="M146.189 467.586V461.164" stroke="#E1E4E5" stroke-width="4"/>
<path d="M440.334 481.715V475.293" stroke="#E1E4E5" stroke-width="4"/>
<path d="M735.764 474.008V467.586" stroke="#E1E4E5" stroke-width="4"/>
<path d="M287.482 462.445V456.023" stroke="#E1E4E5" stroke-width="4"/>
<path d="M667.687 333.58V323.305" stroke="#E1E4E5" stroke-width="4"/>
<path d="M79.396 467.585V457.309" stroke="#E1E4E5" stroke-width="4"/>
<path d="M373.542 481.712V471.438" stroke="#E1E4E5" stroke-width="4"/>
<path d="M194.092 528.785V514.656" stroke="#E1E4E5" stroke-width="4"/>
<path d="M209.506 528.784V518.508" stroke="#E1E4E5" stroke-width="4"/>
<path d="M245.471 528.785V522.363" stroke="#E1E4E5" stroke-width="4"/>
<path d="M178.678 528.784V518.508" stroke="#E1E4E5" stroke-width="4"/>
<path d="M557.609 533.099V518.969" stroke="#E1E4E5" stroke-width="4"/>
<path d="M573.023 533.1V522.824" stroke="#E1E4E5" stroke-width="4"/>
<path d="M608.988 533.099V526.676" stroke="#E1E4E5" stroke-width="4"/>
<path d="M542.195 533.1V522.824" stroke="#E1E4E5" stroke-width="4"/>
<path d="M668.971 474.006V463.73" stroke="#E1E4E5" stroke-width="4"/>
<path d="M220.689 462.448V452.172" stroke="#E1E4E5" stroke-width="4"/>
<path fill-rule="evenodd" clip-rule="evenodd" d="M71.8879 248.876C71.8879 277.159 102.176 307.647 113.225 317.829C115.514 319.939 118.879 319.939 121.168 317.829C132.21 307.647 162.498 277.159 162.498 248.876C162.498 224.087 142.214 203.992 117.193 203.992C92.1729 203.992 71.8879 224.087 71.8879 248.876Z" fill="#4F27AA"/>
<path d="M117.092 238.668V261.883M128.7 250.276H105.484" stroke="white" stroke-width="6.622" stroke-linecap="round" stroke-linejoin="round"/>
<path fill-rule="evenodd" clip-rule="evenodd" d="M723.415 230.54C723.415 258.823 753.702 289.312 764.751 299.494C767.04 301.603 770.405 301.603 772.694 299.494C783.737 289.312 814.024 258.823 814.024 230.54C814.024 205.751 793.74 185.656 768.719 185.656C743.699 185.656 723.415 205.751 723.415 230.54Z" fill="#4F27AA"/>
<path d="M768.618 220.328V243.544M780.226 231.936H757.01" stroke="white" stroke-width="6.622" stroke-linecap="round" stroke-linejoin="round"/>
<path fill-rule="evenodd" clip-rule="evenodd" d="M261.004 156.293C270.604 156.293 266.112 141.07 253.95 144.706C253.276 123.568 218.823 108.102 204.576 136.612C200.548 133.425 191.503 139.445 193.506 144.706C189.031 145.087 185.511 145.605 182.773 146.29C176.449 147.873 177.701 156.221 184.219 156.163L261.004 156.293ZM572.107 109.069C580.621 109.069 576.637 95.557 565.851 98.784C565.253 80.022 534.697 66.294 522.061 91.6C518.489 88.771 510.467 94.115 512.243 98.784C508.275 99.123 505.153 99.582 502.724 100.19C497.116 101.595 498.226 109.005 504.007 108.954L572.107 109.069ZM743.234 146.072H701.033C697.26 146.072 695.635 141.227 698.722 139.078L698.853 138.987C703.249 135.99 709.018 136.262 709.018 136.262C709.018 136.262 709.842 120.048 725.365 120.048C739.399 120.048 744.996 133.71 747.014 141.236C747.67 143.682 745.786 146.072 743.234 146.072ZM425.637 139.407H477.306C481.925 139.407 483.915 133.38 480.135 130.707C480.082 130.669 480.029 130.631 479.975 130.594C474.593 126.866 467.529 127.205 467.529 127.205C467.529 127.205 466.521 107.036 447.516 107.036C430.333 107.036 423.481 124.03 421.009 133.392C420.206 136.433 422.514 139.407 425.637 139.407ZM226.954 93.024H262.403C265.573 93.024 266.938 88.924 264.345 87.106L264.235 87.028C260.542 84.493 255.696 84.723 255.696 84.723C255.696 84.723 255.004 71.003 241.965 71.003C230.176 71.003 225.475 82.563 223.779 88.932C223.228 91.001 224.811 93.024 226.954 93.024ZM320.474 128.056H285.025C281.856 128.056 280.49 123.956 283.084 122.137L283.194 122.06C286.887 119.525 291.733 119.755 291.733 119.755C291.733 119.755 292.425 106.035 305.464 106.035C317.253 106.035 321.954 117.595 323.65 123.964C324.2 126.033 322.617 128.056 320.474 128.056ZM158.235 109.069H193.71C196.882 109.069 198.248 104.851 195.653 102.981C195.617 102.954 195.58 102.927 195.543 102.901C191.847 100.293 186.997 100.53 186.997 100.53C186.997 100.53 186.305 86.416 173.256 86.416C161.459 86.416 156.755 98.308 155.058 104.859C154.506 106.988 156.091 109.069 158.235 109.069ZM404.93 105.151H335.616C330.005 105.151 327.584 98.048 332.178 94.896L332.373 94.764C338.912 90.37 347.494 90.769 347.494 90.769C347.494 90.769 348.721 67 371.812 67C383.228 67 392.454 86.076 392.454 86.076C392.454 86.076 407.984 86.076 410.554 98.061C411.331 101.691 408.727 105.151 404.93 105.151ZM612.471 106.036H684.278C691.018 106.036 690.709 100.602 688.507 98.709C686.251 96.769 681.792 97.555 681.792 97.555C681.792 97.555 680.464 93.9 676.095 92.121C672.23 90.547 668.181 91.296 668.181 91.296C668.181 91.296 668.181 88.788 665.706 86.71C663.231 84.633 659.932 84.835 659.932 84.835C659.932 84.835 657.663 71.004 642.506 71.004C627.348 71.004 625.595 84.027 625.595 84.027C625.595 84.027 622.192 84.027 619.717 86.248C617.242 88.469 616.933 90.993 616.933 90.993C616.933 90.993 608.657 89.901 606.209 96.891C604.75 101.057 607.747 106.036 612.471 106.036Z" fill="white" stroke="#E1E4E5" stroke-width="4"/>
</g>
<defs>
<linearGradient id="paint0_linear_1235_26794" x1="446.751" y1="461.422" x2="447.657" y2="202.813" gradientUnits="userSpaceOnUse">
<stop stop-color="white"/>
<stop offset="1" stop-color="#EEEEEE"/>
</linearGradient>
<clipPath id="clip0_1235_26794">
<rect width="900" height="600" fill="white"/>
</clipPath>
</defs>
</svg>
