<svg width="900" height="600" viewBox="0 0 900 600" fill="none" xmlns="http://www.w3.org/2000/svg">
<g clip-path="url(#clip0_1235_26899)">
<path d="M778.298 399.672H714.871C699.329 399.672 686.307 389.095 686.307 375.696C686.307 368.997 689.668 363.003 694.708 358.772C699.749 354.541 706.89 351.72 714.871 351.72H724.112C732.093 351.72 739.233 348.899 744.274 344.668C749.314 340.437 752.675 334.443 752.675 327.744C752.675 314.698 740.073 303.768 724.112 303.768H530.383C525.322 303.768 522.069 297.546 522.069 292.485C522.069 279.792 509.887 269.566 494.766 269.566H422.672C420.863 269.544 419.135 268.81 417.864 267.523C416.592 266.236 415.879 264.5 415.879 262.69C415.879 260.881 416.592 259.145 417.864 257.858C419.135 256.571 420.863 255.837 422.672 255.815H698.909C711.09 255.815 722.431 251.584 730.412 244.885C738.393 238.186 743.434 228.666 743.434 218.441C743.434 197.638 723.272 181.066 698.909 181.066H556.237C533.85 181.066 511.691 163.789 489.305 163.789H409.649C397.965 163.789 388.494 154.318 388.494 142.634C388.494 130.95 397.965 121.478 409.649 121.478H588.016C596.417 121.478 604.398 118.658 609.859 114.074C615.319 109.49 618.68 103.144 618.68 95.739C618.68 81.635 604.818 70 588.016 70H176.79C168.389 70 160.408 72.82 154.947 77.404C149.487 81.988 146.126 88.334 146.126 95.739C146.126 109.843 159.988 121.478 176.79 121.478H187.291C201.153 121.478 212.914 130.998 212.914 142.986C212.914 148.98 209.974 154.269 205.353 158.148C200.733 162.026 194.432 164.494 187.291 164.494H136.465C127.644 164.494 119.243 167.668 113.363 172.604C107.482 177.54 103.702 184.239 103.702 191.996C103.702 207.158 118.403 219.146 136.045 219.146H187.711C204.513 219.146 218.375 230.781 218.375 244.885C218.375 251.937 215.014 258.283 209.554 262.867C204.093 267.451 196.532 270.272 188.131 270.272H141.926C134.365 270.272 127.644 272.74 122.604 276.971C117.563 281.202 114.623 286.843 114.623 293.19C114.623 305.883 126.804 316.108 141.926 316.108H179.31C200.733 316.108 217.955 330.565 217.955 348.547C217.955 357.361 213.754 365.824 206.613 371.465C199.472 377.459 189.811 380.985 179.31 380.985H127.224C116.723 380.985 107.062 384.511 100.341 390.505C93.201 396.146 89 404.256 89 413.071C89 430.7 106.222 445.157 127.224 445.157H288.056C305.818 445.157 323.266 455.029 341.028 455.029H370.32C381.517 455.029 390.594 464.106 390.594 475.303C390.594 486.5 381.517 495.577 370.32 495.577H299.024C289.783 495.577 281.802 498.75 275.921 503.687C270.04 508.623 266.26 515.675 266.26 523.079C266.26 538.241 280.962 550.581 299.024 550.581H735.873C745.114 550.581 753.095 547.408 758.976 542.472C764.856 537.535 768.637 530.484 768.637 523.079C768.637 507.918 753.935 495.577 735.873 495.577H722.851C709.41 495.577 698.909 486.41 698.909 475.479C698.909 469.838 701.429 464.902 706.05 461.376C710.25 457.85 716.551 455.382 723.272 455.382H778.298C787.539 455.382 795.52 452.208 801.4 447.272C807.281 442.336 811.061 435.284 811.061 427.88C811.061 412.013 796.36 399.672 778.298 399.672Z" fill="url(#paint0_linear_1235_26899)"/>
<path d="M828.038 361.812C817.341 367.118 803.143 360.295 803.143 360.295C803.143 360.295 806.299 344.872 817.001 339.573C827.698 334.267 841.89 341.082 841.89 341.082C841.89 341.082 838.735 356.506 828.038 361.812Z" fill="url(#paint1_linear_1235_26899)"/>
<path d="M79.319 356.325C94.939 365.687 117.349 357.032 117.349 357.032C117.349 357.032 114.418 333.203 98.789 323.852C83.169 314.49 60.769 323.134 60.769 323.134C60.769 323.134 63.699 346.963 79.319 356.325Z" fill="url(#paint2_linear_1235_26899)"/>
<path d="M790.355 197.124C786.343 197.124 783.091 200.377 783.091 204.388C783.091 208.4 786.343 211.652 790.355 211.652C794.367 211.652 797.619 208.4 797.619 204.388C797.619 200.377 794.367 197.124 790.355 197.124Z" fill="#4F27AA"/>
<path d="M638.039 443C630.494 443 624.377 449.117 624.377 456.662C624.377 464.208 630.494 470.324 638.039 470.324C645.584 470.324 651.701 464.208 651.701 456.662C651.701 449.117 645.584 443 638.039 443Z" fill="#4F27AA"/>
<path d="M189.124 498.456C183.134 498.456 178.279 493.6 178.279 487.611C178.279 481.621 183.134 476.766 189.124 476.766C195.114 476.766 199.969 481.621 199.969 487.611C199.969 493.6 195.114 498.456 189.124 498.456Z" fill="#4F27AA"/>
<path d="M758.906 287.874C754.896 287.874 751.645 284.623 751.645 280.613C751.645 276.602 754.896 273.352 758.906 273.352C762.916 273.352 766.167 276.602 766.167 280.613C766.167 284.623 762.916 287.874 758.906 287.874Z" fill="#4F27AA"/>
<path d="M70.5599 507.072C63.1124 507.072 57.0749 501.034 57.0749 493.587C57.0749 486.139 63.1124 480.102 70.5599 480.102C78.0075 480.102 84.0449 486.139 84.0449 493.587C84.0449 501.034 78.0075 507.072 70.5599 507.072Z" fill="#E1E4E5"/>
<path d="M801.174 509.342C795.506 509.342 790.911 504.748 790.911 499.079C790.911 493.411 795.506 488.816 801.174 488.816C806.842 488.816 811.437 493.411 811.437 499.079C811.437 504.748 806.842 509.342 801.174 509.342Z" fill="#E1E4E5"/>
<path d="M688.414 140.941C681.289 140.941 675.514 135.165 675.514 128.041C675.514 120.916 681.289 115.141 688.414 115.141C695.538 115.141 701.314 120.916 701.314 128.041C701.314 135.165 695.538 140.941 688.414 140.941Z" fill="#E1E4E5"/>
<path d="M181.692 247.562C183.157 253.028 179.913 258.646 174.447 260.111C168.981 261.575 163.363 258.332 161.898 252.866C160.434 247.4 163.677 241.781 169.143 240.317C174.609 238.852 180.227 242.096 181.692 247.562Z" fill="#E1E4E5"/>
<path d="M288.199 136.102C280.671 136.102 274.568 129.999 274.568 122.471C274.568 114.943 280.671 108.84 288.199 108.84C295.727 108.84 301.83 114.943 301.83 122.471C301.83 129.999 295.727 136.102 288.199 136.102Z" fill="#E1E4E5"/>
<path d="M740.718 384.1C734.927 384.1 730.233 380.345 730.233 375.712C730.233 371.08 734.927 367.324 740.718 367.324C746.509 367.324 751.203 371.08 751.203 375.712C751.203 380.345 746.509 384.1 740.718 384.1Z" fill="#E1E4E5"/>
<path d="M619.164 56.7898C622.212 68.1654 615.461 79.8581 604.086 82.9062C592.71 85.9543 581.017 79.2035 577.969 67.8279C574.921 56.4522 581.672 44.7595 593.048 41.7114C604.423 38.6633 616.116 45.4141 619.164 56.7898Z" fill="#E1E4E5"/>
<path d="M189.669 135.363H189.819C190.703 147.895 200.023 148.088 200.023 148.088C200.023 148.088 189.746 148.289 189.746 162.769C189.746 148.289 179.468 148.088 179.468 148.088C179.468 148.088 188.785 147.895 189.669 135.363ZM198.778 537.433H198.922C199.771 549.928 208.719 550.121 208.719 550.121C208.719 550.121 198.852 550.321 198.852 564.758C198.852 550.321 188.984 550.121 188.984 550.121C188.984 550.121 197.929 549.928 198.778 537.433Z" fill="#E1E4E5"/>
<path d="M334.096 157.491C325.222 251.047 325.602 351.294 334.107 441.274C335.658 457.691 349.575 470.031 366.065 470.031H533.353C549.959 470.031 563.932 457.52 565.367 440.975C573.305 349.46 573.397 249.272 565.392 157.759C563.947 141.232 549.982 128.746 533.392 128.746H366.054C349.568 128.746 335.653 141.079 334.096 157.491Z" fill="#4F27AA" stroke="#4F27AA" stroke-width="24.378" stroke-linejoin="round"/>
<path d="M449.471 335.958V177.504M510.415 214.07H449.471M486.037 275.014H449.471" stroke="white" stroke-width="22.352" stroke-linejoin="round"/>
<path d="M486.037 372.524C486.037 352.329 469.666 335.958 449.471 335.958C429.276 335.958 412.905 352.329 412.905 372.524C412.905 392.719 429.276 409.09 449.471 409.09C469.666 409.09 486.037 392.719 486.037 372.524Z" stroke="white" stroke-width="22.352"/>
</g>
<defs>
<linearGradient id="paint0_linear_1235_26899" x1="465.426" y1="820.023" x2="455.563" y2="-452.887" gradientUnits="userSpaceOnUse">
<stop stop-color="white"/>
<stop offset="1" stop-color="#EEEEEE"/>
</linearGradient>
<linearGradient id="paint1_linear_1235_26899" x1="786.96" y1="378.364" x2="875.19" y2="308.574" gradientUnits="userSpaceOnUse">
<stop stop-color="white"/>
<stop offset="1" stop-color="#EEEEEE"/>
</linearGradient>
<linearGradient id="paint2_linear_1235_26899" x1="139.764" y1="386.46" x2="14.079" y2="269.682" gradientUnits="userSpaceOnUse">
<stop stop-color="white"/>
<stop offset="1" stop-color="#EEEEEE"/>
</linearGradient>
<clipPath id="clip0_1235_26899">
<rect width="900" height="600" fill="white"/>
</clipPath>
</defs>
</svg>
