<svg width="900" height="600" viewBox="0 0 900 600" fill="none" xmlns="http://www.w3.org/2000/svg">
<g clip-path="url(#clip0_1235_26919)">
<path d="M451.285 563.077C596.405 563.077 714.048 445.434 714.048 300.314C714.048 155.194 596.405 37.5508 451.285 37.5508C306.165 37.5508 188.522 155.194 188.522 300.314C188.522 445.434 306.165 563.077 451.285 563.077Z" stroke="url(#paint0_linear_1235_26919)" stroke-width="3"/>
<path d="M439.972 372.042C423.012 368.329 415.613 351.153 409.703 321.828C405.263 299.772 400.926 279.747 406.092 254.767C409.702 237.286 417.146 222.053 425.248 210.123C434.024 197.196 443.314 180.054 458.456 182.468C479.257 185.787 510.042 232.203 500.168 289.369C489.313 352.168 456.549 375.677 439.972 372.042Z" fill="url(#paint1_linear_1235_26919)"/>
<path d="M740.259 346.066C716.277 357.963 684.447 342.666 684.447 342.666C684.447 342.666 691.521 308.089 715.516 296.209C739.498 284.313 771.315 299.592 771.315 299.592C771.315 299.592 764.241 334.17 740.259 346.066Z" fill="url(#paint2_linear_1235_26919)"/>
<path d="M162.431 425.404C193.766 444.184 238.722 426.823 238.722 426.823C238.722 426.823 232.844 379.02 201.49 360.261C170.155 341.48 125.218 358.82 125.218 358.82C125.218 358.82 131.096 406.623 162.431 425.404Z" fill="url(#paint3_linear_1235_26919)"/>
<path d="M728.095 154.001C720.863 154.001 715 159.864 715 167.096C715 174.329 720.863 180.191 728.095 180.191C735.327 180.191 741.19 174.329 741.19 167.096C741.19 159.864 735.327 154.001 728.095 154.001Z" fill="#4F27AA"/>
<path d="M256.104 267.251C247.968 267.251 241.372 273.847 241.372 281.983C241.372 290.119 247.968 296.715 256.104 296.715C264.24 296.715 270.836 290.119 270.836 281.983C270.836 273.847 264.24 267.251 256.104 267.251Z" fill="#4F27AA"/>
<path d="M157.411 207.669C150.631 207.669 145.135 202.173 145.135 195.393C145.135 188.613 150.631 183.117 157.411 183.117C164.191 183.117 169.687 188.613 169.687 195.393C169.687 202.173 164.191 207.669 157.411 207.669Z" fill="#4F27AA"/>
<path d="M637.003 264.962C633.839 264.962 631.274 262.397 631.274 259.233C631.274 256.069 633.839 253.504 637.003 253.504C640.167 253.504 642.732 256.069 642.732 259.233C642.732 262.397 640.167 264.962 637.003 264.962Z" fill="#4F27AA"/>
<path d="M500.371 499.732C496.303 499.732 493.005 496.434 493.005 492.366C493.005 488.298 496.303 485 500.371 485C504.439 485 507.737 488.298 507.737 492.366C507.737 496.434 504.439 499.732 500.371 499.732Z" fill="#E1E4E5"/>
<path d="M155.216 449.016C149.34 449.016 144.577 444.253 144.577 438.377C144.577 432.502 149.34 427.738 155.216 427.738C161.092 427.738 165.855 432.502 165.855 438.377C165.855 444.253 161.092 449.016 155.216 449.016Z" fill="#E1E4E5"/>
<path d="M278.256 174.63C273.784 174.63 270.158 171.004 270.158 166.532C270.158 162.059 273.784 158.434 278.256 158.434C282.728 158.434 286.354 162.059 286.354 166.532C286.354 171.004 282.728 174.63 278.256 174.63Z" fill="#E1E4E5"/>
<path d="M361.556 379.822C356.584 379.822 352.553 375.792 352.553 370.819C352.553 365.847 356.584 361.816 361.556 361.816C366.528 361.816 370.559 365.847 370.559 370.819C370.559 375.792 366.528 379.822 361.556 379.822Z" fill="#E1E4E5"/>
<path d="M187.402 268.104C188.558 272.417 185.999 276.85 181.686 278.005C177.373 279.161 172.941 276.602 171.785 272.289C170.63 267.976 173.189 263.544 177.501 262.388C181.814 261.233 186.247 263.792 187.402 268.104Z" fill="#E1E4E5"/>
<path d="M384.88 109.354C378.94 109.354 374.125 104.539 374.125 98.5988C374.125 92.6589 378.94 87.8438 384.88 87.8438C390.82 87.8438 395.635 92.6589 395.635 98.5988C395.635 104.539 390.82 109.354 384.88 109.354Z" fill="#E1E4E5"/>
<path d="M568.277 416.236C563.708 416.236 560.004 413.273 560.004 409.618C560.004 405.963 563.708 403 568.277 403C572.846 403 576.55 405.963 576.55 409.618C576.55 413.273 572.846 416.236 568.277 416.236Z" fill="#E1E4E5"/>
<path d="M583.992 62.7143C586.397 71.6899 581.07 80.9157 572.095 83.3206C563.119 85.7256 553.893 80.3991 551.488 71.4236C549.083 62.448 554.41 53.2222 563.385 50.8172C572.361 48.4122 581.587 53.7387 583.992 62.7143Z" fill="#E1E4E5"/>
<path d="M681.785 408H682.001C683.283 426.158 696.787 426.438 696.787 426.438C696.787 426.438 681.896 426.728 681.896 447.71C681.896 426.728 667.005 426.438 667.005 426.438C667.005 426.438 680.503 426.158 681.785 408ZM246.651 504.324H246.843C247.98 520.758 259.962 521.011 259.962 521.011C259.962 521.011 246.749 521.274 246.749 540.264C246.749 521.274 233.536 521.011 233.536 521.011C233.536 521.011 245.513 520.758 246.651 504.324Z" fill="#E1E4E5"/>
<path d="M646.594 309.091L411.127 173.144M418.407 432.431L596.836 123.383M596.842 123.383L646.601 309.088L418.413 432.43L411.136 173.142L596.842 123.383Z" stroke="#4F27AA" stroke-width="27.563" stroke-linejoin="round"/>
<path d="M227.861 423.88C253.581 340.01 338.906 360.698 304.463 446.805C270.02 532.913 402.349 579.571 421.278 429.458" stroke="#4F27AA" stroke-width="27.563" stroke-linejoin="round"/>
</g>
<defs>
<linearGradient id="paint0_linear_1235_26919" x1="462.554" y1="860.9" x2="446.257" y2="-538.897" gradientUnits="userSpaceOnUse">
<stop stop-color="white"/>
<stop offset="1" stop-color="#EEEEEE"/>
</linearGradient>
<linearGradient id="paint1_linear_1235_26919" x1="329.427" y1="345.906" x2="632.609" y2="174.642" gradientUnits="userSpaceOnUse">
<stop stop-color="white"/>
<stop offset="1" stop-color="#EEEEEE"/>
</linearGradient>
<linearGradient id="paint2_linear_1235_26919" x1="648.166" y1="383.174" x2="845.97" y2="226.711" gradientUnits="userSpaceOnUse">
<stop stop-color="white"/>
<stop offset="1" stop-color="#EEEEEE"/>
</linearGradient>
<linearGradient id="paint3_linear_1235_26919" x1="283.69" y1="485.857" x2="31.5557" y2="251.591" gradientUnits="userSpaceOnUse">
<stop stop-color="white"/>
<stop offset="1" stop-color="#EEEEEE"/>
</linearGradient>
<clipPath id="clip0_1235_26919">
<rect width="900" height="600" fill="white"/>
</clipPath>
</defs>
</svg>
