<svg width="900" height="600" viewBox="0 0 900 600" fill="none" xmlns="http://www.w3.org/2000/svg">
<g clip-path="url(#clip0_1235_26940)">
<path d="M724.156 235.989C710.739 259.935 681.354 263.225 634.278 258.675C598.873 255.246 566.586 252.593 531.178 233.288C506.396 219.786 486.778 201.517 472.46 183.775C456.944 164.553 435.287 142.616 445.904 120.822C460.494 90.8836 544.866 65.6695 626.794 106.904C716.792 152.212 737.282 212.586 724.156 235.989Z" fill="url(#paint0_linear_1235_26940)"/>
<path d="M815.194 286.538C789.917 299.076 756.369 282.954 756.369 282.954C756.369 282.954 763.825 246.51 789.115 233.989C814.391 221.451 847.926 237.555 847.926 237.555C847.926 237.555 840.47 273.999 815.194 286.538Z" fill="url(#paint1_linear_1235_26940)"/>
<path d="M97.2171 378.177C130.243 397.971 177.626 379.673 177.626 379.673C177.626 379.673 171.43 329.29 138.384 309.518C105.357 289.724 57.9951 307.999 57.9951 307.999C57.9951 307.999 64.1911 358.383 97.2171 378.177Z" fill="url(#paint2_linear_1235_26940)"/>
<path d="M765.46 188.718C757.838 188.718 751.659 194.897 751.659 202.519C751.659 210.141 757.838 216.32 765.46 216.32C773.082 216.32 779.261 210.141 779.261 202.519C779.261 194.897 773.082 188.718 765.46 188.718Z" fill="#4F27AA"/>
<path d="M245.638 265.169C237.063 265.169 230.111 272.12 230.111 280.696C230.111 289.271 237.063 296.223 245.638 296.223C254.213 296.223 261.165 289.271 261.165 280.696C261.165 272.12 254.213 265.169 245.638 265.169Z" fill="#4F27AA"/>
<path d="M141.619 202.374C134.473 202.374 128.68 196.581 128.68 189.435C128.68 182.289 134.473 176.496 141.619 176.496C148.765 176.496 154.558 182.289 154.558 189.435C154.558 196.581 148.765 202.374 141.619 202.374Z" fill="#4F27AA"/>
<path d="M647.096 262.756C643.761 262.756 641.058 260.052 641.058 256.718C641.058 253.383 643.761 250.68 647.096 250.68C650.43 250.68 653.134 253.383 653.134 256.718C653.134 260.052 650.43 262.756 647.096 262.756Z" fill="#4F27AA"/>
<path d="M681.943 533.909C677.656 533.909 674.18 530.433 674.18 526.146C674.18 521.858 677.656 518.383 681.943 518.383C686.23 518.383 689.706 521.858 689.706 526.146C689.706 530.433 686.23 533.909 681.943 533.909Z" fill="#E1E4E5"/>
<path d="M139.305 456.748C133.112 456.748 128.091 451.728 128.091 445.534C128.091 439.341 133.112 434.32 139.305 434.32C145.498 434.32 150.519 439.341 150.519 445.534C150.519 451.728 145.498 456.748 139.305 456.748Z" fill="#E1E4E5"/>
<path d="M268.985 167.55C264.271 167.55 260.45 163.729 260.45 159.015C260.45 154.302 264.271 150.48 268.985 150.48C273.699 150.48 277.52 154.302 277.52 159.015C277.52 163.729 273.699 167.55 268.985 167.55Z" fill="#E1E4E5"/>
<path d="M683.339 170.085C678.099 170.085 673.851 165.837 673.851 160.597C673.851 155.357 678.099 151.109 683.339 151.109C688.579 151.109 692.827 155.357 692.827 160.597C692.827 165.837 688.579 170.085 683.339 170.085Z" fill="#E1E4E5"/>
<path d="M173.23 266.07C174.448 270.616 171.75 275.288 167.204 276.506C162.659 277.724 157.986 275.026 156.768 270.481C155.55 265.935 158.248 261.263 162.794 260.045C167.339 258.827 172.012 261.524 173.23 266.07Z" fill="#E1E4E5"/>
<path d="M381.364 98.7481C375.104 98.7481 370.029 93.6733 370.029 87.4131C370.029 81.153 375.104 76.0781 381.364 76.0781C387.624 76.0781 392.699 81.153 392.699 87.4131C392.699 93.6733 387.624 98.7481 381.364 98.7481Z" fill="#E1E4E5"/>
<path d="M742.844 384.134C738.029 384.134 734.125 381.011 734.125 377.159C734.125 373.306 738.029 370.184 742.844 370.184C747.659 370.184 751.563 373.306 751.563 377.159C751.563 381.011 747.659 384.134 742.844 384.134Z" fill="#E1E4E5"/>
<path d="M595.514 82.305C598.049 91.7649 592.435 101.489 582.975 104.023C573.515 106.558 563.791 100.944 561.257 91.4842C558.722 82.0243 564.336 72.3006 573.796 69.7658C583.256 67.231 592.979 72.845 595.514 82.305Z" fill="#E1E4E5"/>
<path d="M808.967 328.984H809.195C810.546 348.122 824.779 348.416 824.779 348.416C824.779 348.416 809.084 348.723 809.084 370.836C809.084 348.723 793.389 348.416 793.389 348.416C793.389 348.416 807.616 348.122 808.967 328.984ZM235.675 515.039H235.877C237.076 532.361 249.705 532.627 249.705 532.627C249.705 532.627 235.779 532.905 235.779 552.919C235.779 532.905 221.852 532.627 221.852 532.627C221.852 532.627 234.476 532.361 235.675 515.039Z" fill="#E1E4E5"/>
<path d="M537.402 427.423C545.948 427.679 554.577 424.545 561.1 418.022C573.653 405.468 573.653 385.114 561.1 372.56C548.546 360.007 528.192 360.007 515.638 372.56C510.209 377.973 506.902 385.155 506.319 392.799C505.798 399.533 504.372 406.557 499.597 411.333C497.823 413.107 495.416 414.103 492.907 414.103C490.398 414.103 487.992 413.107 486.217 411.333L458.811 383.926C452.534 377.649 442.357 377.649 436.08 383.926L410.408 409.598C405.211 414.795 406.183 419.931 413.532 419.973C421.698 420.019 429.85 423.157 436.08 429.388C448.634 441.941 448.634 462.295 436.08 474.849C423.526 487.403 403.172 487.403 390.618 474.849C385.072 469.319 381.745 461.948 381.266 454.131C381.193 452.972 381.34 451.753 381.536 450.533C382.598 443.959 376.143 443.863 371.434 448.572L356.522 463.484C350.245 469.761 350.245 479.938 356.522 486.215L447.445 577.138C453.722 583.415 463.899 583.415 470.176 577.137L483.768 563.542L549.732 497.578C556.009 491.301 556.009 481.124 549.732 474.847L524.774 449.89C519.728 444.844 519.728 436.662 524.774 431.616C528.036 428.355 532.792 427.285 537.402 427.423ZM361.759 172.074C353.213 171.819 344.585 174.953 338.062 181.475C325.508 194.029 325.508 214.383 338.062 226.937C350.616 239.491 370.97 239.491 383.524 226.937C388.953 221.524 392.26 214.342 392.843 206.698C393.363 199.964 394.789 192.941 399.565 188.165C403.26 184.47 409.25 184.47 412.944 188.165L440.351 215.572C446.628 221.849 456.805 221.849 463.082 215.572L488.753 189.9C493.95 184.703 492.979 179.566 485.629 179.525C477.463 179.479 469.312 176.34 463.082 170.11C450.528 157.556 450.528 137.202 463.082 124.648C475.636 112.094 495.989 112.094 508.543 124.648C514.09 130.178 517.417 137.549 517.896 145.366C517.968 146.525 517.822 147.745 517.625 148.964C516.564 155.538 523.018 155.635 527.727 150.926L542.639 136.014C548.916 129.737 548.916 119.56 542.64 113.283L451.717 22.3601C445.439 16.0831 435.262 16.0831 428.985 22.3601L415.394 35.9551L349.429 101.92C343.153 108.197 343.153 118.373 349.43 124.65L374.387 149.608C379.433 154.654 379.433 162.835 374.387 167.881C371.126 171.142 366.37 172.212 361.759 172.074ZM569.822 220.847C570.078 212.301 566.944 203.672 560.422 197.15C547.868 184.596 527.514 184.596 514.96 197.15C502.406 209.703 502.406 230.057 514.96 242.611C520.373 248.04 527.555 251.347 535.199 251.93C541.933 252.451 548.956 253.877 553.732 258.653C557.427 262.347 557.427 268.337 553.732 272.032L526.325 299.438C520.048 305.715 520.048 315.892 526.325 322.169L551.997 347.841C557.194 353.038 562.33 352.066 562.372 344.717C562.418 336.551 565.557 328.399 571.787 322.169C584.341 309.615 604.695 309.615 617.249 322.169C629.802 334.723 629.802 355.077 617.249 367.631C611.719 373.177 604.348 376.504 596.53 376.983C595.372 377.056 594.152 376.909 592.933 376.713C586.358 375.651 586.262 382.106 590.971 386.815L605.883 401.727C612.16 408.004 622.337 408.004 628.614 401.727L719.537 310.804C725.814 304.527 725.814 294.35 719.537 288.073L705.942 274.481L639.977 208.517C633.7 202.24 623.523 202.24 617.247 208.517L592.289 233.475C587.243 238.521 579.062 238.521 574.016 233.475C570.754 230.213 569.685 225.457 569.822 220.847ZM329.339 378.651C329.084 387.197 332.217 395.825 338.74 402.348C351.294 414.902 371.648 414.902 384.202 402.348C396.756 389.794 396.756 369.44 384.202 356.886C378.789 351.457 371.608 348.151 363.963 347.567C357.229 347.047 350.205 345.621 345.43 340.845C341.735 337.15 341.735 331.16 345.43 327.466L372.836 300.059C379.113 293.782 379.113 283.605 372.836 277.328L347.165 251.657C341.968 246.46 336.831 247.431 336.79 254.781C336.743 262.947 333.605 271.098 327.375 277.328C314.821 289.882 294.467 289.882 281.913 277.328C269.359 264.775 269.359 244.421 281.913 231.867C287.443 226.321 294.814 222.993 302.631 222.514C303.79 222.442 305.01 222.588 306.229 222.785C312.803 223.846 312.9 217.392 308.191 212.683L293.278 197.771C287.001 191.494 276.825 191.494 270.548 197.771L179.625 288.694C173.348 294.971 173.348 305.148 179.625 311.425L193.22 325.016L259.185 390.981C265.462 397.257 275.638 397.257 281.915 390.98L306.873 366.023C311.919 360.977 320.1 360.977 325.146 366.023C328.407 369.284 329.477 374.041 329.339 378.651Z" fill="#4F27AA"/>
<path fill-rule="evenodd" clip-rule="evenodd" d="M483.995 303.272H479.473C478.95 303.272 478.448 303.064 478.078 302.694C477.708 302.324 477.5 301.822 477.5 301.299V296.778C477.5 295.684 478.389 294.804 479.473 294.804H483.995C485.078 294.804 485.968 295.694 485.968 296.778V301.299C485.968 301.558 485.918 301.815 485.819 302.055C485.72 302.294 485.574 302.512 485.391 302.695C485.208 302.879 484.99 303.024 484.75 303.123C484.511 303.222 484.254 303.273 483.995 303.272ZM468.319 303.272H463.798C463.275 303.27 462.774 303.062 462.404 302.692C462.035 302.323 461.826 301.822 461.824 301.299V296.778C461.824 295.684 462.714 294.804 463.798 294.804H468.319C469.403 294.804 470.292 295.694 470.292 296.778V301.299C470.29 301.822 470.082 302.323 469.712 302.692C469.342 303.062 468.842 303.27 468.319 303.272ZM452.634 303.272H448.113C447.59 303.27 447.089 303.062 446.72 302.692C446.35 302.323 446.142 301.822 446.14 301.299V296.778C446.14 295.684 447.029 294.804 448.113 294.804H452.634C453.718 294.804 454.608 295.694 454.608 296.778V301.299C454.608 301.558 454.557 301.815 454.458 302.055C454.359 302.294 454.214 302.512 454.03 302.695C453.847 302.879 453.629 303.024 453.39 303.123C453.15 303.222 452.893 303.273 452.634 303.272ZM436.958 303.272H432.437C431.914 303.27 431.413 303.062 431.044 302.692C430.674 302.323 430.466 301.822 430.464 301.299V296.778C430.464 295.684 431.353 294.804 432.437 294.804H436.958C438.051 294.804 438.941 295.694 438.941 296.778V301.299C438.935 301.822 438.724 302.322 438.353 302.691C437.982 303.06 437.481 303.269 436.958 303.272ZM421.282 303.272H416.761C416.237 303.272 415.734 303.065 415.362 302.695C414.991 302.325 414.78 301.823 414.778 301.299V296.778C414.778 295.684 415.668 294.804 416.761 294.804H421.282C422.366 294.804 423.255 295.694 423.255 296.778V301.299C423.253 301.822 423.045 302.323 422.675 302.692C422.305 303.062 421.805 303.27 421.282 303.272ZM467.744 286.18H463.223C462.7 286.178 462.199 285.969 461.83 285.6C461.46 285.23 461.252 284.729 461.25 284.206V279.676C461.252 279.153 461.46 278.653 461.83 278.283C462.199 277.913 462.7 277.705 463.223 277.703H467.744C468.837 277.703 469.718 278.592 469.718 279.676V284.197C469.719 284.457 469.669 284.715 469.571 284.956C469.472 285.196 469.327 285.415 469.143 285.599C468.96 285.784 468.742 285.93 468.502 286.03C468.261 286.129 468.004 286.18 467.744 286.18ZM452.068 286.18H447.547C447.024 286.178 446.523 285.969 446.154 285.6C445.784 285.23 445.576 284.729 445.574 284.206V279.676C445.576 279.153 445.784 278.653 446.154 278.283C446.523 277.913 447.024 277.705 447.547 277.703H452.068C453.152 277.703 454.042 278.592 454.042 279.676V284.197C454.043 284.457 453.993 284.715 453.895 284.956C453.796 285.196 453.651 285.415 453.467 285.599C453.284 285.784 453.066 285.93 452.826 286.03C452.585 286.129 452.328 286.18 452.068 286.18ZM436.393 286.18H431.872C431.348 286.18 430.845 285.972 430.473 285.602C430.102 285.232 429.891 284.73 429.889 284.206V279.676C429.889 278.592 430.779 277.703 431.872 277.703H436.393C436.916 277.705 437.416 277.913 437.786 278.283C438.155 278.653 438.364 279.153 438.366 279.676V284.197C438.366 284.721 438.158 285.224 437.789 285.596C437.419 285.967 436.917 286.177 436.393 286.18ZM452.634 321.635H448.113C447.59 321.633 447.089 321.425 446.72 321.055C446.35 320.686 446.142 320.185 446.14 319.662V315.141C446.14 314.048 447.029 313.168 448.113 313.168H452.634C453.718 313.168 454.608 314.057 454.608 315.141V319.662C454.608 319.921 454.557 320.178 454.458 320.418C454.359 320.657 454.214 320.875 454.03 321.058C453.847 321.242 453.629 321.387 453.39 321.486C453.15 321.585 452.893 321.636 452.634 321.635ZM468.026 321.635H463.505C462.982 321.633 462.481 321.425 462.112 321.055C461.742 320.686 461.534 320.185 461.532 319.662V315.141C461.532 314.048 462.421 313.168 463.505 313.168H468.026C469.11 313.168 470 314.057 470 315.141V319.662C470 319.921 469.95 320.178 469.851 320.418C469.752 320.658 469.606 320.875 469.423 321.059C469.239 321.242 469.021 321.387 468.782 321.486C468.542 321.585 468.285 321.636 468.026 321.635ZM436.958 321.635H432.437C431.914 321.633 431.413 321.425 431.044 321.055C430.674 320.686 430.466 320.185 430.464 319.662V315.141C430.464 314.048 431.353 313.168 432.437 313.168H436.958C438.051 313.168 438.941 314.057 438.941 315.141V319.662C438.935 320.185 438.724 320.685 438.353 321.054C437.982 321.423 437.481 321.632 436.958 321.635Z" fill="#E1E4E5"/>
</g>
<defs>
<linearGradient id="paint0_linear_1235_26940" x1="633.77" y1="391.179" x2="514.18" y2="-146.208" gradientUnits="userSpaceOnUse">
<stop stop-color="white"/>
<stop offset="1" stop-color="#EEEEEE"/>
</linearGradient>
<linearGradient id="paint1_linear_1235_26940" x1="718.13" y1="325.649" x2="926.61" y2="160.74" gradientUnits="userSpaceOnUse">
<stop stop-color="white"/>
<stop offset="1" stop-color="#EEEEEE"/>
</linearGradient>
<linearGradient id="paint2_linear_1235_26940" x1="225.02" y1="441.893" x2="-40.7218" y2="194.983" gradientUnits="userSpaceOnUse">
<stop stop-color="white"/>
<stop offset="1" stop-color="#EEEEEE"/>
</linearGradient>
<clipPath id="clip0_1235_26940">
<rect width="900" height="600" fill="white"/>
</clipPath>
</defs>
</svg>
