<svg width="900" height="600" viewBox="0 0 900 600" fill="none" xmlns="http://www.w3.org/2000/svg">
<g clip-path="url(#clip0_1235_18631)">
<path d="M721.739 389.759C713.328 355.541 633.84 305.569 591.363 335.697C578.325 270.509 566.129 229.858 523.531 197.745C480.933 165.632 409.857 207.607 398.442 295.526C387.026 259.384 328.988 210.674 282.365 251.747C239.226 289.753 234.9 353.437 239.407 389.699H721.739V389.759Z" fill="url(#paint0_linear_1235_18631)"/>
<path d="M664.045 329.247C663.249 324.77 662.769 320.243 662.607 315.699C662.301 306.681 663.322 295.965 668.243 288.117C673.362 279.965 679.666 273.751 685.635 270.256C691.698 266.705 696.886 266.219 700.3 268.364L700.302 268.365C703.716 270.504 705.536 275.388 704.976 282.394C704.425 289.291 701.574 297.672 696.462 305.825C691.485 313.761 682.937 319.82 675.449 323.93C672.34 325.633 669.141 327.165 665.865 328.52C665.182 328.802 664.571 329.044 664.045 329.247ZM614.675 296.86L614.676 296.859C618.43 295.401 623.435 296.858 628.72 301.488C633.924 306.045 638.944 313.333 642.431 322.299C645.825 331.029 645.582 341.5 644.408 349.96C643.918 353.47 643.237 356.95 642.368 360.386C642.207 361.019 642.04 361.65 641.865 362.28C641.175 361.936 640.489 361.584 639.808 361.224C636.473 359.456 633.245 357.495 630.138 355.352C622.722 350.217 614.736 343.003 611.38 334.365C607.894 325.391 606.674 316.625 607.434 309.751C608.205 302.769 610.915 298.318 614.675 296.86ZM620.022 419.616L620.024 419.608C620.8 415.954 621.356 412.258 621.688 408.538L621.689 408.533C622.409 400.576 622.098 391.375 618.919 383.618C615.264 374.718 610.108 367.526 604.82 363.068C599.448 358.54 594.417 357.18 590.692 358.711L590.689 358.712C586.966 360.237 584.34 364.741 583.698 371.741C583.065 378.631 584.447 387.374 588.101 396.274L620.022 419.616ZM620.022 419.616C619.745 420.954 619.436 422.285 619.097 423.609L620.022 419.616ZM620.022 419.616L619.097 423.609L620.022 419.616ZM619.097 423.609L618.746 423.443C615.397 421.832 609.146 418.555 603.003 413.881C596.827 409.181 590.951 403.212 588.101 396.274L619.097 423.609ZM646.14 364.551C646.56 364.052 647.067 363.463 647.654 362.803C650.163 359.981 652.834 357.308 655.654 354.797C662.404 348.807 671.307 342.757 680.49 341.544C690.029 340.284 698.832 341.176 705.332 343.542C711.933 345.946 715.621 349.632 716.153 353.626C716.683 357.625 714.083 362.145 708.332 366.183C702.671 370.158 694.4 373.306 684.861 374.567C675.573 375.793 665.454 373.077 657.51 369.936C653.608 368.388 649.81 366.589 646.14 364.551ZM660.837 430.36C651.73 432.548 641.386 430.9 633.16 428.602C629.748 427.645 626.39 426.502 623.102 425.18C622.497 424.936 621.894 424.685 621.294 424.428C621.66 423.888 622.103 423.25 622.618 422.532C624.82 419.464 627.199 416.528 629.742 413.737C635.831 407.077 644.056 400.132 653.06 397.969C662.413 395.721 671.264 395.69 677.975 397.367C684.793 399.07 688.844 402.354 689.785 406.275C690.727 410.197 688.61 414.963 683.312 419.577C678.096 424.12 670.198 428.113 660.837 430.36Z" fill="white"/>
<path d="M620.022 419.616C619.745 420.954 619.436 422.285 619.097 423.609M620.022 419.616L619.097 423.609M664.045 329.247C663.249 324.77 662.769 320.243 662.607 315.699C662.301 306.681 663.322 295.965 668.243 288.117C673.362 279.965 679.666 273.751 685.635 270.256C691.698 266.705 696.886 266.219 700.3 268.364L700.302 268.365C703.716 270.504 705.536 275.388 704.976 282.394C704.425 289.291 701.574 297.672 696.462 305.825C691.485 313.761 682.937 319.82 675.449 323.93C672.34 325.633 669.141 327.165 665.865 328.52C665.182 328.802 664.571 329.044 664.045 329.247V329.247ZM614.675 296.86L614.676 296.859C618.43 295.401 623.435 296.858 628.72 301.488C633.924 306.045 638.944 313.333 642.431 322.299C645.825 331.029 645.582 341.5 644.408 349.96C643.918 353.47 643.237 356.95 642.368 360.386C642.207 361.019 642.04 361.65 641.865 362.28C641.175 361.936 640.489 361.584 639.808 361.224C636.473 359.456 633.245 357.495 630.138 355.352C622.722 350.217 614.736 343.003 611.38 334.365C607.894 325.391 606.674 316.625 607.434 309.751C608.205 302.769 610.915 298.318 614.675 296.86V296.86ZM620.022 419.616L620.024 419.608C620.8 415.954 621.356 412.258 621.688 408.538L621.689 408.533C622.409 400.576 622.098 391.375 618.919 383.618C615.264 374.718 610.108 367.526 604.82 363.068C599.448 358.54 594.417 357.18 590.692 358.711L590.689 358.712C586.966 360.237 584.34 364.741 583.698 371.741C583.065 378.631 584.447 387.374 588.101 396.274L620.022 419.616V419.616ZM619.097 423.609L618.746 423.443C615.397 421.832 609.146 418.555 603.003 413.881C596.827 409.181 590.951 403.212 588.101 396.274L619.097 423.609V423.609ZM646.14 364.551C646.56 364.052 647.067 363.463 647.654 362.803C650.163 359.981 652.834 357.308 655.654 354.797C662.404 348.807 671.307 342.757 680.49 341.544C690.029 340.284 698.832 341.176 705.332 343.542C711.933 345.946 715.621 349.632 716.153 353.626C716.683 357.625 714.083 362.145 708.332 366.183C702.671 370.158 694.4 373.306 684.861 374.567C675.573 375.793 665.454 373.077 657.51 369.936C653.608 368.388 649.81 366.589 646.14 364.551V364.551ZM660.837 430.36C651.73 432.548 641.386 430.9 633.16 428.602C629.748 427.645 626.39 426.502 623.102 425.18C622.497 424.936 621.894 424.685 621.294 424.428C621.66 423.888 622.103 423.25 622.618 422.532C624.82 419.464 627.199 416.528 629.742 413.737C635.831 407.077 644.056 400.132 653.06 397.969C662.413 395.721 671.264 395.69 677.975 397.367C684.793 399.07 688.844 402.354 689.785 406.275C690.727 410.197 688.61 414.963 683.312 419.577C678.096 424.12 670.198 428.113 660.837 430.36V430.36Z" stroke="#E1E4E5" stroke-width="4"/>
<path d="M626.328 411.774C624.801 416.016 623.31 420.271 621.853 424.538L620.891 424.42L620.867 424.409L620.356 424.177C622.121 419.002 623.856 414.077 625.562 409.382L625.563 409.38C645.36 354.693 660.462 331.238 664.733 325.188L665.948 326.161C661.599 332.391 646.146 356.713 626.328 411.774ZM276.817 304.628C277.166 303.538 277.62 302.063 278.123 300.273C279.632 294.9 280.828 289.445 281.703 283.934C283.767 270.796 284.23 254.765 278.338 242.189C272.283 229.286 264.12 218.975 255.904 212.706C247.601 206.37 239.739 204.487 233.904 207.226L233.902 207.227C228.069 209.957 224.487 217.208 224.046 227.646C223.609 237.975 226.311 250.847 232.356 263.749C238.293 276.42 249.822 286.89 260.045 294.251C264.3 297.308 268.718 300.13 273.28 302.706C274.699 303.507 275.899 304.15 276.817 304.628ZM356.778 270.071L356.777 270.07C351.104 267.026 343.149 268.482 334.513 274.357C325.968 280.171 317.257 290.019 310.518 302.569C303.899 314.894 302.384 330.389 302.584 342.982C302.683 349.249 303.206 354.731 303.703 358.644C303.908 360.261 304.109 361.608 304.274 362.629C305.356 362.26 306.81 361.744 308.546 361.079C313.756 359.086 318.846 356.791 323.789 354.205C335.558 348.022 348.694 338.826 355.263 326.584C362.003 314.024 365.4 301.32 365.522 290.987C365.646 280.546 362.46 273.115 356.778 270.071ZM325.683 448.904L325.684 448.913C325.938 451.962 326.244 454.42 326.473 456.057C326.945 455.905 327.486 455.729 328.092 455.527C333.291 453.767 343.052 450.085 352.915 444.325C362.815 438.545 372.611 430.791 378.122 420.978C385.096 408.557 388.726 395.916 389.04 385.582C389.358 375.139 386.312 367.645 380.7 364.5L380.698 364.499C375.085 361.345 367.105 362.648 358.36 368.358C349.708 374.008 340.812 383.691 333.838 396.114C327.713 407.039 325.606 420.567 325.232 432.356V432.361C325.016 438.677 325.291 444.428 325.683 448.904ZM299.787 364.357C298.97 363.08 298.13 361.818 297.267 360.573C294.094 355.982 290.656 351.579 286.97 347.389C278.17 337.416 266.12 326.832 252.677 323.352C238.885 319.782 225.741 319.493 215.672 321.821C205.497 324.174 199.026 329.027 197.406 335.26C195.786 341.502 199.085 348.889 206.839 355.887C214.512 362.811 226.148 368.938 239.94 372.508C253.485 376.015 268.904 373.818 281.096 370.645C286.165 369.32 291.157 367.72 296.052 365.853C297.305 365.374 298.55 364.876 299.787 364.357ZM265.965 458.009C279.069 462.909 294.628 462.328 307.081 460.439C312.259 459.649 317.39 458.577 322.451 457.228C324.025 456.808 325.332 456.428 326.322 456.128C325.642 454.773 324.938 453.431 324.209 452.102C321.531 447.205 318.57 442.469 315.34 437.918C307.626 427.084 296.745 415.302 283.741 410.44C270.399 405.451 257.354 403.793 247.095 405.06C236.728 406.341 229.787 410.496 227.531 416.535C225.275 422.574 227.786 430.264 234.769 438.03C241.679 445.715 252.613 453.02 265.965 458.009Z" fill="white" stroke="#E1E4E5" stroke-width="4"/>
<path d="M272.455 303.415C272.694 303.773 293.702 338.999 315.965 436.932C317.668 444.43 319.301 451.945 320.863 459.474L321.341 459.374L324.846 458.637V458.617H324.866L325.005 458.597C325.443 458.458 326.758 458.06 328.729 457.403C326.989 449.006 325.156 440.629 323.233 432.272C300.93 334.997 280.3 300.666 279.384 299.133L272.455 303.415Z" fill="#E1E4E5"/>
<path fill-rule="evenodd" clip-rule="evenodd" d="M601.104 287.537C601.104 357.122 544.697 413.529 475.113 413.529C405.528 413.529 349.121 357.122 349.121 287.537C349.121 217.952 405.528 161.545 475.113 161.545C544.697 161.545 601.104 217.952 601.104 287.537Z" fill="white" stroke="#4F27AA" stroke-width="28.062" stroke-linecap="round" stroke-linejoin="round"/>
<path d="M628.594 441.017L574.761 387.184" stroke="#4F27AA" stroke-width="28.062" stroke-linecap="round" stroke-linejoin="round"/>
<path d="M286.722 190.522C286.722 191.486 286.531 192.441 286.162 193.332C285.793 194.222 285.251 195.031 284.569 195.713C283.887 196.394 283.077 196.935 282.186 197.303C281.294 197.671 280.339 197.861 279.375 197.86C275.316 197.86 272.045 194.561 272.045 190.522C272.045 189.557 272.236 188.602 272.605 187.712C272.974 186.821 273.516 186.012 274.198 185.33C274.88 184.649 275.69 184.108 276.581 183.74C277.473 183.372 278.428 183.183 279.392 183.184C280.355 183.183 281.31 183.373 282.2 183.741C283.09 184.11 283.898 184.651 284.579 185.332C285.26 186.014 285.8 186.823 286.167 187.713C286.535 188.604 286.724 189.558 286.722 190.522Z" stroke="#E1E4E5" stroke-width="6.319" stroke-miterlimit="10"/>
<path d="M522.03 129.625C518.747 134.301 512.294 135.431 507.618 132.147C502.942 128.864 501.812 122.411 505.096 117.735C508.379 113.059 514.832 111.929 519.508 115.213C524.185 118.496 525.314 124.949 522.03 129.625Z" fill="#E1E4E5"/>
<path d="M604.101 165.926L604.569 165.369V148.502C604.569 131.109 618.667 117 636.072 117H649.198C666.591 117 680.7 131.109 680.7 148.502C680.7 165.896 666.591 180.005 649.198 180.005H592.289L604.101 165.926Z" fill="white" stroke="#E1E4E5" stroke-width="4"/>
<path d="M626.386 148.444C626.385 149.493 625.969 150.499 625.227 151.241C624.485 151.983 623.479 152.4 622.43 152.4C621.381 152.399 620.375 151.982 619.634 151.241C618.892 150.499 618.475 149.493 618.474 148.444C618.475 147.395 618.892 146.39 619.634 145.648C620.375 144.906 621.381 144.489 622.43 144.488C623.479 144.489 624.485 144.906 625.227 145.648C625.969 146.389 626.385 147.395 626.386 148.444ZM646.625 148.444C646.624 149.493 646.208 150.499 645.466 151.241C644.724 151.983 643.718 152.4 642.669 152.4C641.62 152.4 640.614 151.983 639.872 151.241C639.13 150.499 638.714 149.493 638.713 148.444C638.714 147.395 639.13 146.389 639.872 145.648C640.614 144.906 641.62 144.489 642.669 144.488C643.718 144.489 644.724 144.906 645.466 145.648C646.208 146.389 646.624 147.395 646.625 148.444ZM666.864 148.444C666.863 149.493 666.446 150.499 665.705 151.241C664.963 151.983 663.957 152.4 662.908 152.4C661.859 152.4 660.853 151.983 660.111 151.241C659.369 150.499 658.953 149.493 658.952 148.444C658.953 147.395 659.369 146.389 660.111 145.648C660.853 144.906 661.859 144.489 662.908 144.488C663.957 144.489 664.963 144.906 665.705 145.648C666.446 146.389 666.863 147.395 666.864 148.444Z" fill="#E1E4E5" stroke="#E1E4E5" stroke-width="4"/>
<path d="M396.082 454.762H490.003M519.782 454.762H559.871M396.082 479.599H423.118M447.624 479.961H559.871" stroke="#E1E4E5" stroke-width="4" stroke-miterlimit="10" stroke-linecap="round" stroke-linejoin="round"/>
<path d="M205.829 171.621C162.213 182.928 152.708 241.189 177.768 268.665" stroke="#E1E4E5" stroke-width="1.145" stroke-miterlimit="10" stroke-dasharray="4.76 4.76"/>
<path d="M179.017 269.967C179.843 270.812 180.707 271.621 181.606 272.389" stroke="#E1E4E5" stroke-width="1.145" stroke-miterlimit="10"/>
<path d="M181.856 262.362C187.389 262.63 191.669 267.317 191.4 272.85C191.148 278.375 186.445 282.663 180.913 282.394C175.38 282.126 171.1 277.439 171.368 271.906C171.629 266.358 176.323 262.093 181.856 262.362Z" fill="#E1E4E5"/>
<path d="M322.609 174.774C325.889 129.835 381.491 110.009 413.026 129.72" stroke="#E1E4E5" stroke-width="1.145" stroke-miterlimit="10" stroke-dasharray="4.76 4.76"/>
<path d="M713.205 152.135C713.867 151.155 714.571 150.205 715.317 149.287" stroke="#E1E4E5" stroke-width="1.145" stroke-miterlimit="10"/>
<path d="M407.559 134.875C408.818 140.27 414.198 143.637 419.592 142.378C424.982 141.136 428.354 135.74 427.095 130.345C425.836 124.951 420.457 121.583 415.062 122.842C409.651 124.097 406.3 129.481 407.559 134.875Z" fill="#E1E4E5"/>
<path d="M478.16 103.938C506.418 78.1347 552.288 98.3657 560.231 128.933" stroke="#E1E4E5" stroke-width="1.145" stroke-miterlimit="10" stroke-dasharray="4.76 4.76"/>
<path d="M553.85 128.921C551.477 132.983 552.829 138.201 556.891 140.574C560.941 142.954 566.172 141.594 568.544 137.532C570.917 133.47 569.565 128.252 565.502 125.879C564.538 125.312 563.471 124.94 562.363 124.786C561.255 124.632 560.127 124.698 559.044 124.981C557.962 125.263 556.946 125.757 556.054 126.433C555.163 127.109 554.414 127.955 553.85 128.921Z" fill="#E1E4E5"/>
<path d="M195.774 408.54C195.901 408.938 195.784 409.374 195.476 409.656L184.912 419.291C184.779 419.412 184.618 419.498 184.444 419.541C184.269 419.583 184.086 419.581 183.913 419.535C183.739 419.488 183.58 419.399 183.45 419.275C183.32 419.15 183.223 418.996 183.169 418.824L178.838 405.198C178.776 405.003 178.772 404.794 178.825 404.596C178.878 404.399 178.987 404.22 179.138 404.082L189.7 394.451C189.833 394.33 189.994 394.245 190.169 394.202C190.343 394.16 190.526 394.162 190.699 394.208C190.873 394.255 191.032 394.344 191.162 394.468C191.292 394.592 191.388 394.747 191.443 394.918L195.774 408.54V408.54Z" stroke="#E1E4E5" stroke-width="3.436" stroke-miterlimit="10"/>
<path d="M650.378 232.767C650.304 232.957 650.176 233.123 650.011 233.243C649.845 233.364 649.648 233.434 649.444 233.447L632.339 234.466C632.16 234.476 631.98 234.442 631.818 234.365C631.655 234.288 631.514 234.172 631.409 234.027C631.303 233.881 631.235 233.712 631.212 233.533C631.189 233.355 631.212 233.174 631.277 233.007L637.509 217.046C637.661 216.656 638.026 216.391 638.444 216.366L655.544 215.35C655.723 215.339 655.902 215.374 656.065 215.45C656.227 215.527 656.368 215.644 656.474 215.789C656.579 215.934 656.647 216.104 656.67 216.282C656.693 216.46 656.671 216.641 656.606 216.809L650.378 232.767Z" stroke="#E1E4E5" stroke-width="4.148" stroke-miterlimit="10"/>
<path d="M358.538 182.304C352.114 179.179 349.192 171.562 351.996 165.305C354.799 159.048 362.292 156.523 368.731 159.662" fill="#E1E4E5"/>
</g>
<defs>
<linearGradient id="paint0_linear_1235_18631" x1="490.184" y1="503.437" x2="487.563" y2="-33.6268" gradientUnits="userSpaceOnUse">
<stop stop-color="white"/>
<stop offset="1" stop-color="#EEEEEE"/>
</linearGradient>
<clipPath id="clip0_1235_18631">
<rect width="900" height="600" fill="white"/>
</clipPath>
</defs>
</svg>
