<svg width="900" height="600" viewBox="0 0 900 600" fill="none" xmlns="http://www.w3.org/2000/svg">
<g clip-path="url(#clip0_1235_26960)">
<path d="M456.603 578.005C609.996 578.005 734.346 453.656 734.346 300.263C734.346 146.869 609.996 22.5195 456.603 22.5195C303.21 22.5195 178.86 146.869 178.86 300.263C178.86 453.656 303.21 578.005 456.603 578.005Z" stroke="url(#paint0_linear_1235_26960)" stroke-width="3.171"/>
<path d="M444.658 376.08C426.732 372.156 418.912 354.001 412.665 323.004C407.971 299.691 403.387 278.524 408.848 252.121C412.663 233.642 420.532 217.541 429.096 204.931C438.372 191.268 448.191 173.148 464.196 175.7C486.184 179.208 518.724 228.27 508.286 288.695C496.812 355.073 462.181 379.923 444.658 376.08Z" fill="url(#paint1_linear_1235_26960)"/>
<path d="M762.065 348.624C736.716 361.199 703.071 345.03 703.071 345.03C703.071 345.03 710.549 308.482 735.911 295.925C761.26 283.35 794.891 299.501 794.891 299.501C794.891 299.501 787.414 336.05 762.065 348.624Z" fill="url(#paint2_linear_1235_26960)"/>
<path d="M151.534 432.357C184.655 452.208 232.174 433.858 232.174 433.858C232.174 433.858 225.961 383.329 192.819 363.501C159.698 343.65 112.199 361.978 112.199 361.978C112.199 361.978 118.412 412.506 151.534 432.357Z" fill="url(#paint3_linear_1235_26960)"/>
<path d="M749.207 145.611C741.563 145.611 735.366 151.808 735.366 159.452C735.366 167.096 741.563 173.293 749.207 173.293C756.851 173.293 763.048 167.096 763.048 159.452C763.048 151.808 756.851 145.611 749.207 145.611Z" fill="#4F27AA"/>
<path d="M337.644 534.588C329.044 534.588 322.073 541.56 322.073 550.159C322.073 558.759 329.044 565.73 337.644 565.73C346.243 565.73 353.215 558.759 353.215 550.159C353.215 541.56 346.243 534.588 337.644 534.588Z" fill="#4F27AA"/>
<path d="M145.991 202.339C138.824 202.339 133.015 196.529 133.015 189.363C133.015 182.196 138.824 176.387 145.991 176.387C153.157 176.387 158.967 182.196 158.967 189.363C158.967 196.529 153.157 202.339 145.991 202.339Z" fill="#4F27AA"/>
<path d="M660.028 334.241C656.683 334.241 653.972 331.53 653.972 328.185C653.972 324.84 656.683 322.129 660.028 322.129C663.373 322.129 666.084 324.84 666.084 328.185C666.084 331.53 663.373 334.241 660.028 334.241Z" fill="#4F27AA"/>
<path d="M508.501 511.052C504.201 511.052 500.715 507.567 500.715 503.266C500.715 498.966 504.201 495.48 508.501 495.48C512.801 495.48 516.287 498.966 516.287 503.266C516.287 507.567 512.801 511.052 508.501 511.052Z" fill="#E1E4E5"/>
<path d="M143.67 457.445C137.459 457.445 132.424 452.41 132.424 446.199C132.424 439.988 137.459 434.953 143.67 434.953C149.881 434.953 154.916 439.988 154.916 446.199C154.916 452.41 149.881 457.445 143.67 457.445Z" fill="#E1E4E5"/>
<path d="M254.518 115.165C249.791 115.165 245.959 111.333 245.959 106.606C245.959 101.879 249.791 98.0469 254.518 98.0469C259.245 98.0469 263.077 101.879 263.077 106.606C263.077 111.333 259.245 115.165 254.518 115.165Z" fill="#E1E4E5"/>
<path d="M361.773 384.305C356.518 384.305 352.257 380.045 352.257 374.789C352.257 369.534 356.518 365.273 361.773 365.273C367.029 365.273 371.289 369.534 371.289 374.789C371.289 380.045 367.029 384.305 361.773 384.305Z" fill="#E1E4E5"/>
<path d="M177.691 266.217C178.913 270.776 176.208 275.461 171.649 276.683C167.091 277.904 162.405 275.199 161.184 270.641C159.962 266.082 162.668 261.397 167.226 260.175C171.784 258.954 176.47 261.659 177.691 266.217Z" fill="#E1E4E5"/>
<path d="M386.426 98.4196C380.148 98.4196 375.058 93.33 375.058 87.0516C375.058 80.7732 380.148 75.6836 386.426 75.6836C392.704 75.6836 397.794 80.7732 397.794 87.0516C397.794 93.33 392.704 98.4196 386.426 98.4196Z" fill="#E1E4E5"/>
<path d="M580.279 422.797C575.45 422.797 571.535 419.664 571.535 415.801C571.535 411.937 575.45 408.805 580.279 408.805C585.108 408.805 589.023 411.937 589.023 415.801C589.023 419.664 585.108 422.797 580.279 422.797Z" fill="#E1E4E5"/>
<path d="M596.889 49.1208C599.431 58.6079 593.801 68.3596 584.313 70.9016C574.826 73.4437 565.075 67.8136 562.533 58.3265C559.99 48.8393 565.621 39.0877 575.108 36.5456C584.595 34.0035 594.346 39.6336 596.889 49.1208Z" fill="#E1E4E5"/>
<path d="M700.257 414.09H700.485C701.84 433.284 716.114 433.579 716.114 433.579C716.114 433.579 700.374 433.886 700.374 456.064C700.374 433.886 684.634 433.579 684.634 433.579C684.634 433.579 698.902 433.284 700.257 414.09ZM240.317 515.906H240.52C241.722 533.277 254.388 533.544 254.388 533.544C254.388 533.544 240.422 533.822 240.422 553.894C240.422 533.822 226.455 533.544 226.455 533.544C226.455 533.544 239.115 533.277 240.317 515.906Z" fill="#E1E4E5"/>
<path d="M544.744 314.961C604.808 314.961 653.5 266.27 653.5 206.205C653.5 146.141 604.808 97.4492 544.744 97.4492C484.68 97.4492 435.988 146.141 435.988 206.205C435.988 266.27 484.68 314.961 544.744 314.961Z" fill="#4F27AA"/>
<path d="M588.454 213.457H544.952V140.953" stroke="white" stroke-width="21.14" stroke-linejoin="round"/>
<path d="M242.142 213.99C236.065 191.113 254.296 169.953 277.967 169.953H329.036C338.232 169.953 346.1 176.445 348.285 185.377C354.133 209.283 362.145 231.902 373.099 253.226C377.83 262.435 375.336 273.915 366.722 279.658L352.552 289.105C348.241 291.978 346.956 297.754 349.733 302.127C377.103 345.245 405.705 373.846 448.822 401.217C453.196 403.993 458.971 402.708 461.845 398.398L471.292 384.227C477.034 375.613 488.515 373.119 497.723 377.85C519.047 388.805 541.665 396.816 565.572 402.664C574.504 404.849 580.996 412.718 580.996 421.913V472.982C580.996 496.653 559.837 514.885 536.959 508.807C393.362 470.66 280.29 357.587 242.142 213.99Z" fill="#4F27AA" stroke="#4F27AA" stroke-width="16"/>
</g>
<defs>
<linearGradient id="paint0_linear_1235_26960" x1="468.515" y1="892.805" x2="451.289" y2="-586.787" gradientUnits="userSpaceOnUse">
<stop stop-color="white"/>
<stop offset="1" stop-color="#EEEEEE"/>
</linearGradient>
<linearGradient id="paint1_linear_1235_26960" x1="327.813" y1="348.454" x2="648.277" y2="167.427" gradientUnits="userSpaceOnUse">
<stop stop-color="white"/>
<stop offset="1" stop-color="#EEEEEE"/>
</linearGradient>
<linearGradient id="paint2_linear_1235_26960" x1="664.722" y1="387.848" x2="873.802" y2="222.465" gradientUnits="userSpaceOnUse">
<stop stop-color="white"/>
<stop offset="1" stop-color="#EEEEEE"/>
</linearGradient>
<linearGradient id="paint3_linear_1235_26960" x1="279.705" y1="496.257" x2="13.1982" y2="248.636" gradientUnits="userSpaceOnUse">
<stop stop-color="white"/>
<stop offset="1" stop-color="#EEEEEE"/>
</linearGradient>
<clipPath id="clip0_1235_26960">
<rect width="900" height="600" fill="white"/>
</clipPath>
</defs>
</svg>
