<svg width="900" height="600" viewBox="0 0 900 600" fill="none" xmlns="http://www.w3.org/2000/svg">
<g clip-path="url(#clip0_1235_26982)">
<path d="M590.525 180.405C499.103 166.48 397.521 167.193 310.499 180.406V420.429C399.598 432.855 501.426 433.014 590.525 420.428V180.405Z" fill="#4F27AA"/>
<path d="M445.679 270.411C448.871 252.453 448.707 232.5 445.679 215.406H395.156C392.309 232.908 392.272 252.91 395.156 270.411H445.679ZM425.51 322.961C405.92 319.479 384.152 319.658 365.504 322.961V378.077C384.597 381.184 406.417 381.223 425.51 378.077V322.961ZM540.52 283.805C524.195 279.163 506.055 279.401 490.516 283.805V357.293C506.426 361.436 524.61 361.488 540.52 357.293V283.805Z" fill="white"/>
<path d="M748.96 267.113H821.131M748.96 382.588H821.131M748.96 223.81H850M748.96 339.285H850M151.791 267.113H223.962M151.791 382.588H223.962M151.791 223.81H252.831M151.791 339.285H252.831M718.583 222C717.753 218.451 715.307 215.657 712.202 214.708C706.574 212.984 684.005 212.984 684.005 212.984C684.005 212.984 661.436 212.984 655.808 214.708C652.703 215.657 650.257 218.451 649.427 222C647.919 228.432 647.919 241.853 647.919 241.853C647.919 241.853 647.919 255.273 649.427 261.706C650.257 265.255 652.703 268.049 655.808 268.998C661.436 270.722 684.005 270.722 684.005 270.722C684.005 270.722 706.574 270.722 712.202 268.998C715.307 268.049 717.753 265.255 718.583 261.706C720.091 255.273 720.091 241.853 720.091 241.853C720.091 241.853 720.091 228.432 718.583 222V222ZM718.583 337.475C717.753 333.926 715.307 331.131 712.202 330.183C706.574 328.459 684.005 328.459 684.005 328.459C684.005 328.459 661.436 328.459 655.808 330.183C652.703 331.131 650.257 333.926 649.427 337.475C647.919 343.907 647.919 357.328 647.919 357.328C647.919 357.328 647.919 370.748 649.427 377.181C650.257 380.729 652.703 383.524 655.808 384.473C661.436 386.196 684.005 386.196 684.005 386.196C684.005 386.196 706.574 386.196 712.202 384.473C715.307 383.524 717.753 380.729 718.583 377.181C720.091 370.748 720.091 357.328 720.091 357.328C720.091 357.328 720.091 343.907 718.583 337.475ZM121.413 222C120.584 218.451 118.138 215.657 115.033 214.708C109.405 212.984 86.836 212.984 86.836 212.984C86.836 212.984 64.267 212.984 58.639 214.708C55.534 215.657 53.088 218.451 52.259 222C50.75 228.432 50.75 241.853 50.75 241.853C50.75 241.853 50.75 255.273 52.258 261.706C53.088 265.255 55.534 268.049 58.638 268.998C64.268 270.722 86.836 270.722 86.836 270.722C86.836 270.722 109.405 270.722 115.033 268.998C118.138 268.049 120.584 265.255 121.413 261.706C122.922 255.273 122.922 241.853 122.922 241.853C122.922 241.853 122.922 228.432 121.413 222V222ZM121.413 337.475C120.584 333.926 118.138 331.131 115.033 330.183C109.405 328.459 86.836 328.459 86.836 328.459C86.836 328.459 64.267 328.459 58.639 330.183C55.534 331.131 53.088 333.926 52.259 337.475C50.75 343.907 50.75 357.328 50.75 357.328C50.75 357.328 50.75 370.748 52.258 377.181C53.088 380.729 55.534 383.524 58.638 384.473C64.268 386.196 86.836 386.196 86.836 386.196C86.836 386.196 109.405 386.196 115.033 384.473C118.138 383.524 120.584 380.729 121.413 377.181C122.922 370.748 122.922 357.328 122.922 357.328C122.922 357.328 122.922 343.907 121.413 337.475Z" stroke="#4F27AA" stroke-width="14.434"/>
</g>
<defs>
<clipPath id="clip0_1235_26982">
<rect width="900" height="600" fill="white"/>
</clipPath>
</defs>
</svg>
