<svg width="900" height="600" viewBox="0 0 900 600" fill="none" xmlns="http://www.w3.org/2000/svg">
<g clip-path="url(#clip0_1235_26987)">
<path d="M701.109 300.175C701.109 454.725 576.089 580.01 421.871 580.01C267.653 580.01 142.632 454.725 142.632 300.175C142.632 145.626 267.653 20.3398 421.871 20.3398C576.089 20.3398 701.109 145.626 701.109 300.175V300.175Z" stroke="url(#paint0_linear_1235_26987)" stroke-width="1.145"/>
<path d="M737.374 82.3716C733.624 89.0646 725.41 89.9846 712.25 88.7116C702.353 87.7536 693.328 87.0116 683.43 81.6156C676.502 77.8416 671.018 72.7356 667.016 67.7756C662.679 62.4016 656.625 56.2696 659.592 50.1775C663.671 41.8085 687.256 34.7606 710.158 46.2876C735.316 58.9526 741.043 75.8286 737.374 82.3716Z" fill="url(#paint1_linear_1235_26987)"/>
<path d="M688.965 364.054C660.581 378.134 622.908 360.03 622.908 360.03C622.908 360.03 631.281 319.105 659.68 305.045C688.064 290.965 725.722 309.049 725.722 309.049C725.722 309.049 717.349 349.974 688.965 364.054Z" fill="url(#paint2_linear_1235_26987)"/>
<path d="M250.747 349.786C273.485 363.414 306.108 350.816 306.108 350.816C306.108 350.816 301.842 316.128 279.09 302.516C256.352 288.888 223.744 301.47 223.744 301.47C223.744 301.47 228.009 336.158 250.747 349.786Z" fill="url(#paint3_linear_1235_26987)"/>
<path d="M774.502 175.191C765.943 175.191 759.004 182.13 759.004 190.689C759.004 199.249 765.943 206.188 774.502 206.188C783.061 206.188 790 199.249 790 190.689C790 182.13 783.061 175.191 774.502 175.191Z" fill="#4F27AA"/>
<path d="M184.553 369.382C174.923 369.382 167.117 377.188 167.117 386.818C167.117 396.448 174.923 404.254 184.553 404.254C194.183 404.254 201.989 396.448 201.989 386.818C201.989 377.188 194.183 369.382 184.553 369.382Z" fill="#4F27AA"/>
<path d="M641.642 257.654C637.898 257.654 634.862 254.618 634.862 250.874C634.862 247.129 637.898 244.094 641.642 244.094C645.386 244.094 648.422 247.129 648.422 250.874C648.422 254.618 645.386 257.654 641.642 257.654Z" fill="#4F27AA"/>
<path d="M570.793 540.741C565.978 540.741 562.075 536.838 562.075 532.023C562.075 527.208 565.978 523.305 570.793 523.305C575.608 523.305 579.511 527.208 579.511 532.023C579.511 536.838 575.608 540.741 570.793 540.741Z" fill="#E1E4E5"/>
<path d="M122.103 452.555C115.149 452.555 109.511 446.917 109.511 439.963C109.511 433.009 115.149 427.371 122.103 427.371C129.057 427.371 134.695 433.009 134.695 439.963C134.695 446.917 129.057 452.555 122.103 452.555Z" fill="#E1E4E5"/>
<path d="M216.987 151.422C211.694 151.422 207.403 147.131 207.403 141.838C207.403 136.545 211.694 132.254 216.987 132.254C222.28 132.254 226.571 136.545 226.571 141.838C226.571 147.131 222.28 151.422 216.987 151.422Z" fill="#E1E4E5"/>
<path d="M681.313 216.482C675.428 216.482 670.658 211.711 670.658 205.827C670.658 199.942 675.428 195.172 681.313 195.172C687.198 195.172 691.968 199.942 691.968 205.827C691.968 211.711 687.198 216.482 681.313 216.482Z" fill="#E1E4E5"/>
<path d="M130.802 221.117C132.17 226.222 129.141 231.468 124.037 232.836C118.933 234.203 113.686 231.174 112.318 226.07C110.951 220.966 113.98 215.719 119.084 214.352C124.188 212.984 129.435 216.013 130.802 221.117Z" fill="#E1E4E5"/>
<path d="M343.182 74.1611C336.152 74.1611 330.453 68.4622 330.453 61.4321C330.453 54.4021 336.152 48.7031 343.182 48.7031C350.212 48.7031 355.911 54.4021 355.911 61.4321C355.911 68.4622 350.212 74.1611 343.182 74.1611Z" fill="#E1E4E5"/>
<path d="M749.106 394.635C743.699 394.635 739.315 391.128 739.315 386.802C739.315 382.476 743.699 378.969 749.106 378.969C754.513 378.969 758.897 382.476 758.897 386.802C758.897 391.128 754.513 394.635 749.106 394.635Z" fill="#E1E4E5"/>
<path d="M583.66 55.6924C586.506 66.3153 580.202 77.2343 569.579 80.0807C558.956 82.9271 548.037 76.623 545.191 66.0001C542.344 55.3772 548.648 44.4582 559.271 41.6118C569.894 38.7654 580.813 45.0695 583.66 55.6924Z" fill="#E1E4E5"/>
<path d="M709.425 462.758H709.681C711.198 484.249 727.181 484.579 727.181 484.579C727.181 484.579 709.556 484.924 709.556 509.756C709.556 484.924 691.932 484.579 691.932 484.579C691.932 484.579 707.908 484.249 709.425 462.758ZM263.779 510.18H264.006C265.352 529.631 279.534 529.93 279.534 529.93C279.534 529.93 263.895 530.242 263.895 552.717C263.895 530.242 248.257 529.93 248.257 529.93C248.257 529.93 262.433 529.631 263.779 510.18Z" fill="#E1E4E5"/>
<path d="M461.037 212.511L398.513 110.91H298.475L398.513 273.472H448.532" stroke="#4F27AA" stroke-width="27.094" stroke-linecap="round" stroke-linejoin="round"/>
<path d="M467.81 273.472V314.112M650.692 110.91H542.318L433.943 273.472H542.318L650.692 110.91Z" stroke="#4F27AA" stroke-width="27.094" stroke-linecap="round" stroke-linejoin="round"/>
<path d="M462.091 317.311C464.644 313.047 470.976 313.047 473.529 317.311L500.576 362.487C501.047 363.266 501.673 363.939 502.416 364.464C503.159 364.989 504.003 365.355 504.894 365.539L557.415 376.604C562.372 377.648 564.329 383.507 560.949 387.187L525.144 426.172C524.534 426.831 524.072 427.613 523.788 428.464C523.503 429.316 523.404 430.218 523.495 431.111L528.908 483.125C529.419 488.034 524.296 491.655 519.654 489.665L470.479 468.583C469.635 468.223 468.727 468.037 467.81 468.037C466.893 468.037 465.985 468.223 465.141 468.583L415.966 489.665C411.324 491.655 406.201 488.034 406.712 483.125L412.126 431.111C412.217 430.218 412.117 429.316 411.833 428.464C411.548 427.613 411.086 426.831 410.476 426.172L374.671 387.187C371.291 383.507 373.248 377.648 378.205 376.604L430.726 365.539C431.617 365.355 432.461 364.989 433.204 364.464C433.947 363.939 434.574 363.266 435.045 362.487L462.091 317.311V317.311Z" stroke="#4F27AA" stroke-width="27.094"/>
</g>
<defs>
<linearGradient id="paint0_linear_1235_26987" x1="433.803" y1="895.008" x2="416.474" y2="-590.303" gradientUnits="userSpaceOnUse">
<stop stop-color="white"/>
<stop offset="1" stop-color="#EEEEEE"/>
</linearGradient>
<linearGradient id="paint1_linear_1235_26987" x1="712.108" y1="125.753" x2="678.678" y2="-24.4675" gradientUnits="userSpaceOnUse">
<stop stop-color="white"/>
<stop offset="1" stop-color="#EEEEEE"/>
</linearGradient>
<linearGradient id="paint2_linear_1235_26987" x1="579.967" y1="407.973" x2="814.08" y2="222.79" gradientUnits="userSpaceOnUse">
<stop stop-color="white"/>
<stop offset="1" stop-color="#EEEEEE"/>
</linearGradient>
<linearGradient id="paint3_linear_1235_26987" x1="338.738" y1="393.654" x2="155.778" y2="223.66" gradientUnits="userSpaceOnUse">
<stop stop-color="white"/>
<stop offset="1" stop-color="#EEEEEE"/>
</linearGradient>
<clipPath id="clip0_1235_26987">
<rect width="900" height="600" fill="white"/>
</clipPath>
</defs>
</svg>
