<svg width="900" height="600" viewBox="0 0 900 600" fill="none" xmlns="http://www.w3.org/2000/svg">
<g clip-path="url(#clip0_1235_27008)">
<path d="M451.235 553.655C591.518 553.655 705.24 439.933 705.24 299.65C705.24 159.366 591.518 45.6445 451.235 45.6445C310.952 45.6445 197.23 159.366 197.23 299.65C197.23 439.933 310.952 553.655 451.235 553.655Z" stroke="url(#paint0_linear_1235_27008)" stroke-width="1.294"/>
<path d="M663.122 221.537C667.637 213.485 666.438 198.869 656.049 182.168C645.681 165.5 626.208 146.855 594.419 130.852C565.523 116.308 536.199 113.486 512.823 116.935C501.134 118.659 490.944 121.95 483.043 126.117C475.132 130.29 469.564 135.316 467.046 140.483C463.392 147.986 465.264 155.539 469.492 162.984C472.813 168.832 477.541 174.535 482.087 180.018C483.344 181.534 484.587 183.034 485.782 184.514L485.392 184.823L485.782 184.515C495.884 197.032 509.721 209.916 527.194 219.436C551.458 232.665 573.636 234.805 597.889 237.144L599.98 237.346C616.633 238.956 630.098 239.172 640.571 236.891C651.018 234.615 658.456 229.863 663.122 221.537V221.537Z" stroke="url(#paint1_linear_1235_27008)" stroke-width="1.002"/>
<path d="M783.883 287.33C760.773 298.794 730.101 284.053 730.101 284.053C730.101 284.053 736.917 250.734 760.039 239.286C783.149 227.822 813.809 242.546 813.809 242.546C813.809 242.546 806.992 275.866 783.883 287.33Z" fill="url(#paint2_linear_1235_27008)"/>
<path d="M127.451 371.111C157.646 389.208 200.967 372.479 200.967 372.479C200.967 372.479 195.303 326.414 165.089 308.337C134.894 290.24 91.591 306.949 91.591 306.949C91.591 306.949 97.256 353.014 127.451 371.111Z" fill="url(#paint3_linear_1235_27008)"/>
<path d="M738.412 197.893C731.443 197.893 725.794 203.542 725.794 210.511C725.794 217.48 731.443 223.129 738.412 223.129C745.381 223.129 751.03 217.48 751.03 210.511C751.03 203.542 745.381 197.893 738.412 197.893Z" fill="#4F27AA"/>
<path d="M263.15 267.792C255.31 267.792 248.954 274.147 248.954 281.988C248.954 289.828 255.31 296.184 263.15 296.184C270.99 296.184 277.346 289.828 277.346 281.988C277.346 274.147 270.99 267.792 263.15 267.792Z" fill="#4F27AA"/>
<path d="M168.047 210.379C161.513 210.379 156.217 205.082 156.217 198.549C156.217 192.015 161.513 186.719 168.047 186.719C174.581 186.719 179.877 192.015 179.877 198.549C179.877 205.082 174.581 210.379 168.047 210.379Z" fill="#4F27AA"/>
<path d="M630.194 265.585C627.145 265.585 624.673 263.113 624.673 260.064C624.673 257.015 627.145 254.543 630.194 254.543C633.243 254.543 635.715 257.015 635.715 260.064C635.715 263.113 633.243 265.585 630.194 265.585Z" fill="#4F27AA"/>
<path d="M662.054 513.493C658.134 513.493 654.956 510.315 654.956 506.395C654.956 502.475 658.134 499.297 662.054 499.297C665.974 499.297 669.152 502.475 669.152 506.395C669.152 510.315 665.974 513.493 662.054 513.493Z" fill="#E1E4E5"/>
<path d="M165.931 442.949C160.269 442.949 155.679 438.359 155.679 432.697C155.679 427.035 160.269 422.445 165.931 422.445C171.593 422.445 176.183 427.035 176.183 432.697C176.183 438.359 171.593 442.949 165.931 442.949Z" fill="#E1E4E5"/>
<path d="M284.495 178.54C280.186 178.54 276.692 175.046 276.692 170.737C276.692 166.427 280.186 162.934 284.495 162.934C288.804 162.934 292.298 166.427 292.298 170.737C292.298 175.046 288.804 178.54 284.495 178.54Z" fill="#E1E4E5"/>
<path d="M663.33 180.858C658.539 180.858 654.655 176.974 654.655 172.183C654.655 167.392 658.539 163.508 663.33 163.508C668.121 163.508 672.005 167.392 672.005 172.183C672.005 176.974 668.121 180.858 663.33 180.858Z" fill="#E1E4E5"/>
<path d="M196.948 268.613C198.061 272.769 195.595 277.041 191.439 278.154C187.284 279.268 183.012 276.801 181.899 272.646C180.785 268.49 183.251 264.218 187.407 263.105C191.563 261.991 195.834 264.458 196.948 268.613Z" fill="#E1E4E5"/>
<path d="M387.241 115.638C381.517 115.638 376.877 110.998 376.877 105.274C376.877 99.5503 381.517 94.9102 387.241 94.9102C392.965 94.9102 397.605 99.5503 397.605 105.274C397.605 110.998 392.965 115.638 387.241 115.638Z" fill="#E1E4E5"/>
<path d="M717.735 376.561C713.332 376.561 709.763 373.705 709.763 370.183C709.763 366.66 713.332 363.805 717.735 363.805C722.138 363.805 725.707 366.66 725.707 370.183C725.707 373.705 722.138 376.561 717.735 376.561Z" fill="#E1E4E5"/>
<path d="M583.034 100.6C585.352 109.249 580.219 118.139 571.57 120.457C562.921 122.774 554.03 117.642 551.713 108.993C549.395 100.343 554.528 91.4533 563.177 89.1358C571.826 86.8183 580.716 91.951 583.034 100.6Z" fill="#E1E4E5"/>
<path d="M778.19 326.137H778.398C779.633 343.635 792.646 343.904 792.646 343.904C792.646 343.904 778.297 344.184 778.297 364.402C778.297 344.184 763.947 343.904 763.947 343.904C763.947 343.904 776.955 343.635 778.19 326.137ZM254.04 496.244H254.225C255.321 512.081 266.868 512.324 266.868 512.324C266.868 512.324 254.135 512.578 254.135 530.877C254.135 512.578 241.403 512.324 241.403 512.324C241.403 512.324 252.945 512.081 254.04 496.244Z" fill="#E1E4E5"/>
<path d="M655.933 497.592C553.058 512.288 347.308 512.288 244.434 497.932M332.612 447.708C391.397 433.012 508.969 433.012 567.754 447.367M376.701 407.251C376.701 363.162 442.835 303.957 442.835 266.166C442.835 240.972 389.363 273.514 376.701 273.514C364.04 273.514 359.97 271.415 347.308 258.818C317.558 229.219 398.807 154.397 450.183 141.247C466.994 136.944 456.994 89.8086 464.88 89.8086C490.203 89.8086 545.71 141.247 545.71 200.032C545.71 302.907 523.665 348.466 523.665 407.251" stroke="#4F27AA" stroke-width="29.393"/>
</g>
<defs>
<linearGradient id="paint0_linear_1235_27008" x1="462.094" y1="839.846" x2="446.39" y2="-509.036" gradientUnits="userSpaceOnUse">
<stop stop-color="white"/>
<stop offset="1" stop-color="#EEEEEE"/>
</linearGradient>
<linearGradient id="paint1_linear_1235_27008" x1="599.579" y1="331.64" x2="514.924" y2="-48.7638" gradientUnits="userSpaceOnUse">
<stop stop-color="white"/>
<stop offset="1" stop-color="#EEEEEE"/>
</linearGradient>
<linearGradient id="paint2_linear_1235_27008" x1="695.139" y1="323.088" x2="885.748" y2="172.316" gradientUnits="userSpaceOnUse">
<stop stop-color="white"/>
<stop offset="1" stop-color="#EEEEEE"/>
</linearGradient>
<linearGradient id="paint3_linear_1235_27008" x1="244.299" y1="429.365" x2="1.33602" y2="203.62" gradientUnits="userSpaceOnUse">
<stop stop-color="white"/>
<stop offset="1" stop-color="#EEEEEE"/>
</linearGradient>
<clipPath id="clip0_1235_27008">
<rect width="900" height="600" fill="white"/>
</clipPath>
</defs>
</svg>
