<svg width="900" height="600" viewBox="0 0 900 600" fill="none" xmlns="http://www.w3.org/2000/svg">
<g clip-path="url(#clip0_1235_27056)">
<path d="M777.874 340.394C761.741 348.397 740.328 338.107 740.328 338.107C740.328 338.107 745.087 314.846 761.228 306.854C777.362 298.851 798.766 309.13 798.766 309.13C798.766 309.13 794.007 332.391 777.874 340.394Z" fill="url(#paint0_linear_1235_27056)"/>
<path d="M442.669 373.541C434.452 373.541 427.791 380.202 427.791 388.419C427.791 396.636 434.452 403.297 442.669 403.297C450.886 403.297 457.547 396.636 457.547 388.419C457.547 380.202 450.886 373.541 442.669 373.541Z" fill="#4F27AA"/>
<path d="M220.716 249.137C211.472 249.137 203.978 256.631 203.978 265.875C203.978 275.119 211.472 282.613 220.716 282.613C229.96 282.613 237.454 275.119 237.454 265.875C237.454 256.631 229.96 249.137 220.716 249.137Z" fill="#4F27AA"/>
<path d="M165.008 181.998C157.305 181.998 151.06 175.753 151.06 168.05C151.06 160.346 157.305 154.102 165.008 154.102C172.711 154.102 178.956 160.346 178.956 168.05C178.956 175.753 172.711 181.998 165.008 181.998Z" fill="#4F27AA"/>
<path d="M498.247 513.281C493.625 513.281 489.878 509.534 489.878 504.912C489.878 500.29 493.625 496.543 498.247 496.543C502.869 496.543 506.616 500.29 506.616 504.912C506.616 509.534 502.869 513.281 498.247 513.281Z" fill="#E1E4E5"/>
<path d="M106.088 455.66C99.412 455.66 94 450.248 94 443.572C94 436.896 99.412 431.484 106.088 431.484C112.764 431.484 118.176 436.896 118.176 443.572C118.176 450.248 112.764 455.66 106.088 455.66Z" fill="#E1E4E5"/>
<path d="M245.884 143.904C240.803 143.904 236.684 139.785 236.684 134.704C236.684 129.623 240.803 125.504 245.884 125.504C250.965 125.504 255.084 129.623 255.084 134.704C255.084 139.785 250.965 143.904 245.884 143.904Z" fill="#E1E4E5"/>
<path d="M142.658 250.11C143.971 255.01 141.064 260.046 136.164 261.359C131.264 262.672 126.227 259.764 124.914 254.864C123.601 249.964 126.509 244.928 131.409 243.615C136.309 242.302 141.345 245.21 142.658 250.11Z" fill="#E1E4E5"/>
<path d="M344.884 110.438C338.136 110.438 332.665 104.967 332.665 98.219C332.665 91.4706 338.136 86 344.884 86C351.632 86 357.103 91.4706 357.103 98.219C357.103 104.967 351.632 110.438 344.884 110.438Z" fill="#E1E4E5"/>
<path d="M575.402 418.415C570.211 418.415 566.003 415.048 566.003 410.895C566.003 406.742 570.211 403.375 575.402 403.375C580.593 403.375 584.801 406.742 584.801 410.895C584.801 415.048 580.593 418.415 575.402 418.415Z" fill="#E1E4E5"/>
<path d="M602.629 134.734C605.362 144.931 599.31 155.413 589.112 158.146C578.914 160.878 568.432 154.826 565.7 144.629C562.967 134.431 569.019 123.949 579.217 121.216C589.415 118.484 599.897 124.536 602.629 134.734Z" fill="#E1E4E5"/>
<path d="M704.367 409.055H704.613C706.069 429.686 721.412 430.003 721.412 430.003C721.412 430.003 704.493 430.333 704.493 454.172C704.493 430.333 687.574 430.003 687.574 430.003C687.574 430.003 702.911 429.686 704.367 409.055ZM414.586 418.941H414.804C416.096 437.614 429.711 437.901 429.711 437.901C429.711 437.901 414.698 438.2 414.698 459.775C414.698 438.2 399.685 437.901 399.685 437.901C399.685 437.901 413.294 437.614 414.586 418.941Z" fill="#E1E4E5"/>
<path d="M274.832 182.207C274.832 215.97 258.212 215.97 258.212 240.378" stroke="#E1E4E5" stroke-width="15.375" stroke-linejoin="round"/>
<path d="M341.312 182.207C341.312 215.97 324.692 215.97 324.692 240.378" stroke="#E1E4E5" stroke-width="12" stroke-linejoin="round"/>
<path d="M374.553 427.352C308.859 432.37 274.495 432.588 208.352 427.352" stroke="#E1E4E5" stroke-width="12"/>
<path d="M374.553 273.617H391.173C409.531 273.617 424.413 288.499 424.413 306.857C424.413 325.215 409.531 340.097 391.173 340.097H374.553M208.352 273.617H374.553V340.097C374.553 367.634 351.962 386.128 324.692 389.957C301.858 393.164 283.596 393.128 258.212 389.957C230.887 386.544 208.352 367.634 208.352 340.097V273.617V273.617Z" stroke="#E1E4E5" stroke-width="12" stroke-linejoin="round"/>
<path d="M561.292 227.609C561.292 261.371 544.672 261.371 544.672 285.779M627.772 227.609C627.772 261.371 611.152 261.371 611.152 285.779M661.013 472.755C595.319 477.773 560.955 477.99 494.812 472.755M661.013 319.019H677.633C695.991 319.019 710.873 333.901 710.873 352.259C710.873 370.617 695.991 385.499 677.633 385.499H661.013M494.812 319.019H661.013V385.499C661.013 413.036 638.422 431.53 611.152 435.36C588.318 438.566 570.056 438.531 544.672 435.36C517.347 431.946 494.812 413.036 494.812 385.499V319.019Z" stroke="#E1E4E5" stroke-width="12"/>
<path d="M467.787 241.662C500.623 241.662 527.241 215.043 527.241 182.208C527.241 149.372 500.623 122.754 467.787 122.754C434.951 122.754 408.333 149.372 408.333 182.208C408.333 215.043 434.951 241.662 467.787 241.662Z" fill="#4F27AA"/>
<path fill-rule="evenodd" clip-rule="evenodd" d="M478.815 161.129C487.825 161.129 493.866 169.585 493.866 177.46C493.866 193.444 468.785 206.531 468.328 206.531C467.871 206.531 442.79 193.444 442.79 177.46C442.79 169.585 448.831 161.129 457.84 161.129C462.99 161.129 466.373 163.697 468.328 165.984C470.283 163.697 473.665 161.129 478.815 161.129ZM178.946 349.323L150.698 321.081V321.074H129.512C121.708 321.074 115.387 314.754 115.387 306.95V236.329C115.387 228.525 121.708 222.205 129.512 222.205H228.381C236.185 222.205 242.505 228.525 242.505 236.329V306.95C242.505 314.754 236.185 321.074 228.381 321.074H207.195L178.946 349.316" fill="white"/>
<path d="M178.946 349.321L150.698 321.079V321.072H129.512C121.708 321.072 115.387 314.752 115.387 306.948V236.327C115.387 228.523 121.708 222.203 129.512 222.203H228.381C236.185 222.203 242.505 228.523 242.505 236.327V306.948C242.505 314.752 236.185 321.072 228.381 321.072H207.195L178.946 349.314" stroke="#E1E4E5" stroke-width="6" stroke-linecap="round" stroke-linejoin="round"/>
<path d="M207.195 285.765H150.698M150.698 257.516H207.195" stroke="#E1E4E5" stroke-width="13.5" stroke-linecap="round" stroke-linejoin="round"/>
<path fill-rule="evenodd" clip-rule="evenodd" d="M706.144 298.955L684.284 277.101V277.096H667.889C661.85 277.096 656.959 272.204 656.959 266.166V211.516C656.959 205.477 661.85 200.586 667.889 200.586H744.398C750.437 200.586 755.328 205.477 755.328 211.516V266.166C755.328 272.204 750.437 277.096 744.398 277.096H728.003L706.144 298.95" fill="white"/>
<path d="M706.144 298.955L684.284 277.101V277.096H667.889C661.85 277.096 656.959 272.204 656.959 266.166V211.516C656.959 205.477 661.85 200.586 667.889 200.586H744.398C750.437 200.586 755.328 205.477 755.328 211.516V266.166C755.328 272.204 750.437 277.096 744.398 277.096H728.003L706.144 298.95" stroke="#E1E4E5" stroke-width="6" stroke-linecap="round" stroke-linejoin="round"/>
<path d="M728.003 249.77H684.284M684.284 227.91H728.003" stroke="#E1E4E5" stroke-width="13.5" stroke-linecap="round" stroke-linejoin="round"/>
</g>
<defs>
<linearGradient id="paint0_linear_1235_27056" x1="715.921" y1="365.357" x2="848.988" y2="260.101" gradientUnits="userSpaceOnUse">
<stop stop-color="white"/>
<stop offset="1" stop-color="#EEEEEE"/>
</linearGradient>
<clipPath id="clip0_1235_27056">
<rect width="900" height="600" fill="white"/>
</clipPath>
</defs>
</svg>
