<svg width="900" height="600" viewBox="0 0 900 600" fill="none" xmlns="http://www.w3.org/2000/svg">
<g clip-path="url(#clip0_1235_27082)">
<path d="M707.461 239.537C680.039 253.14 643.642 235.649 643.642 235.649C643.642 235.649 651.731 196.111 679.168 182.527C706.591 168.924 742.973 186.395 742.973 186.395C742.973 186.395 734.884 225.934 707.461 239.537Z" fill="url(#paint0_linear_1235_27082)"/>
<path d="M179.235 266.504C200.095 279.006 230.023 267.449 230.023 267.449C230.023 267.449 226.11 235.626 205.237 223.137C184.377 210.635 154.462 222.178 154.462 222.178C154.462 222.178 158.375 254.001 179.235 266.504Z" fill="url(#paint1_linear_1235_27082)"/>
<path d="M791.793 180.034C783.524 180.034 776.82 186.738 776.82 195.007C776.82 203.277 783.524 209.98 791.793 209.98C800.062 209.98 806.766 203.277 806.766 195.007C806.766 186.738 800.062 180.034 791.793 180.034Z" fill="#4F27AA"/>
<path d="M227.836 262.974C218.533 262.974 210.991 270.516 210.991 279.819C210.991 289.122 218.533 296.664 227.836 296.664C237.139 296.664 244.681 289.122 244.681 279.819C244.681 270.516 237.139 262.974 227.836 262.974Z" fill="#4F27AA"/>
<path d="M155.037 201.074C147.285 201.074 141 194.789 141 187.037C141 179.285 147.285 173 155.037 173C162.789 173 169.074 179.285 169.074 187.037C169.074 194.789 162.789 201.074 155.037 201.074Z" fill="#4F27AA"/>
<path d="M663.379 260.356C659.761 260.356 656.828 257.423 656.828 253.805C656.828 250.187 659.761 247.254 663.379 247.254C666.997 247.254 669.93 250.187 669.93 253.805C669.93 257.423 666.997 260.356 663.379 260.356Z" fill="#4F27AA"/>
<path d="M565.422 436.844C560.771 436.844 557 433.073 557 428.422C557 423.771 560.771 420 565.422 420C570.073 420 573.844 423.771 573.844 428.422C573.844 433.073 570.073 436.844 565.422 436.844Z" fill="#E1E4E5"/>
<path d="M112.474 470.82C105.755 470.82 100.308 465.373 100.308 458.654C100.308 451.935 105.755 446.488 112.474 446.488C119.193 446.488 124.64 451.935 124.64 458.654C124.64 465.373 119.193 470.82 112.474 470.82Z" fill="#E1E4E5"/>
<path d="M222.259 148.518C217.145 148.518 213 144.373 213 139.259C213 134.145 217.145 130 222.259 130C227.373 130 231.518 134.145 231.518 139.259C231.518 144.373 227.373 148.518 222.259 148.518Z" fill="#E1E4E5"/>
<path d="M702.699 159.818C697.014 159.818 692.405 155.21 692.405 149.524C692.405 143.839 697.014 139.23 702.699 139.23C708.384 139.23 712.993 143.839 712.993 149.524C712.993 155.21 708.384 159.818 702.699 159.818Z" fill="#E1E4E5"/>
<path d="M161.251 280.929C162.573 285.86 159.646 290.929 154.715 292.251C149.783 293.572 144.715 290.646 143.393 285.714C142.072 280.783 144.998 275.714 149.93 274.393C154.861 273.071 159.93 275.998 161.251 280.929Z" fill="#E1E4E5"/>
<path d="M421.298 124.596C414.506 124.596 409 119.09 409 112.298C409 105.506 414.506 100 421.298 100C428.09 100 433.596 105.506 433.596 112.298C433.596 119.09 428.09 124.596 421.298 124.596Z" fill="#E1E4E5"/>
<path d="M666.46 446.136C661.235 446.136 657 442.748 657 438.568C657 434.388 661.235 431 666.46 431C671.685 431 675.92 434.388 675.92 438.568C675.92 442.748 671.685 446.136 666.46 446.136Z" fill="#E1E4E5"/>
<path d="M751.81 257H751.954C752.805 269.053 761.768 269.238 761.768 269.238C761.768 269.238 751.884 269.431 751.884 283.358C751.884 269.431 742 269.238 742 269.238C742 269.238 750.96 269.053 751.81 257ZM636.332 360.997H636.486C637.397 374.167 647 374.37 647 374.37C647 374.37 636.411 374.581 636.411 389.799C636.411 374.581 625.822 374.37 625.822 374.37C625.822 374.37 635.421 374.167 636.332 360.997Z" fill="#E1E4E5"/>
<path d="M408.517 357.762C431.183 380.428 467.932 380.428 490.598 357.762C513.264 335.096 513.264 298.347 490.598 275.681C467.932 253.015 431.183 253.015 408.517 275.681C385.851 298.347 385.851 335.096 408.517 357.762Z" stroke="#E1E4E5" stroke-width="12.575"/>
<path d="M490.598 275.682L531.639 234.641M367.476 398.804L408.517 357.763M490.598 357.764L531.639 398.805M367.476 234.642L408.517 275.682" stroke="#E1E4E5" stroke-width="12.575"/>
<path d="M298.652 374.761V258.68M298.652 409.585V446.344C298.652 454.892 305.581 461.822 314.129 461.822H584.984C593.532 461.822 600.462 454.892 600.462 446.344V175.489C600.462 166.941 593.532 160.012 584.984 160.012H314.129C305.581 160.012 298.652 166.941 298.652 175.489V223.856M362.496 502.45V461.822M536.617 502.45V461.822" stroke="#E1E4E5" stroke-width="12.575" stroke-linejoin="round"/>
<path d="M132.396 379.618C140.534 379.618 147.131 373.021 147.131 364.883C147.131 356.746 140.534 350.148 132.396 350.148C124.258 350.148 117.661 356.746 117.661 364.883C117.661 373.021 124.258 379.618 132.396 379.618Z" stroke="#E1E4E5" stroke-width="9.823"/>
<path d="M193.793 325.589V404.177C193.793 404.177 161.848 418.602 132.396 404.177C102.945 389.751 71 404.177 71 404.177V325.589C71 325.589 102.945 310.958 132.396 325.589C161.848 340.22 193.793 325.589 193.793 325.589V325.589Z" stroke="#E1E4E5" stroke-width="9.823" stroke-linejoin="round"/>
<path d="M213.439 345.234V421.073C213.439 422.845 212.746 424.541 211.361 425.646C194.388 439.178 156.198 440.249 132.431 429.072C107.636 417.412 85.7351 423.821 85.7351 423.821" stroke="#E1E4E5" stroke-width="9.823" stroke-linejoin="round"/>
<path d="M97.643 381.38C92.48 381.38 89.308 382.043 83.384 383.838M179.387 345.855C174.308 347.58 170.291 348.313 164.268 348.313" stroke="#E1E4E5" stroke-width="6.549" stroke-linejoin="round"/>
<path d="M747.551 379.618C755.689 379.618 762.286 373.021 762.286 364.883C762.286 356.746 755.689 350.148 747.551 350.148C739.413 350.148 732.816 356.746 732.816 364.883C732.816 373.021 739.413 379.618 747.551 379.618Z" stroke="#E1E4E5" stroke-width="9.823"/>
<path d="M808.947 325.589V404.177C808.947 404.177 777.002 418.602 747.551 404.177C718.099 389.751 686.154 404.177 686.154 404.177V325.589C686.154 325.589 718.099 310.958 747.551 325.589C777.002 340.22 808.947 325.589 808.947 325.589V325.589Z" stroke="#E1E4E5" stroke-width="9.823" stroke-linejoin="round"/>
<path d="M828.594 345.234V421.073C828.594 422.845 827.901 424.541 826.515 425.646C809.543 439.178 771.353 440.249 747.585 429.072C722.79 417.412 700.89 423.821 700.89 423.821" stroke="#E1E4E5" stroke-width="9.823" stroke-linejoin="round"/>
<path d="M712.798 381.38C707.635 381.38 704.462 382.043 698.539 383.838M794.541 345.855C789.462 347.58 785.445 348.313 779.422 348.313" stroke="#E1E4E5" stroke-width="6.549" stroke-linejoin="round"/>
<path d="M298.134 234.183C266.774 234.183 241.351 208.761 241.351 177.4C241.351 146.04 266.774 120.617 298.134 120.617C329.494 120.617 354.917 146.04 354.917 177.4C354.917 208.761 329.494 234.183 298.134 234.183Z" fill="#4F27AA"/>
<path fill-rule="evenodd" clip-rule="evenodd" d="M291.019 194.281V190.361H295.91L300.062 186.199L305.794 188.639C306.809 189.072 307.93 189.19 309.013 188.979C310.096 188.768 311.091 188.237 311.869 187.455L320.01 179.296C320.79 178.514 321.319 177.517 321.529 176.432C321.739 175.348 321.622 174.225 321.191 173.208L317.036 163.405C316.477 162.084 315.427 161.031 314.107 160.469L304.325 156.304C303.31 155.872 302.189 155.754 301.106 155.965C300.023 156.176 299.029 156.707 298.25 157.488L290.109 165.647C289.329 166.43 288.801 167.427 288.591 168.512C288.381 169.597 288.5 170.719 288.931 171.736L291.301 177.333L274.637 194.034V202.856H283.44L287.108 199.18V194.278H291.019V194.281Z" fill="white"/>
<path fill-rule="evenodd" clip-rule="evenodd" d="M304.972 168.266C302.632 168.276 300.733 170.175 300.743 172.515C300.744 173.071 300.854 173.623 301.068 174.137C301.282 174.651 301.595 175.118 301.99 175.511C302.385 175.903 302.853 176.215 303.368 176.426C303.883 176.638 304.435 176.746 304.992 176.744C306.116 176.743 307.194 176.297 307.989 175.502C308.784 174.707 309.231 173.629 309.231 172.505C309.231 171.38 308.784 170.302 307.989 169.507C307.194 168.713 306.116 168.266 304.992 168.266" fill="#4F27AA"/>
</g>
<defs>
<linearGradient id="paint0_linear_1235_27082" x1="602.156" y1="281.968" x2="828.338" y2="103.058" gradientUnits="userSpaceOnUse">
<stop stop-color="white"/>
<stop offset="1" stop-color="#EEEEEE"/>
</linearGradient>
<linearGradient id="paint1_linear_1235_27082" x1="259.958" y1="306.748" x2="92.1099" y2="150.795" gradientUnits="userSpaceOnUse">
<stop stop-color="white"/>
<stop offset="1" stop-color="#EEEEEE"/>
</linearGradient>
<clipPath id="clip0_1235_27082">
<rect width="900" height="600" fill="white"/>
</clipPath>
</defs>
</svg>
