<svg width="900" height="600" viewBox="0 0 900 600" fill="none" xmlns="http://www.w3.org/2000/svg">
<g clip-path="url(#clip0_1235_27112)">
<path d="M713.776 399.561H654.679C640.198 399.561 628.066 389.706 628.066 377.222C628.066 370.98 631.197 365.395 635.893 361.452C640.59 357.51 647.243 354.882 654.679 354.882H663.289C670.725 354.882 677.378 352.253 682.075 348.311C686.771 344.369 689.902 338.784 689.902 332.542C689.902 320.386 678.161 310.202 663.289 310.202H482.788C478.071 310.202 475.04 304.405 475.04 299.689C475.04 287.862 463.691 278.334 449.601 278.334H382.43C380.731 278.334 379.102 277.659 377.9 276.457C376.699 275.256 376.024 273.627 376.024 271.928C376.024 270.229 376.699 268.599 377.9 267.398C379.102 266.197 380.731 265.522 382.43 265.522H639.807C651.157 265.522 661.724 261.58 669.159 255.337C676.596 249.095 681.292 240.225 681.292 230.698C681.292 211.315 662.506 195.874 639.807 195.874H506.876C486.018 195.874 465.372 179.776 444.514 179.776H370.297C359.41 179.776 350.585 170.951 350.585 160.064C350.585 149.178 359.41 140.352 370.297 140.352H536.485C544.313 140.352 551.749 137.724 556.837 133.453C561.924 129.183 565.055 123.269 565.055 116.37C565.055 103.229 552.14 92.3867 536.485 92.3867H153.335C145.508 92.3867 138.072 95.0157 132.984 99.2867C127.896 103.557 124.765 109.471 124.765 116.37C124.765 129.511 137.68 140.352 153.335 140.352H163.119C176.034 140.352 186.993 149.223 186.993 160.393C186.993 165.978 184.253 170.906 179.948 174.519C175.643 178.133 169.773 180.433 163.119 180.433H115.764C107.545 180.433 99.7181 183.39 94.2381 187.989C88.7591 192.589 85.2371 198.831 85.2371 206.058C85.2371 220.185 98.9351 231.355 115.372 231.355H163.511C179.165 231.355 192.081 242.196 192.081 255.337C192.081 261.908 188.95 267.822 183.862 272.092C178.774 276.363 171.729 278.992 163.902 278.992H120.851C113.807 278.992 107.545 281.291 102.848 285.234C98.1521 289.176 95.4121 294.432 95.4121 300.346C95.4121 312.173 106.762 321.7 120.851 321.7H155.683C175.643 321.7 191.689 335.17 191.689 351.925C191.689 360.138 187.776 368.023 181.122 373.279C174.469 378.864 165.468 382.15 155.683 382.15H107.154C97.3691 382.15 88.3681 385.435 82.1061 391.02C75.4531 396.276 71.5391 403.832 71.5391 412.046C71.5391 428.472 87.5851 441.942 107.154 441.942H257.005C273.554 441.942 289.811 451.141 306.36 451.141H333.652C344.084 451.141 352.542 459.598 352.542 470.031C352.542 480.464 344.084 488.921 333.652 488.921H267.223C258.613 488.921 251.177 491.878 245.698 496.477C240.219 501.077 236.697 507.647 236.697 514.546C236.697 528.673 250.395 540.172 267.223 540.172H674.247C682.857 540.172 690.293 537.215 695.773 532.616C701.252 528.016 704.774 521.446 704.774 514.546C704.774 500.42 691.076 488.921 674.247 488.921H662.115C649.591 488.921 639.807 480.38 639.807 470.195C639.807 464.939 642.155 460.339 646.46 457.054C650.374 453.769 656.244 451.469 662.506 451.469H713.776C722.386 451.469 729.822 448.512 735.301 443.913C740.78 439.313 744.302 432.743 744.302 425.844C744.302 411.06 730.604 399.561 713.776 399.561Z" fill="url(#paint0_linear_1235_27112)"/>
<path d="M848.641 353.157C837.015 358.924 821.584 351.508 821.584 351.508C821.584 351.508 825.014 334.745 836.646 328.986C848.272 323.219 863.697 330.627 863.697 330.627C863.697 330.627 860.267 347.389 848.641 353.157Z" fill="url(#paint1_linear_1235_27112)"/>
<path d="M61.017 363.367C77.993 373.542 102.35 364.136 102.35 364.136C102.35 364.136 99.165 338.237 82.178 328.074C65.201 317.899 40.855 327.293 40.855 327.293C40.855 327.293 44.04 353.192 61.017 363.367Z" fill="url(#paint2_linear_1235_27112)"/>
<path d="M833.81 190.343C829.45 190.343 825.915 193.878 825.915 198.238C825.915 202.598 829.45 206.133 833.81 206.133C838.17 206.133 841.705 202.598 841.705 198.238C841.705 193.878 838.17 190.343 833.81 190.343Z" fill="#4F27AA"/>
<path d="M668.265 457.572C660.064 457.572 653.416 464.22 653.416 472.421C653.416 480.621 660.064 487.27 668.265 487.27C676.466 487.27 683.114 480.621 683.114 472.421C683.114 464.22 676.466 457.572 668.265 457.572Z" fill="#4F27AA"/>
<path d="M159.406 526.793C152.896 526.793 147.619 521.516 147.619 515.006C147.619 508.496 152.896 503.219 159.406 503.219C165.916 503.219 171.193 508.496 171.193 515.006C171.193 521.516 165.916 526.793 159.406 526.793Z" fill="#4F27AA"/>
<path d="M799.63 288.972C795.271 288.972 791.738 285.438 791.738 281.08C791.738 276.721 795.271 273.188 799.63 273.188C803.989 273.188 807.522 276.721 807.522 281.08C807.522 285.438 803.989 288.972 799.63 288.972Z" fill="#4F27AA"/>
<path d="M629.622 546.66C621.528 546.66 614.966 540.098 614.966 532.004C614.966 523.909 621.528 517.348 629.622 517.348C637.716 517.348 644.278 523.909 644.278 532.004C644.278 540.098 637.716 546.66 629.622 546.66Z" fill="#E1E4E5"/>
<path d="M807.626 517.919C801.466 517.919 796.471 512.925 796.471 506.764C796.471 500.604 801.466 495.609 807.626 495.609C813.787 495.609 818.781 500.604 818.781 506.764C818.781 512.925 813.787 517.919 807.626 517.919Z" fill="#E1E4E5"/>
<path d="M723.015 129.276C715.272 129.276 708.994 122.999 708.994 115.255C708.994 107.512 715.272 101.234 723.015 101.234C730.759 101.234 737.036 107.512 737.036 115.255C737.036 122.999 730.759 129.276 723.015 129.276Z" fill="#E1E4E5"/>
<path d="M172.281 245.156C173.873 251.097 170.348 257.203 164.407 258.795C158.466 260.387 152.36 256.861 150.768 250.921C149.176 244.98 152.702 238.874 158.643 237.282C164.583 235.69 170.689 239.216 172.281 245.156Z" fill="#E1E4E5"/>
<path d="M288.039 124.017C279.857 124.017 273.224 117.384 273.224 109.202C273.224 101.02 279.857 94.3867 288.039 94.3867C296.221 94.3867 302.854 101.02 302.854 109.202C302.854 117.384 296.221 124.017 288.039 124.017Z" fill="#E1E4E5"/>
<path d="M779.862 393.558C773.568 393.558 768.466 389.476 768.466 384.441C768.466 379.406 773.568 375.324 779.862 375.324C786.156 375.324 791.258 379.406 791.258 384.441C791.258 389.476 786.156 393.558 779.862 393.558Z" fill="#E1E4E5"/>
<path d="M813.551 72.3861C816.864 84.7502 809.527 97.459 797.162 100.772C784.798 104.085 772.089 96.7475 768.776 84.3834C765.464 72.0192 772.801 59.3104 785.165 55.9974C797.529 52.6845 810.238 60.0219 813.551 72.3861Z" fill="#E1E4E5"/>
<path d="M100.016 141.297H100.178C101.139 154.918 111.269 155.127 111.269 155.127C111.269 155.127 100.099 155.345 100.099 171.084C100.099 155.345 88.929 155.127 88.929 155.127C88.929 155.127 99.054 154.918 100.016 141.297ZM304.989 511.915H305.145C306.068 525.495 315.793 525.704 315.793 525.704C315.793 525.704 305.069 525.921 305.069 541.613C305.069 525.921 294.344 525.704 294.344 525.704C294.344 525.704 304.066 525.495 304.989 511.915Z" fill="#E1E4E5"/>
<path d="M183.485 54.3477H363.748C443.865 54.3477 463.894 113.431 463.894 113.431V550.456C463.894 550.456 423.835 491.373 363.748 491.373H183.485V54.3477Z" fill="#4F27AA"/>
<path fill-rule="evenodd" clip-rule="evenodd" d="M571.492 54.4297V189.732L627.597 154.297L683.703 189.732V54.4317H744.302V491.456H564.04C503.952 491.456 463.894 550.539 463.894 550.539V113.513C463.894 113.513 483.923 54.4297 564.04 54.4297H571.492Z" fill="#4F27AA"/>
<path d="M422.593 236.914H235.654M422.593 279.302H235.654M422.593 321.689H235.654M422.593 364.076H235.654M422.593 406.464H235.654M235.654 194.527H422.593M697.568 236.914H510.628M697.568 279.302H510.629M697.568 321.689H510.629M697.568 364.076H510.629M697.568 406.464H510.629" stroke="white" stroke-width="13.5" stroke-linecap="round" stroke-linejoin="round"/>
</g>
<defs>
<linearGradient id="paint0_linear_1235_27112" x1="422.265" y1="791.225" x2="413.075" y2="-394.815" gradientUnits="userSpaceOnUse">
<stop stop-color="white"/>
<stop offset="1" stop-color="#EEEEEE"/>
</linearGradient>
<linearGradient id="paint1_linear_1235_27112" x1="803.995" y1="371.146" x2="899.888" y2="295.295" gradientUnits="userSpaceOnUse">
<stop stop-color="white"/>
<stop offset="1" stop-color="#EEEEEE"/>
</linearGradient>
<linearGradient id="paint2_linear_1235_27112" x1="126.712" y1="396.12" x2="-9.88904" y2="269.199" gradientUnits="userSpaceOnUse">
<stop stop-color="white"/>
<stop offset="1" stop-color="#EEEEEE"/>
</linearGradient>
<clipPath id="clip0_1235_27112">
<rect width="900" height="600" fill="white"/>
</clipPath>
</defs>
</svg>
