<svg width="900" height="600" viewBox="0 0 900 600" fill="none" xmlns="http://www.w3.org/2000/svg">
<g clip-path="url(#clip0_1235_27132)">
<path d="M449.9 575.262C601.851 575.262 725.031 452.082 725.031 300.131C725.031 148.18 601.851 25 449.9 25C297.949 25 174.769 148.18 174.769 300.131C174.769 452.082 297.949 575.262 449.9 575.262Z" fill="url(#paint0_linear_1235_27132)"/>
<path d="M809.299 286.819C784.331 299.205 751.192 283.279 751.192 283.279C751.192 283.279 758.557 247.28 783.539 234.911C808.507 222.526 841.633 238.434 841.633 238.434C841.633 238.434 834.268 274.433 809.299 286.819Z" fill="url(#paint1_linear_1235_27132)"/>
<path d="M96 366.65C124.209 383.556 164.68 367.927 164.68 367.927C164.68 367.927 159.388 324.893 131.162 308.007C102.953 291.1 62.5 306.71 62.5 306.71C62.5 306.71 67.79 349.743 96 366.65Z" fill="url(#paint2_linear_1235_27132)"/>
<path d="M760.172 190.191C752.643 190.191 746.539 196.295 746.539 203.824C746.539 211.353 752.643 217.457 760.172 217.457C767.701 217.457 773.805 211.353 773.805 203.824C773.805 196.295 767.701 190.191 760.172 190.191Z" fill="#4F27AA"/>
<path d="M246.689 265.709C238.218 265.709 231.352 272.575 231.352 281.046C231.352 289.516 238.218 296.383 246.689 296.383C255.159 296.383 262.026 289.516 262.026 281.046C262.026 272.575 255.159 265.709 246.689 265.709Z" fill="#4F27AA"/>
<path d="M143.938 203.679C136.879 203.679 131.157 197.957 131.157 190.898C131.157 183.839 136.879 178.117 143.938 178.117C150.997 178.117 156.719 183.839 156.719 190.898C156.719 197.957 150.997 203.679 143.938 203.679Z" fill="#4F27AA"/>
<path d="M643.251 263.325C639.956 263.325 637.286 260.654 637.286 257.36C637.286 254.065 639.956 251.395 643.251 251.395C646.545 251.395 649.216 254.065 649.216 257.36C649.216 260.654 646.545 263.325 643.251 263.325Z" fill="#4F27AA"/>
<path d="M677.673 531.17C673.437 531.17 670.004 527.737 670.004 523.501C670.004 519.266 673.437 515.832 677.673 515.832C681.908 515.832 685.342 519.266 685.342 523.501C685.342 527.737 681.908 531.17 677.673 531.17Z" fill="#E1E4E5"/>
<path d="M141.652 454.951C135.534 454.951 130.575 449.992 130.575 443.874C130.575 437.756 135.534 432.797 141.652 432.797C147.77 432.797 152.729 437.756 152.729 443.874C152.729 449.992 147.77 454.951 141.652 454.951Z" fill="#E1E4E5"/>
<path d="M269.751 169.28C265.095 169.28 261.32 165.505 261.32 160.849C261.32 156.193 265.095 152.418 269.751 152.418C274.407 152.418 278.182 156.193 278.182 160.849C278.182 165.505 274.407 169.28 269.751 169.28Z" fill="#E1E4E5"/>
<path d="M686.595 170.879C681.418 170.879 677.222 166.682 677.222 161.506C677.222 156.329 681.418 152.133 686.595 152.133C691.771 152.133 695.968 156.329 695.968 161.506C695.968 166.682 691.771 170.879 686.595 170.879Z" fill="#E1E4E5"/>
<path d="M188.691 250.531C189.894 255.021 187.229 259.637 182.739 260.84C178.249 262.043 173.634 259.378 172.43 254.888C171.227 250.398 173.892 245.782 178.382 244.579C182.872 243.376 187.488 246.041 188.691 250.531Z" fill="#E1E4E5"/>
<path d="M380.759 101.32C374.575 101.32 369.562 96.3067 369.562 90.1228C369.562 83.9388 374.575 78.9258 380.759 78.9258C386.943 78.9258 391.956 83.9388 391.956 90.1228C391.956 96.3067 386.943 101.32 380.759 101.32Z" fill="#E1E4E5"/>
<path d="M737.832 383.221C733.075 383.221 729.219 380.137 729.219 376.331C729.219 372.526 733.075 369.441 737.832 369.441C742.589 369.441 746.445 372.526 746.445 376.331C746.445 380.137 742.589 383.221 737.832 383.221Z" fill="#E1E4E5"/>
<path d="M638.974 75.6378C641.477 84.9825 635.932 94.5878 626.587 97.0917C617.242 99.5956 607.637 94.05 605.133 84.7053C602.629 75.3606 608.175 65.7553 617.52 63.2514C626.864 60.7475 636.47 66.2931 638.974 75.6378Z" fill="#E1E4E5"/>
<path d="M803.149 328.742H803.374C804.708 347.647 818.768 347.938 818.768 347.938C818.768 347.938 803.264 348.241 803.264 370.085C803.264 348.241 787.761 347.938 787.761 347.938C787.761 347.938 801.814 347.647 803.149 328.742ZM236.847 512.529H237.047C238.231 529.64 250.706 529.903 250.706 529.903C250.706 529.903 236.949 530.177 236.949 549.947C236.949 530.177 223.193 529.903 223.193 529.903C223.193 529.903 235.663 529.64 236.847 512.529Z" fill="#E1E4E5"/>
<path d="M449.155 533.148C578.012 533.148 682.471 428.689 682.471 299.832C682.471 170.975 578.012 66.5156 449.155 66.5156C320.298 66.5156 215.839 170.975 215.839 299.832C215.839 428.689 320.298 533.148 449.155 533.148Z" fill="#4F27AA"/>
<path d="M353.604 178.977L343.297 249.123C343.297 276.795 366.37 299.227 394.832 299.227C423.295 299.227 446.368 276.795 446.368 249.123L436.061 178.977" stroke="white" stroke-width="12.884"/>
<path d="M497.903 333.585C497.903 358.552 529.638 367.942 553.733 367.942V196.156C493.608 196.156 497.903 308.618 497.903 333.585V333.585Z" stroke="white" stroke-width="12.884" stroke-linejoin="round"/>
<path d="M394.832 419.477V299.227M394.832 247.691V178.977M343.296 247.691H446.367M553.733 419.477L553.734 367.941" stroke="white" stroke-width="12.884"/>
</g>
<defs>
<linearGradient id="paint0_linear_1235_27132" x1="461.633" y1="883.77" x2="444.666" y2="-573.591" gradientUnits="userSpaceOnUse">
<stop stop-color="white"/>
<stop offset="1" stop-color="#EEEEEE"/>
</linearGradient>
<linearGradient id="paint1_linear_1235_27132" x1="713.419" y1="325.453" x2="919.357" y2="162.555" gradientUnits="userSpaceOnUse">
<stop stop-color="white"/>
<stop offset="1" stop-color="#EEEEEE"/>
</linearGradient>
<linearGradient id="paint2_linear_1235_27132" x1="205.161" y1="421.071" x2="-21.818" y2="210.178" gradientUnits="userSpaceOnUse">
<stop stop-color="white"/>
<stop offset="1" stop-color="#EEEEEE"/>
</linearGradient>
<clipPath id="clip0_1235_27132">
<rect width="900" height="600" fill="white"/>
</clipPath>
</defs>
</svg>
