<svg width="900" height="600" viewBox="0 0 900 600" fill="none" xmlns="http://www.w3.org/2000/svg">
<g clip-path="url(#clip0_1235_27154)">
<path d="M297.172 324.829C305.335 374.244 416.569 451.297 518.968 387.238C566.592 357.443 556.055 330.166 586.948 283.132C605.362 255.098 635.129 229.978 637.365 195.302C639.302 165.369 627.82 136.554 609.626 120.466C568.71 84.286 498.898 69.856 451.686 154.507C404.475 239.157 276.133 197.382 297.172 324.829Z" fill="url(#paint0_linear_1235_27154)"/>
<path d="M190.271 255.175C196.874 267.725 211.334 269.449 234.5 267.064C251.922 265.267 267.81 263.877 285.234 253.759C297.429 246.683 307.083 237.108 314.129 227.809C321.764 217.735 332.421 206.239 327.197 194.816C320.017 179.126 278.498 165.911 238.182 187.522C193.895 211.268 183.812 242.909 190.271 255.175Z" fill="url(#paint1_linear_1235_27154)"/>
<path d="M70.1302 386.668C105.178 405.185 151.697 381.376 151.697 381.376C151.697 381.376 141.358 327.555 106.291 309.064C71.2412 290.547 24.7422 314.33 24.7422 314.33C24.7422 314.33 35.0812 368.151 70.1292 386.668H70.1302Z" fill="url(#paint2_linear_1235_27154)"/>
<path d="M858.882 415.13C839.84 427.285 812.52 416.049 812.52 416.049C812.52 416.049 816.092 385.109 835.146 372.968C854.189 360.812 881.497 372.035 881.497 372.035C881.497 372.035 877.925 402.975 858.882 415.13Z" fill="url(#paint3_linear_1235_27154)"/>
<path d="M100.581 486.539C106.526 486.539 111.346 481.406 111.346 475.074C111.346 468.742 106.526 463.609 100.581 463.609C94.6356 463.609 89.8159 468.742 89.8159 475.074C89.8159 481.406 94.6356 486.539 100.581 486.539Z" fill="#E1E4E5"/>
<path d="M818.533 308.585C827.12 308.585 834.082 301.171 834.082 292.025C834.082 282.879 827.12 275.465 818.533 275.465C809.945 275.465 802.984 282.879 802.984 292.025C802.984 301.171 809.945 308.585 818.533 308.585Z" fill="#E1E4E5"/>
<path d="M32.062 455.782C38.5978 455.782 43.896 450.139 43.896 443.178C43.896 436.217 38.5978 430.574 32.062 430.574C25.5263 430.574 20.228 436.217 20.228 443.178C20.228 450.139 25.5263 455.782 32.062 455.782Z" fill="#E1E4E5"/>
<path d="M143.924 230.921C151.19 230.921 157.081 224.647 157.081 216.908C157.081 209.168 151.19 202.895 143.924 202.895C136.658 202.895 130.767 209.168 130.767 216.908C130.767 224.647 136.658 230.921 143.924 230.921Z" fill="#E1E4E5"/>
<path d="M654.484 279.462C654.484 286.411 659.774 292.045 666.299 292.045C672.824 292.045 678.114 286.411 678.114 279.462C678.114 272.513 672.824 266.879 666.299 266.879C659.774 266.879 654.484 272.513 654.484 279.462Z" fill="#E1E4E5"/>
<path d="M766.988 200.113H766.816C765.796 215.503 755.049 215.74 755.049 215.74C755.049 215.74 766.9 215.986 766.9 233.77C766.9 215.986 778.75 215.74 778.75 215.74C778.75 215.74 768.008 215.503 766.988 200.113ZM848.113 470.252H847.948C846.969 485.597 836.651 485.833 836.651 485.833C836.651 485.833 848.029 486.079 848.029 503.809C848.029 486.079 859.406 485.833 859.406 485.833C859.406 485.833 849.093 485.597 848.113 470.252Z" fill="#E1E4E5"/>
<path fill-rule="evenodd" clip-rule="evenodd" d="M568.546 319.312C586.135 295.167 596.512 265.433 596.512 233.275C596.512 152.49 531.022 87 450.236 87C369.451 87 303.961 152.49 303.961 233.275C303.961 265.516 314.392 295.321 332.063 319.499C422.153 304.517 476.477 304.455 568.546 319.312ZM561.017 328.799C475.552 315.37 423.18 315.43 339.593 328.958C366.415 359.946 406.036 379.551 450.236 379.551C494.512 379.551 534.194 359.879 561.017 328.799Z" fill="#4F27AA"/>
<path d="M259.094 330.602C265.771 330.602 271.184 325.99 271.184 320.301C271.184 314.612 265.771 310 259.094 310C252.417 310 247.004 314.612 247.004 320.301C247.004 325.99 252.417 330.602 259.094 330.602Z" fill="#E1E4E5"/>
<path d="M367.394 292.188C432.397 283.467 468.478 283.056 532.933 292.188" stroke="white" stroke-width="10.554"/>
<path d="M539.831 195.626C469.915 189.793 430.456 189.285 360.497 195.626L450.164 143.895L539.831 195.626Z" stroke="white" stroke-width="10.554" stroke-linejoin="round"/>
<path d="M394.984 212.867V288.739M450.164 212.867V285.29M505.344 212.867V288.739" stroke="white" stroke-width="10.554"/>
<path d="M619.105 159.847C627.786 159.847 634.823 152.352 634.823 143.107C634.823 133.862 627.786 126.367 619.105 126.367C610.424 126.367 603.387 133.862 603.387 143.107C603.387 152.352 610.424 159.847 619.105 159.847Z" fill="#E1E4E5"/>
<path d="M178.175 512.174C146.97 512.174 121.674 486.878 121.674 455.673C121.674 424.468 146.97 399.172 178.175 399.172C209.379 399.172 234.676 424.468 234.676 455.673C234.676 486.878 209.379 512.174 178.175 512.174Z" fill="#4F27AA"/>
<path fill-rule="evenodd" clip-rule="evenodd" d="M197.658 475.438V478.218C197.657 478.956 197.363 479.663 196.841 480.185C196.319 480.706 195.612 480.999 194.874 480.998H161.475C160.737 480.999 160.03 480.706 159.508 480.185C158.986 479.663 158.692 478.956 158.692 478.218V475.393C158.692 466.981 168.316 461.515 178.175 461.515C188.033 461.515 197.658 466.984 197.658 475.393M185.063 437.091C188.867 440.896 188.867 447.064 185.063 450.868C181.258 454.672 175.09 454.672 171.286 450.868C167.482 447.064 167.482 440.896 171.286 437.091C175.09 433.287 181.258 433.287 185.063 437.091Z" fill="white"/>
<path d="M314.29 512.174C283.085 512.174 257.789 486.878 257.789 455.673C257.789 424.468 283.085 399.172 314.29 399.172C345.495 399.172 370.791 424.468 370.791 455.673C370.791 486.878 345.495 512.174 314.29 512.174Z" fill="#4F27AA"/>
<path fill-rule="evenodd" clip-rule="evenodd" d="M333.773 475.438V478.218C333.773 478.956 333.479 479.663 332.957 480.185C332.435 480.706 331.728 480.999 330.99 480.998H297.59C296.852 480.999 296.145 480.706 295.623 480.185C295.101 479.663 294.808 478.956 294.807 478.218V475.393C294.807 466.981 304.432 461.515 314.29 461.515C324.149 461.515 333.773 466.984 333.773 475.393M321.178 437.091C324.982 440.896 324.982 447.064 321.178 450.868C317.374 454.672 311.206 454.672 307.402 450.868C303.597 447.064 303.597 440.896 307.402 437.091C311.206 433.287 317.374 433.287 321.178 437.091Z" fill="white"/>
<path d="M450.405 512.174C419.201 512.174 393.904 486.878 393.904 455.673C393.904 424.468 419.201 399.172 450.405 399.172C481.61 399.172 506.906 424.468 506.906 455.673C506.906 486.878 481.61 512.174 450.405 512.174Z" fill="#4F27AA"/>
<path fill-rule="evenodd" clip-rule="evenodd" d="M469.889 475.438V478.218C469.888 478.956 469.594 479.663 469.072 480.185C468.55 480.706 467.843 480.999 467.105 480.998H433.706C432.968 480.999 432.261 480.706 431.739 480.185C431.217 479.663 430.923 478.956 430.923 478.218V475.393C430.923 466.981 440.547 461.515 450.406 461.515C460.264 461.515 469.889 466.984 469.889 475.393M457.294 437.091C461.098 440.896 461.098 447.064 457.294 450.868C453.489 454.672 447.321 454.672 443.517 450.868C439.713 447.064 439.713 440.896 443.517 437.091C447.321 433.287 453.489 433.287 457.294 437.091Z" fill="white"/>
<path d="M586.521 512.174C555.316 512.174 530.02 486.878 530.02 455.673C530.02 424.468 555.316 399.172 586.521 399.172C617.726 399.172 643.022 424.468 643.022 455.673C643.022 486.878 617.726 512.174 586.521 512.174Z" fill="#4F27AA"/>
<path fill-rule="evenodd" clip-rule="evenodd" d="M606.004 475.438V478.218C606.004 478.956 605.71 479.663 605.188 480.185C604.666 480.706 603.959 480.999 603.221 480.998H569.821C569.083 480.999 568.376 480.706 567.854 480.185C567.332 479.663 567.039 478.956 567.038 478.218V475.393C567.038 466.981 576.663 461.515 586.521 461.515C596.38 461.515 606.004 466.984 606.004 475.393M593.409 437.091C597.214 440.896 597.214 447.064 593.409 450.868C589.605 454.672 583.437 454.672 579.633 450.868C575.828 447.064 575.828 440.896 579.633 437.091C583.437 433.287 589.605 433.287 593.409 437.091Z" fill="white"/>
<path d="M722.636 512.174C691.432 512.174 666.135 486.878 666.135 455.673C666.135 424.468 691.432 399.172 722.636 399.172C753.841 399.172 779.137 424.468 779.137 455.673C779.137 486.878 753.841 512.174 722.636 512.174Z" fill="#4F27AA"/>
<path fill-rule="evenodd" clip-rule="evenodd" d="M742.12 475.438V478.218C742.119 478.956 741.825 479.663 741.303 480.185C740.781 480.706 740.074 480.999 739.336 480.998H705.937C705.199 480.999 704.492 480.706 703.97 480.185C703.448 479.663 703.154 478.956 703.154 478.218V475.393C703.154 466.981 712.778 461.515 722.637 461.515C732.495 461.515 742.12 466.984 742.12 475.393M729.525 437.091C733.329 440.896 733.329 447.064 729.525 450.868C725.721 454.672 719.553 454.672 715.748 450.868C711.944 447.064 711.944 440.896 715.748 437.091C719.553 433.287 725.721 433.287 729.525 437.091Z" fill="white"/>
</g>
<defs>
<linearGradient id="paint0_linear_1235_27154" x1="468.073" y1="590.837" x2="458.834" y2="-255.794" gradientUnits="userSpaceOnUse">
<stop stop-color="white"/>
<stop offset="1" stop-color="#EEEEEE"/>
</linearGradient>
<linearGradient id="paint1_linear_1235_27154" x1="234.75" y1="336.509" x2="301.083" y2="56.6395" gradientUnits="userSpaceOnUse">
<stop stop-color="white"/>
<stop offset="1" stop-color="#EEEEEE"/>
</linearGradient>
<linearGradient id="paint2_linear_1235_27154" x1="204.72" y1="444.427" x2="-98.1658" y2="219.474" gradientUnits="userSpaceOnUse">
<stop stop-color="white"/>
<stop offset="1" stop-color="#EEEEEE"/>
</linearGradient>
<linearGradient id="paint3_linear_1235_27154" x1="785.193" y1="454.257" x2="947.31" y2="312.828" gradientUnits="userSpaceOnUse">
<stop stop-color="white"/>
<stop offset="1" stop-color="#EEEEEE"/>
</linearGradient>
<clipPath id="clip0_1235_27154">
<rect width="900" height="600" fill="white"/>
</clipPath>
</defs>
</svg>
