<svg width="900" height="600" viewBox="0 0 900 600" fill="none" xmlns="http://www.w3.org/2000/svg">
<g clip-path="url(#clip0_1235_18655)">
<path d="M325.896 148.656C420.166 143.317 519.003 171.127 504.476 211.44C489.946 251.753 582.149 197.121 618.943 211.656C645.139 222.003 634.668 253.504 647.34 266.197C676.396 295.299 706.115 258.652 743.097 280.641C780.078 302.63 704.363 507.854 665.729 509L225.077 506.387L193.455 503.613C193.455 503.613 105.983 456.93 168.555 413.866C210.864 384.748 180.422 363.602 175.82 350.272C170.537 334.966 158.21 308.234 211.922 288.618C265.634 269.001 251.766 226.316 250.445 217.479C249.125 208.637 231.627 153.996 325.896 148.656Z" fill="url(#paint0_linear_1235_18655)"/>
<path d="M614.491 509.007H282.489L182.606 260.648H514.119L614.491 509.007Z" fill="#4F27AA"/>
<path d="M278.593 499.338H717.026V509.008H282.489L278.593 499.338Z" fill="#4F27AA"/>
<path d="M355.669 384.201C351.41 369.246 359.997 357.121 374.817 357.121C389.637 357.121 405.081 369.246 409.34 384.201C413.599 399.157 405.011 411.282 390.191 411.282C375.371 411.282 359.928 399.157 355.669 384.201Z" fill="white"/>
<path d="M364 143C359.582 143 356 146.582 356 151C356 155.418 359.582 159 364 159C368.418 159 372 155.418 372 151C372 146.582 368.418 143 364 143Z" fill="#E1E4E5"/>
<path d="M204.5 208C201.462 208 199 210.462 199 213.5C199 216.538 201.462 219 204.5 219C207.538 219 210 216.538 210 213.5C210 210.462 207.538 208 204.5 208Z" fill="#E1E4E5"/>
<path d="M763 463.5C763 470.408 757.402 476 750.486 476C743.571 476 738 470.38 738 463.5C738 456.592 743.598 451 750.514 451C757.429 451 763 456.592 763 463.5ZM173 381C173 388.737 166.506 395 158.484 395C150.462 395 144 388.706 144 381C144 373.263 150.494 367 158.516 367C166.538 367 173 373.263 173 381Z" stroke="#E1E4E5" stroke-width="5" stroke-miterlimit="10"/>
<path d="M666.6 373.034L623.076 416.558C621.492 418.143 621.492 420.712 623.076 422.297L623.077 422.298C624.662 423.883 627.231 423.883 628.816 422.298L672.34 378.774C673.925 377.189 673.925 374.62 672.34 373.035L672.339 373.034C670.754 371.45 668.185 371.45 666.6 373.034Z" fill="#E1E4E5"/>
<path d="M662.341 404.195L649.788 416.748C648.204 418.333 648.204 420.902 649.788 422.487L649.789 422.487C651.374 424.072 653.943 424.072 655.528 422.487L668.081 409.935C669.665 408.35 669.665 405.781 668.081 404.196L668.08 404.195C666.495 402.61 663.926 402.61 662.341 404.195Z" fill="#E1E4E5"/>
<path d="M338.794 180.198L302.133 216.859C300.798 218.193 300.798 220.357 302.133 221.692L302.134 221.693C303.468 223.028 305.633 223.028 306.967 221.693L343.628 185.032C344.963 183.698 344.963 181.533 343.628 180.199L343.627 180.198C342.293 178.863 340.128 178.863 338.794 180.198Z" fill="#E1E4E5"/>
<path d="M335.206 206.445L324.633 217.019C323.298 218.353 323.298 220.518 324.633 221.852L324.634 221.853C325.968 223.188 328.133 223.188 329.467 221.853L340.041 211.28C341.376 209.945 341.376 207.781 340.041 206.446L340.04 206.445C338.705 205.11 336.541 205.11 335.206 206.445Z" fill="#E1E4E5"/>
<path d="M670.242 179.436L645.132 204.546C644.218 205.46 644.218 206.942 645.132 207.857L645.133 207.857C646.047 208.771 647.529 208.771 648.444 207.857L673.554 182.747C674.468 181.833 674.468 180.351 673.554 179.436L673.553 179.436C672.639 178.522 671.157 178.522 670.242 179.436Z" fill="#E1E4E5"/>
<path d="M667.786 197.413L660.543 204.655C659.629 205.569 659.629 207.052 660.543 207.966L660.544 207.967C661.458 208.881 662.941 208.881 663.855 207.967L671.097 200.724C672.011 199.81 672.011 198.328 671.097 197.414L671.096 197.413C670.182 196.499 668.7 196.499 667.786 197.413Z" fill="#E1E4E5"/>
<path d="M756.423 303.679L723.894 336.209C722.709 337.393 722.709 339.314 723.894 340.498C725.078 341.683 726.999 341.683 728.183 340.498L760.713 307.968C761.897 306.784 761.897 304.864 760.713 303.679C759.528 302.495 757.608 302.495 756.423 303.679Z" fill="#E1E4E5"/>
<path d="M753.24 326.968L743.858 336.35C742.673 337.534 742.673 339.454 743.858 340.639C745.042 341.823 746.962 341.823 748.147 340.639L757.529 331.257C758.713 330.072 758.713 328.152 757.529 326.968C756.344 325.783 754.424 325.783 753.24 326.968Z" fill="#E1E4E5"/>
<path d="M221.879 454.84L185.218 491.501C183.883 492.836 183.883 495 185.218 496.335L185.219 496.336C186.553 497.67 188.718 497.67 190.052 496.336L226.713 459.675C228.048 458.34 228.048 456.176 226.713 454.841L226.712 454.84C225.378 453.506 223.213 453.506 221.879 454.84Z" fill="#E1E4E5"/>
<path d="M218.291 481.086L207.718 491.659C206.383 492.994 206.383 495.158 207.718 496.493L207.719 496.494C209.053 497.829 211.218 497.829 212.552 496.494L223.126 485.92C224.461 484.586 224.461 482.421 223.126 481.087L223.125 481.086C221.79 479.751 219.626 479.751 218.291 481.086Z" fill="#E1E4E5"/>
<path d="M597.309 293.6V316.273L576.84 340.669H662.819C688.808 340.669 709.888 319.588 709.888 293.6C709.888 267.611 688.808 246.531 662.819 246.531H644.378C618.373 246.531 597.309 267.611 597.309 293.6Z" fill="#E1E4E5"/>
<path d="M633.581 293.519C633.58 295.738 632.698 297.866 631.129 299.435C629.56 301.004 627.432 301.886 625.213 301.887C622.994 301.887 620.866 301.005 619.297 299.436C617.728 297.866 616.846 295.738 616.845 293.519C616.845 288.901 620.594 285.152 625.213 285.152C629.831 285.152 633.581 288.901 633.581 293.519ZM662.015 293.519C662.014 295.738 661.132 297.866 659.563 299.435C657.994 301.004 655.866 301.886 653.647 301.887C651.428 301.886 649.3 301.004 647.731 299.435C646.162 297.866 645.28 295.738 645.279 293.519C645.279 288.901 649.029 285.152 653.647 285.152C658.265 285.152 662.015 288.901 662.015 293.519ZM690.449 293.519C690.449 298.138 686.7 301.887 682.082 301.887C679.863 301.887 677.735 301.005 676.166 299.436C674.597 297.866 673.715 295.738 673.714 293.519C673.714 288.901 677.463 285.152 682.082 285.152C684.301 285.153 686.429 286.035 687.997 287.604C689.566 289.173 690.448 291.3 690.449 293.519Z" fill="white"/>
<path d="M159.142 234.999H158.865C157.23 257.863 140 258.215 140 258.215C140 258.215 159 258.581 159 284.999C159 258.581 178 258.215 178 258.215C178 258.215 160.777 257.863 159.142 234.999ZM546.142 202.999H545.865C544.23 225.863 527 226.215 527 226.215C527 226.215 546 226.581 546 252.999C546 226.581 565 226.215 565 226.215C565 226.215 547.777 225.863 546.142 202.999ZM589.582 116.316L605.98 156.295C606.519 157.608 606.515 159.08 605.968 160.389C605.421 161.698 604.377 162.736 603.065 163.275L533.634 191.75C532.611 192.169 531.484 192.26 530.408 192.012C529.331 191.764 528.358 191.188 527.622 190.364C527.215 189.912 526.889 189.393 526.659 188.829L510.269 148.867C510.002 148.219 509.865 147.523 509.867 146.822C509.868 146.12 510.008 145.425 510.278 144.778C510.548 144.13 510.944 143.542 511.441 143.047C511.939 142.552 512.529 142.16 513.178 141.893L582.61 113.413C583.92 112.877 585.389 112.881 586.696 113.425C588.002 113.969 589.04 115.009 589.582 116.316Z" fill="#E1E4E5"/>
<path d="M604.958 159.254L560.982 154.412L529.482 190.235C530.024 190.572 530.638 190.775 531.273 190.828C531.909 190.881 532.548 190.782 533.138 190.54L602.562 162.06L604.958 159.254ZM604.958 159.254C604.81 159.878 604.516 160.459 604.1 160.947C603.683 161.435 603.156 161.816 602.563 162.06L604.958 159.254Z" fill="#E1E4E5" stroke="white" stroke-width="2.619"/>
<path d="M511.48 148.371V148.37C511.278 147.88 511.175 147.355 511.176 146.826C511.177 146.296 511.283 145.772 511.487 145.283C511.691 144.794 511.989 144.351 512.364 143.977C512.74 143.604 513.185 143.308 513.675 143.107L583.106 114.626H583.107C583.993 114.263 584.979 114.226 585.889 114.523C586.799 114.819 587.575 115.429 588.077 116.244L561.268 158.305L512.046 149.749L511.48 148.371Z" fill="#E1E4E5" stroke="white" stroke-width="2.619"/>
</g>
<defs>
<linearGradient id="paint0_linear_1235_18655" x1="462.442" y1="711.397" x2="455.822" y2="-244.79" gradientUnits="userSpaceOnUse">
<stop stop-color="white"/>
<stop offset="1" stop-color="#EEEEEE"/>
</linearGradient>
<clipPath id="clip0_1235_18655">
<rect width="900" height="600" fill="white"/>
</clipPath>
</defs>
</svg>
