<svg width="900" height="600" viewBox="0 0 900 600" fill="none" xmlns="http://www.w3.org/2000/svg">
<g clip-path="url(#clip0_1235_27211)">
<path d="M544.807 248.402C542.078 253.272 536.102 253.941 526.528 253.015C519.327 252.318 512.761 251.779 505.56 247.853C500.52 245.106 496.53 241.391 493.618 237.783C490.463 233.874 486.058 229.412 488.217 224.98C491.185 218.891 508.344 213.763 525.006 222.149C543.309 231.364 547.476 243.642 544.807 248.402Z" fill="url(#paint0_linear_1235_27211)"/>
<path d="M626.094 263.978C612.155 270.893 593.653 262.002 593.653 262.002C593.653 262.002 597.765 241.903 611.712 234.998C625.652 228.083 644.146 236.965 644.146 236.965C644.146 236.965 640.034 257.063 626.094 263.978Z" fill="url(#paint1_linear_1235_27211)"/>
<path d="M264.204 228.597C275.259 235.223 291.12 229.098 291.12 229.098C291.12 229.098 289.046 212.232 277.984 205.614C266.929 198.988 251.075 205.106 251.075 205.106C251.075 205.106 253.148 221.971 264.204 228.597Z" fill="url(#paint2_linear_1235_27211)"/>
<path d="M715.17 174.307C708.942 174.307 703.894 179.356 703.894 185.583C703.894 191.811 708.942 196.859 715.17 196.859C721.398 196.859 726.446 191.811 726.446 185.583C726.446 179.356 721.398 174.307 715.17 174.307Z" fill="#4F27AA"/>
<path d="M252.815 289.212C245.809 289.212 240.13 294.891 240.13 301.897C240.13 308.903 245.809 314.582 252.815 314.582C259.821 314.582 265.5 308.903 265.5 301.897C265.5 294.891 259.821 289.212 252.815 289.212Z" fill="#4F27AA"/>
<path d="M585.365 207.929C582.641 207.929 580.432 205.72 580.432 202.996C580.432 200.271 582.641 198.062 585.365 198.062C588.089 198.062 590.298 200.271 590.298 202.996C590.298 205.72 588.089 207.929 585.365 207.929Z" fill="#4F27AA"/>
<path d="M533.82 413.885C530.317 413.885 527.477 411.045 527.477 407.542C527.477 404.039 530.317 401.199 533.82 401.199C537.323 401.199 540.163 404.039 540.163 407.542C540.163 411.045 537.323 413.885 533.82 413.885Z" fill="#E1E4E5"/>
<path d="M207.381 349.724C202.322 349.724 198.22 345.623 198.22 340.563C198.22 335.504 202.322 331.402 207.381 331.402C212.44 331.402 216.542 335.504 216.542 340.563C216.542 345.623 212.44 349.724 207.381 349.724Z" fill="#E1E4E5"/>
<path d="M276.412 130.637C272.561 130.637 269.439 127.515 269.439 123.664C269.439 119.813 272.561 116.691 276.412 116.691C280.263 116.691 283.385 119.813 283.385 123.664C283.385 127.515 280.263 130.637 276.412 130.637Z" fill="#E1E4E5"/>
<path d="M614.227 177.973C609.946 177.973 606.475 174.502 606.475 170.221C606.475 165.939 609.946 162.469 614.227 162.469C618.508 162.469 621.979 165.939 621.979 170.221C621.979 174.502 618.508 177.973 614.227 177.973Z" fill="#E1E4E5"/>
<path d="M213.711 181.347C214.706 185.061 212.503 188.878 208.789 189.873C205.076 190.868 201.259 188.664 200.264 184.95C199.269 181.237 201.473 177.42 205.186 176.425C208.899 175.43 212.716 177.634 213.711 181.347Z" fill="#E1E4E5"/>
<path d="M368.224 74.4322C363.109 74.4322 358.963 70.2859 358.963 65.1712C358.963 60.0564 363.109 55.9102 368.224 55.9102C373.339 55.9102 377.485 60.0564 377.485 65.1712C377.485 70.2859 373.339 74.4322 368.224 74.4322Z" fill="#E1E4E5"/>
<path d="M630.123 309.16C626.189 309.16 622.999 306.608 622.999 303.461C622.999 300.313 626.189 297.762 630.123 297.762C634.058 297.762 637.247 300.313 637.247 303.461C637.247 306.608 634.058 309.16 630.123 309.16Z" fill="#E1E4E5"/>
<path d="M543.182 60.9948C545.253 68.7236 540.666 76.668 532.937 78.7389C525.208 80.8098 517.264 76.2232 515.193 68.4943C513.122 60.7655 517.709 52.8212 525.438 50.7502C533.167 48.6793 541.111 53.2659 543.182 60.9948Z" fill="#E1E4E5"/>
<path d="M634.68 357.148H634.866C635.97 372.784 647.598 373.024 647.598 373.024C647.598 373.024 634.775 373.275 634.775 391.341C634.775 373.275 621.953 373.024 621.953 373.024C621.953 373.024 633.576 372.784 634.68 357.148ZM310.455 391.65H310.62C311.6 405.801 321.917 406.019 321.917 406.019C321.917 406.019 310.54 406.245 310.54 422.597C310.54 406.245 299.162 406.019 299.162 406.019C299.162 406.019 309.476 405.801 310.455 391.65Z" fill="#E1E4E5"/>
<path d="M349.718 246.133C427.186 241.748 508.406 264.59 496.468 297.703C484.528 330.816 560.297 285.942 590.532 297.881C612.059 306.38 603.454 332.254 613.868 342.68C637.745 366.584 662.167 336.483 692.557 354.544C722.946 372.606 660.727 541.175 628.979 542.117L266.87 539.97L240.883 537.692C240.883 537.692 169.003 499.347 220.422 463.974C255.19 440.057 230.174 422.688 226.392 411.739C222.051 399.166 211.921 377.209 256.059 361.096C300.197 344.984 288.802 309.922 287.715 302.663C286.631 295.401 272.252 250.519 349.718 246.133Z" fill="url(#paint3_linear_1235_27211)"/>
<path d="M481.585 379.004H414.687C412.478 379.004 410.687 380.795 410.687 383.004V446.536C410.687 448.745 412.478 450.536 414.687 450.536H481.585C483.794 450.536 485.585 448.745 485.585 446.536V383.004C485.585 380.795 483.794 379.004 481.585 379.004Z" fill="white" stroke="#E1E4E5" stroke-width="7"/>
<path d="M429.636 390.669H486.314M451.215 261.188V379.004" stroke="#E1E4E5" stroke-width="7"/>
<path d="M487.514 331.409C463.315 328.023 453.195 346.028 450.753 357.628C450.354 359.521 451.596 361.321 453.483 361.749C482 368.216 489.974 348.472 490.595 335.068C490.68 333.232 489.335 331.663 487.514 331.409Z" fill="white" stroke="#E1E4E5" stroke-width="7"/>
<path d="M450.003 358.403L476.933 340.73" stroke="#E1E4E5" stroke-width="7"/>
<path d="M475.733 296.333C459.882 294.574 452.851 306.012 450.823 314.068C450.351 315.944 451.606 317.762 453.503 318.145C472.294 321.943 478.026 309.241 478.767 299.952C478.913 298.119 477.56 296.536 475.733 296.333Z" fill="white" stroke="#E1E4E5" stroke-width="7"/>
<path d="M449.512 314.717L468.588 302.199" stroke="#E1E4E5" stroke-width="7"/>
<path d="M468.161 264.62C457.033 263.737 451.803 271.529 450.051 277.492C449.506 279.348 450.748 281.179 452.653 281.513C465.941 283.844 470.351 275.078 471.141 268.191C471.351 266.364 469.995 264.765 468.161 264.62Z" fill="white" stroke="#E1E4E5" stroke-width="7"/>
<path d="M448.389 278.061L462.976 268.488" stroke="#E1E4E5" stroke-width="7"/>
<path d="M412.966 331.409C437.166 328.023 447.285 346.028 449.728 357.628C450.126 359.521 448.884 361.321 446.997 361.749C418.481 368.216 410.506 348.472 409.886 335.068C409.801 333.232 411.145 331.663 412.966 331.409Z" fill="white" stroke="#E1E4E5" stroke-width="7"/>
<path d="M450.477 358.403L423.547 340.73" stroke="#E1E4E5" stroke-width="7"/>
<path d="M424.748 296.333C440.599 294.574 447.629 306.012 449.657 314.068C450.13 315.944 448.874 317.762 446.978 318.145C428.186 321.943 422.454 309.241 421.713 299.952C421.567 298.119 422.92 296.536 424.748 296.333Z" fill="white" stroke="#E1E4E5" stroke-width="7"/>
<path d="M450.968 314.717L431.893 302.199" stroke="#E1E4E5" stroke-width="7"/>
<path d="M430.635 264.62C441.763 263.737 446.993 271.529 448.745 277.492C449.29 279.348 448.048 281.179 446.143 281.513C432.855 283.844 428.445 275.078 427.655 268.191C427.445 266.364 428.801 264.765 430.635 264.62Z" fill="white" stroke="#E1E4E5" stroke-width="7"/>
<path d="M450.407 278.061L435.82 268.488M124.223 401.786L122.576 373.788C121.822 360.958 129.765 349.143 142.403 346.802C180.979 339.657 236.68 339.576 272.151 346.559C284.156 348.923 291.365 360.28 290.646 372.494L288.923 401.786M149.722 458.637C149.722 442.938 162.449 430.211 178.148 430.211H234.998C250.697 430.211 263.424 442.938 263.424 458.637V472.849H149.722V458.637V458.637Z" stroke="#E1E4E5" stroke-width="7"/>
<path d="M149.722 515.484V536.803M263.424 515.484V536.803M263.424 515.484H149.722M366.407 515.484V536.803M534.593 515.484V536.803M612.077 401.783L610.43 373.785C609.676 360.955 617.619 349.14 630.257 346.799C668.833 339.654 724.534 339.573 760.005 346.556C772.01 348.92 779.219 360.277 778.5 372.491L776.777 401.783M637.576 515.484V536.803M751.278 515.484V536.803M751.278 515.484H637.576M108.028 416.882C107.517 408.7 114.015 401.783 122.213 401.783H135.51C143.359 401.783 149.723 408.146 149.723 415.995V515.484H127.543C120.038 515.484 113.826 509.649 113.358 502.158L108.028 416.882V416.882ZM305.118 416.882C305.63 408.7 299.131 401.783 290.933 401.783H277.637C269.787 401.783 263.424 408.146 263.424 415.995V515.484H285.603C293.109 515.484 299.32 509.649 299.788 502.158L305.118 416.882V416.882ZM349.699 493.972C349.699 470.597 372.264 451.647 400.1 451.647H500.9C528.736 451.647 551.301 470.597 551.301 493.972V515.135H349.699V493.972V493.972ZM637.576 458.634C637.576 442.935 650.302 430.208 666.001 430.208H722.852C738.551 430.208 751.278 442.935 751.278 458.634V472.846H637.576V458.634V458.634ZM595.882 416.882C595.371 408.7 601.869 401.783 610.067 401.783H623.364C631.213 401.783 637.576 408.146 637.576 415.995V515.484H615.397C607.892 515.484 601.68 509.649 601.212 502.158L595.882 416.882V416.882ZM792.972 416.882C793.483 408.7 786.985 401.783 778.787 401.783H765.49C757.641 401.783 751.278 408.146 751.278 415.995V515.484H773.457C780.962 515.484 787.174 509.649 787.642 502.158L792.972 416.882V416.882Z" stroke="#E1E4E5" stroke-width="7"/>
<path d="M499.421 150.023H231.179C228.97 150.023 227.179 151.814 227.179 154.023V170.175C227.179 172.385 228.97 174.175 231.179 174.175H499.421C501.63 174.175 503.421 172.385 503.421 170.175V154.023C503.421 151.814 501.63 150.023 499.421 150.023Z" fill="white" stroke="#E1E4E5" stroke-width="7"/>
<path d="M291.107 125.871H267.407C265.198 125.871 263.407 127.662 263.407 129.871V146.023C263.407 148.232 265.198 150.023 267.407 150.023H291.107C293.316 150.023 295.107 148.232 295.107 146.023V129.871C295.107 127.662 293.316 125.871 291.107 125.871Z" fill="white" stroke="#E1E4E5" stroke-width="7"/>
<path d="M291.107 79.0742H267.407C265.198 79.0742 263.407 80.8651 263.407 83.0742V121.869C263.407 124.078 265.198 125.869 267.407 125.869H291.107C293.316 125.869 295.107 124.078 295.107 121.869V83.0742C295.107 80.8651 293.316 79.0742 291.107 79.0742Z" fill="white" stroke="#E1E4E5" stroke-width="7"/>
<path d="M319.788 80.5859H299.107C296.898 80.5859 295.107 82.3768 295.107 84.5859V143.005C295.107 145.214 296.898 147.005 299.107 147.005H319.788C321.997 147.005 323.788 145.214 323.788 143.005V84.5859C323.788 82.3768 321.997 80.5859 319.788 80.5859Z" fill="white" stroke="#E1E4E5" stroke-width="7"/>
<path d="M348.469 80.5859H327.788C325.579 80.5859 323.788 82.3768 323.788 84.5859V143.005C323.788 145.214 325.579 147.005 327.788 147.005H348.469C350.678 147.005 352.469 145.214 352.469 143.005V84.5859C352.469 82.3768 350.678 80.5859 348.469 80.5859Z" fill="white" stroke="#E1E4E5" stroke-width="7"/>
<path d="M470.211 146.024V135.91C470.211 133.701 468.42 131.91 466.211 131.91H383.64C381.431 131.91 379.64 133.701 379.64 135.91V146.024C379.64 148.233 381.431 150.024 383.64 150.024H466.211C468.42 150.024 470.211 148.233 470.211 146.024Z" fill="white" stroke="#E1E4E5" stroke-width="7"/>
<path d="M471.721 126.4V119.305C471.721 117.096 469.93 115.305 467.721 115.305H397.226C395.017 115.305 393.226 117.096 393.226 119.305V126.4C393.226 128.609 395.017 130.4 397.226 130.4H467.721C469.93 130.4 471.721 128.609 471.721 126.4Z" fill="white" stroke="#E1E4E5" stroke-width="7"/>
<path d="M291.107 51.9062H267.407C265.198 51.9062 263.407 53.6971 263.407 55.9062V75.0772C263.407 77.2864 265.198 79.0772 267.407 79.0772H291.107C293.316 79.0772 295.107 77.2864 295.107 75.0772V55.9062C295.107 53.6971 293.316 51.9062 291.107 51.9062Z" fill="white" stroke="#E1E4E5" stroke-width="7"/>
<path d="M617.204 185.024C647.858 185.024 672.708 160.174 672.708 129.52C672.708 98.8656 647.858 74.0156 617.204 74.0156C586.55 74.0156 561.7 98.8656 561.7 129.52C561.7 160.174 586.55 185.024 617.204 185.024Z" fill="white" stroke="#E1E4E5" stroke-width="7"/>
<path d="M616.346 133.486V101.77M639.603 160.811L615.816 131.738" stroke="#E1E4E5" stroke-width="7"/>
<path fill-rule="evenodd" clip-rule="evenodd" d="M642.289 514.896C642.289 514.896 648.191 526.817 643.352 530.574C638.507 534.331 625.707 541.372 625.707 541.372L659.618 539.241L652.08 513.242L642.289 514.896Z" fill="#F8AE9D"/>
<path fill-rule="evenodd" clip-rule="evenodd" d="M656.259 525.686C655.192 526.195 656.947 530.985 653.192 530.648C649.439 530.312 647.082 525.361 644.314 525.683C641.545 526.004 639.787 530.989 634.517 534.462C629.247 537.936 621.433 542.078 621.957 545.569C622.48 549.061 634.776 549.996 641.006 548.84C647.235 547.685 650.143 545.181 654.185 545.381C658.226 545.58 660.766 545.086 662.033 542.49C663.299 539.895 657.491 525.098 656.259 525.686ZM693.373 409.831C683.106 410.289 625.967 422.927 615.586 425.074C605.204 427.221 596.428 438.84 604.344 452.293C613.235 467.395 636.176 510.284 641.746 519.952C644.503 524.737 658.411 522.054 655.144 514.022C649.054 499.049 646.225 461.436 630.699 447.722C630.699 447.722 682.915 456.809 705.47 446.4C721.863 438.833 718.155 408.723 693.373 409.831Z" fill="#2E2445"/>
<path fill-rule="evenodd" clip-rule="evenodd" d="M621.754 345.745C621.754 345.745 621.87 339.642 618.948 335.277C616.026 330.911 615.91 326.274 613.699 326.426C611.487 326.578 613.677 337.356 613.677 337.356C613.677 337.356 610.871 336.283 608.855 334.927C606.84 333.571 600.728 326.888 599.299 328.072C596.877 330.091 600.778 341.475 602.903 343.751C605.034 346.028 615.554 352.39 615.554 352.39L646.533 383.6L651.166 367.032L621.754 345.745Z" fill="#F8AE9D"/>
<path fill-rule="evenodd" clip-rule="evenodd" d="M683.72 342.993C678.945 354.07 670.2 374.418 666.595 380.489C662.078 388.091 654.954 391.441 646.613 385.8C644.868 384.62 639.856 380.492 639.856 380.492C640.598 373.266 643.298 367.227 647.951 362.371L651.111 364.986C651.111 364.986 660.074 342.011 667.283 328.702C673.527 317.187 690.99 326.154 683.72 342.993ZM704.36 299.998V309.799L711.558 304.004C711.558 304.004 713.77 294.613 715.569 287.639C716.698 283.265 719.447 268.463 708.38 269.157C699.314 253.176 672.912 263.067 672.702 282.591C672.449 306.073 672.655 315.215 672.655 315.215C687.585 316.072 695.989 313.914 704.36 299.998Z" fill="#2E2445"/>
<path fill-rule="evenodd" clip-rule="evenodd" d="M711.713 318.658C711.713 318.658 705.017 317.086 704.785 306.115C704.553 295.144 704.716 291.4 704.716 291.4L689.968 291.133C689.968 291.133 689.807 303.36 689.805 307.783C689.798 318.536 681.891 319.417 681.891 319.417C681.891 319.417 683.242 328.289 696.606 329.041C707.04 329.628 711.713 318.658 711.713 318.658Z" fill="#F8AE9D"/>
<path fill-rule="evenodd" clip-rule="evenodd" d="M708.154 285.92C714.733 285.666 713.66 295.297 706.826 295.284C706.826 295.284 702.856 308.966 689.074 308.966C677.882 308.966 677.154 293.019 677.052 289.838C676.943 286.446 676.929 275.303 676.929 275.303L708.41 275.289L708.154 285.92Z" fill="#F8AE9D"/>
<path fill-rule="evenodd" clip-rule="evenodd" d="M708.663 285.858C705.937 286.308 706.267 288.113 705.526 287.955C701.761 287.155 686.523 288.21 684.56 279.831C682.119 285.066 681.522 286.353 676.146 287.758V272.417L710.149 269.156C710.149 269.156 709.621 285.699 708.663 285.858Z" fill="#2E2445"/>
<path fill-rule="evenodd" clip-rule="evenodd" d="M710.217 317.535C701.814 322.681 692.1 324.568 683.058 318.979C668.301 348.077 664.624 382.794 668.173 421.165C689.691 429.684 707.777 428.009 723.174 418.272L710.217 317.535Z" fill="#4F27AA"/>
<path fill-rule="evenodd" clip-rule="evenodd" d="M605.505 515.375C605.505 515.375 605.683 529.406 594.121 534.652C582.567 539.897 574.335 539.581 575.383 543.637C576.431 547.692 606.505 547.528 609.314 544.357C611.707 541.659 616.913 516.536 618.346 518.457L605.505 515.375Z" fill="#F8AE9D"/>
<path fill-rule="evenodd" clip-rule="evenodd" d="M614.859 530.029C612.931 529.006 612.45 536.492 607.405 535.118C602.359 533.744 605.205 526.535 602.035 525.71C598.866 524.885 593.978 532.316 586.502 534.981C579.026 537.645 572.97 539.911 571.604 543.149C570.426 545.933 572.068 546.547 572.068 546.547C572.068 546.547 579.983 549.235 584.698 549.42C591.547 549.689 610.985 547.836 612.808 545.39C613.928 543.889 615.823 530.542 614.859 530.029ZM725.539 405.492C725.539 405.492 740.464 437.012 719.489 447.836C699.205 458.303 638.48 445.923 638.48 445.923C638.48 445.923 639.565 454.66 638.48 462.451C635.646 482.801 622.167 516.706 619.316 520.966C615.372 526.857 603.359 522.414 603.133 517.509C602.907 512.603 612.189 449.953 613.6 438.006C615.005 426.058 619.438 424.322 632.387 421.056C635.362 420.306 670.541 411.564 673.763 411.818C701.454 414.008 725.539 405.492 725.539 405.492Z" fill="#2E2445"/>
<path fill-rule="evenodd" clip-rule="evenodd" d="M709.85 317.557C695.934 363.143 687.589 427.771 731.05 416.527C707.963 374.02 739.349 354.888 732.235 332.92C729.803 325.409 710.032 316.968 709.85 317.557ZM683.795 318.658C678.485 331.977 675.932 342.428 673.55 361.979C671.564 378.262 672.558 411.863 672.558 411.863L665.996 413.153C665.996 413.153 661.304 361.241 662.873 354.557C665.505 343.341 667.288 336.788 670.764 326.535C672.679 320.907 683.795 318.658 683.795 318.658Z" fill="#2E2445"/>
<path fill-rule="evenodd" clip-rule="evenodd" d="M706.928 369.31C706.928 369.31 698.359 360.731 695.392 359.735C692.425 358.739 676.17 357.543 676.28 359.793C676.405 362.203 686.864 362.065 687.831 363.251C688.799 364.436 690.144 373.665 693.8 374.575C697.449 375.485 705.012 378.179 705.012 378.179L738.681 395.575L735.094 378.18L706.928 369.31Z" fill="#F8AE9D"/>
<path fill-rule="evenodd" clip-rule="evenodd" d="M732.716 332.982C742.929 347.396 751.648 369.351 754.995 377.911C758.342 386.471 754.966 399.382 740.249 396.847C738.496 396.546 735.646 395.436 735.646 395.436C730.235 388.018 729.285 381.65 731.305 375.979L733.208 376.783C733.208 376.783 718.581 350.855 715.009 343.905C709.043 332.297 723.72 320.283 732.716 332.982Z" fill="#2E2445"/>
<path d="M317.403 467.356C324.463 464.971 330.582 459.89 334.155 453.374C335.164 451.577 335.988 449.513 335.717 447.469C335.648 447.053 335.542 446.56 335.167 446.366C334.83 446.172 334.376 446.278 333.996 446.386C322.204 449.567 309.737 454.929 297.36 454.363C296.793 454.355 296.228 454.308 295.733 454.528C295.125 454.783 294.739 455.343 294.466 455.943C293.53 457.893 292.719 461.581 293.025 463.776C293.401 466.387 295.925 466.765 298.145 467.328C304.464 468.934 311.102 469.488 317.403 467.356Z" fill="#F8AE9D"/>
<path d="M318.492 452.719C319.442 452.318 320.43 451.917 321.45 451.895C322.47 451.873 323.594 452.419 323.919 453.405C324.135 454.088 323.936 454.803 323.662 455.441C322.919 457.091 321.615 458.43 320.237 459.618C314.959 464.069 308.196 466.761 301.279 467.184C298.218 467.364 295.012 467.089 292.315 465.651C293.662 464.01 293.395 461.665 293.54 459.59C293.972 453.517 299.148 455.823 303.302 455.811C308.515 455.701 313.704 454.685 318.492 452.719Z" fill="#F8AE9D"/>
<path d="M160.499 407.798C160.42 408.023 160.341 408.249 160.262 408.474C158.603 413.282 157.319 418.247 156.789 423.337C155.816 432.687 157.651 443.628 164.685 450.419C174.063 459.473 189.109 460.872 201.339 458.717C206.345 457.841 211.058 455.747 215.063 452.619C219.049 456.229 223.332 460.183 226.896 464.203C234.055 461.699 240.869 458.3 247.176 454.088C262.102 460.923 277.325 465.535 293.399 468.876C295.236 464.306 296.525 459.534 297.24 454.66C297.365 453.869 287.348 447.109 286.192 446.147C282.724 443.224 275.5 436.544 275.5 436.544C275.5 436.544 284.605 428.79 288.588 425.15C292.801 421.366 296.843 417.396 300.701 413.25C303.887 409.825 307.001 406.209 308.954 401.934C310.906 397.696 311.624 392.685 309.992 388.28C304.838 374.57 284.034 379.389 274.37 384.114C266.381 388.033 259.384 393.742 252.65 399.53C249.934 401.83 247.254 404.206 244.613 406.545C242.531 404.399 240.232 401.607 238.265 399.35C236.15 396.901 233.731 394.598 230.807 393.157C227.734 391.599 224.899 391.821 221.621 391.356C220.151 391.144 218.723 390.707 217.292 390.459C212.999 389.676 208.455 390.514 204.683 392.722C201.101 394.82 198.193 397.306 193.99 398.111C189.218 399.02 183.675 398.483 178.889 397.843C174.593 397.249 170.228 396.277 165.948 397.118C164.168 397.469 163.488 399.951 162.9 401.377C162.113 403.442 161.288 405.582 160.499 407.798ZM198.418 249.658C198.418 249.658 186.864 247.821 183.761 268.218C180.314 290.893 171.108 287.163 156.488 305.576C147.944 316.335 156.936 335.335 175.208 334.958C193.48 334.591 209.982 329.308 220.492 331.568C231.003 333.828 231.58 306.908 221.21 298.602C210.839 290.296 232.95 266.445 219.477 255.823C206.003 245.202 198.418 249.658 198.418 249.658Z" fill="#2E2445"/>
<path d="M129.354 339.603C128.3 337.437 128.364 334.922 128.744 332.574C130.391 322.499 137.452 314.079 145.546 307.909C153.666 301.723 162.96 297.307 171.503 291.764C173.72 290.32 175.943 288.766 178.488 287.986C181.034 287.205 183.992 287.289 186.094 288.931C187.578 290.083 188.436 291.864 188.935 293.645C190.029 297.545 189.61 301.675 188.943 305.632C188.108 310.622 186.884 315.56 184.873 320.147C183.261 323.847 180.637 327.654 176.694 328.379C175.553 332.8 173.203 336.945 169.908 340.115C166.139 343.751 161.361 346.128 156.402 347.788C151.833 349.321 146.835 350.322 142.239 348.891C139.511 348.058 137.109 346.454 134.759 344.818C132.662 343.425 130.487 341.9 129.354 339.603ZM170.649 332.884L173.346 328.602C172.775 328.652 172.213 328.784 171.68 328.995C170.199 329.636 169.307 331.969 170.649 332.884Z" fill="#2E2445"/>
<path d="M220.631 267.599C220.771 268.356 220.796 269.15 220.745 270.055C220.439 275.343 219.302 280.551 217.376 285.486C216.199 288.414 214.758 291.299 212.72 293.723C211.874 294.73 210.915 295.659 209.664 296.018C208.374 296.376 206.75 296.427 205.471 296.105C204.343 300.771 204.813 309.576 208.841 312.885C210.072 313.885 211.535 314.512 213 315.063C215.853 316.163 218.823 317.001 221.797 317.651C225.184 318.382 228.876 318.929 231.255 321.42C231.553 321.726 231.848 322.146 231.729 322.56C231.649 322.823 231.458 323.009 231.229 323.156C229.356 324.676 227.039 325.509 224.724 326.305C220.662 327.678 216.491 328.823 212.25 329.59C207.82 330.391 203.245 330.774 198.759 330.291C195.291 329.898 191.868 329.016 188.719 327.457C185.421 325.821 182.043 324.486 178.63 322.924C175.743 321.596 172.896 320.08 169.77 319.542C171.248 316.732 174.33 315.155 177.4 314.409C180.47 313.7 183.68 313.636 186.786 313.041C187.809 312.83 188.832 312.581 189.71 311.952C192.116 310.214 191.457 306.352 191.495 303.823L191.617 295.819C191.259 292 189.684 288.804 188.302 285.309C186.193 279.952 185.757 273.866 187.615 268.381C189.473 262.934 193.699 258.202 199.128 256.283C204.557 254.365 211.073 255.445 215.242 259.436C217.884 262.006 220.039 264.305 220.631 267.599Z" fill="#F8AE9D"/>
<path d="M203.935 250.578C209.346 249.974 214.277 252.624 217.933 256.731C221.008 260.174 222.816 264.719 222.725 269.286C222.712 269.938 222.638 270.649 222.271 271.235C221.293 272.639 219.168 272.122 217.578 271.497C214.988 270.496 213.059 269.034 210.711 267.8C208.362 266.567 205.511 266.747 203.409 265.044C201.425 263.402 194.611 259.944 194.428 257.27C194.196 254.002 200.182 251.334 202.685 250.79C203.043 250.679 203.46 250.628 203.935 250.578Z" fill="#2E2445"/>
<path d="M188.347 257.975C183.771 260.926 181.624 266.095 181.386 271.589C181.177 276.201 182.648 280.866 185.604 284.348C186.027 284.845 186.532 285.349 187.188 285.571C188.833 286.042 190.153 284.298 190.99 282.809C192.366 280.397 192.936 278.045 193.977 275.605C195.018 273.165 197.342 271.503 197.895 268.854C198.396 266.328 201.491 259.343 199.945 257.154C198.059 254.475 191.733 256.189 189.45 257.35C189.102 257.489 188.747 257.713 188.347 257.975Z" fill="#2E2445"/>
<path d="M229.045 320.253C229.768 319.924 230.633 320.164 231.114 320.813C236.512 328.372 238.596 337.844 240.421 346.972C242.491 357.351 244.335 367.763 246.102 378.174C246.207 378.705 246.274 379.272 246.04 379.76C245.806 380.247 245.274 380.503 244.78 380.722C241.66 382.223 238.504 383.686 235.385 385.186C232.019 377.527 229.592 369.49 228.158 361.249C226.155 366.316 222.539 370.717 217.926 373.593C221.363 378.516 225.594 388.361 229.72 392.69C230.351 393.38 234.257 392.306 235.13 392.017C235.673 393.574 233.13 391.912 233.144 393.498C230.797 393.84 227.798 392.435 225.386 392.134C222.477 391.794 219.539 391.774 216.626 392.076C211.784 392.607 207.079 394.121 202.777 396.397C200.639 397.535 198.587 398.829 196.639 400.269C194.958 401.527 190.797 404.485 190.797 404.485C190.491 404.707 189.061 404.383 188.723 404.302C187.736 404.134 186.743 404.006 185.746 403.917C183.243 403.722 180.752 403.395 178.284 402.936C173.351 402.03 168.5 400.635 163.847 398.713C163.399 398.367 164.998 395.068 165.083 394.427C164.998 395.03 155.833 394.287 154.93 394.122C151.316 393.388 147.659 392.992 144.045 392.22C145.664 377.668 150.106 363.613 154.472 349.67C156.179 344.182 157.924 338.696 160.344 333.521C162.92 328.009 166.246 322.849 170.243 318.265C170.358 318.153 170.548 318.081 170.698 318.121C172.616 318.603 184.315 321.613 190.135 323.778C193.101 324.918 196.106 325.946 199.149 326.974C200.351 327.37 201.592 327.766 202.838 327.747C203.669 327.722 204.503 327.546 205.298 327.369C213.407 325.567 221.517 323.613 229.045 320.253Z" fill="#4F27AA"/>
<path d="M176.269 349.242C175.935 351.314 175.488 353.422 175.041 355.492C173.954 360.19 172.559 364.811 170.866 369.325C170.001 371.577 169.099 373.792 168.084 376.004C167.576 377.092 167.069 378.179 166.523 379.266C166.251 379.79 165.978 380.353 165.706 380.877C165.473 381.327 165.202 381.738 164.969 382.15C166.594 382.099 174.611 382.562 176.271 382.7" stroke="white" stroke-width="1.376" stroke-miterlimit="10" stroke-linecap="round"/>
<path d="M176.53 384.327C176.361 385.388 176.156 386.443 175.915 387.49L175.187 390.65C174.947 391.553 174.401 392.678 174.387 393.621C174.39 393.433 180.818 392.888 181.423 392.822C188.117 392.169 194.844 391.78 201.534 391.353C205.881 391.079 210.147 391.181 214.489 391.21C215.772 391.229 217.285 391.101 217.98 390.054C218.561 389.157 218.087 388.017 218.553 387.193C218.853 387.273 222.352 388.157 222.315 388.081C222.454 388.876 222.731 390.542 223.556 390.932C223.856 391.05 224.158 391.092 224.46 391.097C224.913 391.104 225.367 391.035 225.821 390.966C225.891 390.967 225.959 390.941 226.011 390.894C226.088 390.819 226.014 390.705 225.94 390.591C224.911 389.069 224.371 387.269 224.395 385.432C223.311 384.698 222.228 383.85 221.298 382.93C220.555 382.163 220.003 381.173 219.183 380.519C218.325 379.788 217.488 380.229 216.54 380.479C215.443 380.724 214.355 381.01 213.279 381.335C211.193 381.984 209.104 382.783 207.347 384.078C206.736 384.521 206.162 385.004 205.441 385.219C204.758 385.435 204.003 385.424 203.286 385.413C198.87 385.308 194.455 385.09 190.082 384.608C185.595 384.125 182.536 384.192 176.658 383.309C176.658 383.347 176.653 383.687 176.53 384.327Z" fill="#F8AE9D"/>
<path d="M225.168 348.824C226.218 353.399 226.997 358.032 227.5 362.699" stroke="white" stroke-width="1.376" stroke-miterlimit="10" stroke-linecap="round"/>
<path d="M314.217 341.295L301.255 399.1L202.833 397.605C202.885 394.207 205.683 391.455 209.119 391.508L232.639 391.865L244.36 338.686C244.541 337.85 245.005 337.102 245.674 336.569C246.342 336.035 247.175 335.749 248.03 335.758L310.624 336.709C313.002 336.783 314.744 338.962 314.217 341.295Z" fill="#2E2445"/>
<path d="M185.645 482.533C186.101 479.897 187.388 477.197 188.594 474.837C193.575 465.17 202.477 458.357 212.064 453.669C213.053 453.193 214.042 452.717 215.067 452.355C214.99 452.467 214.912 452.58 214.835 452.729L214.834 452.767H214.796C214.911 452.693 214.987 452.618 215.102 452.545C218.976 456.04 223.109 459.879 226.638 463.746C224.306 465.637 220.921 467.171 219.241 468.43C215.269 471.353 211.446 474.466 207.326 477.198C201.794 480.928 195.9 483.633 189.311 484.817C186.774 485.269 185.445 485.74 185.475 483.777C185.518 483.475 185.562 483.061 185.645 482.533Z" fill="#F8AE9D"/>
<path d="M192.07 474.93C194.635 470.098 198.618 466.42 202.973 463.163C206.029 460.868 209.27 458.803 212.36 456.697C213.238 456.106 214.961 454.509 216.446 453.738C219.537 456.542 222.702 459.497 225.563 462.562C216.111 468.309 207.69 475.809 197.319 479.881C196.369 480.244 195.382 480.607 194.362 480.629C193.342 480.651 192.254 480.219 191.662 479.38C190.738 478.082 191.331 476.316 192.07 474.93Z" fill="#F8AE9D"/>
</g>
<defs>
<linearGradient id="paint0_linear_1235_27211" x1="526.424" y1="279.963" x2="502.103" y2="170.673" gradientUnits="userSpaceOnUse">
<stop stop-color="white"/>
<stop offset="1" stop-color="#EEEEEE"/>
</linearGradient>
<linearGradient id="paint1_linear_1235_27211" x1="572.565" y1="285.547" x2="687.539" y2="194.602" gradientUnits="userSpaceOnUse">
<stop stop-color="white"/>
<stop offset="1" stop-color="#EEEEEE"/>
</linearGradient>
<linearGradient id="paint2_linear_1235_27211" x1="306.985" y1="249.925" x2="218.03" y2="167.275" gradientUnits="userSpaceOnUse">
<stop stop-color="white"/>
<stop offset="1" stop-color="#EEEEEE"/>
</linearGradient>
<linearGradient id="paint3_linear_1235_27211" x1="461.927" y1="708.364" x2="456.491" y2="-77.0414" gradientUnits="userSpaceOnUse">
<stop stop-color="white"/>
<stop offset="1" stop-color="#EEEEEE"/>
</linearGradient>
<clipPath id="clip0_1235_27211">
<rect width="900" height="600" fill="white"/>
</clipPath>
</defs>
</svg>
