<svg width="900" height="600" viewBox="0 0 900 600" fill="none" xmlns="http://www.w3.org/2000/svg">
<g clip-path="url(#clip0_1235_27281)">
<path d="M170.219 151.987H141.357C136.046 151.987 131.736 147.677 131.736 142.366V113.504C131.736 108.193 136.046 103.883 141.357 103.883H170.219C175.53 103.883 179.84 108.193 179.84 113.504V142.366C179.84 147.677 175.53 151.987 170.219 151.987Z" stroke="#E1E4E5" stroke-width="14.431" stroke-linecap="round" stroke-linejoin="round"/>
<path d="M218.323 103.883H285.669M218.323 151.987H285.669M131.736 200.091H285.669M131.736 248.195H285.669" stroke="#E1E4E5" stroke-width="14.431" stroke-linecap="round" stroke-linejoin="round"/>
<path d="M170.219 399.909H141.357C136.046 399.909 131.736 395.599 131.736 390.288V361.426C131.736 356.115 136.046 351.805 141.357 351.805H170.219C175.53 351.805 179.84 356.115 179.84 361.426V390.288C179.84 395.599 175.53 399.909 170.219 399.909Z" stroke="#E1E4E5" stroke-width="14.431" stroke-linecap="round" stroke-linejoin="round"/>
<path d="M218.323 351.805H285.669M218.323 399.909H285.669M131.736 448.013H285.669M131.736 496.117H285.669" stroke="#E1E4E5" stroke-width="14.431" stroke-linecap="round" stroke-linejoin="round"/>
<path d="M418.143 151.987H389.281C383.97 151.987 379.66 147.677 379.66 142.366V113.504C379.66 108.193 383.97 103.883 389.281 103.883H418.143C423.454 103.883 427.764 108.193 427.764 113.504V142.366C427.764 147.677 423.454 151.987 418.143 151.987Z" stroke="#E1E4E5" stroke-width="14.431" stroke-linecap="round" stroke-linejoin="round"/>
<path d="M466.247 103.883H533.593M466.247 151.987H533.593M379.66 200.091H533.593M379.66 248.195H533.593" stroke="#E1E4E5" stroke-width="14.431" stroke-linecap="round" stroke-linejoin="round"/>
<path d="M418.143 399.909H389.281C383.97 399.909 379.66 395.599 379.66 390.288V361.426C379.66 356.115 383.97 351.805 389.281 351.805H418.143C423.454 351.805 427.764 356.115 427.764 361.426V390.288C427.764 395.599 423.454 399.909 418.143 399.909Z" stroke="#E1E4E5" stroke-width="14.431" stroke-linecap="round" stroke-linejoin="round"/>
<path d="M466.247 351.805H533.593M466.247 399.909H533.593M379.66 448.013H533.593M379.66 496.117H533.593" stroke="#E1E4E5" stroke-width="14.431" stroke-linecap="round" stroke-linejoin="round"/>
<path d="M666.067 151.987H637.205C631.894 151.987 627.584 147.677 627.584 142.366V113.504C627.584 108.193 631.894 103.883 637.205 103.883H666.067C671.378 103.883 675.688 108.193 675.688 113.504V142.366C675.688 147.677 671.378 151.987 666.067 151.987Z" stroke="#E1E4E5" stroke-width="14.431" stroke-linecap="round" stroke-linejoin="round"/>
<path d="M714.171 103.883H781.517M714.171 151.987H781.517M627.584 200.091H781.517M627.584 248.195H781.517" stroke="#E1E4E5" stroke-width="14.431" stroke-linecap="round" stroke-linejoin="round"/>
<path d="M666.067 399.909H637.205C631.894 399.909 627.584 395.599 627.584 390.288V361.426C627.584 356.115 631.894 351.805 637.205 351.805H666.067C671.378 351.805 675.688 356.115 675.688 361.426V390.288C675.688 395.599 671.378 399.909 666.067 399.909Z" stroke="#E1E4E5" stroke-width="14.431" stroke-linecap="round" stroke-linejoin="round"/>
<path d="M714.171 351.805H781.517M714.171 399.909H781.517M627.584 448.013H781.517M627.584 496.117H781.517" stroke="#E1E4E5" stroke-width="14.431" stroke-linecap="round" stroke-linejoin="round"/>
<path fill-rule="evenodd" clip-rule="evenodd" d="M172.524 177.367H99.104C88.967 177.367 80.75 169.15 80.75 159.012V85.5923C80.75 75.4543 88.967 67.2383 99.105 67.2383H172.524C182.662 67.2383 190.879 75.4543 190.879 85.5933V159.012C190.879 169.15 182.662 177.367 172.524 177.367Z" fill="#4F27AA"/>
<path fill-rule="evenodd" clip-rule="evenodd" d="M143.463 122.305H158.758C159.569 122.305 160.347 122.627 160.921 123.201C161.495 123.774 161.817 124.552 161.818 125.364V137.601C161.818 138.412 161.495 139.19 160.921 139.764C160.348 140.337 159.569 140.66 158.758 140.66H146.522C145.711 140.659 144.933 140.337 144.359 139.763C143.786 139.19 143.463 138.412 143.463 137.601V122.305Z" fill="white"/>
<path d="M143.463 122.304C143.463 110.068 145.757 108.03 152.64 103.949M143.463 122.304H158.758C159.569 122.304 160.347 122.627 160.921 123.2C161.495 123.774 161.817 124.552 161.818 125.363V137.6C161.818 138.412 161.495 139.19 160.921 139.763C160.348 140.337 159.569 140.659 158.758 140.659H146.522C145.711 140.659 144.933 140.337 144.359 139.763C143.786 139.189 143.463 138.411 143.463 137.6V122.304Z" stroke="white" stroke-width="9.177" stroke-linecap="round" stroke-linejoin="round"/>
<path fill-rule="evenodd" clip-rule="evenodd" d="M109.812 122.305H125.108C125.919 122.305 126.697 122.627 127.271 123.201C127.844 123.775 128.167 124.552 128.167 125.364V137.601C128.167 138.412 127.844 139.19 127.271 139.763C126.697 140.337 125.919 140.659 125.108 140.66H112.871C112.06 140.659 111.282 140.337 110.708 139.763C110.135 139.19 109.812 138.412 109.812 137.601V122.305Z" fill="white"/>
<path d="M109.812 122.304H125.108C125.919 122.304 126.697 122.627 127.271 123.2C127.844 123.774 128.167 124.552 128.167 125.363V137.6C128.167 138.411 127.844 139.189 127.271 139.763C126.697 140.337 125.919 140.659 125.108 140.659H112.871C112.06 140.659 111.282 140.337 110.708 139.763C110.135 139.189 109.812 138.411 109.812 137.6V122.304M109.812 122.304C109.812 110.068 112.106 108.03 118.989 103.949" stroke="white" stroke-width="9.177" stroke-linecap="round" stroke-linejoin="round"/>
</g>
<defs>
<clipPath id="clip0_1235_27281">
<rect width="900" height="600" fill="white"/>
</clipPath>
</defs>
</svg>
