<svg width="900" height="600" viewBox="0 0 900 600" fill="none" xmlns="http://www.w3.org/2000/svg">
<g clip-path="url(#clip0_1235_27300)">
<path d="M724.308 236.989C710.891 260.935 681.506 264.225 634.429 259.675C599.024 256.246 566.738 253.593 531.33 234.288C506.547 220.786 486.93 202.517 472.612 184.775C457.096 165.553 435.439 143.616 446.056 121.822C460.646 91.8836 545.018 66.6695 626.946 107.904C716.944 153.212 737.434 213.586 724.308 236.989Z" fill="url(#paint0_linear_1235_27300)"/>
<path d="M815.346 287.538C790.069 300.076 756.521 283.954 756.521 283.954C756.521 283.954 763.977 247.51 789.267 234.989C814.543 222.451 848.078 238.555 848.078 238.555C848.078 238.555 840.622 274.999 815.346 287.538Z" fill="url(#paint1_linear_1235_27300)"/>
<path d="M97.369 379.177C130.395 398.971 177.778 380.673 177.778 380.673C177.778 380.673 171.582 330.29 138.536 310.518C105.509 290.724 58.146 308.999 58.146 308.999C58.146 308.999 64.342 359.383 97.369 379.177Z" fill="url(#paint2_linear_1235_27300)"/>
<path d="M765.612 189.718C757.99 189.718 751.811 195.897 751.811 203.519C751.811 211.141 757.99 217.32 765.612 217.32C773.234 217.32 779.413 211.141 779.413 203.519C779.413 195.897 773.234 189.718 765.612 189.718Z" fill="#4F27AA"/>
<path d="M695.527 420.001C686.952 420.001 680 426.952 680 435.528C680 444.103 686.952 451.055 695.527 451.055C704.102 451.055 711.054 444.103 711.054 435.528C711.054 426.952 704.102 420.001 695.527 420.001Z" fill="#4F27AA"/>
<path d="M141.771 203.374C134.625 203.374 128.832 197.581 128.832 190.435C128.832 183.289 134.625 177.496 141.771 177.496C148.917 177.496 154.71 183.289 154.71 190.435C154.71 197.581 148.917 203.374 141.771 203.374Z" fill="#4F27AA"/>
<path d="M647.248 263.756C643.913 263.756 641.21 261.052 641.21 257.718C641.21 254.383 643.913 251.68 647.248 251.68C650.583 251.68 653.286 254.383 653.286 257.718C653.286 261.052 650.583 263.756 647.248 263.756Z" fill="#4F27AA"/>
<path d="M682.095 534.909C677.808 534.909 674.332 531.433 674.332 527.146C674.332 522.858 677.808 519.383 682.095 519.383C686.382 519.383 689.858 522.858 689.858 527.146C689.858 531.433 686.382 534.909 682.095 534.909Z" fill="#E1E4E5"/>
<path d="M139.457 457.748C133.264 457.748 128.243 452.728 128.243 446.534C128.243 440.341 133.264 435.32 139.457 435.32C145.65 435.32 150.671 440.341 150.671 446.534C150.671 452.728 145.65 457.748 139.457 457.748Z" fill="#E1E4E5"/>
<path d="M269.137 168.55C264.423 168.55 260.602 164.729 260.602 160.015C260.602 155.302 264.423 151.48 269.137 151.48C273.851 151.48 277.672 155.302 277.672 160.015C277.672 164.729 273.851 168.55 269.137 168.55Z" fill="#E1E4E5"/>
<path d="M683.491 171.085C678.251 171.085 674.003 166.837 674.003 161.597C674.003 156.357 678.251 152.109 683.491 152.109C688.731 152.109 692.979 156.357 692.979 161.597C692.979 166.837 688.731 171.085 683.491 171.085Z" fill="#E1E4E5"/>
<path d="M173.382 267.07C174.6 271.616 171.902 276.288 167.357 277.506C162.811 278.724 158.139 276.026 156.921 271.481C155.703 266.935 158.4 262.263 162.946 261.045C167.492 259.827 172.164 262.524 173.382 267.07Z" fill="#E1E4E5"/>
<path d="M381.515 99.7481C375.255 99.7481 370.18 94.6733 370.18 88.4131C370.18 82.153 375.255 77.0781 381.515 77.0781C387.775 77.0781 392.85 82.153 392.85 88.4131C392.85 94.6733 387.775 99.7481 381.515 99.7481Z" fill="#E1E4E5"/>
<path d="M742.996 385.134C738.181 385.134 734.277 382.011 734.277 378.159C734.277 374.306 738.181 371.184 742.996 371.184C747.811 371.184 751.715 374.306 751.715 378.159C751.715 382.011 747.811 385.134 742.996 385.134Z" fill="#E1E4E5"/>
<path d="M595.666 83.301C598.201 92.761 592.587 102.485 583.127 105.019C573.667 107.554 563.943 101.94 561.408 92.4803C558.873 83.0204 564.487 73.2967 573.947 70.7619C583.407 68.2271 593.131 73.8411 595.666 83.301Z" fill="#E1E4E5"/>
<path d="M809.119 329.98H809.347C810.698 349.119 824.931 349.413 824.931 349.413C824.931 349.413 809.236 349.72 809.236 371.833C809.236 349.72 793.541 349.413 793.541 349.413C793.541 349.413 807.768 349.119 809.119 329.98ZM235.827 516.036H236.029C237.228 533.359 249.857 533.624 249.857 533.624C249.857 533.624 235.931 533.902 235.931 553.917C235.931 533.902 222.004 533.624 222.004 533.624C222.004 533.624 234.628 533.359 235.827 516.036Z" fill="#E1E4E5"/>
<path fill-rule="evenodd" clip-rule="evenodd" d="M259.216 472.57H254.695C254.172 472.569 253.67 472.361 253.3 471.991C252.93 471.621 252.722 471.119 252.722 470.596V466.075C252.722 464.982 253.611 464.102 254.695 464.102H259.216C260.3 464.102 261.19 464.991 261.19 466.075V470.596C261.191 470.855 261.14 471.112 261.041 471.352C260.942 471.592 260.796 471.81 260.613 471.993C260.43 472.176 260.212 472.322 259.972 472.421C259.732 472.52 259.475 472.571 259.216 472.57ZM243.541 472.57H239.02C238.497 472.568 237.996 472.359 237.626 471.99C237.257 471.62 237.048 471.119 237.046 470.596V466.075C237.046 464.982 237.936 464.102 239.02 464.102H243.541C244.064 464.104 244.564 464.312 244.934 464.682C245.304 465.052 245.512 465.552 245.514 466.075V470.596C245.512 471.119 245.304 471.62 244.934 471.989C244.565 472.359 244.064 472.568 243.541 472.57ZM227.856 472.57H223.335C222.812 472.568 222.311 472.359 221.941 471.99C221.572 471.62 221.363 471.119 221.361 470.596V466.075C221.361 464.982 222.251 464.102 223.335 464.102H227.856C228.379 464.104 228.879 464.312 229.249 464.682C229.619 465.052 229.827 465.552 229.829 466.075V470.596C229.83 470.855 229.779 471.112 229.68 471.352C229.581 471.591 229.436 471.809 229.252 471.993C229.069 472.176 228.851 472.321 228.612 472.421C228.372 472.52 228.115 472.57 227.856 472.57ZM212.18 472.57H207.659C207.136 472.568 206.635 472.359 206.266 471.99C205.896 471.62 205.687 471.119 205.685 470.596V466.075C205.685 464.982 206.575 464.102 207.659 464.102H212.18C213.273 464.102 214.162 464.991 214.162 466.075V470.596C214.157 471.119 213.946 471.619 213.575 471.989C213.204 472.358 212.703 472.567 212.18 472.57ZM196.504 472.57H191.983C191.459 472.57 190.956 472.362 190.584 471.992C190.212 471.622 190.002 471.12 190 470.596V466.075C190 464.982 190.889 464.102 191.983 464.102H196.504C197.027 464.104 197.527 464.312 197.897 464.682C198.267 465.052 198.475 465.552 198.477 466.075V470.596C198.475 471.119 198.267 471.62 197.897 471.989C197.528 472.359 197.027 472.568 196.504 472.57ZM242.966 455.477H238.445C237.922 455.475 237.421 455.267 237.052 454.897C236.682 454.528 236.473 454.027 236.471 453.504V448.973C236.471 447.889 237.361 447 238.445 447H242.966C244.059 447 244.939 447.889 244.939 448.973V453.495C244.941 453.755 244.891 454.013 244.792 454.253C244.694 454.494 244.549 454.713 244.365 454.897C244.182 455.081 243.964 455.227 243.724 455.327C243.483 455.426 243.226 455.477 242.966 455.477ZM227.29 455.477H222.769C222.246 455.475 221.746 455.267 221.376 454.897C221.006 454.527 220.798 454.027 220.796 453.504V448.973C220.798 448.45 221.006 447.95 221.376 447.58C221.746 447.21 222.246 447.002 222.769 447H227.29C228.374 447 229.264 447.889 229.264 448.973V453.495C229.265 453.755 229.215 454.013 229.117 454.253C229.018 454.494 228.873 454.712 228.689 454.897C228.506 455.081 228.288 455.227 228.048 455.327C227.807 455.426 227.55 455.477 227.29 455.477ZM211.615 455.477H207.093C206.569 455.477 206.066 455.269 205.695 454.9C205.323 454.53 205.113 454.028 205.111 453.504V448.973C205.111 447.889 206 447 207.093 447H211.615C212.138 447.002 212.638 447.21 213.008 447.58C213.378 447.95 213.586 448.45 213.588 448.973V453.495C213.588 454.019 213.38 454.522 213.011 454.893C212.641 455.265 212.139 455.475 211.615 455.477ZM227.856 490.933H223.335C222.812 490.931 222.311 490.723 221.942 490.353C221.572 489.984 221.363 489.483 221.361 488.96V484.438C221.361 483.345 222.251 482.465 223.335 482.465H227.856C228.379 482.467 228.879 482.675 229.249 483.045C229.619 483.415 229.827 483.915 229.829 484.438V488.96C229.83 489.219 229.779 489.476 229.68 489.716C229.581 489.955 229.436 490.173 229.252 490.356C229.069 490.54 228.851 490.685 228.612 490.784C228.372 490.883 228.115 490.934 227.856 490.933ZM243.248 490.933H238.727C238.204 490.931 237.704 490.723 237.334 490.353C236.964 489.983 236.756 489.483 236.754 488.96V484.438C236.754 483.345 237.643 482.465 238.727 482.465H243.248C244.332 482.465 245.222 483.354 245.222 484.438V488.96C245.222 489.219 245.172 489.476 245.073 489.716C244.973 489.955 244.828 490.173 244.645 490.356C244.461 490.54 244.243 490.685 244.004 490.784C243.764 490.883 243.507 490.934 243.248 490.933ZM212.18 490.933H207.659C207.136 490.931 206.635 490.723 206.266 490.353C205.896 489.984 205.687 489.483 205.685 488.96V484.438C205.685 483.345 206.575 482.465 207.659 482.465H212.18C213.273 482.465 214.162 483.354 214.162 484.438V488.96C214.157 489.483 213.946 489.983 213.575 490.352C213.204 490.721 212.703 490.93 212.18 490.933Z" fill="#E1E4E5"/>
<path fill-rule="evenodd" clip-rule="evenodd" d="M449.999 431.836C540.417 431.836 604.715 375.019 642.369 327.701C655.429 311.289 655.429 289.38 642.369 272.969C604.715 225.651 540.417 168.834 449.999 168.834C359.581 168.834 295.283 225.651 257.629 272.969C244.569 289.38 244.569 311.289 257.629 327.701C295.283 375.019 359.581 431.836 449.999 431.836ZM676.668 354.996C702.441 322.608 702.441 278.062 676.668 245.674C635.721 194.219 560.165 125 449.999 125C339.833 125 264.277 194.219 223.33 245.674C197.557 278.062 197.557 322.608 223.33 354.996C264.277 406.451 339.833 475.67 449.999 475.67C560.165 475.67 635.721 406.451 676.668 354.996Z" fill="#4F27AA"/>
<path fill-rule="evenodd" clip-rule="evenodd" d="M493.831 300.335C493.831 324.544 474.206 344.169 449.997 344.169C425.789 344.169 406.164 324.544 406.164 300.335C406.164 299.713 406.177 299.094 406.202 298.478C409.71 299.711 413.403 300.339 417.122 300.335C435.279 300.335 449.997 285.616 449.997 267.46C450.001 263.741 449.373 260.048 448.14 256.54C448.759 256.514 449.378 256.501 449.997 256.501C474.206 256.501 493.831 276.126 493.831 300.335ZM537.665 300.335C537.665 348.752 498.415 388.003 449.997 388.003C401.58 388.003 362.33 348.752 362.33 300.335C362.33 251.918 401.58 212.668 449.997 212.668C498.415 212.668 537.665 251.918 537.665 300.335Z" fill="#4F27AA"/>
</g>
<defs>
<linearGradient id="paint0_linear_1235_27300" x1="633.921" y1="392.179" x2="514.331" y2="-145.208" gradientUnits="userSpaceOnUse">
<stop stop-color="white"/>
<stop offset="1" stop-color="#EEEEEE"/>
</linearGradient>
<linearGradient id="paint1_linear_1235_27300" x1="718.282" y1="326.649" x2="926.762" y2="161.74" gradientUnits="userSpaceOnUse">
<stop stop-color="white"/>
<stop offset="1" stop-color="#EEEEEE"/>
</linearGradient>
<linearGradient id="paint2_linear_1235_27300" x1="225.172" y1="442.893" x2="-40.57" y2="195.983" gradientUnits="userSpaceOnUse">
<stop stop-color="white"/>
<stop offset="1" stop-color="#EEEEEE"/>
</linearGradient>
<clipPath id="clip0_1235_27300">
<rect width="900" height="600" fill="white"/>
</clipPath>
</defs>
</svg>
