<svg width="900" height="600" viewBox="0 0 900 600" fill="none" xmlns="http://www.w3.org/2000/svg">
<g clip-path="url(#clip0_1235_27321)">
<path fill-rule="evenodd" clip-rule="evenodd" d="M138.301 555.235H758.648C816.88 555.235 814.208 506.953 795.187 490.129C775.692 472.885 737.171 479.879 737.171 479.879C737.171 479.879 725.702 447.403 687.954 431.592C654.565 417.607 619.585 424.261 619.585 424.261C619.585 424.261 619.585 401.973 598.206 383.514C576.825 365.053 548.319 366.848 548.319 366.848C548.319 366.848 528.723 243.945 397.774 243.945C266.825 243.945 251.681 359.669 251.681 359.669C251.681 359.669 222.284 359.669 200.903 379.407C179.525 399.143 176.852 421.568 176.852 421.568C176.852 421.568 105.353 411.867 84.206 473.979C71.606 510.999 97.496 555.235 138.301 555.235Z" fill="url(#paint0_linear_1235_27321)"/>
<path d="M390.374 359.803C444.371 359.803 488.145 317.246 488.145 264.748V207.715H292.603V264.748C292.603 317.246 336.377 359.803 390.374 359.803Z" fill="#4F27AA" stroke="#4F27AA" stroke-width="23"/>
<path d="M216.561 555.342C216.561 413.129 390.376 519.789 390.376 359.8M455.555 207.713V77.3516M325.193 207.713V77.3516" stroke="#4F27AA" stroke-width="23"/>
<path d="M587.538 506.332L634.512 412.665H522L568.974 318.999M167.969 232.396L206.279 155.929H114.519L152.829 79.4609" stroke="#4F27AA" stroke-width="23" stroke-linecap="round" stroke-linejoin="round"/>
<path d="M558.938 229.609C593.485 279.026 657.622 297.612 713.061 274.272C768.5 250.932 800.282 191.963 789.434 132.57" stroke="#4F27AA" stroke-width="23"/>
<path d="M643.124 175.89C654.233 187.241 672.24 187.239 683.347 175.884C694.453 164.53 694.453 146.122 683.347 134.768C672.24 123.413 654.233 123.411 643.124 134.762C637.787 140.215 634.789 147.612 634.789 155.326C634.789 163.039 637.787 170.437 643.124 175.89Z" stroke="#4F27AA" stroke-width="23" stroke-linecap="round" stroke-linejoin="round"/>
<path d="M663.232 91.1678V84.2148M663.232 223.43V216.477M620.183 111.644L615.261 106.721M706.281 199.006L711.204 203.929M706.281 111.644L711.204 106.721M620.183 199.006L615.261 203.929M728.021 155.325H734.974M598.444 155.325H591.491M258.372 391.37C230.585 431.315 178.996 446.339 134.404 427.472C89.812 408.606 64.248 360.94 72.974 312.93" stroke="#4F27AA" stroke-width="23" stroke-linecap="round" stroke-linejoin="round"/>
<path d="M191.024 347.798C182.137 356.929 167.731 356.927 158.846 347.794C149.961 338.661 149.961 323.855 158.846 314.722C167.731 305.589 182.137 305.587 191.024 314.717C195.294 319.103 197.692 325.053 197.692 331.258C197.692 337.462 195.294 343.412 191.024 347.798Z" stroke="#4F27AA" stroke-width="23" stroke-linecap="round" stroke-linejoin="round"/>
<path d="M174.306 280.061V275.004M174.306 387.585V382.528M208.953 296.613L212.98 292.585M139.658 367.171L135.631 371.199M139.658 296.613L135.631 292.585M208.953 367.171L212.98 371.199M122.79 331.892H117.102M226.769 331.892H231.825" stroke="#4F27AA" stroke-width="23" stroke-linecap="round" stroke-linejoin="round"/>
<path d="M834.939 265.11C812.905 276.04 783.66 261.986 783.66 261.986C783.66 261.986 790.16 230.217 812.205 219.302C834.239 208.372 863.472 222.411 863.472 222.411C863.472 222.411 856.973 254.18 834.939 265.11Z" fill="url(#paint1_linear_1235_27321)"/>
<path d="M240.748 138.005C254.52 146.259 274.278 138.628 274.278 138.628C274.278 138.628 271.694 117.619 257.914 109.375C244.143 101.121 224.393 108.742 224.393 108.742C224.393 108.742 226.977 129.751 240.748 138.005Z" fill="url(#paint2_linear_1235_27321)"/>
<path d="M676.958 333.399C665.896 333.399 656.929 342.366 656.929 353.428C656.929 364.49 665.896 373.457 676.958 373.457C688.02 373.457 696.987 364.49 696.987 353.428C696.987 342.366 688.02 333.399 676.958 333.399Z" fill="#4F27AA"/>
<path d="M372.597 90.0982C363.491 90.0982 356.109 97.4801 356.109 106.586C356.109 115.692 363.491 123.074 372.597 123.074C381.703 123.074 389.085 115.692 389.085 106.586C389.085 97.4801 381.703 90.0982 372.597 90.0982Z" fill="#4F27AA"/>
<path d="M376.778 534.554C366.408 534.554 358.001 526.147 358.001 515.777C358.001 505.407 366.408 497 376.778 497C387.148 497 395.555 505.407 395.555 515.777C395.555 526.147 387.148 534.554 376.778 534.554Z" fill="#4F27AA"/>
<path d="M781.907 343.616C777.067 343.616 773.144 339.693 773.144 334.853C773.144 330.013 777.067 326.09 781.907 326.09C786.747 326.09 790.67 330.013 790.67 334.853C790.67 339.693 786.747 343.616 781.907 343.616Z" fill="#4F27AA"/>
<path d="M500.027 567.038C493.804 567.038 488.76 561.993 488.76 555.771C488.76 549.548 493.804 544.504 500.027 544.504C506.25 544.504 511.294 549.548 511.294 555.771C511.294 561.993 506.25 567.038 500.027 567.038Z" fill="#E1E4E5"/>
<path d="M48.525 505.419C39.5371 505.419 32.251 498.133 32.251 489.145C32.251 480.157 39.5371 472.871 48.525 472.871C57.5129 472.871 64.799 480.157 64.799 489.145C64.799 498.133 57.5129 505.419 48.525 505.419Z" fill="#E1E4E5"/>
<path d="M794.546 534.686C787.705 534.686 782.16 529.141 782.16 522.3C782.16 515.459 787.705 509.914 794.546 509.914C801.387 509.914 806.932 515.459 806.932 522.3C806.932 529.141 801.387 534.686 794.546 534.686Z" fill="#E1E4E5"/>
<path d="M92.0362 231.684C93.8039 238.281 89.889 245.062 83.2922 246.829C76.6953 248.597 69.9146 244.682 68.147 238.085C66.3793 231.488 70.2942 224.708 76.891 222.94C83.4879 221.172 90.2686 225.087 92.0362 231.684Z" fill="#E1E4E5"/>
<path d="M253.338 43.7627C250.495 43.7627 248.191 41.4584 248.191 38.6157C248.191 35.7731 250.495 33.4688 253.338 33.4688C256.181 33.4688 258.485 35.7731 258.485 38.6157C258.485 41.4584 256.181 43.7627 253.338 43.7627Z" fill="#E1E4E5"/>
<path d="M750.507 433.094C743.518 433.094 737.853 428.561 737.853 422.971C737.853 417.38 743.518 412.848 750.507 412.848C757.496 412.848 763.161 417.38 763.161 422.971C763.161 428.561 757.496 433.094 750.507 433.094Z" fill="#E1E4E5"/>
<path d="M481.018 40.6459C482.298 45.4215 479.464 50.3302 474.688 51.6098C469.913 52.8894 465.004 50.0554 463.724 45.2798C462.445 40.5042 465.279 35.5955 470.054 34.3159C474.83 33.0362 479.739 35.8703 481.018 40.6459Z" fill="#E1E4E5"/>
<path d="M38.31 142.57H38.49C39.558 157.694 50.806 157.927 50.806 157.927C50.806 157.927 38.403 158.169 38.403 175.645C38.403 158.169 26 157.927 26 157.927C26 157.927 37.243 157.694 38.31 142.57ZM461.819 407.001H461.992C463.017 422.08 473.816 422.312 473.816 422.312C473.816 422.312 461.908 422.554 461.908 439.978C461.908 422.554 450 422.312 450 422.312C450 422.312 460.795 422.08 461.819 407.001Z" fill="#E1E4E5"/>
</g>
<defs>
<linearGradient id="paint0_linear_1235_27321" x1="459.659" y1="729.763" x2="455.545" y2="-94.7767" gradientUnits="userSpaceOnUse">
<stop stop-color="white"/>
<stop offset="1" stop-color="#EEEEEE"/>
</linearGradient>
<linearGradient id="paint1_linear_1235_27321" x1="750.326" y1="299.203" x2="932.062" y2="155.449" gradientUnits="userSpaceOnUse">
<stop stop-color="white"/>
<stop offset="1" stop-color="#EEEEEE"/>
</linearGradient>
<linearGradient id="paint2_linear_1235_27321" x1="294.041" y1="164.573" x2="183.229" y2="61.6152" gradientUnits="userSpaceOnUse">
<stop stop-color="white"/>
<stop offset="1" stop-color="#EEEEEE"/>
</linearGradient>
<clipPath id="clip0_1235_27321">
<rect width="900" height="600" fill="white"/>
</clipPath>
</defs>
</svg>
