<svg width="900" height="600" viewBox="0 0 900 600" fill="none" xmlns="http://www.w3.org/2000/svg">
<g clip-path="url(#clip0_1235_27418)">
<path d="M565.549 57.6999C564.957 57.4871 564.357 57.2943 563.752 57.1219C563.551 57.0639 563.353 57.0019 563.152 56.9519C562.722 56.842 562.291 56.7383 561.858 56.6409C561.65 56.5961 561.442 56.5545 561.233 56.5159C560.798 56.4346 560.363 56.3613 559.926 56.2959C559.671 56.2608 559.415 56.2288 559.159 56.1999C558.972 56.1774 558.785 56.1571 558.598 56.1389C558.304 56.1119 558.01 56.0896 557.715 56.0719C557.56 56.0619 557.404 56.0469 557.249 56.0419C556.792 56.0199 556.335 56.0085 555.878 56.0079H345.206C343.758 56.004 342.312 56.114 340.881 56.3369C340.412 56.4099 339.943 56.4919 339.483 56.5859C327.46 59.0479 318.207 69.1259 316.946 81.5699C316.848 82.5289 316.799 83.4999 316.799 84.4819V516.104C316.799 528.428 324.609 538.921 335.541 542.886C335.59 542.904 335.639 542.92 335.687 542.935C336.23 543.127 336.781 543.303 337.335 543.461C337.536 543.519 337.734 543.58 337.938 543.632C338.152 543.687 338.365 543.738 338.578 543.79C338.794 543.842 339.014 543.893 339.233 543.942C339.44 543.988 339.647 544.027 339.857 544.067C340.092 544.113 340.326 544.155 340.561 544.192C341.015 544.268 341.471 544.331 341.929 544.383C342.408 544.44 342.89 544.483 343.372 544.511C343.528 544.52 343.683 544.536 343.838 544.542C344.292 544.563 344.749 544.575 345.209 544.575H555.884C556.865 544.575 557.834 544.526 558.79 544.429C572.159 543.069 582.789 532.412 584.148 519.01C584.245 518.042 584.294 517.07 584.294 516.098V84.4829C584.288 72.1579 576.478 61.6649 565.549 57.6999Z" fill="#4F27AA"/>
<path d="M476.474 80.4688H425.978C424.471 80.4688 423.249 81.6906 423.249 83.1977V83.1987C423.249 84.7059 424.471 85.9277 425.978 85.9277H476.474C477.981 85.9277 479.203 84.7059 479.203 83.1987V83.1977C479.203 81.6906 477.981 80.4688 476.474 80.4688Z" fill="white"/>
<path d="M433.564 206.118C437.257 206.118 440.25 203.125 440.25 199.432C440.25 195.74 437.257 192.746 433.564 192.746C429.871 192.746 426.878 195.74 426.878 199.432C426.878 203.125 429.871 206.118 433.564 206.118Z" fill="white"/>
<path d="M501.261 211.699C498.961 211.344 496.639 211.155 494.312 211.134C480.284 211.033 466.918 217.184 457.747 227.96C448.576 238.737 444.523 253.054 446.659 267.13" stroke="white" stroke-width="11.075" stroke-linecap="round" stroke-linejoin="round"/>
<path d="M503.769 214.895C503.769 229.192 498.09 242.904 487.98 253.014C477.871 263.123 464.159 268.803 449.862 268.803V268.803C435.565 268.803 421.854 263.123 411.744 253.014C401.635 242.904 395.955 229.192 395.955 214.895V214.895C395.955 200.598 401.635 186.887 411.744 176.777C421.854 166.668 435.565 160.988 449.862 160.988V160.988C464.159 160.988 477.871 166.668 487.98 176.777C498.09 186.887 503.769 200.598 503.769 214.895V214.895Z" stroke="white" stroke-width="11.075" stroke-linecap="round" stroke-linejoin="round"/>
<path d="M479.611 375.121H422.085C415.491 375.121 410.145 380.467 410.145 387.061C410.145 393.655 415.491 399 422.085 399H479.611C486.205 399 491.551 393.655 491.551 387.061C491.551 380.467 486.205 375.121 479.611 375.121Z" fill="white"/>
<path d="M428.597 431.562H383.01C376.416 431.562 371.07 436.908 371.07 443.502C371.07 450.096 376.416 455.441 383.01 455.441H428.597C435.191 455.441 440.537 450.096 440.537 443.502C440.537 436.908 435.191 431.562 428.597 431.562Z" fill="white"/>
<path d="M517.602 431.562H472.015C465.421 431.562 460.075 436.908 460.075 443.502C460.075 450.096 465.421 455.441 472.015 455.441H517.602C524.196 455.441 529.542 450.096 529.542 443.502C529.542 436.908 524.196 431.562 517.602 431.562Z" fill="white"/>
<path d="M524.114 342.559H376.497C373.5 342.559 371.07 344.988 371.07 347.986C371.07 350.983 373.5 353.413 376.497 353.413H524.114C527.111 353.413 529.541 350.983 529.541 347.986C529.541 344.988 527.111 342.559 524.114 342.559Z" fill="white"/>
<path d="M523.921 309.742H376.529C373.514 309.742 371.07 312.186 371.07 315.201C371.07 318.216 373.514 320.66 376.529 320.66H523.921C526.936 320.66 529.38 318.216 529.38 315.201C529.38 312.186 526.936 309.742 523.921 309.742Z" fill="white"/>
<path d="M778.851 173.199H678.125C642.144 173.199 612.976 202.367 612.976 238.348V339.074C612.976 375.055 642.144 404.223 678.125 404.223H778.851C814.832 404.223 844 375.055 844 339.074V238.348C844 202.367 814.832 173.199 778.851 173.199Z" fill="#4F27AA"/>
<path d="M729.036 381.23L751.734 403.928L729.036 426.626L706.338 403.928L729.036 381.23Z" fill="#4F27AA"/>
<path d="M671.006 288.163C687.333 288.163 700.568 274.928 700.568 258.601C700.568 242.274 687.333 229.039 671.006 229.039C654.679 229.039 641.444 242.274 641.444 258.601C641.444 274.928 654.679 288.163 671.006 288.163Z" fill="white"/>
<path d="M808.963 245.465H718.087C715.668 245.465 713.707 247.426 713.707 249.844C713.707 252.263 715.668 254.224 718.087 254.224H808.963C811.382 254.224 813.343 252.263 813.343 249.844C813.343 247.426 811.382 245.465 808.963 245.465Z" fill="white"/>
<path d="M808.963 305.684H645.824C643.405 305.684 641.444 307.644 641.444 310.063C641.444 312.482 643.405 314.443 645.824 314.443H808.963C811.382 314.443 813.343 312.482 813.343 310.063C813.343 307.644 811.382 305.684 808.963 305.684Z" fill="white"/>
<path d="M808.963 269.551H718.087C715.668 269.551 713.707 271.512 713.707 273.93C713.707 276.349 715.668 278.31 718.087 278.31H808.963C811.382 278.31 813.343 276.349 813.343 273.93C813.343 271.512 811.382 269.551 808.963 269.551Z" fill="white"/>
<path d="M808.963 329.77H645.824C643.405 329.77 641.444 331.73 641.444 334.149C641.444 336.568 643.405 338.529 645.824 338.529H808.963C811.382 338.529 813.343 336.568 813.343 334.149C813.343 331.73 811.382 329.77 808.963 329.77Z" fill="white"/>
<path d="M222.721 173.199H121.995C86.0144 173.199 56.8462 202.367 56.8462 238.348V339.074C56.8462 375.055 86.0144 404.223 121.995 404.223H222.721C258.702 404.223 287.87 375.055 287.87 339.074V238.348C287.87 202.367 258.702 173.199 222.721 173.199Z" fill="#4F27AA"/>
<path d="M172.905 381.23L195.603 403.928L172.905 426.626L150.207 403.928L172.905 381.23Z" fill="#4F27AA"/>
<path d="M114.875 288.163C131.202 288.163 144.437 274.928 144.437 258.601C144.437 242.274 131.202 229.039 114.875 229.039C98.5483 229.039 85.313 242.274 85.313 258.601C85.313 274.928 98.5483 288.163 114.875 288.163Z" fill="white"/>
<path d="M252.832 245.465H161.956C159.537 245.465 157.576 247.426 157.576 249.844C157.576 252.263 159.537 254.224 161.956 254.224H252.832C255.251 254.224 257.212 252.263 257.212 249.844C257.212 247.426 255.251 245.465 252.832 245.465Z" fill="white"/>
<path d="M252.832 305.684H89.693C87.274 305.684 85.313 307.644 85.313 310.063C85.313 312.482 87.274 314.443 89.693 314.443H252.832C255.251 314.443 257.212 312.482 257.212 310.063C257.212 307.644 255.251 305.684 252.832 305.684Z" fill="white"/>
<path d="M252.832 269.551H161.956C159.537 269.551 157.576 271.512 157.576 273.93C157.576 276.349 159.537 278.31 161.956 278.31H252.832C255.251 278.31 257.212 276.349 257.212 273.93C257.212 271.512 255.251 269.551 252.832 269.551Z" fill="white"/>
<path d="M252.832 329.77H89.693C87.274 329.77 85.313 331.73 85.313 334.149C85.313 336.568 87.274 338.529 89.693 338.529H252.832C255.251 338.529 257.212 336.568 257.212 334.149C257.212 331.73 255.251 329.77 252.832 329.77Z" fill="white"/>
</g>
<defs>
<clipPath id="clip0_1235_27418">
<rect width="900" height="600" fill="white"/>
</clipPath>
</defs>
</svg>
