<svg width="900" height="600" viewBox="0 0 900 600" fill="none" xmlns="http://www.w3.org/2000/svg">
<g clip-path="url(#clip0_1235_27502)">
<path fill-rule="evenodd" clip-rule="evenodd" d="M235.128 235C245.981 235 240.903 217.722 227.153 221.849C226.392 197.859 187.441 180.305 171.335 212.663C166.781 209.045 156.556 215.878 158.82 221.849C153.762 222.282 149.782 222.869 146.686 223.647C139.537 225.444 140.953 234.919 148.321 234.853L235.128 235ZM586.78 166C596.428 166 591.914 150.45 579.692 154.164C579.015 132.573 544.392 116.775 530.075 145.897C526.028 142.641 516.938 148.791 518.951 154.164C514.455 154.554 510.918 155.082 508.166 155.783C501.811 157.399 503.069 165.927 509.619 165.868L586.78 166ZM779.545 208H731.48C727.182 208 725.331 202.415 728.847 199.937C728.896 199.902 728.946 199.866 728.996 199.832C734.003 196.378 740.574 196.691 740.574 196.691C740.574 196.691 741.512 178 759.192 178C775.177 178 781.551 193.749 783.85 202.425C784.597 205.244 782.451 208 779.545 208ZM528.545 225H480.48C476.182 225 474.331 219.415 477.847 216.937C477.896 216.902 477.946 216.866 477.996 216.832C483.003 213.378 489.574 213.691 489.574 213.691C489.574 213.691 490.512 195 508.192 195C524.177 195 530.551 210.749 532.85 219.425C533.597 222.244 531.451 225 528.545 225ZM331.471 231H390.499C395.776 231 398.05 224.111 393.731 221.056L393.549 220.926C387.4 216.666 379.33 217.053 379.33 217.053C379.33 217.053 378.178 194 356.465 194C336.835 194 329.007 213.423 326.184 224.125C325.267 227.601 327.902 231 331.471 231ZM585.471 215H644.499C649.776 215 652.05 208.111 647.731 205.056L647.549 204.926C641.4 200.666 633.33 201.053 633.33 201.053C633.33 201.053 632.178 178 610.465 178C590.835 178 583.007 197.423 580.184 208.125C579.267 211.601 581.902 215 585.471 215ZM196.673 164H236.306C239.85 164 241.376 159.346 238.477 157.281L238.354 157.193C234.225 154.315 228.807 154.576 228.807 154.576C228.807 154.576 228.034 139 213.455 139C200.275 139 195.019 152.124 193.123 159.355C192.508 161.703 194.277 164 196.673 164ZM302.249 203H261.772C258.153 203 256.594 198.346 259.556 196.281L259.681 196.193C263.897 193.315 269.431 193.576 269.431 193.576C269.431 193.576 270.221 178 285.109 178C298.57 178 303.938 191.124 305.874 198.355C306.503 200.703 304.696 203 302.249 203ZM118.751 182H159.228C162.847 182 164.406 177.159 161.444 175.012L161.319 174.921C157.103 171.927 151.569 172.199 151.569 172.199C151.569 172.199 150.779 156 135.891 156C122.43 156 117.062 169.649 115.126 177.169C114.497 179.612 116.304 182 118.751 182ZM359.521 159H281.579C275.269 159 272.547 150.994 277.713 147.442L277.932 147.292C285.285 142.34 294.936 142.79 294.936 142.79C294.936 142.79 296.315 116 322.28 116C335.117 116 345.492 137.5 345.492 137.5C345.492 137.5 362.955 137.5 365.845 151.008C366.719 155.101 363.79 159 359.521 159ZM631.494 162H712.631C720.247 162 719.898 155.951 717.41 153.843C714.86 151.683 709.822 152.559 709.822 152.559C709.822 152.559 708.322 148.49 703.385 146.509C699.018 144.757 694.443 145.591 694.443 145.591C694.443 145.591 694.443 142.799 691.646 140.486C688.85 138.173 685.122 138.398 685.122 138.398C685.122 138.398 682.559 123 665.431 123C648.304 123 646.324 137.498 646.324 137.498C646.324 137.498 642.479 137.498 639.682 139.971C636.886 142.444 636.537 145.254 636.537 145.254C636.537 145.254 627.185 144.038 624.419 151.82C622.771 156.458 626.157 162 631.494 162Z" fill="white" stroke="#E1E4E5" stroke-width="4"/>
<path d="M494.46 429.47C494.46 460.944 519.975 486.458 551.449 486.458C582.923 486.458 608.437 460.944 608.437 429.47C608.437 397.996 582.923 372.481 551.449 372.481C541.544 372.462 531.81 375.067 523.239 380.032" stroke="#E1E4E5" stroke-width="4" stroke-linecap="round" stroke-linejoin="round"/>
<path d="M351.988 486.458C320.514 486.458 294.999 460.944 294.999 429.469C294.999 397.995 320.514 372.48 351.988 372.48C383.462 372.48 408.977 397.995 408.977 429.469C408.977 460.944 383.462 486.458 351.988 486.458Z" stroke="#E1E4E5" stroke-width="4" stroke-linecap="round" stroke-linejoin="round"/>
<path d="M348.429 336.864C346.09 336.864 343.774 336.404 341.613 335.509C339.453 334.614 337.489 333.302 335.836 331.649C334.182 329.995 332.87 328.031 331.975 325.871C331.08 323.71 330.62 321.394 330.62 319.055C330.62 314.332 332.497 309.802 335.836 306.463C339.176 303.123 343.706 301.246 348.429 301.246H394.732L351.991 429.47" stroke="#E1E4E5" stroke-width="4" stroke-linecap="round" stroke-linejoin="round"/>
<path d="M551.448 429.472H465.965L394.73 329.742H494.46L551.448 429.472Z" stroke="#E1E4E5" stroke-width="4" stroke-linecap="round" stroke-linejoin="round"/>
<path d="M522.955 294.125H480.214M465.966 429.476L508.707 294.128" stroke="#E1E4E5" stroke-width="4" stroke-linecap="round" stroke-linejoin="round"/>
<path d="M91 398.681L132.764 425.643L174 398.681L132.764 294.535L91 398.681Z" fill="white" stroke="#E1E4E5" stroke-width="4"/>
<path d="M132.121 371.719V443.617M106.965 388.067L132.876 406.577" stroke="#E1E4E5" stroke-width="4"/>
<path d="M639 398.681L680.764 425.643L722 398.681L680.764 294.535L639 398.681Z" fill="white" stroke="#E1E4E5" stroke-width="4"/>
<path d="M680.121 371.719V443.617M654.965 388.067L680.876 406.577" stroke="#E1E4E5" stroke-width="4"/>
<path d="M205 363.336L232.675 381.203L260 363.336L232.675 294.324L205 363.336Z" fill="white" stroke="#E1E4E5" stroke-width="4"/>
<path d="M232.923 345.473V393.116M215.971 355.757L233.141 368.022" stroke="#E1E4E5" stroke-width="4"/>
<path d="M753 363.336L780.675 381.203L808 363.336L780.675 294.324L753 363.336Z" fill="white" stroke="#E1E4E5" stroke-width="4"/>
<path d="M780.923 345.473V393.116M763.971 355.757L781.141 368.022" stroke="#E1E4E5" stroke-width="4"/>
<path d="M186.414 462.453V448.324" stroke="#E1E4E5" stroke-width="4"/>
<path d="M111.414 500.453V486.324" stroke="#E1E4E5" stroke-width="4"/>
<path d="M627.414 500.453V486.324" stroke="#E1E4E5" stroke-width="4"/>
<path d="M746.414 462.453V448.324" stroke="#E1E4E5" stroke-width="4"/>
<path d="M433.414 504.453V490.324" stroke="#E1E4E5" stroke-width="4"/>
<path d="M201.827 462.456V452.18" stroke="#E1E4E5" stroke-width="4"/>
<path d="M126.827 500.456V490.18" stroke="#E1E4E5" stroke-width="4"/>
<path d="M642.827 500.456V490.18" stroke="#E1E4E5" stroke-width="4"/>
<path d="M761.827 462.456V452.18" stroke="#E1E4E5" stroke-width="4"/>
<path d="M448.827 504.456V494.18" stroke="#E1E4E5" stroke-width="4"/>
<path d="M237.792 462.454V456.031" stroke="#E1E4E5" stroke-width="4"/>
<path d="M162.792 500.454V494.031" stroke="#E1E4E5" stroke-width="4"/>
<path d="M678.792 500.454V494.031" stroke="#E1E4E5" stroke-width="4"/>
<path d="M797.792 462.454V456.031" stroke="#E1E4E5" stroke-width="4"/>
<path d="M484.792 504.454V498.031" stroke="#E1E4E5" stroke-width="4"/>
<path d="M171 462.456V452.18" stroke="#E1E4E5" stroke-width="4"/>
<path d="M96 500.456V490.18" stroke="#E1E4E5" stroke-width="4"/>
<path d="M612 500.456V490.18" stroke="#E1E4E5" stroke-width="4"/>
<path d="M731 462.456V452.18" stroke="#E1E4E5" stroke-width="4"/>
<path d="M418 504.456V494.18" stroke="#E1E4E5" stroke-width="4"/>
<path d="M438.942 182.884C463.21 182.884 482.884 163.21 482.884 138.942C482.884 114.674 463.21 95 438.942 95C414.673 95 395 114.674 395 138.942C395 163.21 414.673 182.884 438.942 182.884Z" fill="#4F27AA"/>
</g>
<defs>
<clipPath id="clip0_1235_27502">
<rect width="900" height="600" fill="white"/>
</clipPath>
</defs>
</svg>
