<svg width="900" height="600" viewBox="0 0 900 600" fill="none" xmlns="http://www.w3.org/2000/svg">
<g clip-path="url(#clip0_1235_27580)">
<path d="M483.251 555.497C624.139 555.497 738.351 441.285 738.351 300.397C738.351 159.509 624.139 45.2969 483.251 45.2969C342.363 45.2969 228.151 159.509 228.151 300.397C228.151 441.285 342.363 555.497 483.251 555.497Z" stroke="url(#paint0_linear_1235_27580)" stroke-width="2.797"/>
<path d="M447.936 271.875V206.813L424.514 168.816L269.405 162.57L206.425 182.87L202.261 261.985L206.425 331.732L236.094 350.47L245.983 400.958L321.455 356.195L397.448 350.47L447.936 323.404V271.875Z" fill="#4F27AA"/>
<path d="M768.248 335.316C749.208 344.761 723.937 332.617 723.937 332.617C723.937 332.617 729.553 305.164 748.604 295.732C767.644 286.287 792.905 298.419 792.905 298.419C792.905 298.419 787.288 325.871 768.248 335.316Z" fill="url(#paint1_linear_1235_27580)"/>
<path d="M377.666 450.679C401.336 464.866 435.295 451.751 435.295 451.751C435.295 451.751 430.854 415.642 407.17 401.471C383.5 387.285 349.555 400.383 349.555 400.383C349.555 400.383 353.996 436.493 377.666 450.679Z" fill="url(#paint2_linear_1235_27580)"/>
<path d="M707.362 472.791C700.342 472.791 694.652 478.481 694.652 485.501C694.652 492.52 700.342 498.211 707.362 498.211C714.382 498.211 720.072 492.52 720.072 485.501C720.072 478.481 714.382 472.791 707.362 472.791Z" fill="#4F27AA"/>
<path d="M309.209 100.113C301.312 100.113 294.91 106.515 294.91 114.412C294.91 122.309 301.312 128.711 309.209 128.711C317.106 128.711 323.508 122.309 323.508 114.412C323.508 106.515 317.106 100.113 309.209 100.113Z" fill="#4F27AA"/>
<path d="M109.036 234.738C102.455 234.738 97.12 229.403 97.12 222.822C97.12 216.241 102.455 210.906 109.036 210.906C115.617 210.906 120.952 216.241 120.952 222.822C120.952 229.403 115.617 234.738 109.036 234.738Z" fill="#4F27AA"/>
<path d="M663.512 266.083C660.441 266.083 657.951 263.593 657.951 260.522C657.951 257.451 660.441 254.961 663.512 254.961C666.583 254.961 669.073 257.451 669.073 260.522C669.073 263.593 666.583 266.083 663.512 266.083Z" fill="#4F27AA"/>
<path d="M516.504 476.767C512.556 476.767 509.355 473.566 509.355 469.618C509.355 465.669 512.556 462.469 516.504 462.469C520.452 462.469 523.653 465.669 523.653 469.618C523.653 473.566 520.452 476.767 516.504 476.767Z" fill="#E1E4E5"/>
<path d="M544.665 533.088C538.961 533.088 534.338 528.464 534.338 522.761C534.338 517.057 538.961 512.434 544.665 512.434C550.368 512.434 554.992 517.057 554.992 522.761C554.992 528.464 550.368 533.088 544.665 533.088Z" fill="#E1E4E5"/>
<path d="M612.374 151.138C608.033 151.138 604.514 147.619 604.514 143.278C604.514 138.937 608.033 135.418 612.374 135.418C616.715 135.418 620.234 138.937 620.234 143.278C620.234 147.619 616.715 151.138 612.374 151.138Z" fill="#E1E4E5"/>
<path d="M146.458 360.23C141.632 360.23 137.72 356.318 137.72 351.492C137.72 346.666 141.632 342.754 146.458 342.754C151.284 342.754 155.196 346.666 155.196 351.492C155.196 356.318 151.284 360.23 146.458 360.23Z" fill="#E1E4E5"/>
<path d="M357.904 77.5919C359.025 81.778 356.541 86.0808 352.355 87.2025C348.169 88.3242 343.866 85.8399 342.745 81.6538C341.623 77.4677 344.107 73.1649 348.293 72.0433C352.479 70.9216 356.782 73.4058 357.904 77.5919Z" fill="#E1E4E5"/>
<path d="M426.104 110.581C420.339 110.581 415.665 105.907 415.665 100.142C415.665 94.3768 420.339 89.7031 426.104 89.7031C431.869 89.7031 436.543 94.3768 436.543 100.142C436.543 105.907 431.869 110.581 426.104 110.581Z" fill="#E1E4E5"/>
<path d="M302.94 437.84C298.505 437.84 294.91 434.964 294.91 431.416C294.91 427.868 298.505 424.992 302.94 424.992C307.375 424.992 310.97 427.868 310.97 431.416C310.97 434.964 307.375 437.84 302.94 437.84Z" fill="#E1E4E5"/>
<path d="M612.058 69.7819C614.392 78.494 609.222 87.4488 600.51 89.7832C591.798 92.1176 582.843 86.9475 580.509 78.2355C578.175 69.5234 583.345 60.5685 592.057 58.2342C600.769 55.8998 609.724 61.0699 612.058 69.7819Z" fill="#E1E4E5"/>
<path d="M155.189 245.852H155.399C156.643 263.477 169.75 263.748 169.75 263.748C169.75 263.748 155.296 264.03 155.296 284.395C155.296 264.03 140.843 263.748 140.843 263.748C140.843 263.748 153.945 263.477 155.189 245.852ZM764.636 384.304H764.822C765.926 400.256 777.556 400.501 777.556 400.501C777.556 400.501 764.731 400.757 764.731 419.188C764.731 400.757 751.906 400.501 751.906 400.501C751.906 400.501 763.532 400.256 764.636 384.304Z" fill="#E1E4E5"/>
<path fill-rule="evenodd" clip-rule="evenodd" d="M256.258 338.505V381.578L326.737 339.931L334.103 339.811C363.394 339.331 389.755 336.382 409.466 333.383C421.905 331.49 430.549 322.809 432.426 311.908C435.031 296.787 437.249 277.63 437.249 256.344C437.249 235.058 435.031 215.901 432.426 200.781C430.549 189.88 421.905 181.198 409.466 179.306C387.907 176.025 358.426 172.81 325.87 172.81C293.315 172.81 263.833 176.025 242.275 179.306C229.836 181.198 221.192 189.88 219.314 200.781C216.71 215.901 214.491 235.058 214.491 256.344C214.491 277.63 216.71 296.787 219.314 311.908C220.945 321.374 227.558 328.961 237.2 332.167L256.258 338.505ZM191.874 196.054C195.914 172.599 214.557 155.358 238.087 151.778C260.632 148.347 291.56 144.965 325.87 144.965C360.181 144.965 391.109 148.347 413.654 151.778C437.184 155.358 455.827 172.599 459.867 196.054C462.683 212.401 465.094 233.167 465.094 256.344C465.094 279.521 462.683 300.287 459.867 316.634C455.827 340.089 437.184 357.331 413.654 360.911C393.029 364.049 365.388 367.147 334.559 367.652L249.419 417.962C240.138 423.446 228.414 416.756 228.414 405.976V358.59C209.571 352.324 195.342 336.768 191.874 316.634C189.058 300.287 186.646 279.521 186.646 256.344C186.646 233.167 189.058 212.401 191.874 196.054Z" fill="#4F27AA"/>
<path fill-rule="evenodd" clip-rule="evenodd" d="M256.258 214.887C248.569 214.887 242.336 221.121 242.336 228.81C242.336 236.499 248.569 242.732 256.258 242.732H395.482C403.171 242.732 409.405 236.499 409.405 228.81C409.405 221.121 403.171 214.887 395.482 214.887H256.258ZM256.258 270.577C248.569 270.577 242.336 276.81 242.336 284.499C242.336 292.189 248.569 298.422 256.258 298.422H311.948C319.637 298.422 325.87 292.189 325.87 284.499C325.87 276.81 319.637 270.577 311.948 270.577H256.258Z" fill="white"/>
<path d="M454.318 349.148V284.086L477.741 246.089L632.849 239.844L695.829 260.143L699.993 339.258L695.829 409.005L666.161 427.743L656.271 478.231L580.799 433.468L504.807 427.743L454.318 400.677V349.148Z" fill="#4F27AA"/>
<path fill-rule="evenodd" clip-rule="evenodd" d="M645.836 416.54V459.612L575.358 417.966L567.991 417.846C538.7 417.366 512.339 414.417 492.629 411.418C480.189 409.525 471.546 400.843 469.668 389.942C467.063 374.822 464.845 355.665 464.845 334.379C464.845 313.093 467.063 293.936 469.668 278.816C471.546 267.915 480.189 259.233 492.629 257.341C514.187 254.06 543.669 250.845 576.224 250.845C608.779 250.845 638.261 254.06 659.819 257.341C672.259 259.233 680.902 267.915 682.78 278.816C685.384 293.936 687.603 313.093 687.603 334.379C687.603 355.665 685.384 374.822 682.78 389.942C681.149 399.409 674.536 406.996 664.894 410.202L645.836 416.54ZM710.22 274.089C706.18 250.634 687.537 233.393 664.008 229.813C641.463 226.382 610.534 223 576.224 223C541.913 223 510.985 226.382 488.44 229.813C464.911 233.393 446.267 250.634 442.227 274.089C439.412 290.436 437 311.202 437 334.379C437 357.556 439.412 378.322 442.227 394.669C446.267 418.124 464.911 435.365 488.44 438.946C509.065 442.084 536.707 445.182 567.535 445.687L652.676 495.997C661.956 501.481 673.681 494.791 673.681 484.011V436.624C692.524 430.359 706.752 414.803 710.22 394.669C713.036 378.322 715.448 357.556 715.448 334.379C715.448 311.202 713.036 290.436 710.22 274.089Z" fill="#4F27AA"/>
<path fill-rule="evenodd" clip-rule="evenodd" d="M506.612 292.922C498.923 292.922 492.69 299.156 492.69 306.845C492.69 314.534 498.923 320.767 506.612 320.767H645.836C653.525 320.767 659.758 314.534 659.758 306.845C659.758 299.156 653.525 292.922 645.836 292.922H506.612ZM506.612 348.612C498.923 348.612 492.69 354.845 492.69 362.534C492.69 370.223 498.923 376.457 506.612 376.457H562.302C569.991 376.457 576.224 370.223 576.224 362.534C576.224 354.845 569.991 348.612 562.302 348.612H506.612Z" fill="white"/>
<path d="M504.167 89.987C505.961 88.9514 507.995 88.4062 510.066 88.4062C512.138 88.4062 514.172 88.9514 515.966 89.987L552.565 111.117C554.359 112.153 555.848 113.642 556.883 115.436C557.919 117.229 558.464 119.264 558.464 121.335V163.596C558.464 167.811 556.216 171.706 552.565 173.814L515.966 194.944C514.172 195.98 512.138 196.525 510.066 196.525C507.995 196.525 505.961 195.98 504.167 194.944L467.568 173.814C465.774 172.778 464.285 171.289 463.25 169.495C462.214 167.702 461.669 165.667 461.669 163.596V121.335C461.669 119.264 462.214 117.229 463.25 115.436C464.285 113.642 465.774 112.153 467.568 111.117L504.167 89.987Z" fill="#4F27AA"/>
<path d="M527.352 132.023L506.953 152.259L494.714 140.118" stroke="white" stroke-width="7.441" stroke-linecap="round" stroke-linejoin="round"/>
</g>
<defs>
<linearGradient id="paint0_linear_1235_27580" x1="494.189" y1="844.512" x2="478.371" y2="-514.156" gradientUnits="userSpaceOnUse">
<stop stop-color="white"/>
<stop offset="1" stop-color="#EEEEEE"/>
</linearGradient>
<linearGradient id="paint1_linear_1235_27580" x1="695.132" y1="364.778" x2="852.176" y2="240.555" gradientUnits="userSpaceOnUse">
<stop stop-color="white"/>
<stop offset="1" stop-color="#EEEEEE"/>
</linearGradient>
<linearGradient id="paint2_linear_1235_27580" x1="469.262" y1="496.345" x2="278.805" y2="319.385" gradientUnits="userSpaceOnUse">
<stop stop-color="white"/>
<stop offset="1" stop-color="#EEEEEE"/>
</linearGradient>
<clipPath id="clip0_1235_27580">
<rect width="900" height="600" fill="white"/>
</clipPath>
</defs>
</svg>
