<svg width="900" height="600" viewBox="0 0 900 600" fill="none" xmlns="http://www.w3.org/2000/svg">
<g clip-path="url(#clip0_1235_27648)">
<path d="M764.223 379.264H703.494C688.613 379.264 676.146 369.136 676.146 356.308C676.146 349.894 679.363 344.155 684.189 340.104C689.016 336.053 695.853 333.352 703.494 333.352H712.342C719.983 333.352 726.82 330.651 731.646 326.6C736.473 322.549 739.69 316.81 739.69 310.396C739.69 297.905 727.625 287.439 712.342 287.439H526.855C522.009 287.439 518.894 281.483 518.894 276.637C518.894 264.483 507.231 254.693 492.753 254.693H423.726C421.98 254.693 420.306 254 419.071 252.765C417.837 251.531 417.143 249.856 417.143 248.11C417.143 246.364 417.837 244.69 419.071 243.455C420.306 242.221 421.98 241.527 423.726 241.527H688.211C699.874 241.527 710.733 237.476 718.375 231.062C726.016 224.648 730.842 215.533 730.842 205.742C730.842 185.825 711.538 169.958 688.211 169.958H551.609C530.175 169.958 508.958 153.416 487.525 153.416H411.257C400.071 153.416 391.002 144.347 391.002 133.16C391.002 121.974 400.071 112.905 411.257 112.905H582.036C590.08 112.905 597.721 110.204 602.95 105.816C608.178 101.427 611.395 95.3502 611.395 88.2612C611.395 74.7572 598.123 63.6172 582.036 63.6172H188.304C180.261 63.6172 172.619 66.3172 167.391 70.7072C162.163 75.0952 158.945 81.1712 158.945 88.2612C158.945 101.764 172.217 112.905 188.304 112.905H198.359C211.631 112.905 222.891 122.02 222.891 133.498C222.891 139.237 220.076 144.301 215.652 148.014C211.228 151.728 205.196 154.091 198.359 154.091H149.695C141.249 154.091 133.206 157.129 127.575 161.856C121.945 166.582 118.325 172.996 118.325 180.423C118.325 194.94 132.401 206.418 149.293 206.418H198.761C214.848 206.418 228.12 217.558 228.12 231.062C228.12 237.814 224.902 243.89 219.674 248.279C214.446 252.668 207.207 255.368 199.163 255.368H154.923C147.684 255.368 141.249 257.731 136.423 261.783C131.597 265.834 128.782 271.235 128.782 277.312C128.782 289.465 140.445 299.255 154.923 299.255H190.717C211.228 299.255 227.718 313.096 227.718 330.314C227.718 338.753 223.696 346.855 216.859 352.257C210.022 357.996 200.772 361.372 190.717 361.372H140.847C130.793 361.372 121.543 364.748 115.108 370.487C108.271 375.888 104.249 383.653 104.249 392.093C104.249 408.972 120.738 422.813 140.847 422.813H294.837C311.843 422.813 328.549 432.266 345.556 432.266H373.601C384.322 432.266 393.013 440.957 393.013 451.677C393.013 462.398 384.322 471.089 373.601 471.089H305.338C296.49 471.089 288.849 474.127 283.218 478.854C277.588 483.58 273.968 490.332 273.968 497.421C273.968 511.937 288.044 523.753 305.338 523.753H723.603C732.451 523.753 740.092 520.715 745.723 515.989C751.353 511.262 754.973 504.51 754.973 497.421C754.973 482.905 740.897 471.089 723.603 471.089H711.135C698.266 471.089 688.211 462.312 688.211 451.846C688.211 446.445 690.624 441.719 695.048 438.343C699.07 434.967 705.103 432.604 711.538 432.604H764.223C773.071 432.604 780.712 429.565 786.343 424.839C791.973 420.113 795.593 413.361 795.593 406.271C795.593 391.08 781.517 379.264 764.223 379.264Z" fill="url(#paint0_linear_1235_27648)"/>
<path d="M811.847 343.013C801.605 348.094 788.011 341.561 788.011 341.561C788.011 341.561 791.032 326.794 801.279 321.721C811.521 316.64 825.11 323.166 825.11 323.166C825.11 323.166 822.089 337.933 811.847 343.013Z" fill="url(#paint1_linear_1235_27648)"/>
<path d="M94.979 337.762C109.934 346.725 131.391 338.439 131.391 338.439C131.391 338.439 128.585 315.624 113.621 306.67C98.665 297.707 77.218 305.983 77.218 305.983C77.218 305.983 80.023 328.798 94.978 337.762H94.979Z" fill="url(#paint2_linear_1235_27648)"/>
<path d="M775.766 185.336C771.925 185.336 768.811 188.45 768.811 192.291C768.811 196.132 771.925 199.246 775.766 199.246C779.607 199.246 782.721 196.132 782.721 192.291C782.721 188.45 779.607 185.336 775.766 185.336Z" fill="#4F27AA"/>
<path d="M623.496 452.834C616.272 452.834 610.415 458.691 610.415 465.915C610.415 473.14 616.272 478.996 623.496 478.996C630.721 478.996 636.577 473.14 636.577 465.915C636.577 458.691 630.721 452.834 623.496 452.834Z" fill="#4F27AA"/>
<path d="M200.113 473.846C194.378 473.846 189.729 469.197 189.729 463.462C189.729 457.727 194.378 453.078 200.113 453.078C205.848 453.078 210.497 457.727 210.497 463.462C210.497 469.197 205.848 473.846 200.113 473.846Z" fill="#4F27AA"/>
<path d="M265.333 196.029C261.493 196.029 258.381 192.916 258.381 189.077C258.381 185.238 261.493 182.125 265.333 182.125C269.172 182.125 272.285 185.238 272.285 189.077C272.285 192.916 269.172 196.029 265.333 196.029Z" fill="#4F27AA"/>
<path d="M86.5929 482.095C79.4624 482.095 73.6819 476.315 73.6819 469.184C73.6819 462.054 79.4624 456.273 86.5929 456.273C93.7235 456.273 99.5039 462.054 99.5039 469.184C99.5039 476.315 93.7235 482.095 86.5929 482.095Z" fill="#E1E4E5"/>
<path d="M786.125 484.273C780.698 484.273 776.299 479.874 776.299 474.447C776.299 469.02 780.698 464.621 786.125 464.621C791.552 464.621 795.951 469.02 795.951 474.447C795.951 479.874 791.552 484.273 786.125 484.273Z" fill="#E1E4E5"/>
<path d="M787.748 142.931C780.926 142.931 775.396 137.4 775.396 130.579C775.396 123.757 780.926 118.227 787.748 118.227C794.57 118.227 800.1 123.757 800.1 130.579C800.1 137.4 794.57 142.931 787.748 142.931Z" fill="#E1E4E5"/>
<path d="M192.996 233.628C194.399 238.861 191.293 244.241 186.06 245.643C180.826 247.045 175.447 243.94 174.045 238.706C172.643 233.473 175.748 228.094 180.982 226.691C186.215 225.289 191.594 228.395 192.996 233.628Z" fill="#E1E4E5"/>
<path d="M294.973 126.911C287.765 126.911 281.922 121.067 281.922 113.86C281.922 106.652 287.765 100.809 294.973 100.809C302.181 100.809 308.024 106.652 308.024 113.86C308.024 121.067 302.181 126.911 294.973 126.911Z" fill="#E1E4E5"/>
<path d="M728.242 364.359C722.698 364.359 718.203 360.763 718.203 356.328C718.203 351.892 722.698 348.297 728.242 348.297C733.787 348.297 738.281 351.892 738.281 356.328C738.281 360.763 733.787 364.359 728.242 364.359Z" fill="#E1E4E5"/>
<path d="M562.296 109.851C562.296 118.7 555.122 125.874 546.273 125.874C537.424 125.874 530.25 118.7 530.25 109.851C530.25 101.002 537.424 93.8281 546.273 93.8281C555.122 93.8281 562.296 101.002 562.296 109.851Z" fill="#E1E4E5"/>
<path d="M200.635 126.199H200.778C201.625 138.198 210.548 138.383 210.548 138.383C210.548 138.383 200.708 138.575 200.708 152.44C200.708 138.575 190.868 138.383 190.868 138.383C190.868 138.383 199.788 138.198 200.635 126.199ZM209.357 511.165H209.494C210.307 523.128 218.875 523.312 218.875 523.312C218.875 523.312 209.427 523.504 209.427 537.327C209.427 523.504 199.979 523.312 199.979 523.312C199.979 523.312 208.543 523.128 209.357 511.165Z" fill="#E1E4E5"/>
<path fill-rule="evenodd" clip-rule="evenodd" d="M305.435 435.121C305.435 423.704 295.095 415.075 283.862 417.117L241.165 424.88C236.949 425.646 233.135 427.868 230.389 431.159C227.644 434.449 226.14 438.598 226.14 442.884V527.247H238.339V468.291L293.236 458.31V515.048H305.435V435.121ZM286.045 429.119C289.789 428.439 293.236 431.315 293.236 435.121V445.911L238.339 455.892V442.884C238.339 441.455 238.84 440.072 239.755 438.976C240.67 437.879 241.942 437.138 243.347 436.883L286.045 429.119Z" fill="#4F27AA"/>
<path fill-rule="evenodd" clip-rule="evenodd" d="M305.435 515.05C305.435 526.841 295.877 536.399 284.086 536.399C272.295 536.399 262.737 526.841 262.737 515.05C262.737 503.259 272.295 493.701 284.086 493.701C295.877 493.701 305.435 503.259 305.435 515.05ZM293.236 515.05C293.236 516.251 292.999 517.441 292.539 518.551C292.08 519.661 291.405 520.67 290.556 521.52C289.706 522.369 288.697 523.043 287.587 523.503C286.477 523.963 285.287 524.199 284.086 524.199C282.884 524.199 281.694 523.962 280.584 523.502C279.474 523.043 278.465 522.369 277.616 521.519C276.766 520.669 276.092 519.66 275.632 518.55C275.173 517.44 274.936 516.25 274.936 515.049C274.936 512.622 275.9 510.295 277.616 508.579C279.332 506.863 281.66 505.899 284.087 505.899C286.513 505.899 288.841 506.863 290.556 508.579C292.272 510.296 293.236 512.623 293.236 515.05ZM238.339 527.249C238.339 539.04 228.781 548.598 216.99 548.598C205.2 548.598 195.641 539.04 195.641 527.249C195.641 515.459 205.2 505.9 216.99 505.9C228.781 505.9 238.339 515.459 238.339 527.249ZM226.14 527.249C226.14 528.45 225.903 529.64 225.443 530.75C224.983 531.861 224.309 532.869 223.46 533.719C222.61 534.569 221.601 535.242 220.491 535.702C219.381 536.162 218.191 536.399 216.989 536.399C215.787 536.399 214.598 536.162 213.487 535.702C212.377 535.242 211.369 534.568 210.519 533.718C209.669 532.868 208.995 531.86 208.535 530.749C208.076 529.639 207.839 528.449 207.839 527.248C207.839 524.821 208.803 522.493 210.52 520.777C212.236 519.061 214.563 518.098 216.99 518.098C219.417 518.098 221.744 519.062 223.46 520.778C225.176 522.494 226.14 524.822 226.14 527.249ZM764.36 234.125C764.36 222.708 754.02 214.079 742.787 216.121L700.09 223.884C695.874 224.65 692.06 226.872 689.314 230.163C686.568 233.453 685.064 237.602 685.064 241.888V326.251H697.264V267.296L752.16 257.315V314.052H764.36V234.125ZM744.97 228.124C748.714 227.443 752.16 230.319 752.16 234.125V244.915L697.264 254.896V241.888C697.264 240.459 697.765 239.076 698.68 237.98C699.596 236.883 700.867 236.142 702.272 235.887L744.97 228.124Z" fill="#4F27AA"/>
<path fill-rule="evenodd" clip-rule="evenodd" d="M764.36 314.048C764.36 325.839 754.802 335.397 743.011 335.397C731.22 335.397 721.662 325.839 721.662 314.048C721.662 302.258 731.22 292.7 743.011 292.7C754.802 292.7 764.36 302.258 764.36 314.048ZM752.16 314.048C752.16 315.25 751.923 316.44 751.464 317.55C751.004 318.66 750.33 319.669 749.48 320.518C748.63 321.368 747.622 322.042 746.512 322.502C745.402 322.962 744.212 323.198 743.01 323.198C741.809 323.198 740.619 322.962 739.509 322.502C738.398 322.042 737.39 321.368 736.54 320.518C735.69 319.669 735.016 318.66 734.557 317.55C734.097 316.44 733.86 315.25 733.86 314.048C733.86 311.622 734.824 309.294 736.54 307.578C738.256 305.862 740.583 304.898 743.01 304.898C745.437 304.898 747.764 305.862 749.48 307.578C751.196 309.294 752.16 311.622 752.16 314.048ZM697.264 326.248C697.264 338.038 687.706 347.596 675.915 347.596C664.124 347.596 654.566 338.038 654.566 326.248C654.566 314.457 664.124 304.899 675.915 304.899C687.706 304.899 697.264 314.457 697.264 326.248ZM685.064 326.248C685.064 328.675 684.1 331.002 682.384 332.718C680.669 334.434 678.342 335.397 675.915 335.397C674.105 335.398 672.336 334.861 670.831 333.856C669.326 332.85 668.153 331.421 667.461 329.749C666.768 328.077 666.587 326.238 666.94 324.463C667.293 322.688 668.164 321.057 669.444 319.777C670.724 318.498 672.354 317.626 674.129 317.273C675.904 316.92 677.744 317.101 679.416 317.794C681.088 318.487 682.517 319.66 683.522 321.165C684.528 322.669 685.064 324.439 685.064 326.248ZM245.019 271.3C245.019 259.883 234.68 251.254 223.447 253.296L180.75 261.059C176.534 261.826 172.72 264.048 169.974 267.338C167.228 270.629 165.724 274.778 165.724 279.063V363.426H177.923V304.471L232.82 294.489V351.227H245.019V271.3ZM225.629 265.298C229.374 264.618 232.82 267.494 232.82 271.3V282.09L177.923 292.071V279.063C177.923 277.635 178.425 276.252 179.34 275.155C180.255 274.059 181.527 273.318 182.932 273.062L225.629 265.298Z" fill="#4F27AA"/>
<path fill-rule="evenodd" clip-rule="evenodd" d="M245.019 351.229C245.019 363.02 235.461 372.578 223.671 372.578C211.88 372.578 202.322 363.02 202.322 351.229C202.322 339.439 211.88 329.88 223.671 329.88C235.461 329.88 245.019 339.439 245.019 351.229ZM232.82 351.229C232.82 353.656 231.856 355.983 230.14 357.699C228.424 359.415 226.097 360.379 223.67 360.379C221.243 360.379 218.916 359.415 217.2 357.699C215.484 355.983 214.52 353.656 214.52 351.229C214.52 348.803 215.484 346.475 217.2 344.759C218.916 343.043 221.243 342.079 223.67 342.079C226.097 342.079 228.424 343.043 230.14 344.759C231.856 346.475 232.82 348.803 232.82 351.229ZM177.923 363.428C177.923 375.219 168.365 384.777 156.575 384.777C144.784 384.777 135.226 375.219 135.226 363.428C135.226 351.638 144.784 342.08 156.575 342.08C168.365 342.08 177.923 351.638 177.923 363.428ZM165.724 363.428C165.724 365.855 164.76 368.182 163.044 369.898C161.328 371.614 159.001 372.578 156.574 372.578C154.147 372.578 151.82 371.614 150.104 369.898C148.388 368.182 147.424 365.855 147.424 363.428C147.424 361.002 148.388 358.674 150.104 356.958C151.82 355.242 154.147 354.278 156.574 354.278C159.001 354.278 161.328 355.242 163.044 356.958C164.76 358.674 165.724 361.002 165.724 363.428ZM703.944 70.3044C703.944 58.8874 693.604 50.2584 682.372 52.3004L639.674 60.0644C635.458 60.8309 631.645 63.0528 628.899 66.3428C626.153 69.6328 624.649 73.7821 624.649 78.0674V162.431H636.848V103.475L691.745 93.4944V150.231H703.944V70.3044ZM684.554 64.3034C688.298 63.6234 691.745 66.4994 691.745 70.3044V81.0944L636.848 91.0764V78.0674C636.848 76.6391 637.35 75.2562 638.265 74.1597C639.181 73.0633 640.452 72.3228 641.857 72.0674L684.554 64.3034Z" fill="#4F27AA"/>
<path fill-rule="evenodd" clip-rule="evenodd" d="M703.944 150.232C703.944 162.022 694.386 171.58 682.595 171.58C670.805 171.58 661.247 162.022 661.247 150.232C661.247 138.441 670.805 128.883 682.595 128.883C694.386 128.883 703.944 138.441 703.944 150.232ZM691.745 150.232C691.745 151.433 691.508 152.623 691.048 153.733C690.588 154.843 689.914 155.852 689.065 156.701C688.215 157.551 687.206 158.225 686.096 158.685C684.986 159.144 683.796 159.381 682.595 159.381C680.168 159.381 677.841 158.417 676.126 156.701C674.41 154.985 673.446 152.658 673.446 150.232C673.446 149.03 673.682 147.84 674.142 146.73C674.602 145.62 675.276 144.612 676.125 143.762C676.975 142.912 677.983 142.238 679.094 141.778C680.204 141.318 681.393 141.082 682.595 141.082C685.022 141.082 687.349 142.046 689.065 143.762C690.781 145.478 691.745 147.805 691.745 150.232ZM636.848 162.431C636.848 174.221 627.29 183.78 615.499 183.78C603.709 183.78 594.151 174.221 594.151 162.431C594.151 150.64 603.709 141.082 615.499 141.082C627.29 141.082 636.848 150.64 636.848 162.431ZM624.649 162.431C624.649 163.632 624.412 164.822 623.952 165.932C623.492 167.042 622.819 168.051 621.969 168.9C621.119 169.75 620.11 170.424 619 170.884C617.89 171.343 616.7 171.58 615.499 171.58C613.689 171.58 611.92 171.043 610.415 170.038C608.911 169.032 607.738 167.603 607.045 165.931C606.353 164.259 606.172 162.419 606.525 160.644C606.878 158.869 607.749 157.239 609.029 155.959C610.309 154.68 611.939 153.808 613.714 153.456C615.489 153.103 617.329 153.284 619.001 153.977C620.673 154.669 622.102 155.842 623.107 157.347C624.113 158.852 624.649 160.621 624.649 162.431Z" fill="#4F27AA"/>
<path d="M333.9 204.199H596.475V413.329H333.9V204.199Z" fill="#4F27AA"/>
<path fill-rule="evenodd" clip-rule="evenodd" d="M464.606 210.959C428.892 210.959 398.32 213.511 375.122 216.411C356.372 218.755 342.12 232.788 339.478 251.552C336.903 269.842 334.85 291.035 334.85 311.881C334.85 332.726 336.903 353.919 339.478 372.209C342.12 390.974 356.372 405.006 375.122 407.35C398.32 410.25 428.892 412.802 464.606 412.802C500.32 412.802 530.891 410.25 554.09 407.35C572.839 405.006 587.091 390.974 589.733 372.209C592.309 353.919 594.362 332.726 594.362 311.881C594.362 291.035 592.309 269.842 589.733 251.552C587.091 232.788 572.839 218.755 554.09 216.411C530.891 213.511 500.32 210.959 464.606 210.959ZM371.546 187.799C339.846 191.762 315.38 215.896 310.925 247.531C308.231 266.665 306.015 289.273 306.015 311.881C306.015 334.489 308.231 357.097 310.925 376.23C315.38 407.865 339.846 432 371.546 435.962C395.757 438.988 427.533 441.636 464.606 441.636C501.678 441.636 533.455 438.988 557.666 435.962C589.366 432 613.832 407.865 618.286 376.23C620.981 357.097 623.196 334.489 623.196 311.881C623.196 289.273 620.981 266.665 618.286 247.531C613.832 215.896 589.366 191.762 557.666 187.799C533.455 184.773 501.678 182.125 464.606 182.125C427.533 182.125 395.757 184.773 371.546 187.799Z" fill="#4F27AA"/>
<path d="M447.08 260.902L511.544 301.192C519.445 306.13 519.445 317.636 511.544 322.574L447.08 362.864C438.683 368.112 427.791 362.075 427.791 352.173V271.593C427.791 261.69 438.683 255.653 447.08 260.902Z" fill="white"/>
</g>
<defs>
<linearGradient id="paint0_linear_1235_27648" x1="464.662" y1="781.732" x2="455.218" y2="-437.026" gradientUnits="userSpaceOnUse">
<stop stop-color="white"/>
<stop offset="1" stop-color="#EEEEEE"/>
</linearGradient>
<linearGradient id="paint1_linear_1235_27648" x1="772.516" y1="358.861" x2="856.992" y2="292.04" gradientUnits="userSpaceOnUse">
<stop stop-color="white"/>
<stop offset="1" stop-color="#EEEEEE"/>
</linearGradient>
<linearGradient id="paint2_linear_1235_27648" x1="152.853" y1="366.615" x2="32.5151" y2="254.805" gradientUnits="userSpaceOnUse">
<stop stop-color="white"/>
<stop offset="1" stop-color="#EEEEEE"/>
</linearGradient>
<clipPath id="clip0_1235_27648">
<rect width="900" height="600" fill="white"/>
</clipPath>
</defs>
</svg>
