<svg width="900" height="600" viewBox="0 0 900 600" fill="none" xmlns="http://www.w3.org/2000/svg">
<g clip-path="url(#clip0_1235_27673)">
<path d="M199.674 335.21C215.885 344.926 239.143 335.944 239.143 335.944C239.143 335.944 236.102 311.213 219.881 301.508C203.67 291.792 180.422 300.763 180.422 300.763C180.422 300.763 183.463 325.494 199.674 335.21Z" fill="url(#paint0_linear_1235_27673)"/>
<path d="M266.88 491.758C260.663 491.758 255.624 486.719 255.624 480.502C255.624 474.286 260.663 469.246 266.88 469.246C273.096 469.246 278.136 474.286 278.136 480.502C278.136 486.719 273.096 491.758 266.88 491.758Z" fill="#4F27AA"/>
<path d="M657.148 121.013C652.986 121.013 649.612 117.639 649.612 113.477C649.612 109.315 652.986 105.941 657.148 105.941C661.31 105.941 664.684 109.315 664.684 113.477C664.684 117.639 661.31 121.013 657.148 121.013Z" fill="#4F27AA"/>
<path d="M143.83 500.701C136.101 500.701 129.835 494.435 129.835 486.706C129.835 478.977 136.101 472.711 143.83 472.711C151.559 472.711 157.825 478.977 157.825 486.706C157.825 494.435 151.559 500.701 143.83 500.701Z" fill="#E1E4E5"/>
<path d="M727.495 106.079C720.1 106.079 714.106 100.084 714.106 92.6898C714.106 85.2952 720.1 79.3008 727.495 79.3008C734.889 79.3008 740.884 85.2952 740.884 92.6898C740.884 100.084 734.889 106.079 727.495 106.079Z" fill="#E1E4E5"/>
<path d="M628.797 296.786C621.402 296.786 615.408 290.791 615.408 283.397C615.408 276.002 621.402 270.008 628.797 270.008C636.192 270.008 642.186 276.002 642.186 283.397C642.186 290.791 636.192 296.786 628.797 296.786Z" fill="#E1E4E5"/>
<path d="M523.174 485.399C515.779 485.399 509.785 479.405 509.785 472.01C509.785 464.616 515.779 458.621 523.174 458.621C530.569 458.621 536.563 464.616 536.563 472.01C536.563 479.405 530.569 485.399 523.174 485.399Z" fill="#E1E4E5"/>
<path d="M232.665 224.173C234.185 229.846 230.818 235.677 225.145 237.197C219.472 238.717 213.641 235.351 212.121 229.678C210.601 224.005 213.968 218.174 219.641 216.654C225.314 215.134 231.145 218.5 232.665 224.173Z" fill="#E1E4E5"/>
<path d="M321.659 294.067C313.846 294.067 307.512 287.734 307.512 279.92C307.512 272.107 313.846 265.773 321.659 265.773C329.472 265.773 335.806 272.107 335.806 279.92C335.806 287.734 329.472 294.067 321.659 294.067Z" fill="#E1E4E5"/>
<path d="M623.785 60.0187C626.949 71.8249 619.943 83.9601 608.136 87.1235C596.33 90.287 584.195 83.2807 581.032 71.4746C577.868 59.6684 584.874 47.5332 596.681 44.3697C608.487 41.2063 620.622 48.2126 623.785 60.0187Z" fill="#E1E4E5"/>
<path d="M291.975 150.809H292.199C293.527 169.401 307.513 169.687 307.513 169.687C307.513 169.687 292.09 169.985 292.09 191.468C292.09 169.985 276.668 169.687 276.668 169.687C276.668 169.687 290.648 169.401 291.975 150.809ZM276.9 532.212H277.049C277.93 545.18 287.217 545.38 287.217 545.38C287.217 545.38 276.976 545.587 276.976 560.571C276.976 545.587 266.735 545.38 266.735 545.38C266.735 545.38 276.018 545.18 276.9 532.212Z" fill="#E1E4E5"/>
<path d="M260.544 425.608H306.812V471.875H353.079V425.608H399.347V471.875H422.48C435.257 471.875 445.614 482.233 445.614 495.009C445.614 507.786 435.257 518.143 422.48 518.143H237.41C224.634 518.143 214.277 507.786 214.277 495.009C214.277 482.233 224.634 471.875 237.41 471.875H260.544V425.608ZM130.043 93.9688H523.616V386.948H130.043V93.9688Z" fill="#4F27AA"/>
<path d="M219.949 241.09C250.852 241.09 275.904 216.038 275.904 185.135C275.904 154.232 250.852 129.18 219.949 129.18C189.046 129.18 163.994 154.232 163.994 185.135C163.994 216.038 189.046 241.09 219.949 241.09Z" fill="white"/>
<path d="M481.493 160.613H309.226C304.712 160.613 301.053 164.272 301.053 168.786C301.053 173.3 304.712 176.959 309.226 176.959H481.493C486.007 176.959 489.666 173.3 489.666 168.786C489.666 164.272 486.007 160.613 481.493 160.613Z" fill="white"/>
<path d="M481.493 275.039H172.167C167.653 275.039 163.994 278.698 163.994 283.212C163.994 287.726 167.653 291.385 172.167 291.385H481.493C486.007 291.385 489.666 287.726 489.666 283.212C489.666 278.698 486.007 275.039 481.493 275.039Z" fill="white"/>
<path d="M480.864 205.879H309.855C304.994 205.879 301.053 209.82 301.053 214.681C301.053 219.542 304.994 223.483 309.855 223.483H480.864C485.725 223.483 489.666 219.542 489.666 214.681C489.666 209.82 485.725 205.879 480.864 205.879Z" fill="white"/>
<path d="M481.493 320.305H172.167C167.653 320.305 163.994 323.964 163.994 328.478C163.994 332.992 167.653 336.651 172.167 336.651H481.493C486.007 336.651 489.666 332.992 489.666 328.478C489.666 323.964 486.007 320.305 481.493 320.305Z" fill="white"/>
<path fill-rule="evenodd" clip-rule="evenodd" d="M144.875 148.004V333.074C144.875 358.627 165.59 379.341 191.143 379.341H468.748C494.301 379.341 515.016 358.627 515.016 333.074V148.004C515.016 122.451 494.301 101.736 468.748 101.736H191.143C165.59 101.736 144.875 122.451 144.875 148.004ZM98.6079 333.074C98.6079 384.18 140.037 425.609 191.143 425.609H468.748C519.854 425.609 561.283 384.18 561.283 333.074V148.004C561.283 96.8978 519.854 55.4688 468.748 55.4688H191.143C140.037 55.4688 98.6079 96.8988 98.6079 148.004V333.074Z" fill="#4F27AA"/>
<path d="M741.89 400.039L786.416 424.973L789.532 435.66L783.744 448.572C775.284 451.392 756.762 456.943 750.35 456.587C743.938 456.23 735.508 462.375 732.094 465.492C730.907 472.319 728.443 486.775 728.087 489.981C727.731 493.187 721.408 509.424 718.291 517.142H696.474L688.459 499.331L649.722 407.163L641.262 374.214L647.05 365.309L675.547 377.776L741.89 400.039Z" fill="#4F27AA"/>
<path fill-rule="evenodd" clip-rule="evenodd" d="M659.92 357.276C641.694 349.682 623.41 367.966 631.004 386.192L683.397 511.934C693.643 536.526 729.684 532.369 734.064 506.091L740.6 466.872L779.819 460.336C806.097 455.956 810.253 419.915 785.662 409.669L659.92 357.276ZM647.333 379.388C645.814 375.743 649.471 372.086 653.116 373.605L778.859 425.998C787.056 429.413 785.67 441.427 776.911 442.887L737.692 449.423C734.055 450.029 730.699 451.756 728.092 454.363C725.485 456.97 723.757 460.327 723.151 463.964L716.615 503.183C715.155 511.942 703.141 513.328 699.726 505.131L647.333 379.388Z" fill="#4F27AA"/>
</g>
<defs>
<linearGradient id="paint0_linear_1235_27673" x1="262.407" y1="366.485" x2="131.966" y2="245.289" gradientUnits="userSpaceOnUse">
<stop stop-color="white"/>
<stop offset="1" stop-color="#EEEEEE"/>
</linearGradient>
<clipPath id="clip0_1235_27673">
<rect width="900" height="600" fill="white"/>
</clipPath>
</defs>
</svg>
