<svg width="900" height="600" viewBox="0 0 900 600" fill="none" xmlns="http://www.w3.org/2000/svg">
<g clip-path="url(#clip0_1235_27695)">
<path d="M779.112 399.482H715.685C700.143 399.482 687.122 388.904 687.122 375.506C687.122 368.807 690.482 362.813 695.523 358.581C700.563 354.35 707.704 351.53 715.685 351.53H724.926C732.907 351.53 740.048 348.709 745.088 344.478C750.129 340.247 753.489 334.253 753.489 327.553C753.489 314.508 740.888 303.577 724.926 303.577H531.198C526.136 303.577 522.883 297.356 522.883 292.294C522.883 279.601 510.702 269.376 495.58 269.376H423.487C421.678 269.354 419.95 268.62 418.679 267.333C417.407 266.046 416.694 264.309 416.694 262.5C416.694 260.691 417.407 258.954 418.679 257.667C419.95 256.38 421.678 255.646 423.487 255.625H699.723C711.905 255.625 723.246 251.394 731.227 244.695C739.208 237.995 744.248 228.475 744.248 218.25C744.248 197.447 724.086 180.876 699.723 180.876H557.051C534.665 180.876 512.506 163.599 490.12 163.599H410.464C398.78 163.599 389.308 154.127 389.308 142.443C389.308 130.759 398.78 121.288 410.464 121.288H588.831C597.232 121.288 605.213 118.467 610.673 113.883C616.134 109.3 619.494 102.953 619.494 95.5486C619.494 81.4446 605.633 69.8086 588.831 69.8086H177.604C169.203 69.8086 161.223 72.6296 155.762 77.2136C150.301 81.7976 146.941 88.1436 146.941 95.5486C146.941 109.652 160.802 121.288 177.604 121.288H188.106C201.967 121.288 213.728 130.808 213.728 142.796C213.728 148.79 210.788 154.079 206.168 157.957C201.547 161.836 195.246 164.304 188.106 164.304H137.28C128.459 164.304 120.058 167.477 114.177 172.414C108.297 177.35 104.516 184.049 104.516 191.806C104.516 206.967 119.218 218.956 136.86 218.956H188.526C205.327 218.956 219.189 230.591 219.189 244.695C219.189 251.746 215.829 258.093 210.368 262.677C204.907 267.26 197.347 270.081 188.946 270.081H142.74C135.18 270.081 128.459 272.549 123.418 276.78C118.378 281.011 115.437 286.653 115.437 293C115.437 305.693 127.619 315.918 142.74 315.918H180.125C201.547 315.918 218.769 330.374 218.769 348.356C218.769 357.171 214.569 365.633 207.428 371.275C200.287 377.269 190.626 380.795 180.125 380.795H128.039C117.538 380.795 107.876 384.321 101.156 390.315C94.015 395.956 89.814 404.066 89.814 412.88C89.814 430.51 107.036 444.966 128.039 444.966H288.871C306.633 444.966 324.081 454.839 341.843 454.839H371.134C382.332 454.839 391.408 463.916 391.408 475.113C391.408 486.31 382.332 495.387 371.135 495.387H299.838C290.597 495.387 282.616 498.56 276.736 503.496C270.855 508.433 267.074 515.484 267.074 522.889C267.074 538.05 281.776 550.391 299.838 550.391H736.687C745.928 550.391 753.909 547.217 759.79 542.281C765.671 537.345 769.451 530.293 769.451 522.889C769.451 507.727 754.749 495.387 736.687 495.387H723.666C710.224 495.387 699.723 486.219 699.723 475.289C699.723 469.648 702.244 464.711 706.864 461.185C711.065 457.659 717.365 455.191 724.086 455.191H779.112C788.353 455.191 796.334 452.018 802.215 447.082C808.096 442.145 811.876 435.094 811.876 427.689C811.876 411.823 797.174 399.482 779.112 399.482Z" fill="url(#paint0_linear_1235_27695)"/>
<path d="M828.853 361.616C818.156 366.922 803.958 360.099 803.958 360.099C803.958 360.099 807.113 344.676 817.816 339.377C828.513 334.071 842.705 340.886 842.705 340.886C842.705 340.886 839.55 356.309 828.853 361.616Z" fill="url(#paint1_linear_1235_27695)"/>
<path d="M80.133 356.133C95.753 365.495 118.163 356.841 118.163 356.841C118.163 356.841 115.233 333.012 99.603 323.66C83.983 314.299 61.583 322.942 61.583 322.942C61.583 322.942 64.513 346.772 80.133 356.133Z" fill="url(#paint2_linear_1235_27695)"/>
<path d="M791.169 196.933C787.157 196.933 783.905 200.185 783.905 204.197C783.905 208.209 787.157 211.461 791.169 211.461C795.181 211.461 798.433 208.209 798.433 204.197C798.433 200.185 795.181 196.933 791.169 196.933Z" fill="#4F27AA"/>
<path d="M638.854 442.809C631.309 442.809 625.192 448.926 625.192 456.471C625.192 464.016 631.309 470.133 638.854 470.133C646.399 470.133 652.516 464.016 652.516 456.471C652.516 448.926 646.399 442.809 638.854 442.809Z" fill="#4F27AA"/>
<path d="M189.938 498.264C183.949 498.264 179.093 493.409 179.093 487.419C179.093 481.43 183.949 476.574 189.938 476.574C195.928 476.574 200.783 481.43 200.783 487.419C200.783 493.409 195.928 498.264 189.938 498.264Z" fill="#4F27AA"/>
<path d="M759.721 287.678C755.711 287.678 752.46 284.427 752.46 280.417C752.46 276.407 755.711 273.156 759.721 273.156C763.731 273.156 766.982 276.407 766.982 280.417C766.982 284.427 763.731 287.678 759.721 287.678Z" fill="#4F27AA"/>
<path d="M71.3749 506.88C63.9273 506.88 57.8899 500.843 57.8899 493.395C57.8899 485.948 63.9273 479.91 71.3749 479.91C78.8224 479.91 84.8599 485.948 84.8599 493.395C84.8599 500.843 78.8224 506.88 71.3749 506.88Z" fill="#E1E4E5"/>
<path d="M801.988 509.151C796.32 509.151 791.725 504.556 791.725 498.888C791.725 493.22 796.32 488.625 801.988 488.625C807.656 488.625 812.251 493.22 812.251 498.888C812.251 504.556 807.656 509.151 801.988 509.151Z" fill="#E1E4E5"/>
<path d="M689.229 140.749C682.104 140.749 676.329 134.974 676.329 127.849C676.329 120.725 682.104 114.949 689.229 114.949C696.353 114.949 702.129 120.725 702.129 127.849C702.129 134.974 696.353 140.749 689.229 140.749Z" fill="#E1E4E5"/>
<path d="M182.507 247.37C183.971 252.836 180.728 258.455 175.262 259.919C169.796 261.384 164.177 258.14 162.713 252.674C161.248 247.208 164.492 241.59 169.958 240.125C175.424 238.661 181.042 241.905 182.507 247.37Z" fill="#E1E4E5"/>
<path d="M289.013 135.91C281.485 135.91 275.382 129.808 275.382 122.279C275.382 114.751 281.485 108.648 289.013 108.648C296.541 108.648 302.644 114.751 302.644 122.279C302.644 129.808 296.541 135.91 289.013 135.91Z" fill="#E1E4E5"/>
<path d="M741.533 383.909C735.742 383.909 731.048 380.153 731.048 375.521C731.048 370.888 735.742 367.133 741.533 367.133C747.324 367.133 752.018 370.888 752.018 375.521C752.018 380.153 747.324 383.909 741.533 383.909Z" fill="#E1E4E5"/>
<path d="M619.979 56.5983C623.027 67.974 616.276 79.6667 604.901 82.7148C593.525 85.7629 581.832 79.0121 578.784 67.6365C575.736 56.2608 582.487 44.5681 593.863 41.52C605.238 38.4719 616.931 45.2227 619.979 56.5983Z" fill="#E1E4E5"/>
<path d="M190.484 135.172H190.633C191.518 147.704 200.838 147.897 200.838 147.897C200.838 147.897 190.561 148.097 190.561 162.578C190.561 148.097 180.283 147.897 180.283 147.897C180.283 147.897 189.599 147.704 190.484 135.172ZM199.593 537.242H199.736C200.585 549.737 209.534 549.929 209.534 549.929C209.534 549.929 199.666 550.129 199.666 564.567C199.666 550.129 189.799 549.929 189.799 549.929C189.799 549.929 198.744 549.737 199.593 537.242Z" fill="#E1E4E5"/>
<path fill-rule="evenodd" clip-rule="evenodd" d="M450.481 462.941C540.761 462.941 613.948 389.754 613.948 299.474C613.948 209.194 540.761 136.008 450.481 136.008C360.201 136.008 287.014 209.194 287.014 299.474C287.014 389.754 360.201 462.941 450.481 462.941ZM450.481 503.808C563.331 503.808 654.814 412.324 654.814 299.474C654.814 186.624 563.331 95.1406 450.481 95.1406C337.631 95.1406 246.148 186.624 246.148 299.474C246.148 412.324 337.631 503.808 450.481 503.808Z" fill="#4F27AA"/>
<path d="M451.638 468.337C547.454 468.337 625.129 390.663 625.129 294.846C625.129 199.03 547.454 121.355 451.638 121.355C355.822 121.355 278.147 199.03 278.147 294.846C278.147 390.663 355.822 468.337 451.638 468.337Z" fill="#4F27AA"/>
<path fill-rule="evenodd" clip-rule="evenodd" d="M432.772 248.407C427.122 258.175 414.622 261.513 404.854 255.863C395.085 250.212 391.747 237.712 397.398 227.944C407.966 209.675 427.769 197.309 450.485 197.309C484.34 197.309 511.785 224.754 511.785 258.609C511.784 281.039 498.025 299.353 481.135 309.692C467.567 317.998 476.026 340.342 450.431 340.342C439.146 340.342 429.998 331.194 429.998 319.909C429.998 319.191 430.035 318.483 430.107 317.784C430.674 306.978 435.492 298.185 440.739 291.791C446.28 285.039 453.565 279.527 459.135 276.215C490.127 257.792 452.327 220.1 432.772 248.407ZM450.431 360.776C439.146 360.776 429.998 369.924 429.998 381.209C429.998 392.494 439.146 401.642 450.431 401.642C461.716 401.642 470.864 392.494 470.864 381.209C470.864 369.924 461.716 360.776 450.431 360.776Z" fill="white"/>
</g>
<defs>
<linearGradient id="paint0_linear_1235_27695" x1="466.241" y1="819.832" x2="456.377" y2="-453.077" gradientUnits="userSpaceOnUse">
<stop stop-color="white"/>
<stop offset="1" stop-color="#EEEEEE"/>
</linearGradient>
<linearGradient id="paint1_linear_1235_27695" x1="787.775" y1="378.167" x2="876.004" y2="308.378" gradientUnits="userSpaceOnUse">
<stop stop-color="white"/>
<stop offset="1" stop-color="#EEEEEE"/>
</linearGradient>
<linearGradient id="paint2_linear_1235_27695" x1="140.579" y1="386.268" x2="14.894" y2="269.49" gradientUnits="userSpaceOnUse">
<stop stop-color="white"/>
<stop offset="1" stop-color="#EEEEEE"/>
</linearGradient>
<clipPath id="clip0_1235_27695">
<rect width="900" height="600" fill="white"/>
</clipPath>
</defs>
</svg>
