<svg width="900" height="600" viewBox="0 0 900 600" fill="none" xmlns="http://www.w3.org/2000/svg">
<g clip-path="url(#clip0_1235_18697)">
<mask id="mask0_1235_18697" style="mask-type:alpha" maskUnits="userSpaceOnUse" x="0" y="0" width="900" height="600">
<path d="M0 0H900V600H0V0Z" fill="white"/>
</mask>
<g mask="url(#mask0_1235_18697)">
<path fill-rule="evenodd" clip-rule="evenodd" d="M559.241 41.9707H562.159C562.496 41.9725 562.819 42.1074 563.058 42.3459C563.296 42.5845 563.43 42.9075 563.432 43.2447V46.1627C563.432 46.8687 562.858 47.4367 562.159 47.4367H559.241C558.541 47.4367 557.967 46.8627 557.967 46.1627V43.2447C557.967 43.0773 557.999 42.9115 558.063 42.7568C558.127 42.6022 558.221 42.4616 558.339 42.3433C558.458 42.225 558.598 42.1313 558.753 42.0675C558.908 42.0037 559.074 41.9712 559.241 41.9717V41.9707ZM569.358 41.9707H572.276C572.613 41.9725 572.936 42.1074 573.175 42.3459C573.413 42.5845 573.548 42.9075 573.549 43.2447V46.1627C573.549 46.8687 572.975 47.4367 572.276 47.4367H569.358C569.02 47.4367 568.695 47.3027 568.455 47.0639C568.215 46.8252 568.08 46.5011 568.078 46.1627V43.2447C568.084 42.5447 568.658 41.9717 569.358 41.9717V41.9707Z" fill="#E1E4E5"/>
<path d="M156.398 355.955C152.201 433.302 303.42 590.578 489.809 532.365C576.496 505.288 569.153 460.348 635.07 401.118C674.36 365.817 730.813 339.123 746.514 287.81C760.078 243.52 751.76 195.914 728.245 164.949C675.359 95.311 568.593 47.626 463.394 157.346C358.196 267.066 167.246 156.472 156.398 355.955Z" fill="url(#paint0_linear_1235_18697)"/>
<path fill-rule="evenodd" clip-rule="evenodd" d="M465.743 507.094C573.47 507.094 660.801 420.023 660.801 312.617C660.801 205.21 573.47 118.139 465.743 118.139C358.015 118.139 270.685 205.21 270.685 312.617C270.685 420.023 358.015 507.094 465.743 507.094Z" fill="#4F27AA"/>
<path d="M473.789 393.773L514.507 312.499H416.978L457.696 231.225" stroke="white" stroke-width="27.865" stroke-linecap="round" stroke-linejoin="round"/>
<path d="M197.538 358.479C203.309 358.479 207.988 363.158 207.988 368.929C207.988 374.7 203.309 379.379 197.538 379.379C191.767 379.379 187.088 374.7 187.088 368.929C187.088 363.158 191.767 358.479 197.538 358.479Z" fill="#4F27AA"/>
<path d="M723.987 245.882C716.988 249.923 708.04 247.525 703.999 240.526C699.958 233.528 702.356 224.579 709.355 220.539C716.353 216.498 725.302 218.896 729.342 225.894C733.383 232.893 730.985 241.842 723.987 245.882Z" fill="#4F27AA"/>
<path d="M215.534 230.762C209.442 230.762 204.504 235.701 204.504 241.792C204.504 247.884 209.442 252.822 215.534 252.822C221.626 252.822 226.564 247.884 226.564 241.792C226.564 235.701 221.626 230.762 215.534 230.762Z" fill="#E1E4E5"/>
<path d="M492.264 94.5952C485.466 98.52 476.774 96.1909 472.849 89.3929C468.924 82.5949 471.253 73.9024 478.051 69.9776C484.849 66.0528 493.542 68.3819 497.467 75.1799C501.391 81.9779 499.062 90.6704 492.264 94.5952Z" fill="#E1E4E5"/>
<path d="M307.258 130.212C315.273 130.212 321.771 123.714 321.771 115.699C321.771 107.683 315.273 101.186 307.258 101.186C299.243 101.186 292.745 107.683 292.745 115.699C292.745 123.714 299.243 130.212 307.258 130.212Z" fill="#4F27AA"/>
<path d="M620.037 504.347C612.777 500.155 603.495 502.643 599.303 509.902C595.112 517.162 597.599 526.444 604.859 530.636C612.118 534.827 621.401 532.34 625.592 525.08C629.784 517.821 627.296 508.538 620.037 504.347Z" fill="#4F27AA"/>
<path d="M229.467 489.677C223.375 489.677 218.437 484.739 218.437 478.647C218.437 472.555 223.375 467.617 229.467 467.617C235.559 467.617 240.497 472.555 240.497 478.647C240.497 484.739 235.559 489.677 229.467 489.677Z" fill="#E1E4E5"/>
<path d="M784.842 306.505C788.796 308.788 790.15 313.843 787.868 317.797C785.585 321.75 780.53 323.105 776.576 320.822C772.622 318.54 771.268 313.484 773.55 309.531C775.833 305.577 780.888 304.223 784.842 306.505Z" fill="#E1E4E5"/>
<path d="M735.425 374.475C726.118 369.102 714.218 372.291 708.845 381.597C703.472 390.904 706.66 402.804 715.967 408.177C725.274 413.55 737.174 410.362 742.547 401.055C747.92 391.749 744.732 379.848 735.425 374.475Z" fill="#E1E4E5"/>
<path d="M678.556 131.686L652.55 157.692C651.603 158.639 651.603 160.174 652.55 161.121C653.497 162.068 655.032 162.068 655.979 161.121L681.985 135.115C682.932 134.168 682.932 132.633 681.985 131.686C681.038 130.739 679.503 130.739 678.556 131.686Z" fill="#E1E4E5"/>
<path d="M676.01 150.304L668.51 157.805C667.563 158.752 667.563 160.287 668.51 161.234C669.457 162.181 670.992 162.181 671.939 161.234L679.439 153.734C680.386 152.787 680.386 151.252 679.439 150.304C678.492 149.357 676.957 149.357 676.01 150.304Z" fill="#E1E4E5"/>
<path d="M119.507 300.377L145.513 274.371C146.46 273.424 146.46 271.889 145.513 270.942C144.566 269.995 143.031 269.994 142.084 270.942L116.078 296.947C115.131 297.895 115.131 299.43 116.078 300.377C117.025 301.324 118.56 301.324 119.507 300.377Z" fill="#E1E4E5"/>
<path d="M122.052 281.758L129.552 274.258C130.499 273.311 130.499 271.775 129.552 270.828C128.605 269.881 127.07 269.881 126.123 270.828L118.622 278.329C117.675 279.276 117.675 280.811 118.622 281.758C119.569 282.705 121.105 282.705 122.052 281.758Z" fill="#E1E4E5"/>
<path d="M318.778 505.996L292.772 532.002C291.825 532.949 291.825 534.485 292.772 535.432C293.719 536.379 295.254 536.379 296.201 535.432L322.207 509.426C323.154 508.479 323.154 506.943 322.207 505.996C321.26 505.049 319.725 505.049 318.778 505.996Z" fill="#E1E4E5"/>
<path d="M316.232 524.615L308.732 532.115C307.785 533.062 307.785 534.598 308.732 535.545C309.679 536.492 311.214 536.492 312.161 535.545L319.662 528.045C320.609 527.097 320.609 525.562 319.662 524.615C318.715 523.668 317.179 523.668 316.232 524.615Z" fill="#E1E4E5"/>
<path d="M368.713 97.6172L394.719 71.6112C395.666 70.6642 395.666 69.1288 394.719 68.1818C393.772 67.2347 392.237 67.2347 391.29 68.1818L365.284 94.1877C364.337 95.1347 364.337 96.6702 365.284 97.6172C366.231 98.5642 367.766 98.5642 368.713 97.6172Z" fill="#E1E4E5"/>
<path d="M371.258 78.9963L378.758 71.496C379.705 70.549 379.705 69.0135 378.758 68.0665C377.811 67.1195 376.276 67.1195 375.329 68.0665L367.829 75.5668C366.882 76.5138 366.882 78.0492 367.829 78.9963C368.776 79.9433 370.311 79.9433 371.258 78.9963Z" fill="#E1E4E5"/>
<path fill-rule="evenodd" clip-rule="evenodd" d="M539.001 53.8223H541.919C542.625 53.8223 543.193 54.3963 543.193 55.0953V58.0133C543.193 58.7193 542.619 59.2873 541.919 59.2873H539.001C538.663 59.286 538.34 59.1513 538.102 58.9126C537.863 58.6739 537.729 58.3507 537.728 58.0133V55.0953C537.728 54.928 537.76 54.7623 537.824 54.6076C537.888 54.453 537.982 54.3125 538.1 54.1942C538.218 54.076 538.359 53.9822 538.513 53.9184C538.668 53.8545 538.834 53.8219 539.001 53.8223ZM549.118 53.8223H552.036C552.736 53.8223 553.31 54.3963 553.31 55.0953V58.0133C553.31 58.7193 552.736 59.2873 552.036 59.2873H549.118C548.78 59.286 548.457 59.1513 548.219 58.9126C547.98 58.6739 547.846 58.3507 547.845 58.0133V55.0953C547.845 54.3953 548.419 53.8223 549.118 53.8223ZM559.241 53.8223H562.159C562.858 53.8223 563.432 54.3963 563.432 55.0953V58.0133C563.432 58.7193 562.858 59.2873 562.159 59.2873H559.241C558.541 59.2873 557.967 58.7133 557.967 58.0133V55.0953C557.966 54.9279 557.999 54.7621 558.063 54.6074C558.127 54.4527 558.221 54.3122 558.339 54.1939C558.458 54.0756 558.598 53.9819 558.753 53.9181C558.908 53.8543 559.074 53.8217 559.241 53.8223ZM569.357 53.8223H572.275C572.975 53.8223 573.549 54.3963 573.549 55.0953V58.0133C573.549 58.7193 572.975 59.2873 572.275 59.2873H569.357C569.019 59.287 568.694 59.1529 568.455 58.9141C568.215 58.6754 568.079 58.3515 568.078 58.0133V55.0953C568.084 54.3953 568.658 53.8223 569.357 53.8223ZM579.475 53.8223H582.392C583.098 53.8223 583.672 54.3963 583.672 55.0953V58.0133C583.672 58.7193 583.098 59.2873 582.392 59.2873H579.475C578.775 59.2873 578.201 58.7133 578.201 58.0133V55.0953C578.201 54.3953 578.775 53.8223 579.475 53.8223ZM549.489 64.8533H552.407C553.106 64.8533 553.68 65.4273 553.68 66.1273V69.0513C553.68 69.7513 553.106 70.3243 552.407 70.3243H549.489C549.151 70.324 548.828 70.1898 548.589 69.9512C548.35 69.7125 548.215 69.3889 548.215 69.0513V66.1333C548.214 65.9654 548.246 65.799 548.31 65.6436C548.373 65.4882 548.467 65.3469 548.585 65.228C548.704 65.109 548.845 65.0146 549 64.9503C549.155 64.886 549.321 64.853 549.489 64.8533ZM559.605 64.8533H562.523C563.223 64.8533 563.797 65.4273 563.797 66.1273V69.0513C563.797 69.7513 563.223 70.3243 562.523 70.3243H559.605C559.268 70.323 558.945 70.1884 558.706 69.95C558.468 69.7115 558.333 69.3885 558.332 69.0513V66.1333C558.331 65.9655 558.363 65.7991 558.427 65.6438C558.49 65.4885 558.584 65.3473 558.702 65.2283C558.82 65.1093 558.961 65.0149 559.116 64.9506C559.271 64.8862 559.437 64.8531 559.605 64.8533ZM569.723 64.8533H572.64C573.346 64.8533 573.92 65.4273 573.92 66.1273V69.0513C573.92 69.7513 573.346 70.3243 572.64 70.3243H569.723C569.023 70.3243 568.449 69.7503 568.449 69.0513V66.1333C568.449 65.4273 569.023 64.8533 569.723 64.8533ZM695.021 456.717H692.103C691.765 456.717 691.442 456.582 691.203 456.343C690.964 456.105 690.83 455.781 690.83 455.443V452.525C690.83 451.82 691.404 451.252 692.103 451.252H695.021C695.721 451.252 696.295 451.826 696.295 452.525V455.443C696.295 455.611 696.263 455.777 696.199 455.931C696.135 456.086 696.041 456.227 695.923 456.345C695.805 456.464 695.664 456.558 695.509 456.621C695.354 456.685 695.188 456.718 695.021 456.717ZM684.904 456.717H681.986C681.648 456.716 681.325 456.581 681.087 456.343C680.848 456.104 680.714 455.781 680.713 455.443V452.525C680.713 451.82 681.287 451.252 681.986 451.252H684.904C685.604 451.252 686.178 451.826 686.178 452.525V455.443C686.178 456.143 685.604 456.717 684.904 456.717ZM674.781 456.717H671.864C671.164 456.717 670.59 456.143 670.59 455.443V452.525C670.59 451.82 671.164 451.252 671.864 451.252H674.781C675.481 451.252 676.055 451.826 676.055 452.525V455.443C676.055 455.611 676.023 455.777 675.959 455.931C675.895 456.086 675.801 456.227 675.683 456.345C675.565 456.464 675.424 456.558 675.269 456.621C675.114 456.685 674.948 456.718 674.781 456.717ZM664.665 456.717H661.747C661.047 456.717 660.473 456.143 660.473 455.443V452.525C660.473 451.82 661.047 451.252 661.747 451.252H664.665C665.003 451.253 665.327 451.387 665.567 451.625C665.806 451.864 665.942 452.187 665.944 452.525V455.443C665.938 456.143 665.364 456.717 664.665 456.717ZM654.548 456.717H651.63C651.292 456.717 650.967 456.583 650.728 456.344C650.488 456.105 650.352 455.782 650.351 455.443V452.525C650.351 451.82 650.925 451.252 651.63 451.252H654.548C655.248 451.252 655.822 451.826 655.822 452.525V455.443C655.822 456.143 655.248 456.717 654.548 456.717ZM684.533 445.685H681.616C680.916 445.685 680.342 445.111 680.342 444.412V441.488C680.342 440.788 680.916 440.214 681.616 440.214H684.533C685.239 440.214 685.807 440.788 685.807 441.488V444.406C685.808 444.574 685.775 444.74 685.712 444.896C685.648 445.051 685.555 445.192 685.436 445.311C685.318 445.43 685.177 445.524 685.022 445.588C684.867 445.653 684.701 445.686 684.533 445.685ZM674.417 445.685H671.499C670.799 445.685 670.225 445.111 670.225 444.412V441.488C670.225 440.788 670.799 440.214 671.499 440.214H674.417C675.116 440.214 675.69 440.788 675.69 441.488V444.406C675.691 444.574 675.659 444.74 675.595 444.895C675.531 445.051 675.438 445.192 675.319 445.311C675.201 445.429 675.06 445.524 674.906 445.588C674.751 445.652 674.585 445.685 674.417 445.685ZM664.3 445.685H661.382C661.044 445.685 660.72 445.551 660.48 445.312C660.24 445.074 660.105 444.75 660.103 444.412V441.488C660.103 440.788 660.677 440.214 661.382 440.214H664.3C664.999 440.214 665.573 440.788 665.573 441.488V444.406C665.573 444.744 665.439 445.069 665.2 445.308C664.962 445.548 664.638 445.683 664.3 445.685ZM674.781 468.567H671.864C671.164 468.567 670.59 467.993 670.59 467.294V464.376C670.59 463.67 671.164 463.102 671.864 463.102H674.781C675.481 463.102 676.055 463.676 676.055 464.376V467.294C676.055 467.462 676.023 467.627 675.959 467.782C675.895 467.937 675.801 468.077 675.683 468.196C675.564 468.314 675.424 468.408 675.269 468.471C675.114 468.535 674.948 468.568 674.781 468.567ZM664.665 468.567H661.747C661.047 468.567 660.473 467.993 660.473 467.294V464.376C660.473 463.67 661.047 463.102 661.747 463.102H664.665C665.003 463.103 665.328 463.237 665.567 463.475C665.807 463.714 665.942 464.038 665.944 464.376V467.294C665.94 467.632 665.804 467.954 665.565 468.192C665.326 468.431 665.002 468.565 664.665 468.567ZM231.321 174.572H234.239C234.944 174.572 235.512 175.146 235.512 175.845V178.763C235.512 179.469 234.938 180.037 234.239 180.037H231.321C230.621 180.037 230.047 179.463 230.047 178.763V175.845C230.046 175.678 230.079 175.512 230.143 175.357C230.207 175.203 230.301 175.062 230.419 174.944C230.538 174.826 230.678 174.732 230.833 174.668C230.988 174.604 231.154 174.572 231.321 174.572ZM241.438 174.572H244.355C245.055 174.572 245.629 175.146 245.629 175.845V178.763C245.629 179.469 245.055 180.037 244.355 180.037H241.438C240.738 180.037 240.164 179.463 240.164 178.763V175.845C240.164 175.146 240.738 174.572 241.438 174.572ZM251.56 174.572H254.478C255.178 174.572 255.752 175.146 255.752 175.845V178.763C255.752 179.469 255.178 180.037 254.478 180.037H251.56C251.222 180.036 250.899 179.901 250.661 179.663C250.422 179.424 250.288 179.101 250.287 178.763V175.845C250.286 175.678 250.319 175.512 250.383 175.358C250.447 175.203 250.541 175.063 250.659 174.944C250.777 174.826 250.918 174.732 251.072 174.668C251.227 174.605 251.393 174.572 251.56 174.572ZM261.677 174.572H264.595C265.294 174.572 265.868 175.146 265.868 175.845V178.763C265.868 179.469 265.294 180.037 264.595 180.037H261.677C261.338 180.037 261.014 179.903 260.774 179.664C260.534 179.426 260.398 179.102 260.397 178.763V175.845C260.401 175.508 260.537 175.185 260.777 174.947C261.016 174.709 261.339 174.574 261.677 174.572ZM271.794 174.572H274.712C275.05 174.573 275.374 174.707 275.614 174.945C275.853 175.184 275.989 175.507 275.991 175.845V178.763C275.991 179.469 275.417 180.037 274.712 180.037H271.794C271.094 180.037 270.52 179.463 270.52 178.763V175.845C270.52 175.146 271.094 174.572 271.794 174.572ZM241.808 185.603H244.726C245.426 185.603 246 186.177 246 186.877V189.801C246 190.5 245.426 191.074 244.726 191.074H241.808C241.47 191.074 241.147 190.94 240.908 190.701C240.669 190.462 240.535 190.139 240.535 189.801V186.883C240.534 186.715 240.566 186.549 240.629 186.394C240.693 186.238 240.787 186.097 240.905 185.978C241.023 185.859 241.164 185.765 241.319 185.701C241.474 185.636 241.64 185.603 241.808 185.603ZM251.925 185.603H254.843C255.542 185.603 256.116 186.177 256.116 186.877V189.801C256.116 190.5 255.542 191.074 254.843 191.074H251.925C251.588 191.073 251.265 190.938 251.026 190.7C250.788 190.462 250.653 190.138 250.652 189.801V186.883C250.651 186.715 250.683 186.549 250.746 186.394C250.81 186.238 250.904 186.097 251.022 185.978C251.14 185.859 251.281 185.765 251.436 185.701C251.591 185.636 251.757 185.603 251.925 185.603ZM262.042 185.603H264.96C265.298 185.604 265.623 185.738 265.862 185.976C266.102 186.215 266.237 186.539 266.239 186.877V189.801C266.237 190.139 266.102 190.463 265.862 190.701C265.622 190.94 265.298 191.074 264.96 191.074H262.042C261.342 191.074 260.768 190.5 260.768 189.801V186.883C260.768 186.177 261.342 185.603 262.042 185.603ZM251.56 162.721H254.478C255.178 162.721 255.752 163.295 255.752 163.995V166.912C255.752 167.618 255.178 168.186 254.478 168.186H251.56C251.222 168.185 250.899 168.05 250.661 167.812C250.422 167.573 250.288 167.25 250.287 166.912V163.995C250.286 163.828 250.319 163.662 250.383 163.507C250.446 163.353 250.54 163.212 250.658 163.094C250.777 162.975 250.917 162.881 251.072 162.817C251.227 162.754 251.393 162.721 251.56 162.721ZM261.677 162.721H264.595C265.294 162.721 265.868 163.295 265.868 163.995V166.912C265.868 167.618 265.294 168.186 264.595 168.186H261.677C261.338 168.186 261.014 168.052 260.774 167.813C260.534 167.575 260.398 167.251 260.397 166.912V163.995C260.403 163.295 260.977 162.721 261.677 162.721Z" fill="#E1E4E5"/>
</g>
</g>
<defs>
<linearGradient id="paint0_linear_1235_18697" x1="337.138" y1="819.586" x2="620.002" y2="-456.601" gradientUnits="userSpaceOnUse">
<stop stop-color="white"/>
<stop offset="1" stop-color="#EEEEEE"/>
</linearGradient>
<clipPath id="clip0_1235_18697">
<rect width="900" height="600" fill="white"/>
</clipPath>
</defs>
</svg>
