<svg width="900" height="600" viewBox="0 0 900 600" fill="none" xmlns="http://www.w3.org/2000/svg">
<g clip-path="url(#clip0_1235_27715)">
<path d="M445.556 147.184L409.203 180.794L336.496 195.884L332.38 249.385L316.604 268.591L296.713 315.233C309.059 323.692 334.301 341.023 336.496 342.669C338.691 344.315 329.179 358.903 324.149 365.99V396.171C334.438 402.344 355.839 414.827 359.131 415.376C363.247 416.062 385.882 412.632 388.625 409.889C391.369 407.145 422.921 439.383 429.094 443.499C435.267 447.614 455.845 453.787 459.274 453.101C462.018 452.553 475.05 438.697 481.224 431.838L512.776 419.492L565.591 409.889L571.078 354.33L595.771 311.803L598.515 287.11L560.104 237.724L551.873 185.595L481.224 173.935L445.556 147.184Z" fill="#4F27AA"/>
<path fill-rule="evenodd" clip-rule="evenodd" d="M476.499 188.498L463.155 170.899C456.385 161.97 442.962 161.97 436.192 170.899L422.848 188.498C419.038 193.522 413.959 197.443 408.133 199.856C402.307 202.269 395.943 203.088 389.696 202.229L367.816 199.221C356.715 197.695 347.224 207.186 348.75 218.287L351.759 240.167C352.618 246.414 351.799 252.777 349.386 258.603C346.972 264.429 343.052 269.508 338.027 273.318L320.428 286.662C311.5 293.433 311.5 306.856 320.428 313.626L338.027 326.97C343.052 330.78 346.972 335.858 349.385 341.684C351.799 347.51 352.618 353.873 351.759 360.121L348.75 382.001C347.224 393.102 356.715 402.594 367.816 401.067L389.696 398.059C395.943 397.2 402.307 398.019 408.133 400.432C413.959 402.845 419.038 406.766 422.848 411.791L436.192 429.389C442.962 438.318 456.385 438.318 463.155 429.389L476.499 411.791C480.309 406.766 485.388 402.845 491.214 400.432C497.04 398.019 503.404 397.2 509.651 398.059L531.53 401.067C542.631 402.594 552.123 393.102 550.597 382.001L547.588 360.121C546.729 353.873 547.548 347.51 549.962 341.684C552.375 335.858 556.295 330.78 561.32 326.97L578.919 313.626C587.847 306.856 587.847 293.433 578.919 286.662L561.32 273.318C556.295 269.508 552.375 264.429 549.961 258.603C547.548 252.777 546.729 246.414 547.588 240.167L550.597 218.287C552.123 207.186 542.631 197.695 531.53 199.221L509.651 202.229C503.404 203.088 497.04 202.269 491.214 199.856C485.388 197.443 480.309 193.522 476.499 188.498ZM490.119 150.454C469.808 123.667 429.539 123.667 409.228 150.454L395.884 168.052C395.703 168.291 395.461 168.478 395.183 168.593C394.906 168.708 394.603 168.747 394.305 168.706L372.426 165.698C339.123 161.119 310.648 189.593 315.227 222.896L318.236 244.776C318.277 245.073 318.238 245.376 318.123 245.654C318.008 245.931 317.821 246.173 317.582 246.355L299.983 259.699C273.197 280.01 273.197 320.279 299.983 340.589L317.582 353.934C318.069 354.303 318.319 354.907 318.236 355.512L315.227 377.392C310.648 410.695 339.123 439.169 372.426 434.59L394.305 431.582C394.603 431.541 394.906 431.58 395.183 431.695C395.461 431.81 395.703 431.996 395.884 432.236L409.228 449.834C429.539 476.621 469.808 476.621 490.119 449.834L503.463 432.236C503.644 431.996 503.886 431.81 504.163 431.695C504.441 431.58 504.744 431.541 505.041 431.582L526.921 434.59C560.224 439.169 588.699 410.695 584.12 377.392L581.111 355.512C581.07 355.214 581.109 354.911 581.224 354.634C581.339 354.357 581.526 354.115 581.765 353.934L599.364 340.589C626.15 320.279 626.15 280.01 599.364 259.699L581.765 246.355C581.526 246.173 581.339 245.931 581.224 245.654C581.109 245.376 581.07 245.073 581.111 244.776L584.12 222.896C588.699 189.593 560.224 161.119 526.921 165.698L505.041 168.706C504.744 168.747 504.441 168.708 504.163 168.593C503.886 168.478 503.644 168.291 503.463 168.052L490.119 150.454Z" fill="#4F27AA"/>
<path d="M507.853 272.353L421.885 358.321C413.492 366.714 399.884 366.714 391.491 358.321C383.098 349.928 383.098 336.32 391.491 327.927L477.459 241.959C485.852 233.566 499.46 233.566 507.853 241.959C516.246 250.352 516.246 263.96 507.853 272.353ZM428.18 257.156C428.18 269.025 418.557 278.648 406.688 278.648C394.818 278.648 385.196 269.025 385.196 257.156C385.196 245.286 394.818 235.664 406.688 235.664C418.557 235.664 428.18 245.286 428.18 257.156ZM471.164 343.124C471.164 354.993 480.786 364.616 492.656 364.616C504.525 364.616 514.148 354.993 514.148 343.124C514.148 331.254 504.525 321.632 492.656 321.632C480.786 321.632 471.164 331.254 471.164 343.124Z" fill="white"/>
<path d="M171.519 282.635C115.454 282.635 70.0042 237.186 70.0042 181.12C70.0042 125.055 115.454 79.6055 171.519 79.6055C227.584 79.6055 273.034 125.055 273.034 181.12C273.034 237.186 227.584 282.635 171.519 282.635Z" fill="#4F27AA"/>
<path fill-rule="evenodd" clip-rule="evenodd" d="M206.525 216.637V221.632C206.524 222.957 205.996 224.228 205.059 225.164C204.121 226.101 202.85 226.627 201.524 226.627H141.515C140.19 226.627 138.918 226.101 137.981 225.164C137.043 224.228 136.515 222.957 136.514 221.632V216.557C136.514 201.442 153.807 191.622 171.519 191.622C189.232 191.622 206.525 201.447 206.525 216.557M183.895 147.74C190.731 154.576 190.731 165.658 183.895 172.493C177.06 179.328 165.978 179.328 159.143 172.493C152.308 165.658 152.308 154.576 159.143 147.74C165.978 140.905 177.06 140.905 183.895 147.74Z" fill="white"/>
<path d="M728.484 518.757C672.419 518.757 626.969 473.307 626.969 417.242C626.969 361.176 672.419 315.727 728.484 315.727C784.549 315.727 829.999 361.176 829.999 417.242C829.999 473.307 784.549 518.757 728.484 518.757Z" fill="#4F27AA"/>
<path fill-rule="evenodd" clip-rule="evenodd" d="M763.491 452.758V457.753C763.49 459.078 762.962 460.349 762.024 461.285C761.087 462.222 759.815 462.748 758.49 462.748H698.481C697.156 462.748 695.884 462.222 694.947 461.285C694.009 460.349 693.481 459.078 693.48 457.753V452.678C693.48 437.563 710.773 427.743 728.485 427.743C746.198 427.743 763.491 437.568 763.491 452.678M740.861 383.861C747.696 390.696 747.696 401.778 740.861 408.614C734.026 415.449 722.944 415.449 716.109 408.614C709.274 401.778 709.274 390.696 716.109 383.861C722.944 377.026 734.026 377.026 740.861 383.861Z" fill="white"/>
<path d="M728.481 282.635C672.416 282.635 626.966 237.186 626.966 181.12C626.966 125.055 672.416 79.6055 728.481 79.6055C784.546 79.6055 829.996 125.055 829.996 181.12C829.996 237.186 784.546 282.635 728.481 282.635Z" fill="#4F27AA"/>
<path fill-rule="evenodd" clip-rule="evenodd" d="M715.762 211.295V204.287H724.506L731.929 196.847L742.176 201.209C743.991 201.982 745.995 202.193 747.931 201.816C749.866 201.439 751.645 200.49 753.036 199.092L767.59 184.506C768.984 183.107 769.93 181.325 770.306 179.386C770.682 177.447 770.472 175.44 769.702 173.621L762.274 156.095C761.275 153.733 759.397 151.852 757.037 150.847L739.55 143.402C737.735 142.63 735.731 142.418 733.795 142.796C731.859 143.173 730.081 144.122 728.689 145.519L714.135 160.105C712.741 161.504 711.796 163.287 711.421 165.226C711.046 167.165 711.257 169.171 712.028 170.989L716.266 180.996L686.475 210.854V226.625H702.212L708.769 220.053V211.29H715.762V211.295Z" fill="white"/>
<path fill-rule="evenodd" clip-rule="evenodd" d="M740.706 164.789C736.523 164.807 733.127 168.202 733.145 172.385C733.145 176.568 736.558 179.964 740.741 179.946C742.751 179.946 744.678 179.147 746.099 177.726C747.52 176.305 748.318 174.378 748.319 172.368C748.318 170.358 747.519 168.431 746.099 167.01C744.678 165.589 742.751 164.79 740.741 164.789M260.412 468.317C268.662 453.626 273.42 436.697 273.42 418.638C273.42 362.462 227.888 316.93 171.712 316.93C115.535 316.93 70.0039 362.462 70.0039 418.638C70.0039 474.815 115.535 520.347 171.712 520.347C189.771 520.347 206.699 515.589 221.39 507.339L273.42 520.347L260.412 468.317Z" fill="#4F27AA"/>
<path fill-rule="evenodd" clip-rule="evenodd" d="M176.403 462.295H167.717C166.565 462.295 165.46 462.753 164.646 463.567C163.831 464.382 163.374 465.486 163.374 466.638C163.374 467.79 163.831 468.895 164.646 469.709C165.46 470.524 166.565 470.981 167.717 470.981H176.403C177.555 470.981 178.659 470.524 179.474 469.709C180.288 468.895 180.746 467.79 180.746 466.638C180.746 465.486 180.288 464.382 179.474 463.567C178.659 462.753 177.555 462.295 176.403 462.295ZM167.717 453.609C160.522 453.609 154.688 459.442 154.688 466.638C154.688 473.833 160.522 479.666 167.717 479.666H176.403C183.598 479.666 189.431 473.833 189.431 466.638C189.431 459.442 183.598 453.609 176.403 453.609H167.717ZM190.051 426.467H154.068C151.584 426.467 149.57 428.411 149.57 430.81C149.57 433.208 151.584 435.152 154.068 435.152H190.051C192.535 435.152 194.549 433.208 194.549 430.81C194.549 428.411 192.535 426.467 190.051 426.467ZM154.068 417.781C146.616 417.781 140.574 423.614 140.574 430.81C140.574 438.005 146.616 443.838 154.068 443.838H190.051C197.504 443.838 203.545 438.005 203.545 430.81C203.545 423.614 197.504 417.781 190.051 417.781H154.068ZM203.219 391.001H140.9C138.442 391.001 136.449 393.026 136.449 395.524C136.449 398.023 138.442 400.048 140.9 400.048H203.219C205.678 400.048 207.671 398.023 207.671 395.524C207.671 393.026 205.678 391.001 203.219 391.001ZM140.9 381.953C133.525 381.953 127.546 388.029 127.546 395.524C127.546 403.02 133.525 409.096 140.9 409.096H203.219C210.595 409.096 216.574 403.02 216.574 395.524C216.574 388.029 210.595 381.953 203.219 381.953H140.9Z" fill="white"/>
<path d="M134.06 388.469H208.973V403.669H134.06V388.469ZM148.174 424.297H197.031V439.497H148.174V424.297ZM161.203 459.04H181.831V474.24H161.203V459.04Z" fill="white"/>
</g>
<defs>
<clipPath id="clip0_1235_27715">
<rect width="900" height="600" fill="white"/>
</clipPath>
</defs>
</svg>
