<svg width="900" height="600" viewBox="0 0 900 600" fill="none" xmlns="http://www.w3.org/2000/svg">
<g clip-path="url(#clip0_1235_27746)">
<path d="M306.604 177.48C322.741 185.484 344.158 175.192 344.158 175.192C344.158 175.192 339.398 151.926 323.253 143.933C307.117 135.928 285.708 146.209 285.708 146.209C285.708 146.209 290.468 169.475 306.604 177.48Z" fill="url(#paint0_linear_1235_27746)"/>
<path d="M570.3 436.005C554.782 445.305 532.52 436.708 532.52 436.708C532.52 436.708 535.431 413.035 550.958 403.745C566.475 394.445 588.729 403.032 588.729 403.032C588.729 403.032 585.818 426.705 570.3 436.005Z" fill="url(#paint1_linear_1235_27746)"/>
<path d="M202.263 369.739C207.108 369.739 211.035 365.812 211.035 360.967C211.035 356.123 207.108 352.195 202.263 352.195C197.418 352.195 193.491 356.123 193.491 360.967C193.491 365.812 197.418 369.739 202.263 369.739Z" fill="#E1E4E5"/>
<path d="M119.671 224.643C126.669 224.643 132.342 218.97 132.342 211.972C132.342 204.974 126.669 199.301 119.671 199.301C112.673 199.301 107 204.974 107 211.972C107 218.97 112.673 224.643 119.671 224.643Z" fill="#E1E4E5"/>
<path d="M157.591 283.882C162.917 283.882 167.235 279.564 167.235 274.238C167.235 268.912 162.917 264.594 157.591 264.594C152.265 264.594 147.947 268.912 147.947 274.238C147.947 279.564 152.265 283.882 157.591 283.882Z" fill="#E1E4E5"/>
<path d="M277.722 417.745C283.644 417.745 288.444 412.944 288.444 407.023C288.444 401.101 283.644 396.301 277.722 396.301C271.8 396.301 267 401.101 267 407.023C267 412.944 271.8 417.745 277.722 417.745Z" fill="#E1E4E5"/>
<path d="M679.703 212.444C679.703 217.762 684.014 222.072 689.331 222.072C694.648 222.072 698.959 217.762 698.959 212.444C698.959 207.127 694.648 202.816 689.331 202.816C684.014 202.816 679.703 207.127 679.703 212.444Z" fill="#E1E4E5"/>
<path d="M449.808 309.917C456.882 309.917 462.616 304.182 462.616 297.109C462.616 290.035 456.882 284.301 449.808 284.301C442.734 284.301 437 290.035 437 297.109C437 304.182 442.734 309.917 449.808 309.917Z" fill="#E1E4E5"/>
<path d="M581.729 155.301H581.589C580.758 167.077 572 167.258 572 167.258C572 167.258 581.657 167.446 581.657 181.053C581.657 167.446 591.314 167.258 591.314 167.258C591.314 167.258 582.56 167.077 581.729 155.301ZM493.341 341.55H493.206C492.408 353.291 484 353.472 484 353.472C484 353.472 493.272 353.66 493.272 367.226C493.272 353.66 502.544 353.472 502.544 353.472C502.544 353.472 494.139 353.291 493.341 341.55ZM402.752 226.321L367.06 263.188C378.056 268.218 386.829 276.881 392.095 287.441L427.789 250.572C416.792 245.542 408.019 236.88 402.752 226.321ZM314.972 268.134C305.464 274.899 298.218 284.821 294.925 296.649L248.054 263.708C257.562 256.942 264.809 247.02 268.102 235.193L314.972 268.134ZM170.934 244.403L135.242 281.271C146.238 286.301 155.011 294.963 160.278 305.523L195.971 268.654C184.974 263.625 176.201 254.963 170.934 244.403Z" fill="#E1E4E5"/>
<path fill-rule="evenodd" clip-rule="evenodd" d="M501.27 210.778C496.985 239.335 470.361 259.01 441.805 254.725C413.249 250.44 393.573 223.816 397.858 195.26C402.144 166.704 428.767 147.028 457.323 151.313C485.88 155.599 505.555 182.222 501.27 210.778ZM466.8 205.606C465.371 215.124 456.497 221.683 446.978 220.255C437.459 218.826 430.9 209.952 432.329 200.433C433.757 190.914 442.632 184.356 452.151 185.784C461.669 187.212 468.228 196.087 466.8 205.606ZM269.452 228.861C265.167 257.417 238.543 277.093 209.987 272.808C181.431 268.523 161.755 241.899 166.04 213.343C170.326 184.786 196.949 165.111 225.505 169.396C254.062 173.681 273.737 200.305 269.452 228.861ZM234.982 223.688C233.553 233.207 224.679 239.766 215.16 238.337C205.641 236.909 199.083 228.034 200.511 218.516C201.939 208.997 210.814 202.438 220.333 203.867C229.851 205.295 236.41 214.17 234.982 223.688ZM165.171 336.576C160.886 365.133 134.262 384.808 105.706 380.523C77.149 376.238 57.474 349.614 61.759 321.058C66.044 292.501 92.668 272.826 121.224 277.111C149.781 281.396 169.456 308.02 165.171 336.576ZM130.7 331.403C129.272 340.922 120.397 347.481 110.879 346.052C101.36 344.624 94.801 335.749 96.229 326.231C97.659 316.712 106.533 310.153 116.051 311.582C125.57 313.01 132.129 321.885 130.7 331.403ZM337.524 362.44C366.08 366.725 392.704 347.05 396.989 318.493C401.274 289.937 381.599 263.314 353.042 259.028C324.486 254.743 297.862 274.419 293.577 302.975C289.292 331.531 308.967 358.155 337.524 362.44ZM342.697 327.97C352.215 329.398 361.09 322.839 362.518 313.321C363.947 303.802 357.388 294.927 347.869 293.499C338.351 292.071 329.476 298.629 328.048 308.148C326.619 317.667 333.178 326.541 342.697 327.97Z" fill="#4F27AA"/>
<path d="M738.752 294.609L703.06 331.477C714.056 336.507 722.829 345.169 728.095 355.729L763.789 318.86C752.792 313.831 744.019 305.169 738.752 294.609ZM650.972 336.422C641.464 343.188 634.218 353.11 630.925 364.937L584.054 331.996C593.562 325.231 600.808 315.309 604.102 303.482L650.972 336.422ZM506.934 312.692L471.242 349.559C482.238 354.589 491.011 363.252 496.277 373.812L531.971 336.943C520.974 331.913 512.201 323.252 506.934 312.692Z" fill="#E1E4E5"/>
<path fill-rule="evenodd" clip-rule="evenodd" d="M837.27 279.071C832.985 307.627 806.361 327.303 777.805 323.017C749.249 318.732 729.573 292.109 733.858 263.552C738.144 234.996 764.767 215.32 793.323 219.606C821.88 223.891 841.555 250.514 837.27 279.071ZM802.8 273.898C801.371 283.417 792.497 289.975 782.978 288.547C773.459 287.118 766.9 278.244 768.329 268.725C769.757 259.206 778.632 252.648 788.151 254.076C797.669 255.505 804.228 264.379 802.8 273.898ZM605.452 297.153C601.167 325.71 574.543 345.385 545.987 341.1C517.431 336.815 497.755 310.191 502.04 281.635C506.326 253.079 532.949 233.403 561.505 237.688C590.062 241.974 609.737 268.597 605.452 297.153ZM570.982 291.981C569.553 301.499 560.679 308.058 551.16 306.63C541.641 305.201 535.083 296.327 536.511 286.808C537.939 277.289 546.814 270.73 556.333 272.159C565.851 273.587 572.41 282.462 570.982 291.981ZM501.171 404.868C496.886 433.425 470.262 453.1 441.706 448.815C413.149 444.53 393.474 417.906 397.759 389.35C402.044 360.794 428.668 341.118 457.224 345.403C485.781 349.689 505.456 376.312 501.171 404.868ZM466.7 399.696C465.272 409.214 456.397 415.773 446.879 414.345C437.36 412.916 430.801 404.042 432.23 394.523C433.658 385.004 442.533 378.446 452.051 379.874C461.57 381.302 468.129 390.177 466.7 399.696ZM673.524 430.732C702.08 435.018 728.704 415.342 732.989 386.786C737.274 358.229 717.599 331.606 689.042 327.321C660.486 323.035 633.862 342.711 629.577 371.267C625.292 399.824 644.967 426.447 673.524 430.732ZM678.697 396.262C688.215 397.69 697.09 391.132 698.518 381.613C699.947 372.094 693.388 363.22 683.869 361.791C674.351 360.363 665.476 366.921 664.048 376.44C662.619 385.959 669.178 394.833 678.697 396.262Z" fill="#4F27AA"/>
</g>
<defs>
<linearGradient id="paint0_linear_1235_27746" x1="368.57" y1="202.448" x2="235.476" y2="97.1703" gradientUnits="userSpaceOnUse">
<stop stop-color="white"/>
<stop offset="1" stop-color="#EEEEEE"/>
</linearGradient>
<linearGradient id="paint1_linear_1235_27746" x1="510.251" y1="465.942" x2="635.112" y2="349.93" gradientUnits="userSpaceOnUse">
<stop stop-color="white"/>
<stop offset="1" stop-color="#EEEEEE"/>
</linearGradient>
<clipPath id="clip0_1235_27746">
<rect width="900" height="600" fill="white"/>
</clipPath>
</defs>
</svg>
