<svg width="900" height="600" viewBox="0 0 900 600" fill="none" xmlns="http://www.w3.org/2000/svg">
<g clip-path="url(#clip0_1235_27782)">
<path d="M256.921 350.488C259.282 410.366 387.126 520.567 526.476 462.253C591.286 435.129 582.381 401.046 628.868 350.66C656.577 320.629 698.128 295.987 706.51 255.329C713.754 220.235 703.905 184.17 683.554 162.021C637.785 112.209 552.104 83.2012 479.013 175.317C405.922 267.432 250.852 196.059 256.921 350.488Z" fill="url(#paint0_linear_1235_27782)"/>
<path d="M177.272 206.075C190.695 230.031 220.093 233.323 267.19 228.77C302.611 225.34 334.911 222.686 370.335 203.372C395.129 189.864 414.755 171.587 429.08 153.837C444.602 134.607 466.269 112.66 455.647 90.8575C441.051 60.9055 356.642 35.6805 274.677 76.9325C184.639 122.26 164.14 182.661 177.272 206.075Z" fill="url(#paint1_linear_1235_27782)"/>
<path d="M121.19 297.032C145.017 308.852 176.642 293.654 176.642 293.654C176.642 293.654 169.614 259.299 145.774 247.496C121.946 235.676 90.334 250.858 90.334 250.858C90.334 250.858 97.362 285.213 121.19 297.032Z" fill="url(#paint2_linear_1235_27782)"/>
<path d="M767.065 328.405C748.159 339.736 721.034 329.261 721.034 329.261C721.034 329.261 724.581 300.419 743.499 289.1C762.405 277.769 789.518 288.231 789.518 288.231C789.518 288.231 785.971 317.074 767.065 328.405Z" fill="url(#paint3_linear_1235_27782)"/>
<path d="M154.35 524.606C160.253 524.606 165.038 519.821 165.038 513.918C165.038 508.016 160.253 503.23 154.35 503.23C148.447 503.23 143.662 508.016 143.662 513.918C143.662 519.821 148.447 524.606 154.35 524.606Z" fill="#E1E4E5"/>
<path d="M637.777 541.892C641.702 541.892 644.884 538.466 644.884 534.239C644.884 530.012 641.702 526.586 637.777 526.586C633.852 526.586 630.67 530.012 630.67 534.239C630.67 538.466 633.852 541.892 637.777 541.892Z" fill="#E1E4E5"/>
<path d="M99.924 420C106.413 420 111.674 414.739 111.674 408.25C111.674 401.761 106.413 396.5 99.924 396.5C93.4346 396.5 88.174 401.761 88.174 408.25C88.174 414.739 93.4346 420 99.924 420Z" fill="#E1E4E5"/>
<path d="M165.704 110.013C172.918 110.013 178.767 104.164 178.767 96.9497C178.767 89.7352 172.918 83.8867 165.704 83.8867C158.489 83.8867 152.641 89.7352 152.641 96.9497C152.641 104.164 158.489 110.013 165.704 110.013Z" fill="#E1E4E5"/>
<path d="M797.54 193.324C797.54 199.802 802.792 205.054 809.27 205.054C815.748 205.054 821 199.802 821 193.324C821 186.845 815.748 181.594 809.27 181.594C802.792 181.594 797.54 186.845 797.54 193.324Z" fill="#E1E4E5"/>
<path d="M548.851 82.0928C557.469 82.0928 564.456 75.1062 564.456 66.4878C564.456 57.8694 557.469 50.8828 548.851 50.8828C540.233 50.8828 533.246 57.8694 533.246 66.4878C533.246 75.1062 540.233 82.0928 548.851 82.0928Z" fill="#E1E4E5"/>
<path d="M346.404 583.439C350.631 583.439 354.057 580.012 354.057 575.786C354.057 571.559 350.631 568.133 346.404 568.133C342.177 568.133 338.751 571.559 338.751 575.786C338.751 580.012 342.177 583.439 346.404 583.439Z" fill="#E1E4E5"/>
<path d="M761.622 109.824H761.451C760.438 124.171 749.768 124.392 749.768 124.392C749.768 124.392 761.534 124.622 761.534 141.199C761.534 124.622 773.3 124.392 773.3 124.392C773.3 124.392 762.634 124.171 761.622 109.824ZM779.497 485.383H779.333C778.361 499.687 768.117 499.907 768.117 499.907C768.117 499.907 779.413 500.136 779.413 516.665C779.413 500.136 790.71 499.907 790.71 499.907C790.71 499.907 780.47 499.687 779.497 485.383Z" fill="#E1E4E5"/>
<path d="M229.954 368.706C231.747 367.67 233.782 367.125 235.853 367.125C237.924 367.125 239.958 367.67 241.752 368.706L299.675 402.147C301.468 403.183 302.958 404.672 303.993 406.466C305.029 408.259 305.574 410.294 305.574 412.365V479.248C305.574 481.319 305.029 483.354 303.993 485.147C302.958 486.941 301.468 488.43 299.675 489.466L241.752 522.907C239.958 523.943 237.924 524.488 235.853 524.488C233.782 524.488 231.747 523.943 229.954 522.907L172.032 489.466C170.238 488.43 168.749 486.941 167.713 485.147C166.677 483.354 166.132 481.319 166.132 479.248V412.365C166.132 410.294 166.677 408.259 167.713 406.466C168.749 404.672 170.238 403.183 172.032 402.147L229.954 368.706Z" fill="#4F27AA"/>
<path d="M260.754 430.766L231.368 459.918L213.736 442.427" stroke="white" stroke-width="7.441" stroke-linecap="round" stroke-linejoin="round"/>
<path fill-rule="evenodd" clip-rule="evenodd" d="M434.25 473.156V505.656C434.25 511.639 439.007 516.489 444.875 516.489H466.125C471.993 516.489 476.75 511.639 476.75 505.656V473.156H498V505.656C498 523.605 483.729 538.156 466.125 538.156H444.875C427.271 538.156 413 523.605 413 505.656V473.156H434.25Z" fill="#4F27AA"/>
<path d="M470.497 111.121C447.537 118.592 395.057 135.393 368.817 142.828L347.497 153.761C333.284 183.099 304.201 242.649 301.577 246.147C298.953 249.646 316.155 297.534 325.084 321.041L363.351 368.601L375.377 438.574C387.95 445.681 414.3 459.894 419.11 459.894C425.124 459.894 510.95 461.534 518.604 459.894C524.726 458.582 535.004 438.938 539.377 429.281V372.974C539.377 368.601 563.43 345.276 575.457 334.161L603.337 265.281L575.457 188.201C559.786 171.254 527.132 136.049 521.884 130.801C516.636 125.553 485.439 115.494 470.497 111.121Z" fill="#4F27AA"/>
<path fill-rule="evenodd" clip-rule="evenodd" d="M518.642 367.812L534.378 355.197C563.281 332.028 581.667 296.563 581.667 256.775C581.667 187.159 525.232 130.724 455.616 130.724C386 130.724 329.565 187.159 329.565 256.775C329.565 296.563 347.951 332.028 376.854 355.197L392.591 367.812V424.843C392.591 436.446 401.997 445.852 413.599 445.852H497.633C509.236 445.852 518.642 436.446 518.642 424.843V367.812ZM560.659 387.981V424.843C560.659 459.651 532.441 487.869 497.633 487.869H413.599C378.791 487.869 350.574 459.651 350.574 424.843V387.981C312.151 357.18 287.548 309.851 287.548 256.775C287.548 163.954 362.795 88.707 455.616 88.707C548.438 88.707 623.684 163.954 623.684 256.775C623.684 309.851 599.082 357.18 560.659 387.981Z" fill="#4F27AA"/>
<path d="M426.41 249.73C417.623 240.965 403.377 240.965 394.59 249.73C385.803 258.495 385.803 272.706 394.59 281.471L433 319.786V445.156H478V319.786L516.41 281.471C525.197 272.706 525.197 258.495 516.41 249.73C507.623 240.965 493.377 240.965 484.59 249.73L455.5 278.748L426.41 249.73Z" fill="white"/>
<path d="M669.48 368.706C671.274 367.67 673.308 367.125 675.379 367.125C677.451 367.125 679.485 367.67 681.279 368.706L739.201 402.147C740.994 403.183 742.484 404.672 743.519 406.466C744.555 408.259 745.1 410.294 745.1 412.365V479.248C745.1 481.319 744.555 483.354 743.519 485.147C742.484 486.941 740.994 488.43 739.201 489.466L681.279 522.907C679.485 523.943 677.451 524.488 675.379 524.488C673.308 524.488 671.274 523.943 669.48 522.907L611.558 489.466C609.764 488.43 608.275 486.941 607.239 485.147C606.203 483.354 605.658 481.319 605.658 479.248V412.365C605.658 410.294 606.203 408.259 607.239 406.466C608.275 404.672 609.764 403.183 611.558 402.147L669.48 368.706Z" fill="#4F27AA"/>
<path d="M700.28 430.766L670.894 459.918L653.262 442.427" stroke="white" stroke-width="7.441" stroke-linecap="round" stroke-linejoin="round"/>
</g>
<defs>
<linearGradient id="paint0_linear_1235_27782" x1="429.656" y1="694.515" x2="555.239" y2="-308.879" gradientUnits="userSpaceOnUse">
<stop stop-color="white"/>
<stop offset="1" stop-color="#EEEEEE"/>
</linearGradient>
<linearGradient id="paint1_linear_1235_27782" x1="267.698" y1="361.333" x2="387.341" y2="-176.292" gradientUnits="userSpaceOnUse">
<stop stop-color="white"/>
<stop offset="1" stop-color="#EEEEEE"/>
</linearGradient>
<linearGradient id="paint2_linear_1235_27782" x1="212.69" y1="333.901" x2="16.16" y2="178.445" gradientUnits="userSpaceOnUse">
<stop stop-color="white"/>
<stop offset="1" stop-color="#EEEEEE"/>
</linearGradient>
<linearGradient id="paint3_linear_1235_27782" x1="693.903" y1="364.88" x2="846.029" y2="223.534" gradientUnits="userSpaceOnUse">
<stop stop-color="white"/>
<stop offset="1" stop-color="#EEEEEE"/>
</linearGradient>
<clipPath id="clip0_1235_27782">
<rect width="900" height="600" fill="white"/>
</clipPath>
</defs>
</svg>
