<svg width="900" height="600" viewBox="0 0 900 600" fill="none" xmlns="http://www.w3.org/2000/svg">
<g clip-path="url(#clip0_1235_27804)">
<path d="M215.958 385.881C218.582 452.441 360.696 574.943 515.599 510.12C587.643 479.968 577.744 442.081 629.42 386.071C660.222 352.689 706.41 325.296 715.728 280.1C723.781 241.089 712.833 200.999 690.21 176.377C639.333 121.006 544.088 88.7614 462.838 191.157C381.589 293.554 209.211 214.214 215.958 385.881Z" fill="url(#paint0_linear_1235_27804)"/>
<path d="M210.397 199.939C221.974 220.602 247.33 223.441 287.952 219.514C318.502 216.556 346.362 214.266 376.915 197.609C398.3 185.957 415.227 170.194 427.582 154.884C440.971 138.298 459.658 119.369 450.497 100.563C437.908 74.7305 365.104 52.9735 294.409 88.5535C216.751 127.649 199.071 179.745 210.397 199.939Z" fill="url(#paint1_linear_1235_27804)"/>
<path d="M116.204 261.921C146.217 276.81 186.052 257.666 186.052 257.666C186.052 257.666 177.199 214.392 147.17 199.525C117.156 184.637 77.337 203.759 77.337 203.759C77.337 203.759 86.19 247.033 116.204 261.921Z" fill="url(#paint2_linear_1235_27804)"/>
<path d="M788.697 308.306C772.39 318.079 748.995 309.045 748.995 309.045C748.995 309.045 752.054 284.168 768.371 274.406C784.677 264.633 808.062 273.656 808.062 273.656C808.062 273.656 805.003 298.533 788.697 308.306Z" fill="url(#paint3_linear_1235_27804)"/>
<path d="M190.627 474.674C195.718 474.674 199.845 470.547 199.845 465.456C199.845 460.365 195.718 456.238 190.627 456.238C185.536 456.238 181.409 460.365 181.409 465.456C181.409 470.547 185.536 474.674 190.627 474.674Z" fill="#E1E4E5"/>
<path d="M790.999 410.458C798.353 410.458 804.314 404.497 804.314 397.143C804.314 389.789 798.353 383.828 790.999 383.828C783.645 383.828 777.684 389.789 777.684 397.143C777.684 404.497 783.645 410.458 790.999 410.458Z" fill="#E1E4E5"/>
<path d="M143.684 384.452C149.281 384.452 153.818 379.914 153.818 374.318C153.818 368.721 149.281 364.184 143.684 364.184C138.087 364.184 133.55 368.721 133.55 374.318C133.55 379.914 138.087 384.452 143.684 384.452Z" fill="#E1E4E5"/>
<path d="M200.42 117.089C206.643 117.089 211.687 112.044 211.687 105.822C211.687 99.5991 206.643 94.5547 200.42 94.5547C194.197 94.5547 189.153 99.5991 189.153 105.822C189.153 112.044 194.197 117.089 200.42 117.089Z" fill="#E1E4E5"/>
<path d="M817.357 176.976C817.357 182.564 821.887 187.093 827.474 187.093C833.062 187.093 837.591 182.564 837.591 176.976C837.591 171.389 833.062 166.859 827.474 166.859C821.887 166.859 817.357 171.389 817.357 176.976Z" fill="#E1E4E5"/>
<path d="M530.886 93.0059C538.32 93.0059 544.346 86.9797 544.346 79.5459C544.346 72.1122 538.32 66.0859 530.886 66.0859C523.452 66.0859 517.426 72.1122 517.426 79.5459C517.426 86.9797 523.452 93.0059 530.886 93.0059Z" fill="#E1E4E5"/>
<path d="M180.57 326.468C186.288 326.468 190.923 322.76 190.923 318.185C190.923 313.611 186.288 309.902 180.57 309.902C174.852 309.902 170.217 313.611 170.217 318.185C170.217 322.76 174.852 326.468 180.57 326.468Z" fill="#E1E4E5"/>
<path d="M714.401 116.926H714.254C713.38 129.301 704.177 129.491 704.177 129.491C704.177 129.491 714.326 129.689 714.326 143.988C714.326 129.689 724.474 129.491 724.474 129.491C724.474 129.491 715.275 129.301 714.401 116.926ZM729.819 440.847H729.677C728.839 453.185 720.003 453.375 720.003 453.375C720.003 453.375 729.746 453.572 729.746 467.829C729.746 453.572 739.49 453.375 739.49 453.375C739.49 453.375 730.658 453.185 729.819 440.847Z" fill="#E1E4E5"/>
<path d="M90.0911 204.781L113.591 188.281L218.091 184.281V230.281L247.591 241.281H274.091L279.091 357.281L274.091 405.281L257.591 411.281L222.591 415.781L113.591 411.281L97.5911 392.281L87.5911 261.781L90.0911 204.781ZM357.091 204.781L380.591 188.281L485.091 184.281V230.281L514.591 241.281H541.091L546.091 357.281L541.091 405.281L524.591 411.281L489.591 415.781L380.591 411.281L364.591 392.281L354.591 261.781L357.091 204.781Z" fill="#4F27AA"/>
<path d="M455.211 354.157C456.548 353.597 457.76 352.778 458.778 351.746L491.778 318.412C496.074 314.073 496.074 307.038 491.778 302.699C490.762 301.668 489.551 300.85 488.216 300.291C486.88 299.732 485.447 299.445 484 299.445C482.553 299.445 481.12 299.732 479.784 300.291C478.449 300.85 477.238 301.668 476.222 302.699L462 317.064V266.111C462 259.975 457.075 255 451 255C444.925 255 440 259.975 440 266.111V317.064L425.778 302.699C424.762 301.668 423.551 300.85 422.216 300.291C420.88 299.732 419.447 299.445 418 299.445C416.553 299.445 415.12 299.732 413.784 300.291C412.449 300.85 411.238 301.668 410.222 302.699C405.926 307.038 405.926 314.073 410.222 318.412L443.222 351.746C444.752 353.298 446.711 354.356 448.848 354.786C450.984 355.216 453.2 354.997 455.211 354.157Z" fill="white"/>
<path d="M90.0911 204.781L113.591 188.281L218.091 184.281V230.281L247.591 241.281H274.091L279.091 357.281L274.091 405.281L257.591 411.281L222.591 415.781L113.591 411.281L97.5911 392.281L87.5911 261.781L90.0911 204.781Z" fill="#4F27AA"/>
<path fill-rule="evenodd" clip-rule="evenodd" d="M243.879 267.572C249.535 271.833 250.681 279.891 246.439 285.572L208.04 336.999C203.964 342.458 196.352 343.768 190.7 339.982L162.951 321.401L144.451 349.273C140.53 355.182 132.583 356.778 126.701 352.839C120.819 348.901 119.23 340.918 123.151 335.01L148.751 296.44C152.672 290.531 160.619 288.935 166.501 292.874L194.825 311.841L225.96 270.143C230.201 264.463 238.224 263.312 243.879 267.572Z" fill="white"/>
<path d="M627.091 204.781L650.591 188.281L755.091 184.281V230.281L784.591 241.281H811.091L816.091 357.281L811.091 405.281L794.591 411.281L759.591 415.781L650.591 411.281L634.591 392.281L624.591 261.781L627.091 204.781Z" fill="#4F27AA"/>
<path fill-rule="evenodd" clip-rule="evenodd" d="M612.495 218.616C612.495 192.842 633.388 171.949 659.161 171.949H756.498C768.875 171.949 780.744 176.866 789.496 185.617L808.826 204.947C817.578 213.699 822.495 225.569 822.495 237.946V381.949C822.495 407.722 801.601 428.616 775.828 428.616H659.161C633.388 428.616 612.495 407.722 612.495 381.949V218.616ZM799.161 253.616V381.949C799.161 394.836 788.715 405.282 775.828 405.282H659.161C646.275 405.282 635.828 394.836 635.828 381.949V218.616C635.828 205.729 646.275 195.282 659.161 195.282H740.828V218.616C740.828 237.946 756.498 253.616 775.828 253.616H799.161ZM797.867 230.282C796.711 226.957 794.817 223.936 792.327 221.446L772.997 202.116C770.508 199.627 767.487 197.733 764.161 196.577V218.616C764.161 225.059 769.385 230.282 775.828 230.282H797.867ZM346.043 218.616C346.043 192.842 366.936 171.949 392.71 171.949H490.046C502.423 171.949 514.293 176.866 523.045 185.617L542.375 204.947C551.126 213.699 556.043 225.569 556.043 237.946V381.949C556.043 407.722 535.15 428.616 509.376 428.616H392.71C366.936 428.616 346.043 407.722 346.043 381.949V218.616ZM532.71 253.616V381.949C532.71 394.836 522.263 405.282 509.376 405.282H392.71C379.823 405.282 369.376 394.836 369.376 381.949V218.616C369.376 205.729 379.823 195.282 392.71 195.282H474.376V218.616C474.376 237.946 490.046 253.616 509.376 253.616H532.71ZM531.415 230.282C530.259 226.957 528.365 223.936 525.876 221.446L506.546 202.116C504.056 199.627 501.036 197.733 497.71 196.577V218.616C497.71 225.059 502.933 230.282 509.376 230.282H531.415ZM79.5911 218.616C79.5911 192.842 100.485 171.949 126.258 171.949H223.595C235.972 171.949 247.841 176.866 256.593 185.617L275.923 204.947C280.256 209.281 283.694 214.425 286.039 220.087C288.384 225.749 289.591 231.818 289.591 237.946V381.949C289.591 407.722 268.698 428.616 242.925 428.616H126.258C100.485 428.616 79.5911 407.722 79.5911 381.949V218.616ZM266.258 253.616V381.949C266.258 394.836 255.811 405.282 242.925 405.282H126.258C113.371 405.282 102.925 394.836 102.925 381.949V218.616C102.925 205.729 113.371 195.282 126.258 195.282H207.925V218.616C207.925 237.946 223.595 253.616 242.925 253.616H266.258ZM264.964 230.282C263.807 226.957 261.913 223.936 259.424 221.446L240.094 202.116C237.605 199.627 234.584 197.733 231.258 196.577V218.616C231.258 225.059 236.481 230.282 242.925 230.282H264.964Z" fill="#4F27AA"/>
<path fill-rule="evenodd" clip-rule="evenodd" d="M243.879 267.572C249.535 271.833 250.681 279.891 246.439 285.572L208.04 336.999C203.964 342.458 196.352 343.768 190.7 339.982L162.951 321.401L144.451 349.273C140.53 355.182 132.583 356.778 126.701 352.839C120.819 348.901 119.23 340.918 123.151 335.01L148.751 296.44C152.672 290.531 160.619 288.935 166.501 292.874L194.825 311.841L225.96 270.143C230.201 264.463 238.224 263.312 243.879 267.572ZM778.879 267.572C784.535 271.833 785.681 279.891 781.439 285.572L743.04 336.999C738.964 342.458 731.352 343.768 725.7 339.982L697.951 321.401L679.451 349.273C675.53 355.182 667.583 356.778 661.701 352.839C655.819 348.901 654.23 340.918 658.151 335.01L683.751 296.44C687.672 290.531 695.619 288.935 701.501 292.874L729.825 311.841L760.96 270.143C765.201 264.463 773.224 263.312 778.879 267.572Z" fill="white"/>
</g>
<defs>
<linearGradient id="paint0_linear_1235_27804" x1="407.973" y1="768.306" x2="547.572" y2="-347.083" gradientUnits="userSpaceOnUse">
<stop stop-color="white"/>
<stop offset="1" stop-color="#EEEEEE"/>
</linearGradient>
<linearGradient id="paint1_linear_1235_27804" x1="288.39" y1="333.85" x2="391.583" y2="-129.854" gradientUnits="userSpaceOnUse">
<stop stop-color="white"/>
<stop offset="1" stop-color="#EEEEEE"/>
</linearGradient>
<linearGradient id="paint2_linear_1235_27804" x1="231.458" y1="308.362" x2="-16.093" y2="112.548" gradientUnits="userSpaceOnUse">
<stop stop-color="white"/>
<stop offset="1" stop-color="#EEEEEE"/>
</linearGradient>
<linearGradient id="paint3_linear_1235_27804" x1="725.594" y1="339.766" x2="856.804" y2="217.855" gradientUnits="userSpaceOnUse">
<stop stop-color="white"/>
<stop offset="1" stop-color="#EEEEEE"/>
</linearGradient>
<clipPath id="clip0_1235_27804">
<rect width="900" height="600" fill="white"/>
</clipPath>
</defs>
</svg>
