<svg width="900" height="600" viewBox="0 0 900 600" fill="none" xmlns="http://www.w3.org/2000/svg">
<g clip-path="url(#clip0_1235_27825)">
<path d="M602.07 127.023H737.852V262.805H602.07V127.023Z" fill="#4F27AA"/>
<path fill-rule="evenodd" clip-rule="evenodd" d="M669.721 127.735C653.386 127.735 638.327 129.082 626.241 130.679C615.363 132.115 607.161 140.318 605.724 151.195C604.128 163.282 602.781 178.34 602.781 194.675C602.781 211.011 604.128 226.069 605.724 238.156C607.161 249.033 615.363 257.236 626.241 258.672C638.327 260.269 653.386 261.616 669.721 261.616C686.056 261.616 701.115 260.269 713.201 258.672C724.079 257.236 732.281 249.033 733.718 238.156C735.314 226.069 736.661 211.011 736.661 194.675C736.661 178.34 735.314 163.282 733.718 151.195C732.281 140.318 724.079 132.115 713.201 130.679C701.115 129.082 686.056 127.735 669.721 127.735ZM624.05 114.088C605.668 116.515 591.561 130.622 589.133 149.004C587.464 161.641 586.046 177.449 586.046 194.675C586.046 211.902 587.464 227.71 589.133 240.347C591.561 258.729 605.668 272.836 624.05 275.263C636.687 276.932 652.495 278.351 669.721 278.351C686.948 278.351 702.755 276.932 715.393 275.263C733.774 272.836 747.881 258.729 750.309 240.347C751.978 227.71 753.397 211.902 753.397 194.675C753.397 177.449 751.978 161.641 750.309 149.004C747.881 130.622 733.774 116.515 715.393 114.088C702.755 112.419 686.948 111 669.721 111C652.495 111 636.687 112.419 624.05 114.088Z" fill="#4F27AA"/>
<path d="M644.62 186.31C653.862 186.31 661.355 178.817 661.355 169.575C661.355 160.332 653.862 152.84 644.62 152.84C635.377 152.84 627.884 160.332 627.884 169.575C627.884 178.817 635.377 186.31 644.62 186.31ZM720.943 200.596L735.957 215.61C735.478 222.816 734.775 230.005 733.848 237.168L709.109 212.429C708.332 211.652 707.41 211.035 706.395 210.615C705.379 210.194 704.291 209.978 703.193 209.978C702.094 209.978 701.006 210.194 699.99 210.615C698.975 211.035 698.053 211.652 697.276 212.429L679.105 230.6C669.302 240.403 653.408 240.403 643.604 230.6L642.169 229.164C640.6 227.595 638.471 226.714 636.252 226.714C634.033 226.714 631.905 227.595 630.335 229.164L610.177 249.322C607.842 246.156 606.28 242.356 605.725 238.158C605.423 235.868 605.129 233.472 604.852 230.98L618.502 217.331C628.305 207.528 644.199 207.528 654.002 217.331L655.438 218.766C656.215 219.543 657.137 220.159 658.152 220.58C659.168 221.001 660.256 221.217 661.355 221.217C662.453 221.217 663.541 221.001 664.557 220.58C665.572 220.159 666.494 219.543 667.271 218.766L685.442 200.596C695.245 190.792 711.139 190.793 720.943 200.596Z" fill="white"/>
<path d="M382.547 127.023H518.329V262.805H382.547V127.023Z" fill="#4F27AA"/>
<path fill-rule="evenodd" clip-rule="evenodd" d="M450.198 127.735C433.863 127.735 418.805 129.082 406.718 130.679C395.84 132.115 387.638 140.318 386.201 151.195C384.605 163.282 383.258 178.34 383.258 194.675C383.258 211.011 384.605 226.069 386.201 238.156C387.638 249.033 395.84 257.236 406.718 258.672C418.805 260.269 433.863 261.616 450.198 261.616C466.534 261.616 481.592 260.269 493.679 258.672C504.556 257.236 512.759 249.033 514.195 238.156C515.791 226.069 517.139 211.011 517.139 194.675C517.139 178.34 515.791 163.282 514.195 151.195C512.759 140.318 504.556 132.115 493.679 130.679C481.592 129.082 466.534 127.735 450.198 127.735ZM404.527 114.088C386.145 116.515 372.038 130.622 369.61 149.004C367.941 161.641 366.523 177.449 366.523 194.675C366.523 211.902 367.941 227.71 369.61 240.347C372.038 258.729 386.145 272.836 404.527 275.263C417.164 276.932 432.972 278.351 450.198 278.351C467.425 278.351 483.233 276.932 495.87 275.263C514.251 272.836 528.358 258.729 530.786 240.347C532.455 227.71 533.874 211.902 533.874 194.675C533.874 177.449 532.455 161.641 530.786 149.004C528.358 130.622 514.251 116.515 495.87 114.088C483.233 112.419 467.425 111 450.198 111C432.972 111 417.164 112.419 404.527 114.088Z" fill="#4F27AA"/>
<path d="M425.097 186.31C434.339 186.31 441.832 178.817 441.832 169.575C441.832 160.332 434.339 152.84 425.097 152.84C415.854 152.84 408.362 160.332 408.362 169.575C408.362 178.817 415.854 186.31 425.097 186.31ZM501.42 200.596L516.434 215.61C515.955 222.816 515.252 230.005 514.325 237.168L489.586 212.429C488.809 211.652 487.887 211.035 486.872 210.615C485.857 210.194 484.768 209.978 483.67 209.978C482.571 209.978 481.483 210.194 480.467 210.615C479.452 211.035 478.53 211.652 477.753 212.429L459.582 230.6C449.779 240.403 433.885 240.403 424.082 230.6L422.646 229.164C421.077 227.595 418.948 226.714 416.729 226.714C414.51 226.714 412.382 227.595 410.812 229.164L390.654 249.322C388.319 246.156 386.757 242.356 386.202 238.158C385.9 235.868 385.606 233.472 385.329 230.98L398.979 217.331C408.782 207.528 424.676 207.528 434.479 217.331L435.915 218.766C437.484 220.335 439.613 221.217 441.832 221.217C444.051 221.217 446.18 220.335 447.749 218.766L465.919 200.596C475.722 190.792 491.617 190.793 501.42 200.596Z" fill="white"/>
<path d="M163.024 127.023H298.806V262.805H163.024V127.023Z" fill="#4F27AA"/>
<path fill-rule="evenodd" clip-rule="evenodd" d="M230.675 127.735C214.34 127.735 199.282 129.082 187.195 130.679C176.318 132.115 168.115 140.318 166.679 151.195C165.082 163.282 163.735 178.34 163.735 194.675C163.735 211.011 165.082 226.069 166.679 238.156C168.115 249.033 176.318 257.236 187.195 258.672C199.282 260.269 214.34 261.616 230.675 261.616C247.011 261.616 262.069 260.269 274.156 258.672C285.033 257.236 293.236 249.033 294.672 238.156C296.269 226.069 297.616 211.011 297.616 194.675C297.616 178.34 296.269 163.282 294.672 151.195C293.236 140.318 285.033 132.115 274.156 130.679C262.069 129.082 247.011 127.735 230.675 127.735ZM185.004 114.088C166.622 116.515 152.515 130.622 150.088 149.004C148.419 161.641 147 177.449 147 194.675C147 211.902 148.419 227.71 150.088 240.347C152.515 258.729 166.622 272.836 185.004 275.263C197.641 276.932 213.449 278.351 230.675 278.351C247.902 278.351 263.71 276.932 276.347 275.263C294.729 272.836 308.836 258.729 311.263 240.347C312.932 227.71 314.351 211.902 314.351 194.675C314.351 177.449 312.932 161.641 311.263 149.004C308.836 130.622 294.729 116.515 276.347 114.088C263.71 112.419 247.902 111 230.675 111C213.449 111 197.641 112.419 185.004 114.088Z" fill="#4F27AA"/>
<path d="M205.574 186.31C214.816 186.31 222.309 178.817 222.309 169.575C222.309 160.332 214.816 152.84 205.574 152.84C196.331 152.84 188.839 160.332 188.839 169.575C188.839 178.817 196.331 186.31 205.574 186.31ZM281.897 200.596L296.911 215.61C296.432 222.816 295.729 230.005 294.802 237.168L270.063 212.429C269.286 211.652 268.364 211.035 267.349 210.615C266.334 210.194 265.245 209.978 264.147 209.978C263.048 209.978 261.96 210.194 260.945 210.615C259.929 211.035 259.007 211.652 258.23 212.429L240.059 230.6C230.256 240.403 214.362 240.403 204.559 230.6L203.123 229.164C201.554 227.595 199.426 226.713 197.207 226.713C194.988 226.713 192.859 227.595 191.29 229.164L171.132 249.322C168.796 246.156 167.234 242.356 166.679 238.158C166.377 235.868 166.084 233.472 165.807 230.98L179.456 217.331C189.259 207.528 205.153 207.528 214.957 217.331L216.392 218.766C217.961 220.335 220.09 221.217 222.309 221.217C224.528 221.217 226.657 220.335 228.226 218.766L246.396 200.596C256.2 190.792 272.094 190.793 281.897 200.596Z" fill="white"/>
<path d="M602.07 338.023H737.852V473.805H602.07V338.023Z" fill="#4F27AA"/>
<path fill-rule="evenodd" clip-rule="evenodd" d="M669.721 338.735C653.386 338.735 638.327 340.082 626.241 341.679C615.363 343.115 607.161 351.318 605.724 362.195C604.128 374.282 602.781 389.34 602.781 405.675C602.781 422.011 604.128 437.069 605.724 449.156C607.161 460.033 615.363 468.236 626.241 469.672C638.327 471.269 653.386 472.616 669.721 472.616C686.056 472.616 701.115 471.269 713.201 469.672C724.079 468.236 732.281 460.033 733.718 449.156C735.314 437.069 736.661 422.011 736.661 405.675C736.661 389.34 735.314 374.282 733.718 362.195C732.281 351.318 724.079 343.115 713.201 341.679C701.115 340.082 686.056 338.735 669.721 338.735ZM624.05 325.088C605.668 327.515 591.561 341.622 589.133 360.004C587.464 372.641 586.046 388.449 586.046 405.675C586.046 422.902 587.464 438.71 589.133 451.347C591.561 469.729 605.668 483.836 624.05 486.263C636.687 487.932 652.495 489.351 669.721 489.351C686.948 489.351 702.755 487.932 715.393 486.263C733.774 483.836 747.881 469.729 750.309 451.347C751.978 438.71 753.397 422.902 753.397 405.675C753.397 388.449 751.978 372.641 750.309 360.004C747.881 341.622 733.774 327.515 715.393 325.088C702.755 323.419 686.948 322 669.721 322C652.495 322 636.687 323.419 624.05 325.088Z" fill="#4F27AA"/>
<path d="M644.62 397.31C653.862 397.31 661.355 389.817 661.355 380.575C661.355 371.332 653.862 363.84 644.62 363.84C635.377 363.84 627.884 371.332 627.884 380.575C627.884 389.817 635.377 397.31 644.62 397.31ZM720.943 411.596L735.957 426.61C735.478 433.816 734.775 441.005 733.848 448.168L709.109 423.429C708.332 422.652 707.41 422.035 706.395 421.615C705.379 421.194 704.291 420.978 703.193 420.978C702.094 420.978 701.006 421.194 699.99 421.615C698.975 422.035 698.053 422.652 697.276 423.429L679.105 441.6C669.302 451.403 653.408 451.403 643.604 441.6L642.169 440.164C640.6 438.595 638.471 437.714 636.252 437.714C634.033 437.714 631.905 438.595 630.335 440.164L610.177 460.322C607.842 457.156 606.28 453.356 605.725 449.158C605.423 446.868 605.129 444.472 604.852 441.98L618.502 428.331C628.305 418.528 644.199 418.528 654.002 428.331L655.438 429.766C656.215 430.543 657.137 431.159 658.152 431.58C659.168 432.001 660.256 432.217 661.355 432.217C662.453 432.217 663.541 432.001 664.557 431.58C665.572 431.159 666.494 430.543 667.271 429.766L685.442 411.596C695.245 401.792 711.139 401.793 720.943 411.596Z" fill="white"/>
<path d="M382.547 338.023H518.329V473.805H382.547V338.023Z" fill="#4F27AA"/>
<path fill-rule="evenodd" clip-rule="evenodd" d="M450.198 338.735C433.863 338.735 418.805 340.082 406.718 341.679C395.84 343.115 387.638 351.318 386.201 362.195C384.605 374.282 383.258 389.34 383.258 405.675C383.258 422.011 384.605 437.069 386.201 449.156C387.638 460.033 395.84 468.236 406.718 469.672C418.805 471.269 433.863 472.616 450.198 472.616C466.534 472.616 481.592 471.269 493.679 469.672C504.556 468.236 512.759 460.033 514.195 449.156C515.791 437.069 517.139 422.011 517.139 405.675C517.139 389.34 515.791 374.282 514.195 362.195C512.759 351.318 504.556 343.115 493.679 341.679C481.592 340.082 466.534 338.735 450.198 338.735ZM404.527 325.088C386.145 327.515 372.038 341.622 369.61 360.004C367.941 372.641 366.523 388.449 366.523 405.675C366.523 422.902 367.941 438.71 369.61 451.347C372.038 469.729 386.145 483.836 404.527 486.263C417.164 487.932 432.972 489.351 450.198 489.351C467.425 489.351 483.233 487.932 495.87 486.263C514.251 483.836 528.358 469.729 530.786 451.347C532.455 438.71 533.874 422.902 533.874 405.675C533.874 388.449 532.455 372.641 530.786 360.004C528.358 341.622 514.251 327.515 495.87 325.088C483.233 323.419 467.425 322 450.198 322C432.972 322 417.164 323.419 404.527 325.088Z" fill="#4F27AA"/>
<path d="M425.097 397.31C434.339 397.31 441.832 389.817 441.832 380.575C441.832 371.332 434.339 363.84 425.097 363.84C415.854 363.84 408.362 371.332 408.362 380.575C408.362 389.817 415.854 397.31 425.097 397.31ZM501.42 411.596L516.434 426.61C515.955 433.816 515.252 441.005 514.325 448.168L489.586 423.429C488.809 422.652 487.887 422.035 486.872 421.615C485.857 421.194 484.768 420.978 483.67 420.978C482.571 420.978 481.483 421.194 480.467 421.615C479.452 422.035 478.53 422.652 477.753 423.429L459.582 441.6C449.779 451.403 433.885 451.403 424.082 441.6L422.646 440.164C421.077 438.595 418.948 437.714 416.729 437.714C414.51 437.714 412.382 438.595 410.812 440.164L390.654 460.322C388.319 457.156 386.757 453.356 386.202 449.158C385.9 446.868 385.606 444.472 385.329 441.98L398.979 428.331C408.782 418.528 424.676 418.528 434.479 428.331L435.915 429.766C437.484 431.335 439.613 432.217 441.832 432.217C444.051 432.217 446.18 431.335 447.749 429.766L465.919 411.596C475.722 401.792 491.617 401.793 501.42 411.596Z" fill="white"/>
<path d="M163.024 338.023H298.806V473.805H163.024V338.023Z" fill="#4F27AA"/>
<path fill-rule="evenodd" clip-rule="evenodd" d="M230.675 338.735C214.34 338.735 199.282 340.082 187.195 341.679C176.318 343.115 168.115 351.318 166.679 362.195C165.082 374.282 163.735 389.34 163.735 405.675C163.735 422.011 165.082 437.069 166.679 449.156C168.115 460.033 176.318 468.236 187.195 469.672C199.282 471.269 214.34 472.616 230.675 472.616C247.011 472.616 262.069 471.269 274.156 469.672C285.033 468.236 293.236 460.033 294.672 449.156C296.269 437.069 297.616 422.011 297.616 405.675C297.616 389.34 296.269 374.282 294.672 362.195C293.236 351.318 285.033 343.115 274.156 341.679C262.069 340.082 247.011 338.735 230.675 338.735ZM185.004 325.088C166.622 327.515 152.515 341.622 150.088 360.004C148.419 372.641 147 388.449 147 405.675C147 422.902 148.419 438.71 150.088 451.347C152.515 469.729 166.622 483.836 185.004 486.263C197.641 487.932 213.449 489.351 230.675 489.351C247.902 489.351 263.71 487.932 276.347 486.263C294.729 483.836 308.836 469.729 311.263 451.347C312.932 438.71 314.351 422.902 314.351 405.675C314.351 388.449 312.932 372.641 311.263 360.004C308.836 341.622 294.729 327.515 276.347 325.088C263.71 323.419 247.902 322 230.675 322C213.449 322 197.641 323.419 185.004 325.088Z" fill="#4F27AA"/>
<path d="M205.574 397.31C214.816 397.31 222.309 389.817 222.309 380.575C222.309 371.332 214.816 363.84 205.574 363.84C196.331 363.84 188.839 371.332 188.839 380.575C188.839 389.817 196.331 397.31 205.574 397.31ZM281.897 411.596L296.911 426.61C296.432 433.816 295.729 441.005 294.802 448.168L270.063 423.429C269.286 422.652 268.364 422.035 267.349 421.615C266.334 421.194 265.245 420.978 264.147 420.978C263.048 420.978 261.96 421.194 260.945 421.615C259.929 422.035 259.007 422.652 258.23 423.429L240.059 441.6C230.256 451.403 214.362 451.403 204.559 441.6L203.123 440.164C201.554 438.595 199.426 437.713 197.207 437.713C194.988 437.713 192.859 438.595 191.29 440.164L171.132 460.322C168.796 457.156 167.234 453.356 166.679 449.158C166.377 446.868 166.084 444.472 165.807 441.98L179.456 428.331C189.259 418.528 205.153 418.528 214.957 428.331L216.392 429.766C217.961 431.335 220.09 432.217 222.309 432.217C224.528 432.217 226.657 431.335 228.226 429.766L246.396 411.596C256.2 401.792 272.094 401.793 281.897 411.596Z" fill="white"/>
</g>
<defs>
<clipPath id="clip0_1235_27825">
<rect width="900" height="600" fill="white"/>
</clipPath>
</defs>
</svg>
