<svg width="900" height="600" viewBox="0 0 900 600" fill="none" xmlns="http://www.w3.org/2000/svg">
<g clip-path="url(#clip0_1235_27845)">
<path d="M715.273 549.365L615.49 449.582" stroke="#4F27AA" stroke-width="29.875" stroke-linecap="round" stroke-linejoin="round"/>
<path d="M446.36 467.587C548.29 467.587 630.921 384.956 630.921 283.026C630.921 181.096 548.29 98.4648 446.36 98.4648C344.43 98.4648 261.799 181.096 261.799 283.026C261.799 384.956 344.43 467.587 446.36 467.587Z" fill="#4F27AA"/>
<path d="M327.421 325.796L425.854 261.347L475.07 310.222M475.07 310.563L573.502 244.941" stroke="white" stroke-width="29.875" stroke-linecap="round" stroke-linejoin="round"/>
<path d="M217.138 268.725C223.49 171.19 289.929 87.9346 383.624 60.1016C477.32 32.2676 578.436 65.7466 637.007 143.996M683.312 299.905C676.96 397.441 610.522 480.695 516.826 508.529C423.131 536.363 322.015 502.883 263.443 424.634" stroke="#4F27AA" stroke-width="29.875" stroke-linecap="round" stroke-linejoin="round"/>
<path fill-rule="evenodd" clip-rule="evenodd" d="M166.132 393.832C178.254 393.832 172.582 374.61 157.225 379.201C156.375 352.512 112.872 332.984 94.883 368.982C89.797 364.957 78.3759 372.559 80.9059 379.201C75.2559 379.683 70.8119 380.336 67.3539 381.202C59.3689 383.2 60.95 393.742 69.18 393.668L166.132 393.832ZM166.604 289.442C178.726 289.442 173.054 270.221 157.697 274.812C156.847 248.122 113.344 228.594 95.355 264.592C90.269 260.568 78.8479 268.169 81.3769 274.812C75.7279 275.293 71.2839 275.947 67.8259 276.812C59.8409 278.811 61.422 289.352 69.652 289.278L166.604 289.442ZM831.442 345.033C843.563 345.033 837.892 325.811 822.535 330.402C821.685 303.713 778.182 284.185 760.193 320.183C755.107 316.158 743.686 323.76 746.215 330.402C740.566 330.884 736.121 331.537 732.664 332.403C724.679 334.401 726.26 344.943 734.49 344.869L831.442 345.033ZM698.413 227.336C686.292 227.336 691.963 208.115 707.32 212.706C708.17 186.016 751.673 166.488 769.662 202.486C774.748 198.462 786.169 206.063 783.64 212.706C789.289 213.187 793.734 213.841 797.192 214.706C805.176 216.705 803.595 227.246 795.366 227.172L698.413 227.336ZM165.899 490.882H231.138C236.971 490.882 239.484 483.272 234.711 479.897C234.644 479.849 234.577 479.801 234.509 479.754C227.713 475.048 218.794 475.475 218.794 475.475C218.794 475.475 217.52 450.009 193.523 450.009C171.828 450.009 163.176 471.466 160.055 483.287C159.042 487.128 161.955 490.882 165.899 490.882ZM740.507 442.181H805.746C811.579 442.181 814.092 434.571 809.319 431.196C809.252 431.148 809.185 431.1 809.117 431.053C802.321 426.347 793.402 426.774 793.402 426.774C793.402 426.774 792.129 401.309 768.132 401.309C746.436 401.309 737.784 422.765 734.663 434.586C733.65 438.427 736.563 442.181 740.507 442.181Z" fill="#E1E4E5"/>
</g>
<defs>
<clipPath id="clip0_1235_27845">
<rect width="900" height="600" fill="white"/>
</clipPath>
</defs>
</svg>
