<svg width="900" height="600" viewBox="0 0 900 600" fill="none" xmlns="http://www.w3.org/2000/svg">
<g clip-path="url(#clip0_1235_27852)">
<path d="M449.915 564.991C596.003 564.991 714.43 446.564 714.43 300.476C714.43 154.388 596.003 35.9609 449.915 35.9609C303.827 35.9609 185.4 154.388 185.4 300.476C185.4 446.564 303.827 564.991 449.915 564.991Z" fill="url(#paint0_linear_1235_27852)"/>
<path d="M796.323 286.138C772.318 298.046 740.457 282.735 740.457 282.735C740.457 282.735 747.538 248.124 771.556 236.233C795.561 224.325 827.408 239.62 827.408 239.62C827.408 239.62 820.328 274.23 796.323 286.138Z" fill="url(#paint1_linear_1235_27852)"/>
<path d="M109.669 364.427C136.789 380.682 175.699 365.656 175.699 365.656C175.699 365.656 170.611 324.282 143.474 308.046C116.354 291.792 77.4609 306.799 77.4609 306.799C77.4609 306.799 82.5489 348.173 109.669 364.427Z" fill="url(#paint2_linear_1235_27852)"/>
<path d="M748.215 194.778C740.976 194.778 735.108 200.646 735.108 207.885C735.108 215.124 740.976 220.992 748.215 220.992C755.454 220.992 761.322 215.124 761.322 207.885C761.322 200.646 755.454 194.778 748.215 194.778Z" fill="#4F27AA"/>
<path d="M254.544 267.381C246.401 267.381 239.799 273.983 239.799 282.126C239.799 290.27 246.401 296.871 254.544 296.871C262.687 296.871 269.289 290.27 269.289 282.126C269.289 273.983 262.687 267.381 254.544 267.381Z" fill="#4F27AA"/>
<path d="M155.757 207.748C148.97 207.748 143.469 202.246 143.469 195.46C143.469 188.673 148.97 183.172 155.757 183.172C162.543 183.172 168.045 188.673 168.045 195.46C168.045 202.246 162.543 207.748 155.757 207.748Z" fill="#4F27AA"/>
<path d="M635.805 265.089C632.638 265.089 630.071 262.522 630.071 259.355C630.071 256.188 632.638 253.621 635.805 253.621C638.972 253.621 641.539 256.188 641.539 259.355C641.539 262.522 638.972 265.089 635.805 265.089Z" fill="#4F27AA"/>
<path d="M668.899 522.601C664.827 522.601 661.526 519.3 661.526 515.228C661.526 511.156 664.827 507.855 668.899 507.855C672.971 507.855 676.272 511.156 676.272 515.228C676.272 519.3 672.971 522.601 668.899 522.601Z" fill="#E1E4E5"/>
<path d="M153.559 449.323C147.677 449.323 142.909 444.555 142.909 438.673C142.909 432.792 147.677 428.023 153.559 428.023C159.441 428.023 164.209 432.792 164.209 438.673C164.209 444.555 159.441 449.323 153.559 449.323Z" fill="#E1E4E5"/>
<path d="M276.716 174.675C272.24 174.675 268.611 171.046 268.611 166.57C268.611 162.094 272.24 158.465 276.716 158.465C281.192 158.465 284.821 162.094 284.821 166.57C284.821 171.046 281.192 174.675 276.716 174.675Z" fill="#E1E4E5"/>
<path d="M677.477 176.213C672.5 176.213 668.466 172.179 668.466 167.202C668.466 162.226 672.5 158.191 677.477 158.191C682.453 158.191 686.488 162.226 686.488 167.202C686.488 172.179 682.453 176.213 677.477 176.213Z" fill="#E1E4E5"/>
<path d="M198.783 252.792C199.94 257.108 197.378 261.546 193.061 262.702C188.744 263.859 184.307 261.297 183.151 256.98C181.994 252.664 184.556 248.226 188.872 247.07C193.189 245.913 197.626 248.475 198.783 252.792Z" fill="#E1E4E5"/>
<path d="M383.441 109.335C377.496 109.335 372.676 104.515 372.676 98.5697C372.676 92.6243 377.496 87.8047 383.441 87.8047C389.386 87.8047 394.206 92.6243 394.206 98.5697C394.206 104.515 389.386 109.335 383.441 109.335Z" fill="#E1E4E5"/>
<path d="M726.737 380.363C722.164 380.363 718.456 377.397 718.456 373.738C718.456 370.079 722.164 367.113 726.737 367.113C731.311 367.113 735.018 370.079 735.018 373.738C735.018 377.397 731.311 380.363 726.737 380.363Z" fill="#E1E4E5"/>
<path d="M682.293 76.2863C682.293 85.5873 674.753 93.1273 665.452 93.1273C656.151 93.1273 648.611 85.5873 648.611 76.2863C648.611 66.9853 656.151 59.4453 665.452 59.4453C674.753 59.4453 682.293 66.9853 682.293 76.2863Z" fill="#E1E4E5"/>
<path d="M789.533 327.984H789.75C791.033 346.16 804.55 346.44 804.55 346.44C804.55 346.44 789.645 346.73 789.645 367.732C789.645 346.73 774.739 346.44 774.739 346.44C774.739 346.44 788.251 346.16 789.533 327.984ZM245.081 504.681H245.274C246.412 521.131 258.406 521.384 258.406 521.384C258.406 521.384 245.18 521.647 245.18 540.655C245.18 521.647 231.954 521.384 231.954 521.384C231.954 521.384 243.943 521.131 245.081 504.681Z" fill="#E1E4E5"/>
<path fill-rule="evenodd" clip-rule="evenodd" d="M450.581 541.826C314.95 541.826 205.425 429.994 209.209 293.504C212.697 167.505 317.74 62.4621 443.739 58.9741C580.229 55.1901 692.061 164.715 692.061 300.346V327.177C692.061 356.825 668.047 380.839 638.399 380.839H583.046C547.388 380.839 521.657 414.968 531.45 449.232L538.345 473.406C548.166 507.696 522.408 541.826 486.776 541.826H450.581Z" fill="#4F27AA"/>
<path fill-rule="evenodd" clip-rule="evenodd" d="M439.331 338.535L424.17 289.759L375.394 274.598C373.407 273.98 371.633 272.819 370.272 271.246C368.911 269.672 368.017 267.749 367.691 265.695C367.366 263.64 367.622 261.535 368.431 259.618C369.239 257.701 370.568 256.049 372.267 254.848L413.97 225.356L413.317 174.283C413.291 172.203 413.847 170.157 414.923 168.376C415.999 166.596 417.551 165.152 419.405 164.208C421.258 163.263 423.339 162.856 425.412 163.032C427.484 163.208 429.466 163.961 431.134 165.205L472.067 195.753L520.439 179.35C522.409 178.681 524.527 178.577 526.553 179.05C528.579 179.522 530.433 180.552 531.904 182.024C533.375 183.495 534.405 185.348 534.878 187.374C535.35 189.401 535.246 191.518 534.578 193.489L518.175 241.862L548.723 282.797C549.967 284.464 550.72 286.446 550.896 288.519C551.073 290.592 550.666 292.672 549.721 294.526C548.777 296.38 547.333 297.932 545.552 299.008C543.772 300.084 541.726 300.64 539.646 300.614L488.574 299.96L459.081 341.661C457.88 343.359 456.227 344.688 454.311 345.496C452.394 346.304 450.289 346.56 448.234 346.235C446.18 345.91 444.257 345.017 442.684 343.656C441.11 342.295 439.949 340.521 439.331 338.535Z" fill="white" stroke="white" stroke-width="39.285" stroke-linecap="round" stroke-linejoin="round"/>
<path d="M328.251 385.673L367.552 346.371M358.286 452.329L397.588 413.028" stroke="white" stroke-width="39.285" stroke-linecap="round" stroke-linejoin="round"/>
</g>
<defs>
<linearGradient id="paint0_linear_1235_27852" x1="461.195" y1="861.597" x2="444.883" y2="-539.535" gradientUnits="userSpaceOnUse">
<stop stop-color="white"/>
<stop offset="1" stop-color="#EEEEEE"/>
</linearGradient>
<linearGradient id="paint1_linear_1235_27852" x1="704.142" y1="323.281" x2="902.134" y2="166.669" gradientUnits="userSpaceOnUse">
<stop stop-color="white"/>
<stop offset="1" stop-color="#EEEEEE"/>
</linearGradient>
<linearGradient id="paint2_linear_1235_27852" x1="214.618" y1="416.749" x2="-3.603" y2="213.993" gradientUnits="userSpaceOnUse">
<stop stop-color="white"/>
<stop offset="1" stop-color="#EEEEEE"/>
</linearGradient>
<clipPath id="clip0_1235_27852">
<rect width="900" height="600" fill="white"/>
</clipPath>
</defs>
</svg>
