<svg width="900" height="600" viewBox="0 0 900 600" fill="none" xmlns="http://www.w3.org/2000/svg">
<g clip-path="url(#clip0_1235_27873)">
<path d="M750.415 288.224C737.569 294.596 720.52 286.402 720.52 286.402C720.52 286.402 724.309 267.881 737.162 261.518C750.007 255.146 767.05 263.33 767.05 263.33C767.05 263.33 763.261 281.851 750.415 288.224Z" fill="url(#paint0_linear_1235_27873)"/>
<path d="M123.67 352.829C139.812 362.504 162.971 353.56 162.971 353.56C162.971 353.56 159.943 328.934 143.791 319.27C127.648 309.596 104.499 318.528 104.499 318.528C104.499 318.528 107.527 343.154 123.67 352.829Z" fill="url(#paint1_linear_1235_27873)"/>
<path d="M745.009 185.859C737.429 185.859 731.284 192.003 731.284 199.584C731.284 207.164 737.429 213.309 745.009 213.309C752.589 213.309 758.734 207.164 758.734 199.584C758.734 192.003 752.589 185.859 745.009 185.859Z" fill="#4F27AA"/>
<path d="M124.619 199.437C117.513 199.437 111.752 193.676 111.752 186.57C111.752 179.464 117.513 173.703 124.619 173.703C131.725 173.703 137.486 179.464 137.486 186.57C137.486 193.676 131.725 199.437 124.619 199.437Z" fill="#4F27AA"/>
<path d="M627.3 259.487C623.984 259.487 621.295 256.798 621.295 253.482C621.295 250.165 623.984 247.477 627.3 247.477C630.617 247.477 633.305 250.165 633.305 253.482C633.305 256.798 630.617 259.487 627.3 259.487Z" fill="#4F27AA"/>
<path d="M661.954 529.135C657.69 529.135 654.234 525.679 654.234 521.415C654.234 517.152 657.69 513.695 661.954 513.695C666.217 513.695 669.674 517.152 669.674 521.415C669.674 525.679 666.217 529.135 661.954 529.135Z" fill="#E1E4E5"/>
<path d="M122.317 452.406C116.158 452.406 111.165 447.413 111.165 441.254C111.165 435.094 116.158 430.102 122.317 430.102C128.476 430.102 133.469 435.094 133.469 441.254C133.469 447.413 128.476 452.406 122.317 452.406Z" fill="#E1E4E5"/>
<path d="M251.28 164.806C246.593 164.806 242.793 161.006 242.793 156.319C242.793 151.632 246.593 147.832 251.28 147.832C255.967 147.832 259.767 151.632 259.767 156.319C259.767 161.006 255.967 164.806 251.28 164.806Z" fill="#E1E4E5"/>
<path d="M663.343 167.329C658.131 167.329 653.907 163.104 653.907 157.893C653.907 152.682 658.131 148.457 663.343 148.457C668.554 148.457 672.779 152.682 672.779 157.893C672.779 163.104 668.554 167.329 663.343 167.329Z" fill="#E1E4E5"/>
<path d="M156.053 262.783C157.264 267.303 154.582 271.949 150.061 273.16C145.541 274.371 140.895 271.689 139.684 267.169C138.473 262.649 141.155 258.003 145.675 256.791C150.196 255.58 154.842 258.263 156.053 262.783Z" fill="#E1E4E5"/>
<path d="M363.037 96.3897C356.811 96.3897 351.764 91.3427 351.764 85.1167C351.764 78.8908 356.811 73.8438 363.037 73.8438C369.263 73.8438 374.31 78.8908 374.31 85.1167C374.31 91.3427 369.263 96.3897 363.037 96.3897Z" fill="#E1E4E5"/>
<path d="M722.518 380.19C717.729 380.19 713.847 377.085 713.847 373.253C713.847 369.422 717.729 366.316 722.518 366.316C727.307 366.316 731.189 369.422 731.189 373.253C731.189 377.085 727.307 380.19 722.518 380.19Z" fill="#E1E4E5"/>
<path d="M607.306 75.722C609.827 85.1296 604.244 94.7996 594.836 97.3203C585.428 99.8411 575.758 94.2582 573.238 84.8505C570.717 75.4428 576.3 65.7729 585.707 63.2521C595.115 60.7314 604.785 66.3143 607.306 75.722Z" fill="#E1E4E5"/>
<path d="M788.276 325.348H788.502C789.846 344.38 804 344.673 804 344.673C804 344.673 788.392 344.978 788.392 366.969C788.392 344.978 772.784 344.673 772.784 344.673C772.784 344.673 786.932 344.38 788.276 325.348ZM164.313 495.114H164.514C165.706 512.339 178.265 512.604 178.265 512.604C178.265 512.604 164.416 512.88 164.416 532.784C164.416 512.88 150.567 512.604 150.567 512.604C150.567 512.604 163.121 512.339 164.313 495.114Z" fill="#E1E4E5"/>
<path fill-rule="evenodd" clip-rule="evenodd" d="M224.921 266.117V497.954C224.921 525.509 247.239 547.828 274.794 547.828H623.884C651.439 547.828 673.758 525.509 673.758 497.954V266.117" fill="#4F27AA"/>
<path d="M224.921 266.117V497.954C224.921 525.509 247.239 547.828 274.794 547.828H623.884C651.439 547.828 673.758 525.509 673.758 497.954V266.117" stroke="#4F27AA" stroke-width="21" stroke-linecap="round" stroke-linejoin="round"/>
<path fill-rule="evenodd" clip-rule="evenodd" d="M247.017 224.747L421.425 107.42C429.678 101.873 439.397 98.9102 449.342 98.9102C459.286 98.9102 469.005 101.873 477.258 107.42L651.666 224.747C681.041 244.522 681.041 287.738 651.666 307.512L505.187 406.063C471.423 428.78 427.285 428.78 393.52 406.063L247.042 307.512C217.641 287.738 217.641 244.497 247.017 224.747Z" fill="#4F27AA" stroke="white" stroke-width="21" stroke-linecap="round" stroke-linejoin="round"/>
<path d="M377.702 395.047L240.023 548.18M658.68 548.18L521.001 395.047" stroke="white" stroke-width="21" stroke-linecap="round" stroke-linejoin="round"/>
<path d="M449.703 302.621C519.534 302.621 576.143 246.326 576.143 176.883C576.143 107.439 519.534 51.1445 449.703 51.1445C379.872 51.1445 323.263 107.439 323.263 176.883C323.263 246.326 379.872 302.621 449.703 302.621Z" fill="#4F27AA" stroke="white" stroke-width="21" stroke-linecap="round" stroke-linejoin="round"/>
<path fill-rule="evenodd" clip-rule="evenodd" d="M449.691 208.2L472.623 220.416C477.081 222.792 482.305 218.955 481.448 213.914L477.07 188.033L495.623 169.721C499.236 166.151 497.247 159.928 492.251 159.197L466.621 155.419L455.156 131.857C452.926 127.267 446.479 127.267 444.238 131.857L432.784 155.419L407.155 159.197C402.159 159.928 400.17 166.151 403.782 169.721L422.336 188.033L417.957 213.914C417.1 218.955 422.324 222.792 426.783 220.416L449.714 208.2H449.691Z" fill="white"/>
</g>
<defs>
<linearGradient id="paint0_linear_1235_27873" x1="701.086" y1="308.1" x2="807.038" y2="224.292" gradientUnits="userSpaceOnUse">
<stop stop-color="white"/>
<stop offset="1" stop-color="#EEEEEE"/>
</linearGradient>
<linearGradient id="paint1_linear_1235_27873" x1="186.136" y1="383.972" x2="56.249" y2="263.289" gradientUnits="userSpaceOnUse">
<stop stop-color="white"/>
<stop offset="1" stop-color="#EEEEEE"/>
</linearGradient>
<clipPath id="clip0_1235_27873">
<rect width="900" height="600" fill="white"/>
</clipPath>
</defs>
</svg>
