<svg width="900" height="600" viewBox="0 0 900 600" fill="none" xmlns="http://www.w3.org/2000/svg">
<g clip-path="url(#clip0_1235_18772)">
<path d="M664.171 181.553C646.793 124.834 496.594 51.6294 377.932 142.632C322.744 184.96 339.874 215.336 308.098 275.303C289.157 311.045 255.607 345.124 257.848 386.158C259.775 421.58 278.309 453.615 303.382 469.678C359.769 505.801 449.108 511.933 495.813 405.305C542.518 298.677 708.973 327.842 664.171 181.553Z" fill="url(#paint0_linear_1235_18772)"/>
<path d="M748.101 325.924C729.499 308.38 702.463 313.647 661.886 330.815C631.372 343.733 603.413 355.091 577.321 382.121C559.057 401.032 546.712 422.738 538.931 442.501C530.498 463.912 517.363 489.448 532.875 505.861C554.189 528.404 636.214 527.297 697.543 467.806C764.909 402.444 766.292 343.068 748.101 325.924Z" fill="url(#paint1_linear_1235_18772)"/>
<path d="M297.052 184.309C276.424 239.312 255.777 297.429 218.011 333.449C179.059 370.614 166.525 357.499 156.819 333.911C147.112 310.322 145.679 248.655 199.13 199.028C252.594 149.386 316.35 132.832 297.052 184.309Z" fill="url(#paint2_linear_1235_18772)"/>
<path d="M372.728 76.7287C359.221 90.6417 362.736 115.979 362.736 115.979C362.736 115.979 388.151 118.742 401.65 104.817C415.157 90.9038 411.65 65.5788 411.65 65.5788C411.65 65.5788 386.235 62.8157 372.728 76.7287Z" fill="url(#paint3_linear_1235_18772)"/>
<path d="M282.909 320.401V399.741L211.213 485.106H512.368C603.396 485.106 677.233 411.341 677.233 320.401C677.233 229.462 603.396 155.697 512.368 155.697H447.774C356.69 155.697 282.909 229.462 282.909 320.401Z" fill="#4F27AA"/>
<path d="M669.401 177.261L685.505 161.158C686.091 160.571 686.092 159.62 685.505 159.034C684.919 158.448 683.968 158.448 683.381 159.034L667.278 175.138C666.691 175.725 666.691 176.675 667.277 177.262C667.864 177.848 668.815 177.848 669.401 177.261Z" fill="#E1E4E5"/>
<path d="M670.977 165.732L675.621 161.087C676.208 160.501 676.208 159.55 675.621 158.964C675.035 158.377 674.084 158.377 673.498 158.964L668.853 163.608C668.267 164.195 668.267 165.146 668.853 165.732C669.439 166.318 670.39 166.318 670.977 165.732Z" fill="#E1E4E5"/>
<path fill-rule="evenodd" clip-rule="evenodd" d="M534.272 227.309C575.663 227.309 603.419 265.886 603.419 301.808C603.419 374.727 488.186 434.429 486.088 434.429C483.989 434.429 368.756 374.727 368.756 301.808C368.756 265.886 396.512 227.309 437.904 227.309C461.565 227.309 477.105 239.025 486.088 249.458C495.07 239.025 510.61 227.309 534.272 227.309Z" fill="white"/>
<path fill-rule="evenodd" clip-rule="evenodd" d="M181.872 282.735C177.013 282.735 173.756 287.249 173.756 291.453C173.756 299.986 187.281 306.972 187.527 306.972C187.773 306.972 201.298 299.986 201.298 291.453C201.298 287.249 198.041 282.735 193.182 282.735C190.405 282.735 188.581 284.106 187.527 285.327C186.473 284.106 184.649 282.735 181.872 282.735ZM618.028 106.463C609.283 106.463 603.419 114.055 603.419 121.125C603.419 135.476 627.764 147.226 628.207 147.226C628.651 147.226 652.996 135.476 652.996 121.125C652.996 114.055 647.132 106.463 638.387 106.463C633.388 106.463 630.105 108.768 628.207 110.822C626.31 108.768 623.027 106.463 618.028 106.463Z" fill="#E1E4E5"/>
<path d="M657.342 437.515L631.682 463.175C630.748 464.11 630.747 465.625 631.682 466.559C632.616 467.493 634.131 467.493 635.066 466.559L660.726 440.898C661.66 439.964 661.66 438.449 660.726 437.515C659.792 436.58 658.277 436.58 657.342 437.515Z" fill="#E1E4E5"/>
<path d="M654.831 455.889L647.431 463.288C646.497 464.223 646.496 465.738 647.431 466.672C648.365 467.607 649.88 467.606 650.815 466.672L658.214 459.272C659.149 458.337 659.149 456.822 658.215 455.888C657.28 454.954 655.765 454.954 654.831 455.889Z" fill="#E1E4E5"/>
<path d="M246.55 225.861L263.675 208.737C264.298 208.113 264.298 207.102 263.675 206.478C263.051 205.855 262.04 205.855 261.416 206.478L244.291 223.603C243.668 224.227 243.668 225.238 244.291 225.861C244.915 226.485 245.926 226.485 246.55 225.861Z" fill="#E1E4E5"/>
<path d="M248.226 213.601L253.165 208.662C253.788 208.039 253.788 207.028 253.165 206.404C252.541 205.78 251.53 205.78 250.906 206.404L245.968 211.342C245.344 211.966 245.344 212.977 245.968 213.601C246.591 214.225 247.603 214.225 248.226 213.601Z" fill="#E1E4E5"/>
<path d="M187.713 468.603L215.882 440.434C216.908 439.408 216.908 437.745 215.883 436.719C214.857 435.693 213.194 435.693 212.168 436.719L183.999 464.888C182.973 465.914 182.973 467.577 183.999 468.603C185.024 469.629 186.687 469.629 187.713 468.603Z" fill="#E1E4E5"/>
<path d="M190.47 448.436L198.593 440.313C199.619 439.287 199.619 437.624 198.594 436.598C197.568 435.572 195.905 435.572 194.879 436.598L186.756 444.721C185.73 445.747 185.73 447.411 186.755 448.436C187.781 449.462 189.444 449.462 190.47 448.436Z" fill="#E1E4E5"/>
<path d="M470.726 107.13L496.386 81.4695C497.321 80.5349 497.321 79.0199 496.386 78.0856C495.452 77.1513 493.937 77.1514 493.003 78.086L467.342 103.746C466.408 104.681 466.408 106.196 467.342 107.13C468.276 108.064 469.791 108.064 470.726 107.13Z" fill="#E1E4E5"/>
<path d="M473.237 88.756L480.637 81.3562C481.572 80.4216 481.572 78.9066 480.637 77.9723C479.703 77.038 478.188 77.0381 477.254 77.9726L469.854 85.3725C468.919 86.3071 468.919 87.822 469.853 88.7564C470.788 89.6907 472.303 89.6906 473.237 88.756Z" fill="#E1E4E5"/>
<path d="M710.601 376.372C704.859 373.058 697.518 375.025 694.203 380.766C690.888 386.508 692.855 393.849 698.597 397.164C704.338 400.479 711.68 398.512 714.995 392.77C718.309 387.029 716.342 379.687 710.601 376.372Z" fill="#E1E4E5"/>
<path d="M721.014 282.945C721.014 288.507 716.272 293.125 710.284 293.125C704.297 293.125 699.554 288.507 699.554 282.945C699.554 277.384 704.297 272.766 710.284 272.766C716.272 272.766 721.014 277.384 721.014 282.945Z" stroke="#E1E4E5" stroke-width="2.777"/>
<path d="M224.268 365.556L216.552 378.92L203.189 371.204L210.904 357.84L224.268 365.556Z" stroke="#E1E4E5" stroke-width="5.604" stroke-linecap="round" stroke-linejoin="round"/>
<path d="M220.073 288.558C182.834 212.722 254.05 127.991 323.749 130.034" stroke="#E1E4E5" stroke-width="2.014" stroke-miterlimit="10" stroke-dasharray="8.37 8.37"/>
<path d="M332.061 136.566C334.363 139.023 338.218 139.161 340.675 136.859C341.26 136.313 341.732 135.656 342.063 134.928C342.395 134.199 342.579 133.412 342.607 132.612C342.634 131.812 342.503 131.015 342.221 130.265C341.94 129.516 341.514 128.829 340.967 128.245C338.665 125.788 334.81 125.651 332.354 127.953C331.768 128.498 331.295 129.154 330.963 129.883C330.631 130.611 330.446 131.398 330.419 132.198C330.392 132.999 330.523 133.796 330.804 134.546C331.086 135.295 331.513 135.982 332.061 136.566ZM702.538 229.792C697.105 237.701 700.924 249.769 700.924 249.769C700.924 249.769 713.552 249.006 718.98 241.092C724.414 233.183 720.6 221.12 720.6 221.12C720.6 221.12 707.972 221.883 702.538 229.792Z" fill="#E1E4E5"/>
</g>
<defs>
<linearGradient id="paint0_linear_1235_18772" x1="411.964" y1="-104.137" x2="545.106" y2="888.028" gradientUnits="userSpaceOnUse">
<stop stop-color="white"/>
<stop offset="1" stop-color="#EEEEEE"/>
</linearGradient>
<linearGradient id="paint1_linear_1235_18772" x1="624.497" y1="213.178" x2="668.002" y2="724.183" gradientUnits="userSpaceOnUse">
<stop stop-color="white"/>
<stop offset="1" stop-color="#EEEEEE"/>
</linearGradient>
<linearGradient id="paint2_linear_1235_18772" x1="219.603" y1="42.6417" x2="245.49" y2="572.293" gradientUnits="userSpaceOnUse">
<stop stop-color="white"/>
<stop offset="1" stop-color="#EEEEEE"/>
</linearGradient>
<linearGradient id="paint3_linear_1235_18772" x1="326.775" y1="132.051" x2="478.424" y2="30.1927" gradientUnits="userSpaceOnUse">
<stop stop-color="white"/>
<stop offset="1" stop-color="#EEEEEE"/>
</linearGradient>
<clipPath id="clip0_1235_18772">
<rect width="900" height="600" fill="white"/>
</clipPath>
</defs>
</svg>
