<svg width="900" height="600" viewBox="0 0 900 600" fill="none" xmlns="http://www.w3.org/2000/svg">
<g clip-path="url(#clip0_1235_27895)">
<path d="M680.455 206.605C685.344 197.887 684.04 182.078 672.813 164.029C661.606 146.013 640.56 125.864 606.21 108.571C574.981 92.8537 543.291 89.8027 518.027 93.5307C505.395 95.3937 494.38 98.9507 485.84 103.455C477.288 107.966 471.265 113.401 468.539 118.994C464.582 127.117 466.611 135.293 471.183 143.343C474.773 149.663 479.884 155.829 484.796 161.754C486.137 163.364 487.467 164.982 488.787 166.61L488.396 166.918L488.787 166.61C499.703 180.137 514.657 194.061 533.541 204.35C559.764 218.647 583.734 220.959 609.935 223.487L612.197 223.705C630.19 225.445 644.743 225.678 656.064 223.212C667.36 220.752 675.408 215.612 680.455 206.605V206.605Z" stroke="url(#paint0_linear_1235_27895)" stroke-width="1.002"/>
<path d="M810.892 277.667C785.923 290.052 752.784 274.127 752.784 274.127C752.784 274.127 760.149 238.127 785.131 225.759C810.099 213.373 843.225 229.281 843.225 229.281C843.225 229.281 835.86 265.281 810.892 277.667Z" fill="url(#paint1_linear_1235_27895)"/>
<path d="M101.669 368.184C134.293 387.737 181.098 369.662 181.098 369.662C181.098 369.662 174.978 319.893 142.334 300.363C109.711 280.81 62.9258 298.863 62.9258 298.863C62.9258 298.863 69.0458 348.632 101.669 368.184Z" fill="url(#paint2_linear_1235_27895)"/>
<path d="M761.764 181.039C754.235 181.039 748.131 187.142 748.131 194.672C748.131 202.201 754.235 208.305 761.764 208.305C769.293 208.305 775.397 202.201 775.397 194.672C775.397 187.142 769.293 181.039 761.764 181.039Z" fill="#4F27AA"/>
<path d="M248.281 256.556C239.811 256.556 232.944 263.423 232.944 271.893C232.944 280.364 239.811 287.23 248.281 287.23C256.752 287.23 263.618 280.364 263.618 271.893C263.618 263.423 256.752 256.556 248.281 256.556Z" fill="#4F27AA"/>
<path d="M145.53 194.527C138.471 194.527 132.749 188.805 132.749 181.746C132.749 174.687 138.471 168.965 145.53 168.965C152.589 168.965 158.311 174.687 158.311 181.746C158.311 188.805 152.589 194.527 145.53 194.527Z" fill="#4F27AA"/>
<path d="M644.843 254.172C641.549 254.172 638.878 251.502 638.878 248.207C638.878 244.913 641.549 242.242 644.843 242.242C648.137 242.242 650.808 244.913 650.808 248.207C650.808 251.502 648.137 254.172 644.843 254.172Z" fill="#4F27AA"/>
<path d="M679.265 522.018C675.03 522.018 671.596 518.584 671.596 514.349C671.596 510.113 675.03 506.68 679.265 506.68C683.501 506.68 686.934 510.113 686.934 514.349C686.934 518.584 683.501 522.018 679.265 522.018Z" fill="#E1E4E5"/>
<path d="M143.244 445.799C137.126 445.799 132.167 440.839 132.167 434.722C132.167 428.604 137.126 423.645 143.244 423.645C149.361 423.645 154.321 428.604 154.321 434.722C154.321 440.839 149.361 445.799 143.244 445.799Z" fill="#E1E4E5"/>
<path d="M271.343 160.128C266.687 160.128 262.912 156.353 262.912 151.697C262.912 147.04 266.687 143.266 271.343 143.266C275.999 143.266 279.774 147.04 279.774 151.697C279.774 156.353 275.999 160.128 271.343 160.128Z" fill="#E1E4E5"/>
<path d="M680.644 162.633C675.468 162.633 671.271 158.436 671.271 153.26C671.271 148.083 675.468 143.887 680.644 143.887C685.821 143.887 690.017 148.083 690.017 153.26C690.017 158.436 685.821 162.633 680.644 162.633Z" fill="#E1E4E5"/>
<path d="M176.755 257.445C177.958 261.935 175.293 266.551 170.803 267.754C166.313 268.957 161.698 266.292 160.494 261.802C159.291 257.312 161.956 252.697 166.446 251.493C170.936 250.29 175.552 252.955 176.755 257.445Z" fill="#E1E4E5"/>
<path d="M382.351 92.1674C376.167 92.1674 371.154 87.1544 371.154 80.9704C371.154 74.7865 376.167 69.7734 382.351 69.7734C388.535 69.7734 393.548 74.7865 393.548 80.9704C393.548 87.1544 388.535 92.1674 382.351 92.1674Z" fill="#E1E4E5"/>
<path d="M739.424 374.069C734.667 374.069 730.811 370.984 730.811 367.179C730.811 363.374 734.667 360.289 739.424 360.289C744.181 360.289 748.037 363.374 748.037 367.179C748.037 370.984 744.181 374.069 739.424 374.069Z" fill="#E1E4E5"/>
<path d="M593.89 75.9191C596.394 85.2638 590.848 94.869 581.504 97.3729C572.159 99.8768 562.554 94.3313 560.05 84.9865C557.546 75.6418 563.092 66.0366 572.436 63.5327C581.781 61.0288 591.386 66.5743 593.89 75.9191Z" fill="#E1E4E5"/>
<path d="M804.741 319.594H804.966C806.3 338.498 820.36 338.789 820.36 338.789C820.36 338.789 804.856 339.092 804.856 360.936C804.856 339.092 789.353 338.789 789.353 338.789C789.353 338.789 803.407 338.498 804.741 319.594ZM238.439 503.381H238.639C239.823 520.491 252.298 520.754 252.298 520.754C252.298 520.754 238.542 521.028 238.542 540.798C238.542 521.028 224.785 520.754 224.785 520.754C224.785 520.754 237.255 520.491 238.439 503.381Z" fill="#E1E4E5"/>
<path d="M213.454 216.936L239.208 132.313L269.256 110.238L410.907 118.21L471.614 183.21H603.454C607.869 183.21 651.897 191.386 673.359 195.474L695.435 284.389L681.331 378.823L673.359 446.276L638.407 484.908L471.614 494.719C420.309 493.697 314.143 492.266 299.916 494.719C285.69 497.172 243.705 463.445 224.492 446.276C223.265 418.477 219.341 361.776 213.454 357.36C207.567 352.945 211.001 261.904 213.454 216.936Z" fill="#4F27AA"/>
<path d="M526.152 400.029L486.439 360.292M396.725 360.295C421.515 385.084 461.646 385.084 486.436 360.295C511.225 335.506 511.225 295.374 486.436 270.585C461.646 245.795 421.515 245.795 396.725 270.585C371.961 295.374 371.961 335.555 396.725 360.295Z" stroke="white" stroke-width="36.999" stroke-linecap="round" stroke-linejoin="round"/>
<path fill-rule="evenodd" clip-rule="evenodd" d="M447.023 205.174L419.316 158.995C412.285 147.277 401.664 140.577 391.046 139.223C370.593 136.616 345.093 134.264 320.152 134.264C302.82 134.264 285.137 135.401 268.971 136.993C254.089 138.458 243.104 149.513 241.918 164.974C239.544 195.922 237.425 240.218 237.425 299.719C237.425 341.616 238.951 378.938 240.889 409.43C242.698 437.893 264.282 459.377 292.965 461.03C331.887 463.275 384.282 465.174 450.152 465.174C516.022 465.174 568.417 463.275 607.339 461.03C636.022 459.377 657.606 437.893 659.415 409.43C661.724 372.905 662.879 336.317 662.879 299.719C662.879 276.883 661.556 255.205 659.804 236.561C658.359 221.173 646.879 209.694 631.492 208.249C612.848 206.497 591.17 205.174 568.334 205.174H447.023ZM473.788 157.901L459.852 134.674C446.147 111.832 423.448 95.6982 397.024 92.3302C375.431 89.5772 347.792 86.9922 320.152 86.9922C300.863 86.9922 281.574 88.2512 264.34 89.9482C226.355 93.6872 197.703 123.302 194.784 161.358C192.311 193.594 190.152 239.099 190.152 299.719C190.152 342.75 191.719 381.081 193.711 412.429C197.043 464.848 237.806 505.201 290.244 508.225C330.07 510.521 383.373 512.446 450.152 512.446C516.931 512.446 570.233 510.521 610.06 508.225C662.498 505.201 703.26 464.848 706.592 412.429C708.965 374.906 710.152 337.317 710.152 299.719C710.152 275.11 708.728 251.925 706.87 232.139C703.3 194.138 673.914 164.753 635.914 161.183C616.128 159.324 592.942 157.901 568.334 157.901H473.788Z" fill="#4F27AA"/>
</g>
<defs>
<linearGradient id="paint0_linear_1235_27895" x1="611.767" y1="325.542" x2="520.304" y2="-85.4553" gradientUnits="userSpaceOnUse">
<stop stop-color="white"/>
<stop offset="1" stop-color="#EEEEEE"/>
</linearGradient>
<linearGradient id="paint1_linear_1235_27895" x1="715.011" y1="316.3" x2="920.949" y2="153.403" gradientUnits="userSpaceOnUse">
<stop stop-color="white"/>
<stop offset="1" stop-color="#EEEEEE"/>
</linearGradient>
<linearGradient id="paint2_linear_1235_27895" x1="227.915" y1="431.124" x2="-34.5881" y2="187.223" gradientUnits="userSpaceOnUse">
<stop stop-color="white"/>
<stop offset="1" stop-color="#EEEEEE"/>
</linearGradient>
<clipPath id="clip0_1235_27895">
<rect width="900" height="600" fill="white"/>
</clipPath>
</defs>
</svg>
