<svg width="900" height="600" viewBox="0 0 900 600" fill="none" xmlns="http://www.w3.org/2000/svg">
<g clip-path="url(#clip0_1235_27916)">
<path d="M734.755 234.333C720.819 259.204 690.298 262.621 641.402 257.895C604.629 254.334 571.095 251.578 534.319 231.527C508.578 217.503 488.203 198.529 473.331 180.1C457.216 160.136 434.722 137.351 445.749 114.715C460.903 83.6197 548.535 57.4307 633.63 100.258C727.106 147.318 748.387 210.025 734.755 234.333Z" fill="url(#paint0_linear_1235_27916)"/>
<path d="M829.31 286.835C803.057 299.858 768.212 283.113 768.212 283.113C768.212 283.113 775.956 245.26 802.223 232.255C828.477 219.232 863.307 235.959 863.307 235.959C863.307 235.959 855.563 273.812 829.31 286.835Z" fill="url(#paint1_linear_1235_27916)"/>
<path d="M83.586 382.015C117.889 402.574 167.103 383.568 167.103 383.568C167.103 383.568 160.668 331.238 126.344 310.702C92.041 290.143 42.848 309.125 42.848 309.125C42.848 309.125 49.283 361.456 83.586 382.015Z" fill="url(#paint2_linear_1235_27916)"/>
<path d="M777.335 185.002C769.418 185.002 763 191.42 763 199.337C763 207.254 769.418 213.672 777.335 213.672C785.252 213.672 791.67 207.254 791.67 199.337C791.67 191.42 785.252 185.002 777.335 185.002Z" fill="#4F27AA"/>
<path d="M704.861 424.414C695.954 424.414 688.734 431.634 688.734 440.541C688.734 449.448 695.954 456.668 704.861 456.668C713.768 456.668 720.988 449.448 720.988 440.541C720.988 431.634 713.768 424.414 704.861 424.414Z" fill="#4F27AA"/>
<path d="M129.705 199.417C122.283 199.417 116.266 193.4 116.266 185.978C116.266 178.556 122.283 172.539 129.705 172.539C137.127 172.539 143.144 178.556 143.144 185.978C143.144 193.4 137.127 199.417 129.705 199.417Z" fill="#4F27AA"/>
<path d="M686.201 321.386C682.738 321.386 679.93 318.578 679.93 315.115C679.93 311.651 682.738 308.844 686.201 308.844C689.664 308.844 692.472 311.651 692.472 315.115C692.472 318.578 689.664 321.386 686.201 321.386Z" fill="#4F27AA"/>
<path d="M690.91 543.763C686.457 543.763 682.847 540.153 682.847 535.7C682.847 531.247 686.457 527.637 690.91 527.637C695.363 527.637 698.973 531.247 698.973 535.7C698.973 540.153 695.363 543.763 690.91 543.763Z" fill="#E1E4E5"/>
<path d="M127.3 463.622C120.868 463.622 115.653 458.408 115.653 451.975C115.653 445.543 120.868 440.328 127.3 440.328C133.732 440.328 138.947 445.543 138.947 451.975C138.947 458.408 133.732 463.622 127.3 463.622Z" fill="#E1E4E5"/>
<path d="M261.992 163.248C257.097 163.248 253.128 159.279 253.128 154.384C253.128 149.488 257.097 145.52 261.992 145.52C266.887 145.52 270.856 149.488 270.856 154.384C270.856 159.279 266.887 163.248 261.992 163.248Z" fill="#E1E4E5"/>
<path d="M692.36 165.882C686.917 165.882 682.505 161.47 682.505 156.027C682.505 150.584 686.917 146.172 692.36 146.172C697.803 146.172 702.215 150.584 702.215 156.027C702.215 161.47 697.803 165.882 692.36 165.882Z" fill="#E1E4E5"/>
<path d="M162.537 265.573C163.802 270.294 161 275.147 156.279 276.412C151.558 277.677 146.705 274.875 145.44 270.154C144.175 265.433 146.976 260.58 151.698 259.315C156.419 258.05 161.272 260.852 162.537 265.573Z" fill="#E1E4E5"/>
<path d="M378.714 91.7882C372.212 91.7882 366.941 86.5172 366.941 80.0152C366.941 73.5131 372.212 68.2422 378.714 68.2422C385.216 68.2422 390.487 73.5131 390.487 80.0152C390.487 86.5172 385.216 91.7882 378.714 91.7882Z" fill="#E1E4E5"/>
<path d="M754.165 388.201C749.164 388.201 745.109 384.957 745.109 380.956C745.109 376.955 749.164 373.711 754.165 373.711C759.166 373.711 763.221 376.955 763.221 380.956C763.221 384.957 759.166 388.201 754.165 388.201Z" fill="#E1E4E5"/>
<path d="M601.141 74.7058C603.774 84.5312 597.943 94.6304 588.118 97.2631C578.292 99.8958 568.193 94.065 565.56 84.2396C562.928 74.4143 568.758 64.315 578.584 61.6823C588.409 59.0496 598.508 64.8804 601.141 74.7058Z" fill="#E1E4E5"/>
<path d="M822.843 330.918H823.08C824.483 350.796 839.266 351.102 839.266 351.102C839.266 351.102 822.964 351.42 822.964 374.388C822.964 351.42 806.663 351.102 806.663 351.102C806.663 351.102 821.44 350.796 822.843 330.918ZM227.395 524.164H227.606C228.851 542.155 241.968 542.432 241.968 542.432C241.968 542.432 227.503 542.72 227.503 563.508C227.503 542.72 213.039 542.432 213.039 542.432C213.039 542.432 226.151 542.155 227.395 524.164Z" fill="#E1E4E5"/>
<path d="M576.296 426.317L576.317 426.296C646.152 356.449 646.145 243.215 576.301 173.377C506.457 103.539 393.223 103.541 323.382 173.382C253.541 243.223 253.539 356.457 323.377 426.301C393.215 496.145 506.449 496.152 576.296 426.317Z" stroke="#4F27AA" stroke-width="31" stroke-linecap="round" stroke-linejoin="round"/>
<path d="M449.83 359.46C416.906 359.46 390.215 332.77 390.215 299.845C390.215 266.921 416.906 240.23 449.83 240.23C482.755 240.23 509.445 266.921 509.445 299.845C509.445 332.77 482.755 359.46 449.83 359.46Z" stroke="#4F27AA" stroke-width="31" stroke-linecap="round" stroke-linejoin="round"/>
<path d="M390.215 299.843V468.351M509.445 299.84V131.238M419.993 248.168L274.062 332.422M479.604 351.426L625.618 267.125M479.637 248.123L333.705 163.869M420.019 351.38L566.032 435.681" stroke="#4F27AA" stroke-width="31" stroke-linecap="round" stroke-linejoin="round"/>
</g>
<defs>
<linearGradient id="paint0_linear_1235_27916" x1="640.875" y1="395.52" x2="516.663" y2="-162.635" gradientUnits="userSpaceOnUse">
<stop stop-color="white"/>
<stop offset="1" stop-color="#EEEEEE"/>
</linearGradient>
<linearGradient id="paint1_linear_1235_27916" x1="728.495" y1="327.457" x2="945.032" y2="156.175" gradientUnits="userSpaceOnUse">
<stop stop-color="white"/>
<stop offset="1" stop-color="#EEEEEE"/>
</linearGradient>
<linearGradient id="paint2_linear_1235_27916" x1="216.329" y1="448.193" x2="-59.684" y2="191.741" gradientUnits="userSpaceOnUse">
<stop stop-color="white"/>
<stop offset="1" stop-color="#EEEEEE"/>
</linearGradient>
<clipPath id="clip0_1235_27916">
<rect width="900" height="600" fill="white"/>
</clipPath>
</defs>
</svg>
