<svg width="900" height="600" viewBox="0 0 900 600" fill="none" xmlns="http://www.w3.org/2000/svg">
<g clip-path="url(#clip0_1235_27937)">
<path d="M456.549 578.008C610.224 578.008 734.803 453.429 734.803 299.754C734.803 146.079 610.224 21.5 456.549 21.5C302.874 21.5 178.295 146.079 178.295 299.754C178.295 453.429 302.874 578.008 456.549 578.008Z" stroke="url(#paint0_linear_1235_27937)" stroke-width="3"/>
<path d="M444.573 375.687C426.619 371.757 418.787 353.574 412.53 322.53C407.829 299.182 403.239 277.982 408.707 251.539C412.529 233.032 420.41 216.906 428.987 204.277C438.277 190.593 448.111 172.446 464.14 175.001C486.161 178.515 518.751 227.652 508.298 288.169C496.806 354.649 462.122 379.536 444.573 375.687Z" fill="url(#paint1_linear_1235_27937)"/>
<path d="M572.373 488.856C519.098 515.283 448.39 481.303 448.39 481.303C448.39 481.303 464.105 404.491 517.407 378.101C570.682 351.674 641.361 385.617 641.361 385.617C641.361 385.617 625.647 462.429 572.373 488.856Z" fill="url(#paint2_linear_1235_27937)"/>
<path d="M697.469 144.323C689.813 144.323 683.607 150.529 683.607 158.185C683.607 165.841 689.813 172.047 697.469 172.047C705.125 172.047 711.331 165.841 711.331 158.185C711.331 150.529 705.125 144.323 697.469 144.323Z" fill="#4F27AA"/>
<path d="M230.172 282.185C223.034 282.185 217.247 287.972 217.247 295.11C217.247 302.248 223.034 308.035 230.172 308.035C237.31 308.035 243.097 302.248 243.097 295.11C243.097 287.972 237.31 282.185 230.172 282.185Z" fill="#4F27AA"/>
<path d="M145.449 201.683C138.272 201.683 132.453 195.865 132.453 188.687C132.453 181.51 138.272 175.691 145.449 175.691C152.626 175.691 158.445 181.51 158.445 188.687C158.445 195.865 152.626 201.683 145.449 201.683Z" fill="#4F27AA"/>
<path d="M653.154 262.329C649.804 262.329 647.089 259.614 647.089 256.264C647.089 252.915 649.804 250.199 653.154 250.199C656.504 250.199 659.219 252.915 659.219 256.264C659.219 259.614 656.504 262.329 653.154 262.329Z" fill="#4F27AA"/>
<path d="M407.066 523.959C402.759 523.959 399.268 520.468 399.268 516.161C399.268 511.855 402.759 508.363 407.066 508.363C411.373 508.363 414.864 511.855 414.864 516.161C414.864 520.468 411.373 523.959 407.066 523.959Z" fill="#E1E4E5"/>
<path d="M169.274 444.725C163.054 444.725 158.011 439.683 158.011 433.462C158.011 427.242 163.054 422.199 169.274 422.199C175.494 422.199 180.537 427.242 180.537 433.462C180.537 439.683 175.494 444.725 169.274 444.725Z" fill="#E1E4E5"/>
<path d="M273.378 166.703C268.644 166.703 264.806 162.865 264.806 158.131C264.806 153.396 268.644 149.559 273.378 149.559C278.112 149.559 281.95 153.396 281.95 158.131C281.95 162.865 278.112 166.703 273.378 166.703Z" fill="#E1E4E5"/>
<path d="M361.561 383.923C356.298 383.923 352.031 379.657 352.031 374.393C352.031 369.13 356.298 364.863 361.561 364.863C366.824 364.863 371.091 369.13 371.091 374.393C371.091 379.657 366.824 383.923 361.561 383.923Z" fill="#E1E4E5"/>
<path d="M307.08 471.395C308.303 475.96 305.594 480.653 301.028 481.876C296.463 483.1 291.77 480.39 290.547 475.825C289.324 471.26 292.033 466.567 296.598 465.344C301.164 464.12 305.856 466.83 307.08 471.395Z" fill="#E1E4E5"/>
<path d="M386.252 97.602C379.964 97.602 374.867 92.5048 374.867 86.217C374.867 79.9293 379.964 74.832 386.252 74.832C392.54 74.832 397.637 79.9293 397.637 86.217C397.637 92.5048 392.54 97.602 386.252 97.602Z" fill="#E1E4E5"/>
<path d="M597.034 48.2266C599.58 57.7282 593.942 67.4946 584.44 70.0406C574.939 72.5865 565.172 66.9479 562.626 57.4463C560.08 47.9447 565.719 38.1783 575.221 35.6324C584.722 33.0864 594.489 38.7251 597.034 48.2266Z" fill="#E1E4E5"/>
<path d="M672.328 411.43H672.557C673.914 430.652 688.209 430.948 688.209 430.948C688.209 430.948 672.445 431.256 672.445 453.467C672.445 431.256 656.681 430.948 656.681 430.948C656.681 430.948 670.971 430.652 672.328 411.43ZM580.093 526.673H580.296C581.5 544.07 594.185 544.338 594.185 544.338C594.185 544.338 580.197 544.617 580.197 564.719C580.197 544.617 566.21 544.338 566.21 544.338C566.21 544.338 578.889 544.07 580.093 526.673Z" fill="#E1E4E5"/>
<path d="M450 490C554.934 490 640 404.71 640 299.5C640 194.29 554.934 109 450 109C345.066 109 260 194.29 260 299.5C260 404.71 345.066 490 450 490Z" fill="#4F27AA"/>
<path d="M565.455 350.855H539.902L522.858 376.408L500.154 325.301L483.11 350.855H339.62" stroke="white" stroke-width="14" stroke-linecap="round" stroke-linejoin="round"/>
<path d="M564.298 277.505C564.307 277.342 564.379 277.188 564.498 277.076C564.617 276.964 564.774 276.901 564.938 276.901C565.101 276.902 565.258 276.964 565.377 277.077C565.496 277.189 565.567 277.343 565.576 277.506C565.576 277.676 565.509 277.838 565.389 277.958C565.269 278.078 565.107 278.146 564.938 278.146C564.768 278.146 564.605 278.079 564.486 277.959C564.366 277.839 564.298 277.677 564.298 277.507V277.505M487.639 277.505C487.639 277.336 487.707 277.173 487.827 277.054C487.947 276.934 488.109 276.867 488.279 276.867C488.448 276.867 488.61 276.935 488.73 277.055C488.85 277.174 488.917 277.337 488.917 277.506C488.917 277.676 488.85 277.838 488.73 277.958C488.61 278.078 488.448 278.145 488.279 278.145C488.109 278.145 487.947 278.078 487.827 277.959C487.707 277.839 487.639 277.677 487.639 277.507V277.505ZM525.969 277.505C525.969 277.336 526.037 277.173 526.157 277.054C526.277 276.934 526.439 276.867 526.609 276.867C526.778 276.867 526.94 276.935 527.06 277.055C527.18 277.174 527.247 277.337 527.247 277.506C527.247 277.676 527.18 277.838 527.06 277.958C526.94 278.078 526.778 278.145 526.609 278.145C526.439 278.145 526.277 278.078 526.157 277.959C526.037 277.839 525.969 277.677 525.969 277.507V277.505Z" stroke="white" stroke-width="22" stroke-linecap="round" stroke-linejoin="round"/>
<path fill-rule="evenodd" clip-rule="evenodd" d="M388.555 233.286L392.108 236.897L395.661 233.286C398.86 230.014 402.68 227.414 406.898 225.639C411.115 223.864 415.645 222.949 420.221 222.949C424.797 222.949 429.327 223.864 433.544 225.639C437.762 227.414 441.582 230.014 444.781 233.286C458.346 247.157 458.346 269.334 444.781 283.205L411.55 316.976C409.018 319.567 405.994 321.625 402.655 323.03C399.316 324.436 395.73 325.16 392.108 325.16C388.485 325.16 384.899 324.436 381.561 323.03C378.222 321.625 375.197 319.567 372.665 316.976L339.434 283.206C325.869 269.335 325.869 247.157 339.434 233.287C342.633 230.015 346.453 227.415 350.671 225.639C354.888 223.864 359.418 222.95 363.994 222.95C368.57 222.95 373.1 223.864 377.318 225.639C381.536 227.414 385.356 230.014 388.555 233.286Z" fill="white"/>
<path d="M687.544 228.75C687.544 307.552 782.106 307.552 782.106 386.354" stroke="#E1E4E5" stroke-width="10.25" stroke-linecap="round" stroke-linejoin="round"/>
<path d="M782.106 228.75C782.106 307.552 687.544 307.552 687.544 386.354M687.892 236.63H781.754M697.524 268.151H772.123M781.754 378.474H687.892M771.598 346.953H697.524M117.789 228.75C117.789 307.552 212.351 307.552 212.351 386.354" stroke="#E1E4E5" stroke-width="10.25" stroke-linecap="round" stroke-linejoin="round"/>
<path d="M212.351 228.75C212.351 307.552 117.789 307.552 117.789 386.354M118.137 236.629H211.999M127.769 268.151H202.368M211.999 378.474H118.137M201.843 346.953H127.769" stroke="#E1E4E5" stroke-width="10.25" stroke-linecap="round" stroke-linejoin="round"/>
</g>
<defs>
<linearGradient id="paint0_linear_1235_27937" x1="468.479" y1="893.201" x2="451.227" y2="-588.65" gradientUnits="userSpaceOnUse">
<stop stop-color="white"/>
<stop offset="1" stop-color="#EEEEEE"/>
</linearGradient>
<linearGradient id="paint1_linear_1235_27937" x1="327.549" y1="348.019" x2="648.502" y2="166.716" gradientUnits="userSpaceOnUse">
<stop stop-color="white"/>
<stop offset="1" stop-color="#EEEEEE"/>
</linearGradient>
<linearGradient id="paint2_linear_1235_27937" x1="367.794" y1="571.289" x2="807.201" y2="223.716" gradientUnits="userSpaceOnUse">
<stop stop-color="white"/>
<stop offset="1" stop-color="#EEEEEE"/>
</linearGradient>
<clipPath id="clip0_1235_27937">
<rect width="900" height="600" fill="white"/>
</clipPath>
</defs>
</svg>
