<svg width="900" height="600" viewBox="0 0 900 600" fill="none" xmlns="http://www.w3.org/2000/svg">
<g clip-path="url(#clip0_1235_27961)">
<path d="M222.786 371.032C225.371 436.628 365.425 557.353 518.083 493.469C589.082 463.755 579.326 426.417 630.253 371.22C660.608 338.321 706.126 311.325 715.31 266.785C723.246 228.34 712.456 188.83 690.162 164.566C640.022 109.997 546.158 78.2199 466.087 179.132C386.015 280.044 216.137 201.854 222.786 371.032Z" fill="url(#paint0_linear_1235_27961)"/>
<path d="M196.516 194.147C208.764 216.005 235.587 219.008 278.559 214.855C310.877 211.725 340.348 209.303 372.669 191.681C395.291 179.356 413.198 162.681 426.268 146.485C440.431 128.939 460.2 108.915 450.509 89.0212C437.191 61.6932 360.175 38.6772 285.39 76.3162C203.238 117.674 184.535 172.784 196.516 194.147Z" fill="url(#paint1_linear_1235_27961)"/>
<path d="M96.873 259.72C128.623 275.469 170.763 255.218 170.763 255.218C170.763 255.218 161.398 209.441 129.631 193.713C97.881 177.963 55.758 198.192 55.758 198.192C55.758 198.192 65.123 243.97 96.873 259.72Z" fill="url(#paint2_linear_1235_27961)"/>
<path d="M808.276 308.785C791.026 319.124 766.277 309.566 766.277 309.566C766.277 309.566 769.513 283.25 786.774 272.923C804.024 262.585 828.762 272.13 828.762 272.13C828.762 272.13 825.526 298.446 808.276 308.785Z" fill="url(#paint3_linear_1235_27961)"/>
<path d="M175.603 484.781C180.989 484.781 185.355 480.415 185.355 475.029C185.355 469.643 180.989 465.277 175.603 465.277C170.217 465.277 165.851 469.643 165.851 475.029C165.851 480.415 170.217 484.781 175.603 484.781Z" fill="#E1E4E5"/>
<path d="M810.712 416.848C818.491 416.848 824.798 410.541 824.798 402.762C824.798 394.982 818.491 388.676 810.712 388.676C802.932 388.676 796.626 394.982 796.626 402.762C796.626 410.541 802.932 416.848 810.712 416.848Z" fill="#E1E4E5"/>
<path d="M125.944 389.338C131.864 389.338 136.664 384.539 136.664 378.618C136.664 372.698 131.864 367.898 125.944 367.898C120.024 367.898 115.224 372.698 115.224 378.618C115.224 384.539 120.024 389.338 125.944 389.338Z" fill="#E1E4E5"/>
<path d="M185.962 106.502C192.545 106.502 197.881 101.166 197.881 94.5831C197.881 88.0004 192.545 82.6641 185.962 82.6641C179.379 82.6641 174.043 88.0004 174.043 94.5831C174.043 101.166 179.379 106.502 185.962 106.502Z" fill="#E1E4E5"/>
<path d="M838.594 169.855C838.594 175.766 843.386 180.558 849.297 180.558C855.208 180.558 860 175.766 860 169.855C860 163.944 855.208 159.152 849.297 159.152C843.386 159.152 838.594 163.944 838.594 169.855Z" fill="#E1E4E5"/>
<path d="M535.549 81.0307C543.412 81.0307 549.787 74.6561 549.787 66.7927C549.787 58.9293 543.412 52.5547 535.549 52.5547C527.686 52.5547 521.311 58.9293 521.311 66.7927C521.311 74.6561 527.686 81.0307 535.549 81.0307Z" fill="#E1E4E5"/>
<path d="M164.963 327.997C171.012 327.997 175.916 324.074 175.916 319.235C175.916 314.396 171.012 310.473 164.963 310.473C158.914 310.473 154.01 314.396 154.01 319.235C154.01 324.074 158.914 327.997 164.963 327.997Z" fill="#E1E4E5"/>
<path d="M729.682 106.332H729.526C728.602 119.423 718.867 119.624 718.867 119.624C718.867 119.624 729.602 119.834 729.602 134.96C729.602 119.834 740.337 119.624 740.337 119.624C740.337 119.624 730.606 119.423 729.682 106.332ZM745.992 448.995H745.842C744.955 462.046 735.608 462.247 735.608 462.247C735.608 462.247 745.915 462.456 745.915 477.537C745.915 462.456 756.222 462.247 756.222 462.247C756.222 462.247 746.879 462.046 745.992 448.995Z" fill="#E1E4E5"/>
<path d="M449.454 546.478C585.29 546.478 695.406 436.362 695.406 300.526C695.406 164.691 585.29 54.5742 449.454 54.5742C313.618 54.5742 203.502 164.691 203.502 300.526C203.502 436.362 313.618 546.478 449.454 546.478Z" fill="#4F27AA"/>
<mask id="mask0_1235_27961" style="mask-type:alpha" maskUnits="userSpaceOnUse" x="203" y="54" width="493" height="493">
<path d="M449.454 546.478C585.29 546.478 695.406 436.362 695.406 300.526C695.406 164.691 585.29 54.5742 449.454 54.5742C313.618 54.5742 203.502 164.691 203.502 300.526C203.502 436.362 313.618 546.478 449.454 546.478Z" fill="#4F27AA"/>
</mask>
<g mask="url(#mask0_1235_27961)">
<path d="M581 190H319C296.909 190 279 207.909 279 230V512C279 534.091 296.909 552 319 552H581C603.091 552 621 534.091 621 512V230C621 207.909 603.091 190 581 190Z" fill="white"/>
<path d="M368.528 380.512H531.367M368.528 424.689H531.367M395 469.001H505" stroke="#E1E4E5" stroke-width="14.431" stroke-linecap="round" stroke-linejoin="round"/>
<path d="M507.107 258L435.041 329.934L391.801 286.774" stroke="#4F27AA" stroke-width="27.44" stroke-linecap="round" stroke-linejoin="round"/>
</g>
</g>
<defs>
<linearGradient id="paint0_linear_1235_27961" x1="412.016" y1="747.912" x2="549.592" y2="-351.305" gradientUnits="userSpaceOnUse">
<stop stop-color="white"/>
<stop offset="1" stop-color="#EEEEEE"/>
</linearGradient>
<linearGradient id="paint1_linear_1235_27961" x1="279.023" y1="335.806" x2="388.186" y2="-154.728" gradientUnits="userSpaceOnUse">
<stop stop-color="white"/>
<stop offset="1" stop-color="#EEEEEE"/>
</linearGradient>
<linearGradient id="paint2_linear_1235_27961" x1="218.796" y1="308.847" x2="-43.078" y2="101.703" gradientUnits="userSpaceOnUse">
<stop stop-color="white"/>
<stop offset="1" stop-color="#EEEEEE"/>
</linearGradient>
<linearGradient id="paint3_linear_1235_27961" x1="741.523" y1="342.065" x2="880.324" y2="213.1" gradientUnits="userSpaceOnUse">
<stop stop-color="white"/>
<stop offset="1" stop-color="#EEEEEE"/>
</linearGradient>
<clipPath id="clip0_1235_27961">
<rect width="900" height="600" fill="white"/>
</clipPath>
</defs>
</svg>
