<svg width="900" height="600" viewBox="0 0 900 600" fill="none" xmlns="http://www.w3.org/2000/svg">
<g clip-path="url(#clip0_1235_28008)">
<path d="M792.357 328.578C782.684 333.376 769.846 327.207 769.846 327.207C769.846 327.207 772.7 313.261 782.377 308.469C792.05 303.671 804.882 309.834 804.882 309.834C804.882 309.834 802.029 323.78 792.357 328.578Z" fill="url(#paint0_linear_1235_28008)"/>
<path d="M758.282 179.667C754.654 179.667 751.713 182.608 751.713 186.236C751.713 189.864 754.654 192.805 758.282 192.805C761.91 192.805 764.851 189.864 764.851 186.236C764.851 182.608 761.91 179.667 758.282 179.667Z" fill="#4F27AA"/>
<path d="M214.635 452.137C209.219 452.137 204.828 447.747 204.828 442.33C204.828 436.914 209.219 432.523 214.635 432.523C220.051 432.523 224.442 436.914 224.442 442.33C224.442 447.747 220.051 452.137 214.635 452.137Z" fill="#4F27AA"/>
<path d="M729.846 261.726C726.22 261.726 723.28 258.786 723.28 255.16C723.28 251.533 726.22 248.594 729.846 248.594C733.472 248.594 736.412 251.533 736.412 255.16C736.412 258.786 733.472 261.726 729.846 261.726Z" fill="#4F27AA"/>
<path d="M768.065 461.982C762.94 461.982 758.785 457.827 758.785 452.702C758.785 447.577 762.94 443.422 768.065 443.422C773.19 443.422 777.345 447.577 777.345 452.702C777.345 457.827 773.19 461.982 768.065 461.982Z" fill="#E1E4E5"/>
<path d="M663.493 124.225C657.051 124.225 651.828 119.002 651.828 112.56C651.828 106.117 657.051 100.895 663.493 100.895C669.935 100.895 675.158 106.117 675.158 112.56C675.158 119.002 669.935 124.225 663.493 124.225Z" fill="#E1E4E5"/>
<path d="M213.821 178.044C215.146 182.987 212.213 188.067 207.27 189.391C202.327 190.716 197.247 187.782 195.923 182.84C194.598 177.897 197.532 172.817 202.474 171.493C207.417 170.168 212.497 173.101 213.821 178.044Z" fill="#E1E4E5"/>
<path d="M304.221 124.49C297.414 124.49 291.896 118.972 291.896 112.165C291.896 105.358 297.414 99.8398 304.221 99.8398C311.028 99.8398 316.546 105.358 316.546 112.165C316.546 118.972 311.028 124.49 304.221 124.49Z" fill="#E1E4E5"/>
<path d="M713.4 348.736C708.164 348.736 703.919 345.34 703.919 341.151C703.919 336.962 708.164 333.566 713.4 333.566C718.636 333.566 722.881 336.962 722.881 341.151C722.881 345.34 718.636 348.736 713.4 348.736Z" fill="#E1E4E5"/>
<path d="M607.23 101.593C607.23 109.95 600.455 116.725 592.098 116.725C583.741 116.725 576.966 109.95 576.966 101.593C576.966 93.2358 583.741 86.4609 592.098 86.4609C600.455 86.4609 607.23 93.2358 607.23 101.593Z" fill="#E1E4E5"/>
<path d="M119.873 213.832H120.008C120.808 225.164 129.236 225.339 129.236 225.339C129.236 225.339 119.943 225.52 119.943 238.614C119.943 225.52 110.65 225.339 110.65 225.339C110.65 225.339 119.074 225.164 119.873 213.832ZM223.365 487.381H223.494C224.262 498.68 232.354 498.853 232.354 498.853C232.354 498.853 223.431 499.034 223.431 512.089C223.431 499.034 214.509 498.853 214.509 498.853C214.509 498.853 222.597 498.68 223.365 487.381Z" fill="#E1E4E5"/>
<path fill-rule="evenodd" clip-rule="evenodd" d="M136.881 284.7C94.644 290.305 62 325.131 62 367.716C62 414.189 100.774 451.877 148.588 451.877H339.08C377.335 451.877 408.35 421.73 408.35 384.548C408.35 347.366 377.335 317.22 339.08 317.22C339.08 261.438 292.565 216.227 235.175 216.227C189.509 216.227 150.822 244.892 136.881 284.7Z" fill="url(#paint1_linear_1235_28008)"/>
<path fill-rule="evenodd" clip-rule="evenodd" d="M566.531 367.996C524.293 373.601 491.65 408.427 491.65 451.012C491.65 497.486 530.424 535.173 578.237 535.173H768.73C806.984 535.173 838 505.027 838 467.844C838 430.662 806.984 400.516 768.73 400.516C768.73 344.734 722.215 299.523 664.825 299.523C619.159 299.523 580.471 328.188 566.531 367.996Z" fill="url(#paint2_linear_1235_28008)"/>
<path fill-rule="evenodd" clip-rule="evenodd" d="M333.815 43.8438C282.448 43.8438 240.807 85.4858 240.807 136.853V462.382C240.807 513.75 282.448 555.391 333.815 555.391H566.336C617.703 555.391 659.345 513.75 659.345 462.382V175.378C659.345 163.164 656.939 151.069 652.265 139.785C647.591 128.501 640.74 118.247 632.103 109.611L593.578 71.0858C576.135 53.6436 552.478 43.8448 527.811 43.8448H333.815V43.8438ZM599.22 142.495C604.182 147.457 607.956 153.477 610.261 160.105H566.336C553.494 160.105 543.084 149.695 543.084 136.853V92.9278C549.712 95.2321 555.732 99.0067 560.694 103.969L599.22 142.495Z" fill="#4F27AA"/>
<path d="M449.452 436.529C524.816 436.529 585.91 375.435 585.91 300.071C585.91 224.708 524.816 163.613 449.452 163.613C374.088 163.613 312.994 224.708 312.994 300.071C312.994 375.435 374.088 436.529 449.452 436.529Z" fill="white"/>
<path d="M408.35 286.178L449.805 244.723L491.259 286.178M449.805 357.479V248.039" stroke="#4F27AA" stroke-width="20" stroke-linecap="round" stroke-linejoin="round"/>
</g>
<defs>
<linearGradient id="paint0_linear_1235_28008" x1="755.213" y1="343.545" x2="834.993" y2="280.439" gradientUnits="userSpaceOnUse">
<stop stop-color="white"/>
<stop offset="1" stop-color="#EEEEEE"/>
</linearGradient>
<linearGradient id="paint1_linear_1235_28008" x1="242.56" y1="583.995" x2="237.616" y2="-40.1654" gradientUnits="userSpaceOnUse">
<stop stop-color="white"/>
<stop offset="1" stop-color="#EEEEEE"/>
</linearGradient>
<linearGradient id="paint2_linear_1235_28008" x1="672.21" y1="667.292" x2="667.266" y2="43.1314" gradientUnits="userSpaceOnUse">
<stop stop-color="white"/>
<stop offset="1" stop-color="#EEEEEE"/>
</linearGradient>
<clipPath id="clip0_1235_28008">
<rect width="900" height="600" fill="white"/>
</clipPath>
</defs>
</svg>
