<svg width="900" height="600" viewBox="0 0 900 600" fill="none" xmlns="http://www.w3.org/2000/svg">
<g clip-path="url(#clip0_1235_28026)">
<path d="M757.326 383.394H697.945C683.395 383.394 671.204 373.499 671.204 360.965C671.204 354.698 674.35 349.091 679.069 345.133C683.788 341.175 690.474 338.536 697.945 338.536H706.597C714.069 338.536 720.754 335.898 725.473 331.94C730.192 327.982 733.338 322.375 733.338 316.108C733.338 303.904 721.54 293.679 706.597 293.679H525.219C520.485 293.679 517.443 287.859 517.443 283.124C517.443 271.251 506.038 261.685 491.881 261.685H424.382C423.531 261.696 422.686 261.537 421.896 261.219C421.106 260.9 420.388 260.428 419.782 259.83C419.176 259.232 418.695 258.519 418.367 257.733C418.039 256.948 417.87 256.105 417.87 255.253C417.87 254.402 418.039 253.559 418.367 252.774C418.695 251.988 419.176 251.275 419.782 250.677C420.388 250.079 421.106 249.607 421.896 249.288C422.686 248.97 423.531 248.811 424.382 248.822H683.002C694.406 248.822 705.024 244.864 712.496 238.597C719.967 232.33 724.686 223.425 724.686 213.86C724.686 194.399 705.81 178.897 683.002 178.897H549.423C528.468 178.897 507.723 162.736 486.769 162.736H412.179C401.249 162.736 392.389 153.875 392.389 142.946C392.389 132.016 401.249 123.156 412.179 123.156H579.183C587.048 123.156 594.52 120.517 599.632 116.229C604.745 111.941 607.891 106.004 607.891 99.078C607.891 85.884 594.913 75 579.183 75H194.19C186.325 75 178.853 77.639 173.741 81.927C168.628 86.214 165.482 92.151 165.482 99.077C165.482 112.271 178.46 123.156 194.19 123.156H204.021C216.998 123.156 228.009 132.061 228.009 143.275C228.009 148.883 225.257 153.83 220.931 157.458C216.605 161.086 210.706 163.395 204.021 163.395H156.437C148.179 163.395 140.314 166.364 134.809 170.981C129.303 175.599 125.764 181.866 125.764 189.122C125.764 203.305 139.528 214.519 156.044 214.519H204.414C220.144 214.519 233.122 225.404 233.122 238.597C233.122 245.194 229.976 251.131 224.863 255.419C219.751 259.706 212.672 262.345 204.807 262.345H161.55C154.471 262.345 148.179 264.654 143.46 268.612C138.741 272.57 135.988 277.847 135.988 283.784C135.988 295.658 147.393 305.223 161.55 305.223H196.549C216.605 305.223 232.728 318.746 232.728 335.568C232.728 343.814 228.796 351.73 222.111 357.007C215.425 362.614 206.38 365.913 196.549 365.913H147.786C137.955 365.913 128.91 369.211 122.618 374.818C115.933 380.095 112 387.681 112 395.927C112 412.419 128.123 425.942 147.786 425.942H298.362C314.989 425.942 331.324 435.177 347.951 435.177H375.389C385.864 435.177 394.355 443.669 394.355 454.143C394.355 464.617 385.864 473.108 375.389 473.108H308.626C299.974 473.108 292.503 476.077 286.997 480.694C281.492 485.312 277.952 491.909 277.952 498.835C277.952 513.018 291.716 524.562 308.626 524.562H717.608C726.259 524.562 733.731 521.594 739.237 516.976C744.742 512.358 748.282 505.762 748.282 498.835C748.282 484.652 734.518 473.108 717.608 473.108H705.417C692.833 473.108 683.002 464.533 683.002 454.308C683.002 449.03 685.361 444.413 689.687 441.114C693.62 437.816 699.518 435.507 705.81 435.507H757.326C765.978 435.507 773.45 432.539 778.955 427.921C784.461 423.303 788 416.707 788 409.78C788 394.938 774.236 383.394 757.326 383.394Z" fill="url(#paint0_linear_1235_28026)"/>
<path fill-rule="evenodd" clip-rule="evenodd" d="M294.515 222.144C227.702 231.024 176.065 286.2 176.065 353.669C176.065 427.298 237.399 487.007 313.033 487.007H614.361C674.873 487.007 723.935 439.245 723.935 380.336C723.935 321.427 674.873 273.666 614.361 273.666C614.361 185.289 540.782 113.66 450 113.66C377.763 113.66 316.566 159.075 294.515 222.144Z" fill="#4F27AA"/>
<path fill-rule="evenodd" clip-rule="evenodd" d="M195.032 490.6H190.523C190.001 490.599 189.501 490.392 189.132 490.023C188.763 489.654 188.556 489.153 188.555 488.632V484.122C188.556 483.6 188.763 483.1 189.132 482.731C189.501 482.362 190.001 482.154 190.523 482.154H195.032C196.113 482.154 197 483.041 197 484.122V488.632C197.001 488.89 196.95 489.146 196.851 489.385C196.753 489.624 196.608 489.842 196.425 490.024C196.242 490.207 196.025 490.352 195.786 490.451C195.547 490.55 195.291 490.6 195.032 490.6ZM179.398 490.6H174.889C174.368 490.598 173.868 490.39 173.5 490.021C173.131 489.652 172.923 489.153 172.921 488.632V484.122C172.922 483.6 173.129 483.1 173.498 482.731C173.867 482.362 174.367 482.154 174.889 482.154H179.398C180.479 482.154 181.366 483.041 181.366 484.122V488.632C181.364 489.153 181.156 489.652 180.787 490.021C180.419 490.39 179.919 490.598 179.398 490.6ZM163.755 490.6H159.246C158.725 490.598 158.225 490.39 157.857 490.021C157.488 489.652 157.28 489.153 157.278 488.632V484.122C157.279 483.6 157.486 483.1 157.855 482.731C158.224 482.362 158.724 482.154 159.246 482.154H163.755C164.836 482.154 165.723 483.041 165.723 484.122V488.632C165.724 488.89 165.673 489.146 165.574 489.385C165.476 489.624 165.331 489.842 165.148 490.024C164.965 490.207 164.748 490.352 164.509 490.451C164.27 490.55 164.014 490.6 163.755 490.6ZM148.121 490.6H143.612C143.091 490.598 142.591 490.39 142.223 490.021C141.854 489.652 141.646 489.153 141.644 488.632V484.122C141.645 483.6 141.852 483.1 142.221 482.731C142.59 482.362 143.09 482.154 143.612 482.154H148.121C149.211 482.154 150.098 483.041 150.098 484.122V488.632C150.092 489.153 149.882 489.652 149.512 490.02C149.142 490.388 148.643 490.596 148.121 490.6ZM132.486 490.6H127.977C127.454 490.599 126.953 490.392 126.583 490.023C126.212 489.655 126.003 489.154 126 488.632V484.122C126 483.032 126.887 482.154 127.977 482.154H132.486C133.568 482.154 134.455 483.041 134.455 484.122V488.632C134.453 489.153 134.245 489.653 133.876 490.021C133.507 490.39 133.007 490.598 132.486 490.6ZM178.825 473.553H174.316C173.795 473.551 173.295 473.343 172.927 472.974C172.558 472.605 172.35 472.106 172.348 471.585V467.066C172.348 465.985 173.235 465.098 174.316 465.098H178.825C179.347 465.098 179.847 465.306 180.216 465.675C180.585 466.044 180.792 466.544 180.793 467.066V471.575C180.795 471.834 180.745 472.091 180.647 472.331C180.548 472.571 180.404 472.789 180.221 472.973C180.038 473.157 179.82 473.303 179.581 473.402C179.341 473.502 179.084 473.553 178.825 473.553ZM163.191 473.553H158.682C158.161 473.551 157.661 473.343 157.293 472.974C156.924 472.605 156.716 472.106 156.714 471.585V467.066C156.714 465.985 157.601 465.098 158.682 465.098H163.191C164.272 465.098 165.159 465.985 165.159 467.066V471.575C165.161 471.834 165.111 472.091 165.013 472.331C164.914 472.571 164.77 472.789 164.587 472.973C164.404 473.157 164.186 473.303 163.947 473.402C163.707 473.502 163.45 473.553 163.191 473.553ZM147.557 473.553H143.048C142.525 473.552 142.024 473.345 141.654 472.977C141.283 472.608 141.074 472.107 141.071 471.585V467.066C141.071 465.985 141.958 465.098 143.048 465.098H147.557C148.638 465.098 149.525 465.985 149.525 467.066V471.575C149.525 472.098 149.318 472.599 148.949 472.97C148.58 473.34 148.08 473.55 147.557 473.553ZM163.755 508.914H159.246C158.725 508.912 158.225 508.703 157.856 508.335C157.488 507.966 157.28 507.466 157.278 506.945V502.436C157.279 501.914 157.486 501.414 157.855 501.045C158.224 500.676 158.724 500.468 159.246 500.468H163.755C164.836 500.468 165.723 501.355 165.723 502.436V506.945C165.724 507.203 165.673 507.46 165.575 507.699C165.476 507.938 165.331 508.155 165.148 508.338C164.965 508.521 164.748 508.666 164.509 508.765C164.27 508.864 164.014 508.914 163.755 508.914ZM148.121 508.914H143.612C143.091 508.912 142.591 508.703 142.222 508.335C141.854 507.966 141.646 507.466 141.644 506.945V502.436C141.645 501.914 141.852 501.414 142.221 501.045C142.59 500.676 143.09 500.468 143.612 500.468H148.121C149.211 500.468 150.098 501.355 150.098 502.436V506.945C150.093 507.467 149.882 507.965 149.512 508.334C149.143 508.702 148.643 508.91 148.121 508.914Z" fill="#E1E4E5"/>
<path d="M403 360C403 360 420.806 371 450.5 371C480.194 371 498 360 498 360" stroke="white" stroke-width="22.048" stroke-linecap="round" stroke-linejoin="round"/>
<path d="M390.503 316.426C403.924 316.426 414.804 305.793 414.804 292.678C414.804 279.562 403.924 268.93 390.503 268.93C377.082 268.93 366.202 279.562 366.202 292.678C366.202 305.793 377.082 316.426 390.503 316.426Z" fill="white"/>
<path d="M509.392 316.426C522.813 316.426 533.693 305.793 533.693 292.678C533.693 279.562 522.813 268.93 509.392 268.93C495.971 268.93 485.091 279.562 485.091 292.678C485.091 305.793 495.971 316.426 509.392 316.426Z" fill="white"/>
</g>
<defs>
<linearGradient id="paint0_linear_1235_28026" x1="464.414" y1="776.613" x2="455.194" y2="-414.137" gradientUnits="userSpaceOnUse">
<stop stop-color="white"/>
<stop offset="1" stop-color="#EEEEEE"/>
</linearGradient>
<clipPath id="clip0_1235_28026">
<rect width="900" height="600" fill="white"/>
</clipPath>
</defs>
</svg>
