<svg width="900" height="600" viewBox="0 0 900 600" fill="none" xmlns="http://www.w3.org/2000/svg">
<g clip-path="url(#clip0_1235_28034)">
<path d="M450.048 543.998C584.832 543.998 694.096 434.734 694.096 299.95C694.096 165.166 584.832 55.9023 450.048 55.9023C315.264 55.9023 206 165.166 206 299.95C206 434.734 315.264 543.998 450.048 543.998Z" fill="url(#paint0_linear_1235_28034)"/>
<path d="M834.18 334.147C822.999 339.694 808.159 332.562 808.159 332.562C808.159 332.562 811.457 316.441 822.644 310.902C833.825 305.356 848.659 312.48 848.659 312.48C848.659 312.48 845.361 328.601 834.18 334.147Z" fill="url(#paint1_linear_1235_28034)"/>
<path d="M794.791 162.013C790.597 162.013 787.198 165.413 787.198 169.606C787.198 173.8 790.597 177.199 794.791 177.199C798.984 177.199 802.384 173.8 802.384 169.606C802.384 165.413 798.984 162.013 794.791 162.013Z" fill="#4F27AA"/>
<path d="M166.356 476.977C160.095 476.977 155.02 471.901 155.02 465.641C155.02 459.38 160.095 454.305 166.356 454.305C172.617 454.305 177.692 459.38 177.692 465.641C177.692 471.901 172.617 476.977 166.356 476.977Z" fill="#4F27AA"/>
<path d="M761.92 256.868C757.728 256.868 754.33 253.469 754.33 249.278C754.33 245.086 757.728 241.688 761.92 241.688C766.112 241.688 769.51 245.086 769.51 249.278C769.51 253.469 766.112 256.868 761.92 256.868Z" fill="#4F27AA"/>
<path d="M806.1 488.36C800.176 488.36 795.373 483.558 795.373 477.633C795.373 471.709 800.176 466.906 806.1 466.906C812.025 466.906 816.827 471.709 816.827 477.633C816.827 483.558 812.025 488.36 806.1 488.36Z" fill="#E1E4E5"/>
<path d="M685.219 97.9211C677.772 97.9211 671.735 91.8841 671.735 84.4371C671.735 76.9901 677.772 70.9531 685.219 70.9531C692.666 70.9531 698.703 76.9901 698.703 84.4371C698.703 91.8841 692.666 97.9211 685.219 97.9211Z" fill="#E1E4E5"/>
<path d="M165.415 160.137C166.946 165.851 163.556 171.723 157.842 173.254C152.129 174.785 146.256 171.394 144.725 165.681C143.194 159.968 146.585 154.095 152.298 152.564C158.012 151.033 163.885 154.424 165.415 160.137Z" fill="#E1E4E5"/>
<path d="M269.913 98.2304C262.044 98.2304 255.665 91.8513 255.665 83.9824C255.665 76.1134 262.044 69.7344 269.913 69.7344C277.782 69.7344 284.161 76.1134 284.161 83.9824C284.161 91.8513 277.782 98.2304 269.913 98.2304Z" fill="#E1E4E5"/>
<path d="M742.909 357.45C736.856 357.45 731.949 353.524 731.949 348.682C731.949 343.84 736.856 339.914 742.909 339.914C748.962 339.914 753.869 343.84 753.869 348.682C753.869 353.524 748.962 357.45 742.909 357.45Z" fill="#E1E4E5"/>
<path d="M620.181 71.7615C620.181 81.4221 612.35 89.2535 602.689 89.2535C593.029 89.2535 585.197 81.4221 585.197 71.7615C585.197 62.101 593.029 54.2695 602.689 54.2695C612.35 54.2695 620.181 62.101 620.181 71.7615Z" fill="#E1E4E5"/>
<path d="M56.8151 201.508H56.9711C57.8961 214.608 67.6381 214.809 67.6381 214.809C67.6381 214.809 56.8951 215.019 56.8951 230.155C56.8951 215.019 46.1531 214.809 46.1531 214.809C46.1531 214.809 55.8901 214.608 56.8151 201.508ZM176.447 517.721H176.597C177.485 530.781 186.838 530.982 186.838 530.982C186.838 530.982 176.524 531.191 176.524 546.282C176.524 531.191 166.21 530.982 166.21 530.982C166.21 530.982 175.559 530.781 176.447 517.721Z" fill="#E1E4E5"/>
<path d="M581.964 87.8398H205.649C192.036 87.8398 181 98.8756 181 112.489V339.264C181 352.877 192.036 363.913 205.649 363.913H581.964C595.577 363.913 606.613 352.877 606.613 339.264V112.489C606.613 98.8756 595.577 87.8398 581.964 87.8398Z" fill="#4F27AA"/>
<path d="M283.706 278.465H226.19C221.653 278.465 217.974 282.143 217.974 286.681V299.828C217.974 304.365 221.653 308.044 226.19 308.044H283.706C288.244 308.044 291.922 304.365 291.922 299.828V286.681C291.922 282.143 288.244 278.465 283.706 278.465Z" fill="white"/>
<path d="M374.087 278.465H316.571C312.033 278.465 308.355 282.143 308.355 286.681V299.828C308.355 304.365 312.033 308.044 316.571 308.044H374.087C378.625 308.044 382.303 304.365 382.303 299.828V286.681C382.303 282.143 378.625 278.465 374.087 278.465Z" fill="white"/>
<path d="M464.468 278.465H406.952C402.415 278.465 398.736 282.143 398.736 286.681V299.828C398.736 304.365 402.415 308.044 406.952 308.044H464.468C469.006 308.044 472.684 304.365 472.684 299.828V286.681C472.684 282.143 469.006 278.465 464.468 278.465Z" fill="white"/>
<path d="M554.849 278.465H497.333C492.796 278.465 489.117 282.143 489.117 286.681V299.828C489.117 304.365 492.796 308.044 497.333 308.044H554.849C559.387 308.044 563.065 304.365 563.065 299.828V286.681C563.065 282.143 559.387 278.465 554.849 278.465Z" fill="white"/>
<path fill-rule="evenodd" clip-rule="evenodd" d="M509.659 200.87C504.117 204.336 497.709 206.17 491.172 206.16C471.886 206.16 456.252 190.525 456.252 171.24C456.252 151.954 471.886 136.32 491.172 136.32C497.709 136.309 504.117 138.142 509.659 141.609C515.201 138.142 521.609 136.309 528.146 136.32C547.431 136.32 563.066 151.954 563.066 171.24C563.066 190.525 547.431 206.16 528.146 206.16C521.609 206.17 515.201 204.336 509.659 200.87ZM259.22 221.133V211.263H271.533L281.987 200.785L296.419 206.928C298.974 208.016 301.797 208.314 304.523 207.783C307.249 207.251 309.754 205.915 311.713 203.947L332.211 183.405C334.174 181.434 335.505 178.924 336.035 176.194C336.565 173.463 336.269 170.637 335.185 168.076L324.724 143.394C323.316 140.067 320.672 137.417 317.348 136.002L292.72 125.518C290.165 124.429 287.342 124.132 284.616 124.663C281.89 125.194 279.386 126.53 277.426 128.498L256.928 149.041C254.965 151.011 253.634 153.522 253.106 156.252C252.577 158.983 252.875 161.809 253.961 164.37L259.93 178.463L217.974 220.512V242.723H240.136L249.371 233.467V221.126H259.22V221.133Z" fill="white"/>
<path fill-rule="evenodd" clip-rule="evenodd" d="M294.35 155.637C288.458 155.662 283.676 160.444 283.701 166.335C283.701 172.227 288.508 177.009 294.399 176.984C300.29 176.984 305.072 172.202 305.072 166.311C305.072 160.419 300.29 155.637 294.399 155.637" fill="#4F27AA"/>
<path d="M695.351 235.738H319.036C305.423 235.738 294.387 246.774 294.387 260.387V487.162C294.387 500.776 305.423 511.811 319.036 511.811H695.351C708.964 511.811 720 500.776 720 487.162V260.387C720 246.774 708.964 235.738 695.351 235.738Z" fill="#4F27AA"/>
<path d="M397.093 426.359H339.577C335.04 426.359 331.361 430.038 331.361 434.575V447.722C331.361 452.26 335.04 455.938 339.577 455.938H397.093C401.631 455.938 405.309 452.26 405.309 447.722V434.575C405.309 430.038 401.631 426.359 397.093 426.359Z" fill="white"/>
<path d="M487.474 426.359H429.958C425.42 426.359 421.742 430.038 421.742 434.575V447.722C421.742 452.26 425.42 455.938 429.958 455.938H487.474C492.012 455.938 495.69 452.26 495.69 447.722V434.575C495.69 430.038 492.012 426.359 487.474 426.359Z" fill="white"/>
<path d="M577.855 426.359H520.339C515.801 426.359 512.123 430.038 512.123 434.575V447.722C512.123 452.26 515.801 455.938 520.339 455.938H577.855C582.393 455.938 586.071 452.26 586.071 447.722V434.575C586.071 430.038 582.393 426.359 577.855 426.359Z" fill="white"/>
<path d="M668.237 426.359H610.721C606.183 426.359 602.505 430.038 602.505 434.575V447.722C602.505 452.26 606.183 455.938 610.721 455.938H668.237C672.774 455.938 676.453 452.26 676.453 447.722V434.575C676.453 430.038 672.774 426.359 668.237 426.359Z" fill="white"/>
<path fill-rule="evenodd" clip-rule="evenodd" d="M623.046 348.764C617.504 352.231 611.096 354.064 604.559 354.054C585.273 354.054 569.639 338.42 569.639 319.134C569.639 299.848 585.273 284.214 604.559 284.214C611.096 284.204 617.504 286.037 623.046 289.503C628.588 286.037 634.996 284.203 641.533 284.214C660.819 284.214 676.453 299.848 676.453 319.134C676.453 338.42 660.819 354.054 641.533 354.054C634.996 354.064 628.588 352.231 623.046 348.764ZM372.607 369.027V359.157H384.921L395.375 348.68L409.806 354.822C412.361 355.911 415.184 356.209 417.91 355.678C420.636 355.147 423.141 353.811 425.1 351.842L445.598 331.299C447.561 329.329 448.893 326.819 449.423 324.089C449.952 321.358 449.656 318.532 448.572 315.971L438.111 291.288C436.703 287.961 434.059 285.311 430.735 283.896L406.107 273.412C403.552 272.324 400.729 272.026 398.003 272.557C395.277 273.089 392.773 274.425 390.813 276.393L370.315 296.935C368.353 298.906 367.022 301.417 366.494 304.147C365.965 306.878 366.263 309.704 367.348 312.264L373.317 326.357L331.361 368.406V390.617H353.523L362.759 381.361V369.02H372.607V369.027Z" fill="white"/>
<path fill-rule="evenodd" clip-rule="evenodd" d="M407.737 303.531C401.846 303.556 397.064 308.338 397.088 314.229C397.088 320.12 401.895 324.902 407.786 324.877C413.677 324.877 418.459 320.095 418.459 314.204C418.459 308.313 413.677 303.531 407.786 303.531" fill="#4F27AA"/>
</g>
<defs>
<linearGradient id="paint0_linear_1235_28034" x1="460.455" y1="817.653" x2="445.405" y2="-475.062" gradientUnits="userSpaceOnUse">
<stop stop-color="white"/>
<stop offset="1" stop-color="#EEEEEE"/>
</linearGradient>
<linearGradient id="paint1_linear_1235_28034" x1="791.243" y1="351.448" x2="883.465" y2="278.5" gradientUnits="userSpaceOnUse">
<stop stop-color="white"/>
<stop offset="1" stop-color="#EEEEEE"/>
</linearGradient>
<clipPath id="clip0_1235_28034">
<rect width="900" height="600" fill="white"/>
</clipPath>
</defs>
</svg>
