<svg width="900" height="600" viewBox="0 0 900 600" fill="none" xmlns="http://www.w3.org/2000/svg">
<g clip-path="url(#clip0_1235_28062)">
<path d="M832.892 284.158C806.317 297.341 771.045 280.39 771.045 280.39C771.045 280.39 778.884 242.074 805.473 228.91C832.048 215.727 867.306 232.659 867.306 232.659C867.306 232.659 859.467 270.975 832.892 284.158Z" fill="url(#paint0_linear_1235_28062)"/>
<path d="M72.72 370.833C102.744 388.827 145.819 372.193 145.819 372.193C145.819 372.193 140.187 326.389 110.144 308.415C80.12 290.42 37.063 307.035 37.063 307.035C37.063 307.035 42.695 352.838 72.719 370.833H72.72Z" fill="url(#paint1_linear_1235_28062)"/>
<path d="M779.634 183.017C771.62 183.017 765.123 189.514 765.123 197.528C765.123 205.542 771.62 212.039 779.634 212.039C787.648 212.039 794.145 205.542 794.145 197.528C794.145 189.514 787.648 183.017 779.634 183.017Z" fill="#4F27AA"/>
<path d="M233.105 263.395C224.09 263.395 216.781 270.703 216.781 279.719C216.781 288.734 224.09 296.043 233.105 296.043C242.121 296.043 249.429 288.734 249.429 279.719C249.429 270.703 242.121 263.395 233.105 263.395Z" fill="#4F27AA"/>
<path d="M123.742 197.376C116.229 197.376 110.138 191.285 110.138 183.772C110.138 176.259 116.229 170.168 123.742 170.168C131.255 170.168 137.346 176.259 137.346 183.772C137.346 191.285 131.255 197.376 123.742 197.376Z" fill="#4F27AA"/>
<path d="M655.188 260.856C651.682 260.856 648.84 258.014 648.84 254.508C648.84 251.002 651.682 248.16 655.188 248.16C658.694 248.16 661.536 251.002 661.536 254.508C661.536 258.014 658.694 260.856 655.188 260.856Z" fill="#4F27AA"/>
<path d="M691.825 545.941C687.317 545.941 683.663 542.287 683.663 537.779C683.663 533.271 687.317 529.617 691.825 529.617C696.333 529.617 699.987 533.271 699.987 537.779C699.987 542.287 696.333 545.941 691.825 545.941Z" fill="#E1E4E5"/>
<path d="M121.309 464.818C114.798 464.818 109.519 459.54 109.519 453.028C109.519 446.517 114.798 441.238 121.309 441.238C127.821 441.238 133.099 446.517 133.099 453.028C133.099 459.54 127.821 464.818 121.309 464.818Z" fill="#E1E4E5"/>
<path d="M257.651 160.762C252.695 160.762 248.678 156.745 248.678 151.789C248.678 146.834 252.695 142.816 257.651 142.816C262.607 142.816 266.624 146.834 266.624 151.789C266.624 156.745 262.607 160.762 257.651 160.762Z" fill="#E1E4E5"/>
<path d="M728.976 147.952C723.467 147.952 719 143.486 719 137.976C719 132.466 723.467 128 728.976 128C734.486 128 738.952 132.466 738.952 137.976C738.952 143.486 734.486 147.952 728.976 147.952Z" fill="#E1E4E5"/>
<path d="M171.375 247.242C172.656 252.021 169.82 256.933 165.041 258.214C160.262 259.494 155.35 256.658 154.07 251.879C152.789 247.101 155.625 242.189 160.404 240.908C165.183 239.628 170.095 242.464 171.375 247.242Z" fill="#E1E4E5"/>
<path d="M375.804 88.4298C369.222 88.4298 363.886 83.0939 363.886 76.5118C363.886 69.9296 369.222 64.5938 375.804 64.5938C382.386 64.5938 387.722 69.9296 387.722 76.5118C387.722 83.0939 382.386 88.4298 375.804 88.4298Z" fill="#E1E4E5"/>
<path d="M755.856 388.473C750.793 388.473 746.689 385.189 746.689 381.139C746.689 377.088 750.793 373.805 755.856 373.805C760.919 373.805 765.023 377.088 765.023 381.139C765.023 385.189 760.919 388.473 755.856 388.473Z" fill="#E1E4E5"/>
<path d="M706.653 51.8354C706.653 62.1322 698.306 70.4794 688.009 70.4794C677.712 70.4794 669.365 62.1322 669.365 51.8354C669.365 41.5386 677.712 33.1914 688.009 33.1914C698.306 33.1914 706.653 41.5386 706.653 51.8354Z" fill="#E1E4E5"/>
<path d="M825.376 330.488H825.615C827.036 350.61 842 350.919 842 350.919C842 350.919 825.499 351.242 825.499 374.491C825.499 351.242 808.997 350.919 808.997 350.919C808.997 350.919 823.955 350.61 825.376 330.488ZM222.63 526.103H222.843C224.103 544.314 237.381 544.594 237.381 544.594C237.381 544.594 222.739 544.886 222.739 565.928C222.739 544.886 208.097 544.594 208.097 544.594C208.097 544.594 221.37 544.314 222.63 526.103Z" fill="#E1E4E5"/>
<path fill-rule="evenodd" clip-rule="evenodd" d="M777.109 231.262C814.237 271.998 814.237 328.028 777.109 368.765C718.123 433.484 609.279 520.547 450.578 520.547C291.877 520.547 183.033 433.484 124.046 368.765C86.9182 328.028 86.9182 271.998 124.046 231.262C183.033 166.542 291.877 79.4805 450.578 79.4805C609.279 79.4805 718.123 166.542 777.109 231.262Z" fill="#4F27AA"/>
<path d="M615.555 464.543L615.583 464.514C706.776 373.306 706.767 225.44 615.562 134.243C524.357 43.0464 376.491 43.0494 285.29 134.25C194.089 225.451 194.086 373.316 285.283 464.521C376.481 555.726 524.346 555.736 615.555 464.543" stroke="white" stroke-width="31" stroke-linecap="round" stroke-linejoin="round"/>
<path d="M450.411 377.237C407.417 377.237 372.564 342.384 372.564 299.39C372.564 256.396 407.417 221.543 450.411 221.543C493.405 221.543 528.258 256.396 528.258 299.39C528.258 342.384 493.405 377.237 450.411 377.237Z" stroke="white" stroke-width="31" stroke-linecap="round" stroke-linejoin="round"/>
<path d="M372.564 299.391V519.435M528.258 299.387V79.2188M411.449 231.911L220.886 341.933M489.291 366.75L679.962 256.667M489.335 231.852L298.771 121.83M411.482 366.69L602.153 476.774" stroke="white" stroke-width="31" stroke-linecap="round" stroke-linejoin="round"/>
</g>
<defs>
<linearGradient id="paint0_linear_1235_28062" x1="730.841" y1="325.278" x2="950.032" y2="151.897" gradientUnits="userSpaceOnUse">
<stop stop-color="white"/>
<stop offset="1" stop-color="#EEEEEE"/>
</linearGradient>
<linearGradient id="paint1_linear_1235_28062" x1="188.905" y1="428.757" x2="-52.681" y2="204.292" gradientUnits="userSpaceOnUse">
<stop stop-color="white"/>
<stop offset="1" stop-color="#EEEEEE"/>
</linearGradient>
<clipPath id="clip0_1235_28062">
<rect width="900" height="600" fill="white"/>
</clipPath>
</defs>
</svg>
