<svg width="900" height="600" viewBox="0 0 900 600" fill="none" xmlns="http://www.w3.org/2000/svg">
<g clip-path="url(#clip0_1235_28141)">
<path d="M470.076 90.0742C361.049 90.0742 272.721 178.402 272.721 287.429C200.062 287.429 141.177 346.314 141.177 418.973C141.177 491.632 200.062 550.518 272.721 550.518H634.429C725.234 550.518 798.86 476.891 798.86 386.087C798.86 302.905 736.84 234.85 656.637 223.901C630.212 146.096 556.702 90.0742 470.076 90.0742V90.0742Z" stroke="#4F27AA" stroke-width="31" stroke-linecap="round" stroke-linejoin="round"/>
<path d="M548.619 301.238L452.51 396.299L394.844 339.263" stroke="#4F27AA" stroke-width="31" stroke-linecap="round" stroke-linejoin="round"/>
<path d="M789.848 159.759C785.241 159.759 781.507 163.494 781.507 168.1C781.507 172.707 785.241 176.441 789.848 176.441C794.455 176.441 798.189 172.707 798.189 168.1C798.189 163.494 794.455 159.759 789.848 159.759Z" fill="#4F27AA"/>
<path d="M229.833 469.554C222.955 469.554 217.38 463.979 217.38 457.101C217.38 450.224 222.955 444.648 229.833 444.648C236.711 444.648 242.286 450.224 242.286 457.101C242.286 463.979 236.711 469.554 229.833 469.554Z" fill="#4F27AA"/>
<path d="M812.663 272.654C808.059 272.654 804.326 268.922 804.326 264.317C804.326 259.713 808.059 255.98 812.663 255.98C817.267 255.98 821 259.713 821 264.317C821 268.922 817.267 272.654 812.663 272.654Z" fill="#4F27AA"/>
<path d="M801.203 550.748C794.695 550.748 789.419 545.472 789.419 538.964C789.419 532.456 794.695 527.18 801.203 527.18C807.711 527.18 812.987 532.456 812.987 538.964C812.987 545.472 807.711 550.748 801.203 550.748Z" fill="#E1E4E5"/>
<path d="M712.649 160.208C704.468 160.208 697.836 153.576 697.836 145.395C697.836 137.214 704.468 130.582 712.649 130.582C720.83 130.582 727.462 137.214 727.462 145.395C727.462 153.576 720.83 160.208 712.649 160.208Z" fill="#E1E4E5"/>
<path d="M206.221 215.532C207.902 221.808 204.178 228.259 197.902 229.941C191.625 231.623 185.174 227.898 183.492 221.622C181.811 215.346 185.535 208.895 191.812 207.213C198.088 205.531 204.539 209.256 206.221 215.532Z" fill="#E1E4E5"/>
<path d="M257.903 119.841C249.259 119.841 242.252 112.834 242.252 104.19C242.252 95.5463 249.259 88.5391 257.903 88.5391C266.547 88.5391 273.554 95.5463 273.554 104.19C273.554 112.834 266.547 119.841 257.903 119.841Z" fill="#E1E4E5"/>
<path d="M668.484 454.534C661.835 454.534 656.445 450.221 656.445 444.902C656.445 439.582 661.835 435.27 668.484 435.27C675.133 435.27 680.523 439.582 680.523 444.902C680.523 450.221 675.133 454.534 668.484 454.534Z" fill="#E1E4E5"/>
<path d="M656.961 69.3176C656.961 79.9303 648.358 88.5336 637.745 88.5336C627.132 88.5336 618.529 79.9303 618.529 69.3176C618.529 58.7049 627.132 50.1016 637.745 50.1016C648.358 50.1016 656.961 58.7049 656.961 69.3176Z" fill="#E1E4E5"/>
<path d="M89.831 273.152H90.003C91.018 287.542 101.72 287.764 101.72 287.764C101.72 287.764 89.92 287.994 89.92 304.621C89.92 287.994 78.118 287.764 78.118 287.764C78.118 287.764 88.816 287.542 89.831 273.152Z" fill="#E1E4E5"/>
</g>
<defs>
<clipPath id="clip0_1235_28141">
<rect width="900" height="600" fill="white"/>
</clipPath>
</defs>
</svg>
