<svg width="900" height="600" viewBox="0 0 900 600" fill="none" xmlns="http://www.w3.org/2000/svg">
<g clip-path="url(#clip0_1235_28155)">
<path d="M449.754 571.008C599.563 571.008 721.008 449.563 721.008 299.754C721.008 149.945 599.563 28.5 449.754 28.5C299.945 28.5 178.5 149.945 178.5 299.754C178.5 449.563 299.945 571.008 449.754 571.008Z" stroke="url(#paint0_linear_1235_28155)" stroke-width="3"/>
<path d="M730.863 172.999C723.207 172.999 717.001 179.205 717.001 186.861C717.001 194.516 723.207 200.723 730.863 200.723C738.519 200.723 744.725 194.516 744.725 186.861C744.725 179.205 738.519 172.999 730.863 172.999Z" fill="#4F27AA"/>
<path d="M207.926 348.002C200.788 348.002 195.001 353.788 195.001 360.927C195.001 368.065 200.788 373.852 207.926 373.852C215.064 373.852 220.851 368.065 220.851 360.927C220.851 353.788 215.064 348.002 207.926 348.002Z" fill="#4F27AA"/>
<path d="M163.996 201.683C156.819 201.683 151 195.865 151 188.687C151 181.51 156.819 175.691 163.996 175.691C171.173 175.691 176.992 181.51 176.992 188.687C176.992 195.865 171.173 201.683 163.996 201.683Z" fill="#4F27AA"/>
<path d="M737.066 306.13C733.716 306.13 731.001 303.415 731.001 300.065C731.001 296.715 733.716 294 737.066 294C740.416 294 743.131 296.715 743.131 300.065C743.131 303.415 740.416 306.13 737.066 306.13Z" fill="#4F27AA"/>
<path d="M425.612 523.959C421.305 523.959 417.814 520.468 417.814 516.161C417.814 511.855 421.305 508.363 425.612 508.363C429.919 508.363 433.41 511.855 433.41 516.161C433.41 520.468 429.919 523.959 425.612 523.959Z" fill="#E1E4E5"/>
<path d="M187.821 444.725C181.601 444.725 176.558 439.683 176.558 433.462C176.558 427.242 181.601 422.199 187.821 422.199C194.041 422.199 199.084 427.242 199.084 433.462C199.084 439.683 194.041 444.725 187.821 444.725Z" fill="#E1E4E5"/>
<path d="M291.924 166.703C287.19 166.703 283.352 162.865 283.352 158.131C283.352 153.396 287.19 149.559 291.924 149.559C296.658 149.559 300.496 153.396 300.496 158.131C300.496 162.865 296.658 166.703 291.924 166.703Z" fill="#E1E4E5"/>
<path d="M293.531 376.06C288.268 376.06 284.001 371.793 284.001 366.53C284.001 361.267 288.268 357 293.531 357C298.794 357 303.061 361.267 303.061 366.53C303.061 371.793 298.794 376.06 293.531 376.06Z" fill="#E1E4E5"/>
<path d="M325.627 471.395C326.85 475.96 324.141 480.653 319.575 481.876C315.01 483.1 310.317 480.39 309.094 475.825C307.871 471.26 310.58 466.567 315.145 465.344C319.711 464.12 324.403 466.83 325.627 471.395Z" fill="#E1E4E5"/>
<path d="M404.798 97.602C398.51 97.602 393.413 92.5048 393.413 86.217C393.413 79.9293 398.51 74.832 404.798 74.832C411.086 74.832 416.183 79.9293 416.183 86.217C416.183 92.5048 411.086 97.602 404.798 97.602Z" fill="#E1E4E5"/>
<path d="M595.635 57.3891C597.764 65.3361 593.048 73.5047 585.101 75.6341C577.154 77.7635 568.986 73.0474 566.856 65.1003C564.727 57.1533 569.443 48.9847 577.39 46.8553C585.337 44.7259 593.506 49.442 595.635 57.3891Z" fill="#E1E4E5"/>
<path d="M690.874 411.43H691.103C692.46 430.652 706.756 430.948 706.756 430.948C706.756 430.948 690.992 431.256 690.992 453.467C690.992 431.256 675.228 430.948 675.228 430.948C675.228 430.948 689.518 430.652 690.874 411.43Z" fill="#E1E4E5"/>
<path fill-rule="evenodd" clip-rule="evenodd" d="M563.605 257.055C571.169 249.49 571.169 237.226 563.605 229.662C556.04 222.097 543.776 222.097 536.212 229.662L471.504 294.37L498.897 321.763L563.605 257.055ZM433.602 387.057L406.209 359.664L307.937 457.937C300.372 465.501 300.372 477.766 307.937 485.33C315.501 492.894 327.765 492.894 335.33 485.33L433.602 387.057Z" fill="#4F27AA"/>
<path d="M377.942 451.84L350.549 479.233" stroke="#4F27AA" stroke-width="38.74"/>
<path d="M411.291 461.766L361.534 511.523" stroke="#4F27AA" stroke-width="38.74" stroke-linecap="round"/>
<path d="M567.623 136.754H520.274C513.142 136.754 507.361 142.535 507.361 149.667V197.016C507.361 204.148 513.142 209.929 520.274 209.929H567.623C574.755 209.929 580.536 204.148 580.536 197.016V149.667C580.536 142.535 574.755 136.754 567.623 136.754Z" stroke="#4F27AA" stroke-width="38.74"/>
<path d="M661.977 115.449H614.628C607.496 115.449 601.715 121.231 601.715 128.362V175.711C601.715 182.843 607.496 188.624 614.628 188.624H661.977C669.109 188.624 674.89 182.843 674.89 175.711V128.362C674.89 121.231 669.109 115.449 661.977 115.449Z" stroke="#4F27AA" stroke-width="38.74"/>
<path d="M640.671 209.805H593.322C586.19 209.805 580.409 215.586 580.409 222.718V270.067C580.409 277.198 586.19 282.98 593.322 282.98H640.671C647.803 282.98 653.584 277.198 653.584 270.067V222.718C653.584 215.586 647.803 209.805 640.671 209.805Z" stroke="#4F27AA" stroke-width="38.74"/>
<path d="M355.095 243.348L583.37 471.623" stroke="#4F27AA" stroke-width="38.74" stroke-linecap="round"/>
<path d="M527.062 451.836L554.456 479.229" stroke="#4F27AA" stroke-width="38.74"/>
<path d="M493.713 461.766L543.47 511.523" stroke="#4F27AA" stroke-width="38.74" stroke-linecap="round"/>
<path d="M337.381 136.758H384.73C391.862 136.758 397.643 142.539 397.643 149.671V197.02C397.643 204.151 391.862 209.933 384.73 209.933H337.381C330.249 209.933 324.468 204.151 324.468 197.02V149.671C324.468 142.539 330.249 136.758 337.381 136.758Z" stroke="#4F27AA" stroke-width="38.74"/>
<path d="M243.027 115.449H290.376C297.508 115.449 303.289 121.231 303.289 128.362V175.711C303.289 182.843 297.508 188.624 290.376 188.624H243.027C235.895 188.624 230.114 182.843 230.114 175.711V128.362C230.114 121.231 235.895 115.449 243.027 115.449Z" stroke="#4F27AA" stroke-width="38.74"/>
<path d="M264.332 209.805H311.681C318.813 209.805 324.594 215.586 324.594 222.718V270.067C324.594 277.198 318.813 282.98 311.681 282.98H264.332C257.2 282.98 251.419 277.198 251.419 270.067V222.718C251.419 215.586 257.2 209.805 264.332 209.805Z" stroke="#4F27AA" stroke-width="38.74"/>
</g>
<defs>
<linearGradient id="paint0_linear_1235_28155" x1="461.385" y1="878.352" x2="444.565" y2="-566.42" gradientUnits="userSpaceOnUse">
<stop stop-color="white"/>
<stop offset="1" stop-color="#EEEEEE"/>
</linearGradient>
<clipPath id="clip0_1235_28155">
<rect width="900" height="600" fill="white"/>
</clipPath>
</defs>
</svg>
