<svg width="900" height="600" viewBox="0 0 900 600" fill="none" xmlns="http://www.w3.org/2000/svg">
<g clip-path="url(#clip0_1235_28182)">
<path d="M253.247 409.8C255.316 462.282 367.37 558.873 489.509 507.761C546.314 483.987 538.508 454.113 579.254 409.951C603.541 383.629 639.959 362.03 647.306 326.395C653.656 295.635 645.023 264.024 627.186 244.611C587.07 200.952 511.971 175.527 447.908 256.265C383.844 337.003 247.927 274.445 253.247 409.8Z" fill="url(#paint0_linear_1235_28182)"/>
<path d="M252.881 206.048C263.95 225.803 288.193 228.518 327.032 224.764C356.241 221.935 382.878 219.746 412.09 203.82C432.536 192.68 448.72 177.608 460.533 162.97C473.334 147.112 491.201 129.014 482.442 111.034C470.405 86.3345 400.797 65.5335 333.206 99.5515C258.956 136.931 242.052 186.74 252.881 206.048Z" fill="url(#paint1_linear_1235_28182)"/>
<path d="M130.277 260.89C158.973 275.125 197.059 256.822 197.059 256.822C197.059 256.822 188.595 215.447 159.884 201.232C131.188 186.998 93.116 205.281 93.116 205.281C93.116 205.281 101.581 246.655 130.277 260.89Z" fill="url(#paint2_linear_1235_28182)"/>
<path d="M773.251 305.236C757.661 314.58 735.292 305.942 735.292 305.942C735.292 305.942 738.217 282.157 753.818 272.824C769.408 263.48 791.767 272.107 791.767 272.107C791.767 272.107 788.842 295.892 773.251 305.236Z" fill="url(#paint3_linear_1235_28182)"/>
<path d="M201.434 464.304C206.302 464.304 210.248 460.358 210.248 455.49C210.248 450.622 206.302 446.676 201.434 446.676C196.566 446.676 192.62 450.622 192.62 455.49C192.62 460.358 196.566 464.304 201.434 464.304Z" fill="#E1E4E5"/>
<path d="M775.453 402.907C782.484 402.907 788.184 397.207 788.184 390.176C788.184 383.145 782.484 377.445 775.453 377.445C768.422 377.445 762.722 383.145 762.722 390.176C762.722 397.207 768.422 402.907 775.453 402.907Z" fill="#E1E4E5"/>
<path d="M156.551 378.038C161.902 378.038 166.24 373.7 166.24 368.349C166.24 362.998 161.902 358.66 156.551 358.66C151.2 358.66 146.862 362.998 146.862 368.349C146.862 373.7 151.2 378.038 156.551 378.038Z" fill="#E1E4E5"/>
<path d="M210.796 122.411C216.745 122.411 221.568 117.588 221.568 111.639C221.568 105.69 216.745 100.867 210.796 100.867C204.847 100.867 200.024 105.69 200.024 111.639C200.024 117.588 204.847 122.411 210.796 122.411Z" fill="#E1E4E5"/>
<path d="M800.654 179.673C800.654 185.015 804.985 189.346 810.327 189.346C815.669 189.346 820 185.015 820 179.673C820 174.331 815.669 170 810.327 170C804.985 170 800.654 174.331 800.654 179.673Z" fill="#E1E4E5"/>
<path d="M500.381 88.9669C505.146 88.9669 509.009 85.104 509.009 80.3389C509.009 75.5738 505.146 71.7109 500.381 71.7109C495.616 71.7109 491.753 75.5738 491.753 80.3389C491.753 85.104 495.616 88.9669 500.381 88.9669Z" fill="#E1E4E5"/>
<path d="M191.817 322.6C197.284 322.6 201.716 319.054 201.716 314.681C201.716 310.307 197.284 306.762 191.817 306.762C186.35 306.762 181.918 310.307 181.918 314.681C181.918 319.054 186.35 322.6 191.817 322.6Z" fill="#E1E4E5"/>
<path d="M685.794 101.293H685.653C684.818 113.124 676.019 113.306 676.019 113.306C676.019 113.306 685.721 113.496 685.721 127.167C685.721 113.496 695.424 113.306 695.424 113.306C695.424 113.306 686.629 113.124 685.794 101.293ZM716.958 431.958H716.823C716.021 443.755 707.573 443.936 707.573 443.936C707.573 443.936 716.889 444.125 716.889 457.756C716.889 444.125 726.204 443.936 726.204 443.936C726.204 443.936 717.76 443.755 716.958 431.958Z" fill="#E1E4E5"/>
<path d="M530.265 121.348H596.272C615.274 121.348 630.702 136.775 630.702 155.778V221.785M369.628 482.919H303.621C284.618 482.919 269.191 467.492 269.191 448.49V382.483" stroke="#4F27AA" stroke-width="29.89" stroke-linecap="round" stroke-linejoin="round"/>
<path fill-rule="evenodd" clip-rule="evenodd" d="M305.563 76.9986L313.596 90.3866H368.09C382.274 90.3866 395.637 91.2066 407.041 92.2776C428.944 94.3356 445.881 111.273 447.939 133.176C449.01 144.58 449.831 157.944 449.831 172.128C449.831 196.93 448.928 219.023 447.779 237.091C445.859 267.305 422.364 290.563 392.14 292.306C369.185 293.629 338.462 294.739 299.972 294.739C261.482 294.739 230.76 293.629 207.805 292.306C177.58 290.563 154.086 267.305 152.165 237.091C150.798 215.463 150.114 193.798 150.114 172.128C150.114 137.187 151.358 110.959 152.784 92.3786C154.466 70.4446 170.981 53.3746 192.874 51.2186C202.807 50.2416 213.925 49.5156 225.043 49.5156C240.974 49.5156 256.905 51.0056 269.35 52.5926C284.58 54.5336 297.664 63.8326 305.563 76.9986ZM605.426 306.476L613.459 319.864H667.953C682.137 319.864 695.5 320.684 706.905 321.755C728.807 323.813 745.744 340.75 747.802 362.653C748.874 374.057 749.694 387.421 749.694 401.605C749.694 426.407 748.791 448.5 747.642 466.568C745.722 496.782 722.227 520.04 692.003 521.783C669.048 523.106 638.325 524.216 599.835 524.216C561.346 524.216 530.623 523.106 507.668 521.783C477.444 520.04 453.949 496.782 452.029 466.568C450.661 444.94 449.977 423.275 449.977 401.605C449.977 366.664 451.222 340.436 452.647 321.857C454.329 299.922 470.844 282.852 492.737 280.697C502.671 279.719 513.788 278.993 524.906 278.993C540.837 278.993 556.768 280.484 569.214 282.07C584.444 284.011 597.527 293.311 605.426 306.476Z" fill="#4F27AA"/>
<path fill-rule="evenodd" clip-rule="evenodd" d="M619.246 436.827C628.362 431.553 634.496 421.696 634.496 410.406C634.496 393.561 620.84 379.905 603.995 379.905C587.15 379.905 573.494 393.561 573.494 410.406C573.494 421.696 579.628 431.553 588.745 436.827V456.158C588.745 464.58 595.573 471.408 603.995 471.408C612.418 471.408 619.246 464.58 619.246 456.158V436.827ZM314.983 202.499C324.1 197.225 330.234 187.368 330.234 176.079C330.234 159.233 316.578 145.578 299.733 145.578C282.888 145.578 269.232 159.233 269.232 176.079C269.232 187.368 275.366 197.225 284.482 202.499V221.83C284.482 230.252 291.31 237.08 299.733 237.08C308.155 237.08 314.983 230.252 314.983 221.83V202.499Z" fill="white"/>
</g>
<defs>
<linearGradient id="paint0_linear_1235_28182" x1="404.647" y1="711.335" x2="514.718" y2="-168.128" gradientUnits="userSpaceOnUse">
<stop stop-color="white"/>
<stop offset="1" stop-color="#EEEEEE"/>
</linearGradient>
<linearGradient id="paint1_linear_1235_28182" x1="327.451" y1="334.081" x2="426.114" y2="-109.269" gradientUnits="userSpaceOnUse">
<stop stop-color="white"/>
<stop offset="1" stop-color="#EEEEEE"/>
</linearGradient>
<linearGradient id="paint2_linear_1235_28182" x1="240.472" y1="305.292" x2="3.78695" y2="118.073" gradientUnits="userSpaceOnUse">
<stop stop-color="white"/>
<stop offset="1" stop-color="#EEEEEE"/>
</linearGradient>
<linearGradient id="paint3_linear_1235_28182" x1="712.919" y1="335.315" x2="838.369" y2="218.755" gradientUnits="userSpaceOnUse">
<stop stop-color="white"/>
<stop offset="1" stop-color="#EEEEEE"/>
</linearGradient>
<clipPath id="clip0_1235_28182">
<rect width="900" height="600" fill="white"/>
</clipPath>
</defs>
</svg>
