<svg width="900" height="600" viewBox="0 0 900 600" fill="none" xmlns="http://www.w3.org/2000/svg">
<g clip-path="url(#clip0_1235_28219)">
<path d="M430.321 378.259C363.069 378.259 308.551 323.74 308.551 256.489C308.551 189.237 363.069 134.719 430.321 134.719C497.573 134.719 552.091 189.237 552.091 256.489C552.091 323.74 497.573 378.259 430.321 378.259Z" stroke="#4F27AA" stroke-width="31" stroke-linecap="round" stroke-linejoin="round"/>
<path d="M539.769 337.66L604.927 396.788C607.591 399.338 609.713 402.399 611.166 405.789C612.618 409.178 613.372 412.826 613.382 416.513C613.391 420.201 612.656 423.852 611.221 427.249C609.786 430.646 607.68 433.718 605.03 436.282C602.379 438.846 599.238 440.848 595.796 442.169C592.353 443.491 588.679 444.103 584.994 443.971C581.309 443.838 577.688 442.964 574.349 441.399C571.01 439.834 568.021 437.611 565.561 434.864L509.786 368.965" stroke="#4F27AA" stroke-width="31" stroke-linecap="round" stroke-linejoin="round"/>
<path d="M85 88.7734H357.925M85 439.873H381.24M533.475 88.7734H816M85 160.09H261.921M85 511.19H518.388M85 368.555H272.893M597.934 160.09H699.424M628.107 231.407H816M154.946 231.407H227.634M659.651 302.724H816M167.289 302.724H227.634M597.934 511.19H816M687.081 439.873H816M687.081 363.069H816" stroke="#E1E4E5" stroke-width="31" stroke-linecap="round" stroke-linejoin="round"/>
</g>
<defs>
<clipPath id="clip0_1235_28219">
<rect width="900" height="600" fill="white"/>
</clipPath>
</defs>
</svg>
