<svg width="900" height="600" viewBox="0 0 900 600" fill="none" xmlns="http://www.w3.org/2000/svg">
<g clip-path="url(#clip0_1235_28245)">
<path d="M399.788 408H137.834C124.119 408 113 419.119 113 432.834V502.672C113 516.387 124.119 527.506 137.834 527.506H399.788C413.503 527.506 424.622 516.387 424.622 502.672V432.834C424.622 419.119 413.503 408 399.788 408Z" fill="white" stroke="#E1E4E5" stroke-width="4.967"/>
<path d="M385.775 445.195H224.59C220.677 445.195 217.505 448.367 217.505 452.28C217.505 456.193 220.677 459.365 224.59 459.365H385.775C389.688 459.365 392.86 456.193 392.86 452.28C392.86 448.367 389.688 445.195 385.775 445.195Z" fill="#E1E4E5"/>
<path d="M323.781 475.309H224.59C220.677 475.309 217.505 478.481 217.505 482.394C217.505 486.307 220.677 489.479 224.59 489.479H323.781C327.694 489.479 330.866 486.307 330.866 482.394C330.866 478.481 327.694 475.309 323.781 475.309Z" fill="#E1E4E5"/>
<path fill-rule="evenodd" clip-rule="evenodd" d="M162.387 497.878C145.869 497.878 132.477 484.297 132.477 467.547C132.477 450.796 145.869 437.215 162.387 437.215C178.905 437.215 192.297 450.796 192.297 467.547C192.297 484.297 178.905 497.878 162.387 497.878Z" fill="#4F27AA"/>
<path d="M172.919 462.492L160.284 475.973L152.698 467.886" stroke="white" stroke-width="4.431" stroke-linecap="round" stroke-linejoin="round"/>
<path d="M761.788 408H499.834C486.119 408 475 419.119 475 432.834V502.672C475 516.387 486.119 527.506 499.834 527.506H761.788C775.503 527.506 786.622 516.387 786.622 502.672V432.834C786.622 419.119 775.503 408 761.788 408Z" fill="white" stroke="#E1E4E5" stroke-width="4.967"/>
<path d="M747.775 445.195H586.59C582.677 445.195 579.505 448.367 579.505 452.28C579.505 456.193 582.677 459.365 586.59 459.365H747.775C751.688 459.365 754.86 456.193 754.86 452.28C754.86 448.367 751.688 445.195 747.775 445.195Z" fill="#E1E4E5"/>
<path d="M685.781 475.309H586.59C582.677 475.309 579.505 478.481 579.505 482.394C579.505 486.307 582.677 489.479 586.59 489.479H685.781C689.694 489.479 692.866 486.307 692.866 482.394C692.866 478.481 689.694 475.309 685.781 475.309Z" fill="#E1E4E5"/>
<path fill-rule="evenodd" clip-rule="evenodd" d="M524.387 497.878C507.869 497.878 494.477 484.297 494.477 467.547C494.477 450.796 507.869 437.215 524.387 437.215C540.905 437.215 554.297 450.796 554.297 467.547C554.297 484.297 540.905 497.878 524.387 497.878Z" fill="#4F27AA"/>
<path d="M534.919 462.492L522.284 475.973L514.698 467.886" stroke="white" stroke-width="4.431" stroke-linecap="round" stroke-linejoin="round"/>
<path d="M761.788 256H499.834C486.119 256 475 267.119 475 280.834V350.672C475 364.387 486.119 375.506 499.834 375.506H761.788C775.503 375.506 786.622 364.387 786.622 350.672V280.834C786.622 267.119 775.503 256 761.788 256Z" fill="white" stroke="#E1E4E5" stroke-width="4.967"/>
<path d="M747.775 293.195H586.59C582.677 293.195 579.505 296.367 579.505 300.28C579.505 304.193 582.677 307.365 586.59 307.365H747.775C751.688 307.365 754.86 304.193 754.86 300.28C754.86 296.367 751.688 293.195 747.775 293.195Z" fill="#E1E4E5"/>
<path d="M685.781 323.309H586.59C582.677 323.309 579.505 326.481 579.505 330.394C579.505 334.307 582.677 337.479 586.59 337.479H685.781C689.694 337.479 692.866 334.307 692.866 330.394C692.866 326.481 689.694 323.309 685.781 323.309Z" fill="#E1E4E5"/>
<path fill-rule="evenodd" clip-rule="evenodd" d="M524.387 345.878C507.869 345.878 494.477 332.297 494.477 315.547C494.477 298.796 507.869 285.215 524.387 285.215C540.905 285.215 554.297 298.796 554.297 315.547C554.297 332.297 540.905 345.878 524.387 345.878Z" fill="#4F27AA"/>
<path d="M534.919 310.492L522.284 323.973L514.698 315.886" stroke="white" stroke-width="4.431" stroke-linecap="round" stroke-linejoin="round"/>
<path d="M399.788 256H137.834C124.119 256 113 267.119 113 280.834V350.672C113 364.387 124.119 375.506 137.834 375.506H399.788C413.503 375.506 424.622 364.387 424.622 350.672V280.834C424.622 267.119 413.503 256 399.788 256Z" fill="white" stroke="#E1E4E5" stroke-width="4.967"/>
<path d="M385.775 293.195H224.59C220.677 293.195 217.505 296.367 217.505 300.28C217.505 304.193 220.677 307.365 224.59 307.365H385.775C389.688 307.365 392.86 304.193 392.86 300.28C392.86 296.367 389.688 293.195 385.775 293.195Z" fill="#E1E4E5"/>
<path d="M323.781 323.309H224.59C220.677 323.309 217.505 326.481 217.505 330.394C217.505 334.307 220.677 337.479 224.59 337.479H323.781C327.694 337.479 330.866 334.307 330.866 330.394C330.866 326.481 327.694 323.309 323.781 323.309Z" fill="#E1E4E5"/>
<path fill-rule="evenodd" clip-rule="evenodd" d="M162.387 345.878C145.869 345.878 132.477 332.297 132.477 315.547C132.477 298.796 145.869 285.215 162.387 285.215C178.905 285.215 192.297 298.796 192.297 315.547C192.297 332.297 178.905 345.878 162.387 345.878Z" fill="#4F27AA"/>
<path d="M172.919 310.492L160.284 323.973L152.698 315.886" stroke="white" stroke-width="4.431" stroke-linecap="round" stroke-linejoin="round"/>
<path d="M761.788 104H499.834C486.119 104 475 115.119 475 128.834V198.672C475 212.387 486.119 223.506 499.834 223.506H761.788C775.503 223.506 786.622 212.387 786.622 198.672V128.834C786.622 115.119 775.503 104 761.788 104Z" fill="white" stroke="#E1E4E5" stroke-width="4.967"/>
<path d="M747.775 141.195H586.59C582.677 141.195 579.505 144.367 579.505 148.28C579.505 152.193 582.677 155.365 586.59 155.365H747.775C751.688 155.365 754.86 152.193 754.86 148.28C754.86 144.367 751.688 141.195 747.775 141.195Z" fill="#E1E4E5"/>
<path d="M685.781 171.309H586.59C582.677 171.309 579.505 174.481 579.505 178.394C579.505 182.307 582.677 185.479 586.59 185.479H685.781C689.694 185.479 692.866 182.307 692.866 178.394C692.866 174.481 689.694 171.309 685.781 171.309Z" fill="#E1E4E5"/>
<path fill-rule="evenodd" clip-rule="evenodd" d="M524.387 193.878C507.869 193.878 494.477 180.297 494.477 163.547C494.477 146.796 507.869 133.215 524.387 133.215C540.905 133.215 554.297 146.796 554.297 163.547C554.297 180.297 540.905 193.878 524.387 193.878Z" fill="#4F27AA"/>
<path d="M534.919 158.492L522.284 171.973L514.698 163.886" stroke="white" stroke-width="4.431" stroke-linecap="round" stroke-linejoin="round"/>
<path d="M399.788 104H137.834C124.119 104 113 115.119 113 128.834V198.672C113 212.387 124.119 223.506 137.834 223.506H399.788C413.503 223.506 424.622 212.387 424.622 198.672V128.834C424.622 115.119 413.503 104 399.788 104Z" fill="white" stroke="#E1E4E5" stroke-width="4.967"/>
<path d="M385.775 141.195H224.59C220.677 141.195 217.505 144.367 217.505 148.28C217.505 152.193 220.677 155.365 224.59 155.365H385.775C389.688 155.365 392.86 152.193 392.86 148.28C392.86 144.367 389.688 141.195 385.775 141.195Z" fill="#E1E4E5"/>
<path d="M323.781 171.309H224.59C220.677 171.309 217.505 174.481 217.505 178.394C217.505 182.307 220.677 185.479 224.59 185.479H323.781C327.694 185.479 330.866 182.307 330.866 178.394C330.866 174.481 327.694 171.309 323.781 171.309Z" fill="#E1E4E5"/>
<path fill-rule="evenodd" clip-rule="evenodd" d="M162.387 193.878C145.869 193.878 132.477 180.297 132.477 163.547C132.477 146.796 145.869 133.215 162.387 133.215C178.905 133.215 192.297 146.796 192.297 163.547C192.297 180.297 178.905 193.878 162.387 193.878Z" fill="#4F27AA"/>
<path d="M172.919 158.492L160.284 171.973L152.698 163.886" stroke="white" stroke-width="4.431" stroke-linecap="round" stroke-linejoin="round"/>
<path fill-rule="evenodd" clip-rule="evenodd" d="M572.714 392H326.286C299.066 392 277 369.959 277 342.769V121.231C277 94.041 299.066 72 326.286 72H572.714C599.934 72 622 94.041 622 121.231V342.769C622 369.959 599.934 392 572.714 392Z" fill="#4F27AA"/>
<path d="M417.216 275.234L373.865 231.882L417.216 188.531M482.246 188.531L525.597 231.882L482.246 275.234" stroke="white" stroke-width="31" stroke-linecap="round" stroke-linejoin="round"/>
</g>
<defs>
<clipPath id="clip0_1235_28245">
<rect width="900" height="600" fill="white"/>
</clipPath>
</defs>
</svg>
