<svg width="900" height="600" viewBox="0 0 900 600" fill="none" xmlns="http://www.w3.org/2000/svg">
<g clip-path="url(#clip0_1235_18796)">
<path d="M575.051 200.175C559.747 150.224 427.473 85.7547 322.971 165.899C274.369 203.175 289.455 229.926 261.471 282.737C244.791 314.213 215.244 344.225 217.219 380.363C218.916 411.557 235.238 439.769 257.318 453.915C306.976 485.728 385.654 491.128 426.785 397.224C467.916 303.321 614.507 329.006 575.051 200.175Z" fill="url(#paint0_linear_1235_18796)"/>
<path d="M678.971 322.184C657.77 300.431 625.416 305.33 576.397 323.678C539.533 337.484 505.781 349.568 473.461 380.345C450.837 401.877 435.099 427.024 424.876 450.091C413.796 475.082 396.929 504.734 414.52 524.99C438.691 552.813 536.102 555.6 611.869 488.057C695.095 413.847 699.704 343.442 678.971 322.184Z" fill="url(#paint1_linear_1235_18796)"/>
<path fill-rule="evenodd" clip-rule="evenodd" d="M374.5 280.906C328.939 280.906 292 243.966 292 198.406C292 152.845 328.939 115.906 374.5 115.906C420.061 115.906 457 152.845 457 198.406C457 243.966 420.061 280.906 374.5 280.906ZM374.5 498.906C328.939 498.906 292 462.19 292 416.906C292 371.621 328.939 334.906 374.5 334.906C420.061 334.906 457 371.621 457 416.906C457 462.19 420.061 498.906 374.5 498.906ZM607.5 280.906C561.939 280.906 525 243.966 525 198.406C525 152.845 561.939 115.906 607.5 115.906C653.061 115.906 690 152.845 690 198.406C690 243.966 653.061 280.906 607.5 280.906Z" fill="#4F27AA"/>
<path d="M402 185.906L367.633 220.906L347 199.909M402 403.906L367.633 437.906L347 417.509M635 185.906L600.633 220.906L580 199.909" stroke="white" stroke-width="15" stroke-linecap="round" stroke-linejoin="round"/>
<path fill-rule="evenodd" clip-rule="evenodd" d="M528.37 477.361L476.999 313.17C471.566 295.845 489.296 280.342 505.752 288.016L658.953 359.55C677.099 368.03 674.057 394.745 654.455 398.907L591.386 412.252L567.989 478.089C561.256 497 534.375 496.506 528.37 477.361Z" fill="#4F27AA"/>
<path d="M170.139 454.279C187.882 472.338 221.061 468.531 221.061 468.531C221.061 468.531 225.452 435.443 207.692 417.396C189.949 399.337 156.786 403.133 156.786 403.133C156.786 403.133 152.396 436.22 170.139 454.279Z" fill="url(#paint2_linear_1235_18796)"/>
<path d="M609.244 96.2726C592.428 105.865 568.809 96.1536 568.809 96.1536C568.809 96.1536 572.469 70.8956 589.295 61.3156C606.11 51.7236 629.719 61.4226 629.719 61.4226C629.719 61.4226 626.059 86.6806 609.244 96.2726Z" fill="url(#paint3_linear_1235_18796)"/>
<path d="M307.646 133.783C290.362 151.374 258.042 147.665 258.042 147.665C258.042 147.665 253.765 115.435 271.065 97.8547C288.349 80.2627 320.653 83.9607 320.653 83.9607C320.653 83.9607 324.929 116.192 307.646 133.783Z" fill="url(#paint4_linear_1235_18796)"/>
<path d="M186 297.906C194.284 297.906 201 304.846 201 313.406C201 321.967 194.284 328.906 186 328.906C177.716 328.906 171 321.967 171 313.406C171 304.846 177.716 297.906 186 297.906Z" fill="#E1E4E5"/>
<path d="M628.5 429C641.479 429 652 439.521 652 452.5C652 465.479 641.479 476 628.5 476C615.521 476 605 465.479 605 452.5C605 439.521 615.521 429 628.5 429Z" fill="#4F27AA"/>
<path d="M248 241C254.627 241 260 235.627 260 229C260 222.373 254.627 217 248 217C241.373 217 236 222.373 236 229C236 235.627 241.373 241 248 241Z" fill="#4F27AA"/>
<path d="M311.5 323.906C308.462 323.906 306 321.444 306 318.406C306 315.369 308.462 312.906 311.5 312.906C314.538 312.906 317 315.369 317 318.406C317 321.444 314.538 323.906 311.5 323.906Z" fill="#E1E4E5"/>
<path d="M724.5 376C734.165 376 742 368.389 742 359C742 349.611 734.165 342 724.5 342C714.835 342 707 349.611 707 359C707 368.389 714.835 376 724.5 376Z" fill="#E1E4E5"/>
<path d="M487.5 511C493.851 511 499 505.851 499 499.5C499 493.149 493.851 488 487.5 488C481.149 488 476 493.149 476 499.5C476 505.851 481.149 511 487.5 511Z" fill="#E1E4E5"/>
<path d="M400.5 109.906C403.538 109.906 406 107.22 406 103.906C406 100.593 403.538 97.9062 400.5 97.9062C397.462 97.9062 395 100.593 395 103.906C395 107.22 397.462 109.906 400.5 109.906Z" fill="#E1E4E5"/>
<path d="M659 286.406C659 289.444 661.686 291.906 665 291.906C668.314 291.906 671 289.444 671 286.406C671 283.369 668.314 280.906 665 280.906C661.686 280.906 659 283.369 659 286.406Z" fill="#E1E4E5"/>
<path d="M707 211.906C709.761 211.906 712 209.892 712 207.406C712 204.921 709.761 202.906 707 202.906C704.239 202.906 702 204.921 702 207.406C702 209.892 704.239 211.906 707 211.906Z" fill="#E1E4E5"/>
<path d="M211.5 262.906C214.538 262.906 217 260.892 217 258.406C217 255.921 214.538 253.906 211.5 253.906C208.462 253.906 206 255.921 206 258.406C206 260.892 208.462 262.906 211.5 262.906Z" fill="#E1E4E5"/>
<path d="M518.309 113.648C516.685 119.707 520.281 125.935 526.34 127.559C532.399 129.182 538.627 125.587 540.251 119.528C541.874 113.469 538.279 107.241 532.219 105.617C526.16 103.993 519.932 107.589 518.309 113.648Z" fill="#E1E4E5"/>
<path d="M231.578 167H231.426C230.522 178.889 221 179.072 221 179.072C221 179.072 231.5 179.262 231.5 193C231.5 179.262 242 179.072 242 179.072C242 179.072 232.482 178.889 231.578 167ZM702.127 125H701.88C700.417 146.492 685 146.823 685 146.823C685 146.823 702 147.167 702 172C702 147.167 719 146.823 719 146.823C719 146.823 703.59 146.492 702.127 125Z" fill="#E1E4E5"/>
</g>
<defs>
<linearGradient id="paint0_linear_1235_18796" x1="352.942" y1="-51.4213" x2="470.195" y2="822.34" gradientUnits="userSpaceOnUse">
<stop stop-color="white"/>
<stop offset="1" stop-color="#EEEEEE"/>
</linearGradient>
<linearGradient id="paint1_linear_1235_18796" x1="537.902" y1="182.184" x2="563.987" y2="790.876" gradientUnits="userSpaceOnUse">
<stop stop-color="white"/>
<stop offset="1" stop-color="#EEEEEE"/>
</linearGradient>
<linearGradient id="paint2_linear_1235_18796" x1="240.931" y1="515.965" x2="112.658" y2="314.885" gradientUnits="userSpaceOnUse">
<stop stop-color="white"/>
<stop offset="1" stop-color="#EEEEEE"/>
</linearGradient>
<linearGradient id="paint3_linear_1235_18796" x1="544.312" y1="126.916" x2="680.564" y2="5.68368" gradientUnits="userSpaceOnUse">
<stop stop-color="white"/>
<stop offset="1" stop-color="#EEEEEE"/>
</linearGradient>
<linearGradient id="paint4_linear_1235_18796" x1="238.687" y1="193.871" x2="363.638" y2="-2.00134" gradientUnits="userSpaceOnUse">
<stop stop-color="white"/>
<stop offset="1" stop-color="#EEEEEE"/>
</linearGradient>
<clipPath id="clip0_1235_18796">
<rect width="900" height="600" fill="white"/>
</clipPath>
</defs>
</svg>
