<svg width="900" height="600" viewBox="0 0 900 600" fill="none" xmlns="http://www.w3.org/2000/svg">
<g clip-path="url(#clip0_1235_28296)">
<path d="M373.367 500.232C402.679 517.8 444.733 501.56 444.733 501.56C444.733 501.56 439.234 456.843 409.904 439.294C380.592 421.726 338.556 437.947 338.556 437.947C338.556 437.947 344.055 482.664 373.367 500.232Z" fill="url(#paint0_linear_1235_28296)"/>
<path d="M710.26 438.711C701.567 438.711 694.52 445.758 694.52 454.451C694.52 463.144 701.567 470.191 710.26 470.191C718.953 470.191 726 463.144 726 454.451C726 445.758 718.953 438.711 710.26 438.711Z" fill="#4F27AA"/>
<path d="M191.381 78.8126C181.602 78.8126 173.674 86.7403 173.674 96.5196C173.674 106.299 181.602 114.227 191.381 114.227C201.16 114.227 209.088 106.299 209.088 96.5196C209.088 86.7403 201.16 78.8126 191.381 78.8126Z" fill="#4F27AA"/>
<path d="M223.833 497.946C215.683 497.946 209.077 491.339 209.077 483.19C209.077 475.04 215.683 468.434 223.833 468.434C231.982 468.434 238.589 475.04 238.589 483.19C238.589 491.339 231.982 497.946 223.833 497.946Z" fill="#4F27AA"/>
<path d="M545.301 532.54C540.411 532.54 536.447 528.576 536.447 523.686C536.447 518.796 540.411 514.832 545.301 514.832C550.191 514.832 554.155 518.796 554.155 523.686C554.155 528.576 550.191 532.54 545.301 532.54Z" fill="#E1E4E5"/>
<path d="M615.966 571.152C608.903 571.152 603.177 565.426 603.177 558.363C603.177 551.3 608.903 545.574 615.966 545.574C623.029 545.574 628.755 551.3 628.755 558.363C628.755 565.426 623.029 571.152 615.966 571.152Z" fill="#E1E4E5"/>
<path d="M664.025 129.286C658.649 129.286 654.292 124.929 654.292 119.553C654.292 114.178 658.649 109.82 664.025 109.82C669.4 109.82 673.758 114.178 673.758 119.553C673.758 124.929 669.4 129.286 664.025 129.286Z" fill="#E1E4E5"/>
<path d="M348.893 38.2115C350.282 43.3952 347.205 48.7234 342.022 50.1123C336.838 51.5013 331.51 48.4251 330.121 43.2414C328.732 38.0577 331.808 32.7295 336.992 31.3405C342.176 29.9516 347.504 33.0278 348.893 38.2115Z" fill="#E1E4E5"/>
<path d="M433.352 79.0649C426.212 79.0649 420.425 73.2773 420.425 66.1379C420.425 58.9986 426.212 53.2109 433.352 53.2109C440.491 53.2109 446.279 58.9986 446.279 66.1379C446.279 73.2773 440.491 79.0649 433.352 79.0649Z" fill="#E1E4E5"/>
<path d="M294.562 566.074C289.07 566.074 284.618 562.512 284.618 558.119C284.618 553.726 289.07 550.164 294.562 550.164C300.054 550.164 304.506 553.726 304.506 558.119C304.506 562.512 300.054 566.074 294.562 566.074Z" fill="#E1E4E5"/>
<path d="M678.528 54.8782C681.419 65.6665 675.016 76.7555 664.228 79.6462C653.44 82.5369 642.351 76.1347 639.46 65.3464C636.569 54.5581 642.972 43.4691 653.76 40.5784C664.548 37.6877 675.637 44.0899 678.528 54.8782Z" fill="#E1E4E5"/>
<path fill-rule="evenodd" clip-rule="evenodd" d="M694.521 157.922V281.27C694.521 401.945 619.674 509.964 506.686 552.342L473.143 564.912C466.562 567.323 459.339 567.323 452.758 564.912L419.151 552.342C306.188 509.943 231.367 401.928 231.38 281.27V157.922C231.372 132.626 247.769 110.245 271.891 102.627L445.593 48.3726C456.888 44.7925 469.013 44.7925 480.308 48.3726L654.01 102.627C678.133 110.244 694.53 132.626 694.521 157.922Z" fill="#4F27AA"/>
<path d="M574.864 246.487C508.95 195.546 416.951 195.546 351.037 246.487M397.685 314.488C436.141 284.806 489.782 284.806 528.239 314.488M462.953 376.643C464.278 376.692 465.558 377.129 466.636 377.9C467.714 378.672 468.541 379.743 469.014 380.981C469.487 382.219 469.586 383.568 469.297 384.862C469.009 386.155 468.346 387.336 467.392 388.255C466.438 389.175 465.234 389.794 463.931 390.034C462.628 390.275 461.283 390.127 460.063 389.608C458.843 389.09 457.803 388.224 457.072 387.119C456.341 386.013 455.951 384.717 455.951 383.392C455.988 381.57 456.746 379.836 458.058 378.572C459.371 377.307 461.131 376.613 462.953 376.643Z" stroke="white" stroke-width="38.39" stroke-linecap="round" stroke-linejoin="round"/>
</g>
<defs>
<linearGradient id="paint0_linear_1235_28296" x1="486.798" y1="556.783" x2="250.94" y2="337.64" gradientUnits="userSpaceOnUse">
<stop stop-color="white"/>
<stop offset="1" stop-color="#EEEEEE"/>
</linearGradient>
<clipPath id="clip0_1235_28296">
<rect width="900" height="600" fill="white"/>
</clipPath>
</defs>
</svg>
