<svg width="900" height="600" viewBox="0 0 900 600" fill="none" xmlns="http://www.w3.org/2000/svg">
<g clip-path="url(#clip0_1235_28311)">
<path d="M812.538 276.78C787.456 289.222 754.166 273.223 754.166 273.223C754.166 273.223 761.564 237.06 786.66 224.635C811.742 212.193 845.019 228.174 845.019 228.174C845.019 228.174 837.62 264.337 812.538 276.78Z" fill="url(#paint0_linear_1235_28311)"/>
<path d="M100.08 367.716C132.852 387.358 179.871 369.2 179.871 369.2C179.871 369.2 173.723 319.204 140.93 299.584C108.158 279.942 61.16 298.077 61.16 298.077C61.16 298.077 67.307 348.074 100.08 367.716Z" fill="url(#paint1_linear_1235_28311)"/>
<path d="M763.187 179.715C755.623 179.715 749.492 185.847 749.492 193.41C749.492 200.974 755.623 207.105 763.187 207.105C770.751 207.105 776.882 200.974 776.882 193.41C776.882 185.847 770.751 179.715 763.187 179.715Z" fill="#4F27AA"/>
<path d="M726.407 264.999C717.898 264.999 711 271.896 711 280.405C711 288.915 717.898 295.812 726.407 295.812C734.916 295.812 741.814 288.915 741.814 280.405C741.814 271.896 734.916 264.999 726.407 264.999Z" fill="#4F27AA"/>
<path d="M144.141 193.264C137.05 193.264 131.302 187.516 131.302 180.425C131.302 173.334 137.05 167.586 144.141 167.586C151.232 167.586 156.98 173.334 156.98 180.425C156.98 187.516 151.232 193.264 144.141 193.264Z" fill="#4F27AA"/>
<path d="M645.732 253.179C642.423 253.179 639.74 250.497 639.74 247.187C639.74 243.878 642.423 241.195 645.732 241.195C649.041 241.195 651.724 243.878 651.724 247.187C651.724 250.497 649.041 253.179 645.732 253.179Z" fill="#4F27AA"/>
<path d="M680.311 522.252C676.056 522.252 672.607 518.803 672.607 514.548C672.607 510.293 676.056 506.844 680.311 506.844C684.566 506.844 688.015 510.293 688.015 514.548C688.015 518.803 684.566 522.252 680.311 522.252Z" fill="#E1E4E5"/>
<path d="M141.844 445.684C135.699 445.684 130.717 440.702 130.717 434.557C130.717 428.411 135.699 423.43 141.844 423.43C147.989 423.43 152.971 428.411 152.971 434.557C152.971 440.702 147.989 445.684 141.844 445.684Z" fill="#E1E4E5"/>
<path d="M270.527 158.708C265.85 158.708 262.058 154.916 262.058 150.239C262.058 145.561 265.85 141.77 270.527 141.77C275.204 141.77 278.996 145.561 278.996 150.239C278.996 154.916 275.204 158.708 270.527 158.708Z" fill="#E1E4E5"/>
<path d="M681.696 161.227C676.496 161.227 672.28 157.011 672.28 151.811C672.28 146.61 676.496 142.395 681.696 142.395C686.896 142.395 691.112 146.61 691.112 151.811C691.112 157.011 686.896 161.227 681.696 161.227Z" fill="#E1E4E5"/>
<path d="M175.508 256.47C176.716 260.98 174.04 265.617 169.529 266.825C165.019 268.034 160.383 265.357 159.174 260.847C157.965 256.336 160.642 251.7 165.153 250.491C169.663 249.283 174.299 251.96 175.508 256.47Z" fill="#E1E4E5"/>
<path d="M382.042 90.4374C375.83 90.4374 370.794 85.4015 370.794 79.1894C370.794 72.9773 375.83 67.9414 382.042 67.9414C388.254 67.9414 393.29 72.9773 393.29 79.1894C393.29 85.4015 388.254 90.4374 382.042 90.4374Z" fill="#E1E4E5"/>
<path d="M740.744 373.629C735.966 373.629 732.092 370.53 732.092 366.707C732.092 362.884 735.966 359.785 740.744 359.785C745.522 359.785 749.396 362.884 749.396 366.707C749.396 370.53 745.522 373.629 740.744 373.629Z" fill="#E1E4E5"/>
<path d="M192.148 100.55C192.148 110.269 184.27 118.147 174.551 118.147C164.832 118.147 156.954 110.269 156.954 100.55C156.954 90.8316 164.832 82.9531 174.551 82.9531C184.27 82.9531 192.148 90.8316 192.148 100.55Z" fill="#E1E4E5"/>
<path d="M806.36 318.898H806.586C807.926 337.889 822.05 338.181 822.05 338.181C822.05 338.181 806.476 338.485 806.476 360.429C806.476 338.485 790.901 338.181 790.901 338.181C790.901 338.181 805.019 337.889 806.36 318.898ZM237.473 503.523H237.674C238.863 520.711 251.396 520.976 251.396 520.976C251.396 520.976 237.576 521.251 237.576 541.111C237.576 521.251 223.757 520.976 223.757 520.976C223.757 520.976 236.284 520.711 237.473 503.523Z" fill="#E1E4E5"/>
<path d="M607.661 76.5H286.94C256.135 76.5 231.163 101.472 231.163 132.277V411.165M482.166 188.558H314.834M482.166 257.444H314.834M482.166 326.444H314.834" stroke="#4F27AA" stroke-width="31" stroke-linecap="round" stroke-linejoin="round"/>
<path fill-rule="evenodd" clip-rule="evenodd" d="M607.664 61C639.328 61 664.997 86.669 664.997 118.333V188.055C664.997 212.018 645.571 231.444 621.608 231.444H581.331V261.577C570.358 265.342 559.933 270.547 550.331 277.057V118.333C550.331 86.669 576 61 607.664 61ZM547.427 492.918C543.058 501.411 534.206 507.219 523.998 507.219C509.454 507.219 497.665 495.43 497.665 480.886V439.053C497.665 415.09 478.239 395.665 454.276 395.665H175.389C151.426 395.665 132 415.09 132 439.053V466.942C132 506.307 163.912 538.219 203.277 538.219H523.998C545.895 538.219 564.925 525.944 574.582 507.898C564.97 503.996 555.855 498.967 547.427 492.918ZM581.331 118.333V200.444H621.608C628.45 200.444 633.997 194.897 633.997 188.055V118.333C633.997 103.79 622.207 92 607.664 92C593.12 92 581.331 103.79 581.331 118.333ZM203.277 507.219H473.056C468.972 499.334 466.665 490.38 466.665 480.886V439.053C466.665 432.211 461.118 426.665 454.276 426.665H175.389C168.547 426.665 163 432.211 163 439.053V466.942C163 489.187 181.033 507.219 203.277 507.219Z" fill="#4F27AA"/>
<path d="M629.975 478.45C579.455 478.45 538.5 437.495 538.5 386.975C538.5 336.455 579.455 295.5 629.975 295.5C680.495 295.5 721.45 336.455 721.45 386.975C721.45 437.495 680.495 478.45 629.975 478.45Z" stroke="#4F27AA" stroke-width="31" stroke-linecap="round" stroke-linejoin="round"/>
<path d="M712.193 447.953L761.141 492.371C763.819 494.931 765.756 498.166 766.749 501.736C767.741 505.305 767.752 509.076 766.78 512.651C765.808 516.226 763.889 519.472 761.226 522.048C758.563 524.623 755.254 526.432 751.649 527.284C748.044 528.136 744.276 528 740.742 526.889C737.207 525.779 734.039 523.735 731.569 520.974L689.669 471.47" stroke="#4F27AA" stroke-width="31" stroke-linecap="round" stroke-linejoin="round"/>
</g>
<defs>
<linearGradient id="paint0_linear_1235_28311" x1="716.22" y1="315.591" x2="923.098" y2="151.95" gradientUnits="userSpaceOnUse">
<stop stop-color="white"/>
<stop offset="1" stop-color="#EEEEEE"/>
</linearGradient>
<linearGradient id="paint1_linear_1235_28311" x1="226.901" y1="430.942" x2="-36.799" y2="185.93" gradientUnits="userSpaceOnUse">
<stop stop-color="white"/>
<stop offset="1" stop-color="#EEEEEE"/>
</linearGradient>
<clipPath id="clip0_1235_28311">
<rect width="900" height="600" fill="white"/>
</clipPath>
</defs>
</svg>
