<svg width="900" height="600" viewBox="0 0 900 600" fill="none" xmlns="http://www.w3.org/2000/svg">
<g clip-path="url(#clip0_1235_28332)">
<path d="M744.215 182.457C736.252 182.457 729.797 188.912 729.797 196.875C729.797 204.838 736.252 211.293 744.215 211.293C752.178 211.293 758.633 204.838 758.633 196.875C758.633 188.912 752.178 182.457 744.215 182.457Z" fill="#4F27AA"/>
<path d="M200.303 364.473C192.879 364.473 186.86 370.492 186.86 377.916C186.86 385.341 192.879 391.359 200.303 391.359C207.727 391.359 213.746 385.341 213.746 377.916C213.746 370.492 207.727 364.473 200.303 364.473Z" fill="#4F27AA"/>
<path d="M154.611 212.288C147.146 212.288 141.094 206.236 141.094 198.771C141.094 191.306 147.146 185.254 154.611 185.254C162.076 185.254 168.128 191.306 168.128 198.771C168.128 206.236 162.076 212.288 154.611 212.288Z" fill="#4F27AA"/>
<path d="M750.666 320.925C747.182 320.925 744.358 318.1 744.358 314.617C744.358 311.133 747.182 308.309 750.666 308.309C754.15 308.309 756.974 311.133 756.974 314.617C756.974 318.1 754.15 320.925 750.666 320.925Z" fill="#4F27AA"/>
<path d="M596.451 553.353C591.972 553.353 588.341 549.722 588.341 545.243C588.341 540.764 591.972 537.133 596.451 537.133C600.93 537.133 604.561 540.764 604.561 545.243C604.561 549.722 600.93 553.353 596.451 553.353Z" fill="#E1E4E5"/>
<path d="M198.573 282.856C192.103 282.856 186.858 277.611 186.858 271.141C186.858 264.671 192.103 259.426 198.573 259.426C205.043 259.426 210.288 264.671 210.288 271.141C210.288 277.611 205.043 282.856 198.573 282.856Z" fill="#E1E4E5"/>
<path d="M287.67 175.906C282.746 175.906 278.754 171.914 278.754 166.99C278.754 162.066 282.746 158.074 287.67 158.074C292.594 158.074 296.586 162.066 296.586 166.99C296.586 171.914 292.594 175.906 287.67 175.906Z" fill="#E1E4E5"/>
<path d="M204.052 534.076C198.577 534.076 194.139 529.638 194.139 524.163C194.139 518.688 198.577 514.25 204.052 514.25C209.527 514.25 213.965 518.688 213.965 524.163C213.965 529.638 209.527 534.076 204.052 534.076Z" fill="#E1E4E5"/>
<path d="M322.725 492.818C323.997 497.567 321.179 502.447 316.431 503.72C311.682 504.992 306.802 502.174 305.529 497.426C304.257 492.677 307.075 487.797 311.823 486.524C316.572 485.252 321.452 488.07 322.725 492.818Z" fill="#E1E4E5"/>
<path d="M405.072 104.036C398.532 104.036 393.23 98.7337 393.23 92.1936C393.23 85.6534 398.532 80.3516 405.072 80.3516C411.612 80.3516 416.914 85.6534 416.914 92.1936C416.914 98.7337 411.612 104.036 405.072 104.036Z" fill="#E1E4E5"/>
<path d="M603.564 62.2079C605.779 70.474 600.873 78.9705 592.607 81.1854C584.341 83.4002 575.845 78.4948 573.63 70.2287C571.415 61.9627 576.32 53.4662 584.586 51.2513C592.852 49.0364 601.349 53.9419 603.564 62.2079Z" fill="#E1E4E5"/>
<path d="M649.34 226.141H649.578C650.989 246.135 665.858 246.442 665.858 246.442C665.858 246.442 649.462 246.762 649.462 269.865C649.462 246.762 633.066 246.442 633.066 246.442C633.066 246.442 647.929 246.135 649.34 226.141Z" fill="#E1E4E5"/>
<path d="M124.071 418.054H107.646V401.629C107.646 386.076 120.243 373.48 135.796 373.48H152.221V389.905C152.221 405.443 139.61 418.054 124.071 418.054Z" stroke="#4F27AA" stroke-width="31" stroke-linecap="round" stroke-linejoin="round"/>
<path d="M107.646 514.227C77.287 514.227 52.685 489.624 52.685 459.265M52.685 459.263C52.685 435.28 63.677 418.039 85.662 418.039M107.646 514.227C138.005 514.227 162.608 489.624 162.608 459.265M162.608 459.263C162.608 435.28 151.616 418.039 129.631 418.039M129.631 418.051C118.639 418.051 112.404 421.57 107.646 421.57C102.889 421.57 96.654 418.051 85.662 418.051" stroke="#4F27AA" stroke-width="31" stroke-linecap="round" stroke-linejoin="round"/>
<path d="M808.463 418.054H792.038V401.629C792.038 386.076 804.635 373.48 820.187 373.48H836.612V389.905C836.612 405.443 824.002 418.054 808.463 418.054Z" stroke="#4F27AA" stroke-width="31" stroke-linecap="round" stroke-linejoin="round"/>
<path d="M792.038 514.23C761.679 514.23 737.076 489.627 737.076 459.268M737.076 459.266C737.076 435.283 748.069 418.042 770.053 418.042M792.038 514.23C822.397 514.23 847 489.627 847 459.268M847 459.266C847 435.283 836.007 418.042 814.023 418.042M814.023 418.054C803.03 418.054 796.795 421.573 792.038 421.573C787.281 421.573 781.046 418.054 770.053 418.054M313.089 462.696H289.039C262.464 462.696 240.94 441.172 240.94 414.597V355.603C240.94 327.874 263.426 305.387 291.156 305.387H313.089" stroke="#4F27AA" stroke-width="31" stroke-linecap="round" stroke-linejoin="round"/>
<path fill-rule="evenodd" clip-rule="evenodd" d="M505.486 151.637H409.288C356.162 151.637 313.089 194.71 313.089 247.836V464.283C313.089 490.858 334.613 512.382 361.188 512.382H553.586C580.16 512.382 601.685 490.858 601.685 464.283V247.836C601.685 194.71 558.612 151.637 505.486 151.637Z" fill="#4F27AA" stroke="#4F27AA" stroke-width="31" stroke-linecap="round" stroke-linejoin="round"/>
<path d="M601.685 462.694H625.734C652.309 462.694 673.834 441.17 673.834 414.595V354.47C673.834 327.896 652.309 306.371 625.734 306.371H601.685" stroke="#4F27AA" stroke-width="31" stroke-linecap="round" stroke-linejoin="round"/>
<path d="M505.486 437.683H409.288C396.012 437.683 385.238 426.908 385.238 413.633V365.534C385.238 352.258 396.012 341.484 409.288 341.484H505.486C518.762 341.484 529.536 352.258 529.536 365.534V413.633C529.536 426.932 518.762 437.683 505.486 437.683V437.683Z" stroke="white" stroke-width="31" stroke-linecap="round" stroke-linejoin="round"/>
<path d="M529.536 151.634V127.584C529.536 101.009 508.012 79.4844 481.437 79.4844H433.337C406.762 79.4844 385.238 101.009 385.238 127.584V151.634" stroke="#4F27AA" stroke-width="31" stroke-linecap="round" stroke-linejoin="round"/>
<path d="M481.436 247.836H433.337" stroke="white" stroke-width="31" stroke-linecap="round" stroke-linejoin="round"/>
</g>
<defs>
<clipPath id="clip0_1235_28332">
<rect width="900" height="600" fill="white"/>
</clipPath>
</defs>
</svg>
