<svg width="900" height="600" viewBox="0 0 900 600" fill="none" xmlns="http://www.w3.org/2000/svg">
<g clip-path="url(#clip0_1235_28355)">
<path d="M452 551.5C588.138 551.5 698.5 441.138 698.5 305C698.5 168.862 588.138 58.5 452 58.5C315.862 58.5 205.5 168.862 205.5 305C205.5 441.138 315.862 551.5 452 551.5Z" stroke="url(#paint0_linear_1235_28355)" stroke-width="3"/>
<path d="M732.863 177.999C725.207 177.999 719.001 184.205 719.001 191.861C719.001 199.516 725.207 205.723 732.863 205.723C740.519 205.723 746.725 199.516 746.725 191.861C746.725 184.205 740.519 177.999 732.863 177.999Z" fill="#4F27AA"/>
<path d="M209.926 353.002C202.788 353.002 197.001 358.788 197.001 365.927C197.001 373.065 202.788 378.852 209.926 378.852C217.064 378.852 222.851 373.065 222.851 365.927C222.851 358.788 217.064 353.002 209.926 353.002Z" fill="#4F27AA"/>
<path d="M165.996 206.683C158.819 206.683 153 200.865 153 193.687C153 186.51 158.819 180.691 165.996 180.691C173.173 180.691 178.992 186.51 178.992 193.687C178.992 200.865 173.173 206.683 165.996 206.683Z" fill="#4F27AA"/>
<path d="M739.066 311.13C735.716 311.13 733.001 308.415 733.001 305.065C733.001 301.715 735.716 299 739.066 299C742.416 299 745.131 301.715 745.131 305.065C745.131 308.415 742.416 311.13 739.066 311.13Z" fill="#4F27AA"/>
<path d="M630.797 486.596C626.49 486.596 622.999 483.105 622.999 478.798C622.999 474.491 626.49 471 630.797 471C635.104 471 638.595 474.491 638.595 478.798C638.595 483.105 635.104 486.596 630.797 486.596Z" fill="#E1E4E5"/>
<path d="M189.821 449.725C183.601 449.725 178.558 444.683 178.558 438.462C178.558 432.242 183.601 427.199 189.821 427.199C196.041 427.199 201.084 432.242 201.084 438.462C201.084 444.683 196.041 449.725 189.821 449.725Z" fill="#E1E4E5"/>
<path d="M277.572 138.144C272.838 138.144 269 134.306 269 129.572C269 124.838 272.838 121 277.572 121C282.306 121 286.144 124.838 286.144 129.572C286.144 134.306 282.306 138.144 277.572 138.144Z" fill="#E1E4E5"/>
<path d="M295.531 381.06C290.268 381.06 286.001 376.793 286.001 371.53C286.001 366.267 290.268 362 295.531 362C300.794 362 305.061 366.267 305.061 371.53C305.061 376.793 300.794 381.06 295.531 381.06Z" fill="#E1E4E5"/>
<path d="M327.628 476.395C328.851 480.96 326.142 485.653 321.576 486.876C317.011 488.1 312.318 485.39 311.095 480.825C309.871 476.26 312.581 471.567 317.146 470.344C321.712 469.12 326.404 471.83 327.628 476.395Z" fill="#E1E4E5"/>
<path d="M565.385 137.77C559.097 137.77 554 132.673 554 126.385C554 120.097 559.097 115 565.385 115C571.673 115 576.77 120.097 576.77 126.385C576.77 132.673 571.673 137.77 565.385 137.77Z" fill="#E1E4E5"/>
<path d="M597.634 62.3891C599.763 70.3361 595.047 78.5047 587.1 80.6341C579.153 82.7635 570.984 78.0474 568.855 70.1003C566.726 62.1533 571.442 53.9847 579.389 51.8553C587.336 49.7259 595.504 54.442 597.634 62.3891Z" fill="#E1E4E5"/>
<path d="M692.874 416.43H693.103C694.46 435.652 708.756 435.948 708.756 435.948C708.756 435.948 692.992 436.256 692.992 458.467C692.992 436.256 677.228 435.948 677.228 435.948C677.228 435.948 691.518 435.652 692.874 416.43Z" fill="#E1E4E5"/>
<path d="M450 63V151M450 151V534M406 295.5H254M646 340H494" stroke="#4F27AA" stroke-width="31" stroke-linecap="round" stroke-linejoin="round"/>
<path d="M402.106 285.15C406.315 292.91 408.054 301.926 406.355 310.57C399.359 346.146 367.822 373 330 373C292.178 373 260.641 346.146 253.645 310.57C251.946 301.926 253.685 292.91 257.894 285.15L329.98 152L402.106 285.15ZM642.107 329.753C646.315 337.547 648.054 346.605 646.355 355.287C639.341 391.025 607.827 418 569.99 418C532.154 418 500.64 391.025 493.645 355.287C491.946 346.605 493.685 337.547 497.893 329.753L569.99 196L642.107 329.753Z" stroke="#4F27AA" stroke-width="31" stroke-linecap="round" stroke-linejoin="round"/>
<path d="M330 151.66C407.6 137.328 487.769 150.411 556.787 188.669L570 196M623 537.5H277" stroke="#4F27AA" stroke-width="31" stroke-linecap="round" stroke-linejoin="round"/>
</g>
<defs>
<linearGradient id="paint0_linear_1235_28355" x1="462.576" y1="831.086" x2="447.282" y2="-482.564" gradientUnits="userSpaceOnUse">
<stop stop-color="white"/>
<stop offset="1" stop-color="#EEEEEE"/>
</linearGradient>
<clipPath id="clip0_1235_28355">
<rect width="900" height="600" fill="white"/>
</clipPath>
</defs>
</svg>
