<svg width="900" height="600" viewBox="0 0 900 600" fill="none" xmlns="http://www.w3.org/2000/svg">
<g clip-path="url(#clip0_1235_28373)">
<path d="M810.707 298.997C785.721 311.392 752.557 295.455 752.557 295.455C752.557 295.455 759.928 259.429 784.927 247.051C809.914 234.656 843.064 250.576 843.064 250.576C843.064 250.576 835.694 286.602 810.707 298.997Z" fill="url(#paint0_linear_1235_28373)"/>
<path d="M102.287 367.464C134.935 387.031 181.774 368.942 181.774 368.942C181.774 368.942 175.65 319.137 142.982 299.592C110.334 280.024 63.515 298.09 63.515 298.09C63.515 298.09 69.639 347.896 102.287 367.464Z" fill="url(#paint1_linear_1235_28373)"/>
<path d="M762.87 180.179C755.335 180.179 749.227 186.287 749.227 193.822C749.227 201.357 755.335 207.465 762.87 207.465C770.405 207.465 776.513 201.357 776.513 193.822C776.513 186.287 770.405 180.179 762.87 180.179Z" fill="#4F27AA"/>
<path d="M576.704 137.4C568.227 137.4 561.355 144.272 561.355 152.749C561.355 161.226 568.227 168.098 576.704 168.098C585.181 168.098 592.053 161.226 592.053 152.749C592.053 144.272 585.181 137.4 576.704 137.4Z" fill="#4F27AA"/>
<path d="M146.18 193.678C139.116 193.678 133.39 187.951 133.39 180.888C133.39 173.824 139.116 168.098 146.18 168.098C153.244 168.098 158.97 173.824 158.97 180.888C158.97 187.951 153.244 193.678 146.18 193.678Z" fill="#4F27AA"/>
<path d="M645.862 253.364C642.565 253.364 639.893 250.691 639.893 247.395C639.893 244.098 642.565 241.426 645.862 241.426C649.159 241.426 651.831 244.098 651.831 247.395C651.831 250.691 649.159 253.364 645.862 253.364Z" fill="#4F27AA"/>
<path d="M680.31 521.41C676.072 521.41 672.636 517.975 672.636 513.736C672.636 509.498 676.072 506.062 680.31 506.062C684.548 506.062 687.984 509.498 687.984 513.736C687.984 517.975 684.548 521.41 680.31 521.41Z" fill="#E1E4E5"/>
<path d="M143.893 445.135C137.771 445.135 132.808 440.172 132.808 434.05C132.808 427.928 137.771 422.965 143.893 422.965C150.015 422.965 154.978 427.928 154.978 434.05C154.978 440.172 150.015 445.135 143.893 445.135Z" fill="#E1E4E5"/>
<path d="M315.471 178.249C310.811 178.249 307.034 174.472 307.034 169.812C307.034 165.152 310.811 161.375 315.471 161.375C320.131 161.375 323.908 165.152 323.908 169.812C323.908 174.472 320.131 178.249 315.471 178.249Z" fill="#E1E4E5"/>
<path d="M722.911 139.483C717.731 139.483 713.531 135.283 713.531 130.103C713.531 124.922 717.731 120.723 722.911 120.723C728.091 120.723 732.291 124.922 732.291 130.103C732.291 135.283 728.091 139.483 722.911 139.483Z" fill="#E1E4E5"/>
<path d="M201.453 117.393C202.657 121.887 199.99 126.505 195.497 127.709C191.003 128.913 186.385 126.247 185.181 121.753C183.977 117.26 186.643 112.641 191.137 111.437C195.63 110.233 200.249 112.9 201.453 117.393Z" fill="#E1E4E5"/>
<path d="M413.089 103.527C406.901 103.527 401.884 98.5105 401.884 92.3222C401.884 86.1338 406.901 81.1172 413.089 81.1172C419.277 81.1172 424.294 86.1338 424.294 92.3222C424.294 98.5105 419.277 103.527 413.089 103.527Z" fill="#E1E4E5"/>
<path d="M740.513 373.354C735.753 373.354 731.894 370.267 731.894 366.458C731.894 362.65 735.753 359.562 740.513 359.562C745.273 359.562 749.132 362.65 749.132 366.458C749.132 370.267 745.273 373.354 740.513 373.354Z" fill="#E1E4E5"/>
<path d="M681.057 64.6944C683.563 74.0461 678.013 83.6584 668.662 86.1642C659.31 88.67 649.698 83.1203 647.192 73.7686C644.686 64.417 650.236 54.8046 659.588 52.2988C668.939 49.7931 678.552 55.3428 681.057 64.6944Z" fill="#E1E4E5"/>
<path d="M728.931 441.754H729.156C730.491 460.673 744.561 460.964 744.561 460.964C744.561 460.964 729.046 461.267 729.046 483.127C729.046 461.267 713.531 460.964 713.531 460.964C713.531 460.964 727.595 460.673 728.931 441.754ZM239.158 502.757H239.358C240.542 519.88 253.027 520.144 253.027 520.144C253.027 520.144 239.26 520.418 239.26 540.203C239.26 520.418 225.493 520.144 225.493 520.144C225.493 520.144 237.973 519.88 239.158 502.757Z" fill="#E1E4E5"/>
<path d="M450.87 558.488C593.629 558.488 709.358 442.759 709.358 300C709.358 157.241 593.629 41.5117 450.87 41.5117C308.111 41.5117 192.382 157.241 192.382 300C192.382 442.759 308.111 558.488 450.87 558.488Z" stroke="#4F27AA" stroke-width="31" stroke-linecap="round" stroke-linejoin="round"/>
<path d="M278.544 493.003L291.673 282.952C293.092 260.247 311.921 242.558 334.67 242.558H567.068C589.817 242.558 608.646 260.246 610.065 282.951L623.195 493.003M525.542 242.549V231.861C525.542 190.619 492.109 157.188 450.867 157.188C409.626 157.188 376.193 190.619 376.193 231.861V242.549" stroke="#4F27AA" stroke-width="31" stroke-linecap="round" stroke-linejoin="round"/>
<path fill-rule="evenodd" clip-rule="evenodd" d="M401.669 430.352C401.669 430.352 420.227 441.817 451.178 441.817C482.128 441.817 500.687 430.352 500.687 430.352" fill="#4F27AA"/>
<path d="M401.669 430.352C401.669 430.352 420.227 441.817 451.178 441.817C482.128 441.817 500.687 430.352 500.687 430.352" stroke="#4F27AA" stroke-width="22.048" stroke-linecap="round" stroke-linejoin="round"/>
<path d="M413.472 360.183C413.472 373.567 402.366 384.436 388.643 384.436C374.92 384.436 363.815 373.567 363.815 360.183C363.815 346.799 374.92 335.93 388.643 335.93C402.366 335.93 413.472 346.799 413.472 360.183ZM537.39 360.183C537.39 373.567 526.284 384.436 512.561 384.436C498.838 384.436 487.732 373.567 487.732 360.183C487.732 346.799 498.838 335.93 512.561 335.93C526.284 335.93 537.39 346.799 537.39 360.183Z" fill="#4F27AA" stroke="#4F27AA"/>
</g>
<defs>
<linearGradient id="paint0_linear_1235_28373" x1="714.756" y1="337.66" x2="920.847" y2="174.641" gradientUnits="userSpaceOnUse">
<stop stop-color="white"/>
<stop offset="1" stop-color="#EEEEEE"/>
</linearGradient>
<linearGradient id="paint1_linear_1235_28373" x1="228.626" y1="430.449" x2="-34.071" y2="186.37" gradientUnits="userSpaceOnUse">
<stop stop-color="white"/>
<stop offset="1" stop-color="#EEEEEE"/>
</linearGradient>
<clipPath id="clip0_1235_28373">
<rect width="900" height="600" fill="white"/>
</clipPath>
</defs>
</svg>
