<svg width="900" height="600" viewBox="0 0 900 600" fill="none" xmlns="http://www.w3.org/2000/svg">
<g clip-path="url(#clip0_1235_28412)">
<path d="M789.29 307.948C778.171 313.464 763.413 306.372 763.413 306.372C763.413 306.372 766.693 290.34 777.818 284.832C788.937 279.317 803.689 286.401 803.689 286.401C803.689 286.401 800.409 302.433 789.29 307.948Z" fill="url(#paint0_linear_1235_28412)"/>
<path d="M119.421 316.363C135.658 326.094 158.952 317.099 158.952 317.099C158.952 317.099 155.906 292.33 139.66 282.61C123.423 272.878 100.139 281.863 100.139 281.863C100.139 281.863 103.185 306.632 119.421 316.363Z" fill="url(#paint1_linear_1235_28412)"/>
<path d="M726.737 483.543C718.894 483.543 712.536 489.901 712.536 497.744C712.536 505.587 718.894 511.945 726.737 511.945C734.58 511.945 740.938 505.587 740.938 497.744C740.938 489.901 734.58 483.543 726.737 483.543Z" fill="#4F27AA"/>
<path d="M178.479 470.733C172.253 470.733 167.206 465.686 167.206 459.46C167.206 453.235 172.253 448.188 178.479 448.188C184.705 448.188 189.752 453.235 189.752 459.46C189.752 465.686 184.705 470.733 178.479 470.733Z" fill="#4F27AA"/>
<path d="M249.283 169.125C245.115 169.125 241.736 165.746 241.736 161.578C241.736 157.41 245.115 154.031 249.283 154.031C253.451 154.031 256.83 157.41 256.83 161.578C256.83 165.746 253.451 169.125 249.283 169.125Z" fill="#4F27AA"/>
<path d="M110.317 473.057C102.576 473.057 96.3 466.782 96.3 459.04C96.3 451.299 102.576 445.023 110.317 445.023C118.058 445.023 124.334 451.299 124.334 459.04C124.334 466.782 118.058 473.057 110.317 473.057Z" fill="#E1E4E5"/>
<path d="M749.293 443.039C743.401 443.039 738.625 438.263 738.625 432.371C738.625 426.479 743.401 421.703 749.293 421.703C755.185 421.703 759.961 426.479 759.961 432.371C759.961 438.263 755.185 443.039 749.293 443.039Z" fill="#E1E4E5"/>
<path d="M738.506 119.986C731.1 119.986 725.097 113.983 725.097 106.577C725.097 99.1714 731.1 93.168 738.506 93.168C745.912 93.168 751.915 99.1714 751.915 106.577C751.915 113.983 745.912 119.986 738.506 119.986Z" fill="#E1E4E5"/>
<path d="M170.754 209.938C172.276 215.62 168.904 221.46 163.223 222.982C157.542 224.504 151.702 221.133 150.18 215.451C148.657 209.77 152.029 203.93 157.71 202.408C163.392 200.885 169.231 204.257 170.754 209.938Z" fill="#E1E4E5"/>
<path d="M281.462 94.0841C273.637 94.0841 267.293 87.7404 267.293 79.9151C267.293 72.0898 273.637 65.7461 281.462 65.7461C289.287 65.7461 295.631 72.0898 295.631 79.9151C295.631 87.7404 289.287 94.0841 281.462 94.0841Z" fill="#E1E4E5"/>
<path d="M735.996 340.032C729.977 340.032 725.097 336.128 725.097 331.313C725.097 326.497 729.977 322.594 735.996 322.594C742.015 322.594 746.895 326.497 746.895 331.313C746.895 336.128 742.015 340.032 735.996 340.032Z" fill="#E1E4E5"/>
<path d="M773.415 225.547C773.415 235.154 765.627 242.942 756.02 242.942C746.413 242.942 738.625 235.154 738.625 225.547C738.625 215.94 746.413 208.152 756.02 208.152C765.627 208.152 773.415 215.94 773.415 225.547Z" fill="#E1E4E5"/>
<path d="M179.045 93.3164H179.201C180.12 106.342 189.808 106.543 189.808 106.543C189.808 106.543 179.125 106.752 179.125 121.803C179.125 106.752 168.442 106.543 168.442 106.543C168.442 106.543 178.126 106.342 179.045 93.3164ZM188.514 511.248H188.663C189.546 524.236 198.847 524.436 198.847 524.436C198.847 524.436 188.59 524.644 188.59 539.651C188.59 524.644 178.334 524.436 178.334 524.436C178.334 524.436 187.631 524.236 188.514 511.248Z" fill="#E1E4E5"/>
<path fill-rule="evenodd" clip-rule="evenodd" d="M264.327 538.673H636.346C665.709 538.673 689.492 514.891 689.492 485.528V210.509H211.182V485.528C211.182 514.891 234.964 538.673 264.327 538.673ZM211.182 175.946V113.509C211.182 84.1463 234.964 60.3633 264.327 60.3633H636.346C665.709 60.3633 689.492 84.1463 689.492 113.509V175.946H211.182Z" fill="#4F27AA"/>
<path d="M569.914 432.381V393.053M490.196 432.381V306.16M410.478 432.386V377.38M330.759 432.375V320.769M398.132 126.661C398.052 126.661 397.999 126.714 397.999 126.794C397.999 126.873 398.052 126.927 398.132 126.927C398.211 126.927 398.264 126.873 398.264 126.794C398.264 126.714 398.211 126.661 398.132 126.661ZM330.663 126.661C330.583 126.661 330.53 126.714 330.53 126.794C330.53 126.873 330.583 126.927 330.663 126.927C330.743 126.927 330.796 126.873 330.796 126.794C330.796 126.714 330.743 126.661 330.663 126.661ZM262.956 126.531C262.876 126.531 262.823 126.584 262.823 126.664C262.823 126.744 262.876 126.797 262.956 126.797C263.035 126.797 263.088 126.744 263.088 126.664C263.088 126.584 263.035 126.531 262.956 126.531Z" stroke="white" stroke-width="34.563" stroke-linecap="round" stroke-linejoin="round"/>
</g>
<defs>
<linearGradient id="paint0_linear_1235_28412" x1="746.592" y1="325.153" x2="838.302" y2="252.61" gradientUnits="userSpaceOnUse">
<stop stop-color="white"/>
<stop offset="1" stop-color="#EEEEEE"/>
</linearGradient>
<linearGradient id="paint1_linear_1235_28412" x1="182.252" y1="347.687" x2="51.6079" y2="226.302" gradientUnits="userSpaceOnUse">
<stop stop-color="white"/>
<stop offset="1" stop-color="#EEEEEE"/>
</linearGradient>
<clipPath id="clip0_1235_28412">
<rect width="900" height="600" fill="white"/>
</clipPath>
</defs>
</svg>
