<svg width="900" height="600" viewBox="0 0 900 600" fill="none" xmlns="http://www.w3.org/2000/svg">
<g clip-path="url(#clip0_1235_28429)">
<path d="M772.663 385.146H710.498C695.266 385.146 682.503 374.779 682.503 361.647C682.503 355.081 685.797 349.207 690.737 345.06C695.677 340.913 702.676 338.148 710.498 338.148H719.555C727.377 338.148 734.376 335.384 739.316 331.237C744.257 327.09 747.55 321.215 747.55 314.649C747.55 301.863 735.199 291.15 719.555 291.15H529.682C524.721 291.15 521.533 285.053 521.533 280.092C521.533 267.651 509.594 257.63 494.773 257.63H424.115C422.328 257.63 420.614 256.92 419.35 255.656C418.086 254.393 417.376 252.678 417.376 250.891C417.376 249.104 418.086 247.39 419.35 246.126C420.614 244.862 422.328 244.152 424.115 244.152H694.854C706.793 244.152 717.909 240.005 725.731 233.439C733.553 226.873 738.493 217.543 738.493 207.521C738.493 187.132 718.732 170.89 694.854 170.89H555.021C533.08 170.89 511.362 153.957 489.422 153.957H411.351C399.899 153.957 390.616 144.674 390.616 133.223C390.616 121.772 399.899 112.488 411.351 112.488H586.168C594.402 112.488 602.224 109.724 607.576 105.231C612.928 100.739 616.221 94.5192 616.221 87.2612C616.221 73.4392 602.636 62.0352 586.168 62.0352H183.125C174.892 62.0352 167.07 64.7992 161.718 69.2922C156.366 73.7842 153.072 80.0052 153.072 87.2622C153.072 101.084 166.658 112.488 183.125 112.488H193.418C207.003 112.488 218.531 121.819 218.531 133.568C218.531 139.443 215.649 144.627 211.12 148.428C206.592 152.229 200.416 154.648 193.418 154.648H143.603C134.958 154.648 126.724 157.759 120.96 162.597C115.197 167.435 111.492 174.001 111.492 181.603C111.492 196.463 125.901 208.212 143.192 208.212H193.829C210.297 208.212 223.883 219.616 223.883 233.439C223.883 240.351 220.589 246.571 215.237 251.064C209.885 255.556 202.475 258.321 194.241 258.321H148.955C141.545 258.321 134.958 260.74 130.018 264.887C125.077 269.034 122.196 274.563 122.196 280.783C122.196 293.224 134.134 303.245 148.955 303.245H185.596C206.592 303.245 223.471 317.414 223.471 335.038C223.471 343.678 219.354 351.971 212.355 357.501C205.357 363.375 195.888 366.831 185.596 366.831H134.546C124.254 366.831 114.785 370.287 108.198 376.162C101.199 381.691 97.083 389.639 97.083 398.278C97.083 415.557 113.962 429.725 134.546 429.725H292.177C309.586 429.725 326.687 439.402 344.096 439.402H372.804C383.778 439.402 392.675 448.298 392.675 459.272C392.675 470.246 383.778 479.143 372.804 479.143H302.927C293.87 479.143 286.047 482.253 280.284 487.091C274.52 491.929 270.815 498.84 270.815 506.097C270.815 520.957 285.224 533.052 302.927 533.052H731.083C740.14 533.052 747.962 529.942 753.725 525.104C759.489 520.266 763.194 513.354 763.194 506.097C763.194 491.238 748.785 479.143 731.083 479.143H718.32C705.146 479.143 694.854 470.158 694.854 459.445C694.854 453.916 697.324 449.078 701.853 445.622C705.97 442.166 712.145 439.747 718.732 439.747H772.663C781.72 439.747 789.542 436.637 795.306 431.799C801.07 426.961 804.775 420.049 804.775 412.792C804.775 397.241 790.366 385.146 772.663 385.146Z" fill="url(#paint0_linear_1235_28429)"/>
<path d="M821.413 348.04C810.929 353.241 797.014 346.554 797.014 346.554C797.014 346.554 800.106 331.437 810.596 326.244C821.08 321.043 834.99 327.723 834.99 327.723C834.99 327.723 831.897 342.839 821.413 348.04Z" fill="url(#paint1_linear_1235_28429)"/>
<path d="M87.5931 342.662C102.902 351.837 124.866 343.355 124.866 343.355C124.866 343.355 121.994 320 106.676 310.835C91.3661 301.66 69.4121 310.131 69.4121 310.131C69.4121 310.131 72.2841 333.486 87.5931 342.662Z" fill="url(#paint2_linear_1235_28429)"/>
<path d="M784.479 186.631C780.547 186.631 777.359 189.819 777.359 193.751C777.359 197.683 780.547 200.871 784.479 200.871C788.411 200.871 791.599 197.683 791.599 193.751C791.599 189.819 788.411 186.631 784.479 186.631Z" fill="#4F27AA"/>
<path d="M696.768 470.863C689.373 470.863 683.377 476.858 683.377 484.254C683.377 491.649 689.373 497.645 696.768 497.645C704.164 497.645 710.159 491.649 710.159 484.254C710.159 476.858 704.164 470.863 696.768 470.863Z" fill="#4F27AA"/>
<path d="M195.213 481.965C189.343 481.965 184.584 477.206 184.584 471.336C184.584 465.466 189.343 460.707 195.213 460.707C201.083 460.707 205.842 465.466 205.842 471.336C205.842 477.206 201.083 481.965 195.213 481.965Z" fill="#4F27AA"/>
<path d="M261.975 197.578C258.044 197.578 254.858 194.391 254.858 190.461C254.858 186.53 258.044 183.344 261.975 183.344C265.906 183.344 269.092 186.53 269.092 190.461C269.092 194.391 265.906 197.578 261.975 197.578Z" fill="#4F27AA"/>
<path d="M79.0081 490.409C71.7091 490.409 65.7921 484.492 65.7921 477.193C65.7921 469.894 71.7091 463.977 79.0081 463.977C86.3071 463.977 92.2241 469.894 92.2241 477.193C92.2241 484.492 86.3071 490.409 79.0081 490.409Z" fill="#E1E4E5"/>
<path d="M795.083 492.638C789.528 492.638 785.024 488.134 785.024 482.579C785.024 477.023 789.528 472.52 795.083 472.52C800.639 472.52 805.142 477.023 805.142 482.579C805.142 488.134 800.639 492.638 795.083 492.638Z" fill="#E1E4E5"/>
<path d="M670.43 138.897C663.447 138.897 657.786 133.236 657.786 126.253C657.786 119.27 663.447 113.609 670.43 113.609C677.413 113.609 683.074 119.27 683.074 126.253C683.074 133.236 677.413 138.897 670.43 138.897Z" fill="#E1E4E5"/>
<path d="M187.929 236.064C189.365 241.421 186.186 246.928 180.829 248.363C175.472 249.799 169.965 246.619 168.53 241.262C167.094 235.905 170.273 230.399 175.63 228.963C180.988 227.528 186.494 230.707 187.929 236.064Z" fill="#E1E4E5"/>
<path d="M269.357 75.72C261.979 75.72 255.997 69.7385 255.997 62.36C255.997 54.9815 261.979 49 269.357 49C276.736 49 282.717 54.9815 282.717 62.36C282.717 69.7385 276.736 75.72 269.357 75.72Z" fill="#E1E4E5"/>
<path d="M735.831 369.887C730.155 369.887 725.554 366.207 725.554 361.666C725.554 357.126 730.155 353.445 735.831 353.445C741.507 353.445 746.108 357.126 746.108 361.666C746.108 366.207 741.507 369.887 735.831 369.887Z" fill="#E1E4E5"/>
<path d="M565.961 109.363C565.961 118.422 558.618 125.765 549.559 125.765C540.501 125.765 533.157 118.422 533.157 109.363C533.157 100.304 540.501 92.9609 549.559 92.9609C558.618 92.9609 565.961 100.304 565.961 109.363Z" fill="#E1E4E5"/>
<path d="M195.748 126.098H195.894C196.761 138.38 205.896 138.569 205.896 138.569C205.896 138.569 195.823 138.766 195.823 152.959C195.823 138.766 185.75 138.569 185.75 138.569C185.75 138.569 194.881 138.38 195.748 126.098ZM204.676 520.167H204.816C205.648 532.413 214.419 532.602 214.419 532.602C214.419 532.602 204.748 532.798 204.748 546.948C204.748 532.798 195.077 532.602 195.077 532.602C195.077 532.602 203.843 532.413 204.676 520.167Z" fill="#E1E4E5"/>
<path fill-rule="evenodd" clip-rule="evenodd" d="M450.998 551C587.412 551 697.998 440.414 697.998 304C697.998 167.586 587.412 57 450.998 57C314.583 57 203.998 167.586 203.998 304C203.998 440.414 314.583 551 450.998 551Z" fill="#4F27AA"/>
<path d="M508.897 294.691H393.077C362.228 294.691 337.226 319.694 337.226 350.543C337.248 381.369 362.251 406.371 393.1 406.371H508.92C539.746 406.371 564.748 381.369 564.748 350.52C564.771 319.694 539.746 294.691 508.897 294.691V294.691Z" stroke="white" stroke-width="31" stroke-linecap="round" stroke-linejoin="round"/>
<path d="M564.567 346.019L556.627 243.621C554.785 219.916 535.015 201.625 511.241 201.625H390.734C366.961 201.625 347.214 219.916 345.371 243.599L337.431 345.997M394.283 349.728C394.738 350.183 394.738 350.888 394.283 351.343C394.178 351.451 394.052 351.537 393.914 351.595C393.775 351.654 393.626 351.684 393.475 351.684C393.325 351.684 393.176 351.654 393.037 351.595C392.898 351.537 392.773 351.451 392.668 351.343C392.56 351.238 392.474 351.113 392.415 350.974C392.357 350.835 392.327 350.686 392.327 350.535C392.327 350.385 392.357 350.236 392.415 350.097C392.474 349.958 392.56 349.833 392.668 349.728C393.1 349.296 393.828 349.296 394.283 349.728Z" stroke="white" stroke-width="31" stroke-linecap="round" stroke-linejoin="round"/>
</g>
<defs>
<linearGradient id="paint0_linear_1235_28429" x1="466.018" y1="797.132" x2="456.351" y2="-450.446" gradientUnits="userSpaceOnUse">
<stop stop-color="white"/>
<stop offset="1" stop-color="#EEEEEE"/>
</linearGradient>
<linearGradient id="paint1_linear_1235_28429" x1="781.153" y1="364.262" x2="867.626" y2="295.861" gradientUnits="userSpaceOnUse">
<stop stop-color="white"/>
<stop offset="1" stop-color="#EEEEEE"/>
</linearGradient>
<linearGradient id="paint2_linear_1235_28429" x1="146.836" y1="372.197" x2="23.6521" y2="257.743" gradientUnits="userSpaceOnUse">
<stop stop-color="white"/>
<stop offset="1" stop-color="#EEEEEE"/>
</linearGradient>
<clipPath id="clip0_1235_28429">
<rect width="900" height="600" fill="white"/>
</clipPath>
</defs>
</svg>
