<svg width="900" height="600" viewBox="0 0 900 600" fill="none" xmlns="http://www.w3.org/2000/svg">
<g clip-path="url(#clip0_1235_18818)">
<path d="M276.019 153.076C324.009 92.8757 425.986 67.6907 494.16 157.933C551.986 234.476 577.179 238.855 621.131 253.417C650.153 263.038 697.643 276.071 669.97 350.523C633.751 447.967 454.574 474.287 356.605 437.915C262.919 403.136 188.926 262.316 276.019 153.076Z" fill="url(#paint0_linear_1235_18818)"/>
<path d="M496.04 116.141C518.533 155.614 561.133 206.452 632.057 227.076C702.982 247.688 715.613 205.473 694.234 156.399C672.856 107.325 620.394 64.1208 555.301 54.3038C490.208 44.4868 477.577 83.7438 496.04 116.141Z" fill="url(#paint1_linear_1235_18818)"/>
<path fill-rule="evenodd" clip-rule="evenodd" d="M301.739 391.145V185.719C301.739 164.439 318.939 147.203 340.175 147.203H570.793C592.029 147.203 609.229 164.439 609.229 185.719V391.145C609.229 405.126 601.657 418.029 589.453 424.808L474.145 488.995C468.437 492.178 462.01 493.848 455.475 493.848C448.939 493.848 442.512 492.178 436.804 488.995L321.495 424.808C315.505 421.462 310.516 416.579 307.043 410.661C303.57 404.744 301.739 398.007 301.739 391.145Z" fill="#4F27AA"/>
<path d="M391.567 317.071H519.4M391.567 257.186H519.4M391.567 375.229H519.4" stroke="white" stroke-width="20.586" stroke-linecap="round" stroke-linejoin="round"/>
<path d="M604.459 459.591L575.783 488.267C574.739 489.312 574.739 491.005 575.783 492.049C576.827 493.093 578.52 493.093 579.564 492.049L608.241 463.373C609.285 462.329 609.285 460.636 608.241 459.591C607.196 458.547 605.503 458.547 604.459 459.591Z" fill="#E1E4E5"/>
<path d="M192.531 366.016L221.207 337.34C222.252 336.296 222.252 334.603 221.207 333.558C220.163 332.514 218.47 332.514 217.426 333.558L188.75 362.234C187.705 363.279 187.705 364.972 188.75 366.016C189.794 367.06 191.487 367.06 192.531 366.016Z" fill="#E1E4E5"/>
<path d="M259.006 140.768L287.682 112.092C288.727 111.048 288.727 109.355 287.682 108.31C286.638 107.266 284.945 107.266 283.901 108.31L255.225 136.986C254.181 138.031 254.181 139.724 255.225 140.768C256.269 141.812 257.962 141.812 259.006 140.768Z" fill="#E1E4E5"/>
<path d="M601.651 480.123L593.381 488.392C592.337 489.437 592.337 491.13 593.381 492.174C594.425 493.218 596.118 493.218 597.163 492.174L605.432 483.904C606.477 482.86 606.477 481.167 605.432 480.123C604.388 479.079 602.695 479.079 601.651 480.123Z" fill="#E1E4E5"/>
<path d="M195.34 345.483L203.609 337.213C204.653 336.169 204.653 334.476 203.609 333.431C202.565 332.387 200.872 332.387 199.828 333.431L191.558 341.701C190.514 342.745 190.514 344.438 191.558 345.483C192.602 346.527 194.295 346.527 195.34 345.483Z" fill="#E1E4E5"/>
<path d="M261.814 120.235L270.083 111.965C271.128 110.921 271.128 109.228 270.083 108.183C269.039 107.139 267.346 107.139 266.302 108.183L258.032 116.453C256.988 117.497 256.988 119.19 258.032 120.235C259.076 121.279 260.769 121.279 261.814 120.235Z" fill="#E1E4E5"/>
<path d="M721.125 248.399L716.997 244.271C712.647 239.921 705.594 239.921 701.244 244.271L697.116 248.399C692.766 252.749 692.766 259.802 697.116 264.152L701.244 268.28C705.594 272.63 712.647 272.63 716.997 268.28L721.125 264.152C725.475 259.802 725.475 252.749 721.125 248.399Z" fill="#4F27AA"/>
<path d="M456.06 538.763C463.693 538.763 469.88 532.834 469.88 525.519C469.88 518.205 463.693 512.275 456.06 512.275C448.428 512.275 442.24 518.205 442.24 525.519C442.24 532.834 448.428 538.763 456.06 538.763Z" fill="#E1E4E5"/>
<path fill-rule="evenodd" clip-rule="evenodd" d="M574.679 131.08H542.433C533.533 131.08 526.31 138.389 526.31 147.395V228.969L558.556 212.654L590.802 228.969V147.395C590.802 138.389 583.579 131.08 574.679 131.08Z" fill="white"/>
<path d="M206.886 293.981C197.133 299.611 184.662 296.27 179.031 286.517C173.4 276.764 176.742 264.293 186.495 258.662C196.248 253.031 208.718 256.373 214.349 266.126C219.98 275.879 216.639 288.35 206.886 293.981Z" fill="#4F27AA"/>
<path d="M226.633 390.973C219.898 394.862 217.59 403.475 221.479 410.211C225.368 416.947 233.981 419.255 240.716 415.366C247.452 411.477 249.76 402.864 245.871 396.128C241.982 389.392 233.369 387.084 226.633 390.973Z" fill="#E1E4E5"/>
<path d="M166.681 189.402C185.538 208.595 220.801 204.548 220.801 204.548C220.801 204.548 225.467 169.384 206.592 150.203C187.735 131.01 152.49 135.045 152.49 135.045C152.49 135.045 147.824 170.209 166.681 189.402Z" fill="url(#paint2_linear_1235_18818)"/>
<path d="M327.16 515.144C347.519 497.553 345.736 462.104 345.736 462.104C345.736 462.104 310.942 455.198 290.593 472.808C270.234 490.399 272.006 525.83 272.006 525.83C272.006 525.83 306.8 532.736 327.16 515.144Z" fill="url(#paint3_linear_1235_18818)"/>
<path d="M639.898 68.8926H639.605C637.87 93.6426 619.594 94.0246 619.594 94.0246C619.594 94.0246 639.748 94.4206 639.748 123.02C639.748 94.4196 659.901 94.0246 659.901 94.0246C659.901 94.0246 641.632 93.6436 639.898 68.8926ZM638.008 412.326C638.008 412.326 673.622 400.873 691.728 378.017C694.134 374.98 691.363 370.604 687.568 371.427C687.504 371.44 687.439 371.454 687.375 371.47C680.92 372.982 657.573 399.173 638.008 412.326ZM616.555 412.53C616.555 412.53 672.602 375.86 691.229 328.267C692.366 325.367 691.082 321.987 688.213 320.749C686.345 319.945 683.673 319.939 679.903 321.986C669.851 327.452 643.059 381.704 616.555 412.53Z" fill="#E1E4E5"/>
</g>
<defs>
<linearGradient id="paint0_linear_1235_18818" x1="467.192" y1="652.411" x2="458.396" y2="-287.071" gradientUnits="userSpaceOnUse">
<stop stop-color="white"/>
<stop offset="1" stop-color="#EEEEEE"/>
</linearGradient>
<linearGradient id="paint1_linear_1235_18818" x1="600.576" y1="333.152" x2="595.955" y2="-142.686" gradientUnits="userSpaceOnUse">
<stop stop-color="white"/>
<stop offset="1" stop-color="#EEEEEE"/>
</linearGradient>
<linearGradient id="paint2_linear_1235_18818" x1="241.918" y1="254.961" x2="105.591" y2="41.256" gradientUnits="userSpaceOnUse">
<stop stop-color="white"/>
<stop offset="1" stop-color="#EEEEEE"/>
</linearGradient>
<linearGradient id="paint3_linear_1235_18818" x1="397.396" y1="444.254" x2="175.41" y2="566.635" gradientUnits="userSpaceOnUse">
<stop stop-color="white"/>
<stop offset="1" stop-color="#EEEEEE"/>
</linearGradient>
<clipPath id="clip0_1235_18818">
<rect width="900" height="600" fill="white"/>
</clipPath>
</defs>
</svg>
