<svg width="900" height="600" viewBox="0 0 900 600" fill="none" xmlns="http://www.w3.org/2000/svg">
<g clip-path="url(#clip0_1235_28489)">
<path d="M837.083 393.482H765.681C748.185 393.482 733.526 381.574 733.526 366.491C733.526 358.949 737.309 352.202 742.983 347.438C748.657 342.675 756.696 339.5 765.681 339.5H776.084C785.068 339.5 793.107 336.325 798.781 331.561C804.456 326.798 808.238 320.051 808.238 312.509C808.238 297.823 794.052 285.518 776.084 285.518H557.995C552.297 285.518 548.635 278.514 548.635 272.816C548.635 258.527 534.922 247.016 517.899 247.016H436.74C434.687 247.016 432.718 246.201 431.267 244.749C429.815 243.298 429 241.329 429 239.276C429 237.224 429.815 235.255 431.267 233.803C432.718 232.352 434.687 231.536 436.74 231.536H747.712C761.425 231.536 774.192 226.773 783.177 219.231C792.161 211.69 797.835 200.972 797.835 189.462C797.835 166.043 775.138 147.387 747.712 147.387H587.099C561.898 147.387 536.953 127.938 511.752 127.938H422.08C408.927 127.938 398.264 117.275 398.264 104.122C398.264 90.9695 408.927 80.3075 422.08 80.3075H622.875C632.332 80.3075 641.317 77.1315 647.464 71.9715C653.611 66.8115 657.394 59.6675 657.394 51.3315C657.394 35.4545 641.79 22.3555 622.875 22.3555H159.94C150.482 22.3555 141.498 25.5315 135.351 30.6915C129.203 35.8515 125.421 42.9965 125.421 51.3315C125.421 67.2085 141.025 80.3075 159.94 80.3075H171.761C187.366 80.3075 200.606 91.0245 200.606 104.519C200.606 111.267 197.296 117.221 192.095 121.587C186.893 125.953 179.8 128.732 171.761 128.732H114.545C104.614 128.732 95.1568 132.304 88.5368 137.861C81.9168 143.418 77.6608 150.96 77.6608 159.692C77.6608 176.76 94.2108 190.255 114.072 190.255H172.234C191.149 190.255 206.753 203.354 206.753 219.231C206.753 227.17 202.971 234.314 196.823 239.474C190.676 244.634 182.164 247.81 172.707 247.81H120.692C112.18 247.81 104.614 250.588 98.9398 255.351C93.2658 260.115 89.9558 266.465 89.9558 273.61C89.9558 287.899 103.669 299.41 120.692 299.41H162.777C186.893 299.41 206.281 315.684 206.281 335.928C206.281 345.851 201.552 355.377 193.513 361.728C185.474 368.476 174.599 372.445 162.777 372.445H104.142C92.3198 372.445 81.4438 376.414 73.8778 383.162C65.8398 389.513 61.1108 398.642 61.1108 408.565C61.1108 428.412 80.4978 444.686 104.142 444.686H285.197C305.193 444.686 324.835 455.799 344.83 455.799H377.805C390.41 455.799 400.628 466.018 400.628 478.623C400.628 491.228 390.41 501.446 377.805 501.446H297.544C287.141 501.446 278.156 505.018 271.536 510.575C264.916 516.132 260.66 524.071 260.66 532.406C260.66 549.474 277.21 563.367 297.544 563.367H789.324C799.727 563.367 808.711 559.794 815.331 554.237C821.952 548.68 826.207 540.742 826.207 532.406C826.207 515.338 809.657 501.446 789.324 501.446H774.665C759.533 501.446 747.712 491.126 747.712 478.821C747.712 472.47 750.549 466.913 755.75 462.944C760.479 458.975 767.572 456.196 775.138 456.196H837.083C847.486 456.196 856.471 452.624 863.091 447.067C869.711 441.51 873.967 433.572 873.967 425.236C873.967 407.374 857.417 393.482 837.083 393.482Z" fill="url(#paint0_linear_1235_28489)"/>
<path d="M858.653 342.291C846.611 348.265 830.628 340.584 830.628 340.584C830.628 340.584 834.18 323.221 846.228 317.256C858.271 311.283 874.247 318.955 874.247 318.955C874.247 318.955 870.695 336.318 858.653 342.291Z" fill="url(#paint1_linear_1235_28489)"/>
<path d="M50.2121 344.682C67.7961 355.221 93.0241 345.478 93.0241 345.478C93.0241 345.478 89.7251 318.653 72.1301 308.126C54.5461 297.587 29.3291 307.317 29.3291 307.317C29.3291 307.317 32.6281 334.143 50.2121 344.682Z" fill="url(#paint2_linear_1235_28489)"/>
<path d="M850.657 165.464C846.14 165.464 842.479 169.126 842.479 173.642C842.479 178.159 846.14 181.82 850.657 181.82C855.174 181.82 858.835 178.159 858.835 173.642C858.835 169.126 855.174 165.464 850.657 165.464Z" fill="#4F27AA"/>
<path d="M608.051 492.006C599.557 492.006 592.671 498.891 592.671 507.386C592.671 515.88 599.557 522.766 608.051 522.766C616.545 522.766 623.431 515.88 623.431 507.386C623.431 498.891 616.545 492.006 608.051 492.006Z" fill="#4F27AA"/>
<path d="M173.825 504.688C167.082 504.688 161.616 499.221 161.616 492.479C161.616 485.736 167.082 480.27 173.825 480.27C180.568 480.27 186.034 485.736 186.034 492.479C186.034 499.221 180.568 504.688 173.825 504.688Z" fill="#4F27AA"/>
<path d="M815.254 267.625C810.739 267.625 807.08 263.966 807.08 259.451C807.08 254.937 810.739 251.277 815.254 251.277C819.768 251.277 823.428 254.937 823.428 259.451C823.428 263.966 819.768 267.625 815.254 267.625Z" fill="#4F27AA"/>
<path d="M102.633 514.188C94.2493 514.188 87.453 507.392 87.453 499.008C87.453 490.624 94.2493 483.828 102.633 483.828C111.017 483.828 117.813 490.624 117.813 499.008C117.813 507.392 111.017 514.188 102.633 514.188Z" fill="#E1E4E5"/>
<path d="M862.836 516.944C856.455 516.944 851.282 511.771 851.282 505.39C851.282 499.009 856.455 493.836 862.836 493.836C869.217 493.836 874.39 499.009 874.39 505.39C874.39 511.771 869.217 516.944 862.836 516.944Z" fill="#E1E4E5"/>
<path d="M735.898 102.218C727.877 102.218 721.375 95.7157 721.375 87.6949C721.375 79.674 727.877 73.1719 735.898 73.1719C743.919 73.1719 750.421 79.674 750.421 87.6949C750.421 95.7157 743.919 102.218 735.898 102.218Z" fill="#E1E4E5"/>
<path d="M165.459 222.245C167.108 228.399 163.456 234.724 157.303 236.373C151.149 238.021 144.824 234.37 143.175 228.216C141.527 222.063 145.178 215.738 151.332 214.089C157.485 212.44 163.81 216.092 165.459 222.245Z" fill="#E1E4E5"/>
<path d="M285.358 96.7681C276.883 96.7681 270.013 89.8979 270.013 81.4231C270.013 72.9483 276.883 66.0781 285.358 66.0781C293.833 66.0781 300.703 72.9483 300.703 81.4231C300.703 89.8979 293.833 96.7681 285.358 96.7681Z" fill="#E1E4E5"/>
<path d="M794.779 375.952C788.26 375.952 782.975 371.725 782.975 366.509C782.975 361.294 788.26 357.066 794.779 357.066C801.298 357.066 806.583 361.294 806.583 366.509C806.583 371.725 801.298 375.952 794.779 375.952Z" fill="#E1E4E5"/>
<path d="M127.694 87.3867H127.862C128.858 101.495 139.35 101.712 139.35 101.712C139.35 101.712 127.78 101.938 127.78 118.239C127.78 101.938 116.21 101.712 116.21 101.712C116.21 101.712 126.698 101.495 127.694 87.3867ZM184.693 548.565H184.855C185.811 562.632 195.884 562.848 195.884 562.848C195.884 562.848 184.776 563.073 184.776 579.326C184.776 563.073 173.668 562.848 173.668 562.848C173.668 562.848 183.737 562.632 184.693 548.565Z" fill="#E1E4E5"/>
<path fill-rule="evenodd" clip-rule="evenodd" d="M489.619 319.016C457.214 319.016 430.945 345.286 430.945 377.691V407.028C430.945 439.433 457.214 465.702 489.619 465.702H515.065V509.678C515.065 512.452 515.851 515.169 517.332 517.515C518.814 519.86 520.931 521.737 523.436 522.928C525.942 524.119 528.733 524.574 531.488 524.242C534.242 523.91 536.845 522.804 538.996 521.052L598.876 472.29C604.109 468.028 610.652 465.701 617.401 465.701H694.978C727.383 465.701 753.652 439.432 753.652 407.027V377.69C753.652 345.285 727.383 319.016 694.978 319.016H489.619ZM239.315 41.8828C206.91 41.8828 180.641 68.1528 180.641 100.557V129.894C180.641 162.299 206.91 188.568 239.315 188.568H316.892C323.641 188.568 330.184 190.895 335.417 195.157L395.297 243.919C397.448 245.671 400.051 246.777 402.806 247.109C405.56 247.441 408.352 246.986 410.857 245.795C413.363 244.604 415.479 242.727 416.961 240.382C418.442 238.036 419.229 235.319 419.228 232.545V188.568H444.674C477.079 188.568 503.348 162.299 503.348 129.894V100.557C503.348 68.1528 477.079 41.8828 444.674 41.8828H239.315ZM191.89 515.375V503.464C191.987 469.576 219.434 442.129 253.322 442.032H335.817C369.705 442.129 397.152 469.576 397.249 503.464V515.375C397.249 523.476 390.682 530.043 382.58 530.043H206.558C198.457 530.043 191.89 523.476 191.89 515.375Z" fill="#4F27AA"/>
<path d="M294.565 406.149C326.97 406.149 353.239 379.88 353.239 347.475C353.239 315.07 326.97 288.801 294.565 288.801C262.16 288.801 235.891 315.07 235.891 347.475C235.891 379.88 262.16 406.149 294.565 406.149Z" fill="#4F27AA"/>
<path fill-rule="evenodd" clip-rule="evenodd" d="M537.053 258.241V246.33C537.149 212.442 564.597 184.995 598.484 184.898H680.98C714.868 184.995 742.315 212.442 742.412 246.33V258.241C742.412 266.342 735.844 272.909 727.743 272.909H551.721C543.62 272.909 537.053 266.342 537.053 258.241Z" fill="#4F27AA"/>
<path d="M639.727 149C672.132 149 698.401 122.731 698.401 90.3263C698.401 57.9216 672.132 31.6523 639.727 31.6523C607.322 31.6523 581.053 57.9216 581.053 90.3263C581.053 122.731 607.322 149 639.727 149Z" fill="#4F27AA"/>
</g>
<defs>
<linearGradient id="paint0_linear_1235_28489" x1="484.87" y1="866.69" x2="473.767" y2="-566.281" gradientUnits="userSpaceOnUse">
<stop stop-color="white"/>
<stop offset="1" stop-color="#EEEEEE"/>
</linearGradient>
<linearGradient id="paint1_linear_1235_28489" x1="812.41" y1="360.924" x2="911.734" y2="282.359" gradientUnits="userSpaceOnUse">
<stop stop-color="white"/>
<stop offset="1" stop-color="#EEEEEE"/>
</linearGradient>
<linearGradient id="paint2_linear_1235_28489" x1="118.258" y1="378.606" x2="-23.2309" y2="247.144" gradientUnits="userSpaceOnUse">
<stop stop-color="white"/>
<stop offset="1" stop-color="#EEEEEE"/>
</linearGradient>
<clipPath id="clip0_1235_28489">
<rect width="900" height="600" fill="white"/>
</clipPath>
</defs>
</svg>
