<svg width="900" height="600" viewBox="0 0 900 600" fill="none" xmlns="http://www.w3.org/2000/svg">
<g clip-path="url(#clip0_1235_28530)">
<path fill-rule="evenodd" clip-rule="evenodd" d="M677.902 427.385V374.615C677.902 344.845 653.769 320.712 624 320.712C594.231 320.712 570.098 344.845 570.098 374.615V427.385C570.098 457.155 594.231 481.288 624 481.288C653.769 481.288 677.902 457.155 677.902 427.385ZM696.56 427.385V374.615C696.56 334.541 664.074 302.055 624 302.055C583.927 302.055 551.44 334.541 551.44 374.615V427.385C551.44 467.459 583.927 499.945 624 499.945C664.074 499.945 696.56 467.459 696.56 427.385Z" fill="#E1E4E5"/>
<path fill-rule="evenodd" clip-rule="evenodd" d="M624 338.902C629.152 338.902 633.329 343.078 633.329 348.23V374.616C633.329 379.768 629.152 383.944 624 383.944C618.848 383.944 614.671 379.768 614.671 374.616V348.23C614.671 343.078 618.848 338.902 624 338.902Z" fill="#E1E4E5"/>
<path d="M444.333 299.333H205.667C187.809 299.333 173.333 313.809 173.333 331.667V451C173.333 468.857 187.809 483.333 205.667 483.333H444.333C462.191 483.333 476.667 468.857 476.667 451V331.667C476.667 313.809 462.191 299.333 444.333 299.333ZM148.5 331.667C148.5 300.094 174.094 274.5 205.667 274.5H444.333C475.906 274.5 501.5 300.094 501.5 331.667V451C501.5 482.572 475.906 508.167 444.333 508.167H205.667C174.094 508.167 148.5 482.572 148.5 451V331.667Z" fill="#E1E4E5" stroke="white" stroke-width="5"/>
<path d="M384.667 361.499C384.667 353.26 391.345 346.582 399.583 346.582H429.417C437.655 346.582 444.333 353.26 444.333 361.499C444.333 369.737 437.655 376.415 429.417 376.415H399.583C391.345 376.415 384.667 369.737 384.667 361.499ZM205.667 421.165C205.667 412.927 212.345 406.249 220.583 406.249C228.822 406.249 235.5 412.927 235.5 421.165C235.5 429.404 228.822 436.082 220.583 436.082C212.345 436.082 205.667 429.404 205.667 421.165ZM265.333 421.165C265.333 412.927 272.012 406.249 280.25 406.249H369.75C377.988 406.249 384.667 412.927 384.667 421.165C384.667 429.404 377.988 436.082 369.75 436.082H280.25C272.012 436.082 265.333 429.404 265.333 421.165ZM429.417 406.249C421.178 406.249 414.5 412.927 414.5 421.165C414.5 429.404 421.178 436.082 429.417 436.082C437.655 436.082 444.333 429.404 444.333 421.165C444.333 412.927 437.655 406.249 429.417 406.249ZM339.917 346.582C331.678 346.582 325 353.26 325 361.499C325 369.737 331.678 376.415 339.917 376.415C348.155 376.415 354.833 369.737 354.833 361.499C354.833 353.26 348.155 346.582 339.917 346.582ZM265.333 361.499C265.333 353.26 272.012 346.582 280.25 346.582C288.488 346.582 295.167 353.26 295.167 361.499C295.167 369.737 288.488 376.415 280.25 376.415C272.012 376.415 265.333 369.737 265.333 361.499ZM220.583 346.582C212.345 346.582 205.667 353.26 205.667 361.499C205.667 369.737 212.345 376.415 220.583 376.415C228.822 376.415 235.5 369.737 235.5 361.499C235.5 353.26 228.822 346.582 220.583 346.582Z" fill="#E1E4E5"/>
<path d="M300 91H692M323 139.5H692M341 187.5H692M158 235.5H692" stroke="#E1E4E5" stroke-width="21.43" stroke-linecap="round" stroke-linejoin="round"/>
<path d="M211.846 199.192C247.383 199.192 276.192 170.383 276.192 134.846C276.192 99.3087 247.383 70.5 211.846 70.5C176.309 70.5 147.5 99.3087 147.5 134.846C147.5 170.383 176.309 199.192 211.846 199.192Z" fill="#4F27AA" stroke="#4F27AA" stroke-width="3"/>
<path d="M231.523 130.593C235.523 132.902 235.523 138.676 231.523 140.985L206.837 155.238C202.837 157.547 197.837 154.66 197.837 150.042V121.536C197.837 116.918 202.837 114.031 206.837 116.34L231.523 130.593Z" fill="white"/>
</g>
<defs>
<clipPath id="clip0_1235_28530">
<rect width="900" height="600" fill="white"/>
</clipPath>
</defs>
</svg>
