<svg width="900" height="600" viewBox="0 0 900 600" fill="none" xmlns="http://www.w3.org/2000/svg">
<g clip-path="url(#clip0_1235_28557)">
<path d="M836.571 317.914C809.251 331.466 772.991 314.04 772.991 314.04C772.991 314.04 781.049 274.65 808.384 261.117C835.704 247.565 871.95 264.971 871.95 264.971C871.95 264.971 863.891 304.361 836.571 317.914Z" fill="url(#paint0_linear_1235_28557)"/>
<path d="M77.06 394.133C112.757 415.527 163.971 395.75 163.971 395.75C163.971 395.75 157.274 341.293 121.556 319.923C85.859 298.528 34.668 318.282 34.668 318.282C34.668 318.282 41.364 372.738 77.061 394.133H77.06Z" fill="url(#paint1_linear_1235_28557)"/>
<path d="M750.249 121.498C742.011 121.498 735.332 128.177 735.332 136.415C735.332 144.653 742.011 151.332 750.249 151.332C758.487 151.332 765.166 144.653 765.166 136.415C765.166 128.177 758.487 121.498 750.249 121.498Z" fill="#4F27AA"/>
<path d="M734.472 322.799C725.203 322.799 717.69 330.313 717.69 339.581C717.69 348.85 725.203 356.363 734.472 356.363C743.74 356.363 751.254 348.85 751.254 339.581C751.254 330.313 743.74 322.799 734.472 322.799Z" fill="#4F27AA"/>
<path d="M109.208 181.271C101.484 181.271 95.223 175.009 95.223 167.286C95.223 159.562 101.484 153.301 109.208 153.301C116.932 153.301 123.193 159.562 123.193 167.286C123.193 175.009 116.932 181.271 109.208 181.271Z" fill="#4F27AA"/>
<path d="M240.234 542.825C236.63 542.825 233.708 539.904 233.708 536.299C233.708 532.695 236.63 529.773 240.234 529.773C243.838 529.773 246.76 532.695 246.76 536.299C246.76 539.904 243.838 542.825 240.234 542.825Z" fill="#4F27AA"/>
<path d="M647.296 523.985C642.662 523.985 638.905 520.228 638.905 515.594C638.905 510.96 642.662 507.203 647.296 507.203C651.93 507.203 655.687 510.96 655.687 515.594C655.687 520.228 651.93 523.985 647.296 523.985Z" fill="#E1E4E5"/>
<path d="M122.551 479.056C115.857 479.056 110.431 473.63 110.431 466.936C110.431 460.243 115.857 454.816 122.551 454.816C129.245 454.816 134.671 460.243 134.671 466.936C134.671 473.63 129.245 479.056 122.551 479.056Z" fill="#E1E4E5"/>
<path d="M388.598 199.446C383.503 199.446 379.373 195.316 379.373 190.221C379.373 185.126 383.503 180.996 388.598 180.996C393.693 180.996 397.823 185.126 397.823 190.221C397.823 195.316 393.693 199.446 388.598 199.446Z" fill="#E1E4E5"/>
<path d="M469.643 339.992C463.979 339.992 459.387 335.401 459.387 329.736C459.387 324.072 463.979 319.48 469.643 319.48C475.307 319.48 479.899 324.072 479.899 329.736C479.899 335.401 475.307 339.992 469.643 339.992Z" fill="#E1E4E5"/>
<path d="M516.491 148.859C517.808 153.771 514.892 158.821 509.98 160.137C505.067 161.454 500.017 158.538 498.701 153.626C497.385 148.713 500.3 143.663 505.213 142.347C510.125 141.031 515.175 143.946 516.491 148.859Z" fill="#E1E4E5"/>
<path d="M338.283 82.4024C331.516 82.4024 326.031 76.917 326.031 70.1504C326.031 63.3838 331.516 57.8984 338.283 57.8984C345.05 57.8984 350.535 63.3838 350.535 70.1504C350.535 76.917 345.05 82.4024 338.283 82.4024Z" fill="#E1E4E5"/>
<path d="M625.761 421.754C620.556 421.754 616.337 418.378 616.337 414.215C616.337 410.051 620.556 406.676 625.761 406.676C630.966 406.676 635.185 410.051 635.185 414.215C635.185 418.378 630.966 421.754 625.761 421.754Z" fill="#E1E4E5"/>
<path d="M690.744 76.5181C693.483 86.7431 687.416 97.253 677.191 99.9928C666.966 102.733 656.456 96.6646 653.716 86.4397C650.976 76.2147 657.044 65.7048 667.269 62.965C677.494 60.2252 688.004 66.2932 690.744 76.5181Z" fill="#E1E4E5"/>
<path d="M742.937 449.758H743.183C744.643 470.444 760.027 470.762 760.027 470.762C760.027 470.762 743.063 471.093 743.063 494.995C743.063 471.093 726.099 470.762 726.099 470.762C726.099 470.762 741.477 470.444 742.937 449.758ZM432.269 494.894H432.488C433.783 513.616 447.433 513.904 447.433 513.904C447.433 513.904 432.381 514.204 432.381 535.836C432.381 514.204 417.329 513.904 417.329 513.904C417.329 513.904 430.974 513.616 432.269 494.894Z" fill="#E1E4E5"/>
<path d="M164.095 221.533V183.825C164.095 162.991 180.969 146.117 201.803 146.117H409.195C430.029 146.117 446.903 162.991 446.903 183.825V278.094C446.903 298.928 430.029 315.802 409.195 315.802H371.488M312.832 412.164H166.187M312.832 353.51H166.187M312.832 294.855H166.187" stroke="#4F27AA" stroke-width="31.8" stroke-linecap="round" stroke-linejoin="round"/>
<path d="M136.87 485.485H342.15C358.365 485.485 371.487 472.363 371.487 456.148V250.867C371.487 234.653 358.365 221.531 342.15 221.531H136.851C120.655 221.531 107.533 234.653 107.533 250.867V456.167C107.533 472.363 120.655 485.485 136.87 485.485V485.485Z" stroke="#4F27AA" stroke-width="31.8" stroke-linecap="round" stroke-linejoin="round"/>
<path d="M621.141 272.385C602.362 291.163 602.362 321.593 621.141 340.372C639.919 359.15 670.35 359.15 689.128 340.372C707.906 321.593 707.906 291.163 689.128 272.385C670.368 253.606 639.919 253.606 621.141 272.385" stroke="#4F27AA" stroke-width="31.8" stroke-linecap="round" stroke-linejoin="round"/>
<path d="M534.943 306.375C534.943 301.077 535.415 295.798 536.056 290.67L507.775 268.554C501.515 263.633 499.8 254.866 503.778 247.966L528.929 204.47C532.907 197.588 541.335 194.685 548.725 197.626L573.99 207.769C579.005 209.787 584.604 208.938 589.129 205.959C593.038 203.378 597.092 201.023 601.271 198.908C606.098 196.495 609.623 192.083 610.396 186.747L614.243 159.824C615.355 151.962 622.105 146.117 630.061 146.117H680.212C688.15 146.117 694.899 151.962 696.031 159.824L699.915 186.785C700.669 192.102 704.176 196.495 708.964 198.927C713.154 201.074 717.22 203.453 721.144 206.054C725.65 209.014 731.231 209.805 736.227 207.807L761.529 197.626C768.92 194.666 777.366 197.569 781.326 204.47L806.477 247.966C810.474 254.866 808.758 263.652 802.498 268.554L774.218 290.67C774.859 295.798 775.349 301.077 775.349 306.375C775.349 311.654 774.878 316.952 774.218 322.08L802.498 344.196C808.758 349.117 810.474 357.884 806.495 364.784L781.344 408.28C777.366 415.162 768.939 418.065 761.548 415.124L736.227 404.962C731.231 402.944 725.65 403.755 721.163 406.734C717.241 409.338 713.174 411.717 708.983 413.861C704.176 416.293 700.688 420.667 699.915 426.003L696.05 452.945C694.918 460.788 688.169 466.633 680.231 466.633H655.137M582.379 391.22H469.255M582.379 438.354H469.255M582.379 485.487H469.255" stroke="#4F27AA" stroke-width="31.8" stroke-linecap="round" stroke-linejoin="round"/>
</g>
<defs>
<linearGradient id="paint0_linear_1235_28557" x1="731.66" y1="360.187" x2="956.995" y2="181.945" gradientUnits="userSpaceOnUse">
<stop stop-color="white"/>
<stop offset="1" stop-color="#EEEEEE"/>
</linearGradient>
<linearGradient id="paint1_linear_1235_28557" x1="215.197" y1="463" x2="-72.031" y2="196.128" gradientUnits="userSpaceOnUse">
<stop stop-color="white"/>
<stop offset="1" stop-color="#EEEEEE"/>
</linearGradient>
<clipPath id="clip0_1235_28557">
<rect width="900" height="600" fill="white"/>
</clipPath>
</defs>
</svg>
