<svg width="900" height="600" viewBox="0 0 900 600" fill="none" xmlns="http://www.w3.org/2000/svg">
<g clip-path="url(#clip0_1235_28578)">
<path d="M182.494 168.61C172.871 168.61 165.07 160.809 165.07 151.186C165.07 141.563 172.871 133.762 182.494 133.762C192.117 133.762 199.918 141.563 199.918 151.186C199.918 160.809 192.117 168.61 182.494 168.61Z" fill="#4F27AA"/>
<path d="M747.949 271.985C743.458 271.985 739.818 268.344 739.818 263.854C739.818 259.363 743.458 255.723 747.949 255.723C752.44 255.723 756.08 259.363 756.08 263.854C756.08 268.344 752.44 271.985 747.949 271.985Z" fill="#4F27AA"/>
<path d="M188.958 462.689C183.184 462.689 178.504 458.009 178.504 452.235C178.504 446.462 183.184 441.781 188.958 441.781C194.732 441.781 199.412 446.462 199.412 452.235C199.412 458.009 194.732 462.689 188.958 462.689Z" fill="#E1E4E5"/>
<path d="M245.013 99.1266C238.666 99.1266 233.52 93.981 233.52 87.6336C233.52 81.2862 238.666 76.1406 245.013 76.1406C251.361 76.1406 256.506 81.2862 256.506 87.6336C256.506 93.981 251.361 99.1266 245.013 99.1266Z" fill="#E1E4E5"/>
<path d="M726.714 181.386C719.657 181.386 713.937 175.666 713.937 168.609C713.937 161.552 719.657 155.832 726.714 155.832C733.771 155.832 739.491 161.552 739.491 168.609C739.491 175.666 733.771 181.386 726.714 181.386Z" fill="#E1E4E5"/>
<path d="M168.136 260.952C169.776 267.073 166.144 273.365 160.023 275.005C153.902 276.645 147.61 273.013 145.97 266.892C144.33 260.771 147.963 254.479 154.084 252.839C160.205 251.199 166.496 254.831 168.136 260.952Z" fill="#E1E4E5"/>
<path d="M714.164 481.677C707.679 481.677 702.422 477.471 702.422 472.284C702.422 467.096 707.679 462.891 714.164 462.891C720.649 462.891 725.906 467.096 725.906 472.284C725.906 477.471 720.649 481.677 714.164 481.677Z" fill="#E1E4E5"/>
<path d="M676.633 74.064C680.047 86.8027 672.487 99.8964 659.748 103.31C647.01 106.723 633.916 99.1634 630.503 86.4247C627.089 73.6861 634.649 60.5923 647.388 57.179C660.126 53.7657 673.22 61.3254 676.633 74.064Z" fill="#E1E4E5"/>
<path fill-rule="evenodd" clip-rule="evenodd" d="M622.189 132.671C717.652 228.134 717.652 382.91 622.189 478.372C526.726 573.835 371.95 573.835 276.488 478.372C181.025 382.909 181.025 228.134 276.488 132.671C371.951 37.2085 526.727 37.2085 622.189 132.671Z" fill="#4F27AA"/>
<path fill-rule="evenodd" clip-rule="evenodd" d="M474.407 255.383L557.981 288.818L407.564 455.939L424.268 338.957L340.694 305.522L491.111 155.105L474.407 255.383Z" fill="white"/>
</g>
<defs>
<clipPath id="clip0_1235_28578">
<rect width="900" height="600" fill="white"/>
</clipPath>
</defs>
</svg>
