<svg width="900" height="600" viewBox="0 0 900 600" fill="none" xmlns="http://www.w3.org/2000/svg">
<g clip-path="url(#clip0_1235_28590)">
<path d="M130.277 260.89C158.973 275.125 197.059 256.822 197.059 256.822C197.059 256.822 188.595 215.447 159.884 201.232C131.188 186.998 93.116 205.281 93.116 205.281C93.116 205.281 101.581 246.655 130.277 260.89Z" fill="url(#paint0_linear_1235_28590)"/>
<path d="M773.251 305.236C757.661 314.58 735.292 305.942 735.292 305.942C735.292 305.942 738.217 282.157 753.818 272.824C769.408 263.48 791.767 272.107 791.767 272.107C791.767 272.107 788.842 295.892 773.251 305.236Z" fill="url(#paint1_linear_1235_28590)"/>
<path d="M199.814 485.628C204.682 485.628 208.628 481.682 208.628 476.814C208.628 471.946 204.682 468 199.814 468C194.946 468 191 471.946 191 476.814C191 481.682 194.946 485.628 199.814 485.628Z" fill="#E1E4E5"/>
<path d="M775.453 402.907C782.484 402.907 788.184 397.207 788.184 390.176C788.184 383.145 782.484 377.445 775.453 377.445C768.422 377.445 762.722 383.145 762.722 390.176C762.722 397.207 768.422 402.907 775.453 402.907Z" fill="#E1E4E5"/>
<path d="M135.689 366.378C141.04 366.378 145.378 362.04 145.378 356.689C145.378 351.338 141.04 347 135.689 347C130.338 347 126 351.338 126 356.689C126 362.04 130.338 366.378 135.689 366.378Z" fill="#E1E4E5"/>
<path d="M210.796 122.411C216.745 122.411 221.568 117.588 221.568 111.639C221.568 105.69 216.745 100.867 210.796 100.867C204.847 100.867 200.024 105.69 200.024 111.639C200.024 117.588 204.847 122.411 210.796 122.411Z" fill="#E1E4E5"/>
<path d="M800.654 179.673C800.654 185.015 804.985 189.346 810.327 189.346C815.669 189.346 820 185.015 820 179.673C820 174.331 815.669 170 810.327 170C804.985 170 800.654 174.331 800.654 179.673Z" fill="#E1E4E5"/>
<path d="M500.38 88.9669C505.145 88.9669 509.008 85.104 509.008 80.3389C509.008 75.5738 505.145 71.7109 500.38 71.7109C495.615 71.7109 491.752 75.5738 491.752 80.3389C491.752 85.104 495.615 88.9669 500.38 88.9669Z" fill="#E1E4E5"/>
<path d="M191.817 322.6C197.284 322.6 201.716 319.054 201.716 314.681C201.716 310.307 197.284 306.762 191.817 306.762C186.35 306.762 181.918 310.307 181.918 314.681C181.918 319.054 186.35 322.6 191.817 322.6Z" fill="#E1E4E5"/>
<path d="M685.794 101.293H685.653C684.818 113.125 676.019 113.307 676.019 113.307C676.019 113.307 685.721 113.496 685.721 127.167C685.721 113.496 695.424 113.307 695.424 113.307C695.424 113.307 686.629 113.125 685.794 101.293ZM711.385 455H711.25C710.448 466.796 702 466.978 702 466.978C702 466.978 711.316 467.167 711.316 480.797C711.316 467.167 720.631 466.978 720.631 466.978C720.631 466.978 712.187 466.796 711.385 455Z" fill="#E1E4E5"/>
<path d="M448.907 502.637C440.893 502.637 434.39 509.14 434.448 517.154C434.448 525.167 440.951 531.671 448.965 531.671C456.978 531.671 463.482 525.167 463.482 517.154C463.482 509.14 456.978 502.637 448.907 502.637Z" stroke="#4F27AA" stroke-width="31" stroke-linecap="round" stroke-linejoin="round"/>
<path d="M568.395 514.589C568.743 514.924 569.022 515.324 569.213 515.768C569.405 516.211 569.506 516.688 569.511 517.171C569.516 517.654 569.425 518.133 569.242 518.58C569.06 519.027 568.79 519.434 568.448 519.775C568.106 520.117 567.7 520.387 567.253 520.569C566.806 520.752 566.327 520.843 565.844 520.838C565.361 520.833 564.884 520.732 564.44 520.54C563.997 520.348 563.596 520.07 563.262 519.721C562.604 519.036 562.242 518.12 562.252 517.17C562.262 516.221 562.643 515.313 563.315 514.641C563.987 513.97 564.895 513.588 565.844 513.578C566.794 513.569 567.71 513.931 568.395 514.589Z" fill="#323232"/>
<path d="M568.395 514.589C568.743 514.924 569.022 515.324 569.213 515.768C569.405 516.211 569.506 516.688 569.511 517.171C569.516 517.654 569.425 518.133 569.242 518.58C569.06 519.027 568.79 519.434 568.448 519.775C568.106 520.117 567.7 520.387 567.253 520.569C566.806 520.752 566.327 520.843 565.844 520.838C565.361 520.833 564.884 520.732 564.44 520.54C563.997 520.348 563.596 520.07 563.262 519.721C562.604 519.036 562.242 518.12 562.252 517.17C562.262 516.221 562.643 515.313 563.315 514.641C563.987 513.97 564.895 513.588 565.844 513.578C566.794 513.569 567.71 513.931 568.395 514.589" stroke="#4F27AA" stroke-width="31" stroke-linecap="round" stroke-linejoin="round"/>
<path d="M336.12 514.589C336.469 514.924 336.747 515.324 336.938 515.768C337.13 516.211 337.231 516.688 337.236 517.171C337.241 517.654 337.15 518.133 336.967 518.58C336.785 519.027 336.515 519.434 336.173 519.775C335.832 520.117 335.425 520.387 334.978 520.569C334.531 520.752 334.052 520.843 333.569 520.838C333.086 520.833 332.609 520.732 332.165 520.54C331.722 520.348 331.321 520.07 330.987 519.721C330.33 519.036 329.967 518.12 329.977 517.17C329.987 516.221 330.368 515.313 331.04 514.641C331.712 513.97 332.62 513.588 333.569 513.578C334.519 513.569 335.435 513.931 336.12 514.589Z" fill="#323232"/>
<path d="M336.12 514.589C336.469 514.924 336.747 515.324 336.938 515.768C337.13 516.211 337.231 516.688 337.236 517.171C337.241 517.654 337.15 518.133 336.967 518.58C336.785 519.027 336.515 519.434 336.173 519.775C335.832 520.117 335.425 520.387 334.978 520.569C334.531 520.752 334.052 520.843 333.569 520.838C333.086 520.833 332.609 520.732 332.165 520.54C331.722 520.348 331.321 520.07 330.987 519.721C330.33 519.036 329.967 518.12 329.977 517.17C329.987 516.221 330.368 515.313 331.04 514.641C331.712 513.97 332.62 513.588 333.569 513.578C334.519 513.569 335.435 513.931 336.12 514.589" stroke="#4F27AA" stroke-width="31" stroke-linecap="round" stroke-linejoin="round"/>
<path fill-rule="evenodd" clip-rule="evenodd" d="M650.551 445.849H248.831C215.442 445.849 188.382 418.789 188.382 385.4V128.852C188.382 95.4623 215.442 68.4023 248.831 68.4023H650.58C683.94 68.4023 711 95.4623 711 128.852V385.429C711 418.789 683.94 445.849 650.551 445.849Z" fill="#4F27AA" stroke="#4F27AA" stroke-width="31" stroke-linecap="round" stroke-linejoin="round"/>
<path d="M347.105 301.876H553.006M527.225 188.328C569.845 230.948 569.845 300.048 527.225 342.668C484.605 385.288 415.505 385.288 372.885 342.668C330.265 300.048 330.265 230.947 372.885 188.328C415.505 145.708 484.606 145.708 527.225 188.328Z" stroke="white" stroke-width="31" stroke-linecap="round" stroke-linejoin="round"/>
</g>
<defs>
<linearGradient id="paint0_linear_1235_28590" x1="240.472" y1="305.292" x2="3.78695" y2="118.073" gradientUnits="userSpaceOnUse">
<stop stop-color="white"/>
<stop offset="1" stop-color="#EEEEEE"/>
</linearGradient>
<linearGradient id="paint1_linear_1235_28590" x1="712.919" y1="335.315" x2="838.369" y2="218.755" gradientUnits="userSpaceOnUse">
<stop stop-color="white"/>
<stop offset="1" stop-color="#EEEEEE"/>
</linearGradient>
<clipPath id="clip0_1235_28590">
<rect width="900" height="600" fill="white"/>
</clipPath>
</defs>
</svg>
