<svg width="900" height="600" viewBox="0 0 900 600" fill="none" xmlns="http://www.w3.org/2000/svg">
<g clip-path="url(#clip0_1235_28609)">
<path d="M819.503 403.653H751.062C734.291 403.653 720.24 392.239 720.24 377.781C720.24 370.552 723.866 364.084 729.305 359.519C734.744 354.953 742.45 351.909 751.062 351.909H761.033C769.645 351.909 777.35 348.866 782.789 344.3C788.228 339.735 791.854 333.267 791.854 326.038C791.854 311.961 778.257 300.166 761.033 300.166H551.99C546.528 300.166 543.018 293.453 543.018 287.991C543.018 274.295 529.874 263.261 513.557 263.261H435.764C433.796 263.261 431.909 262.479 430.518 261.088C429.127 259.697 428.345 257.81 428.345 255.842C428.345 253.874 429.127 251.987 430.518 250.596C431.909 249.205 433.796 248.423 435.764 248.423H733.838C746.982 248.423 759.22 243.858 767.832 236.629C776.444 229.4 781.883 219.127 781.883 208.094C781.883 185.647 760.127 167.765 733.838 167.765H579.887C555.731 167.765 531.82 149.122 507.664 149.122H421.711C409.104 149.122 398.884 138.902 398.884 126.294C398.884 113.687 409.104 103.466 421.711 103.466H614.179C623.244 103.466 631.856 100.423 637.748 95.476C643.64 90.531 647.266 83.682 647.266 75.692C647.266 60.474 632.309 47.918 614.179 47.918H170.444C161.379 47.918 152.767 50.962 146.875 55.908C140.982 60.854 137.356 67.703 137.356 75.692C137.356 90.911 152.314 103.466 170.444 103.466H181.775C196.732 103.466 209.424 113.739 209.424 126.675C209.424 133.142 206.251 138.849 201.265 143.035C196.279 147.22 189.48 149.883 181.775 149.883H126.931C117.413 149.883 108.348 153.307 102.002 158.634C95.6571 163.96 91.5781 171.189 91.5781 179.559C91.5781 195.919 107.441 208.855 126.478 208.855H182.228C200.358 208.855 215.316 221.41 215.316 236.629C215.316 244.238 211.69 251.086 205.798 256.032C199.905 260.978 191.747 264.022 182.682 264.022H132.824C124.665 264.022 117.413 266.685 111.974 271.251C106.535 275.817 103.362 281.904 103.362 288.752C103.362 302.449 116.507 313.483 132.824 313.483H173.163C196.279 313.483 214.863 329.082 214.863 348.485C214.863 357.997 210.33 367.128 202.625 373.215C194.919 379.683 184.495 383.488 173.163 383.488H116.96C105.628 383.488 95.2041 387.293 87.9521 393.76C80.2461 399.848 75.7141 408.599 75.7141 418.11C75.7141 437.133 94.2971 452.732 116.96 452.732H290.506C309.672 452.732 328.5 463.385 347.666 463.385H379.273C391.355 463.385 401.15 473.18 401.15 485.262C401.15 497.344 391.355 507.139 379.273 507.139H302.341C292.369 507.139 283.757 510.563 277.412 515.889C271.066 521.216 266.987 528.825 266.987 536.815C266.987 553.175 282.851 566.491 302.341 566.491H773.724C783.696 566.491 792.308 563.067 798.653 557.741C804.999 552.414 809.078 544.805 809.078 536.815C809.078 520.455 793.214 507.139 773.724 507.139H759.673C745.169 507.139 733.838 497.247 733.838 485.452C733.838 479.365 736.557 474.038 741.543 470.234C746.076 466.429 752.875 463.766 760.127 463.766H819.503C829.474 463.766 838.086 460.342 844.432 455.015C850.777 449.689 854.857 442.079 854.857 434.09C854.857 416.969 838.993 403.653 819.503 403.653Z" fill="url(#paint0_linear_1235_28609)"/>
<path d="M844.539 358.628C832.996 364.354 817.676 356.991 817.676 356.991C817.676 356.991 821.081 340.349 832.63 334.631C844.172 328.905 859.486 336.26 859.486 336.26C859.486 336.26 856.081 352.902 844.539 358.628Z" fill="url(#paint1_linear_1235_28609)"/>
<path d="M65.266 356.877C82.121 366.979 106.303 357.641 106.303 357.641C106.303 357.641 103.141 331.928 86.276 321.837C69.421 311.735 45.249 321.062 45.249 321.062C45.249 321.062 48.411 346.775 65.266 356.877Z" fill="url(#paint2_linear_1235_28609)"/>
<path d="M771.563 116.135C767.234 116.135 763.724 119.644 763.724 123.974C763.724 128.303 767.234 131.812 771.563 131.812C775.892 131.812 779.402 128.303 779.402 123.974C779.402 119.644 775.892 116.135 771.563 116.135Z" fill="#4F27AA"/>
<path d="M790.578 254.86C782.436 254.86 775.836 261.46 775.836 269.602C775.836 277.744 782.436 284.344 790.578 284.344C798.72 284.344 805.32 277.744 805.32 269.602C805.32 261.46 798.72 254.86 790.578 254.86Z" fill="#4F27AA"/>
<path d="M137.703 440.406C131.24 440.406 126 435.166 126 428.703C126 422.24 131.24 417 137.703 417C144.166 417 149.406 422.24 149.406 428.703C149.406 435.166 144.166 440.406 137.703 440.406Z" fill="#4F27AA"/>
<path d="M257.254 197.143C252.927 197.143 249.419 193.635 249.419 189.308C249.419 184.981 252.927 181.473 257.254 181.473C261.581 181.473 265.089 184.981 265.089 189.308C265.089 193.635 261.581 197.143 257.254 197.143Z" fill="#4F27AA"/>
<path d="M163.938 363.231C155.902 363.231 149.387 356.716 149.387 348.68C149.387 340.644 155.902 334.129 163.938 334.129C171.974 334.129 178.489 340.644 178.489 348.68C178.489 356.716 171.974 363.231 163.938 363.231Z" fill="#E1E4E5"/>
<path d="M573.323 490.593C567.207 490.593 562.249 485.635 562.249 479.519C562.249 473.403 567.207 468.445 573.323 468.445C579.439 468.445 584.397 473.403 584.397 479.519C584.397 485.635 579.439 490.593 573.323 490.593Z" fill="#E1E4E5"/>
<path d="M674.154 145.078C666.466 145.078 660.234 138.846 660.234 131.158C660.234 123.47 666.466 117.238 674.154 117.238C681.842 117.238 688.074 123.47 688.074 131.158C688.074 138.846 681.842 145.078 674.154 145.078Z" fill="#E1E4E5"/>
<path d="M162.598 238.015C164.179 243.913 160.678 249.975 154.78 251.556C148.882 253.136 142.82 249.636 141.24 243.738C139.659 237.84 143.159 231.777 149.057 230.197C154.955 228.617 161.018 232.117 162.598 238.015Z" fill="#E1E4E5"/>
<path d="M265.382 62.9824C257.259 62.9824 250.674 56.3974 250.674 48.2744C250.674 40.1514 257.259 33.5664 265.382 33.5664C273.505 33.5664 280.09 40.1514 280.09 48.2744C280.09 56.3974 273.505 62.9824 265.382 62.9824Z" fill="#E1E4E5"/>
<path d="M778.952 386.848C772.704 386.848 767.638 382.796 767.638 377.797C767.638 372.798 772.704 368.746 778.952 368.746C785.201 368.746 790.266 372.798 790.266 377.797C790.266 382.796 785.201 386.848 778.952 386.848Z" fill="#E1E4E5"/>
<path d="M516.893 344.48C516.893 354.453 508.808 362.538 498.835 362.538C488.862 362.538 480.777 354.453 480.777 344.48C480.777 334.507 488.862 326.422 498.835 326.422C508.808 326.422 516.893 334.507 516.893 344.48Z" fill="#E1E4E5"/>
<path d="M184.34 118.445H184.501C185.456 131.968 195.513 132.176 195.513 132.176C195.513 132.176 184.423 132.393 184.423 148.018C184.423 132.393 173.333 132.176 173.333 132.176C173.333 132.176 183.386 131.968 184.34 118.445ZM148.946 480.554H149.1C150.017 494.037 159.672 494.244 159.672 494.244C159.672 494.244 149.025 494.46 149.025 510.039C149.025 494.46 138.378 494.244 138.378 494.244C138.378 494.244 148.029 494.037 148.946 480.554Z" fill="#E1E4E5"/>
<path fill-rule="evenodd" clip-rule="evenodd" d="M405.056 55.5859H257.037C224.473 55.5859 197.83 82.2289 197.83 114.793V262.811C197.83 295.376 224.473 322.019 257.037 322.019H405.056C437.62 322.019 464.263 295.376 464.263 262.811V114.793C464.263 82.2289 437.62 55.5859 405.056 55.5859Z" fill="#4F27AA" stroke="#4F27AA" stroke-width="31" stroke-linecap="round" stroke-linejoin="round"/>
<path d="M730.696 300.008H553.074M730.696 197.404H553.074M730.696 94.8008H553.074M730.696 505.215H197.83M730.696 402.611H197.83" stroke="#4F27AA" stroke-width="31" stroke-linecap="round" stroke-linejoin="round"/>
<path d="M310.325 144.402L357.691 188.807L310.325 233.213" stroke="white" stroke-width="31" stroke-linecap="round" stroke-linejoin="round"/>
</g>
<defs>
<linearGradient id="paint0_linear_1235_28609" x1="481.898" y1="857.233" x2="471.255" y2="-516.304" gradientUnits="userSpaceOnUse">
<stop stop-color="white"/>
<stop offset="1" stop-color="#EEEEEE"/>
</linearGradient>
<linearGradient id="paint1_linear_1235_28609" x1="800.214" y1="376.488" x2="895.418" y2="301.181" gradientUnits="userSpaceOnUse">
<stop stop-color="white"/>
<stop offset="1" stop-color="#EEEEEE"/>
</linearGradient>
<linearGradient id="paint2_linear_1235_28609" x1="130.49" y1="389.395" x2="-5.131" y2="263.385" gradientUnits="userSpaceOnUse">
<stop stop-color="white"/>
<stop offset="1" stop-color="#EEEEEE"/>
</linearGradient>
<clipPath id="clip0_1235_28609">
<rect width="900" height="600" fill="white"/>
</clipPath>
</defs>
</svg>
