<svg width="900" height="600" viewBox="0 0 900 600" fill="none" xmlns="http://www.w3.org/2000/svg">
<g clip-path="url(#clip0_1235_28629)">
<path d="M835.265 305.351C808.576 318.59 773.153 301.567 773.153 301.567C773.153 301.567 781.025 263.086 807.729 249.865C834.418 236.626 869.827 253.631 869.827 253.631C869.827 253.631 861.954 292.112 835.265 305.351Z" fill="url(#paint0_linear_1235_28629)"/>
<path d="M78.5751 378.482C113.448 399.383 163.479 380.062 163.479 380.062C163.479 380.062 156.937 326.862 122.043 305.986C87.1711 285.085 37.1611 304.382 37.1611 304.382C37.1611 304.382 43.7031 357.582 78.5751 378.482Z" fill="url(#paint1_linear_1235_28629)"/>
<path d="M784.168 178.436C776.12 178.436 769.595 184.961 769.595 193.009C769.595 201.057 776.12 207.582 784.168 207.582C792.217 207.582 798.741 201.057 798.741 193.009C798.741 184.961 792.217 178.436 784.168 178.436Z" fill="#4F27AA"/>
<path d="M482.97 49.7784C473.916 49.7784 466.576 57.1183 466.576 66.1724C466.576 75.2266 473.916 82.5664 482.97 82.5664C492.024 82.5664 499.364 75.2266 499.364 66.1724C499.364 57.1183 492.024 49.7784 482.97 49.7784Z" fill="#4F27AA"/>
<path d="M125.46 192.855C117.915 192.855 111.798 186.739 111.798 179.193C111.798 171.648 117.915 165.531 125.46 165.531C133.005 165.531 139.122 171.648 139.122 179.193C139.122 186.739 133.005 192.855 125.46 192.855Z" fill="#4F27AA"/>
<path d="M659.188 256.611C655.667 256.611 652.812 253.757 652.812 250.235C652.812 246.714 655.667 243.859 659.188 243.859C662.709 243.859 665.564 246.714 665.564 250.235C665.564 253.757 662.709 256.611 659.188 256.611Z" fill="#4F27AA"/>
<path d="M695.983 542.917C691.456 542.917 687.786 539.248 687.786 534.72C687.786 530.193 691.456 526.523 695.983 526.523C700.51 526.523 704.18 530.193 704.18 534.72C704.18 539.248 700.51 542.917 695.983 542.917Z" fill="#E1E4E5"/>
<path d="M123.016 461.446C116.477 461.446 111.176 456.145 111.176 449.606C111.176 443.067 116.477 437.766 123.016 437.766C129.555 437.766 134.856 443.067 134.856 449.606C134.856 456.145 129.555 461.446 123.016 461.446Z" fill="#E1E4E5"/>
<path d="M306.285 176.376C301.308 176.376 297.273 172.341 297.273 167.364C297.273 162.386 301.308 158.352 306.285 158.352C311.262 158.352 315.297 162.386 315.297 167.364C315.297 172.341 311.262 176.376 306.285 176.376Z" fill="#E1E4E5"/>
<path d="M741.487 134.972C735.954 134.972 731.468 130.486 731.468 124.953C731.468 119.419 735.954 114.934 741.487 114.934C747.02 114.934 751.506 119.419 751.506 124.953C751.506 130.486 747.02 134.972 741.487 134.972Z" fill="#E1E4E5"/>
<path d="M184.498 111.373C185.784 116.173 182.935 121.106 178.136 122.392C173.336 123.678 168.403 120.83 167.117 116.03C165.831 111.231 168.679 106.297 173.479 105.011C178.278 103.725 183.212 106.573 184.498 111.373Z" fill="#E1E4E5"/>
<path d="M417.544 82.7153C410.934 82.7153 405.575 77.3566 405.575 70.7463C405.575 64.136 410.934 58.7773 417.544 58.7773C424.154 58.7773 429.513 64.136 429.513 70.7463C429.513 77.3566 424.154 82.7153 417.544 82.7153Z" fill="#E1E4E5"/>
<path d="M760.288 384.773C755.203 384.773 751.081 381.476 751.081 377.408C751.081 373.34 755.203 370.043 760.288 370.043C765.373 370.043 769.495 373.34 769.495 377.408C769.495 381.476 765.373 384.773 760.288 384.773Z" fill="#E1E4E5"/>
<path d="M696.781 55.0851C699.457 65.0738 693.53 75.3408 683.541 78.0173C673.552 80.6937 663.285 74.766 660.609 64.7774C657.932 54.7888 663.86 44.5217 673.849 41.8453C683.837 39.1688 694.104 45.0965 696.781 55.0851Z" fill="#E1E4E5"/>
<path d="M747.917 457.836H748.157C749.584 478.044 764.612 478.355 764.612 478.355C764.612 478.355 748.04 478.679 748.04 502.029C748.04 478.679 731.468 478.355 731.468 478.355C731.468 478.355 746.49 478.044 747.917 457.836ZM224.772 522.997H224.986C226.251 541.286 239.586 541.568 239.586 541.568C239.586 541.568 224.881 541.86 224.881 562.993C224.881 541.86 210.177 541.568 210.177 541.568C210.177 541.568 223.506 541.286 224.772 522.997Z" fill="#E1E4E5"/>
<path d="M557.441 521.993C585.357 512.155 610.832 497.176 632.785 478.204C644.806 467.827 642.388 448.433 628.653 440.474L561.949 401.968C546.288 392.929 526.707 404.222 526.707 422.324V499.57C526.707 515.513 542.391 527.299 557.441 521.993V521.993ZM343.086 78.4765C315.146 88.2905 289.672 103.293 267.719 122.264C255.697 132.642 258.116 152.035 271.874 159.971L338.578 198.477C354.215 207.54 373.797 196.223 373.797 178.144V100.898C373.797 84.9565 358.113 73.1695 343.086 78.4765V78.4765ZM710.617 343.812C716.064 314.721 715.806 285.161 710.359 256.658C707.377 241.044 689.369 233.437 675.61 241.396L608.906 279.902C593.246 288.941 593.246 311.552 608.906 320.591L675.798 359.214C689.627 367.173 707.682 359.472 710.617 343.812V343.812ZM189.883 256.666C184.436 285.757 184.694 315.317 190.141 343.82C193.123 359.434 211.132 367.041 224.89 359.082L291.594 320.576C307.255 311.537 307.255 288.926 291.594 279.887L224.679 241.264C210.873 233.304 192.818 241.006 189.883 256.666ZM632.902 122.033C610.433 102.756 584.7 88.1995 557.3 78.6675C542.297 73.4555 526.707 85.2415 526.707 101.113V178.124C526.707 196.203 546.288 207.52 561.949 198.48L628.841 159.857C642.646 151.898 644.994 132.41 632.902 122.033V122.033ZM267.601 478.446C290.07 497.722 315.803 512.279 343.203 521.812C358.206 527.024 373.796 515.238 373.796 499.366V422.355C373.796 404.276 354.215 392.959 338.554 401.998L271.663 440.621C257.857 448.581 255.509 468.068 267.601 478.446V478.446Z" stroke="#E1E4E5" stroke-width="4" stroke-linecap="round" stroke-linejoin="round"/>
<path fill-rule="evenodd" clip-rule="evenodd" d="M580.645 169.35C652.809 241.514 652.809 358.516 580.645 430.679C508.481 502.844 391.48 502.844 319.316 430.679C247.152 358.515 247.152 241.514 319.316 169.35C391.48 97.1856 508.481 97.1856 580.645 169.35Z" fill="#4F27AA"/>
<path d="M580.645 169.35C652.809 241.514 652.809 358.516 580.645 430.679C508.481 502.844 391.48 502.844 319.316 430.679C247.152 358.515 247.152 241.514 319.316 169.35C391.48 97.1856 508.481 97.1856 580.645 169.35" stroke="#4F27AA" stroke-width="28.833" stroke-linecap="round" stroke-linejoin="round"/>
<path d="M491 338.5H409" stroke="white" stroke-width="31" stroke-linecap="round" stroke-linejoin="round"/>
<path d="M405.613 335.358C382.815 319.196 369.158 290.967 373.958 259.891C379.172 226.297 407.053 199.491 440.694 195.549C487.381 190.052 527 226.538 527 272.286C527 298.369 514.085 321.386 494.363 335.38C490.828 337.898 488.494 341.774 488.494 346.132V381.785C488.494 399.568 474.139 414 456.402 414H443.574C425.859 414 411.482 399.59 411.482 381.785V346.198C411.504 341.796 409.169 337.898 405.613 335.358V335.358Z" stroke="white" stroke-width="31" stroke-linecap="round" stroke-linejoin="round"/>
</g>
<defs>
<linearGradient id="paint0_linear_1235_28629" x1="732.776" y1="346.648" x2="952.909" y2="172.522" gradientUnits="userSpaceOnUse">
<stop stop-color="white"/>
<stop offset="1" stop-color="#EEEEEE"/>
</linearGradient>
<linearGradient id="paint1_linear_1235_28629" x1="213.522" y1="445.76" x2="-67.0739" y2="185.049" gradientUnits="userSpaceOnUse">
<stop stop-color="white"/>
<stop offset="1" stop-color="#EEEEEE"/>
</linearGradient>
<clipPath id="clip0_1235_28629">
<rect width="900" height="600" fill="white"/>
</clipPath>
</defs>
</svg>
