<svg width="900" height="600" viewBox="0 0 900 600" fill="none" xmlns="http://www.w3.org/2000/svg">
<g clip-path="url(#clip0_1235_28651)">
<path d="M834.942 275.117C808.309 288.328 772.961 271.341 772.961 271.341C772.961 271.341 780.817 232.942 807.464 219.749C834.096 206.538 869.43 223.507 869.43 223.507C869.43 223.507 861.574 261.906 834.942 275.117Z" fill="url(#paint0_linear_1235_28651)"/>
<path d="M78.4471 371.671C113.245 392.527 163.169 373.247 163.169 373.247C163.169 373.247 156.642 320.16 121.822 299.328C87.0241 278.472 37.1201 297.728 37.1201 297.728C37.1201 297.728 43.6481 350.814 78.4471 371.671Z" fill="url(#paint1_linear_1235_28651)"/>
<path d="M782.54 172.049C774.509 172.049 767.998 178.559 767.998 186.591C767.998 194.622 774.509 201.133 782.54 201.133C790.571 201.133 797.082 194.622 797.082 186.591C797.082 178.559 790.571 172.049 782.54 172.049Z" fill="#4F27AA"/>
<path d="M125.231 186.438C117.701 186.438 111.598 180.334 111.598 172.805C111.598 165.276 117.701 159.172 125.231 159.172C132.76 159.172 138.864 165.276 138.864 172.805C138.864 180.334 132.76 186.438 125.231 186.438Z" fill="#4F27AA"/>
<path d="M583.514 540.619C580 540.619 577.152 537.77 577.152 534.257C577.152 530.743 580 527.895 583.514 527.895C587.028 527.895 589.876 530.743 589.876 534.257C589.876 537.77 587.028 540.619 583.514 540.619Z" fill="#4F27AA"/>
<path d="M694.542 535.755C690.024 535.755 686.362 532.092 686.362 527.575C686.362 523.057 690.024 519.395 694.542 519.395C699.06 519.395 702.722 523.057 702.722 527.575C702.722 532.092 699.06 535.755 694.542 535.755Z" fill="#E1E4E5"/>
<path d="M122.793 454.454C116.268 454.454 110.978 449.164 110.978 442.639C110.978 436.114 116.268 430.824 122.793 430.824C129.318 430.824 134.608 436.114 134.608 442.639C134.608 449.164 129.318 454.454 122.793 454.454Z" fill="#E1E4E5"/>
<path d="M719.149 148.891C713.627 148.891 709.151 144.414 709.151 138.893C709.151 133.371 713.627 128.895 719.149 128.895C724.671 128.895 729.147 133.371 729.147 138.893C729.147 144.414 724.671 148.891 719.149 148.891Z" fill="#E1E4E5"/>
<path d="M158.536 253.548C159.82 258.338 156.978 263.261 152.188 264.544C147.399 265.827 142.476 262.985 141.192 258.196C139.909 253.406 142.751 248.483 147.541 247.2C152.33 245.916 157.253 248.759 158.536 253.548Z" fill="#E1E4E5"/>
<path d="M758.711 377.946C753.637 377.946 749.524 374.655 749.524 370.596C749.524 366.537 753.637 363.246 758.711 363.246C763.785 363.246 767.898 366.537 767.898 370.596C767.898 374.655 763.785 377.946 758.711 377.946Z" fill="#E1E4E5"/>
<path d="M676.687 62.0477C679.358 72.015 673.443 82.2601 663.475 84.9308C653.508 87.6015 643.263 81.6865 640.592 71.7192C637.921 61.752 643.836 51.5068 653.804 48.8361C663.771 46.1654 674.016 52.0804 676.687 62.0477Z" fill="#E1E4E5"/>
<path d="M828.381 319.836H828.622C830.045 340.001 845.042 340.312 845.042 340.312C845.042 340.312 828.505 340.635 828.505 363.935C828.505 340.635 811.968 340.312 811.968 340.312C811.968 340.312 826.958 340.001 828.381 319.836ZM224.332 515.874H224.546C225.809 534.124 239.115 534.405 239.115 534.405C239.115 534.405 224.442 534.697 224.442 555.785C224.442 534.697 209.768 534.405 209.768 534.405C209.768 534.405 223.07 534.124 224.332 515.874Z" fill="#E1E4E5"/>
<path fill-rule="evenodd" clip-rule="evenodd" d="M532.377 469.412C483.775 504.633 442.553 525.754 440.753 525.754C436.252 525.754 187.152 395.849 187.152 237.202C187.152 158.869 247.184 74.8945 336.498 74.8945C387.77 74.8945 421.312 100.546 440.753 123.077C460.194 100.546 493.735 74.8945 545.007 74.8945C634.321 74.8945 694.353 158.869 694.353 237.202C694.353 253.703 691.143 269.783 686.283 285.534" fill="#4F27AA"/>
<path d="M532.377 469.412C483.775 504.633 442.553 525.754 440.753 525.754C436.252 525.754 187.152 395.849 187.152 237.202C187.152 158.869 247.184 74.8945 336.498 74.8945C387.77 74.8945 421.312 100.546 440.753 123.077C460.194 100.546 493.735 74.8945 545.007 74.8945C634.321 74.8945 694.353 158.869 694.353 237.202C694.353 253.703 691.143 269.783 686.283 285.534" stroke="#4F27AA" stroke-width="31" stroke-linecap="round" stroke-linejoin="round"/>
<path fill-rule="evenodd" clip-rule="evenodd" d="M692.013 290.903C738.875 337.765 738.875 413.759 692.013 460.621C645.151 507.483 569.158 507.483 522.296 460.621C475.434 413.759 475.434 337.765 522.296 290.903C569.188 244.011 645.151 244.011 692.013 290.903Z" fill="#4F27AA"/>
<path d="M692.013 290.903C738.875 337.765 738.875 413.759 692.013 460.621C645.151 507.483 569.158 507.483 522.296 460.621C475.434 413.759 475.434 337.765 522.296 290.903C569.188 244.011 645.151 244.011 692.013 290.903Z" stroke="white" stroke-width="31" stroke-linecap="round" stroke-linejoin="round"/>
<path d="M729.36 287.999C720.324 287.999 713 295.323 713 304.359C713 313.394 720.324 320.719 729.36 320.719C738.395 320.719 745.72 313.394 745.72 304.359C745.72 295.323 738.395 287.999 729.36 287.999Z" fill="#4F27AA"/>
<path d="M647.072 375.624H567.269M607.17 415.526V335.723" stroke="white" stroke-width="31" stroke-linecap="round" stroke-linejoin="round"/>
<path d="M180.393 509.806C176.394 509.806 173.152 506.564 173.152 502.565C173.152 498.566 176.394 495.324 180.393 495.324C184.392 495.324 187.634 498.566 187.634 502.565C187.634 506.564 184.392 509.806 180.393 509.806Z" fill="#E1E4E5"/>
</g>
<defs>
<linearGradient id="paint0_linear_1235_28651" x1="732.67" y1="316.326" x2="952.335" y2="142.57" gradientUnits="userSpaceOnUse">
<stop stop-color="white"/>
<stop offset="1" stop-color="#EEEEEE"/>
</linearGradient>
<linearGradient id="paint1_linear_1235_28651" x1="213.107" y1="438.805" x2="-66.8929" y2="178.648" gradientUnits="userSpaceOnUse">
<stop stop-color="white"/>
<stop offset="1" stop-color="#EEEEEE"/>
</linearGradient>
<clipPath id="clip0_1235_28651">
<rect width="900" height="600" fill="white"/>
</clipPath>
</defs>
</svg>
