<svg width="900" height="600" viewBox="0 0 900 600" fill="none" xmlns="http://www.w3.org/2000/svg">
<g clip-path="url(#clip0_1235_17875)">
<path d="M719.09 254.716C735.568 200.389 648.082 165.865 648.082 165.865C648.082 165.865 543.997 213.872 527.299 206.123C510.601 198.374 608.281 147.696 608.281 147.696C580.09 126.029 480.62 114.973 480.62 114.973C480.62 114.973 426.13 212.851 411.853 201.229C397.575 189.608 464.524 117.02 464.524 117.02C430.041 107.571 381.747 124.499 381.747 124.499C313.362 158.475 360.521 244.538 360.521 244.538C360.521 244.538 340.907 278.053 296.968 303.081C296.968 303.081 288.025 307.183 275.951 316.114L283.864 321.066C285.79 319.382 287.789 317.781 289.854 316.27C289.865 316.257 289.88 316.247 289.896 316.242C289.93 316.221 289.951 316.2 289.986 316.179C291.802 314.951 293.627 313.736 295.46 312.533L295.467 312.526L295.474 312.519C300.854 309.291 304.68 306.823 307.285 304.945L307.305 304.924C323.851 294.592 346.4 281.759 355.901 282.056C355.901 282.056 355.794 280.276 356.474 277.365C356.295 278.861 356.094 280.42 355.901 282.056C351.288 319.566 416.017 366.785 458.609 382.651C501.2 398.517 491.408 377.58 481.887 347.587C472.366 317.593 426.932 295.51 418.592 280.866C410.251 266.223 432.872 270.949 456.835 288.626C480.784 306.302 477.635 339.34 515.861 368.638C554.088 397.937 632.893 340.843 632.893 340.843C599.373 332.001 558.73 285.023 562.845 274.138C566.967 263.246 640.891 310.833 654.316 315.191C667.762 319.557 702.612 309.043 719.09 254.716Z" fill="url(#paint0_linear_1235_17875)"/>
<path d="M248.409 206.096C248.409 185.329 265.244 168.494 286.012 168.494H582.653C603.42 168.494 620.255 185.329 620.255 206.096V436.933C620.255 457.701 603.42 474.536 582.653 474.536H286.012C265.244 474.536 248.409 457.701 248.409 436.933V206.096Z" fill="#4F27AA"/>
<path d="M291.756 207.141C296.083 207.141 299.59 203.633 299.59 199.307C299.59 194.98 296.083 191.473 291.756 191.473C287.429 191.473 283.922 194.98 283.922 199.307C283.922 203.633 287.429 207.141 291.756 207.141Z" fill="white"/>
<path d="M318.914 207.141C323.241 207.141 326.748 203.633 326.748 199.307C326.748 194.98 323.241 191.473 318.914 191.473C314.587 191.473 311.08 194.98 311.08 199.307C311.08 203.633 314.587 207.141 318.914 207.141Z" fill="white"/>
<path d="M346.071 207.141C350.398 207.141 353.905 203.633 353.905 199.307C353.905 194.98 350.398 191.473 346.071 191.473C341.744 191.473 338.237 194.98 338.237 199.307C338.237 203.633 341.744 207.141 346.071 207.141Z" fill="white"/>
<path d="M529.383 376.352H292.279C287.664 376.352 283.923 380.093 283.923 384.708C283.923 389.322 287.664 393.064 292.279 393.064H529.383C533.998 393.064 537.739 389.322 537.739 384.708C537.739 380.093 533.998 376.352 529.383 376.352Z" fill="white"/>
<path d="M511.105 327.26H292.801C287.898 327.26 283.923 331.235 283.923 336.138V336.139C283.923 341.042 287.898 345.017 292.801 345.017H511.105C516.008 345.017 519.983 341.042 519.983 336.139V336.138C519.983 331.235 516.008 327.26 511.105 327.26Z" fill="white"/>
<path d="M540.873 277.123H292.279C287.664 277.123 283.923 280.864 283.923 285.479C283.923 290.094 287.664 293.835 292.279 293.835H540.873C545.488 293.835 549.229 290.094 549.229 285.479C549.229 280.864 545.488 277.123 540.873 277.123Z" fill="white"/>
<path d="M184.149 528.779C183.326 526.548 197.684 469.205 199.602 467.273C201.525 465.35 263.476 464.157 263.476 464.157C263.476 464.157 291.391 437.847 314.473 425.111C323.576 420.08 335.721 417.063 337.265 421.674C338.224 424.531 334.006 430.058 328.643 435.628C328.631 435.646 328.612 435.662 328.594 435.678C321.128 443.425 311.488 451.22 310.581 451.952C310.53 451.987 310.511 452.003 310.511 452.003C310.511 452.003 361.439 452.741 368.975 453.373C376.515 453.992 386.455 454.426 386.652 459.651C386.837 464.452 373.299 466.388 372.494 466.502C373.334 466.495 391.054 466.387 391.847 473.222C392.435 478.306 373.034 482.427 372.461 482.54C372.918 482.544 381.624 482.592 381.454 486.667C381.172 493.367 361.512 495.906 360.709 496.013C361.136 496.023 368.128 496.242 367.653 499.906C366.475 508.98 299.057 516.942 278.613 518.787C258.15 520.62 184.979 531.013 184.149 528.779Z" fill="#F8AE9D"/>
<path d="M653.68 405.598H723.662V474.536H653.68V405.598Z" fill="url(#paint1_linear_1235_17875)"/>
<path d="M730.974 387.842H681.882C676.113 387.842 671.437 392.518 671.437 398.287V446.335C671.437 452.103 676.113 456.78 681.882 456.78H730.974C736.743 456.78 741.419 452.103 741.419 446.335V398.287C741.419 392.518 736.743 387.842 730.974 387.842Z" fill="#4F27AA"/>
<path d="M723.171 199.325L713.652 189.806C709.573 185.727 702.959 185.727 698.88 189.806L689.361 199.325C685.282 203.404 685.282 210.017 689.361 214.096L698.88 223.615C702.959 227.694 709.573 227.694 713.652 223.615L723.171 214.096C727.25 210.017 727.25 203.404 723.171 199.325Z" fill="#4F27AA"/>
<path d="M661.514 231.164C665.841 231.164 669.348 234.671 669.348 238.998C669.348 243.325 665.841 246.832 661.514 246.832C657.187 246.832 653.68 243.325 653.68 238.998C653.68 234.671 657.187 231.164 661.514 231.164Z" fill="#E1E4E5"/>
<path d="M207.56 423.953C207.56 423.953 221.247 360.509 202.612 313.478C200.137 307.229 191.158 307.597 189.102 314.012C189.068 314.118 189.032 314.228 188.999 314.34C185.672 325.35 204.77 383.147 207.56 423.953ZM200.794 442.7C200.794 442.7 195.947 355.889 154.533 304.056C152.009 300.896 147.377 300.146 144.122 302.567C142.005 304.146 140.265 307.146 140.12 312.712C139.74 327.562 183.341 392.896 200.794 442.7Z" fill="#4F27AA"/>
<path d="M176.86 285.478L163.804 272.944L176.86 260.41L189.917 272.944L176.86 285.478ZM668.825 366.95L655.769 353.894L668.825 340.837L681.882 353.894L668.825 366.95Z" stroke="#E1E4E5" stroke-width="5.313" stroke-linecap="round" stroke-linejoin="round"/>
<path d="M319.869 131.248C315.521 137.577 318.577 147.233 318.577 147.233C318.577 147.233 328.681 146.623 333.025 140.29C337.373 133.962 334.321 124.309 334.321 124.309C334.321 124.309 324.217 124.92 319.869 131.248Z" fill="#E1E4E5"/>
<path d="M769.147 340.328C748.522 361.321 709.954 356.895 709.954 356.895C709.954 356.895 704.85 318.433 725.494 297.454C746.119 276.462 784.669 280.875 784.669 280.875C784.669 280.875 789.773 319.336 769.147 340.328Z" fill="url(#paint2_linear_1235_17875)"/>
<path d="M654.247 138.617C647.992 144.984 636.294 143.641 636.294 143.641C636.294 143.641 634.746 131.976 641.007 125.612C647.263 119.245 658.955 120.584 658.955 120.584C658.955 120.584 660.503 132.25 654.247 138.617Z" fill="url(#paint3_linear_1235_17875)"/>
<path d="M224.827 218.316C234.007 234.533 229.651 259.107 229.651 259.107C229.651 259.107 203.381 251.88 194.2 235.662C185.02 219.445 184.433 202.422 192.884 197.628C201.348 192.83 215.647 202.099 224.827 218.316Z" fill="url(#paint4_linear_1235_17875)"/>
<path d="M696.108 272.945H695.857C694.374 293.961 678.748 294.284 678.748 294.284C678.748 294.284 695.979 294.621 695.979 318.904C695.979 294.621 713.211 294.284 713.211 294.284C713.211 294.284 697.591 293.961 696.108 272.945Z" fill="#E1E4E5"/>
</g>
<defs>
<linearGradient id="paint0_linear_1235_17875" x1="199.058" y1="541.055" x2="919.128" y2="-168.449" gradientUnits="userSpaceOnUse">
<stop stop-color="white"/>
<stop offset="1" stop-color="#EEEEEE"/>
</linearGradient>
<linearGradient id="paint1_linear_1235_17875" x1="690.163" y1="513.186" x2="688.069" y2="330.605" gradientUnits="userSpaceOnUse">
<stop stop-color="white"/>
<stop offset="1" stop-color="#EEEEEE"/>
</linearGradient>
<linearGradient id="paint2_linear_1235_17875" x1="686.857" y1="412.033" x2="835.965" y2="178.293" gradientUnits="userSpaceOnUse">
<stop stop-color="white"/>
<stop offset="1" stop-color="#EEEEEE"/>
</linearGradient>
<linearGradient id="paint3_linear_1235_17875" x1="629.288" y1="160.365" x2="674.514" y2="89.4702" gradientUnits="userSpaceOnUse">
<stop stop-color="white"/>
<stop offset="1" stop-color="#EEEEEE"/>
</linearGradient>
<linearGradient id="paint4_linear_1235_17875" x1="247.335" y1="217.019" x2="152.186" y2="243.154" gradientUnits="userSpaceOnUse">
<stop stop-color="white"/>
<stop offset="1" stop-color="#EEEEEE"/>
</linearGradient>
<clipPath id="clip0_1235_17875">
<rect width="900" height="600" fill="white"/>
</clipPath>
</defs>
</svg>
