<svg width="900" height="600" viewBox="0 0 900 600" fill="none" xmlns="http://www.w3.org/2000/svg">
<g clip-path="url(#clip0_1235_28672)">
<path d="M687.978 350.594C663.672 362.651 631.412 347.148 631.412 347.148C631.412 347.148 638.582 312.103 662.901 300.063C687.207 288.006 719.454 303.492 719.454 303.492C719.454 303.492 712.284 338.537 687.978 350.594Z" fill="url(#paint0_linear_1235_28672)"/>
<path d="M128.858 486.312C160.617 505.346 206.18 487.75 206.18 487.75C206.18 487.75 200.223 439.302 168.445 420.289C136.687 401.255 91.1431 418.829 91.1431 418.829C91.1431 418.829 97.1001 467.278 128.858 486.312Z" fill="url(#paint1_linear_1235_28672)"/>
<path d="M345.738 165.251C338.408 165.251 332.467 171.193 332.467 178.522C332.467 185.851 338.408 191.793 345.738 191.793C353.067 191.793 359.009 185.851 359.009 178.522C359.009 171.193 353.067 165.251 345.738 165.251Z" fill="#4F27AA"/>
<path d="M268.385 250.15C260.139 250.15 253.454 256.835 253.454 265.081C253.454 273.327 260.139 280.012 268.385 280.012C276.631 280.012 283.316 273.327 283.316 265.081C283.316 256.835 276.631 250.15 268.385 250.15Z" fill="#4F27AA"/>
<path d="M654.428 247.831C651.221 247.831 648.622 245.231 648.622 242.025C648.622 238.818 651.221 236.219 654.428 236.219C657.634 236.219 660.234 238.818 660.234 242.025C660.234 245.231 657.634 247.831 654.428 247.831Z" fill="#4F27AA"/>
<path d="M577.392 505.149C573.269 505.149 569.927 501.807 569.927 497.684C569.927 493.561 573.269 490.219 577.392 490.219C581.515 490.219 584.857 493.561 584.857 497.684C584.857 501.807 581.515 505.149 577.392 505.149Z" fill="#E1E4E5"/>
<path d="M166.134 434.375C160.179 434.375 155.351 429.547 155.351 423.592C155.351 417.636 160.179 412.809 166.134 412.809C172.089 412.809 176.917 417.636 176.917 423.592C176.917 429.547 172.089 434.375 166.134 434.375Z" fill="#E1E4E5"/>
<path d="M337.246 311.234C332.714 311.234 329.039 307.56 329.039 303.027C329.039 298.495 332.714 294.82 337.246 294.82C341.779 294.82 345.453 298.495 345.453 303.027C345.453 307.56 341.779 311.234 337.246 311.234Z" fill="#E1E4E5"/>
<path d="M780.653 151.787C775.614 151.787 771.529 147.702 771.529 142.663C771.529 137.624 775.614 133.539 780.653 133.539C785.692 133.539 789.777 137.624 789.777 142.663C789.777 147.702 785.692 151.787 780.653 151.787Z" fill="#E1E4E5"/>
<path d="M338.717 234.501C339.888 238.872 337.294 243.364 332.923 244.535C328.553 245.706 324.06 243.113 322.889 238.742C321.718 234.371 324.312 229.879 328.682 228.708C333.053 227.536 337.546 230.13 338.717 234.501Z" fill="#E1E4E5"/>
<path d="M421.18 95.8C415.16 95.8 410.28 90.9199 410.28 84.9C410.28 78.8801 415.16 74 421.18 74C427.2 74 432.08 78.8801 432.08 84.9C432.08 90.9199 427.2 95.8 421.18 95.8Z" fill="#E1E4E5"/>
<path d="M746.5 364.549C741.869 364.549 738.115 361.546 738.115 357.841C738.115 354.136 741.869 351.133 746.5 351.133C751.131 351.133 754.885 354.136 754.885 357.841C754.885 361.546 751.131 364.549 746.5 364.549Z" fill="#E1E4E5"/>
<path d="M580.401 203.769C582.839 212.866 577.44 222.216 568.344 224.654C559.247 227.091 549.897 221.693 547.459 212.596C545.022 203.499 550.42 194.149 559.517 191.712C568.614 189.274 577.964 194.673 580.401 203.769Z" fill="#E1E4E5"/>
<path d="M810.084 311.516H810.304C811.603 329.919 825.289 330.202 825.289 330.202C825.289 330.202 810.197 330.497 810.197 351.762C810.197 330.497 795.105 330.202 795.105 330.202C795.105 330.202 808.785 329.919 810.084 311.516ZM322.687 478.846H322.882C324.034 495.502 336.179 495.759 336.179 495.759C336.179 495.759 322.787 496.025 322.787 515.271C322.787 496.025 309.395 495.759 309.395 495.759C309.395 495.759 321.535 495.502 322.687 478.846Z" fill="#E1E4E5"/>
<path fill-rule="evenodd" clip-rule="evenodd" d="M238.175 224.52H124.221C84.887 224.52 53 256.407 53 295.741V409.695C53 449.029 84.887 480.916 124.221 480.916H238.175C277.509 480.916 309.396 449.029 309.396 409.695V295.741C309.396 256.407 277.509 224.52 238.175 224.52Z" fill="#4F27AA"/>
<path d="M138.465 388.324C158.132 388.324 174.076 372.38 174.076 352.713C174.076 333.045 158.132 317.102 138.465 317.102C118.798 317.102 102.854 333.045 102.854 352.713C102.854 372.38 118.798 388.324 138.465 388.324Z" stroke="white" stroke-width="31" stroke-linecap="round" stroke-linejoin="round"/>
<path d="M174.074 352.711H252.417V384.76" stroke="white" stroke-width="31" stroke-linecap="round" stroke-linejoin="round"/>
<path fill-rule="evenodd" clip-rule="evenodd" d="M661.825 224.52H775.779C815.113 224.52 847 256.407 847 295.741V409.695C847 449.029 815.113 480.916 775.779 480.916H661.825C622.491 480.916 590.604 449.029 590.604 409.695V295.741C590.604 256.407 622.491 224.52 661.825 224.52Z" fill="#4F27AA"/>
<path d="M761.535 388.324C741.868 388.324 725.924 372.38 725.924 352.713C725.924 333.045 741.868 317.102 761.535 317.102C781.202 317.102 797.146 333.045 797.146 352.713C797.146 372.38 781.202 388.324 761.535 388.324Z" stroke="white" stroke-width="31" stroke-linecap="round" stroke-linejoin="round"/>
<path d="M725.926 352.711H647.583V384.76" stroke="white" stroke-width="31" stroke-linecap="round" stroke-linejoin="round"/>
<path d="M367.995 328.781H542.665V460.892H367.995V328.781Z" fill="#4F27AA"/>
<path fill-rule="evenodd" clip-rule="evenodd" d="M455.773 332.401C433.901 332.401 414.417 333.198 398.499 334.21C383.4 335.17 371.79 346.69 370.706 361.682C369.935 372.347 369.399 383.585 369.399 394.097C369.399 404.61 369.935 415.847 370.706 426.513C371.79 441.505 383.4 453.025 398.499 453.985C417.567 455.191 436.668 455.794 455.773 455.793C477.645 455.793 497.128 454.997 513.047 453.985C528.146 453.025 539.756 441.505 540.839 426.512C541.61 415.847 542.147 404.61 542.147 394.097C542.147 383.585 541.61 372.347 540.839 361.682C539.756 346.69 528.146 335.17 513.047 334.21C493.98 333.004 474.879 332.401 455.773 332.401ZM396.934 309.581C369.568 311.321 348.069 332.554 346.092 359.903C345.294 370.942 344.72 382.806 344.72 394.097C344.72 405.388 345.294 417.253 346.092 428.292C348.069 455.641 369.568 476.874 396.934 478.613C416.523 479.853 436.146 480.473 455.773 480.472C478.237 480.472 498.247 479.654 514.612 478.613C541.977 476.874 563.477 455.641 565.454 428.292C566.251 417.253 566.825 405.388 566.825 394.097C566.825 382.806 566.251 370.942 565.454 359.903C563.477 332.554 541.977 311.321 514.612 309.581C475.425 307.103 436.121 307.103 396.934 309.581Z" fill="#4F27AA"/>
<path fill-rule="evenodd" clip-rule="evenodd" d="M468.112 403.137C475.488 398.87 480.451 390.894 480.451 381.76C480.451 368.13 469.402 357.082 455.773 357.082C442.143 357.082 431.094 368.13 431.094 381.76C431.094 390.894 436.057 398.87 443.433 403.137V418.777C443.433 425.592 448.958 431.117 455.773 431.117C462.587 431.117 468.112 425.592 468.112 418.777V403.137Z" fill="white"/>
<path fill-rule="evenodd" clip-rule="evenodd" d="M394.077 270.708C394.077 236.634 421.699 209.012 455.773 209.012C489.846 209.012 517.468 236.634 517.468 270.708V320.065C517.468 326.88 511.944 332.404 505.129 332.404C498.315 332.404 492.79 326.88 492.79 320.065V270.708C492.79 250.264 476.217 233.691 455.773 233.691C435.328 233.691 418.755 250.264 418.755 270.708V320.065C418.755 326.88 413.231 332.404 406.416 332.404C399.601 332.404 394.077 326.88 394.077 320.065V270.708Z" fill="#4F27AA"/>
<path fill-rule="evenodd" clip-rule="evenodd" d="M292.886 171.821H286.7C285.984 171.821 285.298 171.536 284.792 171.03C284.285 170.524 284.001 169.837 284 169.121V162.936C284 161.44 285.217 160.236 286.7 160.236H292.886C293.601 160.239 294.286 160.525 294.792 161.03C295.297 161.536 295.582 162.221 295.585 162.936V169.121C295.598 170.604 294.381 171.821 292.886 171.821ZM271.364 172.307H265.179C264.464 172.305 263.778 172.019 263.273 171.514C262.767 171.008 262.482 170.323 262.479 169.607V163.422C262.479 161.926 263.696 160.722 265.179 160.722H271.364C272.079 160.725 272.764 161.01 273.27 161.516C273.776 162.022 274.061 162.707 274.064 163.422V169.607C274.061 170.323 273.776 171.008 273.27 171.514C272.764 172.019 272.079 172.305 271.364 172.307ZM249.982 171.821H243.796C243.081 171.819 242.396 171.533 241.89 171.027C241.385 170.522 241.1 169.836 241.097 169.121V162.936C241.097 161.44 242.313 160.236 243.796 160.236H249.982C250.697 160.239 251.382 160.524 251.888 161.03C252.394 161.536 252.679 162.221 252.682 162.936V169.121C252.694 170.604 251.477 171.821 249.982 171.821ZM228.535 171.821H222.35C221.635 171.819 220.949 171.533 220.444 171.028C219.938 170.522 219.653 169.837 219.65 169.121V162.936C219.65 161.44 220.867 160.236 222.35 160.236H228.535C229.252 160.236 229.94 160.52 230.449 161.026C230.957 161.532 231.244 162.219 231.248 162.936V169.121C231.235 170.604 230.018 171.821 228.535 171.821ZM207.089 171.821H200.904C200.187 171.821 199.499 171.537 198.99 171.031C198.482 170.525 198.195 169.839 198.192 169.121V162.936C198.192 161.44 199.408 160.236 200.904 160.236H207.089C207.804 160.239 208.489 160.524 208.995 161.03C209.501 161.536 209.786 162.221 209.789 162.936V169.121C209.786 169.837 209.501 170.522 208.995 171.028C208.489 171.533 207.804 171.819 207.089 171.821ZM270.654 148.437H264.469C263.754 148.435 263.069 148.15 262.563 147.644C262.057 147.138 261.772 146.454 261.769 145.738V139.54C261.772 138.825 262.057 138.14 262.563 137.634C263.068 137.128 263.754 136.843 264.469 136.84H270.654C272.15 136.84 273.354 138.057 273.354 139.54V145.725C273.356 146.081 273.288 146.434 273.153 146.763C273.018 147.092 272.82 147.391 272.569 147.644C272.318 147.896 272.019 148.096 271.691 148.232C271.362 148.368 271.01 148.438 270.654 148.437ZM249.208 148.437H243.023C242.308 148.435 241.623 148.15 241.117 147.644C240.611 147.138 240.326 146.454 240.323 145.738V139.54C240.326 138.825 240.611 138.14 241.117 137.634C241.622 137.128 242.308 136.843 243.023 136.84H249.208C249.923 136.843 250.608 137.128 251.114 137.634C251.62 138.14 251.905 138.825 251.908 139.54V145.725C251.91 146.081 251.842 146.434 251.707 146.763C251.572 147.092 251.374 147.391 251.123 147.644C250.872 147.896 250.573 148.096 250.245 148.232C249.916 148.368 249.564 148.438 249.208 148.437ZM227.763 148.437H221.577C220.86 148.437 220.172 148.153 219.664 147.648C219.156 147.142 218.868 146.455 218.865 145.738V139.54C218.865 138.057 220.082 136.84 221.577 136.84H227.763C228.478 136.843 229.163 137.128 229.669 137.634C230.175 138.14 230.46 138.825 230.463 139.54V145.725C230.463 146.443 230.179 147.131 229.673 147.639C229.167 148.147 228.48 148.434 227.763 148.437ZM249.982 196.945H243.796C243.081 196.943 242.396 196.657 241.89 196.151C241.385 195.646 241.1 194.961 241.097 194.245V188.06C241.097 186.564 242.313 185.36 243.796 185.36H249.982C250.697 185.363 251.382 185.648 251.888 186.154C252.394 186.66 252.679 187.345 252.682 188.06V194.245C252.694 195.728 251.477 196.945 249.982 196.945ZM271.04 196.945H264.855C264.14 196.943 263.454 196.657 262.949 196.152C262.443 195.646 262.158 194.961 262.155 194.245V188.06C262.155 186.564 263.372 185.36 264.855 185.36H271.04C271.755 185.363 272.44 185.648 272.946 186.154C273.452 186.66 273.737 187.345 273.74 188.06V194.245C273.753 195.728 272.536 196.945 271.04 196.945ZM228.535 196.945H222.35C221.635 196.943 220.949 196.657 220.444 196.152C219.938 195.646 219.653 194.961 219.65 194.245V188.06C219.65 186.564 220.867 185.36 222.35 185.36H228.535C229.252 185.36 229.94 185.644 230.449 186.15C230.957 186.656 231.244 187.343 231.248 188.06V194.245C231.235 195.728 230.018 196.945 228.535 196.945ZM699.324 154.047H693.139C692.423 154.047 691.737 153.762 691.231 153.256C690.724 152.75 690.44 152.064 690.439 151.348V145.162C690.439 143.667 691.656 142.462 693.139 142.462H699.324C700.039 142.465 700.724 142.75 701.23 143.256C701.736 143.762 702.021 144.447 702.024 145.162V151.348C702.036 152.83 700.82 154.047 699.324 154.047ZM677.802 154.533H671.617C670.902 154.531 670.216 154.245 669.711 153.74C669.205 153.234 668.919 152.549 668.917 151.833V145.648C668.917 144.152 670.134 142.948 671.617 142.948H677.802C678.517 142.951 679.202 143.236 679.708 143.742C680.214 144.248 680.499 144.933 680.502 145.648V151.833C680.499 152.549 680.214 153.234 679.708 153.74C679.202 154.245 678.517 154.531 677.802 154.533ZM656.42 154.047H650.234C649.519 154.045 648.834 153.759 648.329 153.254C647.823 152.748 647.538 152.063 647.535 151.348V145.162C647.535 143.667 648.751 142.462 650.234 142.462H656.42C657.135 142.465 657.82 142.75 658.326 143.256C658.832 143.762 659.117 144.447 659.12 145.162V151.348C659.132 152.83 657.915 154.047 656.42 154.047ZM634.974 154.047H628.789C628.074 154.045 627.389 153.76 626.883 153.254C626.377 152.748 626.092 152.064 626.089 151.348V145.162C626.089 143.667 627.306 142.462 628.789 142.462H634.974C635.691 142.462 636.379 142.746 636.887 143.252C637.396 143.758 637.683 144.445 637.686 145.162V151.348C637.678 152.064 637.39 152.748 636.882 153.253C636.375 153.758 635.69 154.043 634.974 154.047ZM613.528 154.047H607.342C606.625 154.047 605.937 153.763 605.429 153.257C604.921 152.752 604.634 152.065 604.63 151.348V145.162C604.63 143.667 605.847 142.462 607.342 142.462H613.528C614.243 142.465 614.928 142.751 615.434 143.256C615.939 143.762 616.224 144.447 616.227 145.162V151.348C616.224 152.063 615.939 152.748 615.433 153.254C614.928 153.759 614.243 154.045 613.528 154.047ZM677.092 130.663H670.906C670.191 130.661 669.506 130.376 669 129.87C668.495 129.364 668.209 128.679 668.207 127.964V121.766C668.209 121.051 668.495 120.366 669 119.86C669.506 119.355 670.191 119.069 670.906 119.066H677.092C677.808 119.067 678.494 119.352 679 119.858C679.506 120.364 679.79 121.051 679.791 121.766V127.951C679.793 128.307 679.725 128.66 679.59 128.989C679.455 129.318 679.257 129.617 679.006 129.869C678.755 130.121 678.457 130.321 678.128 130.458C677.8 130.594 677.448 130.664 677.092 130.663ZM655.646 130.663H649.461C648.746 130.661 648.061 130.376 647.555 129.87C647.049 129.364 646.764 128.68 646.761 127.964V121.766C646.763 121.051 647.049 120.366 647.555 119.86C648.06 119.354 648.746 119.069 649.461 119.066H655.646C656.361 119.069 657.046 119.354 657.552 119.86C658.058 120.366 658.343 121.051 658.346 121.766V127.951C658.348 128.307 658.28 128.66 658.145 128.989C658.01 129.318 657.811 129.617 657.56 129.87C657.31 130.122 657.011 130.322 656.683 130.458C656.354 130.594 656.002 130.664 655.646 130.663ZM634.2 130.663H628.015C627.298 130.663 626.61 130.379 626.102 129.874C625.594 129.368 625.306 128.681 625.303 127.964V121.766C625.303 120.283 626.52 119.066 628.015 119.066H634.2C634.915 119.069 635.6 119.354 636.106 119.86C636.612 120.366 636.897 121.051 636.9 121.766V127.951C636.9 128.669 636.616 129.357 636.11 129.865C635.604 130.373 634.917 130.66 634.2 130.663ZM656.42 179.171H650.234C649.519 179.169 648.834 178.883 648.328 178.377C647.823 177.872 647.537 177.187 647.535 176.471V170.286C647.535 168.79 648.751 167.586 650.234 167.586H656.42C657.135 167.589 657.82 167.874 658.326 168.38C658.832 168.886 659.117 169.571 659.12 170.286V176.471C659.132 177.954 657.915 179.171 656.42 179.171ZM677.478 179.171H671.293C670.578 179.169 669.892 178.883 669.387 178.378C668.881 177.872 668.596 177.187 668.593 176.471V170.286C668.593 168.79 669.81 167.586 671.293 167.586H677.478C678.193 167.589 678.878 167.874 679.384 168.38C679.89 168.886 680.175 169.571 680.178 170.286V176.471C680.191 177.954 678.974 179.171 677.478 179.171ZM634.974 179.171H628.789C628.074 179.169 627.388 178.883 626.883 178.378C626.377 177.872 626.091 177.187 626.089 176.471V170.286C626.089 168.79 627.306 167.586 628.789 167.586H634.974C635.691 167.586 636.379 167.87 636.887 168.376C637.396 168.882 637.683 169.569 637.686 170.286V176.471C637.674 177.954 636.457 179.171 634.974 179.171Z" fill="#E1E4E5"/>
</g>
<defs>
<linearGradient id="paint0_linear_1235_28672" x1="594.641" y1="388.203" x2="795.117" y2="229.626" gradientUnits="userSpaceOnUse">
<stop stop-color="white"/>
<stop offset="1" stop-color="#EEEEEE"/>
</linearGradient>
<linearGradient id="paint1_linear_1235_28672" x1="251.755" y1="547.582" x2="-3.78396" y2="310.152" gradientUnits="userSpaceOnUse">
<stop stop-color="white"/>
<stop offset="1" stop-color="#EEEEEE"/>
</linearGradient>
<clipPath id="clip0_1235_28672">
<rect width="900" height="600" fill="white"/>
</clipPath>
</defs>
</svg>
