<svg width="900" height="600" viewBox="0 0 900 600" fill="none" xmlns="http://www.w3.org/2000/svg">
<g clip-path="url(#clip0_1235_28699)">
<path d="M792.262 319.12C773.299 328.527 748.131 316.432 748.131 316.432C748.131 316.432 753.724 289.091 772.697 279.698C791.66 270.291 816.818 282.373 816.818 282.373C816.818 282.373 811.225 309.714 792.262 319.12Z" fill="url(#paint0_linear_1235_28699)"/>
<path d="M161.306 352.214C179.987 363.41 206.789 353.06 206.789 353.06C206.789 353.06 203.284 324.561 184.592 313.377C165.911 302.181 139.12 312.518 139.12 312.518C139.12 312.518 142.625 341.017 161.306 352.214Z" fill="url(#paint1_linear_1235_28699)"/>
<path d="M677.444 253.892C670.737 253.892 665.3 259.329 665.3 266.036C665.3 272.743 670.737 278.18 677.444 278.18C684.151 278.18 689.588 272.743 689.588 266.036C689.588 259.329 684.151 253.892 677.444 253.892Z" fill="#4F27AA"/>
<path d="M715.84 435.077C706.435 435.077 698.81 442.701 698.81 452.107C698.81 461.512 706.435 469.137 715.84 469.137C725.245 469.137 732.87 461.512 732.87 452.107C732.87 442.701 725.245 435.077 715.84 435.077Z" fill="#4F27AA"/>
<path d="M112.423 244.433C104.586 244.433 98.232 238.079 98.232 230.242C98.232 222.404 104.586 216.051 112.423 216.051C120.26 216.051 126.614 222.404 126.614 230.242C126.614 238.079 120.26 244.433 112.423 244.433Z" fill="#4F27AA"/>
<path d="M696.135 326.281C692.477 326.281 689.512 323.316 689.512 319.658C689.512 316 692.477 313.035 696.135 313.035C699.793 313.035 702.758 316 702.758 319.658C702.758 323.316 699.793 326.281 696.135 326.281Z" fill="#4F27AA"/>
<path d="M516.472 553.046C511.769 553.046 507.957 549.233 507.957 544.531C507.957 539.828 511.769 536.016 516.472 536.016C521.175 536.016 524.987 539.828 524.987 544.531C524.987 549.233 521.175 553.046 516.472 553.046Z" fill="#E1E4E5"/>
<path d="M434.721 536.325C427.928 536.325 422.422 530.818 422.422 524.026C422.422 517.233 427.928 511.727 434.721 511.727C441.514 511.727 447.02 517.233 447.02 524.026C447.02 530.818 441.514 536.325 434.721 536.325Z" fill="#E1E4E5"/>
<path d="M182.568 161.906C177.398 161.906 173.207 157.715 173.207 152.545C173.207 147.375 177.398 143.184 182.568 143.184C187.738 143.184 191.929 147.375 191.929 152.545C191.929 157.715 187.738 161.906 182.568 161.906Z" fill="#E1E4E5"/>
<path d="M314.557 502.97C308.809 502.97 304.15 498.311 304.15 492.563C304.15 486.816 308.809 482.156 314.557 482.156C320.305 482.156 324.964 486.816 324.964 492.563C324.964 498.311 320.305 502.97 314.557 502.97Z" fill="#E1E4E5"/>
<path d="M95.473 327.506C96.8088 332.491 93.8504 337.615 88.8651 338.951C83.8799 340.287 78.7557 337.328 77.4199 332.343C76.0841 327.358 79.0426 322.234 84.0278 320.898C89.013 319.562 94.1372 322.52 95.473 327.506Z" fill="#E1E4E5"/>
<path d="M234.215 106.803C226.183 106.803 219.671 100.291 219.671 92.2588C219.671 84.2264 226.183 77.7148 234.215 77.7148C242.247 77.7148 248.759 84.2264 248.759 92.2588C248.759 100.291 242.247 106.803 234.215 106.803Z" fill="#E1E4E5"/>
<path d="M767.905 396.837C762.624 396.837 758.342 393.412 758.342 389.186C758.342 384.961 762.624 381.535 767.905 381.535C773.187 381.535 777.468 384.961 777.468 389.186C777.468 393.412 773.187 396.837 767.905 396.837Z" fill="#E1E4E5"/>
<path d="M606.313 65.7856C609.093 76.1615 602.936 86.8267 592.56 89.6069C582.184 92.3871 571.519 86.2296 568.739 75.8537C565.959 65.4777 572.116 54.8126 582.492 52.0324C592.868 49.2522 603.533 55.4097 606.313 65.7856Z" fill="#E1E4E5"/>
<path d="M737.03 223H737.28C738.762 243.991 754.372 244.314 754.372 244.314C754.372 244.314 737.158 244.65 737.158 268.904C737.158 244.65 719.944 244.314 719.944 244.314C719.944 244.314 735.548 243.991 737.03 223ZM257.007 503.278H257.229C258.544 522.276 272.396 522.569 272.396 522.569C272.396 522.569 257.121 522.873 257.121 544.825C257.121 522.873 241.847 522.569 241.847 522.569C241.847 522.569 255.693 522.276 257.007 503.278Z" fill="#E1E4E5"/>
<path d="M181.749 449.292H152.087C149.75 449.291 147.436 449.75 145.276 450.644C143.117 451.538 141.155 452.849 139.502 454.501C137.85 456.154 136.539 458.116 135.645 460.275C134.751 462.434 134.292 464.749 134.293 467.086V467.086C134.292 469.423 134.752 471.737 135.645 473.896C136.539 476.056 137.85 478.018 139.503 479.67C141.155 481.323 143.117 482.633 145.276 483.527C147.436 484.421 149.75 484.881 152.087 484.88H164.802C174.162 484.88 181.749 477.292 181.749 467.932V434.037C181.749 424.677 174.162 417.09 164.802 417.09H153.613C149.12 417.091 144.811 418.874 141.631 422.047L139.373 424.29" stroke="#E1E4E5" stroke-width="9.208" stroke-linecap="round" stroke-linejoin="round"/>
<path d="M193.61 511.999H139.373C116.908 511.999 98.697 493.788 98.697 471.323V430.64C98.697 408.176 116.908 389.965 139.373 389.965H180.056C202.521 389.965 220.732 408.176 220.732 430.64V464.543C220.732 467.214 220.205 469.858 219.183 472.326C218.16 474.793 216.662 477.035 214.773 478.923C212.884 480.812 210.641 482.309 208.174 483.331C205.706 484.352 203.061 484.878 200.39 484.877C190.095 484.877 181.749 476.531 181.749 466.236V447.595" stroke="#E1E4E5" stroke-width="9.208" stroke-linecap="round" stroke-linejoin="round"/>
<path d="M754.25 141.255H725.569C723.309 141.255 721.072 141.699 718.984 142.563C716.896 143.428 714.999 144.695 713.401 146.293C711.804 147.891 710.536 149.788 709.672 151.875C708.807 153.963 708.363 156.201 708.363 158.46V158.46C708.362 160.72 708.807 162.958 709.671 165.046C710.536 167.133 711.803 169.031 713.401 170.628C714.999 172.226 716.896 173.494 718.984 174.358C721.072 175.222 723.309 175.667 725.569 175.666H737.863C746.914 175.666 754.25 168.33 754.25 159.279V126.505C754.25 117.454 746.914 110.117 737.863 110.117H727.044C722.7 110.119 718.533 111.843 715.458 114.911L713.275 117.079" stroke="#E1E4E5" stroke-width="8.903" stroke-linecap="round" stroke-linejoin="round"/>
<path d="M765.719 201.895H713.275C691.553 201.895 673.944 184.286 673.944 162.564V123.226C673.944 101.504 691.553 83.8945 713.275 83.8945H752.613C774.335 83.8945 791.944 101.504 791.944 123.226V156.008C791.944 158.59 791.435 161.148 790.447 163.533C789.458 165.919 788.009 168.087 786.183 169.913C784.356 171.739 782.188 173.187 779.802 174.174C777.415 175.162 774.858 175.67 772.275 175.669V175.669C762.32 175.669 754.25 167.599 754.25 157.645V139.62" stroke="#E1E4E5" stroke-width="8.903" stroke-linecap="round" stroke-linejoin="round"/>
<path fill-rule="evenodd" clip-rule="evenodd" d="M616.883 329.902C647.096 243.945 613.817 148.521 536.705 99.9922C459.592 51.4642 359.163 62.7442 294.737 127.17C230.311 191.596 219.031 292.025 267.559 369.138C316.088 446.251 411.512 479.529 497.469 449.316" fill="#4F27AA"/>
<path d="M616.883 329.902C647.096 243.945 613.817 148.521 536.705 99.9922C459.592 51.4642 359.163 62.7442 294.737 127.17C230.311 191.596 219.031 292.025 267.559 369.138C316.088 446.251 411.512 479.529 497.469 449.316" stroke="#4F27AA" stroke-width="31" stroke-linecap="round" stroke-linejoin="round"/>
<path d="M433.379 185.699V265.812L473.847 306.28" stroke="white" stroke-width="31" stroke-linecap="round" stroke-linejoin="round"/>
<path d="M565.216 506.151C615.782 506.151 656.774 465.159 656.774 414.593C656.774 364.027 615.782 323.035 565.216 323.035C514.65 323.035 473.658 364.027 473.658 414.593C473.658 465.159 514.65 506.151 565.216 506.151Z" fill="white" stroke="#4F27AA" stroke-width="31" stroke-linecap="round" stroke-linejoin="round"/>
<path fill-rule="evenodd" clip-rule="evenodd" d="M541.715 458.134C540.445 458.79 539.018 459.08 537.593 458.973C536.168 458.866 534.8 458.365 533.643 457.527C532.492 456.696 531.599 455.557 531.066 454.241C530.534 452.925 530.383 451.486 530.632 450.088L534.762 426.651L517.373 410.153C516.333 409.175 515.593 407.922 515.238 406.54C514.883 405.158 514.928 403.703 515.368 402.345C516.267 399.577 518.687 397.562 521.595 397.158L545.738 393.742L556.638 372.215C557.278 370.945 558.259 369.878 559.471 369.134C560.683 368.39 562.078 367.997 563.5 368C564.922 367.997 566.317 368.39 567.529 369.134C568.741 369.878 569.722 370.945 570.362 372.215L581.262 393.742L605.405 397.158C608.313 397.562 610.733 399.577 611.632 402.345C612.072 403.703 612.117 405.158 611.762 406.54C611.407 407.922 610.667 409.175 609.627 410.153L592.238 426.651L596.368 450.093C596.617 451.491 596.466 452.93 595.934 454.246C595.401 455.562 594.508 456.701 593.357 457.532C592.2 458.37 590.832 458.871 589.407 458.978C587.982 459.085 586.555 458.795 585.285 458.139L563.5 446.995L541.715 458.134Z" fill="#4F27AA"/>
</g>
<defs>
<linearGradient id="paint0_linear_1235_28699" x1="719.443" y1="348.462" x2="875.848" y2="224.745" gradientUnits="userSpaceOnUse">
<stop stop-color="white"/>
<stop offset="1" stop-color="#EEEEEE"/>
</linearGradient>
<linearGradient id="paint1_linear_1235_28699" x1="233.597" y1="388.254" x2="83.282" y2="248.591" gradientUnits="userSpaceOnUse">
<stop stop-color="white"/>
<stop offset="1" stop-color="#EEEEEE"/>
</linearGradient>
<clipPath id="clip0_1235_28699">
<rect width="900" height="600" fill="white"/>
</clipPath>
</defs>
</svg>
