<svg width="900" height="600" viewBox="0 0 900 600" fill="none" xmlns="http://www.w3.org/2000/svg">
<g clip-path="url(#clip0_1235_28747)">
<path d="M726.385 149.781C746.846 185.221 738.357 234.466 705.193 286.518C672.193 338.315 615.538 391.468 542.92 433.394C470.302 475.32 395.942 497.809 334.585 500.489C272.925 503.183 226.033 485.913 205.571 450.473C185.11 415.033 193.6 365.788 226.763 313.735C259.763 261.939 316.418 208.786 389.036 166.86C461.655 124.934 536.014 102.445 597.371 99.7654C659.032 97.0714 705.923 114.341 726.385 149.781V149.781Z" stroke="#E1E4E5" stroke-width="11"/>
<path d="M480.5 534.336C605.869 534.336 707.5 432.705 707.5 307.336C707.5 181.967 605.869 80.3359 480.5 80.3359C355.131 80.3359 253.5 181.967 253.5 307.336C253.5 432.705 355.131 534.336 480.5 534.336Z" fill="white" stroke="#E1E4E5" stroke-width="11"/>
<path d="M735.5 451C747.374 451 757 441.374 757 429.5C757 417.626 747.374 408 735.5 408C723.626 408 714 417.626 714 429.5C714 441.374 723.626 451 735.5 451Z" fill="#4F27AA"/>
<path d="M143.5 332C155.374 332 165 322.374 165 310.5C165 298.626 155.374 289 143.5 289C131.626 289 122 298.626 122 310.5C122 322.374 131.626 332 143.5 332Z" fill="#4F27AA"/>
<path fill-rule="evenodd" clip-rule="evenodd" d="M705.093 498.307H709.886C711.046 498.307 711.979 499.25 711.979 500.399V505.193C711.978 505.748 711.758 506.28 711.365 506.672C710.973 507.064 710.441 507.285 709.886 507.285H705.093C704.539 507.283 704.008 507.062 703.615 506.67C703.223 506.278 703.002 505.747 703 505.193V500.399C702.999 500.124 703.053 499.852 703.158 499.598C703.263 499.343 703.417 499.113 703.612 498.918C703.806 498.724 704.037 498.57 704.292 498.465C704.546 498.36 704.818 498.306 705.093 498.307ZM721.713 498.307H726.507C727.061 498.309 727.592 498.53 727.984 498.922C728.376 499.314 728.597 499.845 728.599 500.399V505.193C728.598 505.748 728.378 506.279 727.986 506.672C727.593 507.064 727.062 507.284 726.507 507.285H721.713C721.159 507.283 720.628 507.062 720.235 506.67C719.843 506.278 719.622 505.747 719.62 505.193V500.399C719.622 499.845 719.843 499.314 720.235 498.922C720.628 498.53 721.159 498.309 721.713 498.307ZM738.344 498.307H743.138C743.692 498.309 744.223 498.53 744.615 498.922C745.007 499.314 745.228 499.845 745.23 500.399V505.193C745.229 505.748 745.009 506.279 744.617 506.672C744.224 507.064 743.693 507.284 743.138 507.285H738.344C737.79 507.283 737.259 507.062 736.867 506.67C736.475 506.278 736.254 505.747 736.252 505.193V500.399C736.251 500.124 736.305 499.852 736.41 499.598C736.515 499.344 736.669 499.113 736.863 498.918C737.058 498.724 737.289 498.57 737.543 498.465C737.797 498.36 738.069 498.306 738.344 498.307ZM754.964 498.307H759.758C760.312 498.309 760.843 498.53 761.235 498.922C761.627 499.314 761.848 499.845 761.85 500.399V505.193C761.849 505.748 761.629 506.279 761.237 506.672C760.844 507.064 760.313 507.284 759.758 507.285H754.964C754.408 507.285 753.875 507.065 753.481 506.673C753.087 506.281 752.865 505.749 752.862 505.193V500.399C752.868 499.844 753.092 499.314 753.485 498.923C753.878 498.532 754.409 498.31 754.964 498.307ZM771.586 498.307H776.38C777.539 498.307 778.482 499.25 778.482 500.399V505.193C778.481 505.468 778.427 505.741 778.321 505.995C778.215 506.25 778.06 506.48 777.865 506.675C777.669 506.869 777.438 507.023 777.183 507.128C776.928 507.232 776.655 507.286 776.38 507.285H771.586C771.032 507.283 770.501 507.062 770.109 506.67C769.717 506.278 769.496 505.747 769.494 505.193V500.399C769.496 499.845 769.717 499.314 770.109 498.922C770.501 498.53 771.032 498.309 771.586 498.307ZM722.323 516.431H727.116C727.67 516.433 728.201 516.654 728.594 517.046C728.986 517.438 729.207 517.969 729.209 518.523V523.326C729.207 523.881 728.986 524.412 728.594 524.804C728.202 525.196 727.671 525.417 727.116 525.419H722.323C721.768 525.419 721.236 525.198 720.843 524.806C720.451 524.413 720.23 523.881 720.23 523.326V518.533C720.228 518.257 720.281 517.984 720.386 517.729C720.49 517.474 720.644 517.242 720.839 517.046C721.034 516.851 721.265 516.696 721.519 516.59C721.774 516.485 722.047 516.431 722.323 516.431ZM738.943 516.431H743.736C744.29 516.433 744.821 516.654 745.214 517.046C745.606 517.438 745.827 517.969 745.829 518.523V523.326C745.827 523.881 745.606 524.412 745.214 524.804C744.822 525.196 744.291 525.417 743.736 525.419H738.943C738.388 525.417 737.857 525.196 737.465 524.804C737.073 524.412 736.852 523.881 736.85 523.326V518.533C736.849 518.257 736.902 517.984 737.006 517.729C737.111 517.474 737.265 517.242 737.459 517.047C737.654 516.851 737.885 516.696 738.14 516.591C738.394 516.485 738.667 516.431 738.943 516.431ZM755.564 516.431H760.358C761.517 516.431 762.46 517.374 762.46 518.523V523.326C762.46 524.476 761.517 525.419 760.358 525.419H755.564C755.01 525.417 754.479 525.196 754.087 524.804C753.695 524.411 753.474 523.88 753.472 523.326V518.533C753.472 517.374 754.415 516.431 755.564 516.431ZM738.344 478.837H743.138C743.692 478.839 744.223 479.06 744.615 479.452C745.007 479.844 745.228 480.375 745.23 480.929V485.723C745.229 486.278 745.009 486.809 744.617 487.202C744.224 487.594 743.693 487.814 743.138 487.815H738.344C737.79 487.813 737.259 487.592 736.867 487.2C736.475 486.808 736.254 486.277 736.252 485.723V480.929C736.251 480.654 736.305 480.382 736.41 480.128C736.515 479.874 736.669 479.643 736.863 479.448C737.058 479.254 737.289 479.1 737.543 478.995C737.797 478.89 738.069 478.836 738.344 478.837ZM754.964 478.837H759.758C760.312 478.839 760.843 479.06 761.235 479.452C761.627 479.844 761.848 480.375 761.85 480.929V485.723C761.849 486.278 761.629 486.809 761.237 487.202C760.844 487.594 760.313 487.814 759.758 487.815H754.964C754.408 487.815 753.875 487.595 753.481 487.203C753.087 486.811 752.865 486.279 752.862 485.723V480.929C752.868 480.374 753.092 479.844 753.485 479.453C753.878 479.062 754.409 478.84 754.964 478.837ZM541.092 408.47H545.886C547.045 408.47 547.979 409.413 547.979 410.562V415.356C547.978 415.911 547.758 416.443 547.365 416.835C546.973 417.228 546.441 417.448 545.886 417.449H541.092C540.538 417.447 540.007 417.225 539.615 416.833C539.223 416.441 539.002 415.91 539 415.356V410.562C538.999 410.287 539.053 410.015 539.158 409.761C539.263 409.507 539.417 409.276 539.611 409.081C539.806 408.887 540.037 408.733 540.291 408.628C540.545 408.523 540.817 408.469 541.092 408.47ZM557.712 408.47H562.506C563.06 408.472 563.591 408.693 563.984 409.085C564.376 409.477 564.597 410.008 564.599 410.562V415.356C564.598 415.911 564.378 416.443 563.985 416.835C563.593 417.228 563.061 417.448 562.506 417.449H557.712C557.158 417.447 556.627 417.225 556.235 416.833C555.843 416.441 555.622 415.91 555.62 415.356V410.562C555.622 410.008 555.843 409.477 556.235 409.085C556.627 408.693 557.158 408.472 557.712 408.47ZM574.344 408.47H579.138C579.692 408.472 580.223 408.693 580.615 409.085C581.007 409.477 581.228 410.008 581.23 410.562V415.356C581.229 415.911 581.009 416.443 580.617 416.835C580.225 417.227 579.693 417.448 579.138 417.449H574.344C573.79 417.447 573.259 417.225 572.867 416.833C572.475 416.441 572.254 415.91 572.252 415.356V410.562C572.251 410.287 572.305 410.015 572.41 409.761C572.515 409.507 572.669 409.276 572.863 409.081C573.058 408.887 573.289 408.733 573.543 408.628C573.797 408.523 574.069 408.469 574.344 408.47ZM590.964 408.47H595.758C596.312 408.472 596.843 408.693 597.235 409.085C597.627 409.477 597.848 410.008 597.85 410.562V415.356C597.849 415.911 597.629 416.443 597.237 416.835C596.845 417.227 596.313 417.448 595.758 417.449H590.964C590.408 417.449 589.875 417.228 589.481 416.836C589.087 416.444 588.865 415.912 588.862 415.356V410.562C588.868 410.007 589.092 409.477 589.485 409.086C589.878 408.695 590.409 408.473 590.964 408.47ZM607.586 408.47H612.38C613.539 408.47 614.482 409.413 614.482 410.562V415.356C614.481 415.631 614.427 415.904 614.321 416.158C614.215 416.413 614.06 416.644 613.865 416.838C613.669 417.032 613.438 417.186 613.183 417.291C612.928 417.396 612.655 417.45 612.38 417.449H607.586C607.032 417.447 606.501 417.225 606.109 416.833C605.717 416.441 605.495 415.91 605.493 415.356V410.562C605.493 409.413 606.437 408.47 607.586 408.47ZM558.322 426.594H563.116C563.67 426.596 564.201 426.817 564.594 427.209C564.986 427.601 565.207 428.132 565.209 428.686V433.49C565.207 434.044 564.986 434.575 564.594 434.967C564.201 435.359 563.67 435.58 563.116 435.582H558.322C557.767 435.581 557.236 435.361 556.843 434.969C556.451 434.576 556.23 434.045 556.23 433.49V428.696C556.228 428.42 556.281 428.147 556.386 427.892C556.49 427.637 556.644 427.405 556.839 427.21C557.033 427.014 557.264 426.859 557.519 426.754C557.773 426.648 558.046 426.594 558.322 426.594ZM574.943 426.594H579.736C580.29 426.596 580.821 426.817 581.214 427.209C581.606 427.601 581.827 428.132 581.829 428.686V433.49C581.827 434.044 581.606 434.575 581.214 434.967C580.821 435.359 580.29 435.58 579.736 435.582H574.943C574.389 435.58 573.857 435.359 573.465 434.967C573.073 434.575 572.852 434.044 572.85 433.49V428.696C572.848 428.42 572.901 428.147 573.006 427.892C573.11 427.637 573.264 427.405 573.459 427.209C573.653 427.014 573.885 426.859 574.139 426.753C574.394 426.648 574.667 426.594 574.943 426.594ZM591.564 426.594H596.358C597.517 426.594 598.46 427.537 598.46 428.686V433.49C598.457 434.046 598.235 434.578 597.841 434.97C597.447 435.362 596.914 435.582 596.358 435.582H591.564C591.01 435.58 590.479 435.359 590.087 434.967C589.695 434.575 589.474 434.044 589.472 433.49V428.696C589.472 427.537 590.415 426.594 591.564 426.594ZM574.344 389H579.138C579.692 389.002 580.223 389.223 580.615 389.615C581.007 390.007 581.228 390.538 581.23 391.092V395.886C581.229 396.441 581.009 396.973 580.617 397.365C580.225 397.757 579.693 397.978 579.138 397.979L574.344 397.978C573.79 397.976 573.259 397.755 572.867 397.363C572.475 396.971 572.254 396.44 572.252 395.886V391.092C572.251 390.817 572.305 390.545 572.41 390.291C572.515 390.037 572.669 389.806 572.863 389.611C573.058 389.417 573.289 389.263 573.543 389.158C573.797 389.053 574.069 388.999 574.344 389ZM590.964 389H595.758C596.312 389.002 596.843 389.223 597.235 389.615C597.627 390.007 597.848 390.538 597.85 391.092V395.886C597.849 396.441 597.629 396.973 597.237 397.365C596.845 397.757 596.313 397.978 595.758 397.979L590.964 397.978C590.408 397.978 589.875 397.758 589.481 397.366C589.087 396.974 588.865 396.442 588.862 395.886V391.092C588.868 390.537 589.092 390.007 589.485 389.616C589.878 389.225 590.409 389.003 590.964 389ZM115.092 498.307H119.886C121.045 498.307 121.979 499.25 121.979 500.399V505.193C121.978 505.748 121.757 506.28 121.365 506.672C120.973 507.064 120.441 507.284 119.886 507.285H115.092C114.538 507.283 114.007 507.062 113.615 506.67C113.223 506.278 113.002 505.747 113 505.193V500.399C112.999 500.124 113.053 499.852 113.158 499.598C113.263 499.344 113.417 499.113 113.611 498.918C113.806 498.724 114.037 498.57 114.291 498.465C114.545 498.36 114.817 498.306 115.092 498.307ZM131.712 498.307H136.506C137.06 498.309 137.592 498.53 137.984 498.922C138.376 499.314 138.597 499.845 138.599 500.399V505.193C138.598 505.748 138.378 506.28 137.985 506.672C137.593 507.064 137.061 507.285 136.506 507.285H131.712C131.158 507.283 130.627 507.062 130.235 506.67C129.843 506.278 129.622 505.747 129.62 505.193V500.399C129.622 499.845 129.843 499.314 130.235 498.922C130.627 498.53 131.158 498.309 131.712 498.307ZM148.344 498.307H153.138C153.692 498.309 154.223 498.53 154.615 498.922C155.007 499.314 155.228 499.845 155.23 500.399V505.193C155.229 505.748 155.009 506.279 154.617 506.672C154.224 507.064 153.693 507.284 153.138 507.285H148.344C147.79 507.283 147.259 507.062 146.867 506.67C146.475 506.278 146.254 505.747 146.252 505.193V500.399C146.251 500.124 146.305 499.852 146.41 499.598C146.515 499.344 146.669 499.113 146.863 498.918C147.058 498.724 147.289 498.57 147.543 498.465C147.797 498.36 148.069 498.306 148.344 498.307ZM164.964 498.307H169.758C170.312 498.309 170.843 498.53 171.235 498.922C171.627 499.314 171.848 499.845 171.85 500.399V505.193C171.849 505.748 171.629 506.279 171.237 506.672C170.844 507.064 170.313 507.284 169.758 507.285H164.964C164.408 507.285 163.875 507.065 163.481 506.673C163.087 506.281 162.865 505.749 162.862 505.193V500.399C162.868 499.844 163.092 499.314 163.485 498.923C163.878 498.532 164.409 498.31 164.964 498.307ZM181.586 498.307H186.38C187.539 498.307 188.482 499.25 188.482 500.399V505.193C188.481 505.468 188.427 505.741 188.321 505.995C188.215 506.25 188.06 506.48 187.865 506.675C187.669 506.869 187.438 507.023 187.183 507.128C186.928 507.232 186.655 507.286 186.38 507.285H181.586C181.032 507.283 180.501 507.062 180.109 506.67C179.717 506.278 179.495 505.747 179.493 505.193V500.399C179.493 499.25 180.437 498.307 181.586 498.307ZM132.322 516.431H137.116C137.67 516.433 138.202 516.654 138.594 517.046C138.986 517.438 139.207 517.969 139.209 518.523V523.326C139.207 523.881 138.986 524.412 138.594 524.804C138.202 525.196 137.671 525.417 137.116 525.419H132.322C131.767 525.418 131.235 525.198 130.843 524.805C130.451 524.413 130.23 523.881 130.23 523.326V518.533C130.228 518.257 130.281 517.984 130.386 517.729C130.49 517.474 130.644 517.242 130.839 517.047C131.033 516.851 131.264 516.696 131.519 516.591C131.773 516.485 132.046 516.431 132.322 516.431ZM148.943 516.431H153.736C154.29 516.433 154.821 516.654 155.214 517.046C155.606 517.438 155.827 517.969 155.829 518.523V523.326C155.827 523.881 155.606 524.412 155.214 524.804C154.822 525.196 154.291 525.417 153.736 525.419H148.943C148.388 525.417 147.857 525.196 147.465 524.804C147.073 524.412 146.852 523.881 146.85 523.326V518.533C146.848 518.257 146.901 517.984 147.006 517.729C147.11 517.474 147.264 517.242 147.459 517.046C147.653 516.851 147.885 516.696 148.139 516.59C148.394 516.485 148.667 516.431 148.943 516.431ZM165.564 516.431H170.358C171.517 516.431 172.46 517.374 172.46 518.523V523.326C172.46 524.476 171.517 525.419 170.358 525.419H165.564C165.01 525.417 164.479 525.196 164.087 524.804C163.695 524.411 163.474 523.88 163.472 523.326V518.533C163.472 517.374 164.415 516.431 165.564 516.431ZM148.344 478.837H153.138C153.692 478.839 154.223 479.06 154.615 479.452C155.007 479.844 155.228 480.375 155.23 480.929V485.723C155.229 486.278 155.009 486.809 154.617 487.202C154.224 487.594 153.693 487.814 153.138 487.815H148.344C147.79 487.813 147.259 487.592 146.867 487.2C146.475 486.808 146.254 486.277 146.252 485.723V480.929C146.251 480.654 146.305 480.382 146.41 480.128C146.515 479.874 146.669 479.643 146.863 479.448C147.058 479.254 147.289 479.1 147.543 478.995C147.797 478.89 148.069 478.836 148.344 478.837ZM164.964 478.837H169.758C170.312 478.839 170.843 479.06 171.235 479.452C171.627 479.844 171.848 480.375 171.85 480.929V485.723C171.849 486.278 171.629 486.809 171.237 487.202C170.844 487.594 170.313 487.814 169.758 487.815H164.964C164.408 487.815 163.875 487.595 163.481 487.203C163.087 486.811 162.865 486.279 162.862 485.723V480.929C162.868 480.374 163.092 479.844 163.485 479.453C163.878 479.062 164.409 478.84 164.964 478.837Z" fill="#E1E4E5"/>
<path fill-rule="evenodd" clip-rule="evenodd" d="M707 333.821V214.545C707 208.887 705.124 203.453 701.8 199.46L676.653 169.256C673.32 165.253 668.795 163 664.084 163H564.778C554.955 163 547 172.555 547 184.353V333.821C547 345.619 554.955 355.174 564.778 355.174H689.222C699.044 355.174 707 345.619 707 333.821Z" fill="#4F27AA" stroke="#4F27AA" stroke-width="15.96" stroke-linecap="round" stroke-linejoin="round"/>
<path fill-rule="evenodd" clip-rule="evenodd" d="M654.634 307.905C654.634 299.065 661.905 291.891 670.864 291.891C679.823 291.891 687.094 299.065 687.094 307.905C687.094 316.744 679.823 323.918 670.864 323.918C661.905 323.918 654.634 316.744 654.634 307.905Z" fill="white"/>
<path d="M577.161 232.783H677.14M577.161 270.275H677.14M577.161 307.686H634.725M577.161 201.215H624.337" stroke="white" stroke-width="18.746" stroke-linecap="round" stroke-linejoin="round"/>
<path fill-rule="evenodd" clip-rule="evenodd" d="M300.355 172H225.816C209.417 172 196 185.417 196 201.816V276.355C196 292.753 209.417 306.17 225.816 306.17H300.355C316.753 306.17 330.17 292.753 330.17 276.355V201.816C330.17 185.417 316.753 172 300.355 172Z" fill="#4F27AA" stroke="#4F27AA" stroke-width="15.611" stroke-linecap="round" stroke-linejoin="round"/>
<path d="M252.65 216.727L276.503 239.088L252.65 261.45" stroke="white" stroke-width="15.611" stroke-linecap="round" stroke-linejoin="round"/>
<path d="M421.844 450.688C460.418 450.688 491.688 419.418 491.688 380.844C491.688 342.27 460.418 311 421.844 311C383.27 311 352 342.27 352 380.844C352 419.418 383.27 450.688 421.844 450.688Z" stroke="#4F27AA" stroke-width="31" stroke-linecap="round" stroke-linejoin="round"/>
<path d="M471.228 430.23L509.146 468.147" stroke="#4F27AA" stroke-width="31" stroke-linecap="round" stroke-linejoin="round"/>
<path d="M391 201H468M391 233H468M391 270H468" stroke="#4F27AA" stroke-width="18" stroke-linecap="round" stroke-linejoin="round"/>
<path d="M184.158 157.566C174.13 157.566 166 149.436 166 139.408C166 129.38 174.13 121.25 184.158 121.25C194.186 121.25 202.316 129.38 202.316 139.408C202.316 149.436 194.186 157.566 184.158 157.566Z" fill="#4F27AA"/>
<path d="M773.446 265.3C768.766 265.3 764.972 261.506 764.972 256.826C764.972 252.146 768.766 248.352 773.446 248.352C778.126 248.352 781.92 252.146 781.92 256.826C781.92 261.506 778.126 265.3 773.446 265.3Z" fill="#4F27AA"/>
<path d="M236.895 419.79C230.878 419.79 226 414.912 226 408.895C226 402.878 230.878 398 236.895 398C242.912 398 247.79 402.878 247.79 408.895C247.79 414.912 242.912 419.79 236.895 419.79Z" fill="#E1E4E5"/>
<path d="M352.5 538C348.358 538 345 534.642 345 530.5C345 526.358 348.358 523 352.5 523C356.642 523 360 526.358 360 530.5C360 534.642 356.642 538 352.5 538Z" fill="#E1E4E5"/>
<path d="M264.977 107.954C258.362 107.954 253 102.592 253 95.977C253 89.3623 258.362 84 264.977 84C271.592 84 276.954 89.3623 276.954 95.977C276.954 102.592 271.592 107.954 264.977 107.954Z" fill="#E1E4E5"/>
<path d="M768.316 162.632C760.962 162.632 755 156.67 755 149.316C755 141.962 760.962 136 768.316 136C775.67 136 781.632 141.962 781.632 149.316C781.632 156.67 775.67 162.632 768.316 162.632Z" fill="#E1E4E5"/>
<path d="M114.195 228.552C115.904 234.93 112.118 241.487 105.74 243.196C99.361 244.905 92.8045 241.12 91.0954 234.741C89.3862 228.362 93.1716 221.806 99.5503 220.097C105.929 218.388 112.485 222.173 114.195 228.552Z" fill="#E1E4E5"/>
<path d="M755.236 323.578C748.478 323.578 743 319.195 743 313.789C743 308.383 748.478 304 755.236 304C761.994 304 767.472 308.383 767.472 313.789C767.472 319.195 761.994 323.578 755.236 323.578Z" fill="#E1E4E5"/>
<path d="M598.465 53.4812C600.243 60.1153 596.306 66.9345 589.671 68.7121C583.037 70.4897 576.218 66.5527 574.44 59.9185C572.663 53.2843 576.6 46.4652 583.234 44.6876C589.868 42.91 596.687 46.847 598.465 53.4812Z" fill="#E1E4E5"/>
<path d="M789.862 330H790.182C792.077 356.858 812.052 357.271 812.052 357.271C812.052 357.271 790.026 357.701 790.026 388.735C790.026 357.701 768 357.271 768 357.271C768 357.271 787.966 356.858 789.862 330ZM500.398 139H500.682C502.364 163.308 520.088 163.682 520.088 163.682C520.088 163.682 500.544 164.072 500.544 192.159C500.544 164.072 481 163.682 481 163.682C481 163.682 498.716 163.308 500.398 139Z" fill="#E1E4E5"/>
</g>
<defs>
<clipPath id="clip0_1235_28747">
<rect width="900" height="600" fill="white"/>
</clipPath>
</defs>
</svg>
