<svg width="900" height="600" viewBox="0 0 900 600" fill="none" xmlns="http://www.w3.org/2000/svg">
<g clip-path="url(#clip0_1235_28772)">
<path d="M670.638 156.8C670.644 126.43 651.601 99.3196 623.029 89.0246L510.142 48.3846L510.82 46.5036L510.142 48.3856C471.681 34.5381 429.594 34.5381 391.133 48.3856L278.098 89.0986C249.552 99.3846 230.514 126.459 230.49 156.802V338.159C230.49 384.327 262.82 424.802 303.241 457.316C343.584 489.767 391.521 513.91 421.772 527.466L421.777 527.468C430.824 531.553 440.637 533.666 450.564 533.666C460.491 533.666 470.304 531.553 479.351 527.468L479.356 527.466C509.606 513.91 557.544 489.731 597.887 457.261C638.309 424.728 670.638 384.253 670.638 338.159V156.8Z" fill="white" stroke="#E1E4E5" stroke-width="4"/>
<path fill-rule="evenodd" clip-rule="evenodd" d="M633.978 329.05V179.263C633.984 153.484 617.818 130.471 593.566 121.732L500.33 88.1675C468.203 76.6004 433.047 76.6004 400.92 88.1675L307.562 121.793C283.33 130.525 267.17 153.506 267.15 179.263V329.05C267.15 406.879 376.037 464.471 426.109 486.909C433.795 490.38 442.131 492.174 450.564 492.174C458.997 492.174 467.333 490.38 475.019 486.909C525.091 464.471 633.978 406.757 633.978 329.05Z" fill="#4F27AA"/>
<path d="M535 239L439.375 334L382 277" stroke="white" stroke-width="31" stroke-linecap="round" stroke-linejoin="round"/>
<path d="M178.43 307.639C136.293 307.639 102.134 273.48 102.134 231.343C102.134 189.206 136.293 155.047 178.43 155.047C220.567 155.047 254.726 189.206 254.726 231.343C254.726 273.48 220.567 307.639 178.43 307.639Z" fill="#4F27AA"/>
<path fill-rule="evenodd" clip-rule="evenodd" d="M204.739 258.035V261.79C204.738 262.786 204.342 263.741 203.637 264.445C202.932 265.149 201.977 265.544 200.981 265.544H155.88C154.884 265.544 153.928 265.149 153.224 264.445C152.519 263.741 152.123 262.786 152.122 261.79V257.975C152.122 246.615 165.118 239.235 178.43 239.235C191.743 239.235 204.739 246.619 204.739 257.975M187.732 206.255C192.869 211.392 192.869 219.721 187.732 224.858C182.595 229.995 174.266 229.995 169.129 224.858C163.992 219.721 163.992 211.392 169.129 206.255C174.266 201.118 182.595 201.118 187.732 206.255Z" fill="white"/>
<path d="M186.3 118.817C198.616 124.927 214.964 117.071 214.964 117.071C214.964 117.071 211.331 99.3122 199.007 93.2112C186.69 87.1012 170.349 94.9482 170.349 94.9482C170.349 94.9482 173.983 112.707 186.3 118.817Z" fill="url(#paint0_linear_1235_28772)"/>
<path d="M587.271 544.585C572.02 553.725 550.141 545.276 550.141 545.276C550.141 545.276 553.002 522.011 568.261 512.881C583.512 503.741 605.382 512.18 605.382 512.18C605.382 512.18 602.521 535.445 587.271 544.585Z" fill="url(#paint1_linear_1235_28772)"/>
<path d="M108.364 119.377C112.983 119.377 116.728 123.122 116.728 127.741C116.728 132.361 112.983 136.105 108.364 136.105C103.745 136.105 100 132.361 100 127.741C100 123.122 103.745 119.377 108.364 119.377Z" fill="#4F27AA"/>
<path d="M701.555 51.5419C710.243 51.5419 717.286 58.5849 717.286 67.2729C717.286 75.9609 710.243 83.0039 701.555 83.0039C692.867 83.0039 685.824 75.9609 685.824 67.2729C685.824 58.5849 692.867 51.5419 701.555 51.5419Z" fill="#4F27AA"/>
<path d="M735.174 224.519C739.792 224.519 743.535 220.776 743.535 216.158C743.535 211.54 739.792 207.797 735.174 207.797C730.556 207.797 726.813 211.54 726.813 216.158C726.813 220.776 730.556 224.519 735.174 224.519Z" fill="#4F27AA"/>
<path d="M266.984 515.275C273.51 515.275 278.801 509.984 278.801 503.458C278.801 496.931 273.51 491.641 266.984 491.641C260.458 491.641 255.167 496.931 255.167 503.458C255.167 509.984 260.458 515.275 266.984 515.275Z" fill="#E1E4E5"/>
<path d="M114.854 371.493C123.058 371.493 129.708 364.843 129.708 356.639C129.708 348.436 123.058 341.785 114.854 341.785C106.65 341.785 100 348.436 100 356.639C100 364.843 106.65 371.493 114.854 371.493Z" fill="#E1E4E5"/>
<path d="M700.614 271.015C698.927 277.309 702.663 283.779 708.956 285.465C715.25 287.151 721.719 283.416 723.406 277.123C725.092 270.829 721.357 264.359 715.063 262.673C708.77 260.987 702.3 264.722 700.614 271.015Z" fill="#E1E4E5"/>
<path d="M171.204 391.445C177.872 391.445 183.277 387.121 183.277 381.787C183.277 376.453 177.872 372.129 171.204 372.129C164.536 372.129 159.131 376.453 159.131 381.787C159.131 387.121 164.536 391.445 171.204 391.445Z" fill="#E1E4E5"/>
<path d="M145.259 459.691C145.259 470.333 153.886 478.96 164.528 478.96C175.17 478.96 183.797 470.333 183.797 459.691C183.797 449.049 175.17 440.422 164.528 440.422C153.886 440.422 145.259 449.049 145.259 459.691Z" fill="#E1E4E5"/>
<path d="M734.974 121.842H734.802C733.784 136.272 723.052 136.494 723.052 136.494C723.052 136.494 734.886 136.725 734.886 153.398C734.886 136.725 746.72 136.494 746.72 136.494C746.72 136.494 735.993 136.272 734.974 121.842ZM238.87 36H238.704C237.727 50.387 227.423 50.608 227.423 50.608C227.423 50.608 238.785 50.838 238.785 67.463C238.785 50.839 250.146 50.609 250.146 50.609C250.146 50.609 239.847 50.386 238.87 36Z" fill="#E1E4E5"/>
<path d="M668.175 448.938H783.981V536.526H668.175V448.938Z" fill="#4F27AA"/>
<path fill-rule="evenodd" clip-rule="evenodd" d="M726.372 451.338C711.871 451.338 698.953 451.866 688.399 452.537C678.389 453.173 670.691 460.811 669.973 470.751C669.462 477.822 669.106 485.273 669.106 492.243C669.106 499.212 669.462 506.663 669.973 513.734C670.691 523.674 678.389 531.312 688.399 531.948C713.689 533.548 739.055 533.548 764.345 531.948C774.355 531.312 782.053 523.674 782.771 513.734C783.282 506.663 783.638 499.212 783.638 492.243C783.638 485.273 783.282 477.822 782.771 470.751C782.053 460.811 774.355 453.173 764.345 452.537C751.703 451.738 739.039 451.338 726.372 451.338ZM687.361 436.208C669.218 437.362 654.964 451.439 653.653 469.572C653.124 476.89 652.744 484.757 652.744 492.243C652.744 499.728 653.124 507.595 653.653 514.913C654.964 533.046 669.218 547.124 687.361 548.277C713.342 549.921 739.402 549.921 765.383 548.277C783.526 547.124 797.78 533.046 799.09 514.913C799.619 507.595 800 499.728 800 492.243C800 484.757 799.619 476.89 799.09 469.572C797.78 451.439 783.526 437.362 765.382 436.208C739.401 434.566 713.342 434.566 687.361 436.208Z" fill="#4F27AA"/>
<path fill-rule="evenodd" clip-rule="evenodd" d="M734.553 498.234C739.443 495.405 742.734 490.117 742.734 484.061C742.734 475.024 735.408 467.699 726.372 467.699C717.336 467.699 710.01 475.024 710.01 484.061C710.01 490.117 713.301 495.405 718.191 498.234V508.603C718.191 509.678 718.402 510.741 718.813 511.734C719.225 512.727 719.827 513.629 720.587 514.388C721.347 515.148 722.248 515.751 723.241 516.162C724.234 516.573 725.298 516.784 726.372 516.784C727.446 516.784 728.51 516.573 729.503 516.162C730.495 515.751 731.397 515.148 732.157 514.388C732.917 513.629 733.519 512.727 733.931 511.734C734.342 510.741 734.553 509.678 734.553 508.603V498.234Z" fill="white"/>
<path fill-rule="evenodd" clip-rule="evenodd" d="M685.467 410.432C685.467 387.841 703.781 369.527 726.372 369.527C748.963 369.527 767.276 387.841 767.276 410.432V443.155C767.276 445.325 766.414 447.406 764.88 448.94C763.346 450.474 761.265 451.336 759.095 451.336C756.925 451.336 754.844 450.474 753.31 448.94C751.776 447.406 750.914 445.325 750.914 443.155V410.432C750.914 396.877 739.926 385.889 726.372 385.889C712.817 385.889 701.829 396.877 701.829 410.432V443.155C701.829 445.325 700.967 447.406 699.433 448.94C697.899 450.474 695.818 451.336 693.648 451.336C691.478 451.336 689.397 450.474 687.863 448.94C686.329 447.406 685.467 445.325 685.467 443.155V410.432Z" fill="#4F27AA"/>
</g>
<defs>
<linearGradient id="paint0_linear_1235_28772" x1="233.598" y1="137.875" x2="132.008" y2="57.5172" gradientUnits="userSpaceOnUse">
<stop stop-color="white"/>
<stop offset="1" stop-color="#EEEEEE"/>
</linearGradient>
<linearGradient id="paint1_linear_1235_28772" x1="528.256" y1="574.007" x2="650.966" y2="459.993" gradientUnits="userSpaceOnUse">
<stop stop-color="white"/>
<stop offset="1" stop-color="#EEEEEE"/>
</linearGradient>
<clipPath id="clip0_1235_28772">
<rect width="900" height="600" fill="white"/>
</clipPath>
</defs>
</svg>
