<svg width="900" height="600" viewBox="0 0 900 600" fill="none" xmlns="http://www.w3.org/2000/svg">
<g clip-path="url(#clip0_1235_28794)">
<path d="M433.318 378.939C415.102 374.952 407.156 356.503 400.808 325.006C396.038 301.317 391.381 279.808 396.929 252.979C400.806 234.202 408.802 217.841 417.504 205.028C426.93 191.144 436.907 172.732 453.171 175.324C475.513 178.89 508.578 228.743 497.972 290.143C486.313 357.593 451.123 382.844 433.318 378.939Z" fill="url(#paint0_linear_1235_28794)"/>
<path d="M672.92 245.057C653.914 254.485 628.689 242.362 628.689 242.362C628.689 242.362 634.296 214.96 653.311 205.545C672.317 196.118 697.532 208.227 697.532 208.227C697.532 208.227 691.926 235.629 672.92 245.057Z" fill="url(#paint1_linear_1235_28794)"/>
<path d="M135.462 436.125C169.118 456.298 217.404 437.65 217.404 437.65C217.404 437.65 211.09 386.306 177.414 366.158C143.758 345.986 95.493 364.61 95.493 364.61C95.493 364.61 101.806 415.954 135.462 436.125Z" fill="url(#paint2_linear_1235_28794)"/>
<path d="M742.781 144.749C735.013 144.749 728.716 151.046 728.716 158.814C728.716 166.582 735.013 172.879 742.781 172.879C750.549 172.879 756.846 166.582 756.846 158.814C756.846 151.046 750.549 144.749 742.781 144.749Z" fill="#4F27AA"/>
<path d="M324.576 540.006C315.837 540.006 308.753 547.091 308.753 555.829C308.753 564.568 315.837 571.652 324.576 571.652C333.315 571.652 340.399 564.568 340.399 555.829C340.399 547.091 333.315 540.006 324.576 540.006Z" fill="#4F27AA"/>
<path d="M129.83 202.397C122.548 202.397 116.645 196.494 116.645 189.212C116.645 181.93 122.548 176.027 129.83 176.027C137.112 176.027 143.015 181.93 143.015 189.212C143.015 196.494 137.112 202.397 129.83 202.397Z" fill="#4F27AA"/>
<path d="M652.163 336.423C648.765 336.423 646.01 333.668 646.01 330.27C646.01 326.872 648.765 324.117 652.163 324.117C655.561 324.117 658.316 326.872 658.316 330.27C658.316 333.668 655.561 336.423 652.163 336.423Z" fill="#4F27AA"/>
<path d="M498.19 516.088C493.821 516.088 490.279 512.546 490.279 508.177C490.279 503.807 493.821 500.266 498.19 500.266C502.559 500.266 506.101 503.807 506.101 508.177C506.101 512.546 502.559 516.088 498.19 516.088Z" fill="#E1E4E5"/>
<path d="M127.472 461.62C121.161 461.62 116.045 456.504 116.045 450.193C116.045 443.882 121.161 438.766 127.472 438.766C133.783 438.766 138.899 443.882 138.899 450.193C138.899 456.504 133.783 461.62 127.472 461.62Z" fill="#E1E4E5"/>
<path d="M240.108 113.812C235.305 113.812 231.411 109.918 231.411 105.115C231.411 100.312 235.305 96.418 240.108 96.418C244.911 96.418 248.805 100.312 248.805 105.115C248.805 109.918 244.911 113.812 240.108 113.812Z" fill="#E1E4E5"/>
<path d="M349.095 387.299C343.755 387.299 339.426 382.97 339.426 377.63C339.426 372.29 343.755 367.961 349.095 367.961C354.435 367.961 358.764 372.29 358.764 377.63C358.764 382.97 354.435 387.299 349.095 387.299Z" fill="#E1E4E5"/>
<path d="M162.043 267.307C163.284 271.939 160.535 276.7 155.903 277.941C151.271 279.182 146.51 276.433 145.269 271.801C144.027 267.169 146.776 262.408 151.408 261.167C156.04 259.926 160.802 262.674 162.043 267.307Z" fill="#E1E4E5"/>
<path d="M374.146 96.7973C367.767 96.7973 362.595 91.6258 362.595 85.2463C362.595 78.8669 367.767 73.6953 374.146 73.6953C380.525 73.6953 385.697 78.8669 385.697 85.2463C385.697 91.6258 380.525 96.7973 374.146 96.7973Z" fill="#E1E4E5"/>
<path d="M571.127 426.407C566.219 426.407 562.241 423.225 562.241 419.299C562.241 415.374 566.219 412.191 571.127 412.191C576.035 412.191 580.013 415.374 580.013 419.299C580.013 423.225 576.035 426.407 571.127 426.407Z" fill="#E1E4E5"/>
<path d="M588.005 46.7026C590.588 56.3428 584.867 66.2518 575.227 68.8349C565.586 71.418 555.677 65.6971 553.094 56.0568C550.511 46.4165 556.232 36.5075 565.872 33.9244C575.513 31.3413 585.422 37.0623 588.005 46.7026Z" fill="#E1E4E5"/>
<path d="M693.041 417.562H693.273C694.65 437.066 709.154 437.366 709.154 437.366C709.154 437.366 693.16 437.678 693.16 460.213C693.16 437.678 677.166 437.366 677.166 437.366C677.166 437.366 691.664 437.066 693.041 417.562ZM225.679 521.021H225.885C227.106 538.672 239.976 538.943 239.976 538.943C239.976 538.943 225.784 539.227 225.784 559.622C225.784 539.227 211.592 538.943 211.592 538.943C211.592 538.943 224.457 538.672 225.679 521.021Z" fill="#E1E4E5"/>
<path d="M366.724 15.8345C366.159 15.7875 365.593 15.7595 365.027 15.7505C364.839 15.7475 364.653 15.7405 364.466 15.7425C364.067 15.7467 363.668 15.7573 363.269 15.7745C363.078 15.7825 362.889 15.7965 362.697 15.8115C362.301 15.8421 361.906 15.8801 361.511 15.9255C361.113 15.9741 360.716 16.0311 360.32 16.0965C360.059 16.1405 359.797 16.1915 359.536 16.2445C359.399 16.2725 359.261 16.2945 359.124 16.3265C358.725 16.4135 358.325 16.5095 357.925 16.6165L174.848 65.6715C173.589 66.0054 172.358 66.4377 171.166 66.9645C170.775 67.1365 170.387 67.3175 170.009 67.5065C160.135 72.4465 154.44 83.3585 156.242 94.4665C156.38 95.3215 156.564 96.1765 156.793 97.0305L238.626 402.439L257.297 472.117C260.166 482.827 269.396 490.127 279.82 491.027C279.866 491.032 279.912 491.033 279.958 491.035C280.474 491.076 280.994 491.101 281.513 491.109C281.701 491.113 281.887 491.119 282.077 491.117C282.476 491.112 282.875 491.101 283.274 491.085C283.465 491.077 283.654 491.063 283.846 491.048C284.06 491.033 284.274 491.016 284.486 490.993C284.669 490.975 284.848 490.955 285.03 490.935C285.428 490.885 285.824 490.828 286.22 490.763C286.481 490.719 286.743 490.669 287.004 490.616C287.141 490.587 287.279 490.565 287.416 490.534C287.815 490.446 288.215 490.351 288.615 490.244L471.695 441.187C472.538 440.961 473.37 440.693 474.186 440.384C485.487 436.089 492.243 424.352 490.303 412.39C490.163 411.526 489.979 410.67 489.752 409.825L407.92 104.423L389.25 34.7445C386.375 24.0345 377.144 16.7355 366.724 15.8345Z" fill="#4F27AA"/>
<path d="M294.442 56.4114L250.562 68.169C249.252 68.5201 248.474 69.8666 248.825 71.1765C249.176 72.4864 250.523 73.2638 251.833 72.9127L295.713 61.1551C297.024 60.804 297.801 59.4575 297.45 58.1476C297.099 56.8376 295.753 56.0603 294.442 56.4114Z" fill="white"/>
<path d="M299.078 279.33C299.078 279.33 311.977 283.202 330.434 278.256C348.891 273.311 358.126 263.508 358.126 263.508" stroke="white" stroke-width="13.962" stroke-linecap="round" stroke-linejoin="round"/>
<path d="M284.053 254.327C292.395 252.092 297.387 243.671 295.202 235.519C293.018 227.366 284.485 222.569 276.143 224.804C267.801 227.04 262.809 235.46 264.994 243.613C267.178 251.765 275.711 256.562 284.053 254.327Z" fill="white"/>
<path d="M357.949 234.526C366.291 232.291 371.283 223.87 369.098 215.718C366.914 207.565 358.381 202.768 350.039 205.004C341.697 207.239 336.705 215.66 338.89 223.812C341.074 231.964 349.607 236.761 357.949 234.526Z" fill="white"/>
<path d="M704.795 532.372C704.795 532.372 658.509 495.713 628.009 491.51C597.831 487.353 518.28 492.227 459.25 467.204C458.697 466.974 458.241 466.557 457.961 466.027C457.682 465.497 457.596 464.886 457.719 464.299C458.656 460.026 463.086 450.928 484.367 451.811C512.068 453.007 533.3 453.373 533.3 453.373C533.3 453.373 448.202 369.258 426.838 344.751C422.618 339.914 419.765 335.552 417.905 331.586C412.11 319.216 428.007 308.106 437.855 317.577L495.499 372.983C495.499 372.983 492.774 364.299 498.862 358.91C504.633 353.828 519.251 356.629 527.788 365.834C527.788 365.834 525.549 355.826 535.171 351.391C544.793 346.957 557.435 354.619 562.799 359.59C562.799 359.59 558.593 350.507 564.602 345.317C570.61 340.127 586.541 345.185 590.816 348.238C595.09 351.292 634.987 370.392 678.215 423.914L762.911 450.147C762.911 450.147 774.766 481.49 704.795 532.372Z" fill="#F8AE9D"/>
<path d="M738.634 326.402H718.629C717.053 326.401 715.492 326.711 714.035 327.314C712.579 327.917 711.256 328.801 710.141 329.916C709.026 331.03 708.142 332.354 707.539 333.81C706.937 335.266 706.626 336.827 706.627 338.404V338.404C706.627 339.98 706.937 341.54 707.54 342.997C708.143 344.453 709.028 345.776 710.142 346.89C711.257 348.005 712.58 348.889 714.036 349.492C715.492 350.095 717.053 350.405 718.629 350.405H727.204C733.517 350.405 738.634 345.288 738.634 338.975V316.114C738.634 309.801 733.517 304.684 727.204 304.684H719.657C716.627 304.684 713.721 305.887 711.576 308.027L710.053 309.54" stroke="#E1E4E5" stroke-width="11" stroke-linecap="round" stroke-linejoin="round"/>
<path d="M746.634 368.698H710.053C694.902 368.698 682.619 356.415 682.619 341.264V313.825C682.619 298.673 694.902 286.391 710.053 286.391H737.492C752.644 286.391 764.926 298.673 764.926 313.825V336.691C764.926 338.492 764.571 340.276 763.882 341.94C763.192 343.604 762.182 345.116 760.908 346.39C759.634 347.663 758.121 348.674 756.457 349.362C754.792 350.051 753.008 350.405 751.207 350.405V350.405C744.263 350.405 738.634 344.776 738.634 337.833V325.26M412.806 525.382H398.481C397.352 525.381 396.234 525.603 395.191 526.034C394.148 526.466 393.201 527.099 392.403 527.897C391.605 528.695 390.972 529.643 390.54 530.686C390.109 531.729 389.887 532.847 389.888 533.976C389.887 535.104 390.109 536.222 390.541 537.265C390.973 538.307 391.606 539.255 392.404 540.053C393.202 540.851 394.149 541.484 395.192 541.916C396.235 542.347 397.352 542.569 398.481 542.569H404.622C405.697 542.569 406.761 542.357 407.754 541.946C408.747 541.534 409.649 540.931 410.409 540.171C411.169 539.411 411.772 538.509 412.183 537.516C412.594 536.523 412.806 535.458 412.806 534.384V518.015C412.806 515.844 411.944 513.762 410.409 512.227C408.874 510.692 406.793 509.83 404.622 509.83H399.218C397.048 509.831 394.967 510.691 393.431 512.224L392.341 513.307" stroke="#E1E4E5" stroke-width="11" stroke-linecap="round" stroke-linejoin="round"/>
<path d="M418.534 555.666H392.341C381.492 555.666 372.697 546.871 372.697 536.022V516.374C372.697 505.525 381.492 496.73 392.341 496.73H411.989C422.838 496.73 431.633 505.525 431.633 516.374V532.747C431.633 534.037 431.379 535.315 430.886 536.507C430.392 537.698 429.668 538.781 428.756 539.693C427.844 540.605 426.761 541.329 425.569 541.822C424.377 542.315 423.099 542.568 421.809 542.567V542.567C420.627 542.568 419.456 542.335 418.364 541.883C417.272 541.43 416.279 540.767 415.443 539.931C414.607 539.095 413.944 538.103 413.491 537.011C413.039 535.918 412.806 534.748 412.806 533.565V524.562" stroke="#E1E4E5" stroke-width="11" stroke-linecap="round" stroke-linejoin="round"/>
<path d="M539.344 297.567C507.356 297.567 481.424 271.635 481.424 239.647C481.424 207.658 507.356 181.727 539.344 181.727C571.332 181.727 597.264 207.658 597.264 239.647C597.264 271.635 571.332 297.567 539.344 297.567Z" fill="#4F27AA"/>
<path fill-rule="evenodd" clip-rule="evenodd" d="M559.316 259.911V262.761C559.315 263.517 559.014 264.242 558.479 264.776C557.944 265.31 557.219 265.61 556.463 265.61H522.225C521.469 265.61 520.744 265.31 520.209 264.776C519.674 264.242 519.373 263.517 519.372 262.761V259.865C519.372 251.241 529.238 245.638 539.344 245.638C549.45 245.638 559.316 251.244 559.316 259.865M546.405 220.601C550.305 224.501 550.305 230.824 546.405 234.724C542.505 238.624 536.182 238.624 532.282 234.724C528.382 230.824 528.382 224.501 532.282 220.601C536.182 216.701 542.505 216.701 546.405 220.601Z" fill="white"/>
<path d="M157.275 547.539C125.287 547.539 99.3551 521.608 99.3551 489.619C99.3551 457.631 125.287 431.699 157.275 431.699C189.263 431.699 215.195 457.631 215.195 489.619C215.195 521.608 189.263 547.539 157.275 547.539Z" fill="#4F27AA"/>
<path fill-rule="evenodd" clip-rule="evenodd" d="M177.248 509.883V512.733C177.247 513.489 176.946 514.214 176.411 514.748C175.876 515.283 175.151 515.583 174.395 515.583H140.156C139.4 515.583 138.675 515.283 138.14 514.748C137.605 514.214 137.304 513.489 137.303 512.733V509.837C137.303 501.213 147.17 495.61 157.276 495.61C167.382 495.61 177.248 501.216 177.248 509.837M164.337 470.573C168.237 474.473 168.237 480.796 164.337 484.696C160.437 488.596 154.114 488.596 150.214 484.696C146.314 480.796 146.314 474.473 150.214 470.573C154.114 466.674 160.437 466.674 164.337 470.573Z" fill="white"/>
<path d="M764.229 240.179C768.79 237.546 773.963 236.16 779.229 236.16C784.495 236.16 789.668 237.546 794.229 240.179L802.136 244.743C806.697 247.376 810.484 251.164 813.117 255.724C815.75 260.285 817.136 265.458 817.136 270.724V279.854C817.136 285.121 815.75 290.294 813.117 294.855C810.484 299.415 806.697 303.202 802.136 305.835L794.229 310.4C789.668 313.033 784.495 314.42 779.229 314.42C773.963 314.42 768.79 313.033 764.229 310.4L756.322 305.835C751.761 303.202 747.974 299.415 745.341 294.855C742.708 290.294 741.322 285.121 741.322 279.854V270.724C741.322 265.458 742.708 260.285 745.341 255.724C747.974 251.164 751.761 247.376 756.322 244.743L764.229 240.179Z" fill="#4F27AA"/>
<path d="M792.768 267.113L776.79 282.963L767.204 273.453" stroke="white" stroke-width="8.45" stroke-linecap="round" stroke-linejoin="round"/>
<path d="M118.981 283.875C123.542 281.242 128.715 279.855 133.981 279.855C139.247 279.855 144.42 281.242 148.981 283.875L156.888 288.439C161.449 291.072 165.236 294.859 167.869 299.42C170.502 303.98 171.888 309.154 171.888 314.42V323.55C171.888 328.816 170.502 333.989 167.869 338.55C165.236 343.11 161.449 346.898 156.888 349.531L148.981 354.096C144.42 356.729 139.247 358.115 133.981 358.115C128.715 358.115 123.542 356.729 118.981 354.096L111.074 349.531C106.513 346.898 102.726 343.11 100.093 338.55C97.4601 333.989 96.0739 328.816 96.074 323.55V314.42C96.0739 309.154 97.4601 303.98 100.093 299.42C102.726 294.859 106.513 291.072 111.074 288.439L118.981 283.875Z" fill="#4F27AA"/>
<path d="M147.519 310.805L131.542 326.655L121.956 317.145" stroke="white" stroke-width="8.45" stroke-linecap="round" stroke-linejoin="round"/>
<path d="M626.034 96.9021C630.595 94.269 635.768 92.8828 641.034 92.8828C646.3 92.8828 651.473 94.269 656.034 96.9021L663.941 101.467C668.502 104.1 672.289 107.887 674.922 112.448C677.555 117.009 678.941 122.182 678.941 127.448V136.578C678.941 141.844 677.555 147.017 674.922 151.578C672.288 156.138 668.501 159.925 663.941 162.558L656.034 167.123C651.473 169.756 646.3 171.142 641.034 171.142C635.768 171.142 630.595 169.756 626.034 167.123L618.127 162.558C613.566 159.925 609.779 156.138 607.146 151.578C604.513 147.017 603.127 141.844 603.127 136.578V127.448C603.127 122.182 604.513 117.009 607.146 112.448C609.779 107.887 613.566 104.1 618.127 101.467L626.034 96.9021Z" fill="#4F27AA"/>
<path d="M654.572 123.836L638.595 139.685L629.009 130.175" stroke="white" stroke-width="8.45" stroke-linecap="round" stroke-linejoin="round"/>
</g>
<defs>
<linearGradient id="paint0_linear_1235_28794" x1="314.586" y1="350.867" x2="640.223" y2="166.919" gradientUnits="userSpaceOnUse">
<stop stop-color="white"/>
<stop offset="1" stop-color="#EEEEEE"/>
</linearGradient>
<linearGradient id="paint1_linear_1235_28794" x1="599.937" y1="274.465" x2="756.695" y2="150.469" gradientUnits="userSpaceOnUse">
<stop stop-color="white"/>
<stop offset="1" stop-color="#EEEEEE"/>
</linearGradient>
<linearGradient id="paint2_linear_1235_28794" x1="265.702" y1="501.057" x2="-5.10597" y2="249.439" gradientUnits="userSpaceOnUse">
<stop stop-color="white"/>
<stop offset="1" stop-color="#EEEEEE"/>
</linearGradient>
<clipPath id="clip0_1235_28794">
<rect width="900" height="600" fill="white"/>
</clipPath>
</defs>
</svg>
