<svg width="900" height="600" viewBox="0 0 900 600" fill="none" xmlns="http://www.w3.org/2000/svg">
<g clip-path="url(#clip0_1235_28831)">
<path d="M743.907 396.793H690.474C677.381 396.793 666.411 387.882 666.411 376.595C666.411 370.951 669.242 365.901 673.489 362.337C677.735 358.773 683.751 356.396 690.474 356.396H698.259C704.982 356.396 710.998 354.02 715.244 350.456C719.491 346.891 722.322 341.842 722.322 336.198C722.322 325.208 711.706 316 698.259 316H535.056C530.792 316 528.052 310.759 528.052 306.495C528.052 295.802 517.79 287.188 505.051 287.188H444.317C442.794 287.168 441.34 286.549 440.27 285.465C439.2 284.381 438.6 282.919 438.6 281.396C438.6 279.873 439.2 278.411 440.27 277.327C441.34 276.243 442.794 275.623 444.317 275.603H677.027C687.289 275.603 696.844 272.039 703.567 266.395C710.29 260.752 714.537 252.732 714.537 244.118C714.537 226.593 697.551 212.632 677.027 212.632H556.836C537.977 212.632 519.309 198.077 500.451 198.077H433.346C423.503 198.077 415.524 190.098 415.524 180.255C415.524 170.413 423.503 162.433 433.346 162.433H583.608C590.685 162.433 597.409 160.057 602.009 156.196C606.609 152.334 609.44 146.988 609.44 140.75C609.44 128.869 597.762 119.066 583.608 119.066H237.178C230.1 119.066 223.377 121.443 218.777 125.304C214.177 129.166 211.346 134.512 211.346 140.75C211.346 152.631 223.023 162.433 237.178 162.433H246.024C257.702 162.433 267.61 170.453 267.61 180.552C267.61 185.602 265.133 190.058 261.24 193.325C257.348 196.592 252.04 198.671 246.024 198.671H203.207C195.776 198.671 188.699 201.345 183.745 205.503C178.791 209.662 175.606 215.305 175.606 221.84C175.606 234.613 187.991 244.712 202.853 244.712H246.378C260.533 244.712 272.21 254.514 272.21 266.395C272.21 272.336 269.379 277.682 264.779 281.544C260.179 285.405 253.809 287.782 246.732 287.782H207.807C201.438 287.782 195.776 289.861 191.53 293.425C187.283 296.99 184.806 301.742 184.806 307.089C184.806 317.782 195.068 326.396 207.807 326.396H239.301C257.348 326.396 271.856 338.574 271.856 353.723C271.856 361.149 268.318 368.278 262.302 373.03C256.286 378.08 248.147 381.05 239.301 381.05H195.422C186.576 381.05 178.437 384.021 172.775 389.07C166.759 393.823 163.221 400.654 163.221 408.08C163.221 422.932 177.729 435.11 195.422 435.11H330.912C345.875 435.11 360.574 443.427 375.537 443.427H400.214C409.646 443.427 417.293 451.074 417.293 460.507C417.293 469.939 409.646 477.586 400.214 477.586H340.151C332.366 477.586 325.643 480.259 320.689 484.418C315.735 488.576 312.55 494.517 312.55 500.755C312.55 513.527 324.935 523.923 340.151 523.923H708.167C715.952 523.923 722.675 521.25 727.629 517.092C732.583 512.933 735.768 506.992 735.768 500.755C735.768 487.982 723.383 477.586 708.167 477.586H697.197C685.874 477.586 677.027 469.863 677.027 460.655C677.027 455.903 679.15 451.744 683.043 448.774C686.582 445.804 691.889 443.724 697.551 443.724H743.907C751.692 443.724 758.415 441.051 763.369 436.893C768.324 432.734 771.508 426.793 771.508 420.556C771.508 407.189 759.123 396.793 743.907 396.793Z" fill="url(#paint0_linear_1235_28831)"/>
<path d="M785.365 491.126C772.398 497.559 755.189 489.288 755.189 489.288C755.189 489.288 759.013 470.593 771.987 464.17C784.953 457.738 802.156 465.999 802.156 465.999C802.156 465.999 798.331 484.694 785.365 491.126Z" fill="url(#paint1_linear_1235_28831)"/>
<path d="M81.8901 371.665C100.824 383.013 127.988 372.523 127.988 372.523C127.988 372.523 124.436 343.638 105.491 332.303C86.5571 320.955 59.4041 331.432 59.4041 331.432C59.4041 331.432 62.9561 360.317 81.8901 371.665Z" fill="url(#paint2_linear_1235_28831)"/>
<path d="M640.334 159.986C635.471 159.986 631.528 163.928 631.528 168.792C631.528 173.655 635.471 177.598 640.334 177.598C645.198 177.598 649.14 173.655 649.14 168.792C649.14 163.928 645.198 159.986 640.334 159.986Z" fill="#4F27AA"/>
<path d="M623.324 504.55C614.178 504.55 606.763 511.964 606.763 521.111C606.763 530.257 614.178 537.672 623.324 537.672C632.47 537.672 639.885 530.257 639.885 521.111C639.885 511.964 632.47 504.55 623.324 504.55Z" fill="#4F27AA"/>
<path d="M211.816 504.999C204.556 504.999 198.67 499.113 198.67 491.853C198.67 484.593 204.556 478.707 211.816 478.707C219.076 478.707 224.962 484.593 224.962 491.853C224.962 499.113 219.076 504.999 211.816 504.999Z" fill="#4F27AA"/>
<path d="M841.771 279.1C836.91 279.1 832.969 275.159 832.969 270.298C832.969 265.437 836.91 261.496 841.771 261.496C846.632 261.496 850.573 265.437 850.573 270.298C850.573 275.159 846.632 279.1 841.771 279.1Z" fill="#4F27AA"/>
<path d="M110.57 495.247C101.542 495.247 94.224 487.928 94.224 478.901C94.224 469.873 101.542 462.555 110.57 462.555C119.598 462.555 126.916 469.873 126.916 478.901C126.916 487.928 119.598 495.247 110.57 495.247Z" fill="#E1E4E5"/>
<path d="M749.492 385.144C742.621 385.144 737.051 379.574 737.051 372.703C737.051 365.832 742.621 360.262 749.492 360.262C756.363 360.262 761.933 365.832 761.933 372.703C761.933 379.574 756.363 385.144 749.492 385.144Z" fill="#E1E4E5"/>
<path d="M688.083 95.4263C679.447 95.4263 672.446 88.4254 672.446 79.7893C672.446 71.1533 679.447 64.1523 688.083 64.1523C696.719 64.1523 703.72 71.1533 703.72 79.7893C703.72 88.4254 696.719 95.4263 688.083 95.4263Z" fill="#E1E4E5"/>
<path d="M178.501 150.447C180.276 157.072 176.344 163.883 169.719 165.658C163.093 167.433 156.283 163.501 154.507 156.876C152.732 150.25 156.664 143.44 163.29 141.664C169.915 139.889 176.726 143.821 178.501 150.447Z" fill="#E1E4E5"/>
<path d="M295.95 95.046C286.824 95.046 279.427 87.6484 279.427 78.523C279.427 69.3976 286.824 62 295.95 62C305.075 62 312.473 69.3976 312.473 78.523C312.473 87.6484 305.075 95.046 295.95 95.046Z" fill="#E1E4E5"/>
<path d="M627.01 406.441C619.99 406.441 614.3 401.889 614.3 396.273C614.3 390.658 619.99 386.105 627.01 386.105C634.03 386.105 639.72 390.658 639.72 396.273C639.72 401.889 634.03 406.441 627.01 406.441Z" fill="#E1E4E5"/>
<path d="M184.116 78.1523H184.297C185.369 93.3433 196.667 93.5773 196.667 93.5773C196.667 93.5773 184.209 93.8213 184.209 111.373C184.209 93.8213 171.751 93.5773 171.751 93.5773C171.751 93.5773 183.044 93.3433 184.116 78.1533V78.1523ZM282.871 452.001H283.045C284.075 467.147 294.921 467.38 294.921 467.38C294.921 467.38 282.961 467.622 282.961 485.123C282.961 467.622 271 467.38 271 467.38C271 467.38 281.842 467.147 282.871 452.001Z" fill="#E1E4E5"/>
<path d="M153.562 321.383H743.396" stroke="#E1E4E5" stroke-width="11" stroke-linecap="round"/>
<path d="M552.926 212.123C552.926 155.379 506.926 109.379 450.182 109.379C393.438 109.379 347.438 155.379 347.438 212.123C347.438 268.867 393.438 314.867 450.182 314.867C506.926 314.867 552.926 268.867 552.926 212.123Z" fill="#4F27AA"/>
<mask id="mask0_1235_28831" style="mask-type:alpha" maskUnits="userSpaceOnUse" x="345" y="109" width="206" height="206">
<path d="M550.598 212.123C550.598 155.379 504.598 109.379 447.854 109.379C391.11 109.379 345.11 155.379 345.11 212.123C345.11 268.867 391.11 314.867 447.854 314.867C504.598 314.867 550.598 268.867 550.598 212.123Z" fill="#4F27AA"/>
</mask>
<g mask="url(#mask0_1235_28831)">
<g opacity="0.5">
<path d="M244.206 158.844C230.194 181.848 221.022 207.793 217.459 234.501C215.255 251.025 216.028 269.975 228.175 281.374C237.278 289.919 250.697 292.045 263.165 291.585C275.633 291.126 288.032 288.502 300.487 289.235C312.941 289.969 326.13 294.892 332.449 305.666C338.429 315.861 336.94 328.561 336.207 340.362C335.476 352.164 336.356 365.561 345.25 373.336C357.846 384.348 378.369 377.544 393.218 385.243C407.301 392.545 413.02 411.175 427.531 417.581C439.661 422.938 453.622 417.96 465.889 412.932C478.677 407.689 491.439 402.381 504.174 397.01" stroke="white" stroke-width="1.149"/>
<path d="M258.841 143.625C245.126 166.092 236.147 191.431 232.66 217.517C230.503 233.655 231.259 252.163 243.149 263.297C252.059 271.642 265.194 273.719 277.398 273.269C289.602 272.821 301.738 270.258 313.93 270.975C326.122 271.691 339.032 276.501 345.217 287.022C351.07 296.98 349.612 309.383 348.895 320.909C348.178 332.435 349.039 345.519 357.746 353.114C370.076 363.87 390.165 357.224 404.699 364.743C418.484 371.875 424.082 390.07 438.287 396.328C450.158 401.558 463.824 396.698 475.833 391.786C488.35 386.666 500.842 381.482 513.307 376.237" stroke="white" stroke-width="1.149"/>
<path d="M272.715 128.402C259.296 150.4 250.512 175.21 247.101 200.751C244.989 216.552 245.73 234.674 257.362 245.574C266.08 253.745 278.931 255.777 290.871 255.338C302.812 254.898 314.685 252.39 326.613 253.091C338.542 253.793 351.171 258.501 357.223 268.803C362.951 278.552 361.523 290.697 360.822 301.982C360.121 313.267 360.963 326.078 369.482 333.514C381.545 344.045 401.199 337.538 415.42 344.901C428.907 351.884 434.384 369.698 448.28 375.825C459.896 380.946 473.266 376.187 485.015 371.378C497.262 366.365 509.483 361.29 521.679 356.153" stroke="white" stroke-width="1.149"/>
<path d="M287.277 113.18C274.19 134.641 265.626 158.846 262.298 183.764C260.239 199.179 260.962 216.859 272.305 227.494C280.806 235.465 293.337 237.449 304.98 237.02C316.624 236.591 328.203 234.143 339.834 234.828C351.466 235.512 363.782 240.105 369.683 250.156C375.268 259.668 373.877 271.516 373.193 282.526C372.509 293.537 373.331 306.034 381.636 313.289C393.4 323.562 412.567 317.215 426.433 324.397C439.585 331.21 444.924 348.59 458.476 354.568C469.803 359.564 482.842 354.921 494.297 350.23C506.239 345.338 518.157 340.386 530.05 335.375" stroke="white" stroke-width="1.149"/>
<path d="M301.151 97.1992C288.361 118.192 279.99 141.866 276.738 166.24C274.726 181.317 275.432 198.61 286.518 209.013C294.827 216.809 307.074 218.75 318.453 218.33C329.833 217.911 341.15 215.517 352.517 216.186C363.885 216.856 375.922 221.349 381.689 231.179C387.148 240.483 385.789 252.072 385.119 262.841C384.451 273.611 385.254 285.835 393.372 292.932C404.869 302.98 423.601 296.771 437.154 303.796C450.007 310.461 455.226 327.46 468.471 333.307C479.541 338.194 492.283 333.653 503.48 329.064C515.152 324.28 526.799 319.437 538.422 314.535" stroke="white" stroke-width="1.149"/>
<path d="M315.711 81.9766C303.256 102.432 295.103 125.503 291.935 149.252C289.976 163.946 290.664 180.796 301.46 190.932C309.553 198.53 321.48 200.42 332.562 200.012C343.647 199.604 354.666 197.27 365.738 197.922C376.809 198.575 388.533 202.953 394.149 212.533C399.465 221.598 398.141 232.892 397.49 243.386C396.839 253.879 397.62 265.791 405.527 272.707C416.723 282.498 434.966 276.448 448.165 283.294C460.684 289.788 465.767 306.352 478.667 312.05C489.448 316.812 501.857 312.387 512.762 307.915C524.129 303.253 535.473 298.533 546.793 293.757" stroke="white" stroke-width="1.149"/>
<path d="M330.347 66.7539C318.188 86.6739 310.229 109.139 307.137 132.265C305.225 146.573 305.896 162.981 316.436 172.853C324.335 180.25 335.978 182.091 346.797 181.694C357.616 181.295 368.374 179.024 379.182 179.659C389.989 180.295 401.434 184.558 406.917 193.886C412.106 202.714 410.814 213.71 410.178 223.929C409.542 234.148 410.305 245.748 418.024 252.481C428.954 262.016 446.762 256.124 459.647 262.791C471.868 269.115 476.83 285.245 489.422 290.793C499.947 295.43 512.06 291.121 522.706 286.767C533.802 282.226 544.876 277.631 555.927 272.98" stroke="white" stroke-width="1.149"/>
<path d="M344.22 51.5352C332.331 71.0626 324.621 92.8436 321.577 115.502C319.711 129.472 320.366 145.494 330.648 155.132C338.355 162.356 349.714 164.154 360.269 163.765C370.824 163.377 381.32 161.158 391.865 161.779C402.409 162.4 413.573 166.562 418.923 175.67C423.986 184.29 422.725 195.027 422.105 205.006C421.485 214.983 422.23 226.31 429.76 232.885C440.423 242.195 457.797 236.442 470.367 242.952C482.29 249.125 487.131 264.876 499.415 270.293C509.683 274.821 521.503 270.614 531.889 266.362C542.715 261.929 553.518 257.442 564.299 252.9" stroke="white" stroke-width="1.149"/>
<path d="M358.782 36.3125C347.226 55.3025 339.733 76.4823 336.776 98.5145C334.962 112.099 335.599 127.679 345.592 137.051C353.082 144.076 364.122 145.825 374.38 145.447C384.639 145.069 394.839 142.911 405.086 143.514C415.334 144.118 426.185 148.165 431.384 157.023C436.305 165.404 435.079 175.846 434.476 185.548C433.874 195.251 434.598 206.265 441.916 212.658C452.279 221.712 469.165 216.119 481.381 222.449C492.968 228.453 497.673 243.767 509.612 249.035C519.591 253.438 531.078 249.347 541.172 245.212C551.693 240.902 562.193 236.539 572.671 232.122" stroke="white" stroke-width="1.149"/>
<path d="M372.655 20.332C361.423 38.776 354.071 59.578 351.216 80.991C349.448 94.238 350.069 109.432 359.805 118.571C367.102 125.421 377.857 127.126 387.852 126.758C397.847 126.39 407.785 124.285 417.768 124.873C427.752 125.462 438.325 129.409 443.389 138.047C448.183 146.221 446.989 156.403 446.403 165.864C445.815 175.327 446.519 186.067 453.65 192.301C463.747 201.13 480.198 195.674 492.1 201.847C503.39 207.703 507.973 222.638 519.606 227.775C529.328 232.069 540.519 228.079 550.352 224.047C560.604 219.844 570.834 215.589 581.042 211.282" stroke="white" stroke-width="1.149"/>
<path d="M387.216 5.10938C376.318 23.0164 369.184 43.2134 366.413 64.0024C364.698 76.8654 365.3 91.6164 374.747 100.49C381.827 107.14 392.264 108.795 401.962 108.438C411.658 108.08 421.302 106.037 430.99 106.609C440.677 107.181 450.936 111.013 455.85 119.399C460.501 127.336 459.342 137.221 458.773 146.408C458.203 155.594 458.887 166.022 465.806 172.075C475.603 180.648 491.565 175.351 503.114 181.344C514.068 187.028 518.516 201.529 529.801 206.517C539.236 210.686 550.095 206.812 559.636 202.897C569.582 198.816 579.508 194.685 589.413 190.504" stroke="white" stroke-width="1.149"/>
<path d="M401.852 -10.1133C391.226 7.32477 384.335 26.7783 381.614 47.0167C379.947 59.4917 380.533 73.8017 389.722 82.4097C396.61 88.8607 406.762 90.4667 416.196 90.1197C425.63 89.7727 435.011 87.7907 444.434 88.3457C453.857 88.8997 463.836 92.6177 468.618 100.753C473.143 108.451 472.015 118.04 471.461 126.952C470.907 135.863 471.573 145.978 478.303 151.85C487.833 160.165 503.361 155.028 514.596 160.842C525.251 166.356 529.578 180.422 540.557 185.26C549.735 189.304 560.298 185.547 569.579 181.749C579.255 177.79 588.911 173.782 598.547 169.727" stroke="white" stroke-width="1.149"/>
<path d="M415.725 -25.332C405.397 -8.36243 398.699 10.5642 396.054 30.253C394.433 42.393 395.002 56.315 403.935 64.692C410.63 70.969 420.499 72.53 429.668 72.193C438.838 71.855 447.956 69.927 457.117 70.466C466.277 71.006 475.976 74.622 480.624 82.537C485.022 90.027 483.926 99.358 483.388 108.029C482.849 116.699 483.496 126.542 490.038 132.255C499.303 140.345 514.396 135.346 525.315 141.003C535.673 146.368 539.879 160.054 550.551 164.762C559.472 168.696 569.739 165.04 578.761 161.345C588.166 157.494 597.552 153.595 606.918 149.648" stroke="white" stroke-width="1.149"/>
<path d="M430.287 -40.5547C420.291 -24.1226 413.81 -5.79721 411.252 13.2653C409.683 25.0203 410.234 38.5013 418.877 46.6103C425.357 52.6883 434.905 54.2003 443.779 53.8733C452.651 53.5463 461.474 51.6793 470.338 52.2013C479.202 52.7243 488.587 56.2253 493.084 63.8893C497.34 71.1433 496.28 80.1773 495.758 88.5723C495.237 96.9673 495.863 106.497 502.193 112.028C511.158 119.862 525.762 115.022 536.329 120.499C546.351 125.694 550.421 138.946 560.748 143.503C569.379 147.313 579.315 143.773 588.045 140.196C597.145 136.466 606.227 132.691 615.29 128.869" stroke="white" stroke-width="1.149"/>
</g>
<path d="M449.018 278.5C485.793 278.5 515.604 248.689 515.604 211.914C515.604 175.14 485.793 145.328 449.018 145.328C412.244 145.328 382.432 175.14 382.432 211.914C382.432 248.689 412.244 278.5 449.018 278.5Z" fill="white"/>
<path d="M472.293 198.312L443.051 228.094L425.495 210.228" stroke="#4F27AA" stroke-width="11.204" stroke-linecap="round" stroke-linejoin="round"/>
<path d="M483.279 509.555C483.279 509.555 478.107 464.995 463.979 446.352C450 427.907 404.646 387.788 386.377 342.634C386.203 342.213 386.181 341.744 386.316 341.309C386.451 340.874 386.733 340.5 387.115 340.251C389.914 338.459 397.181 335.95 408.14 347.858C422.379 363.382 433.588 374.985 433.588 374.985C433.588 374.985 433.06 284.081 434.748 259.437C435.079 254.572 435.891 250.696 437.022 247.566C440.554 237.807 455.063 240.379 455.265 250.758L456.468 311.49C456.468 311.49 459.669 305.361 465.834 305.737C471.665 306.107 478.013 315.465 477.654 324.996C477.654 324.996 481.828 318.417 489.38 321.203C496.931 323.99 499.607 334.898 499.817 340.451C499.817 340.451 502.437 333.312 508.453 333.751C514.469 334.191 520.311 345.466 520.967 349.403C521.622 353.339 532.795 385.034 527.265 437.01L558.672 496.603C558.672 496.603 548.203 519.81 483.279 509.555Z" fill="#F8AE9D"/>
</g>
</g>
<defs>
<linearGradient id="paint0_linear_1235_28831" x1="480.334" y1="750.91" x2="472.025" y2="-321.43" gradientUnits="userSpaceOnUse">
<stop stop-color="white"/>
<stop offset="1" stop-color="#EEEEEE"/>
</linearGradient>
<linearGradient id="paint1_linear_1235_28831" x1="735.572" y1="511.19" x2="842.52" y2="426.594" gradientUnits="userSpaceOnUse">
<stop stop-color="white"/>
<stop offset="1" stop-color="#EEEEEE"/>
</linearGradient>
<linearGradient id="paint2_linear_1235_28831" x1="155.16" y1="408.194" x2="2.80904" y2="266.64" gradientUnits="userSpaceOnUse">
<stop stop-color="white"/>
<stop offset="1" stop-color="#EEEEEE"/>
</linearGradient>
<clipPath id="clip0_1235_28831">
<rect width="900" height="600" fill="white"/>
</clipPath>
</defs>
</svg>
