<svg width="900" height="600" viewBox="0 0 900 600" fill="none" xmlns="http://www.w3.org/2000/svg">
<g clip-path="url(#clip0_1235_28875)">
<path d="M506.307 280.269C506.307 236.544 470.861 201.098 427.137 201.098C383.412 201.098 347.966 236.544 347.966 280.269V434.427C347.966 478.152 383.412 513.598 427.137 513.598C470.861 513.598 506.307 478.152 506.307 434.427V280.269Z" fill="white" stroke="#E1E4E5" stroke-width="11"/>
<path d="M270.397 434.428C270.397 390.704 234.951 355.258 191.226 355.258C147.502 355.258 112.056 390.704 112.056 434.428C112.056 478.153 147.502 513.599 191.226 513.599C234.951 513.599 270.397 478.153 270.397 434.428Z" fill="white" stroke="#E1E4E5" stroke-width="11"/>
<path d="M151.274 315.304C151.274 304.475 142.495 295.695 131.665 295.695C120.835 295.695 112.056 304.475 112.056 315.304C112.056 326.134 120.835 334.913 131.665 334.913C142.495 334.913 151.274 326.134 151.274 315.304Z" fill="white" stroke="#E1E4E5" stroke-width="11"/>
<path d="M742.217 206.694C742.217 162.969 706.771 127.523 663.047 127.523C619.322 127.523 583.876 162.969 583.876 206.694V434.428C583.876 478.153 619.322 513.599 663.047 513.599C706.771 513.599 742.217 478.153 742.217 434.428V206.694Z" fill="white" stroke="#E1E4E5" stroke-width="11"/>
<path d="M81.7639 513.601H772.461M112.056 219.297H317.112M112.056 256.669H317.112" stroke="#E1E4E5" stroke-width="11" stroke-linecap="round"/>
<path d="M390.644 378.42L427.137 315.213L463.629 378.42H390.644ZM779.793 260.129L843 296.621L779.793 333.114V260.129Z" fill="white" stroke="#E1E4E5" stroke-width="11"/>
<path d="M682.662 255.914C682.662 245.084 673.883 236.305 663.053 236.305C652.223 236.305 643.444 245.084 643.444 255.914C643.444 266.743 652.223 275.523 663.053 275.523C673.883 275.523 682.662 266.743 682.662 255.914Z" fill="white" stroke="#E1E4E5" stroke-width="11"/>
<path d="M682.662 315.476C682.662 304.646 673.883 295.867 663.053 295.867C652.223 295.867 643.444 304.646 643.444 315.476C643.444 326.306 652.223 335.085 663.053 335.085C673.883 335.085 682.662 326.306 682.662 315.476Z" fill="white" stroke="#E1E4E5" stroke-width="11"/>
<path d="M682.662 375.039C682.662 364.209 673.883 355.43 663.053 355.43C652.223 355.43 643.444 364.209 643.444 375.039C643.444 385.868 652.223 394.648 663.053 394.648C673.883 394.648 682.662 385.868 682.662 375.039Z" fill="white" stroke="#E1E4E5" stroke-width="11"/>
<path d="M472.1 98.6633C472.1 103.178 475.76 106.838 480.275 106.838C484.79 106.838 488.45 103.178 488.45 98.6633C488.45 94.1483 484.79 90.4883 480.275 90.4883C475.76 90.4883 472.1 94.1483 472.1 98.6633Z" fill="#E1E4E5"/>
<path d="M472.1 131.366C472.1 135.881 475.76 139.541 480.275 139.541C484.79 139.541 488.45 135.881 488.45 131.366C488.45 126.851 484.79 123.191 480.275 123.191C475.76 123.191 472.1 126.851 472.1 131.366Z" fill="#E1E4E5"/>
<path d="M472.1 164.066C472.1 168.581 475.76 172.241 480.275 172.241C484.79 172.241 488.45 168.581 488.45 164.066C488.45 159.551 484.79 155.891 480.275 155.891C475.76 155.891 472.1 159.551 472.1 164.066Z" fill="#E1E4E5"/>
<path d="M445.239 98.6633C445.239 103.178 448.899 106.838 453.414 106.838C457.929 106.838 461.589 103.178 461.589 98.6633C461.589 94.1483 457.929 90.4883 453.414 90.4883C448.899 90.4883 445.239 94.1483 445.239 98.6633Z" fill="#E1E4E5"/>
<path d="M445.239 131.366C445.239 135.881 448.899 139.541 453.414 139.541C457.929 139.541 461.589 135.881 461.589 131.366C461.589 126.851 457.929 123.191 453.414 123.191C448.899 123.191 445.239 126.851 445.239 131.366Z" fill="#E1E4E5"/>
<path d="M445.239 164.066C445.239 168.581 448.899 172.241 453.414 172.241C457.929 172.241 461.589 168.581 461.589 164.066C461.589 159.551 457.929 155.891 453.414 155.891C448.899 155.891 445.239 159.551 445.239 164.066Z" fill="#E1E4E5"/>
<path d="M418.377 98.6633C418.377 103.178 422.037 106.838 426.552 106.838C431.067 106.838 434.727 103.178 434.727 98.6633C434.727 94.1483 431.067 90.4883 426.552 90.4883C422.037 90.4883 418.377 94.1483 418.377 98.6633Z" fill="#E1E4E5"/>
<path d="M418.378 131.366C418.378 135.881 422.038 139.541 426.553 139.541C431.068 139.541 434.728 135.881 434.728 131.366C434.728 126.851 431.068 123.191 426.553 123.191C422.038 123.191 418.378 126.851 418.378 131.366Z" fill="#E1E4E5"/>
<path d="M418.378 164.066C418.378 168.581 422.038 172.241 426.553 172.241C431.068 172.241 434.728 168.581 434.728 164.066C434.728 159.551 431.068 155.891 426.553 155.891C422.038 155.891 418.378 159.551 418.378 164.066Z" fill="#E1E4E5"/>
<path d="M391.516 98.6633C391.516 103.178 395.176 106.838 399.691 106.838C404.206 106.838 407.866 103.178 407.866 98.6633C407.866 94.1484 404.206 90.4883 399.691 90.4883C395.176 90.4883 391.516 94.1484 391.516 98.6633Z" fill="#E1E4E5"/>
<path d="M391.517 131.366C391.517 135.881 395.177 139.541 399.692 139.541C404.207 139.541 407.867 135.881 407.867 131.366C407.867 126.851 404.207 123.191 399.692 123.191C395.177 123.191 391.517 126.851 391.517 131.366Z" fill="#E1E4E5"/>
<path d="M391.517 164.066C391.517 168.581 395.177 172.241 399.692 172.241C404.207 172.241 407.867 168.581 407.867 164.066C407.867 159.551 404.207 155.891 399.692 155.891C395.177 155.891 391.517 159.551 391.517 164.066Z" fill="#E1E4E5"/>
<path d="M364.655 98.6633C364.655 103.178 368.315 106.838 372.83 106.838C377.345 106.838 381.005 103.178 381.005 98.6633C381.005 94.1483 377.345 90.4883 372.83 90.4883C368.315 90.4883 364.655 94.1483 364.655 98.6633Z" fill="#E1E4E5"/>
<path d="M364.656 131.366C364.656 135.881 368.316 139.541 372.831 139.541C377.346 139.541 381.006 135.881 381.006 131.366C381.006 126.851 377.346 123.191 372.831 123.191C368.316 123.191 364.656 126.851 364.656 131.366Z" fill="#E1E4E5"/>
<path d="M364.656 164.066C364.656 168.581 368.316 172.241 372.831 172.241C377.346 172.241 381.006 168.581 381.006 164.066C381.006 159.551 377.346 155.891 372.831 155.891C368.316 155.891 364.656 159.551 364.656 164.066Z" fill="#E1E4E5"/>
<path d="M200.168 94.4802C204.729 91.8471 209.902 90.4609 215.168 90.4609C220.434 90.4609 225.607 91.8471 230.168 94.4802L267.932 116.283C272.493 118.916 276.28 122.703 278.913 127.264C281.546 131.825 282.932 136.998 282.932 142.264V185.87C282.932 191.136 281.546 196.31 278.913 200.87C276.28 205.431 272.493 209.218 267.932 211.851L230.168 233.654C225.607 236.287 220.434 237.673 215.168 237.673C209.902 237.673 204.729 236.287 200.168 233.654L162.404 211.851C157.843 209.218 154.056 205.431 151.423 200.87C148.79 196.31 147.404 191.136 147.404 185.87V142.264C147.404 136.998 148.79 131.825 151.423 127.264C154.056 122.703 157.843 118.916 162.404 116.283L200.168 94.4802Z" fill="#4F27AA"/>
<path d="M239.369 149.449L210.808 177.783L193.67 160.783" stroke="white" stroke-width="8.45" stroke-linecap="round" stroke-linejoin="round"/>
<path d="M542.397 385.306C535.947 385.306 530.718 390.535 530.718 396.985C530.718 403.435 535.947 408.664 542.397 408.664C548.847 408.664 554.076 403.435 554.076 396.985C554.076 390.535 548.847 385.306 542.397 385.306Z" fill="#4F27AA"/>
<path d="M293.975 346.195C285.284 346.195 278.239 339.149 278.239 330.459C278.239 321.768 285.284 314.723 293.975 314.723C302.666 314.723 309.711 321.768 309.711 330.459C309.711 339.149 302.666 346.195 293.975 346.195Z" fill="#4F27AA"/>
<path d="M541.479 240.539C535.661 240.539 530.944 235.822 530.944 230.004C530.944 224.185 535.661 219.469 541.479 219.469C547.297 219.469 552.014 224.185 552.014 230.004C552.014 235.822 547.297 240.539 541.479 240.539Z" fill="#4F27AA"/>
<path d="M66.5661 434.437C55.7601 434.437 47.0001 425.677 47.0001 414.871C47.0001 404.065 55.7601 395.305 66.5661 395.305C77.3721 395.305 86.1321 404.065 86.1321 414.871C86.1321 425.677 77.3721 434.437 66.5661 434.437Z" fill="#E1E4E5"/>
<path d="M772.578 443.118C768.593 443.118 765.363 439.887 765.363 435.903C765.363 431.918 768.593 428.688 772.578 428.688C776.563 428.688 779.793 431.918 779.793 435.903C779.793 439.887 776.563 443.118 772.578 443.118Z" fill="#E1E4E5"/>
<path d="M784.512 197.934C776.45 197.934 769.914 191.399 769.914 183.336C769.914 175.274 776.45 168.738 784.512 168.738C792.574 168.738 799.11 175.274 799.11 183.336C799.11 191.399 792.574 197.934 784.512 197.934Z" fill="#E1E4E5"/>
<path d="M100.926 94.8366C103.051 102.768 98.3444 110.92 90.4133 113.045C82.4823 115.17 74.3302 110.463 72.205 102.532C70.0799 94.6013 74.7866 86.4491 82.7176 84.324C90.6486 82.1989 98.8008 86.9055 100.926 94.8366Z" fill="#E1E4E5"/>
<path d="M542.776 332.534C535.358 332.534 529.345 326.521 529.345 319.103C529.345 311.685 535.358 305.672 542.776 305.672C550.194 305.672 556.207 311.685 556.207 319.103C556.207 326.521 550.194 332.534 542.776 332.534Z" fill="#E1E4E5"/>
</g>
<defs>
<clipPath id="clip0_1235_28875">
<rect width="900" height="600" fill="white"/>
</clipPath>
</defs>
</svg>
