<svg width="900" height="600" viewBox="0 0 900 600" fill="none" xmlns="http://www.w3.org/2000/svg">
<g clip-path="url(#clip0_1235_28911)">
<path d="M828.409 351.047C814.075 358.157 795.051 349.014 795.051 349.014C795.051 349.014 799.279 328.348 813.62 321.248C827.954 314.138 846.97 323.27 846.97 323.27C846.97 323.27 842.742 343.936 828.409 351.047Z" fill="url(#paint0_linear_1235_28911)"/>
<path d="M100.947 147.78C122.524 160.712 153.481 148.758 153.481 148.758C153.481 148.758 149.433 115.84 127.843 102.923C106.266 89.9908 75.3218 101.931 75.3218 101.931C75.3218 101.931 79.3698 134.848 100.947 147.78Z" fill="url(#paint1_linear_1235_28911)"/>
<path d="M116.772 209.105C107.52 209.105 100.02 216.606 100.02 225.857C100.02 235.109 107.52 242.609 116.772 242.609C126.024 242.609 133.524 235.109 133.524 225.857C133.524 216.606 126.024 209.105 116.772 209.105Z" fill="#4F27AA"/>
<path d="M200.186 527.953C189.65 527.953 181.108 519.411 181.108 508.875C181.108 498.338 189.65 489.797 200.186 489.797C210.723 489.797 219.264 498.338 219.264 508.875C219.264 519.411 210.723 527.953 200.186 527.953Z" fill="#4F27AA"/>
<path d="M689.014 289.286C684.097 289.286 680.111 285.3 680.111 280.383C680.111 275.466 684.097 271.48 689.014 271.48C693.931 271.48 697.917 275.466 697.917 280.383C697.917 285.3 693.931 289.286 689.014 289.286Z" fill="#4F27AA"/>
<path d="M165.319 58.9096C158.997 58.9096 153.872 53.7846 153.872 47.4626C153.872 41.1406 158.997 36.0156 165.319 36.0156C171.641 36.0156 176.766 41.1406 176.766 47.4626C176.766 53.7846 171.641 58.9096 165.319 58.9096Z" fill="#E1E4E5"/>
<path d="M63.5339 351.334C54.4024 351.334 46.9999 343.931 46.9999 334.8C46.9999 325.668 54.4024 318.266 63.5339 318.266C72.6653 318.266 80.0679 325.668 80.0679 334.8C80.0679 343.931 72.6653 351.334 63.5339 351.334Z" fill="#E1E4E5"/>
<path d="M728.19 159.742C723.543 159.742 719.776 155.975 719.776 151.328C719.776 146.681 723.543 142.914 728.19 142.914C732.837 142.914 736.604 146.681 736.604 151.328C736.604 155.975 732.837 159.742 728.19 159.742Z" fill="#E1E4E5"/>
<path d="M792.02 188.012C792.02 194.951 786.395 200.575 779.457 200.575C772.519 200.575 766.894 194.951 766.894 188.012C766.894 181.074 772.519 175.449 779.457 175.449C786.395 175.449 792.02 181.074 792.02 188.012Z" fill="#E1E4E5"/>
<path d="M288.424 47.5585C283.777 47.5585 280.01 43.7914 280.01 39.1445C280.01 34.4975 283.777 30.7305 288.424 30.7305C293.071 30.7305 296.838 34.4975 296.838 39.1445C296.838 43.7914 293.071 47.5585 288.424 47.5585Z" fill="#E1E4E5"/>
<path d="M821.595 477.605C814.495 477.605 808.739 473 808.739 467.32C808.739 461.64 814.495 457.035 821.595 457.035C828.695 457.035 834.451 461.64 834.451 467.32C834.451 473 828.695 477.605 821.595 477.605Z" fill="#E1E4E5"/>
<path d="M218.111 307.348H218.448C220.439 335.567 241.425 336.001 241.425 336.001C241.425 336.001 218.284 336.453 218.284 369.059C218.284 336.453 195.142 336.001 195.142 336.001C195.142 336.001 216.12 335.567 218.111 307.348ZM149.453 402.471H149.629C150.67 417.791 161.642 418.027 161.642 418.027C161.642 418.027 149.543 418.272 149.543 435.975C149.543 418.272 137.445 418.027 137.445 418.027C137.445 418.027 148.412 417.791 149.453 402.471Z" fill="#E1E4E5"/>
<path d="M777.046 385.874H716.342C701.468 385.874 689.005 375.775 689.005 362.982C689.005 356.586 692.221 350.863 697.046 346.824C701.87 342.784 708.704 340.091 716.342 340.091H725.187C732.825 340.091 739.659 337.398 744.483 333.358C749.307 329.318 752.524 323.596 752.524 317.199C752.524 304.744 740.463 294.308 725.187 294.308H539.751C534.921 294.308 531.818 288.366 531.818 283.536C531.818 271.417 520.16 261.654 505.687 261.654H436.673C434.932 261.654 433.262 260.963 432.031 259.731C430.8 258.5 430.108 256.831 430.108 255.09C430.108 253.349 430.8 251.679 432.031 250.448C433.262 249.217 434.932 248.525 436.673 248.525H701.066C712.724 248.525 723.579 244.486 731.217 238.089C738.855 231.693 743.679 222.604 743.679 212.842C743.679 192.98 724.383 177.158 701.066 177.158H564.494C543.081 177.158 521.874 160.663 500.461 160.663H424.176C413.021 160.663 403.978 151.62 403.978 140.464C403.978 129.309 413.021 120.266 424.176 120.266H594.934C602.974 120.266 610.613 117.573 615.839 113.197C621.065 108.82 624.281 102.761 624.281 95.6912C624.281 82.2262 611.015 71.1172 594.934 71.1172H201.363C193.322 71.1172 185.684 73.8102 180.458 78.1872C175.232 82.5632 172.016 88.6222 172.016 95.6912C172.016 109.157 185.282 120.266 201.363 120.266H211.413C224.679 120.266 235.936 129.355 235.936 140.801C235.936 146.524 233.122 151.573 228.7 155.276C224.277 158.979 218.247 161.336 211.413 161.336H162.769C154.327 161.336 146.287 164.366 140.659 169.079C135.03 173.792 131.412 180.188 131.412 187.594C131.412 202.069 145.483 213.515 162.367 213.515H211.815C227.896 213.515 241.162 224.624 241.162 238.089C241.162 244.822 237.946 250.882 232.72 255.258C227.494 259.634 220.257 262.327 212.217 262.327H167.996C160.759 262.327 154.327 264.684 149.503 268.724C144.679 272.763 141.865 278.149 141.865 284.209C141.865 296.328 153.523 306.09 167.996 306.09H203.775C224.277 306.09 240.76 319.893 240.76 337.061C240.76 345.477 236.74 353.556 229.906 358.943C223.071 364.665 213.825 368.032 203.775 368.032H153.925C143.875 368.032 134.628 371.398 128.196 377.121C121.362 382.507 117.342 390.25 117.342 398.666C117.342 415.498 133.824 429.3 153.925 429.3H307.863C324.858 429.3 341.555 438.726 358.55 438.726H386.631C397.321 438.726 405.988 447.392 405.988 458.083C405.988 468.773 397.321 477.439 386.631 477.439H318.349C309.504 477.439 301.866 480.469 296.238 485.182C290.61 489.895 286.992 496.628 286.992 503.697C286.992 518.173 301.062 529.955 318.349 529.955H736.443C745.287 529.955 752.926 526.925 758.554 522.212C764.182 517.499 767.8 510.766 767.8 503.697C767.8 489.222 753.73 477.439 736.443 477.439H723.981C711.116 477.439 701.066 468.687 701.066 458.251C701.066 452.865 703.478 448.152 707.9 444.785C711.92 441.419 717.95 439.063 724.383 439.063H777.046C785.891 439.063 793.529 436.033 799.157 431.32C804.785 426.607 808.403 419.874 808.403 412.805C808.403 397.656 794.333 385.874 777.046 385.874Z" fill="url(#paint2_linear_1235_28911)"/>
<mask id="mask0_1235_28911" style="mask-type:alpha" maskUnits="userSpaceOnUse" x="186" y="24" width="553" height="440">
<path d="M738.848 299.977C738.848 256.367 728.512 213.377 708.689 174.532C688.866 135.687 660.119 102.093 624.805 76.5033C580.546 44.4337 527.761 26.2282 473.142 24.195C418.523 22.1618 364.53 36.3925 318.009 65.0829C271.488 93.7733 234.534 135.631 211.831 185.35C189.129 235.069 181.7 290.409 190.488 344.354C197.501 387.398 214.614 428.166 240.426 463.318L293.545 424.313C273.897 397.556 260.869 366.522 255.531 333.757C250.193 300.992 252.695 267.428 262.834 235.817C272.973 204.207 290.458 175.448 313.858 151.9C337.257 128.352 365.905 110.685 397.451 100.347C428.997 90.0089 462.544 87.2941 495.342 92.4251C528.14 97.5562 559.255 110.387 586.137 129.866C613.018 149.345 634.901 174.917 649.991 204.486C665.08 234.056 672.947 266.78 672.947 299.977H738.848Z" fill="white"/>
</mask>
<g mask="url(#mask0_1235_28911)">
<path d="M738.848 299.977C738.848 256.367 728.512 213.377 708.689 174.532C688.866 135.687 660.119 102.093 624.805 76.5033C580.546 44.4337 527.761 26.2282 473.142 24.195C418.523 22.1618 364.53 36.3925 318.009 65.0829C271.488 93.7733 234.534 135.631 211.831 185.35C189.129 235.069 181.7 290.409 190.488 344.354C197.501 387.398 214.614 428.166 240.426 463.318L293.545 424.313C273.897 397.556 260.869 366.522 255.531 333.757C250.193 300.992 252.695 267.428 262.834 235.817C272.973 204.207 290.458 175.448 313.858 151.9C337.257 128.352 365.905 110.685 397.451 100.347C428.997 90.0089 462.544 87.2941 495.342 92.4251C528.14 97.5562 559.255 110.387 586.137 129.866C613.018 149.345 634.901 174.917 649.991 204.486C665.08 234.056 672.947 266.78 672.947 299.977H738.848Z" fill="white" stroke="#E1E4E5" stroke-width="22"/>
<path d="M462.872 517.825C583.186 517.825 680.72 420.291 680.72 299.977C680.72 179.663 583.186 82.1289 462.872 82.1289C342.558 82.1289 245.024 179.663 245.024 299.977C245.024 420.291 342.558 517.825 462.872 517.825Z" fill="white" stroke="#E1E4E5" stroke-width="11"/>
</g>
<mask id="mask1_1235_28911" style="mask-type:alpha" maskUnits="userSpaceOnUse" x="239" y="76" width="382" height="224">
<path d="M239.524 299.974C239.525 255.801 252.625 212.619 277.166 175.891C301.708 139.162 336.59 110.535 377.402 93.6305C418.213 76.726 463.12 72.3028 506.445 80.9202C549.77 89.5376 589.567 110.809 620.803 142.043L462.872 299.974H239.524Z" fill="white"/>
</mask>
<g mask="url(#mask1_1235_28911)">
<path d="M239.524 299.974C239.525 255.801 252.625 212.619 277.166 175.891C301.708 139.162 336.59 110.535 377.402 93.6305C418.213 76.726 463.12 72.3028 506.445 80.9202C549.77 89.5376 589.567 110.809 620.803 142.043L462.872 299.974H239.524Z" fill="white" stroke="#E1E4E5" stroke-width="22"/>
</g>
<mask id="mask2_1235_28911" style="mask-type:alpha" maskUnits="userSpaceOnUse" x="277" y="299" width="310" height="225">
<path d="M586.904 485.72C537.641 518.614 477.329 530.592 419.235 519.021C361.141 507.446 310.024 473.269 277.129 424.008L462.872 299.977L586.904 485.72Z" fill="white"/>
</mask>
<g mask="url(#mask2_1235_28911)">
<path d="M586.904 485.72C537.641 518.614 477.329 530.592 419.235 519.021C361.141 507.446 310.024 473.269 277.129 424.008L462.872 299.977L586.904 485.72Z" fill="white" stroke="#E1E4E5" stroke-width="22"/>
<path d="M588.533 400.968C582.33 400.968 577.301 395.939 577.301 389.736C577.301 383.533 582.33 378.504 588.533 378.504C594.736 378.504 599.765 383.533 599.765 389.736C599.765 395.939 594.736 400.968 588.533 400.968Z" fill="#E1E4E5"/>
<path d="M448.088 208.281C452.649 205.648 457.822 204.262 463.088 204.262C468.354 204.262 473.527 205.648 478.088 208.281L535.071 241.18C539.632 243.813 543.419 247.6 546.052 252.161C548.685 256.721 550.071 261.895 550.071 267.161V332.959C550.071 338.225 548.685 343.398 546.052 347.959C543.419 352.519 539.631 356.306 535.071 358.939L478.088 391.838C473.527 394.471 468.354 395.857 463.088 395.857C457.822 395.857 452.649 394.471 448.088 391.838L391.105 358.939C386.544 356.306 382.757 352.519 380.124 347.959C377.491 343.398 376.105 338.225 376.105 332.959V267.161C376.105 261.895 377.491 256.721 380.124 252.161C382.757 247.6 386.544 243.813 391.105 241.18L448.088 208.281Z" fill="#4F27AA"/>
<path d="M494.153 281.297L457.491 317.666L435.494 295.845" stroke="white" stroke-width="11" stroke-linecap="round" stroke-linejoin="round"/>
<path fill-rule="evenodd" clip-rule="evenodd" d="M295.342 248.371H246.729C236.034 248.371 227.283 257.121 227.283 267.816V316.43C227.283 327.125 236.034 335.875 246.729 335.875H295.342C306.037 335.875 314.788 327.125 314.788 316.43V267.816C314.788 257.121 306.037 248.371 295.342 248.371Z" fill="#4F27AA" stroke="#4F27AA" stroke-width="9.075" stroke-linecap="round" stroke-linejoin="round"/>
<path d="M264.23 277.539L279.786 292.123L264.23 306.707" stroke="white" stroke-width="11" stroke-linecap="round" stroke-linejoin="round"/>
</g>
</g>
<defs>
<linearGradient id="paint0_linear_1235_28911" x1="773.367" y1="373.225" x2="891.59" y2="279.71" gradientUnits="userSpaceOnUse">
<stop stop-color="white"/>
<stop offset="1" stop-color="#EEEEEE"/>
</linearGradient>
<linearGradient id="paint1_linear_1235_28911" x1="184.446" y1="189.408" x2="10.8268" y2="28.0928" gradientUnits="userSpaceOnUse">
<stop stop-color="white"/>
<stop offset="1" stop-color="#EEEEEE"/>
</linearGradient>
<linearGradient id="paint2_linear_1235_28911" x1="477.607" y1="787.206" x2="468.213" y2="-428.113" gradientUnits="userSpaceOnUse">
<stop stop-color="white"/>
<stop offset="1" stop-color="#EEEEEE"/>
</linearGradient>
<clipPath id="clip0_1235_28911">
<rect width="900" height="600" fill="white"/>
</clipPath>
</defs>
</svg>
