<svg width="900" height="600" viewBox="0 0 900 600" fill="none" xmlns="http://www.w3.org/2000/svg">
<g clip-path="url(#clip0_1235_28959)">
<path d="M785.21 277.934C755.123 292.859 715.192 273.669 715.192 273.669C715.192 273.669 724.066 230.29 754.168 215.387C784.255 200.462 824.17 219.631 824.17 219.631C824.17 219.631 815.296 263.01 785.21 277.934Z" fill="url(#paint0_linear_1235_28959)"/>
<path d="M157.881 325.988C177.385 337.678 205.369 326.871 205.369 326.871C205.369 326.871 201.71 297.116 182.193 285.439C162.688 273.749 134.717 284.542 134.717 284.542C134.717 284.542 138.376 314.297 157.881 325.988Z" fill="url(#paint1_linear_1235_28959)"/>
<path d="M713.428 136.999C704.355 136.999 697 144.355 697 153.427C697 162.5 704.355 169.855 713.428 169.855C722.501 169.855 729.856 162.5 729.856 153.427C729.856 144.355 722.501 136.999 713.428 136.999Z" fill="#4F27AA"/>
<path d="M343.243 146.16C339.358 146.16 336.208 149.31 336.208 153.195C336.208 157.081 339.358 160.23 343.243 160.23C347.128 160.23 350.278 157.081 350.278 153.195C350.278 149.31 347.128 146.16 343.243 146.16Z" fill="#4F27AA"/>
<path d="M642.463 379.134C634.994 379.134 628.94 385.188 628.94 392.657C628.94 400.125 634.994 406.18 642.463 406.18C649.931 406.18 655.986 400.125 655.986 392.657C655.986 385.188 649.931 379.134 642.463 379.134Z" fill="#4F27AA"/>
<path d="M723.26 328.19C719.291 328.19 716.073 324.973 716.073 321.003C716.073 317.034 719.291 313.816 723.26 313.816C727.23 313.816 730.447 317.034 730.447 321.003C730.447 324.973 727.23 328.19 723.26 328.19Z" fill="#4F27AA"/>
<path d="M687.796 506.99C682.692 506.99 678.555 502.852 678.555 497.749C678.555 492.645 682.692 488.508 687.796 488.508C692.9 488.508 697.037 492.645 697.037 497.749C697.037 502.852 692.9 506.99 687.796 506.99Z" fill="#E1E4E5"/>
<path d="M143.5 505C138.253 505 134 500.747 134 495.5C134 490.253 138.253 486 143.5 486C148.747 486 153 490.253 153 495.5C153 500.747 148.747 505 143.5 505Z" fill="#E1E4E5"/>
<path d="M735 479C732.239 479 730 476.761 730 474C730 471.239 732.239 469 735 469C737.761 469 740 471.239 740 474C740 476.761 737.761 479 735 479Z" fill="#E1E4E5"/>
<path d="M644.957 109.693C638.719 109.693 633.663 104.637 633.663 98.3995C633.663 92.162 638.719 87.1055 644.957 87.1055C651.194 87.1055 656.251 92.162 656.251 98.3995C656.251 104.637 651.194 109.693 644.957 109.693Z" fill="#E1E4E5"/>
<path d="M155.501 199.375C156.951 204.785 153.74 210.346 148.33 211.796C142.92 213.246 137.358 210.035 135.909 204.625C134.459 199.214 137.67 193.653 143.08 192.203C148.491 190.753 154.052 193.964 155.501 199.375Z" fill="#E1E4E5"/>
<path d="M385.492 109.984C378.04 109.984 372 103.943 372 96.492C372 89.0406 378.04 83 385.492 83C392.943 83 398.984 89.0406 398.984 96.492C398.984 103.943 392.943 109.984 385.492 109.984Z" fill="#E1E4E5"/>
<path d="M758.349 404.227C752.617 404.227 747.97 400.51 747.97 395.924C747.97 391.338 752.617 387.621 758.349 387.621C764.081 387.621 768.728 391.338 768.728 395.924C768.728 400.51 764.081 404.227 758.349 404.227Z" fill="#E1E4E5"/>
<path d="M543.146 72.8803C544.461 77.786 541.55 82.8285 536.644 84.143C531.738 85.4575 526.696 82.5462 525.381 77.6405C524.067 72.7347 526.978 67.6922 531.884 66.3777C536.789 65.0632 541.832 67.9745 543.146 72.8803Z" fill="#E1E4E5"/>
<path d="M191.906 132.094H192.054C192.929 144.498 202.154 144.689 202.154 144.689C202.154 144.689 191.982 144.888 191.982 159.221C191.982 144.888 181.809 144.689 181.809 144.689C181.809 144.689 191.03 144.498 191.906 132.094ZM256.799 517.82H256.941C257.782 530.188 266.639 530.378 266.639 530.378C266.639 530.378 256.872 530.576 256.872 544.867C256.872 530.576 247.105 530.378 247.105 530.378C247.105 530.378 255.958 530.188 256.799 517.82Z" fill="#E1E4E5"/>
<path d="M596.824 138.645C620.993 162.814 625.503 202.661 612.497 248.103C599.512 293.47 569.17 343.93 524.466 388.633C479.763 433.337 429.303 463.679 383.936 476.664C338.494 489.67 298.647 485.16 274.478 460.992C250.31 436.823 245.8 396.975 258.806 351.534C271.79 306.167 302.133 255.707 346.836 211.004C391.54 166.3 442 135.957 487.367 122.973C532.808 109.967 572.656 114.477 596.824 138.645V138.645Z" stroke="url(#paint2_linear_1235_28959)" stroke-width="4"/>
<path d="M227.243 273.196C217.864 308.196 234.851 347.145 270.831 381.925C306.755 416.651 361.285 446.851 425.928 464.172C490.572 481.494 552.897 482.604 601.371 470.493C649.92 458.363 684.106 433.125 693.484 398.125C702.862 363.125 685.875 324.175 649.896 289.395C613.972 254.67 559.441 224.469 494.798 207.148C430.155 189.827 367.83 188.716 319.356 200.827C270.807 212.958 236.621 238.196 227.243 273.196V273.196Z" stroke="url(#paint3_linear_1235_28959)" stroke-width="4"/>
<path d="M420.735 474.47C414.806 474.47 410 469.664 410 463.735C410 457.806 414.806 453 420.735 453C426.664 453 431.47 457.806 431.47 463.735C431.47 469.664 426.664 474.47 420.735 474.47Z" fill="#4F27AA"/>
<path d="M213 345.867C199.4 351.067 114.833 366.333 61 374.499V385.999C141.5 379.666 277.1 365.867 275.5 359.867C273.9 353.867 286.833 346.033 293.5 342.867C302.167 338.2 315.9 327.367 301.5 321.367C283.5 313.867 230 339.367 213 345.867ZM679.771 345.867C693.371 351.067 777.938 366.333 831.771 374.499V385.999C751.271 379.666 615.671 365.867 617.271 359.867C618.871 353.867 605.938 346.033 599.271 342.867C590.604 338.2 576.871 327.367 591.271 321.367C609.271 313.867 662.771 339.367 679.771 345.867Z" fill="white" stroke="#E1E4E5" stroke-width="4"/>
<path fill-rule="evenodd" clip-rule="evenodd" d="M454 351.054V207.177C454 200.351 451.738 193.796 447.728 188.98L417.394 152.547C413.374 147.718 407.916 145 402.233 145H282.444C270.596 145 261 156.527 261 170.757V351.054C261 365.284 270.596 376.81 282.444 376.81H432.556C444.404 376.81 454 365.284 454 351.054Z" fill="#4F27AA" stroke="#4F27AA" stroke-width="17.16" stroke-linecap="round" stroke-linejoin="round"/>
<path fill-rule="evenodd" clip-rule="evenodd" d="M390.833 319.789C390.833 309.126 399.604 300.473 410.411 300.473C421.218 300.473 429.989 309.126 429.989 319.789C429.989 330.452 421.218 339.106 410.411 339.106C399.604 339.106 390.833 330.452 390.833 319.789Z" fill="white"/>
<path d="M298.018 235.881H418.617M298.018 280.698H418.617M298.018 325.547H367.453M298.018 191.098H354.924" stroke="white" stroke-width="11" stroke-linecap="round" stroke-linejoin="round"/>
<path d="M175.5 452.367C121.5 445.167 97.167 443.833 61 447.999V374.367C110.5 369.2 211.2 359.267 218 360.867C224.8 362.467 271.5 354.2 294 349.867C309.667 347.367 341.7 344.567 344.5 353.367C347.3 362.167 341 367.367 337.5 368.867L268 382.867C286.667 379.2 321 372.999 328 372.499C331.99 372.214 335 372.499 336 377.499C336.8 381.499 328.667 387.7 325 389.867L272 413.367C287.833 406.7 320.6 393.167 325 392.367C330.5 391.367 333 392.367 334 397.867C334.8 402.267 327 406.166 323 408.499L275 430.867C285.5 427.867 308.3 416.167 317.5 413.367C326.7 410.567 324.5 418.499 323 421.499C290.5 451.499 243 461.367 175.5 452.367Z" fill="white" stroke="#E1E4E5" stroke-width="4"/>
<path d="M662.432 198.772C665.921 243.282 665.793 289.899 662.423 333.016C661.138 349.456 647.195 361.8 630.705 361.8H562.148C545.541 361.8 531.545 349.284 530.358 332.72C527.234 289.108 527.2 242.649 530.339 199.039C531.529 182.492 545.518 170 562.108 170H630.717C647.202 170 661.144 182.337 662.432 198.772Z" fill="#4F27AA" stroke="#4F27AA" stroke-width="24.378" stroke-linejoin="round"/>
<path d="M602 282V209M574 226H602M585 254H602" stroke="white" stroke-width="11" stroke-linejoin="round"/>
<path d="M585 299C585 289.611 592.611 282 602 282C611.389 282 619 289.611 619 299C619 308.389 611.389 316 602 316C592.611 316 585 308.389 585 299Z" stroke="white" stroke-width="11"/>
<path d="M717.698 451.992C771.698 444.792 796.031 443.458 832.198 447.625V373.992C782.698 368.825 681.998 358.892 675.198 360.492C668.398 362.092 621.698 353.825 599.198 349.492C583.531 346.992 551.498 344.192 548.698 352.992C545.898 361.792 552.198 366.992 555.698 368.492L625.198 382.492C606.531 378.825 572.198 372.625 565.198 372.125C561.208 371.84 558.198 372.125 557.198 377.125C556.398 381.125 564.531 387.325 568.198 389.492L621.198 412.992C605.364 406.325 572.598 392.792 568.198 391.992C562.698 390.992 560.198 391.992 559.198 397.492C558.398 401.892 566.198 405.791 570.198 408.125L618.198 430.492C607.698 427.492 584.898 415.792 575.698 412.992C566.498 410.192 568.698 418.125 570.198 421.125C602.698 451.125 650.198 460.992 717.698 451.992Z" fill="white" stroke="#E1E4E5" stroke-width="4"/>
</g>
<defs>
<linearGradient id="paint0_linear_1235_28959" x1="669.676" y1="324.488" x2="917.827" y2="128.199" gradientUnits="userSpaceOnUse">
<stop stop-color="white"/>
<stop offset="1" stop-color="#EEEEEE"/>
</linearGradient>
<linearGradient id="paint1_linear_1235_28959" x1="233.359" y1="363.617" x2="76.4158" y2="217.797" gradientUnits="userSpaceOnUse">
<stop stop-color="white"/>
<stop offset="1" stop-color="#EEEEEE"/>
</linearGradient>
<linearGradient id="paint2_linear_1235_28959" x1="633.989" y1="484.289" x2="152.915" y2="9.39181" gradientUnits="userSpaceOnUse">
<stop stop-color="white"/>
<stop offset="1" stop-color="#EEEEEE"/>
</linearGradient>
<linearGradient id="paint3_linear_1235_28959" x1="376.195" y1="609.688" x2="565.819" y2="-80.1404" gradientUnits="userSpaceOnUse">
<stop stop-color="white"/>
<stop offset="1" stop-color="#EEEEEE"/>
</linearGradient>
<clipPath id="clip0_1235_28959">
<rect width="900" height="600" fill="white"/>
</clipPath>
</defs>
</svg>
