<svg width="900" height="600" viewBox="0 0 900 600" fill="none" xmlns="http://www.w3.org/2000/svg">
<g clip-path="url(#clip0_1235_18886)">
<path d="M190.98 354.417C187.283 422.539 320.466 561.056 484.624 509.787C560.972 485.939 554.505 446.358 612.56 394.193C647.164 363.103 696.884 339.592 710.712 294.4C722.658 255.392 715.332 213.464 694.622 186.192C648.044 124.86 554.012 82.8621 461.36 179.496C368.709 276.13 200.534 178.726 190.98 354.417Z" fill="url(#paint0_linear_1235_18886)"/>
<path d="M227.489 204.257C240.443 227.376 268.815 230.553 314.268 226.16C348.452 222.85 379.625 220.288 413.811 201.648C437.739 188.611 456.68 170.973 470.505 153.842C485.485 135.284 506.395 114.103 496.145 93.0615C482.058 64.1555 400.596 39.8115 321.493 79.6225C234.599 123.368 214.816 181.66 227.489 204.257Z" fill="url(#paint1_linear_1235_18886)"/>
<path d="M557.215 487.011C587.395 444.791 618.303 399.917 658.767 377.814C700.505 355.006 708.203 369.063 711.092 391.412C713.981 413.761 701.104 466.713 644.143 496.841C587.168 526.978 528.976 526.526 557.215 487.011Z" fill="url(#paint2_linear_1235_18886)"/>
<path d="M626.873 304.596C626.873 206.607 547.437 127.172 449.449 127.172C351.461 127.172 272.025 206.608 272.025 304.596C272.025 402.584 351.461 482.02 449.449 482.02C547.437 482.02 626.873 402.584 626.873 304.596Z" fill="#4F27AA"/>
<path d="M449.449 457.477C533.883 457.477 602.33 389.03 602.33 304.596C602.33 220.162 533.883 151.715 449.449 151.715C365.015 151.715 296.568 220.162 296.568 304.596C296.568 389.03 365.015 457.477 449.449 457.477Z" fill="white"/>
<path d="M445 189.076C445 189.674 445.39 190.057 445.646 190.243C445.922 190.445 446.258 190.585 446.583 190.685C447.245 190.889 448.099 191 449 191C449.897 191 450.751 190.888 451.413 190.684C451.738 190.584 452.074 190.444 452.35 190.244C452.603 190.06 453 189.678 453 189.076V164.924C453 164.326 452.61 163.943 452.354 163.757C452.078 163.555 451.742 163.415 451.417 163.315C450.755 163.111 449.901 163 449 163C448.099 163 447.245 163.111 446.583 163.315C446.258 163.415 445.922 163.555 445.646 163.757C445.39 163.943 445 164.326 445 164.924V189.076ZM445 441.122C445 441.739 445.419 442.116 445.666 442.286C445.941 442.477 446.275 442.609 446.597 442.703C447.254 442.895 448.103 443 449 443C449.893 443 450.741 442.895 451.399 442.703C451.729 442.614 452.044 442.474 452.331 442.288C452.576 442.119 453 441.742 453 441.122V416.878C453 416.261 452.581 415.884 452.334 415.714C452.048 415.527 451.733 415.386 451.403 415.297C450.746 415.105 449.897 415 449 415C448.103 415 447.254 415.105 446.597 415.297C446.267 415.386 445.952 415.527 445.666 415.714C445.419 415.884 445 416.261 445 416.878V441.122ZM310.789 304.061H337.569C338.724 304.061 339.495 303.062 339.495 302.038C339.495 301.015 338.724 300.016 337.569 300.016H310.789C309.633 300.016 308.862 301.015 308.862 302.038C308.862 303.062 309.633 304.061 310.789 304.061Z" fill="#E1E4E5" stroke="#E1E4E5" stroke-width="2"/>
<path d="M310.939 306H338.061C338.655 306 339.039 305.618 339.231 305.36C339.436 305.083 339.578 304.747 339.68 304.421C339.887 303.758 340 302.902 340 302C340 301.098 339.887 300.242 339.68 299.579C339.578 299.253 339.436 298.917 339.231 298.64C339.039 298.382 338.655 298 338.061 298H310.939C310.345 298 309.961 298.382 309.769 298.64C309.564 298.917 309.422 299.253 309.32 299.579C309.113 300.242 309 301.098 309 302C309 302.902 309.113 303.758 309.32 304.421C309.422 304.747 309.564 305.083 309.769 305.36C309.961 305.618 310.345 306 310.939 306ZM563.933 306H587.067C587.663 306 588.046 305.615 588.236 305.358C588.44 305.081 588.581 304.745 588.682 304.419C588.888 303.756 589 302.902 589 302C589 301.098 588.888 300.244 588.682 299.581C588.581 299.255 588.44 298.919 588.236 298.642C588.046 298.385 587.663 298 587.067 298H563.933C563.337 298 562.954 298.385 562.764 298.642C562.56 298.919 562.419 299.255 562.318 299.581C562.112 300.244 562 301.098 562 302C562 302.902 562.112 303.756 562.318 304.419C562.419 304.745 562.56 305.081 562.764 305.358C562.954 305.615 563.337 306 563.933 306ZM516.989 423.733L516.987 423.729L505.44 402.098V402.097C504.966 401.212 505.219 400.044 506.112 399.488C507.055 398.9 508.22 399.284 508.715 400.211L516.989 423.733ZM516.989 423.733C517.318 424.342 517.937 424.73 518.625 424.73C518.958 424.73 519.289 424.636 519.581 424.458L519.59 424.452C520.483 423.896 520.737 422.728 520.263 421.843L520.262 421.842L508.716 400.212L516.989 423.733ZM378.656 184.271H378.657L391.139 205.949C391.264 206.168 391.431 206.359 391.63 206.513C391.83 206.667 392.058 206.78 392.301 206.846C392.544 206.912 392.797 206.929 393.047 206.897C393.297 206.864 393.538 206.783 393.756 206.657L393.758 206.656C394.198 206.401 394.52 205.982 394.651 205.49C394.783 204.999 394.714 204.475 394.459 204.034V204.033L381.979 182.355V182.354C381.854 182.136 381.686 181.944 381.486 181.79C381.287 181.636 381.059 181.524 380.815 181.458C380.572 181.393 380.318 181.376 380.068 181.409C379.818 181.442 379.577 181.524 379.359 181.65C378.918 181.905 378.597 182.324 378.465 182.815C378.333 183.307 378.402 183.83 378.656 184.271ZM551.005 356.498C550.782 356.376 550.538 356.299 550.285 356.271C550.032 356.244 549.777 356.267 549.533 356.34C549.29 356.412 549.063 356.532 548.866 356.692C548.669 356.853 548.506 357.051 548.386 357.275C548.143 357.726 548.088 358.254 548.232 358.744C548.376 359.235 548.708 359.65 549.156 359.897L569.793 371.309L569.797 371.311C570.089 371.475 570.408 371.554 570.725 371.554C571.414 371.554 572.071 371.179 572.418 370.54L572.419 370.536C572.662 370.086 572.717 369.559 572.574 369.069C572.43 368.578 572.099 368.164 571.652 367.916L571.65 367.914L551.005 356.498ZM329.078 234.803C328.857 234.682 328.614 234.607 328.364 234.58C328.113 234.553 327.86 234.576 327.618 234.648C327.377 234.719 327.152 234.837 326.956 234.996C326.76 235.155 326.598 235.351 326.478 235.572C326.237 236.019 326.182 236.543 326.325 237.03C326.468 237.517 326.798 237.928 327.242 238.173L349.955 250.647C350.176 250.769 350.419 250.846 350.67 250.873C350.921 250.9 351.175 250.877 351.417 250.806C351.659 250.735 351.884 250.616 352.08 250.457C352.276 250.298 352.438 250.101 352.558 249.879C352.799 249.433 352.854 248.909 352.711 248.422C352.568 247.935 352.239 247.524 351.794 247.279L329.078 234.803ZM570.351 232.469C570.226 232.249 570.059 232.056 569.859 231.901C569.658 231.746 569.43 231.633 569.185 231.567C568.941 231.501 568.686 231.485 568.435 231.518C568.184 231.552 567.943 231.635 567.724 231.762H567.723L548.088 243.201C547.649 243.458 547.328 243.878 547.197 244.369C547.065 244.861 547.133 245.385 547.386 245.826C547.511 246.046 547.678 246.239 547.878 246.394C548.077 246.549 548.306 246.663 548.55 246.729C548.794 246.795 549.049 246.812 549.3 246.779C549.551 246.746 549.792 246.663 550.011 246.536L550.012 246.535L569.649 235.095L569.146 234.231L569.65 235.095C570.09 234.838 570.41 234.418 570.541 233.927C570.672 233.435 570.604 232.911 570.351 232.469ZM570.351 232.469L569.483 232.965L570.351 232.469ZM350.97 357.524H350.969L328.239 370.105H328.238C327.328 370.609 326.98 371.763 327.534 372.681C327.705 372.963 327.946 373.195 328.234 373.356C328.521 373.517 328.846 373.601 329.175 373.599C329.495 373.599 329.812 373.52 330.102 373.363L330.112 373.358L352.842 360.777H352.843C353.754 360.273 354.101 359.118 353.546 358.2C353.008 357.307 351.857 357.033 350.97 357.524ZM380.672 423.908L380.671 423.909C380.186 424.829 380.503 426.003 381.427 426.527C381.718 426.694 382.039 426.775 382.358 426.775C383.053 426.775 383.705 426.389 384.045 425.749L384.047 425.746L396.535 402.074L396.536 402.073C397.021 401.152 396.704 399.976 395.776 399.453C395.554 399.329 395.309 399.25 395.056 399.222C394.802 399.194 394.546 399.217 394.302 399.29C394.058 399.363 393.831 399.485 393.635 399.647C393.439 399.81 393.277 400.01 393.16 400.236V400.237L380.672 423.908ZM502.376 200.982V200.983C502.253 201.206 502.175 201.452 502.148 201.705C502.12 201.958 502.143 202.214 502.216 202.459C502.288 202.703 502.408 202.93 502.569 203.128C502.73 203.325 502.928 203.489 503.153 203.609C503.604 203.852 504.133 203.909 504.625 203.765C505.117 203.622 505.533 203.291 505.783 202.844L505.785 202.841L517.19 182.208L517.191 182.207C517.314 181.984 517.392 181.738 517.419 181.485C517.446 181.231 517.423 180.974 517.35 180.73C517.278 180.485 517.157 180.258 516.996 180.06C516.834 179.863 516.635 179.699 516.41 179.579C515.958 179.337 515.43 179.282 514.938 179.426C514.447 179.57 514.032 179.902 513.782 180.349L502.376 200.982Z" fill="#E1E4E5" stroke="#E1E4E5" stroke-width="2"/>
<path d="M545.5 297H451.5C448.462 297 446 299.462 446 302.5C446 305.538 448.462 308 451.5 308H545.5C548.538 308 551 305.538 551 302.5C551 299.462 548.538 297 545.5 297Z" fill="#4F27AA"/>
<path d="M429.471 356.351L454.359 313.242C456.471 309.585 455.218 304.907 451.56 302.795C447.902 300.683 443.224 301.936 441.112 305.594L416.224 348.703C414.112 352.361 415.365 357.038 419.023 359.15C422.681 361.262 427.359 360.009 429.471 356.351Z" fill="#4F27AA"/>
<path d="M464.269 317.401C472.18 309.49 472.18 296.663 464.269 288.752C456.358 280.84 443.531 280.84 435.62 288.752C427.708 296.663 427.708 309.49 435.62 317.401C443.531 325.312 456.358 325.312 464.269 317.401Z" fill="white"/>
<path d="M459.972 313.105C465.511 307.566 465.511 298.587 459.972 293.048C454.434 287.51 445.454 287.51 439.916 293.048C434.378 298.587 434.378 307.566 439.916 313.105C445.454 318.643 454.434 318.643 459.972 313.105Z" fill="#2E2445"/>
<path d="M197.054 248.584C210.612 251.795 224.952 240.297 224.952 240.297C224.952 240.297 217.3 223.597 203.737 220.395C190.179 217.184 175.843 228.672 175.843 228.672C175.843 228.672 183.496 245.372 197.054 248.584Z" fill="url(#paint3_linear_1235_18886)"/>
<path d="M564.302 107.172C550.028 117.003 528.221 110.131 528.221 110.131C528.221 110.131 529.572 87.3211 543.855 77.4981C558.129 67.6661 579.926 74.5291 579.926 74.5291C579.926 74.5291 578.576 97.3391 564.302 107.172Z" fill="url(#paint4_linear_1235_18886)"/>
<path d="M321.08 163.578C305.606 179.328 276.669 176.007 276.669 176.007C276.669 176.007 272.84 147.151 288.329 131.411C303.803 115.661 332.725 118.972 332.725 118.972C332.725 118.972 336.555 147.829 321.08 163.578Z" fill="url(#paint5_linear_1235_18886)"/>
<path d="M254.5 367C260.851 367 266 371.925 266 378C266 384.075 260.851 389 254.5 389C248.149 389 243 384.075 243 378C243 371.925 248.149 367 254.5 367Z" fill="#4F27AA"/>
<path d="M371 493C378.18 493 384 499.044 384 506.5C384 513.956 378.18 520 371 520C363.82 520 358 513.956 358 506.5C358 499.044 363.82 493 371 493Z" fill="#4F27AA"/>
<path d="M646.5 418C655.06 418 662 424.716 662 433C662 441.284 655.06 448 646.5 448C637.94 448 631 441.284 631 433C631 424.716 637.94 418 646.5 418Z" fill="#4F27AA"/>
<path d="M667.5 255C670.538 255 673 252.538 673 249.5C673 246.462 670.538 244 667.5 244C664.462 244 662 246.462 662 249.5C662 252.538 664.462 255 667.5 255Z" fill="#4F27AA"/>
<path d="M269.5 194C275.299 194 280 189.299 280 183.5C280 177.701 275.299 173 269.5 173C263.701 173 259 177.701 259 183.5C259 189.299 263.701 194 269.5 194Z" fill="#4F27AA"/>
<path d="M267.5 484C273.299 484 278 479.523 278 474C278 468.477 273.299 464 267.5 464C261.701 464 257 468.477 257 474C257 479.523 261.701 484 267.5 484Z" fill="#E1E4E5"/>
<path d="M710 353C716.075 353 721 348.523 721 343C721 337.477 716.075 333 710 333C703.925 333 699 337.477 699 343C699 348.523 703.925 353 710 353Z" fill="#E1E4E5"/>
<path d="M598.5 487C600.433 487 602 485.433 602 483.5C602 481.567 600.433 480 598.5 480C596.567 480 595 481.567 595 483.5C595 485.433 596.567 487 598.5 487Z" fill="#E1E4E5"/>
<path d="M331 135C333.761 135 336 132.761 336 130C336 127.239 333.761 125 331 125C328.239 125 326 127.239 326 130C326 132.761 328.239 135 331 135Z" fill="#E1E4E5"/>
<path d="M645.521 304.712C644.823 307.318 646.37 309.998 648.976 310.696C651.583 311.394 654.262 309.848 654.96 307.241C655.659 304.635 654.112 301.955 651.506 301.257C648.899 300.558 646.22 302.105 645.521 304.712Z" fill="#E1E4E5"/>
<path d="M644.5 202C648.09 202 651 199.09 651 195.5C651 191.91 648.09 189 644.5 189C640.91 189 638 191.91 638 195.5C638 199.09 640.91 202 644.5 202Z" fill="#E1E4E5"/>
<path d="M247 315C249.761 315 252 313.209 252 311C252 308.791 249.761 307 247 307C244.239 307 242 308.791 242 311C242 313.209 244.239 315 247 315Z" fill="#E1E4E5"/>
<path d="M447.478 91.9981C446.025 97.4229 449.244 102.999 454.669 104.453C460.094 105.906 465.67 102.687 467.123 97.262C468.577 91.8371 465.358 86.2611 459.933 84.8075C454.508 83.3539 448.932 86.5733 447.478 91.9981Z" fill="#E1E4E5"/>
<path d="M175.067 309H174.936C174.162 319.975 166 320.143 166 320.143C166 320.143 175 320.319 175 333C175 320.319 184 320.143 184 320.143C184 320.143 175.842 319.975 175.067 309ZM604.616 136H604.39C603.056 155.205 589 155.501 589 155.501C589 155.501 604.5 155.809 604.5 178C604.5 155.809 620 155.501 620 155.501C620 155.501 605.95 155.205 604.616 136Z" fill="#E1E4E5"/>
</g>
<defs>
<linearGradient id="paint0_linear_1235_18886" x1="350.162" y1="762.75" x2="599.289" y2="-361.225" gradientUnits="userSpaceOnUse">
<stop stop-color="white"/>
<stop offset="1" stop-color="#EEEEEE"/>
</linearGradient>
<linearGradient id="paint1_linear_1235_18886" x1="314.758" y1="354.093" x2="430.224" y2="-164.76" gradientUnits="userSpaceOnUse">
<stop stop-color="white"/>
<stop offset="1" stop-color="#EEEEEE"/>
</linearGradient>
<linearGradient id="paint2_linear_1235_18886" x1="590.914" y1="625.612" x2="689.931" y2="167.711" gradientUnits="userSpaceOnUse">
<stop stop-color="white"/>
<stop offset="1" stop-color="#EEEEEE"/>
</linearGradient>
<linearGradient id="paint3_linear_1235_18886" x1="248.111" y1="256.57" x2="129.422" y2="200.497" gradientUnits="userSpaceOnUse">
<stop stop-color="white"/>
<stop offset="1" stop-color="#EEEEEE"/>
</linearGradient>
<linearGradient id="paint4_linear_1235_18886" x1="508.699" y1="139.431" x2="621.059" y2="20.95" gradientUnits="userSpaceOnUse">
<stop stop-color="white"/>
<stop offset="1" stop-color="#EEEEEE"/>
</linearGradient>
<linearGradient id="paint5_linear_1235_18886" x1="259.34" y1="217.376" x2="371.211" y2="42.0087" gradientUnits="userSpaceOnUse">
<stop stop-color="white"/>
<stop offset="1" stop-color="#EEEEEE"/>
</linearGradient>
<clipPath id="clip0_1235_18886">
<rect width="900" height="600" fill="white"/>
</clipPath>
</defs>
</svg>
