<svg width="900" height="600" viewBox="0 0 900 600" fill="none" xmlns="http://www.w3.org/2000/svg">
<g clip-path="url(#clip0_1235_29027)">
<path d="M539.633 560.592H388.148C343.965 560.592 311.704 542.124 299.314 510.331C286.457 477.135 298.379 435.991 329.237 408.172L437.708 309.286L329.237 210.4C298.379 182.581 286.457 141.437 299.314 108.241C311.704 76.2145 343.965 57.9805 388.148 57.9805H539.633C583.816 57.9805 616.077 76.4485 628.467 108.241C641.325 141.437 629.402 182.581 598.544 210.4L490.073 309.286L598.778 408.172C629.402 435.991 641.558 477.135 628.701 510.331C616.077 542.124 583.816 560.592 539.633 560.592ZM463.891 332.897L352.848 433.887C333.211 451.888 324.562 478.07 332.042 497.473C339.056 515.474 358.926 525.526 388.148 525.526H539.633C568.855 525.526 588.726 515.708 595.739 497.473C603.219 478.07 594.804 451.888 574.933 433.887L463.891 332.897ZM388.148 93.0465C358.926 93.0465 339.056 102.864 332.042 121.098C324.562 140.502 332.978 166.684 352.848 184.685L463.891 285.675L574.933 184.685C594.57 166.684 603.219 140.502 595.739 121.098C588.726 103.098 568.855 93.0465 539.633 93.0465H388.148Z" fill="#E1E4E5"/>
<path fill-rule="evenodd" clip-rule="evenodd" d="M405.282 179.815V95.2242C405.283 88.1183 403.092 81.185 399.008 75.3704C394.923 69.5558 389.144 65.143 382.459 62.7342L329.805 43.7782C311.661 37.2458 291.807 37.2458 273.663 43.7782L220.94 62.7682C214.26 65.1751 208.485 69.5828 204.401 75.3906C200.317 81.1985 198.123 88.1242 198.117 95.2242V179.815C198.117 223.769 259.61 256.294 287.888 268.965C292.228 270.925 296.936 271.939 301.699 271.939C306.461 271.939 311.169 270.925 315.51 268.965C343.788 256.294 405.282 223.7 405.282 179.815Z" fill="#4F27AA"/>
<path d="M270.77 170.497C275.901 175.627 282.437 179.121 289.553 180.536C296.67 181.952 304.046 181.225 310.749 178.449C317.452 175.672 323.182 170.97 327.212 164.937C331.243 158.904 333.395 151.812 333.395 144.556C333.395 137.301 331.243 130.208 327.212 124.175C323.182 118.142 317.452 113.44 310.749 110.664C304.046 107.887 296.67 107.161 289.553 108.576C282.437 109.991 275.901 113.485 270.77 118.616C256.443 132.942 256.443 156.17 270.77 170.497Z" stroke="white" stroke-width="11" stroke-linecap="round" stroke-linejoin="round"/>
<path d="M343.295 191.137L322.651 170.492L343.295 191.137Z" stroke="white" stroke-width="11" stroke-linecap="round" stroke-linejoin="round"/>
<path fill-rule="evenodd" clip-rule="evenodd" d="M186.668 331.784H192.208C192.849 331.785 193.464 332.04 193.917 332.493C194.371 332.946 194.625 333.561 194.626 334.202V339.742C194.625 340.383 194.371 340.998 193.917 341.451C193.464 341.905 192.849 342.16 192.208 342.16H186.668C186.027 342.158 185.414 341.902 184.961 341.449C184.508 340.996 184.253 340.383 184.25 339.742V334.202C184.239 332.874 185.329 331.784 186.668 331.784ZM205.874 331.784H211.414C212.054 331.787 212.668 332.042 213.121 332.495C213.574 332.948 213.829 333.562 213.832 334.202V339.742C213.831 340.383 213.577 340.998 213.123 341.451C212.67 341.905 212.055 342.16 211.414 342.16H205.874C205.233 342.158 204.62 341.902 204.167 341.449C203.714 340.996 203.459 340.383 203.456 339.742V334.202C203.459 333.562 203.714 332.948 204.167 332.495C204.62 332.042 205.233 331.787 205.874 331.784ZM225.093 331.784H230.633C231.273 331.787 231.887 332.042 232.34 332.495C232.793 332.948 233.048 333.562 233.051 334.202V339.742C233.05 340.383 232.796 340.998 232.342 341.451C231.889 341.905 231.274 342.16 230.633 342.16H225.093C224.453 342.158 223.839 341.902 223.386 341.449C222.934 340.996 222.678 340.383 222.676 339.742V334.202C222.664 332.874 223.754 331.784 225.093 331.784ZM244.299 331.784H249.839C250.479 331.787 251.093 332.042 251.546 332.495C251.999 332.948 252.254 333.562 252.257 334.202V339.742C252.256 340.383 252.002 340.998 251.548 341.451C251.095 341.905 250.48 342.16 249.839 342.16H244.299C243.657 342.16 243.041 341.905 242.586 341.452C242.13 340.999 241.873 340.384 241.87 339.742V334.202C241.877 333.561 242.136 332.949 242.59 332.496C243.044 332.044 243.658 331.788 244.299 331.784ZM263.507 331.784H269.047C269.689 331.784 270.305 332.039 270.76 332.492C271.216 332.945 271.473 333.56 271.476 334.202V339.742C271.475 340.06 271.412 340.375 271.29 340.669C271.167 340.963 270.988 341.23 270.762 341.454C270.537 341.679 270.269 341.857 269.975 341.978C269.681 342.099 269.365 342.161 269.047 342.16H263.507C262.866 342.158 262.253 341.902 261.8 341.449C261.347 340.996 261.092 340.383 261.089 339.742V334.202C261.092 333.562 261.347 332.948 261.8 332.495C262.253 332.042 262.866 331.787 263.507 331.784ZM206.579 352.728H212.119C212.759 352.731 213.373 352.986 213.826 353.439C214.279 353.892 214.534 354.506 214.537 355.146V360.697C214.534 361.338 214.279 361.951 213.826 362.404C213.373 362.857 212.759 363.113 212.119 363.115H206.579C205.938 363.115 205.323 362.86 204.87 362.406C204.416 361.953 204.161 361.338 204.161 360.697V355.157C204.159 354.839 204.221 354.523 204.341 354.228C204.462 353.933 204.64 353.665 204.865 353.44C205.089 353.214 205.357 353.035 205.651 352.913C205.945 352.791 206.26 352.728 206.579 352.728ZM225.785 352.728H231.325C231.965 352.731 232.579 352.986 233.032 353.439C233.485 353.892 233.74 354.506 233.743 355.146V360.697C233.74 361.338 233.485 361.951 233.032 362.404C232.579 362.857 231.965 363.113 231.325 363.115H225.785C225.144 363.113 224.531 362.857 224.078 362.404C223.625 361.951 223.37 361.338 223.367 360.697V355.157C223.365 354.839 223.427 354.523 223.547 354.228C223.668 353.933 223.846 353.665 224.071 353.44C224.295 353.214 224.563 353.035 224.857 352.913C225.151 352.791 225.466 352.728 225.785 352.728ZM244.993 352.728H250.532C251.174 352.728 251.791 352.983 252.246 353.436C252.701 353.889 252.959 354.504 252.962 355.146V360.697C252.959 361.34 252.701 361.955 252.246 362.408C251.791 362.861 251.174 363.115 250.532 363.115H244.993C244.352 363.113 243.739 362.857 243.286 362.404C242.833 361.951 242.578 361.338 242.575 360.697V355.157C242.575 354.515 242.83 353.899 243.283 353.444C243.736 352.989 244.351 352.731 244.993 352.728ZM225.093 309.285H230.633C231.273 309.288 231.887 309.543 232.34 309.996C232.793 310.449 233.048 311.063 233.051 311.703V317.243C233.05 317.884 232.795 318.499 232.342 318.952C231.888 319.405 231.274 319.66 230.633 319.66H225.093C224.453 319.658 223.839 319.402 223.386 318.95C222.934 318.497 222.678 317.883 222.676 317.243V311.703C222.664 310.375 223.754 309.285 225.093 309.285ZM244.299 309.285H249.839C250.479 309.288 251.093 309.543 251.546 309.996C251.999 310.449 252.254 311.063 252.257 311.703V317.243C252.256 317.884 252.001 318.499 251.548 318.952C251.094 319.405 250.48 319.66 249.839 319.66H244.299C243.657 319.66 243.041 319.406 242.586 318.953C242.13 318.5 241.873 317.885 241.87 317.243V311.703C241.877 311.062 242.136 310.45 242.59 309.997C243.044 309.545 243.658 309.289 244.299 309.285ZM636.193 331.784H641.732C642.373 331.785 642.988 332.04 643.441 332.493C643.895 332.946 644.149 333.561 644.15 334.202V339.742C644.149 340.383 643.895 340.998 643.441 341.451C642.988 341.905 642.373 342.16 641.732 342.16H636.193C635.552 342.158 634.939 341.902 634.486 341.449C634.033 340.996 633.778 340.383 633.775 339.742V334.202C633.763 332.874 634.853 331.784 636.193 331.784ZM655.399 331.784H660.938C661.578 331.787 662.192 332.042 662.645 332.495C663.098 332.948 663.353 333.562 663.356 334.202V339.742C663.355 340.383 663.101 340.998 662.647 341.451C662.194 341.905 661.579 342.16 660.938 342.16H655.399C654.758 342.158 654.145 341.902 653.692 341.449C653.239 340.996 652.984 340.383 652.981 339.742V334.202C652.984 333.562 653.239 332.948 653.692 332.495C654.145 332.042 654.758 331.787 655.399 331.784ZM674.618 331.784H680.158C680.798 331.787 681.412 332.042 681.864 332.495C682.317 332.948 682.573 333.562 682.575 334.202V339.742C682.574 340.383 682.32 340.998 681.867 341.451C681.413 341.904 680.799 342.159 680.158 342.16H674.618C673.977 342.158 673.364 341.902 672.911 341.449C672.458 340.996 672.203 340.383 672.2 339.742V334.202C672.189 332.874 673.278 331.784 674.618 331.784ZM693.824 331.784H699.364C700.004 331.787 700.618 332.042 701.07 332.495C701.523 332.948 701.779 333.562 701.781 334.202V339.742C701.78 340.383 701.526 340.998 701.073 341.451C700.619 341.904 700.005 342.159 699.364 342.16H693.824C693.182 342.16 692.566 341.905 692.111 341.452C691.655 340.999 691.398 340.384 691.395 339.742V334.202C691.402 333.561 691.66 332.948 692.115 332.496C692.569 332.044 693.183 331.788 693.824 331.784ZM713.032 331.784H718.571C719.213 331.784 719.83 332.039 720.285 332.492C720.74 332.945 720.998 333.56 721.001 334.202V339.742C721 340.061 720.937 340.376 720.814 340.669C720.692 340.963 720.513 341.23 720.287 341.455C720.061 341.679 719.794 341.857 719.499 341.978C719.205 342.099 718.889 342.161 718.571 342.16H713.032C712.391 342.158 711.778 341.902 711.325 341.449C710.872 340.996 710.617 340.383 710.614 339.742V334.202C710.617 333.562 710.872 332.948 711.325 332.495C711.778 332.042 712.391 331.787 713.032 331.784ZM656.104 352.728H661.643C662.283 352.731 662.897 352.986 663.35 353.439C663.803 353.892 664.058 354.506 664.061 355.146V360.697C664.058 361.338 663.803 361.951 663.35 362.404C662.897 362.857 662.283 363.113 661.643 363.115H656.104C655.463 363.115 654.848 362.86 654.395 362.406C653.941 361.953 653.686 361.338 653.686 360.697V355.157C653.684 354.839 653.745 354.523 653.866 354.228C653.987 353.933 654.165 353.665 654.389 353.439C654.614 353.214 654.881 353.035 655.176 352.912C655.47 352.79 655.785 352.728 656.104 352.728ZM675.31 352.728H680.849C681.489 352.731 682.103 352.986 682.556 353.439C683.009 353.892 683.264 354.506 683.267 355.146V360.697C683.264 361.338 683.009 361.951 682.556 362.404C682.103 362.857 681.489 363.113 680.849 363.115H675.31C674.669 363.113 674.056 362.857 673.603 362.404C673.15 361.951 672.894 361.338 672.892 360.697V355.157C672.89 354.839 672.951 354.523 673.072 354.228C673.193 353.933 673.371 353.665 673.595 353.439C673.82 353.214 674.087 353.035 674.382 352.912C674.676 352.79 674.991 352.728 675.31 352.728ZM694.517 352.728H700.057C700.699 352.728 701.315 352.983 701.77 353.436C702.225 353.889 702.483 354.504 702.486 355.146V360.697C702.483 361.339 702.225 361.954 701.77 362.407C701.315 362.86 700.699 363.115 700.057 363.115H694.517C693.877 363.113 693.263 362.857 692.81 362.404C692.357 361.951 692.102 361.338 692.099 360.697V355.157C692.099 354.515 692.354 353.899 692.807 353.444C693.26 352.989 693.875 352.731 694.517 352.728ZM674.618 309.285H680.158C680.798 309.288 681.412 309.543 681.864 309.996C682.317 310.449 682.573 311.063 682.575 311.703V317.243C682.574 317.884 682.32 318.498 681.866 318.952C681.413 319.405 680.799 319.66 680.158 319.66H674.618C673.978 319.658 673.364 319.402 672.911 318.95C672.458 318.497 672.203 317.884 672.2 317.243V311.703C672.189 310.375 673.278 309.285 674.618 309.285ZM693.824 309.285H699.364C700.004 309.288 700.618 309.543 701.07 309.996C701.523 310.449 701.779 311.063 701.781 311.703V317.243C701.78 317.884 701.526 318.498 701.072 318.952C700.619 319.405 700.005 319.66 699.364 319.66H693.824C693.182 319.66 692.566 319.406 692.11 318.953C691.655 318.5 691.398 317.885 691.395 317.243V311.703C691.402 311.062 691.66 310.449 692.115 309.997C692.569 309.545 693.183 309.289 693.824 309.285Z" fill="#E1E4E5"/>
<path d="M181.204 259.594C186.542 259.594 190.87 263.921 190.87 269.26C190.87 274.598 186.542 278.926 181.204 278.926C175.866 278.926 171.538 274.598 171.538 269.26C171.538 263.921 175.866 259.594 181.204 259.594Z" fill="#4F27AA"/>
<path d="M690.088 103.591C700.128 103.591 708.267 111.73 708.267 121.77C708.267 131.81 700.128 139.949 690.088 139.949C680.048 139.949 671.909 131.81 671.909 121.77C671.909 111.73 680.048 103.591 690.088 103.591Z" fill="#4F27AA"/>
<path d="M680.415 433.767C685.751 433.767 690.076 429.442 690.076 424.106C690.076 418.771 685.751 414.445 680.415 414.445C675.079 414.445 670.754 418.771 670.754 424.106C670.754 429.442 675.079 433.767 680.415 433.767Z" fill="#4F27AA"/>
<path d="M241.818 535.359C249.36 535.359 255.474 529.245 255.474 521.703C255.474 514.161 249.36 508.047 241.818 508.047C234.276 508.047 228.162 514.161 228.162 521.703C228.162 529.245 234.276 535.359 241.818 535.359Z" fill="#E1E4E5"/>
<path d="M269.186 409.822C273.973 409.822 277.853 405.942 277.853 401.155C277.853 396.369 273.973 392.488 269.186 392.488C264.399 392.488 260.519 396.369 260.519 401.155C260.519 405.942 264.399 409.822 269.186 409.822Z" fill="#E1E4E5"/>
<path d="M660.416 220.764C658.467 228.037 662.783 235.512 670.056 237.461C677.328 239.41 684.804 235.094 686.753 227.821C688.701 220.548 684.385 213.073 677.113 211.124C669.84 209.175 662.364 213.491 660.416 220.764Z" fill="#E1E4E5"/>
<path d="M357.673 324.674C365.378 324.674 371.624 319.677 371.624 313.513C371.624 307.349 365.378 302.352 357.673 302.352C349.968 302.352 343.722 307.349 343.722 313.513C343.722 319.677 349.968 324.674 357.673 324.674Z" fill="#E1E4E5"/>
<path d="M683.466 508.361C683.466 520.658 693.435 530.628 705.733 530.628C718.031 530.628 728 520.658 728 508.361C728 496.063 718.031 486.094 705.733 486.094C693.435 486.094 683.466 496.063 683.466 508.361Z" fill="#E1E4E5"/>
<path d="M652.174 58.5234H651.975C650.798 75.1984 638.397 75.4554 638.397 75.4554C638.397 75.4554 652.072 75.7224 652.072 94.9894C652.072 75.7224 665.747 75.4554 665.747 75.4554C665.747 75.4554 653.351 75.1984 652.174 58.5234ZM576.511 272.307H576.32C575.19 288.933 563.284 289.189 563.284 289.189C563.284 289.189 576.413 289.455 576.413 308.665C576.413 289.455 589.542 289.189 589.542 289.189C589.542 289.189 577.641 288.933 576.511 272.307Z" fill="#E1E4E5"/>
</g>
<defs>
<clipPath id="clip0_1235_29027">
<rect width="900" height="600" fill="white"/>
</clipPath>
</defs>
</svg>
