<svg width="900" height="600" viewBox="0 0 900 600" fill="none" xmlns="http://www.w3.org/2000/svg">
<g clip-path="url(#clip0_1235_29043)">
<path d="M461.914 583.653C618.704 583.653 745.807 456.55 745.807 299.76C745.807 142.97 618.704 15.8672 461.914 15.8672C305.124 15.8672 178.021 142.97 178.021 299.76C178.021 456.55 305.124 583.653 461.914 583.653Z" stroke="url(#paint0_linear_1235_29043)" stroke-width="3"/>
<path d="M449.698 377.222C431.382 373.212 423.392 354.663 417.009 322.993C412.214 299.174 407.531 277.547 413.109 250.571C417.008 231.691 425.048 215.24 433.797 202.357C443.275 188.396 453.307 169.884 469.66 172.49C492.124 176.075 525.371 226.202 514.707 287.939C502.984 355.759 467.601 381.148 449.698 377.222Z" fill="url(#paint1_linear_1235_29043)"/>
<path d="M760.858 141.747C753.048 141.747 746.716 148.079 746.716 155.889C746.716 163.7 753.048 170.031 760.858 170.031C768.668 170.031 775 163.7 775 155.889C775 148.079 768.668 141.747 760.858 141.747Z" fill="#4F27AA"/>
<path d="M144.545 199.711C137.223 199.711 131.287 193.776 131.287 186.453C131.287 179.131 137.223 173.195 144.545 173.195C151.867 173.195 157.803 179.131 157.803 186.453C157.803 193.776 151.867 199.711 144.545 199.711Z" fill="#4F27AA"/>
<path d="M662.483 261.577C659.066 261.577 656.296 258.807 656.296 255.39C656.296 251.973 659.066 249.203 662.483 249.203C665.9 249.203 668.67 251.973 668.67 255.39C668.67 258.807 665.9 261.577 662.483 261.577Z" fill="#4F27AA"/>
<path d="M514.926 515.121C510.533 515.121 506.971 511.559 506.971 507.166C506.971 502.773 510.533 499.211 514.926 499.211C519.319 499.211 522.881 502.773 522.881 507.166C522.881 511.559 519.319 515.121 514.926 515.121Z" fill="#E1E4E5"/>
<path d="M204.628 440.628C198.282 440.628 193.138 435.484 193.138 429.138C193.138 422.793 198.282 417.648 204.628 417.648C210.974 417.648 216.118 422.793 216.118 429.138C216.118 435.484 210.974 440.628 204.628 440.628Z" fill="#E1E4E5"/>
<path d="M275.052 164.025C270.222 164.025 266.307 160.11 266.307 155.28C266.307 150.45 270.222 146.535 275.052 146.535C279.882 146.535 283.797 150.45 283.797 155.28C283.797 160.11 279.882 164.025 275.052 164.025Z" fill="#E1E4E5"/>
<path d="M365.013 385.628C359.644 385.628 355.291 381.275 355.291 375.906C355.291 370.536 359.644 366.184 365.013 366.184C370.382 366.184 374.735 370.536 374.735 375.906C374.735 381.275 370.382 385.628 365.013 385.628Z" fill="#E1E4E5"/>
<path d="M176.935 264.977C178.183 269.634 175.419 274.422 170.761 275.67C166.103 276.918 161.316 274.154 160.068 269.496C158.82 264.838 161.584 260.051 166.241 258.803C170.899 257.555 175.687 260.319 176.935 264.977Z" fill="#E1E4E5"/>
<path d="M307.989 69.9409C301.574 69.9409 296.374 64.7407 296.374 58.3259C296.374 51.9111 301.574 46.7109 307.989 46.7109C314.404 46.7109 319.604 51.9111 319.604 58.3259C319.604 64.7407 314.404 69.9409 307.989 69.9409Z" fill="#E1E4E5"/>
<path d="M588.263 424.95C583.329 424.95 579.329 421.75 579.329 417.803C579.329 413.856 583.329 410.656 588.263 410.656C593.197 410.656 597.197 413.856 597.197 417.803C597.197 421.75 593.197 424.95 588.263 424.95Z" fill="#E1E4E5"/>
<path d="M605.232 43.1649C607.829 52.858 602.077 62.8213 592.384 65.4185C582.691 68.0158 572.728 62.2635 570.13 52.5704C567.533 42.8773 573.285 32.914 582.979 30.3168C592.672 27.7195 602.635 33.4718 605.232 43.1649Z" fill="#E1E4E5"/>
<path d="M449.599 192.848C467.915 196.857 475.905 215.407 482.287 247.077C487.083 270.896 491.766 292.523 486.188 319.499C482.289 338.378 474.249 354.83 465.5 367.713C456.022 381.673 445.99 400.186 429.637 397.579C407.173 393.995 373.926 343.867 384.59 282.131C396.313 214.311 431.696 188.922 449.599 192.848Z" fill="url(#paint2_linear_1235_29043)"/>
<path d="M138.438 428.323C146.248 428.323 152.58 421.991 152.58 414.181C152.58 406.371 146.248 400.039 138.438 400.039C130.628 400.039 124.296 406.371 124.296 414.181C124.296 421.991 130.628 428.323 138.438 428.323Z" fill="#4F27AA"/>
<path d="M754.752 370.359C762.074 370.359 768.01 376.295 768.01 383.617C768.01 390.939 762.074 396.875 754.752 396.875C747.43 396.875 741.494 390.939 741.494 383.617C741.494 376.295 747.43 370.359 754.752 370.359Z" fill="#4F27AA"/>
<path d="M739.783 216.263C743.2 216.263 745.97 219.033 745.97 222.45C745.97 225.867 743.2 228.637 739.783 228.637C736.366 228.637 733.596 225.867 733.596 222.45C733.596 219.033 736.366 216.263 739.783 216.263Z" fill="#4F27AA"/>
<path d="M384.371 54.9455C388.764 54.9455 392.326 58.507 392.326 62.9005C392.326 67.2939 388.764 70.8555 384.371 70.8555C379.978 70.8555 376.416 67.2939 376.416 62.9005C376.416 58.507 379.978 54.9455 384.371 54.9455Z" fill="#E1E4E5"/>
<path d="M697.821 63.1645C704.167 63.1645 709.311 68.3088 709.311 74.6545C709.311 81.0003 704.167 86.1445 697.821 86.1445C691.475 86.1445 686.331 81.0003 686.331 74.6545C686.331 68.3088 691.475 63.1645 697.821 63.1645Z" fill="#E1E4E5"/>
<path d="M624.245 406.041C629.075 406.041 632.99 409.957 632.99 414.786C632.99 419.616 629.075 423.531 624.245 423.531C619.415 423.531 615.5 419.616 615.5 414.786C615.5 409.957 619.415 406.041 624.245 406.041Z" fill="#E1E4E5"/>
<path d="M534.284 184.443C539.653 184.443 544.006 188.795 544.006 194.165C544.006 199.534 539.653 203.887 534.284 203.887C528.915 203.887 524.562 199.534 524.562 194.165C524.562 188.795 528.915 184.443 534.284 184.443Z" fill="#E1E4E5"/>
<path d="M722.362 305.094C721.114 300.436 723.878 295.649 728.536 294.401C733.193 293.153 737.981 295.917 739.229 300.574C740.477 305.232 737.713 310.02 733.055 311.268C728.398 312.516 723.61 309.752 722.362 305.094Z" fill="#E1E4E5"/>
<path d="M636.297 515.258C642.712 515.258 647.912 520.458 647.912 526.873C647.912 533.288 642.712 538.488 636.297 538.488C629.882 538.488 624.682 533.288 624.682 526.873C624.682 520.458 629.882 515.258 636.297 515.258Z" fill="#E1E4E5"/>
<path d="M311.034 145.116C315.968 145.116 319.968 148.316 319.968 152.263C319.968 156.21 315.968 159.41 311.034 159.41C306.1 159.41 302.1 156.21 302.1 152.263C302.1 148.316 306.1 145.116 311.034 145.116Z" fill="#E1E4E5"/>
<path d="M284.151 536.05C281.553 526.357 287.306 516.394 296.999 513.796C306.692 511.199 316.655 516.951 319.252 526.644C321.85 536.338 316.097 546.301 306.404 548.898C296.711 551.495 286.748 545.743 284.151 536.05Z" fill="#E1E4E5"/>
<path d="M389.519 518.112H520.734C630.079 518.112 673.818 474.374 673.818 365.028V233.814C673.818 124.468 630.079 80.7305 520.734 80.7305H389.519C280.174 80.7305 236.435 124.468 236.435 233.814V365.028C236.435 474.374 280.174 518.112 389.519 518.112Z" fill="#4F27AA"/>
<path d="M673.852 275.588H506.553M403.734 275.585H236.435M506.543 275.587C504.356 291.114 495.171 304.236 482.487 312.109V355.409C482.487 370.499 470.24 382.746 455.151 382.746C440.061 382.746 427.814 370.499 427.814 355.409V312.109C415.13 304.236 405.945 291.114 403.758 275.587C403.321 273.182 403.102 270.557 403.102 267.933C403.102 234.692 434.594 208.886 469.147 218.071C486.642 222.664 500.857 236.879 505.449 254.374C507.418 261.591 507.637 268.808 506.543 275.587V275.587Z" stroke="white" stroke-width="32" stroke-miterlimit="10"/>
</g>
<defs>
<linearGradient id="paint0_linear_1235_29043" x1="474.084" y1="905.168" x2="456.484" y2="-606.551" gradientUnits="userSpaceOnUse">
<stop stop-color="white"/>
<stop offset="1" stop-color="#EEEEEE"/>
</linearGradient>
<linearGradient id="paint1_linear_1235_29043" x1="330.315" y1="348.996" x2="657.738" y2="164.038" gradientUnits="userSpaceOnUse">
<stop stop-color="white"/>
<stop offset="1" stop-color="#EEEEEE"/>
</linearGradient>
<linearGradient id="paint2_linear_1235_29043" x1="568.982" y1="221.074" x2="241.559" y2="406.03" gradientUnits="userSpaceOnUse">
<stop stop-color="white"/>
<stop offset="1" stop-color="#EEEEEE"/>
</linearGradient>
<clipPath id="clip0_1235_29043">
<rect width="900" height="600" fill="white"/>
</clipPath>
</defs>
</svg>
