<svg width="900" height="600" viewBox="0 0 900 600" fill="none" xmlns="http://www.w3.org/2000/svg">
<g clip-path="url(#clip0_1235_29072)">
<path d="M470.135 98.8298L469.45 100.429L403.233 254.097H338.158C323.095 254.093 308.186 257.122 294.318 263.002L334.277 167.559L335.19 165.276L336.788 161.622C337.245 160.252 337.702 158.882 338.387 157.741C368.298 88.5558 402.092 72.8008 470.135 98.8308V98.8298Z" stroke="#E1E4E5" stroke-width="32" stroke-linecap="round" stroke-linejoin="round"/>
<path d="M593.207 258.665C582.932 255.468 571.972 254.098 561.012 254.098H403.234L469.45 100.43L470.135 98.832C473.56 99.973 476.757 101.572 480.182 102.942L530.644 124.177C558.729 135.822 578.365 147.923 590.239 162.537C592.522 165.277 594.349 167.788 595.947 170.757C598.002 173.953 599.6 177.15 600.514 180.575C601.366 182.492 602.054 184.478 602.569 186.512C608.734 205.692 605.08 229.21 593.207 258.665Z" stroke="#E1E4E5" stroke-width="32" stroke-linecap="round" stroke-linejoin="round"/>
<path d="M672 327.849V378.136C672 383.294 671.772 388.452 671.544 393.61C667.21 483.612 622.733 529 538.34 529H360.432C354.957 529 349.483 528.484 344.237 527.711C271.705 522.295 232.93 478.454 228.14 396.446C227.456 390.515 227 384.326 227 378.136V327.849C227 276.013 254.827 231.399 294.514 212.058C308.199 205.61 322.797 202 338.307 202H560.921C572.097 202 583.046 203.805 593.081 207.158C638.471 222.889 672 270.856 672 327.849Z" fill="#4F27AA"/>
<path d="M506.708 370.723H392.542M449.625 315V429.167" stroke="white" stroke-width="32" stroke-miterlimit="10" stroke-linecap="round" stroke-linejoin="round"/>
<path d="M213.3 118.817C225.616 124.927 241.964 117.071 241.964 117.071C241.964 117.071 238.331 99.3122 226.007 93.2112C213.69 87.1012 197.349 94.9482 197.349 94.9482C197.349 94.9482 200.983 112.707 213.3 118.817Z" fill="url(#paint0_linear_1235_29072)"/>
<path d="M192.364 134.999C196.983 134.999 200.728 138.743 200.728 143.363C200.728 147.982 196.983 151.727 192.364 151.727C187.745 151.727 184 147.982 184 143.363C184 138.743 187.745 134.999 192.364 134.999Z" fill="#4F27AA"/>
<path d="M627.731 71.9989C636.419 71.9989 643.462 79.0419 643.462 87.7299C643.462 96.4179 636.419 103.461 627.731 103.461C619.043 103.461 612 96.4179 612 87.7299C612 79.0419 619.043 71.9989 627.731 71.9989Z" fill="#4F27AA"/>
<path d="M719.361 236.722C723.979 236.722 727.722 232.979 727.722 228.361C727.722 223.743 723.979 220 719.361 220C714.743 220 711 223.743 711 228.361C711 232.979 714.743 236.722 719.361 236.722Z" fill="#4F27AA"/>
<path d="M183.817 243.634C190.343 243.634 195.634 238.343 195.634 231.817C195.634 225.291 190.343 220 183.817 220C177.291 220 172 225.291 172 231.817C172 238.343 177.291 243.634 183.817 243.634Z" fill="#E1E4E5"/>
<path d="M710.854 489.708C719.058 489.708 725.708 483.058 725.708 474.854C725.708 466.65 719.058 460 710.854 460C702.65 460 696 466.65 696 474.854C696 483.058 702.65 489.708 710.854 489.708Z" fill="#E1E4E5"/>
<path d="M702.053 340.394C700.367 346.688 704.102 353.157 710.395 354.844C716.689 356.53 723.159 352.795 724.845 346.501C726.531 340.208 722.796 333.738 716.503 332.052C710.209 330.365 703.739 334.101 702.053 340.394Z" fill="#E1E4E5"/>
<path d="M198.204 391.445C204.872 391.445 210.277 387.121 210.277 381.787C210.277 376.453 204.872 372.129 198.204 372.129C191.536 372.129 186.131 376.453 186.131 381.787C186.131 387.121 191.536 391.445 198.204 391.445Z" fill="#E1E4E5"/>
<path d="M172.259 459.691C172.259 470.333 180.886 478.96 191.528 478.96C202.17 478.96 210.797 470.333 210.797 459.691C210.797 449.049 202.17 440.422 191.528 440.422C180.886 440.422 172.259 449.049 172.259 459.691Z" fill="#E1E4E5"/>
<path d="M686.922 143H686.75C685.731 157.43 675 157.652 675 157.652C675 157.652 686.834 157.883 686.834 174.556C686.834 157.883 698.667 157.652 698.667 157.652C698.667 157.652 687.94 157.43 686.922 143ZM283.446 88H283.281C282.303 102.387 272 102.608 272 102.608C272 102.608 283.362 102.839 283.362 119.463C283.362 102.839 294.723 102.608 294.723 102.608C294.723 102.608 284.424 102.387 283.446 88Z" fill="#E1E4E5"/>
</g>
<defs>
<linearGradient id="paint0_linear_1235_29072" x1="260.598" y1="137.875" x2="159.008" y2="57.5172" gradientUnits="userSpaceOnUse">
<stop stop-color="white"/>
<stop offset="1" stop-color="#EEEEEE"/>
</linearGradient>
<clipPath id="clip0_1235_29072">
<rect width="900" height="600" fill="white"/>
</clipPath>
</defs>
</svg>
