<svg width="900" height="600" viewBox="0 0 900 600" fill="none" xmlns="http://www.w3.org/2000/svg">
<g clip-path="url(#clip0_1235_29088)">
<path d="M216.64 196.73C249.156 212.86 292.313 192.12 292.313 192.12C292.313 192.12 282.722 145.238 250.188 129.131C217.672 113.001 174.532 133.718 174.532 133.718C174.532 133.718 184.124 180.6 216.64 196.73Z" fill="url(#paint0_linear_1235_29088)"/>
<path d="M772.06 341.161C754.394 351.749 729.048 341.961 729.048 341.961C729.048 341.961 732.362 315.01 750.039 304.434C767.706 293.846 793.041 303.622 793.041 303.622C793.041 303.622 789.727 330.573 772.06 341.161Z" fill="url(#paint1_linear_1235_29088)"/>
<path d="M221.987 495.568C227.503 495.568 231.974 491.096 231.974 485.581C231.974 480.065 227.503 475.594 221.987 475.594C216.471 475.594 212 480.065 212 485.581C212 491.096 216.471 495.568 221.987 495.568Z" fill="#E1E4E5"/>
<path d="M724.426 489.85C732.393 489.85 738.851 483.392 738.851 475.425C738.851 467.458 732.393 461 724.426 461C716.459 461 710.001 467.458 710.001 475.425C710.001 483.392 716.459 489.85 724.426 489.85Z" fill="#E1E4E5"/>
<path d="M353.979 469.552C360.043 469.552 364.958 464.636 364.958 458.573C364.958 452.509 360.043 447.594 353.979 447.594C347.915 447.594 343 452.509 343 458.573C343 464.636 347.915 469.552 353.979 469.552Z" fill="#E1E4E5"/>
<path d="M123.697 130.252C130.438 130.252 135.903 124.787 135.903 118.046C135.903 111.305 130.438 105.84 123.697 105.84C116.956 105.84 111.491 111.305 111.491 118.046C111.491 124.787 116.956 130.252 123.697 130.252Z" fill="#E1E4E5"/>
<path d="M792.078 195.137C792.078 201.19 796.985 206.098 803.039 206.098C809.093 206.098 814 201.19 814 195.137C814 189.083 809.093 184.176 803.039 184.176C796.985 184.176 792.078 189.083 792.078 195.137Z" fill="#E1E4E5"/>
<path d="M481.72 104.164C489.773 104.164 496.302 97.6354 496.302 89.582C496.302 81.5286 489.773 75 481.72 75C473.667 75 467.138 81.5286 467.138 89.582C467.138 97.6354 473.667 104.164 481.72 104.164Z" fill="#E1E4E5"/>
<path d="M102.192 357.091C108.387 357.091 113.409 353.073 113.409 348.118C113.409 343.162 108.387 339.145 102.192 339.145C95.997 339.145 90.975 343.162 90.975 348.118C90.975 353.073 95.997 357.091 102.192 357.091Z" fill="#E1E4E5"/>
<path d="M680.537 130.078H680.378C679.431 143.484 669.461 143.691 669.461 143.691C669.461 143.691 680.456 143.905 680.456 159.396C680.456 143.905 691.45 143.691 691.45 143.691C691.45 143.691 681.484 143.484 680.537 130.078Z" fill="#E1E4E5"/>
<path d="M378.421 316.631V346.713C378.421 402.452 410.271 426.34 458.047 426.34H617.3C665.076 426.34 696.927 402.452 696.927 346.713V251.161C696.927 195.423 665.076 171.535 617.3 171.535H569.524C571.825 178.259 573.063 185.691 573.063 193.653V262.663C573.063 279.827 567.401 294.337 557.315 304.423C547.229 314.509 532.719 320.171 515.555 320.171V344.767C515.555 353.792 505.292 359.275 497.683 354.321L446.546 320.171H400.539C392.577 320.171 385.145 318.931 378.421 316.631V316.631Z" stroke="#E1E4E5" stroke-width="24" stroke-miterlimit="10" stroke-linecap="round" stroke-linejoin="round"/>
<path d="M343.031 193.653V262.663C343.031 289.028 356.479 308.845 378.421 316.631C385.145 318.931 392.576 320.171 400.539 320.171H446.545L497.683 354.321C505.292 359.275 515.555 353.792 515.555 344.767V320.171C532.719 320.171 547.229 314.509 557.315 304.423C567.401 294.337 573.063 279.827 573.063 262.663V193.653C573.063 185.691 571.824 178.259 569.524 171.535C561.738 149.593 541.92 136.145 515.555 136.145H400.539C366.034 136.145 343.031 159.148 343.031 193.653Z" fill="#E1E4E5" stroke="#E1E4E5" stroke-width="24" stroke-miterlimit="10" stroke-linecap="round" stroke-linejoin="round"/>
<path d="M601.376 490.041H473.974M537.674 426.34V490.041" stroke="#E1E4E5" stroke-width="24" stroke-miterlimit="10" stroke-linecap="round" stroke-linejoin="round"/>
<path d="M405.043 229.043H404.883M454.584 229.043H454.425M504.135 229.043H503.976" stroke="white" stroke-width="32" stroke-linecap="round" stroke-linejoin="round"/>
<path d="M303.032 304.145V373.155C303.032 399.52 289.584 419.337 267.642 427.123C260.918 429.423 253.487 430.663 245.524 430.663H199.518L148.38 464.813C140.771 469.767 130.508 464.284 130.508 455.259V430.663C113.344 430.663 98.834 425.001 88.748 414.915C78.662 404.829 73 390.319 73 373.155V304.145C73 296.183 74.239 288.751 76.539 282.027C84.325 260.085 104.143 246.637 130.508 246.637H245.524C280.029 246.637 303.032 269.64 303.032 304.145Z" fill="#4F27AA" stroke="#4F27AA" stroke-width="32" stroke-miterlimit="10" stroke-linecap="round" stroke-linejoin="round"/>
<path d="M241.021 339.535H241.18M191.479 339.535H191.638M141.928 339.535H142.087" stroke="white" stroke-width="32" stroke-linecap="round" stroke-linejoin="round"/>
<path d="M725.515 446.001C676.646 446.001 637.03 406.385 637.03 357.516C637.03 308.647 676.646 269.031 725.515 269.031C774.384 269.031 814 308.647 814 357.516C814 406.385 774.384 446.001 725.515 446.001Z" fill="#4F27AA"/>
<path fill-rule="evenodd" clip-rule="evenodd" d="M756.028 388.475V392.829C756.027 393.984 755.567 395.092 754.75 395.908C753.932 396.724 752.824 397.183 751.669 397.183H699.363C698.208 397.183 697.1 396.724 696.282 395.908C695.465 395.092 695.005 393.984 695.004 392.829V388.405C695.004 375.23 710.077 366.671 725.516 366.671C740.955 366.671 756.028 375.235 756.028 388.405M736.304 328.422C742.261 334.38 742.261 344.039 736.304 349.997C730.346 355.955 720.686 355.955 714.728 349.997C708.771 344.039 708.771 334.38 714.728 328.422C720.686 322.464 730.346 322.464 736.304 328.422Z" fill="white"/>
</g>
<defs>
<linearGradient id="paint0_linear_1235_29088" x1="341.505" y1="247.043" x2="73.311" y2="34.9008" gradientUnits="userSpaceOnUse">
<stop stop-color="white"/>
<stop offset="1" stop-color="#EEEEEE"/>
</linearGradient>
<linearGradient id="paint1_linear_1235_29088" x1="703.696" y1="375.244" x2="845.847" y2="243.167" gradientUnits="userSpaceOnUse">
<stop stop-color="white"/>
<stop offset="1" stop-color="#EEEEEE"/>
</linearGradient>
<clipPath id="clip0_1235_29088">
<rect width="900" height="600" fill="white"/>
</clipPath>
</defs>
</svg>
