<svg width="900" height="600" viewBox="0 0 900 600" fill="none" xmlns="http://www.w3.org/2000/svg">
<g clip-path="url(#clip0_1235_29131)">
<path d="M801.016 395.911H733.29C716.695 395.911 702.791 384.62 702.791 370.318C702.791 363.167 706.379 356.768 711.761 352.252C717.143 347.735 724.768 344.724 733.29 344.724H743.157C751.679 344.724 759.304 341.713 764.686 337.197C770.068 332.68 773.656 326.282 773.656 319.131C773.656 305.205 760.201 293.537 743.157 293.537H536.295C530.893 293.537 527.421 286.896 527.421 281.493C527.421 267.944 514.414 257.029 498.267 257.029H421.285C419.353 257.006 417.508 256.223 416.15 254.849C414.792 253.475 414.031 251.621 414.031 249.689C414.031 247.758 414.792 245.904 416.15 244.53C417.508 243.156 419.353 242.373 421.285 242.35H716.246C729.253 242.35 741.363 237.833 749.885 230.682C758.407 223.531 763.789 213.369 763.789 202.454C763.789 180.248 742.26 162.558 716.246 162.558H563.901C539.999 162.558 516.338 144.116 492.436 144.116H407.375C394.903 144.116 384.792 134.005 384.792 121.533C384.792 109.061 394.903 98.951 407.375 98.951H597.838C606.808 98.951 615.33 95.94 621.161 91.047C626.991 86.154 630.579 79.379 630.579 71.475C630.579 56.42 615.778 44 597.838 44H158.74C149.77 44 141.248 47.011 135.417 51.904C129.586 56.797 125.998 63.571 125.998 71.475C125.998 86.53 140.799 98.951 158.74 98.951H169.953C184.754 98.951 197.312 109.113 197.312 121.91C197.312 128.308 194.173 133.954 189.239 138.094C184.305 142.234 177.578 144.869 169.953 144.869H115.682C106.264 144.869 97.293 148.256 91.014 153.525C84.734 158.795 80.698 165.946 80.698 174.226C80.698 190.41 96.396 203.207 115.234 203.207H170.401C188.342 203.207 203.143 215.627 203.143 230.682C203.143 238.21 199.555 244.985 193.724 249.877C187.894 254.77 179.82 257.781 170.85 257.781H121.513C113.44 257.781 106.264 260.416 100.881 264.932C95.499 269.449 92.359 275.471 92.359 282.246C92.359 295.795 105.366 306.71 121.513 306.71H161.431C184.305 306.71 202.695 322.142 202.695 341.337C202.695 350.746 198.209 359.779 190.585 365.801C182.96 372.2 172.644 375.963 161.431 375.963H105.815C94.602 375.963 84.286 379.727 77.11 386.125C69.485 392.147 65 400.804 65 410.214C65 429.032 83.39 444.464 105.815 444.464H277.549C296.514 444.464 315.145 455.002 334.11 455.002H365.393C377.346 455.002 387.035 464.691 387.035 476.644C387.035 488.596 377.346 498.285 365.393 498.285H289.258C279.391 498.285 270.869 501.673 264.59 506.942C258.311 512.211 254.274 519.739 254.274 527.643C254.274 543.827 269.972 557 289.258 557H755.716C765.583 557 774.105 553.613 780.384 548.343C786.663 543.074 790.7 535.547 790.7 527.643C790.7 511.459 775.002 498.285 755.716 498.285H741.812C727.459 498.285 716.246 488.5 716.246 476.832C716.246 470.81 718.937 465.541 723.871 461.777C728.356 458.013 735.084 455.379 742.26 455.379H801.016C810.883 455.379 819.405 451.991 825.684 446.722C831.963 441.453 836 433.925 836 426.021C836 409.084 820.302 395.911 801.016 395.911Z" fill="url(#paint0_linear_1235_29131)"/>
<path d="M763.382 78H234C231.791 78 230 79.7909 230 82V474.707C230 476.916 231.791 478.707 234 478.707H763.382C765.591 478.707 767.382 476.916 767.382 474.707V82C767.382 79.7909 765.591 78 763.382 78Z" fill="white" stroke="#E1E4E5" stroke-width="4"/>
<path d="M763.382 78H234C231.791 78 230 79.7909 230 82V120.594C230 122.803 231.791 124.594 234 124.594H763.382C765.591 124.594 767.382 122.803 767.382 120.594V82C767.382 79.7909 765.591 78 763.382 78Z" fill="white" stroke="#E1E4E5" stroke-width="4"/>
<path d="M264.168 101.297C264.168 97.008 260.691 93.5312 256.402 93.5312C252.114 93.5312 248.637 97.008 248.637 101.297C248.637 105.586 252.114 109.062 256.402 109.062C260.691 109.062 264.168 105.586 264.168 101.297Z" fill="white" stroke="#E1E4E5" stroke-width="4"/>
<path d="M292.125 101.297C292.125 97.008 288.648 93.5312 284.359 93.5312C280.071 93.5312 276.594 97.008 276.594 101.297C276.594 105.586 280.071 109.062 284.359 109.062C288.648 109.062 292.125 105.586 292.125 101.297Z" fill="white" stroke="#E1E4E5" stroke-width="4"/>
<path d="M320.081 101.297C320.081 97.008 316.604 93.5312 312.316 93.5312C308.027 93.5312 304.55 97.008 304.55 101.297C304.55 105.586 308.027 109.062 312.316 109.062C316.604 109.062 320.081 105.586 320.081 101.297Z" fill="white" stroke="#E1E4E5" stroke-width="4"/>
<path d="M741.186 158H371C368.791 158 367 159.791 367 162V436C367 438.209 368.791 440 371 440H741.186C743.395 440 745.186 438.209 745.186 436V162C745.186 159.791 743.395 158 741.186 158Z" fill="white" stroke="#E1E4E5" stroke-width="4"/>
<path d="M741.186 158H371C368.791 158 367 159.791 367 162V186.791C367 189 368.791 190.791 371 190.791H741.186C743.395 190.791 745.186 189 745.186 186.791V162C745.186 159.791 743.395 158 741.186 158Z" fill="white" stroke="#E1E4E5" stroke-width="4"/>
<path d="M391.046 174.395C391.046 171.376 388.599 168.93 385.581 168.93C382.563 168.93 380.116 171.376 380.116 174.395C380.116 177.413 382.563 179.86 385.581 179.86C388.599 179.86 391.046 177.413 391.046 174.395Z" fill="white" stroke="#E1E4E5" stroke-width="4"/>
<path d="M410.721 174.395C410.721 171.376 408.274 168.93 405.256 168.93C402.238 168.93 399.791 171.376 399.791 174.395C399.791 177.413 402.238 179.86 405.256 179.86C408.274 179.86 410.721 177.413 410.721 174.395Z" fill="white" stroke="#E1E4E5" stroke-width="4"/>
<path d="M430.395 174.395C430.395 171.376 427.948 168.93 424.93 168.93C421.912 168.93 419.465 171.376 419.465 174.395C419.465 177.413 421.912 179.86 424.93 179.86C427.948 179.86 430.395 177.413 430.395 174.395Z" fill="white" stroke="#E1E4E5" stroke-width="4"/>
<path d="M718.414 168.586L730.414 180.586M730.586 168.586L718.586 180.586" stroke="#E1E4E5" stroke-width="4"/>
<path d="M443 341H400C397.791 341 396 342.791 396 345V399C396 401.209 397.791 403 400 403H443C445.209 403 447 401.209 447 399V345C447 342.791 445.209 341 443 341Z" fill="#4F27AA"/>
<path d="M510 307H467C464.791 307 463 308.791 463 311V399C463 401.209 464.791 403 467 403H510C512.209 403 514 401.209 514 399V311C514 308.791 512.209 307 510 307Z" fill="white" stroke="#E1E4E5" stroke-width="4"/>
<path d="M577 279H534C531.791 279 530 280.791 530 283V399C530 401.209 531.791 403 534 403H577C579.209 403 581 401.209 581 399V283C581 280.791 579.209 279 577 279Z" fill="#4F27AA"/>
<path d="M644 252H601C598.791 252 597 253.791 597 256V399C597 401.209 598.791 403 601 403H644C646.209 403 648 401.209 648 399V256C648 253.791 646.209 252 644 252Z" fill="white" stroke="#E1E4E5" stroke-width="4"/>
<path d="M711 220H668C665.791 220 664 221.791 664 224V399C664 401.209 665.791 403 668 403H711C713.209 403 715 401.209 715 399V224C715 221.791 713.209 220 711 220Z" fill="#4F27AA"/>
<path d="M317 145H143C137.477 145 133 149.477 133 155V309C133 314.523 137.477 319 143 319H317C322.523 319 327 314.523 327 309V155C327 149.477 322.523 145 317 145Z" fill="#4F27AA"/>
<path d="M199 249C199 238.507 190.493 230 180 230C169.507 230 161 238.507 161 249V257C161 267.493 169.507 276 180 276C190.493 276 199 267.493 199 257V249Z" fill="white"/>
<path d="M249 224C249 213.507 240.493 205 230 205C219.507 205 211 213.507 211 224V257C211 267.493 219.507 276 230 276C240.493 276 249 267.493 249 257V224Z" fill="white"/>
<path d="M298 203C298 192.507 289.493 184 279 184C268.507 184 260 192.507 260 203V257C260 267.493 268.507 276 279 276C289.493 276 298 267.493 298 257V203Z" fill="white"/>
<path d="M382.5 487C387.194 487 391 483.194 391 478.5C391 473.806 387.194 470 382.5 470C377.806 470 374 473.806 374 478.5C374 483.194 377.806 487 382.5 487Z" fill="white" stroke="#E1E4E5" stroke-width="4"/>
<path d="M454.5 487C459.194 487 463 483.194 463 478.5C463 473.806 459.194 470 454.5 470C449.806 470 446 473.806 446 478.5C446 483.194 449.806 487 454.5 487Z" fill="white" stroke="#E1E4E5" stroke-width="4"/>
<path d="M518.5 487C523.194 487 527 483.194 527 478.5C527 473.806 523.194 470 518.5 470C513.806 470 510 473.806 510 478.5C510 483.194 513.806 487 518.5 487Z" fill="white" stroke="#E1E4E5" stroke-width="4"/>
<path d="M582.5 487C587.194 487 591 483.194 591 478.5C591 473.806 587.194 470 582.5 470C577.806 470 574 473.806 574 478.5C574 483.194 577.806 487 582.5 487Z" fill="white" stroke="#E1E4E5" stroke-width="4"/>
<path d="M646.5 487C651.194 487 655 483.194 655 478.5C655 473.806 651.194 470 646.5 470C641.806 470 638 473.806 638 478.5C638 483.194 641.806 487 646.5 487Z" fill="white" stroke="#E1E4E5" stroke-width="4"/>
<path d="M710.5 487C715.194 487 719 483.194 719 478.5C719 473.806 715.194 470 710.5 470C705.806 470 702 473.806 702 478.5C702 483.194 705.806 487 710.5 487Z" fill="white" stroke="#E1E4E5" stroke-width="4"/>
<path d="M234 523C281.496 523 320 484.496 320 437C320 389.504 281.496 351 234 351C186.504 351 148 389.504 148 437C148 484.496 186.504 523 234 523Z" fill="white" stroke="#E1E4E5" stroke-width="4"/>
<path d="M234 501C269.346 501 298 472.346 298 437C298 401.654 269.346 373 234 373C198.654 373 170 401.654 170 437C170 472.346 198.654 501 234 501Z" fill="#4F27AA"/>
<path d="M234 477C256.091 477 274 459.091 274 437C274 414.909 256.091 397 234 397C211.909 397 194 414.909 194 437C194 459.091 211.909 477 234 477Z" fill="white"/>
<path d="M234 459C246.15 459 256 449.15 256 437C256 424.85 246.15 415 234 415C221.85 415 212 424.85 212 437C212 449.15 221.85 459 234 459Z" fill="#4F27AA"/>
<path d="M575.966 226.859H461.445C458.665 226.859 456.411 229.113 456.411 231.893C456.411 234.674 458.665 236.927 461.445 236.927H575.966C578.746 236.927 581 234.674 581 231.893C581 229.113 578.746 226.859 575.966 226.859Z" fill="#E1E4E5"/>
<path d="M531.919 248.254H461.445C458.665 248.254 456.411 250.508 456.411 253.288C456.411 256.068 458.665 258.322 461.445 258.322H531.919C534.699 258.322 536.953 256.068 536.953 253.288C536.953 250.508 534.699 248.254 531.919 248.254Z" fill="#E1E4E5"/>
<path fill-rule="evenodd" clip-rule="evenodd" d="M417.251 264.288C405.515 264.288 396 254.64 396 242.738C396 230.837 405.515 221.188 417.251 221.188C428.987 221.188 438.502 230.837 438.502 242.738C438.502 254.64 428.987 264.288 417.251 264.288Z" fill="#4F27AA"/>
<path d="M424.734 239.145L415.756 248.723L410.367 242.978" stroke="white" stroke-width="3.148" stroke-linecap="round" stroke-linejoin="round"/>
</g>
<defs>
<linearGradient id="paint0_linear_1235_29131" x1="466.939" y1="844.617" x2="456.413" y2="-514.159" gradientUnits="userSpaceOnUse">
<stop stop-color="white"/>
<stop offset="1" stop-color="#EEEEEE"/>
</linearGradient>
<clipPath id="clip0_1235_29131">
<rect width="900" height="600" fill="white"/>
</clipPath>
</defs>
</svg>
