<svg width="900" height="600" viewBox="0 0 900 600" fill="none" xmlns="http://www.w3.org/2000/svg">
<g clip-path="url(#clip0_1235_29187)">
<path d="M816.618 49.4219H152C149.791 49.4219 148 51.2127 148 53.4219V546.97C148 549.179 149.791 550.97 152 550.97H816.618C818.827 550.97 820.618 549.179 820.618 546.97V53.4219C820.618 51.2127 818.827 49.4219 816.618 49.4219Z" fill="white" stroke="#E1E4E5" stroke-width="4"/>
<path d="M692.247 167.66C696.808 165.027 701.981 163.641 707.247 163.641C712.513 163.641 717.686 165.027 722.247 167.66L760.012 189.463C764.573 192.096 768.36 195.883 770.993 200.444C773.626 205.004 775.012 210.178 775.012 215.444V259.051C775.012 264.317 773.626 269.49 770.993 274.051C768.36 278.611 764.572 282.398 760.012 285.031L722.247 306.835C717.686 309.468 712.513 310.854 707.247 310.854C701.981 310.854 696.808 309.468 692.247 306.835L654.483 285.031C649.922 282.398 646.135 278.611 643.502 274.051C640.869 269.49 639.483 264.317 639.483 259.051V215.444C639.483 210.178 640.869 205.004 643.502 200.444C646.135 195.883 649.922 192.096 654.483 189.463L692.247 167.66Z" fill="#4F27AA"/>
<path d="M731.449 222.629L702.887 250.962L685.75 233.962" stroke="white" stroke-width="8.45" stroke-linecap="round" stroke-linejoin="round"/>
<path d="M516 458.422H473C470.791 458.422 469 460.213 469 462.422V516.422C469 518.631 470.791 520.422 473 520.422H516C518.209 520.422 520 518.631 520 516.422V462.422C520 460.213 518.209 458.422 516 458.422Z" fill="#4F27AA"/>
<path d="M583 424.422H540C537.791 424.422 536 426.213 536 428.422V516.422C536 518.631 537.791 520.422 540 520.422H583C585.209 520.422 587 518.631 587 516.422V428.422C587 426.213 585.209 424.422 583 424.422Z" fill="white" stroke="#E1E4E5" stroke-width="4"/>
<path d="M650 396.422H607C604.791 396.422 603 398.213 603 400.422V516.422C603 518.631 604.791 520.422 607 520.422H650C652.209 520.422 654 518.631 654 516.422V400.422C654 398.213 652.209 396.422 650 396.422Z" fill="#4F27AA"/>
<path d="M717 369.422H674C671.791 369.422 670 371.213 670 373.422V516.422C670 518.631 671.791 520.422 674 520.422H717C719.209 520.422 721 518.631 721 516.422V373.422C721 371.213 719.209 369.422 717 369.422Z" fill="white" stroke="#E1E4E5" stroke-width="4"/>
<path d="M784 337.422H741C738.791 337.422 737 339.213 737 341.422V516.422C737 518.631 738.791 520.422 741 520.422H784C786.209 520.422 788 518.631 788 516.422V341.422C788 339.213 786.209 337.422 784 337.422Z" fill="#4F27AA"/>
<path d="M817 49H152.382C150.173 49 148.382 50.7909 148.382 53V103.319C148.382 105.528 150.173 107.319 152.382 107.319H817C819.209 107.319 821 105.528 821 103.319V53C821 50.7909 819.209 49 817 49Z" fill="white" stroke="#E1E4E5" stroke-width="4"/>
<path d="M191.149 78.1614C191.149 72.7932 186.797 68.4414 181.429 68.4414C176.061 68.4414 171.709 72.7932 171.709 78.1614C171.709 83.5296 176.061 87.8814 181.429 87.8814C186.797 87.8814 191.149 83.5296 191.149 78.1614Z" fill="white" stroke="#E1E4E5" stroke-width="4"/>
<path d="M226.141 78.1614C226.141 72.7932 221.789 68.4414 216.421 68.4414C211.053 68.4414 206.701 72.7932 206.701 78.1614C206.701 83.5296 211.053 87.8814 216.421 87.8814C221.789 87.8814 226.141 83.5296 226.141 78.1614Z" fill="white" stroke="#E1E4E5" stroke-width="4"/>
<path d="M261.133 78.1614C261.133 72.7932 256.781 68.4414 251.413 68.4414C246.045 68.4414 241.693 72.7932 241.693 78.1614C241.693 83.5296 246.045 87.8814 251.413 87.8814C256.781 87.8814 261.133 83.5296 261.133 78.1614Z" fill="white" stroke="#E1E4E5" stroke-width="4"/>
<path d="M189.577 246.934H326.504V358.13H189.577V246.934Z" fill="#E1E4E5"/>
<path fill-rule="evenodd" clip-rule="evenodd" d="M314.864 255.513H202.136C200.268 255.513 198.476 256.255 197.154 257.576C195.833 258.898 195.091 260.689 195.091 262.558V347.103C195.091 348.028 195.273 348.944 195.627 349.799C195.981 350.654 196.5 351.431 197.154 352.085C197.808 352.739 198.585 353.258 199.44 353.613C200.295 353.967 201.211 354.149 202.136 354.149H314.864C315.789 354.149 316.705 353.967 317.56 353.613C318.415 353.258 319.192 352.739 319.846 352.085C320.5 351.431 321.019 350.654 321.373 349.799C321.727 348.944 321.909 348.028 321.909 347.103V262.558C321.909 260.689 321.167 258.898 319.846 257.576C318.524 256.255 316.732 255.513 314.864 255.513ZM202.136 241.422C190.463 241.422 181 250.885 181 262.558V347.103C181 358.777 190.463 368.24 202.136 368.24H314.864C326.537 368.24 336 358.777 336 347.103V262.558C336 250.885 326.537 241.422 314.864 241.422H202.136Z" fill="#E1E4E5"/>
<path fill-rule="evenodd" clip-rule="evenodd" d="M210.815 272.136C212.011 270.701 213.729 269.8 215.59 269.631C217.451 269.461 219.302 270.038 220.738 271.234L253.99 298.944C255.256 299.999 256.852 300.577 258.5 300.577C260.148 300.577 261.744 299.999 263.01 298.944L296.262 271.234C297.7 270.063 299.542 269.506 301.389 269.685C303.235 269.863 304.937 270.762 306.124 272.187C307.312 273.612 307.889 275.448 307.732 277.296C307.574 279.144 306.694 280.856 305.283 282.059L272.031 309.769C264.193 316.301 252.807 316.301 244.969 309.769L211.717 282.059C210.282 280.863 209.38 279.146 209.211 277.285C209.042 275.424 209.619 273.572 210.815 272.136Z" fill="white"/>
<path d="M595 278.422C595 217.671 545.751 168.422 485 168.422C424.249 168.422 375 217.671 375 278.422C375 339.173 424.249 388.422 485 388.422C545.751 388.422 595 339.173 595 278.422Z" stroke="#E1E4E5" stroke-width="4.242" stroke-linecap="round" stroke-linejoin="bevel" stroke-dasharray="10.6 26.51"/>
<path d="M189.577 398.934H326.504V510.13H189.577V398.934Z" fill="#E1E4E5"/>
<path fill-rule="evenodd" clip-rule="evenodd" d="M314.864 407.513H202.136C200.268 407.513 198.476 408.255 197.154 409.576C195.833 410.898 195.091 412.689 195.091 414.558V499.103C195.091 500.028 195.273 500.944 195.627 501.799C195.981 502.654 196.5 503.431 197.154 504.085C197.808 504.739 198.585 505.258 199.44 505.613C200.295 505.967 201.211 506.149 202.136 506.149H314.864C315.789 506.149 316.705 505.967 317.56 505.613C318.415 505.258 319.192 504.739 319.846 504.085C320.5 503.431 321.019 502.654 321.373 501.799C321.727 500.944 321.909 500.028 321.909 499.103V414.558C321.909 412.689 321.167 410.898 319.846 409.576C318.524 408.255 316.732 407.513 314.864 407.513ZM202.136 393.422C190.463 393.422 181 402.885 181 414.558V499.103C181 510.777 190.463 520.24 202.136 520.24H314.864C326.537 520.24 336 510.777 336 499.103V414.558C336 402.885 326.537 393.422 314.864 393.422H202.136Z" fill="#E1E4E5"/>
<path fill-rule="evenodd" clip-rule="evenodd" d="M210.815 424.136C212.011 422.701 213.729 421.8 215.59 421.631C217.451 421.461 219.302 422.038 220.738 423.234L253.99 450.944C255.256 451.999 256.852 452.577 258.5 452.577C260.148 452.577 261.744 451.999 263.01 450.944L296.262 423.234C297.7 422.063 299.542 421.506 301.389 421.685C303.235 421.863 304.937 422.762 306.124 424.187C307.312 425.612 307.889 427.448 307.732 429.296C307.574 431.144 306.694 432.856 305.283 434.059L272.031 461.769C264.193 468.301 252.807 468.301 244.969 461.769L211.717 434.059C210.282 432.863 209.38 431.146 209.211 429.285C209.042 427.424 209.619 425.572 210.815 424.136Z" fill="white"/>
<path d="M87.5771 173.934H224.504V285.13H87.5771V173.934Z" fill="#4F27AA"/>
<path fill-rule="evenodd" clip-rule="evenodd" d="M212.864 182.513H100.136C98.2676 182.513 96.4756 183.255 95.1544 184.576C93.8332 185.898 93.091 187.689 93.091 189.558V274.103C93.0909 275.028 93.273 275.944 93.627 276.799C93.981 277.654 94.4999 278.431 95.1541 279.085C95.8083 279.739 96.585 280.258 97.4398 280.613C98.2946 280.967 99.2108 281.149 100.136 281.149H212.864C213.789 281.149 214.705 280.967 215.56 280.613C216.415 280.258 217.192 279.739 217.846 279.085C218.5 278.431 219.019 277.654 219.373 276.799C219.727 275.944 219.909 275.028 219.909 274.103V189.558C219.909 187.689 219.167 185.898 217.846 184.576C216.524 183.255 214.732 182.513 212.864 182.513ZM100.136 168.422C88.463 168.422 79 177.885 79 189.558V274.103C79 285.777 88.463 295.24 100.136 295.24H212.864C224.537 295.24 234 285.777 234 274.103V189.558C234 177.885 224.537 168.422 212.864 168.422H100.136Z" fill="#4F27AA"/>
<path fill-rule="evenodd" clip-rule="evenodd" d="M108.815 199.136C110.011 197.701 111.729 196.8 113.59 196.631C115.451 196.461 117.302 197.038 118.738 198.234L151.99 225.944C153.256 226.999 154.852 227.577 156.5 227.577C158.148 227.577 159.744 226.999 161.01 225.944L194.262 198.234C195.7 197.063 197.543 196.506 199.389 196.685C201.235 196.863 202.937 197.762 204.124 199.187C205.312 200.612 205.889 202.448 205.732 204.296C205.574 206.144 204.694 207.856 203.283 209.059L170.031 236.769C162.193 243.301 150.807 243.301 142.969 236.769L109.717 209.059C108.282 207.863 107.38 206.146 107.211 204.285C107.042 202.424 107.619 200.572 108.815 199.136Z" fill="white"/>
<path d="M484.265 260.419C474.177 260.419 466 268.597 466 278.684C466 288.772 474.177 296.949 484.265 296.949C494.352 296.949 502.53 288.772 502.53 278.684C502.53 268.597 494.352 260.419 484.265 260.419Z" fill="#4F27AA"/>
<path d="M422.123 523.248C412.666 523.248 404.999 515.581 404.999 506.124C404.999 496.667 412.666 489 422.123 489C431.58 489 439.247 496.667 439.247 506.124C439.247 515.581 431.58 523.248 422.123 523.248Z" fill="#4F27AA"/>
<path d="M387.138 339.317C389.975 334.403 396.258 332.719 401.172 335.556C406.086 338.393 407.77 344.677 404.933 349.591C402.096 354.505 395.812 356.188 390.898 353.351C385.984 350.514 384.301 344.231 387.138 339.317Z" fill="#E1E4E5"/>
<path d="M374.84 429.102C366.644 429.102 360 422.458 360 414.262C360 406.066 366.644 399.422 374.84 399.422C383.036 399.422 389.68 406.066 389.68 414.262C389.68 422.458 383.036 429.102 374.84 429.102Z" fill="#E1E4E5"/>
<path d="M327.002 173.424C318.717 173.424 312.001 166.708 312.001 158.423C312.001 150.138 318.717 143.422 327.002 143.422C335.287 143.422 342.003 150.138 342.003 158.423C342.003 166.708 335.287 173.424 327.002 173.424Z" fill="#E1E4E5"/>
<path d="M258.866 355.422H259.127C260.677 367.768 277 367.958 277 367.958C277 367.958 259 368.156 259 382.422C259 368.156 241 367.958 241 367.958C241 367.958 257.317 367.768 258.866 355.422Z" fill="#E1E4E5"/>
</g>
<defs>
<clipPath id="clip0_1235_29187">
<rect width="900" height="600" fill="white"/>
</clipPath>
</defs>
</svg>
