<svg width="900" height="600" viewBox="0 0 900 600" fill="none" xmlns="http://www.w3.org/2000/svg">
<g clip-path="url(#clip0_1235_29217)">
<path d="M628.98 311C628.98 215.455 551.525 138 455.98 138C360.435 138 282.98 215.455 282.98 311C282.98 406.545 360.435 484 455.98 484C551.525 484 628.98 406.545 628.98 311Z" stroke="#E1E4E5" stroke-width="11" stroke-linecap="round" stroke-linejoin="bevel" stroke-dasharray="10.6 26.51"/>
<path d="M325.98 415C325.98 369.713 289.267 333 243.98 333C198.693 333 161.98 369.713 161.98 415V449C161.98 494.287 198.693 531 243.98 531C289.267 531 325.98 494.287 325.98 449V415Z" fill="white" stroke="#E1E4E5" stroke-width="11"/>
<path d="M537.98 307C537.98 261.713 501.267 225 455.98 225C410.693 225 373.98 261.713 373.98 307V449C373.98 494.287 410.693 531 455.98 531C501.267 531 537.98 494.287 537.98 449V307Z" fill="white" stroke="#E1E4E5" stroke-width="11"/>
<path d="M749.98 217C749.98 171.713 713.267 135 667.98 135C622.693 135 585.98 171.713 585.98 217V449C585.98 494.287 622.693 531 667.98 531C713.267 531 749.98 494.287 749.98 449V217Z" fill="white" stroke="#E1E4E5" stroke-width="11"/>
<path d="M334.98 222C353.758 222 368.98 206.778 368.98 188C368.98 169.222 353.758 154 334.98 154C316.202 154 300.98 169.222 300.98 188C300.98 206.778 316.202 222 334.98 222Z" fill="white" stroke="#E1E4E5" stroke-width="11"/>
<path d="M478.98 172C497.758 172 512.98 156.778 512.98 138C512.98 119.222 497.758 104 478.98 104C460.202 104 444.98 119.222 444.98 138C444.98 156.778 460.202 172 478.98 172Z" fill="white" stroke="#E1E4E5" stroke-width="11"/>
<path d="M275.228 301.66C279.788 299.027 284.962 297.641 290.228 297.641C295.494 297.641 300.667 299.027 305.228 301.66L342.992 323.463C347.552 326.096 351.34 329.883 353.973 334.444C356.606 339.004 357.992 344.178 357.992 349.444V393.051C357.992 398.317 356.606 403.49 353.973 408.051C351.34 412.611 347.552 416.398 342.992 419.031L305.228 440.835C300.667 443.468 295.494 444.854 290.228 444.854C284.962 444.854 279.788 443.468 275.228 440.835L237.464 419.031C232.903 416.398 229.116 412.611 226.483 408.051C223.85 403.49 222.464 398.317 222.464 393.051V349.444C222.464 344.178 223.85 339.004 226.483 334.444C229.116 329.883 232.903 326.096 237.464 323.463L275.228 301.66Z" fill="#4F27AA"/>
<path d="M314.429 356.629L285.868 384.962L268.73 367.962" stroke="white" stroke-width="11" stroke-linecap="round" stroke-linejoin="round"/>
<path d="M487.722 301.66C492.283 299.027 497.456 297.641 502.722 297.641C507.988 297.641 513.161 299.027 517.722 301.66L555.486 323.463C560.047 326.096 563.834 329.883 566.467 334.444C569.1 339.004 570.486 344.178 570.486 349.444V393.051C570.486 398.317 569.1 403.49 566.467 408.051C563.834 412.611 560.047 416.398 555.486 419.031L517.722 440.835C513.161 443.468 507.988 444.854 502.722 444.854C497.456 444.854 492.283 443.468 487.722 440.835L449.958 419.031C445.397 416.398 441.61 412.611 438.977 408.051C436.344 403.49 434.958 398.317 434.958 393.051V349.444C434.958 344.178 436.344 339.004 438.977 334.444C441.61 329.883 445.397 326.096 449.958 323.463L487.722 301.66Z" fill="#4F27AA"/>
<path d="M526.924 356.629L498.362 384.962L481.225 367.962" stroke="white" stroke-width="11" stroke-linecap="round" stroke-linejoin="round"/>
<path d="M700.217 301.66C704.778 299.027 709.951 297.641 715.217 297.641C720.483 297.641 725.657 299.027 730.217 301.66L767.981 323.463C772.542 326.096 776.329 329.883 778.962 334.444C781.595 339.004 782.981 344.178 782.981 349.444V393.051C782.981 398.317 781.595 403.49 778.962 408.051C776.329 412.611 772.542 416.398 767.981 419.031L730.217 440.835C725.657 443.468 720.483 444.854 715.217 444.854C709.951 444.854 704.778 443.468 700.217 440.835L662.453 419.031C657.893 416.398 654.105 412.611 651.472 408.051C648.839 403.49 647.453 398.317 647.453 393.051V349.444C647.453 344.178 648.839 339.004 651.472 334.444C654.105 329.883 657.893 326.096 662.453 323.463L700.217 301.66Z" fill="#4F27AA"/>
<path d="M739.419 356.629L710.857 384.962L693.72 367.962" stroke="white" stroke-width="11" stroke-linecap="round" stroke-linejoin="round"/>
<path d="M650.179 115.464C635.846 122.575 616.822 113.432 616.822 113.432C616.822 113.432 621.05 92.7663 635.391 85.6663C649.724 78.5563 668.741 87.6883 668.741 87.6883C668.741 87.6883 664.513 108.354 650.179 115.464Z" fill="url(#paint0_linear_1235_29217)"/>
<path d="M182.462 250.893C204.039 263.826 234.996 251.871 234.996 251.871C234.996 251.871 230.948 218.954 209.357 206.036C187.78 193.104 156.837 205.044 156.837 205.044C156.837 205.044 160.884 237.961 182.462 250.893Z" fill="url(#paint1_linear_1235_29217)"/>
<path d="M122.752 247.105C113.5 247.105 106 254.605 106 263.857C106 273.109 113.5 280.609 122.752 280.609C132.004 280.609 139.504 273.109 139.504 263.857C139.504 254.605 132.004 247.105 122.752 247.105Z" fill="#4F27AA"/>
<path d="M456.058 496.156C445.521 496.156 436.98 487.614 436.98 477.078C436.98 466.542 445.521 458 456.058 458C466.594 458 475.136 466.542 475.136 477.078C475.136 487.614 466.594 496.156 456.058 496.156Z" fill="#4F27AA"/>
<path d="M694.995 327.286C690.078 327.286 686.092 323.3 686.092 318.383C686.092 313.466 690.078 309.48 694.995 309.48C699.912 309.48 703.898 313.466 703.898 318.383C703.898 323.3 699.912 327.286 694.995 327.286Z" fill="#4F27AA"/>
<path d="M232.427 171.894C226.105 171.894 220.98 166.769 220.98 160.447C220.98 154.125 226.105 149 232.427 149C238.749 149 243.874 154.125 243.874 160.447C243.874 166.769 238.749 171.894 232.427 171.894Z" fill="#E1E4E5"/>
<path d="M749.515 264.068C740.383 264.068 732.981 256.665 732.981 247.534C732.981 238.403 740.383 231 749.515 231C758.646 231 766.049 238.403 766.049 247.534C766.049 256.665 758.646 264.068 749.515 264.068Z" fill="#E1E4E5"/>
<path d="M676.394 225.828C671.747 225.828 667.98 222.061 667.98 217.414C667.98 212.767 671.747 209 676.394 209C681.041 209 684.808 212.767 684.808 217.414C684.808 222.061 681.041 225.828 676.394 225.828Z" fill="#E1E4E5"/>
<path d="M598.107 125.563C598.107 132.501 592.482 138.126 585.544 138.126C578.606 138.126 572.981 132.501 572.981 125.563C572.981 118.625 578.606 113 585.544 113C592.482 113 598.107 118.625 598.107 125.563Z" fill="#E1E4E5"/>
<path d="M374.394 120.828C369.747 120.828 365.98 117.061 365.98 112.414C365.98 107.767 369.747 104 374.394 104C379.041 104 382.808 107.767 382.808 112.414C382.808 117.061 379.041 120.828 374.394 120.828Z" fill="#E1E4E5"/>
<path d="M636.837 298.57C629.737 298.57 623.981 293.965 623.981 288.285C623.981 282.605 629.737 278 636.837 278C643.937 278 649.693 282.605 649.693 288.285C649.693 293.965 643.937 298.57 636.837 298.57Z" fill="#E1E4E5"/>
</g>
<defs>
<linearGradient id="paint0_linear_1235_29217" x1="595.137" y1="137.643" x2="713.36" y2="44.1283" gradientUnits="userSpaceOnUse">
<stop stop-color="white"/>
<stop offset="1" stop-color="#EEEEEE"/>
</linearGradient>
<linearGradient id="paint1_linear_1235_29217" x1="265.96" y1="292.521" x2="92.3409" y2="131.207" gradientUnits="userSpaceOnUse">
<stop stop-color="white"/>
<stop offset="1" stop-color="#EEEEEE"/>
</linearGradient>
<clipPath id="clip0_1235_29217">
<rect width="900" height="600" fill="white"/>
</clipPath>
</defs>
</svg>
