<svg width="900" height="600" viewBox="0 0 900 600" fill="none" xmlns="http://www.w3.org/2000/svg">
<g clip-path="url(#clip0_1235_18867)">
<path d="M424.902 252.111C430.056 231.296 478.77 200.896 504.803 219.224C512.793 179.568 520.267 154.839 546.373 135.304C572.479 115.769 616.038 141.303 623.034 194.787C630.03 172.801 665.599 143.169 694.172 168.155C720.609 191.275 723.26 230.016 720.499 252.075H424.902V252.111Z" fill="url(#paint0_linear_1235_18867)"/>
<path d="M416.246 484.734C423.075 457.163 487.612 416.896 522.1 441.173C532.686 388.647 542.588 355.89 577.174 330.015C611.759 304.14 669.467 337.962 678.735 408.804C688.004 379.682 735.126 340.433 772.98 373.528C808.004 404.152 811.517 455.467 807.858 484.686H416.246V484.734Z" fill="url(#paint1_linear_1235_18867)"/>
<path d="M149 282.406C152.876 266.703 189.5 243.77 209.072 257.596C215.079 227.681 220.698 209.025 240.325 194.288C259.952 179.551 292.701 198.814 297.961 239.161C303.221 222.575 329.962 200.222 351.444 219.071C371.32 236.512 373.313 265.738 371.237 282.379H149V282.406Z" fill="url(#paint2_linear_1235_18867)"/>
<path fill-rule="evenodd" clip-rule="evenodd" d="M593.945 179.763L532.266 118.03C528.218 113.977 523.41 110.761 518.119 108.567C512.828 106.372 507.156 105.241 501.427 105.238H345.005C320.905 105.238 301.385 124.775 301.385 148.896V454.507C301.385 478.628 320.905 498.166 345.005 498.166H563.106C587.206 498.166 606.726 478.628 606.726 454.507V210.63C606.723 199.054 602.126 187.953 593.945 179.763Z" fill="#4F27AA"/>
<path d="M371.998 257.766H506.613M371.998 318.745H506.613M371.998 379.725H468.645" stroke="white" stroke-width="27.184" stroke-linecap="round" stroke-linejoin="round"/>
<path d="M408.672 499.883C404.571 483.085 365.813 458.551 345.101 473.342C338.744 441.34 332.797 421.382 312.027 405.617C291.256 389.852 256.6 410.459 251.034 453.621C245.468 435.878 217.168 411.964 194.435 432.128C173.401 450.787 171.292 482.051 173.489 499.854H408.672V499.883Z" fill="url(#paint3_linear_1235_18867)"/>
<path d="M242.049 400.342L250.705 392.227L242.049 384.113L233.393 392.227L242.049 400.342Z" stroke="#E1E4E5" stroke-width="4.328" stroke-linecap="round" stroke-linejoin="round"/>
<path d="M198.869 343.493L225.196 317.166C226.155 316.207 226.155 314.652 225.196 313.694C224.237 312.735 222.683 312.735 221.724 313.694L195.397 340.021C194.438 340.979 194.438 342.534 195.397 343.493C196.356 344.451 197.91 344.451 198.869 343.493Z" fill="#E1E4E5"/>
<path d="M201.446 324.641L209.038 317.048C209.997 316.09 209.997 314.535 209.038 313.577C208.079 312.618 206.525 312.618 205.566 313.577L197.974 321.169C197.015 322.127 197.015 323.682 197.974 324.641C198.933 325.599 200.487 325.599 201.446 324.641Z" fill="#E1E4E5"/>
<path d="M655.469 106.974L629.142 133.301C628.183 134.26 628.183 135.814 629.142 136.773C630.101 137.732 631.655 137.732 632.614 136.773L658.941 110.446C659.9 109.487 659.9 107.933 658.941 106.974C657.982 106.015 656.428 106.015 655.469 106.974Z" fill="#E1E4E5"/>
<path d="M652.892 125.826L645.3 133.418C644.341 134.377 644.341 135.931 645.3 136.89C646.259 137.849 647.813 137.849 648.772 136.89L656.364 129.298C657.323 128.339 657.323 126.785 656.364 125.826C655.405 124.867 653.851 124.867 652.892 125.826Z" fill="#E1E4E5"/>
<path d="M657.525 293.226C657.525 298.608 653.406 302.964 648.318 302.964C643.23 302.964 639.131 298.586 639.131 293.226C639.131 287.845 643.25 283.489 648.338 283.489C653.426 283.489 657.525 287.845 657.525 293.226ZM198.77 202.882C198.77 209.758 192.956 215.324 185.773 215.324C178.59 215.324 172.803 209.731 172.803 202.882C172.803 196.006 178.618 190.439 185.801 190.439C192.984 190.439 198.77 196.006 198.77 202.882Z" stroke="#E1E4E5" stroke-width="5.41" stroke-miterlimit="10"/>
<path d="M681.429 204.456L678.667 201.694C674.441 197.468 667.591 197.468 663.365 201.694L660.603 204.456C656.378 208.681 656.378 215.532 660.603 219.758L663.365 222.52C667.591 226.745 674.441 226.745 678.667 222.52L681.429 219.758C685.654 215.532 685.654 208.681 681.429 204.456Z" fill="white"/>
<path d="M260.229 132.941C249.968 141.907 232.316 138.507 232.316 138.507C232.316 138.507 231.313 120.569 241.583 111.609C251.844 102.642 269.488 106.036 269.488 106.036C269.488 106.036 270.491 123.974 260.229 132.941Z" fill="url(#paint4_linear_1235_18867)"/>
<path fill-rule="evenodd" clip-rule="evenodd" d="M460.607 499.217C460.607 499.217 517.463 460.4 597.351 459.855C677.601 459.307 741.447 497.888 747.328 499.882L460.607 499.217Z" fill="url(#paint5_linear_1235_18867)"/>
<path d="M729.533 327.015C714.464 342.352 686.285 339.118 686.285 339.118C686.285 339.118 682.556 311.018 697.639 295.69C712.708 280.353 740.873 283.577 740.873 283.577C740.873 283.577 744.602 311.678 729.533 327.015Z" fill="url(#paint6_linear_1235_18867)"/>
<path d="M621.013 104.29L604.221 110.855L605.285 92.8569L622.073 86.2969L621.013 104.29V104.29Z" stroke="#E1E4E5" stroke-width="4.551" stroke-linecap="round" stroke-linejoin="round"/>
</g>
<defs>
<linearGradient id="paint0_linear_1235_18867" x1="566.81" y1="321.265" x2="568.393" y2="-5.44689" gradientUnits="userSpaceOnUse">
<stop stop-color="white"/>
<stop offset="1" stop-color="#EEEEEE"/>
</linearGradient>
<linearGradient id="paint1_linear_1235_18867" x1="604.249" y1="576.333" x2="606.344" y2="143.582" gradientUnits="userSpaceOnUse">
<stop stop-color="white"/>
<stop offset="1" stop-color="#EEEEEE"/>
</linearGradient>
<linearGradient id="paint2_linear_1235_18867" x1="255.69" y1="334.575" x2="256.888" y2="88.1085" gradientUnits="userSpaceOnUse">
<stop stop-color="white"/>
<stop offset="1" stop-color="#EEEEEE"/>
</linearGradient>
<linearGradient id="paint3_linear_1235_18867" x1="295.767" y1="555.691" x2="294.471" y2="292.029" gradientUnits="userSpaceOnUse">
<stop stop-color="white"/>
<stop offset="1" stop-color="#EEEEEE"/>
</linearGradient>
<linearGradient id="paint4_linear_1235_18867" x1="219.711" y1="163.152" x2="296.781" y2="60.4782" gradientUnits="userSpaceOnUse">
<stop stop-color="white"/>
<stop offset="1" stop-color="#EEEEEE"/>
</linearGradient>
<linearGradient id="paint5_linear_1235_18867" x1="610.081" y1="522.327" x2="609.908" y2="416.286" gradientUnits="userSpaceOnUse">
<stop stop-color="white"/>
<stop offset="1" stop-color="#EEEEEE"/>
</linearGradient>
<linearGradient id="paint6_linear_1235_18867" x1="669.41" y1="379.403" x2="778.351" y2="208.629" gradientUnits="userSpaceOnUse">
<stop stop-color="white"/>
<stop offset="1" stop-color="#EEEEEE"/>
</linearGradient>
<clipPath id="clip0_1235_18867">
<rect width="900" height="600" fill="white"/>
</clipPath>
</defs>
</svg>
