<svg width="900" height="600" viewBox="0 0 900 600" fill="none" xmlns="http://www.w3.org/2000/svg">
<g clip-path="url(#clip0_1235_29254)">
<path d="M642.536 412.035V332.279M645.384 491.79C665.835 491.79 682.413 475.212 682.413 454.761C682.413 434.31 665.835 417.732 645.384 417.732C624.933 417.732 608.355 434.31 608.355 454.761C608.355 475.212 624.933 491.79 645.384 491.79ZM642.536 332.28C661.413 332.28 676.716 316.976 676.716 298.099C676.716 279.221 661.413 263.918 642.536 263.918C623.658 263.918 608.355 279.221 608.355 298.099C608.355 316.976 623.658 332.28 642.536 332.28ZM802.046 332.28C820.924 332.28 836.227 316.976 836.227 298.099C836.227 279.221 820.924 263.918 802.046 263.918C783.169 263.918 767.865 279.221 767.865 298.099C767.865 316.976 783.169 332.28 802.046 332.28Z" stroke="#E1E4E5" stroke-width="11" stroke-linecap="round" stroke-linejoin="round"/>
<path d="M644.017 412.035C649.144 392.096 667.374 377.284 688.908 377.398L727.988 377.512C757.839 377.626 783.247 358.484 792.59 331.823M257.445 412.035V332.279M254.597 491.79C234.146 491.79 217.568 475.212 217.568 454.761C217.568 434.31 234.146 417.732 254.597 417.732C275.048 417.732 291.626 434.31 291.626 454.761C291.626 475.212 275.048 491.79 254.597 491.79ZM257.445 332.28C238.568 332.28 223.265 316.976 223.265 298.099C223.265 279.221 238.568 263.918 257.445 263.918C276.323 263.918 291.626 279.221 291.626 298.099C291.626 316.976 276.323 332.28 257.445 332.28ZM97.935 332.28C79.057 332.28 63.754 316.976 63.754 298.099C63.754 279.221 79.057 263.918 97.934 263.918C116.812 263.918 132.116 279.221 132.116 298.099C132.116 316.976 116.812 332.28 97.935 332.28V332.28Z" stroke="#E1E4E5" stroke-width="11" stroke-linecap="round" stroke-linejoin="round"/>
<path d="M255.964 412.034C250.837 392.095 232.607 377.283 211.073 377.397L171.993 377.511C142.142 377.625 116.734 358.483 107.391 331.822M640.198 255.902V176.147M643.047 335.658C663.497 335.658 680.076 319.079 680.076 298.628C680.076 278.178 663.497 261.599 643.047 261.599C622.596 261.599 606.017 278.178 606.017 298.628C606.017 319.079 622.596 335.658 643.047 335.658ZM640.198 176.147C659.076 176.147 674.379 160.844 674.379 141.966C674.379 123.089 659.076 107.785 640.198 107.785C621.321 107.785 606.017 123.089 606.017 141.966C606.017 160.844 621.321 176.147 640.198 176.147V176.147ZM799.709 176.147C818.587 176.147 833.89 160.844 833.89 141.966C833.89 123.089 818.587 107.785 799.709 107.785C780.831 107.785 765.528 123.089 765.528 141.966C765.528 160.844 780.831 176.147 799.709 176.147V176.147Z" stroke="#E1E4E5" stroke-width="11" stroke-linecap="round" stroke-linejoin="round"/>
<path d="M641.679 255.902C646.807 235.963 665.036 221.151 686.57 221.265L725.65 221.379C755.502 221.493 780.909 202.352 790.252 175.691M259.782 255.902V176.147M256.934 335.658C236.483 335.658 219.904 319.079 219.904 298.628C219.904 278.178 236.483 261.599 256.934 261.599C277.384 261.599 293.963 278.178 293.963 298.628C293.963 319.079 277.384 335.658 256.934 335.658ZM259.782 176.147C240.905 176.147 225.601 160.844 225.601 141.966C225.601 123.089 240.905 107.785 259.782 107.785C278.66 107.785 293.963 123.089 293.963 141.966C293.963 160.844 278.66 176.147 259.782 176.147V176.147ZM100.272 176.147C81.3941 176.147 66.0911 160.844 66.0911 141.966C66.0911 123.089 81.3941 107.785 100.272 107.785C119.149 107.785 134.453 123.089 134.453 141.966C134.453 160.844 119.149 176.147 100.272 176.147V176.147Z" stroke="#E1E4E5" stroke-width="11" stroke-linecap="round" stroke-linejoin="round"/>
<path d="M258.301 255.904C253.174 235.965 234.944 221.153 213.41 221.267L174.33 221.381C144.479 221.495 119.071 202.354 109.728 175.693M299 297.905H455.946C474.119 297.905 488.988 283.037 488.988 264.864V174" stroke="#E1E4E5" stroke-width="11" stroke-linecap="round" stroke-linejoin="round"/>
<path d="M599.988 297.905H443.041C424.869 297.905 410 283.037 410 264.864V174" stroke="#E1E4E5" stroke-width="11" stroke-linecap="round" stroke-linejoin="round"/>
<path d="M451.159 387.664C524.088 387.664 583.208 328.544 583.208 255.615C583.208 182.686 524.088 123.566 451.159 123.566C378.23 123.566 319.11 182.686 319.11 255.615C319.11 328.544 378.23 387.664 451.159 387.664Z" fill="#4F27AA"/>
<path d="M405.585 232.827L382.797 255.614L405.585 278.401M496.734 232.827L519.521 255.614L496.734 278.401M462.553 229.066L439.765 282.161" stroke="white" stroke-width="11" stroke-miterlimit="10" stroke-linecap="round" stroke-linejoin="round"/>
<path fill-rule="evenodd" clip-rule="evenodd" d="M401.142 444.365H407.616C408.365 444.366 409.084 444.664 409.613 445.194C410.143 445.724 410.441 446.442 410.441 447.191V453.665C410.44 454.414 410.143 455.133 409.613 455.662C409.083 456.192 408.365 456.49 407.616 456.49H401.142C400.393 456.488 399.676 456.189 399.147 455.66C398.618 455.131 398.319 454.414 398.316 453.665V447.191C398.303 445.638 399.576 444.365 401.142 444.365ZM423.587 444.365H430.061C430.81 444.368 431.527 444.667 432.056 445.196C432.585 445.726 432.884 446.443 432.887 447.191V453.665C432.886 454.414 432.588 455.133 432.058 455.662C431.529 456.192 430.81 456.49 430.061 456.49H423.587C422.838 456.488 422.121 456.189 421.592 455.66C421.063 455.131 420.764 454.414 420.761 453.665V447.191C420.764 446.443 421.063 445.726 421.592 445.196C422.121 444.667 422.838 444.368 423.587 444.365ZM446.048 444.365H452.522C453.271 444.368 453.988 444.667 454.517 445.196C455.046 445.726 455.345 446.443 455.348 447.191V453.665C455.347 454.414 455.049 455.133 454.519 455.662C453.99 456.192 453.271 456.49 452.522 456.49H446.048C445.299 456.488 444.582 456.189 444.053 455.66C443.524 455.131 443.225 454.414 443.222 453.665V447.191C443.209 445.638 444.483 444.365 446.048 444.365ZM468.494 444.365H474.968C475.717 444.368 476.434 444.667 476.963 445.196C477.492 445.726 477.79 446.443 477.793 447.191V453.665C477.792 454.414 477.495 455.133 476.965 455.662C476.435 456.192 475.717 456.49 474.968 456.49H468.494C467.743 456.49 467.023 456.193 466.491 455.664C465.959 455.134 465.659 454.416 465.655 453.665V447.191C465.668 445.638 466.942 444.365 468.494 444.365ZM490.941 444.365H497.415C498.166 444.365 498.886 444.663 499.418 445.192C499.95 445.722 500.251 446.441 500.254 447.191V453.665C500.253 454.037 500.179 454.405 500.036 454.749C499.893 455.092 499.684 455.404 499.42 455.666C499.156 455.929 498.844 456.137 498.5 456.278C498.156 456.419 497.787 456.491 497.415 456.49H490.941C490.193 456.487 489.476 456.189 488.947 455.66C488.417 455.131 488.119 454.414 488.116 453.665V447.191C488.119 446.443 488.417 445.726 488.946 445.196C489.475 444.667 490.192 444.368 490.941 444.365ZM424.411 468.841H430.885C431.634 468.844 432.351 469.143 432.88 469.672C433.409 470.202 433.708 470.919 433.711 471.667V478.154C433.708 478.903 433.409 479.62 432.88 480.149C432.351 480.679 431.634 480.977 430.885 480.98H424.411C423.662 480.979 422.943 480.682 422.414 480.152C421.884 479.622 421.586 478.904 421.585 478.154V471.68C421.583 471.308 421.654 470.939 421.796 470.594C421.937 470.25 422.145 469.937 422.407 469.673C422.67 469.409 422.982 469.2 423.326 469.057C423.67 468.914 424.039 468.841 424.411 468.841ZM446.857 468.841H453.331C454.08 468.844 454.797 469.143 455.326 469.672C455.855 470.202 456.153 470.919 456.156 471.667V478.154C456.153 478.903 455.855 479.62 455.326 480.149C454.797 480.679 454.08 480.977 453.331 480.98H446.857C446.108 480.977 445.391 480.679 444.862 480.149C444.333 479.62 444.034 478.903 444.031 478.154V471.68C444.029 471.308 444.1 470.939 444.242 470.594C444.383 470.25 444.591 469.937 444.853 469.673C445.116 469.409 445.428 469.2 445.772 469.057C446.116 468.914 446.485 468.841 446.857 468.841ZM469.304 468.841H475.778C476.529 468.842 477.249 469.139 477.781 469.669C478.313 470.198 478.613 470.917 478.617 471.667V478.154C478.613 478.905 478.313 479.624 477.781 480.153C477.249 480.683 476.529 480.98 475.778 480.98H469.304C468.555 480.977 467.838 480.679 467.309 480.149C466.78 479.62 466.481 478.903 466.478 478.154V471.68C466.478 470.93 466.776 470.21 467.305 469.678C467.835 469.146 468.553 468.845 469.304 468.841ZM446.048 418.07H452.522C453.271 418.073 453.988 418.372 454.517 418.901C455.046 419.431 455.345 420.148 455.348 420.896V427.37C455.347 428.12 455.05 428.838 454.52 429.368C453.99 429.898 453.271 430.196 452.522 430.196H446.048C445.299 430.193 444.582 429.895 444.053 429.365C443.524 428.836 443.225 428.119 443.222 427.37V420.896C443.209 419.344 444.483 418.07 446.048 418.07ZM423.61 418.07H430.084C430.833 418.073 431.55 418.372 432.079 418.901C432.608 419.431 432.907 420.148 432.91 420.896V427.37C432.909 428.12 432.612 428.838 432.082 429.368C431.552 429.898 430.833 430.196 430.084 430.196H423.61C422.861 430.193 422.144 429.895 421.615 429.365C421.086 428.836 420.787 428.119 420.784 427.37V420.896C420.771 419.344 422.044 418.07 423.61 418.07ZM468.494 418.07H474.968C475.717 418.073 476.434 418.372 476.963 418.901C477.492 419.431 477.79 420.148 477.793 420.896V427.37C477.793 428.12 477.495 428.838 476.965 429.368C476.436 429.898 475.717 430.196 474.968 430.196H468.494C467.743 430.196 467.023 429.899 466.491 429.369C465.959 428.84 465.659 428.121 465.655 427.37V420.896C465.668 419.344 466.942 418.07 468.494 418.07Z" fill="#E1E4E5"/>
</g>
<defs>
<clipPath id="clip0_1235_29254">
<rect width="900" height="600" fill="white"/>
</clipPath>
</defs>
</svg>
