<svg width="900" height="600" viewBox="0 0 900 600" fill="none" xmlns="http://www.w3.org/2000/svg">
<g clip-path="url(#clip0_1235_29265)">
<path d="M467.554 551.059V551.18" stroke="#E1E4E5" stroke-width="12.046" stroke-miterlimit="10" stroke-linecap="round" stroke-linejoin="round"/>
<path d="M506.868 229.964C512.431 250.361 503.16 268.903 488.326 278.175V315.26C488.326 328.239 477.2 337.511 466.075 337.511C453.095 337.511 443.824 326.385 443.824 315.26V278.175C430.844 270.758 423.427 255.924 423.427 241.09C423.427 213.276 449.386 191.025 479.054 198.442C490.18 204.005 503.16 215.13 506.868 229.964Z" fill="#4F27AA"/>
<path d="M671.671 200.478C643.54 113.919 561.308 49 463.93 49C344.911 49 247.532 146.379 247.532 265.398C247.532 384.416 344.911 481.795 463.93 481.795C561.308 481.795 643.54 419.04 669.507 330.317" stroke="#E1E4E5" stroke-width="11" stroke-miterlimit="10" stroke-linecap="round" stroke-linejoin="round"/>
<path d="M670.952 266.615L633.759 229.422L595.403 266.615L633.759 303.808L708.145 229.422L746.5 266.615L708.145 303.808L670.952 266.615Z" stroke="#E1E4E5" stroke-width="11" stroke-miterlimit="10" stroke-linecap="round" stroke-linejoin="round"/>
<path d="M250.394 137V137.12M250.394 191.208V191.329M250.394 239.394V239.514" stroke="#E1E4E5" stroke-width="36.139" stroke-miterlimit="10" stroke-linecap="round" stroke-linejoin="round"/>
<path d="M250.394 287.578V287.698" stroke="#E1E4E5" stroke-width="24.093" stroke-miterlimit="10" stroke-linecap="round" stroke-linejoin="round"/>
<path d="M250.394 329.742V329.863" stroke="#E1E4E5" stroke-width="18.07" stroke-miterlimit="10" stroke-linecap="round" stroke-linejoin="round"/>
<path d="M250.394 365.879V365.999" stroke="#E1E4E5" stroke-width="12.046" stroke-miterlimit="10" stroke-linecap="round" stroke-linejoin="round"/>
<path d="M148 191.207V191.328M352.787 191.207V191.328" stroke="#E1E4E5" stroke-width="36.139" stroke-miterlimit="10" stroke-linecap="round" stroke-linejoin="round"/>
<path d="M352.787 239.395V239.515M148 239.395V239.515" stroke="#E1E4E5" stroke-width="24.093" stroke-miterlimit="10" stroke-linecap="round" stroke-linejoin="round"/>
<path d="M352.787 275.531V275.651" stroke="#E1E4E5" stroke-width="18.07" stroke-miterlimit="10" stroke-linecap="round" stroke-linejoin="round"/>
<path d="M352.787 311.672V311.792" stroke="#E1E4E5" stroke-width="12.046" stroke-miterlimit="10" stroke-linecap="round" stroke-linejoin="round"/>
<path d="M148 275.531V275.651" stroke="#E1E4E5" stroke-width="18.07" stroke-miterlimit="10" stroke-linecap="round" stroke-linejoin="round"/>
<path d="M148 311.672V311.792" stroke="#E1E4E5" stroke-width="12.046" stroke-miterlimit="10" stroke-linecap="round" stroke-linejoin="round"/>
<path d="M199.799 215.301V215.422M199.197 164.707V164.827M300.988 215.301V215.422M301.59 164.707V164.827" stroke="#E1E4E5" stroke-width="36.139" stroke-miterlimit="10" stroke-linecap="round" stroke-linejoin="round"/>
<path d="M199.799 263.484V263.605" stroke="#E1E4E5" stroke-width="24.093" stroke-miterlimit="10" stroke-linecap="round" stroke-linejoin="round"/>
<path d="M199.799 299.625V299.746" stroke="#E1E4E5" stroke-width="18.07" stroke-miterlimit="10" stroke-linecap="round" stroke-linejoin="round"/>
<path d="M199.799 335.766V335.887" stroke="#E1E4E5" stroke-width="12.046" stroke-miterlimit="10" stroke-linecap="round" stroke-linejoin="round"/>
<path d="M300.988 263.484V263.605" stroke="#E1E4E5" stroke-width="24.093" stroke-miterlimit="10" stroke-linecap="round" stroke-linejoin="round"/>
<path d="M300.988 299.625V299.746" stroke="#E1E4E5" stroke-width="18.07" stroke-miterlimit="10" stroke-linecap="round" stroke-linejoin="round"/>
<path d="M300.988 335.766V335.887" stroke="#E1E4E5" stroke-width="12.046" stroke-miterlimit="10" stroke-linecap="round" stroke-linejoin="round"/>
<path d="M467.554 391.977V392.097M467.554 440.162V440.283" stroke="#E1E4E5" stroke-width="36.139" stroke-miterlimit="10" stroke-linecap="round" stroke-linejoin="round"/>
<path d="M467.554 488.348V488.469" stroke="#E1E4E5" stroke-width="24.093" stroke-miterlimit="10" stroke-linecap="round" stroke-linejoin="round"/>
<path d="M467.554 530.508V530.628" stroke="#E1E4E5" stroke-width="18.07" stroke-miterlimit="10" stroke-linecap="round" stroke-linejoin="round"/>
<path d="M365.161 391.977V392.097M569.948 391.977V392.097" stroke="#E1E4E5" stroke-width="36.139" stroke-miterlimit="10" stroke-linecap="round" stroke-linejoin="round"/>
<path d="M569.948 440.16V440.281M365.161 440.16V440.281" stroke="#E1E4E5" stroke-width="24.093" stroke-miterlimit="10" stroke-linecap="round" stroke-linejoin="round"/>
<path d="M569.948 476.301V476.422" stroke="#E1E4E5" stroke-width="18.07" stroke-miterlimit="10" stroke-linecap="round" stroke-linejoin="round"/>
<path d="M569.948 512.438V512.557" stroke="#E1E4E5" stroke-width="12.046" stroke-miterlimit="10" stroke-linecap="round" stroke-linejoin="round"/>
<path d="M365.161 476.301V476.422" stroke="#E1E4E5" stroke-width="18.07" stroke-miterlimit="10" stroke-linecap="round" stroke-linejoin="round"/>
<path d="M365.161 512.438V512.557" stroke="#E1E4E5" stroke-width="12.046" stroke-miterlimit="10" stroke-linecap="round" stroke-linejoin="round"/>
<path d="M416.96 416.067V416.188M416.358 365.473V365.594M518.149 416.067V416.188M518.751 365.473V365.594" stroke="#E1E4E5" stroke-width="36.139" stroke-miterlimit="10" stroke-linecap="round" stroke-linejoin="round"/>
<path d="M416.96 464.254V464.374" stroke="#E1E4E5" stroke-width="24.093" stroke-miterlimit="10" stroke-linecap="round" stroke-linejoin="round"/>
<path d="M416.96 500.395V500.515" stroke="#E1E4E5" stroke-width="18.07" stroke-miterlimit="10" stroke-linecap="round" stroke-linejoin="round"/>
<path d="M416.96 536.531V536.651" stroke="#E1E4E5" stroke-width="12.046" stroke-miterlimit="10" stroke-linecap="round" stroke-linejoin="round"/>
<path d="M518.149 464.254V464.374" stroke="#E1E4E5" stroke-width="24.093" stroke-miterlimit="10" stroke-linecap="round" stroke-linejoin="round"/>
<path d="M518.149 500.395V500.515" stroke="#E1E4E5" stroke-width="18.07" stroke-miterlimit="10" stroke-linecap="round" stroke-linejoin="round"/>
<path d="M518.149 536.531V536.651" stroke="#E1E4E5" stroke-width="12.046" stroke-miterlimit="10" stroke-linecap="round" stroke-linejoin="round"/>
<path d="M656.854 475.708C665.058 475.708 671.708 469.058 671.708 460.854C671.708 452.65 665.058 446 656.854 446C648.65 446 642 452.65 642 460.854C642 469.058 648.65 475.708 656.854 475.708Z" fill="#E1E4E5"/>
<path d="M699.053 359.394C697.367 365.688 701.102 372.157 707.395 373.844C713.689 375.53 720.159 371.795 721.845 365.501C723.531 359.208 719.796 352.738 713.503 351.052C707.209 349.365 700.739 353.101 699.053 359.394Z" fill="#E1E4E5"/>
<path d="M195.204 410.445C201.872 410.445 207.277 406.121 207.277 400.787C207.277 395.453 201.872 391.129 195.204 391.129C188.536 391.129 183.131 395.453 183.131 400.787C183.131 406.121 188.536 410.445 195.204 410.445Z" fill="#E1E4E5"/>
<path d="M243 456.269C243 466.911 251.627 475.538 262.269 475.538C272.911 475.538 281.538 466.911 281.538 456.269C281.538 445.627 272.911 437 262.269 437C251.627 437 243 445.627 243 456.269Z" fill="#E1E4E5"/>
<path d="M653 77.9699C658.777 74.6347 665.33 72.8789 672 72.8789C678.67 72.8789 685.223 74.6347 691 77.9699L723.148 96.5299C728.925 99.8651 733.722 104.662 737.057 110.439C740.392 116.216 742.148 122.769 742.148 129.439V166.561C742.148 173.231 740.392 179.784 737.057 185.561C733.722 191.338 728.925 196.135 723.148 199.47L691 218.03C685.223 221.365 678.67 223.121 672 223.121C665.33 223.121 658.777 221.365 653 218.03L620.852 199.47C615.075 196.135 610.278 191.338 606.943 185.561C603.608 179.784 601.852 173.231 601.852 166.561V129.439C601.852 122.769 603.608 116.216 606.943 110.439C610.278 104.662 615.075 99.8651 620.852 96.5299L653 77.9699Z" fill="#4F27AA"/>
<path d="M697.053 132.867L667.487 162.197L649.747 144.599" stroke="white" stroke-width="15.638" stroke-linecap="round" stroke-linejoin="round"/>
</g>
<defs>
<clipPath id="clip0_1235_29265">
<rect width="900" height="600" fill="white"/>
</clipPath>
</defs>
</svg>
