<svg width="900" height="600" viewBox="0 0 900 600" fill="none" xmlns="http://www.w3.org/2000/svg">
<g clip-path="url(#clip0_1235_29310)">
<path d="M363.924 46.4385L651.276 534.395M537.418 46.4385L250.065 534.395M166.028 390.717H721.758M537.419 46.4385H363.923L163.318 390.719L250.066 534.395H651.276C651.276 534.395 738.024 385.297 738.024 388.008C738.024 390.719 537.419 46.4375 537.419 46.4375V46.4385Z" stroke="#E1E4E5" stroke-width="11" stroke-miterlimit="10" stroke-linecap="round" stroke-linejoin="round"/>
<path fill-rule="evenodd" clip-rule="evenodd" d="M345.513 255.724V177.653C345.515 171.095 343.493 164.696 339.723 159.33C335.953 153.964 330.62 149.891 324.45 147.668L275.855 130.174C259.11 124.145 240.786 124.145 224.041 130.174L175.382 147.7C169.218 149.922 163.888 153.989 160.119 159.349C156.35 164.709 154.324 171.101 154.319 177.653V255.724C154.319 296.289 211.072 326.306 237.17 338.001C241.176 339.81 245.521 340.745 249.917 340.745C254.312 340.745 258.657 339.81 262.663 338.001C288.761 326.306 345.513 296.225 345.513 255.724Z" fill="#4F27AA"/>
<path d="M221.371 247.124C226.106 251.86 232.139 255.085 238.707 256.391C245.275 257.698 252.083 257.028 258.269 254.465C264.456 251.902 269.744 247.562 273.465 241.994C277.185 236.426 279.17 229.88 279.17 223.183C279.17 216.487 277.185 209.94 273.465 204.372C269.744 198.804 264.456 194.464 258.269 191.901C252.083 189.339 245.275 188.668 238.707 189.975C232.139 191.282 226.106 194.507 221.371 199.242C208.149 212.464 208.149 233.901 221.371 247.124Z" stroke="white" stroke-width="12.661" stroke-linecap="round" stroke-linejoin="round"/>
<path d="M288.306 266.174L269.253 247.121L288.306 266.174Z" stroke="white" stroke-width="12.661" stroke-linecap="round" stroke-linejoin="round"/>
<path d="M550.903 227.611V178.505L568.582 149.827L685.651 145.113L733.186 160.434L736.329 220.147L733.186 272.789L710.793 286.931L703.329 325.038L646.366 291.253L589.01 286.931L550.903 266.503V227.611Z" fill="#4F27AA"/>
<path fill-rule="evenodd" clip-rule="evenodd" d="M695.453 278.478V310.987L642.259 279.554L636.699 279.463C614.591 279.101 594.695 276.875 579.818 274.612C570.43 273.183 563.906 266.631 562.489 258.403C560.523 246.991 558.848 232.532 558.848 216.466C558.848 200.4 560.523 185.942 562.489 174.529C563.906 166.302 570.43 159.749 579.818 158.321C596.09 155.845 618.341 153.418 642.913 153.418C667.484 153.418 689.736 155.845 706.007 158.321C715.396 159.749 721.92 166.302 723.337 174.529C725.303 185.942 726.977 200.4 726.977 216.466C726.977 232.532 725.303 246.991 723.337 258.403C722.106 265.548 717.115 271.275 709.838 273.694L695.453 278.478ZM744.048 170.962C740.999 153.259 726.927 140.246 709.168 137.544C692.152 134.955 668.809 132.402 642.913 132.402C617.016 132.402 593.673 134.955 576.657 137.544C558.898 140.246 544.827 153.259 541.778 170.962C539.652 183.3 537.832 198.973 537.832 216.466C537.832 233.96 539.652 249.633 541.778 261.971C544.827 279.673 558.898 292.687 576.657 295.389C592.224 297.757 613.087 300.096 636.355 300.477L700.615 338.449C707.62 342.588 716.469 337.538 716.469 329.402V293.637C730.691 288.908 741.43 277.167 744.048 261.971C746.173 249.633 747.993 233.96 747.993 216.466C747.993 198.973 746.173 183.3 744.048 170.962Z" fill="#4F27AA"/>
<path fill-rule="evenodd" clip-rule="evenodd" d="M695.453 185.176C701.256 185.176 705.961 189.88 705.961 195.684C705.961 201.487 701.256 206.192 695.453 206.192H590.372C584.569 206.192 579.864 201.487 579.864 195.684C579.864 189.88 584.569 185.176 590.372 185.176H695.453ZM695.453 227.208C701.256 227.208 705.961 231.912 705.961 237.716C705.961 243.519 701.256 248.224 695.453 248.224H653.42C647.617 248.224 642.912 243.519 642.912 237.716C642.912 231.912 647.617 227.208 653.42 227.208H695.453Z" fill="white"/>
<path d="M227.163 85.2873C243.513 93.3973 265.212 82.9693 265.212 82.9693C265.212 82.9693 260.39 59.3963 244.032 51.2973C227.682 43.1873 205.991 53.6043 205.991 53.6043C205.991 53.6043 210.814 77.1773 227.163 85.2873Z" fill="url(#paint0_linear_1235_29310)"/>
<path d="M108.103 97.001C114.235 97.001 119.206 101.972 119.206 108.104C119.206 114.236 114.235 119.207 108.103 119.207C101.971 119.207 97 114.236 97 108.104C97 101.972 101.971 97.001 108.103 97.001Z" fill="#4F27AA"/>
<path d="M630.693 54.7985C642.226 54.7985 651.575 64.1477 651.575 75.6805C651.575 87.2133 642.226 96.5625 630.693 96.5625C619.16 96.5625 609.811 87.2133 609.811 75.6805C609.811 64.1477 619.16 54.7985 630.693 54.7985Z" fill="#4F27AA"/>
<path d="M807.667 231.11C813.796 231.11 818.765 226.141 818.765 220.012C818.765 213.883 813.796 208.914 807.667 208.914C801.538 208.914 796.569 213.883 796.569 220.012C796.569 226.141 801.538 231.11 807.667 231.11Z" fill="#4F27AA"/>
<path d="M96.788 240.286C105.451 240.286 112.474 233.263 112.474 224.6C112.474 215.937 105.451 208.914 96.788 208.914C88.1249 208.914 81.102 215.937 81.102 224.6C81.102 233.263 88.1249 240.286 96.788 240.286Z" fill="#E1E4E5"/>
<path d="M796.375 566.922C807.264 566.922 816.092 558.095 816.092 547.205C816.092 536.316 807.264 527.488 796.375 527.488C785.486 527.488 776.658 536.316 776.658 547.205C776.658 558.095 785.486 566.922 796.375 566.922Z" fill="#E1E4E5"/>
<path d="M784.694 368.727C782.455 377.081 787.413 385.668 795.767 387.907C804.121 390.145 812.708 385.188 814.946 376.833C817.185 368.479 812.227 359.892 803.873 357.654C795.519 355.415 786.932 360.373 784.694 368.727Z" fill="#E1E4E5"/>
<path d="M115.884 436.49C124.735 436.49 131.91 430.75 131.91 423.669C131.91 416.588 124.735 410.848 115.884 410.848C107.033 410.848 99.858 416.588 99.858 423.669C99.858 430.75 107.033 436.49 115.884 436.49Z" fill="#E1E4E5"/>
<path d="M81.445 527.078C81.445 541.204 92.8967 552.656 107.023 552.656C121.149 552.656 132.601 541.204 132.601 527.078C132.601 512.952 121.149 501.5 107.023 501.5C92.8967 501.5 81.445 512.952 81.445 527.078Z" fill="#E1E4E5"/>
</g>
<defs>
<linearGradient id="paint0_linear_1235_29310" x1="289.947" y1="110.585" x2="155.096" y2="3.91824" gradientUnits="userSpaceOnUse">
<stop stop-color="white"/>
<stop offset="1" stop-color="#EEEEEE"/>
</linearGradient>
<clipPath id="clip0_1235_29310">
<rect width="900" height="600" fill="white"/>
</clipPath>
</defs>
</svg>
