<svg width="900" height="600" viewBox="0 0 900 600" fill="none" xmlns="http://www.w3.org/2000/svg">
<g clip-path="url(#clip0_1235_29328)">
<path d="M587.515 431.382C660.303 431.382 719.309 372.376 719.309 299.588C719.309 226.8 660.303 167.793 587.515 167.793C514.727 167.793 455.72 226.8 455.72 299.588C455.72 372.376 514.727 431.382 587.515 431.382V431.382Z" stroke="#E1E4E5" stroke-width="11" stroke-miterlimit="10" stroke-linecap="round" stroke-linejoin="round"/>
<path d="M455.72 563.178C528.509 563.178 587.515 504.171 587.515 431.383C587.515 358.595 528.509 299.589 455.72 299.589C382.932 299.589 323.926 358.595 323.926 431.383C323.926 504.171 382.932 563.178 455.72 563.178ZM455.72 299.589C528.509 299.589 587.515 240.582 587.515 167.794C587.515 95.006 528.509 36 455.72 36C382.932 36 323.926 95.006 323.926 167.794C323.926 240.582 382.932 299.589 455.72 299.589Z" stroke="#E1E4E5" stroke-width="11" stroke-miterlimit="10" stroke-linecap="round" stroke-linejoin="round"/>
<path d="M323.926 431.382C396.714 431.382 455.72 372.376 455.72 299.588C455.72 226.8 396.714 167.793 323.926 167.793C251.138 167.793 192.132 226.8 192.132 299.588C192.132 372.376 251.138 431.382 323.926 431.382V431.382ZM433.489 484.155H477.2C493.706 484.155 504.608 472.336 501.348 457.97L494.317 426.588H416.474L409.443 457.97C406.285 471.521 417.9 484.155 433.489 484.155Z" stroke="#E1E4E5" stroke-width="11" stroke-miterlimit="10" stroke-linecap="round" stroke-linejoin="round"/>
<path d="M494.213 431.242L524.169 404.649C540.879 389.773 541.592 379.381 528.346 362.569L475.466 295.526C464.36 281.465 446.224 281.465 435.016 295.526L382.237 362.569C368.991 379.381 368.991 390.283 386.414 404.649L416.37 431.242" fill="#4F27AA"/>
<path d="M455.293 319.703V363.516" stroke="white" stroke-width="11" stroke-linecap="round" stroke-linejoin="round"/>
<path d="M242.804 128.112C259.379 136.334 281.378 125.762 281.378 125.762C281.378 125.762 276.489 101.864 259.905 93.6526C243.33 85.4306 221.339 95.9906 221.339 95.9906C221.339 95.9906 226.229 119.89 242.804 128.112Z" fill="url(#paint0_linear_1235_29328)"/>
<path d="M165.877 135.351C172.093 135.351 177.133 140.391 177.133 146.607C177.133 152.824 172.093 157.863 165.877 157.863C159.66 157.863 154.621 152.824 154.621 146.607C154.621 140.391 159.66 135.351 165.877 135.351Z" fill="#4F27AA"/>
<path d="M640.113 85.6756C651.805 85.6756 661.283 95.1538 661.283 106.846C661.283 118.537 651.805 128.016 640.113 128.016C628.421 128.016 618.943 118.537 618.943 106.846C618.943 95.1538 628.421 85.6756 640.113 85.6756Z" fill="#4F27AA"/>
<path d="M763.002 218.682C769.216 218.682 774.253 213.644 774.253 207.431C774.253 201.217 769.216 196.18 763.002 196.18C756.788 196.18 751.751 201.217 751.751 207.431C751.751 213.644 756.788 218.682 763.002 218.682Z" fill="#4F27AA"/>
<path d="M124.903 278.677C133.686 278.677 140.806 271.557 140.806 262.774C140.806 253.991 133.686 246.871 124.903 246.871C116.12 246.871 109 253.991 109 262.774C109 271.557 116.12 278.677 124.903 278.677Z" fill="#E1E4E5"/>
<path d="M638.932 501.775C649.972 501.775 658.921 492.825 658.921 481.786C658.921 470.746 649.972 461.797 638.932 461.797C627.892 461.797 618.943 470.746 618.943 481.786C618.943 492.825 627.892 501.775 638.932 501.775Z" fill="#E1E4E5"/>
<path d="M755.859 373.723C753.589 382.193 758.616 390.899 767.086 393.168C775.556 395.438 784.261 390.411 786.531 381.941C788.8 373.472 783.774 364.766 775.304 362.496C766.834 360.227 758.128 365.253 755.859 373.723Z" fill="#E1E4E5"/>
<path d="M149.578 431.019C158.551 431.019 165.825 425.2 165.825 418.021C165.825 410.843 158.551 405.023 149.578 405.023C140.605 405.023 133.331 410.843 133.331 418.021C133.331 425.2 140.605 431.019 149.578 431.019Z" fill="#E1E4E5"/>
<path d="M227.615 481.646C227.615 495.967 239.225 507.577 253.546 507.577C267.867 507.577 279.477 495.967 279.477 481.646C279.477 467.325 267.867 455.715 253.546 455.715C239.225 455.715 227.615 467.325 227.615 481.646Z" fill="#E1E4E5"/>
</g>
<defs>
<linearGradient id="paint0_linear_1235_29328" x1="306.454" y1="153.759" x2="169.742" y2="45.6196" gradientUnits="userSpaceOnUse">
<stop stop-color="white"/>
<stop offset="1" stop-color="#EEEEEE"/>
</linearGradient>
<clipPath id="clip0_1235_29328">
<rect width="900" height="600" fill="white"/>
</clipPath>
</defs>
</svg>
