<svg width="900" height="600" viewBox="0 0 900 600" fill="none" xmlns="http://www.w3.org/2000/svg">
<g clip-path="url(#clip0_1235_29390)">
<path d="M359.303 160.326V141.749C359.303 100.647 359.303 67.4414 433.611 67.4414H470.765C545.074 67.4414 545.074 100.647 545.074 141.749V160.326M359.299 531.869H545.07C638.42 531.869 655.14 494.483 660.016 448.969L677.432 263.197C683.702 206.537 667.447 160.327 568.292 160.327H336.078C236.922 160.327 220.667 206.537 226.937 263.197L244.353 448.969C249.23 494.483 265.949 531.869 359.299 531.869Z" stroke="#E1E4E5" stroke-width="11" stroke-miterlimit="10" stroke-linecap="round" stroke-linejoin="round"/>
<path d="M676.27 276.438C636.948 305.081 592.484 325.894 545.301 337.741M234.375 282.707C273.155 309.179 315.418 327.989 359.306 338.671" stroke="#E1E4E5" stroke-width="11" stroke-miterlimit="10" stroke-linecap="round" stroke-linejoin="round"/>
<path d="M452.188 443.627C503.488 443.627 545.074 402.04 545.074 350.741C545.074 299.442 503.488 257.855 452.188 257.855C400.889 257.855 359.303 299.442 359.303 350.741C359.303 402.04 400.889 443.627 452.188 443.627Z" fill="#4F27AA" stroke="#4F27AA" stroke-width="11" stroke-miterlimit="10" stroke-linecap="round" stroke-linejoin="round"/>
<path d="M419 355.176L436.404 372.538C441.491 377.613 449.791 377.613 454.878 372.805L502.535 329" stroke="white" stroke-width="24" stroke-linecap="round" stroke-linejoin="round"/>
<path d="M776.853 272.243C757.853 281.668 732.636 269.549 732.636 269.549C732.636 269.549 738.241 242.156 757.25 232.744C776.25 223.319 801.457 235.424 801.457 235.424C801.457 235.424 795.852 262.818 776.853 272.243Z" fill="url(#paint0_linear_1235_29390)"/>
<path d="M129.932 345.704C152.921 359.482 185.901 346.745 185.901 346.745C185.901 346.745 181.589 311.676 158.587 297.914C135.599 284.136 102.632 296.857 102.632 296.857C102.632 296.857 106.944 331.926 129.932 345.704Z" fill="url(#paint1_linear_1235_29390)"/>
<path d="M572.36 212.001C561.667 212.001 552.999 220.669 552.999 231.362C552.999 242.054 561.667 250.723 572.36 250.723C583.053 250.723 591.721 242.054 591.721 231.362C591.721 220.669 583.053 212.001 572.36 212.001Z" fill="#4F27AA"/>
<path d="M290.475 114.281C285.896 114.281 282.184 117.993 282.184 122.572C282.184 127.151 285.896 130.863 290.475 130.863C295.054 130.863 298.766 127.151 298.766 122.572C298.766 117.993 295.054 114.281 290.475 114.281Z" fill="#4F27AA"/>
<path d="M614.939 373.003C606.137 373.003 599.001 380.139 599.001 388.941C599.001 397.743 606.137 404.879 614.939 404.879C623.741 404.879 630.877 397.743 630.877 388.941C630.877 380.139 623.741 373.003 614.939 373.003Z" fill="#4F27AA"/>
<path d="M738.36 328.821C733.682 328.821 729.889 325.028 729.889 320.35C729.889 315.672 733.682 311.879 738.36 311.879C743.038 311.879 746.831 315.672 746.831 320.35C746.831 325.028 743.038 328.821 738.36 328.821Z" fill="#4F27AA"/>
<path d="M706.83 532.77C700.815 532.77 695.939 527.894 695.939 521.879C695.939 515.864 700.815 510.988 706.83 510.988C712.845 510.988 717.721 515.864 717.721 521.879C717.721 527.894 712.845 532.77 706.83 532.77Z" fill="#E1E4E5"/>
<path d="M207.174 437.378C200.99 437.378 195.977 432.365 195.977 426.181C195.977 419.997 200.99 414.984 207.174 414.984C213.358 414.984 218.371 419.997 218.371 426.181C218.371 432.365 213.358 437.378 207.174 437.378Z" fill="#E1E4E5"/>
<path d="M752.196 506.563C748.941 506.563 746.303 503.925 746.303 500.67C746.303 497.416 748.941 494.777 752.196 494.777C755.45 494.777 758.089 497.416 758.089 500.67C758.089 503.925 755.45 506.563 752.196 506.563Z" fill="#E1E4E5"/>
<path d="M702.173 145.679C698.73 145.679 695.939 142.888 695.939 139.445C695.939 136.002 698.73 133.211 702.173 133.211C705.616 133.211 708.407 136.002 708.407 139.445C708.407 142.888 705.616 145.679 702.173 145.679Z" fill="#E1E4E5"/>
<path d="M164.811 158.472C166.52 164.848 162.736 171.402 156.359 173.111C149.982 174.82 143.428 171.036 141.72 164.659C140.011 158.282 143.795 151.728 150.172 150.02C156.548 148.311 163.102 152.095 164.811 158.472Z" fill="#E1E4E5"/>
<path d="M576.479 494.23C567.696 494.23 560.577 487.11 560.577 478.328C560.577 469.545 567.696 462.426 576.479 462.426C585.261 462.426 592.381 469.545 592.381 478.328C592.381 487.11 585.261 494.23 576.479 494.23Z" fill="#E1E4E5"/>
<path d="M714.406 424.584C707.651 424.584 702.174 420.202 702.174 414.798C702.174 409.393 707.651 405.012 714.406 405.012C721.162 405.012 726.638 409.393 726.638 414.798C726.638 420.202 721.162 424.584 714.406 424.584Z" fill="#E1E4E5"/>
<path d="M171.096 228.46C172.645 234.242 169.214 240.185 163.432 241.734C157.65 243.283 151.707 239.852 150.158 234.07C148.609 228.289 152.04 222.346 157.822 220.796C163.603 219.247 169.546 222.678 171.096 228.46Z" fill="#E1E4E5"/>
<path d="M206.631 129.469H206.805C207.837 144.089 218.71 144.314 218.71 144.314C218.71 144.314 206.72 144.548 206.72 161.442C206.72 144.548 194.731 144.314 194.731 144.314C194.731 144.314 205.599 144.089 206.631 129.469ZM156.285 484.804H156.452C157.443 499.38 167.882 499.605 167.882 499.605C167.882 499.605 156.371 499.838 156.371 516.681C156.371 499.838 144.859 499.605 144.859 499.605C144.859 499.605 155.294 499.38 156.285 484.804Z" fill="#E1E4E5"/>
</g>
<defs>
<linearGradient id="paint0_linear_1235_29390" x1="703.893" y1="301.642" x2="860.601" y2="177.684" gradientUnits="userSpaceOnUse">
<stop stop-color="white"/>
<stop offset="1" stop-color="#EEEEEE"/>
</linearGradient>
<linearGradient id="paint1_linear_1235_29390" x1="218.891" y1="390.054" x2="33.9191" y2="218.191" gradientUnits="userSpaceOnUse">
<stop stop-color="white"/>
<stop offset="1" stop-color="#EEEEEE"/>
</linearGradient>
<clipPath id="clip0_1235_29390">
<rect width="900" height="600" fill="white"/>
</clipPath>
</defs>
</svg>
