<svg width="900" height="600" viewBox="0 0 900 600" fill="none" xmlns="http://www.w3.org/2000/svg">
<g clip-path="url(#clip0_1235_29411)">
<path d="M841.061 379.734C826.217 387.097 806.515 377.629 806.515 377.629C806.515 377.629 810.894 356.226 825.746 348.873C840.59 341.509 860.284 350.967 860.284 350.967C860.284 350.967 855.906 372.37 841.061 379.734Z" fill="url(#paint0_linear_1235_29411)"/>
<path d="M87.6772 169.218C110.024 182.611 142.083 170.23 142.083 170.23C142.083 170.23 137.891 136.14 115.532 122.762C93.1862 109.369 61.1392 121.735 61.1392 121.735C61.1392 121.735 65.3312 155.825 87.6772 169.218Z" fill="url(#paint1_linear_1235_29411)"/>
<path d="M104.065 232.732C94.4835 232.732 86.7161 240.499 86.7161 250.081C86.7161 259.662 94.4835 267.43 104.065 267.43C113.647 267.43 121.414 259.662 121.414 250.081C121.414 240.499 113.647 232.732 104.065 232.732Z" fill="#4F27AA"/>
<path d="M215.833 539.5C204.921 539.5 196.075 530.654 196.075 519.742C196.075 508.83 204.921 499.984 215.833 499.984C226.745 499.984 235.591 508.83 235.591 519.742C235.591 530.654 226.745 539.5 215.833 539.5Z" fill="#4F27AA"/>
<path d="M616.011 173.124C610.919 173.124 606.791 168.996 606.791 163.904C606.791 158.812 610.919 154.684 616.011 154.684C621.103 154.684 625.231 158.812 625.231 163.904C625.231 168.996 621.103 173.124 616.011 173.124Z" fill="#4F27AA"/>
<path d="M154.344 77.1827C147.797 77.1827 142.489 71.875 142.489 65.3277C142.489 58.7803 147.797 53.4727 154.344 53.4727C160.892 53.4727 166.199 58.7803 166.199 65.3277C166.199 71.875 160.892 77.1827 154.344 77.1827Z" fill="#E1E4E5"/>
<path d="M48.9302 380.023C39.4735 380.023 31.8072 372.357 31.8072 362.9C31.8072 353.444 39.4735 345.777 48.9302 345.777C58.387 345.777 66.0532 353.444 66.0532 362.9C66.0532 372.357 58.387 380.023 48.9302 380.023Z" fill="#E1E4E5"/>
<path d="M737.272 181.612C732.459 181.612 728.558 177.71 728.558 172.898C728.558 168.085 732.459 164.184 737.272 164.184C742.084 164.184 745.986 168.085 745.986 172.898C745.986 177.71 742.084 181.612 737.272 181.612Z" fill="#E1E4E5"/>
<path d="M803.377 210.886C803.377 218.072 797.552 223.897 790.366 223.897C783.18 223.897 777.355 218.072 777.355 210.886C777.355 203.7 783.18 197.875 790.366 197.875C797.552 197.875 803.377 203.7 803.377 210.886Z" fill="#E1E4E5"/>
<path d="M281.835 65.428C277.022 65.428 273.121 61.5266 273.121 56.714C273.121 51.9014 277.022 48 281.835 48C286.647 48 290.549 51.9014 290.549 56.714C290.549 61.5266 286.647 65.428 281.835 65.428Z" fill="#E1E4E5"/>
<path d="M834.005 510.8C826.651 510.8 820.69 506.031 820.69 500.148C820.69 494.265 826.651 489.496 834.005 489.496C841.358 489.496 847.32 494.265 847.32 500.148C847.32 506.031 841.358 510.8 834.005 510.8Z" fill="#E1E4E5"/>
<path d="M137.912 432.984H138.094C139.172 448.851 150.535 449.095 150.535 449.095C150.535 449.095 138.005 449.349 138.005 467.682C138.005 449.349 125.475 449.095 125.475 449.095C125.475 449.095 136.833 448.851 137.912 432.984Z" fill="#E1E4E5"/>
<path d="M733.313 382.333H678.514C665.087 382.333 653.837 373.216 653.837 361.668C653.837 355.894 656.74 350.728 661.095 347.082C665.45 343.435 671.619 341.004 678.514 341.004H686.498C693.393 341.004 699.563 338.573 703.918 334.926C708.273 331.279 711.176 326.113 711.176 320.339C711.176 309.095 700.289 299.675 686.498 299.675H519.102C514.741 299.675 511.94 294.311 511.94 289.95C511.94 279.01 501.416 270.197 488.351 270.197H426.051C425.267 270.207 424.488 270.062 423.76 269.769C423.032 269.475 422.37 269.04 421.811 268.489C421.253 267.938 420.809 267.281 420.507 266.557C420.204 265.833 420.048 265.057 420.048 264.272C420.048 263.487 420.204 262.71 420.507 261.986C420.809 261.262 421.253 260.606 421.811 260.054C422.37 259.503 423.032 259.068 423.76 258.775C424.488 258.482 425.267 258.336 426.051 258.346H664.724C675.248 258.346 685.047 254.699 691.942 248.925C698.837 243.151 703.192 234.946 703.192 226.133C703.192 208.204 685.772 193.921 664.724 193.921H541.438C522.107 193.921 502.964 179.03 483.634 179.03H414.769C404.699 179.03 396.536 170.867 396.536 160.797C396.536 150.727 404.699 142.563 414.769 142.563H568.917C576.175 142.563 583.07 140.132 587.788 136.182C592.505 132.231 595.409 126.761 595.409 120.379C595.409 108.224 583.433 98.1953 568.917 98.1953H213.631C206.373 98.1953 199.478 100.626 194.76 104.577C190.042 108.527 187.139 113.998 187.139 120.379C187.139 132.535 199.115 142.563 213.631 142.563H222.704C234.68 142.563 244.841 150.768 244.841 161.101C244.841 166.267 242.301 170.825 238.309 174.168C234.317 177.511 228.873 179.638 222.704 179.638H178.792C171.171 179.638 163.913 182.373 158.832 186.627C153.752 190.882 150.485 196.656 150.485 203.341C150.485 216.409 163.187 226.741 178.429 226.741H223.067C237.583 226.741 249.559 236.769 249.559 248.925C249.559 255.003 246.656 260.473 241.938 264.423C237.22 268.374 230.688 270.805 223.43 270.805H183.51C176.978 270.805 171.171 272.932 166.816 276.579C162.461 280.226 159.921 285.088 159.921 290.558C159.921 301.498 170.445 310.311 183.51 310.311H215.809C234.317 310.311 249.196 322.77 249.196 338.269C249.196 345.866 245.567 353.159 239.397 358.022C233.228 363.188 224.881 366.227 215.809 366.227H170.808C161.736 366.227 153.389 369.266 147.582 374.432C141.413 379.294 137.784 386.284 137.784 393.881C137.784 409.075 152.663 421.535 170.808 421.535H309.771C325.113 421.535 340.186 430.044 355.528 430.044H380.877C390.527 430.044 398.351 437.867 398.351 447.517C398.351 457.168 390.527 464.991 380.877 464.991H319.237C311.253 464.991 304.358 467.726 299.277 471.981C294.196 476.235 290.93 482.313 290.93 488.695C290.93 501.762 303.632 512.398 319.237 512.398H696.66C704.644 512.398 711.539 509.663 716.62 505.409C721.7 501.154 724.966 495.076 724.966 488.695C724.966 475.627 712.265 464.991 696.66 464.991H685.409C673.797 464.991 664.724 457.09 664.724 447.669C664.724 442.807 666.901 438.553 670.893 435.514C674.522 432.475 679.966 430.348 685.772 430.348H733.313C741.297 430.348 748.192 427.613 753.273 423.358C758.354 419.104 761.62 413.026 761.62 406.644C761.62 392.969 748.918 382.333 733.313 382.333Z" fill="url(#paint2_linear_1235_29411)"/>
<path d="M503.602 137.527H394.705C331.518 137.527 326.644 194.433 360.759 225.412L537.548 386.365C571.662 417.343 566.789 474.25 503.602 474.25H394.705C331.518 474.25 326.644 417.343 360.759 386.365L537.548 225.412C571.662 194.433 566.789 137.527 503.602 137.527Z" fill="#4F27AA"/>
<path d="M96.002 192.569C96.002 192.569 145.128 211.948 162.022 233.637C178.735 255.097 210.513 318.743 256.309 353.17C256.736 353.495 257.262 353.661 257.799 353.64C258.335 353.619 258.847 353.413 259.247 353.055C262.143 350.42 267.221 342.931 257.023 326.882C243.713 306.012 233.939 289.77 233.939 289.77C233.939 289.77 337.227 317.926 365.787 323.479C371.425 324.578 376.084 324.833 379.992 324.497C392.178 323.446 393.691 306.197 381.942 302.821L313.196 283.045C313.196 283.045 321.151 281.269 322.609 274.156C323.972 267.425 315.265 257.382 304.309 254.901C304.309 254.901 313.073 252.157 312.212 242.74C311.351 233.323 299.757 226.979 293.502 225.057C293.502 225.057 302.428 224.247 303.769 217.284C305.109 210.322 294.065 200.272 289.786 198.335C285.507 196.397 252.857 174.106 192.016 164.628L133.808 110.91C133.808 110.91 104.195 115.761 96.002 192.569ZM802.963 419.584C802.963 419.584 753.837 400.205 736.943 378.516C720.229 357.056 688.452 293.409 642.655 258.983C642.228 258.658 641.702 258.492 641.166 258.513C640.63 258.534 640.118 258.741 639.718 259.098C636.822 261.732 631.744 269.222 641.942 285.271C655.252 306.141 665.026 322.383 665.026 322.383C665.026 322.383 561.738 294.227 533.177 288.673C527.54 287.574 522.88 287.32 518.973 287.656C506.787 288.707 505.274 305.956 517.023 309.332L585.769 329.108C585.769 329.108 577.814 330.884 576.355 337.996C574.993 344.728 583.7 354.771 594.656 357.252C594.656 357.252 585.892 359.996 586.753 369.413C587.614 378.83 599.208 385.174 605.462 387.096C605.462 387.096 596.536 387.906 595.196 394.869C593.856 401.831 604.9 411.881 609.179 413.818C613.458 415.756 646.108 438.047 706.949 447.525L765.157 501.242C765.157 501.242 794.769 496.392 802.963 419.584Z" fill="#F8AE9D"/>
</g>
<defs>
<linearGradient id="paint0_linear_1235_29411" x1="784.058" y1="402.703" x2="906.494" y2="305.855" gradientUnits="userSpaceOnUse">
<stop stop-color="white"/>
<stop offset="1" stop-color="#EEEEEE"/>
</linearGradient>
<linearGradient id="paint1_linear_1235_29411" x1="174.151" y1="212.329" x2="-5.65386" y2="45.2662" gradientUnits="userSpaceOnUse">
<stop stop-color="white"/>
<stop offset="1" stop-color="#EEEEEE"/>
</linearGradient>
<linearGradient id="paint2_linear_1235_29411" x1="463.003" y1="744.624" x2="454.523" y2="-352.47" gradientUnits="userSpaceOnUse">
<stop stop-color="white"/>
<stop offset="1" stop-color="#EEEEEE"/>
</linearGradient>
<clipPath id="clip0_1235_29411">
<rect width="900" height="600" fill="white"/>
</clipPath>
</defs>
</svg>
