<svg width="900" height="600" viewBox="0 0 900 600" fill="none" xmlns="http://www.w3.org/2000/svg">
<g clip-path="url(#clip0_1235_29428)">
<path d="M766.363 276.533C751.352 283.979 731.429 274.405 731.429 274.405C731.429 274.405 735.857 252.762 750.876 245.326C765.887 237.88 785.802 247.444 785.802 247.444C785.802 247.444 781.374 269.087 766.363 276.533Z" fill="url(#paint0_linear_1235_29428)"/>
<path d="M143.079 324.266C163.536 336.527 192.887 325.193 192.887 325.193C192.887 325.193 189.049 293.983 168.579 281.736C148.121 269.475 118.783 280.795 118.783 280.795C118.783 280.795 122.621 312.005 143.079 324.266Z" fill="url(#paint1_linear_1235_29428)"/>
<path d="M725.772 126.044C716.256 126.044 708.542 133.758 708.542 143.274C708.542 152.79 716.256 160.504 725.772 160.504C735.288 160.504 743.002 152.79 743.002 143.274C743.002 133.758 735.288 126.044 725.772 126.044Z" fill="#4F27AA"/>
<path d="M282.378 105.002C278.303 105.002 275 108.305 275 112.38C275 116.455 278.303 119.758 282.378 119.758C286.453 119.758 289.756 116.455 289.756 112.38C289.756 108.305 286.453 105.002 282.378 105.002Z" fill="#4F27AA"/>
<path d="M674.184 206.999C666.351 206.999 660 213.35 660 221.183C660 229.017 666.351 235.367 674.184 235.367C682.018 235.367 688.368 229.017 688.368 221.183C688.368 213.35 682.018 206.999 674.184 206.999Z" fill="#4F27AA"/>
<path d="M736.085 326.58C731.922 326.58 728.547 323.205 728.547 319.042C728.547 314.879 731.922 311.504 736.085 311.504C740.248 311.504 743.623 314.879 743.623 319.042C743.623 323.205 740.248 326.58 736.085 326.58Z" fill="#4F27AA"/>
<path d="M698.888 514.111C693.535 514.111 689.196 509.771 689.196 504.419C689.196 499.066 693.535 494.727 698.888 494.727C704.241 494.727 708.58 499.066 708.58 504.419C708.58 509.771 704.241 514.111 698.888 514.111Z" fill="#E1E4E5"/>
<path d="M127.995 512.026C122.492 512.026 118.031 507.565 118.031 502.062C118.031 496.559 122.492 492.098 127.995 492.098C133.498 492.098 137.959 496.559 137.959 502.062C137.959 507.565 133.498 512.026 127.995 512.026Z" fill="#E1E4E5"/>
<path d="M748.398 484.754C745.502 484.754 743.154 482.406 743.154 479.51C743.154 476.613 745.502 474.266 748.398 474.266C751.294 474.266 753.642 476.613 753.642 479.51C753.642 482.406 751.294 484.754 748.398 484.754Z" fill="#E1E4E5"/>
<path d="M653.955 97.4068C647.412 97.4068 642.109 92.1032 642.109 85.5608C642.109 79.0185 647.412 73.7148 653.955 73.7148C660.497 73.7148 665.801 79.0185 665.801 85.5608C665.801 92.1032 660.497 97.4068 653.955 97.4068Z" fill="#E1E4E5"/>
<path d="M140.582 191.468C142.103 197.142 138.735 202.975 133.061 204.495C127.386 206.016 121.554 202.648 120.033 196.974C118.513 191.299 121.88 185.467 127.555 183.946C133.229 182.426 139.062 185.793 140.582 191.468Z" fill="#E1E4E5"/>
<path d="M381.812 97.7083C373.997 97.7083 367.661 91.3726 367.661 83.5573C367.661 75.7419 373.997 69.4062 381.812 69.4062C389.627 69.4062 395.963 75.7419 395.963 83.5573C395.963 91.3726 389.627 97.7083 381.812 97.7083Z" fill="#E1E4E5"/>
<path d="M772.889 406.328C766.877 406.328 762.003 402.429 762.003 397.619C762.003 392.809 766.877 388.91 772.889 388.91C778.901 388.91 783.775 392.809 783.775 397.619C783.775 402.429 778.901 406.328 772.889 406.328Z" fill="#E1E4E5"/>
<path d="M547.169 58.7929C548.548 63.9387 545.494 69.228 540.349 70.6068C535.203 71.9856 529.913 68.9319 528.535 63.7861C527.156 58.6403 530.21 53.351 535.355 51.9722C540.501 50.5934 545.79 53.6471 547.169 58.7929Z" fill="#E1E4E5"/>
<path d="M178.766 120.895H178.921C179.84 133.905 189.516 134.106 189.516 134.106C189.516 134.106 178.846 134.314 178.846 149.348C178.846 134.314 168.176 134.106 168.176 134.106C168.176 134.106 177.848 133.905 178.766 120.895ZM246.83 525.47H246.979C247.861 538.442 257.151 538.641 257.151 538.641C257.151 538.641 246.907 538.849 246.907 553.838C246.907 538.849 236.663 538.641 236.663 538.641C236.663 538.641 245.949 538.442 246.83 525.47Z" fill="#E1E4E5"/>
<path d="M418.777 480.002C412.559 480.002 407.518 474.962 407.518 468.743C407.518 462.525 412.559 457.484 418.777 457.484C424.995 457.484 430.036 462.525 430.036 468.743C430.036 474.962 424.995 480.002 418.777 480.002Z" fill="#4F27AA"/>
<path d="M242.75 506.25H660.25M265.918 506.25V318.375C265.918 283.723 297.022 255.75 335.432 255.75H567.353C605.763 255.75 636.867 283.723 636.867 318.375V506.25M317.066 255.75V196.674C317.066 171.624 339.611 151.375 367.584 151.375H535.628C563.391 151.375 585.936 171.624 585.936 196.674V255.75" stroke="#E1E4E5" stroke-width="24" stroke-linecap="round" stroke-linejoin="round"/>
<path d="M274.685 338.832L282.408 339.041C297.856 339.25 310.172 351.775 310.172 367.222V374.111C310.172 389.558 322.697 402.292 338.353 402.292C353.801 402.292 366.535 389.767 366.535 374.111V367.64C366.535 352.192 379.06 339.458 394.716 339.458C410.163 339.458 422.897 351.983 422.897 367.64V374.111C422.897 389.558 435.422 402.292 451.078 402.292C466.526 402.292 479.26 389.767 479.26 374.111V367.64C479.26 352.192 491.785 339.458 507.441 339.458C522.888 339.458 535.622 351.983 535.622 367.64V374.111C535.622 389.558 548.147 402.292 563.803 402.292C579.251 402.292 591.985 389.767 591.985 374.111V367.64C591.985 352.192 604.51 339.458 620.166 339.458H629.56M368 151.375V109.625M535 151.375V109.625M451.5 151.375V88.75" stroke="#E1E4E5" stroke-width="24" stroke-linecap="round" stroke-linejoin="round"/>
<path d="M251.498 383.996C215.877 383.996 187 355.119 187 319.498C187 283.877 215.877 255 251.498 255C287.119 255 315.996 283.877 315.996 319.498C315.996 355.119 287.119 383.996 251.498 383.996Z" fill="#4F27AA"/>
<path fill-rule="evenodd" clip-rule="evenodd" d="M273.739 342.062V345.235C273.738 346.078 273.403 346.885 272.807 347.48C272.212 348.075 271.404 348.41 270.562 348.41H232.435C231.593 348.41 230.785 348.075 230.189 347.48C229.594 346.885 229.259 346.078 229.258 345.235V342.011C229.258 332.407 240.245 326.169 251.499 326.169C262.752 326.169 273.739 332.411 273.739 342.011M259.362 298.288C263.704 302.631 263.704 309.672 259.362 314.014C255.019 318.357 247.978 318.357 243.635 314.014C239.292 309.672 239.292 302.631 243.635 298.288C247.978 293.945 255.019 293.945 259.362 298.288Z" fill="white"/>
<path d="M642.498 383.996C606.877 383.996 578 355.119 578 319.498C578 283.877 606.877 255 642.498 255C678.119 255 706.996 283.877 706.996 319.498C706.996 355.119 678.119 383.996 642.498 383.996Z" fill="#4F27AA"/>
<path fill-rule="evenodd" clip-rule="evenodd" d="M664.739 342.062V345.235C664.738 346.078 664.403 346.885 663.807 347.48C663.212 348.075 662.404 348.41 661.562 348.41H623.435C622.593 348.41 621.785 348.075 621.189 347.48C620.594 346.885 620.259 346.078 620.258 345.235V342.011C620.258 332.407 631.245 326.169 642.499 326.169C653.752 326.169 664.739 332.411 664.739 342.011M650.362 298.288C654.704 302.631 654.704 309.672 650.362 314.014C646.019 318.357 638.978 318.357 634.635 314.014C630.292 309.672 630.292 302.631 634.635 298.288C638.978 293.945 646.019 293.945 650.362 298.288Z" fill="white"/>
</g>
<defs>
<linearGradient id="paint0_linear_1235_29428" x1="708.72" y1="299.76" x2="832.53" y2="201.825" gradientUnits="userSpaceOnUse">
<stop stop-color="white"/>
<stop offset="1" stop-color="#EEEEEE"/>
</linearGradient>
<linearGradient id="paint1_linear_1235_29428" x1="222.245" y1="363.734" x2="57.6342" y2="210.789" gradientUnits="userSpaceOnUse">
<stop stop-color="white"/>
<stop offset="1" stop-color="#EEEEEE"/>
</linearGradient>
<clipPath id="clip0_1235_29428">
<rect width="900" height="600" fill="white"/>
</clipPath>
</defs>
</svg>
