<svg width="900" height="600" viewBox="0 0 900 600" fill="none" xmlns="http://www.w3.org/2000/svg">
<g clip-path="url(#clip0_1235_18916)">
<path d="M698.579 351.895L697.628 357.086C689.504 400.869 659.527 435.968 618.881 447.12C613.649 448.563 608.311 449.586 602.916 450.177C563.941 454.52 522.395 436.405 496.428 403.721C481.157 384.502 470.231 360.066 449.664 347.759C422.875 331.725 390.507 342.209 362.612 352.949C334.692 363.715 302.299 374.096 275.561 357.934C258.825 347.836 248.027 328.924 242.371 309.551C227.331 258.29 244.659 201.762 278.826 164.762C312.994 127.761 361.713 108.567 411.1 102.426C480.257 93.8444 554.66 110.443 611.837 156.18C669.014 201.916 706.009 278.46 698.579 351.895Z" fill="url(#paint0_linear_1235_18916)"/>
<path d="M238.25 299.56C249.506 275.717 239.302 247.263 215.459 236.007C191.616 224.752 163.162 234.956 151.906 258.799C140.651 282.642 150.855 311.095 174.698 322.351C198.541 333.607 226.994 323.403 238.25 299.56Z" fill="#4F27AA"/>
<path d="M235.992 292.372C236.03 294.027 237.801 295.06 239.26 294.277L257.837 284.31C259.405 283.469 259.394 281.216 257.817 280.39L238.79 270.423C237.293 269.639 235.504 270.749 235.542 272.438L235.992 292.372Z" fill="#4F27AA"/>
<path d="M178.196 280.421C178.181 281.261 178.001 282.09 177.665 282.861C177.329 283.632 176.845 284.329 176.24 284.912C175.635 285.496 174.92 285.954 174.138 286.261C173.355 286.568 172.519 286.718 171.679 286.701C170.838 286.687 170.009 286.506 169.238 286.171C168.468 285.835 167.771 285.351 167.187 284.745C166.604 284.14 166.146 283.426 165.839 282.643C165.532 281.86 165.382 281.025 165.398 280.184C165.413 279.344 165.593 278.515 165.929 277.744C166.265 276.973 166.749 276.276 167.354 275.693C167.96 275.11 168.674 274.651 169.457 274.344C170.239 274.037 171.075 273.887 171.915 273.904C173.612 273.936 175.226 274.64 176.404 275.862C177.582 277.084 178.226 278.724 178.196 280.421ZM200.428 281.363C200.068 284.876 196.915 287.433 193.402 287.073C189.889 286.713 187.332 283.56 187.692 280.048C188.052 276.535 191.205 273.979 194.718 274.339C198.231 274.711 200.788 277.85 200.428 281.363ZM221.331 281.748C220.971 285.261 217.818 287.819 214.305 287.459C210.792 287.099 208.235 283.945 208.595 280.432C208.955 276.919 212.108 274.362 215.621 274.722C216.457 274.809 217.269 275.059 218.008 275.459C218.748 275.858 219.401 276.4 219.932 277.052C220.462 277.705 220.859 278.455 221.099 279.261C221.339 280.067 221.418 280.912 221.331 281.748Z" fill="white"/>
<path fill-rule="evenodd" clip-rule="evenodd" d="M296.254 285.91V466.71C296.254 488.199 313.659 505.605 335.148 505.605H607.388C628.877 505.605 646.283 488.199 646.283 466.71V285.91" fill="#4F27AA"/>
<path d="M296.254 285.91V466.71C296.254 488.199 313.659 505.605 335.148 505.605H607.388C628.877 505.605 646.283 488.199 646.283 466.71V285.91" stroke="#4F27AA" stroke-width="26.07" stroke-linecap="round" stroke-linejoin="round"/>
<path fill-rule="evenodd" clip-rule="evenodd" d="M313.486 253.646L449.499 162.148C455.935 157.822 463.515 155.512 471.27 155.512C479.025 155.512 486.605 157.822 493.041 162.148L629.054 253.646C651.963 269.068 651.963 302.77 629.054 318.191L514.822 395.046C488.491 412.763 454.069 412.763 427.738 395.046L313.505 318.191C290.577 302.77 290.577 269.048 313.486 253.646Z" fill="white" stroke="#4F27AA" stroke-width="26.07" stroke-linecap="round" stroke-linejoin="round"/>
<path d="M405.489 263.277H537.067M419.963 315.472H523.135" stroke="#4F27AA" stroke-width="24.406" stroke-linecap="round" stroke-linejoin="round"/>
<path d="M718.286 429.625L684.526 463.385C683.297 464.615 683.297 466.608 684.526 467.837C685.755 469.067 687.749 469.067 688.978 467.837L722.738 434.077C723.967 432.848 723.967 430.855 722.738 429.625C721.509 428.396 719.515 428.396 718.286 429.625Z" fill="#E1E4E5"/>
<path d="M714.982 453.798L705.246 463.534C704.017 464.763 704.017 466.756 705.246 467.986C706.475 469.215 708.469 469.215 709.698 467.986L719.434 458.25C720.663 457.02 720.663 455.027 719.434 453.798C718.205 452.568 716.212 452.568 714.982 453.798Z" fill="#E1E4E5"/>
<path d="M526.367 121.662L560.127 87.9017C561.356 86.6723 561.356 84.6792 560.127 83.4498C558.898 82.2204 556.904 82.2204 555.675 83.4498L521.915 117.21C520.686 118.439 520.686 120.432 521.915 121.662C523.144 122.891 525.138 122.891 526.367 121.662Z" fill="#E1E4E5"/>
<path d="M529.671 97.4895L539.407 87.7533C540.636 86.524 540.636 84.5307 539.407 83.3014C538.178 82.072 536.184 82.072 534.955 83.3014L525.219 93.0375C523.99 94.2669 523.99 96.2601 525.219 97.4895C526.448 98.7188 528.442 98.7188 529.671 97.4895Z" fill="#E1E4E5"/>
<path d="M250.98 400.642L221.135 430.487C220.048 431.574 220.048 433.336 221.135 434.423C222.222 435.51 223.984 435.51 225.071 434.423L254.915 404.578C256.002 403.491 256.002 401.729 254.915 400.642C253.829 399.556 252.067 399.556 250.98 400.642Z" fill="#E1E4E5"/>
<path d="M248.058 422.011L239.451 430.618C238.364 431.705 238.364 433.467 239.451 434.554C240.538 435.641 242.3 435.641 243.387 434.554L251.994 425.947C253.08 424.86 253.08 423.098 251.994 422.011C250.907 420.924 249.145 420.924 248.058 422.011Z" fill="#E1E4E5"/>
<path d="M710.159 233.767L738.047 205.879C739.062 204.864 739.062 203.218 738.047 202.203L738.046 202.202C737.03 201.186 735.384 201.186 734.369 202.202L706.481 230.089C705.466 231.105 705.466 232.751 706.481 233.766L706.482 233.767C707.497 234.782 709.144 234.782 710.159 233.767Z" fill="#E1E4E5"/>
<path d="M712.888 213.8L720.931 205.756C721.947 204.741 721.947 203.095 720.931 202.079L720.931 202.079C719.915 201.063 718.269 201.063 717.254 202.079L709.21 210.122C708.195 211.137 708.195 212.784 709.211 213.799L709.211 213.8C710.227 214.815 711.873 214.815 712.888 213.8Z" fill="#E1E4E5"/>
<path d="M747.784 376.231L736.135 365.137L747.784 354.043L759.432 365.137L747.784 376.231Z" stroke="#E1E4E5" stroke-width="5.643" stroke-linecap="round" stroke-linejoin="round"/>
<path d="M223.604 372.049C223.604 378.18 218.636 383.143 212.498 383.143C206.361 383.143 201.417 378.155 201.417 372.049C201.417 365.918 206.385 360.955 212.523 360.955C218.66 360.955 223.604 365.918 223.604 372.049Z" stroke="#E1E4E5" stroke-width="5.547" stroke-miterlimit="10"/>
<path d="M637.316 93.5092C621.802 106.489 622.719 133.157 622.719 133.157C622.719 133.157 648.791 138.764 664.298 125.77C679.812 112.79 678.903 86.1362 678.903 86.1362C678.903 86.1362 652.83 80.5292 637.316 93.5092Z" fill="url(#paint1_linear_1235_18916)"/>
<path d="M362.289 140.914C360.782 146.539 364.272 152.361 370.085 153.919C375.898 155.476 381.832 152.179 383.339 146.554C384.846 140.929 381.356 135.107 375.543 133.549C369.73 131.992 363.796 135.289 362.289 140.914Z" fill="#E1E4E5"/>
<path d="M765.25 286.124C762.627 295.915 752.562 301.726 742.771 299.102C732.98 296.479 727.169 286.414 729.793 276.623C732.416 266.832 742.481 261.021 752.272 263.645C762.063 266.268 767.874 276.333 765.25 286.124Z" fill="#4F27AA"/>
<path d="M610.449 177.453C609.473 181.095 606.266 183.4 603.286 182.601C600.306 181.803 598.682 178.203 599.658 174.561C600.634 170.919 603.84 168.614 606.82 169.413C609.8 170.211 611.425 173.811 610.449 177.453Z" fill="#E1E4E5"/>
<path d="M272.301 156.832H272.527C273.863 174.587 287.948 174.86 287.948 174.86C287.948 174.86 272.417 175.145 272.417 195.66C272.417 175.145 256.885 174.86 256.885 174.86C256.885 174.86 270.964 174.587 272.301 156.832ZM681.677 149.918H681.87C683.016 164.122 695.088 164.341 695.088 164.341C695.088 164.341 681.776 164.569 681.776 180.981C681.776 164.569 668.463 164.341 668.463 164.341C668.463 164.341 680.531 164.122 681.677 149.918Z" fill="#E1E4E5"/>
<path d="M339.438 456.807L312.899 483.346C311.933 484.312 311.932 485.879 312.899 486.845C313.865 487.812 315.432 487.812 316.399 486.845L342.937 460.307C343.904 459.34 343.904 457.773 342.937 456.807C341.971 455.84 340.404 455.841 339.438 456.807Z" fill="white"/>
<path d="M361.155 456.807L334.616 483.346C333.65 484.312 333.649 485.879 334.616 486.845C335.582 487.812 337.149 487.812 338.116 486.845L364.654 460.307C365.621 459.34 365.621 457.773 364.654 456.807C363.688 455.84 362.121 455.841 361.155 456.807Z" fill="white"/>
<path d="M384.228 456.807L357.689 483.346C356.723 484.312 356.722 485.879 357.689 486.845C358.655 487.812 360.222 487.812 361.189 486.845L387.727 460.307C388.694 459.34 388.694 457.773 387.727 456.807C386.761 455.84 385.194 455.841 384.228 456.807Z" fill="white"/>
<path d="M588.992 492.333C599.408 492.345 614.398 489.633 626.677 477.798C638.954 465.962 632.053 458.607 619.864 457.274C607.675 455.941 593.057 461.5 583.592 473.403C574.127 485.307 580.442 492.323 588.992 492.333Z" fill="url(#paint2_linear_1235_18916)"/>
</g>
<defs>
<linearGradient id="paint0_linear_1235_18916" x1="458.358" y1="-96.2936" x2="466.549" y2="832.22" gradientUnits="userSpaceOnUse">
<stop stop-color="white"/>
<stop offset="1" stop-color="#EEEEEE"/>
</linearGradient>
<linearGradient id="paint1_linear_1235_18916" x1="583.673" y1="145.958" x2="752.001" y2="56.6172" gradientUnits="userSpaceOnUse">
<stop stop-color="white"/>
<stop offset="1" stop-color="#EEEEEE"/>
</linearGradient>
<linearGradient id="paint2_linear_1235_18916" x1="644.048" y1="496.227" x2="549.287" y2="442.724" gradientUnits="userSpaceOnUse">
<stop stop-color="white"/>
<stop offset="1" stop-color="#EEEEEE"/>
</linearGradient>
<clipPath id="clip0_1235_18916">
<rect width="900" height="600" fill="white"/>
</clipPath>
</defs>
</svg>
