<svg width="900" height="600" viewBox="0 0 900 600" fill="none" xmlns="http://www.w3.org/2000/svg">
<g clip-path="url(#clip0_1235_29478)">
<path d="M682.882 329.106V186.832C682.882 98.0197 662.167 75.7617 578.865 75.7617H412.261C328.959 75.7617 308.244 98.0197 308.244 186.832V434.974C308.244 493.594 340.419 507.478 379.426 465.606L379.646 465.386C397.716 446.213 425.263 447.756 440.91 468.691H531.352" stroke="#E1E4E5" stroke-width="24" stroke-linecap="round" stroke-linejoin="round"/>
<path d="M715.939 516.512L693.901 494.474M439.412 185.949H615.712M439.412 302.307H615.712M439.412 244.128H571.637M439.412 362.426H512.4M632.196 503.289C671.144 503.289 702.716 471.717 702.716 432.769C702.716 393.822 671.144 362.249 632.196 362.249C593.249 362.249 561.676 393.822 561.676 432.769C561.676 471.717 593.249 503.289 632.196 503.289Z" stroke="#E1E4E5" stroke-width="24" stroke-linecap="round" stroke-linejoin="round"/>
<path d="M298.726 348.678C240.888 348.678 194.002 301.792 194.002 243.954C194.002 186.117 240.888 139.23 298.726 139.23C356.563 139.23 403.45 186.117 403.45 243.954C403.45 301.792 356.563 348.678 298.726 348.678Z" fill="#4F27AA"/>
<path fill-rule="evenodd" clip-rule="evenodd" d="M334.838 280.593V285.746C334.837 287.114 334.293 288.425 333.325 289.391C332.358 290.357 331.046 290.9 329.679 290.899H267.773C266.406 290.9 265.094 290.357 264.127 289.391C263.159 288.425 262.615 287.114 262.614 285.746V280.511C262.614 264.918 280.454 254.787 298.726 254.787C316.999 254.787 334.838 264.923 334.838 280.511M311.494 209.519C318.545 216.57 318.545 228.002 311.494 235.053C304.442 242.105 293.01 242.105 285.959 235.053C278.907 228.002 278.907 216.57 285.959 209.519C293.01 202.467 304.442 202.467 311.494 209.519Z" fill="white"/>
<path d="M224.659 109.462C241.953 118.041 264.907 107.01 264.907 107.01C264.907 107.01 259.806 82.0747 242.502 73.5077C225.207 64.9277 202.263 75.9477 202.263 75.9477C202.263 75.9477 207.364 100.883 224.659 109.462Z" fill="url(#paint0_linear_1235_29478)"/>
<path d="M165.55 139.229C172.037 139.229 177.295 144.487 177.295 150.974C177.295 157.46 172.037 162.719 165.55 162.719C159.063 162.719 153.805 157.46 153.805 150.974C153.805 144.487 159.063 139.229 165.55 139.229Z" fill="#4F27AA"/>
<path d="M732.298 84.2243C744.497 84.2243 754.387 94.1139 754.387 106.313C754.387 118.513 744.497 128.402 732.298 128.402C720.099 128.402 710.209 118.513 710.209 106.313C710.209 94.1139 720.099 84.2243 732.298 84.2243Z" fill="#4F27AA"/>
<path d="M740.989 330.9C747.472 330.9 752.728 325.644 752.728 319.161C752.728 312.678 747.472 307.422 740.989 307.422C734.506 307.422 729.25 312.678 729.25 319.161C729.25 325.644 734.506 330.9 740.989 330.9Z" fill="#4F27AA"/>
<path d="M143.953 265.502C153.117 265.502 160.546 258.073 160.546 248.909C160.546 239.745 153.117 232.316 143.953 232.316C134.789 232.316 127.36 239.745 127.36 248.909C127.36 258.073 134.789 265.502 143.953 265.502Z" fill="#E1E4E5"/>
<path d="M413.725 544.827C425.244 544.827 434.582 535.489 434.582 523.97C434.582 512.451 425.244 503.113 413.725 503.113C402.206 503.113 392.868 512.451 392.868 523.97C392.868 535.489 402.206 544.827 413.725 544.827Z" fill="#E1E4E5"/>
<path d="M736.709 448.243C734.341 457.08 739.586 466.164 748.423 468.532C757.261 470.9 766.345 465.655 768.713 456.818C771.081 447.981 765.836 438.897 756.999 436.529C748.161 434.161 739.077 439.405 736.709 448.243Z" fill="#E1E4E5"/>
<path d="M177.104 380.03C186.466 380.03 194.056 373.958 194.056 366.468C194.056 358.978 186.466 352.906 177.104 352.906C167.742 352.906 160.152 358.978 160.152 366.468C160.152 373.958 167.742 380.03 177.104 380.03Z" fill="#E1E4E5"/>
<path d="M194.001 488.916C194.001 503.86 206.115 515.973 221.058 515.973C236.001 515.973 248.115 503.86 248.115 488.916C248.115 473.973 236.001 461.859 221.058 461.859C206.115 461.859 194.001 473.973 194.001 488.916Z" fill="#E1E4E5"/>
</g>
<defs>
<linearGradient id="paint0_linear_1235_29478" x1="291.071" y1="136.222" x2="148.426" y2="23.3897" gradientUnits="userSpaceOnUse">
<stop stop-color="white"/>
<stop offset="1" stop-color="#EEEEEE"/>
</linearGradient>
<clipPath id="clip0_1235_29478">
<rect width="900" height="600" fill="white"/>
</clipPath>
</defs>
</svg>
