<svg width="900" height="600" viewBox="0 0 900 600" fill="none" xmlns="http://www.w3.org/2000/svg">
<g clip-path="url(#clip0_1235_29493)">
<path d="M421.619 111.195H162.129C151.083 111.195 142.129 120.15 142.129 131.195V390.685C142.129 401.731 151.083 410.685 162.129 410.685H421.619C432.665 410.685 441.619 401.731 441.619 390.685V131.195C441.619 120.15 432.665 111.195 421.619 111.195Z" fill="#4F27AA"/>
<path d="M291.181 456.443C313.771 456.443 332.084 438.13 332.084 415.54C332.084 392.95 313.771 374.637 291.181 374.637C268.591 374.637 250.278 392.95 250.278 415.54C250.278 438.13 268.591 456.443 291.181 456.443Z" fill="#4F27AA"/>
<path d="M122.025 312.982C144.615 312.982 162.928 294.669 162.928 272.079C162.928 249.489 144.615 231.176 122.025 231.176C99.4349 231.176 81.122 249.489 81.122 272.079C81.122 294.669 99.4349 312.982 122.025 312.982Z" fill="#4F27AA"/>
<path d="M452.018 249.318C474.608 249.318 492.921 231.005 492.921 208.415C492.921 185.825 474.608 167.512 452.018 167.512C429.428 167.512 411.115 185.825 411.115 208.415C411.115 231.005 429.428 249.318 452.018 249.318Z" fill="#4F27AA"/>
<path d="M304.039 66.5308C304.039 66.5308 279.181 62.5778 272.505 106.46C265.088 155.246 245.282 147.22 213.829 186.833C195.446 209.981 214.791 250.859 254.102 250.048C293.414 249.258 328.916 237.892 351.529 242.754C374.142 247.617 375.385 189.7 353.073 171.83C330.761 153.961 378.331 102.645 349.344 79.7948C320.357 56.9438 304.039 66.5308 304.039 66.5308Z" fill="#2E2445"/>
<path d="M155.451 260.035C153.184 255.376 153.322 249.964 154.14 244.914C157.683 223.237 172.875 205.123 190.287 191.849C207.757 178.541 227.752 169.04 246.132 157.114C250.902 154.008 255.684 150.663 261.16 148.984C266.637 147.306 273.002 147.487 277.525 151.018C280.718 153.496 282.563 157.328 283.637 161.16C285.99 169.552 285.088 178.437 283.653 186.949C281.858 197.685 279.224 208.31 274.897 218.178C271.429 226.138 265.784 234.329 257.3 235.888C254.845 245.401 249.791 254.317 242.701 261.138C234.593 268.959 224.312 274.073 213.643 277.645C203.813 280.943 193.061 283.096 183.173 280.018C177.304 278.225 172.135 274.775 167.08 271.256C162.57 268.258 157.889 264.977 155.451 260.035ZM244.294 245.58L250.097 236.367C248.86 236.494 247.692 236.735 246.513 237.214C243.327 238.593 241.408 243.611 244.294 245.58Z" fill="#2E2445"/>
<path d="M351.828 105.12C352.129 106.749 352.184 108.456 352.073 110.404C351.413 121.768 348.967 133.024 344.826 143.604C342.293 149.902 339.193 156.11 334.808 161.325C332.987 163.49 330.926 165.49 328.233 166.262C325.459 167.032 321.964 167.141 319.212 166.45C316.785 176.487 317.797 195.432 326.463 202.55C329.112 204.703 332.26 206.05 335.41 207.235C341.548 209.603 347.939 211.407 354.336 212.804C361.624 214.377 369.568 215.554 374.686 220.912C375.326 221.572 375.962 222.475 375.705 223.365C375.534 223.931 375.121 224.331 374.629 224.648C370.598 227.918 365.616 229.711 360.634 231.422C351.896 234.377 342.922 236.84 333.798 238.489C324.266 240.213 314.424 241.038 304.772 239.998C297.31 239.153 289.946 237.254 283.173 233.902C276.077 230.382 268.809 227.509 261.467 224.148C255.254 221.291 249.13 218.03 242.404 216.872C245.583 210.827 252.215 207.434 258.82 205.828C265.424 204.304 272.332 204.165 279.013 202.885C281.213 202.431 283.415 201.896 285.304 200.544C290.479 196.804 289.062 188.496 289.144 183.054L289.406 165.834C288.637 157.617 285.248 150.742 282.275 143.222C277.738 131.698 276.8 118.604 280.797 106.803C284.794 95.0834 293.885 84.9044 305.565 80.7764C317.246 76.6474 331.265 78.9734 340.234 87.5584C345.918 93.0884 350.555 98.0334 351.828 105.12Z" fill="#F8AE9D"/>
<path d="M315.909 68.5082C327.55 67.2092 338.158 72.9102 346.023 81.7472C352.64 89.1542 356.529 98.9332 356.333 108.757C356.305 110.161 356.147 111.689 355.356 112.95C353.253 115.971 348.68 114.859 345.261 113.514C339.688 111.361 335.538 108.214 330.486 105.561C325.433 102.907 319.298 103.295 314.776 99.6312C310.507 96.0992 295.849 88.6582 295.454 82.9062C294.956 75.8762 307.835 70.1342 313.219 68.9662C313.99 68.7262 314.885 68.6162 315.909 68.5082Z" fill="#2E2445"/>
<path d="M282.37 84.4207C272.526 90.7707 267.906 101.892 267.394 113.71C266.946 123.633 270.11 133.67 276.47 141.161C277.379 142.231 278.467 143.315 279.877 143.793C283.416 144.806 286.257 141.054 288.058 137.851C291.017 132.661 292.245 127.6 294.484 122.351C296.724 117.101 301.724 113.526 302.913 107.828C303.991 102.393 310.65 87.3637 307.322 82.6557C303.266 76.8927 289.656 80.5797 284.744 83.0757C283.995 83.3767 283.231 83.8577 282.37 84.4217V84.4207Z" fill="#2E2445"/>
<path d="M369.93 218.404C371.485 217.697 373.345 218.213 374.38 219.609C385.994 235.872 390.478 256.25 394.405 275.889C398.859 298.217 402.824 320.619 406.627 343.018C406.854 344.159 406.998 345.38 406.494 346.428C405.991 347.477 404.845 348.028 403.782 348.5C397.071 351.729 390.28 354.875 383.569 358.104C376.345 341.665 371.084 324.28 368.022 306.604C363.713 317.506 355.932 326.975 346.008 333.161C353.403 343.753 361.786 363.262 370.662 372.577C371.83 375.926 370.05 373.19 366.99 373.19C361.941 373.925 362.128 372.716 357.808 372.577C351.563 371.833 349.476 372.291 343.21 372.927C332.794 374.069 322.671 377.327 313.416 382.223C308.815 384.672 304.401 387.456 300.209 390.553C296.594 393.26 287.642 399.624 287.642 399.624C286.984 400.101 283.908 399.405 283.179 399.231C281.056 398.87 278.919 398.594 276.774 398.403C271.418 397.996 265.986 397.264 260.72 396.29C250.107 394.342 239.672 391.34 229.661 387.207C228.697 386.461 232.136 379.364 232.319 377.986C232.137 379.283 212.42 377.683 210.475 377.329C202.7 375.748 194.833 374.898 187.059 373.236C190.54 341.929 200.099 311.69 209.491 281.692C213.164 269.887 216.918 258.082 222.124 246.95C227.666 235.092 234.821 223.989 243.42 214.127C243.668 213.887 244.076 213.73 244.4 213.817C248.527 214.854 273.695 221.33 286.217 225.988C292.598 228.441 299.064 230.652 305.611 232.863C308.197 233.715 310.866 234.568 313.547 234.528C315.335 234.473 317.128 234.095 318.84 233.714C336.285 229.836 353.734 225.633 369.93 218.404Z" fill="white"/>
<path d="M256.385 280.781C255.668 285.239 254.705 289.774 253.744 294.227C251.405 304.333 248.404 314.275 244.761 323.988C242.901 328.834 240.96 333.598 238.775 338.358C237.683 340.698 236.592 343.037 235.419 345.375C234.833 346.504 234.246 347.713 233.66 348.842C233.158 349.809 232.576 350.694 232.075 351.58C235.57 351.471 252.819 352.466 256.389 352.764M361.588 279.879C363.859 289.699 365.497 299.615 366.606 309.734" stroke="white" stroke-width="1.376" stroke-miterlimit="10" stroke-linecap="round"/>
<path d="M711.112 530.793H451.622C440.576 530.793 431.622 521.839 431.622 510.793V251.303C431.622 240.257 440.576 231.303 451.622 231.303H711.112C722.158 231.303 731.112 240.257 731.112 251.303V510.793C731.112 521.839 722.158 530.793 711.112 530.793Z" fill="#4F27AA"/>
<path d="M580.674 185.549C603.264 185.549 621.577 203.862 621.577 226.452C621.577 249.043 603.264 267.355 580.674 267.355C558.084 267.355 539.771 249.043 539.771 226.452C539.771 203.862 558.084 185.549 580.674 185.549Z" fill="#4F27AA"/>
<path d="M411.518 329.01C434.108 329.01 452.421 347.323 452.421 369.913C452.421 392.504 434.108 410.816 411.518 410.816C388.928 410.816 370.615 392.504 370.615 369.913C370.615 347.323 388.928 329.01 411.518 329.01Z" fill="#4F27AA"/>
<path d="M741.511 392.671C764.101 392.671 782.414 410.983 782.414 433.574C782.414 456.164 764.101 474.477 741.511 474.477C718.921 474.477 700.608 456.164 700.608 433.574C700.608 410.983 718.921 392.671 741.511 392.671Z" fill="#4F27AA"/>
<path d="M607.983 194.02C609.171 198.768 607.595 203.705 604.997 207.852C603.16 210.782 600.593 207.547 596.85 207.028C591.06 206.217 587.394 200.088 586.141 185.156C585.561 174.249 585.834 168.808 586.442 167.856C588.604 164.448 594.167 163.307 598.554 163.636" fill="#2E2445"/>
<path fill-rule="evenodd" clip-rule="evenodd" d="M456.531 247.091C456.531 247.091 460.596 224.438 459.134 219.851C457.886 215.887 446.087 210.17 446.087 210.17C446.087 210.17 425.564 177.751 421.073 181.052C417.419 183.728 431.761 207.629 431.761 207.629C431.761 207.629 418.683 221.349 418.866 227.482C419.048 233.616 440.21 252.815 440.21 252.815L456.531 247.091ZM667.456 252.413C667.456 252.413 653.94 249.24 653.471 227.094C653.002 204.947 653.331 197.388 653.331 197.388L621.289 196.85C621.289 196.85 620.965 221.532 620.96 230.46C620.947 249.895 606.513 255.146 606.513 255.146C606.513 255.146 607.713 276.398 634.689 277.915C655.752 279.101 667.456 252.413 667.456 252.413Z" fill="#F8AE9D"/>
<path fill-rule="evenodd" clip-rule="evenodd" d="M656.275 186.192C669.555 185.678 667.389 205.12 653.593 205.094C653.593 205.094 638.766 234.907 615.488 234.984C604.275 235.021 600.614 225.033 597.252 218.022C593.891 211.01 591.424 200.523 591.219 194.101C590.998 187.254 590.97 164.76 590.97 164.76L656.792 164.73L656.275 186.192Z" fill="#F8AE9D"/>
<path fill-rule="evenodd" clip-rule="evenodd" d="M606.008 253.827C606.008 253.827 571.488 264.602 563.17 277.475C536.373 301.016 502.858 333.346 502.858 333.346C502.858 333.346 470.939 253.233 460.504 244.099C453.363 237.85 439.137 245.577 436.487 253.519C433.082 263.719 454.944 323.551 465.27 351.808L465.271 351.811C467.271 357.284 468.838 361.572 469.704 364.086C476 382.352 491.319 392.829 509.961 381.219C517.476 376.539 539.839 361.204 558.917 347.302C559.216 361.907 559.719 377.297 560.196 391.913V391.914C561.356 427.424 562.366 458.368 559.938 462.389C547.904 482.319 563.904 496 616.875 501.027C669.847 506.054 716.841 501.938 708.314 475.341C706.536 469.798 706.558 457.869 707.445 442.372C712.634 442.095 717.82 441.753 723.001 441.346C745.109 439.604 761.458 430.105 763.738 405.435C765.336 388.159 732.423 307.054 720.081 280.385C717.194 274.146 712.73 270.26 707.673 268.324C706.496 267.01 705.17 266.087 703.68 265.596C694.614 262.608 662.11 248.952 662.11 248.952L623.443 274.251L606.008 253.827ZM711.026 396.595L711.113 396.819L711.006 396.833L711.026 396.595Z" fill="white"/>
<path fill-rule="evenodd" clip-rule="evenodd" d="M625.228 417.999C625.228 417.999 613.435 415.628 608.608 411.839C603.782 408.05 589.165 405.371 589.165 405.371L593.841 415.219C593.841 415.219 558.015 411.857 557.167 415.391C556.318 418.925 566.68 422.767 566.68 422.767C566.68 422.767 571.79 432.312 576.737 437.844C581.417 443.08 604.671 442.457 612.823 439.189C619.867 436.367 627.526 437.778 627.526 437.778L625.228 417.999Z" fill="#F8AE9D"/>
<path d="M652.662 165.646C650.722 168.187 647.3 168.746 644.481 169.249C640.693 169.923 638.818 171.33 636.851 175.104C635.606 177.516 634.36 180.156 632.132 181.462C630.316 182.531 630.371 179.827 630.103 177.737C630.077 177.542 630.039 177.349 629.989 177.158C629.555 175.487 627.782 175.767 627.268 177.415C626.796 178.908 625.786 180.171 624.501 180.874C624.292 180.989 624.069 181.089 623.846 181.046C623.544 181.003 623.308 180.716 623.112 180.458C622.703 179.921 622.296 179.239 621.877 178.518C620.49 176.133 617.844 176.97 616.294 179.252C615.324 180.673 614.171 182.137 612.584 182.467C612.073 182.582 611.431 182.496 611.195 181.993C610.893 181.376 611.365 180.759 611.286 180.128C611.221 179.539 610.972 179.281 610.696 178.778C609.623 176.841 607.134 176.77 605.617 178.385C604.562 179.508 603.462 180.587 602.319 181.62C601.834 182.051 601.126 182.481 600.641 182.051C600.379 181.821 600.313 181.434 600.261 181.06C599.985 179.238 599.723 177.415 599.448 175.592C599.29 174.573 598.753 173.239 597.835 173.497C597.389 173.626 597.127 174.1 596.878 174.53C596.577 175.076 591.188 181.29 591.083 180.817C590.244 177.286 588.527 174.071 587.688 170.54C582.26 147.821 606.344 129.551 624.737 129.45C628.828 129.421 632.564 129.489 636.537 130.451C640.771 131.484 645.242 133.124 649.083 135.435C654.471 138.664 658.549 144.534 657.5 151.538" fill="#2E2445"/>
<path d="M637.704 158.301C635.111 161.268 634.424 165.441 634.183 169.384C633.827 175.33 634.31 181.507 637.031 186.785C637.806 188.288 638.378 195.724 639.573 195.313C639.955 195.184 639.891 189.418 640.896 186.31C642.447 181.494 649.592 179.658 652.809 182.702C657.946 187.543 654.932 193.425 653.229 197.085C652.211 199.294 650.597 201.772 650.317 204.11C649.974 207.102 649.872 218.005 651.805 220.548C653.419 222.68 655.136 212.38 656.598 210.351C670.207 201.256 677.793 156.747 659.319 148.4C656.509 147.128 647.838 146.473 645.206 148.091" fill="#2E2445"/>
<path d="M750.987 124.716L770.941 135.89L772.338 140.679L769.744 146.466C765.952 147.73 757.651 150.217 754.778 150.058C751.904 149.898 748.126 152.652 746.597 154.049C746.065 157.108 744.96 163.587 744.801 165.023C744.641 166.46 741.808 173.737 740.411 177.196H730.633L727.041 169.214L709.681 127.909L705.89 113.142L708.484 109.152L721.255 114.739L750.987 124.716Z" fill="#4F27AA"/>
<path fill-rule="evenodd" clip-rule="evenodd" d="M714.251 105.552C706.084 102.149 697.89 110.343 701.293 118.511L724.773 174.862C729.364 185.883 745.516 184.02 747.479 172.244L750.408 154.668L767.984 151.738C779.761 149.776 781.624 133.624 770.603 129.032L714.251 105.552ZM708.611 115.462C707.93 113.828 709.569 112.189 711.202 112.87L767.554 136.35C771.227 137.88 770.607 143.264 766.681 143.919L749.105 146.848C747.475 147.12 745.971 147.894 744.803 149.062C743.634 150.23 742.86 151.734 742.589 153.364L739.659 170.94C739.005 174.866 733.621 175.487 732.09 171.813L708.611 115.462Z" fill="#4F27AA"/>
<path fill-rule="evenodd" clip-rule="evenodd" d="M144.233 498.1H150.005C150.673 498.101 151.314 498.366 151.786 498.838C152.259 499.311 152.524 499.951 152.525 500.619V506.391C152.524 507.059 152.259 507.7 151.786 508.173C151.314 508.645 150.673 508.911 150.005 508.911H144.233C143.566 508.908 142.926 508.642 142.455 508.17C141.983 507.698 141.717 507.059 141.714 506.391V500.619C141.702 499.235 142.837 498.1 144.233 498.1ZM164.245 498.1H170.017C170.684 498.103 171.324 498.369 171.796 498.841C172.268 499.313 172.534 499.952 172.537 500.619V506.391C172.536 507.059 172.271 507.7 171.798 508.173C171.326 508.645 170.685 508.911 170.017 508.911H164.245C163.578 508.908 162.938 508.642 162.467 508.17C161.995 507.698 161.729 507.059 161.726 506.391V500.619C161.728 499.952 161.995 499.313 162.466 498.841C162.938 498.369 163.578 498.103 164.245 498.1ZM184.271 498.1H190.043C190.71 498.103 191.35 498.369 191.822 498.841C192.294 499.313 192.56 499.952 192.563 500.619V506.391C192.562 507.059 192.297 507.7 191.824 508.173C191.352 508.645 190.711 508.911 190.043 508.911H184.271C183.604 508.908 182.964 508.642 182.493 508.17C182.021 507.698 181.755 507.059 181.752 506.391V500.619C181.74 499.235 182.876 498.1 184.271 498.1ZM204.283 498.1H210.055C210.722 498.103 211.362 498.369 211.834 498.841C212.306 499.313 212.572 499.952 212.575 500.619V506.391C212.574 507.059 212.309 507.7 211.836 508.173C211.364 508.645 210.723 508.911 210.055 508.911H204.283C203.614 508.911 202.972 508.646 202.498 508.174C202.023 507.701 201.755 507.061 201.752 506.391V500.619C201.759 499.951 202.028 499.313 202.502 498.842C202.975 498.37 203.615 498.104 204.283 498.1ZM224.298 498.1H230.07C230.739 498.1 231.381 498.365 231.855 498.837C232.33 499.309 232.598 499.95 232.601 500.619V506.391C232.6 506.723 232.534 507.051 232.407 507.357C232.279 507.664 232.093 507.942 231.858 508.176C231.623 508.41 231.344 508.595 231.037 508.721C230.73 508.847 230.402 508.912 230.07 508.911H224.298C223.63 508.909 222.991 508.642 222.519 508.17C222.047 507.698 221.781 507.059 221.778 506.391V500.619C221.781 499.952 222.047 499.313 222.519 498.841C222.991 498.369 223.631 498.103 224.298 498.1ZM164.98 519.923H170.752C171.419 519.926 172.059 520.192 172.531 520.664C173.002 521.136 173.269 521.775 173.271 522.442V528.226C173.269 528.894 173.002 529.533 172.531 530.005C172.059 530.477 171.419 530.743 170.752 530.745H164.98C164.312 530.745 163.671 530.48 163.199 530.007C162.726 529.535 162.461 528.894 162.46 528.226V522.454C162.458 522.122 162.522 521.793 162.648 521.486C162.773 521.179 162.959 520.899 163.193 520.664C163.427 520.429 163.706 520.242 164.012 520.115C164.319 519.988 164.648 519.923 164.98 519.923ZM184.992 519.923H190.764C191.431 519.926 192.071 520.192 192.543 520.664C193.014 521.136 193.281 521.775 193.283 522.442V528.226C193.281 528.894 193.014 529.533 192.543 530.005C192.071 530.477 191.431 530.743 190.764 530.745H184.992C184.325 530.743 183.685 530.476 183.213 530.005C182.741 529.533 182.475 528.894 182.472 528.226V522.454C182.47 522.122 182.534 521.793 182.66 521.486C182.786 521.179 182.971 520.9 183.205 520.664C183.44 520.429 183.718 520.243 184.025 520.115C184.331 519.988 184.66 519.923 184.992 519.923ZM205.006 519.923H210.778C211.447 519.923 212.089 520.188 212.564 520.66C213.038 521.132 213.306 521.773 213.309 522.442V528.226C213.306 528.896 213.038 529.536 212.564 530.009C212.089 530.481 211.447 530.746 210.778 530.745H205.006C204.339 530.743 203.699 530.476 203.227 530.005C202.755 529.533 202.489 528.894 202.486 528.226V522.454C202.486 521.785 202.752 521.143 203.224 520.669C203.696 520.194 204.337 519.926 205.006 519.923ZM184.271 474.656H190.043C190.71 474.659 191.35 474.925 191.822 475.397C192.294 475.869 192.56 476.508 192.563 477.175V482.947C192.562 483.615 192.297 484.256 191.824 484.729C191.352 485.201 190.711 485.467 190.043 485.467H184.271C183.604 485.464 182.964 485.198 182.493 484.726C182.021 484.254 181.755 483.615 181.752 482.947V477.175C181.74 475.791 182.876 474.656 184.271 474.656ZM164.265 474.656H170.038C170.705 474.659 171.345 474.925 171.817 475.397C172.288 475.869 172.555 476.508 172.557 477.175V482.947C172.556 483.615 172.291 484.256 171.819 484.728C171.346 485.201 170.706 485.466 170.038 485.467H164.265C163.598 485.464 162.958 485.198 162.487 484.726C162.015 484.254 161.749 483.615 161.746 482.947V477.175C161.734 475.791 162.87 474.656 164.265 474.656ZM204.283 474.656H210.055C210.722 474.659 211.362 474.925 211.834 475.397C212.306 475.869 212.572 476.508 212.575 477.175V482.947C212.574 483.615 212.309 484.256 211.836 484.729C211.364 485.201 210.723 485.467 210.055 485.467H204.283C203.614 485.467 202.972 485.202 202.498 484.73C202.023 484.257 201.755 483.617 201.752 482.947V477.175C201.759 476.507 202.028 475.869 202.502 475.398C202.975 474.926 203.615 474.66 204.283 474.656Z" fill="#E1E4E5"/>
<path d="M111.296 162C105.497 162 100.796 157.299 100.796 151.5C100.796 145.701 105.497 141 111.296 141C117.095 141 121.796 145.701 121.796 151.5C121.796 157.299 117.095 162 111.296 162Z" fill="#4F27AA"/>
<path d="M794.134 267.793C788.883 267.793 784.626 263.536 784.626 258.285C784.626 253.034 788.883 248.777 794.134 248.777C799.385 248.777 803.642 253.034 803.642 258.285C803.642 263.536 799.385 267.793 794.134 267.793Z" fill="#4F27AA"/>
<path d="M361.52 465.829C354.768 465.829 349.295 460.356 349.295 453.604C349.295 446.852 354.768 441.379 361.52 441.379C368.272 441.379 373.745 446.852 373.745 453.604C373.745 460.356 368.272 465.829 361.52 465.829Z" fill="#E1E4E5"/>
<path d="M306.096 539C301.448 539 297.68 535.232 297.68 530.584C297.68 525.936 301.448 522.168 306.096 522.168C310.744 522.168 314.512 525.936 314.512 530.584C314.512 535.232 310.744 539 306.096 539Z" fill="#E1E4E5"/>
<path d="M223.599 91.2452C216.177 91.2452 210.16 85.2283 210.16 77.8062C210.16 70.384 216.177 64.3672 223.599 64.3672C231.021 64.3672 237.038 70.384 237.038 77.8062C237.038 85.2283 231.021 91.2452 223.599 91.2452Z" fill="#E1E4E5"/>
<path d="M565.087 111.077C556.835 111.077 550.146 104.388 550.146 96.1363C550.146 87.8846 556.835 81.1953 565.087 81.1953C573.339 81.1953 580.028 87.8846 580.028 96.1363C580.028 104.388 573.339 111.077 565.087 111.077Z" fill="#E1E4E5"/>
<path d="M109.392 413.944C111.31 421.102 107.063 428.459 99.9052 430.377C92.7476 432.295 85.3906 428.047 83.4728 420.89C81.5549 413.732 85.8025 406.375 92.96 404.457C100.118 402.539 107.475 406.787 109.392 413.944Z" fill="#E1E4E5"/>
<path d="M773.702 333.191C766.119 333.191 759.972 328.273 759.972 322.207C759.972 316.14 766.119 311.223 773.702 311.223C781.285 311.223 787.432 316.14 787.432 322.207C787.432 328.273 781.285 333.191 773.702 333.191Z" fill="#E1E4E5"/>
<path d="M676.09 86.8218C678.084 94.2658 673.667 101.917 666.223 103.912C658.779 105.907 651.127 101.489 649.133 94.0449C647.138 86.6009 651.556 78.9495 659 76.9548C666.444 74.9602 674.095 79.3778 676.09 86.8218Z" fill="#E1E4E5"/>
<path d="M801.92 365.081H802.172C803.669 386.117 819.441 386.441 819.441 386.441C819.441 386.441 802.049 386.778 802.049 411.086C802.049 386.778 784.657 386.441 784.657 386.441C784.657 386.441 800.423 386.117 801.92 365.081ZM514.686 137.301H515.005C516.892 164.577 536.779 164.997 536.779 164.997C536.779 164.997 514.85 165.433 514.85 196.95C514.85 165.433 492.92 164.997 492.92 164.997C492.92 164.997 512.799 164.577 514.686 137.301Z" fill="#E1E4E5"/>
</g>
<defs>
<clipPath id="clip0_1235_29493">
<rect width="900" height="600" fill="white"/>
</clipPath>
</defs>
</svg>
