<svg width="900" height="600" viewBox="0 0 900 600" fill="none" xmlns="http://www.w3.org/2000/svg">
<g clip-path="url(#clip0_1235_29598)">
<path d="M682.996 72H217C205.954 72 197 80.9543 197 92V417.442C197 428.488 205.954 437.442 217 437.442H682.996C694.042 437.442 702.996 428.488 702.996 417.442V92C702.996 80.9543 694.042 72 682.996 72Z" fill="white" stroke="#E1E4E5" stroke-width="24" stroke-linecap="round" stroke-linejoin="round"/>
<path d="M323.501 514.448H576.499M396.996 476H502.996" stroke="#E1E4E5" stroke-width="24" stroke-linecap="round" stroke-linejoin="round"/>
<path d="M82.5 159.832L106 143.332L210.5 139.332V185.332L240 196.332H266.5L271.5 312.332L266.5 360.332L250 366.332L215 370.832L106 366.332L90 347.332L80 216.832L82.5 159.832Z" fill="#4F27AA"/>
<path fill-rule="evenodd" clip-rule="evenodd" d="M118.667 127C92.893 127 72 147.893 72 173.667V337C72 362.773 92.893 383.667 118.667 383.667H235.333C261.107 383.667 282 362.773 282 337V192.997C282 180.62 277.083 168.75 268.332 159.998L249.002 140.668C240.25 131.917 228.38 127 216.003 127H118.667ZM251.833 176.497C254.322 178.987 256.216 182.008 257.372 185.333H235.333C228.89 185.333 223.667 180.11 223.667 173.667V151.628C226.993 152.784 230.014 154.678 232.503 157.168L251.833 176.497Z" fill="#4F27AA"/>
<path d="M139 270.125L161.636 293L222 232" stroke="white" stroke-width="24" stroke-linecap="round" stroke-linejoin="round"/>
<path fill-rule="evenodd" clip-rule="evenodd" d="M391.667 127C365.893 127 345 147.893 345 173.667V337C345 362.773 365.893 383.667 391.667 383.667H508.333C534.107 383.667 555 362.773 555 337V192.997C555 180.62 550.083 168.75 541.332 159.998L522.002 140.668C513.25 131.917 501.38 127 489.003 127H391.667ZM524.833 176.497C527.322 178.987 529.216 182.008 530.372 185.333H508.333C501.89 185.333 496.667 180.11 496.667 173.667V151.628C499.993 152.784 503.014 154.678 505.503 157.168L524.833 176.497Z" fill="#4F27AA"/>
<path d="M412 270.125L434.636 293L495 232" stroke="white" stroke-width="24" stroke-linecap="round" stroke-linejoin="round"/>
<path fill-rule="evenodd" clip-rule="evenodd" d="M664.667 127C638.893 127 618 147.893 618 173.667V337C618 362.773 638.893 383.667 664.667 383.667H781.333C807.107 383.667 828 362.773 828 337V192.997C828 180.62 823.083 168.75 814.332 159.998L795.002 140.668C786.25 131.917 774.38 127 762.003 127H664.667ZM797.833 176.497C800.322 178.987 802.216 182.008 803.372 185.333H781.333C774.89 185.333 769.667 180.11 769.667 173.667V151.628C772.993 152.784 776.014 154.678 778.503 157.168L797.833 176.497Z" fill="#4F27AA"/>
<path d="M685 270.125L707.636 293L768 232" stroke="white" stroke-width="24" stroke-linecap="round" stroke-linejoin="round"/>
</g>
<defs>
<clipPath id="clip0_1235_29598">
<rect width="900" height="600" fill="white"/>
</clipPath>
</defs>
</svg>
