<svg width="900" height="600" viewBox="0 0 900 600" fill="none" xmlns="http://www.w3.org/2000/svg">
<g clip-path="url(#clip0_1235_29708)">
<path d="M181.045 396.208C154.054 446.918 166.121 497.318 215.138 523.331C264.155 549.344 314.561 537.3 342.277 489.295C369.993 441.29 351.79 389.634 308.183 362.172C264.577 334.71 208.035 345.497 181.045 396.208Z" fill="#4F27AA" stroke="white" stroke-width="22.907" stroke-linecap="round" stroke-linejoin="round"/>
<path d="M321.491 370.846C295.457 362.727 287.811 381.354 287.262 396.399C286.714 411.443 332.412 431.429 323.914 459.091C317.174 481.028 267.735 457.181 257.568 474.791C247.4 492.402 274.692 505.115 254.738 539.677" stroke="white" stroke-width="11" stroke-linejoin="round"/>
<path d="M244.338 355.488C255.859 362.139 257.836 390.353 246.969 394.507C239.725 397.275 230.217 393.83 225.184 399.614C217.132 408.867 242.029 423.242 226.178 441.895C218.253 451.223 182.294 449.108 178.393 476.399" stroke="white" stroke-width="11"/>
<path d="M561.178 451.147C562.493 328.592 478.704 218.834 360.136 187.798M700.757 451.46C702.589 280.793 585.906 127.947 420.793 84.7266M325.338 301.223C394.475 319.351 443.34 383.359 442.601 454.83" stroke="#4F27AA" stroke-width="24" stroke-linecap="round" stroke-linejoin="round"/>
<path d="M417.642 162.14C422.202 159.507 427.376 158.121 432.642 158.121C437.908 158.121 443.081 159.507 447.642 162.14L473.082 176.828C477.643 179.461 481.43 183.249 484.063 187.809C486.696 192.37 488.082 197.543 488.082 202.809V232.184C488.082 237.45 486.696 242.624 484.063 247.184C481.43 251.745 477.643 255.532 473.082 258.165L447.642 272.852C443.081 275.485 437.908 276.872 432.642 276.872C427.376 276.872 422.202 275.485 417.642 272.852L392.202 258.165C387.641 255.532 383.854 251.745 381.221 247.184C378.588 242.624 377.202 237.45 377.202 232.184V202.809C377.202 197.543 378.588 192.37 381.221 187.809C383.854 183.249 387.641 179.461 392.202 176.828L417.642 162.14Z" fill="#4F27AA"/>
<path d="M452.442 205.535L429.075 228.716L415.055 214.807" stroke="white" stroke-width="11" stroke-linecap="round" stroke-linejoin="round"/>
<path d="M666.268 277.574C670.829 274.941 676.002 273.555 681.268 273.555C686.534 273.555 691.708 274.941 696.268 277.574L721.708 292.262C726.269 294.895 730.056 298.682 732.689 303.242C735.322 307.803 736.708 312.976 736.708 318.242V347.618C736.708 352.884 735.322 358.057 732.689 362.618C730.056 367.178 726.269 370.965 721.708 373.598L696.268 388.286C691.708 390.919 686.534 392.305 681.268 392.305C676.002 392.305 670.829 390.919 666.268 388.286L640.829 373.598C636.268 370.965 632.481 367.178 629.848 362.618C627.215 358.057 625.829 352.884 625.829 347.618V318.242C625.829 312.976 627.215 307.803 629.848 303.242C632.481 298.682 636.268 294.895 640.829 292.262L666.268 277.574Z" fill="#4F27AA"/>
<path d="M701.069 320.969L677.701 344.149L663.681 330.241" stroke="white" stroke-width="11" stroke-linecap="round" stroke-linejoin="round"/>
<path fill-rule="evenodd" clip-rule="evenodd" d="M319.697 193.91V146.993C319.699 138.918 314.616 131.71 306.99 128.973L277.674 118.459C267.57 114.836 256.52 114.836 246.416 118.459L217.062 128.992C209.442 131.727 204.361 138.925 204.355 146.993V193.91C204.355 218.288 238.592 236.327 254.336 243.355C256.754 244.443 259.375 245.005 262.026 245.005C264.677 245.005 267.298 244.443 269.716 243.355C285.46 236.327 319.697 218.25 319.697 193.91Z" fill="#4F27AA"/>
<path d="M244.806 188.739C247.669 191.586 251.309 193.523 255.269 194.308C259.229 195.093 263.333 194.69 267.065 193.15C274.698 190.001 279.674 182.581 279.674 174.352C279.674 166.122 274.698 158.703 267.065 155.554C263.333 154.013 259.229 153.61 255.269 154.394C251.309 155.179 247.668 157.117 244.806 159.964C236.829 167.91 236.829 180.793 244.806 188.739" stroke="white" stroke-width="6.405" stroke-linecap="round" stroke-linejoin="round"/>
<path d="M285.186 200.188L273.691 188.738L285.186 200.188Z" stroke="white" stroke-width="6.405" stroke-linecap="round" stroke-linejoin="round"/>
<path d="M417.463 121.291C390.491 121.291 368.626 99.4261 368.626 72.4542C368.626 45.4823 390.491 23.6172 417.463 23.6172C444.435 23.6172 466.3 45.4823 466.3 72.4542C466.3 99.4261 444.435 121.291 417.463 121.291Z" fill="#4F27AA"/>
<path fill-rule="evenodd" clip-rule="evenodd" d="M434.304 89.5416V91.9446C434.303 92.5821 434.05 93.1933 433.599 93.6439C433.148 94.0945 432.537 94.3476 431.899 94.3476H403.029C402.392 94.3476 401.78 94.0945 401.329 93.6439C400.878 93.1933 400.625 92.5821 400.624 91.9446V89.5016C400.624 82.2306 408.943 77.5056 417.464 77.5056C425.985 77.5056 434.304 82.2326 434.304 89.5016M423.418 56.3966C424.2 57.1786 424.82 58.107 425.243 59.1287C425.666 60.1504 425.884 61.2455 425.884 62.3513C425.884 63.4572 425.666 64.5522 425.243 65.5738C424.819 66.5955 424.199 67.5237 423.417 68.3056C422.635 69.0875 421.707 69.7077 420.685 70.1308C419.663 70.5539 418.568 70.7717 417.462 70.7716C416.356 70.7715 415.261 70.5536 414.24 70.1303C413.218 69.707 412.29 69.0866 411.508 68.3046C409.929 66.7253 409.042 64.5833 409.042 62.3499C409.042 60.1165 409.93 57.9747 411.509 56.3956C413.088 54.8165 415.23 53.9295 417.464 53.9297C419.697 53.9299 421.839 54.8173 423.418 56.3966Z" fill="white"/>
<path d="M410.803 404.326C383.831 404.326 361.966 382.461 361.966 355.489C361.966 328.517 383.831 306.652 410.803 306.652C437.775 306.652 459.64 328.517 459.64 355.489C459.64 382.461 437.775 404.326 410.803 404.326Z" fill="#4F27AA"/>
<path fill-rule="evenodd" clip-rule="evenodd" d="M427.644 372.577V374.98C427.643 375.617 427.389 376.229 426.938 376.679C426.487 377.13 425.875 377.383 425.238 377.383H396.369C395.731 377.383 395.12 377.13 394.669 376.679C394.218 376.229 393.964 375.617 393.963 374.98V372.538C393.963 365.267 402.282 360.542 410.803 360.542C419.325 360.542 427.644 365.269 427.644 372.538M416.757 339.432C417.539 340.214 418.159 341.142 418.582 342.164C419.005 343.186 419.223 344.281 419.223 345.386C419.223 346.492 419.005 347.587 418.582 348.609C418.158 349.631 417.538 350.559 416.756 351.341C415.974 352.123 415.045 352.743 414.024 353.166C413.002 353.589 411.907 353.807 410.801 353.807C409.695 353.807 408.6 353.589 407.579 353.165C406.557 352.742 405.629 352.122 404.847 351.34C403.268 349.76 402.381 347.618 402.381 345.385C402.381 343.152 403.269 341.01 404.848 339.431C406.427 337.852 408.569 336.965 410.803 336.965C413.036 336.965 415.178 337.852 416.757 339.432Z" fill="white"/>
<path d="M551.875 246.703H606.784V291.294H551.875V246.703Z" fill="#E1E4E5"/>
<path fill-rule="evenodd" clip-rule="evenodd" d="M602.116 250.143H556.911C556.162 250.143 555.443 250.441 554.914 250.971C554.384 251.5 554.086 252.219 554.086 252.968V286.872C554.086 287.621 554.384 288.34 554.914 288.87C555.443 289.4 556.162 289.697 556.911 289.697H602.116C602.487 289.697 602.855 289.624 603.197 289.482C603.54 289.341 603.852 289.132 604.114 288.87C604.377 288.608 604.585 288.296 604.727 287.954C604.869 287.611 604.942 287.243 604.942 286.872V252.968C604.942 252.597 604.869 252.23 604.727 251.887C604.585 251.544 604.377 251.233 604.114 250.97C603.852 250.708 603.54 250.5 603.197 250.358C602.855 250.216 602.487 250.143 602.116 250.143ZM556.911 244.492C555.798 244.492 554.696 244.711 553.668 245.137C552.639 245.563 551.705 246.188 550.918 246.975C550.131 247.762 549.507 248.696 549.081 249.725C548.655 250.753 548.436 251.855 548.436 252.968V286.872C548.436 289.12 549.329 291.276 550.918 292.865C552.508 294.454 554.663 295.347 556.911 295.347H602.116C603.229 295.347 604.331 295.128 605.36 294.702C606.388 294.276 607.322 293.652 608.109 292.865C608.897 292.078 609.521 291.144 609.947 290.116C610.373 289.087 610.592 287.985 610.592 286.872V252.968C610.592 250.72 609.699 248.564 608.109 246.975C606.52 245.385 604.364 244.492 602.116 244.492H556.911Z" fill="#E1E4E5"/>
<path fill-rule="evenodd" clip-rule="evenodd" d="M560.392 256.814C560.63 256.529 560.921 256.293 561.249 256.121C561.578 255.948 561.937 255.842 562.307 255.809C562.676 255.775 563.049 255.815 563.403 255.925C563.757 256.035 564.086 256.214 564.371 256.452L577.705 267.564C578.213 267.987 578.853 268.219 579.514 268.219C580.175 268.219 580.815 267.987 581.323 267.564L594.657 256.452C594.942 256.214 595.271 256.035 595.625 255.925C595.98 255.814 596.352 255.775 596.722 255.808C597.091 255.842 597.451 255.948 597.779 256.12C598.108 256.293 598.399 256.528 598.637 256.813C598.874 257.098 599.053 257.427 599.164 257.782C599.274 258.136 599.314 258.508 599.28 258.878C599.246 259.248 599.14 259.607 598.968 259.935C598.796 260.264 598.56 260.555 598.275 260.793L584.94 271.905C583.417 273.175 581.497 273.87 579.514 273.87C577.531 273.87 575.611 273.175 574.088 271.905L560.753 260.793C560.178 260.313 559.817 259.624 559.749 258.878C559.681 258.132 559.913 257.39 560.392 256.814Z" fill="white"/>
<path d="M612.865 411.336H649.144V440.798H612.865V411.336Z" fill="#E1E4E5"/>
<path fill-rule="evenodd" clip-rule="evenodd" d="M646.06 413.608H616.193C615.698 413.608 615.223 413.805 614.873 414.155C614.522 414.505 614.326 414.98 614.326 415.475V437.875C614.326 438.906 615.162 439.742 616.193 439.742H646.06C646.555 439.742 647.03 439.545 647.38 439.195C647.73 438.845 647.927 438.37 647.927 437.875V415.475C647.927 414.98 647.73 414.505 647.38 414.155C647.03 413.805 646.555 413.608 646.06 413.608ZM616.193 409.875C614.708 409.875 613.283 410.465 612.233 411.515C611.183 412.565 610.593 413.99 610.593 415.475V437.875C610.593 438.61 610.737 439.339 611.019 440.018C611.3 440.698 611.713 441.315 612.233 441.835C612.753 442.356 613.37 442.768 614.049 443.05C614.729 443.331 615.457 443.476 616.193 443.476H646.06C647.545 443.476 648.97 442.886 650.02 441.836C651.071 440.785 651.661 439.36 651.661 437.875V415.475C651.661 414.74 651.516 414.011 651.234 413.332C650.953 412.652 650.54 412.035 650.02 411.515C649.5 410.995 648.883 410.582 648.203 410.301C647.524 410.02 646.795 409.875 646.06 409.875H616.193Z" fill="#E1E4E5"/>
<path fill-rule="evenodd" clip-rule="evenodd" d="M618.492 418.015C618.809 417.635 619.264 417.396 619.757 417.352C620.25 417.307 620.741 417.46 621.121 417.776L629.931 425.117C630.267 425.397 630.689 425.55 631.126 425.55C631.563 425.55 631.986 425.397 632.321 425.117L641.131 417.776C641.319 417.614 641.537 417.49 641.773 417.413C642.009 417.336 642.258 417.306 642.505 417.326C642.752 417.347 642.993 417.416 643.214 417.53C643.434 417.644 643.629 417.801 643.788 417.992C643.947 418.183 644.066 418.403 644.139 418.641C644.212 418.878 644.236 419.127 644.211 419.374C644.187 419.621 644.113 419.861 643.994 420.079C643.876 420.297 643.715 420.489 643.521 420.644L634.711 427.985C633.705 428.824 632.436 429.284 631.126 429.284C629.816 429.284 628.547 428.824 627.541 427.985L618.731 420.644C618.351 420.327 618.112 419.872 618.067 419.379C618.022 418.886 618.175 418.396 618.492 418.015Z" fill="white"/>
<path d="M194.475 283.332H249.384V327.923H194.475V283.332Z" fill="#E1E4E5"/>
<path fill-rule="evenodd" clip-rule="evenodd" d="M244.716 286.772H199.511C198.762 286.772 198.043 287.07 197.513 287.6C196.984 288.129 196.686 288.848 196.686 289.597V323.5C196.686 323.871 196.759 324.239 196.901 324.581C197.043 324.924 197.251 325.236 197.513 325.498C197.775 325.761 198.087 325.969 198.43 326.111C198.772 326.253 199.14 326.326 199.511 326.326H244.716C245.087 326.326 245.454 326.253 245.797 326.111C246.14 325.969 246.451 325.761 246.714 325.498C246.976 325.236 247.184 324.924 247.326 324.581C247.468 324.239 247.541 323.871 247.541 323.5V289.597C247.541 288.848 247.243 288.129 246.713 287.6C246.184 287.07 245.465 286.772 244.716 286.772ZM199.511 281.121C197.263 281.121 195.107 282.014 193.517 283.604C191.928 285.193 191.035 287.349 191.035 289.597V323.5C191.035 325.748 191.928 327.904 193.517 329.494C195.107 331.083 197.263 331.976 199.511 331.976H244.716C246.964 331.976 249.12 331.083 250.709 329.494C252.299 327.904 253.192 325.748 253.192 323.5V289.597C253.192 287.349 252.299 285.193 250.709 283.604C249.12 282.014 246.964 281.121 244.716 281.121H199.511Z" fill="#E1E4E5"/>
<path fill-rule="evenodd" clip-rule="evenodd" d="M202.991 293.439C203.471 292.863 204.16 292.501 204.906 292.434C205.652 292.366 206.395 292.597 206.971 293.077L220.305 304.189C220.813 304.612 221.453 304.844 222.113 304.844C222.774 304.844 223.414 304.612 223.922 304.189L237.257 293.077C237.542 292.839 237.871 292.66 238.225 292.55C238.579 292.44 238.952 292.4 239.321 292.434C239.691 292.467 240.05 292.573 240.379 292.746C240.707 292.918 240.998 293.154 241.236 293.439C241.473 293.724 241.652 294.053 241.763 294.407C241.873 294.761 241.913 295.134 241.879 295.503C241.845 295.873 241.739 296.232 241.567 296.56C241.394 296.889 241.159 297.18 240.874 297.418L227.54 308.53C226.016 309.799 224.096 310.494 222.113 310.494C220.131 310.494 218.21 309.799 216.687 308.53L203.353 297.418C203.068 297.18 202.832 296.889 202.66 296.56C202.487 296.232 202.381 295.873 202.348 295.503C202.314 295.134 202.354 294.761 202.464 294.407C202.574 294.053 202.753 293.724 202.991 293.439Z" fill="white"/>
<path d="M561.181 92.3633L546.936 105.533L518.447 111.446L516.834 132.409L510.653 139.935L502.858 158.211C507.696 161.526 517.587 168.316 518.447 168.961C519.307 169.606 515.58 175.322 513.609 178.099V189.925C517.641 192.344 526.026 197.236 527.316 197.451C528.929 197.719 537.798 196.376 538.873 195.3C539.948 194.225 552.311 206.857 554.73 208.47C557.149 210.083 565.212 212.501 566.556 212.233C567.631 212.018 572.737 206.589 575.156 203.901L587.52 199.063L608.214 195.3L610.365 173.53L620.04 156.867L621.115 147.191L606.064 127.84L602.839 107.414L575.156 102.845L561.181 92.3633Z" fill="#4F27AA"/>
<path fill-rule="evenodd" clip-rule="evenodd" d="M573.306 108.552L568.077 101.656C565.424 98.1574 560.165 98.1574 557.512 101.656L552.283 108.552C550.79 110.521 548.799 112.057 546.517 113.002C544.234 113.948 541.741 114.269 539.293 113.932L530.72 112.753C526.37 112.155 522.651 115.874 523.249 120.224L524.428 128.797C524.764 131.245 524.443 133.739 523.498 136.022C522.552 138.305 521.016 140.295 519.047 141.787L512.152 147.016C508.653 149.669 508.653 154.928 512.152 157.581L519.047 162.81C521.016 164.303 522.552 166.293 523.498 168.576C524.443 170.859 524.764 173.353 524.428 175.8L523.249 184.373C522.651 188.723 526.37 192.442 530.72 191.844L539.293 190.665C541.741 190.329 544.234 190.65 546.517 191.596C548.8 192.541 550.79 194.078 552.283 196.046L557.512 202.941C560.165 206.44 565.424 206.44 568.077 202.941L573.306 196.046C574.799 194.078 576.789 192.541 579.072 191.596C581.354 190.65 583.848 190.329 586.296 190.665L594.869 191.844C599.219 192.442 602.938 188.723 602.34 184.373L601.161 175.8C600.824 173.353 601.145 170.859 602.091 168.576C603.037 166.293 604.573 164.303 606.542 162.81L613.437 157.581C616.936 154.928 616.936 149.669 613.437 147.016L606.542 141.787C604.573 140.295 603.037 138.305 602.091 136.022C601.145 133.739 600.824 131.245 601.161 128.797L602.34 120.224C602.938 115.874 599.219 112.155 594.869 112.753L586.296 113.932C583.848 114.269 581.355 113.948 579.072 113.002C576.789 112.057 574.799 110.521 573.306 108.552ZM578.642 93.6454C570.684 83.1494 554.905 83.1494 546.947 93.6454L541.718 100.54C541.647 100.634 541.552 100.707 541.443 100.753C541.334 100.798 541.215 100.813 541.099 100.797L532.526 99.6174C519.477 97.8244 508.319 108.981 510.114 122.03L511.292 130.603C511.308 130.72 511.293 130.839 511.248 130.948C511.203 131.057 511.13 131.151 511.036 131.222L504.14 136.451C493.645 144.409 493.645 160.188 504.14 168.147L511.036 173.375C511.13 173.447 511.203 173.541 511.248 173.65C511.293 173.759 511.308 173.878 511.292 173.994L510.114 182.567C508.319 195.616 519.477 206.774 532.526 204.979L541.099 203.801C541.215 203.785 541.334 203.8 541.443 203.845C541.552 203.89 541.647 203.964 541.718 204.057L546.947 210.953C554.905 221.448 570.684 221.448 578.642 210.953L583.871 204.057C583.942 203.964 584.037 203.89 584.146 203.845C584.254 203.8 584.373 203.785 584.49 203.801L593.063 204.979C606.112 206.774 617.269 195.616 615.475 182.567L614.296 173.994C614.28 173.878 614.295 173.759 614.341 173.65C614.386 173.541 614.459 173.447 614.553 173.375L621.448 168.147C631.944 160.188 631.944 144.409 621.448 136.451L614.553 131.222C614.459 131.151 614.386 131.056 614.341 130.948C614.295 130.839 614.28 130.72 614.296 130.603L615.475 122.03C617.269 108.981 606.112 97.8244 593.063 99.6184L584.49 100.797C584.373 100.813 584.254 100.798 584.146 100.753C584.037 100.707 583.942 100.634 583.871 100.54L578.642 93.6454Z" fill="#4F27AA"/>
<path d="M585.591 141.411L551.905 175.097C550.319 176.642 548.187 177.501 545.973 177.486C543.758 177.472 541.638 176.586 540.072 175.02C538.506 173.453 537.62 171.334 537.606 169.119C537.592 166.904 538.45 164.773 539.996 163.187L573.681 129.502C574.463 128.72 575.391 128.1 576.413 127.676C577.434 127.253 578.53 127.035 579.635 127.035C580.741 127.035 581.836 127.253 582.858 127.676C583.88 128.099 584.808 128.719 585.59 129.501C586.372 130.283 586.993 131.212 587.416 132.233C587.839 133.255 588.057 134.35 588.057 135.456C588.057 136.562 587.839 137.657 587.416 138.679C586.993 139.701 586.373 140.629 585.591 141.411ZM554.372 135.456C554.384 136.57 554.175 137.675 553.757 138.707C553.34 139.739 552.721 140.679 551.938 141.47C551.155 142.262 550.222 142.891 549.194 143.32C548.167 143.749 547.064 143.97 545.95 143.97C544.837 143.97 543.734 143.749 542.706 143.32C541.678 142.891 540.746 142.262 539.963 141.47C539.18 140.679 538.561 139.739 538.143 138.707C537.726 137.675 537.517 136.57 537.529 135.456C537.553 133.238 538.451 131.12 540.028 129.56C541.604 128 543.733 127.126 545.95 127.126C548.168 127.126 550.296 128 551.873 129.56C553.45 131.12 554.348 133.238 554.372 135.456ZM571.215 169.142C571.215 170.248 571.432 171.343 571.856 172.365C572.279 173.386 572.899 174.315 573.681 175.097C574.463 175.879 575.391 176.499 576.413 176.922C577.435 177.345 578.53 177.563 579.636 177.563C581.302 177.563 582.93 177.069 584.315 176.144C585.7 175.219 586.78 173.903 587.418 172.364C588.055 170.825 588.222 169.132 587.897 167.498C587.572 165.864 586.77 164.364 585.592 163.186C584.414 162.008 582.913 161.206 581.28 160.881C579.646 160.556 577.952 160.723 576.413 161.36C574.874 161.998 573.559 163.077 572.634 164.463C571.708 165.848 571.215 167.476 571.215 169.142Z" fill="white"/>
<path fill-rule="evenodd" clip-rule="evenodd" d="M548.779 321.3L509.747 343.835C501.16 348.792 498.191 359.874 503.149 368.461L525.684 407.493C530.641 416.08 541.723 419.049 550.31 414.092L589.342 391.557C597.929 386.599 600.898 375.517 595.941 366.93L573.406 327.898C568.448 319.311 557.366 316.342 548.779 321.3Z" fill="#4F27AA"/>
<path d="M540.24 361.188L554.894 364.611L550.532 379.014" stroke="white" stroke-width="11" stroke-linecap="round" stroke-linejoin="round"/>
<path d="M688.702 166.559C670.745 175.466 646.912 164.013 646.912 164.013C646.912 164.013 652.209 138.122 670.175 129.227C688.132 120.319 711.956 131.76 711.956 131.76C711.956 131.76 706.659 157.651 688.702 166.559Z" fill="url(#paint0_linear_1235_29708)"/>
<path d="M142.688 366.547C157.667 375.525 179.157 367.226 179.157 367.226C179.157 367.226 176.347 344.375 161.359 335.407C146.38 326.43 124.899 334.719 124.899 334.719C124.899 334.719 127.709 357.57 142.688 366.547Z" fill="url(#paint1_linear_1235_29708)"/>
<path d="M686.623 210.085C681.413 210.085 677.189 214.309 677.189 219.519C677.189 224.729 681.413 228.953 686.623 228.953C691.833 228.953 696.057 224.729 696.057 219.519C696.057 214.309 691.833 210.085 686.623 210.085Z" fill="#4F27AA"/>
<path d="M268.787 63.691C263.627 63.691 259.445 67.8736 259.445 73.033C259.445 78.1924 263.627 82.375 268.787 82.375C273.946 82.375 278.129 78.1924 278.129 73.033C278.129 67.8736 273.946 63.691 268.787 63.691Z" fill="#4F27AA"/>
<path d="M495.158 418.754C488.415 418.754 482.949 424.22 482.949 430.963C482.949 437.706 488.415 443.172 495.158 443.172C501.901 443.172 507.367 437.706 507.367 430.963C507.367 424.22 501.901 418.754 495.158 418.754Z" fill="#4F27AA"/>
<path d="M773.456 305.434C768.184 305.434 763.911 301.16 763.911 295.889C763.911 290.617 768.184 286.344 773.456 286.344C778.728 286.344 783.001 290.617 783.001 295.889C783.001 301.16 778.728 305.434 773.456 305.434Z" fill="#4F27AA"/>
<path d="M508.54 501.017C501.762 501.017 496.268 495.522 496.268 488.745C496.268 481.967 501.762 476.473 508.54 476.473C515.318 476.473 520.812 481.967 520.812 488.745C520.812 495.522 515.318 501.017 508.54 501.017Z" fill="#E1E4E5"/>
<path d="M337.954 264.177C330.986 264.177 325.338 258.529 325.338 251.561C325.338 244.594 330.986 238.945 337.954 238.945C344.922 238.945 350.57 244.594 350.57 251.561C350.57 258.529 344.922 264.177 337.954 264.177Z" fill="#E1E4E5"/>
<path d="M644.981 483.092C641.314 483.092 638.341 480.12 638.341 476.452C638.341 472.785 641.314 469.812 644.981 469.812C648.648 469.812 651.621 472.785 651.621 476.452C651.621 480.12 648.648 483.092 644.981 483.092Z" fill="#E1E4E5"/>
<path d="M508.843 67.6339C504.964 67.6339 501.819 64.4892 501.819 60.6099C501.819 56.7307 504.964 53.5859 508.843 53.5859C512.722 53.5859 515.867 56.7307 515.867 60.6099C515.867 64.4892 512.722 67.6339 508.843 67.6339Z" fill="#E1E4E5"/>
<path d="M372.603 132.081C374.528 139.266 370.264 146.652 363.079 148.577C355.894 150.502 348.508 146.238 346.583 139.053C344.657 131.868 348.921 124.482 356.107 122.557C363.292 120.632 370.678 124.896 372.603 132.081Z" fill="#E1E4E5"/>
<path d="M377.664 517.856C367.768 517.856 359.746 509.833 359.746 499.938C359.746 490.042 367.768 482.02 377.664 482.02C387.56 482.02 395.582 490.042 395.582 499.938C395.582 509.833 387.56 517.856 377.664 517.856Z" fill="#E1E4E5"/>
<path d="M746.465 413.333C738.853 413.333 732.682 408.397 732.682 402.307C732.682 396.218 738.853 391.281 746.465 391.281C754.077 391.281 760.248 396.218 760.248 402.307C760.248 408.397 754.077 413.333 746.465 413.333Z" fill="#E1E4E5"/>
<path d="M172.283 208.565C174.029 215.08 170.163 221.777 163.647 223.523C157.132 225.268 150.435 221.402 148.69 214.887C146.944 208.371 150.81 201.675 157.325 199.929C163.841 198.183 170.537 202.05 172.283 208.565Z" fill="#E1E4E5"/>
<path d="M331.915 66.9023H332.076C333.031 80.6063 343.097 80.8163 343.097 80.8163C343.097 80.8163 331.997 81.0363 331.997 96.8703C331.997 81.0363 320.898 80.8163 320.898 80.8163C320.898 80.8163 330.959 80.6063 331.915 66.9023ZM139.533 422.082H139.721C140.838 438.507 152.6 438.76 152.6 438.76C152.6 438.76 139.629 439.023 139.629 458.001C139.629 439.023 126.659 438.76 126.659 438.76C126.659 438.76 138.417 438.507 139.533 422.082Z" fill="#E1E4E5"/>
</g>
<defs>
<linearGradient id="paint0_linear_1235_29708" x1="619.746" y1="194.344" x2="767.855" y2="77.1885" gradientUnits="userSpaceOnUse">
<stop stop-color="white"/>
<stop offset="1" stop-color="#EEEEEE"/>
</linearGradient>
<linearGradient id="paint1_linear_1235_29708" x1="200.652" y1="395.445" x2="80.1269" y2="283.461" gradientUnits="userSpaceOnUse">
<stop stop-color="white"/>
<stop offset="1" stop-color="#EEEEEE"/>
</linearGradient>
<clipPath id="clip0_1235_29708">
<rect width="900" height="600" fill="white"/>
</clipPath>
</defs>
</svg>
