<svg width="900" height="600" viewBox="0 0 900 600" fill="none" xmlns="http://www.w3.org/2000/svg">
<g clip-path="url(#clip0_1235_29773)">
<path d="M412.018 447.259H500.898C574.964 447.259 604.591 417.632 604.591 343.565V254.685C604.591 180.619 574.964 150.992 500.898 150.992H412.018C337.951 150.992 308.324 180.619 308.324 254.685V343.565C308.324 417.632 337.951 447.259 412.018 447.259Z" fill="#4F27AA"/>
<path d="M472.88 331.967C472.88 346.473 466.585 359.611 456.458 368.643C447.699 376.58 436.204 381.233 423.613 381.233C396.38 381.233 374.348 359.2 374.348 331.967C374.348 309.25 389.812 290.091 410.613 284.48C416.224 298.713 428.403 309.798 443.457 313.903C447.562 314.998 451.942 315.682 456.458 315.682C460.974 315.682 465.353 315.135 469.459 313.903C471.648 319.377 472.88 325.535 472.88 331.967V331.967Z" stroke="white" stroke-width="16.054" stroke-linecap="round" stroke-linejoin="round"/>
<path d="M505.722 266.282C505.722 272.714 504.49 278.872 502.301 284.483C496.69 298.716 484.511 309.8 469.457 313.906C465.352 315.001 460.972 315.685 456.456 315.685C451.94 315.685 447.561 315.138 443.455 313.906C428.402 309.8 416.223 298.852 410.612 284.483C408.349 278.681 407.188 272.509 407.19 266.282C407.19 239.049 429.223 217.016 456.456 217.016C483.689 217.016 505.722 239.049 505.722 266.282V266.282Z" stroke="white" stroke-width="16.054" stroke-linecap="round" stroke-linejoin="round"/>
<path d="M538.568 331.968C538.568 359.201 516.535 381.234 489.302 381.234C476.712 381.234 465.216 376.444 456.458 368.644C466.584 359.749 472.88 346.611 472.88 331.968C472.88 325.536 471.648 319.378 469.458 313.767C484.512 309.661 496.691 298.713 502.302 284.344C523.103 290.092 538.568 309.251 538.568 331.968V331.968Z" stroke="white" stroke-width="16.054" stroke-linecap="round" stroke-linejoin="round"/>
<path d="M688.902 299.508C688.902 171.514 585.142 67.7539 457.148 67.7539C329.153 67.7539 225.393 171.514 225.393 299.508C225.393 427.503 329.153 531.263 457.148 531.263C585.142 531.263 688.902 427.503 688.902 299.508Z" stroke="#E1E4E5" stroke-width="11.747" stroke-linecap="round" stroke-linejoin="bevel" stroke-dasharray="11.32 28.31"/>
<path d="M221.721 333.063C240.544 333.063 255.803 318.039 255.803 299.506C255.803 280.973 240.544 265.949 221.721 265.949C202.898 265.949 187.639 280.973 187.639 299.506C187.639 318.039 202.898 333.063 221.721 333.063Z" fill="white" stroke="#E1E4E5" stroke-width="11.747"/>
<path d="M423.589 64.082C423.589 82.905 438.613 98.164 457.146 98.164C475.679 98.164 490.703 82.905 490.703 64.082C490.703 45.259 475.679 30 457.146 30C438.613 30 423.589 45.259 423.589 64.082Z" fill="white" stroke="#E1E4E5" stroke-width="11.747"/>
<path d="M692.572 333.063C711.395 333.063 726.654 318.039 726.654 299.506C726.654 280.973 711.395 265.949 692.572 265.949C673.749 265.949 658.49 280.973 658.49 299.506C658.49 318.039 673.749 333.063 692.572 333.063Z" fill="white" stroke="#E1E4E5" stroke-width="11.747"/>
<path d="M423.589 534.934C423.589 553.757 438.613 569.016 457.146 569.016C475.679 569.016 490.703 553.757 490.703 534.934C490.703 516.111 475.679 500.852 457.146 500.852C438.613 500.852 423.589 516.111 423.589 534.934Z" fill="white" stroke="#E1E4E5" stroke-width="11.747"/>
<path d="M185.263 430.552C198.655 438.579 217.869 431.159 217.869 431.159C217.869 431.159 215.357 410.728 201.956 402.711C188.564 394.684 169.358 402.095 169.358 402.095C169.358 402.095 171.871 422.525 185.263 430.552Z" fill="url(#paint0_linear_1235_29773)"/>
<path d="M238.141 479.273C228.38 479.273 220.467 487.186 220.467 496.947C220.467 506.708 228.38 514.621 238.141 514.621C247.902 514.621 255.815 506.708 255.815 496.947C255.815 487.186 247.902 479.273 238.141 479.273Z" fill="#4F27AA"/>
<path d="M285.476 97.6999C281.296 97.6999 277.908 101.088 277.908 105.268C277.908 109.448 281.296 112.836 285.476 112.836C289.656 112.836 293.044 109.448 293.044 105.268C293.044 101.088 289.656 97.6999 285.476 97.6999Z" fill="#4F27AA"/>
<path d="M514.853 119.428C510.321 119.428 506.647 123.102 506.647 127.634C506.647 132.166 510.321 135.84 514.853 135.84C519.385 135.84 523.059 132.166 523.059 127.634C523.059 123.102 519.385 119.428 514.853 119.428Z" fill="#4F27AA"/>
<path d="M680.548 447.554C676.278 447.554 672.816 444.092 672.816 439.822C672.816 435.552 676.278 432.09 680.548 432.09C684.819 432.09 688.28 435.552 688.28 439.822C688.28 444.092 684.819 447.554 680.548 447.554Z" fill="#4F27AA"/>
<path d="M594.544 548.392C589.053 548.392 584.602 543.941 584.602 538.45C584.602 532.959 589.053 528.508 594.544 528.508C600.035 528.508 604.486 532.959 604.486 538.45C604.486 543.941 600.035 548.392 594.544 548.392Z" fill="#E1E4E5"/>
<path d="M318.9 547.922C313.255 547.922 308.679 543.346 308.679 537.701C308.679 532.057 313.255 527.48 318.9 527.48C324.545 527.48 329.121 532.057 329.121 537.701C329.121 543.346 324.545 547.922 318.9 547.922Z" fill="#E1E4E5"/>
<path d="M684.35 515.672C681.379 515.672 678.971 513.264 678.971 510.293C678.971 507.322 681.379 504.914 684.35 504.914C687.321 504.914 689.729 507.322 689.729 510.293C689.729 513.264 687.321 515.672 684.35 515.672Z" fill="#E1E4E5"/>
<path d="M700.353 193.802C693.642 193.802 688.202 188.362 688.202 181.651C688.202 174.94 693.642 169.5 700.353 169.5C707.064 169.5 712.504 174.94 712.504 181.651C712.504 188.362 707.064 193.802 700.353 193.802Z" fill="#E1E4E5"/>
<path d="M204.365 200.551C205.925 206.372 202.471 212.355 196.65 213.915C190.829 215.474 184.847 212.02 183.287 206.199C181.727 200.379 185.181 194.396 191.002 192.836C196.823 191.277 202.806 194.731 204.365 200.551Z" fill="#E1E4E5"/>
<path d="M397.864 137.038C392.541 137.038 388.226 132.723 388.226 127.4C388.226 122.077 392.541 117.762 397.864 117.762C403.187 117.762 407.502 122.077 407.502 127.4C407.502 132.723 403.187 137.038 397.864 137.038Z" fill="#E1E4E5"/>
<path d="M727.063 394.565C720.896 394.565 715.897 390.566 715.897 385.632C715.897 380.699 720.896 376.699 727.063 376.699C733.23 376.699 738.229 380.699 738.229 385.632C738.229 390.566 733.23 394.565 727.063 394.565Z" fill="#E1E4E5"/>
<path d="M613.457 82.6385C614.871 87.9166 611.739 93.3418 606.461 94.7561C601.183 96.1704 595.758 93.0381 594.343 87.76C592.929 82.4819 596.061 77.0566 601.34 75.6424C606.618 74.2281 612.043 77.3604 613.457 82.6385Z" fill="#E1E4E5"/>
<path d="M282.617 202.324H282.776C283.718 215.669 293.643 215.875 293.643 215.875C293.643 215.875 282.698 216.088 282.698 231.509C282.698 216.088 271.754 215.875 271.754 215.875C271.754 215.875 281.675 215.669 282.617 202.324Z" fill="#E1E4E5"/>
</g>
<defs>
<linearGradient id="paint0_linear_1235_29773" x1="237.088" y1="456.389" x2="129.328" y2="356.266" gradientUnits="userSpaceOnUse">
<stop stop-color="white"/>
<stop offset="1" stop-color="#EEEEEE"/>
</linearGradient>
<clipPath id="clip0_1235_29773">
<rect width="900" height="600" fill="white"/>
</clipPath>
</defs>
</svg>
