<svg width="900" height="600" viewBox="0 0 900 600" fill="none" xmlns="http://www.w3.org/2000/svg">
<g clip-path="url(#clip0_1235_18945)">
<path fill-rule="evenodd" clip-rule="evenodd" d="M245.546 131.678C199.634 131.678 162.076 169.187 162.076 215.039C162.076 260.891 199.634 298.4 245.546 298.4C254.756 298.4 262.3 305.934 262.3 315.132C262.3 324.33 254.756 331.864 245.546 331.864H201.869C179.472 331.864 161.145 350.167 161.145 372.535C161.145 394.903 179.472 413.206 201.869 413.206C221.24 413.206 237.09 429.036 237.09 448.381C237.09 483.677 266.006 512.555 301.348 512.555H678.558C724.47 512.555 762.028 475.046 762.028 429.194C762.028 383.342 724.47 345.833 678.558 345.833H670.484C661.274 345.833 653.731 338.309 653.731 329.101C653.731 319.903 661.265 312.37 670.484 312.37H724.833C747.23 312.37 765.558 294.066 765.558 271.698C765.558 249.358 747.277 231.073 724.917 231.027H681.185C661.814 231.027 645.964 215.197 645.964 195.852C645.964 160.556 617.048 131.678 581.706 131.678H245.546V131.678Z" fill="url(#paint0_linear_1235_18945)"/>
<path fill-rule="evenodd" clip-rule="evenodd" d="M560.867 265.841C615.061 320.034 615.061 407.899 560.867 462.093C506.674 516.286 418.809 516.286 364.615 462.093C310.422 407.899 310.422 320.034 364.615 265.841C418.809 211.647 506.674 211.647 560.867 265.841Z" fill="#4F27AA"/>
<path d="M560.867 265.841C615.061 320.034 615.061 407.899 560.867 462.093C506.674 516.286 418.809 516.286 364.615 462.093C310.422 407.899 310.422 320.034 364.615 265.841C418.809 211.647 506.674 211.647 560.867 265.841Z" stroke="#4F27AA" stroke-width="32.024" stroke-linecap="round" stroke-linejoin="round"/>
<path d="M462.741 406.664V352.223M462.678 319.793C453.839 319.793 446.666 326.966 446.73 335.805C446.73 344.644 453.903 351.817 462.742 351.817C471.58 351.817 478.754 344.644 478.754 335.805C478.754 326.966 471.58 319.793 462.678 319.793Z" stroke="white" stroke-width="32.024" stroke-linecap="round" stroke-linejoin="round"/>
<path d="M383.088 179.25C392.033 144.301 423.737 118.447 461.483 118.447C506.167 118.447 542.376 154.656 542.376 199.34V250.365" stroke="#4F27AA" stroke-width="32.024" stroke-linecap="round" stroke-linejoin="round"/>
<path fill-rule="evenodd" clip-rule="evenodd" d="M721.374 238.195C721.374 262.778 702.897 285.764 678.065 291.346C653.233 285.764 634.756 262.778 634.756 238.195V218.885C634.756 214.489 637.414 210.526 641.485 208.864L668.553 197.788C674.649 195.292 681.481 195.292 687.577 197.788L714.645 208.864C716.635 209.678 718.337 211.065 719.535 212.85C720.734 214.635 721.374 216.735 721.374 218.885V238.195V238.195Z" fill="#4F27AA"/>
<path d="M695.659 232.473L675.358 252.774L663.178 240.594" stroke="white" stroke-width="9.994" stroke-linecap="round" stroke-linejoin="round"/>
<path fill-rule="evenodd" clip-rule="evenodd" d="M276.087 302.332C276.087 339.38 248.242 374.021 210.818 382.432C173.395 374.021 145.55 339.38 145.55 302.332V273.23C145.55 269.99 146.514 266.824 148.32 264.134C150.126 261.445 152.692 259.354 155.691 258.129L196.484 241.437C205.67 237.675 215.967 237.675 225.153 241.437L265.946 258.129C268.944 259.355 271.51 261.446 273.316 264.135C275.121 266.825 276.086 269.99 276.087 273.23V302.332Z" fill="#4F27AA"/>
<path d="M237.334 293.707L206.739 324.301L188.383 305.945" stroke="white" stroke-width="15.062" stroke-linecap="round" stroke-linejoin="round"/>
<path fill-rule="evenodd" clip-rule="evenodd" d="M330.985 154.075C330.985 177.273 313.549 198.964 290.116 204.231C266.683 198.964 249.247 177.273 249.247 154.075V135.852C249.247 131.704 251.756 127.965 255.597 126.396L281.14 115.944C286.892 113.589 293.34 113.589 299.092 115.944L324.635 126.396C326.512 127.164 328.119 128.473 329.25 130.157C330.38 131.841 330.984 133.824 330.985 135.852V154.075V154.075Z" fill="#4F27AA"/>
<path d="M306.72 148.676L287.562 167.833L276.068 156.338" stroke="white" stroke-width="9.431" stroke-linecap="round" stroke-linejoin="round"/>
<path d="M749.733 341.039L716.912 373.861C715.716 375.056 715.716 376.994 716.911 378.19C718.106 379.385 720.044 379.385 721.24 378.189L754.061 345.367C755.257 344.172 755.257 342.234 754.062 341.039C752.867 339.844 750.929 339.844 749.733 341.039Z" fill="#E1E4E5"/>
<path d="M746.521 364.538L737.055 374.003C735.86 375.199 735.86 377.137 737.055 378.332C738.25 379.527 740.188 379.527 741.384 378.332L750.849 368.866C752.044 367.671 752.045 365.733 750.849 364.538C749.654 363.343 747.716 363.343 746.521 364.538Z" fill="#E1E4E5"/>
<path d="M193.522 206.096L226.344 173.274C227.539 172.078 227.539 170.14 226.344 168.945C225.149 167.75 223.211 167.75 222.015 168.946L189.194 201.767C187.998 202.963 187.998 204.901 189.193 206.096C190.388 207.291 192.326 207.291 193.522 206.096Z" fill="#E1E4E5"/>
<path d="M196.734 182.595L206.2 173.129C207.395 171.934 207.395 169.996 206.2 168.801C205.005 167.606 203.067 167.606 201.871 168.801L192.406 178.266C191.211 179.462 191.21 181.4 192.406 182.595C193.601 183.79 195.539 183.79 196.734 182.595Z" fill="#E1E4E5"/>
<path d="M270.38 518.406L303.202 485.584C304.397 484.389 304.397 482.451 303.202 481.256C302.007 480.061 300.069 480.061 298.873 481.256L266.052 514.078C264.856 515.273 264.856 517.211 266.051 518.407C267.246 519.602 269.184 519.602 270.38 518.406Z" fill="#E1E4E5"/>
<path d="M273.592 494.907L283.058 485.442C284.253 484.246 284.253 482.308 283.058 481.113C281.863 479.918 279.925 479.918 278.729 481.114L269.264 490.579C268.069 491.774 268.068 493.712 269.264 494.908C270.459 496.103 272.397 496.103 273.592 494.907Z" fill="#E1E4E5"/>
<path d="M610.75 145.098L643.572 112.276C644.767 111.08 644.767 109.142 643.572 107.947C642.377 106.752 640.439 106.752 639.243 107.948L606.422 140.769C605.226 141.965 605.226 143.903 606.421 145.098C607.616 146.293 609.554 146.293 610.75 145.098Z" fill="#E1E4E5"/>
<path d="M613.962 121.597L623.428 112.131C624.623 110.936 624.623 108.998 623.428 107.803C622.233 106.608 620.295 106.608 619.099 107.803L609.634 117.268C608.439 118.464 608.439 120.402 609.634 121.597C610.829 122.792 612.767 122.792 613.962 121.597Z" fill="#E1E4E5"/>
<path d="M720.376 434.547C715.003 431.445 708.133 433.285 705.031 438.658C701.929 444.031 703.77 450.901 709.143 454.003C714.515 457.105 721.385 455.264 724.487 449.891C727.589 444.518 725.748 437.648 720.376 434.547Z" fill="#4F27AA"/>
<path d="M792.478 295.415C796.632 297.813 798.056 303.125 795.657 307.279C793.259 311.433 787.947 312.856 783.793 310.458C779.639 308.059 778.216 302.748 780.614 298.594C783.013 294.44 788.324 293.017 792.478 295.415Z" fill="#E1E4E5"/>
<path d="M679.132 386.049C674.637 383.453 668.889 384.993 666.294 389.488C663.699 393.983 665.239 399.731 669.734 402.326C674.229 404.922 679.977 403.381 682.572 398.887C685.167 394.392 683.627 388.644 679.132 386.049Z" fill="white"/>
<path d="M187.029 438.079C187.029 445.158 181.292 450.889 174.205 450.889C167.118 450.889 161.41 445.13 161.41 438.079C161.41 431 167.147 425.27 174.233 425.27C181.32 425.27 187.029 431 187.029 438.079ZM567.658 91.6088C567.658 98.6878 561.921 104.419 554.835 104.419C547.748 104.419 542.039 98.6588 542.039 91.6088C542.039 84.5288 547.776 78.7988 554.863 78.7988C561.95 78.7988 567.658 84.5288 567.658 91.6088V91.6088Z" stroke="#E1E4E5" stroke-width="6.1" stroke-miterlimit="10"/>
<path d="M611.577 491.681C611.577 491.681 649.338 472.152 664.179 443.306C665.084 441.548 664.492 439.331 662.761 438.363C661.633 437.735 659.946 437.559 657.434 438.607C650.733 441.408 630.306 473.931 611.577 491.681V491.681ZM249.247 404.618C249.247 404.618 260.503 385.798 275.827 379.075C276.761 378.665 277.884 379.04 278.327 379.962C278.614 380.563 278.651 381.437 278.032 382.697C276.376 386.058 258.982 395.54 249.247 404.618V404.618ZM309.026 247.243C309.026 247.243 320.282 228.423 335.606 221.7C336.539 221.29 337.662 221.665 338.105 222.587C338.393 223.188 338.43 224.062 337.81 225.322C336.155 228.683 318.76 238.165 309.026 247.243Z" fill="#E1E4E5"/>
<path d="M722.257 159.466C701.828 177.167 666.842 170.275 666.842 170.275C666.842 170.275 665 134.686 685.446 116.997C705.875 99.2973 740.845 106.174 740.845 106.174C740.845 106.174 742.686 141.764 722.257 159.466V159.466Z" fill="url(#paint1_linear_1235_18945)"/>
</g>
<defs>
<linearGradient id="paint0_linear_1235_18945" x1="476.239" y1="726.097" x2="468.837" y2="-282.735" gradientUnits="userSpaceOnUse">
<stop stop-color="white"/>
<stop offset="1" stop-color="#EEEEEE"/>
</linearGradient>
<linearGradient id="paint1_linear_1235_18945" x1="641.636" y1="219.058" x2="795.361" y2="16.0313" gradientUnits="userSpaceOnUse">
<stop stop-color="white"/>
<stop offset="1" stop-color="#EEEEEE"/>
</linearGradient>
<clipPath id="clip0_1235_18945">
<rect width="900" height="600" fill="white"/>
</clipPath>
</defs>
</svg>
