<svg width="900" height="600" viewBox="0 0 900 600" fill="none" xmlns="http://www.w3.org/2000/svg">
<g clip-path="url(#clip0_1235_29836)">
<path d="M752.382 71H147C144.791 71 143 72.7909 143 75V524.377C143 526.586 144.791 528.377 147 528.377H752.382C754.591 528.377 756.382 526.586 756.382 524.377V75C756.382 72.7909 754.591 71 752.382 71Z" fill="white" stroke="#E1E4E5" stroke-width="11"/>
<path d="M752.382 71H147C144.791 71 143 72.7909 143 75V120.183C143 122.392 144.791 124.183 147 124.183H752.382C754.591 124.183 756.382 122.392 756.382 120.183V75C756.382 72.7909 754.591 71 752.382 71Z" fill="white" stroke="#E1E4E5" stroke-width="11"/>
<path d="M182.001 97.5906C182.001 92.6951 178.032 88.7266 173.137 88.7266C168.241 88.7266 164.273 92.6951 164.273 97.5906C164.273 102.486 168.241 106.455 173.137 106.455C178.032 106.455 182.001 102.486 182.001 97.5906Z" fill="#E1E4E5"/>
<path d="M213.911 97.5906C213.911 92.6951 209.942 88.7266 205.047 88.7266C200.152 88.7266 196.183 92.6951 196.183 97.5906C196.183 102.486 200.152 106.455 205.047 106.455C209.942 106.455 213.911 102.486 213.911 97.5906Z" fill="#E1E4E5"/>
<path d="M245.821 97.5906C245.821 92.6951 241.852 88.7266 236.957 88.7266C232.062 88.7266 228.093 92.6951 228.093 97.5906C228.093 102.486 232.062 106.455 236.957 106.455C241.852 106.455 245.821 102.486 245.821 97.5906Z" fill="#E1E4E5"/>
<path d="M500.456 359.832L592.443 388.38C614.283 395.14 614.595 425.924 592.911 433.152L567.639 441.576C564.176 442.73 561.029 444.675 558.448 447.256C555.867 449.837 553.922 452.984 552.767 456.447L544.343 481.719C537.115 503.403 506.384 503.039 499.572 481.251L471.024 389.264C465.408 371.168 482.36 354.216 500.456 359.832V359.832ZM287.202 469.81L312.569 495.177C322.197 504.805 335.341 504.303 341.788 494.005L355.936 471.652L310.727 426.443L288.374 440.592C278.746 446.703 278.16 460.768 287.202 469.81Z" stroke="#4F27AA" stroke-width="24" stroke-linecap="round" stroke-linejoin="round"/>
<path d="M355.936 471.653L388.838 473.663C407.173 474.751 413.62 469.142 415.629 451.644L423.834 381.989C425.592 367.338 414.959 356.789 400.392 358.547L330.737 366.752C313.239 368.845 306.876 375.208 308.718 393.542L310.644 426.444M414.29 368.092L388.922 393.543" stroke="#4F27AA" stroke-width="24" stroke-linecap="round" stroke-linejoin="round"/>
<path d="M414.746 353.315V342.254C392.814 328.999 374.792 303.157 374.792 275.695C374.792 228.493 418.179 191.495 467.192 202.175C488.743 206.943 507.624 221.246 517.445 240.985C537.375 281.035 516.396 323.564 485.596 342.158V353.22C485.596 355.985 486.645 362.374 476.442 362.374H423.9C413.411 362.469 414.746 358.369 414.746 353.315Z" fill="#4F27AA" stroke="#4F27AA" stroke-width="24" stroke-linecap="round" stroke-linejoin="round"/>
<path d="M450.028 256.527L439.825 274.263C437.536 278.173 439.444 281.415 443.925 281.415H456.036C460.613 281.415 462.425 284.657 460.136 288.566L450.028 306.303" stroke="white" stroke-width="24" stroke-linecap="round" stroke-linejoin="round"/>
<path d="M562.508 266.937H589.445M554.506 313.597L576.097 327.271M547.139 214.319L568.493 196.479M505.074 181.995L514.538 159.696M337.55 266.937H310.613M345.552 313.597L323.962 327.271M352.918 214.319L331.564 196.479M394.983 181.995L385.52 159.695" stroke="#4F27AA" stroke-width="24" stroke-linecap="round" stroke-linejoin="round"/>
<path d="M290 238.365C302.068 244.351 318.084 236.654 318.084 236.654C318.084 236.654 314.525 219.255 302.451 213.277C290.383 207.291 274.373 214.979 274.373 214.979C274.373 214.979 277.933 232.378 290 238.365Z" fill="url(#paint0_linear_1235_29836)"/>
<path d="M248.195 203.579C252.721 203.579 256.39 207.248 256.39 211.774C256.39 216.3 252.721 219.969 248.195 219.969C243.669 219.969 240 216.3 240 211.774C240 207.248 243.669 203.579 248.195 203.579Z" fill="#4F27AA"/>
<path d="M634.302 196.6C642.814 196.6 649.715 203.5 649.715 212.013C649.715 220.525 642.814 227.426 634.302 227.426C625.79 227.426 618.889 220.525 618.889 212.013C618.889 203.5 625.79 196.6 634.302 196.6Z" fill="#4F27AA"/>
<path d="M626.383 327.417C630.907 327.417 634.574 323.75 634.574 319.226C634.574 314.702 630.907 311.035 626.383 311.035C621.859 311.035 618.192 314.702 618.192 319.226C618.192 323.75 621.859 327.417 626.383 327.417Z" fill="#4F27AA"/>
<path d="M267.213 311.034C271.452 311.034 274.888 307.597 274.888 303.359C274.888 299.12 271.452 295.684 267.213 295.684C262.974 295.684 259.538 299.12 259.538 303.359C259.538 307.597 262.974 311.034 267.213 311.034Z" fill="#4F27AA"/>
<path d="M450.134 478.005C455.144 478.005 459.205 473.944 459.205 468.934C459.205 463.925 455.144 459.863 450.134 459.863C445.124 459.863 441.063 463.925 441.063 468.934C441.063 473.944 445.124 478.005 450.134 478.005Z" fill="#E1E4E5"/>
<path d="M646.343 413.431C645.44 416.803 647.441 420.269 650.813 421.173C654.185 422.076 657.651 420.075 658.555 416.703C659.458 413.331 657.457 409.865 654.085 408.962C650.713 408.058 647.247 410.059 646.343 413.431Z" fill="#E1E4E5"/>
<path d="M259.61 387.813C266.143 387.813 271.439 383.576 271.439 378.35C271.439 373.123 266.143 368.887 259.61 368.887C253.077 368.887 247.781 373.123 247.781 378.35C247.781 383.576 253.077 387.813 259.61 387.813Z" fill="#E1E4E5"/>
<path d="M579.814 478.15C579.814 485.665 585.906 491.757 593.421 491.757C600.936 491.757 607.028 485.665 607.028 478.15C607.028 470.635 600.936 464.543 593.421 464.543C585.906 464.543 579.814 470.635 579.814 478.15Z" fill="#E1E4E5"/>
</g>
<defs>
<linearGradient id="paint0_linear_1235_29836" x1="336.341" y1="257.037" x2="236.807" y2="178.306" gradientUnits="userSpaceOnUse">
<stop stop-color="white"/>
<stop offset="1" stop-color="#EEEEEE"/>
</linearGradient>
<clipPath id="clip0_1235_29836">
<rect width="900" height="600" fill="white"/>
</clipPath>
</defs>
</svg>
