<svg width="900" height="600" viewBox="0 0 900 600" fill="none" xmlns="http://www.w3.org/2000/svg">
<g clip-path="url(#clip0_1235_29857)">
<path d="M711.823 237.685L689.712 215.711C681.32 207.371 669.863 207.806 664.244 216.726L651.911 236.089L691.317 275.251L710.801 262.995C719.193 257.701 719.704 245.517 711.823 237.685V237.685Z" stroke="#4F27AA" stroke-width="24" stroke-linecap="round" stroke-linejoin="round"/>
<path d="M652.719 236.638L623.928 234.894C607.884 233.949 602.243 238.818 600.485 254.006L593.306 314.469C591.767 327.186 601.071 336.343 613.818 334.817L674.769 327.695C690.08 325.878 695.648 320.355 694.036 304.44L692.351 275.88M600.847 326.311L623.007 304.151" stroke="#4F27AA" stroke-width="24" stroke-linecap="round" stroke-linejoin="round"/>
<path d="M610.229 190.49C610.229 160.302 585.562 135.82 555.005 135.82H334.111C303.554 135.82 278.887 160.302 278.887 190.49V391.321C278.887 421.51 303.554 445.992 334.111 445.992H348.101C362.827 445.992 376.817 451.698 387.126 462.007L418.604 493.116C432.962 507.29 456.339 507.29 470.697 493.116L502.175 462.007C512.483 451.698 526.657 445.992 541.2 445.992H555.005C585.562 445.992 610.229 421.51 610.229 391.321V380.348" stroke="#4F27AA" stroke-width="24" stroke-linecap="round" stroke-linejoin="round"/>
<path d="M370.927 387.271C370.927 354.136 403.877 327.262 444.558 327.262C485.24 327.262 518.19 354.136 518.19 387.271M444.559 283.082C420.872 283.082 401.669 263.879 401.669 240.191C401.669 216.503 420.872 197.301 444.559 197.301C468.247 197.301 487.45 216.503 487.45 240.191C487.45 263.879 468.247 283.082 444.559 283.082Z" stroke="#4F27AA" stroke-width="24" stroke-linecap="round" stroke-linejoin="round"/>
<path fill-rule="evenodd" clip-rule="evenodd" d="M158.848 480.196H163.082C163.572 480.197 164.042 480.391 164.388 480.738C164.735 481.084 164.929 481.554 164.93 482.044V486.277C164.929 486.767 164.735 487.237 164.388 487.583C164.042 487.93 163.572 488.124 163.082 488.125H158.848C158.358 488.123 157.889 487.928 157.543 487.582C157.197 487.236 157.002 486.767 157 486.277V482.044C156.999 481.801 157.047 481.561 157.14 481.336C157.232 481.112 157.368 480.908 157.54 480.736C157.712 480.564 157.916 480.428 158.14 480.336C158.365 480.243 158.605 480.195 158.848 480.196ZM173.526 480.196H177.76C178.775 480.196 179.608 481.029 179.608 482.044V486.277C179.607 486.767 179.413 487.237 179.066 487.583C178.72 487.93 178.25 488.124 177.76 488.125H173.526C173.037 488.123 172.568 487.928 172.222 487.582C171.876 487.235 171.681 486.766 171.679 486.277V482.044C171.679 481.029 172.511 480.196 173.526 480.196ZM188.215 480.196H192.449C193.464 480.196 194.297 481.029 194.297 482.044V486.277C194.296 486.767 194.102 487.237 193.755 487.583C193.409 487.93 192.939 488.124 192.449 488.125H188.215C187.725 488.123 187.256 487.928 186.91 487.582C186.564 487.236 186.369 486.767 186.367 486.277V482.044C186.366 481.801 186.414 481.561 186.507 481.336C186.599 481.112 186.735 480.908 186.907 480.736C187.079 480.564 187.283 480.428 187.507 480.336C187.732 480.243 187.972 480.195 188.215 480.196ZM202.893 480.196H207.127C208.142 480.196 208.975 481.029 208.975 482.044V486.277C208.974 486.767 208.78 487.237 208.433 487.583C208.087 487.93 207.617 488.124 207.127 488.125H202.893C202.402 488.125 201.932 487.93 201.584 487.584C201.236 487.238 201.039 486.768 201.037 486.277V482.044C201.042 481.554 201.24 481.086 201.587 480.74C201.934 480.395 202.403 480.199 202.893 480.196ZM217.573 480.196H221.807C222.831 480.196 223.664 481.029 223.664 482.044V486.277C223.664 486.52 223.615 486.761 223.522 486.986C223.428 487.21 223.291 487.414 223.119 487.586C222.946 487.758 222.742 487.894 222.517 487.986C222.291 488.079 222.05 488.126 221.807 488.125H217.573C217.084 488.123 216.615 487.928 216.269 487.582C215.923 487.235 215.728 486.766 215.726 486.277V482.044C215.726 481.029 216.558 480.196 217.573 480.196ZM174.065 496.202H178.299C179.314 496.202 180.147 497.035 180.147 498.05V502.292C180.145 502.782 179.95 503.251 179.604 503.597C179.258 503.943 178.789 504.138 178.299 504.14H174.065C173.575 504.14 173.105 503.945 172.759 503.598C172.412 503.252 172.217 502.782 172.217 502.292V498.059C172.216 497.815 172.262 497.574 172.355 497.349C172.447 497.123 172.583 496.918 172.754 496.746C172.926 496.573 173.13 496.436 173.355 496.343C173.58 496.25 173.821 496.202 174.065 496.202ZM188.744 496.202H192.977C193.992 496.202 194.825 497.035 194.825 498.05V502.292C194.823 502.782 194.628 503.251 194.282 503.597C193.936 503.943 193.467 504.138 192.977 504.14H188.744C188.254 504.138 187.785 503.943 187.439 503.597C187.093 503.251 186.898 502.782 186.896 502.292V498.059C186.895 497.815 186.941 497.574 187.034 497.349C187.126 497.123 187.262 496.918 187.433 496.746C187.605 496.573 187.809 496.436 188.034 496.343C188.259 496.25 188.5 496.202 188.744 496.202ZM203.423 496.202H207.657C208.681 496.202 209.514 497.035 209.514 498.05V502.292C209.512 502.783 209.315 503.253 208.967 503.599C208.619 503.946 208.148 504.14 207.657 504.14H203.423C202.933 504.138 202.464 503.943 202.118 503.597C201.772 503.251 201.577 502.782 201.575 502.292V498.059C201.575 497.035 202.408 496.202 203.423 496.202ZM188.215 463H192.449C193.464 463 194.297 463.833 194.297 464.848V469.082C194.296 469.572 194.102 470.042 193.755 470.388C193.409 470.735 192.939 470.929 192.449 470.93H188.215C187.725 470.928 187.256 470.733 186.91 470.387C186.564 470.041 186.369 469.572 186.367 469.082V464.848C186.366 464.605 186.414 464.365 186.507 464.14C186.599 463.916 186.735 463.712 186.907 463.54C187.079 463.368 187.283 463.232 187.507 463.14C187.732 463.047 187.972 462.999 188.215 463ZM173.541 463H177.775C178.79 463 179.623 463.833 179.623 464.848V469.082C179.622 469.572 179.428 470.042 179.081 470.388C178.735 470.735 178.265 470.929 177.775 470.93H173.541C173.051 470.928 172.582 470.733 172.236 470.387C171.89 470.041 171.695 469.572 171.693 469.082V464.848C171.693 464.605 171.74 464.365 171.833 464.14C171.926 463.916 172.062 463.712 172.233 463.54C172.405 463.369 172.609 463.233 172.833 463.14C173.058 463.047 173.298 463 173.541 463ZM202.893 463H207.127C208.142 463 208.975 463.833 208.975 464.848V469.082C208.974 469.572 208.78 470.042 208.433 470.388C208.087 470.735 207.617 470.929 207.127 470.93H202.893C202.402 470.93 201.932 470.735 201.584 470.389C201.236 470.043 201.039 469.573 201.037 469.082V464.848C201.042 464.358 201.24 463.89 201.587 463.544C201.934 463.199 202.403 463.003 202.893 463Z" fill="#E1E4E5"/>
<path d="M257.808 104.047C272.641 111.405 292.329 101.944 292.329 101.944C292.329 101.944 287.953 80.5581 273.112 73.2101C258.279 65.8521 238.599 75.3021 238.599 75.3021C238.599 75.3021 242.975 96.6891 257.808 104.047Z" fill="url(#paint0_linear_1235_29857)"/>
<path d="M187.014 135.713C192.577 135.713 197.087 140.223 197.087 145.786C197.087 151.35 192.577 155.859 187.014 155.859C181.451 155.859 176.941 151.35 176.941 145.786C176.941 140.223 181.451 135.713 187.014 135.713Z" fill="#4F27AA"/>
<path d="M590.662 73.8483C601.125 73.8483 609.607 82.3302 609.607 92.7933C609.607 103.256 601.125 111.738 590.662 111.738C580.199 111.738 571.717 103.256 571.717 92.7933C571.717 82.3302 580.199 73.8483 590.662 73.8483Z" fill="#4F27AA"/>
<path d="M732.744 207.275C738.305 207.275 742.813 202.767 742.813 197.206C742.813 191.645 738.305 187.137 732.744 187.137C727.183 187.137 722.675 191.645 722.675 197.206C722.675 202.767 727.183 207.275 732.744 207.275Z" fill="#4F27AA"/>
<path d="M176.479 256.528C184.339 256.528 190.71 250.157 190.71 242.297C190.71 234.438 184.339 228.066 176.479 228.066C168.619 228.066 162.248 234.438 162.248 242.297C162.248 250.157 168.619 256.528 176.479 256.528Z" fill="#E1E4E5"/>
<path d="M563.2 536.712C573.08 536.712 581.089 528.702 581.089 518.823C581.089 508.943 573.08 500.934 563.2 500.934C553.32 500.934 545.311 508.943 545.311 518.823C545.311 528.702 553.32 536.712 563.2 536.712Z" fill="#E1E4E5"/>
<path d="M656.037 409.709C654.006 417.289 658.504 425.079 666.084 427.11C673.663 429.141 681.454 424.643 683.485 417.064C685.516 409.484 681.018 401.693 673.438 399.663C665.859 397.632 658.068 402.13 656.037 409.709Z" fill="#E1E4E5"/>
<path d="M186.232 387.764C194.262 387.764 200.772 382.556 200.772 376.132C200.772 369.708 194.262 364.5 186.232 364.5C178.202 364.5 171.692 369.708 171.692 376.132C171.692 382.556 178.202 387.764 186.232 387.764Z" fill="#E1E4E5"/>
<path d="M302.879 518.893C302.879 531.71 313.269 542.099 326.085 542.099C338.901 542.099 349.291 531.71 349.291 518.893C349.291 506.077 338.901 495.688 326.085 495.688C313.269 495.688 302.879 506.077 302.879 518.893Z" fill="#E1E4E5"/>
</g>
<defs>
<linearGradient id="paint0_linear_1235_29857" x1="314.769" y1="126.999" x2="192.424" y2="30.2241" gradientUnits="userSpaceOnUse">
<stop stop-color="white"/>
<stop offset="1" stop-color="#EEEEEE"/>
</linearGradient>
<clipPath id="clip0_1235_29857">
<rect width="900" height="600" fill="white"/>
</clipPath>
</defs>
</svg>
