<svg width="900" height="600" viewBox="0 0 900 600" fill="none" xmlns="http://www.w3.org/2000/svg">
<g clip-path="url(#clip0_1235_30047)">
<path d="M466.483 487.226C582.981 487.226 677.422 392.785 677.422 276.287C677.422 159.788 582.981 65.3477 466.483 65.3477C349.985 65.3477 255.544 159.788 255.544 276.287C255.544 392.785 349.985 487.226 466.483 487.226Z" fill="#4F27AA"/>
<path d="M466.483 436.375C554.897 436.375 626.571 364.701 626.571 276.287C626.571 187.873 554.897 116.199 466.483 116.199C378.069 116.199 306.395 187.873 306.395 276.287C306.395 364.701 378.069 436.375 466.483 436.375Z" fill="white"/>
<path d="M466.004 389.849C528.972 389.849 580.017 338.558 580.017 275.288C580.017 212.017 528.972 160.727 466.004 160.727C403.037 160.727 351.991 212.017 351.991 275.288C351.991 338.558 403.037 389.849 466.004 389.849Z" fill="#4F27AA"/>
<path d="M466.004 321.879C492.039 321.879 513.144 301.019 513.144 275.287C513.144 249.555 492.039 228.695 466.004 228.695C439.97 228.695 418.864 249.555 418.864 275.287C418.864 301.019 439.97 321.879 466.004 321.879Z" fill="white"/>
<path d="M349.499 435.892H406.804L324.666 551.001H280.732L349.499 435.892ZM586.893 435.892H529.587L611.725 551.001H655.66L586.893 435.892ZM704.992 508.246C740.109 508.246 768.577 479.779 768.577 444.662C768.577 409.545 740.109 381.078 704.992 381.078C669.876 381.078 641.408 409.545 641.408 444.662C641.408 479.779 669.876 508.246 704.992 508.246Z" fill="#4F27AA"/>
<path d="M685 446.47L695.208 456.73C698.192 459.73 703.061 459.73 706.045 456.888L734 431" stroke="white" stroke-width="11" stroke-linecap="round" stroke-linejoin="round"/>
<path d="M460.522 275.832L116.29 182.648" stroke="#E1E4E5" stroke-width="24" stroke-linecap="round"/>
<path d="M132.274 186.112L138.923 161.298C147.166 130.535 172.484 123.771 195.134 146.376L213.354 164.606L231.575 182.837C254.225 205.441 247.476 230.628 216.559 238.879L191.664 245.556L166.769 252.234C135.851 260.485 117.307 241.969 125.55 211.206L132.274 186.112Z" fill="#E1E4E5"/>
<path d="M715.972 172.695C707.545 178.095 697.527 174.109 683.164 164.564C672.363 157.384 662.432 150.988 654.355 138.7C648.7 130.102 645.525 120.857 643.965 112.692C642.273 103.845 639.072 93.0696 646.228 87.8816C656.061 80.7546 687.531 87.1266 706.809 114.455C727.984 144.48 724.211 167.419 715.972 172.695Z" fill="url(#paint0_linear_1235_30047)"/>
<path d="M783.319 240.813C763.599 250.595 737.426 238.017 737.426 238.017C737.426 238.017 743.243 209.585 762.973 199.817C782.693 190.035 808.856 202.599 808.856 202.599C808.856 202.599 803.039 231.031 783.319 240.813Z" fill="url(#paint1_linear_1235_30047)"/>
<path d="M149.301 418.889C171.178 432.001 202.565 419.88 202.565 419.88C202.565 419.88 198.461 386.506 176.57 373.409C154.693 360.297 123.32 372.403 123.32 372.403C123.32 372.403 127.424 405.777 149.301 418.889Z" fill="url(#paint2_linear_1235_30047)"/>
<path d="M736.073 285.699C726.173 285.699 718.147 293.725 718.147 303.625C718.147 313.525 726.173 321.551 736.073 321.551C745.973 321.551 753.999 313.525 753.999 303.625C753.999 293.725 745.973 285.699 736.073 285.699Z" fill="#4F27AA"/>
<path d="M189.149 296.662C180.999 296.662 174.392 303.269 174.392 311.419C174.392 319.569 180.999 326.176 189.149 326.176C197.299 326.176 203.906 319.569 203.906 311.419C203.906 303.269 197.299 296.662 189.149 296.662Z" fill="#4F27AA"/>
<path d="M280.805 458.61C271.524 458.61 264 451.086 264 441.805C264 432.524 271.524 425 280.805 425C290.086 425 297.61 432.524 297.61 441.805C297.61 451.086 290.086 458.61 280.805 458.61Z" fill="#4F27AA"/>
<path d="M790.713 332.178C786.382 332.178 782.87 328.667 782.87 324.335C782.87 320.004 786.382 316.492 790.713 316.492C795.045 316.492 798.556 320.004 798.556 324.335C798.556 328.667 795.045 332.178 790.713 332.178Z" fill="#4F27AA"/>
<path d="M433.331 537.182C427.762 537.182 423.248 532.667 423.248 527.099C423.248 521.53 427.762 517.016 433.331 517.016C438.9 517.016 443.414 521.53 443.414 527.099C443.414 532.667 438.9 537.182 433.331 537.182Z" fill="#E1E4E5"/>
<path d="M204.796 523.122C196.752 523.122 190.231 516.601 190.231 508.557C190.231 500.513 196.752 493.992 204.796 493.992C212.84 493.992 219.361 500.513 219.361 508.557C219.361 516.601 212.84 523.122 204.796 523.122Z" fill="#E1E4E5"/>
<path d="M700.729 547.955C694.607 547.955 689.644 542.992 689.644 536.87C689.644 530.748 694.607 525.785 700.729 525.785C706.851 525.785 711.814 530.748 711.814 536.87C711.814 542.992 706.851 547.955 700.729 547.955Z" fill="#E1E4E5"/>
<path d="M761.167 151.386C754.361 151.386 748.843 145.869 748.843 139.062C748.843 132.256 754.361 126.738 761.167 126.738C767.974 126.738 773.491 132.256 773.491 139.062C773.491 145.869 767.974 151.386 761.167 151.386Z" fill="#E1E4E5"/>
<path d="M106.943 280.242C108.525 286.146 105.022 292.215 99.1178 293.797C93.214 295.379 87.1455 291.875 85.5636 285.971C83.9816 280.067 87.4853 273.999 93.3891 272.417C99.293 270.835 105.361 274.339 106.943 280.242Z" fill="#E1E4E5"/>
<path d="M268.893 134.857C266.349 134.857 264.287 132.794 264.287 130.251C264.287 127.707 266.349 125.645 268.893 125.645C271.437 125.645 273.499 127.707 273.499 130.251C273.499 132.794 271.437 134.857 268.893 134.857Z" fill="#E1E4E5"/>
<path d="M761.325 381.12C755.07 381.12 750 377.064 750 372.06C750 367.056 755.07 363 761.325 363C767.58 363 772.65 367.056 772.65 372.06C772.65 377.064 767.58 381.12 761.325 381.12Z" fill="#E1E4E5"/>
<path d="M593.181 57.7362C594.326 62.0103 591.789 66.4036 587.515 67.5489C583.241 68.6941 578.848 66.1577 577.703 61.8835C576.557 57.6094 579.094 53.2161 583.368 52.0709C587.642 50.9256 592.035 53.4621 593.181 57.7362Z" fill="#E1E4E5"/>
<path d="M189.786 139.266H189.947C190.902 152.802 200.969 153.011 200.969 153.011C200.969 153.011 189.868 153.227 189.868 168.868C189.868 153.227 178.768 153.011 178.768 153.011C178.768 153.011 188.83 152.802 189.786 139.266Z" fill="#E1E4E5"/>
</g>
<defs>
<linearGradient id="paint0_linear_1235_30047" x1="660.255" y1="207.103" x2="714.03" y2="13.6987" gradientUnits="userSpaceOnUse">
<stop stop-color="white"/>
<stop offset="1" stop-color="#EEEEEE"/>
</linearGradient>
<linearGradient id="paint1_linear_1235_30047" x1="707.593" y1="271.326" x2="870.242" y2="142.67" gradientUnits="userSpaceOnUse">
<stop stop-color="white"/>
<stop offset="1" stop-color="#EEEEEE"/>
</linearGradient>
<linearGradient id="paint2_linear_1235_30047" x1="233.96" y1="461.096" x2="57.9278" y2="297.539" gradientUnits="userSpaceOnUse">
<stop stop-color="white"/>
<stop offset="1" stop-color="#EEEEEE"/>
</linearGradient>
<clipPath id="clip0_1235_30047">
<rect width="900" height="600" fill="white"/>
</clipPath>
</defs>
</svg>
