<svg width="900" height="600" viewBox="0 0 900 600" fill="none" xmlns="http://www.w3.org/2000/svg">
<g clip-path="url(#clip0_1235_30073)">
<path d="M391.464 66.751L507.169 534.245M450.602 305.64L227.84 370.622M665.721 145.449L442.958 210.43M695.142 345.231L482.26 407.458M391.464 534.245H531.712C648.586 534.245 695.336 487.496 695.336 370.622V230.374C695.336 113.5 648.586 66.75 531.712 66.75H391.464C274.59 66.75 227.84 113.5 227.84 230.374V370.622C227.84 487.496 274.59 534.245 391.464 534.245V534.245Z" stroke="#E1E4E5" stroke-width="24" stroke-linecap="round" stroke-linejoin="round"/>
<path d="M300.056 218.906C326.369 103.536 497.741 103.669 523.921 219.039C539.282 286.715 497.073 344 460.074 379.437C433.226 405.282 390.75 405.282 363.769 379.437C326.903 344 284.695 286.582 300.056 218.906Z" fill="#4F27AA"/>
<path d="M377.21 260.755L405.267 289.298L460.18 233.621" stroke="white" stroke-width="24" stroke-linecap="round" stroke-linejoin="round"/>
<path d="M737.169 539.792C723.013 546.814 704.225 537.785 704.225 537.785C704.225 537.785 708.401 517.375 722.564 510.363C736.719 503.341 755.5 512.36 755.5 512.36C755.5 512.36 751.324 532.77 737.169 539.792Z" fill="url(#paint0_linear_1235_30073)"/>
<path d="M157.077 422.771C168.635 429.698 185.218 423.294 185.218 423.294C185.218 423.294 183.049 405.662 171.484 398.742C159.926 391.815 143.351 398.211 143.351 398.211C143.351 398.211 145.519 415.844 157.077 422.771Z" fill="url(#paint1_linear_1235_30073)"/>
<path d="M564.069 277.641C558.76 277.641 554.456 281.945 554.456 287.254C554.456 292.563 558.76 296.867 564.069 296.867C569.378 296.867 573.682 292.563 573.682 287.254C573.682 281.945 569.378 277.641 564.069 277.641Z" fill="#4F27AA"/>
<path d="M412.054 445.766C402.068 445.766 393.974 453.86 393.974 463.846C393.974 473.831 402.068 481.926 412.054 481.926C422.039 481.926 430.134 473.831 430.134 463.846C430.134 453.86 422.039 445.766 412.054 445.766Z" fill="#4F27AA"/>
<path d="M593.916 478.837C585.99 478.837 579.564 472.411 579.564 464.485C579.564 456.558 585.99 450.133 593.916 450.133C601.842 450.133 608.268 456.558 608.268 464.485C608.268 472.411 601.842 478.837 593.916 478.837Z" fill="#4F27AA"/>
<path d="M283.495 164.765C278.188 164.765 273.886 160.463 273.886 155.156C273.886 149.849 278.188 145.547 283.495 145.547C288.802 145.547 293.104 149.849 293.104 155.156C293.104 160.463 288.802 164.765 283.495 164.765Z" fill="#4F27AA"/>
<path d="M208.957 525.461C202.626 525.461 197.494 520.329 197.494 513.998C197.494 507.667 202.626 502.535 208.957 502.535C215.288 502.535 220.42 507.667 220.42 513.998C220.42 520.329 215.288 525.461 208.957 525.461Z" fill="#E1E4E5"/>
<path d="M652.098 228.385C644.598 228.385 638.517 222.304 638.517 214.804C638.517 207.303 644.598 201.223 652.098 201.223C659.599 201.223 665.679 207.303 665.679 214.804C665.679 222.304 659.599 228.385 652.098 228.385Z" fill="#E1E4E5"/>
<path d="M547.51 137.113C538.081 137.113 530.438 129.469 530.438 120.041C530.438 110.612 538.081 102.969 547.51 102.969C556.939 102.969 564.582 110.612 564.582 120.041C564.582 129.469 556.939 137.113 547.51 137.113Z" fill="#E1E4E5"/>
<path d="M217.345 83.3166C219.283 90.5499 214.991 97.9848 207.757 99.9229C200.524 101.861 193.089 97.5685 191.151 90.3353C189.213 83.102 193.505 75.6671 200.739 73.729C207.972 71.7908 215.407 76.0833 217.345 83.3166Z" fill="#E1E4E5"/>
<path d="M751.535 337.689C746.41 337.689 742.255 333.534 742.255 328.409C742.255 323.284 746.41 319.129 751.535 319.129C756.66 319.129 760.815 323.284 760.815 328.409C760.815 333.534 756.66 337.689 751.535 337.689Z" fill="#E1E4E5"/>
<path d="M297.588 478.884C289.925 478.884 283.713 473.914 283.713 467.784C283.713 461.653 289.925 456.684 297.588 456.684C305.251 456.684 311.463 461.653 311.463 467.784C311.463 473.914 305.251 478.884 297.588 478.884Z" fill="#E1E4E5"/>
</g>
<defs>
<linearGradient id="paint0_linear_1235_30073" x1="682.81" y1="561.695" x2="799.566" y2="469.341" gradientUnits="userSpaceOnUse">
<stop stop-color="white"/>
<stop offset="1" stop-color="#EEEEEE"/>
</linearGradient>
<linearGradient id="paint1_linear_1235_30073" x1="201.804" y1="445.069" x2="108.803" y2="358.659" gradientUnits="userSpaceOnUse">
<stop stop-color="white"/>
<stop offset="1" stop-color="#EEEEEE"/>
</linearGradient>
<clipPath id="clip0_1235_30073">
<rect width="900" height="600" fill="white"/>
</clipPath>
</defs>
</svg>
