<svg width="900" height="600" viewBox="0 0 900 600" fill="none" xmlns="http://www.w3.org/2000/svg">
<g clip-path="url(#clip0_1235_30107)">
<path d="M372.401 148.91H557.06C569.781 148.91 581.066 149.389 591.12 151.069C645.081 158.026 659.649 187.773 659.649 268.859V412.799C659.649 493.885 645.081 523.633 591.12 530.59C581.066 532.269 569.781 532.749 557.06 532.749H372.401C359.68 532.749 348.395 532.269 338.341 530.59C284.38 523.633 269.812 493.885 269.812 412.799V268.859C269.812 187.773 284.38 158.026 338.341 151.069C348.395 149.389 359.68 148.91 372.401 148.91Z" fill="#4F27AA" stroke="#4F27AA" stroke-width="24" stroke-linecap="round" stroke-linejoin="round"/>
<path d="M493.013 282.164H558.732M370.964 357.271H558.732M370.964 428.744H558.732M429.062 282.164H429.23M372.731 282.164H372.9" stroke="white" stroke-width="36" stroke-linecap="round" stroke-linejoin="round"/>
<path fill-rule="evenodd" clip-rule="evenodd" d="M371.749 207.031V122.526C371.752 107.983 362.597 94.9996 348.862 90.0686L296.059 71.1326C277.86 64.6069 257.958 64.6069 239.759 71.1326L186.887 90.1026C173.164 95.0296 164.011 107.995 164 122.526V207.031C164 250.939 225.667 283.43 254.024 296.089C258.379 298.047 263.099 299.059 267.874 299.059C272.649 299.059 277.369 298.047 281.724 296.089C310.082 283.431 371.749 250.87 371.749 207.031Z" fill="#4F27AA"/>
<path d="M236.857 197.719C247.379 208.2 263.203 211.336 276.95 205.663C290.697 199.991 299.66 186.628 299.66 171.805C299.66 156.982 290.697 143.619 276.95 137.947C263.203 132.274 247.379 135.41 236.857 145.891C222.491 160.203 222.491 183.407 236.857 197.719" stroke="white" stroke-width="11" stroke-linecap="round" stroke-linejoin="round"/>
<path d="M309.588 218.342L288.885 197.719L309.588 218.342Z" stroke="white" stroke-width="11" stroke-linecap="round" stroke-linejoin="round"/>
<path d="M642.419 326.092C647.669 323.073 653.619 321.484 659.675 321.484C665.731 321.484 671.681 323.073 676.931 326.092L705.283 342.399C710.558 345.433 714.94 349.804 717.987 355.072C721.034 360.339 722.639 366.317 722.639 372.402V404.785C722.639 410.871 721.034 416.849 717.987 422.116C714.94 427.384 710.558 431.755 705.283 434.789L676.931 451.095C671.681 454.115 665.731 455.704 659.675 455.704C653.619 455.704 647.669 454.115 642.419 451.095L614.066 434.789C608.791 431.755 604.409 427.384 601.362 422.116C598.315 416.849 596.71 410.871 596.71 404.785V372.402C596.71 366.317 598.314 360.339 601.362 355.072C604.409 349.804 608.791 345.433 614.066 342.399L642.419 326.092Z" fill="#4F27AA"/>
<path d="M682.162 375.062L655.624 401.288L639.7 385.553" stroke="white" stroke-width="9.75" stroke-linecap="round" stroke-linejoin="round"/>
<path d="M424.988 103.529C441.234 111.588 462.796 101.226 462.796 101.226C462.796 101.226 458.004 77.802 441.75 69.754C425.504 61.696 403.95 72.046 403.95 72.046C403.95 72.046 408.742 95.47 424.988 103.529Z" fill="url(#paint0_linear_1235_30107)"/>
<path d="M693.079 522.95C699.172 522.95 704.112 527.889 704.112 533.983C704.112 540.076 699.172 545.016 693.079 545.016C686.986 545.016 682.046 540.076 682.046 533.983C682.046 527.889 686.986 522.95 693.079 522.95Z" fill="#4F27AA"/>
<path d="M542.404 73.9035C551.78 73.9035 559.38 81.5039 559.38 90.8795C559.38 100.255 551.78 107.855 542.404 107.855C533.028 107.855 525.428 100.255 525.428 90.8795C525.428 81.5039 533.028 73.9035 542.404 73.9035Z" fill="#4F27AA"/>
<path d="M724.835 238.339C730.925 238.339 735.862 233.402 735.862 227.312C735.862 221.222 730.925 216.285 724.835 216.285C718.745 216.285 713.808 221.222 713.808 227.312C713.808 233.402 718.745 238.339 724.835 238.339Z" fill="#4F27AA"/>
<path d="M187.253 323.029C195.861 323.029 202.84 316.051 202.84 307.442C202.84 298.834 195.861 291.855 187.253 291.855C178.645 291.855 171.666 298.834 171.666 307.442C171.666 316.051 178.645 323.029 187.253 323.029Z" fill="#E1E4E5"/>
<path d="M668.363 121.59C673.057 121.59 676.863 117.784 676.863 113.09C676.863 108.395 673.057 104.59 668.363 104.59C663.669 104.59 659.863 108.395 659.863 113.09C659.863 117.784 663.669 121.59 668.363 121.59Z" fill="#E1E4E5"/>
<path d="M187.591 422.478C196.386 422.478 203.515 416.775 203.515 409.739C203.515 402.703 196.386 397 187.591 397C178.796 397 171.667 402.703 171.667 409.739C171.667 416.775 178.796 422.478 187.591 422.478Z" fill="#E1E4E5"/>
<path d="M187.863 523.006C187.863 537.043 199.242 548.422 213.279 548.422C227.316 548.422 238.695 537.043 238.695 523.006C238.695 508.969 227.316 497.59 213.279 497.59C199.242 497.59 187.863 508.969 187.863 523.006Z" fill="#E1E4E5"/>
</g>
<defs>
<linearGradient id="paint0_linear_1235_30107" x1="487.374" y1="128.666" x2="353.378" y2="22.6751" gradientUnits="userSpaceOnUse">
<stop stop-color="white"/>
<stop offset="1" stop-color="#EEEEEE"/>
</linearGradient>
<clipPath id="clip0_1235_30107">
<rect width="900" height="600" fill="white"/>
</clipPath>
</defs>
</svg>
