<svg width="900" height="600" viewBox="0 0 900 600" fill="none" xmlns="http://www.w3.org/2000/svg">
<g clip-path="url(#clip0_1235_30150)">
<path d="M693.364 273.588V250.654C693.364 135.985 647.496 90.1172 532.827 90.1172H395.224C280.555 90.1172 234.687 135.985 234.687 250.654V388.257C234.687 502.926 280.555 548.794 395.224 548.794H441.091" stroke="#E1E4E5" stroke-width="24" stroke-linecap="round" stroke-linejoin="round"/>
<path d="M590.391 502.921V342.614M544.523 548.794C569.855 548.794 590.391 528.259 590.391 502.926C590.391 477.594 569.855 457.059 544.523 457.059C519.191 457.059 498.656 477.594 498.656 502.926C498.656 528.259 519.191 548.794 544.523 548.794ZM620.434 321.058L671.119 338.029C683.273 342.157 693.364 355.917 693.364 368.989V382.521C693.364 399.951 679.833 409.812 663.32 404.308L612.636 387.337C600.481 383.209 590.391 369.448 590.391 356.376V342.846C590.391 325.187 603.922 315.554 620.434 321.058V321.058Z" stroke="#E1E4E5" stroke-width="24" stroke-linecap="round" stroke-linejoin="round"/>
<path d="M370.086 440.53C477.241 440.53 564.107 353.664 564.107 246.509C564.107 139.354 477.241 52.4883 370.086 52.4883C262.931 52.4883 176.065 139.354 176.065 246.509C176.065 353.664 262.931 440.53 370.086 440.53Z" fill="#4F27AA" stroke="#4F27AA" stroke-width="2.411"/>
<path d="M432.077 244.338C435.292 246.194 435.292 250.835 432.077 252.691L343.09 304.067C339.876 305.923 335.857 303.603 335.857 299.891V197.138C335.857 193.426 339.876 191.106 343.09 192.962L432.077 244.338Z" fill="white"/>
<path d="M763.869 250.782C749.692 257.814 730.876 248.772 730.876 248.772C730.876 248.772 735.058 228.331 749.242 221.309C763.419 214.276 782.228 223.309 782.228 223.309C782.228 223.309 778.046 243.749 763.869 250.782Z" fill="url(#paint0_linear_1235_30150)"/>
<path d="M146.756 397.369C166.833 409.402 195.635 398.278 195.635 398.278C195.635 398.278 191.869 367.651 171.781 355.633C151.705 343.6 122.914 354.71 122.914 354.71C122.914 354.71 126.68 385.337 146.756 397.369Z" fill="url(#paint1_linear_1235_30150)"/>
<path d="M624.459 194.029C614.98 194.029 607.296 201.714 607.296 211.192C607.296 220.671 614.98 228.355 624.459 228.355C633.938 228.355 641.622 220.671 641.622 211.192C641.622 201.714 633.938 194.029 624.459 194.029Z" fill="#4F27AA"/>
<path d="M209.154 234.369C201.351 234.369 195.026 240.694 195.026 248.497C195.026 256.3 201.351 262.625 209.154 262.625C216.957 262.625 223.282 256.3 223.282 248.497C223.282 240.694 216.957 234.369 209.154 234.369Z" fill="#4F27AA"/>
<path d="M417.664 502.254C408.778 502.254 401.574 495.05 401.574 486.164C401.574 477.278 408.778 470.074 417.664 470.074C426.55 470.074 433.754 477.278 433.754 486.164C433.754 495.05 426.55 502.254 417.664 502.254Z" fill="#4F27AA"/>
<path d="M741.807 325.553C737.66 325.553 734.298 322.191 734.298 318.044C734.298 313.897 737.66 310.535 741.807 310.535C745.954 310.535 749.316 313.897 749.316 318.044C749.316 322.191 745.954 325.553 741.807 325.553Z" fill="#4F27AA"/>
<path d="M584.336 493.867C579.004 493.867 574.682 489.544 574.682 484.213C574.682 478.881 579.004 474.559 584.336 474.559C589.668 474.559 593.99 478.881 593.99 484.213C593.99 489.544 589.668 493.867 584.336 493.867Z" fill="#E1E4E5"/>
<path d="M137.373 473.824C129.671 473.824 123.428 467.58 123.428 459.879C123.428 452.177 129.671 445.934 137.373 445.934C145.075 445.934 151.318 452.177 151.318 459.879C151.318 467.58 145.075 473.824 137.373 473.824Z" fill="#E1E4E5"/>
<path d="M642.05 470.308C636.189 470.308 631.437 465.556 631.437 459.695C631.437 453.834 636.189 449.082 642.05 449.082C647.911 449.082 652.663 453.834 652.663 459.695C652.663 465.556 647.911 470.308 642.05 470.308Z" fill="#E1E4E5"/>
<path d="M731.992 124.969C725.476 124.969 720.193 119.687 720.193 113.17C720.193 106.654 725.476 101.371 731.992 101.371C738.508 101.371 743.791 106.654 743.791 113.17C743.791 119.687 738.508 124.969 731.992 124.969Z" fill="#E1E4E5"/>
<path d="M136.522 272.488C138.036 278.141 134.682 283.951 129.029 285.466C123.377 286.98 117.566 283.626 116.052 277.973C114.537 272.321 117.892 266.51 123.544 264.996C129.197 263.481 135.007 266.836 136.522 272.488Z" fill="#E1E4E5"/>
<path d="M219.154 71.6481C216.718 71.6481 214.744 69.6737 214.744 67.2381C214.744 64.8025 216.718 62.8281 219.154 62.8281C221.59 62.8281 223.564 64.8025 223.564 67.2381C223.564 69.6737 221.59 71.6481 219.154 71.6481Z" fill="#E1E4E5"/>
<path d="M730.446 431.793C724.458 431.793 719.603 427.91 719.603 423.119C719.603 418.329 724.458 414.445 730.446 414.445C736.434 414.445 741.289 418.329 741.289 423.119C741.289 427.91 736.434 431.793 730.446 431.793Z" fill="#E1E4E5"/>
<path d="M539.081 59.7431C540.177 63.8347 537.749 68.0405 533.657 69.1368C529.566 70.2332 525.36 67.805 524.264 63.7133C523.167 59.6217 525.596 55.4159 529.687 54.3195C533.779 53.2232 537.985 55.6514 539.081 59.7431Z" fill="#E1E4E5"/>
<path d="M133.977 130.004H134.132C135.046 142.964 144.684 143.163 144.684 143.163C144.684 143.163 134.057 143.371 134.057 158.345C134.057 143.371 123.429 143.163 123.429 143.163C123.429 143.163 133.063 142.964 133.977 130.004ZM216.475 520.457H216.624C217.502 533.378 226.755 533.576 226.755 533.576C226.755 533.576 216.551 533.783 216.551 548.713C216.551 533.783 206.348 533.576 206.348 533.576C206.348 533.576 215.597 533.378 216.475 520.457Z" fill="#E1E4E5"/>
</g>
<defs>
<linearGradient id="paint0_linear_1235_30150" x1="709.428" y1="272.718" x2="826.36" y2="180.225" gradientUnits="userSpaceOnUse">
<stop stop-color="white"/>
<stop offset="1" stop-color="#EEEEEE"/>
</linearGradient>
<linearGradient id="paint1_linear_1235_30150" x1="224.446" y1="436.101" x2="62.906" y2="286.009" gradientUnits="userSpaceOnUse">
<stop stop-color="white"/>
<stop offset="1" stop-color="#EEEEEE"/>
</linearGradient>
<clipPath id="clip0_1235_30150">
<rect width="900" height="600" fill="white"/>
</clipPath>
</defs>
</svg>
