<svg width="900" height="600" viewBox="0 0 900 600" fill="none" xmlns="http://www.w3.org/2000/svg">
<g clip-path="url(#clip0_1235_30189)">
<path d="M478.583 550.144C617.222 550.144 729.611 438.012 729.611 299.689C729.611 161.367 617.222 49.2344 478.583 49.2344C339.944 49.2344 227.555 161.367 227.555 299.689C227.555 438.012 339.944 550.144 478.583 550.144Z" fill="url(#paint0_linear_1235_30189)"/>
<path d="M779.484 228.051H411.516C409.307 228.051 407.516 229.842 407.516 232.051V504.397C407.516 506.606 409.307 508.397 411.516 508.397H779.484C781.693 508.397 783.484 506.606 783.484 504.397V232.051C783.484 229.842 781.693 228.051 779.484 228.051Z" fill="white" stroke="#E1E4E5" stroke-width="4"/>
<path d="M678.029 335.797H729.61M626.448 390.817H729.611M452.219 437.813H729.611M626.386 335.797H626.51M581.673 335.797H581.817" stroke="#4F27AA" stroke-width="24" stroke-linecap="round" stroke-linejoin="round"/>
<path d="M455.029 312.242H537.116V394.329H455.029V312.242Z" fill="#4F27AA"/>
<path fill-rule="evenodd" clip-rule="evenodd" d="M495.927 312.676C486.052 312.676 476.948 313.49 469.641 314.455C463.065 315.324 458.107 320.283 457.238 326.859C456.273 334.166 455.459 343.269 455.459 353.144C455.459 363.02 456.273 372.123 457.238 379.43C458.107 386.006 463.065 390.965 469.641 391.833C476.948 392.799 486.052 393.613 495.927 393.613C505.803 393.613 514.906 392.799 522.213 391.833C528.789 390.965 533.748 386.006 534.616 379.43C535.581 372.123 536.396 363.02 536.396 353.144C536.396 343.269 535.581 334.166 534.616 326.859C533.748 320.283 528.789 315.324 522.213 314.455C514.906 313.49 505.803 312.676 495.927 312.676ZM468.317 304.425C457.204 305.893 448.676 314.421 447.208 325.534C446.199 333.174 445.342 342.73 445.342 353.144C445.342 363.559 446.199 373.115 447.208 380.755C448.676 391.868 457.204 400.396 468.317 401.864C475.956 402.872 485.513 403.73 495.927 403.73C506.341 403.73 515.898 402.872 523.538 401.864C534.65 400.396 543.179 391.868 544.646 380.755C545.655 373.115 546.513 363.559 546.513 353.144C546.513 342.73 545.655 333.174 544.646 325.534C543.179 314.421 534.65 305.893 523.538 304.425C515.898 303.416 506.341 302.559 495.927 302.559C485.513 302.559 475.956 303.416 468.317 304.425Z" fill="#4F27AA"/>
<path d="M480.752 348.086C486.34 348.086 490.869 343.556 490.869 337.969C490.869 332.381 486.34 327.852 480.752 327.852C475.165 327.852 470.635 332.381 470.635 337.969C470.635 343.556 475.165 348.086 480.752 348.086ZM526.893 356.722L535.969 365.799C535.656 370.535 535.199 374.929 534.695 378.832L519.739 363.876C518.79 362.927 517.503 362.394 516.162 362.394C514.82 362.394 513.534 362.927 512.585 363.876L501.6 374.861C495.674 380.788 486.065 380.788 480.138 374.861L479.27 373.993C478.321 373.044 477.035 372.511 475.693 372.511C474.352 372.511 473.065 373.044 472.117 373.993L459.93 386.18C458.518 384.266 457.574 381.968 457.239 379.43C457.048 377.985 456.872 376.539 456.711 375.091L464.963 366.839C470.889 360.913 480.498 360.913 486.424 366.839L487.292 367.707C487.762 368.176 488.319 368.549 488.933 368.803C489.547 369.058 490.205 369.188 490.869 369.188C491.533 369.188 492.191 369.058 492.805 368.803C493.419 368.549 493.976 368.176 494.446 367.707L505.431 356.722C511.358 350.796 520.966 350.796 526.893 356.722Z" fill="white"/>
<path d="M779.484 228.051H411.516C409.307 228.051 407.516 229.842 407.516 232.051V256.649C407.516 258.858 409.307 260.649 411.516 260.649H779.484C781.693 260.649 783.484 258.858 783.484 256.649V232.051C783.484 229.842 781.693 228.051 779.484 228.051Z" fill="white" stroke="#E1E4E5" stroke-width="4"/>
<path d="M431.421 244.351C431.421 241.35 428.989 238.918 425.988 238.918C422.987 238.918 420.555 241.35 420.555 244.351C420.555 247.352 422.987 249.784 425.988 249.784C428.989 249.784 431.421 247.352 431.421 244.351Z" fill="#E1E4E5"/>
<path d="M450.98 244.351C450.98 241.35 448.548 238.918 445.547 238.918C442.546 238.918 440.114 241.35 440.114 244.351C440.114 247.352 442.546 249.784 445.547 249.784C448.548 249.784 450.98 247.352 450.98 244.351Z" fill="#E1E4E5"/>
<path d="M470.539 244.351C470.539 241.35 468.107 238.918 465.106 238.918C462.106 238.918 459.673 241.35 459.673 244.351C459.673 247.352 462.106 249.784 465.106 249.784C468.107 249.784 470.539 247.352 470.539 244.351Z" fill="#E1E4E5"/>
<path d="M595.49 90.5H177.682C175.473 90.5 173.682 92.2909 173.682 94.5V404.01C173.682 406.219 175.473 408.01 177.682 408.01H595.49C597.699 408.01 599.49 406.219 599.49 404.01V94.5C599.49 92.2909 597.699 90.5 595.49 90.5Z" fill="white" stroke="#E1E4E5" stroke-width="4"/>
<path d="M480.056 212.531H538.474M369.709 274.844H538.474M224.311 328.07H538.474M421.567 212.531H421.707M370.925 212.531H371.089" stroke="#4F27AA" stroke-width="24" stroke-linecap="round" stroke-linejoin="round"/>
<path d="M227.493 185.855H320.461V278.823H227.493V185.855Z" fill="#4F27AA"/>
<path fill-rule="evenodd" clip-rule="evenodd" d="M273.813 186.342C262.629 186.342 252.319 187.264 244.043 188.357C236.595 189.341 230.979 194.957 229.996 202.404C228.903 210.68 227.98 220.99 227.98 232.175C227.98 243.359 228.903 253.669 229.996 261.945C230.979 269.393 236.595 275.009 244.043 275.992C252.319 277.085 262.629 278.008 273.813 278.008C284.998 278.008 295.308 277.085 303.584 275.992C311.031 275.009 316.647 269.393 317.631 261.945C318.724 253.669 319.646 243.359 319.646 232.175C319.646 220.99 318.724 210.68 317.631 202.404C316.647 194.957 311.031 189.341 303.584 188.357C295.308 187.264 284.998 186.342 273.813 186.342ZM242.543 176.997C229.957 178.659 220.298 188.318 218.636 200.904C217.493 209.556 216.522 220.38 216.522 232.175C216.522 243.969 217.493 254.793 218.636 263.445C220.298 276.031 229.957 285.69 242.543 287.352C251.195 288.495 262.019 289.466 273.813 289.466C285.608 289.466 296.432 288.495 305.084 287.352C317.67 285.69 327.329 276.031 328.991 263.445C330.133 254.793 331.105 243.969 331.105 232.175C331.105 220.38 330.133 209.556 328.991 200.904C327.329 188.318 317.67 178.659 305.084 176.997C296.432 175.855 285.608 174.883 273.813 174.883C262.019 174.883 251.195 175.855 242.543 176.997Z" fill="#4F27AA"/>
<path d="M256.627 226.447C262.955 226.447 268.085 221.317 268.085 214.989C268.085 208.661 262.955 203.531 256.627 203.531C250.298 203.531 245.168 208.661 245.168 214.989C245.168 221.317 250.298 226.447 256.627 226.447ZM308.884 236.229L319.164 246.509C318.836 251.443 318.354 256.365 317.72 261.269L300.782 244.331C299.707 243.257 298.25 242.653 296.73 242.653C295.211 242.653 293.754 243.257 292.679 244.331L280.238 256.772C273.526 263.484 262.644 263.484 255.931 256.772L254.948 255.789C253.873 254.715 252.416 254.112 250.897 254.112C249.378 254.112 247.92 254.715 246.846 255.789L233.044 269.591C231.446 267.423 230.376 264.821 229.996 261.947C229.78 260.311 229.581 258.673 229.398 257.033L238.744 247.687C245.456 240.975 256.339 240.975 263.051 247.687L264.034 248.67C265.108 249.744 266.566 250.348 268.085 250.348C269.604 250.348 271.061 249.744 272.136 248.67L284.577 236.229C291.289 229.517 302.172 229.517 308.884 236.229Z" fill="white"/>
<path d="M595.49 90.5H177.682C175.473 90.5 173.682 92.2909 173.682 94.5V123.42C173.682 125.629 175.473 127.42 177.682 127.42H595.49C597.699 127.42 599.49 125.629 599.49 123.42V94.5C599.49 92.2909 597.699 90.5 595.49 90.5Z" fill="white" stroke="#E1E4E5" stroke-width="4"/>
<path d="M194.603 102.809H194.602C191.204 102.809 188.449 105.563 188.449 108.962V108.963C188.449 112.361 191.204 115.116 194.602 115.116H194.603C198.001 115.116 200.756 112.361 200.756 108.963V108.962C200.756 105.563 198.001 102.809 194.603 102.809Z" fill="#E1E4E5"/>
<path d="M216.755 102.809H216.754C213.356 102.809 210.601 105.563 210.601 108.962V108.963C210.601 112.361 213.356 115.116 216.754 115.116H216.755C220.153 115.116 222.908 112.361 222.908 108.963V108.962C222.908 105.563 220.153 102.809 216.755 102.809Z" fill="#E1E4E5"/>
<path d="M238.907 102.809H238.906C235.508 102.809 232.753 105.563 232.753 108.962V108.963C232.753 112.361 235.508 115.116 238.906 115.116H238.907C242.305 115.116 245.06 112.361 245.06 108.963V108.962C245.06 105.563 242.305 102.809 238.907 102.809Z" fill="#E1E4E5"/>
<path d="M671.053 99.1638C675.614 96.5307 680.787 95.1445 686.053 95.1445C691.319 95.1445 696.492 96.5307 701.053 99.1638L722.672 111.646C727.233 114.279 731.02 118.066 733.653 122.626C736.286 127.187 737.672 132.36 737.672 137.626V162.59C737.672 167.856 736.286 173.029 733.653 177.59C731.02 182.151 727.233 185.938 722.672 188.571L701.053 201.053C696.492 203.686 691.319 205.072 686.053 205.072C680.787 205.072 675.614 203.686 671.053 201.053L649.434 188.571C644.873 185.938 641.086 182.151 638.453 177.59C635.82 173.029 634.434 167.856 634.434 162.59V137.626C634.434 132.36 635.82 127.187 638.453 122.626C641.086 118.066 644.874 114.279 649.434 111.646L671.053 99.1638Z" fill="#4F27AA"/>
<path d="M704.489 138.973L682.732 160.556L669.678 147.606" stroke="white" stroke-width="8.45" stroke-linecap="round" stroke-linejoin="round"/>
<path d="M770.875 175.321C763.911 175.321 758.266 180.966 758.266 187.93C758.266 194.894 763.911 200.539 770.875 200.539C777.839 200.539 783.484 194.894 783.484 187.93C783.484 180.966 777.839 175.321 770.875 175.321Z" fill="#4F27AA"/>
<path d="M124.393 255.562C120.595 255.562 117.516 258.641 117.516 262.439C117.516 266.237 120.595 269.316 124.393 269.316C128.191 269.316 131.27 266.237 131.27 262.439C131.27 258.641 128.191 255.562 124.393 255.562Z" fill="#4F27AA"/>
<path d="M245.16 488.155C234.404 488.155 225.684 479.435 225.684 468.679C225.684 457.923 234.404 449.203 245.16 449.203C255.916 449.203 264.636 457.923 264.636 468.679C264.636 479.435 255.916 488.155 245.16 488.155Z" fill="#4F27AA"/>
<path d="M725.179 345.412C720.159 345.412 716.09 341.343 716.09 336.323C716.09 331.304 720.159 327.234 725.179 327.234C730.199 327.234 734.268 331.304 734.268 336.323C734.268 341.343 730.199 345.412 725.179 345.412Z" fill="#4F27AA"/>
<path d="M361.889 480.671C355.436 480.671 350.204 475.439 350.204 468.986C350.204 462.532 355.436 457.301 361.889 457.301C368.342 457.301 373.574 462.532 373.574 468.986C373.574 475.439 368.342 480.671 361.889 480.671Z" fill="#E1E4E5"/>
<path d="M134.396 417.699C125.074 417.699 117.517 410.142 117.517 400.82C117.517 391.498 125.074 383.941 134.396 383.941C143.718 383.941 151.275 391.498 151.275 400.82C151.275 410.142 143.718 417.699 134.396 417.699Z" fill="#E1E4E5"/>
<path d="M698.9 550.622C691.805 550.622 686.054 544.87 686.054 537.776C686.054 530.681 691.805 524.93 698.9 524.93C705.995 524.93 711.746 530.681 711.746 537.776C711.746 544.87 705.995 550.622 698.9 550.622Z" fill="#E1E4E5"/>
<path d="M761.706 109.988C757.908 109.988 754.829 106.652 754.829 102.537C754.829 98.4219 757.908 95.0859 761.706 95.0859C765.504 95.0859 768.583 98.4219 768.583 102.537C768.583 106.652 765.504 109.988 761.706 109.988Z" fill="#E1E4E5"/>
<path d="M574.744 376.723C574.744 383.806 569.002 389.548 561.919 389.548C554.836 389.548 549.094 383.806 549.094 376.723C549.094 369.64 554.836 363.898 561.919 363.898C569.002 363.898 574.744 369.64 574.744 376.723Z" fill="#E1E4E5"/>
<path d="M293.276 59.676C290.328 59.676 287.938 57.2861 287.938 54.338C287.938 51.3899 290.328 49 293.276 49C296.224 49 298.614 51.3899 298.614 54.338C298.614 57.2861 296.224 59.676 293.276 59.676Z" fill="#E1E4E5"/>
<path d="M754.198 309.801C746.949 309.801 741.073 305.1 741.073 299.301C741.073 293.502 746.949 288.801 754.198 288.801C761.447 288.801 767.323 293.502 767.323 299.301C767.323 305.1 761.447 309.801 754.198 309.801Z" fill="#E1E4E5"/>
<path d="M569.99 58.2053C571.317 63.1586 568.377 68.2499 563.424 69.5771C558.471 70.9043 553.38 67.9648 552.052 63.0116C550.725 58.0584 553.665 52.967 558.618 51.6398C563.571 50.3126 568.662 53.2521 569.99 58.2053Z" fill="#E1E4E5"/>
</g>
<defs>
<linearGradient id="paint0_linear_1235_30189" x1="489.288" y1="830.982" x2="473.878" y2="-495.67" gradientUnits="userSpaceOnUse">
<stop stop-color="white"/>
<stop offset="1" stop-color="#EEEEEE"/>
</linearGradient>
<clipPath id="clip0_1235_30189">
<rect width="900" height="600" fill="white"/>
</clipPath>
</defs>
</svg>
