<svg width="900" height="600" viewBox="0 0 900 600" fill="none" xmlns="http://www.w3.org/2000/svg">
<g clip-path="url(#clip0_1235_30240)">
<path d="M450.022 562.128C595.032 562.128 712.586 444.574 712.586 299.564C712.586 154.554 595.032 37 450.022 37C305.012 37 187.458 154.554 187.458 299.564C187.458 444.574 305.012 562.128 450.022 562.128Z" fill="#4F27AA"/>
<path d="M191.213 188.55L306.796 157.58C314.759 155.446 321.921 153.921 328.558 153.521C363.762 149.8 378.986 170.144 395.629 232.256L425.173 342.515C441.816 404.627 438.803 429.857 406.455 444.237C400.507 447.209 393.542 449.47 385.58 451.603L269.996 482.574C262.034 484.707 254.872 486.232 248.234 486.632C213.031 490.353 197.807 470.01 181.164 407.897L151.62 297.638C134.977 235.526 137.989 210.296 170.337 195.916C176.286 192.944 183.251 190.684 191.213 188.55Z" fill="white" stroke="#4F27AA" stroke-width="11"/>
<path d="M288.958 251.7L330.069 240.684M225.2 319.14L225.435 319.077L342.658 287.668M237.18 363.85L237.415 363.787L354.638 332.377M249.16 408.56L249.395 408.497L366.618 377.087M248.954 262.419L249.059 262.391M213.716 271.861L213.821 271.833" stroke="#4F27AA" stroke-width="24" stroke-linecap="round" stroke-linejoin="round"/>
<path d="M592.56 157.58L708.143 188.55C716.106 190.684 723.071 192.944 729.019 195.916C761.367 210.296 764.38 235.526 747.737 297.638L718.193 407.897C701.55 470.01 686.326 490.353 651.122 486.632C644.484 486.232 637.323 484.707 629.36 482.574L513.777 451.603C505.814 449.47 498.849 447.209 492.901 444.237C460.553 429.858 457.541 404.627 474.184 342.515L503.727 232.256C520.37 170.144 535.594 149.8 570.798 153.521C577.436 153.921 584.598 155.446 592.56 157.58Z" fill="white" stroke="#4F27AA" stroke-width="11"/>
<path d="M645.635 261.141L686.746 272.157M556.698 287.667L556.933 287.73L674.156 319.139M544.718 332.376L544.953 332.439L662.176 363.849M532.738 377.086L532.973 377.149L650.196 408.559M605.63 250.422L605.736 250.45M570.392 240.98L570.498 241.008" stroke="#4F27AA" stroke-width="24" stroke-linecap="round" stroke-linejoin="round"/>
<path d="M380.284 126.25H518.697C528.232 126.25 536.691 126.691 544.226 128.231C584.674 134.613 595.593 161.9 595.593 236.281V368.318C595.593 442.698 584.674 469.986 544.226 476.367C536.691 477.908 528.232 478.348 518.697 478.348H380.284C370.749 478.348 362.29 477.908 354.755 476.367C314.307 469.986 303.388 442.698 303.388 368.318V236.281C303.388 161.9 314.307 134.613 354.755 128.231C362.29 126.691 370.749 126.25 380.284 126.25Z" fill="white" stroke="#4F27AA" stroke-width="11"/>
<path d="M470.589 226.07H519.819M379.162 282.333H519.819M379.162 335.873H519.819M379.162 389.414H519.819M422.683 226.07H422.809M380.485 226.07H380.612" stroke="#4F27AA" stroke-width="24" stroke-linecap="round" stroke-linejoin="round"/>
</g>
<defs>
<clipPath id="clip0_1235_30240">
<rect width="900" height="600" fill="white"/>
</clipPath>
</defs>
</svg>
