<svg width="900" height="600" viewBox="0 0 900 600" fill="none" xmlns="http://www.w3.org/2000/svg">
<g clip-path="url(#clip0_1235_30249)">
<path fill-rule="evenodd" clip-rule="evenodd" d="M297.448 274.581C313.79 274.581 306.144 248.639 285.439 254.835C284.293 218.815 225.642 192.46 201.389 241.043C194.532 235.611 179.135 245.871 182.545 254.835C174.928 255.485 168.936 256.367 164.274 257.535C153.509 260.233 155.64 274.459 166.736 274.36L297.448 274.581Z" fill="white" stroke="#E1E4E5" stroke-width="11"/>
<path fill-rule="evenodd" clip-rule="evenodd" d="M297.897 183.519H363.455C369.316 183.519 371.842 175.868 367.045 172.475C366.978 172.426 366.91 172.378 366.842 172.331C360.013 167.599 351.05 168.029 351.05 168.029C351.05 168.029 349.771 142.426 325.657 142.426C303.855 142.426 295.161 163.998 292.025 175.883C291.006 179.744 293.934 183.519 297.897 183.519Z" fill="white" stroke="#E1E4E5" stroke-width="4"/>
<path fill-rule="evenodd" clip-rule="evenodd" d="M199.905 180.085H243.923C247.859 180.085 249.554 174.915 246.334 172.623C246.289 172.59 246.243 172.557 246.197 172.525C241.612 169.328 235.594 169.618 235.594 169.618C235.594 169.618 234.735 152.319 218.544 152.319C203.906 152.319 198.068 166.895 195.963 174.925C195.279 177.534 197.244 180.085 199.905 180.085ZM148.448 125.389H103.494C99.4739 125.389 97.7429 120.22 101.032 117.927C101.078 117.894 101.124 117.861 101.171 117.83C105.854 114.632 112 114.923 112 114.923C112 114.923 112.877 97.6229 129.413 97.6229C144.362 97.6229 150.324 112.199 152.474 120.23C153.173 122.839 151.165 125.389 148.448 125.389ZM101.326 197.737H146.28C150.299 197.737 152.031 192.361 148.742 189.976C148.696 189.942 148.649 189.908 148.602 189.875C143.919 186.55 137.774 186.852 137.774 186.852C137.774 186.852 136.896 168.86 120.361 168.86C105.411 168.86 99.4489 184.019 97.2989 192.371C96.6009 195.084 98.6079 197.737 101.326 197.737ZM303.64 111.062H217.075C210.067 111.062 207.044 102.17 212.781 98.2249L213.024 98.0589C221.191 92.5589 231.91 93.0589 231.91 93.0589C231.91 93.0589 233.441 63.3049 262.279 63.3049C276.536 63.3049 288.059 87.1829 288.059 87.1829C288.059 87.1829 307.454 87.1829 310.664 102.186C311.634 106.731 308.381 111.062 303.64 111.062ZM571.621 187.962C583.675 187.962 578.035 168.773 562.764 173.356C561.918 146.712 518.658 127.217 500.77 163.154C495.713 159.136 484.356 166.725 486.871 173.356C481.253 173.837 476.833 174.49 473.395 175.354C465.455 177.349 467.027 187.872 475.21 187.799L571.621 187.962ZM719.902 183.76H785.46C791.322 183.76 793.847 176.11 789.051 172.716C788.984 172.668 788.916 172.619 788.848 172.572C782.018 167.84 773.056 168.27 773.056 168.27C773.056 168.27 771.776 142.667 747.662 142.667C725.86 142.667 717.166 164.239 714.03 176.124C713.012 179.985 715.939 183.76 719.902 183.76ZM528.912 109.108H572.929C576.865 109.108 578.56 103.938 575.34 101.645L575.204 101.548C570.618 98.3509 564.6 98.6409 564.6 98.6409C564.6 98.6409 563.741 81.3419 547.55 81.3419C532.912 81.3419 527.075 95.9179 524.969 103.948C524.285 106.557 526.251 109.108 528.912 109.108ZM646.167 152.422H601.213C597.194 152.422 595.462 147.253 598.751 144.96C598.797 144.927 598.843 144.894 598.89 144.863C603.573 141.665 609.719 141.956 609.719 141.956C609.719 141.956 610.596 124.656 627.132 124.656C642.082 124.656 648.043 139.232 650.194 147.263C650.892 149.872 648.885 152.422 646.167 152.422ZM396.253 92.1809H441.207C445.227 92.1809 446.958 86.8049 443.669 84.4209C443.623 84.3861 443.577 84.3521 443.53 84.3189C438.847 80.9939 432.701 81.2959 432.701 81.2959C432.701 81.2959 431.824 63.3049 415.289 63.3049C400.339 63.3049 394.377 78.4639 392.227 86.8149C391.528 89.5279 393.536 92.1809 396.253 92.1809ZM743.35 103.554H656.785C649.777 103.554 646.754 94.6629 652.491 90.7179C652.571 90.6629 652.653 90.6059 652.734 90.5519C660.901 85.0519 671.62 85.5509 671.62 85.5509C671.62 85.5509 673.151 55.7969 701.989 55.7969C716.246 55.7969 727.769 79.6759 727.769 79.6759C727.769 79.6759 747.164 79.6759 750.374 94.6789C751.344 99.2239 748.091 103.554 743.35 103.554Z" fill="white" stroke="#E1E4E5" stroke-width="11"/>
<path d="M178.427 415.242L90.0918 552.212H271.53L183.195 415.242C182.818 414.658 181.998 414.14 180.81 414.14C179.622 414.14 178.803 414.658 178.426 415.242H178.427ZM599.606 391.221L493.461 552.212H713.264L607.119 391.221C606.467 390.232 605.124 389.473 603.363 389.473C601.601 389.473 600.258 390.232 599.606 391.221Z" fill="white" stroke="#E1E4E5" stroke-width="11"/>
<path d="M308.254 354.591L178.148 552.209H449.446L319.341 354.591C318.289 352.994 316.251 351.934 313.797 351.934C311.343 351.934 309.305 352.994 308.254 354.591ZM696.128 397.247L589.982 558.238H809.786L703.641 397.247C702.988 396.258 701.646 395.499 699.884 395.499C698.122 395.499 696.78 396.258 696.128 397.247Z" fill="white" stroke="#E1E4E5" stroke-width="11"/>
<path d="M313.797 527.649L341.738 545.687L369.325 527.649L341.738 457.973L313.797 527.649Z" fill="white" stroke="#E1E4E5" stroke-width="11"/>
<path d="M345.47 509.609V557.71M326.897 517.159L344.232 529.542" stroke="#E1E4E5" stroke-width="11"/>
<path d="M388.87 527.649L416.811 545.687L444.398 527.649L416.811 457.973L388.87 527.649Z" fill="white" stroke="#E1E4E5" stroke-width="11"/>
<path d="M420.542 509.609V557.71M401.969 517.159L419.304 529.542" stroke="#E1E4E5" stroke-width="11"/>
<path d="M463.942 520.551L498.479 542.847L532.58 520.551L498.479 434.426L463.942 520.551Z" fill="white" stroke="#E1E4E5" stroke-width="11"/>
<path d="M501.793 498.254V557.711M479.38 508.643L500.807 523.949" stroke="#E1E4E5" stroke-width="11"/>
<path d="M654.713 160.202C644.936 202.851 598.678 229.52 550.547 218.487C502.415 207.454 472.392 163.299 482.168 120.65C491.944 78.0004 538.202 51.3324 586.334 62.3654C634.466 73.3984 664.489 117.552 654.713 160.202Z" fill="white" stroke="#E1E4E5" stroke-width="11"/>
<path d="M764.175 265.566C761.663 276.525 753.478 286.244 739.567 294.222C725.649 302.205 706.488 308.134 683.225 311.586C636.734 318.486 575.033 315.324 509.253 300.245C443.472 285.166 386.554 261.138 347.711 234.677C328.274 221.437 313.608 207.754 304.557 194.506C295.51 181.265 292.376 168.951 294.888 157.993C297.4 147.034 305.585 137.315 319.495 129.337C333.413 121.355 352.574 115.425 375.838 111.973C422.329 105.073 484.029 108.236 549.81 123.314C615.591 138.393 672.508 162.421 711.352 188.882C730.789 202.123 745.454 215.806 754.506 229.053C763.552 242.294 766.687 254.608 764.175 265.566Z" fill="white" stroke="#E1E4E5" stroke-width="11"/>
<path d="M408.102 162.057C426.177 163.13 441.199 157.765 441.655 150.073C442.112 142.382 427.83 135.277 409.756 134.204C391.681 133.131 376.659 138.497 376.203 146.188C375.746 153.88 390.028 160.984 408.102 162.057Z" fill="#E1E4E5"/>
<path d="M498.024 173.053C515.886 176.013 531.388 172.25 532.647 164.648C533.907 157.047 520.447 148.486 502.584 145.526C484.722 142.567 469.22 146.33 467.961 153.931C466.702 161.533 480.161 170.094 498.024 173.053Z" fill="#E1E4E5"/>
<path d="M588.986 200.089C605.729 206.981 621.679 206.792 624.612 199.667C627.545 192.542 616.349 181.179 599.606 174.287C582.863 167.396 566.913 167.585 563.98 174.709C561.047 181.834 572.243 193.197 588.986 200.089Z" fill="#E1E4E5"/>
<path d="M511.816 270.538C557.897 282.048 599.224 275.483 604.122 255.874C609.02 236.265 575.634 211.038 529.552 199.528C483.471 188.018 442.144 194.584 437.247 214.193C432.349 233.802 465.735 259.029 511.816 270.538Z" fill="#E1E4E5"/>
<path d="M680.531 246.304C695.69 256.205 711.395 259.002 715.608 252.551C719.822 246.1 710.948 232.844 695.789 222.943C680.63 213.042 664.925 210.245 660.712 216.696C656.499 223.147 665.372 236.403 680.531 246.304Z" fill="#E1E4E5"/>
<path d="M236.34 558.425L438.738 210.501C545.38 199.345 592.514 238.856 602.75 260.005L561.572 558.425H236.34Z" fill="#4F27AA"/>
<path d="M405.479 435.977H412.416V448.164H405.479V462.649H389.682V448.164H363.291L362.354 438.508L389.682 394.539V394.399H405.479V435.977ZM377.4 435.977H389.682V414.977L388.697 416.571L377.4 435.977ZM466.744 434.758C466.744 443.977 464.666 451.086 460.51 456.086C456.385 461.086 450.557 463.586 443.025 463.586C435.432 463.586 429.557 461.071 425.4 456.039C421.244 451.008 419.166 443.914 419.166 434.758V422.289C419.166 413.071 421.229 405.961 425.354 400.961C429.51 395.961 435.369 393.461 442.932 393.461C450.494 393.461 456.354 395.977 460.51 401.008C464.666 406.039 466.744 413.149 466.744 422.336V434.758ZM450.947 420.274C450.947 415.367 450.307 411.711 449.025 409.305C447.744 406.867 445.713 405.649 442.932 405.649C440.213 405.649 438.229 406.774 436.979 409.024C435.76 411.274 435.104 414.68 435.01 419.242V436.68C435.01 441.774 435.65 445.508 436.932 447.883C438.213 450.227 440.244 451.399 443.025 451.399C445.713 451.399 447.697 450.258 448.979 447.977C450.26 445.664 450.916 442.055 450.947 437.149V420.274ZM516.666 435.977H523.604V448.164H516.666V462.649H500.869V448.164H474.479L473.541 438.508L500.869 394.539V394.399H516.666V435.977ZM488.588 435.977H500.869V414.977L499.885 416.571L488.588 435.977Z" fill="white"/>
<path d="M140.44 548.413V534.117" stroke="#E1E4E5" stroke-width="4"/>
<path d="M155.835 548.413V538.516" stroke="#E1E4E5" stroke-width="4"/>
<path d="M125.043 548.413V538.516" stroke="#E1E4E5" stroke-width="4"/>
<path d="M215.512 548.413V534.117" stroke="#E1E4E5" stroke-width="4"/>
<path d="M230.908 548.413V538.516" stroke="#E1E4E5" stroke-width="4"/>
<path d="M200.116 548.413V538.516" stroke="#E1E4E5" stroke-width="4"/>
<path d="M671.309 553.296V539" stroke="#E1E4E5" stroke-width="4"/>
<path d="M686.705 553.295V543.398" stroke="#E1E4E5" stroke-width="4"/>
<path d="M655.913 553.295V543.398" stroke="#E1E4E5" stroke-width="4"/>
</g>
<defs>
<clipPath id="clip0_1235_30249">
<rect width="900" height="600" fill="white"/>
</clipPath>
</defs>
</svg>
