<svg width="900" height="600" viewBox="0 0 900 600" fill="none" xmlns="http://www.w3.org/2000/svg">
<g clip-path="url(#clip0_1235_18972)">
<path d="M577.533 505.801H360.591V496.474C360.591 490.864 365.145 486.311 370.766 486.311H567.776C573.164 486.311 577.533 490.675 577.533 496.056V505.801Z" fill="#E1E4E5"/>
<path d="M476 134V335H454.674C454.674 326.039 446.312 313.012 442.13 307.619C388.816 263.437 370 237.791 370 198.096C370 160.759 391.953 140.845 405.751 134H476ZM476 134V335H496.923C496.923 326.039 505.128 313.012 509.231 307.619C561.539 263.437 580 237.791 580 198.096C580 160.759 558.462 140.845 544.923 134H476Z" fill="#4F27AA"/>
<path d="M476 486V286H454.674C454.674 294.916 446.312 307.878 442.13 313.245C388.816 357.207 370 382.725 370 422.223C370 459.375 391.953 479.189 405.751 486H476ZM476 486V286H496.923C496.923 294.916 505.128 307.878 509.231 313.245C561.539 357.207 580 382.725 580 422.223C580 459.375 558.462 479.189 544.923 486H476Z" fill="#4F27AA"/>
<path d="M540.168 176.002C528.669 176.18 508.896 178.294 476.907 186.523C455.006 192.155 417.248 187.915 397.275 184.995C390.268 183.971 384 189.51 384 196.73V205.471C384 229.56 447.556 281.742 464.363 295.117C466.91 297.143 468.398 300.252 468.398 303.546V437.502C468.398 442.077 466.186 446.336 462.512 448.959C449.295 458.393 427.023 486 427.023 486H511.257C511.257 486 488.669 459.358 475.99 449.467C474.554 448.343 473.394 446.906 472.596 445.266C471.799 443.626 471.386 441.826 471.388 440.003V303.509C471.388 300.233 472.847 297.135 475.357 295.087C491.834 281.631 554 229.256 554 205.185V189.892C554 182.134 547.775 175.883 540.168 176.002Z" fill="white"/>
<path d="M567.413 134.242H370.348C364.96 134.242 360.591 129.878 360.591 124.497V114.752H577.533V124.134C577.533 129.719 573.004 134.242 567.413 134.242Z" fill="#E1E4E5"/>
<path d="M207.43 307.254C216.155 316.134 232.469 314.261 232.469 314.261C232.469 314.261 234.628 297.992 225.895 289.118C217.171 280.238 200.865 282.105 200.865 282.105C200.865 282.105 198.706 298.374 207.43 307.254Z" fill="url(#paint0_linear_1235_18972)"/>
<path d="M606.818 133.557C602.676 137.772 594.932 136.883 594.932 136.883C594.932 136.883 593.907 129.16 598.052 124.948C602.194 120.733 609.934 121.619 609.934 121.619C609.934 121.619 610.959 129.342 606.818 133.557Z" fill="url(#paint1_linear_1235_18972)"/>
<path d="M343.176 170.704C337.863 176.112 327.928 174.972 327.928 174.972C327.928 174.972 326.613 165.064 331.931 159.66C337.244 154.253 347.174 155.389 347.174 155.389C347.174 155.389 348.489 165.297 343.176 170.704Z" fill="url(#paint2_linear_1235_18972)"/>
<path d="M709.876 511.071C686.872 511.49 680.784 513.269 656.904 512.536C645.53 512.641 633.39 512.327 622.27 512.118C616.984 510.757 607.687 512.118 601.417 510.967L599.011 511.699C596.86 511.28 594.344 511.071 592.157 511.49L592.303 511.699C589.094 511.176 585.449 511.49 583.881 511.176L584.027 511.385L580.126 511.281L580.782 511.594C575.168 510.967 569.408 510.966 564.304 511.176L564.741 510.234C553.841 511.28 549.867 509.397 540.06 510.548L540.206 510.757C527.774 508.35 520.592 512.432 507.796 510.129C509.4 510.443 507.103 510.548 507.249 510.862C501.343 510.652 495.072 510.443 494.963 508.664C490.661 508.664 491.463 509.187 490.916 509.92C490.952 509.187 487.197 508.769 483.843 508.769L485.374 509.083L475.75 508.769L477.646 507.303C472.542 507.722 476.333 509.083 471.484 508.769L471.557 507.513C464.521 507.722 460.365 509.606 453.548 510.548C425.184 511.071 394.706 507.931 368.348 510.129L367.181 511.071C366.671 512.432 359.89 509.083 358.905 510.338L355.843 509.711C354.968 509.92 353.145 510.234 354.676 510.548C351.833 510.652 351.76 510.338 349.718 510.024L346.656 510.862C335.464 511.49 325.948 509.92 314.173 510.234C300.027 511.908 273.378 510.339 258.029 509.501C236.447 507.513 211.364 512.85 189.271 510.548C188.542 510.757 186.683 510.339 186.719 510.129L166.486 510.338C166.486 510.338 68.4529 510.862 142.935 499.663L142.424 499.349C153.507 498.617 160.47 498.512 168.09 499.977C169.293 498.198 177.168 499.768 179.756 499.244L179.501 499.14C186.245 500.5 193.391 497.989 199.917 499.244C199.662 499.14 199.516 498.617 198.021 498.617C202.76 498.826 209.25 499.245 209.614 498.198C220.952 498.512 236.738 497.989 243.993 499.663L243.483 499.349C247.603 500.5 248.842 499.558 253.472 500.082C253.727 499.977 254.055 499.872 253.982 499.768C258.503 500.919 267.143 499.977 270.753 500.396L270.971 499.663L279.94 499.872L276.586 499.977C277.752 501.861 283.367 498.721 289.856 499.977C295.944 499.768 302.215 503.954 308.522 503.012C311.548 503.954 305.861 501.547 310.381 502.28C310.527 501.233 308.267 501.652 309.433 500.814C313.845 501.338 316.688 499.768 322.157 500.5L322.376 499.768C329.485 501.233 335.792 498.721 340.531 500.082C347.859 500.71 345.453 497.779 353.109 499.244L356.098 498.198C359.379 497.989 358.432 499.454 362.077 498.93C361.858 498.303 366.671 498.407 364.52 497.779C372.723 496.733 381.181 499.244 392.008 497.465C394.342 498.721 399.81 497.989 401.56 498.93C401.852 498.407 412.461 498.826 406.372 497.57C405.862 497.465 404.914 497.465 404.987 497.675L404.258 496.942C410.419 495.477 415.45 497.779 421.575 497.465C419.752 497.675 417.346 497.675 418.95 498.198L424.637 498.093L423.471 497.465L431.929 497.047L430.762 497.884C434.882 497.465 436.34 496.105 441.006 497.256C443.121 497.884 437.106 498.303 441.444 498.617C446.985 498.093 455.261 497.256 462.297 497.047C461.641 497.989 463.537 497.884 465.505 498.093L465.724 497.361C473.198 498.407 468.459 495.686 475.896 496.523L475.239 496L477.208 497.675C483.916 499.245 480.817 496.105 488.255 498.198C485.302 498.093 486.869 499.872 490.479 499.558L489.567 498.826C491.572 499.035 492.228 499.349 493.577 499.14C492.374 498.721 492.958 498.093 495.911 498.198L493.942 497.256L499.52 498.617C503.822 497.779 510.639 498.826 512.426 497.779C512.426 497.779 521.686 497.256 523.8 498.407C521.941 497.675 527.045 497.361 525.586 496.523C527.993 497.361 535.065 497.989 537.909 497.151L537.362 497.047C547.862 496.105 555.299 498.303 564.705 497.151C564.267 498.093 569.262 497.57 568.022 498.721C577.756 499.872 585.777 496.314 589.313 499.977C593.761 500.186 594.563 499.14 596.86 498.93L595.802 498.721C604.115 499.035 606.521 499.035 612.682 498.93C615.744 499.244 616.255 500.919 621.76 500.5C619.973 499.873 622.234 499.977 624.275 499.977C622.963 499.872 622.562 499.663 625.26 499.14C625.624 499.349 626.244 499.454 626.791 499.558C626.827 499.558 626.937 499.454 626.864 499.349C630.291 499.559 629.707 499.768 628.103 499.872C628.176 499.977 628.067 500.082 627.556 500.291C631.129 499.454 637.509 500.396 637.947 499.244C648.3 499.558 655.701 500.71 664.305 501.128C665.289 500.5 663.248 499.977 660.769 499.768L666.893 499.977C666.857 499.14 663.394 499.454 661.498 499.349C668.789 497.989 676.518 500.71 685.049 499.454L686.835 500.082L687.346 499.977C687.309 500.291 689.242 500.814 690.481 500.919C691.684 500.186 690.408 499.244 694.637 499.244C697.991 498.512 704.116 499.559 708.491 499.977C706.121 500.082 706.887 500.5 707.908 500.814C710.022 500.814 711.225 500.082 712.866 500.396L713.084 499.454C712.246 500.396 718.589 500.5 719.391 500.814C720.595 500.082 716.11 500.186 715.6 499.663C724.058 499.768 719.829 499.663 728.323 499.768C732.844 500.5 727.485 500.71 729.672 501.547C733.646 501.756 737.547 502.384 742.141 501.861L740.682 502.698C748.192 503.431 752.677 503.326 757.708 502.384C813.56 509.501 769.483 512.118 769.483 512.118C747.39 514.316 736.052 511.804 709.876 511.071Z" fill="#E1E4E5"/>
<path d="M235.302 376.704L229.871 386.025L229.743 386.247C229.426 386.793 229.321 387.438 229.449 388.057C229.577 388.676 229.928 389.227 230.435 389.604L237.674 394.96C237.794 395.049 237.904 395.145 238.002 395.248C238.683 395.976 238.908 397.054 238.497 397.983C236.164 403.492 234.953 409.412 234.937 415.396C234.932 415.638 234.896 415.878 234.828 416.111C234.696 416.541 234.456 416.93 234.131 417.24C233.805 417.55 233.405 417.771 232.969 417.882L225.662 419.635C225.198 419.752 224.775 419.995 224.44 420.337C224.105 420.678 223.869 421.106 223.76 421.572C223.696 421.868 223.681 422.173 223.715 422.475L225.122 433.403C225.207 434.055 225.534 434.652 226.038 435.076C226.543 435.499 227.187 435.717 227.845 435.688L237.832 435.252C238.816 435.212 239.732 435.739 240.189 436.615C240.864 437.873 241.596 439.1 242.382 440.293C243.847 442.506 245.506 444.584 247.339 446.504L247.346 446.515C248.098 447.303 248.289 448.447 247.824 449.431L243.483 458.61L243.27 459.074C242.996 459.648 242.948 460.304 243.135 460.913C243.323 461.521 243.732 462.036 244.282 462.357L253.801 467.917C254.363 468.241 255.025 468.349 255.661 468.218C256.296 468.087 256.862 467.727 257.25 467.207L263.21 459.145C263.529 458.708 263.978 458.384 264.493 458.218C265.008 458.053 265.562 458.055 266.075 458.225C270.515 459.638 275.148 460.353 279.807 460.344C280.384 460.347 280.943 460.544 281.394 460.903C281.846 461.262 282.164 461.762 282.297 462.324L284.391 470.984C284.542 471.614 284.922 472.166 285.456 472.533C285.991 472.9 286.642 473.056 287.285 472.972L298.25 471.565C298.873 471.484 299.443 471.172 299.848 470.691C300.252 470.21 300.461 469.594 300.434 468.967L299.939 457.219C299.918 456.73 300.033 456.244 300.273 455.817C300.512 455.39 300.866 455.039 301.294 454.802C304.41 453.083 307.315 451.007 309.949 448.615C310.316 448.269 310.78 448.043 311.279 447.966C311.777 447.889 312.288 447.966 312.742 448.186L323.763 453.423C324.346 453.698 325.011 453.745 325.627 453.555C326.244 453.365 326.766 452.95 327.092 452.394L332.673 442.836C332.954 442.343 333.066 441.772 332.992 441.209C332.918 440.647 332.661 440.124 332.262 439.722C332.178 439.639 332.086 439.548 331.98 439.48L323.045 432.859C322.637 432.564 322.325 432.154 322.148 431.682C321.972 431.211 321.939 430.697 322.054 430.207C322.072 430.118 322.089 430.031 322.125 429.946C322.214 429.687 322.301 429.446 322.365 429.174C323.348 426.119 324.001 422.968 324.313 419.775C324.4 418.705 325.188 417.815 326.251 417.569L335.392 415.35C336.019 415.196 336.568 414.815 336.932 414.282C337.296 413.748 337.451 413.099 337.366 412.459L337.058 410.028L335.956 401.549C335.793 400.217 334.628 399.244 333.283 399.294L323.445 399.723C322.393 399.776 321.443 399.151 321.032 398.182C319.934 395.585 318.598 393.097 317.04 390.748C315.875 388.988 314.586 387.314 313.184 385.737L314.099 383.813L317.834 375.908C318.061 375.439 318.136 374.911 318.049 374.397C317.961 373.884 317.716 373.411 317.346 373.044C317.191 372.885 317.013 372.75 316.819 372.643L307.248 367.027C306.698 366.713 306.053 366.611 305.433 366.74C304.814 366.869 304.263 367.219 303.883 367.726L299.821 373.242C299.482 373.696 299.003 374.027 298.457 374.181C297.911 374.336 297.33 374.305 296.803 374.096C292.383 372.277 287.702 371.173 282.935 370.824C281.81 370.743 280.881 369.965 280.646 368.895L278 357.946C277.854 357.354 277.496 356.837 276.994 356.492C276.492 356.147 275.88 356 275.276 356.077L264.193 357.516C263.563 357.592 262.986 357.904 262.577 358.389C262.168 358.874 261.958 359.495 261.988 360.129L262.507 372.351C262.532 372.865 262.401 373.375 262.131 373.813C261.862 374.252 261.466 374.599 260.996 374.81C258.902 375.77 256.889 376.897 254.974 378.178C253.93 378.869 252.915 379.604 251.932 380.381C251.556 380.676 251.106 380.861 250.632 380.916C250.158 380.971 249.677 380.894 249.244 380.694L238.678 375.677C238.089 375.395 237.415 375.345 236.791 375.535C236.166 375.725 235.635 376.142 235.302 376.704ZM258.181 426.483C256.82 423.83 255.865 420.817 255.413 417.454C255.309 416.741 255.279 415.935 255.285 415.087C255.361 411.435 256.458 407.014 258.072 404.273C270.451 383.324 300.01 389.039 303.909 412.718C303.968 413.107 304.028 413.497 304.077 413.895C304.552 417.594 303.382 423.29 301.522 426.516C300.588 428.136 299.505 429.665 298.287 431.085C286.538 444.596 265.941 441.591 258.181 426.483Z" fill="url(#paint3_linear_1235_18972)"/>
<path d="M371.027 344.456L376.459 335.136L376.587 334.913C376.904 334.366 377.009 333.721 376.881 333.102C376.753 332.483 376.402 331.933 375.894 331.557L368.656 326.201C368.538 326.114 368.429 326.018 368.328 325.913C367.647 325.184 367.422 324.107 367.832 323.177C370.166 317.668 371.377 311.748 371.393 305.765C371.397 305.516 371.436 305.276 371.501 305.05C371.632 304.619 371.873 304.23 372.199 303.92C372.524 303.61 372.925 303.389 373.361 303.279L380.668 301.526C381.132 301.407 381.554 301.164 381.89 300.823C382.225 300.481 382.46 300.055 382.57 299.589C382.628 299.305 382.652 298.998 382.615 298.685L381.207 287.758C381.122 287.105 380.795 286.508 380.291 286.084C379.786 285.661 379.142 285.443 378.484 285.473L368.497 285.909C368.015 285.929 367.538 285.811 367.12 285.57C366.703 285.329 366.363 284.973 366.14 284.546C364.219 280.938 361.813 277.611 358.99 274.656L358.984 274.646C358.616 274.266 358.374 273.784 358.288 273.262C358.203 272.741 358.279 272.206 358.506 271.73L362.846 262.55L363.059 262.086C363.333 261.512 363.381 260.855 363.194 260.247C363.007 259.639 362.598 259.124 362.048 258.804L352.529 253.244C351.967 252.919 351.305 252.812 350.669 252.943C350.033 253.073 349.467 253.433 349.079 253.954L343.12 262.016C342.801 262.452 342.352 262.777 341.837 262.942C341.322 263.107 340.768 263.105 340.254 262.936C335.814 261.523 331.182 260.807 326.523 260.816C325.946 260.812 325.387 260.615 324.935 260.257C324.484 259.898 324.166 259.398 324.032 258.837L321.939 250.176C321.787 249.545 321.408 248.994 320.873 248.627C320.339 248.26 319.688 248.104 319.045 248.189L308.079 249.596C307.456 249.677 306.886 249.989 306.482 250.47C306.078 250.951 305.869 251.566 305.896 252.194L306.391 263.942C306.412 264.431 306.296 264.916 306.057 265.342C305.818 265.769 305.464 266.121 305.036 266.358C301.92 268.076 299.015 270.153 296.381 272.546C296.013 272.891 295.549 273.117 295.051 273.194C294.552 273.271 294.041 273.194 293.587 272.975L282.567 267.738C281.984 267.462 281.319 267.415 280.702 267.605C280.086 267.796 279.564 268.21 279.238 268.767L273.657 278.324C273.376 278.816 273.263 279.388 273.337 279.95C273.411 280.513 273.668 281.035 274.067 281.439C274.152 281.521 274.244 281.613 274.349 281.681L283.284 288.302C284.118 288.912 284.515 289.952 284.276 290.953C284.258 291.042 284.241 291.13 284.204 291.215C284.115 291.474 284.029 291.714 283.965 291.986C282.982 295.04 282.328 298.192 282.017 301.386C281.929 302.455 281.141 303.346 280.079 303.592L270.938 305.811C270.311 305.965 269.762 306.345 269.398 306.879C269.033 307.412 268.879 308.061 268.963 308.702L269.272 311.133L270.373 319.611C270.455 320.253 270.775 320.842 271.27 321.26C271.765 321.678 272.4 321.894 273.047 321.867L282.884 321.438C283.936 321.385 284.886 322.01 285.298 322.979C287.219 327.526 289.87 331.729 293.146 335.423L292.231 337.348L288.495 345.253C288.268 345.721 288.193 346.249 288.281 346.763C288.368 347.276 288.614 347.749 288.984 348.116C289.135 348.276 289.312 348.404 289.51 348.518L299.082 354.134C299.632 354.447 300.277 354.548 300.896 354.42C301.515 354.291 302.066 353.941 302.446 353.435L306.509 347.919C306.848 347.464 307.327 347.133 307.873 346.979C308.419 346.824 309 346.855 309.527 347.065C313.947 348.883 318.627 349.987 323.394 350.337C324.52 350.418 325.449 351.196 325.684 352.265L328.33 363.214C328.475 363.805 328.833 364.323 329.336 364.668C329.838 365.013 330.449 365.161 331.054 365.084L342.137 363.644C342.766 363.567 343.343 363.255 343.752 362.77C344.161 362.286 344.371 361.665 344.341 361.032L343.823 348.809C343.798 348.295 343.929 347.785 344.199 347.347C344.468 346.908 344.863 346.561 345.333 346.351C347.427 345.389 349.441 344.263 351.356 342.983C352.4 342.29 353.414 341.555 354.397 340.779C354.773 340.484 355.223 340.299 355.697 340.244C356.171 340.189 356.652 340.266 357.085 340.467L367.652 345.484C368.241 345.765 368.914 345.816 369.539 345.625C370.164 345.435 370.695 345.018 371.027 344.456ZM348.149 294.678C349.509 297.331 350.464 300.343 350.916 303.707C351.021 304.419 351.051 305.226 351.045 306.073C350.969 309.726 349.871 314.147 348.257 316.888C335.878 337.837 306.319 332.121 302.42 308.443C302.361 308.053 302.301 307.664 302.253 307.266C301.777 303.567 302.948 297.871 304.807 294.645C305.741 293.025 306.825 291.495 308.043 290.076C319.792 276.564 340.389 279.569 348.149 294.678Z" fill="url(#paint4_linear_1235_18972)"/>
<path d="M637.69 346.637L642.515 338.347L642.629 338.149C642.911 337.663 643.004 337.09 642.89 336.539C642.777 335.989 642.465 335.499 642.014 335.164L635.583 330.401C635.479 330.325 635.381 330.239 635.292 330.145C634.687 329.497 634.487 328.539 634.852 327.712C636.925 322.812 638 317.547 638.015 312.226C638.019 312.005 638.053 311.791 638.111 311.59C638.228 311.208 638.441 310.862 638.73 310.586C639.02 310.31 639.375 310.113 639.763 310.015L646.254 308.456C646.667 308.351 647.042 308.135 647.34 307.831C647.638 307.527 647.847 307.148 647.944 306.733C647.996 306.481 648.018 306.208 647.984 305.93L646.734 296.211C646.659 295.631 646.369 295.1 645.921 294.724C645.473 294.347 644.9 294.153 644.315 294.179L635.443 294.567C635.015 294.585 634.59 294.481 634.219 294.266C633.849 294.051 633.547 293.735 633.349 293.355C631.642 290.148 629.505 287.188 626.997 284.559L626.991 284.55C626.665 284.213 626.449 283.783 626.373 283.32C626.297 282.857 626.364 282.381 626.566 281.957L630.422 273.793L630.612 273.38C630.856 272.869 630.898 272.286 630.732 271.745C630.565 271.204 630.202 270.746 629.713 270.461L621.257 265.516C620.758 265.227 620.169 265.132 619.604 265.248C619.039 265.365 618.536 265.685 618.192 266.148L612.898 273.317C612.615 273.706 612.216 273.994 611.758 274.141C611.301 274.289 610.808 274.287 610.352 274.136C606.408 272.879 602.293 272.243 598.154 272.251C597.641 272.248 597.144 272.072 596.743 271.753C596.342 271.434 596.059 270.989 595.941 270.49L594.082 262.788C593.948 262.228 593.611 261.737 593.136 261.41C592.661 261.084 592.082 260.945 591.511 261.02L581.769 262.271C581.215 262.344 580.709 262.622 580.35 263.049C579.991 263.477 579.805 264.024 579.83 264.582L580.269 275.03C580.288 275.465 580.186 275.896 579.973 276.276C579.761 276.655 579.446 276.968 579.066 277.179C576.297 278.707 573.717 280.554 571.377 282.682C571.051 282.99 570.639 283.191 570.195 283.259C569.752 283.327 569.299 283.259 568.895 283.064L559.105 278.406C558.587 278.161 557.995 278.119 557.448 278.289C556.9 278.458 556.436 278.827 556.147 279.322L551.189 287.822C550.94 288.26 550.84 288.768 550.906 289.268C550.972 289.768 551.199 290.233 551.554 290.592C551.629 290.665 551.711 290.746 551.805 290.807L559.742 296.695C560.105 296.957 560.383 297.321 560.539 297.741C560.696 298.16 560.725 298.617 560.623 299.053C560.607 299.132 560.592 299.21 560.559 299.286C560.48 299.516 560.404 299.73 560.347 299.972C559.473 302.689 558.893 305.491 558.616 308.331C558.574 308.798 558.385 309.24 558.075 309.593C557.766 309.945 557.353 310.19 556.895 310.293L548.774 312.267C548.216 312.404 547.729 312.743 547.405 313.217C547.082 313.692 546.944 314.269 547.02 314.838L547.294 317L548.272 324.541C548.344 325.112 548.629 325.635 549.069 326.007C549.508 326.378 550.072 326.571 550.647 326.547L559.387 326.165C560.321 326.117 561.165 326.673 561.531 327.535C562.506 329.844 563.693 332.057 565.077 334.146C566.112 335.711 567.257 337.2 568.503 338.603L567.69 340.315L564.371 347.345C564.125 347.853 564.082 348.436 564.249 348.975C564.417 349.514 564.783 349.969 565.273 350.249L573.776 355.244C574.265 355.522 574.838 355.612 575.388 355.498C575.939 355.383 576.428 355.071 576.765 354.621L580.374 349.716C580.675 349.311 581.1 349.018 581.585 348.88C582.07 348.743 582.587 348.77 583.055 348.957C586.981 350.574 591.14 351.556 595.375 351.866C596.374 351.938 597.2 352.63 597.408 353.582L599.759 363.319C599.888 363.845 600.206 364.305 600.652 364.611C601.099 364.918 601.642 365.05 602.179 364.982L612.025 363.702C612.584 363.633 613.097 363.356 613.46 362.924C613.823 362.493 614.01 361.941 613.983 361.378L613.523 350.508C613.501 350.051 613.617 349.598 613.856 349.208C614.096 348.818 614.447 348.509 614.864 348.322C616.724 347.467 618.513 346.465 620.214 345.326C621.142 344.711 622.044 344.057 622.917 343.366C623.251 343.104 623.65 342.94 624.071 342.891C624.493 342.841 624.919 342.91 625.304 343.088L634.692 347.551C635.216 347.801 635.814 347.846 636.369 347.677C636.923 347.507 637.395 347.136 637.69 346.637ZM617.366 302.365C618.574 304.725 619.423 307.404 619.824 310.396C619.917 311.029 619.944 311.747 619.938 312.5C619.871 315.749 618.896 319.681 617.462 322.118C606.465 340.75 580.206 335.666 576.742 314.608C576.69 314.261 576.636 313.915 576.593 313.561C576.171 310.271 577.211 305.205 578.863 302.336C579.693 300.895 580.655 299.535 581.737 298.273C592.174 286.256 610.472 288.929 617.366 302.365Z" fill="url(#paint5_linear_1235_18972)"/>
<path d="M728.344 440.745L733.776 431.425L733.904 431.202C734.221 430.655 734.325 430.01 734.197 429.392C734.07 428.773 733.718 428.222 733.211 427.846L725.972 422.49C725.855 422.403 725.745 422.307 725.644 422.202C724.964 421.474 724.739 420.396 725.149 419.466C727.483 413.957 728.694 408.037 728.71 402.054C728.714 401.805 728.753 401.565 728.818 401.339C728.949 400.908 729.19 400.519 729.516 400.209C729.841 399.899 730.242 399.678 730.678 399.568L737.985 397.815C738.449 397.697 738.871 397.453 739.207 397.112C739.542 396.77 739.777 396.344 739.887 395.878C739.944 395.594 739.969 395.287 739.931 394.974L738.524 384.047C738.439 383.394 738.112 382.797 737.608 382.373C737.104 381.95 736.459 381.732 735.801 381.762L725.814 382.198C724.83 382.238 723.914 381.711 723.457 380.835C721.536 377.228 719.13 373.9 716.307 370.945L716.301 370.935C715.933 370.555 715.691 370.073 715.605 369.552C715.519 369.031 715.595 368.496 715.822 368.019L720.163 358.839L720.376 358.375C720.65 357.801 720.698 357.144 720.511 356.536C720.324 355.928 719.915 355.413 719.365 355.093L709.846 349.533C709.284 349.208 708.622 349.101 707.986 349.232C707.35 349.362 706.784 349.722 706.396 350.243L700.437 358.305C700.118 358.741 699.668 359.066 699.154 359.231C698.639 359.396 698.085 359.394 697.571 359.225C693.131 357.812 688.499 357.097 683.84 357.105C683.263 357.102 682.704 356.905 682.252 356.546C681.801 356.187 681.482 355.687 681.349 355.126L679.256 346.465C679.104 345.834 678.725 345.283 678.19 344.916C677.656 344.549 677.005 344.393 676.362 344.478L665.396 345.885C664.773 345.966 664.203 346.278 663.799 346.759C663.395 347.24 663.186 347.855 663.213 348.483L663.708 360.231C663.729 360.72 663.613 361.205 663.374 361.631C663.135 362.058 662.781 362.41 662.353 362.647C659.237 364.365 656.332 366.442 653.698 368.835C653.33 369.18 652.866 369.406 652.368 369.483C651.869 369.56 651.358 369.483 650.904 369.264L639.884 364.027C639.301 363.751 638.635 363.704 638.019 363.894C637.403 364.085 636.88 364.499 636.554 365.056L630.974 374.613C630.693 375.105 630.58 375.677 630.654 376.239C630.728 376.802 630.985 377.325 631.384 377.728C631.469 377.81 631.56 377.902 631.666 377.97L640.601 384.591C641.435 385.201 641.832 386.241 641.593 387.242C641.575 387.331 641.558 387.419 641.521 387.504C641.432 387.763 641.346 388.003 641.282 388.275C640.299 391.329 639.646 394.481 639.334 397.675C639.246 398.744 638.458 399.635 637.396 399.881L628.255 402.1C627.627 402.254 627.079 402.634 626.714 403.167C626.35 403.701 626.195 404.35 626.28 404.991L626.589 407.422L627.69 415.9C627.853 417.233 629.019 418.206 630.364 418.156L640.201 417.727C641.253 417.674 642.203 418.299 642.615 419.268C643.712 421.864 645.048 424.352 646.606 426.701C647.772 428.46 649.06 430.134 650.462 431.712L649.548 433.637L645.812 441.542C645.585 442.01 645.51 442.538 645.598 443.052C645.685 443.565 645.931 444.038 646.301 444.405C646.452 444.565 646.629 444.693 646.827 444.807L656.399 450.423C656.949 450.736 657.594 450.837 658.213 450.709C658.832 450.58 659.383 450.23 659.763 449.724L663.826 444.208C664.165 443.753 664.644 443.422 665.19 443.268C665.736 443.113 666.317 443.144 666.844 443.354C671.264 445.172 675.944 446.276 680.711 446.626C681.836 446.707 682.765 447.485 683.001 448.555L685.647 459.503C685.792 460.094 686.15 460.612 686.653 460.957C687.155 461.302 687.766 461.45 688.371 461.373L699.454 459.934C700.083 459.856 700.66 459.544 701.069 459.06C701.477 458.575 701.688 457.954 701.658 457.321L701.14 445.098C701.115 444.584 701.246 444.074 701.516 443.636C701.785 443.197 702.18 442.85 702.65 442.64C704.743 441.678 706.757 440.552 708.672 439.272C709.716 438.58 710.731 437.845 711.714 437.068C712.09 436.773 712.54 436.588 713.014 436.533C713.488 436.478 713.969 436.555 714.402 436.756L724.969 441.773C725.558 442.054 726.231 442.105 726.856 441.914C727.481 441.724 728.012 441.307 728.344 440.745ZM705.466 390.967C706.826 393.62 707.781 396.632 708.233 399.996C708.338 400.708 708.368 401.515 708.361 402.363C708.286 406.015 707.188 410.436 705.574 413.177C693.195 434.126 663.636 428.41 659.737 404.732C659.678 404.342 659.618 403.953 659.57 403.555C659.094 399.856 660.265 394.16 662.124 390.934C663.059 389.314 664.142 387.784 665.36 386.365C677.109 372.853 697.706 375.858 705.466 390.967Z" fill="url(#paint6_linear_1235_18972)"/>
<path d="M258 227C263.523 227 268 231.701 268 237.5C268 243.299 263.523 248 258 248C252.477 248 248 243.299 248 237.5C248 231.701 252.477 227 258 227Z" fill="#E1E4E5"/>
<path d="M184 365C189.523 365 194 369.477 194 375C194 380.523 189.523 385 184 385C178.477 385 174 380.523 174 375C174 369.477 178.477 365 184 365Z" fill="#4F27AA"/>
<path d="M687 282C695.837 282 703 288.94 703 297.5C703 306.06 695.837 313 687 313C678.163 313 671 306.06 671 297.5C671 288.94 678.163 282 687 282Z" fill="#4F27AA"/>
<path d="M486 200C495.941 200 504 208.059 504 218C504 227.941 495.941 236 486 236C476.059 236 468 227.941 468 218C468 208.059 476.059 200 486 200Z" fill="url(#paint7_linear_1235_18972)"/>
<path d="M652.5 160C656.642 160 660 156.642 660 152.5C660 148.358 656.642 145 652.5 145C648.358 145 645 148.358 645 152.5C645 156.642 648.358 160 652.5 160Z" fill="#F8AE9D"/>
<path d="M336.5 216C340.642 216 344 212.418 344 208C344 203.582 340.642 200 336.5 200C332.358 200 329 203.582 329 208C329 212.418 332.358 216 336.5 216Z" fill="#F8AE9D"/>
<path d="M276 168C280.418 168 284 164.642 284 160.5C284 156.358 280.418 153 276 153C271.582 153 268 156.358 268 160.5C268 164.642 271.582 168 276 168Z" fill="#E1E4E5"/>
<path d="M613 216C616.866 216 620 212.418 620 208C620 203.582 616.866 200 613 200C609.134 200 606 203.582 606 208C606 212.418 609.134 216 613 216Z" fill="#E1E4E5"/>
<path d="M770.5 435C774.642 435 778 431.642 778 427.5C778 423.358 774.642 420 770.5 420C766.358 420 763 423.358 763 427.5C763 431.642 766.358 435 770.5 435Z" fill="#E1E4E5"/>
<path d="M336.5 486C340.642 486 344 482.642 344 478.5C344 474.358 340.642 471 336.5 471C332.358 471 329 474.358 329 478.5C329 482.642 332.358 486 336.5 486Z" fill="#E1E4E5"/>
<path d="M618.5 471C622.642 471 626 467.642 626 463.5C626 459.358 622.642 456 618.5 456C614.358 456 611 459.358 611 463.5C611 467.642 614.358 471 618.5 471Z" fill="#E1E4E5"/>
<path d="M656.5 243C658.433 243 660 241.433 660 239.5C660 237.567 658.433 236 656.5 236C654.567 236 653 237.567 653 239.5C653 241.433 654.567 243 656.5 243Z" fill="#E1E4E5"/>
<path d="M736.5 359C738.433 359 740 357.657 740 356C740 354.343 738.433 353 736.5 353C734.567 353 733 354.343 733 356C733 357.657 734.567 359 736.5 359Z" fill="#E1E4E5"/>
<path d="M315.5 135C317.433 135 319 133.209 319 131C319 128.791 317.433 127 315.5 127C313.567 127 312 128.791 312 131C312 133.209 313.567 135 315.5 135Z" fill="#E1E4E5"/>
<path d="M183.5 331C185.433 331 187 329.433 187 327.5C187 325.567 185.433 324 183.5 324C181.567 324 180 325.567 180 327.5C180 329.433 181.567 331 183.5 331Z" fill="#E1E4E5"/>
<path d="M609 163C610.657 163 612 161.433 612 159.5C612 157.567 610.657 156 609 156C607.343 156 606 157.567 606 159.5C606 161.433 607.343 163 609 163Z" fill="#E1E4E5"/>
<path d="M743.5 478C745.433 478 747 476.433 747 474.5C747 472.567 745.433 471 743.5 471C741.567 471 740 472.567 740 474.5C740 476.433 741.567 478 743.5 478Z" fill="#E1E4E5"/>
<path d="M663 118C664.657 118 666 116.433 666 114.5C666 112.567 664.657 111 663 111C661.343 111 660 112.567 660 114.5C660 116.433 661.343 118 663 118Z" fill="#E1E4E5"/>
<path d="M304.5 219C306.433 219 308 217.657 308 216C308 214.343 306.433 213 304.5 213C302.567 213 301 214.343 301 216C301 217.657 302.567 219 304.5 219Z" fill="#E1E4E5"/>
<path d="M187 473C189.209 473 191 471.433 191 469.5C191 467.567 189.209 466 187 466C184.791 466 183 467.567 183 469.5C183 471.433 184.791 473 187 473Z" fill="#E1E4E5"/>
<path d="M247 348C248.657 348 250 346.433 250 344.5C250 342.567 248.657 341 247 341C245.343 341 244 342.567 244 344.5C244 346.433 245.343 348 247 348Z" fill="#E1E4E5"/>
</g>
<defs>
<linearGradient id="paint0_linear_1235_18972" x1="242.239" y1="337.585" x2="179.167" y2="238.713" gradientUnits="userSpaceOnUse">
<stop stop-color="white"/>
<stop offset="1" stop-color="#EEEEEE"/>
</linearGradient>
<linearGradient id="paint1_linear_1235_18972" x1="590.294" y1="147.955" x2="620.234" y2="101.021" gradientUnits="userSpaceOnUse">
<stop stop-color="white"/>
<stop offset="1" stop-color="#EEEEEE"/>
</linearGradient>
<linearGradient id="paint2_linear_1235_18972" x1="321.978" y1="189.174" x2="360.388" y2="128.965" gradientUnits="userSpaceOnUse">
<stop stop-color="white"/>
<stop offset="1" stop-color="#EEEEEE"/>
</linearGradient>
<linearGradient id="paint3_linear_1235_18972" x1="278.119" y1="290.494" x2="281.827" y2="600.201" gradientUnits="userSpaceOnUse">
<stop stop-color="white"/>
<stop offset="1" stop-color="#EEEEEE"/>
</linearGradient>
<linearGradient id="paint4_linear_1235_18972" x1="328.211" y1="430.667" x2="324.502" y2="120.96" gradientUnits="userSpaceOnUse">
<stop stop-color="white"/>
<stop offset="1" stop-color="#EEEEEE"/>
</linearGradient>
<linearGradient id="paint5_linear_1235_18972" x1="599.654" y1="423.308" x2="596.351" y2="147.868" gradientUnits="userSpaceOnUse">
<stop stop-color="white"/>
<stop offset="1" stop-color="#EEEEEE"/>
</linearGradient>
<linearGradient id="paint6_linear_1235_18972" x1="685.528" y1="526.956" x2="681.819" y2="217.249" gradientUnits="userSpaceOnUse">
<stop stop-color="white"/>
<stop offset="1" stop-color="#EEEEEE"/>
</linearGradient>
<linearGradient id="paint7_linear_1235_18972" x1="504.768" y1="161.816" x2="503.657" y2="257.162" gradientUnits="userSpaceOnUse">
<stop stop-color="white"/>
<stop offset="1" stop-color="#EEEEEE"/>
</linearGradient>
<clipPath id="clip0_1235_18972">
<rect width="900" height="600" fill="white"/>
</clipPath>
</defs>
</svg>
