<svg width="900" height="600" viewBox="0 0 900 600" fill="none" xmlns="http://www.w3.org/2000/svg">
<g clip-path="url(#clip0_1235_30309)">
<path d="M558.715 452.2C546.446 460.511 531.011 467.437 512.212 473.572L480.946 483.862C402.386 509.191 361.028 488.017 335.501 409.457L310.172 331.292C284.842 252.732 305.818 211.176 384.378 185.847L415.644 175.557C423.758 172.984 431.475 170.808 438.797 169.422C432.86 181.493 428.111 196.137 424.153 212.957L404.761 295.871C385.368 378.587 410.895 419.351 493.413 438.942L526.658 446.857C538.135 449.628 548.821 451.409 558.715 452.2Z" fill="#E1E4E5"/>
<path d="M689.318 275.092L669.925 357.808C653.303 429.244 620.454 458.136 558.714 452.199C548.82 451.408 538.134 449.627 526.657 446.856L493.412 438.941C410.894 419.35 385.367 378.586 404.759 295.87L424.152 212.956C428.11 196.136 432.859 181.492 438.796 169.421C461.948 121.533 501.327 108.671 567.421 124.303L600.468 132.021C683.382 151.414 708.711 192.376 689.318 275.092Z" fill="#4F27AA" stroke="#4F27AA" stroke-width="24" stroke-linecap="round" stroke-linejoin="round"/>
<path d="M476.652 302.44L573.565 322.724M487.115 255.595L631.248 287.787M499.086 201.996L643.219 234.189M465 359.639L522.952 371.857" stroke="white" stroke-width="24" stroke-linecap="round" stroke-linejoin="round"/>
<path d="M216 193.306V247.244C216 266.996 216 266.996 234.667 279.585L286 309.213C293.705 313.663 306.295 313.663 314 309.213L365.333 279.585C384 266.996 384 266.996 384 247.244V193.306C384 173.554 384 173.554 365.333 160.965L314 131.337C306.295 126.888 293.705 126.888 286 131.337L234.667 160.965C216 173.554 216 173.554 216 193.306Z" fill="#4F27AA" stroke="#4F27AA" stroke-width="24" stroke-linecap="round" stroke-linejoin="round"/>
<path d="M306.837 192.982L313.023 202.64C313.999 204.16 316.17 205.679 317.798 206.113L328.868 208.935C335.705 210.671 337.55 216.532 333.1 221.958L325.829 230.749C324.744 232.16 323.875 234.656 323.984 236.392L324.635 247.788C325.069 254.842 320.077 258.423 313.565 255.819L302.93 251.586C301.302 250.935 298.589 250.935 296.961 251.586L286.325 255.819C279.813 258.423 274.821 254.734 275.255 247.788L275.906 236.392C276.015 234.656 275.147 232.051 274.061 230.749L266.79 221.958C262.34 216.532 264.185 210.671 271.023 208.935L282.092 206.113C283.829 205.679 285.999 204.051 286.868 202.64L293.054 192.982C296.961 187.121 303.038 187.121 306.837 192.982Z" fill="white"/>
<path d="M669.984 489.912C659.293 495.216 645.103 488.397 645.103 488.397C645.103 488.397 648.256 472.982 658.954 467.685C669.645 462.382 683.83 469.194 683.83 469.194C683.83 469.194 680.676 484.609 669.984 489.912Z" fill="url(#paint0_linear_1235_30309)"/>
<path d="M195.381 340.013C207.69 347.39 225.35 340.571 225.35 340.571C225.35 340.571 223.041 321.793 210.724 314.424C198.415 307.047 180.763 313.858 180.763 313.858C180.763 313.858 183.072 332.636 195.381 340.013Z" fill="url(#paint1_linear_1235_30309)"/>
<path d="M404.237 101.001C398.583 101.001 393.999 105.584 393.999 111.239C393.999 116.893 398.583 121.477 404.237 121.477C409.891 121.477 414.475 116.893 414.475 111.239C414.475 105.584 409.891 101.001 404.237 101.001Z" fill="#4F27AA"/>
<path d="M339.255 506C328.621 506 320.001 514.62 320.001 525.254C320.001 535.887 328.621 544.508 339.255 544.508C349.888 544.508 358.509 535.887 358.509 525.254C358.509 514.62 349.888 506 339.255 506Z" fill="#4F27AA"/>
<path d="M574.284 531.568C565.843 531.568 559 524.725 559 516.284C559 507.843 565.843 501 574.284 501C582.725 501 589.568 507.843 589.568 516.284C589.568 524.725 582.725 531.568 574.284 531.568Z" fill="#4F27AA"/>
<path d="M237.233 378.466C231.581 378.466 227 373.885 227 368.233C227 362.581 231.581 358 237.233 358C242.884 358 247.466 362.581 247.466 368.233C247.466 373.885 242.884 378.466 237.233 378.466Z" fill="#4F27AA"/>
<path d="M201.208 445.414C194.466 445.414 189.001 439.949 189.001 433.207C189.001 426.465 194.466 421 201.208 421C207.95 421 213.415 426.465 213.415 433.207C213.415 439.949 207.95 445.414 201.208 445.414Z" fill="#E1E4E5"/>
<path d="M692.463 139.926C684.475 139.926 678 133.451 678 125.463C678 117.475 684.475 111 692.463 111C700.45 111 706.926 117.475 706.926 125.463C706.926 133.451 700.45 139.926 692.463 139.926Z" fill="#E1E4E5"/>
<path d="M577.18 91.36C567.139 91.36 559 83.2205 559 73.18C559 63.1395 567.139 55 577.18 55C587.22 55 595.36 63.1395 595.36 73.18C595.36 83.2205 587.22 91.36 577.18 91.36Z" fill="#E1E4E5"/>
<path d="M260.633 86.9498C262.697 94.6531 258.125 102.571 250.422 104.635C242.719 106.699 234.801 102.128 232.737 94.4245C230.673 86.7213 235.244 78.8033 242.947 76.7392C250.651 74.6751 258.569 79.2466 260.633 86.9498Z" fill="#E1E4E5"/>
<path d="M716.882 383.764C711.424 383.764 707 379.34 707 373.882C707 368.424 711.424 364 716.882 364C722.34 364 726.764 368.424 726.764 373.882C726.764 379.34 722.34 383.764 716.882 383.764Z" fill="#E1E4E5"/>
<path d="M278.777 467.642C270.616 467.642 264 462.35 264 455.821C264 449.292 270.616 444 278.777 444C286.938 444 293.554 449.292 293.554 455.821C293.554 462.35 286.938 467.642 278.777 467.642Z" fill="#E1E4E5"/>
</g>
<defs>
<linearGradient id="paint0_linear_1235_30309" x1="628.928" y1="506.456" x2="717.112" y2="436.702" gradientUnits="userSpaceOnUse">
<stop stop-color="white"/>
<stop offset="1" stop-color="#EEEEEE"/>
</linearGradient>
<linearGradient id="paint1_linear_1235_30309" x1="243.014" y1="363.76" x2="143.972" y2="271.737" gradientUnits="userSpaceOnUse">
<stop stop-color="white"/>
<stop offset="1" stop-color="#EEEEEE"/>
</linearGradient>
<clipPath id="clip0_1235_30309">
<rect width="900" height="600" fill="white"/>
</clipPath>
</defs>
</svg>
