<svg width="900" height="600" viewBox="0 0 900 600" fill="none" xmlns="http://www.w3.org/2000/svg">
<g clip-path="url(#clip0_1235_30328)">
<path d="M624.801 368.872C671.595 379.957 721.087 340.273 721.087 340.273C721.087 340.273 694.676 282.636 647.866 271.585C601.072 260.499 551.595 300.15 551.595 300.15C551.595 300.15 578.006 357.787 624.801 368.872Z" fill="url(#paint0_linear_1235_30328)"/>
<path d="M327.077 255.995C284.652 285.216 219.839 264.789 219.839 264.789C219.839 264.789 223.852 196.992 266.305 167.799C308.73 138.578 373.514 158.976 373.514 158.976C373.514 158.976 369.501 226.773 327.077 255.995Z" fill="url(#paint1_linear_1235_30328)"/>
<path d="M422.528 159.608C430.561 159.608 437.074 153.095 437.074 145.062C437.074 137.028 430.561 130.516 422.528 130.516C414.494 130.516 407.982 137.028 407.982 145.062C407.982 153.095 414.494 159.608 422.528 159.608Z" fill="#E1E4E5"/>
<path d="M592 439C596.418 439 600 436.314 600 433C600 429.686 596.418 427 592 427C587.582 427 584 429.686 584 433C584 436.314 587.582 439 592 439Z" fill="#E1E4E5"/>
<path d="M696 268C700.418 268 704 265.314 704 262C704 258.686 700.418 256 696 256C691.582 256 688 258.686 688 262C688 265.314 691.582 268 696 268Z" fill="#E1E4E5"/>
<path d="M370 421C374.418 421 378 418.314 378 415C378 411.686 374.418 409 370 409C365.582 409 362 411.686 362 415C362 418.314 365.582 421 370 421Z" fill="#E1E4E5"/>
<path d="M618 212C622.418 212 626 209.314 626 206C626 202.686 622.418 200 618 200C613.582 200 610 202.686 610 206C610 209.314 613.582 212 618 212Z" fill="#E1E4E5"/>
<path d="M228.746 357.918H228.504C227.071 377.875 211.969 378.182 211.969 378.182C211.969 378.182 228.622 378.501 228.622 401.561C228.622 378.501 245.275 378.182 245.275 378.182C245.275 378.182 230.18 377.875 228.746 357.918Z" fill="#E1E4E5"/>
<path d="M477 491H429V374H477V491Z" fill="white" stroke="#E1E4E5" stroke-width="11"/>
<path d="M514 511H391V480H514V511Z" fill="white" stroke="#E1E4E5" stroke-width="11" stroke-linejoin="round"/>
<path fill-rule="evenodd" clip-rule="evenodd" d="M551.22 202.551H341.579C304.74 202.551 274.875 232.416 274.875 269.255V374.076C274.875 384.596 283.414 393.134 293.934 393.134H598.866C609.386 393.134 617.924 384.596 617.924 374.076V269.255C617.924 232.416 588.06 202.551 551.22 202.551Z" fill="white" stroke="#E1E4E5" stroke-width="11"/>
<path d="M484.516 145.379V278.787" stroke="#E1E4E5" stroke-width="11"/>
<path d="M484.497 271.637C482.603 271.646 480.789 272.405 479.453 273.748C478.117 275.091 477.368 276.908 477.369 278.803C477.369 282.748 480.571 285.95 484.516 285.931C486.411 285.93 488.229 285.177 489.569 283.837C490.909 282.496 491.662 280.679 491.663 278.784C491.663 274.839 488.461 271.637 484.497 271.637Z" stroke="#E1E4E5" stroke-width="13.231" stroke-linecap="round" stroke-linejoin="round"/>
<path fill-rule="evenodd" clip-rule="evenodd" d="M341.579 202.551C378.419 202.551 408.283 232.416 408.283 269.255V393.134" fill="white"/>
<path d="M341.579 202.551C378.419 202.551 408.283 232.416 408.283 269.255V393.134" stroke="#E1E4E5" stroke-width="11"/>
<path d="M619.291 160.006C620.583 162.203 618.999 164.972 616.45 164.972H479.576C478.702 164.972 477.864 164.625 477.245 164.007C476.627 163.389 476.28 162.55 476.28 161.676V93.586C476.28 88.286 480.566 84 485.866 84H616.549C619.101 84 620.684 86.775 619.387 88.972L599.402 122.814C599.103 123.321 598.945 123.898 598.945 124.487C598.944 125.075 599.101 125.653 599.399 126.16L619.291 160.006Z" fill="#4F27AA"/>
<path d="M216.137 228.639L193.979 306.082C193.618 307.34 193.508 308.658 193.657 309.959C193.805 311.26 194.208 312.519 194.842 313.664C195.477 314.81 196.331 315.818 197.356 316.634C198.381 317.449 199.556 318.054 200.815 318.415L335.312 356.89C339.48 358.079 343.787 356.429 346.166 353.086C346.826 352.163 347.323 351.134 347.634 350.043L369.78 272.632C371.302 267.339 368.237 261.821 362.955 260.311L228.458 221.825C223.176 220.314 217.679 223.357 216.137 228.639Z" fill="white" stroke="#E1E4E5" stroke-width="11"/>
<path d="M193.624 309.49C193.762 311.536 194.527 313.49 195.815 315.085C197.104 316.68 198.853 317.84 200.824 318.405L335.311 356.891C337.291 357.456 339.398 357.393 341.342 356.712C343.285 356.031 344.97 354.764 346.164 353.087L277.667 290.676L193.624 309.49Z" fill="white" stroke="#E1E4E5" stroke-width="11"/>
<path d="M216.137 228.639L276.351 303.404L368.645 276.596L369.78 272.632C371.302 267.339 368.237 261.821 362.955 260.311L228.458 221.825C223.176 220.314 217.679 223.357 216.137 228.639Z" fill="white" stroke="#E1E4E5" stroke-width="11"/>
<path d="M218 269C246.719 269 270 245.719 270 217C270 188.281 246.719 165 218 165C189.281 165 166 188.281 166 217C166 245.719 189.281 269 218 269Z" fill="#4F27AA"/>
<path fill-rule="evenodd" clip-rule="evenodd" d="M206.207 193C196.505 193 190 201.94 190 210.265C190 227.164 217.008 241 217.5 241C217.992 241 245 227.164 245 210.265C245 201.94 238.495 193 228.793 193C223.247 193 219.605 195.715 217.5 198.133C215.395 195.715 211.752 193 206.207 193ZM561 516V480V516Z" fill="white"/>
<path d="M561 516V480" stroke="#E1E4E5" stroke-width="11"/>
<path d="M631 516V494" stroke="#E1E4E5" stroke-width="11"/>
<path d="M545 516V491" stroke="#E1E4E5" stroke-width="11"/>
<path d="M615 516V501" stroke="#E1E4E5" stroke-width="11"/>
<path d="M576 516V491" stroke="#E1E4E5" stroke-width="11"/>
<path d="M646 516V501" stroke="#E1E4E5" stroke-width="11"/>
<path d="M345 516V480" stroke="#E1E4E5" stroke-width="11"/>
<path d="M275 516V494" stroke="#E1E4E5" stroke-width="11"/>
<path d="M361 516V491" stroke="#E1E4E5" stroke-width="11"/>
<path d="M291 516V501" stroke="#E1E4E5" stroke-width="11"/>
<path d="M330 516V491" stroke="#E1E4E5" stroke-width="11"/>
<path d="M260 516V501" stroke="#E1E4E5" stroke-width="11"/>
</g>
<defs>
<linearGradient id="paint0_linear_1235_30328" x1="801.015" y1="396.435" x2="391.38" y2="202.909" gradientUnits="userSpaceOnUse">
<stop stop-color="white"/>
<stop offset="1" stop-color="#EEEEEE"/>
</linearGradient>
<linearGradient id="paint1_linear_1235_30328" x1="161.816" y1="351.874" x2="495.77" y2="-0.272275" gradientUnits="userSpaceOnUse">
<stop stop-color="white"/>
<stop offset="1" stop-color="#EEEEEE"/>
</linearGradient>
<clipPath id="clip0_1235_30328">
<rect width="900" height="600" fill="white"/>
</clipPath>
</defs>
</svg>
