<svg width="900" height="600" viewBox="0 0 900 600" fill="none" xmlns="http://www.w3.org/2000/svg">
<g clip-path="url(#clip0_1235_30375)">
<path d="M90.405 439.144C90.405 440.543 90.9604 441.884 91.9491 442.872C92.9378 443.861 94.2788 444.416 95.677 444.416H232.121C233.519 444.416 234.86 443.861 235.849 442.872C236.838 441.884 237.393 440.543 237.393 439.144C237.393 437.746 236.838 436.405 235.849 435.417C234.86 434.428 233.519 433.872 232.121 433.872H95.677C94.2788 433.872 92.9378 434.428 91.9491 435.417C90.9604 436.405 90.405 437.746 90.405 439.144ZM54.5 401.186C54.5 402.585 55.0554 403.926 56.0441 404.914C57.0328 405.903 58.3738 406.458 59.772 406.458H268.029C269.427 406.458 270.768 405.903 271.757 404.914C272.746 403.926 273.301 402.585 273.301 401.186C273.301 399.788 272.746 398.447 271.757 397.458C270.768 396.47 269.427 395.914 268.029 395.914H59.772C58.3738 395.914 57.0328 396.47 56.0441 397.458C55.0554 398.447 54.5 399.788 54.5 401.186ZM262.528 268.076C262.528 323.627 218.282 368.499 163.899 368.499C109.517 368.499 65.271 323.627 65.271 268.076C65.271 212.524 109.517 167.652 163.899 167.652C218.282 167.652 262.528 212.524 262.528 268.076Z" fill="white" stroke="#E1E4E5" stroke-width="11"/>
<path d="M165.693 260.782C177.528 260.782 187.123 251.187 187.123 239.352C187.123 227.516 177.528 217.922 165.693 217.922C153.858 217.922 144.263 227.516 144.263 239.352C144.263 251.187 153.858 260.782 165.693 260.782Z" fill="white" stroke="#E1E4E5" stroke-width="11"/>
<path d="M129.905 295.005C129.905 286.145 137.088 278.962 145.949 278.962H189.036C197.897 278.962 205.08 286.145 205.08 295.005C205.08 303.866 197.897 311.049 189.036 311.049H145.949C137.088 311.049 129.905 303.866 129.905 295.005ZM366.714 439.144C366.714 440.543 367.269 441.884 368.258 442.872C369.247 443.861 370.588 444.416 371.986 444.416H508.43C509.81 444.389 511.125 443.822 512.092 442.836C513.059 441.851 513.6 440.525 513.6 439.144C513.6 437.764 513.059 436.438 512.092 435.452C511.125 434.466 509.81 433.899 508.43 433.872H371.986C370.588 433.872 369.247 434.428 368.258 435.417C367.269 436.405 366.714 437.746 366.714 439.144ZM330.808 401.186C330.808 402.585 331.363 403.926 332.352 404.914C333.341 405.903 334.682 406.458 336.08 406.458H544.336C545.734 406.458 547.075 405.903 548.064 404.914C549.053 403.926 549.608 402.585 549.608 401.186C549.608 399.788 549.053 398.447 548.064 397.458C547.075 396.47 545.734 395.914 544.336 395.914H336.08C334.682 395.914 333.341 396.47 332.352 397.458C331.363 398.447 330.808 399.788 330.808 401.186ZM538.836 268.076C538.836 323.627 494.59 368.499 440.207 368.499C385.825 368.499 341.579 323.627 341.579 268.076C341.579 212.524 385.825 167.652 440.207 167.652C494.59 167.652 538.836 212.524 538.836 268.076Z" fill="white" stroke="#E1E4E5" stroke-width="11"/>
<path d="M442.001 260.782C453.836 260.782 463.431 251.187 463.431 239.352C463.431 227.516 453.836 217.922 442.001 217.922C430.166 217.922 420.571 227.516 420.571 239.352C420.571 251.187 430.166 260.782 442.001 260.782Z" fill="white" stroke="#E1E4E5" stroke-width="11"/>
<path d="M406.213 295.005C406.213 286.144 413.396 278.961 422.257 278.961H465.344C474.205 278.961 481.388 286.144 481.388 295.005C481.388 303.866 474.205 311.049 465.344 311.049H422.257C413.396 311.049 406.213 303.866 406.213 295.005ZM643.022 439.144C643.022 439.837 643.158 440.522 643.423 441.162C643.688 441.801 644.077 442.383 644.566 442.872C645.056 443.362 645.637 443.75 646.276 444.015C646.916 444.28 647.602 444.416 648.294 444.416H784.738C786.136 444.416 787.477 443.861 788.466 442.872C789.455 441.884 790.01 440.543 790.01 439.144C790.01 437.746 789.455 436.405 788.466 435.417C787.477 434.428 786.136 433.872 784.738 433.872H648.294C646.896 433.872 645.555 434.428 644.566 435.417C643.577 436.405 643.022 437.746 643.022 439.144ZM607.116 401.185C607.116 402.584 607.671 403.925 608.66 404.913C609.649 405.902 610.99 406.457 612.388 406.457H820.644C821.336 406.457 822.022 406.321 822.661 406.056C823.301 405.791 823.882 405.403 824.372 404.913C824.861 404.424 825.25 403.842 825.515 403.203C825.78 402.563 825.916 401.878 825.916 401.185C825.916 400.493 825.78 399.807 825.515 399.168C825.25 398.528 824.861 397.947 824.372 397.457C823.882 396.968 823.301 396.58 822.661 396.315C822.022 396.05 821.336 395.913 820.644 395.913H612.388C610.99 395.913 609.649 396.469 608.66 397.457C607.671 398.446 607.116 399.787 607.116 401.185ZM815.143 268.076C815.143 323.627 770.898 368.499 716.515 368.499C662.132 368.499 617.887 323.627 617.887 268.076C617.887 212.524 662.132 167.652 716.515 167.652C770.898 167.652 815.143 212.524 815.143 268.076Z" fill="white" stroke="#E1E4E5" stroke-width="11"/>
<path d="M718.309 260.782C730.144 260.782 739.739 251.187 739.739 239.352C739.739 227.516 730.144 217.922 718.309 217.922C706.474 217.922 696.879 227.516 696.879 239.352C696.879 251.187 706.474 260.782 718.309 260.782Z" fill="white" stroke="#E1E4E5" stroke-width="11"/>
<path d="M682.521 295.005C682.521 286.144 689.704 278.961 698.565 278.961H741.652C750.513 278.961 757.696 286.144 757.696 295.005C757.696 303.866 750.513 311.049 741.652 311.049H698.565C689.704 311.049 682.521 303.866 682.521 295.005Z" fill="white" stroke="#E1E4E5" stroke-width="11"/>
<path d="M637.114 115.495C628.933 115.495 622.301 122.127 622.301 130.308C622.301 138.489 628.933 145.121 637.114 145.121C645.295 145.121 651.927 138.489 651.927 130.308C651.927 122.127 645.295 115.495 637.114 115.495Z" fill="#4F27AA"/>
<path d="M361.352 141.34C356.89 141.34 353.272 144.958 353.272 149.42C353.272 153.882 356.89 157.5 361.352 157.5C365.814 157.5 369.432 153.882 369.432 149.42C369.432 144.958 365.814 141.34 361.352 141.34Z" fill="#4F27AA"/>
<path d="M571.198 259.995C566.981 259.995 563.562 256.576 563.562 252.359C563.562 248.141 566.981 244.723 571.198 244.723C575.415 244.723 578.834 248.141 578.834 252.359C578.834 256.576 575.415 259.995 571.198 259.995Z" fill="#4F27AA"/>
<path d="M314.608 295.448C308.711 295.448 303.931 290.667 303.931 284.771C303.931 278.874 308.711 274.094 314.608 274.094C320.505 274.094 325.285 278.874 325.285 284.771C325.285 290.667 320.505 295.448 314.608 295.448Z" fill="#4F27AA"/>
<path d="M578.465 471.897C570.883 471.897 564.737 465.751 564.737 458.169C564.737 450.588 570.883 444.441 578.465 444.441C586.047 444.441 592.193 450.588 592.193 458.169C592.193 465.751 586.047 471.897 578.465 471.897Z" fill="#E1E4E5"/>
<path d="M299.09 478.224C288.139 478.224 279.261 469.347 279.261 458.395C279.261 447.444 288.139 438.566 299.09 438.566C310.041 438.566 318.919 447.444 318.919 458.395C318.919 469.347 310.041 478.224 299.09 478.224Z" fill="#E1E4E5"/>
<path d="M719.63 508.692C711.295 508.692 704.538 501.935 704.538 493.6C704.538 485.265 711.295 478.508 719.63 478.508C727.965 478.508 734.722 485.265 734.722 493.6C734.722 501.935 727.965 508.692 719.63 508.692Z" fill="#E1E4E5"/>
<path d="M754.91 133.002C750.448 133.002 746.83 129.083 746.83 124.249C746.83 119.415 750.448 115.496 754.91 115.496C759.372 115.496 762.99 119.415 762.99 124.249C762.99 129.083 759.372 133.002 754.91 133.002Z" fill="#E1E4E5"/>
<path d="M588.997 347.903C588.997 356.224 582.251 362.97 573.93 362.97C565.609 362.97 558.863 356.224 558.863 347.903C558.863 339.582 565.609 332.836 573.93 332.836C582.251 332.836 588.997 339.582 588.997 347.903Z" fill="#E1E4E5"/>
<path d="M279.657 157.409C276.194 157.409 273.386 154.602 273.386 151.138C273.386 147.675 276.194 144.867 279.657 144.867C283.12 144.867 285.928 147.675 285.928 151.138C285.928 154.602 283.12 157.409 279.657 157.409Z" fill="#E1E4E5"/>
<path d="M836.261 372.775C827.745 372.775 820.842 367.253 820.842 360.44C820.842 353.628 827.745 348.105 836.261 348.105C844.777 348.105 851.68 353.628 851.68 360.44C851.68 367.253 844.777 372.775 836.261 372.775Z" fill="#E1E4E5"/>
<path d="M183.327 483.171C184.886 488.99 181.433 494.971 175.614 496.531C169.795 498.09 163.814 494.637 162.254 488.818C160.695 482.999 164.148 477.017 169.968 475.458C175.787 473.899 181.768 477.352 183.327 483.171Z" fill="#E1E4E5"/>
<path d="M495.232 100.66C499.793 98.0268 504.966 96.6406 510.232 96.6406C515.498 96.6406 520.671 98.0268 525.232 100.66L555.874 118.352C560.435 120.985 564.222 124.772 566.855 129.332C569.488 133.893 570.874 139.066 570.874 144.332V179.715C570.874 184.981 569.488 190.154 566.855 194.715C564.222 199.275 560.435 203.063 555.874 205.696L525.232 223.387C520.671 226.02 515.498 227.406 510.232 227.406C504.966 227.406 499.793 226.02 495.232 223.387L464.589 205.696C460.028 203.063 456.241 199.275 453.608 194.715C450.975 190.154 449.589 184.981 449.589 179.715V144.332C449.589 139.066 450.975 133.893 453.608 129.332C456.241 124.772 460.028 120.985 464.589 118.352L495.232 100.66Z" fill="#4F27AA"/>
<path d="M531.89 148.941L506.33 174.296L490.994 159.083" stroke="white" stroke-width="8.45" stroke-linecap="round" stroke-linejoin="round"/>
</g>
<defs>
<clipPath id="clip0_1235_30375">
<rect width="900" height="600" fill="white"/>
</clipPath>
</defs>
</svg>
