<svg width="900" height="600" viewBox="0 0 900 600" fill="none" xmlns="http://www.w3.org/2000/svg">
<g clip-path="url(#clip0_1235_30398)">
<path d="M467.113 538.18H443.368C442.612 538.18 442 533.024 442 526.666V401.401C442 395.043 442.612 389.887 443.368 389.887H467.113C467.869 389.887 468.481 395.043 468.481 401.401V526.666C468.481 533.024 467.869 538.18 467.113 538.18Z" fill="white" stroke="#E1E4E5" stroke-width="11"/>
<path d="M691.756 443.478H219.215C204.187 443.478 192 431.325 192 416.338V121.07C192 106.083 204.187 93.9297 219.215 93.9297H691.756C706.784 93.9297 718.971 106.083 718.971 121.07V416.338C718.971 431.325 706.784 443.478 691.756 443.478Z" fill="white" stroke="#E1E4E5" stroke-width="11"/>
<path d="M448.675 152.18H258.32C252.797 152.18 248.32 156.657 248.32 162.18V330.849C248.32 336.372 252.797 340.849 258.32 340.849H448.675C454.198 340.849 458.675 336.372 458.675 330.849V162.18C458.675 156.657 454.198 152.18 448.675 152.18Z" fill="#4F27AA"/>
<path d="M319.883 264.946C319.883 253.568 310.659 244.344 299.281 244.344C287.904 244.344 278.68 253.568 278.68 264.946V273.62C278.68 284.998 287.904 294.222 299.281 294.222C310.659 294.222 319.883 284.998 319.883 273.62V264.946Z" fill="white"/>
<path d="M374 215.258C374 203.936 364.822 194.758 353.5 194.758C342.178 194.758 333 203.936 333 215.258V273.258C333 284.58 342.178 293.758 353.5 293.758C364.822 293.758 374 284.58 374 273.258V215.258Z" fill="white"/>
<path d="M427 242.258C427 230.936 417.822 221.758 406.5 221.758C395.178 221.758 386 230.936 386 242.258V273.258C386 284.58 395.178 293.758 406.5 293.758C417.822 293.758 427 284.58 427 273.258V242.258Z" fill="white"/>
<path d="M529.154 171.694L510.18 191.212L500.962 181.749M569.273 163.02H624.573M569.273 190.67H661.439M529.154 236.753L510.18 255.186L500.962 246.249M569.273 226.994H624.573M569.273 254.643H661.439M661.439 318.617H569.273M661.439 390.182H248.32M661.439 291.51H569.273M661.439 363.074H248.32" stroke="#E1E4E5" stroke-width="11" stroke-linecap="round" stroke-linejoin="round"/>
<path d="M515.058 327.835C525.238 327.835 533.491 319.582 533.491 309.402C533.491 299.222 525.238 290.969 515.058 290.969C504.878 290.969 496.625 299.222 496.625 309.402C496.625 319.582 504.878 327.835 515.058 327.835Z" stroke="#E1E4E5" stroke-width="11" stroke-linecap="round" stroke-linejoin="round"/>
<path d="M514.056 548.773H397.701C394.001 548.773 391 547.484 391 545.894V514.578C391 512.988 394.001 511.699 397.701 511.699H514.056C517.756 511.699 520.757 512.988 520.757 514.578V545.894C520.757 547.484 517.756 548.773 514.056 548.773Z" fill="white" stroke="#E1E4E5" stroke-width="11"/>
<path d="M795.751 267.18C780.379 274.805 759.976 265.001 759.976 265.001C759.976 265.001 764.51 242.837 779.891 235.222C795.263 227.597 815.657 237.391 815.657 237.391C815.657 237.391 811.123 259.555 795.751 267.18Z" fill="url(#paint0_linear_1235_30398)"/>
<path d="M114.813 426.692C136.582 439.739 167.813 427.678 167.813 427.678C167.813 427.678 163.729 394.469 141.947 381.437C120.179 368.39 88.961 380.436 88.961 380.436C88.961 380.436 93.045 413.645 114.813 426.692Z" fill="url(#paint1_linear_1235_30398)"/>
<path d="M670.29 115.313C660.013 115.313 651.681 123.645 651.681 133.922C651.681 144.2 660.013 152.531 670.29 152.531C680.568 152.531 688.899 144.2 688.899 133.922C688.899 123.645 680.568 115.313 670.29 115.313Z" fill="#4F27AA"/>
<path d="M143.281 225.128C134.821 225.128 127.962 231.986 127.962 240.447C127.962 248.907 134.821 255.766 143.281 255.766C151.741 255.766 158.6 248.907 158.6 240.447C158.6 231.986 151.741 225.128 143.281 225.128Z" fill="#4F27AA"/>
<path d="M771.828 348.253C767.331 348.253 763.686 344.607 763.686 340.111C763.686 335.614 767.331 331.969 771.828 331.969C776.325 331.969 779.97 335.614 779.97 340.111C779.97 344.607 776.325 348.253 771.828 348.253Z" fill="#4F27AA"/>
<path d="M171.274 504.76C162.923 504.76 156.154 497.99 156.154 489.64C156.154 481.289 162.923 474.52 171.274 474.52C179.625 474.52 186.394 481.289 186.394 489.64C186.394 497.99 179.625 504.76 171.274 504.76Z" fill="#E1E4E5"/>
<path d="M580.508 499.329C574.152 499.329 569 494.176 569 487.821C569 481.465 574.152 476.312 580.508 476.312C586.864 476.312 592.016 481.465 592.016 487.821C592.016 494.176 586.864 499.329 580.508 499.329Z" fill="#E1E4E5"/>
<path d="M761.186 130.764C754.12 130.764 748.392 125.036 748.392 117.97C748.392 110.904 754.12 105.176 761.186 105.176C768.252 105.176 773.98 110.904 773.98 117.97C773.98 125.036 768.252 130.764 761.186 130.764Z" fill="#E1E4E5"/>
<path d="M115.516 290.717C117.159 296.846 113.521 303.146 107.392 304.788C101.263 306.43 94.9635 302.793 93.3212 296.664C91.679 290.535 95.3162 284.235 101.445 282.593C107.574 280.951 113.874 284.588 115.516 290.717Z" fill="#E1E4E5"/>
<path d="M205.115 72.9468C202.474 72.9468 200.333 70.8058 200.333 68.1648C200.333 65.5238 202.474 63.3828 205.115 63.3828C207.756 63.3828 209.897 65.5238 209.897 68.1648C209.897 70.8058 207.756 72.9468 205.115 72.9468Z" fill="#E1E4E5"/>
<path d="M552.013 60.0331C553.202 64.4699 550.569 69.0305 546.132 70.2193C541.695 71.4081 537.134 68.7751 535.946 64.3383C534.757 59.9015 537.39 55.3409 541.827 54.1521C546.263 52.9632 550.824 55.5963 552.013 60.0331Z" fill="#E1E4E5"/>
<path fill-rule="evenodd" clip-rule="evenodd" d="M640.687 498.937L617.45 424.348C615 416.48 623.016 409.429 630.455 412.915L699.755 445.423C707.967 449.274 706.586 461.416 697.716 463.297L669.187 469.363L658.602 499.272C655.554 507.859 643.402 507.623 640.687 498.937Z" fill="white" stroke="#E1E4E5" stroke-width="11" stroke-linecap="round" stroke-linejoin="round"/>
</g>
<defs>
<linearGradient id="paint0_linear_1235_30398" x1="736.72" y1="290.966" x2="863.51" y2="190.675" gradientUnits="userSpaceOnUse">
<stop stop-color="white"/>
<stop offset="1" stop-color="#EEEEEE"/>
</linearGradient>
<linearGradient id="paint1_linear_1235_30398" x1="199.052" y1="468.689" x2="23.894" y2="305.944" gradientUnits="userSpaceOnUse">
<stop stop-color="white"/>
<stop offset="1" stop-color="#EEEEEE"/>
</linearGradient>
<clipPath id="clip0_1235_30398">
<rect width="900" height="600" fill="white"/>
</clipPath>
</defs>
</svg>
