<svg width="900" height="600" viewBox="0 0 900 600" fill="none" xmlns="http://www.w3.org/2000/svg">
<g clip-path="url(#clip0_1235_30421)">
<path fill-rule="evenodd" clip-rule="evenodd" d="M91.066 515.925C79.994 515.925 71.029 506.93 71.066 495.859L71.308 421.692C71.318 418.393 72.145 415.148 73.714 412.246L181.509 212.832C187.638 201.495 202.731 198.828 212.373 207.379L318.368 301.376C321.138 303.832 324.534 305.471 328.18 306.111C331.826 306.751 335.579 306.367 339.019 305.001L439.941 264.93C444.33 263.187 449.195 263.053 453.673 264.553L526.941 289.092C530.208 290.186 533.703 290.418 537.086 289.764L600.007 277.609C603.978 276.841 607.622 274.888 610.461 272.007C613.299 269.126 615.197 265.453 615.905 261.471L626.112 204.038C626.814 200.088 628.688 196.44 631.49 193.569C634.292 190.698 637.892 188.735 641.824 187.937L732.234 169.579C744.626 167.063 756.214 176.534 756.214 189.179V495.925C756.214 506.97 747.259 515.925 736.214 515.925H91.065H91.066Z" fill="white" stroke="#E1E4E5" stroke-width="4" stroke-linecap="round" stroke-linejoin="round"/>
<path fill-rule="evenodd" clip-rule="evenodd" d="M151.5 472.967H154.489C155.211 472.967 155.793 473.555 155.793 474.271V477.26C155.793 477.983 155.205 478.564 154.489 478.564H151.5C151.155 478.563 150.824 478.425 150.579 478.181C150.335 477.937 150.197 477.606 150.195 477.26V474.271C150.195 474.1 150.228 473.93 150.294 473.772C150.359 473.613 150.456 473.469 150.577 473.348C150.698 473.227 150.842 473.131 151 473.066C151.159 473 151.329 472.967 151.5 472.967ZM161.861 472.967H164.85C165.196 472.968 165.527 473.106 165.771 473.35C166.015 473.595 166.153 473.926 166.155 474.271V477.26C166.155 477.983 165.567 478.564 164.85 478.564H161.861C161.516 478.563 161.185 478.425 160.941 478.18C160.697 477.936 160.559 477.605 160.557 477.26V474.271C160.559 473.926 160.697 473.595 160.941 473.351C161.185 473.107 161.516 472.969 161.861 472.967ZM172.23 472.967H175.219C175.936 472.967 176.523 473.555 176.523 474.271V477.26C176.523 477.983 175.936 478.564 175.219 478.564H172.23C171.885 478.563 171.554 478.425 171.31 478.18C171.066 477.936 170.928 477.605 170.926 477.26V474.271C170.926 474.1 170.959 473.93 171.025 473.772C171.09 473.613 171.186 473.47 171.307 473.348C171.429 473.227 171.572 473.131 171.731 473.066C171.889 473 172.059 472.967 172.23 472.967ZM182.592 472.967H185.58C185.926 472.968 186.257 473.106 186.501 473.35C186.745 473.595 186.883 473.926 186.885 474.271V477.26C186.885 477.983 186.297 478.564 185.58 478.564H182.592C182.245 478.564 181.913 478.427 181.667 478.183C181.422 477.939 181.283 477.607 181.281 477.26V474.271C181.285 473.925 181.425 473.595 181.67 473.351C181.915 473.107 182.246 472.969 182.592 472.967ZM192.954 472.967H195.943C196.29 472.967 196.622 473.104 196.868 473.348C197.114 473.593 197.252 473.925 197.254 474.271V477.26C197.254 477.983 196.666 478.564 195.943 478.564H192.954C192.609 478.563 192.278 478.425 192.034 478.18C191.79 477.936 191.652 477.605 191.65 477.26V474.271C191.652 473.926 191.79 473.595 192.034 473.351C192.278 473.107 192.609 472.969 192.954 472.967ZM162.242 484.266H165.23C165.576 484.267 165.907 484.405 166.151 484.649C166.395 484.894 166.533 485.225 166.535 485.57V488.565C166.534 488.911 166.396 489.242 166.151 489.486C165.907 489.731 165.576 489.869 165.23 489.87H162.242C161.896 489.87 161.564 489.732 161.32 489.488C161.075 489.243 160.937 488.911 160.937 488.565V485.577C160.936 485.405 160.969 485.235 161.034 485.076C161.099 484.916 161.195 484.772 161.317 484.65C161.438 484.528 161.582 484.431 161.741 484.366C161.9 484.3 162.07 484.266 162.242 484.266ZM172.603 484.266H175.592C176.309 484.266 176.896 484.854 176.896 485.57V488.565C176.896 489.282 176.309 489.87 175.592 489.87H172.603C172.258 489.869 171.927 489.731 171.682 489.486C171.438 489.242 171.3 488.911 171.299 488.565V485.577C171.298 485.405 171.331 485.235 171.396 485.076C171.461 484.917 171.557 484.772 171.678 484.65C171.799 484.528 171.944 484.432 172.102 484.366C172.261 484.3 172.431 484.266 172.603 484.266ZM182.966 484.266H185.955C186.677 484.266 187.265 484.854 187.265 485.57V488.565C187.264 488.912 187.125 489.244 186.88 489.488C186.634 489.733 186.302 489.87 185.955 489.87H182.966C182.62 489.869 182.289 489.731 182.045 489.486C181.8 489.242 181.662 488.911 181.661 488.565V485.577C181.661 484.854 182.249 484.266 182.966 484.266ZM172.23 460.828H175.219C175.936 460.828 176.523 461.416 176.523 462.133V465.121C176.523 465.844 175.936 466.426 175.219 466.426H172.23C171.885 466.425 171.554 466.287 171.309 466.042C171.065 465.798 170.927 465.467 170.926 465.121V462.133C170.926 461.962 170.959 461.792 171.024 461.634C171.09 461.475 171.186 461.331 171.307 461.21C171.428 461.089 171.572 460.992 171.731 460.927C171.889 460.861 172.059 460.828 172.23 460.828ZM161.872 460.828H164.86C165.206 460.829 165.537 460.967 165.781 461.212C166.026 461.456 166.164 461.787 166.165 462.133V465.121C166.165 465.844 165.577 466.426 164.86 466.426H161.872C161.526 466.425 161.195 466.287 160.951 466.042C160.706 465.798 160.568 465.467 160.567 465.121V462.133C160.567 461.962 160.6 461.792 160.666 461.633C160.731 461.475 160.827 461.331 160.948 461.209C161.07 461.088 161.214 460.992 161.372 460.927C161.531 460.861 161.701 460.828 161.872 460.828ZM182.592 460.828H185.58C185.926 460.829 186.257 460.967 186.501 461.212C186.746 461.456 186.884 461.787 186.885 462.133V465.121C186.885 465.844 186.297 466.426 185.58 466.426H182.592C182.245 466.426 181.913 466.289 181.667 466.044C181.421 465.8 181.283 465.468 181.281 465.121V462.133C181.285 461.787 181.424 461.456 181.669 461.212C181.915 460.968 182.246 460.83 182.592 460.828ZM226.105 472.967H229.093C229.816 472.967 230.398 473.555 230.398 474.271V477.26C230.398 477.983 229.81 478.564 229.093 478.564H226.105C225.76 478.563 225.429 478.425 225.184 478.181C224.94 477.937 224.802 477.606 224.8 477.26V474.271C224.8 474.1 224.833 473.93 224.899 473.772C224.964 473.613 225.061 473.469 225.182 473.348C225.303 473.227 225.447 473.131 225.605 473.066C225.764 473 225.934 472.967 226.105 472.967ZM236.466 472.967H239.455C239.8 472.969 240.131 473.107 240.375 473.351C240.62 473.595 240.757 473.926 240.759 474.271V477.26C240.759 477.983 240.171 478.564 239.455 478.564H236.466C236.121 478.563 235.79 478.425 235.546 478.18C235.302 477.936 235.164 477.605 235.162 477.26V474.271C235.164 473.926 235.302 473.595 235.546 473.351C235.79 473.107 236.121 472.969 236.466 472.967ZM246.835 472.967H249.824C250.169 472.969 250.5 473.107 250.744 473.351C250.989 473.595 251.126 473.926 251.128 474.271V477.26C251.128 477.983 250.54 478.564 249.824 478.564H246.835C246.49 478.563 246.159 478.425 245.915 478.18C245.671 477.936 245.533 477.605 245.531 477.26V474.271C245.531 474.1 245.564 473.93 245.63 473.772C245.695 473.613 245.791 473.469 245.912 473.348C246.033 473.227 246.177 473.131 246.336 473.066C246.494 473 246.664 472.967 246.835 472.967ZM257.196 472.967H260.185C260.531 472.968 260.862 473.106 261.106 473.35C261.35 473.595 261.488 473.926 261.49 474.271V477.26C261.49 477.983 260.902 478.564 260.185 478.564H257.196C256.85 478.564 256.517 478.427 256.272 478.183C256.026 477.938 255.888 477.607 255.886 477.26V474.271C255.89 473.925 256.029 473.595 256.274 473.351C256.519 473.107 256.85 472.969 257.196 472.967ZM267.559 472.967H270.548C271.27 472.967 271.858 473.555 271.858 474.271V477.26C271.858 477.983 271.27 478.564 270.548 478.564H267.559C267.214 478.563 266.883 478.425 266.639 478.18C266.395 477.936 266.257 477.605 266.255 477.26V474.271C266.257 473.926 266.395 473.595 266.639 473.351C266.883 473.107 267.214 472.969 267.559 472.967ZM236.846 484.266H239.835C240.18 484.268 240.511 484.406 240.755 484.65C241 484.894 241.137 485.225 241.139 485.57V488.565C241.138 488.911 241 489.242 240.756 489.486C240.512 489.731 240.181 489.869 239.835 489.87H236.846C236.5 489.87 236.169 489.732 235.924 489.487C235.68 489.243 235.542 488.911 235.542 488.565V485.577C235.541 485.405 235.574 485.235 235.639 485.076C235.704 484.917 235.8 484.772 235.921 484.65C236.042 484.528 236.187 484.432 236.345 484.366C236.504 484.3 236.674 484.266 236.846 484.266ZM247.208 484.266H250.197C250.542 484.268 250.873 484.406 251.117 484.65C251.362 484.894 251.499 485.225 251.501 485.57V488.565C251.5 488.911 251.362 489.242 251.118 489.486C250.874 489.731 250.543 489.869 250.197 489.87H247.208C246.863 489.869 246.532 489.731 246.287 489.486C246.043 489.242 245.905 488.911 245.904 488.565V485.577C245.903 485.405 245.936 485.235 246.001 485.076C246.066 484.917 246.162 484.772 246.283 484.65C246.404 484.528 246.549 484.432 246.707 484.366C246.866 484.3 247.036 484.266 247.208 484.266ZM257.571 484.266H260.559C260.906 484.266 261.238 484.403 261.484 484.647C261.73 484.892 261.868 485.224 261.87 485.57V488.565C261.87 489.282 261.282 489.87 260.559 489.87H257.571C257.225 489.869 256.894 489.731 256.65 489.486C256.405 489.242 256.267 488.911 256.266 488.565V485.577C256.266 484.854 256.854 484.266 257.571 484.266ZM246.835 460.828H249.824C250.17 460.83 250.501 460.968 250.745 461.212C250.989 461.457 251.127 461.788 251.128 462.133V465.121C251.128 465.844 250.54 466.426 249.824 466.426H246.835C246.49 466.425 246.159 466.287 245.914 466.042C245.67 465.798 245.532 465.467 245.531 465.121V462.133C245.531 461.962 245.564 461.792 245.629 461.633C245.695 461.475 245.791 461.331 245.912 461.21C246.033 461.088 246.177 460.992 246.335 460.927C246.494 460.861 246.664 460.828 246.835 460.828ZM236.476 460.828H239.465C239.811 460.829 240.142 460.967 240.386 461.212C240.631 461.456 240.769 461.787 240.77 462.133V465.121C240.77 465.844 240.182 466.426 239.465 466.426H236.476C236.131 466.425 235.8 466.287 235.555 466.042C235.311 465.798 235.173 465.467 235.172 465.121V462.133C235.172 461.962 235.205 461.792 235.27 461.634C235.336 461.475 235.432 461.331 235.553 461.21C235.674 461.089 235.818 460.992 235.977 460.927C236.135 460.861 236.305 460.828 236.476 460.828ZM257.196 460.828H260.185C260.531 460.829 260.862 460.967 261.106 461.212C261.351 461.456 261.489 461.787 261.49 462.133V465.121C261.49 465.844 260.902 466.426 260.185 466.426H257.196C256.85 466.426 256.517 466.289 256.272 466.044C256.026 465.8 255.887 465.468 255.886 465.121V462.133C255.89 461.787 256.029 461.457 256.274 461.213C256.519 460.969 256.85 460.83 257.196 460.828ZM300.709 472.967H303.698C304.42 472.967 305.002 473.555 305.002 474.271V477.26C305.002 477.983 304.414 478.564 303.698 478.564H300.709C300.364 478.563 300.033 478.425 299.789 478.18C299.545 477.936 299.407 477.605 299.405 477.26V474.271C299.405 474.1 299.438 473.93 299.504 473.772C299.569 473.613 299.665 473.469 299.786 473.348C299.907 473.227 300.051 473.131 300.21 473.066C300.368 473 300.538 472.967 300.709 472.967ZM311.071 472.967H314.059C314.405 472.968 314.736 473.106 314.98 473.35C315.224 473.595 315.362 473.926 315.364 474.271V477.26C315.364 477.983 314.776 478.564 314.059 478.564H311.071C310.726 478.563 310.395 478.425 310.15 478.181C309.906 477.937 309.768 477.606 309.766 477.26V474.271C309.768 473.926 309.906 473.595 310.15 473.35C310.395 473.106 310.726 472.968 311.071 472.967ZM321.44 472.967H324.428C324.774 472.968 325.105 473.106 325.349 473.35C325.593 473.595 325.731 473.926 325.733 474.271V477.26C325.733 477.983 325.145 478.564 324.428 478.564H321.44C321.095 478.563 320.764 478.425 320.519 478.181C320.275 477.937 320.137 477.606 320.135 477.26V474.271C320.135 474.1 320.168 473.93 320.234 473.772C320.299 473.613 320.396 473.469 320.517 473.348C320.638 473.227 320.782 473.131 320.94 473.066C321.099 473 321.269 472.967 321.44 472.967ZM331.801 472.967H334.79C335.135 472.969 335.466 473.107 335.71 473.351C335.955 473.595 336.092 473.926 336.094 474.271V477.26C336.094 477.983 335.506 478.564 334.79 478.564H331.801C331.454 478.564 331.122 478.427 330.876 478.183C330.631 477.939 330.492 477.607 330.49 477.26V474.271C330.494 473.925 330.634 473.595 330.879 473.351C331.124 473.107 331.455 472.969 331.801 472.967ZM342.164 472.967H345.152C345.499 472.967 345.831 473.104 346.077 473.348C346.323 473.593 346.461 473.925 346.463 474.271V477.26C346.463 477.983 345.875 478.564 345.152 478.564H342.164C341.819 478.563 341.488 478.425 341.243 478.181C340.999 477.937 340.861 477.606 340.859 477.26V474.271C340.861 473.926 340.999 473.595 341.243 473.35C341.488 473.106 341.819 472.968 342.164 472.967ZM311.451 484.266H314.439C314.785 484.267 315.116 484.405 315.36 484.649C315.604 484.894 315.742 485.225 315.744 485.57V488.565C315.743 488.911 315.605 489.242 315.36 489.486C315.116 489.731 314.785 489.869 314.439 489.87H311.451C311.105 489.87 310.773 489.732 310.529 489.488C310.284 489.243 310.146 488.911 310.146 488.565V485.577C310.145 485.405 310.178 485.235 310.243 485.076C310.308 484.916 310.404 484.772 310.526 484.65C310.647 484.528 310.791 484.431 310.95 484.366C311.109 484.3 311.279 484.266 311.451 484.266ZM321.813 484.266H324.801C325.147 484.267 325.478 484.405 325.722 484.649C325.966 484.894 326.104 485.225 326.106 485.57V488.565C326.105 488.911 325.967 489.242 325.722 489.486C325.478 489.731 325.147 489.869 324.801 489.87H321.813C321.467 489.869 321.136 489.731 320.892 489.486C320.647 489.242 320.509 488.911 320.508 488.565V485.577C320.507 485.405 320.54 485.235 320.605 485.076C320.67 484.916 320.766 484.772 320.888 484.65C321.009 484.528 321.153 484.431 321.312 484.366C321.471 484.3 321.641 484.266 321.813 484.266ZM332.175 484.266H335.164C335.886 484.266 336.474 484.854 336.474 485.57V488.565C336.473 488.912 336.334 489.244 336.089 489.488C335.843 489.733 335.511 489.87 335.164 489.87H332.175C331.83 489.869 331.499 489.731 331.254 489.486C331.01 489.242 330.872 488.911 330.871 488.565V485.577C330.871 485.231 331.008 484.898 331.252 484.652C331.497 484.407 331.828 484.268 332.175 484.266ZM321.44 460.828H324.428C324.774 460.829 325.105 460.967 325.349 461.212C325.594 461.456 325.732 461.787 325.733 462.133V465.121C325.733 465.844 325.145 466.426 324.428 466.426H321.44C321.094 466.425 320.763 466.287 320.519 466.042C320.274 465.798 320.136 465.467 320.135 465.121V462.133C320.135 461.962 320.168 461.792 320.234 461.633C320.299 461.475 320.395 461.331 320.516 461.209C320.638 461.088 320.782 460.992 320.94 460.927C321.099 460.861 321.269 460.828 321.44 460.828ZM311.081 460.828H314.07C314.416 460.83 314.746 460.968 314.991 461.212C315.235 461.457 315.373 461.788 315.374 462.133V465.121C315.374 465.844 314.786 466.426 314.07 466.426H311.081C310.735 466.425 310.404 466.287 310.16 466.042C309.915 465.798 309.777 465.467 309.776 465.121V462.133C309.776 461.962 309.809 461.792 309.875 461.633C309.94 461.475 310.036 461.331 310.157 461.209C310.279 461.088 310.423 460.992 310.581 460.927C310.74 460.861 310.91 460.828 311.081 460.828ZM331.801 460.828H334.79C335.136 460.83 335.466 460.968 335.711 461.212C335.955 461.457 336.093 461.788 336.094 462.133V465.121C336.094 465.844 335.506 466.426 334.79 466.426H331.801C331.454 466.426 331.122 466.289 330.876 466.044C330.63 465.8 330.492 465.468 330.49 465.121V462.133C330.494 461.787 330.633 461.456 330.878 461.212C331.124 460.968 331.455 460.83 331.801 460.828ZM375.314 472.967H378.302C379.025 472.967 379.607 473.555 379.607 474.271V477.26C379.607 477.983 379.019 478.564 378.302 478.564H375.314C374.969 478.563 374.638 478.425 374.393 478.181C374.149 477.937 374.011 477.606 374.009 477.26V474.271C374.009 474.1 374.042 473.93 374.108 473.772C374.173 473.613 374.27 473.469 374.391 473.348C374.512 473.227 374.656 473.131 374.814 473.066C374.973 473 375.143 472.967 375.314 472.967ZM385.675 472.967H388.664C389.009 472.969 389.34 473.107 389.584 473.351C389.829 473.595 389.966 473.926 389.968 474.271V477.26C389.968 477.983 389.38 478.564 388.664 478.564H385.675C385.33 478.563 384.999 478.425 384.755 478.18C384.511 477.936 384.373 477.605 384.371 477.26V474.271C384.373 473.926 384.511 473.595 384.755 473.351C384.999 473.107 385.33 472.969 385.675 472.967ZM396.044 472.967H399.033C399.378 472.969 399.709 473.107 399.953 473.351C400.198 473.595 400.335 473.926 400.337 474.271V477.26C400.337 477.983 399.749 478.564 399.033 478.564H396.044C395.699 478.563 395.368 478.425 395.124 478.18C394.88 477.936 394.742 477.605 394.74 477.26V474.271C394.74 474.1 394.773 473.93 394.838 473.771C394.904 473.613 395 473.469 395.121 473.348C395.242 473.227 395.386 473.131 395.544 473.065C395.703 473 395.873 472.967 396.044 472.967ZM406.405 472.967H409.394C410.111 472.967 410.698 473.555 410.698 474.271V477.26C410.698 477.983 410.111 478.564 409.394 478.564H406.405C406.059 478.564 405.726 478.427 405.481 478.183C405.235 477.938 405.097 477.607 405.095 477.26V474.271C405.099 473.925 405.238 473.595 405.483 473.351C405.728 473.107 406.059 472.969 406.405 472.967ZM416.768 472.967H419.757C420.479 472.967 421.067 473.555 421.067 474.271V477.26C421.067 477.983 420.479 478.564 419.757 478.564H416.768C416.423 478.563 416.092 478.425 415.848 478.18C415.604 477.936 415.466 477.605 415.464 477.26V474.271C415.466 473.926 415.604 473.595 415.848 473.351C416.092 473.107 416.423 472.969 416.768 472.967ZM386.055 484.266H389.044C389.389 484.268 389.72 484.406 389.964 484.65C390.209 484.894 390.346 485.225 390.348 485.57V488.565C390.347 488.911 390.209 489.242 389.965 489.486C389.72 489.731 389.39 489.869 389.044 489.87H386.055C385.709 489.87 385.378 489.732 385.133 489.487C384.889 489.243 384.751 488.911 384.751 488.565V485.577C384.75 485.405 384.783 485.235 384.848 485.076C384.913 484.917 385.009 484.772 385.13 484.65C385.251 484.528 385.396 484.432 385.554 484.366C385.713 484.3 385.883 484.266 386.055 484.266ZM396.417 484.266H399.406C399.751 484.268 400.082 484.406 400.326 484.65C400.571 484.894 400.708 485.225 400.71 485.57V488.565C400.709 488.911 400.571 489.242 400.327 489.486C400.082 489.731 399.752 489.869 399.406 489.87H396.417C396.072 489.869 395.741 489.731 395.496 489.486C395.252 489.242 395.114 488.911 395.113 488.565V485.577C395.112 485.405 395.145 485.235 395.21 485.076C395.275 484.917 395.371 484.772 395.492 484.65C395.613 484.528 395.758 484.432 395.916 484.366C396.075 484.3 396.245 484.266 396.417 484.266ZM406.78 484.266H409.768C410.115 484.266 410.447 484.403 410.693 484.647C410.939 484.892 411.077 485.224 411.079 485.57V488.565C411.079 489.282 410.491 489.87 409.768 489.87H406.78C406.434 489.869 406.103 489.731 405.859 489.486C405.614 489.242 405.476 488.911 405.475 488.565V485.577C405.475 484.854 406.063 484.266 406.78 484.266ZM396.044 460.828H399.033C399.379 460.83 399.71 460.968 399.954 461.212C400.198 461.457 400.336 461.788 400.337 462.133V465.121C400.337 465.844 399.749 466.426 399.033 466.426H396.044C395.699 466.425 395.368 466.287 395.123 466.042C394.879 465.798 394.741 465.467 394.74 465.121V462.133C394.739 461.962 394.773 461.792 394.838 461.633C394.903 461.475 394.999 461.331 395.12 461.209C395.242 461.088 395.386 460.992 395.544 460.926C395.703 460.861 395.873 460.828 396.044 460.828ZM385.685 460.828H388.674C389.02 460.829 389.351 460.967 389.595 461.212C389.84 461.456 389.978 461.787 389.979 462.133V465.121C389.979 465.844 389.391 466.426 388.674 466.426H385.685C385.34 466.425 385.009 466.287 384.764 466.042C384.52 465.798 384.382 465.467 384.381 465.121V462.133C384.381 461.962 384.414 461.792 384.479 461.634C384.545 461.475 384.641 461.331 384.762 461.21C384.883 461.089 385.027 460.992 385.185 460.927C385.344 460.861 385.514 460.828 385.685 460.828ZM406.405 460.828H409.394C410.111 460.828 410.698 461.416 410.698 462.133V465.121C410.698 465.844 410.111 466.426 409.394 466.426H406.405C406.058 466.426 405.726 466.289 405.48 466.044C405.235 465.8 405.096 465.468 405.095 465.121V462.133C405.099 461.787 405.238 461.457 405.483 461.213C405.728 460.969 406.059 460.83 406.405 460.828ZM449.918 472.967H452.907C453.629 472.967 454.211 473.555 454.211 474.271V477.26C454.211 477.983 453.623 478.564 452.907 478.564H449.918C449.573 478.563 449.242 478.425 448.998 478.18C448.754 477.936 448.616 477.605 448.614 477.26V474.271C448.614 474.1 448.647 473.93 448.713 473.772C448.778 473.613 448.874 473.469 448.995 473.348C449.116 473.227 449.26 473.131 449.419 473.066C449.577 473 449.747 472.967 449.918 472.967ZM460.28 472.967H463.268C463.614 472.968 463.945 473.106 464.189 473.35C464.433 473.595 464.571 473.926 464.573 474.271V477.26C464.573 477.983 463.985 478.564 463.268 478.564H460.28C459.935 478.563 459.604 478.425 459.359 478.181C459.115 477.937 458.977 477.606 458.975 477.26V474.271C458.977 473.926 459.115 473.595 459.359 473.35C459.604 473.106 459.935 472.968 460.28 472.967ZM470.649 472.967H473.637C473.983 472.968 474.314 473.106 474.558 473.35C474.802 473.595 474.94 473.926 474.942 474.271V477.26C474.942 477.983 474.354 478.564 473.637 478.564H470.649C470.304 478.563 469.973 478.425 469.728 478.181C469.484 477.937 469.346 477.606 469.344 477.26V474.271C469.344 474.1 469.377 473.93 469.443 473.772C469.508 473.613 469.605 473.469 469.726 473.348C469.847 473.227 469.991 473.131 470.149 473.066C470.308 473 470.478 472.967 470.649 472.967ZM481.01 472.967H483.999C484.344 472.969 484.675 473.107 484.919 473.351C485.164 473.595 485.301 473.926 485.303 474.271V477.26C485.303 477.983 484.715 478.564 483.999 478.564H481.01C480.664 478.564 480.331 478.427 480.085 478.183C479.839 477.939 479.701 477.607 479.699 477.26V474.271C479.703 473.925 479.843 473.595 480.088 473.351C480.333 473.107 480.664 472.969 481.01 472.967ZM491.373 472.967H494.361C494.708 472.967 495.04 473.104 495.286 473.348C495.532 473.593 495.67 473.925 495.672 474.271V477.26C495.672 477.983 495.084 478.564 494.361 478.564H491.373C491.028 478.563 490.697 478.425 490.452 478.181C490.208 477.937 490.07 477.606 490.068 477.26V474.271C490.07 473.926 490.208 473.595 490.452 473.35C490.697 473.106 491.028 472.968 491.373 472.967ZM460.66 484.266H463.648C463.994 484.267 464.325 484.405 464.569 484.649C464.813 484.894 464.951 485.225 464.953 485.57V488.565C464.952 488.911 464.814 489.242 464.569 489.486C464.325 489.731 463.994 489.869 463.648 489.87H460.66C460.314 489.87 459.982 489.732 459.738 489.488C459.493 489.243 459.355 488.911 459.355 488.565V485.577C459.354 485.405 459.387 485.235 459.452 485.076C459.517 484.916 459.613 484.772 459.735 484.65C459.856 484.528 460 484.431 460.159 484.366C460.318 484.3 460.488 484.266 460.66 484.266ZM471.022 484.266H474.01C474.356 484.267 474.687 484.405 474.931 484.649C475.175 484.894 475.313 485.225 475.315 485.57V488.565C475.314 488.911 475.176 489.242 474.931 489.486C474.687 489.731 474.356 489.869 474.01 489.87H471.022C470.676 489.869 470.345 489.731 470.101 489.486C469.856 489.242 469.718 488.911 469.717 488.565V485.577C469.716 485.405 469.749 485.235 469.814 485.076C469.879 484.916 469.975 484.772 470.097 484.65C470.218 484.528 470.362 484.431 470.521 484.366C470.68 484.3 470.85 484.266 471.022 484.266ZM481.384 484.266H484.373C485.095 484.266 485.683 484.854 485.683 485.57V488.565C485.682 488.912 485.543 489.244 485.298 489.488C485.052 489.733 484.72 489.87 484.373 489.87H481.384C481.039 489.869 480.708 489.731 480.463 489.486C480.219 489.242 480.081 488.911 480.08 488.565V485.577C480.08 485.231 480.217 484.898 480.461 484.652C480.706 484.407 481.038 484.268 481.384 484.266ZM470.649 460.828H473.637C473.983 460.829 474.314 460.967 474.558 461.212C474.803 461.456 474.941 461.787 474.942 462.133V465.121C474.942 465.844 474.354 466.426 473.637 466.426H470.649C470.303 466.425 469.972 466.287 469.728 466.042C469.483 465.798 469.345 465.467 469.344 465.121V462.133C469.344 461.962 469.377 461.792 469.443 461.633C469.508 461.475 469.604 461.331 469.725 461.209C469.847 461.088 469.991 460.992 470.149 460.927C470.308 460.861 470.478 460.828 470.649 460.828ZM460.29 460.828H463.279C463.625 460.83 463.956 460.968 464.2 461.212C464.444 461.457 464.582 461.788 464.583 462.133V465.121C464.583 465.844 463.995 466.426 463.279 466.426H460.29C459.944 466.425 459.613 466.287 459.369 466.042C459.124 465.798 458.986 465.467 458.985 465.121V462.133C458.985 461.962 459.018 461.792 459.084 461.633C459.149 461.475 459.245 461.331 459.366 461.209C459.488 461.088 459.632 460.992 459.79 460.927C459.949 460.861 460.119 460.828 460.29 460.828ZM481.01 460.828H483.999C484.345 460.83 484.676 460.968 484.92 461.212C485.164 461.457 485.302 461.788 485.303 462.133V465.121C485.303 465.844 484.715 466.426 483.999 466.426H481.01C480.663 466.426 480.331 466.289 480.085 466.044C479.839 465.8 479.701 465.468 479.699 465.121V462.133C479.703 461.787 479.842 461.456 480.087 461.212C480.333 460.968 480.664 460.83 481.01 460.828Z" fill="#E1E4E5"/>
<path d="M693.521 319.35C693.521 319.35 670.14 334.65 650.371 333.083C630.603 331.516 618.27 311.875 611.651 304.744C605.037 297.614 588.364 280.385 593.366 273.16C598.368 265.935 602.814 273.716 604.481 278.718C606.149 283.719 604.509 273.749 606.999 274.288C609.483 274.827 608.494 280.88 610.934 282.858C613.374 284.831 649.499 303.727 657.28 302.616C665.06 301.504 668.467 299.37 670.657 297.102C672.841 294.829 696.417 314.409 693.521 319.35Z" fill="#F8AE9D"/>
<path d="M617.07 505.457L617.009 515.933L593.072 528.832V534.473H640.946V524.803L643.452 505.457H617.07Z" fill="#E1E4E5"/>
<path d="M737.149 377.657C737.149 377.657 671.063 355.071 640.54 358.744C610.478 364.858 610.25 401.116 610.361 422.447C610.473 443.777 614.013 505.468 614.013 505.468H647.615C647.615 505.468 659.636 449.985 663.649 423.814C663.649 423.814 665.299 412.098 674.142 416.544C710.344 434.751 733.086 426.548 737.216 409.319C741.345 392.091 737.149 377.657 737.149 377.657Z" fill="#2E2445"/>
<path d="M709.828 280.969C709.828 280.969 688.203 291.612 670.618 294.274C652.278 297.053 677.843 320.951 697.851 320.951C717.859 320.951 709.828 280.969 709.828 280.969Z" fill="#4F27AA"/>
<path d="M799.068 518.328L811.895 518.389L823.861 534.507H829.846V489.367H819.587L799.068 493.458V518.328Z" fill="#E1E4E5"/>
<path d="M799.106 519.362V491.574C771.99 488.795 761.386 488.467 732.908 488.334C712.456 488.239 723.066 482.682 723.066 482.682C745.463 467.12 768.456 429.328 768.456 429.328C782.011 408.208 774.352 375.418 774.352 375.418C774.352 375.418 749.593 382.643 728.373 381.531C728.373 381.531 705.387 409.876 665.299 472.122C649.282 496.993 651.116 524.275 681.2 525.709C681.2 525.709 753.717 526.587 799.106 519.362Z" fill="#2E2445"/>
<path d="M717.525 277.979C717.525 277.979 698.407 281.491 696.067 306.245C694.322 324.719 695.761 349.773 695.761 357.832C695.761 365.89 691.654 365.212 697.295 367.63C702.936 370.047 732.864 394.307 773.947 375.566C773.947 375.566 780.36 338.43 778.437 315.943C777.226 301.799 773.435 278.707 748.959 276.723L717.525 277.979Z" fill="#4F27AA"/>
<path d="M723.261 239.444L712.751 239.199C712.751 239.199 704.07 277.214 725.567 272.89L725.161 276.903C725.161 276.903 718.587 277.864 716.097 278.42C716.097 278.42 723.555 284.839 732.536 284.122C741.518 283.405 747.781 277.553 747.781 277.553L743.368 277.108L741.734 261.147C741.734 261.147 746.87 258.423 747.192 255.216C747.514 252.01 746.792 251.126 744.469 250.081C742.146 249.036 738.533 252.727 738.533 252.727C738.533 252.727 735.249 245.107 734.932 240.211L723.261 239.444Z" fill="#F8AE9D"/>
<path d="M622.267 259.816L781.65 390.9C786.958 395.257 787.775 403.071 783.484 408.434C779.16 413.837 771.279 414.72 765.866 410.407L603.926 280.935L622.267 259.816Z" fill="#2E2445"/>
<path d="M563.355 140.605C607.711 140.605 643.664 176.558 643.664 220.914C643.664 265.27 607.711 301.223 563.355 301.223C518.999 301.223 483.046 265.27 483.046 220.914C483.046 176.558 518.999 140.605 563.355 140.605ZM563.355 277.692C594.711 277.692 620.132 252.271 620.132 220.914C620.132 189.558 594.711 164.137 563.355 164.137C531.998 164.137 506.577 189.558 506.577 220.914C506.577 252.271 531.998 277.692 563.355 277.692Z" fill="#E1E4E5"/>
<path d="M756.324 365.479C756.324 365.479 732.942 380.779 713.174 379.212C693.405 377.644 681.072 358.003 674.453 350.873C667.839 343.742 651.166 326.514 656.168 319.289C661.17 312.064 665.616 319.844 667.284 324.846C668.951 329.848 667.312 319.878 669.801 320.417C672.286 320.956 671.296 327.008 673.736 328.987C676.176 330.96 712.301 349.856 720.082 348.744C727.863 347.633 731.269 345.499 733.459 343.231C735.643 340.958 759.219 360.538 756.324 365.479Z" fill="#F8AE9D"/>
<path d="M776.748 304.068C776.748 304.068 777.882 339.849 769.545 354.855C761.209 369.86 760.614 370.349 752.85 362.324C745.091 354.299 731.197 346.185 733.142 339.682C735.087 333.18 739.083 321.959 740.645 312.06C742.312 301.501 746.203 279.826 754.539 277.047C754.539 277.047 774.503 284.411 776.748 304.068Z" fill="#4F27AA"/>
<path d="M746.555 260.918C744.838 263.659 740.723 263.646 741.446 260.493C742.268 256.91 742.779 252.16 739.724 252.721C736.669 253.282 736.261 255.63 735.196 254.119C734.131 252.609 734.742 246.79 725.975 245.422C717.207 244.06 713.295 246.729 709.398 244.485C707.062 243.142 706.288 240.379 706.043 238.378C705.973 237.81 706.459 237.079 706.782 237.551C707.088 237.997 707.971 238.067 707.772 237.564C706.54 234.457 704.92 227.797 711.352 223.666C719.963 218.135 727.574 223.197 732.123 223.97C742.148 225.676 748.599 226.988 751.173 233.959C753.307 239.742 751.364 253.244 746.555 260.918Z" fill="#2E2445"/>
<path d="M257.167 185.367H91C79.9543 185.367 71 194.321 71 205.367V416.204C71 427.25 79.9543 436.204 91 436.204H257.167C268.213 436.204 277.167 427.25 277.167 416.204V205.367C277.167 194.321 268.213 185.367 257.167 185.367Z" fill="white" stroke="#E1E4E5" stroke-width="4" stroke-linecap="round" stroke-linejoin="round"/>
<mask id="mask0_1235_30421" style="mask-type:alpha" maskUnits="userSpaceOnUse" x="69" y="183" width="211" height="256">
<path d="M71 185.367H277.167V436.204H71V185.367Z" fill="white" stroke="white" stroke-width="4" stroke-linecap="round" stroke-linejoin="round"/>
</mask>
<g mask="url(#mask0_1235_30421)">
<path d="M233.409 367.863H115.189C111.069 367.863 107.729 371.203 107.729 375.323V375.324C107.729 379.444 111.069 382.784 115.189 382.784H233.409C237.529 382.784 240.869 379.444 240.869 375.324V375.323C240.869 371.203 237.529 367.863 233.409 367.863Z" fill="white" stroke="#E1E4E5" stroke-width="4" stroke-linecap="round" stroke-linejoin="round"/>
<path d="M232.261 336.875H116.337C111.583 336.875 107.729 340.729 107.729 345.483C107.729 350.237 111.583 354.091 116.337 354.091H232.261C237.015 354.091 240.869 350.237 240.869 345.483C240.869 340.729 237.015 336.875 232.261 336.875Z" fill="white" stroke="#E1E4E5" stroke-width="4" stroke-linecap="round" stroke-linejoin="round"/>
<path d="M232.261 396.559H116.337C111.583 396.559 107.729 400.413 107.729 405.167C107.729 409.921 111.583 413.775 116.337 413.775H232.261C237.015 413.775 240.869 409.921 240.869 405.167C240.869 400.413 237.015 396.559 232.261 396.559Z" fill="white" stroke="#E1E4E5" stroke-width="4" stroke-linecap="round" stroke-linejoin="round"/>
<path d="M132.405 202.586H96.825C93.3384 202.586 90.512 205.412 90.512 208.898C90.512 212.385 93.3384 215.211 96.825 215.211H132.405C135.892 215.211 138.718 212.385 138.718 208.898C138.718 205.412 135.892 202.586 132.405 202.586Z" fill="white" stroke="#E1E4E5" stroke-width="4" stroke-linecap="round" stroke-linejoin="round"/>
<path fill-rule="evenodd" clip-rule="evenodd" d="M174.221 228.984C198.019 228.984 217.31 248.276 217.31 272.073C217.31 295.871 198.019 315.162 174.221 315.162C150.424 315.162 131.132 295.871 131.132 272.073C131.132 248.276 150.424 228.984 174.221 228.984ZM174.513 252.178C163.364 252.178 154.326 261.216 154.326 272.365C154.326 283.514 163.364 292.552 174.513 292.552C185.662 292.552 194.7 283.514 194.7 272.365C194.7 261.216 185.662 252.178 174.513 252.178Z" fill="#4F27AA"/>
</g>
</g>
<defs>
<clipPath id="clip0_1235_30421">
<rect width="900" height="600" fill="white"/>
</clipPath>
</defs>
</svg>
