<svg width="900" height="600" viewBox="0 0 900 600" fill="none" xmlns="http://www.w3.org/2000/svg">
<g clip-path="url(#clip0_1235_30468)">
<path d="M614.567 241.255C603.249 248.507 589.795 243.154 570.504 230.335C555.998 220.691 542.66 212.101 531.812 195.597C524.218 184.05 519.953 171.634 517.858 160.667C515.585 148.785 511.286 134.315 520.898 127.346C534.103 117.775 576.37 126.332 602.261 163.036C630.7 203.361 625.633 234.169 614.567 241.255Z" fill="url(#paint0_linear_1235_30468)"/>
<path d="M733.711 277.016C717.202 285.205 695.291 274.675 695.291 274.675C695.291 274.675 700.16 250.873 716.678 242.695C733.187 234.506 755.089 245.024 755.089 245.024C755.089 245.024 750.219 268.827 733.711 277.016Z" fill="url(#paint1_linear_1235_30468)"/>
<path d="M212.064 210.428C235.686 224.586 269.576 211.498 269.576 211.498C269.576 211.498 265.145 175.462 241.508 161.321C217.887 147.163 184.011 160.235 184.011 160.235C184.011 160.235 188.443 196.271 212.064 210.428Z" fill="url(#paint2_linear_1235_30468)"/>
<path d="M659.283 227.404C650.995 227.404 644.276 234.123 644.276 242.411C644.276 250.699 650.995 257.418 659.283 257.418C667.571 257.418 674.29 250.699 674.29 242.411C674.29 234.123 667.571 227.404 659.283 227.404Z" fill="#4F27AA"/>
<path d="M242.913 257.171C236.09 257.171 230.559 262.702 230.559 269.525C230.559 276.348 236.09 281.879 242.913 281.879C249.736 281.879 255.267 276.348 255.267 269.525C255.267 262.702 249.736 257.171 242.913 257.171Z" fill="#4F27AA"/>
<path d="M333.67 491.458C325.9 491.458 319.601 485.159 319.601 477.389C319.601 469.619 325.9 463.32 333.67 463.32C341.44 463.32 347.739 469.619 347.739 477.389C347.739 485.159 341.44 491.458 333.67 491.458Z" fill="#4F27AA"/>
<path d="M737.112 349.747C733.486 349.747 730.547 346.808 730.547 343.182C730.547 339.556 733.486 336.617 737.112 336.617C740.738 336.617 743.677 339.556 743.677 343.182C743.677 346.808 740.738 349.747 737.112 349.747Z" fill="#4F27AA"/>
<path d="M570.97 484.073C566.308 484.073 562.529 480.294 562.529 475.632C562.529 470.971 566.308 467.191 570.97 467.191C575.632 467.191 579.411 470.971 579.411 475.632C579.411 480.294 575.632 484.073 570.97 484.073Z" fill="#E1E4E5"/>
<path d="M155.702 463.55C148.968 463.55 143.509 458.091 143.509 451.357C143.509 444.623 148.968 439.164 155.702 439.164C162.436 439.164 167.895 444.623 167.895 451.357C167.895 458.091 162.436 463.55 155.702 463.55Z" fill="#E1E4E5"/>
<path d="M701.101 496.287C695.976 496.287 691.821 492.132 691.821 487.007C691.821 481.881 695.976 477.727 701.101 477.727C706.226 477.727 710.381 481.881 710.381 487.007C710.381 492.132 706.226 496.287 701.101 496.287Z" fill="#E1E4E5"/>
<path d="M700.079 161.517C694.381 161.517 689.762 156.898 689.762 151.2C689.762 145.502 694.381 140.883 700.079 140.883C705.777 140.883 710.396 145.502 710.396 151.2C710.396 156.898 705.777 161.517 700.079 161.517Z" fill="#E1E4E5"/>
<path d="M158.297 291.669C159.621 296.612 156.688 301.692 151.745 303.016C146.803 304.341 141.722 301.407 140.398 296.465C139.074 291.522 142.007 286.442 146.949 285.118C151.892 283.793 156.972 286.726 158.297 291.669Z" fill="#E1E4E5"/>
<path d="M342.369 114.157C340.239 114.157 338.513 112.431 338.513 110.301C338.513 108.172 340.239 106.445 342.369 106.445C344.499 106.445 346.225 108.172 346.225 110.301C346.225 112.431 344.499 114.157 342.369 114.157Z" fill="#E1E4E5"/>
<path d="M725.306 410.6C720.07 410.6 715.825 407.204 715.825 403.015C715.825 398.826 720.07 395.43 725.306 395.43C730.542 395.43 734.787 398.826 734.787 403.015C734.787 407.204 730.542 410.6 725.306 410.6Z" fill="#E1E4E5"/>
<path d="M531.399 104.479C532.358 108.057 530.235 111.735 526.657 112.694C523.079 113.652 519.401 111.529 518.442 107.951C517.483 104.373 519.607 100.695 523.185 99.7368C526.763 98.778 530.44 100.901 531.399 104.479Z" fill="#E1E4E5"/>
<path fill-rule="evenodd" clip-rule="evenodd" d="M288.677 236.48C223.819 245.351 173.692 300.473 173.692 367.876C173.692 441.433 233.232 501.084 306.653 501.084H599.168C657.91 501.084 705.537 453.369 705.537 394.517C705.537 335.666 657.91 287.951 599.168 287.951C599.168 199.661 527.741 128.102 439.615 128.102C369.491 128.102 310.084 173.472 288.677 236.48Z" fill="#4F27AA"/>
<path d="M362.141 292.559H515.805V426.353H362.141V292.559Z" fill="white"/>
<path fill-rule="evenodd" clip-rule="evenodd" d="M439.635 302.775C420.459 302.775 403.377 303.532 389.421 304.495C376.183 305.407 366.004 316.361 365.054 330.617C364.378 340.758 363.907 351.444 363.907 361.44C363.907 371.436 364.378 382.121 365.054 392.262C366.004 406.518 376.183 417.472 389.421 418.385C406.134 419.531 422.882 420.104 439.635 420.104C458.812 420.104 475.894 419.347 489.85 418.385C503.088 417.472 513.267 406.518 514.217 392.262C514.893 382.121 515.363 371.436 515.363 361.44C515.363 351.444 514.893 340.758 514.217 330.617C513.267 316.361 503.088 305.407 489.85 304.495C473.136 303.348 456.388 302.774 439.635 302.775ZM388.048 281.076C364.056 282.73 345.207 302.92 343.473 328.926C342.774 339.422 342.271 350.704 342.271 361.44C342.271 372.176 342.774 383.458 343.473 393.954C345.207 419.959 364.056 440.15 388.048 441.804C405.218 442.981 422.424 443.57 439.635 443.57C459.33 443.57 476.874 442.793 491.222 441.804C515.215 440.15 534.064 419.959 535.797 393.954C536.497 383.458 537 372.176 537 361.44C537 350.704 536.497 339.422 535.797 328.926C534.064 302.92 515.215 282.73 491.222 281.076C456.871 278.72 422.399 278.72 388.048 281.076Z" fill="white"/>
<path fill-rule="evenodd" clip-rule="evenodd" d="M385.281 271.236C385.281 241.311 409.54 217.051 439.466 217.051C469.392 217.051 493.652 241.311 493.652 271.236V314.585C493.652 320.57 488.8 325.422 482.815 325.422C476.83 325.422 471.978 320.57 471.978 314.585V271.236C471.978 253.281 457.422 238.725 439.466 238.725C421.511 238.725 406.955 253.281 406.955 271.236V314.585C406.955 320.57 402.103 325.422 396.118 325.422C390.132 325.422 385.281 320.57 385.281 314.585V271.236Z" fill="white"/>
<path fill-rule="evenodd" clip-rule="evenodd" d="M450.303 375C456.782 371.253 461.141 364.248 461.141 356.226C461.141 344.255 451.437 334.551 439.466 334.551C427.496 334.551 417.792 344.255 417.792 356.226C417.792 364.248 422.151 371.253 428.629 375V388.737C428.629 394.722 433.481 399.574 439.466 399.574C445.451 399.574 450.303 394.722 450.303 388.737V375Z" fill="#4F27AA"/>
</g>
<defs>
<linearGradient id="paint0_linear_1235_30468" x1="539.736" y1="287.467" x2="611.959" y2="27.7139" gradientUnits="userSpaceOnUse">
<stop stop-color="white"/>
<stop offset="1" stop-color="#EEEEEE"/>
</linearGradient>
<linearGradient id="paint1_linear_1235_30468" x1="670.316" y1="302.56" x2="806.479" y2="194.854" gradientUnits="userSpaceOnUse">
<stop stop-color="white"/>
<stop offset="1" stop-color="#EEEEEE"/>
</linearGradient>
<linearGradient id="paint2_linear_1235_30468" x1="303.474" y1="256" x2="113.405" y2="79.4013" gradientUnits="userSpaceOnUse">
<stop stop-color="white"/>
<stop offset="1" stop-color="#EEEEEE"/>
</linearGradient>
<clipPath id="clip0_1235_30468">
<rect width="900" height="600" fill="white"/>
</clipPath>
</defs>
</svg>
