<svg width="900" height="600" viewBox="0 0 900 600" fill="none" xmlns="http://www.w3.org/2000/svg">
<g clip-path="url(#clip0_1235_30490)">
<path fill-rule="evenodd" clip-rule="evenodd" d="M599.909 127.298C683.749 211.138 683.749 347.07 599.909 430.91C516.068 514.75 380.136 514.75 296.296 430.91C212.456 347.069 212.456 211.137 296.296 127.298C380.137 43.458 516.069 43.458 599.909 127.298Z" fill="#4F27AA"/>
<path fill-rule="evenodd" clip-rule="evenodd" d="M481.624 217.301C510.886 217.301 530.507 244.765 530.507 270.341C530.507 322.256 449.044 364.762 447.56 364.762C446.076 364.762 364.613 322.256 364.613 270.341C364.613 244.765 384.235 217.301 413.497 217.301C430.224 217.301 441.21 225.642 447.56 233.07C453.91 225.642 464.896 217.301 481.624 217.301Z" fill="white"/>
<path fill-rule="evenodd" clip-rule="evenodd" d="M176.088 181.257L194.375 190.84C197.937 192.707 202.1 189.692 201.418 185.734L197.927 165.422L212.724 151.048C215.604 148.246 214.017 143.363 210.038 142.785L189.592 139.821L180.453 121.336C178.673 117.732 173.533 117.732 171.752 121.336L162.613 139.821L142.158 142.795C138.179 143.374 136.591 148.256 139.471 151.058L154.268 165.432L150.778 185.744C150.096 189.703 154.258 192.717 157.82 190.85L176.108 181.267H176.088V181.257ZM724.731 371.005L743.019 380.588C746.58 382.455 750.743 379.441 750.061 375.482L746.57 355.17L761.367 340.796C764.247 337.994 762.66 333.111 758.681 332.533L738.235 329.569L729.097 311.084C727.316 307.48 722.176 307.48 720.395 311.084L711.256 329.569L690.801 332.543C686.822 333.122 685.234 338.004 688.114 340.806L702.911 355.18L699.421 375.492C698.739 379.451 702.901 382.466 706.463 380.598L724.751 371.015H724.731V371.005Z" fill="#4F27AA"/>
<path fill-rule="evenodd" clip-rule="evenodd" d="M354.189 323.774C357.003 325.928 357.573 330.001 355.463 332.872L336.358 358.866C334.33 361.625 330.543 362.287 327.73 360.373L313.924 350.981L304.719 365.07C302.768 368.056 298.814 368.863 295.888 366.872C292.961 364.881 292.171 360.846 294.122 357.86L306.858 338.365C308.809 335.379 312.763 334.572 315.69 336.563L329.783 346.15L345.273 325.074C347.384 322.203 351.376 321.621 354.189 323.774ZM498.398 412.685C501.212 414.838 501.782 418.911 499.672 421.783L480.566 447.776C478.538 450.535 474.751 451.197 471.939 449.284L458.132 439.892L448.928 453.98C446.977 456.966 443.023 457.773 440.096 455.783C437.17 453.792 436.379 449.757 438.33 446.771L451.067 427.276C453.018 424.289 456.972 423.483 459.898 425.473L473.991 435.06L489.482 413.984C491.592 411.113 495.584 410.531 498.398 412.685ZM620.921 308.594C623.735 310.747 624.305 314.821 622.195 317.692L603.09 343.685C601.062 346.444 597.274 347.106 594.462 345.193L580.656 335.801L571.451 349.889C569.5 352.876 565.546 353.683 562.62 351.692C559.693 349.701 558.902 345.666 560.853 342.68L573.59 323.185C575.541 320.199 579.495 319.392 582.422 321.383L596.515 330.969L612.005 309.894C614.116 307.022 618.108 306.441 620.921 308.594ZM613.331 188.239C616.145 190.393 616.715 194.466 614.605 197.337L595.499 223.331C593.471 226.09 589.684 226.752 586.872 224.839L573.065 215.447L563.861 229.535C561.91 232.521 557.956 233.328 555.029 231.337C552.103 229.346 551.312 225.312 553.263 222.326L566 202.83C567.951 199.844 571.905 199.037 574.832 201.028L588.924 210.615L604.415 189.539C606.525 186.668 610.517 186.086 613.331 188.239ZM343.347 188.239C346.16 190.393 346.731 194.466 344.62 197.337L325.515 223.331C323.487 226.09 319.7 226.752 316.887 224.839L303.081 215.447L293.877 229.535C291.926 232.521 287.972 233.328 285.045 231.337C282.119 229.346 281.328 225.312 283.279 222.326L296.016 202.83C297.967 199.844 301.921 199.037 304.847 201.028L318.94 210.615L334.431 189.539C336.541 186.668 340.533 186.086 343.347 188.239ZM476.712 115.593C479.526 117.746 480.096 121.82 477.986 124.691L458.881 150.684C456.853 153.444 453.065 154.105 450.253 152.192L436.447 142.8L427.242 156.888C425.291 159.875 421.337 160.682 418.411 158.691C415.484 156.7 414.693 152.665 416.644 149.679L429.381 130.184C431.332 127.198 435.286 126.391 438.213 128.382L452.306 137.968L467.796 116.893C469.907 114.022 473.899 113.44 476.712 115.593Z" fill="white"/>
<path fill-rule="evenodd" clip-rule="evenodd" d="M713.501 155.496C722.929 155.496 729.251 164.392 729.251 172.677C729.251 189.493 703.004 203.261 702.526 203.261C702.048 203.261 675.8 189.493 675.8 172.677C675.8 164.392 682.122 155.496 691.55 155.496C696.94 155.496 700.48 158.198 702.526 160.604C704.572 158.198 708.111 155.496 713.501 155.496Z" fill="#4F27AA"/>
<path d="M276.748 91.5145C293.619 99.8835 316.012 89.1225 316.012 89.1225C316.012 89.1225 311.035 64.7965 294.155 56.4395C277.284 48.0695 254.9 58.8195 254.9 58.8195C254.9 58.8195 259.877 83.1455 276.748 91.5145Z" fill="url(#paint0_linear_1235_30490)"/>
<path d="M559.463 511.555C565.79 511.555 570.92 516.684 570.92 523.012C570.92 529.339 565.79 534.469 559.463 534.469C553.135 534.469 548.006 529.339 548.006 523.012C548.006 516.684 553.135 511.555 559.463 511.555Z" fill="#4F27AA"/>
<path d="M560.064 47.0681C569.801 47.0681 577.694 54.9613 577.694 64.6981C577.694 74.4349 569.801 82.3281 560.064 82.3281C550.327 82.3281 542.434 74.4349 542.434 64.6981C542.434 54.9613 550.327 47.0681 560.064 47.0681Z" fill="#4F27AA"/>
<path d="M738.079 260.295C744.404 260.295 749.531 255.167 749.531 248.843C749.531 242.518 744.404 237.391 738.079 237.391C731.754 237.391 726.627 242.518 726.627 248.843C726.627 255.167 731.754 260.295 738.079 260.295Z" fill="#4F27AA"/>
<path d="M172.679 303.886C181.619 303.886 188.866 296.639 188.866 287.699C188.866 278.759 181.619 271.512 172.679 271.512C163.739 271.512 156.492 278.759 156.492 287.699C156.492 296.639 163.739 303.886 172.679 303.886Z" fill="#E1E4E5"/>
<path d="M653.413 479.36C661.156 479.36 667.433 473.083 667.433 465.34C667.433 457.597 661.156 451.32 653.413 451.32C645.67 451.32 639.393 457.597 639.393 465.34C639.393 473.083 645.67 479.36 653.413 479.36Z" fill="#E1E4E5"/>
<path d="M173.029 407.163C182.162 407.163 189.566 401.24 189.566 393.933C189.566 386.626 182.162 380.703 173.029 380.703C163.896 380.703 156.492 386.626 156.492 393.933C156.492 401.24 163.896 407.163 173.029 407.163Z" fill="#E1E4E5"/>
<path d="M279.034 534.832C279.034 549.41 290.851 561.228 305.429 561.228C320.007 561.228 331.824 549.41 331.824 534.832C331.824 520.255 320.007 508.438 305.429 508.438C290.851 508.438 279.034 520.255 279.034 534.832Z" fill="#E1E4E5"/>
</g>
<defs>
<linearGradient id="paint0_linear_1235_30490" x1="341.536" y1="117.619" x2="202.381" y2="7.54749" gradientUnits="userSpaceOnUse">
<stop stop-color="white"/>
<stop offset="1" stop-color="#EEEEEE"/>
</linearGradient>
<clipPath id="clip0_1235_30490">
<rect width="900" height="600" fill="white"/>
</clipPath>
</defs>
</svg>
