<svg width="900" height="600" viewBox="0 0 900 600" fill="none" xmlns="http://www.w3.org/2000/svg">
<g clip-path="url(#clip0_1235_30505)">
<path fill-rule="evenodd" clip-rule="evenodd" d="M355.735 275.01C355.735 354.38 291.406 418.708 212.037 418.708C132.667 418.708 68.3379 354.38 68.3379 275.01C68.3379 195.641 132.667 131.312 212.037 131.312C291.406 131.312 355.735 195.641 355.735 275.01Z" fill="#4F27AA" stroke="white" stroke-width="6.085" stroke-linecap="round" stroke-linejoin="round"/>
<path d="M313.647 376.622L216.715 279.689C215.232 278.208 214.055 276.448 213.252 274.511C212.45 272.574 212.037 270.498 212.037 268.402V131.312" stroke="white" stroke-width="11" stroke-linecap="round" stroke-linejoin="round"/>
<path d="M336.484 203.164L217.767 271.705C215.95 272.752 214.358 274.148 213.082 275.811C211.805 277.474 210.868 279.373 210.326 281.398L174.845 413.815" stroke="white" stroke-width="11" stroke-linecap="round" stroke-linejoin="round"/>
<path d="M212.949 275.918L313.58 376.605" stroke="white" stroke-width="6.085" stroke-linecap="round" stroke-linejoin="round"/>
<path d="M421.294 347.578H523.928M652.26 347.653H768.269M652.26 423.148H768.269M421.293 380.567H591.739M652.219 380.567H822.086M652.219 456.064H822.086M421.293 424.552H523.927M421.293 457.542H591.739" stroke="#E1E4E5" stroke-width="11" stroke-linecap="round" stroke-linejoin="round"/>
<path d="M547.203 131.312H517.146C508.745 131.312 501.934 138.123 501.934 146.524V295.709C501.934 304.111 508.745 310.921 517.146 310.921H547.203C555.604 310.921 562.415 304.111 562.415 295.709V146.524C562.415 138.123 555.604 131.312 547.203 131.312Z" fill="#4F27AA"/>
<path d="M726.811 131.312H696.754C688.353 131.312 681.542 138.123 681.542 146.524V295.709C681.542 304.111 688.353 310.921 696.754 310.921H726.811C735.212 310.921 742.023 304.111 742.023 295.709V146.524C742.023 138.123 735.212 131.312 726.811 131.312Z" fill="#4F27AA"/>
<path d="M457.398 204.621H427.341C418.94 204.621 412.129 211.432 412.129 219.833V295.708C412.129 304.109 418.94 310.92 427.341 310.92H457.398C465.799 310.92 472.61 304.109 472.61 295.708V219.833C472.61 211.432 465.799 204.621 457.398 204.621Z" fill="#E1E4E5"/>
<path d="M637.007 204.621H606.95C598.548 204.621 591.738 211.432 591.738 219.833V295.708C591.738 304.109 598.548 310.92 606.95 310.92H637.007C645.408 310.92 652.219 304.109 652.219 295.708V219.833C652.219 211.432 645.408 204.621 637.007 204.621Z" fill="#E1E4E5"/>
<path d="M816.616 204.621H786.559C778.158 204.621 771.347 211.432 771.347 219.833V295.708C771.347 304.109 778.158 310.92 786.559 310.92H816.616C825.018 310.92 831.828 304.109 831.828 295.708V219.833C831.828 211.432 825.018 204.621 816.616 204.621Z" fill="#E1E4E5"/>
<path d="M626.695 169.488C610.462 177.54 588.917 167.186 588.917 167.186C588.917 167.186 593.706 143.781 609.947 135.74C626.18 127.688 647.716 138.03 647.716 138.03C647.716 138.03 642.928 161.435 626.695 169.488Z" fill="url(#paint0_linear_1235_30505)"/>
<path d="M133.606 463.227C149.312 472.641 171.846 463.939 171.846 463.939C171.846 463.939 168.899 439.978 153.183 430.575C137.477 421.162 114.953 429.853 114.953 429.853C114.953 429.853 117.9 453.814 133.606 463.227Z" fill="url(#paint1_linear_1235_30505)"/>
<path d="M617.741 415.253C611.636 415.253 606.687 410.303 606.687 404.199C606.687 398.094 611.636 393.145 617.741 393.145C623.846 393.145 628.795 398.094 628.795 404.199C628.795 410.303 623.846 415.253 617.741 415.253Z" fill="#E1E4E5"/>
<path d="M315.335 459.469C306.517 459.469 299.368 452.32 299.368 443.502C299.368 434.684 306.517 427.535 315.335 427.535C324.153 427.535 331.302 434.684 331.302 443.502C331.302 452.32 324.153 459.469 315.335 459.469Z" fill="#E1E4E5"/>
<path d="M814.104 427.433C807.392 427.433 801.952 421.992 801.952 415.281C801.952 408.57 807.392 403.129 814.104 403.129C820.815 403.129 826.256 408.57 826.256 415.281C826.256 421.992 820.815 427.433 814.104 427.433Z" fill="#E1E4E5"/>
<path d="M766.646 145.02C759.185 145.02 753.136 138.971 753.136 131.51C753.136 124.049 759.185 118 766.646 118C774.108 118 780.156 124.049 780.156 131.51C780.156 138.971 774.108 145.02 766.646 145.02Z" fill="#E1E4E5"/>
<path d="M453.532 140.814C455.266 147.286 451.426 153.938 444.954 155.672C438.482 157.406 431.829 153.566 430.095 147.094C428.361 140.622 432.202 133.969 438.674 132.235C445.146 130.501 451.798 134.342 453.532 140.814Z" fill="#E1E4E5"/>
<path d="M368.766 162.493C365.977 162.493 363.717 160.232 363.717 157.444C363.717 154.655 365.977 152.395 368.766 152.395C371.554 152.395 373.815 154.655 373.815 157.444C373.815 160.232 371.554 162.493 368.766 162.493Z" fill="#E1E4E5"/>
<path d="M368.366 353.098C361.509 353.098 355.951 348.652 355.951 343.166C355.951 337.681 361.509 333.234 368.366 333.234C375.223 333.234 380.781 337.681 380.781 343.166C380.781 348.652 375.223 353.098 368.366 353.098Z" fill="#E1E4E5"/>
</g>
<defs>
<linearGradient id="paint0_linear_1235_30505" x1="564.359" y1="194.605" x2="698.248" y2="88.6981" gradientUnits="userSpaceOnUse">
<stop stop-color="white"/>
<stop offset="1" stop-color="#EEEEEE"/>
</linearGradient>
<linearGradient id="paint1_linear_1235_30505" x1="194.385" y1="493.529" x2="68.0072" y2="376.106" gradientUnits="userSpaceOnUse">
<stop stop-color="white"/>
<stop offset="1" stop-color="#EEEEEE"/>
</linearGradient>
<clipPath id="clip0_1235_30505">
<rect width="900" height="600" fill="white"/>
</clipPath>
</defs>
</svg>
