<svg width="900" height="600" viewBox="0 0 900 600" fill="none" xmlns="http://www.w3.org/2000/svg">
<g clip-path="url(#clip0_1235_30526)">
<path d="M741.941 251.956C725.56 260.081 703.819 249.633 703.819 249.633C703.819 249.633 708.651 226.015 725.04 217.901C741.421 209.775 763.153 220.212 763.153 220.212C763.153 220.212 758.321 243.83 741.941 251.956Z" fill="url(#paint0_linear_1235_30526)"/>
<path d="M722.958 189.235C714.615 194.582 704.697 190.636 690.477 181.186C679.784 174.077 669.952 167.745 661.956 155.579C656.358 147.067 653.214 137.915 651.669 129.831C649.994 121.072 646.825 110.405 653.91 105.268C663.645 98.2133 694.801 104.521 713.887 131.577C734.85 161.302 731.116 184.012 722.958 189.235Z" fill="url(#paint1_linear_1235_30526)"/>
<path d="M183.711 391.219C205.37 404.2 236.444 392.2 236.444 392.2C236.444 392.2 232.381 359.158 210.709 346.191C189.05 333.21 157.989 345.196 157.989 345.196C157.989 345.196 162.052 378.238 183.711 391.219Z" fill="url(#paint2_linear_1235_30526)"/>
<path d="M742.859 301.115C733.058 301.115 725.112 309.061 725.112 318.862C725.112 328.664 733.058 336.609 742.859 336.609C752.66 336.609 760.606 328.664 760.606 318.862C760.606 309.061 752.66 301.115 742.859 301.115Z" fill="#4F27AA"/>
<path d="M216.713 253.503C208.644 253.503 202.103 260.044 202.103 268.113C202.103 276.182 208.644 282.723 216.713 282.723C224.782 282.723 231.323 276.182 231.323 268.113C231.323 260.044 224.782 253.503 216.713 253.503Z" fill="#4F27AA"/>
<path d="M243.77 471.514C234.581 471.514 227.132 464.065 227.132 454.876C227.132 445.687 234.581 438.238 243.77 438.238C252.959 438.238 260.408 445.687 260.408 454.876C260.408 464.065 252.959 471.514 243.77 471.514Z" fill="#4F27AA"/>
<path d="M796.955 347.13C792.667 347.13 789.191 343.654 789.191 339.366C789.191 335.078 792.667 331.602 796.955 331.602C801.243 331.602 804.719 335.078 804.719 339.366C804.719 343.654 801.243 347.13 796.955 347.13Z" fill="#4F27AA"/>
<path d="M686.438 428.407C680.924 428.407 676.455 423.938 676.455 418.424C676.455 412.911 680.924 408.441 686.438 408.441C691.951 408.441 696.421 412.911 696.421 418.424C696.421 423.938 691.951 428.407 686.438 428.407Z" fill="#E1E4E5"/>
<path d="M216.879 536.17C208.915 536.17 202.46 529.714 202.46 521.751C202.46 513.788 208.915 507.332 216.879 507.332C224.842 507.332 231.298 513.788 231.298 521.751C231.298 529.714 224.842 536.17 216.879 536.17Z" fill="#E1E4E5"/>
<path d="M676.703 532.888C670.641 532.888 665.728 527.974 665.728 521.913C665.728 515.851 670.641 510.938 676.703 510.938C682.764 510.938 687.678 515.851 687.678 521.913C687.678 527.974 682.764 532.888 676.703 532.888Z" fill="#E1E4E5"/>
<path d="M767.703 168.14C760.964 168.14 755.502 162.678 755.502 155.939C755.502 149.201 760.964 143.738 767.703 143.738C774.441 143.738 779.904 149.201 779.904 155.939C779.904 162.678 774.441 168.14 767.703 168.14Z" fill="#E1E4E5"/>
<path d="M120.003 295.709C121.569 301.554 118.1 307.562 112.255 309.128C106.41 310.695 100.402 307.226 98.8354 301.381C97.2692 295.535 100.738 289.527 106.583 287.961C112.428 286.395 118.436 289.864 120.003 295.709Z" fill="#E1E4E5"/>
<path d="M280.337 151.772C277.819 151.772 275.777 149.731 275.777 147.212C275.777 144.694 277.819 142.652 280.337 142.652C282.855 142.652 284.897 144.694 284.897 147.212C284.897 149.731 282.855 151.772 280.337 151.772Z" fill="#E1E4E5"/>
<path d="M755.602 435.917C749.41 435.917 744.39 431.901 744.39 426.947C744.39 421.993 749.41 417.977 755.602 417.977C761.794 417.977 766.814 421.993 766.814 426.947C766.814 431.901 761.794 435.917 755.602 435.917Z" fill="#E1E4E5"/>
<path d="M559.154 71.6613C560.288 75.8927 557.776 80.2421 553.545 81.376C549.314 82.5098 544.964 79.9986 543.83 75.7672C542.696 71.5357 545.208 67.1863 549.439 66.0525C553.671 64.9187 558.02 67.4298 559.154 71.6613Z" fill="#E1E4E5"/>
<path d="M202.019 156.141H202.178C203.124 169.542 213.09 169.749 213.09 169.749C213.09 169.749 202.101 169.963 202.101 185.447C202.101 169.963 191.111 169.749 191.111 169.749C191.111 169.749 201.073 169.542 202.019 156.141Z" fill="#E1E4E5"/>
<path d="M541.683 116.527L609.56 184.465C617.533 192.446 622.013 203.264 622.016 214.545V482.931C622.016 506.443 602.992 525.477 579.513 525.477H339.495C316.015 525.477 296.992 506.443 296.992 482.931V146.608C296.992 123.095 316.015 104.062 339.495 104.062H511.636C517.218 104.065 522.744 105.167 527.9 107.306C533.055 109.445 537.739 112.578 541.683 116.527Z" fill="white" stroke="#E1E4E5" stroke-width="11"/>
<path d="M369.205 274.473H452.39M369.205 228.473H452.39M369.205 331.869H517.348M369 391.311H535.697M369 450.311H535.697" stroke="#E1E4E5" stroke-width="24" stroke-linecap="round" stroke-linejoin="round"/>
<path fill-rule="evenodd" clip-rule="evenodd" d="M735.222 241.631V146.461C735.225 130.082 724.915 115.46 709.446 109.908L649.98 88.5823C629.484 81.233 607.071 81.233 586.575 88.5823L527.03 109.947C511.575 115.494 501.268 130.096 501.255 146.461V241.631C501.255 291.08 570.704 327.672 602.64 341.929C607.544 344.134 612.861 345.274 618.238 345.274C623.615 345.274 628.931 344.134 633.836 341.929C665.773 327.673 735.222 291.003 735.222 241.631Z" fill="#4F27AA"/>
<path d="M569.519 180.922H666.926V265.733H569.519V180.922Z" fill="white"/>
<path fill-rule="evenodd" clip-rule="evenodd" d="M618.642 187.399C606.486 187.399 595.658 187.879 586.811 188.489C578.42 189.067 571.967 196.011 571.365 205.048C570.936 211.476 570.638 218.25 570.638 224.586C570.638 230.922 570.936 237.696 571.365 244.124C571.967 253.161 578.42 260.104 586.811 260.683C608.006 262.137 629.276 262.137 650.472 260.683C658.864 260.104 665.316 253.161 665.918 244.124C666.347 237.696 666.645 230.922 666.645 224.586C666.645 218.25 666.347 211.476 665.918 205.048C665.316 196.011 658.864 189.067 650.472 188.489C639.877 187.762 629.261 187.399 618.642 187.399ZM585.941 173.644C570.732 174.692 558.784 187.491 557.685 203.975C557.242 210.629 556.923 217.78 556.923 224.586C556.923 231.391 557.242 238.543 557.685 245.196C558.784 261.681 570.733 274.479 585.941 275.528C607.716 277.022 629.567 277.022 651.342 275.528C666.551 274.479 678.5 261.681 679.598 245.196C680.041 238.543 680.36 231.391 680.36 224.586C680.36 217.78 680.041 210.629 679.598 203.975C678.5 187.491 666.551 174.692 651.342 173.644C629.567 172.15 607.716 172.15 585.941 173.644Z" fill="white"/>
<path fill-rule="evenodd" clip-rule="evenodd" d="M584.187 167.407C584.187 148.437 599.565 133.059 618.534 133.059C637.504 133.059 652.882 148.437 652.882 167.407V194.885C652.893 195.794 652.723 196.696 652.383 197.539C652.043 198.382 651.539 199.149 650.9 199.796C650.261 200.443 649.5 200.956 648.661 201.307C647.822 201.657 646.922 201.837 646.013 201.837C645.103 201.837 644.203 201.657 643.364 201.307C642.525 200.956 641.764 200.443 641.125 199.796C640.487 199.149 639.982 198.382 639.642 197.539C639.302 196.696 639.132 195.794 639.143 194.885V167.407C639.143 156.025 629.916 146.798 618.534 146.798C607.153 146.798 597.926 156.025 597.926 167.407V194.885C597.904 196.692 597.171 198.418 595.885 199.689C594.599 200.959 592.864 201.672 591.057 201.672C589.249 201.672 587.514 200.959 586.228 199.689C584.942 198.418 584.209 196.692 584.187 194.885V167.407Z" fill="white"/>
<path fill-rule="evenodd" clip-rule="evenodd" d="M625.404 233.179C629.511 230.803 632.274 226.363 632.274 221.278C632.274 213.69 626.123 207.539 618.535 207.539C610.947 207.539 604.795 213.69 604.795 221.278C604.795 226.363 607.558 230.803 611.665 233.179V241.887C611.687 243.695 612.42 245.421 613.706 246.691C614.992 247.962 616.727 248.674 618.534 248.674C620.342 248.674 622.077 247.962 623.363 246.691C624.649 245.421 625.382 243.695 625.404 241.887V233.179Z" fill="#4F27AA"/>
</g>
<defs>
<linearGradient id="paint0_linear_1235_30526" x1="679.037" y1="277.302" x2="814.146" y2="170.431" gradientUnits="userSpaceOnUse">
<stop stop-color="white"/>
<stop offset="1" stop-color="#EEEEEE"/>
</linearGradient>
<linearGradient id="paint1_linear_1235_30526" x1="667.797" y1="223.3" x2="721.036" y2="31.8253" gradientUnits="userSpaceOnUse">
<stop stop-color="white"/>
<stop offset="1" stop-color="#EEEEEE"/>
</linearGradient>
<linearGradient id="paint2_linear_1235_30526" x1="267.526" y1="433.004" x2="93.2487" y2="271.078" gradientUnits="userSpaceOnUse">
<stop stop-color="white"/>
<stop offset="1" stop-color="#EEEEEE"/>
</linearGradient>
<clipPath id="clip0_1235_30526">
<rect width="900" height="600" fill="white"/>
</clipPath>
</defs>
</svg>
