<svg width="900" height="600" viewBox="0 0 900 600" fill="none" xmlns="http://www.w3.org/2000/svg">
<g clip-path="url(#clip0_1235_30551)">
<path d="M737 73H174.651C172.442 73 170.651 74.7909 170.651 77V494.289C170.651 496.498 172.442 498.289 174.651 498.289H737C739.209 498.289 741 496.498 741 494.289V77C741 74.7909 739.209 73 737 73Z" fill="white" stroke="#E1E4E5" stroke-width="4"/>
<path d="M737 73H174.651C172.442 73 170.651 74.7909 170.651 77V118.452C170.651 120.661 172.442 122.452 174.651 122.452H737C739.209 122.452 741 120.661 741 118.452V77C741 74.7909 739.209 73 737 73Z" fill="white" stroke="#E1E4E5" stroke-width="4"/>
<path d="M206.916 97.7264C206.916 93.1744 203.226 89.4844 198.674 89.4844C194.122 89.4844 190.432 93.1744 190.432 97.7264C190.432 102.278 194.122 105.968 198.674 105.968C203.226 105.968 206.916 102.278 206.916 97.7264Z" fill="#E1E4E5"/>
<path d="M236.587 97.7264C236.587 93.1744 232.897 89.4844 228.345 89.4844C223.793 89.4844 220.103 93.1744 220.103 97.7264C220.103 102.278 223.793 105.968 228.345 105.968C232.897 105.968 236.587 102.278 236.587 97.7264Z" fill="#E1E4E5"/>
<path d="M266.258 97.7264C266.258 93.1744 262.568 89.4844 258.016 89.4844C253.464 89.4844 249.774 93.1744 249.774 97.7264C249.774 102.278 253.464 105.968 258.016 105.968C262.568 105.968 266.258 102.278 266.258 97.7264Z" fill="#E1E4E5"/>
<path d="M505.234 339.608L398.626 233M584.306 339.826L690.585 233.218M213.705 339.608L319.983 233" stroke="#E1E4E5" stroke-width="4.707" stroke-linecap="round" stroke-linejoin="round"/>
<path fill-rule="evenodd" clip-rule="evenodd" d="M489.387 379.049C489.387 348.416 514.229 323.541 544.896 323.541C575.562 323.541 600.404 348.383 600.404 379.049C600.404 409.715 575.562 434.557 544.896 434.557C514.328 434.689 489.486 410.044 489.387 379.477V379.049ZM415.354 194C415.354 224.633 390.512 249.508 359.845 249.508C329.179 249.508 304.304 224.666 304.304 194C304.304 163.301 329.146 138.458 359.845 138.458C390.413 138.327 415.255 162.972 415.354 193.539V194ZM785.519 193.999C785.519 224.632 760.677 249.507 730.011 249.507C699.345 249.507 674.47 224.665 674.47 193.999C674.47 163.333 699.312 138.49 729.978 138.49C760.546 138.359 785.388 163.003 785.486 193.571C785.519 193.703 785.519 193.834 785.519 193.999ZM119.222 379.049C119.222 348.416 144.064 323.541 174.73 323.541C205.396 323.541 230.271 348.383 230.271 379.049C230.271 409.715 205.429 434.557 174.763 434.557C144.196 434.689 119.353 410.044 119.255 379.477C119.222 379.345 119.222 379.213 119.222 379.049Z" fill="#4F27AA" stroke="#4F27AA" stroke-width="4.707" stroke-linecap="round" stroke-linejoin="round"/>
<path d="M566.834 261.249H515.705V217.418H566.82C578.94 217.418 588.729 227.234 588.729 239.327C588.742 251.46 578.953 261.249 566.834 261.249Z" stroke="#4F27AA" stroke-width="24" stroke-linecap="round" stroke-linejoin="round"/>
<path d="M515.705 217.434V172.224H561.303C573.784 172.224 583.895 182.334 583.895 194.842C583.895 207.323 573.784 217.434 561.303 217.434M544.26 159.223V172.173M544.26 276.102V261.492" stroke="#4F27AA" stroke-width="24" stroke-linecap="round" stroke-linejoin="round"/>
<path d="M382.18 407.249H331.051V363.418H382.167C394.286 363.418 404.076 373.234 404.076 385.327C404.089 397.459 394.3 407.249 382.18 407.249V407.249Z" stroke="#4F27AA" stroke-width="24" stroke-linecap="round" stroke-linejoin="round"/>
<path d="M331.051 363.434V318.224H376.65C389.131 318.224 399.241 328.334 399.241 340.842C399.241 353.323 389.131 363.434 376.65 363.434M359.606 305.223V318.173M359.606 422.102V407.492" stroke="#4F27AA" stroke-width="24" stroke-linecap="round" stroke-linejoin="round"/>
<path d="M686.251 374.345H653.595M246.877 194.737H214.221M415.106 521.298H371.564M370.836 479.889H327.294M281.283 143.402H237.742" stroke="#E1E4E5" stroke-width="11" stroke-linecap="round" stroke-linejoin="round"/>
<path d="M360.311 167.031L387.65 194.37L360.311 221.709L332.972 194.37L360.311 167.031ZM174.764 352.578L202.103 379.917L174.764 407.255L147.425 379.917L174.764 352.578ZM545.858 352.578L573.197 379.917L545.858 407.255L518.519 379.917L545.858 352.578ZM729.919 167.031L757.258 194.37L729.919 221.709L702.58 194.37L729.919 167.031V167.031Z" stroke="white" stroke-width="11" stroke-linecap="round" stroke-linejoin="round"/>
<path d="M229.625 479.536H196.969M131.656 479.536H99M186.084 512.192H142.542M552.659 479.536H520.002M454.69 479.536H422.034M509.117 521.301H465.576M111.613 266.863H182.863M696.21 443.454H624.96M800.898 301.563H729.648M182.863 231.239H135.363M624.96 479.078H672.46M729.648 337.188H777.148M182.863 195.613H170.988M624.96 514.703H636.835M729.648 372.812H741.523" stroke="#E1E4E5" stroke-width="11" stroke-linecap="round" stroke-linejoin="round"/>
</g>
<defs>
<clipPath id="clip0_1235_30551">
<rect width="900" height="600" fill="white"/>
</clipPath>
</defs>
</svg>
