<svg width="900" height="600" viewBox="0 0 900 600" fill="none" xmlns="http://www.w3.org/2000/svg">
<g clip-path="url(#clip0_1235_30567)">
<path d="M573.209 441.585C528.737 455.091 482.322 461.843 435.841 463.181C412.667 463.849 389.426 463.047 366.453 460.306C345.557 457.765 324.325 454.021 304.366 447.068C286.952 441.051 268.467 429.551 270.141 408.625C270.074 409.226 270.007 409.761 270.007 410.363L269.605 412.97C264.984 440.315 260.296 467.593 255.674 494.938C255.072 497.88 255.005 498.348 255.473 496.409C255.339 496.944 255.206 497.545 255.072 498.08C258.487 485.845 266.524 475.883 274.361 466.189C282.063 456.695 290.033 447.135 295.525 436.17C298.338 430.487 300.415 425.005 301.754 418.854C305.639 400.936 308.184 382.216 311.198 364.164C313.676 349.455 316.891 334.479 318.163 319.57C319.168 307.937 315.819 296.972 307.983 288.214C291.708 270.028 265.587 265.014 242.212 264.947C217.766 264.947 192.985 269.293 168.739 264.412C156.349 261.872 144.293 256.724 135.586 247.363C126.812 237.936 118.44 223.829 119.378 210.525C119.311 211.126 119.244 211.661 119.244 212.263C118.239 218.815 117.167 225.3 116.163 231.852C112.077 255.052 108.059 278.319 103.973 301.518C104.04 301.184 104.107 300.917 104.174 300.582C104.04 301.117 103.906 301.719 103.772 302.254C109.331 280.859 134.447 277.917 152.799 276.848C153.268 276.848 155.88 261.002 155.478 263.008C157.49 251.833 159.433 240.646 161.305 229.446C163.18 218.28 165.122 207.048 166.864 195.883C167.065 194.479 168.739 181.91 168.873 181.91C157.621 182.578 145.766 183.18 135.653 188.529C131.366 190.802 127.415 193.944 124.401 197.822C119.78 203.839 118.909 211.06 117.569 218.347C113.484 240.678 109.666 263.075 106.049 285.472C104.844 293.027 102.701 301.05 103.035 308.806C103.303 314.422 105.246 319.837 107.657 324.852C112.412 334.546 118.976 343.572 128.018 349.656C146.369 361.891 170.079 362.225 191.31 361.289C213.747 360.286 236.787 357.612 258.755 363.83C270.543 367.173 282.13 372.989 290.636 381.948C299.142 390.907 302.893 402.206 301.888 414.508C301.955 413.906 302.022 413.371 302.022 412.77C300.348 428.348 302.759 414.374 309.255 370.917C317.493 327.727 319.838 313.82 316.288 329.064C316.422 328.529 316.556 327.927 316.69 327.392C313.073 341.566 304.701 353.534 295.659 364.833C286.952 375.73 276.772 386.495 272.084 399.933C269.806 406.485 268.869 413.572 267.663 420.325C262.841 447.001 257.617 473.878 254.201 500.755C253.397 507.307 253.866 513.725 256.88 519.675C261.702 529.102 271.213 535.119 280.723 539.198C292.109 544.145 304.5 547.02 316.623 549.628C331.65 552.834 346.86 555.111 362.167 556.447C392.842 559.255 423.785 558.72 454.46 555.979C489.154 552.904 523.58 546.552 556.934 536.457C557.737 536.189 559.948 520.946 559.613 522.617C561.625 511.442 563.568 500.254 565.44 489.054C567.315 477.889 569.257 466.657 570.999 455.492C571.401 453.018 571.802 450.544 572.137 448.071C572.74 445.998 573.008 443.792 573.209 441.585Z" fill="#E1E4E5"/>
<path d="M255.946 495.281C259.785 484.42 267.126 475.246 274.332 466.342C280.663 458.45 287.263 450.558 292.448 441.856C292.448 441.856 292.381 441.856 292.381 441.788H292.516C293.66 439.9 294.671 438.011 295.681 436.055C298.509 430.321 300.462 424.317 301.809 418.112C301.809 417.977 301.877 417.774 301.877 417.639C301.944 416.83 302.011 415.548 302.214 413.727C303.089 401.518 299.385 390.253 290.899 381.281C289.292 379.603 287.582 378.026 285.781 376.559C280.258 383.574 275.207 390.995 272.312 399.426C270.022 406.037 269.079 413.187 267.867 420C263.018 446.915 257.765 474.032 254.33 501.149C254.263 501.419 254.263 501.756 254.263 502.026C254.734 499.8 255.408 497.507 255.946 495.281ZM255.34 496.765C255.205 497.372 255.138 497.709 255.071 497.844C255.206 497.507 255.273 497.102 255.34 496.765Z" fill="url(#paint0_linear_1235_30567)"/>
<path d="M103.674 300.374C103.741 300.173 103.741 300.038 103.808 299.837C103.741 300.173 103.674 300.441 103.607 300.776C103.607 300.642 103.607 300.508 103.674 300.374C103.607 300.776 103.473 301.179 103.406 301.515C108.973 280.043 134.126 277.091 152.504 276.017C152.973 276.017 155.589 260.115 155.187 262.128C155.321 261.323 155.455 260.585 155.589 259.779C155.455 259.712 155.254 259.645 155.12 259.578C155.187 259.511 155.254 259.444 155.321 259.444C155.455 259.377 155.589 259.243 155.723 259.176C157.534 248.977 159.345 238.711 161.089 228.445C162.967 217.239 164.912 205.967 166.656 194.761C166.857 193.352 168.534 180.738 168.668 180.738C157.4 181.409 145.528 182.013 135.4 187.38C131.107 189.662 127.15 192.815 124.132 196.707C119.504 202.746 118.632 209.993 117.29 217.306C113.199 239.717 109.375 262.195 105.753 284.673C104.881 290.041 103.607 295.61 103.003 301.112C103.205 300.709 103.406 300.307 103.674 299.904V300.374Z" fill="url(#paint1_linear_1235_30567)"/>
<path d="M462.024 484.543C550.205 484.543 621.69 413.058 621.69 324.877C621.69 236.696 550.205 165.211 462.024 165.211C373.843 165.211 302.358 236.696 302.358 324.877C302.358 413.058 373.843 484.543 462.024 484.543Z" fill="#4F27AA"/>
<path d="M476.087 259.896L489.642 280.932C491.782 284.241 496.538 287.55 500.105 288.495L524.361 294.64C539.343 298.422 543.386 311.185 533.636 323.003L517.703 342.147C515.325 345.22 513.422 350.656 513.66 354.438L515.087 379.255C516.038 394.618 505.099 402.417 490.831 396.745L467.526 387.527C463.959 386.109 458.014 386.109 454.447 387.527L431.142 396.745C416.874 402.417 405.935 394.381 406.886 379.255L408.313 354.438C408.551 350.656 406.649 344.983 404.271 342.147L388.338 323.003C378.588 311.185 382.63 298.422 397.612 294.64L421.868 288.495C425.673 287.55 430.429 284.004 432.331 280.932L445.886 259.896C454.447 247.133 467.764 247.133 476.087 259.896Z" fill="white"/>
<path d="M302.022 157.726C346.495 144.22 392.909 137.468 439.391 136.131C462.565 135.462 485.805 136.264 508.778 139.005C529.675 141.546 550.906 145.29 570.865 152.243C588.279 158.26 606.765 169.76 605.09 190.686C605.157 190.085 605.224 189.55 605.224 188.948L605.626 186.341C610.247 158.996 614.936 131.718 619.557 104.373C620.16 101.431 620.227 100.963 619.758 102.902C619.892 102.367 620.026 101.766 620.16 101.231C616.744 113.466 608.707 123.428 600.871 133.122C593.168 142.616 585.198 152.176 579.706 163.141C576.893 168.824 574.817 174.306 573.477 180.457C569.593 198.375 567.048 217.095 564.034 235.147C561.556 249.856 558.341 264.832 557.068 279.741C556.064 291.374 559.412 302.339 567.249 311.097C583.524 329.283 609.645 334.297 633.019 334.364C657.466 334.364 682.247 330.018 706.492 334.899C718.883 337.439 730.939 342.587 739.646 351.948C748.419 361.375 756.791 375.482 755.854 388.786C755.921 388.185 755.988 387.65 755.988 387.048C756.992 380.496 758.064 374.011 759.069 367.459C763.154 344.259 767.173 320.992 771.258 297.793C771.191 298.127 771.124 298.394 771.057 298.729C771.191 298.194 771.325 297.592 771.459 297.057C765.9 318.452 740.784 321.394 722.433 322.463C721.964 322.463 719.352 338.309 719.754 336.303C717.741 347.478 715.798 358.665 713.927 369.865C712.051 381.031 710.109 392.263 708.368 403.428C708.167 404.832 706.492 417.401 706.358 417.401C717.61 416.733 729.465 416.131 739.579 410.782C743.865 408.509 747.817 405.367 750.831 401.489C755.452 395.472 756.323 388.251 757.662 380.964C761.748 358.633 765.565 336.236 769.182 313.839C770.388 306.284 772.531 298.261 772.196 290.505C771.928 284.889 769.986 279.474 767.575 274.459C762.819 264.765 756.256 255.739 747.214 249.655C728.862 237.42 705.153 237.086 683.921 238.022C661.484 239.025 638.444 241.699 616.476 235.481C604.688 232.138 593.101 226.322 584.595 217.363C576.089 208.404 572.339 197.105 573.343 184.803C573.276 185.405 573.209 185.94 573.209 186.541C574.884 170.963 572.473 184.937 565.976 228.394C557.738 271.584 555.394 285.491 558.944 270.247C558.81 270.782 558.676 271.384 558.542 271.919C562.158 257.745 570.53 245.777 579.572 234.478C588.279 223.581 598.46 212.816 603.148 199.378C605.425 192.826 606.363 185.739 607.568 178.986C612.391 152.31 617.615 125.433 621.031 98.5559C621.834 92.0039 621.365 85.5859 618.352 79.6359C613.529 70.2089 604.019 64.1919 594.508 60.1129C583.122 55.1659 570.731 52.2909 558.609 49.6829C543.582 46.4767 528.372 44.1991 513.065 42.8629C482.39 40.0559 451.447 40.5909 420.771 43.3319C386.078 46.4069 351.652 52.7589 318.298 62.8539C317.494 63.1219 315.284 78.3649 315.619 76.6939C313.605 87.8691 311.663 99.057 309.792 110.257C307.916 121.422 305.974 132.654 304.233 143.819C303.831 146.293 303.429 148.767 303.094 151.24C302.491 153.313 302.223 155.519 302.022 157.726Z" fill="#E1E4E5"/>
<path d="M619.285 104.031C615.446 114.891 608.106 124.065 600.899 132.969C594.569 140.861 587.969 148.754 582.783 157.455C582.783 157.455 582.851 157.455 582.851 157.523H582.716C581.571 159.412 580.561 161.3 579.551 163.257C576.722 168.99 574.769 174.994 573.422 181.2C573.422 181.335 573.355 181.537 573.355 181.672C573.287 182.481 573.22 183.763 573.018 185.584C572.142 197.794 575.847 209.059 584.332 218.03C585.94 219.708 587.649 221.285 589.451 222.752C594.973 215.737 600.024 208.317 602.92 199.885C605.21 193.274 606.153 186.124 607.365 179.311C612.214 152.396 617.467 125.279 620.901 98.1622C620.969 97.8922 620.969 97.5552 620.969 97.2852C620.497 99.5112 619.824 101.805 619.285 104.031ZM619.891 102.547C620.026 101.94 620.093 101.602 620.161 101.467C620.026 101.805 619.959 102.209 619.891 102.547Z" fill="url(#paint2_linear_1235_30567)"/>
<path d="M771.557 298.938C771.49 299.139 771.49 299.273 771.423 299.474C771.49 299.139 771.557 298.871 771.624 298.535C771.624 298.669 771.624 298.803 771.557 298.938C771.624 298.535 771.758 298.132 771.825 297.797C766.258 319.268 741.105 322.221 722.727 323.294C722.258 323.294 719.642 339.197 720.044 337.184C719.91 337.989 719.776 338.727 719.642 339.532C719.776 339.599 719.977 339.666 720.111 339.733C720.044 339.8 719.977 339.868 719.91 339.868C719.776 339.935 719.642 340.069 719.508 340.136C717.697 350.335 715.886 360.601 714.142 370.867C712.264 382.072 710.319 393.345 708.575 404.55C708.373 405.959 706.697 418.574 706.562 418.574C717.831 417.903 729.703 417.299 739.831 411.931C744.124 409.65 748.081 406.496 751.099 402.604C755.727 396.566 756.599 389.319 757.941 382.005C762.032 359.594 765.856 337.117 769.478 314.639C770.35 309.271 771.624 303.702 772.228 298.2C772.026 298.602 771.825 299.005 771.557 299.407V298.938Z" fill="url(#paint3_linear_1235_30567)"/>
<path d="M773.764 340.807C760.821 347.227 743.642 338.972 743.642 338.972C743.642 338.972 747.46 320.31 760.41 313.899C773.353 307.479 790.524 315.725 790.524 315.725C790.524 315.725 786.706 334.386 773.764 340.807Z" fill="url(#paint4_linear_1235_30567)"/>
<path d="M222.974 170.243C242.457 181.92 270.411 171.126 270.411 171.126C270.411 171.126 266.756 141.402 247.26 129.738C227.776 118.06 199.835 128.842 199.835 128.842C199.835 128.842 203.49 158.565 222.974 170.243Z" fill="url(#paint5_linear_1235_30567)"/>
<path d="M269.669 219.797C261.314 219.797 254.542 226.569 254.542 234.924C254.542 243.278 261.314 250.051 269.669 250.051C278.023 250.051 284.796 243.278 284.796 234.924C284.796 226.569 278.023 219.797 269.669 219.797Z" fill="#4F27AA"/>
<path d="M196.035 522.833C186.521 522.833 178.808 515.12 178.808 505.606C178.808 496.092 186.521 488.379 196.035 488.379C205.549 488.379 213.262 496.092 213.262 505.606C213.262 515.12 205.549 522.833 196.035 522.833Z" fill="#4F27AA"/>
<path d="M643.073 196.629C638.633 196.629 635.034 193.03 635.034 188.59C635.034 184.15 638.633 180.551 643.073 180.551C647.513 180.551 651.112 184.15 651.112 188.59C651.112 193.03 647.513 196.629 643.073 196.629Z" fill="#4F27AA"/>
<path d="M158.036 153.25C152.328 153.25 147.7 148.623 147.7 142.914C147.7 137.206 152.328 132.578 158.036 132.578C163.744 132.578 168.372 137.206 168.372 142.914C168.372 148.623 163.744 153.25 158.036 153.25Z" fill="#E1E4E5"/>
<path d="M121.201 406.653C112.955 406.653 106.271 399.969 106.271 391.723C106.271 383.477 112.955 376.793 121.201 376.793C129.446 376.793 136.131 383.477 136.131 391.723C136.131 399.969 129.446 406.653 121.201 406.653Z" fill="#E1E4E5"/>
<path d="M681.879 132.512C677.683 132.512 674.281 129.111 674.281 124.914C674.281 120.718 677.683 117.316 681.879 117.316C686.075 117.316 689.477 120.718 689.477 124.914C689.477 129.111 686.075 132.512 681.879 132.512Z" fill="#E1E4E5"/>
<path d="M737.309 195.164C737.309 201.429 732.23 206.508 725.965 206.508C719.7 206.508 714.621 201.429 714.621 195.164C714.621 188.899 719.7 183.82 725.965 183.82C732.23 183.82 737.309 188.899 737.309 195.164Z" fill="#E1E4E5"/>
<path d="M269.772 84.5437C265.576 84.5437 262.174 81.1419 262.174 76.9457C262.174 72.7494 265.576 69.3477 269.772 69.3477C273.968 69.3477 277.37 72.7494 277.37 76.9457C277.37 81.1419 273.968 84.5437 269.772 84.5437Z" fill="#E1E4E5"/>
<path d="M662.996 457.508C656.585 457.508 651.387 453.35 651.387 448.221C651.387 443.092 656.585 438.934 662.996 438.934C669.407 438.934 674.605 443.092 674.605 448.221C674.605 453.35 669.407 457.508 662.996 457.508Z" fill="#E1E4E5"/>
<path d="M223.957 398.598H224.115C225.056 412.432 234.963 412.645 234.963 412.645C234.963 412.645 224.038 412.867 224.038 428.852C224.038 412.867 213.113 412.645 213.113 412.645C213.113 412.645 223.016 412.432 223.957 398.598Z" fill="#E1E4E5"/>
</g>
<defs>
<linearGradient id="paint0_linear_1235_30567" x1="227.308" y1="441.968" x2="354.652" y2="441.4" gradientUnits="userSpaceOnUse">
<stop stop-color="white"/>
<stop offset="1" stop-color="#EEEEEE"/>
</linearGradient>
<linearGradient id="paint1_linear_1235_30567" x1="66.1879" y1="243.701" x2="240.117" y2="242.6" gradientUnits="userSpaceOnUse">
<stop stop-color="white"/>
<stop offset="1" stop-color="#EEEEEE"/>
</linearGradient>
<linearGradient id="paint2_linear_1235_30567" x1="647.923" y1="157.343" x2="520.579" y2="157.912" gradientUnits="userSpaceOnUse">
<stop stop-color="white"/>
<stop offset="1" stop-color="#EEEEEE"/>
</linearGradient>
<linearGradient id="paint3_linear_1235_30567" x1="809.043" y1="355.61" x2="635.114" y2="356.711" gradientUnits="userSpaceOnUse">
<stop stop-color="white"/>
<stop offset="1" stop-color="#EEEEEE"/>
</linearGradient>
<linearGradient id="paint4_linear_1235_30567" x1="724.062" y1="360.833" x2="830.815" y2="276.392" gradientUnits="userSpaceOnUse">
<stop stop-color="white"/>
<stop offset="1" stop-color="#EEEEEE"/>
</linearGradient>
<linearGradient id="paint5_linear_1235_30567" x1="298.371" y1="207.832" x2="141.597" y2="62.1678" gradientUnits="userSpaceOnUse">
<stop stop-color="white"/>
<stop offset="1" stop-color="#EEEEEE"/>
</linearGradient>
<clipPath id="clip0_1235_30567">
<rect width="900" height="600" fill="white"/>
</clipPath>
</defs>
</svg>
