<svg width="900" height="600" viewBox="0 0 900 600" fill="none" xmlns="http://www.w3.org/2000/svg">
<g clip-path="url(#clip0_1235_30589)">
<path d="M625.858 189.835C615.277 208.719 592.102 211.314 554.975 207.725C527.053 205.021 501.59 202.929 473.666 187.704C454.121 177.056 438.649 162.648 427.357 148.655C415.121 133.496 398.041 116.196 406.414 99.008C417.92 75.398 484.461 55.512 549.074 88.031C620.051 123.764 636.21 171.378 625.858 189.835Z" fill="url(#paint0_linear_1235_30589)"/>
<path d="M185.777 194.517C201.247 203.789 223.441 195.218 223.441 195.218C223.441 195.218 220.539 171.618 205.06 162.357C189.59 153.085 167.405 161.645 167.405 161.645C167.405 161.645 170.307 185.245 185.777 194.517Z" fill="url(#paint1_linear_1235_30589)"/>
<path d="M693.726 348.718C685.668 348.718 679.136 355.251 679.136 363.308C679.136 371.366 685.668 377.898 693.726 377.898C701.784 377.898 708.316 371.366 708.316 363.308C708.316 355.251 701.784 348.718 693.726 348.718Z" fill="#4F27AA"/>
<path d="M205.029 249.578C198.396 249.578 193.019 254.955 193.019 261.588C193.019 268.221 198.396 273.598 205.029 273.598C211.662 273.598 217.039 268.221 217.039 261.588C217.039 254.955 211.662 249.578 205.029 249.578Z" fill="#4F27AA"/>
<path d="M206.696 432.575C199.142 432.575 193.018 426.451 193.018 418.897C193.018 411.343 199.142 405.219 206.696 405.219C214.25 405.219 220.374 411.343 220.374 418.897C220.374 426.451 214.25 432.575 206.696 432.575Z" fill="#4F27AA"/>
<path d="M659.934 255.946C656.409 255.946 653.551 253.088 653.551 249.563C653.551 246.037 656.409 243.18 659.934 243.18C663.459 243.18 666.317 246.037 666.317 249.563C666.317 253.088 663.459 255.946 659.934 255.946Z" fill="#4F27AA"/>
<path d="M448.548 550.625C444.015 550.625 440.341 546.951 440.341 542.418C440.341 537.885 444.015 534.211 448.548 534.211C453.081 534.211 456.755 537.885 456.755 542.418C456.755 546.951 453.081 550.625 448.548 550.625Z" fill="#E1E4E5"/>
<path d="M572.157 505.708C567.174 505.708 563.135 501.669 563.135 496.686C563.135 491.703 567.174 487.664 572.157 487.664C577.14 487.664 581.179 491.703 581.179 496.686C581.179 501.669 577.14 505.708 572.157 505.708Z" fill="#E1E4E5"/>
<path d="M666.78 168.361C661.241 168.361 656.75 163.87 656.75 158.331C656.75 152.791 661.241 148.301 666.78 148.301C672.319 148.301 676.81 152.791 676.81 158.331C676.81 163.87 672.319 168.361 666.78 168.361Z" fill="#E1E4E5"/>
<path d="M675.675 484.354C676.962 489.159 674.111 494.098 669.306 495.385C664.501 496.673 659.562 493.821 658.275 489.017C656.987 484.212 659.839 479.273 664.644 477.985C669.449 476.698 674.387 479.549 675.675 484.354Z" fill="#E1E4E5"/>
<path d="M299.879 143.486C293.261 143.486 287.896 138.121 287.896 131.503C287.896 124.885 293.261 119.52 299.879 119.52C306.497 119.52 311.862 124.885 311.862 131.503C311.862 138.121 306.497 143.486 299.879 143.486Z" fill="#E1E4E5"/>
<path d="M220.771 499.139C215.681 499.139 211.554 495.837 211.554 491.765C211.554 487.692 215.681 484.391 220.771 484.391C225.861 484.391 229.988 487.692 229.988 491.765C229.988 495.837 225.861 499.139 220.771 499.139Z" fill="#E1E4E5"/>
<path d="M314.856 489.396C317.536 499.396 311.601 509.675 301.601 512.355C291.601 515.034 281.321 509.1 278.642 499.099C275.962 489.099 281.897 478.82 291.897 476.14C301.898 473.461 312.177 479.395 314.856 489.396Z" fill="#E1E4E5"/>
<path d="M666.62 409.344H666.861C668.289 429.575 683.335 429.887 683.335 429.887C683.335 429.887 666.743 430.21 666.743 453.587C666.743 430.21 650.152 429.887 650.152 429.887C650.152 429.887 665.192 429.575 666.62 409.344Z" fill="#E1E4E5"/>
<path d="M168.112 116.755L294.314 82.9405C303.007 80.6105 310.827 78.9455 318.075 78.5095C356.513 74.4465 373.135 96.6595 391.307 164.477L423.565 284.865C441.737 352.684 438.448 380.232 403.128 395.932C396.633 399.177 389.028 401.646 380.335 403.975L254.133 437.79C245.439 440.12 237.619 441.785 230.372 442.221C191.934 446.284 175.311 424.073 157.139 356.254L124.881 235.865C106.71 168.047 109.999 140.499 145.319 124.798C151.813 121.553 159.418 119.085 168.112 116.755Z" fill="white" stroke="#E1E4E5" stroke-width="11"/>
<path d="M274.837 185.711L319.724 173.684M205.221 259.347L205.478 259.278L333.47 224.983M218.302 308.164L218.559 308.095L346.551 273.8M231.383 356.981L231.639 356.912L359.631 322.617M231.157 197.415L231.272 197.384M192.682 207.724L192.797 207.693" stroke="#E1E4E5" stroke-width="24" stroke-linecap="round" stroke-linejoin="round"/>
<path d="M606.33 82.9405L732.531 116.757C741.225 119.086 748.83 121.554 755.325 124.8C790.645 140.5 793.934 168.048 775.762 235.867L743.504 356.255C725.332 424.073 708.71 446.285 670.272 442.223C663.024 441.785 655.204 440.12 646.51 437.79L520.309 403.975C511.615 401.646 504.01 399.178 497.516 395.932C462.196 380.232 458.906 352.685 477.078 284.866L509.336 164.478C527.508 96.6585 544.131 74.4465 582.569 78.5095C589.816 78.9465 597.636 80.6115 606.33 82.9405Z" fill="white" stroke="#E1E4E5" stroke-width="11"/>
<path d="M664.281 196.022L709.168 208.049M567.173 224.984L567.43 225.053L695.422 259.348M554.093 273.802L554.349 273.871L682.341 308.166M541.013 322.618L541.269 322.687L669.261 356.982M620.601 184.318L620.716 184.349M582.126 174.008L582.241 174.039" stroke="#E1E4E5" stroke-width="24" stroke-linecap="round" stroke-linejoin="round"/>
<path d="M374.553 48.7344H525.681C536.092 48.7344 545.328 49.2144 553.556 50.8964C597.719 57.8644 609.641 87.6594 609.641 168.873V313.039C609.641 394.253 597.719 424.047 553.556 431.015C545.328 432.697 536.092 433.178 525.681 433.178H374.553C364.142 433.178 354.906 432.697 346.678 431.015C302.515 424.047 290.593 394.253 290.593 313.039V168.873C290.593 87.6594 302.515 57.8644 346.678 50.8964C354.906 49.2144 364.142 48.7344 374.553 48.7344Z" fill="white" stroke="#E1E4E5" stroke-width="11"/>
<path d="M473.154 157.728H526.907M373.327 219.159H526.907M373.327 277.618H526.907M373.327 336.078H526.907M420.847 157.727H420.985M374.772 157.727H374.91" stroke="#E1E4E5" stroke-width="24" stroke-linecap="round" stroke-linejoin="round"/>
<path d="M450.673 560.821C504.342 560.821 547.849 517.314 547.849 463.645C547.849 409.976 504.342 366.469 450.673 366.469C397.004 366.469 353.497 409.976 353.497 463.645C353.497 517.314 397.004 560.821 450.673 560.821Z" fill="#4F27AA"/>
<path d="M457.52 435.052C457.52 431.2 454.398 428.078 450.547 428.078C446.695 428.078 443.573 431.2 443.573 435.052V492.985C443.573 496.837 446.695 499.959 450.547 499.959C454.398 499.959 457.52 496.837 457.52 492.985V435.052Z" fill="white"/>
<path d="M479.513 470.994C483.365 470.994 486.487 467.872 486.487 464.02C486.487 460.169 483.365 457.047 479.513 457.047H421.58C417.728 457.047 414.606 460.169 414.606 464.02C414.606 467.872 417.728 470.994 421.58 470.994H479.513Z" fill="white"/>
</g>
<defs>
<linearGradient id="paint0_linear_1235_30589" x1="554.575" y1="312.225" x2="460.26" y2="-111.586" gradientUnits="userSpaceOnUse">
<stop stop-color="white"/>
<stop offset="1" stop-color="#EEEEEE"/>
</linearGradient>
<linearGradient id="paint1_linear_1235_30589" x1="245.641" y1="224.362" x2="121.165" y2="108.708" gradientUnits="userSpaceOnUse">
<stop stop-color="white"/>
<stop offset="1" stop-color="#EEEEEE"/>
</linearGradient>
<clipPath id="clip0_1235_30589">
<rect width="900" height="600" fill="white"/>
</clipPath>
</defs>
</svg>
