<svg width="900" height="600" viewBox="0 0 900 600" fill="none" xmlns="http://www.w3.org/2000/svg">
<g clip-path="url(#clip0_1235_30614)">
<path d="M734.5 443.914V147.086C734.5 116.939 710.061 92.5 679.914 92.5L218.086 92.5C187.939 92.5 163.5 116.939 163.5 147.086V443.914C163.5 474.061 187.939 498.5 218.086 498.5L679.914 498.5C710.061 498.5 734.5 474.061 734.5 443.914Z" fill="white" stroke="#E1E4E5" stroke-width="11"/>
<path d="M517.18 304.786V388.241M588.855 221V388.246M445.504 262.881V388.243M374.195 304.786V388.241M302.52 221V388.245M230.844 346.673V388.246" stroke="#4F27AA" stroke-width="36.547" stroke-linecap="round" stroke-linejoin="round"/>
<path d="M368.689 347.418C372.964 347.418 376.429 350.884 376.429 355.158C376.429 359.433 372.964 362.898 368.689 362.898C364.414 362.898 360.949 359.433 360.949 355.158C360.949 350.884 364.414 347.418 368.689 347.418Z" fill="#4F27AA"/>
<path d="M695.074 300.874H646.661M695.074 329.594H646.661M646.661 276.668H678.937M646.661 353.8H678.936M646.661 252.461H654.73M646.661 378.006H654.73" stroke="#E1E4E5" stroke-width="12.945" stroke-linecap="round" stroke-linejoin="round"/>
<path fill-rule="evenodd" clip-rule="evenodd" d="M205.188 270.619H207.909C208.224 270.62 208.526 270.745 208.748 270.968C208.971 271.191 209.096 271.492 209.097 271.807V274.528C209.097 275.187 208.562 275.716 207.909 275.716H205.188C204.873 275.715 204.572 275.59 204.349 275.367C204.127 275.145 204.001 274.843 204 274.528V271.807C204 271.651 204.03 271.497 204.09 271.352C204.15 271.208 204.237 271.077 204.347 270.967C204.458 270.856 204.589 270.769 204.733 270.709C204.877 270.65 205.032 270.619 205.188 270.619ZM214.623 270.619H217.345C217.997 270.619 218.532 271.155 218.532 271.807V274.528C218.532 275.187 217.997 275.716 217.345 275.716H214.623C214.308 275.715 214.007 275.589 213.784 275.367C213.562 275.144 213.436 274.843 213.435 274.528V271.807C213.435 271.155 213.971 270.619 214.623 270.619ZM224.065 270.619H226.786C227.439 270.619 227.974 271.155 227.974 271.807V274.528C227.974 275.187 227.439 275.716 226.786 275.716H224.065C223.75 275.715 223.449 275.59 223.226 275.367C223.004 275.145 222.878 274.843 222.877 274.528V271.807C222.877 271.651 222.907 271.497 222.967 271.352C223.026 271.208 223.114 271.077 223.224 270.967C223.335 270.856 223.466 270.769 223.61 270.709C223.754 270.65 223.909 270.619 224.065 270.619ZM233.5 270.619H236.222C236.874 270.619 237.409 271.155 237.409 271.807V274.528C237.409 275.187 236.874 275.716 236.222 275.716H233.5C233.184 275.716 232.882 275.591 232.658 275.369C232.435 275.146 232.308 274.844 232.307 274.528V271.807C232.31 271.492 232.437 271.191 232.66 270.969C232.883 270.747 233.185 270.621 233.5 270.619ZM242.936 270.619H245.658C246.316 270.619 246.851 271.155 246.851 271.807V274.528C246.851 274.685 246.82 274.84 246.76 274.984C246.699 275.128 246.611 275.259 246.501 275.37C246.39 275.48 246.258 275.567 246.114 275.627C245.969 275.686 245.814 275.717 245.658 275.716H242.936C242.621 275.715 242.32 275.589 242.097 275.367C241.875 275.144 241.749 274.843 241.748 274.528V271.807C241.748 271.155 242.284 270.619 242.936 270.619ZM214.969 280.908H217.69C218.343 280.908 218.878 281.443 218.878 282.096V284.823C218.878 285.475 218.343 286.011 217.69 286.011H214.969C214.654 286.011 214.352 285.886 214.13 285.663C213.907 285.44 213.782 285.138 213.781 284.823V282.101C213.78 281.945 213.81 281.79 213.87 281.645C213.929 281.5 214.016 281.369 214.127 281.258C214.237 281.147 214.369 281.059 214.513 280.999C214.658 280.939 214.813 280.908 214.969 280.908ZM224.404 280.908H227.126C227.778 280.908 228.314 281.443 228.314 282.096V284.823C228.314 285.475 227.778 286.011 227.126 286.011H224.404C224.089 286.01 223.788 285.884 223.566 285.662C223.343 285.439 223.218 285.138 223.217 284.823V282.101C223.216 281.945 223.246 281.79 223.305 281.645C223.364 281.5 223.452 281.369 223.562 281.258C223.672 281.147 223.804 281.059 223.948 280.999C224.093 280.939 224.248 280.908 224.404 280.908ZM233.841 280.908H236.562C237.22 280.908 237.756 281.443 237.756 282.096V284.823C237.756 285.475 237.22 286.011 236.562 286.011H233.841C233.526 286.01 233.225 285.885 233.002 285.662C232.78 285.439 232.654 285.138 232.653 284.823V282.101C232.653 281.443 233.188 280.908 233.841 280.908ZM224.065 259.566H226.786C227.439 259.566 227.974 260.101 227.974 260.754V263.475C227.974 264.133 227.439 264.663 226.786 264.663H224.065C223.75 264.662 223.449 264.537 223.226 264.314C223.004 264.092 222.878 263.79 222.877 263.475V260.754C222.877 260.598 222.907 260.444 222.967 260.299C223.026 260.155 223.114 260.024 223.224 259.913C223.334 259.803 223.466 259.716 223.61 259.656C223.754 259.596 223.909 259.566 224.065 259.566ZM215.262 259.566H217.983C218.636 259.566 219.171 260.101 219.171 260.754V263.475C219.171 264.133 218.636 264.663 217.983 264.663H215.262C214.947 264.662 214.646 264.537 214.423 264.314C214.201 264.091 214.075 263.79 214.074 263.475V260.754C214.074 260.598 214.104 260.444 214.164 260.299C214.224 260.155 214.311 260.024 214.421 259.914C214.532 259.803 214.663 259.716 214.807 259.656C214.951 259.597 215.106 259.566 215.262 259.566ZM233.5 259.566H236.222C236.874 259.566 237.409 260.101 237.409 260.754V263.475C237.409 264.133 236.874 264.663 236.222 264.663H233.5C233.184 264.663 232.882 264.538 232.658 264.316C232.435 264.093 232.308 263.791 232.307 263.475V260.754C232.31 260.439 232.437 260.138 232.66 259.916C232.883 259.694 233.185 259.568 233.5 259.566Z" fill="#E1E4E5"/>
<path d="M823.806 476.988H75.593C67.2574 476.988 60.5 483.746 60.5 492.081C60.5 500.417 67.2574 507.174 75.593 507.174H823.806C832.142 507.174 838.899 500.417 838.899 492.081C838.899 483.746 832.142 476.988 823.806 476.988Z" fill="white" stroke="#E1E4E5" stroke-width="11"/>
</g>
<defs>
<clipPath id="clip0_1235_30614">
<rect width="900" height="600" fill="white"/>
</clipPath>
</defs>
</svg>
