<svg width="900" height="600" viewBox="0 0 900 600" fill="none" xmlns="http://www.w3.org/2000/svg">
<g clip-path="url(#clip0_1235_30622)">
<path d="M82.73 88C82.73 67.013 99.743 50 120.73 50H779.613C800.6 50 817.613 67.013 817.613 88V511.73C817.613 532.717 800.6 549.73 779.613 549.73H120.73C99.743 549.73 82.73 532.717 82.73 511.73V88Z" fill="white" stroke="#E1E4E5" stroke-width="4"/>
<path d="M633.92 159.762H633.919C616.449 159.762 602.287 173.924 602.287 191.394V191.395C602.287 208.865 616.449 223.027 633.919 223.027H633.92C651.39 223.027 665.552 208.865 665.552 191.395V191.394C665.552 173.924 651.39 159.762 633.92 159.762Z" fill="#4F27AA"/>
<path fill-rule="evenodd" clip-rule="evenodd" d="M648.296 204.662V206.778C648.296 207.945 647.361 208.893 646.209 208.893H621.161C620.009 208.893 619.073 207.945 619.073 206.778V204.629C619.073 198.228 626.291 194.07 633.685 194.07C641.078 194.07 648.296 198.23 648.296 204.629M638.924 175.488C639.625 176.174 640.183 176.991 640.565 177.894C640.948 178.796 641.148 179.766 641.153 180.746C641.159 181.726 640.97 182.698 640.597 183.605C640.224 184.511 639.675 185.335 638.982 186.028C638.289 186.721 637.465 187.27 636.558 187.643C635.652 188.015 634.68 188.204 633.7 188.199C632.719 188.193 631.75 187.993 630.847 187.611C629.945 187.228 629.127 186.67 628.442 185.969C627.078 184.574 626.319 182.697 626.33 180.745C626.34 178.794 627.121 176.925 628.501 175.546C629.881 174.166 631.749 173.386 633.7 173.375C635.652 173.364 637.529 174.124 638.924 175.488Z" fill="white"/>
<path d="M730.342 159.762H730.341C712.871 159.762 698.709 173.924 698.709 191.394V191.395C698.709 208.865 712.871 223.027 730.341 223.027H730.342C747.812 223.027 761.974 208.865 761.974 191.395V191.394C761.974 173.924 747.812 159.762 730.342 159.762Z" fill="#4F27AA"/>
<path fill-rule="evenodd" clip-rule="evenodd" d="M744.719 204.662V206.778C744.719 207.945 743.784 208.893 742.631 208.893H717.583C716.431 208.893 715.496 207.945 715.496 206.778V204.629C715.496 198.228 722.714 194.07 730.107 194.07C737.501 194.07 744.719 198.23 744.719 204.629M735.346 175.488C736.047 176.174 736.605 176.991 736.987 177.894C737.37 178.796 737.57 179.766 737.575 180.746C737.581 181.726 737.392 182.698 737.019 183.605C736.646 184.511 736.097 185.335 735.404 186.028C734.711 186.721 733.887 187.27 732.98 187.643C732.074 188.015 731.102 188.204 730.122 188.199C729.141 188.193 728.172 187.993 727.269 187.611C726.367 187.228 725.549 186.67 724.864 185.969C723.5 184.574 722.741 182.697 722.752 180.745C722.762 178.794 723.543 176.925 724.923 175.546C726.303 174.166 728.171 173.386 730.122 173.375C732.074 173.364 733.951 174.124 735.346 175.488Z" fill="white"/>
<path d="M537.515 159.762H537.514C520.044 159.762 505.882 173.924 505.882 191.394V191.395C505.882 208.865 520.044 223.027 537.514 223.027H537.515C554.985 223.027 569.147 208.865 569.147 191.395V191.394C569.147 173.924 554.985 159.762 537.515 159.762Z" fill="#4F27AA"/>
<path fill-rule="evenodd" clip-rule="evenodd" d="M551.891 204.662V206.778C551.891 207.945 550.956 208.893 549.804 208.893H524.756C523.604 208.893 522.669 207.945 522.669 206.778V204.629C522.669 198.228 529.887 194.07 537.28 194.07C544.673 194.07 551.891 198.23 551.891 204.629M542.519 175.488C543.22 176.174 543.778 176.991 544.16 177.894C544.543 178.796 544.743 179.766 544.748 180.746C544.754 181.726 544.565 182.698 544.192 183.605C543.819 184.511 543.27 185.335 542.577 186.028C541.884 186.721 541.06 187.27 540.153 187.643C539.247 188.015 538.275 188.204 537.295 188.199C536.314 188.193 535.345 187.993 534.443 187.611C533.54 187.228 532.722 186.67 532.037 185.969C530.673 184.574 529.914 182.697 529.924 180.745C529.935 178.794 530.716 176.925 532.096 175.546C533.476 174.166 535.344 173.386 537.295 173.375C539.247 173.364 541.124 174.124 542.519 175.488Z" fill="white"/>
<path d="M361.84 273.078H212.63C185.271 273.078 163.093 295.257 163.093 322.615V322.616C163.093 349.975 185.271 372.153 212.63 372.153H361.84C389.199 372.153 411.377 349.975 411.377 322.616V322.615C411.377 295.257 389.199 273.078 361.84 273.078Z" fill="white" stroke="#E1E4E5" stroke-width="4"/>
<path d="M213.298 282.797H213.297C191.384 282.797 173.62 300.561 173.62 322.474V322.475C173.62 344.388 191.384 362.152 213.297 362.152H213.298C235.211 362.152 252.975 344.388 252.975 322.475V322.474C252.975 300.561 235.211 282.797 213.298 282.797Z" fill="#4F27AA"/>
<path fill-rule="evenodd" clip-rule="evenodd" d="M231.328 339.118V341.771C231.328 343.235 230.155 344.424 228.71 344.424H197.291C195.846 344.424 194.673 343.235 194.673 341.771V339.075C194.673 331.047 203.727 325.831 213 325.831C222.274 325.831 231.328 331.05 231.328 339.075M219.574 302.524C223.204 306.154 223.204 312.04 219.574 315.671C215.943 319.301 210.057 319.301 206.427 315.671C205.564 314.808 204.879 313.783 204.411 312.655C203.944 311.527 203.704 310.319 203.704 309.098C203.704 307.877 203.944 306.668 204.411 305.54C204.879 304.412 205.564 303.387 206.427 302.524C207.29 301.661 208.315 300.976 209.443 300.509C210.571 300.041 211.78 299.801 213.001 299.801C214.221 299.801 215.43 300.041 216.558 300.509C217.686 300.976 218.711 301.661 219.574 302.524Z" fill="white"/>
<path d="M369.002 304.113H265.152C263.504 304.113 262.168 305.449 262.168 307.097C262.168 308.745 263.504 310.081 265.152 310.081H369.002C370.65 310.081 371.986 308.745 371.986 307.097C371.986 305.449 370.65 304.113 369.002 304.113Z" fill="#E1E4E5"/>
<path d="M368.405 318.438H265.749C263.771 318.438 262.168 320.041 262.168 322.019C262.168 323.996 263.771 325.6 265.749 325.6H368.405C370.383 325.6 371.986 323.996 371.986 322.019C371.986 320.041 370.383 318.438 368.405 318.438Z" fill="#E1E4E5"/>
<path d="M369.002 333.957H265.152C263.504 333.957 262.168 335.293 262.168 336.941C262.168 338.589 263.504 339.925 265.152 339.925H369.002C370.65 339.925 371.986 338.589 371.986 336.941C371.986 335.293 370.65 333.957 369.002 333.957Z" fill="#E1E4E5"/>
<path d="M654.226 277.004H505.016C477.657 277.004 455.479 299.182 455.479 326.541V326.542C455.479 353.9 477.657 376.079 505.016 376.079H654.226C681.585 376.079 703.763 353.9 703.763 326.542V326.541C703.763 299.182 681.585 277.004 654.226 277.004Z" fill="white" stroke="#E1E4E5" stroke-width="4"/>
<path d="M505.684 286.719H505.683C483.77 286.719 466.006 304.483 466.006 326.396V326.397C466.006 348.31 483.77 366.074 505.683 366.074H505.684C527.597 366.074 545.361 348.31 545.361 326.397V326.396C545.361 304.483 527.597 286.719 505.684 286.719Z" fill="#4F27AA"/>
<path fill-rule="evenodd" clip-rule="evenodd" d="M523.714 343.041V345.694C523.714 347.158 522.541 348.347 521.096 348.347H489.678C488.232 348.347 487.059 347.158 487.059 345.694V342.998C487.059 334.97 496.113 329.754 505.387 329.754C514.66 329.754 523.714 334.973 523.714 342.998M511.961 306.447C512.824 307.31 513.509 308.335 513.976 309.463C514.443 310.591 514.684 311.8 514.683 313.021C514.683 314.242 514.443 315.451 513.975 316.579C513.508 317.707 512.823 318.732 511.959 319.595C511.096 320.458 510.071 321.143 508.943 321.61C507.815 322.077 506.606 322.318 505.385 322.317C504.164 322.317 502.955 322.077 501.827 321.609C500.699 321.142 499.674 320.457 498.811 319.594C497.068 317.85 496.088 315.485 496.089 313.019C496.089 310.553 497.069 308.188 498.812 306.445C500.556 304.702 502.921 303.722 505.387 303.723C507.853 303.723 510.218 304.703 511.961 306.447Z" fill="white"/>
<path d="M661.389 308.039H557.539C555.891 308.039 554.555 309.375 554.555 311.023C554.555 312.671 555.891 314.007 557.539 314.007H661.389C663.037 314.007 664.373 312.671 664.373 311.023C664.373 309.375 663.037 308.039 661.389 308.039Z" fill="#E1E4E5"/>
<path d="M660.791 322.363H558.135C556.157 322.363 554.554 323.967 554.554 325.944C554.554 327.922 556.157 329.525 558.135 329.525H660.791C662.769 329.525 664.372 327.922 664.372 325.944C664.372 323.967 662.769 322.363 660.791 322.363Z" fill="#E1E4E5"/>
<path d="M661.388 337.883H557.538C555.89 337.883 554.554 339.219 554.554 340.867C554.554 342.515 555.89 343.851 557.538 343.851H661.388C663.036 343.851 664.372 342.515 664.372 340.867C664.372 339.219 663.036 337.883 661.388 337.883Z" fill="#E1E4E5"/>
<path d="M693.672 399.723H544.462C517.103 399.723 494.925 421.901 494.925 449.26V449.261C494.925 476.619 517.103 498.798 544.462 498.798H693.672C721.031 498.798 743.209 476.619 743.209 449.261V449.26C743.209 421.901 721.031 399.723 693.672 399.723Z" fill="white" stroke="#E1E4E5" stroke-width="4"/>
<path d="M545.13 409.438H545.129C523.216 409.438 505.452 427.201 505.452 449.115V449.116C505.452 471.029 523.216 488.793 545.129 488.793H545.13C567.043 488.793 584.807 471.029 584.807 449.116V449.115C584.807 427.201 567.043 409.438 545.13 409.438Z" fill="#4F27AA"/>
<path fill-rule="evenodd" clip-rule="evenodd" d="M563.16 465.762V468.415C563.16 469.88 561.987 471.068 560.541 471.068H529.123C527.678 471.068 526.505 469.88 526.505 468.415V465.719C526.505 457.691 535.559 452.475 544.832 452.475C554.106 452.475 563.16 457.694 563.16 465.719M551.406 429.168C552.269 430.031 552.954 431.056 553.422 432.184C553.889 433.312 554.129 434.52 554.129 435.741C554.129 436.962 553.889 438.171 553.422 439.299C552.954 440.427 552.269 441.452 551.406 442.315C550.543 443.178 549.518 443.863 548.39 444.33C547.262 444.798 546.053 445.038 544.833 445.038C543.612 445.038 542.403 444.798 541.275 444.33C540.147 443.863 539.122 443.178 538.259 442.315C534.629 438.685 534.629 432.799 538.259 429.168C541.89 425.538 547.776 425.538 551.406 429.168Z" fill="white"/>
<path d="M700.834 430.758H596.984C595.336 430.758 594 432.094 594 433.742C594 435.39 595.336 436.726 596.984 436.726H700.834C702.482 436.726 703.818 435.39 703.818 433.742C703.818 432.094 702.482 430.758 700.834 430.758Z" fill="#E1E4E5"/>
<path d="M700.237 445.082H597.581C595.603 445.082 594 446.685 594 448.663C594 450.641 595.603 452.244 597.581 452.244H700.237C702.215 452.244 703.818 450.641 703.818 448.663C703.818 446.685 702.215 445.082 700.237 445.082Z" fill="#E1E4E5"/>
<path d="M700.834 460.602H596.984C595.336 460.602 594 461.938 594 463.586C594 465.234 595.336 466.57 596.984 466.57H700.834C702.482 466.57 703.818 465.234 703.818 463.586C703.818 461.938 702.482 460.602 700.834 460.602Z" fill="#E1E4E5"/>
<path d="M402.214 399.723H253.004C225.645 399.723 203.467 421.901 203.467 449.26V449.261C203.467 476.619 225.645 498.798 253.004 498.798H402.214C429.573 498.798 451.751 476.619 451.751 449.261V449.26C451.751 421.901 429.573 399.723 402.214 399.723Z" fill="white" stroke="#E1E4E5" stroke-width="4"/>
<path d="M253.671 409.438H253.67C231.757 409.438 213.993 427.201 213.993 449.115V449.116C213.993 471.029 231.757 488.793 253.67 488.793H253.671C275.584 488.793 293.348 471.029 293.348 449.116V449.115C293.348 427.201 275.584 409.438 253.671 409.438Z" fill="#4F27AA"/>
<path fill-rule="evenodd" clip-rule="evenodd" d="M271.701 465.762V468.415C271.701 469.88 270.528 471.068 269.083 471.068H237.665C236.219 471.068 235.047 469.88 235.047 468.415V465.719C235.047 457.691 244.1 452.475 253.374 452.475C262.648 452.475 271.701 457.694 271.701 465.719M259.948 429.168C263.578 432.799 263.578 438.685 259.948 442.315C259.085 443.178 258.06 443.863 256.932 444.33C255.804 444.798 254.595 445.038 253.374 445.038C252.154 445.038 250.945 444.798 249.817 444.33C248.689 443.863 247.664 443.178 246.801 442.315C245.938 441.452 245.253 440.427 244.785 439.299C244.318 438.171 244.078 436.962 244.078 435.741C244.078 434.52 244.318 433.312 244.785 432.184C245.253 431.056 245.938 430.031 246.801 429.168C250.431 425.538 256.317 425.538 259.948 429.168Z" fill="white"/>
<path d="M409.376 430.758H305.526C303.878 430.758 302.542 432.094 302.542 433.742C302.542 435.39 303.878 436.726 305.526 436.726H409.376C411.024 436.726 412.36 435.39 412.36 433.742C412.36 432.094 411.024 430.758 409.376 430.758Z" fill="#E1E4E5"/>
<path d="M408.778 445.082H306.122C304.144 445.082 302.541 446.685 302.541 448.663C302.541 450.641 304.144 452.244 306.122 452.244H408.778C410.756 452.244 412.359 450.641 412.359 448.663C412.359 446.685 410.756 445.082 408.778 445.082Z" fill="#E1E4E5"/>
<path d="M409.375 460.602H305.525C303.877 460.602 302.541 461.938 302.541 463.586C302.541 465.234 303.877 466.57 305.525 466.57H409.375C411.023 466.57 412.359 465.234 412.359 463.586C412.359 461.938 411.023 460.602 409.375 460.602Z" fill="#E1E4E5"/>
<path d="M422.717 146.551H273.507C246.148 146.551 223.97 168.729 223.97 196.088V196.089C223.97 223.447 246.148 245.626 273.507 245.626H422.717C450.076 245.626 472.254 223.447 472.254 196.089V196.088C472.254 168.729 450.076 146.551 422.717 146.551Z" fill="white" stroke="#E1E4E5" stroke-width="4"/>
<path d="M274.175 156.266H274.174C252.261 156.266 234.497 174.03 234.497 195.943V195.944C234.497 217.857 252.261 235.621 274.174 235.621H274.175C296.088 235.621 313.852 217.857 313.852 195.944V195.943C313.852 174.03 296.088 156.266 274.175 156.266Z" fill="#4F27AA"/>
<path fill-rule="evenodd" clip-rule="evenodd" d="M292.205 212.587V215.24C292.205 216.704 291.032 217.893 289.587 217.893H258.169C256.723 217.893 255.55 216.704 255.55 215.24V212.544C255.55 204.516 264.604 199.3 273.878 199.3C283.151 199.3 292.205 204.518 292.205 212.544M280.452 175.993C281.315 176.857 282 177.882 282.467 179.01C282.934 180.138 283.175 181.347 283.174 182.568C283.174 183.789 282.934 184.998 282.466 186.126C281.999 187.254 281.314 188.279 280.45 189.142C279.587 190.005 278.562 190.69 277.434 191.157C276.306 191.624 275.097 191.864 273.876 191.864C272.655 191.864 271.446 191.624 270.318 191.156C269.19 190.689 268.165 190.004 267.302 189.14C265.559 187.397 264.579 185.032 264.58 182.566C264.58 180.1 265.56 177.735 267.303 175.992C269.047 174.249 271.412 173.269 273.878 173.27C276.344 173.27 278.709 174.25 280.452 175.993Z" fill="white"/>
<path d="M429.88 177.586H326.03C324.382 177.586 323.046 178.922 323.046 180.57C323.046 182.218 324.382 183.554 326.03 183.554H429.88C431.528 183.554 432.864 182.218 432.864 180.57C432.864 178.922 431.528 177.586 429.88 177.586Z" fill="#E1E4E5"/>
<path d="M429.282 191.91H326.626C324.648 191.91 323.045 193.513 323.045 195.491C323.045 197.469 324.648 199.072 326.626 199.072H429.282C431.26 199.072 432.863 197.469 432.863 195.491C432.863 193.513 431.26 191.91 429.282 191.91Z" fill="#E1E4E5"/>
<path d="M429.879 207.426H326.029C324.381 207.426 323.045 208.762 323.045 210.41C323.045 212.058 324.381 213.394 326.029 213.394H429.879C431.527 213.394 432.863 212.058 432.863 210.41C432.863 208.762 431.527 207.426 429.879 207.426Z" fill="#E1E4E5"/>
<path d="M134.437 99.6908C138.778 99.6908 142.298 96.1713 142.298 91.8298C142.298 87.4882 138.778 83.9688 134.437 83.9688C130.095 83.9688 126.576 87.4882 126.576 91.8298C126.576 96.1713 130.095 99.6908 134.437 99.6908Z" fill="white" stroke="#E1E4E5" stroke-width="4"/>
<path d="M162.925 99.6908C167.267 99.6908 170.786 96.1713 170.786 91.8298C170.786 87.4882 167.267 83.9688 162.925 83.9688C158.583 83.9688 155.064 87.4882 155.064 91.8298C155.064 96.1713 158.583 99.6908 162.925 99.6908Z" fill="white" stroke="#E1E4E5" stroke-width="4"/>
<path d="M191.699 99.7139C196.198 99.7139 199.845 96.0668 199.845 91.5679C199.845 87.069 196.198 83.4219 191.699 83.4219C187.2 83.4219 183.553 87.069 183.553 91.5679C183.553 96.0668 187.2 99.7139 191.699 99.7139Z" fill="white" stroke="#E1E4E5" stroke-width="4"/>
<path d="M756.904 379.735C740.061 388.09 717.706 377.347 717.706 377.347C717.706 377.347 722.674 353.062 739.526 344.719C756.37 336.363 778.716 347.095 778.716 347.095C778.716 347.095 773.748 371.38 756.904 379.735Z" fill="url(#paint0_linear_1235_30622)"/>
<path d="M145.468 421.663C167.811 417.389 181.49 390.68 181.49 390.68C181.49 390.68 158.934 370.916 136.591 375.207C114.248 379.48 100.568 406.171 100.568 406.171C100.568 406.171 123.125 425.936 145.468 421.663Z" fill="url(#paint1_linear_1235_30622)"/>
<path d="M685.133 101.693C673.872 101.693 664.743 110.822 664.743 122.083C664.743 133.344 673.872 142.473 685.133 142.473C696.394 142.473 705.523 133.344 705.523 122.083C705.523 110.822 696.394 101.693 685.133 101.693Z" fill="#4F27AA"/>
<path d="M483.205 87.4436C473.934 87.4436 466.419 94.959 466.419 104.23C466.419 113.5 473.934 121.016 483.205 121.016C492.476 121.016 499.991 113.5 499.991 104.23C499.991 94.959 492.476 87.4436 483.205 87.4436Z" fill="#4F27AA"/>
<path d="M777.755 466.869C772.828 466.869 768.834 462.875 768.834 457.948C768.834 453.021 772.828 449.027 777.755 449.027C782.682 449.027 786.676 453.021 786.676 457.948C786.676 462.875 782.682 466.869 777.755 466.869Z" fill="#4F27AA"/>
<path d="M463.132 523.54C458.291 523.54 454.366 519.615 454.366 514.774C454.366 509.932 458.291 506.008 463.132 506.008C467.973 506.008 471.898 509.932 471.898 514.774C471.898 519.615 467.973 523.54 463.132 523.54Z" fill="#E1E4E5"/>
<path d="M163.464 226.616C156.5 226.616 150.855 220.971 150.855 214.007C150.855 207.044 156.5 201.398 163.464 201.398C170.428 201.398 176.073 207.044 176.073 214.007C176.073 220.971 170.428 226.616 163.464 226.616Z" fill="#E1E4E5"/>
<path d="M776.279 127.536C768.537 127.536 762.261 121.26 762.261 113.518C762.261 105.776 768.537 99.5 776.279 99.5C784.021 99.5 790.297 105.776 790.297 113.518C790.297 121.26 784.021 127.536 776.279 127.536Z" fill="#E1E4E5"/>
<path d="M137.892 284.78C139.691 291.495 135.706 298.398 128.991 300.197C122.275 301.996 115.373 298.011 113.574 291.296C111.774 284.581 115.759 277.678 122.475 275.879C129.19 274.079 136.092 278.064 137.892 284.78Z" fill="#E1E4E5"/>
<path d="M744.49 277.619C741.597 277.619 739.251 275.273 739.251 272.38C739.251 269.486 741.597 267.141 744.49 267.141C747.383 267.141 749.729 269.486 749.729 272.38C749.729 275.273 747.383 277.619 744.49 277.619Z" fill="#E1E4E5"/>
<path d="M567.465 97.3431C568.768 102.205 565.883 107.202 561.021 108.504C556.16 109.807 551.163 106.922 549.86 102.06C548.558 97.1988 551.443 92.2018 556.304 90.8992C561.166 89.5966 566.163 92.4816 567.465 97.3431Z" fill="#E1E4E5"/>
</g>
<defs>
<linearGradient id="paint0_linear_1235_30622" x1="692.224" y1="405.797" x2="831.148" y2="295.908" gradientUnits="userSpaceOnUse">
<stop stop-color="white"/>
<stop offset="1" stop-color="#EEEEEE"/>
</linearGradient>
<linearGradient id="paint1_linear_1235_30622" x1="226.86" y1="399.449" x2="12.594" y2="395.214" gradientUnits="userSpaceOnUse">
<stop stop-color="white"/>
<stop offset="1" stop-color="#EEEEEE"/>
</linearGradient>
<clipPath id="clip0_1235_30622">
<rect width="900" height="600" fill="white"/>
</clipPath>
</defs>
</svg>
