<svg width="900" height="600" viewBox="0 0 900 600" fill="none" xmlns="http://www.w3.org/2000/svg">
<g clip-path="url(#clip0_1235_30675)">
<path d="M645.806 238.607C633.431 246.537 618.72 240.684 597.627 226.667C581.766 216.123 567.183 206.731 555.322 188.685C547.018 176.059 542.355 162.484 540.064 150.493C537.58 137.501 532.879 121.679 543.388 114.059C557.827 103.594 604.041 112.951 632.351 153.083C663.445 197.174 657.906 230.86 645.806 238.607Z" fill="url(#paint0_linear_1235_30675)"/>
<path d="M722.891 367.561C706.934 375.477 685.756 365.299 685.756 365.299C685.756 365.299 690.463 342.292 706.428 334.388C722.385 326.472 743.555 336.639 743.555 336.639C743.555 336.639 738.848 359.646 722.891 367.561Z" fill="url(#paint1_linear_1235_30675)"/>
<path d="M205.71 204.899C231.538 220.379 268.593 206.069 268.593 206.069C268.593 206.069 263.748 166.668 237.905 151.205C212.077 135.726 175.037 150.018 175.037 150.018C175.037 150.018 179.883 189.42 205.71 204.899Z" fill="url(#paint2_linear_1235_30675)"/>
<path d="M728.192 193.977C719.13 193.977 711.784 201.323 711.784 210.385C711.784 219.447 719.13 226.793 728.192 226.793C737.254 226.793 744.6 219.447 744.6 210.385C744.6 201.323 737.254 193.977 728.192 193.977Z" fill="#4F27AA"/>
<path d="M239.441 256.007C231.981 256.007 225.933 262.055 225.933 269.515C225.933 276.976 231.981 283.023 239.441 283.023C246.901 283.023 252.949 276.976 252.949 269.515C252.949 262.055 246.901 256.007 239.441 256.007Z" fill="#4F27AA"/>
<path d="M309.52 533.336C301.024 533.336 294.137 526.449 294.137 517.953C294.137 509.458 301.024 502.57 309.52 502.57C318.016 502.57 324.903 509.458 324.903 517.953C324.903 526.449 318.016 533.336 309.52 533.336Z" fill="#4F27AA"/>
<path d="M751.446 399.756C747.481 399.756 744.267 396.542 744.267 392.577C744.267 388.613 747.481 385.398 751.446 385.398C755.411 385.398 758.625 388.613 758.625 392.577C758.625 396.542 755.411 399.756 751.446 399.756Z" fill="#4F27AA"/>
<path d="M598.136 504.105C593.038 504.105 588.906 499.972 588.906 494.875C588.906 489.777 593.038 485.645 598.136 485.645C603.234 485.645 607.366 489.777 607.366 494.875C607.366 499.972 603.234 504.105 598.136 504.105Z" fill="#E1E4E5"/>
<path d="M186.816 446.863C179.453 446.863 173.484 440.894 173.484 433.531C173.484 426.168 179.453 420.199 186.816 420.199C194.179 420.199 200.148 426.168 200.148 433.531C200.148 440.894 194.179 446.863 186.816 446.863Z" fill="#E1E4E5"/>
<path d="M740.421 517.458C734.817 517.458 730.274 512.915 730.274 507.311C730.274 501.707 734.817 497.164 740.421 497.164C746.025 497.164 750.568 501.707 750.568 507.311C750.568 512.915 746.025 517.458 740.421 517.458Z" fill="#E1E4E5"/>
<path d="M743.947 141.128C737.717 141.128 732.666 136.078 732.666 129.847C732.666 123.617 737.717 118.566 743.947 118.566C750.177 118.566 755.228 123.617 755.228 129.847C755.228 136.078 750.177 141.128 743.947 141.128Z" fill="#E1E4E5"/>
<path d="M163.191 293.092C164.639 298.496 161.432 304.051 156.028 305.499C150.624 306.947 145.07 303.74 143.622 298.336C142.174 292.932 145.381 287.377 150.785 285.929C156.189 284.481 161.743 287.688 163.191 293.092Z" fill="#E1E4E5"/>
<path d="M348.185 99.6351C345.857 99.6351 343.969 97.7476 343.969 95.4191C343.969 93.0907 345.857 91.2031 348.185 91.2031C350.513 91.2031 352.401 93.0907 352.401 95.4191C352.401 97.7476 350.513 99.6351 348.185 99.6351Z" fill="#E1E4E5"/>
<path d="M722.15 441.43C716.425 441.43 711.784 437.717 711.784 433.137C711.784 428.557 716.425 424.844 722.15 424.844C727.875 424.844 732.516 428.557 732.516 433.137C732.516 437.717 727.875 441.43 722.15 441.43Z" fill="#E1E4E5"/>
<path d="M689.741 299.55C689.741 181.077 593.59 84.9258 475.117 84.9258C356.645 84.9258 260.493 181.077 260.493 299.55C260.493 418.022 356.645 514.173 475.117 514.173" stroke="#E1E4E5" stroke-width="24" stroke-linecap="round" stroke-linejoin="round"/>
<path d="M389.27 106.387H410.732C368.881 231.761 368.881 367.336 410.732 492.71H389.27M539.504 106.387C560.323 169.057 570.84 234.303 570.84 299.549" stroke="#E1E4E5" stroke-width="24" stroke-linecap="round" stroke-linejoin="round"/>
<path d="M281.956 385.396V363.934C344.626 384.753 409.872 395.27 475.117 395.27M281.956 235.162C407.33 193.31 542.905 193.31 668.279 235.162M689.741 514.17L668.279 492.708M608.184 501.293C646.115 501.293 676.864 470.544 676.864 432.613C676.864 394.683 646.115 363.934 608.184 363.934C570.253 363.934 539.504 394.683 539.504 432.613C539.504 470.544 570.253 501.293 608.184 501.293V501.293Z" stroke="#E1E4E5" stroke-width="24" stroke-linecap="round" stroke-linejoin="round"/>
<path d="M419.348 52H220.167C209.121 52 200.167 60.9543 200.167 72V323.003C200.167 334.049 209.121 343.003 220.167 343.003H419.348C430.394 343.003 439.348 334.049 439.348 323.003V72C439.348 60.9543 430.394 52 419.348 52Z" fill="white" stroke="#E1E4E5" stroke-width="4" stroke-linecap="round" stroke-linejoin="round"/>
<mask id="mask0_1235_30675" style="mask-type:alpha" maskUnits="userSpaceOnUse" x="194" y="46" width="251" height="316">
<path d="M200.167 52H439.154V355.954H200.167V52Z" fill="white" stroke="white" stroke-width="11" stroke-linecap="round" stroke-linejoin="round"/>
</mask>
<g mask="url(#mask0_1235_30675)">
<path d="M336.654 104.207H301.506C275.652 104.207 254.693 125.166 254.693 151.02V186.168C254.693 212.022 275.652 232.981 301.506 232.981H336.654C362.508 232.981 383.467 212.022 383.467 186.168V151.02C383.467 125.166 362.508 104.207 336.654 104.207Z" fill="#4F27AA"/>
<path fill-rule="evenodd" clip-rule="evenodd" d="M348.343 195.605V199.91C348.343 202.287 346.44 204.216 344.095 204.216H293.11C290.765 204.216 288.861 202.287 288.861 199.91V195.536C288.861 182.508 303.553 174.044 318.602 174.044C333.651 174.044 348.343 182.512 348.343 195.536M329.265 136.22C335.157 142.111 335.157 151.663 329.265 157.555C323.374 163.446 313.822 163.446 307.931 157.555C302.039 151.663 302.039 142.111 307.931 136.22C313.822 130.328 323.374 130.328 329.265 136.22Z" fill="white"/>
<path d="M389.847 275.906H250.632C246.467 275.906 243.091 279.282 243.091 283.447C243.091 287.612 246.467 290.988 250.632 290.988H389.847C394.012 290.988 397.388 287.612 397.388 283.447C397.388 279.282 394.012 275.906 389.847 275.906Z" fill="#E1E4E5"/>
<path d="M388.687 245.742H251.792C246.987 245.742 243.091 249.638 243.091 254.443C243.091 259.249 246.987 263.144 251.792 263.144H388.687C393.493 263.144 397.388 259.249 397.388 254.443C397.388 249.638 393.493 245.742 388.687 245.742Z" fill="#E1E4E5"/>
<path d="M388.687 303.75H251.792C246.987 303.75 243.091 307.646 243.091 312.451C243.091 317.256 246.987 321.152 251.792 321.152H388.687C393.493 321.152 397.388 317.256 397.388 312.451C397.388 307.646 393.493 303.75 388.687 303.75Z" fill="#E1E4E5"/>
<path d="M240.771 77.5233C240.771 73.0382 237.135 69.4023 232.65 69.4023C228.165 69.4023 224.529 73.0382 224.529 77.5233C224.529 82.0085 228.165 85.6443 232.65 85.6443C237.135 85.6443 240.771 82.0085 240.771 77.5233Z" fill="#E1E4E5"/>
<path d="M263.974 77.5233C263.974 73.0382 260.338 69.4023 255.853 69.4023C251.368 69.4023 247.732 73.0382 247.732 77.5233C247.732 82.0085 251.368 85.6443 255.853 85.6443C260.338 85.6443 263.974 82.0085 263.974 77.5233Z" fill="#E1E4E5"/>
<path d="M287.176 77.5233C287.176 73.0382 283.54 69.4023 279.055 69.4023C274.57 69.4023 270.934 73.0382 270.934 77.5233C270.934 82.0085 274.57 85.6443 279.055 85.6443C283.54 85.6443 287.176 82.0085 287.176 77.5233Z" fill="#E1E4E5"/>
</g>
</g>
<defs>
<linearGradient id="paint0_linear_1235_30675" x1="563.986" y1="289.136" x2="642.955" y2="5.12321" gradientUnits="userSpaceOnUse">
<stop stop-color="white"/>
<stop offset="1" stop-color="#EEEEEE"/>
</linearGradient>
<linearGradient id="paint1_linear_1235_30675" x1="661.616" y1="392.252" x2="793.228" y2="288.146" gradientUnits="userSpaceOnUse">
<stop stop-color="white"/>
<stop offset="1" stop-color="#EEEEEE"/>
</linearGradient>
<linearGradient id="paint2_linear_1235_30675" x1="305.658" y1="254.728" x2="97.837" y2="61.6353" gradientUnits="userSpaceOnUse">
<stop stop-color="white"/>
<stop offset="1" stop-color="#EEEEEE"/>
</linearGradient>
<clipPath id="clip0_1235_30675">
<rect width="900" height="600" fill="white"/>
</clipPath>
</defs>
</svg>
