<svg width="900" height="600" viewBox="0 0 900 600" fill="none" xmlns="http://www.w3.org/2000/svg">
<g clip-path="url(#clip0_1235_30710)">
<path d="M526.294 242.293L743.522 242.293C753.077 242.293 760.823 234.547 760.823 224.992V224.991C760.823 215.436 753.077 207.69 743.522 207.69L526.294 207.69C516.739 207.69 508.993 215.436 508.993 224.991V224.992C508.993 234.547 516.739 242.293 526.294 242.293Z" fill="white" stroke="#E1E4E5" stroke-width="11"/>
<path d="M489.128 276.949L781 276.949C789.837 276.949 797 269.786 797 260.949V85.4862C797 76.6497 789.837 69.4862 781 69.4862L489.128 69.4862C480.292 69.4862 473.128 76.6497 473.128 85.4862V260.949C473.128 269.786 480.292 276.949 489.128 276.949Z" stroke="#E1E4E5" stroke-width="11"/>
<path d="M699.307 190.387H743.522C753.077 190.387 760.823 182.641 760.823 173.086V173.085C760.823 163.53 753.077 155.784 743.522 155.784H699.307C689.752 155.784 682.006 163.53 682.006 173.085V173.086C682.006 182.641 689.752 190.387 699.307 190.387Z" fill="white" stroke="#E1E4E5" stroke-width="11"/>
<path d="M526.294 190.387L647.404 190.387C656.959 190.387 664.705 182.641 664.705 173.086V173.085C664.705 163.53 656.959 155.784 647.404 155.784H526.294C516.739 155.784 508.993 163.53 508.993 173.085V173.086C508.993 182.641 516.739 190.387 526.294 190.387Z" fill="white" stroke="#E1E4E5" stroke-width="11"/>
<path d="M509.438 121.245C509.438 130.734 517.13 138.426 526.619 138.426C536.108 138.426 543.8 130.734 543.8 121.245C543.8 111.756 536.108 104.064 526.619 104.064C517.13 104.064 509.438 111.756 509.438 121.245Z" fill="white" stroke="#E1E4E5" stroke-width="11"/>
<path d="M118 276.949L409.872 276.949C418.709 276.949 425.872 269.786 425.872 260.949V85.4862C425.872 76.6497 418.709 69.4862 409.872 69.4862L118 69.4862C109.164 69.4862 102 76.6497 102 85.4862V260.949C102 269.786 109.164 276.949 118 276.949Z" fill="#4F27AA" stroke="#4F27AA" stroke-width="11"/>
<path d="M225.325 180.853L246.7 202.031L303.7 145.555" stroke="white" stroke-width="24" stroke-linecap="round" stroke-linejoin="round"/>
<path d="M526.166 495.805L743.394 495.805C752.949 495.805 760.695 488.059 760.695 478.504V478.503C760.695 468.948 752.949 461.202 743.394 461.202H526.166C516.611 461.202 508.865 468.948 508.865 478.503V478.504C508.865 488.059 516.611 495.805 526.166 495.805Z" fill="white" stroke="#E1E4E5" stroke-width="11"/>
<path d="M489 530.465H780.872C789.709 530.465 796.872 523.301 796.872 514.465V339.002C796.872 330.165 789.709 323.002 780.872 323.002H489C480.164 323.002 473 330.165 473 339.002V514.465C473 523.301 480.164 530.465 489 530.465Z" stroke="#E1E4E5" stroke-width="11"/>
<path d="M699.179 443.902H743.394C752.949 443.902 760.695 436.156 760.695 426.601V426.6C760.695 417.045 752.949 409.299 743.394 409.299H699.179C689.624 409.299 681.878 417.045 681.878 426.6V426.601C681.878 436.156 689.624 443.902 699.179 443.902Z" fill="white" stroke="#E1E4E5" stroke-width="11"/>
<path d="M526.166 443.902H647.276C656.831 443.902 664.577 436.156 664.577 426.601V426.6C664.577 417.045 656.831 409.299 647.276 409.299H526.166C516.611 409.299 508.865 417.045 508.865 426.6V426.601C508.865 436.156 516.611 443.902 526.166 443.902Z" fill="white" stroke="#E1E4E5" stroke-width="11"/>
<path d="M509.31 374.757C509.31 384.245 517.002 391.938 526.491 391.938C535.98 391.938 543.672 384.245 543.672 374.757C543.672 365.268 535.98 357.576 526.491 357.576C517.002 357.576 509.31 365.268 509.31 374.757Z" fill="white" stroke="#E1E4E5" stroke-width="11"/>
<path d="M156.319 495.855L373.547 495.855C383.102 495.855 390.848 488.11 390.848 478.554V478.553C390.848 468.998 383.102 461.252 373.547 461.252H156.319C146.764 461.252 139.018 468.998 139.018 478.553V478.554C139.018 488.11 146.764 495.855 156.319 495.855Z" fill="white" stroke="#E1E4E5" stroke-width="11"/>
<path d="M119.153 530.516H411.025C419.861 530.516 427.025 523.352 427.025 514.516V339.053C427.025 330.216 419.861 323.053 411.025 323.053H119.153C110.316 323.053 103.153 330.216 103.153 339.053V514.516C103.153 523.352 110.316 530.516 119.153 530.516Z" stroke="#E1E4E5" stroke-width="11"/>
<path d="M329.332 443.953H373.547C383.102 443.953 390.848 436.207 390.848 426.652V426.651C390.848 417.096 383.102 409.35 373.547 409.35H329.332C319.777 409.35 312.031 417.096 312.031 426.651V426.652C312.031 436.207 319.777 443.953 329.332 443.953Z" fill="white" stroke="#E1E4E5" stroke-width="11"/>
<path d="M156.319 443.953H277.429C286.984 443.953 294.73 436.207 294.73 426.652V426.651C294.73 417.096 286.984 409.35 277.429 409.35H156.319C146.764 409.35 139.018 417.096 139.018 426.651V426.652C139.018 436.207 146.764 443.953 156.319 443.953Z" fill="white" stroke="#E1E4E5" stroke-width="11"/>
<path d="M139.463 374.811C139.463 384.3 147.155 391.992 156.644 391.992C166.133 391.992 173.825 384.3 173.825 374.811C173.825 365.322 166.133 357.63 156.644 357.63C147.155 357.63 139.463 365.322 139.463 374.811Z" fill="white" stroke="#E1E4E5" stroke-width="11"/>
</g>
<defs>
<clipPath id="clip0_1235_30710">
<rect width="900" height="600" fill="white"/>
</clipPath>
</defs>
</svg>
