<svg width="900" height="600" viewBox="0 0 900 600" fill="none" xmlns="http://www.w3.org/2000/svg">
<g clip-path="url(#clip0_1235_30795)">
<path d="M771.886 535.499H128.079C109.288 535.499 94.0488 520.26 94.0488 501.469V98.0808C94.0488 79.2898 109.288 64.0508 128.079 64.0508H771.886C790.678 64.0508 805.917 79.2898 805.917 98.0808V501.469C805.917 520.26 790.678 535.499 771.886 535.499Z" fill="white" stroke="#E1E4E5" stroke-width="6.097"/>
<path d="M805.917 108.514H94.0488V98.0808C94.0488 79.2898 109.288 64.0508 128.079 64.0508H771.886C790.678 64.0508 805.917 79.2898 805.917 98.0808V108.514Z" fill="white" stroke="#E1E4E5" stroke-width="6.097"/>
<path d="M126.822 93.0086C127.733 93.0241 128.637 92.8582 129.483 92.5205C130.329 92.1828 131.099 91.68 131.748 91.0415C132.398 90.4031 132.914 89.6417 133.266 88.8018C133.618 87.9619 133.799 87.0603 133.799 86.1496C133.799 85.2388 133.618 84.3372 133.266 83.4973C132.914 82.6574 132.398 81.896 131.748 81.2576C131.099 80.6191 130.329 80.1164 129.483 79.7786C128.637 79.4409 127.733 79.275 126.822 79.2906C125.023 79.3213 123.308 80.0574 122.047 81.3404C120.786 82.6234 120.079 84.3505 120.079 86.1496C120.079 87.9487 120.786 89.6758 122.047 90.9587C123.308 92.2417 125.023 92.9778 126.822 93.0086ZM154.259 93.0086C155.167 93.0196 156.068 92.8503 156.91 92.5106C157.751 92.1708 158.517 91.6674 159.163 91.0294C159.809 90.3914 160.322 89.6315 160.672 88.7939C161.022 87.9562 161.202 87.0574 161.202 86.1496C161.202 85.2417 161.022 84.3429 160.672 83.5052C160.322 82.6675 159.81 81.9076 159.164 81.2695C158.518 80.6314 157.752 80.1278 156.91 79.7879C156.069 79.4481 155.168 79.2787 154.26 79.2896C152.441 79.2894 150.696 80.012 149.409 81.2985C148.122 82.5849 147.4 84.3297 147.399 86.1491C147.399 87.9684 148.122 89.7134 149.408 91C150.695 92.2865 152.44 93.0094 154.259 93.0096V93.0086ZM182.459 93.0086C186.668 93.0086 190.081 89.9386 190.081 86.1486C190.081 82.3616 186.668 79.2896 182.459 79.2896C178.25 79.2896 174.837 82.3616 174.837 86.1496C174.837 89.9376 178.25 93.0096 182.459 93.0096V93.0086Z" fill="#E1E4E5"/>
<path fill-rule="evenodd" clip-rule="evenodd" d="M440.618 216.769C444.661 219.451 450.337 222.716 456.982 225.165C457.115 225.214 457.25 225.259 457.39 225.315C476.033 232.054 492.951 229.086 506.317 216.733C511.704 211.753 516.405 207.249 520.55 203.274C537.715 186.814 545.547 179.305 560.318 177.37C572.78 175.736 582.204 186.414 592.178 197.716C601.709 208.515 611.555 219.669 625.118 219.702C630.77 221.221 649.319 223.201 672.38 194.066C690.435 171.257 701.543 172.315 709.658 176.563C712.642 178.126 716.322 177.153 718.185 174.35C720.381 171.045 719.181 166.582 715.642 164.782C710.152 161.988 703.775 160.096 696.286 161.16C685.049 162.756 673.817 170.823 661.95 185.819C643.01 209.746 629.817 207.177 628.484 206.837L627.451 206.314L625.737 206.398C617.896 206.772 610.24 198.104 602.14 188.923H602.139C590.851 176.132 578.059 161.636 558.579 164.187C539.485 166.688 529.487 176.274 511.337 193.678C507.234 197.614 502.58 202.076 497.285 206.97C487.746 215.785 475.951 217.789 462.226 212.928C462.006 212.852 461.792 212.773 461.578 212.694C456.607 210.862 452.242 208.433 448.973 206.343C448.614 206.052 448.227 205.8 447.816 205.589L447.501 205.378C446.853 204.941 446.132 204.622 445.373 204.435C440.447 202.297 434.845 201.038 428.426 201.95C417.189 203.545 405.957 211.612 394.09 226.609C375.15 250.536 361.957 247.966 360.624 247.626L359.591 247.103L357.877 247.187C350.036 247.562 342.38 238.893 334.28 229.713V229.712C322.991 216.921 310.199 202.425 290.719 204.977C271.625 207.477 261.627 217.064 243.477 234.467C239.374 238.403 234.72 242.865 229.425 247.759C219.886 256.575 208.091 258.578 194.366 253.717C194.146 253.641 193.932 253.562 193.718 253.483C187.958 251.36 183.012 248.437 179.641 246.167C178.294 245.259 176.661 244.875 175.05 245.088C173.439 245.302 171.962 246.097 170.897 247.324C168.288 250.333 168.884 254.951 172.188 257.177C176.259 259.925 182.158 263.388 189.122 265.954C189.166 265.971 189.21 265.986 189.255 266.002C189.345 266.034 189.436 266.067 189.53 266.105C208.173 272.843 225.091 269.875 238.457 257.522C243.844 252.542 248.545 248.038 252.69 244.063C269.855 227.603 277.687 220.094 292.458 218.159C304.92 216.525 314.344 227.203 324.318 238.505C333.849 249.305 343.695 260.458 357.258 260.491C362.91 262.01 381.459 263.99 404.52 234.855C421.716 213.132 432.61 213.058 440.618 216.769Z" fill="#4F27AA"/>
<path d="M209.782 364.179C227.746 359.366 238.407 340.9 233.594 322.936C228.78 304.971 210.315 294.311 192.35 299.124C174.386 303.938 163.725 322.403 168.538 340.367C173.352 358.332 191.817 368.993 209.782 364.179Z" fill="url(#paint0_linear_1235_30795)"/>
<path d="M207.292 354.886C220.123 351.448 227.738 338.259 224.3 325.427C220.861 312.596 207.672 304.981 194.841 308.419C182.009 311.857 174.395 325.046 177.833 337.878C181.271 350.709 194.46 358.324 207.292 354.886Z" fill="white"/>
<path d="M233.593 322.937C235.026 328.287 235.118 333.907 233.861 339.3C232.604 344.693 230.035 349.693 226.384 353.857C222.733 358.02 218.111 361.219 212.928 363.17C207.745 365.121 202.161 365.763 196.671 365.041C191.18 364.318 185.952 362.252 181.451 359.026C176.95 355.801 173.313 351.515 170.864 346.548C168.414 341.581 167.228 336.087 167.409 330.552C167.59 325.017 169.133 319.612 171.902 314.816L180.651 319.867C177.726 324.935 176.79 330.91 178.026 336.629C179.261 342.349 182.579 347.405 187.335 350.813C190.486 353.072 194.145 354.519 197.988 355.025C201.832 355.531 205.741 355.082 209.369 353.716C212.997 352.351 216.233 350.112 218.789 347.197C221.345 344.282 223.142 340.782 224.022 337.006C224.902 333.231 224.838 329.297 223.835 325.552L233.593 322.937Z" fill="#4F27AA"/>
<path d="M352.515 322.936C347.701 304.971 329.236 294.31 311.271 299.124C293.307 303.937 282.646 322.403 287.46 340.367C292.273 358.331 310.738 368.992 328.703 364.179C346.667 359.365 357.328 340.9 352.515 322.936Z" fill="url(#paint1_linear_1235_30795)"/>
<path d="M343.22 325.425C339.782 312.594 326.593 304.979 313.762 308.417C300.93 311.855 293.315 325.044 296.754 337.876C300.192 350.707 313.381 358.322 326.212 354.884C339.044 351.446 346.659 338.257 343.22 325.425Z" fill="white"/>
<path d="M311.271 299.125C316.62 297.691 322.24 297.598 327.634 298.856C333.027 300.113 338.027 302.682 342.19 306.334C346.354 309.985 349.553 314.607 351.503 319.79C353.454 324.973 354.096 330.557 353.373 336.047C352.649 341.538 350.583 346.765 347.358 351.266C344.132 355.767 339.847 359.404 334.881 361.854C329.914 364.303 324.42 365.489 318.885 365.308C313.351 365.127 307.946 363.584 303.15 360.815L308.201 352.066C311.558 354.004 315.341 355.083 319.215 355.21C323.089 355.336 326.935 354.505 330.411 352.791C333.888 351.077 336.888 348.532 339.146 345.381C341.404 342.231 342.85 338.572 343.357 334.729C344.122 328.927 342.701 323.049 339.371 318.236C336.041 313.424 331.039 310.023 325.34 308.695C321.565 307.815 317.63 307.88 313.886 308.883L311.271 299.125Z" fill="#4F27AA"/>
<path d="M447.624 364.179C465.588 359.366 476.249 340.9 471.435 322.936C466.622 304.971 448.157 294.311 430.192 299.124C412.228 303.938 401.567 322.403 406.38 340.367C411.194 358.332 429.659 368.993 447.624 364.179Z" fill="url(#paint2_linear_1235_30795)"/>
<path d="M445.134 354.886C457.966 351.448 465.581 338.259 462.142 325.427C458.704 312.596 445.515 304.981 432.684 308.419C419.852 311.857 412.237 325.046 415.676 337.878C419.114 350.709 432.303 358.324 445.134 354.886Z" fill="white"/>
<path d="M471.436 322.937C472.869 328.287 472.961 333.907 471.704 339.3C470.446 344.693 467.878 349.693 464.227 353.857C460.576 358.02 455.954 361.219 450.771 363.17C445.588 365.121 440.004 365.763 434.513 365.041C429.023 364.318 423.795 362.252 419.294 359.026C414.792 355.801 411.156 351.515 408.706 346.548C406.257 341.581 405.07 336.087 405.251 330.552C405.433 325.017 406.976 319.612 409.745 314.816L418.494 319.867C415.569 324.935 414.633 330.91 415.868 336.629C417.104 342.349 420.422 347.405 425.178 350.813C429.128 353.645 433.856 355.187 438.716 355.227C443.575 355.267 448.329 353.804 452.325 351.039C456.321 348.273 459.365 344.34 461.039 339.777C462.713 335.215 462.936 330.246 461.677 325.552L471.436 322.937Z" fill="#4F27AA"/>
<path d="M461.742 386.223H181.431C173.223 386.223 166.57 392.876 166.57 401.084V490.258C166.57 498.465 173.223 505.119 181.431 505.119H461.742C469.949 505.119 476.603 498.465 476.603 490.258V401.084C476.603 392.876 469.949 386.223 461.742 386.223Z" fill="#4F27AA"/>
<path d="M437.731 422.734H262.684C258.829 422.734 255.704 425.859 255.704 429.714V429.715C255.704 433.57 258.829 436.695 262.684 436.695H437.731C441.586 436.695 444.711 433.57 444.711 429.715V429.714C444.711 425.859 441.586 422.734 437.731 422.734Z" fill="white"/>
<path d="M371.149 453.879H262.684C258.829 453.879 255.704 457.004 255.704 460.859V460.86C255.704 464.715 258.829 467.84 262.684 467.84H371.149C375.004 467.84 378.129 464.715 378.129 460.86V460.859C378.129 457.004 375.004 453.879 371.149 453.879Z" fill="white"/>
<path d="M217.044 467.838C229.499 467.838 239.596 457.742 239.596 445.286C239.596 432.831 229.499 422.734 217.044 422.734C204.589 422.734 194.492 432.831 194.492 445.286C194.492 457.742 204.589 467.838 217.044 467.838Z" fill="white"/>
<path d="M568.989 258.026L548.435 278.56L538.45 268.604M613.522 248.199H674.27M613.996 278.337H714.455M568.989 328.348L548.435 348.882L538.45 338.926M613.522 318.522H674.27M613.996 348.66H714.455M714.454 418.98H613.522M714.454 488.854H613.522M714.455 388.843H613.996M714.455 458.717H613.996" stroke="#4F27AA" stroke-width="14.844" stroke-linecap="round" stroke-linejoin="round"/>
<path d="M553.718 429.028C564.815 429.028 573.81 420.033 573.81 408.936C573.81 397.84 564.815 388.844 553.718 388.844C542.622 388.844 533.626 397.84 533.626 408.936C533.626 420.033 542.622 429.028 553.718 429.028ZM553.718 498.902C564.815 498.902 573.81 489.907 573.81 478.81C573.81 467.714 564.815 458.718 553.718 458.718C542.622 458.718 533.626 467.714 533.626 478.81C533.626 489.907 542.622 498.902 553.718 498.902Z" stroke="#4F27AA" stroke-width="14.844" stroke-linecap="round" stroke-linejoin="round"/>
<path d="M275.082 210.641C275.082 220.326 282.813 228.177 292.348 228.177C301.884 228.177 309.614 220.326 309.614 210.641C309.614 200.957 301.884 193.105 292.348 193.105C282.813 193.105 275.082 200.957 275.082 210.641Z" fill="white" stroke="#4F27AA" stroke-width="8.097"/>
<path d="M417.572 205.388C417.572 215.072 425.302 222.924 434.838 222.924C444.374 222.924 452.104 215.072 452.104 205.388C452.104 195.703 444.374 187.852 434.838 187.852C425.302 187.852 417.572 195.703 417.572 205.388Z" fill="white" stroke="#4F27AA" stroke-width="8.097"/>
<path d="M543.073 167.602C543.073 177.287 550.803 185.138 560.339 185.138C569.875 185.138 577.605 177.287 577.605 167.602C577.605 157.918 569.875 150.066 560.339 150.066C550.803 150.066 543.073 157.918 543.073 167.602Z" fill="white" stroke="#4F27AA" stroke-width="8.097"/>
<path d="M687.466 163.552C687.466 173.236 695.196 181.088 704.732 181.088C714.268 181.088 721.998 173.236 721.998 163.552C721.998 153.867 714.268 146.016 704.732 146.016C695.196 146.016 687.466 153.867 687.466 163.552Z" fill="white" stroke="#4F27AA" stroke-width="8.097"/>
<path d="M171.968 258.016C171.968 267.701 179.698 275.552 189.234 275.552C198.77 275.552 206.5 267.701 206.5 258.016C206.5 248.332 198.77 240.48 189.234 240.48C179.698 240.48 171.968 248.332 171.968 258.016Z" fill="white" stroke="#4F27AA" stroke-width="8.097"/>
</g>
<defs>
<linearGradient id="paint0_linear_1235_30795" x1="220.942" y1="400.28" x2="172.769" y2="228.522" gradientUnits="userSpaceOnUse">
<stop stop-color="white"/>
<stop offset="1" stop-color="#EEEEEE"/>
</linearGradient>
<linearGradient id="paint1_linear_1235_30795" x1="388.615" y1="311.776" x2="216.858" y2="359.948" gradientUnits="userSpaceOnUse">
<stop stop-color="white"/>
<stop offset="1" stop-color="#EEEEEE"/>
</linearGradient>
<linearGradient id="paint2_linear_1235_30795" x1="458.783" y1="400.28" x2="410.612" y2="228.522" gradientUnits="userSpaceOnUse">
<stop stop-color="white"/>
<stop offset="1" stop-color="#EEEEEE"/>
</linearGradient>
<clipPath id="clip0_1235_30795">
<rect width="900" height="600" fill="white"/>
</clipPath>
</defs>
</svg>
