<svg width="900" height="600" viewBox="0 0 900 600" fill="none" xmlns="http://www.w3.org/2000/svg">
<g clip-path="url(#clip0_1235_19081)">
<path d="M565.436 184.074C549.605 132.405 412.781 65.7177 304.684 148.619C254.41 187.177 270.015 214.848 241.069 269.476C223.814 302.035 193.251 333.08 195.293 370.46C197.049 402.728 213.932 431.91 236.772 446.543C288.139 479.45 369.523 485.036 412.069 387.902C454.615 290.768 606.249 317.337 565.436 184.074Z" fill="url(#paint0_linear_1235_19081)"/>
<path fill-rule="evenodd" clip-rule="evenodd" d="M673.87 395.374V455.544C673.87 467.56 664.118 477.313 652.101 477.313H260.257C248.24 477.313 238.488 467.56 238.488 455.544V395.374C238.489 393.829 238.919 392.315 239.73 391.001C240.541 389.686 241.701 388.623 243.081 387.929C254.785 382.084 264.629 373.093 271.508 361.964C278.387 350.836 282.029 338.012 282.026 324.929C282.026 298.24 266.94 273.859 243.081 261.929C241.701 261.235 240.541 260.172 239.73 258.857C238.919 257.542 238.489 256.029 238.488 254.484V194.314C238.488 182.298 248.24 172.545 260.257 172.545H652.101C664.118 172.545 673.87 182.298 673.87 194.314V254.484C673.869 256.029 673.439 257.542 672.628 258.857C671.817 260.172 670.657 261.235 669.277 261.929L668.319 262.43C656.87 268.368 647.272 277.338 640.573 288.36C633.874 299.381 630.331 312.031 630.332 324.929C630.332 351.596 645.396 375.999 669.255 387.929H669.277C670.657 388.623 671.817 389.686 672.628 391.001C673.439 392.315 673.869 393.829 673.87 395.374Z" fill="#4F27AA"/>
<path d="M394.017 380.876L502.863 272.031M504.36 373.909C501.356 373.909 498.918 376.347 498.94 379.351C498.94 380.794 499.514 382.178 500.534 383.198C501.555 384.218 502.939 384.792 504.382 384.793C505.825 384.792 507.209 384.218 508.229 383.198C509.25 382.178 509.823 380.794 509.824 379.351C509.824 376.347 507.386 373.909 504.36 373.909ZM395.514 265.062C392.51 265.062 390.072 267.501 390.094 270.505C390.094 271.948 390.668 273.332 391.688 274.352C392.709 275.372 394.093 275.946 395.536 275.947C396.979 275.946 398.363 275.372 399.383 274.352C400.404 273.332 400.977 271.948 400.978 270.505C400.978 267.501 398.54 265.062 395.514 265.062Z" stroke="white" stroke-width="29.258" stroke-linecap="round" stroke-linejoin="round"/>
<path d="M667.803 136.644L646.264 158.184C645.479 158.968 645.479 160.239 646.264 161.023L646.264 161.024C647.049 161.808 648.32 161.808 649.104 161.024L670.643 139.485C671.427 138.701 671.427 137.429 670.643 136.645L670.643 136.644C669.858 135.86 668.587 135.86 667.803 136.644Z" fill="#E1E4E5"/>
<path d="M665.693 152.067L659.481 158.279C658.697 159.064 658.697 160.335 659.481 161.119L659.482 161.12C660.266 161.904 661.537 161.904 662.321 161.12L668.533 154.908C669.317 154.124 669.317 152.852 668.533 152.068L668.533 152.067C667.748 151.283 666.477 151.283 665.693 152.067Z" fill="#E1E4E5"/>
<path d="M699.988 337.48C717.728 325.315 719.465 296.993 719.465 296.993C719.465 296.993 692.436 288.411 674.703 300.591C656.962 312.755 655.218 341.062 655.218 341.062C655.218 341.062 682.248 349.644 699.988 337.48Z" fill="url(#paint1_linear_1235_19081)"/>
<path d="M408.232 125.358C400.793 127.546 390.876 131.95 385.535 139.977C380.196 148.004 387.25 149.931 396.338 147.977C405.425 146.022 414.252 140.388 417.564 132.922C420.877 125.457 414.338 123.561 408.232 125.358ZM343.105 503.432C339.316 504.547 334.264 506.79 331.543 510.879C328.823 514.968 332.417 515.95 337.046 514.954C341.675 513.959 346.172 511.089 347.859 507.285C349.547 503.482 346.216 502.517 343.105 503.432ZM465.497 491.05C461.708 492.165 456.656 494.409 453.935 498.498C451.215 502.587 454.809 503.569 459.438 502.573C464.067 501.577 468.564 498.707 470.251 494.904C471.939 491.101 468.608 490.135 465.497 491.05ZM587.901 502.207C584.111 503.322 579.059 505.566 576.338 509.655C573.619 513.744 577.212 514.726 581.842 513.73C586.471 512.734 590.967 509.864 592.655 506.061C594.342 502.258 591.011 501.292 587.901 502.207ZM238.818 321.489C235.225 322.546 230.435 324.673 227.855 328.55C225.276 332.427 228.684 333.358 233.073 332.414C237.462 331.47 241.726 328.749 243.326 325.143C244.926 321.537 241.768 320.621 238.818 321.489Z" fill="#E1E4E5"/>
<path d="M209.464 214.401C198.858 225.195 179.027 222.919 179.027 222.919C179.027 222.919 176.402 203.142 187.017 192.355C197.623 181.561 217.445 183.83 217.445 183.83C217.445 183.83 220.069 203.607 209.464 214.401Z" fill="url(#paint2_linear_1235_19081)"/>
<path d="M618.395 144.43C613.659 149.018 606.136 149.018 601.4 144.43C596.446 139.631 596.446 131.685 601.4 126.886C606.136 122.298 613.659 122.298 618.395 126.886C623.349 131.685 623.349 139.631 618.395 144.43Z" stroke="#E1E4E5" stroke-width="6.3" stroke-linecap="round" stroke-linejoin="round"/>
<path d="M221.127 115.364H220.864C219.306 136.935 202.891 137.267 202.891 137.267C202.891 137.267 220.992 137.612 220.992 162.537C220.992 137.612 239.093 137.267 239.093 137.267C239.093 137.267 222.685 136.935 221.127 115.364ZM198.585 260.175H198.425C197.481 272.716 187.532 272.909 187.532 272.909C187.532 272.909 198.503 273.11 198.503 287.601C198.503 273.11 209.473 272.909 209.473 272.909C209.473 272.909 199.529 272.716 198.585 260.175ZM147.657 338.065H147.33C145.395 365.656 125 366.081 125 366.081C125 366.081 147.49 366.523 147.49 398.403C147.49 366.523 169.979 366.081 169.979 366.081C169.979 366.081 149.593 365.656 147.657 338.065ZM735.678 203.128H735.351C733.416 231.22 713.021 231.653 713.021 231.653C713.021 231.653 735.511 232.103 735.511 264.563C735.511 232.103 758 231.653 758 231.653C758 231.653 737.614 231.22 735.678 203.128ZM703.254 430.218H703.046C701.819 447.274 688.886 447.537 688.886 447.537C688.886 447.537 703.147 447.81 703.147 467.518C703.147 447.81 717.409 447.537 717.409 447.537C717.409 447.537 704.481 447.274 703.254 430.218ZM507.425 110.975H507.226C506.046 128.032 493.61 128.294 493.61 128.294C493.61 128.294 507.323 128.567 507.323 148.275C507.323 128.567 521.036 128.294 521.036 128.294C521.036 128.294 508.605 128.032 507.425 110.975Z" fill="#E1E4E5"/>
<path d="M298.451 424.645L273.527 449.57C272.62 450.477 272.62 451.949 273.527 452.856C274.435 453.764 275.906 453.764 276.814 452.856L301.738 427.932C302.645 427.025 302.645 425.553 301.738 424.645C300.83 423.738 299.359 423.738 298.451 424.645Z" fill="white"/>
<path d="M318.845 424.645L293.921 449.57C293.014 450.477 293.014 451.949 293.921 452.856C294.829 453.764 296.3 453.764 297.208 452.856L322.132 427.932C323.039 427.025 323.039 425.553 322.132 424.645C321.224 423.738 319.753 423.738 318.845 424.645Z" fill="white"/>
<path d="M340.514 424.645L315.59 449.57C314.683 450.477 314.683 451.949 315.59 452.856C316.498 453.764 317.969 453.764 318.877 452.856L343.801 427.932C344.708 427.025 344.708 425.553 343.801 424.645C342.893 423.738 341.422 423.738 340.514 424.645Z" fill="white"/>
</g>
<defs>
<linearGradient id="paint0_linear_1235_19081" x1="335.686" y1="-76.1773" x2="456.972" y2="827.642" gradientUnits="userSpaceOnUse">
<stop stop-color="white"/>
<stop offset="1" stop-color="#EEEEEE"/>
</linearGradient>
<linearGradient id="paint1_linear_1235_19081" x1="762.096" y1="287.407" x2="574.844" y2="364.888" gradientUnits="userSpaceOnUse">
<stop stop-color="white"/>
<stop offset="1" stop-color="#EEEEEE"/>
</linearGradient>
<linearGradient id="paint2_linear_1235_19081" x1="167.15" y1="251.271" x2="243.821" y2="131.083" gradientUnits="userSpaceOnUse">
<stop stop-color="white"/>
<stop offset="1" stop-color="#EEEEEE"/>
</linearGradient>
<clipPath id="clip0_1235_19081">
<rect width="900" height="600" fill="white"/>
</clipPath>
</defs>
</svg>
