<svg width="900" height="600" viewBox="0 0 900 600" fill="none" xmlns="http://www.w3.org/2000/svg">
<g clip-path="url(#clip0_1235_30851)">
<path fill-rule="evenodd" clip-rule="evenodd" d="M206.664 47.1016C162.482 47.1016 126.664 82.9186 126.664 127.102V286.187C126.664 330.369 162.482 366.187 206.664 366.187H365.749C370.468 366.187 375.091 365.778 379.585 364.995V287.178C379.585 247.713 408.16 214.923 445.749 208.37V127.102C445.749 82.9186 409.932 47.1016 365.749 47.1016H206.664Z" fill="#4F27AA"/>
<path d="M233.76 250.848C233.76 250.848 253.565 263.084 286.594 263.084C319.624 263.084 339.429 250.848 339.429 250.848" stroke="white" stroke-width="22.048" stroke-linecap="round" stroke-linejoin="round"/>
<path d="M246.389 175.963C246.389 190.265 234.522 201.879 219.859 201.879C205.196 201.879 193.329 190.265 193.329 175.963C193.329 161.661 205.196 150.047 219.859 150.047C234.522 150.047 246.389 161.661 246.389 175.963ZM378.631 175.963C378.631 190.265 366.764 201.879 352.101 201.879C337.438 201.879 325.571 190.265 325.571 175.963C325.571 161.661 337.438 150.047 352.101 150.047C366.764 150.047 378.631 161.661 378.631 175.963Z" fill="white" stroke="white"/>
<path d="M631.476 219.98H472.391C428.208 219.98 392.391 255.798 392.391 299.98V459.065C392.391 503.248 428.208 539.065 472.391 539.065H631.476C675.659 539.065 711.476 503.248 711.476 459.065V299.98C711.476 255.798 675.659 219.98 631.476 219.98Z" fill="#4F27AA"/>
<path d="M499.486 423.73C499.486 423.73 519.291 435.966 552.321 435.966C585.35 435.966 605.156 423.73 605.156 423.73" stroke="white" stroke-width="22.048" stroke-linecap="round" stroke-linejoin="round"/>
<path d="M512.115 348.845C512.115 363.147 500.248 374.761 485.585 374.761C470.922 374.761 459.055 363.147 459.055 348.845C459.055 334.543 470.922 322.93 485.585 322.93C500.248 322.93 512.115 334.543 512.115 348.845ZM644.357 348.845C644.357 363.147 632.49 374.761 617.827 374.761C603.164 374.761 591.297 363.147 591.297 348.845C591.297 334.543 603.164 322.93 617.827 322.93C632.49 322.93 644.357 334.543 644.357 348.845Z" fill="white" stroke="white"/>
<path d="M490.885 95.1745C506.714 103.026 527.724 92.9305 527.724 92.9305C527.724 92.9305 523.055 70.1065 507.217 62.2655C491.387 54.4135 470.386 64.4985 470.386 64.4985C470.386 64.4985 475.055 87.3225 490.885 95.1745Z" fill="url(#paint0_linear_1235_30851)"/>
<path d="M247.333 462.23C253.27 462.23 258.083 467.043 258.083 472.98C258.083 478.918 253.27 483.73 247.333 483.73C241.396 483.73 236.583 478.918 236.583 472.98C236.583 467.043 241.396 462.23 247.333 462.23Z" fill="#4F27AA"/>
<path d="M512.923 141.009C524.089 141.009 533.141 150.061 533.141 161.227C533.141 172.393 524.089 181.445 512.923 181.445C501.757 181.445 492.705 172.393 492.705 161.227C492.705 150.061 501.757 141.009 512.923 141.009Z" fill="#4F27AA"/>
<path d="M656.056 203.052C661.99 203.052 666.801 198.242 666.801 192.307C666.801 186.373 661.99 181.562 656.056 181.562C650.122 181.562 645.311 186.373 645.311 192.307C645.311 198.242 650.122 203.052 656.056 203.052Z" fill="#4F27AA"/>
<path d="M760.813 499.007C769.201 499.007 776 492.207 776 483.82C776 475.432 769.201 468.633 760.813 468.633C752.425 468.633 745.626 475.432 745.626 483.82C745.626 492.207 752.425 499.007 760.813 499.007Z" fill="#E1E4E5"/>
<path d="M266.345 429.977C276.888 429.977 285.435 421.43 285.435 410.887C285.435 400.344 276.888 391.797 266.345 391.797C255.802 391.797 247.255 400.344 247.255 410.887C247.255 421.43 255.802 429.977 266.345 429.977Z" fill="#E1E4E5"/>
<path d="M603.348 126.844C601.18 134.932 605.98 143.246 614.069 145.413C622.157 147.581 630.471 142.781 632.638 134.692C634.806 126.604 630.006 118.29 621.917 116.123C613.829 113.955 605.515 118.755 603.348 126.844Z" fill="#E1E4E5"/>
<path d="M138.979 392.076C147.548 392.076 154.495 386.519 154.495 379.663C154.495 372.807 147.548 367.25 138.979 367.25C130.41 367.25 123.463 372.807 123.463 379.663C123.463 386.519 130.41 392.076 138.979 392.076Z" fill="#E1E4E5"/>
<path d="M314.487 529.683C314.487 543.36 325.575 554.448 339.252 554.448C352.929 554.448 364.017 543.36 364.017 529.683C364.017 516.006 352.929 504.918 339.252 504.918C325.575 504.918 314.487 516.006 314.487 529.683Z" fill="#E1E4E5"/>
</g>
<defs>
<linearGradient id="paint0_linear_1235_30851" x1="551.672" y1="119.668" x2="421.109" y2="16.3925" gradientUnits="userSpaceOnUse">
<stop stop-color="white"/>
<stop offset="1" stop-color="#EEEEEE"/>
</linearGradient>
<clipPath id="clip0_1235_30851">
<rect width="900" height="600" fill="white"/>
</clipPath>
</defs>
</svg>
