<svg width="900" height="600" viewBox="0 0 900 600" fill="none" xmlns="http://www.w3.org/2000/svg">
<g clip-path="url(#clip0_1235_30868)">
<path fill-rule="evenodd" clip-rule="evenodd" d="M256.694 60H583.573C589.265 60 593.136 65.776 590.973 71.041L548.358 174.732C547.557 176.68 547.557 178.866 548.358 180.814L590.973 284.506C593.136 289.771 589.265 295.547 583.573 295.547H386.433" fill="#4F27AA"/>
<path d="M452.212 120.576L462.538 136.698C464.168 139.235 467.791 141.771 470.508 142.495L488.986 147.205C500.398 150.104 503.478 159.886 496.051 168.944L483.914 183.618C482.102 185.973 480.653 190.139 480.834 193.038L481.921 212.059C482.645 223.834 474.312 229.812 463.443 225.464L445.69 218.399C442.973 217.312 438.444 217.312 435.727 218.399L417.974 225.464C407.105 229.812 398.772 223.653 399.496 212.059L400.583 193.038C400.764 190.139 399.315 185.791 397.504 183.618L385.366 168.944C377.939 159.886 381.019 150.104 392.431 147.205L410.909 142.495C413.807 141.771 417.43 139.053 418.88 136.698L429.205 120.576C435.727 110.793 445.871 110.793 452.212 120.576Z" fill="white"/>
<path d="M492.727 483.013L255.99 72.9727" stroke="#4F27AA" stroke-width="24" stroke-linecap="round" stroke-linejoin="round"/>
<path fill-rule="evenodd" clip-rule="evenodd" d="M75 538.248C75 538.248 171.178 425.737 306.316 424.157C442.067 422.57 550.069 534.396 560.018 540.173L75 538.248Z" fill="white" stroke="#E1E4E5" stroke-width="11"/>
<path fill-rule="evenodd" clip-rule="evenodd" d="M340.716 538.248C340.716 538.248 436.893 425.737 572.032 424.157C707.783 422.57 815.784 534.396 825.733 540.173L340.716 538.248Z" fill="white" stroke="#E1E4E5" stroke-width="11"/>
<path fill-rule="evenodd" clip-rule="evenodd" d="M231.645 538.248C231.645 538.248 328.052 425.737 463.514 424.157C599.59 422.57 707.85 534.396 717.823 540.173L231.645 538.248Z" fill="white" stroke="#E1E4E5" stroke-width="11"/>
<path d="M385.968 533.211V505.363" stroke="#E1E4E5" stroke-width="11"/>
<path d="M403.373 533.21V513.484" stroke="#E1E4E5" stroke-width="11"/>
<path d="M369.724 533.21V513.484" stroke="#E1E4E5" stroke-width="11"/>
<path d="M164.345 533.211V505.363" stroke="#E1E4E5" stroke-width="11"/>
<path d="M181.75 533.21V513.484" stroke="#E1E4E5" stroke-width="11"/>
<path d="M148.101 533.21V513.484" stroke="#E1E4E5" stroke-width="11"/>
<path d="M541.453 533.211V505.363" stroke="#E1E4E5" stroke-width="11"/>
<path d="M558.858 533.21V513.484" stroke="#E1E4E5" stroke-width="11"/>
<path d="M525.208 533.21V513.484" stroke="#E1E4E5" stroke-width="11"/>
<path d="M353.463 393.354C341.358 395.753 327.568 383.001 327.568 383.001C327.568 383.001 333.415 366.366 345.525 363.977C357.631 361.578 371.416 374.319 371.416 374.319C371.416 374.319 365.569 390.955 353.463 393.354Z" fill="url(#paint0_linear_1235_30868)"/>
<path d="M732.406 439.88C746.874 449.845 768.977 442.879 768.977 442.879C768.977 442.879 767.608 419.759 753.13 409.804C738.663 399.838 716.57 406.795 716.57 406.795C716.57 406.795 717.938 429.915 732.406 439.88Z" fill="url(#paint1_linear_1235_30868)"/>
<path d="M654.99 294.022C647.126 302.027 632.419 300.339 632.419 300.339C632.419 300.339 630.472 285.673 638.345 277.673C646.209 269.668 660.909 271.351 660.909 271.351C660.909 271.351 662.855 286.017 654.99 294.022Z" fill="url(#paint2_linear_1235_30868)"/>
<path d="M500.038 324.145C494.865 324.145 490.671 328.339 490.671 333.512C490.671 338.685 494.865 342.879 500.038 342.879C505.211 342.879 509.405 338.685 509.405 333.512C509.405 328.339 505.211 324.145 500.038 324.145Z" fill="#4F27AA"/>
<path d="M316.348 324.35C312.503 324.35 309.386 321.233 309.386 317.388C309.386 313.543 312.503 310.426 316.348 310.426C320.193 310.426 323.31 313.543 323.31 317.388C323.31 321.233 320.193 324.35 316.348 324.35Z" fill="#4F27AA"/>
<path d="M356.926 220.365C352.851 220.365 349.548 217.062 349.548 212.987C349.548 208.913 352.851 205.609 356.926 205.609C361.001 205.609 364.304 208.913 364.304 212.987C364.304 217.062 361.001 220.365 356.926 220.365Z" fill="#4F27AA"/>
<path d="M657.236 375.951C651.192 375.951 646.292 371.459 646.292 365.919C646.292 360.378 651.192 355.887 657.236 355.887C663.28 355.887 668.18 360.378 668.18 365.919C668.18 371.459 663.28 375.951 657.236 375.951Z" fill="#E1E4E5"/>
<path d="M238.026 368.444C234.501 368.444 231.644 365.586 231.644 362.062C231.644 358.537 234.501 355.68 238.026 355.68C241.551 355.68 244.408 358.537 244.408 362.062C244.408 365.586 241.551 368.444 238.026 368.444Z" fill="#E1E4E5"/>
<path d="M186.093 187.996C181.282 187.996 177.382 184.096 177.382 179.285C177.382 174.474 181.282 170.574 186.093 170.574C190.904 170.574 194.804 174.474 194.804 179.285C194.804 184.096 190.904 187.996 186.093 187.996Z" fill="#E1E4E5"/>
<path d="M630.422 97.8825C627.878 97.8825 625.815 95.5907 625.815 92.7635C625.815 89.9364 627.878 87.6445 630.422 87.6445C632.966 87.6445 635.029 89.9364 635.029 92.7635C635.029 95.5907 632.966 97.8825 630.422 97.8825Z" fill="#E1E4E5"/>
<path d="M279.169 231.67C280.907 238.157 277.057 244.825 270.57 246.563C264.084 248.301 257.416 244.451 255.678 237.964C253.939 231.477 257.789 224.81 264.276 223.072C270.763 221.333 277.431 225.183 279.169 231.67Z" fill="#E1E4E5"/>
<path d="M189.187 103.063C182.667 103.063 177.382 97.7778 177.382 91.2581C177.382 84.7384 182.667 79.4531 189.187 79.4531C195.707 79.4531 200.992 84.7384 200.992 91.2581C200.992 97.7778 195.707 103.063 189.187 103.063Z" fill="#E1E4E5"/>
<path d="M593.053 374.825C593.053 381.893 587.323 387.623 580.255 387.623C573.187 387.623 567.457 381.893 567.457 374.825C567.457 367.757 573.187 362.027 580.255 362.027C587.323 362.027 593.053 367.757 593.053 374.825Z" fill="#E1E4E5"/>
<path d="M596.878 155.215H597.114C598.511 175.458 613.231 175.77 613.231 175.77C613.231 175.77 596.999 176.094 596.999 199.485C596.999 176.094 580.767 175.77 580.767 175.77C580.767 175.77 595.481 175.458 596.878 155.215Z" fill="#E1E4E5"/>
</g>
<defs>
<linearGradient id="paint0_linear_1235_30868" x1="307.604" y1="398.171" x2="412.084" y2="349.235" gradientUnits="userSpaceOnUse">
<stop stop-color="white"/>
<stop offset="1" stop-color="#EEEEEE"/>
</linearGradient>
<linearGradient id="paint1_linear_1235_30868" x1="788.764" y1="472.578" x2="674.878" y2="352.489" gradientUnits="userSpaceOnUse">
<stop stop-color="white"/>
<stop offset="1" stop-color="#EEEEEE"/>
</linearGradient>
<linearGradient id="paint2_linear_1235_30868" x1="623.611" y1="321.364" x2="680.469" y2="232.235" gradientUnits="userSpaceOnUse">
<stop stop-color="white"/>
<stop offset="1" stop-color="#EEEEEE"/>
</linearGradient>
<clipPath id="clip0_1235_30868">
<rect width="900" height="600" fill="white"/>
</clipPath>
</defs>
</svg>
