<svg width="900" height="600" viewBox="0 0 900 600" fill="none" xmlns="http://www.w3.org/2000/svg">
<g clip-path="url(#clip0_1235_30908)">
<path d="M457.323 496.445C564.996 496.445 652.282 409.159 652.282 301.486C652.282 193.813 564.996 106.527 457.323 106.527C349.65 106.527 262.364 193.813 262.364 301.486C262.364 409.159 349.65 496.445 457.323 496.445Z" fill="white" stroke="#E1E4E5" stroke-width="11"/>
<path d="M561.327 246.335V346M493.876 257.685V346.625M425.946 201.512V346.625M358.696 302.935V346.625" stroke="#4F27AA" stroke-width="24" stroke-linecap="round" stroke-linejoin="round"/>
<path d="M558.037 396.18H355.321C318.152 396.18 288.02 426.311 288.02 463.481V463.482C288.02 500.651 318.152 530.783 355.321 530.783H558.037C595.206 530.783 625.338 500.651 625.338 463.482V463.481C625.338 426.311 595.206 396.18 558.037 396.18Z" fill="white" stroke="#E1E4E5" stroke-width="11"/>
<path d="M356.629 413.84H355.271C327.884 413.84 305.682 436.042 305.682 463.429C305.682 490.816 327.884 513.018 355.271 513.018H356.629C384.016 513.018 406.218 490.816 406.218 463.429C406.218 436.042 384.016 413.84 356.629 413.84Z" fill="#4F27AA"/>
<path fill-rule="evenodd" clip-rule="evenodd" d="M380.724 485.9V489.505C380.724 491.494 379.13 493.109 377.166 493.109H334.482C332.518 493.109 330.924 491.494 330.924 489.505V485.842C330.924 474.935 343.225 467.849 355.824 467.849C368.423 467.849 380.724 474.939 380.724 485.842M364.755 436.184C369.688 441.116 369.688 449.113 364.755 454.046C359.823 458.978 351.826 458.978 346.894 454.046C341.961 449.113 341.961 441.116 346.894 436.184C351.826 431.251 359.823 431.251 364.755 436.184Z" fill="white"/>
<path d="M566.177 430.145H428.265C425.148 430.145 422.622 432.671 422.622 435.788V435.789C422.622 438.905 425.148 441.432 428.265 441.432H566.177C569.294 441.432 571.82 438.905 571.82 435.789V435.788C571.82 432.671 569.294 430.145 566.177 430.145Z" fill="#E1E4E5"/>
<path d="M532.567 457.316H429.314C425.562 457.316 422.521 460.358 422.521 464.109C422.521 467.861 425.562 470.902 429.314 470.902H532.567C536.319 470.902 539.36 467.861 539.36 464.109C539.36 460.358 536.319 457.316 532.567 457.316Z" fill="#E1E4E5"/>
<path d="M533.926 487.207H427.955C424.954 487.207 422.521 489.64 422.521 492.641V492.642C422.521 495.643 424.954 498.076 427.955 498.076H533.926C536.927 498.076 539.36 495.643 539.36 492.642V492.641C539.36 489.64 536.927 487.207 533.926 487.207Z" fill="#E1E4E5"/>
<path d="M694.398 346.999C685.394 346.999 678.095 354.299 678.095 363.302C678.095 372.306 685.394 379.605 694.398 379.605C703.402 379.605 710.701 372.306 710.701 363.302C710.701 354.299 703.402 346.999 694.398 346.999Z" fill="#4F27AA"/>
<path d="M221.315 351.074C208.72 351.074 198.51 361.284 198.51 373.879C198.51 386.473 208.72 396.684 221.315 396.684C233.91 396.684 244.12 386.473 244.12 373.879C244.12 361.284 233.91 351.074 221.315 351.074Z" fill="#4F27AA"/>
<path d="M692.11 285.817C684.607 285.817 678.524 279.734 678.524 272.231C678.524 264.727 684.607 258.645 692.11 258.645C699.613 258.645 705.696 264.727 705.696 272.231C705.696 279.734 699.613 285.817 692.11 285.817Z" fill="#E1E4E5"/>
<path d="M668.077 219.178C663.2 219.178 659.246 215.224 659.246 210.347C659.246 205.469 663.2 201.516 668.077 201.516C672.954 201.516 676.908 205.469 676.908 210.347C676.908 215.224 672.954 219.178 668.077 219.178Z" fill="#E1E4E5"/>
<path d="M216.122 282.874C217.892 289.479 213.972 296.268 207.367 298.038C200.762 299.808 193.973 295.888 192.204 289.283C190.434 282.679 194.353 275.89 200.958 274.12C207.563 272.35 214.352 276.27 216.122 282.874Z" fill="#E1E4E5"/>
<path d="M216.308 178.5C204.863 195.446 213.362 221.327 213.362 221.327C213.362 221.327 240.413 219.717 251.846 202.76C263.291 185.815 254.803 159.945 254.803 159.945C254.803 159.945 227.752 161.555 216.308 178.5Z" fill="url(#paint0_linear_1235_30908)"/>
<path d="M348.795 170.591C348.795 150.104 332.187 133.496 311.701 133.496C291.214 133.496 274.606 150.104 274.606 170.591C274.606 191.077 291.214 207.685 311.701 207.685C332.187 207.685 348.795 191.077 348.795 170.591Z" fill="#4F27AA"/>
<path fill-rule="evenodd" clip-rule="evenodd" d="M328.56 186.153V188.634C328.56 190.003 327.463 191.114 326.112 191.114H296.739C295.388 191.114 294.291 190.003 294.291 188.634V186.114C294.291 178.608 302.756 173.731 311.426 173.731C320.096 173.731 328.56 178.61 328.56 186.114M317.569 151.941C318.376 152.748 319.016 153.707 319.453 154.761C319.89 155.816 320.115 156.946 320.114 158.088C320.114 159.229 319.889 160.36 319.453 161.414C319.016 162.469 318.375 163.427 317.568 164.234C316.761 165.041 315.802 165.681 314.748 166.118C313.693 166.555 312.563 166.78 311.421 166.779C310.28 166.779 309.149 166.554 308.095 166.118C307.04 165.681 306.082 165.04 305.275 164.233C303.645 162.603 302.729 160.392 302.73 158.086C302.73 155.781 303.646 153.57 305.276 151.94C306.906 150.31 309.117 149.394 311.423 149.395C313.728 149.395 315.939 150.311 317.569 151.941Z" fill="white"/>
<path d="M500.071 106.094C500.071 85.6078 483.463 69 462.977 69C442.49 69 425.882 85.6078 425.882 106.094C425.882 126.581 442.49 143.189 462.977 143.189C483.463 143.189 500.071 126.581 500.071 106.094Z" fill="#4F27AA"/>
<path fill-rule="evenodd" clip-rule="evenodd" d="M479.836 121.658V124.139C479.836 125.508 478.74 126.619 477.389 126.619H448.015C446.664 126.619 445.568 125.508 445.568 124.139V121.619C445.568 114.113 454.032 109.236 462.702 109.236C471.372 109.236 479.836 114.115 479.836 121.619M468.845 87.4445C469.652 88.2517 470.292 89.21 470.729 90.2645C471.166 91.3191 471.391 92.4494 471.391 93.5909C471.391 94.7324 471.166 95.8626 470.729 96.9172C470.292 97.9718 469.652 98.9299 468.845 99.737C468.037 100.544 467.079 101.184 466.025 101.621C464.97 102.058 463.84 102.283 462.698 102.283C461.557 102.283 460.426 102.058 459.372 101.621C458.317 101.184 457.359 100.544 456.552 99.7365C454.922 98.1064 454.006 95.8955 454.006 93.5902C454.006 91.2849 454.922 89.0741 456.552 87.444C458.183 85.814 460.394 84.8983 462.699 84.8984C465.004 84.8985 467.215 85.8144 468.845 87.4445Z" fill="white"/>
<path d="M625.548 157.692C625.548 137.205 608.94 120.598 588.453 120.598C567.967 120.598 551.359 137.205 551.359 157.692C551.359 178.179 567.967 194.787 588.453 194.787C608.94 194.787 625.548 178.179 625.548 157.692Z" fill="#4F27AA"/>
<path fill-rule="evenodd" clip-rule="evenodd" d="M605.314 173.253V175.734C605.314 177.103 604.217 178.214 602.866 178.214H573.492C572.141 178.214 571.045 177.103 571.045 175.734V173.214C571.045 165.708 579.509 160.832 588.179 160.832C596.849 160.832 605.314 165.71 605.314 173.214M594.322 139.04C595.921 140.677 596.81 142.877 596.796 145.165C596.783 147.453 595.868 149.643 594.251 151.26C592.633 152.878 590.443 153.793 588.156 153.806C585.868 153.82 583.668 152.931 582.031 151.332C580.432 149.696 579.543 147.495 579.557 145.208C579.57 142.92 580.485 140.73 582.102 139.112C583.72 137.495 585.91 136.58 588.197 136.567C590.485 136.553 592.686 137.442 594.322 139.04Z" fill="white"/>
<path fill-rule="evenodd" clip-rule="evenodd" d="M194.048 451.459H197.553C197.959 451.459 198.348 451.62 198.634 451.907C198.921 452.194 199.082 452.583 199.082 452.989V456.493C199.082 456.898 198.921 457.287 198.634 457.574C198.348 457.861 197.959 458.022 197.553 458.023H194.048C193.208 458.023 192.518 457.334 192.518 456.493V452.989C192.518 452.788 192.557 452.589 192.634 452.403C192.71 452.217 192.823 452.048 192.965 451.906C193.107 451.764 193.276 451.651 193.462 451.574C193.648 451.498 193.847 451.458 194.048 451.459ZM206.199 451.459H209.703C210.544 451.459 211.233 452.148 211.233 452.989V456.493C211.233 456.898 211.072 457.288 210.785 457.575C210.498 457.861 210.109 458.023 209.703 458.023H206.199C205.358 458.023 204.669 457.334 204.669 456.493V452.989C204.669 452.148 205.358 451.459 206.199 451.459ZM218.358 451.459H221.863C222.703 451.459 223.393 452.148 223.393 452.989V456.493C223.393 457.341 222.703 458.023 221.863 458.023H218.358C217.518 458.023 216.828 457.334 216.828 456.493V452.989C216.828 452.788 216.867 452.589 216.944 452.403C217.02 452.217 217.133 452.048 217.275 451.906C217.417 451.764 217.586 451.651 217.772 451.574C217.958 451.498 218.157 451.458 218.358 451.459ZM230.509 451.459H234.014C234.854 451.459 235.543 452.148 235.543 452.989V456.493C235.543 456.898 235.382 457.287 235.095 457.574C234.809 457.861 234.42 458.022 234.014 458.023H230.509C230.103 458.023 229.713 457.862 229.425 457.575C229.137 457.288 228.974 456.899 228.972 456.493V452.989C228.976 452.583 229.14 452.195 229.427 451.909C229.715 451.623 230.103 451.461 230.509 451.459ZM242.661 451.459H246.166C247.013 451.459 247.703 452.148 247.703 452.989V456.493C247.703 457.341 247.013 458.023 246.166 458.023H242.661C241.821 458.023 241.131 457.334 241.131 456.493V452.989C241.131 452.148 241.821 451.459 242.661 451.459ZM206.645 464.709H210.149C210.99 464.709 211.679 465.398 211.679 466.239V469.751C211.679 470.591 210.99 471.28 210.149 471.28H206.645C206.239 471.28 205.85 471.119 205.563 470.832C205.277 470.545 205.115 470.156 205.115 469.751V466.246C205.114 466.044 205.153 465.844 205.229 465.658C205.305 465.471 205.418 465.302 205.56 465.159C205.702 465.016 205.871 464.902 206.058 464.825C206.244 464.748 206.443 464.708 206.645 464.709ZM218.796 464.709H222.3C223.141 464.709 223.83 465.398 223.83 466.239V469.751C223.83 470.591 223.141 471.28 222.3 471.28H218.796C217.956 471.28 217.266 470.591 217.266 469.751V466.246C217.265 466.044 217.304 465.844 217.38 465.658C217.456 465.471 217.569 465.302 217.711 465.159C217.853 465.016 218.022 464.902 218.209 464.825C218.395 464.748 218.594 464.708 218.796 464.709ZM230.948 464.709H234.452C235.3 464.709 235.989 465.398 235.989 466.239V469.751C235.989 470.591 235.3 471.28 234.452 471.28H230.948C230.107 471.28 229.418 470.591 229.418 469.751V466.246C229.418 465.398 230.107 464.709 230.948 464.709ZM218.358 437.223H221.863C222.703 437.223 223.393 437.913 223.393 438.753V442.258C223.393 443.105 222.703 443.788 221.863 443.788H218.358C217.518 443.788 216.828 443.098 216.828 442.258V438.753C216.828 438.552 216.867 438.352 216.944 438.167C217.02 437.981 217.133 437.812 217.275 437.67C217.417 437.528 217.586 437.415 217.772 437.338C217.958 437.262 218.157 437.222 218.358 437.223ZM206.211 437.223H209.716C210.556 437.223 211.245 437.913 211.245 438.753V442.258C211.245 443.105 210.556 443.788 209.716 443.788H206.211C205.371 443.788 204.681 443.098 204.681 442.258V438.753C204.681 438.552 204.72 438.352 204.797 438.167C204.873 437.981 204.986 437.812 205.128 437.67C205.27 437.528 205.439 437.415 205.625 437.338C205.811 437.262 206.01 437.222 206.211 437.223ZM230.509 437.223H234.014C234.854 437.223 235.543 437.913 235.543 438.753V442.258C235.543 443.105 234.854 443.788 234.014 443.788H230.509C229.662 443.788 228.972 443.098 228.972 442.258V438.753C228.979 437.913 229.669 437.223 230.509 437.223ZM651.395 456.15H654.899C655.747 456.15 656.429 456.839 656.429 457.679V461.184C656.429 461.589 656.268 461.979 655.981 462.266C655.694 462.552 655.305 462.714 654.899 462.714H651.395C650.554 462.714 649.865 462.024 649.865 461.184V457.679C649.865 457.478 649.904 457.279 649.981 457.093C650.057 456.907 650.17 456.738 650.312 456.596C650.454 456.454 650.623 456.342 650.809 456.265C650.995 456.188 651.194 456.149 651.395 456.15ZM663.545 456.15H667.05C667.89 456.15 668.58 456.839 668.58 457.679V461.184C668.58 462.032 667.89 462.714 667.05 462.714H663.545C662.705 462.714 662.016 462.024 662.016 461.184V457.679C662.016 456.839 662.705 456.15 663.545 456.15ZM675.705 456.15H679.209C680.05 456.15 680.739 456.839 680.739 457.679V461.184C680.739 461.589 680.578 461.979 680.291 462.266C680.004 462.552 679.615 462.714 679.209 462.714H675.705C674.864 462.714 674.175 462.024 674.175 461.184V457.679C674.175 457.478 674.214 457.279 674.291 457.093C674.367 456.907 674.48 456.738 674.622 456.596C674.764 456.454 674.933 456.342 675.119 456.265C675.305 456.188 675.504 456.149 675.705 456.15ZM687.855 456.15H691.36C692.2 456.15 692.89 456.839 692.89 457.679V461.184C692.89 462.032 692.2 462.714 691.36 462.714H687.855C687.008 462.714 686.318 462.024 686.318 461.184V457.679C686.323 457.273 686.486 456.886 686.774 456.6C687.061 456.314 687.45 456.152 687.855 456.15ZM700.008 456.15H703.512C704.36 456.15 705.049 456.839 705.049 457.679V461.184C705.049 462.032 704.36 462.714 703.512 462.714H700.008C699.167 462.714 698.478 462.024 698.478 461.184V457.679C698.478 456.839 699.167 456.15 700.008 456.15ZM663.991 469.4H667.496C668.336 469.4 669.025 470.089 669.025 470.93V474.441C669.025 475.282 668.336 475.971 667.496 475.971H663.991C663.144 475.971 662.461 475.282 662.461 474.441V470.937C662.46 470.735 662.499 470.535 662.575 470.349C662.651 470.162 662.764 469.993 662.906 469.85C663.048 469.707 663.217 469.594 663.404 469.516C663.59 469.439 663.789 469.399 663.991 469.4ZM676.142 469.4H679.647C680.487 469.4 681.177 470.089 681.177 470.93V474.441C681.177 475.282 680.487 475.971 679.647 475.971H676.142C675.302 475.971 674.612 475.282 674.612 474.441V470.937C674.611 470.735 674.65 470.535 674.726 470.349C674.802 470.162 674.915 469.993 675.057 469.85C675.199 469.707 675.368 469.594 675.555 469.516C675.741 469.439 675.94 469.399 676.142 469.4ZM688.294 469.4H691.799C692.646 469.4 693.336 470.089 693.336 470.93V474.441C693.336 475.282 692.646 475.971 691.799 475.971H688.294C687.454 475.971 686.764 475.282 686.764 474.441V470.937C686.764 470.089 687.454 469.4 688.294 469.4ZM675.705 441.915H679.209C680.05 441.915 680.739 442.604 680.739 443.445V446.949C680.739 447.354 680.578 447.744 680.291 448.031C680.004 448.317 679.615 448.479 679.209 448.479H675.705C674.864 448.479 674.175 447.79 674.175 446.949V443.445C674.174 443.244 674.214 443.044 674.29 442.859C674.367 442.673 674.48 442.504 674.622 442.362C674.764 442.219 674.933 442.107 675.119 442.03C675.305 441.953 675.504 441.914 675.705 441.915ZM663.557 441.915H667.062C667.902 441.915 668.592 442.604 668.592 443.445V446.949C668.592 447.797 667.902 448.479 667.062 448.479H663.557C662.717 448.479 662.027 447.79 662.027 446.949V443.445C662.027 443.244 662.066 443.045 662.143 442.859C662.219 442.673 662.332 442.504 662.474 442.362C662.616 442.22 662.785 442.107 662.971 442.03C663.157 441.954 663.356 441.914 663.557 441.915ZM687.855 441.915H691.36C692.2 441.915 692.89 442.604 692.89 443.445V446.949C692.89 447.797 692.2 448.479 691.36 448.479H687.855C687.449 448.479 687.059 448.318 686.771 448.031C686.483 447.744 686.32 447.355 686.318 446.949V443.445C686.322 443.039 686.486 442.651 686.773 442.365C687.061 442.079 687.449 441.917 687.855 441.915Z" fill="#E1E4E5"/>
</g>
<defs>
<linearGradient id="paint0_linear_1235_30908" x1="178.895" y1="244.507" x2="317.679" y2="111.034" gradientUnits="userSpaceOnUse">
<stop stop-color="white"/>
<stop offset="1" stop-color="#EEEEEE"/>
</linearGradient>
<clipPath id="clip0_1235_30908">
<rect width="900" height="600" fill="white"/>
</clipPath>
</defs>
</svg>
