<svg width="900" height="600" viewBox="0 0 900 600" fill="none" xmlns="http://www.w3.org/2000/svg">
<g clip-path="url(#clip0_1235_30931)">
<path d="M717.245 355.561C721.03 425.309 584.667 567.133 416.591 514.639C338.42 490.222 345.042 449.697 285.601 396.287C250.171 364.454 199.265 340.382 185.106 294.111C172.875 254.171 180.376 211.243 201.581 183.32C249.271 120.524 345.547 77.5238 440.41 176.464C535.273 275.405 707.463 175.676 717.245 355.561Z" fill="url(#paint0_linear_1235_30931)"/>
<path d="M679.865 201.816C666.601 225.487 637.552 228.74 591.014 224.241C556.014 220.852 524.097 218.229 489.095 199.145C464.595 185.797 445.202 167.738 431.048 150.198C415.709 131.197 394.301 109.511 404.796 87.966C419.219 58.371 502.625 33.445 583.616 74.206C672.585 118.997 692.84 178.68 679.865 201.816Z" fill="url(#paint1_linear_1235_30931)"/>
<path d="M342.267 491.319C311.367 448.091 279.722 402.146 238.291 379.516C195.557 356.163 187.676 370.556 184.718 393.438C181.759 416.32 194.944 470.536 253.264 501.384C311.6 532.24 371.18 531.777 342.267 491.319Z" fill="url(#paint2_linear_1235_30931)"/>
<path d="M711.026 247.203C697.144 250.492 682.462 238.719 682.462 238.719C682.462 238.719 690.297 221.62 704.183 218.342C718.065 215.054 732.743 226.816 732.743 226.816C732.743 226.816 724.908 243.915 711.026 247.203Z" fill="url(#paint3_linear_1235_30931)"/>
<path d="M335.011 102.413C349.626 112.479 371.953 105.443 371.953 105.443C371.953 105.443 370.571 82.0875 355.946 72.0305C341.332 61.9645 319.014 68.9905 319.014 68.9905C319.014 68.9905 320.397 92.3455 335.011 102.413Z" fill="url(#paint4_linear_1235_30931)"/>
<path d="M584.039 160.167C599.883 176.292 629.51 172.893 629.51 172.893C629.51 172.893 633.431 143.347 617.572 127.232C601.728 111.106 572.116 114.496 572.116 114.496C572.116 114.496 568.195 144.041 584.039 160.167Z" fill="url(#paint5_linear_1235_30931)"/>
<path d="M652.209 368.443C645.706 368.443 640.435 373.485 640.435 379.706C640.435 385.926 645.706 390.969 652.209 390.969C658.712 390.969 663.983 385.926 663.983 379.706C663.983 373.485 658.712 368.443 652.209 368.443Z" fill="#4F27AA"/>
<path d="M532.928 497.454C525.577 497.454 519.618 503.642 519.618 511.276C519.618 518.909 525.577 525.098 532.928 525.098C540.279 525.098 546.238 518.909 546.238 511.276C546.238 503.642 540.279 497.454 532.928 497.454Z" fill="#4F27AA"/>
<path d="M250.851 420.663C242.086 420.663 234.981 427.539 234.981 436.021C234.981 444.503 242.086 451.379 250.851 451.379C259.616 451.379 266.721 444.503 266.721 436.021C266.721 427.539 259.616 420.663 250.851 420.663Z" fill="#4F27AA"/>
<path d="M229.35 253.77C226.24 253.77 223.719 251.249 223.719 248.139C223.719 245.029 226.24 242.508 229.35 242.508C232.46 242.508 234.981 245.029 234.981 248.139C234.981 251.249 232.46 253.77 229.35 253.77Z" fill="#4F27AA"/>
<path d="M674.734 166.74C668.796 166.74 663.983 161.927 663.983 155.989C663.983 150.052 668.796 145.238 674.734 145.238C680.672 145.238 685.485 150.052 685.485 155.989C685.485 161.927 680.672 166.74 674.734 166.74Z" fill="#4F27AA"/>
<path d="M638.898 488.236C632.96 488.236 628.147 483.652 628.147 477.997C628.147 472.342 632.96 467.758 638.898 467.758C644.836 467.758 649.649 472.342 649.649 477.997C649.649 483.652 644.836 488.236 638.898 488.236Z" fill="#E1E4E5"/>
<path d="M185.835 354.111C179.615 354.111 174.572 349.527 174.572 343.872C174.572 338.217 179.615 333.633 185.835 333.633C192.055 333.633 197.098 338.217 197.098 343.872C197.098 349.527 192.055 354.111 185.835 354.111Z" fill="#E1E4E5"/>
<path d="M299.997 491.309C298.018 491.309 296.413 489.704 296.413 487.725C296.413 485.745 298.018 484.141 299.997 484.141C301.976 484.141 303.581 485.745 303.581 487.725C303.581 489.704 301.976 491.309 299.997 491.309Z" fill="#E1E4E5"/>
<path d="M573.883 130.906C571.056 130.906 568.764 128.614 568.764 125.787C568.764 122.96 571.056 120.668 573.883 120.668C576.71 120.668 579.002 122.96 579.002 125.787C579.002 128.614 576.71 130.906 573.883 130.906Z" fill="#E1E4E5"/>
<path d="M251.853 304.669C252.568 307.337 250.984 310.081 248.315 310.796C245.647 311.511 242.903 309.927 242.188 307.258C241.473 304.589 243.057 301.846 245.726 301.131C248.395 300.416 251.138 302 251.853 304.669Z" fill="#E1E4E5"/>
<path d="M252.899 199.505C249.223 199.505 246.244 196.526 246.244 192.85C246.244 189.175 249.223 186.195 252.899 186.195C256.574 186.195 259.554 189.175 259.554 192.85C259.554 196.526 256.574 199.505 252.899 199.505Z" fill="#E1E4E5"/>
<path d="M659.888 315.202C657.061 315.202 654.769 313.368 654.769 311.107C654.769 308.845 657.061 307.012 659.888 307.012C662.715 307.012 665.007 308.845 665.007 311.107C665.007 313.368 662.715 315.202 659.888 315.202Z" fill="#E1E4E5"/>
<path d="M454.622 86.8781C456.11 92.432 452.814 98.1407 447.26 99.6289C441.706 101.117 435.998 97.8211 434.509 92.2672C433.021 86.7133 436.317 81.0045 441.871 79.5164C447.425 78.0282 453.134 81.3241 454.622 86.8781Z" fill="#E1E4E5"/>
<path d="M733.538 309.06H733.672C734.465 320.297 742.821 320.47 742.821 320.47C742.821 320.47 733.606 320.649 733.606 333.633C733.606 320.649 724.392 320.47 724.392 320.47C724.392 320.47 732.745 320.297 733.538 309.06ZM293.735 131.93H293.966C295.332 151.594 309.724 151.897 309.724 151.897C309.724 151.897 293.854 152.212 293.854 174.933C293.854 152.212 277.984 151.897 277.984 151.897C277.984 151.897 292.37 151.594 293.735 131.93Z" fill="#E1E4E5"/>
<path fill-rule="evenodd" clip-rule="evenodd" d="M609.383 300.301C609.383 389.475 537.108 461.751 447.934 461.751C358.76 461.751 286.485 389.475 286.485 300.301C286.485 211.128 358.76 138.852 447.934 138.852C537.108 138.852 609.383 211.128 609.383 300.301Z" fill="#4F27AA" stroke="#4F27AA" stroke-width="26.897" stroke-linecap="round" stroke-linejoin="round"/>
<path d="M396.057 358.684C396.057 358.684 415.862 370.919 448.892 370.919C481.921 370.919 501.727 358.684 501.727 358.684" stroke="white" stroke-width="22.048" stroke-linecap="round" stroke-linejoin="round"/>
<path d="M408.686 284.268C408.686 298.57 396.819 310.183 382.156 310.183C367.493 310.183 355.626 298.57 355.626 284.268C355.626 269.966 367.493 258.352 382.156 258.352C396.819 258.352 408.686 269.966 408.686 284.268ZM541.287 284.268C541.287 298.57 529.42 310.183 514.757 310.183C500.094 310.183 488.227 298.57 488.227 284.268C488.227 269.966 500.094 258.352 514.757 258.352C529.42 258.352 541.287 269.966 541.287 284.268Z" fill="white" stroke="white"/>
<path fill-rule="evenodd" clip-rule="evenodd" d="M392.455 191.337C392.455 224.745 365.377 251.822 331.97 251.822C298.562 251.822 271.485 224.745 271.485 191.337C271.485 157.929 298.562 130.852 331.97 130.852C365.377 130.852 392.455 157.929 392.455 191.337Z" fill="white" stroke="#4F27AA" stroke-width="13.917" stroke-linecap="round" stroke-linejoin="round"/>
<path fill-rule="evenodd" clip-rule="evenodd" d="M346.974 161.852C359.851 161.852 368.485 173.772 368.485 184.872C368.485 207.404 332.638 225.852 331.985 225.852C331.332 225.852 295.485 207.404 295.485 184.872C295.485 173.772 304.119 161.852 316.996 161.852C324.356 161.852 329.191 165.472 331.985 168.696C334.779 165.472 339.613 161.852 346.974 161.852Z" fill="#4F27AA"/>
</g>
<defs>
<linearGradient id="paint0_linear_1235_30931" x1="554.263" y1="773.641" x2="299.189" y2="-377.164" gradientUnits="userSpaceOnUse">
<stop stop-color="white"/>
<stop offset="1" stop-color="#EEEEEE"/>
</linearGradient>
<linearGradient id="paint1_linear_1235_30931" x1="590.512" y1="355.23" x2="472.29" y2="-176.009" gradientUnits="userSpaceOnUse">
<stop stop-color="white"/>
<stop offset="1" stop-color="#EEEEEE"/>
</linearGradient>
<linearGradient id="paint2_linear_1235_30931" x1="307.764" y1="633.229" x2="206.384" y2="164.397" gradientUnits="userSpaceOnUse">
<stop stop-color="white"/>
<stop offset="1" stop-color="#EEEEEE"/>
</linearGradient>
<linearGradient id="paint3_linear_1235_30931" x1="658.75" y1="255.38" x2="780.272" y2="197.969" gradientUnits="userSpaceOnUse">
<stop stop-color="white"/>
<stop offset="1" stop-color="#EEEEEE"/>
</linearGradient>
<linearGradient id="paint4_linear_1235_30931" x1="391.941" y1="135.442" x2="276.899" y2="14.1326" gradientUnits="userSpaceOnUse">
<stop stop-color="white"/>
<stop offset="1" stop-color="#EEEEEE"/>
</linearGradient>
<linearGradient id="paint5_linear_1235_30931" x1="647.253" y1="215.249" x2="532.711" y2="35.6952" gradientUnits="userSpaceOnUse">
<stop stop-color="white"/>
<stop offset="1" stop-color="#EEEEEE"/>
</linearGradient>
<clipPath id="clip0_1235_30931">
<rect width="900" height="600" fill="white"/>
</clipPath>
</defs>
</svg>
