<svg width="309" height="207" viewBox="0 0 309 207" fill="none" xmlns="http://www.w3.org/2000/svg">
<path d="M280.803 144.249H257.422C251.693 144.249 246.893 140.35 246.893 135.411C246.893 132.941 248.131 130.732 249.99 129.172C251.848 127.613 254.48 126.573 257.422 126.573H260.828C263.771 126.573 266.403 125.533 268.261 123.973C270.119 122.414 271.358 120.204 271.358 117.735C271.358 112.926 266.713 108.896 260.828 108.896H189.414C187.548 108.896 186.349 106.603 186.349 104.738C186.349 100.059 181.859 96.2893 176.285 96.2893H149.709C149.042 96.2812 148.405 96.0106 147.936 95.5362C147.468 95.0618 147.205 94.4217 147.205 93.7548C147.205 93.0879 147.468 92.4479 147.936 91.9734C148.405 91.499 149.042 91.2284 149.709 91.2203H251.538C256.028 91.2203 260.209 89.6606 263.151 87.191C266.093 84.7215 267.951 81.2123 267.951 77.4431C267.951 69.7747 260.519 63.6661 251.538 63.6661H198.945C190.692 63.6661 182.524 57.2975 174.272 57.2975H144.908C140.601 57.2975 137.109 53.8058 137.109 49.4989C137.109 45.192 140.601 41.7007 144.908 41.7007H210.66C213.756 41.7007 216.698 40.6607 218.711 38.9711C220.724 37.2814 221.963 34.9421 221.963 32.2125C221.963 27.0137 216.853 22.7246 210.66 22.7246H59.0685C55.972 22.7246 53.0298 23.7642 51.0167 25.4539C49.0037 27.1435 47.765 29.4832 47.765 32.2125C47.765 37.4116 52.875 41.7007 59.0685 41.7007H62.9398C68.0495 41.7007 72.3851 45.2099 72.3851 49.6291C72.3851 51.8386 71.3012 53.788 69.5978 55.2179C67.8947 56.6475 65.572 57.5572 62.9398 57.5572H44.2036C40.9519 57.5572 37.8553 58.7271 35.6875 60.5466C33.5196 62.3664 32.1261 64.8356 32.1261 67.6951C32.1261 73.2839 37.5454 77.7032 44.0489 77.7032H63.0946C69.2882 77.7032 74.3982 81.9922 74.3982 87.191C74.3982 89.7904 73.1595 92.1301 71.1464 93.8198C69.1334 95.5094 66.3464 96.549 63.2494 96.549H46.2167C43.4297 96.549 40.9519 97.4588 39.094 99.0186C37.2358 100.578 36.1518 102.658 36.1518 104.997C36.1518 109.676 40.6423 113.446 46.2167 113.446H59.9977C67.8947 113.446 74.243 118.775 74.243 125.403C74.243 128.652 72.6947 131.772 70.0625 133.851C67.4303 136.061 63.8686 137.361 59.9977 137.361H40.7971C36.9262 137.361 33.3648 138.66 30.8874 140.87C28.2548 142.949 26.7065 145.939 26.7065 149.188C26.7065 155.687 33.0553 161.016 40.7971 161.016H100.085C106.633 161.016 113.065 164.655 119.612 164.655H130.41C134.538 164.655 137.883 168.001 137.883 172.128C137.883 176.256 134.538 179.602 130.41 179.602H104.128C100.721 179.602 97.7793 180.771 95.6114 182.591C93.4436 184.411 92.0501 187.01 92.0501 189.739C92.0501 195.329 97.4697 199.877 104.128 199.877H265.164C268.571 199.877 271.513 198.708 273.681 196.888C275.848 195.068 277.242 192.469 277.242 189.739C277.242 184.151 271.822 179.602 265.164 179.602H260.364C255.409 179.602 251.538 176.222 251.538 172.193C251.538 170.114 252.467 168.294 254.17 166.994C255.719 165.695 258.041 164.785 260.519 164.785H280.803C284.21 164.785 287.152 163.615 289.319 161.795C291.487 159.976 292.881 157.376 292.881 154.647C292.881 148.798 287.462 144.249 280.803 144.249Z" fill="url(#paint0_linear_1334_6798)" fill-opacity="0.3"/>
<g clip-path="url(#clip0_1334_6798)">
<path d="M89.9205 124.841L193.146 124.841C196.938 124.841 200.011 121.759 200.011 117.956V115.609C200.011 111.806 196.938 108.724 193.146 108.724L89.9205 108.724C86.1293 108.724 83.056 111.806 83.056 115.609V117.956C83.056 121.759 86.1293 124.841 89.9205 124.841Z" fill="white" stroke="#E1E4E5" stroke-width="5"/>
<path d="M89.9205 149.086H193.146C196.938 149.086 200.011 146.004 200.011 142.202V139.854C200.011 136.052 196.938 132.969 193.146 132.969H89.9205C86.1293 132.969 83.056 136.052 83.056 139.854V142.202C83.056 146.004 86.1293 149.086 89.9205 149.086Z" fill="white" stroke="#E1E4E5" stroke-width="5"/>
<path d="M89.9205 173.331H193.146C196.938 173.331 200.011 170.249 200.011 166.447V164.099C200.011 160.297 196.938 157.215 193.146 157.215H89.9205C86.1293 157.215 83.056 160.297 83.056 164.099V166.447C83.056 170.249 86.1293 173.331 89.9205 173.331Z" fill="white" stroke="#E1E4E5" stroke-width="5"/>
<path d="M71.9523 188.818L211.329 188.818C214.362 188.818 216.82 186.353 216.82 183.311L216.82 49.8624C216.82 46.8207 214.362 44.3549 211.329 44.3549L71.9523 44.3549C68.9194 44.3549 66.4607 46.8207 66.4607 49.8624L66.4607 183.311C66.4607 186.353 68.9194 188.818 71.9523 188.818Z" stroke="#E1E4E5" stroke-width="11"/>
<path d="M170.271 100.667H193.146C196.937 100.667 200.011 97.5848 200.011 93.7827V91.4348C200.011 87.6327 196.937 84.5504 193.146 84.5504H170.271C166.48 84.5504 163.407 87.6327 163.407 91.4348V93.7827C163.407 97.5848 166.48 100.667 170.271 100.667Z" fill="white" stroke="#E1E4E5" stroke-width="11"/>
<path d="M89.9201 100.667L148.507 100.667C152.298 100.667 155.371 97.5848 155.371 93.7827V91.4348C155.371 87.6327 152.298 84.5504 148.507 84.5504H89.9201C86.1289 84.5504 83.0555 87.6327 83.0555 91.4348V93.7827C83.0555 97.5848 86.1289 100.667 89.9201 100.667Z" fill="white" stroke="#E1E4E5" stroke-width="5"/>
<path d="M83.2624 68.4627C83.2624 72.8822 86.8348 76.4648 91.2415 76.4648C95.6483 76.4648 99.2207 72.8822 99.2207 68.4627C99.2207 64.0432 95.6483 60.4605 91.2415 60.4605C86.8348 60.4605 83.2624 64.0432 83.2624 68.4627Z" fill="white" stroke="#E1E4E5" stroke-width="5"/>
<path d="M210.728 16.9922H166.47C144.34 16.9922 133.275 28.0887 133.275 50.282V122.409C133.275 125.461 135.765 127.958 138.808 127.958H210.728C232.858 127.958 243.922 116.861 243.922 94.6681V50.282C243.922 28.0887 232.858 16.9922 210.728 16.9922Z" fill="#4F27AA"/>
<path d="M193.634 49.3948L164.921 78.1902C163.814 79.3 162.763 81.4637 162.542 83.0172L160.993 94.0028C160.44 97.9975 163.206 100.772 167.189 100.217L178.143 98.6635C179.692 98.4415 181.85 97.3872 182.956 96.2778L211.669 67.482C216.593 62.5442 218.972 56.7738 211.669 49.4502C204.366 42.0709 198.613 44.4013 193.634 49.3948V49.3948Z" stroke="white" stroke-width="5" stroke-miterlimit="10" stroke-linecap="round" stroke-linejoin="round"/>
<path d="M189.539 53.5C191.973 62.2107 198.778 69.0906 207.519 71.5318" stroke="white" stroke-width="5" stroke-miterlimit="10" stroke-linecap="round" stroke-linejoin="round"/>
<path d="M256.505 123.687C250.581 126.635 242.718 122.845 242.718 122.845C242.718 122.845 244.465 114.279 250.393 111.336C256.317 108.389 264.176 112.174 264.176 112.174C264.176 112.174 262.429 120.74 256.505 123.687Z" fill="url(#paint1_linear_1334_6798)"/>
<path d="M50.4256 41.3509C56.1554 44.7951 64.3757 41.6114 64.3757 41.6114C64.3757 41.6114 63.3011 32.8449 57.5678 29.4052C51.838 25.961 43.6211 29.1408 43.6211 29.1408C43.6211 29.1408 44.6961 37.907 50.4256 41.3509Z" fill="url(#paint2_linear_1334_6798)"/>
<path d="M258.473 59.0561C255.109 59.0561 252.381 61.7913 252.381 65.1653C252.381 68.5393 255.109 71.2744 258.473 71.2744C261.837 71.2744 264.564 68.5393 264.564 65.1653C264.564 61.7913 261.837 59.0561 258.473 59.0561Z" fill="#4F27AA"/>
<path d="M52.1702 65.0224C49.4005 65.0224 47.1553 67.2741 47.1553 70.0517C47.1553 72.8293 49.4005 75.0811 52.1702 75.0811C54.9398 75.0811 57.1851 72.8293 57.1851 70.0517C57.1851 67.2741 54.9398 65.0224 52.1702 65.0224Z" fill="#4F27AA"/>
<path d="M93.3335 35.5212C90.1794 35.5212 87.6225 32.957 87.6225 29.7938C87.6225 26.6307 90.1794 24.0664 93.3335 24.0664C96.4876 24.0664 99.0444 26.6307 99.0444 29.7938C99.0444 32.957 96.4876 35.5212 93.3335 35.5212Z" fill="#4F27AA"/>
<path d="M232.109 141.11C230.637 141.11 229.443 139.914 229.443 138.437C229.443 136.961 230.637 135.765 232.109 135.765C233.58 135.765 234.774 136.961 234.774 138.437C234.774 139.914 233.58 141.11 232.109 141.11Z" fill="#4F27AA"/>
<path d="M210.188 174.525C208.296 174.525 206.762 172.986 206.762 171.089C206.762 169.191 208.296 167.652 210.188 167.652C212.081 167.652 213.615 169.191 213.615 171.089C213.615 172.986 212.081 174.525 210.188 174.525Z" fill="#E1E4E5"/>
<path d="M57.4824 153.214C54.7488 153.214 52.5328 150.992 52.5328 148.25C52.5328 145.509 54.7488 143.286 57.4824 143.286C60.2161 143.286 62.4321 145.509 62.4321 148.25C62.4321 150.992 60.2161 153.214 57.4824 153.214Z" fill="#E1E4E5"/>
<path d="M234.695 190.234C232.615 190.234 230.929 188.543 230.929 186.456C230.929 184.37 232.615 182.679 234.695 182.679C236.776 182.679 238.462 184.37 238.462 186.456C238.462 188.543 236.776 190.234 234.695 190.234Z" fill="#E1E4E5"/>
<path d="M264.322 39.3797C262.009 39.3797 260.134 37.4993 260.134 35.1796C260.134 32.86 262.009 30.9795 264.322 30.9795C266.635 30.9795 268.51 32.86 268.51 35.1796C268.51 37.4993 266.635 39.3797 264.322 39.3797Z" fill="#E1E4E5"/>
<path d="M48.7112 95.9593C49.2488 97.9713 48.0582 100.039 46.052 100.579C44.0457 101.118 41.9836 99.9236 41.446 97.9116C40.9084 95.8996 42.099 93.8315 44.1053 93.2924C46.1115 92.7533 48.1736 93.9473 48.7112 95.9593Z" fill="#E1E4E5"/>
<path d="M117.392 23.931C116.527 23.931 115.827 23.2281 115.827 22.361C115.827 21.4939 116.527 20.791 117.392 20.791C118.257 20.791 118.958 21.4939 118.958 22.361C118.958 23.2281 118.257 23.931 117.392 23.931Z" fill="#E1E4E5"/>
<path d="M234.777 165.025C232.651 165.025 230.928 163.642 230.928 161.937C230.928 160.232 232.651 158.85 234.777 158.85C236.902 158.85 238.625 160.232 238.625 161.937C238.625 163.642 236.902 165.025 234.777 165.025Z" fill="#E1E4E5"/>
<path fill-rule="evenodd" clip-rule="evenodd" d="M47 45.2635V34.7365C47 31.195 48.8461 27.9211 51.8447 26.1393L61.5947 20.3496C63.0839 19.4657 64.776 19 66.4989 19C68.2218 19 69.9139 19.4657 71.4031 20.3496L81.1531 26.1393C84.1539 27.9211 86 31.195 86 34.7365V45.2635C86 48.805 84.1539 52.0789 81.1553 53.8607L71.4053 59.6504C69.9161 60.5343 68.224 61 66.5011 61C64.7782 61 63.0861 60.5343 61.5969 59.6504L51.8469 53.8607C48.8461 52.0789 47 48.805 47 45.2635Z" fill="#4F27AA" stroke="#4F27AA" stroke-width="21.417" stroke-linecap="round" stroke-linejoin="round"/>
<path d="M70.5188 57H64.4188L62.4688 26.5H68.5688L70.5188 57Z" fill="white"/>
</g>
<defs>
<linearGradient id="paint0_linear_1334_6798" x1="165.469" y1="299.199" x2="161.833" y2="-170.023" gradientUnits="userSpaceOnUse">
<stop stop-color="#FFA6A6"/>
<stop offset="1" stop-color="#EEEEEE"/>
</linearGradient>
<linearGradient id="paint1_linear_1334_6798" x1="233.756" y1="132.88" x2="282.726" y2="94.2561" gradientUnits="userSpaceOnUse">
<stop stop-color="white"/>
<stop offset="1" stop-color="#EEEEEE"/>
</linearGradient>
<linearGradient id="paint2_linear_1334_6798" x1="72.5984" y1="52.437" x2="26.3718" y2="9.6098" gradientUnits="userSpaceOnUse">
<stop stop-color="white"/>
<stop offset="1" stop-color="#EEEEEE"/>
</linearGradient>
<clipPath id="clip0_1334_6798">
<rect width="308.905" height="206.53" fill="white" transform="translate(0 0.469727)"/>
</clipPath>
</defs>
</svg>
