<svg width="900" height="600" viewBox="0 0 900 600" fill="none" xmlns="http://www.w3.org/2000/svg">
<g clip-path="url(#clip0_1235_31022)">
<path d="M723.819 442.301V148.803C723.819 114.946 696.373 87.5 662.516 87.5L235.149 87.5C201.292 87.5 173.846 114.946 173.846 148.803V442.301C173.846 476.158 201.292 503.604 235.149 503.604L662.516 503.604C696.373 503.604 723.819 476.158 723.819 442.301Z" fill="white" stroke="#E1E4E5" stroke-width="11"/>
<path d="M814.003 482.73H85.2571C79.6138 482.73 75.0391 487.305 75.0391 492.948V501.354C75.0391 506.998 79.6138 511.572 85.2571 511.572H814.003C819.646 511.572 824.221 506.998 824.221 501.354V492.948C824.221 487.305 819.646 482.73 814.003 482.73Z" fill="white" stroke="#E1E4E5" stroke-width="11"/>
<path d="M449.64 437.136C525.573 437.136 587.128 375.581 587.128 299.648C587.128 223.716 525.573 162.16 449.64 162.16C373.708 162.16 312.152 223.716 312.152 299.648C312.152 375.581 373.708 437.136 449.64 437.136Z" fill="#4F27AA"/>
<path d="M361.037 335.784L434.364 287.772L471.028 324.181M471.027 324.436L544.354 275.551" stroke="white" stroke-width="24" stroke-linecap="round" stroke-linejoin="round"/>
<path fill-rule="evenodd" clip-rule="evenodd" d="M221.813 147.196C219.428 147.221 217.148 148.186 215.47 149.882C213.792 151.577 212.851 153.867 212.851 156.252C212.851 158.638 213.792 160.927 215.47 162.623C217.148 164.319 219.428 165.284 221.813 165.309H312.38C313.577 165.321 314.765 165.096 315.875 164.647C316.985 164.197 317.995 163.532 318.846 162.69C319.697 161.848 320.373 160.845 320.834 159.74C321.295 158.635 321.532 157.45 321.532 156.252C321.532 155.055 321.295 153.869 320.834 152.764C320.373 151.659 319.697 150.657 318.846 149.814C317.995 148.972 316.985 148.307 315.875 147.858C314.765 147.408 313.577 147.183 312.38 147.196H221.813ZM221.813 183.423C220.616 183.41 219.428 183.635 218.318 184.085C217.208 184.534 216.198 185.199 215.347 186.041C214.496 186.884 213.821 187.886 213.359 188.991C212.898 190.096 212.661 191.282 212.661 192.479C212.661 193.677 212.898 194.862 213.359 195.967C213.821 197.072 214.496 198.075 215.347 198.917C216.198 199.759 217.208 200.424 218.318 200.874C219.428 201.323 220.616 201.548 221.813 201.536H258.039C260.425 201.511 262.704 200.546 264.382 198.85C266.06 197.154 267.001 194.865 267.001 192.479C267.001 190.094 266.06 187.804 264.382 186.109C262.704 184.413 260.425 183.448 258.039 183.423H221.813ZM676.835 147.196C679.221 147.221 681.5 148.186 683.178 149.882C684.856 151.577 685.797 153.867 685.797 156.252C685.797 158.638 684.856 160.927 683.178 162.623C681.5 164.319 679.221 165.284 676.835 165.309H586.268C585.071 165.321 583.883 165.096 582.773 164.647C581.663 164.197 580.653 163.532 579.802 162.69C578.951 161.848 578.276 160.845 577.814 159.74C577.353 158.635 577.116 157.45 577.116 156.252C577.116 155.055 577.353 153.869 577.814 152.764C578.276 151.659 578.951 150.657 579.802 149.814C580.653 148.972 581.663 148.307 582.773 147.858C583.883 147.408 585.071 147.183 586.268 147.196H676.835ZM676.835 183.423C678.032 183.41 679.22 183.635 680.33 184.085C681.44 184.534 682.45 185.199 683.301 186.041C684.152 186.884 684.828 187.886 685.289 188.991C685.75 190.096 685.987 191.282 685.987 192.479C685.987 193.677 685.75 194.862 685.289 195.967C684.828 197.072 684.152 198.075 683.301 198.917C682.45 199.759 681.44 200.424 680.33 200.874C679.22 201.323 678.032 201.548 676.835 201.536H640.608C638.223 201.511 635.943 200.546 634.265 198.85C632.587 197.154 631.646 194.865 631.646 192.479C631.646 190.094 632.587 187.804 634.265 186.109C635.943 184.413 638.223 183.448 640.608 183.423H676.835Z" fill="#4F27AA"/>
<path d="M357.354 148.93C374.411 157.392 397.052 146.511 397.052 146.511C397.052 146.511 392.02 121.917 374.953 113.467C357.895 105.005 335.264 115.874 335.264 115.874C335.264 115.874 340.296 140.468 357.354 148.93Z" fill="url(#paint0_linear_1235_31022)"/>
<path d="M266.746 310.718C273.543 310.718 279.053 316.228 279.053 323.025C279.053 329.822 273.543 335.332 266.746 335.332C259.949 335.332 254.439 329.822 254.439 323.025C254.439 316.228 259.949 310.718 266.746 310.718Z" fill="#4F27AA"/>
<path d="M650.656 297.896C661.114 297.896 669.593 306.374 669.593 316.833C669.593 327.291 661.114 335.77 650.656 335.77C640.197 335.77 631.719 327.291 631.719 316.833C631.719 306.374 640.197 297.896 650.656 297.896Z" fill="#4F27AA"/>
<path d="M507.216 147.215C514.01 147.215 519.517 141.708 519.517 134.914C519.517 128.121 514.01 122.613 507.216 122.613C500.422 122.613 494.915 128.121 494.915 134.914C494.915 141.708 500.422 147.215 507.216 147.215Z" fill="#4F27AA"/>
<path d="M669.413 427.79C679.015 427.79 686.8 420.005 686.8 410.403C686.8 400.8 679.015 393.016 669.413 393.016C659.81 393.016 652.026 400.8 652.026 410.403C652.026 420.005 659.81 427.79 669.413 427.79Z" fill="#E1E4E5"/>
<path d="M327.212 451.993C335.529 451.993 342.271 445.251 342.271 436.934C342.271 428.617 335.529 421.875 327.212 421.875C318.895 421.875 312.153 428.617 312.153 436.934C312.153 445.251 318.895 451.993 327.212 451.993Z" fill="#E1E4E5"/>
<path d="M245.399 290.487C250.441 290.487 254.529 287.121 254.529 282.968C254.529 278.816 250.441 275.449 245.399 275.449C240.357 275.449 236.269 278.816 236.269 282.968C236.269 287.121 240.357 290.487 245.399 290.487Z" fill="#E1E4E5"/>
<path d="M224.512 428.34C224.512 434.272 229.321 439.082 235.254 439.082C241.187 439.082 245.996 434.272 245.996 428.34C245.996 422.407 241.187 417.598 235.254 417.598C229.321 417.598 224.512 422.407 224.512 428.34Z" fill="#E1E4E5"/>
</g>
<defs>
<linearGradient id="paint0_linear_1235_31022" x1="422.858" y1="175.324" x2="282.164" y2="64.0336" gradientUnits="userSpaceOnUse">
<stop stop-color="white"/>
<stop offset="1" stop-color="#EEEEEE"/>
</linearGradient>
<clipPath id="clip0_1235_31022">
<rect width="900" height="600" fill="white"/>
</clipPath>
</defs>
</svg>
