<svg width="900" height="600" viewBox="0 0 900 600" fill="none" xmlns="http://www.w3.org/2000/svg">
<g clip-path="url(#clip0_1235_31037)">
<mask id="mask0_1235_31037" style="mask-type:alpha" maskUnits="userSpaceOnUse" x="291" y="81" width="413" height="206">
<path fill-rule="evenodd" clip-rule="evenodd" d="M291.753 198.505V139.752C291.753 107.304 318.058 81 350.506 81H644.268C676.716 81 703.02 107.304 703.02 139.752V286.633" fill="white"/>
</mask>
<g mask="url(#mask0_1235_31037)">
<path fill-rule="evenodd" clip-rule="evenodd" d="M291.753 198.505V139.752C291.753 107.304 318.058 81 350.506 81H644.268C676.716 81 703.02 107.304 703.02 139.752V286.633" fill="white"/>
<path d="M302.753 198.505V139.752H280.753V198.505H302.753ZM302.753 139.752C302.753 113.379 324.133 92 350.506 92V70C311.983 70 280.753 101.229 280.753 139.752H302.753ZM350.506 92H644.268V70H350.506V92ZM644.268 92C670.641 92 692.02 113.379 692.02 139.752H714.02C714.02 101.229 682.791 70 644.268 70V92ZM692.02 139.752V286.633H714.02V139.752H692.02Z" fill="#E1E4E5"/>
<path d="M484.082 198.752L484.086 198.757C487.272 203.533 491.587 207.448 496.648 210.155C501.71 212.862 507.362 214.278 513.102 214.278H703.019C732.43 214.278 756.272 238.12 756.272 267.531V473.164C756.272 502.575 732.43 526.416 703.019 526.416H291.752C262.342 526.416 238.5 502.575 238.5 473.164V179.401C238.5 149.991 262.342 126.15 291.752 126.15H422.917L422.931 126.149C426.875 126.139 430.76 127.107 434.239 128.965C437.718 130.823 440.682 133.514 442.867 136.798H442.868L484.082 198.752Z" fill="white" stroke="#E1E4E5" stroke-width="11"/>
<path d="M400.848 286.316L361.936 324.074L343.031 305.768M466.772 281.438H582.405M467.952 340.316H657.921M657.921 458.074H466.772M657.921 399.195H467.952" stroke="#4F27AA" stroke-width="24" stroke-linecap="round" stroke-linejoin="round"/>
<path d="M219.015 71.67L161.915 93.142C148.756 98.079 138 113.695 138 127.819V213.133C138 226.682 146.926 244.48 157.796 252.632L207 289.491C223.135 301.662 249.682 301.662 265.816 289.491L315.02 252.632C325.891 244.48 334.816 226.682 334.816 213.133V127.819C334.816 113.695 324.06 98.079 310.901 93.142L253.801 71.67C244.075 68.11 228.513 68.11 219.015 71.67Z" fill="#4F27AA"/>
<path d="M236.26 227.864C208.479 227.864 185.959 205.343 185.959 177.563C185.959 149.782 208.479 127.262 236.26 127.262C264.04 127.262 286.561 149.782 286.561 177.563C286.561 205.343 264.04 227.864 236.26 227.864V227.864Z" stroke="white" stroke-width="11" stroke-miterlimit="10" stroke-linecap="round" stroke-linejoin="round"/>
<path fill-rule="evenodd" clip-rule="evenodd" d="M554.634 149.506H560.667C561.365 149.507 562.035 149.784 562.529 150.278C563.022 150.772 563.3 151.442 563.3 152.14V158.173C563.3 158.871 563.022 159.541 562.528 160.035C562.035 160.528 561.365 160.806 560.667 160.807H554.634C553.936 160.804 553.268 160.526 552.775 160.033C552.281 159.539 552.003 158.871 552 158.173V152.14C551.988 150.693 553.175 149.506 554.634 149.506ZM575.551 149.506H581.584C582.282 149.509 582.95 149.787 583.444 150.28C583.937 150.774 584.215 151.442 584.218 152.14V158.173C584.218 158.871 583.94 159.541 583.446 160.035C582.952 160.529 582.282 160.806 581.584 160.807H575.551C574.854 160.804 574.185 160.526 573.692 160.032C573.199 159.539 572.921 158.871 572.918 158.173V152.14C572.921 151.442 573.199 150.774 573.692 150.281C574.185 149.787 574.854 149.509 575.551 149.506ZM596.483 149.506H602.516C603.214 149.509 603.882 149.787 604.376 150.28C604.869 150.774 605.147 151.442 605.15 152.14V158.173C605.15 158.871 604.872 159.541 604.378 160.035C603.884 160.529 603.215 160.806 602.516 160.807H596.483C595.785 160.804 595.117 160.526 594.624 160.032C594.131 159.539 593.853 158.871 593.85 158.173V152.14C593.837 150.693 595.024 149.506 596.483 149.506ZM617.401 149.506H623.434C624.132 149.509 624.8 149.787 625.293 150.281C625.786 150.774 626.064 151.442 626.067 152.14V158.173C626.067 158.871 625.789 159.541 625.295 160.035C624.802 160.528 624.132 160.806 623.434 160.807H617.401C616.701 160.807 616.03 160.53 615.534 160.036C615.038 159.543 614.758 158.873 614.755 158.173V152.14C614.762 151.442 615.044 150.774 615.539 150.281C616.034 149.789 616.703 149.51 617.401 149.506ZM638.32 149.506H644.354C645.054 149.506 645.725 149.783 646.221 150.277C646.717 150.77 646.997 151.44 647 152.14V158.173C646.999 158.52 646.93 158.863 646.797 159.183C646.664 159.503 646.469 159.794 646.223 160.038C645.977 160.283 645.686 160.477 645.365 160.609C645.044 160.741 644.701 160.808 644.354 160.807H638.32C637.623 160.804 636.954 160.526 636.461 160.032C635.968 159.539 635.69 158.871 635.687 158.173V152.14C635.69 151.442 635.968 150.774 636.461 150.281C636.954 149.787 637.623 149.509 638.32 149.506ZM576.319 172.316H582.352C583.05 172.319 583.718 172.597 584.211 173.091C584.704 173.584 584.982 174.252 584.985 174.95V180.996C584.982 181.693 584.704 182.361 584.211 182.855C583.718 183.348 583.05 183.626 582.352 183.629H576.319C575.621 183.628 574.951 183.351 574.457 182.857C573.964 182.364 573.686 181.694 573.685 180.996V174.962C573.683 174.615 573.75 174.271 573.881 173.95C574.013 173.629 574.207 173.337 574.451 173.091C574.696 172.845 574.987 172.65 575.308 172.517C575.628 172.384 575.972 172.316 576.319 172.316ZM597.236 172.316H603.269C603.967 172.319 604.635 172.597 605.129 173.09C605.622 173.584 605.9 174.252 605.903 174.95V180.996C605.9 181.694 605.622 182.362 605.128 182.855C604.635 183.348 603.967 183.626 603.269 183.629H597.236C596.539 183.626 595.871 183.348 595.377 182.855C594.884 182.361 594.606 181.693 594.603 180.996V174.962C594.601 174.615 594.668 174.271 594.799 173.95C594.93 173.629 595.124 173.337 595.369 173.091C595.614 172.845 595.905 172.65 596.225 172.517C596.545 172.384 596.889 172.316 597.236 172.316ZM618.156 172.316H624.189C624.889 172.316 625.56 172.593 626.056 173.087C626.552 173.58 626.832 174.25 626.835 174.95V180.996C626.832 181.696 626.551 182.365 626.056 182.859C625.56 183.352 624.889 183.629 624.189 183.629H618.156C617.459 183.626 616.79 183.348 616.297 182.855C615.803 182.362 615.525 181.694 615.522 180.996V174.962C615.522 174.262 615.799 173.591 616.293 173.095C616.786 172.599 617.456 172.319 618.156 172.316ZM596.483 125H602.516C603.214 125.003 603.882 125.281 604.376 125.774C604.869 126.268 605.147 126.936 605.15 127.634V133.667C605.15 134.365 604.872 135.035 604.378 135.529C603.884 136.022 603.214 136.3 602.516 136.3H596.483C595.786 136.297 595.118 136.019 594.624 135.526C594.131 135.032 593.853 134.364 593.85 133.667V127.634C593.837 126.187 595.024 125 596.483 125ZM575.572 125H581.605C582.303 125.003 582.971 125.281 583.465 125.774C583.958 126.268 584.236 126.936 584.239 127.634V133.667C584.239 134.365 583.961 135.035 583.467 135.529C582.973 136.022 582.303 136.3 581.605 136.3H575.572C574.875 136.297 574.207 136.019 573.713 135.526C573.22 135.032 572.942 134.364 572.939 133.667V127.634C572.926 126.187 574.113 125 575.572 125ZM617.401 125H623.434C624.132 125.003 624.8 125.281 625.293 125.775C625.786 126.268 626.064 126.936 626.067 127.634V133.667C626.067 134.365 625.789 135.035 625.295 135.528C624.802 136.022 624.132 136.299 623.434 136.3H617.401C616.702 136.3 616.031 136.023 615.535 135.53C615.039 135.036 614.759 134.367 614.755 133.667V127.634C614.762 126.936 615.044 126.268 615.539 125.775C616.034 125.283 616.703 125.004 617.401 125Z" fill="#E1E4E5"/>
</g>
</g>
<defs>
<clipPath id="clip0_1235_31037">
<rect width="900" height="600" fill="white"/>
</clipPath>
</defs>
</svg>
