<svg width="900" height="600" viewBox="0 0 900 600" fill="none" xmlns="http://www.w3.org/2000/svg">
<g clip-path="url(#clip0_1235_31080)">
<path d="M633.37 453.216V283.467C633.363 281.361 632.847 279.288 631.866 277.424C630.884 275.56 629.466 273.961 627.733 272.764C626 271.567 624.003 270.806 621.913 270.548C619.822 270.289 617.7 270.54 615.728 271.279L550.431 295.727C547.938 296.661 545.791 298.335 544.277 300.525C542.762 302.714 541.954 305.314 541.96 307.976V453.216" stroke="#E1E4E5" stroke-width="11" stroke-linecap="round" stroke-linejoin="round"/>
<path d="M484.83 293.246H507.682C513.993 293.246 519.108 298.361 519.108 304.672V327.524H473.403V304.672C473.403 298.361 478.519 293.246 484.83 293.246Z" stroke="#E1E4E5" stroke-width="11" stroke-linecap="round" stroke-linejoin="round"/>
<path d="M496.256 270.395V293.248M450.551 453.216V338.954C450.551 332.643 455.666 327.527 461.977 327.527H530.535C536.845 327.527 541.961 332.643 541.961 338.954V453.216M479.122 396.083H513.401M479.122 396.083H513.401M479.122 361.806H513.401M572.43 331.914V412.589M602.902 331.914V412.589" stroke="#E1E4E5" stroke-width="11" stroke-linecap="round" stroke-linejoin="round"/>
<path d="M277.921 290.711H298.235C303.844 290.711 308.391 295.258 308.391 300.868V321.181H267.765V300.868C267.765 295.258 272.312 290.711 277.921 290.711V290.711Z" stroke="#E1E4E5" stroke-width="11" stroke-linecap="round" stroke-linejoin="round"/>
<path d="M288.077 270.395V290.708M247.45 453.217V331.336C247.45 325.727 251.998 321.18 257.607 321.18H318.547C324.156 321.18 328.704 325.727 328.704 331.336V361.806M359.174 361.805V290.708C359.175 289.067 359.573 287.451 360.335 285.998C361.096 284.544 362.199 283.297 363.547 282.363C364.896 281.429 366.451 280.835 368.079 280.632C369.707 280.43 371.36 280.625 372.896 281.201L423.679 300.245C425.616 300.971 427.286 302.271 428.464 303.972C429.642 305.673 430.272 307.693 430.271 309.762V453.215" stroke="#E1E4E5" stroke-width="11" stroke-linecap="round" stroke-linejoin="round"/>
<path d="M298.233 453.215V371.962C298.233 366.353 302.781 361.805 308.39 361.805H369.33C374.94 361.805 379.487 366.353 379.487 371.962V453.215M323.625 419.701H354.095M323.625 392.277H354.095" stroke="#E1E4E5" stroke-width="11" stroke-linecap="round" stroke-linejoin="round"/>
<path fill-rule="evenodd" clip-rule="evenodd" d="M152.882 504.277C152.882 504.277 214.483 432.418 301.036 431.409C387.983 430.395 457.156 501.817 463.528 505.506L152.882 504.277Z" fill="white" stroke="#E1E4E5" stroke-width="11"/>
<path fill-rule="evenodd" clip-rule="evenodd" d="M364.04 504.277C364.04 504.277 425.64 432.418 512.194 431.409C599.14 430.395 668.314 501.817 674.686 505.506L364.04 504.277Z" fill="white" stroke="#E1E4E5" stroke-width="11"/>
<path fill-rule="evenodd" clip-rule="evenodd" d="M490.938 504.533C490.938 504.533 537.843 447.439 603.749 446.637C669.953 445.832 722.624 502.578 727.476 505.509L490.938 504.533Z" fill="white" stroke="#E1E4E5" stroke-width="11"/>
<path d="M276.982 503.326V475.055" stroke="#E1E4E5" stroke-width="11"/>
<path d="M294.652 503.322V483.297" stroke="#E1E4E5" stroke-width="11"/>
<path d="M260.492 503.322V483.297" stroke="#E1E4E5" stroke-width="11"/>
<path d="M441.441 504.337V476.066" stroke="#E1E4E5" stroke-width="11"/>
<path d="M459.111 504.338V484.312" stroke="#E1E4E5" stroke-width="11"/>
<path d="M424.951 504.338V484.312" stroke="#E1E4E5" stroke-width="11"/>
<path d="M645.493 506.368V478.098" stroke="#E1E4E5" stroke-width="11"/>
<path d="M663.163 506.369V486.344" stroke="#E1E4E5" stroke-width="11"/>
<path d="M629.003 506.369V486.344" stroke="#E1E4E5" stroke-width="11"/>
<path d="M453.825 206.322C484.91 206.322 510.109 181.123 510.109 150.038C510.109 118.953 484.91 93.7539 453.825 93.7539C422.74 93.7539 397.541 118.953 397.541 150.038C397.541 181.123 422.74 206.322 453.825 206.322Z" fill="#4F27AA"/>
<path d="M352.323 156.675C364.208 156.675 358.647 137.828 343.59 142.33C342.756 116.161 300.102 97.014 282.464 132.31C277.477 128.364 266.279 135.817 268.759 142.33C263.22 142.802 258.862 143.443 255.472 144.291C247.643 146.251 249.193 156.586 257.262 156.514L352.323 156.675V156.675ZM774.446 231.283C792.106 231.283 783.843 203.45 761.47 210.098C760.231 171.452 696.852 143.176 670.645 195.3C663.235 189.473 646.596 200.48 650.281 210.098C642.05 210.795 635.575 211.741 630.537 212.995C618.905 215.889 621.208 231.152 633.198 231.045L774.446 231.283V231.283ZM121.249 176.871H185.216C190.935 176.871 193.399 169.41 188.719 166.1C188.653 166.053 188.587 166.006 188.521 165.96C181.857 161.345 173.112 161.765 173.112 161.765C173.112 161.765 171.864 136.796 148.335 136.796C127.063 136.796 118.58 157.834 115.52 169.424C114.526 173.19 117.382 176.871 121.249 176.871V176.871ZM565.899 167.331H629.866C635.585 167.331 638.049 159.869 633.369 156.56C633.303 156.512 633.237 156.465 633.171 156.419C626.507 151.805 617.762 152.224 617.762 152.224C617.762 152.224 616.514 127.255 592.985 127.255C571.712 127.255 563.229 148.293 560.17 159.884C559.176 163.649 562.032 167.331 565.899 167.331V167.331ZM404.913 234.597H352.667C347.996 234.597 345.983 228.598 349.806 225.938C349.859 225.899 349.913 225.862 349.968 225.825C355.41 222.115 362.553 222.452 362.553 222.452C362.553 222.452 363.572 202.379 382.79 202.379C400.165 202.379 407.093 219.292 409.592 228.61C410.404 231.637 408.071 234.597 404.913 234.597V234.597ZM581.963 242.415H496.152C489.205 242.415 486.208 233.622 491.895 229.72L492.136 229.556C500.232 224.116 510.857 224.61 510.857 224.61C510.857 224.61 512.375 195.184 540.962 195.184C555.095 195.184 566.518 218.8 566.518 218.8C566.518 218.8 585.744 218.8 588.926 233.637C589.888 238.133 586.663 242.415 581.963 242.415ZM169.357 239.97H303.747C316.362 239.97 315.783 229.578 311.663 225.957C307.439 222.245 299.094 223.751 299.094 223.751C299.094 223.751 296.61 216.76 288.432 213.357C281.199 210.347 273.621 211.78 273.621 211.78C273.621 211.78 273.621 206.982 268.989 203.009C264.357 199.036 258.182 199.422 258.182 199.422C258.182 199.422 253.937 172.968 225.568 172.968C197.2 172.968 193.919 197.877 193.919 197.877C193.919 197.877 187.551 197.877 182.919 202.125C178.287 206.373 177.709 211.2 177.709 211.2C177.709 211.2 162.219 209.112 157.638 222.481C154.908 230.449 160.517 239.97 169.357 239.97V239.97Z" stroke="#E1E4E5" stroke-width="11" stroke-linecap="round" stroke-linejoin="round"/>
</g>
<defs>
<clipPath id="clip0_1235_31080">
<rect width="900" height="600" fill="white"/>
</clipPath>
</defs>
</svg>
