<svg width="900" height="600" viewBox="0 0 900 600" fill="none" xmlns="http://www.w3.org/2000/svg">
<g clip-path="url(#clip0_1235_31144)">
<path d="M469.153 543.365H444.038C443.239 543.365 442.591 537.911 442.591 531.186V398.694C442.591 391.969 443.239 386.516 444.038 386.516H469.153C469.952 386.516 470.6 391.969 470.6 398.694V531.186C470.6 537.911 469.952 543.365 469.153 543.365Z" fill="white" stroke="#E1E4E5" stroke-width="11"/>
<path d="M706.757 443.196H206.953C191.057 443.196 178.167 430.341 178.167 414.49V102.186C178.167 86.3355 191.057 73.4805 206.953 73.4805H706.757C722.652 73.4805 735.542 86.3355 735.542 102.186V414.49C735.542 430.341 722.652 443.196 706.757 443.196ZM518.804 554.569H395.737C391.823 554.569 388.649 553.205 388.649 551.524V518.401C388.649 516.72 391.823 515.356 395.737 515.356H518.804C522.718 515.356 525.892 516.72 525.892 518.401V551.524C525.892 553.205 522.718 554.569 518.804 554.569Z" fill="white" stroke="#E1E4E5" stroke-width="11"/>
<path d="M674.691 179.66H381.245M674.691 140.836H381.245M674.691 262.731H381.245M674.691 223.906H381.245M674.691 345.801H381.245M674.691 306.977H381.245" stroke="#E1E4E5" stroke-width="11" stroke-linecap="round" stroke-linejoin="round"/>
<path d="M291.536 45H203.357C169.584 45 142.206 72.3782 142.206 106.151V168.466C142.206 202.239 169.584 229.617 203.357 229.617H291.536C325.309 229.617 352.687 202.239 352.687 168.466V106.151C352.687 72.3782 325.309 45 291.536 45Z" fill="#4F27AA"/>
<path d="M247.945 209.105L268.625 229.785L247.945 250.465L227.265 229.785L247.945 209.105Z" fill="#4F27AA"/>
<path d="M195.075 139.001C209.95 139.001 222.009 126.942 222.009 112.067C222.009 97.1916 209.95 85.1328 195.075 85.1328C180.2 85.1328 168.141 97.1916 168.141 112.067C168.141 126.942 180.2 139.001 195.075 139.001Z" fill="white"/>
<path d="M320.766 108.324H237.97C235.766 108.324 233.98 110.111 233.98 112.314C233.98 114.518 235.766 116.304 237.97 116.304H320.766C322.97 116.304 324.756 114.518 324.756 112.314C324.756 110.111 322.97 108.324 320.766 108.324Z" fill="white"/>
<path d="M320.766 86.0273H237.97C235.766 86.0273 233.98 87.8137 233.98 90.0173C233.98 92.221 235.766 94.0073 237.97 94.0073H320.766C322.97 94.0073 324.756 92.221 324.756 90.0173C324.756 87.8137 322.97 86.0273 320.766 86.0273Z" fill="white"/>
<path d="M320.766 152.832H172.132C169.928 152.832 168.142 154.618 168.142 156.822C168.142 159.026 169.928 160.812 172.132 160.812H320.766C322.97 160.812 324.756 159.026 324.756 156.822C324.756 154.618 322.97 152.832 320.766 152.832Z" fill="white"/>
<path d="M320.765 130.27H237.969C235.765 130.27 233.979 132.056 233.979 134.26C233.979 136.463 235.765 138.25 237.969 138.25H320.765C322.969 138.25 324.755 136.463 324.755 134.26C324.755 132.056 322.969 130.27 320.765 130.27Z" fill="white"/>
<path d="M320.766 174.777H172.132C169.928 174.777 168.142 176.564 168.142 178.767C168.142 180.971 169.928 182.757 172.132 182.757H320.766C322.97 182.757 324.756 180.971 324.756 178.767C324.756 176.564 322.97 174.777 320.766 174.777Z" fill="white"/>
<path d="M467.113 236.441H339.799C306.026 236.441 278.648 263.82 278.648 297.592V394.233C278.648 428.006 306.026 455.384 339.799 455.384H467.113C500.886 455.384 528.264 428.006 528.264 394.233V297.592C528.264 263.82 500.886 236.441 467.113 236.441Z" fill="#4F27AA"/>
<path d="M404.048 431.059L428.573 455.584L404.048 480.11L379.523 455.584L404.048 431.059Z" fill="#4F27AA"/>
<path d="M341.348 347.921C358.989 347.921 373.289 333.621 373.289 315.98C373.289 298.34 358.989 284.039 341.348 284.039C323.707 284.039 309.407 298.34 309.407 315.98C309.407 333.621 323.707 347.921 341.348 347.921Z" fill="white"/>
<path d="M490.408 311.539H392.218C389.605 311.539 387.486 313.658 387.486 316.271C387.486 318.884 389.605 321.003 392.218 321.003H490.408C493.021 321.003 495.14 318.884 495.14 316.271C495.14 313.658 493.021 311.539 490.408 311.539Z" fill="white"/>
<path d="M490.408 285.098H392.218C389.605 285.098 387.486 287.216 387.486 289.83C387.486 292.443 389.605 294.562 392.218 294.562H490.408C493.021 294.562 495.14 292.443 495.14 289.83C495.14 287.216 493.021 285.098 490.408 285.098Z" fill="white"/>
<path d="M490.408 364.324H314.139C311.526 364.324 309.407 366.443 309.407 369.056C309.407 371.67 311.526 373.788 314.139 373.788H490.408C493.021 373.788 495.14 371.67 495.14 369.056C495.14 366.443 493.021 364.324 490.408 364.324Z" fill="white"/>
<path d="M490.408 337.566H392.218C389.605 337.566 387.486 339.685 387.486 342.298C387.486 344.912 389.605 347.03 392.218 347.03H490.408C493.021 347.03 495.14 344.912 495.14 342.298C495.14 339.685 493.021 337.566 490.408 337.566Z" fill="white"/>
<path d="M490.408 390.352H314.139C311.526 390.352 309.407 392.47 309.407 395.084C309.407 397.697 311.526 399.816 314.139 399.816H490.408C493.021 399.816 495.14 397.697 495.14 395.084C495.14 392.47 493.021 390.352 490.408 390.352Z" fill="white"/>
<path fill-rule="evenodd" clip-rule="evenodd" d="M699.28 494.453L674.702 415.561C672.111 407.238 680.59 399.78 688.458 403.468L761.756 437.851C770.442 441.924 768.981 454.767 759.6 456.757L729.424 463.173L718.229 494.807C715.005 503.89 702.151 503.64 699.28 494.453Z" fill="white" stroke="#E1E4E5" stroke-width="11" stroke-linecap="round" stroke-linejoin="round"/>
<path d="M757 53.4609H578.938C567.892 53.4609 558.938 62.4152 558.938 73.4609V298.77C558.938 309.816 567.892 318.77 578.938 318.77H757C768.046 318.77 777 309.816 777 298.77V73.4609C777 62.4152 768.046 53.4609 757 53.4609Z" fill="white" stroke="#E1E4E5" stroke-width="11" stroke-linecap="round" stroke-linejoin="round"/>
<mask id="mask0_1235_31144" style="mask-type:alpha" maskUnits="userSpaceOnUse" x="558" y="53" width="219" height="266">
<path d="M564.438 58.9609H771.5V313.27H564.438V58.9609Z" fill="white" stroke="white" stroke-width="11"/>
</mask>
<g mask="url(#mask0_1235_31144)">
<path d="M730.716 246.484H605.676C601.318 246.484 597.785 250.017 597.785 254.375C597.785 258.733 601.318 262.266 605.676 262.266H730.716C735.074 262.266 738.607 258.733 738.607 254.375C738.607 250.017 735.074 246.484 730.716 246.484Z" fill="#E1E4E5"/>
<path d="M729.502 213.707H606.89C601.861 213.707 597.785 217.783 597.785 222.812C597.785 227.841 601.861 231.917 606.89 231.917H729.502C734.531 231.917 738.607 227.841 738.607 222.812C738.607 217.783 734.531 213.707 729.502 213.707Z" fill="#E1E4E5"/>
<path d="M729.502 276.836H606.89C601.861 276.836 597.785 280.912 597.785 285.941C597.785 290.969 601.861 295.046 606.89 295.046H729.502C734.531 295.046 738.607 290.969 738.607 285.941C738.607 280.912 734.531 276.836 729.502 276.836Z" fill="#E1E4E5"/>
<path d="M623.886 71.6719H586.253C582.565 71.6719 579.576 74.6613 579.576 78.3489C579.576 82.0365 582.565 85.0259 586.253 85.0259H623.886C627.574 85.0259 630.563 82.0365 630.563 78.3489C630.563 74.6613 627.574 71.6719 623.886 71.6719Z" fill="#E1E4E5"/>
<path fill-rule="evenodd" clip-rule="evenodd" d="M668.114 99.5938C693.285 99.5938 713.689 119.999 713.689 145.169C713.689 170.34 693.285 190.744 668.114 190.744C642.944 190.744 622.539 170.34 622.539 145.169C622.539 119.999 642.944 99.5938 668.114 99.5938ZM668.423 124.127C656.631 124.127 647.071 133.686 647.071 145.478C647.071 157.271 656.631 166.83 668.423 166.83C680.216 166.83 689.775 157.271 689.775 145.478C689.775 133.686 680.216 124.127 668.423 124.127Z" fill="#4F27AA"/>
<path d="M598.907 190.695C591.366 192.482 583.391 186.087 583.391 186.087C583.391 186.087 587.647 176.799 595.19 175.018C602.731 173.232 610.703 179.621 610.703 179.621C610.703 179.621 606.448 188.909 598.907 190.695Z" fill="url(#paint0_linear_1235_31144)"/>
<path d="M746.78 95.1278C739.767 102.266 726.653 100.761 726.653 100.761C726.653 100.761 724.918 87.6828 731.937 80.5498C738.95 73.4118 752.057 74.9128 752.057 74.9128C752.057 74.9128 753.793 87.9908 746.78 95.1278Z" fill="url(#paint1_linear_1235_31144)"/>
<path d="M739.986 156.422C732.875 156.422 727.111 150.658 727.111 143.547C727.111 136.436 732.875 130.672 739.986 130.672C747.097 130.672 752.861 136.436 752.861 143.547C752.861 150.658 747.097 156.422 739.986 156.422Z" fill="#4F27AA"/>
<path d="M603.145 102.742C599.759 102.742 597.014 99.9975 597.014 96.6115C597.014 93.2254 599.759 90.4805 603.145 90.4805C606.531 90.4805 609.276 93.2254 609.276 96.6115C609.276 99.9975 606.531 102.742 603.145 102.742Z" fill="#E1E4E5"/>
<path d="M741.703 192.31C738.317 192.31 735.572 190.114 735.572 187.405C735.572 184.696 738.317 182.5 741.703 182.5C745.089 182.5 747.834 184.696 747.834 187.405C747.834 190.114 745.089 192.31 741.703 192.31Z" fill="#E1E4E5"/>
<path d="M708.449 352.789H708.609C709.559 366.246 719.566 366.453 719.566 366.453C719.566 366.453 708.531 366.668 708.531 382.217C708.531 366.668 697.496 366.453 697.496 366.453C697.496 366.453 707.499 366.246 708.449 352.789ZM142.031 223.75H142.307C143.943 247.299 161.178 247.662 161.178 247.662C161.178 247.662 142.172 248.039 142.172 275.249C142.172 248.039 123.167 247.662 123.167 247.662C123.167 247.662 140.395 247.299 142.031 223.75Z" fill="#E1E4E5"/>
</g>
</g>
<defs>
<linearGradient id="paint0_linear_1235_31144" x1="570.511" y1="195.137" x2="636.521" y2="163.952" gradientUnits="userSpaceOnUse">
<stop stop-color="white"/>
<stop offset="1" stop-color="#EEEEEE"/>
</linearGradient>
<linearGradient id="paint1_linear_1235_31144" x1="718.8" y1="119.509" x2="769.499" y2="40.0328" gradientUnits="userSpaceOnUse">
<stop stop-color="white"/>
<stop offset="1" stop-color="#EEEEEE"/>
</linearGradient>
<clipPath id="clip0_1235_31144">
<rect width="900" height="600" fill="white"/>
</clipPath>
</defs>
</svg>
