<svg width="900" height="600" viewBox="0 0 900 600" fill="none" xmlns="http://www.w3.org/2000/svg">
<g clip-path="url(#clip0_1235_31191)">
<path d="M693.759 354.023C697.349 420.172 568.024 554.677 408.621 504.892C334.485 481.735 340.764 443.301 284.391 392.647C250.79 362.457 202.51 339.628 189.082 295.744C177.482 257.866 184.596 217.153 204.707 190.672C249.935 131.116 341.244 90.3354 431.211 184.169C521.179 278.004 684.482 183.421 693.759 354.023Z" fill="url(#paint0_linear_1235_31191)"/>
<path d="M658.308 208.214C645.729 230.664 618.179 233.749 574.043 229.483C540.849 226.268 510.579 223.781 477.383 205.682C454.148 193.022 435.755 175.895 422.331 159.26C407.785 141.239 387.481 120.673 397.434 100.24C411.113 72.1718 490.215 48.5318 567.027 87.1898C651.404 129.669 670.613 186.272 658.308 208.214Z" fill="url(#paint1_linear_1235_31191)"/>
<path d="M338.133 482.779C308.827 441.781 278.815 398.207 239.523 376.745C198.994 354.597 191.519 368.247 188.714 389.949C185.908 411.65 198.413 463.068 253.723 492.323C309.048 521.587 365.554 521.149 338.133 482.779Z" fill="url(#paint2_linear_1235_31191)"/>
<path d="M728.627 242.981C713.291 246.614 697.072 233.609 697.072 233.609C697.072 233.609 705.727 214.72 721.068 211.098C736.403 207.465 752.618 220.459 752.618 220.459C752.618 220.459 743.962 239.348 728.627 242.981Z" fill="url(#paint3_linear_1235_31191)"/>
<path d="M313.239 83.033C329.384 94.153 354.049 86.38 354.049 86.38C354.049 86.38 352.522 60.579 336.366 49.47C320.221 38.349 295.567 46.112 295.567 46.112C295.567 46.112 297.094 71.912 313.239 83.032V83.033Z" fill="url(#paint4_linear_1235_31191)"/>
<path d="M629.894 110.552C642.098 122.973 664.919 120.355 664.919 120.355C664.919 120.355 667.939 97.5973 655.724 85.1833C643.52 72.7623 620.71 75.3733 620.71 75.3733C620.71 75.3733 617.69 98.1313 629.894 110.552Z" fill="url(#paint5_linear_1235_31191)"/>
<path d="M663.651 376.921C656.467 376.921 650.643 382.491 650.643 389.363C650.643 396.234 656.467 401.805 663.651 401.805C670.835 401.805 676.659 396.234 676.659 389.363C676.659 382.491 670.835 376.921 663.651 376.921Z" fill="#4F27AA"/>
<path d="M576.704 439.999C568.583 439.999 562 446.836 562 455.269C562 463.702 568.583 470.539 576.704 470.539C584.825 470.539 591.408 463.702 591.408 455.269C591.408 446.836 584.825 439.999 576.704 439.999Z" fill="#4F27AA"/>
<path d="M220.266 434.603C210.583 434.603 202.734 442.199 202.734 451.569C202.734 460.939 210.583 468.535 220.266 468.535C229.949 468.535 237.798 460.939 237.798 451.569C237.798 442.199 229.949 434.603 220.266 434.603Z" fill="#4F27AA"/>
<path d="M215.221 242.442C211.785 242.442 209 239.657 209 236.221C209 232.785 211.785 230 215.221 230C218.657 230 221.442 232.785 221.442 236.221C221.442 239.657 218.657 242.442 215.221 242.442Z" fill="#4F27AA"/>
<path d="M688.535 154.096C681.976 154.096 676.659 148.779 676.659 142.22C676.659 135.661 681.976 130.344 688.535 130.344C695.094 130.344 700.411 135.661 700.411 142.22C700.411 148.779 695.094 154.096 688.535 154.096Z" fill="#4F27AA"/>
<path d="M648.946 509.255C642.387 509.255 637.07 504.191 637.07 497.944C637.07 491.697 642.387 486.633 648.946 486.633C655.505 486.633 660.822 491.697 660.822 497.944C660.822 504.191 655.505 509.255 648.946 509.255Z" fill="#E1E4E5"/>
<path d="M148.442 361.083C141.571 361.083 136 356.019 136 349.772C136 343.525 141.571 338.461 148.442 338.461C155.314 338.461 160.884 343.525 160.884 349.772C160.884 356.019 155.314 361.083 148.442 361.083Z" fill="#E1E4E5"/>
<path d="M274.558 512.648C272.371 512.648 270.599 510.876 270.599 508.689C270.599 506.503 272.371 504.73 274.558 504.73C276.744 504.73 278.517 506.503 278.517 508.689C278.517 510.876 276.744 512.648 274.558 512.648Z" fill="#E1E4E5"/>
<path d="M666.655 241.31C663.532 241.31 661 238.778 661 235.655C661 232.532 663.532 230 666.655 230C669.778 230 672.31 232.532 672.31 235.655C672.31 238.778 669.778 241.31 666.655 241.31Z" fill="#E1E4E5"/>
<path d="M221.372 306.469C222.162 309.417 220.413 312.447 217.465 313.237C214.517 314.027 211.487 312.278 210.697 309.33C209.907 306.382 211.656 303.352 214.604 302.562C217.552 301.772 220.582 303.521 221.372 306.469Z" fill="#E1E4E5"/>
<path d="M260.352 237.704C256.292 237.704 253 234.412 253 230.352C253 226.292 256.292 223 260.352 223C264.412 223 267.704 226.292 267.704 230.352C267.704 234.412 264.412 237.704 260.352 237.704Z" fill="#E1E4E5"/>
<path d="M672.134 318.103C669.011 318.103 666.479 316.077 666.479 313.579C666.479 311.08 669.011 309.055 672.134 309.055C675.257 309.055 677.789 311.08 677.789 313.579C677.789 316.077 675.257 318.103 672.134 318.103Z" fill="#E1E4E5"/>
<path d="M445.375 65.871C447.019 72.007 443.378 78.3139 437.242 79.9581C431.106 81.6022 424.799 77.9608 423.155 71.8249C421.511 65.689 425.152 59.382 431.288 57.7379C437.424 56.0938 443.731 59.7351 445.375 65.871Z" fill="#E1E4E5"/>
<path d="M753.496 311.318H753.644C754.52 323.732 763.751 323.923 763.751 323.923C763.751 323.923 753.572 324.121 753.572 338.464C753.572 324.121 743.392 323.923 743.392 323.923C743.392 323.923 752.62 323.732 753.496 311.318ZM267.641 115.641H267.895C269.404 137.364 285.303 137.698 285.303 137.698C285.303 137.698 267.771 138.046 267.771 163.146C267.771 138.046 250.239 137.698 250.239 137.698C250.239 137.698 266.132 137.364 267.641 115.641Z" fill="#E1E4E5"/>
<path d="M553.197 109H374.501C365.848 109 357.626 112.029 350.92 117.221L303.541 155.08C284.503 170.224 284.503 198.997 303.541 214.141L350.92 252C357.626 257.409 366.064 260.221 374.501 260.221H553.197C558.172 260.234 563.101 259.263 567.7 257.365C572.299 255.467 576.478 252.679 579.996 249.161C583.514 245.643 586.302 241.464 588.2 236.865C590.098 232.266 591.069 227.337 591.056 222.362V146.643C591.056 125.874 574.182 109 553.197 109ZM327.772 281.308H506.469C515.122 281.308 523.344 284.336 530.05 289.529L577.429 327.388C596.467 342.532 596.467 371.305 577.429 386.448L530.05 424.308C523.344 429.716 514.906 432.529 506.469 432.529H327.772C322.797 432.542 317.868 431.571 313.269 429.673C308.67 427.775 304.491 424.986 300.973 421.468C297.455 417.95 294.667 413.771 292.769 409.172C290.871 404.573 289.9 399.644 289.913 394.669V318.951C289.913 298.182 306.787 281.308 327.772 281.308Z" fill="#4F27AA"/>
<path d="M440.268 301.56V259.242M440.268 497.648V432.746M375.366 497.648H505.17" stroke="#4F27AA" stroke-width="26.513" stroke-linecap="round" stroke-linejoin="round"/>
<path d="M449.92 139.078L458.934 152.914C460.358 155.091 463.521 157.267 465.893 157.889L482.023 161.931C491.987 164.419 494.675 172.814 488.191 180.587L477.595 193.18C476.014 195.201 474.749 198.777 474.907 201.264L475.856 217.588C476.488 227.693 469.214 232.824 459.725 229.093L444.227 223.029C441.855 222.097 437.901 222.097 435.529 223.029L420.031 229.093C410.542 232.824 403.267 227.538 403.9 217.588L404.849 201.264C405.007 198.777 403.742 195.045 402.16 193.18L391.565 180.587C385.081 172.814 387.769 164.419 397.732 161.931L413.863 157.889C416.393 157.267 419.556 154.935 420.821 152.914L429.836 139.078C435.529 130.682 444.385 130.682 449.92 139.078ZM449.92 314.884L458.934 328.721C460.358 330.897 463.521 333.074 465.893 333.696L482.023 337.738C491.987 340.225 494.675 348.62 488.191 356.394L477.595 368.987C476.014 371.008 474.749 374.583 474.907 377.071L475.856 393.395C476.488 403.5 469.214 408.63 459.725 404.899L444.227 398.836C441.855 397.903 437.901 397.903 435.529 398.836L420.031 404.899C410.542 408.63 403.267 403.345 403.9 393.395L404.849 377.071C405.007 374.583 403.742 370.852 402.16 368.987L391.565 356.394C385.081 348.62 387.769 340.225 397.732 337.738L413.863 333.696C416.393 333.074 419.556 330.742 420.821 328.721L429.836 314.884C435.529 306.489 444.385 306.489 449.92 314.884Z" fill="white"/>
</g>
<defs>
<linearGradient id="paint0_linear_1235_31191" x1="539.188" y1="750.528" x2="297.278" y2="-340.889" gradientUnits="userSpaceOnUse">
<stop stop-color="white"/>
<stop offset="1" stop-color="#EEEEEE"/>
</linearGradient>
<linearGradient id="paint1_linear_1235_31191" x1="573.566" y1="353.711" x2="461.445" y2="-150.113" gradientUnits="userSpaceOnUse">
<stop stop-color="white"/>
<stop offset="1" stop-color="#EEEEEE"/>
</linearGradient>
<linearGradient id="paint2_linear_1235_31191" x1="305.41" y1="617.365" x2="209.262" y2="172.728" gradientUnits="userSpaceOnUse">
<stop stop-color="white"/>
<stop offset="1" stop-color="#EEEEEE"/>
</linearGradient>
<linearGradient id="paint3_linear_1235_31191" x1="670.878" y1="252.014" x2="805.124" y2="188.592" gradientUnits="userSpaceOnUse">
<stop stop-color="white"/>
<stop offset="1" stop-color="#EEEEEE"/>
</linearGradient>
<linearGradient id="paint4_linear_1235_31191" x1="376.13" y1="119.52" x2="249.041" y2="-14.4911" gradientUnits="userSpaceOnUse">
<stop stop-color="white"/>
<stop offset="1" stop-color="#EEEEEE"/>
</linearGradient>
<linearGradient id="paint5_linear_1235_31191" x1="678.586" y1="152.98" x2="590.357" y2="14.6743" gradientUnits="userSpaceOnUse">
<stop stop-color="white"/>
<stop offset="1" stop-color="#EEEEEE"/>
</linearGradient>
<clipPath id="clip0_1235_31191">
<rect width="900" height="600" fill="white"/>
</clipPath>
</defs>
</svg>
