<svg width="900" height="600" viewBox="0 0 900 600" fill="none" xmlns="http://www.w3.org/2000/svg">
<g clip-path="url(#clip0_1235_31232)">
<path d="M122.215 216.908C130.33 233.673 154.353 238.833 154.353 238.833C154.353 238.833 165.205 216.804 157.076 200.042C148.961 183.276 124.952 178.113 124.952 178.113C124.952 178.113 114.1 200.142 122.215 216.908Z" fill="url(#paint0_linear_1235_31232)"/>
<path d="M764.472 314.96C751.492 322.739 732.869 315.547 732.869 315.547C732.869 315.547 735.304 295.745 748.292 287.974C761.273 280.195 779.888 287.378 779.888 287.378C779.888 287.378 777.453 307.18 764.472 314.96Z" fill="url(#paint1_linear_1235_31232)"/>
<path d="M196.73 513.124C202.016 513.124 206.302 508.839 206.302 503.552C206.302 498.266 202.016 493.98 196.73 493.98C191.443 493.98 187.158 498.266 187.158 503.552C187.158 508.839 191.443 513.124 196.73 513.124Z" fill="#E1E4E5"/>
<path d="M758.322 418.894C765.958 418.894 772.148 412.704 772.148 405.068C772.148 397.432 765.958 391.242 758.322 391.242C750.686 391.242 744.496 397.432 744.496 405.068C744.496 412.704 750.686 418.894 758.322 418.894Z" fill="#E1E4E5"/>
<path d="M149.895 438.999C155.707 438.999 160.418 434.288 160.418 428.476C160.418 422.664 155.707 417.953 149.895 417.953C144.083 417.953 139.372 422.664 139.372 428.476C139.372 434.288 144.083 438.999 149.895 438.999Z" fill="#E1E4E5"/>
<path d="M193.907 118.652C200.368 118.652 205.606 113.414 205.606 106.953C205.606 100.492 200.368 95.2539 193.907 95.2539C187.446 95.2539 182.208 100.492 182.208 106.953C182.208 113.414 187.446 118.652 193.907 118.652Z" fill="#E1E4E5"/>
<path d="M744.495 180.842C744.495 186.644 749.199 191.348 755.001 191.348C760.803 191.348 765.507 186.644 765.507 180.842C765.507 175.04 760.803 170.336 755.001 170.336C749.199 170.336 744.495 175.04 744.495 180.842Z" fill="#E1E4E5"/>
<path d="M508.408 82.3318C513.584 82.3318 517.779 78.1363 517.779 72.9608C517.779 67.7854 513.584 63.5898 508.408 63.5898C503.233 63.5898 499.037 67.7854 499.037 72.9608C499.037 78.1363 503.233 82.3318 508.408 82.3318Z" fill="#E1E4E5"/>
<path d="M156.638 328.725C162.576 328.725 167.389 324.875 167.389 320.124C167.389 315.374 162.576 311.523 156.638 311.523C150.7 311.523 145.887 315.374 145.887 320.124C145.887 324.875 150.7 328.725 156.638 328.725Z" fill="#E1E4E5"/>
<path d="M727.275 79.7539H727.122C726.215 92.6039 716.659 92.8009 716.659 92.8009C716.659 92.8009 727.197 93.0069 727.197 107.854C727.197 93.0069 737.734 92.8009 737.734 92.8009C737.734 92.8009 728.182 92.6029 727.275 79.7539ZM709.074 479.861H708.927C708.057 492.672 698.882 492.869 698.882 492.869C698.882 492.869 708.999 493.074 708.999 507.878C708.999 493.074 719.116 492.869 719.116 492.869C719.116 492.869 709.945 492.672 709.074 479.861Z" fill="#E1E4E5"/>
<path fill-rule="evenodd" clip-rule="evenodd" d="M452.464 508.098C443.761 508.098 436.698 515.161 436.761 523.864C436.761 532.567 443.824 539.63 452.527 539.63C461.23 539.63 468.294 532.567 468.294 523.864C468.294 515.161 461.23 508.098 452.464 508.098Z" fill="#4F27AA"/>
<path d="M452.464 508.098C443.761 508.098 436.698 515.161 436.761 523.864C436.761 532.567 443.824 539.63 452.527 539.63C461.23 539.63 468.294 532.567 468.294 523.864C468.294 515.161 461.23 508.098 452.464 508.098" stroke="#4F27AA" stroke-width="31" stroke-linecap="round" stroke-linejoin="round"/>
<path d="M582.234 521.078C582.606 521.442 582.903 521.877 583.106 522.357C583.31 522.837 583.416 523.353 583.419 523.874C583.421 524.395 583.321 524.912 583.123 525.394C582.924 525.876 582.632 526.314 582.264 526.683C581.895 527.051 581.457 527.343 580.975 527.541C580.493 527.739 579.976 527.84 579.455 527.837C578.934 527.834 578.418 527.728 577.938 527.525C577.458 527.321 577.023 527.024 576.659 526.652C575.933 525.91 575.529 524.911 575.535 523.873C575.54 522.835 575.955 521.841 576.69 521.107C577.424 520.374 578.418 519.959 579.456 519.953C580.494 519.948 581.492 520.352 582.234 521.078Z" fill="#323232"/>
<path d="M582.234 521.078C582.606 521.442 582.903 521.877 583.106 522.357C583.31 522.837 583.416 523.353 583.419 523.874C583.421 524.395 583.321 524.912 583.123 525.394C582.924 525.876 582.632 526.314 582.264 526.683C581.895 527.051 581.457 527.343 580.975 527.541C580.493 527.739 579.976 527.84 579.455 527.837C578.934 527.834 578.418 527.728 577.938 527.525C577.458 527.321 577.023 527.024 576.659 526.652C575.933 525.91 575.529 524.911 575.535 523.873C575.54 522.835 575.955 521.841 576.69 521.107C577.424 520.374 578.418 519.959 579.456 519.953C580.494 519.948 581.492 520.352 582.234 521.078" stroke="#4F27AA" stroke-width="31" stroke-linecap="round" stroke-linejoin="round"/>
<path d="M329.973 521.075C330.352 521.438 330.655 521.873 330.864 522.355C331.073 522.836 331.183 523.355 331.189 523.88C331.194 524.405 331.095 524.925 330.897 525.411C330.699 525.897 330.405 526.339 330.034 526.71C329.663 527.081 329.221 527.375 328.735 527.573C328.249 527.771 327.728 527.87 327.204 527.864C326.679 527.858 326.16 527.748 325.679 527.539C325.197 527.33 324.762 527.027 324.399 526.648C323.686 525.904 323.294 524.91 323.305 523.879C323.317 522.849 323.731 521.863 324.46 521.135C325.189 520.406 326.174 519.992 327.204 519.981C328.235 519.97 329.229 520.362 329.973 521.075Z" fill="#323232"/>
<path d="M329.973 521.075C330.352 521.438 330.655 521.873 330.864 522.355C331.073 522.836 331.183 523.355 331.189 523.88C331.194 524.405 331.095 524.925 330.897 525.411C330.699 525.897 330.405 526.339 330.034 526.71C329.663 527.081 329.221 527.375 328.735 527.573C328.249 527.771 327.728 527.87 327.204 527.864C326.679 527.858 326.16 527.748 325.679 527.539C325.197 527.33 324.762 527.027 324.399 526.648C323.686 525.904 323.294 524.91 323.305 523.879C323.317 522.849 323.731 521.863 324.46 521.135C325.189 520.406 326.174 519.992 327.204 519.981C328.235 519.97 329.229 520.362 329.973 521.075" stroke="#4F27AA" stroke-width="31" stroke-linecap="round" stroke-linejoin="round"/>
<path fill-rule="evenodd" clip-rule="evenodd" d="M642.105 469.873H264.798C233.438 469.873 208.022 440.488 208.022 404.23V125.643C208.022 89.385 233.438 60 264.798 60H642.133C673.466 60 698.882 89.385 698.882 125.643V404.261C698.882 440.488 673.466 469.873 642.105 469.873Z" fill="#4F27AA"/>
<path d="M453.5 432C543.799 432 617 359.022 617 269C617 178.978 543.799 106 453.5 106C363.201 106 290 178.978 290 269C290 359.022 363.201 432 453.5 432Z" fill="white"/>
<path d="M385.812 235.202L351.899 269.115L385.812 303.028M521.465 235.202L555.378 269.115L521.465 303.028M470.595 229.605L436.682 308.623" stroke="#4F27AA" stroke-width="24" stroke-miterlimit="10" stroke-linecap="round" stroke-linejoin="round"/>
</g>
<defs>
<linearGradient id="paint0_linear_1235_31232" x1="157.033" y1="276.575" x2="114.974" y2="106.21" gradientUnits="userSpaceOnUse">
<stop stop-color="white"/>
<stop offset="1" stop-color="#EEEEEE"/>
</linearGradient>
<linearGradient id="paint1_linear_1235_31232" x1="714.241" y1="340.002" x2="818.687" y2="242.958" gradientUnits="userSpaceOnUse">
<stop stop-color="white"/>
<stop offset="1" stop-color="#EEEEEE"/>
</linearGradient>
<clipPath id="clip0_1235_31232">
<rect width="900" height="600" fill="white"/>
</clipPath>
</defs>
</svg>
