<svg width="900" height="600" viewBox="0 0 900 600" fill="none" xmlns="http://www.w3.org/2000/svg">
<g clip-path="url(#clip0_1235_31253)">
<path d="M754.5 484.238V115.803C754.5 81.9463 727.054 54.5 693.197 54.5L207.803 54.5C173.946 54.5 146.5 81.9463 146.5 115.803V484.238C146.5 518.095 173.946 545.541 207.803 545.541H693.197C727.054 545.541 754.5 518.095 754.5 484.238Z" stroke="#E1E4E5" stroke-width="11"/>
<path d="M229.453 356.035H342.698M484.297 356.117H612.301M484.297 439.417H612.301M229.452 392.433H417.519M484.252 392.434H671.681M484.252 475.736H671.681M229.452 440.967H342.697M229.452 477.367H417.519" stroke="#E1E4E5" stroke-width="11" stroke-linecap="round" stroke-linejoin="round"/>
<path d="M369.952 117.41H333.642C325.241 117.41 318.43 124.221 318.43 132.622V300.376C318.43 308.778 325.241 315.588 333.642 315.588H369.952C378.353 315.588 385.164 308.778 385.164 300.376V132.622C385.164 124.221 378.353 117.41 369.952 117.41Z" fill="#4F27AA"/>
<path d="M568.129 117.41H531.819C523.418 117.41 516.607 124.221 516.607 132.622V300.376C516.607 308.778 523.418 315.588 531.819 315.588H568.129C576.53 315.588 583.341 308.778 583.341 300.376V132.622C583.341 124.221 576.53 117.41 568.129 117.41Z" fill="#4F27AA"/>
<path d="M270.862 198.301H234.552C226.151 198.301 219.34 205.111 219.34 213.513V300.378C219.34 308.779 226.151 315.59 234.552 315.59H270.862C279.263 315.59 286.074 308.779 286.074 300.378V213.513C286.074 205.111 279.263 198.301 270.862 198.301Z" fill="#E1E4E5"/>
<path d="M469.041 198.301H432.731C424.33 198.301 417.519 205.111 417.519 213.513V300.378C417.519 308.779 424.33 315.59 432.731 315.59H469.041C477.442 315.59 484.253 308.779 484.253 300.378V213.513C484.253 205.111 477.442 198.301 469.041 198.301Z" fill="#E1E4E5"/>
<path d="M667.218 198.301H630.908C622.506 198.301 615.696 205.111 615.696 213.513V300.378C615.696 308.779 622.506 315.59 630.908 315.59H667.218C675.619 315.59 682.43 308.779 682.43 300.378V213.513C682.43 205.111 675.619 198.301 667.218 198.301Z" fill="#E1E4E5"/>
<path d="M410.286 447.441C403.55 447.441 398.089 441.98 398.089 435.244C398.089 428.508 403.55 423.047 410.286 423.047C417.022 423.047 422.483 428.508 422.483 435.244C422.483 441.98 417.022 447.441 410.286 447.441Z" fill="#E1E4E5"/>
<path d="M662.874 444.146C655.469 444.146 649.465 438.143 649.465 430.737C649.465 423.332 655.469 417.328 662.874 417.328C670.28 417.328 676.283 423.332 676.283 430.737C676.283 438.143 670.28 444.146 662.874 444.146Z" fill="#E1E4E5"/>
</g>
<defs>
<clipPath id="clip0_1235_31253">
<rect width="900" height="600" fill="white"/>
</clipPath>
</defs>
</svg>
