<svg width="900" height="600" viewBox="0 0 900 600" fill="none" xmlns="http://www.w3.org/2000/svg">
<g clip-path="url(#clip0_1235_31264)">
<path d="M731.008 132.449C711.95 141.903 686.656 129.747 686.656 129.747C686.656 129.747 692.278 102.27 711.345 92.8285C730.403 83.3755 755.687 95.5175 755.687 95.5175C755.687 95.5175 750.065 122.995 731.008 132.449Z" fill="url(#paint0_linear_1235_31264)"/>
<path d="M410.616 138.11C429.488 149.422 456.565 138.965 456.565 138.965C456.565 138.965 453.024 110.174 434.14 98.8757C415.268 87.5647 388.203 98.0077 388.203 98.0077C388.203 98.0077 391.743 126.799 410.616 138.11Z" fill="url(#paint1_linear_1235_31264)"/>
<path d="M580.824 527.13C573.657 527.13 567.847 521.32 567.847 514.153C567.847 506.986 573.657 501.176 580.824 501.176C587.991 501.176 593.801 506.986 593.801 514.153C593.801 521.32 587.991 527.13 580.824 527.13Z" fill="#E1E4E5"/>
<path d="M388.64 506C381.737 506 376.14 500.404 376.14 493.5C376.14 486.596 381.737 481 388.64 481C395.544 481 401.14 486.596 401.14 493.5C401.14 500.404 395.544 506 388.64 506Z" fill="#E1E4E5"/>
<path d="M706.886 520.026C699.006 520.026 692.619 513.639 692.619 505.759C692.619 497.88 699.006 491.492 706.886 491.492C714.765 491.492 721.153 497.88 721.153 505.759C721.153 513.639 714.765 520.026 706.886 520.026Z" fill="#E1E4E5"/>
<path d="M188.158 114.799C190.194 122.397 185.685 130.207 178.087 132.243C170.489 134.279 162.679 129.77 160.643 122.172C158.607 114.574 163.116 106.764 170.714 104.728C178.312 102.692 186.122 107.201 188.158 114.799Z" fill="#E1E4E5"/>
<path d="M286.582 112.899C283.308 112.899 280.654 110.245 280.654 106.971C280.654 103.697 283.308 101.043 286.582 101.043C289.856 101.043 292.51 103.697 292.51 106.971C292.51 110.245 289.856 112.899 286.582 112.899Z" fill="#E1E4E5"/>
<path d="M188.743 524.498C180.693 524.498 174.167 519.277 174.167 512.837C174.167 506.397 180.693 501.176 188.743 501.176C196.793 501.176 203.319 506.397 203.319 512.837C203.319 519.277 196.793 524.498 188.743 524.498Z" fill="#E1E4E5"/>
<path d="M744.089 238.138H500.041M744.089 162.965H501.548M744.089 385.931H500.041M744.089 461.723H500.041M744.089 310.758H501.548M442.482 327.795V266.299C442.482 189.428 411.734 158.68 334.863 158.68H242.619C165.748 158.68 135 189.428 135 266.299V358.543C135 435.414 165.748 466.162 242.619 466.162H304.115" stroke="#4F27AA" stroke-width="24" stroke-linecap="round" stroke-linejoin="round"/>
<path d="M216.944 350.7L253.535 303.194C258.762 296.43 268.448 295.2 275.212 300.427L303.347 322.566C310.112 327.793 319.797 326.563 325.024 319.952L360.539 274.137" stroke="#4F27AA" stroke-width="24" stroke-linecap="round" stroke-linejoin="round"/>
<path d="M403.742 371.15L408.047 379.913C410.199 384.218 415.58 388.216 420.346 389.138L426.188 390.06C443.714 392.982 447.865 405.896 435.259 418.656L429.878 424.037C426.342 427.727 424.343 434.799 425.419 439.719L426.188 442.947C430.954 464.164 419.731 472.312 401.282 461.242L397.285 458.936C392.519 456.169 384.832 456.169 380.066 458.936L376.068 461.242C357.466 472.465 346.243 464.164 351.162 442.947L351.931 439.719C353.007 434.799 351.009 427.727 347.473 424.037L342.092 418.656C329.485 405.896 333.636 392.982 351.162 390.06L357.005 389.138C361.617 388.369 367.151 384.218 369.304 379.913L373.608 371.15C381.91 354.393 395.44 354.393 403.742 371.15Z" fill="#4F27AA"/>
</g>
<defs>
<linearGradient id="paint0_linear_1235_31264" x1="657.825" y1="161.937" x2="815.012" y2="37.6015" gradientUnits="userSpaceOnUse">
<stop stop-color="white"/>
<stop offset="1" stop-color="#EEEEEE"/>
</linearGradient>
<linearGradient id="paint1_linear_1235_31264" x1="483.648" y1="174.52" x2="331.792" y2="33.4267" gradientUnits="userSpaceOnUse">
<stop stop-color="white"/>
<stop offset="1" stop-color="#EEEEEE"/>
</linearGradient>
<clipPath id="clip0_1235_31264">
<rect width="900" height="600" fill="white"/>
</clipPath>
</defs>
</svg>
