<svg width="900" height="600" viewBox="0 0 900 600" fill="none" xmlns="http://www.w3.org/2000/svg">
<g clip-path="url(#clip0_1235_31277)">
<path d="M389 379H181C97.8 379 77 361.556 77 291.778V152.222C77 82.444 97.8 65 181 65H389C472.2 65 493 82.444 493 152.222V291.778C493 361.556 472.2 379 389 379Z" fill="#4F27AA"/>
<path d="M326.341 157.633H430.233M347.119 218.004H430.232M388.676 301.118H430.233" stroke="white" stroke-width="24" stroke-linecap="round" stroke-linejoin="round"/>
<path d="M212.058 218.209C232.829 218.209 249.667 201.371 249.667 180.601C249.667 159.83 232.829 142.992 212.058 142.992C191.287 142.992 174.449 159.83 174.449 180.601C174.449 201.371 191.287 218.209 212.058 218.209Z" fill="white"/>
<path d="M284.784 307.972C281.875 277.843 257.98 254.156 227.851 251.455C217.462 250.416 206.865 250.416 196.268 251.455C166.14 254.363 142.244 277.843 139.335 307.972" stroke="white" stroke-width="24" stroke-linecap="round" stroke-linejoin="round"/>
<path d="M567.5 534H416.5C356.1 534 341 519.611 341 462.056V346.944C341 289.389 356.1 275 416.5 275H567.5C627.9 275 643 289.389 643 346.944V462.056C643 519.611 627.9 534 567.5 534Z" fill="#4F27AA"/>
<path d="M527 374H603M527 421H587M542 468H572" stroke="white" stroke-width="24" stroke-linecap="round" stroke-linejoin="round"/>
<path d="M439.335 401.528C454.438 401.528 466.681 389.285 466.681 374.182C466.681 359.079 454.438 346.836 439.335 346.836C424.233 346.836 411.989 359.079 411.989 374.182C411.989 389.285 424.233 401.528 439.335 401.528Z" fill="white"/>
<path d="M492.215 470.11C490.1 448.203 472.726 430.98 450.819 429.016C443.183 428.26 435.49 428.26 427.854 429.016C405.947 431.131 388.572 448.203 386.457 470.11" stroke="white" stroke-width="24" stroke-linecap="round" stroke-linejoin="round"/>
<path d="M760.195 538.796C760.195 538.796 731.408 500.063 708.218 490.293C685.272 480.628 621.438 467.647 580.129 435.405C579.741 435.107 579.468 434.682 579.36 434.204C579.251 433.726 579.313 433.225 579.534 432.788C581.178 429.612 586.6 423.366 603.214 428.566C624.83 435.37 641.515 440.15 641.515 440.15C641.515 440.15 592.126 355.742 580.443 331.874C578.135 327.164 576.806 323.116 576.176 319.592C574.217 308.6 589.118 303.191 594.889 312.752L628.678 368.687C628.678 368.687 628.363 361.255 634.31 358.289C639.941 355.498 650.889 360.801 655.681 369.874C655.681 369.874 656.031 361.499 664.565 360.034C673.1 358.568 681.46 367.292 684.643 372.351C684.643 372.351 683.244 364.291 689.085 361.464C694.926 358.638 706.434 366.001 709.162 369.316C711.891 372.63 739.348 396.149 762.154 447.548L823.47 486.176C823.47 486.176 826.199 513.428 760.195 538.796Z" fill="#F8AE9D"/>
<path d="M580.671 69.6599C585.232 67.0268 590.405 65.6406 595.671 65.6406C600.937 65.6406 606.111 67.0268 610.671 69.6599L652.265 93.6749C656.826 96.3079 660.613 100.095 663.246 104.656C665.879 109.216 667.265 114.39 667.265 119.656V167.685C667.265 172.951 665.879 178.124 663.246 182.685C660.613 187.246 656.826 191.033 652.265 193.666L610.671 217.681C606.111 220.314 600.937 221.7 595.671 221.7C590.405 221.7 585.232 220.314 580.671 217.681L539.076 193.666C534.516 191.033 530.728 187.246 528.095 182.685C525.462 178.124 524.076 172.951 524.076 167.685V119.656C524.076 114.39 525.462 109.216 528.095 104.656C530.728 100.095 534.516 96.3079 539.076 93.6749L580.671 69.6599Z" fill="#4F27AA"/>
<path d="M621.24 128.227L591.064 158.162L572.958 140.201" stroke="white" stroke-width="24" stroke-linecap="round" stroke-linejoin="round"/>
<path d="M725.671 190.66C730.232 188.027 735.405 186.641 740.671 186.641C745.937 186.641 751.111 188.027 755.671 190.66L797.265 214.675C801.826 217.308 805.613 221.095 808.246 225.656C810.879 230.216 812.265 235.39 812.265 240.656V288.685C812.265 293.951 810.879 299.124 808.246 303.685C805.613 308.246 801.826 312.033 797.265 314.666L755.671 338.681C751.111 341.314 745.937 342.7 740.671 342.7C735.405 342.7 730.232 341.314 725.671 338.681L684.076 314.666C679.516 312.033 675.728 308.246 673.095 303.685C670.462 299.124 669.076 293.951 669.076 288.685V240.656C669.076 235.39 670.462 230.216 673.095 225.656C675.728 221.095 679.516 217.308 684.076 214.675L725.671 190.66Z" fill="#4F27AA"/>
<path d="M766.24 249.227L736.063 279.162L717.958 261.201" stroke="white" stroke-width="24" stroke-linecap="round" stroke-linejoin="round"/>
<path d="M793 158L768 133M711.711 132.425C727.342 147.858 752.646 147.858 768.277 132.425C771.989 128.783 774.938 124.438 776.951 119.643C778.964 114.848 780.001 109.7 780.001 104.5C780.001 99.2995 778.964 94.1515 776.951 89.3567C774.938 84.5619 771.989 80.2166 768.277 76.5747C752.646 61.1418 727.342 61.1418 711.711 76.5747C696.096 92.0077 696.096 117.023 711.711 132.425Z" stroke="#4F27AA" stroke-width="24" stroke-linecap="round" stroke-linejoin="round"/>
</g>
<defs>
<clipPath id="clip0_1235_31277">
<rect width="900" height="600" fill="white"/>
</clipPath>
</defs>
</svg>
