<svg width="900" height="600" viewBox="0 0 900 600" fill="none" xmlns="http://www.w3.org/2000/svg">
<g clip-path="url(#clip0_1235_17897)">
<mask id="mask0_1235_17897" style="mask-type:alpha" maskUnits="userSpaceOnUse" x="0" y="0" width="900" height="600">
<path d="M0 0H900V600H0V0Z" fill="white"/>
</mask>
<g mask="url(#mask0_1235_17897)">
<path d="M157.59 257.731C141.046 329.59 257.236 501.747 441.537 477.532C527.254 466.267 527.693 422.921 599.17 378.115C641.774 351.411 699.072 335.577 722.162 290.01C742.103 250.681 742.061 204.677 725.054 171.802C686.805 97.8694 594.442 35.7424 477.893 121.5C361.344 207.257 200.282 72.4064 157.59 257.731Z" fill="url(#paint0_linear_1235_17897)"/>
<path d="M556.338 457.361C602.021 419.78 649.288 379.492 700.36 367.095C753.042 354.296 757.369 372.044 753.957 397.502C750.545 422.96 720.746 477.461 649.145 493.828C577.525 510.2 513.59 492.536 556.338 457.361Z" fill="url(#paint1_linear_1235_17897)"/>
<path fill-rule="evenodd" clip-rule="evenodd" d="M669.988 222.397V259.844H670C664.575 258.749 658.956 259.114 653.718 260.902C648.927 262.54 644.622 265.351 641.195 269.078C637.768 272.805 635.328 277.331 634.098 282.242C632.938 286.781 632.83 291.524 633.782 296.11C634.735 300.696 636.722 305.005 639.593 308.706C642.464 312.407 646.143 315.403 650.348 317.466C654.554 319.529 659.175 320.604 663.859 320.608C665.921 320.604 667.978 320.398 670 319.992V357.439C670 360.663 669.365 363.856 668.131 366.834C666.897 369.813 665.089 372.519 662.809 374.799C660.529 377.078 657.823 378.887 654.844 380.12C651.866 381.354 648.673 381.989 645.449 381.988H608V382C609.095 376.575 608.73 370.957 606.942 365.719C605.304 360.928 602.493 356.623 598.765 353.197C595.038 349.77 590.512 347.33 585.6 346.1C581.062 344.94 576.319 344.833 571.733 345.785C567.146 346.737 562.838 348.725 559.137 351.596C555.436 354.466 552.44 358.145 550.376 362.35C548.313 366.555 547.238 371.176 547.233 375.86C547.236 377.922 547.442 379.978 547.849 382L510.412 381.988C496.856 381.991 485.864 371.005 485.86 357.45V320.003C483.839 320.41 481.782 320.617 479.72 320.62C475.036 320.615 470.415 319.539 466.21 317.476C462.005 315.413 458.327 312.417 455.456 308.716C452.585 305.015 450.597 300.708 449.644 296.122C448.692 291.536 448.799 286.793 449.958 282.254C451.189 277.343 453.628 272.817 457.055 269.09C460.482 265.363 464.787 262.552 469.578 260.914C474.816 259.126 480.435 258.761 485.86 259.855H485.849V222.408C485.849 219.184 486.484 215.992 487.717 213.013C488.951 210.034 490.76 207.328 493.039 205.048C495.319 202.768 498.026 200.96 501.005 199.726C503.983 198.493 507.176 197.858 510.4 197.858H547.849C547.442 195.837 547.236 193.78 547.233 191.718C547.238 187.034 548.313 182.413 550.376 178.208C552.439 174.002 555.435 170.324 559.136 167.453C562.838 164.582 567.146 162.594 571.732 161.642C576.319 160.69 581.062 160.798 585.6 161.958C590.51 163.192 595.034 165.633 598.761 169.059C602.488 172.485 605.3 176.788 606.942 181.577C608.73 186.815 609.095 192.433 608 197.858H645.449C651.96 197.858 658.205 200.445 662.81 205.048C667.414 209.653 670 215.897 670 222.408M256.893 244.471H294.46V244.459C293.362 249.902 293.728 255.539 295.521 260.793C297.164 265.6 299.984 269.919 303.723 273.356C307.463 276.794 312.003 279.242 316.93 280.476C321.483 281.64 326.241 281.748 330.842 280.792C335.443 279.837 339.764 277.842 343.477 274.962C347.19 272.082 350.196 268.392 352.265 264.173C354.335 259.954 355.413 255.318 355.418 250.619C355.414 248.551 355.207 246.487 354.799 244.459H392.366C395.6 244.459 398.803 245.096 401.791 246.334C404.78 247.572 407.495 249.386 409.782 251.673C412.069 253.96 413.883 256.676 415.12 259.664C416.358 262.652 416.994 265.855 416.994 269.089V306.657H417.006C411.563 305.559 405.927 305.925 400.672 307.719C395.866 309.363 391.547 312.182 388.11 315.922C384.672 319.661 382.225 324.201 380.991 329.128C379.828 333.681 379.719 338.439 380.675 343.04C381.63 347.641 383.624 351.963 386.504 355.676C389.384 359.389 393.074 362.395 397.293 364.465C401.511 366.534 406.147 367.613 410.846 367.618C412.915 367.615 414.978 367.408 417.006 367L416.994 404.556C416.996 418.155 405.976 429.182 392.378 429.186H354.811C355.219 431.214 355.426 433.278 355.429 435.346C355.424 440.045 354.345 444.681 352.276 448.9C350.206 453.118 347.201 456.809 343.488 459.689C339.775 462.569 335.453 464.563 330.853 465.519C326.252 466.474 321.494 466.367 316.941 465.203C312.014 463.969 307.474 461.521 303.735 458.083C299.996 454.646 297.176 450.327 295.533 445.52C293.739 440.266 293.373 434.629 294.471 429.186V429.198H256.905C253.671 429.199 250.468 428.562 247.48 427.324C244.491 426.086 241.776 424.272 239.489 421.985C237.202 419.698 235.388 416.982 234.151 413.994C232.913 411.006 232.277 407.803 232.277 404.568V367C230.249 367.408 228.186 367.615 226.117 367.618C221.418 367.613 216.782 366.535 212.563 364.465C208.344 362.396 204.654 359.39 201.774 355.677C198.894 351.963 196.9 347.642 195.945 343.04C194.99 338.439 195.098 333.681 196.262 329.128C197.5 324.203 199.948 319.664 203.386 315.926C206.823 312.187 211.14 309.366 215.944 307.719C221.198 305.925 226.835 305.559 232.277 306.657V269.089C232.277 265.855 232.913 262.652 234.151 259.664C235.388 256.675 237.202 253.96 239.489 251.673C241.776 249.386 244.491 247.571 247.48 246.334C250.468 245.096 253.671 244.459 256.905 244.459" fill="#4F27AA"/>
<path d="M118.659 471.348C117.271 469.372 116.289 409.268 117.656 406.866C119.03 404.471 179.198 386.994 179.198 386.994C179.198 386.994 199.567 353.804 218.769 335.219C226.34 327.882 237.407 321.721 240.121 325.844C241.804 328.398 239.132 334.937 235.353 341.82C235.344 341.842 235.333 341.863 235.319 341.882C230.057 351.456 222.685 361.65 221.991 362.607C221.971 362.629 221.953 362.652 221.936 362.676C221.936 362.676 271.847 349.997 279.37 348.634C286.892 347.258 296.709 345.069 298.269 350.149C299.705 354.815 286.995 360.281 286.24 360.604C287.057 360.377 304.328 355.607 306.891 362.112C308.794 366.95 290.932 376.105 290.403 376.367C290.849 376.25 299.361 374.006 300.261 378.053C301.738 384.709 283.21 392.377 282.454 392.694C282.873 392.59 289.757 390.966 290.252 394.69C291.475 403.913 227.741 429.477 208.265 436.67C188.768 443.856 120.054 473.323 118.659 471.348ZM767.341 141.094C768.729 143.057 769.711 202.783 768.344 205.171C766.97 207.551 706.813 224.917 706.813 224.917C706.813 224.917 686.447 257.899 667.248 276.367C659.679 283.659 648.613 289.78 645.9 285.683C644.217 283.146 646.889 276.648 650.667 269.808C650.674 269.787 650.688 269.767 650.701 269.746C655.963 260.232 663.333 250.102 664.027 249.151C664.068 249.103 664.082 249.083 664.082 249.083C664.082 249.083 614.18 261.682 606.658 263.036C599.137 264.404 589.321 266.579 587.762 261.531C586.327 256.894 599.034 251.463 599.79 251.142C598.972 251.367 581.704 256.107 579.142 249.644C577.239 244.835 595.098 235.738 595.627 235.478C595.181 235.595 586.67 237.824 585.77 233.802C584.293 227.188 602.819 219.569 603.574 219.254C603.155 219.357 596.273 220.971 595.778 217.27C594.556 208.105 658.278 182.701 677.751 175.554C697.245 168.413 765.947 139.131 767.341 141.094Z" fill="#F8AE9D"/>
</g>
</g>
<defs>
<linearGradient id="paint0_linear_1235_17897" x1="251.53" y1="722.027" x2="724.85" y2="-428.788" gradientUnits="userSpaceOnUse">
<stop stop-color="white"/>
<stop offset="1" stop-color="#EEEEEE"/>
</linearGradient>
<linearGradient id="paint1_linear_1235_17897" x1="552.551" y1="619.901" x2="796.653" y2="144.967" gradientUnits="userSpaceOnUse">
<stop stop-color="white"/>
<stop offset="1" stop-color="#EEEEEE"/>
</linearGradient>
<clipPath id="clip0_1235_17897">
<rect width="900" height="600" fill="white"/>
</clipPath>
</defs>
</svg>
