<svg width="900" height="600" viewBox="0 0 900 600" fill="none" xmlns="http://www.w3.org/2000/svg">
<g clip-path="url(#clip0_1235_19096)">
<path d="M282.581 184.917C322.789 134.603 408.232 113.552 465.352 188.977C513.803 252.951 534.911 256.611 571.737 268.782C596.053 276.823 635.843 287.717 612.657 349.943C582.311 431.387 432.185 453.386 350.101 422.985C271.604 393.917 209.608 276.22 282.581 184.917Z" fill="url(#paint0_linear_1235_19096)"/>
<path d="M466.75 154.003C485.626 187.018 521.374 229.538 580.891 246.787C640.409 264.027 651.009 228.719 633.068 187.675C615.128 146.63 571.104 110.494 516.48 102.283C461.856 94.073 451.257 126.906 466.75 154.003Z" fill="url(#paint1_linear_1235_19096)"/>
<path d="M698.852 486.963V176.994C698.852 171.471 694.375 166.994 688.852 166.994L201.208 166.994C195.685 166.994 191.208 171.471 191.208 176.994V486.963C191.208 492.486 195.685 496.963 201.208 496.963L688.852 496.963C694.375 496.963 698.852 492.486 698.852 486.963Z" fill="#4F27AA"/>
<path d="M782 481H109C104.582 481 101 484.582 101 489C101 493.418 104.582 497 109 497H782C786.418 497 790 493.418 790 489C790 484.582 786.418 481 782 481Z" fill="#E1E4E5"/>
<path d="M734.963 244.437C734.963 244.437 721.888 240.928 717.38 270.903C712.873 300.878 712.841 317.297 712.841 317.297C712.841 317.297 711.185 323.815 706.324 321.533C701.464 319.251 693.097 310.987 687.424 314.866C681.542 318.893 681.826 326.859 686.619 337.11C691.412 347.362 701.087 370.187 701.955 372.261C702.811 374.287 702.634 377.762 699.074 376.735C695.514 375.708 672.677 362.718 667.167 373.918C661.644 385.122 679.694 411.477 681.609 414.392C683.524 417.307 683.362 418.889 682.107 420.19C680.852 421.491 673.583 416.399 666.941 412.965C660.299 409.531 651.987 406.727 649.346 413.457C646.704 420.187 652.583 442.517 685.223 471.076L701.212 483.32L720.019 475.869C759.29 457.473 771.13 437.643 770.453 430.446C769.777 423.25 761.018 423.642 753.679 425.1C746.34 426.558 737.947 429.433 737.102 427.834C736.256 426.236 736.53 424.677 739.179 422.403C741.828 420.129 766.469 399.814 764.267 387.513C762.069 375.223 736.528 381.376 732.823 381.365C729.122 381.367 729.923 377.984 731.302 376.272C732.711 374.526 748.342 355.27 755.782 346.746C763.225 338.234 765.702 330.649 761.166 325.152C756.798 319.844 746.46 325.482 741.16 326.328C735.86 327.175 736.077 320.443 736.077 320.443C736.077 320.443 740.606 304.657 744.572 274.605C748.538 244.554 734.672 244.372 734.672 244.372" fill="#E1E4E5"/>
<path d="M700.879 479.109C703.87 457.048 708.266 426.608 713.247 392.999C718.219 359.406 722.685 328.986 725.811 306.941C727.361 295.942 728.61 287.031 729.48 280.841C729.911 277.779 730.249 275.394 730.484 273.741C730.599 272.954 730.696 272.342 730.758 271.895C730.831 271.485 730.876 271.264 730.876 271.264C730.876 271.264 730.867 271.475 730.826 271.903C730.775 272.347 730.706 272.965 730.619 273.757C730.411 275.416 730.113 277.803 729.737 280.876C728.967 287.052 727.789 295.984 726.286 307.01C723.294 329.071 718.895 359.499 713.926 393.104C708.958 426.709 704.479 457.133 701.365 479.174" fill="white"/>
<path d="M698.667 326.909C698.712 326.884 699.027 327.282 699.596 328.042C700.161 328.79 700.94 329.897 701.883 331.274C703.771 334.04 706.282 337.916 708.973 342.265C711.592 346.543 713.972 350.415 715.803 353.405C716.625 354.723 717.316 355.841 717.89 356.769C718.389 357.561 718.641 358.015 718.596 358.04C718.55 358.065 718.223 357.67 717.658 356.922C716.88 355.855 716.124 354.771 715.392 353.671C713.525 350.887 711.068 346.97 708.393 342.63L701.487 331.549C700.665 330.232 699.962 329.117 699.387 328.189C698.885 327.385 698.633 326.931 698.667 326.909ZM720.458 357.789C720.351 357.635 728.122 352.098 737.823 345.445C747.521 338.78 755.479 333.506 755.586 333.66C755.692 333.814 747.918 339.338 738.22 346.004C728.511 352.672 720.564 357.943 720.458 357.789ZM710.497 409.051C710.484 409.002 710.982 408.817 711.874 408.499C712.916 408.155 714.198 407.733 715.704 407.226C718.935 406.151 723.405 404.64 728.27 402.803C733.138 400.977 737.49 399.172 740.641 397.845C742.106 397.231 743.346 396.703 744.365 396.274C745.245 395.908 745.746 395.735 745.768 395.768C745.793 395.813 745.327 396.069 744.482 396.516C743.28 397.133 742.065 397.724 740.838 398.288C736.798 400.16 732.689 401.878 728.519 403.44C724.349 405.007 720.124 406.421 715.852 407.681C714.208 408.161 712.87 408.519 711.955 408.751C711.027 408.987 710.51 409.1 710.497 409.051ZM684.646 385.45C684.676 385.416 685.066 385.703 685.762 386.259C686.447 386.819 687.423 387.639 688.622 388.66C691.739 391.336 694.831 394.04 697.899 396.772C700.973 399.5 704.022 402.254 707.048 405.035C708.208 406.105 709.133 406.979 709.769 407.603C710.402 408.216 710.735 408.583 710.705 408.617C710.676 408.651 710.286 408.364 709.589 407.808C708.905 407.248 707.929 406.428 706.73 405.406C703.613 402.731 700.521 400.027 697.453 397.295C693.859 394.1 690.625 391.174 688.316 389.029C687.397 388.186 686.49 387.33 685.595 386.46C684.949 385.851 684.604 385.487 684.646 385.45ZM670.104 429.585C670.134 429.55 670.638 429.924 671.52 430.639C672.493 431.447 673.732 432.471 675.197 433.707C678.283 436.322 682.516 439.958 687.162 444.018C691.809 448.078 695.994 451.78 698.999 454.481C700.413 455.77 701.604 456.859 702.538 457.717C703.357 458.488 703.805 458.941 703.775 458.975C703.745 459.01 703.241 458.636 702.358 457.921C701.386 457.113 700.147 456.089 698.681 454.853C694.668 451.446 690.679 448.008 686.716 444.542C682.07 440.482 677.885 436.78 674.88 434.079C673.698 433.003 672.518 431.925 671.341 430.843C670.509 430.076 670.074 429.619 670.104 429.585ZM703.161 458.045C703.148 457.997 703.769 457.739 704.892 457.308C706.149 456.841 707.76 456.239 709.694 455.526C713.745 454.01 719.348 451.909 725.457 449.412C730.678 447.283 735.864 445.067 741.012 442.767C742.576 442.081 744.137 441.389 745.696 440.691C746.805 440.211 747.427 439.953 747.452 439.999C747.478 440.044 746.888 440.372 745.813 440.933C744.738 441.495 743.163 442.282 741.209 443.21C736.113 445.64 730.947 447.92 725.718 450.046C720.488 452.177 715.198 454.155 709.854 455.978C708.235 456.53 706.608 457.057 704.973 457.56C703.827 457.906 703.182 458.078 703.161 458.045Z" fill="white"/>
<path d="M140.381 360.899C143.48 378.286 161.525 393.577 161.525 393.577C161.525 393.577 176.319 372.423 173.22 355.036C170.11 337.646 160.255 324.863 151.184 326.487C142.115 328.099 137.283 343.511 140.381 360.899ZM180.113 391.102C168.018 403.965 166.527 427.566 166.527 427.566C166.527 427.566 192.321 426.821 204.42 413.945C216.518 401.07 220.883 385.532 214.162 379.225C207.454 372.921 192.209 378.238 180.113 391.102ZM165.659 480.18C165.114 483.197 164.899 485.311 164.843 485.848C164.839 485.91 164.826 485.957 164.832 485.984L164.829 485.995C164.829 485.995 164.84 485.998 164.844 485.987L164.929 485.997C165.208 485.984 166.044 485.957 167.307 485.881C174.064 485.445 192.955 483.339 202.972 473.081C215.308 460.445 219.956 444.971 213.367 438.548C206.781 432.114 191.438 437.141 179.102 449.777C173.581 455.44 170.137 463.279 168.035 470.235C167.045 473.499 166.251 476.82 165.659 480.18ZM127.868 423.007C143.237 431.707 166.523 427.578 166.523 427.578C166.523 427.578 159.674 402.684 144.306 393.985C128.938 385.285 112.807 384.728 108.263 392.737C103.717 400.757 112.5 414.308 127.868 423.007Z" fill="#E1E4E5"/>
<path d="M129.594 477.325C143.968 487.578 167.555 485.89 167.555 485.89C167.555 485.89 163.334 460.419 148.959 450.166C134.585 439.912 118.591 437.673 113.241 445.177C107.892 452.681 115.208 467.068 129.594 477.325Z" fill="#E1E4E5"/>
<path d="M158.481 386.434C158.565 386.682 165.37 410.711 163.03 471.817C162.85 476.495 162.627 481.172 162.359 485.847L162.655 485.863L164.833 485.982L164.836 485.971L164.848 485.974L164.933 485.984C165.212 485.971 166.048 485.944 167.311 485.868C167.624 480.391 167.864 475.184 168.039 470.222C170.252 409.496 163.529 386.054 163.231 385.008L158.481 386.434Z" fill="#E1E4E5"/>
<path d="M403.403 443.153C403.403 451.556 410.206 458.382 418.629 458.382H481.584C489.985 458.382 496.81 451.578 496.81 443.153C496.81 434.751 490.007 427.924 481.584 427.924H418.629C410.206 427.924 403.403 434.728 403.403 443.153Z" fill="white"/>
<path d="M463.475 443.197C463.475 445.434 465.278 447.261 467.516 447.261C469.754 447.261 471.58 445.457 471.58 443.22C471.58 440.982 469.776 439.155 467.539 439.155C467.006 439.15 466.477 439.251 465.983 439.452C465.489 439.653 465.04 439.95 464.661 440.326C464.283 440.702 463.984 441.15 463.78 441.643C463.576 442.135 463.473 442.664 463.475 443.197ZM446.053 443.128C446.053 445.366 447.857 447.192 450.094 447.192C452.332 447.192 454.158 445.389 454.158 443.151C454.158 440.913 452.355 439.087 450.117 439.087C447.879 439.064 446.053 440.891 446.053 443.128ZM428.633 443.083C428.633 445.32 430.437 447.147 432.674 447.147C434.912 447.147 436.738 445.343 436.738 443.105C436.738 440.868 434.935 439.041 432.697 439.041C432.164 439.036 431.635 439.137 431.14 439.338C430.646 439.539 430.197 439.836 429.819 440.212C429.441 440.588 429.141 441.036 428.938 441.528C428.734 442.021 428.63 442.55 428.633 443.083Z" fill="#E1E4E5"/>
<path d="M493.169 406.117H601.979C602.701 406.117 603.416 405.976 604.083 405.7C604.751 405.424 605.357 405.019 605.868 404.508C606.378 403.997 606.783 403.391 607.059 402.724C607.335 402.056 607.477 401.341 607.476 400.619V364.38C607.477 363.658 607.335 362.943 607.059 362.275C606.783 361.608 606.378 361.002 605.867 360.491C605.357 359.981 604.75 359.576 604.083 359.3C603.416 359.024 602.701 358.882 601.979 358.883H493.169C492.447 358.882 491.732 359.024 491.064 359.3C490.397 359.576 489.791 359.981 489.28 360.491C488.77 361.002 488.365 361.608 488.089 362.275C487.813 362.943 487.671 363.658 487.672 364.38V400.635C487.673 401.356 487.816 402.069 488.092 402.735C488.369 403.401 488.774 404.005 489.285 404.514C489.795 405.024 490.401 405.427 491.067 405.702C491.734 405.977 492.448 406.118 493.169 406.117Z" fill="white"/>
<path d="M586.394 376.986H506.775M534.308 389.532H507.036" stroke="#4F27AA" stroke-width="3.299" stroke-miterlimit="10" stroke-linecap="round" stroke-linejoin="round"/>
<path d="M590.647 399.836V421.211L563.406 399.836H590.647ZM468.802 319.817H577.611C578.333 319.818 579.049 319.676 579.716 319.4C580.383 319.125 580.99 318.72 581.501 318.209C582.011 317.698 582.416 317.092 582.692 316.425C582.968 315.757 583.11 315.042 583.109 314.32V278.081C583.11 277.359 582.968 276.644 582.692 275.976C582.416 275.309 582.011 274.703 581.5 274.192C580.99 273.682 580.383 273.277 579.716 273.001C579.049 272.725 578.333 272.583 577.611 272.584H468.802C468.08 272.583 467.365 272.725 466.698 273.001C466.031 273.277 465.424 273.682 464.914 274.193C464.403 274.703 463.998 275.309 463.722 275.977C463.446 276.644 463.305 277.359 463.305 278.081V314.335C463.306 315.056 463.449 315.77 463.726 316.435C464.002 317.101 464.407 317.706 464.918 318.215C465.428 318.724 466.034 319.127 466.701 319.402C467.367 319.677 468.081 319.818 468.802 319.817Z" fill="white"/>
<path d="M562.027 290.688H482.408M509.94 303.233H482.669" stroke="#4F27AA" stroke-width="3.299" stroke-miterlimit="10" stroke-linecap="round" stroke-linejoin="round"/>
<path d="M566.28 313.537V334.912L539.039 313.537H566.28ZM397.906 387.842H289.097C288.375 387.843 287.66 387.701 286.992 387.425C286.325 387.149 285.718 386.744 285.208 386.234C284.697 385.723 284.292 385.116 284.016 384.449C283.74 383.782 283.598 383.066 283.599 382.344V346.105C283.598 345.383 283.74 344.668 284.016 344C284.292 343.333 284.697 342.727 285.208 342.216C285.719 341.706 286.325 341.301 286.992 341.025C287.66 340.749 288.375 340.607 289.097 340.608H397.906C398.628 340.607 399.343 340.749 400.01 341.025C400.678 341.301 401.284 341.706 401.795 342.217C402.305 342.727 402.71 343.334 402.986 344.001C403.262 344.668 403.404 345.383 403.403 346.105V382.36C403.402 383.081 403.259 383.795 402.983 384.46C402.706 385.126 402.301 385.731 401.79 386.24C401.28 386.749 400.674 387.152 400.008 387.427C399.341 387.702 398.627 387.843 397.906 387.842Z" fill="white"/>
<path d="M384.3 358.713H304.682M332.214 371.259H304.942" stroke="#4F27AA" stroke-width="3.299" stroke-miterlimit="10" stroke-linecap="round" stroke-linejoin="round"/>
<path d="M300.428 381.561V402.936L327.669 381.561H300.428ZM408.058 285.298H299.249C298.527 285.299 297.812 285.157 297.144 284.881C296.477 284.605 295.871 284.2 295.36 283.69C294.85 283.179 294.445 282.572 294.169 281.905C293.893 281.238 293.751 280.523 293.752 279.8V243.561C293.751 242.839 293.893 242.124 294.169 241.457C294.445 240.79 294.85 240.184 295.361 239.673C295.871 239.162 296.477 238.758 297.145 238.482C297.812 238.206 298.527 238.064 299.249 238.064H408.058C408.78 238.064 409.495 238.205 410.163 238.481C410.83 238.757 411.436 239.162 411.947 239.673C412.458 240.183 412.863 240.79 413.139 241.457C413.415 242.124 413.557 242.839 413.556 243.561V279.816C413.556 282.841 411.099 285.298 408.058 285.298Z" fill="white"/>
<path d="M394.452 256.168H314.834M342.366 268.713H315.095" stroke="#4F27AA" stroke-width="3.299" stroke-miterlimit="10" stroke-linecap="round" stroke-linejoin="round"/>
<path d="M310.582 279.018V300.393L337.822 279.018H310.582Z" fill="white"/>
<path d="M450 200C453.866 200 457 196.866 457 193C457 189.134 453.866 186 450 186C446.134 186 443 189.134 443 193C443 196.866 446.134 200 450 200Z" fill="white"/>
<path fill-rule="evenodd" clip-rule="evenodd" d="M142.248 248.291H144.056C144.265 248.291 144.466 248.208 144.614 248.06C144.762 247.912 144.846 247.712 144.846 247.502V245.694C144.846 245.485 144.763 245.284 144.615 245.136C144.466 244.988 144.266 244.904 144.056 244.904H142.248C142.039 244.905 141.839 244.989 141.691 245.137C141.543 245.285 141.46 245.485 141.459 245.694V247.502C141.459 247.606 141.479 247.709 141.519 247.805C141.558 247.9 141.616 247.987 141.689 248.061C141.763 248.134 141.85 248.192 141.946 248.232C142.042 248.271 142.144 248.292 142.248 248.291ZM148.517 248.291H150.325C150.759 248.291 151.115 247.935 151.115 247.502V245.694C151.115 245.485 151.032 245.284 150.884 245.136C150.735 244.988 150.535 244.904 150.325 244.904H148.517C148.308 244.905 148.108 244.989 147.96 245.137C147.812 245.285 147.729 245.485 147.728 245.694V247.502C147.728 247.935 148.084 248.291 148.517 248.291ZM154.791 248.291H156.599C157.033 248.291 157.389 247.935 157.389 247.502V245.694C157.389 245.485 157.306 245.284 157.158 245.136C157.009 244.988 156.809 244.904 156.599 244.904H154.791C154.582 244.905 154.382 244.989 154.234 245.137C154.086 245.285 154.003 245.485 154.002 245.694V247.502C154.002 247.606 154.022 247.709 154.062 247.805C154.101 247.9 154.159 247.987 154.232 248.061C154.306 248.134 154.393 248.192 154.489 248.232C154.585 248.271 154.687 248.292 154.791 248.291ZM161.062 248.291H162.87C163.079 248.29 163.279 248.207 163.427 248.059C163.574 247.911 163.658 247.711 163.659 247.502V245.694C163.659 245.485 163.576 245.284 163.428 245.136C163.28 244.988 163.079 244.905 162.87 244.904H161.062C160.852 244.904 160.651 244.987 160.502 245.135C160.354 245.284 160.27 245.484 160.269 245.694V247.502C160.271 247.712 160.355 247.912 160.504 248.059C160.652 248.207 160.853 248.29 161.062 248.291ZM167.331 248.291H169.139C169.349 248.291 169.55 248.208 169.698 248.06C169.847 247.913 169.931 247.712 169.932 247.502V245.694C169.932 245.59 169.911 245.487 169.871 245.391C169.831 245.295 169.773 245.208 169.699 245.135C169.626 245.062 169.538 245.003 169.442 244.964C169.346 244.924 169.243 244.904 169.139 244.904H167.331C167.122 244.905 166.921 244.989 166.774 245.137C166.626 245.285 166.543 245.485 166.542 245.694V247.502C166.542 247.935 166.897 248.291 167.331 248.291ZM148.747 241.455H150.555C150.989 241.455 151.345 241.099 151.345 240.665V238.853C151.344 238.644 151.26 238.444 151.112 238.296C150.964 238.148 150.764 238.065 150.555 238.064H148.747C148.538 238.065 148.337 238.148 148.189 238.296C148.041 238.444 147.958 238.644 147.958 238.853V240.662C147.957 240.766 147.977 240.869 148.017 240.966C148.056 241.062 148.114 241.149 148.187 241.223C148.261 241.297 148.348 241.355 148.444 241.395C148.54 241.435 148.643 241.455 148.747 241.455ZM155.017 241.455H156.825C157.259 241.455 157.615 241.099 157.615 240.665V238.853C157.614 238.644 157.53 238.444 157.382 238.296C157.234 238.148 157.034 238.065 156.825 238.064H155.017C154.808 238.065 154.608 238.149 154.46 238.297C154.312 238.444 154.229 238.644 154.228 238.853V240.662C154.227 240.766 154.247 240.869 154.287 240.966C154.326 241.062 154.384 241.149 154.457 241.223C154.531 241.297 154.618 241.355 154.714 241.395C154.81 241.435 154.913 241.455 155.017 241.455ZM161.287 241.455H163.095C163.305 241.455 163.506 241.372 163.654 241.224C163.803 241.076 163.887 240.875 163.888 240.665V238.853C163.887 238.644 163.803 238.443 163.654 238.295C163.506 238.147 163.305 238.064 163.095 238.064H161.287C161.078 238.065 160.878 238.148 160.73 238.296C160.582 238.444 160.499 238.644 160.498 238.853V240.662C160.498 241.099 160.853 241.455 161.287 241.455ZM154.791 255.636H156.599C157.033 255.636 157.389 255.28 157.389 254.847V253.038C157.389 252.829 157.305 252.628 157.157 252.48C157.009 252.332 156.808 252.249 156.599 252.249H154.791C154.582 252.25 154.382 252.334 154.234 252.482C154.087 252.629 154.003 252.829 154.002 253.038V254.847C154.002 254.951 154.022 255.054 154.062 255.15C154.101 255.245 154.159 255.332 154.232 255.406C154.306 255.479 154.393 255.537 154.489 255.577C154.585 255.616 154.687 255.637 154.791 255.636ZM161.062 255.636H162.87C163.079 255.635 163.279 255.552 163.427 255.404C163.574 255.256 163.658 255.056 163.659 254.847V253.038C163.659 252.829 163.576 252.629 163.428 252.481C163.28 252.333 163.079 252.25 162.87 252.249H161.062C160.852 252.249 160.651 252.332 160.503 252.48C160.354 252.628 160.27 252.829 160.269 253.038V254.847C160.271 255.057 160.355 255.257 160.504 255.404C160.652 255.552 160.853 255.635 161.062 255.636ZM747.857 193.465H746.049C745.84 193.465 745.639 193.382 745.491 193.234C745.344 193.086 745.26 192.885 745.26 192.676V190.868C745.26 190.659 745.344 190.459 745.491 190.311C745.639 190.163 745.84 190.08 746.049 190.079H747.857C748.291 190.079 748.647 190.434 748.647 190.868V192.676C748.647 192.78 748.627 192.883 748.587 192.979C748.547 193.074 748.489 193.162 748.416 193.235C748.342 193.308 748.255 193.366 748.159 193.406C748.064 193.445 747.961 193.466 747.857 193.465ZM741.588 193.465H739.78C739.571 193.465 739.37 193.381 739.222 193.234C739.074 193.086 738.991 192.885 738.99 192.676V190.868C738.99 190.659 739.074 190.458 739.222 190.31C739.37 190.162 739.571 190.079 739.78 190.079H741.588C742.021 190.079 742.377 190.434 742.377 190.868V192.676C742.376 192.885 742.293 193.086 742.145 193.233C741.997 193.381 741.797 193.464 741.588 193.465ZM735.313 193.465H733.505C733.296 193.464 733.096 193.381 732.948 193.233C732.8 193.086 732.717 192.885 732.716 192.676V190.868C732.716 190.659 732.799 190.459 732.947 190.311C733.095 190.163 733.296 190.08 733.505 190.079H735.313C735.747 190.079 736.103 190.434 736.103 190.868V192.676C736.103 192.78 736.083 192.883 736.043 192.979C736.003 193.074 735.945 193.162 735.872 193.235C735.798 193.308 735.711 193.366 735.615 193.406C735.52 193.445 735.417 193.466 735.313 193.465ZM729.044 193.465H727.236C727.027 193.465 726.826 193.381 726.678 193.234C726.53 193.086 726.447 192.885 726.446 192.676V190.868C726.446 190.659 726.53 190.458 726.678 190.31C726.826 190.162 727.027 190.079 727.236 190.079H729.044C729.481 190.079 729.837 190.434 729.837 190.868V192.676C729.835 192.885 729.75 193.085 729.602 193.233C729.454 193.381 729.253 193.464 729.044 193.465ZM722.774 193.465H720.966C720.756 193.465 720.555 193.382 720.407 193.234C720.258 193.087 720.174 192.886 720.173 192.676V190.868C720.173 190.764 720.194 190.661 720.234 190.566C720.274 190.47 720.332 190.383 720.406 190.309C720.479 190.236 720.567 190.178 720.663 190.138C720.759 190.099 720.862 190.079 720.966 190.079H722.774C723.208 190.079 723.563 190.434 723.563 190.868V192.676C723.562 192.885 723.479 193.086 723.331 193.234C723.183 193.381 722.983 193.465 722.774 193.465ZM741.358 186.629H739.55C739.341 186.628 739.141 186.545 738.993 186.397C738.845 186.25 738.762 186.049 738.761 185.84V184.028C738.761 183.594 739.116 183.238 739.55 183.238H741.358C741.568 183.238 741.768 183.322 741.917 183.47C742.065 183.618 742.148 183.819 742.148 184.028V185.836C742.148 185.94 742.128 186.043 742.089 186.14C742.049 186.236 741.991 186.323 741.918 186.397C741.844 186.471 741.757 186.529 741.661 186.569C741.565 186.609 741.462 186.629 741.358 186.629ZM735.088 186.629H733.28C733.071 186.628 732.871 186.545 732.723 186.397C732.575 186.25 732.491 186.049 732.49 185.84V184.028C732.49 183.594 732.846 183.238 733.28 183.238H735.088C735.521 183.238 735.877 183.594 735.877 184.028V185.836C735.878 185.94 735.858 186.043 735.818 186.14C735.779 186.236 735.721 186.323 735.648 186.397C735.574 186.471 735.487 186.529 735.391 186.569C735.295 186.609 735.192 186.629 735.088 186.629ZM728.818 186.629H727.01C726.8 186.629 726.599 186.546 726.451 186.398C726.302 186.251 726.218 186.05 726.217 185.84V184.028C726.217 183.594 726.573 183.238 727.01 183.238H728.818C729.252 183.238 729.607 183.594 729.607 184.028V185.836C729.607 186.046 729.524 186.247 729.376 186.396C729.228 186.544 729.028 186.628 728.818 186.629ZM735.313 200.81H733.505C733.296 200.809 733.096 200.726 732.948 200.578C732.8 200.43 732.717 200.23 732.716 200.021V198.213C732.716 198.004 732.799 197.803 732.947 197.655C733.095 197.507 733.296 197.424 733.505 197.423H735.313C735.747 197.423 736.103 197.779 736.103 198.213V200.021C736.103 200.125 736.083 200.228 736.043 200.324C736.003 200.419 735.945 200.507 735.872 200.58C735.798 200.653 735.711 200.711 735.615 200.751C735.52 200.79 735.417 200.811 735.313 200.81ZM729.044 200.81H727.236C727.027 200.809 726.827 200.726 726.679 200.578C726.531 200.431 726.447 200.23 726.446 200.021V198.213C726.446 198.004 726.529 197.803 726.677 197.655C726.826 197.507 727.026 197.423 727.236 197.423H729.044C729.481 197.423 729.837 197.779 729.837 198.213V200.021C729.834 200.23 729.75 200.43 729.602 200.578C729.453 200.725 729.253 200.809 729.044 200.81Z" fill="#E1E4E5"/>
</g>
<defs>
<linearGradient id="paint0_linear_1235_19096" x1="442.757" y1="602.261" x2="435.423" y2="-182.958" gradientUnits="userSpaceOnUse">
<stop stop-color="white"/>
<stop offset="1" stop-color="#EEEEEE"/>
</linearGradient>
<linearGradient id="paint1_linear_1235_19096" x1="554.474" y1="335.509" x2="550.621" y2="-62.477" gradientUnits="userSpaceOnUse">
<stop stop-color="white"/>
<stop offset="1" stop-color="#EEEEEE"/>
</linearGradient>
<clipPath id="clip0_1235_19096">
<rect width="900" height="600" fill="white"/>
</clipPath>
</defs>
</svg>
