<svg width="900" height="600" viewBox="0 0 900 600" fill="none" xmlns="http://www.w3.org/2000/svg">
<g clip-path="url(#clip0_1235_31293)">
<path d="M449.71 519.831C567.981 519.831 663.858 423.954 663.858 305.683C663.858 187.412 567.981 91.5352 449.71 91.5352C331.439 91.5352 235.562 187.412 235.562 305.683C235.562 423.954 331.439 519.831 449.71 519.831Z" fill="#4F27AA"/>
<path d="M353.343 273.562H546.076M385.465 187.902L445.426 273.562M509.671 187.902L449.709 273.562M353.343 337.807H546.076M385.465 423.466L445.426 337.807M509.671 423.466L449.709 337.807" stroke="white" stroke-width="28.098" stroke-miterlimit="10" stroke-linecap="round" stroke-linejoin="round"/>
<path fill-rule="evenodd" clip-rule="evenodd" d="M154.744 489.957H160.023C160.634 489.958 161.22 490.201 161.652 490.633C162.084 491.065 162.327 491.65 162.327 492.261V497.54C162.327 498.151 162.084 498.737 161.652 499.169C161.22 499.601 160.634 499.844 160.023 499.844H154.744C154.134 499.842 153.549 499.599 153.117 499.167C152.686 498.735 152.442 498.151 152.44 497.54V492.261C152.429 490.995 153.467 489.957 154.744 489.957ZM173.048 489.957H178.327C178.938 489.959 179.522 490.203 179.954 490.634C180.386 491.066 180.629 491.651 180.631 492.261V497.54C180.631 498.151 180.388 498.737 179.956 499.169C179.524 499.601 178.938 499.844 178.327 499.844H173.048C172.438 499.842 171.853 499.598 171.422 499.167C170.99 498.735 170.747 498.15 170.744 497.54V492.261C170.747 491.651 170.99 491.066 171.422 490.635C171.853 490.203 172.438 489.96 173.048 489.957V489.957ZM191.363 489.957H196.642C197.253 489.959 197.837 490.203 198.269 490.634C198.701 491.066 198.944 491.651 198.946 492.261V497.54C198.946 498.151 198.703 498.737 198.271 499.169C197.839 499.601 197.253 499.844 196.642 499.844H191.363C190.753 499.842 190.168 499.599 189.736 499.167C189.305 498.735 189.061 498.151 189.059 497.54V492.261C189.048 490.995 190.087 489.957 191.363 489.957ZM209.665 489.957H214.944C215.555 489.959 216.139 490.203 216.571 490.634C217.003 491.066 217.246 491.651 217.248 492.261V497.54C217.248 498.151 217.005 498.737 216.573 499.169C216.141 499.601 215.555 499.844 214.944 499.844H209.665C209.053 499.844 208.466 499.602 208.032 499.17C207.598 498.738 207.353 498.152 207.35 497.54V492.261C207.357 491.65 207.603 491.066 208.036 490.635C208.469 490.204 209.054 489.961 209.665 489.957V489.957ZM227.969 489.957H233.248C233.86 489.957 234.447 490.2 234.881 490.631C235.315 491.063 235.56 491.649 235.563 492.261V497.54C235.563 497.844 235.502 498.144 235.386 498.424C235.269 498.704 235.098 498.958 234.883 499.172C234.668 499.386 234.413 499.556 234.133 499.671C233.852 499.786 233.551 499.845 233.248 499.844H227.969C227.359 499.842 226.774 499.599 226.342 499.167C225.91 498.735 225.667 498.151 225.664 497.54V492.261C225.667 491.651 225.91 491.066 226.342 490.634C226.774 490.203 227.359 489.959 227.969 489.957ZM173.718 509.915H178.997C179.608 509.917 180.192 510.161 180.624 510.592C181.056 511.024 181.299 511.609 181.301 512.219V517.509C181.299 518.119 181.055 518.704 180.624 519.136C180.192 519.567 179.607 519.811 178.997 519.813H173.718C173.107 519.812 172.522 519.569 172.09 519.137C171.658 518.706 171.415 518.12 171.414 517.509V512.23C171.412 511.927 171.471 511.626 171.586 511.345C171.701 511.064 171.87 510.808 172.084 510.593C172.298 510.378 172.553 510.207 172.833 510.091C173.114 509.974 173.415 509.915 173.718 509.915V509.915ZM192.02 509.915H197.299C197.91 509.917 198.495 510.161 198.926 510.592C199.358 511.024 199.602 511.609 199.604 512.219V517.509C199.602 518.12 199.358 518.704 198.926 519.136C198.494 519.567 197.91 519.811 197.299 519.813H192.02C191.41 519.811 190.825 519.567 190.394 519.135C189.962 518.704 189.719 518.119 189.716 517.509V512.23C189.714 511.927 189.773 511.626 189.888 511.345C190.003 511.064 190.172 510.808 190.386 510.593C190.6 510.378 190.855 510.207 191.135 510.091C191.416 509.974 191.717 509.915 192.02 509.915V509.915ZM210.325 509.915H215.604C216.216 509.915 216.803 510.158 217.237 510.589C217.671 511.021 217.916 511.607 217.919 512.219V517.509C217.916 518.121 217.671 518.707 217.237 519.139C216.803 519.57 216.216 519.813 215.604 519.813H210.325C209.715 519.811 209.13 519.567 208.699 519.136C208.267 518.704 208.024 518.119 208.021 517.509V512.23C208.021 511.618 208.264 511.031 208.695 510.597C209.127 510.163 209.713 509.918 210.325 509.915V509.915ZM191.363 468.514H196.642C197.253 468.516 197.837 468.76 198.269 469.191C198.701 469.623 198.944 470.208 198.946 470.818V476.097C198.946 476.708 198.703 477.294 198.271 477.726C197.839 478.158 197.253 478.401 196.642 478.401H191.363C190.753 478.399 190.168 478.156 189.736 477.724C189.305 477.292 189.061 476.708 189.059 476.097V470.818C189.048 469.552 190.087 468.514 191.363 468.514ZM173.064 468.514H178.343C178.954 468.516 179.538 468.76 179.97 469.191C180.402 469.623 180.645 470.208 180.647 470.818V476.097C180.647 476.708 180.404 477.294 179.972 477.726C179.54 478.158 178.954 478.401 178.343 478.401H173.064C172.454 478.399 171.869 478.155 171.438 477.724C171.006 477.292 170.763 476.707 170.76 476.097V470.818C170.749 469.552 171.788 468.514 173.064 468.514ZM209.665 468.514H214.944C215.555 468.516 216.139 468.76 216.571 469.191C217.003 469.623 217.246 470.208 217.248 470.818V476.097C217.248 476.708 217.005 477.294 216.573 477.726C216.141 478.158 215.555 478.401 214.944 478.401H209.665C209.053 478.401 208.466 478.159 208.032 477.727C207.598 477.295 207.353 476.709 207.35 476.097V470.818C207.357 470.207 207.603 469.623 208.036 469.192C208.469 468.761 209.054 468.518 209.665 468.514V468.514ZM77.4721 299.461H85.4281C86.3487 299.462 87.2314 299.828 87.8823 300.479C88.5333 301.13 88.8993 302.013 88.9001 302.933V310.889C88.8993 311.81 88.5333 312.692 87.8823 313.343C87.2314 313.994 86.3487 314.36 85.4281 314.361H77.4721C76.5524 314.357 75.6715 313.99 75.0211 313.34C74.3708 312.69 74.0038 311.809 74.0001 310.889V302.933C73.9831 301.026 75.5491 299.461 77.4721 299.461ZM105.056 299.461H113.012C113.932 299.465 114.813 299.832 115.463 300.482C116.113 301.132 116.48 302.013 116.484 302.933V310.889C116.483 311.81 116.117 312.692 115.466 313.343C114.815 313.994 113.933 314.36 113.012 314.361H105.056C104.136 314.357 103.255 313.99 102.605 313.34C101.955 312.69 101.588 311.809 101.584 310.889V302.933C101.588 302.013 101.955 301.132 102.605 300.482C103.255 299.832 104.136 299.465 105.056 299.461V299.461ZM132.658 299.461H140.613C141.533 299.465 142.414 299.831 143.065 300.482C143.715 301.132 144.082 302.013 144.086 302.933V310.889C144.085 311.81 143.719 312.693 143.068 313.344C142.417 313.995 141.534 314.361 140.613 314.361H132.658C131.738 314.358 130.857 313.991 130.206 313.34C129.556 312.69 129.189 311.809 129.185 310.889V302.933C129.169 301.026 130.734 299.461 132.658 299.461ZM160.24 299.461H168.195C169.115 299.465 169.996 299.831 170.647 300.482C171.297 301.132 171.664 302.013 171.668 302.933V310.889C171.667 311.81 171.301 312.693 170.65 313.344C169.999 313.995 169.116 314.361 168.195 314.361H160.24C158.316 314.361 156.751 312.796 156.751 310.889V302.933C156.767 301.026 158.332 299.461 160.24 299.461ZM187.824 299.461H195.78C197.703 299.461 199.269 301.026 199.269 302.933V310.889C199.268 311.346 199.177 311.799 199.001 312.221C198.825 312.643 198.568 313.026 198.244 313.348C197.92 313.671 197.536 313.926 197.113 314.1C196.69 314.274 196.237 314.362 195.78 314.361H187.824C186.904 314.357 186.023 313.99 185.373 313.34C184.723 312.69 184.356 311.809 184.352 310.889V302.933C184.356 302.013 184.723 301.132 185.373 300.482C186.023 299.832 186.904 299.465 187.824 299.461V299.461ZM106.066 329.539H114.022C114.942 329.543 115.823 329.91 116.473 330.56C117.123 331.21 117.49 332.091 117.494 333.011V340.983C117.491 341.903 117.124 342.784 116.473 343.435C115.823 344.085 114.942 344.452 114.022 344.456H106.066C105.145 344.455 104.262 344.089 103.611 343.438C102.96 342.787 102.594 341.904 102.593 340.983V333.027C102.591 332.57 102.679 332.116 102.852 331.693C103.026 331.27 103.281 330.885 103.604 330.561C103.927 330.236 104.31 329.979 104.733 329.804C105.156 329.629 105.609 329.539 106.066 329.539V329.539ZM133.648 329.539H141.604C142.524 329.543 143.405 329.91 144.055 330.56C144.705 331.21 145.072 332.091 145.076 333.011V340.983C145.073 341.903 144.706 342.784 144.055 343.435C143.405 344.085 142.524 344.452 141.604 344.456H133.648C132.728 344.452 131.847 344.085 131.197 343.435C130.546 342.784 130.18 341.903 130.176 340.983V333.027C130.173 332.57 130.261 332.116 130.434 331.693C130.608 331.269 130.863 330.884 131.186 330.56C131.509 330.236 131.892 329.979 132.315 329.804C132.738 329.628 133.191 329.538 133.648 329.539V329.539ZM161.234 329.539H169.19C171.114 329.539 172.679 331.104 172.679 333.011V340.983C172.679 342.89 171.114 344.456 169.19 344.456H161.234C160.314 344.452 159.433 344.085 158.783 343.435C158.132 342.784 157.766 341.903 157.762 340.983V333.027C157.762 331.104 159.327 329.539 161.234 329.539V329.539ZM132.658 267.146H140.613C141.533 267.15 142.415 267.517 143.065 268.167C143.716 268.818 144.083 269.699 144.086 270.619V278.574C144.085 279.495 143.719 280.378 143.068 281.029C142.417 281.68 141.534 282.046 140.613 282.047H132.658C131.738 282.044 130.857 281.677 130.206 281.026C129.556 280.376 129.189 279.494 129.185 278.574V270.619C129.169 268.711 130.734 267.146 132.658 267.146ZM105.082 267.146H113.037C113.957 267.15 114.839 267.517 115.489 268.167C116.14 268.818 116.507 269.699 116.51 270.619V278.574C116.509 279.495 116.143 280.378 115.492 281.029C114.841 281.68 113.958 282.046 113.037 282.047H105.082C104.162 282.044 103.281 281.677 102.63 281.026C101.98 280.376 101.613 279.494 101.609 278.574V270.619C101.593 268.711 103.158 267.146 105.082 267.146ZM160.24 267.146H168.195C169.115 267.15 169.997 267.517 170.647 268.167C171.298 268.818 171.665 269.699 171.668 270.619V278.574C171.667 279.495 171.301 280.378 170.65 281.029C169.999 281.68 169.116 282.046 168.195 282.047H160.24C158.316 282.047 156.751 280.482 156.751 278.574V270.619C156.767 268.711 158.332 267.146 160.24 267.146ZM703.821 299.461H711.777C712.698 299.462 713.58 299.828 714.231 300.479C714.882 301.13 715.248 302.013 715.249 302.933V310.889C715.248 311.81 714.882 312.692 714.231 313.343C713.58 313.994 712.698 314.36 711.777 314.361H703.821C702.901 314.358 702.02 313.991 701.369 313.34C700.719 312.69 700.352 311.809 700.348 310.889V302.933C700.332 301.026 701.897 299.461 703.821 299.461ZM731.404 299.461H739.36C740.28 299.465 741.161 299.832 741.811 300.482C742.461 301.132 742.828 302.013 742.832 302.933V310.889C742.831 311.81 742.465 312.692 741.814 313.343C741.163 313.994 740.281 314.36 739.36 314.361H731.404C730.484 314.358 729.603 313.991 728.952 313.34C728.302 312.69 727.935 311.809 727.931 310.889V302.933C727.935 302.013 728.302 301.132 728.952 300.482C729.603 299.831 730.484 299.465 731.404 299.461V299.461ZM759.005 299.461H766.961C767.881 299.465 768.762 299.831 769.413 300.482C770.063 301.132 770.43 302.013 770.434 302.933V310.889C770.433 311.81 770.067 312.693 769.416 313.344C768.765 313.995 767.882 314.361 766.961 314.361H759.005C758.085 314.357 757.204 313.99 756.554 313.34C755.904 312.69 755.537 311.809 755.533 310.889V302.933C755.517 301.026 757.082 299.461 759.005 299.461ZM786.587 299.461H794.543C795.463 299.465 796.344 299.831 796.995 300.482C797.645 301.132 798.012 302.013 798.016 302.933V310.889C798.015 311.81 797.649 312.693 796.998 313.344C796.347 313.995 795.464 314.361 794.543 314.361H786.587C784.664 314.361 783.099 312.796 783.099 310.889V302.933C783.115 301.026 784.68 299.461 786.587 299.461ZM814.172 299.461H822.127C824.051 299.461 825.616 301.026 825.616 302.933V310.889C825.615 311.346 825.524 311.799 825.349 312.221C825.173 312.643 824.915 313.026 824.591 313.348C824.267 313.671 823.883 313.926 823.46 314.1C823.037 314.274 822.584 314.363 822.127 314.361H814.172C813.252 314.358 812.371 313.991 811.72 313.34C811.07 312.69 810.703 311.809 810.699 310.889V302.933C810.703 302.013 811.07 301.132 811.72 300.482C812.371 299.831 813.252 299.465 814.172 299.461V299.461ZM732.415 329.539H740.37C741.29 329.543 742.171 329.909 742.822 330.56C743.472 331.21 743.839 332.091 743.843 333.011V340.983C743.839 341.903 743.472 342.784 742.822 343.435C742.171 344.085 741.29 344.452 740.37 344.456H732.415C731.494 344.455 730.611 344.089 729.96 343.438C729.309 342.787 728.943 341.904 728.942 340.983V333.027C728.94 332.57 729.028 332.116 729.201 331.693C729.375 331.27 729.63 330.885 729.953 330.561C730.276 330.236 730.659 329.979 731.082 329.804C731.505 329.629 731.958 329.539 732.415 329.539V329.539ZM759.996 329.539H767.951C768.871 329.543 769.752 329.909 770.403 330.56C771.053 331.21 771.42 332.091 771.424 333.011V340.983C771.42 341.903 771.053 342.784 770.403 343.435C769.752 344.085 768.871 344.452 767.951 344.456H759.996C759.076 344.452 758.195 344.085 757.544 343.435C756.894 342.784 756.527 341.903 756.523 340.983V333.027C756.521 332.57 756.609 332.116 756.782 331.693C756.956 331.27 757.211 330.885 757.534 330.561C757.857 330.236 758.24 329.979 758.663 329.804C759.086 329.629 759.539 329.539 759.996 329.539V329.539ZM787.582 329.539H795.538C797.461 329.539 799.026 331.104 799.026 333.011V340.983C799.026 342.89 797.461 344.456 795.538 344.456H787.582C786.662 344.452 785.781 344.085 785.13 343.435C784.48 342.784 784.113 341.903 784.109 340.983V333.027C784.109 331.104 785.674 329.539 787.582 329.539V329.539ZM759.005 267.146H766.961C767.881 267.15 768.763 267.517 769.413 268.167C770.064 268.818 770.431 269.699 770.434 270.619V278.574C770.433 279.495 770.067 280.378 769.416 281.029C768.765 281.68 767.882 282.046 766.961 282.047H759.005C758.085 282.043 757.204 281.676 756.554 281.026C755.903 280.375 755.537 279.494 755.533 278.574V270.619C755.517 268.711 757.082 267.146 759.005 267.146ZM731.429 267.146H739.385C740.305 267.15 741.186 267.517 741.836 268.167C742.487 268.818 742.854 269.699 742.857 270.619V278.574C742.857 279.495 742.491 280.378 741.84 281.029C741.189 281.68 740.306 282.046 739.385 282.047H731.429C730.509 282.043 729.628 281.676 728.978 281.026C728.327 280.375 727.961 279.494 727.957 278.574V270.619C727.94 268.711 729.506 267.146 731.429 267.146ZM786.587 267.146H794.543C795.463 267.15 796.345 267.517 796.995 268.167C797.646 268.818 798.013 269.699 798.016 270.619V278.574C798.015 279.495 797.649 280.378 796.998 281.029C796.347 281.68 795.464 282.046 794.543 282.047H786.587C784.664 282.047 783.099 280.482 783.099 278.574V270.619C783.115 268.711 784.68 267.146 786.587 267.146ZM154.744 112.977H160.023C160.634 112.978 161.22 113.221 161.652 113.653C162.084 114.085 162.327 114.671 162.327 115.282V120.561C162.327 121.172 162.084 121.758 161.652 122.19C161.22 122.622 160.634 122.865 160.023 122.865H154.744C154.134 122.863 153.549 122.619 153.118 122.188C152.686 121.756 152.443 121.171 152.44 120.561V115.282C152.429 114.016 153.467 112.977 154.744 112.977ZM173.048 112.977H178.327C178.938 112.98 179.522 113.223 179.954 113.655C180.386 114.087 180.629 114.672 180.631 115.282V120.561C180.631 121.172 180.388 121.758 179.956 122.19C179.524 122.622 178.938 122.865 178.327 122.865H173.048C172.438 122.863 171.853 122.619 171.422 122.187C170.99 121.756 170.747 121.171 170.744 120.561V115.282C170.747 114.672 170.99 114.087 171.422 113.655C171.853 113.224 172.438 112.98 173.048 112.977ZM191.363 112.977H196.642C197.253 112.98 197.837 113.223 198.269 113.655C198.701 114.087 198.944 114.672 198.946 115.282V120.561C198.946 121.172 198.703 121.758 198.271 122.19C197.839 122.622 197.253 122.865 196.642 122.865H191.363C190.753 122.863 190.168 122.619 189.737 122.188C189.305 121.756 189.062 121.171 189.059 120.561V115.282C189.048 114.016 190.087 112.977 191.363 112.977ZM209.665 112.977H214.944C215.555 112.98 216.139 113.223 216.571 113.655C217.003 114.087 217.246 114.672 217.248 115.282V120.561C217.248 121.172 217.005 121.758 216.573 122.19C216.141 122.622 215.555 122.865 214.944 122.865H209.665C209.053 122.865 208.466 122.623 208.032 122.191C207.598 121.759 207.353 121.173 207.35 120.561V115.282C207.357 114.671 207.603 114.087 208.036 113.656C208.469 113.225 209.054 112.981 209.665 112.977ZM227.969 112.977H233.248C233.86 112.977 234.447 113.22 234.881 113.652C235.315 114.084 235.56 114.67 235.563 115.282V120.561C235.562 120.864 235.502 121.165 235.385 121.445C235.269 121.725 235.098 121.979 234.883 122.193C234.668 122.407 234.413 122.576 234.132 122.692C233.852 122.807 233.551 122.866 233.248 122.865H227.969C227.359 122.863 226.774 122.619 226.342 122.188C225.91 121.756 225.667 121.172 225.664 120.561V115.282C225.667 114.672 225.91 114.087 226.342 113.655C226.774 113.223 227.359 112.98 227.969 112.977V112.977ZM173.718 132.935H178.997C179.607 132.938 180.192 133.181 180.624 133.613C181.055 134.044 181.299 134.629 181.301 135.239V140.529C181.299 141.14 181.056 141.724 180.624 142.156C180.192 142.588 179.608 142.831 178.997 142.833H173.718C173.107 142.833 172.522 142.59 172.09 142.158C171.658 141.726 171.415 141.14 171.414 140.529V135.25C171.412 134.947 171.471 134.646 171.586 134.365C171.701 134.084 171.87 133.828 172.084 133.613C172.299 133.398 172.553 133.227 172.834 133.111C173.114 132.995 173.415 132.935 173.718 132.935V132.935ZM192.02 132.935H197.299C197.91 132.938 198.494 133.181 198.926 133.613C199.358 134.044 199.602 134.629 199.604 135.239V140.529C199.602 141.14 199.358 141.724 198.926 142.156C198.495 142.588 197.91 142.831 197.299 142.833H192.02C191.41 142.831 190.825 142.587 190.394 142.156C189.962 141.724 189.719 141.139 189.716 140.529V135.25C189.714 134.947 189.773 134.646 189.888 134.365C190.003 134.084 190.172 133.828 190.386 133.613C190.601 133.398 190.855 133.227 191.136 133.111C191.416 132.995 191.717 132.935 192.02 132.935ZM210.325 132.935H215.604C216.216 132.935 216.803 133.178 217.237 133.61C217.671 134.041 217.916 134.627 217.919 135.239V140.529C217.916 141.141 217.671 141.727 217.237 142.159C216.803 142.591 216.216 142.833 215.604 142.833H210.325C209.715 142.831 209.13 142.588 208.698 142.156C208.267 141.724 208.023 141.14 208.021 140.529V135.25C208.021 134.638 208.264 134.051 208.695 133.617C209.127 133.183 209.713 132.938 210.325 132.935ZM191.363 91.5352H196.642C197.252 91.5375 197.837 91.781 198.269 92.2126C198.7 92.6442 198.944 93.2288 198.946 93.8392V99.1182C198.946 99.7291 198.703 100.315 198.271 100.747C197.839 101.179 197.253 101.422 196.642 101.422H191.363C190.753 101.42 190.168 101.176 189.737 100.745C189.305 100.313 189.062 99.7285 189.059 99.1182V93.8382C189.048 92.5732 190.087 91.5352 191.363 91.5352ZM173.064 91.5352H178.343C178.953 91.5375 179.538 91.781 179.97 92.2126C180.401 92.6442 180.645 93.2288 180.647 93.8392V99.1182C180.647 99.7291 180.404 100.315 179.972 100.747C179.54 101.179 178.954 101.422 178.343 101.422H173.064C172.454 101.42 171.869 101.176 171.438 100.744C171.006 100.313 170.763 99.7284 170.76 99.1182V93.8382C170.749 92.5732 171.788 91.5352 173.064 91.5352ZM209.665 91.5352H214.944C215.554 91.5375 216.139 91.781 216.571 92.2126C217.002 92.6442 217.246 93.2288 217.248 93.8392V99.1182C217.248 99.7291 217.005 100.315 216.573 100.747C216.141 101.179 215.555 101.422 214.944 101.422H209.665C209.053 101.422 208.466 101.18 208.032 100.748C207.598 100.316 207.353 99.7302 207.35 99.1182V93.8382C207.357 93.2275 207.604 92.644 208.037 92.2133C208.47 91.7826 209.054 91.539 209.665 91.5352V91.5352ZM666.357 489.957H671.636C672.247 489.957 672.833 490.2 673.265 490.632C673.697 491.064 673.94 491.65 673.94 492.261V497.54C673.94 498.151 673.697 498.737 673.265 499.169C672.833 499.601 672.247 499.844 671.636 499.844H666.357C665.747 499.842 665.162 499.598 664.731 499.167C664.299 498.735 664.055 498.15 664.053 497.54V492.261C664.042 490.995 665.081 489.957 666.357 489.957ZM684.662 489.957H689.941C690.552 489.959 691.136 490.203 691.568 490.634C692 491.066 692.243 491.651 692.245 492.261V497.54C692.245 498.151 692.002 498.737 691.57 499.169C691.138 499.601 690.552 499.844 689.941 499.844H684.662C684.052 499.842 683.467 499.599 683.035 499.167C682.604 498.735 682.36 498.151 682.358 497.54V492.261C682.36 491.651 682.604 491.066 683.035 490.634C683.467 490.203 684.052 489.959 684.662 489.957V489.957ZM702.976 489.957H708.255C708.866 489.959 709.451 490.203 709.882 490.634C710.314 491.066 710.558 491.651 710.56 492.261V497.54C710.56 498.151 710.317 498.737 709.884 499.169C709.452 499.601 708.866 499.844 708.255 499.844H702.976C702.366 499.842 701.781 499.598 701.35 499.167C700.918 498.735 700.674 498.15 700.672 497.54V492.261C700.661 490.995 701.7 489.957 702.976 489.957ZM721.278 489.957H726.557C727.168 489.959 727.752 490.203 728.184 490.634C728.616 491.066 728.859 491.651 728.861 492.261V497.54C728.861 498.151 728.618 498.737 728.186 499.169C727.754 499.601 727.168 499.844 726.557 499.844H721.278C720.666 499.844 720.079 499.602 719.645 499.17C719.211 498.738 718.966 498.152 718.963 497.54V492.261C718.97 491.65 719.216 491.066 719.649 490.635C720.082 490.204 720.667 489.961 721.278 489.957V489.957ZM739.582 489.957H744.861C745.473 489.957 746.06 490.2 746.494 490.631C746.928 491.063 747.173 491.649 747.176 492.261V497.54C747.176 497.844 747.115 498.144 746.999 498.424C746.882 498.704 746.711 498.958 746.496 499.172C746.281 499.386 746.026 499.556 745.746 499.671C745.465 499.786 745.164 499.845 744.861 499.844H739.582C738.972 499.842 738.387 499.599 737.955 499.167C737.524 498.735 737.28 498.151 737.278 497.54V492.261C737.28 491.651 737.524 491.066 737.955 490.634C738.387 490.203 738.972 489.959 739.582 489.957V489.957ZM685.332 509.915H690.611C691.222 509.917 691.806 510.161 692.238 510.592C692.67 511.024 692.913 511.609 692.915 512.219V517.509C692.913 518.119 692.669 518.704 692.238 519.136C691.806 519.567 691.221 519.811 690.611 519.813H685.332C684.721 519.813 684.136 519.57 683.704 519.138C683.272 518.706 683.029 518.12 683.028 517.509V512.23C683.026 511.927 683.084 511.625 683.199 511.344C683.314 511.063 683.484 510.808 683.698 510.593C683.912 510.377 684.167 510.207 684.447 510.091C684.728 509.974 685.028 509.915 685.332 509.915V509.915ZM703.634 509.915H708.913C709.523 509.918 710.108 510.161 710.54 510.593C710.971 511.024 711.215 511.609 711.217 512.219V517.509C711.214 518.119 710.971 518.704 710.539 519.135C710.108 519.567 709.523 519.811 708.913 519.813H703.634C703.024 519.811 702.439 519.567 702.007 519.136C701.575 518.704 701.332 518.12 701.329 517.509V512.23C701.327 511.927 701.386 511.626 701.501 511.345C701.616 511.064 701.786 510.808 702 510.593C702.214 510.378 702.469 510.207 702.749 510.091C703.03 509.974 703.33 509.915 703.634 509.915V509.915ZM721.938 509.915H727.217C727.829 509.915 728.416 510.158 728.85 510.589C729.284 511.021 729.529 511.607 729.532 512.219V517.509C729.529 518.121 729.284 518.707 728.85 519.139C728.416 519.571 727.829 519.813 727.217 519.813H721.938C721.328 519.811 720.743 519.567 720.312 519.135C719.88 518.704 719.637 518.119 719.634 517.509V512.23C719.634 511.618 719.877 511.031 720.308 510.597C720.74 510.163 721.326 509.918 721.938 509.915V509.915ZM702.976 468.514H708.255C708.866 468.516 709.451 468.76 709.882 469.191C710.314 469.623 710.558 470.208 710.56 470.818V476.097C710.56 476.708 710.317 477.294 709.884 477.726C709.452 478.158 708.866 478.401 708.255 478.401H702.976C702.366 478.399 701.781 478.155 701.35 477.724C700.918 477.292 700.674 476.707 700.672 476.097V470.818C700.661 469.552 701.7 468.514 702.976 468.514ZM684.678 468.514H689.957C690.567 468.517 691.152 468.76 691.584 469.192C692.015 469.623 692.259 470.208 692.261 470.818V476.097C692.261 476.708 692.018 477.294 691.586 477.726C691.154 478.158 690.568 478.401 689.957 478.401H684.678C684.068 478.399 683.483 478.156 683.051 477.724C682.619 477.292 682.375 476.708 682.373 476.097V470.818C682.363 469.552 683.401 468.514 684.678 468.514ZM721.278 468.514H726.557C727.168 468.516 727.752 468.76 728.184 469.191C728.616 469.623 728.859 470.208 728.861 470.818V476.097C728.861 476.708 728.618 477.294 728.186 477.726C727.754 478.158 727.168 478.401 726.557 478.401H721.278C720.666 478.401 720.079 478.159 719.645 477.727C719.211 477.295 718.966 476.709 718.963 476.097V470.818C718.97 470.207 719.216 469.623 719.649 469.192C720.082 468.761 720.667 468.518 721.278 468.514V468.514ZM666.357 112.977H671.636C672.247 112.978 672.833 113.221 673.265 113.653C673.697 114.085 673.94 114.671 673.94 115.282V120.561C673.94 121.172 673.697 121.758 673.265 122.19C672.833 122.622 672.247 122.865 671.636 122.865H666.357C665.747 122.863 665.162 122.619 664.731 122.187C664.299 121.756 664.056 121.171 664.053 120.561V115.282C664.042 114.016 665.081 112.977 666.357 112.977ZM684.662 112.977H689.941C690.552 112.98 691.136 113.223 691.568 113.655C692 114.087 692.243 114.672 692.245 115.282V120.561C692.245 121.172 692.002 121.758 691.57 122.19C691.138 122.622 690.552 122.865 689.941 122.865H684.662C684.052 122.863 683.467 122.619 683.036 122.188C682.604 121.756 682.36 121.171 682.358 120.561V115.282C682.36 114.672 682.604 114.087 683.035 113.655C683.467 113.223 684.052 112.98 684.662 112.977V112.977ZM702.976 112.977H708.255C708.866 112.98 709.451 113.223 709.882 113.655C710.314 114.087 710.558 114.672 710.56 115.282V120.561C710.559 121.172 710.316 121.758 709.884 122.19C709.452 122.622 708.866 122.865 708.255 122.865H702.976C702.366 122.863 701.781 122.619 701.35 122.187C700.918 121.756 700.675 121.171 700.672 120.561V115.282C700.661 114.016 701.7 112.977 702.976 112.977ZM721.278 112.977H726.557C727.168 112.98 727.752 113.223 728.184 113.655C728.616 114.087 728.859 114.672 728.861 115.282V120.561C728.861 121.172 728.618 121.758 728.186 122.19C727.754 122.622 727.168 122.865 726.557 122.865H721.278C720.666 122.865 720.079 122.622 719.645 122.191C719.212 121.759 718.966 121.173 718.963 120.561V115.282C718.97 114.671 719.216 114.087 719.649 113.656C720.082 113.225 720.667 112.981 721.278 112.977ZM739.582 112.977H744.861C745.473 112.977 746.06 113.22 746.494 113.652C746.928 114.084 747.173 114.67 747.176 115.282V120.561C747.175 120.864 747.115 121.165 746.998 121.445C746.882 121.725 746.711 121.979 746.496 122.193C746.281 122.407 746.026 122.576 745.745 122.692C745.465 122.807 745.164 122.866 744.861 122.865H739.582C738.972 122.863 738.387 122.619 737.956 122.188C737.524 121.756 737.281 121.171 737.278 120.561V115.282C737.28 114.672 737.524 114.087 737.955 113.655C738.387 113.223 738.972 112.98 739.582 112.977V112.977ZM685.332 132.935H690.611C691.221 132.938 691.806 133.181 692.238 133.613C692.669 134.044 692.913 134.629 692.915 135.239V140.529C692.913 141.14 692.67 141.724 692.238 142.156C691.806 142.588 691.222 142.831 690.611 142.833H685.332C684.721 142.833 684.135 142.59 683.703 142.158C683.271 141.726 683.028 141.14 683.028 140.529V135.25C683.026 134.947 683.085 134.646 683.2 134.365C683.315 134.084 683.484 133.828 683.698 133.613C683.912 133.398 684.167 133.227 684.447 133.111C684.728 132.994 685.028 132.935 685.332 132.935V132.935ZM703.634 132.935H708.913C709.523 132.938 710.108 133.181 710.539 133.613C710.971 134.044 711.214 134.629 711.217 135.239V140.529C711.215 141.139 710.971 141.724 710.54 142.156C710.108 142.587 709.523 142.831 708.913 142.833H703.634C703.024 142.831 702.439 142.588 702.007 142.156C701.575 141.724 701.331 141.14 701.329 140.529V135.25C701.328 134.947 701.386 134.646 701.501 134.365C701.616 134.084 701.786 133.828 702 133.613C702.214 133.398 702.469 133.227 702.749 133.111C703.03 132.995 703.33 132.935 703.634 132.935V132.935ZM721.938 132.935H727.217C727.829 132.935 728.416 133.178 728.85 133.609C729.284 134.041 729.529 134.627 729.532 135.239V140.529C729.529 141.141 729.284 141.727 728.85 142.159C728.416 142.591 727.829 142.833 727.217 142.833H721.938C721.328 142.831 720.743 142.587 720.312 142.156C719.88 141.724 719.636 141.139 719.634 140.529V135.25C719.634 134.638 719.877 134.051 720.309 133.617C720.74 133.184 721.326 132.938 721.938 132.935V132.935ZM702.976 91.5352H708.255C708.866 91.5375 709.45 91.781 709.882 92.2125C710.314 92.6441 710.557 93.2287 710.56 93.8392V99.1182C710.559 99.7291 710.316 100.315 709.884 100.747C709.452 101.179 708.866 101.422 708.255 101.422H702.976C702.366 101.42 701.781 101.176 701.35 100.744C700.918 100.313 700.675 99.7284 700.672 99.1182V93.8382C700.661 92.5732 701.7 91.5352 702.976 91.5352ZM684.678 91.5352H689.957C690.567 91.5375 691.152 91.781 691.584 92.2126C692.015 92.6442 692.259 93.2288 692.261 93.8392V99.1182C692.26 99.729 692.017 100.315 691.585 100.746C691.154 101.178 690.568 101.421 689.957 101.422H684.678C684.068 101.42 683.483 101.176 683.051 100.745C682.619 100.313 682.376 99.7286 682.373 99.1182V93.8382C682.363 92.5732 683.401 91.5352 684.678 91.5352ZM721.278 91.5352H726.557C727.167 91.5375 727.752 91.781 728.184 92.2126C728.615 92.6442 728.859 93.2288 728.861 93.8392V99.1182C728.861 99.7291 728.618 100.315 728.186 100.747C727.754 101.179 727.168 101.422 726.557 101.422H721.278C720.666 101.422 720.079 101.179 719.645 100.748C719.212 100.316 718.966 99.7301 718.963 99.1182V93.8382C718.97 93.2275 719.217 92.644 719.65 92.2133C720.083 91.7826 720.667 91.539 721.278 91.5352V91.5352Z" fill="#E1E4E5"/>
<path d="M309.85 96.11C305.677 96.11 302.295 92.7275 302.295 88.555C302.295 84.3825 305.677 81 309.85 81C314.022 81 317.405 84.3825 317.405 88.555C317.405 92.7275 314.022 96.11 309.85 96.11Z" fill="#E1E4E5"/>
<path d="M583.804 96.11C579.631 96.11 576.249 92.7275 576.249 88.555C576.249 84.3825 579.631 81 583.804 81C587.976 81 591.359 84.3825 591.359 88.555C591.359 92.7275 587.976 96.11 583.804 96.11Z" fill="#E1E4E5"/>
<path d="M747.707 212.012C743.535 212.012 740.152 208.63 740.152 204.457C740.152 200.285 743.535 196.902 747.707 196.902C751.88 196.902 755.262 200.285 755.262 204.457C755.262 208.63 751.88 212.012 747.707 212.012Z" fill="#E1E4E5"/>
<path d="M743.025 423.919C738.853 423.919 735.47 420.536 735.47 416.364C735.47 412.191 738.853 408.809 743.025 408.809C747.198 408.809 750.58 412.191 750.58 416.364C750.58 420.536 747.198 423.919 743.025 423.919Z" fill="#E1E4E5"/>
<path d="M184.58 423.919C180.407 423.919 177.025 420.536 177.025 416.364C177.025 412.191 180.407 408.809 184.58 408.809C188.752 408.809 192.135 412.191 192.135 416.364C192.135 420.536 188.752 423.919 184.58 423.919Z" fill="#E1E4E5"/>
<path d="M168.19 212.012C164.018 212.012 160.635 208.63 160.635 204.457C160.635 200.285 164.018 196.902 168.19 196.902C172.363 196.902 175.745 200.285 175.745 204.457C175.745 208.63 172.363 212.012 168.19 212.012Z" fill="#E1E4E5"/>
</g>
<defs>
<clipPath id="clip0_1235_31293">
<rect width="900" height="600" fill="white"/>
</clipPath>
</defs>
</svg>
