<svg width="900" height="600" viewBox="0 0 900 600" fill="none" xmlns="http://www.w3.org/2000/svg">
<g clip-path="url(#clip0_1235_19224)">
<path fill-rule="evenodd" clip-rule="evenodd" d="M484 143.999C484 166.09 466.092 184 444 184C421.909 184 404 166.09 404 143.999C404 121.909 421.909 104 444 104C466.092 104 484 121.909 484 143.999ZM743.084 223.804C757.195 223.804 750.593 201.427 732.715 206.772C731.725 175.702 681.082 152.969 660.141 194.875C654.22 190.19 640.925 199.039 643.869 206.772C637.292 207.333 632.118 208.093 628.093 209.101C618.798 211.428 620.638 223.699 630.219 223.613L743.084 223.804ZM477.22 223.804C463.876 223.804 470.119 202.644 487.024 207.698C487.96 178.318 535.849 156.821 555.652 196.448C561.251 192.018 573.823 200.386 571.039 207.698C577.258 208.228 582.15 208.948 585.957 209.9C594.746 212.101 593.006 223.705 583.947 223.624L477.22 223.804ZM639.44 146.343C633.082 146.343 636.057 136.26 644.112 138.668C644.558 124.668 667.378 114.425 676.814 133.307C679.482 131.196 685.472 135.184 684.146 138.668C687.109 138.921 689.441 139.264 691.255 139.718C695.443 140.766 694.614 146.295 690.297 146.257L639.44 146.343ZM583.357 183.522H619.582C622.821 183.522 624.216 179.329 621.566 177.469L621.454 177.39C617.68 174.797 612.728 175.032 612.728 175.032C612.728 175.032 612.021 161 598.696 161C586.649 161 581.845 172.823 580.113 179.337C579.55 181.453 581.167 183.522 583.357 183.522ZM189.374 222.522H149.376C146.138 222.522 144.741 218.329 147.392 216.468L147.505 216.39C151.278 213.796 156.231 214.031 156.231 214.031C156.231 214.031 156.938 200 170.263 200C176.851 200 182.174 211.261 182.174 211.261C182.174 211.261 191.136 211.261 192.619 218.336C193.068 220.48 191.565 222.522 189.374 222.522ZM245.752 226H405.463C420.455 226 419.767 213.592 414.87 209.268C409.851 204.836 399.934 206.634 399.934 206.634C399.934 206.634 396.981 198.288 387.263 194.224C378.666 190.63 369.661 192.34 369.661 192.34C369.661 192.34 369.661 186.612 364.157 181.869C358.652 177.124 351.313 177.586 351.313 177.586C351.313 177.586 346.268 146 312.555 146C278.841 146 274.943 175.74 274.943 175.74C274.943 175.74 267.374 175.74 261.87 180.813C256.365 185.885 255.678 191.648 255.678 191.648C255.678 191.648 237.27 189.155 231.825 205.118C228.581 214.631 235.247 226 245.752 226ZM188.624 161.075H238.683C243.382 161.075 243.166 157.186 241.631 155.83C240.058 154.441 236.95 155.005 236.95 155.005C236.95 155.005 236.024 152.389 232.978 151.115C230.284 149.989 227.461 150.525 227.461 150.525C227.461 150.525 227.461 148.729 225.736 147.242C224.011 145.755 221.71 145.9 221.71 145.9C221.71 145.9 220.129 136 209.562 136C198.995 136 197.773 145.322 197.773 145.322C197.773 145.322 195.401 145.322 193.676 146.912C191.95 148.501 191.735 150.308 191.735 150.308C191.735 150.308 185.965 149.526 184.259 154.53C183.242 157.512 185.331 161.075 188.624 161.075Z" fill="white" stroke="#E1E4E5" stroke-width="4"/>
<path d="M391.683 491.819V383M504.647 491.819V383" stroke="#E1E4E5" stroke-width="4" stroke-linecap="round" stroke-linejoin="round"/>
<path fill-rule="evenodd" clip-rule="evenodd" d="M372.916 430.141H523.352V412.723H372.916V430.141ZM372.916 404.803H523.352V386.33H372.916V404.803Z" fill="white" stroke="#E1E4E5" stroke-width="4"/>
<path fill-rule="evenodd" clip-rule="evenodd" d="M358.135 458.116H538.132V444.92H358.135V458.116Z" fill="white"/>
<path fill-rule="evenodd" clip-rule="evenodd" d="M358.135 458.116H538.132V444.92H358.135V458.116Z" fill="white" stroke="#E1E4E5" stroke-width="4"/>
<path d="M725.225 501.992C700.815 502.436 694.355 504.324 669.016 503.547C656.947 503.658 644.065 503.325 632.266 503.103C626.657 501.659 616.792 503.103 610.138 501.881L607.585 502.658C605.303 502.214 602.633 501.992 600.312 502.436L600.467 502.658C597.063 502.103 593.195 502.436 591.531 502.103L591.686 502.325L587.547 502.214L588.243 502.547C582.285 501.881 576.173 501.881 570.757 502.103L571.222 501.104C559.655 502.214 555.438 500.215 545.032 501.437L545.187 501.659C531.996 499.105 524.375 503.436 510.796 500.993C512.499 501.326 510.061 501.437 510.216 501.77C503.949 501.548 497.295 501.326 497.179 499.438C492.615 499.438 493.466 499.993 492.885 500.77C492.924 499.993 488.94 499.549 485.381 499.549L487.005 499.882L476.793 499.549L478.804 497.994C473.388 498.438 477.412 499.882 472.267 499.549L472.344 498.216C464.878 498.438 460.468 500.437 453.234 501.437C423.137 501.992 390.797 498.66 362.828 500.993L361.59 501.992C361.049 503.436 353.853 499.882 352.809 501.215L349.559 500.548C348.631 500.77 346.697 501.104 348.321 501.437C345.304 501.548 345.227 501.215 343.06 500.881L339.811 501.77C327.935 502.436 317.838 500.77 305.343 501.104C290.333 502.88 262.055 501.215 245.769 500.326C222.867 498.216 196.252 503.88 172.81 501.437C172.036 501.659 170.063 501.215 170.102 500.993L148.632 501.215C148.632 501.215 44.609 501.77 123.642 489.887L123.1 489.554C134.86 488.776 142.249 488.665 150.334 490.22C151.61 488.332 159.966 489.998 162.713 489.443L162.442 489.332C169.599 490.775 177.181 488.11 184.105 489.443C183.835 489.332 183.68 488.776 182.094 488.776C187.123 488.999 194.009 489.443 194.396 488.332C206.426 488.665 223.177 488.11 230.875 489.887L230.334 489.554C234.705 490.775 236.02 489.776 240.933 490.331C241.204 490.22 241.552 490.109 241.475 489.998C246.271 491.22 255.44 490.22 259.27 490.664L259.502 489.887L269.018 490.109L265.459 490.22C266.697 492.219 272.654 488.888 279.54 490.22C286.001 489.998 292.654 494.44 299.347 493.441C302.558 494.44 296.523 491.886 301.32 492.663C301.474 491.553 299.076 491.997 300.314 491.109C304.995 491.664 308.012 489.998 313.815 490.775L314.047 489.998C321.59 491.553 328.283 488.887 333.312 490.331C341.087 490.998 338.534 487.888 346.658 489.443L349.83 488.332C353.312 488.11 352.306 489.665 356.174 489.11C355.942 488.443 361.049 488.554 358.766 487.888C367.47 486.777 376.445 489.443 387.934 487.555C390.41 488.887 396.213 488.11 398.07 489.11C398.379 488.554 409.636 488.998 403.176 487.666C402.634 487.555 401.629 487.555 401.706 487.777L400.932 486.999C407.47 485.445 412.808 487.888 419.307 487.555C417.373 487.777 414.82 487.777 416.522 488.332L422.557 488.221L421.319 487.555L430.294 487.111L429.056 487.999C433.427 487.555 434.975 486.111 439.926 487.333C442.17 487.999 435.787 488.443 440.391 488.776C446.271 488.221 455.052 487.333 462.518 487.111C461.822 488.11 463.833 487.999 465.922 488.221L466.154 487.444C474.085 488.554 469.056 485.667 476.947 486.555L476.251 486L478.34 487.777C485.458 489.443 482.17 486.111 490.061 488.332C486.928 488.221 488.592 490.109 492.421 489.776L491.454 488.999C493.582 489.221 494.278 489.554 495.709 489.332C494.433 488.887 495.052 488.221 498.185 488.332L496.096 487.333L502.015 488.776C506.58 487.888 513.814 488.998 515.709 487.888C515.709 487.888 525.535 487.333 527.779 488.554C525.806 487.777 531.222 487.444 529.674 486.555C532.228 487.444 539.732 488.11 542.75 487.222L542.17 487.111C553.311 486.111 561.202 488.443 571.183 487.222C570.719 488.221 576.019 487.666 574.703 488.887C585.032 490.109 593.543 486.333 597.295 490.22C602.015 490.442 602.866 489.332 605.303 489.11L604.181 488.887C613.001 489.221 615.554 489.221 622.092 489.11C625.341 489.443 625.883 491.22 631.724 490.775C629.829 490.109 632.227 490.22 634.393 490.22C633.001 490.109 632.575 489.887 635.438 489.332C635.825 489.554 636.482 489.665 637.063 489.776C637.101 489.776 637.217 489.665 637.14 489.554C640.776 489.776 640.157 489.998 638.455 490.109C638.533 490.22 638.417 490.331 637.875 490.553C641.666 489.665 648.436 490.664 648.9 489.443C659.887 489.776 667.74 490.998 676.869 491.442C677.914 490.775 675.747 490.22 673.117 489.998L679.616 490.22C679.577 489.332 675.902 489.665 673.89 489.554C681.627 488.11 689.828 490.998 698.881 489.665L700.776 490.331L701.318 490.22C701.279 490.553 703.329 491.109 704.645 491.22C705.921 490.442 704.567 489.443 709.055 489.443C712.614 488.665 719.113 489.776 723.755 490.22C721.24 490.331 722.053 490.775 723.136 491.109C725.38 491.109 726.656 490.331 728.397 490.664L728.629 489.665C727.739 490.664 734.47 490.775 735.321 491.109C736.598 490.331 731.84 490.442 731.298 489.887C740.273 489.998 735.786 489.887 744.799 489.998C749.596 490.775 743.909 490.997 746.231 491.886C750.447 492.108 754.586 492.774 759.461 492.219L757.913 493.108C765.882 493.885 770.64 493.774 775.979 492.774C835.244 500.326 788.474 503.103 788.474 503.103C765.031 505.435 753 502.769 725.225 501.992Z" fill="#E1E4E5"/>
<path d="M738.368 508.235C712.792 509.269 706.023 513.665 679.475 511.855C666.829 512.113 653.332 511.338 640.97 510.821C635.092 507.459 624.757 510.821 617.785 507.976L615.11 509.786C612.719 508.752 609.922 508.234 607.49 509.269L607.652 509.786C604.086 508.493 600.032 509.269 598.29 508.493L598.452 509.01L594.115 508.752L594.844 509.528C588.602 507.976 582.198 507.976 576.524 508.493L577.01 506.166C564.891 508.752 560.473 504.097 549.57 506.942L549.732 507.459C535.911 501.512 527.926 511.596 513.7 505.908C515.483 506.683 512.929 506.942 513.092 507.717C506.525 507.2 499.554 506.683 499.432 502.288C494.65 502.288 495.541 503.58 494.933 505.39C494.974 503.58 490.799 502.546 487.07 502.546L488.772 503.322L478.072 502.546L480.18 498.926C474.505 499.96 478.721 503.322 473.33 502.546L473.411 499.443C465.588 499.96 460.968 504.615 453.388 506.942C421.854 508.235 387.97 500.478 358.665 505.908L357.368 508.235C356.801 511.596 349.262 503.322 348.168 506.424L344.763 504.873C343.79 505.39 341.764 506.166 343.466 506.942C340.304 507.2 340.223 506.424 337.954 505.649L334.549 507.717C322.106 509.269 311.527 505.39 298.435 506.166C282.709 510.303 253.08 506.425 236.016 504.356C212.021 499.443 184.135 512.63 159.573 506.942C158.762 507.459 156.695 506.425 156.736 505.908L134.241 506.424C134.241 506.424 25.251 507.718 108.057 480.05L107.49 479.275C119.811 477.465 127.553 477.206 136.024 480.826C137.362 476.43 146.116 480.309 148.994 479.016L148.71 478.757C156.209 482.119 164.153 475.913 171.408 479.016C171.125 478.757 170.963 477.464 169.301 477.464C174.57 477.981 181.784 479.016 182.19 476.43C194.795 477.206 212.345 475.913 220.411 480.05L219.844 479.275C224.424 482.119 225.802 479.791 230.95 481.084C231.233 480.826 231.598 480.567 231.517 480.309C236.543 483.153 246.149 480.826 250.162 481.86L250.405 480.05L260.376 480.567L256.647 480.826C257.944 485.48 264.186 477.723 271.4 480.826C278.169 480.309 285.141 490.652 292.153 488.324C295.517 490.652 289.194 484.705 294.22 486.515C294.382 483.929 291.869 484.963 293.166 482.895C298.07 484.187 301.232 480.309 307.312 482.119L307.555 480.309C315.458 483.929 322.47 477.723 327.74 481.084C335.887 482.636 333.211 475.396 341.723 479.016L345.047 476.43C348.695 475.913 347.641 479.533 351.694 478.24C351.451 476.689 356.801 476.947 354.41 475.396C363.529 472.81 372.933 479.016 384.971 474.62C387.565 477.723 393.644 475.913 395.59 478.24C395.914 476.947 407.709 477.981 400.94 474.878C400.373 474.62 399.319 474.62 399.4 475.137L398.589 473.327C405.439 469.707 411.032 475.396 417.842 474.62C415.815 475.137 413.14 475.137 414.923 476.43L421.246 476.171L419.95 474.62L429.353 473.586L428.056 475.655C432.636 474.62 434.257 471.258 439.445 474.103C441.796 475.654 435.108 476.689 439.932 477.464C446.093 476.171 455.293 474.103 463.116 473.586C462.386 475.913 464.494 475.654 466.683 476.171L466.926 474.362C475.235 476.947 469.966 470.224 478.234 472.293L477.505 471L479.693 475.137C487.151 479.016 483.706 471.259 491.975 476.43C488.691 476.172 490.434 480.567 494.447 479.791L493.434 477.982C495.663 478.499 496.392 479.274 497.892 478.757C496.555 477.723 497.203 476.172 500.486 476.43L498.298 474.103L504.499 477.464C509.282 475.396 516.861 477.981 518.847 475.396C518.847 475.396 529.142 474.103 531.493 476.947C529.426 475.137 535.1 474.362 533.479 472.293C536.154 474.362 544.017 475.913 547.179 473.844L546.571 473.586C558.244 471.259 566.513 476.689 576.97 473.844C576.483 476.171 582.036 474.878 580.658 477.723C591.48 480.567 600.397 471.776 604.329 480.826C609.274 481.343 610.165 478.757 612.719 478.24L611.543 477.723C620.785 478.498 623.46 478.499 630.31 478.24C633.714 479.016 634.282 483.153 640.402 482.119C638.416 480.567 640.929 480.826 643.199 480.826C641.74 480.567 641.294 480.05 644.293 478.757C644.699 479.274 645.388 479.533 645.996 479.791C646.036 479.791 646.158 479.533 646.077 479.275C649.887 479.792 649.238 480.309 647.455 480.567C647.536 480.826 647.414 481.084 646.847 481.602C650.819 479.533 657.912 481.86 658.398 479.016C669.909 479.791 678.137 482.636 687.703 483.67C688.797 482.119 686.527 480.826 683.771 480.309L690.581 480.826C690.54 478.757 686.689 479.533 684.582 479.275C692.688 475.913 701.281 482.636 710.765 479.533L712.751 481.084L713.319 480.826C713.278 481.602 715.427 482.894 716.805 483.153C718.142 481.343 716.724 479.016 721.425 479.016C725.154 477.206 731.964 479.792 736.827 480.826C734.193 481.084 735.044 482.119 736.179 482.895C738.53 482.895 739.867 481.084 741.691 481.86L741.934 479.533C741.002 481.86 748.055 482.119 748.946 482.895C750.284 481.085 745.299 481.343 744.731 480.05C754.134 480.309 749.433 480.05 758.877 480.309C763.903 482.119 757.944 482.636 760.376 484.704C764.794 485.222 769.131 486.773 774.238 485.48L772.617 487.549C780.967 489.359 785.952 489.1 791.545 486.773C853.64 504.356 804.637 510.821 804.637 510.821C780.075 516.251 767.469 510.045 738.368 508.235Z" fill="#E1E4E5"/>
<path d="M601.819 491.576C601.819 491.576 587.018 472.612 580.832 469.706C574.239 466.609 579.955 477.339 579.955 477.339C579.955 477.339 565.859 463.519 562.548 466.969C559.237 470.42 562.773 473.649 562.773 473.649C562.773 473.649 550.97 471.46 549.248 475.874C546.603 482.655 566.018 486.028 566.018 486.028C566.018 486.028 556.717 483.99 558.578 488.189C561.383 494.519 601.819 491.576 601.819 491.576ZM605.771 492.054C605.771 492.054 629.355 493.718 633.948 489.503C638.542 485.289 633.985 477.653 633.985 477.653C633.985 477.653 642.078 471.268 641.952 467.099C641.827 462.931 636.554 465.046 636.554 465.046C636.554 465.046 645.489 453.563 643.371 451.378C639.423 447.311 629.092 459.247 629.092 459.247C629.092 459.247 632.158 453.569 628.923 452.668C624.045 451.307 620.456 465.312 620.456 465.312C620.456 465.312 621.367 459.781 618.004 460.516C611.969 461.833 605.771 492.054 605.771 492.054Z" fill="#E1E4E5"/>
<path fill-rule="evenodd" clip-rule="evenodd" d="M632.56 393.681C630.177 397.199 631.752 405.812 634.404 414.672C632.411 412.595 630.205 411.48 627.851 412.137C621.315 413.958 627.51 425.432 627.51 425.432C627.51 425.432 606.634 401.313 598.656 409.531C594.376 413.946 612.432 437.15 612.432 437.15C612.432 437.15 601.778 432.875 601.524 441.299C601.446 443.868 602.914 446.854 604.991 449.763C604.049 452.45 603.523 454.484 603.523 454.484C603.523 454.484 604.796 446.818 600.096 447.836C596.835 448.542 593.541 455.235 590.726 463.181C584.984 458.576 578.191 454.181 575.725 456.771C571.148 461.577 576.035 466.076 576.035 466.076C576.035 466.076 559.722 463.026 557.342 469.175C554.137 477.46 574.383 482.092 579.409 483.106C576.346 482.573 568.134 481.548 570.237 486.33C571.31 488.769 576.361 490.22 583.107 491.042L583 491.551C583 491.551 590.967 492.109 599.83 491.981C614.884 492.157 630 491.048 630 491.048L629.859 490.866C643.008 492.994 662.058 492.382 670.426 491.966C694.857 492.582 728.063 491.903 731.604 483.914C734.679 476.977 722.673 478.465 718.194 479.238C725.543 477.767 755.144 471.048 750.457 459.029C746.978 450.11 723.127 454.534 723.127 454.534C723.127 454.534 730.272 448.009 723.581 441.036C720.186 437.498 711.18 442.946 703.131 449.171C702.208 446.958 700.028 446.824 698.052 446.702C696.183 446.586 694.495 446.482 694.228 444.639C693.757 441.384 699.822 439.504 706.243 437.514C713.541 435.252 721.3 432.847 720.449 428.117C719.604 423.428 713.383 425.933 707.618 428.254C702.693 430.237 698.101 432.086 697.481 429.199C697.146 427.638 702.138 426.343 708.215 424.766C717.208 422.433 728.58 419.482 728.58 414.142C728.58 408.577 719.644 410.541 711.716 412.283C706.895 413.343 702.448 414.32 700.607 413.474C698.802 412.643 704.341 409.392 711.727 405.056C724.252 397.703 742.086 387.234 738.426 380.166C735.539 374.59 722.751 381.613 711.914 387.564C704.941 391.393 698.776 394.778 696.578 394.078C693.855 393.21 698.349 387.847 704.492 380.517C711.018 372.728 719.406 362.719 722.973 353.523C730.133 335.065 722.568 326.67 710.215 341.885C707.522 345.202 704.462 349.164 701.308 353.247L701.307 353.248C689.996 367.893 677.475 384.104 676.305 377.805C675.784 374.999 677.004 369.378 678.306 363.379C680.741 352.155 683.463 339.612 675.605 341.718C658.594 346.279 655.835 371.319 653.071 396.407C652.388 402.604 651.705 408.804 650.807 414.698C650.676 415.554 649.854 413.532 648.568 410.367C645.118 401.879 638.328 385.171 632.56 393.681Z" fill="white"/>
<path d="M634.404 414.672L632.961 416.057L636.32 414.099L634.404 414.672ZM632.56 393.681L630.905 392.559L632.56 393.681ZM627.851 412.137L628.388 414.063L627.851 412.137ZM627.51 425.432L625.998 426.741L629.27 424.482L627.51 425.432ZM598.656 409.531L597.221 408.138L597.22 408.139L598.656 409.531ZM612.432 437.15L611.687 439.006L618.555 441.761L614.011 435.921L612.432 437.15ZM601.524 441.299L599.525 441.239L601.524 441.299ZM604.991 449.763L606.878 450.425L607.221 449.446L606.618 448.601L604.991 449.763ZM603.523 454.484L601.55 454.156L605.459 454.984L603.523 454.484ZM600.096 447.836L600.519 449.791H600.52L600.096 447.836ZM590.726 463.181L589.475 464.741L591.671 466.502L592.611 463.849L590.726 463.181ZM575.725 456.771L577.173 458.15L575.725 456.771ZM576.035 466.076L575.668 468.042L582.514 469.322L577.39 464.604L576.035 466.076ZM557.342 469.175L555.477 468.453L557.342 469.175ZM579.409 483.106L579.067 485.077L579.805 481.146L579.409 483.106ZM570.237 486.33L572.068 485.525L570.237 486.33ZM583.107 491.042L585.063 491.46L585.52 489.322L583.349 489.057L583.107 491.042ZM583 491.551L581.041 491.146L580.578 493.386L582.86 493.546L583 491.551ZM599.83 491.981L599.854 489.981H599.802L599.83 491.981ZM630 491.048L630.146 493.043L633.863 492.77L631.581 489.824L630 491.048ZM629.859 490.866L630.178 488.892L625.149 488.078L628.281 492.096L629.859 490.866ZM670.426 491.966L670.476 489.967L670.401 489.965L670.326 489.969L670.426 491.966ZM731.604 483.914L729.775 483.103V483.104L731.604 483.914ZM718.194 479.238L717.801 477.277L718.534 481.209L718.194 479.238ZM750.457 459.029L752.321 458.303V458.302L750.457 459.029ZM723.127 454.534L721.778 453.057L716.611 457.777L723.492 456.5L723.127 454.534ZM723.581 441.036L722.138 442.421L723.581 441.036ZM703.131 449.171L701.285 449.941L702.29 452.349L704.355 450.753L703.131 449.171ZM698.052 446.702L697.929 448.698L698.052 446.702ZM694.228 444.639L692.249 444.926V444.927L694.228 444.639ZM706.243 437.514L705.651 435.604L706.243 437.514ZM720.449 428.117L722.417 427.763V427.762L720.449 428.117ZM707.618 428.254L708.365 430.109L707.618 428.254ZM697.481 429.199L699.437 428.779L697.481 429.199ZM708.215 424.766L707.712 422.831L708.215 424.766ZM711.716 412.283L712.145 414.236L711.716 412.283ZM700.607 413.474L699.772 415.291L700.607 413.474ZM711.727 405.056L712.739 406.781L712.763 406.767L712.787 406.752L711.727 405.056ZM711.727 405.056L710.715 403.331L710.691 403.345L710.667 403.36L711.727 405.056ZM738.426 380.166L736.65 381.086L738.426 380.166ZM711.914 387.564L712.877 389.317L711.914 387.564ZM696.578 394.078L695.97 395.984L696.578 394.078ZM704.492 380.517L702.959 379.233L704.492 380.517ZM722.973 353.523L721.108 352.8L722.973 353.523ZM710.215 341.885L708.662 340.624L710.215 341.885ZM701.308 353.247L702.879 354.485L702.885 354.477L702.891 354.47L701.308 353.247ZM701.307 353.248L699.737 352.01L699.731 352.018L699.725 352.026L701.307 353.248ZM676.305 377.805L674.339 378.17L676.305 377.805ZM678.306 363.379L680.26 363.803L678.306 363.379ZM675.605 341.718L675.087 339.786L675.605 341.718ZM653.071 396.407L651.083 396.188L651.071 396.298V396.407H653.071ZM653.071 396.407L655.059 396.626L655.071 396.517V396.407H653.071ZM650.807 414.698L652.784 415V414.999L650.807 414.698ZM648.568 410.367L646.671 410.999L646.691 411.06L646.715 411.12L648.568 410.367ZM648.568 410.367L650.465 409.734L650.445 409.673L650.421 409.614L648.568 410.367ZM636.32 414.099C635.008 409.716 633.989 405.476 633.581 401.944C633.377 400.178 633.333 398.65 633.46 397.401C633.588 396.133 633.878 395.302 634.216 394.804L630.905 392.559C630.051 393.82 629.644 395.385 629.48 396.998C629.315 398.63 629.384 400.468 629.607 402.403C630.054 406.272 631.148 410.768 632.488 415.246L636.32 414.099ZM628.388 414.063C629.692 413.7 631.174 414.195 632.961 416.057L635.847 413.287C633.647 410.995 630.718 409.261 627.313 410.21L628.388 414.063ZM627.51 425.432L629.27 424.482L629.271 424.483L629.269 424.48C629.252 424.447 629.235 424.415 629.218 424.382C629.18 424.308 629.122 424.196 629.05 424.05C628.85 423.643 628.659 423.231 628.479 422.815C628.026 421.77 627.505 420.398 627.176 419.007C626.837 417.573 626.758 416.343 626.979 415.475C627.158 414.77 627.509 414.308 628.388 414.063L627.314 410.21C624.924 410.876 623.599 412.532 623.102 414.49C622.646 416.286 622.89 418.265 623.283 419.927C623.686 421.633 624.305 423.243 624.809 424.406C625.064 424.993 625.295 425.479 625.463 425.82C625.548 425.992 625.617 426.127 625.666 426.223L625.725 426.335L625.742 426.367L625.747 426.376L625.749 426.38L625.75 426.381L627.51 425.432ZM600.091 410.925C601.277 409.703 603.078 409.434 605.855 410.431C608.618 411.423 611.768 413.501 614.821 415.958C617.845 418.391 620.642 421.088 622.692 423.189C623.745 424.266 624.774 425.367 625.777 426.49L625.945 426.68L625.986 426.727L625.996 426.738L625.998 426.741L627.51 425.432L629.022 424.122L629.021 424.121C629.015 424.115 629.009 424.108 629.003 424.101L628.955 424.045C628.665 423.715 628.372 423.388 628.076 423.064C627.476 422.407 626.614 421.48 625.555 420.395C623.442 418.23 620.522 415.411 617.329 412.842C614.166 410.296 610.602 407.885 607.206 406.666C603.825 405.452 600.025 405.25 597.221 408.138L600.091 410.925ZM612.432 437.15L614.011 435.922L614.01 435.921L614.008 435.919C614.005 435.915 614.002 435.911 613.999 435.907L613.963 435.86L613.817 435.671C612.963 434.552 612.123 433.422 611.297 432.282C609.687 430.059 607.591 427.059 605.634 423.935C603.664 420.789 601.888 417.601 600.866 414.982C600.352 413.664 600.075 412.604 600.013 411.827C599.949 411.017 600.14 410.875 600.092 410.924L597.22 408.139C596.103 409.292 595.922 410.841 596.026 412.144C596.132 413.481 596.563 414.958 597.14 416.436C598.3 419.409 600.235 422.85 602.244 426.058C604.266 429.286 606.417 432.363 608.058 434.629C608.906 435.798 609.768 436.957 610.644 438.105L610.798 438.306L610.839 438.359L610.849 438.372L610.852 438.376L610.853 438.377C610.853 438.378 610.854 438.378 612.432 437.15ZM603.523 441.359C603.573 439.713 604.096 439.03 604.543 438.691C605.079 438.285 605.924 438.059 607.062 438.065C608.172 438.072 609.329 438.299 610.245 438.545C610.706 438.669 611.162 438.814 611.611 438.977L611.678 439.002L611.69 439.007C611.691 439.007 611.691 439.007 611.69 439.007H611.689V439.006C611.688 439.006 611.687 439.006 612.432 437.15C613.177 435.294 613.176 435.293 613.175 435.293L613.174 435.292L613.17 435.291L613.159 435.286C613.147 435.282 613.136 435.278 613.125 435.273L613.014 435.231C612.446 435.02 611.868 434.837 611.282 434.682C610.192 434.389 608.669 434.075 607.085 434.065C605.527 434.056 603.66 434.341 602.127 435.503C600.506 436.732 599.602 438.674 599.525 441.239L603.523 441.359ZM606.618 448.601C604.582 445.749 603.467 443.23 603.523 441.359L599.525 441.239C599.426 444.507 601.245 447.959 603.363 450.925L606.618 448.601ZM603.523 454.484L605.459 454.984V454.985V454.984L605.46 454.982L605.464 454.968L605.48 454.906L605.548 454.654C605.946 453.23 606.389 451.82 606.878 450.425L603.103 449.101C602.702 450.246 602.329 451.401 601.985 452.565C601.846 453.033 601.714 453.502 601.589 453.974L601.588 453.98L601.587 453.982V453.983L603.523 454.484ZM600.52 449.791C600.863 449.717 601.026 449.748 601.071 449.76C601.105 449.769 601.135 449.789 601.158 449.816C601.284 449.95 601.481 450.327 601.594 451.076C601.699 451.774 601.694 452.542 601.653 453.172C601.633 453.478 601.605 453.735 601.584 453.912L601.557 454.109C601.555 454.124 601.553 454.138 601.551 454.153L601.55 454.16V454.157L603.523 454.484L605.496 454.81L605.497 454.809V454.805L605.498 454.797L605.503 454.771L605.515 454.687C605.577 454.271 605.62 453.852 605.644 453.432C605.695 452.656 605.714 451.572 605.55 450.481C605.393 449.441 605.028 448.092 604.071 447.075C602.973 445.908 601.418 445.504 599.673 445.882L600.52 449.791ZM592.611 463.849C594.003 459.919 595.484 456.391 596.978 453.79C597.726 452.489 598.44 451.487 599.1 450.795C599.778 450.083 600.258 449.848 600.519 449.791L599.673 445.882C598.304 446.178 597.149 447.044 596.205 448.034C595.242 449.044 594.345 450.344 593.51 451.797C591.838 454.706 590.264 458.497 588.841 462.513L592.611 463.849ZM577.173 458.15C577.205 458.117 577.366 457.94 578.08 458.02C578.817 458.102 579.835 458.438 581.109 459.069C583.635 460.322 586.634 462.463 589.475 464.741L591.977 461.62C589.077 459.294 585.808 456.934 582.885 455.486C581.434 454.766 579.932 454.202 578.523 454.044C577.09 453.884 575.478 454.13 574.276 455.392L577.173 458.15ZM576.035 466.076C577.39 464.604 577.39 464.605 577.391 464.605L577.392 464.607L577.395 464.609L577.398 464.612L577.399 464.613L577.384 464.598C577.22 464.43 577.066 464.254 576.922 464.069C576.551 463.6 576.253 463.078 576.036 462.521C575.805 461.91 575.701 461.259 575.815 460.585C575.926 459.926 576.27 459.098 577.173 458.15L574.276 455.392C572.891 456.847 572.13 458.383 571.871 459.919C571.614 461.441 571.873 462.816 572.292 463.93C572.651 464.864 573.147 465.739 573.765 466.526C574.017 466.85 574.289 467.159 574.579 467.45L574.643 467.512L574.666 467.533L574.674 467.541C574.675 467.542 574.676 467.543 574.678 467.544L574.679 467.546C574.68 467.546 574.681 467.547 576.035 466.076ZM559.207 469.897C559.479 469.193 560.24 468.51 561.86 468.007C563.447 467.514 565.48 467.322 567.584 467.319C569.664 467.317 571.691 467.497 573.209 467.681C573.978 467.774 574.745 467.885 575.509 468.014L575.633 468.035L575.662 468.041L575.668 468.042L576.035 466.076L576.402 464.11L576.4 464.109H576.397C576.393 464.108 576.389 464.107 576.385 464.106L576.344 464.099C576.11 464.058 575.876 464.019 575.642 463.981C574.993 463.879 574.342 463.789 573.69 463.71C572.074 463.514 569.875 463.316 567.578 463.319C565.307 463.323 562.815 463.522 560.674 464.186C558.566 464.841 556.395 466.081 555.477 468.453L559.207 469.897ZM579.805 481.146C577.319 480.644 571.176 479.266 566.092 477.036C563.527 475.91 561.434 474.653 560.185 473.331C559.01 472.087 558.767 471.034 559.207 469.896L555.477 468.453C554.314 471.458 555.4 474.091 557.277 476.078C559.08 477.986 561.761 479.504 564.485 480.699C569.98 483.109 576.473 484.554 579.014 485.067L579.805 481.146ZM572.068 485.525C571.729 484.755 572.032 484.861 571.825 485.087C571.811 485.102 571.872 485.03 572.117 484.938C572.357 484.847 572.694 484.765 573.137 484.709C574.985 484.475 577.543 484.812 579.067 485.077L579.752 481.136C578.212 480.868 575.132 480.425 572.635 480.741C571.45 480.89 569.906 481.263 568.88 482.381C567.629 483.742 567.694 485.514 568.407 487.135L572.068 485.525ZM583.349 489.057C580.032 488.652 577.242 488.105 575.195 487.401C574.173 487.049 573.405 486.682 572.87 486.321C572.328 485.956 572.133 485.672 572.068 485.525L568.406 487.135C568.878 488.207 569.716 489.019 570.634 489.638C571.558 490.261 572.676 490.765 573.894 491.183C576.327 492.02 579.436 492.609 582.865 493.027L583.349 489.057ZM583 491.551L584.959 491.956V491.955L584.96 491.949L584.965 491.926L584.984 491.832L585.063 491.46L581.151 490.625L581.07 491.01C581.061 491.052 581.052 491.094 581.043 491.136L581.042 491.143V491.146H581.041L583 491.551ZM599.802 489.981C595.924 490.029 592.046 489.973 588.171 489.815C586.946 489.767 585.721 489.708 584.497 489.639C584.059 489.614 583.718 489.593 583.487 489.579L583.225 489.562L583.16 489.557L583.144 489.556H583.14L583 491.551L582.861 493.546H582.863L582.868 493.547L582.886 493.548L582.958 493.553L583.232 493.571L584.27 493.633C585.165 493.684 586.449 493.75 588.012 493.812C591.135 493.937 595.38 494.045 599.859 493.981L599.802 489.981ZM630 491.048L629.854 489.054H629.844C629.834 489.055 629.823 489.056 629.813 489.057L629.686 489.066L629.186 489.1C626.282 489.291 623.377 489.452 620.47 489.583C614.831 489.837 607.329 490.069 599.854 489.981L599.807 493.981C607.386 494.07 614.969 493.835 620.651 493.579C623.587 493.446 626.523 493.283 629.456 493.091L629.967 493.056L630.1 493.046L630.134 493.044L630.143 493.043H630.146L630 491.048ZM628.281 492.096L628.385 492.229L628.411 492.262L628.417 492.27L628.418 492.272L628.419 492.273L630 491.048L631.581 489.824V489.823L631.579 489.82L631.571 489.811L631.544 489.775L631.436 489.637L628.281 492.096ZM670.326 489.969C661.944 490.385 643.092 490.982 630.178 488.892L629.539 492.841C642.924 495.007 662.172 494.378 670.525 493.964L670.326 489.969ZM729.775 483.104C729.563 483.582 729.036 484.197 727.926 484.867C726.832 485.528 725.327 486.149 723.421 486.711C719.611 487.834 714.515 488.634 708.665 489.176C696.985 490.256 682.669 490.274 670.476 489.967L670.375 493.966C682.614 494.274 697.116 494.261 709.033 493.159C714.981 492.608 720.376 491.779 724.552 490.548C726.639 489.932 728.5 489.194 729.995 488.291C731.474 487.397 732.759 486.243 733.432 484.724L729.775 483.104ZM718.534 481.209C720.765 480.823 724.628 480.311 727.483 480.669C728.975 480.856 729.71 481.228 729.968 481.507C730.045 481.59 730.088 481.669 730.099 481.827C730.113 482.027 730.074 482.43 729.775 483.103L733.432 484.724C733.903 483.663 734.161 482.596 734.09 481.552C734.027 480.521 733.607 479.544 732.903 478.789C731.635 477.42 729.665 476.911 727.981 476.7C724.482 476.261 720.102 476.879 717.854 477.267L718.534 481.209ZM748.594 459.756C749.399 461.819 748.857 463.698 746.978 465.671C745.025 467.722 741.829 469.606 738.041 471.255C730.512 474.532 721.448 476.547 717.801 477.277L718.586 481.199C722.288 480.458 731.7 478.378 739.637 474.923C743.582 473.206 747.367 471.064 749.875 468.429C752.458 465.716 753.859 462.248 752.321 458.303L748.594 459.756ZM723.127 454.534L723.491 456.5H723.493L723.503 456.498L723.548 456.49L723.735 456.457C723.902 456.429 724.15 456.387 724.469 456.337C725.108 456.237 726.029 456.102 727.147 455.968C729.389 455.698 732.393 455.433 735.484 455.437C738.6 455.441 741.68 455.721 744.13 456.475C746.616 457.241 748.05 458.362 748.594 459.756L752.321 458.302C751.125 455.237 748.272 453.566 745.308 452.653C742.307 451.728 738.772 451.442 735.49 451.437C732.184 451.432 729.008 451.715 726.669 451.996C725.726 452.109 724.786 452.239 723.848 452.385C723.508 452.439 723.241 452.484 723.056 452.515L722.843 452.553L722.786 452.563C722.781 452.564 722.775 452.565 722.77 452.566L722.765 452.567H722.763L723.127 454.534ZM722.138 442.421C723.568 443.912 724.165 445.272 724.361 446.422C724.559 447.587 724.372 448.692 723.993 449.69C723.611 450.698 723.048 451.555 722.565 452.171C722.32 452.483 722.057 452.78 721.775 453.06L721.772 453.063L721.774 453.061L721.776 453.059L721.777 453.058C721.777 453.058 721.778 453.057 723.127 454.534C724.476 456.011 724.476 456.01 724.477 456.009L724.479 456.008L724.483 456.004C724.922 455.577 725.333 455.121 725.712 454.64C726.36 453.814 727.165 452.605 727.733 451.109C728.304 449.605 728.648 447.771 728.304 445.751C727.958 443.717 726.939 441.647 725.024 439.651L722.138 442.421ZM704.355 450.753C708.346 447.666 712.466 444.86 715.939 443.259C717.683 442.454 719.13 442.018 720.237 441.934C721.314 441.851 721.837 442.108 722.138 442.421L725.024 439.651C723.627 438.196 721.752 437.806 719.933 437.945C718.146 438.081 716.202 438.733 714.264 439.626C710.372 441.421 705.965 444.451 701.908 447.589L704.355 450.753ZM697.929 448.698C698.98 448.763 699.721 448.823 700.312 449.035C700.779 449.202 701.075 449.435 701.285 449.941L704.977 448.401C704.265 446.694 703.009 445.753 701.662 445.27C700.438 444.83 699.101 444.762 698.176 444.705L697.929 448.698ZM692.249 444.927C692.36 445.692 692.641 446.404 693.137 447.001C693.628 447.592 694.232 447.953 694.808 448.18C695.853 448.59 697.097 448.646 697.929 448.698L698.176 444.705C697.769 444.685 697.363 444.652 696.959 444.606C696.612 444.562 696.399 444.507 696.271 444.457C696.158 444.412 696.173 444.395 696.214 444.445C696.26 444.5 696.23 444.508 696.208 444.352L692.249 444.927ZM705.651 435.604C702.497 436.581 699.197 437.598 696.759 438.812C695.541 439.419 694.37 440.154 693.522 441.09C692.628 442.076 692.025 443.378 692.249 444.926L696.208 444.353C696.196 444.273 696.175 444.119 696.486 443.775C696.844 443.381 697.501 442.911 698.543 442.392C700.625 441.355 703.569 440.437 706.835 439.424L705.651 435.604ZM718.48 428.472C718.578 429.016 718.462 429.488 718.037 430.033C717.561 430.644 716.72 431.3 715.455 431.979C712.917 433.343 709.362 434.454 705.651 435.604L706.835 439.424C710.423 438.312 714.396 437.089 717.349 435.503C718.83 434.707 720.225 433.734 721.192 432.492C722.211 431.185 722.745 429.584 722.417 427.763L718.48 428.472ZM708.365 430.109C711.333 428.914 714.071 427.827 716.153 427.538C717.19 427.394 717.753 427.5 718.018 427.63C718.142 427.691 718.361 427.812 718.48 428.472L722.417 427.762C722.113 426.078 721.238 424.754 719.778 424.038C718.459 423.391 716.948 423.389 715.604 423.576C712.923 423.948 709.667 425.273 706.871 426.399L708.365 430.109ZM695.526 429.619C695.823 431.005 696.708 432.007 697.992 432.442C699.081 432.812 700.282 432.712 701.308 432.518C703.386 432.124 705.976 431.071 708.365 430.109L706.871 426.399C704.335 427.42 702.166 428.284 700.562 428.588C699.747 428.743 699.376 428.688 699.276 428.654C699.263 428.65 699.328 428.672 699.397 428.75C699.463 428.826 699.455 428.866 699.437 428.779L695.526 429.619ZM707.712 422.831C704.712 423.609 701.835 424.353 699.759 425.11C698.738 425.482 697.748 425.912 697.006 426.438C696.377 426.883 695.169 427.958 695.526 429.619L699.437 428.779C699.626 429.66 698.916 429.987 699.319 429.702C699.608 429.496 700.183 429.212 701.128 428.868C702.982 428.193 705.64 427.501 708.717 426.702L707.712 422.831ZM726.58 414.142C726.58 414.691 726.305 415.375 725.34 416.227C724.365 417.086 722.886 417.929 720.983 418.743C717.183 420.368 712.251 421.653 707.712 422.831L708.717 426.702C713.172 425.546 718.423 424.189 722.556 422.42C724.621 421.537 726.547 420.495 727.985 419.227C729.433 417.95 730.58 416.263 730.58 414.142H726.58ZM712.145 414.236C716.186 413.348 720.165 412.484 723.129 412.472C724.626 412.466 725.547 412.686 726.038 412.978C726.348 413.162 726.58 413.402 726.58 414.142H730.58C730.58 412.099 729.694 410.497 728.081 409.539C726.649 408.688 724.841 408.465 723.113 408.472C719.627 408.486 715.174 409.475 711.286 410.33L712.145 414.236ZM699.772 415.291C700.602 415.673 701.55 415.781 702.413 415.794C703.307 415.806 704.298 415.716 705.32 415.574C707.358 415.29 709.759 414.761 712.145 414.236L711.286 410.33C708.852 410.865 706.619 411.354 704.768 411.612C703.846 411.741 703.078 411.803 702.47 411.794C701.831 411.785 701.532 411.698 701.443 411.657L699.772 415.291ZM710.714 403.331C707.054 405.48 703.737 407.425 701.573 408.941C700.534 409.669 699.551 410.438 698.966 411.19C698.704 411.527 698.23 412.219 698.265 413.13C698.312 414.316 699.133 414.997 699.772 415.291L701.443 411.657C701.63 411.743 702.23 412.14 702.262 412.973C702.284 413.53 702.004 413.799 702.123 413.646C702.299 413.419 702.824 412.948 703.868 412.217C705.868 410.816 709.014 408.968 712.739 406.781L710.714 403.331ZM710.667 403.36L712.787 406.752L710.667 403.36ZM736.65 381.086C737.087 381.93 737.057 383.1 735.881 384.916C734.706 386.731 732.631 388.771 729.902 390.938C724.468 395.253 717.011 399.635 710.715 403.331L712.74 406.78C718.968 403.124 726.691 398.595 732.389 394.07C735.228 391.817 737.708 389.455 739.239 387.09C740.769 384.725 741.595 381.936 740.202 379.246L736.65 381.086ZM712.877 389.317C718.339 386.317 724.1 383.16 728.84 381.42C731.226 380.545 733.154 380.107 734.553 380.133C735.872 380.157 736.377 380.559 736.65 381.086L740.202 379.247C739.031 376.985 736.855 376.174 734.626 376.133C732.477 376.094 729.989 376.738 727.462 377.665C722.378 379.531 716.326 382.86 710.951 385.811L712.877 389.317ZM695.97 395.984C697.115 396.348 698.406 396.115 699.46 395.82C700.605 395.5 701.91 394.973 703.292 394.336C706.058 393.063 709.412 391.22 712.877 389.317L710.951 385.811C707.443 387.737 704.228 389.502 701.619 390.703C700.313 391.304 699.229 391.731 698.382 391.968C697.443 392.231 697.139 392.158 697.185 392.172L695.97 395.984ZM702.959 379.233C699.923 382.855 697.169 386.136 695.538 388.624C694.751 389.825 694.047 391.097 693.834 392.266C693.722 392.882 693.706 393.685 694.106 394.463C694.532 395.289 695.255 395.756 695.97 395.984L697.185 392.172C697.22 392.183 697.488 392.293 697.662 392.631C697.811 392.92 697.747 393.105 697.77 392.982C697.826 392.672 698.119 391.982 698.883 390.818C700.354 388.575 702.918 385.509 706.025 381.802L702.959 379.233ZM721.108 352.8C717.686 361.622 709.555 371.361 702.959 379.233L706.025 381.802C712.482 374.096 721.126 363.816 724.838 354.246L721.108 352.8ZM711.768 343.145C714.768 339.45 717.324 337.389 719.256 336.509C721.137 335.651 722.033 336.033 722.507 336.501C723.18 337.164 723.837 338.764 723.738 341.711C723.643 344.568 722.844 348.326 721.108 352.8L724.838 354.246C726.682 349.491 727.622 345.278 727.736 341.844C727.847 338.502 727.183 335.493 725.316 333.652C723.25 331.616 720.385 331.598 717.597 332.869C714.86 334.116 711.839 336.712 708.662 340.624L711.768 343.145ZM702.891 354.47C706.049 350.381 709.093 346.44 711.768 343.145L708.662 340.624C705.951 343.965 702.875 347.947 699.725 352.025L702.891 354.47ZM702.878 354.486L702.879 354.485L699.738 352.009L699.737 352.01L702.878 354.486ZM674.339 378.17C674.546 379.283 675.164 380.659 676.722 381.088C678.013 381.443 679.261 380.903 680.105 380.423C681.921 379.389 684.135 377.277 686.475 374.735C691.238 369.561 697.256 361.766 702.89 354.471L699.725 352.026C694.048 359.375 688.15 367.008 683.532 372.026C681.182 374.58 679.34 376.255 678.125 376.947C677.454 377.329 677.443 377.138 677.782 377.231C678.387 377.397 678.358 377.902 678.272 377.44L674.339 378.17ZM676.351 362.955C675.704 365.939 675.06 368.901 674.647 371.472C674.246 373.97 674.008 376.39 674.339 378.17L678.272 377.44C678.081 376.415 678.193 374.621 678.597 372.107C678.989 369.665 679.606 366.818 680.26 363.803L676.351 362.955ZM676.123 343.65C676.895 343.443 677.356 343.467 677.606 343.527C677.806 343.571 677.982 343.688 678.1 343.855C678.482 344.351 678.817 345.485 678.816 347.549C678.813 351.56 677.588 357.257 676.351 362.955L680.26 363.803C681.46 358.277 682.813 352.091 682.816 347.551C682.817 345.339 682.512 343.03 681.27 341.416C680.596 340.526 679.634 339.898 678.549 339.64C677.453 339.374 676.281 339.467 675.087 339.786L676.123 343.65ZM655.059 396.626C656.448 384.022 657.813 371.708 660.902 361.97C663.997 352.215 668.623 345.661 676.123 343.65L675.087 339.786C665.576 342.337 660.318 350.583 657.089 360.761C653.855 370.955 652.459 383.705 651.083 396.188L655.059 396.626ZM655.071 396.407H651.071H655.071ZM652.784 414.999C653.69 409.057 654.377 402.815 655.059 396.626L651.083 396.188C650.399 402.393 649.721 408.551 648.83 414.397L652.784 414.999ZM646.715 411.12C647.346 412.671 647.902 414.043 648.319 414.908C648.426 415.131 648.539 415.35 648.653 415.546C648.749 415.711 648.916 415.982 649.15 416.223C649.261 416.337 649.505 416.569 649.88 416.728C650.167 416.851 650.479 416.907 650.792 416.893C651.104 416.878 651.409 416.793 651.684 416.643C652.265 416.326 652.517 415.836 652.612 415.615C652.719 415.366 652.763 415.139 652.784 415L648.83 414.396C648.835 414.364 648.857 414.222 648.937 414.036C649.105 413.65 649.398 413.332 649.768 413.132C650.023 412.993 650.306 412.912 650.596 412.898C650.886 412.883 651.176 412.934 651.444 413.047C651.771 413.186 651.962 413.378 652.016 413.432C652.134 413.554 652.166 413.63 652.108 413.531C652.042 413.414 651.98 413.294 651.923 413.172C651.575 412.45 651.077 411.227 650.421 409.614L646.715 411.12ZM646.671 410.999L650.465 409.734L646.671 410.999ZM634.216 394.804C634.814 393.921 635.296 393.562 635.596 393.425C635.84 393.313 636.064 393.297 636.375 393.401C637.202 393.678 638.381 394.726 639.782 396.777C642.486 400.738 644.966 406.815 646.715 411.12L650.421 409.614C648.721 405.43 646.081 398.909 643.085 394.522C641.636 392.4 639.821 390.336 637.644 389.608C636.454 389.21 635.175 389.218 633.93 389.789C632.741 390.333 631.749 391.314 630.905 392.559L634.216 394.804Z" fill="#E1E4E5"/>
<path fill-rule="evenodd" clip-rule="evenodd" d="M310.747 443.698C319.263 452.978 315.901 500.635 315.901 500.635C315.901 500.635 296.126 496.579 278.591 490.837C268.701 491.497 197.627 495.813 192.354 483.914C189.279 476.977 201.284 478.465 205.764 479.238C198.414 477.767 168.814 471.048 173.5 459.029C176.98 450.11 200.831 454.534 200.831 454.534C200.831 454.534 193.686 448.009 200.377 441.036C207.067 434.064 235.551 461.989 235.551 461.989C235.551 461.989 224 440.309 237.322 446.566C239.261 447.477 241.618 449.167 244.217 451.375C247.085 452.148 249.608 453.51 249.608 453.51C249.608 453.51 225.489 432.634 233.707 424.656C238.122 420.376 261.326 438.432 261.326 438.432C261.326 438.432 257.051 427.778 265.475 427.524C273.899 427.27 286.801 443.623 286.801 443.623C286.801 443.623 302.23 434.415 310.747 443.698Z" fill="white"/>
<path d="M315.901 500.634L317.896 500.775L317.735 503.052L315.499 502.593L315.901 500.634ZM310.747 443.697L309.273 445.049L310.747 443.697ZM278.591 490.836L278.458 488.84L278.845 488.814L279.214 488.935L278.591 490.836ZM192.354 483.913L194.182 483.102V483.103L192.354 483.913ZM205.764 479.237L206.156 477.276L205.424 481.208L205.764 479.237ZM173.5 459.028L171.637 458.302V458.301L173.5 459.028ZM200.831 454.533L202.179 453.056L207.347 457.776L200.466 456.499L200.831 454.533ZM200.377 441.035L201.82 442.42L200.377 441.035ZM235.551 461.988L237.316 461.048L234.151 463.416L235.551 461.988ZM237.322 446.565L238.172 444.755H238.173L237.322 446.565ZM244.217 451.374L243.696 453.305L243.264 453.188L242.922 452.898L244.217 451.374ZM249.608 453.509L250.917 451.997L248.658 455.269L249.608 453.509ZM233.707 424.655L232.314 423.22L232.315 423.219L233.707 424.655ZM261.326 438.431L263.182 437.686L265.937 444.554L260.098 440.009L261.326 438.431ZM265.475 427.523L265.535 429.522L265.475 427.523ZM286.801 443.622L287.826 445.34L286.318 446.24L285.231 444.861L286.801 443.622ZM315.901 500.634L313.906 500.493V500.486L313.908 500.462L313.914 500.362L313.94 499.968C313.963 499.622 313.994 499.11 314.032 498.454C314.106 497.143 314.204 495.257 314.294 492.964C314.476 488.375 314.629 482.167 314.518 475.68C314.406 469.181 314.031 462.456 313.168 456.811C312.736 453.988 312.19 451.483 311.514 449.435C310.828 447.355 310.058 445.905 309.273 445.049L312.22 442.345C313.564 443.809 314.553 445.879 315.312 448.181C316.083 450.515 316.671 453.257 317.122 456.206C318.024 462.107 318.404 469.036 318.517 475.611C318.63 482.198 318.474 488.485 318.291 493.122C318.198 495.491 318.078 497.859 317.932 500.225L317.905 500.632L317.898 500.737L317.896 500.765V500.774L315.901 500.634ZM279.214 488.935C287.911 491.783 297.182 494.219 304.293 495.945C307.845 496.807 310.851 497.49 312.968 497.958C314.005 498.187 315.044 498.411 316.083 498.629L316.248 498.664C316.262 498.667 316.276 498.669 316.29 498.672L316.3 498.674L316.302 498.675L315.901 500.634L315.498 502.593H315.497L315.494 502.592L315.483 502.59L315.438 502.581C315.381 502.57 315.323 502.558 315.266 502.545L314.601 502.405C314.021 502.282 313.175 502.1 312.105 501.864C309.18 501.217 306.261 500.54 303.35 499.832C296.189 498.094 286.806 495.631 277.969 492.736L279.214 488.935ZM194.182 483.103C194.515 483.853 195.575 484.832 197.931 485.805C200.198 486.742 203.277 487.516 206.991 488.134C214.403 489.368 223.974 489.922 233.774 490.084C253.353 490.409 273.527 489.169 278.458 488.84L278.724 492.831C273.765 493.162 253.457 494.411 233.708 494.084C223.845 493.92 214.04 493.363 206.334 492.08C202.488 491.44 199.072 490.605 196.404 489.502C193.825 488.437 191.511 486.947 190.525 484.723L194.182 483.103ZM205.424 481.208C203.192 480.822 199.33 480.31 196.475 480.668C194.982 480.855 194.247 481.227 193.989 481.506C193.906 481.592 193.859 481.707 193.859 481.826C193.845 482.026 193.884 482.429 194.182 483.102L190.525 484.723C190.055 483.662 189.796 482.595 189.868 481.551C189.931 480.521 190.351 479.544 191.055 478.788C192.323 477.419 194.293 476.91 195.977 476.699C199.476 476.26 203.856 476.878 206.104 477.266L205.424 481.208ZM175.364 459.755C174.559 461.818 175.1 463.697 176.979 465.67C178.932 467.721 182.128 469.605 185.917 471.254C193.445 474.531 202.509 476.546 206.156 477.276L205.371 481.198C201.669 480.457 192.258 478.377 184.32 474.922C180.375 473.205 176.591 471.063 174.082 468.428C171.499 465.715 170.098 462.247 171.637 458.302L175.364 459.755ZM200.831 454.533L200.466 456.499H200.465C200.384 456.486 200.304 456.471 200.223 456.456C200.056 456.428 199.808 456.386 199.489 456.336C198.85 456.236 197.929 456.101 196.811 455.967C194.569 455.697 191.565 455.432 188.473 455.436C185.357 455.44 182.277 455.72 179.827 456.474C177.341 457.24 175.907 458.361 175.363 459.755L171.637 458.301C172.833 455.236 175.685 453.565 178.65 452.652C181.651 451.727 185.186 451.441 188.468 451.436C191.774 451.431 194.95 451.714 197.288 451.995C198.231 452.109 199.172 452.238 200.11 452.384C200.449 452.438 200.717 452.483 200.901 452.514L201.115 452.552L201.172 452.562C201.177 452.563 201.183 452.564 201.188 452.565L201.193 452.566H201.194L200.831 454.533ZM201.82 442.42C200.389 443.911 199.792 445.271 199.597 446.421C199.398 447.586 199.586 448.691 199.965 449.689C200.347 450.697 200.909 451.554 201.393 452.17C201.628 452.471 201.88 452.757 202.149 453.027L202.183 453.059L202.186 453.062L202.184 453.06L202.182 453.058L202.181 453.057C202.18 453.057 202.179 453.056 200.831 454.533C200.384 455.028 199.934 455.52 199.48 456.008L199.479 456.007L199.475 456.003C199.471 456.001 199.468 455.998 199.465 455.994L199.438 455.969C199.318 455.854 199.201 455.736 199.086 455.616C198.791 455.304 198.51 454.978 198.245 454.639C197.598 453.813 196.792 452.604 196.225 451.108C195.654 449.604 195.31 447.77 195.653 445.75C196 443.716 197.019 441.646 198.934 439.65L201.82 442.42ZM235.551 461.988L234.151 463.416H234.15C234.141 463.408 234.141 463.408 234.133 463.399L234.074 463.342L233.841 463.116C233.635 462.917 233.33 462.625 232.939 462.254C232.156 461.513 231.029 460.46 229.654 459.217C226.902 456.729 223.176 453.494 219.255 450.483C215.31 447.454 211.268 444.73 207.869 443.189C206.163 442.415 204.751 442.002 203.674 441.929C202.629 441.858 202.117 442.111 201.82 442.42L198.934 439.65C200.309 438.217 202.151 437.817 203.944 437.938C205.705 438.058 207.617 438.683 209.521 439.546C213.345 441.28 217.679 444.23 221.691 447.311C225.727 450.41 229.54 453.721 232.337 456.25C233.783 457.558 235.211 458.887 236.618 460.237L236.864 460.475L236.928 460.537L236.944 460.554L236.949 460.558L236.95 460.559C236.951 460.56 236.951 460.56 235.551 461.988ZM236.472 448.375C234.914 447.643 233.946 447.434 233.409 447.431C233.162 447.43 233.068 447.472 233.061 447.475C233.057 447.477 233.063 447.475 233.072 447.467C233.08 447.46 233.081 447.457 233.075 447.466C233.03 447.532 232.885 447.846 232.907 448.641C232.927 449.392 233.089 450.338 233.375 451.42C233.944 453.58 234.919 455.977 235.777 457.875C236.227 458.871 236.702 459.855 237.201 460.827L237.289 460.996L237.31 461.037L237.315 461.046C237.316 461.047 237.316 461.048 237.316 461.048L235.551 461.988C233.786 462.929 233.786 462.928 233.785 462.928V462.926L233.782 462.922L233.775 462.908C233.765 462.891 233.757 462.874 233.748 462.856L233.648 462.665C233.114 461.632 232.609 460.584 232.132 459.522C231.24 457.551 230.16 454.918 229.507 452.44C229.181 451.204 228.94 449.928 228.908 448.75C228.877 447.615 229.03 446.291 229.776 445.204C230.617 443.978 231.946 443.422 233.434 443.431C234.815 443.44 236.4 443.922 238.172 444.755L236.472 448.375ZM242.922 452.898C240.361 450.723 238.166 449.171 236.472 448.375L238.173 444.755C240.355 445.78 242.874 447.61 245.512 449.849L242.922 452.898ZM249.608 453.509L248.658 455.269L248.659 455.27L248.657 455.269L248.642 455.261L248.572 455.224C248.114 454.99 247.649 454.769 247.179 454.561C246.245 454.148 244.999 453.656 243.696 453.305L244.737 449.443C246.303 449.865 247.752 450.44 248.796 450.902C249.343 451.144 249.884 451.401 250.416 451.674C250.462 451.697 250.508 451.722 250.553 451.746L250.556 451.748L250.557 451.749H250.558L249.608 453.509ZM235.101 426.09C233.879 427.276 233.61 429.077 234.607 431.854C235.599 434.616 237.677 437.767 240.134 440.82C242.567 443.844 245.264 446.641 247.365 448.691C248.442 449.744 249.543 450.773 250.666 451.776L250.856 451.944L250.903 451.985L250.914 451.995L250.917 451.997L249.608 453.509L248.298 455.021L248.297 455.019L248.292 455.016L248.277 455.002L248.221 454.954C247.892 454.664 247.565 454.371 247.24 454.075C246.583 453.475 245.656 452.613 244.571 451.554C242.406 449.441 239.587 446.521 237.018 443.328C234.473 440.165 232.061 436.601 230.842 433.205C229.628 429.824 229.426 426.024 232.314 423.22L235.101 426.09ZM261.326 438.431L260.098 440.01L260.097 440.009L260.095 440.007C260.091 440.005 260.087 440.002 260.083 439.998L260.036 439.962L259.847 439.816C258.728 438.962 257.598 438.122 256.458 437.296C254.235 435.686 251.236 433.59 248.111 431.633C244.966 429.663 241.778 427.887 239.158 426.865C237.84 426.351 236.78 426.074 236.003 426.012C235.193 425.948 235.051 426.139 235.1 426.091L232.315 423.219C233.468 422.102 235.017 421.921 236.32 422.025C237.657 422.131 239.134 422.562 240.612 423.139C243.585 424.299 247.026 426.234 250.234 428.243C253.462 430.265 256.539 432.416 258.805 434.057C259.974 434.905 261.133 435.767 262.281 436.642L262.482 436.797L262.535 436.838L262.549 436.848L262.552 436.851L262.553 436.852C262.554 436.852 262.554 436.853 261.326 438.431ZM265.535 429.522C263.889 429.571 263.206 430.095 262.867 430.542C262.461 431.078 262.235 431.923 262.241 433.06C262.248 434.171 262.475 435.328 262.721 436.244C262.846 436.706 262.99 437.161 263.153 437.61L263.178 437.677L263.183 437.689C263.183 437.69 263.183 437.69 263.183 437.689V437.688L263.182 437.687L261.326 438.431C259.47 439.176 259.469 439.175 259.469 439.174L259.468 439.173L259.467 439.169L259.462 439.158C259.458 439.147 259.454 439.136 259.449 439.124L259.407 439.013C259.196 438.445 259.013 437.867 258.858 437.281C258.566 436.191 258.251 434.668 258.241 433.084C258.232 431.526 258.517 429.659 259.679 428.126C260.908 426.505 262.85 425.601 265.415 425.524L265.535 429.522ZM286.801 443.622L285.231 444.861L285.23 444.86C285.228 444.858 285.226 444.856 285.224 444.853L285.2 444.822L285.097 444.694C284.462 443.915 283.813 443.146 283.15 442.39C281.49 440.492 279.745 438.67 277.921 436.929C275.831 434.947 273.537 433.026 271.301 431.627C269.012 430.195 267.042 429.476 265.535 429.522L265.415 425.524C268.121 425.442 270.922 426.672 273.422 428.236C275.974 429.832 278.485 431.951 280.673 434.026C282.586 435.852 284.416 437.762 286.157 439.752C286.705 440.376 287.243 441.007 287.771 441.646C287.962 441.876 288.109 442.058 288.211 442.183L288.327 442.329C288.341 442.345 288.355 442.362 288.367 442.379L288.37 442.382V442.383C288.371 442.383 288.371 442.384 286.801 443.622ZM309.273 445.049C305.75 441.209 300.701 441.043 296.032 442.127C293.738 442.659 291.673 443.467 290.173 444.149C289.422 444.491 288.684 444.862 287.962 445.261L287.851 445.325C287.843 445.33 287.835 445.334 287.828 445.339L287.824 445.341L287.825 445.34L286.801 443.622C285.776 441.905 285.776 441.905 285.777 441.904L285.779 441.903L285.783 441.901L285.796 441.893L285.839 441.868C285.875 441.847 285.926 441.817 285.991 441.781C286.12 441.708 286.305 441.605 286.54 441.48C287.01 441.229 287.684 440.887 288.517 440.508C290.176 439.754 292.5 438.84 295.128 438.23C300.302 437.03 307.227 436.902 312.22 442.345L309.273 445.049Z" fill="#E1E4E5"/>
<path fill-rule="evenodd" clip-rule="evenodd" d="M320.5 482.75C320.5 482.75 219 401.702 219 327.683C219 273.178 264.447 229 320.5 229C376.553 229 422 273.178 422 327.683C422 401.702 320.5 482.75 320.5 482.75Z" fill="#4F27AA" stroke="#4F27AA" stroke-width="28.37" stroke-linecap="round" stroke-linejoin="round"/>
<path d="M320.478 318.607C313.707 318.607 308.265 323.964 308.265 330.52C308.265 337.077 313.75 342.391 320.521 342.391C327.292 342.391 332.735 337.077 332.735 330.478C332.778 323.964 327.292 318.607 320.478 318.607" stroke="white" stroke-width="48.242" stroke-linecap="round" stroke-linejoin="round"/>
<path d="M489.363 292.03C489.79 295.331 490.934 299.311 492.785 300.662C494.885 302.196 495.534 303.825 495.534 303.825L497.667 303.167L500.218 302.381C500.218 302.381 500.222 302.121 500.206 301.687C500.187 301.116 500.141 300.546 500.069 299.978C500.069 299.978 499.583 298.933 500.265 297.916C500.946 296.902 501.259 295.162 500.78 293.946C500.302 292.734 500.203 289.988 499.751 289.967C498.657 289.905 499.407 293.817 498.803 294.369C498.26 294.872 497.795 294.549 497.712 294.48C497.706 294.476 497.7 294.472 497.695 294.466C495.046 292.488 493.086 284.67 491.285 285.249C490.613 285.464 489.178 290.624 489.363 292.03ZM597.054 373.266C597.054 373.266 594.793 377.18 595.806 379.437C596.815 381.696 600.321 384.707 601.226 385.888C602.126 387.067 605.185 390.183 606.417 388.178C607.648 386.178 605.474 380.858 603.966 378.854C602.46 376.844 602.317 373.397 602.317 373.397L597.054 373.266Z" fill="#F8AE9D"/>
<path d="M595.607 378.785C595.607 378.785 595.779 383.097 595.984 384.249C596.19 385.403 596.394 385.05 597.182 384.275C597.97 383.501 597.961 381.244 598.257 381.095C598.553 380.947 595.607 378.785 595.607 378.785Z" fill="#F8AE9D"/>
<path d="M556.047 291.559C556.047 291.559 529.666 319.995 521.453 324.45L500.762 300.026C500.762 300.026 496.878 300.299 494.447 303.574C494.447 303.574 502.474 338.021 517.122 342.792C531.769 347.562 561.629 314.023 561.629 314.023L556.047 291.559ZM531.451 500H558.541C559.842 498.466 559.363 492.801 559.167 490.949C559.126 490.575 559.099 490.361 559.099 490.361C559.099 490.361 549.849 483.217 548.578 488.687C548.539 488.857 548.494 489.026 548.441 489.193C546.842 494.309 539.66 496.634 535.516 497.282C532.817 497.702 531.821 499.055 531.451 500Z" fill="#2E2445"/>
<path d="M549.689 500H576.779C578.081 498.466 577.601 492.801 577.406 490.949C577.365 490.575 577.338 490.361 577.338 490.361C577.338 490.361 568.087 483.217 566.817 488.687C566.778 488.857 566.733 489.026 566.68 489.193C565.08 494.309 557.899 496.634 553.755 497.282C551.056 497.702 550.059 499.055 549.689 500Z" fill="#2E2445"/>
<path d="M538.851 378.197C538.851 378.197 540.146 392.215 541.669 409.062C543.738 431.95 546.227 460.065 546.473 465.39C546.899 474.639 548.605 489.431 548.605 489.431C548.605 489.431 552.654 492.946 560.759 491.464C560.759 491.464 567.983 470.346 570.045 448L570.14 446.896C572.06 424.151 575.042 376.252 575.042 376.252L538.851 378.197Z" fill="#4F27AA"/>
<path d="M546.198 379.155C546.198 379.155 548.64 393.033 551.541 409.715C555.483 432.378 560.272 460.22 560.95 465.507C562.126 474.689 565.049 489.315 565.049 489.315C565.049 489.315 569.453 492.575 577.586 490.621C577.586 490.621 583.246 469.172 583.554 446.805L583.562 445.7C583.693 422.943 582.887 375.084 582.887 375.084L546.198 379.155Z" fill="#4F27AA"/>
<path d="M550.394 296.68C559.702 299.619 575.064 291.332 575.064 291.332C575.064 291.332 567.228 285.244 567.676 271.848L560.479 277.65L555.59 281.589C555.59 281.589 555.609 283.913 556.144 287.983C556.286 289.054 556.544 290.726 555.741 291.584C552.624 294.91 550.394 296.68 550.394 296.68Z" fill="#F8AE9D"/>
<path d="M552.743 281.369C552.743 281.369 568.121 283.925 569.565 274.323C571.009 264.722 573.965 258.585 564.208 256.548C554.452 254.511 551.986 257.885 550.726 260.973C549.466 264.061 548.782 280.457 552.743 281.369Z" fill="#F8AE9D"/>
<path d="M537.398 383.163C537.678 383.395 538.004 383.537 538.378 383.537C541.875 383.489 552.07 385.432 560.695 384.546C567.966 383.846 574.406 381.693 581.317 378.596C582.235 378.183 584.346 377.055 584.301 376.03C584.269 374.905 584.16 373.278 584.018 371.225C583.528 364.089 582.677 351.818 583.508 337.659C583.657 335.022 583.737 332.408 583.747 329.833C583.818 310.642 580.015 293.766 572.366 288.054C571.712 287.587 567.702 289.547 564.018 291.361C560.614 293.041 557.946 293.218 554.729 292.567L550.781 295.416C546.864 299.052 542.574 303.996 540.708 311.5C539.122 317.888 538.191 329.404 537.678 341.34C537.446 346.748 537.259 352.205 537.211 357.378V357.562C537.166 358.074 537.166 358.635 537.166 359.147C536.979 372.44 537.166 382.976 537.398 383.163Z" fill="#2E2445"/>
<path d="M599.359 375.26C596.44 375.656 593.325 375.247 593.325 375.247C593.325 375.247 586.287 348.282 585.323 345.801C584.359 343.321 561.668 313.295 561.668 313.295L573.278 288.496C573.278 288.496 597.069 334.009 599.385 340.345C603.213 350.813 603.424 373.803 603.424 373.803C603.424 373.803 601.653 374.95 599.359 375.26ZM571.295 270.884C570.458 272.615 568.029 272.871 568.253 270.962C568.508 268.789 568.505 265.946 566.738 266.475C564.972 267.004 564.882 268.419 564.157 267.593C563.431 266.768 563.419 263.287 558.158 263.042C552.898 262.801 550.761 264.631 548.318 263.555C546.854 262.91 546.22 261.326 545.947 260.158C545.869 259.827 546.11 259.365 546.331 259.623C546.54 259.867 547.065 259.852 546.916 259.568C545.989 257.81 544.604 253.972 548.134 251.113C552.859 247.288 557.675 249.792 560.408 249.956C566.432 250.321 570.323 250.681 572.289 254.64C573.918 257.923 573.639 266.035 571.295 270.884Z" fill="#2E2445"/>
<path d="M485.486 280.76L493.258 278.387C493.807 278.22 494.388 278.529 494.555 279.078L499.742 296.07C499.91 296.618 499.601 297.199 499.052 297.367L491.28 299.739C490.731 299.907 490.15 299.598 489.983 299.049L484.796 282.057C484.628 281.508 484.937 280.927 485.486 280.76Z" fill="#4F27AA"/>
</g>
<defs>
<clipPath id="clip0_1235_19224">
<rect width="900" height="600" fill="white"/>
</clipPath>
</defs>
</svg>
