<svg width="900" height="600" viewBox="0 0 900 600" fill="none" xmlns="http://www.w3.org/2000/svg">
<g clip-path="url(#clip0_1235_19178)">
<path fill-rule="evenodd" clip-rule="evenodd" d="M274.866 167C237.949 167 207.749 197.234 207.749 234.192C207.749 271.15 237.949 301.384 274.866 301.384C282.272 301.384 288.337 307.456 288.337 314.87C288.337 322.284 282.272 328.356 274.866 328.356H239.746C221.737 328.356 207 343.11 207 361.139C207 379.168 221.737 393.922 239.746 393.922C255.321 393.922 268.066 406.681 268.066 422.274C268.066 450.723 291.317 474 319.735 474H623.045C659.962 474 690.162 443.766 690.162 406.808C690.162 369.85 659.962 339.616 623.045 339.616H616.553C609.147 339.616 603.082 333.552 603.082 326.13C603.082 318.716 609.139 312.644 616.553 312.644H660.254C678.263 312.644 693 297.89 693 279.861C693 261.854 678.301 247.116 660.321 247.078H625.157C609.581 247.078 596.836 234.319 596.836 218.726C596.836 190.277 573.585 167 545.168 167H274.866Z" fill="url(#paint0_linear_1235_19178)"/>
<path d="M563 76H337C314.909 76 297 93.9086 297 116V484C297 506.091 314.909 524 337 524H563C585.091 524 603 506.091 603 484V116C603 93.9086 585.091 76 563 76Z" fill="#4F27AA"/>
<path d="M354 306H545M354 354H545M388 402H512" stroke="white" stroke-width="22.017" stroke-linecap="round" stroke-linejoin="round"/>
<path fill-rule="evenodd" clip-rule="evenodd" d="M412 252.87V258.435C412 261.507 414.464 264 417.5 264H483.5C486.536 264 489 261.507 489 258.435V252.781C489 235.941 469.981 225 450.5 225C431.019 225 412 235.946 412 252.781M436.711 175.711C429.096 183.327 429.096 195.673 436.711 203.289C444.327 210.904 456.673 210.904 464.289 203.289C471.904 195.673 471.904 183.327 464.289 175.711C456.673 168.096 444.327 168.096 436.711 175.711Z" fill="white"/>
<path d="M243.668 496.296L262.214 477.75C262.89 477.075 262.89 475.98 262.214 475.305L262.214 475.304C261.539 474.629 260.444 474.629 259.769 475.304L241.223 493.85C240.547 494.525 240.547 495.62 241.223 496.295L241.223 496.296C241.898 496.971 242.993 496.971 243.668 496.296Z" fill="#E1E4E5"/>
<path d="M245.484 483.016L250.832 477.668C251.508 476.993 251.508 475.898 250.832 475.223L250.832 475.222C250.156 474.547 249.062 474.547 248.386 475.222L243.038 480.571C242.363 481.246 242.363 482.341 243.038 483.016L243.039 483.016C243.714 483.692 244.809 483.692 245.484 483.016Z" fill="#E1E4E5"/>
<path d="M253.368 143.544L275.448 121.464C276.252 120.66 276.252 119.356 275.448 118.552C274.644 117.748 273.34 117.748 272.536 118.552L250.456 140.632C249.652 141.436 249.652 142.74 250.456 143.544C251.26 144.348 252.564 144.348 253.368 143.544Z" fill="#E1E4E5"/>
<path d="M255.53 127.736L261.897 121.368C262.701 120.564 262.701 119.26 261.897 118.456C261.093 117.652 259.789 117.652 258.985 118.456L252.618 124.824C251.814 125.628 251.814 126.931 252.618 127.736C253.422 128.54 254.726 128.54 255.53 127.736Z" fill="#E1E4E5"/>
<path d="M654.42 398.006L624.005 428.42C622.898 429.528 622.898 431.324 624.005 432.431C625.113 433.539 626.909 433.539 628.016 432.431L658.431 402.016C659.538 400.909 659.538 399.113 658.431 398.006C657.323 396.898 655.528 396.898 654.42 398.006Z" fill="#E1E4E5"/>
<path d="M651.443 419.782L642.671 428.553C641.564 429.661 641.564 431.456 642.671 432.564C643.779 433.671 645.575 433.671 646.682 432.564L655.454 423.792C656.561 422.685 656.561 420.889 655.454 419.782C654.346 418.674 652.551 418.674 651.443 419.782Z" fill="#E1E4E5"/>
<path d="M680.043 188.958C659.93 206.385 625.487 199.6 625.487 199.6C625.487 199.6 623.674 164.563 643.802 147.149C663.915 129.722 698.342 136.494 698.342 136.494C698.342 136.494 700.155 171.532 680.043 188.958Z" fill="url(#paint1_linear_1235_19178)"/>
</g>
<defs>
<linearGradient id="paint0_linear_1235_19178" x1="460.362" y1="646.122" x2="454.382" y2="-167.03" gradientUnits="userSpaceOnUse">
<stop stop-color="white"/>
<stop offset="1" stop-color="#EEEEEE"/>
</linearGradient>
<linearGradient id="paint1_linear_1235_19178" x1="600.672" y1="247.627" x2="752.013" y2="47.7483" gradientUnits="userSpaceOnUse">
<stop stop-color="white"/>
<stop offset="1" stop-color="#EEEEEE"/>
</linearGradient>
<clipPath id="clip0_1235_19178">
<rect width="900" height="600" fill="white"/>
</clipPath>
</defs>
</svg>
