<svg width="309" height="207" viewBox="0 0 309 207" fill="none" xmlns="http://www.w3.org/2000/svg">
<path d="M287.035 144.249H263.653C257.924 144.249 253.124 140.35 253.124 135.411C253.124 132.941 254.363 130.732 256.221 129.172C258.079 127.613 260.711 126.573 263.653 126.573H267.06C270.002 126.573 272.634 125.533 274.492 123.973C276.351 122.414 277.589 120.204 277.589 117.735C277.589 112.926 272.944 108.896 267.06 108.896H195.645C193.78 108.896 192.581 106.603 192.581 104.738C192.581 100.059 188.09 96.2893 182.516 96.2893H155.94C155.273 96.2812 154.636 96.0106 154.168 95.5362C153.699 95.0618 153.436 94.4217 153.436 93.7548C153.436 93.0879 153.699 92.4479 154.168 91.9734C154.636 91.499 155.273 91.2284 155.94 91.2203H257.769C262.26 91.2203 266.441 89.6606 269.382 87.191C272.325 84.7215 274.183 81.2123 274.183 77.4431C274.183 69.7747 266.75 63.6661 257.769 63.6661H205.176C196.924 63.6661 188.755 57.2975 180.503 57.2975H151.139C146.832 57.2975 143.341 53.8058 143.341 49.4989C143.341 45.192 146.832 41.7007 151.139 41.7007H216.891C219.988 41.7007 222.93 40.6607 224.943 38.9711C226.956 37.2814 228.194 34.9421 228.194 32.2125C228.194 27.0137 223.085 22.7246 216.891 22.7246H65.3C62.2034 22.7246 59.2612 23.7642 57.2482 25.4539C55.2351 27.1435 53.9964 29.4832 53.9964 32.2125C53.9964 37.4116 59.1064 41.7007 65.3 41.7007H69.1713C74.2809 41.7007 78.6166 45.2099 78.6166 49.6291C78.6166 51.8386 77.5327 53.788 75.8292 55.2179C74.1261 56.6475 71.8035 57.5572 69.1713 57.5572H50.4351C47.1833 57.5572 44.0868 58.7271 41.9189 60.5466C39.7511 62.3664 38.3576 64.8356 38.3576 67.6951C38.3576 73.2839 43.7768 77.7032 50.2803 77.7032H69.3261C75.5196 77.7032 80.6296 81.9922 80.6296 87.191C80.6296 89.7904 79.3909 92.1301 77.3779 93.8198C75.3648 95.5094 72.5778 96.549 69.4809 96.549H52.4481C49.6611 96.549 47.1833 97.4588 45.3255 99.0186C43.4672 100.578 42.3833 102.658 42.3833 104.997C42.3833 109.676 46.8738 113.446 52.4481 113.446H66.2291C74.1261 113.446 80.4745 118.775 80.4745 125.403C80.4745 128.652 78.9262 131.772 76.294 133.851C73.6617 136.061 70.1 137.361 66.2291 137.361H47.0285C43.1576 137.361 39.5963 138.66 37.1189 140.87C34.4863 142.949 32.938 145.939 32.938 149.188C32.938 155.687 39.2867 161.016 47.0285 161.016H106.316C112.864 161.016 119.296 164.655 125.843 164.655H136.641C140.769 164.655 144.115 168.001 144.115 172.128C144.115 176.256 140.769 179.602 136.641 179.602H110.359C106.953 179.602 104.011 180.771 101.843 182.591C99.675 184.411 98.2815 187.01 98.2815 189.739C98.2815 195.329 103.701 199.877 110.359 199.877H271.395C274.802 199.877 277.744 198.708 279.912 196.888C282.08 195.068 283.473 192.469 283.473 189.739C283.473 184.151 278.054 179.602 271.395 179.602H266.595C261.641 179.602 257.769 176.222 257.769 172.193C257.769 170.114 258.698 168.294 260.402 166.994C261.95 165.695 264.273 164.785 266.75 164.785H287.035C290.441 164.785 293.383 163.615 295.551 161.795C297.719 159.976 299.112 157.376 299.112 154.647C299.112 148.798 293.693 144.249 287.035 144.249Z" fill="url(#paint0_linear_1334_6760)" fill-opacity="0.3"/>
<g clip-path="url(#clip0_1334_6760)">
<path d="M228.166 56.7882C221.9 36.276 167.737 9.80198 124.948 42.7129C105.047 58.0202 111.224 69.0055 99.7653 90.6921C92.9351 103.618 80.8367 115.942 81.645 130.782C82.34 143.592 89.0234 155.177 98.0646 160.986C118.398 174.05 150.614 176.267 167.456 137.706C184.298 99.1451 244.322 109.693 228.166 56.7882Z" fill="url(#paint1_linear_1334_6760)"/>
<path d="M246.603 121.19C242.326 115.675 234.827 115.968 223.187 118.908C214.433 121.121 206.432 123.02 198.281 129.228C192.575 133.571 188.347 138.916 185.429 143.927C182.266 149.356 177.666 155.702 181.159 160.782C185.958 167.76 208.088 170.888 227.079 157.387C247.94 142.554 250.786 126.579 246.603 121.19Z" fill="url(#paint2_linear_1334_6760)"/>
<path d="M96.9538 72.2638C90.9439 88.3353 84.9285 105.317 73.925 115.842C62.5762 126.701 58.9242 122.869 56.0964 115.977C53.2682 109.084 52.8508 91.0656 68.4237 76.5648C84.0011 62.0599 102.577 57.2229 96.9538 72.2638Z" fill="url(#paint3_linear_1334_6760)"/>
<path fill-rule="evenodd" clip-rule="evenodd" d="M109.825 53.2764H203.407C210.793 53.2764 216.776 59.2761 216.776 66.6836V69.2645H96.4565V66.6836C96.4565 59.2761 102.439 53.2764 109.825 53.2764ZM96.4565 86.5721V153.832C96.4565 161.239 102.439 167.239 109.825 167.239H203.407C210.793 167.239 216.776 161.239 216.776 153.832V86.5721H96.4565Z" fill="#4F27AA"/>
<path d="M216.776 69.2638V73.595C219.161 73.595 221.095 71.6561 221.095 69.2638H216.776ZM96.4565 69.2638H92.1377C92.1377 71.6561 94.0711 73.595 96.4565 73.595V69.2638ZM96.4565 86.5713V82.24C94.0711 82.24 92.1377 84.1794 92.1377 86.5713H96.4565ZM216.776 86.5713H221.095C221.095 84.1794 219.161 82.24 216.776 82.24V86.5713ZM203.407 48.9443H109.825V57.6069H203.407V48.9443ZM221.095 66.6828C221.095 56.8833 213.178 48.9443 203.407 48.9443V57.6069C208.408 57.6069 212.457 61.6673 212.457 66.6828H221.095ZM221.095 69.2638V66.6828H212.457V69.2638H221.095ZM96.4565 73.595H216.776V64.9325H96.4565V73.595ZM92.1377 66.6828V69.2638H100.775V66.6828H92.1377ZM109.825 48.9443C100.054 48.9443 92.1377 56.8833 92.1377 66.6828H100.775C100.775 61.6673 104.824 57.6069 109.825 57.6069V48.9443ZM92.1377 86.5713V153.831H100.775V86.5713H92.1377ZM92.1377 153.831C92.1377 163.63 100.054 171.569 109.825 171.569V162.907C104.824 162.907 100.775 158.846 100.775 153.831H92.1377ZM109.825 171.569H203.407V162.907H109.825V171.569ZM203.407 171.569C213.178 171.569 221.095 163.63 221.095 153.831H212.457C212.457 158.846 208.408 162.907 203.407 162.907V171.569ZM221.095 153.831V86.5713H212.457V153.831H221.095ZM216.776 82.24H96.4565V90.9026H216.776V82.24Z" fill="#4F27AA"/>
<path d="M118.13 99.0635H110.818C107.616 99.0635 105.02 101.667 105.02 104.879V112.212C105.02 115.424 107.616 118.027 110.818 118.027H118.13C121.333 118.027 123.929 115.424 123.929 112.212V104.879C123.929 101.667 121.333 99.0635 118.13 99.0635Z" fill="white"/>
<path d="M118.13 128.482H110.818C107.616 128.482 105.02 131.086 105.02 134.298V141.631C105.02 144.843 107.616 147.446 110.818 147.446H118.13C121.333 147.446 123.929 144.843 123.929 141.631V134.298C123.929 131.086 121.333 128.482 118.13 128.482Z" fill="white"/>
<path d="M146.285 99.0635H138.664C135.461 99.0635 132.865 101.667 132.865 104.879V112.212C132.865 115.424 135.461 118.027 138.664 118.027H146.285C149.488 118.027 152.084 115.424 152.084 112.212V104.879C152.084 101.667 149.488 99.0635 146.285 99.0635Z" fill="white"/>
<path d="M146.285 128.482H138.664C135.461 128.482 132.865 131.086 132.865 134.298V141.631C132.865 144.843 135.461 147.446 138.664 147.446H146.285C149.488 147.446 152.084 144.843 152.084 141.631V134.298C152.084 131.086 149.488 128.482 146.285 128.482Z" fill="white"/>
<path d="M174.13 99.0635H166.818C163.616 99.0635 161.02 101.667 161.02 104.879V112.212C161.02 115.424 163.616 118.027 166.818 118.027H174.13C177.333 118.027 179.929 115.424 179.929 112.212V104.879C179.929 101.667 177.333 99.0635 174.13 99.0635Z" fill="white"/>
<path d="M174.13 128.482H166.818C163.616 128.482 161.02 131.086 161.02 134.298V141.631C161.02 144.843 163.616 147.446 166.818 147.446H174.13C177.333 147.446 179.929 144.843 179.929 141.631V134.298C179.929 131.086 177.333 128.482 174.13 128.482Z" fill="white"/>
<path d="M201.975 99.0635H194.663C191.46 99.0635 188.864 101.667 188.864 104.879V112.212C188.864 115.424 191.46 118.027 194.663 118.027H201.975C205.177 118.027 207.774 115.424 207.774 112.212V104.879C207.774 101.667 205.177 99.0635 201.975 99.0635Z" fill="white"/>
<path d="M115.851 37.5674H115.85C113.704 37.5674 111.963 39.3127 111.963 41.4656V61.5149C111.963 63.6678 113.704 65.4131 115.85 65.4131H115.851C117.998 65.4131 119.738 63.6678 119.738 61.5149V41.4656C119.738 39.3127 117.998 37.5674 115.851 37.5674Z" fill="#4F27AA"/>
<path d="M169.902 37.5674H169.901C167.754 37.5674 166.014 39.3127 166.014 41.4656V61.5149C166.014 63.6678 167.754 65.4131 169.901 65.4131H169.902C172.048 65.4131 173.789 63.6678 173.789 61.5149V41.4656C173.789 39.3127 172.048 37.5674 169.902 37.5674Z" fill="#4F27AA"/>
<path d="M142.876 37.5674H142.876C140.729 37.5674 138.989 39.3127 138.989 41.4656V61.5149C138.989 63.6678 140.729 65.4131 142.876 65.4131H142.876C145.023 65.4131 146.763 63.6678 146.763 61.5149V41.4656C146.763 39.3127 145.023 37.5674 142.876 37.5674Z" fill="#4F27AA"/>
<path d="M196.927 37.5674H196.927C194.78 37.5674 193.04 39.3127 193.04 41.4656V61.5149C193.04 63.6678 194.78 65.4131 196.927 65.4131H196.927C199.074 65.4131 200.814 63.6678 200.814 61.5149V41.4656C200.814 39.3127 199.074 37.5674 196.927 37.5674Z" fill="#4F27AA"/>
<path fill-rule="evenodd" clip-rule="evenodd" d="M234.116 131.711C245.167 142.793 245.167 160.761 234.116 171.843C223.066 182.925 205.15 182.925 194.1 171.843C183.05 160.761 183.05 142.793 194.1 131.711C205.15 120.629 223.066 120.629 234.116 131.711Z" fill="#4F27AA"/>
<path d="M234.116 131.711C245.167 142.793 245.167 160.761 234.116 171.843C223.066 182.925 205.15 182.925 194.1 171.843C183.05 160.761 183.05 142.793 194.1 131.711C205.15 120.629 223.066 120.629 234.116 131.711" stroke="white" stroke-width="7" stroke-linecap="round" stroke-linejoin="round"/>
<path d="M225.425 160.42L214.156 153.679V139.148" stroke="white" stroke-width="5" stroke-linecap="round" stroke-linejoin="round"/>
<path d="M240.948 61.9288C237.6 63.8677 233.318 62.7171 231.384 59.3588C229.451 56.0006 230.598 51.7064 233.947 49.7675C237.296 47.8286 241.578 48.9792 243.511 52.3375C245.444 55.6957 244.297 59.9899 240.948 61.9288Z" fill="#4F27AA"/>
<path d="M241.188 83.609C241.188 85.353 239.778 86.7669 238.039 86.7669C236.3 86.7669 234.89 85.353 234.89 83.609C234.89 81.865 236.3 80.4512 238.039 80.4512C239.778 80.4512 241.188 81.865 241.188 83.609Z" fill="#E1E4E5"/>
<path d="M84.3827 76.9228C82.8492 76.9228 81.606 78.1695 81.606 79.7075C81.606 81.2454 82.8492 82.4922 84.3827 82.4922C85.9163 82.4922 87.1594 81.2454 87.1594 79.7075C87.1594 78.1695 85.9163 76.9228 84.3827 76.9228Z" fill="#E1E4E5"/>
<path d="M55.1361 146.352C58.1008 146.352 60.5042 148.762 60.5042 151.736C60.5042 154.709 58.1008 157.119 55.1361 157.119C52.1714 157.119 49.7681 154.709 49.7681 151.736C49.7681 148.762 52.1714 146.352 55.1361 146.352Z" fill="#E1E4E5"/>
<path d="M159.392 40.8709C157.67 41.8677 155.469 41.2762 154.475 39.5498C153.481 37.8234 154.071 35.6159 155.793 34.6192C157.514 33.6225 159.715 34.214 160.709 35.9403C161.703 37.6667 161.113 39.8742 159.392 40.8709Z" fill="#E1E4E5"/>
<path d="M107.521 55.0177C108.952 55.0177 110.112 53.7709 110.112 52.233C110.112 50.695 108.952 49.4482 107.521 49.4482C106.09 49.4482 104.929 50.695 104.929 52.233C104.929 53.7709 106.09 55.0177 107.521 55.0177Z" fill="#4F27AA"/>
<path d="M252.355 114.081C248.564 111.886 243.716 113.188 241.527 116.99C239.339 120.792 240.637 125.654 244.428 127.849C248.22 130.044 253.067 128.741 255.256 124.939C257.445 121.137 256.146 116.276 252.355 114.081Z" fill="#4F27AA"/>
<path d="M68.8553 105.173C67.1503 104.185 64.9701 104.771 63.9857 106.481C63.0013 108.191 63.5855 110.378 65.2905 111.365C66.9955 112.352 69.1757 111.766 70.1601 110.056C71.1444 108.346 70.5603 106.16 68.8553 105.173Z" fill="#4F27AA"/>
<path d="M78.8297 131.5C77.2962 131.5 76.053 130.253 76.053 128.715C76.053 127.177 77.2962 125.931 78.8297 125.931C80.3633 125.931 81.6064 127.177 81.6064 128.715C81.6064 130.253 80.3633 131.5 78.8297 131.5Z" fill="#E1E4E5"/>
<path d="M235.885 106.52C236.886 107.1 237.229 108.384 236.651 109.388C236.073 110.392 234.793 110.736 233.792 110.156C232.791 109.576 232.448 108.293 233.026 107.289C233.604 106.285 234.884 105.941 235.885 106.52Z" fill="#E1E4E5"/>
<path d="M63.4659 67.6408C66.7373 67.6408 69.3893 65.0642 69.3893 61.8858C69.3893 58.7074 66.7373 56.1309 63.4659 56.1309C60.1945 56.1309 57.5425 58.7074 57.5425 61.8858C57.5425 65.0642 60.1945 67.6408 63.4659 67.6408Z" fill="#E1E4E5"/>
<path d="M186.015 176.684C183.895 176.684 182.176 178.407 182.176 180.534C182.176 182.66 183.895 184.384 186.015 184.384C188.136 184.384 189.854 182.66 189.854 180.534C189.854 178.407 188.136 176.684 186.015 176.684Z" fill="#E1E4E5"/>
<path fill-rule="evenodd" clip-rule="evenodd" d="M47 45.2635V34.7365C47 31.195 48.8461 27.9211 51.8447 26.1393L61.5947 20.3496C63.0839 19.4657 64.776 19 66.4989 19C68.2218 19 69.9139 19.4657 71.4031 20.3496L81.1531 26.1393C84.1539 27.9211 86 31.195 86 34.7365V45.2635C86 48.805 84.1539 52.0789 81.1553 53.8607L71.4053 59.6504C69.9161 60.5343 68.224 61 66.5011 61C64.7782 61 63.0861 60.5343 61.5969 59.6504L51.8469 53.8607C48.8461 52.0789 47 48.805 47 45.2635Z" fill="#4F27AA" stroke="#4F27AA" stroke-width="21.417" stroke-linecap="round" stroke-linejoin="round"/>
<path d="M62.9547 35.15H67.2047C69.1047 35.15 70.3714 34.9 71.0047 34.4C71.638 33.8667 71.9547 33.0833 71.9547 32.05C71.9547 31.8167 71.938 31.5833 71.9047 31.35C71.9047 31.0833 71.8714 30.7667 71.8047 30.4C71.7714 30.0333 71.688 29.5833 71.5547 29.05C71.4547 28.5167 71.3047 27.85 71.1047 27.05L76.7047 25.9C77.0047 27.5 77.2047 28.8 77.3047 29.8C77.438 30.8 77.5047 31.75 77.5047 32.65C77.5047 35.8833 76.688 38.3667 75.0547 40.1C73.4214 41.8 70.8047 42.65 67.2047 42.65H63.4047L64.3547 57H58.2547L56.3047 26.5H62.4047L62.9547 35.15Z" fill="white"/>
</g>
<defs>
<linearGradient id="paint0_linear_1334_6760" x1="171.701" y1="299.199" x2="168.065" y2="-170.023" gradientUnits="userSpaceOnUse">
<stop stop-color="#FFA6A6"/>
<stop offset="1" stop-color="#EEEEEE"/>
</linearGradient>
<linearGradient id="paint1_linear_1334_6760" x1="137.22" y1="-46.5294" x2="185.503" y2="312.242" gradientUnits="userSpaceOnUse">
<stop stop-color="white"/>
<stop offset="1" stop-color="#EEEEEE"/>
</linearGradient>
<linearGradient id="paint2_linear_1334_6760" x1="218.021" y1="85.5819" x2="208.389" y2="225.375" gradientUnits="userSpaceOnUse">
<stop stop-color="white"/>
<stop offset="1" stop-color="#EEEEEE"/>
</linearGradient>
<linearGradient id="paint3_linear_1334_6760" x1="74.3887" y1="30.8697" x2="81.9745" y2="185.629" gradientUnits="userSpaceOnUse">
<stop stop-color="white"/>
<stop offset="1" stop-color="#EEEEEE"/>
</linearGradient>
<clipPath id="clip0_1334_6760">
<rect width="308.905" height="206.53" fill="white" transform="translate(0 0.469727)"/>
</clipPath>
</defs>
</svg>
