<svg width="900" height="600" viewBox="0 0 900 600" fill="none" xmlns="http://www.w3.org/2000/svg">
<g clip-path="url(#clip0_1235_19349)">
<path d="M595.079 280.973L595.36 295.41L595.368 295.753C595.387 296.599 595.716 297.408 596.294 298.026C596.872 298.644 597.657 299.027 598.5 299.103L610.516 300.164C610.715 300.182 610.907 300.214 611.091 300.264C612.378 300.62 613.386 301.694 613.565 303.042C614.734 310.962 617.474 318.568 621.625 325.413C621.794 325.699 621.917 326.001 622 326.305C622.149 326.889 622.145 327.501 621.989 328.083C621.832 328.665 621.528 329.196 621.106 329.626L613.967 336.731C613.518 337.189 613.204 337.761 613.058 338.385C612.912 339.009 612.941 339.662 613.14 340.271C613.272 340.635 613.458 341.003 613.719 341.334L622.945 352.83C623.498 353.516 624.289 353.97 625.161 354.101C626.033 354.232 626.922 354.031 627.653 353.537L638.777 346.066C639.313 345.706 639.941 345.507 640.587 345.491C641.233 345.475 641.87 345.643 642.424 345.976C644.073 346.942 645.766 347.833 647.496 348.645C650.715 350.15 654.063 351.365 657.498 352.276L657.513 352.284C658.197 352.46 658.811 352.842 659.272 353.378C659.733 353.913 660.019 354.577 660.092 355.28L661.523 368.794L661.602 369.473C661.769 371.212 663.273 372.554 665.047 372.515L679.814 372.217C681.611 372.168 683.105 370.79 683.267 368.997L684.468 355.629C684.529 354.907 684.817 354.223 685.291 353.675C685.764 353.126 686.399 352.742 687.105 352.577C693.171 351.09 698.97 348.671 704.295 345.408C704.956 345.009 705.733 344.843 706.5 344.938C707.266 345.033 707.979 345.382 708.524 345.93L716.955 354.358C717.569 354.972 718.388 355.337 719.256 355.383C720.123 355.429 720.976 355.153 721.652 354.607L733.219 345.342C733.875 344.815 734.31 344.062 734.437 343.23C734.564 342.399 734.375 341.55 733.907 340.851L725.153 327.781C724.788 327.237 724.582 326.602 724.558 325.947C724.534 325.292 724.694 324.644 725.019 324.075C727.386 319.937 729.263 315.538 730.611 310.965C730.989 309.631 732.128 308.653 733.508 308.524L749.768 306.809C750.627 306.717 751.421 306.307 751.993 305.659C752.566 305.011 752.875 304.173 752.861 303.309L752.586 288.497C752.564 287.738 752.294 287.007 751.817 286.417C751.34 285.826 750.682 285.408 749.945 285.227C749.791 285.192 749.622 285.151 749.454 285.147L734.616 283.827C733.236 283.711 732.057 282.802 731.633 281.491C731.592 281.376 731.55 281.264 731.533 281.142C731.454 280.784 731.385 280.449 731.269 280.094C730.265 275.92 728.817 271.865 726.948 268C726.302 266.717 726.583 265.15 727.628 264.127L736.541 255.21C737.807 253.952 737.908 251.922 736.785 250.529L734.738 247.969L727.569 239.056C726.453 237.648 724.442 237.351 722.938 238.347L711.98 245.706C710.813 246.502 709.291 246.452 708.145 245.633C702.775 241.781 696.812 238.831 690.492 236.901L690.197 234.065L688.963 222.429C688.896 221.735 688.613 221.08 688.155 220.555C687.697 220.029 687.086 219.661 686.408 219.5C686.119 219.427 685.822 219.396 685.525 219.409L670.659 219.68C668.9 219.726 667.466 221.095 667.297 222.828L666.492 231.964C666.355 233.504 665.165 234.799 663.633 235.047C657.307 236.057 651.182 238.065 645.485 240.994C644.141 241.687 642.536 241.448 641.521 240.391L630.863 229.735C630.283 229.161 629.512 228.82 628.697 228.777C627.882 228.734 627.08 228.992 626.443 229.502L614.764 238.886C613.377 239.993 613.076 241.967 614.063 243.409L623.174 257.004C623.969 258.169 623.956 259.69 623.159 260.866C621.456 263.375 619.95 266.067 618.616 268.919C617.903 270.438 617.254 271.986 616.67 273.559C616.445 274.158 616.059 274.683 615.555 275.078C615.051 275.472 614.448 275.719 613.813 275.793L598.225 277.442C597.355 277.533 596.55 277.945 595.968 278.598C595.386 279.251 595.069 280.098 595.079 280.973ZM655.95 321.842C652.544 319.762 649.352 316.989 646.49 313.464C645.874 312.723 645.278 311.823 644.694 310.85C642.236 306.627 640.411 300.812 640.347 296.555C639.912 263.986 677.719 249.872 698.682 274.189C699.021 274.593 699.362 274.996 699.694 275.416C702.816 279.308 705.446 286.631 705.567 291.613C705.627 294.116 705.453 296.619 705.049 299.09C701.021 322.725 675.359 333.676 655.95 321.842Z" fill="url(#paint0_linear_1235_19349)"/>
<path d="M164.302 273.686L164.583 288.123L164.591 288.466C164.61 289.312 164.94 290.121 165.517 290.739C166.095 291.357 166.88 291.741 167.723 291.816L179.739 292.877C179.938 292.895 180.13 292.927 180.315 292.976C181.601 293.333 182.609 294.406 182.788 295.754C183.957 303.674 186.697 311.28 190.849 318.125C191.017 318.412 191.14 318.714 191.223 319.018C191.372 319.602 191.368 320.214 191.212 320.796C191.055 321.377 190.751 321.909 190.329 322.338L183.191 329.443C182.742 329.901 182.428 330.473 182.282 331.097C182.136 331.722 182.164 332.374 182.363 332.983C182.495 333.348 182.681 333.716 182.942 334.046L192.168 345.543C192.721 346.23 193.512 346.683 194.384 346.814C195.256 346.945 196.145 346.744 196.876 346.25L208 338.779C208.536 338.419 209.164 338.219 209.81 338.203C210.456 338.187 211.093 338.356 211.647 338.689C213.297 339.655 214.99 340.545 216.72 341.358C219.94 342.862 223.286 344.077 226.721 344.989L226.736 344.996C227.42 345.173 228.034 345.555 228.495 346.09C228.956 346.626 229.242 347.289 229.315 347.992L230.746 361.506L230.826 362.185C230.992 363.924 232.497 365.266 234.27 365.227L249.037 364.929C250.834 364.88 252.328 363.503 252.49 361.709L253.691 348.342C253.752 347.62 254.04 346.936 254.514 346.387C254.987 345.839 255.622 345.455 256.328 345.289C262.394 343.802 268.193 341.384 273.518 338.121C274.18 337.722 274.956 337.557 275.723 337.651C276.49 337.746 277.203 338.095 277.748 338.642L286.178 347.071C286.792 347.685 287.612 348.05 288.479 348.096C289.346 348.142 290.2 347.865 290.875 347.319L302.442 338.055C303.098 337.529 303.533 336.775 303.661 335.943C303.788 335.111 303.599 334.262 303.13 333.563L294.376 320.493C294.011 319.949 293.805 319.314 293.781 318.66C293.757 318.005 293.917 317.357 294.242 316.788C296.61 312.65 298.486 308.25 299.834 303.677C300.212 302.344 301.351 301.366 302.731 301.237L318.991 299.521C319.85 299.429 320.644 299.019 321.217 298.371C321.789 297.724 322.098 296.885 322.084 296.021L321.809 281.21C321.787 280.451 321.518 279.72 321.041 279.13C320.564 278.539 319.906 278.121 319.169 277.939C319.014 277.904 318.845 277.864 318.677 277.86L303.839 276.539C302.46 276.424 301.281 275.514 300.856 274.203C300.815 274.089 300.773 273.977 300.756 273.854C300.677 273.497 300.608 273.162 300.492 272.806C299.489 268.632 298.04 264.577 296.171 260.712C295.525 259.43 295.806 257.863 296.851 256.84L305.764 247.922C307.03 246.664 307.131 244.635 306.008 243.242L303.961 240.681L296.792 231.768C295.677 230.361 293.665 230.063 292.161 231.059L281.203 238.419C280.037 239.215 278.514 239.164 277.368 238.345C274.302 236.146 271.039 234.238 267.619 232.644C265.059 231.449 262.418 230.436 259.715 229.614L259.42 226.777L258.186 215.142C258.119 214.448 257.837 213.793 257.378 213.268C256.92 212.743 256.309 212.374 255.631 212.213C255.343 212.139 255.045 212.109 254.748 212.122L239.882 212.392C238.123 212.439 236.689 213.808 236.52 215.541L235.715 224.676C235.578 226.217 234.388 227.511 232.857 227.759C226.531 228.771 220.405 230.778 214.708 233.707C213.365 234.4 211.759 234.16 210.745 233.103L200.086 222.448C199.506 221.874 198.735 221.533 197.92 221.49C197.105 221.447 196.303 221.705 195.666 222.215L183.987 231.599C182.6 232.705 182.299 234.68 183.286 236.121L192.398 249.717C193.192 250.881 193.179 252.402 192.382 253.579C190.679 256.088 189.173 258.78 187.839 261.631C187.126 263.15 186.477 264.699 185.894 266.272C185.669 266.871 185.283 267.397 184.779 267.79C184.275 268.184 183.672 268.432 183.036 268.505L167.448 270.155C166.578 270.245 165.773 270.658 165.191 271.311C164.609 271.964 164.292 272.811 164.302 273.686ZM225.173 314.555C221.768 312.475 218.575 309.701 215.714 306.176C215.097 305.436 214.501 304.535 213.918 303.563C211.459 299.339 209.634 293.524 209.57 289.267C209.135 256.699 246.942 242.584 267.905 266.901C268.244 267.305 268.585 267.708 268.917 268.129C272.039 272.021 274.669 279.343 274.79 284.325C274.85 286.828 274.676 289.331 274.272 291.802C270.244 315.437 244.582 326.389 225.173 314.555Z" fill="url(#paint1_linear_1235_19349)"/>
<path d="M550.074 143.252H358.048C315.629 143.252 281.237 177.644 281.237 220.062C281.237 262.481 315.629 296.873 358.048 296.873H550.074C592.493 296.873 626.885 262.481 626.885 220.062C626.885 177.644 592.493 143.252 550.074 143.252V143.252Z" stroke="#4F27AA" stroke-width="32.421" stroke-linecap="round" stroke-linejoin="round"/>
<path d="M358.047 296.871C315.628 296.871 281.236 331.263 281.236 373.682C281.236 416.1 315.628 450.492 358.047 450.492H492.465" stroke="#4F27AA" stroke-width="32.421" stroke-linecap="round" stroke-linejoin="round"/>
<path fill-rule="evenodd" clip-rule="evenodd" d="M565.154 509.75C503.506 509.75 453.513 459.505 453.513 397.545C453.513 335.586 503.506 285.34 565.154 285.34C626.824 285.34 676.795 335.586 676.795 397.545C676.795 459.505 626.824 509.75 565.154 509.75Z" fill="#4F27AA"/>
<path d="M618.104 442.275L624.461 431.668L624.611 431.415C624.981 430.793 625.104 430.055 624.953 429.347C624.803 428.639 624.392 428.014 623.801 427.596L615.328 421.501C615.191 421.403 615.062 421.294 614.944 421.174C614.148 420.345 613.885 419.119 614.365 418.061C617.092 411.81 618.51 405.067 618.532 398.247C618.537 397.964 618.583 397.69 618.659 397.433C618.96 396.454 619.791 395.674 620.835 395.418L629.387 393.423C629.924 393.294 630.416 393.021 630.809 392.632C631.201 392.244 631.48 391.755 631.614 391.219C631.687 390.881 631.705 390.534 631.666 390.191L630.019 377.756C629.82 376.227 628.432 375.083 626.832 375.156L615.143 375.652C614.584 375.678 614.029 375.546 613.541 375.272C613.053 374.998 612.652 374.592 612.384 374.101C611.593 372.667 610.737 371.27 609.818 369.915C608.098 367.391 606.157 365.026 604.016 362.848L604.008 362.836C603.127 361.938 602.904 360.636 603.448 359.517L608.529 349.072L608.778 348.543C609.445 347.207 608.934 345.566 607.594 344.809L596.453 338.482C595.092 337.721 593.352 338.059 592.416 339.29L585.441 348.463C585.059 348.963 584.531 349.332 583.93 349.52C583.33 349.707 582.686 349.704 582.087 349.511C576.882 347.901 571.463 347.088 566.015 347.099C564.628 347.087 563.427 346.17 563.1 344.846L560.65 334.991C560.272 333.491 558.813 332.531 557.263 332.729L544.428 334.33C542.911 334.524 541.803 335.815 541.873 337.287L542.453 350.655C542.508 351.787 541.888 352.85 540.867 353.405C539.596 354.084 538.354 354.815 537.144 355.597C534.889 357.049 532.746 358.67 530.736 360.446C530.3 360.841 529.757 361.097 529.175 361.184C528.593 361.271 527.999 361.184 527.467 360.934L514.568 354.975C513.141 354.326 511.462 354.835 510.671 356.146L504.14 367.021C503.811 367.58 503.68 368.234 503.767 368.876C503.854 369.519 504.154 370.114 504.62 370.566C504.719 370.659 504.826 370.764 504.95 370.841L515.408 378.375C516.384 379.07 516.848 380.252 516.569 381.392C516.547 381.493 516.527 381.593 516.484 381.69C516.38 381.984 516.28 382.258 516.205 382.568C515.055 386.038 514.29 389.625 513.924 393.263C513.822 394.481 512.9 395.494 511.656 395.774L500.957 398.299C499.442 398.651 498.443 400.08 498.646 401.589L499.007 404.355L500.297 414.003C500.488 415.519 501.852 416.626 503.426 416.57L514.94 416.082C515.533 416.052 516.121 416.204 516.626 416.517C517.131 416.831 517.528 417.29 517.765 417.835C519.052 420.796 520.616 423.628 522.437 426.294C523.804 428.299 525.312 430.205 526.95 431.996L525.879 434.186L521.507 443.181C521.241 443.714 521.154 444.318 521.257 444.905C521.359 445.491 521.648 446.029 522.079 446.44C522.256 446.621 522.463 446.767 522.695 446.896L533.897 453.287C534.541 453.644 535.291 453.76 536.012 453.614C536.734 453.469 537.38 453.07 537.835 452.491L542.59 446.215C543.393 445.157 544.869 444.745 546.123 445.243C551.308 447.315 556.784 448.571 562.354 448.966C563.67 449.058 564.758 449.944 565.033 451.161L568.13 463.62C568.486 465.011 569.847 465.929 571.319 465.748L584.29 464.109C585.827 463.92 586.95 462.62 586.87 461.136L586.263 447.228C586.201 446.03 586.903 444.932 588.031 444.431C590.477 443.339 592.834 442.058 595.08 440.598C596.3 439.811 597.488 438.975 598.64 438.091C599.084 437.755 599.61 437.544 600.164 437.482C600.717 437.419 601.278 437.507 601.786 437.735L614.154 443.444C615.588 444.106 617.289 443.602 618.104 442.275ZM591.327 385.63C592.919 388.649 594.037 392.078 594.566 395.905C594.688 396.716 594.724 397.634 594.716 398.598C594.627 402.754 593.343 407.785 591.454 410.904C576.965 434.743 542.368 428.239 537.805 401.294C537.736 400.851 537.666 400.407 537.609 399.955C537.052 395.745 538.423 389.264 540.599 385.593C541.695 383.745 542.963 382.004 544.386 380.394C558.137 365.018 582.244 368.438 591.327 385.63Z" fill="white"/>
<path d="M434.857 220.062H550.073M373.581 219.39C373.672 219.478 373.744 219.585 373.794 219.702C373.843 219.819 373.869 219.945 373.869 220.072C373.869 220.199 373.843 220.325 373.794 220.442C373.744 220.559 373.672 220.665 373.581 220.754C373.492 220.845 373.386 220.917 373.269 220.967C373.152 221.016 373.026 221.042 372.899 221.042C372.772 221.042 372.646 221.016 372.529 220.967C372.412 220.917 372.306 220.845 372.217 220.754C372.126 220.665 372.054 220.559 372.004 220.442C371.955 220.325 371.929 220.199 371.929 220.072C371.929 219.945 371.955 219.819 372.004 219.702C372.054 219.585 372.126 219.478 372.217 219.39C372.306 219.299 372.412 219.226 372.529 219.177C372.646 219.127 372.772 219.102 372.899 219.102C373.026 219.102 373.152 219.127 373.269 219.177C373.386 219.226 373.492 219.299 373.581 219.39M373.581 373.011C373.672 373.099 373.744 373.206 373.794 373.323C373.843 373.44 373.869 373.566 373.869 373.693C373.869 373.82 373.843 373.946 373.794 374.063C373.744 374.18 373.672 374.286 373.581 374.375C373.492 374.466 373.386 374.538 373.269 374.588C373.152 374.637 373.026 374.663 372.899 374.663C372.772 374.663 372.646 374.637 372.529 374.588C372.412 374.538 372.306 374.466 372.217 374.375C372.126 374.286 372.054 374.18 372.004 374.063C371.955 373.946 371.929 373.82 371.929 373.693C371.929 373.566 371.955 373.44 372.004 373.323C372.054 373.206 372.126 373.099 372.217 373.011C372.306 372.92 372.412 372.847 372.529 372.798C372.646 372.748 372.772 372.723 372.899 372.723C373.026 372.723 373.152 372.748 373.269 372.798C373.386 372.847 373.492 372.92 373.581 373.011Z" stroke="#4F27AA" stroke-width="32.421" stroke-linecap="round" stroke-linejoin="round"/>
<path fill-rule="evenodd" clip-rule="evenodd" d="M189.16 168.851H193.242C194.229 168.851 195.024 169.654 195.024 170.633V174.715C195.024 175.702 194.221 176.497 193.242 176.497H189.16C188.688 176.496 188.236 176.307 187.902 175.974C187.568 175.64 187.38 175.188 187.378 174.715V170.633C187.377 170.399 187.423 170.167 187.512 169.951C187.602 169.734 187.733 169.538 187.899 169.372C188.064 169.207 188.261 169.075 188.477 168.986C188.694 168.897 188.926 168.851 189.16 168.851ZM203.314 168.851H207.396C208.375 168.851 209.178 169.654 209.178 170.633V174.715C209.178 175.702 208.375 176.497 207.396 176.497H203.314C202.842 176.496 202.39 176.307 202.056 175.974C201.722 175.64 201.534 175.188 201.532 174.715V170.633C201.532 169.654 202.335 168.851 203.314 168.851ZM217.476 168.851H221.559C222.537 168.851 223.34 169.654 223.34 170.633V174.715C223.34 175.702 222.537 176.497 221.559 176.497H217.476C217.004 176.496 216.552 176.307 216.218 175.973C215.885 175.64 215.696 175.187 215.695 174.715V170.633C215.694 170.399 215.74 170.167 215.829 169.951C215.918 169.735 216.049 169.538 216.215 169.372C216.38 169.207 216.577 169.075 216.793 168.986C217.01 168.897 217.242 168.851 217.476 168.851ZM231.63 168.851H235.712C236.691 168.851 237.494 169.654 237.494 170.633V174.715C237.494 175.702 236.691 176.497 235.712 176.497H231.63C231.157 176.497 230.702 176.31 230.367 175.976C230.031 175.642 229.842 175.189 229.84 174.715V170.633C229.845 170.161 230.035 169.709 230.37 169.376C230.705 169.042 231.157 168.854 231.63 168.851ZM245.784 168.851H249.866C250.853 168.851 251.656 169.654 251.656 170.633V174.715C251.656 175.702 250.853 176.497 249.866 176.497H245.784C245.312 176.496 244.86 176.307 244.526 175.974C244.192 175.64 244.004 175.188 244.002 174.715V170.633C244.002 169.654 244.805 168.851 245.784 168.851ZM203.833 184.285H207.915C208.894 184.285 209.697 185.088 209.697 186.067V190.157C209.697 191.136 208.894 191.939 207.915 191.939H203.833C203.36 191.939 202.907 191.751 202.573 191.417C202.239 191.083 202.051 190.63 202.051 190.157V186.075C202.05 185.841 202.095 185.608 202.184 185.391C202.273 185.174 202.404 184.976 202.569 184.81C202.735 184.643 202.932 184.511 203.149 184.421C203.366 184.331 203.598 184.285 203.833 184.285ZM217.987 184.285H222.069C223.048 184.285 223.851 185.088 223.851 186.067V190.157C223.851 191.136 223.048 191.939 222.069 191.939H217.987C217.515 191.938 217.063 191.749 216.729 191.416C216.395 191.082 216.207 190.63 216.205 190.157V186.075C216.203 185.841 216.248 185.608 216.337 185.391C216.426 185.173 216.557 184.976 216.723 184.809C216.889 184.643 217.086 184.511 217.303 184.421C217.52 184.331 217.752 184.285 217.987 184.285ZM232.14 184.285H236.223C237.21 184.285 238.013 185.088 238.013 186.067V190.157C238.011 190.631 237.821 191.084 237.486 191.418C237.15 191.752 236.696 191.939 236.223 191.939H232.14C231.668 191.938 231.216 191.749 230.882 191.415C230.549 191.082 230.36 190.629 230.359 190.157V186.075C230.359 185.088 231.162 184.285 232.14 184.285ZM217.476 152.271H221.559C222.537 152.271 223.34 153.074 223.34 154.053V158.135C223.34 159.122 222.537 159.917 221.559 159.917H217.476C217.004 159.916 216.552 159.727 216.218 159.393C215.885 159.06 215.696 158.607 215.695 158.135V154.053C215.694 153.819 215.74 153.587 215.829 153.371C215.918 153.155 216.049 152.958 216.215 152.792C216.38 152.627 216.577 152.495 216.793 152.406C217.01 152.317 217.242 152.271 217.476 152.271ZM231.63 152.271H235.712C236.691 152.271 237.494 153.074 237.494 154.053V158.135C237.494 159.122 236.691 159.917 235.712 159.917H231.63C231.157 159.917 230.702 159.73 230.367 159.396C230.031 159.062 229.842 158.609 229.84 158.135V154.053C229.845 153.581 230.035 153.129 230.37 152.796C230.705 152.462 231.157 152.274 231.63 152.271ZM694.939 172.65H692.133C691.808 172.65 691.497 172.521 691.267 172.291C691.038 172.062 690.909 171.75 690.909 171.425V168.62C690.909 167.941 691.461 167.395 692.133 167.395H694.939C695.263 167.397 695.574 167.526 695.804 167.756C696.033 167.985 696.163 168.296 696.164 168.62V171.425C696.164 171.586 696.133 171.746 696.071 171.895C696.01 172.043 695.919 172.178 695.806 172.292C695.692 172.406 695.557 172.496 695.408 172.558C695.259 172.619 695.1 172.651 694.939 172.65ZM685.211 172.65H682.405C682.081 172.649 681.77 172.519 681.541 172.29C681.312 172.06 681.182 171.75 681.181 171.425V168.62C681.181 167.941 681.733 167.395 682.405 167.395H685.211C685.535 167.397 685.846 167.526 686.076 167.756C686.305 167.985 686.435 168.296 686.436 168.62V171.425C686.435 171.75 686.305 172.061 686.076 172.29C685.846 172.52 685.535 172.649 685.211 172.65ZM675.478 172.65H672.672C672.347 172.649 672.037 172.52 671.807 172.29C671.578 172.061 671.448 171.75 671.447 171.425V168.62C671.447 167.941 671.999 167.395 672.672 167.395H675.478C675.802 167.397 676.113 167.527 676.342 167.756C676.571 167.985 676.701 168.296 676.702 168.62V171.425C676.702 171.586 676.671 171.746 676.61 171.895C676.548 172.043 676.458 172.178 676.344 172.292C676.231 172.406 676.096 172.496 675.947 172.558C675.798 172.619 675.639 172.651 675.478 172.65ZM665.75 172.65H662.944C662.619 172.649 662.309 172.52 662.079 172.29C661.85 172.061 661.72 171.75 661.719 171.425V168.62C661.719 167.941 662.271 167.395 662.944 167.395H665.75C666.428 167.395 666.98 167.947 666.98 168.62V171.425C666.976 171.75 666.846 172.061 666.616 172.29C666.385 172.519 666.075 172.648 665.75 172.65ZM656.022 172.65H653.216C652.891 172.65 652.578 172.522 652.348 172.292C652.117 172.062 651.987 171.751 651.986 171.425V168.62C651.986 167.941 652.538 167.395 653.216 167.395H656.022C656.695 167.395 657.246 167.947 657.246 168.62V171.425C657.246 172.098 656.695 172.65 656.022 172.65ZM684.854 162.043H682.049C681.724 162.042 681.414 161.913 681.184 161.683C680.955 161.454 680.825 161.143 680.824 160.818V158.007C680.825 157.683 680.955 157.372 681.184 157.143C681.414 156.913 681.724 156.784 682.049 156.782H684.854C685.533 156.782 686.079 157.334 686.079 158.007V160.812C686.08 160.974 686.049 161.134 685.988 161.283C685.927 161.433 685.837 161.569 685.723 161.683C685.609 161.798 685.473 161.888 685.324 161.95C685.175 162.012 685.015 162.044 684.854 162.043ZM675.127 162.043H672.321C671.997 162.042 671.686 161.912 671.457 161.683C671.228 161.453 671.098 161.143 671.097 160.818V158.007C671.098 157.683 671.228 157.373 671.457 157.143C671.686 156.914 671.997 156.784 672.321 156.782H675.127C675.451 156.784 675.762 156.913 675.992 157.143C676.221 157.372 676.351 157.683 676.352 158.007V160.812C676.353 160.974 676.322 161.134 676.261 161.283C676.199 161.433 676.109 161.568 675.995 161.683C675.882 161.797 675.746 161.888 675.597 161.95C675.448 162.012 675.288 162.044 675.127 162.043ZM665.399 162.043H662.593C662.268 162.043 661.955 161.915 661.725 161.685C661.494 161.455 661.364 161.144 661.363 160.818V158.007C661.364 157.682 661.494 157.371 661.725 157.141C661.955 156.911 662.268 156.782 662.593 156.782H665.399C665.723 156.784 666.034 156.914 666.263 157.143C666.492 157.373 666.622 157.683 666.623 158.007V160.812C666.623 161.138 666.494 161.45 666.265 161.681C666.036 161.911 665.724 162.042 665.399 162.043ZM675.478 184.045H672.672C672.348 184.044 672.037 183.915 671.807 183.686C671.578 183.456 671.448 183.146 671.447 182.821V180.015C671.447 179.336 671.999 178.79 672.672 178.79H675.478C675.802 178.792 676.113 178.922 676.342 179.151C676.571 179.381 676.701 179.691 676.702 180.015V182.821C676.702 182.982 676.671 183.142 676.609 183.29C676.548 183.439 676.458 183.574 676.344 183.688C676.23 183.802 676.095 183.892 675.947 183.953C675.798 184.014 675.639 184.046 675.478 184.045ZM665.75 184.045H662.944C662.62 184.044 662.309 183.915 662.079 183.686C661.85 183.456 661.72 183.146 661.719 182.821V180.015C661.719 179.336 662.271 178.79 662.944 178.79H665.75C666.428 178.79 666.98 179.342 666.98 180.015V182.821C666.976 183.146 666.845 183.456 666.615 183.685C666.385 183.914 666.074 184.043 665.75 184.045ZM214.763 386.331H212.458C212.191 386.331 211.936 386.225 211.747 386.036C211.559 385.848 211.453 385.592 211.453 385.325V383.021C211.453 382.463 211.906 382.015 212.458 382.015H214.763C215.029 382.017 215.285 382.123 215.473 382.311C215.661 382.5 215.768 382.755 215.769 383.021V385.325C215.769 385.458 215.743 385.588 215.693 385.711C215.642 385.833 215.568 385.944 215.475 386.037C215.381 386.131 215.27 386.205 215.148 386.255C215.026 386.306 214.895 386.332 214.763 386.331ZM206.773 386.331H204.469C204.202 386.33 203.947 386.224 203.759 386.036C203.57 385.847 203.464 385.592 203.463 385.325V383.021C203.463 382.463 203.916 382.015 204.469 382.015H206.773C207.039 382.017 207.295 382.123 207.483 382.311C207.671 382.5 207.778 382.755 207.779 383.021V385.325C207.778 385.592 207.671 385.847 207.483 386.036C207.295 386.224 207.039 386.33 206.773 386.331ZM198.779 386.331H196.475C196.208 386.33 195.953 386.224 195.765 386.036C195.576 385.847 195.47 385.592 195.469 385.325V383.021C195.469 382.463 195.923 382.015 196.475 382.015H198.779C199.045 382.017 199.301 382.123 199.489 382.311C199.677 382.5 199.784 382.755 199.785 383.021V385.325C199.785 385.458 199.759 385.589 199.709 385.711C199.658 385.833 199.584 385.944 199.491 386.037C199.397 386.131 199.286 386.205 199.164 386.255C199.042 386.306 198.911 386.332 198.779 386.331ZM190.789 386.331H188.485C188.218 386.33 187.963 386.224 187.775 386.036C187.586 385.847 187.48 385.592 187.479 385.325V383.021C187.479 382.463 187.932 382.015 188.485 382.015H190.789C191.346 382.015 191.8 382.468 191.8 383.021V385.325C191.797 385.592 191.689 385.847 191.5 386.035C191.311 386.223 191.056 386.33 190.789 386.331ZM182.8 386.331H180.495C180.228 386.331 179.971 386.226 179.782 386.037C179.593 385.849 179.486 385.593 179.485 385.325V383.021C179.485 382.463 179.938 382.015 180.495 382.015H182.8C183.066 382.017 183.322 382.123 183.51 382.311C183.698 382.5 183.805 382.755 183.806 383.021V385.325C183.805 385.592 183.698 385.847 183.51 386.036C183.322 386.224 183.066 386.33 182.8 386.331ZM206.481 377.619H204.177C203.91 377.618 203.655 377.512 203.467 377.324C203.278 377.135 203.172 376.88 203.171 376.613V374.304C203.172 374.038 203.278 373.783 203.467 373.594C203.655 373.406 203.91 373.3 204.177 373.298H206.481C207.038 373.298 207.487 373.751 207.487 374.304V376.608C207.488 376.741 207.462 376.872 207.412 376.995C207.362 377.118 207.288 377.229 207.194 377.323C207.101 377.417 206.99 377.492 206.867 377.543C206.745 377.594 206.613 377.62 206.481 377.619ZM198.491 377.619H196.186C195.92 377.618 195.665 377.512 195.476 377.323C195.288 377.135 195.182 376.88 195.181 376.613V374.304C195.182 374.038 195.288 373.783 195.476 373.595C195.665 373.406 195.92 373.3 196.186 373.298H198.491C198.757 373.3 199.013 373.406 199.201 373.594C199.389 373.783 199.496 374.038 199.497 374.304V376.608C199.498 376.741 199.472 376.872 199.422 376.995C199.371 377.118 199.297 377.229 199.204 377.323C199.11 377.417 198.999 377.492 198.877 377.542C198.755 377.593 198.623 377.619 198.491 377.619ZM190.501 377.619H188.197C187.93 377.619 187.673 377.514 187.484 377.325C187.295 377.137 187.188 376.881 187.187 376.613V374.304C187.188 374.037 187.295 373.781 187.484 373.593C187.673 373.404 187.93 373.298 188.197 373.298H190.501C190.767 373.3 191.023 373.406 191.211 373.594C191.399 373.783 191.506 374.038 191.507 374.304V376.608C191.507 377.165 191.054 377.619 190.501 377.619ZM198.779 395.69H196.475C196.208 395.689 195.953 395.583 195.765 395.395C195.576 395.206 195.47 394.951 195.469 394.684V392.38C195.469 391.822 195.923 391.374 196.475 391.374H198.779C199.045 391.376 199.301 391.482 199.489 391.67C199.677 391.859 199.784 392.114 199.785 392.38V394.684C199.785 394.817 199.759 394.948 199.709 395.07C199.658 395.192 199.584 395.303 199.491 395.396C199.397 395.49 199.286 395.564 199.164 395.614C199.042 395.665 198.911 395.691 198.779 395.69ZM190.789 395.69H188.485C188.218 395.689 187.963 395.583 187.775 395.395C187.586 395.206 187.48 394.951 187.479 394.684V392.38C187.479 391.822 187.932 391.374 188.485 391.374H190.789C191.346 391.374 191.8 391.827 191.8 392.38V394.684C191.797 394.951 191.689 395.206 191.5 395.394C191.311 395.582 191.056 395.689 190.789 395.69Z" fill="#E1E4E5"/>
</g>
<defs>
<linearGradient id="paint0_linear_1235_19349" x1="583.99" y1="152.624" x2="804.06" y2="503.72" gradientUnits="userSpaceOnUse">
<stop stop-color="white"/>
<stop offset="1" stop-color="#EEEEEE"/>
</linearGradient>
<linearGradient id="paint1_linear_1235_19349" x1="153.213" y1="145.336" x2="373.283" y2="496.432" gradientUnits="userSpaceOnUse">
<stop stop-color="white"/>
<stop offset="1" stop-color="#EEEEEE"/>
</linearGradient>
<clipPath id="clip0_1235_19349">
<rect width="900" height="600" fill="white"/>
</clipPath>
</defs>
</svg>
