<svg width="900" height="600" viewBox="0 0 900 600" fill="none" xmlns="http://www.w3.org/2000/svg">
<g clip-path="url(#clip0_1235_17907)">
<mask id="mask0_1235_17907" style="mask-type:alpha" maskUnits="userSpaceOnUse" x="0" y="0" width="900" height="600">
<path d="M0 0H900V600H0V0Z" fill="white"/>
</mask>
<g mask="url(#mask0_1235_17907)">
<path d="M700.153 292.613C722.494 231.304 639.168 67.4839 474.681 68.7159C398.179 69.2919 393.082 107.311 325.44 138.89C285.122 157.711 233.081 165.388 207.85 202.895C186.063 235.266 181.098 275.673 192.461 306.392C218.015 375.479 292.375 440.079 404.052 377.435C515.728 314.791 642.516 450.726 700.153 292.613Z" fill="url(#paint0_linear_1235_17907)"/>
<path d="M528.968 470.065C574.651 432.483 621.918 392.195 672.99 379.799C725.672 367 730 384.748 726.587 410.206C723.175 435.664 693.376 490.165 621.775 506.532C550.155 522.904 486.22 505.239 528.968 470.065Z" fill="url(#paint1_linear_1235_17907)"/>
<path d="M179.13 330.961C258.591 352.668 342.402 373.999 397.567 422.085C454.485 471.678 437.79 490.871 406.106 507.466C374.422 524.062 288.503 534.018 212.314 465.788C136.104 397.54 104.766 310.655 179.13 330.961Z" fill="url(#paint2_linear_1235_17907)"/>
<path d="M636.202 250.087C638.523 258.749 647.426 263.889 656.087 261.568C664.749 259.247 669.889 250.344 667.568 241.683C665.247 233.021 656.344 227.881 647.683 230.202C639.022 232.523 633.882 241.426 636.202 250.087Z" fill="#E1E4E5"/>
<path d="M436.172 216.098C408.57 149.218 331.978 117.376 265.097 144.978C198.217 172.58 166.375 249.172 193.977 316.053L203.973 340.272C231.574 407.152 308.167 438.994 375.047 411.392C441.927 383.791 473.769 307.198 446.167 240.318L436.172 216.098Z" fill="#4F27AA"/>
<path d="M294.912 268.095C298.876 266.46 300.762 261.921 299.127 257.958C297.491 253.995 292.953 252.108 288.989 253.744C285.026 255.379 283.139 259.918 284.775 263.881C286.411 267.844 290.949 269.731 294.912 268.095Z" fill="white"/>
<path d="M370.043 244.1C367.417 244.738 364.841 245.565 362.334 246.573C347.234 252.678 335.613 265.199 330.543 280.828C325.474 296.456 327.465 313.619 335.992 327.779" stroke="white" stroke-width="13.5" stroke-linecap="round" stroke-linejoin="round"/>
<path d="M374.15 246.418C380.483 261.763 380.462 278.995 374.09 294.324C367.717 309.653 355.515 321.822 340.17 328.154V328.154C332.572 331.29 324.431 332.899 316.211 332.889C307.991 332.878 299.854 331.249 292.264 328.094C284.674 324.938 277.78 320.319 271.976 314.499C266.171 308.679 261.57 301.773 258.435 294.174V294.174C255.299 286.576 253.691 278.435 253.701 270.216C253.712 261.996 255.341 253.859 258.496 246.269C261.652 238.68 266.271 231.786 272.091 225.981C277.91 220.176 284.816 215.575 292.414 212.439V212.439C300.012 209.303 308.153 207.695 316.373 207.705C324.592 207.716 332.73 209.345 340.32 212.5C347.909 215.655 354.804 220.275 360.608 226.095C366.413 231.914 371.014 238.82 374.15 246.418V246.418Z" stroke="white" stroke-width="13.5" stroke-linecap="round" stroke-linejoin="round"/>
<path d="M651.13 420.84C665.567 366.96 633.593 311.578 579.713 297.141C525.832 282.704 470.45 314.678 456.013 368.559L452.141 383.012C437.703 436.892 469.678 492.274 523.558 506.711C577.438 521.148 632.821 489.173 647.258 435.293L651.13 420.84Z" fill="#4F27AA"/>
<path d="M540.668 385.045C543.861 385.9 547.142 384.006 547.998 380.813C548.853 377.62 546.959 374.338 543.766 373.483C540.573 372.627 537.291 374.522 536.436 377.715C535.58 380.907 537.475 384.189 540.668 385.045Z" fill="white"/>
<path d="M597.91 405.555C596.004 404.715 594.039 404.014 592.032 403.457C579.926 400.119 566.945 402.341 556.518 409.534C546.092 416.727 539.27 428.168 537.855 440.833" stroke="white" stroke-width="13.5" stroke-linecap="round" stroke-linejoin="round"/>
<path d="M599.338 408.898C597.698 415.019 594.868 420.758 591.01 425.785C587.153 430.813 582.342 435.031 576.854 438.2C571.366 441.368 565.308 443.424 559.025 444.251C552.742 445.078 546.358 444.66 540.237 443.019V443.019C534.116 441.379 528.378 438.55 523.35 434.692C518.323 430.835 514.104 426.024 510.936 420.536C507.767 415.048 505.711 408.99 504.884 402.707C504.057 396.424 504.476 390.04 506.116 383.919V383.919C509.428 371.557 517.515 361.016 528.598 354.616C534.086 351.448 540.145 349.392 546.428 348.565C552.711 347.738 559.095 348.157 565.216 349.797C571.337 351.437 577.076 354.266 582.104 358.124C587.132 361.981 591.351 366.792 594.519 372.28C597.688 377.768 599.744 383.827 600.571 390.11C601.398 396.393 600.979 402.777 599.338 408.898V408.898Z" stroke="white" stroke-width="13.5" stroke-linecap="round" stroke-linejoin="round"/>
<path d="M551.803 135.435L551.802 135.434C519.989 126.91 487.29 145.789 478.766 177.602L473.434 197.5C464.91 229.313 483.789 262.012 515.601 270.537L515.602 270.537C547.415 279.061 580.115 260.182 588.639 228.369L593.971 208.471C602.495 176.658 583.616 143.959 551.803 135.435Z" fill="#4F27AA"/>
<path d="M528.748 187.338C530.634 187.843 532.571 186.724 533.077 184.839C533.582 182.953 532.463 181.016 530.578 180.51C528.692 180.005 526.755 181.124 526.249 183.009C525.744 184.895 526.863 186.832 528.748 187.338Z" fill="white"/>
<path d="M562.547 199.446C561.421 198.951 560.261 198.537 559.076 198.208C551.929 196.237 544.264 197.549 538.108 201.796C531.951 206.043 527.923 212.798 527.088 220.276" stroke="white" stroke-width="7.971" stroke-linecap="round" stroke-linejoin="round"/>
<path d="M563.39 201.422C561.434 208.721 556.659 214.943 550.115 218.721C543.571 222.499 535.794 223.523 528.495 221.568V221.568C524.881 220.6 521.492 218.929 518.524 216.652C515.555 214.374 513.064 211.534 511.193 208.294C509.322 205.053 508.108 201.476 507.62 197.766C507.132 194.057 507.379 190.287 508.348 186.673V186.673C509.316 183.059 510.987 179.671 513.264 176.702C515.542 173.733 518.382 171.243 521.623 169.372C524.863 167.501 528.44 166.287 532.15 165.798C535.859 165.31 539.629 165.557 543.243 166.526V166.526C550.542 168.482 556.765 173.257 560.543 179.802C564.321 186.346 565.346 194.123 563.39 201.422V201.422Z" stroke="white" stroke-width="7.971" stroke-linecap="round" stroke-linejoin="round"/>
</g>
</g>
<defs>
<linearGradient id="paint0_linear_1235_17907" x1="668.124" y1="-125.348" x2="127.355" y2="833.857" gradientUnits="userSpaceOnUse">
<stop stop-color="white"/>
<stop offset="1" stop-color="#EEEEEE"/>
</linearGradient>
<linearGradient id="paint1_linear_1235_17907" x1="525.181" y1="632.605" x2="769.283" y2="157.67" gradientUnits="userSpaceOnUse">
<stop stop-color="white"/>
<stop offset="1" stop-color="#EEEEEE"/>
</linearGradient>
<linearGradient id="paint2_linear_1235_17907" x1="-8.68394" y1="457.376" x2="727.514" y2="352.906" gradientUnits="userSpaceOnUse">
<stop stop-color="white"/>
<stop offset="1" stop-color="#EEEEEE"/>
</linearGradient>
<clipPath id="clip0_1235_17907">
<rect width="900" height="600" fill="white"/>
</clipPath>
</defs>
</svg>
