<svg width="900" height="600" viewBox="0 0 900 600" fill="none" xmlns="http://www.w3.org/2000/svg">
<g clip-path="url(#clip0_1235_19304)">
<path d="M756.5 482H144.5C141.462 482 139 484.462 139 487.5C139 490.538 141.462 493 144.5 493H756.5C759.538 493 762 490.538 762 487.5C762 484.462 759.538 482 756.5 482Z" fill="#E1E4E5"/>
<path d="M418.257 482.381C418.257 482.381 362.981 411.559 339.879 400.706C315.258 389.142 336.605 429.211 336.605 429.211C336.605 429.211 283.963 377.6 271.597 390.486C259.231 403.372 272.436 415.432 272.436 415.432C272.436 415.432 228.356 407.256 221.925 423.74C212.049 449.066 284.553 461.66 284.553 461.66C284.553 461.66 249.819 454.052 256.769 469.732C267.247 493.372 418.257 482.381 418.257 482.381Z" fill="#E1E4E5"/>
<path d="M505.691 451.236C505.691 451.236 486.834 364.977 466.898 352.955C446.961 340.929 424.397 365.294 424.397 365.294C424.397 365.294 393.002 343.014 378.196 347.852C363.39 352.689 376.519 369.356 376.519 369.356C376.519 369.356 325.969 349.423 320.369 359.312C309.951 377.74 363.592 402.197 363.592 402.197C363.592 402.197 340.02 397.187 340.194 409.725C340.454 428.635 394.411 426.758 394.411 426.758C394.411 426.758 373.636 429.315 379.807 440.592C390.879 460.832 505.691 451.236 505.691 451.236ZM180.542 126.667C180.542 126.667 200.637 121.274 207.565 167.344C214.493 213.413 214.542 238.648 214.542 238.648C214.542 238.648 217.087 248.665 224.557 245.158C232.028 241.65 244.887 228.949 253.606 234.912C262.646 241.1 262.21 253.344 254.843 269.099C247.476 284.854 232.607 319.935 231.272 323.123C229.957 326.236 230.229 331.578 235.7 329.999C241.172 328.42 276.27 308.456 284.739 325.67C293.227 342.889 265.486 383.395 262.543 387.875C259.599 392.355 259.849 394.786 261.778 396.785C263.706 398.784 274.878 390.96 285.086 385.682C295.295 380.404 308.069 376.094 312.129 386.437C316.189 396.781 307.153 431.1 256.989 474.994L232.414 493.811L203.51 482.36C143.153 454.087 124.956 423.609 125.996 412.549C127.037 401.489 140.498 402.091 151.777 404.332C163.056 406.573 175.956 410.991 177.255 408.534C178.554 406.078 178.135 403.682 174.063 400.187C169.991 396.692 132.12 365.469 135.504 346.563C138.882 327.676 178.137 337.132 183.831 337.115C189.52 337.117 188.288 331.919 186.169 329.288C184.003 326.604 159.98 297.009 148.546 283.908C137.106 270.827 133.298 259.169 140.27 250.72C146.983 242.562 162.872 251.227 171.017 252.528C179.163 253.829 178.83 243.483 178.83 243.483C178.83 243.483 171.869 219.22 165.774 173.034C159.679 126.847 180.989 126.567 180.989 126.567" fill="#E1E4E5"/>
<path d="M232.927 487.337C228.33 453.431 221.574 406.646 213.919 354.993C206.277 303.364 199.413 256.61 194.608 222.729C192.226 205.824 190.307 192.128 188.97 182.614C188.307 177.909 187.787 174.244 187.426 171.703C187.249 170.494 187.101 169.552 187.004 168.866C186.893 168.235 186.823 167.896 186.823 167.896C186.823 167.896 186.837 168.22 186.901 168.878C186.979 169.56 187.085 170.51 187.219 171.728C187.538 174.277 187.997 177.946 188.575 182.668C189.757 192.161 191.568 205.888 193.879 222.834C198.476 256.74 205.237 303.506 212.874 355.154C220.51 406.802 227.393 453.561 232.179 487.437" fill="white"/>
<path d="M236.327 253.42C236.257 253.381 235.773 253.993 234.899 255.161C234.03 256.31 232.833 258.013 231.384 260.129C228.482 264.38 224.622 270.337 220.487 277.022C216.462 283.596 212.804 289.547 209.99 294.142C208.726 296.167 207.665 297.886 206.782 299.312C206.015 300.529 205.628 301.227 205.697 301.266C205.767 301.304 206.27 300.698 207.139 299.548C207.989 298.394 209.187 296.692 210.622 294.552C213.491 290.272 217.268 284.253 221.379 277.581L231.992 260.552C233.256 258.527 234.336 256.813 235.219 255.387C235.991 254.151 236.378 253.454 236.327 253.42ZM202.836 300.88C202.999 300.643 191.056 292.134 176.147 281.909C161.242 271.665 149.01 263.559 148.847 263.796C148.683 264.033 160.632 272.523 175.536 282.767C190.459 293.016 202.672 301.117 202.836 300.88ZM218.145 379.666C218.165 379.591 217.4 379.306 216.028 378.818C214.427 378.289 212.457 377.641 210.142 376.86C205.175 375.209 198.305 372.887 190.828 370.063C183.347 367.257 176.658 364.483 171.815 362.444C169.564 361.5 167.658 360.689 166.091 360.029C164.74 359.466 163.97 359.2 163.936 359.251C163.897 359.321 164.614 359.713 165.912 360.401C167.215 361.071 169.123 362.023 171.512 363.124C176.268 365.34 182.945 368.231 190.446 371.042C197.941 373.872 204.865 376.068 209.914 377.561C212.441 378.298 214.497 378.849 215.904 379.206C217.329 379.568 218.125 379.741 218.145 379.666ZM257.875 343.393C257.829 343.341 257.23 343.781 256.16 344.636C254.683 345.852 253.218 347.083 251.765 348.327C246.974 352.439 242.222 356.594 237.507 360.793C231.984 365.704 227.012 370.202 223.446 373.493C222.033 374.789 220.639 376.105 219.263 377.441C218.29 378.382 217.778 378.946 217.824 378.998C217.87 379.051 218.469 378.61 219.54 377.755C220.591 376.895 222.091 375.634 223.934 374.064C227.625 370.907 232.67 366.509 238.192 361.598C243.715 356.687 248.687 352.19 252.234 348.893C253.647 347.597 255.042 346.281 256.417 344.946C257.409 344.01 257.94 343.451 257.875 343.393ZM280.225 411.224C280.179 411.172 279.405 411.746 278.048 412.845C276.554 414.087 274.65 415.66 272.397 417.561C266.229 422.798 260.099 428.081 254.008 433.408C246.867 439.648 240.434 445.336 235.816 449.488C234 451.142 232.187 452.8 230.377 454.461C229.118 455.646 228.43 456.343 228.476 456.396C228.522 456.448 229.297 455.874 230.653 454.775C232.148 453.533 234.052 451.96 236.304 450.059C242.473 444.822 248.603 439.539 254.694 434.212C261.835 427.972 268.267 422.284 272.885 418.132C275.059 416.15 276.89 414.477 278.325 413.159C279.603 411.979 280.271 411.277 280.225 411.224ZM229.42 454.966C229.44 454.891 228.484 454.495 226.759 453.832C224.827 453.115 222.351 452.191 219.379 451.094C213.152 448.764 204.541 445.535 195.153 441.698C185.759 437.878 177.329 434.197 171.245 431.485C168.842 430.43 166.442 429.366 164.047 428.294C162.341 427.557 161.385 427.161 161.347 427.23C161.308 427.3 162.215 427.804 163.867 428.667C165.518 429.53 167.939 430.74 170.942 432.165C178.774 435.899 186.713 439.403 194.751 442.672C202.788 445.946 210.919 448.987 219.133 451.789C222.292 452.856 224.855 453.683 226.635 454.22C228.395 454.752 229.386 455.017 229.42 454.966Z" fill="white"/>
<path d="M614.6 197.797C614.6 197.797 598.776 193.55 593.321 229.827C587.866 266.103 587.827 285.973 587.827 285.973C587.827 285.973 585.824 293.861 579.941 291.099C574.059 288.337 563.933 278.336 557.067 283.031C549.949 287.904 550.293 297.545 556.094 309.951C561.894 322.357 573.602 349.98 574.654 352.491C575.689 354.942 575.475 359.148 571.167 357.905C566.859 356.662 539.221 340.942 532.553 354.496C525.869 368.055 547.713 399.95 550.031 403.478C552.349 407.006 552.152 408.92 550.633 410.494C549.115 412.068 540.318 405.907 532.279 401.751C524.241 397.595 514.182 394.202 510.985 402.346C507.788 410.49 514.903 437.514 554.404 472.077L573.755 486.894L596.515 477.877C644.041 455.615 658.37 431.616 657.55 422.907C656.731 414.198 646.132 414.672 637.25 416.436C628.369 418.201 618.211 421.68 617.188 419.746C616.165 417.811 616.496 415.924 619.702 413.172C622.908 410.42 652.728 385.835 650.064 370.948C647.404 356.076 616.494 363.522 612.01 363.509C607.531 363.51 608.5 359.417 610.169 357.345C611.875 355.232 630.791 331.928 639.795 321.612C648.802 311.311 651.801 302.132 646.311 295.479C641.025 289.055 628.514 295.878 622.1 296.902C615.686 297.927 615.948 289.78 615.948 289.78C615.948 289.78 621.429 270.675 626.229 234.307C631.028 197.938 614.248 197.718 614.248 197.718" fill="#E1E4E5"/>
<path d="M573.351 481.799C576.972 455.101 582.291 418.262 588.319 377.589C594.336 336.935 599.742 300.12 603.525 273.441C605.4 260.129 606.912 249.345 607.965 241.854C608.486 238.149 608.896 235.263 609.18 233.262C609.319 232.31 609.436 231.569 609.512 231.028C609.6 230.531 609.655 230.264 609.655 230.264C609.655 230.264 609.644 230.519 609.594 231.038C609.532 231.574 609.449 232.322 609.343 233.282C609.092 235.289 608.731 238.178 608.276 241.896C607.344 249.371 605.918 260.18 604.099 273.524C600.479 300.222 595.155 337.046 589.142 377.715C583.129 418.384 577.709 455.203 573.94 481.878" fill="white"/>
<path d="M570.675 297.607C570.73 297.576 571.111 298.058 571.799 298.978C572.483 299.883 573.426 301.223 574.567 302.89C576.852 306.237 579.891 310.928 583.147 316.191C586.317 321.368 589.197 326.054 591.413 329.672C592.408 331.267 593.244 332.621 593.939 333.744C594.543 334.702 594.848 335.251 594.793 335.282C594.738 335.312 594.342 334.835 593.658 333.929C592.988 333.02 592.046 331.68 590.916 329.995C588.656 326.625 585.683 321.885 582.445 316.632L574.088 303.223C573.093 301.628 572.242 300.279 571.547 299.156C570.939 298.183 570.635 297.633 570.675 297.607ZM597.046 334.978C596.917 334.792 606.322 328.092 618.062 320.04C629.798 311.974 639.429 305.591 639.558 305.778C639.687 305.964 630.278 312.649 618.542 320.716C606.792 328.786 597.175 335.165 597.046 334.978ZM584.991 397.016C584.975 396.957 585.578 396.732 586.658 396.348C587.918 395.932 589.47 395.421 591.293 394.807C595.203 393.506 600.613 391.678 606.5 389.454C612.392 387.244 617.659 385.06 621.472 383.455C623.245 382.712 624.746 382.073 625.979 381.553C627.043 381.11 627.649 380.9 627.676 380.941C627.706 380.996 627.142 381.304 626.12 381.846C624.666 382.592 623.196 383.307 621.71 383.99C616.821 386.255 611.848 388.335 606.802 390.225C601.756 392.12 596.642 393.832 591.472 395.358C589.482 395.939 587.863 396.372 586.755 396.653C585.633 396.938 585.007 397.075 584.991 397.016ZM553.706 368.454C553.743 368.413 554.214 368.76 555.057 369.433C555.885 370.11 557.066 371.103 558.517 372.339C562.29 375.576 566.033 378.848 569.745 382.155C573.465 385.456 577.155 388.789 580.816 392.155C581.929 393.175 583.027 394.212 584.11 395.264C584.877 396.005 585.28 396.449 585.243 396.49C585.207 396.531 584.735 396.185 583.893 395.511C583.064 394.834 581.883 393.841 580.432 392.605C576.66 389.367 572.918 386.095 569.205 382.789C564.856 378.922 560.941 375.381 558.148 372.785C557.036 371.764 555.938 370.728 554.854 369.676C554.073 368.939 553.655 368.499 553.706 368.454ZM536.107 421.866C536.144 421.824 536.754 422.276 537.822 423.141C538.999 424.12 540.498 425.358 542.271 426.855C546.006 430.019 551.129 434.42 556.752 439.333C561.555 443.522 566.33 447.743 571.076 451.995C572.506 453.298 573.934 454.603 575.359 455.911C576.351 456.844 576.892 457.393 576.856 457.435C576.82 457.476 576.21 457.024 575.142 456.159C573.965 455.181 572.465 453.942 570.692 452.445C565.835 448.321 561.008 444.162 556.212 439.967C551.41 435.778 546.634 431.557 541.887 427.305C540.176 425.745 538.734 424.427 537.604 423.389C536.598 422.46 536.071 421.907 536.107 421.866ZM576.113 456.309C576.097 456.25 576.85 455.938 578.208 455.416C579.729 454.851 581.679 454.123 584.019 453.26C588.923 451.425 595.703 448.883 603.096 445.861C609.415 443.284 615.691 440.603 621.921 437.819C623.814 436.988 625.703 436.151 627.589 435.307C628.932 434.726 629.685 434.414 629.715 434.469C629.746 434.524 629.032 434.92 627.731 435.6C626.43 436.28 624.524 437.232 622.159 438.355C615.993 441.295 609.741 444.054 603.412 446.628C597.083 449.207 590.681 451.601 584.213 453.807C581.725 454.647 579.707 455.299 578.306 455.721C576.92 456.14 576.139 456.349 576.113 456.309Z" fill="white"/>
<path d="M561.063 107.995C560.594 107.827 560.12 107.674 559.641 107.538C559.481 107.492 559.325 107.444 559.166 107.403C558.997 107.36 558.828 107.319 558.659 107.278C558.487 107.237 558.314 107.196 558.141 107.157C557.977 107.121 557.813 107.09 557.647 107.058C557.304 106.993 556.959 106.935 556.613 106.885C556.032 106.805 555.448 106.745 554.862 106.707C554.739 106.7 554.616 106.688 554.494 106.683C554.134 106.666 553.773 106.656 553.409 106.656H386.67C385.148 106.653 383.63 106.807 382.14 107.114C372.625 109.062 365.301 117.039 364.303 126.888C364.226 127.654 364.187 128.424 364.188 129.193V470.803C364.188 480.558 370.369 488.862 379.021 492.001C379.06 492.015 379.098 492.027 379.137 492.039C379.566 492.191 380.002 492.331 380.441 492.456C380.6 492.502 380.757 492.55 380.918 492.591C381.087 492.634 381.256 492.675 381.424 492.716C381.759 492.8 382.097 492.873 382.437 492.935C382.623 492.971 382.808 493.005 382.994 493.034L383.469 493.109C383.669 493.137 383.871 493.161 384.076 493.186C384.223 493.202 384.37 493.219 384.52 493.234C384.751 493.255 384.985 493.272 385.219 493.287C385.342 493.294 385.465 493.306 385.588 493.311C385.947 493.328 386.309 493.337 386.673 493.337H553.414C554.182 493.338 554.949 493.299 555.713 493.222C566.294 492.145 574.708 483.711 575.783 473.103C575.86 472.345 575.899 471.576 575.899 470.798V129.193C575.894 119.438 569.713 111.134 561.063 107.995Z" fill="#4F27AA"/>
<path fill-rule="evenodd" clip-rule="evenodd" d="M412.652 336.27C412.384 336.41 412.081 336.473 411.779 336.45C411.477 336.427 411.187 336.32 410.943 336.141C410.699 335.962 410.509 335.718 410.397 335.436C410.284 335.155 410.253 334.848 410.306 334.55L411.18 329.539L407.499 326.012C407.279 325.801 407.122 325.533 407.047 325.238C406.972 324.943 406.982 324.632 407.075 324.342C407.168 324.052 407.341 323.795 407.575 323.599C407.808 323.402 408.091 323.276 408.393 323.234L413.503 322.503L415.81 317.901C415.944 317.63 416.151 317.402 416.407 317.242C416.664 317.083 416.96 316.998 417.262 316.998C417.565 316.998 417.861 317.083 418.118 317.242C418.374 317.402 418.581 317.63 418.715 317.901L421.022 322.503L426.132 323.234C426.434 323.276 426.718 323.402 426.951 323.598C427.184 323.794 427.358 324.052 427.451 324.342C427.545 324.632 427.554 324.943 427.479 325.238C427.404 325.533 427.247 325.802 427.026 326.012L423.345 329.539L424.219 334.551C424.272 334.849 424.241 335.156 424.128 335.437C424.016 335.719 423.826 335.963 423.582 336.142C423.338 336.321 423.048 336.428 422.746 336.451C422.444 336.474 422.141 336.411 421.873 336.271L417.262 333.888L412.652 336.27ZM438.652 336.27C438.384 336.41 438.081 336.473 437.779 336.45C437.477 336.427 437.187 336.32 436.943 336.141C436.699 335.962 436.509 335.718 436.397 335.436C436.284 335.155 436.253 334.848 436.306 334.55L437.18 329.539L433.499 326.012C433.279 325.801 433.122 325.533 433.047 325.238C432.972 324.943 432.982 324.632 433.075 324.342C433.168 324.052 433.341 323.795 433.575 323.599C433.808 323.402 434.091 323.276 434.393 323.234L439.503 322.503L441.81 317.901C441.944 317.63 442.151 317.402 442.407 317.242C442.664 317.083 442.96 316.998 443.262 316.998C443.565 316.998 443.861 317.083 444.118 317.242C444.374 317.402 444.581 317.63 444.715 317.901L447.022 322.503L452.132 323.234C452.434 323.276 452.718 323.402 452.951 323.598C453.184 323.794 453.358 324.052 453.451 324.342C453.545 324.632 453.554 324.943 453.479 325.238C453.404 325.533 453.247 325.802 453.026 326.012L449.345 329.539L450.219 334.551C450.272 334.849 450.241 335.156 450.128 335.437C450.016 335.719 449.826 335.963 449.582 336.142C449.338 336.321 449.048 336.428 448.746 336.451C448.444 336.474 448.141 336.411 447.873 336.271L443.262 333.888L438.652 336.27ZM464.652 336.27C464.384 336.41 464.081 336.473 463.779 336.45C463.477 336.427 463.187 336.32 462.943 336.141C462.699 335.962 462.509 335.718 462.397 335.436C462.284 335.155 462.253 334.848 462.306 334.55L463.18 329.539L459.499 326.012C459.279 325.801 459.122 325.533 459.047 325.238C458.972 324.943 458.982 324.632 459.075 324.342C459.168 324.052 459.341 323.795 459.575 323.599C459.808 323.402 460.091 323.276 460.393 323.234L465.503 322.503L467.81 317.901C467.944 317.63 468.151 317.402 468.407 317.242C468.664 317.083 468.96 316.998 469.262 316.998C469.565 316.998 469.861 317.083 470.118 317.242C470.374 317.402 470.581 317.63 470.715 317.901L473.022 322.503L478.132 323.234C478.434 323.276 478.718 323.402 478.951 323.598C479.184 323.794 479.358 324.052 479.451 324.342C479.545 324.632 479.554 324.943 479.479 325.238C479.404 325.533 479.247 325.802 479.026 326.012L475.345 329.539L476.219 334.551C476.272 334.849 476.241 335.156 476.128 335.437C476.016 335.719 475.826 335.963 475.582 336.142C475.338 336.321 475.048 336.428 474.746 336.451C474.444 336.474 474.141 336.411 473.873 336.271L469.262 333.888L464.652 336.27ZM491.652 336.27C491.384 336.41 491.081 336.473 490.779 336.45C490.477 336.427 490.187 336.32 489.943 336.141C489.699 335.962 489.509 335.718 489.397 335.436C489.284 335.155 489.253 334.848 489.306 334.55L490.18 329.539L486.499 326.012C486.279 325.801 486.122 325.533 486.047 325.238C485.972 324.943 485.982 324.632 486.075 324.342C486.168 324.052 486.341 323.795 486.575 323.599C486.808 323.402 487.091 323.276 487.393 323.234L492.503 322.503L494.81 317.901C494.944 317.63 495.151 317.402 495.407 317.242C495.664 317.083 495.96 316.998 496.262 316.998C496.565 316.998 496.861 317.083 497.118 317.242C497.374 317.402 497.581 317.63 497.715 317.901L500.022 322.503L505.132 323.234C505.434 323.276 505.718 323.402 505.951 323.598C506.184 323.794 506.358 324.052 506.451 324.342C506.545 324.632 506.554 324.943 506.479 325.238C506.404 325.533 506.247 325.802 506.026 326.012L502.345 329.539L503.219 334.551C503.272 334.849 503.241 335.156 503.128 335.437C503.016 335.719 502.826 335.963 502.582 336.142C502.338 336.321 502.048 336.428 501.746 336.451C501.444 336.474 501.141 336.411 500.873 336.271L496.262 333.888L491.652 336.27ZM518.652 336.27C518.384 336.41 518.081 336.473 517.779 336.45C517.477 336.427 517.187 336.32 516.943 336.141C516.699 335.962 516.509 335.718 516.397 335.436C516.284 335.155 516.253 334.848 516.306 334.55L517.18 329.539L513.499 326.012C513.279 325.801 513.122 325.533 513.047 325.238C512.972 324.943 512.982 324.632 513.075 324.342C513.168 324.052 513.341 323.795 513.575 323.599C513.808 323.402 514.091 323.276 514.393 323.234L519.503 322.503L521.81 317.901C521.944 317.63 522.151 317.402 522.407 317.242C522.664 317.083 522.96 316.998 523.262 316.998C523.565 316.998 523.861 317.083 524.118 317.242C524.374 317.402 524.581 317.63 524.715 317.901L527.022 322.503L532.132 323.234C532.434 323.276 532.718 323.402 532.951 323.598C533.184 323.794 533.358 324.052 533.451 324.342C533.544 324.632 533.554 324.943 533.479 325.238C533.404 325.533 533.247 325.802 533.026 326.012L529.345 329.539L530.219 334.551C530.272 334.849 530.241 335.156 530.128 335.437C530.016 335.719 529.826 335.963 529.582 336.142C529.338 336.321 529.048 336.428 528.746 336.451C528.444 336.474 528.141 336.411 527.873 336.271L523.262 333.888L518.652 336.27Z" fill="white"/>
<path d="M727.861 240.001C730.546 240.001 732.722 242.177 732.722 244.862C732.722 247.546 730.546 249.723 727.861 249.723C725.176 249.723 723 247.546 723 244.862C723 242.177 725.176 240.001 727.861 240.001Z" fill="#E1E4E5"/>
<path d="M150.861 341.046C153.546 341.046 155.722 343.222 155.722 345.907C155.722 348.591 153.546 350.768 150.861 350.768C148.176 350.768 146 348.591 146 345.907C146 343.222 148.176 341.046 150.861 341.046Z" fill="#E1E4E5"/>
<path d="M591.861 172.001C594.546 172.001 596.722 174.177 596.722 176.862C596.722 179.546 594.546 181.723 591.861 181.723C589.176 181.723 587 179.546 587 176.862C587 174.177 589.176 172.001 591.861 172.001Z" fill="#E1E4E5"/>
<path d="M651.561 260.122L644 252.561L651.561 245L659.122 252.561L651.561 260.122Z" stroke="#E1E4E5" stroke-width="4" stroke-linecap="round" stroke-linejoin="round"/>
<path fill-rule="evenodd" clip-rule="evenodd" d="M322.089 341.313H204.916C202.465 341.311 200.105 342.241 198.314 343.915C196.524 345.589 195.437 347.881 195.274 350.327L187.583 465.626C186.839 476.775 195.689 486.234 206.867 486.234H320.138C331.316 486.234 340.166 476.775 339.422 465.626L331.731 350.327C331.568 347.881 330.481 345.589 328.69 343.915C326.9 342.241 324.54 341.311 322.089 341.313Z" fill="#4F27AA" stroke="#4F27AA" stroke-width="13.417" stroke-linecap="round" stroke-linejoin="round"/>
<path fill-rule="evenodd" clip-rule="evenodd" d="M250.699 436.487C249.954 436.875 249.114 437.047 248.276 436.984C247.438 436.92 246.635 436.623 245.957 436.126C245.279 435.629 244.754 434.952 244.441 434.172C244.128 433.392 244.04 432.539 244.186 431.712L246.613 417.805L236.395 408.015C235.784 407.431 235.349 406.687 235.141 405.867C234.933 405.048 234.96 404.186 235.219 403.382C235.478 402.577 235.958 401.861 236.605 401.317C237.252 400.773 238.039 400.421 238.876 400.304L253.063 398.276L259.468 385.502C259.84 384.751 260.415 384.118 261.127 383.676C261.84 383.234 262.662 383 263.5 383C264.338 383 265.16 383.234 265.873 383.676C266.585 384.118 267.16 384.751 267.532 385.502L273.937 398.276L288.124 400.304C288.961 400.421 289.748 400.773 290.395 401.317C291.042 401.861 291.522 402.577 291.781 403.382C292.04 404.186 292.067 405.048 291.859 405.867C291.651 406.687 291.216 407.431 290.605 408.015L280.387 417.805L282.814 431.715C282.962 432.543 282.874 433.395 282.561 434.176C282.249 434.957 281.724 435.634 281.045 436.132C280.367 436.629 279.563 436.926 278.724 436.989C277.886 437.053 277.046 436.88 276.301 436.49L263.5 429.877L250.699 436.487Z" fill="white"/>
<path d="M292.494 358.989V320.344C292.494 304.335 279.519 291.359 263.51 291.359H263.5C247.491 291.359 234.516 304.335 234.516 320.344V358.989" stroke="#4F27AA" stroke-width="13.417" stroke-linecap="round" stroke-linejoin="round"/>
<path fill-rule="evenodd" clip-rule="evenodd" d="M331.165 215.193C330.967 215.296 330.745 215.342 330.522 215.325C330.3 215.308 330.087 215.229 329.907 215.097C329.727 214.966 329.587 214.786 329.504 214.579C329.421 214.372 329.398 214.146 329.437 213.926L330.081 210.236L327.37 207.638C327.208 207.483 327.093 207.285 327.038 207.068C326.983 206.851 326.991 206.622 327.059 206.409C327.128 206.196 327.255 206.006 327.426 205.861C327.598 205.717 327.806 205.623 328.028 205.591L331.792 205.053L333.491 201.664C333.59 201.465 333.742 201.297 333.931 201.18C334.12 201.062 334.339 201 334.561 201C334.784 201 335.002 201.062 335.191 201.18C335.38 201.297 335.532 201.465 335.631 201.664L337.33 205.053L341.094 205.591C341.316 205.623 341.524 205.717 341.696 205.861C341.867 206.006 341.994 206.196 342.063 206.409C342.131 206.622 342.139 206.851 342.084 207.068C342.029 207.285 341.914 207.483 341.752 207.638L339.041 210.236L339.685 213.927C339.725 214.147 339.702 214.373 339.619 214.581C339.536 214.788 339.397 214.968 339.217 215.101C339.037 215.233 338.823 215.311 338.6 215.328C338.378 215.345 338.155 215.298 337.957 215.194L334.561 213.439L331.165 215.193ZM603.652 229.27C603.384 229.411 603.081 229.473 602.779 229.45C602.477 229.428 602.187 229.32 601.943 229.141C601.699 228.962 601.509 228.718 601.397 228.437C601.284 228.156 601.253 227.848 601.306 227.55L602.18 222.539L598.499 219.012C598.279 218.802 598.122 218.534 598.047 218.238C597.972 217.943 597.982 217.633 598.075 217.343C598.168 217.053 598.342 216.795 598.575 216.599C598.808 216.403 599.091 216.276 599.393 216.234L604.503 215.503L606.81 210.901C606.944 210.63 607.151 210.402 607.408 210.243C607.664 210.083 607.96 209.999 608.263 209.999C608.565 209.999 608.861 210.083 609.118 210.243C609.374 210.402 609.581 210.63 609.715 210.901L612.022 215.503L617.132 216.234C617.434 216.276 617.718 216.402 617.951 216.598C618.185 216.794 618.358 217.052 618.451 217.342C618.545 217.633 618.554 217.943 618.479 218.239C618.404 218.534 618.247 218.802 618.026 219.012L614.345 222.539L615.219 227.551C615.272 227.849 615.241 228.157 615.128 228.438C615.016 228.719 614.826 228.963 614.582 229.142C614.338 229.321 614.048 229.429 613.746 229.451C613.444 229.474 613.141 229.412 612.873 229.271L608.262 226.888L603.652 229.27Z" fill="#E1E4E5"/>
<path fill-rule="evenodd" clip-rule="evenodd" d="M506.756 219.725V267.484C506.783 269.925 506 272.305 504.53 274.254C503.059 276.203 500.985 277.609 498.63 278.253C481.917 282.208 464.511 282.208 447.797 278.253C445.442 277.609 443.368 276.203 441.897 274.254C440.427 272.305 439.644 269.925 439.671 267.484V219.725" fill="white"/>
<path d="M506.756 219.725V267.484C506.783 269.925 506 272.305 504.53 274.254C503.059 276.203 500.985 277.609 498.63 278.253C481.917 282.208 464.511 282.208 447.797 278.253C445.442 277.609 443.368 276.203 441.897 274.254C440.427 272.305 439.644 269.925 439.671 267.484V219.725" stroke="white" stroke-width="7.76" stroke-linecap="round" stroke-linejoin="round"/>
<path fill-rule="evenodd" clip-rule="evenodd" d="M506.844 230.904L524.874 226.657C525.61 226.483 526.303 226.162 526.911 225.713C527.519 225.264 528.03 224.696 528.413 224.044C528.795 223.392 529.042 222.669 529.137 221.919C529.232 221.169 529.174 220.407 528.967 219.68L522.186 195.945C521.31 192.878 519.787 190.035 517.721 187.605C515.656 185.175 513.094 183.215 510.208 181.856L500.165 177.129C497.186 175.727 493.934 175 490.642 175H455.918C452.626 175 449.374 175.727 446.395 177.129L436.352 181.856C433.466 183.215 430.905 185.175 428.839 187.605C426.773 190.035 425.251 192.878 424.374 195.945L417.593 219.68C417.385 220.407 417.327 221.169 417.422 221.919C417.517 222.669 417.764 223.392 418.146 224.044C418.529 224.697 419.04 225.265 419.648 225.714C420.257 226.163 420.95 226.484 421.686 226.657L439.716 230.904" fill="white"/>
<path d="M506.844 230.904L524.874 226.657C525.61 226.483 526.303 226.162 526.911 225.713C527.519 225.264 528.03 224.696 528.413 224.044C528.795 223.392 529.042 222.669 529.137 221.919C529.232 221.169 529.174 220.407 528.967 219.68L522.186 195.945C521.31 192.878 519.787 190.035 517.721 187.605C515.656 185.175 513.094 183.215 510.208 181.856L500.165 177.129C497.186 175.727 493.934 175 490.642 175H455.918C452.626 175 449.374 175.727 446.395 177.129L436.352 181.856C433.466 183.215 430.905 185.175 428.839 187.605C426.773 190.035 425.251 192.878 424.374 195.945L417.593 219.68C417.385 220.407 417.327 221.169 417.422 221.919C417.517 222.669 417.764 223.392 418.146 224.044C418.529 224.697 419.04 225.265 419.648 225.714C420.257 226.163 420.95 226.484 421.686 226.657L439.716 230.904" stroke="white" stroke-width="7.76" stroke-linecap="round" stroke-linejoin="round"/>
<path fill-rule="evenodd" clip-rule="evenodd" d="M716.85 487.857H628.279C615.569 487.857 605.464 477.176 606.173 464.489L610.705 382.885C611.576 367.238 624.514 355 640.184 355H704.952C720.621 355 733.56 367.238 734.431 382.885L738.963 464.481C739.664 477.176 729.56 487.857 716.85 487.857Z" fill="#4F27AA" stroke="#4F27AA" stroke-width="10.25" stroke-linecap="round" stroke-linejoin="round"/>
<path d="M695.248 376.062C695.248 387.396 685.092 396.585 672.566 396.585C660.039 396.585 649.883 387.396 649.883 376.062" stroke="white" stroke-width="8.625" stroke-linecap="round" stroke-linejoin="round"/>
<path d="M725.649 298.316C727.9 313.841 717.125 328.251 701.558 330.513C686.001 332.775 671.559 322.021 669.297 306.497C667.046 290.983 677.831 276.563 693.388 274.301C708.956 272.038 723.397 282.792 725.649 298.316Z" fill="url(#paint0_linear_1235_19304)"/>
<path d="M718.948 299.293C720.663 311.119 712.451 322.108 700.593 323.834C688.735 325.55 677.724 317.359 676.009 305.533C674.293 293.696 682.506 282.707 694.364 280.992C706.222 279.265 717.222 287.457 718.948 299.293Z" fill="white"/>
<path d="M701.695 314.72L702.318 318.488L698.855 319.029L698.253 315.359C694.79 315.695 691.338 315.164 689.2 314.006L690.425 309.61C692.362 310.585 695.002 311.104 697.53 310.953L696.605 305.334C692.619 305.02 688.119 304.446 687.329 299.64C686.739 296.078 688.899 292.603 694.267 291.141L693.654 287.406L697.118 286.865L697.719 290.535C700.347 290.329 702.986 290.611 705.08 291.488L704.033 295.894C702.107 295.19 700.213 294.898 698.454 294.963L699.401 300.679C703.387 300.95 707.808 301.545 708.588 306.287C709.156 309.795 707.029 313.237 701.695 314.72ZM695.792 300.387L695.002 295.612C693.231 296.305 692.674 297.388 692.852 298.503C693.053 299.672 694.189 300.159 695.792 300.387ZM703.076 307.575C702.886 306.395 701.773 305.919 700.202 305.637L700.971 310.282C702.641 309.643 703.254 308.647 703.076 307.575Z" fill="#E1E4E5"/>
<path d="M342.758 149.349C344.18 159.149 337.378 168.245 327.552 169.673C317.732 171.101 308.616 164.313 307.188 154.513C305.766 144.72 312.575 135.618 322.395 134.19C332.221 132.762 341.337 139.55 342.758 149.349Z" fill="url(#paint1_linear_1235_19304)"/>
<path d="M338.529 149.965C339.612 157.43 334.428 164.367 326.943 165.456C319.457 166.539 312.507 161.369 311.424 153.904C310.341 146.432 315.525 139.496 323.01 138.413C330.496 137.323 337.439 142.494 338.529 149.965Z" fill="white"/>
<path d="M327.638 159.705L328.031 162.083L325.845 162.424L325.465 160.108C323.279 160.32 321.1 159.985 319.75 159.254L320.524 156.479C321.747 157.094 323.413 157.422 325.008 157.326L324.425 153.78C321.908 153.582 319.068 153.219 318.569 150.185C318.197 147.937 319.561 145.743 322.949 144.821L322.562 142.463L324.748 142.121L325.128 144.438C326.787 144.308 328.453 144.486 329.775 145.039L329.114 147.821C327.898 147.376 326.703 147.192 325.592 147.233L326.189 150.841C328.706 151.012 331.497 151.388 331.989 154.381C332.347 156.595 331.005 158.768 327.638 159.705ZM323.912 150.657L323.413 147.643C322.295 148.08 321.944 148.764 322.056 149.468C322.183 150.206 322.9 150.513 323.912 150.657ZM328.509 155.194C328.39 154.449 327.687 154.149 326.696 153.971L327.181 156.903C328.235 156.5 328.622 155.871 328.509 155.194Z" fill="#E1E4E5"/>
<path d="M348.849 268.256C350.91 282.466 341.048 295.654 326.799 297.725C312.561 299.795 299.343 289.953 297.272 275.744C295.211 261.544 305.083 248.346 319.322 246.275C333.57 244.205 346.789 254.047 348.849 268.256Z" fill="url(#paint2_linear_1235_19304)"/>
<path d="M342.717 269.148C344.287 279.972 336.77 290.03 325.917 291.61C315.063 293.18 304.985 285.683 303.415 274.86C301.845 264.026 309.362 253.968 320.215 252.397C331.069 250.818 341.137 258.315 342.717 269.148Z" fill="white"/>
<path d="M326.926 283.27L327.496 286.718L324.326 287.214L323.776 283.855C320.606 284.162 317.446 283.676 315.489 282.616L316.61 278.593C318.384 279.485 320.8 279.961 323.113 279.822L322.267 274.679C318.618 274.392 314.501 273.867 313.777 269.467C313.237 266.207 315.214 263.026 320.127 261.689L319.566 258.27L322.736 257.775L323.287 261.134C325.692 260.945 328.108 261.203 330.024 262.006L329.066 266.039C327.303 265.395 325.57 265.127 323.959 265.186L324.826 270.418C328.475 270.666 332.521 271.211 333.235 275.551C333.755 278.762 331.808 281.913 326.926 283.27ZM321.523 270.151L320.8 265.781C319.179 266.415 318.669 267.406 318.832 268.427C319.016 269.497 320.056 269.943 321.523 270.151ZM328.189 276.73C328.016 275.65 326.997 275.214 325.56 274.957L326.263 279.207C327.792 278.623 328.353 277.711 328.189 276.73Z" fill="#E1E4E5"/>
<path d="M410.997 411H524.997C527.206 411 528.997 412.791 528.997 415C528.997 417.209 527.206 419 524.997 419H410.997C408.788 419 406.997 417.209 406.997 415C406.997 412.791 408.788 411 410.997 411Z" fill="white"/>
<path d="M410.997 387H515.997C518.206 387 519.997 388.791 519.997 391C519.997 393.209 518.206 395 515.997 395H410.997C408.788 395 406.997 393.209 406.997 391C406.997 388.791 408.788 387 410.997 387Z" fill="white"/>
<path d="M410.997 363H529.997C532.206 363 533.997 364.791 533.997 367C533.997 369.209 532.206 371 529.997 371H410.997C408.788 371 406.997 369.209 406.997 367C406.997 364.791 408.788 363 410.997 363Z" fill="white"/>
<path fill-rule="evenodd" clip-rule="evenodd" d="M687.5 235C669.552 235 655 220.448 655 202.5C655 184.552 669.552 170 687.5 170C705.448 170 720 184.552 720 202.5C720 220.448 705.448 235 687.5 235Z" fill="#4F27AA"/>
<path d="M698.335 197.574L684.796 211.362L676.668 203.091" stroke="white" stroke-width="4.883" stroke-linecap="round" stroke-linejoin="round"/>
<path fill-rule="evenodd" clip-rule="evenodd" d="M626.5 175C616.283 175 608 166.717 608 156.5C608 146.283 616.283 138 626.5 138C636.717 138 645 146.283 645 156.5C645 166.717 636.717 175 626.5 175Z" fill="#4F27AA"/>
<path d="M632.667 153.697L624.961 161.545L620.334 156.837" stroke="white" stroke-width="2.892" stroke-linecap="round" stroke-linejoin="round"/>
<path d="M292.96 186H233C221.954 186 213 194.954 213 206V241.579C213 252.625 221.954 261.579 233 261.579H292.96C304.006 261.579 312.96 252.625 312.96 241.579V206C312.96 194.954 304.006 186 292.96 186Z" fill="#4F27AA"/>
<path d="M272.565 252.88L267.523 247.838C264.789 245.105 260.357 245.105 257.623 247.838L252.582 252.88C249.848 255.614 249.848 260.046 252.582 262.78L257.623 267.821C260.357 270.555 264.789 270.555 267.523 267.821L272.565 262.78C275.298 260.046 275.298 255.614 272.565 252.88Z" fill="#4F27AA"/>
<path fill-rule="evenodd" clip-rule="evenodd" d="M273.159 202.254C281.903 202.254 287.766 210.427 287.766 218.038C287.766 233.489 263.423 246.138 262.98 246.138C262.536 246.138 238.193 233.489 238.193 218.038C238.193 210.427 244.056 202.254 252.801 202.254C257.799 202.254 261.082 204.736 262.98 206.947C264.877 204.736 268.16 202.254 273.159 202.254Z" fill="white"/>
</g>
<defs>
<linearGradient id="paint0_linear_1235_19304" x1="698.687" y1="362.666" x2="696.94" y2="212.197" gradientUnits="userSpaceOnUse">
<stop stop-color="white"/>
<stop offset="1" stop-color="#EEEEEE"/>
</linearGradient>
<linearGradient id="paint1_linear_1235_19304" x1="325.74" y1="189.969" x2="324.636" y2="94.9877" gradientUnits="userSpaceOnUse">
<stop stop-color="white"/>
<stop offset="1" stop-color="#EEEEEE"/>
</linearGradient>
<linearGradient id="paint2_linear_1235_19304" x1="324.172" y1="327.154" x2="322.572" y2="189.433" gradientUnits="userSpaceOnUse">
<stop stop-color="white"/>
<stop offset="1" stop-color="#EEEEEE"/>
</linearGradient>
<clipPath id="clip0_1235_19304">
<rect width="900" height="600" fill="white"/>
</clipPath>
</defs>
</svg>
