<svg width="900" height="600" viewBox="0 0 900 600" fill="none" xmlns="http://www.w3.org/2000/svg">
<g clip-path="url(#clip0_1235_19359)">
<path fill-rule="evenodd" clip-rule="evenodd" d="M249.841 115.734V365.775C249.841 379.347 260.708 390.338 274.128 390.338H421.314L485.564 298.757C488.627 294.388 496.286 294.388 499.35 298.757L521.844 330.827L522.019 331.077L522.171 330.856L570.414 260.81C573.75 255.96 582.109 255.96 585.445 260.81L649.337 353.589V365.804V115.734C649.337 102.162 638.44 91.1719 625.049 91.1719H274.128C260.708 91.1719 249.841 102.162 249.841 115.734Z" fill="#4F27AA"/>
<path d="M362.501 281.936C327.764 281.936 299.605 253.776 299.605 219.039C299.605 184.303 327.764 156.143 362.501 156.143C397.238 156.143 425.398 184.303 425.398 219.039C425.398 253.776 397.238 281.936 362.501 281.936Z" fill="white"/>
<path d="M449.176 445.962H259.725C251.935 445.962 245.537 439.563 245.537 431.774C245.537 423.892 251.935 417.493 259.725 417.493H449.176C457.058 417.493 463.456 423.892 463.456 431.774C463.456 439.563 457.058 445.962 449.176 445.962ZM638.719 445.964H501.662C493.78 445.964 487.381 439.565 487.381 431.683C487.381 423.801 493.78 417.402 501.662 417.402H638.719C646.602 417.402 653 423.801 653 431.683C653 439.565 646.602 445.964 638.719 445.964ZM340.216 508.556H259.725C251.935 508.556 245.537 502.158 245.537 494.368C245.537 486.486 251.935 480.087 259.725 480.087H340.216C348.098 480.087 354.497 486.486 354.497 494.368C354.497 502.158 348.098 508.556 340.216 508.556ZM638.719 508.558H388.065C380.183 508.558 373.785 502.16 373.785 494.278C373.785 486.396 380.183 479.997 388.065 479.997H638.719C646.602 479.997 653 486.396 653 494.278C653 502.16 646.602 508.558 638.719 508.558Z" fill="#E1E4E5"/>
</g>
<defs>
<clipPath id="clip0_1235_19359">
<rect width="900" height="600" fill="white"/>
</clipPath>
</defs>
</svg>
