<svg width="900" height="600" viewBox="0 0 900 600" fill="none" xmlns="http://www.w3.org/2000/svg">
<g clip-path="url(#clip0_1235_19598)">
<path d="M696.593 184.469C671.078 172.077 644.211 186.63 606.965 218.276C578.957 242.082 553.136 263.389 534.496 300.663C521.444 326.744 515.586 353.819 513.914 377.32C512.098 402.782 506.676 434.172 528.545 446.393C558.591 463.176 645.041 434.764 690.198 351.431C739.795 259.878 721.54 196.573 696.593 184.469Z" fill="url(#paint0_linear_1235_19598)"/>
<path d="M433.54 151.233C452.442 168.461 449.229 195.824 435.169 237.589C424.589 268.998 415.371 297.742 390.382 325.803C372.9 345.447 352.182 359.398 333.059 368.65C312.341 378.677 287.864 393.704 270.324 379.472C246.231 359.916 241.145 278.024 295.849 212.367C355.953 140.245 415.068 134.385 433.54 151.233Z" fill="url(#paint1_linear_1235_19598)"/>
<path d="M574.954 204.106C543.418 239.281 481.245 235.01 481.245 235.01C481.245 235.01 470.241 173.707 501.809 138.551C533.346 103.376 595.488 107.628 595.488 107.628C595.488 107.628 606.491 168.932 574.954 204.106Z" fill="url(#paint2_linear_1235_19598)"/>
<path fill-rule="evenodd" clip-rule="evenodd" d="M647.228 249.493V419.792C647.228 440.701 630.293 457.637 609.384 457.637H344.474C323.565 457.637 306.629 440.701 306.629 419.792V249.493C306.629 228.584 323.565 211.649 344.474 211.649H382.318L409.982 164.268C411.649 161.411 414.036 159.041 416.905 157.395C419.773 155.748 423.023 154.882 426.331 154.883H526.694C529.957 154.883 533.164 155.727 536.005 157.331C538.846 158.936 541.225 161.247 542.91 164.041L571.539 211.649H609.384C630.293 211.649 647.228 228.584 647.228 249.493Z" fill="#4F27AA" stroke="#4F27AA" stroke-width="22.25" stroke-linecap="round" stroke-linejoin="round"/>
<path fill-rule="evenodd" clip-rule="evenodd" d="M521.502 281.911C545.414 305.574 545.414 343.939 521.502 367.603C497.59 391.266 458.82 391.266 434.908 367.603C410.996 343.939 410.996 305.574 434.908 281.911C458.82 258.248 497.59 258.248 521.502 281.911ZM569.053 243.476C573.785 248.208 573.785 255.881 569.053 260.614C564.32 265.347 556.647 265.347 551.914 260.614C547.182 255.881 547.182 248.208 551.914 243.476C556.647 238.743 564.32 238.743 569.053 243.476Z" fill="white"/>
<path fill-rule="evenodd" clip-rule="evenodd" d="M721.324 210.167V214.333H725.685C727.505 214.333 729 215.761 729 217.5C729 219.239 727.505 220.667 725.685 220.667H721.324V224.833C721.324 226.571 719.829 228 718.009 228C716.189 228 714.694 226.571 714.694 224.833V220.684H710.315C708.495 220.684 707 219.256 707 217.517C707 215.779 708.495 214.35 710.315 214.35H714.676V210.167C714.676 208.429 716.171 207 718.009 207C719.829 207 721.324 208.429 721.324 210.167ZM692.184 167.374V173.126H698.328C700.893 173.126 703 175.099 703 177.5C703 179.901 700.893 181.874 698.328 181.874H692.184V187.626C692.184 190.027 690.077 192 687.513 192C684.948 192 682.841 190.027 682.841 187.626V181.898H676.672C674.107 181.898 672 179.925 672 177.524C672 175.123 674.107 173.15 676.672 173.15H682.816V167.374C682.816 164.973 684.923 163 687.513 163C690.077 163 692.184 164.973 692.184 167.374ZM637.649 143.485V152.015H646.369C650.009 152.015 653 154.94 653 158.5C653 162.06 650.009 164.985 646.369 164.985H637.649V173.515C637.649 177.075 634.658 180 631.018 180C627.378 180 624.387 177.075 624.387 173.515V165.02H615.631C611.991 165.02 609 162.095 609 158.535C609 154.975 611.991 152.05 615.631 152.05H624.351V143.485C624.351 139.925 627.342 137 631.018 137C634.658 137 637.649 139.925 637.649 143.485Z" fill="#E1E4E5"/>
<path d="M252 234C255.314 234 258 236.686 258 240C258 243.314 255.314 246 252 246C248.686 246 246 243.314 246 240C246 236.686 248.686 234 252 234Z" fill="#E1E4E5"/>
<path d="M696.63 293H696.376C694.87 312.205 679 312.501 679 312.501C679 312.501 696.5 312.809 696.5 335C696.5 312.809 714 312.501 714 312.501C714 312.501 698.137 312.205 696.63 293ZM359.586 156H359.419C358.429 168.346 348 168.536 348 168.536C348 168.536 359.5 168.734 359.5 183C359.5 168.734 371 168.536 371 168.536C371 168.536 360.575 168.346 359.586 156Z" fill="#E1E4E5"/>
<path fill-rule="evenodd" clip-rule="evenodd" d="M578.678 424.486H581.65C582.368 424.486 582.947 425.071 582.947 425.784V428.756C582.947 429.474 582.362 430.053 581.65 430.053H578.678C578.334 430.052 578.005 429.915 577.762 429.672C577.519 429.429 577.381 429.1 577.38 428.756V425.784C577.379 425.613 577.413 425.444 577.478 425.287C577.543 425.129 577.639 424.986 577.759 424.865C577.88 424.745 578.023 424.649 578.181 424.584C578.338 424.519 578.507 424.486 578.678 424.486ZM588.981 424.486H591.953C592.666 424.486 593.25 425.071 593.25 425.784V428.756C593.25 429.474 592.666 430.053 591.953 430.053H588.981C588.637 430.051 588.308 429.914 588.065 429.671C587.823 429.429 587.685 429.1 587.684 428.756V425.784C587.684 425.071 588.269 424.486 588.981 424.486ZM599.291 424.486H602.263C602.976 424.486 603.561 425.071 603.561 425.784V428.756C603.561 429.474 602.976 430.053 602.263 430.053H599.291C598.947 430.051 598.618 429.914 598.375 429.671C598.133 429.429 597.995 429.1 597.994 428.756V425.784C597.994 425.614 598.027 425.445 598.092 425.287C598.157 425.129 598.252 424.986 598.373 424.866C598.493 424.745 598.636 424.649 598.794 424.584C598.952 424.519 599.12 424.486 599.291 424.486ZM609.596 424.486H612.568C613.281 424.486 613.865 425.071 613.865 425.784V428.756C613.865 429.474 613.281 430.053 612.568 430.053H609.596C609.251 430.053 608.921 429.917 608.677 429.674C608.432 429.43 608.294 429.101 608.293 428.756V425.784C608.297 425.44 608.435 425.111 608.679 424.869C608.923 424.626 609.252 424.488 609.596 424.486ZM619.901 424.486H622.873C623.592 424.486 624.176 425.071 624.176 425.784V428.756C624.176 428.927 624.141 429.096 624.076 429.253C624.01 429.411 623.914 429.554 623.793 429.674C623.672 429.795 623.528 429.89 623.371 429.955C623.213 430.02 623.044 430.053 622.873 430.053H619.901C619.557 430.052 619.228 429.915 618.985 429.672C618.742 429.429 618.605 429.1 618.604 428.756V425.784C618.604 425.071 619.188 424.486 619.901 424.486ZM589.359 435.722H592.331C593.044 435.722 593.628 436.307 593.628 437.02V439.998C593.628 440.71 593.044 441.295 592.331 441.295H589.359C589.015 441.295 588.685 441.158 588.442 440.915C588.199 440.671 588.062 440.342 588.062 439.998V437.026C588.061 436.855 588.094 436.686 588.158 436.527C588.223 436.369 588.318 436.225 588.439 436.104C588.56 435.983 588.703 435.887 588.861 435.821C589.019 435.756 589.188 435.722 589.359 435.722ZM599.663 435.722H602.635C603.348 435.722 603.933 436.307 603.933 437.02V439.998C603.933 440.71 603.348 441.295 602.635 441.295H599.663C599.319 441.293 598.99 441.156 598.748 440.913C598.505 440.671 598.367 440.342 598.366 439.998V437.026C598.365 436.855 598.398 436.686 598.462 436.527C598.527 436.369 598.622 436.225 598.743 436.104C598.864 435.983 599.007 435.887 599.165 435.821C599.323 435.756 599.492 435.722 599.663 435.722ZM609.968 435.722H612.94C613.659 435.722 614.243 436.307 614.243 437.02V439.998C614.243 440.71 613.659 441.295 612.94 441.295H609.968C609.624 441.294 609.295 441.157 609.052 440.914C608.809 440.671 608.672 440.342 608.671 439.998V437.026C608.671 436.307 609.255 435.722 609.968 435.722ZM599.291 412.416H602.263C602.976 412.416 603.561 413 603.561 413.713V416.685C603.561 417.403 602.976 417.982 602.263 417.982H599.291C598.947 417.98 598.618 417.843 598.375 417.6C598.133 417.358 597.995 417.029 597.994 416.685V413.713C597.994 413.543 598.027 413.374 598.092 413.216C598.157 413.059 598.252 412.916 598.373 412.795C598.493 412.675 598.637 412.579 598.794 412.514C598.952 412.449 599.12 412.416 599.291 412.416ZM609.596 412.416H612.568C613.281 412.416 613.865 413 613.865 413.713V416.685C613.865 417.403 613.281 417.982 612.568 417.982H609.596C609.251 417.982 608.921 417.846 608.677 417.603C608.432 417.359 608.294 417.03 608.293 416.685V413.713C608.297 413.369 608.435 413.04 608.679 412.798C608.923 412.555 609.252 412.418 609.596 412.416Z" fill="white"/>
<path d="M212.545 307.784L242.128 278.201C243.206 277.123 243.206 275.377 242.129 274.299C241.051 273.222 239.305 273.222 238.227 274.3L208.644 303.883C207.566 304.96 207.566 306.707 208.643 307.784C209.721 308.862 211.468 308.862 212.545 307.784Z" fill="#E1E4E5"/>
<path d="M215.442 286.603L223.973 278.072C225.051 276.995 225.051 275.248 223.974 274.171C222.896 273.093 221.15 273.093 220.072 274.171L211.541 282.702C210.463 283.78 210.463 285.526 211.54 286.604C212.618 287.681 214.364 287.681 215.442 286.603Z" fill="#E1E4E5"/>
<path d="M253.218 331.166C248.896 333.661 247.415 339.188 249.911 343.509C252.406 347.831 257.932 349.312 262.254 346.817C266.576 344.322 268.057 338.795 265.561 334.473C263.066 330.152 257.54 328.671 253.218 331.166Z" fill="#E1E4E5"/>
<path fill-rule="evenodd" clip-rule="evenodd" d="M268.309 423.174C269.085 423.182 269.86 423.208 270.635 423.254C269.646 414.076 265.299 405.588 258.431 399.42C251.562 393.253 242.656 389.842 233.425 389.842C224.437 389.84 215.749 393.072 208.948 398.948C202.147 404.825 197.688 412.952 196.386 421.845C195.084 430.738 197.026 439.802 201.857 447.382C206.688 454.961 214.085 460.548 222.696 463.122C223.953 454.446 227.584 446.203 233.312 439.411C242.07 429.026 254.857 423.076 268.303 423.174H268.309ZM268.248 430.174C269.076 430.181 269.904 430.215 270.729 430.276C269.974 439.651 265.717 448.398 258.804 454.776C251.891 461.153 242.83 464.694 233.425 464.692C232.132 464.692 230.846 464.625 229.572 464.493C230.594 456.955 233.713 449.794 238.663 443.924C246.101 435.104 256.919 430.092 268.248 430.174ZM222.138 420.732C224.344 420.732 226.459 419.856 228.018 418.297C229.578 416.737 230.454 414.622 230.454 412.416C230.454 411.324 230.239 410.243 229.821 409.234C229.403 408.225 228.791 407.308 228.019 406.535C227.246 405.763 226.33 405.15 225.321 404.733C224.312 404.315 223.23 404.099 222.138 404.099C221.046 404.099 219.964 404.314 218.955 404.732C217.946 405.15 217.029 405.763 216.257 406.535C215.484 407.307 214.872 408.224 214.454 409.233C214.036 410.243 213.821 411.324 213.821 412.416C213.821 413.509 214.036 414.59 214.454 415.599C214.872 416.608 215.485 417.525 216.257 418.297C217.029 419.069 217.946 419.682 218.955 420.1C219.964 420.518 221.046 420.733 222.138 420.732ZM740.908 431.555C741.481 431.56 742.054 431.579 742.627 431.611C741.68 424.584 738.216 418.139 732.878 413.471C727.54 408.804 720.69 406.231 713.599 406.23C706.632 406.23 699.893 408.713 694.592 413.234C689.291 417.754 685.775 424.016 684.675 430.896C683.575 437.776 684.964 444.822 688.592 450.77C692.219 456.718 697.848 461.178 704.468 463.349C705.488 456.466 708.381 449.927 712.93 444.533C719.928 436.235 730.149 431.477 740.901 431.555H740.908ZM740.847 438.555C741.473 438.561 742.099 438.587 742.723 438.632C741.913 446.208 738.183 453.171 732.324 458.042C726.466 462.913 718.94 465.309 711.343 464.722C712.129 458.975 714.509 453.518 718.281 449.046C723.958 442.314 732.21 438.493 740.847 438.555ZM704.766 430.405C706.492 430.405 708.148 429.72 709.369 428.499C710.589 427.278 711.275 425.623 711.275 423.896C711.275 422.17 710.589 420.515 709.369 419.294C708.148 418.073 706.492 417.387 704.766 417.387C703.04 417.387 701.384 418.073 700.163 419.294C698.943 420.515 698.257 422.17 698.257 423.896C698.257 425.623 698.943 427.278 700.163 428.499C701.384 429.72 703.04 430.405 704.766 430.405ZM284.676 175.171C285.25 175.176 285.823 175.195 286.395 175.227C285.667 169.816 283.441 164.717 279.968 160.504C276.496 156.291 271.915 153.132 266.742 151.385C261.57 149.637 256.012 149.37 250.695 150.614C245.379 151.858 240.516 154.563 236.656 158.423C233.117 161.962 230.544 166.348 229.182 171.164C227.82 175.979 227.715 181.064 228.876 185.932C230.037 190.799 232.427 195.289 235.816 198.971C239.205 202.653 243.481 205.405 248.236 206.965C249.256 200.081 252.149 193.543 256.698 188.149C263.696 179.851 273.917 175.093 284.669 175.171H284.676ZM284.615 182.171C285.241 182.176 285.867 182.202 286.491 182.247C285.682 189.824 281.952 196.786 276.093 201.658C270.234 206.529 262.708 208.925 255.111 208.337C255.897 202.59 258.277 197.134 262.049 192.662C267.726 185.929 275.978 182.109 284.615 182.171ZM248.535 174.021C250.261 174.021 251.916 173.335 253.137 172.115C254.357 170.894 255.043 169.239 255.043 167.512C255.043 166.225 254.661 164.967 253.946 163.896C253.231 162.826 252.214 161.991 251.025 161.499C249.835 161.006 248.526 160.877 247.264 161.129C246.001 161.38 244.841 162 243.931 162.91C243.021 163.821 242.401 164.98 242.15 166.243C241.899 167.506 242.028 168.815 242.521 170.004C243.014 171.193 243.848 172.21 244.919 172.925C245.989 173.64 247.248 174.022 248.535 174.021Z" fill="#E1E4E5"/>
</g>
<defs>
<linearGradient id="paint0_linear_1235_19598" x1="528.325" y1="106.181" x2="744.069" y2="632.599" gradientUnits="userSpaceOnUse">
<stop stop-color="white"/>
<stop offset="1" stop-color="#EEEEEE"/>
</linearGradient>
<linearGradient id="paint1_linear_1235_19598" x1="555.318" y1="266.001" x2="42.3789" y2="261.181" gradientUnits="userSpaceOnUse">
<stop stop-color="white"/>
<stop offset="1" stop-color="#EEEEEE"/>
</linearGradient>
<linearGradient id="paint2_linear_1235_19598" x1="448.247" y1="325.124" x2="670.229" y2="-60.633" gradientUnits="userSpaceOnUse">
<stop stop-color="white"/>
<stop offset="1" stop-color="#EEEEEE"/>
</linearGradient>
<clipPath id="clip0_1235_19598">
<rect width="900" height="600" fill="white"/>
</clipPath>
</defs>
</svg>
