<svg width="900" height="600" viewBox="0 0 900 600" fill="none" xmlns="http://www.w3.org/2000/svg">
<g clip-path="url(#clip0_1235_19579)">
<path d="M392.689 226.367C388.171 208.079 345.473 181.37 322.655 197.473C315.652 162.633 309.101 140.906 286.219 123.743C263.337 106.58 225.157 129.014 219.025 176.003C212.893 156.687 181.717 130.653 156.672 152.605C133.5 172.918 131.176 206.954 133.597 226.335H392.689V226.367ZM379.159 370.82C375.122 354.48 336.974 330.618 316.588 345.004C310.331 313.877 304.477 294.465 284.034 279.131C263.59 263.797 229.479 283.84 224 325.822C218.522 308.564 190.667 285.305 168.292 304.917C147.589 323.066 145.512 353.475 147.675 370.791H379.159V370.82ZM759 227.367C755.244 212.165 719.751 189.963 700.784 203.349C694.963 174.388 689.517 156.327 670.496 142.06C651.475 127.793 619.738 146.442 614.641 185.502C609.543 169.445 583.628 147.804 562.81 166.052C543.548 182.937 541.616 211.23 543.628 227.34H759V227.367ZM775.848 376.367C771.329 358.079 728.632 331.37 705.814 347.473C698.811 312.633 692.259 290.906 669.377 273.743C646.495 256.58 608.316 279.014 602.184 326.003C596.052 306.687 564.875 280.653 539.831 302.605C516.659 322.918 514.335 356.954 516.756 376.335H775.848V376.367Z" fill="white" stroke="#E1E4E5" stroke-width="4"/>
<path d="M532.518 187.914C529.6 176.116 502.028 158.884 487.294 169.273C482.772 146.795 478.541 132.778 463.765 121.705C448.99 110.632 424.336 125.106 420.376 155.421C416.416 142.959 396.284 126.163 380.112 140.326C365.149 153.431 363.649 175.39 365.212 187.893H532.518V187.914Z" fill="url(#paint0_linear_1235_19579)"/>
<path d="M392.566 468.93C389.648 457.131 362.077 439.9 347.343 450.288C342.82 427.811 338.59 413.794 323.814 402.721C309.038 391.648 284.384 406.121 280.424 436.437C276.465 423.975 256.333 407.179 240.161 421.341C225.197 434.446 223.697 456.405 225.26 468.909H392.566V468.93ZM516 459.251C518.139 450.602 538.35 437.971 549.151 445.586C552.466 429.109 555.567 418.834 566.398 410.717C577.23 402.6 595.302 413.21 598.205 435.432C601.107 426.297 615.865 413.985 627.719 424.367C638.688 433.973 639.788 450.07 638.642 459.236H516V459.251Z" fill="white" stroke="#E1E4E5" stroke-width="4"/>
<path fill-rule="evenodd" clip-rule="evenodd" d="M499.531 96.3703L580.331 96.0583C587.556 96.0313 590.634 86.6663 584.706 82.5393L584.454 82.3673C576.015 76.6123 564.97 77.1803 564.97 77.1803C564.97 77.1803 563.273 45.8863 533.551 46.0003C506.68 46.1033 496.066 72.5173 492.257 87.0613C491.02 91.7863 494.646 96.3893 499.531 96.3693V96.3703Z" fill="white"/>
<path d="M448.458 403.178V436.276" stroke="#E1E4E5" stroke-width="4.288" stroke-linecap="round" stroke-linejoin="round"/>
<path fill-rule="evenodd" clip-rule="evenodd" d="M409.863 402.301L418.21 441.226L409.863 402.301Z" fill="white"/>
<path d="M414.39 404.443L421.783 438.916" stroke="#E1E4E5" stroke-width="4.288" stroke-linecap="round" stroke-linejoin="round"/>
<path fill-rule="evenodd" clip-rule="evenodd" d="M489.024 402.301L479.571 441.226L489.024 402.301Z" fill="white"/>
<path d="M484.497 404.443L476.125 438.916" stroke="#E1E4E5" stroke-width="4.288" stroke-linecap="round" stroke-linejoin="round"/>
<path fill-rule="evenodd" clip-rule="evenodd" d="M469.554 402.057L462.73 440.485L469.554 402.057Z" fill="white"/>
<path d="M467.254 404.229L461.21 438.262" stroke="#E1E4E5" stroke-width="4.288" stroke-linecap="round" stroke-linejoin="round"/>
<path fill-rule="evenodd" clip-rule="evenodd" d="M427.693 402.057L434.516 440.485L427.693 402.057Z" fill="white"/>
<path d="M430.181 404.229L436.223 438.262" stroke="#E1E4E5" stroke-width="4.288" stroke-linecap="round" stroke-linejoin="round"/>
<path fill-rule="evenodd" clip-rule="evenodd" d="M424.947 83.5893C409.151 89.9903 394.846 102.47 383.295 119.573C366.02 145.153 355.205 180.718 355.205 220.199C355.205 235.947 359.394 255.041 365.845 275.018C372.278 294.941 380.874 315.487 389.501 334.061C398.123 352.626 406.749 369.165 413.221 381.064C415.776 385.767 418.38 390.442 421.034 395.089C421.759 396.357 422.364 397.404 422.834 398.212H435.016L434.899 397.574C434.243 394.006 433.306 388.835 432.183 382.41C429.229 365.52 426.483 348.593 423.945 331.635C417.965 291.578 411.943 242.496 411.943 207.063C411.943 163.761 415.751 124.44 421.96 95.8403C422.846 91.7307 423.842 87.6456 424.947 83.5893ZM456.515 398.212H443.152C443.037 397.595 442.909 396.899 442.767 396.127C442.115 392.58 441.182 387.431 440.063 381.032C437.121 364.207 434.386 347.347 431.858 330.454C425.88 290.416 419.943 241.849 419.943 207.063C419.943 164.156 423.722 125.431 429.778 97.5373C431.136 91.2833 432.599 85.6173 434.144 80.5973C439.151 79.3567 444.291 78.7287 449.45 78.7273C454.934 78.7273 460.327 79.4373 465.588 80.8093C467.109 85.7763 468.55 91.3713 469.889 97.5373C475.945 125.431 479.724 164.156 479.724 207.063C479.724 241.849 473.787 290.416 467.809 330.454C465.28 347.347 462.545 364.207 459.603 381.032C458.642 386.534 457.655 392.031 456.643 397.523L456.515 398.212ZM464.651 398.212H476.068C476.537 397.404 477.142 396.357 477.867 395.089C480.521 390.442 483.125 385.767 485.68 381.064C492.152 369.165 500.778 352.626 509.4 334.061C518.026 315.487 526.622 294.941 533.055 275.018C539.506 255.041 543.696 235.947 543.696 220.199C543.696 180.718 532.881 145.153 515.605 119.573C504.266 102.783 490.272 90.4483 474.818 83.9463C475.883 87.8855 476.846 91.8514 477.707 95.8403C483.917 124.44 487.724 163.761 487.724 207.063C487.724 242.496 481.702 291.578 475.721 331.635C473.183 348.593 470.437 365.52 467.484 382.41C466.601 387.469 465.695 392.524 464.768 397.574L464.651 398.212ZM376.666 115.096C387.964 98.3663 402.092 85.3563 418.055 77.8663C348.359 91.7703 296.049 150.213 296.049 220.2C296.049 285.642 404.715 402.213 404.715 402.213H415.905C415.297 401.165 414.692 400.115 414.09 399.062C411.408 394.365 408.776 389.64 406.194 384.887C399.665 372.884 390.957 356.19 382.245 337.432C373.537 318.683 364.8 297.817 358.232 277.477C351.682 257.192 347.205 237.174 347.205 220.2C347.205 179.339 358.383 142.167 376.666 115.097V115.096ZM522.235 115.096C510.743 98.0793 496.324 84.9123 480.023 77.4863C550.702 90.6723 604 149.555 604 220.2C604 285.642 495.333 402.213 495.333 402.213H482.996C483.473 401.393 484.083 400.336 484.812 399.062C487.493 394.365 490.126 389.64 492.708 384.887C499.236 372.884 507.944 356.19 516.656 337.432C525.363 318.683 534.101 297.817 540.668 277.477C547.218 257.192 551.696 237.174 551.696 220.2C551.696 179.339 540.517 142.167 522.235 115.097V115.096Z" fill="#4F27AA"/>
<path fill-rule="evenodd" clip-rule="evenodd" d="M461.271 499.981H435.388C425.273 499.981 417.073 491.678 417.073 481.438V454.264L412.647 439.488C440.071 439.608 478.554 440.089 484.01 439.488L479.586 454.264V481.438C479.586 491.678 471.385 499.981 461.271 499.981Z" fill="white"/>
<path d="M418.284 455.806C418.284 455.689 418.267 455.572 418.233 455.459L414.276 442.248C420.686 442.279 427.637 442.327 434.592 442.376H434.627C442.164 442.428 449.705 442.481 456.561 442.511C463.428 442.541 469.613 442.549 474.424 442.511C477.792 442.485 480.526 442.436 482.35 442.355L478.426 455.459C478.392 455.572 478.375 455.689 478.375 455.806V482.98C478.375 492.566 470.702 500.312 461.271 500.312H435.388C425.956 500.312 418.284 492.566 418.284 482.98V455.806Z" fill="#4F27AA" stroke="white" stroke-width="2.421" stroke-linecap="round" stroke-linejoin="round"/>
<path d="M416.824 454.643H479.523" stroke="white" stroke-width="4.842" stroke-linecap="round" stroke-linejoin="round"/>
</g>
<defs>
<linearGradient id="paint0_linear_1235_19579" x1="452.198" y1="227.112" x2="451.3" y2="41.925" gradientUnits="userSpaceOnUse">
<stop stop-color="white"/>
<stop offset="1" stop-color="#EEEEEE"/>
</linearGradient>
<clipPath id="clip0_1235_19579">
<rect width="900" height="600" fill="white"/>
</clipPath>
</defs>
</svg>
