<svg width="900" height="600" viewBox="0 0 900 600" fill="none" xmlns="http://www.w3.org/2000/svg">
<g clip-path="url(#clip0_1235_17929)">
<mask id="mask0_1235_17929" style="mask-type:alpha" maskUnits="userSpaceOnUse" x="0" y="0" width="900" height="600">
<path d="M0 0H900V600H0V0Z" fill="white"/>
</mask>
<g mask="url(#mask0_1235_17929)">
<path d="M625.227 199.555C618.02 139.808 481.127 39.8393 346.354 109.489C283.673 141.885 295.346 175.282 252.888 229.481C227.581 261.784 187.982 289.814 182.881 331.191C178.469 366.907 191.246 402.212 213.41 422.737C263.257 468.896 351.372 490.999 417.084 392.876C482.796 294.753 643.799 353.651 625.227 199.555Z" fill="url(#paint0_linear_1235_17929)"/>
<path d="M429.414 464.413C508.552 401.664 590.479 334.344 678.041 314.752C768.366 294.522 775.208 324.952 768.6 368.306C761.993 411.659 709.449 503.779 586.719 529.517C463.957 555.264 355.359 523.144 429.414 464.413Z" fill="url(#paint1_linear_1235_17929)"/>
<path fill-rule="evenodd" clip-rule="evenodd" d="M597.829 292.356C597.829 373.64 531.938 439.53 450.655 439.53C369.371 439.53 303.48 373.64 303.48 292.356C303.48 211.072 369.371 145.182 450.655 145.182C531.938 145.182 597.829 211.072 597.829 292.356Z" fill="#4F27AA" stroke="#4F27AA" stroke-width="29.565" stroke-linecap="round" stroke-linejoin="round"/>
<path d="M618.839 460.539L554.782 396.482" stroke="#4F27AA" stroke-width="29.565" stroke-linecap="round" stroke-linejoin="round"/>
<path d="M343.282 293.811H392.537L418.021 255.799L451.989 331.823L477.473 293.811H553.475" stroke="white" stroke-width="22.007" stroke-linecap="round" stroke-linejoin="round"/>
<path d="M353.761 482.663C362.425 482.663 369.449 489.687 369.449 498.351C369.449 507.015 362.425 514.039 353.761 514.039C345.097 514.039 338.073 507.015 338.073 498.351C338.073 489.687 345.097 482.663 353.761 482.663Z" fill="#4F27AA"/>
<path d="M631.362 127.571C622.378 132.757 610.891 129.679 605.705 120.696C600.518 111.713 603.596 100.226 612.58 95.0394C621.563 89.8529 633.05 92.9308 638.236 101.914C643.423 110.897 640.345 122.384 631.362 127.571Z" fill="#4F27AA"/>
<path d="M173.354 252.178C181.018 252.178 187.231 258.391 187.231 266.055C187.231 273.719 181.018 279.932 173.354 279.932C165.69 279.932 159.477 273.719 159.477 266.055C159.477 258.391 165.69 252.178 173.354 252.178Z" fill="#4F27AA"/>
<path d="M684.68 272.239C680.639 274.571 675.473 273.187 673.141 269.147C670.808 265.107 672.192 259.941 676.233 257.608C680.273 255.276 685.439 256.66 687.771 260.7C690.104 264.74 688.72 269.906 684.68 272.239Z" fill="#4F27AA"/>
<path d="M249.982 182.188C245.983 182.188 242.742 185.429 242.742 189.428C242.742 193.427 245.983 196.668 249.982 196.668C253.98 196.668 257.222 193.427 257.222 189.428C257.222 185.429 253.98 182.188 249.982 182.188Z" fill="#E1E4E5"/>
<path d="M734.142 367.6C739.337 364.601 741.117 357.958 738.118 352.764C735.119 347.569 728.476 345.789 723.281 348.788C718.087 351.787 716.307 358.43 719.306 363.625C722.305 368.819 728.948 370.599 734.142 367.6Z" fill="#E1E4E5"/>
<path d="M201.109 439.223C208.773 439.223 214.986 445.436 214.986 453.1C214.986 460.764 208.773 466.977 201.109 466.977C193.445 466.977 187.232 460.764 187.232 453.1C187.232 445.436 193.445 439.223 201.109 439.223Z" fill="#E1E4E5"/>
<path d="M426.231 67.0592C420.647 70.2832 413.506 68.3699 410.282 62.7858C407.058 57.2018 408.972 50.0615 414.556 46.8375C420.14 43.6135 427.28 45.5268 430.504 51.1108C433.728 56.6949 431.815 63.8352 426.231 67.0592Z" fill="#E1E4E5"/>
</g>
</g>
<defs>
<linearGradient id="paint0_linear_1235_17929" x1="424.479" y1="-130.844" x2="379.961" y2="883.734" gradientUnits="userSpaceOnUse">
<stop stop-color="white"/>
<stop offset="1" stop-color="#EEEEEE"/>
</linearGradient>
<linearGradient id="paint1_linear_1235_17929" x1="417.953" y1="741.761" x2="849.247" y2="-61.4717" gradientUnits="userSpaceOnUse">
<stop stop-color="white"/>
<stop offset="1" stop-color="#EEEEEE"/>
</linearGradient>
<clipPath id="clip0_1235_17929">
<rect width="900" height="600" fill="white"/>
</clipPath>
</defs>
</svg>
