<svg width="900" height="600" viewBox="0 0 900 600" fill="none" xmlns="http://www.w3.org/2000/svg">
<g clip-path="url(#clip0_1235_19694)">
<path d="M450 526C646.061 526 805 519.732 805 512C805 504.268 646.061 498 450 498C253.939 498 95 504.268 95 512C95 519.732 253.939 526 450 526Z" fill="url(#paint0_linear_1235_19694)"/>
<path d="M625.151 212.858L541.448 227.013L541.683 280.386L489.175 256.544L464.144 299.149L462.074 298.302L317.723 241.214L313.865 322.097L224.092 331.784L223.528 326.517L308.783 317.347L312.829 233.596L461.933 292.565L487.057 249.773L536.366 272.203L536.131 222.545L618.94 208.579L609.953 161.507L615.129 160.52L625.151 212.858Z" fill="#E1E4E5"/>
<path d="M321.957 227.576C326.803 229.786 328.921 235.476 326.756 240.272C324.545 245.116 318.852 247.232 314.006 245.022C309.159 242.812 307.042 237.122 309.254 232.325C309.773 231.176 310.513 230.141 311.434 229.28C312.354 228.418 313.436 227.748 314.617 227.306C315.798 226.865 317.054 226.661 318.314 226.708C319.574 226.754 320.812 227.049 321.957 227.576ZM315.323 310.998C320.169 313.208 322.287 318.898 320.075 323.694C317.864 328.538 312.171 330.654 307.325 328.444C302.478 326.234 300.361 320.544 302.572 315.747C304.784 310.951 310.477 308.787 315.323 310.998ZM468.614 283.629C473.46 285.839 475.577 291.529 473.366 296.326C471.154 301.169 465.461 303.285 460.662 301.075C455.816 298.865 453.699 293.175 455.91 288.378C458.074 283.535 463.768 281.419 468.614 283.629ZM492.609 243.328C497.456 245.538 499.573 251.228 497.409 256.025C496.885 257.175 496.139 258.211 495.214 259.072C494.289 259.934 493.203 260.604 492.019 261.045C490.834 261.487 489.575 261.69 488.311 261.643C487.048 261.597 485.807 261.301 484.658 260.774C479.812 258.564 477.694 252.874 479.859 248.078C482.07 243.281 487.763 241.118 492.609 243.328ZM542.248 215.82C543.398 216.343 544.434 217.088 545.296 218.012C546.158 218.936 546.829 220.021 547.271 221.205C547.712 222.389 547.915 223.649 547.869 224.912C547.823 226.175 547.527 227.416 547 228.564C544.788 233.407 539.095 235.523 534.296 233.313C529.45 231.103 527.333 225.413 529.544 220.616C530.059 219.464 530.797 218.424 531.716 217.558C532.634 216.692 533.715 216.017 534.897 215.571C536.078 215.125 537.335 214.917 538.597 214.96C539.859 215.003 541.1 215.295 542.248 215.82ZM626.045 201.993C630.891 204.203 633.008 209.893 630.797 214.689C630.273 215.84 629.527 216.875 628.602 217.737C627.678 218.599 626.592 219.269 625.407 219.71C624.223 220.152 622.963 220.355 621.7 220.308C620.436 220.262 619.195 219.966 618.046 219.439C616.896 218.916 615.86 218.172 614.998 217.248C614.136 216.323 613.465 215.238 613.023 214.054C612.582 212.87 612.379 211.611 612.425 210.348C612.471 209.085 612.767 207.844 613.294 206.695C615.505 201.899 621.198 199.783 626.045 201.993ZM617.152 151.771C621.951 153.982 624.116 159.672 621.951 164.468C619.74 169.312 614.047 171.428 609.201 169.218C608.051 168.696 607.015 167.951 606.153 167.027C605.291 166.103 604.62 165.017 604.178 163.833C603.737 162.649 603.533 161.39 603.58 160.127C603.626 158.864 603.922 157.623 604.449 156.474C606.613 151.724 612.306 149.561 617.152 151.771ZM228.092 323.035C232.891 325.198 235.055 330.935 232.844 335.731C230.632 340.575 224.939 342.691 220.14 340.481C215.294 338.271 213.177 332.581 215.341 327.784C217.552 322.941 223.245 320.825 228.092 323.035Z" fill="#4F27AA"/>
<path d="M363.108 498.7V319.143H387.969V498.7H363.108ZM403.513 498.345V319.089H432.119V498.345H403.513ZM447.382 498.699V283.354H473.398V498.699H447.382ZM488.942 498.344V377.823H517.548V498.344H488.942ZM532.811 498.344V253.301H558.406V498.344H532.811ZM573.217 498.345V319.089H601.823V498.345H573.217ZM341.588 419.157V498.694L292.906 499.215L293.489 419.157H341.588ZM269.541 377.589V497.49L220.873 498.264L221.465 377.589H269.541Z" fill="#E1E4E5" stroke="#E1E4E5" stroke-width="4"/>
<path d="M422.095 439.212H364.646V500.673H422.095V439.212ZM346.981 439.212H289.532V500.673H346.981V439.212ZM271.061 408.344H213.339V500.699H271.061V408.344ZM490.601 429.76H438.422V500.674H490.601V429.76ZM558.965 458.915H501.564V500.673H558.965V458.915Z" fill="#4F27AA"/>
<path d="M598.7 250.422C599.22 254.436 600.611 259.276 602.862 260.919C605.415 262.785 606.204 264.765 606.204 264.765L608.799 263.965L611.901 263.009C611.901 263.009 611.906 262.693 611.887 262.165C611.863 261.47 611.807 260.777 611.72 260.087C611.72 260.087 611.129 258.816 611.958 257.579C612.786 256.347 613.167 254.23 612.584 252.752C612.003 251.278 611.883 247.939 611.334 247.913C610.003 247.838 610.914 252.595 610.18 253.266C609.519 253.878 608.954 253.485 608.853 253.402L608.833 253.385C605.612 250.978 603.229 241.472 601.038 242.176C600.221 242.438 598.476 248.712 598.7 250.422ZM729.657 349.208C729.657 349.208 726.907 353.967 728.139 356.712C729.367 359.459 733.63 363.12 734.73 364.556C735.825 365.99 739.544 369.779 741.043 367.341C742.54 364.909 739.896 358.44 738.062 356.002C736.23 353.559 736.057 349.367 736.057 349.367L729.657 349.208Z" fill="#F8AE9D"/>
<path d="M727.897 355.92C727.897 355.92 728.107 361.163 728.356 362.563C728.607 363.967 728.854 363.537 729.813 362.595C730.771 361.654 730.76 358.91 731.12 358.729C731.479 358.548 727.897 355.92 727.897 355.92Z" fill="#F8AE9D"/>
<path d="M679.791 249.848C679.791 249.848 647.711 284.427 637.724 289.845L612.563 260.145C612.563 260.145 607.84 260.477 604.883 264.459C604.883 264.459 614.645 306.348 632.456 312.149C650.267 317.951 686.579 277.165 686.579 277.165L679.791 249.848ZM649.881 503.32H682.823C684.406 501.454 683.823 494.566 683.585 492.314C683.535 491.859 683.502 491.598 683.502 491.598C683.502 491.598 672.253 482.912 670.708 489.563C670.661 489.77 670.606 489.975 670.542 490.178C668.597 496.399 659.863 499.226 654.824 500.015C651.542 500.525 650.33 502.17 649.881 503.32Z" fill="#2E2445"/>
<path d="M672.059 503.319H705.002C706.584 501.453 706.001 494.565 705.764 492.313C705.714 491.858 705.681 491.597 705.681 491.597C705.681 491.597 694.432 482.911 692.887 489.562C692.84 489.769 692.785 489.974 692.72 490.177C690.775 496.398 682.042 499.225 677.003 500.014C673.721 500.524 672.509 502.169 672.059 503.319Z" fill="#2E2445"/>
<path d="M658.879 355.202C658.879 355.202 660.454 372.248 662.306 392.735C664.821 420.567 667.848 454.756 668.148 461.232C668.666 472.478 670.74 490.467 670.74 490.467C670.74 490.467 675.664 494.741 685.52 492.939C685.52 492.939 694.304 467.258 696.812 440.085L696.928 438.743C699.263 411.083 702.889 352.836 702.889 352.836L658.879 355.202Z" fill="#4F27AA"/>
<path d="M667.813 356.368C667.813 356.368 670.784 373.245 674.311 393.531C679.105 421.09 684.928 454.946 685.753 461.376C687.183 472.541 690.737 490.326 690.737 490.326C690.737 490.326 696.093 494.291 705.982 491.915C705.982 491.915 712.866 465.832 713.24 438.633L713.249 437.29C713.408 409.617 712.428 351.418 712.428 351.418L667.813 356.368Z" fill="#4F27AA"/>
<path d="M672.916 256.075C684.236 259.649 702.916 249.572 702.916 249.572C702.916 249.572 693.388 242.168 693.932 225.879L685.18 232.934L679.234 237.724C679.234 237.724 679.258 240.55 679.908 245.5C680.081 246.801 680.394 248.835 679.419 249.878C675.628 253.923 672.916 256.075 672.916 256.075Z" fill="#F8AE9D"/>
<path d="M675.773 237.458C675.773 237.458 694.473 240.566 696.229 228.89C697.985 217.214 701.579 209.751 689.715 207.274C677.851 204.797 674.852 208.901 673.32 212.656C671.787 216.41 670.956 236.349 675.773 237.458Z" fill="#F8AE9D"/>
<path d="M657.113 361.241C657.454 361.523 657.85 361.695 658.304 361.695C662.557 361.637 674.954 364 685.443 362.922C694.285 362.072 702.116 359.453 710.519 355.687C711.637 355.185 714.204 353.813 714.149 352.567C714.11 351.199 713.976 349.22 713.804 346.723C713.208 338.045 712.174 323.124 713.185 305.906C713.365 302.7 713.463 299.521 713.475 296.389C713.561 273.053 708.936 252.53 699.635 245.585C698.839 245.017 693.964 247.4 689.484 249.606C685.345 251.649 682.099 251.864 678.188 251.072L673.386 254.537C668.624 258.958 663.407 264.971 661.138 274.095C659.21 281.864 658.077 295.868 657.454 310.382C657.172 316.959 656.944 323.594 656.885 329.885V330.108C656.831 330.732 656.831 331.414 656.831 332.037C656.603 348.201 656.831 361.013 657.113 361.241Z" fill="#2E2445"/>
<path d="M732.46 351.63C728.91 352.112 725.123 351.615 725.123 351.615C725.123 351.615 716.564 318.824 715.392 315.808C714.219 312.792 686.626 276.279 686.626 276.279L700.744 246.123C700.744 246.123 729.675 301.468 732.492 309.173C737.147 321.903 737.403 349.859 737.403 349.859C737.403 349.859 735.249 351.254 732.46 351.63ZM698.332 224.706C697.315 226.811 694.362 227.122 694.634 224.8C694.943 222.159 694.94 218.702 692.792 219.344C690.644 219.987 690.534 221.708 689.652 220.704C688.77 219.701 688.755 215.468 682.358 215.17C675.961 214.876 673.363 217.102 670.392 215.793C668.611 215.01 667.84 213.083 667.508 211.663C667.414 211.26 667.707 210.698 667.976 211.012C668.23 211.309 668.869 211.29 668.687 210.945C667.56 208.807 665.875 204.141 670.168 200.664C675.914 196.012 681.77 199.057 685.094 199.257C692.419 199.7 697.15 200.139 699.541 204.952C701.523 208.945 701.183 218.809 698.332 224.706Z" fill="#2E2445"/>
<path d="M440.429 232H440.567C441.385 242.975 450 243.143 450 243.143C450 243.143 440.5 243.319 440.5 256C440.5 243.319 431 243.143 431 243.143C431 243.143 439.612 242.975 440.429 232ZM347.955 273H348.042C348.559 280.774 354 280.893 354 280.893C354 280.893 348 281.018 348 290C348 281.018 342 280.893 342 280.893C342 280.893 347.439 280.774 347.955 273ZM324.925 359H325.071C325.931 370.432 335 370.608 335 370.608C335 370.608 325 370.791 325 384C325 370.791 315 370.608 315 370.608C315 370.608 324.065 370.432 324.925 359ZM185.925 378H186.071C186.931 389.432 196 389.608 196 389.608C196 389.608 186 389.791 186 403C186 389.791 176 389.608 176 389.608C176 389.608 185.065 389.432 185.925 378ZM271.429 277H271.567C272.385 288.889 281 289.072 281 289.072C281 289.072 271.5 289.262 271.5 303C271.5 289.262 262 289.072 262 289.072C262 289.072 270.612 288.889 271.429 277ZM587.925 176H588.071C588.931 187.432 598 187.608 598 187.608C598 187.608 588 187.791 588 201C588 187.791 578 187.608 578 187.608C578 187.608 587.065 187.432 587.925 176Z" fill="#E1E4E5"/>
<path d="M172.57 484.993L194.076 463.486C194.859 462.703 194.859 461.434 194.076 460.651L194.076 460.65C193.293 459.867 192.023 459.867 191.24 460.65L169.733 482.157C168.95 482.94 168.95 484.209 169.733 484.992L169.734 484.993C170.517 485.776 171.787 485.776 172.57 484.993Z" fill="#E1E4E5"/>
<path d="M174.674 469.595L180.877 463.392C181.66 462.609 181.66 461.34 180.877 460.557L180.877 460.556C180.094 459.773 178.824 459.773 178.041 460.556L171.838 466.759C171.055 467.542 171.055 468.811 171.838 469.594L171.839 469.595C172.622 470.378 173.891 470.378 174.674 469.595Z" fill="#E1E4E5"/>
</g>
<defs>
<linearGradient id="paint0_linear_1235_19694" x1="465.139" y1="541.698" x2="465.105" y2="467.531" gradientUnits="userSpaceOnUse">
<stop stop-color="white"/>
<stop offset="1" stop-color="#EEEEEE"/>
</linearGradient>
<clipPath id="clip0_1235_19694">
<rect width="900" height="600" fill="white"/>
</clipPath>
</defs>
</svg>
