<svg width="900" height="600" viewBox="0 0 900 600" fill="none" xmlns="http://www.w3.org/2000/svg">
<g clip-path="url(#clip0_1235_19714)">
<path fill-rule="evenodd" clip-rule="evenodd" d="M247.478 157.748C204.789 157.748 169.866 192.64 169.866 235.293C169.866 277.946 204.789 312.838 247.478 312.838C256.042 312.838 263.056 319.846 263.056 328.403C263.056 336.959 256.042 343.967 247.478 343.967H206.867C186.041 343.967 169 360.994 169 381.801C169 402.608 186.041 419.635 206.867 419.635C224.878 419.635 239.616 434.36 239.616 452.356C239.616 485.189 266.503 512.052 299.364 512.052H650.106C692.796 512.052 727.718 477.16 727.718 434.507C727.718 391.854 692.796 356.962 650.106 356.962H642.598C634.034 356.962 627.02 349.963 627.02 341.398C627.02 332.841 634.025 325.833 642.598 325.833H693.133C713.959 325.833 731 308.807 731 287.999C731 267.218 714.002 250.209 693.211 250.165H652.548C634.536 250.165 619.798 235.44 619.798 217.445C619.798 184.612 592.912 157.748 560.05 157.748H247.478Z" fill="url(#paint0_linear_1235_19714)"/>
<path d="M594.947 90.2402H298.763C292.007 90.2402 286.531 95.7167 286.531 102.472V200.975C286.531 207.731 292.007 213.207 298.763 213.207H594.947C601.703 213.207 607.179 207.731 607.179 200.975V102.472C607.179 95.7167 601.703 90.2402 594.947 90.2402Z" fill="#4F27AA"/>
<path d="M541.027 188.304C550.913 188.304 558.927 180.29 558.927 170.404C558.927 160.518 550.913 152.504 541.027 152.504C531.141 152.504 523.127 160.518 523.127 170.404C523.127 180.29 531.141 188.304 541.027 188.304Z" fill="white"/>
<path fill-rule="evenodd" clip-rule="evenodd" d="M557.092 186.257C561.267 182.038 563.605 176.339 563.597 170.404C563.605 164.468 561.266 158.77 557.092 154.551C559.658 153.202 562.514 152.5 565.413 152.504C575.299 152.504 583.313 160.518 583.313 170.404C583.313 180.29 575.299 188.304 565.413 188.304C562.409 188.304 559.578 187.565 557.092 186.257Z" fill="white"/>
<path d="M465.534 118.26H327.002C319.265 118.26 312.993 124.532 312.993 132.269C312.993 140.006 319.265 146.278 327.002 146.278H465.534C473.271 146.278 479.543 140.006 479.543 132.269C479.543 124.532 473.271 118.26 465.534 118.26Z" fill="white"/>
<path d="M414.168 158.729H327.002C319.265 158.729 312.993 165.001 312.993 172.738C312.993 180.474 319.265 186.747 327.002 186.747H414.168C421.905 186.747 428.177 180.474 428.177 172.738C428.177 165.001 421.905 158.729 414.168 158.729Z" fill="white"/>
<path d="M594.947 404.02H298.763C292.007 404.02 286.531 409.496 286.531 416.252V514.755C286.531 521.51 292.007 526.987 298.763 526.987H594.947C601.703 526.987 607.179 521.51 607.179 514.755V416.252C607.179 409.496 601.703 404.02 594.947 404.02Z" fill="#4F27AA"/>
<path d="M541.027 502.081C550.913 502.081 558.927 494.067 558.927 484.181C558.927 474.295 550.913 466.281 541.027 466.281C531.141 466.281 523.127 474.295 523.127 484.181C523.127 494.067 531.141 502.081 541.027 502.081Z" fill="white"/>
<path fill-rule="evenodd" clip-rule="evenodd" d="M557.092 500.034C561.267 495.815 563.605 490.117 563.597 484.181C563.605 478.246 561.266 472.548 557.092 468.328C559.658 466.98 562.514 466.277 565.413 466.281C575.299 466.281 583.313 474.295 583.313 484.181C583.313 494.067 575.299 502.081 565.413 502.081C562.409 502.081 559.578 501.341 557.092 500.034Z" fill="white"/>
<path d="M465.534 432.035H327.002C319.265 432.035 312.993 438.307 312.993 446.044C312.993 453.781 319.265 460.053 327.002 460.053H465.534C473.271 460.053 479.543 453.781 479.543 446.044C479.543 438.307 473.271 432.035 465.534 432.035Z" fill="white"/>
<path d="M414.168 472.506H327.002C319.265 472.506 312.993 478.778 312.993 486.515C312.993 494.252 319.265 500.524 327.002 500.524H414.168C421.905 500.524 428.177 494.252 428.177 486.515C428.177 478.778 421.905 472.506 414.168 472.506Z" fill="white"/>
<path d="M679.16 247.131H382.976C376.22 247.131 370.744 252.607 370.744 259.363V357.866C370.744 364.621 376.22 370.098 382.976 370.098H679.16C685.916 370.098 691.392 364.621 691.392 357.866V259.363C691.392 252.607 685.916 247.131 679.16 247.131Z" fill="#4F27AA"/>
<path d="M625.239 345.193C635.125 345.193 643.139 337.178 643.139 327.293C643.139 317.407 635.125 309.393 625.239 309.393C615.353 309.393 607.339 317.407 607.339 327.293C607.339 337.178 615.353 345.193 625.239 345.193Z" fill="white"/>
<path fill-rule="evenodd" clip-rule="evenodd" d="M641.305 343.144C645.479 338.924 647.817 333.226 647.809 327.291C647.817 321.355 645.478 315.657 641.304 311.438C643.87 310.089 646.726 309.386 649.625 309.391C659.511 309.391 667.525 317.405 667.525 327.291C667.525 337.177 659.511 345.191 649.625 345.191C646.621 345.191 643.79 344.451 641.305 343.144Z" fill="white"/>
<path d="M549.747 275.146H411.215C403.478 275.146 397.206 281.419 397.206 289.155C397.206 296.892 403.478 303.164 411.215 303.164H549.747C557.484 303.164 563.756 296.892 563.756 289.155C563.756 281.419 557.484 275.146 549.747 275.146Z" fill="white"/>
<path d="M498.381 315.617H411.215C403.478 315.617 397.206 321.889 397.206 329.626C397.206 337.363 403.478 343.635 411.215 343.635H498.381C506.118 343.635 512.39 337.363 512.39 329.626C512.39 321.889 506.118 315.617 498.381 315.617Z" fill="white"/>
<path fill-rule="evenodd" clip-rule="evenodd" d="M318.87 270.926H315.26C314.387 270.926 313.684 270.216 313.684 269.351V265.741C313.684 264.868 314.395 264.165 315.26 264.165H318.87C319.735 264.165 320.446 264.875 320.446 265.741V269.351C320.446 269.558 320.406 269.763 320.327 269.954C320.248 270.146 320.132 270.319 319.985 270.466C319.839 270.612 319.665 270.728 319.474 270.807C319.282 270.886 319.077 270.926 318.87 270.926ZM306.355 270.926H302.745C301.88 270.926 301.169 270.216 301.169 269.351V265.741C301.169 264.868 301.88 264.165 302.745 264.165H306.355C307.22 264.165 307.931 264.875 307.931 265.741V269.351C307.931 270.216 307.22 270.926 306.355 270.926ZM293.831 270.926H290.222C289.356 270.926 288.646 270.216 288.646 269.351V265.741C288.646 264.868 289.356 264.165 290.222 264.165H293.831C294.697 264.165 295.407 264.875 295.407 265.741V269.351C295.407 269.558 295.367 269.763 295.288 269.954C295.209 270.146 295.093 270.319 294.946 270.466C294.8 270.612 294.626 270.728 294.435 270.807C294.243 270.886 294.038 270.926 293.831 270.926ZM281.315 270.926H277.705C276.84 270.926 276.13 270.216 276.13 269.351V265.741C276.13 264.868 276.84 264.165 277.705 264.165H281.315C282.188 264.165 282.898 264.875 282.898 265.741V269.351C282.894 269.769 282.725 270.168 282.429 270.462C282.133 270.757 281.733 270.923 281.315 270.926ZM268.799 270.926H265.189C264.316 270.926 263.606 270.216 263.606 269.351V265.741C263.606 264.868 264.316 264.165 265.189 264.165H268.799C269.664 264.165 270.374 264.875 270.374 265.741V269.351C270.374 270.216 269.664 270.926 268.799 270.926ZM305.895 257.278H302.285C301.42 257.278 300.71 256.568 300.71 255.703V252.085C300.71 251.22 301.42 250.51 302.285 250.51H305.895C306.768 250.51 307.471 251.22 307.471 252.085V255.695C307.472 255.902 307.432 256.108 307.354 256.3C307.275 256.492 307.159 256.667 307.012 256.814C306.866 256.961 306.692 257.078 306.5 257.158C306.308 257.237 306.103 257.278 305.895 257.278ZM293.38 257.278H289.77C288.904 257.278 288.194 256.568 288.194 255.703V252.085C288.194 251.22 288.904 250.51 289.77 250.51H293.38C294.245 250.51 294.955 251.22 294.955 252.085V255.695C294.956 255.902 294.917 256.108 294.838 256.3C294.759 256.492 294.644 256.667 294.497 256.814C294.351 256.961 294.177 257.078 293.985 257.158C293.793 257.237 293.588 257.278 293.38 257.278ZM280.864 257.278H277.254C276.381 257.278 275.671 256.568 275.671 255.703V252.085C275.671 251.22 276.381 250.51 277.254 250.51H280.864C281.729 250.51 282.439 251.22 282.439 252.085V255.695C282.439 256.568 281.729 257.278 280.864 257.278ZM293.831 285.586H290.222C289.356 285.586 288.646 284.876 288.646 284.011V280.401C288.646 279.528 289.356 278.825 290.222 278.825H293.831C294.697 278.825 295.407 279.535 295.407 280.401V284.011C295.407 284.218 295.367 284.423 295.288 284.614C295.209 284.806 295.093 284.979 294.946 285.126C294.8 285.272 294.626 285.388 294.435 285.467C294.243 285.546 294.038 285.586 293.831 285.586ZM281.315 285.586H277.705C276.84 285.586 276.13 284.876 276.13 284.011V280.401C276.13 279.528 276.84 278.825 277.705 278.825H281.315C282.188 278.825 282.898 279.535 282.898 280.401V284.011C282.894 284.428 282.725 284.828 282.429 285.122C282.133 285.417 281.733 285.583 281.315 285.586Z" fill="#E1E4E5"/>
<path d="M674.911 213.281C692.393 213.281 706.565 199.109 706.565 181.627C706.565 164.145 692.393 149.973 674.911 149.973C657.429 149.973 643.257 164.145 643.257 181.627C643.257 199.109 657.429 213.281 674.911 213.281Z" fill="url(#paint1_linear_1235_19714)"/>
</g>
<defs>
<linearGradient id="paint0_linear_1235_19714" x1="461.983" y1="710.696" x2="455.095" y2="-227.751" gradientUnits="userSpaceOnUse">
<stop stop-color="white"/>
<stop offset="1" stop-color="#EEEEEE"/>
</linearGradient>
<linearGradient id="paint1_linear_1235_19714" x1="676.261" y1="248.776" x2="674.309" y2="81.1047" gradientUnits="userSpaceOnUse">
<stop stop-color="white"/>
<stop offset="1" stop-color="#EEEEEE"/>
</linearGradient>
<clipPath id="clip0_1235_19714">
<rect width="900" height="600" fill="white"/>
</clipPath>
</defs>
</svg>
