<svg width="900" height="600" viewBox="0 0 900 600" fill="none" xmlns="http://www.w3.org/2000/svg">
<g clip-path="url(#clip0_1235_19734)">
<path d="M713.335 354.846C717.062 423.509 582.821 563.127 417.359 511.45C340.405 487.413 346.923 447.518 288.407 394.939C253.529 363.601 203.414 339.904 189.476 294.352C177.435 255.035 184.819 212.774 205.694 185.286C252.642 123.467 347.421 81.1356 440.808 178.537C534.195 275.937 703.705 177.76 713.335 354.846Z" fill="url(#paint0_linear_1235_19734)"/>
<path d="M676.537 203.495C663.479 226.798 634.883 230 589.069 225.571C554.613 222.235 523.193 219.653 488.735 200.866C464.617 187.726 445.525 169.947 431.591 152.68C416.491 133.974 395.416 112.626 405.747 91.4157C419.946 62.2807 502.055 37.7427 581.786 77.8707C669.37 121.964 689.31 180.719 676.537 203.495Z" fill="url(#paint1_linear_1235_19734)"/>
<path d="M344.192 488.495C313.773 445.939 282.619 400.709 241.833 378.431C199.764 355.441 192.005 369.61 189.093 392.137C186.181 414.663 199.161 468.035 256.574 498.403C314.001 528.779 372.655 528.324 344.192 488.495Z" fill="url(#paint2_linear_1235_19734)"/>
<path d="M695.814 485.59H202.062C187.464 485.59 175.625 473.752 175.625 459.154V149.785C175.625 135.187 187.464 123.348 202.062 123.348H695.814C710.413 123.348 722.251 135.187 722.251 149.785V459.154C722.251 473.752 710.413 485.59 695.814 485.59Z" fill="white" stroke="#E1E4E5" stroke-width="4"/>
<path d="M722.251 149.785C722.251 151.996 721.372 154.117 719.808 155.681C718.244 157.245 716.123 158.124 713.911 158.124H183.965C181.753 158.124 179.632 157.245 178.068 155.681C176.504 154.117 175.625 151.996 175.625 149.785C175.625 135.187 187.464 123.348 202.062 123.348H695.814C710.413 123.348 722.251 135.187 722.251 149.785Z" fill="white" stroke="#E1E4E5" stroke-width="4"/>
<path d="M202.115 148.088C202.924 148.099 203.726 147.949 204.476 147.646C205.226 147.344 205.908 146.896 206.484 146.328C207.059 145.76 207.516 145.083 207.828 144.337C208.14 143.591 208.3 142.791 208.3 141.982C208.3 141.173 208.14 140.373 207.828 139.627C207.516 138.881 207.059 138.204 206.484 137.636C205.908 137.068 205.226 136.62 204.476 136.318C203.726 136.015 202.924 135.865 202.115 135.876C200.509 135.896 198.976 136.548 197.847 137.691C196.719 138.834 196.086 140.376 196.086 141.982C196.086 143.588 196.719 145.13 197.847 146.273C198.976 147.416 200.509 148.068 202.115 148.088ZM227.56 148.088C228.369 148.099 229.171 147.949 229.921 147.646C230.671 147.344 231.353 146.896 231.929 146.328C232.504 145.76 232.961 145.083 233.273 144.337C233.585 143.591 233.745 142.791 233.745 141.982C233.745 141.173 233.585 140.373 233.273 139.627C232.961 138.881 232.504 138.204 231.929 137.636C231.353 137.068 230.671 136.62 229.921 136.318C229.171 136.015 228.369 135.865 227.56 135.876C225.954 135.896 224.421 136.548 223.292 137.691C222.164 138.834 221.531 140.376 221.531 141.982C221.531 143.588 222.164 145.13 223.292 146.273C224.421 147.416 225.954 148.068 227.56 148.088ZM251.988 148.088C252.797 148.099 253.599 147.949 254.349 147.646C255.099 147.344 255.781 146.896 256.357 146.328C256.932 145.76 257.389 145.083 257.701 144.337C258.013 143.591 258.173 142.791 258.173 141.982C258.173 141.173 258.013 140.373 257.701 139.627C257.389 138.881 256.932 138.204 256.357 137.636C255.781 137.068 255.099 136.62 254.349 136.318C253.599 136.015 252.797 135.865 251.988 135.876C250.382 135.896 248.849 136.548 247.72 137.691C246.592 138.834 245.959 140.376 245.959 141.982C245.959 143.588 246.592 145.13 247.72 146.273C248.849 147.416 250.382 148.068 251.988 148.088Z" fill="#E1E4E5"/>
<path d="M355.731 207.014H148.013C141.931 207.014 137 211.944 137 218.027V284.107C137 290.189 141.931 295.12 148.013 295.12H355.731C361.813 295.12 366.744 290.189 366.744 284.107V218.027C366.744 211.944 361.813 207.014 355.731 207.014Z" fill="#4F27AA"/>
<path d="M337.938 234.07H208.224C205.367 234.07 203.051 236.386 203.051 239.243C203.051 242.099 205.367 244.415 208.224 244.415H337.938C340.795 244.415 343.111 242.099 343.111 239.243C343.111 236.386 340.795 234.07 337.938 234.07Z" fill="white"/>
<path d="M288.599 257.148H208.224C205.367 257.148 203.051 259.464 203.051 262.321C203.051 265.178 205.367 267.493 208.224 267.493H288.599C291.456 267.493 293.772 265.178 293.772 262.321C293.772 259.464 291.456 257.148 288.599 257.148Z" fill="white"/>
<path d="M174.402 267.494C183.632 267.494 191.114 260.012 191.114 250.782C191.114 241.553 183.632 234.07 174.402 234.07C165.172 234.07 157.69 241.553 157.69 250.782C157.69 260.012 165.172 267.494 174.402 267.494Z" fill="white"/>
<path d="M681.546 307H497.013C490.931 307 486 311.931 486 318.013V488.846C486 494.928 490.931 499.859 497.013 499.859H681.546C687.628 499.859 692.559 494.928 692.559 488.846V318.013C692.559 311.931 687.628 307 681.546 307Z" fill="#4F27AA"/>
<path d="M666.659 438.82H550.036C547.467 438.82 545.385 440.902 545.385 443.471C545.385 446.039 547.467 448.121 550.036 448.121H666.659C669.228 448.121 671.31 446.039 671.31 443.471C671.31 440.902 669.228 438.82 666.659 438.82Z" fill="white"/>
<path d="M545.017 343.358V415.022C545.017 417.641 547.14 419.764 549.759 419.764H549.76C552.379 419.764 554.502 417.641 554.502 415.022V343.358C554.502 340.739 552.379 338.616 549.76 338.616H549.759C547.14 338.616 545.017 340.739 545.017 343.358Z" fill="white"/>
<path d="M586.118 343.358V415.022C586.118 417.641 588.241 419.764 590.86 419.764H590.861C593.48 419.764 595.603 417.641 595.603 415.022V343.358C595.603 340.739 593.48 338.616 590.861 338.616H590.86C588.241 338.616 586.118 340.739 586.118 343.358Z" fill="white"/>
<path d="M627.219 343.358V415.022C627.219 417.641 629.342 419.764 631.961 419.764H631.962C634.581 419.764 636.704 417.641 636.704 415.022V343.358C636.704 340.739 634.581 338.616 631.962 338.616H631.961C629.342 338.616 627.219 340.739 627.219 343.358Z" fill="white"/>
<path d="M622.299 459.57H550.036C547.467 459.57 545.385 461.652 545.385 464.221C545.385 466.789 547.467 468.871 550.036 468.871H622.299C624.868 468.871 626.95 466.789 626.95 464.221C626.95 461.652 624.868 459.57 622.299 459.57Z" fill="white"/>
<path d="M566.094 371.285V415.549C566.094 417.877 567.981 419.764 570.309 419.764H570.31C572.638 419.764 574.525 417.877 574.525 415.549V371.285C574.525 368.957 572.638 367.07 570.31 367.07H570.309C567.981 367.07 566.094 368.957 566.094 371.285Z" fill="white"/>
<path d="M607.195 371.285V415.549C607.195 417.877 609.082 419.764 611.41 419.764H611.411C613.739 419.764 615.626 417.877 615.626 415.549V371.285C615.626 368.957 613.739 367.07 611.411 367.07H611.41C609.082 367.07 607.195 368.957 607.195 371.285Z" fill="white"/>
<path d="M648.296 371.285V415.549C648.296 417.877 650.183 419.764 652.511 419.764H652.512C654.84 419.764 656.727 417.877 656.727 415.549V371.285C656.727 368.957 654.84 367.07 652.512 367.07H652.511C650.183 367.07 648.296 368.957 648.296 371.285Z" fill="white"/>
<path d="M519.628 468.87C527.926 468.87 534.653 462.143 534.653 453.845C534.653 445.547 527.926 438.82 519.628 438.82C511.33 438.82 504.603 445.547 504.603 453.845C504.603 462.143 511.33 468.87 519.628 468.87Z" fill="white"/>
<path d="M743 147.064H546.933C536.992 147.064 528.933 155.123 528.933 165.064V215.595C528.933 225.537 536.992 233.595 546.933 233.595H743C752.941 233.595 761 225.537 761 215.595V165.064C761 155.123 752.941 147.064 743 147.064Z" fill="white" stroke="#E1E4E5" stroke-width="4"/>
<path d="M733.402 172.865H600.117C597.182 172.865 594.802 175.245 594.802 178.18C594.802 181.116 597.182 183.495 600.117 183.495H733.402C736.337 183.495 738.717 181.116 738.717 178.18C738.717 175.245 736.337 172.865 733.402 172.865Z" fill="#E1E4E5"/>
<path d="M682.705 196.58H600.117C597.182 196.58 594.802 198.96 594.802 201.895C594.802 204.83 597.182 207.21 600.117 207.21H682.705C685.64 207.21 688.02 204.83 688.02 201.895C688.02 198.96 685.64 196.58 682.705 196.58Z" fill="#E1E4E5"/>
<path fill-rule="evenodd" clip-rule="evenodd" d="M564.345 213.15C551.832 213.15 541.687 202.861 541.687 190.172C541.687 177.483 551.832 167.195 564.345 167.195C576.858 167.195 587.003 177.483 587.003 190.172C587.003 202.861 576.858 213.15 564.345 213.15Z" fill="#4F27AA"/>
<path d="M572.323 186.344L562.752 196.556L557.005 190.43" stroke="white" stroke-width="3.568" stroke-linecap="round" stroke-linejoin="round"/>
<path d="M529.283 287.71C527.577 287.081 526.131 286.233 525.134 285.56C524.943 285.431 524.782 285.263 524.661 285.067C524.54 284.871 524.462 284.652 524.432 284.424C524.402 284.195 524.421 283.963 524.488 283.743C524.554 283.522 524.667 283.319 524.818 283.145C525.079 282.844 525.441 282.65 525.835 282.598C526.23 282.545 526.63 282.639 526.96 282.862C527.786 283.418 528.998 284.134 530.41 284.654L530.568 284.712C533.931 285.903 536.822 285.412 539.159 283.252C540.457 282.052 541.597 280.959 542.603 279.995C547.05 275.73 549.5 273.381 554.179 272.768C558.952 272.143 562.087 275.695 564.853 278.83C566.838 281.079 568.714 283.203 570.635 283.111L571.055 283.091L571.308 283.219C571.635 283.302 574.868 283.932 579.509 278.069C582.417 274.394 585.169 272.417 587.923 272.027C589.758 271.766 591.321 272.229 592.666 272.914C592.871 273.017 593.051 273.162 593.196 273.34C593.34 273.518 593.445 273.725 593.504 273.946C593.563 274.167 593.574 274.399 593.537 274.625C593.5 274.851 593.416 275.067 593.289 275.258C593.069 275.591 592.734 275.83 592.348 275.93C591.962 276.031 591.553 275.985 591.199 275.801C589.211 274.76 586.489 274.501 582.065 280.09C576.414 287.229 571.869 286.744 570.484 286.372C567.16 286.364 564.748 283.63 562.412 280.984C559.968 278.215 557.659 275.598 554.605 275.999C550.986 276.473 549.066 278.313 544.86 282.346C543.708 283.457 542.546 284.556 541.373 285.644C538.097 288.671 533.952 289.398 529.383 287.747C529.349 287.733 529.316 287.722 529.283 287.71Z" fill="#E1E4E5"/>
<path d="M594.92 277.714C593.214 277.085 591.768 276.237 590.771 275.563C590.58 275.435 590.419 275.267 590.298 275.071C590.177 274.875 590.099 274.656 590.069 274.428C590.039 274.199 590.058 273.967 590.125 273.747C590.191 273.527 590.304 273.323 590.455 273.149C590.716 272.849 591.078 272.654 591.472 272.601C591.867 272.549 592.267 272.643 592.597 272.865C593.423 273.422 594.635 274.138 596.047 274.658L596.205 274.716C599.568 275.907 602.459 275.416 604.796 273.256C606.094 272.056 607.234 270.963 608.24 269.999C612.687 265.734 615.137 263.385 619.816 262.772C624.589 262.147 627.724 265.699 630.49 268.834C632.475 271.083 634.351 273.207 636.272 273.115L636.692 273.095L636.945 273.223C637.272 273.306 640.505 273.936 645.146 268.073C648.054 264.398 650.806 262.421 653.56 262.03C655.395 261.77 656.958 262.233 658.303 262.918C658.508 263.021 658.688 263.167 658.833 263.345C658.977 263.522 659.082 263.729 659.141 263.95C659.2 264.172 659.211 264.403 659.174 264.629C659.137 264.856 659.053 265.071 658.926 265.262C658.706 265.595 658.371 265.835 657.985 265.935C657.599 266.035 657.19 265.989 656.836 265.805C654.848 264.764 652.126 264.505 647.702 270.094C642.051 277.233 637.506 276.748 636.121 276.376C632.797 276.367 630.385 273.634 628.049 270.988C625.605 268.218 623.296 265.602 620.242 266.002C616.623 266.476 614.703 268.317 610.497 272.35C609.345 273.461 608.183 274.56 607.01 275.648C603.734 278.675 599.589 279.402 595.02 277.751C594.986 277.737 594.953 277.726 594.92 277.714Z" fill="#E1E4E5"/>
<path d="M227.999 332.342L216.76 343.57L211.3 338.126M252.35 326.969H285.566M252.609 343.448H307.539M227.999 370.794L216.76 382.022L211.3 376.578M252.35 365.421H285.566M252.609 381.9H307.539M307.539 420.351H252.35M307.539 403.872H252.609" stroke="#E1E4E5" stroke-width="5.5" stroke-linecap="round" stroke-linejoin="round"/>
<path d="M219.649 425.845C225.717 425.845 230.636 420.926 230.636 414.859C230.636 408.791 225.717 403.873 219.649 403.873C213.582 403.873 208.663 408.791 208.663 414.859C208.663 420.926 213.582 425.845 219.649 425.845Z" stroke="#E1E4E5" stroke-width="5.5" stroke-linecap="round" stroke-linejoin="round"/>
<path d="M370.272 332.342L359.033 343.57L353.573 338.126M394.622 326.969H427.839M394.881 343.448H449.812M370.272 370.794L359.033 382.022L353.573 376.578M394.622 365.421H427.839M394.881 381.9H449.812M449.811 420.351H394.622M449.812 403.872H394.881" stroke="#E1E4E5" stroke-width="5.5" stroke-linecap="round" stroke-linejoin="round"/>
<path d="M361.922 425.845C367.99 425.845 372.908 420.926 372.908 414.859C372.908 408.791 367.99 403.873 361.922 403.873C355.855 403.873 350.936 408.791 350.936 414.859C350.936 420.926 355.855 425.845 361.922 425.845Z" stroke="#E1E4E5" stroke-width="5.5" stroke-linecap="round" stroke-linejoin="round"/>
<path d="M659.375 267.276C662.721 267.891 665.932 265.678 666.547 262.332C667.163 258.986 664.949 255.775 661.603 255.159C658.257 254.544 655.046 256.757 654.431 260.103C653.815 263.449 656.029 266.661 659.375 267.276Z" fill="#E1E4E5"/>
<path fill-rule="evenodd" clip-rule="evenodd" d="M512.74 242.704H510.569C510.318 242.704 510.077 242.604 509.9 242.426C509.722 242.249 509.622 242.008 509.622 241.757V239.586C509.622 239.061 510.049 238.639 510.569 238.639H512.74C512.991 238.64 513.231 238.74 513.409 238.917C513.586 239.095 513.686 239.335 513.687 239.586V241.757C513.687 241.882 513.663 242.005 513.616 242.12C513.568 242.235 513.499 242.34 513.41 242.428C513.322 242.516 513.218 242.585 513.103 242.633C512.988 242.68 512.864 242.705 512.74 242.704ZM505.214 242.704H503.043C502.792 242.703 502.552 242.603 502.374 242.426C502.197 242.248 502.097 242.008 502.096 241.757V239.586C502.096 239.061 502.523 238.639 503.043 238.639H505.214C505.465 238.64 505.705 238.74 505.883 238.917C506.06 239.095 506.16 239.335 506.161 239.586V241.757C506.16 242.008 506.06 242.248 505.883 242.426C505.705 242.603 505.465 242.703 505.214 242.704ZM497.683 242.704H495.513C495.262 242.703 495.021 242.603 494.844 242.426C494.666 242.249 494.566 242.008 494.565 241.757V239.586C494.565 239.061 494.992 238.639 495.513 238.639H497.683C498.204 238.639 498.631 239.066 498.631 239.586V241.757C498.631 241.882 498.607 242.005 498.559 242.12C498.511 242.235 498.442 242.339 498.354 242.427C498.265 242.515 498.161 242.585 498.046 242.633C497.931 242.68 497.807 242.704 497.683 242.704ZM490.157 242.704H487.987C487.736 242.703 487.495 242.603 487.318 242.426C487.14 242.249 487.04 242.008 487.039 241.757V239.586C487.039 239.061 487.466 238.639 487.987 238.639H490.157C490.682 238.639 491.109 239.066 491.109 239.586V241.757C491.106 242.008 491.005 242.248 490.827 242.426C490.649 242.603 490.408 242.703 490.157 242.704ZM482.631 242.704H480.46C480.208 242.704 479.967 242.605 479.789 242.427C479.61 242.25 479.509 242.009 479.508 241.757V239.586C479.508 239.061 479.935 238.639 480.46 238.639H482.631C482.882 238.64 483.122 238.74 483.3 238.917C483.477 239.095 483.577 239.335 483.578 239.586V241.757C483.577 242.008 483.477 242.248 483.3 242.426C483.122 242.603 482.882 242.703 482.631 242.704ZM504.938 234.497H502.768C502.517 234.496 502.276 234.396 502.099 234.219C501.921 234.042 501.821 233.801 501.82 233.55V231.375C501.82 230.854 502.247 230.427 502.768 230.427H504.938C505.463 230.427 505.886 230.854 505.886 231.375V233.545C505.887 233.67 505.863 233.794 505.815 233.909C505.768 234.025 505.698 234.13 505.61 234.218C505.522 234.307 505.417 234.377 505.302 234.425C505.187 234.473 505.063 234.497 504.938 234.497ZM497.412 234.497H495.241C494.99 234.496 494.75 234.396 494.572 234.219C494.395 234.041 494.295 233.801 494.294 233.55V231.375C494.294 230.854 494.721 230.427 495.241 230.427H497.412C497.933 230.427 498.36 230.854 498.36 231.375V233.545C498.361 233.67 498.337 233.794 498.289 233.909C498.242 234.025 498.172 234.13 498.084 234.218C497.996 234.307 497.891 234.377 497.776 234.425C497.661 234.473 497.537 234.497 497.412 234.497ZM489.886 234.497H487.715C487.463 234.497 487.222 234.398 487.044 234.22C486.865 234.043 486.764 233.802 486.763 233.55V231.375C486.763 230.854 487.19 230.427 487.715 230.427H489.886C490.406 230.427 490.833 230.854 490.833 231.375V233.545C490.833 233.797 490.733 234.038 490.556 234.217C490.378 234.395 490.138 234.496 489.886 234.497ZM497.683 251.521H495.513C495.262 251.52 495.021 251.42 494.844 251.243C494.666 251.065 494.566 250.824 494.565 250.573V248.403C494.565 247.878 494.992 247.455 495.513 247.455H497.683C498.204 247.455 498.631 247.882 498.631 248.403V250.573C498.631 250.698 498.607 250.821 498.559 250.936C498.512 251.051 498.442 251.156 498.354 251.244C498.266 251.332 498.161 251.402 498.046 251.45C497.931 251.497 497.808 251.521 497.683 251.521ZM490.157 251.521H487.987C487.736 251.52 487.495 251.42 487.318 251.243C487.14 251.065 487.04 250.824 487.039 250.573V248.403C487.039 247.878 487.466 247.455 487.987 247.455H490.157C490.682 247.455 491.109 247.882 491.109 248.403V250.573C491.107 250.825 491.005 251.065 490.827 251.242C490.649 251.42 490.408 251.52 490.157 251.521ZM474.801 208.98H472.63C472.379 208.98 472.138 208.88 471.961 208.702C471.783 208.525 471.683 208.284 471.683 208.033V205.862C471.683 205.337 472.11 204.915 472.63 204.915H474.801C475.052 204.916 475.292 205.016 475.47 205.193C475.647 205.371 475.747 205.611 475.748 205.862V208.033C475.748 208.158 475.724 208.281 475.677 208.396C475.629 208.511 475.56 208.616 475.471 208.704C475.383 208.792 475.279 208.861 475.164 208.909C475.049 208.956 474.925 208.981 474.801 208.98ZM467.275 208.98H465.104C464.853 208.979 464.613 208.879 464.435 208.702C464.258 208.524 464.157 208.284 464.156 208.033V205.862C464.156 205.337 464.584 204.915 465.104 204.915H467.275C467.526 204.916 467.766 205.016 467.944 205.193C468.121 205.371 468.221 205.611 468.222 205.862V208.033C468.221 208.284 468.121 208.524 467.944 208.702C467.766 208.879 467.526 208.979 467.275 208.98ZM459.744 208.98H457.573C457.322 208.979 457.082 208.879 456.904 208.702C456.727 208.524 456.627 208.284 456.626 208.033V205.862C456.626 205.337 457.053 204.915 457.573 204.915H459.744C460.265 204.915 460.692 205.342 460.692 205.862V208.033C460.692 208.158 460.668 208.281 460.62 208.396C460.572 208.511 460.503 208.615 460.415 208.703C460.326 208.791 460.222 208.861 460.107 208.909C459.992 208.956 459.868 208.98 459.744 208.98ZM452.218 208.98H450.047C449.796 208.979 449.556 208.879 449.378 208.702C449.201 208.524 449.101 208.284 449.1 208.033V205.862C449.1 205.337 449.527 204.915 450.047 204.915H452.218C452.743 204.915 453.17 205.342 453.17 205.862V208.033C453.167 208.284 453.066 208.524 452.888 208.701C452.71 208.878 452.469 208.979 452.218 208.98ZM444.692 208.98H442.521C442.269 208.98 442.028 208.881 441.85 208.703C441.671 208.526 441.57 208.285 441.569 208.033V205.862C441.569 205.337 441.996 204.915 442.521 204.915H444.692C444.943 204.916 445.183 205.016 445.361 205.193C445.538 205.371 445.638 205.611 445.639 205.862V208.033C445.638 208.284 445.538 208.524 445.361 208.702C445.183 208.879 444.943 208.979 444.692 208.98ZM466.999 200.773H464.828C464.577 200.772 464.337 200.672 464.159 200.495C463.982 200.317 463.882 200.077 463.881 199.826V197.651C463.881 197.13 464.308 196.703 464.828 196.703H466.999C467.524 196.703 467.946 197.13 467.946 197.651V199.821C467.947 199.946 467.923 200.07 467.876 200.185C467.828 200.301 467.759 200.406 467.671 200.494C467.583 200.583 467.478 200.653 467.363 200.701C467.247 200.749 467.124 200.773 466.999 200.773ZM459.473 200.773H457.302C457.051 200.772 456.811 200.672 456.633 200.495C456.456 200.317 456.356 200.077 456.355 199.826V197.651C456.355 197.13 456.782 196.703 457.302 196.703H459.473C459.993 196.703 460.42 197.13 460.42 197.651V199.821C460.421 199.946 460.397 200.07 460.35 200.185C460.302 200.301 460.233 200.406 460.145 200.494C460.057 200.583 459.952 200.653 459.837 200.701C459.721 200.749 459.598 200.773 459.473 200.773ZM451.947 200.773H449.776C449.524 200.773 449.283 200.674 449.105 200.496C448.926 200.319 448.825 200.078 448.824 199.826V197.651C448.824 197.13 449.251 196.703 449.776 196.703H451.947C452.467 196.703 452.894 197.13 452.894 197.651V199.821C452.894 200.073 452.794 200.314 452.617 200.493C452.439 200.671 452.199 200.772 451.947 200.773ZM459.744 217.797H457.573C457.322 217.796 457.082 217.695 456.904 217.518C456.727 217.34 456.627 217.1 456.626 216.849V214.678C456.626 214.154 457.053 213.731 457.573 213.731H459.744C460.265 213.731 460.692 214.158 460.692 214.678V216.849C460.692 216.974 460.668 217.097 460.62 217.212C460.572 217.327 460.503 217.432 460.415 217.52C460.327 217.608 460.222 217.678 460.107 217.725C459.992 217.773 459.868 217.797 459.744 217.797ZM452.218 217.797H450.047C449.796 217.796 449.556 217.695 449.378 217.518C449.201 217.34 449.101 217.1 449.1 216.849V214.678C449.1 214.154 449.527 213.731 450.047 213.731H452.218C452.743 213.731 453.17 214.158 453.17 214.678V216.849C453.167 217.1 453.065 217.34 452.887 217.517C452.709 217.695 452.469 217.795 452.218 217.797Z" fill="#E1E4E5"/>
<path d="M389.01 263.234C392.577 276.546 406.26 284.446 419.573 280.879C432.885 277.312 440.785 263.629 437.218 250.317C433.651 237.005 419.968 229.104 406.655 232.671C393.343 236.238 385.443 249.922 389.01 263.234Z" fill="url(#paint3_linear_1235_19734)"/>
<path d="M395.897 261.388C398.445 270.897 408.219 276.54 417.727 273.992C427.236 271.444 432.879 261.67 430.331 252.162C427.783 242.653 418.009 237.011 408.501 239.559C398.992 242.106 393.35 251.88 395.897 261.388Z" fill="white"/>
<path d="M419.573 280.878C415.609 281.94 411.444 282.008 407.448 281.076C403.452 280.145 399.747 278.241 396.661 275.536C393.576 272.83 391.206 269.405 389.76 265.564C388.315 261.724 387.839 257.586 388.374 253.517C388.91 249.449 390.44 245.575 392.831 242.239C395.221 238.904 398.397 236.209 402.077 234.394C405.758 232.579 409.829 231.699 413.93 231.834C418.032 231.968 422.037 233.111 425.591 235.163L421.848 241.647C419.361 240.21 416.557 239.409 413.686 239.315C410.815 239.221 407.965 239.837 405.389 241.108C402.812 242.378 400.588 244.264 398.915 246.599C397.241 248.934 396.169 251.646 395.794 254.494C395.419 257.342 395.753 260.239 396.765 262.927C397.777 265.616 399.437 268.013 401.597 269.907C403.757 271.801 406.35 273.132 409.148 273.785C411.945 274.437 414.86 274.39 417.635 273.647L419.573 280.878Z" fill="#4F27AA"/>
</g>
<defs>
<linearGradient id="paint0_linear_1235_19734" x1="552.889" y1="766.422" x2="301.784" y2="-366.479" gradientUnits="userSpaceOnUse">
<stop stop-color="white"/>
<stop offset="1" stop-color="#EEEEEE"/>
</linearGradient>
<linearGradient id="paint1_linear_1235_19734" x1="588.574" y1="354.522" x2="472.192" y2="-168.452" gradientUnits="userSpaceOnUse">
<stop stop-color="white"/>
<stop offset="1" stop-color="#EEEEEE"/>
</linearGradient>
<linearGradient id="paint2_linear_1235_19734" x1="310.226" y1="628.197" x2="210.423" y2="166.659" gradientUnits="userSpaceOnUse">
<stop stop-color="white"/>
<stop offset="1" stop-color="#EEEEEE"/>
</linearGradient>
<linearGradient id="paint3_linear_1235_19734" x1="362.258" y1="271.504" x2="489.536" y2="235.807" gradientUnits="userSpaceOnUse">
<stop stop-color="white"/>
<stop offset="1" stop-color="#EEEEEE"/>
</linearGradient>
<clipPath id="clip0_1235_19734">
<rect width="900" height="600" fill="white"/>
</clipPath>
</defs>
</svg>
