<svg width="900" height="600" viewBox="0 0 900 600" fill="none" xmlns="http://www.w3.org/2000/svg">
<g clip-path="url(#clip0_1235_19801)">
<path d="M692.038 345.071C695.122 401.909 583.999 517.483 447.032 474.705C383.33 454.808 388.726 421.783 340.287 378.259C311.415 352.318 269.931 332.702 258.393 294.995C248.426 262.448 254.538 227.465 271.818 204.711C310.681 153.537 389.138 118.496 466.443 199.124C543.747 279.751 684.066 198.481 692.038 345.071Z" fill="url(#paint0_linear_1235_19801)"/>
<path d="M649.19 204.73C639.036 222.852 616.798 225.342 581.17 221.898C554.376 219.304 529.941 217.296 503.145 202.686C484.389 192.467 469.542 178.642 458.706 165.214C446.964 150.667 430.574 134.065 438.609 117.572C449.651 94.9152 513.503 75.8322 575.507 107.038C643.617 141.328 659.124 187.019 649.19 204.73Z" fill="url(#paint1_linear_1235_19801)"/>
<path d="M373.947 476.36C345.184 436.121 315.727 393.353 277.161 372.288C237.382 350.55 230.046 363.948 227.293 385.248C224.539 406.547 236.812 457.014 291.099 485.728C345.4 514.45 400.86 514.02 373.947 476.36Z" fill="url(#paint2_linear_1235_19801)"/>
<path d="M688.482 244.223C675.56 247.284 661.893 236.326 661.893 236.326C661.893 236.326 669.186 220.41 682.113 217.358C695.034 214.297 708.697 225.246 708.697 225.246C708.697 225.246 701.404 241.162 688.482 244.223Z" fill="url(#paint3_linear_1235_19801)"/>
<path d="M362.385 114.139C375.988 123.509 396.772 116.959 396.772 116.959C396.772 116.959 395.485 95.2186 381.872 85.8586C368.268 76.4886 347.494 83.0286 347.494 83.0286C347.494 83.0286 348.781 104.769 362.385 114.139Z" fill="url(#paint4_linear_1235_19801)"/>
<path d="M189.276 289.054C204.024 304.065 231.602 300.9 231.602 300.9C231.602 300.9 235.252 273.398 220.49 258.397C205.742 243.386 178.177 246.542 178.177 246.542C178.177 246.542 174.528 274.044 189.276 289.054Z" fill="url(#paint5_linear_1235_19801)"/>
<path d="M662.453 361.981C656.4 361.981 651.493 366.675 651.493 372.465C651.493 378.255 656.4 382.949 662.453 382.949C668.506 382.949 673.413 378.255 673.413 372.465C673.413 366.675 668.506 361.981 662.453 361.981Z" fill="#4F27AA"/>
<path d="M288.853 410.588C280.694 410.588 274.08 416.988 274.08 424.884C274.08 432.779 280.694 439.18 288.853 439.18C297.012 439.18 303.626 432.779 303.626 424.884C303.626 416.988 297.012 410.588 288.853 410.588Z" fill="#4F27AA"/>
<path d="M268.839 255.238C265.944 255.238 263.597 252.891 263.597 249.996C263.597 247.101 265.944 244.754 268.839 244.754C271.734 244.754 274.081 247.101 274.081 249.996C274.081 252.891 271.734 255.238 268.839 255.238Z" fill="#4F27AA"/>
<path d="M677.027 176.625C671.5 176.625 667.02 172.145 667.02 166.618C667.02 161.092 671.5 156.611 677.027 156.611C682.554 156.611 687.034 161.092 687.034 166.618C687.034 172.145 682.554 176.625 677.027 176.625Z" fill="#4F27AA"/>
<path d="M660 467C655.029 467 651 462.971 651 458C651 453.029 655.029 449 660 449C664.971 449 669 453.029 669 458C669 462.971 664.971 467 660 467Z" fill="#E1E4E5"/>
<path d="M227.068 348.934C221.839 348.934 217.601 344.695 217.601 339.467C217.601 334.239 221.839 330 227.068 330C232.296 330 236.535 334.239 236.535 339.467C236.535 344.695 232.296 348.934 227.068 348.934Z" fill="#E1E4E5"/>
<path d="M334.6 476.348C332.758 476.348 331.264 474.854 331.264 473.012C331.264 471.169 332.758 469.676 334.6 469.676C336.442 469.676 337.936 471.169 337.936 473.012C337.936 474.854 336.442 476.348 334.6 476.348Z" fill="#E1E4E5"/>
<path d="M589.545 140.87C586.913 140.87 584.78 138.736 584.78 136.105C584.78 133.473 586.913 131.34 589.545 131.34C592.177 131.34 594.31 133.473 594.31 136.105C594.31 138.736 592.177 140.87 589.545 140.87Z" fill="#E1E4E5"/>
<path d="M289.787 302.617C290.453 305.101 288.979 307.655 286.494 308.321C284.01 308.986 281.456 307.512 280.791 305.028C280.125 302.543 281.599 299.99 284.084 299.324C286.568 298.658 289.121 300.133 289.787 302.617Z" fill="#E1E4E5"/>
<path d="M290.759 204.726C287.338 204.726 284.564 201.952 284.564 198.531C284.564 195.11 287.338 192.336 290.759 192.336C294.181 192.336 296.954 195.11 296.954 198.531C296.954 201.952 294.181 204.726 290.759 204.726Z" fill="#E1E4E5"/>
<path d="M669.602 312.423C666.971 312.423 664.837 310.716 664.837 308.611C664.837 306.506 666.971 304.799 669.602 304.799C672.234 304.799 674.367 306.506 674.367 308.611C674.367 310.716 672.234 312.423 669.602 312.423Z" fill="#E1E4E5"/>
<path d="M478.532 99.8854C479.917 105.055 476.849 110.369 471.679 111.754C466.509 113.14 461.195 110.072 459.81 104.902C458.425 99.732 461.493 94.418 466.663 93.0328C471.833 91.6476 477.147 94.7156 478.532 99.8854Z" fill="#E1E4E5"/>
<path d="M725.359 286.153H725.483C726.221 296.613 734 296.774 734 296.774C734 296.774 725.422 296.941 725.422 309.027C725.422 296.941 716.845 296.774 716.845 296.774C716.845 296.774 724.62 296.613 725.359 286.153ZM328.772 141.822H328.987C330.258 160.126 343.655 160.408 343.655 160.408C343.655 160.408 328.882 160.701 328.882 181.851C328.882 160.701 314.11 160.408 314.11 160.408C314.11 160.408 327.501 160.126 328.772 141.822Z" fill="#E1E4E5"/>
<path d="M401.892 422.626C401.892 422.626 382.049 412.088 380.456 409.413C378.856 406.747 371.232 393.491 364.244 388.275C357.266 383.067 350.136 385.839 346.74 390.342L352.8 399.967C352.8 399.967 341.418 391.205 335.393 393.342C329.368 395.479 328.638 402.537 328.638 402.537C328.638 402.537 333.582 405.161 335.967 407.445C338.352 409.729 361.029 447.54 416.427 457.514C471.825 467.488 476.963 460.261 477.595 459.764C478.228 459.266 480.574 448.576 480.574 448.576L401.892 422.626Z" fill="#F8AE9D"/>
<path opacity="0.1" d="M401.892 422.626C401.892 422.626 382.049 412.088 380.456 409.413C378.856 406.747 371.232 393.491 364.244 388.275C357.266 383.067 350.136 385.839 346.74 390.342L352.8 399.967C352.8 399.967 341.418 391.205 335.393 393.342C329.368 395.479 328.638 402.537 328.638 402.537C328.638 402.537 333.582 405.161 335.967 407.445C338.352 409.729 361.029 447.54 416.427 457.514C471.825 467.488 476.963 460.261 477.595 459.764C478.228 459.266 480.574 448.576 480.574 448.576L401.892 422.626Z" fill="black"/>
<path fill-rule="evenodd" clip-rule="evenodd" d="M544.783 423.401C546.272 423.971 547.583 424.473 548.748 424.846C554.101 426.558 566.797 436.931 566.797 436.931L566.678 437.119C573.571 442.364 577.254 444.909 584.227 449.578C590.471 453.759 615.445 463.744 630.93 469.759C637.372 472.261 639.866 480.093 636.021 485.835L603.464 534.455C599.936 539.725 592.647 540.811 587.754 536.778C572.208 523.965 541.859 498.948 537.819 495.599C535.697 493.839 532.365 492.521 529.083 491.567C526.273 491.178 518.464 490.561 497.948 490.899C484.877 491.114 476.947 493.75 470.147 496.011C461.954 498.735 455.401 500.913 443.474 497.658C443.474 497.658 398.858 476.913 388.334 472.414C378.64 468.262 375.393 465.078 367.656 457.491C367.005 456.851 366.321 456.181 365.599 455.476C362.114 452.077 358.714 449.395 355.378 446.764C350.395 442.833 345.555 439.016 340.79 433.091C336.314 427.537 333.225 425.658 331.402 424.549C329.979 423.684 329.328 423.288 329.391 421.98C329.533 418.996 339.331 413.552 344.223 415.559C349.114 417.567 356.475 423.86 356.475 423.86C356.475 423.86 383.921 443.772 388.814 445.974C391.266 447.082 398.716 449.298 406.15 451.508C413.534 453.704 420.903 455.895 423.341 456.992C428.229 459.202 468.761 459.894 468.761 459.894C467.459 459.336 466.394 458.817 465.667 458.366C462.793 456.592 456.237 456.103 448.887 455.555C443.281 455.137 437.214 454.685 431.967 453.602C424.17 451.998 418.696 449.954 412.619 447.685C409.241 446.424 405.677 445.093 401.425 443.73C389.521 439.913 384.633 432.752 387.99 425.362C391.346 417.972 397.125 416.081 403.252 416.44C409.38 416.799 425.872 418.338 442.559 423.34C455.584 427.253 463.261 424.647 471.132 421.975C473.342 421.225 475.567 420.47 477.93 419.852C488.71 417.034 505.608 416.163 520.285 417.429C531.767 418.419 539.429 421.352 544.783 423.401Z" fill="#F8AE9D"/>
<path fill-rule="evenodd" clip-rule="evenodd" d="M425.862 131C421.986 133.872 418.543 137.606 415.792 142.2C403.089 163.409 394.015 186.378 388.571 210.102C368.489 207.392 348.999 203.274 330.714 197.749C350.274 162.907 384.954 137.693 425.862 131ZM326.081 206.79C345.166 212.672 365.536 217.047 386.533 219.916C381.084 249.268 381.083 279.372 386.529 308.725C365.853 311.552 345.786 315.839 326.956 321.587C318.422 303.955 313.637 284.169 313.637 263.266C313.637 243.089 318.095 223.953 326.081 206.79ZM331.745 330.587C350.947 363.58 383.83 387.629 422.622 394.961C420.057 392.564 417.75 389.731 415.793 386.463C403.086 365.248 394.01 342.271 388.566 318.54C368.862 321.2 349.728 325.216 331.745 330.587ZM398.547 317.314C403.784 339.679 412.392 361.324 424.372 381.324V381.325C435.169 399.359 460.18 399.359 470.977 381.325L470.978 381.324C482.957 361.324 491.565 339.679 496.802 317.314C464.466 313.728 430.881 313.728 398.547 317.314ZM506.783 318.54C501.339 342.271 492.264 365.248 479.557 386.463C477.6 389.73 475.294 392.561 472.731 394.958C511.518 387.621 544.395 363.572 563.594 330.582C545.613 325.213 526.482 321.199 506.783 318.54ZM568.382 321.581C549.554 315.836 529.491 311.551 508.82 308.725C514.267 279.371 514.265 249.266 508.816 219.913C529.808 217.043 550.173 212.667 569.252 206.785C577.239 223.949 581.699 243.087 581.699 263.266C581.699 284.167 576.915 303.95 568.382 321.581ZM498.879 307.484C465.184 303.671 430.163 303.671 396.471 307.484C391.103 278.959 391.104 249.682 396.475 221.157C430.167 224.969 465.185 224.968 498.874 221.154C504.246 249.68 504.247 278.958 498.879 307.484ZM398.552 211.328C430.886 214.912 464.466 214.911 496.797 211.325C491.559 188.968 482.953 167.331 470.978 147.338C460.164 129.301 435.168 129.306 424.372 147.337V147.338C412.396 167.332 403.79 188.97 398.552 211.328ZM506.778 210.098C526.855 207.387 546.34 203.269 564.619 197.743C545.059 162.906 510.384 137.696 469.482 131.001C473.358 133.873 476.803 137.606 479.556 142.198L479.557 142.2C492.259 163.408 501.333 186.376 506.778 210.098Z" fill="#4F27AA"/>
</g>
<defs>
<linearGradient id="paint0_linear_1235_19801" x1="559.222" y1="685.769" x2="351.36" y2="-252.034" gradientUnits="userSpaceOnUse">
<stop stop-color="white"/>
<stop offset="1" stop-color="#EEEEEE"/>
</linearGradient>
<linearGradient id="paint1_linear_1235_19801" x1="580.786" y1="322.178" x2="490.28" y2="-84.5168" gradientUnits="userSpaceOnUse">
<stop stop-color="white"/>
<stop offset="1" stop-color="#EEEEEE"/>
</linearGradient>
<linearGradient id="paint2_linear_1235_19801" x1="341.83" y1="608.455" x2="247.461" y2="172.047" gradientUnits="userSpaceOnUse">
<stop stop-color="white"/>
<stop offset="1" stop-color="#EEEEEE"/>
</linearGradient>
<linearGradient id="paint3_linear_1235_19801" x1="639.822" y1="251.834" x2="752.939" y2="198.394" gradientUnits="userSpaceOnUse">
<stop stop-color="white"/>
<stop offset="1" stop-color="#EEEEEE"/>
</linearGradient>
<linearGradient id="paint4_linear_1235_19801" x1="415.377" y1="144.884" x2="308.291" y2="31.9646" gradientUnits="userSpaceOnUse">
<stop stop-color="white"/>
<stop offset="1" stop-color="#EEEEEE"/>
</linearGradient>
<linearGradient id="paint5_linear_1235_19801" x1="248.118" y1="340.327" x2="141.498" y2="173.191" gradientUnits="userSpaceOnUse">
<stop stop-color="white"/>
<stop offset="1" stop-color="#EEEEEE"/>
</linearGradient>
<clipPath id="clip0_1235_19801">
<rect width="900" height="600" fill="white"/>
</clipPath>
</defs>
</svg>
