<svg width="900" height="600" viewBox="0 0 900 600" fill="none" xmlns="http://www.w3.org/2000/svg">
<g clip-path="url(#clip0_1235_19826)">
<path d="M241.47 207.346C290.338 146.044 394.183 120.397 463.605 212.292C522.491 290.236 548.145 294.696 592.903 309.524C622.456 319.321 670.815 332.594 642.635 408.409C605.753 507.637 423.295 534.44 323.532 497.401C228.129 461.986 152.781 318.586 241.47 207.346Z" fill="url(#paint0_linear_1235_19826)"/>
<path d="M451.447 166.218C474.352 206.414 517.732 258.182 589.956 279.184C662.179 300.174 675.042 257.186 653.271 207.213C631.501 157.24 578.079 113.245 511.794 103.248C445.509 93.251 432.646 133.227 451.447 166.218Z" fill="url(#paint1_linear_1235_19826)"/>
<path d="M747 198.464V424.743C747 441.274 733.6 454.643 717.075 454.643H183.485C166.959 454.643 153.56 441.274 153.56 424.743V198.464C153.56 181.929 166.963 168.52 183.485 168.52H717.075C733.597 168.52 747 181.929 747 198.464Z" fill="white" stroke="#E1E4E5" stroke-width="4"/>
<path d="M358.471 433.496H201.285C189.385 433.496 179.705 423.81 179.705 411.903V254.623C179.705 242.716 189.385 233.031 201.285 233.031H358.471C370.371 233.031 380.051 242.716 380.051 254.623V411.903C380.051 423.855 370.371 433.496 358.471 433.496Z" fill="#4F27AA"/>
<path d="M544.259 257.954H405.811C404.017 257.923 402.306 257.189 401.048 255.909C399.79 254.629 399.085 252.906 399.085 251.112C399.085 249.317 399.79 247.594 401.048 246.314C402.306 245.035 404.017 244.3 405.811 244.27H544.259C546.073 244.271 547.812 244.992 549.094 246.275C550.376 247.558 551.097 249.298 551.097 251.112C551.053 254.889 548.034 257.954 544.259 257.954ZM481.163 285.189H405.811C404.017 285.158 402.306 284.424 401.048 283.144C399.79 281.864 399.085 280.141 399.085 278.347C399.085 276.552 399.79 274.829 401.048 273.549C402.306 272.27 404.017 271.535 405.811 271.505H481.163C482.977 271.506 484.716 272.227 485.998 273.51C487.28 274.793 488.001 276.533 488.001 278.347C487.956 282.124 484.937 285.189 481.163 285.189ZM712.814 285.189H508.916C507.101 285.189 505.361 284.468 504.078 283.185C502.795 281.901 502.074 280.161 502.074 278.347C502.074 276.532 502.795 274.792 504.078 273.508C505.361 272.225 507.101 271.505 508.916 271.505H712.814C714.628 271.506 716.367 272.227 717.649 273.51C718.931 274.793 719.652 276.533 719.652 278.347C719.607 282.124 716.588 285.189 712.814 285.189ZM522.413 312.424H405.811C404.017 312.393 402.306 311.658 401.048 310.379C399.79 309.099 399.085 307.376 399.085 305.582C399.085 303.787 399.79 302.064 401.048 300.784C402.306 299.505 404.017 298.77 405.811 298.74H522.413C524.227 298.741 525.966 299.462 527.248 300.745C528.53 302.028 529.251 303.768 529.251 305.582C529.207 309.358 526.143 312.424 522.413 312.424ZM621.342 312.424H548.077C544.303 312.424 541.284 309.358 541.284 305.582C541.284 301.805 544.348 298.74 548.077 298.74H621.386C625.161 298.74 628.18 301.805 628.18 305.582C628.18 307.395 627.459 309.135 626.177 310.418C624.895 311.701 623.156 312.422 621.342 312.424ZM712.812 312.424H645.32C643.526 312.393 641.815 311.658 640.557 310.379C639.299 309.099 638.594 307.376 638.594 305.582C638.594 303.787 639.299 302.064 640.557 300.784C641.815 299.505 643.526 298.77 645.32 298.74H712.812C714.626 298.741 716.365 299.462 717.647 300.745C718.93 302.028 719.65 303.768 719.65 305.582C719.606 309.358 716.587 312.424 712.812 312.424ZM712.813 339.661H405.811C404.017 339.63 402.306 338.895 401.048 337.616C399.79 336.336 399.085 334.613 399.085 332.819C399.085 331.024 399.79 329.301 401.048 328.021C402.306 326.742 404.017 326.007 405.811 325.977H712.813C714.627 325.978 716.366 326.699 717.648 327.982C718.93 329.265 719.651 331.005 719.651 332.819C719.606 336.595 716.587 339.661 712.813 339.661ZM574.764 366.895H405.811C404.017 366.864 402.306 366.13 401.048 364.85C399.79 363.57 399.085 361.847 399.085 360.053C399.085 358.258 399.79 356.535 401.048 355.255C402.306 353.976 404.017 353.241 405.811 353.211H574.764C576.558 353.241 578.269 353.976 579.527 355.255C580.785 356.535 581.49 358.258 581.49 360.053C581.49 361.847 580.785 363.57 579.527 364.85C578.269 366.13 576.558 366.864 574.764 366.895ZM712.813 366.895H602.027C600.233 366.864 598.522 366.13 597.264 364.85C596.006 363.57 595.301 361.847 595.301 360.053C595.301 358.258 596.006 356.535 597.264 355.255C598.522 353.976 600.233 353.241 602.027 353.211H712.813C714.627 353.212 716.366 353.933 717.648 355.216C718.93 356.499 719.651 358.239 719.651 360.053C719.606 363.83 716.587 366.895 712.813 366.895ZM505.096 394.086H405.811C404.017 394.055 402.306 393.321 401.048 392.041C399.79 390.761 399.085 389.038 399.085 387.244C399.085 385.449 399.79 383.726 401.048 382.446C402.306 381.167 404.017 380.432 405.811 380.402H505.096C506.91 380.403 508.649 381.124 509.931 382.407C511.213 383.69 511.934 385.43 511.934 387.244C511.89 391.065 508.826 394.086 505.096 394.086ZM631.201 394.086H531.961C530.167 394.055 528.456 393.321 527.198 392.041C525.94 390.761 525.235 389.038 525.235 387.244C525.235 385.449 525.94 383.726 527.198 382.446C528.456 381.167 530.167 380.432 531.961 380.402H631.245C633.059 380.403 634.798 381.124 636.08 382.407C637.363 383.69 638.083 385.43 638.083 387.244C638.039 391.065 634.975 394.086 631.201 394.086ZM712.812 394.086H655.222C653.428 394.055 651.717 393.321 650.459 392.041C649.201 390.761 648.496 389.038 648.496 387.244C648.496 385.449 649.201 383.726 650.459 382.446C651.717 381.167 653.428 380.432 655.222 380.402H712.812C714.626 380.403 716.365 381.124 717.647 382.407C718.93 383.69 719.65 385.43 719.65 387.244C719.606 391.065 716.587 394.086 712.812 394.086ZM544.259 421.322H405.811C404.017 421.291 402.306 420.557 401.048 419.277C399.79 417.997 399.085 416.274 399.085 414.48C399.085 412.685 399.79 410.962 401.048 409.682C402.306 408.403 404.017 407.668 405.811 407.638H544.259C546.073 407.639 547.812 408.36 549.094 409.643C550.377 410.926 551.097 412.666 551.097 414.48C551.053 418.301 548.034 421.322 544.259 421.322ZM712.812 257.954H574.364C572.57 257.923 570.859 257.189 569.601 255.909C568.343 254.629 567.638 252.906 567.638 251.112C567.638 249.317 568.343 247.594 569.601 246.314C570.859 245.035 572.57 244.3 574.364 244.27H712.812C714.626 244.271 716.365 244.992 717.647 246.275C718.929 247.558 719.65 249.298 719.65 251.112C719.606 254.889 716.586 257.954 712.812 257.954Z" fill="#E1E4E5"/>
<path d="M747 198.464C747 199.45 746.806 200.426 746.429 201.337C746.052 202.248 745.499 203.076 744.801 203.773C744.104 204.47 743.276 205.023 742.365 205.4C741.454 205.778 740.478 205.972 739.492 205.972H161.067C160.081 205.972 159.105 205.777 158.194 205.4C157.283 205.023 156.456 204.47 155.758 203.772C155.061 203.075 154.508 202.248 154.131 201.337C153.754 200.426 153.56 199.449 153.56 198.464C153.56 181.929 166.963 168.52 183.485 168.52H717.075C733.597 168.52 747 181.929 747 198.464Z" fill="white" stroke="#E1E4E5" stroke-width="4"/>
<path d="M192.111 187.98C192.111 191.315 189.391 194.035 186.06 194.035C182.73 194.035 180.009 191.315 180.009 187.98C180.009 184.648 182.725 181.928 186.053 181.924C189.405 181.965 192.111 184.661 192.111 187.98ZM215.496 187.979C215.496 191.314 212.776 194.035 209.445 194.035C206.114 194.035 203.394 191.314 203.394 187.979C203.394 184.647 206.11 181.928 209.438 181.924C212.79 181.964 215.496 184.66 215.496 187.979ZM238.88 187.979C238.88 191.314 236.16 194.035 232.829 194.035C229.499 194.035 226.778 191.314 226.778 187.979C226.778 184.647 229.495 181.928 232.822 181.924C236.213 181.964 238.88 184.655 238.88 187.979Z" fill="#E1E4E5" stroke="#E1E4E5" stroke-width="2.729"/>
<path d="M245.804 355.473L223.096 332.765L245.804 310.057M313.93 310.057L336.638 332.765L313.93 355.473M288.68 298.705L269.752 366.829" stroke="white" stroke-width="16.182" stroke-linecap="round" stroke-linejoin="round"/>
</g>
<defs>
<linearGradient id="paint0_linear_1235_19826" x1="436.144" y1="715.826" x2="427.187" y2="-240.863" gradientUnits="userSpaceOnUse">
<stop stop-color="white"/>
<stop offset="1" stop-color="#EEEEEE"/>
</linearGradient>
<linearGradient id="paint1_linear_1235_19826" x1="557.898" y1="387.204" x2="553.192" y2="-97.3501" gradientUnits="userSpaceOnUse">
<stop stop-color="white"/>
<stop offset="1" stop-color="#EEEEEE"/>
</linearGradient>
<clipPath id="clip0_1235_19826">
<rect width="900" height="600" fill="white"/>
</clipPath>
</defs>
</svg>
