<svg width="900" height="600" viewBox="0 0 900 600" fill="none" xmlns="http://www.w3.org/2000/svg">
<g clip-path="url(#clip0_1235_19836)">
<path d="M650.005 351.914C652.783 403.089 552.732 507.147 429.412 468.632C372.057 450.717 376.915 420.983 333.303 381.795C307.307 358.439 269.956 340.778 259.568 306.828C250.594 277.524 256.097 246.026 271.656 225.539C306.646 179.465 377.286 147.915 446.888 220.509C516.49 293.103 642.828 219.93 650.005 351.914Z" fill="url(#paint0_linear_1235_19836)"/>
<path d="M606.591 220.828C597.422 237.191 577.343 239.439 545.173 236.329C520.98 233.986 498.917 232.174 474.722 218.982C457.787 209.755 444.382 197.272 434.597 185.147C423.995 172.013 409.196 157.022 416.451 142.13C426.421 121.672 484.075 104.442 540.06 132.619C601.559 163.58 615.56 204.835 606.591 220.828Z" fill="url(#paint1_linear_1235_19836)"/>
<path d="M332.909 483.021C310.421 451.561 287.39 418.124 257.239 401.654C226.138 384.659 220.402 395.134 218.25 411.786C216.097 428.439 225.692 467.896 268.135 490.346C310.59 512.802 353.951 512.465 332.909 483.021Z" fill="url(#paint2_linear_1235_19836)"/>
<path d="M658.329 270.506C642.414 274.276 625.582 260.779 625.582 260.779C625.582 260.779 634.564 241.177 650.484 237.419C666.399 233.649 683.226 247.134 683.226 247.134C683.226 247.134 674.243 266.736 658.329 270.506Z" fill="url(#paint3_linear_1235_19836)"/>
<path d="M684.711 417.558C699.139 427.496 721.182 420.549 721.182 420.549C721.182 420.549 719.817 397.492 705.379 387.563C690.951 377.625 668.918 384.562 668.918 384.562C668.918 384.562 670.282 407.62 684.711 417.558Z" fill="url(#paint4_linear_1235_19836)"/>
<path d="M195.003 315.199C210.645 331.119 239.896 327.763 239.896 327.763C239.896 327.763 243.766 298.594 228.11 282.683C212.468 266.763 183.232 270.11 183.232 270.11C183.232 270.11 179.361 299.279 195.003 315.199Z" fill="url(#paint5_linear_1235_19836)"/>
<path d="M673.84 320.817C667.42 320.817 662.215 325.795 662.215 331.936C662.215 338.077 667.42 343.055 673.84 343.055C680.26 343.055 685.465 338.077 685.465 331.936C685.465 325.795 680.26 320.817 673.84 320.817Z" fill="#4F27AA"/>
<path d="M282.359 411.592C273.706 411.592 266.691 418.38 266.691 426.754C266.691 435.128 273.706 441.916 282.359 441.916C291.012 441.916 298.027 435.128 298.027 426.754C298.027 418.38 291.012 411.592 282.359 411.592Z" fill="#4F27AA"/>
<path d="M273.224 232.785C266.922 232.785 261.814 227.676 261.814 221.375C261.814 215.073 266.922 209.965 273.224 209.965C279.525 209.965 284.634 215.073 284.634 221.375C284.634 227.676 279.525 232.785 273.224 232.785Z" fill="#4F27AA"/>
<path d="M547.614 206.228C541.752 206.228 537 201.476 537 195.614C537 189.752 541.752 185 547.614 185C553.476 185 558.228 189.752 558.228 195.614C558.228 201.476 553.476 206.228 547.614 206.228Z" fill="#4F27AA"/>
<path d="M650.548 441.727C645.276 441.727 641.002 437.453 641.002 432.181C641.002 426.909 645.276 422.635 650.548 422.635C655.82 422.635 660.094 426.909 660.094 432.181C660.094 437.453 655.82 441.727 650.548 441.727Z" fill="#E1E4E5"/>
<path d="M251.19 367.412C245.645 367.412 241.15 362.917 241.15 357.372C241.15 351.827 245.645 347.332 251.19 347.332C256.735 347.332 261.23 351.827 261.23 357.372C261.23 362.917 256.735 367.412 251.19 367.412Z" fill="#E1E4E5"/>
<path d="M361.355 480.968C358.623 480.968 356.408 478.753 356.408 476.021C356.408 473.289 358.623 471.074 361.355 471.074C364.087 471.074 366.302 473.289 366.302 476.021C366.302 478.753 364.087 480.968 361.355 480.968Z" fill="#E1E4E5"/>
<path d="M600.449 192.36C596.279 192.36 592.898 188.979 592.898 184.809C592.898 180.639 596.279 177.258 600.449 177.258C604.619 177.258 608 180.639 608 184.809C608 188.979 604.619 192.36 600.449 192.36Z" fill="#E1E4E5"/>
<path d="M283.348 297.077C284.054 299.712 282.49 302.42 279.856 303.126C277.221 303.832 274.513 302.269 273.807 299.634C273.101 296.999 274.664 294.291 277.299 293.585C279.934 292.879 282.642 294.443 283.348 297.077Z" fill="#E1E4E5"/>
<path d="M353.781 217.288C350.153 217.288 347.211 214.347 347.211 210.718C347.211 207.09 350.153 204.148 353.781 204.148C357.41 204.148 360.351 207.09 360.351 210.718C360.351 214.347 357.41 217.288 353.781 217.288Z" fill="#E1E4E5"/>
<path d="M594.087 319.357C591.296 319.357 589.033 317.547 589.033 315.314C589.033 313.082 591.296 311.271 594.087 311.271C596.878 311.271 599.141 313.082 599.141 315.314C599.141 317.547 596.878 319.357 594.087 319.357Z" fill="#E1E4E5"/>
<path d="M524.518 147.928C525.987 153.412 522.733 159.048 517.25 160.517C511.766 161.987 506.13 158.733 504.66 153.249C503.191 147.766 506.445 142.129 511.929 140.66C517.412 139.191 523.049 142.445 524.518 147.928Z" fill="#E1E4E5"/>
<path d="M711.547 274.149H711.679C712.462 285.243 720.712 285.414 720.712 285.414C720.712 285.414 711.614 285.591 711.614 298.409C711.614 285.591 702.517 285.414 702.517 285.414C702.517 285.414 710.764 285.243 711.547 274.149ZM330.944 121.42H331.172C332.52 140.834 346.729 141.133 346.729 141.133C346.729 141.133 331.061 141.444 331.061 163.875C331.061 141.444 315.393 141.133 315.393 141.133C315.393 141.133 329.595 140.834 330.944 121.42Z" fill="#E1E4E5"/>
<path d="M515.62 423.095C515.62 423.095 538.842 417.747 541.208 415.443C543.579 413.152 555.029 401.663 563.619 398.239C572.198 394.818 578.742 399.615 580.985 405.161L572.134 413.358C572.134 413.358 586.2 407.505 591.786 411.349C597.372 415.193 596.182 422.624 596.182 422.624C596.182 422.624 590.397 423.954 587.326 425.64C584.256 427.325 550.645 459.836 491.153 454.847C431.661 449.858 428.381 441.044 427.87 440.361C427.358 439.677 427.889 428.081 427.889 428.081L515.62 423.095Z" fill="#F8AE9D"/>
<path opacity="0.1" d="M515.62 423.095C515.62 423.095 538.842 417.747 541.208 415.443C543.579 413.152 555.029 401.663 563.619 398.239C572.198 394.818 578.742 399.615 580.985 405.161L572.134 413.358C572.134 413.358 586.2 407.505 591.786 411.349C597.372 415.193 596.182 422.624 596.182 422.624C596.182 422.624 590.397 423.954 587.326 425.64C584.256 427.325 550.645 459.836 491.153 454.847C431.661 449.858 428.381 441.044 427.87 440.361C427.358 439.677 427.889 428.081 427.889 428.081L515.62 423.095Z" fill="black"/>
<path fill-rule="evenodd" clip-rule="evenodd" d="M369.02 384.666C367.337 384.841 365.857 384.995 364.561 385.057C358.607 385.342 342.753 392.484 342.753 392.484L342.823 392.709C334.321 396.191 329.85 397.786 321.424 400.656C313.88 403.225 285.553 406.599 268.039 408.51C260.752 409.305 256.047 416.644 258.41 423.582L278.417 482.33C280.585 488.696 287.754 491.811 293.874 489.022C313.318 480.162 351.277 462.864 356.335 460.542C358.993 459.322 362.769 458.886 366.394 458.81C369.381 459.183 377.551 460.695 398.473 466.672C411.805 470.48 419.205 475.358 425.551 479.541C433.196 484.58 439.312 488.611 452.425 488.55C452.425 488.55 503.827 479.545 515.844 477.825C526.915 476.232 531.115 473.862 541.124 468.212C541.967 467.736 542.852 467.237 543.785 466.713C548.288 464.187 552.507 462.373 556.648 460.593C562.832 457.934 568.838 455.352 575.346 450.59C581.456 446.129 585.137 445.052 587.309 444.416C589.004 443.92 589.78 443.693 590.075 442.336C590.747 439.24 582.204 430.973 576.642 431.687C571.079 432.401 561.811 436.828 561.811 436.828C561.811 436.828 528.227 449.693 522.61 450.605C519.793 451.068 511.553 451.292 503.331 451.516C495.163 451.739 487.013 451.961 484.213 452.415C478.599 453.338 436.885 442.92 436.885 442.92C438.373 442.706 439.606 442.466 440.475 442.204C443.905 441.176 450.756 442.475 458.436 443.931C464.294 445.041 470.635 446.243 476.307 446.574C484.735 447.072 490.904 446.48 497.753 445.824C501.56 445.459 505.576 445.074 510.307 444.845C523.549 444.202 530.522 438.207 529.113 429.715C527.703 421.223 522.301 417.699 515.926 416.385C509.55 415.071 492.231 412.12 473.762 412.664C459.345 413.097 452.195 408.32 444.865 403.422C442.807 402.047 440.735 400.663 438.483 399.381C428.213 393.535 411.141 388.005 395.757 385.272C383.722 383.134 375.068 384.036 369.02 384.666Z" fill="#F8AE9D"/>
<path d="M572.135 320.942C577.744 359.62 550.899 395.52 512.114 401.156C473.356 406.793 437.376 380.001 431.739 341.323C426.13 302.671 453.002 266.744 491.76 261.108C530.545 255.472 566.526 282.264 572.135 320.942Z" fill="url(#paint6_linear_1235_19836)"/>
<path d="M555.44 323.373C559.714 352.836 539.253 380.215 509.71 384.516C480.167 388.79 452.734 368.382 448.46 338.919C444.187 309.43 464.648 282.051 494.19 277.777C523.733 273.476 551.139 293.884 555.44 323.373Z" fill="white"/>
<path d="M512.455 361.813L514.008 371.199L505.38 372.548L503.881 363.404C495.253 364.241 486.652 362.919 481.325 360.033L484.377 349.082C489.204 351.51 495.78 352.804 502.078 352.427L499.775 338.428C489.842 337.646 478.633 336.216 476.663 324.241C475.193 315.367 480.576 306.709 493.949 303.068L492.423 293.762L501.051 292.414L502.55 301.557C509.098 301.045 515.673 301.746 520.889 303.931L518.281 314.908C513.481 313.155 508.765 312.427 504.381 312.589L506.739 326.83C516.672 327.504 527.687 328.988 529.629 340.802C531.044 349.541 525.745 358.118 512.455 361.813ZM497.75 326.102L495.78 314.207C491.368 315.933 489.981 318.631 490.425 321.409C490.925 324.322 493.755 325.535 497.75 326.102ZM515.895 344.011C515.423 341.071 512.649 339.885 508.737 339.183L510.651 350.754C514.813 349.163 516.339 346.682 515.895 344.011Z" fill="#E1E4E5"/>
<path d="M398.638 273.985C402.748 302.321 383.081 328.622 354.667 332.751C326.272 336.88 299.912 317.252 295.783 288.916C291.674 260.6 311.36 234.279 339.755 230.15C368.169 226.021 394.529 245.649 398.638 273.985Z" fill="url(#paint7_linear_1235_19836)"/>
<path d="M386.407 275.767C389.538 297.352 374.548 317.41 352.905 320.561C331.262 323.692 311.164 308.741 308.033 287.156C304.902 265.552 319.892 245.494 341.535 242.363C363.179 239.212 383.257 254.163 386.407 275.767Z" fill="white"/>
<path d="M354.916 303.929L356.054 310.805L349.733 311.793L348.635 305.095C342.313 305.707 336.012 304.739 332.11 302.625L334.346 294.602C337.882 296.38 342.7 297.329 347.314 297.052L345.627 286.797C338.35 286.224 330.138 285.176 328.695 276.403C327.618 269.902 331.561 263.559 341.358 260.891L340.24 254.074L346.562 253.086L347.659 259.785C352.456 259.409 357.274 259.923 361.095 261.524L359.184 269.566C355.668 268.281 352.212 267.748 349.001 267.866L350.729 278.3C358.005 278.794 366.075 279.881 367.498 288.536C368.535 294.938 364.652 301.222 354.916 303.929ZM344.143 277.766L342.7 269.052C339.468 270.317 338.451 272.293 338.777 274.328C339.143 276.462 341.216 277.351 344.143 277.766ZM357.436 290.887C357.091 288.733 355.058 287.864 352.192 287.35L353.595 295.827C356.644 294.661 357.762 292.843 357.436 290.887Z" fill="#E1E4E5"/>
<path d="M501.72 193.022C506.385 225.192 484.057 255.051 451.798 259.739C419.562 264.427 389.636 242.143 384.948 209.973C380.282 177.825 402.632 147.944 434.869 143.256C467.128 138.568 497.054 160.852 501.72 193.022Z" fill="url(#paint8_linear_1235_19836)"/>
<path d="M487.833 195.042C491.388 219.547 474.37 242.32 449.798 245.896C425.226 249.451 402.409 232.477 398.855 207.972C395.3 183.445 412.318 160.673 436.89 157.118C461.462 153.541 484.256 170.515 487.833 195.042Z" fill="white"/>
<path d="M452.082 227.015L453.374 234.822L446.197 235.943L444.951 228.338C437.774 229.034 430.62 227.935 426.19 225.534L428.728 216.426C432.743 218.445 438.213 219.522 443.451 219.208L441.536 207.565C433.274 206.914 423.951 205.725 422.313 195.765C421.09 188.384 425.567 181.183 436.69 178.154L435.42 170.415L442.597 169.293L443.843 176.898C449.289 176.472 454.759 177.055 459.097 178.872L456.928 188.003C452.935 186.544 449.012 185.939 445.366 186.073L447.328 197.918C455.589 198.479 464.751 199.713 466.366 209.539C467.543 216.808 463.135 223.941 452.082 227.015ZM439.851 197.313L438.213 187.419C434.543 188.855 433.39 191.099 433.759 193.409C434.174 195.832 436.528 196.842 439.851 197.313ZM454.943 212.209C454.551 209.763 452.243 208.776 448.989 208.193L450.582 217.817C454.043 216.493 455.312 214.43 454.943 212.209Z" fill="#E1E4E5"/>
</g>
<defs>
<linearGradient id="paint0_linear_1235_19836" x1="530.423" y1="658.666" x2="343.272" y2="-185.696" gradientUnits="userSpaceOnUse">
<stop stop-color="white"/>
<stop offset="1" stop-color="#EEEEEE"/>
</linearGradient>
<linearGradient id="paint1_linear_1235_19836" x1="544.826" y1="326.874" x2="463.106" y2="-40.342" gradientUnits="userSpaceOnUse">
<stop stop-color="white"/>
<stop offset="1" stop-color="#EEEEEE"/>
</linearGradient>
<linearGradient id="paint2_linear_1235_19836" x1="307.799" y1="586.298" x2="234.018" y2="245.099" gradientUnits="userSpaceOnUse">
<stop stop-color="white"/>
<stop offset="1" stop-color="#EEEEEE"/>
</linearGradient>
<linearGradient id="paint3_linear_1235_19836" x1="598.398" y1="279.88" x2="737.715" y2="214.062" gradientUnits="userSpaceOnUse">
<stop stop-color="white"/>
<stop offset="1" stop-color="#EEEEEE"/>
</linearGradient>
<linearGradient id="paint4_linear_1235_19836" x1="740.916" y1="450.167" x2="627.339" y2="330.402" gradientUnits="userSpaceOnUse">
<stop stop-color="white"/>
<stop offset="1" stop-color="#EEEEEE"/>
</linearGradient>
<linearGradient id="paint5_linear_1235_19836" x1="257.412" y1="369.58" x2="144.329" y2="192.313" gradientUnits="userSpaceOnUse">
<stop stop-color="white"/>
<stop offset="1" stop-color="#EEEEEE"/>
</linearGradient>
<linearGradient id="paint6_linear_1235_19836" x1="504.963" y1="481.264" x2="500.608" y2="106.381" gradientUnits="userSpaceOnUse">
<stop stop-color="white"/>
<stop offset="1" stop-color="#EEEEEE"/>
</linearGradient>
<linearGradient id="paint7_linear_1235_19836" x1="349.427" y1="391.438" x2="346.237" y2="116.796" gradientUnits="userSpaceOnUse">
<stop stop-color="white"/>
<stop offset="1" stop-color="#EEEEEE"/>
</linearGradient>
<linearGradient id="paint8_linear_1235_19836" x1="445.85" y1="326.367" x2="442.228" y2="14.5646" gradientUnits="userSpaceOnUse">
<stop stop-color="white"/>
<stop offset="1" stop-color="#EEEEEE"/>
</linearGradient>
<clipPath id="clip0_1235_19836">
<rect width="900" height="600" fill="white"/>
</clipPath>
</defs>
</svg>
