<svg width="900" height="600" viewBox="0 0 900 600" fill="none" xmlns="http://www.w3.org/2000/svg">
<g clip-path="url(#clip0_1235_17948)">
<path d="M595.217 171.903C578.639 117.792 435.347 47.9527 322.142 134.772C269.492 175.152 285.834 204.132 255.52 261.341C237.45 295.439 205.443 327.951 207.581 367.098C209.42 400.891 227.101 431.452 251.02 446.776C304.815 481.239 390.045 487.089 434.602 385.364C479.159 283.64 637.959 311.464 595.217 171.903Z" fill="url(#paint0_linear_1235_17948)"/>
<path d="M722.095 300.864C699.38 277.557 664.716 282.806 612.196 302.465C572.699 317.257 536.536 330.203 501.908 363.179C477.669 386.248 460.807 413.191 449.853 437.905C437.982 464.681 419.911 496.451 438.758 518.153C464.655 547.964 569.023 550.949 650.201 478.583C739.37 399.073 744.309 323.64 722.095 300.864Z" fill="url(#paint1_linear_1235_17948)"/>
<path fill-rule="evenodd" clip-rule="evenodd" d="M646.557 170.997H489.963C486.013 170.995 482.123 170.026 478.635 168.173C475.146 166.321 472.164 163.641 469.95 160.37L435.95 110.27C433.736 107.006 430.757 104.334 427.273 102.486C423.789 100.638 419.905 99.6703 415.961 99.668H307.766C281.025 99.668 259.367 121.382 259.367 148.191V439.331C259.367 466.141 281.025 487.855 307.766 487.855H646.557C673.298 487.855 694.956 466.141 694.956 439.331V219.52C694.956 192.735 673.298 170.997 646.557 170.997Z" fill="#4F27AA"/>
<path d="M476.978 384.196V319.104" stroke="white" stroke-width="40.893" stroke-linecap="round" stroke-linejoin="round"/>
<path fill-rule="evenodd" clip-rule="evenodd" d="M476.86 270.561C463.754 270.561 453.117 281.198 453.212 294.305C453.212 307.411 463.849 318.048 476.955 318.048C490.061 318.048 500.698 307.411 500.698 294.305C500.698 281.198 490.061 270.561 476.86 270.561Z" fill="white"/>
<path d="M476.86 270.561C463.754 270.561 453.117 281.198 453.212 294.305C453.212 307.411 463.849 318.048 476.955 318.048C490.061 318.048 500.698 307.411 500.698 294.305C500.698 281.198 490.061 270.561 476.86 270.561" stroke="white" stroke-width="40.893" stroke-linecap="round" stroke-linejoin="round"/>
<path fill-rule="evenodd" clip-rule="evenodd" d="M726.526 177.508V181.32H730.334C731.101 181.324 731.836 181.63 732.379 182.173C732.921 182.716 733.227 183.452 733.23 184.219C733.227 184.986 732.921 185.721 732.378 186.264C731.836 186.807 731.101 187.113 730.334 187.117H726.526V190.929C726.523 191.696 726.217 192.431 725.674 192.974C725.132 193.517 724.397 193.823 723.63 193.827C722.863 193.823 722.128 193.517 721.586 192.974C721.043 192.431 720.737 191.696 720.734 190.929V187.133H716.909C716.142 187.129 715.407 186.823 714.864 186.28C714.322 185.737 714.016 185.002 714.013 184.234C714.016 183.467 714.322 182.732 714.865 182.189C715.407 181.646 716.142 181.34 716.909 181.336H720.718V177.508C720.722 176.738 721.03 176.001 721.576 175.458C722.122 174.915 722.86 174.61 723.63 174.61C724.397 174.614 725.132 174.92 725.674 175.463C726.217 176.006 726.523 176.741 726.526 177.508ZM699.092 137.62V142.957H704.678C707.009 142.957 708.925 144.787 708.925 147.015C708.925 149.242 707.009 151.072 704.678 151.072H699.092V156.409C699.092 158.636 697.176 160.467 694.844 160.467C692.513 160.467 690.597 158.636 690.597 156.409V151.094H684.988C682.656 151.094 680.74 149.264 680.74 147.037C680.74 144.809 682.656 142.979 684.988 142.979H690.574V137.62C690.574 135.393 692.49 133.563 694.844 133.563C697.176 133.563 699.092 135.393 699.092 137.62ZM649.173 115.097V123.229H657.299C660.69 123.229 663.477 126.018 663.477 129.412C663.477 132.806 660.69 135.595 657.299 135.595H649.173V143.728C649.173 147.122 646.386 149.911 642.995 149.911C639.604 149.911 636.817 147.122 636.817 143.728V135.629H628.658C625.267 135.629 622.48 132.84 622.48 129.446C622.48 126.052 625.267 123.263 628.658 123.263H636.783V115.097C636.783 111.703 639.57 108.914 642.995 108.914C646.386 108.914 649.173 111.703 649.173 115.097Z" fill="#E1E4E5"/>
<path d="M731.157 235.519H714.351M739 219.273H714.351M728.917 251.765H714.351" stroke="#E1E4E5" stroke-width="5.028" stroke-linecap="round" stroke-linejoin="round"/>
<path d="M222.214 240.593C226.459 240.593 229.901 244.034 229.901 248.28C229.901 252.525 226.459 255.967 222.214 255.967C217.968 255.967 214.527 252.525 214.527 248.28C214.527 244.034 217.968 240.593 222.214 240.593Z" fill="#E1E4E5"/>
<path d="M168.828 175.407C177.92 206.87 218.026 222.936 218.026 222.936C218.026 222.936 243.366 187.976 234.248 156.514C225.156 125.051 185.076 108.982 185.076 108.982C185.076 108.982 159.735 143.943 168.828 175.407Z" fill="url(#paint2_linear_1235_17948)"/>
<path d="M372.063 134.462L390.803 161.876C391.485 162.874 391.229 164.237 390.231 164.919C389.233 165.602 387.87 165.345 387.188 164.347L368.448 136.933C367.765 135.934 368.021 134.572 369.019 133.889C370.018 133.207 371.38 133.463 372.063 134.462Z" fill="white"/>
<path d="M347.235 134.462L365.975 161.876C366.658 162.874 366.402 164.237 365.403 164.919C364.405 165.602 363.043 165.345 362.36 164.347L343.62 136.933C342.938 135.934 343.194 134.572 344.192 133.889C345.19 133.207 346.553 133.463 347.235 134.462Z" fill="white"/>
<path d="M322.409 134.462L341.149 161.876C341.831 162.874 341.576 164.237 340.577 164.919C339.579 165.602 338.216 165.345 337.534 164.347L318.794 136.933C318.111 135.934 318.367 134.572 319.366 133.889C320.364 133.207 321.727 133.463 322.409 134.462Z" fill="white"/>
<path fill-rule="evenodd" clip-rule="evenodd" d="M584.115 419.845H588.961C590.133 419.845 591.076 420.798 591.076 421.96V426.806C591.075 427.367 590.852 427.904 590.456 428.301C590.059 428.698 589.522 428.921 588.961 428.921H584.115C583.555 428.919 583.018 428.695 582.622 428.299C582.226 427.903 582.002 427.366 582 426.806V421.96C581.999 421.682 582.054 421.407 582.16 421.15C582.266 420.893 582.421 420.66 582.618 420.463C582.815 420.267 583.048 420.111 583.305 420.005C583.562 419.899 583.837 419.844 584.115 419.845ZM600.914 419.845H605.76C606.922 419.845 607.875 420.798 607.875 421.96V426.806C607.874 427.367 607.651 427.904 607.255 428.301C606.858 428.698 606.321 428.921 605.76 428.921H600.914C600.354 428.919 599.817 428.695 599.421 428.299C599.025 427.903 598.801 427.366 598.799 426.806V421.96C598.799 420.798 599.752 419.845 600.914 419.845ZM617.726 419.845H622.571C623.733 419.845 624.687 420.798 624.687 421.96V426.806C624.686 427.367 624.463 427.905 624.066 428.301C623.67 428.698 623.132 428.921 622.571 428.921H617.726C617.166 428.919 616.629 428.695 616.233 428.299C615.837 427.903 615.613 427.366 615.611 426.806V421.96C615.61 421.682 615.665 421.407 615.771 421.15C615.877 420.893 616.032 420.66 616.229 420.463C616.426 420.267 616.659 420.111 616.916 420.005C617.173 419.899 617.448 419.844 617.726 419.845ZM634.527 419.845H639.373C640.535 419.845 641.488 420.798 641.488 421.96V426.806C641.487 427.367 641.264 427.904 640.868 428.301C640.471 428.698 639.934 428.921 639.373 428.921H634.527C633.965 428.921 633.426 428.698 633.028 428.302C632.63 427.906 632.405 427.368 632.402 426.806V421.96C632.408 421.399 632.634 420.864 633.032 420.468C633.429 420.072 633.966 419.849 634.527 419.845ZM651.329 419.845H656.175C657.347 419.845 658.3 420.798 658.3 421.96V426.806C658.299 427.084 658.244 427.36 658.137 427.617C658.03 427.874 657.873 428.107 657.676 428.304C657.478 428.5 657.244 428.656 656.987 428.762C656.729 428.868 656.453 428.922 656.175 428.921H651.329C650.769 428.919 650.232 428.695 649.836 428.299C649.44 427.903 649.216 427.366 649.214 426.806V421.96C649.214 420.798 650.167 419.845 651.329 419.845ZM601.532 438.165H606.378C607.54 438.165 608.493 439.118 608.493 440.28V445.136C608.491 445.696 608.267 446.233 607.871 446.629C607.475 447.025 606.938 447.249 606.378 447.251H601.532C600.971 447.251 600.434 447.028 600.037 446.631C599.641 446.234 599.418 445.697 599.417 445.136V440.29C599.415 440.011 599.469 439.735 599.575 439.477C599.68 439.219 599.836 438.985 600.032 438.787C600.229 438.59 600.463 438.433 600.72 438.326C600.977 438.22 601.253 438.165 601.532 438.165ZM618.332 438.165H623.177C624.339 438.165 625.292 439.118 625.292 440.28V445.136C625.29 445.696 625.066 446.233 624.67 446.629C624.274 447.025 623.737 447.249 623.177 447.251H618.332C617.772 447.249 617.235 447.025 616.839 446.629C616.443 446.233 616.219 445.696 616.217 445.136V440.29C616.215 440.011 616.269 439.735 616.374 439.477C616.48 439.219 616.635 438.985 616.832 438.787C617.029 438.59 617.262 438.433 617.52 438.326C617.777 438.219 618.053 438.165 618.332 438.165ZM635.133 438.165H639.979C641.151 438.165 642.104 439.118 642.104 440.28V445.136C642.101 445.698 641.876 446.236 641.478 446.632C641.08 447.029 640.541 447.251 639.979 447.251H635.133C634.573 447.249 634.036 447.025 633.64 446.629C633.244 446.233 633.02 445.696 633.018 445.136V440.29C633.018 439.118 633.971 438.165 635.133 438.165ZM617.726 400.164H622.571C623.733 400.164 624.687 401.117 624.687 402.279V407.124C624.686 407.685 624.463 408.223 624.067 408.62C623.67 409.016 623.132 409.24 622.571 409.24H617.726C617.166 409.238 616.629 409.014 616.233 408.618C615.837 408.221 615.613 407.684 615.611 407.124V402.279C615.61 402.001 615.665 401.726 615.771 401.469C615.877 401.212 616.032 400.979 616.229 400.782C616.426 400.586 616.659 400.43 616.916 400.324C617.173 400.218 617.448 400.163 617.726 400.164ZM634.527 400.164H639.373C640.535 400.164 641.488 401.117 641.488 402.279V407.124C641.488 407.685 641.265 408.223 640.868 408.619C640.472 409.016 639.934 409.239 639.373 409.239H634.527C633.965 409.239 633.426 409.016 633.028 408.62C632.63 408.224 632.405 407.686 632.402 407.124V402.279C632.408 401.718 632.634 401.183 633.032 400.787C633.429 400.391 633.966 400.168 634.527 400.164Z" fill="white"/>
<path d="M210.092 373.326H209.864C208.514 391.257 194.29 391.533 194.29 391.533C194.29 391.533 209.975 391.82 209.975 412.539C209.975 391.82 225.661 391.533 225.661 391.533C225.661 391.533 211.442 391.257 210.092 373.326Z" fill="#E1E4E5"/>
</g>
<defs>
<linearGradient id="paint0_linear_1235_17948" x1="354.609" y1="-100.648" x2="481.628" y2="845.887" gradientUnits="userSpaceOnUse">
<stop stop-color="white"/>
<stop offset="1" stop-color="#EEEEEE"/>
</linearGradient>
<linearGradient id="paint1_linear_1235_17948" x1="570.951" y1="150.865" x2="598.899" y2="803.027" gradientUnits="userSpaceOnUse">
<stop stop-color="white"/>
<stop offset="1" stop-color="#EEEEEE"/>
</linearGradient>
<linearGradient id="paint2_linear_1235_17948" x1="211.478" y1="289.142" x2="189.106" y2="-18.5926" gradientUnits="userSpaceOnUse">
<stop stop-color="white"/>
<stop offset="1" stop-color="#EEEEEE"/>
</linearGradient>
<clipPath id="clip0_1235_17948">
<rect width="900" height="600" fill="white"/>
</clipPath>
</defs>
</svg>
