<svg width="900" height="600" viewBox="0 0 900 600" fill="none" xmlns="http://www.w3.org/2000/svg">
<g clip-path="url(#clip0_1235_19869)">
<path d="M460.593 440.358C545.791 440.358 614.858 371.557 614.858 286.687C614.858 201.816 545.791 133.016 460.593 133.016C375.395 133.016 306.328 201.816 306.328 286.687C306.328 371.557 375.395 440.358 460.593 440.358Z" fill="url(#paint0_linear_1235_19869)"/>
<path d="M630.751 404.556C630.751 410.691 626.012 415.534 620.324 415.534C614.635 415.534 609.896 410.691 609.896 404.556C609.896 398.421 614.635 393.578 620.324 393.578C626.012 393.578 630.751 398.421 630.751 404.556Z" stroke="#E1E4E5" stroke-width="3.38"/>
<path d="M281.586 205.433C286.599 205.433 290.663 201.369 290.663 196.356C290.663 191.343 286.599 187.279 281.586 187.279C276.573 187.279 272.509 191.343 272.509 196.356C272.509 201.369 276.573 205.433 281.586 205.433Z" stroke="#E1E4E5" stroke-width="2.777"/>
<path d="M465.551 477.813C471.331 477.813 476.016 472.881 476.016 466.797C476.016 460.713 471.331 455.781 465.551 455.781C459.771 455.781 455.086 460.713 455.086 466.797C455.086 472.881 459.771 477.813 465.551 477.813Z" fill="#E1E4E5"/>
<path d="M465 146.234C471.692 146.234 477.117 140.809 477.117 134.117C477.117 127.425 471.692 122 465 122C458.308 122 452.883 127.425 452.883 134.117C452.883 140.809 458.308 146.234 465 146.234Z" fill="#E1E4E5"/>
<path d="M321.707 416.042C321.695 416.238 321.628 416.426 321.513 416.584C321.398 416.743 321.239 416.865 321.057 416.936L311.657 420.611C311.497 420.674 311.324 420.695 311.153 420.673C310.983 420.651 310.821 420.587 310.682 420.486C310.542 420.385 310.431 420.25 310.358 420.095C310.284 419.939 310.251 419.768 310.261 419.596L310.856 409.521C310.88 409.122 311.134 408.772 311.506 408.627L320.904 404.955C321.064 404.893 321.237 404.871 321.408 404.893C321.578 404.915 321.741 404.979 321.88 405.08C322.019 405.181 322.13 405.316 322.204 405.471C322.277 405.626 322.31 405.798 322.3 405.969L321.707 416.042V416.042Z" stroke="#E1E4E5" stroke-width="3.305" stroke-miterlimit="10"/>
<path d="M320.264 272.503V374.977C320.264 383.775 314.164 390.908 306.641 390.908H166.993C164.371 390.908 161.799 391.797 159.582 393.463L139.034 409.034C129.973 415.902 118 408.296 118 395.657V272.484C118 263.686 124.1 256.553 131.623 256.553H306.624C314.164 256.572 320.264 263.705 320.264 272.503Z" fill="#4F27AA"/>
<path d="M161.065 330.673H277.417C279.169 330.672 280.849 329.975 282.088 328.736C283.327 327.497 284.023 325.817 284.025 324.065C284.023 322.314 283.326 320.634 282.087 319.395C280.849 318.157 279.169 317.46 277.417 317.458H161.065C159.313 317.46 157.634 318.157 156.395 319.395C155.156 320.634 154.46 322.314 154.458 324.065C154.46 325.817 155.156 327.497 156.395 328.736C157.634 329.975 159.313 330.672 161.065 330.673ZM161.456 302.282H213.914C215.666 302.281 217.346 301.584 218.585 300.345C219.824 299.106 220.521 297.427 220.523 295.674C220.521 293.922 219.824 292.242 218.585 291.004C217.346 289.765 215.666 289.068 213.914 289.066H161.456C159.704 289.068 158.024 289.765 156.786 291.004C155.547 292.243 154.85 293.922 154.848 295.674C154.85 297.426 155.547 299.106 156.786 300.345C158.024 301.584 159.704 302.281 161.456 302.282ZM277.417 346.723H161.065C159.313 346.725 157.634 347.422 156.395 348.661C155.156 349.9 154.46 351.58 154.458 353.331C154.46 355.083 155.156 356.763 156.395 358.002C157.634 359.241 159.313 359.938 161.065 359.939H277.417C279.169 359.938 280.849 359.241 282.088 358.002C283.326 356.763 284.023 355.083 284.025 353.331C284.023 351.579 283.326 349.9 282.088 348.661C280.849 347.422 279.169 346.725 277.417 346.723Z" fill="white"/>
<path fill-rule="evenodd" clip-rule="evenodd" d="M490.292 391.078H554.433C568.608 391.078 580.089 379.597 580.089 365.422V211.484C580.089 197.309 568.608 185.828 554.433 185.828H374.839C360.664 185.828 349.183 197.309 349.183 211.484V365.422C349.183 379.597 360.664 391.078 374.839 391.078H438.98L464.636 416.735L490.292 391.078Z" fill="#4F27AA"/>
<path d="M466.905 286.184C467.204 286.482 467.441 286.835 467.603 287.225C467.765 287.615 467.848 288.032 467.848 288.454C467.848 288.876 467.765 289.294 467.603 289.684C467.441 290.073 467.204 290.427 466.905 290.725C466.607 291.024 466.253 291.261 465.864 291.423C465.474 291.585 465.056 291.668 464.634 291.668C464.212 291.668 463.795 291.585 463.405 291.423C463.015 291.261 462.662 291.024 462.364 290.725C462.065 290.427 461.828 290.073 461.666 289.684C461.504 289.294 461.421 288.876 461.421 288.454C461.421 288.032 461.504 287.615 461.666 287.225C461.828 286.836 462.065 286.482 462.364 286.184C462.968 285.586 463.784 285.25 464.634 285.25C465.485 285.25 466.301 285.586 466.905 286.184M518.22 286.184C518.519 286.482 518.756 286.836 518.918 287.225C519.08 287.615 519.163 288.032 519.163 288.454C519.163 288.876 519.08 289.294 518.918 289.684C518.756 290.073 518.519 290.427 518.22 290.725C517.922 291.024 517.568 291.261 517.179 291.423C516.789 291.585 516.371 291.668 515.949 291.668C515.527 291.668 515.11 291.585 514.72 291.423C514.33 291.261 513.977 291.024 513.679 290.725C513.38 290.427 513.143 290.073 512.981 289.684C512.819 289.294 512.736 288.876 512.736 288.454C512.736 288.032 512.819 287.615 512.981 287.225C513.143 286.835 513.38 286.482 513.679 286.184C514.283 285.586 515.099 285.25 515.949 285.25C516.8 285.25 517.616 285.586 518.22 286.184ZM415.593 286.184C415.892 286.482 416.129 286.836 416.291 287.225C416.452 287.615 416.536 288.032 416.536 288.454C416.536 288.876 416.452 289.294 416.291 289.684C416.129 290.073 415.892 290.427 415.593 290.725C415.295 291.024 414.941 291.261 414.552 291.423C414.162 291.585 413.744 291.668 413.322 291.668C412.9 291.668 412.483 291.585 412.093 291.423C411.703 291.261 411.35 291.024 411.052 290.725C410.753 290.427 410.516 290.073 410.354 289.684C410.192 289.294 410.109 288.876 410.109 288.454C410.109 288.032 410.192 287.615 410.354 287.225C410.516 286.836 410.753 286.482 411.052 286.184C411.656 285.586 412.472 285.25 413.322 285.25C414.173 285.25 414.989 285.586 415.593 286.184Z" stroke="white" stroke-width="18.24" stroke-linecap="round" stroke-linejoin="round"/>
<path fill-rule="evenodd" clip-rule="evenodd" d="M609.308 361.444V260.104C609.308 255.02 613.433 250.895 618.516 250.895H765.853C770.936 250.895 775.062 255.02 775.062 260.104V398.232L720.648 371.159L618.47 370.652C613.405 370.625 609.308 366.509 609.308 361.444Z" fill="#4F27AA"/>
<path d="M693.813 309.121C694.033 309.334 694.208 309.588 694.328 309.869C694.448 310.15 694.512 310.452 694.514 310.757C694.517 311.063 694.458 311.366 694.342 311.649C694.227 311.931 694.056 312.188 693.839 312.404C693.623 312.62 693.366 312.791 693.084 312.907C692.801 313.023 692.498 313.081 692.192 313.079C691.887 313.076 691.584 313.013 691.304 312.892C691.023 312.772 690.769 312.597 690.556 312.377C690.136 311.943 689.903 311.361 689.908 310.757C689.913 310.152 690.156 309.574 690.583 309.147C691.01 308.72 691.589 308.478 692.193 308.473C692.797 308.468 693.379 308.701 693.813 309.121M652.375 309.121C652.595 309.334 652.77 309.588 652.89 309.869C653.01 310.15 653.074 310.452 653.076 310.757C653.079 311.063 653.02 311.366 652.904 311.649C652.789 311.931 652.618 312.188 652.401 312.404C652.185 312.62 651.928 312.791 651.646 312.907C651.363 313.023 651.06 313.081 650.754 313.079C650.448 313.076 650.146 313.013 649.866 312.892C649.585 312.772 649.331 312.597 649.118 312.377C648.698 311.943 648.465 311.361 648.47 310.757C648.475 310.152 648.718 309.574 649.145 309.147C649.572 308.72 650.151 308.478 650.755 308.473C651.359 308.468 651.941 308.701 652.375 309.121M735.252 309.121C735.472 309.334 735.647 309.588 735.767 309.869C735.887 310.15 735.951 310.452 735.953 310.757C735.956 311.063 735.897 311.366 735.781 311.649C735.665 311.931 735.495 312.188 735.278 312.404C735.062 312.62 734.805 312.791 734.523 312.907C734.24 313.023 733.937 313.081 733.631 313.079C733.325 313.076 733.023 313.013 732.743 312.892C732.462 312.772 732.208 312.597 731.995 312.377C731.575 311.943 731.342 311.361 731.347 310.757C731.352 310.152 731.595 309.574 732.022 309.147C732.449 308.72 733.028 308.478 733.632 308.473C734.236 308.468 734.818 308.701 735.252 309.121" stroke="white" stroke-width="13.093" stroke-linecap="round" stroke-linejoin="round"/>
<path d="M271.121 243.176C268.726 233.509 246.1 219.391 234.009 227.902C230.297 209.486 226.826 198.001 214.7 188.929C202.574 179.856 182.342 191.715 179.093 216.553C175.843 206.343 159.322 192.581 146.051 204.185C133.771 214.922 132.54 232.914 133.823 243.159H271.121V243.176Z" fill="url(#paint1_linear_1235_19869)"/>
<path d="M781.34 231.058C778.447 219.346 751.115 202.242 736.508 212.554C732.025 190.242 727.831 176.327 713.183 165.336C698.536 154.345 674.095 168.712 670.17 198.804C666.245 186.434 646.287 169.761 630.255 183.82C615.422 196.828 613.934 218.626 615.484 231.038H781.34V231.058Z" fill="url(#paint2_linear_1235_19869)"/>
</g>
<defs>
<linearGradient id="paint0_linear_1235_19869" x1="467.171" y1="612.673" x2="457.731" y2="-201.322" gradientUnits="userSpaceOnUse">
<stop stop-color="white"/>
<stop offset="1" stop-color="#EEEEEE"/>
</linearGradient>
<linearGradient id="paint1_linear_1235_19869" x1="205.208" y1="275.292" x2="204.473" y2="123.562" gradientUnits="userSpaceOnUse">
<stop stop-color="white"/>
<stop offset="1" stop-color="#EEEEEE"/>
</linearGradient>
<linearGradient id="paint2_linear_1235_19869" x1="701.717" y1="269.968" x2="700.824" y2="86.1418" gradientUnits="userSpaceOnUse">
<stop stop-color="white"/>
<stop offset="1" stop-color="#EEEEEE"/>
</linearGradient>
<clipPath id="clip0_1235_19869">
<rect width="900" height="600" fill="white"/>
</clipPath>
</defs>
</svg>
