<svg width="309" height="207" viewBox="0 0 309 207" fill="none" xmlns="http://www.w3.org/2000/svg">
<path d="M293.266 144.249H269.885C264.156 144.249 259.355 140.35 259.355 135.411C259.355 132.941 260.594 130.732 262.452 129.172C264.311 127.613 266.943 126.573 269.885 126.573H273.291C276.233 126.573 278.866 125.533 280.724 123.973C282.582 122.414 283.821 120.204 283.821 117.735C283.821 112.926 279.176 108.896 273.291 108.896H201.877C200.011 108.896 198.812 106.603 198.812 104.738C198.812 100.059 194.322 96.2893 188.747 96.2893H162.172C161.505 96.2812 160.868 96.0106 160.399 95.5362C159.93 95.0618 159.668 94.4217 159.668 93.7548C159.668 93.0879 159.93 92.4479 160.399 91.9734C160.868 91.499 161.505 91.2284 162.172 91.2203H264.001C268.491 91.2203 272.672 89.6606 275.614 87.191C278.556 84.7215 280.414 81.2123 280.414 77.4431C280.414 69.7747 272.982 63.6661 264.001 63.6661H211.407C203.155 63.6661 194.987 57.2975 186.734 57.2975H157.371C153.064 57.2975 149.572 53.8058 149.572 49.4989C149.572 45.192 153.064 41.7007 157.371 41.7007H223.123C226.219 41.7007 229.161 40.6607 231.174 38.9711C233.187 37.2814 234.426 34.9421 234.426 32.2125C234.426 27.0137 229.316 22.7246 223.123 22.7246H71.5314C68.4348 22.7246 65.4927 23.7642 63.4796 25.4539C61.4666 27.1435 60.2279 29.4832 60.2279 32.2125C60.2279 37.4116 65.3379 41.7007 71.5314 41.7007H75.4027C80.5124 41.7007 84.848 45.2099 84.848 49.6291C84.848 51.8386 83.7641 53.788 82.0607 55.2179C80.3576 56.6475 78.0349 57.5572 75.4027 57.5572H56.6665C53.4148 57.5572 50.3182 58.7271 48.1504 60.5466C45.9825 62.3664 44.589 64.8356 44.589 67.6951C44.589 73.2839 50.0082 77.7032 56.5117 77.7032H75.5575C81.7511 77.7032 86.8611 81.9922 86.8611 87.191C86.8611 89.7904 85.6224 92.1301 83.6093 93.8198C81.5963 95.5094 78.8093 96.549 75.7123 96.549H58.6796C55.8926 96.549 53.4148 97.4588 51.5569 99.0186C49.6987 100.578 48.6147 102.658 48.6147 104.997C48.6147 109.676 53.1052 113.446 58.6796 113.446H72.4606C80.3576 113.446 86.7059 118.775 86.7059 125.403C86.7059 128.652 85.1576 131.772 82.5254 133.851C79.8932 136.061 76.3315 137.361 72.4606 137.361H53.26C49.3891 137.361 45.8277 138.66 43.3503 140.87C40.7177 142.949 39.1694 145.939 39.1694 149.188C39.1694 155.687 45.5181 161.016 53.26 161.016H112.548C119.095 161.016 125.528 164.655 132.075 164.655H142.873C147 164.655 150.346 168.001 150.346 172.128C150.346 176.256 147 179.602 142.873 179.602H116.591C113.184 179.602 110.242 180.771 108.074 182.591C105.906 184.411 104.513 187.01 104.513 189.739C104.513 195.329 109.933 199.877 116.591 199.877H277.627C281.033 199.877 283.976 198.708 286.143 196.888C288.311 195.068 289.705 192.469 289.705 189.739C289.705 184.151 284.285 179.602 277.627 179.602H272.827C267.872 179.602 264.001 176.222 264.001 172.193C264.001 170.114 264.93 168.294 266.633 166.994C268.182 165.695 270.504 164.785 272.982 164.785H293.266C296.673 164.785 299.614 163.615 301.782 161.795C303.95 159.976 305.344 157.376 305.344 154.647C305.344 148.798 299.924 144.249 293.266 144.249Z" fill="url(#paint0_linear_1334_6732)" fill-opacity="0.3"/>
<g clip-path="url(#clip0_1334_6732)">
<path d="M154.624 180.839C197.559 180.839 232.365 178.758 232.365 176.192C232.365 173.625 197.559 171.545 154.624 171.545C111.689 171.545 76.8829 173.625 76.8829 176.192C76.8829 178.758 111.689 180.839 154.624 180.839Z" fill="url(#paint1_linear_1334_6732)"/>
<path d="M157.24 172.923H152.008C151.841 172.923 151.706 171.402 151.706 169.528V132.601C151.706 130.727 151.841 129.207 152.008 129.207H157.24C157.406 129.207 157.541 130.727 157.541 132.601V169.528C157.541 171.402 157.406 172.923 157.24 172.923Z" fill="white" stroke="#E1E4E5" stroke-width="2"/>
<path d="M118.994 173.171L117.012 171.183C116.948 171.119 118.164 169.798 119.725 168.233L150.485 137.384C152.047 135.818 153.364 134.599 153.427 134.663L155.409 136.65C155.472 136.713 154.257 138.034 152.696 139.6L121.935 170.45C120.374 172.015 119.057 173.234 118.994 173.171Z" fill="white" stroke="#E1E4E5" stroke-width="2"/>
<path d="M191.104 173.55L193.087 171.562C193.15 171.498 191.922 170.164 190.344 168.582L159.264 137.413C157.687 135.831 156.356 134.599 156.293 134.662L154.311 136.65C154.248 136.713 155.476 138.048 157.054 139.63L188.133 170.799C189.711 172.381 191.041 173.613 191.104 173.55Z" fill="white" stroke="#E1E4E5" stroke-width="2"/>
<path d="M224.335 147.451H84.9127C80.8551 147.451 77.5693 144.165 77.5693 140.121V52.8919C77.5693 48.8477 80.8551 45.5625 84.9127 45.5625H224.335C228.393 45.5625 231.678 48.8477 231.678 52.8919V140.121C231.678 144.165 228.393 147.451 224.335 147.451Z" fill="white" stroke="#E1E4E5" stroke-width="4"/>
<path d="M97.2552 108.958L93.088 113.133L91.0634 111.109M106.284 106.96H118.6M144.853 106.96H157.169M182.873 106.847H204.598M182.873 121.026H204.598M106.38 113.088H126.748M144.949 113.088H165.316M182.865 113.028H214.677M182.865 127.208H214.677M97.2552 123.257L93.088 127.432L91.0634 125.408M106.284 121.259H118.6M144.853 121.259H157.169M106.38 127.387H126.748M144.949 127.387H165.316" stroke="#E1E4E5" stroke-width="3" stroke-linecap="round" stroke-linejoin="round"/>
<path d="M171.705 175.676H137.542C137.04 175.676 136.608 175.623 136.322 175.549C136.302 175.544 136.281 175.538 136.261 175.532V170.657C136.28 170.651 136.3 170.646 136.322 170.64C136.608 170.566 137.04 170.513 137.542 170.513H171.705C172.208 170.513 172.64 170.566 172.925 170.64C172.947 170.646 172.968 170.651 172.987 170.657V175.532C172.966 175.538 172.946 175.544 172.925 175.549C172.64 175.623 172.208 175.676 171.705 175.676ZM136.086 175.466C136.072 175.458 136.075 175.458 136.088 175.467L136.086 175.466ZM136.086 170.723L136.088 170.722C136.075 170.731 136.072 170.731 136.086 170.723ZM173.162 170.723C173.176 170.731 173.173 170.731 173.16 170.722L173.162 170.723ZM173.162 175.466L173.16 175.467C173.173 175.458 173.176 175.458 173.162 175.466ZM125.278 170.513V175.676H113.608V170.513H125.278ZM195.64 170.513V175.676H183.97V170.513H195.64ZM77.5693 45.5625H231.678V51.4142H77.5693V45.5625Z" fill="white" stroke="#E1E4E5" stroke-width="2"/>
<path d="M165.264 42.8086H143.297C141.876 42.8086 140.723 43.9644 140.723 45.3902C140.723 46.816 141.876 47.9718 143.297 47.9718H165.264C166.686 47.9718 167.838 46.816 167.838 45.3902C167.838 43.9644 166.686 42.8086 165.264 42.8086Z" fill="white" stroke="#E1E4E5" stroke-width="2"/>
<path fill-rule="evenodd" clip-rule="evenodd" d="M89.5504 70.9689V93.8841C89.5504 95.1278 90.5437 96.135 91.7701 96.135H123.86H105.22L111.091 87.7419C111.371 87.3416 112.071 87.3416 112.351 87.7419L114.407 90.6808L114.423 90.7039L114.437 90.6836L118.845 84.2643C119.15 83.8199 119.914 83.8199 120.219 84.2643L126.057 92.7671V93.89V70.9689C126.057 69.7249 125.062 68.7178 123.838 68.7178H91.7701C90.5437 68.7178 89.5504 69.7249 89.5504 70.9689Z" fill="#4F27AA"/>
<path d="M99.8458 86.2013C96.6713 86.2013 94.0981 83.6204 94.0981 80.4371C94.0981 77.2534 96.6713 74.6729 99.8458 74.6729C103.02 74.6729 105.593 77.2534 105.593 80.4371C105.593 83.6204 103.02 86.2013 99.8458 86.2013Z" fill="white"/>
<path fill-rule="evenodd" clip-rule="evenodd" d="M135.097 70.9689V93.8841C135.097 95.1278 136.09 96.135 137.317 96.135H169.407H150.767L156.638 87.7419C156.918 87.3416 157.618 87.3416 157.898 87.7419L159.953 90.6808L159.97 90.7039L159.983 90.6836L164.392 84.2643C164.697 83.8199 165.461 83.8199 165.766 84.2643L171.604 92.7671V93.8882V70.9689C171.604 69.7249 170.608 68.7178 169.385 68.7178H137.317C136.09 68.7178 135.097 69.7249 135.097 70.9689Z" fill="#4F27AA"/>
<path d="M145.392 86.2013C142.218 86.2013 139.645 83.6204 139.645 80.4371C139.645 77.2534 142.218 74.6729 145.392 74.6729C148.567 74.6729 151.14 77.2534 151.14 80.4371C151.14 83.6204 148.567 86.2013 145.392 86.2013Z" fill="white"/>
<path fill-rule="evenodd" clip-rule="evenodd" d="M180.644 70.9689V93.8841C180.644 95.1278 181.637 96.135 182.863 96.135H214.953H196.314L202.185 87.7419C202.465 87.3416 203.165 87.3416 203.445 87.7419L205.5 90.6808L205.516 90.7039L205.53 90.6836L209.939 84.2643C210.244 83.8199 211.008 83.8199 211.312 84.2643L217.151 92.7671V93.8893V70.9689C217.151 69.7249 216.155 68.7178 214.931 68.7178H182.863C181.637 68.7178 180.644 69.7249 180.644 70.9689Z" fill="#4F27AA"/>
<path d="M190.939 86.2013C187.765 86.2013 185.191 83.6204 185.191 80.4371C185.191 77.2534 187.765 74.6729 190.939 74.6729C194.114 74.6729 196.687 77.2534 196.687 80.4371C196.687 83.6204 194.114 86.2013 190.939 86.2013Z" fill="white"/>
<path d="M65.2362 91.0638C62.3702 93.7056 57.3045 92.8592 57.3045 92.8592C57.3045 92.8592 56.8892 87.729 59.7576 85.0889C62.6235 82.4466 67.6864 83.2917 67.6864 83.2917C67.6864 83.2917 68.1021 88.4215 65.2362 91.0638Z" fill="url(#paint2_linear_1334_6732)"/>
<path d="M63.8403 111.307C65.1672 111.307 66.2429 112.386 66.2429 113.716C66.2429 115.047 65.1672 116.126 63.8403 116.126C62.5134 116.126 61.4377 115.047 61.4377 113.716C61.4377 112.386 62.5134 111.307 63.8403 111.307Z" fill="#E1E4E5"/>
<path d="M66.2429 55.2001C67.7594 55.2001 68.9887 56.51 68.9887 58.1259C68.9887 59.7418 67.7594 61.0518 66.2429 61.0518C64.7264 61.0518 63.4971 59.7418 63.4971 58.1259C63.4971 56.51 64.7264 55.2001 66.2429 55.2001Z" fill="url(#paint3_linear_1334_6732)"/>
<path d="M232.365 130.239C234.26 130.239 235.797 128.698 235.797 126.797C235.797 124.896 234.26 123.354 232.365 123.354C230.469 123.354 228.933 124.896 228.933 126.797C228.933 128.698 230.469 130.239 232.365 130.239Z" fill="#E1E4E5"/>
<path d="M236.528 66.9687C236.368 67.5682 236.723 68.1845 237.321 68.3451C237.918 68.5058 238.533 68.15 238.693 67.5504C238.853 66.9509 238.499 66.3346 237.901 66.174C237.303 66.0133 236.688 66.3691 236.528 66.9687Z" fill="#E1E4E5"/>
<path d="M243.005 88.5886C243.953 88.5886 244.721 87.8181 244.721 86.8676C244.721 85.917 243.953 85.1465 243.005 85.1465C242.057 85.1465 241.289 85.917 241.289 86.8676C241.289 87.8181 242.057 88.5886 243.005 88.5886Z" fill="#E1E4E5"/>
<path d="M222.61 61.0518H222.558C222.247 65.3015 218.979 65.3669 218.979 65.3669C218.979 65.3669 222.583 65.435 222.583 70.3456C222.583 65.435 226.187 65.3669 226.187 65.3669C226.187 65.3669 222.92 65.3015 222.61 61.0518Z" fill="#E1E4E5"/>
<path fill-rule="evenodd" clip-rule="evenodd" d="M47 45.2635V34.7365C47 31.195 48.8461 27.9211 51.8447 26.1393L61.5947 20.3496C63.0839 19.4657 64.776 19 66.4989 19C68.2218 19 69.9139 19.4657 71.4031 20.3496L81.1531 26.1393C84.1539 27.9211 86 31.195 86 34.7365V45.2635C86 48.805 84.1539 52.0789 81.1553 53.8607L71.4053 59.6504C69.9161 60.5343 68.224 61 66.5011 61C64.7782 61 63.0861 60.5343 61.5969 59.6504L51.8469 53.8607C48.8461 52.0789 47 48.805 47 45.2635Z" fill="#4F27AA" stroke="#4F27AA" stroke-width="21.417" stroke-linecap="round" stroke-linejoin="round"/>
<path d="M59.7809 35.15H61.6309C62.9309 35.15 63.8309 34.9 64.3309 34.4C64.8642 33.8667 65.1309 32.95 65.1309 31.65V29H70.6309V31.65C70.6309 34.3167 71.3475 35.65 72.7809 35.65H73.2809C73.9475 35.65 74.4142 35.3333 74.6809 34.7C74.9809 34.0667 75.1309 33.1833 75.1309 32.05C75.1309 31.8167 75.1142 31.5833 75.0809 31.35C75.0809 31.0833 75.0475 30.7667 74.9809 30.4C74.9475 30.0333 74.8642 29.5833 74.7309 29.05C74.6309 28.5167 74.4809 27.85 74.2809 27.05L79.8809 25.9C80.1809 27.5 80.3809 28.8 80.4809 29.8C80.6142 30.8 80.6809 31.75 80.6809 32.65C80.6809 36.2167 80.0475 38.8833 78.7809 40.65C77.5142 42.3833 75.5309 43.25 72.8309 43.25C70.8309 43.25 69.2475 42.7 68.0809 41.6C66.9475 40.4667 66.1809 38.7 65.7809 36.3H65.4809C65.2809 38.5 64.7309 40.1167 63.8309 41.15C62.9309 42.15 61.7642 42.65 60.3309 42.65H60.2309L61.1809 57H55.0809L53.1309 26.5H59.2309L59.7809 35.15Z" fill="white"/>
</g>
<defs>
<linearGradient id="paint0_linear_1334_6732" x1="177.932" y1="299.199" x2="174.296" y2="-170.023" gradientUnits="userSpaceOnUse">
<stop stop-color="#FFA6A6"/>
<stop offset="1" stop-color="#EEEEEE"/>
</linearGradient>
<linearGradient id="paint1_linear_1334_6732" x1="157.939" y1="186.05" x2="157.922" y2="161.432" gradientUnits="userSpaceOnUse">
<stop stop-color="white"/>
<stop offset="1" stop-color="#EEEEEE"/>
</linearGradient>
<linearGradient id="paint2_linear_1334_6732" x1="53.8825" y1="100.009" x2="75.2343" y2="70.105" gradientUnits="userSpaceOnUse">
<stop stop-color="white"/>
<stop offset="1" stop-color="#EEEEEE"/>
</linearGradient>
<linearGradient id="paint3_linear_1334_6732" x1="69.1057" y1="48.9935" x2="68.9135" y2="64.4912" gradientUnits="userSpaceOnUse">
<stop stop-color="white"/>
<stop offset="1" stop-color="#EEEEEE"/>
</linearGradient>
<clipPath id="clip0_1334_6732">
<rect width="308.905" height="206.53" fill="white" transform="translate(0 0.469727)"/>
</clipPath>
</defs>
</svg>
