<svg width="900" height="600" viewBox="0 0 900 600" fill="none" xmlns="http://www.w3.org/2000/svg">
<g clip-path="url(#clip0_1235_19956)">
<path d="M681.576 347.832C684.958 410.145 563.131 536.851 412.972 489.953C343.134 468.139 349.05 431.934 295.945 384.217C264.292 355.778 218.812 334.272 206.163 292.933C195.236 257.251 201.937 218.899 220.881 193.953C263.487 137.851 349.501 99.4336 434.252 187.828C519.003 276.221 672.837 187.123 681.576 347.832Z" fill="url(#paint0_linear_1235_19956)"/>
<path d="M645.836 208.552C634.427 228.913 609.44 231.711 569.41 227.842C539.305 224.926 511.851 222.67 481.743 206.255C460.669 194.774 443.988 179.24 431.813 164.152C418.62 147.808 400.205 129.155 409.232 110.623C421.638 85.1662 493.381 63.7262 563.047 98.7872C639.574 137.314 656.996 188.652 645.836 208.552Z" fill="url(#paint1_linear_1235_19956)"/>
<path d="M343.384 476.444C313.689 434.9 283.277 390.746 243.461 368.999C202.393 346.556 194.819 360.388 191.976 382.378C189.133 404.368 201.804 456.471 257.851 486.116C313.912 515.769 371.17 515.325 343.384 476.444Z" fill="url(#paint2_linear_1235_19956)"/>
<path d="M687.87 215.875C681.338 203.82 688.579 187.248 688.579 187.248C688.579 187.248 706.406 190.229 712.929 202.29C719.461 214.344 712.229 230.91 712.229 230.91C712.229 230.91 694.401 227.929 687.87 215.875Z" fill="url(#paint3_linear_1235_19956)"/>
<path d="M345.964 117.425C360.009 127.099 381.466 120.337 381.466 120.337C381.466 120.337 380.137 97.8919 366.083 88.2269C352.038 78.5529 330.591 85.3069 330.591 85.3069C330.591 85.3069 331.919 107.751 345.964 117.425Z" fill="url(#paint4_linear_1235_19956)"/>
<path d="M565.043 164.452C580.269 179.949 608.742 176.682 608.742 176.682C608.742 176.682 612.509 148.288 597.269 132.801C582.043 117.304 553.585 120.561 553.585 120.561C553.585 120.561 549.817 148.955 565.043 164.452Z" fill="url(#paint5_linear_1235_19956)"/>
<path d="M630.555 364.612C624.305 364.612 619.239 369.457 619.239 375.435C619.239 381.412 624.305 386.258 630.555 386.258C636.805 386.258 641.871 381.412 641.871 375.435C641.871 369.457 636.805 364.612 630.555 364.612Z" fill="#4F27AA"/>
<path d="M460 445.682C453.373 445.682 448 451.054 448 457.682C448 464.309 453.373 469.682 460 469.682C466.627 469.682 472 464.309 472 457.682C472 451.054 466.627 445.682 460 445.682Z" fill="#4F27AA"/>
<path d="M263.939 419.427C255.516 419.427 248.688 426.035 248.688 434.186C248.688 442.337 255.516 448.945 263.939 448.945C272.362 448.945 279.19 442.337 279.19 434.186C279.19 426.035 272.362 419.427 263.939 419.427Z" fill="#4F27AA"/>
<path d="M224.181 254.406C221.192 254.406 218.769 251.983 218.769 248.994C218.769 246.005 221.192 243.582 224.181 243.582C227.17 243.582 229.593 246.005 229.593 248.994C229.593 251.983 227.17 254.406 224.181 254.406Z" fill="#4F27AA"/>
<path d="M492.332 142.344C486.626 142.344 482 137.718 482 132.012C482 126.305 486.626 121.68 492.332 121.68C498.038 121.68 502.664 126.305 502.664 132.012C502.664 137.718 498.038 142.344 492.332 142.344Z" fill="#4F27AA"/>
<path d="M617.764 479.735C612.058 479.735 607.432 475.329 607.432 469.895C607.432 464.46 612.058 460.055 617.764 460.055C623.47 460.055 628.096 464.46 628.096 469.895C628.096 475.329 623.47 479.735 617.764 479.735Z" fill="#E1E4E5"/>
<path d="M171.824 350.36C165.847 350.36 161.001 345.954 161.001 340.52C161.001 335.085 165.847 330.68 171.824 330.68C177.801 330.68 182.647 335.085 182.647 340.52C182.647 345.954 177.801 350.36 171.824 350.36Z" fill="#E1E4E5"/>
<path d="M302.762 480.226C298.764 480.226 295.523 476.985 295.523 472.987C295.523 468.989 298.764 465.748 302.762 465.748C306.76 465.748 310.001 468.989 310.001 472.987C310.001 476.985 306.76 480.226 302.762 480.226Z" fill="#E1E4E5"/>
<path d="M555.282 136.332C552.565 136.332 550.362 134.129 550.362 131.412C550.362 128.695 552.565 126.492 555.282 126.492C557.999 126.492 560.202 128.695 560.202 131.412C560.202 134.129 557.999 136.332 555.282 136.332Z" fill="#E1E4E5"/>
<path d="M245.807 303.321C246.494 305.886 244.972 308.523 242.407 309.21C239.842 309.897 237.206 308.375 236.519 305.81C235.831 303.245 237.353 300.609 239.918 299.922C242.483 299.234 245.12 300.756 245.807 303.321Z" fill="#E1E4E5"/>
<path d="M246.812 202.259C243.28 202.259 240.416 199.395 240.416 195.863C240.416 192.33 243.28 189.467 246.812 189.467C250.344 189.467 253.208 192.33 253.208 195.863C253.208 199.395 250.344 202.259 246.812 202.259Z" fill="#E1E4E5"/>
<path d="M637.935 313.444C635.218 313.444 633.015 311.682 633.015 309.508C633.015 307.334 635.218 305.572 637.935 305.572C640.652 305.572 642.855 307.334 642.855 309.508C642.855 311.682 640.652 313.444 637.935 313.444Z" fill="#E1E4E5"/>
<path d="M438.973 89.4874C440.276 94.351 437.39 99.3502 432.526 100.653C427.662 101.957 422.663 99.0703 421.36 94.2067C420.057 89.3431 422.943 84.3439 427.807 83.0407C432.67 81.7375 437.67 84.6238 438.973 89.4874Z" fill="#E1E4E5"/>
<path d="M708.714 307.543H708.842C709.604 318.341 717.635 318.507 717.635 318.507C717.635 318.507 708.78 318.68 708.78 331.157C708.78 318.68 699.924 318.507 699.924 318.507C699.924 318.507 707.951 318.341 708.714 307.543ZM699.929 364.682H700.03C700.631 373.194 706.961 373.325 706.961 373.325C706.961 373.325 699.981 373.461 699.981 383.297C699.981 373.461 693 373.325 693 373.325C693 373.325 699.328 373.194 699.929 364.682ZM182.475 151.682H182.643C183.638 166.006 194.122 166.227 194.122 166.227C194.122 166.227 182.561 166.456 182.561 183.008C182.561 166.456 171 166.227 171 166.227C171 166.227 181.48 166.006 182.475 151.682Z" fill="#E1E4E5"/>
<path d="M739 528.046H602.624L591.31 497.613C587.301 486.834 579.102 478.166 568.616 473.424C558.739 468.96 545.446 460.852 532.562 446.401C507.486 418.277 494.18 388.109 494.18 388.109L578.697 387.694C578.697 387.694 571.091 340.455 613.097 277.718C617.584 270.997 619.645 262.946 618.938 254.895L614.956 209.138C614.956 209.138 586.41 177.262 603.923 137.72C603.923 137.72 620.669 114.552 627.314 123.032C627.314 123.032 677.901 243.399 682.506 261.296C687.111 279.193 693.253 290.444 687.111 346.692C685.486 361.584 684.9 374 684.92 384.213C684.964 403.816 689.339 423.167 697.731 440.883L739 528.046Z" fill="#F8AE9D"/>
<path d="M199.815 373.327V192.552C199.815 179.09 210.718 168.174 224.173 168.174H593.331C606.893 168.174 617.689 179.205 617.689 192.552V373.327C617.689 386.785 606.79 397.704 593.331 397.704H224.169C210.596 397.704 199.815 386.659 199.815 373.327Z" fill="#4F27AA"/>
<path fill-rule="evenodd" clip-rule="evenodd" d="M328.824 311.928V316.62C328.824 319.211 326.749 321.313 324.193 321.313H268.626C266.07 321.313 263.995 319.211 263.995 316.62V311.853C263.995 297.654 280.008 288.429 296.409 288.429C312.811 288.429 328.824 297.659 328.824 311.853M308.036 247.206C314.457 253.627 314.457 264.037 308.036 270.458C301.615 276.88 291.204 276.88 284.783 270.458C278.362 264.037 278.362 253.627 284.783 247.206C291.204 240.785 301.615 240.785 308.036 247.206Z" fill="white"/>
<path d="M571.228 242.182H362.392C358.682 242.182 355.675 245.189 355.675 248.899C355.675 252.608 358.682 255.616 362.392 255.616H571.228C574.938 255.616 577.945 252.608 577.945 248.899C577.945 245.189 574.938 242.182 571.228 242.182Z" fill="white"/>
<path d="M571.228 275.154H362.392C358.682 275.154 355.675 278.162 355.675 281.871C355.675 285.581 358.682 288.588 362.392 288.588H571.228C574.938 288.588 577.945 285.581 577.945 281.871C577.945 278.162 574.938 275.154 571.228 275.154Z" fill="white"/>
<path d="M571.228 308.129H362.392C358.682 308.129 355.675 311.136 355.675 314.846C355.675 318.556 358.682 321.563 362.392 321.563H571.228C574.938 321.563 577.945 318.556 577.945 314.846C577.945 311.136 574.938 308.129 571.228 308.129Z" fill="white"/>
<path d="M621.436 236.749C621.436 236.749 620.348 240.795 617.883 242.79L614.956 209.137C614.956 209.137 593.956 185.688 599.03 154.067C600.768 143.241 606.157 133.279 614.396 126.04C619.102 121.908 624.27 119.147 627.314 123.035C627.314 123.035 651.104 179.638 667.538 220.984L621.436 236.749Z" fill="#F8AE9D"/>
</g>
<defs>
<linearGradient id="paint0_linear_1235_19956" x1="535.968" y1="721.346" x2="308.084" y2="-306.785" gradientUnits="userSpaceOnUse">
<stop stop-color="white"/>
<stop offset="1" stop-color="#EEEEEE"/>
</linearGradient>
<linearGradient id="paint1_linear_1235_19956" x1="568.978" y1="340.513" x2="467.288" y2="-116.438" gradientUnits="userSpaceOnUse">
<stop stop-color="white"/>
<stop offset="1" stop-color="#EEEEEE"/>
</linearGradient>
<linearGradient id="paint2_linear_1235_19956" x1="310.226" y1="612.821" x2="212.798" y2="162.266" gradientUnits="userSpaceOnUse">
<stop stop-color="white"/>
<stop offset="1" stop-color="#EEEEEE"/>
</linearGradient>
<linearGradient id="paint3_linear_1235_19956" x1="667.177" y1="169.427" x2="750.908" y2="267.772" gradientUnits="userSpaceOnUse">
<stop stop-color="white"/>
<stop offset="1" stop-color="#EEEEEE"/>
</linearGradient>
<linearGradient id="paint4_linear_1235_19956" x1="400.675" y1="149.166" x2="290.117" y2="32.5869" gradientUnits="userSpaceOnUse">
<stop stop-color="white"/>
<stop offset="1" stop-color="#EEEEEE"/>
</linearGradient>
<linearGradient id="paint5_linear_1235_19956" x1="625.792" y1="217.386" x2="515.717" y2="44.8327" gradientUnits="userSpaceOnUse">
<stop stop-color="white"/>
<stop offset="1" stop-color="#EEEEEE"/>
</linearGradient>
<clipPath id="clip0_1235_19956">
<rect width="900" height="600" fill="white"/>
</clipPath>
</defs>
</svg>
