<svg width="900" height="600" viewBox="0 0 900 600" fill="none" xmlns="http://www.w3.org/2000/svg">
<g clip-path="url(#clip0_1235_19985)">
<path d="M304.876 196C309.079 178.955 348.804 154.062 370.032 169.07C376.548 136.598 382.643 116.349 403.931 100.352C425.22 84.3563 460.74 105.265 466.445 149.06C472.15 131.057 501.155 106.793 524.455 127.252C546.014 146.184 548.176 177.907 545.924 195.97H304.876V196Z" fill="url(#paint0_linear_1235_19985)"/>
<path d="M364.009 218.43C360.659 204.857 329.004 185.034 312.088 196.985C306.896 171.126 302.039 155.001 285.075 142.262C268.111 129.524 239.806 146.174 235.26 181.05C230.714 166.713 207.6 147.391 189.033 163.684C171.854 178.76 170.131 204.022 171.926 218.406H364.009V218.43Z" fill="url(#paint1_linear_1235_19985)"/>
<path d="M757.769 196C754.354 182.162 722.081 161.952 704.835 174.136C699.541 147.773 694.589 131.332 677.294 118.345C659.999 105.358 631.142 122.334 626.507 157.89C621.872 143.274 598.308 123.574 579.378 140.185C561.864 155.555 560.107 181.311 561.937 195.976H757.769V196Z" fill="url(#paint2_linear_1235_19985)"/>
<path d="M350.017 228.268L340.408 441.578H165.547L183.629 355.003L241.904 336.611C243.414 336.079 244.789 335.223 245.931 334.102C247.074 332.981 247.957 331.623 248.517 330.124L283.361 240.644L350.017 228.268Z" fill="#4F27AA"/>
<path d="M330.753 250.723L326.39 327.678L263.281 333.59L290.467 253.536L330.753 250.723ZM175.937 355.231L190.161 352.981L181.872 382.268L174.548 381.487C173.766 381.403 173.047 381.018 172.544 380.414C172.04 379.81 171.792 379.034 171.85 378.25L173.4 357.975C173.453 357.299 173.732 356.66 174.192 356.162C174.652 355.664 175.267 355.336 175.937 355.231Z" fill="white"/>
<path d="M255.451 312.915C258.85 315.808 255.784 341.938 253.351 341.501C250.928 341.065 245.739 340.066 243.638 338.413C241.537 336.76 229.735 315.613 232.605 311.227C235.475 306.841 252.822 310.664 255.451 312.915Z" fill="#4F27AA"/>
<path opacity="0.1" d="M255.451 312.915C258.85 315.808 255.784 341.938 253.351 341.501C250.928 341.065 245.739 340.066 243.638 338.413C241.537 336.76 229.735 315.613 232.605 311.227C235.475 306.841 252.822 310.664 255.451 312.915Z" fill="black"/>
<path d="M345.241 441.577H704.734L683.366 179.5H358.366L345.241 441.577Z" fill="#4F27AA"/>
<path d="M706.548 453.105H157.51V436.768H706.548V453.105Z" fill="url(#paint3_linear_1235_19985)"/>
<path d="M200.276 455.008V432.828L146.564 429.529L142.668 455.008H200.276ZM716.985 429.826L683.471 433.288V455.008H721.04L716.985 429.826Z" fill="#DBDBDB" stroke="#E1E4E5" stroke-width="1.148"/>
<path d="M560.847 458.04C560.847 458.04 565.956 420.211 603.383 420.211C640.81 420.211 646.355 458.04 646.355 458.04" stroke="#E1E4E5" stroke-width="11.481" stroke-miterlimit="10"/>
<path d="M603.612 421.451C657.146 421.451 657.238 504.64 603.612 504.64C550.078 504.64 549.986 421.451 603.612 421.451Z" fill="#2E2445"/>
<path d="M603.612 444.16C627.905 444.16 627.951 481.919 603.612 481.919C579.308 481.919 579.274 444.16 603.612 444.16Z" fill="#E1E4E5"/>
<path d="M240.171 458.04C240.171 458.04 245.28 420.211 282.706 420.211C320.133 420.211 325.678 458.04 325.678 458.04" stroke="#E1E4E5" stroke-width="11.481" stroke-miterlimit="10"/>
<path d="M282.729 421.451C336.264 421.451 336.355 504.64 282.729 504.64C229.195 504.64 229.103 421.451 282.729 421.451Z" fill="#2E2445"/>
<path d="M282.729 444.16C307.022 444.16 307.068 481.919 282.729 481.919C258.425 481.919 258.391 444.16 282.729 444.16Z" fill="#E1E4E5"/>
<path d="M561.425 343.862C540.608 361.204 506.846 361.204 486.03 343.862M477.608 272.466V284.165M571.546 272.466V284.165M515.689 315.681H530.719M526.962 261.195C519.81 277.169 515.689 294.956 515.689 313.801" stroke="#2E2445" stroke-width="15.03" stroke-linecap="round" stroke-linejoin="round"/>
</g>
<defs>
<linearGradient id="paint0_linear_1235_19985" x1="420.597" y1="252.626" x2="421.898" y2="-14.9007" gradientUnits="userSpaceOnUse">
<stop stop-color="white"/>
<stop offset="1" stop-color="#EEEEEE"/>
</linearGradient>
<linearGradient id="paint1_linear_1235_19985" x1="271.795" y1="263.524" x2="270.759" y2="50.4822" gradientUnits="userSpaceOnUse">
<stop stop-color="white"/>
<stop offset="1" stop-color="#EEEEEE"/>
</linearGradient>
<linearGradient id="paint2_linear_1235_19985" x1="663.755" y1="241.974" x2="662.699" y2="24.7744" gradientUnits="userSpaceOnUse">
<stop stop-color="white"/>
<stop offset="1" stop-color="#EEEEEE"/>
</linearGradient>
<linearGradient id="paint3_linear_1235_19985" x1="420.322" y1="462.264" x2="420.337" y2="418.99" gradientUnits="userSpaceOnUse">
<stop stop-color="white"/>
<stop offset="1" stop-color="#EEEEEE"/>
</linearGradient>
<clipPath id="clip0_1235_19985">
<rect width="900" height="600" fill="white"/>
</clipPath>
</defs>
</svg>
