<svg width="900" height="600" viewBox="0 0 900 600" fill="none" xmlns="http://www.w3.org/2000/svg">
<g clip-path="url(#clip0_1235_20004)">
<path d="M449.5 517.609C589.504 517.609 703 510.845 703 502.5C703 494.155 589.504 487.391 449.5 487.391C309.496 487.391 196 494.155 196 502.5C196 510.845 309.496 517.609 449.5 517.609Z" fill="url(#paint0_linear_1235_20004)"/>
<path fill-rule="evenodd" clip-rule="evenodd" d="M388.037 187C361.906 187 340.53 208.272 340.53 234.275C340.53 260.278 361.906 281.55 388.037 281.55C393.279 281.55 397.572 285.822 397.572 291.039C397.572 296.255 393.279 300.528 388.037 300.528H363.178C350.431 300.528 340 310.908 340 323.593C340 336.278 350.431 346.658 363.178 346.658C374.203 346.658 383.224 355.635 383.224 366.606C383.224 386.623 399.681 403 419.796 403H634.485C660.615 403 681.991 381.728 681.991 355.725C681.991 329.722 660.615 308.45 634.485 308.45H629.889C624.647 308.45 620.354 304.183 620.354 298.961C620.354 293.745 624.642 289.472 629.889 289.472H660.822C673.569 289.472 684 279.092 684 266.407C684 253.738 673.595 243.368 660.869 243.342H635.979C624.955 243.342 615.934 234.365 615.934 223.394C615.934 203.377 599.476 187 579.361 187H388.037Z" fill="url(#paint1_linear_1235_20004)"/>
<path fill-rule="evenodd" clip-rule="evenodd" d="M290.982 101C270.321 101 253.419 117.84 253.419 138.426C253.419 159.012 270.321 175.852 290.982 175.852C295.127 175.852 298.522 179.234 298.522 183.364C298.522 187.494 295.127 190.876 290.982 190.876H271.327C261.248 190.876 253 199.094 253 209.136C253 219.178 261.248 227.396 271.327 227.396C280.044 227.396 287.177 234.503 287.177 243.188C287.177 259.035 300.19 272 316.095 272H485.848C506.51 272 523.412 255.16 523.412 234.574C523.412 213.988 506.51 197.148 485.848 197.148H482.215C478.07 197.148 474.675 193.77 474.675 189.636C474.675 185.506 478.066 182.124 482.215 182.124H506.673C516.752 182.124 525 173.906 525 163.864C525 153.834 516.773 145.625 506.711 145.604H487.03C478.313 145.604 471.18 138.497 471.18 129.812C471.18 113.965 458.167 101 442.263 101H290.982Z" fill="url(#paint2_linear_1235_20004)"/>
<path d="M550.84 84.4541C550.331 84.2712 549.815 84.1054 549.295 83.9571C549.123 83.9071 548.952 83.8551 548.78 83.8111C548.41 83.7176 548.039 83.6286 547.667 83.5441C547.489 83.5041 547.311 83.4711 547.13 83.4371C546.757 83.3677 546.382 83.3051 546.007 83.2491C545.787 83.2184 545.567 83.1904 545.347 83.1651C545.187 83.1461 545.027 83.1281 544.865 83.1121C544.612 83.0891 544.359 83.0701 544.106 83.0551C543.972 83.0471 543.839 83.0341 543.705 83.0291C543.315 83.0101 542.922 83.0001 542.527 83.0001H361.422C360.177 82.9964 358.934 83.0907 357.704 83.2821C357.302 83.3443 356.901 83.4159 356.502 83.4971C346.167 85.6131 338.212 94.2771 337.128 104.975C337.044 105.807 337.002 106.642 337.002 107.478V478.522C337.002 489.117 343.716 498.137 353.113 501.546C353.155 501.562 353.197 501.575 353.239 501.588C353.705 501.753 354.179 501.904 354.656 502.04C354.829 502.09 354.999 502.143 355.174 502.187C355.358 502.234 355.541 502.279 355.724 502.323C355.91 502.367 356.099 502.412 356.287 502.454C356.465 502.493 356.643 502.527 356.824 502.561C357.196 502.631 357.57 502.693 357.945 502.749C358.162 502.781 358.382 502.807 358.604 502.833C358.764 502.851 358.924 502.87 359.086 502.885C359.338 502.909 359.592 502.927 359.846 502.943C359.979 502.951 360.113 502.964 360.246 502.969C360.636 502.987 361.029 502.998 361.425 502.998H542.532C543.375 502.998 544.208 502.956 545.03 502.872C556.522 501.703 565.661 492.542 566.829 481.021C566.913 480.197 566.954 479.362 566.954 478.517V107.478C566.949 96.8831 560.235 87.8631 550.84 84.4551V84.4541Z" fill="white" stroke="#E1E4E5" stroke-width="4"/>
<path d="M451.976 483.057C459.751 483.057 466.054 476.754 466.054 468.979C466.054 461.204 459.751 454.9 451.976 454.9C444.2 454.9 437.897 461.204 437.897 468.979C437.897 476.754 444.2 483.057 451.976 483.057Z" fill="white" stroke="#E1E4E5" stroke-width="4"/>
<path d="M474.267 102.941H430.858C430.21 102.941 429.685 103.467 429.685 104.114C429.685 104.762 430.21 105.287 430.858 105.287H474.267C474.915 105.287 475.44 104.762 475.44 104.114C475.44 103.467 474.915 102.941 474.267 102.941Z" fill="white" stroke="#E1E4E5" stroke-width="2.346"/>
<path d="M530.524 120.539H374.6C363.554 120.539 354.6 129.493 354.6 140.539V411.437C354.6 422.483 363.554 431.437 374.6 431.437H530.524C541.57 431.437 550.524 422.483 550.524 411.437V140.539C550.524 129.493 541.57 120.539 530.524 120.539Z" fill="white" stroke="#E1E4E5" stroke-width="4"/>
<path d="M599.345 245H392.926C383.578 245 376 252.578 376 261.926V367.074C376 376.422 383.578 384 392.926 384H599.345C608.693 384 616.271 376.422 616.271 367.074V261.926C616.271 252.578 608.693 245 599.345 245Z" fill="#4F27AA"/>
<path d="M581.377 283.723H530.68M581.377 309.926H530.68M506.755 283.723H404.221M506.755 309.926H404.221M506.755 333.281H404.221" stroke="white" stroke-width="11.609" stroke-miterlimit="10" stroke-linecap="round" stroke-linejoin="round"/>
<path fill-rule="evenodd" clip-rule="evenodd" d="M554.715 360.502C553.142 358.977 551.891 357.151 551.038 355.133C550.185 353.114 549.747 350.945 549.75 348.754C549.75 343.987 551.786 339.695 555.037 336.701C552.459 334.732 549.304 333.667 546.06 333.672C537.88 333.672 531.25 340.303 531.25 348.482C531.25 356.662 537.88 363.293 546.06 363.293C549.291 363.293 552.28 362.258 554.715 360.502Z" fill="white"/>
<path d="M567.621 363.149C575.846 363.149 582.514 356.481 582.514 348.256C582.514 340.031 575.846 333.363 567.621 333.363C559.396 333.363 552.728 340.031 552.728 348.256C552.728 356.481 559.396 363.149 567.621 363.149Z" fill="white"/>
<path d="M254.755 301L242.806 312.938L237 307.15M275 298H298M275 315.5H314M254.755 341.884L242.806 353.822L237 348.034M275 339H298M275 356H314M254.755 380.753L242.806 392.692L237 386.904M275 378H298M275 395H314M254.755 421.637L242.806 433.575L237 427.787M275 418.5H298M275 436H314" stroke="#E1E4E5" stroke-width="5.5" stroke-linecap="round" stroke-linejoin="round"/>
<path d="M435.404 147.523H269C257.954 147.523 249 156.478 249 167.523V206.678C249 217.724 257.954 226.678 269 226.678H435.404C446.45 226.678 455.404 217.724 455.404 206.678V167.523C455.404 156.478 446.45 147.523 435.404 147.523Z" fill="white" stroke="#E1E4E5" stroke-width="4"/>
<path d="M429.673 172.16H322.912C320.32 172.16 318.219 174.261 318.219 176.853C318.219 179.445 320.32 181.546 322.912 181.546H429.673C432.265 181.546 434.366 179.445 434.366 176.853C434.366 174.261 432.265 172.16 429.673 172.16Z" fill="#E1E4E5"/>
<path d="M388.611 192.104H322.912C320.32 192.104 318.219 194.205 318.219 196.797C318.219 199.388 320.32 201.49 322.912 201.49H388.611C391.203 201.49 393.304 199.388 393.304 196.797C393.304 194.205 391.203 192.104 388.611 192.104Z" fill="#E1E4E5"/>
<path fill-rule="evenodd" clip-rule="evenodd" d="M281.712 207.053C270.771 207.053 261.9 198.057 261.9 186.963C261.9 175.868 270.771 166.873 281.712 166.873C292.652 166.873 301.523 175.868 301.523 186.963C301.523 198.057 292.652 207.053 281.712 207.053Z" fill="#4F27AA"/>
<path d="M288.687 183.615L280.318 192.544L275.294 187.187" stroke="white" stroke-width="3.568" stroke-linecap="round" stroke-linejoin="round"/>
<path fill-rule="evenodd" clip-rule="evenodd" d="M672.79 192.808H669.995C669.319 192.808 668.775 192.258 668.775 191.588V188.793C668.775 188.117 669.325 187.573 669.995 187.573H672.79C673.46 187.573 674.01 188.123 674.01 188.793V191.588C674.016 192.258 673.466 192.808 672.79 192.808ZM663.099 192.808H660.304C659.634 192.808 659.084 192.258 659.084 191.588V188.793C659.084 188.117 659.634 187.573 660.304 187.573H663.099C663.769 187.573 664.319 188.123 664.319 188.793V191.588C664.319 192.258 663.769 192.808 663.099 192.808ZM653.403 192.808H650.608C649.938 192.808 649.388 192.258 649.388 191.588V188.793C649.388 188.117 649.938 187.573 650.608 187.573H653.403C654.073 187.573 654.623 188.123 654.623 188.793V191.588C654.628 192.258 654.078 192.808 653.403 192.808ZM643.712 192.808H640.917C640.247 192.808 639.697 192.258 639.697 191.588V188.793C639.697 188.117 640.247 187.573 640.917 187.573H643.712C644.388 187.573 644.937 188.123 644.937 188.793V191.588C644.934 191.911 644.804 192.221 644.574 192.449C644.345 192.677 644.035 192.806 643.712 192.808ZM634.021 192.808H631.226C630.55 192.808 630 192.258 630 191.588V188.793C630 188.117 630.55 187.573 631.226 187.573H634.021C634.691 187.573 635.241 188.123 635.241 188.793V191.588C635.241 192.258 634.691 192.808 634.021 192.808ZM662.744 182.241H659.949C659.279 182.241 658.729 181.691 658.729 181.021V178.22C658.729 177.55 659.279 177 659.949 177H662.744C663.42 177 663.964 177.55 663.964 178.22V181.015C663.965 181.176 663.934 181.335 663.873 181.484C663.813 181.633 663.723 181.768 663.609 181.882C663.496 181.996 663.361 182.087 663.213 182.148C663.064 182.21 662.905 182.241 662.744 182.241ZM653.053 182.241H650.258C649.588 182.241 649.038 181.691 649.038 181.021V178.22C649.038 177.55 649.588 177 650.258 177H653.053C653.723 177 654.273 177.55 654.273 178.22V181.015C654.274 181.176 654.243 181.335 654.182 181.484C654.122 181.633 654.032 181.768 653.918 181.882C653.805 181.996 653.67 182.087 653.522 182.148C653.373 182.21 653.214 182.241 653.053 182.241ZM643.362 182.241H640.567C639.891 182.241 639.342 181.691 639.342 181.021V178.22C639.342 177.55 639.891 177 640.567 177H643.362C644.032 177 644.582 177.55 644.582 178.22V181.015C644.582 181.691 644.032 182.241 643.362 182.241ZM653.403 204.16H650.608C649.938 204.16 649.388 203.61 649.388 202.94V200.145C649.388 199.469 649.938 198.925 650.608 198.925H653.403C654.073 198.925 654.623 199.475 654.623 200.145V202.94C654.628 203.61 654.078 204.16 653.403 204.16ZM643.712 204.16H640.917C640.247 204.16 639.697 203.61 639.697 202.94V200.145C639.697 199.469 640.247 198.925 640.917 198.925H643.712C644.388 198.925 644.937 199.475 644.937 200.145V202.94C644.934 203.263 644.804 203.573 644.574 203.801C644.345 204.029 644.035 204.158 643.712 204.16Z" fill="#E1E4E5"/>
<path d="M595.002 435.866L618.204 412.664C619.048 411.82 619.048 410.45 618.204 409.605L618.203 409.605C617.358 408.76 615.989 408.76 615.144 409.605L591.942 432.806C591.098 433.651 591.098 435.02 591.942 435.865L591.943 435.866C592.788 436.711 594.157 436.711 595.002 435.866Z" fill="#E1E4E5"/>
<path d="M597.273 419.254L603.965 412.563C604.809 411.718 604.809 410.348 603.965 409.504L603.964 409.503C603.119 408.658 601.75 408.658 600.905 409.503L594.214 416.194C593.369 417.039 593.369 418.409 594.214 419.253L594.214 419.254C595.059 420.099 596.429 420.099 597.273 419.254Z" fill="#E1E4E5"/>
<path d="M504.405 185.619L516.566 173.458C517.009 173.015 517.009 172.297 516.566 171.854C516.123 171.412 515.405 171.412 514.962 171.854L502.802 184.015C502.359 184.458 502.359 185.176 502.802 185.619C503.244 186.062 503.962 186.062 504.405 185.619Z" fill="#E1E4E5"/>
<path d="M505.596 176.913L509.103 173.405C509.546 172.963 509.546 172.245 509.103 171.802C508.66 171.359 507.942 171.359 507.499 171.802L503.992 175.309C503.549 175.752 503.549 176.47 503.992 176.913C504.435 177.355 505.153 177.355 505.596 176.913Z" fill="#E1E4E5"/>
<path d="M519 405C519 408.314 521.686 411 525 411C528.314 411 531 408.314 531 405C531 401.686 528.314 399 525 399C521.686 399 519 401.686 519 405Z" fill="#E1E4E5"/>
<path d="M517 191C517 194.314 519.686 197 523 197C526.314 197 529 194.314 529 191C529 187.686 526.314 185 523 185C519.686 185 517 187.686 517 191Z" fill="#E1E4E5"/>
<path d="M601.782 113.921C605.659 112.882 607.96 108.897 606.921 105.02C605.882 101.143 601.897 98.8417 598.02 99.8806C594.143 100.92 591.842 104.905 592.881 108.782C593.92 112.659 597.905 114.96 601.782 113.921Z" fill="#E1E4E5"/>
<path fill-rule="evenodd" clip-rule="evenodd" d="M591 162.56V138.509C590.999 137.917 591.115 137.332 591.341 136.785C591.567 136.238 591.898 135.741 592.316 135.322C592.734 134.904 593.23 134.571 593.776 134.344C594.323 134.118 594.908 134.001 595.5 134H622.5C624.986 134 627 136.018 627 138.509V162.56C627 163.364 626.786 164.153 626.379 164.845C625.972 165.538 625.387 166.11 624.685 166.501L611.185 174.016C610.517 174.389 609.764 174.585 608.999 174.585C608.234 174.585 607.481 174.389 606.813 174.016L593.313 166.501C592.612 166.109 592.028 165.537 591.621 164.845C591.215 164.152 591 163.363 591 162.56Z" fill="#E1E4E5"/>
<path d="M601.517 153.888H616.483M601.517 146.877H616.483M601.517 160.698H616.483" stroke="white" stroke-width="2.529" stroke-linecap="round" stroke-linejoin="round"/>
</g>
<defs>
<linearGradient id="paint0_linear_1235_20004" x1="460.31" y1="534.551" x2="460.255" y2="454.507" gradientUnits="userSpaceOnUse">
<stop stop-color="white"/>
<stop offset="1" stop-color="#EEEEEE"/>
</linearGradient>
<linearGradient id="paint1_linear_1235_20004" x1="519.335" y1="524.102" x2="515.152" y2="-48.018" gradientUnits="userSpaceOnUse">
<stop stop-color="white"/>
<stop offset="1" stop-color="#EEEEEE"/>
</linearGradient>
<linearGradient id="paint2_linear_1235_20004" x1="394.8" y1="367.872" x2="391.484" y2="-85.056" gradientUnits="userSpaceOnUse">
<stop stop-color="white"/>
<stop offset="1" stop-color="#EEEEEE"/>
</linearGradient>
<clipPath id="clip0_1235_20004">
<rect width="900" height="600" fill="white"/>
</clipPath>
</defs>
</svg>
