<svg width="900" height="600" viewBox="0 0 900 600" fill="none" xmlns="http://www.w3.org/2000/svg">
<g clip-path="url(#clip0_1235_20033)">
<path fill-rule="evenodd" clip-rule="evenodd" d="M481.576 269.086L373.576 437.908H605.709L497.709 269.086C494.124 263.482 485.161 263.482 481.576 269.086Z" fill="white" stroke="#E1E4E5" stroke-width="4"/>
<path fill-rule="evenodd" clip-rule="evenodd" d="M459.691 303.335L484.467 264.606C486.767 261.011 492.517 261.011 494.818 264.606L525.252 312.182C526.244 313.732 526.535 315.567 526.066 317.306L526.033 317.426C524.975 321.346 519.507 322.624 516.472 319.661L506.713 310.131C504.103 307.582 499.56 307.827 497.305 310.638L497.229 310.732C495.603 312.76 492.352 312.993 490.39 311.223L490.315 311.155C488.377 309.406 485.156 309.669 483.598 311.704L478.455 318.422C476.354 321.168 471.637 320.342 470.824 317.086L468.262 306.829C467.791 304.942 465.244 304.212 463.652 305.507L463.186 305.887C461.261 307.454 458.395 305.361 459.691 303.335ZM378.736 263.669L489 436.369H252L362.264 263.669C365.925 257.936 375.075 257.936 378.736 263.669Z" fill="white" stroke="#E1E4E5" stroke-width="4"/>
<path fill-rule="evenodd" clip-rule="evenodd" d="M441.977 299.479L522 424.369H350L430.023 299.479C432.68 295.333 439.32 295.333 441.977 299.479ZM401.66 298.623L375.743 258.185C373.337 254.431 367.322 254.431 364.916 258.185L333.08 307.86C332.043 309.478 331.738 311.394 332.229 313.21L332.263 313.335C333.371 317.428 339.09 318.762 342.264 315.669L352.473 305.718C355.203 303.057 359.955 303.313 362.314 306.248L362.393 306.346C364.095 308.463 367.495 308.707 369.547 306.858L369.626 306.787C371.653 304.961 375.023 305.236 376.652 307.361L382.031 314.375C384.23 317.242 389.164 316.38 390.014 312.981L392.694 302.271C393.186 300.301 395.851 299.538 397.516 300.89L398.004 301.287C400.017 302.923 403.015 300.738 401.66 298.623Z" fill="white" stroke="#E1E4E5" stroke-width="4"/>
<path fill-rule="evenodd" clip-rule="evenodd" d="M457.767 323.669L439.995 296.276C438.345 293.732 434.221 293.732 432.571 296.276L410.741 329.926C410.029 331.022 409.82 332.321 410.157 333.551L410.181 333.636C410.94 336.408 414.862 337.312 417.038 335.217L424.039 328.476C425.911 326.673 429.169 326.846 430.787 328.834L430.841 328.901C432.008 330.335 434.34 330.5 435.747 329.248L435.801 329.2C437.191 327.963 439.501 328.149 440.619 329.588L444.307 334.34C445.815 336.282 449.198 335.698 449.781 333.395L451.618 326.14C451.956 324.806 453.784 324.289 454.925 325.205L455.26 325.474C456.641 326.582 458.696 325.102 457.767 323.669ZM512.102 280.751L409.906 440.501H629.564L527.368 280.751C523.975 275.448 515.494 275.448 512.102 280.751Z" fill="white" stroke="#E1E4E5" stroke-width="4"/>
<path fill-rule="evenodd" clip-rule="evenodd" d="M351.33 338.993L416 444.369H277L341.67 338.993C343.817 335.495 349.183 335.495 351.33 338.993Z" fill="white" stroke="#E1E4E5" stroke-width="4"/>
<path fill-rule="evenodd" clip-rule="evenodd" d="M429.101 354.602L484 444.367H366L420.899 354.602C422.722 351.622 427.278 351.622 429.101 354.602Z" fill="white" stroke="#E1E4E5" stroke-width="4"/>
<path fill-rule="evenodd" clip-rule="evenodd" d="M109 497.189C109 497.189 178.801 428.344 276.877 427.377C375.398 426.406 453.78 494.832 461 498.367L109 497.189Z" fill="white" stroke="#E1E4E5" stroke-width="4"/>
<path fill-rule="evenodd" clip-rule="evenodd" d="M268 497.81C268 497.81 361.398 406.663 492.631 405.383C624.458 404.097 729.338 494.689 739 499.369L268 497.81Z" fill="white" stroke="#E1E4E5" stroke-width="4"/>
<path fill-rule="evenodd" clip-rule="evenodd" d="M480 498.339C480 498.339 541.869 438.22 628.8 437.376C716.125 436.528 785.6 496.28 792 499.367L480 498.339Z" fill="white" stroke="#E1E4E5" stroke-width="4"/>
<path fill-rule="evenodd" clip-rule="evenodd" d="M491 151.866C491 179.756 468.392 202.367 440.5 202.367C412.61 202.367 390 179.756 390 151.866C390 123.977 412.61 101.367 440.5 101.367C468.392 101.367 491 123.977 491 151.866Z" fill="#4F27AA"/>
<path fill-rule="evenodd" clip-rule="evenodd" d="M726.125 241.684C739.69 241.684 733.343 220.173 716.158 225.311C715.206 195.444 666.524 173.591 646.393 213.875C640.702 209.371 627.921 217.878 630.751 225.311C624.429 225.85 619.456 226.581 615.586 227.55C606.651 229.786 608.42 241.583 617.629 241.5L726.125 241.684ZM470.553 241.684C457.726 241.684 463.728 221.344 479.978 226.202C480.878 197.96 526.913 177.295 545.949 215.388C551.331 211.129 563.417 219.173 560.74 226.202C566.719 226.712 571.422 227.404 575.081 228.319C583.53 230.434 581.858 241.589 573.149 241.511L470.553 241.684ZM363.528 155.458C373.12 155.458 368.632 140.249 356.481 143.882C355.808 122.763 321.385 107.312 307.152 135.795C303.127 132.611 294.09 138.626 296.092 143.882C291.621 144.263 288.105 144.78 285.368 145.465C279.051 147.046 280.301 155.387 286.813 155.329L363.528 155.458ZM570.155 206.37H627.621C632.759 206.37 634.972 199.704 630.768 196.747L630.59 196.621C624.603 192.498 616.747 192.873 616.747 192.873C616.747 192.873 615.626 170.564 594.488 170.564C575.378 170.564 567.757 189.361 565.008 199.717C564.115 203.081 566.681 206.37 570.155 206.37ZM196.536 194.343H248.158C252.773 194.343 254.762 188.322 250.985 185.651L250.825 185.538C245.448 181.814 238.39 182.152 238.39 182.152C238.39 182.152 237.383 162.002 218.395 162.002C201.228 162.002 194.382 178.98 191.913 188.333C191.11 191.372 193.416 194.343 196.536 194.343ZM209.096 241.478H139.846C134.239 241.478 131.821 234.381 136.411 231.232C136.475 231.188 136.54 231.143 136.605 231.1C143.139 226.71 151.713 227.108 151.713 227.108C151.713 227.108 152.938 203.361 176.008 203.361C187.414 203.361 196.632 222.419 196.632 222.419C196.632 222.419 212.148 222.419 214.716 234.394C215.492 238.021 212.889 241.478 209.096 241.478ZM248.047 243.795H401.575C415.986 243.795 415.325 231.867 410.618 227.711C405.793 223.451 396.259 225.179 396.259 225.179C396.259 225.179 393.421 217.156 384.079 213.25C375.815 209.795 367.158 211.439 367.158 211.439C367.158 211.439 367.158 205.932 361.867 201.372C356.576 196.811 349.521 197.255 349.521 197.255C349.521 197.255 344.671 166.892 312.263 166.892C279.855 166.892 276.107 195.481 276.107 195.481C276.107 195.481 268.832 195.481 263.54 200.358C258.249 205.233 257.588 210.773 257.588 210.773C257.588 210.773 239.892 208.377 234.659 223.721C231.54 232.867 237.948 243.795 248.047 243.795ZM630.981 157.569H518.047C507.446 157.569 507.932 148.795 511.395 145.738C514.944 142.604 521.957 143.875 521.957 143.875C521.957 143.875 524.045 137.973 530.917 135.1C536.995 132.559 543.363 133.768 543.363 133.768C543.363 133.768 543.363 129.718 547.255 126.363C551.148 123.008 556.337 123.335 556.337 123.335C556.337 123.335 559.905 101 583.744 101C607.583 101 610.34 122.03 610.34 122.03C610.34 122.03 615.691 122.03 619.584 125.617C623.476 129.203 623.962 133.279 623.962 133.279C623.962 133.279 636.979 131.515 640.828 142.803C643.122 149.53 638.409 157.569 630.981 157.569Z" fill="white" stroke="#E1E4E5" stroke-width="4"/>
<path fill-rule="evenodd" clip-rule="evenodd" d="M704 452C695.994 467.889 680.569 471.424 664.494 472.919C649.032 474.356 633.641 473.937 618.118 473.761C594.963 473.497 573.313 481.858 557 499" fill="white"/>
<path d="M704 452C695.994 467.889 680.569 471.424 664.494 472.919C649.032 474.356 633.641 473.937 618.118 473.761C594.963 473.497 573.313 481.858 557 499" stroke="#E1E4E5" stroke-width="4"/>
<path d="M213 495.367V484.367" stroke="#E1E4E5" stroke-width="4"/>
<path d="M431 495.367V484.367" stroke="#E1E4E5" stroke-width="4"/>
<path d="M621 495.367V484.367" stroke="#E1E4E5" stroke-width="4"/>
<path d="M346 495.367V484.367" stroke="#E1E4E5" stroke-width="4"/>
<path d="M225 495.367V487.367" stroke="#E1E4E5" stroke-width="4"/>
<path d="M443 495.367V487.367" stroke="#E1E4E5" stroke-width="4"/>
<path d="M633 495.367V487.367" stroke="#E1E4E5" stroke-width="4"/>
<path d="M334 495.367V487.367" stroke="#E1E4E5" stroke-width="4"/>
<path d="M253 495.367V490.367" stroke="#E1E4E5" stroke-width="4"/>
<path d="M171 495.367V490.367" stroke="#E1E4E5" stroke-width="4"/>
<path d="M471 495.367V490.367" stroke="#E1E4E5" stroke-width="4"/>
<path d="M661 495.367V490.367" stroke="#E1E4E5" stroke-width="4"/>
<path d="M306 495.367V490.367" stroke="#E1E4E5" stroke-width="4"/>
<path d="M201 495.367V487.367" stroke="#E1E4E5" stroke-width="4"/>
<path d="M419 495.367V487.367" stroke="#E1E4E5" stroke-width="4"/>
<path d="M609 495.367V487.367" stroke="#E1E4E5" stroke-width="4"/>
<path d="M358 495.367V487.367" stroke="#E1E4E5" stroke-width="4"/>
<path fill-rule="evenodd" clip-rule="evenodd" d="M725.515 393.766H725.551C726.534 393.766 727.331 394.563 727.331 395.546V475.836H723.734V395.546C723.734 394.563 724.531 393.766 725.515 393.766Z" fill="white" stroke="#E1E4E5" stroke-width="4"/>
<path fill-rule="evenodd" clip-rule="evenodd" d="M694 431.356C694 448.847 708.179 463.027 725.671 463.027C743.163 463.027 757.342 448.847 757.342 431.356C757.342 413.864 743.163 379.367 725.671 379.367C708.179 379.367 694 413.864 694 431.356Z" fill="white"/>
<path d="M694 431.356C694 448.847 708.179 463.027 725.671 463.027C743.163 463.027 757.342 448.847 757.342 431.356C757.342 413.864 743.163 379.367 725.671 379.367C708.179 379.367 694 413.864 694 431.356Z" stroke="#E1E4E5" stroke-width="4"/>
<path fill-rule="evenodd" clip-rule="evenodd" d="M236.515 381.766H236.551C237.534 381.766 238.331 382.563 238.331 383.546V463.836H234.734V383.546C234.734 382.563 235.531 381.766 236.515 381.766Z" fill="white" stroke="#E1E4E5" stroke-width="4"/>
<path fill-rule="evenodd" clip-rule="evenodd" d="M205 419.356C205 436.847 219.179 451.027 236.671 451.027C254.163 451.027 268.342 436.847 268.342 419.356C268.342 401.864 254.163 367.367 236.671 367.367C219.179 367.367 205 401.864 205 419.356Z" fill="white"/>
<path d="M205 419.356C205 436.847 219.179 451.027 236.671 451.027C254.163 451.027 268.342 436.847 268.342 419.356C268.342 401.864 254.163 367.367 236.671 367.367C219.179 367.367 205 401.864 205 419.356Z" stroke="#E1E4E5" stroke-width="4"/>
<path fill-rule="evenodd" clip-rule="evenodd" d="M152.348 418.035H152.374C153.103 418.035 153.693 418.625 153.693 419.354V478.837H151.028V419.354C151.028 419.004 151.167 418.669 151.415 418.421C151.662 418.174 151.998 418.035 152.348 418.035Z" fill="white" stroke="#E1E4E5" stroke-width="4"/>
<path fill-rule="evenodd" clip-rule="evenodd" d="M129 445.883C129 458.841 139.505 469.346 152.463 469.346C165.422 469.346 175.927 458.841 175.927 445.883C175.927 432.924 165.422 407.367 152.463 407.367C139.505 407.367 129 432.924 129 445.883Z" fill="white"/>
<path d="M129 445.883C129 458.841 139.505 469.346 152.463 469.346C165.422 469.346 175.927 458.841 175.927 445.883C175.927 432.924 165.422 407.367 152.463 407.367C139.505 407.367 129 432.924 129 445.883Z" stroke="#E1E4E5" stroke-width="4"/>
<path fill-rule="evenodd" clip-rule="evenodd" d="M545.348 380.035H545.374C546.103 380.035 546.693 380.625 546.693 381.354V440.837H544.028V381.354C544.028 381.004 544.168 380.669 544.415 380.421C544.663 380.174 544.998 380.035 545.348 380.035Z" fill="white" stroke="#E1E4E5" stroke-width="4"/>
<path fill-rule="evenodd" clip-rule="evenodd" d="M522 407.883C522 420.841 532.505 431.346 545.463 431.346C558.422 431.346 568.927 420.841 568.927 407.883C568.927 394.924 558.422 369.367 545.463 369.367C532.505 369.367 522 394.924 522 407.883Z" fill="white"/>
<path d="M522 407.883C522 420.841 532.505 431.346 545.463 431.346C558.422 431.346 568.927 420.841 568.927 407.883C568.927 394.924 558.422 369.367 545.463 369.367C532.505 369.367 522 394.924 522 407.883Z" stroke="#E1E4E5" stroke-width="4"/>
<path fill-rule="evenodd" clip-rule="evenodd" d="M360.507 416.453H360.525C361.009 416.453 361.401 416.845 361.401 417.329V456.836H359.631V417.329C359.631 416.845 360.023 416.453 360.507 416.453Z" fill="white" stroke="#E1E4E5" stroke-width="4"/>
<path fill-rule="evenodd" clip-rule="evenodd" d="M345 434.949C345 443.555 351.977 450.533 360.584 450.533C369.191 450.533 376.168 443.555 376.168 434.949C376.168 426.342 369.191 409.367 360.584 409.367C351.977 409.367 345 426.342 345 434.949Z" fill="white"/>
<path d="M345 434.949C345 443.555 351.977 450.533 360.584 450.533C369.191 450.533 376.168 443.555 376.168 434.949C376.168 426.342 369.191 409.367 360.584 409.367C351.977 409.367 345 426.342 345 434.949Z" stroke="#E1E4E5" stroke-width="4"/>
<path fill-rule="evenodd" clip-rule="evenodd" d="M645.507 417.453H645.525C646.009 417.453 646.401 417.845 646.401 418.329V457.836H644.631V418.329C644.631 417.845 645.023 417.453 645.507 417.453Z" fill="white" stroke="#E1E4E5" stroke-width="4"/>
<path fill-rule="evenodd" clip-rule="evenodd" d="M630 435.949C630 444.555 636.977 451.533 645.584 451.533C654.191 451.533 661.168 444.555 661.168 435.949C661.168 427.342 654.191 410.367 645.584 410.367C636.977 410.367 630 427.342 630 435.949Z" fill="white"/>
<path d="M630 435.949C630 444.555 636.977 451.533 645.584 451.533C654.191 451.533 661.168 444.555 661.168 435.949C661.168 427.342 654.191 410.367 645.584 410.367C636.977 410.367 630 427.342 630 435.949Z" stroke="#E1E4E5" stroke-width="4"/>
<path fill-rule="evenodd" clip-rule="evenodd" d="M482.507 382.453H482.525C483.009 382.453 483.401 382.845 483.401 383.329V422.836H481.631V383.329C481.631 382.845 482.023 382.453 482.507 382.453Z" fill="white" stroke="#E1E4E5" stroke-width="4"/>
<path fill-rule="evenodd" clip-rule="evenodd" d="M467 400.949C467 409.555 473.977 416.533 482.584 416.533C491.191 416.533 498.168 409.555 498.168 400.949C498.168 392.342 491.191 375.367 482.584 375.367C473.977 375.367 467 392.342 467 400.949Z" fill="white"/>
<path d="M467 400.949C467 409.555 473.977 416.533 482.584 416.533C491.191 416.533 498.168 409.555 498.168 400.949C498.168 392.342 491.191 375.367 482.584 375.367C473.977 375.367 467 392.342 467 400.949Z" stroke="#E1E4E5" stroke-width="4"/>
<path fill-rule="evenodd" clip-rule="evenodd" d="M431.507 429.453H431.525C432.009 429.453 432.401 429.845 432.401 430.329V469.836H430.631V430.329C430.631 429.845 431.023 429.453 431.507 429.453Z" fill="white" stroke="#E1E4E5" stroke-width="4"/>
<path fill-rule="evenodd" clip-rule="evenodd" d="M416 447.949C416 456.555 422.977 463.533 431.584 463.533C440.191 463.533 447.168 456.555 447.168 447.949C447.168 439.342 440.191 422.367 431.584 422.367C422.977 422.367 416 439.342 416 447.949Z" fill="white"/>
<path d="M416 447.949C416 456.555 422.977 463.533 431.584 463.533C440.191 463.533 447.168 456.555 447.168 447.949C447.168 439.342 440.191 422.367 431.584 422.367C422.977 422.367 416 439.342 416 447.949Z" stroke="#E1E4E5" stroke-width="4"/>
<path d="M811.5 497H87.5C86.1193 497 85 498.119 85 499.5C85 500.881 86.1193 502 87.5 502H811.5C812.881 502 814 500.881 814 499.5C814 498.119 812.881 497 811.5 497Z" fill="#E1E4E5"/>
</g>
<defs>
<clipPath id="clip0_1235_20033">
<rect width="900" height="600" fill="white"/>
</clipPath>
</defs>
</svg>
