<svg width="900" height="600" viewBox="0 0 900 600" fill="none" xmlns="http://www.w3.org/2000/svg">
<g clip-path="url(#clip0_1235_20124)">
<path d="M654.431 305.796C641.509 308.857 627.842 297.899 627.842 297.899C627.842 297.899 635.136 281.983 648.062 278.931C660.984 275.87 674.646 286.819 674.646 286.819C674.646 286.819 667.353 302.735 654.431 305.796Z" fill="url(#paint0_linear_1235_20124)"/>
<path d="M643.418 162.218C628.949 172.184 606.843 165.217 606.843 165.217C606.843 165.217 608.212 142.094 622.691 132.137C637.161 122.17 659.257 129.128 659.257 129.128C659.257 129.128 657.888 152.251 643.418 162.218Z" fill="url(#paint1_linear_1235_20124)"/>
<path d="M242.559 298.06C237.017 303.7 226.653 302.511 226.653 302.511C226.653 302.511 225.282 292.176 230.829 286.539C236.371 280.898 246.73 282.084 246.73 282.084C246.73 282.084 248.101 292.419 242.559 298.06Z" fill="url(#paint2_linear_1235_20124)"/>
<path d="M674.5 375C668.701 375 664 379.701 664 385.5C664 391.299 668.701 396 674.5 396C680.299 396 685 391.299 685 385.5C685 379.701 680.299 375 674.5 375Z" fill="#4F27AA"/>
<path d="M288.773 439C280.614 439 274 445.4 274 453.296C274 461.191 280.614 467.592 288.773 467.592C296.932 467.592 303.546 461.191 303.546 453.296C303.546 445.4 296.932 439 288.773 439Z" fill="#4F27AA"/>
<path d="M268.242 249.484C265.347 249.484 263 247.137 263 244.242C263 241.347 265.347 239 268.242 239C271.137 239 273.484 241.347 273.484 244.242C273.484 247.137 271.137 249.484 268.242 249.484Z" fill="#4F27AA"/>
<path d="M587.007 138.014C581.48 138.014 577 133.534 577 128.007C577 122.48 581.48 118 587.007 118C592.534 118 597.014 122.48 597.014 128.007C597.014 133.534 592.534 138.014 587.007 138.014Z" fill="#4F27AA"/>
<path d="M660 470C655.029 470 651 465.971 651 461C651 456.029 655.029 452 660 452C664.971 452 669 456.029 669 461C669 465.971 664.971 470 660 470Z" fill="#E1E4E5"/>
<path d="M325.337 479.672C323.495 479.672 322.001 478.178 322.001 476.336C322.001 474.494 323.495 473 325.337 473C327.18 473 328.673 474.494 328.673 476.336C328.673 478.178 327.18 479.672 325.337 479.672Z" fill="#E1E4E5"/>
<path d="M567.765 109.53C565.134 109.53 563 107.397 563 104.765C563 102.133 565.134 100 567.765 100C570.397 100 572.53 102.133 572.53 104.765C572.53 107.397 570.397 109.53 567.765 109.53Z" fill="#E1E4E5"/>
<path d="M302.201 287.498C302.866 289.982 301.392 292.536 298.908 293.201C296.423 293.867 293.87 292.393 293.204 289.908C292.538 287.424 294.013 284.871 296.497 284.205C298.981 283.539 301.535 285.013 302.201 287.498Z" fill="#E1E4E5"/>
<path d="M290.76 207.726C287.339 207.726 284.565 204.952 284.565 201.531C284.565 198.11 287.339 195.336 290.76 195.336C294.181 195.336 296.955 198.11 296.955 201.531C296.955 204.952 294.181 207.726 290.76 207.726Z" fill="#E1E4E5"/>
<path d="M637.766 345.624C635.135 345.624 633.001 343.917 633.001 341.812C633.001 339.707 635.135 338 637.766 338C640.398 338 642.531 339.707 642.531 341.812C642.531 343.917 640.398 345.624 637.766 345.624Z" fill="#E1E4E5"/>
<path d="M501.23 85.3619C502.616 90.5318 499.548 95.8457 494.378 97.2309C489.208 98.6162 483.894 95.5482 482.509 90.3784C481.123 85.2085 484.191 79.8946 489.361 78.5094C494.531 77.1241 499.845 80.1921 501.23 85.3619Z" fill="#E1E4E5"/>
<path d="M680.514 316.999H680.638C681.377 327.458 689.155 327.619 689.155 327.619C689.155 327.619 680.578 327.787 680.578 339.873C680.578 327.787 672 327.619 672 327.619C672 327.619 679.776 327.458 680.514 316.999ZM328.773 144.822H328.988C330.259 163.126 343.656 163.408 343.656 163.408C343.656 163.408 328.883 163.701 328.883 184.851C328.883 163.701 314.111 163.408 314.111 163.408C314.111 163.408 327.502 163.126 328.773 144.822Z" fill="#E1E4E5"/>
<path fill-rule="evenodd" clip-rule="evenodd" d="M592.396 178.879L535.39 121.823C531.648 118.077 527.205 115.105 522.315 113.076C517.424 111.048 512.182 110.002 506.887 110H362.315C340.041 110 322 128.057 322 150.351V432.809C322 455.103 340.041 473.161 362.315 473.161H563.893C586.167 473.161 604.208 455.103 604.208 432.809V207.408C604.205 196.709 599.957 186.449 592.396 178.879Z" fill="white" stroke="#E1E4E5" stroke-width="4"/>
<path d="M387.263 250.973H511.681M387.263 307.333H511.681M387 363.501H527" stroke="#E1E4E5" stroke-width="25.125" stroke-linecap="round" stroke-linejoin="round"/>
<path d="M633.62 408H484.38C461.526 408 443 426.526 443 449.38C443 472.234 461.526 490.76 484.38 490.76H633.62C656.474 490.76 675 472.234 675 449.38C675 426.526 656.474 408 633.62 408Z" fill="white" stroke="#E1E4E5" stroke-width="4"/>
<path d="M518.299 449.381C518.299 431.023 503.417 416.141 485.059 416.141C466.701 416.141 451.819 431.023 451.819 449.381C451.819 467.739 466.701 482.621 485.059 482.621C503.417 482.621 518.299 467.739 518.299 449.381Z" fill="#4F27AA"/>
<path fill-rule="evenodd" clip-rule="evenodd" d="M500.164 463.323V465.546C500.164 466.772 499.181 467.768 497.97 467.768H471.649C470.439 467.768 469.456 466.772 469.456 465.546V463.287C469.456 456.562 477.041 452.192 484.81 452.192C492.579 452.192 500.164 456.564 500.164 463.287M490.317 432.666C491.065 433.384 491.661 434.244 492.073 435.195C492.484 436.146 492.701 437.17 492.711 438.206C492.722 439.242 492.526 440.27 492.134 441.23C491.742 442.189 491.163 443.061 490.43 443.793C489.697 444.526 488.825 445.105 487.866 445.497C486.907 445.888 485.879 446.084 484.842 446.074C483.806 446.063 482.782 445.846 481.831 445.434C480.88 445.023 480.021 444.426 479.303 443.678C477.892 442.208 477.113 440.243 477.134 438.205C477.155 436.167 477.974 434.218 479.416 432.777C480.857 431.336 482.806 430.517 484.844 430.496C486.882 430.476 488.847 431.255 490.317 432.666Z" fill="white"/>
<path d="M645.492 426.994H529.492C527.431 426.994 525.761 428.665 525.761 430.725C525.761 432.786 527.431 434.456 529.492 434.456H645.492C647.552 434.456 649.223 432.786 649.223 430.725C649.223 428.665 647.552 426.994 645.492 426.994Z" fill="#E1E4E5"/>
<path d="M645.491 445.311H529.491C527.43 445.311 525.76 446.981 525.76 449.042C525.76 451.102 527.43 452.773 529.491 452.773H645.491C647.551 452.773 649.222 451.102 649.222 449.042C649.222 446.981 647.551 445.311 645.491 445.311Z" fill="#E1E4E5"/>
<path d="M645.491 463.625H529.491C527.43 463.625 525.76 465.295 525.76 467.356C525.76 469.417 527.43 471.087 529.491 471.087H645.491C647.551 471.087 649.222 469.417 649.222 467.356C649.222 465.295 647.551 463.625 645.491 463.625Z" fill="#E1E4E5"/>
<path d="M407.62 130H258.38C235.526 130 217 148.526 217 171.38C217 194.234 235.526 212.76 258.38 212.76H407.62C430.474 212.76 449 194.234 449 171.38C449 148.526 430.474 130 407.62 130Z" fill="white" stroke="#E1E4E5" stroke-width="4"/>
<path d="M292.299 171.381C292.299 153.023 277.417 138.141 259.059 138.141C240.701 138.141 225.819 153.023 225.819 171.381C225.819 189.739 240.701 204.621 259.059 204.621C277.417 204.621 292.299 189.739 292.299 171.381Z" fill="#4F27AA"/>
<path fill-rule="evenodd" clip-rule="evenodd" d="M274.164 185.323V187.546C274.164 188.772 273.181 189.768 271.97 189.768H245.649C244.439 189.768 243.456 188.772 243.456 187.546V185.287C243.456 178.562 251.041 174.192 258.81 174.192C266.579 174.192 274.164 178.564 274.164 185.287M264.317 154.666C265.065 155.384 265.661 156.244 266.073 157.195C266.484 158.146 266.701 159.17 266.711 160.206C266.722 161.242 266.526 162.27 266.134 163.23C265.742 164.189 265.163 165.061 264.43 165.793C263.697 166.526 262.825 167.105 261.866 167.497C260.907 167.888 259.879 168.084 258.842 168.074C257.806 168.063 256.782 167.846 255.831 167.434C254.88 167.023 254.021 166.426 253.303 165.678C251.892 164.208 251.113 162.243 251.134 160.205C251.155 158.167 251.974 156.218 253.416 154.777C254.857 153.336 256.806 152.517 258.844 152.496C260.882 152.476 262.847 153.255 264.317 154.666Z" fill="white"/>
<path d="M419.492 148.994H303.492C301.431 148.994 299.761 150.665 299.761 152.725C299.761 154.786 301.431 156.456 303.492 156.456H419.492C421.553 156.456 423.223 154.786 423.223 152.725C423.223 150.665 421.553 148.994 419.492 148.994Z" fill="#E1E4E5"/>
<path d="M419.491 167.311H303.491C301.43 167.311 299.76 168.981 299.76 171.042C299.76 173.102 301.43 174.773 303.491 174.773H419.491C421.552 174.773 423.222 173.102 423.222 171.042C423.222 168.981 421.552 167.311 419.491 167.311Z" fill="#E1E4E5"/>
<path d="M419.491 185.625H303.491C301.43 185.625 299.76 187.295 299.76 189.356C299.76 191.417 301.43 193.087 303.491 193.087H419.491C421.552 193.087 423.222 191.417 423.222 189.356C423.222 187.295 421.552 185.625 419.491 185.625Z" fill="#E1E4E5"/>
<path d="M641.5 181H516.5C493.58 181 475 199.58 475 222.5C475 245.42 493.58 264 516.5 264H641.5C664.42 264 683 245.42 683 222.5C683 199.58 664.42 181 641.5 181Z" fill="white" stroke="#E1E4E5" stroke-width="4"/>
<path d="M550.299 222.381C550.299 204.023 535.417 189.141 517.059 189.141C498.701 189.141 483.819 204.023 483.819 222.381C483.819 240.739 498.701 255.621 517.059 255.621C535.417 255.621 550.299 240.739 550.299 222.381Z" fill="#4F27AA"/>
<path fill-rule="evenodd" clip-rule="evenodd" d="M532.164 236.323V238.546C532.164 239.772 531.181 240.768 529.97 240.768H503.649C502.439 240.768 501.456 239.772 501.456 238.546V236.287C501.456 229.562 509.041 225.192 516.81 225.192C524.579 225.192 532.164 229.564 532.164 236.287M522.317 205.666C523.065 206.384 523.661 207.244 524.073 208.195C524.484 209.146 524.701 210.17 524.711 211.206C524.722 212.242 524.526 213.27 524.134 214.23C523.742 215.189 523.163 216.061 522.43 216.793C521.697 217.526 520.825 218.105 519.866 218.497C518.907 218.888 517.879 219.084 516.842 219.074C515.806 219.063 514.782 218.846 513.831 218.434C512.88 218.023 512.021 217.426 511.303 216.678C509.892 215.208 509.113 213.243 509.134 211.205C509.155 209.167 509.974 207.218 511.416 205.777C512.857 204.336 514.806 203.517 516.844 203.496C518.882 203.476 520.847 204.255 522.317 205.666Z" fill="white"/>
<path d="M646.5 200H561.5C559.567 200 558 201.567 558 203.5C558 205.433 559.567 207 561.5 207H646.5C648.433 207 650 205.433 650 203.5C650 201.567 648.433 200 646.5 200Z" fill="#E1E4E5"/>
<path d="M646 218H562C559.791 218 558 219.791 558 222C558 224.209 559.791 226 562 226H646C648.209 226 650 224.209 650 222C650 219.791 648.209 218 646 218Z" fill="#E1E4E5"/>
<path d="M646.5 237H561.5C559.567 237 558 238.567 558 240.5C558 242.433 559.567 244 561.5 244H646.5C648.433 244 650 242.433 650 240.5C650 238.567 648.433 237 646.5 237Z" fill="#E1E4E5"/>
<path d="M384.5 338H259.5C236.58 338 218 356.58 218 379.5C218 402.42 236.58 421 259.5 421H384.5C407.42 421 426 402.42 426 379.5C426 356.58 407.42 338 384.5 338Z" fill="white" stroke="#E1E4E5" stroke-width="4"/>
<path d="M293.299 379.381C293.299 361.023 278.417 346.141 260.059 346.141C241.701 346.141 226.819 361.023 226.819 379.381C226.819 397.739 241.701 412.621 260.059 412.621C278.417 412.621 293.299 397.739 293.299 379.381Z" fill="#4F27AA"/>
<path fill-rule="evenodd" clip-rule="evenodd" d="M275.164 393.323V395.546C275.164 396.772 274.181 397.768 272.97 397.768H246.649C245.439 397.768 244.456 396.772 244.456 395.546V393.287C244.456 386.562 252.041 382.192 259.81 382.192C267.579 382.192 275.164 386.564 275.164 393.287M265.317 362.666C266.065 363.384 266.661 364.244 267.073 365.195C267.484 366.146 267.701 367.17 267.711 368.206C267.722 369.242 267.526 370.27 267.134 371.23C266.742 372.189 266.163 373.061 265.43 373.793C264.697 374.526 263.825 375.105 262.866 375.497C261.907 375.888 260.879 376.084 259.842 376.074C258.806 376.063 257.782 375.846 256.831 375.434C255.88 375.023 255.021 374.426 254.303 373.678C252.892 372.208 252.113 370.243 252.134 368.205C252.155 366.167 252.974 364.218 254.416 362.777C255.857 361.336 257.806 360.517 259.844 360.496C261.882 360.476 263.847 361.255 265.317 362.666Z" fill="white"/>
<path d="M389.5 357H304.5C302.567 357 301 358.567 301 360.5C301 362.433 302.567 364 304.5 364H389.5C391.433 364 393 362.433 393 360.5C393 358.567 391.433 357 389.5 357Z" fill="#E1E4E5"/>
<path d="M389 375H305C302.791 375 301 376.791 301 379C301 381.209 302.791 383 305 383H389C391.209 383 393 381.209 393 379C393 376.791 391.209 375 389 375Z" fill="#E1E4E5"/>
<path d="M389.5 394H304.5C302.567 394 301 395.567 301 397.5C301 399.433 302.567 401 304.5 401H389.5C391.433 401 393 399.433 393 397.5C393 395.567 391.433 394 389.5 394Z" fill="#E1E4E5"/>
</g>
<defs>
<linearGradient id="paint0_linear_1235_20124" x1="605.771" y1="313.407" x2="718.888" y2="259.967" gradientUnits="userSpaceOnUse">
<stop stop-color="white"/>
<stop offset="1" stop-color="#EEEEEE"/>
</linearGradient>
<linearGradient id="paint1_linear_1235_20124" x1="587.053" y1="194.919" x2="700.955" y2="74.8129" gradientUnits="userSpaceOnUse">
<stop stop-color="white"/>
<stop offset="1" stop-color="#EEEEEE"/>
</linearGradient>
<linearGradient id="paint2_linear_1235_20124" x1="220.447" y1="317.327" x2="260.514" y2="254.519" gradientUnits="userSpaceOnUse">
<stop stop-color="white"/>
<stop offset="1" stop-color="#EEEEEE"/>
</linearGradient>
<clipPath id="clip0_1235_20124">
<rect width="900" height="600" fill="white"/>
</clipPath>
</defs>
</svg>
