<svg width="900" height="600" viewBox="0 0 900 600" fill="none" xmlns="http://www.w3.org/2000/svg">
<g clip-path="url(#clip0_1235_20167)">
<path d="M214.359 475.389C230.779 492.101 261.483 488.578 261.483 488.578C261.483 488.578 265.547 457.958 249.111 441.256C232.692 424.544 202.002 428.058 202.002 428.058C202.002 428.058 197.939 458.677 214.359 475.389Z" fill="url(#paint0_linear_1235_20167)"/>
<path d="M639.439 125.516C622.245 135.324 598.094 125.395 598.094 125.395C598.094 125.395 601.837 99.5682 619.04 89.7722C636.234 79.9642 660.375 89.8822 660.375 89.8822C660.375 89.8822 656.632 115.709 639.439 125.516Z" fill="url(#paint1_linear_1235_20167)"/>
<path d="M324.812 156.134C307.14 174.121 274.092 170.328 274.092 170.328C274.092 170.328 269.719 137.373 287.408 119.397C305.081 101.41 338.112 105.191 338.112 105.191C338.112 105.191 342.485 138.147 324.812 156.134Z" fill="url(#paint2_linear_1235_20167)"/>
<path d="M228.07 326.029C236.448 326.029 243.24 333.16 243.24 341.957C243.24 350.754 236.448 357.885 228.07 357.885C219.692 357.885 212.9 350.754 212.9 341.957C212.9 333.16 219.692 326.029 228.07 326.029Z" fill="#E1E4E5"/>
<path d="M478.5 501C483.194 501 487 504.806 487 509.5C487 514.194 483.194 518 478.5 518C473.806 518 470 514.194 470 509.5C470 504.806 473.806 501 478.5 501Z" fill="#4F27AA"/>
<path d="M693.518 402.999C703.193 402.999 711.036 410.842 711.036 420.517C711.036 430.192 703.193 438.035 693.518 438.035C683.843 438.035 676 430.192 676 420.517C676 410.842 683.843 402.999 693.518 402.999Z" fill="#4F27AA"/>
<path d="M708.183 280.366C716.016 280.366 722.366 274.016 722.366 266.183C722.366 258.35 716.016 252 708.183 252C700.35 252 694 258.35 694 266.183C694 274.016 700.35 280.366 708.183 280.366Z" fill="#2E2445"/>
<path d="M247.603 237.756C254.305 237.756 259.739 232.323 259.739 225.62C259.739 218.918 254.305 213.484 247.603 213.484C240.9 213.484 235.467 218.918 235.467 225.62C235.467 232.323 240.9 237.756 247.603 237.756Z" fill="#F8AE9D"/>
<path d="M316.324 517.734C320.369 517.734 323.648 514.66 323.648 510.867C323.648 507.074 320.369 504 316.324 504C312.279 504 309 507.074 309 510.867C309 514.66 312.279 517.734 316.324 517.734Z" fill="#E1E4E5"/>
<path d="M664.796 380.776C670.206 380.776 674.592 376.573 674.592 371.388C674.592 366.203 670.206 362 664.796 362C659.386 362 655 366.203 655 371.388C655 376.573 659.386 380.776 664.796 380.776Z" fill="#E1E4E5"/>
<path d="M625.378 490.756C631.661 490.756 636.755 485.662 636.755 479.379C636.755 473.096 631.661 468.002 625.378 468.002C619.095 468.002 614.001 473.096 614.001 479.379C614.001 485.662 619.095 490.756 625.378 490.756Z" fill="#E1E4E5"/>
<path d="M401.025 120.458C403.957 120.458 406.334 117.742 406.334 114.39C406.334 111.039 403.957 108.322 401.025 108.322C398.093 108.322 395.716 111.039 395.716 114.39C395.716 117.742 398.093 120.458 401.025 120.458Z" fill="#E1E4E5"/>
<path d="M656.444 299.39C655.646 302.367 657.413 305.427 660.39 306.224C663.366 307.022 666.426 305.255 667.224 302.278C668.021 299.302 666.255 296.242 663.278 295.444C660.301 294.647 657.242 296.413 656.444 299.39Z" fill="#E1E4E5"/>
<path d="M654.769 233.666C658.958 233.666 662.354 230.27 662.354 226.081C662.354 221.892 658.958 218.496 654.769 218.496C650.58 218.496 647.184 221.892 647.184 226.081C647.184 230.27 650.58 233.666 654.769 233.666Z" fill="#E1E4E5"/>
<path d="M254.159 289.497C257.091 289.497 259.468 287.459 259.468 284.946C259.468 282.432 257.091 280.395 254.159 280.395C251.227 280.395 248.85 282.432 248.85 284.946C248.85 287.459 251.227 289.497 254.159 289.497Z" fill="#E1E4E5"/>
<path d="M510.146 103.265C508.486 109.46 512.162 115.828 518.357 117.488C524.552 119.148 530.92 115.471 532.58 109.276C534.24 103.081 530.564 96.7129 524.369 95.0529C518.174 93.3929 511.806 97.0694 510.146 103.265Z" fill="#E1E4E5"/>
<path d="M162.314 308.104H162.165C161.284 320.59 152 320.782 152 320.782C152 320.782 162.238 320.982 162.238 335.41C162.238 320.982 172.476 320.782 172.476 320.782C172.476 320.782 163.195 320.59 162.314 308.104ZM694.144 149.592H693.888C692.37 171.096 676.381 171.427 676.381 171.427C676.381 171.427 694.013 171.772 694.013 196.619C694.013 171.772 711.645 171.427 711.645 171.427C711.645 171.427 695.662 171.096 694.144 149.592Z" fill="#E1E4E5"/>
<path fill-rule="evenodd" clip-rule="evenodd" d="M553.714 397.506V453.629C553.714 474.301 536.971 491.045 516.299 491.045H329.22C308.548 491.045 291.805 474.301 291.805 453.629V266.551C291.805 245.879 308.548 229.135 329.22 229.135H385.344" fill="url(#paint3_linear_1235_20167)"/>
<path fill-rule="evenodd" clip-rule="evenodd" d="M363.07 155.432H577.119C603.399 155.432 624.685 176.718 624.685 202.998V417.047C624.685 443.327 603.399 464.613 577.119 464.613H363.07C336.79 464.613 315.504 443.327 315.504 417.047V202.998C315.504 176.718 336.79 155.432 363.07 155.432Z" fill="#4F27AA"/>
<path d="M425.113 307.766L459.038 341.69L533.076 267.631" stroke="white" stroke-width="32.125" stroke-linecap="round" stroke-linejoin="round"/>
</g>
<defs>
<linearGradient id="paint0_linear_1235_20167" x1="279.871" y1="532.474" x2="161.165" y2="346.391" gradientUnits="userSpaceOnUse">
<stop stop-color="white"/>
<stop offset="1" stop-color="#EEEEEE"/>
</linearGradient>
<linearGradient id="paint1_linear_1235_20167" x1="573.046" y1="156.849" x2="712.364" y2="32.8882" gradientUnits="userSpaceOnUse">
<stop stop-color="white"/>
<stop offset="1" stop-color="#EEEEEE"/>
</linearGradient>
<linearGradient id="paint2_linear_1235_20167" x1="254.302" y1="217.574" x2="382.065" y2="17.2936" gradientUnits="userSpaceOnUse">
<stop stop-color="white"/>
<stop offset="1" stop-color="#EEEEEE"/>
</linearGradient>
<linearGradient id="paint3_linear_1235_20167" x1="417.175" y1="82.2938" x2="425.251" y2="775.958" gradientUnits="userSpaceOnUse">
<stop stop-color="white"/>
<stop offset="1" stop-color="#EEEEEE"/>
</linearGradient>
<clipPath id="clip0_1235_20167">
<rect width="900" height="600" fill="white"/>
</clipPath>
</defs>
</svg>
