<svg width="900" height="600" viewBox="0 0 900 600" fill="none" xmlns="http://www.w3.org/2000/svg">
<g clip-path="url(#clip0_1235_17965)">
<mask id="mask0_1235_17965" style="mask-type:alpha" maskUnits="userSpaceOnUse" x="0" y="0" width="900" height="600">
<path d="M0 0H900V600H0V0Z" fill="white"/>
</mask>
<g mask="url(#mask0_1235_17965)">
<path d="M603.956 320.564C580.052 304.641 551.802 300.345 525.892 306.324C532.574 281.229 522.997 253.586 500.174 238.384C471.499 219.284 432.774 227.026 413.691 255.675C409.782 261.547 406.894 268.038 405.151 274.874C346.608 238.014 269.031 254.308 230.486 312.177C191.316 370.983 207.279 450.431 266.141 489.638C325.003 528.845 404.467 512.959 443.636 454.153C447.489 448.359 450.872 442.266 453.752 435.933C460.609 456.145 473.934 474.333 493.083 487.088C539.11 517.746 601.251 505.323 631.88 459.339C662.508 413.356 649.983 351.222 603.956 320.564ZM462.519 352.518C462.218 353.005 461.942 353.487 461.657 353.985C461.54 353.471 461.407 352.947 461.29 352.433C461.698 352.476 462.106 352.518 462.519 352.518Z" fill="url(#paint0_linear_1235_17965)"/>
<path d="M615.33 270.008C592.875 284.234 559.861 272.414 559.861 272.414C559.861 272.414 563.276 237.536 585.746 223.326C608.201 209.101 641.201 220.905 641.201 220.905C641.201 220.905 637.786 255.783 615.33 270.008Z" fill="url(#paint1_linear_1235_17965)"/>
<path d="M560.159 499.801C559.739 499.635 559.396 499.317 559.2 498.91C559.004 498.503 558.969 498.037 559.101 497.605C559.233 497.173 559.523 496.807 559.914 496.579C560.304 496.351 560.766 496.279 561.207 496.377C565.555 497.373 569.93 498.246 574.328 498.995C574.56 499.035 574.782 499.12 574.981 499.246C575.18 499.372 575.352 499.535 575.488 499.728C575.623 499.92 575.72 500.137 575.771 500.367C575.823 500.596 575.829 500.834 575.789 501.066C575.707 501.534 575.444 501.951 575.056 502.225C574.668 502.5 574.187 502.61 573.719 502.531C569.254 501.769 564.811 500.884 560.395 499.876C560.316 499.853 560.236 499.831 560.159 499.801ZM586.709 504.383C586.302 504.225 585.966 503.924 585.765 503.536C585.564 503.148 585.511 502.701 585.617 502.277C585.722 501.853 585.978 501.482 586.338 501.234C586.697 500.985 587.134 500.876 587.568 500.927C592.01 501.456 596.485 501.877 600.877 502.178C601.35 502.212 601.791 502.431 602.104 502.788C602.416 503.146 602.574 503.612 602.544 504.086C602.512 504.56 602.293 505.003 601.936 505.316C601.578 505.63 601.11 505.789 600.636 505.758C596.179 505.457 591.643 505.028 587.141 504.492C586.994 504.47 586.849 504.434 586.709 504.383ZM613.557 506.177C613.166 506.025 612.84 505.74 612.637 505.372C612.434 505.005 612.367 504.578 612.446 504.165C612.526 503.753 612.748 503.382 613.073 503.116C613.399 502.851 613.807 502.708 614.227 502.713C618.677 502.77 623.128 502.694 627.574 502.484C627.809 502.473 628.044 502.508 628.265 502.588C628.487 502.667 628.69 502.79 628.864 502.948C629.038 503.107 629.179 503.298 629.279 503.511C629.379 503.724 629.435 503.955 629.446 504.19C629.492 505.18 628.729 506.02 627.74 506.068C623.31 506.283 618.749 506.359 614.178 506.295C613.965 506.297 613.754 506.257 613.557 506.177ZM640.421 504.876C640.114 504.759 639.846 504.559 639.646 504.299C639.445 504.039 639.32 503.729 639.285 503.403C639.258 503.169 639.278 502.932 639.343 502.706C639.408 502.48 639.516 502.269 639.663 502.084C639.809 501.9 639.991 501.747 640.197 501.633C640.403 501.519 640.629 501.446 640.863 501.42C645.344 500.904 649.773 500.23 654.03 499.419C654.261 499.374 654.499 499.375 654.73 499.423C654.961 499.47 655.18 499.563 655.374 499.696C655.569 499.829 655.735 499.999 655.863 500.196C655.992 500.394 656.08 500.615 656.122 500.847C656.212 501.314 656.112 501.797 655.846 502.191C655.579 502.585 655.167 502.856 654.7 502.946C650.249 503.793 645.768 504.475 641.267 504.991C640.98 505.016 640.691 504.976 640.421 504.876ZM666.812 499.784C666.55 499.685 666.315 499.525 666.127 499.317C665.939 499.11 665.802 498.86 665.729 498.59C665.602 498.131 665.663 497.64 665.897 497.225C666.131 496.81 666.52 496.505 666.979 496.376C671.243 495.184 675.448 493.792 679.582 492.205C680.026 492.036 680.519 492.049 680.953 492.242C681.387 492.436 681.727 492.794 681.898 493.237C682.25 494.16 681.788 495.197 680.864 495.558C676.626 497.185 672.314 498.611 667.941 499.831C667.57 499.939 667.173 499.923 666.812 499.784ZM691.844 490.097C691.429 489.939 691.089 489.631 690.891 489.234C690.675 488.809 690.638 488.316 690.786 487.864C690.933 487.411 691.255 487.035 691.68 486.82C695.61 484.814 699.424 482.589 703.105 480.156C703.301 480.026 703.521 479.935 703.752 479.89C703.983 479.845 704.221 479.846 704.452 479.892C704.683 479.939 704.902 480.031 705.098 480.162C705.293 480.294 705.461 480.463 705.591 480.659C705.853 481.056 705.947 481.542 705.853 482.008C705.758 482.475 705.482 482.885 705.086 483.149C701.292 485.66 697.36 487.955 693.308 490.023C693.082 490.135 692.835 490.199 692.584 490.212C692.332 490.225 692.08 490.185 691.844 490.097ZM714.167 475.257C713.877 475.145 713.621 474.959 713.425 474.717C713.229 474.476 713.098 474.188 713.047 473.882C712.995 473.575 713.024 473.26 713.131 472.968C713.238 472.676 713.419 472.417 713.656 472.216C717.007 469.358 720.183 466.3 723.165 463.058C723.324 462.885 723.516 462.744 723.73 462.645C723.943 462.546 724.174 462.49 724.409 462.48C724.644 462.47 724.879 462.506 725.1 462.587C725.322 462.668 725.525 462.792 725.698 462.951C725.871 463.11 726.011 463.302 726.111 463.516C726.21 463.729 726.266 463.96 726.276 464.195C726.286 464.431 726.249 464.665 726.169 464.887C726.088 465.108 725.964 465.311 725.805 465.484C722.725 468.836 719.443 471.996 715.978 474.947C715.448 475.387 714.754 475.482 714.167 475.257ZM732.309 455.544C732.053 455.446 731.823 455.29 731.636 455.088C731.45 454.887 731.312 454.645 731.234 454.382C731.156 454.119 731.139 453.842 731.185 453.571C731.231 453.301 731.338 453.044 731.499 452.822C734.073 449.243 736.446 445.525 738.608 441.683C738.723 441.477 738.877 441.296 739.062 441.15C739.248 441.004 739.46 440.897 739.687 440.834C739.914 440.77 740.152 440.753 740.386 440.782C740.619 440.811 740.845 440.887 741.05 441.004C741.255 441.12 741.436 441.275 741.581 441.461C741.727 441.646 741.834 441.859 741.898 442.086C741.961 442.313 741.979 442.551 741.951 442.785C741.922 443.019 741.848 443.246 741.732 443.451C739.504 447.411 737.058 451.244 734.404 454.932C734.168 455.247 733.837 455.478 733.459 455.588C733.081 455.698 732.677 455.683 732.309 455.544ZM745.661 432.259L745.542 432.213C745.328 432.114 745.136 431.974 744.977 431.8C744.818 431.627 744.694 431.423 744.614 431.202C744.533 430.981 744.497 430.746 744.507 430.511C744.517 430.275 744.574 430.044 744.674 429.831C746.54 425.812 748.229 421.713 749.735 417.546C749.81 417.319 749.93 417.11 750.088 416.931C750.245 416.751 750.437 416.605 750.651 416.5C750.866 416.396 751.1 416.336 751.338 416.323C751.577 416.31 751.815 416.345 752.04 416.426C752.265 416.507 752.471 416.631 752.647 416.793C752.823 416.955 752.964 417.15 753.063 417.367C753.163 417.584 753.217 417.819 753.225 418.058C753.232 418.297 753.191 418.534 753.105 418.757C752.766 419.704 752.403 420.673 752.035 421.633C750.771 424.916 749.398 428.156 747.919 431.348C747.726 431.755 747.386 432.075 746.968 432.244C746.549 432.413 746.083 432.418 745.661 432.259ZM754.643 406.937C754.238 406.78 753.904 406.481 753.702 406.096C753.5 405.712 753.444 405.267 753.544 404.844C754.6 400.435 755.356 396.055 755.788 391.833C755.836 391.36 756.069 390.926 756.437 390.626C756.805 390.325 757.277 390.183 757.75 390.23C757.984 390.254 758.211 390.325 758.418 390.437C758.625 390.549 758.808 390.701 758.956 390.884C759.104 391.067 759.215 391.277 759.281 391.503C759.348 391.728 759.37 391.965 759.345 392.199C758.892 396.583 758.11 401.113 757.019 405.678C756.908 406.14 756.618 406.54 756.213 406.788C755.808 407.037 755.32 407.115 754.858 407.004C754.793 406.986 754.713 406.964 754.643 406.937ZM757.269 380.265C756.947 380.14 756.668 379.925 756.465 379.647C756.262 379.368 756.143 379.036 756.123 378.692C755.868 374.231 755.22 369.875 754.186 365.75C754.07 365.289 754.141 364.8 754.385 364.392C754.629 363.983 755.025 363.689 755.486 363.572C755.714 363.514 755.951 363.502 756.184 363.536C756.417 363.57 756.64 363.65 756.842 363.77C757.044 363.891 757.22 364.05 757.36 364.239C757.5 364.428 757.602 364.643 757.659 364.871C758.747 369.21 759.431 373.788 759.702 378.48C759.715 378.715 759.682 378.951 759.605 379.173C759.527 379.395 759.407 379.6 759.25 379.776C759.093 379.952 758.903 380.095 758.691 380.198C758.479 380.3 758.249 380.36 758.014 380.373C757.75 380.393 757.5 380.353 757.269 380.265ZM703.144 357.287C702.719 357.124 702.372 356.804 702.175 356.394C701.977 355.983 701.944 355.513 702.081 355.079C702.223 354.625 702.539 354.245 702.961 354.024C703.382 353.803 703.874 353.758 704.329 353.9C708.295 355.146 712.688 355.801 717.031 355.794C717.5 355.806 717.945 356 718.273 356.336C718.6 356.672 718.783 357.123 718.782 357.592C718.781 358.061 718.597 358.511 718.269 358.846C717.941 359.181 717.495 359.375 717.026 359.385C712.323 359.391 707.561 358.674 703.248 357.327C703.216 357.307 703.172 357.298 703.144 357.287ZM691.464 350.866C691.251 350.783 691.056 350.661 690.887 350.508C686.485 346.402 684.767 341.508 686.06 336.732C686.184 336.274 686.484 335.883 686.896 335.646C687.307 335.409 687.795 335.345 688.254 335.467C688.481 335.529 688.694 335.635 688.88 335.779C689.066 335.923 689.222 336.102 689.339 336.307C689.456 336.511 689.531 336.737 689.561 336.97C689.59 337.204 689.573 337.441 689.511 337.668C688.323 342.067 690.927 345.653 693.319 347.888C693.623 348.17 693.819 348.55 693.874 348.961C693.928 349.372 693.838 349.79 693.619 350.142C693.4 350.494 693.065 350.759 692.672 350.891C692.278 351.023 691.851 351.014 691.464 350.866ZM729.618 357.251C729.364 357.155 729.136 357.002 728.951 356.804C728.765 356.606 728.627 356.368 728.548 356.109C728.407 355.655 728.452 355.163 728.672 354.742C728.892 354.321 729.27 354.003 729.723 353.859C733.824 352.576 737.689 350.634 741.166 348.11C741.356 347.971 741.572 347.871 741.801 347.816C742.03 347.761 742.267 347.752 742.5 347.788C742.732 347.825 742.955 347.908 743.156 348.031C743.357 348.154 743.531 348.316 743.669 348.507C743.807 348.698 743.907 348.914 743.962 349.143C744.016 349.372 744.026 349.61 743.989 349.843C743.952 350.076 743.869 350.299 743.746 350.5C743.622 350.701 743.461 350.876 743.27 351.014C739.48 353.769 735.265 355.886 730.793 357.283C730.398 357.413 729.982 357.39 729.618 357.251ZM750.671 354.389C750.251 354.228 749.907 353.915 749.707 353.513C747.787 349.617 745.413 345.961 742.636 342.622C742.485 342.441 742.371 342.233 742.301 342.008C742.231 341.783 742.206 341.547 742.227 341.312C742.249 341.078 742.316 340.85 742.426 340.642C742.535 340.433 742.685 340.248 742.866 340.098C743.046 339.947 743.254 339.834 743.479 339.764C743.703 339.693 743.939 339.668 744.173 339.689C744.407 339.71 744.634 339.777 744.842 339.886C745.051 339.995 745.235 340.144 745.386 340.324C748.34 343.883 750.867 347.775 752.916 351.922C753.355 352.806 752.996 353.89 752.106 354.328C751.636 354.55 751.119 354.561 750.671 354.389ZM695.702 328.902C695.387 328.779 695.113 328.571 694.911 328.3C694.71 328.029 694.588 327.707 694.561 327.371C694.533 327.034 694.601 326.697 694.756 326.397C694.912 326.097 695.148 325.847 695.439 325.675C699.415 323.357 704.033 322.129 709.164 322.03C709.399 322.025 709.633 322.067 709.852 322.153C710.071 322.24 710.27 322.368 710.44 322.531C710.609 322.695 710.744 322.89 710.838 323.106C710.931 323.322 710.981 323.554 710.985 323.789C710.989 324.024 710.947 324.258 710.861 324.477C710.775 324.696 710.647 324.896 710.483 325.066C710.32 325.235 710.125 325.371 709.909 325.465C709.693 325.559 709.461 325.61 709.226 325.614C704.717 325.702 700.686 326.761 697.245 328.77C697.014 328.907 696.756 328.99 696.489 329.013C696.221 329.036 695.952 328.998 695.702 328.902ZM751.029 341.756C750.881 341.697 750.741 341.622 750.61 341.531C750.419 341.392 750.258 341.216 750.136 341.014C750.013 340.813 749.932 340.589 749.896 340.355C749.86 340.122 749.871 339.884 749.927 339.655C749.984 339.426 750.085 339.21 750.225 339.02C752.665 335.688 754.757 331.86 756.435 327.649C756.61 327.212 756.95 326.861 757.381 326.671C757.812 326.482 758.3 326.469 758.741 326.636L758.762 326.644C759.203 326.82 759.556 327.165 759.744 327.602C759.931 328.038 759.938 328.531 759.762 328.973C757.967 333.468 755.732 337.563 753.11 341.139C752.878 341.456 752.55 341.687 752.174 341.799C751.798 341.91 751.395 341.895 751.029 341.756ZM733.573 333.997C733.43 333.94 733.294 333.866 733.168 333.777C729.571 331.193 725.721 329.163 721.771 327.77C721.323 327.611 720.957 327.28 720.753 326.85C720.549 326.421 720.524 325.928 720.683 325.48C720.761 325.258 720.882 325.053 721.04 324.878C721.197 324.703 721.387 324.56 721.6 324.459C721.813 324.357 722.043 324.299 722.278 324.287C722.514 324.275 722.749 324.309 722.971 324.388C727.238 325.895 731.396 328.083 735.262 330.867C736.066 331.448 736.249 332.563 735.674 333.371C735.184 334.043 734.315 334.281 733.573 333.997ZM761.188 317.07C760.795 316.918 760.467 316.633 760.264 316.264C760.061 315.895 759.994 315.465 760.076 315.052C760.871 310.969 761.408 306.554 761.667 301.943C761.694 301.468 761.909 301.023 762.263 300.706C762.618 300.388 763.084 300.224 763.559 300.249C764.034 300.277 764.478 300.491 764.795 300.846C765.111 301.201 765.274 301.667 765.248 302.142C764.982 306.919 764.426 311.488 763.593 315.733C763.503 316.2 763.231 316.612 762.837 316.878C762.443 317.145 761.959 317.244 761.492 317.154C761.388 317.137 761.286 317.109 761.188 317.07ZM762.85 290.277C762.525 290.152 762.244 289.935 762.04 289.653C761.836 289.371 761.719 289.036 761.702 288.688C761.494 284.255 761.111 279.831 760.552 275.428C760.494 274.956 760.625 274.48 760.916 274.104C761.207 273.728 761.635 273.482 762.107 273.42C762.579 273.362 763.054 273.493 763.43 273.785C763.805 274.076 764.049 274.505 764.11 274.976C764.688 279.641 765.086 284.19 765.281 288.516C765.294 288.813 765.234 289.109 765.105 289.378C764.975 289.646 764.781 289.878 764.54 290.052C764.299 290.227 764.019 290.339 763.724 290.378C763.428 290.417 763.128 290.383 762.85 290.277ZM759.323 263.649C759.052 263.546 758.81 263.378 758.618 263.16C758.427 262.943 758.29 262.682 758.222 262.4C757.166 258.125 755.838 253.922 754.245 249.817C754.072 249.373 754.082 248.879 754.273 248.443C754.464 248.007 754.821 247.664 755.265 247.491C755.484 247.405 755.718 247.363 755.953 247.368C756.189 247.372 756.421 247.423 756.636 247.518C756.852 247.612 757.047 247.749 757.21 247.919C757.372 248.089 757.5 248.289 757.585 248.509C759.236 252.76 760.611 257.113 761.703 261.54C761.78 261.858 761.77 262.191 761.672 262.503C761.574 262.815 761.393 263.095 761.149 263.312C760.904 263.529 760.604 263.675 760.283 263.734C759.961 263.794 759.629 263.764 759.323 263.649ZM749.649 238.661C749.248 238.507 748.916 238.214 748.714 237.836C746.617 233.953 744.305 230.19 741.788 226.566C741.653 226.373 741.558 226.155 741.508 225.925C741.458 225.694 741.454 225.457 741.495 225.225C741.537 224.993 741.625 224.772 741.752 224.574C741.88 224.376 742.045 224.205 742.239 224.071C743.049 223.505 744.169 223.701 744.73 224.519C747.326 228.253 749.709 232.132 751.868 236.135C751.98 236.342 752.05 236.57 752.074 236.804C752.098 237.039 752.075 237.275 752.007 237.501C751.94 237.727 751.828 237.937 751.679 238.119C751.529 238.302 751.346 238.453 751.138 238.564C750.911 238.687 750.661 238.759 750.404 238.776C750.147 238.793 749.889 238.753 749.649 238.661ZM476.428 118.92C476.091 118.791 475.801 118.563 475.596 118.267C475.39 117.97 475.279 117.619 475.277 117.258C475.274 116.783 475.459 116.326 475.792 115.986C476.124 115.647 476.578 115.453 477.053 115.447C480.939 115.417 485.499 115.574 490.622 115.914C490.857 115.93 491.086 115.992 491.297 116.096C491.508 116.2 491.696 116.345 491.851 116.523C492.006 116.7 492.124 116.906 492.199 117.129C492.274 117.352 492.305 117.587 492.289 117.822C492.257 118.296 492.038 118.739 491.68 119.052C491.323 119.366 490.855 119.524 490.381 119.494C485.35 119.165 480.87 119.008 477.079 119.042C476.856 119.042 476.635 119.001 476.428 118.92ZM734.391 216.587C734.112 216.48 733.865 216.305 733.672 216.078C730.792 212.716 727.765 209.483 724.6 206.388C724.432 206.223 724.298 206.027 724.206 205.811C724.113 205.595 724.065 205.362 724.062 205.127C724.06 204.892 724.104 204.658 724.193 204.44C724.281 204.222 724.411 204.024 724.576 203.856C724.74 203.687 724.935 203.553 725.151 203.46C725.367 203.367 725.599 203.318 725.835 203.316C726.07 203.313 726.303 203.357 726.521 203.445C726.739 203.533 726.937 203.663 727.105 203.828C730.342 206.999 733.442 210.308 736.395 213.746C736.654 214.049 736.804 214.43 736.823 214.828C736.841 215.226 736.726 215.619 736.497 215.945C736.267 216.271 735.935 216.511 735.554 216.627C735.172 216.743 734.763 216.729 734.391 216.587ZM503.257 120.555C502.888 120.413 502.576 120.153 502.37 119.815C502.165 119.477 502.077 119.081 502.12 118.688C502.144 118.454 502.215 118.227 502.327 118.02C502.44 117.813 502.592 117.63 502.775 117.482C502.959 117.334 503.17 117.224 503.396 117.158C503.622 117.092 503.859 117.072 504.093 117.098C508.4 117.559 512.904 118.112 517.487 118.751C517.72 118.784 517.945 118.862 518.148 118.981C518.351 119.1 518.528 119.259 518.67 119.447C518.812 119.634 518.915 119.849 518.974 120.077C519.033 120.304 519.047 120.542 519.014 120.775C518.982 121.008 518.904 121.233 518.785 121.437C518.666 121.64 518.508 121.818 518.32 121.96C518.132 122.103 517.918 122.207 517.69 122.266C517.462 122.325 517.224 122.339 516.991 122.307C512.57 121.693 508.14 121.147 503.702 120.669C503.549 120.65 503.4 120.611 503.257 120.555ZM715.258 197.761C715.072 197.69 714.899 197.589 714.747 197.461C711.344 194.61 707.849 191.871 704.267 189.249C703.884 188.968 703.628 188.547 703.555 188.077C703.482 187.608 703.599 187.129 703.879 186.745C704.159 186.362 704.579 186.105 705.048 186.031C705.517 185.958 705.995 186.074 706.379 186.353C710.028 189.021 713.587 191.808 717.052 194.711C717.377 194.984 717.595 195.363 717.667 195.781C717.739 196.199 717.66 196.629 717.445 196.995C717.23 197.361 716.892 197.638 716.492 197.779C716.091 197.919 715.654 197.913 715.258 197.761ZM529.886 124.218C529.471 124.059 529.13 123.752 528.929 123.355C528.728 122.959 528.681 122.503 528.798 122.074C528.914 121.645 529.185 121.275 529.559 121.035C529.933 120.795 530.383 120.702 530.821 120.775C535.197 121.496 539.664 122.292 544.096 123.138C544.562 123.229 544.974 123.5 545.241 123.893C545.508 124.286 545.609 124.769 545.522 125.236C545.432 125.703 545.161 126.116 544.768 126.384C544.376 126.652 543.893 126.754 543.425 126.667C539.037 125.833 534.639 125.05 530.232 124.319C530.114 124.296 529.998 124.262 529.886 124.218ZM556.288 129.249C555.888 129.096 555.556 128.804 555.353 128.427C555.15 128.05 555.089 127.612 555.182 127.194C555.283 126.729 555.564 126.323 555.963 126.065C556.363 125.807 556.849 125.718 557.314 125.817C561.702 126.759 566.122 127.762 570.462 128.807C570.691 128.861 570.908 128.96 571.099 129.098C571.29 129.236 571.451 129.411 571.574 129.612C571.697 129.813 571.779 130.037 571.815 130.269C571.851 130.502 571.84 130.74 571.783 130.969C571.672 131.431 571.382 131.83 570.977 132.079C570.572 132.328 570.085 132.405 569.623 132.295C565.279 131.253 560.924 130.262 556.557 129.321C556.465 129.308 556.374 129.284 556.288 129.249ZM693.611 181.87C693.496 181.825 693.386 181.769 693.282 181.704C689.543 179.294 685.746 176.976 681.894 174.752C681.483 174.514 681.182 174.123 681.059 173.665C680.935 173.206 680.999 172.717 681.235 172.305C681.352 172.1 681.509 171.921 681.696 171.777C681.882 171.633 682.096 171.528 682.323 171.466C682.551 171.405 682.789 171.389 683.022 171.42C683.256 171.45 683.482 171.527 683.686 171.645C687.594 173.893 691.444 176.243 695.231 178.69C695.63 178.948 695.91 179.354 696.01 179.819C696.11 180.284 696.022 180.769 695.765 181.169C695.539 181.513 695.202 181.77 694.811 181.898C694.419 182.025 693.996 182.015 693.611 181.87ZM582.423 135.52C582.01 135.36 581.671 135.054 581.47 134.66C581.269 134.265 581.22 133.811 581.333 133.383C581.455 132.924 581.753 132.532 582.164 132.293C582.574 132.054 583.063 131.987 583.522 132.108C587.866 133.259 592.195 134.466 596.509 135.727C596.96 135.866 597.338 136.177 597.562 136.592C597.785 137.008 597.836 137.495 597.704 137.948C597.571 138.401 597.266 138.783 596.853 139.013C596.441 139.242 595.955 139.3 595.5 139.174C591.214 137.924 586.914 136.726 582.6 135.58C582.544 135.559 582.479 135.542 582.423 135.52ZM670.345 168.429C670.281 168.406 670.219 168.379 670.159 168.349C666.202 166.302 662.203 164.335 658.166 162.451C657.952 162.351 657.76 162.211 657.601 162.037C657.442 161.862 657.319 161.659 657.24 161.437C657.16 161.215 657.125 160.979 657.137 160.744C657.148 160.509 657.206 160.278 657.308 160.065C657.407 159.851 657.547 159.659 657.721 159.5C657.895 159.34 658.098 159.217 658.32 159.137C658.542 159.056 658.777 159.021 659.013 159.032C659.248 159.043 659.479 159.101 659.692 159.202C663.77 161.112 667.81 163.1 671.812 165.165C672.233 165.384 672.551 165.762 672.695 166.214C672.838 166.667 672.797 167.159 672.579 167.581C672.376 167.972 672.036 168.275 671.624 168.431C671.212 168.588 670.756 168.587 670.345 168.429ZM608.209 143.056C607.781 142.891 607.433 142.569 607.235 142.155C607.038 141.742 607.005 141.268 607.145 140.832C607.29 140.38 607.608 140.003 608.029 139.785C608.451 139.567 608.942 139.525 609.395 139.669C613.675 141.043 617.937 142.475 622.178 143.965C622.624 144.128 622.989 144.459 623.194 144.888C623.399 145.316 623.427 145.809 623.273 146.258C623.116 146.707 622.787 147.075 622.359 147.281C621.931 147.488 621.439 147.516 620.99 147.36C616.78 145.877 612.549 144.456 608.298 143.098C608.272 143.08 608.244 143.07 608.209 143.056ZM646.014 157.031L645.951 157.006C641.846 155.263 637.711 153.59 633.549 151.988C633.105 151.816 632.748 151.474 632.555 151.039C632.363 150.604 632.351 150.11 632.522 149.666C632.606 149.447 632.732 149.246 632.894 149.076C633.056 148.905 633.25 148.768 633.464 148.673C633.679 148.578 633.91 148.525 634.145 148.52C634.38 148.514 634.614 148.554 634.833 148.639L634.84 148.641C639.038 150.26 643.209 151.95 647.351 153.709C647.567 153.801 647.764 153.934 647.928 154.102C648.093 154.27 648.223 154.469 648.311 154.687C648.399 154.905 648.442 155.138 648.44 155.373C648.437 155.608 648.388 155.841 648.296 156.057C648.116 156.483 647.777 156.823 647.352 157.005C646.926 157.187 646.446 157.196 646.014 157.031Z" fill="#E1E4E5"/>
<path fill-rule="evenodd" clip-rule="evenodd" d="M428.151 210.021C422.997 203.889 410.782 202.816 402.794 210.734C397.635 215.849 396.788 221.67 397.812 225.73C397.862 225.93 397.907 226.132 397.946 226.336L419.439 338.681C424.437 361.575 442.622 379.651 465.833 384.629L579.163 405.937L579.193 405.943L579.266 405.957C585.151 407.124 591.428 404.721 595.083 401.097C602.598 393.647 602.598 383.019 595.083 375.57L428.809 210.734C428.579 210.506 428.359 210.268 428.151 210.021ZM376.968 214.46L294.626 296.802C275.463 315.965 275.463 345.216 294.626 364.379L424.508 494.261C428.686 498.44 435.46 498.44 439.639 494.261C439.764 494.136 439.885 494.009 440.002 493.88L449.781 503.553L457.77 497.64L504.929 501.407L510.167 495.588C514.371 499.221 520.73 499.042 524.721 495.051L593.853 425.919C588.056 427.696 581.654 428.235 575.162 426.958L461.751 405.636C461.669 405.62 461.586 405.603 461.504 405.586C430.04 398.902 405.265 374.392 398.497 343.082C398.479 342.998 398.462 342.915 398.446 342.832L376.981 230.632C375.742 225.497 375.693 219.949 376.968 214.46Z" fill="#4F27AA"/>
<path d="M453.042 116.221L453.3 128.347L387.926 133.236L453.042 116.221Z" fill="white"/>
<path d="M451.908 141.909L443.136 150.535L390.865 132.967L451.908 141.909Z" fill="#4F27AA"/>
<path d="M387.926 133.236L482.501 152.101L460.785 126.555L387.926 133.236Z" fill="#4F27AA"/>
<path d="M453.043 116.221L387.927 133.236L440.101 98.9492L453.043 116.221ZM691.214 506.078C669.976 506.474 664.355 508.153 642.308 507.462C631.807 507.56 620.598 507.264 610.333 507.067C605.452 505.782 596.869 507.067 591.08 505.98L588.858 506.671C586.873 506.276 584.55 506.078 582.531 506.474L582.665 506.671C579.703 506.177 576.338 506.474 574.89 506.177L575.025 506.375L571.423 506.276L572.029 506.572C566.846 505.98 561.528 505.98 556.816 506.177L557.219 505.288C547.156 506.276 543.487 504.497 534.433 505.584L534.567 505.782C523.09 503.509 516.459 507.363 504.645 505.189C506.126 505.486 504.005 505.584 504.14 505.881C498.687 505.683 492.898 505.486 492.797 503.806C488.825 503.806 489.566 504.3 489.061 504.992C489.095 504.3 485.628 503.905 482.531 503.905L483.945 504.201L475.059 503.905L476.809 502.521C472.097 502.917 475.598 504.201 471.121 503.905L471.188 502.719C464.692 502.917 460.855 504.695 454.561 505.584C428.375 506.078 400.236 503.114 375.901 505.189L374.824 506.078C374.353 507.363 368.092 504.201 367.183 505.387L364.356 504.794C363.548 504.991 361.865 505.288 363.279 505.584C360.654 505.683 360.586 505.387 358.702 505.09L355.874 505.881C345.541 506.474 336.756 504.992 325.884 505.288C312.825 506.869 288.221 505.387 274.05 504.596C254.125 502.719 230.967 507.758 210.57 505.584C209.897 505.782 208.181 505.387 208.214 505.189L189.534 505.387C189.534 505.387 99.0261 505.881 167.79 495.309L167.319 495.012C177.551 494.32 183.98 494.222 191.015 495.605C192.126 493.925 199.396 495.407 201.786 494.913L201.55 494.814C207.777 496.099 214.374 493.728 220.399 494.913C220.163 494.814 220.029 494.32 218.649 494.32C223.024 494.518 229.015 494.913 229.352 493.925C239.82 494.222 254.394 493.728 261.092 495.309L260.621 495.012C264.424 496.099 265.568 495.21 269.843 495.704C270.079 495.605 270.382 495.506 270.314 495.407C274.488 496.494 282.465 495.605 285.797 496L285.999 495.309L294.279 495.506L291.183 495.605C292.26 497.383 297.443 494.419 303.434 495.605C309.055 495.407 314.845 499.36 320.667 498.47C323.461 499.36 318.21 497.087 322.384 497.779C322.519 496.791 320.432 497.186 321.509 496.395C325.582 496.889 328.207 495.407 333.256 496.099L333.458 495.407C340.021 496.791 345.844 494.419 350.22 495.704C356.985 496.297 354.763 493.53 361.832 494.913L364.592 493.925C367.621 493.728 366.746 495.111 370.112 494.617C369.91 494.024 374.353 494.123 372.367 493.53C379.94 492.542 387.749 494.913 397.745 493.234C399.9 494.419 404.948 493.728 406.564 494.617C406.833 494.123 416.628 494.518 411.007 493.332C410.536 493.233 409.661 493.234 409.728 493.431L409.055 492.739C414.743 491.356 419.388 493.53 425.042 493.234C423.36 493.431 421.138 493.431 422.619 493.925L427.87 493.826L426.793 493.234L434.601 492.838L433.524 493.629C437.328 493.234 438.674 491.949 442.983 493.036C444.935 493.629 439.381 494.024 443.386 494.32C448.502 493.826 456.143 493.036 462.639 492.838C462.033 493.728 463.783 493.629 465.601 493.826L465.803 493.135C472.703 494.123 468.327 491.554 475.194 492.344L474.588 491.85L476.405 493.431C482.599 494.913 479.738 491.949 486.604 493.925C483.878 493.826 485.325 495.506 488.657 495.21L487.816 494.518C489.667 494.716 490.273 495.012 491.518 494.814C490.407 494.419 490.946 493.826 493.672 493.925L491.855 493.036L497.004 494.32C500.976 493.53 507.27 494.518 508.92 493.53C508.92 493.53 517.469 493.036 519.421 494.123C517.704 493.431 522.417 493.135 521.07 492.344C523.292 493.135 529.821 493.728 532.447 492.937L531.942 492.838C541.636 491.949 548.502 494.024 557.186 492.937C556.782 493.826 561.393 493.332 560.249 494.419C569.236 495.506 576.64 492.147 579.905 495.605C584.012 495.803 584.752 494.814 586.873 494.617L585.897 494.419C593.571 494.716 595.792 494.716 601.48 494.617C604.308 494.913 604.779 496.494 609.861 496.099C608.212 495.506 610.299 495.605 612.184 495.605C610.972 495.506 610.602 495.309 613.093 494.814C613.429 495.012 614.001 495.111 614.506 495.21C614.54 495.21 614.641 495.111 614.574 495.012C617.738 495.21 617.199 495.407 615.718 495.506C615.785 495.605 615.684 495.704 615.213 495.901C618.512 495.111 624.402 496 624.806 494.913C634.365 495.21 641.197 496.297 649.141 496.692C650.05 496.099 648.165 495.605 645.876 495.407L651.531 495.605C651.497 494.814 648.299 495.111 646.549 495.012C653.281 493.728 660.416 496.297 668.293 495.111L669.942 495.704L670.413 495.605C670.379 495.901 672.163 496.395 673.308 496.494C674.418 495.803 673.24 494.913 677.145 494.913C680.241 494.222 685.896 495.21 689.935 495.605C687.747 495.704 688.454 496.099 689.396 496.395C691.349 496.395 692.459 495.704 693.974 496L694.176 495.111C693.402 496 699.258 496.099 699.999 496.395C701.11 495.704 696.97 495.803 696.498 495.309C704.307 495.407 700.403 495.308 708.245 495.407C712.419 496.099 707.471 496.297 709.491 497.087C713.159 497.285 716.761 497.877 721.002 497.383L719.655 498.174C726.589 498.865 730.729 498.767 735.374 497.877C786.939 504.596 746.246 507.067 746.246 507.067C725.849 509.141 715.381 506.77 691.214 506.078Z" fill="#4F27AA"/>
<path d="M665.333 307.734C660.89 310.299 655.209 308.776 652.644 304.334C650.079 299.891 651.601 294.21 656.044 291.644C660.487 289.079 666.168 290.602 668.733 295.045C671.298 299.487 669.776 305.168 665.333 307.734Z" fill="#2E2445"/>
<path d="M223 416C229.075 416 234 420.925 234 427C234 433.075 229.075 438 223 438C216.925 438 212 433.075 212 427C212 420.925 216.925 416 223 416Z" fill="#2E2445"/>
<path d="M322.489 203C318.352 203 314.999 206.354 314.999 210.49C314.999 214.627 318.352 217.98 322.489 217.98C326.626 217.98 329.979 214.627 329.979 210.49C329.979 206.354 326.626 203 322.489 203Z" fill="#E1E4E5"/>
<path d="M275.993 415.885C272.152 415.885 269.038 418.999 269.038 422.84C269.038 426.681 272.152 429.795 275.993 429.795C279.834 429.795 282.948 426.681 282.948 422.84C282.948 418.999 279.834 415.885 275.993 415.885Z" fill="#E1E4E5"/>
<path d="M178.628 300.332C174.787 300.332 171.673 303.446 171.673 307.287C171.673 311.128 174.787 314.242 178.628 314.242C182.469 314.242 185.583 311.128 185.583 307.287C185.583 303.446 182.469 300.332 178.628 300.332Z" fill="#E1E4E5"/>
<path d="M234.399 212.062C244.526 212.062 252.736 220.272 252.736 230.399C252.736 240.527 244.526 248.736 234.399 248.736C224.272 248.736 216.062 240.527 216.062 230.399C216.062 220.272 224.272 212.062 234.399 212.062Z" fill="#4F27AA"/>
<path d="M523.363 199.863C526.731 203.231 532.191 203.231 535.559 199.863C538.927 196.495 538.927 191.034 535.559 187.666C532.191 184.299 526.731 184.299 523.363 187.666C519.995 191.034 519.995 196.495 523.363 199.863Z" fill="#E1E4E5"/>
<path d="M649.737 390.811C643.704 384.778 643.704 374.996 649.737 368.963C655.771 362.929 665.552 362.929 671.586 368.963C677.619 374.996 677.619 384.778 671.586 390.811C665.552 396.844 655.771 396.844 649.737 390.811Z" fill="#4F27AA"/>
</g>
</g>
<defs>
<linearGradient id="paint0_linear_1235_17965" x1="234.592" y1="696.89" x2="725.036" y2="-54.7871" gradientUnits="userSpaceOnUse">
<stop stop-color="white"/>
<stop offset="1" stop-color="#EEEEEE"/>
</linearGradient>
<linearGradient id="paint1_linear_1235_17965" x1="528.214" y1="316.166" x2="707.401" y2="141.22" gradientUnits="userSpaceOnUse">
<stop stop-color="white"/>
<stop offset="1" stop-color="#EEEEEE"/>
</linearGradient>
<clipPath id="clip0_1235_17965">
<rect width="900" height="600" fill="white"/>
</clipPath>
</defs>
</svg>
