<svg width="900" height="600" viewBox="0 0 900 600" fill="none" xmlns="http://www.w3.org/2000/svg">
<g clip-path="url(#clip0_1235_20228)">
<path d="M348.961 256.619V134.639C348.961 108.599 370.07 87.4902 396.109 87.4902H631.851C657.89 87.4902 678.999 108.599 678.999 134.639V464.677C678.999 490.716 657.89 511.825 631.851 511.825H501.868" stroke="#E1E4E5" stroke-width="4.918"/>
<path d="M606.382 144.758H513.876M606.382 259.839H513.876M606.382 202.574H513.876M606.382 318.206H513.876M606.382 375.472H513.876M606.382 433.839H513.876" stroke="#E1E4E5" stroke-width="15.184" stroke-linecap="round" stroke-linejoin="round"/>
<path d="M482.812 187.076C482.812 158.558 459.694 135.439 431.176 135.439C402.658 135.439 379.539 158.558 379.539 187.076C379.539 215.594 402.658 238.712 431.176 238.712C459.694 238.712 482.812 215.594 482.812 187.076Z" fill="#4F27AA"/>
<path d="M447.959 177.795L425.443 200.047L411.934 186.696" stroke="white" stroke-width="10.287" stroke-linecap="round" stroke-linejoin="round"/>
<path d="M408.131 338.811V313.083C408.131 298.868 396.603 287.355 382.369 287.355H326.363C312.13 287.355 300.602 298.868 300.602 313.083V338.811" stroke="#4F27AA" stroke-width="17.405" stroke-linecap="round" stroke-linejoin="round"/>
<path fill-rule="evenodd" clip-rule="evenodd" d="M444.479 506.452H263.944C249.694 506.452 238.153 494.911 238.153 480.661V391.641L306.285 436.6L306.292 436.604C312.355 440.609 319.266 443.148 326.48 444.02C332.058 452.592 341.724 458.261 352.714 458.261H354.668C365.606 458.261 375.232 452.646 380.822 444.141C388.434 443.406 395.75 440.819 402.131 436.604L402.138 436.6L470.27 391.639V480.661C470.27 494.911 458.729 506.452 444.479 506.452ZM328.56 407.119C334.296 400.154 342.986 395.712 352.714 395.712H354.668C364.519 395.712 373.306 400.267 379.038 407.384C380.077 407.099 381.063 406.651 381.962 406.056L381.969 406.052L466.101 350.533C461.5 343.475 453.537 338.812 444.479 338.812H263.944C254.886 338.812 246.922 343.475 242.322 350.534L326.453 406.052L326.46 406.056C327.12 406.492 327.825 406.848 328.56 407.119Z" fill="#4F27AA"/>
<path d="M238.153 391.639L242.946 384.376C241.635 383.51 240.113 383.015 238.543 382.945C236.972 382.874 235.412 383.23 234.028 383.975C232.644 384.72 231.487 385.826 230.682 387.175C229.876 388.525 229.451 390.068 229.451 391.639H238.153ZM306.285 436.599L311.081 429.337L311.078 429.335L306.285 436.599ZM306.292 436.603L301.496 443.865H301.497L306.292 436.603ZM326.48 444.018L333.775 439.273C333.082 438.207 332.162 437.306 331.083 436.633C330.003 435.96 328.789 435.532 327.526 435.379L326.48 444.018ZM380.822 444.14L379.985 435.478C378.691 435.604 377.44 436.017 376.327 436.689C375.213 437.361 374.264 438.274 373.55 439.361L380.822 444.14ZM402.131 436.603L406.926 443.865L406.93 443.862L402.131 436.603ZM402.138 436.599L397.345 429.335L397.338 429.34L402.138 436.599ZM470.27 391.638H478.972C478.972 390.067 478.547 388.525 477.741 387.176C476.935 385.826 475.778 384.721 474.394 383.976C473.01 383.231 471.451 382.875 469.881 382.945C468.311 383.015 466.789 383.51 465.477 384.375L470.27 391.638ZM328.56 407.118L325.547 415.282C327.242 415.908 329.089 415.991 330.832 415.519C332.576 415.047 334.129 414.045 335.277 412.65L328.56 407.118ZM379.038 407.383L372.261 412.842C373.326 414.164 374.753 415.145 376.368 415.666C377.983 416.187 379.715 416.224 381.351 415.773L379.038 407.383ZM381.962 406.055L377.17 398.791L377.166 398.794L381.962 406.055ZM381.969 406.051L386.761 413.314H386.762L381.969 406.051ZM466.101 350.532L470.894 357.796C472.813 356.53 474.153 354.555 474.621 352.303C475.089 350.052 474.647 347.707 473.391 345.78L466.101 350.532ZM242.322 350.533L235.031 345.781C233.776 347.708 233.334 350.053 233.802 352.304C234.27 354.555 235.61 356.53 237.529 357.796L242.322 350.533ZM326.453 406.051L321.66 413.314L321.663 413.316L326.453 406.051ZM326.46 406.055L331.257 398.794L331.251 398.79L326.46 406.055ZM263.944 515.154H444.479V497.749H263.944V515.154ZM229.451 480.66C229.451 499.716 244.888 515.154 263.944 515.154V497.749C254.5 497.749 246.855 490.104 246.855 480.66H229.451ZM229.451 391.639V480.66H246.855V391.639H229.451ZM311.078 429.335L242.946 384.376L233.36 398.902L301.492 443.862L311.078 429.335ZM311.088 429.342L311.081 429.337L301.489 443.86L301.496 443.865L311.088 429.342ZM327.526 435.379C321.652 434.669 316.024 432.602 311.087 429.341L301.497 443.865C308.686 448.613 316.882 451.624 325.435 452.658L327.526 435.379ZM352.714 449.558C344.791 449.558 337.815 445.482 333.775 439.273L319.186 448.764C326.301 459.7 338.657 466.962 352.714 466.962V449.558ZM354.668 449.558H352.714V466.962H354.668V449.558ZM373.55 439.361C369.501 445.521 362.554 449.558 354.668 449.558V466.962C368.658 466.962 380.964 459.769 388.094 448.92L373.55 439.361ZM397.336 429.341C392.14 432.773 386.183 434.88 379.985 435.478L381.659 452.802C390.685 451.93 399.359 448.862 406.926 443.865L397.336 429.341ZM397.338 429.34L397.331 429.344L406.93 443.862L406.937 443.858L397.338 429.34ZM465.477 384.375L397.345 429.335L406.931 443.862L475.063 398.902L465.477 384.375ZM478.972 480.66V391.638H461.568V480.66H478.972ZM444.479 515.154C463.535 515.154 478.972 499.716 478.972 480.66H461.568C461.568 490.104 453.923 497.749 444.479 497.749V515.154ZM335.277 412.65C339.431 407.606 345.696 404.414 352.714 404.414V387.009C340.276 387.009 329.16 392.7 321.842 401.586L335.277 412.65ZM352.714 404.414H354.668V387.009H352.714V404.414ZM354.668 404.414C361.774 404.414 368.109 407.687 372.261 412.842L385.816 401.925C378.502 392.844 367.264 387.009 354.668 387.009V404.414ZM377.166 398.794C377.031 398.884 376.882 398.951 376.726 398.994L381.351 415.773C383.271 415.244 385.096 414.415 386.758 413.316L377.166 398.794ZM377.177 398.787L377.17 398.791L386.754 413.319L386.761 413.314L377.177 398.787ZM461.308 343.269L377.176 398.787L386.762 413.314L470.894 357.796L461.308 343.269ZM444.479 347.513C450.475 347.513 455.75 350.588 458.811 355.284L473.391 345.78C467.251 336.361 456.599 330.109 444.479 330.109V347.513ZM263.944 347.513H444.479V330.109H263.944V347.513ZM249.612 355.284C252.673 350.588 257.948 347.513 263.944 347.513V330.109C251.824 330.109 241.171 336.361 235.031 345.781L249.612 355.284ZM331.246 398.787L247.115 343.269L237.529 357.796L321.66 413.314L331.246 398.787ZM331.251 398.79L331.244 398.785L321.663 413.316L321.67 413.32L331.251 398.79ZM331.573 398.954C331.462 398.914 331.356 398.86 331.257 398.794L321.664 413.316C322.879 414.119 324.182 414.778 325.547 415.282L331.573 398.954Z" fill="#4F27AA"/>
<path fill-rule="evenodd" clip-rule="evenodd" d="M270.555 281.381H267.314C266.53 281.381 265.899 282.019 265.899 282.795V286.036C265.899 286.82 266.537 287.451 267.314 287.451H270.555C270.93 287.449 271.289 287.3 271.553 287.035C271.818 286.769 271.968 286.41 271.969 286.036V282.795C271.969 282.609 271.933 282.425 271.862 282.253C271.791 282.081 271.687 281.925 271.556 281.794C271.424 281.663 271.268 281.559 271.097 281.488C270.925 281.417 270.741 281.38 270.555 281.381ZM259.316 281.381H256.076C255.701 281.382 255.342 281.531 255.077 281.796C254.812 282.061 254.663 282.42 254.661 282.795V286.036C254.661 286.82 255.299 287.451 256.076 287.451H259.316C259.691 287.449 260.05 287.3 260.315 287.035C260.58 286.77 260.73 286.411 260.731 286.036V282.795C260.729 282.42 260.58 282.061 260.315 281.796C260.05 281.531 259.691 281.382 259.316 281.381ZM248.074 281.381H244.833C244.458 281.382 244.099 281.531 243.834 281.796C243.569 282.061 243.42 282.42 243.418 282.795V286.036C243.418 286.82 244.056 287.451 244.833 287.451H248.074C248.449 287.449 248.808 287.3 249.072 287.035C249.337 286.769 249.487 286.41 249.488 286.036V282.795C249.488 282.609 249.452 282.425 249.381 282.253C249.31 282.081 249.206 281.925 249.075 281.794C248.943 281.663 248.787 281.559 248.616 281.488C248.444 281.417 248.26 281.38 248.074 281.381ZM236.838 281.381H233.598C233.223 281.382 232.864 281.531 232.599 281.796C232.334 282.061 232.185 282.42 232.183 282.795V286.036C232.183 286.82 232.821 287.451 233.598 287.451H236.838C237.622 287.451 238.259 286.813 238.259 286.036V282.795C238.255 282.42 238.103 282.062 237.838 281.797C237.572 281.533 237.213 281.383 236.838 281.381ZM225.602 281.381H222.362C221.578 281.381 220.94 282.019 220.94 282.795V286.036C220.94 286.82 221.578 287.451 222.362 287.451H225.602C225.977 287.449 226.336 287.3 226.601 287.035C226.866 286.77 227.016 286.411 227.017 286.036V282.795C227.015 282.42 226.866 282.061 226.601 281.796C226.336 281.531 225.977 281.382 225.602 281.381ZM258.908 293.634H255.667C255.292 293.635 254.933 293.784 254.668 294.049C254.403 294.314 254.254 294.673 254.252 295.048V298.295C254.253 298.67 254.403 299.029 254.668 299.294C254.933 299.559 255.292 299.708 255.667 299.71H258.908C259.691 299.71 260.322 299.072 260.322 298.295V295.055C260.323 294.868 260.287 294.684 260.217 294.511C260.146 294.339 260.042 294.182 259.911 294.05C259.779 293.918 259.623 293.813 259.451 293.742C259.279 293.67 259.094 293.633 258.908 293.634ZM247.669 293.634H244.429C244.054 293.635 243.695 293.784 243.43 294.049C243.165 294.314 243.016 294.673 243.014 295.048V298.295C243.015 298.67 243.165 299.029 243.43 299.294C243.695 299.559 244.054 299.708 244.429 299.71H247.669C248.044 299.708 248.403 299.559 248.668 299.294C248.933 299.029 249.083 298.67 249.084 298.295V295.055C249.085 294.868 249.049 294.684 248.979 294.511C248.908 294.339 248.804 294.182 248.672 294.05C248.541 293.918 248.384 293.813 248.212 293.741C248.04 293.67 247.855 293.633 247.669 293.634ZM236.432 293.634H233.191C232.408 293.634 231.77 294.271 231.77 295.048V298.295C231.77 299.072 232.408 299.71 233.191 299.71H236.432C236.807 299.708 237.166 299.559 237.43 299.294C237.695 299.028 237.845 298.669 237.846 298.295V295.055C237.846 294.679 237.698 294.318 237.433 294.052C237.167 293.786 236.808 293.635 236.432 293.634ZM248.074 268.219H244.833C244.458 268.22 244.099 268.37 243.834 268.635C243.569 268.9 243.419 269.259 243.418 269.634V272.875C243.418 273.658 244.056 274.289 244.833 274.289H248.074C248.448 274.287 248.807 274.138 249.072 273.873C249.337 273.608 249.486 273.249 249.488 272.875V269.634C249.488 269.448 249.452 269.264 249.381 269.092C249.31 268.92 249.206 268.764 249.075 268.633C248.943 268.501 248.787 268.397 248.616 268.326C248.444 268.255 248.26 268.218 248.074 268.219ZM236.838 268.219H233.598C233.223 268.22 232.864 268.37 232.599 268.635C232.334 268.9 232.184 269.259 232.183 269.634V272.875C232.183 273.658 232.821 274.289 233.598 274.289H236.838C237.214 274.289 237.574 274.14 237.841 273.875C238.107 273.61 238.257 273.25 238.259 272.875V269.634C238.255 269.259 238.104 268.9 237.838 268.635C237.572 268.371 237.213 268.221 236.838 268.219Z" fill="#E1E4E5"/>
<path d="M273.656 223.222C269.664 223.222 266.429 219.986 266.429 215.995C266.429 212.003 269.664 208.768 273.656 208.768C277.647 208.768 280.883 212.003 280.883 215.995C280.883 219.986 277.647 223.222 273.656 223.222Z" fill="#4F27AA"/>
<path d="M296.984 167.273C292.267 167.273 288.443 163.449 288.443 158.732C288.443 154.015 292.267 150.191 296.984 150.191C301.701 150.191 305.525 154.015 305.525 158.732C305.525 163.449 301.701 167.273 296.984 167.273Z" fill="#E1E4E5"/>
<path d="M648.846 339.68C646.456 339.68 644.519 341.617 644.519 344.007C644.519 346.397 646.456 348.334 648.846 348.334C651.236 348.334 653.173 346.397 653.173 344.007C653.173 341.617 651.236 339.68 648.846 339.68Z" fill="#4F27AA"/>
<path d="M651.453 234.097C647.462 234.097 644.226 230.861 644.226 226.87C644.226 222.878 647.462 219.643 651.453 219.643C655.445 219.643 658.68 222.878 658.68 226.87C658.68 230.861 655.445 234.097 651.453 234.097Z" fill="#4F27AA"/>
<path d="M647.116 406.857C645.681 406.857 644.518 408.02 644.518 409.455C644.518 410.89 645.681 412.053 647.116 412.053C648.551 412.053 649.714 410.89 649.714 409.455C649.714 408.02 648.551 406.857 647.116 406.857Z" fill="#E1E4E5"/>
<path d="M648.583 300.403C646.048 300.403 643.994 298.348 643.994 295.814C643.994 293.279 646.048 291.225 648.583 291.225C651.117 291.225 653.172 293.279 653.172 295.814C653.172 298.348 651.117 300.403 648.583 300.403Z" fill="#E1E4E5"/>
<path d="M647.398 189.345C645.425 189.345 643.825 187.746 643.825 185.772C643.825 183.799 645.425 182.199 647.398 182.199C649.372 182.199 650.971 183.799 650.971 185.772C650.971 187.746 649.372 189.345 647.398 189.345Z" fill="#E1E4E5"/>
<path d="M316.562 186.604H316.72C317.659 199.902 327.548 200.107 327.548 200.107C327.548 200.107 316.643 200.319 316.643 215.684C316.643 200.319 305.738 200.107 305.738 200.107C305.738 200.107 315.623 199.902 316.562 186.604Z" fill="#E1E4E5"/>
<path d="M2 2H898V598H2V2Z" stroke="#E1E4E5" stroke-width="4"/>
</g>
<defs>
<clipPath id="clip0_1235_20228">
<rect width="900" height="600" fill="white"/>
</clipPath>
</defs>
</svg>
