<svg width="900" height="600" viewBox="0 0 900 600" fill="none" xmlns="http://www.w3.org/2000/svg">
<g clip-path="url(#clip0_1235_20297)">
<path d="M640.748 351.203C643.858 408.515 531.809 525.051 393.7 481.918C329.467 461.854 334.908 428.554 286.066 384.667C256.953 358.51 215.123 338.731 203.489 300.709C193.439 267.891 199.602 232.617 217.026 209.673C256.213 158.073 335.324 122.74 413.272 204.039C491.221 285.338 632.709 203.391 640.748 351.203Z" fill="url(#paint0_linear_1235_20297)"/>
<path d="M592.127 204.396C581.859 222.721 559.371 225.239 523.344 221.756C496.249 219.132 471.541 217.102 444.444 202.328C425.478 191.995 410.465 178.015 399.508 164.436C387.634 149.727 371.06 132.939 379.185 116.26C390.35 93.3497 454.919 74.0527 517.617 105.608C586.491 140.282 602.171 186.485 592.127 204.396Z" fill="url(#paint1_linear_1235_20297)"/>
<path fill-rule="evenodd" clip-rule="evenodd" d="M343.418 433.407C340.001 435.241 336.137 436.078 332.267 435.824C328.396 435.569 324.676 434.232 321.528 431.966C318.381 429.699 315.933 426.595 314.464 423.005C312.995 419.416 312.564 415.486 313.219 411.663L328.198 324.982L264.762 263.565C262.014 260.862 260.075 257.446 259.163 253.7C258.251 249.955 258.403 246.029 259.601 242.365C260.799 238.702 262.995 235.445 265.944 232.961C268.892 230.478 272.475 228.867 276.289 228.309L363.988 215.66L403.161 136.728C404.896 133.262 407.561 130.347 410.859 128.31C414.157 126.272 417.957 125.193 421.833 125.193C425.709 125.193 429.509 126.272 432.807 128.31C436.105 130.347 438.77 133.262 440.505 136.728L479.678 215.66L567.377 228.309C571.192 228.866 574.775 230.477 577.724 232.96C580.673 235.443 582.87 238.7 584.068 242.364C585.266 246.028 585.418 249.954 584.506 253.7C583.593 257.446 581.654 260.862 578.905 263.565L515.434 324.948L530.413 411.629C531.074 415.454 530.648 419.388 529.181 422.982C527.715 426.576 525.268 429.686 522.12 431.956C518.971 434.227 515.248 435.566 511.375 435.823C507.502 436.08 503.634 435.243 500.214 433.407L421.799 392.525L343.418 433.407ZM138.98 434.676C137.289 435.584 135.378 435.998 133.463 435.873C131.548 435.747 129.707 435.086 128.149 433.964C126.592 432.843 125.381 431.307 124.654 429.531C123.927 427.755 123.714 425.811 124.038 423.919L131.449 381.034L100.062 350.649C98.7019 349.312 97.7422 347.622 97.2908 345.768C96.8394 343.915 96.9144 341.973 97.5072 340.16C98.1001 338.347 99.1873 336.735 100.646 335.507C102.105 334.278 103.879 333.482 105.766 333.206L149.158 326.948L168.54 287.897C169.399 286.182 170.718 284.741 172.349 283.733C173.981 282.725 175.861 282.191 177.779 282.191C179.696 282.191 181.576 282.725 183.208 283.733C184.839 284.741 186.158 286.182 187.017 287.897L206.399 326.948L249.792 333.206C251.679 333.482 253.452 334.279 254.911 335.507C256.37 336.736 257.457 338.347 258.05 340.16C258.643 341.973 258.718 343.915 258.266 345.769C257.815 347.622 256.855 349.312 255.495 350.649L224.091 381.017L231.502 423.902C231.83 425.795 231.62 427.742 230.894 429.52C230.169 431.299 228.958 432.838 227.4 433.962C225.842 435.085 223.999 435.748 222.083 435.874C220.166 436.001 218.252 435.585 216.56 434.676L177.762 414.451L138.98 434.676ZM627.018 434.676C625.327 435.584 623.416 435.998 621.501 435.873C619.586 435.747 617.745 435.086 616.187 433.964C614.63 432.843 613.419 431.307 612.692 429.531C611.965 427.755 611.752 425.811 612.076 423.919L619.488 381.034L588.1 350.649C586.74 349.312 585.78 347.622 585.329 345.768C584.877 343.915 584.952 341.973 585.545 340.16C586.138 338.347 587.225 336.735 588.684 335.507C590.143 334.278 591.917 333.482 593.804 333.206L637.196 326.948L656.578 287.897C657.437 286.182 658.756 284.741 660.387 283.733C662.019 282.725 663.899 282.191 665.817 282.191C667.734 282.191 669.614 282.725 671.246 283.733C672.877 284.741 674.196 286.182 675.055 287.897L694.438 326.948L737.83 333.206C739.717 333.482 741.49 334.279 742.949 335.507C744.408 336.736 745.495 338.347 746.088 340.16C746.68 341.973 746.755 343.915 746.304 345.768C745.853 347.621 744.894 349.312 743.534 350.649L712.129 381.017L719.541 423.902C719.869 425.795 719.657 427.741 718.932 429.52C718.206 431.298 716.995 432.837 715.437 433.96C713.879 435.084 712.037 435.746 710.12 435.873C708.204 436 706.29 435.585 704.598 434.676L665.8 414.451L627.018 434.676Z" fill="#4F27AA" stroke="#4F27AA" stroke-width="25.874" stroke-linecap="round" stroke-linejoin="round"/>
<path d="M450.564 274.764L414.618 310.71L393.03 289.139" stroke="white" stroke-width="25.874" stroke-linecap="round" stroke-linejoin="round"/>
<path d="M691.438 270.114C670.818 274.999 649.01 257.512 649.01 257.512C649.01 257.512 660.647 232.115 681.274 227.245C701.893 222.36 723.695 239.832 723.695 239.832C723.695 239.832 712.057 265.229 691.438 270.114Z" fill="url(#paint2_linear_1235_20297)"/>
<path d="M764.041 416.593C776.238 424.994 794.872 419.122 794.872 419.122C794.872 419.122 793.718 399.63 781.513 391.237C769.316 382.836 750.69 388.7 750.69 388.7C750.69 388.7 751.844 408.192 764.041 416.593Z" fill="url(#paint3_linear_1235_20297)"/>
<path d="M262.328 479.039C271.739 488.617 289.338 486.598 289.338 486.598C289.338 486.598 291.666 469.048 282.247 459.476C272.836 449.897 255.246 451.911 255.246 451.911C255.246 451.911 252.917 469.461 262.328 479.039Z" fill="url(#paint4_linear_1235_20297)"/>
<path d="M711.535 335.295C703.217 335.295 696.474 341.745 696.474 349.701C696.474 357.658 703.217 364.107 711.535 364.107C719.853 364.107 726.596 357.658 726.596 349.701C726.596 341.745 719.853 335.295 711.535 335.295Z" fill="#4F27AA"/>
<path d="M422.464 471.868C411.253 471.868 402.164 480.664 402.164 491.513C402.164 502.363 411.253 511.158 422.464 511.158C433.675 511.158 442.764 502.363 442.764 491.513C442.764 480.664 433.675 471.868 422.464 471.868Z" fill="#4F27AA"/>
<path d="M192.482 221.238C184.318 221.238 177.699 214.619 177.699 206.455C177.699 198.29 184.318 191.672 192.482 191.672C200.646 191.672 207.265 198.29 207.265 206.455C207.265 214.619 200.646 221.238 192.482 221.238Z" fill="#4F27AA"/>
<path d="M515.6 168.691C508.005 168.691 501.848 162.535 501.848 154.939C501.848 147.344 508.005 141.188 515.6 141.188C523.195 141.188 529.352 147.344 529.352 154.939C529.352 162.535 523.195 168.691 515.6 168.691Z" fill="#4F27AA"/>
<path d="M681.357 491.953C674.526 491.953 668.989 486.415 668.989 479.585C668.989 472.754 674.526 467.217 681.357 467.217C688.188 467.217 693.725 472.754 693.725 479.585C693.725 486.415 688.188 491.953 681.357 491.953Z" fill="#E1E4E5"/>
<path d="M135.009 431C130.596 431 127.018 427.422 127.018 423.009C127.018 418.595 130.596 415.018 135.009 415.018C139.422 415.018 143 418.595 143 423.009C143 427.422 139.422 431 135.009 431Z" fill="white"/>
<path d="M350.233 509.371C346.693 509.371 343.823 506.501 343.823 502.961C343.823 499.421 346.693 496.551 350.233 496.551C353.773 496.551 356.643 499.421 356.643 502.961C356.643 506.501 353.773 509.371 350.233 509.371Z" fill="#E1E4E5"/>
<path d="M616.447 168.863C611.044 168.863 606.664 164.483 606.664 159.08C606.664 153.677 611.044 149.297 616.447 149.297C621.85 149.297 626.23 153.677 626.23 159.08C626.23 164.483 621.85 168.863 616.447 168.863Z" fill="#E1E4E5"/>
<path d="M198.527 318.738C199.442 322.151 197.416 325.66 194.003 326.575C190.589 327.49 187.08 325.464 186.166 322.05C185.251 318.636 187.277 315.128 190.69 314.213C194.104 313.298 197.613 315.324 198.527 318.738Z" fill="white"/>
<path d="M326.533 180.366C321.831 180.366 318.02 176.554 318.02 171.853C318.02 167.151 321.831 163.34 326.533 163.34C331.235 163.34 335.046 167.151 335.046 171.853C335.046 176.554 331.235 180.366 326.533 180.366Z" fill="#E1E4E5"/>
<path d="M607.294 342.107C603.678 342.107 600.746 339.761 600.746 336.868C600.746 333.974 603.678 331.629 607.294 331.629C610.91 331.629 613.842 333.974 613.842 336.868C613.842 339.761 610.91 342.107 607.294 342.107Z" fill="white"/>
<path d="M713.059 432.204C707.769 434.784 701.829 433.491 699.791 429.315C697.754 425.138 700.39 419.66 705.681 417.079C710.971 414.498 716.911 415.792 718.949 419.968C720.986 424.145 718.349 429.623 713.059 432.204Z" fill="white"/>
<path d="M486.531 92.2861C488.303 98.8973 484.38 105.693 477.768 107.464C471.157 109.236 464.361 105.312 462.59 98.7012C460.819 92.0899 464.742 85.2944 471.353 83.5229C477.964 81.7514 484.76 85.6749 486.531 92.2861Z" fill="#E1E4E5"/>
<path d="M760.389 274.833H760.561C761.575 289.206 772.264 289.427 772.264 289.427C772.264 289.427 760.477 289.657 760.477 306.265C760.477 289.657 748.69 289.427 748.69 289.427C748.69 289.427 759.375 289.206 760.389 274.833ZM270.853 94.9023H271.148C272.895 120.055 291.304 120.442 291.304 120.442C291.304 120.442 271.004 120.845 271.004 149.908C271.004 120.845 250.704 120.442 250.704 120.442C250.704 120.442 269.106 120.055 270.853 94.9023Z" fill="#E1E4E5"/>
</g>
<defs>
<linearGradient id="paint0_linear_1235_20297" x1="506.825" y1="694.74" x2="297.231" y2="-250.878" gradientUnits="userSpaceOnUse">
<stop stop-color="white"/>
<stop offset="1" stop-color="#EEEEEE"/>
</linearGradient>
<linearGradient id="paint1_linear_1235_20297" x1="522.955" y1="323.159" x2="431.435" y2="-88.0933" gradientUnits="userSpaceOnUse">
<stop stop-color="white"/>
<stop offset="1" stop-color="#EEEEEE"/>
</linearGradient>
<linearGradient id="paint2_linear_1235_20297" x1="613.79" y1="282.259" x2="794.293" y2="196.984" gradientUnits="userSpaceOnUse">
<stop stop-color="white"/>
<stop offset="1" stop-color="#EEEEEE"/>
</linearGradient>
<linearGradient id="paint3_linear_1235_20297" x1="811.554" y1="444.159" x2="715.541" y2="342.916" gradientUnits="userSpaceOnUse">
<stop stop-color="white"/>
<stop offset="1" stop-color="#EEEEEE"/>
</linearGradient>
<linearGradient id="paint4_linear_1235_20297" x1="299.876" y1="511.757" x2="231.84" y2="405.104" gradientUnits="userSpaceOnUse">
<stop stop-color="white"/>
<stop offset="1" stop-color="#EEEEEE"/>
</linearGradient>
<clipPath id="clip0_1235_20297">
<rect width="900" height="600" fill="white"/>
</clipPath>
</defs>
</svg>
