<svg width="900" height="600" viewBox="0 0 900 600" fill="none" xmlns="http://www.w3.org/2000/svg">
<g clip-path="url(#clip0_1235_20367)">
<path fill-rule="evenodd" clip-rule="evenodd" d="M234.176 236H569.336C577.693 236 584.466 243.126 584.466 251.916V296.865C584.466 305.656 591.24 312.782 599.596 312.782H729.742C743.505 312.782 754.661 324.519 754.661 338.996V403.43C754.661 417.909 765.818 429.645 779.578 429.645H780.081C793.844 429.645 805 441.38 805 455.858V510.787C805 525.264 793.844 537 780.081 537H438.989C430.633 537 423.859 529.875 423.859 521.084V514.3C423.859 505.511 430.633 498.383 438.989 498.383H548.516C556.872 498.383 563.646 491.257 563.646 482.467V482.146C563.646 473.356 556.872 466.231 548.516 466.231H171.851C154.813 466.231 141 451.699 141 433.775V398.767C141 380.842 154.813 366.313 171.851 366.313H172.474C189.512 366.313 203.325 351.782 203.325 333.859V268.454C203.325 250.53 217.137 236 234.176 236Z" fill="url(#paint0_linear_1235_20367)"/>
<path fill-rule="evenodd" clip-rule="evenodd" d="M705.229 387H346.345C337.397 387 330.144 379.732 330.144 370.766V324.922C330.144 315.956 322.891 308.687 313.944 308.687H174.584C159.848 308.687 147.902 296.717 147.902 281.951V216.233C147.902 201.465 135.956 189.495 121.221 189.495H120.683C105.946 189.495 94 177.526 94 162.76V106.735C94 91.97 105.946 80 120.683 80H485.918C494.865 80 502.119 87.267 502.119 96.234V103.153C502.119 112.117 494.865 119.386 485.918 119.386H368.638C359.691 119.386 352.437 126.655 352.437 135.62V135.948C352.437 144.913 359.691 152.18 368.638 152.18H771.966C790.21 152.18 805 167.002 805 185.283V220.988C805 239.271 790.21 254.089 771.966 254.089H771.298C753.054 254.089 738.264 268.91 738.264 287.191V353.899C738.264 372.18 723.473 387 705.229 387Z" fill="url(#paint1_linear_1235_20367)"/>
<path d="M705 125H229C209.118 125 193 141.118 193 161V458C193 477.882 209.118 494 229 494H705C724.882 494 741 477.882 741 458V161C741 141.118 724.882 125 705 125Z" fill="#4F27AA"/>
<path d="M237 165C241.418 165 245 161.418 245 157C245 152.582 241.418 149 237 149C232.582 149 229 152.582 229 157C229 161.418 232.582 165 237 165Z" fill="white"/>
<path d="M265 165C269.418 165 273 161.418 273 157C273 152.582 269.418 149 265 149C260.582 149 257 152.582 257 157C257 161.418 260.582 165 265 165Z" fill="white"/>
<path d="M293 165C297.418 165 301 161.418 301 157C301 152.582 297.418 149 293 149C288.582 149 285 152.582 285 157C285 161.418 288.582 165 293 165Z" fill="white"/>
<path d="M303 302C307.418 302 311 298.418 311 294C311 289.582 307.418 286 303 286C298.582 286 295 289.582 295 294C295 298.418 298.582 302 303 302Z" fill="white"/>
<path d="M672.5 355H432.5C427.806 355 424 358.806 424 363.5C424 368.194 427.806 372 432.5 372H672.5C677.194 372 681 368.194 681 363.5C681 358.806 677.194 355 672.5 355Z" fill="white"/>
<path d="M672 304H451C446.029 304 442 308.029 442 313C442 317.971 446.029 322 451 322H672C676.971 322 681 317.971 681 313C681 308.029 676.971 304 672 304Z" fill="white"/>
<path d="M672.5 254H420.5C415.806 254 412 257.806 412 262.5C412 267.194 415.806 271 420.5 271H672.5C677.194 271 681 267.194 681 262.5C681 257.806 677.194 254 672.5 254Z" fill="white"/>
<path d="M384 308.677C381.248 308.253 378.469 308.028 375.685 308.001C358.901 307.881 342.909 315.24 331.935 328.134C320.962 341.028 316.113 358.159 318.668 375" stroke="white" stroke-width="13.5" stroke-linecap="round" stroke-linejoin="round"/>
<path d="M387 312.5C387.001 329.607 380.206 346.013 368.11 358.11C356.013 370.206 339.607 377.001 322.5 377V377C305.393 377.001 288.987 370.206 276.89 358.11C264.794 346.013 257.999 329.607 258 312.5C257.999 295.393 264.794 278.987 276.89 266.89C288.987 254.794 305.393 247.999 322.5 248V248C339.607 247.999 356.013 254.794 368.11 266.89C380.206 278.987 387.001 295.393 387 312.5V312.5Z" stroke="white" stroke-width="13.5" stroke-linecap="round" stroke-linejoin="round"/>
</g>
<defs>
<linearGradient id="paint0_linear_1235_20367" x1="487.158" y1="705.758" x2="482.95" y2="-91.523" gradientUnits="userSpaceOnUse">
<stop stop-color="white"/>
<stop offset="1" stop-color="#EEEEEE"/>
</linearGradient>
<linearGradient id="paint1_linear_1235_20367" x1="434.34" y1="-92.122" x2="438.428" y2="721.053" gradientUnits="userSpaceOnUse">
<stop stop-color="white"/>
<stop offset="1" stop-color="#EEEEEE"/>
</linearGradient>
<clipPath id="clip0_1235_20367">
<rect width="900" height="600" fill="white"/>
</clipPath>
</defs>
</svg>
