<svg width="900" height="600" viewBox="0 0 900 600" fill="none" xmlns="http://www.w3.org/2000/svg">
<g clip-path="url(#clip0_1235_20424)">
<path d="M595.714 161.795C590.264 171.521 578.329 172.857 559.208 171.009C544.827 169.616 531.713 168.539 517.331 160.698C507.265 155.213 499.297 147.793 493.481 140.586C487.179 132.779 478.383 123.869 482.695 115.017C488.621 102.857 522.891 92.6152 556.168 109.363C592.723 127.767 601.045 152.289 595.714 161.795Z" fill="url(#paint0_linear_1235_20424)"/>
<path d="M344.424 479.633C310.052 431.549 274.852 380.442 228.767 355.27C181.232 329.293 172.466 345.304 169.175 370.757C165.885 396.21 180.551 456.516 245.422 490.829C310.311 525.152 376.585 524.637 344.424 479.633Z" fill="url(#paint1_linear_1235_20424)"/>
<path d="M593.89 437.164C558.374 441.822 521.006 446.062 494.399 463.521C466.948 481.526 473.007 490.781 485.677 499.802C498.347 508.823 534.776 518.187 571.63 493.291C608.495 468.389 627.128 432.807 593.89 437.164Z" fill="url(#paint2_linear_1235_20424)"/>
<path d="M642.364 200.774C626.923 204.432 610.591 191.337 610.591 191.337C610.591 191.337 619.306 172.318 634.753 168.671C650.194 165.013 666.521 178.097 666.521 178.097C666.521 178.097 657.805 197.116 642.364 200.774Z" fill="url(#paint3_linear_1235_20424)"/>
<path d="M380.737 126.419C396.994 137.617 421.829 129.789 421.829 129.789C421.829 129.789 420.291 103.811 404.024 92.6239C387.768 81.4269 362.943 89.2439 362.943 89.2439C362.943 89.2439 364.481 115.222 380.737 126.419Z" fill="url(#paint4_linear_1235_20424)"/>
<path d="M169.072 286.151C186.695 304.089 219.651 300.307 219.651 300.307C219.651 300.307 224.012 267.442 206.372 249.516C188.748 231.579 155.809 235.35 155.809 235.35C155.809 235.35 151.448 268.214 169.072 286.151Z" fill="url(#paint5_linear_1235_20424)"/>
<path d="M688.098 333.001C680.865 333.001 675.001 338.61 675.001 345.529C675.001 352.448 680.865 358.057 688.098 358.057C695.331 358.057 701.195 352.448 701.195 345.529C701.195 338.61 695.331 333.001 688.098 333.001Z" fill="#4F27AA"/>
<path d="M242.058 442.027C232.308 442.027 224.405 449.676 224.405 459.11C224.405 468.545 232.308 476.193 242.058 476.193C251.807 476.193 259.711 468.545 259.711 459.11C259.711 449.676 251.807 442.027 242.058 442.027Z" fill="#4F27AA"/>
<path d="M258.264 263.528C254.804 263.528 252 260.724 252 257.264C252 253.804 254.804 251 258.264 251C261.723 251 264.528 253.804 264.528 257.264C264.528 260.724 261.723 263.528 258.264 263.528Z" fill="#4F27AA"/>
<path d="M620.958 146.916C614.354 146.916 609 141.562 609 134.958C609 128.354 614.354 123 620.958 123C627.562 123 632.916 128.354 632.916 134.958C632.916 141.562 627.562 146.916 620.958 146.916Z" fill="#4F27AA"/>
<path d="M693.755 458.51C687.815 458.51 683 453.695 683 447.755C683 441.815 687.815 437 693.755 437C699.695 437 704.51 441.815 704.51 447.755C704.51 453.695 699.695 458.51 693.755 458.51Z" fill="#E1E4E5"/>
<path d="M188.313 353.624C182.065 353.624 177 348.559 177 342.311C177 336.063 182.065 330.998 188.313 330.998C194.561 330.998 199.626 336.063 199.626 342.311C199.626 348.559 194.561 353.624 188.313 353.624Z" fill="#E1E4E5"/>
<path d="M296.724 520.611C294.523 520.611 292.738 518.826 292.738 516.625C292.738 514.423 294.523 512.639 296.724 512.639C298.925 512.639 300.71 514.423 300.71 516.625C300.71 518.826 298.925 520.611 296.724 520.611Z" fill="#E1E4E5"/>
<path d="M576.694 152.388C573.549 152.388 571 149.839 571 146.694C571 143.549 573.549 141 576.694 141C579.839 141 582.388 143.549 582.388 146.694C582.388 149.839 579.839 152.388 576.694 152.388Z" fill="#E1E4E5"/>
<path d="M267.191 322.374C267.987 325.342 266.225 328.394 263.256 329.189C260.287 329.985 257.236 328.223 256.44 325.254C255.645 322.286 257.407 319.234 260.375 318.439C263.344 317.643 266.396 319.405 267.191 322.374Z" fill="#E1E4E5"/>
<path d="M212.591 162.165C208.503 162.165 205.188 158.851 205.188 154.762C205.188 150.674 208.503 147.359 212.591 147.359C216.68 147.359 219.994 150.674 219.994 154.762C219.994 158.851 216.68 162.165 212.591 162.165Z" fill="#E1E4E5"/>
<path d="M636.695 333.112C633.55 333.112 631.001 331.072 631.001 328.556C631.001 326.04 633.55 324 636.695 324C639.84 324 642.389 326.04 642.389 328.556C642.389 331.072 639.84 333.112 636.695 333.112Z" fill="#E1E4E5"/>
<path d="M462.371 101.188C464.026 107.366 460.36 113.716 454.182 115.371C448.004 117.027 441.653 113.361 439.998 107.182C438.342 101.004 442.009 94.6541 448.187 92.9987C454.365 91.3433 460.715 95.0096 462.371 101.188Z" fill="#E1E4E5"/>
<path d="M726.174 290H726.323C727.205 302.499 736.5 302.691 736.5 302.691C736.5 302.691 726.25 302.891 726.25 317.333C726.25 302.891 716 302.691 716 302.691C716 302.691 725.291 302.499 726.174 290ZM326.521 113H326.778C328.297 134.873 344.306 135.21 344.306 135.21C344.306 135.21 326.653 135.56 326.653 160.833C326.653 135.56 309 135.21 309 135.21C309 135.21 325.002 134.873 326.521 113Z" fill="#E1E4E5"/>
<path d="M434.63 454.471C516.463 454.471 582.802 388.132 582.802 306.299C582.802 224.466 516.463 158.127 434.63 158.127C352.797 158.127 286.458 224.466 286.458 306.299C286.458 388.132 352.797 454.471 434.63 454.471Z" stroke="#E1E4E5" stroke-width="4"/>
<path d="M434.63 396.848C484.639 396.848 525.18 356.307 525.18 306.298C525.18 256.289 484.639 215.748 434.63 215.748C384.621 215.748 344.08 256.289 344.08 306.298C344.08 356.307 384.621 396.848 434.63 396.848Z" fill="#4F27AA"/>
<path fill-rule="evenodd" clip-rule="evenodd" d="M437.934 339.494C446.133 328.539 455.517 318.524 465.916 309.631L466.089 309.483C466.55 309.089 466.919 308.6 467.173 308.05C467.426 307.499 467.558 306.901 467.558 306.295C467.558 305.689 467.426 305.09 467.173 304.54C466.919 303.989 466.55 303.5 466.089 303.106L465.916 302.957C455.517 294.065 446.133 284.05 437.934 273.095C437.55 272.582 437.051 272.165 436.478 271.878C435.905 271.591 435.272 271.442 434.631 271.442C433.99 271.442 433.358 271.591 432.784 271.878C432.211 272.165 431.712 272.582 431.328 273.095C423.13 284.05 413.745 294.065 403.345 302.957L403.173 303.106C402.712 303.5 402.342 303.989 402.088 304.539C401.834 305.09 401.703 305.689 401.703 306.295C401.703 306.901 401.834 307.5 402.088 308.05C402.342 308.601 402.712 309.09 403.173 309.483L403.345 309.631C413.745 318.524 423.129 328.539 431.328 339.494C431.712 340.007 432.211 340.424 432.784 340.711C433.358 340.998 433.99 341.148 434.631 341.148C435.272 341.148 435.905 340.998 436.478 340.711C437.051 340.424 437.55 340.007 437.934 339.494ZM434.628 215.74V158.117V215.74Z" fill="white"/>
<path d="M434.628 215.74V158.117" stroke="#E1E4E5" stroke-width="4"/>
<path d="M434.628 396.846V454.469" stroke="#E1E4E5" stroke-width="4"/>
<path fill-rule="evenodd" clip-rule="evenodd" d="M539.398 201.518L498.652 242.263L539.398 201.518Z" fill="white"/>
<path d="M539.398 201.518L498.652 242.263" stroke="#E1E4E5" stroke-width="4"/>
<path fill-rule="evenodd" clip-rule="evenodd" d="M370.596 370.32L329.85 411.066L370.596 370.32Z" fill="white"/>
<path d="M370.596 370.32L329.85 411.066" stroke="#E1E4E5" stroke-width="4"/>
<path d="M582.801 306.297H525.177" stroke="#E1E4E5" stroke-width="4"/>
<path d="M344.074 306.297H286.45" stroke="#E1E4E5" stroke-width="4"/>
<path fill-rule="evenodd" clip-rule="evenodd" d="M498.652 370.32L539.398 411.066L498.652 370.32Z" fill="white"/>
<path d="M498.652 370.32L539.398 411.066" stroke="#E1E4E5" stroke-width="4"/>
<path fill-rule="evenodd" clip-rule="evenodd" d="M329.85 201.518L370.596 242.263L329.85 201.518Z" fill="white"/>
<path d="M329.85 201.518L370.596 242.263" stroke="#E1E4E5" stroke-width="4"/>
<path fill-rule="evenodd" clip-rule="evenodd" d="M632.928 360.066H570.664C556.925 360.107 545.798 371.234 545.758 384.972V447.237C545.798 460.975 556.925 472.102 570.664 472.143H632.928C646.667 472.102 657.794 460.975 657.834 447.237V384.972C657.794 371.234 646.667 360.107 632.928 360.066Z" fill="#4F27AA" stroke="#4F27AA" stroke-width="7.813" stroke-linecap="round" stroke-linejoin="round"/>
<path d="M573.841 403.085C578.131 403.085 581.608 399.607 581.608 395.318C581.608 391.028 578.131 387.551 573.841 387.551C569.552 387.551 566.074 391.028 566.074 395.318C566.074 399.607 569.552 403.085 573.841 403.085Z" fill="white"/>
<path d="M573.84 444.909C578.13 444.909 581.607 441.432 581.607 437.142C581.607 432.852 578.13 429.375 573.84 429.375C569.551 429.375 566.073 432.852 566.073 437.142C566.073 441.432 569.551 444.909 573.84 444.909Z" fill="white"/>
<path d="M601.325 403.085C605.615 403.085 609.092 399.607 609.092 395.318C609.092 391.028 605.615 387.551 601.325 387.551C597.036 387.551 593.558 391.028 593.558 395.318C593.558 399.607 597.036 403.085 601.325 403.085Z" fill="white"/>
<path d="M601.325 444.909C605.615 444.909 609.092 441.432 609.092 437.142C609.092 432.852 605.615 429.375 601.325 429.375C597.036 429.375 593.558 432.852 593.558 437.142C593.558 441.432 597.036 444.909 601.325 444.909Z" fill="white"/>
<path d="M628.809 403.085C633.099 403.085 636.576 399.607 636.576 395.318C636.576 391.028 633.099 387.551 628.809 387.551C624.519 387.551 621.042 391.028 621.042 395.318C621.042 399.607 624.519 403.085 628.809 403.085Z" fill="white"/>
<path d="M628.809 444.909C633.099 444.909 636.576 441.432 636.576 437.142C636.576 432.852 633.099 429.375 628.809 429.375C624.519 429.375 621.042 432.852 621.042 437.142C621.042 441.432 624.519 444.909 628.809 444.909Z" fill="white"/>
<path fill-rule="evenodd" clip-rule="evenodd" d="M304.308 360.066H242.044C228.306 360.107 217.178 371.234 217.138 384.972V447.237C217.178 460.975 228.306 472.102 242.044 472.143H304.308C318.047 472.102 329.174 460.975 329.214 447.237V384.972C329.174 371.234 318.047 360.107 304.308 360.066Z" fill="#4F27AA" stroke="#4F27AA" stroke-width="7.813" stroke-linecap="round" stroke-linejoin="round"/>
<path d="M245.221 403.085C249.511 403.085 252.988 399.607 252.988 395.318C252.988 391.028 249.511 387.551 245.221 387.551C240.932 387.551 237.454 391.028 237.454 395.318C237.454 399.607 240.932 403.085 245.221 403.085Z" fill="white"/>
<path d="M245.22 444.909C249.51 444.909 252.987 441.432 252.987 437.142C252.987 432.852 249.51 429.375 245.22 429.375C240.931 429.375 237.453 432.852 237.453 437.142C237.453 441.432 240.931 444.909 245.22 444.909Z" fill="white"/>
<path d="M272.705 403.085C276.995 403.085 280.472 399.607 280.472 395.318C280.472 391.028 276.995 387.551 272.705 387.551C268.415 387.551 264.938 391.028 264.938 395.318C264.938 399.607 268.415 403.085 272.705 403.085Z" fill="white"/>
<path d="M272.705 444.909C276.995 444.909 280.472 441.432 280.472 437.142C280.472 432.852 276.995 429.375 272.705 429.375C268.415 429.375 264.938 432.852 264.938 437.142C264.938 441.432 268.415 444.909 272.705 444.909Z" fill="white"/>
<path d="M300.189 403.085C304.478 403.085 307.956 399.607 307.956 395.318C307.956 391.028 304.478 387.551 300.189 387.551C295.899 387.551 292.422 391.028 292.422 395.318C292.422 399.607 295.899 403.085 300.189 403.085Z" fill="white"/>
<path d="M300.189 444.909C304.478 444.909 307.956 441.432 307.956 437.142C307.956 432.852 304.478 429.375 300.189 429.375C295.899 429.375 292.422 432.852 292.422 437.142C292.422 441.432 295.899 444.909 300.189 444.909Z" fill="white"/>
<path fill-rule="evenodd" clip-rule="evenodd" d="M664.866 239.791C669.631 244.556 672.876 250.627 674.191 257.236C675.505 263.845 674.83 270.696 672.252 276.921C669.673 283.147 665.306 288.468 659.703 292.212C654.1 295.956 647.513 297.954 640.774 297.954C634.036 297.954 627.448 295.956 621.845 292.212C616.242 288.468 611.875 283.147 609.297 276.921C606.718 270.696 606.043 263.845 607.358 257.236C608.672 250.627 611.917 244.556 616.682 239.791C629.987 226.486 651.56 226.486 664.866 239.791Z" fill="#4F27AA"/>
<path d="M664.866 239.791C669.631 244.556 672.876 250.627 674.191 257.236C675.505 263.845 674.83 270.696 672.252 276.921C669.673 283.147 665.306 288.468 659.703 292.212C654.1 295.956 647.513 297.954 640.774 297.954C634.036 297.954 627.448 295.956 621.845 292.212C616.242 288.468 611.875 283.147 609.297 276.921C606.718 270.696 606.043 263.845 607.358 257.236C608.672 250.627 611.917 244.556 616.682 239.791C629.987 226.486 651.56 226.486 664.866 239.791Z" stroke="#4F27AA" stroke-width="4.75" stroke-linecap="round" stroke-linejoin="round"/>
<path fill-rule="evenodd" clip-rule="evenodd" d="M642.208 278.306C645.769 273.546 649.845 269.195 654.362 265.332L654.437 265.267C654.637 265.096 654.798 264.883 654.909 264.644C655.019 264.405 655.076 264.145 655.076 263.881C655.076 263.618 655.019 263.357 654.909 263.118C654.798 262.879 654.637 262.667 654.437 262.496L654.362 262.432C649.845 258.568 645.769 254.217 642.208 249.458C642.041 249.235 641.824 249.054 641.575 248.93C641.326 248.805 641.052 248.74 640.773 248.74C640.495 248.74 640.221 248.805 639.972 248.93C639.723 249.054 639.506 249.235 639.339 249.458C635.778 254.217 631.702 258.568 627.185 262.432L627.11 262.497C626.91 262.668 626.749 262.88 626.638 263.119C626.528 263.358 626.471 263.619 626.471 263.882C626.471 264.146 626.528 264.406 626.638 264.645C626.749 264.884 626.91 265.097 627.11 265.268L627.185 265.332C631.702 269.195 635.778 273.546 639.339 278.306C639.506 278.529 639.722 278.71 639.971 278.835C640.22 278.96 640.495 279.025 640.773 279.025C641.052 279.025 641.327 278.96 641.576 278.835C641.825 278.71 642.041 278.529 642.208 278.306Z" fill="white"/>
<path fill-rule="evenodd" clip-rule="evenodd" d="M513.8 144.343C516.422 146.965 518.43 150.135 519.68 153.625C520.929 157.116 521.389 160.84 521.026 164.53C520.663 168.22 519.486 171.783 517.58 174.963C515.674 178.144 513.086 180.861 510.003 182.921C506.921 184.981 503.419 186.332 499.752 186.875C496.084 187.419 492.342 187.143 488.794 186.066C485.246 184.99 481.981 183.14 479.235 180.649C476.488 178.159 474.327 175.091 472.909 171.665C471.012 167.084 470.515 162.043 471.483 157.18C472.45 152.317 474.838 147.85 478.344 144.343C488.135 134.552 504.009 134.552 513.8 144.343Z" fill="#4F27AA"/>
<path d="M513.8 144.343C516.422 146.965 518.43 150.135 519.68 153.625C520.929 157.116 521.389 160.84 521.026 164.53C520.663 168.22 519.486 171.783 517.58 174.963C515.674 178.144 513.086 180.861 510.003 182.921C506.921 184.981 503.419 186.332 499.752 186.875C496.084 187.419 492.342 187.143 488.794 186.066C485.246 184.99 481.981 183.14 479.235 180.649C476.488 178.159 474.327 175.091 472.909 171.665C471.012 167.084 470.515 162.043 471.483 157.18C472.45 152.317 474.838 147.85 478.344 144.343C488.135 134.552 504.009 134.552 513.8 144.343Z" stroke="#4F27AA" stroke-width="3.495" stroke-linecap="round" stroke-linejoin="round"/>
<path fill-rule="evenodd" clip-rule="evenodd" d="M497.127 172.683C499.747 169.181 502.747 165.979 506.071 163.136L506.126 163.089C506.273 162.963 506.391 162.807 506.472 162.631C506.553 162.455 506.595 162.263 506.595 162.07C506.595 161.876 506.553 161.684 506.472 161.508C506.391 161.332 506.273 161.176 506.126 161.05L506.071 161.003C502.747 158.16 499.747 154.958 497.127 151.455C497.004 151.291 496.844 151.158 496.661 151.067C496.478 150.975 496.276 150.928 496.071 150.928C495.867 150.928 495.665 150.975 495.481 151.067C495.298 151.158 495.139 151.291 495.016 151.455C492.396 154.958 489.397 158.16 486.073 161.003L486.017 161.05C485.869 161.176 485.751 161.332 485.67 161.508C485.588 161.684 485.546 161.876 485.546 162.07C485.546 162.263 485.588 162.455 485.67 162.631C485.751 162.807 485.869 162.963 486.017 163.089L486.073 163.136C489.396 165.98 492.396 169.182 495.016 172.684C495.139 172.848 495.298 172.981 495.482 173.072C495.665 173.163 495.867 173.211 496.072 173.211C496.276 173.211 496.478 173.163 496.661 173.071C496.845 172.98 497.004 172.847 497.127 172.683Z" fill="white"/>
<path fill-rule="evenodd" clip-rule="evenodd" d="M292.032 168.092C296.797 172.857 300.043 178.928 301.357 185.537C302.672 192.147 301.998 198.998 299.419 205.224C296.84 211.449 292.473 216.771 286.87 220.515C281.267 224.259 274.679 226.257 267.94 226.257C261.201 226.257 254.614 224.259 249.011 220.515C243.407 216.771 239.04 211.449 236.462 205.224C233.883 198.998 233.208 192.147 234.523 185.537C235.838 178.928 239.083 172.857 243.848 168.092C257.154 154.787 278.727 154.787 292.032 168.092Z" fill="#4F27AA"/>
<path d="M292.032 168.092C296.797 172.857 300.043 178.928 301.357 185.537C302.672 192.147 301.998 198.998 299.419 205.224C296.84 211.449 292.473 216.771 286.87 220.515C281.267 224.259 274.679 226.257 267.94 226.257C261.201 226.257 254.614 224.259 249.011 220.515C243.407 216.771 239.04 211.449 236.462 205.224C233.883 198.998 233.208 192.147 234.523 185.537C235.838 178.928 239.083 172.857 243.848 168.092C257.154 154.787 278.727 154.787 292.032 168.092Z" stroke="#4F27AA" stroke-width="4.75" stroke-linecap="round" stroke-linejoin="round"/>
<path fill-rule="evenodd" clip-rule="evenodd" d="M269.374 206.608C272.935 201.849 277.011 197.497 281.528 193.634L281.603 193.57C281.803 193.398 281.963 193.186 282.073 192.947C282.183 192.708 282.24 192.447 282.24 192.184C282.24 191.921 282.183 191.661 282.073 191.422C281.963 191.183 281.803 190.97 281.603 190.799L281.528 190.734C277.011 186.87 272.935 182.519 269.374 177.76C269.207 177.537 268.991 177.355 268.742 177.231C268.493 177.106 268.218 177.041 267.94 177.041C267.661 177.041 267.386 177.106 267.137 177.231C266.888 177.355 266.672 177.537 266.505 177.76C262.944 182.519 258.868 186.871 254.351 190.735L254.276 190.799C254.076 190.97 253.915 191.182 253.804 191.421C253.694 191.66 253.637 191.921 253.637 192.184C253.637 192.448 253.694 192.708 253.804 192.947C253.915 193.186 254.076 193.399 254.276 193.57L254.351 193.634C258.868 197.498 262.944 201.849 266.505 206.609C266.672 206.832 266.889 207.012 267.138 207.137C267.387 207.261 267.661 207.326 267.94 207.326C268.218 207.326 268.493 207.261 268.742 207.136C268.991 207.012 269.207 206.831 269.374 206.608Z" fill="white"/>
</g>
<defs>
<linearGradient id="paint0_linear_1235_20424" x1="559.001" y1="224.829" x2="510.427" y2="6.55624" gradientUnits="userSpaceOnUse">
<stop stop-color="white"/>
<stop offset="1" stop-color="#EEEEEE"/>
</linearGradient>
<linearGradient id="paint1_linear_1235_20424" x1="306.045" y1="637.486" x2="193.275" y2="115.985" gradientUnits="userSpaceOnUse">
<stop stop-color="white"/>
<stop offset="1" stop-color="#EEEEEE"/>
</linearGradient>
<linearGradient id="paint2_linear_1235_20424" x1="667.34" y1="502.72" x2="356.333" y2="414.229" gradientUnits="userSpaceOnUse">
<stop stop-color="white"/>
<stop offset="1" stop-color="#EEEEEE"/>
</linearGradient>
<linearGradient id="paint3_linear_1235_20424" x1="584.216" y1="209.87" x2="719.389" y2="146.009" gradientUnits="userSpaceOnUse">
<stop stop-color="white"/>
<stop offset="1" stop-color="#EEEEEE"/>
</linearGradient>
<linearGradient id="paint4_linear_1235_20424" x1="444.063" y1="163.159" x2="316.097" y2="28.2218" gradientUnits="userSpaceOnUse">
<stop stop-color="white"/>
<stop offset="1" stop-color="#EEEEEE"/>
</linearGradient>
<linearGradient id="paint5_linear_1235_20424" x1="239.387" y1="347.421" x2="111.978" y2="147.697" gradientUnits="userSpaceOnUse">
<stop stop-color="white"/>
<stop offset="1" stop-color="#EEEEEE"/>
</linearGradient>
<clipPath id="clip0_1235_20424">
<rect width="900" height="600" fill="white"/>
</clipPath>
</defs>
</svg>
