<svg width="900" height="600" viewBox="0 0 900 600" fill="none" xmlns="http://www.w3.org/2000/svg">
<g clip-path="url(#clip0_1235_20486)">
<path d="M450 522C628.388 522 773 515.284 773 507C773 498.716 628.388 492 450 492C271.612 492 127 498.716 127 507C127 515.284 271.612 522 450 522Z" fill="url(#paint0_linear_1235_20486)"/>
<path fill-rule="evenodd" clip-rule="evenodd" d="M494.421 368.055H336.535V509.954H494.421V368.055Z" fill="url(#paint1_linear_1235_20486)"/>
<path fill-rule="evenodd" clip-rule="evenodd" d="M519.462 415.98L541.52 390.261L546.543 365.63C549.586 350.71 565.865 342.647 579.577 349.267L571.641 384.302C568.35 398.831 561.32 412.248 551.248 423.223L544.886 430.155L519.462 415.98Z" fill="#F8AE9D"/>
<path fill-rule="evenodd" clip-rule="evenodd" d="M507.833 372.454C502.01 365.266 503.119 354.717 510.309 348.896C517.497 343.077 528.04 344.185 533.861 351.371L556.165 378.906L530.131 399.981L507.833 372.454Z" fill="#4F27AA"/>
<path fill-rule="evenodd" clip-rule="evenodd" d="M466.233 455.345H551.25L539.221 367.043C538.298 360.262 535.164 353.975 530.305 349.157C525.446 344.338 519.133 341.257 512.344 340.391L493.344 337.965C489.382 337.459 485.357 337.825 481.551 339.036C477.744 340.247 474.248 342.275 471.307 344.977C468.366 347.68 466.05 350.992 464.521 354.682C462.993 358.373 462.289 362.352 462.458 366.343L466.233 455.345Z" fill="#4F27AA"/>
<path fill-rule="evenodd" clip-rule="evenodd" d="M520.344 327.542C520.344 327.542 527.557 301.312 528.885 296.011C530.214 290.71 526.818 287.183 522.202 288.946C517.172 283.138 497.493 273.832 489.436 276.697C481.379 279.562 478.641 292.328 487.905 298.364C497.169 304.4 520.344 327.542 520.344 327.542Z" fill="url(#paint2_linear_1235_20486)"/>
<path fill-rule="evenodd" clip-rule="evenodd" d="M482.678 292.275L480.609 314.685C479.837 323.052 485.921 330.49 494.275 331.393L493.088 349.59L512.606 343.992L513.762 318.529L516.59 319.204C517.539 319.431 518.53 319.413 519.47 319.153C520.411 318.893 521.27 318.399 521.968 317.717L522.495 317.202C523.331 316.384 523.845 315.293 523.945 314.127C524.044 312.961 523.722 311.798 523.037 310.85C522.352 309.902 521.349 309.231 520.211 308.959C519.073 308.687 517.876 308.833 516.836 309.369L513.762 310.96C502.7 308.611 492.627 302.921 484.905 294.659L482.678 292.275Z" fill="#F8AE9D"/>
<path fill-rule="evenodd" clip-rule="evenodd" d="M492.491 362.559L493.524 370.48C494.529 378.188 494.159 386.013 492.43 393.592L471.056 487.271C471.056 487.271 466.233 475.399 466.233 455.345C466.233 435.29 467.745 366.087 467.745 366.087L492.491 362.559Z" fill="#2E2445"/>
<path fill-rule="evenodd" clip-rule="evenodd" d="M460.046 363.23C461.965 354.191 470.85 348.421 479.888 350.345C488.919 352.267 494.683 361.144 492.766 370.175L485.388 404.937L452.672 397.973L460.046 363.23Z" fill="url(#paint3_linear_1235_20486)"/>
<path fill-rule="evenodd" clip-rule="evenodd" d="M460.046 363.23C461.965 354.191 470.85 348.421 479.888 350.345C488.919 352.267 494.683 361.144 492.766 370.175L485.388 404.937L452.672 397.973L460.046 363.23Z" fill="#4F27AA"/>
<path fill-rule="evenodd" clip-rule="evenodd" d="M619.099 383.586L673.224 479.885C674.942 482.941 675.739 486.429 675.52 489.928L678.248 498.741H705.926L695.07 484.901C694.055 483.607 693.222 482.181 692.595 480.661L652.513 383.586H619.099Z" fill="#F8AE9D"/>
<path fill-rule="evenodd" clip-rule="evenodd" d="M503.64 463.257L505.479 481.833C506.937 496.558 519.597 507.609 534.384 507.064C547.227 506.591 559.754 502.943 570.843 496.447C581.933 489.951 591.24 480.809 597.934 469.837L631.431 414.938L649.974 444.693L685.497 441.114L658.465 390.768C642.997 361.961 604.344 355.798 580.686 378.368L507.905 447.799L503.64 463.257Z" fill="#2E2445"/>
<path fill-rule="evenodd" clip-rule="evenodd" d="M577.346 389.627L630.058 483.615C631.732 486.6 632.509 490.004 632.295 493.42L634.953 502.021H661.909L651.372 488.56C650.36 487.266 649.529 485.841 648.903 484.322L609.888 389.627H577.346Z" fill="#F8AE9D"/>
<path fill-rule="evenodd" clip-rule="evenodd" d="M629.234 486.953L658.204 485.033L661.321 498.205C674.206 501.763 679.467 504.928 677.104 507.702L632.264 507.719L629.234 486.953Z" fill="#4F27AA"/>
<path fill-rule="evenodd" clip-rule="evenodd" d="M673.121 486.953L702.091 485.033L705.209 498.205C718.093 501.763 723.354 504.928 720.991 507.702L676.151 507.719L673.121 486.953Z" fill="#4F27AA"/>
<path fill-rule="evenodd" clip-rule="evenodd" d="M467.127 467.197L469.091 486.897C470.479 500.818 482.448 511.261 496.428 510.75C509.53 510.27 522.266 506.3 533.32 499.249C544.373 492.199 553.343 482.324 559.302 470.645L587.342 415.687L610.129 451.847L641.924 447.03L620.246 400.579C605.958 369.963 565.876 362.342 541.348 385.577L471.392 451.847L467.127 467.197Z" fill="#2E2445"/>
<path d="M569.853 362.865H522.754C521.619 362.865 520.529 363.316 519.726 364.119C518.923 364.922 518.472 366.012 518.472 367.147H569.853V362.865Z" fill="#2E2445"/>
<path fill-rule="evenodd" clip-rule="evenodd" d="M564.176 317.407C564.538 315.566 565.529 313.907 566.978 312.715C568.428 311.523 570.246 310.871 572.123 310.871H650.775C651.186 310.872 651.593 310.965 651.963 311.144C652.333 311.323 652.659 311.584 652.914 311.906C653.17 312.229 653.35 312.605 653.44 313.006C653.531 313.408 653.529 313.824 653.436 314.225L641.77 364.157L556.49 366.347H554.544L564.176 317.407Z" fill="#2E2445"/>
<path fill-rule="evenodd" clip-rule="evenodd" d="M563.571 316.967C563.93 315.122 564.92 313.46 566.37 312.265C567.821 311.07 569.642 310.416 571.521 310.416H652.188C652.719 310.416 653.243 310.534 653.724 310.76C654.204 310.987 654.628 311.317 654.966 311.727C655.303 312.137 655.546 312.616 655.677 313.131C655.807 313.646 655.822 314.183 655.721 314.704L647.207 358.413C646.728 360.873 645.408 363.089 643.474 364.683C641.54 366.277 639.112 367.148 636.606 367.148H553.796L563.571 316.967Z" fill="#4F27AA"/>
<path fill-rule="evenodd" clip-rule="evenodd" d="M605.177 346.809C607.165 346.809 609.071 346.02 610.476 344.614C611.881 343.209 612.671 341.303 612.671 339.316C612.671 337.328 611.881 335.422 610.476 334.017C609.071 332.612 607.165 331.822 605.177 331.822C603.19 331.822 601.284 332.612 599.878 334.017C598.473 335.422 597.684 337.328 597.684 339.316C597.684 341.303 598.473 343.209 599.878 344.614C601.284 346.02 603.19 346.809 605.177 346.809Z" fill="white"/>
<path fill-rule="evenodd" clip-rule="evenodd" d="M545.958 362.751L540.493 357.302C533.255 350.084 521.285 351.014 515.248 359.264L483.443 414.212L485.073 404.937L459.101 399.282L455.764 422.808C454.038 434.975 462.344 446.293 474.468 448.295C479.41 449.111 484.484 448.263 488.892 445.884C493.3 443.505 496.794 439.73 498.825 435.151L530.93 362.751H545.958Z" fill="#F8AE9D"/>
<path d="M361.818 357.516H202.068C177.605 357.516 157.774 377.347 157.774 401.81C157.774 426.272 177.605 446.104 202.068 446.104H361.818C386.281 446.104 406.112 426.272 406.112 401.81C406.112 377.347 386.281 357.516 361.818 357.516Z" fill="white" stroke="#E1E4E5" stroke-width="4"/>
<path d="M238.375 401.809C238.375 382.158 222.445 366.229 202.794 366.229C183.144 366.229 167.214 382.158 167.214 401.809C167.214 421.46 183.144 437.39 202.794 437.39C222.445 437.39 238.375 421.46 238.375 401.809Z" fill="#4F27AA"/>
<path fill-rule="evenodd" clip-rule="evenodd" d="M218.964 416.735V419.114C218.964 420.427 217.912 421.493 216.616 421.493H188.442C187.146 421.493 186.094 420.427 186.094 419.114V416.697C186.094 409.497 194.213 404.82 202.529 404.82C210.845 404.82 218.964 409.5 218.964 416.697M208.424 383.919C209.198 384.693 209.812 385.612 210.231 386.623C210.65 387.635 210.866 388.719 210.866 389.814C210.866 390.908 210.65 391.993 210.231 393.004C209.812 394.016 209.198 394.935 208.424 395.709C206.86 397.272 204.74 398.15 202.529 398.15C200.318 398.15 198.197 397.272 196.634 395.709C195.86 394.935 195.245 394.016 194.826 393.004C194.407 391.993 194.192 390.908 194.192 389.814C194.192 388.719 194.407 387.635 194.826 386.623C195.245 385.612 195.86 384.693 196.634 383.919C197.408 383.144 198.327 382.53 199.338 382.111C200.35 381.692 201.434 381.477 202.529 381.477C203.624 381.477 204.708 381.692 205.719 382.111C206.731 382.53 207.65 383.144 208.424 383.919Z" fill="white"/>
<path d="M374.525 377.846H250.357C248.151 377.846 246.363 379.634 246.363 381.839C246.363 384.045 248.151 385.833 250.357 385.833H374.525C376.731 385.833 378.519 384.045 378.519 381.839C378.519 379.634 376.731 377.846 374.525 377.846Z" fill="#E1E4E5"/>
<path d="M374.525 397.451H250.357C248.151 397.451 246.363 399.239 246.363 401.445C246.363 403.65 248.151 405.438 250.357 405.438H374.525C376.731 405.438 378.519 403.65 378.519 401.445C378.519 399.239 376.731 397.451 374.525 397.451Z" fill="#E1E4E5"/>
<path d="M374.525 417.059H250.357C248.151 417.059 246.363 418.847 246.363 421.052C246.363 423.258 248.151 425.046 250.357 425.046H374.525C376.731 425.046 378.519 423.258 378.519 421.052C378.519 418.847 376.731 417.059 374.525 417.059Z" fill="#E1E4E5"/>
<path d="M378.945 239.768H219.195C194.732 239.768 174.901 259.599 174.901 284.062C174.901 308.524 194.732 328.356 219.195 328.356H378.945C403.408 328.356 423.239 308.524 423.239 284.062C423.239 259.599 403.408 239.768 378.945 239.768Z" fill="white" stroke="#E1E4E5" stroke-width="4"/>
<path d="M255.502 284.061C255.502 264.41 239.572 248.48 219.921 248.48C200.271 248.48 184.341 264.41 184.341 284.061C184.341 303.712 200.271 319.641 219.921 319.641C239.572 319.641 255.502 303.712 255.502 284.061Z" fill="#4F27AA"/>
<path fill-rule="evenodd" clip-rule="evenodd" d="M236.091 298.988V301.367C236.091 302.681 235.039 303.746 233.743 303.746H205.569C204.273 303.746 203.221 302.681 203.221 301.367V298.95C203.221 291.751 211.34 287.073 219.656 287.073C227.972 287.073 236.091 291.753 236.091 298.95M225.551 266.172C227.114 267.735 227.992 269.856 227.992 272.067C227.992 274.278 227.114 276.398 225.551 277.962C224.777 278.736 223.858 279.35 222.847 279.769C221.835 280.188 220.751 280.404 219.656 280.404C218.561 280.404 217.477 280.188 216.466 279.769C215.454 279.35 214.535 278.736 213.761 277.962C212.987 277.188 212.373 276.269 211.954 275.257C211.535 274.246 211.319 273.162 211.319 272.067C211.319 270.972 211.535 269.888 211.954 268.876C212.373 267.865 212.987 266.946 213.761 266.172C215.325 264.609 217.445 263.73 219.656 263.73C221.867 263.73 223.988 264.609 225.551 266.172Z" fill="white"/>
<path d="M391.652 260.1H267.484C265.278 260.1 263.49 261.888 263.49 264.093C263.49 266.299 265.278 268.087 267.484 268.087H391.652C393.858 268.087 395.646 266.299 395.646 264.093C395.646 261.888 393.858 260.1 391.652 260.1Z" fill="#E1E4E5"/>
<path d="M391.652 279.705H267.484C265.278 279.705 263.49 281.493 263.49 283.699C263.49 285.904 265.278 287.692 267.484 287.692H391.652C393.858 287.692 395.646 285.904 395.646 283.699C395.646 281.493 393.858 279.705 391.652 279.705Z" fill="#E1E4E5"/>
<path d="M391.652 299.311H267.484C265.278 299.311 263.49 301.098 263.49 303.304C263.49 305.51 265.278 307.298 267.484 307.298H391.652C393.858 307.298 395.646 305.51 395.646 303.304C395.646 301.098 393.858 299.311 391.652 299.311Z" fill="#E1E4E5"/>
<path d="M423.903 122.021H264.153C239.69 122.021 219.859 141.853 219.859 166.315C219.859 190.778 239.69 210.609 264.153 210.609H423.903C448.366 210.609 468.197 190.778 468.197 166.315C468.197 141.853 448.366 122.021 423.903 122.021Z" fill="white" stroke="#E1E4E5" stroke-width="4"/>
<path d="M300.459 166.315C300.459 146.664 284.529 130.734 264.878 130.734C245.228 130.734 229.298 146.664 229.298 166.315C229.298 185.965 245.228 201.895 264.878 201.895C284.529 201.895 300.459 185.965 300.459 166.315Z" fill="#4F27AA"/>
<path fill-rule="evenodd" clip-rule="evenodd" d="M281.048 181.242V183.621C281.048 184.934 279.996 186 278.7 186H250.526C249.23 186 248.178 184.934 248.178 183.621V181.203C248.178 174.004 256.297 169.327 264.613 169.327C272.929 169.327 281.048 174.006 281.048 181.203M270.508 148.426C271.282 149.2 271.897 150.119 272.316 151.131C272.735 152.142 272.95 153.226 272.95 154.321C272.95 155.416 272.735 156.5 272.316 157.511C271.897 158.523 271.282 159.441 270.508 160.215C269.734 160.99 268.815 161.604 267.804 162.023C266.792 162.442 265.708 162.658 264.613 162.658C263.518 162.658 262.434 162.442 261.423 162.023C260.411 161.604 259.492 160.99 258.718 160.215C257.944 159.441 257.33 158.523 256.911 157.511C256.492 156.5 256.276 155.416 256.276 154.321C256.276 153.226 256.492 152.142 256.911 151.131C257.33 150.119 257.944 149.2 258.718 148.426C259.492 147.652 260.411 147.038 261.423 146.619C262.434 146.2 263.518 145.984 264.613 145.984C265.708 145.984 266.792 146.2 267.804 146.619C268.815 147.038 269.734 147.652 270.508 148.426Z" fill="white"/>
<path d="M436.609 142.354H312.441C310.235 142.354 308.447 144.141 308.447 146.347C308.447 148.553 310.235 150.341 312.441 150.341H436.609C438.815 150.341 440.603 148.553 440.603 146.347C440.603 144.141 438.815 142.354 436.609 142.354Z" fill="#E1E4E5"/>
<path d="M436.609 161.957H312.441C310.235 161.957 308.447 163.745 308.447 165.951C308.447 168.156 310.235 169.944 312.441 169.944H436.609C438.815 169.944 440.603 168.156 440.603 165.951C440.603 163.745 438.815 161.957 436.609 161.957Z" fill="#E1E4E5"/>
<path d="M436.609 181.564H312.441C310.235 181.564 308.447 183.352 308.447 185.558C308.447 187.764 310.235 189.551 312.441 189.551H436.609C438.815 189.551 440.603 187.764 440.603 185.558C440.603 183.352 438.815 181.564 436.609 181.564Z" fill="#E1E4E5"/>
<path fill-rule="evenodd" clip-rule="evenodd" d="M587.29 78C585.389 79.7844 583.748 81.8266 582.415 84.067C574.065 98.007 568.028 113.069 564.305 128.629C551.576 126.841 539.22 124.202 527.593 120.711C540.309 99.027 561.853 83.145 587.29 78ZM523.024 129.773C535.436 133.607 548.651 136.496 562.274 138.441C558.99 157.229 558.989 176.445 562.272 195.233C548.83 197.152 535.786 199.992 523.52 203.751C518.241 192.305 515.295 179.561 515.295 166.13C515.295 153.182 518.032 140.875 522.958 129.753L523.024 129.773ZM528.311 212.751C540.81 233.323 561.332 248.482 585.534 253.885C584.364 252.564 583.319 251.137 582.415 249.622C574.062 235.676 568.025 220.61 564.301 205.045C551.834 206.796 539.726 209.365 528.311 212.751ZM574.296 203.823C577.804 218.021 583.37 231.755 590.994 244.484L590.995 244.485C597.599 255.516 612.831 255.516 619.436 244.485V244.484C627.06 231.755 632.627 218.021 636.135 203.823C615.755 201.697 594.674 201.697 574.296 203.823ZM646.129 205.045C642.406 220.61 636.368 235.677 628.016 249.622C627.112 251.136 626.068 252.563 624.899 253.883C649.098 248.478 669.616 233.318 682.113 212.747C670.699 209.363 658.593 206.796 646.129 205.045ZM686.903 203.747C674.639 199.99 661.597 197.152 648.159 195.233C651.442 176.444 651.441 157.227 648.156 138.438C661.772 136.494 674.979 133.605 687.384 129.773L687.462 129.748C692.389 140.871 695.126 153.181 695.126 166.13C695.126 179.56 692.182 192.302 686.903 203.747ZM638.224 193.989C616.476 191.642 593.953 191.642 572.207 193.989C569.01 176.028 569.011 157.644 572.21 139.684C593.956 142.03 616.477 142.03 638.221 139.683C641.419 157.644 641.42 176.028 638.224 193.989ZM574.3 129.85C594.677 131.975 615.755 131.974 636.131 129.849C632.622 115.657 627.058 101.929 619.437 89.206L619.436 89.204C612.821 78.17 597.598 78.174 590.995 89.204H590.994C583.373 101.928 577.808 115.658 574.3 129.85ZM646.125 128.627C658.852 126.838 671.204 124.199 682.827 120.708C670.112 99.027 648.571 83.147 623.138 78.001C625.039 79.7841 626.68 81.825 628.014 84.064L628.015 84.066C636.365 98.006 642.402 113.067 646.125 128.627Z" fill="#4F27AA"/>
</g>
<defs>
<linearGradient id="paint0_linear_1235_20486" x1="463.774" y1="538.82" x2="463.731" y2="459.354" gradientUnits="userSpaceOnUse">
<stop stop-color="white"/>
<stop offset="1" stop-color="#EEEEEE"/>
</linearGradient>
<linearGradient id="paint1_linear_1235_20486" x1="412.112" y1="589.511" x2="416.044" y2="213.682" gradientUnits="userSpaceOnUse">
<stop stop-color="white"/>
<stop offset="1" stop-color="#EEEEEE"/>
</linearGradient>
<linearGradient id="paint2_linear_1235_20486" x1="529.176" y1="276.162" x2="529.176" y2="327.542" gradientUnits="userSpaceOnUse">
<stop stop-color="#354970"/>
<stop offset="1" stop-color="#18233D"/>
</linearGradient>
<linearGradient id="paint3_linear_1235_20486" x1="463.524" y1="346.867" x2="452.66" y2="397.98" gradientUnits="userSpaceOnUse">
<stop stop-color="#98D8FF"/>
<stop offset="1" stop-color="#5FB0FF"/>
</linearGradient>
<clipPath id="clip0_1235_20486">
<rect width="900" height="600" fill="white"/>
</clipPath>
</defs>
</svg>
