<svg width="149" height="38" viewBox="0 0 149 38" fill="none" xmlns="http://www.w3.org/2000/svg">
<path fill-rule="evenodd" clip-rule="evenodd" d="M0 13.5795C0 6.50937 5.1855 0 15.0132 0C22.8903 0 29.0141 5.55856 29.0388 12.9944C29.0388 20.7471 24.1002 26.9639 17.2356 26.9639C14.9392 26.9639 12.7662 25.7693 12.0254 24.3796C12.0254 24.3796 10.8895 28.6705 10.6179 29.7188C9.85244 32.62 7.13623 36.6426 6.91399 36.9352C6.8893 36.9839 6.81522 37.0327 6.74115 37.0327C6.61768 37.0327 6.49422 36.9352 6.49422 36.8133C6.42014 36.3988 5.62997 31.5716 6.32137 28.5973C6.74115 26.842 8.98819 17.4314 8.98819 17.4314C8.51903 16.3831 8.2721 15.2373 8.29679 14.0914C8.29679 10.9708 10.1241 8.63039 12.4205 8.63039C14.3465 8.63039 15.2849 10.0688 15.2849 11.7997C15.2849 12.9914 14.8122 14.5471 14.3114 16.1954C14.0028 17.2111 13.6835 18.2619 13.4576 19.2843C12.9144 21.5028 14.5935 23.3313 16.8158 23.3313C20.8408 23.3313 23.9521 19.138 23.9521 13.0675C23.9521 7.70397 20.0506 3.9495 14.47 3.9495C8.00048 3.9495 4.19778 8.72791 4.19778 13.677C4.19778 15.603 4.93857 17.6752 5.8769 18.7967C6.02505 18.9917 6.09913 19.2355 6.02505 19.455C5.93529 19.8221 5.78558 20.4063 5.65203 20.9274C5.52842 21.4097 5.41865 21.8381 5.38304 21.9904C5.28427 22.4049 5.06203 22.478 4.61756 22.283C1.77788 20.9665 0 16.8707 0 13.5795ZM146.675 17.7728H143.095C143.095 17.7728 142.478 20.3082 142.107 21.771C142.025 22.0802 141.945 22.3803 141.867 22.6709L141.85 22.7337L141.848 22.7409C141.212 25.1186 140.749 26.8492 140.749 27.6465C140.749 28.6948 141.317 29.3043 142.305 29.3043C144.009 29.3043 144.873 27.8903 145.219 26.5494C145.268 26.2813 145.515 26.0862 145.787 26.0862H147.342C147.392 26.0862 147.466 26.0862 147.515 26.1106C147.713 26.2081 147.787 26.4275 147.713 26.6226C146.626 30.4014 144.083 32.9857 140.033 32.9857C137.169 32.9857 135.86 31.2547 135.86 28.963C135.86 27.2564 138.428 17.8703 138.428 17.8703H135.934C135.465 17.8703 135.243 17.5777 135.341 17.1633C135.404 16.9773 135.537 16.4467 135.669 15.9156L135.67 15.915L135.67 15.9137C135.746 15.6099 135.822 15.306 135.885 15.0666C135.983 14.6034 136.28 14.4084 136.774 14.4084H139.317C139.317 14.4084 140.823 10.0444 140.823 7.60645C140.823 4.63213 138.897 2.80366 135.959 2.80366C131.736 2.80366 129.687 5.72922 129.687 9.28864C129.687 12.6968 131.277 14.181 132.566 15.3837C133.443 16.2028 134.181 16.8912 134.181 17.9678C134.181 18.8942 133.613 19.9182 132.304 19.9182C130.773 19.9182 129.884 18.7236 129.44 17.6509C128.674 17.4071 127.86 17.2852 127.069 17.2852C125.39 17.2852 124.403 17.8459 124.403 19.0893C124.403 20.4174 125.794 20.8985 127.606 21.5249L127.607 21.5252L127.607 21.5255C127.857 21.6118 128.115 21.7009 128.378 21.7954C131.02 22.7462 133.613 23.8921 133.613 26.9883C133.613 30.4258 130.724 33.01 125.687 33.01C122.007 33.01 119.192 31.5716 118.081 29.7675C115.735 31.6935 113.217 32.9857 109.315 32.9857C104.327 32.9857 101.413 29.7188 101.413 25.8668C101.413 25.1598 101.488 24.4528 101.586 23.7702C101.134 23.666 100.682 23.571 100.247 23.4795C99.9692 23.421 99.698 23.364 99.4381 23.3069C98.722 23.7945 97.8083 24.0627 96.6972 24.0627C95.265 24.0627 94.1785 23.1363 94.1785 22.1367C94.1785 20.6008 95.3637 19.8938 96.8206 20.1863C96.9935 19.8694 97.0676 19.5037 97.0676 19.1624C97.0676 18.236 96.6231 17.6509 95.5613 17.6509C92.5488 17.6509 90.5486 22.6243 89.2893 27.4027C88.9228 28.8361 88.6127 30.0232 88.4048 30.819C88.2485 31.4173 88.1499 31.7944 88.1287 31.8886C88.0547 32.303 87.6843 32.5956 87.2645 32.5712H84.0791C83.5359 32.5712 83.3383 32.2055 83.4618 31.7667C83.4747 31.7283 83.5489 31.4417 83.6698 30.9738C83.7795 30.5497 83.9277 29.9766 84.1038 29.3043C81.8815 31.6692 78.7455 32.9857 75.486 32.9613C71.8562 32.9613 69.3622 31.1816 68.3004 28.7192C67.0164 30.8403 64.8434 32.9613 61.2382 32.9613C59.0653 32.9613 57.88 31.9617 57.4355 30.4746C56.2256 31.8886 54.5218 32.9613 52.25 32.9613C48.9165 32.9613 48.2498 30.694 48.2498 28.9386C48.2498 27.5382 48.8998 25.0505 49.441 22.9789C49.7949 21.6243 50.1023 20.4477 50.1512 19.8694C50.2499 18.5285 49.361 17.8459 48.2992 17.8459C46.0768 17.8459 44.4965 19.5281 43.8545 22.0392C43.8545 22.0392 41.4593 31.3766 41.3358 31.8642C41.2123 32.3518 41.0148 32.5712 40.4469 32.5712H37.2121C36.6936 32.5712 36.5454 32.1811 36.6689 31.7423C36.6881 31.7042 36.7676 31.3987 36.8956 30.9068L36.8971 30.901C36.9326 30.7644 36.9719 30.6136 37.0146 30.4502C35.6812 31.8642 33.928 32.9613 31.7303 32.9613C28.8659 32.9613 27.8288 31.2303 27.8288 28.9386C27.8288 27.7638 28.4412 25.3999 29.0721 22.9646C29.1351 22.7215 29.1983 22.4777 29.261 22.2342C30.1993 18.5285 31.0883 15.2129 31.0883 15.2129C31.1871 14.7984 31.4093 14.5059 31.9772 14.5059H35.1379C35.6812 14.5059 35.854 14.8472 35.7552 15.2617C35.7202 15.4231 35.5361 16.1242 35.2603 17.1743L35.2602 17.1746L35.2598 17.1763C34.9524 18.3467 34.5314 19.9499 34.0761 21.7223C33.9906 22.0631 33.9065 22.3958 33.8249 22.7188C33.2471 25.006 32.7921 26.8073 32.7921 27.5978C32.7921 28.6461 33.2366 29.2556 34.2243 29.2556C36.1503 29.2556 37.9529 26.842 38.6937 23.9408C39.1926 22.004 39.6968 20.0311 40.1009 18.4496L40.1024 18.4437L40.1027 18.4427L40.104 18.4375C40.5783 16.5816 40.9141 15.2675 40.9407 15.1885C41.0395 14.8228 41.2123 14.4571 41.8791 14.4571H44.9904C45.0644 14.4571 45.1632 14.4571 45.2373 14.4815C45.5336 14.579 45.7064 14.896 45.6077 15.1885C45.5089 15.5542 45.2373 16.4806 45.2373 16.4806C46.1262 15.3592 48.2251 14.0671 50.2499 14.0671C53.46 14.0671 55.0156 15.7493 55.0156 18.626C55.0156 19.7311 54.5112 21.5282 54.022 23.2711L54.022 23.2711C53.5614 24.9121 53.1143 26.505 53.1143 27.4271C53.1143 28.6461 53.5835 29.2068 54.7193 29.2068C56.596 29.2068 57.7565 25.7693 58.1022 24.3065C58.843 21.2591 59.732 17.8703 59.7567 17.7971H57.2133C56.7441 17.7971 56.5219 17.5046 56.6207 17.0901C56.6835 16.904 56.8164 16.3722 56.9492 15.8405L56.9495 15.8394C57.0253 15.5359 57.1011 15.2325 57.1639 14.9935C57.2627 14.5303 57.559 14.3352 58.0529 14.3352H60.6456L61.979 9.04485C62.1519 8.3866 62.5223 8.11842 62.9914 8.0209C63.4606 7.92338 65.9793 7.43579 65.9793 7.43579C66.4978 7.31389 67.0164 7.65521 66.8682 8.2647C66.8188 8.43536 65.3372 14.3109 65.3372 14.3109H68.5967C69.0659 14.3109 69.2881 14.6034 69.1893 15.0179C69.0906 15.3104 68.7943 16.4563 68.6461 17.1145C68.5226 17.5777 68.251 17.7728 67.7571 17.7728H64.4483C64.3095 18.321 64.1768 18.8512 64.0523 19.3485L64.051 19.3538L64.0492 19.3606L64.049 19.3616L64.0486 19.3634C63.8203 20.2753 63.6199 21.0759 63.4606 21.6735C63.31 22.258 63.1627 22.8167 63.0239 23.3429C62.5028 25.3186 62.1025 26.8367 62.1025 27.549C62.1025 28.5973 62.6704 29.2068 63.6581 29.2068C65.6829 29.2068 67.5596 26.1837 67.8312 23.9896C68.4732 18.6992 72.1772 14.0427 78.2516 14.0427H78.2763C82.3753 14.0427 84.4495 16.4806 84.4495 18.8211C84.4495 23.1607 81.3382 25.3305 76.3256 25.3305C75.165 25.3305 73.5106 25.0867 72.7698 24.7941C72.7698 27.9147 74.2514 29.475 77.091 29.475C81.4123 29.475 84.8446 26.3056 85.5113 23.7458C86.5731 19.6744 87.6596 15.4567 87.7337 15.1154C87.8571 14.6034 88.1781 14.4571 88.6226 14.4571H91.7833C92.3512 14.4571 92.4994 14.8472 92.4006 15.2129C92.4006 15.2527 92.3274 15.5312 92.2048 15.9971L92.2046 15.9978C92.1022 16.3872 91.9653 16.9076 91.808 17.529C93.2155 15.4567 95.2403 14.0671 97.3886 14.0671C100.45 14.0671 101.611 16.2368 101.611 18.0653C101.611 19.0161 101.438 19.9913 101.092 20.8934C101.278 20.9421 101.463 20.9848 101.648 21.0274C101.833 21.0701 102.018 21.1128 102.204 21.1615C103.512 17.4314 106.55 14.0671 111.933 14.0671H111.957C116.056 14.0671 118.131 16.505 118.131 18.8455C118.131 23.185 114.846 25.3548 110.031 25.3548C108.895 25.3548 107.142 25.111 106.476 24.916C106.476 28.0366 107.932 29.4994 110.797 29.4994C113.686 29.4994 115.711 28.5242 117.587 27.0126C117.834 25.7693 118.822 24.8429 119.983 24.8429C121.365 24.8429 122.106 25.6718 122.106 26.7201C122.131 27.2564 121.909 27.7684 121.513 28.1097C121.884 28.5486 123.291 29.7432 125.835 29.7432C128.008 29.7432 129.094 29.0849 129.094 27.9635C129.094 26.5386 127.659 26.0758 125.9 25.5082C125.582 25.4057 125.253 25.2998 124.921 25.1842C122.476 24.3309 119.884 23.0631 119.884 19.8207C119.884 16.3587 122.674 13.9695 127.119 13.9695C127.44 13.9695 127.761 13.9695 128.082 13.9939C127.218 12.6043 126.748 11.0196 126.724 9.38616C126.724 3.9495 130.526 0.0731389 136.379 0.0731389C141.564 0.0731389 145.219 3.68133 145.219 7.92338C145.219 9.67568 144.528 12.2101 144.148 13.6019L144.147 13.6046L144.146 13.6084C144.067 13.8984 144.002 14.1384 143.959 14.3109H147.515C147.984 14.3109 148.206 14.6034 148.108 15.0179C148.045 15.2038 147.912 15.7344 147.78 16.2655L147.779 16.2662L147.779 16.2674C147.703 16.5713 147.627 16.8751 147.564 17.1145C147.466 17.5777 147.169 17.7728 146.675 17.7728ZM77.4367 17.6269C79.0171 17.6269 79.5603 18.5777 79.5603 19.6991C79.5603 21.6007 78.0788 22.7466 75.7329 22.7466C74.8193 22.7222 73.9057 22.5759 73.0414 22.3321C73.3377 20.5768 74.4736 17.6269 77.4367 17.6269ZM111.142 17.6269C112.575 17.6269 113.266 18.5777 113.266 19.6991C113.266 21.6007 111.785 22.7466 109.439 22.7466C108.525 22.7222 107.611 22.5759 106.747 22.3321C107.043 20.5768 108.328 17.6269 111.142 17.6269ZM37.5084 9.53291C37.385 11.1907 36.0022 12.5072 34.3971 12.5072C32.7921 12.5072 31.5822 11.1663 31.6809 9.53291C31.8044 7.87509 33.1872 6.55859 34.7922 6.55859C36.3973 6.55859 37.6072 7.89947 37.5084 9.53291Z" fill="#010B38" fill-opacity="0.6"/>
</svg>
