<svg width="163" height="35" viewBox="0 0 163 35" fill="none" xmlns="http://www.w3.org/2000/svg">
<path fill-rule="evenodd" clip-rule="evenodd" d="M0 0H16.5064V16.5064H0V0ZM159.032 15.6983H162.613V12.8171H159.086V8.40102L158.978 8.42795L155.639 9.42426L155.558 9.45118V12.8171H150.281V10.9322C150.281 10.0705 150.496 9.39733 150.873 8.9665C151.25 8.53566 151.815 8.32024 152.515 8.32024C153 8.32024 153.512 8.42795 154.077 8.6703L154.212 8.75108V5.70831L154.131 5.68138C153.646 5.51982 153 5.41211 152.165 5.41211C151.115 5.41211 150.2 5.65445 149.365 6.05836C148.53 6.51612 147.911 7.13545 147.453 7.97019C146.995 8.778 146.753 9.69353 146.753 10.7437V12.8171H144.303V15.6714H146.753V27.7347H150.281V15.6983H155.558V23.3725C155.558 26.523 157.039 28.1117 160.001 28.1117C160.486 28.1117 160.998 28.0309 161.482 27.9501C161.994 27.8424 162.371 27.7078 162.586 27.6001L162.613 27.5732V24.692L162.479 24.7997C162.263 24.9343 162.075 25.042 161.751 25.1228C161.482 25.2036 161.24 25.2305 161.051 25.2305C160.351 25.2305 159.867 25.0689 159.517 24.665C159.193 24.2881 159.032 23.6687 159.032 22.7532V15.6983ZM74.292 7.10877C73.942 6.73179 73.4304 6.51637 72.8111 6.51637C72.2187 6.51637 71.734 6.73179 71.3301 7.10877C70.9261 7.48575 70.7107 7.97044 70.7107 8.56284C70.7107 9.12831 70.9261 9.613 71.3301 9.98998C71.734 10.367 72.2187 10.5554 72.8111 10.5554C73.4035 10.5554 73.9151 10.34 74.292 9.98998C74.696 9.613 74.9114 9.12831 74.9114 8.56284C74.9114 7.99737 74.696 7.51268 74.292 7.10877ZM57.4087 20.0069L62.7403 6.94721H67.641V27.735H64.0597V14.5407C64.0866 13.7059 64.1405 12.3326 64.2213 10.7978H64.1405C64.1088 10.9372 64.0771 11.0825 64.0455 11.2279C63.9425 11.7003 63.8396 12.1727 63.7366 12.4403L57.5433 27.7619H55.1738L48.9267 12.575C48.792 12.198 48.6035 11.6056 48.442 10.7978H48.3612C48.369 10.8914 48.379 10.9941 48.3901 11.1065C48.4171 11.3819 48.4498 11.7156 48.4689 12.1172C48.4958 13.2482 48.4958 14.1637 48.4958 14.9715V27.8158H45.1299V7.00106H50.2192L55.4161 20.0607C55.9008 21.1917 56.197 22.1341 56.3586 22.7535H56.4393L57.4087 20.0069ZM71.0339 12.8173H74.5344V27.735H71.0339V12.8173ZM86.9478 12.6822C87.6276 12.8129 88.1297 13.0198 88.5773 13.2043L88.6173 13.2208L88.6442 13.2477V16.6674L88.5096 16.5597C87.4594 15.8058 86.3016 15.4288 85.1706 15.4288C83.8242 15.4288 82.7202 15.8865 81.8855 16.7751C81.0508 17.6637 80.6468 18.8755 80.6468 20.4103C80.6468 21.8913 81.0508 23.0761 81.8586 23.9378C82.6395 24.8264 83.7435 25.2303 85.1437 25.2303C85.6284 25.2303 86.1938 25.1226 86.8132 24.9071C87.4056 24.7187 87.998 24.3955 88.5096 24.0186L88.6442 23.9108V27.1421L88.6173 27.169C87.4863 27.8153 86.0592 28.1653 84.3897 28.1653C82.9357 28.1653 81.6432 27.8422 80.5391 27.2229C79.3813 26.6036 78.5196 25.688 77.9003 24.5571C77.281 23.3992 76.9578 22.1336 76.9578 20.7065C76.9578 19.064 77.281 17.6368 77.9272 16.3982C78.5465 15.1864 79.5159 14.2171 80.7276 13.517C81.9393 12.8168 83.3934 12.4668 84.9821 12.4668C85.6284 12.4668 86.3016 12.5476 86.9478 12.6822ZM99.819 12.8173C99.5767 12.6558 99.092 12.575 98.4996 12.575C97.6379 12.575 96.8301 12.8443 96.13 13.4097C95.5376 13.8944 95.1337 14.5945 94.7836 15.4293H94.7567V12.8173H91.2562V27.735H94.7567V20.1146C94.7567 18.8221 95.026 17.745 95.6184 16.9641C96.2108 16.1563 96.9647 15.7524 97.8802 15.7524C98.0957 15.7524 98.3111 15.7883 98.5504 15.8282C98.6701 15.8481 98.7958 15.8691 98.9304 15.887C99.3074 15.9947 99.5767 16.1024 99.7651 16.2371L99.8998 16.3448V12.8443L99.819 12.8173ZM108.032 12.4942C110.348 12.4942 112.205 13.1674 113.471 14.5407C114.79 15.914 115.437 17.7989 115.437 20.1684C115.437 22.565 114.764 24.5037 113.363 25.9578C111.99 27.4119 110.078 28.1389 107.682 28.1389C105.393 28.1389 103.562 27.4388 102.216 26.0924C100.869 24.7191 100.169 22.8342 100.169 20.5185C100.169 18.0412 100.842 16.0755 102.242 14.6484C103.616 13.2212 105.581 12.4942 108.032 12.4942ZM111.855 20.2488C111.802 21.8644 111.505 23.13 110.832 23.9648C110.186 24.7995 109.163 25.2034 107.897 25.2034C106.632 25.2034 105.608 24.7995 104.881 23.9109C104.154 23.0762 103.804 21.8644 103.804 20.3296C103.804 18.7409 104.181 17.5292 104.881 16.6675C105.608 15.8058 106.605 15.375 107.87 15.375C109.109 15.375 110.078 15.7789 110.778 16.6136C111.478 17.4484 111.855 18.6601 111.855 20.2488ZM123.246 19.0101C124.646 19.5486 125.615 20.2218 126.396 20.8681C126.988 21.5413 127.258 22.4298 127.258 23.4262C127.258 24.8533 126.692 25.9573 125.615 26.819C124.565 27.7076 123.084 28.1115 121.28 28.1115C120.688 28.1115 120.014 28.0038 119.26 27.8691C118.506 27.6806 117.887 27.5191 117.375 27.2767L117.295 27.2498V23.8301L117.429 23.9378C117.995 24.3417 118.668 24.6917 119.395 24.9341C120.122 25.1764 120.741 25.2841 121.334 25.2841C122.869 25.2841 123.623 24.7994 123.623 23.8031C123.623 23.4531 123.542 23.1838 123.407 22.9684C123.219 22.7799 122.976 22.5376 122.599 22.3221C122.222 22.1067 121.603 21.8375 120.795 21.4874C119.826 21.0835 119.126 20.6527 118.641 20.2757C118.156 19.8718 117.806 19.3871 117.564 18.8755C117.322 18.3638 117.214 17.7445 117.214 17.0444C117.214 15.725 117.726 14.594 118.803 13.7593C119.88 12.8707 121.253 12.4668 122.922 12.4668C123.407 12.4668 124 12.5207 124.646 12.6284C125.292 12.763 125.831 12.9246 126.235 13.0861L126.315 13.113V16.3982L126.181 16.2905C125.75 15.9673 125.211 15.725 124.619 15.5634C124.026 15.4019 123.407 15.2941 122.815 15.2941C122.142 15.2941 121.684 15.4288 121.28 15.6981C120.876 15.9673 120.714 16.3712 120.714 16.7751C120.714 17.2598 120.849 17.6368 121.118 17.9061C121.441 18.2023 122.142 18.5523 123.246 19.0101ZM141.933 14.5407C140.667 13.1674 138.81 12.4942 136.494 12.4942C134.043 12.4942 132.078 13.2212 130.704 14.6484C129.331 16.0755 128.631 18.0412 128.631 20.5185C128.631 22.8342 129.331 24.7191 130.678 26.0924C132.024 27.4388 133.855 28.1389 136.144 28.1389C138.54 28.1389 140.452 27.4119 141.825 25.9578C143.226 24.5037 143.899 22.565 143.899 20.1684C143.899 17.7989 143.253 15.914 141.933 14.5407ZM139.267 23.9648C139.94 23.13 140.291 21.8644 140.291 20.2488C140.291 18.6601 139.914 17.4484 139.213 16.6136C138.513 15.7789 137.517 15.375 136.305 15.375C135.04 15.375 134.043 15.8058 133.316 16.6675C132.616 17.5292 132.239 18.7409 132.239 20.3296C132.239 21.8644 132.589 23.0762 133.316 23.9109C134.043 24.7995 135.04 25.2034 136.332 25.2034C137.598 25.2034 138.621 24.7995 139.267 23.9648ZM34.736 0H18.2297V16.5064H34.736V0ZM0 18.2297H16.5064V34.736H0V18.2297ZM34.736 18.2297H18.2297V34.736H34.736V18.2297Z" fill="#010B38" fill-opacity="0.6"/>
</svg>
