<svg width="127" height="42" viewBox="0 0 127 42" fill="none" xmlns="http://www.w3.org/2000/svg">
<path fill-rule="evenodd" clip-rule="evenodd" d="M16.452 14.9196V19.3722L27.0447 19.3675C26.7197 21.8233 25.8955 23.6215 24.6426 24.8801C23.0978 26.4322 20.6862 28.1404 16.452 28.1404C9.92394 28.1404 4.81831 22.8549 4.81831 16.2965C4.81831 9.73817 9.92394 4.45268 16.452 4.45268C19.975 4.45268 22.5467 5.84385 24.4448 7.63249L27.5722 4.49054C24.9252 1.94953 21.4022 0 16.4567 0C7.51713 0 0 7.31546 0 16.2965C0 25.2776 7.51713 32.5931 16.4567 32.5931C21.2797 32.5931 24.9205 31.0032 27.7701 28.0221C30.6997 25.0789 31.6087 20.948 31.6087 17.6073C31.6087 16.6136 31.5333 15.6956 31.3873 14.9196H16.452ZM105.805 31.9543V1.19716H101.331V31.9543H105.805ZM54.3485 22.1025C54.3485 28.1451 49.6432 32.5978 43.8688 32.5978C38.0943 32.5978 33.3891 28.1451 33.3891 22.1025C33.3891 16.0173 38.0943 11.6073 43.8688 11.6073C49.6432 11.6073 54.3485 16.0173 54.3485 22.1025ZM49.761 22.1025C49.761 18.3265 47.0339 15.7429 43.8688 15.7429C40.7037 15.7429 37.9766 18.3265 37.9766 22.1025C37.9766 25.8407 40.7037 28.4621 43.8688 28.4621C47.0339 28.4621 49.761 25.836 49.761 22.1025ZM76.9564 22.1025C76.9564 28.1451 72.2512 32.5978 66.4767 32.5978C60.7023 32.5978 55.997 28.1451 55.997 22.1025C55.997 16.0221 60.7023 11.6073 66.4767 11.6073C72.2512 11.6073 76.9564 16.0173 76.9564 22.1025ZM72.3689 22.1025C72.3689 18.3265 69.6418 15.7429 66.4767 15.7429C63.3116 15.7429 60.5845 18.3265 60.5845 22.1025C60.5845 25.8407 63.3116 28.4621 66.4767 28.4621C69.6418 28.4621 72.3689 25.836 72.3689 22.1025ZM98.6223 31.0836V12.2461H94.2656V13.9543H94.1055C93.074 12.7192 91.0958 11.6073 88.6042 11.6073C83.3808 11.6073 78.5955 16.2161 78.5955 22.1404C78.5955 28.0221 83.3808 32.5931 88.6042 32.5931C91.1005 32.5931 93.0787 31.4811 94.1055 30.2082H94.2656V31.7177C94.2656 35.735 92.132 37.8691 88.689 37.8691C85.8818 37.8691 84.1391 35.8533 83.4279 34.1451L79.4339 35.8155C80.5831 38.5978 83.6305 42 88.6937 42C94.0725 42 98.6223 38.8344 98.6223 31.0836ZM89.014 15.7429C92.1367 15.7429 94.5906 18.4448 94.5906 22.1404C94.5906 25.7981 92.1367 28.4621 89.014 28.4621C85.8489 28.4621 83.1972 25.7981 83.1972 22.1404C83.1972 18.4448 85.8489 15.7429 89.014 15.7429ZM126.802 27.9416L123.241 25.5568C122.055 27.3076 120.434 28.4621 118.098 28.4621C115.767 28.4621 114.104 27.388 113.035 25.2823L127 19.4716L126.524 18.2792C125.658 15.9369 123.006 11.6025 117.585 11.6025C112.201 11.6025 107.731 15.8565 107.731 22.0978C107.731 27.9842 112.164 32.5931 118.098 32.5931C122.883 32.5931 125.653 29.6498 126.802 27.9416ZM121.616 17.8861L112.281 21.7804C112.164 17.7299 115.409 15.6621 117.74 15.6621C119.558 15.6621 121.103 16.5753 121.616 17.8861Z" fill="#010B38" fill-opacity="0.6"/>
</svg>
